<svg xmlns="http://www.w3.org/2000/svg" width="169.882" height="18"><path d="M168.235 0c.336 0 .67.026.995.066.447.113.217.626-.18.626a.476.476 0 0 1-.082-.008c-.839.097-1.872.15-2.506.626-.84.916-.463 2.821-.56 3.725-.008.05-.01 3.653-.01 5.48a6.145 6.145 0 0 1 2.634-.586c.402 0 .801.04 1.188.117.44.231-.077.528-.423.528a.454.454 0 0 1-.114-.013c-1.226.133-2.62.461-3.243 1.602-.062.206-.023.277.07.277.207 0 .68-.342.947-.342.014 0 .027 0 .04.003a7.535 7.535 0 0 1 1.58-.169c.39 0 .776.031 1.148.095.421.278-.095.534-.437.534a.532.532 0 0 1-.105-.01c-1.252.151-2.637.49-3.243 1.633-.007 1.27 0 2.11-.034 3.278.015.36-.22.538-.456.538-.235 0-.473-.176-.474-.526.008-1.15.09-2.161-.06-3.277-.305-1.253-2.478-1.445-3.828-1.754-.294-.347.286-.475.659-.475.056 0 .107.003.15.008.173-.013.347-.02.521-.02.883 0 1.772.175 2.558.58.032-.755-.712-1.19-1.244-1.493-.84-.361-1.766-.397-2.644-.59-.313-.273.18-.501.522-.501a.58.58 0 0 1 .125.012c.215-.02.431-.031.648-.031.902 0 1.804.183 2.614.582-.017-2.851-.063-5.61.019-8.308.066-.834.546-1.6 1.354-1.849.58-.264 1.227-.358 1.871-.358zM144.24 2.99q-.557 0-1.086.606 4.368 5.2 5.46 5.81.815.457 1.434.457.211 0 .4-.053.74-.208 1.585-.234h.043q.828 0 1.816.988h.13q-.702-1.638-1.963-2.34-1.26-.702-7.397-5.148-.213-.085-.422-.085zm7.731-2.369q-.065 0-.133.01v6.683q2.054 1.196 2.834 3.354-1.196-8.268-1.677-9.204-.433-.843-1.024-.843zm5.356 10.468q.08 0 .153.138.13.247-.234.689-.208-.546-.052-.741.07-.086.133-.086zm-.036-.372q-.153 0-.33.237-.39.52.233 2.08.702-1.352.43-1.976-.15-.34-.333-.34zm-6.805 2.577v.39q.286-.026.442-.182-.052-.078-.208-.208zm-.598.884l-2.418.338-.494.884q.832-.234 1.833-.624t1.08-.598zm5.33-.364l-.468.234-.156 1.118.416 1.274h.65l-.442-1.274v-1.352zm-1.118.39l-.442.13-.156.832.416 1.274h.65l-.442-1.274-.026-.962zm-1.534.156l-.156.806.416 1.274h.65l-.442-1.274v-.78l-.468-.026zm.995-3.234q-.416 0-.89.1-1.405.3-1.769 1.418h-1.092l-.416-.676q-5.512 1.274-6.214 4.602 1.508-.832 3.172-1.118l.728-1.456 2.886-.39-.078-.702h.988q1.092.9 2.228.9.244 0 .49-.042 1.39-.234 1.82-.95.428-.714-.456-1.3-.585-.386-1.397-.386zM151.715 0q.947 0 1.488.658.663.806 1.235 4.238l.91 5.954q.442.468.676.52h.312q.026-.65.494-1.196.416-3.978-.364-6.968l.312-.598q1.118 3.38.546 7.592h.078q1.794-4.03.52-7.592l.312-.468q1.664 3.796-.364 8.242.572 1.248.117 2.054-.455.806-.559 1.508l-.182.13q-.702-1.04-.806-1.794h-.26q-.026.598-.338 1.248l-.182 1.638.442 1.274h2.262v.624h-6.526v-.624h.546l-.416-1.274-.026-.962q-.468-.156-.702-.364-.338.312-.754.312.026.26-.104.442-1.04.806-3.718 1.404l-.91 1.768q0-.434-.27-.434-.085 0-.198.044l.728-1.3q-1.508.338-2.288.858-.416.442.052 1.066-1.04-.442-1.17-1.248.416-3.926 7.046-5.46l.468.78h.416q.338-1.092 2.678-1.508-.522-.388-1.284-.388-.415 0-.9.115-.492.116-.96.116-.845 0-1.614-.376-1.196-.585-6.084-6.461.9-1.136 1.905-1.136.329 0 .67.122l6.317 4.524V.034q.235-.034.449-.034z"/><path d="M132.874.375c9.625 0 9.625 17.25 0 17.25" fill="none" stroke="#000"/><path d="M127.865.474c-.694 0-1.248.2-1.635.479-.006.053-.02.107-.009.16.05.248.195.477.396.63.316.207.697.267 1.057.356.09.01.019.031-.031.04-.23.04-.707.099-.972.099l-.051-.001a1.627 1.627 0 0 1-.766-.311 1.113 1.113 0 0 1-.205-.236 4.199 4.199 0 0 0-.26.917.293.293 0 0 1-.202.233c-1.139.349-2.038 1.91-2.88 2.949-1.729 2.137-3.199 4.526-4.892 6.76.937-.456 1.87-.916 2.81-1.374 1.92-1.01 3.92-1.816 5.604-3.09l.008-.008c.97-.808 1.963-1.66 2.339-2.793.148-.92-1.757-2.577-1.542-2.646a.207.207 0 0 1 .063-.01c.46 0 1.754 1.128 2.02 2.202.003-.014.01-.03.014-.045.073-.356.154-1.256-.068-1.98a.29.29 0 0 1-.01-.103c.015-.29.06-.464.123-.634.063-.17.139-.344.26-.765.031-.108.142-.328.208-.345-.186-.138-.375-.28-.645-.375a.434.434 0 0 1 .132.314c0 .23-.164.415-.365.415-.2 0-.364-.186-.364-.415V.894a.411.411 0 0 1 .255-.39c-.053-.007-.096-.019-.154-.022a3.718 3.718 0 0 0-.238-.008zm-.67 7.763c-.066.065-.136.124-.203.187-.214.78-.412 1.64-.692 2.305-.483 1.145-1.216 2.141-1.84 3.154.153.082.285.175.385.27.081.076.135.128.199.193a2.61 2.61 0 0 1 1.186-.897c-.045-.723.108-1.712.34-2.787.178-.831.4-1.659.624-2.425zm-1.007.908c-1.149.945-2.428 1.738-3.676 2.54.018.91.018 1.778-.084 2.675a3.411 3.411 0 0 1 1.437-.736c.02 0 .037.012.057.012.649-1.063 1.383-2.06 1.837-3.134.156-.37.293-.85.429-1.357zm-.407 5.254a2.5 2.5 0 0 0-.44.541.3.3 0 0 1-.257.14.288.288 0 0 1-.17-.053c-.215-.156-.347-.324-.476-.446a1.332 1.332 0 0 0-.148-.117l-.149 2.722c.213-.014.435-.035.637-.035.264 0 .495.036.633.172.169-.134.497-.164.89-.164.102 0 .207.002.316.004l-.836-2.764zm-1.158-4.825c-1.354.787-2.784 1.414-4.135 2.125a.244.244 0 0 1-.006.003c-1.295.631-2.586 1.28-3.894 1.904-.984 1.189-2.052 2.295-3.078 3.42l2.15.362 4.267-4.635a.288.288 0 0 1 .037-.036c1.499-1.137 3.152-2.082 4.66-3.143zM127.798 0c.135 0 .273.005.411.013 1.085.07 1.873.526 2.142 1.144.04.093.146.314.007.314a2.35 2.35 0 0 0-.341-.028c-.418 0-.38.172-.47.194-.09.282-.29.846-.303 1.068.244.86.153 1.763.064 2.198-.15.732-.63 1.584-1.261 2.38a.285.285 0 0 1 0 .166 35.3 35.3 0 0 0-.903 3.336c-.251 1.168-.393 2.277-.317 2.823a.294.294 0 0 1-.221.328c-.045.011-.084.031-.127.045l.928 3.079a2.81 2.81 0 0 1 .593-.055c.381 0 .756.05 1.064.05.125 0 .24-.008.34-.032a.546.546 0 0 1 .125-.012c.436 0 1.428.306 1.34.879-.15-.128-.257-.159-.375-.159-.11 0-.23.027-.405.027h-.027c-.254-.004-.697-.083-1.053-.083-.18 0-.338.02-.438.08a16.14 16.14 0 0 0-.649-.013c-.85 0-1.447.07-2.5.075a89.565 89.565 0 0 1-2.974-.079c-.45.003-.697.054-.922.054h-.04c-.134-.004-.265-.057-.48-.057-.123 0-.273.017-.468.07.25-.341.877-.685 1.33-.685.115 0 .218.022.302.071.161-.016.332-.022.508-.022.22 0 .447.01.678.02l.157-2.83c-.487.203-.857.517-1.281 1.021a.295.295 0 0 1-.513-.246c.192-1.039.213-2.019.202-3.06-.54.354-1.072.713-1.576 1.094l-4.36 4.738a.29.29 0 0 1-.263.09c-.95-.159-1.9-.315-2.849-.474a.294.294 0 0 1-.23-.193.298.298 0 0 1 .06-.297c.741-.83 1.508-1.631 2.25-2.445-1.269.78-2.875 1.755-3.08 1.755-.022 0-.027-.013-.012-.04.094-.163.9-.755 1.775-1.373-.14.058-.276.12-.415.177l-.017.01c-.103.035-.16.059-.27.062a.286.286 0 0 1-.109-.016.317.317 0 0 1-.187-.152.32.32 0 0 1-.023-.238c.017-.05.038-.077.053-.098.062-.085.104-.109.163-.154.06-.046.128-.097.205-.149.153-.105.336-.223.493-.328.157-.105.3-.207.328-.233a.307.307 0 0 1 .028-.025l3.892-2.736c.008-.006.02-.001.028-.006 1.333-1.869 2.588-3.825 4.045-5.627.745-.92 1.6-2.528 2.986-3.064.067-.396.218-1.127.755-1.649.456-.443 1.115-.647 1.856-.692.115-.008.232-.011.351-.011zm-23.352.597a2.12 2.12 0 0 0-.692.109c.031.223.169.569.953.773-.73-.053-1.206-.113-1.453-.307a2.45 2.45 0 0 0-.158.556.297.297 0 0 1-.206.237c-.625.191-1.174 1.112-1.7 1.763-.95 1.173-1.772 2.48-2.688 3.733.423-.207.845-.415 1.27-.622 1.182-.622 2.394-1.11 3.407-1.877.588-.49 1.171-.996 1.39-1.641.076-.497-.296-1.074-.767-1.279a.297.297 0 1 1 .238-.545c.376.164.699.458.904.817a1.986 1.986 0 0 0-.075-.448.297.297 0 0 1-.013-.104c.01-.184.042-.313.082-.422.041-.109.085-.206.158-.459a.297.297 0 0 1 .104-.153 1.546 1.546 0 0 0-.527-.125c-.042-.003-.083-.003-.125-.004a.258.258 0 1 1-.102-.002zm-1.194 5.432c-.605.466-1.253.873-1.888 1.28.005.438-.006.879-.047 1.321.207-.135.434-.236.697-.3.392-.636.82-1.22 1.083-1.842a4.64 4.64 0 0 0 .155-.46zm.249 1c-.273.549-.621 1.04-.928 1.529.059.04.112.08.154.121l.027.027c.17-.194.375-.351.614-.454-.01-.348.047-.768.133-1.222zm-2.88.047a25.922 25.922 0 0 0-.588.297c-.78.38-1.56.772-2.35 1.148-.556.67-1.156 1.293-1.734 1.92l1.043.175 2.563-2.786a.297.297 0 0 1 .04-.036c.333-.253.678-.489 1.025-.718zm2.591 2.009c-.058.066-.112.14-.161.222a.298.298 0 0 1-.43.087c-.124-.09-.2-.177-.265-.244l-.077 1.413c.1-.006.2-.013.296-.013.166 0 .313.022.398.108.1-.078.28-.1.504-.1.057 0 .118.002.18.005l-.445-1.478zm5.419.999c-.452.062-.686.323-.704.783h1.395c0-.46-.23-.721-.691-.783zm-7.861-2.39c-.274.182-.541.367-.798.56l-2.402 2.613h2.456c.17-.19.518-.365.776-.365.073 0 .14.014.192.046.081-.007.167-.01.256-.01.14 0 .285.007.433.016l.083-1.506c-.225.115-.407.282-.625.542a.297.297 0 0 1-.52-.246c.1-.544.141-1.093.149-1.65zm6.24 3.745l.266.465h1.249l.252-.465zm-4.515 0v2.51l1.726-2.51zM104.438 0a3.878 3.878 0 0 1 .273.01c.694.044 1.215.325 1.408.768a.298.298 0 0 1-.341.408l-.025-.006-.03.007-.108.029c-.054.168-.096.269-.12.332a.541.541 0 0 0-.042.2 3.1 3.1 0 0 1 .037 1.389c-.095.466-.384.977-.761 1.46a.295.295 0 0 1-.014.108 21.24 21.24 0 0 0-.548 2.027c-.152.708-.234 1.387-.192 1.684a.297.297 0 0 1-.223.33l-.019.005.527 1.75c.086-.013.172-.018.259-.018.256 0 .51.041.712.041a.865.865 0 0 0 .184-.016.314.314 0 0 1 .068-.007c.212 0 .656.13.787.366h1.1c.061-.797.482-1.235 1.26-1.315.789.08 1.196.518 1.223 1.315v.572h-.531l-.545 1.01h-1.767l-.53-1.01h-1.568l-2.404 3.493V18h-.571v-6.561H97.42v-.41l-.099.109a.297.297 0 0 1-.268.092l-1.74-.292a.298.298 0 0 1-.173-.492c.217-.242.436-.48.656-.716l-1.656 1.078a.296.296 0 0 1-.412-.087.297.297 0 0 1 .087-.411l1.345-.876a.292.292 0 0 1-.076-.09.315.315 0 0 1-.02-.237c.016-.05.034-.074.048-.093.055-.076.084-.088.123-.119.04-.03.084-.06.131-.094.096-.065.206-.137.301-.2a4.156 4.156 0 0 0 .216-.156l2.379-1.672.008-.005c.805-1.13 1.568-2.316 2.457-3.414.433-.535.937-1.524 1.812-1.894.048-.262.157-.68.483-.997.353-.344.864-.463 1.416-.463zM85.803.911v2.43q.536-.8 3.22-.8h1.983V.911zM85.773 0q1.093.202 3.25.202h2.662V3.25h-2.663q-1.407 0-2.015.293-.617.294-1.204.84L85.773 18h-1.175V0zm-9.057.911v2.43q.537-.8 3.22-.8h1.984V.911zM76.686 0q1.093.202 3.25.202h2.662V3.25h-2.663q-1.407 0-2.014.293-.618.294-1.205.84L76.686 18H75.51V0zM67.63.911v2.43q.536-.8 3.219-.8h1.984V.911zM67.6 0q1.092.202 3.249.202h2.662V3.25H70.85q-1.407 0-2.015.293-.617.294-1.205.84L67.6 18h-1.174V0zm-8.582.597a2.12 2.12 0 0 0-.692.109c.03.223.168.569.952.773-.73-.053-1.206-.113-1.452-.307-.089.2-.137.427-.158.556a.297.297 0 0 1-.206.237c-.625.191-1.174 1.112-1.701 1.763-.95 1.173-1.77 2.48-2.687 3.733.423-.207.845-.415 1.27-.622 1.181-.622 2.394-1.11 3.406-1.877.589-.49 1.172-.996 1.391-1.641.076-.497-.296-1.074-.767-1.279a.297.297 0 1 1 .237-.545c.377.164.7.458.904.817a1.986 1.986 0 0 0-.074-.448.297.297 0 0 1-.013-.104c.01-.184.041-.313.082-.422.04-.109.085-.206.158-.459a.297.297 0 0 1 .104-.153 1.546 1.546 0 0 0-.527-.125C59.202.6 59.162.6 59.12.599a.258.258 0 1 1-.102-.002zm-1.194 5.432c-.605.466-1.253.873-1.888 1.28.005.438-.006.879-.047 1.321.207-.135.434-.236.697-.3.391-.636.82-1.22 1.083-1.842a4.64 4.64 0 0 0 .155-.46zm.249 1c-.273.549-.622 1.04-.929 1.529.06.04.112.08.155.121l.027.027c.169-.194.375-.351.614-.454-.01-.348.047-.768.133-1.222zm-2.88.047a25.922 25.922 0 0 0-.588.297c-.78.38-1.56.772-2.35 1.148-.556.67-1.156 1.293-1.734 1.92l1.043.175 2.563-2.786a.297.297 0 0 1 .04-.036c.333-.253.678-.489 1.025-.718zm2.591 2.009c-.058.066-.112.14-.162.222a.298.298 0 0 1-.429.087c-.125-.09-.2-.177-.265-.244l-.078 1.413c.1-.006.202-.013.297-.013.166 0 .313.022.397.108.1-.078.28-.1.505-.1.057 0 .118.002.18.005l-.445-1.478zm5.419.999c-.452.062-.686.323-.704.783h1.394c0-.46-.23-.721-.69-.783zm-7.861-2.39a16.38 16.38 0 0 0-.798.56l-2.403 2.613h2.457c.17-.19.518-.365.776-.365.073 0 .139.014.191.046.082-.007.168-.01.257-.01.139 0 .285.007.433.016l.083-1.506c-.225.115-.407.282-.626.542a.297.297 0 0 1-.52-.246 9.773 9.773 0 0 0 .15-1.65zm6.24 3.745l.266.465h1.248l.253-.465zm-4.516 0v2.51l1.727-2.51zM59.01 0a3.878 3.878 0 0 1 .273.01c.694.044 1.215.325 1.407.768a.298.298 0 0 1-.34.408l-.025-.006-.03.007-.108.029c-.054.168-.096.269-.12.332a.541.541 0 0 0-.042.2c.155.552.094 1.107.037 1.389-.095.466-.384.977-.762 1.46a.295.295 0 0 1-.014.108 21.85 21.85 0 0 0-.548 2.027c-.152.708-.233 1.387-.192 1.684a.297.297 0 0 1-.223.33l-.018.005.527 1.75c.085-.013.172-.018.259-.018.256 0 .51.041.712.041a.865.865 0 0 0 .184-.016.314.314 0 0 1 .068-.007c.212 0 .656.13.787.366h1.099c.062-.797.482-1.235 1.262-1.315.788.08 1.195.518 1.222 1.315v.572h-.532l-.544 1.01h-1.767l-.531-1.01h-1.567l-2.404 3.493V18h-.572v-6.561h-4.516v-.41l-.1.109a.297.297 0 0 1-.267.092l-1.74-.292a.298.298 0 0 1-.173-.492c.217-.242.436-.48.656-.716l-1.656 1.078a.296.296 0 0 1-.412-.087.297.297 0 0 1 .087-.411l1.345-.876a.292.292 0 0 1-.076-.09.315.315 0 0 1-.02-.237c.016-.05.034-.074.047-.093.056-.076.085-.088.124-.119.04-.03.083-.06.131-.094l.3-.2a4.156 4.156 0 0 0 .217-.156l2.379-1.672.008-.005c.805-1.13 1.567-2.316 2.456-3.414.433-.535.938-1.524 1.813-1.894.048-.262.156-.68.483-.997C57.947.119 58.458 0 59.01 0zM46.256 0v1.21h-6.564V0zm0 8.32v1.21h-6.544V8.32zm0 8.47V18h-6.544v-1.21zm-9.998-9.332v1.656c.565 0 .848-.283.848-.848 0-.539-.283-.808-.848-.808zM34.163 0c.463 0 .855.116 1.176.35.612.443.919 1.09.919 1.938v4.584c.942 0 1.42.465 1.434 1.394 0 .942-.478 1.413-1.434 1.413V18h-.747V2.732c0-1.023-.198-1.68-.595-1.969-.206-.15-.476-.225-.839-.225-.337 0-.754.065-1.273.195a.65.65 0 0 1-.212.043c-.111 0-.188-.048-.232-.144-.013-.162.108-.276.364-.343C33.262.096 33.742 0 34.163 0zm-8.169 7.386c-1.074 0-2.418.552-3.069 1.203-.569.569-.643 1.323-.664 2.025h7.435c-.021-.702-.096-1.456-.665-2.025-.65-.65-1.963-1.203-3.037-1.203zm0-.6c1.274 0 2.645.588 3.449 1.391.824.825.917 1.91.917 2.721v.317h-8.732v-.317c0-.812.062-1.896.886-2.72.803-.804 2.206-1.393 3.48-1.393zm-9.161-3.142c.4 0 .823.084 1.267.253.922.351 1.432 1.215 1.528 2.592-.041 1.308-.571 2.54-1.59 3.696-.812 1.005-1.315 1.659-1.507 1.962-.51.757-.813 1.493-.909 2.21h-.888c.138-1.02.544-2.01 1.218-2.974a47.457 47.457 0 0 1 1.9-2.354c.716-1.143.995-2.151.836-3.026-.158-.874-.64-1.355-1.445-1.445a3.552 3.552 0 0 0-.392-.023c-.597 0-1.024.18-1.28.54-.31.433-.376.922-.197 1.465.152.462.438.693.859.693.074 0 .153-.007.236-.022.55-.096.764-.433.64-1.011l.454-.868c.358.386.52.792.485 1.219-.034.426-.223.805-.568 1.135-.3.289-.687.433-1.16.433a2.53 2.53 0 0 1-.213-.01c-.571-.047-1.012-.292-1.321-.732-.31-.44-.434-1.03-.372-1.766s.461-1.294 1.198-1.672a2.626 2.626 0 0 1 1.221-.295zm-7.2 0c.401 0 .823.084 1.267.253.922.351 1.432 1.215 1.528 2.592-.041 1.308-.571 2.54-1.59 3.696-.812 1.005-1.314 1.659-1.507 1.962-.51.757-.812 1.493-.909 2.21h-.888c.138-1.02.544-2.01 1.219-2.974a47.457 47.457 0 0 1 1.9-2.354c.715-1.143.994-2.151.836-3.026-.159-.874-.64-1.355-1.446-1.445a3.552 3.552 0 0 0-.391-.023c-.598 0-1.025.18-1.281.54-.31.433-.376.922-.197 1.465.152.462.439.693.859.693.074 0 .153-.007.236-.022.55-.096.764-.433.64-1.011l.454-.868c.358.386.52.792.486 1.219-.035.426-.224.805-.568 1.135-.3.289-.688.433-1.16.433a2.53 2.53 0 0 1-.214-.01c-.57-.047-1.011-.292-1.321-.732-.31-.44-.434-1.03-.372-1.766s.461-1.294 1.198-1.672c.382-.197.79-.295 1.221-.295zm-7.2 0c.401 0 .824.084 1.267.253.923.351 1.432 1.215 1.528 2.592-.04 1.308-.57 2.54-1.59 3.696-.812 1.005-1.314 1.659-1.507 1.962-.51.757-.812 1.493-.909 2.21H.335c.137-1.02.543-2.01 1.218-2.974a47.457 47.457 0 0 1 1.9-2.354c.715-1.143.994-2.151.836-3.026-.158-.874-.64-1.355-1.446-1.445a3.552 3.552 0 0 0-.391-.023c-.597 0-1.024.18-1.281.54-.31.433-.375.922-.196 1.465.152.462.438.693.858.693.075 0 .153-.007.236-.022.55-.096.764-.433.64-1.011l.455-.868c.357.386.52.792.485 1.219-.035.426-.224.805-.568 1.135-.3.289-.687.433-1.16.433a2.53 2.53 0 0 1-.213-.01C1.136 8.063.696 7.818.386 7.378c-.31-.44-.433-1.03-.371-1.766.061-.736.46-1.294 1.197-1.672a2.63 2.63 0 0 1 1.222-.295z"/></svg>