<svg xmlns="http://www.w3.org/2000/svg" width="474.762" height="18"><path d="M472.462 3.446q-.277.164-.326.653.212.18.326.538.13-.359.342-.538-.049-.49-.342-.653zm-4.795 0q-.294.164-.343.653.212.18.343.538.114-.359.326-.538-.049-.49-.326-.653zm-4.812 0q-.277.18-.326.67.212.162.326.521.13-.359.343-.522-.05-.49-.343-.669zm8.58.865q.31.408.375.872.065.465.652.58.603-.115.669-.58.065-.464.375-.872-.604 0-.75.457-.131.44-.294.44-.147 0-.294-.44-.146-.457-.734-.457zm-4.812 0q.31.408.375.872.065.465.669.58.587-.115.652-.58.065-.464.375-.872-.587 0-.734.457-.146.44-.293.44-.163 0-.294-.44-.147-.457-.75-.457zm-4.795 0q.31.424.375.88.065.457.652.588.604-.13.669-.587.065-.457.375-.881-.603 0-.75.473-.13.424-.294.424-.147 0-.293-.424-.147-.473-.734-.473zm8.318 3.148l-.286.938q-.17.562.286.823.457-.26.285-.823l-.285-.938zm-4.828 0q-.098.375-.277.938-.18.562.277.823.457-.26.286-.823l-.286-.938zm-2.968 5.74q-1.093 0-1.093.474 0 .473 1.076.49h10.635q1.06 0 1.06-.49 0-.473-1.06-.473zm10.112-10.128q.473 0 .652.963.153-.044.287-.044.268 0 .464.174.195.147-.017.31-.342.18-.424.775-.081.595-.669.774v6.41h.196q1.81 0 1.81 1.24 0 1.256-1.793 1.256h-10.635q-1.794 0-1.81-1.256 0-1.24 1.827-1.24h.212V6.04q-.587-.196-.669-.783-.082-.587-.408-.783-.228-.163-.016-.294.193-.181.473-.181.122 0 .26.035.197-.946.653-.946.473 0 .669.946.139-.035.261-.035.28 0 .473.181.196.13-.016.294-.343.196-.416.783-.074.587-.677.783h-.016v6.393h1.892V9.497q-.555-.538-.376-1.1.18-.563.27-.93.09-.367.4-.367.309 0 .407.367.098.367.269.93.171.562-.4 1.1v2.936l1.778-.016V6.023q-.587-.179-.669-.774-.081-.596-.424-.775-.212-.163-.016-.31.196-.174.464-.174.134 0 .286.044.18-.963.653-.963.456 0 .652.963.152-.044.286-.044.269 0 .464.174.196.147-.032.31-.326.18-.408.775-.082.595-.669.774v6.394l1.892.016V9.497q-.554-.538-.383-1.1.171-.563.27-.93.097-.367.407-.367.293 0 .4.367.105.367.277.93.171.562-.4 1.1v2.936h1.762v-6.41q-.604-.179-.685-.774-.082-.596-.408-.775-.228-.163-.033-.31.196-.174.464-.174.134 0 .287.044.195-.963.652-.963zm-20.23 5.287c-1.36 1.528-2.486 3.271-3.489 5.042-.21.26.027.498.2.745.662-2.1 2.183-3.719 3.289-5.787zm1.316-7.71c-.114.528.095 1.139.496 1.319l-.128.273c-.5-.238-.982-.95-1.054-1.591-.684.04-.871.556-.978 1.154-.129.408.001 1.4-.516 1.571-1.53.592-2.698 1.277-3.748 2.312-1.81 2.264-3.702 4.457-5.512 6.724-.704.882-1.347 1.69-1.87 2.3 2.75-2.056 5.822-3.628 8.836-5.262 1.602-.87 3.13-1.582 3.13-3.498 0-1.03-1.899-1.894-1.82-2.028.006-.011.028-.017.063-.017.39 0 2.385.74 2.385 2.3 0 .432-.116.833-.317 1.207h.01c2.188-1.16 1.84-3.506 1.755-5.574.91-.05 1.659-.547 2.523-.753-.67-.087-1.338-.199-2.01-.268a.533.533 0 0 1 .318.2c.011.221-.238.318-.481.318-.237 0-.469-.092-.446-.252a.61.61 0 0 1 .52-.276c-.334-.047-.779-.118-1.156-.16zm-3.823 13.303c-.196.476-.297.98-.408 1.48-.32-.257-.628-.523-.89-.838.17.926.489 1.86 1.26 1.86.467 0 .683-.315.383-1.271-.14-.45-.253-.882-.345-1.231zm.838-4.584c-3.12 1.662-6.21 3.34-9.162 5.292-.695.563-1.315 1.191-1.734 1.778.278.432.808.58 1.297.613 2.498-.087 3.476-2.495 4.796-4.216l.718-.872-.124 1.117c-.009.202-.215 1.153.092 1.153a.228.228 0 0 0 .09-.021l1.263-1.512c.135.09.262.19.401.273.627-1.267 1.543-2.447 2.363-3.605zM453.256 0c.656 0 1.328.118 1.966.177.76.37 1.529.088 2.326.378.575.258.737.782.975 1.306a2.939 2.939 0 0 0-.939-.16c-.928 0-1.676.468-2.657.717.001.493.079 1.052.115 1.615.153 1.526-.652 2.865-1.814 3.818-.833 1.855-1.985 3.277-2.826 4.724.1.65.705 3.103 1.003 3.983a11.14 11.14 0 0 0 1.821.154 9.337 9.337 0 0 0 .79-.032c.473 0 .993.808 1.503 1.24l-10.362.08c.264-.934 2.105-1.43 2.76-1.43.037 0 .07.002.1.005-.231-.66-.52-1.281-.601-2.204-.29.259-.614.539-1.018.568-.495-.037-.696-.375-.759-.816-1.121 1.854-2.375 3.368-4.675 3.591-.795-.039-1.785-.386-2-1.231-1.054-.06-.28-1.087.11-1.489 2.87-3.105 5.237-6.65 8.072-9.778 1.091-1.077 2.324-1.805 3.85-2.41.114-.278.151-.675.225-1.112.081-.477.335-1.257.8-1.5A3.556 3.556 0 0 1 453.256 0zm-37.272.568q-.442 0-.442.463v3.557h1.347l-.442-3.746q-.021-.274-.463-.274zM415.963 0q1.073 0 1.136.61.442 3.978.947 3.999l9.765.358 1.01-.042q1.137-1.2 2.02-1.2l.653-.042q1.789.337 2.147.337.252 0 .252.336 0 .463-.715.463-1.23-.196-1.885-.196-.12 0-.22.007-.358 0-.59.295.411.508 1.838.508.11 0 .225-.003 1.62-.042 2.862-.421.61 0 .61.715-.062.653-4.566.674l-2-.21-11.406-.064-3.199.042V1.031Q414.868 0 415.963 0zm9.332 14.29c-.356 0-.571.06-.682.124-.324.206-.17.7-.118 1.01h1.6c.039-.316.213-.798-.117-1.01-.112-.064-.326-.124-.683-.124zm8.888 1.866v1.112h1.518v-1.112zm-7.885 0v1.112h7.52v-1.112zm-1.828 0v1.112h1.463v-1.112zm-7.342 0v1.112h6.976v-1.112zm-1.963 0v1.112h1.598v-1.112zm13.342-2.978l.517.52-1.73 1.726h9.139V18h-22v-2.576h8.864l-1.731-1.727.517-.519 1.6 1.597c.097-.968.76-1.19 1.612-1.218.911.025 1.47.23 1.612 1.218l1.6-1.597z"/><path d="M404.933.375c9.625 0 9.625 17.25 0 17.25" fill="none" stroke="#000"/><path d="M385.09 2.373v2.341h17.242V2.373zM402.268 0v1.772h.664v3.543h-18.445V1.772h.538V0h.601v1.772h1.487V0h.601v1.772h1.487V0h.601v1.772h1.456V0h.632v1.772h1.456V0h.6v1.772h1.488V0h.6v1.772h1.488V0h.601v1.772h1.455V0h.602v1.772h1.487V0zm-1.598 15.325L402.934 18h-1.103l-1.16-1.382L399.5 18l-1.136-1.382-1.17 1.382-1.16-1.382-1.17 1.382-1.159-1.382-1.17 1.382-1.137-1.382-1.17 1.382-1.17-1.382L387.92 18l-1.17-1.382L385.59 18h-1.103l2.262-2.675 1.17 1.293 1.138-1.293 1.17 1.293 1.17-1.293 1.137 1.293 1.17-1.293 1.16 1.293 1.17-1.293 1.158 1.293 1.17-1.293 1.137 1.293 1.17-1.293zM380.413 1.124q-2.015.293-2.106 1.842v11.177q.941-1.124 3.381-1.58l-1.275-11.44zM380.98 0l1.508 13.363q-3.361.385-4.181 2.4V18h-1.002V2.966q0-2.51 3.675-2.966z"/><path d="M367.617.375v17.25m7.688-17.25c-9.625 0-9.625 17.25 0 17.25m0 0" fill="none" stroke="#000"/><path d="M359.648.597a2.12 2.12 0 0 0-.692.109c.03.223.168.569.952.773-.73-.053-1.206-.113-1.452-.307-.089.2-.137.427-.158.556a.297.297 0 0 1-.206.237c-.625.191-1.174 1.112-1.701 1.763-.95 1.173-1.77 2.48-2.687 3.733.423-.207.845-.415 1.27-.622 1.181-.622 2.394-1.11 3.406-1.877.589-.49 1.172-.996 1.391-1.641.076-.497-.296-1.074-.767-1.279a.297.297 0 1 1 .237-.545c.377.164.7.458.904.817a1.986 1.986 0 0 0-.074-.448.297.297 0 0 1-.013-.104c.01-.184.041-.313.082-.422.04-.109.085-.206.158-.459a.297.297 0 0 1 .104-.153 1.546 1.546 0 0 0-.527-.125c-.043-.003-.083-.003-.125-.004a.258.258 0 1 1-.102-.002zm-1.194 5.432c-.605.466-1.253.873-1.888 1.28.005.438-.006.879-.047 1.321.207-.135.434-.236.697-.3.391-.636.82-1.22 1.082-1.842.055-.129.106-.29.156-.46zm.249 1c-.273.549-.622 1.04-.929 1.529.06.04.112.08.155.121l.027.027c.169-.194.375-.351.614-.454-.01-.348.047-.768.133-1.222zm-2.88.047a25.922 25.922 0 0 0-.589.297c-.78.38-1.56.772-2.349 1.148-.556.67-1.156 1.293-1.734 1.92l1.043.175 2.563-2.786a.297.297 0 0 1 .04-.036c.333-.253.677-.489 1.025-.718zm2.591 2.009c-.058.066-.112.14-.162.222a.298.298 0 0 1-.429.087c-.125-.09-.2-.177-.265-.244l-.078 1.413c.1-.006.202-.013.297-.013.166 0 .313.022.397.108.1-.078.28-.1.505-.1.057 0 .117.002.18.005l-.445-1.478zm5.419.999c-.452.062-.686.323-.704.783h1.394c0-.46-.23-.721-.69-.783zm-7.861-2.39a16.38 16.38 0 0 0-.798.56l-2.403 2.613h2.457c.17-.19.518-.365.776-.365.073 0 .139.014.191.046.082-.007.168-.01.257-.01.139 0 .285.007.433.016l.083-1.506c-.225.115-.407.282-.626.542a.297.297 0 0 1-.52-.246 9.773 9.773 0 0 0 .15-1.65zm6.24 3.745l.266.465h1.248l.253-.465zm-4.516 0v2.51l1.727-2.51zM359.64 0a3.878 3.878 0 0 1 .273.01c.694.044 1.215.325 1.407.768a.298.298 0 0 1-.34.408l-.025-.006-.03.007-.108.029c-.054.168-.096.269-.12.332a.541.541 0 0 0-.042.2c.155.552.094 1.107.037 1.389-.096.466-.384.977-.762 1.46a.295.295 0 0 1-.014.108 21.85 21.85 0 0 0-.548 2.027c-.152.708-.233 1.387-.192 1.684a.297.297 0 0 1-.223.33l-.018.005.527 1.75c.085-.013.172-.018.259-.018.256 0 .51.041.712.041a.865.865 0 0 0 .184-.016.314.314 0 0 1 .068-.007c.212 0 .656.13.787.366h1.099c.062-.797.482-1.235 1.262-1.315.788.08 1.195.518 1.222 1.315v.572h-.532l-.544 1.01h-1.767l-.531-1.01h-1.567l-2.404 3.493V18h-.572v-6.561h-4.516v-.41l-.1.109a.297.297 0 0 1-.267.092l-1.74-.292a.298.298 0 0 1-.173-.492c.217-.242.436-.48.656-.716l-1.656 1.078a.296.296 0 0 1-.412-.087.297.297 0 0 1 .087-.411l1.345-.876a.292.292 0 0 1-.077-.09.315.315 0 0 1-.019-.237c.016-.05.034-.074.047-.093.056-.076.085-.088.124-.119.04-.03.083-.06.131-.094.095-.065.206-.137.3-.2a4.156 4.156 0 0 0 .217-.156l2.378-1.672.009-.005c.805-1.13 1.567-2.316 2.456-3.414.433-.535.938-1.524 1.813-1.894.048-.262.156-.68.483-.997.353-.344.864-.463 1.416-.463zm-14.4 0c.335 0 .67.026.994.066.447.113.217.626-.18.626a.476.476 0 0 1-.082-.008c-.839.097-1.872.15-2.506.626-.84.916-.463 2.821-.56 3.725-.008.05-.01 3.653-.01 5.48a6.145 6.145 0 0 1 2.634-.586c.402 0 .801.04 1.188.117.44.231-.077.528-.423.528a.454.454 0 0 1-.114-.013c-1.226.133-2.62.461-3.243 1.602-.062.206-.023.277.07.277.207 0 .68-.342.947-.342.014 0 .027 0 .04.003a7.535 7.535 0 0 1 1.58-.169c.39 0 .776.031 1.148.095.421.278-.095.534-.437.534a.532.532 0 0 1-.105-.01c-1.252.151-2.637.49-3.243 1.633-.007 1.27 0 2.11-.034 3.278.015.36-.22.538-.456.538-.235 0-.473-.176-.474-.526.008-1.15.09-2.161-.06-3.277-.305-1.253-2.478-1.445-3.828-1.754-.294-.347.286-.475.659-.475.056 0 .107.003.15.008.173-.013.347-.02.521-.02.883 0 1.772.175 2.558.58.032-.755-.712-1.19-1.244-1.493-.84-.361-1.766-.397-2.644-.59-.313-.273.18-.501.522-.501a.58.58 0 0 1 .125.012c.215-.02.431-.031.648-.031.902 0 1.804.183 2.614.582-.017-2.851-.063-5.61.019-8.308.065-.834.546-1.6 1.354-1.849.58-.264 1.227-.358 1.871-.358zm-17.63.601c-1.074 0-2.418.552-3.069 1.202-.569.57-.643 1.324-.664 2.025h7.435c-.021-.7-.096-1.455-.665-2.025-.65-.65-1.963-1.202-3.037-1.202zm0-.601c1.274 0 2.645.589 3.449 1.392.824.824.917 1.91.917 2.72v.317h-8.732v-.316c0-.812.062-1.897.886-2.72C324.933.588 326.336 0 327.61 0zm6.323 15.57l2.055 2.43h-1.003l-1.052-1.255L332.869 18l-1.032-1.255L330.774 18l-1.053-1.255L328.658 18l-1.053-1.255L326.542 18l-1.033-1.255L324.446 18l-1.063-1.255L322.35 18l-1.063-1.255L320.235 18h-1.003l2.055-2.43 1.063 1.175 1.033-1.175 1.063 1.175 1.063-1.175 1.033 1.175 1.063-1.175 1.053 1.175 1.063-1.175 1.053 1.175 1.063-1.175 1.032 1.175 1.064-1.175zM315.157 1.124q-2.015.293-2.106 1.842v11.177q.942-1.124 3.381-1.58l-1.275-11.44zM315.724 0l1.508 13.363q-3.36.385-4.18 2.4V18h-1.003V2.966q0-2.51 3.675-2.966zm-7.75 1.124q-2.015.293-2.106 1.842v11.177q.941-1.124 3.381-1.58l-1.275-11.44zM308.54 0l1.509 13.363q-3.361.385-4.181 2.4V18h-1.002V2.966q0-2.51 3.674-2.966zm-14.052.601c-1.074 0-2.419.552-3.07 1.202-.568.57-.643 1.324-.664 2.025h7.435c-.02-.7-.095-1.455-.664-2.025-.65-.65-1.963-1.202-3.037-1.202zm0-.601c1.274 0 2.645.589 3.448 1.392.824.824.918 1.91.918 2.72v.317h-8.732v-.316c0-.812.061-1.897.886-2.72C291.81.588 293.214 0 294.488 0zm6.322 15.57l2.056 2.43h-1.003l-1.053-1.255L299.747 18l-1.032-1.255L297.652 18l-1.053-1.255L295.536 18l-1.053-1.255L293.42 18l-1.033-1.255L291.324 18l-1.063-1.255L289.228 18l-1.063-1.255L287.112 18h-1.002l2.055-2.43 1.063 1.175 1.033-1.175 1.063 1.175 1.063-1.175 1.033 1.175 1.063-1.175 1.053 1.175 1.063-1.175 1.053 1.175 1.063-1.175 1.032 1.175 1.063-1.175zM278.703.597a2.12 2.12 0 0 0-.692.109c.031.223.169.569.953.773-.73-.053-1.206-.113-1.453-.307a2.45 2.45 0 0 0-.158.556.297.297 0 0 1-.206.237c-.625.191-1.174 1.112-1.7 1.763-.95 1.173-1.772 2.48-2.688 3.733.423-.207.845-.415 1.27-.622 1.182-.622 2.394-1.11 3.407-1.877.588-.49 1.172-.996 1.39-1.641.076-.497-.296-1.074-.767-1.279a.297.297 0 1 1 .238-.545c.376.164.699.458.904.817a1.986 1.986 0 0 0-.075-.448.297.297 0 0 1-.013-.104c.01-.184.042-.313.082-.422.041-.109.085-.206.158-.459a.297.297 0 0 1 .104-.153 1.546 1.546 0 0 0-.527-.125c-.042-.003-.083-.003-.125-.004a.258.258 0 1 1-.102-.002zm-1.194 5.432c-.605.466-1.253.873-1.888 1.28.005.438-.006.879-.047 1.321.207-.135.434-.236.697-.3.392-.636.82-1.22 1.083-1.842a4.64 4.64 0 0 0 .155-.46zm.25 1c-.274.549-.622 1.04-.93 1.529.06.04.113.08.155.121l.027.027c.17-.194.375-.351.614-.454-.01-.348.047-.768.133-1.222zm-2.882.047a25.922 25.922 0 0 0-.587.297c-.78.38-1.56.772-2.35 1.148-.556.67-1.156 1.293-1.734 1.92l1.043.175 2.563-2.786a.297.297 0 0 1 .04-.036c.333-.253.678-.489 1.025-.718zm2.592 2.009c-.058.066-.112.14-.161.222a.298.298 0 0 1-.43.087c-.124-.09-.2-.177-.265-.244l-.077 1.413c.1-.006.201-.013.296-.013.167 0 .313.022.398.108.1-.078.28-.1.504-.1.057 0 .118.002.18.005l-.445-1.478zm5.419.999c-.452.062-.686.323-.704.783h1.395c0-.46-.23-.721-.691-.783zm-7.86-2.39c-.275.182-.542.367-.799.56l-2.402 2.613h2.456c.17-.19.518-.365.776-.365.073 0 .14.014.192.046.081-.007.167-.01.256-.01.14 0 .285.007.433.016l.083-1.506c-.224.115-.407.282-.625.542a.297.297 0 0 1-.52-.246c.1-.544.141-1.093.15-1.65zm6.24 3.745l.265.465h1.249l.252-.465zm-4.516 0v2.51l1.726-2.51zM278.695 0a3.878 3.878 0 0 1 .273.01c.694.044 1.215.325 1.408.768a.298.298 0 0 1-.341.408l-.025-.006-.03.007-.108.029c-.054.168-.096.269-.12.332a.541.541 0 0 0-.042.2 3.1 3.1 0 0 1 .037 1.389c-.095.466-.384.977-.761 1.46a.295.295 0 0 1-.014.108 21.24 21.24 0 0 0-.548 2.027c-.152.708-.234 1.387-.192 1.684a.297.297 0 0 1-.223.33l-.019.005.527 1.75c.086-.013.172-.018.259-.018.256 0 .51.041.712.041a.865.865 0 0 0 .184-.016.314.314 0 0 1 .068-.007c.212 0 .656.13.787.366h1.1c.061-.797.482-1.235 1.261-1.315.788.08 1.195.518 1.222 1.315v.572h-.531l-.545 1.01h-1.766l-.532-1.01h-1.567l-2.404 3.493V18h-.571v-6.561h-4.517v-.41l-.099.109a.297.297 0 0 1-.268.092l-1.74-.292a.298.298 0 0 1-.173-.492c.217-.242.436-.48.656-.716l-1.656 1.078a.296.296 0 0 1-.412-.087.297.297 0 0 1 .087-.411l1.345-.876a.292.292 0 0 1-.076-.09.315.315 0 0 1-.02-.237c.016-.05.034-.074.048-.093.055-.076.084-.088.123-.119.04-.03.084-.06.131-.094.096-.065.206-.137.301-.2a4.156 4.156 0 0 0 .216-.156l2.379-1.672.008-.005c.805-1.13 1.568-2.316 2.457-3.414.433-.535.938-1.524 1.812-1.894.048-.262.157-.68.483-.997.353-.344.864-.463 1.416-.463zm-12.753 0v1.21h-6.565V0zm0 8.32v1.21h-6.545V8.32zm0 8.47V18h-6.545v-1.21zM255.054 0q2.323 0 2.323 2.232V18h-1.071V2.232q0-1.16-1.252-1.16-1.261 0-1.261 1.16v10.492h-1.071V2.232q0-2.232 2.332-2.232zm-6.568 0l2.236 2.643h-1.09l-1.146-1.366-1.156 1.366-1.123-1.366-1.156 1.366-1.145-1.366-1.156 1.366-1.145-1.366-1.157 1.366-1.123-1.366-1.156 1.366-1.156-1.366-1.123 1.366-1.156-1.366-1.146 1.366h-1.09L234.734 0l1.156 1.277L237.013 0l1.156 1.277L239.325 0l1.123 1.277L241.605 0l1.145 1.277L243.906 0l1.145 1.277L246.207 0l1.123 1.277L248.486 0zm2.236 10.67V18h-1.225v-7.33zm-8.424.01V18h-1.225v-7.32zm-8.575 0V18h-1.225v-7.32zm-4.659-3.222v1.656c.566 0 .849-.283.849-.848 0-.539-.283-.808-.849-.808zM226.97 0c.464 0 .856.116 1.176.35.613.443.92 1.09.92 1.938v4.584c.942 0 1.42.465 1.433 1.394 0 .942-.478 1.413-1.434 1.413V18h-.746V2.732c0-1.023-.199-1.68-.596-1.969-.206-.15-.476-.225-.838-.225-.337 0-.754.065-1.273.195a.65.65 0 0 1-.212.043c-.111 0-.189-.048-.232-.144-.014-.162.107-.276.363-.343.539-.193 1.018-.289 1.44-.289zm-8.17.601c-1.073 0-2.418.552-3.068 1.202-.57.57-.644 1.324-.665 2.025h7.435c-.02-.7-.095-1.455-.664-2.025-.65-.65-1.963-1.202-3.037-1.202zm0-.601c1.275 0 2.646.589 3.45 1.392.823.824.917 1.91.917 2.72v.317h-8.732v-.316c0-.812.061-1.897.885-2.72C216.124.588 217.526 0 218.8 0zm1.187 9.627c5.439 1.9 2.904 9.54-2.195 8.228-5.054-1.302-4.045-9.318 2.195-8.228m-.243.698c-5.417-.787-5.639 5.768-1.707 6.812 3.846 1.022 6.482-5.13 1.707-6.812m-1.188 1.152c-1.082-.74.885-.487 0-.018v.018m1.985.433c-1.227-.397.343-.795 0-.073v.073m-2.993-.712v.732l-.73-.244.73-.488m3.571 2.066c-.903-.795.596-.885.109-.09l-.109.09m-2.839-.846l.244.731-.732-.487.488-.244m1.052.358l.072-.017c.668-.489 1.39 1.767-.072.017m-3.014-.397c.957.56-.162.703-.253.703l.253-.703m2.938 1.502l-.244.244-.488-.732.732.488m-1.674-.474l.469.019c-.56.866-.758.793-.47-.019m3.682 1.517c-.884-.74.433-.632.415-.488l-.415.488m-1.01-.903l-.221.305c-.718-.215-.34-.792.22-.305m-3.434.836l-.245.244-.487-.732.732.488m1.323.012c.758-.378.92-.27.47.344l-.47-.344m2.578.72l-.244.731-.488-.732h.732m-3.245-.465l.45.54c-.107.217-1.1.145-.45-.54m1.538.71l.244.731h-.732l.488-.732zM212.435 5.34v7.32h-1.225V5.34zM206.887 0q2.323 0 2.323 2.232V18h-1.072V2.232q0-1.16-1.251-1.16-1.261 0-1.261 1.16v10.492h-1.072V2.232q0-2.232 2.333-2.232zm-6.567 0l2.234 2.643h-1.09l-1.145-1.366-1.156 1.366-1.123-1.366-1.156 1.366-1.146-1.366-1.156 1.366-1.145-1.366-1.156 1.366-1.123-1.366-1.156 1.366-1.157-1.366-1.123 1.366-1.156-1.366-1.145 1.366h-1.09L186.566 0l1.156 1.277L188.845 0l1.157 1.277L191.158 0l1.123 1.277L193.437 0l1.145 1.277L195.738 0l1.146 1.277L198.04 0l1.123 1.277L200.319 0zm2.234 10.67V18h-1.225v-7.33zm-8.423.01V18h-1.225v-7.32zm-8.575 0V18h-1.225v-7.32zm-5.446-9.356q.316 0 .316.266 0 .267-.277.267-.316 0-.316-.247-.01-.286.277-.286zm-6.895-.949q.01.316.464.539.225.11.097.11-.131 0-.63-.115.296.227.523.365 1.433.405 2.717 1.857-.91-1.59-3.171-2.756zm-1.067.702q.079.306.533.42.387.096-.208.096-.103 0-.236-.003.593.336.736.346.143.01.01.074-.134.064-.608.064.405.257.677.272.271.015.113.08-.158.063-.582.063.211.197.515.197.094 0 .196-.019l-.455.237q.218.08.405.109.504.02 0 .257.106.066.255.066.075 0 .16-.017.553.632 2.835 1.867l-.207.148-.504-.138q-.395.662-1.126 1.235-.79.108-.8.82.008.336.41.336.07 0 .153-.01.033.005.065.005.284 0 .488-.39.264-.45.692-.45h.01q.434.005.71.143l.742-.276q1.047-1.295 1.526-1.843.479-.548.696-1.422.217-.874.647-1.112.43-.237 1.032-.681l-.098-.168q-.444-.174-.773-.174-.752 0-.897.915-.207 1.314-.444 1.793-.237.479-.944.548-.036.004-.074.004-.688 0-1.719-1.2-1.086-1.264-2.415-1.679-1.328-.414-1.516-.513zM173.057 0q2.499 1.245 3.274 2.519.776 1.274 1.17 1.442.196.083.392.083.201 0 .404-.088.4-.173.543-1.136.144-.963.341-1.348.198-.385.746-.519.15-.036.305-.036.416 0 .875.259.465-.178.86-.178.286.138.118.237-1.165.75-1.718 1.121-.554.37-.776 1.309-.222.938-1.091 1.748-.91.968-.9 1.61.08.396.53.939.449.543.528 1.077.01.286-.109.424-.168-.069-.198-.217.05-.306-.014-.42-.065-.113-.144-.271-.118.306-.098.652-.237-.178-.218-.386l.07-.573q-.544-.533-.78-1.106-.238.05-.337.188.07.444.43.844.36.4.499.865-.03.622-.148.652-.168-.218-.114-.356.054-.138.005-.252-.05-.114-.119-.232-.138.138-.138.642-.178-.128-.217-.336.138-.444.04-.681-.524-.534-.781-1.275-.227-.099-.48-.148-.044-.009-.089-.009-.204 0-.4.187-.205.67-.876.67-.198 0-.437-.058-.14.234-.509.234-.098 0-.212-.016-.02-.514.326-.692-.096-1.147.817-1.147l.062.001q.88-.8 1.087-1.205-1.423-.77-2.114-1.491-.023.004-.049.004-.204 0-.564-.281l.237-.119q-.276-.04-.622-.326l.316-.049q-.207-.02-.533-.385l.365-.02q-.346-.099-.543-.425l.504-.01q-.544-.158-.623-.464l.208-.03q-.297-.167-.257-.671l1.324.434q-.287-.177-.287-.494l.208.02q-.247-.237-.09-.711zm7.849 11.157q.289 0 .289.219 0 .183-.289.183-.28 0-.28-.183 0-.219.28-.219zm-.218-.122q-.664 0-.996.428-.166.271-.324.83.009.132.219.175.21.044.41.044.927-.34 1.434-1.18-.035-.297-.743-.297zm-1.582 1.31q-.166.123-.703.447-.538.323-1.678 1.341t-1.726 1.197q-.586.18-1.377.214-.79.035-1.192.184 0 .122.253.192 2.193-.253 3.22-.472 1.027-.218 1.517-.371.489-.153 1.25-.581.76-.429 1.214-.83.454-.403.594-.63.14-.227-.345-.24-.485-.013-.787-.14-.301-.127-.24-.31zm-6.703 3.427l-.07.07q0 .07.088.096l.166-.01q-.184-.078-.184-.156zm-.113.104l-.07.088.13-.009q-.052-.044-.06-.079zm9.237-4.5q-.594.848-1.39 1.188.102-.005.19-.005.642 0 .65.276 0 .437-1.49 1.503-1.49 1.067-3.51 1.381-.873.114-.978.34-.018.167.83.21h1.407q.14-.305.516-.559l-.08.219q1.4-.804 2.452-1.779 1.053-.974 1.062-1.69 0-.341.34-.857 0-.079.473-.149v-.017l-.472-.061zm-6.852 4.605l-2.42.429q.253.104.354.375.1.271-.022.656l2.508-.988q-.035-.009-.166-.074-.131-.066-.232-.18-.1-.113-.022-.218zm3.802-.166q-.944.63-.926.822.14.454.681 1.153.289 0 .546-.06.14-.034.29-.034.128 0 .265.024-.9-1.276-.9-1.328 0-.34.053-.577zm2.22-5.06q.463 0 .694.127.232.127.25.337.69.096.69.14v.174q-.018.044-.577.21-.297.393-.297.716 0 .612-.446 1.206-.445.595-1.914 1.95-.13 0-.27.777l.821 1.258q.105.07.28.08.288-.097.917-.097.2.061.354.061.11 0 .197-.03.17-.06.454-.06.067 0 .14.003.297.14.052.384l-4.37.009.14-.21q-.27-.445-.698-1.223h-1.573l-3.409 1.32-.035-.123q.368-.367.306-.83-.13-.376-.69-.498v-.123l1.398-.253v-.009l-1.31.088q0-.035.222-.446.223-.41.94-.41 1.17-.036 1.726-.114.555-.08 2.119-1.512 1.564-1.433 2.237-1.59.323-1.312 1.652-1.312zm-13.059-9.631q-2.015.293-2.106 1.842v11.177q.941-1.124 3.381-1.58l-1.275-11.44zM168.205 0l1.508 13.363q-3.361.385-4.181 2.4V18h-1.002V2.966q0-2.51 3.675-2.966zm-14.498.96q-3.107 0-6.59 1.501 3.483 1.46 6.59 1.46 3.087 0 6.59-1.46Q156.795.96 153.708.96zm0-.96q3.838 0 8.823 2.44-4.985 2.42-8.823 2.42-3.837 0-8.822-2.42Q149.849 0 153.707 0zm.283 11.024l.021.01-3.624 6.946h-1.367l3.624-6.956zm3.038.01l1.367.01L154.77 18l-1.366-.01 3.624-6.955zm-15.577-3.576v1.656c.565 0 .848-.283.848-.848 0-.539-.283-.808-.848-.808zM139.356 0c.463 0 .855.116 1.176.35.613.443.919 1.09.919 1.938v4.584c.942 0 1.42.465 1.434 1.394 0 .942-.478 1.413-1.434 1.413V18h-.746V2.732c0-1.023-.199-1.68-.596-1.969-.206-.15-.476-.225-.838-.225-.338 0-.754.065-1.273.195a.65.65 0 0 1-.213.043c-.11 0-.188-.048-.232-.144-.013-.162.108-.276.364-.343.538-.193 1.018-.289 1.44-.289zm-8.169.601c-1.074 0-2.418.552-3.069 1.202-.569.57-.643 1.324-.664 2.025h7.435c-.021-.7-.095-1.455-.665-2.025-.65-.65-1.963-1.202-3.037-1.202zm0-.601c1.274 0 2.645.589 3.449 1.392.824.824.917 1.91.917 2.72v.317h-8.732v-.316c0-.812.062-1.897.886-2.72C128.51.588 129.913 0 131.187 0zm1.187 9.627c5.438 1.9 2.904 9.54-2.195 8.228-5.054-1.302-4.045-9.318 2.195-8.228m-.243.698c-5.417-.787-5.64 5.768-1.708 6.812 3.846 1.022 6.482-5.13 1.708-6.812m-1.189 1.152c-1.082-.74.885-.487 0-.018v.018m1.986.433c-1.227-.397.343-.795 0-.073v.073m-2.993-.712v.732l-.73-.244.73-.488m3.57 2.066c-.902-.795.596-.885.11-.09l-.11.09m-2.838-.846l.244.731-.732-.487.488-.244m1.052.358l.072-.017c.668-.489 1.39 1.767-.072.017m-3.014-.397c.957.56-.162.703-.253.703l.253-.703m2.938 1.502l-.244.244-.488-.732.732.488m-1.674-.474l.468.019c-.559.866-.757.793-.468-.019m3.68 1.517c-.883-.74.434-.632.416-.488l-.415.488m-1.01-.903l-.221.305c-.718-.215-.34-.792.22-.305m-3.435.836l-.244.244-.488-.732.732.488m1.323.012c.759-.378.92-.27.47.344l-.47-.344m2.579.72l-.244.731-.488-.732h.732m-3.246-.465l.45.54c-.107.217-1.1.145-.45-.54m1.539.71l.244.731h-.732l.488-.732zM123.429 0c.2 0 .41.042.631.126.46.175.713.605.761 1.291-.02.651-.284 1.265-.792 1.841-.404.5-.655.826-.75.977-.254.377-.405.744-.453 1.1h-.443c.069-.507.271-1 .607-1.48.295-.391.61-.782.947-1.173.356-.569.495-1.071.416-1.507-.079-.435-.319-.675-.72-.72a1.77 1.77 0 0 0-.195-.011c-.297 0-.51.09-.638.268a.775.775 0 0 0-.098.73c.076.23.219.346.428.346a.683.683 0 0 0 .117-.011c.275-.048.381-.216.32-.504l.226-.432c.178.192.258.394.241.607a.865.865 0 0 1-.283.566.8.8 0 0 1-.578.215 1.26 1.26 0 0 1-.106-.005.85.85 0 0 1-.658-.365c-.154-.22-.216-.512-.185-.88.03-.366.23-.644.597-.832.19-.098.393-.147.608-.147zm-3.601 0c.2 0 .41.042.631.126.46.175.714.605.762 1.291-.021.651-.285 1.265-.792 1.841-.405.5-.655.826-.751.977-.254.377-.405.744-.453 1.1h-.442c.068-.507.27-1 .607-1.48.295-.391.61-.782.946-1.173.357-.569.495-1.071.417-1.507-.08-.435-.32-.675-.72-.72a1.77 1.77 0 0 0-.195-.011c-.298 0-.51.09-.639.268-.154.216-.186.46-.097.73.075.23.218.346.427.346a.683.683 0 0 0 .118-.011c.274-.048.38-.216.319-.504l.226-.432c.178.192.259.394.242.607a.865.865 0 0 1-.283.566.8.8 0 0 1-.578.215 1.26 1.26 0 0 1-.106-.005.85.85 0 0 1-.658-.365c-.155-.22-.216-.512-.186-.88.031-.366.23-.644.597-.832.19-.098.393-.147.608-.147zm-3.6 0c.2 0 .41.042.63.126.46.175.714.605.762 1.291-.02.651-.285 1.265-.792 1.841-.405.5-.655.826-.75.977-.255.377-.405.744-.453 1.1h-.443c.069-.507.271-1 .607-1.48.295-.391.61-.782.946-1.173.357-.569.496-1.071.417-1.507-.079-.435-.319-.675-.72-.72a1.77 1.77 0 0 0-.195-.011c-.298 0-.51.09-.638.268a.775.775 0 0 0-.098.73c.076.23.218.346.428.346a.683.683 0 0 0 .117-.011c.275-.048.38-.216.32-.504l.225-.432c.179.192.26.394.242.607a.865.865 0 0 1-.283.566.8.8 0 0 1-.578.215 1.26 1.26 0 0 1-.106-.005.85.85 0 0 1-.658-.365c-.154-.22-.216-.512-.185-.88.03-.366.23-.644.596-.832.19-.098.394-.147.609-.147zm7.201 6.332c.2 0 .41.042.631.126.46.175.713.605.761 1.291-.02.652-.284 1.265-.792 1.841-.404.5-.655.827-.75.977-.254.378-.405.744-.453 1.1h-.443c.069-.506.271-1 .607-1.48.295-.391.61-.782.947-1.173.356-.569.495-1.071.416-1.507-.079-.435-.319-.675-.72-.72a1.77 1.77 0 0 0-.195-.011c-.297 0-.51.09-.638.269-.154.216-.187.459-.098.73.076.23.219.345.428.345a.683.683 0 0 0 .117-.01c.275-.049.381-.217.32-.505l.226-.432c.178.192.258.394.241.607a.865.865 0 0 1-.283.566.8.8 0 0 1-.578.215 1.26 1.26 0 0 1-.106-.004.85.85 0 0 1-.658-.366c-.154-.219-.216-.512-.185-.879.03-.367.23-.645.597-.833.19-.098.393-.147.608-.147zm-3.601 0c.2 0 .41.042.631.126.46.175.714.605.762 1.291-.021.652-.285 1.265-.792 1.841-.405.5-.655.827-.751.977-.254.378-.405.744-.453 1.1h-.442c.068-.506.27-1 .607-1.48.295-.391.61-.782.946-1.173.357-.569.495-1.071.417-1.507-.08-.435-.32-.675-.72-.72a1.77 1.77 0 0 0-.195-.011c-.298 0-.51.09-.639.269-.154.216-.186.459-.097.73.075.23.218.345.427.345a.683.683 0 0 0 .118-.01c.274-.049.38-.217.319-.505l.226-.432c.178.192.259.394.242.607a.865.865 0 0 1-.283.566.8.8 0 0 1-.578.215 1.26 1.26 0 0 1-.106-.004.85.85 0 0 1-.658-.366c-.155-.219-.216-.512-.186-.879.031-.367.23-.645.597-.833.19-.098.393-.147.608-.147zm-3.6 0c.2 0 .41.042.63.126.46.175.714.605.762 1.291-.02.652-.285 1.265-.792 1.841-.405.5-.655.827-.75.977-.255.378-.405.744-.453 1.1h-.443c.069-.506.271-1 .607-1.48.295-.391.61-.782.946-1.173.357-.569.496-1.071.417-1.507-.079-.435-.319-.675-.72-.72a1.77 1.77 0 0 0-.195-.011c-.298 0-.51.09-.638.269-.154.216-.187.459-.098.73.076.23.218.345.428.345a.683.683 0 0 0 .117-.01c.275-.049.38-.217.32-.505l.225-.432c.179.192.26.394.242.607a.865.865 0 0 1-.283.566.8.8 0 0 1-.578.215 1.26 1.26 0 0 1-.106-.004.85.85 0 0 1-.658-.366c-.154-.219-.216-.512-.185-.879.03-.367.23-.645.596-.833.19-.098.394-.147.609-.147zm7.201 6.332c.2 0 .41.042.631.126.46.175.713.605.761 1.291-.02.652-.284 1.265-.792 1.841-.404.5-.655.827-.75.977-.254.378-.405.744-.453 1.101h-.443c.069-.507.271-1.001.607-1.481.295-.391.61-.782.947-1.173.356-.569.495-1.071.416-1.507-.079-.435-.319-.675-.72-.72a1.77 1.77 0 0 0-.195-.011c-.297 0-.51.09-.638.269-.154.216-.187.459-.098.73.076.23.219.345.428.345a.683.683 0 0 0 .117-.01c.275-.049.381-.217.32-.505l.226-.432c.178.192.258.394.241.607a.865.865 0 0 1-.283.566.8.8 0 0 1-.578.215 1.26 1.26 0 0 1-.106-.004.85.85 0 0 1-.658-.366c-.154-.219-.216-.512-.185-.879.03-.367.23-.645.597-.833.19-.098.393-.147.608-.147zm-3.601 0c.2 0 .41.042.631.126.46.175.714.605.762 1.291-.021.652-.285 1.265-.792 1.841-.405.5-.655.827-.751.977-.254.378-.405.744-.453 1.101h-.442c.068-.507.27-1.001.607-1.481.295-.391.61-.782.946-1.173.357-.569.495-1.071.417-1.507-.08-.435-.32-.675-.72-.72a1.77 1.77 0 0 0-.195-.011c-.298 0-.51.09-.639.269-.154.216-.186.459-.097.73.075.23.218.345.427.345a.683.683 0 0 0 .118-.01c.274-.049.38-.217.319-.505l.226-.432c.178.192.259.394.242.607a.865.865 0 0 1-.283.566.8.8 0 0 1-.578.215 1.26 1.26 0 0 1-.106-.004.85.85 0 0 1-.658-.366c-.155-.219-.216-.512-.186-.879.031-.367.23-.645.597-.833.19-.098.393-.147.608-.147zm-3.6 0c.2 0 .41.042.63.126.46.175.714.605.762 1.291-.02.652-.285 1.265-.792 1.841-.405.5-.655.827-.75.977-.255.378-.405.744-.453 1.101h-.443c.069-.507.271-1.001.607-1.481.295-.391.61-.782.946-1.173.357-.569.496-1.071.417-1.507-.079-.435-.319-.675-.72-.72a1.77 1.77 0 0 0-.195-.011c-.298 0-.51.09-.638.269-.154.216-.187.459-.098.73.076.23.218.345.428.345a.683.683 0 0 0 .117-.01c.275-.049.38-.217.32-.505l.225-.432c.179.192.26.394.242.607a.865.865 0 0 1-.283.566.8.8 0 0 1-.578.215 1.26 1.26 0 0 1-.106-.004.85.85 0 0 1-.658-.366c-.154-.219-.216-.512-.185-.879.03-.367.23-.645.596-.833.19-.098.394-.147.609-.147zM110.047 0c1.084 0 2.168.639 2.666 1.903.432 1.098.28 3.186.28 4.414h-.735c0-.962.112-2.825-.158-3.677-.349-1.098-1.206-1.674-2.063-1.674-.77 0-1.54.464-1.943 1.432-.377.9-.248 2.884-.248 3.919h-.734c0-1.229-.152-3.315.28-4.414C107.894.63 108.97 0 110.047 0zm-8.513 0c1.084 0 2.168.639 2.666 1.903.432 1.098.28 3.186.28 4.414h-.735c0-.962.112-2.825-.158-3.677-.35-1.098-1.206-1.674-2.063-1.674-.77 0-1.54.464-1.944 1.432-.376.9-.247 2.884-.247 3.919H98.6c0-1.229-.152-3.315.28-4.414C99.38.63 100.457 0 101.534 0zm8.513 11.683c1.084 0 2.168.639 2.666 1.904.432 1.098.28 3.186.28 4.413h-.735c0-.962.112-2.825-.158-3.676-.349-1.098-1.206-1.675-2.063-1.675-.77 0-1.54.464-1.943 1.432-.377.9-.248 2.884-.248 3.919h-.734c0-1.228-.152-3.314.28-4.413.502-1.273 1.578-1.904 2.655-1.904zm-8.513 0c1.084 0 2.168.639 2.666 1.904.432 1.098.28 3.186.28 4.413h-.735c0-.962.112-2.825-.158-3.676-.35-1.098-1.206-1.675-2.063-1.675-.77 0-1.54.464-1.944 1.432-.376.9-.247 2.884-.247 3.919H98.6c0-1.228-.152-3.314.28-4.413.501-1.273 1.578-1.904 2.655-1.904zM96.577 0v5.077h-.849V0zm-5.834.007v5.07h-.848V.007zm-5.94 0v5.07h-.847V.007zm11.774 6.455v5.076h-.849V6.462zm-5.834.007v5.07h-.848v-5.07zm-5.94 0v5.07h-.847v-5.07zm11.774 6.454V18h-.849v-5.077zm-5.834.007V18h-.848v-5.07zm-5.94 0V18h-.847v-5.07zm-2.847-8.012v8.164h-.682V5.615h-7.229v6.738l2.79.016.016-4.582h.713v5.295h-4.216V4.918zm-14.83 3.02c.681.054 1.058.394 1.13 1.022-.09.68-.467 1.04-1.13 1.075-.663-.036-1.013-.394-1.049-1.075.054-.628.404-.968 1.049-1.022zm-.08-2.259c-.485 0-.933.09-1.345.27a3.545 3.545 0 0 0-1.828 1.815 3.11 3.11 0 0 0-.27 1.276c0 .466.09.901.27 1.304.179.404.425.758.739 1.063a3.422 3.422 0 0 0 2.433.968c.484 0 .937-.086 1.358-.256a3.26 3.26 0 0 0 1.09-.712c.304-.305.546-.66.725-1.063.18-.403.27-.838.27-1.304 0-.448-.09-.874-.27-1.277a3.67 3.67 0 0 0-.726-1.075 3.302 3.302 0 0 0-1.089-.74 3.431 3.431 0 0 0-1.358-.269zm.053-.914c.592 0 1.147.112 1.667.336.52.224.968.529 1.345.914.376.386.676.834.9 1.345.224.51.337 1.062.337 1.653 0 .592-.113 1.143-.337 1.654a4.31 4.31 0 0 1-.9 1.331 4.267 4.267 0 0 1-3.012 1.237 4.071 4.071 0 0 1-1.654-.336 4.48 4.48 0 0 1-1.344-.9 4.195 4.195 0 0 1-.914-1.332 4.071 4.071 0 0 1-.336-1.654c0-.591.112-1.142.336-1.653a4.358 4.358 0 0 1 2.258-2.26 4.071 4.071 0 0 1 1.654-.336zm-9.826.08c.947.012 1.816.243 2.472.778.68.54 1.112 1.378 1.106 2.405v5.127h-.705V8.022c0-.838-.316-1.434-.838-1.853-.505-.4-1.215-.62-2.017-.62h-.097c-.796 0-1.513.22-2.017.62-.522.42-.838 1.015-.838 1.853v5.133h-.705V8.028c-.006-1.027.425-1.865 1.106-2.405.656-.535 1.524-.766 2.472-.778zM51.634 0v7.35h-.735V0zm-4.37 0v7.35h-.736V0zm-4.371 0v7.35h-.735V0zm6.556 10.65V18h-.735v-7.35zm-4.37 0V18h-.736v-7.35zm-7.142-9.326q.316 0 .316.266 0 .267-.277.267-.316 0-.316-.247-.01-.286.277-.286zM31.042.375q.01.316.464.539.225.11.097.11-.131 0-.63-.115.296.227.523.365 1.432.405 2.717 1.857-.91-1.59-3.171-2.756zm-1.067.702q.079.306.533.42.387.096-.208.096-.103 0-.236-.003.592.336.736.346.143.01.01.074-.134.064-.608.064.405.257.677.272.271.015.113.08-.158.063-.582.063.211.197.515.197.093 0 .196-.019l-.455.237q.218.08.405.109.504.02 0 .257.106.066.255.066.075 0 .16-.017.553.632 2.835 1.867l-.207.148-.504-.138q-.395.662-1.126 1.235-.79.108-.8.82.008.336.41.336.07 0 .153-.01.033.005.065.005.284 0 .488-.39.264-.45.692-.45h.01q.434.005.71.143l.742-.276Q36 5.314 36.48 4.766q.479-.548.696-1.422.217-.874.647-1.112.43-.237 1.032-.681l-.098-.168q-.444-.174-.773-.174-.752 0-.897.915-.207 1.314-.444 1.793-.237.479-.944.548-.036.004-.074.004-.688 0-1.719-1.2-1.086-1.264-2.415-1.679-1.328-.414-1.516-.513zM30.884 0q2.499 1.245 3.274 2.519.776 1.274 1.17 1.442.196.083.391.083.202 0 .405-.088.4-.173.543-1.136.144-.963.341-1.348.198-.385.746-.519.15-.036.305-.036.416 0 .875.259.465-.178.86-.178.286.138.118.237-1.165.75-1.718 1.121-.554.37-.776 1.309-.222.938-1.091 1.748-.91.968-.9 1.61.08.396.53.939.449.543.528 1.077.01.286-.109.424-.168-.069-.198-.217.05-.306-.014-.42-.065-.113-.144-.271-.118.306-.098.652-.237-.178-.218-.386l.07-.573q-.544-.533-.781-1.106-.237.05-.336.188.07.444.43.844.36.4.499.865-.03.622-.148.652-.168-.218-.114-.356.054-.138.005-.252-.05-.114-.119-.232-.138.138-.138.642-.178-.128-.217-.336.138-.444.04-.681-.524-.534-.781-1.275-.227-.099-.48-.148-.044-.009-.089-.009-.204 0-.4.187-.205.67-.876.67-.198 0-.437-.058-.14.234-.509.234-.098 0-.212-.016-.02-.514.326-.692-.096-1.147.817-1.147l.062.001q.88-.8 1.087-1.205-1.423-.77-2.114-1.491-.023.004-.049.004-.204 0-.564-.281l.237-.119q-.276-.04-.622-.326l.316-.049q-.207-.02-.533-.385l.365-.02q-.346-.099-.543-.425l.504-.01q-.544-.158-.623-.464l.208-.03q-.297-.167-.257-.671l1.324.434q-.287-.177-.287-.494l.208.02q-.247-.237-.09-.711zm7.849 11.157q.289 0 .289.219 0 .183-.289.183-.28 0-.28-.183 0-.219.28-.219zm-.218-.122q-.664 0-.996.428-.166.271-.324.83.009.132.219.175.21.044.41.044.927-.34 1.434-1.18-.035-.297-.743-.297zm-1.582 1.31q-.166.123-.703.447-.538.323-1.678 1.341t-1.726 1.197q-.586.18-1.377.214-.79.035-1.192.184 0 .122.253.192 2.193-.253 3.22-.472 1.027-.218 1.516-.371.49-.153 1.25-.581.76-.429 1.215-.83.454-.403.594-.63.14-.227-.345-.24-.485-.013-.787-.14-.301-.127-.24-.31zm-6.703 3.427l-.07.07q0 .07.088.096l.166-.01q-.184-.078-.184-.156zm-.113.104l-.07.088.13-.009q-.052-.044-.06-.079zm9.237-4.5q-.594.848-1.39 1.188.102-.005.19-.005.642 0 .65.276 0 .437-1.49 1.503-1.49 1.067-3.51 1.381-.873.114-.978.34-.018.167.83.21h1.407q.14-.305.516-.559l-.08.219q1.4-.804 2.452-1.779 1.053-.974 1.062-1.69 0-.341.34-.857 0-.079.473-.149v-.017l-.472-.061zm-6.852 4.605l-2.42.429q.253.104.354.375.1.271-.022.656l2.508-.988q-.035-.009-.166-.074-.131-.066-.232-.18-.1-.113-.022-.218zm3.802-.166q-.944.63-.926.822.14.454.681 1.153.289 0 .546-.06.14-.034.29-.034.128 0 .265.024-.9-1.276-.9-1.328 0-.34.053-.577zm2.22-5.06q.463 0 .694.127.232.127.25.337.69.096.69.14v.174q-.018.044-.577.21-.297.393-.297.716 0 .612-.446 1.206-.445.595-1.914 1.95-.13 0-.27.777l.82 1.258q.106.07.28.08.289-.097.918-.097.2.061.354.061.11 0 .197-.03.17-.06.454-.06.067 0 .14.003.297.14.052.384L35.5 18l.14-.21q-.27-.445-.698-1.223h-1.573l-3.409 1.32-.035-.123q.367-.367.306-.83-.13-.376-.69-.498v-.123l1.398-.253v-.009l-1.31.088q0-.035.222-.446.223-.41.94-.41 1.17-.036 1.726-.114.554-.08 2.119-1.512 1.564-1.433 2.237-1.59.323-1.312 1.652-1.312zM26.106 7.458v1.656c.566 0 .848-.283.848-.848 0-.539-.282-.808-.848-.808zM24.011 0c.463 0 .855.116 1.176.35.613.443.919 1.09.919 1.938v4.584c.943 0 1.42.465 1.434 1.394 0 .942-.478 1.413-1.434 1.413V18h-.746V2.732c0-1.023-.199-1.68-.596-1.969-.206-.15-.476-.225-.838-.225-.337 0-.754.065-1.273.195a.65.65 0 0 1-.213.043c-.11 0-.188-.048-.232-.144-.013-.162.108-.276.364-.343C23.11.096 23.59 0 24.012 0zm-8.169.601c-1.074 0-2.418.552-3.069 1.202-.569.57-.643 1.324-.664 2.025h7.435c-.021-.7-.095-1.455-.664-2.025-.651-.65-1.964-1.202-3.038-1.202zm0-.601c1.274 0 2.645.589 3.449 1.392.824.824.917 1.91.917 2.72v.317h-8.732v-.316c0-.812.062-1.897.886-2.72C13.166.588 14.568 0 15.842 0zm1.187 9.627c5.438 1.9 2.904 9.54-2.195 8.228-5.054-1.302-4.045-9.318 2.195-8.228m-.243.698c-5.417-.787-5.639 5.768-1.708 6.812 3.846 1.022 6.482-5.13 1.708-6.812m-1.189 1.152c-1.082-.74.885-.487 0-.018v.018m1.986.433c-1.227-.397.343-.795 0-.073v.073m-2.993-.712v.732l-.73-.244.73-.488m3.571 2.066c-.903-.795.595-.885.108-.09l-.108.09m-2.839-.846l.244.731-.732-.487.488-.244m1.052.358l.072-.017c.668-.489 1.39 1.767-.072.017m-3.014-.397c.957.56-.162.703-.253.703l.253-.703m2.938 1.502l-.244.244-.488-.732.732.488m-1.674-.474l.468.019c-.559.866-.757.793-.468-.019m3.68 1.517c-.883-.74.434-.632.416-.488l-.415.488m-1.01-.903l-.221.305c-.718-.215-.34-.792.22-.305m-3.435.836l-.244.244-.488-.732.732.488m1.323.012c.759-.378.92-.27.47.344l-.47-.344m2.58.72l-.245.731-.488-.732h.732m-3.246-.465l.45.54c-.107.217-1.1.145-.45-.54m1.539.71l.244.731h-.732l.488-.732zM9.476 0v7.35h-.735V0zm-4.37 0v7.35H4.37V0zM.736 0v7.35H0V0zm8.74 10.65V18h-.735v-7.35zm-4.37 0V18H4.37v-7.35zm-4.37 0V18H0v-7.35z"/></svg>