<svg xmlns="http://www.w3.org/2000/svg" width="344.106" height="18"><path d="M323.646 0l-1.54 1.54v.707l2.07-2.07.178-.177zm3 0l-4.54 4.54v.707l5.07-5.07.178-.177zm3 0l-7.54 7.54v.707l8.07-8.07.178-.177zm3 0l-10.54 10.54v.707l11.07-11.07.178-.177zm3 0l-13.54 13.54v.707l14.07-14.07.178-.177zm3 0l-16.54 16.54v.707l17.07-17.07.178-.177zm3 0l-17.823 17.823-.177.177h.708L342.177.177l.177-.177zm2.46.54l-17.283 17.283-.177.177h.708l16.752-16.753V.54zm0 3l-14.283 14.283-.177.177h.708l13.752-13.753V3.54zm0 3l-11.283 11.283-.177.177h.708l10.752-10.753V6.54zm0 3l-8.283 8.283-.177.177h.708l7.752-7.753V9.54zm0 3l-5.283 5.283-.177.177h.708l4.752-4.753v-.707zm0 3l-2.283 2.283-.177.177h.708l1.752-1.753v-.707zm.54-15.54l-.54.54v.707l1.07-1.07.178-.177zm1.46 1.54l-2 2v.707l2-2V1.54zm0 3l-2 2v.707l2-2V4.54zm0 3l-2 2v.707l2-2V7.54zm0 3l-2 2v.707l2-2v-.707zm0 3l-2 2v.707l2-2v-.707zm0 3l-1.283 1.283-.177.177h.708l.752-.753v-.707zM299.646 0l-1.54 1.54v.707l2.07-2.07.178-.177zm3 0l-4.54 4.54v.707l5.07-5.07.178-.177zm3 0l-7.54 7.54v.707l8.07-8.07.178-.177zm3 0l-10.54 10.54v.707l11.07-11.07.178-.177zm3 0l-13.54 13.54v.707l14.07-14.07.178-.177zm3 0l-16.54 16.54v.707l17.07-17.07.178-.177zm3 0l-17.823 17.823-.177.177h.708L318.177.177l.177-.177zm2.46.54l-17.283 17.283-.177.177h.708l16.752-16.753V.54zm0 3l-14.283 14.283-.177.177h.708l13.752-13.753V3.54zm0 3l-11.283 11.283-.177.177h.708l10.752-10.753V6.54zm0 3l-8.283 8.283-.177.177h.708l7.752-7.753V9.54zm0 3l-5.283 5.283-.177.177h.708l4.752-4.753v-.707zm0 3l-2.283 2.283-.177.177h.708l1.752-1.753v-.707zm.54-15.54l-.54.54v.707l1.07-1.07.178-.177zm1.46 1.54l-2 2v.707l2-2V1.54zm0 3l-2 2v.707l2-2V4.54zm0 3l-2 2v.707l2-2V7.54zm0 3l-2 2v.707l2-2v-.707zm0 3l-2 2v.707l2-2v-.707zm0 3l-1.283 1.283-.177.177h.708l.752-.753v-.707zM275.646 0l-1.54 1.54v.707l2.07-2.07.178-.177zm3 0l-4.54 4.54v.707l5.07-5.07.178-.177zm3 0l-7.54 7.54v.707l8.07-8.07.178-.177zm3 0l-10.54 10.54v.707l11.07-11.07.178-.177zm3 0l-13.54 13.54v.707l14.07-14.07.178-.177zm3 0l-16.54 16.54v.707l17.07-17.07.178-.177zm3 0l-17.823 17.823-.177.177h.708L294.177.177l.177-.177zm2.46.54l-17.283 17.283-.177.177h.708l16.752-16.753V.54zm0 3l-14.283 14.283-.177.177h.708l13.752-13.753V3.54zm0 3l-11.283 11.283-.177.177h.708l10.752-10.753V6.54zm0 3l-8.283 8.283-.177.177h.708l7.752-7.753V9.54zm0 3l-5.283 5.283-.177.177h.708l4.752-4.753v-.707zm0 3l-2.283 2.283-.177.177h.708l1.752-1.753v-.707zm.54-15.54l-.54.54v.707l1.07-1.07.178-.177zm1.46 1.54l-2 2v.707l2-2V1.54zm0 3l-2 2v.707l2-2V4.54zm0 3l-2 2v.707l2-2V7.54zm0 3l-2 2v.707l2-2v-.707zm0 3l-2 2v.707l2-2v-.707zm0 3l-1.283 1.283-.177.177h.708l.752-.753v-.707zM270.46 0c.335 0 .67.026.994.066.447.113.217.626-.18.626a.476.476 0 0 1-.082-.008c-.839.097-1.872.15-2.506.626-.84.916-.463 2.821-.56 3.725-.008.05-.01 3.653-.01 5.48a6.145 6.145 0 0 1 2.634-.586c.402 0 .801.04 1.188.117.44.231-.077.528-.423.528a.454.454 0 0 1-.114-.013c-1.226.133-2.62.461-3.243 1.602-.062.206-.023.277.07.277.207 0 .68-.342.947-.342.014 0 .027 0 .04.003a7.535 7.535 0 0 1 1.58-.169c.39 0 .776.031 1.149.095.42.278-.096.534-.438.534a.532.532 0 0 1-.105-.01c-1.252.151-2.637.49-3.243 1.633-.007 1.27 0 2.11-.034 3.278.015.36-.22.538-.456.538-.235 0-.473-.176-.474-.526.008-1.15.09-2.161-.06-3.277-.305-1.253-2.478-1.445-3.827-1.754-.295-.347.285-.475.658-.475.056 0 .107.003.15.008.173-.013.347-.02.522-.02.882 0 1.77.175 2.557.58.032-.755-.712-1.19-1.244-1.493-.84-.361-1.766-.397-2.643-.59-.314-.273.18-.501.52-.501a.58.58 0 0 1 .126.012c.215-.02.431-.031.648-.031.902 0 1.804.183 2.614.582-.017-2.851-.063-5.61.019-8.308.066-.834.546-1.6 1.354-1.849.58-.264 1.227-.358 1.871-.358z"/><path d="M263.646 0l-.438.439v.707l.969-.97.177-.176zm3 0l-3.438 3.439v.707l3.969-3.97.177-.176zm3 0l-6.438 6.439v.707l6.969-6.97.177-.176zm2.46.54l-8.898 8.899v.707l8.898-8.899V.54zm0 3l-8.898 8.899v.707l8.898-8.899V3.54zm0 3l-8.898 8.899v.707l8.898-8.899V6.54zm0 3l-8.283 8.283-.177.177h.708l7.752-7.753V9.54zm0 3l-5.283 5.283-.177.177h.708l4.752-4.753v-.707zm0 3l-2.283 2.283-.177.177h.708l1.752-1.753v-.707zm.54-15.54l-.54.54v.707l1.07-1.07.178-.177zm1.495 1.505l-2.035 2.035v.707l2.035-2.035v-.707zm0 3l-2.035 2.035v.707l2.035-2.035v-.707zm0 3l-2.035 2.035v.707l2.035-2.035v-.707zm0 3l-2.035 2.035v.707l2.035-2.035v-.707zm0 3l-2.035 2.035v.707l2.035-2.035v-.707zm0 3l-1.318 1.318-.177.177h.708l.787-.788v-.707zM246.465 2.99q-.557 0-1.087.606 4.368 5.2 5.46 5.81.815.457 1.434.457.211 0 .4-.053.74-.208 1.585-.234h.043q.828 0 1.816.988h.13q-.702-1.638-1.963-2.34-1.26-.702-7.397-5.148-.213-.085-.421-.085zm7.73-2.369q-.065 0-.133.01v6.683q2.054 1.196 2.834 3.354Q255.7 2.4 255.22 1.464q-.433-.843-1.023-.843zm5.356 10.468q.08 0 .153.138.13.247-.234.689-.208-.546-.052-.741.07-.086.133-.086zm-.036-.372q-.153 0-.33.237-.39.52.233 2.08.702-1.352.43-1.976-.15-.34-.333-.34zm-6.805 2.577v.39q.286-.026.442-.182-.052-.078-.208-.208zm-.598.884l-2.418.338-.494.884q.832-.234 1.833-.624t1.08-.598zm5.33-.364l-.468.234-.156 1.118.416 1.274h.65l-.442-1.274v-1.352zm-1.118.39l-.442.13-.156.832.416 1.274h.65l-.442-1.274-.026-.962zm-1.534.156l-.156.806.416 1.274h.65l-.442-1.274v-.78l-.468-.026zm.995-3.234q-.416 0-.89.1-1.405.3-1.769 1.418h-1.092l-.416-.676q-5.512 1.274-6.214 4.602 1.508-.832 3.172-1.118l.728-1.456 2.886-.39-.078-.702h.988q1.092.9 2.228.9.244 0 .49-.042 1.39-.234 1.82-.95.428-.714-.456-1.3-.585-.386-1.397-.386zM253.939 0q.947 0 1.488.658.663.806 1.235 4.238l.91 5.954q.442.468.676.52h.312q.026-.65.494-1.196.416-3.978-.364-6.968l.312-.598q1.118 3.38.546 7.592h.078q1.795-4.03.52-7.592l.312-.468q1.665 3.796-.364 8.242.572 1.248.117 2.054-.455.806-.559 1.508l-.182.13q-.702-1.04-.806-1.794h-.26q-.026.598-.338 1.248l-.182 1.638.442 1.274h2.262v.624h-6.526v-.624h.546l-.416-1.274-.026-.962q-.468-.156-.702-.364-.338.312-.754.312.026.26-.104.442-1.04.806-3.718 1.404l-.91 1.768q0-.434-.27-.434-.085 0-.198.044l.728-1.3q-1.508.338-2.288.858-.416.442.052 1.066-1.04-.442-1.17-1.248.416-3.926 7.046-5.46l.468.78h.416q.338-1.092 2.678-1.508-.522-.388-1.284-.388-.414 0-.9.115-.492.116-.96.116-.845 0-1.614-.376-1.196-.585-6.084-6.461.901-1.136 1.905-1.136.33 0 .67.122l6.317 4.524V.034q.235-.034.449-.034z"/><path d="M209.646 0l-1.291 1.292v.707l1.822-1.822.177-.177zm3 0l-4.291 4.292v.707l4.822-4.822.177-.177zm3 0l-7.291 7.292v.707l7.822-7.822.177-.177zm3 0l-10.291 10.292v.707L219.177.177l.177-.177zm3 0l-13.291 13.292v.707L222.177.177l.177-.177zm3 0l-16.291 16.292v.707L225.177.177l.177-.177zm3 0l-17.823 17.823-.177.177h.708L228.177.177l.177-.177zm3 0l-17.823 17.823-.177.177h.708L231.177.177l.177-.177zm3 0l-17.823 17.823-.177.177h.708L234.177.177l.177-.177zm3 0l-17.823 17.823-.177.177h.708L237.177.177l.177-.177zm3 0l-17.823 17.823-.177.177h.708L240.177.177l.177-.177zm3 0l-17.823 17.823-.177.177h.708L243.177.177l.177-.177zm3 0l-17.823 17.823-.177.177h.708L246.177.177l.177-.177zm3 0l-17.823 17.823-.177.177h.708L249.177.177l.177-.177zm3 0l-17.823 17.823-.177.177h.708L252.177.177l.177-.177zm3 0l-17.823 17.823-.177.177h.708L255.177.177l.177-.177zm3 0l-17.823 17.823-.177.177h.708L258.177.177l.177-.177zm3 0l-17.823 17.823-.177.177h.708L261.177.177l.03-.031V0zm.562 2.439l-15.385 15.384-.177.177h.708l14.854-14.854v-.707zm0 3l-12.385 12.384-.177.177h.708l11.854-11.854v-.707zm0 3l-9.385 9.384-.177.177h.708l8.854-8.854v-.707zm0 3l-6.385 6.384-.177.177h.708l5.854-5.854v-.707zm0 3l-3.385 3.384-.177.177h.708l2.854-2.854v-.707zm0 3l-.385.384-.177.177h.562v-.561zM263.314.332l-2.106 2.107v.707l2.106-2.106V.332zm0 3l-2.106 2.107v.707l2.106-2.106v-.708zm0 3l-2.106 2.107v.707l2.106-2.107v-.707zm0 3l-2.106 2.107v.707l2.106-2.107v-.707zm0 3l-2.106 2.107v.707l2.106-2.106v-.708zm0 3l-2.106 2.107V18h.146l1.96-1.96v-.708zM200.473.911v2.43q.536-.8 3.22-.8h1.983V.911zm-.03-.911q1.093.202 3.25.202h2.662V3.25h-2.663q-1.407 0-2.015.293-.617.294-1.204.84L200.443 18h-1.175V0zm-11.997.96q-3.108 0-6.591 1.501 3.483 1.46 6.59 1.46 3.087 0 6.591-1.46Q191.532.96 188.446.96zm0-.96q3.837 0 8.822 2.44-4.985 2.42-8.822 2.42-3.838 0-8.823-2.42Q184.587 0 188.446 0zm6.658 15.441L197.268 18h-1.055l-1.11-1.322L193.985 18l-1.087-1.322-1.12 1.322-1.108-1.322L189.55 18l-1.109-1.322L187.32 18l-1.087-1.322-1.12 1.322-1.119-1.322L182.907 18l-1.12-1.322L180.68 18h-1.056l2.165-2.559 1.119 1.237 1.087-1.237 1.12 1.237 1.12-1.237 1.087 1.237 1.12-1.237 1.108 1.237 1.12-1.237 1.108 1.237 1.12-1.237 1.087 1.237 1.12-1.237z"/><path d="M169.936.375v17.25m7.687-17.25c-9.625 0-9.625 17.25 0 17.25m0 0" fill="none" stroke="#000"/><path d="M161.966.597a2.12 2.12 0 0 0-.692.109c.031.223.169.569.953.773-.73-.053-1.206-.113-1.452-.307-.09.2-.137.427-.159.556a.297.297 0 0 1-.206.237c-.625.191-1.174 1.112-1.7 1.763-.95 1.173-1.771 2.48-2.688 3.733l1.27-.622c1.182-.622 2.395-1.11 3.407-1.877.589-.49 1.172-.996 1.39-1.641.076-.497-.296-1.074-.767-1.279a.297.297 0 1 1 .238-.545c.377.164.7.458.904.817a1.986 1.986 0 0 0-.075-.448.297.297 0 0 1-.012-.104c.01-.184.041-.313.082-.422.04-.109.084-.206.157-.459a.297.297 0 0 1 .105-.153 1.546 1.546 0 0 0-.528-.125C162.151.6 162.11.6 162.07.599a.258.258 0 1 1-.103-.002zm-1.193 5.432c-.606.466-1.254.873-1.889 1.28.005.438-.006.879-.046 1.321.206-.135.434-.236.697-.3.39-.636.82-1.22 1.082-1.842.054-.129.105-.29.156-.46zm.248 1c-.273.549-.621 1.04-.928 1.529.059.04.112.08.154.121l.028.027c.168-.194.375-.351.613-.454-.01-.348.047-.768.133-1.222zm-2.88.047a25.922 25.922 0 0 0-.588.297c-.78.38-1.56.772-2.349 1.148-.556.67-1.157 1.293-1.735 1.92l1.044.175 2.562-2.786a.297.297 0 0 1 .04-.036 18.5 18.5 0 0 1 1.026-.718zm2.592 2.009c-.058.066-.112.14-.162.222a.298.298 0 0 1-.43.087c-.124-.09-.2-.177-.265-.244l-.077 1.413c.1-.006.201-.013.296-.013.167 0 .313.022.398.108.1-.078.28-.1.504-.1.058 0 .118.002.18.005l-.444-1.478zm5.418.999c-.451.062-.686.323-.704.783h1.395c0-.46-.23-.721-.69-.783zm-7.86-2.39a16.38 16.38 0 0 0-.798.56l-2.403 2.613h2.456c.171-.19.519-.365.776-.365.073 0 .14.014.192.046.082-.007.168-.01.256-.01.14 0 .286.007.434.016l.082-1.506c-.224.115-.407.282-.625.542a.297.297 0 0 1-.52-.246c.1-.544.142-1.093.15-1.65zm6.24 3.745l.266.465h1.248l.252-.465zm-4.516 0v2.51l1.727-2.51zM161.959 0a3.878 3.878 0 0 1 .272.01c.694.044 1.215.325 1.408.768a.298.298 0 0 1-.34.408l-.025-.006-.03.007-.108.029c-.055.168-.096.269-.12.332a.541.541 0 0 0-.042.2c.154.552.094 1.107.036 1.389-.095.466-.384.977-.761 1.46a.295.295 0 0 1-.014.108 21.24 21.24 0 0 0-.548 2.027c-.152.708-.233 1.387-.192 1.684a.297.297 0 0 1-.223.33l-.019.005.527 1.75c.086-.013.173-.018.26-.018.256 0 .509.041.712.041a.865.865 0 0 0 .183-.016.314.314 0 0 1 .068-.007c.212 0 .657.13.787.366h1.1c.061-.797.482-1.235 1.261-1.315.788.08 1.196.518 1.222 1.315v.572h-.531l-.545 1.01h-1.766l-.532-1.01h-1.567l-2.404 3.493V18h-.571v-6.561h-4.516v-.41l-.1.109a.297.297 0 0 1-.268.092l-1.74-.292a.298.298 0 0 1-.173-.492c.217-.242.437-.48.657-.716l-1.657 1.078a.296.296 0 0 1-.412-.087.297.297 0 0 1 .088-.411l1.344-.876a.292.292 0 0 1-.076-.09.315.315 0 0 1-.02-.237.305.305 0 0 1 .048-.093c.055-.076.084-.088.124-.119.039-.03.083-.06.13-.094.096-.065.206-.137.301-.2a4.156 4.156 0 0 0 .217-.156l2.378-1.672.008-.005c.805-1.13 1.568-2.316 2.457-3.414.433-.535.938-1.524 1.812-1.894.048-.262.157-.68.484-.997.353-.344.863-.463 1.416-.463zm-33.313 0l-1.441 1.442v.707l1.972-1.972.177-.177zm3 0l-4.441 4.442v.707l4.972-4.972.177-.177zm3 0l-7.441 7.442v.707l7.972-7.972.177-.177zm3 0l-10.441 10.442v.707L138.177.177l.177-.177zm3 0l-13.441 13.442v.707L141.177.177l.177-.177zm3 0l-16.441 16.442v.707L144.177.177l.177-.177zm3 0l-17.823 17.823-.177.177h.708L147.177.177l.177-.177zm2.559.442l-17.382 17.381-.177.177h.708l16.85-16.851V.442zm0 3l-14.382 14.381-.177.177h.708l13.85-13.851v-.707zm0 3l-11.382 11.381-.177.177h.708l10.85-10.851v-.707zm0 3l-8.382 8.381-.177.177h.708l7.85-7.851v-.707zm0 3l-5.382 5.381-.177.177h.708l4.85-4.851v-.707zm0 3l-2.382 2.381-.177.177h.708l1.85-1.851v-.707z"/><path d="M149.646 0l-.441.442v.707l.972-.972.177-.177zm1.559 1.442l-2 2v.707l2-2v-.707zm0 3l-2 2v.707l2-2v-.707zm0 3l-2 2v.707l2-2v-.707zm0 3l-2 2v.707l2-2v-.707zm0 3l-2 2v.707l2-2v-.707zm0 3l-1.382 1.381-.177.177h.708l.85-.851v-.707zM104.646 0l-1.441 1.442v.707l1.972-1.972.177-.177zm3 0l-4.441 4.442v.707l4.972-4.972.177-.177zm3 0l-7.441 7.442v.707l7.972-7.972.177-.177zm3 0l-10.441 10.442v.707L114.177.177l.177-.177zm3 0l-13.441 13.442v.707L117.177.177l.177-.177zm3 0l-16.441 16.442v.707L120.177.177l.177-.177zm3 0l-17.823 17.823-.177.177h.708L123.177.177l.177-.177zm2.559.442l-17.382 17.381-.177.177h.708l16.85-16.851V.442zm0 3l-14.382 14.381-.177.177h.708l13.85-13.851v-.707zm0 3l-11.382 11.381-.177.177h.708l10.85-10.851v-.707zm0 3l-8.382 8.381-.177.177h.708l7.85-7.851v-.707zm0 3l-5.382 5.381-.177.177h.708l4.85-4.851v-.707zm0 3l-2.382 2.381-.177.177h.708l1.85-1.851v-.707zM125.646 0l-.441.442v.707l.972-.972.177-.177zm1.559 1.442l-2 2v.707l2-2v-.707zm0 3l-2 2v.707l2-2v-.707zm0 3l-2 2v.707l2-2v-.707zm0 3l-2 2v.707l2-2v-.707zm0 3l-2 2v.707l2-2v-.707zm0 3l-1.382 1.381-.177.177h.708l.85-.851v-.707zM80.646 0l-1.441 1.442v.707L81.177.177 81.354 0zm3 0l-4.441 4.442v.707L84.177.177 84.354 0zm3 0l-7.441 7.442v.707L87.177.177 87.354 0zm3 0L79.205 10.442v.707L90.177.177 90.354 0zm3 0L79.205 13.442v.707L93.177.177 93.354 0zm3 0L79.205 16.442v.707L96.177.177 96.354 0zm3 0L80.823 17.823l-.177.177h.708L99.177.177 99.354 0zm2.559.442L83.823 17.823l-.177.177h.708l16.85-16.851V.442zm0 3L86.823 17.823l-.177.177h.708l13.85-13.851v-.707zm0 3L89.823 17.823l-.177.177h.708l10.85-10.851v-.707zm0 3l-8.382 8.381-.177.177h.708l7.85-7.851v-.707zm0 3l-5.382 5.381-.177.177h.708l4.85-4.851v-.707zm0 3l-2.382 2.381-.177.177h.708l1.85-1.851v-.707zM101.646 0l-.441.442v.707l.972-.972.177-.177zm1.559 1.442l-2 2v.707l2-2v-.707zm0 3l-2 2v.707l2-2v-.707zm0 3l-2 2v.707l2-2v-.707zm0 3l-2 2v.707l2-2v-.707zm0 3l-2 2v.707l2-2v-.707zm0 3l-1.382 1.381-.177.177h.708l.85-.851v-.707zM56.646 0l-1.441 1.442v.707L57.177.177 57.354 0zm3 0l-4.441 4.442v.707L60.177.177 60.354 0zm3 0l-7.441 7.442v.707L63.177.177 63.354 0zm3 0L55.205 10.442v.707L66.177.177 66.354 0zm3 0L55.205 13.442v.707L69.177.177 69.354 0zm3 0L55.205 16.442v.707L72.177.177 72.354 0zm3 0L56.823 17.823l-.177.177h.708L75.177.177 75.354 0zm2.559.442L59.823 17.823l-.177.177h.708l16.85-16.851V.442zm0 3L62.823 17.823l-.177.177h.708l13.85-13.851v-.707zm0 3L65.823 17.823l-.177.177h.708l10.85-10.851v-.707zm0 3l-8.382 8.381-.177.177h.708l7.85-7.851v-.707zm0 3l-5.382 5.381-.177.177h.708l4.85-4.851v-.707zm0 3l-2.382 2.381-.177.177h.708l1.85-1.851v-.707zM77.646 0l-.441.442v.707l.972-.972.177-.177zm1.559 1.442l-2 2v.707l2-2v-.707zm0 3l-2 2v.707l2-2v-.707zm0 3l-2 2v.707l2-2v-.707zm0 3l-2 2v.707l2-2v-.707zm0 3l-2 2v.707l2-2v-.707zm0 3l-1.382 1.381-.177.177h.708l.85-.851v-.707zM50.912 0c.837 0 1.675.493 2.06 1.47.333.848.216 2.461.216 3.409h-.568c0-.743.086-2.182-.123-2.84-.269-.848-.93-1.293-1.593-1.293-.594 0-1.189.358-1.501 1.106-.29.695-.191 2.228-.191 3.027h-.568c0-.949-.117-2.56.217-3.409C49.248.487 50.08 0 50.911 0zm-6.576 0c.837 0 1.675.493 2.06 1.47.333.848.216 2.461.216 3.409h-.568c0-.743.087-2.182-.122-2.84-.27-.848-.931-1.293-1.594-1.293-.594 0-1.189.358-1.5 1.106-.292.695-.192 2.228-.192 3.027h-.567c0-.949-.117-2.56.217-3.409C42.673.487 43.504 0 44.336 0zM37.76 0c.838 0 1.675.493 2.06 1.47.334.848.217 2.461.217 3.409h-.569c0-.743.087-2.182-.122-2.84-.27-.848-.931-1.293-1.593-1.293-.595 0-1.19.358-1.502 1.106-.29.695-.19 2.228-.19 3.027h-.568c0-.949-.117-2.56.217-3.409C36.097.487 36.929 0 37.76 0zm13.152 6.56c.837 0 1.675.494 2.06 1.47.333.849.216 2.462.216 3.41h-.568c0-.743.086-2.182-.123-2.84-.269-.848-.93-1.294-1.593-1.294-.594 0-1.189.359-1.501 1.107-.29.695-.191 2.227-.191 3.027h-.568c0-.95-.117-2.56.217-3.41.387-.983 1.219-1.47 2.05-1.47zm-6.576 0c.837 0 1.675.494 2.06 1.47.333.849.216 2.462.216 3.41h-.568c0-.743.087-2.182-.122-2.84-.27-.848-.931-1.294-1.594-1.294-.594 0-1.189.359-1.5 1.107-.292.695-.192 2.227-.192 3.027h-.567c0-.95-.117-2.56.217-3.41.387-.983 1.218-1.47 2.05-1.47zm-6.576 0c.838 0 1.675.494 2.06 1.47.334.849.217 2.462.217 3.41h-.569c0-.743.087-2.182-.122-2.84-.27-.848-.931-1.294-1.593-1.294-.595 0-1.19.359-1.502 1.107-.29.695-.19 2.227-.19 3.027h-.568c0-.95-.117-2.56.217-3.41.387-.983 1.219-1.47 2.05-1.47zm13.152 6.561c.837 0 1.675.493 2.06 1.47.333.848.216 2.461.216 3.409h-.568c0-.743.086-2.182-.123-2.84-.269-.848-.93-1.293-1.593-1.293-.594 0-1.189.358-1.501 1.106-.29.695-.191 2.228-.191 3.027h-.568c0-.949-.117-2.56.217-3.409.387-.983 1.219-1.47 2.05-1.47zm-6.576 0c.837 0 1.675.493 2.06 1.47.333.848.216 2.461.216 3.409h-.568c0-.743.087-2.182-.122-2.84-.27-.848-.931-1.293-1.594-1.293-.594 0-1.189.358-1.5 1.106-.292.695-.192 2.228-.192 3.027h-.567c0-.949-.117-2.56.217-3.409.387-.983 1.218-1.47 2.05-1.47zm-6.576 0c.838 0 1.675.493 2.06 1.47.334.848.217 2.461.217 3.409h-.569c0-.743.087-2.182-.122-2.84-.27-.848-.931-1.293-1.593-1.293-.595 0-1.19.358-1.502 1.106-.29.695-.19 2.228-.19 3.027h-.568c0-.949-.117-2.56.217-3.409.387-.983 1.219-1.47 2.05-1.47zM33.476 0v7.35h-.735V0zm-4.37 0v7.35h-.735V0zm-4.371 0v7.35H24V0zm6.555 10.65V18h-.734v-7.35zm-4.37 0V18h-.735v-7.35zM0 0v.354L.177.177.354 0zm2.646 0L0 2.646v.708L3.177.177 3.354 0zm3 0L0 5.646v.708L6.177.177 6.354 0zm3 0L0 8.646v.708L9.177.177 9.354 0zm3 0L0 11.646v.708L12.177.177 12.354 0zm3 0L0 14.646v.708L15.177.177 15.354 0zm3 0L0 17.646V18h.354L18.177.177 18.354 0zm3 0L2.823 17.823 2.646 18h.708L21.177.177 21.354 0zM22 1.646L5.823 17.823 5.646 18h.708L22 2.354v-.708zm0 3L8.823 17.823 8.646 18h.708L22 5.354v-.708zm0 3L11.823 17.823l-.177.177h.708L22 8.354v-.708zm0 3l-7.177 7.177-.177.177h.708L22 11.354v-.708zm0 3l-4.177 4.177-.177.177h.708L22 14.354v-.708zm0 3l-1.177 1.177-.177.177h.708l.646-.646v-.708z"/></svg>