<svg xmlns="http://www.w3.org/2000/svg" width="270.816" height="18"><path d="M265.86 1.844h.003c.115.002.206.103.204.225-.003.12-.095.217-.208.217a.2.2 0 01-.003 0c-.115-.002-.206-.103-.204-.225l.208.004-.208-.005c.003-.12.096-.216.208-.216zm-.038-.036a.812.812 0 00-.474.296l-.093.184v.001c-.018.213.06.537.176.857.01-.112.04-.22.1-.31a.712.712 0 01.302-.247c.204-.097.389-.139.594-.27a.297.297 0 01.13-.046l.105-.01a.297.297 0 01-.139-.178l.005.02c-.001 0-.013-.021-.043-.045a1.082 1.082 0 00-.204-.12 1.56 1.56 0 00-.459-.132zm-1.524.383a1.496 1.496 0 00-.765.524c-.237.309-.367.74-.45 1.24l.872-.08A2.965 2.965 0 01264 2.66c.048-.172.15-.327.299-.469zm.651 4.058c-.18.021-.36.036-.532.044-1.665.074-3.355.809-4.318 1.556-1.057.82-2.294 1.473-3.52 1.984a14.847 14.847 0 001.617.078c.101.004.203.006.305.006 1.876 0 3.767-.593 5.231-1.76a3.765 3.765 0 001.217-1.908zm1.646-.71a.574.574 0 01-.276.326 3.212 3.212 0 01-.74.271c-.154.963-.745 1.9-1.476 2.486-1.582 1.26-3.6 1.889-5.6 1.889a9.543 9.543 0 01-.372-.006c-.891 0-1.779-.065-2.664-.237l.002-.007c-.59.21-1.163.388-1.697.537.882-.059 1.8-.258 2.754-.287.099-.003.198-.004.297-.004.896 0 1.778.112 2.616.127h.111c2.374 0 4.342-1.36 6.245-3.196.44-.425.771-1.271.8-1.899zm-10.31 5.58c-.702.046-1.423.178-2.164.248-.212.147-.44.263-.626.38-.146.09-.248.179-.31.251a.834.834 0 00.09.023c.1.019.225.027.341.027.115 0 .22-.008.288-.021.23-.045.854-.192 1.452-.423a4.38 4.38 0 00.928-.485zm9.533-9.905h.015c.23.004.468.08.7.188.115.053.225.116.323.194a.803.803 0 01.159.16c.31.082.697.116 1.095.164.448.054.916.125 1.32.372.658.4 1.149 1.154 1.373 1.887a.297.297 0 01-.534.247c-.685-1.07-1.144-1.381-1.65-1.495a5.399 5.399 0 00-1.156-.11c-.252 0-.515.012-.781.037-.262.155-.492.22-.594.268-.051.024-.061.036-.061.036s-.009.011-.005.08c.01.154.234.485.516.837.283.352.619.735.65 1.235.054.861-.322 1.916-.98 2.552a18.43 18.43 0 01-1.89 1.615c-.139.905-.315 2.167-.422 3.05.243 1.111.845 2.098 1.15 3.188.093.204.312.288.526.288a.808.808 0 00.2-.025c.31-.045.623-.09.935-.09a2.772 2.772 0 01.314.016c.215 0 .939.288.83.692-.033.091-.671.132-1.351.132a12.5 12.5 0 01-1.35-.062.515.515 0 01-.081.006.61.61 0 01-.59-.518c-.403-1.114-.877-2.2-1.274-3.317-.004-.96.255-1.893.351-2.844-.467.29-.95.538-1.449.734-.228.457-1.259 1.915-1.64 2.485l-.204 2.9c.536-.02 1.064-.17 1.6-.17.069 0 .138.003.207.009.417 0 .55.817.235.817a.21.21 0 01-.039-.004c-.61.006-1.219.018-1.828.018-.2 0-.398-.001-.598-.005-.207-.031-.327-.277-.267-.469l.237-3.282c.21-.386.826-1.3 1.292-1.982a6.744 6.744 0 01-1.674.18c-.772-.014-1.542-.1-2.29-.121-.316.513-.952.813-1.567 1.051-.649.25-1.286.4-1.553.452a2.12 2.12 0 01-.401.036c-.148 0-.303-.013-.45-.041a1.033 1.033 0 01-.416-.154.507.507 0 01-.179-.203.47.47 0 01-.023-.315c.074-.255.246-.425.436-.561l-.036-.004a1.73 1.73 0 01-.292-.064.588.588 0 01-.142-.065.333.333 0 01-.165-.23.344.344 0 01.084-.297.522.522 0 01.124-.104c.081-.051.167-.09.262-.13.189-.077.405-.146.564-.189 1.939-.52 4.484-1.46 6.351-2.91 1.076-.834 2.838-1.598 4.655-1.68.578-.026 1.25-.145 1.65-.358a.065.065 0 01-.018.008c-.009 0 .025-.033.037-.091.016-.074.001-.17.001-.17-.064-.146-.222-.32-.412-.513-.19-.193-.41-.405-.551-.695-.172-.351-.367-.782-.426-1.22a.552.552 0 00-.1.159c-.056.201-.05.983.037 1.213a.297.297 0 01-.25.401l-1.594.149a.298.298 0 01-.323-.331c.082-.69.212-1.366.622-1.898.406-.528 1.085-.86 2.094-.884.191-.143.406-.255.66-.255zM245.968 5.23c-1.19 0-2.251.55-2.942 1.41h5.883a3.761 3.761 0 00-2.941-1.41zm-3.34 2.017a3.75 3.75 0 00-.416 1.425h7.512a3.75 3.75 0 00-.417-1.425zm-.42 2.033c.037.51.175.991.395 1.424h6.73a3.75 3.75 0 00.394-1.424zm.78 2.032a3.762 3.762 0 002.98 1.458c1.212 0 2.29-.57 2.979-1.458zm2.98-6.69A4.383 4.383 0 01250.345 9a4.383 4.383 0 01-4.377 4.377A4.383 4.383 0 01241.59 9a4.383 4.383 0 014.378-4.377zM236.724 4.99c.112 0 .223.011.334.021 1.61.172 2.754 1.802 2.501 3.382-.111 1.174-.84 1.832-1.64 2.48-2.38 1.458-1.711.921-4.11 2.136l-.385-.719c2.855-1.336 3.199-1.549 4.09-2.136.729-.587 1.306-1.235 1.255-2.217.02-.678-.384-1.377-.84-1.711a2.186 2.186 0 00-1.286-.435c-.344 0-.668.08-.951.283-.72.354-1.114 1.529-.588 2.268.243.354.679.597 1.114.597.213 0 .425-.06.608-.192.364-.203.637-.911.263-1.306.172-.182.415-.405.597-.405.122 0 .213.091.273.304.405.972-.243 2.075-1.214 2.338a1.83 1.83 0 01-.517.081c-1.113 0-2.146-.931-2.146-2.085-.101-1.347.972-2.582 2.318-2.663.102-.01.213-.02.324-.02z"/><path d="M233.646 0l-.222.223V.93l.753-.753.177-.177zm3 0l-3.222 3.223v.707l3.753-3.753.177-.177zm2.944.056l-6.166 6.167v.707L239.59.763V.056zm0 3l-6.166 6.167v.707l6.166-6.167v-.707zm0 3l-6.166 6.167v.707l6.166-6.167v-.707zm0 3l-6.166 6.167v.707l6.166-6.167v-.707zm0 3l-5.767 5.767-.177.177h.708l5.236-5.237v-.707zm0 3l-2.767 2.767-.177.177h.708l2.236-2.237v-.707z"/><path d="M239.646 0l-.056.056v.707l.587-.586.177-.177zm1.944 1.056l-2 2v.707l2-2v-.707zm0 3l-2 2v.707l2-2v-.707zm0 3l-2 2v.707l2-2v-.707zm0 3l-2 2v.707l2-2v-.707zm0 3l-2 2v.707l2-2v-.707zm0 3l-1.767 1.767-.177.177h.708l1.236-1.237v-.707zM222.637 1.44q.056.076 0 .15.075-.037.132-.056-.02-.056-.132-.094zm-.15.02l-.188.13h.207q-.075-.056-.02-.13zm.11-.1q.084 0 .153.043l.15.131v.094l-.075-.019q-.132.076-.286.076-.155 0-.334-.076l-.206.057v-.132h.206q.226-.175.392-.175zm.528.736zm-.072.215q-.015 0-.031.003-.066.009-.16.028-.093.018-.075.018l.3.02q.057-.02.029-.048-.021-.02-.063-.02zm-.266.106q.038.019.113.047.075.028.113.047.075 0 .075-.02 0-.018-.02-.037l-.28-.037zm-.268-1.356q-.871 0-.802.605h-.188q0-.3-.15-.3-.225 0-.225.31 0 .309.32.703.037.789.018 1.202.1.037.194.037.188 0 .35-.15 0-.094.01-.366.007-.22.32-.22.075 0 .168.014.071.01.13.01.335 0 .255-.32-.282-.17-.197-.244.084-.075.31-.094 0-.076.092-.151-.012-.012-.027-.012-.031 0-.075.05t-.088.05q-.022 0-.043-.012-.066-.038-.057-.104.01-.065.038-.065.028 0 .019.056-.01.056.028.066h.01q.033 0 .074-.057.047-.065.085-.065l.018.028q.019.027.02.064.045-.037.112-.073-.207-.489-.413-.695-.094-.056-.197-.056-.104 0-.216.056-.225.112-.47.15v-.094q.17 0 .385-.14.13-.085.27-.085.093 0 .19.037l-.112-.131q-.082-.004-.156-.004zm-.974-.755q-.402 0-.851.168-.63.234-.63 1.398t.114 2.873h.957q.132-1.99.038-2.31-.282-.356-.291-.77-.01-.412.206-.506.108-.047.228-.047.12 0 .25.047.076-.338.958-.357-.131-.375-.666-.47-.153-.026-.313-.026zm.623 3.444q-.24.253-.5.253-.087 0-.176-.028-.019.113-.075.883.826-.057 1.032-.338l-.281-.77zm.413 1.201q-.394.244-.93.263-.066.003-.13.003-.438 0-.668-.115h-.281v2.89q-.075 3.474 1.239 3.512h4.375q.638.075.732.676.169 1.051.516 1.915.347.863.685 1.99l-.018.638q-.432.789.225.92h2.384l.02-.018q-1.071-.32-1.625-.742-.554-.423-.723-2.009-.169-1.587-.507-3.295-.037-.976-.75-1.127-.62-.244-1.587-.431-.967-.188-2.657-.3.15-3.23-.3-4.77zm-2.29 6.91l.037.375h4.825q.3 0 .3.657-.056 1.127.113 1.671.169.545.15 1.258-.131.638.141.93.272.29.122.488-.15.197.113.44h.394l-.113-.262h.226l.169.263h.131q0-.244-.441-.507t-.441-1.352q0-1.22.112-1.427.113-.206.057-.77l.056-.713q-.056-1.051-.62-1.051zm-1.747-3.38q-.15 0-.15.188v2.703q.676.733.676 1.559 0 .957-.826 1.54.319.506.319.77-.056 1.22.178 1.51.235.291.085.489-.15.197.112.44h.395l-.113-.262h.225l.17.263h.13q0-.244-.44-.507-.442-.263-.442-1.352l-.056-1.22q1.164-.883 1.164-2.272l-.357-3.642q0-.207-.187-.207zM221.507 0q.237 0 .454.051.639.15.808.488.169.338.262.657.188.244.413.658.113.262 0 .3-.112.037-.262.094.15.075.131.122-.018.046-.163.065.019.01.079.047.103.066.018.113-.084.047-.084.197.019.226-.132.282l.244.695h-.544l-.131-.658h-.17q-.13.188.094.526.62 1.52.76 2.61.142 1.089.067 3.06 1.239.113 2.215.291.976.179 1.784.479.863.32.9 1.483.32 1.671.489 3.126.169 1.455.648 1.906.478.45 1.492.788.564.15.545.62H228.1q-.545-.056-.61-.329-.066-.272.075-.6.14-.329.16-.704.018-.376-.489-1.765-.563-1.09-.629-1.83-.009-.097-.021-.184.002.152-.007.324l-.056.713q.056.564-.057.77-.112.207-.112 1.427 0 .826.394 1.108.544.338.544.75V18h-1.464q-.263-.47-.094-.901 0-.32-.244-.366-.244-.047-.15-.235t.075-.657q.019-.714-.15-1.258-.17-.545-.113-1.54 0-.431-.282-.45h-4.524q-.132 1.277-1.183 2.253l.019.976q.037.826.413 1.108.544.338.544.75V18h-1.464q-.263-.47-.094-.901 0-.32-.244-.366-.244-.047-.15-.235.093-.188.084-.723-.01-.535-.113-.807-.103-.272-.187-.347-.085-.076-.076-.15.01-.076.104-.15.75-.527.75-1.409 0-.77-.713-1.408V8.406q0-.301.201-.301H219.69q.263 0 .263.32l.3 3.079h.533q-.435-.529-.57-1.84V5.102h-.338q-.15-1.728-.16-3.173-.009-1.446.799-1.737.532-.192.991-.192z"/><path d="M218.646 0l-.75.75v.707l1.28-1.28.178-.177zm3 0l-3.75 3.75v.707l4.28-4.28.178-.177zm3 0l-6.75 6.75v.707l7.28-7.28.178-.177zm3 0l-9.75 9.75v.707l10.28-10.28.178-.177zm3 0l-12.75 12.75v.707l13.28-13.28.178-.177zm.778 2.223L217.896 15.75v.707L231.424 2.93v-.707zm0 3l-12.6 12.6-.178.177h.708l12.07-12.07v-.707zm0 3l-9.6 9.6-.178.177h.708l9.07-9.07v-.707zm0 3l-6.6 6.6-.178.177h.708l6.07-6.07v-.707zm0 3l-3.6 3.6-.178.177h.708l3.07-3.07v-.707zm0 3l-.6.6-.178.177h.708l.07-.07v-.707zM233.447.2l-2.023 2.023v.707l2.023-2.023V.2zm0 3l-2.023 2.023v.707l2.023-2.023V3.2zm0 3l-2.023 2.023v.707l2.023-2.023V6.2zm0 3l-2.023 2.023v.707l2.023-2.023V9.2zm0 3l-2.023 2.023v.707l2.023-2.023V12.2zm0 3l-2.023 2.023v.707l2.023-2.023V15.2zM194.646 0l-.75.75v.707l1.28-1.28.178-.177zm3 0l-3.75 3.75v.707l4.28-4.28.178-.177zm3 0l-6.75 6.75v.707l7.28-7.28.178-.177zm3 0l-9.75 9.75v.707l10.28-10.28.178-.177zm3 0l-12.75 12.75v.707l13.28-13.28.178-.177zm3 0l-15.75 15.75v.707l16.28-16.28.178-.177zm3 0l-17.823 17.823-.177.177h.708L213.177.177l.177-.177zm3 0l-17.823 17.823-.177.177h.708L215.896.457V0zm.25 2.75l-15.073 15.073-.177.177h.708l14.542-14.543V2.75zm0 3l-12.073 12.073-.177.177h.708l11.542-11.543V5.75zm0 3l-9.073 9.073-.177.177h.708l8.542-8.543V8.75zm0 3l-6.073 6.073-.177.177h.708l5.542-5.543v-.707zm0 3l-3.073 3.073-.177.177h.708l2.542-2.543v-.707zM215.896 0v.457l.28-.28.178-.177zm2 .75l-2 2v.707l2-2V.75zm0 3l-2 2v.707l2-2V3.75zm0 3l-2 2v.707l2-2V6.75zm0 3l-2 2v.707l2-2V9.75zm0 3l-2 2v.707l2-2v-.707zm0 3l-2 2V18h.458l1.542-1.543v-.707zM170.646 0l-.75.75v.707l1.28-1.28.178-.177zm3 0l-3.75 3.75v.707l4.28-4.28.178-.177zm3 0l-6.75 6.75v.707l7.28-7.28.178-.177zm3 0l-9.75 9.75v.707l10.28-10.28.178-.177zm3 0l-12.75 12.75v.707l13.28-13.28.178-.177zm3 0l-15.75 15.75v.707l16.28-16.28.178-.177zm3 0l-17.823 17.823-.177.177h.708L189.177.177l.177-.177zm3 0l-17.823 17.823-.177.177h.708L191.896.457V0zm.25 2.75l-15.073 15.073-.177.177h.708l14.542-14.543V2.75zm0 3l-12.073 12.073-.177.177h.708l11.542-11.543V5.75zm0 3l-9.073 9.073-.177.177h.708l8.542-8.543V8.75zm0 3l-6.073 6.073-.177.177h.708l5.542-5.543v-.707zm0 3l-3.073 3.073-.177.177h.708l2.542-2.543v-.707zM191.896 0v.457l.28-.28.178-.177zm2 .75l-2 2v.707l2-2V.75zm0 3l-2 2v.707l2-2V3.75zm0 3l-2 2v.707l2-2V6.75zm0 3l-2 2v.707l2-2V9.75zm0 3l-2 2v.707l2-2v-.707zm0 3l-2 2V18h.458l1.542-1.543v-.707zM164.319 4.845c.947.012 1.816.243 2.472.778.68.54 1.112 1.378 1.105 2.405v5.127h-.704V8.022c0-.838-.316-1.434-.838-1.853-.505-.4-1.215-.62-2.017-.62h-.097c-.796 0-1.513.22-2.017.62-.523.42-.838 1.015-.838 1.853v5.133h-.705V8.028c-.006-1.027.425-1.865 1.105-2.405.657-.535 1.525-.766 2.473-.778zM153.73 1.343q.089.166.199.364l.187 1.091q0 .573-.187 1.07-.199.43-.496.771 1.995-.364 3.593-.54-1.003-.595-1.576-1.323-.584-.727-1.72-1.433zm-4.707-.088q-.606.044-2.039.915-1.433.86-2.954 1.422 1.113.066 2.425.474 1.323.397 2.778.595-.232-.275-.463-.782-.22-.508-.22-1.08 0-.585.209-1.092.11-.243.264-.452zm2.32-.508q-.38 0-.732.155-.375.155-.662.42-.286.253-.463.616-.143.364-.165.783-.022.419.132.783.166.364.42.65.264.298.628.463.363.154.782.165l.054.001q.38 0 .729-.144.375-.154.661-.408.276-.253.441-.617.155-.364.177-.794 0-.408-.155-.771-.143-.364-.397-.65-.264-.298-.628-.442-.364-.198-.772-.21h-.05zm.06-.747q.721 0 1.424.153 1.52.33 3.086 1.973 1.565 1.631 2.745 1.742l.022.771q-2.679.232-5.258.706-.965.177-2.03.177-1.782 0-3.846-.497-3.285-.794-4.166-.96h-1.456v-.947h1.5q1.069-.364 2.866-1.444 1.785-1.08 3.406-1.466.866-.208 1.708-.208zM156.625 15.57L158.68 18h-1.002l-1.053-1.255L155.562 18l-1.033-1.255L153.466 18l-1.053-1.255L151.35 18l-1.053-1.255L149.234 18l-1.033-1.255L147.138 18l-1.063-1.255L145.043 18l-1.063-1.255L142.927 18h-1.003l2.056-2.43 1.063 1.175 1.032-1.175 1.063 1.175 1.063-1.175 1.033 1.175 1.063-1.175 1.053 1.175 1.063-1.175 1.053 1.175 1.063-1.175 1.033 1.175 1.063-1.175zM138.277 0c.336 0 .67.026.995.066.447.113.217.626-.18.626a.476.476 0 01-.082-.008c-.839.097-1.872.15-2.506.626-.84.916-.463 2.821-.56 3.725-.008.05-.01 3.653-.01 5.48a6.145 6.145 0 012.634-.586c.402 0 .801.04 1.188.117.44.231-.077.528-.423.528a.454.454 0 01-.114-.013c-1.226.133-2.62.461-3.243 1.602-.062.206-.023.277.07.277.207 0 .68-.342.947-.342.014 0 .027 0 .04.003a7.535 7.535 0 011.58-.169c.39 0 .776.031 1.149.095.42.278-.096.534-.438.534a.532.532 0 01-.105-.01c-1.252.151-2.637.49-3.243 1.633-.007 1.27 0 2.11-.034 3.278.015.36-.22.538-.456.538-.235 0-.473-.176-.474-.526.008-1.15.09-2.161-.06-3.277-.305-1.253-2.478-1.445-3.827-1.754-.295-.347.285-.475.658-.475.056 0 .107.003.15.008.173-.013.347-.02.522-.02.882 0 1.77.175 2.557.58.032-.755-.712-1.19-1.244-1.493-.84-.361-1.766-.397-2.643-.59-.314-.273.18-.501.52-.501a.58.58 0 01.126.012c.215-.02.431-.031.648-.031.902 0 1.804.183 2.614.582-.017-2.851-.063-5.61.019-8.308.066-.834.546-1.6 1.354-1.849.58-.264 1.227-.358 1.871-.358zM120.648.601c-1.074 0-2.418.552-3.069 1.202-.569.57-.643 1.324-.664 2.025h7.435c-.021-.7-.096-1.455-.665-2.025-.65-.65-1.963-1.202-3.037-1.202zm0-.601c1.274 0 2.645.589 3.449 1.392.824.824.917 1.91.917 2.72v.317h-8.732v-.316c0-.812.062-1.897.886-2.72C117.97.588 119.374 0 120.648 0zM126.97 15.57l2.056 2.43h-1.002l-1.053-1.255L125.908 18l-1.033-1.255L123.812 18l-1.053-1.255L121.696 18l-1.053-1.255L119.58 18l-1.033-1.255L117.484 18l-1.063-1.255L115.39 18l-1.063-1.255L113.273 18h-1.003l2.056-2.43 1.063 1.175 1.032-1.175 1.063 1.175 1.063-1.175 1.033 1.175 1.063-1.175 1.053 1.175 1.063-1.175 1.053 1.175 1.063-1.175 1.033 1.175 1.063-1.175zM108.195 1.124q-2.015.293-2.106 1.842v11.177q.942-1.124 3.382-1.58l-1.276-11.44zM108.762 0l1.508 13.363q-3.36.385-4.18 2.4V18h-1.003V2.966q0-2.51 3.675-2.966zM101.012 1.124q-2.015.293-2.106 1.842v11.177q.941-1.124 3.381-1.58l-1.275-11.44zM101.579 0l1.508 13.363q-3.361.385-4.181 2.4V18h-1.002V2.966q0-2.51 3.675-2.966zM86.758.601c-1.074 0-2.419.552-3.07 1.202-.568.57-.643 1.324-.664 2.025h7.435c-.02-.7-.095-1.455-.664-2.025-.65-.65-1.963-1.202-3.037-1.202zm0-.601c1.274 0 2.645.589 3.448 1.392.824.824.918 1.91.918 2.72v.317h-8.732v-.316c0-.812.061-1.897.886-2.72C84.08.588 85.484 0 86.758 0zM86.643 14.915c-.296 0-.475.05-.567.103-.27.172-.141.583-.098.84h1.33c.032-.263.177-.663-.098-.84-.092-.052-.27-.103-.567-.103zm7.39 1.552v.924h1.262v-.924zm-6.556 0v.924h6.252v-.924zm-1.52 0v.924h1.216v-.924zm-6.105 0v.924h5.8v-.924zm-1.632 0v.924h1.329v-.924zm11.094-2.476l.43.431-1.44 1.436h7.6V18H77.612v-2.142h7.37l-1.44-1.436.43-.43 1.331 1.326c.08-.804.631-.989 1.34-1.012.757.02 1.222.192 1.34 1.012l1.33-1.327zM70.205.597a2.12 2.12 0 00-.692.109c.03.223.168.569.952.773-.73-.053-1.206-.113-1.452-.307-.089.2-.137.427-.158.556a.297.297 0 01-.206.237c-.625.191-1.174 1.112-1.701 1.763-.95 1.173-1.77 2.48-2.687 3.733.423-.207.845-.415 1.27-.622 1.181-.622 2.394-1.11 3.406-1.877.59-.49 1.172-.996 1.391-1.641.076-.497-.296-1.074-.767-1.279a.297.297 0 11.238-.545c.376.164.699.458.903.817a1.986 1.986 0 00-.074-.448.297.297 0 01-.013-.104c.01-.184.041-.313.082-.422.04-.109.085-.206.158-.459a.297.297 0 01.104-.153 1.546 1.546 0 00-.527-.125C70.389.6 70.349.6 70.307.599a.258.258 0 11-.102-.002zM69.01 6.029c-.605.466-1.253.873-1.888 1.28.005.438-.006.879-.047 1.321.207-.135.434-.236.697-.3.391-.636.82-1.22 1.083-1.842.054-.129.105-.29.155-.46zm.249 1c-.273.549-.622 1.04-.929 1.529.06.04.112.08.155.121l.027.027c.169-.194.375-.351.614-.454-.01-.348.047-.768.133-1.222zm-2.88.047a25.922 25.922 0 00-.588.297c-.78.38-1.56.772-2.35 1.148-.556.67-1.156 1.293-1.734 1.92l1.043.175 2.563-2.786a.297.297 0 01.04-.036c.333-.253.678-.489 1.025-.718zm2.591 2.009c-.058.066-.112.14-.162.222a.298.298 0 01-.429.087c-.125-.09-.2-.177-.265-.244l-.078 1.413c.1-.006.202-.013.297-.013.166 0 .313.022.397.108.1-.078.28-.1.505-.1.057 0 .118.002.18.005l-.445-1.478zm5.419.999c-.452.062-.686.323-.704.783h1.395c0-.46-.23-.721-.691-.783zm-7.861-2.39c-.274.182-.542.367-.798.56l-2.402 2.613h2.456c.17-.19.518-.365.776-.365.073 0 .139.014.191.046.082-.007.168-.01.257-.01.139 0 .285.007.433.016l.083-1.506c-.225.115-.407.282-.626.542a.297.297 0 01-.52-.246c.101-.544.142-1.093.15-1.65zm6.24 3.745l.266.465h1.248l.253-.465zm-4.516 0v2.51l1.727-2.51zM70.197 0a3.878 3.878 0 01.273.01c.694.044 1.215.325 1.407.768a.298.298 0 01-.34.408l-.025-.006-.03.007-.108.029c-.054.168-.096.269-.12.332a.541.541 0 00-.042.2c.155.552.094 1.107.037 1.389-.095.466-.384.977-.762 1.46a.295.295 0 01-.013.108c-.183.559-.396 1.318-.548 2.027-.153.708-.234 1.387-.193 1.684a.297.297 0 01-.223.33l-.018.005.527 1.75c.085-.013.172-.018.259-.018.256 0 .51.041.712.041a.865.865 0 00.184-.016.314.314 0 01.068-.007c.212 0 .656.13.787.366h1.099c.062-.797.482-1.235 1.262-1.315.788.08 1.195.518 1.222 1.315v.572h-.531l-.545 1.01h-1.767l-.531-1.01h-1.567l-2.404 3.493V18h-.572v-6.561H63.18v-.41l-.1.109a.297.297 0 01-.267.092l-1.74-.292a.298.298 0 01-.173-.492c.217-.242.436-.48.656-.716l-1.656 1.078a.296.296 0 01-.412-.087.297.297 0 01.087-.411l1.345-.876a.292.292 0 01-.076-.09.315.315 0 01-.02-.237c.016-.05.034-.074.047-.093.056-.076.085-.088.124-.119.04-.03.083-.06.131-.094l.3-.2a4.156 4.156 0 00.217-.156l2.379-1.672.008-.005c.805-1.13 1.567-2.316 2.456-3.414.433-.535.938-1.524 1.813-1.894.048-.262.156-.68.483-.997.353-.344.864-.463 1.416-.463zM57.443 0v1.21H50.88V0zm0 8.32v1.21H50.9V8.32zm0 8.47V18H50.9v-1.21zM46.556 0q2.323 0 2.323 2.232V18h-1.072V2.232q0-1.16-1.25-1.16-1.262 0-1.262 1.16v10.492h-1.071V2.232Q44.224 0 46.556 0zM39.988 0l2.236 2.643h-1.09l-1.146-1.366-1.156 1.366-1.123-1.366-1.156 1.366-1.145-1.366-1.157 1.366-1.145-1.366-1.156 1.366-1.123-1.366-1.156 1.366-1.156-1.366-1.124 1.366-1.156-1.366-1.145 1.366H24L26.235 0l1.156 1.277L28.515 0l1.156 1.277L30.827 0l1.123 1.277L33.106 0l1.145 1.277L35.408 0l1.145 1.277L37.709 0l1.123 1.277L39.988 0zM42.224 10.67V18h-1.226v-7.33zm-8.424.01V18h-1.225v-7.32zm-8.575 0V18H24v-7.32zM2.646 0L0 2.646v.708L3.177.177 3.354 0zm3 0L0 5.646v.708L6.177.177 6.354 0zm3 0L0 8.646v.708L9.177.177 9.354 0zM0 9.354zM11.646 0L0 11.646v.708L12.177.177 12.354 0zm3 0L0 14.646v.708L15.177.177 15.354 0zm3 0L0 17.646V18h.354L18.177.177 18.354 0zm3 0L2.823 17.823 2.646 18h.708L21.177.177 21.354 0zM22 1.646L5.823 17.823 5.646 18h.708L22 2.354v-.708zm0 3L8.823 17.823 8.646 18h.708L22 5.354v-.708zm0 3L11.823 17.823l-.177.177h.708L22 8.354v-.708zm0 3l-7.177 7.177-.177.177h.708L22 11.354v-.708zm0 3l-4.177 4.177-.177.177h.708L22 14.354v-.708zm0 3l-1.177 1.177-.177.177h.708l.646-.646v-.708z"/></svg>