<svg xmlns="http://www.w3.org/2000/svg" width="296.903" height="18"><path d="M295.256 0c.335 0 .67.026.994.066.448.113.218.626-.18.626a.476.476 0 0 1-.081-.008c-.84.097-1.872.15-2.506.626-.841.916-.463 2.821-.561 3.725-.007.05-.01 3.653-.01 5.48a6.145 6.145 0 0 1 2.634-.586c.402 0 .802.04 1.188.117.441.231-.076.528-.422.528a.454.454 0 0 1-.115-.013c-1.226.133-2.62.461-3.243 1.602-.061.206-.023.277.07.277.207 0 .68-.342.947-.342.014 0 .028 0 .04.003a7.535 7.535 0 0 1 1.58-.169 6.8 6.8 0 0 1 1.149.095c.42.278-.096.534-.438.534a.532.532 0 0 1-.105-.01c-1.251.151-2.636.49-3.243 1.633-.007 1.27 0 2.11-.034 3.278.015.36-.219.538-.456.538-.235 0-.473-.176-.474-.526.009-1.15.09-2.161-.06-3.277-.304-1.253-2.477-1.445-3.827-1.754-.295-.347.285-.475.659-.475.055 0 .106.003.15.008a6.93 6.93 0 0 1 .52-.02c.883 0 1.772.175 2.558.58.032-.755-.711-1.19-1.244-1.493-.84-.361-1.765-.397-2.643-.59-.313-.273.18-.501.521-.501a.58.58 0 0 1 .125.012 7.01 7.01 0 0 1 .648-.031c.902 0 1.804.183 2.614.582-.016-2.851-.063-5.61.02-8.308.065-.834.545-1.6 1.354-1.849.58-.264 1.227-.358 1.87-.358zM271.26 2.99q-.556 0-1.086.606 4.369 5.2 5.46 5.81.815.457 1.435.457.21 0 .399-.053.74-.208 1.586-.234h.042q.828 0 1.817.988h.13q-.702-1.638-1.963-2.34-1.261-.702-7.397-5.148-.213-.085-.422-.085zm7.732-2.369q-.066 0-.133.01v6.683q2.054 1.196 2.834 3.354-1.196-8.268-1.677-9.204-.433-.843-1.024-.843zm5.355 10.468q.081 0 .154.138.13.247-.234.689-.208-.546-.052-.741.069-.086.132-.086zm-.036-.372q-.153 0-.33.237-.39.52.234 2.08.702-1.352.429-1.976-.15-.34-.333-.34zm-6.804 2.577v.39q.286-.026.442-.182-.052-.078-.208-.208zm-.598.884l-2.418.338-.494.884q.832-.234 1.833-.624 1-.39 1.079-.598zm5.33-.364l-.468.234-.156 1.118.416 1.274h.65l-.442-1.274v-1.352zm-1.118.39l-.442.13-.156.832.416 1.274h.65l-.442-1.274-.026-.962zm-1.534.156l-.156.806.416 1.274h.65l-.442-1.274v-.78l-.468-.026zm.994-3.234q-.415 0-.89.1-1.404.3-1.768 1.418h-1.092l-.416-.676q-5.513 1.274-6.215 4.602 1.509-.832 3.173-1.118l.728-1.456 2.886-.39-.078-.702h.988q1.092.9 2.228.9.243 0 .489-.042 1.39-.234 1.82-.95.429-.714-.455-1.3-.585-.386-1.398-.386zM278.735 0q.948 0 1.489.658.663.806 1.235 4.238l.91 5.954q.442.468.676.52h.312q.026-.65.494-1.196.416-3.978-.364-6.968l.312-.598q1.118 3.38.546 7.592h.078q1.794-4.03.52-7.592l.312-.468q1.664 3.796-.364 8.242.572 1.248.117 2.054-.455.806-.56 1.508l-.181.13q-.702-1.04-.806-1.794h-.26q-.026.598-.338 1.248l-.182 1.638.442 1.274h2.262v.624h-6.526v-.624h.546l-.416-1.274-.026-.962q-.468-.156-.702-.364-.338.312-.754.312.026.26-.104.442-1.04.806-3.718 1.404l-.91 1.768q0-.434-.27-.434-.086 0-.198.044l.728-1.3q-1.508.338-2.289.858-.416.442.052 1.066-1.04-.442-1.17-1.248.416-3.926 7.047-5.46l.468.78h.416q.338-1.092 2.678-1.508-.522-.388-1.285-.388-.414 0-.9.115-.491.116-.96.116-.845 0-1.613-.376-1.196-.585-6.085-6.461.901-1.136 1.906-1.136.328 0 .669.122l6.318 4.524V.034q.234-.034.448-.034z"/><path d="M259.894.375c9.625 0 9.625 17.25 0 17.25" fill="none" stroke="#000"/><path d="M253.673 7.938c.681.054 1.057.394 1.13 1.022-.09.68-.467 1.04-1.13 1.075-.663-.036-1.013-.394-1.049-1.075.054-.628.403-.968 1.049-1.022zm-.08-2.259c-.485 0-.933.09-1.345.27a3.545 3.545 0 0 0-1.828 1.815 3.11 3.11 0 0 0-.27 1.276c0 .466.09.901.27 1.304.179.404.425.758.739 1.063a3.422 3.422 0 0 0 2.433.968c.484 0 .937-.086 1.358-.256a3.26 3.26 0 0 0 1.09-.712c.304-.305.546-.66.725-1.063.18-.403.269-.838.269-1.304 0-.448-.09-.874-.269-1.277a3.67 3.67 0 0 0-.726-1.075 3.302 3.302 0 0 0-1.089-.74 3.431 3.431 0 0 0-1.358-.269zm.053-.914c.592 0 1.147.112 1.667.336.52.224.968.529 1.345.914.376.386.676.834.9 1.345.224.51.336 1.062.336 1.653 0 .592-.112 1.143-.336 1.654a4.31 4.31 0 0 1-.9 1.331 4.267 4.267 0 0 1-3.012 1.237 4.071 4.071 0 0 1-1.654-.336 4.48 4.48 0 0 1-1.344-.9 4.195 4.195 0 0 1-.914-1.332 4.071 4.071 0 0 1-.337-1.654c0-.591.112-1.142.337-1.653a4.358 4.358 0 0 1 2.258-2.259 4.071 4.071 0 0 1 1.654-.336zM243.303.434c-1.581 0-2.924 1.18-3.398 2.35l1.441.212c.361-.716 1.088-1.118 2.052-1.118h.024c.931.007 1.661.481 1.921 1.118l1.419-.323c-.615-1.313-2.036-2.231-3.441-2.24h-.018zm.025 2.603c-.581 0-.877.364-.877 1.064 0 .634.296 1.313.877 2.066.581-.753.876-1.432.876-2.066 0-.7-.295-1.064-.876-1.064zm0 4.946c-.478.702-.634 1.864 0 3.036.411-.911.548-2.03 0-3.036zm0-7.983c.885 0 1.695.268 2.442.783.746.515 1.297 1.337 1.627 2.473l-1.91.125c.04.211.063.443.063.72 0 .858-.475 1.828-1.44 2.911.384.74.673 1.387.658 2.254.031 1.31-.316 1.746-.751 2.974l2.535 5.76h-1.315l-1.91-4.758L241.45 18h-1.346l2.535-5.76c-.436-1.228-.735-1.63-.72-2.974-.015-.867.261-1.514.658-2.254-.978-1.083-1.472-2.053-1.472-2.911 0-.277.041-.509.094-.72l-1.91-.125c.33-1.136.844-1.958 1.597-2.473.753-.515 1.57-.783 2.442-.783zm-8.547.696q-.927 0-.927 1.222 0 1.075.927 2.129.928-1.054.928-2.129 0-1.222-.928-1.222zm0 4.7q-.653 0-.653 1.412 0 .8.653 1.475.654-.674.654-1.475 0-1.412-.654-1.412zm0 4.257q-.653 0-.653 1.413 0 .8.653 1.475.654-.674.654-1.475 0-1.413-.654-1.413zm0-9.653q1.687 0 1.687 1.918.02 1.201-.559 1.886-.58.685-.516.917.737.864.737 2.087 0 1.012-.864 2.17.864.865.864 2.088 0 1.011-.864 2.15-.105.273.59 1.285.696 1.012 1.434 3.499h-.928q-.463-1.644-.822-2.35-.358-.706-.759-1.149-.421.443-.769 1.149-.348.706-.811 2.35h-.949q.696-2.487 1.423-3.499.727-1.012.6-1.286-.843-1.138-.843-2.15 0-1.222.801-2.086-.8-1.16-.8-2.171 0-1.223.716-2.087.063-.232-.506-.917t-.569-1.886q0-1.918 1.707-1.918zm-13.789 7.92c-.297 0-.475.05-.568.103-.269.171-.14.583-.097.84h1.33c.032-.263.177-.664-.098-.84-.092-.053-.27-.103-.567-.103zm7.39 1.551v.924h1.261v-.924zm-6.557 0v.924h6.252v-.924zm-1.52 0v.924h1.217v-.924zm-6.104 0v.924h5.8v-.924zm-1.632 0v.924h1.328v-.924zm11.093-2.475l.43.43-1.439 1.436h7.6v2.142H211.96V8.862h7.37l-1.44-1.435.431-.431 1.33 1.327c.08-.805.632-.99 1.34-1.012.758.02 1.223.191 1.34 1.012l1.331-1.327zM203.34 4.728l.445 1.012q-.952.192-1.357 1.913l-1.539-.394v.961l1.498.426q-.01 1.417.274 2.662.293 1.246 1.326 1.61.516.177 1.038.177.521 0 1.048-.177 1.053-.364 1.336-1.61.294-1.245.263-2.662l1.499-.426v-.96l-1.53.394q-.404-1.72-1.366-1.913l.466-1.012zm4.11-.71q.364 0 .05.71l-.273.617q.81.517 1.012 1.428l1.721-.517v2.562l-1.62.465q0 1.458-.415 2.916-.425 1.458-2.885 1.782-2.46-.324-2.896-1.782-.425-1.458-.425-2.916l-1.62-.465V6.256l1.742.517q.202-.911 1.012-1.428l-.273-.617q-.324-.71.05-.71zM198.1 5.34v7.32h-1.226V5.34zm-5.301-4.216q-2.015.293-2.106 1.842v11.177q.942-1.124 3.382-1.58l-1.276-11.44zM193.366 0l1.508 13.363q-3.36.385-4.18 2.4V18h-1.003V2.966q0-2.51 3.675-2.966zm-22.43.466q-.362 0-.362.379v2.914h1.103l-.362-3.07q-.017-.223-.379-.223zM170.919 0q.88 0 .93.5.363 3.259.777 3.276l8 .293.828-.034q.931-.983 1.656-.983l.534-.034q1.466.275 1.759.275.207 0 .207.276 0 .38-.586.38-1.007-.16-1.545-.16-.097 0-.18.005-.293 0-.482.24.336.417 1.505.417l.184-.002q1.328-.035 2.345-.345.5 0 .5.586-.051.535-3.741.552l-1.638-.172-9.346-.052-2.621.034V.845q.017-.845.914-.845zm14.561 6.88l2.211 2.615h-1.078l-1.133-1.35-1.144 1.35-1.11-1.35-1.144 1.35-1.133-1.35-1.144 1.35-1.132-1.35-1.144 1.35-1.11-1.35-1.144 1.35-1.144-1.35-1.111 1.35-1.144-1.35-1.132 1.35h-1.079l2.211-2.614 1.144 1.263 1.11-1.263 1.145 1.263 1.143-1.263 1.111 1.263 1.144-1.263 1.132 1.263 1.144-1.263 1.133 1.263 1.143-1.263 1.111 1.263 1.144-1.263zm0 4.253l2.211 2.614h-1.078l-1.133-1.35-1.144 1.35-1.11-1.35-1.144 1.35-1.133-1.35-1.144 1.35-1.132-1.35-1.144 1.35-1.11-1.35-1.144 1.35-1.144-1.35-1.111 1.35-1.144-1.35-1.132 1.35h-1.079l2.211-2.614 1.144 1.264 1.11-1.264 1.145 1.264 1.143-1.264 1.111 1.264 1.144-1.264 1.132 1.264 1.144-1.264 1.133 1.264 1.143-1.264 1.111 1.264 1.144-1.264zm0 4.253L187.691 18h-1.078l-1.133-1.35-1.144 1.35-1.11-1.35-1.144 1.35-1.133-1.35-1.144 1.35-1.132-1.35-1.144 1.35-1.11-1.35-1.144 1.35-1.144-1.35L173.02 18l-1.144-1.35-1.132 1.35h-1.079l2.211-2.614 1.144 1.263 1.11-1.263 1.145 1.263 1.143-1.263 1.111 1.263 1.144-1.263 1.132 1.263 1.144-1.263 1.133 1.263 1.143-1.263 1.111 1.263 1.144-1.263zM158.405 7.92c-.297 0-.475.05-.568.103-.269.171-.14.583-.097.84h1.33c.032-.263.177-.664-.098-.84-.092-.053-.27-.103-.567-.103zm7.39 1.551v.924h1.261v-.924zm-6.556 0v.924h6.252v-.924zm-1.52 0v.924h1.216v-.924zm-6.105 0v.924h5.8v-.924zm-1.632 0v.924h1.328v-.924zm11.093-2.475l.43.43-1.439 1.436h7.6v2.142h-18.293V8.862h7.37l-1.439-1.435.43-.431 1.331 1.327c.08-.805.631-.99 1.34-1.012.757.02 1.222.191 1.34 1.012l1.33-1.327zm-19.4-5.204l.152.04q.106-.02.198-.02.09 0 .167.02.151.051.182.112.03.061.101.112l-.05.06-.082-.04q-.063.029-.135.029-.18 0-.411-.181l-.152-.02.03-.112zm-.74-1.449q-.547 0-.768.559-.243.627-.01 1.073.194.356.44.356.062 0 .127-.022.172-.061.1-.172-.14-.132-.04-.345-.1-.324-.02-.475.082-.223.25-.223.062 0 .135.03.131.081.172.172.34-.077.61-.077.335 0 .564.118-.05-.405-.384-.648-.335-.233-1.013-.334-.085-.012-.163-.012zm5.144 5.104q-1.255.79-2.136 1.073l-.435.111q.435.172 2.055.709.172-.152.465-.172l.284-1.58q-.132-.04-.233-.141zm-5.048-4.168q-.086 0-.115.108-.06.173.02.426-.06.192.05.202.02.003.036.003.09 0 .107-.094.05.111-.314.567-.355.466-1.053 1.144-.699.688-.77 3.837l1.408.708q.283-1.873 1.316-3.209.253-.283.131-.536-.131-.243-.87-.638-.365-.152-.101-.365.253-.212.323-.455.173 0 .365.152.318.159.449.159.028 0 .047-.007.111-.041.132-.193l-.152-.152q-.071-.06 0-.111l.303.07q-.05-.262.132-.283.064.041.105.041.05 0 .067-.06.04-.132-.07-.386-.061-.243-.193-.374-.122-.112-.312-.112h-.032q-.071.004-.14.004-.14 0-.275-.014l.02-.111q.076.01.164.01.089 0 .19-.01.047-.005.091-.005.296 0 .446.238.02-.152 0-.213-.256-.178-.614-.178-.25 0-.55.087v.132q-.046.01-.084.01-.038 0-.068-.01 0-.324-.112-.365-.043-.017-.077-.017zm-2.271 6.648q-.587 1.033-.577 1.833.01.8.162 2.57l2.571-.02-.587-3.694-1.57-.689zM140.848 0h.038q.698.02 1.285.365.648.344.628 1.346-.05.274.03.537.071.253.051.516-.043.109-.138.109-.038 0-.085-.018-.047-.02-.075-.02-.069 0-.026.122.04.02.02.07-.013.027-.045.027-.015 0-.036-.006.057.142-.028.142h-.012l-.016-.001q-.076 0-.085.092-.01.11-.122.232-.044.044-.133.044-.137 0-.383-.104l-.365-.193q-.03.091-.131.213.86.263 1.255.972.577.698.941 1.447.871-.253 2.572-.971.152-.213.496-.274l.435-2.338q.132-.73-.344-1.296l.324-.233q.628.537.425 1.64l-.385 2.227.345.02q.04.173-.172.254.04.668-.345.698l-.283 1.549q.223.04.435.07.02.193-.243.254.089.648-.357.648h-.027l-.04.395-.456-.092.09-.415q-.11-.06-.222-.1-2.177-.264-2.693-.78-.698-1.084-1.022-1.68-.709.576-1.165 2.803h.055q.48 0 .431.345-.04.285-.271.285-.065 0-.144-.022l.689 4.16q.607 2.703.88 3.351.152.517.507.618.364.091 1.164.547.445.09.496.243.04.151-.213.182-.052.006-.115.006-.23 0-.604-.087-.19-.04-.416-.04-.339 0-.758.09-.096.02-.177.02-.516 0-.42-.779.04-.567-.658-1.61-.699-1.042-.77-2.47l-.323-.324-1.033-.02-.02.496q-.284 1.944-.304 2.561-.132 1.003.243 1.155.385.141 1.154.597.456.07.516.223.05.151-.212.192-.064.01-.14.01-.232 0-.59-.091-.186-.044-.43-.044-.375 0-.885.105-.119.024-.21.024-.57 0-.134-.915-.03-.952-.213-1.974-.182-1.023.213-2.065l-.203-.274-.121-2.794q-.03-1.205.84-2.693.04-.546.131-1.923.081-1.387.75-2.005.668-.627.739-.759-.375-.263-.496-.688-.132-.436.162-1.185.275-.719.954-.719zm-11.702 4.728l.446 1.012q-.952.192-1.357 1.913l-1.539-.394v.961l1.499.426q-.01 1.417.273 2.662.294 1.246 1.326 1.61.517.177 1.038.177t1.048-.177q1.053-.364 1.336-1.61.294-1.245.264-2.662l1.498-.426v-.96l-1.529.394q-.405-1.72-1.367-1.913l.466-1.012zm4.11-.71q.365 0 .051.71l-.273.617q.81.517 1.013 1.428l1.72-.517v2.562l-1.62.465q0 1.458-.414 2.916-.426 1.458-2.886 1.782-2.46-.324-2.895-1.782-.425-1.458-.425-2.916l-1.62-.465V6.256l1.741.517q.203-.911 1.012-1.428l-.273-.617q-.324-.71.05-.71zm-9.349 1.322v7.32h-1.225V5.34z"/><path d="M112.994.375v17.25m7.688-17.25c-9.625 0-9.625 17.25 0 17.25m0 0" fill="none" stroke="#000"/><path d="M105.025.597a2.12 2.12 0 0 0-.693.109c.032.223.17.569.953.773-.73-.053-1.206-.113-1.452-.307-.089.2-.137.427-.158.556a.297.297 0 0 1-.207.237c-.624.191-1.173 1.112-1.7 1.763-.95 1.173-1.77 2.48-2.687 3.733.422-.207.845-.415 1.27-.622 1.181-.622 2.394-1.11 3.406-1.877.589-.49 1.172-.996 1.391-1.641.076-.497-.297-1.074-.768-1.279a.297.297 0 1 1 .238-.545c.377.164.7.458.904.817a1.986 1.986 0 0 0-.074-.448.297.297 0 0 1-.013-.104c.01-.184.041-.313.082-.422.04-.109.085-.206.158-.459a.297.297 0 0 1 .104-.153 1.546 1.546 0 0 0-.527-.125c-.043-.003-.084-.003-.125-.004a.258.258 0 1 1-.102-.002zm-1.194 5.432c-.606.466-1.253.873-1.888 1.28.005.438-.006.879-.047 1.321.207-.135.434-.236.697-.3.391-.636.82-1.22 1.082-1.842.055-.129.106-.29.156-.46zm.249 1c-.273.549-.622 1.04-.929 1.529.06.04.112.08.155.121l.027.027a1.72 1.72 0 0 1 .613-.454c-.009-.348.048-.768.134-1.222zm-2.88.047a25.922 25.922 0 0 0-.589.297c-.78.38-1.56.772-2.349 1.148-.556.67-1.156 1.293-1.734 1.92l1.043.175 2.563-2.786a.297.297 0 0 1 .04-.036c.332-.253.677-.489 1.025-.718zm2.591 2.009c-.058.066-.112.14-.162.222a.298.298 0 0 1-.429.087c-.125-.09-.2-.177-.265-.244l-.078 1.413c.1-.006.202-.013.296-.013.167 0 .314.022.398.108.1-.078.28-.1.504-.1.058 0 .118.002.181.005l-.445-1.478zm5.419.999c-.452.062-.687.323-.704.783h1.394c0-.46-.23-.721-.69-.783zm-7.861-2.39a16.38 16.38 0 0 0-.798.56l-2.403 2.613h2.457c.17-.19.518-.365.776-.365.073 0 .139.014.191.046.082-.007.168-.01.257-.01.139 0 .285.007.433.016l.083-1.506c-.225.115-.407.282-.626.542a.297.297 0 0 1-.52-.246 9.773 9.773 0 0 0 .15-1.65zm6.24 3.745l.266.465h1.248l.253-.465zm-4.516 0v2.51l1.727-2.51zM105.017 0a3.878 3.878 0 0 1 .273.01c.694.044 1.215.325 1.407.768a.298.298 0 0 1-.34.408l-.025-.006-.03.007-.108.029c-.054.168-.096.269-.12.332a.541.541 0 0 0-.042.2c.154.552.094 1.107.037 1.389-.096.466-.384.977-.762 1.46a.295.295 0 0 1-.014.108 21.85 21.85 0 0 0-.548 2.027c-.152.708-.233 1.387-.192 1.684a.297.297 0 0 1-.223.33l-.018.005.527 1.75c.085-.013.172-.018.259-.018.256 0 .51.041.712.041a.865.865 0 0 0 .183-.016.314.314 0 0 1 .069-.007c.212 0 .656.13.786.366h1.1c.062-.797.482-1.235 1.262-1.315.788.08 1.195.518 1.222 1.315v.572h-.532l-.544 1.01h-1.767l-.531-1.01h-1.567l-2.404 3.493V18h-.572v-6.561H98v-.41l-.1.109a.297.297 0 0 1-.267.092l-1.74-.292a.298.298 0 0 1-.173-.492c.216-.242.436-.48.656-.716l-1.656 1.078a.296.296 0 0 1-.412-.087.297.297 0 0 1 .087-.411l1.345-.876a.292.292 0 0 1-.077-.09.315.315 0 0 1-.02-.237.305.305 0 0 1 .048-.093c.056-.076.084-.088.124-.119l.13-.094c.096-.065.207-.137.302-.2a4.156 4.156 0 0 0 .216-.156l2.378-1.672.008-.005c.806-1.13 1.568-2.316 2.457-3.414.433-.535.938-1.524 1.813-1.894.048-.262.156-.68.483-.997.353-.344.864-.463 1.416-.463zM90.83 7.458v1.656c.565 0 .848-.283.848-.848 0-.539-.283-.808-.849-.808zM88.733 0c.464 0 .856.116 1.176.35.613.443.92 1.09.92 1.938v4.584c.942 0 1.42.465 1.433 1.394 0 .942-.478 1.413-1.434 1.413V18h-.746V2.732c0-1.023-.199-1.68-.596-1.969-.206-.15-.476-.225-.838-.225-.337 0-.754.065-1.273.195a.65.65 0 0 1-.212.043c-.111 0-.189-.048-.232-.144-.014-.162.107-.276.363-.343C87.834.096 88.313 0 88.735 0zm-8.167.601c-1.074 0-2.419.552-3.07 1.202-.568.57-.643 1.324-.664 2.025h7.435c-.02-.7-.095-1.455-.664-2.025-.65-.65-1.963-1.202-3.037-1.202zm0-.601c1.274 0 2.645.589 3.448 1.392.824.824.918 1.91.918 2.72v.317H76.2v-.316c0-.812.061-1.897.885-2.72C77.89.588 79.291 0 80.565 0zm1.186 9.627c5.439 1.9 2.904 9.54-2.195 8.228-5.054-1.302-4.045-9.318 2.195-8.228m-.243.698c-5.417-.787-5.639 5.768-1.707 6.812 3.846 1.022 6.482-5.13 1.707-6.812m-1.188 1.152c-1.082-.74.885-.487 0-.018v.018m1.985.433c-1.227-.397.343-.795 0-.073v.073m-2.993-.712v.732l-.73-.244.73-.488m3.571 2.066c-.903-.795.596-.885.109-.09l-.109.09m-2.838-.846l.243.731-.732-.487.489-.244m1.051.358l.072-.017c.668-.489 1.39 1.767-.072.017m-3.014-.397c.957.56-.162.703-.253.703l.253-.703m2.938 1.502l-.244.244-.488-.732.732.488m-1.674-.474l.469.019c-.56.866-.758.793-.47-.019m3.682 1.517c-.884-.74.433-.632.415-.488l-.415.488m-1.01-.903l-.221.305c-.718-.215-.34-.792.22-.305m-3.434.836l-.245.244-.487-.732.732.488m1.323.012c.758-.378.92-.27.47.344l-.47-.344m2.578.72l-.244.731-.488-.732h.732m-3.245-.465l.45.54c-.107.217-1.1.145-.45-.54m1.538.71l.244.731h-.732l.488-.732zM70.622 4.845c.947.012 1.816.243 2.472.778.68.54 1.112 1.378 1.106 2.405v5.127h-.705V8.022c0-.838-.316-1.434-.838-1.853-.505-.4-1.215-.62-2.017-.62h-.097c-.796 0-1.513.22-2.017.62-.522.42-.838 1.015-.838 1.853v5.133h-.705V8.028c-.006-1.027.425-1.865 1.106-2.405.656-.535 1.524-.766 2.472-.778zM59.46 18.048c-2.598 0-2.598-3.896 0-3.896 2.596 0 2.596 3.896 0 3.896zM51.983 0v7.35h-.735V0zm-4.37 0v7.35h-.736V0zm-4.371 0v7.35h-.735V0zm-4.37 0v7.35h-.736V0zm13.111 10.65V18h-.735v-7.35zm-4.37 0V18h-.736v-7.35zm-4.371 0V18h-.735v-7.35zm-4.37 0V18h-.736v-7.35zm-8.26 7.398c-2.597 0-2.597-3.896 0-3.896 2.598 0 2.598 3.896 0 3.896zM19.522 0c.957.012 1.835.245 2.498.785.687.546 1.122 1.393 1.116 2.43v5.179h-.712V3.209c0-.847-.319-1.448-.846-1.871-.51-.405-1.227-.626-2.037-.626h-.099c-.803 0-1.527.22-2.037.626-.527.423-.846 1.024-.846 1.871v5.185h-.712V3.215c-.006-1.037.43-1.884 1.117-2.43.662-.54 1.54-.773 2.497-.785zm0 9.606c.957.012 1.835.246 2.498.785.687.547 1.122 1.393 1.116 2.43V18h-.712v-5.185c0-.847-.319-1.448-.846-1.871-.51-.405-1.227-.626-2.037-.626h-.099c-.803 0-1.527.22-2.037.626-.527.423-.846 1.024-.846 1.871V18h-.712v-5.179c-.006-1.037.43-1.883 1.117-2.43.662-.54 1.54-.773 2.497-.785zM13.847 0v7.35h-.735V0zm-4.37 0v7.35H8.74V0zM5.105 0v7.35H4.37V0zM.736 0v7.35H0V0zm13.111 10.65V18h-.735v-7.35zm-4.37 0V18H8.74v-7.35zm-4.371 0V18H4.37v-7.35zm-4.37 0V18H0v-7.35z"/></svg>