<svg xmlns="http://www.w3.org/2000/svg" width="255.509" height="18"><path d="M253.862 0c.336 0 .67.026.995.066.447.113.217.626-.18.626a.476.476 0 0 1-.082-.008c-.839.097-1.872.15-2.506.626-.84.916-.463 2.821-.56 3.725-.008.05-.01 3.653-.01 5.48a6.145 6.145 0 0 1 2.634-.586c.402 0 .801.04 1.188.117.44.231-.077.528-.423.528a.454.454 0 0 1-.114-.013c-1.226.133-2.62.461-3.243 1.602-.062.206-.023.277.07.277.207 0 .68-.342.947-.342.014 0 .027 0 .04.003a7.535 7.535 0 0 1 1.58-.169c.39 0 .776.031 1.149.095.42.278-.096.534-.438.534a.532.532 0 0 1-.105-.01c-1.252.151-2.637.49-3.243 1.633-.007 1.27 0 2.11-.034 3.278.015.36-.219.538-.456.538-.235 0-.473-.176-.474-.526.008-1.15.09-2.161-.06-3.277-.305-1.253-2.478-1.445-3.827-1.754-.295-.347.285-.475.658-.475.056 0 .107.003.15.008.173-.013.347-.02.522-.02.882 0 1.77.175 2.557.58.032-.755-.712-1.19-1.244-1.493-.84-.361-1.766-.397-2.643-.59-.314-.273.18-.501.52-.501a.58.58 0 0 1 .126.012c.215-.02.431-.031.648-.031.902 0 1.804.183 2.614.582-.017-2.851-.063-5.61.019-8.308.066-.834.546-1.6 1.354-1.849.58-.264 1.227-.358 1.871-.358z"/><path d="M248.646 0l-2.035 2.036v.707l2.566-2.566.177-.177zm3 0l-5.035 5.036v.707l5.566-5.566.177-.177zm3 0l-8.035 8.036v.707l8.566-8.566.177-.177zm.863 2.137l-8.898 8.899v.707l8.898-8.899v-.707zm0 3l-8.898 8.899v.707l8.898-8.899v-.707zm0 3l-8.898 8.899v.707l8.898-8.899v-.707zm0 3l-6.686 6.686-.177.177h.708l6.155-6.156v-.707zm0 3l-3.686 3.686-.177.177h.708l3.155-3.156v-.707zm0 3l-.686.686-.177.177h.708l.155-.156v-.707zM257.544.102l-2.035 2.035v.707L257.544.81V.102zm0 3l-2.035 2.035v.707l2.035-2.035v-.707zm0 3l-2.035 2.035v.707l2.035-2.035v-.707zm0 3l-2.035 2.035v.707l2.035-2.035v-.707zm0 3l-2.035 2.035v.707l2.035-2.035v-.707zm0 3l-2.035 2.035v.707l2.035-2.035v-.707zM229.868 2.99q-.557 0-1.087.606 4.368 5.2 5.46 5.81.815.457 1.434.457.211 0 .4-.053.74-.208 1.585-.234h.043q.828 0 1.816.988h.13q-.702-1.638-1.963-2.34-1.26-.702-7.397-5.148-.213-.085-.421-.085zm7.73-2.369q-.065 0-.133.01v6.683q2.054 1.196 2.834 3.354-1.196-8.268-1.677-9.204Q238.19.62 237.6.62zm5.356 10.468q.08 0 .154.138.13.247-.234.689-.208-.546-.052-.741.068-.086.132-.086zm-.036-.372q-.153 0-.33.237-.39.52.234 2.08.702-1.352.429-1.976-.15-.34-.333-.34zm-6.805 2.577v.39q.286-.026.442-.182-.052-.078-.208-.208zm-.598.884l-2.418.338-.494.884q.832-.234 1.833-.624t1.08-.598zm5.33-.364l-.468.234-.156 1.118.416 1.274h.65l-.442-1.274v-1.352zm-1.118.39l-.442.13-.156.832.416 1.274h.65l-.442-1.274-.026-.962zm-1.534.156l-.156.806.416 1.274h.65l-.442-1.274v-.78l-.468-.026zm.995-3.234q-.416 0-.89.1-1.405.3-1.769 1.418h-1.092l-.416-.676q-5.512 1.274-6.214 4.602 1.508-.832 3.172-1.118l.728-1.456 2.886-.39-.078-.702h.988q1.092.9 2.228.9.244 0 .49-.042 1.39-.234 1.82-.95.428-.714-.456-1.3-.585-.386-1.397-.386zM237.342 0q.948 0 1.488.658.663.806 1.235 4.238l.91 5.954q.442.468.676.52h.312q.026-.65.495-1.196.416-3.978-.365-6.968l.313-.598q1.118 3.38.546 7.592h.078q1.794-4.03.52-7.592l.312-.468q1.664 3.796-.364 8.242.572 1.248.117 2.054-.455.806-.56 1.508l-.181.13q-.703-1.04-.807-1.794h-.26q-.026.598-.338 1.248l-.182 1.638.442 1.274h2.263v.624h-6.527v-.624h.546l-.416-1.274-.026-.962q-.468-.156-.702-.364-.338.312-.754.312.026.26-.104.442-1.04.806-3.718 1.404l-.91 1.768q0-.434-.27-.434-.085 0-.198.044l.728-1.3q-1.508.338-2.288.858-.416.442.052 1.066-1.04-.442-1.17-1.248.416-3.926 7.046-5.46l.468.78h.416q.338-1.092 2.678-1.508-.522-.388-1.284-.388-.414 0-.9.115-.492.116-.96.116-.845 0-1.614-.376-1.196-.585-6.084-6.461.901-1.136 1.905-1.136.33 0 .67.122l6.317 4.524V.034q.235-.034.449-.034z"/><path d="M230.646 0l-2.645 2.645v.707l3.176-3.175.177-.177zm3 0l-5.645 5.645v.707l6.176-6.175.177-.177zm3 0l-8.645 8.645v.707l9.176-9.175.177-.177zm3 0l-11.645 11.645v.707L240.177.177l.177-.177zm3 0l-14.645 14.645v.707L243.177.177l.177-.177zm1.965 1.036L228 17.646V18h.353L244.61 1.743v-.707zm0 3l-13.788 13.787-.177.177h.708L244.61 4.743v-.707zm0 3l-10.788 10.787-.177.177h.708L244.61 7.743v-.707zm0 3l-7.788 7.787-.177.177h.708l7.257-7.257v-.707zm0 3l-4.788 4.787-.177.177h.708l4.257-4.257v-.707zm0 3l-1.788 1.787-.177.177h.708l1.257-1.257v-.707zM245.646 0l-1.035 1.036v.707l1.566-1.566.177-.177zm1.071 1.93l-2.106 2.106v.707l2.106-2.107V1.93zm0 3l-2.106 2.106v.707l2.106-2.107V4.93zm0 3l-2.106 2.106v.707l2.106-2.107V7.93zm0 3l-2.106 2.106v.707l2.106-2.107v-.707zm0 3l-2.106 2.106v.707l2.106-2.107v-.707zm0 3l-.894.893-.177.177h.708l.363-.364v-.707z"/><path d="M218.501.375c9.625 0 9.625 17.25 0 17.25" fill="none" stroke="#000"/><path d="M173.646 0l-2.145 2.145v.707l2.676-2.675.177-.177zm3 0l-5.145 5.145v.707l5.676-5.675.177-.177zm3 0l-8.145 8.145v.707l8.676-8.675.177-.177zm3 0l-11.145 11.145v.707L183.177.177l.177-.177zm3 0l-14.145 14.145v.707L186.177.177l.177-.177zm3 0l-17.145 17.145v.707L189.177.177l.177-.177zm3 0l-17.823 17.823-.177.177h.708L192.177.177l.177-.177zm3 0l-17.823 17.823-.177.177h.708L195.177.177l.177-.177zm3 0l-17.823 17.823-.177.177h.708L198.177.177l.177-.177zm3 0l-17.823 17.823-.177.177h.708L201.177.177l.177-.177zm3 0l-17.823 17.823-.177.177h.708L204.177.177l.177-.177zm3 0l-17.823 17.823-.177.177h.708L207.177.177l.177-.177zm3 0l-17.823 17.823-.177.177h.708L210.177.177l.177-.177zm3 0l-17.823 17.823-.177.177h.708L213.177.177l.177-.177zm3 0l-17.823 17.823-.177.177h.708L216.177.177l.177-.177zm3 0l-17.823 17.823-.177.177h.708L219.177.177l.177-.177zm3 0l-17.823 17.823-.177.177h.708L222.177.177l.177-.177zm3 0l-17.823 17.823-.177.177h.708L225.177.177l.177-.177zm1.355 1.645l-16.178 16.178-.177.177h.708L226 2.352v-.707zm0 3l-13.178 13.178-.177.177h.708L226 5.352v-.707zm0 3l-10.178 10.178-.177.177h.708L226 8.352v-.707zm0 3l-7.178 7.178-.177.177h.708L226 11.352v-.707zm0 3l-4.178 4.178-.177.177h.708L226 14.352v-.707zm0 3l-1.178 1.178-.177.177h.708l.647-.648v-.707z"/><path d="M227.646 0l-1.645 1.645v.707l2.176-2.175.177-.177zm1.022 1.979L226 4.645v.707l2.667-2.666v-.707zm0 3L226 7.645v.707l2.667-2.666v-.707zm0 3L226 10.645v.707l2.667-2.666v-.707zm0 3L226 13.645v.707l2.667-2.666v-.707zm0 3L226 16.645v.707l2.667-2.666v-.707zm0 3l-.845.844-.177.177h.708l.314-.314v-.707zM168.5 2.196q.121 0 .289.147.661.89.712 2.544-.203 1.298-.916 3.665.255 1.908.382 5.242.102 1.12-.611 1.45-2.112.56-5.344.56-3.257 0-5.344-.56-.738-.33-.636-1.45.127-3.334.382-5.242-.713-2.367-.916-3.665.05-1.654.712-2.544.168-.147.288-.147.172 0 .247.3-.178.508-.331.992-.204.61-.153 1.145.051.865.166 1.412.114.547.47.547l.038.002q.599 0 .599-1.605 0-.585-.153-1.425.131-.223.282-.223.143 0 .303.198.076.61.102 1.348.102 1.12-.534 3.156.229 2.875.229 5.75 1.73.28 4.25.357 2.493-.076 4.223-.356 0-2.876.23-5.751-.637-2.036-.535-3.156.025-.738.102-1.348.16-.198.303-.198.151 0 .282.223-.153.84-.153 1.425 0 1.605.6 1.605l.037-.002q.356 0 .47-.547.115-.547.166-1.412.05-.535-.153-1.145-.153-.484-.33-.993.074-.299.246-.299z"/><path d="M158.646 9l-2.148 2.149v.707l2.679-2.68.177-.176zm3 0l-5.148 5.149v.707l5.679-5.68.177-.176zm3 0l-8.148 8.149v.707l8.679-8.68.177-.176zm3 0l-8.823 8.823-.177.177h.708l8.823-8.823.177-.177zm1.855 1.145l-7.678 7.678-.177.177h.708l7.147-7.148v-.707zm0 3l-4.678 4.678-.177.177h.708l4.147-4.148v-.707zm0 3l-1.678 1.678-.177.177h.708l1.147-1.148v-.707z"/><path d="M146.81.375v17.25m7.688-17.25c-9.625 0-9.625 17.25 0 17.25m0 0" fill="none" stroke="#000"/><path d="M139.34.597a2.12 2.12 0 0 0-.691.109c.03.223.168.569.952.773-.73-.053-1.206-.113-1.452-.307-.089.2-.137.427-.158.556a.297.297 0 0 1-.206.237c-.625.191-1.174 1.112-1.701 1.763-.95 1.173-1.77 2.48-2.687 3.733.423-.207.845-.415 1.27-.622 1.181-.622 2.394-1.11 3.406-1.877.59-.49 1.172-.996 1.391-1.641.076-.497-.296-1.074-.767-1.279a.297.297 0 1 1 .238-.545c.376.164.699.458.903.817a1.986 1.986 0 0 0-.074-.448.297.297 0 0 1-.013-.104c.01-.184.042-.313.082-.422.04-.109.085-.206.158-.459a.297.297 0 0 1 .104-.153 1.546 1.546 0 0 0-.527-.125c-.043-.003-.083-.003-.125-.004a.258.258 0 1 1-.102-.002zm-1.193 5.432c-.605.466-1.253.873-1.888 1.28.005.438-.006.879-.047 1.321.207-.135.434-.236.697-.3.391-.636.82-1.22 1.083-1.842a4.64 4.64 0 0 0 .155-.46zm.249 1c-.273.549-.621 1.04-.929 1.529.06.04.112.08.155.121l.027.027c.169-.194.375-.351.614-.454-.01-.348.047-.768.133-1.222zm-2.88.047a25.922 25.922 0 0 0-.588.297c-.78.38-1.56.772-2.35 1.148-.556.67-1.156 1.293-1.734 1.92l1.043.175 2.563-2.786a.297.297 0 0 1 .04-.036c.333-.253.678-.489 1.025-.718zm2.591 2.009c-.058.066-.112.14-.162.222a.298.298 0 0 1-.429.087c-.125-.09-.2-.177-.265-.244l-.078 1.413c.1-.006.202-.013.297-.013.166 0 .313.022.397.108.1-.078.28-.1.505-.1.057 0 .118.002.18.005l-.445-1.478zm5.419.999c-.452.062-.686.323-.704.783h1.395c0-.46-.23-.721-.691-.783zm-7.861-2.39a16.38 16.38 0 0 0-.798.56l-2.402 2.613h2.456c.17-.19.518-.365.776-.365.073 0 .139.014.191.046.082-.007.168-.01.257-.01.139 0 .285.007.433.016l.083-1.506c-.225.115-.407.282-.626.542a.297.297 0 0 1-.52-.246 9.773 9.773 0 0 0 .15-1.65zm6.24 3.745l.266.465h1.248l.253-.465zm-4.516 0v2.51l1.727-2.51zM139.333 0a3.878 3.878 0 0 1 .273.01c.694.044 1.215.325 1.407.768a.298.298 0 0 1-.34.408l-.025-.006-.03.007-.108.029c-.054.168-.096.269-.12.332a.541.541 0 0 0-.042.2c.155.552.094 1.107.037 1.389-.095.466-.384.977-.762 1.46a.295.295 0 0 1-.013.108 21.24 21.24 0 0 0-.548 2.027c-.153.708-.234 1.387-.193 1.684a.297.297 0 0 1-.223.33l-.018.005.527 1.75c.085-.013.172-.018.259-.018.256 0 .51.041.712.041a.865.865 0 0 0 .184-.016.314.314 0 0 1 .068-.007c.212 0 .656.13.787.366h1.099c.062-.797.482-1.235 1.262-1.315.788.08 1.195.518 1.222 1.315v.572h-.531l-.545 1.01h-1.767l-.531-1.01h-1.567l-2.404 3.493V18h-.572v-6.561h-4.516v-.41l-.1.109a.297.297 0 0 1-.267.092l-1.74-.292a.298.298 0 0 1-.173-.492c.217-.242.436-.48.656-.716l-1.656 1.078a.296.296 0 0 1-.412-.087.297.297 0 0 1 .087-.411l1.345-.876a.292.292 0 0 1-.076-.09.315.315 0 0 1-.02-.237c.016-.05.034-.074.047-.093.056-.076.085-.088.124-.119.04-.03.083-.06.131-.094l.3-.2a4.156 4.156 0 0 0 .217-.156l2.379-1.672.008-.005c.805-1.13 1.567-2.316 2.456-3.414.433-.535.938-1.524 1.813-1.894.048-.262.156-.68.483-.997.353-.344.864-.463 1.416-.463zm-20.604.456v.498h1.439V.456zm1.894.943v.01h-2.35v-.008c-.12.057-.254.171-.367.33-.168.235-.28.55-.281.782-.004.537.231.95.533 1.204.286.24.825.386 1.247.386.432 0 1.042-.087 1.335-.296.29-.209.63-.816.632-1.36.001-.262-.1-.546-.286-.753a.972.972 0 0 0-.463-.295zm0-1.399v.933c.33.065.604.235.803.457.265.297.403.682.402 1.06-.002.696-.346 1.367-.794 1.706.221 2.035.471 4.068.797 6.09.109.646.221 1.293.397 1.925.042.133.082.275.174.382.146.15.337.248.522.34.388.178.807.287 1.229.353a.98.98 0 0 0 .133.008c.12 0 .239-.019.356-.046.05-.009.103-.02.156-.02a.23.23 0 0 1 .121.03c.088.065.082.202.014.28-.093.118-.255.139-.396.152a2.184 2.184 0 0 1-.187.007c-.27 0-.538-.04-.808-.04a2.19 2.19 0 0 0-.186.007c-.406.019-.812.032-1.217.058-.1.01-.206.03-.31.03a.513.513 0 0 1-.23-.047c-.102-.065-.11-.2-.133-.307-.065-.362-.067-.738-.202-1.083-.278-.922-.474-1.867-.676-2.808a44.729 44.729 0 0 1-.68-4.136 10.926 10.926 0 0 1-.055-.791 5.164 5.164 0 0 1-.448.018c-.095 0-.194-.005-.293-.015-.466 2.237-.95 4.472-1.251 6.738-.056.464-.11.934-.085 1.402.47.273.974.497 1.502.629a.69.69 0 0 0 .089.005c.133 0 .266-.032.4-.032.028 0 .057.002.086.006.133.038.218.213.133.331-.08.11-.226.122-.352.122h-.019c-.263-.005-.525-.034-.789-.034l-.074.001c-.286-.005-.572-.02-.859-.02a5.52 5.52 0 0 0-.514.021c-.107.014-.22.03-.33.03a.685.685 0 0 1-.294-.057c-.125-.076-.155-.237-.147-.373.005-.3.118-.587.11-.888.08-1.569.301-3.125.545-4.675.194-1.215.415-2.425.672-3.628a1.995 1.995 0 0 1-.765-1.611c.002-.361.146-.737.365-1.044.187-.261.436-.485.738-.546V0zm4.915 16.178L127.079 18h-.751l-.79-.942-.797.942-.775-.942-.797.942-.79-.942-.797.942-.79-.942-.797.942-.774-.942-.798.942-.797-.942-.775.942-.797-.942-.79.942h-.751l1.541-1.822.797.88.775-.88.797.88.798-.88.774.88.797-.88.79.88.797-.88.79.88.797-.88.775.88.797-.88zM104.994.45c-.805 0-1.813.415-2.301.903-.427.426-.483.992-.498 1.518h5.576c-.016-.526-.072-1.092-.499-1.518-.487-.488-1.472-.902-2.278-.902zm0-.45c.956 0 1.984.441 2.587 1.044.618.618.688 1.432.688 2.04v.238h-6.549v-.237c0-.61.046-1.423.664-2.04C102.987.44 104.04 0 104.994 0zm6.555 15.092q-.708 0-1.605 1.006-.692.771-1.876.771-.434 0-.935-.104-1.872-.387-3.142-.409-.18-.004-.355-.004-1.045 0-1.869.148-.96.165-1.728.667-.768.51-1.463.51.14.008.278.008.922 0 1.752-.375.62-.277 2.045-.277.75 0 1.72.077 1.748.137 2.875.137.691 0 1.149-.051 1.205-.137 1.793-.976.485-.691.755-.691.058 0 .106.031.28.187.739.194h.022q.439 0 .516-.28.014-.33-.71-.38l-.067-.002zm-1.03-1.676q.559 0 .874 1.27.07-.009.143-.009.122 0 .252.023.444-1.14.997-1.14.193 0 .222.135.029.13-.079.273-.51.402-.681.84.523.257.523.666-.05.617-.681.682-.178.018-.33.018-.386 0-.603-.119-.084-.046-.163-.046-.204 0-.375.304-.243.43-.925.926-.62.456-2.56.456-.195 0-.402-.004-2.31-.015-3.63-.122-.353-.031-.677-.031-.89 0-1.553.231-.646.231-2.323.231-.671 0-1.507-.037-.036 0-.065-.143 0-.43.918-.43 1.256-.044 1.636-.36.38-.322 1.27-.738.896-.423 2.653-.423 1.757 0 3.58.423.564.129 1.033.129 1.042 0 1.606-.638.817-.926 1.24-1.005 0-.3-.308-.66-.308-.35-.287-.53.015-.172.201-.172zM90.07.597a2.12 2.12 0 0 0-.693.109c.031.223.169.569.953.773-.73-.053-1.206-.113-1.452-.307-.09.2-.137.427-.159.556a.297.297 0 0 1-.206.237c-.625.191-1.174 1.112-1.7 1.763-.95 1.173-1.771 2.48-2.688 3.733l1.27-.622c1.182-.622 2.395-1.11 3.407-1.877.588-.49 1.172-.996 1.39-1.641.076-.497-.296-1.074-.767-1.279a.297.297 0 1 1 .238-.545c.377.164.7.458.904.817a1.986 1.986 0 0 0-.075-.448.297.297 0 0 1-.012-.104c.01-.184.04-.313.082-.422.04-.109.084-.206.157-.459a.297.297 0 0 1 .105-.153 1.546 1.546 0 0 0-.528-.125C90.254.6 90.213.6 90.172.599a.258.258 0 1 1-.103-.002zm-1.195 5.432c-.605.466-1.253.873-1.888 1.28.005.438-.006.879-.046 1.321.206-.135.434-.236.697-.3.39-.636.82-1.22 1.082-1.842a4.64 4.64 0 0 0 .155-.46zm.25 1c-.274.549-.622 1.04-.93 1.529.06.04.113.08.155.121l.028.027c.168-.194.374-.351.613-.454-.01-.348.047-.768.133-1.222zm-2.881.047a25.922 25.922 0 0 0-.588.297c-.78.38-1.56.772-2.35 1.148-.556.67-1.156 1.293-1.734 1.92l1.044.175 2.562-2.786a.297.297 0 0 1 .04-.036 18.5 18.5 0 0 1 1.026-.718zm2.592 2.009c-.058.066-.112.14-.162.222a.298.298 0 0 1-.43.087c-.124-.09-.2-.177-.265-.244l-.077 1.413c.1-.006.201-.013.296-.013.167 0 .313.022.398.108.1-.078.28-.1.504-.1.058 0 .118.002.18.005l-.444-1.478zm5.418.999c-.451.062-.686.323-.704.783h1.395c0-.46-.23-.721-.69-.783zm-7.86-2.39a16.38 16.38 0 0 0-.798.56l-2.403 2.613h2.456c.171-.19.519-.365.776-.365.073 0 .14.014.192.046a3.01 3.01 0 0 1 .256-.01c.14 0 .286.007.433.016l.083-1.506c-.224.115-.407.282-.625.542a.297.297 0 0 1-.52-.246c.1-.544.142-1.093.15-1.65zm6.24 3.745l.265.465h1.249l.252-.465zm-4.516 0v2.51l1.726-2.51zM90.062 0a3.878 3.878 0 0 1 .272.01c.694.044 1.215.325 1.408.768a.298.298 0 0 1-.34.408l-.025-.006-.03.007-.109.029c-.054.168-.095.269-.12.332a.541.541 0 0 0-.042.2 3.1 3.1 0 0 1 .037 1.389c-.095.466-.384.977-.761 1.46a.295.295 0 0 1-.014.108 21.24 21.24 0 0 0-.548 2.027c-.152.708-.233 1.387-.192 1.684a.297.297 0 0 1-.223.33l-.019.005.527 1.75c.086-.013.173-.018.26-.018.256 0 .509.041.712.041a.865.865 0 0 0 .183-.016.314.314 0 0 1 .068-.007c.212 0 .657.13.787.366h1.1c.061-.797.482-1.235 1.261-1.315.788.08 1.196.518 1.222 1.315v.572h-.531l-.545 1.01h-1.766l-.532-1.01h-1.567l-2.404 3.493V18h-.571v-6.561h-4.516v-.41l-.1.109a.297.297 0 0 1-.268.092l-1.74-.292a.298.298 0 0 1-.173-.492c.217-.242.437-.48.656-.716l-1.656 1.078a.296.296 0 0 1-.412-.087.297.297 0 0 1 .087-.411l1.345-.876a.292.292 0 0 1-.076-.09.315.315 0 0 1-.02-.237c.016-.05.034-.074.048-.093.055-.076.084-.088.123-.119.04-.03.084-.06.131-.094.096-.065.206-.137.301-.2a4.156 4.156 0 0 0 .217-.156l2.378-1.672.008-.005c.805-1.13 1.568-2.316 2.457-3.414.433-.535.938-1.524 1.812-1.894.048-.262.157-.68.484-.997.353-.344.863-.463 1.416-.463zM76.374 7.458v1.656c.565 0 .848-.283.848-.848 0-.539-.283-.808-.848-.808zM74.279 0c.463 0 .855.116 1.176.35.613.443.919 1.09.919 1.938v4.584c.942 0 1.42.465 1.434 1.394 0 .942-.478 1.413-1.434 1.413V18h-.746V2.732c0-1.023-.199-1.68-.596-1.969-.206-.15-.476-.225-.838-.225-.338 0-.754.065-1.274.195a.65.65 0 0 1-.212.043c-.11 0-.188-.048-.232-.144-.013-.162.108-.276.364-.343C73.378.096 73.858 0 74.279 0z"/><path d="M74.646 9l-2.17 2.17v.707l2.7-2.7.178-.177zm3 0l-5.17 5.17v.707l5.7-5.7.178-.177zm3 0l-8.17 8.17v.707l8.7-8.7.178-.177zm3 0l-8.823 8.823-.177.177h.708l8.823-8.823.177-.177zm3 0l-8.823 8.823-.177.177h.708l8.823-8.823.177-.177zm3 0l-8.823 8.823-.177.177h.708l8.823-8.823.177-.177zm3 0l-8.823 8.823-.177.177h.708l8.823-8.823.177-.177zm3 0l-8.823 8.823-.177.177h.708l8.823-8.823.177-.177zm3 0l-8.823 8.823-.177.177h.708l8.823-8.823.177-.177zm3 0l-8.823 8.823-.177.177h.708l8.823-8.823.177-.177zm3 0l-8.823 8.823-.177.177h.708l8.823-8.823.177-.177zm3 0l-8.823 8.823-.177.177h.708l8.823-8.823.177-.177zm3 0l-8.823 8.823-.177.177h.708l8.823-8.823.177-.177zm3 0l-8.823 8.823-.177.177h.708l8.823-8.823.177-.177zm3 0l-8.823 8.823-.177.177h.708l8.823-8.823.177-.177zm3 0l-8.823 8.823-.177.177h.708l8.823-8.823.177-.177zm3 0l-8.823 8.823-.177.177h.708l8.823-8.823.177-.177zm3 0l-8.823 8.823-.177.177h.708l8.823-8.823.177-.177zm3 0l-8.823 8.823-.177.177h.708l8.823-8.823.177-.177zm3 0l-8.823 8.823-.177.177h.708l8.823-8.823.177-.177zm3 0l-8.823 8.823-.177.177h.708l8.823-8.823.177-.177zm3 0l-8.823 8.823-.177.177h.708l8.823-8.823.177-.177zm3 0l-8.823 8.823-.177.177h.708l8.823-8.823.177-.177zm3 0l-8.823 8.823-.177.177h.708l8.823-8.823.177-.177zm3 0l-8.823 8.823-.177.177h.708l8.823-8.823.177-.177zm3 0l-8.823 8.823-.177.177h.708l8.823-8.823.177-.177zm3 0l-8.823 8.823-.177.177h.708l8.823-8.823.177-.177zm1.852 1.149l-7.675 7.674-.177.177h.708l7.144-7.144v-.707zm0 3l-4.675 4.674-.177.177h.708l4.144-4.144v-.707zm0 3l-1.675 1.674-.177.177h.708l1.144-1.144v-.707zM50.646 0l-2.17 2.17v.707l2.7-2.7.178-.177zm3 0l-5.17 5.17v.707l5.7-5.7.178-.177zm3 0l-8.17 8.17v.707l8.7-8.7.178-.177zm3 0l-11.17 11.17v.707l11.7-11.7.178-.177zm3 0l-14.17 14.17v.707l14.7-14.7.178-.177zm3 0l-17.17 17.17v.707l17.7-17.7.178-.177zm3 0L50.823 17.823l-.177.177h.708L69.177.177 69.354 0zm1.83 1.17L53.823 17.823l-.177.177h.708L70.476 1.877V1.17zm0 3L56.823 17.823l-.177.177h.708L70.476 4.877V4.17zm0 3L59.823 17.823l-.177.177h.708L70.476 7.877V7.17zm0 3l-7.653 7.653-.177.177h.708l7.122-7.123v-.707zm0 3l-4.653 4.653-.177.177h.708l4.122-4.123v-.707zm0 3l-1.653 1.653-.177.177h.708l1.122-1.123v-.707zM71.646 0l-1.17 1.17v.707l1.7-1.7.178-.177zm.83 2.17l-2 2v.707l2-2V2.17zm0 3l-2 2v.707l2-2V5.17zm0 3l-2 2v.707l2-2V8.17zm0 3l-2 2v.707l2-2v-.707zm0 3l-2 2v.707l2-2v-.707zm0 3l-.653.653-.177.177h.708l.122-.123v-.707zM26.646 0l-2.17 2.17v.707l2.7-2.7.178-.177zm3 0l-5.17 5.17v.707l5.7-5.7.178-.177zm3 0l-8.17 8.17v.707l8.7-8.7.178-.177zm3 0l-11.17 11.17v.707l11.7-11.7.178-.177zm3 0l-14.17 14.17v.707l14.7-14.7.178-.177zm3 0l-17.17 17.17v.707l17.7-17.7.178-.177zm3 0L26.823 17.823l-.177.177h.708L45.177.177 45.354 0zm1.83 1.17L29.823 17.823l-.177.177h.708L46.476 1.877V1.17zm0 3L32.823 17.823l-.177.177h.708L46.476 4.877V4.17zm0 3L35.823 17.823l-.177.177h.708L46.476 7.877V7.17zm0 3l-7.653 7.653-.177.177h.708l7.122-7.123v-.707zm0 3l-4.653 4.653-.177.177h.708l4.122-4.123v-.707zm0 3l-1.653 1.653-.177.177h.708l1.122-1.123v-.707zM47.646 0l-1.17 1.17v.707l1.7-1.7.178-.177zm.83 2.17l-2 2v.707l2-2V2.17zm0 3l-2 2v.707l2-2V5.17zm0 3l-2 2v.707l2-2V8.17zm0 3l-2 2v.707l2-2v-.707zm0 3l-2 2v.707l2-2v-.707zm0 3l-.653.653-.177.177h.708l.122-.123v-.707zM11.646 0l-.17.17v.707l.7-.7.178-.177zm3 0l-3.17 3.17v.707l3.7-3.7.178-.177zm3 0l-6.17 6.17v.707l6.7-6.7.178-.177zm3 0l-9.17 9.17v.707l9.7-9.7.178-.177zm1.83 1.17l-11 11v.707l11-11V1.17zm0 3l-11 11v.707l11-11V4.17zm0 3L11.823 17.823l-.177.177h.708L22.476 7.877V7.17zm0 3l-7.653 7.653-.177.177h.708l7.122-7.123v-.707zm0 3l-4.653 4.653-.177.177h.708l4.122-4.123v-.707zm0 3l-1.653 1.653-.177.177h.708l1.122-1.123v-.707zM23.646 0l-1.17 1.17v.707l1.7-1.7.178-.177zm.83 2.17l-2 2v.707l2-2V2.17zm0 3l-2 2v.707l2-2V5.17zm0 3l-2 2v.707l2-2V8.17zm0 3l-2 2v.707l2-2v-.707zm0 3l-2 2v.707l2-2v-.707zm0 3l-.653.653-.177.177h.708l.122-.123v-.707zm-15-11.845v7.35h-.735v-7.35zm-4.37 0v7.35H4.37v-7.35zm-4.37 0v7.35H0v-7.35z"/></svg>