<svg xmlns="http://www.w3.org/2000/svg" width="157.116" height="18"><path d="M155.47 0c.335 0 .67.026.994.066.447.113.217.626-.18.626a.476.476 0 0 1-.082-.008c-.839.097-1.872.15-2.506.626-.84.916-.463 2.821-.56 3.725-.008.05-.01 3.653-.01 5.48a6.145 6.145 0 0 1 2.634-.586c.402 0 .801.04 1.188.117.44.231-.077.528-.423.528a.454.454 0 0 1-.114-.013c-1.227.133-2.62.461-3.243 1.602-.062.206-.024.277.07.277.207 0 .68-.342.947-.342.014 0 .027 0 .04.003a7.535 7.535 0 0 1 1.58-.169c.39 0 .776.031 1.148.095.421.278-.095.534-.437.534a.532.532 0 0 1-.105-.01c-1.252.151-2.637.49-3.243 1.633-.007 1.27 0 2.11-.034 3.278.015.36-.22.538-.456.538-.235 0-.473-.176-.475-.526.01-1.15.091-2.161-.06-3.277-.304-1.253-2.477-1.445-3.827-1.754-.294-.347.285-.475.659-.475.056 0 .107.003.15.008.173-.013.347-.02.521-.02.883 0 1.771.175 2.557.58.033-.755-.71-1.19-1.243-1.493-.84-.361-1.766-.397-2.644-.59-.313-.273.18-.501.522-.501a.58.58 0 0 1 .125.012c.215-.02.431-.031.647-.031.903 0 1.805.183 2.615.582-.017-2.851-.063-5.61.019-8.308.065-.834.546-1.6 1.354-1.849.58-.264 1.227-.358 1.871-.358z"/><path d="M149.646 0l-1.428 1.429v.707l1.959-1.96.177-.176zm3 0l-4.428 4.429v.707l4.959-4.96.177-.176zm3 0l-7.428 7.429v.707l7.959-7.96.177-.176zm1.47 1.53l-8.898 8.899v.707l8.898-8.899V1.53zm0 3l-8.898 8.899v.707l8.898-8.899V4.53zm0 3l-8.898 8.899v.707l8.898-8.899V7.53zm0 3l-7.293 7.293-.177.177h.708l6.762-6.763v-.707zm0 3l-4.293 4.293-.177.177h.708l3.762-3.763v-.707zm0 3l-1.293 1.293-.177.177h.708l.762-.763v-.707zM158.646 0l-1.53 1.53v.707l2.035-2.034V0zm.505 2.495l-2.035 2.035v.707l2.035-2.034v-.708zm0 3l-2.035 2.035v.707l2.035-2.034v-.708zm0 3l-2.035 2.035v.707l2.035-2.034v-.708zm0 3l-2.035 2.035v.707l2.035-2.034v-.708zm0 3l-2.035 2.035v.707l2.035-2.034v-.708zm0 3l-.328.328-.177.177h.505v-.505zM131.474 2.99q-.557 0-1.086.606 4.368 5.2 5.46 5.81.815.457 1.434.457.21 0 .4-.053.74-.208 1.585-.234h.042q.828 0 1.817.988h.13q-.702-1.638-1.963-2.34-1.26-.702-7.397-5.148-.213-.085-.422-.085zm7.731-2.369q-.065 0-.133.01v6.683q2.054 1.196 2.834 3.354-1.196-8.268-1.677-9.204-.433-.843-1.024-.843zm5.356 10.468q.08 0 .153.138.13.247-.234.689-.208-.546-.052-.741.07-.086.133-.086zm-.036-.372q-.153 0-.33.237-.39.52.233 2.08.702-1.352.43-1.976-.15-.34-.333-.34zm-6.805 2.577v.39q.286-.026.442-.182-.052-.078-.208-.208zm-.598.884l-2.418.338-.494.884q.832-.234 1.833-.624t1.08-.598zm5.33-.364l-.468.234-.156 1.118.416 1.274h.65l-.442-1.274v-1.352zm-1.118.39l-.442.13-.156.832.416 1.274h.65l-.442-1.274-.026-.962zm-1.534.156l-.156.806.416 1.274h.65l-.442-1.274v-.78l-.468-.026zm.994-3.234q-.415 0-.89.1-1.404.3-1.768 1.418h-1.092l-.416-.676q-5.512 1.274-6.214 4.602 1.508-.832 3.172-1.118l.728-1.456 2.886-.39-.078-.702h.988q1.092.9 2.228.9.244 0 .49-.042 1.39-.234 1.82-.95.428-.714-.456-1.3-.585-.386-1.398-.386zM138.95 0q.947 0 1.488.658.663.806 1.235 4.238l.91 5.954q.442.468.676.52h.312q.026-.65.494-1.196.416-3.978-.364-6.968l.312-.598q1.118 3.38.546 7.592h.078q1.794-4.03.52-7.592l.312-.468q1.664 3.796-.364 8.242.572 1.248.117 2.054-.455.806-.559 1.508l-.182.13q-.702-1.04-.806-1.794h-.26q-.026.598-.338 1.248l-.182 1.638.442 1.274h2.262v.624h-6.526v-.624h.546l-.416-1.274-.026-.962q-.468-.156-.702-.364-.338.312-.754.312.026.26-.104.442-1.04.806-3.718 1.404l-.91 1.768q0-.434-.27-.434-.085 0-.198.044l.728-1.3q-1.508.338-2.288.858-.416.442.052 1.066-1.04-.442-1.17-1.248.416-3.926 7.046-5.46l.468.78h.416q.338-1.092 2.678-1.508-.522-.388-1.284-.388-.415 0-.9.115-.492.116-.961.116-.844 0-1.613-.376-1.196-.585-6.084-6.461.9-1.136 1.905-1.136.329 0 .669.122L138.5 7.08V.034q.235-.034.449-.034z"/><path d="M59.646 0L57.91 1.736v.707L60.177.177 60.354 0zm3 0L57.91 4.736v.707L63.177.177 63.354 0zm3 0L57.91 7.736v.707L66.177.177 66.354 0zm3 0L57.91 10.736v.707L69.177.177 69.354 0zm3 0L57.91 13.736v.707L72.177.177 72.354 0zm3 0L57.91 16.736v.707L75.177.177 75.354 0zm3 0L59.823 17.823l-.177.177h.708L78.177.177 78.354 0zm3 0L62.823 17.823l-.177.177h.708L81.177.177 81.354 0zm3 0L65.823 17.823l-.177.177h.708L84.177.177 84.354 0zm3 0L68.823 17.823l-.177.177h.708L87.177.177 87.354 0zm3 0L71.823 17.823l-.177.177h.708L90.177.177 90.354 0zm3 0L74.823 17.823l-.177.177h.708L93.177.177 93.354 0zm3 0L77.823 17.823l-.177.177h.708L96.177.177 96.354 0zm3 0L80.823 17.823l-.177.177h.708L99.177.177 99.354 0zm3 0L83.823 17.823l-.177.177h.708L102.177.177l.177-.177zm3 0L86.823 17.823l-.177.177h.708L105.177.177l.177-.177zm3 0L89.823 17.823l-.177.177h.708L108.177.177l.177-.177zm3 0L92.823 17.823l-.177.177h.708L111.177.177l.177-.177zm3 0L95.823 17.823l-.177.177h.708L114.177.177l.177-.177zm3 0L98.823 17.823l-.177.177h.708L117.177.177l.177-.177zm3 0l-17.823 17.823-.177.177h.708L120.177.177l.177-.177zm3 0l-17.823 17.823-.177.177h.708L123.177.177l.177-.177zm3 0l-17.823 17.823-.177.177h.708L126.177.177l.177-.177zm3 0l-17.823 17.823-.177.177h.708L129.177.177l.177-.177zm3 0l-17.823 17.823-.177.177h.708L132.177.177l.177-.177zm3 0l-17.823 17.823-.177.177h.708L135.177.177l.177-.177zm3 0l-17.823 17.823-.177.177h.708L138.177.177l.177-.177zm3 0l-17.823 17.823-.177.177h.708L141.177.177l.177-.177zm3 0l-17.823 17.823-.177.177h.708L144.177.177l.177-.177zm2.572.429l-17.395 17.394-.177.177h.708l16.864-16.864V.429zm0 3l-14.395 14.394-.177.177h.708l13.864-13.864v-.707zm0 3l-11.395 11.394-.177.177h.708l10.864-10.864v-.707zm0 3l-8.395 8.394-.177.177h.708l7.864-7.864v-.707zm0 3l-5.395 5.394-.177.177h.708l4.864-4.864v-.707zm0 3l-2.395 2.394-.177.177h.708l1.864-1.864v-.707z"/><path d="M146.646 0l-.428.429v.707l.959-.96.177-.176zm1.678 1.323l-2.106 2.106v.707l2.106-2.106v-.707zm0 3l-2.106 2.106v.707l2.106-2.106v-.707zm0 3l-2.106 2.106v.707l2.106-2.106v-.707zm0 3l-2.106 2.106v.707l2.106-2.106v-.707zm0 3l-2.106 2.106v.707l2.106-2.106v-.707zm0 3l-1.5 1.5-.178.177h.708l.97-.97v-.707zM54.477 7.458v1.656c.565 0 .848-.283.848-.848 0-.539-.283-.808-.848-.808zM52.382 0c.463 0 .855.116 1.176.35.612.443.919 1.09.919 1.938v4.584c.942 0 1.42.465 1.433 1.394 0 .942-.477 1.413-1.433 1.413V18h-.747V2.732c0-1.023-.198-1.68-.596-1.969-.205-.15-.475-.225-.838-.225-.337 0-.754.065-1.273.195a.65.65 0 0 1-.212.043c-.111 0-.189-.048-.232-.144-.014-.162.108-.276.363-.343C51.481.096 51.961 0 52.382 0zm-8.169.601c-1.074 0-2.419.552-3.07 1.202-.568.57-.643 1.324-.663 2.025h7.434c-.02-.7-.095-1.455-.664-2.025-.65-.65-1.963-1.202-3.037-1.202zm0-.601c1.274 0 2.645.589 3.448 1.392.824.824.918 1.91.918 2.72v.317h-8.732v-.316c0-.812.062-1.897.886-2.72C41.536.588 42.939 0 44.213 0zM45.4 9.627c5.438 1.9 2.903 9.54-2.195 8.228-5.054-1.302-4.046-9.318 2.195-8.228m-.243.698c-5.418-.787-5.64 5.768-1.708 6.812 3.846 1.022 6.482-5.13 1.708-6.812m-1.189 1.152c-1.082-.74.885-.487 0-.018v.018m1.985.433c-1.227-.397.344-.795 0-.073v.073m-2.992-.712v.732l-.731-.244.73-.488m3.572 2.066c-.904-.795.595-.885.108-.09l-.108.09m-2.84-.846l.245.731-.732-.487.488-.244m1.051.358l.073-.017c.668-.489 1.39 1.767-.073.017m-3.013-.397c.956.56-.162.703-.254.703l.254-.703m2.938 1.502l-.244.244-.488-.732.732.488m-1.675-.474l.469.019c-.559.866-.757.793-.469-.019m3.681 1.517c-.884-.74.434-.632.415-.488l-.415.488m-1.01-.903l-.22.305c-.719-.215-.34-.792.22-.305m-3.435.836l-.244.244-.488-.732.732.488m1.323.012c.758-.378.92-.27.47.344l-.47-.344m2.579.72l-.245.731-.487-.732h.732m-3.246-.465l.45.54c-.107.217-1.1.145-.45-.54m1.539.71l.244.731h-.732l.488-.732zM37.847 0v7.35h-.735V0zm-4.37 0v7.35h-.736V0zm-4.371 0v7.35h-.735V0zm-4.37 0v7.35H24V0zm10.925 10.65V18h-.735v-7.35zm-4.37 0V18h-.735v-7.35zm-4.37 0V18h-.736v-7.35zM0 0v.354L.177.177.354 0zm2.646 0L0 2.646v.708L3.177.177 3.354 0zm3 0L0 5.646v.708L6.177.177 6.354 0zm3 0L0 8.646v.708L9.177.177 9.354 0zm3 0L0 11.646v.708L12.177.177 12.354 0zm3 0L0 14.646v.708L15.177.177 15.354 0zm3 0L0 17.646V18h.354L18.177.177 18.354 0zm3 0L2.823 17.823 2.646 18h.708L21.177.177 21.354 0zM22 1.646L5.823 17.823 5.646 18h.708L22 2.354v-.708zm0 3L8.823 17.823 8.646 18h.708L22 5.354v-.708zm0 3L11.823 17.823l-.177.177h.708L22 8.354v-.708zm0 3l-7.177 7.177-.177.177h.708L22 11.354v-.708zm0 3l-4.177 4.177-.177.177h.708L22 14.354v-.708zm0 3l-1.177 1.177-.177.177h.708l.646-.646v-.708z"/></svg>