<svg xmlns="http://www.w3.org/2000/svg" width="232.077" height="18"><path d="M230.43 0c.335 0 .67.026.994.066.448.113.218.626-.18.626a.476.476 0 0 1-.081-.008c-.84.097-1.872.15-2.506.626-.841.916-.463 2.821-.561 3.725-.007.05-.01 3.653-.01 5.48a6.145 6.145 0 0 1 2.635-.586c.402 0 .8.04 1.187.117.441.231-.076.528-.422.528a.454.454 0 0 1-.115-.013c-1.226.133-2.62.461-3.243 1.602-.061.206-.023.277.071.277.206 0 .68-.342.946-.342.014 0 .028 0 .04.003a7.535 7.535 0 0 1 1.58-.169c.39 0 .777.031 1.15.095.42.278-.097.534-.439.534a.532.532 0 0 1-.105-.01c-1.251.151-2.636.49-3.243 1.633-.007 1.27 0 2.11-.033 3.278.014.36-.22.538-.456.538-.235 0-.473-.176-.475-.526.009-1.15.091-2.161-.06-3.277-.304-1.253-2.477-1.445-3.827-1.754-.294-.347.285-.475.659-.475.055 0 .107.003.15.008.173-.013.347-.02.521-.02.882 0 1.771.175 2.557.58.032-.755-.711-1.19-1.244-1.493-.84-.361-1.765-.397-2.643-.59-.313-.273.18-.501.521-.501a.58.58 0 0 1 .125.012 7.01 7.01 0 0 1 .648-.031c.903 0 1.805.183 2.614.582-.016-2.851-.062-5.61.02-8.308.065-.834.546-1.6 1.354-1.849.58-.264 1.227-.358 1.87-.358zm-23.995 2.99q-.557 0-1.086.606 4.368 5.2 5.46 5.81.814.457 1.434.457.21 0 .399-.053.74-.208 1.586-.234h.042q.828 0 1.817.988h.13q-.702-1.638-1.963-2.34-1.261-.702-7.397-5.148-.213-.085-.422-.085zm7.731-2.369q-.066 0-.133.01v6.683q2.054 1.196 2.834 3.354-1.196-8.268-1.677-9.204-.433-.843-1.024-.843zm5.356 10.468q.08 0 .153.138.13.247-.234.689-.208-.546-.052-.741.069-.086.133-.086zm-.037-.372q-.153 0-.33.237-.39.52.234 2.08.702-1.352.429-1.976-.149-.34-.333-.34zm-6.804 2.577v.39q.286-.026.442-.182-.052-.078-.208-.208zm-.598.884l-2.418.338-.494.884q.832-.234 1.833-.624 1-.39 1.079-.598zm5.33-.364l-.468.234-.156 1.118.416 1.274h.65l-.442-1.274v-1.352zm-1.118.39l-.442.13-.156.832.416 1.274h.65l-.442-1.274-.026-.962zm-1.534.156l-.156.806.416 1.274h.65l-.442-1.274v-.78l-.468-.026zm.994-3.234q-.415 0-.89.1-1.404.3-1.768 1.418h-1.092l-.416-.676q-5.512 1.274-6.214 4.602 1.508-.832 3.172-1.118l.728-1.456 2.886-.39-.078-.702h.988q1.092.9 2.228.9.243 0 .489-.042 1.39-.234 1.82-.95.429-.714-.455-1.3-.585-.386-1.398-.386zM213.91 0q.948 0 1.489.658.663.806 1.235 4.238l.91 5.954q.442.468.676.52h.312q.026-.65.494-1.196.416-3.978-.364-6.968l.312-.598q1.118 3.38.546 7.592h.078q1.794-4.03.52-7.592l.312-.468q1.664 3.796-.364 8.242.572 1.248.117 2.054-.455.806-.559 1.508l-.182.13q-.702-1.04-.806-1.794h-.26q-.026.598-.338 1.248l-.182 1.638.442 1.274h2.262v.624h-6.526v-.624h.546l-.416-1.274-.026-.962q-.468-.156-.702-.364-.338.312-.754.312.026.26-.104.442-1.04.806-3.718 1.404l-.91 1.768q0-.434-.27-.434-.085 0-.198.044l.728-1.3q-1.508.338-2.288.858-.416.442.052 1.066-1.04-.442-1.17-1.248.416-3.926 7.046-5.46l.468.78h.416q.338-1.092 2.678-1.508-.522-.388-1.285-.388-.414 0-.9.115-.491.116-.96.116-.844 0-1.613-.376-1.196-.585-6.084-6.461.9-1.136 1.905-1.136.329 0 .669.122l6.318 4.524V.034q.235-.034.448-.034z"/><path d="M195.069.375c9.625 0 9.625 17.25 0 17.25" fill="none" stroke="#000"/><path d="M190.683 11.783c-.534.205-1.116.861-1.287 1.402-.17.54-.15 1.171-.03 1.792.12.61.36 1.191.651 1.571.2.26.38.41.55.46h.16c.171-.04.391-.19.612-.46.29-.38.53-.96.65-1.571.12-.621.14-1.252-.03-1.792-.17-.541-.808-1.243-1.276-1.395v-.007zM191.248 0v1.201h1.082v.771h-1.082l.15 9.09c.771.4 1.252 1.081 1.482 1.812.23.751.24 1.562.09 2.313-.15.75-.45 1.411-.86 1.942-.31.4-.721.73-1.202.831v.03c-.03.01-.06.01-.09.01-.04 0-.08-.01-.12-.01-.05.01-.1.01-.14.01-.04 0-.07 0-.11-.01v-.03c-.481-.1-.891-.43-1.202-.831a4.654 4.654 0 0 1-.86-1.942c-.15-.751-.14-1.562.09-2.313a2.97 2.97 0 0 1 1.481-1.782l.15-9.12h-1.02l-.031-.77h1.141V0h1.051zm-5.961 2.196q.12 0 .288.147.661.89.712 2.544-.203 1.298-.916 3.665.254 1.908.382 5.242.102 1.12-.611 1.45-2.112.56-5.344.56-3.257 0-5.344-.56-.738-.33-.636-1.45.127-3.334.382-5.242-.713-2.367-.916-3.665.05-1.654.712-2.544.168-.147.288-.147.172 0 .247.3-.178.508-.331.992-.204.61-.153 1.145.051.865.166 1.412.114.547.47.547l.038.002q.599 0 .599-1.605 0-.585-.153-1.425.13-.223.282-.223.143 0 .303.198.076.61.102 1.348.102 1.12-.534 3.156.229 2.875.229 5.75 1.73.28 4.25.357 2.493-.076 4.223-.356 0-2.876.23-5.751-.637-2.036-.535-3.156.025-.738.102-1.348.16-.198.303-.198.15 0 .282.223-.153.84-.153 1.425 0 1.605.6 1.605l.037-.002q.356 0 .47-.547.115-.547.166-1.412.05-.535-.153-1.145-.153-.484-.33-.993.074-.299.246-.299zM171.284 5.34v7.32h-1.225V5.34zM162.652.597a2.12 2.12 0 0 0-.692.109c.03.223.168.569.952.773-.73-.053-1.206-.113-1.452-.307-.089.2-.137.427-.158.556a.297.297 0 0 1-.206.237c-.625.191-1.174 1.112-1.701 1.763-.95 1.173-1.77 2.48-2.687 3.733.423-.207.845-.415 1.27-.622 1.181-.622 2.394-1.11 3.406-1.877.589-.49 1.172-.996 1.391-1.641.076-.497-.296-1.074-.767-1.279a.297.297 0 1 1 .237-.545c.377.164.7.458.904.817a1.986 1.986 0 0 0-.074-.448.297.297 0 0 1-.013-.104c.01-.184.041-.313.082-.422.04-.109.085-.206.158-.459a.297.297 0 0 1 .104-.153 1.546 1.546 0 0 0-.527-.125c-.043-.003-.083-.003-.125-.004a.258.258 0 1 1-.102-.002zm-1.194 5.432c-.605.466-1.253.873-1.888 1.28.005.438-.006.879-.047 1.321.207-.135.434-.236.697-.3.391-.636.82-1.22 1.083-1.842a4.64 4.64 0 0 0 .155-.46zm.249 1c-.273.549-.622 1.04-.929 1.529.06.04.112.08.155.121l.027.027c.169-.194.375-.351.614-.454-.01-.348.047-.768.133-1.222zm-2.88.047a25.922 25.922 0 0 0-.588.297c-.78.38-1.56.772-2.35 1.148-.556.67-1.156 1.293-1.734 1.92l1.043.175 2.563-2.786a.297.297 0 0 1 .04-.036c.333-.253.678-.489 1.025-.718zm2.591 2.009c-.058.066-.112.14-.162.222a.298.298 0 0 1-.429.087c-.125-.09-.2-.177-.265-.244l-.078 1.413c.1-.006.202-.013.297-.013.166 0 .313.022.397.108.1-.078.28-.1.505-.1.057 0 .118.002.18.005l-.445-1.478zm5.419.999c-.452.062-.686.323-.704.783h1.394c0-.46-.23-.721-.69-.783zm-7.861-2.39a16.38 16.38 0 0 0-.798.56l-2.403 2.613h2.457c.17-.19.518-.365.776-.365.073 0 .139.014.191.046.082-.007.168-.01.257-.01.139 0 .285.007.433.016l.083-1.506c-.225.115-.407.282-.626.542a.297.297 0 0 1-.52-.246 9.773 9.773 0 0 0 .15-1.65zm6.24 3.745l.266.465h1.248l.253-.465zm-4.516 0v2.51l1.727-2.51zM162.644 0a3.878 3.878 0 0 1 .273.01c.694.044 1.215.325 1.407.768a.298.298 0 0 1-.34.408l-.025-.006-.03.007-.108.029c-.054.168-.096.269-.12.332a.541.541 0 0 0-.042.2c.155.552.094 1.107.037 1.389-.095.466-.384.977-.762 1.46a.295.295 0 0 1-.014.108 21.85 21.85 0 0 0-.548 2.027c-.152.708-.233 1.387-.192 1.684a.297.297 0 0 1-.223.33l-.018.005.527 1.75c.085-.013.172-.018.259-.018.256 0 .51.041.712.041a.865.865 0 0 0 .184-.016.314.314 0 0 1 .068-.007c.212 0 .656.13.787.366h1.099c.062-.797.482-1.235 1.262-1.315.788.08 1.195.518 1.222 1.315v.572h-.532l-.544 1.01h-1.767l-.531-1.01h-1.567l-2.404 3.493V18h-.572v-6.561h-4.516v-.41l-.1.109a.297.297 0 0 1-.267.092l-1.74-.292a.298.298 0 0 1-.173-.492c.217-.242.436-.48.656-.716l-1.656 1.078a.296.296 0 0 1-.412-.087.297.297 0 0 1 .087-.411l1.345-.876a.292.292 0 0 1-.076-.09.315.315 0 0 1-.02-.237c.016-.05.034-.074.047-.093.056-.076.085-.088.124-.119.04-.03.083-.06.131-.094l.3-.2a4.156 4.156 0 0 0 .217-.156l2.379-1.672.008-.005c.805-1.13 1.567-2.316 2.456-3.414.433-.535.938-1.524 1.813-1.894.048-.262.156-.68.483-.997.353-.344.864-.463 1.416-.463z"/><path d="M142.203.375v17.25M149.89.375c-9.625 0-9.625 17.25 0 17.25m0 0" fill="none" stroke="#000"/><path d="M134.233.597a2.12 2.12 0 0 0-.692.109c.031.223.169.569.953.773-.73-.053-1.206-.113-1.452-.307-.09.2-.137.427-.158.556a.297.297 0 0 1-.207.237c-.624.191-1.173 1.112-1.7 1.763-.95 1.173-1.771 2.48-2.688 3.733l1.27-.622c1.182-.622 2.395-1.11 3.407-1.877.589-.49 1.172-.996 1.39-1.641.076-.497-.296-1.074-.767-1.279a.297.297 0 1 1 .238-.545c.377.164.7.458.904.817a1.986 1.986 0 0 0-.075-.448.297.297 0 0 1-.012-.104c.01-.184.041-.313.082-.422.04-.109.085-.206.157-.459a.297.297 0 0 1 .105-.153 1.546 1.546 0 0 0-.527-.125c-.043-.003-.084-.003-.125-.004a.258.258 0 1 1-.103-.002zm-1.193 5.432c-.606.466-1.253.873-1.888 1.28a13 13 0 0 1-.047 1.321c.207-.135.434-.236.697-.3.39-.636.82-1.22 1.082-1.842.054-.129.105-.29.156-.46zm.248 1c-.273.549-.62 1.04-.928 1.529.059.04.112.08.155.121l.027.027a1.72 1.72 0 0 1 .613-.454c-.01-.348.047-.768.133-1.222zm-2.88.047a25.922 25.922 0 0 0-.588.297c-.78.38-1.56.772-2.349 1.148-.556.67-1.157 1.293-1.735 1.92l1.044.175 2.562-2.786a.297.297 0 0 1 .04-.036 18.5 18.5 0 0 1 1.026-.718zM133 9.085c-.058.066-.112.14-.162.222a.298.298 0 0 1-.43.087c-.124-.09-.2-.177-.265-.244l-.077 1.413c.1-.006.201-.013.296-.013.167 0 .314.022.398.108.1-.078.28-.1.504-.1.058 0 .118.002.18.005L133 9.085zm5.418.999c-.451.062-.686.323-.704.783h1.395c0-.46-.23-.721-.69-.783zm-7.86-2.39a16.38 16.38 0 0 0-.798.56l-2.403 2.613h2.456c.171-.19.519-.365.776-.365.074 0 .14.014.192.046.082-.007.168-.01.256-.01.14 0 .286.007.434.016l.082-1.506c-.224.115-.407.282-.625.542a.297.297 0 0 1-.52-.246c.1-.544.142-1.093.15-1.65zm6.24 3.745l.266.465h1.248l.253-.465zm-4.516 0v2.51l1.727-2.51zM134.226 0a3.878 3.878 0 0 1 .272.01c.695.044 1.215.325 1.408.768a.298.298 0 0 1-.34.408l-.025-.006-.03.007-.108.029c-.055.168-.096.269-.12.332a.541.541 0 0 0-.042.2c.154.552.094 1.107.036 1.389-.095.466-.384.977-.761 1.46a.295.295 0 0 1-.014.108 21.24 21.24 0 0 0-.548 2.027c-.152.708-.233 1.387-.192 1.684a.297.297 0 0 1-.223.33l-.019.005.527 1.75c.086-.013.173-.018.26-.018.256 0 .509.041.712.041a.865.865 0 0 0 .183-.016.314.314 0 0 1 .068-.007c.212 0 .657.13.787.366h1.1c.062-.797.482-1.235 1.261-1.315.788.08 1.196.518 1.222 1.315v.572h-.53l-.545 1.01h-1.767l-.531-1.01h-1.568l-2.404 3.493V18h-.571v-6.561h-4.516v-.41l-.1.109a.297.297 0 0 1-.268.092l-1.74-.292a.298.298 0 0 1-.172-.492c.216-.242.436-.48.656-.716l-1.657 1.078a.296.296 0 0 1-.411-.087.297.297 0 0 1 .087-.411l1.344-.876a.292.292 0 0 1-.076-.09.315.315 0 0 1-.02-.237.305.305 0 0 1 .048-.093c.055-.076.084-.088.124-.119l.13-.094c.096-.065.207-.137.301-.2a4.156 4.156 0 0 0 .217-.156l2.378-1.672.008-.005c.806-1.13 1.568-2.316 2.457-3.414.433-.535.938-1.524 1.812-1.894.048-.262.157-.68.484-.997.353-.344.863-.463 1.416-.463zm-23.397 1.728a.066.066 0 0 0-.021.003c.079.127.047.198-.095.214-.174-.048-.205-.119-.095-.214l-.332.143c.143.047.285.07.427.07a.377.377 0 0 0 .053.005.253.253 0 0 0 .208-.099c-.054-.081-.103-.122-.145-.122zm-.113-.117c.015 0 .03 0 .044.002.158.016.285.118.38.308-.143.128-.288.192-.437.192-.016 0-.033 0-.05-.003a1.32 1.32 0 0 1-.532-.19h-.308v-.094h.308c.243-.143.441-.215.594-.215h.001zm-1.582-.034c-.063 0-.09.032-.08.095a.54.54 0 0 0 .142.284.713.713 0 0 0 .226.178.119.119 0 0 0 .041.013c.025 0 .01-.032-.041-.096-.056-.068-.068-.102-.036-.102.008 0 .02.002.036.007a.124.124 0 0 0 .037.008c.036 0 .035-.034-.002-.102a1.703 1.703 0 0 0-.166-.25.501.501 0 0 0-.157-.035zm.465.557c-.079.048-.095.091-.047.13.021.018.04.027.057.027.02 0 .037-.013.05-.038.023-.048.003-.087-.06-.119zm-.544-.72c.033 0 .073.007.118.021a.63.63 0 0 1 .331.273c.095.142.119.245.072.308.094.047.154.107.177.178.024.07-.008.126-.095.165a.136.136 0 0 1-.056.012c-.083 0-.19-.063-.323-.19-.165-.157-.272-.296-.32-.414-.047-.119-.055-.213-.023-.284.02-.045.058-.068.115-.069h.004zm.398-1.1a2.64 2.64 0 0 0-.588.078c-.57.135-.857.427-.865.877-.008.45.22.853.687 1.209.21.16.338.24.384.24.057 0-.008-.12-.195-.359-.34-.434-.458-.79-.355-1.066.068-.183.237-.274.508-.274.14 0 .306.024.5.073.631-.174.82-.368.568-.58-.15-.128-.356-.193-.617-.197h-.027zm2.108 2.647a.249.249 0 0 1-.019.074.802.802 0 0 0-.047.296c0 .119-.075.19-.225.213-.065.01-.136.016-.214.016-.103 0-.217-.01-.343-.027-.074.31-.034.464.12.464l.034-.003a.787.787 0 0 1 .102-.006c.186 0 .456.054.787.208l2.76 2.019c-.382-.892-.716-1.652-.987-2.273-.43-.144-.842-.357-1.256-.419-.166-.025-.088-.324-.12-.51-.042-.001-.374-.034-.592-.052zm-.99-1.858h-.012c-.103.008-.391.107-.865.297-.026.07-.07.104-.129.104a.35.35 0 0 1-.179-.069.529.529 0 0 0-.289-.095.443.443 0 0 0-.173.036c-.15.063-.17.205-.06.427.111.22.257.406.439.556.182.15.26.312.237.486-.024.174-.13.3-.32.38a1.185 1.185 0 0 1-.39.71c-.214.19-.582.403-1.103.64.822 1.39 1.232 2.394 1.232 3.01 0 0-.043.213-.098.51-.087.469-.206 1.147-.233 1.528a.755.755 0 0 0 .094.45c.146.24.898.357 2.249.357l.263-.001c.713.072 1.494.108 2.34.108.636 0 1.31-.02 2.02-.06-.173-.522-1.081-.878-2.725-1.067-1.627 0-2.44-.482-2.44-1.446 0-.664.355-1.73 1.066-3.2-.916-.252-1.295-.528-1.137-.829-.064-.442.047-.679.331-.71.04.003.077.005.113.005.247 0 .39-.096.432-.29-.237-.095-.323-.174-.26-.237s.174-.103.332-.118c-.111-.111-.071-.214.118-.309l-.427-.663a.46.46 0 0 0-.284-.084c-.179 0-.408.068-.687.202-.158-.015-.115-.083.13-.201a1.46 1.46 0 0 1 .723-.154c-.106-.182-.209-.273-.308-.273zM109.26 0c.17 0 .342.016.518.049.514.095.976.466 1.386 1.114.095.237.324.584.688 1.042.06.198.04.297-.06.297h-.012a.638.638 0 0 0-.045-.002c-.087 0-.15.02-.192.06.053.04.081.082.084.127l.587-.001c.446.016.942.215 1.435.598 1.243 1.067 1.841 2.32 1.825 3.738 0 .192-.109.277-.311.277a.924.924 0 0 1-.108-.007c-.915-.399-2.789-1.164-3.426-1.527-.357.61-.536 1.565-.536 2.863l.995.19c2.402.236 3.792.615 4.171 1.137.522.3.909 1.35 1.162 3.152.379 1.895 1.09 2.883 2.133 2.962l1.753.663.166.308c-.126.11-.245.166-.356.166l-3.222-.166c-.222-.727-.66-1.63-1.316-2.713-.655-1.082-.912-2.042-.77-2.88-.3 1.075-.576 2.465-.83 4.171-.047.411.451.783 1.494 1.114.474.032.71.182.71.45l-2.44-.094c-.537 0-.806-.214-.806-.64.174-.38.194-1.153.06-2.323-.135-1.169.011-2.117.438-2.843l-4.171-.166c-1.359 0-2.038-.348-2.038-1.043l.118-2.322c0-.885-.237-1.644-.71-2.275l-.498 2.109.71 3.27c.143.221.242.43.297.628.055.198.09.375.107.533 0 .127-.036.296-.107.51a2.602 2.602 0 0 0-.13.604.268.268 0 0 1-.095.095.04.04 0 0 1-.018.005c-.023 0-.04-.026-.053-.076-.036.036-.066.054-.088.054-.028 0-.046-.026-.054-.078-.036.036-.066.054-.089.054-.027 0-.045-.026-.054-.077-.025.025-.05.037-.076.037-.006 0-.012 0-.019-.002-.031-.008-.047-.051-.047-.13.079-.253.138-.454.178-.605.04-.15.043-.375.011-.675-.015-.08-.031-.118-.047-.118-.032 0-.063.023-.095.07 0 .08.008.19.024.332a.603.603 0 0 1-.035.332c-.025.05-.054.074-.088.074a.113.113 0 0 1-.066-.026c-.048-.016-.06-.087-.036-.214.024-.126.008-.308-.048-.545-.055-.237.005-.49.178-.758-.726-.964-1.098-2.18-1.114-3.65.08-1.042.285-1.92.617-2.63a3.38 3.38 0 0 1 1.658-.877c.411-.347.348-.7-.19-1.055-.536-.355-.793-.813-.77-1.374.025-.56.265-.932.724-1.114A2.525 2.525 0 0 1 109.26 0zm11.21 17.97c0 .01-.002.02 0 .03h-.061c.017-.013.044-.017.06-.03zM98.874.597a2.12 2.12 0 0 0-.692.109c.031.223.17.569.953.773-.73-.053-1.206-.113-1.452-.307-.089.2-.137.427-.158.556a.297.297 0 0 1-.207.237c-.624.191-1.173 1.112-1.7 1.763-.95 1.173-1.771 2.48-2.688 3.733l1.27-.622c1.182-.622 2.395-1.11 3.407-1.877.589-.49 1.172-.996 1.39-1.641.077-.497-.296-1.074-.767-1.279a.297.297 0 1 1 .238-.545c.377.164.7.458.904.817a1.986 1.986 0 0 0-.075-.448.297.297 0 0 1-.012-.104c.01-.184.041-.313.082-.422.04-.109.085-.206.158-.459a.297.297 0 0 1 .104-.153 1.546 1.546 0 0 0-.527-.125C99.059.6 99.018.6 98.977.599a.258.258 0 1 1-.103-.002zm-1.193 5.432c-.606.466-1.253.873-1.888 1.28a13 13 0 0 1-.047 1.321c.207-.135.434-.236.697-.3.391-.636.82-1.22 1.082-1.842.055-.129.106-.29.156-.46zm.248 1c-.272.549-.62 1.04-.928 1.529.059.04.112.08.155.121l.027.027a1.72 1.72 0 0 1 .613-.454c-.009-.348.047-.768.133-1.222zm-2.88.047a25.922 25.922 0 0 0-.588.297c-.78.38-1.56.772-2.349 1.148-.556.67-1.157 1.293-1.735 1.92l1.044.175 2.563-2.786a.297.297 0 0 1 .039-.036 18.5 18.5 0 0 1 1.026-.718zm2.592 2.009c-.058.066-.112.14-.162.222a.298.298 0 0 1-.429.087c-.125-.09-.2-.177-.265-.244l-.078 1.413c.1-.006.201-.013.296-.013.167 0 .314.022.398.108.1-.078.28-.1.504-.1.058 0 .118.002.18.005l-.444-1.478zm5.418.999c-.451.062-.686.323-.703.783h1.394c0-.46-.23-.721-.69-.783zm-7.86-2.39a16.38 16.38 0 0 0-.798.56l-2.403 2.613h2.456c.171-.19.519-.365.777-.365.073 0 .139.014.191.046.082-.007.168-.01.256-.01.14 0 .286.007.434.016l.082-1.506c-.224.115-.407.282-.625.542a.297.297 0 0 1-.52-.246c.1-.544.142-1.093.15-1.65zm6.24 3.745l.266.465h1.248l.253-.465zm-4.516 0v2.51l1.727-2.51zM98.867 0a3.878 3.878 0 0 1 .272.01c.695.044 1.216.325 1.408.768a.298.298 0 0 1-.34.408l-.025-.006-.03.007-.108.029c-.054.168-.096.269-.12.332a.541.541 0 0 0-.042.2c.154.552.094 1.107.037 1.389-.096.466-.384.977-.762 1.46a.295.295 0 0 1-.014.108 21.54 21.54 0 0 0-.548 2.027c-.152.708-.233 1.387-.192 1.684a.297.297 0 0 1-.223.33l-.018.005.526 1.75c.086-.013.173-.018.26-.018.256 0 .509.041.712.041a.865.865 0 0 0 .183-.016.314.314 0 0 1 .068-.007c.212 0 .657.13.787.366h1.1c.062-.797.482-1.235 1.261-1.315.788.08 1.196.518 1.222 1.315v.572h-.53l-.545 1.01h-1.767l-.531-1.01H99.34l-2.405 3.493V18h-.57v-6.561h-4.517v-.41l-.1.109a.297.297 0 0 1-.268.092l-1.74-.292a.298.298 0 0 1-.172-.492c.216-.242.436-.48.656-.716l-1.657 1.078a.296.296 0 0 1-.411-.087.297.297 0 0 1 .087-.411l1.344-.876a.292.292 0 0 1-.076-.09.315.315 0 0 1-.02-.237.305.305 0 0 1 .048-.093c.056-.076.084-.088.124-.119l.13-.094c.096-.065.207-.137.302-.2a4.156 4.156 0 0 0 .216-.156l2.378-1.672.008-.005c.806-1.13 1.568-2.316 2.457-3.414.433-.535.938-1.524 1.812-1.894.049-.262.157-.68.484-.997.353-.344.864-.463 1.416-.463zM83.79 0q2.323 0 2.323 2.232V18h-1.071V2.232q0-1.16-1.252-1.16-1.26 0-1.26 1.16v10.492h-1.072V2.232Q81.458 0 83.79 0zm-5.946 0l1.614 1.908h-.787l-.827-.986-.835.986-.81-.986-.836.986-.826-.986-.835.986-.827-.986-.835.986-.81-.986-.836.986-.834-.986-.811.986-.835-.986-.827.986H66.3L67.914 0l.835.922.81-.922.835.922L71.23 0l.811.922.835-.922.827.922.835-.922.826.922.835-.922.811.922.835-.922zm-7.93 3.95c.024 3.484.052 6.968.073 10.452-.05.564-.08 1.13-.146 1.693-.038.301-.234.582-.191.89.063.207.2.534.43.534a.322.322 0 0 0 .169-.054c.373-.143.73-.381 1.14-.381.024 0 .047 0 .07.002h.061c.783 0 1.552.173 2.329.249.424.06.847.157 1.278.157h.054c-.777-.176-1.544-.473-2.156-.995-.833-.648-1.67-1.292-2.5-1.942-.113-.139.053-7.218.11-10.58l-.721-.024zm-.423-.471c.411.013 1.024.007 1.434.033.219.063.18.309.177.485l-.17 10.29c.91.695 1.811 1.4 2.726 2.089.511.333 1.103.54 1.7.65.268-.003.537-.14.804-.14.085 0 .17.013.254.05.205.158.276.59.001.722-.413.221-.873.306-1.336.306-.293 0-.586-.034-.87-.088-.66-.112-1.327-.178-1.99-.272-.217-.019-.444-.048-.667-.048-.24 0-.477.034-.695.153-.262.116-.55.291-.842.291a.65.65 0 0 1-.292-.067c-.306-.19-.482-.546-.556-.889-.062-.448.24-.844.235-1.29.035-.486.09-.971.112-1.458-.025-3.52-.16-10.817-.025-10.817zM55.107 2.085q.253 0 .334.08.071.082.193.082v.09l-.142.021q-.157.157-.418.157-.193 0-.443-.086l-.253.07-.02-.181.223-.02q.324-.183.526-.213zM53.781.465q-.467 0-1.083.142-1.043.233-1.053 1.316-.01 1.073.607 1.57.327.271.595.271.23 0 .418-.201.182-.182.07-.294-.293-.09-.273-.455-.314-.385-.314-.658-.02-.477.438-.477h.038q.203.021.344.132.896-.594 1.577-.594.074 0 .144.007-.293-.516-.92-.688-.257-.072-.588-.072zm-2.845 6.803q-.395.81-1.549 2.36.435-.294 2.136-.618l-.587-1.742zm4.198-5.704q-.639 0-1.363.551l.07.203q-.084.05-.164.05-.035 0-.068-.01-.162-.425-.365-.425-.024-.003-.046-.003-.195 0-.176.246 0 .253.273.567 0 .28.136.28.022 0 .046-.007.182-.04.152-.202.122.455-.213 1.154L52.92 5.05q-.172.375-.546.395-.375.02-.86.111-.487.092-.264.658.223.567.931 2.542l.476-.223q.496-1.002 1.721-1.701.233.223-.09.587l.364.8q.07.476-.365.75-.607.273-1.336.273l-.638.516.182 3.34 1.822.406q1.428-4.566 1.701-4.961.274-.395.152-2.258.05-.637-1.043-.637-1.133 0-1.042-.517l.141-.415q.112-.385.091-.476.09-.024.208-.024.177 0 .42.055.23.02.396.02.333 0 .414-.081.122-.122.081-.334l-.324-.112q-.111-.06-.04-.202l.455-.04q-.162-.345.04-.456l.058.002q.216 0 .216-.144-.07-.132-.283-.486-.213-.354-.517-.455-.136-.044-.27-.044-.176 0-.347.074-.304.121-.577.192l-.051-.121q.253-.06.526-.203.264-.136.491-.136.228 0 .42.136-.05-.182-.141-.273-.176-.045-.358-.045zm3.922 9.562l-3.726 2.581 4.16 1.256q-.14-2.886.386-3.837zm-6.652 2.43q-.425 1.63.506 2.834.835.498 1.879.498.717 0 1.533-.235.837-.245 1.638-.245 1.119 0 2.169.478-.182-.637-2.977-2.085l-4.748-1.246zM53.636 0q.324 0 .651.05 1.134.131 1.66 1.559.071.385.345.719.273.324.354.719 0 .222-.283.232-.284.01-.071.193.09.02.07.09-.01.072-.07.092.131.142 0 .192-.142.061-.102.203.03.152-.05.374-.081.233-.81.233l-.628-.09q.04.151-.05.364 1.822.02 2.267.79 1.53 1.275 2.906 2.703.273-.567 1.245-1.55.962-.971 1.124-1.427.334-.992 1.428-1.883.243.182 0 .587l.455.73q.132.475-.253.799-.587.354-1.205.75-1.7 3.016-2.49 3.26-.044.006-.091.006-.601 0-1.802-1.07-1.19-1.04-1.412-1.04-.078 0-.036.129 0 .658-.274 1.124-.273.465-1.336 4.232l3.31-2.47q.75-.68 1.317-.68 1.59.021 1.407 1.317l-.567 4.04q1.205.293 1.114 1.812.546.111 1.002.314.368.159.743.159.079 0 .158-.007l.054-.002q.413 0 .584.447H48.213q.41-.804 1.112-.804.146 0 .305.035.153.034.29.034.676 0 .945-.834.2-.632.576-.632.215 0 .487.207-.729-1.408-.04-2.957-.03-1.68-.142-2.996-2.38.749-3.149.749Q48 10.74 48 10.285q.526-2.045 2.43-4.566.385-.77 1.974-.84.273-.364.294-.638-.658-.152-1.104-.688-.455-.537-.445-1.742.01-1.194 1.042-1.559Q52.906 0 53.636 0zM2.646 0L0 2.646v.708L3.177.177 3.354 0zm3 0L0 5.646v.708L6.177.177 6.354 0zm3 0L0 8.646v.708L9.177.177 9.354 0zm3 0L0 11.646v.708L12.177.177 12.354 0zm3 0L0 14.646v.708L15.177.177 15.354 0zm3 0L0 17.646V18h.354L18.177.177 18.354 0zm3 0L2.823 17.823 2.646 18h.708L21.177.177 21.354 0zM22 1.646L5.823 17.823 5.646 18h.708L22 2.354v-.708zm0 3L8.823 17.823 8.646 18h.708L22 5.354v-.708zm0 3L11.823 17.823l-.177.177h.708L22 8.354v-.708zm0 3l-7.177 7.177-.177.177h.708L22 11.354v-.708zm0 3l-4.177 4.177-.177.177h.708L22 14.354v-.708zm0 3l-1.177 1.177-.177.177h.708l.646-.646v-.708z"/></svg>