<svg xmlns="http://www.w3.org/2000/svg" width="162.85" height="18"><path d="M140.85 0v.504l.327-.327.177-.177zm2.796 0l-2.796 2.797v.707l3.327-3.327.177-.177zm3 0l-5.796 5.797v.707l6.327-6.327.177-.177zm3 0l-8.796 8.797v.707l9.327-9.327.177-.177zm3 0L140.85 11.797v.707L153.177.177l.177-.177zm3 0L140.85 14.797v.707L156.177.177l.177-.177zm3 0L140.85 17.797V18h.504L159.177.177l.177-.177zm3 0l-17.823 17.823-.177.177h.708L162.177.177l.177-.177zm1.204 1.797l-16.027 16.026-.177.177h.708L162.85 2.504v-.707zm0 3l-13.027 13.026-.177.177h.708L162.85 5.504v-.707zm0 3l-10.027 10.026-.177.177h.708l9.496-9.496v-.707zm0 3l-7.027 7.026-.177.177h.708l6.496-6.496v-.707zm0 3l-4.027 4.026-.177.177h.708l3.496-3.496v-.707zm0 3l-1.027 1.026-.177.177h.708l.496-.496v-.707z"/><path d="M164.646 0l-1.796 1.797v.707l2-2V0zm.204 2.797l-2 2v.707l2-2v-.707zm0 3l-2 2v.707l2-2v-.707zm0 3l-2 2v.707l2-2v-.707zm0 3l-2 2v.707l2-2v-.707zm0 3l-2 2v.707l2-2v-.707zM116.85 0v.504l.327-.327.177-.177zm2.796 0l-2.796 2.797v.707l3.327-3.327.177-.177zm3 0l-5.796 5.797v.707l6.327-6.327.177-.177zm3 0l-8.796 8.797v.707l9.327-9.327.177-.177zm3 0L116.85 11.797v.707L129.177.177l.177-.177zm3 0L116.85 14.797v.707L132.177.177l.177-.177zm3 0L116.85 17.797V18h.504L135.177.177l.177-.177zm3 0l-17.823 17.823-.177.177h.708L138.177.177l.177-.177zm1.204 1.797l-16.027 16.026-.177.177h.708L138.85 2.504v-.707zm0 3l-13.027 13.026-.177.177h.708L138.85 5.504v-.707zm0 3l-10.027 10.026-.177.177h.708l9.496-9.496v-.707zm0 3l-7.027 7.026-.177.177h.708l6.496-6.496v-.707zm0 3l-4.027 4.026-.177.177h.708l3.496-3.496v-.707zm0 3l-1.027 1.026-.177.177h.708l.496-.496v-.707z"/><path d="M140.646 0l-1.796 1.797v.707l2-2V0zm.204 2.797l-2 2v.707l2-2v-.707zm0 3l-2 2v.707l2-2v-.707zm0 3l-2 2v.707l2-2v-.707zm0 3l-2 2v.707l2-2v-.707zm0 3l-2 2v.707l2-2v-.707zM92.85 0v.504l.327-.327.177-.177zm2.796 0L92.85 2.797v.707L96.177.177 96.354 0zm3 0L92.85 5.797v.707L99.177.177 99.354 0zm3 0L92.85 8.797v.707l9.327-9.327.177-.177zm3 0L92.85 11.797v.707L105.177.177l.177-.177zm3 0L92.85 14.797v.707L108.177.177l.177-.177zm3 0L92.85 17.797V18h.504L111.177.177l.177-.177zm3 0L95.823 17.823l-.177.177h.708L114.177.177l.177-.177zm1.204 1.797L98.823 17.823l-.177.177h.708L114.85 2.504v-.707zm0 3l-13.027 13.026-.177.177h.708L114.85 5.504v-.707zm0 3l-10.027 10.026-.177.177h.708l9.496-9.496v-.707zm0 3l-7.027 7.026-.177.177h.708l6.496-6.496v-.707zm0 3l-4.027 4.026-.177.177h.708l3.496-3.496v-.707zm0 3l-1.027 1.026-.177.177h.708l.496-.496v-.707zM116.646 0l-1.796 1.797v.707l2-2V0zm.204 2.797l-2 2v.707l2-2v-.707zm0 3l-2 2v.707l2-2v-.707zm0 3l-2 2v.707l2-2v-.707zm0 3l-2 2v.707l2-2v-.707zm0 3l-2 2v.707l2-2v-.707zM68.85 0v.504l.327-.327.177-.177zm2.796 0L68.85 2.797v.707L72.177.177 72.354 0zm3 0L68.85 5.797v.707L75.177.177 75.354 0zm3 0L68.85 8.797v.707L78.177.177 78.354 0zm3 0L68.85 11.797v.707L81.177.177 81.354 0zm3 0L68.85 14.797v.707L84.177.177 84.354 0zm3 0L68.85 17.797V18h.504L87.177.177 87.354 0zm3 0L71.823 17.823l-.177.177h.708L90.177.177 90.354 0zm1.204 1.797L74.823 17.823l-.177.177h.708L90.85 2.504v-.707zm0 3L77.823 17.823l-.177.177h.708L90.85 5.504v-.707zm0 3L80.823 17.823l-.177.177h.708l9.496-9.496v-.707zm0 3l-7.027 7.026-.177.177h.708l6.496-6.496v-.707zm0 3l-4.027 4.026-.177.177h.708l3.496-3.496v-.707zm0 3l-1.027 1.026-.177.177h.708l.496-.496v-.707zM92.646 0L90.85 1.797v.707l2-2V0zm.204 2.797l-2 2v.707l2-2v-.707zm0 3l-2 2v.707l2-2v-.707zm0 3l-2 2v.707l2-2v-.707zm0 3l-2 2v.707l2-2v-.707zm0 3l-2 2v.707l2-2v-.707zM63.272 4.845c.947.012 1.816.243 2.472.778.68.54 1.112 1.378 1.106 2.405v5.127h-.705V8.022c0-.838-.316-1.434-.838-1.853-.504-.4-1.215-.62-2.017-.62h-.097c-.796 0-1.513.22-2.017.62-.522.42-.838 1.015-.838 1.853v5.133h-.705V8.028c-.006-1.027.425-1.865 1.106-2.405.656-.535 1.524-.766 2.472-.778zm-9.86 3.093c.68.054 1.057.394 1.129 1.022-.09.68-.466 1.04-1.13 1.075-.663-.036-1.012-.394-1.048-1.075.054-.628.403-.968 1.049-1.022zm-.081-2.259c-.484 0-.932.09-1.345.27a3.545 3.545 0 0 0-1.828 1.815 3.11 3.11 0 0 0-.269 1.276c0 .466.09.901.269 1.304a3.422 3.422 0 0 0 3.173 2.03c.484 0 .937-.085 1.358-.255.421-.17.784-.408 1.089-.712.305-.305.547-.66.726-1.063.18-.403.269-.838.269-1.304 0-.448-.09-.874-.27-1.277a3.67 3.67 0 0 0-.725-1.075 3.302 3.302 0 0 0-1.09-.74 3.431 3.431 0 0 0-1.357-.269zm.054-.914a4.17 4.17 0 0 1 1.667.336c.52.224.968.529 1.344.914.377.386.677.834.901 1.345.224.51.336 1.062.336 1.653 0 .592-.112 1.143-.336 1.654a4.31 4.31 0 0 1-.9 1.331 4.267 4.267 0 0 1-3.012 1.237 4.071 4.071 0 0 1-1.654-.336 4.48 4.48 0 0 1-1.344-.9 4.195 4.195 0 0 1-.915-1.332 4.071 4.071 0 0 1-.336-1.654c0-.591.112-1.142.336-1.653a4.358 4.358 0 0 1 2.26-2.259 4.071 4.071 0 0 1 1.653-.336zM43.522 0c.957.012 1.835.245 2.498.785.687.546 1.122 1.393 1.116 2.43v5.179h-.712V3.209c0-.847-.319-1.448-.846-1.871-.51-.405-1.227-.626-2.037-.626h-.099c-.803 0-1.527.22-2.037.626-.527.423-.846 1.024-.846 1.871v5.185h-.712V3.215c-.006-1.037.43-1.884 1.117-2.43.662-.54 1.54-.773 2.497-.785zm0 9.606c.957.012 1.835.246 2.498.785.687.547 1.122 1.393 1.116 2.43V18h-.712v-5.185c0-.847-.319-1.448-.846-1.871-.51-.405-1.227-.626-2.037-.626h-.099c-.803 0-1.527.22-2.037.626-.527.423-.846 1.024-.846 1.871V18h-.712v-5.179c-.006-1.037.43-1.883 1.117-2.43.662-.54 1.54-.773 2.497-.785zM37.847 0v7.35h-.735V0zm-4.37 0v7.35h-.736V0zm-4.371 0v7.35h-.735V0zm-4.37 0v7.35H24V0zm13.111 10.65V18h-.735v-7.35zm-4.37 0V18h-.736v-7.35zm-4.371 0V18h-.735v-7.35zm-4.37 0V18H24v-7.35zM0 0v.354L.177.177.354 0zm2.646 0L0 2.646v.708L3.177.177 3.354 0zm3 0L0 5.646v.708L6.177.177 6.354 0zm3 0L0 8.646v.708L9.177.177 9.354 0zm3 0L0 11.646v.708L12.177.177 12.354 0zm3 0L0 14.646v.708L15.177.177 15.354 0zm3 0L0 17.646V18h.354L18.177.177 18.354 0zm3 0L2.823 17.823 2.646 18h.708L21.177.177 21.354 0zM22 1.646L5.823 17.823 5.646 18h.708L22 2.354v-.708zm0 3L8.823 17.823 8.646 18h.708L22 5.354v-.708zm0 3L11.823 17.823l-.177.177h.708L22 8.354v-.708zm0 3l-7.177 7.177-.177.177h.708L22 11.354v-.708zm0 3l-4.177 4.177-.177.177h.708L22 14.354v-.708zm0 3l-1.177 1.177-.177.177h.708l.646-.646v-.708z"/></svg>