<svg xmlns="http://www.w3.org/2000/svg" width="224.787" height="18"><path d="M223.14 0c.336 0 .67.026.995.066.447.113.217.626-.18.626a.476.476 0 0 1-.082-.008c-.839.097-1.872.15-2.506.626-.84.916-.463 2.821-.56 3.725-.008.05-.01 3.653-.01 5.48a6.145 6.145 0 0 1 2.634-.586c.402 0 .801.04 1.188.117.44.231-.077.528-.423.528a.454.454 0 0 1-.114-.013c-1.226.133-2.62.461-3.243 1.602-.062.206-.023.277.07.277.207 0 .68-.342.947-.342.014 0 .027 0 .04.003a7.535 7.535 0 0 1 1.58-.169c.39 0 .776.031 1.148.095.421.278-.095.534-.437.534a.532.532 0 0 1-.105-.01c-1.252.151-2.637.49-3.243 1.633-.007 1.27 0 2.11-.034 3.278.015.36-.22.538-.456.538-.235 0-.473-.176-.474-.526.008-1.15.09-2.161-.06-3.277-.305-1.253-2.478-1.445-3.828-1.754-.294-.347.286-.475.659-.475.056 0 .107.003.15.008.173-.013.347-.02.521-.02.883 0 1.772.175 2.558.58.032-.755-.712-1.19-1.244-1.493-.84-.361-1.766-.397-2.644-.59-.313-.273.18-.501.522-.501a.58.58 0 0 1 .125.012c.215-.02.431-.031.648-.031.902 0 1.804.183 2.614.582-.017-2.851-.063-5.61.019-8.308.066-.834.546-1.6 1.354-1.849.58-.264 1.227-.358 1.871-.358zm-23.495 2.99q-.557 0-1.086.606 4.368 5.2 5.46 5.81.815.457 1.434.457.211 0 .4-.053.74-.208 1.585-.234h.043q.828 0 1.816.988h.13q-.702-1.638-1.963-2.34-1.26-.702-7.397-5.148-.213-.085-.422-.085zm7.731-2.369q-.065 0-.133.01v6.683q2.054 1.196 2.834 3.354-1.196-8.268-1.677-9.204-.433-.843-1.024-.843zm5.356 10.468q.08 0 .153.138.13.247-.234.689-.208-.546-.052-.741.07-.086.133-.086zm-.036-.372q-.153 0-.33.237-.39.52.233 2.08.702-1.352.43-1.976-.15-.34-.333-.34zm-6.805 2.577v.39q.286-.026.442-.182-.052-.078-.208-.208zm-.598.884l-2.418.338-.494.884q.832-.234 1.833-.624t1.08-.598zm5.33-.364l-.468.234-.156 1.118.416 1.274h.65l-.442-1.274v-1.352zm-1.118.39l-.442.13-.156.832.416 1.274h.65l-.442-1.274-.026-.962zm-1.534.156l-.156.806.416 1.274h.65l-.442-1.274v-.78l-.468-.026zm.995-3.234q-.416 0-.89.1-1.405.3-1.769 1.418h-1.092l-.416-.676q-5.512 1.274-6.214 4.602 1.508-.832 3.172-1.118l.728-1.456 2.886-.39-.078-.702h.988q1.092.9 2.228.9.244 0 .49-.042 1.39-.234 1.82-.95.428-.714-.456-1.3-.585-.386-1.397-.386zM207.12 0q.947 0 1.488.658.663.806 1.235 4.238l.91 5.954q.442.468.676.52h.312q.026-.65.494-1.196.416-3.978-.364-6.968l.312-.598q1.118 3.38.546 7.592h.078q1.794-4.03.52-7.592l.312-.468q1.664 3.796-.364 8.242.572 1.248.117 2.054-.455.806-.559 1.508l-.182.13q-.702-1.04-.806-1.794h-.26q-.026.598-.338 1.248l-.182 1.638.442 1.274h2.262v.624h-6.526v-.624h.546l-.416-1.274-.026-.962q-.468-.156-.702-.364-.338.312-.754.312.026.26-.104.442-1.04.806-3.718 1.404l-.91 1.768q0-.434-.27-.434-.085 0-.198.044l.728-1.3q-1.508.338-2.288.858-.416.442.052 1.066-1.04-.442-1.17-1.248.416-3.926 7.046-5.46l.468.78h.416q.338-1.092 2.678-1.508-.522-.388-1.284-.388-.415 0-.9.115-.492.116-.96.116-.845 0-1.614-.376-1.196-.585-6.084-6.461.9-1.136 1.905-1.136.329 0 .67.122l6.317 4.524V.034q.235-.034.449-.034z"/><path d="M188.779.375c9.625 0 9.625 17.25 0 17.25" fill="none" stroke="#000"/><path d="M182.846 12.438c.716.056 1.11.414 1.186 1.073-.094.715-.49 1.092-1.186 1.13-.696-.038-1.063-.415-1.1-1.13.056-.659.423-1.017 1.1-1.073zm-.084-2.372c-.509 0-.98.094-1.412.283a3.722 3.722 0 0 0-1.92 1.906c-.188.423-.282.87-.282 1.34 0 .49.094.946.282 1.37.188.423.447.795.776 1.115a3.593 3.593 0 0 0 2.556 1.017c.508 0 .983-.09 1.425-.269a3.396 3.396 0 0 0 1.144-.748c.32-.32.574-.692.762-1.115a3.34 3.34 0 0 0 .283-1.37c0-.47-.095-.917-.283-1.34a3.854 3.854 0 0 0-.762-1.13 3.467 3.467 0 0 0-1.144-.776 3.603 3.603 0 0 0-1.425-.283zm.056-.96c.621 0 1.205.118 1.75.353a4.364 4.364 0 0 1 1.412.96c.396.405.71.875.946 1.412.235.536.353 1.115.353 1.736s-.118 1.2-.353 1.737a4.525 4.525 0 0 1-.946 1.397A4.48 4.48 0 0 1 182.818 18c-.621 0-1.2-.118-1.736-.353a4.705 4.705 0 0 1-1.412-.946 4.405 4.405 0 0 1-.96-1.397 4.275 4.275 0 0 1-.353-1.737c0-.62.118-1.2.353-1.736a4.576 4.576 0 0 1 2.372-2.372 4.275 4.275 0 0 1 1.736-.353zM172.56.383V.79h1.03V.383zm-1.316 1.173q.192.215.192.742h3.279q-.024-.527.167-.742zm0 1.508q.24.215.192.742h3.279q-.024-.527.167-.742zm0 1.508q.192.167.192.742h3.279q-.048-.527.167-.742zm.096 1.508q.335.598.311 1.604h2.896q-.048-1.006.311-1.604zm.311 1.771v.168h2.896V7.85zm0 .335v.168h2.896v-.168zm0 .335v.168h2.896V8.52zm0 .335v.168h2.896v-.168zm0 .335v5.817q-.215 1.077-.766 2.37h4.404q-.43-.958-.742-2.37V9.191zM173.949 0v.79h2.68q.456.383 0 .766h-1.1q-.216.215-.192.742h1.293q.455.383 0 .766h-1.101q-.216.215-.192.742h1.293q.455.383 0 .766h-1.101q-.24.215-.192.742h1.293q.455.359 0 .766h-1.101q-.431.502-.383 3.04v5.888q.167 1.316 1.173 2.992h-6.559q1.149-1.915 1.269-2.992V9.12q.12-2.514-.407-3.04h-1.125q-.479-.36 0-.766h1.292q.024-.575-.167-.742h-1.197q-.407-.407.072-.766h1.292q.024-.527-.167-.742h-1.125q-.455-.383 0-.766h1.292q.024-.527-.167-.742h-1.125q-.455-.383 0-.766h2.68V0zm-10.506.383V.79h1.03V.383zm-1.317 1.173q.192.215.192.742h3.28q-.025-.527.167-.742zm0 1.508q.24.215.192.742h3.28q-.025-.527.167-.742zm0 1.508q.192.167.192.742h3.28q-.049-.527.167-.742zm.096 1.508q.335.598.311 1.604h2.897q-.048-1.006.31-1.604zm.311 1.771v.168h2.897V7.85zm0 .335v.168h2.897v-.168zm0 .335v.168h2.897V8.52zm0 .335v.168h2.897v-.168zm0 .335v5.817q-.215 1.077-.766 2.37h4.405q-.431-.958-.742-2.37V9.191zM164.831 0v.79h2.681q.455.383 0 .766h-1.101q-.215.215-.191.742h1.292q.455.383 0 .766h-1.101q-.215.215-.191.742h1.292q.455.383 0 .766h-1.101q-.24.215-.191.742h1.292q.455.359 0 .766h-1.101q-.43.502-.383 3.04v5.888q.168 1.316 1.173 2.992h-6.559q1.15-1.915 1.269-2.992V9.12q.12-2.514-.407-3.04h-1.125q-.479-.36 0-.766h1.293q.024-.575-.168-.742h-1.197q-.407-.407.072-.766h1.293q.024-.527-.168-.742h-1.125q-.455-.383 0-.766h1.293q.024-.527-.168-.742h-1.125q-.455-.383 0-.766h2.68V0z"/><path d="M161.646 9l-1.524 1.525v.707l2.055-2.055.177-.177zm3 0l-4.524 4.525v.707l5.055-5.055.177-.177zm3 0l-7.524 7.525v.707l8.055-8.055.177-.177zm3 0l-8.823 8.823-.177.177h.708l8.823-8.823.177-.177zm3 0l-8.823 8.823-.177.177h.708l8.823-8.823.177-.177zm3 0l-8.823 8.823-.177.177h.708l8.823-8.823.177-.177zm3 0l-8.823 8.823-.177.177h.708l8.823-8.823.177-.177zm3 0l-8.823 8.823-.177.177h.708l8.823-8.823.177-.177zm3 0l-8.823 8.823-.177.177h.708l8.823-8.823.177-.177zm3 0l-8.823 8.823-.177.177h.708l8.823-8.823.177-.177zm3 0l-8.823 8.823-.177.177h.708l8.823-8.823.177-.177zm3 0l-8.823 8.823-.177.177h.708l8.823-8.823.177-.177zm3 0l-8.823 8.823-.177.177h.708l8.823-8.823.177-.177zm3 0l-8.823 8.823-.177.177h.708l8.823-8.823.177-.177zm3 0l-8.823 8.823-.177.177h.708l8.823-8.823.177-.177zm3 0l-8.823 8.823-.177.177h.708l8.823-8.823.177-.177zm3 0l-8.823 8.823-.177.177h.708l8.823-8.823.177-.177zm3 0l-8.823 8.823-.177.177h.708l8.823-8.823.177-.177zm3 0l-8.823 8.823-.177.177h.708l8.823-8.823.177-.177zm3 0l-8.823 8.823-.177.177h.708l8.823-8.823.177-.177zm3 0l-8.823 8.823-.177.177h.708l8.823-8.823.177-.177zm3 0l-8.823 8.823-.177.177h.708l8.433-8.434V9zm.141 2.86l-5.964 5.963-.177.177h.708l5.433-5.434v-.707zm0 3l-2.964 2.963-.177.177h.708l2.433-2.434v-.707zM157.121 2.196q.12 0 .288.147.662.89.713 2.544-.204 1.298-.916 3.665.254 1.908.381 5.242.102 1.12-.61 1.45-2.112.56-5.344.56-3.257 0-5.344-.56-.738-.33-.636-1.45.127-3.334.382-5.242-.713-2.367-.917-3.665.051-1.654.713-2.544.168-.147.288-.147.171 0 .246.3-.178.508-.33.992-.204.61-.153 1.145.05.865.165 1.412.115.547.471.547l.037.002q.6 0 .6-1.605 0-.585-.153-1.425.13-.223.282-.223.142 0 .303.198.076.61.102 1.348.101 1.12-.535 3.156.23 2.875.23 5.75 1.73.28 4.249.357 2.494-.076 4.224-.356 0-2.876.229-5.751-.636-2.036-.534-3.156.025-.738.101-1.348.16-.198.303-.198.152 0 .283.223-.153.84-.153 1.425 0 1.605.599 1.605l.037-.002q.356 0 .471-.547.114-.547.165-1.412.051-.535-.152-1.145-.153-.484-.331-.993.075-.299.246-.299zM143.118 5.34v7.32h-1.225V5.34zM134.486.597a2.12 2.12 0 0 0-.692.109c.031.223.169.569.953.773-.73-.053-1.206-.113-1.452-.307-.089.2-.137.427-.158.556a.297.297 0 0 1-.207.237c-.624.191-1.173 1.112-1.7 1.763-.95 1.173-1.771 2.48-2.688 3.733l1.27-.622c1.182-.622 2.395-1.11 3.407-1.877.589-.49 1.172-.996 1.39-1.641.076-.497-.296-1.074-.767-1.279a.297.297 0 1 1 .238-.545c.377.164.7.458.904.817a1.986 1.986 0 0 0-.075-.448.297.297 0 0 1-.012-.104c.01-.184.041-.313.082-.422.04-.109.085-.206.157-.459a.297.297 0 0 1 .105-.153 1.546 1.546 0 0 0-.527-.125C134.67.6 134.63.6 134.589.599a.258.258 0 1 1-.103-.002zm-1.193 5.432c-.606.466-1.253.873-1.888 1.28a13 13 0 0 1-.047 1.321c.207-.135.434-.236.697-.3.391-.636.82-1.22 1.082-1.842.055-.129.106-.29.156-.46zm.248 1c-.273.549-.62 1.04-.928 1.529.059.04.112.08.155.121l.027.027a1.72 1.72 0 0 1 .613-.454c-.009-.348.047-.768.133-1.222zm-2.88.047a25.922 25.922 0 0 0-.588.297c-.78.38-1.56.772-2.349 1.148-.556.67-1.157 1.293-1.735 1.92l1.044.175 2.563-2.786a.297.297 0 0 1 .039-.036 18.5 18.5 0 0 1 1.026-.718zm2.592 2.009c-.058.066-.112.14-.162.222a.298.298 0 0 1-.429.087c-.125-.09-.2-.177-.265-.244l-.078 1.413c.1-.006.201-.013.296-.013.167 0 .314.022.398.108.1-.078.28-.1.504-.1.058 0 .118.002.18.005l-.444-1.478zm5.418.999c-.451.062-.686.323-.703.783h1.394c0-.46-.23-.721-.69-.783zm-7.86-2.39a16.38 16.38 0 0 0-.798.56l-2.403 2.613h2.456c.171-.19.519-.365.777-.365.073 0 .139.014.191.046.082-.007.168-.01.256-.01.14 0 .286.007.434.016l.082-1.506c-.224.115-.407.282-.625.542a.297.297 0 0 1-.52-.246c.1-.544.142-1.093.15-1.65zm6.24 3.745l.266.465h1.248l.253-.465zm-4.516 0v2.51l1.727-2.51zM134.479 0a3.878 3.878 0 0 1 .272.01c.695.044 1.215.325 1.408.768a.298.298 0 0 1-.34.408l-.025-.006-.03.007-.108.029c-.054.168-.096.269-.12.332a.541.541 0 0 0-.042.2c.154.552.094 1.107.037 1.389-.096.466-.384.977-.762 1.46a.295.295 0 0 1-.014.108 21.54 21.54 0 0 0-.548 2.027c-.152.708-.233 1.387-.192 1.684a.297.297 0 0 1-.223.33l-.019.005.527 1.75c.086-.013.173-.018.26-.018.256 0 .509.041.712.041a.865.865 0 0 0 .183-.016.314.314 0 0 1 .068-.007c.212 0 .657.13.787.366h1.1c.062-.797.482-1.235 1.261-1.315.788.08 1.196.518 1.222 1.315v.572h-.53l-.545 1.01h-1.767l-.531-1.01h-1.568l-2.404 3.493V18h-.57v-6.561h-4.517v-.41l-.1.109a.297.297 0 0 1-.268.092l-1.74-.292a.298.298 0 0 1-.172-.492c.216-.242.436-.48.656-.716l-1.657 1.078a.296.296 0 0 1-.411-.087.297.297 0 0 1 .087-.411l1.344-.876a.292.292 0 0 1-.076-.09.315.315 0 0 1-.02-.237.305.305 0 0 1 .048-.093c.056-.076.084-.088.124-.119l.13-.094c.096-.065.207-.137.302-.2a4.156 4.156 0 0 0 .216-.156l2.378-1.672.008-.005c.806-1.13 1.568-2.316 2.457-3.414.433-.535.938-1.524 1.812-1.894.049-.262.157-.68.484-.997.353-.344.864-.463 1.416-.463z"/><path d="M114.038.375v17.25m7.687-17.25c-9.625 0-9.625 17.25 0 17.25m0 0" fill="none" stroke="#000"/><path d="M106.068.597a2.12 2.12 0 0 0-.692.109c.031.223.169.569.953.773-.73-.053-1.206-.113-1.453-.307a2.45 2.45 0 0 0-.158.556.297.297 0 0 1-.206.237c-.625.191-1.174 1.112-1.7 1.763-.95 1.173-1.772 2.48-2.688 3.733.423-.207.845-.415 1.27-.622 1.182-.622 2.394-1.11 3.407-1.877.588-.49 1.172-.996 1.39-1.641.076-.497-.296-1.074-.767-1.279a.297.297 0 1 1 .238-.545c.376.164.699.458.904.817a1.986 1.986 0 0 0-.075-.448.297.297 0 0 1-.013-.104c.01-.184.042-.313.082-.422.041-.109.085-.206.158-.459a.297.297 0 0 1 .104-.153 1.546 1.546 0 0 0-.527-.125c-.042-.003-.083-.003-.125-.004a.258.258 0 1 1-.102-.002zm-1.194 5.432c-.605.466-1.253.873-1.888 1.28.005.438-.006.879-.047 1.321.207-.135.434-.236.697-.3.392-.636.82-1.22 1.083-1.842a4.64 4.64 0 0 0 .155-.46zm.25 1c-.274.549-.622 1.04-.93 1.529.06.04.113.08.155.121l.027.027c.17-.194.375-.351.614-.454-.01-.348.047-.768.133-1.222zm-2.882.047a25.922 25.922 0 0 0-.587.297c-.78.38-1.56.772-2.35 1.148-.556.67-1.156 1.293-1.734 1.92l1.043.175 2.563-2.786a.297.297 0 0 1 .04-.036c.333-.253.678-.489 1.025-.718zm2.592 2.009c-.058.066-.112.14-.161.222a.298.298 0 0 1-.43.087c-.124-.09-.2-.177-.265-.244l-.077 1.413c.1-.006.201-.013.296-.013.167 0 .313.022.398.108.1-.078.28-.1.504-.1.057 0 .118.002.18.005l-.445-1.478zm5.419.999c-.452.062-.686.323-.704.783h1.395c0-.46-.23-.721-.691-.783zm-7.86-2.39c-.275.182-.542.367-.799.56l-2.402 2.613h2.456c.17-.19.518-.365.776-.365.073 0 .14.014.192.046.081-.007.167-.01.256-.01.14 0 .285.007.433.016l.083-1.506c-.224.115-.407.282-.625.542a.297.297 0 0 1-.52-.246c.1-.544.141-1.093.15-1.65zm6.24 3.745l.265.465h1.249l.252-.465zm-4.516 0v2.51l1.726-2.51zM106.06 0a3.878 3.878 0 0 1 .272.01c.694.044 1.215.325 1.408.768a.298.298 0 0 1-.341.408l-.025-.006-.03.007-.108.029c-.054.168-.096.269-.12.332a.541.541 0 0 0-.042.2 3.1 3.1 0 0 1 .037 1.389c-.095.466-.384.977-.761 1.46a.295.295 0 0 1-.014.108 21.24 21.24 0 0 0-.548 2.027c-.152.708-.234 1.387-.192 1.684a.297.297 0 0 1-.223.33l-.019.005.527 1.75c.086-.013.173-.018.26-.018.255 0 .508.041.711.041a.865.865 0 0 0 .184-.016.314.314 0 0 1 .068-.007c.212 0 .656.13.787.366h1.1c.061-.797.482-1.235 1.261-1.315.788.08 1.195.518 1.222 1.315v.572h-.531l-.545 1.01h-1.766l-.532-1.01h-1.567l-2.404 3.493V18h-.571v-6.561h-4.517v-.41l-.099.109a.297.297 0 0 1-.268.092l-1.74-.292a.298.298 0 0 1-.173-.492c.217-.242.437-.48.656-.716l-1.656 1.078a.296.296 0 0 1-.412-.087.297.297 0 0 1 .087-.411l1.345-.876a.292.292 0 0 1-.076-.09.315.315 0 0 1-.02-.237c.016-.05.034-.074.048-.093.055-.076.084-.088.123-.119.04-.03.084-.06.131-.094.096-.065.206-.137.301-.2a4.156 4.156 0 0 0 .216-.156l2.379-1.672.008-.005c.805-1.13 1.568-2.316 2.457-3.414.433-.535.938-1.524 1.812-1.894.048-.262.157-.68.483-.997.353-.344.864-.463 1.417-.463zM75.32 1.45zm.003.202zM91.075.878v1.195c.177-.081.352-.158.517-.239.14-.068.304-.106.475-.133.136-.02.277-.035.404-.06a.469.469 0 0 0 .2-.073c.016-.013.028-.03.028-.093 0-.062-.012-.079-.027-.092a.469.469 0 0 0-.201-.072c-.127-.026-.268-.04-.404-.061a1.661 1.661 0 0 1-.475-.133c-.165-.081-.34-.158-.517-.239zm0 1.195zm-.608.086zM79.453.789c-.118 0-.235.001-.353.004-.66.016-1.65.174-2.468.379a7.156 7.156 0 0 0-1.025.323c-.04.017-.076.034-.11.05.03.013.063.025.097.038.258.097.62.19 1.025.272.822.167 1.816.287 2.48.303.119.003.236.004.354.004 1.195 0 2.386-.136 3.578-.275 1.271-.148 2.543-.298 3.82-.298l.194.001c1.117.014 2.4.138 3.422.569V.792c-1.022.43-2.305.555-3.422.569l-.194.001c-1.277 0-2.549-.15-3.82-.298-1.192-.139-2.383-.275-3.578-.275zM90.701 0l.147.084c.34.195.695.332 1.012.488.084.041.19.06.3.078.146.022.296.038.433.066.18.037.344.098.468.2a.697.697 0 0 1 .246.56c0 .242-.092.43-.246.558a1.053 1.053 0 0 1-.468.201c-.137.028-.287.044-.433.066a1.08 1.08 0 0 0-.3.078c-.317.156-.673.293-1.012.488l-.146.084-.15-.08c-.983-.528-2.355-.66-3.514-.674h-.189c-1.253 0-2.501.149-3.748.294-1.216.14-2.431.278-3.65.278a15.5 15.5 0 0 1-.365-.004c-.701-.016-1.73-.14-2.589-.315a7.769 7.769 0 0 1-1.116-.298 1.82 1.82 0 0 1-.389-.19.68.68 0 0 1-.156-.146.434.434 0 0 1-.092-.262c0-.09.03-.18.088-.26a.714.714 0 0 1 .151-.148c.095-.071.226-.141.385-.21a7.75 7.75 0 0 1 1.116-.354c.863-.215 1.896-.38 2.602-.396a15.5 15.5 0 0 1 .364-.004c1.22 0 2.435.137 3.65.278 1.248.145 2.496.295 3.75.295l.188-.001c1.16-.015 2.531-.146 3.515-.674L90.7 0zm.329 15.308L93.307 18h-1.11l-1.167-1.39L89.852 18l-1.144-1.39L87.53 18l-1.166-1.39L85.186 18l-1.166-1.39L82.842 18l-1.144-1.39L80.52 18l-1.178-1.39L78.198 18l-1.177-1.39L75.854 18h-1.11l2.277-2.692 1.177 1.301 1.144-1.3 1.178 1.3 1.178-1.3 1.144 1.3 1.178-1.3 1.166 1.3 1.178-1.3 1.166 1.3 1.178-1.3 1.144 1.3 1.178-1.3zM70.806 0l1.938 2.291h-.945l-.993-1.184-1.002 1.184-.974-1.184-1.002 1.184-.993-1.184-1.002 1.184-.993-1.184-1.003 1.184-.973-1.184-1.002 1.184-1.003-1.184-.973 1.184-1.003-1.184-.993 1.184h-.945L58.883 0l1.003 1.107L60.859 0l1.003 1.107L62.864 0l.973 1.107L64.84 0l.993 1.107L66.835 0l.993 1.107L68.83 0l.974 1.107L70.806 0zm-3.01 10.418c-1.069 1.201-1.954 2.572-2.743 3.965-.166.204.02.391.158.586.52-1.651 1.716-2.925 2.585-4.551zm1.035-6.064c-.089.416.075.896.39 1.038l-.1.215c-.394-.187-.773-.748-.83-1.251-.537.032-.684.437-.768.907-.101.321.001 1.1-.406 1.236-1.203.465-2.122 1.004-2.947 1.818-1.424 1.78-2.911 3.505-4.335 5.287-.553.693-1.06 1.329-1.47 1.808 2.162-1.616 4.578-2.852 6.948-4.137 1.26-.684 2.462-1.244 2.462-2.75 0-.811-1.494-1.49-1.432-1.595.005-.01.023-.014.05-.014.306 0 1.875.582 1.875 1.809 0 .34-.09.655-.249.949h.007c1.721-.912 1.448-2.757 1.381-4.383.716-.04 1.305-.43 1.984-.593-.527-.068-1.052-.156-1.58-.21.099.02.19.077.25.158.009.173-.188.25-.379.25-.186 0-.368-.073-.35-.2a.48.48 0 0 1 .409-.216c-.263-.037-.613-.093-.91-.126zm-3.006 10.462c-.154.374-.234.771-.321 1.164a4.843 4.843 0 0 1-.7-.66c.135.73.385 1.464.991 1.464.367 0 .537-.248.302-1-.111-.355-.2-.693-.272-.968zm.66-3.605c-2.455 1.308-4.885 2.627-7.206 4.161-.546.443-1.033.937-1.363 1.399.218.34.635.457 1.02.482 1.964-.068 2.733-1.962 3.771-3.315l.564-.686-.097.879c-.007.158-.169.906.073.906a.18.18 0 0 0 .07-.017l.994-1.188c.106.07.206.15.315.214.493-.997 1.214-1.924 1.858-2.835zm2.117-7.366c.516 0 1.044.093 1.546.14.597.291 1.202.069 1.829.297.453.203.58.615.767 1.026a2.311 2.311 0 0 0-.739-.125c-.73 0-1.318.368-2.09.564.002.387.063.827.092 1.27.12 1.2-.513 2.253-1.427 3.002-.655 1.459-1.561 2.577-2.222 3.715.079.51.554 2.44.789 3.132.459.077.95.121 1.431.121a7.342 7.342 0 0 0 .621-.025c.372 0 .781.635 1.182.974L62.233 18c.207-.735 1.655-1.124 2.17-1.124.03 0 .056 0 .079.003-.182-.519-.408-1.007-.473-1.733-.227.204-.482.424-.8.447-.39-.03-.548-.295-.597-.642-.882 1.458-1.868 2.649-3.676 2.824-.625-.03-1.404-.304-1.573-.968-.829-.047-.22-.854.087-1.17 2.256-2.443 4.118-5.23 6.347-7.69.858-.847 1.828-1.42 3.028-1.895.09-.22.119-.531.177-.875.063-.375.263-.988.629-1.179.311-.114.639-.153.971-.153zm-17.184-.343q-.265 0-.306.326l-.448 4.052q-.346 2.79-.407 5.335 0 1.751.295 2.78.296 1.028.927 1.028t.865-1.029q.234-1.028.214-2.78-.04-2.544-.387-5.334l-.448-4.052q-.04-.326-.305-.326zM54.492 0q.856.428.102.896-2.484 1.446-2.179 3.075l.469 3.91q.326 2.789.468 5.334 0 2.484-.468 3.635Q52.415 18 51.418 18q-.998 0-1.466-1.15-.469-1.15-.469-3.635.143-2.545.469-5.335l.427-3.747Q51.031.794 54.492 0zm-9.084 1.124q-2.015.293-2.106 1.842v11.177q.942-1.124 3.381-1.58l-1.275-11.44zM45.975 0l1.508 13.363q-3.36.385-4.18 2.4V18H42.3V2.966Q42.3.456 45.975 0zM31.107 2.085q.253 0 .334.08.071.082.193.082v.09l-.142.021q-.157.157-.418.157-.193 0-.443-.086l-.253.07-.02-.181.223-.02q.324-.183.526-.213zM29.781.465q-.467 0-1.083.142-1.043.233-1.053 1.316-.01 1.073.607 1.57.327.271.595.271.23 0 .418-.201.182-.182.07-.294-.293-.09-.273-.455-.314-.385-.314-.658-.02-.477.438-.477h.038q.203.021.344.132.896-.594 1.577-.594.074 0 .144.007-.293-.516-.92-.688-.257-.072-.588-.072zm-2.845 6.803q-.395.81-1.549 2.36.435-.294 2.136-.618l-.587-1.742zm4.198-5.704q-.639 0-1.363.551l.07.203q-.084.05-.164.05-.035 0-.068-.01-.162-.425-.365-.425-.024-.003-.046-.003-.195 0-.176.246 0 .253.273.567 0 .28.136.28.022 0 .046-.007.182-.04.152-.202.122.455-.213 1.154L28.92 5.05q-.172.375-.546.395-.375.02-.86.111-.487.092-.264.658.223.567.931 2.542l.476-.223q.496-1.002 1.721-1.701.233.223-.09.587l.364.8q.07.476-.365.75-.607.273-1.336.273l-.638.516.182 3.34 1.822.406q1.428-4.566 1.701-4.961.274-.395.152-2.258.05-.637-1.043-.637-1.133 0-1.042-.517l.141-.415q.112-.385.091-.476.09-.024.208-.024.177 0 .42.055.23.02.396.02.333 0 .414-.081.122-.122.081-.334l-.324-.112q-.111-.06-.04-.202l.455-.04q-.162-.345.04-.456l.058.002q.216 0 .216-.144-.07-.132-.283-.486-.213-.354-.517-.455-.136-.044-.27-.044-.176 0-.347.074-.304.121-.577.192l-.051-.121q.253-.06.526-.203.264-.136.491-.136.228 0 .42.136-.05-.182-.141-.273-.176-.045-.358-.045zm3.922 9.562l-3.726 2.581 4.16 1.256q-.14-2.886.386-3.837zm-6.652 2.43q-.425 1.63.506 2.834.835.498 1.879.498.717 0 1.533-.235.837-.245 1.638-.245 1.119 0 2.169.478-.182-.637-2.977-2.085l-4.748-1.246zM29.636 0q.324 0 .651.05 1.134.131 1.66 1.559.071.385.345.719.273.324.354.719 0 .222-.283.232-.284.01-.071.193.09.02.07.09-.01.072-.07.092.131.142 0 .192-.142.061-.102.203.03.152-.05.374-.081.233-.81.233l-.628-.09q.04.151-.05.364 1.822.02 2.267.79 1.53 1.275 2.906 2.703.273-.567 1.245-1.55.962-.971 1.124-1.427.334-.992 1.428-1.883.243.182 0 .587l.455.73q.132.475-.253.799-.587.354-1.205.75-1.7 3.016-2.49 3.26-.044.006-.091.006-.601 0-1.802-1.07-1.19-1.04-1.412-1.04-.078 0-.036.129 0 .658-.274 1.124-.273.465-1.336 4.232l3.31-2.47q.75-.68 1.317-.68 1.59.021 1.407 1.317l-.567 4.04q1.205.293 1.114 1.812.546.111 1.002.314.368.159.743.159.079 0 .158-.007l.054-.002q.413 0 .584.447H24.213q.41-.804 1.112-.804.146 0 .305.035.153.034.29.034.676 0 .945-.834.2-.632.576-.632.215 0 .487.207-.729-1.408-.04-2.957-.03-1.68-.142-2.996-2.38.749-3.149.749Q24 10.74 24 10.285q.526-2.045 2.43-4.566.385-.77 1.974-.84.273-.364.294-.638-.658-.152-1.104-.688-.456-.537-.445-1.742.01-1.194 1.042-1.559Q28.906 0 29.636 0z"/><path d="M26.646 0L24 2.646v.708L27.177.177 27.354 0zm3 0L24 5.646v.708L30.177.177 30.354 0zm2.504.496L24 8.646v.708l8.15-8.15V.496zm0 3L24 11.646v.708l8.15-8.15v-.708zm0 3L24 14.646v.708l8.15-8.15v-.708zm0 3L24 17.646V18h.354l7.796-7.796v-.708zm0 3l-5.327 5.327-.177.177h.708l4.796-4.796v-.708zm0 3l-2.327 2.327-.177.177h.708l1.796-1.796v-.708zM2.646 0L0 2.646v.708L3.177.177 3.354 0zm3 0L0 5.646v.708L6.177.177 6.354 0zm3 0L0 8.646v.708L9.177.177 9.354 0zm3 0L0 11.646v.708L12.177.177 12.354 0zm3 0L0 14.646v.708L15.177.177 15.354 0zm3 0L0 17.646V18h.354L18.177.177 18.354 0zm3 0L2.823 17.823 2.646 18h.708L21.177.177 21.354 0zM22 1.646L5.823 17.823 5.646 18h.708L22 2.354v-.708zm0 3L8.823 17.823 8.646 18h.708L22 5.354v-.708zm0 3L11.823 17.823l-.177.177h.708L22 8.354v-.708zm0 3l-7.177 7.177-.177.177h.708L22 11.354v-.708zm0 3l-4.177 4.177-.177.177h.708L22 14.354v-.708zm0 3l-1.177 1.177-.177.177h.708l.646-.646v-.708z"/></svg>