<svg xmlns="http://www.w3.org/2000/svg" width="198.837" height="18"><path d="M197.19 0c.336 0 .67.026.995.066.447.113.217.626-.18.626a.476.476 0 0 1-.082-.008c-.839.097-1.872.15-2.506.626-.84.916-.463 2.821-.56 3.725-.008.05-.01 3.653-.01 5.48a6.145 6.145 0 0 1 2.634-.586c.402 0 .801.04 1.188.117.44.231-.077.528-.423.528a.454.454 0 0 1-.114-.013c-1.227.133-2.62.461-3.243 1.602-.062.206-.024.277.07.277.207 0 .68-.342.947-.342.014 0 .027 0 .04.003a7.535 7.535 0 0 1 1.58-.169c.39 0 .776.031 1.148.095.421.278-.095.534-.437.534a.532.532 0 0 1-.105-.01c-1.252.151-2.637.49-3.243 1.633-.007 1.27 0 2.11-.034 3.278.015.36-.22.538-.456.538-.235 0-.473-.176-.474-.526.008-1.15.09-2.161-.06-3.277-.305-1.253-2.478-1.445-3.828-1.754-.294-.347.285-.475.659-.475.056 0 .107.003.15.008.173-.013.347-.02.521-.02.883 0 1.772.175 2.558.58.032-.755-.712-1.19-1.244-1.493-.84-.361-1.766-.397-2.644-.59-.313-.273.18-.501.522-.501a.58.58 0 0 1 .125.012c.215-.02.431-.031.647-.031.903 0 1.805.183 2.615.582-.017-2.851-.063-5.61.019-8.308.065-.834.546-1.6 1.354-1.849C195.9.094 196.546 0 197.19 0z"/><path d="M191.646 0l-1.707 1.708v.707l2.238-2.238.177-.177zm3 0l-4.707 4.708v.707l5.238-5.238.177-.177zm3 0l-7.707 7.708v.707l8.238-8.238.177-.177zm1.191 1.81l-8.898 8.898v.707l8.898-8.899V1.81zm0 3l-8.898 8.898v.707l8.898-8.899V4.81zm0 3l-8.898 8.898v.707l8.898-8.899V7.81zm0 3l-7.014 7.013-.177.177h.708l6.483-6.484v-.707zm0 3l-4.014 4.013-.177.177h.708l3.483-3.484v-.707zm0 3l-1.014 1.013-.177.177h.708l.483-.484v-.707zM200.646 0l-1.809 1.81v.706l2.035-2.034V0zm.226 2.774l-2.035 2.035v.707l2.035-2.034v-.708zm0 3l-2.035 2.035v.707l2.035-2.034v-.708zm0 3l-2.035 2.035v.707l2.035-2.034v-.708zm0 3l-2.035 2.035v.707l2.035-2.034v-.708zm0 3l-2.035 2.035v.707l2.035-2.034v-.708zM173.195 2.99q-.557 0-1.086.606 4.368 5.2 5.46 5.81.815.457 1.434.457.21 0 .4-.053.74-.208 1.585-.234h.042q.829 0 1.817.988h.13q-.702-1.638-1.963-2.34-1.26-.702-7.397-5.148-.213-.085-.422-.085zm7.731-2.369q-.065 0-.133.01v6.683q2.054 1.196 2.834 3.354-1.196-8.268-1.677-9.204-.433-.843-1.024-.843zm5.356 10.468q.08 0 .153.138.13.247-.234.689-.208-.546-.052-.741.07-.086.133-.086zm-.036-.372q-.153 0-.33.237-.39.52.233 2.08.702-1.352.43-1.976-.15-.34-.333-.34zm-6.805 2.577v.39q.286-.026.442-.182-.052-.078-.208-.208zm-.598.884l-2.418.338-.494.884q.832-.234 1.833-.624t1.08-.598zm5.33-.364l-.468.234-.156 1.118.416 1.274h.65l-.442-1.274v-1.352zm-1.118.39l-.442.13-.156.832.416 1.274h.65l-.442-1.274-.026-.962zm-1.534.156l-.156.806.416 1.274h.65l-.442-1.274v-.78l-.468-.026zm.994-3.234q-.415 0-.89.1-1.404.3-1.768 1.418h-1.092l-.416-.676q-5.512 1.274-6.214 4.602 1.508-.832 3.172-1.118l.728-1.456 2.886-.39-.078-.702h.988q1.092.9 2.228.9.244 0 .49-.042 1.39-.234 1.82-.95.428-.714-.456-1.3-.585-.386-1.398-.386zM180.67 0q.947 0 1.488.658.663.806 1.235 4.238l.91 5.954q.442.468.676.52h.312q.026-.65.494-1.196.416-3.978-.364-6.968l.312-.598q1.118 3.38.546 7.592h.078q1.794-4.03.52-7.592l.312-.468q1.664 3.796-.364 8.242.572 1.248.117 2.054-.455.806-.559 1.508l-.182.13q-.702-1.04-.806-1.794h-.26q-.026.598-.338 1.248l-.182 1.638.442 1.274h2.262v.624h-6.526v-.624h.546l-.416-1.274-.026-.962q-.468-.156-.702-.364-.338.312-.754.312.026.26-.104.442-1.04.806-3.718 1.404l-.91 1.768q0-.434-.27-.434-.085 0-.198.044l.728-1.3q-1.508.338-2.288.858-.416.442.052 1.066-1.04-.442-1.17-1.248.416-3.926 7.046-5.46l.468.78h.416q.338-1.092 2.678-1.508-.522-.388-1.284-.388-.415 0-.9.115-.492.116-.961.116-.844 0-1.613-.376-1.196-.585-6.084-6.461.9-1.136 1.905-1.136.329 0 .669.122l6.318 4.524V.034q.235-.034.449-.034z"/><path d="M173.646 0l-2.317 2.318v.707l2.848-2.848.177-.177zm3 0l-5.317 5.318v.707l5.848-5.848.177-.177zm3 0l-8.317 8.318v.707l8.848-8.848.177-.177zm3 0L171.33 11.318v.707L183.177.177l.177-.177zm3 0L171.33 14.318v.707L186.177.177l.177-.177zm2.293.708l-16.61 16.61V18h.025l16.585-16.585V.708zm0 3l-14.116 14.115-.177.177h.708l13.585-13.585v-.707zm0 3l-11.116 11.115-.177.177h.708l10.585-10.585v-.707zm0 3l-8.116 8.115-.177.177h.708l7.585-7.585v-.707zm0 3l-5.116 5.115-.177.177h.708l4.585-4.585v-.707zm0 3l-2.116 2.115-.177.177h.708l1.585-1.585v-.707z"/><path d="M188.646 0l-.707.708v.707l1.238-1.238.177-.177zm1.399 1.602l-2.106 2.106v.707l2.106-2.106v-.707zm0 3l-2.106 2.106v.707l2.106-2.106v-.707zm0 3l-2.106 2.106v.707l2.106-2.106v-.707zm0 3l-2.106 2.106v.707l2.106-2.106v-.707zm0 3l-2.106 2.106v.707l2.106-2.106v-.707zm0 3l-1.222 1.221-.177.177h.708l.69-.691v-.707zM149.646 0l-2.317 2.318v.707l2.848-2.848.177-.177zm3 0l-5.317 5.318v.707l5.848-5.848.177-.177zm3 0l-8.317 8.318v.707l8.848-8.848.177-.177zm3 0L147.33 11.318v.707L159.177.177l.177-.177zm3 0L147.33 14.318v.707L162.177.177l.177-.177zm3 0L147.33 17.318V18h.025L165.177.177l.177-.177zm3 0l-17.823 17.823-.177.177h.708L168.177.177l.177-.177zm1.683 1.318l-16.506 16.505-.177.177h.708l15.975-15.975v-.707zm0 3l-13.506 13.505-.177.177h.708l12.975-12.975v-.707zm0 3l-10.506 10.505-.177.177h.708l9.975-9.975v-.707zm0 3l-7.506 7.505-.177.177h.708l6.975-6.975v-.707zm0 3l-4.506 4.505-.177.177h.708l3.975-3.975v-.707zm0 3l-1.506 1.505-.177.177h.708l.975-.975v-.707zM170.646 0l-1.317 1.318v.707l1.848-1.848.152-.152V0zm.683 2.318l-2 2v.707l2-2v-.707zm0 3l-2 2v.707l2-2v-.707zm0 3l-2 2v.707l2-2v-.707zm0 3l-2 2v.707l2-2v-.707zm0 3l-2 2v.707l2-2v-.707zm0 3l-.506.505-.177.177h.683v-.682zM125.646 0l-2.317 2.318v.707l2.848-2.848.177-.177zm3 0l-5.317 5.318v.707l5.848-5.848.177-.177zm3 0l-8.317 8.318v.707l8.848-8.848.177-.177zm3 0L123.33 11.318v.707L135.177.177l.177-.177zm3 0L123.33 14.318v.707L138.177.177l.177-.177zm3 0L123.33 17.318V18h.025L141.177.177l.177-.177zm3 0l-17.823 17.823-.177.177h.708L144.177.177l.177-.177zm1.683 1.318l-16.506 16.505-.177.177h.708l15.975-15.975v-.707zm0 3l-13.506 13.505-.177.177h.708l12.975-12.975v-.707zm0 3l-10.506 10.505-.177.177h.708l9.975-9.975v-.707zm0 3l-7.506 7.505-.177.177h.708l6.975-6.975v-.707zm0 3l-4.506 4.505-.177.177h.708l3.975-3.975v-.707zm0 3l-1.506 1.505-.177.177h.708l.975-.975v-.707z"/><path d="M146.646 0l-1.317 1.318v.707l1.848-1.848.152-.152V0zm.683 2.318l-2 2v.707l2-2v-.707zm0 3l-2 2v.707l2-2v-.707zm0 3l-2 2v.707l2-2v-.707zm0 3l-2 2v.707l2-2v-.707zm0 3l-2 2v.707l2-2v-.707zm0 3l-.506.505-.177.177h.683v-.682z"/><path d="M113.641.375v17.25m7.688-17.25c-9.625 0-9.625 17.25 0 17.25m0 0" fill="none" stroke="#000"/><path d="M105.672.597a2.12 2.12 0 0 0-.692.109c.03.223.168.569.953.773-.73-.053-1.207-.113-1.453-.307-.089.2-.137.427-.158.556a.297.297 0 0 1-.206.237c-.625.191-1.174 1.112-1.701 1.763-.95 1.173-1.77 2.48-2.687 3.733.423-.207.845-.415 1.27-.622 1.182-.622 2.394-1.11 3.406-1.877.59-.49 1.172-.996 1.391-1.641.076-.497-.296-1.074-.767-1.279a.297.297 0 1 1 .238-.545c.376.164.699.458.904.817a1.986 1.986 0 0 0-.075-.448.297.297 0 0 1-.013-.104c.01-.184.042-.313.082-.422.04-.109.085-.206.158-.459a.297.297 0 0 1 .104-.153 1.546 1.546 0 0 0-.527-.125c-.043-.003-.083-.003-.125-.004a.258.258 0 1 1-.102-.002zm-1.194 5.432c-.605.466-1.253.873-1.888 1.28.005.438-.006.879-.047 1.321.207-.135.434-.236.697-.3.391-.636.82-1.22 1.083-1.842a4.64 4.64 0 0 0 .155-.46zm.249 1c-.273.549-.621 1.04-.928 1.529.058.04.112.08.154.121l.027.027c.17-.194.375-.351.614-.454-.01-.348.047-.768.133-1.222zm-2.88.047a25.922 25.922 0 0 0-.588.297c-.78.38-1.56.772-2.35 1.148-.556.67-1.156 1.293-1.734 1.92l1.043.175 2.563-2.786a.297.297 0 0 1 .04-.036c.333-.253.678-.489 1.025-.718zm2.591 2.009c-.058.066-.112.14-.162.222a.298.298 0 0 1-.429.087c-.124-.09-.2-.177-.265-.244l-.077 1.413c.1-.006.2-.013.296-.013.166 0 .313.022.397.108.1-.078.28-.1.505-.1.057 0 .118.002.18.005l-.445-1.478zm5.419.999c-.452.062-.686.323-.704.783h1.395c0-.46-.23-.721-.691-.783zm-7.861-2.39a16.38 16.38 0 0 0-.798.56l-2.402 2.613h2.456c.17-.19.518-.365.776-.365a.37.37 0 0 1 .192.046c.081-.007.167-.01.256-.01.14 0 .285.007.433.016l.083-1.506c-.225.115-.407.282-.626.542a.297.297 0 0 1-.52-.246 9.773 9.773 0 0 0 .15-1.65zm6.24 3.745l.266.465h1.249l.252-.465zm-4.516 0v2.51l1.727-2.51zM105.664 0a3.878 3.878 0 0 1 .273.01c.694.044 1.215.325 1.408.768a.298.298 0 0 1-.341.408l-.025-.006-.03.007-.108.029c-.054.168-.096.269-.12.332a.541.541 0 0 0-.042.2 3.1 3.1 0 0 1 .037 1.389c-.095.466-.384.977-.761 1.46a.295.295 0 0 1-.014.108 21.24 21.24 0 0 0-.548 2.027c-.153.708-.234 1.387-.192 1.684a.297.297 0 0 1-.223.33l-.02.005.528 1.75c.085-.013.172-.018.259-.018.256 0 .51.041.712.041a.865.865 0 0 0 .184-.016.314.314 0 0 1 .068-.007c.212 0 .656.13.787.366h1.1c.061-.797.482-1.235 1.26-1.315.789.08 1.196.518 1.223 1.315v.572h-.531l-.545 1.01h-1.767l-.53-1.01h-1.568l-2.404 3.493V18h-.571v-6.561h-4.517v-.41l-.1.109a.297.297 0 0 1-.267.092l-1.74-.292a.298.298 0 0 1-.173-.492c.217-.242.436-.48.656-.716l-1.656 1.078a.296.296 0 0 1-.412-.087.297.297 0 0 1 .087-.411l1.345-.876a.292.292 0 0 1-.076-.09.315.315 0 0 1-.02-.237c.016-.05.034-.074.048-.093.055-.076.084-.088.123-.119.04-.03.083-.06.131-.094.096-.065.206-.137.301-.2a4.156 4.156 0 0 0 .216-.156l2.379-1.672.008-.005c.805-1.13 1.568-2.316 2.457-3.414.433-.535.937-1.524 1.812-1.894.048-.262.156-.68.483-.997.353-.344.864-.463 1.416-.463zM71.646 0l-.736.736v.707L72.177.177 72.354 0zm3 0L70.91 3.736v.707L75.177.177 75.354 0zm3 0L70.91 6.736v.707L78.177.177 78.354 0zm3 0L70.91 9.736v.707L81.177.177 81.354 0zm3 0L70.91 12.736v.707L84.177.177 84.354 0zm3 0L70.91 15.736v.707L87.177.177 87.354 0zm3 0L71.823 17.823l-.177.177h.708L90.177.177 90.354 0zm3 0L74.823 17.823l-.177.177h.708L92.91.443V0zm.264 2.736L77.823 17.823l-.177.177h.708L92.91 3.443v-.707zm0 3L80.823 17.823l-.177.177h.708L92.91 6.443v-.707zm0 3l-9.087 9.087-.177.177h.708l8.556-8.557v-.707zm0 3l-6.087 6.087-.177.177h.708l5.556-5.557v-.707zm0 3l-3.087 3.087-.177.177h.708l2.556-2.557v-.707z"/><path d="M92.91 0v.443l.267-.266.177-.177zm2 .736l-2 2v.707l2-2V.736zm0 3l-2 2v.707l2-2v-.707zm0 3l-2 2v.707l2-2v-.707zm0 3l-2 2v.707l2-2v-.707zm0 3l-2 2v.707l2-2v-.707zm0 3l-2 2V18h.444l1.556-1.557v-.707zM43.477 7.458v1.656c.565 0 .848-.283.848-.848 0-.539-.283-.808-.848-.808zM41.382 0c.463 0 .855.116 1.176.35.612.443.919 1.09.919 1.938v4.584c.942 0 1.42.465 1.433 1.394 0 .942-.477 1.413-1.433 1.413V18h-.747V2.732c0-1.023-.198-1.68-.596-1.969-.205-.15-.475-.225-.838-.225-.337 0-.754.065-1.273.195a.65.65 0 0 1-.212.043c-.111 0-.189-.048-.232-.144-.014-.162.108-.276.363-.343C40.481.096 40.961 0 41.382 0zm-8.169.601c-1.074 0-2.419.552-3.07 1.202-.568.57-.643 1.324-.663 2.025h7.434c-.02-.7-.095-1.455-.664-2.025-.65-.65-1.963-1.202-3.037-1.202zm0-.601c1.274 0 2.645.589 3.448 1.392.824.824.918 1.91.918 2.72v.317h-8.732v-.316c0-.812.062-1.897.886-2.72C30.536.588 31.939 0 33.213 0zM34.4 9.627c5.438 1.9 2.903 9.54-2.195 8.228-5.054-1.302-4.046-9.318 2.195-8.228m-.243.698c-5.418-.787-5.64 5.768-1.708 6.812 3.846 1.022 6.482-5.13 1.708-6.812m-1.189 1.152c-1.082-.74.885-.487 0-.018v.018m1.985.433c-1.227-.397.344-.795 0-.073v.073m-2.992-.712v.732l-.731-.244.73-.488m3.572 2.066c-.904-.795.595-.885.108-.09l-.108.09m-2.84-.846l.245.731-.732-.487.488-.244m1.051.358l.073-.017c.668-.489 1.39 1.767-.073.017m-3.013-.397c.956.56-.162.703-.254.703l.254-.703m2.938 1.502l-.244.244-.488-.732.732.488m-1.675-.474l.469.019c-.559.866-.757.793-.469-.019m3.681 1.517c-.884-.74.434-.632.415-.488l-.415.488m-1.01-.903l-.22.305c-.719-.215-.34-.792.22-.305m-3.435.836l-.244.244-.488-.732.732.488m1.323.012c.758-.378.92-.27.47.344l-.47-.344m2.579.72l-.245.731-.487-.732h.732m-3.246-.465l.45.54c-.107.217-1.1.145-.45-.54m1.539.71l.244.731h-.732l.488-.732zM26.847 5.325v7.35h-.735v-7.35zm-4.37 0v7.35h-.736v-7.35zm-4.371 0v7.35h-.735v-7.35zm-4.37 0v7.35H13v-7.35zM0 0v.354L.177.177.354 0zm2.646 0L0 2.646v.708L3.177.177 3.354 0zm3 0L0 5.646v.708L6.177.177 6.354 0zm3 0L0 8.646v.708L9.177.177 9.354 0zM11 .646l-11 11v.708l11-11V.646zm0 3l-11 11v.708l11-11v-.708zm0 3l-11 11V18h.354L11 7.354v-.708zm0 3l-8.177 8.177-.177.177h.708L11 10.354v-.708zm0 3l-5.177 5.177-.177.177h.708L11 13.354v-.708zm0 3l-2.177 2.177-.177.177h.708L11 16.354v-.708z"/></svg>