<svg xmlns="http://www.w3.org/2000/svg" width="243.775" height="18"><path d="M242.128 0c.335 0 .67.026.994.066.447.113.218.626-.18.626a.476.476 0 0 1-.082-.008c-.839.097-1.872.15-2.506.626-.84.916-.463 2.821-.56 3.725-.008.05-.01 3.653-.01 5.48a6.145 6.145 0 0 1 2.634-.586c.402 0 .802.04 1.188.117.44.231-.077.528-.423.528a.454.454 0 0 1-.114-.013c-1.226.133-2.62.461-3.243 1.602-.062.206-.023.277.07.277.207 0 .68-.342.947-.342.014 0 .027 0 .04.003a7.535 7.535 0 0 1 1.58-.169c.39 0 .776.031 1.149.095.42.278-.096.534-.438.534a.532.532 0 0 1-.105-.01c-1.252.151-2.637.49-3.243 1.633-.007 1.27 0 2.11-.034 3.278.015.36-.219.538-.456.538-.235 0-.473-.176-.474-.526.008-1.15.09-2.161-.06-3.277-.305-1.253-2.478-1.445-3.827-1.754-.295-.347.285-.475.658-.475.056 0 .107.003.15.008.173-.013.347-.02.522-.02.882 0 1.77.175 2.557.58.032-.755-.712-1.19-1.244-1.493-.84-.361-1.766-.397-2.643-.59-.314-.273.18-.501.521-.501a.58.58 0 0 1 .125.012c.215-.02.431-.031.648-.031.902 0 1.804.183 2.614.582-.017-2.851-.063-5.61.019-8.308.066-.834.546-1.6 1.354-1.849.581-.264 1.227-.358 1.872-.358z"/><path d="M236.646 0l-1.77 1.77v.708l2.3-2.301.178-.177zm3 0l-4.77 4.77v.708l5.3-5.301.178-.177zm3 0l-7.77 7.77v.708l8.3-8.301.178-.177zm1.129 1.872l-8.899 8.898v.708l8.899-8.899v-.707zm0 3l-8.899 8.898v.708l8.899-8.899v-.707zm0 3l-8.899 8.898v.708l8.899-8.899v-.707zm0 3l-6.952 6.951-.177.177h.708l6.42-6.421v-.707zm0 3l-3.952 3.951-.177.177h.708l3.42-3.421v-.707zm0 3l-.952.951-.177.177h.708l.42-.421v-.707zM245.646 0l-1.871 1.872v.707l2.034-2.035V0zm.163 2.837l-2.034 2.035v.707l2.034-2.035v-.707zm0 3l-2.034 2.035v.707l2.034-2.035v-.707zm0 3l-2.034 2.035v.707l2.034-2.035v-.707zm0 3l-2.034 2.035v.707l2.034-2.035v-.707zm0 3l-2.034 2.035v.707l2.034-2.035v-.707zM218.133 2.99q-.557 0-1.087.606 4.368 5.2 5.46 5.81.815.457 1.434.457.211 0 .4-.053.74-.208 1.585-.234h.043q.828 0 1.817.988h.13q-.702-1.638-1.964-2.34-1.26-.702-7.397-5.148-.212-.085-.421-.085zm7.73-2.369q-.065 0-.133.01v6.683q2.055 1.196 2.835 3.354-1.196-8.268-1.678-9.204-.432-.843-1.023-.843zm5.356 10.468q.081 0 .154.138.13.247-.234.689-.208-.546-.052-.741.068-.086.132-.086zm-.036-.372q-.153 0-.33.237-.39.52.234 2.08.702-1.352.429-1.976-.15-.34-.333-.34zm-6.805 2.577v.39q.286-.026.442-.182-.052-.078-.208-.208zm-.598.884l-2.418.338-.494.884q.832-.234 1.833-.624t1.08-.598zm5.33-.364l-.467.234-.156 1.118.416 1.274h.65l-.442-1.274v-1.352zm-1.117.39l-.442.13-.156.832.416 1.274h.65l-.442-1.274-.026-.962zm-1.535.156l-.156.806.416 1.274h.65l-.442-1.274v-.78l-.468-.026zm.995-3.234q-.416 0-.89.1-1.405.3-1.769 1.418h-1.092l-.416-.676q-5.512 1.274-6.214 4.602 1.508-.832 3.172-1.118l.728-1.456 2.886-.39-.078-.702h.988q1.092.9 2.229.9.243 0 .489-.042 1.39-.234 1.82-.95.429-.714-.455-1.3-.585-.386-1.398-.386zM225.607 0q.948 0 1.488.658.664.806 1.236 4.238l.91 5.954q.442.468.676.52h.312q.026-.65.494-1.196.416-3.978-.364-6.968l.312-.598q1.118 3.38.546 7.592h.078q1.794-4.03.52-7.592l.312-.468q1.664 3.796-.364 8.242.572 1.248.117 2.054-.455.806-.56 1.508l-.181.13q-.702-1.04-.806-1.794h-.26q-.026.598-.338 1.248l-.182 1.638.442 1.274h2.262v.624h-6.527v-.624h.546l-.416-1.274-.026-.962q-.468-.156-.702-.364-.338.312-.754.312.026.26-.104.442-1.04.806-3.718 1.404l-.91 1.768q0-.434-.269-.434-.086 0-.199.044l.728-1.3q-1.508.338-2.288.858-.416.442.052 1.066-1.04-.442-1.17-1.248.416-3.926 7.046-5.46l.468.78h.416q.338-1.092 2.678-1.508-.522-.388-1.284-.388-.414 0-.9.115-.492.116-.96.116-.845 0-1.614-.376-1.196-.585-6.084-6.461.901-1.136 1.905-1.136.33 0 .67.122l6.317 4.524V.034q.235-.034.45-.034z"/><path d="M206.766.375c9.625 0 9.625 17.25 0 17.25" fill="none" stroke="#000"/><path d="M200.545 7.938c.68.054 1.057.394 1.129 1.022-.09.68-.466 1.04-1.13 1.075-.663-.036-1.012-.394-1.048-1.075.054-.628.403-.968 1.049-1.022zm-.081-2.259c-.484 0-.932.09-1.345.27a3.545 3.545 0 0 0-1.828 1.815 3.11 3.11 0 0 0-.269 1.276c0 .466.09.901.269 1.304a3.422 3.422 0 0 0 3.173 2.03c.484 0 .937-.085 1.358-.255.421-.17.784-.408 1.089-.712.305-.305.547-.66.726-1.063.18-.403.269-.838.269-1.304 0-.448-.09-.874-.27-1.277a3.67 3.67 0 0 0-.725-1.075 3.302 3.302 0 0 0-1.09-.74 3.431 3.431 0 0 0-1.357-.269zm.054-.914a4.17 4.17 0 0 1 1.667.336c.52.224.968.529 1.344.914.377.386.677.834.901 1.345.224.51.336 1.062.336 1.653 0 .592-.112 1.143-.336 1.654a4.31 4.31 0 0 1-.9 1.331 4.267 4.267 0 0 1-3.012 1.237 4.071 4.071 0 0 1-1.654-.336 4.48 4.48 0 0 1-1.344-.9 4.195 4.195 0 0 1-.915-1.332 4.071 4.071 0 0 1-.336-1.654c0-.591.112-1.142.336-1.653a4.358 4.358 0 0 1 2.259-2.259 4.071 4.071 0 0 1 1.654-.336zM190.964.46q.11 1.162.11 2.603 0 1.442-.14 2.914.32-.17 1.001-.17.691 0 1.001.17-.15-1.472-.14-2.914.01-1.441.11-2.602zm.971 5.967q-.68.01-1.381.36l.18.33q.142-.024.265-.024.426 0 .636.295.12-.53.3-.65.18.12.31.65.21-.295.637-.295.123 0 .265.025l.18-.33q-.72-.35-1.392-.36zm0 .961q-.15.12-.1.35.05.23.1.441.06-.21.11-.44t-.11-.35zm-.911.002q-.057 0-.12.008.681 1.622 1.031 1.622.34 0 1.052-1.622-.065-.008-.122-.008-.365 0-.47.329-.13.37-.27.6-.15.24-.19.24-.05 0-.18-.24-.14-.23-.26-.6-.112-.329-.471-.329zM193.497 0q-.48 3.404.01 6.137.891.42.74.71-.109.22-.251.22-.052 0-.108-.03-.871.982-1.432 2.313-.22 2.193.06 7.579 0 1.071-.56 1.071h-.031q-.56 0-.56-1.071.27-5.386.06-7.579-.55-1.331-1.422-2.312-.056.03-.108.03-.142 0-.252-.22-.15-.29.73-.711.501-2.733 0-6.137zm-9.562 3.071c.27.13.6.49.1.55-.24-.01-.79-.26-.69-.49.052.05.104.067.157.067.142 0 .288-.127.433-.127zm1.971.09c.33.08.5.44.08.52l-.022.002c-.242 0-.9-.294-.358-.361.09-.06.18-.16.3-.16zm-2.631-2.51c-.59.69-1.11 1.49-1.21 2.41-.1.66-.13 1.321-.23 1.971.47-.04.33-.77.24-1.12-.08-.69.29-1.33.55-1.941.18-.33.35-.85.81-.86.51.09.84.52 1.17.89.34-.34.7-.71 1.171-.85a.236.236 0 0 1 .081-.013c.106 0 .229.046.286.046.049 0 .048-.034-.057-.164-.063-.224-.195-.29-.359-.29-.238 0-.542.141-.799.141a.561.561 0 0 1-.112-.01 5.42 5.42 0 0 1-.254.007c-.438 0-.876-.067-1.287-.218zm.16.76c-.39.1-.48.64-.67.96-.24.56-.53 1.17-.34 1.801.15.3-.04.68-.02.9.333.235.626.73 1.069.73a.631.631 0 0 0 .151-.02c.44-.09.66-.51 1-.71.247.238.393.73.798.73a.607.607 0 0 0 .183-.03c.37-.08.86-.04.97-.49.19-.46.21-.97.24-1.47a.324.324 0 0 1-.06.006c-.203 0-.221-.235-.24-.436-.077-.293-.287-.429-.52-.429a.762.762 0 0 0-.47.178c-.17.19-.69.34-.58.64.05.18.11.371.17.561l-.42.56c-.04-.29-.47-.53-.22-.82.04-.13.19-.3.17-.4-.18-.32-.42-.6-.7-.84a.322.322 0 0 0-.23-.103c-.268 0-.538.351-.771.382-.23-.25.02-.35.25-.48a.701.701 0 0 1 .486-.196c.25 0 .5.13.654.356.19.114.323.494.49.494.052 0 .108-.037.17-.134.306-.244.672-.518 1.073-.518a.84.84 0 0 1 .178.018c.283.059.538.632.56.632v-.001c.01-.47-.21-.89-.34-1.351a.612.612 0 0 0-.596-.477.596.596 0 0 0-.474.237c-.298.11-.516.634-.796.634-.05 0-.1-.017-.155-.054-.31-.33-.56-.72-1.01-.86zm1.42 6.943c-1.27 1.31-2.44 4.632-2.74 5.993.49-.4 1.16-.66 1.31-.91.16-.26.6-2.792 1.43-5.083zm-4.522-2.381c-2.4 1.38-6.583 8.174-7.473 9.264 1.5-.95 2.981-1.91 4.592-2.691 2.261-1.11 4.192-2.911 6.033-4.592-1.52-.51-2.611-1.37-3.152-1.981zm2.492 8.624c-.32.19-.61.45-.96.59.21.52.34 1.1.77 1.51.08.13.196.172.327.172.228 0 .504-.123.736-.123a.37.37 0 0 1 .047.002c-.28-.7-.7-1.01-.92-2.151zm-.68-9.365c-.061.126-.139.167-.22.167-.108 0-.224-.071-.321-.116-.24.17-1.07.15-.58.51.31.42 1.967 1.566 3.119 1.768.497.087-.338.873-.608 1.153-1.56 1.4-3.092 2.882-4.962 3.892-1.171.66-2.402 1.25-3.532 1.98-.54.781-1.18 1.502-1.59 2.362.41.12.81.29 1.23.39.221.056.462.082.702.082.661 0 1.325-.197 1.619-.512.54-.57 1.13-3.001 1.44-3.892.045-.1.107-.133.175-.133.135 0 .292.132.37.132a.041.041 0 0 0 .036-.019.391.391 0 0 1 .386-.376c.176 0 .339.127.314.396.06.63.18 1.26.48 1.831.037.097.114.134.215.134.284 0 .761-.293 1.086-.374-.13-.77.92-4.712 4.002-8.014.108-.116.577-.611.536-.611-.005 0-.016.006-.036.02a2.06 2.06 0 0 1-.511.07c-.338 0-.669-.104-.84-.42-.026-.077-.058-.108-.096-.108-.137 0-.344.399-.564.399a.92.92 0 0 1-.514.155c-.29 0-.578-.131-.776-.355-.19-.17-.37-.34-.56-.51zM183.184 0c.314.14.865.28 1.36.28.071 0 .142-.004.21-.01a.804.804 0 0 0 .143.012c.337 0 .7-.18 1.025-.18.124 0 .243.026.353.098.55.8 1.05 1.69 1.11 2.681.11 1.901.06 2.562-1.44 4.122-.59 1.341-1.69 5.713-2.02 6.904-.361.34.45 2.2.79 2.66.185.256.672.268 1.196.268h.172c.471 0 .948.01 1.243.193.28.18.38.85.22.94-.15-.23-.45-.54-.66-.57.2.21-.5.11-.65.16-.405.007-.815.041-1.225.041-.199 0-.398-.008-.597-.03-.09-.04-.186-.102-.228-.102-.033 0-.033.038.028.151a3.675 3.675 0 0 1-.912.111c-.7 0-1.363-.187-1.509-.56-.3-.551-.58-1.131-.78-1.732-.256.054-.577.234-.834.234a.38.38 0 0 1-.207-.054c-.28-.19-.57-1.08-.73-1.67-.015-.062-.099-.092-.183-.092-.08 0-.163.028-.187.082-.3.6-.8 2.44-1.28 3.211-.363.571-1.242.852-2.176.852a4.48 4.48 0 0 1-1.717-.332c-.65-.28-1.13-.22-.99-.58.22-.6.6-1.17 1-1.68-.58.36-1.16.73-1.74 1.09-.048.174-.169.243-.292.243-.236 0-.482-.256-.239-.513 2.271-3.282 5.883-8.875 8.384-10.685.4-.35.87-.62 1.39-.75.17-.44.12-1.031.221-1.531.1-.99.7-2.632 1.75-3.262zm-33.538 0l-2.305 2.306v.707l2.836-2.836.177-.177zm3 0l-5.305 5.306v.707l5.836-5.836.177-.177zm3 0l-8.305 8.306v.707l8.836-8.836.177-.177zm3 0l-11.305 11.306v.707L159.177.177l.177-.177zm3 0l-14.305 14.306v.707L162.177.177l.177-.177zm3 0l-17.305 17.306V18h.013L165.177.177l.177-.177zm3 0l-17.823 17.823-.177.177h.708L168.177.177l.177-.177zm1.695 1.306l-16.518 16.517-.177.177h.708L169.34 2.013v-.707zm0 3l-13.518 13.517-.177.177h.708L169.34 5.013v-.707zm0 3l-10.518 10.517-.177.177h.708l9.987-9.987v-.707zm0 3l-7.518 7.517-.177.177h.708l6.987-6.987v-.707zm0 3l-4.518 4.517-.177.177h.708l3.987-3.987v-.707zm0 3l-1.518 1.517-.177.177h.708l.987-.987v-.707z"/><path d="M170.646 0l-1.305 1.306v.707l1.836-1.836.164-.164V0zm.695 2.306l-2 2v.707l2-2v-.707zm0 3l-2 2v.707l2-2v-.707zm0 3l-2 2v.707l2-2v-.707zm0 3l-2 2v.707l2-2v-.707zm0 3l-2 2v.707l2-2v-.707zm0 3l-.518.517-.177.177h.695v-.694z"/><path d="M137.653.375v17.25M145.34.375c-9.624 0-9.624 17.25 0 17.25m0 0" fill="none" stroke="#000"/><path d="M129.683.597a2.12 2.12 0 0 0-.692.109c.032.223.17.569.953.773-.73-.053-1.206-.113-1.452-.307-.089.2-.137.427-.158.556a.297.297 0 0 1-.207.237c-.624.191-1.173 1.112-1.7 1.763-.95 1.173-1.771 2.48-2.688 3.733l1.27-.622c1.182-.622 2.395-1.11 3.407-1.877.589-.49 1.172-.996 1.39-1.641.077-.497-.296-1.074-.767-1.279a.297.297 0 1 1 .238-.545c.377.164.7.458.904.817a1.986 1.986 0 0 0-.074-.448.297.297 0 0 1-.013-.104c.01-.184.041-.313.082-.422.04-.109.085-.206.158-.459a.297.297 0 0 1 .104-.153 1.546 1.546 0 0 0-.527-.125c-.043-.003-.084-.003-.125-.004a.258.258 0 1 1-.103-.002zm-1.193 5.432c-.606.466-1.253.873-1.888 1.28.005.438-.006.879-.047 1.321.207-.135.434-.236.697-.3.391-.636.82-1.22 1.082-1.842.055-.129.106-.29.156-.46zm.249 1c-.273.549-.622 1.04-.929 1.529.059.04.112.08.155.121l.027.027a1.72 1.72 0 0 1 .613-.454c-.009-.348.047-.768.134-1.222zm-2.881.047a25.922 25.922 0 0 0-.588.297c-.78.38-1.56.772-2.349 1.148-.556.67-1.156 1.293-1.735 1.92l1.044.175 2.563-2.786a.297.297 0 0 1 .039-.036 18.5 18.5 0 0 1 1.026-.718zm2.592 2.009c-.058.066-.112.14-.162.222a.298.298 0 0 1-.429.087c-.125-.09-.2-.177-.265-.244l-.078 1.413c.1-.006.201-.013.296-.013.167 0 .314.022.398.108.1-.078.28-.1.504-.1.058 0 .118.002.181.005l-.445-1.478zm5.418.999c-.451.062-.686.323-.703.783h1.394c0-.46-.23-.721-.69-.783zm-7.86-2.39a16.38 16.38 0 0 0-.798.56l-2.403 2.613h2.456c.171-.19.519-.365.777-.365.073 0 .139.014.191.046.082-.007.168-.01.256-.01.14 0 .286.007.434.016l.082-1.506c-.224.115-.407.282-.625.542a.297.297 0 0 1-.52-.246c.1-.544.142-1.093.15-1.65zm6.24 3.745l.266.465h1.248l.253-.465zm-4.516 0v2.51l1.727-2.51zM129.676 0a3.878 3.878 0 0 1 .273.01c.694.044 1.215.325 1.407.768a.298.298 0 0 1-.34.408l-.025-.006-.03.007-.108.029c-.054.168-.096.269-.12.332a.541.541 0 0 0-.042.2c.154.552.094 1.107.037 1.389-.096.466-.384.977-.762 1.46a.295.295 0 0 1-.014.108 21.54 21.54 0 0 0-.548 2.027c-.152.708-.233 1.387-.192 1.684a.297.297 0 0 1-.223.33l-.018.005.526 1.75c.086-.013.173-.018.26-.018.256 0 .509.041.712.041a.865.865 0 0 0 .183-.016.314.314 0 0 1 .068-.007c.212 0 .657.13.787.366h1.1c.062-.797.482-1.235 1.261-1.315.789.08 1.196.518 1.223 1.315v.572h-.532l-.544 1.01h-1.767l-.531-1.01h-1.567l-2.405 3.493V18h-.57v-6.561h-4.517v-.41l-.1.109a.297.297 0 0 1-.267.092l-1.74-.292a.298.298 0 0 1-.173-.492c.216-.242.436-.48.656-.716l-1.657 1.078a.296.296 0 0 1-.411-.087.297.297 0 0 1 .087-.411l1.344-.876a.292.292 0 0 1-.076-.09.315.315 0 0 1-.02-.237.305.305 0 0 1 .048-.093c.056-.076.084-.088.124-.119l.13-.094c.096-.065.207-.137.302-.2a4.156 4.156 0 0 0 .216-.156l2.378-1.672.008-.005c.806-1.13 1.568-2.316 2.457-3.414.433-.535.938-1.524 1.812-1.894.049-.262.157-.68.484-.997.353-.344.864-.463 1.416-.463zm-17.703 1.343q.088.166.198.364l.187 1.091q0 .573-.187 1.07-.198.43-.496.771 1.995-.364 3.594-.54-1.004-.595-1.577-1.323-.584-.727-1.72-1.433zm-4.707-.088q-.607.044-2.04.915-1.433.86-2.954 1.422 1.113.066 2.425.474 1.323.397 2.778.595-.231-.275-.463-.782-.22-.508-.22-1.08 0-.585.21-1.092.11-.243.264-.452zm2.319-.508q-.38 0-.732.155-.375.155-.661.42-.287.253-.463.616-.144.364-.166.783-.022.419.133.783.165.364.418.65.265.298.629.463.364.154.782.165l.055.001q.378 0 .728-.144.375-.154.662-.408.275-.253.44-.617.155-.364.177-.794 0-.408-.155-.771-.143-.364-.396-.65-.265-.298-.629-.442-.363-.198-.771-.21h-.051zm.06-.747q.722 0 1.424.153 1.52.33 3.086 1.973 1.566 1.631 2.745 1.742l.022.771q-2.679.232-5.258.706-.965.177-2.03.177-1.782 0-3.845-.497-3.285-.794-4.167-.96h-1.455v-.947h1.499q1.07-.364 2.866-1.444 1.786-1.08 3.406-1.466.867-.208 1.708-.208zm5.222 15.57l2.055 2.43h-1.002l-1.053-1.255L113.804 18l-1.033-1.255L111.708 18l-1.053-1.255L109.592 18l-1.053-1.255L107.476 18l-1.032-1.255L105.38 18l-1.063-1.255L103.285 18l-1.063-1.255L101.169 18h-1.002l2.055-2.43 1.063 1.175 1.033-1.175 1.063 1.175 1.063-1.175 1.032 1.175 1.063-1.175 1.053 1.175 1.063-1.175 1.053 1.175 1.063-1.175 1.033 1.175 1.063-1.175zM77.646 0l-1.48 1.48v.707l2.01-2.01.178-.177zm3 0l-4.48 4.48v.707l5.01-5.01.178-.177zm3 0l-7.48 7.48v.707l8.01-8.01.178-.177zm3 0l-10.48 10.48v.707L87.177.177 87.355 0zm3 0l-13.48 13.48v.707L90.177.177 90.355 0zm3 0l-16.48 16.48v.707L93.177.177 93.355 0zm3 0L77.823 17.823l-.177.177h.708L96.177.177 96.354 0zm2.52.48L80.824 17.823l-.177.177h.708L98.167 1.187V.48zm0 3L83.824 17.823l-.177.177h.708L98.167 4.187V3.48zm0 3L86.824 17.823l-.177.177h.708L98.167 7.187V6.48zm0 3l-8.343 8.343-.177.177h.708l7.813-7.813V9.48zm0 3l-5.343 5.343-.177.177h.708l4.813-4.813v-.707zm0 3l-2.343 2.343-.177.177h.708l1.813-1.813v-.707z"/><path d="M98.646 0l-.48.48v.707l1.01-1.01.178-.177zm1.52 1.48l-2 2v.707l2-2V1.48zm0 3l-2 2v.707l2-2V4.48zm0 3l-2 2v.707l2-2V7.48zm0 3l-2 2v.707l2-2v-.707zm0 3l-2 2v.707l2-2v-.707zm0 3l-1.343 1.343-.177.177h.708l.813-.813v-.707zM72.091 1.124q-2.014.293-2.105 1.842v11.177q.941-1.124 3.38-1.58l-1.275-11.44zM72.658 0l1.509 13.363q-3.361.385-4.181 2.4V18h-1.003V2.966q0-2.51 3.675-2.966zm-7.75 1.124q-2.015.293-2.106 1.842v11.177q.942-1.124 3.381-1.58l-1.275-11.44zM65.475 0l1.508 13.363q-3.36.385-4.18 2.4V18H61.8V2.966Q61.8.456 65.475 0zM53.398.601c-1.074 0-2.419.552-3.07 1.202-.568.57-.643 1.324-.664 2.025H57.1c-.02-.7-.095-1.455-.664-2.025-.65-.65-1.963-1.202-3.037-1.202zm0-.601c1.274 0 2.645.589 3.448 1.392.824.824.918 1.91.918 2.72v.317h-8.732v-.316c0-.812.061-1.897.886-2.72C50.72.588 52.124 0 53.398 0zm-.08 15.84c-.208 0-.333.036-.398.073-.188.12-.098.408-.068.587h.931c.022-.183.124-.464-.068-.587-.065-.037-.19-.072-.397-.072zm5.172 1.087v.647h.884v-.647zm-4.589 0v.647h4.377v-.647zm-1.064 0v.647h.852v-.647zm-4.273 0v.647h4.06v-.647zm-1.142 0v.647h.93v-.647zm7.765-1.733l.301.302-1.007 1.004H59.8V18H46.996v-1.5h5.158l-1.007-1.004.301-.302.932.929c.056-.563.441-.693.938-.709.53.015.855.134.937.709l.932-.93zM23.646 0l-.65.65v.708l1.18-1.181.178-.177zm3 0l-3.65 3.65v.708l4.18-4.181.178-.177zm3 0l-6.65 6.65v.708l7.18-7.181.178-.177zm3 0l-9.65 9.65v.708L33.176.177 33.355 0zm3 0l-12.65 12.65v.708L36.176.177 36.355 0zm3 0l-15.65 15.65v.708L39.176.177 39.355 0zm3 0L23.823 17.823l-.177.177h.708L42.177.177 42.354 0zm3 0L26.823 17.823l-.177.177h.708L44.996.358V0zm.35 2.65L29.823 17.824l-.177.177h.708L44.996 3.358V2.65zm0 3L32.823 17.824l-.177.177h.708L44.996 6.358V5.65zm0 3l-9.173 9.173-.177.177h.708l8.642-8.642V8.65zm0 3l-6.173 6.173-.177.177h.708l5.642-5.642v-.707zm0 3l-3.173 3.173-.177.177h.708l2.642-2.642v-.707zm0-14.65v.358l.18-.181.178-.177zm2 .65l-2 2v.708l2-2V.65zm0 3l-2 2v.708l2-2V3.65zm0 3l-2 2v.708l2-2V6.65zm0 3l-2 2v.708l2-2V9.65zm0 3l-2 2v.708l2-2v-.707zm0 3l-2 2V18h.358l1.642-1.642v-.707zM10.469.888q-1.655 0-3.326.58-3.358 1.162-6.054 4.14 3.239-2.391 6.325-3.185 1.543-.396 3.087-.396 1.543 0 3.086.396 3.086.794 6.325 3.185-2.826-2.956-6.119-4.13-1.654-.59-3.324-.59zM10.5 0q3.803.087 6.618 2.021 2.814 1.935 3.532 3.326.652 1.086.076 1.369-.174.085-.35.085-.404 0-.813-.454-1.109-1.174-5.086-2.641-1.989-.734-3.977-.734-1.99 0-3.978.734-3.977 1.467-5.086 2.662-.434.45-.833.45-.18 0-.351-.091-.555-.294.097-1.38.718-1.391 3.532-3.326Q6.697.087 10.501 0zm5.636 13.242q.312 0 .503.209.191.208.191.468 0 .226-.19.443-.192.217-.487.217-.33 0-.512-.2-.183-.199-.183-.46 0-.277.217-.477.218-.2.46-.2zm0-.156q-.313 0-.582.243-.27.243-.27.59 0 .313.235.574.235.26.634.26.365 0 .6-.278.234-.278.234-.556 0-.33-.235-.581-.234-.252-.616-.252zm0-4.36q.33 0 .382.678v2.97q-.018.347.19.642.183.07.357.07t.339-.07l2.813-.92q.235-.054.398-.054.31 0 .366.193.104.312-.538.573l-2.831.903q-.33.104-.538.417 0 .382.225.66l1.737 2.397q.365.59.104.764-.07.051-.153.051-.228 0-.559-.381l-1.737-2.397q-.19-.295-.555-.417-.348.104-.556.417l-1.737 2.397q-.33.381-.549.381-.08 0-.146-.051-.26-.191.087-.782l1.754-2.397q.226-.277.209-.642-.209-.313-.556-.417l-2.813-.903q-.643-.26-.539-.556.07-.208.386-.208.158 0 .378.052l2.831.92q.165.061.335.061.169 0 .343-.06.225-.296.208-.643v-2.97q.052-.677.365-.677z"/><path d="M0 0v.354L.177.177.354 0zm2.646 0L0 2.646v.708L3.177.177 3.354 0zm3 0L0 5.646v.708L6.177.177 6.354 0zm3 0L0 8.646v.708L9.177.177 9.354 0zm1.852 1.149L0 11.646v.708L10.498 1.856v-.707zm0 3L0 14.646v.708L10.498 4.856v-.707zm0 3L0 17.646V18h.354L10.498 7.856v-.707zm0 3l-7.675 7.674-.177.177h.708l7.144-7.144v-.707zm0 3l-4.675 4.674-.177.177h.708l4.144-4.144v-.707zm0 3l-1.675 1.674-.177.177h.708l1.144-1.144v-.707z"/></svg>