<svg xmlns="http://www.w3.org/2000/svg" width="211.355" height="18"><path d="M209.708 0c.336 0 .67.026.995.066.447.113.217.626-.18.626a.476.476 0 0 1-.082-.008c-.839.097-1.872.15-2.506.626-.84.916-.463 2.821-.56 3.725-.008.05-.01 3.653-.01 5.48a6.145 6.145 0 0 1 2.634-.586c.402 0 .801.04 1.188.117.44.231-.077.528-.423.528a.454.454 0 0 1-.115-.013c-1.226.133-2.62.461-3.243 1.602-.061.206-.023.277.071.277.206 0 .68-.342.946-.342.014 0 .028 0 .04.003a7.535 7.535 0 0 1 1.581-.169c.39 0 .776.031 1.148.095.42.278-.095.534-.438.534a.532.532 0 0 1-.105-.01c-1.251.151-2.636.49-3.243 1.633-.007 1.27 0 2.11-.033 3.278.014.36-.22.538-.456.538-.235 0-.473-.176-.475-.526.01-1.15.091-2.161-.06-3.277-.304-1.253-2.477-1.445-3.827-1.754-.294-.347.285-.475.659-.475.056 0 .107.003.15.008.173-.013.347-.02.521-.02.882 0 1.771.175 2.557.58.032-.755-.711-1.19-1.243-1.493-.84-.361-1.766-.397-2.644-.59-.313-.273.18-.501.522-.501a.58.58 0 0 1 .124.012c.216-.02.432-.031.648-.031.903 0 1.805.183 2.615.582-.017-2.851-.063-5.61.019-8.308.065-.834.546-1.6 1.354-1.849.58-.264 1.227-.358 1.871-.358z"/><path d="M206.906 0v.448l.27-.271.178-.177zm2.74 0l-2.74 2.74v.708l3.27-3.271.178-.177zm1.71 1.291l-4.45 4.45v.707l4.45-4.45v-.707zm0 3l-4.45 4.45v.707l4.45-4.45v-.707zm0 3l-4.45 4.45v.707l4.45-4.45v-.707zm0 3l-4.45 4.45v.707l4.45-4.45v-.707zm0 3l-4.45 4.45V18h.448l4.001-4.002v-.707zm0 3l-1.533 1.532-.177.177h.708l1.001-1.002v-.707zM185.713 2.99q-.557 0-1.086.606 4.368 5.2 5.46 5.81.815.457 1.434.457.21 0 .399-.053.741-.208 1.586-.234h.042q.828 0 1.817.988h.13q-.702-1.638-1.963-2.34-1.261-.702-7.397-5.148-.213-.085-.422-.085zm7.731-2.369q-.065 0-.133.01v6.683q2.054 1.196 2.834 3.354-1.196-8.268-1.677-9.204-.433-.843-1.024-.843zM198.8 11.09q.08 0 .153.138.13.247-.234.689-.208-.546-.052-.741.069-.086.133-.086zm-.036-.372q-.154 0-.33.237-.39.52.233 2.08.702-1.352.43-1.976-.15-.34-.333-.34zm-6.805 2.577v.39q.286-.026.442-.182-.052-.078-.208-.208zm-.598.884l-2.418.338-.494.884q.832-.234 1.833-.624t1.079-.598zm5.33-.364l-.468.234-.156 1.118.416 1.274h.65l-.442-1.274v-1.352zm-1.118.39l-.442.13-.156.832.416 1.274h.65l-.442-1.274-.026-.962zm-1.534.156l-.156.806.416 1.274h.65l-.442-1.274v-.78l-.468-.026zm.994-3.234q-.415 0-.89.1-1.404.3-1.768 1.418h-1.092l-.416-.676q-5.512 1.274-6.214 4.602 1.508-.832 3.172-1.118l.728-1.456 2.886-.39-.078-.702h.988q1.092.9 2.228.9.244 0 .49-.042 1.39-.234 1.82-.95.428-.714-.456-1.3-.585-.386-1.398-.386zM193.188 0q.947 0 1.488.658.663.806 1.235 4.238l.91 5.954q.442.468.676.52h.312q.026-.65.494-1.196.416-3.978-.364-6.968l.312-.598q1.118 3.38.546 7.592h.078q1.794-4.03.52-7.592l.312-.468q1.664 3.796-.364 8.242.572 1.248.117 2.054-.455.806-.559 1.508l-.182.13q-.702-1.04-.806-1.794h-.26q-.026.598-.338 1.248l-.182 1.638.442 1.274h2.262v.624h-6.526v-.624h.546l-.416-1.274-.026-.962q-.468-.156-.702-.364-.338.312-.754.312.026.26-.104.442-1.04.806-3.718 1.404l-.91 1.768q0-.434-.27-.434-.085 0-.198.044l.728-1.3q-1.508.338-2.288.858-.416.442.052 1.066-1.04-.442-1.17-1.248.416-3.926 7.046-5.46l.468.78h.416q.338-1.092 2.678-1.508-.522-.388-1.284-.388-.415 0-.9.115-.492.116-.961.116-.844 0-1.613-.376-1.196-.585-6.084-6.461.9-1.136 1.905-1.136.329 0 .669.122l6.318 4.524V.034q.235-.034.449-.034zM89.646 0l-1.8 1.8v.707l2.33-2.33.178-.177zm3 0l-4.8 4.8v.707l5.33-5.33.178-.177zm3 0l-7.8 7.8v.707l8.33-8.33.178-.177zm3 0l-10.8 10.8v.707L99.177.177 99.355 0zm3 0l-13.8 13.8v.707l14.33-14.33.178-.177zm3 0l-16.8 16.8v.707l17.33-17.33.178-.177zm3 0L89.823 17.823l-.177.177h.708L108.177.177l.177-.177zm3 0L92.823 17.823l-.177.177h.708L111.177.177l.177-.177zm3 0L95.823 17.823l-.177.177h.708L114.177.177l.177-.177zm3 0L98.823 17.823l-.177.177h.708L117.177.177l.177-.177zm3 0l-17.823 17.823-.177.177h.708L120.177.177l.177-.177zm3 0l-17.823 17.823-.177.177h.708L123.177.177l.177-.177zm3 0l-17.823 17.823-.177.177h.708L126.177.177l.177-.177zm3 0l-17.823 17.823-.177.177h.708L129.177.177l.177-.177zm3 0l-17.823 17.823-.177.177h.708L132.177.177l.177-.177zm3 0l-17.823 17.823-.177.177h.708L135.177.177l.177-.177zm3 0l-17.823 17.823-.177.177h.708L138.177.177l.177-.177zm3 0l-17.823 17.823-.177.177h.708L141.177.177l.177-.177zm3 0l-17.823 17.823-.177.177h.708L144.177.177l.177-.177zm3 0l-17.823 17.823-.177.177h.708L147.177.177l.177-.177zm3 0l-17.823 17.823-.177.177h.708L150.177.177l.177-.177zm3 0l-17.823 17.823-.177.177h.708L153.177.177l.177-.177zm3 0l-17.823 17.823-.177.177h.708L156.177.177l.177-.177zm3 0l-17.823 17.823-.177.177h.708L159.177.177l.177-.177zm3 0l-17.823 17.823-.177.177h.708L162.177.177l.177-.177zm3 0l-17.823 17.823-.177.177h.708L165.177.177l.177-.177zm3 0l-17.823 17.823-.177.177h.708L168.177.177l.177-.177zm3 0l-17.823 17.823-.177.177h.708L171.177.177l.177-.177zm3 0l-17.823 17.823-.177.177h.708L174.177.177l.177-.177zm3 0l-17.823 17.823-.177.177h.708L177.177.177l.177-.177zm3 0l-17.823 17.823-.177.177h.708L180.177.177l.177-.177zm2.2.8l-17.023 17.023-.177.177h.708l16.493-16.493V.8zm0 3l-14.023 14.023-.177.177h.708l13.493-13.493V3.8zm0 3l-11.023 11.023-.177.177h.708l10.493-10.493V6.8zm0 3l-8.023 8.023-.177.177h.708l7.493-7.493V9.8zm0 3l-5.023 5.023-.177.177h.708l4.493-4.493V12.8zm0 3l-2.023 2.023-.177.177h.708l1.493-1.493V15.8z"/><path d="M182.646 0l-.8.8v.707l1.33-1.33.178-.177zm1.2 1.8l-2 2v.707l2-2V1.8zm0 3l-2 2v.707l2-2V4.8zm0 3l-2 2v.707l2-2V7.8zm0 3l-2 2v.707l2-2V10.8zm0 3l-2 2v.707l2-2V13.8zm0 3l-1.023 1.023-.177.177h.708l.493-.493V16.8zM65.646 0l-1.8 1.8v.707l2.33-2.33.178-.177zm3 0l-4.8 4.8v.707l5.33-5.33.178-.177zm3 0l-7.8 7.8v.707l8.33-8.33.178-.177zm3 0l-10.8 10.8v.707L75.177.177 75.355 0zm3 0l-13.8 13.8v.707L78.177.177 78.355 0zm3 0l-16.8 16.8v.707L81.177.177 81.355 0zm3 0L65.823 17.823l-.177.177h.708L84.177.177 84.354 0zm2.2.8L68.824 17.823l-.177.177h.708L85.847 1.507V.8zm0 3L71.824 17.823l-.177.177h.708L85.847 4.507V3.8zm0 3L74.824 17.823l-.177.177h.708L85.847 7.507V6.8zm0 3l-8.023 8.023-.177.177h.708l7.493-7.493V9.8zm0 3l-5.023 5.023-.177.177h.708l4.493-4.493V12.8zm0 3l-2.023 2.023-.177.177h.708l1.493-1.493V15.8z"/><path d="M86.646 0l-.8.8v.707l1.33-1.33.178-.177zm1.2 1.8l-2 2v.707l2-2V1.8zm0 3l-2 2v.707l2-2V4.8zm0 3l-2 2v.707l2-2V7.8zm0 3l-2 2v.707l2-2V10.8zm0 3l-2 2v.707l2-2V13.8zm0 3l-1.023 1.023-.177.177h.708l.493-.493V16.8zM41.646 0l-1.8 1.8v.707l2.33-2.33.178-.177zm3 0l-4.8 4.8v.707l5.33-5.33.178-.177zm3 0l-7.8 7.8v.707l8.33-8.33.178-.177zm3 0l-10.8 10.8v.707L51.177.177 51.355 0zm3 0l-13.8 13.8v.707L54.177.177 54.355 0zm3 0l-16.8 16.8v.707L57.177.177 57.355 0zm3 0L41.823 17.823l-.177.177h.708L60.177.177 60.354 0zm2.2.8L44.824 17.823l-.177.177h.708L61.847 1.507V.8zm0 3L47.824 17.823l-.177.177h.708L61.847 4.507V3.8zm0 3L50.824 17.823l-.177.177h.708L61.847 7.507V6.8zm0 3l-8.023 8.023-.177.177h.708l7.493-7.493V9.8zm0 3l-5.023 5.023-.177.177h.708l4.493-4.493V12.8zm0 3l-2.023 2.023-.177.177h.708l1.493-1.493V15.8z"/><path d="M62.646 0l-.8.8v.707l1.33-1.33.178-.177zm1.2 1.8l-2 2v.707l2-2V1.8zm0 3l-2 2v.707l2-2V4.8zm0 3l-2 2v.707l2-2V7.8zm0 3l-2 2v.707l2-2V10.8zm0 3l-2 2v.707l2-2V13.8zm0 3l-1.023 1.023-.177.177h.708l.493-.493V16.8zM17.646 0l-1.8 1.8v.707l2.33-2.33.178-.177zm3 0l-4.8 4.8v.707l5.33-5.33.178-.177zm3 0l-7.8 7.8v.707l8.33-8.33.178-.177zm3 0l-10.8 10.8v.707L27.177.177 27.355 0zm3 0l-13.8 13.8v.707L30.177.177 30.355 0zm3 0l-16.8 16.8v.707L33.177.177 33.355 0zm3 0L17.823 17.823l-.177.177h.708L36.177.177 36.354 0zm2.2.8L20.824 17.823l-.177.177h.708L37.847 1.507V.8zm0 3L23.824 17.823l-.177.177h.708L37.847 4.507V3.8zm0 3L26.824 17.823l-.177.177h.708L37.847 7.507V6.8zm0 3l-8.023 8.023-.177.177h.708l7.493-7.493V9.8zm0 3l-5.023 5.023-.177.177h.708l4.493-4.493V12.8zm0 3l-2.023 2.023-.177.177h.708l1.493-1.493V15.8z"/><path d="M38.646 0l-.8.8v.707l1.33-1.33.178-.177zm1.2 1.8l-2 2v.707l2-2V1.8zm0 3l-2 2v.707l2-2V4.8zm0 3l-2 2v.707l2-2V7.8zm0 3l-2 2v.707l2-2V10.8zm0 3l-2 2v.707l2-2V13.8zm0 3l-1.023 1.023-.177.177h.708l.493-.493V16.8zM13.847 0v7.35h-.735V0zm-4.37 0v7.35H8.74V0zM5.105 0v7.35H4.37V0zM.736 0v7.35H0V0zm13.111 10.65V18h-.735v-7.35zm-4.37 0V18H8.74v-7.35zm-4.371 0V18H4.37v-7.35zm-4.37 0V18H0v-7.35z"/></svg>