<svg xmlns="http://www.w3.org/2000/svg" width="123.502" height="18"><path d="M121.855 0c.336 0 .67.026.995.066.447.113.217.626-.18.626a.476.476 0 0 1-.082-.008c-.839.097-1.872.15-2.506.626-.84.916-.463 2.821-.56 3.725-.008.05-.01 3.653-.01 5.48a6.145 6.145 0 0 1 2.634-.586c.402 0 .801.04 1.188.117.44.231-.077.528-.423.528a.454.454 0 0 1-.114-.013c-1.227.133-2.62.461-3.243 1.602-.062.206-.023.277.07.277.207 0 .68-.342.947-.342.014 0 .027 0 .04.003a7.535 7.535 0 0 1 1.58-.169c.39 0 .776.031 1.148.095.421.278-.095.534-.437.534a.532.532 0 0 1-.105-.01c-1.252.151-2.637.49-3.243 1.633-.007 1.27 0 2.11-.034 3.278.015.36-.22.538-.456.538-.235 0-.473-.176-.474-.526.008-1.15.09-2.161-.06-3.277-.305-1.253-2.478-1.445-3.828-1.754-.294-.347.285-.475.659-.475.056 0 .107.003.15.008.173-.013.347-.02.521-.02.883 0 1.772.175 2.558.58.032-.755-.712-1.19-1.244-1.493-.84-.361-1.766-.397-2.644-.59-.313-.273.18-.501.522-.501a.58.58 0 0 1 .125.012c.215-.02.431-.031.647-.031.903 0 1.805.183 2.615.582-.017-2.851-.063-5.61.019-8.308.065-.834.546-1.6 1.354-1.849.58-.264 1.227-.358 1.871-.358z"/><path d="M116.646 0l-2.042 2.043v.707l2.573-2.573.177-.177zm3 0l-5.042 5.043v.707l5.573-5.573.177-.177zm3 0l-8.042 8.043v.707l8.573-8.573.177-.177zm.856 2.144l-8.898 8.899v.707l8.898-8.899v-.707zm0 3l-8.898 8.899v.707l8.898-8.899v-.707zm0 3l-8.898 8.899v.707l8.898-8.899v-.707zm0 3l-6.679 6.68-.177.176h.708l6.148-6.149v-.707zm0 3l-3.679 3.68-.177.176h.708l3.148-3.149v-.707zm0 3l-.679.68-.177.176h.708l.148-.149v-.707zM125.537.11l-2.035 2.034v.707l2.035-2.035V.11zm0 3l-2.035 2.034v.707l2.035-2.035V3.11zm0 3l-2.035 2.034v.707l2.035-2.035V6.11zm0 3l-2.035 2.034v.707l2.035-2.035V9.11zm0 3l-2.035 2.034v.707l2.035-2.035v-.707zm0 3l-2.035 2.034v.707l2.035-2.035v-.707zM97.86 2.99q-.557 0-1.086.606 4.368 5.2 5.46 5.81.815.457 1.434.457.211 0 .4-.053.74-.208 1.585-.234h.043q.828 0 1.816.988h.13q-.702-1.638-1.963-2.34-1.26-.702-7.397-5.148-.213-.085-.422-.085zm7.731-2.369q-.065 0-.133.01v6.683q2.054 1.196 2.834 3.354-1.196-8.268-1.677-9.204-.433-.843-1.024-.843zm5.356 10.468q.08 0 .153.138.13.247-.234.689-.208-.546-.052-.741.07-.086.133-.086zm-.036-.372q-.153 0-.33.237-.39.52.233 2.08.702-1.352.43-1.976-.15-.34-.333-.34zm-6.805 2.577v.39q.286-.026.442-.182-.052-.078-.208-.208zm-.598.884l-2.418.338-.494.884q.832-.234 1.833-.624t1.08-.598zm5.33-.364l-.468.234-.156 1.118.416 1.274h.65l-.442-1.274v-1.352zm-1.118.39l-.442.13-.156.832.416 1.274h.65l-.442-1.274-.026-.962zm-1.534.156l-.156.806.416 1.274h.65l-.442-1.274v-.78l-.468-.026zm.995-3.234q-.416 0-.89.1-1.405.3-1.769 1.418h-1.092l-.416-.676q-5.512 1.274-6.214 4.602 1.508-.832 3.172-1.118l.728-1.456 2.886-.39-.078-.702h.988q1.092.9 2.228.9.244 0 .49-.042 1.39-.234 1.82-.95.428-.714-.456-1.3-.585-.386-1.397-.386zM105.335 0q.947 0 1.488.658.663.806 1.235 4.238l.91 5.954q.442.468.676.52h.312q.026-.65.494-1.196.416-3.978-.364-6.968l.312-.598q1.118 3.38.546 7.592h.078q1.794-4.03.52-7.592l.312-.468q1.664 3.796-.364 8.242.572 1.248.117 2.054-.455.806-.559 1.508l-.182.13q-.702-1.04-.806-1.794h-.26q-.026.598-.338 1.248l-.182 1.638.442 1.274h2.262v.624h-6.526v-.624h.546l-.416-1.274-.026-.962q-.468-.156-.702-.364-.338.312-.754.312.026.26-.104.442-1.04.806-3.718 1.404l-.91 1.768q0-.434-.27-.434-.085 0-.198.044l.728-1.3q-1.508.338-2.288.858-.416.442.052 1.066-1.04-.442-1.17-1.248.416-3.926 7.046-5.46l.468.78h.416q.338-1.092 2.678-1.508-.522-.388-1.284-.388-.415 0-.9.115-.492.116-.96.116-.845 0-1.614-.376-1.196-.585-6.084-6.461.9-1.136 1.905-1.136.329 0 .669.122l6.318 4.524V.034q.235-.034.449-.034z"/><path d="M95.994 0v.36l.183-.183.177-.177zm2.652 0l-2.652 2.653v.707L99.177.177 99.354 0zm3 0l-5.652 5.653v.707l6.183-6.183.177-.177zm3 0l-8.652 8.653v.707l9.183-9.183.177-.177zm3 0L95.994 11.653v.707L108.177.177l.177-.177zm3 0L95.994 14.653v.707L111.177.177l.177-.177zm1.958 1.043l-16.61 16.61V18h.36l16.25-16.25v-.707zm0 3l-13.78 13.78-.178.177h.708l13.25-13.25v-.707zm0 3l-10.78 10.78-.178.177h.708l10.25-10.25v-.707zm0 3l-7.78 7.78-.178.177h.708l7.25-7.25v-.707zm0 3l-4.78 4.78-.178.177h.708l4.25-4.25v-.707zm0 3l-1.78 1.78-.178.177h.708l1.25-1.25v-.707zM113.646 0l-1.042 1.043v.707l1.573-1.573.177-.177zm1.064 1.937l-2.106 2.106v.707l2.106-2.106v-.707zm0 3l-2.106 2.106v.707l2.106-2.106v-.707zm0 3l-2.106 2.106v.707l2.106-2.106v-.707zm0 3l-2.106 2.106v.707l2.106-2.106v-.707zm0 3l-2.106 2.106v.707l2.106-2.106v-.707zm0 3l-.887.886-.177.177h.708l.356-.356v-.707zM71.994 0v.36l.183-.183.177-.177zm2.652 0l-2.652 2.652v.708L75.177.177 75.354 0zm3 0l-5.652 5.652v.708L78.177.177 78.354 0zm3 0l-8.652 8.652v.708L81.177.177 81.354 0zm3 0L71.994 11.653v.707L84.177.177 84.354 0zm3 0L71.994 14.653v.707L87.177.177 87.354 0zm3 0L71.994 17.653V18h.36L90.177.177 90.354 0zm3 0L74.823 17.823l-.177.177h.708L93.177.177 93.354 0zm1.348 1.653l-16.17 16.17-.178.177h.708l15.64-15.64v-.707zm0 3l-13.17 13.17-.178.177h.708l12.64-12.64v-.707zm0 3l-10.17 10.17-.178.177h.708l9.64-9.64v-.707zm0 3l-7.17 7.17-.178.177h.708l6.64-6.64v-.707zm0 3l-4.17 4.17-.178.177h.708l3.64-3.64v-.707zm0 3l-1.17 1.17-.178.177h.708l.64-.64v-.707zM95.646 0l-1.652 1.653v.707l2-2V0zm.348 2.653l-2 2v.707l2-2v-.707zm0 3l-2 2v.707l2-2v-.707zm0 3l-2 2v.707l2-2v-.707zm0 3l-2 2v.707l2-2v-.707zm0 3l-2 2v.707l2-2v-.707zM47.994 0v.36l.183-.183.177-.177zm2.652 0l-2.652 2.652v.708L51.177.177 51.354 0zm3 0l-5.652 5.652v.708L54.177.177 54.354 0zm3 0l-8.652 8.652v.708L57.177.177 57.354 0zm3 0L47.994 11.652v.708L60.177.177 60.354 0zm3 0L47.994 14.652v.708L63.177.177 63.354 0zm3 0L47.994 17.652V18h.36L66.177.177 66.354 0zm3 0L50.823 17.823l-.177.177h.708L69.177.177 69.354 0zm1.348 1.652l-16.17 16.171-.178.177h.708l15.64-15.64v-.708zm0 3l-13.17 13.171-.178.177h.708l12.64-12.64v-.708zm0 3l-10.17 10.171-.178.177h.708l9.64-9.64v-.708zm0 3l-7.17 7.171-.178.177h.708l6.64-6.64v-.708zm0 3l-4.17 4.171-.178.177h.708l3.64-3.64v-.707zm0 3l-1.17 1.171-.178.177h.708l.64-.64v-.707zM71.646 0l-1.652 1.652v.708l2-2V0zm.348 2.652l-2 2v.708l2-2v-.708zm0 3l-2 2v.708l2-2v-.708zm0 3l-2 2v.708l2-2v-.708zm0 3l-2 2v.708l2-2v-.707zm0 3l-2 2v.708l2-2v-.707zM37.206 1.225l-1.58 1.934v.02l1.58 2.075 1.58-2.075v-.02l-1.58-1.934zm.425-.405l1.883 2.339-1.579 2.116q.83 0 1.66-.213.84-.213 1.711-.628.881-.405 1.914-1.377 1.043-.961 1.71-2.237zm-8.17 0q.668 1.276 1.701 2.237 1.033.972 1.914 1.377.88.415 1.71.628.84.213 1.66.213l-1.579-2.116L36.761.82zM45.994 0q0 .537-.425 1.357t-1.235 1.781q-.81.952-2.491 1.954-1.65.983-4.515.983h-.243q-2.865 0-4.526-.983-1.7-1.002-2.51-1.954-.81-.961-1.226-1.781-.405-.82-.405-1.357zm-8.761 12.703c.681.054 1.058.394 1.13 1.022-.09.68-.467 1.04-1.13 1.075-.663-.036-1.013-.394-1.049-1.075.054-.628.404-.968 1.05-1.022zm-.08-2.259c-.485 0-.933.09-1.345.269a3.545 3.545 0 0 0-1.828 1.815 3.11 3.11 0 0 0-.27 1.277c0 .466.09.901.27 1.304.179.404.425.758.739 1.063a3.422 3.422 0 0 0 2.433.968c.484 0 .937-.086 1.358-.256a3.24 3.24 0 0 0 1.09-.712c.304-.305.546-.66.725-1.063.18-.403.27-.838.27-1.304 0-.448-.09-.874-.27-1.277a3.67 3.67 0 0 0-.726-1.076 3.302 3.302 0 0 0-1.089-.739 3.431 3.431 0 0 0-1.358-.269zm.053-.914c.592 0 1.147.112 1.667.336.52.224.968.529 1.345.914.376.386.676.834.9 1.345.225.51.337 1.062.337 1.653 0 .592-.112 1.143-.336 1.654a4.31 4.31 0 0 1-.901 1.331A4.267 4.267 0 0 1 37.206 18a4.071 4.071 0 0 1-1.654-.336 4.48 4.48 0 0 1-1.344-.9 4.195 4.195 0 0 1-.914-1.332 4.071 4.071 0 0 1-.336-1.654c0-.591.112-1.142.336-1.653a4.358 4.358 0 0 1 2.258-2.259 4.071 4.071 0 0 1 1.654-.336z"/><path d="M18.73.375v17.25M26.418.375c-9.625 0-9.625 17.25 0 17.25m0 0" fill="none" stroke="#000"/><path d="M10.761.597a2.12 2.12 0 0 0-.692.109c.031.223.169.569.953.773-.73-.053-1.206-.113-1.452-.307-.09.2-.137.427-.158.556a.297.297 0 0 1-.207.237c-.624.191-1.173 1.112-1.7 1.763-.95 1.173-1.771 2.48-2.688 3.733l1.27-.622c1.182-.622 2.395-1.11 3.407-1.877.589-.49 1.172-.996 1.39-1.641.076-.497-.296-1.074-.767-1.279a.297.297 0 1 1 .238-.545c.377.164.7.458.904.817a1.986 1.986 0 0 0-.075-.448.297.297 0 0 1-.012-.104c.01-.184.041-.313.082-.422.04-.109.085-.206.157-.459a.297.297 0 0 1 .105-.153 1.546 1.546 0 0 0-.527-.125C10.946.6 10.905.6 10.864.599a.258.258 0 1 1-.103-.002zM9.568 6.029c-.606.466-1.253.873-1.888 1.28a13 13 0 0 1-.047 1.321c.207-.135.434-.236.697-.3.39-.636.82-1.22 1.082-1.842.054-.129.105-.29.156-.46zm.248 1c-.273.549-.62 1.04-.928 1.529.059.04.112.08.155.121l.027.027a1.72 1.72 0 0 1 .613-.454c-.01-.348.047-.768.133-1.222zm-2.88.047a25.922 25.922 0 0 0-.588.297c-.78.38-1.56.772-2.349 1.148-.556.67-1.157 1.293-1.735 1.92l1.044.175L5.87 7.83a.297.297 0 0 1 .04-.036 18.5 18.5 0 0 1 1.026-.718zm2.592 2.009c-.058.066-.112.14-.162.222a.298.298 0 0 1-.429.087c-.125-.09-.2-.177-.266-.244l-.077 1.413c.1-.006.201-.013.296-.013.167 0 .314.022.398.108.1-.078.28-.1.504-.1.058 0 .118.002.18.005l-.444-1.478zm5.418.999c-.451.062-.686.323-.703.783h1.394c0-.46-.23-.721-.69-.783zm-7.86-2.39a16.38 16.38 0 0 0-.798.56l-2.403 2.613h2.456c.171-.19.519-.365.776-.365.074 0 .14.014.192.046.082-.007.168-.01.256-.01.14 0 .286.007.434.016l.082-1.506c-.224.115-.407.282-.625.542a.297.297 0 0 1-.52-.246c.1-.544.142-1.093.15-1.65zm6.24 3.745l.266.465h1.248l.253-.465zm-4.516 0v2.51l1.727-2.51zM10.754 0a3.878 3.878 0 0 1 .272.01c.695.044 1.215.325 1.408.768a.298.298 0 0 1-.34.408l-.025-.006-.03.007-.108.029c-.055.168-.096.269-.12.332a.541.541 0 0 0-.042.2c.154.552.094 1.107.036 1.389-.095.466-.384.977-.76 1.46a.295.295 0 0 1-.015.108 21.24 21.24 0 0 0-.548 2.027c-.152.708-.233 1.387-.192 1.684a.297.297 0 0 1-.223.33l-.019.005.527 1.75c.086-.013.173-.018.26-.018.256 0 .509.041.712.041a.865.865 0 0 0 .183-.016.314.314 0 0 1 .068-.007c.212 0 .657.13.787.366h1.1c.062-.797.482-1.235 1.261-1.315.788.08 1.196.518 1.222 1.315v.572h-.53l-.545 1.01h-1.767l-.531-1.01h-1.568l-2.404 3.493V18h-.571v-6.561H3.736v-.41l-.1.109a.297.297 0 0 1-.268.092l-1.74-.292a.298.298 0 0 1-.172-.492c.216-.242.436-.48.656-.716L.455 10.808a.296.296 0 0 1-.411-.087.297.297 0 0 1 .087-.411l1.344-.876a.292.292 0 0 1-.076-.09.315.315 0 0 1-.02-.237.305.305 0 0 1 .048-.093c.055-.076.084-.088.124-.119l.13-.094c.096-.065.207-.137.301-.2a4.156 4.156 0 0 0 .217-.156l2.378-1.672.008-.005c.806-1.13 1.568-2.316 2.457-3.414.433-.535.938-1.524 1.812-1.894.048-.262.157-.68.484-.997C9.69.119 10.2 0 10.754 0z"/></svg>