<svg xmlns="http://www.w3.org/2000/svg" width="241.061" height="18"><path d="M239.414 0c.336 0 .67.026.995.066.447.113.217.626-.18.626a.476.476 0 0 1-.082-.008c-.839.097-1.872.15-2.506.626-.84.916-.463 2.821-.56 3.725-.008.05-.01 3.653-.01 5.48a6.145 6.145 0 0 1 2.634-.586c.402 0 .801.04 1.188.117.44.231-.077.528-.423.528a.454.454 0 0 1-.114-.013c-1.227.133-2.62.461-3.243 1.602-.062.206-.024.277.07.277.207 0 .68-.342.947-.342.014 0 .027 0 .04.003a7.535 7.535 0 0 1 1.58-.169c.39 0 .776.031 1.148.095.421.278-.095.534-.437.534a.532.532 0 0 1-.105-.01c-1.252.151-2.637.49-3.243 1.633-.007 1.27 0 2.11-.034 3.278.015.36-.22.538-.456.538-.235 0-.473-.176-.474-.526.008-1.15.09-2.161-.06-3.277-.305-1.253-2.478-1.445-3.828-1.754-.294-.347.285-.475.659-.475.056 0 .107.003.15.008.173-.013.347-.02.521-.02.883 0 1.772.175 2.558.58.032-.755-.712-1.19-1.244-1.493-.84-.361-1.766-.397-2.644-.59-.313-.273.18-.501.522-.501a.58.58 0 0 1 .125.012c.215-.02.431-.031.647-.031.903 0 1.805.183 2.615.582-.017-2.851-.063-5.61.019-8.308.065-.834.546-1.6 1.354-1.849.58-.264 1.227-.358 1.871-.358zM215.92 2.99q-.558 0-1.087.606 4.368 5.2 5.46 5.81.815.457 1.434.457.21 0 .4-.053.74-.208 1.585-.234h.042q.829 0 1.817.988h.13q-.702-1.638-1.963-2.34-1.26-.702-7.397-5.148-.213-.085-.422-.085zm7.73-2.369q-.065 0-.133.01v6.683q2.054 1.196 2.834 3.354-1.196-8.268-1.677-9.204-.433-.843-1.024-.843zm5.356 10.468q.08 0 .153.138.13.247-.234.689-.208-.546-.052-.741.07-.086.133-.086zm-.036-.372q-.153 0-.33.237-.39.52.233 2.08.702-1.352.43-1.976-.15-.34-.333-.34zm-6.805 2.577v.39q.286-.026.442-.182-.052-.078-.208-.208zm-.598.884l-2.418.338-.494.884q.832-.234 1.833-.624t1.08-.598zm5.33-.364l-.468.234-.156 1.118.416 1.274h.65l-.442-1.274v-1.352zm-1.118.39l-.442.13-.156.832.416 1.274h.65l-.442-1.274-.026-.962zm-1.534.156l-.156.806.416 1.274h.65l-.442-1.274v-.78l-.468-.026zm.994-3.234q-.415 0-.89.1-1.404.3-1.768 1.418h-1.092l-.416-.676q-5.512 1.274-6.214 4.602 1.508-.832 3.172-1.118l.728-1.456 2.886-.39-.078-.702h.988q1.092.9 2.228.9.244 0 .49-.042 1.39-.234 1.82-.95.428-.714-.456-1.3-.585-.386-1.398-.386zM223.394 0q.947 0 1.488.658.663.806 1.235 4.238l.91 5.954q.442.468.676.52h.312q.026-.65.494-1.196.416-3.978-.364-6.968l.312-.598q1.118 3.38.546 7.592h.078q1.794-4.03.52-7.592l.312-.468q1.664 3.796-.364 8.242.572 1.248.117 2.054-.455.806-.559 1.508l-.182.13q-.702-1.04-.806-1.794h-.26q-.026.598-.338 1.248l-.182 1.638.442 1.274h2.262v.624h-6.526v-.624h.546l-.416-1.274-.026-.962q-.468-.156-.702-.364-.338.312-.754.312.026.26-.104.442-1.04.806-3.718 1.404l-.91 1.768q0-.434-.27-.434-.085 0-.198.044l.728-1.3q-1.508.338-2.288.858-.416.442.052 1.066-1.04-.442-1.17-1.248.416-3.926 7.046-5.46l.468.78h.416q.338-1.092 2.678-1.508-.522-.388-1.284-.388-.415 0-.9.115-.492.116-.961.116-.844 0-1.613-.376-1.196-.585-6.084-6.461.9-1.136 1.905-1.136.329 0 .669.122l6.318 4.524V.034q.235-.034.449-.034z"/><path d="M205.053.375c9.625 0 9.625 17.25 0 17.25" fill="none" stroke="#000"/><path d="M206.646 0l-1.593 1.594V2.3l2.124-2.124.177-.177zm3 0l-4.593 4.594V5.3l5.124-5.124.177-.177zm3 0l-7.593 7.594V8.3l8.124-8.124.177-.177zm3 0l-10.593 10.594v.707L216.177.177l.177-.177zm3 0l-13.593 13.594v.707L219.177.177l.177-.177zm3 0l-16.593 16.594v.707L222.177.177l.177-.177zm3 0l-17.823 17.823-.177.177h.708L225.177.177l.177-.177zm3 0l-17.823 17.823-.177.177h.708L228.177.177l.177-.177zm3 0l-17.823 17.823-.177.177h.708L231.177.177l.177-.177zm3 0l-17.823 17.823-.177.177h.708L234.177.177l.177-.177zm3 0l-17.823 17.823-.177.177h.708L237.177.177l.177-.177zm3 0l-17.823 17.823-.177.177h.708L240.177.177l.177-.177zm1.415 1.585l-16.238 16.238-.177.177h.708L241.06 2.292v-.707zm0 3l-13.238 13.238-.177.177h.708L241.06 5.292v-.707zm0 3l-10.238 10.238-.177.177h.708l9.707-9.708v-.707zm0 3l-7.238 7.238-.177.177h.708l6.707-6.708v-.707zm0 3l-4.238 4.238-.177.177h.708l3.707-3.708v-.707zm0 3l-1.238 1.238-.177.177h.708l.707-.708v-.707zM242.646 0l-1.585 1.585v.707l2.116-2.115.177-.177zm1.082 1.919l-2.667 2.666v.707l2.667-2.666v-.707zm0 3l-2.667 2.666v.707l2.667-2.666v-.707zm0 3l-2.667 2.666v.707l2.667-2.666v-.707zm0 3l-2.667 2.666v.707l2.667-2.666v-.707zm0 3l-2.667 2.666v.707l2.667-2.666v-.707zm0 3l-.905.904-.177.177h.708l.374-.374v-.707zM182.646 0l-1.593 1.594V2.3l2.124-2.124.177-.177zm3 0l-4.593 4.594V5.3l5.124-5.124.177-.177zm3 0l-7.593 7.594V8.3l8.124-8.124.177-.177zm3 0l-10.593 10.594v.707L192.177.177l.177-.177zm3 0l-13.593 13.594v.707L195.177.177l.177-.177zm3 0l-16.593 16.594v.707L198.177.177l.177-.177zm3 0l-17.823 17.823-.177.177h.708L201.177.177l.177-.177zm2.407.594l-17.23 17.23-.177.176h.708l16.699-16.7V.595zm0 3l-14.23 14.23-.177.176h.708l13.699-13.7v-.706zm0 3l-11.23 11.23-.177.176h.708l10.699-10.7v-.706zm0 3l-8.23 8.23-.177.176h.708l7.699-7.7v-.706zm0 3l-5.23 5.23-.177.176h.708l4.699-4.7v-.706zm0 3l-2.23 2.23-.177.176h.708l1.699-1.7v-.706z"/><path d="M203.646 0l-.593.594V1.3l1.124-1.124.177-.177zm1.407 1.594l-2 2V4.3l2-2v-.707zm0 3l-2 2V7.3l2-2v-.707zm0 3l-2 2v.707l2-2v-.707zm0 3l-2 2v.707l2-2v-.707zm0 3l-2 2v.707l2-2v-.707zm0 3l-1.23 1.23-.177.176h.708l.699-.7v-.706zM170.646 0l-2.593 2.594V3.3l3.124-3.124.177-.177zm3 0l-5.593 5.594V6.3l6.124-6.124.177-.177zm3 0l-8.593 8.594V9.3l9.124-9.123.177-.177zm2.407.594l-11 11v.707l11-11V.594zm0 3l-11 11v.707l11-11v-.707zm0 3l-11 11V18h.3l10.7-10.7v-.706zm0 3l-8.23 8.23-.177.176h.708l7.699-7.7v-.706zm0 3l-5.23 5.23-.177.176h.708l4.699-4.7v-.706zm0 3l-2.23 2.23-.177.176h.708l1.699-1.7v-.706z"/><path d="M179.646 0l-.593.594V1.3l1.124-1.124.177-.177zm1.407 1.594l-2 2V4.3l2-2v-.707zm0 3l-2 2V7.3l2-2v-.707zm0 3l-2 2v.707l2-2v-.707zm0 3l-2 2v.707l2-2v-.707zm0 3l-2 2v.707l2-2v-.707zm0 3l-1.23 1.23-.177.176h.708l.699-.7v-.706zm-16-14.398q.12 0 .287.147.662.89.713 2.544-.204 1.298-.916 3.665.254 1.908.381 5.242.102 1.12-.61 1.45-2.112.56-5.344.56-3.257 0-5.344-.56-.738-.33-.636-1.45.127-3.334.382-5.242-.713-2.367-.916-3.665.05-1.654.712-2.544.168-.147.288-.147.172 0 .246.3-.178.508-.33.992-.204.61-.153 1.145.05.865.165 1.412.115.547.471.547l.038.002q.598 0 .598-1.605 0-.585-.152-1.425.13-.223.282-.223.143 0 .303.198.076.61.102 1.348.101 1.12-.535 3.156.23 2.875.23 5.75 1.73.28 4.249.357 2.494-.076 4.224-.356 0-2.876.23-5.751-.637-2.036-.535-3.156.025-.738.102-1.348.16-.198.302-.198.152 0 .283.223-.153.84-.153 1.425 0 1.605.599 1.605l.037-.002q.357 0 .471-.547.115-.547.165-1.412.051-.535-.152-1.145-.153-.484-.331-.993.075-.299.247-.299zM151.05 5.34v7.32h-1.225V5.34zM142.417.597a2.12 2.12 0 0 0-.692.109c.032.223.17.569.953.773-.73-.053-1.206-.113-1.452-.307-.089.2-.137.427-.158.556a.297.297 0 0 1-.207.237c-.624.191-1.173 1.112-1.7 1.763-.95 1.173-1.771 2.48-2.688 3.733l1.27-.622c1.182-.622 2.395-1.11 3.407-1.877.589-.49 1.172-.996 1.391-1.641.076-.497-.297-1.074-.768-1.279a.297.297 0 1 1 .238-.545c.377.164.7.458.904.817a1.986 1.986 0 0 0-.074-.448.297.297 0 0 1-.013-.104c.01-.184.041-.313.082-.422.04-.109.085-.206.158-.459a.297.297 0 0 1 .104-.153 1.546 1.546 0 0 0-.527-.125C142.602.6 142.56.6 142.52.599a.258.258 0 1 1-.103-.002zm-1.193 5.432c-.606.466-1.253.873-1.888 1.28.005.438-.006.879-.047 1.321.207-.135.434-.236.697-.3.391-.636.82-1.22 1.082-1.842.055-.129.106-.29.156-.46zm.249 1c-.273.549-.622 1.04-.929 1.529.06.04.112.08.155.121l.027.027a1.72 1.72 0 0 1 .613-.454c-.009-.348.048-.768.134-1.222zm-2.881.047a25.922 25.922 0 0 0-.588.297c-.78.38-1.56.772-2.349 1.148-.556.67-1.156 1.293-1.734 1.92l1.043.175 2.563-2.786a.297.297 0 0 1 .039-.036 18.5 18.5 0 0 1 1.026-.718zm2.592 2.009c-.058.066-.112.14-.162.222a.298.298 0 0 1-.429.087c-.125-.09-.2-.177-.265-.244l-.078 1.413c.1-.006.202-.013.296-.013.167 0 .314.022.398.108.1-.078.28-.1.504-.1.058 0 .118.002.181.005l-.445-1.478zm5.418.999c-.451.062-.686.323-.703.783h1.394c0-.46-.23-.721-.69-.783zm-7.86-2.39a16.38 16.38 0 0 0-.798.56l-2.403 2.613h2.456c.171-.19.519-.365.777-.365.073 0 .139.014.191.046.082-.007.168-.01.256-.01.14 0 .286.007.434.016l.083-1.506c-.225.115-.408.282-.626.542a.297.297 0 0 1-.52-.246 9.773 9.773 0 0 0 .15-1.65zm6.24 3.745l.266.465h1.248l.253-.465zm-4.516 0v2.51l1.727-2.51zM142.41 0a3.878 3.878 0 0 1 .273.01c.694.044 1.215.325 1.407.768a.298.298 0 0 1-.34.408l-.025-.006-.03.007-.108.029c-.054.168-.096.269-.12.332a.541.541 0 0 0-.042.2c.154.552.094 1.107.037 1.389-.096.466-.384.977-.762 1.46a.295.295 0 0 1-.014.108 21.54 21.54 0 0 0-.548 2.027c-.152.708-.233 1.387-.192 1.684a.297.297 0 0 1-.223.33l-.018.005.527 1.75c.085-.013.172-.018.259-.018.256 0 .509.041.712.041a.865.865 0 0 0 .183-.016.314.314 0 0 1 .068-.007c.212 0 .657.13.787.366h1.1c.062-.797.482-1.235 1.261-1.315.789.08 1.196.518 1.223 1.315v.572h-.532l-.544 1.01h-1.767l-.531-1.01h-1.567l-2.405 3.493V18h-.57v-6.561h-4.517v-.41l-.1.109a.297.297 0 0 1-.267.092l-1.74-.292a.298.298 0 0 1-.173-.492c.216-.242.436-.48.656-.716l-1.657 1.078a.296.296 0 0 1-.411-.087.297.297 0 0 1 .087-.411l1.345-.876a.292.292 0 0 1-.077-.09.315.315 0 0 1-.02-.237.305.305 0 0 1 .048-.093c.056-.076.084-.088.124-.119l.13-.094c.096-.065.207-.137.302-.2a4.156 4.156 0 0 0 .216-.156l2.378-1.672.008-.005c.806-1.13 1.568-2.316 2.457-3.414.433-.535.938-1.524 1.812-1.894.049-.262.157-.68.484-.997.353-.344.864-.463 1.416-.463z"/><path d="M121.969.375v17.25m7.687-17.25c-9.625 0-9.625 17.25 0 17.25m0 0" fill="none" stroke="#000"/><path d="M113.999.597a2.12 2.12 0 0 0-.692.109c.031.223.169.569.953.773-.73-.053-1.206-.113-1.452-.307-.09.2-.138.427-.159.556a.297.297 0 0 1-.206.237c-.625.191-1.174 1.112-1.7 1.763-.95 1.173-1.771 2.48-2.688 3.733.423-.207.845-.415 1.27-.622 1.182-.622 2.395-1.11 3.407-1.877.588-.49 1.172-.996 1.39-1.641.076-.497-.296-1.074-.767-1.279a.297.297 0 1 1 .238-.545c.377.164.7.458.904.817a1.986 1.986 0 0 0-.075-.448.297.297 0 0 1-.013-.104c.01-.184.042-.313.083-.422.04-.109.084-.206.157-.459a.297.297 0 0 1 .105-.153 1.546 1.546 0 0 0-.528-.125c-.042-.003-.083-.003-.124-.004a.258.258 0 1 1-.103-.002zm-1.194 5.432c-.605.466-1.253.873-1.888 1.28.005.438-.006.879-.046 1.321.206-.135.433-.236.697-.3.39-.636.82-1.22 1.082-1.842a4.64 4.64 0 0 0 .155-.46zm.25 1c-.274.549-.622 1.04-.93 1.529.06.04.113.08.155.121l.028.027c.168-.194.374-.351.613-.454-.01-.348.047-.768.133-1.222zm-2.881.047a25.922 25.922 0 0 0-.588.297c-.78.38-1.56.772-2.35 1.148-.556.67-1.156 1.293-1.734 1.92l1.043.175 2.563-2.786a.297.297 0 0 1 .04-.036 18.5 18.5 0 0 1 1.026-.718zm2.591 2.009c-.057.066-.112.14-.161.222a.298.298 0 0 1-.43.087c-.124-.09-.2-.177-.265-.244l-.077 1.413c.1-.006.201-.013.296-.013.167 0 .313.022.398.108.1-.078.28-.1.504-.1.057 0 .118.002.18.005l-.445-1.478zm5.42.999c-.453.062-.687.323-.705.783h1.395c0-.46-.23-.721-.69-.783zm-7.862-2.39a16.85 16.85 0 0 0-.797.56l-2.403 2.613h2.456c.171-.19.518-.365.776-.365.073 0 .14.014.192.046a3.01 3.01 0 0 1 .256-.01c.14 0 .286.007.433.016l.083-1.506c-.224.115-.407.282-.625.542a.297.297 0 0 1-.52-.246c.1-.544.142-1.093.15-1.65zm6.24 3.745l.266.465h1.249l.252-.465zm-4.515 0v2.51l1.726-2.51zM113.992 0a3.878 3.878 0 0 1 .272.01c.694.044 1.215.325 1.408.768a.298.298 0 0 1-.341.408l-.024-.006-.03.007-.109.029c-.054.168-.095.269-.12.332a.541.541 0 0 0-.042.2 3.1 3.1 0 0 1 .037 1.389c-.095.466-.384.977-.761 1.46a.295.295 0 0 1-.014.108 21.24 21.24 0 0 0-.548 2.027c-.152.708-.233 1.387-.192 1.684a.297.297 0 0 1-.223.33l-.019.005.527 1.75c.086-.013.173-.018.26-.018.256 0 .509.041.712.041a.865.865 0 0 0 .183-.016.314.314 0 0 1 .068-.007c.212 0 .657.13.787.366h1.1c.061-.797.482-1.235 1.261-1.315.788.08 1.196.518 1.222 1.315v.572h-.531l-.545 1.01h-1.766l-.532-1.01h-1.567l-2.404 3.493V18h-.571v-6.561h-4.516v-.41l-.1.109a.297.297 0 0 1-.268.092l-1.74-.292a.298.298 0 0 1-.173-.492c.217-.242.437-.48.656-.716l-1.656 1.078a.296.296 0 0 1-.412-.087.297.297 0 0 1 .087-.411l1.345-.876a.292.292 0 0 1-.076-.09.315.315 0 0 1-.02-.237c.016-.05.034-.074.048-.093.055-.076.084-.088.123-.119.04-.03.084-.06.131-.094.096-.065.206-.137.301-.2a4.156 4.156 0 0 0 .216-.156l2.379-1.672.008-.005c.805-1.13 1.568-2.316 2.457-3.414.433-.535.938-1.524 1.812-1.894.048-.262.157-.68.484-.997.353-.344.863-.463 1.416-.463zM92.954.585c.03 4.318.064 8.637.09 12.955-.062.7-.099 1.402-.18 2.1-.047.372-.29.72-.238 1.101.08.258.25.662.535.662a.4.4 0 0 0 .208-.066c.463-.178.904-.472 1.415-.472.028 0 .056 0 .085.002h.076c.97 0 1.924.214 2.887.308.526.075 1.05.195 1.583.195h.068c-.963-.218-1.914-.586-2.673-1.234-1.032-.802-2.068-1.6-3.1-2.406-.139-.172.068-8.948.137-13.114l-.893-.03zM92.43 0c.51.017 1.269.009 1.777.041.272.079.224.383.22.601l-.21 12.755c1.127.862 2.244 1.737 3.378 2.59.634.413 1.368.67 2.108.806.331-.004.666-.175.995-.175.106 0 .211.018.316.064.254.195.342.73.002.894-.513.274-1.083.379-1.657.379-.363 0-.727-.042-1.079-.109-.818-.139-1.644-.22-2.465-.336-.27-.024-.551-.06-.827-.06-.3 0-.593.042-.863.19-.324.143-.682.36-1.043.36a.806.806 0 0 1-.363-.084c-.378-.236-.597-.675-.689-1.1-.076-.556.299-1.047.292-1.599.043-.603.112-1.205.139-1.809C92.43 9.044 92.26 0 92.43 0zM81.737.585c.03 4.318.064 8.637.091 12.955-.063.7-.1 1.402-.18 2.1-.048.372-.291.72-.238 1.101.079.258.248.662.534.662a.4.4 0 0 0 .208-.066c.463-.178.905-.472 1.415-.472.028 0 .057 0 .085.002h.076c.97 0 1.924.214 2.887.308.526.075 1.05.195 1.584.195h.067c-.963-.218-1.914-.586-2.672-1.234-1.033-.802-2.07-1.6-3.1-2.406-.14-.172.067-8.948.136-13.114l-.893-.03zM81.213 0c.51.017 1.27.009 1.777.041.272.079.225.383.22.601L83 13.397c1.127.862 2.244 1.737 3.378 2.59.634.413 1.368.67 2.108.806.331-.004.666-.175.996-.175.105 0 .21.018.315.064.255.195.342.73.002.894-.512.274-1.083.379-1.657.379-.362 0-.726-.042-1.078-.109-.818-.139-1.645-.22-2.466-.336-.27-.024-.55-.06-.827-.06-.299 0-.592.042-.862.19-.325.143-.683.36-1.044.36a.806.806 0 0 1-.362-.084c-.379-.236-.597-.675-.69-1.1-.076-.556.3-1.047.293-1.599.043-.603.111-1.205.138-1.809C81.214 9.044 81.045 0 81.213 0zM76.57 0l2.234 2.643h-1.09L76.57 1.277l-1.156 1.366-1.123-1.366-1.156 1.366-1.146-1.366-1.156 1.366-1.145-1.366-1.156 1.366-1.123-1.366-1.156 1.366-1.157-1.366-1.123 1.366-1.156-1.366-1.145 1.366h-1.09L62.816 0l1.156 1.277L65.095 0l1.157 1.277L67.408 0l1.123 1.277L69.687 0l1.145 1.277L71.988 0l1.146 1.277L74.29 0l1.123 1.277L76.569 0zm2.234 10.67V18H77.58v-7.33zm-8.423.01V18h-1.225v-7.32zm-8.575 0V18H60.58v-7.32zm-6.911-7.609c.27.13.6.49.1.55-.24-.01-.79-.26-.69-.49.051.05.104.067.157.067.142 0 .287-.127.433-.127zm1.97.09c.33.08.5.44.08.52l-.021.002c-.242 0-.901-.294-.359-.361.09-.06.18-.16.3-.16zm-2.63-2.51c-.591.69-1.111 1.49-1.211 2.41-.1.66-.13 1.321-.23 1.971.47-.04.33-.77.24-1.12-.08-.69.29-1.33.55-1.941.18-.33.35-.85.81-.86.51.09.84.52 1.17.89.341-.34.701-.71 1.171-.85a.236.236 0 0 1 .082-.013c.105 0 .228.046.285.046.05 0 .049-.034-.056-.164-.064-.224-.196-.29-.36-.29-.237 0-.542.141-.799.141a.561.561 0 0 1-.112-.01c-.084.004-.17.007-.254.007-.437 0-.876-.067-1.287-.218zm.16.76c-.39.1-.48.64-.671.96-.24.56-.53 1.17-.34 1.801.15.3-.04.68-.02.9.334.235.627.73 1.07.73a.631.631 0 0 0 .15-.02c.44-.09.66-.51 1-.71.247.238.393.73.799.73a.6.6 0 0 0 .182-.03c.37-.08.86-.04.97-.49.19-.46.21-.97.24-1.47a.324.324 0 0 1-.06.006c-.203 0-.22-.235-.24-.436-.077-.293-.287-.429-.52-.429a.762.762 0 0 0-.47.178c-.17.19-.69.34-.58.64.05.18.11.371.17.561l-.42.56c-.04-.29-.47-.53-.22-.82.04-.13.19-.3.17-.4-.18-.32-.42-.6-.7-.84a.322.322 0 0 0-.23-.103c-.268 0-.538.351-.77.382-.231-.25.02-.35.25-.48a.701.701 0 0 1 .486-.196c.25 0 .5.13.654.356.19.114.322.494.489.494.053 0 .109-.037.171-.134.305-.244.672-.518 1.072-.518a.85.85 0 0 1 .179.018c.283.059.537.632.559.632v-.001c.01-.47-.21-.89-.34-1.351a.612.612 0 0 0-.595-.477.596.596 0 0 0-.475.237c-.298.11-.516.634-.796.634a.27.27 0 0 1-.154-.054c-.31-.33-.56-.72-1.01-.86zm1.42 6.943c-1.27 1.31-2.441 4.632-2.741 5.993.49-.4 1.16-.66 1.31-.91.16-.26.6-2.792 1.431-5.083zm-4.522-2.381c-2.401 1.38-6.583 8.174-7.474 9.264 1.501-.95 2.982-1.91 4.592-2.691 2.262-1.11 4.192-2.911 6.033-4.592-1.52-.51-2.61-1.37-3.151-1.981zm2.491 8.624c-.32.19-.61.45-.96.59.21.52.34 1.1.77 1.51.08.13.196.172.328.172.227 0 .504-.123.735-.123.016 0 .032 0 .047.002-.28-.7-.7-1.01-.92-2.151zm-.68-9.365c-.06.126-.138.167-.22.167-.108 0-.224-.071-.32-.116-.24.17-1.071.15-.58.51.31.42 1.967 1.566 3.118 1.768.497.087-.338.873-.608 1.153-1.56 1.4-3.091 2.882-4.962 3.892-1.17.66-2.401 1.25-3.532 1.98-.54.781-1.18 1.502-1.59 2.362.41.12.81.29 1.23.39.222.056.462.082.703.082.66 0 1.325-.197 1.618-.512.54-.57 1.13-3.001 1.441-3.892.044-.1.107-.133.175-.133.135 0 .291.132.369.132a.04.04 0 0 0 .036-.019.391.391 0 0 1 .387-.376c.175 0 .338.127.314.396.06.63.18 1.26.48 1.831.037.097.113.134.215.134.284 0 .76-.293 1.085-.374-.13-.77.92-4.712 4.002-8.014.108-.116.578-.611.536-.611-.004 0-.016.006-.035.02a2.06 2.06 0 0 1-.512.07c-.337 0-.668-.104-.84-.42-.025-.077-.058-.108-.096-.108-.137 0-.344.399-.563.399a.92.92 0 0 1-.514.155c-.29 0-.578-.131-.777-.355-.19-.17-.37-.34-.56-.51zM54.144 0c.315.14.865.28 1.36.28.071 0 .142-.004.21-.01a.804.804 0 0 0 .144.012c.336 0 .699-.18 1.025-.18.124 0 .243.026.353.098.55.8 1.05 1.69 1.11 2.681.11 1.901.06 2.562-1.44 4.122-.59 1.341-1.691 5.713-2.021 6.904-.36.34.45 2.2.79 2.66.185.256.673.268 1.197.268h.172c.47 0 .948.01 1.242.193.28.18.38.85.22.94-.15-.23-.45-.54-.66-.57.2.21-.5.11-.65.16-.405.007-.814.041-1.225.041-.199 0-.397-.008-.596-.03-.09-.04-.187-.102-.229-.102-.033 0-.033.038.029.151a3.689 3.689 0 0 1-.913.111c-.7 0-1.363-.187-1.508-.56-.3-.551-.58-1.131-.78-1.732-.256.054-.577.234-.835.234a.38.38 0 0 1-.206-.054c-.28-.19-.57-1.08-.73-1.67-.016-.062-.1-.092-.184-.092-.08 0-.162.028-.187.082-.3.6-.8 2.44-1.28 3.211-.363.571-1.241.852-2.176.852a4.48 4.48 0 0 1-1.716-.332c-.65-.28-1.13-.22-.99-.58.22-.6.6-1.17 1-1.68-.58.36-1.16.73-1.741 1.09-.048.174-.168.243-.291.243-.237 0-.483-.256-.24-.513 2.272-3.282 5.883-8.875 8.385-10.685.4-.35.87-.62 1.39-.75.17-.44.12-1.031.22-1.531.1-.99.7-2.632 1.751-3.262zM31.107 2.085q.253 0 .334.08.071.082.193.082v.09l-.142.021q-.157.157-.418.157-.193 0-.443-.086l-.253.07-.02-.181.223-.02q.324-.183.526-.213zM29.781.465q-.467 0-1.083.142-1.043.233-1.053 1.316-.01 1.073.607 1.57.327.271.595.271.23 0 .418-.201.182-.182.07-.294-.293-.09-.273-.455-.314-.385-.314-.658-.02-.477.438-.477h.038q.203.021.344.132.896-.594 1.577-.594.074 0 .144.007-.293-.516-.92-.688-.257-.072-.588-.072zm-2.845 6.803q-.395.81-1.549 2.36.435-.294 2.136-.618l-.587-1.742zm4.198-5.704q-.639 0-1.363.551l.07.203q-.084.05-.164.05-.035 0-.068-.01-.162-.425-.365-.425-.024-.003-.046-.003-.195 0-.176.246 0 .253.273.567 0 .28.136.28.022 0 .046-.007.182-.04.152-.202.122.455-.213 1.154L28.92 5.05q-.172.375-.546.395-.375.02-.86.111-.487.092-.264.658.223.567.931 2.542l.476-.223q.496-1.002 1.721-1.701.233.223-.09.587l.364.8q.07.476-.365.75-.607.273-1.336.273l-.638.516.182 3.34 1.822.406q1.428-4.566 1.701-4.961.274-.395.152-2.258.05-.637-1.043-.637-1.133 0-1.042-.517l.141-.415q.112-.385.091-.476.09-.024.208-.024.177 0 .42.055.23.02.396.02.333 0 .414-.081.122-.122.081-.334l-.324-.112q-.111-.06-.04-.202l.455-.04q-.162-.345.04-.456l.058.002q.216 0 .216-.144-.07-.132-.283-.486-.213-.354-.517-.455-.136-.044-.27-.044-.176 0-.347.074-.304.121-.577.192l-.051-.121q.253-.06.526-.203.264-.136.491-.136.228 0 .42.136-.05-.182-.141-.273-.176-.045-.358-.045zm3.922 9.562l-3.726 2.581 4.16 1.256q-.14-2.886.386-3.837zm-6.652 2.43q-.425 1.63.506 2.834.835.498 1.879.498.717 0 1.533-.235.837-.245 1.638-.245 1.119 0 2.169.478-.182-.637-2.977-2.085l-4.748-1.246zM29.636 0q.324 0 .651.05 1.134.131 1.66 1.559.071.385.345.719.273.324.354.719 0 .222-.283.232-.284.01-.071.193.09.02.07.09-.01.072-.07.092.131.142 0 .192-.142.061-.102.203.03.152-.05.374-.081.233-.81.233l-.628-.09q.04.151-.05.364 1.822.02 2.267.79 1.53 1.275 2.906 2.703.273-.567 1.245-1.55.962-.971 1.124-1.427.334-.992 1.428-1.883.243.182 0 .587l.455.73q.132.475-.253.799-.587.354-1.205.75-1.7 3.016-2.49 3.26-.044.006-.091.006-.601 0-1.802-1.07-1.19-1.04-1.412-1.04-.078 0-.036.129 0 .658-.274 1.124-.273.465-1.336 4.232l3.31-2.47q.75-.68 1.317-.68 1.59.021 1.407 1.317l-.567 4.04q1.205.293 1.114 1.812.546.111 1.002.314.368.159.743.159.079 0 .158-.007l.054-.002q.413 0 .584.447H24.213q.41-.804 1.112-.804.146 0 .305.035.153.034.29.034.676 0 .945-.834.2-.632.576-.632.215 0 .487.207-.729-1.408-.04-2.957-.03-1.68-.142-2.996-2.38.749-3.149.749Q24 10.74 24 10.285q.526-2.045 2.43-4.566.385-.77 1.974-.84.273-.364.294-.638-.658-.152-1.104-.688-.456-.537-.445-1.742.01-1.194 1.042-1.559Q28.906 0 29.636 0zM2.646 0L0 2.646v.708L3.177.177 3.354 0zm3 0L0 5.646v.708L6.177.177 6.354 0zm3 0L0 8.646v.708L9.177.177 9.354 0zM0 9.354zM11.646 0L0 11.646v.708L12.177.177 12.354 0zm3 0L0 14.646v.708L15.177.177 15.354 0zm3 0L0 17.646V18h.354L18.177.177 18.354 0zm3 0L2.823 17.823 2.646 18h.708L21.177.177 21.354 0zM22 1.646L5.823 17.823 5.646 18h.708L22 2.354v-.708zm0 3L8.823 17.823 8.646 18h.708L22 5.354v-.708zm0 3L11.823 17.823l-.177.177h.708L22 8.354v-.708zm0 3l-7.177 7.177-.177.177h.708L22 11.354v-.708zm0 3l-4.177 4.177-.177.177h.708L22 14.354v-.708zm0 3l-1.177 1.177-.177.177h.708l.646-.646v-.708z"/></svg>