<svg xmlns="http://www.w3.org/2000/svg" width="375.278" height="18"><path d="M373.63 0c.336 0 .67.026.995.066.448.113.218.626-.18.626a.476.476 0 0 1-.081-.008c-.84.097-1.872.15-2.506.626-.841.916-.463 2.821-.561 3.725-.007.05-.01 3.653-.01 5.48a6.145 6.145 0 0 1 2.634-.586c.402 0 .802.04 1.188.117.441.231-.077.528-.423.528a.454.454 0 0 1-.114-.013c-1.226.133-2.62.461-3.243 1.602-.062.206-.023.277.07.277.207 0 .68-.342.947-.342.014 0 .027 0 .04.003a7.535 7.535 0 0 1 1.58-.169 6.8 6.8 0 0 1 1.149.095c.42.278-.096.534-.438.534a.532.532 0 0 1-.105-.01c-1.251.151-2.636.49-3.243 1.633-.007 1.27 0 2.11-.034 3.278.015.36-.219.538-.456.538-.235 0-.473-.176-.474-.526.009-1.15.09-2.161-.06-3.277-.305-1.253-2.478-1.445-3.827-1.754-.295-.347.285-.475.658-.475.056 0 .107.003.15.008.173-.013.347-.02.522-.02.882 0 1.771.175 2.557.58.032-.755-.711-1.19-1.244-1.493-.84-.361-1.766-.397-2.643-.59-.313-.273.18-.501.521-.501a.58.58 0 0 1 .125.012 7.01 7.01 0 0 1 .648-.031c.902 0 1.804.183 2.614.582-.016-2.851-.063-5.61.02-8.308.065-.834.545-1.6 1.354-1.849.58-.264 1.227-.358 1.87-.358zm-23.994 2.99q-.557 0-1.087.606 4.368 5.2 5.46 5.81.815.457 1.435.457.21 0 .399-.053.74-.208 1.586-.234h.042q.828 0 1.817.988h.13q-.702-1.638-1.963-2.34-1.261-.702-7.398-5.148-.212-.085-.421-.085zm7.73-2.369q-.065 0-.132.01v6.683q2.054 1.196 2.834 3.354-1.196-8.268-1.677-9.204-.433-.843-1.024-.843zm5.356 10.468q.081 0 .154.138.13.247-.234.689-.208-.546-.052-.741.069-.086.132-.086zm-.036-.372q-.153 0-.33.237-.39.52.234 2.08.702-1.352.429-1.976-.15-.34-.333-.34zm-6.804 2.577v.39q.286-.026.442-.182-.052-.078-.208-.208zm-.598.884l-2.419.338-.494.884q.832-.234 1.834-.624 1-.39 1.079-.598zm5.33-.364l-.468.234-.156 1.118.416 1.274h.65l-.442-1.274v-1.352zm-1.118.39l-.442.13-.156.832.416 1.274h.65l-.442-1.274-.026-.962zm-1.534.156l-.156.806.416 1.274h.65l-.442-1.274v-.78l-.468-.026zm.994-3.234q-.415 0-.89.1-1.404.3-1.768 1.418h-1.092l-.416-.676q-5.513 1.274-6.215 4.602 1.508-.832 3.172-1.118l.728-1.456 2.887-.39-.078-.702h.988q1.092.9 2.228.9.243 0 .489-.042 1.39-.234 1.82-.95.429-.714-.455-1.3-.585-.386-1.398-.386zM357.11 0q.948 0 1.489.658.663.806 1.235 4.238l.91 5.954q.442.468.676.52h.312q.026-.65.494-1.196.416-3.978-.364-6.968l.312-.598q1.118 3.38.546 7.592h.078q1.794-4.03.52-7.592l.312-.468q1.664 3.796-.364 8.242.572 1.248.117 2.054-.455.806-.56 1.508l-.181.13q-.702-1.04-.806-1.794h-.26q-.026.598-.338 1.248l-.182 1.638.442 1.274h2.262v.624h-6.526v-.624h.546l-.416-1.274-.026-.962q-.468-.156-.702-.364-.338.312-.754.312.026.26-.104.442-1.04.806-3.719 1.404l-.91 1.768q0-.434-.269-.434-.086 0-.199.044l.728-1.3q-1.508.338-2.288.858-.416.442.052 1.066-1.04-.442-1.17-1.248.416-3.926 7.047-5.46l.468.78h.416q.338-1.092 2.678-1.508-.523-.388-1.285-.388-.414 0-.9.115-.492.116-.96.116-.845 0-1.613-.376-1.197-.585-6.085-6.461.901-1.136 1.905-1.136.33 0 .67.122l6.318 4.524V.034q.234-.034.448-.034z"/><path d="M338.27.375c9.624 0 9.624 17.25 0 17.25" fill="none" stroke="#000"/><path d="M332.048 7.938c.68.054 1.057.394 1.13 1.022-.09.68-.467 1.04-1.13 1.075-.664-.036-1.013-.394-1.049-1.075.054-.628.403-.968 1.049-1.022zm-.08-2.259c-.485 0-.933.09-1.345.27a3.545 3.545 0 0 0-1.828 1.815 3.11 3.11 0 0 0-.27 1.276c0 .466.09.901.27 1.304.178.404.425.758.739 1.063a3.422 3.422 0 0 0 2.433.968c.484 0 .937-.086 1.358-.256.421-.17.784-.408 1.089-.712.305-.305.547-.66.726-1.063.18-.403.269-.838.269-1.304 0-.448-.09-.874-.269-1.277a3.67 3.67 0 0 0-.726-1.075 3.302 3.302 0 0 0-1.089-.74 3.431 3.431 0 0 0-1.358-.269zm.053-.914a4.17 4.17 0 0 1 1.667.336c.52.224.968.529 1.344.914.377.386.677.834.901 1.345.224.51.336 1.062.336 1.653 0 .592-.112 1.143-.336 1.654a4.31 4.31 0 0 1-.9 1.331 4.267 4.267 0 0 1-3.012 1.237 4.071 4.071 0 0 1-1.654-.336 4.48 4.48 0 0 1-1.344-.9 4.195 4.195 0 0 1-.915-1.332 4.071 4.071 0 0 1-.336-1.654c0-.591.112-1.142.336-1.653a4.358 4.358 0 0 1 2.26-2.259 4.071 4.071 0 0 1 1.653-.336zm-8.446-3.475l-4.85.271c-.086.939-.043 1.988.127 3.146 1.81-1 3.385-2.139 4.723-3.417zM318.312 0c.27 0 .548.175.835.524l5.243-.27c1.238.32 1.491.816.758 1.489a1.807 1.807 0 0 0-.38-.047c-.273 0-.45.094-.53.282-.115.264-.423.609-.925 1.034-.502.426-1.862 1.304-4.081 2.636-.263.657-.552.986-.87.986-.148 0-.302-.072-.462-.216-3.155 1.36-6.202 2.312-9.142 2.853l-.415-.325 1.013-1.077c2.159-.187 4.97-1.026 8.431-2.517a8.956 8.956 0 0 0 .06-3.67l-5.87.393c-.871-.218-.936-.67-.194-1.354l5.778-.241c.242-.32.493-.48.75-.48zm-1.362 14.1q-3.108 0-6.59 1.501 3.482 1.46 6.59 1.46 3.087 0 6.59-1.46-3.503-1.501-6.59-1.501zm0-.96q3.838 0 8.822 2.44Q320.788 18 316.95 18q-3.838 0-8.822-2.42 4.964-2.44 8.822-2.44zm-13.208-1.357c-.534.205-1.116.861-1.287 1.402-.17.54-.15 1.171-.03 1.792.12.61.36 1.191.651 1.571.2.26.38.41.55.46h.16c.171-.04.391-.19.612-.46.29-.38.53-.96.65-1.571.12-.621.14-1.252-.03-1.792-.17-.541-.808-1.243-1.276-1.395v-.007zM304.308 0v1.201h1.08v.771h-1.08l.15 9.09c.77.4 1.251 1.081 1.481 1.812.23.751.24 1.562.09 2.313-.15.75-.45 1.411-.86 1.942-.31.4-.721.73-1.202.831v.03c-.03.01-.06.01-.09.01-.04 0-.08-.01-.12-.01-.05.01-.1.01-.14.01-.04 0-.07 0-.11-.01v-.03c-.48-.1-.891-.43-1.202-.831a4.654 4.654 0 0 1-.86-1.942c-.15-.751-.14-1.562.09-2.313a2.97 2.97 0 0 1 1.481-1.782l.15-9.12h-1.02l-.03-.77h1.14V0h1.052z"/><path d="M291.659.375v17.25m7.687-17.25c-9.625 0-9.625 17.25 0 17.25m0 0" fill="none" stroke="#000"/><path d="M283.689.597a2.12 2.12 0 0 0-.692.109c.031.223.169.569.953.773-.73-.053-1.206-.113-1.452-.307-.09.2-.138.427-.159.556a.297.297 0 0 1-.206.237c-.625.191-1.174 1.112-1.7 1.763-.95 1.173-1.771 2.48-2.688 3.733.423-.207.845-.415 1.27-.622 1.182-.622 2.395-1.11 3.407-1.877.588-.49 1.172-.996 1.39-1.641.076-.497-.296-1.074-.767-1.279a.297.297 0 1 1 .238-.545c.377.164.7.458.904.817a1.986 1.986 0 0 0-.075-.448.297.297 0 0 1-.013-.104c.01-.184.042-.313.083-.422.04-.109.084-.206.157-.459a.297.297 0 0 1 .105-.153 1.546 1.546 0 0 0-.528-.125c-.042-.003-.083-.003-.124-.004a.258.258 0 1 1-.103-.002zm-1.194 5.432c-.605.466-1.253.873-1.888 1.28.005.438-.006.879-.046 1.321.206-.135.433-.236.697-.3.39-.636.82-1.22 1.082-1.842a4.64 4.64 0 0 0 .155-.46zm.25 1c-.274.549-.622 1.04-.93 1.529.06.04.113.08.155.121l.028.027c.168-.194.374-.351.613-.454-.01-.348.047-.768.133-1.222zm-2.881.047a25.922 25.922 0 0 0-.588.297c-.78.38-1.56.772-2.35 1.148-.556.67-1.156 1.293-1.734 1.92l1.043.175 2.563-2.786a.297.297 0 0 1 .04-.036 18.5 18.5 0 0 1 1.026-.718zm2.591 2.009c-.057.066-.112.14-.161.222a.298.298 0 0 1-.43.087c-.124-.09-.2-.177-.265-.244l-.077 1.413c.1-.006.201-.013.296-.013.167 0 .313.022.398.108.1-.078.28-.1.504-.1.057 0 .118.002.18.005l-.445-1.478zm5.42.999c-.453.062-.687.323-.705.783h1.395c0-.46-.23-.721-.69-.783zm-7.862-2.39c-.273.182-.541.367-.798.56l-2.402 2.613h2.456c.171-.19.518-.365.776-.365.073 0 .14.014.192.046a3.01 3.01 0 0 1 .256-.01c.14 0 .286.007.433.016l.083-1.506c-.224.115-.407.282-.625.542a.297.297 0 0 1-.52-.246c.1-.544.142-1.093.15-1.65zm6.24 3.745l.266.465h1.249l.252-.465zm-4.515 0v2.51l1.726-2.51zM283.682 0a3.878 3.878 0 0 1 .272.01c.694.044 1.215.325 1.408.768a.298.298 0 0 1-.341.408l-.024-.006-.03.007-.109.029c-.054.168-.095.269-.12.332a.541.541 0 0 0-.042.2 3.1 3.1 0 0 1 .037 1.389c-.095.466-.384.977-.761 1.46a.295.295 0 0 1-.014.108 21.24 21.24 0 0 0-.548 2.027c-.152.708-.233 1.387-.192 1.684a.297.297 0 0 1-.223.33l-.019.005.527 1.75c.086-.013.173-.018.26-.018.256 0 .509.041.712.041a.865.865 0 0 0 .183-.016.314.314 0 0 1 .068-.007c.212 0 .657.13.787.366h1.1c.061-.797.482-1.235 1.261-1.315.788.08 1.196.518 1.222 1.315v.572h-.531l-.545 1.01h-1.766l-.532-1.01h-1.567l-2.404 3.493V18h-.571v-6.561h-4.516v-.41l-.1.109a.297.297 0 0 1-.268.092l-1.74-.292a.298.298 0 0 1-.173-.492c.217-.242.437-.48.656-.716l-1.656 1.078a.296.296 0 0 1-.412-.087.297.297 0 0 1 .087-.411l1.345-.876a.292.292 0 0 1-.076-.09.315.315 0 0 1-.02-.237c.016-.05.034-.074.048-.093.055-.076.084-.088.123-.119.04-.03.084-.06.131-.094.096-.065.206-.137.301-.2a4.156 4.156 0 0 0 .216-.156l2.379-1.672.008-.005c.805-1.13 1.568-2.316 2.457-3.414.433-.535.938-1.524 1.812-1.894.048-.262.157-.68.484-.997.352-.344.863-.463 1.416-.463zm-17.704 1.343q.088.166.199.364l.187 1.091q0 .573-.187 1.07-.199.43-.496.771 1.995-.364 3.593-.54-1.003-.595-1.576-1.323-.584-.727-1.72-1.433zm-4.707-.088q-.606.044-2.039.915-1.433.86-2.954 1.422 1.113.066 2.425.474 1.323.397 2.778.595-.232-.275-.463-.782-.22-.508-.22-1.08 0-.585.209-1.092.11-.243.264-.452zm2.32-.508q-.381 0-.732.155-.375.155-.662.42-.286.253-.463.616-.143.364-.165.783-.022.419.132.783.166.364.42.65.264.298.627.463.364.154.783.165l.054.001q.379 0 .729-.144.375-.154.661-.408.276-.253.441-.617.154-.364.176-.794 0-.408-.154-.771-.143-.364-.397-.65-.264-.298-.628-.442-.364-.198-.772-.21h-.05zm.06-.747q.721 0 1.423.153 1.522.33 3.087 1.973 1.565 1.631 2.745 1.742l.022.771q-2.679.232-5.258.706-.965.177-2.03.177-1.782 0-3.846-.497-3.285-.794-4.167-.96h-1.455v-.947h1.5q1.069-.364 2.865-1.444 1.786-1.08 3.407-1.466Q262.81 0 263.65 0zm5.222 15.57l2.055 2.43h-1.003l-1.052-1.255L267.81 18l-1.033-1.255L265.714 18l-1.053-1.255L263.598 18l-1.053-1.255L261.482 18l-1.033-1.255L259.386 18l-1.063-1.255L257.29 18l-1.063-1.255L255.175 18h-1.003l2.055-2.43 1.063 1.175 1.033-1.175 1.063 1.175 1.063-1.175 1.033 1.175 1.063-1.175 1.053 1.175 1.063-1.175 1.053 1.175 1.063-1.175 1.033 1.175 1.063-1.175zm-18.561-7.353q-.898 0-2.038 1.279-.88.98-2.383.98-.552 0-1.189-.133-2.378-.492-3.99-.519-.23-.005-.451-.005-1.328 0-2.374.187-1.221.21-2.196.848-.975.647-1.859.647.178.01.354.01 1.17 0 2.225-.475.788-.353 2.599-.353.95 0 2.184.098 2.22.175 3.653.175.877 0 1.459-.066 1.53-.173 2.278-1.24.616-.878.959-.878.073 0 .134.04.356.237.939.247h.028q.557 0 .655-.356.018-.419-.902-.483-.042-.003-.085-.003zm-1.309-2.129q.71 0 1.112 1.613.089-.01.181-.01.155 0 .32.028.565-1.449 1.266-1.449.246 0 .283.174.036.164-.1.346-.647.51-.866 1.066.665.328.665.847-.064.784-.865.866-.226.023-.418.023-.492 0-.767-.15-.107-.06-.208-.06-.259 0-.475.387-.31.547-1.176 1.176-.787.58-3.253.58-.247 0-.51-.006-2.934-.018-4.61-.155-.45-.039-.861-.039-1.131 0-1.973.294-.82.293-2.951.293-.853 0-1.915-.047-.045 0-.082-.182 0-.547 1.166-.547 1.595-.055 2.078-.456.483-.41 1.613-.938 1.139-.538 3.371-.538t4.547.538q.718.164 1.313.164 1.323 0 2.04-.811 1.039-1.175 1.576-1.276 0-.382-.392-.838-.391-.446-.364-.674.018-.219.255-.219zm-22.889-3.017c.27.13.6.49.1.55-.24-.01-.79-.26-.69-.49.051.05.104.067.157.067.142 0 .287-.127.433-.127zm1.97.09c.33.08.501.44.08.52l-.021.002c-.242 0-.901-.294-.358-.361.09-.06.18-.16.3-.16zm-2.63-2.51c-.59.69-1.111 1.49-1.211 2.41-.1.66-.13 1.321-.23 1.971.47-.04.33-.77.24-1.12-.08-.69.29-1.33.55-1.941.18-.33.35-.85.81-.86.51.09.841.52 1.171.89.34-.34.7-.71 1.17-.85a.236.236 0 0 1 .082-.013c.105 0 .229.046.285.046.05 0 .049-.034-.056-.164-.064-.224-.196-.29-.359-.29-.238 0-.543.141-.8.141a.561.561 0 0 1-.112-.01 5.346 5.346 0 0 1-.254.007c-.437 0-.876-.067-1.287-.218zm.16.76c-.39.1-.48.64-.67.96-.24.56-.531 1.17-.34 1.801.15.3-.04.68-.02.9.333.235.626.73 1.069.73a.631.631 0 0 0 .15-.02c.44-.09.661-.51 1.001-.71.246.238.392.73.798.73a.612.612 0 0 0 .183-.03c.37-.08.86-.04.97-.49.19-.46.21-.97.24-1.47a.324.324 0 0 1-.06.006c-.203 0-.222-.235-.24-.436-.078-.293-.287-.429-.52-.429a.762.762 0 0 0-.47.178c-.17.19-.69.34-.58.64.05.18.11.371.17.561l-.42.56c-.04-.29-.471-.53-.221-.82.04-.13.19-.3.17-.4-.18-.32-.42-.6-.7-.84a.322.322 0 0 0-.23-.103c-.268 0-.537.351-.77.382-.23-.25.02-.35.25-.48a.701.701 0 0 1 .486-.196c.25 0 .5.13.654.356.19.114.322.494.49.494.052 0 .108-.037.17-.134.306-.244.672-.518 1.072-.518.06 0 .119.005.179.018.283.059.537.632.559.632l.001-.001c.01-.47-.21-.89-.34-1.351a.612.612 0 0 0-.596-.477.596.596 0 0 0-.475.237c-.297.11-.516.634-.796.634a.272.272 0 0 1-.154-.054c-.31-.33-.56-.72-1.01-.86zm1.42 6.943c-1.27 1.31-2.44 4.632-2.741 5.993.49-.4 1.16-.66 1.31-.91.16-.26.6-2.792 1.431-5.083zm-4.522-2.381c-2.401 1.38-6.583 8.174-7.473 9.264 1.5-.95 2.981-1.91 4.592-2.691 2.26-1.11 4.192-2.911 6.033-4.592-1.521-.51-2.612-1.37-3.152-1.981zm2.491 8.624c-.32.19-.61.45-.96.59.21.52.34 1.1.77 1.51.081.13.196.172.328.172.228 0 .504-.123.735-.123.016 0 .032 0 .048.002-.28-.7-.7-1.01-.92-2.151zm-.68-9.365c-.06.126-.138.167-.22.167-.108 0-.224-.071-.32-.116-.24.17-1.07.15-.58.51.31.42 1.967 1.566 3.118 1.768.498.087-.337.873-.607 1.153-1.561 1.4-3.092 2.882-4.963 3.892-1.17.66-2.4 1.25-3.531 1.98-.54.781-1.181 1.502-1.591 2.362.41.12.81.29 1.23.39.222.056.462.082.703.082.66 0 1.325-.197 1.619-.512.54-.57 1.13-3.001 1.44-3.892.044-.1.107-.133.175-.133.135 0 .292.132.369.132.016 0 .028-.006.036-.019a.391.391 0 0 1 .387-.376c.175 0 .339.127.314.396.06.63.18 1.26.48 1.831.037.097.114.134.215.134.284 0 .761-.293 1.086-.374-.13-.77.92-4.712 4.002-8.014.107-.116.577-.611.536-.611-.005 0-.017.006-.036.02a2.06 2.06 0 0 1-.511.07c-.338 0-.669-.104-.84-.42-.026-.077-.059-.108-.097-.108-.137 0-.344.399-.563.399a.92.92 0 0 1-.514.155c-.29 0-.578-.131-.777-.355-.19-.17-.37-.34-.56-.51zM225.363 0c.315.14.866.28 1.36.28.072 0 .142-.004.211-.01a.804.804 0 0 0 .143.012c.337 0 .7-.18 1.025-.18.124 0 .243.026.353.098.55.8 1.05 1.69 1.11 2.681.11 1.901.06 2.562-1.44 4.122-.59 1.341-1.691 5.713-2.021 6.904-.36.34.45 2.2.79 2.66.185.256.673.268 1.197.268h.172c.471 0 .948.01 1.242.193.28.18.38.85.22.94-.15-.23-.45-.54-.66-.57.2.21-.5.11-.65.16-.405.007-.814.041-1.225.041-.198 0-.397-.008-.596-.03-.09-.04-.186-.102-.229-.102-.032 0-.032.038.029.151a3.683 3.683 0 0 1-.913.111c-.7 0-1.363-.187-1.508-.56-.3-.551-.58-1.131-.78-1.732-.256.054-.577.234-.835.234a.38.38 0 0 1-.206-.054c-.28-.19-.57-1.08-.73-1.67-.016-.062-.099-.092-.183-.092-.081 0-.163.028-.188.082-.3.6-.8 2.44-1.28 3.211-.362.571-1.24.852-2.175.852a4.48 4.48 0 0 1-1.717-.332c-.65-.28-1.13-.22-.99-.58.22-.6.6-1.17 1-1.68-.58.36-1.16.73-1.74 1.09-.049.174-.169.243-.292.243-.237 0-.483-.256-.24-.513 2.272-3.282 5.884-8.875 8.385-10.685.4-.35.87-.62 1.39-.75.17-.44.12-1.031.22-1.531.1-.99.7-2.632 1.751-3.262zm-15.491 0c.336 0 .67.026.995.066.447.113.217.626-.18.626a.476.476 0 0 1-.082-.008c-.839.097-1.872.15-2.506.626-.84.916-.463 2.821-.56 3.725-.008.05-.01 3.653-.01 5.48a6.145 6.145 0 0 1 2.634-.586c.402 0 .801.04 1.188.117.44.231-.077.528-.423.528a.454.454 0 0 1-.115-.013c-1.226.133-2.62.461-3.243 1.602-.061.206-.023.277.071.277.206 0 .68-.342.947-.342.014 0 .027 0 .04.003a7.535 7.535 0 0 1 1.58-.169c.39 0 .776.031 1.148.095.421.278-.095.534-.438.534a.532.532 0 0 1-.105-.01c-1.251.151-2.636.49-3.243 1.633-.006 1.27 0 2.11-.033 3.278.014.36-.22.538-.456.538-.235 0-.473-.176-.475-.526.01-1.15.091-2.161-.06-3.277-.304-1.253-2.477-1.445-3.827-1.754-.294-.347.285-.475.659-.475.056 0 .107.003.15.008.173-.013.347-.02.521-.02.882 0 1.771.175 2.557.58.032-.755-.711-1.19-1.243-1.493-.84-.361-1.766-.397-2.644-.59-.313-.273.18-.501.522-.501a.58.58 0 0 1 .125.012c.215-.02.431-.031.647-.031.903 0 1.805.183 2.615.582-.017-2.851-.063-5.61.019-8.308.065-.834.546-1.6 1.354-1.849.58-.264 1.227-.358 1.871-.358zm-17.629.601c-1.074 0-2.419.552-3.07 1.202-.568.57-.643 1.324-.663 2.025h7.434c-.02-.7-.095-1.455-.664-2.025-.65-.65-1.963-1.202-3.037-1.202zm0-.601c1.274 0 2.645.589 3.448 1.392.824.824.918 1.91.918 2.72v.317h-8.732v-.316c0-.812.062-1.897.886-2.72.803-.804 2.206-1.393 3.48-1.393zm6.322 15.57l2.056 2.43h-1.003l-1.053-1.255L197.502 18l-1.032-1.255L195.407 18l-1.053-1.255L193.29 18l-1.053-1.255L191.175 18l-1.033-1.255L189.079 18l-1.063-1.255L186.983 18l-1.063-1.255L184.867 18h-1.002l2.055-2.43 1.063 1.175 1.033-1.175 1.063 1.175 1.063-1.175 1.033 1.175 1.063-1.175 1.053 1.175 1.063-1.175 1.053 1.175 1.063-1.175 1.032 1.175 1.063-1.175zM179.79 1.124q-2.015.293-2.106 1.842v11.177q.941-1.124 3.381-1.58l-1.275-11.44zM180.357 0l1.508 13.363q-3.361.385-4.181 2.4V18h-1.002V2.966q0-2.51 3.675-2.966z"/><path d="M176.682 0v.672l.495-.495.177-.177zm2.964 0l-2.964 2.965v.707l3.495-3.495.177-.177zm2.22.781l-5.184 5.184v.707l5.183-5.184V.781zm0 3l-5.184 5.184v.707l5.183-5.184v-.707zm0 3l-5.184 5.184v.707l5.183-5.184v-.707zm0 3l-5.184 5.184v.707l5.183-5.184v-.707zm0 3l-5.043 5.042-.141.142V18h.672l4.511-4.512v-.707zm0 3l-2.043 2.042-.177.177h.708l1.511-1.512v-.707zM182.646 0l-.78.781v.707l1.31-1.311.178-.177zm1.22 1.781l-2 2v.707l2-2v-.707zm0 3l-2 2v.707l2-2v-.707zm0 3l-2 2v.707l2-2v-.707zm0 3l-2 2v.707l2-2v-.707zm0 3l-2 2v.707l2-2v-.707zm0 3l-1.043 1.042-.177.177h.708l.511-.512v-.707zm-11.26-15.657q-2.014.293-2.105 1.842v11.177q.941-1.124 3.38-1.58l-1.275-11.44zM173.173 0l1.509 13.363q-3.361.385-4.181 2.4V18h-1.003V2.966q0-2.51 3.675-2.966z"/><path d="M170.646 0l-1.148 1.148v.707l1.679-1.678.177-.177zm3 0l-4.148 4.148v.707l4.679-4.678.177-.177zm1.036 1.965l-5.184 5.183v.707l5.184-5.183v-.707zm0 3l-5.184 5.183v.707l5.184-5.183v-.707zm0 3l-5.184 5.183v.707l5.184-5.183v-.707zm0 3l-5.184 5.183v.707l5.184-5.183v-.707zm0 3l-3.859 3.858-.177.177h.708l3.328-3.328v-.707zm0 3l-.859.858-.177.177h.708l.328-.328v-.707zM176.646 0l-1.964 1.965v.707l2-2V0zm.036 2.965l-2 2v.707l2-2v-.707zm0 3l-2 2v.707l2-2v-.707zm0 3l-2 2v.707l2-2v-.707zm0 3l-2 2v.707l2-2v-.707zm0 3l-2 2v.707l2-2v-.707zM161.096.601c-1.074 0-2.418.552-3.069 1.202-.569.57-.643 1.324-.664 2.025h7.435c-.021-.7-.095-1.455-.665-2.025-.65-.65-1.963-1.202-3.037-1.202zm0-.601c1.274 0 2.645.589 3.449 1.392.824.824.917 1.91.917 2.72v.317h-8.732v-.316c0-.812.062-1.897.886-2.72.803-.804 2.206-1.393 3.48-1.393zm-.08 15.84c-.208 0-.333.036-.397.073-.189.12-.099.408-.068.587h.93c.023-.183.125-.464-.068-.587-.065-.037-.19-.072-.397-.072zm5.173 1.087v.647h.883v-.647zm-4.59 0v.647h4.377v-.647zm-1.064 0v.647h.852v-.647zm-4.273 0v.647h4.06v-.647zm-1.142 0v.647h.93v-.647zm7.765-1.733l.301.302-1.007 1.004h5.32V18h-12.805v-1.5h5.159l-1.008-1.004.302-.302.931.929c.056-.563.442-.693.938-.709.53.015.856.134.938.709l.931-.93z"/><path d="M155.646 0l-.952.952v.707l1.483-1.482.177-.177zm3 0l-3.952 3.952v.707l4.483-4.482.177-.177zm3 0l-6.952 6.952v.707l7.483-7.482.177-.177zm3 0l-9.952 9.952v.707L165.177.177l.177-.177zm2.852.148l-12.804 12.804v.707L167.498.855V.148zm0 3l-12.804 12.804v.707l12.804-12.804v-.707zm0 3l-11.675 11.675-.177.177h.708l11.144-11.145v-.707zm0 3l-8.675 8.675-.177.177h.708l8.144-8.145v-.707zm0 3l-5.675 5.675-.177.177h.708l5.144-5.145v-.707zm0 3l-2.675 2.675-.177.177h.708l2.144-2.145v-.707zM167.646 0l-.148.148v.707l.679-.678.177-.177zm1.852 1.148l-2 2v.707l2-2v-.707zm0 3l-2 2v.707l2-2v-.707zm0 3l-2 2v.707l2-2v-.707zm0 3l-2 2v.707l2-2v-.707zm0 3l-2 2v.707l2-2v-.707zm0 3l-1.675 1.675-.177.177h.708l1.144-1.145v-.707zM147.287.597a2.12 2.12 0 0 0-.692.109c.031.223.169.569.953.773-.73-.053-1.206-.113-1.452-.307-.09.2-.138.427-.159.556a.297.297 0 0 1-.206.237c-.625.191-1.174 1.112-1.7 1.763-.95 1.173-1.772 2.48-2.688 3.733.423-.207.845-.415 1.27-.622 1.182-.622 2.394-1.11 3.407-1.877.588-.49 1.172-.996 1.39-1.641.076-.497-.296-1.074-.767-1.279a.297.297 0 1 1 .238-.545c.376.164.699.458.904.817a1.986 1.986 0 0 0-.075-.448.297.297 0 0 1-.013-.104c.01-.184.042-.313.082-.422.041-.109.085-.206.158-.459a.297.297 0 0 1 .105-.153 1.546 1.546 0 0 0-.528-.125c-.042-.003-.083-.003-.125-.004a.258.258 0 1 1-.102-.002zm-1.194 5.432c-.605.466-1.253.873-1.888 1.28.005.438-.006.879-.047 1.321.207-.135.434-.236.697-.3.392-.636.82-1.22 1.083-1.842a4.64 4.64 0 0 0 .155-.46zm.25 1c-.274.549-.622 1.04-.93 1.529.06.04.113.08.155.121l.028.027c.168-.194.374-.351.613-.454-.01-.348.047-.768.133-1.222zm-2.882.047a25.922 25.922 0 0 0-.587.297c-.78.38-1.56.772-2.35 1.148-.556.67-1.156 1.293-1.734 1.92l1.043.175 2.563-2.786a.297.297 0 0 1 .04-.036c.333-.253.678-.489 1.025-.718zm2.592 2.009c-.058.066-.112.14-.161.222a.298.298 0 0 1-.43.087c-.124-.09-.2-.177-.265-.244l-.077 1.413c.1-.006.201-.013.296-.013.167 0 .313.022.398.108.1-.078.28-.1.504-.1.057 0 .118.002.18.005l-.445-1.478zm5.419.999c-.452.062-.686.323-.704.783h1.395c0-.46-.23-.721-.691-.783zm-7.86-2.39c-.274.182-.542.367-.799.56l-2.402 2.613h2.456c.17-.19.518-.365.776-.365.073 0 .14.014.192.046.081-.007.167-.01.256-.01.14 0 .285.007.433.016l.083-1.506c-.224.115-.407.282-.625.542a.297.297 0 0 1-.52-.246c.1-.544.142-1.093.15-1.65zm6.24 3.745l.265.465h1.249l.252-.465zm-4.516 0v2.51l1.726-2.51zM147.28 0a3.878 3.878 0 0 1 .272.01c.694.044 1.215.325 1.408.768a.298.298 0 0 1-.341.408l-.025-.006-.03.007-.108.029c-.054.168-.096.269-.12.332a.541.541 0 0 0-.042.2 3.1 3.1 0 0 1 .037 1.389c-.095.466-.384.977-.761 1.46a.295.295 0 0 1-.014.108 21.24 21.24 0 0 0-.548 2.027c-.152.708-.234 1.387-.192 1.684a.297.297 0 0 1-.223.33l-.019.005.527 1.75c.086-.013.173-.018.26-.018.256 0 .509.041.712.041a.865.865 0 0 0 .183-.016.314.314 0 0 1 .068-.007c.212 0 .657.13.787.366h1.1c.061-.797.482-1.235 1.261-1.315.788.08 1.195.518 1.222 1.315v.572h-.531l-.545 1.01h-1.766l-.532-1.01h-1.567l-2.404 3.493V18h-.571v-6.561h-4.517v-.41l-.099.109a.297.297 0 0 1-.268.092l-1.74-.292a.298.298 0 0 1-.173-.492c.217-.242.437-.48.656-.716l-1.656 1.078a.296.296 0 0 1-.412-.087.297.297 0 0 1 .087-.411l1.345-.876a.292.292 0 0 1-.076-.09.315.315 0 0 1-.02-.237c.016-.05.034-.074.048-.093.055-.076.084-.088.123-.119.04-.03.084-.06.131-.094.096-.065.206-.137.301-.2a4.156 4.156 0 0 0 .216-.156l2.379-1.672.008-.005c.805-1.13 1.568-2.316 2.457-3.414.433-.535.938-1.524 1.812-1.894.048-.262.157-.68.483-.997.353-.344.864-.463 1.417-.463zm-12.754 0v1.21h-6.565V0zm0 8.32v1.21h-6.545V8.32zm0 8.47V18h-6.545v-1.21zm-9.999-9.332v1.656c.566 0 .848-.283.848-.848 0-.539-.282-.808-.848-.808zM122.432 0c.463 0 .855.116 1.176.35.613.443.92 1.09.92 1.938v4.584c.942 0 1.42.465 1.433 1.394 0 .942-.478 1.413-1.434 1.413V18h-.746V2.732c0-1.023-.199-1.68-.596-1.969-.206-.15-.476-.225-.838-.225-.337 0-.754.065-1.273.195a.65.65 0 0 1-.213.043c-.11 0-.188-.048-.232-.144-.013-.162.108-.276.364-.343.538-.193 1.018-.289 1.44-.289zm-8.169.601c-1.074 0-2.418.552-3.069 1.202-.569.57-.643 1.324-.664 2.025h7.435c-.02-.7-.095-1.455-.664-2.025-.651-.65-1.964-1.202-3.038-1.202zm0-.601c1.274 0 2.645.589 3.449 1.392.824.824.917 1.91.917 2.72v.317h-8.732v-.316c0-.812.062-1.897.886-2.72C111.587.588 112.99 0 114.263 0zm1.187 9.627c5.439 1.9 2.904 9.54-2.195 8.228-5.054-1.302-4.045-9.318 2.195-8.228m-.243.698c-5.417-.787-5.639 5.768-1.708 6.812 3.846 1.022 6.482-5.13 1.708-6.812m-1.188 1.152c-1.083-.74.884-.487 0-.018v.018m1.985.433c-1.227-.397.343-.795 0-.073v.073m-2.993-.712v.732l-.73-.244.73-.488m3.571 2.066c-.903-.795.595-.885.108-.09l-.108.09m-2.839-.846l.244.731-.732-.487.488-.244m1.052.358l.072-.017c.668-.489 1.39 1.767-.072.017m-3.014-.397c.957.56-.162.703-.253.703l.253-.703m2.938 1.502l-.244.244-.488-.732.732.488m-1.674-.474l.468.019c-.559.866-.757.793-.468-.019m3.68 1.517c-.883-.74.434-.632.416-.488l-.415.488m-1.01-.903l-.221.305c-.718-.215-.34-.792.22-.305m-3.435.836l-.244.244-.488-.732.732.488m1.323.012c.759-.378.92-.27.47.344l-.47-.344m2.58.72l-.245.731-.488-.732h.732m-3.246-.465l.45.54c-.106.217-1.1.145-.45-.54m1.54.71l.243.731h-.732l.488-.732zM104.283 0c.957.012 1.835.245 2.498.785.687.546 1.122 1.393 1.116 2.43v5.179h-.712V3.209c0-.847-.319-1.448-.846-1.871-.51-.405-1.227-.626-2.037-.626h-.099c-.803 0-1.527.22-2.037.626-.527.423-.846 1.024-.846 1.871v5.185h-.712V3.215c-.006-1.037.43-1.884 1.117-2.43.662-.54 1.54-.773 2.497-.785zm0 9.606c.957.012 1.835.246 2.498.785.687.547 1.122 1.393 1.116 2.43V18h-.712v-5.185c0-.847-.319-1.448-.846-1.871-.51-.405-1.227-.626-2.037-.626h-.099c-.803 0-1.527.22-2.037.626-.527.423-.846 1.024-.846 1.871V18h-.712v-5.179c-.006-1.037.43-1.883 1.117-2.43.662-.54 1.54-.773 2.497-.785zM97.86 10.79V18h-.72v-7.21zm-4.287 0V18h-.72v-7.21zm-4.287 0V18h-.72v-7.21zM74.788.93q-1.735 0-3.486.607-3.518 1.219-6.342 4.339 3.393-2.505 6.627-3.337 1.617-.415 3.234-.415t3.234.415q3.234.832 6.627 3.337-2.96-3.098-6.41-4.327Q76.537.93 74.787.93zM74.82 0q3.985.091 6.935 2.118 2.949 2.027 3.7 3.484.684 1.14.08 1.435-.182.09-.366.09-.423 0-.852-.477-1.162-1.23-5.33-2.767-2.083-.769-4.167-.769-2.084 0-4.168.769-4.168 1.537-5.329 2.79-.455.471-.873.471-.188 0-.368-.095-.58-.308.102-1.447.752-1.457 3.701-3.484Q70.836.091 74.821 0zm7.115 14.199q.25 0 .403.166.152.167.152.375 0 .18-.152.354-.153.173-.389.173-.263 0-.41-.16-.145-.159-.145-.367 0-.222.174-.382.173-.16.367-.16zm0-.125q-.25 0-.465.194-.215.194-.215.472 0 .25.188.458.187.208.506.208.292 0 .479-.222t.187-.444q0-.264-.187-.465t-.493-.201zm0-3.483q.264 0 .306.541v2.373q-.014.278.152.513.146.056.285.056.138 0 .27-.056l2.248-.735q.187-.043.318-.043.247 0 .293.154.083.25-.43.458l-2.262.721q-.264.084-.43.333 0 .306.18.528l1.388 1.915q.29.471.083.61-.056.041-.123.041-.182 0-.446-.305l-1.388-1.914q-.152-.236-.444-.333-.277.083-.444.333l-1.387 1.914q-.264.305-.44.305-.063 0-.115-.041-.208-.153.07-.624l1.4-1.915q.18-.222.167-.514-.166-.25-.444-.333l-2.248-.721q-.513-.208-.43-.444.056-.167.308-.167.127 0 .303.042l2.261.735q.132.049.267.049.136 0 .274-.049.18-.235.167-.513v-2.373q.042-.54.291-.54zm-11.719 3.601q-.758 0-1.382.377-1.27.737-2.406.737-1.144 0-2.098-.098v1.964q1.186-.21 1.712-.21h.014q.428 0 1.193.098 3.108.428 3.872.428 1.27 0 2.393-.042 1.922-.112 2.112-.204.182-.084.182-.484 0-.393-.105-.687-.105-.295-.351-.421-6.006-.267-6.476-.309.419-.604 1.297-.604.285 0 .619.064 1.118.22 1.725.22.127 0 .232-.01.596-.056.554-.568-.335.045-.691.045-.75 0-1.596-.2-.417-.096-.8-.096zm-.179-.57q.304 0 .6.077 1.2.316 2.112.33.225 0 .807-.112.274.252.274.596t-.218.582q2.294.085 2.294.274.414.526.414 1.263 0 .73-.386.996-1.164.372-4.68.372-.56 0-1.143-.056-3.255-.484-3.88-.498h-.061q-.641 0-2.352.266v-3.1l.014.013q1.466.169 2.392.19l.096.001q.88 0 1.813-.492.986-.701 1.904-.701zm-13.219-3.211c.106 0 .21.01.316.02 1.524.162 2.607 1.705 2.367 3.2-.105 1.111-.795 1.734-1.552 2.347-2.252 1.38-1.62.872-3.89 2.022l-.365-.68c2.703-1.265 3.028-1.466 3.872-2.022.69-.556 1.236-1.17 1.188-2.099.019-.642-.364-1.303-.796-1.619a2.069 2.069 0 0 0-1.217-.412c-.325 0-.632.077-.9.268-.68.336-1.054 1.447-.556 2.147.23.335.642.565 1.054.565a.975.975 0 0 0 .575-.182c.345-.192.604-.862.25-1.236.162-.173.392-.383.564-.383.115 0 .202.086.26.287.382.92-.23 1.964-1.15 2.213a1.732 1.732 0 0 1-.49.077c-1.053 0-2.03-.881-2.03-1.974-.097-1.274.92-2.443 2.193-2.52.096-.01.202-.019.307-.019zM49.407 0v7.35h-.735V0zm-4.37 0v7.35H44.3V0zm-4.371 0v7.35h-.735V0zm-4.37 0v7.35h-.736V0zm13.111 10.65V18h-.735v-7.35zm-4.37 0V18H44.3v-7.35zm-4.371 0V18h-.735v-7.35zm-4.37 0V18h-.736v-7.35zm-6.957-2.712c.68.054 1.057.394 1.129 1.022-.09.68-.466 1.04-1.13 1.075-.663-.036-1.012-.394-1.048-1.075.054-.628.403-.968 1.049-1.022zm-.081-2.259c-.484 0-.932.09-1.344.27a3.545 3.545 0 0 0-1.828 1.815 3.11 3.11 0 0 0-.27 1.276c0 .466.09.901.27 1.304.178.404.425.758.739 1.063a3.422 3.422 0 0 0 2.433.968c.484 0 .937-.086 1.358-.256.421-.17.784-.408 1.089-.712.305-.305.547-.66.726-1.063.18-.403.269-.838.269-1.304 0-.448-.09-.874-.27-1.277a3.67 3.67 0 0 0-.725-1.075 3.302 3.302 0 0 0-1.09-.74 3.431 3.431 0 0 0-1.357-.269zm.054-.914a4.17 4.17 0 0 1 1.667.336c.52.224.968.529 1.344.914.377.386.677.834.901 1.345.224.51.336 1.062.336 1.653 0 .592-.112 1.143-.336 1.654a4.31 4.31 0 0 1-.9 1.331 4.267 4.267 0 0 1-3.012 1.237 4.071 4.071 0 0 1-1.654-.336 4.48 4.48 0 0 1-1.344-.9 4.195 4.195 0 0 1-.915-1.332 4.071 4.071 0 0 1-.336-1.654c0-.591.112-1.142.336-1.653A4.358 4.358 0 0 1 27.66 5.1a4.071 4.071 0 0 1 1.653-.336zm-9.827.08c.948.012 1.817.243 2.473.778.68.54 1.111 1.378 1.105 2.405v5.127h-.704V8.022c0-.838-.316-1.434-.839-1.853-.504-.4-1.215-.62-2.016-.62h-.098c-.795 0-1.512.22-2.016.62-.523.42-.839 1.015-.839 1.853v5.133h-.704V8.028c-.006-1.027.425-1.865 1.105-2.405.656-.535 1.525-.766 2.473-.778zM13.847 0v7.35h-.735V0zm-4.37 0v7.35H8.74V0zM5.105 0v7.35H4.37V0zM.735 0v7.35H0V0zm13.112 10.65V18h-.735v-7.35zm-4.37 0V18H8.74v-7.35zm-4.371 0V18H4.37v-7.35zm-4.371 0V18H0v-7.35z"/></svg>