<svg xmlns="http://www.w3.org/2000/svg" width="233.864" height="18"><path d="M232.217 0c.335 0 .67.026.995.066.447.113.217.626-.18.626a.476.476 0 0 1-.082-.008c-.84.097-1.872.15-2.506.626-.84.916-.463 2.821-.561 3.725-.007.05-.01 3.653-.01 5.48a6.145 6.145 0 0 1 2.635-.586c.402 0 .801.04 1.187.117.441.231-.076.528-.422.528a.454.454 0 0 1-.115-.013c-1.226.133-2.62.461-3.243 1.602-.061.206-.023.277.071.277.206 0 .68-.342.946-.342.014 0 .028 0 .04.003a7.535 7.535 0 0 1 1.58-.169c.39 0 .777.031 1.15.095.42.278-.096.534-.439.534a.532.532 0 0 1-.105-.01c-1.251.151-2.636.49-3.243 1.633-.007 1.27 0 2.11-.033 3.278.014.36-.22.538-.456.538-.235 0-.473-.176-.475-.526.009-1.15.091-2.161-.06-3.277-.304-1.253-2.477-1.445-3.827-1.754-.294-.347.285-.475.659-.475.056 0 .107.003.15.008.173-.013.347-.02.521-.02.882 0 1.771.175 2.557.58.032-.755-.711-1.19-1.244-1.493-.84-.361-1.765-.397-2.643-.59-.313-.273.18-.501.521-.501a.58.58 0 0 1 .125.012 7.01 7.01 0 0 1 .648-.031c.903 0 1.805.183 2.614.582-.016-2.851-.062-5.61.02-8.308.065-.834.546-1.6 1.354-1.849.58-.264 1.227-.358 1.871-.358zm-23.995 2.99q-.557 0-1.086.606 4.368 5.2 5.46 5.81.815.457 1.434.457.21 0 .399-.053.74-.208 1.586-.234h.042q.828 0 1.817.988h.13q-.702-1.638-1.963-2.34-1.261-.702-7.397-5.148-.213-.085-.422-.085zm7.731-2.369q-.065 0-.133.01v6.683q2.054 1.196 2.834 3.354-1.196-8.268-1.677-9.204-.433-.843-1.024-.843zm5.356 10.468q.08 0 .153.138.13.247-.234.689-.208-.546-.052-.741.069-.086.133-.086zm-.037-.372q-.153 0-.33.237-.39.52.234 2.08.702-1.352.43-1.976-.15-.34-.334-.34zm-6.804 2.577v.39q.286-.026.442-.182-.052-.078-.208-.208zm-.598.884l-2.418.338-.494.884q.832-.234 1.833-.624 1-.39 1.079-.598zm5.33-.364l-.468.234-.156 1.118.416 1.274h.65l-.442-1.274v-1.352zm-1.118.39l-.442.13-.156.832.416 1.274h.65l-.442-1.274-.026-.962zm-1.534.156l-.156.806.416 1.274h.65l-.442-1.274v-.78l-.468-.026zm.994-3.234q-.415 0-.89.1-1.404.3-1.768 1.418h-1.092l-.416-.676q-5.512 1.274-6.214 4.602 1.508-.832 3.172-1.118l.728-1.456 2.886-.39-.078-.702h.988q1.092.9 2.228.9.243 0 .489-.042 1.391-.234 1.82-.95.429-.714-.455-1.3-.585-.386-1.398-.386zM215.697 0q.947 0 1.488.658.663.806 1.235 4.238l.91 5.954q.442.468.676.52h.312q.026-.65.494-1.196.416-3.978-.364-6.968l.312-.598q1.118 3.38.546 7.592h.078q1.794-4.03.52-7.592l.312-.468q1.664 3.796-.364 8.242.572 1.248.117 2.054-.455.806-.559 1.508l-.182.13q-.702-1.04-.806-1.794h-.26q-.026.598-.338 1.248l-.182 1.638.442 1.274h2.262v.624h-6.526v-.624h.546l-.416-1.274-.026-.962q-.468-.156-.702-.364-.338.312-.754.312.026.26-.104.442-1.04.806-3.718 1.404l-.91 1.768q0-.434-.27-.434-.085 0-.198.044l.728-1.3q-1.508.338-2.288.858-.416.442.052 1.066-1.04-.442-1.17-1.248.416-3.926 7.046-5.46l.468.78h.416q.338-1.092 2.678-1.508-.522-.388-1.285-.388-.414 0-.9.115-.491.116-.96.116-.844 0-1.613-.376-1.196-.585-6.084-6.461.9-1.136 1.905-1.136.329 0 .669.122l6.318 4.524V.034q.235-.034.449-.034z"/><path d="M196.856.375c9.625 0 9.625 17.25 0 17.25" fill="none" stroke="#000"/><path d="M191.447 2.894q.05 0 .107.013.387.058.31.445-.052.295-.368.295-.037 0-.077-.004-.368-.078-.29-.445.08-.304.318-.304zm1.655.149l-.077.387 1.373.406q-.348-.6-1.296-.793zm-.155.58l-.135.29.619-.116-.484-.174zm.078 3.793q-.29 1.625.348 1.664.6-.29-.348-1.664zm-2.96 4.276q-.736.774-.736 1.074 0 .3.445.706-.02-.851.29-1.78zm1.334-9.152q-.987 0-1.132.774-.145.774.087 1.393.233.62-.048 1.141-.28.523-.687.6-1.18.252-1.983 1.084-.803.832-2.458 3.386-1.654 2.554-3.183 4.896l-.29.812q2.322-2.515 4.431-4.237 2.11-1.722 3.367-2.835 1.258-1.113 1.412-2.448 0-.251-.358-.367-.357-.117-.338-.33.02-.212.232-.309.086-.027.177-.027.237 0 .51.182.377.251.416.91-.29 1.47-1.683 2.757-1.394 1.286-5.67 4.847-.542.464-.929 1.722-.31.542.62.56l.041.001q.891 0 1.062-.813.135-1.645.754-2.4 1.239-1.334 1.76-1.528.214 0 .252 1.587.194-.716 1.858-2.438 2.515-3.135 2.515-5.457.155-.754.01-1.538t.416-.977l.174-.445q-.348-.503-1.335-.503zm-2.573 10.932q-.794.465-.736 1.684l.6 1.606q.167.426.6.426h.039l.233.001q1.017 0 1.47-.156 0-.368-1.103-1.78-.794-1.78-1.103-1.78zM190.824 0q.091 0 .169.15.135.261.097.735-.04.474.522 1.113 1.142.02 1.722.697 1.664.483 1.51 1.257l-.136.716q-.27-.464-.658-.542-.262-.027-.474-.027-1.003 0-.851.608.183.735.029 1.664 1.432 1.316 1.5 2.196.067.88-.765 1.055-.144.03-.272.03-.61 0-.85-.688-.056-.558.059-1.146-.33 1.128-1.162 2.442-1.006 1.587-1.006 2.864t.27 1.954q1.316 1.838 1.78 2.013l1.2-.058q.157-.027.274-.027.39 0 .345.297 0 .407-.367.58 0-.154-.252-.212l-.658.194-5.282-.02-.073-.002q-.312 0-.295.157-.232-.135-.232-.58 0-.282.261-.282.098 0 .233.04.13.038.234.038.295 0 .394-.3-.387-1.083-.657-1.78-.213-.851-.271-1.915-1.529.91-1.587 3.386-.058 1.045-1.635 1.083-.096.003-.185.003-1.386 0-1.295-.564l.425-1.064q-.993 1.264-1.565 1.264-.04 0-.08-.006-.212-.039-.29-.29-.135-.407.513-1.297.648-.89 1.48-2.244 3.116-5.225 4.132-6.289 1.015-1.064 2.293-1.355.56-.445.338-1.102-.222-.658.01-1.461t.774-1.132q-.755-.33-.91-.9-.154-.57-.048-.803.055-.121.137-.121.075 0 .173.102.203.212.319.667.116.455.91.92-.62-.562-.59-1.152.028-.59.202-.784.074-.082.141-.082zM176.42.696q-.927 0-.927 1.222 0 1.075.928 2.129.927-1.054.927-2.129 0-1.222-.927-1.222zm0 4.7q-.653 0-.653 1.412 0 .8.654 1.475.653-.674.653-1.475 0-1.412-.653-1.412zm0 4.257q-.653 0-.653 1.413 0 .8.654 1.475.653-.674.653-1.475 0-1.413-.653-1.413zm0-9.653q1.687 0 1.687 1.918.02 1.201-.559 1.886-.58.685-.516.917.738.864.738 2.087 0 1.012-.865 2.17.865.865.865 2.088 0 1.011-.865 2.15-.105.273.59 1.285.696 1.012 1.434 3.499H178q-.463-1.644-.822-2.35-.358-.706-.758-1.149-.422.443-.77 1.149-.347.706-.811 2.35h-.949q.696-2.487 1.423-3.499.727-1.012.6-1.286-.842-1.138-.842-2.15 0-1.222.8-2.086-.8-1.16-.8-2.171 0-1.223.716-2.087.064-.232-.506-.917-.569-.685-.569-1.886Q174.712 0 176.42 0zm-6.851 0q2.322 0 2.322 2.232V18h-1.07V2.232q0-1.16-1.252-1.16-1.262 0-1.262 1.16v10.492h-1.07V2.232q0-2.232 2.332-2.232zm-8.737 5.512l.02.01-3.624 6.946h-1.367l3.625-6.956zm3.037.01l1.367.01-3.624 6.956-1.367-.01 3.624-6.956zM152.85 0l1.011.63-3.003 4.305V18h-1.121V4.575L152.85 0z"/><path d="M140.05.375v17.25m7.687-17.25c-9.625 0-9.625 17.25 0 17.25m0 0" fill="none" stroke="#000"/><path d="M132.08.597a2.12 2.12 0 0 0-.693.109c.032.223.17.569.953.773-.73-.053-1.206-.113-1.452-.307-.089.2-.137.427-.158.556a.297.297 0 0 1-.207.237c-.624.191-1.173 1.112-1.7 1.763-.95 1.173-1.77 2.48-2.688 3.733l1.27-.622c1.182-.622 2.395-1.11 3.407-1.877.589-.49 1.172-.996 1.391-1.641.076-.497-.297-1.074-.768-1.279a.297.297 0 1 1 .238-.545c.377.164.7.458.904.817a1.986 1.986 0 0 0-.074-.448.297.297 0 0 1-.013-.104c.01-.184.041-.313.082-.422.04-.109.085-.206.158-.459a.297.297 0 0 1 .104-.153 1.546 1.546 0 0 0-.527-.125c-.043-.003-.084-.003-.125-.004a.258.258 0 1 1-.103-.002zm-1.194 5.432c-.606.466-1.253.873-1.888 1.28.005.438-.006.879-.047 1.321.207-.135.434-.236.697-.3.391-.636.82-1.22 1.082-1.842.055-.129.106-.29.156-.46zm.249 1c-.273.549-.622 1.04-.929 1.529.06.04.112.08.155.121l.027.027a1.72 1.72 0 0 1 .613-.454c-.009-.348.048-.768.134-1.222zm-2.881.047a25.922 25.922 0 0 0-.588.297c-.78.38-1.56.772-2.349 1.148-.556.67-1.156 1.293-1.734 1.92l1.043.175 2.563-2.786a.297.297 0 0 1 .04-.036c.332-.253.677-.489 1.025-.718zm2.592 2.009c-.058.066-.112.14-.162.222a.298.298 0 0 1-.429.087c-.125-.09-.2-.177-.265-.244l-.078 1.413c.1-.006.202-.013.296-.013.167 0 .314.022.398.108.1-.078.28-.1.504-.1.058 0 .118.002.181.005l-.445-1.478zm5.419.999c-.452.062-.687.323-.704.783h1.394c0-.46-.23-.721-.69-.783zm-7.861-2.39a16.38 16.38 0 0 0-.798.56l-2.403 2.613h2.457c.17-.19.518-.365.776-.365.073 0 .139.014.191.046.082-.007.168-.01.257-.01.139 0 .285.007.433.016l.083-1.506c-.225.115-.407.282-.626.542a.297.297 0 0 1-.52-.246 9.773 9.773 0 0 0 .15-1.65zm6.24 3.745l.266.465h1.248l.253-.465zm-4.516 0v2.51l1.727-2.51zM132.072 0a3.878 3.878 0 0 1 .273.01c.694.044 1.215.325 1.407.768a.298.298 0 0 1-.34.408l-.025-.006-.03.007-.108.029c-.054.168-.096.269-.12.332a.541.541 0 0 0-.042.2c.154.552.094 1.107.037 1.389-.096.466-.384.977-.762 1.46a.295.295 0 0 1-.014.108 21.85 21.85 0 0 0-.548 2.027c-.152.708-.233 1.387-.192 1.684a.297.297 0 0 1-.223.33l-.018.005.527 1.75c.085-.013.172-.018.259-.018.256 0 .51.041.712.041a.865.865 0 0 0 .183-.016.314.314 0 0 1 .069-.007c.212 0 .656.13.786.366h1.1c.062-.797.482-1.235 1.262-1.315.788.08 1.195.518 1.222 1.315v.572h-.532l-.544 1.01h-1.767l-.531-1.01h-1.567l-2.404 3.493V18h-.572v-6.561h-4.516v-.41l-.1.109a.297.297 0 0 1-.267.092l-1.74-.292a.298.298 0 0 1-.173-.492c.216-.242.436-.48.656-.716l-1.656 1.078a.296.296 0 0 1-.412-.087.297.297 0 0 1 .087-.411l1.345-.876a.292.292 0 0 1-.077-.09.315.315 0 0 1-.02-.237.305.305 0 0 1 .048-.093c.056-.076.084-.088.124-.119l.13-.094c.096-.065.207-.137.302-.2a4.156 4.156 0 0 0 .216-.156l2.378-1.672.008-.005c.806-1.13 1.568-2.316 2.457-3.414.433-.535.938-1.524 1.812-1.894.049-.262.157-.68.484-.997.353-.344.864-.463 1.416-.463zM80.884 7.458v1.656c.566 0 .849-.283.849-.848 0-.539-.283-.808-.849-.808zM78.79 0c.464 0 .856.116 1.176.35.613.443.92 1.09.92 1.938v4.584c.942 0 1.42.465 1.433 1.394 0 .942-.478 1.413-1.434 1.413V18h-.746V2.732c0-1.023-.199-1.68-.596-1.969-.206-.15-.476-.225-.838-.225-.337 0-.754.065-1.273.195a.65.65 0 0 1-.212.043c-.111 0-.189-.048-.232-.144-.014-.162.107-.276.363-.343C77.89.096 78.368 0 78.79 0zm-8.17.601c-1.073 0-2.418.552-3.068 1.202-.57.57-.644 1.324-.665 2.025h7.435c-.02-.7-.095-1.455-.664-2.025-.65-.65-1.963-1.202-3.037-1.202zm0-.601c1.275 0 2.646.589 3.45 1.392.823.824.917 1.91.917 2.72v.317h-8.732v-.316c0-.812.061-1.897.885-2.72C67.944.588 69.346 0 70.62 0zm1.187 9.627c5.439 1.9 2.904 9.54-2.195 8.228-5.054-1.302-4.045-9.318 2.195-8.228m-.243.698c-5.417-.787-5.639 5.768-1.707 6.812 3.846 1.022 6.482-5.13 1.707-6.812m-1.188 1.152c-1.082-.74.885-.487 0-.018v.018m1.985.433c-1.227-.397.343-.795 0-.073v.073m-2.993-.712v.732l-.73-.244.73-.488m3.571 2.066c-.903-.795.596-.885.109-.09l-.109.09m-2.839-.846l.244.731-.732-.487.488-.244m1.052.358l.072-.017c.668-.489 1.39 1.767-.072.017m-3.014-.397c.957.56-.162.703-.253.703l.253-.703m2.938 1.502l-.244.244-.488-.732.732.488m-1.674-.474l.469.019c-.56.866-.758.793-.47-.019m3.682 1.517c-.884-.74.433-.632.415-.488l-.415.488m-1.01-.903l-.221.305c-.718-.215-.34-.792.22-.305m-3.434.836l-.245.244-.487-.732.732.488m1.323.012c.758-.378.92-.27.47.344l-.47-.344m2.578.72l-.244.731-.488-.732h.732m-3.245-.465l.45.54c-.107.217-1.1.145-.45-.54m1.538.71l.244.731h-.732l.488-.732zm-16.88 2.215c-2.597 0-2.597-3.896 0-3.896 2.598 0 2.598 3.896 0 3.896zM26.646 0l-2.17 2.17v.707l2.7-2.7.178-.177zm3 0l-5.17 5.17v.707l5.7-5.7.178-.177zm3 0l-8.17 8.17v.707l8.7-8.7.178-.177zm3 0l-11.17 11.17v.707l11.7-11.7.178-.177zm3 0l-14.17 14.17v.707l14.7-14.7.178-.177zm3 0l-17.17 17.17v.707l17.7-17.7.178-.177zm3 0L26.823 17.823l-.177.177h.708L45.177.177 45.354 0zm1.83 1.17L29.823 17.823l-.177.177h.708L46.476 1.877V1.17zm0 3L32.823 17.823l-.177.177h.708L46.476 4.877V4.17zm0 3L35.823 17.823l-.177.177h.708L46.476 7.877V7.17zm0 3l-7.653 7.653-.177.177h.708l7.122-7.123v-.707zm0 3l-4.653 4.653-.177.177h.708l4.122-4.123v-.707zm0 3l-1.653 1.653-.177.177h.708l1.122-1.123v-.707zM47.646 0l-1.17 1.17v.707l1.7-1.7.178-.177zm.83 2.17l-2 2v.707l2-2V2.17zm0 3l-2 2v.707l2-2V5.17zm0 3l-2 2v.707l2-2V8.17zm0 3l-2 2v.707l2-2v-.707zm0 3l-2 2v.707l2-2v-.707zm0 3l-.653.653-.177.177h.708l.122-.123v-.707zm-39-11.845v7.35h-.735v-7.35zm-4.37 0v7.35H4.37v-7.35zm-4.37 0v7.35H0v-7.35z"/></svg>