<svg xmlns="http://www.w3.org/2000/svg" width="266.22" height="18"><path d="M264.573 0c.335 0 .67.026.994.066.448.113.218.626-.18.626a.476.476 0 0 1-.081-.008c-.84.097-1.872.15-2.506.626-.841.916-.463 2.821-.561 3.725-.007.05-.01 3.653-.01 5.48a6.145 6.145 0 0 1 2.634-.586c.402 0 .802.04 1.188.117.441.231-.076.528-.422.528a.454.454 0 0 1-.115-.013c-1.226.133-2.62.461-3.243 1.602-.061.206-.023.277.07.277.207 0 .68-.342.947-.342.014 0 .028 0 .04.003a7.535 7.535 0 0 1 1.58-.169 6.8 6.8 0 0 1 1.149.095c.42.278-.096.534-.438.534a.532.532 0 0 1-.105-.01c-1.251.151-2.636.49-3.243 1.633-.007 1.27 0 2.11-.034 3.278.015.36-.219.538-.456.538-.235 0-.473-.176-.474-.526.009-1.15.09-2.161-.06-3.277-.304-1.253-2.477-1.445-3.827-1.754-.295-.347.285-.475.658-.475.056 0 .107.003.15.008.173-.013.348-.02.522-.02.882 0 1.771.175 2.557.58.032-.755-.711-1.19-1.244-1.493-.84-.361-1.765-.397-2.643-.59-.313-.273.18-.501.521-.501a.58.58 0 0 1 .125.012 7.01 7.01 0 0 1 .648-.031c.902 0 1.804.183 2.614.582-.016-2.851-.063-5.61.02-8.308.065-.834.545-1.6 1.354-1.849.58-.264 1.227-.358 1.87-.358zm-23.995 2.99q-.557 0-1.087.606 4.369 5.2 5.46 5.81.815.457 1.435.457.21 0 .399-.053.74-.208 1.586-.234h.042q.828 0 1.817.988h.13q-.702-1.638-1.963-2.34-1.261-.702-7.398-5.148-.212-.085-.421-.085zm7.73-2.369q-.065 0-.132.01v6.683q2.054 1.196 2.834 3.354-1.196-8.268-1.677-9.204Q248.9.62 248.309.62zm5.356 10.468q.081 0 .154.138.13.247-.234.689-.208-.546-.052-.741.069-.086.132-.086zm-.036-.372q-.153 0-.33.237-.39.52.234 2.08.702-1.352.429-1.976-.15-.34-.333-.34zm-6.804 2.577v.39q.286-.026.442-.182-.052-.078-.208-.208zm-.598.884l-2.418.338-.494.884q.832-.234 1.833-.624 1-.39 1.079-.598zm5.33-.364l-.468.234-.156 1.118.416 1.274h.65l-.442-1.274v-1.352zm-1.118.39l-.442.13-.156.832.416 1.274h.65l-.442-1.274-.026-.962zm-1.534.156l-.156.806.416 1.274h.65l-.442-1.274v-.78l-.468-.026zm.994-3.234q-.415 0-.89.1-1.404.3-1.768 1.418h-1.092l-.416-.676q-5.513 1.274-6.215 4.602 1.508-.832 3.173-1.118l.728-1.456 2.886-.39-.078-.702h.988q1.092.9 2.228.9.243 0 .489-.042 1.39-.234 1.82-.95.429-.714-.455-1.3-.585-.386-1.398-.386zM248.052 0q.948 0 1.489.658.663.806 1.235 4.238l.91 5.954q.442.468.676.52h.312q.026-.65.494-1.196.416-3.978-.364-6.968l.312-.598q1.118 3.38.546 7.592h.078q1.794-4.03.52-7.592l.312-.468q1.664 3.796-.364 8.242.572 1.248.117 2.054-.455.806-.56 1.508l-.181.13q-.702-1.04-.806-1.794h-.26q-.026.598-.338 1.248l-.182 1.638.442 1.274h2.262v.624h-6.526v-.624h.546l-.416-1.274-.026-.962q-.468-.156-.702-.364-.338.312-.754.312.026.26-.104.442-1.04.806-3.718 1.404l-.91 1.768q0-.434-.27-.434-.086 0-.198.044l.728-1.3q-1.509.338-2.289.858-.416.442.052 1.066-1.04-.442-1.17-1.248.416-3.926 7.047-5.46l.468.78h.416q.338-1.092 2.678-1.508-.522-.388-1.285-.388-.414 0-.9.115-.491.116-.96.116-.845 0-1.613-.376-1.196-.585-6.085-6.461.901-1.136 1.906-1.136.328 0 .669.122l6.318 4.524V.034q.234-.034.448-.034z"/><path d="M229.211.375c9.625 0 9.625 17.25 0 17.25" fill="none" stroke="#000"/><path d="M222.99 7.938c.681.054 1.057.394 1.13 1.022-.09.68-.467 1.04-1.13 1.075-.663-.036-1.013-.394-1.049-1.075.054-.628.403-.968 1.049-1.022zm-.08-2.259c-.485 0-.933.09-1.345.27a3.545 3.545 0 0 0-1.828 1.815 3.11 3.11 0 0 0-.27 1.276c0 .466.09.901.27 1.304.178.404.425.758.739 1.063a3.422 3.422 0 0 0 2.433.968c.484 0 .937-.086 1.358-.256a3.26 3.26 0 0 0 1.09-.712c.304-.305.546-.66.725-1.063.18-.403.269-.838.269-1.304 0-.448-.09-.874-.269-1.277a3.67 3.67 0 0 0-.726-1.075 3.302 3.302 0 0 0-1.089-.74 3.431 3.431 0 0 0-1.358-.269zm.053-.914a4.17 4.17 0 0 1 1.667.336c.52.224.968.529 1.345.914.376.386.676.834.9 1.345.224.51.336 1.062.336 1.653 0 .592-.112 1.143-.336 1.654a4.31 4.31 0 0 1-.9 1.331 4.267 4.267 0 0 1-3.012 1.237 4.071 4.071 0 0 1-1.654-.336 4.48 4.48 0 0 1-1.344-.9 4.195 4.195 0 0 1-.914-1.332 4.071 4.071 0 0 1-.337-1.654c0-.591.112-1.142.337-1.653a4.358 4.358 0 0 1 2.258-2.259 4.071 4.071 0 0 1 1.654-.336zm-8.446-3.475l-4.85.271c-.086.939-.043 1.988.128 3.146 1.81-1 3.384-2.139 4.722-3.417zM209.254 0c.27 0 .548.175.836.524l5.242-.27c1.238.32 1.491.816.758 1.489a1.807 1.807 0 0 0-.38-.047c-.273 0-.45.094-.53.282-.115.264-.423.609-.925 1.034-.502.426-1.862 1.304-4.081 2.636-.262.657-.552.986-.87.986-.147 0-.302-.072-.462-.216-3.154 1.36-6.202 2.312-9.142 2.853l-.415-.325 1.013-1.077c2.159-.187 4.97-1.026 8.432-2.517a8.956 8.956 0 0 0 .059-3.67l-5.87.393c-.871-.218-.936-.67-.194-1.354l5.778-.241c.243-.32.493-.48.75-.48zm-1.362 14.1q-3.108 0-6.59 1.501 3.482 1.46 6.59 1.46 3.087 0 6.59-1.46-3.503-1.501-6.59-1.501zm0-.96q3.838 0 8.822 2.44Q211.73 18 207.892 18q-3.838 0-8.822-2.42 4.964-2.44 8.822-2.44zM189.707.559q-1.012.6-1.012 1.798h2.017q0-1.199-1.005-1.798zm-1.012 2.357q.227.802 1.012.802.786 0 .989-.802zm-5.815 1.4v.957h13.647v-.956zM189.707 0q1.547.583 1.547 2.503 0 .729-.315 1.215h6.13v2.114h-14.724V3.718h6.107q-.316-.486-.316-1.215 0-1.92 1.571-2.503zm0 14.937c-.859 0-1.934.442-2.455.962-.455.456-.515 1.06-.531 1.62h5.948c-.017-.56-.076-1.164-.532-1.62-.52-.52-1.57-.962-2.43-.962zm0-.48c1.02 0 2.116.47 2.76 1.113.659.66.733 1.527.733 2.177V18h-6.985v-.253c0-.65.049-1.518.708-2.177.643-.643 1.765-1.113 2.784-1.113zm-13.76-9.017l.064 7.024 3.701.064.032-7.056-3.797-.031zm-.632-.6l5.03.031-.032 8.29-4.903-.096-.095-8.225z"/><path d="M165.627.375v17.25m7.688-17.25c-9.625 0-9.625 17.25 0 17.25m0 0" fill="none" stroke="#000"/><path d="M157.658.597a2.12 2.12 0 0 0-.693.109c.032.223.17.569.953.773-.73-.053-1.206-.113-1.452-.307-.089.2-.137.427-.158.556a.297.297 0 0 1-.207.237c-.624.191-1.173 1.112-1.7 1.763-.95 1.173-1.77 2.48-2.687 3.733.422-.207.845-.415 1.27-.622 1.181-.622 2.394-1.11 3.406-1.877.589-.49 1.172-.996 1.391-1.641.076-.497-.297-1.074-.768-1.279a.297.297 0 1 1 .238-.545c.377.164.7.458.904.817a1.986 1.986 0 0 0-.074-.448.297.297 0 0 1-.013-.104c.01-.184.041-.313.082-.422.04-.109.085-.206.158-.459a.297.297 0 0 1 .104-.153 1.546 1.546 0 0 0-.527-.125C157.842.6 157.8.6 157.76.599a.258.258 0 1 1-.102-.002zm-1.194 5.432c-.606.466-1.253.873-1.888 1.28.005.438-.006.879-.047 1.321.207-.135.434-.236.697-.3.391-.636.82-1.22 1.082-1.842.055-.129.106-.29.156-.46zm.249 1c-.273.549-.622 1.04-.929 1.529.06.04.112.08.155.121l.027.027a1.72 1.72 0 0 1 .613-.454c-.009-.348.048-.768.134-1.222zm-2.88.047a25.922 25.922 0 0 0-.589.297c-.78.38-1.56.772-2.349 1.148-.556.67-1.156 1.293-1.734 1.92l1.043.175 2.563-2.786a.297.297 0 0 1 .04-.036c.332-.253.677-.489 1.025-.718zm2.591 2.009c-.058.066-.112.14-.162.222a.298.298 0 0 1-.429.087c-.125-.09-.2-.177-.265-.244l-.078 1.413c.1-.006.202-.013.296-.013.167 0 .314.022.398.108.1-.078.28-.1.504-.1.058 0 .118.002.181.005l-.445-1.478zm5.419.999c-.452.062-.687.323-.704.783h1.394c0-.46-.23-.721-.69-.783zm-7.861-2.39a16.38 16.38 0 0 0-.798.56l-2.403 2.613h2.457c.17-.19.518-.365.776-.365.073 0 .139.014.191.046.082-.007.168-.01.257-.01.139 0 .285.007.433.016l.083-1.506c-.225.115-.407.282-.626.542a.297.297 0 0 1-.52-.246 9.773 9.773 0 0 0 .15-1.65zm6.24 3.745l.266.465h1.248l.253-.465zm-4.516 0v2.51l1.727-2.51zM157.65 0a3.878 3.878 0 0 1 .273.01c.694.044 1.215.325 1.407.768a.298.298 0 0 1-.34.408l-.025-.006-.03.007-.108.029c-.054.168-.096.269-.12.332a.541.541 0 0 0-.042.2c.154.552.094 1.107.037 1.389-.096.466-.384.977-.762 1.46a.295.295 0 0 1-.014.108 21.85 21.85 0 0 0-.548 2.027c-.152.708-.233 1.387-.192 1.684a.297.297 0 0 1-.223.33l-.018.005.527 1.75c.085-.013.172-.018.259-.018.256 0 .51.041.712.041a.865.865 0 0 0 .183-.016.314.314 0 0 1 .069-.007c.212 0 .656.13.786.366h1.1c.062-.797.482-1.235 1.262-1.315.788.08 1.195.518 1.222 1.315v.572h-.532l-.544 1.01h-1.767l-.531-1.01h-1.567l-2.404 3.493V18h-.572v-6.561h-4.516v-.41l-.1.109a.297.297 0 0 1-.267.092l-1.74-.292a.298.298 0 0 1-.173-.492c.216-.242.436-.48.656-.716l-1.656 1.078a.296.296 0 0 1-.412-.087.297.297 0 0 1 .087-.411l1.345-.876a.292.292 0 0 1-.077-.09.315.315 0 0 1-.02-.237.305.305 0 0 1 .048-.093c.056-.076.084-.088.124-.119l.13-.094c.096-.065.207-.137.302-.2a4.156 4.156 0 0 0 .216-.156l2.378-1.672.008-.005c.806-1.13 1.568-2.316 2.457-3.414.433-.535.938-1.524 1.813-1.894.048-.262.156-.68.483-.997.353-.344.864-.463 1.416-.463zM82.462 7.458v1.656c.566 0 .849-.283.849-.848 0-.539-.283-.808-.849-.808zM80.367 0c.464 0 .856.116 1.176.35.613.443.92 1.09.92 1.938v4.584c.942 0 1.42.465 1.433 1.394 0 .942-.478 1.413-1.434 1.413V18h-.746V2.732c0-1.023-.199-1.68-.596-1.969-.206-.15-.476-.225-.838-.225-.337 0-.754.065-1.273.195a.65.65 0 0 1-.212.043c-.111 0-.189-.048-.232-.144-.014-.162.107-.276.363-.343C79.467.096 79.946 0 80.368 0zm-8.168.601c-1.074 0-2.419.552-3.07 1.202-.568.57-.643 1.324-.664 2.025H75.9c-.02-.7-.095-1.455-.664-2.025-.65-.65-1.963-1.202-3.037-1.202zm0-.601c1.274 0 2.645.589 3.448 1.392.824.824.918 1.91.918 2.72v.317h-8.732v-.316c0-.812.061-1.897.885-2.72C69.522.588 70.924 0 72.198 0zm1.186 9.627c5.439 1.9 2.904 9.54-2.195 8.228-5.054-1.302-4.045-9.318 2.195-8.228m-.243.698c-5.417-.787-5.639 5.768-1.707 6.812 3.846 1.022 6.482-5.13 1.707-6.812m-1.188 1.152c-1.082-.74.885-.487 0-.018v.018m1.985.433c-1.227-.397.343-.795 0-.073v.073m-2.993-.712v.732l-.73-.244.73-.488m3.571 2.066c-.903-.795.596-.885.109-.09l-.109.09m-2.838-.846l.243.731-.732-.487.489-.244m1.051.358l.072-.017c.668-.489 1.39 1.767-.072.017m-3.014-.397c.957.56-.162.703-.253.703l.253-.703m2.938 1.502l-.244.244-.488-.732.732.488m-1.674-.474l.469.019c-.56.866-.758.793-.47-.019m3.682 1.517c-.884-.74.433-.632.415-.488l-.415.488m-1.01-.903l-.221.305c-.718-.215-.34-.792.22-.305m-3.434.836l-.245.244-.487-.732.732.488m1.323.012c.758-.378.92-.27.47.344l-.47-.344m2.578.72l-.244.731-.488-.732h.732m-3.245-.465l.45.54c-.107.217-1.1.145-.45-.54m1.538.71l.244.731h-.732l.488-.732zM65.833 5.325v7.35h-.736v-7.35zm-4.371 0v7.35h-.735v-7.35zm-8.259 12.723c-2.597 0-2.597-3.896 0-3.896s2.597 3.896 0 3.896zM45.727 5.325v7.35h-.735v-7.35zm-4.37 0v7.35h-.736v-7.35zM29.646 0l-2.025 2.025v.707L30.177.177 30.354 0zm3 0l-5.025 5.025v.707L33.177.177 33.354 0zm3 0l-8.025 8.025v.707L36.177.177 36.354 0zm2.975.025l-11 11v.707l11-11V.025zm0 3l-11 11v.707l11-11v-.707zm0 3l-11 11v.707l11-11v-.707zm0 3l-8.798 8.798-.177.177h.708l8.267-8.268v-.707zm0 3l-5.798 5.798-.177.177h.708l5.267-5.268v-.707zm0 3l-2.798 2.798-.177.177h.708l2.267-2.268v-.707zm-18.524 3.023c-2.597 0-2.597-3.896 0-3.896 2.598 0 2.598 3.896 0 3.896zM12.621 0v5.077h-.848V0zM6.787.007v5.07H5.94V.007zm-5.939 0v5.07H0V.007zm11.773 6.455v5.076h-.848V6.462zm-5.834.007v5.07H5.94v-5.07zm-5.939 0v5.07H0v-5.07zm11.773 6.454V18h-.848v-5.077zm-5.834.007V18H5.94v-5.07zm-5.939 0V18H0v-5.07z"/></svg>