<svg xmlns="http://www.w3.org/2000/svg" width="136.291" height="18"><path d="M134.644 0c.336 0 .67.026.995.066.447.113.217.626-.18.626a.476.476 0 0 1-.082-.008c-.839.097-1.872.15-2.506.626-.84.916-.463 2.821-.56 3.725-.008.05-.01 3.653-.01 5.48a6.145 6.145 0 0 1 2.634-.586c.402 0 .801.04 1.188.117.44.231-.077.528-.423.528a.454.454 0 0 1-.114-.013c-1.227.133-2.62.461-3.243 1.602-.062.206-.023.277.07.277.207 0 .68-.342.947-.342.014 0 .027 0 .04.003a7.535 7.535 0 0 1 1.58-.169c.39 0 .776.031 1.148.095.421.278-.095.534-.437.534a.532.532 0 0 1-.105-.01c-1.252.151-2.637.49-3.243 1.633-.007 1.27 0 2.11-.034 3.278.015.36-.22.538-.456.538-.235 0-.473-.176-.474-.526.008-1.15.09-2.161-.06-3.277-.305-1.253-2.478-1.445-3.828-1.754-.294-.347.285-.475.659-.475.056 0 .107.003.15.008.173-.013.347-.02.521-.02.883 0 1.772.175 2.558.58.032-.755-.712-1.19-1.244-1.493-.84-.361-1.766-.397-2.644-.59-.313-.273.18-.501.522-.501a.58.58 0 0 1 .125.012c.215-.02.431-.031.647-.031.903 0 1.805.183 2.615.582-.017-2.851-.063-5.61.019-8.308.065-.834.546-1.6 1.354-1.849C133.353.094 134 0 134.644 0zM110.65 2.99q-.558 0-1.087.606 4.368 5.2 5.46 5.81.815.457 1.434.457.211 0 .4-.053.74-.208 1.585-.234h.043q.828 0 1.816.988h.13q-.702-1.638-1.963-2.34-1.26-.702-7.397-5.148-.213-.085-.422-.085zm7.73-2.369q-.065 0-.133.01v6.683q2.054 1.196 2.834 3.354-1.196-8.268-1.677-9.204-.433-.843-1.024-.843zm5.356 10.468q.08 0 .153.138.13.247-.234.689-.208-.546-.052-.741.07-.086.133-.086zm-.036-.372q-.153 0-.33.237-.39.52.233 2.08.702-1.352.43-1.976-.15-.34-.333-.34zm-6.805 2.577v.39q.286-.026.442-.182-.052-.078-.208-.208zm-.598.884l-2.418.338-.494.884q.832-.234 1.833-.624t1.08-.598zm5.33-.364l-.468.234-.156 1.118.416 1.274h.65l-.442-1.274v-1.352zm-1.118.39l-.442.13-.156.832.416 1.274h.65l-.442-1.274-.026-.962zm-1.534.156l-.156.806.416 1.274h.65l-.442-1.274v-.78l-.468-.026zm.995-3.234q-.416 0-.89.1-1.405.3-1.769 1.418h-1.092l-.416-.676q-5.512 1.274-6.214 4.602 1.508-.832 3.172-1.118l.728-1.456 2.886-.39-.078-.702h.988q1.092.9 2.228.9.244 0 .49-.042 1.39-.234 1.82-.95.428-.714-.456-1.3-.585-.386-1.397-.386zM118.124 0q.947 0 1.488.658.663.806 1.235 4.238l.91 5.954q.442.468.676.52h.312q.026-.65.494-1.196.416-3.978-.364-6.968l.312-.598q1.118 3.38.546 7.592h.078q1.794-4.03.52-7.592l.312-.468q1.664 3.796-.364 8.242.572 1.248.117 2.054-.455.806-.559 1.508l-.182.13q-.702-1.04-.806-1.794h-.26q-.026.598-.338 1.248l-.182 1.638.442 1.274h2.262v.624h-6.526v-.624h.546l-.416-1.274-.026-.962q-.468-.156-.702-.364-.338.312-.754.312.026.26-.104.442-1.04.806-3.718 1.404l-.91 1.768q0-.434-.27-.434-.085 0-.198.044l.728-1.3q-1.508.338-2.288.858-.416.442.052 1.066-1.04-.442-1.17-1.248.416-3.926 7.046-5.46l.468.78h.416q.338-1.092 2.678-1.508-.522-.388-1.284-.388-.415 0-.9.115-.492.116-.96.116-.845 0-1.614-.376-1.196-.585-6.084-6.461.9-1.136 1.905-1.136.329 0 .669.122l6.318 4.524V.034q.235-.034.449-.034z"/><path d="M99.283.375c9.625 0 9.625 17.25 0 17.25" fill="none" stroke="#000"/><path d="M87.18 5.286v.445h7.658l-.248-.445zm7.905-.716l1.012 1.877h-9.633V4.57zM84.635.716q0 1.038-.271 1.915-.272.877-4.2 1.642.791 2.15 4.101 3.792 3.31 1.643 10.548 1.989l.131.002q.48 0 .24-.175-4.2-.519-8.202-1.643-4.001-1.124-4.001-3.199 0-1.136 2.816-1.951V.716zM86.465 0l-.025 3.78q-2.643.592-2.582 1.247.062.654.742 1.272.679.618 3.137 1.433 2.458.815 5.422 1.284 2.964.47 3.013.667-.197.766-.642.766-.664.016-1.304.016-4.287 0-7.49-.72-3.68-.828-5.656-2.804-1.977-1.976-1.63-3.063 0-.148 1.852-.543t2.186-.902q.333-.506.408-2.433zm-7.159 12.77q-.396 0-.396.415v3.191h1.208l-.396-3.361q-.02-.246-.416-.246zm-.019-.51q.963 0 1.02.547.397 3.569.85 3.588l8.762.32.906-.037q1.02-1.076 1.813-1.076l.585-.038q1.605.302 1.926.302.227 0 .227.302 0 .416-.642.416-1.103-.176-1.691-.176-.108 0-.198.006-.32 0-.528.264.368.456 1.648.456.098 0 .202-.003 1.454-.037 2.568-.377.548 0 .548.642-.057.585-4.098.604l-1.794-.189-10.234-.056-2.87.037v-4.607q.018-.925 1-.925zM73.51.78c-.706 0-1.06.28-1.06.839 0 .56.347 1.078 1.04 1.558.16.053.18.6.06 1.638l-.94 6.672c.96.28 1.945.786 2.957 1.519V2.797C75.221 1.452 74.535.78 73.51.78zM73.6 0c.778 0 1.37.217 1.778.65.419.446.715 1.129.889 2.047L76.287 18h-1.06c.08-2.29-.075-3.25-.56-3.93-.487-.679-1.716-1.418-3.114-1.645.879-5.5 1.47-8.582 1.297-8.769-.732-.492-1.098-1.152-1.098-1.977C71.752.559 72.33 0 73.489 0a3.659 3.659 0 0 1 .11 0zm-8.413.601c-1.074 0-2.419.552-3.069 1.202-.57.57-.644 1.324-.664 2.025h7.434c-.02-.7-.095-1.455-.664-2.025-.65-.65-1.963-1.202-3.037-1.202zm0-.601c1.274 0 2.645.589 3.448 1.392.824.824.918 1.91.918 2.72v.317H60.82v-.316c0-.812.062-1.897.886-2.72C62.51.588 63.913 0 65.187 0zm1.614 11.554q-.375 0-.99.205-1.054.351-2.183 1.468-1.129 1.116-.903 2.07.226.953.878 1.43.539.394 1.3.394.16 0 .33-.018.98-.1 1.682-1.543.702-1.442.652-2.572-.05-1.129-.351-1.33-.146-.104-.415-.104zm.103-.87q.517 0 .839.222.677.477.753 1.957.075 1.48-.853 3.212-.929 1.73-2.259 1.894-.254.031-.494.031-1.018 0-1.789-.558-.953-.69-1.191-1.957-.239-1.267 1.016-2.685 1.254-1.417 2.71-1.881.737-.236 1.268-.236zM57.079.735q.037 0 .072.012.248.144.186.31-.042.123-.237.164-.038.008-.07.008-.142 0-.209-.142-.082-.175.062-.278.103-.074.196-.074zm-.17-.12q.115 0 .273.05.464.144.217.546-.117.189-.442.189-.368 0-1.001-.24-.578-.228-1.01-.475l.103-.02.948.37q.74.253 1.029.253.041 0 .074-.005.257-.041.288-.237.031-.196-.154-.3Q57.13.69 57.037.69q-.075 0-.144.036-.154.083-.164.196-.01.114.072.237-.268-.082-.175-.36.06-.184.283-.184zm-.21-.132q-.344 0-.6.202-.494-.09-.95-.09-.686 0-1.286.203-1 .34-1.319 1.773-.32 1.433.598 2.845.917 1.412 1.536 2.834 1.05 2.474 1.05 3.525 0 1.04-.636 1.04h-.012q-.65-.01-1.588-.494-.938-.484-2.01-.505-2.267 0-2.143 1.938.845-1.01 1.968-1.02h.035q1.108 0 2.305.638.87.465 1.71.465.332 0 .66-.073 1.155-.258 1.01-2.422-.061-1.237-.113-3.875-.051-2.639-.474-4.143-.423-1.505-1.185-1.773-.24-.084-.699-.084-.327 0-.765.043-.227-.021-.041-.248.39-.1.795-.1.837 0 1.74.43.257.073.652.073h.1q.465-.011.67-.609-.02-.35-.618-.515-.208-.058-.39-.058zM51.303 14.28q-.643 0-1.017.547.247.412 1.196.639.7 0 1.442-.598-.954-.588-1.62-.588zm6.26-2.38q0 .824-.227 1.442-.598 1.093-1.608 1.114h-.06q-.997 0-2.517-.65-1.018-.435-1.797-.435-.42 0-.77.126-.999.36-1.184 1.422-.186 1.062-.722 2.134.845-.845 1.062-1.958.216-1.114 1.206-1.248.158-.021.325-.021.872 0 1.963.588 1.28.691 2.97.691h.05q1.72-.01 1.916-1.134.196-1.123-.608-2.071zM56.42 0q.24 0 .545.087.433.124.762.35.371.269.35.62.021.473-.412.772-.339.234-.805.234-.128 0-.266-.017.865 1.566.917 4.761.051 3.195.154 4.39 1.155.97 1.155 2.258t-.598 1.721q-.598.433-1.917.433-1.299 0-2.742-.495-.845.825-2.081.825-.763 0-1.32-.598-.35 1.731-2.082 2.659.763-2.824.742-3.463-.185-2.103.712-2.72.867-.6 1.88-.6l.068.001q1.133 0 2.298.567.628.306.96.306.282 0 .349-.223.144-.485-.423-1.99-.567-1.504-1.896-3.74-1.33-2.237-.845-3.845Q52.41.685 53.554.355 54.232.16 54.863.16q.434 0 .845.092.227-.185.526-.237Q56.322 0 56.42 0zM44.648 7.458v1.656c.565 0 .848-.283.848-.848 0-.539-.283-.808-.848-.808zM42.553 0c.463 0 .855.116 1.176.35.612.443.919 1.09.919 1.938v4.584c.942 0 1.42.465 1.433 1.394 0 .942-.478 1.413-1.433 1.413V18H43.9V2.732c0-1.023-.198-1.68-.596-1.969-.205-.15-.476-.225-.838-.225-.337 0-.754.065-1.273.195a.65.65 0 0 1-.212.043c-.111 0-.189-.048-.232-.144-.014-.162.108-.276.363-.343.54-.193 1.02-.289 1.441-.289zm-8.169 7.386c-1.074 0-2.419.552-3.07 1.203-.568.569-.643 1.323-.664 2.025h7.435c-.02-.702-.095-1.456-.664-2.025-.65-.65-1.963-1.203-3.037-1.203zm0-.6c1.274 0 2.645.588 3.448 1.391.824.825.918 1.91.918 2.721v.317h-8.732v-.317c0-.812.061-1.896.886-2.72.803-.804 2.206-1.393 3.48-1.393zM25.87 0c.308 0 .633.065.974.195.708.27 1.1.933 1.174 1.991-.032 1.005-.44 1.952-1.222 2.84-.624.773-1.01 1.275-1.158 1.508-.392.582-.625 1.147-.699 1.698h-.682c.106-.783.418-1.545.936-2.285a37.24 37.24 0 0 1 1.46-1.81c.55-.877.764-1.652.643-2.324-.122-.672-.492-1.042-1.111-1.11a2.73 2.73 0 0 0-.3-.018c-.46 0-.788.138-.985.414-.238.333-.289.709-.151 1.127.117.355.337.532.66.532a.977.977 0 0 0 .181-.017c.423-.074.587-.333.492-.777l.349-.667c.275.297.4.609.373.937-.027.328-.172.618-.437.872-.23.222-.528.333-.891.333-.053 0-.108-.003-.164-.007-.439-.037-.777-.225-1.015-.564-.238-.338-.333-.79-.286-1.356.048-.566.355-.995.92-1.286a2.04 2.04 0 0 1 .94-.226zm0 9.768c.308 0 .633.065.974.195.708.27 1.1.934 1.174 1.991-.032 1.005-.44 1.952-1.222 2.84-.624.773-1.01 1.275-1.158 1.508-.392.582-.625 1.148-.699 1.698h-.682c.106-.783.418-1.544.936-2.285.455-.603.942-1.206 1.46-1.809.55-.878.764-1.653.643-2.324-.122-.672-.492-1.042-1.111-1.111a2.73 2.73 0 0 0-.3-.018c-.46 0-.788.138-.985.415-.238.333-.289.708-.151 1.126.117.355.337.533.66.533.057 0 .117-.006.181-.017.423-.074.587-.333.492-.778l.349-.666c.275.296.4.608.373.936-.027.328-.172.619-.437.873-.23.221-.528.332-.891.332-.053 0-.108-.002-.164-.007-.439-.037-.777-.225-1.015-.563-.238-.339-.333-.79-.286-1.357.048-.566.355-.994.92-1.285.294-.151.607-.227.94-.227zM0 0v.354L.177.177.354 0zm2.646 0L0 2.646v.708L3.177.177 3.354 0zm3 0L0 5.646v.708L6.177.177 6.354 0zm3 0L0 8.646v.708L9.177.177 9.354 0zm3 0L0 11.646v.708L12.177.177 12.354 0zm3 0L0 14.646v.708L15.177.177 15.354 0zm3 0L0 17.646V18h.354L18.177.177 18.354 0zm3 0L2.823 17.823 2.646 18h.708L21.177.177 21.354 0zM22 1.646L5.823 17.823 5.646 18h.708L22 2.354v-.708zm0 3L8.823 17.823 8.646 18h.708L22 5.354v-.708zm0 3L11.823 17.823l-.177.177h.708L22 8.354v-.708zm0 3l-7.177 7.177-.177.177h.708L22 11.354v-.708zm0 3l-4.177 4.177-.177.177h.708L22 14.354v-.708zm0 3l-1.177 1.177-.177.177h.708l.646-.646v-.708z"/></svg>