<svg xmlns="http://www.w3.org/2000/svg" width="237.161" height="18"><path d="M235.514 0c.336 0 .67.026.995.066.447.113.217.626-.18.626a.476.476 0 0 1-.082-.008c-.839.097-1.872.15-2.506.626-.84.916-.463 2.821-.56 3.725-.008.05-.01 3.653-.01 5.48a6.145 6.145 0 0 1 2.634-.586c.402 0 .801.04 1.188.117.44.231-.077.528-.423.528a.454.454 0 0 1-.114-.013c-1.226.133-2.62.461-3.243 1.602-.062.206-.023.277.07.277.207 0 .68-.342.947-.342.014 0 .027 0 .04.003a7.535 7.535 0 0 1 1.58-.169c.39 0 .776.031 1.149.095.42.278-.096.534-.438.534a.532.532 0 0 1-.105-.01c-1.252.151-2.637.49-3.243 1.633-.007 1.27 0 2.11-.034 3.278.015.36-.22.538-.456.538-.235 0-.473-.176-.474-.526.008-1.15.09-2.161-.06-3.277-.305-1.253-2.478-1.445-3.827-1.754-.295-.347.285-.475.658-.475.056 0 .107.003.15.008.173-.013.347-.02.522-.02.882 0 1.77.175 2.557.58.032-.755-.712-1.19-1.244-1.493-.84-.361-1.766-.397-2.643-.59-.314-.273.18-.501.52-.501a.58.58 0 0 1 .126.012c.215-.02.431-.031.648-.031.902 0 1.804.183 2.614.582-.017-2.851-.063-5.61.019-8.308.066-.834.546-1.6 1.354-1.849.58-.264 1.227-.358 1.871-.358zM211.52 2.99q-.558 0-1.087.606 4.368 5.2 5.46 5.81.815.457 1.434.457.211 0 .4-.053.74-.208 1.585-.234h.043q.828 0 1.816.988h.13q-.702-1.638-1.963-2.34-1.26-.702-7.397-5.148-.213-.085-.422-.085zm7.73-2.369q-.065 0-.133.01v6.683q2.054 1.196 2.834 3.354-1.196-8.268-1.677-9.204-.433-.843-1.023-.843zm5.356 10.468q.08 0 .153.138.13.247-.234.689-.208-.546-.052-.741.07-.086.133-.086zm-.036-.372q-.153 0-.33.237-.39.52.233 2.08.702-1.352.43-1.976-.15-.34-.333-.34zm-6.805 2.577v.39q.286-.026.442-.182-.052-.078-.208-.208zm-.598.884l-2.418.338-.494.884q.832-.234 1.833-.624t1.08-.598zm5.33-.364l-.468.234-.156 1.118.416 1.274h.65l-.442-1.274v-1.352zm-1.118.39l-.442.13-.156.832.416 1.274h.65l-.442-1.274-.026-.962zm-1.534.156l-.156.806.416 1.274h.65l-.442-1.274v-.78l-.468-.026zm.995-3.234q-.416 0-.89.1-1.405.3-1.769 1.418h-1.092l-.416-.676q-5.512 1.274-6.214 4.602 1.508-.832 3.172-1.118l.728-1.456 2.886-.39-.078-.702h.988q1.092.9 2.228.9.244 0 .49-.042 1.39-.234 1.82-.95.428-.714-.456-1.3-.585-.386-1.397-.386zM218.994 0q.947 0 1.488.658.663.806 1.235 4.238l.91 5.954q.442.468.676.52h.312q.026-.65.494-1.196.416-3.978-.364-6.968l.312-.598q1.118 3.38.546 7.592h.078q1.794-4.03.52-7.592l.312-.468q1.664 3.796-.364 8.242.572 1.248.117 2.054-.455.806-.559 1.508l-.182.13q-.702-1.04-.806-1.794h-.26q-.026.598-.338 1.248l-.182 1.638.442 1.274h2.262v.624h-6.526v-.624h.546l-.416-1.274-.026-.962q-.468-.156-.702-.364-.338.312-.754.312.026.26-.104.442-1.04.806-3.718 1.404l-.91 1.768q0-.434-.27-.434-.085 0-.198.044l.728-1.3q-1.508.338-2.288.858-.416.442.052 1.066-1.04-.442-1.17-1.248.416-3.926 7.046-5.46l.468.78h.416q.338-1.092 2.678-1.508-.522-.388-1.284-.388-.415 0-.9.115-.492.116-.96.116-.845 0-1.614-.376-1.196-.585-6.084-6.461.9-1.136 1.905-1.136.329 0 .67.122l6.317 4.524V.034q.235-.034.449-.034z"/><path d="M200.153.375c9.625 0 9.625 17.25 0 17.25" fill="none" stroke="#000"/><path d="M200.646 0l-.493.493v.708l1.024-1.024.177-.177zm3 0l-3.493 3.493v.708l4.024-4.024.177-.177zm3 0l-6.493 6.493v.708l7.024-7.024.177-.177zm1.007 1.993l-7.5 7.5v.708l7.5-7.5v-.708zm0 3l-7.5 7.5v.708l7.5-7.5v-.708zm0 3l-7.5 7.5v.708l7.5-7.5v-.708zm0 3l-6.83 6.83-.177.177h.708l6.299-6.3v-.707zm0 3l-3.83 3.83-.177.177h.708l3.299-3.3v-.707zm0 3l-.83.83-.177.177h.708l.299-.3v-.707zM209.646 0l-1.993 1.993v.708l2.524-2.524.143-.143V0zm.674 2.327l-2.667 2.666v.708l2.667-2.667v-.707zm0 3l-2.667 2.666v.708l2.667-2.667v-.707zm0 3l-2.667 2.666v.708l2.667-2.667v-.707zm0 3l-2.667 2.666v.708l2.667-2.667v-.707zm0 3l-2.667 2.666v.708l2.667-2.667v-.707zm0 3l-.497.496-.177.177h.674v-.673zm-16.389-9.389c.682.054 1.058.394 1.13 1.022-.09.68-.466 1.04-1.13 1.075-.663-.036-1.012-.394-1.048-1.075.053-.628.403-.968 1.048-1.022zm-.08-2.259c-.484 0-.932.09-1.345.27a3.545 3.545 0 0 0-1.828 1.815 3.11 3.11 0 0 0-.27 1.276c0 .466.09.901.27 1.304a3.422 3.422 0 0 0 3.173 2.03c.484 0 .936-.085 1.358-.255.42-.17.784-.408 1.089-.712.304-.305.546-.66.726-1.063.179-.403.269-.838.269-1.304 0-.448-.09-.874-.27-1.277a3.67 3.67 0 0 0-.725-1.075 3.302 3.302 0 0 0-1.09-.74 3.431 3.431 0 0 0-1.357-.269zm.054-.914a4.17 4.17 0 0 1 1.667.336c.52.224.968.529 1.344.914.377.386.677.834.9 1.345.225.51.337 1.062.337 1.653 0 .592-.112 1.143-.336 1.654a4.31 4.31 0 0 1-.9 1.331 4.267 4.267 0 0 1-3.012 1.237 4.071 4.071 0 0 1-1.654-.336 4.48 4.48 0 0 1-1.345-.9 4.195 4.195 0 0 1-.914-1.332 4.071 4.071 0 0 1-.336-1.654c0-.591.112-1.142.336-1.653a4.358 4.358 0 0 1 2.259-2.259 4.071 4.071 0 0 1 1.654-.336z"/><path d="M191.646 0l-1.99 1.99v.708l2.52-2.521.178-.177zm3 0l-4.99 4.99v.708l5.52-5.521.178-.177zm3 0l-7.99 7.99v.708L198.153.2V0zm.507 2.493l-8.497 8.497v.708l8.497-8.497v-.708zm0 3l-8.497 8.497v.708l8.497-8.497v-.708zm0 3l-8.497 8.497v.708l8.497-8.497v-.708zm0 3l-6.33 6.33-.177.177h.708l5.799-5.8v-.707zm0 3l-3.33 3.33-.177.177h.708l2.799-2.8v-.707zm0 3l-.33.33-.177.177h.507v-.507z"/><path d="M200.153.493l-2 2v.708l2-2V.493zm0 3l-2 2v.708l2-2v-.708zm0 3l-2 2v.708l2-2v-.708zm0 3l-2 2v.708l2-2v-.708zm0 3l-2 2v.708l2-2v-.708zm0 3l-2 2V18h.2l1.8-1.8v-.707zm-28.281-8.244q2.48 3.37 7.138 3.462 4.627-.091 7.107-3.462zm15.784-.8q-2.541 5.082-8.646 5.102-6.135-.02-8.676-5.102zM161.746.442q-.442 0-.344.426l1.015 4.143h.852L162.254.884q-.082-.442-.508-.442zm-1.31 0q-.41 0-.327.426l.982 4.143h.852L160.96.884q-.098-.442-.524-.442zm-1.408 0q-.459 0-.344.426l.999 4.143h.851l-.982-4.127q-.115-.442-.524-.442zm-1.376 0q-.376 0-.327.426l.999 4.143h.851l-.999-4.127q-.081-.442-.524-.442zm-1.375 0q-.393 0-.344.426l1.015 4.143h.852l-1-4.127q-.131-.442-.524-.442zm.59 5.076q-.41 0-.41.344t.393.344h6.517q.41 0 .41-.344t-.41-.344zm7.663.688q1.375 2.145 1.768 4.257.032.705.424.705h.018q.41-.017.262-.721-.688-2.882-2.472-4.241zm-8.826 0q-1.785 1.359-2.473 4.24-.147.705.262.721h.018q.392 0 .424-.704.393-2.112 1.769-4.257zM159.094 0q1.882 0 3.16.164.507.065.622.72l.95 4.012q.13.377.605.622 2.67 1.883 3.193 5.207-.08 1.04-.871 1.04h-.013q-.802-.008-.95-1.023-.785-3.03-1.44-3.996h-.786v.524h-1.245v-.524h-4.388v.524h-1.245v-.524h-.786q-.671.966-1.457 3.996-.147 1.015-.95 1.023h-.012q-.79 0-.872-1.04.524-3.324 3.193-5.207h-.016q.475-.262.491-.426l-.95-4.208q-.082-.638.54-.737Q157.375 0 159.094 0zm7.739 15.02q-.725 0-1.644 1.031-.71.79-1.922.79-.446 0-.96-.106-1.918-.397-3.219-.42-.184-.003-.363-.003-1.07 0-1.915.15-.985.17-1.771.684-.787.522-1.5.522.144.009.286.009.944 0 1.794-.384.636-.284 2.097-.284.767 0 1.762.079 1.79.14 2.946.14.708 0 1.177-.052 1.235-.14 1.838-1 .497-.708.774-.708.059 0 .108.032.287.191.757.198h.023q.45 0 .528-.286.015-.338-.727-.39-.034-.002-.069-.002zm-1.056-1.718q.573 0 .897 1.301.071-.008.146-.008.125 0 .258.023.456-1.169 1.022-1.169.198 0 .228.14.029.132-.081.28-.522.41-.699.86.537.264.537.683-.051.632-.698.698-.182.019-.337.019-.397 0-.619-.122-.086-.047-.168-.047-.208 0-.383.312-.25.44-.948.948-.635.468-2.624.468-.2 0-.412-.005-2.367-.015-3.719-.125-.363-.031-.694-.031-.913 0-1.592.237-.661.236-2.38.236-.688 0-1.545-.038-.037 0-.066-.147 0-.44.94-.44 1.287-.045 1.677-.368.39-.331 1.3-.757.92-.434 2.72-.434 1.801 0 3.668.434.579.132 1.059.132 1.068 0 1.646-.654.838-.948 1.271-1.03 0-.308-.316-.675-.316-.36-.294-.544.015-.177.206-.177zM145.751 0c.112 0 .223.01.334.02 1.61.172 2.754 1.802 2.5 3.382-.11 1.174-.84 1.832-1.64 2.48-2.378 1.458-1.71.921-4.11 2.136l-.384-.718c2.855-1.337 3.199-1.55 4.09-2.137.729-.587 1.306-1.235 1.255-2.217.02-.678-.384-1.377-.84-1.71A2.186 2.186 0 0 0 145.67.8c-.344 0-.668.08-.952.283-.718.355-1.113 1.529-.587 2.268.243.354.679.597 1.114.597.213 0 .425-.06.607-.192.365-.202.638-.911.264-1.306.172-.182.415-.405.597-.405.121 0 .213.091.273.304.405.972-.243 2.075-1.215 2.338a1.83 1.83 0 0 1-.516.081c-1.114 0-2.146-.93-2.146-2.085-.101-1.347.972-2.582 2.318-2.663.101-.01.213-.02.324-.02zm-.217 14.172c-1.074 0-2.418.552-3.069 1.202-.57.57-.643 1.324-.664 2.025h7.435c-.021-.701-.096-1.456-.665-2.025-.65-.65-1.963-1.202-3.037-1.202zm0-.601c1.274 0 2.645.588 3.448 1.392.825.824.918 1.909.918 2.72V18h-8.732v-.316c0-.812.062-1.897.886-2.721.803-.804 2.206-1.392 3.48-1.392zM129.907.924c-.296 0-.475.05-.567.103-.27.172-.14.583-.098.84h1.33c.032-.263.178-.664-.097-.84-.093-.053-.271-.103-.568-.103zm7.39 1.552V3.4h1.262v-.924zm-6.556 0V3.4h6.252v-.924zm-1.52 0V3.4h1.216v-.924zm-6.104 0V3.4h5.8v-.924zm-1.632 0V3.4h1.328v-.924zM132.578 0l.43.431-1.44 1.436h7.6v2.142h-18.292V1.867h7.37L126.806.43l.43-.431 1.332 1.327c.08-.804.63-.989 1.34-1.012.757.02 1.222.192 1.34 1.012L132.577 0zm6.556 10.67V18h-1.225v-7.33zm-8.424.01V18h-1.225v-7.32zm-8.575 0V18h-1.225v-7.32z"/><path d="M111.189.375v17.25m7.687-17.25c-9.625 0-9.625 17.25 0 17.25m0 0" fill="none" stroke="#000"/><path d="M103.219.597a2.12 2.12 0 0 0-.692.109c.031.223.169.569.953.773-.73-.053-1.206-.113-1.453-.307a2.45 2.45 0 0 0-.158.556.297.297 0 0 1-.206.237c-.625.191-1.174 1.112-1.7 1.763-.95 1.173-1.772 2.48-2.688 3.733.423-.207.845-.415 1.27-.622 1.182-.622 2.394-1.11 3.407-1.877.588-.49 1.172-.996 1.39-1.641.076-.497-.296-1.074-.767-1.279a.297.297 0 1 1 .238-.545c.376.164.699.458.904.817a1.986 1.986 0 0 0-.075-.448.297.297 0 0 1-.013-.104c.01-.184.042-.313.082-.422.041-.109.085-.206.158-.459a.297.297 0 0 1 .105-.153 1.546 1.546 0 0 0-.528-.125c-.042-.003-.083-.003-.125-.004a.258.258 0 1 1-.102-.002zm-1.194 5.432c-.605.466-1.253.873-1.888 1.28.005.438-.006.879-.047 1.321.207-.135.434-.236.697-.3.392-.636.82-1.22 1.083-1.842a4.64 4.64 0 0 0 .155-.46zm.25 1c-.274.549-.622 1.04-.93 1.529.06.04.113.08.155.121l.028.027c.168-.194.374-.351.613-.454-.01-.348.047-.768.133-1.222zm-2.882.047a25.922 25.922 0 0 0-.587.297c-.78.38-1.56.772-2.35 1.148-.556.67-1.156 1.293-1.734 1.92l1.043.175 2.563-2.786a.297.297 0 0 1 .04-.036c.333-.253.678-.489 1.025-.718zm2.592 2.009c-.058.066-.112.14-.161.222a.298.298 0 0 1-.43.087c-.124-.09-.2-.177-.265-.244l-.077 1.413c.1-.006.201-.013.296-.013.167 0 .313.022.398.108.1-.078.28-.1.504-.1.057 0 .118.002.18.005l-.445-1.478zm5.419.999c-.452.062-.686.323-.704.783h1.395c0-.46-.23-.721-.691-.783zm-7.86-2.39c-.275.182-.542.367-.799.56l-2.402 2.613h2.456c.17-.19.518-.365.776-.365.073 0 .14.014.192.046.081-.007.167-.01.256-.01.14 0 .285.007.433.016l.083-1.506c-.224.115-.407.282-.625.542a.297.297 0 0 1-.52-.246c.1-.544.142-1.093.15-1.65zm6.24 3.745l.265.465h1.249l.252-.465zm-4.516 0v2.51l1.726-2.51zM103.212 0a3.878 3.878 0 0 1 .272.01c.694.044 1.215.325 1.408.768a.298.298 0 0 1-.341.408l-.025-.006-.03.007-.108.029c-.054.168-.096.269-.12.332a.541.541 0 0 0-.042.2 3.1 3.1 0 0 1 .037 1.389c-.095.466-.384.977-.761 1.46a.295.295 0 0 1-.014.108 21.24 21.24 0 0 0-.548 2.027c-.152.708-.234 1.387-.192 1.684a.297.297 0 0 1-.223.33l-.019.005.527 1.75c.086-.013.173-.018.26-.018.256 0 .508.041.712.041a.865.865 0 0 0 .183-.016.314.314 0 0 1 .068-.007c.212 0 .657.13.787.366h1.1c.061-.797.482-1.235 1.261-1.315.788.08 1.195.518 1.222 1.315v.572h-.531l-.545 1.01h-1.766l-.532-1.01h-1.567l-2.404 3.493V18h-.571v-6.561h-4.517v-.41l-.099.109a.297.297 0 0 1-.268.092l-1.74-.292a.298.298 0 0 1-.173-.492c.217-.242.437-.48.656-.716l-1.656 1.078a.296.296 0 0 1-.412-.087.297.297 0 0 1 .087-.411l1.345-.876a.292.292 0 0 1-.076-.09.315.315 0 0 1-.02-.237c.016-.05.034-.074.048-.093.055-.076.084-.088.123-.119.04-.03.084-.06.131-.094.096-.065.206-.137.301-.2a4.156 4.156 0 0 0 .216-.156l2.379-1.672.008-.005c.805-1.13 1.568-2.316 2.457-3.414.433-.535.938-1.524 1.812-1.894.048-.262.157-.68.483-.997.353-.344.864-.463 1.417-.463zM76.024 7.458v1.656c.565 0 .848-.283.848-.848 0-.539-.283-.808-.848-.808zM73.929 0c.463 0 .855.116 1.176.35.612.443.919 1.09.919 1.938v4.584c.942 0 1.42.465 1.434 1.394 0 .942-.478 1.413-1.434 1.413V18h-.747V2.732c0-1.023-.198-1.68-.595-1.969-.206-.15-.476-.225-.839-.225-.337 0-.754.065-1.273.195a.65.65 0 0 1-.212.043c-.111 0-.188-.048-.232-.144-.013-.162.108-.276.364-.343C73.028.096 73.508 0 73.929 0zM65.76.601c-1.074 0-2.418.552-3.069 1.202-.569.57-.643 1.324-.664 2.025h7.435c-.021-.7-.096-1.455-.665-2.025-.65-.65-1.963-1.202-3.037-1.202zm0-.601c1.274 0 2.645.589 3.449 1.392.824.824.917 1.91.917 2.72v.317h-8.732v-.316c0-.812.062-1.897.886-2.72C63.083.588 64.486 0 65.76 0zm1.187 9.627c5.438 1.9 2.903 9.54-2.195 8.228-5.054-1.302-4.046-9.318 2.195-8.228m-.243.698c-5.418-.787-5.64 5.768-1.708 6.812 3.846 1.022 6.482-5.13 1.708-6.812m-1.189 1.152c-1.082-.74.885-.487 0-.018v.018m1.986.433c-1.228-.397.343-.795 0-.073v.073m-2.993-.712v.732l-.731-.244.73-.488m3.572 2.066c-.903-.795.595-.885.108-.09l-.108.09m-2.84-.846l.245.731-.732-.487.488-.244m1.052.358l.072-.017c.668-.489 1.39 1.767-.072.017m-3.014-.397c.956.56-.162.703-.253.703l.253-.703m2.938 1.502l-.244.244-.488-.732.732.488m-1.675-.474l.469.019c-.559.866-.757.793-.469-.019m3.681 1.517c-.883-.74.434-.632.416-.488l-.416.488m-1.01-.903l-.22.305c-.719-.215-.34-.792.22-.305m-3.435.836l-.244.244-.488-.732.732.488m1.323.012c.758-.378.92-.27.47.344l-.47-.344m2.579.72l-.244.731-.488-.732h.732m-3.246-.465l.45.54c-.107.217-1.1.145-.45-.54m1.539.71l.244.731h-.732l.488-.732zM59.394 5.34v7.32h-1.225V5.34zm-8.749 12.708c-2.597 0-2.597-3.896 0-3.896s2.597 3.896 0 3.896zM43.169 0v7.35h-.735V0zm-4.37 0v7.35h-.736V0zm-4.371 0v7.35h-.735V0zm6.556 10.65V18h-.735v-7.35zm-4.37 0V18h-.736v-7.35zm-10.445 7.398c-2.597 0-2.597-3.896 0-3.896s2.597 3.896 0 3.896zM15.115 4.845c.947.012 1.816.243 2.472.778.68.54 1.112 1.378 1.106 2.405v5.127h-.705V8.022c0-.838-.316-1.434-.838-1.853-.504-.4-1.215-.62-2.017-.62h-.097c-.796 0-1.513.22-2.017.62-.522.42-.838 1.015-.838 1.853v5.133h-.705V8.028c-.006-1.027.425-1.865 1.106-2.405.656-.535 1.524-.766 2.472-.778zM9.476 0v7.35h-.735V0zm-4.37 0v7.35H4.37V0zM.736 0v7.35H0V0zM7.29 10.65V18h-.734v-7.35zm-4.37 0V18h-.735v-7.35z"/></svg>