<svg xmlns="http://www.w3.org/2000/svg" width="144.954" height="18"><path d="M143.307 0c.336 0 .67.026.995.066.447.113.217.626-.18.626a.476.476 0 0 1-.082-.008c-.839.097-1.872.15-2.506.626-.84.916-.463 2.821-.56 3.725-.008.05-.01 3.653-.01 5.48a6.145 6.145 0 0 1 2.634-.586c.402 0 .801.04 1.188.117.44.231-.077.528-.423.528a.454.454 0 0 1-.114-.013c-1.226.133-2.62.461-3.243 1.602-.062.206-.023.277.07.277.207 0 .68-.342.947-.342.014 0 .027 0 .04.003a7.535 7.535 0 0 1 1.58-.169c.39 0 .776.031 1.149.095.42.278-.096.534-.438.534a.532.532 0 0 1-.105-.01c-1.252.151-2.637.49-3.243 1.633-.007 1.27 0 2.11-.034 3.278.015.36-.22.538-.456.538-.235 0-.473-.176-.474-.526.008-1.15.09-2.161-.06-3.277-.305-1.253-2.478-1.445-3.827-1.754-.295-.347.285-.475.658-.475.056 0 .107.003.15.008.173-.013.347-.02.522-.02.882 0 1.77.175 2.557.58.032-.755-.712-1.19-1.244-1.493-.84-.361-1.766-.397-2.643-.59-.314-.273.18-.501.52-.501a.58.58 0 0 1 .126.012c.215-.02.431-.031.648-.031.902 0 1.804.183 2.614.582-.017-2.851-.063-5.61.019-8.308.066-.834.546-1.6 1.354-1.849.58-.264 1.227-.358 1.871-.358zm-23.995 2.99q-.556 0-1.086.606 4.368 5.2 5.46 5.81.815.457 1.434.457.211 0 .4-.053.74-.208 1.585-.234h.043q.828 0 1.816.988h.13q-.702-1.638-1.963-2.34-1.26-.702-7.397-5.148-.213-.085-.422-.085zm7.732-2.369q-.066 0-.134.01v6.683q2.054 1.196 2.834 3.354-1.196-8.268-1.677-9.204-.433-.843-1.023-.843zm5.355 10.468q.08 0 .153.138.13.247-.234.689-.208-.546-.052-.741.07-.086.133-.086zm-.036-.372q-.153 0-.33.237-.39.52.233 2.08.702-1.352.43-1.976-.15-.34-.333-.34zm-6.805 2.577v.39q.286-.026.442-.182-.052-.078-.208-.208zm-.598.884l-2.418.338-.494.884q.832-.234 1.833-.624t1.08-.598zm5.33-.364l-.468.234-.156 1.118.416 1.274h.65l-.442-1.274v-1.352zm-1.118.39l-.442.13-.156.832.416 1.274h.65l-.442-1.274-.026-.962zm-1.534.156l-.156.806.416 1.274h.65l-.442-1.274v-.78l-.468-.026zm.995-3.234q-.416 0-.89.1-1.405.3-1.769 1.418h-1.092l-.416-.676q-5.512 1.274-6.214 4.602 1.508-.832 3.172-1.118l.728-1.456 2.886-.39-.078-.702h.988q1.092.9 2.228.9.244 0 .49-.042 1.39-.234 1.82-.95.428-.714-.456-1.3-.585-.386-1.397-.386zM126.787 0q.947 0 1.488.658.663.806 1.235 4.238l.91 5.954q.442.468.676.52h.312q.026-.65.494-1.196.416-3.978-.364-6.968l.312-.598q1.118 3.38.546 7.592h.078q1.794-4.03.52-7.592l.312-.468q1.664 3.796-.364 8.242.572 1.248.117 2.054-.455.806-.559 1.508l-.182.13q-.702-1.04-.806-1.794h-.26q-.026.598-.338 1.248l-.182 1.638.442 1.274h2.262v.624h-6.526v-.624h.546l-.416-1.274-.026-.962q-.468-.156-.702-.364-.338.312-.754.312.026.26-.104.442-1.04.806-3.718 1.404l-.91 1.768q0-.434-.27-.434-.085 0-.198.044l.728-1.3q-1.508.338-2.288.858-.416.442.052 1.066-1.04-.442-1.17-1.248.416-3.926 7.046-5.46l.468.78h.416q.338-1.092 2.678-1.508-.522-.388-1.284-.388-.415 0-.9.115-.492.116-.96.116-.845 0-1.614-.376-1.196-.585-6.084-6.461.9-1.136 1.905-1.136.33 0 .67.122l6.317 4.524V.034q.235-.034.449-.034z"/><path d="M107.946.375c9.625 0 9.625 17.25 0 17.25" fill="none" stroke="#000"/><path d="M99.068 2.198h-.056q-1.802.01-3.698.227t-3.293.518v.453q1.415.321 3.302.538 1.887.217 3.689.236h.106q1.765 0 4.036-.604.641.283 1.358.302h.037q.681 0 .718-.68-.037-.69-.701-.69l-.054.002q-.717.028-1.358.292-2.304-.594-4.086-.594zM92.7 4.113q-1.34 2.981-1.378 4.415l.529-.019q-.038-1.415.849-4.396zm.547.095q-1.057 2.886-.812 6.434h.548q-.227-3.548.905-6.302l-.641-.132zM103.154 0l.641.358q-.641.925-.641 1.868.858-.38 1.457-.38 1.126 0 1.335 1.343-.208 1.334-1.322 1.334-.602 0-1.47-.39 0 .943.66 1.867l-.66.359q-.755-1.265-1.095-1.982-1.16.424-2.821.424-.338 0-.698-.018-2.122-.104-4.122-.368-1.038 2.68-.925 6.83h-1.585q-.056-1.037-.056-2.17h-1.057q-.132-1.98 1.434-5.037-1.189-.283-1.019-.85-.17-.584.934-.839t2.689-.462q1.585-.208 3.707-.312.396-.019.767-.019 1.616 0 2.752.369.34-.66 1.095-1.925zm-4.611 13.382q-.918 0-1.675.458-1.54.893-2.918.893-1.387 0-2.544-.12v2.383q1.438-.255 2.076-.255h.017q.52 0 1.446.119 3.77.519 4.697.519 1.54 0 2.9-.051 2.332-.136 2.562-.247.221-.102.221-.587 0-.476-.128-.834-.127-.357-.425-.51-7.283-.323-7.853-.374.508-.733 1.573-.733.345 0 .75.077 1.356.268 2.092.268.154 0 .282-.012.723-.068.672-.69-.407.055-.84.055-.908 0-1.934-.242-.506-.117-.97-.117zm-.216-.69q.368 0 .728.093 1.455.383 2.56.4.273 0 .979-.137.332.307.332.724 0 .416-.264.706 2.782.102 2.782.332.502.638.502 1.531 0 .885-.468 1.208-1.412.451-5.675.451-.68 0-1.386-.068-3.948-.587-4.705-.604h-.075q-.778 0-2.852.323v-3.76l.017.017q1.778.204 2.901.23l.116.001q1.068 0 2.198-.597 1.196-.85 2.31-.85z"/><path d="M92.646 0l-1.86 1.861v.707l2.39-2.391.178-.177zm3 0l-4.86 4.861v.707l5.39-5.391.178-.177zm2.72.28l-7.58 7.581v.707l7.58-7.58V.281zm0 3l-7.58 7.581v.707l7.58-7.58v-.707zm0 3l-7.58 7.581v.707l7.58-7.58v-.707zm0 3l-7.58 7.581v.707l7.58-7.58v-.707zm0 3l-5.543 5.543-.177.177h.708l5.012-5.012v-.707zm0 3l-2.543 2.543-.177.177h.708l2.012-2.012v-.707zM68.646 0l-1.86 1.861v.707l2.39-2.391.178-.177zm3 0l-4.86 4.861v.707l5.39-5.391.178-.177zm3 0l-7.86 7.861v.707l8.39-8.391.178-.177zm3 0l-10.86 10.861v.707L78.175.177l.18-.177zm3 0l-13.86 13.861v.707L81.175.177l.18-.177zm3 0l-16.86 16.861v.707L84.175.177l.18-.177zm3 0L68.823 17.823l-.177.177h.708L87.177.177 87.354 0zm2.14.861L71.822 17.823l-.177.177h.708L88.785 1.568V.861zm0 3L74.822 17.823l-.177.177h.708L88.785 4.568v-.707zm0 3L77.822 17.823l-.177.177h.708L88.785 7.568v-.707zm0 3l-7.963 7.962-.177.177h.708l7.431-7.432v-.707zm0 3l-4.963 4.962-.177.177h.708l4.431-4.432v-.707zm0 3l-1.963 1.962-.177.177h.708l1.431-1.432v-.707zM89.646 0l-.86.861v.707l1.39-1.391.178-.177zm1.14 1.861l-2 2v.707l2-2v-.707zm0 3l-2 2v.707l2-2v-.707zm0 3l-2 2v.707l2-2v-.707zm0 3l-2 2v.707l2-2v-.707zm0 3l-2 2v.707l2-2v-.707zm0 3l-.963.962-.177.177h.708l.431-.432v-.707zM44.646 0l-1.86 1.861v.707l2.39-2.391.178-.177zm3 0l-4.86 4.861v.707l5.39-5.391.178-.177zm3 0l-7.86 7.861v.707l8.39-8.391.178-.177zm3 0l-10.86 10.861v.707L54.175.177l.18-.177zm3 0l-13.86 13.861v.707L57.175.177l.18-.177zm3 0l-16.86 16.861v.707L60.175.177l.18-.177zm3 0L44.823 17.823l-.177.177h.708L63.177.177 63.354 0zm2.14.861L47.822 17.823l-.177.177h.708L64.785 1.568V.861zm0 3L50.822 17.823l-.177.177h.708L64.785 4.568v-.707zm0 3L53.822 17.823l-.177.177h.708L64.785 7.568v-.707zm0 3l-7.963 7.962-.177.177h.708l7.431-7.432v-.707zm0 3l-4.963 4.962-.177.177h.708l4.431-4.432v-.707zm0 3l-1.963 1.962-.177.177h.708l1.431-1.432v-.707zM65.646 0l-.86.861v.707l1.39-1.391.178-.177zm1.14 1.861l-2 2v.707l2-2v-.707zm0 3l-2 2v.707l2-2v-.707zm0 3l-2 2v.707l2-2v-.707zm0 3l-2 2v.707l2-2v-.707zm0 3l-2 2v.707l2-2v-.707zm0 3l-.963.962-.177.177h.708l.431-.432v-.707zM38.71 1.124q-2.015.293-2.106 1.842v11.177q.941-1.124 3.381-1.58L38.71 1.124zM39.277 0l1.508 13.363q-3.361.385-4.181 2.4V18h-1.002V2.966q0-2.51 3.675-2.966zm-7.751 1.124q-2.014.293-2.105 1.842v11.177q.941-1.124 3.381-1.58l-1.276-11.44zM32.093 0l1.509 13.363q-3.361.385-4.181 2.4V18h-1.003V2.966q0-2.51 3.675-2.966z"/><path d="M18.73.375v17.25M26.418.375c-9.625 0-9.625 17.25 0 17.25m0 0" fill="none" stroke="#000"/><path d="M10.761.597a2.12 2.12 0 0 0-.692.109c.031.223.169.569.953.773-.73-.053-1.206-.113-1.452-.307-.09.2-.137.427-.158.556a.297.297 0 0 1-.207.237c-.624.191-1.173 1.112-1.7 1.763-.95 1.173-1.771 2.48-2.688 3.733l1.27-.622c1.182-.622 2.395-1.11 3.407-1.877.589-.49 1.172-.996 1.39-1.641.076-.497-.296-1.074-.767-1.279a.297.297 0 1 1 .238-.545c.377.164.7.458.904.817a1.986 1.986 0 0 0-.075-.448.297.297 0 0 1-.012-.104c.01-.184.041-.313.082-.422.04-.109.085-.206.157-.459a.297.297 0 0 1 .105-.153 1.546 1.546 0 0 0-.527-.125C10.946.6 10.905.6 10.864.599a.258.258 0 1 1-.103-.002zM9.568 6.029c-.606.466-1.253.873-1.888 1.28a13 13 0 0 1-.047 1.321c.207-.135.434-.236.697-.3.39-.636.82-1.22 1.082-1.842.054-.129.105-.29.156-.46zm.248 1c-.273.549-.62 1.04-.928 1.529.059.04.112.08.155.121l.027.027a1.72 1.72 0 0 1 .613-.454c-.01-.348.047-.768.133-1.222zm-2.88.047a25.922 25.922 0 0 0-.588.297c-.78.38-1.56.772-2.349 1.148-.556.67-1.157 1.293-1.735 1.92l1.044.175L5.87 7.83a.297.297 0 0 1 .04-.036 18.5 18.5 0 0 1 1.026-.718zm2.592 2.009c-.058.066-.112.14-.162.222a.298.298 0 0 1-.429.087c-.125-.09-.2-.177-.266-.244l-.077 1.413c.1-.006.201-.013.296-.013.167 0 .314.022.398.108.1-.078.28-.1.504-.1.058 0 .118.002.18.005l-.444-1.478zm5.418.999c-.451.062-.686.323-.703.783h1.394c0-.46-.23-.721-.69-.783zm-7.86-2.39a16.38 16.38 0 0 0-.798.56l-2.403 2.613h2.456c.171-.19.519-.365.776-.365.074 0 .14.014.192.046.082-.007.168-.01.256-.01.14 0 .286.007.434.016l.082-1.506c-.224.115-.407.282-.625.542a.297.297 0 0 1-.52-.246c.1-.544.142-1.093.15-1.65zm6.24 3.745l.266.465h1.248l.253-.465zm-4.516 0v2.51l1.727-2.51zM10.754 0a3.878 3.878 0 0 1 .272.01c.695.044 1.215.325 1.408.768a.298.298 0 0 1-.34.408l-.025-.006-.03.007-.108.029c-.055.168-.096.269-.12.332a.541.541 0 0 0-.042.2c.154.552.094 1.107.036 1.389-.095.466-.384.977-.76 1.46a.295.295 0 0 1-.015.108 21.24 21.24 0 0 0-.548 2.027c-.152.708-.233 1.387-.192 1.684a.297.297 0 0 1-.223.33l-.019.005.527 1.75c.086-.013.173-.018.26-.018.256 0 .509.041.712.041a.865.865 0 0 0 .183-.016.314.314 0 0 1 .068-.007c.212 0 .657.13.787.366h1.1c.062-.797.482-1.235 1.261-1.315.788.08 1.196.518 1.222 1.315v.572h-.53l-.545 1.01h-1.767l-.531-1.01h-1.568l-2.404 3.493V18h-.571v-6.561H3.736v-.41l-.1.109a.297.297 0 0 1-.268.092l-1.74-.292a.298.298 0 0 1-.172-.492c.216-.242.436-.48.656-.716L.455 10.808a.296.296 0 0 1-.411-.087.297.297 0 0 1 .087-.411l1.344-.876a.292.292 0 0 1-.076-.09.315.315 0 0 1-.02-.237.305.305 0 0 1 .048-.093c.055-.076.084-.088.124-.119l.13-.094c.096-.065.207-.137.301-.2a4.156 4.156 0 0 0 .217-.156l2.378-1.672.008-.005c.806-1.13 1.568-2.316 2.457-3.414.433-.535.938-1.524 1.812-1.894.048-.262.157-.68.484-.997C9.69.119 10.2 0 10.754 0z"/></svg>