<svg xmlns="http://www.w3.org/2000/svg" width="68.827" height="18"><path d="M67.18 0c.336 0 .67.026.995.066.447.113.217.626-.18.626a.476.476 0 0 1-.082-.008c-.839.097-1.872.15-2.506.626-.84.916-.463 2.821-.56 3.725-.008.05-.01 3.653-.01 5.48a6.145 6.145 0 0 1 2.634-.586c.402 0 .801.04 1.188.117.44.231-.077.528-.423.528a.454.454 0 0 1-.114-.013c-1.226.133-2.62.461-3.243 1.602-.062.206-.023.277.07.277.207 0 .68-.342.947-.342.014 0 .027 0 .04.003a7.535 7.535 0 0 1 1.58-.169c.39 0 .776.031 1.149.095.42.278-.096.534-.438.534a.532.532 0 0 1-.105-.01c-1.252.151-2.637.49-3.243 1.633-.007 1.27 0 2.11-.034 3.278.015.36-.219.538-.456.538-.235 0-.473-.176-.474-.526.008-1.15.09-2.161-.06-3.277-.305-1.253-2.478-1.445-3.827-1.754-.295-.347.285-.475.658-.475.056 0 .107.003.15.008.173-.013.347-.02.522-.02.882 0 1.77.175 2.557.58.032-.755-.712-1.19-1.244-1.493-.84-.361-1.766-.397-2.643-.59-.314-.273.18-.501.52-.501a.58.58 0 0 1 .126.012c.215-.02.431-.031.648-.031.902 0 1.804.183 2.614.582-.017-2.851-.063-5.61.019-8.308.066-.834.546-1.6 1.354-1.849C65.89.094 66.536 0 67.18 0z"/><path d="M59.929 0v.425l.248-.248.177-.177zm2.717 0L59.93 2.718v.707L63.177.177 63.354 0zm3 0L59.93 5.718v.707L66.177.177 66.354 0zm3 0L59.93 8.718v.707L68.827.526V0zm.181 2.819l-8.898 8.899v.707l8.898-8.899V2.82zm0 3l-8.898 8.899v.707l8.898-8.899V5.82zm0 3l-8.898 8.899V18h.425l8.473-8.474V8.82zm0 3l-6.004 6.004-.177.177h.708l5.473-5.474v-.707zm0 3l-3.004 3.004-.177.177h.708l2.473-2.474v-.707zm0-14.819v.526l.35-.35.177-.176zm2.035.784L68.827 2.82v.707l2.035-2.035V.784zm0 3L68.827 5.82v.707l2.035-2.035v-.707zm0 3L68.827 8.82v.707l2.035-2.035v-.707zm0 3l-2.035 2.035v.707l2.035-2.035v-.707zm0 3l-2.035 2.035v.707l2.035-2.035v-.707zm0 3l-2.035 2.035V18h.527l1.508-1.509v-.707zM43.186 2.99q-.557 0-1.087.606 4.368 5.2 5.46 5.81.815.457 1.434.457.211 0 .4-.053.74-.208 1.585-.234h.043q.828 0 1.816.988h.13q-.702-1.638-1.963-2.34-1.26-.702-7.397-5.148-.213-.085-.421-.085zm7.73-2.369q-.065 0-.133.01v6.683q2.054 1.196 2.834 3.354Q52.421 2.4 51.94 1.464 51.507.62 50.917.62zm5.356 10.468q.08 0 .154.138.13.247-.235.689-.208-.546-.052-.741.07-.086.133-.086zm-.036-.372q-.153 0-.33.237-.39.52.233 2.08.703-1.352.43-1.976-.15-.34-.333-.34zm-6.805 2.577v.39q.286-.026.442-.182-.052-.078-.208-.208zm-.598.884l-2.418.338-.494.884q.832-.234 1.833-.624t1.08-.598zm5.33-.364l-.468.234-.156 1.118.416 1.274h.65l-.442-1.274v-1.352zm-1.118.39l-.442.13-.156.832.416 1.274h.65l-.442-1.274-.026-.962zm-1.534.156l-.156.806.416 1.274h.65l-.442-1.274v-.78l-.468-.026zm.995-3.234q-.416 0-.89.1-1.405.3-1.769 1.418h-1.092l-.416-.676q-5.512 1.274-6.214 4.602 1.508-.832 3.172-1.118l.728-1.456 2.886-.39-.078-.702h.988q1.092.9 2.228.9.244 0 .49-.042 1.39-.234 1.82-.95.428-.714-.456-1.3-.585-.386-1.397-.386zM50.66 0q.948 0 1.488.658.663.806 1.235 4.238l.91 5.954q.442.468.676.52h.312q.026-.65.494-1.196.416-3.978-.364-6.968l.312-.598q1.119 3.38.547 7.592h.078q1.794-4.03.52-7.592l.312-.468q1.664 3.796-.364 8.242.572 1.248.117 2.054-.455.806-.56 1.508l-.182.13q-.702-1.04-.806-1.794h-.26q-.026.598-.338 1.248l-.182 1.638.442 1.274h2.263v.624h-6.527v-.624h.546l-.416-1.274-.026-.962q-.468-.156-.702-.364-.338.312-.754.312.026.26-.104.442-1.04.806-3.718 1.404l-.91 1.768q0-.434-.27-.434-.085 0-.198.044l.728-1.3q-1.508.338-2.288.858-.416.442.052 1.066-1.04-.442-1.17-1.248.416-3.926 7.046-5.46l.468.78h.416q.338-1.092 2.678-1.508-.522-.388-1.284-.388-.414 0-.9.115-.492.116-.96.116-.845 0-1.614-.376-1.196-.585-6.084-6.461.901-1.136 1.905-1.136.33 0 .67.122L50.21 7.08V.034Q50.446 0 50.66 0z"/><path d="M31.82.375c9.624 0 9.624 17.25 0 17.25" fill="none" stroke="#000"/><path d="M27.744 1.124q-2.015.293-2.106 1.842v11.177q.942-1.124 3.381-1.58l-1.275-11.44zM28.31 0l1.508 13.363q-3.361.385-4.181 2.4V18h-1.002V2.966q0-2.51 3.675-2.966zm-7.741 8.13q-.999 0-2.264 1.421-.978 1.088-2.648 1.088-.614 0-1.321-.146-2.643-.547-4.435-.577-.254-.006-.5-.006-1.475 0-2.638.208-1.357.233-2.44.942-1.083.718-2.065.718.198.012.393.012 1.301 0 2.472-.528.876-.392 2.888-.392 1.057 0 2.427.109 2.467.194 4.058.194.975 0 1.622-.073 1.7-.192 2.53-1.377.685-.976 1.066-.976.082 0 .15.045.394.263 1.042.273h.032q.62 0 .728-.395.02-.465-1.003-.536-.046-.004-.094-.004zm-1.455-2.365q.79 0 1.236 1.792.098-.012.201-.012.172 0 .355.032.628-1.61 1.408-1.61.273 0 .314.192.04.183-.112.385-.719.567-.962 1.185.74.364.74.941-.071.87-.962.962-.25.026-.465.026-.546 0-.852-.168-.119-.065-.23-.065-.288 0-.529.43-.344.607-1.306 1.306-.874.644-3.614.644-.274 0-.567-.006-3.26-.02-5.123-.173-.5-.043-.956-.043-1.257 0-2.193.327-.91.325-3.279.325-.947 0-2.127-.052-.05 0-.091-.202 0-.608 1.296-.608 1.772-.06 2.308-.506.537-.455 1.792-1.043 1.266-.597 3.746-.597t5.052.597q.798.183 1.459.183 1.47 0 2.267-.901 1.154-1.306 1.75-1.418 0-.425-.435-.931-.435-.496-.405-.75.02-.242.283-.242z"/><path d="M2.646 0L0 2.646v.708L3.177.177 3.354 0zm3 0L0 5.646v.708L6.177.177 6.354 0zm3 0L0 8.646v.708L9.177.177 9.354 0zm3 0L0 11.646v.708L12.177.177 12.354 0zm3 0L0 14.646v.708L15.177.177 15.354 0zm3 0L0 17.646V18h.354L18.177.177 18.354 0zm3 0L2.823 17.823 2.646 18h.708L21.177.177 21.354 0zm1.99 1.01L5.823 17.824 5.646 18h.708L22.636 1.718V1.01zm0 3L8.823 17.824 8.646 18h.708L22.636 4.718V4.01zm0 3L11.823 17.824l-.177.177h.708L22.636 7.718V7.01zm0 3l-7.813 7.813-.177.177h.708l7.282-7.282v-.707zm0 3l-4.813 4.813-.177.177h.708l4.282-4.282v-.707zm0 3l-1.813 1.813-.177.177h.708l1.282-1.282v-.707z"/></svg>