<svg xmlns="http://www.w3.org/2000/svg" width="87.721" height="18"><path d="M86.074 0c.335 0 .67.026.994.066.448.113.218.626-.18.626a.476.476 0 0 1-.081-.008c-.84.097-1.872.15-2.506.626-.841.916-.463 2.821-.561 3.725-.007.05-.01 3.653-.01 5.48a6.145 6.145 0 0 1 2.634-.586c.402 0 .802.04 1.188.117.441.231-.077.528-.423.528a.454.454 0 0 1-.114-.013c-1.226.133-2.62.461-3.243 1.602-.062.206-.023.277.07.277.207 0 .68-.342.947-.342.014 0 .027 0 .04.003a7.535 7.535 0 0 1 1.58-.169 6.8 6.8 0 0 1 1.149.095c.42.278-.096.534-.438.534a.532.532 0 0 1-.105-.01c-1.251.151-2.636.49-3.243 1.633-.007 1.27 0 2.11-.034 3.278.015.36-.219.538-.456.538-.235 0-.473-.176-.474-.526.009-1.15.09-2.161-.06-3.277-.305-1.253-2.478-1.445-3.827-1.754-.295-.347.285-.475.658-.475.056 0 .107.003.15.008.173-.013.347-.02.522-.02.882 0 1.771.175 2.557.58.032-.755-.711-1.19-1.244-1.493-.84-.361-1.766-.397-2.643-.59-.313-.273.18-.501.521-.501a.58.58 0 0 1 .125.012 7.01 7.01 0 0 1 .648-.031c.902 0 1.804.183 2.614.582-.016-2.851-.063-5.61.02-8.308.065-.834.545-1.6 1.354-1.849C84.783.094 85.43 0 86.073 0zM62.079 2.99q-.557 0-1.087.606 4.368 5.2 5.46 5.81.815.457 1.435.457.21 0 .399-.053.74-.208 1.586-.234h.042q.828 0 1.817.988h.13q-.702-1.638-1.963-2.34-1.261-.702-7.398-5.148-.212-.085-.421-.085zm7.73-2.369q-.065 0-.132.01v6.683q2.054 1.196 2.834 3.354-1.196-8.268-1.677-9.204Q70.4.62 69.81.62zm5.356 10.468q.081 0 .154.138.13.247-.234.689-.208-.546-.052-.741.069-.086.132-.086zm-.036-.372q-.153 0-.33.237-.39.52.234 2.08.702-1.352.429-1.976-.15-.34-.333-.34zm-6.804 2.577v.39q.286-.026.442-.182-.052-.078-.208-.208zm-.598.884l-2.419.338-.494.884q.832-.234 1.834-.624 1-.39 1.079-.598zm5.33-.364l-.468.234-.156 1.118.416 1.274h.65l-.442-1.274v-1.352zm-1.118.39l-.442.13-.156.832.416 1.274h.65l-.442-1.274-.026-.962zm-1.534.156l-.156.806.416 1.274h.65l-.442-1.274v-.78l-.468-.026zm.994-3.234q-.415 0-.89.1-1.404.3-1.768 1.418h-1.092l-.416-.676q-5.513 1.274-6.215 4.602 1.508-.832 3.172-1.118l.728-1.456 2.887-.39-.078-.702h.988q1.092.9 2.228.9.243 0 .489-.042 1.39-.234 1.82-.95.429-.714-.455-1.3-.585-.386-1.398-.386zM69.553 0q.948 0 1.489.658.663.806 1.235 4.238l.91 5.954q.442.468.676.52h.312q.026-.65.494-1.196.416-3.978-.364-6.968l.312-.598q1.118 3.38.546 7.592h.078q1.794-4.03.52-7.592l.312-.468q1.664 3.796-.364 8.242.572 1.248.117 2.054-.455.806-.56 1.508l-.181.13q-.702-1.04-.806-1.794h-.26q-.026.598-.338 1.248l-.182 1.638.442 1.274h2.262v.624h-6.526v-.624h.546l-.416-1.274-.026-.962q-.468-.156-.702-.364-.338.312-.754.312.026.26-.104.442-1.04.806-3.719 1.404l-.91 1.768q0-.434-.269-.434-.086 0-.199.044l.728-1.3q-1.508.338-2.288.858-.416.442.052 1.066-1.04-.442-1.17-1.248.416-3.926 7.047-5.46l.468.78h.416q.338-1.092 2.678-1.508-.523-.388-1.285-.388-.414 0-.9.115-.492.116-.96.116-.845 0-1.613-.376-1.197-.585-6.085-6.461.901-1.136 1.905-1.136.33 0 .67.122l6.318 4.524V.034Q69.339 0 69.553 0z"/><path d="M50.712.375c9.625 0 9.625 17.25 0 17.25" fill="none" stroke="#000"/><path d="M40.72.893v16.36h7.141v-.79H44.25V6.769h-2.222V.893zM42.794 0v6.042h2.222v9.778h3.695V18h-8.76V0zM31.915 6.426q-2.197 0-4.827 1.445l.648 1.042q1.437-.83 2.733-1.144.72-.167 1.414-.167.604 0 1.188.127.962.202 2.339 1.397l.85-.921q-1.906-1.779-4.345-1.779zm1.905 2.285q.081.142.152.294.183.435.183.931 0 .466-.183.88-.152.355-.384.649 1.65-.314 2.986-.446-.83-.516-1.306-1.123-.486-.608-1.448-1.185zm-3.938-.07q-.486.03-1.68.748-1.195.72-2.45 1.195.9.06 2.004.395 1.104.334 2.329.486-.203-.213-.385-.638-.192-.425-.192-.891 0-.496.182-.931.09-.193.192-.365zm1.942-.407q-.316 0-.605.113-.314.131-.547.344-.233.222-.375.516-.142.314-.152.658-.01.344.122.658.131.314.344.547.213.223.537.364.293.132.637.142h.05q.317 0 .609-.121.313-.122.536-.345.233-.212.365-.516.141-.304.162-.638 0-.354-.122-.658-.121-.304-.344-.547-.223-.232-.516-.374-.304-.132-.648-.142h-.053zm.191-2.428q2.939 0 5.187 2.318l-.02.02h.02l-1.296 1.438.152.152q.89.992 1.873 1.103l.02.628q-2.227.202-4.384.587-.799.142-1.674.142-1.497 0-3.216-.415-2.733-.669-3.472-.8H24v-.79h1.255q.73-.253 1.914-.921l-.942-1.62q3.169-1.842 5.788-1.842zM2.646 0L0 2.646v.708L3.177.177 3.354 0zm3 0L0 5.646v.708L6.177.177 6.354 0zm3 0L0 8.646v.708L9.177.177 9.354 0zM0 9.354zM11.646 0L0 11.646v.708L12.177.177 12.354 0zm3 0L0 14.646v.708L15.177.177 15.354 0zm3 0L0 17.646V18h.354L18.177.177 18.354 0zm3 0L2.823 17.823 2.646 18h.708L21.177.177 21.354 0zM22 1.646L5.823 17.823 5.646 18h.708L22 2.354v-.708zm0 3L8.823 17.823 8.646 18h.708L22 5.354v-.708zm0 3L11.823 17.823l-.177.177h.708L22 8.354v-.708zm0 3l-7.177 7.177-.177.177h.708L22 11.354v-.708zm0 3l-4.177 4.177-.177.177h.708L22 14.354v-.708zm0 3l-1.177 1.177-.177.177h.708l.646-.646v-.708z"/></svg>