<svg xmlns="http://www.w3.org/2000/svg" width="284.011" height="18"><path d="M263.646 0l-1.635 1.635v.707l2.166-2.165.177-.177zm3 0l-4.635 4.635v.707l5.166-5.165.177-.177zm3 0l-7.635 7.635v.707l8.166-8.165.177-.177zm3 0l-10.635 10.635v.707L273.177.177l.177-.177zm3 0l-13.635 13.635v.707L276.177.177l.177-.177zm3 0l-16.635 16.635v.707L279.177.177l.177-.177zm3 0l-17.823 17.823-.177.177h.708L282.177.177l.177-.177zm2.365.635l-17.188 17.188-.177.177h.708L284.01 1.342V.635zm0 3l-14.188 14.188-.177.177h.708L284.01 4.342v-.707zm0 3l-11.188 11.188-.177.177h.708L284.01 7.342v-.707zm0 3l-8.188 8.188-.177.177h.708l7.657-7.658v-.707zm0 3l-5.188 5.188-.177.177h.708l4.657-4.658v-.707zm0 3l-2.188 2.188-.177.177h.708l1.657-1.658v-.707zM284.646 0l-.635.635v.707l1.166-1.165.177-.177zm1.365 1.635l-2 2v.707l2-2v-.707zm0 3l-2 2v.707l2-2v-.707zm0 3l-2 2v.707l2-2v-.707zm0 3l-2 2v.707l2-2v-.707zm0 3l-2 2v.707l2-2v-.707zm0 3l-1.188 1.188-.177.177h.708l.657-.658v-.707zM239.646 0l-1.635 1.635v.707l2.166-2.165.177-.177zm3 0l-4.635 4.635v.707l5.166-5.165.177-.177zm3 0l-7.635 7.635v.707l8.166-8.165.177-.177zm3 0l-10.635 10.635v.707L249.177.177l.177-.177zm3 0l-13.635 13.635v.707L252.177.177l.177-.177zm3 0l-16.635 16.635v.707L255.177.177l.177-.177zm3 0l-17.823 17.823-.177.177h.708L258.177.177l.177-.177zm2.365.635l-17.188 17.188-.177.177h.708L260.01 1.342V.635zm0 3l-14.188 14.188-.177.177h.708L260.01 4.342v-.707zm0 3l-11.188 11.188-.177.177h.708L260.01 7.342v-.707zm0 3l-8.188 8.188-.177.177h.708l7.657-7.658v-.707zm0 3l-5.188 5.188-.177.177h.708l4.657-4.658v-.707zm0 3l-2.188 2.188-.177.177h.708l1.657-1.658v-.707zM260.646 0l-.635.635v.707l1.166-1.165.177-.177zm1.365 1.635l-2 2v.707l2-2v-.707zm0 3l-2 2v.707l2-2v-.707zm0 3l-2 2v.707l2-2v-.707zm0 3l-2 2v.707l2-2v-.707zm0 3l-2 2v.707l2-2v-.707zm0 3l-1.188 1.188-.177.177h.708l.657-.658v-.707zM215.646 0l-1.635 1.635v.707l2.166-2.165.177-.177zm3 0l-4.635 4.635v.707l5.166-5.165.177-.177zm3 0l-7.635 7.635v.707l8.166-8.165.177-.177zm3 0l-10.635 10.635v.707L225.177.177l.177-.177zm3 0l-13.635 13.635v.707L228.177.177l.177-.177zm3 0l-16.635 16.635v.707L231.177.177l.177-.177zm3 0l-17.823 17.823-.177.177h.708L234.177.177l.177-.177zm2.365.635l-17.188 17.188-.177.177h.708L236.01 1.342V.635zm0 3l-14.188 14.188-.177.177h.708L236.01 4.342v-.707zm0 3l-11.188 11.188-.177.177h.708L236.01 7.342v-.707zm0 3l-8.188 8.188-.177.177h.708l7.657-7.658v-.707zm0 3l-5.188 5.188-.177.177h.708l4.657-4.658v-.707zm0 3l-2.188 2.188-.177.177h.708l1.657-1.658v-.707z"/><path d="M236.646 0l-.635.635v.707l1.166-1.165.177-.177zm1.365 1.635l-2 2v.707l2-2v-.707zm0 3l-2 2v.707l2-2v-.707zm0 3l-2 2v.707l2-2v-.707zm0 3l-2 2v.707l2-2v-.707zm0 3l-2 2v.707l2-2v-.707zm0 3l-1.188 1.188-.177.177h.708l.657-.658v-.707zm-28.385-4.852c-.534.205-1.117.861-1.287 1.402-.17.54-.15 1.171-.03 1.792.12.61.36 1.191.65 1.571.201.26.381.41.551.46h.16c.17-.04.391-.19.611-.46.29-.38.53-.96.651-1.571.12-.621.14-1.252-.03-1.792-.17-.541-.808-1.243-1.276-1.395v-.007zM210.19 0v1.201h1.081v.771h-1.08l.15 9.09c.77.4 1.25 1.081 1.481 1.812.23.751.24 1.562.09 2.313-.15.75-.45 1.411-.86 1.942-.311.4-.722.73-1.202.831v.03c-.03.01-.06.01-.09.01-.04 0-.08-.01-.12-.01-.05.01-.1.01-.14.01-.04 0-.07 0-.11-.01v-.03c-.481-.1-.892-.43-1.202-.831a4.654 4.654 0 0 1-.861-1.942c-.15-.751-.14-1.562.09-2.313a2.97 2.97 0 0 1 1.482-1.782l.15-9.12h-1.021l-.03-.77h1.141V0h1.051zm-4.96 5.34v7.32h-1.225V5.34zm-5.3-4.216q-2.015.293-2.106 1.842v11.177q.941-1.124 3.381-1.58l-1.276-11.44zM200.495 0l1.509 13.363q-3.361.385-4.181 2.4V18h-1.003V2.966q0-2.51 3.675-2.966zm-7.749 1.124q-2.015.293-2.106 1.842v11.177q.942-1.124 3.382-1.58l-1.276-11.44zM193.313 0l1.508 13.363q-3.36.385-4.18 2.4V18h-1.003V2.966q0-2.51 3.675-2.966zm-14.821.601c-1.074 0-2.418.552-3.069 1.202-.569.57-.643 1.324-.664 2.025h7.435c-.021-.7-.095-1.455-.665-2.025-.65-.65-1.963-1.202-3.037-1.202zm0-.601c1.274 0 2.645.589 3.449 1.392.824.824.917 1.91.917 2.72v.317h-8.732v-.316c0-.812.062-1.897.886-2.72.803-.804 2.206-1.393 3.48-1.393zm-.114 14.915c-.297 0-.476.05-.568.103-.27.172-.14.583-.097.84h1.33c.032-.263.177-.663-.098-.84-.093-.052-.27-.103-.567-.103zm7.389 1.552v.924h1.262v-.924zm-6.556 0v.924h6.252v-.924zm-1.52 0v.924h1.217v-.924zm-6.104 0v.924h5.8v-.924zm-1.632 0v.924h1.328v-.924zm11.093-2.476l.43.431-1.44 1.436h7.6V18h-18.292v-2.142h7.37l-1.44-1.436.431-.43 1.33 1.326c.08-.804.632-.989 1.34-1.012.758.02 1.223.192 1.34 1.012l1.331-1.327zM158.524 7.53q-3.108 0-6.59 1.501 3.482 1.46 6.59 1.46 3.087 0 6.59-1.46-3.503-1.501-6.59-1.501zm0-.96q3.837 0 8.822 2.44-4.985 2.42-8.822 2.42-3.838 0-8.823-2.42 4.964-2.44 8.823-2.44zM144.692.474c-.693 0-1.247.2-1.635.479-.006.053-.02.107-.008.16.049.248.195.477.395.63.316.207.697.267 1.057.356.09.01.02.031-.03.04-.23.04-.708.099-.972.099l-.052-.001a1.627 1.627 0 0 1-.765-.311 1.113 1.113 0 0 1-.205-.236 4.199 4.199 0 0 0-.26.917.293.293 0 0 1-.203.233c-1.138.349-2.038 1.91-2.879 2.949-1.73 2.137-3.2 4.526-4.892 6.76.936-.456 1.87-.916 2.809-1.374 1.921-1.01 3.921-1.816 5.604-3.09l.009-.008c.97-.808 1.962-1.66 2.338-2.793.149-.92-1.757-2.577-1.542-2.646a.207.207 0 0 1 .064-.01c.459 0 1.754 1.128 2.02 2.202.002-.014.01-.03.013-.045.073-.356.155-1.256-.067-1.98a.29.29 0 0 1-.011-.103c.015-.29.06-.464.123-.634.063-.17.14-.344.26-.765.032-.108.142-.328.208-.345-.186-.138-.374-.28-.645-.375a.434.434 0 0 1 .132.314c0 .23-.163.415-.364.415-.201 0-.365-.186-.365-.415V.894a.411.411 0 0 1 .255-.39c-.052-.007-.095-.019-.154-.022a3.718 3.718 0 0 0-.238-.008zm-.67 7.763c-.065.065-.135.124-.202.187-.214.78-.412 1.64-.693 2.305-.483 1.145-1.215 2.141-1.839 3.154.153.082.285.175.384.27.082.076.135.128.2.193a2.61 2.61 0 0 1 1.185-.897c-.045-.723.108-1.712.34-2.787.178-.831.4-1.659.625-2.425zm-1.007.908c-1.148.945-2.427 1.738-3.675 2.54.018.91.017 1.778-.084 2.675a3.411 3.411 0 0 1 1.437-.736c.02 0 .037.012.057.012.648-1.063 1.383-2.06 1.836-3.134.156-.37.293-.85.43-1.357zm-.406 5.254a2.5 2.5 0 0 0-.44.541.3.3 0 0 1-.258.14.288.288 0 0 1-.169-.053c-.216-.156-.347-.324-.476-.446a1.332 1.332 0 0 0-.149-.117l-.148 2.722c.213-.014.434-.035.637-.035.264 0 .495.036.633.172.168-.134.497-.164.89-.164.101 0 .207.002.315.004l-.835-2.764zm-1.158-4.825c-1.354.787-2.784 1.414-4.136 2.125a.244.244 0 0 1-.005.003c-1.295.631-2.587 1.28-3.894 1.904-.984 1.189-2.052 2.295-3.079 3.42l2.15.362c1.422-1.546 2.846-3.089 4.268-4.635a.288.288 0 0 1 .036-.036c1.5-1.137 3.153-2.082 4.66-3.143zM144.626 0a7.1 7.1 0 0 1 .41.013c1.086.07 1.874.526 2.143 1.144.04.093.145.314.007.314a2.35 2.35 0 0 0-.341-.028c-.418 0-.38.172-.47.194-.091.282-.29.846-.304 1.068.244.86.154 1.763.065 2.198-.15.732-.63 1.584-1.262 2.38a.285.285 0 0 1 0 .166 35.3 35.3 0 0 0-.903 3.336c-.25 1.168-.392 2.277-.316 2.823a.294.294 0 0 1-.222.328c-.044.011-.084.031-.126.045l.928 3.079a2.8 2.8 0 0 1 .592-.055c.382 0 .756.05 1.064.05.126 0 .24-.008.34-.032a.546.546 0 0 1 .125-.012c.436 0 1.429.306 1.341.879-.151-.128-.258-.159-.376-.159-.11 0-.23.027-.404.027h-.027c-.255-.004-.698-.083-1.054-.083-.18 0-.337.02-.438.08a16.14 16.14 0 0 0-.648-.013c-.85 0-1.447.07-2.5.075a89.565 89.565 0 0 1-2.975-.079c-.45.003-.696.054-.922.054h-.04c-.133-.004-.264-.057-.48-.057a1.76 1.76 0 0 0-.467.07c.25-.341.876-.685 1.33-.685.114 0 .218.022.302.071.16-.016.331-.022.508-.022.219 0 .447.01.678.02l.157-2.83c-.487.203-.857.517-1.282 1.021a.295.295 0 0 1-.513-.246c.193-1.039.214-2.019.202-3.06-.54.354-1.071.713-1.576 1.094-1.452 1.58-2.907 3.159-4.36 4.738a.29.29 0 0 1-.263.09c-.95-.159-1.9-.315-2.848-.474a.294.294 0 0 1-.23-.193.298.298 0 0 1 .059-.297c.742-.83 1.508-1.631 2.251-2.445-1.27.78-2.876 1.755-3.08 1.755-.023 0-.028-.013-.012-.04.094-.163.9-.755 1.774-1.373-.139.058-.275.12-.415.177-.005.003-.011.008-.017.01-.103.035-.16.059-.269.062a.286.286 0 0 1-.109-.016.317.317 0 0 1-.188-.152.32.32 0 0 1-.022-.238c.016-.05.038-.077.053-.098.061-.085.103-.109.163-.154.06-.046.128-.097.204-.149.153-.105.337-.223.494-.328.157-.105.3-.207.328-.233a.307.307 0 0 1 .028-.025l3.891-2.736c.009-.006.02-.001.028-.006 1.334-1.869 2.588-3.825 4.046-5.627.744-.92 1.599-2.528 2.986-3.064.067-.396.218-1.127.754-1.649.456-.443 1.116-.647 1.856-.692.116-.008.233-.011.352-.011zm-11.198.239a.848.848 0 0 0-.277.043c.012.09.067.228.38.31-.29-.022-.482-.046-.58-.123a.966.966 0 0 0-.063.222.119.119 0 0 1-.083.095c-.25.076-.47.445-.68.705-.38.47-.708.992-1.075 1.493l.508-.249c.473-.248.958-.444 1.363-.75.235-.196.468-.399.556-.657.03-.199-.119-.429-.307-.511a.119.119 0 1 1 .095-.218.78.78 0 0 1 .362.327.794.794 0 0 0-.03-.18.119.119 0 0 1-.005-.041.549.549 0 0 1 .033-.169c.016-.044.034-.083.063-.184a.119.119 0 0 1 .041-.06.618.618 0 0 0-.21-.05l-.05-.003a.103.103 0 1 1-.041 0zm-.478 2.172c-.242.187-.501.35-.755.512a4.96 4.96 0 0 1-.019.53.886.886 0 0 1 .279-.121c.156-.254.328-.488.433-.737.022-.051.042-.116.062-.184zm.1.4c-.11.22-.249.417-.372.612a.498.498 0 0 1 .062.049l.011.01a.685.685 0 0 1 .245-.181 2.52 2.52 0 0 1 .054-.49zm-1.153.02a10.369 10.369 0 0 0-.235.118c-.312.153-.624.309-.94.46-.222.268-.462.517-.693.768l.417.07 1.025-1.115a7.659 7.659 0 0 1 .426-.302zm1.037.803a.617.617 0 0 0-.064.089.12.12 0 0 1-.172.035c-.05-.037-.08-.071-.106-.098l-.031.565c.04-.002.08-.005.118-.005.067 0 .126.009.16.043.04-.03.111-.04.201-.04l.072.002-.178-.591zm2.168.4c-.181.024-.275.129-.282.313h.558c0-.184-.092-.289-.276-.314zm-3.145-.956c-.11.072-.216.146-.319.224l-.96 1.045h.982a.486.486 0 0 1 .31-.146c.03 0 .056.005.077.018.032-.003.067-.004.102-.004.056 0 .114.003.174.006l.033-.602a.807.807 0 0 0-.25.217.119.119 0 0 1-.208-.098 4.05 4.05 0 0 0 .06-.66zm2.496 1.497l.107.186h.5l.1-.186zm-1.806 0V5.58l.69-1.005zM133.425 0a1.551 1.551 0 0 1 .109.004c.277.018.486.13.563.307a.12.12 0 0 1-.137.163l-.01-.002-.011.003-.044.011c-.021.068-.038.108-.047.133a.217.217 0 0 0-.017.08c.061.221.037.443.014.556-.038.186-.153.39-.304.584a.128.128 0 0 1-.006.043 8.593 8.593 0 0 0-.219.81c-.06.284-.093.556-.077.674a.119.119 0 0 1-.09.132l-.007.003.211.7a.715.715 0 0 1 .104-.008c.102 0 .204.017.285.017a.346.346 0 0 0 .073-.007.126.126 0 0 1 .027-.002c.085 0 .263.051.315.146h.44c.025-.319.193-.494.505-.526.315.032.478.207.488.526v.228h-.212l-.218.404h-.707l-.212-.404h-.627l-.962 1.398V7.2h-.228V4.575h-1.807v-.163l-.04.043a.119.119 0 0 1-.107.037l-.696-.117a.119.119 0 0 1-.069-.196c.087-.097.175-.193.263-.287l-.663.431a.118.118 0 0 1-.164-.035.119.119 0 0 1 .034-.164l.538-.35a.117.117 0 0 1-.03-.037.126.126 0 0 1-.008-.094.094.094 0 0 1 .019-.037c.022-.03.034-.036.05-.048.015-.012.033-.024.052-.037.038-.027.082-.055.12-.08a1.662 1.662 0 0 0 .087-.063l.951-.669.003-.002c.322-.452.627-.926.983-1.365.173-.214.375-.61.725-.758a.732.732 0 0 1 .193-.399c.141-.137.346-.185.567-.185zm-10.118 6.817v2.122l2.522-2.122zm2.973.31l-2.593 2.123h2.593V7.127zm-2.973 2.503v2.473l2.573-2.473zm2.973.36l-2.633 2.453h2.633V9.991zM124.201 0c.135 0 .27.01.407.029.52.067 1.048.143 1.582.23l-.16.871a114.79 114.79 0 0 0-1.422-.21 2.338 2.338 0 0 0-.332-.026c-.658 0-.981.353-.97 1.057v4.065l3.354-4.035c0 1.529-.477 2.603-1.431 3.224-.955.614-1.505 1.011-1.652 1.191h3.083v6.448h-3.033l3.053 3.074-.53.54-2.843-2.923V18h-.982V1.981c0-.968.25-1.552.751-1.752A2.92 2.92 0 0 1 124.201 0zm-6.198 0q2.322 0 2.322 2.232V18h-1.07V2.232q0-1.16-1.252-1.16-1.262 0-1.262 1.16v10.492h-1.07V2.232Q115.67 0 118.002 0zM104.86 0l.363.211q1.874 2.297 3.007 3.928.77.423 1.117.672.348.25 1.043.37.876.06.876.287v.212q.01.06-.604.06-.308 0-.77-.015-.494-.13-.827-.13-.166 0-.292.032-.377.098-.619.098t-.385-.128q-.144-.129-.22-.793 0-.181-1.253-1.413-1.254-1.23-1.435-1.865 0-.166-.468-.423-.167 0-.756.65-1.148 1.39-1.563 1.978-.416.59-.114.763.303.174.605.468.274.268.573.268.03 0 .061-.003.665.105.665.347v.151h-1.556q-.433-.231-.762-.231-.165 0-.303.058-.416.173-.642.173-.348-.045-.348-.287 0-.257.242-.589.378-.604.952-2.122.574-1.519 1.918-2.198.786-.529 1.209-.529zm6.57 11.733c.087 0 .174.008.261.016 1.258.135 2.153 1.409 1.955 2.643-.087.918-.657 1.432-1.282 1.938-1.86 1.14-1.337.72-3.213 1.67l-.3-.562c2.231-1.044 2.5-1.21 3.196-1.67.57-.458 1.021-.965.982-1.732.015-.53-.301-1.076-.657-1.337a1.708 1.708 0 0 0-1.005-.34c-.27 0-.522.063-.744.221-.562.277-.87 1.195-.459 1.772.19.277.53.467.87.467a.805.805 0 0 0 .475-.15c.285-.158.499-.712.206-1.02.135-.143.324-.317.467-.317.095 0 .166.07.214.237.316.76-.19 1.622-.95 1.828a1.43 1.43 0 0 1-.403.063c-.87 0-1.678-.728-1.678-1.63-.08-1.052.76-2.018 1.812-2.08a2.27 2.27 0 0 1 .253-.017zm-9.308-3.301q.152 0 .2.049.043.048.116.048v.055l-.085.012q-.094.095-.251.095-.116 0-.266-.052l-.152.043-.013-.11.134-.012q.195-.11.317-.128zm-.797-.974q-.281 0-.652.085-.627.14-.633.792-.006.645.365.943.197.164.358.164.139 0 .251-.121.11-.11.043-.177-.177-.055-.165-.274-.188-.231-.188-.395-.012-.287.263-.287h.023q.121.013.207.08.538-.357.948-.357.044 0 .086.004-.176-.31-.553-.414-.154-.043-.353-.043zm-1.71 4.09q-.238.487-.932 1.418.262-.176 1.284-.37l-.353-1.048zm2.523-3.43q-.384 0-.82.332l.043.122q-.051.03-.1.03-.02 0-.04-.006-.097-.255-.22-.255l-.027-.002q-.117 0-.106.148 0 .152.164.34 0 .17.082.17.013 0 .028-.005.11-.024.091-.122.073.274-.128.694l-.298.651q-.103.226-.329.238-.225.012-.517.067-.292.054-.158.395.134.341.56 1.528l.286-.134q.298-.602 1.035-1.022.14.133-.055.353l.219.48q.043.286-.22.45-.364.165-.803.165l-.383.31.11 2.01 1.095.243q.858-2.745 1.023-2.983.164-.237.09-1.357.031-.384-.626-.384-.682 0-.627-.31l.085-.25q.067-.23.055-.286.054-.014.125-.014.106 0 .252.033.138.012.238.012.2 0 .25-.049.072-.073.048-.2l-.195-.068q-.067-.036-.024-.121l.274-.025q-.098-.207.024-.274l.035.002q.13 0 .13-.087-.043-.079-.17-.292-.129-.213-.311-.274-.082-.026-.163-.026-.105 0-.209.044-.182.073-.347.116l-.03-.073q.152-.037.317-.122.158-.082.295-.082.137 0 .252.082-.03-.11-.085-.164-.105-.027-.215-.027zm2.358 5.75l-2.24 1.551 2.501.755q-.085-1.735.232-2.307zm-4 1.46q-.255.98.305 1.704.502.3 1.13.3.43 0 .921-.142.503-.147.985-.147.672 0 1.304.287-.11-.383-1.79-1.253l-2.854-.749zm.741-8.15q.195 0 .392.03.682.08.998.938.043.231.207.432.164.195.213.432 0 .134-.17.14-.17.006-.043.116.055.012.043.055-.007.042-.043.054.08.086 0 .116-.085.037-.06.122.017.091-.031.225-.049.14-.487.14l-.378-.055q.025.091-.03.22 1.096.011 1.363.474.92.767 1.747 1.625.164-.34.749-.931.578-.584.675-.858.201-.597.859-1.132.146.11 0 .353l.273.438q.08.286-.152.48-.353.214-.724.451-1.023 1.814-1.497 1.96-.027.004-.055.004-.361 0-1.083-.643-.716-.626-.85-.626-.046 0-.02.078 0 .396-.165.676-.164.28-.804 2.544l1.99-1.485q.451-.408.792-.408.956.012.846.791l-.34 2.429q.723.176.669 1.09.328.066.602.188.221.095.447.095.047 0 .095-.004h.032q.248 0 .351.268h-9.671q.247-.484.669-.484.088 0 .183.021.092.02.174.02.407 0 .569-.5.12-.38.346-.38.129 0 .293.124-.439-.846-.025-1.777-.018-1.01-.085-1.802-1.43.45-1.893.45-.359-.036-.359-.31.317-1.23 1.46-2.745.232-.463 1.188-.505.164-.22.176-.384-.395-.09-.663-.413-.274-.323-.268-1.047.006-.719.627-.938.43-.151.868-.151zM95.85.22v5.122h-.976V.22h.975m0 6.585v4.878h-.975V6.805h.975m0 6.097v4.878h-.975v-4.878h.975zM91.44 7.458v1.656c.565 0 .848-.283.848-.848 0-.539-.283-.808-.848-.808zM89.345 0c.463 0 .855.116 1.176.35.613.443.919 1.09.919 1.938v4.584c.942 0 1.42.465 1.434 1.394 0 .942-.478 1.413-1.434 1.413V18h-.747V2.732c0-1.023-.198-1.68-.595-1.969-.206-.15-.476-.225-.839-.225-.337 0-.754.065-1.273.195a.65.65 0 0 1-.212.043c-.111 0-.188-.048-.232-.144-.013-.162.108-.276.364-.343C88.444.096 88.924 0 89.345 0zm-8.121 14.214c-1.062 0-2.392.546-3.035 1.189-.563.563-.636 1.31-.657 2.003h7.353c-.02-.694-.094-1.44-.657-2.003-.643-.643-1.942-1.189-3.004-1.189zm0-.594c1.26 0 2.616.582 3.41 1.376.816.815.908 1.888.908 2.691V18h-8.636v-.313c0-.803.061-1.876.876-2.69.795-.795 2.182-1.377 3.442-1.377zM73.131.732q-.209.794-.773 1.421l.48.314q.502-.48.774-1.464l-.48-.271zm.962.585q-.272.962-1.213 1.923l-.752-.564q-.502.606-1.464 1.652v13.024h1.38V4.997q2.739-2.321 2.049-3.68zM72.86 0q1.568.23 2.007 1.516.439 1.285-2.196 3.836V18h-2.634V3.93Q71.982 2.132 72.86 0zm-6.598.732q-.209.794-.773 1.421l.48.314q.502-.48.774-1.464l-.48-.271zm.962.585q-.272.962-1.212 1.923l-.753-.564q-.502.606-1.464 1.652v13.024h1.38V4.997q2.739-2.321 2.05-3.68zM65.991 0q1.568.23 2.007 1.516.439 1.285-2.196 3.836V18h-2.634V3.93Q65.113 2.132 65.991 0z"/><path d="M74.646 0l-.29.291v.707l.82-.821.178-.177zm3 0l-3.29 3.291v.707l3.82-3.821.178-.177zm3 0l-6.29 6.291v.707l6.82-6.821.178-.177zM63.168 9v.185L63.354 9zm2.478 0l-2.478 2.478v.707L66.354 9zm3 0l-5.478 5.478v.707L69.354 9zm3 0l-8.478 8.478V18h.186l9-9zm12-9L65.823 17.823l-.177.177h.708L84.177.177 84.354 0zm1.896 1.104l-16.719 16.72-.177.176h.708L85.542 1.811v-.707zm0 3l-13.719 13.72-.177.176h.708L85.542 4.811v-.707zm0 3l-10.719 10.72-.177.176h.708L85.542 7.811v-.707zm0 3l-7.719 7.72-.177.176h.708l7.188-7.189v-.707zm0 3l-4.719 4.72-.177.176h.708l4.188-4.189v-.707zm0 3l-1.719 1.72-.177.176h.708l1.188-1.189v-.707zM57.897.809q-.832 0-1.324.312l1.424.93-1.405.95q.57.398 1.557.398 2.108-.095 2.108-1.33 0-1.081-2.089-1.252-.14-.008-.27-.008zM57.6 15.873q-1.272 0-1.52 1.462h3.058q-.285-1.462-1.538-1.462zM57.99 0h.055q1.452.02 2.269.475.816.456.854 1.576-.038 1.14-.845 1.595-.807.456-2.269.55V14.64l1.69-1.595.532.532-1.88 1.728q1.52.74 1.52 2.696H55.3q-.019-1.956 1.5-2.696l-1.88-1.747.532-.55 1.69 1.651V4.196q-.55-.094-1.937-1.063l1.386-1.082L55.206.969Q56.566 0 57.99 0zm-8.34.809q-.831 0-1.323.312l1.424.93-1.405.95q.57.398 1.557.398 2.107-.095 2.107-1.33 0-1.081-2.088-1.252-.14-.008-.271-.008zm-.298 15.064q-1.272 0-1.519 1.462h3.057q-.285-1.462-1.538-1.462zM49.743 0h.055q1.453.02 2.27.475.816.456.854 1.576-.038 1.14-.845 1.595-.807.456-2.27.55V14.64l1.69-1.595.532.532-1.88 1.728q1.52.74 1.52 2.696h-4.614q-.02-1.956 1.5-2.696l-1.88-1.747.532-.55 1.69 1.651V4.196q-.551-.094-1.937-1.063l1.386-1.082L46.96.969Q48.32 0 49.743 0zm-8.339.809q-.832 0-1.324.312l1.424.93L40.1 3q.57.398 1.557.398 2.108-.095 2.108-1.33 0-1.081-2.089-1.252-.14-.008-.271-.008zm-.299 15.064q-1.272 0-1.519 1.462h3.057q-.285-1.462-1.538-1.462zM41.497 0h.055q1.452.02 2.268.475.817.456.855 1.576-.038 1.14-.845 1.595-.807.456-2.269.55V14.64l1.69-1.595.532.532-1.88 1.728q1.519.74 1.519 2.696h-4.614q-.02-1.956 1.5-2.696l-1.88-1.747.532-.55 1.69 1.651V4.196q-.551-.094-1.937-1.063l1.386-1.082L38.713.969Q40.073 0 41.497 0zm-7.864 3.644c.401 0 .823.084 1.267.253.922.351 1.432 1.215 1.528 2.592-.041 1.308-.571 2.54-1.59 3.696-.812 1.005-1.314 1.659-1.507 1.962-.51.757-.812 1.493-.909 2.21h-.888c.138-1.02.544-2.01 1.219-2.974a47.457 47.457 0 0 1 1.9-2.354c.715-1.143.994-2.151.836-3.026-.159-.874-.64-1.355-1.446-1.445a3.552 3.552 0 0 0-.391-.023c-.598 0-1.025.18-1.281.54-.31.433-.376.922-.197 1.465.152.462.439.693.859.693.074 0 .153-.007.236-.022.55-.096.764-.433.64-1.011l.454-.868c.358.386.52.792.486 1.219-.035.426-.224.805-.568 1.135-.3.289-.688.433-1.16.433a2.53 2.53 0 0 1-.214-.01c-.57-.047-1.011-.292-1.321-.732-.31-.44-.434-1.03-.372-1.766s.461-1.294 1.198-1.672c.382-.197.79-.295 1.221-.295zm-7.2 0c.401 0 .824.084 1.267.253.923.351 1.432 1.215 1.528 2.592-.04 1.308-.57 2.54-1.59 3.696-.812 1.005-1.314 1.659-1.507 1.962-.51.757-.812 1.493-.909 2.21h-.887c.137-1.02.543-2.01 1.218-2.974a47.457 47.457 0 0 1 1.9-2.354c.715-1.143.994-2.151.836-3.026-.158-.874-.64-1.355-1.446-1.445a3.552 3.552 0 0 0-.391-.023c-.597 0-1.024.18-1.281.54-.31.433-.375.922-.196 1.465.152.462.438.693.858.693.075 0 .153-.007.236-.022.55-.096.764-.433.64-1.011l.455-.868c.357.386.52.792.485 1.219-.035.426-.224.805-.568 1.135-.3.289-.687.433-1.16.433a2.53 2.53 0 0 1-.213-.01c-.572-.047-1.012-.292-1.322-.732-.31-.44-.433-1.03-.371-1.766.061-.736.46-1.294 1.197-1.672a2.63 2.63 0 0 1 1.222-.295zM0 0v.354L.177.177.354 0zm2.646 0L0 2.646v.708L3.177.177 3.354 0zm3 0L0 5.646v.708L6.177.177 6.354 0zm3 0L0 8.646v.708L9.177.177 9.354 0zm3 0L0 11.646v.708L12.177.177 12.354 0zm3 0L0 14.646v.708L15.177.177 15.354 0zm3 0L0 17.646V18h.354L18.177.177 18.354 0zm3 0L2.823 17.823 2.646 18h.708L21.177.177 21.354 0zM22 1.646L5.823 17.823 5.646 18h.708L22 2.354v-.708zm0 3L8.823 17.823 8.646 18h.708L22 5.354v-.708zm0 3L11.823 17.823l-.177.177h.708L22 8.354v-.708zm0 3l-7.177 7.177-.177.177h.708L22 11.354v-.708zm0 3l-4.177 4.177-.177.177h.708L22 14.354v-.708zm0 3l-1.177 1.177-.177.177h.708l.646-.646v-.708z"/></svg>