<svg xmlns="http://www.w3.org/2000/svg" width="182.24" height="18"><path d="M180.593 0c.336 0 .67.026.995.066.447.113.217.626-.18.626a.476.476 0 0 1-.082-.008c-.839.097-1.872.15-2.506.626-.84.916-.463 2.821-.56 3.725-.008.05-.01 3.653-.01 5.48a6.145 6.145 0 0 1 2.634-.586c.402 0 .801.04 1.188.117.44.231-.077.528-.423.528a.454.454 0 0 1-.114-.013c-1.226.133-2.62.461-3.243 1.602-.062.206-.023.277.07.277.207 0 .68-.342.947-.342.014 0 .027 0 .04.003a7.535 7.535 0 0 1 1.58-.169c.39 0 .776.031 1.149.095.42.278-.096.534-.438.534a.532.532 0 0 1-.105-.01c-1.252.151-2.637.49-3.243 1.633-.007 1.27 0 2.11-.034 3.278.015.36-.219.538-.456.538-.235 0-.473-.176-.474-.526.008-1.15.09-2.161-.06-3.277-.305-1.253-2.478-1.445-3.827-1.754-.295-.347.285-.475.658-.475.056 0 .107.003.15.008.173-.013.347-.02.522-.02.882 0 1.77.175 2.557.58.032-.755-.712-1.19-1.244-1.493-.84-.361-1.766-.397-2.643-.59-.314-.273.18-.501.52-.501a.58.58 0 0 1 .126.012c.215-.02.431-.031.648-.031.902 0 1.804.183 2.614.582-.017-2.851-.063-5.61.019-8.308.066-.834.546-1.6 1.354-1.849.58-.264 1.227-.358 1.871-.358zm-23.994 2.99q-.557 0-1.087.606 4.368 5.2 5.46 5.81.815.457 1.434.457.211 0 .4-.053.74-.208 1.585-.234h.043q.828 0 1.816.988h.13q-.702-1.638-1.963-2.34-1.26-.702-7.397-5.148-.213-.085-.421-.085zm7.73-2.369q-.065 0-.133.01v6.683q2.054 1.196 2.834 3.354-1.196-8.268-1.677-9.204Q164.92.62 164.33.62zm5.356 10.468q.08 0 .154.138.13.247-.234.689-.209-.546-.052-.741.068-.086.132-.086zm-.036-.372q-.153 0-.33.237-.39.52.234 2.08.702-1.352.429-1.976-.15-.34-.333-.34zm-6.805 2.577v.39q.286-.026.442-.182-.052-.078-.208-.208zm-.598.884l-2.418.338-.494.884q.832-.234 1.833-.624t1.08-.598zm5.33-.364l-.468.234-.156 1.118.416 1.274h.65l-.442-1.274v-1.352zm-1.118.39l-.442.13-.156.832.416 1.274h.65l-.442-1.274-.026-.962zm-1.534.156l-.156.806.416 1.274h.65l-.442-1.274v-.78l-.468-.026zm.995-3.234q-.416 0-.89.1-1.405.3-1.769 1.418h-1.092l-.416-.676q-5.512 1.274-6.214 4.602 1.508-.832 3.172-1.118l.728-1.456 2.886-.39-.078-.702h.988q1.092.9 2.228.9.244 0 .49-.042 1.39-.234 1.82-.95.428-.714-.456-1.3-.585-.386-1.397-.386zM164.073 0q.948 0 1.488.658.663.806 1.235 4.238l.91 5.954q.442.468.676.52h.312q.026-.65.494-1.196.417-3.978-.364-6.968l.312-.598q1.119 3.38.547 7.592h.078q1.794-4.03.52-7.592l.312-.468q1.664 3.796-.364 8.242.572 1.248.117 2.054-.455.806-.56 1.508l-.181.13q-.703-1.04-.807-1.794h-.26q-.026.598-.338 1.248l-.182 1.638.442 1.274h2.263v.624h-6.527v-.624h.546l-.416-1.274-.026-.962q-.468-.156-.702-.364-.338.312-.754.312.026.26-.104.442-1.04.806-3.718 1.404l-.91 1.768q0-.434-.27-.434-.085 0-.198.044l.728-1.3q-1.508.338-2.288.858-.416.442.052 1.066-1.04-.442-1.17-1.248.416-3.926 7.046-5.46l.468.78h.416q.338-1.092 2.678-1.508-.522-.388-1.284-.388-.414 0-.9.115-.492.116-.96.116-.845 0-1.614-.376-1.196-.585-6.084-6.461.901-1.136 1.905-1.136.33 0 .67.122l6.317 4.524V.034q.235-.034.449-.034z"/><path d="M145.232.375c9.625 0 9.625 17.25 0 17.25" fill="none" stroke="#000"/><path d="M122.646 0l-1.414 1.414v.707l1.945-1.944.177-.177zm3 0l-4.414 4.414v.707l4.945-4.944.177-.177zm3 0l-7.414 7.414v.707l7.945-7.944.177-.177zm3 0l-10.414 10.414v.707L132.177.177l.177-.177zm3 0l-13.414 13.414v.707L135.177.177l.177-.177zm3 0l-16.414 16.414v.707L138.177.177l.177-.177zm3 0l-17.823 17.823-.177.177h.708L141.177.177l.177-.177zm2.586.414l-17.409 17.41-.177.176h.708l16.878-16.879V.414zm0 3l-14.409 14.41-.177.176h.708l13.878-13.879v-.707zm0 3l-11.409 11.41-.177.176h.708l10.878-10.879v-.707zm0 3l-8.409 8.41-.177.176h.708l7.878-7.879v-.707zm0 3l-5.409 5.41-.177.176h.708l4.878-4.879v-.707zm0 3l-2.409 2.41-.177.176h.708l1.878-1.879v-.707z"/><path d="M143.646 0l-.414.414v.707l.945-.944.177-.177zm1.586 1.414l-2 2v.707l2-2v-.707zm0 3l-2 2v.707l2-2v-.707zm0 3l-2 2v.707l2-2v-.707zm0 3l-2 2v.707l2-2v-.707zm0 3l-2 2v.707l2-2v-.707zm0 3l-1.409 1.41-.177.176h.708l.878-.879v-.707zM98.646 0l-1.414 1.414v.707L99.177.177 99.354 0zm3 0l-4.414 4.414v.707l4.945-4.944.177-.177zm3 0l-7.414 7.414v.707l7.945-7.944.177-.177zm3 0L97.232 10.414v.707L108.177.177l.177-.177zm3 0L97.232 13.414v.707L111.177.177l.177-.177zm3 0L97.232 16.414v.707L114.177.177l.177-.177zm3 0L98.823 17.823l-.177.177h.708L117.177.177l.177-.177zm2.586.414l-17.409 17.41-.177.176h.708l16.878-16.879V.414zm0 3l-14.409 14.41-.177.176h.708l13.878-13.879v-.707zm0 3l-11.409 11.41-.177.176h.708l10.878-10.879v-.707zm0 3l-8.409 8.41-.177.176h.708l7.878-7.879v-.707zm0 3l-5.409 5.41-.177.176h.708l4.878-4.879v-.707zm0 3l-2.409 2.41-.177.176h.708l1.878-1.879v-.707zM119.646 0l-.414.414v.707l.945-.944.177-.177zm1.586 1.414l-2 2v.707l2-2v-.707zm0 3l-2 2v.707l2-2v-.707zm0 3l-2 2v.707l2-2v-.707zm0 3l-2 2v.707l2-2v-.707zm0 3l-2 2v.707l2-2v-.707zm0 3l-1.409 1.41-.177.176h.708l.878-.879v-.707zM89.825.597a2.12 2.12 0 0 0-.692.109c.031.223.169.569.953.773-.73-.053-1.206-.113-1.452-.307-.09.2-.138.427-.159.556a.297.297 0 0 1-.206.237c-.625.191-1.174 1.112-1.7 1.763-.95 1.173-1.771 2.48-2.688 3.733.423-.207.845-.415 1.27-.622 1.182-.622 2.395-1.11 3.407-1.877.588-.49 1.172-.996 1.39-1.641.076-.497-.296-1.074-.767-1.279a.297.297 0 1 1 .238-.545c.377.164.7.458.904.817a1.986 1.986 0 0 0-.075-.448.297.297 0 0 1-.013-.104c.01-.184.042-.313.082-.422.041-.109.085-.206.158-.459a.297.297 0 0 1 .105-.153 1.546 1.546 0 0 0-.528-.125C90.01.6 89.97.6 89.927.599a.258.258 0 1 1-.102-.002zm-1.194 5.432c-.605.466-1.253.873-1.888 1.28.005.438-.006.879-.046 1.321.206-.135.433-.236.697-.3.39-.636.82-1.22 1.082-1.842a4.64 4.64 0 0 0 .155-.46zm.25 1c-.274.549-.622 1.04-.93 1.529.06.04.113.08.155.121l.028.027c.168-.194.374-.351.613-.454-.01-.348.047-.768.133-1.222zM86 7.077a25.922 25.922 0 0 0-.588.297c-.78.38-1.56.772-2.35 1.148-.556.67-1.156 1.293-1.734 1.92l1.043.175 2.563-2.786a.297.297 0 0 1 .04-.036A18.5 18.5 0 0 1 86 7.077zm2.591 2.009c-.057.066-.112.14-.161.222a.298.298 0 0 1-.43.087c-.124-.09-.2-.177-.265-.244l-.077 1.413c.1-.006.201-.013.296-.013.167 0 .313.022.398.108.1-.078.28-.1.504-.1.057 0 .118.002.18.005l-.445-1.478zm5.419.999c-.452.062-.686.323-.704.783h1.395c0-.46-.23-.721-.691-.783zm-7.86-2.39c-.274.182-.542.367-.799.56l-2.402 2.613h2.456c.17-.19.518-.365.776-.365.073 0 .14.014.192.046a3.01 3.01 0 0 1 .256-.01c.14 0 .286.007.433.016l.083-1.506c-.224.115-.407.282-.625.542a.297.297 0 0 1-.52-.246c.1-.544.142-1.093.15-1.65zm6.24 3.745l.265.465h1.249l.252-.465zm-4.516 0v2.51l1.726-2.51zM89.818 0a3.878 3.878 0 0 1 .272.01c.694.044 1.215.325 1.408.768a.298.298 0 0 1-.341.408l-.024-.006-.03.007-.109.029c-.054.168-.096.269-.12.332a.541.541 0 0 0-.042.2 3.1 3.1 0 0 1 .037 1.389c-.095.466-.384.977-.761 1.46a.295.295 0 0 1-.014.108 21.24 21.24 0 0 0-.548 2.027c-.152.708-.233 1.387-.192 1.684a.297.297 0 0 1-.223.33l-.019.005.527 1.75c.086-.013.173-.018.26-.018.256 0 .509.041.712.041a.865.865 0 0 0 .183-.016.314.314 0 0 1 .068-.007c.212 0 .657.13.787.366h1.1c.061-.797.482-1.235 1.261-1.315.788.08 1.196.518 1.222 1.315v.572h-.531l-.545 1.01H92.39l-.532-1.01h-1.567l-2.404 3.493V18h-.571v-6.561H82.8v-.41l-.1.109a.297.297 0 0 1-.268.092l-1.74-.292a.298.298 0 0 1-.173-.492c.217-.242.437-.48.656-.716l-1.656 1.078a.296.296 0 0 1-.412-.087.297.297 0 0 1 .087-.411l1.345-.876a.292.292 0 0 1-.076-.09.315.315 0 0 1-.02-.237c.016-.05.034-.074.048-.093.055-.076.084-.088.123-.119.04-.03.084-.06.131-.094.096-.065.206-.137.301-.2a4.156 4.156 0 0 0 .216-.156l2.379-1.672.008-.005c.805-1.13 1.568-2.316 2.457-3.414.433-.535.938-1.524 1.812-1.894.048-.262.157-.68.484-.997.352-.344.863-.463 1.416-.463zM38.63 7.458v1.656c.565 0 .848-.283.848-.848 0-.539-.283-.808-.848-.808zM36.535 0c.463 0 .855.116 1.176.35.613.443.919 1.09.919 1.938v4.584c.942 0 1.42.465 1.434 1.394 0 .942-.478 1.413-1.434 1.413V18h-.747V2.732c0-1.023-.198-1.68-.595-1.969-.206-.15-.476-.225-.839-.225-.337 0-.754.065-1.273.195a.65.65 0 0 1-.212.043c-.111 0-.188-.048-.232-.144-.013-.162.108-.276.364-.343C35.634.096 36.114 0 36.535 0zm-8.169.601c-1.074 0-2.418.552-3.069 1.202-.569.57-.643 1.324-.664 2.025h7.435c-.021-.7-.096-1.455-.665-2.025-.65-.65-1.963-1.202-3.037-1.202zm0-.601c1.274 0 2.645.589 3.449 1.392.824.824.917 1.91.917 2.72v.317H24v-.316c0-.812.062-1.897.886-2.72C25.689.588 27.092 0 28.366 0zm1.187 9.627c5.438 1.9 2.904 9.54-2.195 8.228-5.054-1.302-4.046-9.318 2.195-8.228m-.243.698c-5.418-.787-5.64 5.768-1.708 6.812 3.846 1.022 6.482-5.13 1.708-6.812m-1.189 1.152c-1.082-.74.885-.487 0-.018v.018m1.986.433c-1.227-.397.343-.795 0-.073v.073m-2.993-.712v.732l-.73-.244.73-.488m3.57 2.066c-.902-.795.596-.885.11-.09l-.11.09m-2.838-.846l.244.731-.732-.487.488-.244m1.052.358l.072-.017c.668-.489 1.39 1.767-.072.017m-3.014-.397c.956.56-.162.703-.253.703l.253-.703m2.938 1.502l-.244.244-.488-.732.732.488m-1.675-.474l.47.019c-.56.866-.758.793-.47-.019m3.681 1.517c-.883-.74.434-.632.416-.488l-.416.488m-1.01-.903l-.22.305c-.718-.215-.34-.792.22-.305m-3.435.836l-.244.244-.488-.732.732.488m1.323.012c.759-.378.92-.27.47.344l-.47-.344m2.579.72l-.244.731-.488-.732h.732m-3.246-.465l.45.54c-.107.217-1.1.145-.45-.54m1.539.71l.244.731h-.732l.488-.732zM0 0v.354L.177.177.354 0zm2.646 0L0 2.646v.708L3.177.177 3.354 0zm3 0L0 5.646v.708L6.177.177 6.354 0zm3 0L0 8.646v.708L9.177.177 9.354 0zm3 0L0 11.646v.708L12.177.177 12.354 0zm3 0L0 14.646v.708L15.177.177 15.354 0zm3 0L0 17.646V18h.354L18.177.177 18.354 0zm3 0L2.823 17.823 2.646 18h.708L21.177.177 21.354 0zM22 1.646L5.823 17.823 5.646 18h.708L22 2.354v-.708zm0 3L8.823 17.823 8.646 18h.708L22 5.354v-.708zm0 3L11.823 17.823l-.177.177h.708L22 8.354v-.708zm0 3l-7.177 7.177-.177.177h.708L22 11.354v-.708zm0 3l-4.177 4.177-.177.177h.708L22 14.354v-.708zm0 3l-1.177 1.177-.177.177h.708l.646-.646v-.708z"/></svg>