<svg xmlns="http://www.w3.org/2000/svg" width="230.234" height="18"><path d="M228.587 0c.335 0 .67.026.995.066.447.113.217.626-.18.626a.476.476 0 0 1-.082-.008c-.84.097-1.872.15-2.506.626-.84.916-.463 2.821-.561 3.725-.007.05-.01 3.653-.01 5.48a6.145 6.145 0 0 1 2.635-.586c.402 0 .801.04 1.188.117.44.231-.077.528-.423.528a.454.454 0 0 1-.115-.013c-1.226.133-2.62.461-3.243 1.602-.061.206-.023.277.071.277.206 0 .68-.342.946-.342.014 0 .028 0 .04.003a7.535 7.535 0 0 1 1.581-.169c.39 0 .776.031 1.148.095.42.278-.095.534-.438.534a.532.532 0 0 1-.105-.01c-1.251.151-2.636.49-3.243 1.633-.007 1.27 0 2.11-.033 3.278.014.36-.22.538-.456.538-.235 0-.473-.176-.475-.526.009-1.15.091-2.161-.06-3.277-.304-1.253-2.477-1.445-3.827-1.754-.294-.347.285-.475.659-.475.056 0 .107.003.15.008.173-.013.347-.02.521-.02.882 0 1.771.175 2.557.58.032-.755-.711-1.19-1.244-1.493-.84-.361-1.765-.397-2.643-.59-.313-.273.18-.501.521-.501a.58.58 0 0 1 .125.012c.216-.02.432-.031.648-.031.903 0 1.805.183 2.615.582-.017-2.851-.063-5.61.019-8.308.065-.834.546-1.6 1.354-1.849.58-.264 1.227-.358 1.871-.358z"/><path d="M221.646 0l-.31.311v.707l.84-.841.178-.177zm3 0l-3.31 3.311v.707l3.84-3.841.178-.177zm3 0l-6.31 6.311v.707l6.84-6.841.178-.177zm2.588.412l-8.899 8.899v.707l8.9-8.899V.412zm0 3l-8.899 8.899v.707l8.9-8.899v-.707zm0 3l-8.899 8.899v.707l8.9-8.899v-.707zm0 3l-8.41 8.411-.178.177h.708l7.88-7.88v-.708zm0 3l-5.41 5.411-.178.177h.708l4.88-4.88v-.708zm0 3l-2.41 2.411-.178.177h.708l1.88-1.88v-.708z"/><path d="M230.646 0l-.412.412v.707l.943-.942.177-.177zm1.623 1.378l-2.035 2.034v.707l2.035-2.034v-.707zm0 3l-2.035 2.034v.707l2.035-2.034v-.707zm0 3l-2.035 2.034v.707l2.035-2.034v-.707zm0 3l-2.035 2.034v.707l2.035-2.034v-.707zm0 3l-2.035 2.034v.707l2.035-2.034v-.707zm0 3l-1.446 1.445-.177.177h.708l.915-.915v-.707zM204.592 2.99q-.557 0-1.086.606 4.368 5.2 5.46 5.81.815.457 1.434.457.21 0 .399-.053.741-.208 1.586-.234h.042q.828 0 1.817.988h.13q-.702-1.638-1.963-2.34-1.261-.702-7.397-5.148-.213-.085-.422-.085zm7.731-2.369q-.065 0-.133.01v6.683q2.054 1.196 2.834 3.354-1.196-8.268-1.677-9.204-.433-.843-1.024-.843zm5.356 10.468q.08 0 .153.138.13.247-.234.689-.208-.546-.052-.741.069-.086.133-.086zm-.037-.372q-.153 0-.33.237-.39.52.234 2.08.702-1.352.43-1.976-.15-.34-.334-.34zm-6.804 2.577v.39q.286-.026.442-.182-.052-.078-.208-.208zm-.598.884l-2.418.338-.494.884q.832-.234 1.833-.624 1-.39 1.079-.598zm5.33-.364l-.468.234-.156 1.118.416 1.274h.65l-.442-1.274v-1.352zm-1.118.39l-.442.13-.156.832.416 1.274h.65l-.442-1.274-.026-.962zm-1.534.156l-.156.806.416 1.274h.65l-.442-1.274v-.78l-.468-.026zm.994-3.234q-.415 0-.89.1-1.404.3-1.768 1.418h-1.092l-.416-.676q-5.512 1.274-6.214 4.602 1.508-.832 3.172-1.118l.728-1.456 2.886-.39-.078-.702h.988q1.092.9 2.228.9.244 0 .489-.042 1.391-.234 1.82-.95.43-.714-.455-1.3-.585-.386-1.398-.386zM212.067 0q.947 0 1.488.658.663.806 1.235 4.238l.91 5.954q.442.468.676.52h.312q.026-.65.494-1.196.416-3.978-.364-6.968l.312-.598q1.118 3.38.546 7.592h.078q1.794-4.03.52-7.592l.312-.468q1.664 3.796-.364 8.242.572 1.248.117 2.054-.455.806-.559 1.508l-.182.13q-.702-1.04-.806-1.794h-.26q-.026.598-.338 1.248l-.182 1.638.442 1.274h2.262v.624h-6.526v-.624h.546l-.416-1.274-.026-.962q-.468-.156-.702-.364-.338.312-.754.312.026.26-.104.442-1.04.806-3.718 1.404l-.91 1.768q0-.434-.27-.434-.085 0-.198.044l.728-1.3q-1.508.338-2.288.858-.416.442.052 1.066-1.04-.442-1.17-1.248.416-3.926 7.046-5.46l.468.78h.416q.338-1.092 2.678-1.508-.522-.388-1.285-.388-.414 0-.899.115-.492.116-.961.116-.844 0-1.613-.376-1.196-.585-6.084-6.461.9-1.136 1.905-1.136.329 0 .669.122l6.318 4.524V.034q.235-.034.449-.034z"/><path d="M83.646 0l-1.205 1.206v.707L84.177.177 84.354 0zm3 0l-4.205 4.206v.707L87.177.177 87.354 0zm3 0l-7.205 7.206v.707L90.177.177 90.354 0zm3 0L82.441 10.206v.707L93.177.177 93.354 0zm3 0L82.441 13.206v.707L96.177.177 96.354 0zm3 0L82.441 16.206v.707L99.177.177 99.354 0zm3 0L83.823 17.823l-.177.177h.708L102.177.177l.177-.177zm3 0L86.823 17.823l-.177.177h.708L105.177.177l.177-.177zm3 0L89.823 17.823l-.177.177h.708L108.177.177l.177-.177zm3 0L92.823 17.823l-.177.177h.708L111.177.177l.177-.177zm3 0L95.823 17.823l-.177.177h.708L114.177.177l.177-.177zm3 0L98.823 17.823l-.177.177h.708L117.177.177l.177-.177zm3 0l-17.823 17.823-.177.177h.708L120.177.177l.177-.177zm3 0l-17.823 17.823-.177.177h.708L123.177.177l.177-.177zm3 0l-17.823 17.823-.177.177h.708L126.177.177l.177-.177zm3 0l-17.823 17.823-.177.177h.708L129.177.177l.177-.177zm3 0l-17.823 17.823-.177.177h.708L132.177.177l.177-.177zm3 0l-17.823 17.823-.177.177h.708L135.177.177l.177-.177zm3 0l-17.823 17.823-.177.177h.708L138.177.177l.177-.177zm3 0l-17.823 17.823-.177.177h.708L141.177.177l.177-.177zm3 0l-17.823 17.823-.177.177h.708L144.177.177l.177-.177zm3 0l-17.823 17.823-.177.177h.708L147.177.177l.177-.177zm3 0l-17.823 17.823-.177.177h.708L150.177.177l.177-.177zm3 0l-17.823 17.823-.177.177h.708L153.177.177l.177-.177zm3 0l-17.823 17.823-.177.177h.708L156.177.177l.177-.177zm3 0l-17.823 17.823-.177.177h.708L159.177.177l.177-.177zm3 0l-17.823 17.823-.177.177h.708L162.177.177l.177-.177zm3 0l-17.823 17.823-.177.177h.708L165.177.177l.177-.177zm3 0l-17.823 17.823-.177.177h.708L168.177.177l.177-.177zm3 0l-17.823 17.823-.177.177h.708L171.177.177l.177-.177zm3 0l-17.823 17.823-.177.177h.708L174.177.177l.177-.177zm3 0l-17.823 17.823-.177.177h.708L177.177.177l.177-.177zm3 0l-17.823 17.823-.177.177h.708L180.177.177l.177-.177zm3 0l-17.823 17.823-.177.177h.708L183.177.177l.177-.177zm3 0l-17.823 17.823-.177.177h.708L186.177.177l.177-.177zm3 0l-17.823 17.823-.177.177h.708L189.177.177l.177-.177zm3 0l-17.823 17.823-.177.177h.708L192.177.177l.177-.177zm3 0l-17.823 17.823-.177.177h.708L195.177.177l.177-.177zm3 0l-17.823 17.823-.177.177h.708L198.177.177l.177-.177zm3 0l-17.823 17.823-.177.177h.708L201.177.177l.177-.177zm3 0l-17.823 17.823-.177.177h.708L204.177.177l.177-.177zm3 0l-17.823 17.823-.177.177h.708L207.177.177l.177-.177zm3 0l-17.823 17.823-.177.177h.708L210.177.177l.177-.177zm3 0l-17.823 17.823-.177.177h.708L213.177.177l.177-.177zm3 0l-17.823 17.823-.177.177h.708L216.177.177l.177-.177zm3 0l-17.823 17.823-.177.177h.708L219.177.177l.158-.159V0zm.69 2.311l-15.513 15.512-.177.177h.708l14.981-14.982v-.707zm0 3l-12.513 12.512-.177.177h.708l11.981-11.982v-.707zm0 3l-9.513 9.512-.177.177h.708l8.981-8.982v-.707zm0 3l-6.513 6.512-.177.177h.708l5.981-5.982v-.707zm0 3l-3.513 3.512-.177.177h.708l2.981-2.982v-.707zm0 3l-.513.512-.177.177h.69v-.689z"/><path d="M221.442.205l-2.107 2.106v.707l2.107-2.106V.205zm0 3l-2.107 2.106v.707l2.107-2.106v-.707zm0 3l-2.107 2.106v.707l2.107-2.106v-.707zm0 3l-2.107 2.106v.707l2.107-2.106v-.707zm0 3l-2.107 2.106v.707l2.107-2.106v-.707zm0 3l-2.107 2.106V18h.019l2.088-2.088v-.707zM55.007 7.458v1.656c.565 0 .848-.283.848-.848 0-.539-.283-.808-.848-.808zM52.912 0c.463 0 .855.116 1.176.35.612.443.919 1.09.919 1.938v4.584c.942 0 1.42.465 1.434 1.394 0 .942-.478 1.413-1.434 1.413V18h-.747V2.732c0-1.023-.198-1.68-.595-1.969-.206-.15-.476-.225-.839-.225-.337 0-.754.065-1.273.195a.65.65 0 0 1-.212.043c-.111 0-.188-.048-.232-.144-.013-.162.108-.276.363-.343C52.011.096 52.491 0 52.912 0zm-8.169.601c-1.074 0-2.418.552-3.069 1.202-.57.57-.644 1.324-.664 2.025h7.435c-.021-.7-.096-1.455-.665-2.025-.65-.65-1.963-1.202-3.037-1.202zm0-.601c1.274 0 2.645.589 3.448 1.392.825.824.918 1.91.918 2.72v.317h-8.732v-.316c0-.812.062-1.897.886-2.72C42.066.588 43.469 0 44.743 0zm1.187 9.627c5.438 1.9 2.903 9.54-2.195 8.228-5.054-1.302-4.046-9.318 2.195-8.228m-.243.698c-5.418-.787-5.64 5.768-1.708 6.812 3.846 1.022 6.482-5.13 1.708-6.812m-1.189 1.152c-1.082-.74.885-.487 0-.018v.018m1.986.433c-1.228-.397.343-.795 0-.073v.073m-2.993-.712v.732l-.731-.244.73-.488m3.572 2.066c-.903-.795.595-.885.108-.09l-.108.09m-2.84-.846l.245.731-.732-.487.488-.244m1.052.358l.072-.017c.668-.489 1.39 1.767-.072.017m-3.014-.397c.956.56-.162.703-.253.703l.253-.703m2.938 1.502l-.244.244-.488-.732.732.488m-1.675-.474l.469.019c-.559.866-.757.793-.469-.019m3.681 1.517c-.883-.74.434-.632.416-.488l-.416.488m-1.01-.903l-.22.305c-.719-.215-.34-.792.22-.305m-3.435.836l-.244.244-.488-.732.732.488m1.323.012c.758-.378.92-.27.47.344l-.47-.344m2.579.72l-.244.731-.488-.732h.732m-3.246-.465l.45.54c-.107.217-1.1.145-.45-.54m1.539.71l.244.731h-.732l.488-.732zM35.086 0c.872.011 1.67.223 2.274.715.626.497 1.022 1.268 1.017 2.212v4.715h-.648v-4.72c0-.771-.29-1.319-.771-1.704-.464-.369-1.117-.57-1.855-.57h-.09c-.731 0-1.39.201-1.854.57-.48.385-.77.933-.77 1.704v4.72h-.649V2.927c-.005-.944.391-1.715 1.017-2.212C33.36.223 34.159.011 35.031 0zm-7.74 0c.872.011 1.67.223 2.274.715.626.497 1.022 1.268 1.017 2.212v4.715h-.648v-4.72c0-.771-.29-1.319-.771-1.704-.464-.369-1.118-.57-1.855-.57h-.09c-.731 0-1.39.201-1.854.57-.48.385-.771.933-.771 1.704v4.72H24V2.927c-.006-.944.391-1.715 1.017-2.212C25.62.223 26.419.011 27.29 0zm3.876 8.95c1.032.012 1.978.264 2.692.846.741.589 1.211 1.502 1.204 2.62V18h-.767v-5.59c0-.914-.344-1.562-.913-2.019-.55-.436-1.323-.674-2.197-.674h-.105c-.867 0-1.648.238-2.197.674-.569.457-.913 1.105-.913 2.018V18h-.768v-5.584c-.006-1.118.464-2.031 1.205-2.62.714-.582 1.66-.834 2.692-.847zM2.646 0L0 2.646v.708L3.177.177 3.354 0zm3 0L0 5.646v.708L6.177.177 6.354 0zm3 0L0 8.646v.708L9.177.177 9.354 0zm3 0L0 11.646v.708L12.177.177 12.354 0zm3 0L0 14.646v.708L15.177.177 15.354 0zm3 0L0 17.646V18h.354L18.177.177 18.354 0zm3 0L2.823 17.823 2.646 18h.708L21.177.177 21.354 0zM22 1.646L5.823 17.823 5.646 18h.708L22 2.354v-.708zm0 3L8.823 17.823 8.646 18h.708L22 5.354v-.708zm0 3L11.823 17.823l-.177.177h.708L22 8.354v-.708zm0 3l-7.177 7.177-.177.177h.708L22 11.354v-.708zm0 3l-4.177 4.177-.177.177h.708L22 14.354v-.708zm0 3l-1.177 1.177-.177.177h.708l.646-.646v-.708z"/></svg>