<svg xmlns="http://www.w3.org/2000/svg" width="249.564" height="18"><path d="M247.917 0c.335 0 .67.026.995.066.447.113.217.626-.18.626a.476.476 0 0 1-.082-.008c-.84.097-1.872.15-2.506.626-.841.916-.463 2.821-.561 3.725-.007.05-.01 3.653-.01 5.48a6.145 6.145 0 0 1 2.635-.586c.402 0 .801.04 1.187.117.441.231-.076.528-.422.528a.454.454 0 0 1-.115-.013c-1.226.133-2.62.461-3.243 1.602-.061.206-.023.277.071.277.206 0 .68-.342.946-.342.014 0 .028 0 .04.003a7.535 7.535 0 0 1 1.58-.169c.39 0 .777.031 1.15.095.42.278-.097.534-.439.534a.532.532 0 0 1-.105-.01c-1.251.151-2.636.49-3.243 1.633-.007 1.27 0 2.11-.033 3.278.014.36-.22.538-.456.538-.235 0-.473-.176-.475-.526.009-1.15.091-2.161-.06-3.277-.304-1.253-2.477-1.445-3.827-1.754-.294-.347.285-.475.659-.475.055 0 .107.003.15.008.173-.013.347-.02.521-.02.882 0 1.771.175 2.557.58.032-.755-.711-1.19-1.244-1.493-.84-.361-1.765-.397-2.643-.59-.313-.273.18-.501.521-.501a.58.58 0 0 1 .125.012 7.01 7.01 0 0 1 .648-.031c.903 0 1.805.183 2.614.582-.016-2.851-.062-5.61.02-8.308.065-.834.546-1.6 1.354-1.849.58-.264 1.227-.358 1.87-.358z"/><path d="M242.646 0l-1.98 1.981v.707l2.51-2.511.178-.177zm3 0l-4.98 4.981v.707l5.51-5.511.178-.177zm3 0l-7.98 7.981v.707l8.51-8.511.178-.177zm.918 2.082l-8.899 8.9v.706l8.899-8.898v-.708zm0 3l-8.899 8.9v.706l8.899-8.898v-.708zm0 3l-8.899 8.9v.706l8.899-8.898v-.708zm0 3l-6.74 6.741-.178.177h.708l6.21-6.21v-.708zm0 3l-3.74 3.741-.178.177h.708l3.21-3.21v-.708zm0 3l-.74.741-.178.177h.708l.21-.21v-.708zM251.599.048l-2.035 2.034v.708l2.035-2.035V.048zm0 3l-2.035 2.034v.708l2.035-2.035v-.707zm0 3l-2.035 2.034v.708l2.035-2.035v-.707zm0 3l-2.035 2.034v.708l2.035-2.035v-.707zm0 3l-2.035 2.034v.708l2.035-2.035v-.707zm0 3l-2.035 2.034v.708l2.035-2.035v-.707zM223.922 2.99q-.557 0-1.086.606 4.368 5.2 5.46 5.81.814.457 1.434.457.21 0 .399-.053.74-.208 1.586-.234h.042q.828 0 1.817.988h.13q-.702-1.638-1.963-2.34-1.261-.702-7.397-5.148-.213-.085-.422-.085zm7.731-2.369q-.066 0-.133.01v6.683q2.054 1.196 2.834 3.354-1.196-8.268-1.677-9.204-.433-.843-1.024-.843zm5.356 10.468q.08 0 .153.138.13.247-.234.689-.208-.546-.052-.741.069-.086.133-.086zm-.037-.372q-.153 0-.33.237-.39.52.234 2.08.702-1.352.429-1.976-.149-.34-.333-.34zm-6.804 2.577v.39q.286-.026.442-.182-.052-.078-.208-.208zm-.598.884l-2.418.338-.494.884q.832-.234 1.833-.624 1-.39 1.079-.598zm5.33-.364l-.468.234-.156 1.118.416 1.274h.65l-.442-1.274v-1.352zm-1.118.39l-.442.13-.156.832.416 1.274h.65l-.442-1.274-.026-.962zm-1.534.156l-.156.806.416 1.274h.65l-.442-1.274v-.78l-.468-.026zm.994-3.234q-.415 0-.89.1-1.404.3-1.768 1.418h-1.092l-.416-.676q-5.512 1.274-6.214 4.602 1.508-.832 3.172-1.118l.728-1.456 2.886-.39-.078-.702h.988q1.092.9 2.228.9.243 0 .489-.042 1.39-.234 1.82-.95.429-.714-.455-1.3-.585-.386-1.398-.386zM231.396 0q.948 0 1.489.658.663.806 1.235 4.238l.91 5.954q.442.468.676.52h.312q.026-.65.494-1.196.416-3.978-.364-6.968l.312-.598q1.118 3.38.546 7.592h.078q1.794-4.03.52-7.592l.312-.468q1.664 3.796-.364 8.242.572 1.248.117 2.054-.455.806-.559 1.508l-.182.13q-.702-1.04-.806-1.794h-.26q-.026.598-.338 1.248l-.182 1.638.442 1.274h2.262v.624h-6.526v-.624h.546l-.416-1.274-.026-.962q-.468-.156-.702-.364-.338.312-.754.312.026.26-.104.442-1.04.806-3.718 1.404l-.91 1.768q0-.434-.27-.434-.085 0-.198.044l.728-1.3q-1.508.338-2.288.858-.416.442.052 1.066-1.04-.442-1.17-1.248.416-3.926 7.046-5.46l.468.78h.416q.338-1.092 2.678-1.508-.522-.388-1.285-.388-.414 0-.9.115-.491.116-.96.116-.844 0-1.613-.376-1.196-.585-6.084-6.461.9-1.136 1.905-1.136.329 0 .669.122l6.318 4.524V.034q.235-.034.448-.034z"/><path d="M161.913 0v.44l.264-.263.177-.177zm2.733 0l-2.733 2.733v.708l3.264-3.264.177-.177zm3 0l-5.733 5.733v.708l6.264-6.264.177-.177zm3 0l-8.733 8.733v.707l9.264-9.263.177-.177zm3 0l-11.733 11.733v.708L174.177.177l.177-.177zm3 0l-14.733 14.733v.708L177.177.177l.177-.177zm3 0l-17.733 17.733V18h.44L180.178.177l.177-.177zm3 0l-17.823 17.823-.177.177h.708L183.177.177l.177-.177zm3 0l-17.823 17.823-.177.177h.708L186.177.177l.177-.177zm3 0l-17.823 17.823-.177.177h.708L189.177.177l.177-.177zm3 0l-17.823 17.823-.177.177h.708L192.177.177l.177-.177zm3 0l-17.823 17.823-.177.177h.708L195.177.177l.177-.177zm3 0l-17.823 17.823-.177.177h.708L198.177.177l.177-.177zm3 0l-17.823 17.823-.177.177h.708L201.177.177l.177-.177zm3 0l-17.823 17.823-.177.177h.708L204.177.177l.177-.177zm3 0l-17.823 17.823-.177.177h.708L207.177.177l.177-.177zm3 0l-17.823 17.823-.177.177h.708L210.177.177l.177-.177zm3 0l-17.823 17.823-.177.177h.708L213.177.177l.177-.177zm3 0l-17.823 17.823-.177.177h.708L216.177.177l.177-.177zm3 0l-17.823 17.823-.177.177h.708L219.177.177l.177-.177zm3 0l-17.823 17.823-.177.177h.708L222.177.177l.177-.177zm3 0l-17.823 17.823-.177.177h.708L225.177.177l.177-.177zm3 0l-17.823 17.823-.177.177h.708L228.177.177l.177-.177zm3 0l-17.823 17.823-.177.177h.708L231.177.177l.177-.177zm3 0l-17.823 17.823-.177.177h.708L234.177.177l.177-.177zm3 0l-17.823 17.823-.177.177h.708L237.177.177l.177-.177zm2.02.981l-16.843 16.842-.177.177h.708l16.311-16.312V.981zm0 3l-13.843 13.842-.177.177h.708l13.311-13.312v-.707zm0 3l-10.843 10.842-.177.177h.708l10.311-10.312v-.707zm0 3l-7.843 7.842-.177.177h.708l7.311-7.312v-.707zm0 3l-4.843 4.842-.177.177h.708l4.311-4.312v-.707zm0 3l-1.843 1.842-.177.177h.708l1.311-1.312v-.707z"/><path d="M239.646 0l-.98.981v.707l1.51-1.511.178-.177zm1.126 1.875l-2.107 2.106v.707l2.107-2.106v-.707zm0 3l-2.107 2.106v.707l2.107-2.106v-.707zm0 3l-2.107 2.106v.707l2.107-2.106v-.707zm0 3l-2.107 2.106v.707l2.107-2.106v-.707zm0 3l-2.107 2.106v.707l2.107-2.106v-.707zm0 3l-.949.948-.177.177h.708l.418-.418v-.707z"/><path d="M152.226.375v17.25m7.687-17.25c-9.625 0-9.625 17.25 0 17.25m0 0" fill="none" stroke="#000"/><path d="M144.256.597a2.12 2.12 0 0 0-.692.109c.031.223.169.569.953.773-.73-.053-1.206-.113-1.453-.307a2.45 2.45 0 0 0-.158.556.297.297 0 0 1-.206.237c-.625.191-1.174 1.112-1.7 1.763-.95 1.173-1.772 2.48-2.688 3.733.423-.207.845-.415 1.27-.622 1.182-.622 2.394-1.11 3.407-1.877.588-.49 1.172-.996 1.39-1.641.076-.497-.296-1.074-.767-1.279a.297.297 0 1 1 .238-.545c.376.164.699.458.904.817a1.986 1.986 0 0 0-.075-.448.297.297 0 0 1-.013-.104c.01-.184.042-.313.082-.422.041-.109.085-.206.158-.459a.297.297 0 0 1 .105-.153 1.546 1.546 0 0 0-.528-.125C144.441.6 144.4.6 144.358.599a.258.258 0 1 1-.102-.002zm-1.194 5.432c-.605.466-1.253.873-1.888 1.28.005.438-.006.879-.047 1.321.207-.135.434-.236.697-.3.392-.636.82-1.22 1.083-1.842a4.64 4.64 0 0 0 .155-.46zm.25 1c-.274.549-.622 1.04-.93 1.529.06.04.113.08.155.121l.028.027c.168-.194.374-.351.613-.454-.01-.348.047-.768.133-1.222zm-2.882.047a25.922 25.922 0 0 0-.587.297c-.78.38-1.56.772-2.35 1.148-.556.67-1.156 1.293-1.734 1.92l1.043.175 2.563-2.786a.297.297 0 0 1 .04-.036c.333-.253.678-.489 1.025-.718zm2.592 2.009c-.058.066-.112.14-.161.222a.298.298 0 0 1-.43.087c-.124-.09-.2-.177-.265-.244l-.077 1.413c.1-.006.201-.013.296-.013.167 0 .313.022.398.108.1-.078.28-.1.504-.1.057 0 .118.002.18.005l-.445-1.478zm5.419.999c-.452.062-.686.323-.704.783h1.395c0-.46-.23-.721-.691-.783zm-7.86-2.39c-.275.182-.542.367-.799.56l-2.402 2.613h2.456c.17-.19.518-.365.776-.365.073 0 .14.014.192.046.081-.007.167-.01.256-.01.14 0 .285.007.433.016l.083-1.506c-.224.115-.407.282-.625.542a.297.297 0 0 1-.52-.246c.1-.544.142-1.093.15-1.65zm6.24 3.745l.265.465h1.249l.252-.465zm-4.516 0v2.51l1.726-2.51zM144.249 0a3.878 3.878 0 0 1 .272.01c.694.044 1.215.325 1.408.768a.298.298 0 0 1-.341.408l-.025-.006-.03.007-.108.029c-.054.168-.096.269-.12.332a.541.541 0 0 0-.042.2 3.1 3.1 0 0 1 .037 1.389c-.095.466-.384.977-.761 1.46a.295.295 0 0 1-.014.108 21.24 21.24 0 0 0-.548 2.027c-.152.708-.234 1.387-.192 1.684a.297.297 0 0 1-.223.33l-.019.005.527 1.75c.086-.013.173-.018.26-.018.255 0 .508.041.711.041a.865.865 0 0 0 .184-.016.314.314 0 0 1 .068-.007c.212 0 .656.13.787.366h1.1c.061-.797.482-1.235 1.261-1.315.788.08 1.195.518 1.222 1.315v.572h-.531l-.545 1.01h-1.766l-.532-1.01h-1.567l-2.404 3.493V18h-.571v-6.561h-4.517v-.41l-.099.109a.297.297 0 0 1-.268.092l-1.74-.292a.298.298 0 0 1-.173-.492c.217-.242.437-.48.656-.716l-1.656 1.078a.296.296 0 0 1-.412-.087.297.297 0 0 1 .087-.411l1.345-.876a.292.292 0 0 1-.076-.09.315.315 0 0 1-.02-.237c.016-.05.034-.074.048-.093.055-.076.084-.088.123-.119.04-.03.084-.06.131-.094.096-.065.206-.137.301-.2a4.156 4.156 0 0 0 .216-.156l2.379-1.672.008-.005c.805-1.13 1.568-2.316 2.457-3.414.433-.535.938-1.524 1.812-1.894.048-.262.157-.68.483-.997.353-.344.864-.463 1.417-.463zm-17.704 1.343q.088.166.199.364l.187 1.091q0 .573-.187 1.07-.199.43-.496.771 1.995-.364 3.593-.54-1.003-.595-1.576-1.323-.584-.727-1.72-1.433zm-4.707-.088q-.606.044-2.04.915-1.432.86-2.953 1.422 1.113.066 2.425.474 1.323.397 2.778.595-.232-.275-.463-.782-.22-.508-.22-1.08 0-.585.209-1.092.11-.243.264-.452zm2.32-.508q-.381 0-.732.155-.375.155-.662.42-.286.253-.463.616-.143.364-.165.783-.022.419.132.783.165.364.419.65.265.298.628.463.364.154.783.165l.054.001q.379 0 .729-.144.374-.154.661-.408.276-.253.441-.617.154-.364.176-.794 0-.408-.154-.771-.143-.364-.397-.65-.264-.298-.628-.442-.364-.198-.772-.21h-.05zm.06-.747q.721 0 1.423.153 1.521.33 3.087 1.973 1.565 1.631 2.745 1.742l.022.771q-2.679.232-5.258.706-.965.177-2.03.177-1.782 0-3.846-.497-3.285-.794-4.167-.96h-1.455v-.947h1.5q1.069-.364 2.865-1.444 1.786-1.08 3.407-1.466.866-.208 1.707-.208zm5.222 15.57l2.055 2.43h-1.003l-1.053-1.255L128.376 18l-1.032-1.255L126.28 18l-1.053-1.255L124.165 18l-1.053-1.255L122.049 18l-1.033-1.255L119.953 18l-1.063-1.255L117.857 18l-1.063-1.255L115.741 18h-1.002l2.055-2.43 1.063 1.175 1.033-1.175 1.063 1.175 1.063-1.175 1.033 1.175 1.063-1.175 1.053 1.175 1.063-1.175 1.053 1.175 1.063-1.175 1.032 1.175 1.063-1.175zM107.332.597a2.12 2.12 0 0 0-.692.109c.031.223.169.569.953.773-.73-.053-1.206-.113-1.452-.307-.09.2-.138.427-.159.556a.297.297 0 0 1-.206.237c-.625.191-1.174 1.112-1.7 1.763-.95 1.173-1.771 2.48-2.688 3.733.423-.207.845-.415 1.27-.622 1.182-.622 2.395-1.11 3.407-1.877.588-.49 1.172-.996 1.39-1.641.076-.497-.296-1.074-.767-1.279a.297.297 0 1 1 .238-.545c.377.164.7.458.904.817a1.986 1.986 0 0 0-.075-.448.297.297 0 0 1-.013-.104c.01-.184.042-.313.083-.422.04-.109.084-.206.157-.459a.297.297 0 0 1 .105-.153 1.546 1.546 0 0 0-.528-.125c-.042-.003-.083-.003-.124-.004a.258.258 0 1 1-.103-.002zm-1.194 5.432c-.605.466-1.253.873-1.888 1.28.005.438-.006.879-.046 1.321.206-.135.433-.236.697-.3.39-.636.82-1.22 1.082-1.842a4.64 4.64 0 0 0 .155-.46zm.25 1c-.274.549-.622 1.04-.93 1.529.06.04.113.08.155.121l.028.027c.168-.194.374-.351.613-.454-.01-.348.047-.768.133-1.222zm-2.881.047a25.922 25.922 0 0 0-.588.297c-.78.38-1.56.772-2.35 1.148-.556.67-1.156 1.293-1.734 1.92l1.043.175 2.563-2.786a.297.297 0 0 1 .04-.036 18.5 18.5 0 0 1 1.026-.718zm2.591 2.009c-.057.066-.112.14-.161.222a.298.298 0 0 1-.43.087c-.124-.09-.2-.177-.265-.244l-.077 1.413c.1-.006.201-.013.296-.013.167 0 .313.022.398.108.1-.078.28-.1.504-.1.057 0 .118.002.18.005l-.445-1.478zm5.42.999c-.453.062-.687.323-.705.783h1.395c0-.46-.23-.721-.69-.783zm-7.862-2.39a16.85 16.85 0 0 0-.797.56l-2.403 2.613h2.456c.171-.19.518-.365.776-.365.073 0 .14.014.192.046a3.01 3.01 0 0 1 .256-.01c.14 0 .286.007.433.016l.083-1.506c-.224.115-.407.282-.625.542a.297.297 0 0 1-.52-.246c.1-.544.142-1.093.15-1.65zm6.24 3.745l.266.465h1.249l.252-.465zm-4.515 0v2.51l1.726-2.51zM107.325 0a3.878 3.878 0 0 1 .272.01c.694.044 1.215.325 1.408.768a.298.298 0 0 1-.341.408l-.024-.006-.03.007-.109.029c-.054.168-.095.269-.12.332a.541.541 0 0 0-.042.2 3.1 3.1 0 0 1 .037 1.389c-.095.466-.384.977-.761 1.46a.295.295 0 0 1-.014.108 21.24 21.24 0 0 0-.548 2.027c-.152.708-.233 1.387-.192 1.684a.297.297 0 0 1-.223.33l-.019.005.527 1.75c.086-.013.173-.018.26-.018.256 0 .509.041.712.041a.865.865 0 0 0 .183-.016.314.314 0 0 1 .068-.007c.212 0 .657.13.787.366h1.1c.061-.797.482-1.235 1.261-1.315.788.08 1.196.518 1.222 1.315v.572h-.531l-.545 1.01h-1.766l-.532-1.01h-1.567l-2.404 3.493V18h-.571v-6.561h-4.516v-.41l-.1.109a.297.297 0 0 1-.268.092l-1.74-.292a.298.298 0 0 1-.173-.492c.217-.242.437-.48.656-.716l-1.656 1.078a.296.296 0 0 1-.412-.087.297.297 0 0 1 .087-.411l1.345-.876a.292.292 0 0 1-.076-.09.315.315 0 0 1-.02-.237c.016-.05.034-.074.048-.093.055-.076.084-.088.123-.119.04-.03.084-.06.131-.094.096-.065.206-.137.301-.2a4.156 4.156 0 0 0 .216-.156l2.379-1.672.008-.005c.805-1.13 1.568-2.316 2.457-3.414.433-.535.938-1.524 1.812-1.894.048-.262.157-.68.484-.997.353-.344.863-.463 1.416-.463zM92.504 8.13q-.999 0-2.264 1.421-.978 1.088-2.648 1.088-.614 0-1.321-.146-2.643-.547-4.435-.577-.254-.006-.5-.006-1.475 0-2.638.208-1.357.233-2.44.942-1.083.718-2.065.718.198.012.393.012 1.301 0 2.472-.528.876-.392 2.888-.392 1.057 0 2.427.109 2.467.194 4.058.194.975 0 1.622-.073 1.7-.192 2.53-1.377.685-.976 1.066-.976.082 0 .15.045.394.263 1.042.273h.032q.62 0 .728-.395.02-.465-1.003-.536-.046-.004-.094-.004zm-1.455-2.365q.79 0 1.236 1.792.098-.012.201-.012.172 0 .355.032.628-1.61 1.408-1.61.273 0 .314.192.04.183-.112.385-.719.567-.962 1.185.74.364.74.941-.071.87-.962.962-.25.026-.465.026-.546 0-.851-.168-.12-.065-.232-.065-.287 0-.528.43-.344.607-1.306 1.306-.874.644-3.614.644-.274 0-.567-.006-3.26-.02-5.123-.173-.5-.043-.956-.043-1.257 0-2.193.327-.91.325-3.279.325-.947 0-2.127-.052-.05 0-.091-.202 0-.608 1.296-.608 1.772-.06 2.308-.506.537-.455 1.792-1.043 1.266-.597 3.746-.597t5.052.597q.798.183 1.459.183 1.47 0 2.267-.901 1.154-1.306 1.751-1.418 0-.425-.435-.931-.435-.496-.405-.75.02-.242.283-.242zm-24.8-2.694c.27.13.6.49.1.55-.24-.01-.79-.26-.69-.49.051.05.104.067.157.067.142 0 .287-.127.433-.127zm1.97.09c.33.08.5.44.08.52l-.021.002c-.242 0-.901-.294-.358-.361.09-.06.18-.16.3-.16zM65.59.652c-.59.69-1.111 1.49-1.211 2.41-.1.66-.13 1.321-.23 1.971.47-.04.33-.77.24-1.12-.08-.69.29-1.33.55-1.941.18-.33.35-.85.81-.86.51.09.84.52 1.171.89.34-.34.7-.71 1.17-.85a.236.236 0 0 1 .082-.013c.105 0 .229.046.285.046.05 0 .049-.034-.056-.164-.064-.224-.196-.29-.359-.29-.238 0-.543.141-.8.141a.561.561 0 0 1-.112-.01 5.346 5.346 0 0 1-.254.007A3.79 3.79 0 0 1 65.588.65zm.16.76c-.39.1-.48.64-.67.96-.24.56-.531 1.17-.341 1.801.15.3-.04.68-.02.9.334.235.627.73 1.07.73a.631.631 0 0 0 .15-.02c.44-.09.66-.51 1.001-.71.246.238.392.73.798.73a.612.612 0 0 0 .183-.03c.37-.08.86-.04.97-.49.19-.46.21-.97.24-1.47a.324.324 0 0 1-.061.006c-.202 0-.22-.235-.239-.436-.078-.293-.288-.429-.52-.429a.762.762 0 0 0-.47.178c-.17.19-.69.34-.58.64.05.18.11.371.17.561l-.42.56c-.04-.29-.471-.53-.221-.82.04-.13.19-.3.17-.4-.18-.32-.42-.6-.7-.84a.322.322 0 0 0-.23-.103c-.268 0-.537.351-.77.382-.23-.25.02-.35.25-.48a.701.701 0 0 1 .486-.196c.25 0 .5.13.654.356.19.114.322.494.49.494.052 0 .108-.037.17-.134.306-.244.672-.518 1.072-.518.06 0 .119.005.179.018.283.059.537.632.559.632l.001-.001c.01-.47-.21-.89-.34-1.351a.612.612 0 0 0-.596-.477.596.596 0 0 0-.475.237c-.297.11-.516.634-.796.634a.27.27 0 0 1-.154-.054c-.31-.33-.56-.72-1.01-.86zm1.42 6.943c-1.27 1.31-2.441 4.632-2.741 5.993.49-.4 1.16-.66 1.31-.91.16-.26.6-2.792 1.431-5.083zm-4.522-2.381c-2.401 1.38-6.583 8.174-7.474 9.264 1.501-.95 2.982-1.91 4.593-2.691 2.26-1.11 4.192-2.911 6.033-4.592-1.521-.51-2.612-1.37-3.152-1.981zm2.491 8.624c-.32.19-.61.45-.96.59.21.52.34 1.1.77 1.51.08.13.196.172.328.172.228 0 .504-.123.735-.123.016 0 .032 0 .048.002-.28-.7-.7-1.01-.92-2.151zm-.68-9.365c-.06.126-.138.167-.22.167-.108 0-.224-.071-.32-.116-.24.17-1.07.15-.58.51.31.42 1.967 1.566 3.118 1.768.497.087-.337.873-.607 1.153-1.561 1.4-3.092 2.882-4.963 3.892-1.17.66-2.401 1.25-3.531 1.98-.54.781-1.181 1.502-1.591 2.362.41.12.81.29 1.23.39.222.056.462.082.703.082.66 0 1.325-.197 1.618-.512.54-.57 1.131-3.001 1.441-3.892.044-.1.107-.133.175-.133.135 0 .291.132.369.132.016 0 .028-.006.036-.019a.391.391 0 0 1 .387-.376c.175 0 .339.127.314.396.06.63.18 1.26.48 1.831.037.097.114.134.215.134.284 0 .761-.293 1.086-.374-.13-.77.92-4.712 4.001-8.014.108-.116.578-.611.537-.611-.005 0-.017.006-.036.02a2.06 2.06 0 0 1-.512.07c-.337 0-.668-.104-.839-.42-.026-.077-.059-.108-.097-.108-.137 0-.344.399-.563.399a.92.92 0 0 1-.514.155c-.29 0-.578-.131-.777-.355-.19-.17-.37-.34-.56-.51zM65.498 0c.315.14.865.28 1.36.28.072 0 .142-.004.211-.01a.804.804 0 0 0 .143.012c.337 0 .699-.18 1.025-.18.124 0 .243.026.353.098.55.8 1.05 1.69 1.11 2.681.11 1.901.06 2.562-1.44 4.122-.59 1.341-1.691 5.713-2.021 6.904-.36.34.45 2.2.79 2.66.185.256.673.268 1.197.268h.172c.471 0 .948.01 1.242.193.28.18.38.85.22.94-.15-.23-.45-.54-.66-.57.2.21-.5.11-.65.16-.405.007-.814.041-1.225.041-.198 0-.397-.008-.596-.03-.09-.04-.186-.102-.229-.102-.032 0-.032.038.029.151a3.683 3.683 0 0 1-.913.111c-.7 0-1.363-.187-1.508-.56-.3-.551-.58-1.131-.78-1.732-.256.054-.577.234-.835.234a.38.38 0 0 1-.206-.054c-.28-.19-.57-1.08-.73-1.67-.016-.062-.1-.092-.183-.092-.081 0-.163.028-.188.082-.3.6-.8 2.44-1.28 3.211-.363.571-1.24.852-2.175.852a4.48 4.48 0 0 1-1.717-.332c-.65-.28-1.13-.22-.99-.58.22-.6.6-1.17 1-1.68-.58.36-1.16.73-1.74 1.09-.049.174-.17.243-.292.243-.237 0-.483-.256-.24-.513 2.272-3.282 5.884-8.875 8.385-10.685.4-.35.87-.62 1.39-.75.17-.44.12-1.031.22-1.531.1-.99.7-2.632 1.751-3.262zM50.007 0c.335 0 .67.026.995.066.447.113.217.626-.18.626a.476.476 0 0 1-.082-.008c-.84.097-1.872.15-2.506.626-.84.916-.463 2.821-.561 3.725-.007.05-.01 3.653-.01 5.48a6.145 6.145 0 0 1 2.635-.586c.402 0 .801.04 1.188.117.44.231-.077.528-.423.528a.454.454 0 0 1-.115-.013c-1.226.133-2.62.461-3.243 1.602-.061.206-.023.277.071.277.206 0 .68-.342.946-.342.014 0 .028 0 .04.003a7.535 7.535 0 0 1 1.581-.169c.39 0 .776.031 1.148.095.42.278-.095.534-.438.534a.532.532 0 0 1-.105-.01c-1.251.151-2.636.49-3.243 1.633-.007 1.27 0 2.11-.033 3.278.014.36-.22.538-.456.538-.235 0-.473-.176-.475-.526.009-1.15.091-2.161-.06-3.277-.304-1.253-2.477-1.445-3.827-1.754-.294-.347.285-.475.659-.475.056 0 .107.003.15.008.173-.013.347-.02.521-.02.882 0 1.771.175 2.557.58.032-.755-.711-1.19-1.244-1.493-.84-.361-1.765-.397-2.643-.59-.313-.273.18-.501.521-.501a.58.58 0 0 1 .125.012c.216-.02.432-.031.648-.031.903 0 1.805.183 2.615.582-.017-2.851-.063-5.61.019-8.308.065-.834.546-1.6 1.354-1.849C48.716.094 49.363 0 50.007 0zM32.378.601c-1.074 0-2.419.552-3.07 1.202-.568.57-.643 1.324-.664 2.025h7.435c-.02-.7-.095-1.455-.664-2.025-.65-.65-1.963-1.202-3.037-1.202zm0-.601c1.274 0 2.645.589 3.448 1.392.824.824.918 1.91.918 2.72v.317h-8.732v-.316c0-.812.061-1.897.886-2.72C29.7.588 31.104 0 32.378 0zM38.7 15.57L40.756 18h-1.003L38.7 16.745 37.637 18l-1.032-1.255L35.542 18l-1.053-1.255L33.426 18l-1.053-1.255L31.31 18l-1.033-1.255L29.214 18l-1.063-1.255L27.118 18l-1.063-1.255L25.002 18H24l2.055-2.43 1.063 1.175 1.033-1.175 1.063 1.175 1.063-1.175 1.033 1.175 1.063-1.175 1.053 1.175 1.063-1.175 1.053 1.175 1.063-1.175 1.032 1.175L38.7 15.57zM2.646 0L0 2.646v.708L3.177.177 3.354 0zm3 0L0 5.646v.708L6.177.177 6.354 0zm3 0L0 8.646v.708L9.177.177 9.354 0zm3 0L0 11.646v.708L12.177.177 12.354 0zm3 0L0 14.646v.708L15.177.177 15.354 0zm3 0L0 17.646V18h.354L18.177.177 18.354 0zm3 0L2.823 17.823 2.646 18h.708L21.177.177 21.354 0zM22 1.646L5.823 17.823 5.646 18h.708L22 2.354v-.708zm0 3L8.823 17.823 8.646 18h.708L22 5.354v-.708zm0 3L11.823 17.823l-.177.177h.708L22 8.354v-.708zm0 3l-7.177 7.177-.177.177h.708L22 11.354v-.708zm0 3l-4.177 4.177-.177.177h.708L22 14.354v-.708zm0 3l-1.177 1.177-.177.177h.708l.646-.646v-.708z"/></svg>