<svg xmlns="http://www.w3.org/2000/svg" width="195.434" height="18"><path d="M193.787 0c.335 0 .67.026.994.066.447.113.218.626-.18.626a.476.476 0 0 1-.082-.008c-.839.097-1.872.15-2.506.626-.84.916-.463 2.821-.56 3.725-.008.05-.01 3.653-.01 5.48a6.145 6.145 0 0 1 2.634-.586c.402 0 .802.04 1.188.117.44.231-.077.528-.423.528a.454.454 0 0 1-.114-.013c-1.226.133-2.62.461-3.243 1.602-.062.206-.023.277.07.277.207 0 .68-.342.947-.342.014 0 .027 0 .04.003a7.535 7.535 0 0 1 1.58-.169c.39 0 .776.031 1.149.095.42.278-.096.534-.438.534a.532.532 0 0 1-.105-.01c-1.252.151-2.637.49-3.243 1.633-.007 1.27 0 2.11-.034 3.278.015.36-.219.538-.456.538-.235 0-.473-.176-.474-.526.008-1.15.09-2.161-.06-3.277-.305-1.253-2.478-1.445-3.827-1.754-.295-.347.285-.475.658-.475.056 0 .107.003.15.008.173-.013.347-.02.522-.02.882 0 1.77.175 2.557.58.032-.755-.712-1.19-1.244-1.493-.84-.361-1.766-.397-2.643-.59-.314-.273.18-.501.521-.501a.58.58 0 0 1 .125.012c.215-.02.431-.031.648-.031.902 0 1.804.183 2.614.582-.017-2.851-.063-5.61.019-8.308.066-.834.546-1.6 1.354-1.849.581-.264 1.227-.358 1.872-.358zm-23.995 2.99q-.557 0-1.087.606 4.368 5.2 5.46 5.81.815.457 1.434.457.211 0 .4-.053.74-.208 1.585-.234h.043q.828 0 1.817.988h.13q-.703-1.638-1.964-2.34-1.26-.702-7.397-5.148-.212-.085-.421-.085zm7.73-2.369q-.065 0-.133.01v6.683q2.055 1.196 2.835 3.354-1.196-8.268-1.678-9.204-.432-.843-1.023-.843zm5.356 10.468q.081 0 .154.138.13.247-.234.689-.208-.546-.052-.741.068-.086.132-.086zm-.036-.372q-.153 0-.33.237-.39.52.234 2.08.702-1.352.429-1.976-.15-.34-.333-.34zm-6.805 2.577v.39q.286-.026.442-.182-.052-.078-.208-.208zm-.598.884l-2.418.338-.494.884q.832-.234 1.833-.624t1.08-.598zm5.33-.364l-.467.234-.156 1.118.416 1.274h.65l-.442-1.274v-1.352zm-1.117.39l-.442.13-.156.832.416 1.274h.65l-.442-1.274-.026-.962zm-1.535.156l-.156.806.416 1.274h.65l-.442-1.274v-.78l-.468-.026zm.995-3.234q-.416 0-.89.1-1.405.3-1.769 1.418h-1.092l-.416-.676q-5.512 1.274-6.214 4.602 1.508-.832 3.172-1.118l.728-1.456 2.886-.39-.078-.702h.988q1.092.9 2.229.9.243 0 .489-.042 1.39-.234 1.82-.95.429-.714-.455-1.3-.585-.386-1.398-.386zM177.266 0q.948 0 1.488.658.664.806 1.236 4.238l.91 5.954q.442.468.676.52h.312q.026-.65.494-1.196.416-3.978-.364-6.968l.312-.598q1.118 3.38.546 7.592h.078q1.794-4.03.52-7.592l.312-.468q1.664 3.796-.364 8.242.572 1.248.117 2.054-.455.806-.56 1.508l-.181.13q-.702-1.04-.806-1.794h-.26q-.026.598-.338 1.248l-.182 1.638.442 1.274h2.262v.624h-6.527v-.624h.546l-.416-1.274-.026-.962q-.468-.156-.702-.364-.338.312-.754.312.026.26-.104.442-1.04.806-3.718 1.404l-.91 1.768q0-.434-.269-.434-.086 0-.199.044l.728-1.3q-1.508.338-2.288.858-.416.442.052 1.066-1.04-.442-1.17-1.248.416-3.926 7.046-5.46l.468.78h.416q.338-1.092 2.678-1.508-.522-.388-1.284-.388-.414 0-.9.115-.492.116-.96.116-.845 0-1.614-.376-1.196-.585-6.084-6.461.901-1.136 1.905-1.136.33 0 .67.122l6.317 4.524V.034q.235-.034.45-.034z"/><path d="M158.425.375c9.625 0 9.625 17.25 0 17.25" fill="none" stroke="#000"/><path d="M134.646 0l-.22.221v.707l.75-.751.178-.177zm3 0l-3.22 3.221v.707l3.75-3.751.178-.177zm3 0l-6.22 6.221v.707l6.75-6.751.178-.177zm3 0l-9.22 9.221v.707l9.75-9.751.178-.177zm3 0l-12.22 12.221v.707L147.175.177l.178-.177zm3 0l-15.22 15.221v.707L150.175.177l.178-.177zm3 0l-17.823 17.823-.177.177h.708L153.177.177l.177-.177zm3 0l-17.823 17.823-.177.177h.708L156.177.177l.177-.177zm.78 2.221l-15.603 15.602-.177.177h.708l15.071-15.072v-.707zm0 3l-12.603 12.602-.177.177h.708l12.071-12.072v-.707zm0 3l-9.603 9.602-.177.177h.708l9.071-9.072v-.707zm0 3l-6.603 6.602-.177.177h.708l6.071-6.072v-.707zm0 3l-3.603 3.602-.177.177h.708l3.071-3.072v-.707zm0 3l-.603.602-.177.177h.708l.071-.072v-.707z"/><path d="M158.425.221l-2 2v.707l2-2V.221zm0 3l-2 2v.707l2-2v-.707zm0 3l-2 2v.707l2-2v-.707zm0 3l-2 2v.707l2-2v-.707zm0 3l-2 2v.707l2-2v-.707zm0 3l-2 2v.707l2-2v-.707zM110.646 0l-.22.221v.707l.75-.751.178-.177zm3 0l-3.22 3.221v.707l3.75-3.751.178-.177zm3 0l-6.22 6.221v.707l6.75-6.751.178-.177zm3 0l-9.22 9.221v.707l9.75-9.751.178-.177zm3 0l-12.22 12.221v.707L123.175.177l.178-.177zm3 0l-15.22 15.221v.707L126.175.177l.178-.177zm3 0l-17.823 17.823-.177.177h.708L129.177.177l.177-.177zm3 0l-17.823 17.823-.177.177h.708L132.177.177l.177-.177zm.78 2.221l-15.603 15.602-.177.177h.708l15.071-15.072v-.707zm0 3l-12.603 12.602-.177.177h.708l12.071-12.072v-.707zm0 3l-9.603 9.602-.177.177h.708l9.071-9.072v-.707zm0 3l-6.603 6.602-.177.177h.708l6.071-6.072v-.707zm0 3l-3.603 3.602-.177.177h.708l3.071-3.072v-.707zm0 3l-.603.602-.177.177h.708l.071-.072v-.707z"/><path d="M134.425.221l-2 2v.707l2-2V.221zm0 3l-2 2v.707l2-2v-.707zm0 3l-2 2v.707l2-2v-.707zm0 3l-2 2v.707l2-2v-.707zm0 3l-2 2v.707l2-2v-.707zm0 3l-2 2v.707l2-2v-.707zM98.646 0l-1.22 1.221v.707l1.75-1.751.178-.177zm3 0l-4.22 4.221v.707l4.75-4.751.178-.177zm3 0l-7.22 7.221v.707l7.75-7.751.178-.177zm3 0l-10.22 10.221v.707L108.175.177l.178-.177zm.78 2.221l-11 11v.707l11-11v-.707zm0 3l-11 11v.707l11-11v-.707zm0 3l-9.603 9.602-.177.177h.708l9.071-9.072v-.707zm0 3l-6.603 6.602-.177.177h.708l6.071-6.072v-.707zm0 3l-3.603 3.602-.177.177h.708l3.071-3.072v-.707zm0 3l-.603.602-.177.177h.708l.071-.072v-.707z"/><path d="M110.425.221l-2 2v.707l2-2V.221zm0 3l-2 2v.707l2-2v-.707zm0 3l-2 2v.707l2-2v-.707zm0 3l-2 2v.707l2-2v-.707zm0 3l-2 2v.707l2-2v-.707zm0 3l-2 2v.707l2-2v-.707z"/><path d="M87.925.375c9.625 0 9.625 17.25 0 17.25" fill="none" stroke="#000"/><path d="M81.704 7.938c.68.054 1.057.394 1.129 1.022-.09.68-.466 1.04-1.13 1.075-.663-.036-1.012-.394-1.048-1.075.054-.628.403-.968 1.049-1.022zm-.081-2.259c-.484 0-.932.09-1.345.27a3.545 3.545 0 0 0-1.828 1.815 3.11 3.11 0 0 0-.269 1.276c0 .466.09.901.269 1.304a3.422 3.422 0 0 0 3.173 2.03c.484 0 .937-.085 1.358-.255.421-.17.784-.408 1.089-.712.305-.305.547-.66.726-1.063.18-.403.269-.838.269-1.304 0-.448-.09-.874-.27-1.277a3.67 3.67 0 0 0-.725-1.075 3.302 3.302 0 0 0-1.09-.74 3.431 3.431 0 0 0-1.357-.269zm.054-.914a4.17 4.17 0 0 1 1.667.336c.52.224.968.529 1.344.914.377.386.677.834.901 1.345.224.51.336 1.062.336 1.653 0 .592-.112 1.143-.336 1.654a4.31 4.31 0 0 1-.9 1.331 4.267 4.267 0 0 1-3.012 1.237 4.071 4.071 0 0 1-1.654-.336 4.48 4.48 0 0 1-1.344-.9 4.195 4.195 0 0 1-.915-1.332 4.071 4.071 0 0 1-.336-1.654c0-.591.112-1.142.336-1.653a4.358 4.358 0 0 1 2.259-2.26 4.071 4.071 0 0 1 1.654-.336zm-8.634 7.018c-.534.205-1.117.861-1.287 1.402-.17.54-.15 1.171-.03 1.792.12.61.36 1.191.65 1.571.201.26.381.41.551.46h.16c.17-.04.391-.19.611-.46.29-.38.53-.96.65-1.571.121-.621.141-1.252-.03-1.792-.17-.541-.807-1.243-1.275-1.395v-.007zM73.608 0v1.201h1.081v.771h-1.08l.15 9.09c.77.4 1.25 1.081 1.48 1.812.231.751.241 1.562.091 2.313-.15.75-.45 1.411-.86 1.942-.311.4-.722.73-1.202.831v.03c-.03.01-.06.01-.09.01-.04 0-.08-.01-.12-.01-.05.01-.1.01-.14.01-.04 0-.07 0-.11-.01v-.03c-.481-.1-.892-.43-1.202-.831a4.654 4.654 0 0 1-.861-1.942c-.15-.751-.14-1.562.09-2.313a2.97 2.97 0 0 1 1.482-1.782l.15-9.12h-1.021l-.03-.77h1.14V0h1.052zm-5.962 2.196q.12 0 .288.147.662.89.713 2.544-.204 1.298-.916 3.665.254 1.908.381 5.242.102 1.12-.61 1.45-2.112.56-5.344.56-3.257 0-5.344-.56-.738-.33-.636-1.45.127-3.334.381-5.242-.712-2.367-.916-3.665.051-1.654.713-2.544.168-.147.288-.147.171 0 .246.3-.178.508-.33.992-.204.61-.153 1.145.05.865.165 1.412.115.547.471.547l.037.002q.6 0 .6-1.605 0-.585-.154-1.425.132-.223.283-.223.142 0 .303.198.076.61.102 1.348.101 1.12-.535 3.156.23 2.875.23 5.75 1.73.28 4.249.357 2.494-.076 4.224-.356 0-2.876.229-5.751-.636-2.036-.534-3.156.025-.738.101-1.348.16-.198.303-.198.152 0 .283.223-.153.84-.153 1.425 0 1.605.599 1.605l.037-.002q.356 0 .47-.547.115-.547.166-1.412.051-.535-.152-1.145-.153-.484-.331-.993.075-.299.246-.299zM53.643 5.34v7.32h-1.225V5.34z"/><path d="M42.73.375v17.25M50.418.375c-9.625 0-9.625 17.25 0 17.25m0 0" fill="none" stroke="#000"/><path d="M34.761.597a2.12 2.12 0 0 0-.692.109c.031.223.169.569.953.773-.73-.053-1.206-.113-1.452-.307-.09.2-.137.427-.158.556a.297.297 0 0 1-.207.237c-.624.191-1.173 1.112-1.7 1.763-.95 1.173-1.771 2.48-2.688 3.733l1.27-.622c1.182-.622 2.395-1.11 3.407-1.877.589-.49 1.172-.996 1.39-1.641.076-.497-.296-1.074-.767-1.279a.297.297 0 1 1 .238-.545c.377.164.7.458.904.817a1.986 1.986 0 0 0-.075-.448.297.297 0 0 1-.012-.104c.01-.184.041-.313.082-.422.04-.109.085-.206.157-.459a.297.297 0 0 1 .105-.153 1.546 1.546 0 0 0-.527-.125C34.946.6 34.905.6 34.864.599a.258.258 0 1 1-.103-.002zm-1.193 5.432c-.606.466-1.253.873-1.888 1.28a13 13 0 0 1-.047 1.321c.207-.135.434-.236.697-.3.39-.636.82-1.22 1.082-1.842.054-.129.105-.29.156-.46zm.248 1c-.273.549-.62 1.04-.928 1.529.059.04.112.08.155.121l.027.027a1.72 1.72 0 0 1 .613-.454c-.01-.348.047-.768.133-1.222zm-2.88.047a25.922 25.922 0 0 0-.588.297c-.78.38-1.56.772-2.349 1.148-.556.67-1.157 1.293-1.735 1.92l1.044.175L29.87 7.83a.297.297 0 0 1 .04-.036 18.5 18.5 0 0 1 1.026-.718zm2.592 2.009c-.058.066-.112.14-.162.222a.298.298 0 0 1-.429.087c-.125-.09-.2-.177-.266-.244l-.077 1.413c.1-.006.201-.013.296-.013.167 0 .314.022.398.108.1-.078.28-.1.504-.1.058 0 .118.002.18.005l-.444-1.478zm5.418.999c-.451.062-.686.323-.703.783h1.394c0-.46-.23-.721-.69-.783zm-7.86-2.39a16.38 16.38 0 0 0-.798.56l-2.403 2.613h2.456c.171-.19.519-.365.776-.365.074 0 .14.014.192.046.082-.007.168-.01.256-.01.14 0 .286.007.434.016l.082-1.506c-.224.115-.407.282-.625.542a.297.297 0 0 1-.52-.246c.1-.544.142-1.093.15-1.65zm6.24 3.745l.266.465h1.248l.253-.465zm-4.516 0v2.51l1.727-2.51zM34.754 0a3.878 3.878 0 0 1 .272.01c.695.044 1.215.325 1.408.768a.298.298 0 0 1-.34.408l-.025-.006-.03.007-.108.029c-.055.168-.096.269-.12.332a.541.541 0 0 0-.042.2c.154.552.094 1.107.036 1.389-.095.466-.384.977-.76 1.46a.295.295 0 0 1-.015.108 21.24 21.24 0 0 0-.548 2.027c-.152.708-.233 1.387-.192 1.684a.297.297 0 0 1-.223.33l-.019.005.527 1.75c.086-.013.173-.018.26-.018.256 0 .509.041.712.041a.865.865 0 0 0 .183-.016.314.314 0 0 1 .068-.007c.212 0 .657.13.787.366h1.1c.062-.797.482-1.235 1.261-1.315.788.08 1.196.518 1.222 1.315v.572h-.53l-.545 1.01h-1.767l-.531-1.01h-1.568l-2.404 3.493V18h-.571v-6.561h-4.516v-.41l-.1.109a.297.297 0 0 1-.268.092l-1.74-.292a.298.298 0 0 1-.172-.492c.216-.242.436-.48.656-.716l-1.657 1.078a.296.296 0 0 1-.411-.087.297.297 0 0 1 .087-.411l1.344-.876a.292.292 0 0 1-.076-.09.315.315 0 0 1-.02-.237.305.305 0 0 1 .048-.093c.055-.076.084-.088.124-.119l.13-.094c.096-.065.207-.137.301-.2a4.156 4.156 0 0 0 .217-.156l2.378-1.672.008-.005c.806-1.13 1.568-2.316 2.457-3.414.433-.535.938-1.524 1.812-1.894.048-.262.157-.68.484-.997C33.69.119 34.2 0 34.754 0zM0 0v.354L.177.177.354 0zm2.646 0L0 2.646v.708L3.177.177 3.354 0zm3 0L0 5.646v.708L6.177.177 6.354 0zm3 0L0 8.646v.708L9.177.177 9.354 0zm3 0L0 11.646v.708L12.177.177 12.354 0zm3 0L0 14.646v.708L15.177.177 15.354 0zm3 0L0 17.646V18h.354L18.177.177 18.354 0zm3 0L2.823 17.823 2.646 18h.708L21.177.177 21.354 0zM22 1.646L5.823 17.823 5.646 18h.708L22 2.354v-.708zm0 3L8.823 17.823 8.646 18h.708L22 5.354v-.708zm0 3L11.823 17.823l-.177.177h.708L22 8.354v-.708zm0 3l-7.177 7.177-.177.177h.708L22 11.354v-.708zm0 3l-4.177 4.177-.177.177h.708L22 14.354v-.708zm0 3l-1.177 1.177-.177.177h.708l.646-.646v-.708z"/></svg>