<svg xmlns="http://www.w3.org/2000/svg" width="200.455" height="18"><path d="M198.808 0c.336 0 .67.026.995.066.447.113.217.626-.18.626a.476.476 0 0 1-.082-.008c-.839.097-1.872.15-2.506.626-.84.916-.463 2.821-.56 3.725-.008.05-.01 3.653-.01 5.48a6.145 6.145 0 0 1 2.634-.586c.402 0 .801.04 1.188.117.44.231-.077.528-.423.528a.454.454 0 0 1-.114-.013c-1.226.133-2.62.461-3.243 1.602-.062.206-.023.277.07.277.207 0 .68-.342.947-.342.014 0 .027 0 .04.003a7.535 7.535 0 0 1 1.58-.169c.39 0 .776.031 1.148.095.421.278-.095.534-.437.534a.532.532 0 0 1-.105-.01c-1.252.151-2.637.49-3.243 1.633-.007 1.27 0 2.11-.034 3.278.015.36-.22.538-.456.538-.235 0-.473-.176-.474-.526.008-1.15.09-2.161-.06-3.277-.305-1.253-2.478-1.445-3.827-1.754-.295-.347.285-.475.658-.475.056 0 .107.003.15.008.173-.013.347-.02.521-.02.883 0 1.772.175 2.558.58.032-.755-.712-1.19-1.244-1.493-.84-.361-1.766-.397-2.643-.59-.314-.273.18-.501.52-.501a.58.58 0 0 1 .126.012c.215-.02.431-.031.648-.031.902 0 1.804.183 2.614.582-.017-2.851-.063-5.61.019-8.308.066-.834.546-1.6 1.354-1.849.58-.264 1.227-.358 1.871-.358zm-23.995 2.99q-.557 0-1.086.606 4.368 5.2 5.46 5.81.815.457 1.434.457.211 0 .4-.053.74-.208 1.585-.234h.043q.828 0 1.816.988h.13q-.702-1.638-1.963-2.34-1.26-.702-7.397-5.148-.213-.085-.422-.085zm7.732-2.369q-.066 0-.134.01v6.683q2.054 1.196 2.834 3.354-1.196-8.268-1.677-9.204-.433-.843-1.023-.843zM187.9 11.09q.08 0 .153.138.13.247-.234.689-.208-.546-.052-.741.07-.086.133-.086zm-.036-.372q-.153 0-.33.237-.39.52.233 2.08.702-1.352.43-1.976-.15-.34-.333-.34zm-6.805 2.577v.39q.286-.026.442-.182-.052-.078-.208-.208zm-.598.884l-2.418.338-.494.884q.832-.234 1.833-.624t1.08-.598zm5.33-.364l-.468.234-.156 1.118.416 1.274h.65l-.442-1.274v-1.352zm-1.118.39l-.442.13-.156.832.416 1.274h.65l-.442-1.274-.026-.962zm-1.534.156l-.156.806.416 1.274h.65l-.442-1.274v-.78l-.468-.026zm.995-3.234q-.416 0-.89.1-1.405.3-1.769 1.418h-1.092l-.416-.676q-5.512 1.274-6.214 4.602 1.508-.832 3.172-1.118l.728-1.456 2.886-.39-.078-.702h.988q1.092.9 2.228.9.244 0 .49-.042 1.39-.234 1.82-.95.428-.714-.456-1.3-.585-.386-1.397-.386zM182.288 0q.947 0 1.488.658.663.806 1.235 4.238l.91 5.954q.442.468.676.52h.312q.026-.65.494-1.196.416-3.978-.364-6.968l.312-.598q1.118 3.38.546 7.592h.078q1.794-4.03.52-7.592l.312-.468q1.664 3.796-.364 8.242.572 1.248.117 2.054-.455.806-.559 1.508l-.182.13q-.702-1.04-.806-1.794h-.26q-.026.598-.338 1.248l-.182 1.638.442 1.274h2.262v.624h-6.526v-.624h.546l-.416-1.274-.026-.962q-.468-.156-.702-.364-.338.312-.754.312.026.26-.104.442-1.04.806-3.718 1.404l-.91 1.768q0-.434-.27-.434-.085 0-.198.044l.728-1.3q-1.508.338-2.288.858-.416.442.052 1.066-1.04-.442-1.17-1.248.416-3.926 7.046-5.46l.468.78h.416q.338-1.092 2.678-1.508-.522-.388-1.284-.388-.415 0-.9.115-.492.116-.96.116-.845 0-1.614-.376-1.196-.585-6.084-6.461.9-1.136 1.905-1.136.329 0 .67.122l6.317 4.524V.034q.235-.034.449-.034z"/><path d="M163.447.375c9.625 0 9.625 17.25 0 17.25" fill="none" stroke="#000"/><path d="M160.323 1.58q-1.094 1.135-1.59 2.583-.497 1.449.445 1.702.136.036.259.036.724 0 .967-1.282.283-1.5-.081-3.039zm-15.731-.435q-.137 0-.222.101-.314.375.932 1.995 1.246 1.621 2.664 3.201 1.418 1.58 2.896 1.884 1.48.304 6.24.83l1.843.487q.486-.75.365-1.5-.59-.259-1.012-.259-.665 0-.913.645-4.836-1.382-7-1.382-.12 0-.232.004-3.403-4.254-4.436-5.267-.754-.74-1.125-.74zM144.299 0h.02q.892.02 2.016 1.145 1.124 1.124 4.142 5.115 1.722.182 6.604 1.479.436-.78 1.083-.78.075 0 .153.01l.101-.426q-1.499-1.438-.182-3.636 1.248-2.083 2.168-2.083.051 0 .101.007.891.385.942 2.947.05 2.563-2.036 3.05l-.121.445q.688.182.82.911.132.73-.172 1.53-.243.638-1.027.638-.198 0-.432-.04l-.202.749-.993-.284.223-.85-.547-.142q-4.72-.365-7.698-1.033-5.814-5.227-5.824-7-.01-1.752.861-1.752zm8.143 14.02q-3.171 0-6.726 1.532 3.555 1.49 6.726 1.49 3.151 0 6.727-1.49-3.576-1.533-6.727-1.533zm0-.98q3.917 0 9.005 2.49-5.088 2.47-9.005 2.47-3.916 0-9.004-2.47 5.066-2.49 9.004-2.49zM136.75.601c-1.074 0-2.418.552-3.068 1.202-.57.57-.644 1.324-.665 2.025h7.435c-.02-.7-.095-1.455-.664-2.025-.65-.65-1.964-1.202-3.038-1.202zm0-.601c1.275 0 2.646.589 3.449 1.392.824.824.918 1.91.918 2.72v.317h-8.733v-.316c0-.812.062-1.897.886-2.72C134.074.588 135.476 0 136.75 0zm.284 11.024l.02.01-3.624 6.946h-1.367l3.624-6.956zm3.037.01l1.367.01L137.814 18l-1.367-.01 3.624-6.955zM124.656.597a2.12 2.12 0 0 0-.692.109c.031.223.169.569.953.773-.73-.053-1.206-.113-1.453-.307a2.45 2.45 0 0 0-.158.556.297.297 0 0 1-.206.237c-.625.191-1.174 1.112-1.7 1.763-.95 1.173-1.772 2.48-2.688 3.733.423-.207.845-.415 1.27-.622 1.182-.622 2.394-1.11 3.407-1.877.588-.49 1.171-.996 1.39-1.641.076-.497-.296-1.074-.767-1.279a.297.297 0 1 1 .238-.545c.376.164.699.458.904.817a1.986 1.986 0 0 0-.075-.448.297.297 0 0 1-.013-.104c.01-.184.042-.313.082-.422.041-.109.085-.206.158-.459a.297.297 0 0 1 .104-.153 1.546 1.546 0 0 0-.527-.125C124.841.6 124.8.6 124.758.599a.258.258 0 1 1-.102-.002zm-1.194 5.432c-.605.466-1.253.873-1.888 1.28.005.438-.006.879-.047 1.321.207-.135.434-.236.697-.3.392-.636.82-1.22 1.083-1.842a4.64 4.64 0 0 0 .155-.46zm.249 1c-.273.549-.621 1.04-.928 1.529.059.04.112.08.154.121l.027.027c.17-.194.375-.351.614-.454-.01-.348.047-.768.133-1.222zm-2.88.047a25.922 25.922 0 0 0-.588.297c-.78.38-1.56.772-2.35 1.148-.556.67-1.156 1.293-1.734 1.92l1.043.175 2.563-2.786a.297.297 0 0 1 .04-.036c.333-.253.678-.489 1.025-.718zm2.591 2.009c-.058.066-.112.14-.161.222a.298.298 0 0 1-.43.087c-.124-.09-.2-.177-.265-.244l-.077 1.413c.1-.006.2-.013.296-.013.166 0 .313.022.398.108.1-.078.28-.1.504-.1.057 0 .118.002.18.005l-.445-1.478zm5.419.999c-.452.062-.686.323-.704.783h1.395c0-.46-.23-.721-.691-.783zm-7.861-2.39c-.274.182-.541.367-.798.56l-2.402 2.613h2.456c.17-.19.518-.365.776-.365.073 0 .14.014.192.046.081-.007.167-.01.256-.01.14 0 .285.007.433.016l.083-1.506c-.225.115-.407.282-.625.542a.297.297 0 0 1-.52-.246c.1-.544.141-1.093.149-1.65zm6.24 3.745l.266.465h1.249l.252-.465zm-4.515 0v2.51l1.726-2.51zM124.648 0a3.878 3.878 0 0 1 .273.01c.694.044 1.215.325 1.408.768a.298.298 0 0 1-.341.408l-.025-.006-.03.007-.108.029c-.054.168-.096.269-.12.332a.541.541 0 0 0-.042.2 3.1 3.1 0 0 1 .037 1.389c-.095.466-.384.977-.761 1.46a.295.295 0 0 1-.014.108 21.24 21.24 0 0 0-.548 2.027c-.152.708-.234 1.387-.192 1.684a.297.297 0 0 1-.223.33l-.019.005.527 1.75c.086-.013.172-.018.259-.018.256 0 .51.041.712.041a.865.865 0 0 0 .184-.016.314.314 0 0 1 .068-.007c.212 0 .656.13.787.366h1.1c.061-.797.482-1.235 1.26-1.315.789.08 1.196.518 1.223 1.315v.572h-.531l-.545 1.01h-1.767l-.53-1.01h-1.568l-2.404 3.493V18h-.571v-6.561h-4.517v-.41l-.099.109a.297.297 0 0 1-.268.092l-1.74-.292a.298.298 0 0 1-.173-.492c.217-.242.436-.48.656-.716l-1.656 1.078a.296.296 0 0 1-.412-.087.297.297 0 0 1 .087-.411l1.345-.876a.292.292 0 0 1-.076-.09.315.315 0 0 1-.02-.237c.016-.05.034-.074.048-.093.055-.076.084-.088.123-.119.04-.03.084-.06.131-.094.096-.065.206-.137.301-.2a4.156 4.156 0 0 0 .216-.156l2.379-1.672.008-.005c.805-1.13 1.568-2.316 2.457-3.414.433-.535.937-1.524 1.812-1.894.048-.262.157-.68.483-.997.353-.344.864-.463 1.416-.463z"/><path d="M104.207.375v17.25m7.688-17.25c-9.625 0-9.625 17.25 0 17.25m0 0" fill="none" stroke="#000"/><path d="M96.237.597a2.12 2.12 0 0 0-.692.109c.032.223.17.569.953.773-.73-.053-1.206-.113-1.452-.307-.089.2-.137.427-.158.556a.297.297 0 0 1-.207.237c-.624.191-1.173 1.112-1.7 1.763-.95 1.173-1.771 2.48-2.688 3.733l1.27-.622c1.182-.622 2.395-1.11 3.407-1.877.589-.49 1.172-.996 1.391-1.641.076-.497-.297-1.074-.768-1.279a.297.297 0 1 1 .238-.545c.377.164.7.458.904.817a1.986 1.986 0 0 0-.074-.448.297.297 0 0 1-.013-.104c.01-.184.041-.313.082-.422.04-.109.085-.206.158-.459a.297.297 0 0 1 .104-.153 1.546 1.546 0 0 0-.527-.125C96.422.6 96.38.6 96.34.599a.258.258 0 1 1-.103-.002zm-1.193 5.432c-.606.466-1.253.873-1.888 1.28.005.438-.006.879-.047 1.321.207-.135.434-.236.697-.3.391-.636.82-1.22 1.082-1.842.055-.129.106-.29.156-.46zm.249 1c-.273.549-.622 1.04-.929 1.529.06.04.112.08.155.121l.027.027a1.72 1.72 0 0 1 .613-.454c-.009-.348.048-.768.134-1.222zm-2.881.047a25.922 25.922 0 0 0-.588.297c-.78.38-1.56.772-2.349 1.148-.556.67-1.156 1.293-1.734 1.92l1.043.175 2.563-2.786a.297.297 0 0 1 .039-.036 18.5 18.5 0 0 1 1.026-.718zm2.592 2.009c-.058.066-.112.14-.162.222a.298.298 0 0 1-.429.087c-.125-.09-.2-.177-.265-.244l-.078 1.413c.1-.006.202-.013.296-.013.167 0 .314.022.398.108.1-.078.28-.1.504-.1.058 0 .118.002.181.005l-.445-1.478zm5.419.999c-.452.062-.687.323-.704.783h1.394c0-.46-.23-.721-.69-.783zm-7.861-2.39a16.38 16.38 0 0 0-.798.56l-2.403 2.613h2.457c.17-.19.518-.365.776-.365.073 0 .139.014.191.046.082-.007.168-.01.256-.01.14 0 .286.007.434.016l.083-1.506c-.225.115-.408.282-.626.542a.297.297 0 0 1-.52-.246 9.773 9.773 0 0 0 .15-1.65zm6.24 3.745l.266.465h1.248l.253-.465zm-4.516 0v2.51l1.727-2.51zM96.23 0a3.878 3.878 0 0 1 .273.01c.694.044 1.215.325 1.407.768a.298.298 0 0 1-.34.408l-.025-.006-.03.007-.108.029c-.054.168-.096.269-.12.332a.541.541 0 0 0-.042.2c.154.552.094 1.107.037 1.389-.096.466-.384.977-.762 1.46a.295.295 0 0 1-.014.108 21.85 21.85 0 0 0-.548 2.027c-.152.708-.233 1.387-.192 1.684a.297.297 0 0 1-.223.33l-.018.005.527 1.75c.085-.013.172-.018.259-.018.256 0 .509.041.712.041a.865.865 0 0 0 .183-.016.314.314 0 0 1 .069-.007c.211 0 .656.13.786.366h1.1c.062-.797.482-1.235 1.262-1.315.788.08 1.195.518 1.222 1.315v.572h-.532l-.544 1.01h-1.767l-.531-1.01h-1.567l-2.405 3.493V18h-.57v-6.561h-4.517v-.41l-.1.109a.297.297 0 0 1-.267.092l-1.74-.292a.298.298 0 0 1-.173-.492c.216-.242.436-.48.656-.716l-1.657 1.078a.296.296 0 0 1-.411-.087.297.297 0 0 1 .087-.411l1.345-.876a.292.292 0 0 1-.077-.09.315.315 0 0 1-.02-.237.305.305 0 0 1 .048-.093c.056-.076.084-.088.124-.119l.13-.094c.096-.065.207-.137.302-.2a4.156 4.156 0 0 0 .216-.156l2.378-1.672.008-.005c.806-1.13 1.568-2.316 2.457-3.414.433-.535.938-1.524 1.812-1.894.049-.262.157-.68.484-.997C95.167.119 95.678 0 96.23 0zM77.952 18.048c-2.597 0-2.597-3.896 0-3.896 2.598 0 2.598 3.896 0 3.896zM70.476 0v7.35h-.735V0zm-4.37 0v7.35h-.735V0zm-4.37 0v7.35H61V0zm8.74 10.65V18h-.735v-7.35zm-4.37 0V18h-.735v-7.35zm-4.37 0V18H61v-7.35zm-8.26 7.398c-2.597 0-2.597-3.896 0-3.896s2.597 3.896 0 3.896zM2.646 0L0 2.646v.708L3.177.177 3.354 0zm3 0L0 5.646v.708L6.177.177 6.354 0zm3 0L0 8.646v.708L9.177.177 9.354 0zm3 0L0 11.646v.708L12.177.177 12.354 0zm3 0L0 14.646v.708L15.177.177 15.354 0zm3 0L0 17.646V18h.354L18.177.177 18.354 0zm3 0L2.823 17.823 2.646 18h.708L21.177.177 21.354 0zm3 0L5.823 17.823 5.646 18h.708L24.177.177 24.354 0zm3 0L8.823 17.823 8.646 18h.708L27.177.177 27.354 0zm3 0L11.823 17.823l-.177.177h.708L30.177.177 30.354 0zm3 0L14.823 17.823l-.177.177h.708L33.177.177 33.354 0zm3 0L17.823 17.823l-.177.177h.708L36.177.177 36.354 0zm3 0L20.823 17.823l-.177.177h.708L39.177.177 39.354 0zm3 0L23.823 17.823l-.177.177h.708L42.177.177 42.354 0zm3 0L26.823 17.823l-.177.177h.708L45.177.177 45.354 0zM46 1.646L29.823 17.823l-.177.177h.708L46 2.354v-.708zm0 3L32.823 17.823l-.177.177h.708L46 5.354v-.708zm0 3L35.823 17.823l-.177.177h.708L46 8.354v-.708zm0 3l-7.177 7.177-.177.177h.708L46 11.354v-.708zm0 3l-4.177 4.177-.177.177h.708L46 14.354v-.708zm0 3l-1.177 1.177-.177.177h.708l.646-.646v-.708z"/></svg>