<svg xmlns="http://www.w3.org/2000/svg" width="437.809" height="18"><path d="M436.162 0c.335 0 .67.026.994.066.448.113.218.626-.18.626a.476.476 0 0 1-.081-.008c-.84.097-1.872.15-2.506.626-.841.916-.463 2.821-.561 3.725-.007.05-.01 3.653-.01 5.48a6.145 6.145 0 0 1 2.635-.586c.402 0 .8.04 1.187.117.441.231-.076.528-.422.528a.454.454 0 0 1-.115-.013c-1.226.133-2.62.461-3.243 1.602-.061.206-.023.277.071.277.206 0 .68-.342.946-.342.014 0 .028 0 .04.003a7.535 7.535 0 0 1 1.58-.169c.39 0 .777.031 1.15.095.42.278-.097.534-.439.534a.532.532 0 0 1-.105-.01c-1.251.151-2.636.49-3.243 1.633-.007 1.27 0 2.11-.033 3.278.014.36-.22.538-.456.538-.235 0-.473-.176-.475-.526.009-1.15.091-2.161-.06-3.277-.304-1.253-2.477-1.445-3.827-1.754-.294-.347.285-.475.659-.475.055 0 .107.003.15.008.173-.013.347-.02.521-.02.882 0 1.771.175 2.557.58.032-.755-.711-1.19-1.244-1.493-.84-.361-1.765-.397-2.643-.59-.313-.273.18-.501.521-.501a.58.58 0 0 1 .125.012 7.01 7.01 0 0 1 .648-.031c.903 0 1.805.183 2.614.582-.016-2.851-.062-5.61.02-8.308.065-.834.546-1.6 1.354-1.849.58-.264 1.227-.358 1.87-.358zm-23.995 2.99q-.557 0-1.086.606 4.368 5.2 5.46 5.81.814.457 1.434.457.21 0 .399-.053.74-.208 1.586-.234h.042q.828 0 1.817.988h.13q-.702-1.638-1.963-2.34-1.261-.702-7.397-5.148-.213-.085-.422-.085zm7.731-2.369q-.066 0-.133.01v6.683q2.054 1.196 2.834 3.354-1.196-8.268-1.677-9.204-.433-.843-1.024-.843zm5.356 10.468q.08 0 .153.138.13.247-.234.689-.208-.546-.052-.741.069-.086.133-.086zm-.037-.372q-.153 0-.33.237-.39.52.234 2.08.702-1.352.429-1.976-.149-.34-.333-.34zm-6.804 2.577v.39q.286-.026.442-.182-.052-.078-.208-.208zm-.598.884l-2.418.338-.494.884q.832-.234 1.833-.624 1-.39 1.079-.598zm5.33-.364l-.468.234-.156 1.118.416 1.274h.65l-.442-1.274v-1.352zm-1.118.39l-.442.13-.156.832.416 1.274h.65l-.442-1.274-.026-.962zm-1.534.156l-.156.806.416 1.274h.65l-.442-1.274v-.78l-.468-.026zm.994-3.234q-.415 0-.89.1-1.404.3-1.768 1.418h-1.092l-.416-.676q-5.512 1.274-6.214 4.602 1.508-.832 3.172-1.118l.728-1.456 2.886-.39-.078-.702h.988q1.092.9 2.228.9.243 0 .489-.042 1.39-.234 1.82-.95.429-.714-.455-1.3-.585-.386-1.398-.386zM419.641 0q.948 0 1.489.658.663.806 1.235 4.238l.91 5.954q.442.468.676.52h.312q.026-.65.494-1.196.416-3.978-.364-6.968l.312-.598q1.118 3.38.546 7.592h.078q1.794-4.03.52-7.592l.312-.468q1.664 3.796-.364 8.242.572 1.248.117 2.054-.455.806-.559 1.508l-.182.13q-.702-1.04-.806-1.794h-.26q-.026.598-.338 1.248l-.182 1.638.442 1.274h2.262v.624h-6.526v-.624h.546l-.416-1.274-.026-.962q-.468-.156-.702-.364-.338.312-.754.312.026.26-.104.442-1.04.806-3.718 1.404l-.91 1.768q0-.434-.27-.434-.085 0-.198.044l.728-1.3q-1.508.338-2.288.858-.416.442.052 1.066-1.04-.442-1.17-1.248.416-3.926 7.046-5.46l.468.78h.416q.338-1.092 2.678-1.508-.522-.388-1.285-.388-.414 0-.9.115-.491.116-.96.116-.844 0-1.613-.376-1.196-.585-6.084-6.461.9-1.136 1.905-1.136.329 0 .669.122l6.318 4.524V.034q.235-.034.448-.034z"/><path d="M400.8.375c9.626 0 9.626 17.25 0 17.25" fill="none" stroke="#000"/><path d="M396.292.696q-.927 0-.927 1.222 0 1.075.927 2.129.928-1.054.928-2.129 0-1.222-.928-1.222zm0 4.7q-.653 0-.653 1.412 0 .8.653 1.475.654-.674.654-1.475 0-1.412-.654-1.412zm0 4.257q-.653 0-.653 1.413 0 .8.653 1.475.654-.674.654-1.475 0-1.413-.654-1.413zm0-9.653q1.687 0 1.687 1.918.02 1.201-.559 1.886-.58.685-.516.917.737.864.737 2.087 0 1.012-.864 2.17.864.865.864 2.088 0 1.011-.864 2.15-.105.273.59 1.285.696 1.012 1.434 3.499h-.928q-.464-1.644-.822-2.35-.358-.706-.759-1.149-.421.443-.769 1.149-.348.706-.811 2.35h-.949q.696-2.487 1.423-3.499.727-1.012.6-1.286-.843-1.138-.843-2.15 0-1.222.801-2.086-.8-1.16-.8-2.171 0-1.223.716-2.087.063-.232-.506-.917t-.569-1.886q0-1.918 1.707-1.918zm-7.248.517c.141 0 .49.168.163.17-.053 0-.17.016-.258.016-.104 0-.165-.023-.02-.122.034-.024.065-.062.11-.063h.005zm-.055-.112h-.012c-.252.059-.45.27-.712.344-.22.06-.581.143-.506.465.101.43.39.846.3 1.295-.057.282-.371.307-.625.307l-.12-.001c-1.656-.013-2.972-.083-4.027-.083-1.73 0-2.762.187-3.452 1.12-1.144 1.549-.752 3.097-.468 5.051-.08-1.153-.462-2.97.724-4.538.5-.663 1.35-.942 2.13-1.139.36-.09.839-.122 1.367-.122 1.22 0 2.704.169 3.567.169.205 0 .375-.01.498-.034.333-.063.57-.473.54-.812-.038-.45-.393-.869-.26-1.324.06-.202.236-.247.428-.247.137 0 .282.023.398.029.126.006.249.024.369.024a.65.65 0 0 0 .46-.161c.282-.248-.486-.343-.6-.343zM388.95 0h.026c.365.018.733.13 1.05.315.33.192.064.564-.16.728-.205.152-.437.293-.696.293a.709.709 0 0 1-.153-.017c-.132-.029-.365-.084-.525-.084-.094 0-.162.02-.169.074-.058.448.42.992.227 1.51-.158.424-.52.81-1.004.845a8.814 8.814 0 0 1-.634.021c-1.114 0-2.222-.18-3.337-.199h-.105c-2.135 0-3.209 1.114-3.453 1.806-.238.671-.409 1.374-.348 2.088.072.859.198 1.726.128 2.586-.062.758-.326 1.493-.506 2.229-.042.172-.164.258-.278.258-.124 0-.24-.103-.231-.308.037-.948.255-1.758.23-2.632-.021-.751-.214-1.474-.258-2.228-.051-.873-.294-3.816 2.089-4.673.686-.246 1.556-.313 2.478-.313 1.091 0 2.256.094 3.275.094.381 0 .742-.013 1.071-.05-.131-.467-.382-.875-.324-1.362.046-.386.468-.53.788-.617.3-.082.502-.364.819-.364zm1.478 15.348q-.645 0-1.463.918-.631.703-1.71.703-.396 0-.853-.095-1.707-.353-2.865-.373-.164-.003-.323-.003-.953 0-1.704.134-.876.15-1.576.608-.7.465-1.334.465.128.007.254.007.84 0 1.597-.34.566-.254 1.865-.254.683 0 1.568.07 1.593.126 2.621.126.63 0 1.048-.047 1.098-.125 1.635-.89.442-.63.688-.63.053 0 .096.029.256.17.674.176h.02q.4 0 .47-.255.014-.3-.647-.347l-.06-.002zm-.94-1.528q.51 0 .798 1.158.064-.008.13-.008.112 0 .23.02.406-1.039.91-1.039.176 0 .202.124.026.118-.072.249-.464.366-.621.765.477.235.477.608-.046.563-.621.621-.162.017-.3.017-.353 0-.55-.108-.077-.042-.15-.042-.186 0-.34.277-.223.393-.845.844-.564.416-2.334.416-.177 0-.366-.004-2.106-.013-3.31-.111-.322-.028-.617-.028-.812 0-1.416.21-.589.211-2.118.211-.612 0-1.375-.034-.032 0-.058-.13 0-.393.837-.393 1.144-.039 1.49-.327.347-.294 1.158-.673.818-.386 2.42-.386 1.602 0 3.263.386.515.117.943.117.95 0 1.464-.582.745-.843 1.131-.915 0-.275-.281-.602-.281-.32-.262-.484.013-.157.184-.157z"/><path d="M377.646 0l-.504.505v.707l1.035-1.035.177-.177zm3 0l-3.504 3.505v.707l4.035-4.035.177-.177zm3 0l-6.504 6.505v.707l7.035-7.035.177-.177zm.806 2.194l-7.31 7.31v.708l7.31-7.31v-.708zm0 3l-7.31 7.31v.708l7.31-7.31v-.708zm0 3l-7.31 7.31v.708l7.31-7.31v-.708zm0 3l-6.629 6.63-.177.176h.708l6.098-6.099v-.707zm0 3l-3.629 3.63-.177.176h.708l3.098-3.099v-.707zm0 3l-.629.63-.177.176h.708l.098-.099v-.707zM368.85 8.358c-1.36 1.528-2.485 3.271-3.488 5.042-.211.26.026.498.2.745.661-2.1 2.183-3.719 3.289-5.787zm1.317-7.71c-.114.528.095 1.139.496 1.319l-.128.273c-.501-.238-.983-.95-1.054-1.591-.685.04-.872.556-.979 1.154-.128.408.002 1.4-.516 1.571-1.529.592-2.698 1.277-3.747 2.312-1.81 2.264-3.702 4.457-5.513 6.724-.703.882-1.347 1.69-1.869 2.3 2.75-2.056 5.822-3.628 8.835-5.262 1.602-.87 3.13-1.582 3.13-3.498 0-1.03-1.898-1.894-1.82-2.028.007-.011.029-.017.063-.017.39 0 2.386.74 2.386 2.3 0 .432-.116.833-.317 1.207h.009c2.188-1.16 1.84-3.506 1.756-5.574.91-.05 1.659-.547 2.522-.753-.67-.087-1.337-.199-2.009-.268a.533.533 0 0 1 .318.2c.011.221-.238.318-.481.318-.238 0-.469-.092-.447-.252a.61.61 0 0 1 .52-.276c-.333-.047-.778-.118-1.155-.16zm-3.823 13.303c-.196.476-.298.98-.409 1.48-.319-.257-.628-.523-.89-.838.171.926.49 1.86 1.26 1.86.467 0 .683-.315.384-1.271-.14-.45-.253-.882-.345-1.231zm.838-4.584c-3.12 1.662-6.211 3.34-9.162 5.292-.696.563-1.315 1.191-1.734 1.778.278.432.807.58 1.297.613 2.498-.087 3.476-2.495 4.795-4.216l.718-.872-.124 1.117c-.008.202-.214 1.153.093 1.153a.228.228 0 0 0 .09-.021l1.263-1.512c.135.09.262.19.401.273.626-1.267 1.543-2.447 2.363-3.605zM369.875 0c.656 0 1.328.118 1.965.177.76.37 1.53.088 2.326.378.576.258.737.782.976 1.306a2.939 2.939 0 0 0-.94-.16c-.928 0-1.675.468-2.657.717.002.493.08 1.052.116 1.615.152 1.526-.652 2.865-1.814 3.818-.833 1.855-1.985 3.277-2.826 4.724.1.65.705 3.103 1.003 3.983.584.098 1.208.154 1.82.154a9.337 9.337 0 0 0 .79-.032c.474 0 .993.808 1.503 1.24l-10.362.08c.265-.934 2.106-1.43 2.76-1.43.038 0 .071.002.1.005-.23-.66-.518-1.281-.6-2.204-.29.259-.614.539-1.019.568-.495-.037-.696-.375-.758-.816-1.121 1.854-2.375 3.368-4.675 3.591-.795-.039-1.785-.386-2-1.231-1.054-.06-.28-1.087.11-1.489 2.87-3.105 5.237-6.65 8.071-9.778 1.092-1.077 2.325-1.805 3.851-2.41.114-.278.151-.675.225-1.112.08-.477.335-1.257.8-1.5A3.556 3.556 0 0 1 369.875 0z"/><path d="M365.646 0l-.55.55v.707l1.08-1.08.178-.177zm3 0l-3.55 3.55v.707l4.08-4.08.178-.177zm3 0l-6.55 6.55v.707l7.08-7.08.178-.177zm3 0l-9.55 9.55v.707L375.143.212V0zm.496 2.505L365.097 12.55v.707l10.045-10.045v-.707zm0 3L365.097 15.55v.707l10.045-10.045v-.707zm0 3l-9.319 9.318-.177.177h.708l8.788-8.788v-.707zm0 3l-6.319 6.318-.177.177h.708l5.788-5.788v-.707zm0 3l-3.319 3.318-.177.177h.708l2.788-2.788v-.707zm0 3l-.319.318-.177.177h.496v-.495zM350.64 1.567q.373 0 .373.316t-.327.316q-.374 0-.374-.293-.012-.339.327-.339zM342.475.444q.012.375.55.638.266.13.114.13-.155 0-.746-.136.351.269.62.433 1.696.48 3.216 2.198-1.076-1.883-3.754-3.263zm-1.263.83q.093.363.631.498.459.114-.246.114-.122 0-.28-.003.702.398.871.41.17.01.012.087-.158.076-.72.076.48.304.802.322.322.017.135.093-.188.076-.69.076.25.233.61.233.11 0 .232-.022l-.538.28q.257.094.48.129.596.023 0 .304.124.078.3.078.089 0 .19-.02.655.75 3.357 2.211l-.246.175-.596-.163q-.468.783-1.334 1.462-.935.128-.947.97.01.398.486.398.083 0 .18-.012.04.006.078.006.336 0 .578-.462.312-.532.82-.532h.01q.515.006.842.17l.877-.328q1.24-1.532 1.807-2.181.567-.65.825-1.684.257-1.035.766-1.316.508-.28 1.222-.807l-.117-.199q-.526-.206-.914-.206-.892 0-1.063 1.083-.245 1.556-.526 2.123-.28.567-1.117.65-.043.003-.088.003-.815 0-2.034-1.419-1.287-1.497-2.86-1.988-1.573-.491-1.795-.608zM342.289 0q2.959 1.474 3.877 2.982.918 1.509 1.386 1.708.23.098.462.098.239 0 .48-.104.473-.205.642-1.345.17-1.14.404-1.596.234-.457.883-.614.177-.043.361-.043.492 0 1.036.306.55-.21 1.018-.21.34.163.14.28-1.38.889-2.035 1.327-.655.439-.918 1.55-.263 1.11-1.292 2.07-1.076 1.146-1.064 1.906.093.468.625 1.111.532.644.626 1.275.012.34-.129.503-.198-.082-.234-.257.059-.363-.017-.497-.076-.135-.17-.322-.14.363-.117.772-.28-.21-.257-.456l.082-.679q-.643-.631-.924-1.31-.28.06-.398.223.082.526.51 1 .426.473.59 1.023-.035.737-.176.772-.198-.257-.134-.421.064-.164.006-.298-.059-.135-.14-.275-.164.164-.164.76-.21-.152-.258-.398.164-.526.047-.807-.62-.631-.924-1.508-.269-.117-.567-.176-.053-.01-.106-.01-.242 0-.473.22-.244.795-1.038.795-.235 0-.517-.069-.167.277-.602.277-.117 0-.252-.02-.024-.608.386-.818-.113-1.359.967-1.359l.074.002q1.04-.947 1.286-1.427-1.684-.912-2.503-1.766-.027.005-.057.005-.241 0-.668-.332l.281-.14q-.328-.047-.737-.387l.374-.058q-.245-.023-.631-.456l.433-.024q-.41-.117-.644-.502l.597-.012q-.643-.187-.737-.55l.246-.035q-.351-.199-.304-.795l1.567.514q-.34-.21-.34-.584l.246.023q-.292-.28-.105-.842zm8.599 13.207h.014c.078 0 .169.034.194.115.02.08-.054.146-.124.164a.266.266 0 0 1-.088.015.19.19 0 0 1-.163-.078c-.038-.05-.042-.136.019-.17.04-.037.095-.046.148-.046zm-1.812.978l-.005.003-.004.003a1.115 1.115 0 0 1-.288.135c-.691.239-1.428.347-2.09.665-.424.191-.846.386-1.267.581.38.02.762.038 1.143.038a9.3 9.3 0 0 0 .588-.017c.461-.035.926-.1 1.363-.253.202-.07.372-.204.554-.31a.379.379 0 0 0 .182-.317c-.001-.19-.09-.364-.176-.528zm1.569-1.02l-.007.001c-.282.025-.516.2-.737.361-.204.142-.382.316-.574.474.146.18.283.388.295.629.016.197-.03.4-.143.562-.174.258-.458.415-.741.527-.514.195-1.065.272-1.612.308a14.97 14.97 0 0 1-.821.021 27.836 27.836 0 0 1-1.777-.063c-.017.012-.112.04-.06.04h.003c.81.055 1.622.135 2.434.135.244 0 .489-.007.733-.024.824-.08 1.647-.309 2.34-.772.247-.166.477-.36.673-.585.196-.231.336-.505.496-.761.159-.237.343-.465.586-.618a3.868 3.868 0 0 0-1.088-.234zm-8.007 2.634h-.004c-.211.01-.439.001-.624.118a.22.22 0 0 0-.107.129c-.063.166-.035.385.117.494a.066.066 0 0 0 .044.015c.027 0 .057-.01.083-.013.171-.04.325-.133.492-.19.335-.142.668-.288 1-.438-.335-.03-.668-.07-1-.115zm5.166.754l-.022.002a9.22 9.22 0 0 1-1.06.036c-.013.033-.069.064-.049.098l.49.858c.461-.004.922-.006 1.383-.007-.241-.258-.485-.514-.724-.775a.213.213 0 0 1-.018-.212zm2.789-3.82h.021c.296.014.583.093.865.177.35.11.7.236 1.02.414.085.053.181.102.232.19a.122.122 0 0 1-.087.162.39.39 0 0 1-.089.01c-.091 0-.183-.025-.274-.025a.379.379 0 0 0-.103.013c-.215.049-.38.211-.511.379-.206.252-.341.552-.53.816a3.256 3.256 0 0 1-.5.54c-.598.522-1.344.847-2.113 1.022-.069.075-.142.145-.215.216l.837.893c.42.004.842-.002 1.26.025.1.012.196.087.207.19.02.126-.093.245-.217.245a.19.19 0 0 1-.033-.003c-.45-.019-.902-.015-1.354-.02h-2.006c-.093-.01-.16-.087-.197-.167-.203-.357-.41-.712-.61-1.07a.205.205 0 0 1 .005-.166c-.805-.04-1.609-.112-2.413-.164-.046 0-.094-.009-.14-.009a.222.222 0 0 0-.045.004c-.48.207-.952.441-1.455.589a.502.502 0 0 1-.062.004.632.632 0 0 1-.486-.257.802.802 0 0 1-.172-.512c-.003-.228.074-.468.252-.616-.138-.043-.284-.08-.4-.171-.029-.026-.065-.068-.048-.11.037-.034.096-.026.144-.033h.104c.316 0 .631.029.946.05.696.053 1.392.114 2.089.165.759-.35 1.516-.708 2.281-1.04.626-.257 1.301-.36 1.935-.591.376-.22.669-.552 1.026-.799.245-.18.522-.35.836-.35z"/><path d="M331.228.375v17.25m7.687-17.25c-9.625 0-9.625 17.25 0 17.25m0 0" fill="none" stroke="#000"/><path d="M323.258.597a2.12 2.12 0 0 0-.692.109c.031.223.169.569.953.773-.73-.053-1.206-.113-1.452-.307-.09.2-.138.427-.159.556a.297.297 0 0 1-.206.237c-.625.191-1.174 1.112-1.7 1.763-.95 1.173-1.772 2.48-2.688 3.733.423-.207.845-.415 1.27-.622 1.182-.622 2.394-1.11 3.407-1.877.588-.49 1.172-.996 1.39-1.641.076-.497-.296-1.074-.767-1.279a.297.297 0 1 1 .238-.545c.376.164.699.458.904.817a1.986 1.986 0 0 0-.075-.448.297.297 0 0 1-.013-.104c.01-.184.042-.313.082-.422.041-.109.085-.206.158-.459a.297.297 0 0 1 .105-.153 1.546 1.546 0 0 0-.528-.125c-.042-.003-.083-.003-.125-.004a.258.258 0 1 1-.102-.002zm-1.194 5.432c-.605.466-1.253.873-1.888 1.28.005.438-.006.879-.047 1.321.207-.135.434-.236.697-.3.392-.636.82-1.22 1.083-1.842a4.64 4.64 0 0 0 .155-.46zm.25 1c-.274.549-.622 1.04-.93 1.529.06.04.113.08.155.121l.028.027c.168-.194.374-.351.613-.454-.01-.348.047-.768.133-1.222zm-2.882.047a25.922 25.922 0 0 0-.587.297c-.78.38-1.56.772-2.35 1.148-.556.67-1.156 1.293-1.734 1.92l1.043.175 2.563-2.786a.297.297 0 0 1 .04-.036c.333-.253.678-.489 1.025-.718zm2.592 2.009c-.058.066-.112.14-.161.222a.298.298 0 0 1-.43.087c-.124-.09-.2-.177-.265-.244l-.077 1.413c.1-.006.201-.013.296-.013.167 0 .313.022.398.108.1-.078.28-.1.504-.1.057 0 .118.002.18.005l-.445-1.478zm5.419.999c-.452.062-.686.323-.704.783h1.395c0-.46-.23-.721-.691-.783zm-7.86-2.39c-.275.182-.542.367-.799.56l-2.402 2.613h2.456c.17-.19.518-.365.776-.365.073 0 .14.014.192.046.081-.007.167-.01.256-.01.14 0 .285.007.433.016l.083-1.506c-.224.115-.407.282-.625.542a.297.297 0 0 1-.52-.246c.1-.544.142-1.093.15-1.65zm6.24 3.745l.265.465h1.249l.252-.465zm-4.516 0v2.51l1.726-2.51zM323.25 0a3.878 3.878 0 0 1 .272.01c.694.044 1.215.325 1.408.768a.298.298 0 0 1-.341.408l-.025-.006-.03.007-.108.029c-.054.168-.096.269-.12.332a.541.541 0 0 0-.042.2 3.1 3.1 0 0 1 .037 1.389c-.095.466-.384.977-.761 1.46a.295.295 0 0 1-.014.108 21.24 21.24 0 0 0-.548 2.027c-.152.708-.234 1.387-.192 1.684a.297.297 0 0 1-.223.33l-.019.005.527 1.75c.086-.013.173-.018.26-.018.256 0 .508.041.712.041a.865.865 0 0 0 .183-.016.314.314 0 0 1 .068-.007c.212 0 .657.13.787.366h1.1c.061-.797.482-1.235 1.261-1.315.788.08 1.195.518 1.222 1.315v.572h-.531l-.545 1.01h-1.766l-.532-1.01h-1.567l-2.404 3.493V18h-.571v-6.561h-4.517v-.41l-.099.109a.297.297 0 0 1-.268.092l-1.74-.292a.298.298 0 0 1-.173-.492c.217-.242.437-.48.656-.716l-1.656 1.078a.296.296 0 0 1-.412-.087.297.297 0 0 1 .087-.411l1.345-.876a.292.292 0 0 1-.076-.09.315.315 0 0 1-.02-.237c.016-.05.034-.074.048-.093.055-.076.084-.088.123-.119.04-.03.084-.06.131-.094.096-.065.206-.137.301-.2a4.156 4.156 0 0 0 .216-.156l2.379-1.672.008-.005c.805-1.13 1.568-2.316 2.457-3.414.433-.535.938-1.524 1.812-1.894.048-.262.157-.68.483-.997.353-.344.864-.463 1.417-.463zm-88.187 7.458v1.656c.565 0 .848-.283.848-.848 0-.539-.283-.808-.848-.808zM232.968 0c.463 0 .855.116 1.176.35.612.443.919 1.09.919 1.938v4.584c.942 0 1.42.465 1.434 1.394 0 .942-.478 1.413-1.434 1.413V18h-.747V2.732c0-1.023-.198-1.68-.595-1.969-.206-.15-.476-.225-.839-.225-.337 0-.754.065-1.273.195a.65.65 0 0 1-.212.043c-.111 0-.188-.048-.232-.144-.013-.162.108-.276.364-.343.538-.193 1.018-.289 1.439-.289zm-8.169.601c-1.074 0-2.418.552-3.069 1.202-.569.57-.643 1.324-.664 2.025h7.435c-.021-.7-.096-1.455-.665-2.025-.65-.65-1.963-1.202-3.037-1.202zm0-.601c1.274 0 2.645.589 3.449 1.392.824.824.917 1.91.917 2.72v.317h-8.732v-.316c0-.812.062-1.897.886-2.72.803-.804 2.206-1.393 3.48-1.393zm1.187 9.627c5.438 1.9 2.903 9.54-2.195 8.228-5.054-1.302-4.046-9.318 2.195-8.228m-.243.698c-5.418-.787-5.64 5.768-1.708 6.812 3.846 1.022 6.482-5.13 1.708-6.812m-1.189 1.152c-1.082-.74.885-.487 0-.018v.018m1.986.433c-1.228-.397.343-.795 0-.073v.073m-2.993-.712v.732l-.731-.244.73-.488m3.572 2.066c-.903-.795.595-.885.108-.09l-.108.09m-2.84-.846l.245.731-.732-.487.488-.244m1.052.358l.072-.017c.668-.489 1.39 1.767-.072.017m-3.014-.397c.956.56-.162.703-.253.703l.253-.703m2.938 1.502l-.244.244-.488-.732.732.488m-1.675-.474l.469.019c-.559.866-.757.793-.469-.019m3.681 1.517c-.883-.74.434-.632.416-.488l-.416.488m-1.01-.903l-.22.305c-.719-.215-.34-.792.22-.305m-3.435.836l-.244.244-.488-.732.732.488m1.323.012c.758-.378.92-.27.47.344l-.47-.344m2.579.72l-.244.731-.488-.732h.732m-3.246-.465l.45.54c-.107.217-1.1.145-.45-.54m1.539.71l.244.731h-.732l.488-.732zM214.855 4.845c.948.012 1.816.243 2.472.778.68.54 1.112 1.378 1.106 2.405v5.127h-.705V8.022c0-.838-.316-1.434-.838-1.853-.504-.4-1.215-.62-2.017-.62h-.097c-.796 0-1.512.22-2.017.62-.522.42-.838 1.015-.838 1.853v5.133h-.705V8.028c-.006-1.027.426-1.865 1.106-2.405.656-.535 1.525-.766 2.472-.778zm-5.639.495v7.32h-1.225V5.34zm-8.749 12.708c-2.597 0-2.597-3.896 0-3.896 2.598 0 2.598 3.896 0 3.896zM192.991 0v7.35h-.735V0zm-4.37 0v7.35h-.735V0zm-4.37 0v7.35h-.736V0zm-4.371 0v7.35h-.735V0zm13.111 10.65V18h-.735v-7.35zm-4.37 0V18h-.735v-7.35zm-4.37 0V18h-.736v-7.35zm-4.371 0V18h-.735v-7.35zm-8.26 7.398c-2.596 0-2.596-3.896 0-3.896 2.598 0 2.598 3.896 0 3.896zm-7.475-12.723v7.35h-.735v-7.35zm-4.37 0v7.35h-.736v-7.35zm-4.372 0v7.35h-.735v-7.35zm-4.37 0v7.35h-.735v-7.35zm-3.3 8.083c.59 0 .67.936.47 1.432-.359.888-2.453 2.669-2.845 2.906-.177.108-.517.254-.767.254-.199 0-.34-.092-.3-.368.057-.386.755-.832.355-1.186-.075-.066-.332-.092-.718-.092-1.653 0-5.665.493-7.747.493-.106 0-.207-.001-.303-.004a19.128 19.128 0 0 0-.468-.004c-.36 0-.862.003-1.441.003-2.04 0-5.053-.035-6.311-.346-.466-.115-.967-.432-.96-.945.013-.882.745-1.876 1.597-1.876a.85.85 0 0 1 .088.004c1.828.147 3.702.111 5.544.263.877.072 1.756.098 2.634.098 1.72 0 3.441-.101 5.161-.159 2.027-.068 4.593-.464 6.007-.473a.55.55 0 0 1 .004 0zm-28.559 4.64c-2.597 0-2.597-3.896 0-3.896 2.598 0 2.598 3.896 0 3.896zM108.234 0c.917.012 1.758.235 2.394.753.659.523 1.076 1.335 1.07 2.33v4.964h-.682v-4.97c0-.812-.306-1.389-.812-1.795-.488-.388-1.176-.6-1.953-.6h-.094c-.77 0-1.464.212-1.953.6-.505.406-.811.983-.811 1.794v4.97h-.683V3.083c-.006-.994.412-1.806 1.07-2.33.636-.517 1.477-.74 2.395-.752zm-8.15 0c.917.012 1.758.235 2.394.753.659.523 1.076 1.335 1.07 2.33v4.964h-.682v-4.97c0-.812-.306-1.389-.812-1.795-.488-.388-1.176-.6-1.953-.6h-.094c-.77 0-1.464.212-1.953.6-.506.406-.811.983-.811 1.794v4.97h-.683V3.083c-.006-.994.412-1.806 1.07-2.33.636-.517 1.477-.74 2.395-.752zm4.076 9.423c.979.013 1.875.25 2.552.803.703.558 1.148 1.423 1.142 2.482V18h-.728v-5.298c0-.865-.326-1.48-.865-1.912-.52-.414-1.254-.64-2.082-.64h-.1c-.821 0-1.561.226-2.081.64-.54.432-.866 1.047-.866 1.912V18h-.727v-5.292c-.006-1.06.439-1.924 1.141-2.482.677-.552 1.574-.79 2.552-.803zm-9.6-4.098v7.35h-.735v-7.35zm-4.37 0v7.35h-.735v-7.35zm-4.37 0v7.35h-.736v-7.35zm-4.371 0v7.35h-.736v-7.35zM56.713 0v.64l.464-.463.177-.177zm2.933 0l-2.933 2.933v.707L60.177.177 60.354 0zm3 0l-5.933 5.933v.707L63.177.177 63.354 0zm3 0l-8.933 8.933v.707L66.177.177 66.354 0zm3 0L56.713 11.933v.707L69.177.177 69.354 0zm3 0L56.713 14.933v.707L72.177.177 72.354 0zm3 0L56.823 17.823l-.11.11V18h.64L75.178.177 75.354 0zm3 0L59.823 17.823l-.177.177h.708L78.177.177 78.354 0zm1.067 1.933l-15.89 15.89-.177.177h.708l15.36-15.36v-.707zm0 3l-12.89 12.89-.177.177h.708l12.36-12.36v-.707zm0 3l-9.89 9.89-.177.177h.708l9.36-9.36v-.707zm0 3l-6.89 6.89-.177.177h.708l6.36-6.36v-.707zm0 3l-3.89 3.89-.177.177h.708l3.36-3.36v-.707zm0 3l-.89.89-.177.177h.708l.36-.36v-.707z"/><path d="M80.646 0l-1.933 1.933v.707l2-2V0zm.067 2.933l-2 2v.707l2-2v-.707zm0 3l-2 2v.707l2-2v-.707zm0 3l-2 2v.707l2-2v-.707zm0 3l-2 2v.707l2-2v-.707zm0 3l-2 2v.707l2-2v-.707zM32.713 0v.64l.464-.463.177-.177zm2.933 0l-2.933 2.933v.707L36.177.177 36.354 0zm3 0l-5.933 5.933v.707L39.177.177 39.354 0zm3 0l-8.933 8.933v.707L42.177.177 42.354 0zm3 0L32.713 11.933v.707L45.177.177 45.354 0zm3 0L32.713 14.933v.707L48.177.177 48.354 0zm3 0L32.823 17.823l-.11.11V18h.64L51.178.177 51.354 0zm3 0L35.823 17.823l-.177.177h.708L54.177.177 54.354 0zm1.067 1.933l-15.89 15.89-.177.177h.708l15.36-15.36v-.707zm0 3l-12.89 12.89-.177.177h.708l12.36-12.36v-.707zm0 3l-9.89 9.89-.177.177h.708l9.36-9.36v-.707zm0 3l-6.89 6.89-.177.177h.708l6.36-6.36v-.707zm0 3l-3.89 3.89-.177.177h.708l3.36-3.36v-.707zm0 3l-.89.89-.177.177h.708l.36-.36v-.707z"/><path d="M56.646 0l-1.933 1.933v.707l2-2V0zm.067 2.933l-2 2v.707l2-2v-.707zm0 3l-2 2v.707l2-2v-.707zm0 3l-2 2v.707l2-2v-.707zm0 3l-2 2v.707l2-2v-.707zm0 3l-2 2v.707l2-2v-.707zM26.492 7.938c.681.054 1.058.394 1.13 1.022-.09.68-.467 1.04-1.13 1.075-.663-.036-1.013-.394-1.049-1.075.054-.628.404-.968 1.049-1.022zm-.08-2.259c-.485 0-.933.09-1.345.27a3.545 3.545 0 0 0-1.828 1.815 3.11 3.11 0 0 0-.27 1.276c0 .466.09.901.27 1.304.179.404.425.758.739 1.063a3.422 3.422 0 0 0 2.433.968c.484 0 .937-.086 1.358-.256a3.26 3.26 0 0 0 1.09-.712c.304-.305.546-.66.725-1.063.18-.403.269-.838.269-1.304 0-.448-.09-.874-.269-1.277a3.67 3.67 0 0 0-.726-1.075 3.302 3.302 0 0 0-1.089-.74 3.431 3.431 0 0 0-1.358-.269zm.053-.914c.592 0 1.147.112 1.667.336.52.224.968.529 1.345.914.376.386.676.834.9 1.345.224.51.336 1.062.336 1.653 0 .592-.112 1.143-.336 1.654a4.31 4.31 0 0 1-.9 1.331 4.267 4.267 0 0 1-3.012 1.237 4.071 4.071 0 0 1-1.654-.336 4.48 4.48 0 0 1-1.344-.9 4.195 4.195 0 0 1-.914-1.332 4.071 4.071 0 0 1-.337-1.654c0-.591.113-1.142.337-1.653A4.358 4.358 0 0 1 24.81 5.1a4.071 4.071 0 0 1 1.654-.336zm-9.826.08c.947.012 1.816.243 2.472.778.68.54 1.112 1.378 1.105 2.405v5.127h-.704V8.022c0-.838-.316-1.434-.838-1.853-.505-.4-1.215-.62-2.017-.62h-.097c-.796 0-1.513.22-2.017.62-.522.42-.838 1.015-.838 1.853v5.133H13V8.028c-.006-1.027.425-1.865 1.106-2.405.656-.535 1.524-.766 2.472-.778zM0 0v.354L.177.177.354 0zm2.646 0L0 2.646v.708L3.177.177 3.354 0zm3 0L0 5.646v.708L6.177.177 6.354 0zm3 0L0 8.646v.708L9.177.177 9.354 0zM11 .646l-11 11v.708l11-11V.646zm0 3l-11 11v.708l11-11v-.708zm0 3l-11 11V18h.354L11 7.354v-.708zm0 3l-8.177 8.177-.177.177h.708L11 10.354v-.708zm0 3l-5.177 5.177-.177.177h.708L11 13.354v-.708zm0 3l-2.177 2.177-.177.177h.708L11 16.354v-.708z"/></svg>