<svg xmlns="http://www.w3.org/2000/svg" width="306.58" height="18"><path d="M304.933 0c.336 0 .67.026.995.066.447.113.217.626-.18.626a.476.476 0 0 1-.082-.008c-.839.097-1.872.15-2.506.626-.84.916-.463 2.821-.56 3.725-.008.05-.01 3.653-.01 5.48a6.145 6.145 0 0 1 2.634-.586c.402 0 .801.04 1.188.117.44.231-.077.528-.423.528a.454.454 0 0 1-.114-.013c-1.227.133-2.62.461-3.243 1.602-.062.206-.024.277.07.277.207 0 .68-.342.947-.342.014 0 .027 0 .04.003a7.535 7.535 0 0 1 1.58-.169c.39 0 .776.031 1.148.095.421.278-.095.534-.437.534a.532.532 0 0 1-.105-.01c-1.252.151-2.637.49-3.243 1.633-.007 1.27 0 2.11-.034 3.278.015.36-.22.538-.456.538-.235 0-.473-.176-.474-.526.008-1.15.09-2.161-.06-3.277-.305-1.253-2.478-1.445-3.828-1.754-.294-.347.285-.475.659-.475.056 0 .107.003.15.008.173-.013.347-.02.521-.02.883 0 1.772.175 2.558.58.032-.755-.712-1.19-1.244-1.493-.84-.361-1.766-.397-2.644-.59-.313-.273.18-.501.522-.501a.58.58 0 0 1 .125.012c.215-.02.431-.031.647-.031.903 0 1.805.183 2.615.582-.017-2.851-.063-5.61.019-8.308.065-.834.546-1.6 1.354-1.849.58-.264 1.227-.358 1.871-.358zm-23.995 2.99q-.557 0-1.086.606 4.368 5.2 5.46 5.81.815.457 1.434.457.21 0 .4-.053.74-.208 1.585-.234h.042q.829 0 1.817.988h.13q-.702-1.638-1.963-2.34-1.26-.702-7.397-5.148-.213-.085-.422-.085zM288.67.622q-.065 0-.133.01v6.683q2.054 1.196 2.834 3.354-1.196-8.268-1.677-9.204Q289.26.62 288.67.62zm5.356 10.468q.08 0 .153.138.13.247-.234.689-.208-.546-.052-.741.07-.086.133-.086zm-.036-.372q-.153 0-.33.237-.39.52.233 2.08.702-1.352.43-1.976-.15-.34-.333-.34zm-6.805 2.577v.39q.286-.026.442-.182-.052-.078-.208-.208zm-.598.884l-2.418.338-.494.884q.832-.234 1.833-.624t1.08-.598zm5.33-.364l-.468.234-.156 1.118.416 1.274h.65l-.442-1.274v-1.352zm-1.118.39l-.442.13-.156.832.416 1.274h.65l-.442-1.274-.026-.962zm-1.534.156l-.156.806.416 1.274h.65l-.442-1.274v-.78l-.468-.026zm.994-3.234q-.415 0-.89.1-1.404.3-1.768 1.418h-1.092l-.416-.676q-5.512 1.274-6.214 4.602 1.508-.832 3.172-1.118l.728-1.456 2.886-.39-.078-.702h.988q1.092.9 2.228.9.244 0 .49-.042 1.39-.234 1.82-.95.428-.714-.456-1.3-.585-.386-1.398-.386zM288.413 0q.947 0 1.488.658.663.806 1.235 4.238l.91 5.954q.442.468.676.52h.312q.026-.65.494-1.196.416-3.978-.364-6.968l.312-.598q1.118 3.38.546 7.592h.078q1.794-4.03.52-7.592l.312-.468q1.664 3.796-.364 8.242.572 1.248.117 2.054-.455.806-.559 1.508l-.182.13q-.702-1.04-.806-1.794h-.26q-.026.598-.338 1.248l-.182 1.638.442 1.274h2.262v.624h-6.526v-.624h.546l-.416-1.274-.026-.962q-.468-.156-.702-.364-.338.312-.754.312.026.26-.104.442-1.04.806-3.718 1.404l-.91 1.768q0-.434-.27-.434-.085 0-.198.044l.728-1.3q-1.508.338-2.288.858-.416.442.052 1.066-1.04-.442-1.17-1.248.416-3.926 7.046-5.46l.468.78h.416q.338-1.092 2.678-1.508-.522-.388-1.284-.388-.415 0-.9.115-.492.116-.961.116-.844 0-1.613-.376-1.196-.585-6.084-6.461.9-1.136 1.905-1.136.329 0 .669.122l6.318 4.524V.034Q288.2 0 288.413 0z"/><path d="M269.572.375c9.625 0 9.625 17.25 0 17.25" fill="none" stroke="#000"/><path d="M263.35 7.938c.681.054 1.058.394 1.13 1.022-.09.68-.466 1.04-1.13 1.075-.663-.036-1.013-.394-1.048-1.075.053-.628.403-.968 1.048-1.022zm-.08-2.259c-.484 0-.933.09-1.345.27a3.545 3.545 0 0 0-1.828 1.815 3.11 3.11 0 0 0-.27 1.276c0 .466.09.901.27 1.304a3.422 3.422 0 0 0 3.173 2.03c.484 0 .936-.085 1.358-.255.42-.17.784-.408 1.089-.712.304-.305.546-.66.726-1.063.179-.403.268-.838.268-1.304 0-.448-.09-.874-.268-1.277a3.67 3.67 0 0 0-.726-1.075 3.302 3.302 0 0 0-1.09-.74 3.431 3.431 0 0 0-1.357-.269zm.053-.914a4.17 4.17 0 0 1 1.668.336c.52.224.968.529 1.344.914.376.386.677.834.9 1.345.225.51.337 1.062.337 1.653 0 .592-.112 1.143-.336 1.654a4.31 4.31 0 0 1-.901 1.331 4.267 4.267 0 0 1-3.012 1.237 4.071 4.071 0 0 1-1.653-.336 4.48 4.48 0 0 1-1.345-.9 4.195 4.195 0 0 1-.914-1.332 4.071 4.071 0 0 1-.336-1.654c0-.591.112-1.142.336-1.653a4.358 4.358 0 0 1 2.259-2.26 4.071 4.071 0 0 1 1.653-.336zm-13.897-2.844q-.575 0-.447.554l1.32 5.39h1.109l-1.321-5.368q-.107-.576-.66-.576zm-1.704 0q-.533 0-.426.554l1.278 5.39h1.108l-1.278-5.368q-.128-.576-.682-.576zm-1.832 0q-.597 0-.448.554l1.3 5.39h1.108l-1.279-5.368q-.149-.576-.681-.576zm-1.79 0q-.49 0-.426.554l1.3 5.39h1.107l-1.3-5.368q-.106-.576-.681-.576zm-1.79 0q-.51 0-.447.554l1.32 5.39h1.109l-1.3-5.368q-.17-.576-.682-.576zm.767 6.605q-.532 0-.532.447 0 .448.511.448h8.48q.532 0 .532-.448 0-.447-.532-.447zm9.971.895q1.79 2.79 2.301 5.54.042.916.552.916h.023q.533-.022.341-.938-.895-3.75-3.217-5.518zm-11.483 0q-2.323 1.768-3.217 5.518-.192.916.34.937h.024q.51 0 .552-.916.511-2.748 2.3-5.54zm4.41-8.075q2.45 0 4.112.213.66.085.81.938l1.235 5.22q.17.49.788.809 3.473 2.45 4.155 6.775-.106 1.353-1.134 1.353h-.017q-1.044-.01-1.235-1.332-1.023-3.941-1.875-5.198h-1.023v.682h-1.619v-.682h-5.71v.682h-1.619v-.682h-1.023q-.873 1.257-1.896 5.198-.192 1.321-1.235 1.332h-.017q-1.028 0-1.134-1.353.682-4.325 4.155-6.775h-.022q.618-.341.64-.554l-1.236-5.475q-.107-.831.703-.96 1.96-.19 4.197-.19zM231.39 0c.11 0 .222.01.333.02 1.61.172 2.754 1.802 2.501 3.382-.111 1.174-.84 1.832-1.64 2.48-2.38 1.458-1.711.921-4.11 2.136l-.385-.718c2.855-1.337 3.199-1.55 4.09-2.137.729-.587 1.306-1.235 1.255-2.217.02-.678-.384-1.377-.84-1.71A2.186 2.186 0 0 0 231.308.8c-.344 0-.668.08-.951.283-.72.355-1.114 1.529-.588 2.268.243.354.679.597 1.114.597.213 0 .425-.06.607-.192.365-.202.638-.911.264-1.306.172-.182.415-.405.597-.405.121 0 .213.091.273.304.405.972-.243 2.075-1.215 2.338a1.83 1.83 0 0 1-.516.081c-1.114 0-2.146-.93-2.146-2.085-.101-1.347.972-2.582 2.318-2.663.101-.01.213-.02.324-.02zm-.218 14.172c-1.074 0-2.418.552-3.069 1.202-.569.57-.643 1.324-.664 2.025h7.435c-.021-.701-.096-1.456-.665-2.025-.65-.65-1.963-1.202-3.037-1.202zm0-.601c1.274 0 2.645.588 3.449 1.392.824.824.917 1.909.917 2.72V18h-8.732v-.316c0-.812.062-1.897.886-2.721.803-.804 2.206-1.392 3.48-1.392zM215.546.924c-.297 0-.476.05-.568.103-.27.172-.14.583-.098.84h1.33c.032-.263.178-.664-.097-.84-.093-.053-.271-.103-.567-.103zm7.389 1.552V3.4h1.262v-.924zm-6.556 0V3.4h6.252v-.924zm-1.52 0V3.4h1.216v-.924zm-6.104 0V3.4h5.8v-.924zm-1.632 0V3.4h1.328v-.924zM218.216 0l.43.431-1.44 1.436h7.6v2.142h-18.292V1.867h7.37L212.444.43l.43-.431 1.332 1.327c.08-.804.63-.989 1.34-1.012.757.02 1.222.192 1.34 1.012L218.215 0zm6.556 10.67V18h-1.225v-7.33zm-8.424.01V18h-1.225v-7.32zm-8.575 0V18h-1.225v-7.32zm-9.88-5.952l.445 1.012q-.951.192-1.356 1.913l-1.54-.394v.961l1.5.426q-.01 1.417.273 2.662.293 1.246 1.326 1.61.516.177 1.038.177.521 0 1.047-.177 1.053-.364 1.337-1.61.293-1.245.263-2.662l1.498-.426v-.96l-1.528.394q-.405-1.72-1.367-1.913l.466-1.012zm4.11-.71q.365 0 .05.71l-.272.617q.81.517 1.012 1.428l1.721-.517v2.562l-1.62.465q0 1.458-.415 2.916-.425 1.458-2.885 1.782-2.46-.324-2.896-1.782-.425-1.458-.425-2.916l-1.62-.465V6.256l1.742.517q.202-.911 1.012-1.428l-.273-.617q-.324-.71.05-.71zm-9.35 1.322v7.32h-1.225V5.34z"/><path d="M181.74.375v17.25m7.688-17.25c-9.625 0-9.625 17.25 0 17.25m0 0" fill="none" stroke="#000"/><path d="M158.646 0l-1.468 1.468v.707l1.999-1.998.177-.177zm3 0l-4.468 4.468v.707l4.999-4.998.177-.177zm3 0l-7.468 7.468v.707l7.999-7.998.177-.177zm3 0l-10.468 10.468v.707L168.177.177l.177-.177zm3 0l-13.468 13.468v.707L171.177.177l.177-.177zm3 0l-16.468 16.468v.707L174.177.177l.177-.177zm3 0l-17.823 17.823-.177.177h.708L177.177.177l.177-.177zm2.532.468l-17.355 17.355-.177.177h.708l16.824-16.825V.468zm0 3l-14.355 14.355-.177.177h.708l13.824-13.825v-.707zm0 3l-11.355 11.355-.177.177h.708l10.824-10.825v-.707zm0 3l-8.355 8.355-.177.177h.708l7.824-7.825v-.707zm0 3l-5.355 5.355-.177.177h.708l4.824-4.825v-.707zm0 3l-2.355 2.355-.177.177h.708l1.824-1.825v-.707z"/><path d="M179.646 0l-.468.468v.707l.999-.998.177-.177zm1.532 1.468l-2 2v.707l2-2v-.707zm0 3l-2 2v.707l2-2v-.707zm0 3l-2 2v.707l2-2v-.707zm0 3l-2 2v.707l2-2v-.707zm0 3l-2 2v.707l2-2v-.707zm0 3l-1.355 1.355-.177.177h.708l.824-.825v-.707zM134.646 0l-1.468 1.468v.707l1.999-1.998.177-.177zm3 0l-4.468 4.468v.707l4.999-4.998.177-.177zm3 0l-7.468 7.468v.707l7.999-7.998.177-.177zm3 0l-10.468 10.468v.707L144.177.177l.177-.177zm3 0l-13.468 13.468v.707L147.177.177l.177-.177zm3 0l-16.468 16.468v.707L150.177.177l.177-.177zm3 0l-17.823 17.823-.177.177h.708L153.177.177l.177-.177zm2.532.468l-17.355 17.355-.177.177h.708l16.824-16.825V.468zm0 3l-14.355 14.355-.177.177h.708l13.824-13.825v-.707zm0 3l-11.355 11.355-.177.177h.708l10.824-10.825v-.707zm0 3l-8.355 8.355-.177.177h.708l7.824-7.825v-.707zm0 3l-5.355 5.355-.177.177h.708l4.824-4.825v-.707zm0 3l-2.355 2.355-.177.177h.708l1.824-1.825v-.707z"/><path d="M155.646 0l-.468.468v.707l.999-.998.177-.177zm1.532 1.468l-2 2v.707l2-2v-.707zm0 3l-2 2v.707l2-2v-.707zm0 3l-2 2v.707l2-2v-.707zm0 3l-2 2v.707l2-2v-.707zm0 3l-2 2v.707l2-2v-.707zm0 3l-1.355 1.355-.177.177h.708l.824-.825v-.707zM110.646 0l-1.468 1.468v.707l1.999-1.998.177-.177zm3 0l-4.468 4.468v.707l4.999-4.998.177-.177zm3 0l-7.468 7.468v.707l7.999-7.998.177-.177zm3 0l-10.468 10.468v.707L120.177.177l.177-.177zm3 0l-13.468 13.468v.707L123.177.177l.177-.177zm3 0l-16.468 16.468v.707L126.177.177l.177-.177zm3 0l-17.823 17.823-.177.177h.708L129.177.177l.177-.177zm2.532.468l-17.355 17.355-.177.177h.708l16.824-16.825V.468zm0 3l-14.355 14.355-.177.177h.708l13.824-13.825v-.707zm0 3l-11.355 11.355-.177.177h.708l10.824-10.825v-.707zm0 3l-8.355 8.355-.177.177h.708l7.824-7.825v-.707zm0 3l-5.355 5.355-.177.177h.708l4.824-4.825v-.707zm0 3l-2.355 2.355-.177.177h.708l1.824-1.825v-.707z"/><path d="M131.646 0l-.468.468v.707l.999-.998.177-.177zm1.532 1.468l-2 2v.707l2-2v-.707zm0 3l-2 2v.707l2-2v-.707zm0 3l-2 2v.707l2-2v-.707zm0 3l-2 2v.707l2-2v-.707zm0 3l-2 2v.707l2-2v-.707zm0 3l-1.355 1.355-.177.177h.708l.824-.825v-.707zM86.646 0l-1.468 1.468v.707L87.177.177 87.354 0zm3 0l-4.468 4.468v.707L90.177.177 90.354 0zm3 0l-7.468 7.468v.707L93.177.177 93.354 0zm3 0L85.178 10.468v.707L96.177.177 96.354 0zm3 0L85.178 13.468v.707L99.177.177 99.354 0zm3 0L85.178 16.468v.707L102.177.177l.177-.177zm3 0L86.823 17.823l-.177.177h.708L105.177.177l.177-.177zm2.532.468L89.823 17.823l-.177.177h.708l16.824-16.825V.468zm0 3L92.823 17.823l-.177.177h.708l13.824-13.825v-.707zm0 3L95.823 17.823l-.177.177h.708l10.824-10.825v-.707zm0 3l-8.355 8.355-.177.177h.708l7.824-7.825v-.707zm0 3l-5.355 5.355-.177.177h.708l4.824-4.825v-.707zm0 3l-2.355 2.355-.177.177h.708l1.824-1.825v-.707zM107.646 0l-.468.468v.707l.999-.998.177-.177zm1.532 1.468l-2 2v.707l2-2v-.707zm0 3l-2 2v.707l2-2v-.707zm0 3l-2 2v.707l2-2v-.707zm0 3l-2 2v.707l2-2v-.707zm0 3l-2 2v.707l2-2v-.707zm0 3l-1.355 1.355-.177.177h.708l.824-.825v-.707z"/><path d="M80.957 1.324q.316 0 .316.266 0 .267-.276.267-.317 0-.317-.247-.01-.286.277-.286zM74.062.375q.01.316.464.539.225.11.097.11-.13 0-.63-.115.296.227.523.365 1.433.405 2.717 1.857-.909-1.59-3.17-2.756zm-1.067.702q.08.306.534.42.387.096-.208.096-.104 0-.237-.003.593.336.736.346.143.01.01.074-.133.064-.608.064.405.257.677.272.272.015.114.08-.158.063-.583.063.211.197.515.197.094 0 .196-.019l-.454.237q.217.08.405.109.504.02 0 .257.105.066.254.066.075 0 .16-.017.554.632 2.836 1.867l-.208.148-.504-.138q-.395.662-1.126 1.235-.79.108-.8.82.009.336.41.336.07 0 .153-.01.033.005.066.005.283 0 .487-.39.264-.45.692-.45h.01q.434.005.711.143l.74-.276q1.048-1.295 1.527-1.843.48-.548.696-1.422.218-.874.647-1.112.43-.237 1.033-.681l-.099-.168q-.444-.174-.772-.174-.753 0-.897.915-.208 1.314-.445 1.793-.237.479-.943.548-.037.004-.075.004-.688 0-1.718-1.2-1.087-1.264-2.415-1.679-1.33-.414-1.517-.513zM73.904 0q2.5 1.245 3.275 2.519.775 1.274 1.17 1.442.195.083.39.083.202 0 .405-.088.4-.173.544-1.136.143-.963.34-1.348.198-.385.746-.519.15-.036.306-.036.415 0 .875.259.464-.178.86-.178.286.138.118.237-1.166.75-1.72 1.121-.552.37-.775 1.309-.222.938-1.091 1.748-.909.968-.899 1.61.079.396.528.939.45.543.529 1.077.01.286-.109.424-.168-.069-.197-.217.05-.306-.015-.42-.064-.113-.143-.271-.119.306-.1.652-.236-.178-.216-.386l.069-.573q-.544-.533-.78-1.106-.238.05-.336.188.069.444.43.844.36.4.498.865-.03.622-.148.652-.168-.218-.114-.356.055-.138.005-.252-.05-.114-.118-.232-.139.138-.139.642-.177-.128-.217-.336.138-.444.04-.681-.524-.534-.78-1.275-.228-.099-.48-.148-.045-.009-.09-.009-.204 0-.399.187-.206.67-.877.67-.198 0-.437-.058-.14.234-.508.234-.098 0-.213-.016-.02-.514.326-.692-.095-1.147.817-1.147l.062.001q.88-.8 1.087-1.205-1.422-.77-2.114-1.491-.023.004-.048.004-.204 0-.564-.281l.237-.119q-.277-.04-.623-.326l.316-.049q-.207-.02-.533-.385l.366-.02q-.346-.099-.544-.425l.504-.01q-.543-.158-.622-.464l.207-.03q-.296-.167-.257-.671l1.324.434q-.287-.177-.287-.494l.208.02Q73.746.474 73.904 0zm7.85 11.157q.288 0 .288.219 0 .183-.288.183-.28 0-.28-.183 0-.219.28-.219zm-.219-.122q-.664 0-.996.428-.166.271-.323.83.008.132.218.175.21.044.41.044.927-.34 1.434-1.18-.035-.297-.743-.297zm-1.582 1.31q-.166.123-.703.447-.537.323-1.678 1.341-1.14 1.018-1.726 1.197-.585.18-1.376.214-.791.035-1.193.184 0 .122.253.192 2.194-.253 3.22-.472 1.027-.218 1.517-.371t1.25-.581q.76-.429 1.214-.83.455-.403.594-.63.14-.227-.345-.24-.485-.013-.786-.14-.302-.127-.24-.31zm-6.702 3.427l-.07.07q0 .07.087.096l.166-.01q-.183-.078-.183-.156zm-.114.104l-.07.088.131-.009q-.052-.044-.06-.079zm9.237-4.5q-.594.848-1.39 1.188.102-.005.19-.005.642 0 .65.276 0 .437-1.49 1.503-1.49 1.067-3.51 1.381-.873.114-.978.34-.017.167.83.21h1.407q.14-.305.516-.559l-.079.219q1.399-.804 2.452-1.779 1.053-.974 1.061-1.69 0-.341.341-.857 0-.079.472-.149v-.017l-.472-.061zm-6.851 4.605l-2.42.429q.253.104.353.375.1.271-.022.656l2.508-.988q-.035-.009-.166-.074-.13-.066-.231-.18-.1-.113-.022-.218zm3.801-.166q-.944.63-.926.822.14.454.682 1.153.288 0 .546-.06.139-.034.289-.034.129 0 .266.024-.9-1.276-.9-1.328 0-.34.052-.577zm2.22-5.06q.463 0 .695.127.231.127.249.337.69.096.69.14v.174q-.017.044-.577.21-.297.393-.297.716 0 .612-.445 1.206-.446.595-1.914 1.95-.131 0-.271.777l.821 1.258q.105.07.28.08.288-.097.918-.097.199.061.354.061.11 0 .196-.03.17-.06.454-.06.067 0 .14.003.297.14.053.384L78.52 18l.14-.21q-.27-.445-.699-1.223h-1.573l-3.408 1.32-.035-.123q.367-.367.306-.83-.131-.376-.69-.498v-.123l1.398-.253v-.009l-1.311.088q0-.035.223-.446.222-.41.939-.41 1.171-.036 1.726-.114.555-.08 2.12-1.512 1.563-1.433 2.236-1.59.324-1.312 1.652-1.312z" fill="red"/><path d="M74.646 0L72.56 2.086v.707L75.177.177 75.354 0zm3 0L72.56 5.086v.707L78.177.177 78.354 0zm3 0L72.56 8.086v.707L81.177.177 81.354 0zm2.532.468l-8.355 8.355-.177.177h.708l7.824-7.825V.468zm0 3l-5.355 5.355-.177.177h.708l4.824-4.825v-.707zm0 3l-2.355 2.355-.177.177h.708l1.824-1.825v-.707zm-16.839 1.47c.68.054 1.057.394 1.129 1.022-.09.68-.466 1.04-1.13 1.075-.663-.036-1.012-.394-1.048-1.075.054-.628.403-.968 1.049-1.022zm-.081-2.259c-.484 0-.932.09-1.344.27a3.545 3.545 0 0 0-1.828 1.815 3.11 3.11 0 0 0-.27 1.276c0 .466.09.901.27 1.304.178.404.425.758.739 1.063a3.422 3.422 0 0 0 2.433.968c.484 0 .937-.086 1.358-.256.421-.17.784-.408 1.089-.712.305-.305.547-.66.726-1.063.18-.403.269-.838.269-1.304 0-.448-.09-.874-.27-1.277a3.67 3.67 0 0 0-.725-1.075 3.302 3.302 0 0 0-1.09-.74 3.431 3.431 0 0 0-1.357-.269zm.054-.914a4.17 4.17 0 0 1 1.667.336c.52.224.968.529 1.344.914.377.386.677.834.901 1.345.224.51.336 1.062.336 1.653 0 .592-.112 1.143-.336 1.654a4.31 4.31 0 0 1-.9 1.331 4.267 4.267 0 0 1-3.012 1.237 4.071 4.071 0 0 1-1.654-.336 4.48 4.48 0 0 1-1.344-.9 4.195 4.195 0 0 1-.915-1.332 4.071 4.071 0 0 1-.336-1.654c0-.591.112-1.142.336-1.653A4.358 4.358 0 0 1 64.66 5.1a4.071 4.071 0 0 1 1.653-.336zm-9.827.08c.948.012 1.817.243 2.473.778.68.54 1.111 1.378 1.105 2.405v5.127h-.704V8.022c0-.838-.316-1.434-.839-1.853-.504-.4-1.215-.62-2.016-.62h-.098c-.795 0-1.512.22-2.016.62-.523.42-.839 1.015-.839 1.853v5.133h-.704V8.028c-.006-1.027.425-1.865 1.105-2.405.656-.535 1.525-.766 2.473-.778zM50.847 0v7.35h-.735V0zm-4.37 0v7.35h-.736V0zm-4.371 0v7.35h-.735V0zm-4.37 0v7.35H37V0zm13.111 10.65V18h-.735v-7.35zm-4.37 0V18h-.736v-7.35zm-4.371 0V18h-.735v-7.35zm-4.37 0V18H37v-7.35zM0 0v.354L.177.177.354 0zm2.646 0L0 2.646v.708L3.177.177 3.354 0zm3 0L0 5.646v.708L6.177.177 6.354 0zm3 0L0 8.646v.708L9.177.177 9.354 0zm3 0L0 11.646v.708L12.177.177 12.354 0zm3 0L0 14.646v.708L15.177.177 15.354 0zm3 0L0 17.646V18h.354L18.177.177 18.354 0zm3 0L2.823 17.823 2.646 18h.708L21.177.177 21.354 0zM22 1.646L5.823 17.823 5.646 18h.708L22 2.354v-.708zm0 3L8.823 17.823 8.646 18h.708L22 5.354v-.708zm0 3L11.823 17.823l-.177.177h.708L22 8.354v-.708zm0 3l-7.177 7.177-.177.177h.708L22 11.354v-.708zm0 3l-4.177 4.177-.177.177h.708L22 14.354v-.708zm0 3l-1.177 1.177-.177.177h.708l.646-.646v-.708z"/></svg>