<svg xmlns="http://www.w3.org/2000/svg" width="185.15" height="18"><path d="M128.646 0l-2.496 2.497v.707l3.027-3.027.177-.177zm3 0l-5.496 5.497v.707l6.027-6.027.177-.177zm3 0l-8.496 8.497v.707l9.027-9.027.177-.177zm3 0L126.15 11.497v.707L138.177.177l.177-.177zm3 0L126.15 14.497v.707L141.177.177l.177-.177zm3 0L126.15 17.497V18h.204L144.177.177l.177-.177zm3 0l-17.823 17.823-.177.177h.708L147.177.177l.177-.177zm3 0l-17.823 17.823-.177.177h.708L150.177.177l.177-.177zm3 0l-17.823 17.823-.177.177h.708L153.177.177l.177-.177zm3 0l-17.823 17.823-.177.177h.708L156.177.177l.177-.177zm3 0l-17.823 17.823-.177.177h.708L159.177.177l.177-.177zm3 0l-17.823 17.823-.177.177h.708L162.177.177l.177-.177zm3 0l-17.823 17.823-.177.177h.708L165.177.177l.177-.177zm3 0l-17.823 17.823-.177.177h.708L168.177.177l.177-.177zm3 0l-17.823 17.823-.177.177h.708L171.177.177l.177-.177zm3 0l-17.823 17.823-.177.177h.708L174.177.177l.177-.177zm3 0l-17.823 17.823-.177.177h.708L177.177.177l.177-.177zm3 0l-17.823 17.823-.177.177h.708L180.177.177l.177-.177zm3 0l-17.823 17.823-.177.177h.708L183.177.177l.177-.177zm2.504.497l-17.327 17.326-.177.177h.708L185.15 1.204V.497zm0 3l-14.327 14.326-.177.177h.708L185.15 4.204v-.707zm0 3l-11.327 11.326-.177.177h.708L185.15 7.204v-.707zm0 3l-8.327 8.326-.177.177h.708l7.796-7.796v-.707zm0 3l-5.327 5.326-.177.177h.708l4.796-4.796v-.707zm0 3l-2.327 2.326-.177.177h.708l1.796-1.796v-.707z"/><path d="M185.646 0l-.496.497v.707l1.027-1.027.177-.177zm1.504 1.497l-2 2v.707l2-2v-.707zm0 3l-2 2v.707l2-2v-.707zm0 3l-2 2v.707l2-2v-.707zm0 3l-2 2v.707l2-2v-.707zm0 3l-2 2v.707l2-2v-.707zm0 3l-1.327 1.326-.177.177h.708l.796-.796v-.707zM106.446.903c-.618 0-.928.335-.928 1.004v4.267h17.715V1.93c0-.685-.317-1.027-.95-1.027-.48 0-1.08.538-1.8 1.614-.721 1.083-1.445 1.625-2.173 1.625-.713 0-1.36-.455-1.943-1.366-.582-.91-1.062-1.463-1.44-1.659-.197-.1-.39-.15-.579-.15-.182 0-.36.047-.535.139-.356.188-.83.741-1.418 1.66-.583.917-1.23 1.376-1.943 1.376-.75 0-1.481-.542-2.194-1.625-.713-1.076-1.317-1.614-1.812-1.614zm.022-.903c.764 0 1.506.55 2.226 1.648.72 1.098 1.307 1.648 1.758 1.648.429 0 1.007-.55 1.735-1.648C112.915.549 113.635 0 114.348 0c.815 0 1.572.55 2.27 1.648.692 1.098 1.256 1.648 1.692 1.648.444 0 1.026-.55 1.747-1.648C120.777.549 121.519 0 122.283 0c1.244 0 1.867.643 1.867 1.93v5.146h-8.809c-1.077.003-.977.006-1 .006-.017 0-.11-.002-.931-.006h-8.81V1.907c0-1.271.623-1.907 1.867-1.907zm13.316 14.172c-1.074 0-2.419.552-3.07 1.202-.568.57-.643 1.324-.664 2.025h7.435c-.02-.701-.095-1.456-.664-2.025-.65-.65-1.963-1.202-3.037-1.202zm0-.601c1.274 0 2.645.588 3.448 1.392.824.824.918 1.909.918 2.72V18h-8.732v-.316c0-.812.061-1.897.885-2.721.804-.804 2.206-1.392 3.48-1.392zm-13.958-2.891V18h-1.225v-7.32zM102.601 0v7.32h-1.225V0zm-3.225 0v7.32h-1.225V0zm-3.225 0v7.32h-1.225V0zm6.45 10.68V18h-1.225v-7.32zm-3.225 0V18h-1.225v-7.32zm-3.225 0V18h-1.225v-7.32zm-8.174-9.337q.088.166.198.364l.188 1.091q0 .573-.188 1.07-.198.43-.496.771 1.995-.364 3.594-.54-1.003-.595-1.576-1.323-.585-.727-1.72-1.433zm-4.707-.088q-.606.044-2.04.915-1.432.86-2.954 1.422 1.114.066 2.425.474 1.323.397 2.778.595-.231-.275-.463-.782-.22-.508-.22-1.08 0-.585.21-1.092.11-.243.264-.452zm2.32-.508q-.381 0-.733.155-.375.155-.661.42-.287.253-.463.616-.143.364-.165.783-.023.419.132.783.165.364.419.65.264.298.628.463.364.154.783.165l.054.001q.379 0 .728-.144.375-.154.662-.408.275-.253.44-.617.155-.364.177-.794 0-.408-.154-.771-.144-.364-.397-.65-.265-.298-.628-.442-.364-.198-.772-.21h-.05zM85.65 0q.72 0 1.423.153 1.521.33 3.086 1.973 1.566 1.631 2.745 1.742l.022.771q-2.678.232-5.258.706-.964.177-2.029.177-1.783 0-3.846-.497-3.285-.794-4.167-.96H76.17v-.947h1.499q1.07-.364 2.866-1.444Q82.322.594 83.942.208 84.81 0 85.65 0zm5.221 15.57L92.926 18h-1.002l-1.053-1.255L89.808 18l-1.033-1.255L87.712 18l-1.053-1.255L85.596 18l-1.052-1.255L83.48 18l-1.033-1.255L81.385 18l-1.063-1.255L79.289 18l-1.063-1.255L77.173 18h-1.002l2.055-2.43 1.063 1.175 1.033-1.175 1.063 1.175 1.063-1.175 1.033 1.175 1.063-1.175 1.052 1.175 1.063-1.175 1.053 1.175 1.063-1.175 1.033 1.175 1.063-1.175zM71.848 0q2.323 0 2.323 2.232V18H73.1V2.232q0-1.16-1.252-1.16-1.261 0-1.261 1.16v10.492h-1.071V2.232Q69.516 0 71.848 0zM65.28 0l2.236 2.643h-1.09L65.28 1.277l-1.156 1.366-1.123-1.366-1.156 1.366L60.7 1.277l-1.156 1.366-1.146-1.366-1.156 1.366-1.123-1.366-1.156 1.366-1.156-1.366-1.123 1.366-1.157-1.366-1.145 1.366h-1.09L51.527 0l1.157 1.277L53.807 0l1.156 1.277L56.119 0l1.123 1.277L58.398 0l1.146 1.277L60.7 0l1.145 1.277L63 0l1.123 1.277L65.28 0zm2.236 10.67V18H66.29v-7.33zm-8.424.01V18h-1.225v-7.32zm-8.575 0V18h-1.225v-7.32zm-4.659-3.222v1.656c.566 0 .849-.283.849-.848 0-.539-.283-.808-.849-.808zM43.763 0c.464 0 .856.116 1.176.35.613.443.92 1.09.92 1.938v4.584c.942 0 1.42.465 1.433 1.394 0 .942-.478 1.413-1.434 1.413V18h-.746V2.732c0-1.023-.199-1.68-.596-1.969-.206-.15-.476-.225-.838-.225-.337 0-.754.065-1.273.195a.65.65 0 0 1-.212.043c-.112 0-.189-.048-.232-.144-.014-.162.107-.276.363-.343C42.863.096 43.342 0 43.764 0zm-8.169.601c-1.074 0-2.418.552-3.068 1.202-.57.57-.644 1.324-.665 2.025h7.435c-.02-.7-.095-1.455-.664-2.025-.65-.65-1.963-1.202-3.038-1.202zm0-.601c1.275 0 2.646.589 3.449 1.392.824.824.918 1.91.918 2.72v.317h-8.733v-.316c0-.812.062-1.897.886-2.72C32.918.588 34.32 0 35.594 0zm1.187 9.627c5.439 1.9 2.904 9.54-2.195 8.228-5.054-1.302-4.045-9.318 2.195-8.228m-.243.698c-5.417-.787-5.639 5.768-1.708 6.812 3.846 1.022 6.482-5.13 1.708-6.812m-1.188 1.152c-1.083-.74.885-.487 0-.018v.018m1.985.433c-1.227-.397.343-.795 0-.073v.073m-2.993-.712v.732l-.73-.244.73-.488m3.571 2.066c-.903-.795.595-.885.109-.09l-.109.09m-2.839-.846l.244.731-.732-.487.488-.244m1.052.358l.072-.017c.668-.489 1.39 1.767-.072.017m-3.014-.397c.957.56-.162.703-.253.703l.253-.703m2.938 1.502l-.244.244-.488-.732.732.488m-1.674-.474l.469.019c-.56.866-.758.793-.47-.019m3.682 1.517c-.884-.74.433-.632.415-.488l-.415.488m-1.01-.903l-.221.305c-.718-.215-.34-.792.22-.305m-3.434.836l-.245.244-.488-.732.733.488m1.323.012c.758-.378.92-.27.47.344l-.47-.344m2.578.72l-.244.731-.488-.732h.732m-3.246-.465l.451.54c-.107.217-1.1.145-.45-.54m1.538.71l.244.731h-.732l.488-.732zM26.434 3.644c.4 0 .823.084 1.266.253.923.351 1.432 1.215 1.528 2.592-.04 1.308-.57 2.54-1.59 3.696-.812 1.005-1.314 1.659-1.507 1.962-.51.757-.812 1.493-.908 2.21h-.888c.137-1.02.543-2.01 1.218-2.974a47.457 47.457 0 0 1 1.9-2.354c.715-1.143.994-2.151.836-3.026-.158-.874-.64-1.355-1.446-1.445a3.552 3.552 0 0 0-.391-.023c-.597 0-1.024.18-1.281.54-.31.433-.375.922-.196 1.465.152.462.438.693.858.693.075 0 .153-.007.236-.022.55-.096.764-.433.64-1.011l.455-.868c.357.386.52.792.485 1.219-.035.426-.224.805-.568 1.135-.3.289-.687.433-1.16.433a2.53 2.53 0 0 1-.213-.01c-.572-.047-1.012-.292-1.322-.732-.31-.44-.433-1.03-.371-1.766.061-.736.46-1.294 1.197-1.672a2.63 2.63 0 0 1 1.222-.295zM2.646 0L0 2.646v.708L3.177.177 3.354 0zm3 0L0 5.646v.708L6.177.177 6.354 0zm3 0L0 8.646v.708L9.177.177 9.354 0zm3 0L0 11.646v.708L12.177.177 12.354 0zm3 0L0 14.646v.708L15.177.177 15.354 0zm3 0L0 17.646V18h.354L18.177.177 18.354 0zm3 0L2.823 17.823 2.646 18h.708L21.177.177 21.354 0zM22 1.646L5.823 17.823 5.646 18h.708L22 2.354v-.708zm0 3L8.823 17.823 8.646 18h.708L22 5.354v-.708zm0 3L11.823 17.823l-.177.177h.708L22 8.354v-.708zm0 3l-7.177 7.177-.177.177h.708L22 11.354v-.708zm0 3l-4.177 4.177-.177.177h.708L22 14.354v-.708zm0 3l-1.177 1.177-.177.177h.708l.646-.646v-.708z"/></svg>