<svg xmlns="http://www.w3.org/2000/svg" width="206.011" height="18"><path d="M204.364 0c.335 0 .67.026.994.066.448.113.218.626-.18.626a.476.476 0 0 1-.081-.008c-.84.097-1.872.15-2.506.626-.841.916-.463 2.821-.561 3.725-.007.05-.01 3.653-.01 5.48a6.145 6.145 0 0 1 2.635-.586c.402 0 .8.04 1.187.117.441.231-.076.528-.422.528a.454.454 0 0 1-.115-.013c-1.226.133-2.62.461-3.243 1.602-.061.206-.023.277.071.277.206 0 .68-.342.946-.342.014 0 .028 0 .04.003a7.535 7.535 0 0 1 1.58-.169c.39 0 .777.031 1.15.095.42.278-.097.534-.439.534a.532.532 0 0 1-.105-.01c-1.251.151-2.636.49-3.243 1.633-.007 1.27 0 2.11-.033 3.278.014.36-.22.538-.456.538-.235 0-.473-.176-.475-.526.009-1.15.091-2.161-.06-3.277-.304-1.253-2.477-1.445-3.827-1.754-.294-.347.285-.475.659-.475.055 0 .107.003.15.008.173-.013.347-.02.521-.02.882 0 1.771.175 2.557.58.032-.755-.711-1.19-1.244-1.493-.84-.361-1.765-.397-2.643-.59-.313-.273.18-.501.521-.501a.58.58 0 0 1 .125.012 7.01 7.01 0 0 1 .648-.031c.903 0 1.805.183 2.614.582-.016-2.851-.062-5.61.02-8.308.065-.834.546-1.6 1.354-1.849.58-.264 1.227-.358 1.87-.358z"/><path d="M197.646 0l-.534.534v.707l1.065-1.064.177-.177zm3 0l-3.534 3.534v.707l4.065-4.064.177-.177zm3 0l-6.534 6.534v.707l7.065-7.064.177-.177zm2.365.636l-8.899 8.898v.707l8.899-8.898V.636zm0 3l-8.899 8.898v.707l8.899-8.898v-.707zm0 3l-8.899 8.898v.707l8.899-8.898v-.707zm0 3l-8.188 8.187-.177.177h.708l7.657-7.657v-.707zm0 3l-5.188 5.187-.177.177h.708l4.657-4.657v-.707zm0 3l-2.188 2.187-.177.177h.708l1.657-1.657v-.707z"/><path d="M206.646 0l-.635.636v.707l1.166-1.166.177-.177zm1.4 1.6l-2.035 2.036v.707l2.035-2.035V1.6zm0 3l-2.035 2.036v.707l2.035-2.035V4.6zm0 3l-2.035 2.036v.707l2.035-2.035V7.6zm0 3l-2.035 2.036v.707l2.035-2.035V10.6zm0 3l-2.035 2.036v.707l2.035-2.035V13.6zm0 3l-1.223 1.223-.177.177h.708l.692-.692V16.6zM180.369 2.99q-.557 0-1.086.606 4.368 5.2 5.46 5.81.814.457 1.434.457.21 0 .399-.053.74-.208 1.586-.234h.042q.828 0 1.817.988h.13q-.702-1.638-1.963-2.34-1.261-.702-7.397-5.148-.213-.085-.422-.085zM188.1.622q-.066 0-.133.01v6.683q2.054 1.196 2.834 3.354-1.196-8.268-1.677-9.204Q188.69.62 188.1.62zm5.356 10.468q.08 0 .153.138.13.247-.234.689-.208-.546-.052-.741.069-.086.133-.086zm-.037-.372q-.153 0-.33.237-.39.52.234 2.08.702-1.352.429-1.976-.149-.34-.333-.34zm-6.804 2.577v.39q.286-.026.442-.182-.052-.078-.208-.208zm-.598.884l-2.418.338-.494.884q.832-.234 1.833-.624 1-.39 1.079-.598zm5.33-.364l-.468.234-.156 1.118.416 1.274h.65l-.442-1.274v-1.352zm-1.118.39l-.442.13-.156.832.416 1.274h.65l-.442-1.274-.026-.962zm-1.534.156l-.156.806.416 1.274h.65l-.442-1.274v-.78l-.468-.026zm.994-3.234q-.415 0-.89.1-1.404.3-1.768 1.418h-1.092l-.416-.676q-5.512 1.274-6.214 4.602 1.508-.832 3.172-1.118l.728-1.456 2.886-.39-.078-.702h.988q1.092.9 2.228.9.243 0 .489-.042 1.39-.234 1.82-.95.429-.714-.455-1.3-.585-.386-1.398-.386zM187.843 0q.948 0 1.489.658.663.806 1.235 4.238l.91 5.954q.442.468.676.52h.312q.026-.65.494-1.196.416-3.978-.364-6.968l.312-.598q1.118 3.38.546 7.592h.078q1.794-4.03.52-7.592l.312-.468q1.664 3.796-.364 8.242.572 1.248.117 2.054-.455.806-.559 1.508l-.182.13q-.702-1.04-.806-1.794h-.26q-.026.598-.338 1.248l-.182 1.638.442 1.274h2.262v.624h-6.526v-.624h.546l-.416-1.274-.026-.962q-.468-.156-.702-.364-.338.312-.754.312.026.26-.104.442-1.04.806-3.718 1.404l-.91 1.768q0-.434-.27-.434-.085 0-.198.044l.728-1.3q-1.508.338-2.288.858-.416.442.052 1.066-1.04-.442-1.17-1.248.416-3.926 7.046-5.46l.468.78h.416q.338-1.092 2.678-1.508-.522-.388-1.285-.388-.414 0-.9.115-.491.116-.96.116-.844 0-1.613-.376-1.196-.585-6.084-6.461.9-1.136 1.905-1.136.329 0 .669.122l6.318 4.524V.034q.235-.034.448-.034z"/><path d="M179.646 0l-1.143 1.144v.707l1.674-1.674.177-.177zm3 0l-4.143 4.144v.707l4.674-4.674.177-.177zm3 0l-7.143 7.144v.707l7.674-7.674.177-.177zm3 0l-10.143 10.144v.707L189.177.177l.177-.177zm3 0l-13.143 13.144v.707L192.177.177l.177-.177zm3 0l-16.143 16.144v.707l16.61-16.61V0zm.466 2.534l-15.289 15.29-.177.176h.708l14.758-14.759v-.707zm0 3l-12.289 12.29-.177.176h.708l11.758-11.759v-.707zm0 3l-9.289 9.29-.177.176h.708l8.758-8.759v-.707zm0 3l-6.289 6.29-.177.176h.708l5.758-5.759v-.707zm0 3l-3.289 3.29-.177.176h.708l2.758-2.759v-.707zm0 3l-.289.29-.177.176h.466v-.466z"/><path d="M197.219.428l-2.107 2.106v.707l2.107-2.106V.428zm0 3l-2.107 2.106v.707l2.107-2.106v-.707zm0 3l-2.107 2.106v.707l2.107-2.106v-.707zm0 3l-2.107 2.106v.707l2.107-2.106v-.707zm0 3l-2.107 2.106v.707l2.107-2.106v-.707zm0 3l-2.107 2.106V18h.242l1.865-1.865v-.707zM155.646 0l-1.143 1.144v.707l1.674-1.674.177-.177zm3 0l-4.143 4.144v.707l4.674-4.674.177-.177zm3 0l-7.143 7.144v.707l7.674-7.674.177-.177zm3 0l-10.143 10.144v.707L165.177.177l.177-.177zm3 0l-13.143 13.144v.707L168.177.177l.177-.177zm3 0l-16.143 16.144v.707L171.177.177l.177-.177zm3 0l-17.823 17.823-.177.177h.708L174.177.177l.177-.177zm2.857.144l-17.68 17.68-.177.176h.708L176.503.851V.144zm0 3l-14.68 14.68-.177.176h.708l14.149-14.149v-.707zm0 3l-11.68 11.68-.177.176h.708l11.149-11.149v-.707zm0 3l-8.68 8.68-.177.176h.708l8.149-8.149v-.707zm0 3l-5.68 5.68-.177.176h.708l5.149-5.149v-.707zm0 3l-2.68 2.68-.177.176h.708l2.149-2.149v-.707zM176.646 0l-.143.144V.85l.674-.674.177-.177zm1.857 1.144l-2 2v.707l2-2v-.707zm0 3l-2 2v.707l2-2v-.707zm0 3l-2 2v.707l2-2v-.707zm0 3l-2 2v.707l2-2v-.707zm0 3l-2 2v.707l2-2v-.707zm0 3l-1.68 1.68-.177.176h.708l1.149-1.149v-.707zM131.646 0l-1.143 1.144v.707l1.674-1.674.177-.177zm3 0l-4.143 4.144v.707l4.674-4.674.177-.177zm3 0l-7.143 7.144v.707l7.674-7.674.177-.177zm3 0l-10.143 10.144v.707L141.177.177l.177-.177zm3 0l-13.143 13.144v.707L144.177.177l.177-.177zm3 0l-16.143 16.144v.707L147.177.177l.177-.177zm3 0l-17.823 17.823-.177.177h.708L150.177.177l.177-.177zm2.857.144l-17.68 17.68-.177.176h.708L152.503.851V.144zm0 3l-14.68 14.68-.177.176h.708l14.149-14.149v-.707zm0 3l-11.68 11.68-.177.176h.708l11.149-11.149v-.707zm0 3l-8.68 8.68-.177.176h.708l8.149-8.149v-.707zm0 3l-5.68 5.68-.177.176h.708l5.149-5.149v-.707zm0 3l-2.68 2.68-.177.176h.708l2.149-2.149v-.707zM152.646 0l-.143.144V.85l.674-.674.177-.177zm1.857 1.144l-2 2v.707l2-2v-.707zm0 3l-2 2v.707l2-2v-.707zm0 3l-2 2v.707l2-2v-.707zm0 3l-2 2v.707l2-2v-.707zm0 3l-2 2v.707l2-2v-.707zm0 3l-1.68 1.68-.177.176h.708l1.149-1.149v-.707zM107.646 0l-1.143 1.144v.707l1.674-1.674.177-.177zm3 0l-4.143 4.144v.707l4.674-4.674.177-.177zm3 0l-7.143 7.144v.707l7.674-7.674.177-.177zm3 0l-10.143 10.144v.707L117.177.177l.177-.177zm3 0l-13.143 13.144v.707L120.177.177l.177-.177zm3 0l-16.143 16.144v.707L123.177.177l.177-.177zm3 0l-17.823 17.823-.177.177h.708L126.177.177l.177-.177zm2.857.144l-17.68 17.68-.177.176h.708L128.503.851V.144zm0 3l-14.68 14.68-.177.176h.708l14.149-14.149v-.707zm0 3l-11.68 11.68-.177.176h.708l11.149-11.149v-.707zm0 3l-8.68 8.68-.177.176h.708l8.149-8.149v-.707zm0 3l-5.68 5.68-.177.176h.708l5.149-5.149v-.707zm0 3l-2.68 2.68-.177.176h.708l2.149-2.149v-.707z"/><path d="M128.646 0l-.143.144V.85l.674-.674.177-.177zm1.857 1.144l-2 2v.707l2-2v-.707zm0 3l-2 2v.707l2-2v-.707zm0 3l-2 2v.707l2-2v-.707zm0 3l-2 2v.707l2-2v-.707zm0 3l-2 2v.707l2-2v-.707zm0 3l-1.68 1.68-.177.176h.708l1.149-1.149v-.707zM83.646 0l-1.143 1.144v.707L84.177.177 84.354 0zm3 0l-4.143 4.144v.707L87.177.177 87.354 0zm3 0l-7.143 7.144v.707L90.177.177 90.354 0zm3 0L82.503 10.144v.707L93.177.177 93.354 0zm3 0L82.503 13.144v.707L96.177.177 96.354 0zm3 0L82.503 16.144v.707L99.177.177 99.354 0zm3 0L83.823 17.823l-.177.177h.708L102.177.177l.177-.177zm2.857.144l-17.68 17.68-.177.176h.708L104.503.851V.144zm0 3l-14.68 14.68-.177.176h.708l14.149-14.149v-.707zm0 3l-11.68 11.68-.177.176h.708l11.149-11.149v-.707zm0 3l-8.68 8.68-.177.176h.708l8.149-8.149v-.707zm0 3l-5.68 5.68-.177.176h.708l5.149-5.149v-.707zm0 3l-2.68 2.68-.177.176h.708l2.149-2.149v-.707zM104.646 0l-.143.144V.85l.674-.674.177-.177zm1.857 1.144l-2 2v.707l2-2v-.707zm0 3l-2 2v.707l2-2v-.707zm0 3l-2 2v.707l2-2v-.707zm0 3l-2 2v.707l2-2v-.707zm0 3l-2 2v.707l2-2v-.707zm0 3l-1.68 1.68-.177.176h.708l1.149-1.149v-.707zM59.646 0l-1.143 1.144v.707L60.177.177 60.354 0zm3 0l-4.143 4.144v.707L63.177.177 63.354 0zm3 0l-7.143 7.144v.707L66.177.177 66.354 0zm3 0L58.503 10.144v.707L69.177.177 69.354 0zm3 0L58.503 13.144v.707L72.177.177 72.354 0zm3 0L58.503 16.144v.707L75.177.177 75.354 0zm3 0L59.823 17.823l-.177.177h.708L78.177.177 78.354 0zm2.857.144l-17.68 17.68-.177.176h.708L80.503.851V.144zm0 3l-14.68 14.68-.177.176h.708L80.503 3.851v-.707zm0 3l-11.68 11.68-.177.176h.708L80.503 6.851v-.707zm0 3l-8.68 8.68-.177.176h.708l8.149-8.149v-.707zm0 3l-5.68 5.68-.177.176h.708l5.149-5.149v-.707zm0 3l-2.68 2.68-.177.176h.708l2.149-2.149v-.707zM80.646 0l-.143.144V.85l.674-.674.177-.177zm1.857 1.144l-2 2v.707l2-2v-.707zm0 3l-2 2v.707l2-2v-.707zm0 3l-2 2v.707l2-2v-.707zm0 3l-2 2v.707l2-2v-.707zm0 3l-2 2v.707l2-2v-.707zm0 3l-1.68 1.68-.177.176h.708l1.149-1.149v-.707zM55.069 7.458v1.656c.565 0 .848-.283.848-.848 0-.539-.283-.808-.848-.808zM52.974 0c.463 0 .855.116 1.176.35.612.443.919 1.09.919 1.938v4.584c.942 0 1.42.465 1.434 1.394 0 .942-.478 1.413-1.434 1.413V18h-.747V2.732c0-1.023-.198-1.68-.595-1.969-.206-.15-.476-.225-.839-.225-.337 0-.754.065-1.273.195a.65.65 0 0 1-.212.043c-.111 0-.188-.048-.232-.144-.014-.162.108-.276.363-.343C52.073.096 52.553 0 52.974 0z"/><path d="M53.646 0l-2.475 2.475v.708L54.177.177 54.354 0zm2.857.144L51.17 5.475v.708L56.503.85V.144zm0 3L51.17 8.475v.708l5.332-5.332v-.707zm0 3l-5.332 5.331v.708l5.332-5.332v-.707zm0 3l-5.332 5.331v.708l5.332-5.332v-.707zm0 3l-5.332 5.331V18h.183l5.149-5.149v-.707zm0 3l-2.68 2.68-.177.176h.708l2.149-2.149v-.707zM56.646 0l-.143.144V.85l.674-.674.177-.177zm1.879 1.121l-2.022 2.023v.707l2.022-2.022V1.12zm0 3l-2.022 2.023v.707l2.022-2.022V4.12zm0 3l-2.022 2.023v.707l2.022-2.022V7.12zm0 3l-2.022 2.023v.707l2.022-2.022v-.708zm0 3l-2.022 2.023v.707l2.022-2.022v-.708zm0 3l-1.702 1.702-.177.177h.708l1.171-1.171v-.708zM44.805.601c-1.074 0-2.418.552-3.069 1.202-.57.57-.644 1.324-.664 2.025h7.435c-.021-.7-.096-1.455-.665-2.025-.65-.65-1.963-1.202-3.037-1.202zm0-.601c1.274 0 2.645.589 3.448 1.392.825.824.918 1.91.918 2.72v.317h-8.732v-.316c0-.812.062-1.897.886-2.72C42.128.588 43.53 0 44.805 0zm1.187 9.627c5.438 1.9 2.903 9.54-2.195 8.228-5.054-1.302-4.046-9.318 2.195-8.228m-.243.698c-5.418-.787-5.64 5.768-1.708 6.812 3.846 1.022 6.482-5.13 1.708-6.812m-1.189 1.152c-1.082-.74.885-.487 0-.018v.018m1.986.433c-1.228-.397.343-.795 0-.073v.073m-2.993-.712v.732l-.731-.244.73-.488m3.572 2.066c-.904-.795.595-.885.108-.09l-.108.09m-2.84-.846l.245.731-.732-.487.488-.244m1.052.358l.072-.017c.668-.489 1.39 1.767-.072.017m-3.014-.397c.956.56-.162.703-.253.703l.253-.703m2.938 1.502l-.244.244-.488-.732.732.488m-1.675-.474l.469.019c-.559.866-.757.793-.469-.019m3.681 1.517c-.883-.74.434-.632.416-.488l-.416.488m-1.01-.903l-.22.305c-.719-.215-.34-.792.22-.305m-3.435.836l-.244.244-.488-.732.732.488m1.323.012c.758-.378.92-.27.47.344l-.47-.344m2.579.72l-.244.731-.488-.732h.732m-3.246-.465l.45.54c-.107.217-1.1.145-.45-.54m1.539.71l.244.731h-.732l.488-.732zM35.47 0c1.084 0 2.168.639 2.667 1.903.432 1.098.28 3.186.28 4.414h-.735c0-.962.111-2.825-.16-3.677C37.175 1.542 36.319.966 35.46.966c-.77 0-1.54.464-1.943 1.432-.377.9-.247 2.884-.247 3.919h-.735c0-1.229-.152-3.315.28-4.414C33.318.63 34.394 0 35.47 0zm-8.513 0c1.084 0 2.168.639 2.666 1.903.433 1.098.281 3.186.281 4.414h-.736c0-.962.112-2.825-.158-3.677-.35-1.098-1.206-1.674-2.063-1.674-.77 0-1.54.464-1.943 1.432-.377.9-.247 2.884-.247 3.919h-.735c0-1.229-.152-3.315.28-4.414C24.805.63 25.88 0 26.958 0zm8.513 11.683c1.084 0 2.168.639 2.667 1.904.432 1.098.28 3.186.28 4.413h-.735c0-.962.111-2.825-.16-3.676-.348-1.098-1.204-1.675-2.062-1.675-.77 0-1.54.464-1.943 1.432-.377.9-.247 2.884-.247 3.919h-.735c0-1.228-.152-3.314.28-4.413.502-1.273 1.578-1.904 2.655-1.904zm-8.513 0c1.084 0 2.168.639 2.666 1.904.433 1.098.281 3.186.281 4.413h-.736c0-.962.112-2.825-.158-3.676-.349-1.098-1.206-1.675-2.063-1.675-.77 0-1.54.464-1.943 1.432-.377.9-.247 2.884-.247 3.919h-.735c0-1.228-.152-3.314.28-4.413.502-1.273 1.578-1.904 2.655-1.904zM0 0v.354L.177.177.354 0zm2.646 0L0 2.646v.708L3.177.177 3.354 0zm3 0L0 5.646v.708L6.177.177 6.354 0zm3 0L0 8.646v.708L9.177.177 9.354 0zm3 0L0 11.646v.708L12.177.177 12.354 0zm3 0L0 14.646v.708L15.177.177 15.354 0zm3 0L0 17.646V18h.354L18.177.177 18.354 0zm3 0L2.823 17.823 2.646 18h.708L21.177.177 21.354 0zM22 1.646L5.823 17.823 5.646 18h.708L22 2.354v-.708zm0 3L8.823 17.823 8.646 18h.708L22 5.354v-.708zm0 3L11.823 17.823l-.177.177h.708L22 8.354v-.708zm0 3l-7.177 7.177-.177.177h.708L22 11.354v-.708zm0 3l-4.177 4.177-.177.177h.708L22 14.354v-.708zm0 3l-1.177 1.177-.177.177h.708l.646-.646v-.708z"/></svg>