<svg xmlns="http://www.w3.org/2000/svg" width="265.769" height="18"><path d="M264.122 0c.336 0 .67.026.995.066.447.113.217.626-.18.626a.476.476 0 0 1-.082-.008c-.839.097-1.872.15-2.506.626-.84.916-.463 2.821-.56 3.725-.008.05-.01 3.653-.01 5.48a6.145 6.145 0 0 1 2.634-.586c.402 0 .801.04 1.188.117.44.231-.077.528-.423.528a.454.454 0 0 1-.114-.013c-1.226.133-2.62.461-3.243 1.602-.062.206-.023.277.07.277.207 0 .68-.342.947-.342.014 0 .027 0 .04.003a7.535 7.535 0 0 1 1.58-.169c.39 0 .776.031 1.149.095.42.278-.096.534-.438.534a.532.532 0 0 1-.105-.01c-1.252.151-2.637.49-3.243 1.633-.007 1.27 0 2.11-.034 3.278.015.36-.22.538-.456.538-.235 0-.473-.176-.474-.526.008-1.15.09-2.161-.06-3.277-.305-1.253-2.478-1.445-3.827-1.754-.295-.347.285-.475.658-.475.056 0 .107.003.15.008.173-.013.347-.02.522-.02.882 0 1.77.175 2.557.58.032-.755-.712-1.19-1.244-1.493-.84-.361-1.766-.397-2.643-.59-.314-.273.18-.501.52-.501a.58.58 0 0 1 .126.012c.215-.02.431-.031.648-.031.902 0 1.804.183 2.614.582-.017-2.851-.063-5.61.019-8.308.066-.834.546-1.6 1.354-1.849.58-.264 1.227-.358 1.871-.358zm-23.994 2.99q-.557 0-1.087.606 4.368 5.2 5.46 5.81.815.457 1.434.457.211 0 .4-.053.74-.208 1.585-.234h.043q.828 0 1.816.988h.13q-.702-1.638-1.963-2.34-1.26-.702-7.397-5.148-.213-.085-.421-.085zm7.73-2.369q-.065 0-.133.01v6.683q2.054 1.196 2.834 3.354-1.196-8.268-1.677-9.204Q248.45.62 247.86.62zm5.356 10.468q.08 0 .153.138.13.247-.234.689-.208-.546-.052-.741.07-.086.133-.086zm-.036-.372q-.153 0-.33.237-.39.52.233 2.08.702-1.352.43-1.976-.15-.34-.333-.34zm-6.805 2.577v.39q.286-.026.442-.182-.052-.078-.208-.208zm-.598.884l-2.418.338-.494.884q.832-.234 1.833-.624t1.08-.598zm5.33-.364l-.468.234-.156 1.118.416 1.274h.65l-.442-1.274v-1.352zm-1.118.39l-.442.13-.156.832.416 1.274h.65l-.442-1.274-.026-.962zm-1.534.156l-.156.806.416 1.274h.65l-.442-1.274v-.78l-.468-.026zm.995-3.234q-.416 0-.89.1-1.405.3-1.769 1.418h-1.092l-.416-.676q-5.512 1.274-6.214 4.602 1.508-.832 3.172-1.118l.728-1.456 2.886-.39-.078-.702h.988q1.092.9 2.228.9.244 0 .49-.042 1.39-.234 1.82-.95.428-.714-.456-1.3-.585-.386-1.397-.386zM247.602 0q.947 0 1.488.658.663.806 1.235 4.238l.91 5.954q.442.468.676.52h.312q.026-.65.494-1.196.416-3.978-.364-6.968l.312-.598q1.118 3.38.546 7.592h.078q1.794-4.03.52-7.592l.312-.468q1.665 3.796-.364 8.242.572 1.248.117 2.054-.455.806-.559 1.508l-.182.13q-.702-1.04-.806-1.794h-.26q-.026.598-.338 1.248l-.182 1.638.442 1.274h2.262v.624h-6.526v-.624h.546l-.416-1.274-.026-.962q-.468-.156-.702-.364-.338.312-.754.312.026.26-.104.442-1.04.806-3.718 1.404l-.91 1.768q0-.434-.27-.434-.085 0-.198.044l.728-1.3q-1.508.338-2.288.858-.416.442.052 1.066-1.04-.442-1.17-1.248.416-3.926 7.046-5.46l.468.78h.416q.338-1.092 2.678-1.508-.522-.388-1.284-.388-.414 0-.9.115-.492.116-.96.116-.845 0-1.614-.376-1.196-.585-6.084-6.461.901-1.136 1.905-1.136.33 0 .67.122l6.317 4.524V.034q.235-.034.449-.034z"/><path d="M228.761.375c9.625 0 9.625 17.25 0 17.25" fill="none" stroke="#000"/><path d="M222.54 7.938c.68.054 1.057.394 1.129 1.022-.09.68-.466 1.04-1.13 1.075-.663-.036-1.012-.394-1.048-1.075.054-.628.403-.968 1.048-1.022zm-.081-2.259c-.484 0-.932.09-1.345.27a3.545 3.545 0 0 0-1.828 1.815 3.11 3.11 0 0 0-.269 1.276c0 .466.09.901.269 1.304a3.422 3.422 0 0 0 3.173 2.03c.484 0 .936-.085 1.358-.255.421-.17.784-.408 1.089-.712.304-.305.546-.66.726-1.063.179-.403.269-.838.269-1.304 0-.448-.09-.874-.27-1.277a3.67 3.67 0 0 0-.725-1.075 3.302 3.302 0 0 0-1.09-.74 3.431 3.431 0 0 0-1.357-.269zm.054-.914a4.17 4.17 0 0 1 1.667.336c.52.224.968.529 1.344.914.377.386.677.834.9 1.345.225.51.337 1.062.337 1.653 0 .592-.112 1.143-.336 1.654a4.31 4.31 0 0 1-.9 1.331 4.267 4.267 0 0 1-3.012 1.237 4.071 4.071 0 0 1-1.654-.336 4.48 4.48 0 0 1-1.345-.9 4.195 4.195 0 0 1-.914-1.332 4.071 4.071 0 0 1-.336-1.654c0-.591.112-1.142.336-1.653a4.358 4.358 0 0 1 2.26-2.26 4.071 4.071 0 0 1 1.654-.336zM194.646 0l-.382.382v.707l.913-.912.177-.177zm3 0l-3.382 3.382v.707l3.913-3.912.177-.177zm3 0l-6.382 6.382v.707l6.913-6.912.177-.177zm3 0l-9.382 9.382v.707l9.913-9.912.177-.177zm3 0l-12.382 12.382v.707L207.177.177l.177-.177zm3 0l-15.382 15.382v.707L210.177.177l.177-.177zm3 0l-17.823 17.823-.177.177h.708L213.177.177l.177-.177zm3 0l-17.823 17.823-.177.177h.708L216.177.177l.087-.088V0zm.618 2.382l-15.44 15.441-.178.177h.708l14.91-14.91v-.708zm0 3l-12.44 12.441-.178.177h.708l11.91-11.91v-.708zm0 3l-9.44 9.441-.178.177h.708l8.91-8.91v-.708zm0 3l-6.44 6.441-.178.177h.708l5.91-5.91v-.708zm0 3l-3.44 3.441-.178.177h.708l2.91-2.91v-.708zm0 3l-.44.441-.178.177h.618v-.618zm2-17l-2 2v.707l2-2V.382zm0 3l-2 2v.707l2-2v-.707zm0 3l-2 2v.707l2-2v-.707zm0 3l-2 2v.707l2-2v-.707zm0 3l-2 2v.707l2-2v-.707zm0 3l-2 2V18h.09l1.91-1.91v-.708zM182.646 0l-1.382 1.382v.707l1.913-1.912.177-.177zm3 0l-4.382 4.382v.707l4.913-4.912.177-.177zm3 0l-7.382 7.382v.707l7.913-7.912.177-.177zm3 0l-10.382 10.382v.707L192.177.177l.087-.088V0zm.618 2.382l-11 11v.707l11-11v-.707zm0 3l-11 11v.707l11-11v-.707zm0 3l-9.44 9.441-.178.177h.708l8.91-8.91v-.708zm0 3l-6.44 6.441-.178.177h.708l5.91-5.91v-.708zm0 3l-3.44 3.441-.178.177h.708l2.91-2.91v-.708zm0 3l-.44.441-.178.177h.618v-.618z"/><path d="M194.264.382l-2 2v.707l2-2V.382zm0 3l-2 2v.707l2-2v-.707zm0 3l-2 2v.707l2-2v-.707zm0 3l-2 2v.707l2-2v-.707zm0 3l-2 2v.707l2-2v-.707zm0 3l-2 2V18h.09l1.91-1.91v-.708zm-16-13.186q.12 0 .288.147.661.89.712 2.544-.204 1.298-.916 3.665.254 1.908.382 5.242.101 1.12-.611 1.45-2.112.56-5.344.56-3.257 0-5.344-.56-.738-.33-.636-1.45.127-3.334.382-5.242-.713-2.367-.916-3.665.05-1.654.712-2.544.168-.147.288-.147.172 0 .247.3-.178.508-.331.992-.204.61-.153 1.145.051.865.166 1.412.114.547.47.547l.038.002q.598 0 .598-1.605 0-.585-.152-1.425.13-.223.282-.223.143 0 .303.198.076.61.102 1.348.102 1.12-.535 3.156.23 2.875.23 5.75 1.73.28 4.25.357 2.493-.076 4.223-.356 0-2.876.23-5.751-.637-2.036-.535-3.156.025-.738.102-1.348.16-.198.303-.198.15 0 .282.223-.153.84-.153 1.425 0 1.605.6 1.605l.036-.002q.357 0 .471-.547.115-.547.166-1.412.05-.535-.153-1.145-.153-.484-.33-.993.074-.299.246-.299zM164.26 5.34v7.32h-1.224V5.34zM155.629.597a2.12 2.12 0 0 0-.692.109c.03.223.168.569.952.773-.73-.053-1.206-.113-1.452-.307-.089.2-.137.427-.158.556a.297.297 0 0 1-.206.237c-.625.191-1.174 1.112-1.701 1.763-.95 1.173-1.77 2.48-2.687 3.733.423-.207.845-.415 1.27-.622 1.181-.622 2.394-1.11 3.406-1.877.589-.49 1.172-.996 1.391-1.641.076-.497-.296-1.074-.767-1.279a.297.297 0 1 1 .237-.545c.377.164.7.458.904.817a1.986 1.986 0 0 0-.074-.448.297.297 0 0 1-.013-.104c.01-.184.041-.313.082-.422.04-.109.085-.206.158-.459a.297.297 0 0 1 .104-.153 1.546 1.546 0 0 0-.527-.125c-.043-.003-.083-.003-.125-.004a.258.258 0 1 1-.102-.002zm-1.194 5.432c-.605.466-1.253.873-1.888 1.28.005.438-.006.879-.047 1.321.207-.135.434-.236.697-.3.391-.636.82-1.22 1.082-1.842.055-.129.106-.29.156-.46zm.249 1c-.273.549-.622 1.04-.929 1.529.06.04.112.08.155.121l.027.027c.169-.194.375-.351.614-.454-.01-.348.047-.768.133-1.222zm-2.88.047a25.922 25.922 0 0 0-.589.297c-.78.38-1.56.772-2.349 1.148-.556.67-1.156 1.293-1.734 1.92l1.043.175 2.563-2.786a.297.297 0 0 1 .04-.036c.333-.253.677-.489 1.025-.718zm2.591 2.009c-.058.066-.112.14-.162.222a.298.298 0 0 1-.429.087c-.125-.09-.2-.177-.265-.244l-.078 1.413c.1-.006.202-.013.297-.013.166 0 .313.022.397.108.1-.078.28-.1.505-.1.057 0 .117.002.18.005l-.445-1.478zm5.419.999c-.452.062-.686.323-.704.783h1.394c0-.46-.23-.721-.69-.783zm-7.861-2.39a16.38 16.38 0 0 0-.798.56l-2.403 2.613h2.457c.17-.19.518-.365.776-.365.073 0 .139.014.191.046.082-.007.168-.01.257-.01.139 0 .285.007.433.016l.083-1.506c-.225.115-.407.282-.626.542a.297.297 0 0 1-.52-.246 9.773 9.773 0 0 0 .15-1.65zm6.24 3.745l.266.465h1.248l.253-.465zm-4.516 0v2.51l1.727-2.51zM155.621 0a3.878 3.878 0 0 1 .273.01c.694.044 1.215.325 1.407.768a.298.298 0 0 1-.34.408l-.025-.006-.03.007-.108.029c-.054.168-.096.269-.12.332a.541.541 0 0 0-.042.2c.155.552.094 1.107.037 1.389-.096.466-.384.977-.762 1.46a.295.295 0 0 1-.014.108 21.85 21.85 0 0 0-.548 2.027c-.152.708-.233 1.387-.192 1.684a.297.297 0 0 1-.223.33l-.018.005.527 1.75c.085-.013.172-.018.259-.018.256 0 .51.041.712.041a.865.865 0 0 0 .184-.016.314.314 0 0 1 .068-.007c.212 0 .656.13.787.366h1.099c.062-.797.482-1.235 1.262-1.315.788.08 1.195.518 1.222 1.315v.572h-.532l-.544 1.01h-1.767l-.531-1.01h-1.567l-2.404 3.493V18h-.572v-6.561h-4.516v-.41l-.1.109a.297.297 0 0 1-.267.092l-1.74-.292a.298.298 0 0 1-.173-.492c.217-.242.436-.48.656-.716l-1.656 1.078a.296.296 0 0 1-.412-.087.297.297 0 0 1 .087-.411l1.345-.876a.292.292 0 0 1-.077-.09.315.315 0 0 1-.019-.237c.016-.05.034-.074.047-.093.056-.076.085-.088.124-.119.04-.03.083-.06.131-.094.095-.065.206-.137.3-.2a4.156 4.156 0 0 0 .217-.156l2.378-1.672.009-.005c.805-1.13 1.567-2.316 2.456-3.414.433-.535.938-1.524 1.813-1.894.048-.262.156-.68.483-.997.353-.344.864-.463 1.416-.463z"/><path d="M135.18.375v17.25m7.687-17.25c-9.625 0-9.625 17.25 0 17.25m0 0" fill="none" stroke="#000"/><path d="M127.21.597a2.12 2.12 0 0 0-.692.109c.031.223.169.569.953.773-.73-.053-1.206-.113-1.452-.307-.09.2-.137.427-.159.556a.297.297 0 0 1-.206.237c-.624.191-1.173 1.112-1.7 1.763-.95 1.173-1.771 2.48-2.688 3.733l1.27-.622c1.182-.622 2.395-1.11 3.407-1.877.589-.49 1.172-.996 1.39-1.641.076-.497-.296-1.074-.767-1.279a.297.297 0 1 1 .238-.545c.377.164.7.458.904.817a1.986 1.986 0 0 0-.075-.448.297.297 0 0 1-.012-.104c.01-.184.041-.313.082-.422.04-.109.085-.206.157-.459a.297.297 0 0 1 .105-.153 1.546 1.546 0 0 0-.527-.125c-.043-.003-.084-.003-.125-.004a.258.258 0 1 1-.103-.002zm-1.193 5.432c-.606.466-1.253.873-1.888 1.28a13 13 0 0 1-.047 1.321c.206-.135.434-.236.697-.3.39-.636.82-1.22 1.082-1.842.054-.129.105-.29.156-.46zm.248 1c-.273.549-.621 1.04-.928 1.529.059.04.112.08.155.121l.027.027a1.72 1.72 0 0 1 .613-.454c-.01-.348.047-.768.133-1.222zm-2.88.047a25.922 25.922 0 0 0-.588.297c-.78.38-1.56.772-2.349 1.148-.556.67-1.157 1.293-1.735 1.92l1.044.175 2.562-2.786a.297.297 0 0 1 .04-.036 18.5 18.5 0 0 1 1.026-.718zm2.592 2.009c-.058.066-.112.14-.162.222a.298.298 0 0 1-.43.087c-.124-.09-.2-.177-.265-.244l-.077 1.413c.1-.006.201-.013.296-.013.167 0 .313.022.398.108.1-.078.28-.1.504-.1.058 0 .118.002.18.005l-.444-1.478zm5.418.999c-.451.062-.686.323-.704.783h1.395c0-.46-.23-.721-.69-.783zm-7.86-2.39a16.38 16.38 0 0 0-.798.56l-2.403 2.613h2.456c.171-.19.519-.365.776-.365.074 0 .14.014.192.046.082-.007.168-.01.256-.01.14 0 .286.007.434.016l.082-1.506c-.224.115-.407.282-.625.542a.297.297 0 0 1-.52-.246c.1-.544.142-1.093.15-1.65zm6.24 3.745l.266.465h1.248l.252-.465zm-4.516 0v2.51l1.727-2.51zM127.203 0a3.878 3.878 0 0 1 .272.01c.695.044 1.215.325 1.408.768a.298.298 0 0 1-.34.408l-.025-.006-.03.007-.108.029c-.055.168-.096.269-.12.332a.541.541 0 0 0-.042.2c.154.552.094 1.107.036 1.389-.095.466-.384.977-.761 1.46a.295.295 0 0 1-.014.108 21.24 21.24 0 0 0-.548 2.027c-.152.708-.233 1.387-.192 1.684a.297.297 0 0 1-.223.33l-.019.005.527 1.75c.086-.013.173-.018.26-.018.256 0 .509.041.712.041a.865.865 0 0 0 .183-.016.314.314 0 0 1 .068-.007c.212 0 .657.13.787.366h1.1c.062-.797.482-1.235 1.261-1.315.788.08 1.196.518 1.222 1.315v.572h-.53l-.546 1.01h-1.766l-.531-1.01h-1.568l-2.404 3.493V18h-.571v-6.561h-4.516v-.41l-.1.109a.297.297 0 0 1-.268.092l-1.74-.292a.298.298 0 0 1-.173-.492c.217-.242.437-.48.657-.716l-1.657 1.078a.296.296 0 0 1-.411-.087.297.297 0 0 1 .087-.411l1.344-.876a.292.292 0 0 1-.076-.09.315.315 0 0 1-.02-.237.305.305 0 0 1 .048-.093c.055-.076.084-.088.124-.119.039-.03.083-.06.13-.094.096-.065.207-.137.301-.2a4.156 4.156 0 0 0 .217-.156l2.378-1.672.008-.005c.806-1.13 1.568-2.316 2.457-3.414.433-.535.938-1.524 1.812-1.894.048-.262.157-.68.484-.997.353-.344.863-.463 1.416-.463zm-15.852 2.231c.197.095.436.356.073.4-.174-.007-.574-.189-.501-.356a.16.16 0 0 0 .114.048c.103 0 .209-.092.314-.092zm1.432.066c.24.058.363.32.058.378h-.016c-.175 0-.654-.213-.26-.262.065-.044.13-.116.218-.116zM110.872.472c-.43.502-.807 1.083-.88 1.752-.072.48-.094.96-.167 1.432.342-.03.24-.56.175-.814-.059-.502.21-.967.4-1.41.13-.24.254-.618.588-.625.37.065.61.378.85.647.247-.248.509-.516.85-.618a.171.171 0 0 1 .06-.01c.076 0 .166.034.207.034.036 0 .035-.025-.041-.119-.046-.163-.142-.21-.26-.21-.174 0-.395.102-.581.102a.408.408 0 0 1-.082-.008 2.713 2.713 0 0 1-1.12-.153zm.116.553c-.283.072-.349.465-.487.697-.174.407-.385.85-.247 1.309.109.218-.03.494-.015.654.243.17.456.53.777.53a.459.459 0 0 0 .11-.014c.32-.066.48-.37.727-.516.179.172.285.53.58.53a.45.45 0 0 0 .132-.022c.269-.058.625-.029.705-.356.138-.334.153-.705.174-1.068a.235.235 0 0 1-.044.005c-.147 0-.16-.171-.174-.317-.056-.213-.208-.312-.378-.312a.553.553 0 0 0-.341.13c-.124.138-.502.247-.422.465.037.13.08.269.124.407l-.305.407c-.03-.21-.342-.385-.16-.596.029-.095.138-.218.123-.29a2.28 2.28 0 0 0-.508-.611.234.234 0 0 0-.167-.075c-.195 0-.39.256-.56.278-.167-.181.014-.254.182-.349a.51.51 0 0 1 .353-.142c.182 0 .363.095.475.259.138.083.234.359.355.359.039 0 .08-.028.125-.098.222-.177.488-.377.779-.377.042 0 .085.005.13.014.205.042.39.459.405.459l.001-.001c.007-.342-.152-.647-.247-.981a.444.444 0 0 0-.433-.347.433.433 0 0 0-.345.172c-.216.08-.374.46-.578.46a.194.194 0 0 1-.112-.038c-.225-.24-.407-.523-.734-.625zm1.032 5.044c-.923.952-1.773 3.365-1.991 4.353.356-.29.843-.48.952-.661.116-.19.436-2.028 1.039-3.692zm-3.285-1.73c-1.744 1.003-4.782 5.938-5.43 6.73 1.091-.69 2.167-1.388 3.337-1.955 1.642-.807 3.045-2.115 4.382-3.336-1.104-.37-1.897-.996-2.289-1.44zm1.81 6.265c-.233.138-.444.327-.698.428.153.378.247.8.56 1.098.058.094.142.124.238.124.165 0 .366-.09.534-.09l.034.002c-.203-.509-.508-.734-.668-1.562zM110.05 3.8c-.044.091-.1.121-.16.121-.078 0-.162-.052-.232-.085-.174.124-.778.11-.422.371.226.305 1.43 1.138 2.266 1.284.361.064-.245.635-.441.838-1.134 1.018-2.246 2.093-3.605 2.827-.85.48-1.744.909-2.566 1.44-.392.566-.857 1.09-1.155 1.715.298.087.588.21.894.283.16.04.335.06.51.06.48 0 .963-.143 1.176-.372.392-.415.821-2.18 1.046-2.828.032-.072.078-.097.127-.097.098 0 .212.096.268.096.012 0 .02-.004.027-.013a.284.284 0 0 1 .28-.274c.128 0 .247.093.229.288.043.458.13.916.348 1.33.027.071.083.098.156.098.207 0 .553-.213.79-.272-.095-.56.668-3.423 2.906-5.822.079-.084.42-.444.39-.444-.004 0-.012.005-.026.016-.115.03-.244.05-.372.05-.245 0-.485-.075-.61-.305-.018-.056-.042-.079-.07-.079-.1 0-.25.29-.409.29a.668.668 0 0 1-.373.112.764.764 0 0 1-.565-.257c-.138-.124-.268-.247-.407-.371zm.756-3.8a2.7 2.7 0 0 0 .988.203c.052 0 .103-.002.153-.007a.584.584 0 0 0 .104.009c.245 0 .508-.131.745-.131.09 0 .176.019.256.071.4.582.763 1.229.807 1.948.08 1.381.043 1.86-1.047 2.994-.429.974-1.228 4.15-1.468 5.015-.262.247.327 1.6.574 1.933.135.186.489.195.87.195h.124c.343 0 .69.007.903.14.204.13.276.617.16.683-.109-.167-.327-.393-.48-.414.146.152-.363.08-.472.116-.294.005-.591.03-.89.03-.144 0-.288-.006-.433-.023-.065-.028-.135-.073-.166-.073-.024 0-.024.027.02.11-.205.053-.436.08-.662.08-.508 0-.99-.136-1.096-.408a7.825 7.825 0 0 1-.567-1.257c-.185.04-.419.17-.606.17a.275.275 0 0 1-.15-.039c-.203-.138-.414-.785-.53-1.214-.011-.044-.072-.066-.133-.066-.059 0-.118.02-.136.059-.218.436-.582 1.773-.93 2.333-.264.415-.902.619-1.58.619a3.26 3.26 0 0 1-1.248-.241c-.472-.204-.82-.16-.72-.422.16-.436.437-.85.728-1.22-.422.261-.843.53-1.265.792-.035.126-.122.176-.211.176-.172 0-.351-.186-.174-.373 1.65-2.384 4.273-6.446 6.09-7.762.291-.254.633-.45 1.01-.545.124-.32.088-.748.16-1.112.073-.72.51-1.911 1.272-2.369zm-2.69 15.2q-2.231 0-4.732 1.078 2.5 1.048 4.732 1.048 2.216 0 4.73-1.048-2.514-1.078-4.73-1.078zm0-.689q2.755 0 6.333 1.752Q110.87 18 108.116 18q-2.755 0-6.334-1.737 3.564-1.752 6.334-1.752zM88.551.376c-.07 0-.145.03-.273.09-.271.123-.192.314-.074.432.065.066.128.111.23.111.08 0 .185-.028.335-.098l.901 1.448c.066-.327.125-.39.517-.428L88.937.548c-.204-.116-.29-.172-.386-.172zm3.258 2.056c-.187 0-.368.039-.54.106l.251.267.493-.357a1.375 1.375 0 0 0-.204-.016zm-.95.371c-.236.13-.352.48-.326.95l.6-.644-.275-.306zm2.251.656c.14 0 .241.065.303.196a.355.355 0 0 1-.346.216c-.147 0-.332-.059-.555-.177.246-.157.445-.235.598-.235zm-.578-.901a5.865 5.865 0 0 0-1.882 1.548c.105.261.265.464.48.607a.379.379 0 0 0 .202.077c.104 0 .178-.085.22-.253-.26-.324-.445-.304-.409-.69.026-.274.187-.394.487-.408.118 0 .235.046.353.138-.065-.473.242-.562.92-.667a.754.754 0 0 0-.371-.352zm5.84-.392v3.762l.352-.411c.366-.431.549-.98.549-1.646 0-.667-.3-1.235-.902-1.705zm-5.096 1.078c-.17.026-.73.055-.92.195-.041.274-.094.507-.28.507a.303.303 0 0 1-.093-.017c-.112-.036-.242-.058-.372-.176-.053 0-.105.033-.157.098 0 .144.17.36.51.647v.02c-.04.47-.242.953-.608 1.45.209.123.416.185.62.185.14 0 .28-.029.418-.088-.143-.26-.15-.512-.02-.754.069-.126.183-.189.343-.189.148 0 .334.053.56.16a.514.514 0 0 0 .147.026c.085 0 .14-.035.166-.105-.04-.17-.013-.294.078-.372-.3-.04-.45-.079-.45-.118 0-.091.156-.143.47-.156-.144-.183-.066-.308.235-.373-.078-.274-.294-.588-.647-.94zm-3.212 3.222a3.36 3.36 0 0 0-.59.305c.419.431.674 1.237.935 2.321.27-.28.517-.512.731-.695l-1.076-1.931zm-.55 1.285l-.98 1.9 1.47-.313c-.157-.901-.32-1.43-.49-1.587zm9.289-.569a1.706 1.706 0 0 1-.432.373v2.9c.601-.47.902-1.012.902-1.626 0-.614-.157-1.163-.47-1.647zm-7.976-.94a4.846 4.846 0 0 0-.191.042l.984 1.755c.13-.078.234-.118.307-.118a.15.15 0 0 1 .046.006c.203.065.35.177.441.333.091.157.144.347.157.569.016.155-.078.288-.284.4l.303.54-.5.332-.375-.673c-.506.131-.921.271-1.145.358.105.653.131 1.103.249 1.495l1.927.578c-.027-.911.182-4.128 1.414-4.842-.458-.38-.838-.56-1.334-.638a1.612 1.612 0 0 1-.81.215c-.367 0-.764-.117-1.19-.352zm6.506 5.703a48.646 48.646 0 0 0-3.684.685c.901.55 1.816 1.261 2.743 2.137.04-1.53.353-2.47.94-2.822zm-6.506-.02c-.405.68-.124 1.496.842 2.45a22.37 22.37 0 0 0 2.391 1.009c.889.32 1.522.774 1.901 1.362l.804-.882c-1.294-1.437-2.548-2.502-3.763-3.194a8.758 8.758 0 0 0-2.175-.745zM88.553 0c.206 0 .418.104.667.324l1.822 1.94a3.99 3.99 0 0 1 .963-.14c.42 0 .733.109.938.326.34.36.614.663.823.911.444.614.614.937.51.97a1.681 1.681 0 0 0-.235.088c-.105.026-.15.105-.138.235.053.157.013.327-.117.51l.255.803c-.04.144-.131.216-.275.216-.078 0-.268-.209-.568-.627-.052-.118-.21-.176-.47-.176-.131.078-.138.267-.02.568.627.052 1.222.313 1.783.784l1.392 2.018v.04c.065 0 .731-.595 1.999-1.784V1.127c1.267.692 1.9 1.587 1.9 2.685 0 .897-.182 1.568-.547 2.013.229.162.248.49.058.985l-.02.079c.34.444.51 1.084.51 1.92 0 1.097-.634 1.973-1.901 2.626v-3.43l-1.353 1.647c-.158.187-.326.28-.502.28-.23 0-.474-.158-.732-.476-.536-.64-.915-1.202-1.137-1.686-.578.052-1.146 3.158-.98 4.449 1.215-.196 2.43-.412 3.645-.647.273-.053.51-.08.712-.08.34 0 .58.076.719.227.222.242.261.604.117 1.088l-1.097 3.057c.287.327.36.692.216 1.097l1.509.647V18h-2.881l-5.213-2.822.137 2.352.765.098V18h-1.49l-.059-.627-.392-2.39c-.039-.537.027-.87.196-1a.344.344 0 0 1 .216-.073c.121 0 .263.055.425.164-.61-.458-.733-1.338-.366-2.638-.004-.266-.082-.75-.235-1.451l-1.843.647c-.056.006-.109.01-.158.01-.454 0-.61-.272-.469-.814.693-1.947 1.19-3.05 1.49-3.312a17.8 17.8 0 0 1 .77-.357l-1.515-2.72.51-.274 1.555 2.774a6.37 6.37 0 0 1 .522-.167c.326-.249.294-.503-.098-.765-.392-.261-.634-.597-.725-1.009-.092-.412-.069-.748.068-1.01.138-.26.252-.424.343-.49l-.196-.215c-.209 0-.418.288-.627.863l-1.097-1.843a.671.671 0 0 1-.268.062c-.185 0-.347-.1-.487-.297-.202-.287-.23-.582.186-.882.17-.122.329-.186.49-.186zM65.646 0l-2.064 2.064v.707L66.177.177 66.354 0zm3 0l-5.064 5.064v.707L69.177.177 69.354 0zm3 0l-8.064 8.064v.707L72.177.177 72.354 0zm3 0L63.582 11.064v.707L75.177.177 75.354 0zm3 0L63.582 14.064v.707L78.177.177 78.354 0zm3 0L63.582 17.064v.707L81.177.177 81.354 0zm3 0L65.823 17.823l-.177.177h.708L84.177.177 84.354 0zm1.936 1.064l-16.759 16.76-.177.176h.708L85.582 1.771v-.707zm0 3l-13.759 13.76-.177.176h.708L85.582 4.771v-.707zm0 3l-10.759 10.76-.177.176h.708L85.582 7.771v-.707zm0 3l-7.759 7.76-.177.176h.708l7.228-7.229v-.707zm0 3l-4.759 4.76-.177.176h.708l4.228-4.229v-.707zm0 3l-1.759 1.76-.177.176h.708l1.228-1.229v-.707z"/><path d="M86.646 0l-1.064 1.064v.707L87.177.177 87.354 0zm.936 2.064l-2 2v.707l2-2v-.707zm0 3l-2 2v.707l2-2v-.707zm0 3l-2 2v.707l2-2v-.707zm0 3l-2 2v.707l2-2v-.707zm0 3l-2 2v.707l2-2v-.707zm0 3l-.759.76-.177.176h.708l.228-.229v-.707zM41.646 0l-2.064 2.064v.707L42.177.177 42.354 0zm3 0l-5.064 5.064v.707L45.177.177 45.354 0zm3 0l-8.064 8.064v.707L48.177.177 48.354 0zm3 0L39.582 11.064v.707L51.177.177 51.354 0zm3 0L39.582 14.064v.707L54.177.177 54.354 0zm3 0L39.582 17.064v.707L57.177.177 57.354 0zm3 0L41.823 17.823l-.177.177h.708L60.177.177 60.354 0zm1.936 1.064l-16.759 16.76-.177.176h.708L61.582 1.771v-.707zm0 3l-13.759 13.76-.177.176h.708L61.582 4.771v-.707zm0 3l-10.759 10.76-.177.176h.708L61.582 7.771v-.707zm0 3l-7.759 7.76-.177.176h.708l7.228-7.229v-.707zm0 3l-4.759 4.76-.177.176h.708l4.228-4.229v-.707zm0 3l-1.759 1.76-.177.176h.708l1.228-1.229v-.707zM62.646 0l-1.064 1.064v.707L63.177.177 63.354 0zm.936 2.064l-2 2v.707l2-2v-.707zm0 3l-2 2v.707l2-2v-.707zm0 3l-2 2v.707l2-2v-.707zm0 3l-2 2v.707l2-2v-.707zm0 3l-2 2v.707l2-2v-.707zm0 3l-.759.76-.177.176h.708l.228-.229v-.707zM17.646 0l-2.064 2.064v.707L18.177.177 18.354 0zm3 0l-5.064 5.064v.707L21.177.177 21.354 0zm3 0l-8.064 8.064v.707L24.177.177 24.354 0zm3 0L15.582 11.064v.707L27.177.177 27.354 0zm3 0L15.582 14.064v.707L30.177.177 30.354 0zm3 0L15.582 17.064v.707L33.177.177 33.354 0zm3 0L17.823 17.823l-.177.177h.708L36.177.177 36.354 0zm1.936 1.064l-16.759 16.76-.177.176h.708L37.582 1.771v-.707zm0 3l-13.759 13.76-.177.176h.708L37.582 4.771v-.707zm0 3l-10.759 10.76-.177.176h.708L37.582 7.771v-.707zm0 3l-7.759 7.76-.177.176h.708l7.228-7.229v-.707zm0 3l-4.759 4.76-.177.176h.708l4.228-4.229v-.707zm0 3l-1.759 1.76-.177.176h.708l1.228-1.229v-.707zM38.646 0l-1.064 1.064v.707L39.177.177 39.354 0zm.936 2.064l-2 2v.707l2-2v-.707zm0 3l-2 2v.707l2-2v-.707zm0 3l-2 2v.707l2-2v-.707zm0 3l-2 2v.707l2-2v-.707zm0 3l-2 2v.707l2-2v-.707zm0 3l-.759.76-.177.176h.708l.228-.229v-.707zm-26-6.274V18h-.72v-7.21zm-4.287 0V18h-.72v-7.21zm-4.287 0V18h-.721v-7.21zm-4.287 0V18H0v-7.21z"/></svg>