<svg xmlns="http://www.w3.org/2000/svg" width="188.825" height="18"><path d="M187.178 0c.335 0 .67.026.995.066.447.113.217.626-.18.626a.476.476 0 0 1-.082-.008c-.84.097-1.872.15-2.506.626-.84.916-.463 2.821-.561 3.725-.007.05-.01 3.653-.01 5.48a6.145 6.145 0 0 1 2.635-.586c.402 0 .801.04 1.187.117.441.231-.076.528-.422.528a.454.454 0 0 1-.115-.013c-1.226.133-2.62.461-3.243 1.602-.061.206-.023.277.071.277.206 0 .68-.342.946-.342.014 0 .028 0 .04.003a7.535 7.535 0 0 1 1.581-.169c.39 0 .776.031 1.148.095.42.278-.095.534-.438.534a.532.532 0 0 1-.105-.01c-1.251.151-2.636.49-3.243 1.633-.007 1.27 0 2.11-.033 3.278.014.36-.22.538-.456.538-.235 0-.473-.176-.475-.526.009-1.15.091-2.161-.06-3.277-.304-1.253-2.477-1.445-3.827-1.754-.294-.347.285-.475.659-.475.056 0 .107.003.15.008.173-.013.347-.02.521-.02.882 0 1.771.175 2.557.58.032-.755-.711-1.19-1.244-1.493-.84-.361-1.765-.397-2.643-.59-.313-.273.18-.501.521-.501a.58.58 0 0 1 .125.012c.216-.02.432-.031.648-.031.903 0 1.805.183 2.614.582-.016-2.851-.062-5.61.02-8.308.065-.834.546-1.6 1.354-1.849.58-.264 1.227-.358 1.871-.358zm-23.995 2.99q-.557 0-1.086.606 4.368 5.2 5.46 5.81.815.457 1.434.457.21 0 .399-.053.74-.208 1.586-.234h.042q.828 0 1.817.988h.13q-.702-1.638-1.963-2.34-1.261-.702-7.397-5.148-.213-.085-.422-.085zm7.731-2.369q-.065 0-.133.01v6.683q2.054 1.196 2.834 3.354-1.196-8.268-1.677-9.204-.433-.843-1.024-.843zm5.356 10.468q.08 0 .153.138.13.247-.234.689-.208-.546-.052-.741.069-.086.133-.086zm-.037-.372q-.153 0-.33.237-.39.52.234 2.08.702-1.352.43-1.976-.15-.34-.334-.34zm-6.804 2.577v.39q.286-.026.442-.182-.052-.078-.208-.208zm-.598.884l-2.418.338-.494.884q.832-.234 1.833-.624 1-.39 1.079-.598zm5.33-.364l-.468.234-.156 1.118.416 1.274h.65l-.442-1.274v-1.352zm-1.118.39l-.442.13-.156.832.416 1.274h.65l-.442-1.274-.026-.962zm-1.534.156l-.156.806.416 1.274h.65l-.442-1.274v-.78l-.468-.026zm.994-3.234q-.415 0-.89.1-1.404.3-1.768 1.418h-1.092l-.416-.676q-5.512 1.274-6.214 4.602 1.508-.832 3.172-1.118l.728-1.456 2.886-.39-.078-.702h.988q1.092.9 2.228.9.244 0 .489-.042 1.391-.234 1.82-.95.429-.714-.455-1.3-.585-.386-1.398-.386zM170.658 0q.947 0 1.488.658.663.806 1.235 4.238l.91 5.954q.442.468.676.52h.312q.026-.65.494-1.196.416-3.978-.364-6.968l.312-.598q1.118 3.38.546 7.592h.078q1.794-4.03.52-7.592l.312-.468q1.664 3.796-.364 8.242.572 1.248.117 2.054-.455.806-.559 1.508l-.182.13q-.702-1.04-.806-1.794h-.26q-.026.598-.338 1.248l-.182 1.638.442 1.274h2.262v.624h-6.526v-.624h.546l-.416-1.274-.026-.962q-.468-.156-.702-.364-.338.312-.754.312.026.26-.104.442-1.04.806-3.718 1.404l-.91 1.768q0-.434-.27-.434-.085 0-.198.044l.728-1.3q-1.508.338-2.288.858-.416.442.052 1.066-1.04-.442-1.17-1.248.416-3.926 7.046-5.46l.468.78h.416q.338-1.092 2.678-1.508-.522-.388-1.285-.388-.414 0-.9.115-.491.116-.96.116-.844 0-1.613-.376-1.196-.585-6.084-6.461.9-1.136 1.905-1.136.329 0 .669.122l6.318 4.524V.034q.235-.034.449-.034z"/><path d="M151.817.375c9.625 0 9.625 17.25 0 17.25" fill="none" stroke="#000"/><path d="M145.595 7.938c.681.054 1.058.394 1.13 1.022-.09.68-.467 1.04-1.13 1.075-.663-.036-1.013-.394-1.049-1.075.054-.628.404-.968 1.05-1.022zm-.08-2.259c-.485 0-.933.09-1.345.27a3.545 3.545 0 0 0-1.828 1.815 3.11 3.11 0 0 0-.27 1.276c0 .466.09.901.27 1.304.179.404.425.758.739 1.063a3.422 3.422 0 0 0 2.433.968c.484 0 .937-.086 1.358-.256a3.24 3.24 0 0 0 1.09-.712c.304-.305.546-.66.725-1.063.18-.403.27-.838.27-1.304 0-.448-.09-.874-.27-1.277a3.67 3.67 0 0 0-.726-1.075 3.302 3.302 0 0 0-1.089-.74 3.431 3.431 0 0 0-1.358-.269zm.053-.914c.592 0 1.147.112 1.667.336.52.224.968.529 1.345.914.376.386.676.834.9 1.345.225.51.337 1.062.337 1.653 0 .592-.112 1.143-.336 1.654a4.31 4.31 0 0 1-.901 1.331 4.267 4.267 0 0 1-3.012 1.237 4.071 4.071 0 0 1-1.653-.336 4.48 4.48 0 0 1-1.345-.9 4.195 4.195 0 0 1-.914-1.332 4.071 4.071 0 0 1-.336-1.654c0-.591.112-1.142.336-1.653a4.358 4.358 0 0 1 2.259-2.259 4.071 4.071 0 0 1 1.653-.336zM136.997 0q2.323 0 2.323 2.232V18h-1.071V2.232q0-1.16-1.252-1.16-1.261 0-1.261 1.16v10.492h-1.071V2.232q0-2.232 2.332-2.232zM114.82 2.373v2.341h17.243V2.373zM132 0v1.772h.665v3.543H114.22V1.772h.537V0h.602v1.772h1.487V0h.6v1.772h1.488V0h.6v1.772h1.456V0h.633v1.772h1.455V0h.601v1.772h1.487V0h.601v1.772h1.487V0h.602v1.772h1.455V0h.601v1.772h1.487V0zm-1.598 15.325L132.665 18h-1.104l-1.159-1.382-1.17 1.382-1.137-1.382-1.17 1.382-1.16-1.382-1.17 1.382-1.159-1.382-1.17 1.382-1.137-1.382L119.96 18l-1.17-1.382L117.652 18l-1.17-1.382-1.16 1.382h-1.102l2.262-2.675 1.17 1.293 1.137-1.293 1.17 1.293 1.17-1.293 1.137 1.293 1.17-1.293 1.16 1.293 1.17-1.293 1.159 1.293 1.17-1.293 1.137 1.293 1.17-1.293zM102.96.924c-.297 0-.476.05-.568.103-.27.172-.141.583-.098.84h1.33c.032-.263.177-.664-.098-.84-.092-.053-.27-.103-.567-.103zm7.388 1.552V3.4h1.263v-.924zm-6.555 0V3.4h6.252v-.924zm-1.52 0V3.4h1.216v-.924zm-6.105 0V3.4h5.8v-.924zm-1.632 0V3.4h1.329v-.924zM105.63 0l.43.431-1.44 1.436h7.6v2.142H93.928V1.867h7.37L99.857.43l.43-.431 1.331 1.327c.08-.804.631-.989 1.34-1.012.757.02 1.222.192 1.34 1.012L105.629 0zm4.346 15.347L112.22 18h-1.095l-1.15-1.37-1.16 1.37-1.127-1.37-1.16 1.37-1.15-1.37-1.16 1.37-1.15-1.37-1.16 1.37-1.128-1.37L99.62 18l-1.16-1.37L97.331 18l-1.16-1.37-1.15 1.37h-1.094l2.243-2.653 1.16 1.282 1.128-1.282 1.16 1.282 1.161-1.282 1.128 1.282 1.16-1.282 1.15 1.282 1.16-1.282 1.15 1.282 1.16-1.282 1.127 1.282 1.16-1.282z"/><path d="M84.24.375v17.25M91.928.375c-9.625 0-9.625 17.25 0 17.25m0 0" fill="none" stroke="#000"/><path d="M76.27.597a2.12 2.12 0 0 0-.691.109c.03.223.168.569.952.773-.73-.053-1.206-.113-1.452-.307-.089.2-.137.427-.158.556a.297.297 0 0 1-.206.237c-.625.191-1.174 1.112-1.701 1.763-.95 1.173-1.77 2.48-2.687 3.733.422-.207.845-.415 1.27-.622 1.181-.622 2.394-1.11 3.406-1.877.589-.49 1.172-.996 1.391-1.641.076-.497-.297-1.074-.767-1.279a.297.297 0 1 1 .237-.545c.377.164.7.458.904.817a1.986 1.986 0 0 0-.074-.448.297.297 0 0 1-.013-.104c.01-.184.041-.313.082-.422.04-.109.085-.206.158-.459a.297.297 0 0 1 .104-.153 1.546 1.546 0 0 0-.527-.125C76.455.6 76.414.6 76.373.599a.258.258 0 1 1-.102-.002zm-1.193 5.432c-.605.466-1.253.873-1.888 1.28.005.438-.006.879-.047 1.321.207-.135.434-.236.697-.3.391-.636.82-1.22 1.082-1.842.055-.129.106-.29.156-.46zm.249 1c-.273.549-.622 1.04-.929 1.529.06.04.112.08.155.121l.027.027c.169-.194.375-.351.614-.454-.01-.348.047-.768.133-1.222zm-2.88.047a25.922 25.922 0 0 0-.589.297c-.78.38-1.56.772-2.349 1.148-.556.67-1.156 1.293-1.734 1.92l1.043.175L71.38 7.83a.297.297 0 0 1 .04-.036c.332-.253.677-.489 1.025-.718zm2.591 2.009c-.058.066-.112.14-.162.222a.298.298 0 0 1-.429.087c-.125-.09-.2-.177-.265-.244l-.078 1.413c.1-.006.202-.013.297-.013.166 0 .313.022.397.108.1-.078.28-.1.504-.1.058 0 .118.002.181.005l-.445-1.478zm5.419.999c-.452.062-.686.323-.704.783h1.394c0-.46-.23-.721-.69-.783zm-7.861-2.39a16.38 16.38 0 0 0-.798.56l-2.403 2.613h2.457c.17-.19.518-.365.776-.365.073 0 .139.014.191.046.082-.007.168-.01.257-.01.139 0 .285.007.433.016l.083-1.506c-.225.115-.407.282-.626.542a.297.297 0 0 1-.52-.246 9.773 9.773 0 0 0 .15-1.65zm6.24 3.745l.266.465h1.248l.253-.465zm-4.516 0v2.51l1.727-2.51zM76.263 0a3.878 3.878 0 0 1 .273.01c.694.044 1.215.325 1.407.768a.298.298 0 0 1-.34.408l-.025-.006-.03.007-.108.029c-.054.168-.096.269-.12.332a.541.541 0 0 0-.042.2c.155.552.094 1.107.037 1.389-.096.466-.384.977-.762 1.46a.295.295 0 0 1-.014.108 21.85 21.85 0 0 0-.548 2.027c-.152.708-.233 1.387-.192 1.684a.297.297 0 0 1-.223.33l-.018.005.527 1.75c.085-.013.172-.018.259-.018.256 0 .51.041.712.041a.865.865 0 0 0 .184-.016.314.314 0 0 1 .068-.007c.212 0 .656.13.787.366h1.099c.062-.797.482-1.235 1.262-1.315.788.08 1.195.518 1.222 1.315v.572h-.532l-.544 1.01h-1.767l-.531-1.01h-1.567l-2.404 3.493V18h-.572v-6.561h-4.516v-.41l-.1.109a.297.297 0 0 1-.267.092l-1.74-.292a.298.298 0 0 1-.173-.492c.217-.242.436-.48.656-.716l-1.656 1.078a.296.296 0 0 1-.412-.087.297.297 0 0 1 .087-.411l1.345-.876a.292.292 0 0 1-.077-.09.315.315 0 0 1-.019-.237.287.287 0 0 1 .047-.093c.056-.076.085-.088.124-.119.04-.03.083-.06.131-.094.095-.065.206-.137.3-.2a4.156 4.156 0 0 0 .217-.156l2.378-1.672.009-.005c.805-1.13 1.567-2.316 2.456-3.414.433-.535.938-1.524 1.813-1.894.048-.262.156-.68.483-.997C75.2.119 75.711 0 76.263 0zM57.991.84l-3.563 4.65.594.955 2.97-3.867 2.954 3.867.594-.956L57.99.84zm0 2.506l-4.924 6.416.55.869 4.374-5.707 4.36 5.707.55-.87-4.91-6.415zm0-3.346l4.157 5.446-.884 1.42 2.245 2.896-1.115 1.723-4.403-5.779-4.417 5.78-1.116-1.724 2.245-2.897-.883-1.42L57.99 0zm-1.195 13.127l.04 4.434 2.336.04.02-4.454-2.396-.02zm-.4-.38l3.175.02-.02 5.233-3.095-.06-.06-5.192zM47.592 4.99c.112 0 .223.011.334.021 1.61.172 2.754 1.802 2.501 3.382-.111 1.174-.84 1.832-1.64 2.48-2.38 1.458-1.711.921-4.11 2.136l-.385-.719c2.855-1.336 3.2-1.549 4.09-2.136.729-.587 1.306-1.235 1.255-2.217.02-.678-.384-1.377-.84-1.711a2.186 2.186 0 0 0-1.286-.435c-.344 0-.668.08-.951.283-.72.354-1.114 1.529-.588 2.268.243.354.679.597 1.114.597.213 0 .425-.06.608-.192.364-.203.637-.911.263-1.306.172-.182.415-.405.597-.405.122 0 .213.091.273.304.405.972-.243 2.075-1.214 2.338a1.83 1.83 0 0 1-.517.081c-1.113 0-2.146-.931-2.146-2.085-.101-1.347.972-2.582 2.318-2.663.102-.01.213-.02.324-.02zM33.031 7.92c-.296 0-.475.05-.567.103-.27.171-.141.583-.098.84h1.33c.032-.263.178-.664-.097-.84-.093-.053-.271-.103-.568-.103zm7.39 1.551v.924h1.262v-.924zm-6.556 0v.924h6.252v-.924zm-1.52 0v.924h1.216v-.924zm-6.104 0v.924h5.8v-.924zm-1.632 0v.924h1.328v-.924zm11.093-2.475l.43.43-1.44 1.436h7.6v2.142H24V8.862h7.37l-1.44-1.435.43-.431 1.332 1.327c.08-.805.63-.99 1.34-1.012.757.02 1.221.191 1.34 1.012l1.33-1.327zM0 0v.354L.177.177.354 0zm2.646 0L0 2.646v.708L3.177.177 3.354 0zm3 0L0 5.646v.708L6.177.177 6.354 0zm3 0L0 8.646v.708L9.177.177 9.354 0zM0 9.354zM11.646 0L0 11.646v.708L12.177.177 12.354 0zm3 0L0 14.646v.708L15.177.177 15.354 0zm3 0L0 17.646V18h.354L18.177.177 18.354 0zm3 0L2.823 17.823 2.646 18h.708L21.177.177 21.354 0zM22 1.646L5.823 17.823 5.646 18h.708L22 2.354v-.708zm0 3L8.823 17.823 8.646 18h.708L22 5.354v-.708zm0 3L11.823 17.823l-.177.177h.708L22 8.354v-.708zm0 3l-7.177 7.177-.177.177h.708L22 11.354v-.708zm0 3l-4.177 4.177-.177.177h.708L22 14.354v-.708zm0 3l-1.177 1.177-.177.177h.708l.646-.646v-.708z"/></svg>