<svg xmlns="http://www.w3.org/2000/svg" width="303.413" height="18"><path d="M301.766 0c.335 0 .67.026.994.066.447.113.218.626-.18.626a.476.476 0 0 1-.082-.008c-.839.097-1.872.15-2.506.626-.84.916-.463 2.821-.56 3.725-.008.05-.01 3.653-.01 5.48a6.145 6.145 0 0 1 2.634-.586c.402 0 .802.04 1.188.117.44.231-.077.528-.423.528a.454.454 0 0 1-.114-.013c-1.226.133-2.62.461-3.243 1.602-.062.206-.023.277.07.277.207 0 .68-.342.947-.342.014 0 .027 0 .04.003a7.535 7.535 0 0 1 1.58-.169c.39 0 .776.031 1.149.095.42.278-.096.534-.438.534a.532.532 0 0 1-.105-.01c-1.252.151-2.637.49-3.243 1.633-.007 1.27 0 2.11-.034 3.278.015.36-.219.538-.456.538-.235 0-.473-.176-.474-.526.008-1.15.09-2.161-.06-3.277-.305-1.253-2.478-1.445-3.827-1.754-.295-.347.285-.475.658-.475.056 0 .107.003.15.008.173-.013.347-.02.522-.02.882 0 1.77.175 2.557.58.032-.755-.712-1.19-1.244-1.493-.84-.361-1.766-.397-2.643-.59-.314-.273.18-.501.52-.501a.58.58 0 0 1 .126.012c.215-.02.431-.031.648-.031.902 0 1.804.183 2.614.582-.017-2.851-.063-5.61.019-8.308.066-.834.546-1.6 1.354-1.849.581-.264 1.227-.358 1.872-.358z"/><path d="M296.646 0l-2.132 2.132v.708l2.663-2.663.177-.177zm3 0l-5.132 5.132v.708l5.663-5.663.177-.177zm3 0l-8.132 8.132v.708l8.663-8.663.177-.177zm.767 2.234l-8.9 8.898v.708l8.9-8.899v-.707zm0 3l-8.9 8.898v.708l8.9-8.899v-.707zm0 3l-8.9 8.898v.708l8.9-8.899v-.707zm0 3l-6.59 6.59-.177.176h.708l6.059-6.059v-.707zm0 3l-3.59 3.59-.177.176h.708l3.059-3.059v-.707zm0 3l-.59.59-.177.176h.708l.059-.059v-.707zM277.77 2.99q-.556 0-1.086.606 4.368 5.2 5.46 5.81.815.457 1.434.457.211 0 .4-.053.74-.208 1.585-.234h.043q.828 0 1.816.988h.13q-.702-1.638-1.963-2.34-1.26-.702-7.397-5.148-.212-.085-.421-.085zm7.732-2.369q-.066 0-.134.01v6.683q2.054 1.196 2.835 3.354-1.197-8.268-1.678-9.204-.432-.843-1.023-.843zm5.355 10.468q.08 0 .154.138.13.247-.234.689-.208-.546-.052-.741.068-.086.132-.086zm-.036-.372q-.153 0-.33.237-.39.52.234 2.08.702-1.352.429-1.976-.15-.34-.333-.34zm-6.805 2.577v.39q.286-.026.442-.182-.052-.078-.208-.208zm-.598.884l-2.418.338-.494.884q.832-.234 1.833-.624t1.08-.598zm5.33-.364l-.467.234-.156 1.118.416 1.274h.65l-.442-1.274v-1.352zm-1.118.39l-.442.13-.156.832.416 1.274h.65l-.442-1.274-.026-.962zm-1.534.156l-.156.806.416 1.274h.65l-.442-1.274v-.78l-.468-.026zm.995-3.234q-.416 0-.89.1-1.405.3-1.769 1.418h-1.092l-.416-.676q-5.512 1.274-6.214 4.602 1.508-.832 3.172-1.118l.728-1.456 2.886-.39-.078-.702h.988q1.092.9 2.229.9.243 0 .488-.042 1.392-.234 1.82-.95.43-.714-.454-1.3-.586-.386-1.398-.386zM285.245 0q.948 0 1.488.658.663.806 1.236 4.238l.91 5.954q.442.468.676.52h.312q.026-.65.494-1.196.416-3.978-.364-6.968l.312-.598q1.118 3.38.546 7.592h.078q1.794-4.03.52-7.592l.312-.468q1.664 3.796-.364 8.242.572 1.248.117 2.054-.455.806-.56 1.508l-.181.13q-.702-1.04-.806-1.794h-.26q-.026.598-.338 1.248l-.182 1.638.442 1.274h2.262v.624h-6.527v-.624h.546l-.416-1.274-.026-.962q-.468-.156-.702-.364-.338.312-.754.312.026.26-.104.442-1.04.806-3.718 1.404l-.91 1.768q0-.434-.27-.434-.085 0-.198.044l.728-1.3q-1.508.338-2.288.858-.416.442.052 1.066-1.04-.442-1.17-1.248.416-3.926 7.046-5.46l.468.78h.416q.338-1.092 2.678-1.508-.522-.388-1.284-.388-.414 0-.9.115-.492.116-.96.116-.845 0-1.614-.376-1.196-.585-6.084-6.461.901-1.136 1.905-1.136.33 0 .67.122l6.317 4.524V.034q.235-.034.45-.034z"/><path d="M266.404.375c9.625 0 9.625 17.25 0 17.25" fill="none" stroke="#000"/><path d="M255.582.96q-3.108 0-6.59 1.501 3.482 1.46 6.59 1.46 3.087 0 6.59-1.46Q258.67.96 255.583.96zm0-.96q3.837 0 8.822 2.44-4.985 2.42-8.822 2.42-3.838 0-8.823-2.42Q251.723 0 255.582 0zm6.658 15.441L264.404 18h-1.055l-1.11-1.322L261.12 18l-1.087-1.322-1.12 1.322-1.108-1.322-1.12 1.322-1.109-1.322L254.457 18l-1.087-1.322L252.25 18l-1.12-1.322L250.044 18l-1.12-1.322L247.816 18h-1.056l2.165-2.559 1.12 1.237 1.087-1.237 1.12 1.237 1.119-1.237 1.087 1.237 1.12-1.237 1.108 1.237 1.12-1.237 1.109 1.237 1.119-1.237 1.087 1.237 1.12-1.237zM235.731 2.133q.15 0 .222.055.08.081.192.101l.03.112h-.162q-.16.19-.443.19-.183 0-.417-.079l-.223.05-.05-.161.202-.04q.334-.203.557-.223.05-.005.092-.005zM234.333.48q-.497 0-1.154.18-1.033.274-1.012 1.357.02 1.073.648 1.58.351.282.634.282.214 0 .388-.161.172-.182.04-.314-.263-.091-.263-.466-.334-.405-.334-.688-.04-.496.446-.516.222.05.334.182.914-.674 1.601-.674.066 0 .13.006-.314-.557-.942-.709-.232-.059-.516-.059zm1.395 1.116q-.692 0-1.446.603l.091.203q-.141.07-.222.07-.182-.465-.385-.465-.263 0-.243.263.02.294.314.597 0 .278.135.278.017 0 .037-.004.182-.05.142-.223.152.132.01.739-.152.618-.385 1.286t-.607.759q-.294.02-.982.03-.688.01.02 2.015.719 2.004.83 5.355l1.822.425q1.377-4.556 1.67-4.94.284-.375.203-1.6 0-1.154-1.316-1.285h-.074q-.721 0-.634-.385.08-.395.192-.91.111-.057.268-.057.157 0 .36.056.161.01.291.01.423 0 .508-.101.112-.132.071-.354l-.314-.112q-.131-.07-.07-.172l.465-.09q-.172-.335.03-.466l.056.002q.208 0 .208-.144-.04-.152-.294-.506-.243-.355-.537-.456-.126-.042-.253-.042-.177 0-.354.083-.293.141-.567.232l-.06-.131q.242-.091.526-.223.256-.162.49-.162.22 0 .421.142-.06-.203-.132-.294-.141-.026-.285-.026zm3.828 9.552l-3.694 2.601 4.14 1.205q-.142-2.855.374-3.806zm-6.63 2.399q-.405 1.65.526 2.824.84.52 1.887.52.705 0 1.504-.236.824-.245 1.618-.245 1.108 0 2.158.477-.202-.627-2.956-2.095l-4.737-1.245zM234.156 0q.294 0 .592.042 1.114.112 1.69 1.56.092.404.365.748.283.344.374.74.02.252-.263.252-.273 0-.07.223.08 0 .07.07-.01.082-.07.082.131.152.01.212-.122.05-.092.213.03.152-.05.385-.071.232-.76.253l-.667-.061q.04.172-.051.395 1.893.07 2.024.759 1.782.648 3.25 1.518-.618-.92-1.286-2.004-.648-.05-1.123-.132-.486-.09-.395-1.164-.668-.06-.668-.293 0-.145.41-.145.25 0 .653.054 1.052.141 1.538.941 2.916 2.581 2.582 4.18-1.772-.08-2.774-.384t-2.136-.86q0 .83-.283 1.295-.274.466-1.326 4.201l3.28-2.45q.769-.667 1.325-.667 1.58 0 1.407 1.315l-.556 4.01q1.154.313 1.093 1.821.526.091.972.294.384.166.777.166.062 0 .124-.004l.054-.002q.412 0 .583.437h-15.994q.422-.801 1.118-.801.14 0 .29.032.143.03.272.03.68 0 .952-.85.202-.629.57-.629.226 0 .514.234-.74-1.397-.051-2.956-.06-3.31-.89-5.446-.659 1.083-1.55 2.308.193 1.316.081 3.918.446.617.446 1.62 0 1.012-.189 1.012h-.004q-.202-.01-.313-.76-.982 0-.982-.587 0-.557.263-1.306-.547-1.913-.658-4.14.192-1.002 2.085-3.654.529-1.04 1.939-1.04.182 0 .38.017.262-.354.283-.577-.709-.151-1.164-.688-.456-.537-.486-1.792-.04-1.255.982-1.66Q233.39 0 234.156 0zm-10.147 0h2.625v18h-3v-.75h2.625v.375h-.375V.375h.375V.75h-2.625V0h.375zm-4.698 0q2.323 0 2.323 2.232V18h-1.071V2.232q0-1.16-1.252-1.16-1.261 0-1.261 1.16v10.492h-1.071V2.232Q216.979 0 219.31 0zm-4.707.75h-2.25V.375h.375v17.25h-.375v-.375h2.625V18h-3V0h3v.75h-.375zM208.365 0l1.614 1.908h-.787l-.827-.986-.835.986-.811-.986-.835.986-.827-.986-.834.986-.827-.986-.835.986-.811-.986-.835.986-.835-.986-.81.986-.835-.986-.827.986h-.787L198.435 0l.834.922.811-.922.835.922.835-.922.81.922.836-.922.827.922.834-.922.827.922.835-.922.81.922.836-.922zm-7.93 3.95c.024 3.484.051 6.968.073 10.452-.05.564-.08 1.13-.146 1.693-.038.301-.234.582-.192.89.064.207.2.534.432.534a.322.322 0 0 0 .167-.054c.374-.143.73-.381 1.142-.381.022 0 .045 0 .069.002h.06c.784 0 1.553.173 2.33.249.424.06.847.157 1.277.157h.055c-.777-.176-1.544-.473-2.156-.995-.833-.648-1.67-1.292-2.5-1.942-.114-.139.053-7.218.11-10.58l-.721-.024zm-.424-.471c.412.013 1.025.007 1.434.033.22.063.181.309.178.485l-.17 10.29c.91.695 1.81 1.4 2.725 2.089.512.333 1.104.54 1.701.65.267-.003.537-.14.803-.14.086 0 .17.013.255.05.205.158.276.59.001.722-.413.221-.873.306-1.336.306-.293 0-.587-.034-.87-.088-.66-.112-1.327-.178-1.99-.272-.218-.019-.444-.048-.667-.048-.24 0-.478.034-.695.153-.262.116-.551.291-.842.291a.65.65 0 0 1-.293-.067c-.305-.19-.481-.546-.556-.889-.061-.448.241-.844.236-1.29.035-.486.09-.971.112-1.458-.025-3.52-.16-10.817-.026-10.817zm-12.599 4.657c-.237 0-.38.04-.454.082-.215.138-.112.466-.078.672h1.064c.026-.21.142-.53-.078-.672-.074-.042-.216-.082-.454-.082zm5.912 1.241v.74h1.01v-.74zm-5.245 0v.74h5.002v-.74zm-1.216 0v.74h.973v-.74zm-4.883 0v.74h4.64v-.74zm-1.306 0v.74h1.063v-.74zm8.875-1.98l.344.344-1.152 1.149h6.08v1.714h-14.634V8.89h5.896l-1.151-1.149.344-.345 1.064 1.062c.064-.643.505-.791 1.072-.81.606.017.978.154 1.072.81l1.065-1.062z"/><path d="M170.5.375v17.25m7.687-17.25c-9.625 0-9.625 17.25 0 17.25m0 0" fill="none" stroke="#000"/><path d="M162.53.597a2.12 2.12 0 0 0-.692.109c.031.223.169.569.953.773-.73-.053-1.206-.113-1.452-.307-.09.2-.137.427-.159.556a.297.297 0 0 1-.206.237c-.625.191-1.174 1.112-1.7 1.763-.95 1.173-1.771 2.48-2.688 3.733l1.27-.622c1.182-.622 2.395-1.11 3.407-1.877.588-.49 1.172-.996 1.39-1.641.076-.497-.296-1.074-.767-1.279a.297.297 0 1 1 .238-.545c.377.164.7.458.904.817a1.986 1.986 0 0 0-.075-.448.297.297 0 0 1-.012-.104c.01-.184.04-.313.082-.422.04-.109.084-.206.157-.459a.297.297 0 0 1 .105-.153 1.546 1.546 0 0 0-.528-.125c-.042-.003-.083-.003-.124-.004a.258.258 0 1 1-.103-.002zm-1.194 5.432c-.605.466-1.253.873-1.888 1.28.005.438-.006.879-.046 1.321.206-.135.434-.236.697-.3.39-.636.82-1.22 1.082-1.842a4.64 4.64 0 0 0 .155-.46zm.25 1c-.274.549-.622 1.04-.93 1.529.06.04.113.08.155.121l.028.027c.168-.194.374-.351.613-.454-.01-.348.047-.768.133-1.222zm-2.881.047a25.922 25.922 0 0 0-.588.297c-.78.38-1.56.772-2.349 1.148-.556.67-1.157 1.293-1.735 1.92l1.044.175 2.562-2.786a.297.297 0 0 1 .04-.036 18.5 18.5 0 0 1 1.026-.718zm2.592 2.009c-.058.066-.112.14-.162.222a.298.298 0 0 1-.43.087c-.124-.09-.2-.177-.265-.244l-.077 1.413c.1-.006.201-.013.296-.013.167 0 .313.022.398.108.1-.078.28-.1.504-.1.058 0 .118.002.18.005l-.444-1.478zm5.418.999c-.451.062-.686.323-.704.783h1.395c0-.46-.23-.721-.69-.783zm-7.86-2.39a16.38 16.38 0 0 0-.798.56l-2.403 2.613h2.456c.171-.19.519-.365.776-.365.073 0 .14.014.192.046a3.01 3.01 0 0 1 .256-.01c.14 0 .286.007.433.016l.083-1.506c-.224.115-.407.282-.625.542a.297.297 0 0 1-.52-.246c.1-.544.142-1.093.15-1.65zm6.24 3.745l.265.465h1.249l.252-.465zm-4.516 0v2.51l1.726-2.51zM162.523 0a3.878 3.878 0 0 1 .272.01c.694.044 1.215.325 1.408.768a.298.298 0 0 1-.34.408l-.025-.006-.03.007-.109.029c-.054.168-.095.269-.12.332a.541.541 0 0 0-.042.2 3.1 3.1 0 0 1 .037 1.389c-.095.466-.384.977-.761 1.46a.295.295 0 0 1-.014.108 21.24 21.24 0 0 0-.548 2.027c-.152.708-.233 1.387-.192 1.684a.297.297 0 0 1-.223.33l-.019.005.527 1.75c.086-.013.173-.018.26-.018.256 0 .509.041.712.041a.865.865 0 0 0 .183-.016.314.314 0 0 1 .068-.007c.212 0 .657.13.787.366h1.1c.061-.797.482-1.235 1.261-1.315.788.08 1.196.518 1.222 1.315v.572h-.531l-.545 1.01h-1.766l-.532-1.01h-1.567l-2.404 3.493V18h-.571v-6.561h-4.516v-.41l-.1.109a.297.297 0 0 1-.268.092l-1.74-.292a.298.298 0 0 1-.173-.492c.217-.242.437-.48.656-.716l-1.656 1.078a.296.296 0 0 1-.412-.087.297.297 0 0 1 .087-.411l1.345-.876a.292.292 0 0 1-.076-.09.315.315 0 0 1-.02-.237.305.305 0 0 1 .048-.093c.055-.076.084-.088.123-.119.04-.03.084-.06.132-.094.095-.065.205-.137.3-.2a4.156 4.156 0 0 0 .217-.156l2.378-1.672.008-.005c.805-1.13 1.568-2.316 2.457-3.414.433-.535.938-1.524 1.812-1.894.048-.262.157-.68.484-.997.353-.344.863-.463 1.416-.463zM144.82 1.343q.088.166.198.364l.187 1.091q0 .573-.187 1.07-.199.43-.496.771 1.995-.364 3.593-.54-1.003-.595-1.576-1.323-.584-.727-1.72-1.433zm-4.708-.088q-.606.044-2.039.915-1.433.86-2.954 1.422 1.113.066 2.425.474 1.323.397 2.778.595-.232-.275-.463-.782-.22-.508-.22-1.08 0-.585.209-1.092.11-.243.264-.452zm2.32-.508q-.38 0-.732.155-.375.155-.662.42-.286.253-.463.616-.143.364-.165.783-.022.419.132.783.166.364.42.65.264.298.628.463.363.154.782.165l.054.001q.379 0 .729-.144.375-.154.661-.408.276-.253.441-.617.154-.364.177-.794 0-.408-.155-.771-.143-.364-.397-.65-.264-.298-.628-.442-.364-.198-.772-.21h-.05zm.06-.747q.721 0 1.423.153 1.522.33 3.087 1.973 1.565 1.631 2.745 1.742l.022.771q-2.679.232-5.258.706-.965.177-2.03.177-1.782 0-3.846-.497-3.285-.794-4.167-.96h-1.455v-.947h1.5q1.069-.364 2.866-1.444 1.785-1.08 3.406-1.466Q141.65 0 142.492 0zm5.222 15.57l2.055 2.43h-1.002l-1.053-1.255L146.65 18l-1.033-1.255L144.555 18l-1.053-1.255L142.439 18l-1.053-1.255L140.323 18l-1.033-1.255L138.227 18l-1.063-1.255L136.132 18l-1.063-1.255L134.016 18h-1.003l2.056-2.43 1.063 1.175 1.032-1.175 1.063 1.175 1.063-1.175 1.033 1.175 1.063-1.175 1.053 1.175 1.063-1.175 1.053 1.175 1.063-1.175 1.033 1.175 1.063-1.175z"/><path d="M134.646 0l-1.633 1.633v.707l2.164-2.163.177-.177zm3 0l-4.633 4.633v.707l5.164-5.163.177-.177zm3 0l-7.633 7.633v.707l8.164-8.163.177-.177zm.745 2.255l-8.378 8.378v.707l8.378-8.378v-.707zm0 3l-8.378 8.378v.707l8.378-8.378v-.707zm0 3l-8.378 8.378v.707l8.378-8.378v-.707zm0 3l-6.568 6.568-.177.177h.708l6.037-6.038v-.707zm0 3l-3.568 3.568-.177.177h.708l3.037-3.038v-.707zm0 3l-.568.568-.177.177h.708l.037-.038v-.707zM110.646 0l-1.633 1.633v.707l2.164-2.163.177-.177zm3 0l-4.633 4.633v.707l5.164-5.163.177-.177zm3 0l-7.633 7.633v.707l8.164-8.163.177-.177zm3 0l-10.633 10.633v.707L120.177.177l.177-.177zm3 0l-13.633 13.633v.707L123.177.177l.177-.177zm3 0l-16.633 16.633v.707L126.177.177l.177-.177zm3 0l-17.823 17.823-.177.177h.708L129.177.177l.177-.177zm2.367.633l-17.19 17.19-.177.177h.708l16.66-16.66V.633zm0 3l-14.19 14.19-.177.177h.708l13.66-13.66v-.707zm0 3l-11.19 11.19-.177.177h.708l10.66-10.66v-.707zm0 3l-8.19 8.19-.177.177h.708l7.66-7.66v-.707zm0 3l-5.19 5.19-.177.177h.708l4.66-4.66v-.707zm0 3l-2.19 2.19-.177.177h.708l1.66-1.66v-.707z"/><path d="M131.646 0l-.633.633v.707l1.164-1.163.177-.177zm1.367 1.633l-2 2v.707l2-2v-.707zm0 3l-2 2v.707l2-2v-.707zm0 3l-2 2v.707l2-2v-.707zm0 3l-2 2v.707l2-2v-.707zm0 3l-2 2v.707l2-2v-.707zm0 3l-1.19 1.19-.177.177h.708l.66-.66v-.707zM86.646 0l-1.633 1.633v.707L87.177.177 87.354 0zm3 0l-4.633 4.633v.707L90.177.177 90.354 0zm3 0l-7.633 7.633v.707L93.177.177 93.354 0zm3 0L85.013 10.633v.707L96.177.177 96.354 0zm3 0L85.013 13.633v.707L99.177.177 99.354 0zm3 0L85.013 16.633v.707L102.177.177l.177-.177zm3 0L86.823 17.823l-.177.177h.708L105.177.177l.177-.177zm2.367.633l-17.19 17.19-.177.177h.708l16.66-16.66V.633zm0 3l-14.19 14.19-.177.177h.708l13.66-13.66v-.707zm0 3l-11.19 11.19-.177.177h.708l10.66-10.66v-.707zm0 3l-8.19 8.19-.177.177h.708l7.66-7.66v-.707zm0 3l-5.19 5.19-.177.177h.708l4.66-4.66v-.707zm0 3l-2.19 2.19-.177.177h.708l1.66-1.66v-.707z"/><path d="M107.646 0l-.633.633v.707l1.164-1.163.177-.177zm1.367 1.633l-2 2v.707l2-2v-.707zm0 3l-2 2v.707l2-2v-.707zm0 3l-2 2v.707l2-2v-.707zm0 3l-2 2v.707l2-2v-.707zm0 3l-2 2v.707l2-2v-.707zm0 3l-1.19 1.19-.177.177h.708l.66-.66v-.707zM62.646 0l-1.633 1.633v.707L63.177.177 63.354 0zm3 0l-4.633 4.633v.707L66.177.177 66.354 0zm3 0l-7.633 7.633v.707L69.177.177 69.354 0zm3 0L61.013 10.633v.707L72.177.177 72.354 0zm3 0L61.013 13.633v.707L75.177.177 75.354 0zm3 0L61.013 16.633v.707L78.177.177 78.354 0zm3 0L62.823 17.823l-.177.177h.708L81.177.177 81.354 0zm2.367.633l-17.19 17.19-.177.177h.708l16.66-16.66V.633zm0 3l-14.19 14.19-.177.177h.708l13.66-13.66v-.707zm0 3l-11.19 11.19-.177.177h.708l10.66-10.66v-.707zm0 3l-8.19 8.19-.177.177h.708l7.66-7.66v-.707zm0 3l-5.19 5.19-.177.177h.708l4.66-4.66v-.707zm0 3l-2.19 2.19-.177.177h.708l1.66-1.66v-.707z"/><path d="M83.646 0l-.633.633v.707L84.177.177 84.354 0zm1.367 1.633l-2 2v.707l2-2v-.707zm0 3l-2 2v.707l2-2v-.707zm0 3l-2 2v.707l2-2v-.707zm0 3l-2 2v.707l2-2v-.707zm0 3l-2 2v.707l2-2v-.707zm0 3l-1.19 1.19-.177.177h.708l.66-.66v-.707zM47.983.93q-1.734 0-3.485.607-3.52 1.219-6.343 4.339 3.393-2.505 6.627-3.337 1.617-.415 3.234-.415t3.234.415q3.234.832 6.627 3.337-2.96-3.098-6.41-4.327Q49.732.93 47.982.93zm.033-.93q3.986.091 6.935 2.118 2.95 2.027 3.7 3.484.684 1.14.08 1.435-.182.09-.365.09-.424 0-.853-.477-1.161-1.23-5.33-2.767-2.083-.769-4.167-.769-2.084 0-4.168.769-4.167 1.537-5.329 2.79-.455.471-.873.471-.188 0-.368-.095-.58-.308.103-1.447.751-1.457 3.7-3.484Q44.031.091 48.016 0zm7.052 14.138q.254 0 .41.17.154.168.154.38 0 .183-.155.36-.155.175-.394.175-.268 0-.416-.162-.148-.162-.148-.373 0-.226.176-.388t.373-.162zm0-.127q-.253 0-.472.197-.218.198-.218.48 0 .254.19.465.19.211.515.211.296 0 .486-.225.19-.226.19-.451 0-.268-.19-.472-.19-.205-.5-.205zm0-3.538q.268 0 .31.55v2.41q-.014.282.156.522.148.056.289.056.14 0 .275-.056l2.283-.747q.19-.044.324-.044.25 0 .297.156.084.254-.437.466l-2.298.733q-.268.084-.437.338 0 .31.183.536l1.41 1.945q.296.48.084.62-.056.042-.124.042-.185 0-.454-.31l-1.41-1.945q-.155-.24-.45-.338-.282.084-.452.338l-1.41 1.946q-.268.309-.445.309-.065 0-.118-.042-.212-.155.07-.634l1.424-1.945q.183-.226.17-.522-.17-.254-.452-.338l-2.284-.733q-.521-.212-.437-.452.057-.169.314-.169.128 0 .307.043l2.297.747q.134.049.272.049.137 0 .278-.05.184-.239.17-.52v-2.412q.042-.55.295-.55zm-11.555 3.658q-.769 0-1.403.383-1.29.749-2.445.749-1.162 0-2.131-.1v1.996q1.204-.214 1.739-.214h.014q.435 0 1.212.1 3.158.435 3.935.435 1.29 0 2.43-.043 1.953-.114 2.146-.207.185-.085.185-.492 0-.399-.107-.698-.107-.3-.356-.428-6.102-.27-6.58-.314.426-.613 1.318-.613.29 0 .629.065 1.136.223 1.752.223.13 0 .236-.01.606-.057.563-.577-.34.046-.702.046-.762 0-1.621-.203-.424-.098-.814-.098zm-.181-.578q.309 0 .61.078 1.219.32 2.145.335.228 0 .82-.115.278.257.278.606 0 .35-.221.592 2.33.086 2.33.278.421.535.421 1.283 0 .741-.392 1.012Q48.14 18 44.57 18q-.57 0-1.162-.057-3.307-.492-3.942-.506h-.062q-.652 0-2.39.27v-3.15l.015.014q1.49.171 2.43.193l.097.001q.895 0 1.842-.5 1.002-.712 1.935-.712z"/><path d="M38.646 0l-1.633 1.633v.707L39.177.177 39.354 0zm3 0l-4.633 4.633v.707L42.177.177 42.354 0zm3 0l-7.633 7.633v.707L45.177.177 45.354 0zm3 0l-9 9h.708L48.177.177 48.354 0zm3 0l-9 9h.708L51.177.177 51.354 0zm3 0l-9 9h.708L54.177.177 54.354 0zm3 0l-9 9h.367v.34L57.177.177 57.354 0zm2.367.633l-11 11v.707l11-11V.633zm0 3l-11 11v.707l11-11v-.707zm0 3l-11 11V18h.34l10.66-10.66v-.707zm0 3l-8.19 8.19-.177.177h.708l7.66-7.66v-.707zm0 3l-5.19 5.19-.177.177h.708l4.66-4.66v-.707zm0 3l-2.19 2.19-.177.177h.708l1.66-1.66v-.707zM32.147 4.99c.112 0 .223.011.334.021 1.61.172 2.754 1.802 2.501 3.382-.111 1.174-.84 1.832-1.64 2.48-2.38 1.458-1.711.921-4.11 2.136l-.385-.719c2.855-1.336 3.199-1.549 4.09-2.136.729-.587 1.306-1.235 1.255-2.217.02-.678-.384-1.377-.84-1.711a2.186 2.186 0 0 0-1.286-.435c-.344 0-.668.08-.951.283-.72.354-1.114 1.529-.588 2.268.243.354.679.597 1.114.597.213 0 .425-.06.607-.192.365-.203.638-.911.264-1.306.172-.182.415-.405.597-.405.122 0 .213.091.273.304.405.972-.243 2.075-1.215 2.338a1.83 1.83 0 0 1-.516.081c-1.113 0-2.146-.931-2.146-2.085-.101-1.347.972-2.582 2.318-2.663.102-.01.213-.02.324-.02zM21.323 18.048c-2.597 0-2.597-3.896 0-3.896s2.597 3.896 0 3.896zM13.847 5.325v7.35h-.735v-7.35zm-4.37 0v7.35H8.74v-7.35zm-4.371 0v7.35H4.37v-7.35zm-4.37 0v7.35H0v-7.35z"/></svg>