<svg xmlns="http://www.w3.org/2000/svg" width="218.221" height="18"><path d="M216.574 0c.335 0 .67.026.994.066.447.113.218.626-.18.626a.476.476 0 0 1-.081-.008c-.84.097-1.873.15-2.506.626-.841.916-.464 2.821-.561 3.725-.007.05-.01 3.653-.01 5.48a6.145 6.145 0 0 1 2.634-.586c.402 0 .802.04 1.188.117.44.231-.077.528-.423.528a.454.454 0 0 1-.114-.013c-1.226.133-2.62.461-3.243 1.602-.062.206-.023.277.07.277.207 0 .68-.342.947-.342.014 0 .027 0 .04.003a7.535 7.535 0 0 1 1.58-.169c.39 0 .776.031 1.149.095.42.278-.096.534-.438.534a.532.532 0 0 1-.105-.01c-1.252.151-2.637.49-3.243 1.633-.007 1.27 0 2.11-.034 3.278.015.36-.219.538-.456.538-.235 0-.473-.176-.474-.526.009-1.15.09-2.161-.06-3.277-.305-1.253-2.478-1.445-3.827-1.754-.295-.347.285-.475.658-.475.056 0 .107.003.15.008.173-.013.347-.02.522-.02.882 0 1.77.175 2.557.58.032-.755-.712-1.19-1.244-1.493-.84-.361-1.766-.397-2.643-.59-.314-.273.18-.501.521-.501a.58.58 0 0 1 .125.012c.215-.02.431-.031.648-.031.902 0 1.804.183 2.614.582-.017-2.851-.063-5.61.02-8.308.065-.834.545-1.6 1.354-1.849.58-.264 1.227-.358 1.87-.358z"/><path d="M209.646 0l-.324.324v.708l.855-.855.177-.177zm3 0l-3.324 3.324v.708l3.855-3.855.177-.177zm3 0l-6.324 6.324v.708l6.855-6.855.177-.177zm2.575.426l-8.899 8.898v.708l8.899-8.899V.426zm0 3l-8.899 8.898v.708l8.899-8.899v-.707zm0 3l-8.899 8.898v.708l8.899-8.899v-.707zm0 3l-8.398 8.397-.177.177h.708l7.867-7.867v-.707zm0 3l-5.398 5.397-.177.177h.708l4.867-4.867v-.707zm0 3l-2.398 2.397-.177.177h.708l1.867-1.867v-.707zM218.646 0l-.425.426v.707l.956-.956.177-.177zm1.61 1.391l-2.035 2.035v.707l2.034-2.035v-.707zm0 3l-2.035 2.035v.707l2.034-2.035v-.707zm0 3l-2.035 2.035v.707l2.034-2.035v-.707zm0 3l-2.035 2.035v.707l2.034-2.035v-.707zm0 3l-2.035 2.035v.707l2.034-2.035v-.707zm0 3l-1.433 1.432-.177.177h.708l.901-.902v-.707zM192.579 2.99q-.557 0-1.087.606 4.368 5.2 5.46 5.81.815.457 1.434.457.211 0 .4-.053.74-.208 1.585-.234h.043q.828 0 1.817.988h.13q-.702-1.638-1.964-2.34-1.26-.702-7.397-5.148-.212-.085-.421-.085zm7.73-2.369q-.065 0-.133.01v6.683q2.055 1.196 2.835 3.354-1.196-8.268-1.677-9.204Q200.9.62 200.31.62zm5.356 10.468q.081 0 .154.138.13.247-.234.689-.208-.546-.052-.741.068-.086.132-.086zm-.036-.372q-.153 0-.33.237-.39.52.234 2.08.702-1.352.429-1.976-.15-.34-.333-.34zm-6.805 2.577v.39q.286-.026.442-.182-.052-.078-.208-.208zm-.598.884l-2.418.338-.494.884q.832-.234 1.833-.624t1.08-.598zm5.33-.364l-.467.234-.156 1.118.416 1.274h.65l-.442-1.274v-1.352zm-1.117.39l-.442.13-.156.832.416 1.274h.65l-.442-1.274-.026-.962zm-1.534.156l-.156.806.416 1.274h.65l-.442-1.274v-.78l-.468-.026zm.994-3.234q-.416 0-.89.1-1.405.3-1.769 1.418h-1.092l-.416-.676q-5.512 1.274-6.214 4.602 1.508-.832 3.172-1.118l.728-1.456 2.886-.39-.078-.702h.988q1.092.9 2.229.9.243 0 .489-.042 1.39-.234 1.82-.95.429-.714-.455-1.3-.585-.386-1.398-.386zM200.053 0q.948 0 1.489.658.663.806 1.235 4.238l.91 5.954q.442.468.676.52h.312q.026-.65.494-1.196.416-3.978-.364-6.968l.312-.598q1.118 3.38.546 7.592h.078q1.794-4.03.52-7.592l.312-.468q1.664 3.796-.364 8.242.572 1.248.117 2.054-.455.806-.56 1.508l-.181.13q-.702-1.04-.806-1.794h-.26q-.026.598-.338 1.248l-.182 1.638.442 1.274h2.262v.624h-6.527v-.624h.547l-.417-1.274-.026-.962q-.468-.156-.702-.364-.338.312-.754.312.026.26-.104.442-1.04.806-3.718 1.404l-.91 1.768q0-.434-.269-.434-.086 0-.199.044l.728-1.3q-1.508.338-2.288.858-.416.442.052 1.066-1.04-.442-1.17-1.248.416-3.926 7.046-5.46l.468.78h.416q.338-1.092 2.679-1.508-.523-.388-1.285-.388-.414 0-.9.115-.492.116-.96.116-.845 0-1.614-.376-1.196-.585-6.084-6.461.901-1.136 1.905-1.136.33 0 .67.122l6.317 4.524V.034q.235-.034.45-.034z"/><path d="M181.212.375c9.625 0 9.625 17.25 0 17.25" fill="none" stroke="#000"/><path d="M174.99 7.938c.682.054 1.058.394 1.13 1.022-.09.68-.466 1.04-1.13 1.075-.663-.036-1.012-.394-1.048-1.075.054-.628.403-.968 1.049-1.022zm-.08-2.259c-.484 0-.932.09-1.344.27a3.545 3.545 0 0 0-1.828 1.815 3.11 3.11 0 0 0-.27 1.276c0 .466.09.901.269 1.304a3.422 3.422 0 0 0 3.173 2.03c.484 0 .937-.085 1.358-.255.421-.17.784-.408 1.089-.712.305-.305.547-.66.726-1.063.18-.403.269-.838.269-1.304 0-.448-.09-.874-.27-1.277a3.67 3.67 0 0 0-.725-1.075 3.302 3.302 0 0 0-1.09-.74 3.431 3.431 0 0 0-1.357-.269zm.054-.914a4.17 4.17 0 0 1 1.667.336c.52.224.968.529 1.344.914.377.386.677.834.901 1.345.224.51.336 1.062.336 1.653 0 .592-.112 1.143-.336 1.654a4.31 4.31 0 0 1-.9 1.331 4.267 4.267 0 0 1-3.012 1.237 4.071 4.071 0 0 1-1.654-.336 4.48 4.48 0 0 1-1.344-.9 4.195 4.195 0 0 1-.915-1.332 4.071 4.071 0 0 1-.336-1.654c0-.591.112-1.142.336-1.653a4.358 4.358 0 0 1 2.26-2.259 4.071 4.071 0 0 1 1.653-.336zm-22.032 2.484q2.48 3.37 7.137 3.462 4.627-.091 7.107-3.462zm15.783-.8q-2.54 5.082-8.646 5.102-6.135-.02-8.676-5.102zm-21.398-5.325q-2.014.293-2.105 1.842v11.177q.941-1.124 3.381-1.58l-1.276-11.44zM147.884 0l1.509 13.363q-3.361.385-4.181 2.4V18h-1.003V2.966q0-2.51 3.675-2.966zm-10.041.601c-1.074 0-2.418.552-3.069 1.202-.569.57-.643 1.324-.664 2.025h7.435c-.02-.7-.095-1.455-.664-2.025-.65-.65-1.964-1.202-3.038-1.202zm0-.601c1.275 0 2.645.589 3.449 1.392.824.824.917 1.91.917 2.72v.317h-8.732v-.316c0-.812.062-1.897.886-2.72C135.167.588 136.57 0 137.843 0zm3.659 17.268V18h-7.317v-.732zM123.829 1.921q-.575 0-.448.554l1.321 5.39h1.108l-1.32-5.368q-.107-.576-.661-.576zm-1.705 0q-.532 0-.426.554l1.279 5.39h1.107l-1.278-5.368q-.128-.576-.682-.576zm-1.832 0q-.596 0-.447.554l1.3 5.39h1.107l-1.278-5.368q-.15-.576-.682-.576zm-1.79 0q-.49 0-.426.554l1.3 5.39h1.108l-1.3-5.368q-.106-.576-.681-.576zm-1.79 0q-.51 0-.447.554l1.321 5.39h1.108l-1.3-5.368q-.17-.576-.681-.576zm.768 6.605q-.533 0-.533.447 0 .448.512.448h8.479q.533 0 .533-.448 0-.447-.533-.447zm9.97.895q1.79 2.79 2.302 5.54.041.916.551.916h.024q.532-.022.34-.938-.894-3.75-3.216-5.518zm-11.483 0q-2.322 1.768-3.217 5.518-.192.916.341.937h.023q.51 0 .552-.916.512-2.748 2.301-5.54zm4.41-8.075q2.45 0 4.112.213.66.085.81.938l1.236 5.22q.17.49.788.809 3.473 2.45 4.154 6.775-.105 1.353-1.134 1.353h-.016q-1.044-.01-1.236-1.332-1.022-3.941-1.875-5.198h-1.022v.682h-1.62v-.682h-5.71v.682h-1.619v-.682h-1.022q-.874 1.257-1.896 5.198-.192 1.321-1.236 1.332h-.016q-1.029 0-1.134-1.353.681-4.325 4.154-6.775h-.021q.618-.341.639-.554l-1.236-5.475q-.106-.831.703-.96 1.96-.19 4.197-.19zM107.074 4.99c.112 0 .223.011.335.021 1.61.172 2.753 1.802 2.5 3.382-.111 1.174-.84 1.832-1.64 2.48-2.38 1.458-1.71.921-4.11 2.136l-.385-.719c2.855-1.336 3.2-1.549 4.09-2.136.73-.587 1.306-1.235 1.256-2.217.02-.678-.385-1.377-.84-1.711a2.186 2.186 0 0 0-1.287-.435c-.344 0-.668.08-.951.283-.719.354-1.114 1.529-.587 2.268.243.354.678.597 1.113.597.213 0 .425-.06.608-.192.364-.203.638-.911.263-1.306.172-.182.415-.405.597-.405.122 0 .213.091.274.304.405.972-.243 2.075-1.215 2.338a1.83 1.83 0 0 1-.517.081c-1.113 0-2.146-.931-2.146-2.085-.101-1.347.972-2.582 2.318-2.663.102-.01.213-.02.324-.02zM92.514.924c-.297 0-.476.05-.568.103-.27.172-.14.583-.098.84h1.33c.032-.263.178-.664-.097-.84-.093-.053-.271-.103-.567-.103zm7.389 1.552V3.4h1.262v-.924zm-6.556 0V3.4H99.6v-.924zm-1.52 0V3.4h1.216v-.924zm-6.104 0V3.4h5.8v-.924zm-1.632 0V3.4h1.328v-.924zM95.184 0l.43.431-1.44 1.436h7.6v2.142H83.482V1.867h7.37L89.412.43l.43-.431 1.332 1.327c.08-.804.63-.989 1.34-1.012.757.02 1.222.192 1.34 1.012L95.183 0zm6.556 10.67V18h-1.225v-7.33zm-8.424.01V18h-1.225v-7.32zm-8.575 0V18h-1.225v-7.32zM71.646 0l-1.164 1.164v.707L72.177.177 72.354 0zm3 0l-4.164 4.164v.707L75.177.177 75.354 0zm3 0l-7.164 7.164v.707L78.177.177 78.354 0zm3 0L70.482 10.164v.707L81.177.177 81.354 0zm.836 2.164l-11 11v.707l11-11v-.707zm0 3l-11 11v.707l11-11v-.707zm0 3l-9.659 9.66-.177.176h.708l9.128-9.129v-.707zm0 3l-6.659 6.66-.177.176h.708l6.128-6.129v-.707zm0 3l-3.659 3.66-.177.176h.708l3.128-3.129v-.707zm0 3l-.659.66-.177.176h.708l.128-.129v-.707zm2-17l-2 2v.707l2-2V.164zm0 3l-2 2v.707l2-2v-.707zm0 3l-2 2v.707l2-2v-.707zm0 3l-2 2v.707l2-2v-.707zm0 3l-2 2v.707l2-2v-.707zm0 3l-2 2v.707l2-2v-.707z"/><path d="M60.795.375v17.25M68.482.375c-9.625 0-9.625 17.25 0 17.25m0 0" fill="none" stroke="#000"/><path d="M52.825.597a2.12 2.12 0 0 0-.692.109c.031.223.169.569.953.773-.73-.053-1.206-.113-1.452-.307-.09.2-.138.427-.159.556a.297.297 0 0 1-.206.237c-.625.191-1.174 1.112-1.7 1.763-.95 1.173-1.771 2.48-2.688 3.733.423-.207.845-.415 1.27-.622 1.182-.622 2.395-1.11 3.407-1.877.588-.49 1.172-.996 1.39-1.641.076-.497-.296-1.074-.767-1.279a.297.297 0 1 1 .238-.545c.377.164.7.458.904.817a1.986 1.986 0 0 0-.075-.448.297.297 0 0 1-.013-.104c.01-.184.042-.313.083-.422.04-.109.084-.206.157-.459a.297.297 0 0 1 .105-.153 1.546 1.546 0 0 0-.528-.125C53.01.6 52.97.6 52.927.599a.258.258 0 1 1-.102-.002zm-1.194 5.432c-.605.466-1.253.873-1.888 1.28.005.438-.006.879-.046 1.321.206-.135.433-.236.697-.3.39-.636.82-1.22 1.082-1.842a4.64 4.64 0 0 0 .155-.46zm.25 1c-.274.549-.622 1.04-.93 1.529.06.04.113.08.155.121l.028.027c.168-.194.374-.351.613-.454-.01-.348.047-.768.133-1.222zM49 7.077a25.922 25.922 0 0 0-.588.297c-.78.38-1.56.772-2.35 1.148-.556.67-1.156 1.293-1.734 1.92l1.043.175 2.563-2.786a.297.297 0 0 1 .04-.036A18.5 18.5 0 0 1 49 7.077zm2.591 2.009c-.057.066-.112.14-.161.222a.298.298 0 0 1-.43.087c-.124-.09-.2-.177-.265-.244l-.077 1.413c.1-.006.201-.013.296-.013.167 0 .313.022.398.108.1-.078.28-.1.504-.1.057 0 .118.002.18.005l-.445-1.478zm5.419.999c-.452.062-.686.323-.704.783h1.395c0-.46-.23-.721-.691-.783zm-7.86-2.39c-.274.182-.542.367-.799.56l-2.402 2.613h2.456c.17-.19.518-.365.776-.365.073 0 .14.014.192.046a3.01 3.01 0 0 1 .256-.01c.14 0 .286.007.433.016l.083-1.506c-.224.115-.407.282-.625.542a.297.297 0 0 1-.52-.246c.1-.544.142-1.093.15-1.65zm6.24 3.745l.265.465h1.249l.252-.465zm-4.516 0v2.51l1.726-2.51zM52.818 0a3.878 3.878 0 0 1 .272.01c.694.044 1.215.325 1.408.768a.298.298 0 0 1-.341.408l-.024-.006-.03.007-.109.029c-.054.168-.095.269-.12.332a.541.541 0 0 0-.042.2 3.1 3.1 0 0 1 .037 1.389c-.095.466-.384.977-.761 1.46a.295.295 0 0 1-.014.108 21.24 21.24 0 0 0-.548 2.027c-.152.708-.233 1.387-.192 1.684a.297.297 0 0 1-.223.33l-.019.005.527 1.75c.086-.013.173-.018.26-.018.256 0 .509.041.712.041a.865.865 0 0 0 .183-.016.314.314 0 0 1 .068-.007c.212 0 .657.13.787.366h1.1c.061-.797.482-1.235 1.261-1.315.788.08 1.196.518 1.222 1.315v.572h-.531l-.545 1.01H55.39l-.532-1.01h-1.567l-2.404 3.493V18h-.571v-6.561H45.8v-.41l-.1.109a.297.297 0 0 1-.268.092l-1.74-.292a.298.298 0 0 1-.173-.492c.217-.242.437-.48.656-.716l-1.656 1.078a.296.296 0 0 1-.412-.087.297.297 0 0 1 .087-.411l1.345-.876a.292.292 0 0 1-.076-.09.315.315 0 0 1-.02-.237c.016-.05.034-.074.048-.093.055-.076.084-.088.123-.119.04-.03.084-.06.131-.094.096-.065.206-.137.301-.2a4.156 4.156 0 0 0 .216-.156l2.379-1.672.008-.005c.805-1.13 1.568-2.316 2.457-3.414.433-.535.938-1.524 1.812-1.894.048-.262.157-.68.484-.997.352-.344.863-.463 1.416-.463zM38.63 7.458v1.656c.565 0 .848-.283.848-.848 0-.539-.283-.808-.848-.808zM36.535 0c.463 0 .855.116 1.176.35.613.443.919 1.09.919 1.938v4.584c.942 0 1.42.465 1.434 1.394 0 .942-.478 1.413-1.434 1.413V18h-.747V2.732c0-1.023-.198-1.68-.595-1.969-.206-.15-.476-.225-.839-.225-.337 0-.754.065-1.273.195a.65.65 0 0 1-.212.043c-.111 0-.188-.048-.232-.144-.013-.162.108-.276.364-.343C35.634.096 36.114 0 36.535 0zm-8.169.601c-1.074 0-2.418.552-3.069 1.202-.569.57-.643 1.324-.664 2.025h7.435c-.021-.7-.096-1.455-.665-2.025-.65-.65-1.963-1.202-3.037-1.202zm0-.601c1.274 0 2.645.589 3.449 1.392.824.824.917 1.91.917 2.72v.317H24v-.316c0-.812.062-1.897.886-2.72C25.689.588 27.092 0 28.366 0zm1.187 9.627c5.438 1.9 2.904 9.54-2.195 8.228-5.054-1.302-4.046-9.318 2.195-8.228m-.243.698c-5.418-.787-5.64 5.768-1.708 6.812 3.846 1.022 6.482-5.13 1.708-6.812m-1.189 1.152c-1.082-.74.885-.487 0-.018v.018m1.986.433c-1.227-.397.343-.795 0-.073v.073m-2.993-.712v.732l-.73-.244.73-.488m3.57 2.066c-.902-.795.596-.885.11-.09l-.11.09m-2.838-.846l.244.731-.732-.487.488-.244m1.052.358l.072-.017c.668-.489 1.39 1.767-.072.017m-3.014-.397c.956.56-.162.703-.253.703l.253-.703m2.938 1.502l-.244.244-.488-.732.732.488m-1.675-.474l.47.019c-.56.866-.758.793-.47-.019m3.681 1.517c-.883-.74.434-.632.416-.488l-.416.488m-1.01-.903l-.22.305c-.718-.215-.34-.792.22-.305m-3.435.836l-.244.244-.488-.732.732.488m1.323.012c.759-.378.92-.27.47.344l-.47-.344m2.579.72l-.244.731-.488-.732h.732m-3.246-.465l.45.54c-.107.217-1.1.145-.45-.54m1.539.71l.244.731h-.732l.488-.732z"/><path d="M26.646 0L24 2.646v.708L27.177.177 27.354 0zm3 0L24 5.646v.708L30.177.177 30.354 0zm3 0L24 8.646v.708L32.732.62V0zm.086 2.914L24 11.646v.708l8.732-8.733v-.707zm0 3L24 14.646v.708l8.732-8.733v-.707zm0 3L24 17.646V18h.354l8.378-8.379v-.707zm0 3l-5.909 5.91-.177.176h.708l5.378-5.379v-.707zm0 3l-2.909 2.91-.177.176h.708l2.378-2.379v-.707zm0-14.914v.621l.445-.444.177-.177zm2 .914l-2 2v.707l2-2V.914zm0 3l-2 2v.707l2-2v-.707zm0 3l-2 2v.707l2-2v-.707zm0 3l-2 2v.707l2-2v-.707zm0 3l-2 2v.707l2-2v-.707zm0 3l-1.909 1.91-.09.09V18h.62l1.38-1.379v-.707zM2.646 0L0 2.646v.708L3.177.177 3.354 0zm3 0L0 5.646v.708L6.177.177 6.354 0zm3 0L0 8.646v.708L9.177.177 9.354 0zm3 0L0 11.646v.708L12.177.177 12.354 0zm3 0L0 14.646v.708L15.177.177 15.354 0zm3 0L0 17.646V18h.354L18.177.177 18.354 0zm3 0L2.823 17.823 2.646 18h.708L21.177.177 21.354 0zM22 1.646L5.823 17.823 5.646 18h.708L22 2.354v-.708zm0 3L8.823 17.823 8.646 18h.708L22 5.354v-.708zm0 3L11.823 17.823l-.177.177h.708L22 8.354v-.708zm0 3l-7.177 7.177-.177.177h.708L22 11.354v-.708zm0 3l-4.177 4.177-.177.177h.708L22 14.354v-.708zm0 3l-1.177 1.177-.177.177h.708l.646-.646v-.708z"/></svg>