<svg xmlns="http://www.w3.org/2000/svg" width="267.407" height="18"><path d="M258.147 7.92c-.297 0-.475.05-.568.103-.269.171-.14.583-.097.84h1.33c.032-.263.177-.664-.098-.84-.092-.053-.27-.103-.567-.103zm7.39 1.551v.924h1.261v-.924zm-6.557 0v.924h6.252v-.924zm-1.52 0v.924h1.217v-.924zm-6.104 0v.924h5.8v-.924zm-1.632 0v.924h1.328v-.924zm11.093-2.475l.43.43-1.439 1.436h7.6v2.142h-18.293V8.862h7.37l-1.44-1.435.431-.431 1.33 1.327c.08-.805.632-.99 1.34-1.012.758.02 1.223.191 1.34 1.012l1.331-1.327zM245.468 0c.336 0 .67.026.995.066.447.113.217.626-.18.626a.476.476 0 0 1-.082-.008c-.839.097-1.872.15-2.506.626-.84.916-.463 2.821-.56 3.725-.008.05-.01 3.653-.01 5.48a6.145 6.145 0 0 1 2.634-.586c.402 0 .801.04 1.188.117.44.231-.077.528-.423.528a.454.454 0 0 1-.114-.013c-1.226.133-2.62.461-3.243 1.602-.062.206-.023.277.07.277.207 0 .68-.342.947-.342.014 0 .027 0 .04.003a7.535 7.535 0 0 1 1.58-.169c.39 0 .776.031 1.148.095.421.278-.095.534-.437.534a.532.532 0 0 1-.105-.01c-1.252.151-2.637.49-3.243 1.633-.007 1.27 0 2.11-.034 3.278.015.36-.22.538-.456.538-.235 0-.473-.176-.474-.526.008-1.15.09-2.161-.06-3.277-.305-1.253-2.478-1.445-3.827-1.754-.295-.347.285-.475.658-.475.056 0 .107.003.15.008.173-.013.347-.02.521-.02.883 0 1.772.175 2.558.58.032-.755-.712-1.19-1.244-1.493-.84-.361-1.766-.397-2.643-.59-.314-.273.18-.501.52-.501a.58.58 0 0 1 .126.012c.215-.02.431-.031.648-.031.902 0 1.804.183 2.614.582-.017-2.851-.063-5.61.019-8.308.066-.834.546-1.6 1.354-1.849.58-.264 1.227-.358 1.871-.358zm-17.629.601c-1.074 0-2.418.552-3.069 1.202-.569.57-.643 1.324-.664 2.025h7.435c-.021-.7-.096-1.455-.665-2.025-.65-.65-1.963-1.202-3.037-1.202zm0-.601c1.274 0 2.645.589 3.449 1.392.824.824.917 1.91.917 2.72v.317h-8.732v-.316c0-.812.062-1.897.886-2.72.803-.804 2.206-1.393 3.48-1.393zm6.323 15.57l2.055 2.43h-1.003l-1.052-1.255L233.099 18l-1.033-1.255L231.003 18l-1.053-1.255L228.887 18l-1.053-1.255L226.77 18l-1.033-1.255L224.675 18l-1.063-1.255L222.58 18l-1.064-1.255L220.464 18h-1.003l2.055-2.43 1.064 1.175 1.032-1.175 1.063 1.175 1.063-1.175 1.033 1.175 1.063-1.175 1.053 1.175 1.063-1.175 1.053 1.175 1.063-1.175 1.033 1.175 1.063-1.175zM215.386 1.124q-2.015.293-2.106 1.842v11.177q.942-1.124 3.381-1.58l-1.275-11.44zM215.953 0l1.508 13.363q-3.36.385-4.18 2.4V18h-1.003V2.966q0-2.51 3.675-2.966zm-7.75 1.124q-2.015.293-2.106 1.842v11.177q.941-1.124 3.381-1.58l-1.275-11.44zM208.769 0l1.509 13.363q-3.361.385-4.181 2.4V18h-1.002V2.966q0-2.51 3.674-2.966zm-11.082.597a2.12 2.12 0 0 0-.692.109c.032.223.17.569.953.773-.73-.053-1.206-.113-1.452-.307-.089.2-.137.427-.158.556a.297.297 0 0 1-.207.237c-.624.191-1.173 1.112-1.7 1.763-.95 1.173-1.771 2.48-2.688 3.733l1.27-.622c1.182-.622 2.395-1.11 3.407-1.877.589-.49 1.172-.996 1.391-1.641.076-.497-.297-1.074-.768-1.279a.297.297 0 1 1 .238-.545c.377.164.7.458.904.817a1.986 1.986 0 0 0-.074-.448.297.297 0 0 1-.013-.104c.01-.184.041-.313.082-.422.04-.109.085-.206.158-.459a.297.297 0 0 1 .104-.153 1.546 1.546 0 0 0-.527-.125C197.872.6 197.83.6 197.79.599a.258.258 0 1 1-.103-.002zm-1.193 5.432c-.606.466-1.253.873-1.888 1.28.005.438-.006.879-.047 1.321.207-.135.434-.236.697-.3.391-.636.82-1.22 1.082-1.842.055-.129.106-.29.156-.46zm.249 1c-.273.549-.622 1.04-.929 1.529.06.04.112.08.155.121l.027.027a1.72 1.72 0 0 1 .613-.454c-.009-.348.048-.768.134-1.222zm-2.881.047a25.922 25.922 0 0 0-.588.297c-.78.38-1.56.772-2.349 1.148-.556.67-1.156 1.293-1.734 1.92l1.043.175 2.563-2.786a.297.297 0 0 1 .039-.036 18.5 18.5 0 0 1 1.026-.718zm2.592 2.009c-.058.066-.112.14-.162.222a.298.298 0 0 1-.429.087c-.125-.09-.2-.177-.265-.244l-.078 1.413c.1-.006.202-.013.296-.013.167 0 .314.022.398.108.1-.078.28-.1.504-.1.058 0 .118.002.181.005l-.445-1.478zm5.418.999c-.451.062-.686.323-.703.783h1.394c0-.46-.23-.721-.69-.783zm-7.86-2.39a16.38 16.38 0 0 0-.798.56l-2.403 2.613h2.457c.17-.19.518-.365.776-.365.073 0 .139.014.191.046.082-.007.168-.01.256-.01.14 0 .286.007.434.016l.083-1.506c-.225.115-.408.282-.626.542a.297.297 0 0 1-.52-.246 9.773 9.773 0 0 0 .15-1.65zm6.24 3.745l.266.465h1.248l.253-.465zm-4.516 0v2.51l1.727-2.51zM197.68 0a3.878 3.878 0 0 1 .273.01c.694.044 1.215.325 1.407.768a.298.298 0 0 1-.34.408l-.025-.006-.03.007-.108.029c-.054.168-.096.269-.12.332a.541.541 0 0 0-.042.2c.154.552.094 1.107.037 1.389-.096.466-.384.977-.762 1.46a.295.295 0 0 1-.014.108 21.85 21.85 0 0 0-.548 2.027c-.152.708-.233 1.387-.192 1.684a.297.297 0 0 1-.223.33l-.018.005.527 1.75c.085-.013.172-.018.259-.018.256 0 .509.041.712.041a.865.865 0 0 0 .183-.016.314.314 0 0 1 .069-.007c.211 0 .656.13.786.366h1.1c.062-.797.482-1.235 1.261-1.315.789.08 1.196.518 1.223 1.315v.572h-.532l-.544 1.01h-1.767l-.531-1.01h-1.567l-2.405 3.493V18h-.57v-6.561h-4.517v-.41l-.1.109a.297.297 0 0 1-.267.092l-1.74-.292a.298.298 0 0 1-.173-.492c.216-.242.436-.48.656-.716l-1.657 1.078a.296.296 0 0 1-.411-.087.297.297 0 0 1 .087-.411l1.345-.876a.292.292 0 0 1-.077-.09.315.315 0 0 1-.02-.237.305.305 0 0 1 .048-.093c.056-.076.084-.088.124-.119l.13-.094c.096-.065.207-.137.302-.2a4.156 4.156 0 0 0 .216-.156l2.378-1.672.008-.005c.806-1.13 1.568-2.316 2.457-3.414.433-.535.938-1.524 1.812-1.894.049-.262.157-.68.484-.997.353-.344.864-.463 1.416-.463zm-12.754 0v1.21h-6.565V0zm0 8.32v1.21h-6.544V8.32zm0 8.47V18h-6.544v-1.21zM171.412 1.343q.088.166.198.364l.188 1.091q0 .573-.188 1.07-.198.43-.496.771 1.996-.364 3.594-.54-1.003-.595-1.576-1.323-.585-.727-1.72-1.433zm-4.707-.088q-.606.044-2.04.915-1.432.86-2.954 1.422 1.114.066 2.426.474 1.322.397 2.777.595-.231-.275-.463-.782-.22-.508-.22-1.08 0-.585.21-1.092.11-.243.264-.452zm2.32-.508q-.381 0-.733.155-.374.155-.661.42-.287.253-.463.616-.143.364-.165.783-.022.419.132.783.165.364.419.65.264.298.628.463.364.154.783.165l.054.001q.379 0 .728-.144.375-.154.662-.408.275-.253.44-.617.155-.364.177-.794 0-.408-.154-.771-.143-.364-.397-.65-.265-.298-.628-.442-.364-.198-.772-.21h-.05zm.06-.747q.721 0 1.423.153 1.521.33 3.087 1.973 1.565 1.631 2.744 1.742l.022.771q-2.678.232-5.258.706-.964.177-2.029.177-1.783 0-3.846-.497-3.285-.794-4.167-.96h-1.455v-.947h1.5q1.068-.364 2.865-1.444 1.786-1.08 3.406-1.466.867-.208 1.708-.208zm5.221 15.57l2.055 2.43h-1.002l-1.053-1.255L173.243 18l-1.032-1.255L171.148 18l-1.053-1.255L169.032 18l-1.053-1.255L166.916 18l-1.033-1.255L164.82 18l-1.063-1.255L162.724 18l-1.063-1.255L160.608 18h-1.002l2.055-2.43 1.063 1.175 1.033-1.175 1.063 1.175 1.063-1.175 1.033 1.175 1.063-1.175 1.053 1.175 1.063-1.175 1.053 1.175 1.063-1.175 1.032 1.175 1.063-1.175zM155.283 0q2.323 0 2.323 2.232V18h-1.071V2.232q0-1.16-1.252-1.16-1.261 0-1.261 1.16v10.492h-1.071V2.232Q152.95 0 155.283 0zm-6.567 0l2.235 2.643h-1.09l-1.145-1.366-1.157 1.366-1.123-1.366-1.156 1.366-1.145-1.366-1.156 1.366-1.145-1.366-1.157 1.366-1.123-1.366-1.156 1.366-1.156-1.366-1.123 1.366-1.156-1.366-1.146 1.366h-1.09L134.963 0l1.156 1.277L137.242 0l1.156 1.277L139.554 0l1.123 1.277L141.834 0l1.145 1.277L144.135 0l1.145 1.277L146.436 0l1.123 1.277L148.716 0zm2.234 10.67V18h-1.224v-7.33zm-8.423.01V18h-1.225v-7.32zm-8.575 0V18h-1.225v-7.32zm-4.659-3.222v1.656c.566 0 .849-.283.849-.848 0-.539-.283-.808-.849-.808zM127.2 0c.463 0 .855.116 1.175.35.613.443.92 1.09.92 1.938v4.584c.942 0 1.42.465 1.433 1.394 0 .942-.478 1.413-1.434 1.413V18h-.746V2.732c0-1.023-.199-1.68-.596-1.969-.206-.15-.476-.225-.838-.225-.337 0-.754.065-1.273.195a.65.65 0 0 1-.212.043c-.111 0-.189-.048-.232-.144-.014-.162.107-.276.363-.343.539-.193 1.018-.289 1.44-.289zm-8.17.601c-1.074 0-2.419.552-3.07 1.202-.568.57-.643 1.324-.664 2.025h7.435c-.02-.7-.095-1.455-.664-2.025-.65-.65-1.963-1.202-3.037-1.202zm0-.601c1.274 0 2.645.589 3.448 1.392.824.824.918 1.91.918 2.72v.317h-8.732v-.316c0-.812.061-1.897.885-2.72C116.353.588 117.755 0 119.03 0zm1.186 9.627c5.439 1.9 2.904 9.54-2.195 8.228-5.054-1.302-4.045-9.318 2.195-8.228m-.243.698c-5.417-.787-5.639 5.768-1.707 6.812 3.846 1.022 6.482-5.13 1.707-6.812m-1.188 1.152c-1.082-.74.885-.487 0-.018v.018m1.985.433c-1.227-.397.343-.795 0-.073v.073m-2.993-.712v.732l-.73-.244.73-.488m3.571 2.066c-.903-.795.596-.885.109-.09l-.109.09m-2.838-.846l.243.731-.732-.487.489-.244m1.051.358l.072-.017c.668-.489 1.39 1.767-.072.017m-3.014-.397c.957.56-.162.703-.253.703l.253-.703m2.938 1.502l-.244.244-.488-.732.732.488m-1.674-.474l.469.019c-.56.866-.758.793-.47-.019m3.682 1.517c-.884-.74.433-.632.415-.488l-.415.488m-1.01-.903l-.221.305c-.718-.215-.34-.792.22-.305m-3.434.836l-.245.244-.487-.732.732.488m1.323.012c.758-.378.92-.27.47.344l-.47-.344m2.578.72l-.244.731-.488-.732h.732m-3.245-.465l.45.54c-.107.217-1.1.145-.45-.54m1.538.71l.244.731h-.732l.488-.732zM77.633.93q-1.734 0-3.485.607-3.519 1.219-6.343 4.339 3.393-2.505 6.627-3.337 1.617-.415 3.234-.415t3.234.415q3.234.832 6.628 3.337-2.961-3.098-6.411-4.327Q79.384.93 77.633.93zm.033-.93q3.986.091 6.935 2.118 2.95 2.027 3.701 3.484.683 1.14.08 1.435-.183.09-.366.09-.424 0-.853-.477-1.161-1.23-5.329-2.767-2.084-.769-4.168-.769-2.083 0-4.167.769-4.168 1.537-5.33 2.79-.455.471-.873.471-.187 0-.368-.095-.58-.308.103-1.447.751-1.457 3.7-3.484Q73.682.091 77.667 0zm7.053 14.138q.253 0 .409.17.155.168.155.38 0 .183-.155.36-.156.175-.395.175-.268 0-.416-.162-.148-.162-.148-.373 0-.226.176-.388t.374-.162zm0-.127q-.254 0-.473.197-.218.198-.218.48 0 .254.19.465.19.211.515.211.296 0 .486-.225.19-.226.19-.451 0-.268-.19-.472-.19-.205-.5-.205zm0-3.538q.268 0 .31.55v2.41q-.014.282.155.522.148.056.289.056.14 0 .275-.056l2.284-.747q.19-.044.323-.044.25 0 .297.156.084.254-.437.466l-2.298.733q-.268.084-.437.338 0 .31.183.536l1.41 1.945q.296.48.085.62-.057.042-.125.042-.185 0-.453-.31l-1.41-1.945q-.155-.24-.451-.338-.282.084-.451.338l-1.41 1.946q-.268.309-.446.309-.065 0-.118-.042-.212-.155.07-.634l1.424-1.945q.184-.226.17-.522-.17-.254-.452-.338l-2.284-.733q-.521-.212-.437-.452.057-.169.314-.169.128 0 .307.043l2.298.747q.134.049.271.049t.278-.05q.184-.239.17-.52v-2.412q.042-.55.296-.55zm-11.555 3.658q-.77 0-1.404.383-1.29.749-2.445.749-1.162 0-2.131-.1v1.996q1.205-.214 1.74-.214h.013q.435 0 1.212.1 3.158.435 3.935.435 1.29 0 2.43-.043 1.954-.114 2.146-.207.185-.085.185-.492 0-.399-.107-.698-.107-.3-.356-.428-6.102-.27-6.58-.314.426-.613 1.318-.613.29 0 .629.065 1.136.223 1.752.223.13 0 .237-.01.605-.057.563-.577-.34.046-.703.046-.762 0-1.621-.203-.424-.098-.813-.098zm-.182-.578q.309 0 .61.078 1.219.32 2.146.335.228 0 .82-.115.277.257.277.606 0 .35-.22.592 2.33.086 2.33.278.42.535.42 1.283 0 .741-.391 1.012Q77.79 18 74.219 18q-.57 0-1.162-.057-3.307-.492-3.941-.506h-.063q-.652 0-2.39.27v-3.15l.015.014q1.49.171 2.43.193l.097.001q.896 0 1.842-.5 1.002-.712 1.935-.712zM61.797 4.99c.112 0 .223.011.335.021 1.61.172 2.753 1.802 2.5 3.382-.111 1.174-.84 1.832-1.64 2.48-2.38 1.458-1.71.921-4.11 2.136l-.385-.719c2.855-1.336 3.2-1.549 4.09-2.136.73-.587 1.306-1.235 1.256-2.217.02-.678-.385-1.377-.84-1.711a2.186 2.186 0 0 0-1.287-.435c-.344 0-.668.08-.951.283-.719.354-1.114 1.529-.587 2.268.243.354.678.597 1.113.597.213 0 .425-.06.608-.192.364-.203.638-.911.263-1.306.172-.182.415-.405.597-.405.122 0 .213.091.274.304.405.972-.243 2.075-1.215 2.338a1.83 1.83 0 0 1-.517.081c-1.113 0-2.146-.931-2.146-2.085-.101-1.347.972-2.582 2.318-2.663.102-.01.213-.02.324-.02zM28.275 7.938c.682.054 1.058.394 1.13 1.022-.09.68-.466 1.04-1.13 1.075-.663-.036-1.012-.394-1.048-1.075.053-.628.403-.968 1.048-1.022zm-.08-2.259c-.484 0-.932.09-1.345.27a3.545 3.545 0 0 0-1.828 1.815 3.11 3.11 0 0 0-.27 1.276c0 .466.09.901.27 1.304a3.422 3.422 0 0 0 3.173 2.03c.484 0 .936-.085 1.358-.255.42-.17.784-.408 1.089-.712.304-.305.546-.66.726-1.063.179-.403.269-.838.269-1.304 0-.448-.09-.874-.27-1.277a3.67 3.67 0 0 0-.725-1.075 3.302 3.302 0 0 0-1.09-.74 3.431 3.431 0 0 0-1.357-.269zm.053-.914a4.17 4.17 0 0 1 1.668.336c.52.224.968.529 1.344.914.377.386.677.834.9 1.345.225.51.337 1.062.337 1.653 0 .592-.112 1.143-.336 1.654a4.31 4.31 0 0 1-.9 1.331 4.267 4.267 0 0 1-3.013 1.237 4.071 4.071 0 0 1-1.653-.336 4.48 4.48 0 0 1-1.345-.9 4.195 4.195 0 0 1-.914-1.332A4.071 4.071 0 0 1 24 9.013c0-.591.112-1.142.336-1.653a4.358 4.358 0 0 1 2.259-2.26 4.071 4.071 0 0 1 1.653-.336z"/></svg>