<svg xmlns="http://www.w3.org/2000/svg" width="84.008" height="18"><path d="M82.361 0c.336 0 .67.026.995.066.447.113.217.626-.18.626a.476.476 0 0 1-.082-.008c-.839.097-1.872.15-2.506.626-.84.916-.463 2.821-.56 3.725-.008.05-.01 3.653-.01 5.48a6.145 6.145 0 0 1 2.634-.586c.402 0 .801.04 1.188.117.44.231-.077.528-.423.528a.454.454 0 0 1-.114-.013c-1.226.133-2.62.461-3.243 1.602-.062.206-.023.277.07.277.207 0 .68-.342.947-.342.014 0 .027 0 .04.003a7.535 7.535 0 0 1 1.58-.169c.39 0 .776.031 1.149.095.42.278-.096.534-.438.534a.532.532 0 0 1-.105-.01c-1.252.151-2.637.49-3.243 1.633-.007 1.27 0 2.11-.034 3.278.015.36-.22.538-.456.538-.235 0-.473-.176-.474-.526.008-1.15.09-2.161-.06-3.277-.305-1.253-2.478-1.445-3.827-1.754-.295-.347.285-.475.658-.475.056 0 .107.003.15.008.173-.013.347-.02.522-.02.882 0 1.77.175 2.557.58.032-.755-.712-1.19-1.244-1.493-.84-.361-1.766-.397-2.643-.59-.314-.273.18-.501.52-.501a.58.58 0 0 1 .126.012c.215-.02.431-.031.648-.031.902 0 1.804.183 2.614.582-.017-2.851-.063-5.61.019-8.308.066-.834.546-1.6 1.354-1.849C81.07.094 81.717 0 82.361 0z"/><path d="M77.646 0L75.11 2.537v.707L78.177.177 78.354 0zm3 0L75.11 5.537v.707L81.177.177 81.354 0zm3 0L75.11 8.537v.707L84.008.345V0zm.362 2.638l-8.898 8.899v.707l8.898-8.899v-.707zm0 3l-8.898 8.899v.707l8.898-8.899v-.707zm0 3l-8.898 8.899V18h.244l8.654-8.655v-.707zm0 3l-6.185 6.185-.177.177h.708l5.654-5.655v-.707zm0 3l-3.185 3.185-.177.177h.708l2.654-2.655v-.707zm0 3l-.185.185-.177.177h.362v-.362zM86.043.603l-2.035 2.035v.707l2.035-2.035V.603zm0 3l-2.035 2.035v.707l2.035-2.035v-.707zm0 3l-2.035 2.035v.707l2.035-2.035v-.707zm0 3l-2.035 2.035v.707l2.035-2.035v-.707zm0 3l-2.035 2.035v.707l2.035-2.035v-.707zm0 3l-2.035 2.035V18h.346l1.69-1.69v-.707zM58.366 2.99q-.557 0-1.086.606 4.368 5.2 5.46 5.81.815.457 1.434.457.211 0 .4-.053.74-.208 1.585-.234h.043q.828 0 1.816.988h.13q-.702-1.638-1.963-2.34-1.26-.702-7.397-5.148-.213-.085-.422-.085zM66.098.622q-.066 0-.134.01v6.683q2.054 1.196 2.834 3.354-1.196-8.268-1.677-9.204Q66.688.62 66.098.62zm5.355 10.468q.08 0 .153.138.13.247-.234.689-.208-.546-.052-.741.07-.086.133-.086zm-.036-.372q-.153 0-.33.237-.39.52.233 2.08.702-1.352.43-1.976-.15-.34-.333-.34zm-6.805 2.577v.39q.286-.026.442-.182-.052-.078-.208-.208zm-.598.884l-2.418.338-.494.884q.832-.234 1.833-.624t1.08-.598zm5.33-.364l-.468.234-.156 1.118.416 1.274h.65l-.442-1.274v-1.352zm-1.118.39l-.442.13-.156.832.416 1.274h.65l-.442-1.274-.026-.962zm-1.534.156l-.156.806.416 1.274h.65l-.442-1.274v-.78l-.468-.026zm.995-3.234q-.416 0-.89.1-1.405.3-1.769 1.418h-1.092l-.416-.676q-5.512 1.274-6.214 4.602 1.508-.832 3.172-1.118l.728-1.456 2.886-.39-.078-.702h.988q1.092.9 2.228.9.244 0 .49-.042 1.39-.234 1.82-.95.428-.714-.456-1.3-.585-.386-1.397-.386zM65.84 0q.947 0 1.488.658.663.806 1.235 4.238l.91 5.954q.442.468.676.52h.312q.026-.65.494-1.196.416-3.978-.364-6.968l.312-.598q1.118 3.38.546 7.592h.078q1.794-4.03.52-7.592l.312-.468q1.664 3.796-.364 8.242.572 1.248.117 2.054-.455.806-.559 1.508l-.182.13q-.702-1.04-.806-1.794h-.26q-.026.598-.338 1.248l-.182 1.638.442 1.274h2.262v.624h-6.526v-.624h.546l-.416-1.274-.026-.962q-.468-.156-.702-.364-.338.312-.754.312.026.26-.104.442-1.04.806-3.718 1.404l-.91 1.768q0-.434-.27-.434-.085 0-.198.044l.728-1.3q-1.508.338-2.288.858-.416.442.052 1.066-1.04-.442-1.17-1.248.416-3.926 7.046-5.46l.468.78h.416q.338-1.092 2.678-1.508-.522-.388-1.284-.388-.415 0-.9.115-.492.116-.96.116-.845 0-1.614-.376-1.196-.585-6.084-6.461.9-1.136 1.905-1.136.329 0 .67.122l6.317 4.524V.034q.236-.034.45-.034z"/><path d="M56.646 0L56.5.146v.708l.677-.677.177-.177zm3 0L56.5 3.146v.708L60.177.177 60.354 0zm3 0L56.5 6.146v.708L63.177.177 63.354 0zm3 0L56.5 9.146v.708L66.177.177 66.354 0zm3 0L56.5 12.146v.708L69.177.177 69.354 0zm3 0L56.5 15.146v.708L72.177.177 72.354 0zm1.464 1.537L56.823 17.823l-.177.177h.708L73.11 2.244v-.707zm0 3L59.823 17.823l-.177.177h.708L73.11 5.244v-.707zm0 3L62.823 17.823l-.177.177h.708l9.756-9.756v-.707zm0 3l-7.287 7.286-.177.177h.708l6.756-6.756v-.707zm0 3l-4.287 4.286-.177.177h.708l3.756-3.756v-.707zm0 3l-1.287 1.286-.177.177h.708l.756-.756v-.707zM74.646 0L73.11 1.537v.707L75.177.177l.039-.04V0zm.57 2.43L73.11 4.537v.707l2.106-2.106V2.43zm0 3L73.11 7.537v.707l2.106-2.106V5.43zm0 3l-2.106 2.107v.707l2.106-2.106V8.43zm0 3l-2.106 2.107v.707l2.106-2.106v-.708zm0 3l-2.106 2.107v.707l2.106-2.106v-.708zm0 3l-.393.393-.177.177h.57v-.57z"/><path d="M47 .375c9.625 0 9.625 17.25 0 17.25" fill="none" stroke="#000"/><path d="M2.646 0L0 2.646v.708L3.177.177 3.354 0zm3 0L0 5.646v.708L6.177.177 6.354 0zm3 0L0 8.646v.708L9.177.177 9.354 0zm3 0L0 11.646v.708L12.177.177 12.354 0zm3 0L0 14.646v.708L15.177.177 15.354 0zm3 0L0 17.646V18h.354L18.177.177 18.354 0zm3 0L2.823 17.823 2.646 18h.708L21.177.177 21.354 0zm3 0L5.823 17.823 5.646 18h.708L24.177.177 24.354 0zm3 0L8.823 17.823 8.646 18h.708L27.177.177 27.354 0zm3 0L11.823 17.823l-.177.177h.708L30.177.177 30.354 0zm3 0L14.823 17.823l-.177.177h.708L33.177.177 33.354 0zm3 0L17.823 17.823l-.177.177h.708L36.177.177 36.354 0zm3 0L20.823 17.823l-.177.177h.708L39.177.177 39.354 0zm3 0L23.823 17.823l-.177.177h.708L42.177.177 42.354 0zm3 0L26.823 17.823l-.177.177h.708L45.177.177 45.354 0zm3 0L29.823 17.823l-.177.177h.708L48.177.177 48.354 0zm3 0L32.823 17.823l-.177.177h.708L51.177.177 51.354 0zm3 0L35.823 17.823l-.177.177h.708L54.177.177 54.354 0zm.854 2.146L38.823 17.823l-.177.177h.708L54.5 2.854v-.708zm0 3L41.823 17.823l-.177.177h.708L54.5 5.854v-.708zm0 3l-9.677 9.677-.177.177h.708L54.5 8.854v-.708zm0 3l-6.677 6.677-.177.177h.708l6.146-6.146v-.708zm0 3l-3.677 3.677-.177.177h.708l3.146-3.146v-.708zm0 3l-.677.677-.177.177h.708l.146-.146v-.708z"/></svg>