<svg xmlns="http://www.w3.org/2000/svg" width="326.66" height="18"><path d="M325.013 0c.335 0 .67.026.994.066.448.113.218.626-.18.626a.476.476 0 0 1-.081-.008c-.84.097-1.872.15-2.506.626-.841.916-.463 2.821-.561 3.725-.007.05-.01 3.653-.01 5.48a6.145 6.145 0 0 1 2.634-.586c.402 0 .802.04 1.188.117.441.231-.076.528-.422.528a.454.454 0 0 1-.115-.013c-1.226.133-2.62.461-3.243 1.602-.061.206-.023.277.07.277.207 0 .68-.342.947-.342.014 0 .028 0 .04.003a7.535 7.535 0 0 1 1.58-.169 6.8 6.8 0 0 1 1.149.095c.42.278-.096.534-.438.534a.532.532 0 0 1-.105-.01c-1.251.151-2.636.49-3.243 1.633-.007 1.27 0 2.11-.033 3.278.014.36-.22.538-.456.538-.236 0-.474-.176-.475-.526.009-1.15.09-2.161-.06-3.277-.304-1.253-2.477-1.445-3.827-1.754-.295-.347.285-.475.659-.475.055 0 .106.003.15.008.172-.013.347-.02.521-.02.882 0 1.771.175 2.557.58.032-.755-.711-1.19-1.244-1.493-.84-.361-1.765-.397-2.643-.59-.313-.273.18-.501.521-.501a.58.58 0 0 1 .125.012 7.01 7.01 0 0 1 .648-.031c.902 0 1.804.183 2.614.582-.016-2.851-.063-5.61.02-8.308.065-.834.545-1.6 1.354-1.849.58-.264 1.227-.358 1.87-.358zm-17.452.59c-1.056 0-2.377.543-3.016 1.183-.56.559-.633 1.3-.653 1.99h7.307c-.02-.69-.093-1.431-.653-1.99-.64-.64-1.93-1.182-2.985-1.182zm0-.59c1.252 0 2.6.579 3.39 1.368.81.81.901 1.877.901 2.675v.31h-8.582v-.31c0-.798.06-1.865.87-2.675.79-.79 2.17-1.368 3.421-1.368zm6.214 15.612l2.02 2.388h-.985l-1.035-1.234L312.731 18l-1.015-1.234L310.67 18l-1.035-1.234L308.59 18l-1.035-1.234L306.511 18l-1.015-1.234L304.451 18l-1.045-1.234L302.391 18l-1.044-1.234L300.312 18h-.985l2.02-2.388 1.044 1.154 1.015-1.154 1.045 1.154 1.045-1.154 1.015 1.154 1.045-1.154 1.035 1.154 1.045-1.154 1.035 1.154 1.045-1.154 1.015 1.154 1.044-1.154z" fill="red"/><path d="M299.646 0l-.32.32v.707l.85-.85.178-.177zm3 0l-3.32 3.32v.707l3.85-3.85.178-.177zm3 0l-6.32 6.32v.707l6.85-6.85.178-.177zm3 0l-9 9h.708l8.823-8.823.177-.177zm3 0l-9 9h.708l8.823-8.823.177-.177zm3 0l-9 9h.708l8.823-8.823.177-.177zm3 0l-9 9h.708l8.823-8.823.177-.177zm3 0l-9 9h.708l8.823-8.823.177-.177zm3 0l-10.653 10.653v.707L324.177.177l.177-.177zm3 0l-13.653 13.653v.707L326.66.694V0zm.014 2.987l-13.667 13.666v.707L326.66 3.694v-.707zm0 3l-11.837 11.836-.177.177h.708L326.66 6.694v-.707zm0 3l-8.837 8.836-.177.177h.708l8.306-8.306v-.707zm0 3l-5.837 5.836-.177.177h.708l5.306-5.306v-.707zm0 3l-2.837 2.836-.177.177h.708l2.306-2.306v-.707z"/><path d="M295.251 1.124q-2.014.293-2.106 1.842v11.177q.942-1.124 3.382-1.58l-1.276-11.44zM295.818 0l1.509 13.363q-3.362.385-4.182 2.4V18h-1.002V2.966q0-2.51 3.675-2.966zm-7.75 1.124q-2.015.293-2.106 1.842v11.177q.942-1.124 3.381-1.58l-1.275-11.44zM288.635 0l1.508 13.363q-3.36.385-4.18 2.4V18h-1.003V2.966q0-2.51 3.675-2.966zm-11.082.597a2.12 2.12 0 0 0-.692.109c.03.223.168.569.952.773-.73-.053-1.206-.113-1.452-.307-.089.2-.137.427-.158.556a.297.297 0 0 1-.206.237c-.625.191-1.174 1.112-1.701 1.763-.95 1.173-1.77 2.48-2.687 3.733.423-.207.845-.415 1.27-.622 1.181-.622 2.394-1.11 3.406-1.877.59-.49 1.172-.996 1.391-1.641.076-.497-.296-1.074-.767-1.279a.297.297 0 1 1 .238-.545c.376.164.699.458.903.817a1.986 1.986 0 0 0-.074-.448.297.297 0 0 1-.013-.104c.01-.184.042-.313.082-.422.04-.109.085-.206.158-.459a.297.297 0 0 1 .104-.153 1.546 1.546 0 0 0-.527-.125c-.043-.003-.083-.003-.125-.004a.258.258 0 1 1-.102-.002zm-1.194 5.432c-.605.466-1.253.873-1.888 1.28.005.438-.006.879-.047 1.321.207-.135.434-.236.697-.3.391-.636.82-1.22 1.083-1.842a4.64 4.64 0 0 0 .155-.46zm.249 1c-.273.549-.621 1.04-.929 1.529.06.04.112.08.155.121l.027.027c.169-.194.375-.351.614-.454-.01-.348.047-.768.133-1.222zm-2.88.047a25.922 25.922 0 0 0-.588.297c-.78.38-1.56.772-2.35 1.148-.556.67-1.156 1.293-1.734 1.92l1.043.175 2.563-2.786a.297.297 0 0 1 .04-.036c.333-.253.678-.489 1.025-.718zm2.591 2.009c-.058.066-.112.14-.162.222a.298.298 0 0 1-.429.087c-.125-.09-.2-.177-.265-.244l-.078 1.413c.1-.006.202-.013.297-.013.166 0 .313.022.397.108.1-.078.28-.1.505-.1.057 0 .118.002.18.005l-.445-1.478zm5.419.999c-.452.062-.686.323-.704.783h1.395c0-.46-.23-.721-.691-.783zm-7.861-2.39a16.38 16.38 0 0 0-.798.56l-2.402 2.613h2.456c.17-.19.518-.365.776-.365.073 0 .139.014.191.046.082-.007.168-.01.257-.01.139 0 .285.007.433.016l.083-1.506c-.225.115-.407.282-.626.542a.297.297 0 0 1-.52-.246 9.773 9.773 0 0 0 .15-1.65zm6.24 3.745l.266.465h1.248l.253-.465zm-4.516 0v2.51l1.727-2.51zM277.545 0a3.878 3.878 0 0 1 .273.01c.694.044 1.215.325 1.407.768a.298.298 0 0 1-.34.408l-.025-.006-.03.007-.108.029c-.054.168-.096.269-.12.332a.541.541 0 0 0-.042.2c.155.552.094 1.107.037 1.389-.095.466-.384.977-.762 1.46a.295.295 0 0 1-.013.108 21.24 21.24 0 0 0-.548 2.027c-.153.708-.234 1.387-.193 1.684a.297.297 0 0 1-.223.33l-.018.005.527 1.75c.085-.013.172-.018.259-.018.256 0 .51.041.712.041a.865.865 0 0 0 .184-.016.314.314 0 0 1 .068-.007c.212 0 .656.13.787.366h1.099c.062-.797.482-1.235 1.262-1.315.788.08 1.195.518 1.222 1.315v.572h-.531l-.545 1.01h-1.767l-.531-1.01h-1.567l-2.404 3.493V18h-.572v-6.561h-4.516v-.41l-.1.109a.297.297 0 0 1-.267.092l-1.74-.292a.298.298 0 0 1-.173-.492c.217-.242.436-.48.656-.716l-1.656 1.078a.296.296 0 0 1-.412-.087.297.297 0 0 1 .087-.411l1.345-.876a.292.292 0 0 1-.076-.09.315.315 0 0 1-.02-.237c.016-.05.034-.074.047-.093.056-.076.085-.088.124-.119.04-.03.083-.06.131-.094l.3-.2a4.156 4.156 0 0 0 .217-.156l2.379-1.672.008-.005c.805-1.13 1.567-2.316 2.456-3.414.433-.535.938-1.524 1.813-1.894.048-.262.156-.68.483-.997.353-.344.864-.463 1.416-.463zm-12.754 0v1.21h-6.564V0zm0 8.32v1.21h-6.544V8.32zm0 8.47V18h-6.544v-1.21z" fill="red"/><path d="M236.646 0l-2.42 2.42v.707l2.95-2.95.178-.177zm3 0l-5.42 5.42v.707l5.95-5.95.178-.177zm3 0l-8.42 8.42v.707l8.95-8.95.178-.177zm3 0l-11.42 11.42v.707l11.95-11.95.178-.177zm3 0l-14.42 14.42v.707l14.95-14.95.178-.177zm3 0l-17.42 17.42V18h.128L252.177.177l.177-.177zm3 0l-17.823 17.823-.177.177h.708L255.177.177l.177-.177zm1.58 1.42l-16.403 16.403-.177.177h.708l15.873-15.873V1.42zm0 3l-13.403 13.403-.177.177h.708l12.873-12.873V4.42zm0 3l-10.403 10.403-.177.177h.708l9.873-9.873V7.42zm0 3l-7.403 7.403-.177.177h.708l6.873-6.873v-.707zm0 3l-4.403 4.403-.177.177h.708l3.873-3.873v-.707zm0 3l-1.403 1.403-.177.177h.708l.873-.873v-.707z"/><path d="M257.646 0l-1.42 1.42v.707l1.95-1.95.05-.05V0zm.58 2.42l-2 2v.707l2-2V2.42zm0 3l-2 2v.707l2-2V5.42zm0 3l-2 2v.707l2-2V8.42zm0 3l-2 2v.707l2-2v-.707zm0 3l-2 2v.707l2-2v-.707zm0 3l-.403.403-.177.177h.58v-.58zM212.646 0l-2.42 2.42v.707l2.95-2.95.178-.177zm3 0l-5.42 5.42v.707l5.95-5.95.178-.177zm3 0l-8.42 8.42v.707l8.95-8.95.178-.177zm3 0l-11.42 11.42v.707l11.95-11.95.178-.177zm3 0l-14.42 14.42v.707l14.95-14.95.178-.177zm3 0l-17.42 17.42V18h.128L228.177.177l.177-.177zm3 0l-17.823 17.823-.177.177h.708L231.177.177l.177-.177zm1.58 1.42l-16.403 16.403-.177.177h.708l15.873-15.873V1.42zm0 3l-13.403 13.403-.177.177h.708l12.873-12.873V4.42zm0 3l-10.403 10.403-.177.177h.708l9.873-9.873V7.42zm0 3l-7.403 7.403-.177.177h.708l6.873-6.873v-.707zm0 3l-4.403 4.403-.177.177h.708l3.873-3.873v-.707zm0 3l-1.403 1.403-.177.177h.708l.873-.873v-.707z"/><path d="M233.646 0l-1.42 1.42v.707l1.95-1.95.05-.05V0zm.58 2.42l-2 2v.707l2-2V2.42zm0 3l-2 2v.707l2-2V5.42zm0 3l-2 2v.707l2-2V8.42zm0 3l-2 2v.707l2-2v-.707zm0 3l-2 2v.707l2-2v-.707zm0 3l-.403.403-.177.177h.58v-.58zM188.646 0l-2.42 2.42v.707l2.95-2.95.178-.177zm3 0l-5.42 5.42v.707l5.95-5.95.178-.177zm3 0l-8.42 8.42v.707l8.95-8.95.178-.177zm3 0l-11.42 11.42v.707l11.95-11.95.178-.177zm3 0l-14.42 14.42v.707l14.95-14.95.178-.177zm3 0l-17.42 17.42V18h.128L204.177.177l.177-.177zm3 0l-17.823 17.823-.177.177h.708L207.177.177l.177-.177zm1.58 1.42l-16.403 16.403-.177.177h.708l15.873-15.873V1.42zm0 3l-13.403 13.403-.177.177h.708l12.873-12.873V4.42zm0 3l-10.403 10.403-.177.177h.708l9.873-9.873V7.42zm0 3l-7.403 7.403-.177.177h.708l6.873-6.873v-.707zm0 3l-4.403 4.403-.177.177h.708l3.873-3.873v-.707zm0 3l-1.403 1.403-.177.177h.708l.873-.873v-.707z"/><path d="M209.646 0l-1.42 1.42v.707l1.95-1.95.05-.05V0zm.58 2.42l-2 2v.707l2-2V2.42zm0 3l-2 2v.707l2-2V5.42zm0 3l-2 2v.707l2-2V8.42zm0 3l-2 2v.707l2-2v-.707zm0 3l-2 2v.707l2-2v-.707zm0 3l-.403.403-.177.177h.58v-.58zM184.227 5.34v7.32h-1.225V5.34zM172 2.457q-.396 0-.496.468-.159.725 1.133 1.179.272-1.315-.317-1.587-.18-.06-.32-.06zm-3.466 4.979v5.622h1.088V8.683h9.52v4.375h1.18V7.436zm1.791 1.927v6.347h8.138V9.363zm1.766-7.775q.485 0 .977.362.952.884.34 2.516l1.27 2.267h6.324v7.027h-1.86v2.652h-9.52V13.76h-1.79V6.733h5.69l-.998-1.79q-1.7-.34-1.95-1.633-.068-1.042.794-1.518.36-.204.723-.204zm-6.26 3.752v7.32h-1.225V5.34zM152.646 0l-1.04 1.04v.707l1.57-1.57.178-.177zm3 0l-4.04 4.04v.707l4.57-4.57.178-.177zm3 0l-7.04 7.04v.707l7.57-7.57.178-.177zm3 0l-10.04 10.04v.707l10.57-10.57.178-.177zm.96 2.04l-11 11v.707l11-11V2.04zm0 3l-11 11v.707l11-11V5.04zm0 3l-9.783 9.783-.177.177h.708l9.252-9.253V8.04zm0 3l-6.783 6.783-.177.177h.708l6.252-6.253v-.707zm0 3l-3.783 3.783-.177.177h.708l3.252-3.253v-.707zm0 3l-.783.783-.177.177h.708l.252-.253v-.707z"/><path d="M164.606.04l-2 2v.707l2-2V.04zm0 3l-2 2v.707l2-2V3.04zm0 3l-2 2v.707l2-2V6.04zm0 3l-2 2v.707l2-2V9.04zm0 3l-2 2v.707l2-2v-.707zm0 3l-2 2v.707l2-2v-.707zM147.96 0c.335 0 .67.026.994.066.447.113.217.626-.18.626a.476.476 0 0 1-.082-.008c-.839.097-1.872.15-2.506.626-.84.916-.463 2.821-.56 3.725-.008.05-.01 3.653-.01 5.48a6.145 6.145 0 0 1 2.634-.586c.402 0 .801.04 1.188.117.44.231-.077.528-.423.528a.454.454 0 0 1-.114-.013c-1.226.133-2.62.461-3.243 1.602-.062.206-.023.277.07.277.207 0 .68-.342.947-.342.014 0 .027 0 .04.003a7.535 7.535 0 0 1 1.58-.169c.39 0 .776.031 1.149.095.42.278-.096.534-.438.534a.532.532 0 0 1-.105-.01c-1.252.151-2.637.49-3.243 1.633-.007 1.27 0 2.11-.034 3.278.015.36-.219.538-.456.538-.235 0-.473-.176-.474-.526.008-1.15.09-2.161-.06-3.277-.305-1.253-2.478-1.445-3.827-1.754-.295-.347.285-.475.658-.475.056 0 .107.003.15.008.173-.013.347-.02.522-.02.882 0 1.77.175 2.557.58.032-.755-.712-1.19-1.244-1.493-.84-.361-1.766-.397-2.643-.59-.314-.273.18-.501.52-.501a.58.58 0 0 1 .126.012c.215-.02.431-.031.648-.031.902 0 1.804.183 2.614.582-.017-2.851-.063-5.61.019-8.308.066-.834.546-1.6 1.354-1.849.58-.264 1.227-.358 1.871-.358z"/><path d="M140.708 0v.646l.469-.47.177-.176zm2.938 0l-2.938 2.939v.707l3.469-3.47.177-.176zm3 0l-5.938 5.939v.707l6.469-6.47.177-.176zm2.96.04l-8.898 8.899v.707l8.898-8.899V.04zm0 3l-8.898 8.899v.707l8.898-8.899V3.04zm0 3l-8.898 8.899v.707l8.898-8.899V6.04zm0 3l-8.783 8.783-.115.116V18h.646l8.252-8.253V9.04zm0 3l-5.783 5.783-.177.177h.708l5.252-5.253v-.707zm0 3l-2.783 2.783-.177.177h.708l2.252-2.253v-.707z"/><path d="M149.646 0l-.04.04v.707l.57-.57.178-.177zm1.995 1.005l-2.035 2.035v.707l2.035-2.035v-.707zm0 3l-2.035 2.035v.707l2.035-2.035v-.707zm0 3l-2.035 2.035v.707l2.035-2.035v-.707zm0 3l-2.035 2.035v.707l2.035-2.035v-.707zm0 3l-2.035 2.035v.707l2.035-2.035v-.707zm0 3l-1.818 1.818-.177.177h.708l1.287-1.288v-.707zM123.965 2.99q-.557 0-1.087.606 4.368 5.2 5.46 5.81.815.457 1.434.457.211 0 .4-.053.74-.208 1.585-.234h.043q.828 0 1.816.988h.13q-.702-1.638-1.963-2.34-1.26-.702-7.397-5.148-.213-.085-.421-.085zm7.73-2.369q-.065 0-.133.01v6.683q2.054 1.196 2.834 3.354Q133.2 2.4 132.72 1.464q-.433-.843-1.023-.843zm5.356 10.468q.08 0 .154.138.13.247-.235.689-.208-.546-.052-.741.07-.086.133-.086zm-.036-.372q-.153 0-.33.237-.39.52.233 2.08.703-1.352.43-1.976-.15-.34-.333-.34zm-6.805 2.577v.39q.286-.026.442-.182-.052-.078-.208-.208zm-.598.884l-2.418.338-.494.884q.832-.234 1.833-.624t1.08-.598zm5.33-.364l-.468.234-.156 1.118.416 1.274h.65l-.442-1.274v-1.352zm-1.118.39l-.442.13-.156.832.416 1.274h.65l-.442-1.274-.026-.962zm-1.534.156l-.156.806.416 1.274h.65l-.442-1.274v-.78l-.468-.026zm.995-3.234q-.416 0-.89.1-1.405.3-1.769 1.418h-1.092l-.416-.676q-5.512 1.274-6.214 4.602 1.508-.832 3.172-1.118l.728-1.456 2.886-.39-.078-.702h.988q1.092.9 2.228.9.244 0 .49-.042 1.39-.234 1.82-.95.428-.714-.456-1.3-.585-.386-1.397-.386zM131.439 0q.948 0 1.488.658.663.806 1.235 4.238l.91 5.954q.442.468.676.52h.312q.026-.65.494-1.196.416-3.978-.364-6.968l.312-.598q1.119 3.38.547 7.592h.078q1.794-4.03.52-7.592l.312-.468q1.664 3.796-.364 8.242.572 1.248.117 2.054-.455.806-.56 1.508l-.182.13q-.702-1.04-.806-1.794h-.26q-.026.598-.338 1.248l-.182 1.638.442 1.274h2.263v.624h-6.527v-.624h.546l-.416-1.274-.026-.962q-.468-.156-.702-.364-.338.312-.754.312.026.26-.104.442-1.04.806-3.718 1.404l-.91 1.768q0-.434-.27-.434-.085 0-.198.044l.728-1.3q-1.508.338-2.288.858-.416.442.052 1.066-1.04-.442-1.17-1.248.416-3.926 7.046-5.46l.468.78h.416q.338-1.092 2.678-1.508-.522-.388-1.284-.388-.414 0-.9.115-.492.116-.96.116-.845 0-1.614-.376-1.196-.585-6.084-6.461.901-1.136 1.905-1.136.33 0 .67.122l6.317 4.524V.034q.235-.034.449-.034z"/><path d="M112.598.375c9.625 0 9.625 17.25 0 17.25" fill="none" stroke="#000"/><path d="M106.376 7.938c.682.054 1.058.394 1.13 1.022-.09.68-.466 1.04-1.13 1.075-.663-.036-1.012-.394-1.048-1.075.054-.628.403-.968 1.048-1.022zm-.08-2.259c-.484 0-.932.09-1.345.27a3.545 3.545 0 0 0-1.828 1.815 3.11 3.11 0 0 0-.269 1.276c0 .466.09.901.269 1.304a3.422 3.422 0 0 0 3.173 2.03c.484 0 .936-.085 1.358-.255.421-.17.784-.408 1.089-.712.304-.305.546-.66.726-1.063.179-.403.269-.838.269-1.304 0-.448-.09-.874-.27-1.277a3.67 3.67 0 0 0-.725-1.075 3.302 3.302 0 0 0-1.09-.74 3.431 3.431 0 0 0-1.357-.269zm.054-.914a4.17 4.17 0 0 1 1.667.336c.52.224.968.529 1.344.914.377.386.677.834.901 1.345.224.51.336 1.062.336 1.653 0 .592-.112 1.143-.336 1.654a4.31 4.31 0 0 1-.9 1.331 4.267 4.267 0 0 1-3.012 1.237 4.071 4.071 0 0 1-1.654-.336 4.48 4.48 0 0 1-1.345-.9 4.195 4.195 0 0 1-.914-1.332 4.071 4.071 0 0 1-.336-1.654c0-.591.112-1.142.336-1.653a4.358 4.358 0 0 1 2.259-2.259 4.071 4.071 0 0 1 1.654-.336zM80.646 0l-2.545 2.545v.707L81.177.177 81.354 0zm3 0l-5.545 5.545v.707L84.177.177 84.354 0zm3 0l-8.545 8.545v.707L87.177.177 87.354 0zm3 0L78.101 11.545v.707L90.177.177 90.354 0zm3 0L78.101 14.545v.707L93.177.177 93.354 0zm3 0L78.101 17.545V18h.253L96.177.177 96.354 0zm3 0L80.823 17.823l-.177.177h.708L99.177.177 99.354 0zm1.455 1.545L83.823 17.823l-.177.177h.708L100.1 2.252v-.707zm0 3L86.823 17.823l-.177.177h.708L100.1 5.252v-.707zm0 3L89.823 17.823l-.177.177h.708l9.747-9.748v-.707zm0 3l-7.278 7.278-.177.177h.708l6.747-6.748v-.707zm0 3l-4.278 4.278-.177.177h.708l3.747-3.748v-.707zm0 3l-1.278 1.278-.177.177h.708l.747-.748v-.707zM71.703 5.44l.064 7.024 3.701.064.032-7.056-3.797-.031zm-.632-.6l5.03.031-.032 8.29-4.903-.096-.095-8.225zm-8.621-.112l.445 1.012q-.952.192-1.357 1.913L60 7.26v.961l1.499.426q-.01 1.417.273 2.662.294 1.246 1.326 1.61.517.177 1.038.177.522 0 1.048-.177 1.053-.364 1.336-1.61.294-1.245.264-2.662l1.498-.426V7.26l-1.529.394q-.405-1.72-1.367-1.913l.466-1.012zm4.11-.71q.364 0 .05.71l-.273.617q.81.517 1.013 1.428l1.72-.517v2.562l-1.62.465q0 1.458-.414 2.916-.426 1.458-2.886 1.782-2.46-.324-2.895-1.782-.425-1.458-.425-2.916l-1.62-.465V6.256l1.741.517q.203-.911 1.012-1.428l-.273-.617q-.324-.71.05-.71zM57.21 5.34v7.32h-1.225V5.34z"/><path d="M46.297.375v17.25M53.985.375c-9.625 0-9.625 17.25 0 17.25m0 0" fill="none" stroke="#000"/><path d="M38.328.597a2.12 2.12 0 0 0-.692.109c.03.223.168.569.952.773-.73-.053-1.206-.113-1.452-.307-.089.2-.137.427-.158.556a.297.297 0 0 1-.206.237c-.625.191-1.174 1.112-1.701 1.763-.95 1.173-1.77 2.48-2.687 3.733.422-.207.845-.415 1.27-.622 1.181-.622 2.394-1.11 3.406-1.877.589-.49 1.172-.996 1.391-1.641.076-.497-.297-1.074-.767-1.279a.297.297 0 1 1 .237-.545c.377.164.7.458.904.817a1.986 1.986 0 0 0-.074-.448.297.297 0 0 1-.013-.104c.01-.184.041-.313.082-.422.04-.109.085-.206.158-.459a.297.297 0 0 1 .104-.153 1.546 1.546 0 0 0-.527-.125C38.512.6 38.47.6 38.43.599a.258.258 0 1 1-.102-.002zm-1.194 5.432c-.605.466-1.253.873-1.888 1.28.005.438-.006.879-.047 1.321.207-.135.434-.236.697-.3.391-.636.82-1.22 1.082-1.842.055-.129.106-.29.156-.46zm.249 1c-.273.549-.622 1.04-.929 1.529.06.04.112.08.155.121l.027.027c.169-.194.375-.351.614-.454-.01-.348.047-.768.133-1.222zm-2.88.047a25.922 25.922 0 0 0-.589.297c-.78.38-1.56.772-2.349 1.148-.556.67-1.156 1.293-1.734 1.92l1.043.175 2.563-2.786a.297.297 0 0 1 .04-.036c.332-.253.677-.489 1.025-.718zm2.591 2.009c-.058.066-.112.14-.162.222a.298.298 0 0 1-.429.087c-.125-.09-.2-.177-.265-.244l-.078 1.413c.1-.006.202-.013.297-.013.166 0 .313.022.397.108.1-.078.28-.1.504-.1.058 0 .118.002.181.005l-.445-1.478zm5.419.999c-.452.062-.686.323-.704.783h1.394c0-.46-.23-.721-.69-.783zm-7.861-2.39a16.38 16.38 0 0 0-.798.56l-2.403 2.613h2.457c.17-.19.518-.365.776-.365.073 0 .139.014.191.046.082-.007.168-.01.257-.01.139 0 .285.007.433.016l.083-1.506c-.225.115-.407.282-.626.542a.297.297 0 0 1-.52-.246 9.773 9.773 0 0 0 .15-1.65zm6.24 3.745l.266.465h1.248l.253-.465zm-4.516 0v2.51l1.727-2.51zM38.32 0a3.878 3.878 0 0 1 .273.01c.694.044 1.215.325 1.407.768a.298.298 0 0 1-.34.408l-.025-.006-.03.007-.108.029c-.054.168-.096.269-.12.332a.541.541 0 0 0-.042.2c.155.552.094 1.107.037 1.389-.096.466-.384.977-.762 1.46a.295.295 0 0 1-.014.108 21.85 21.85 0 0 0-.548 2.027c-.152.708-.233 1.387-.192 1.684a.297.297 0 0 1-.223.33l-.018.005.527 1.75c.085-.013.172-.018.259-.018.256 0 .51.041.712.041a.865.865 0 0 0 .184-.016.314.314 0 0 1 .068-.007c.212 0 .656.13.787.366h1.099c.062-.797.482-1.235 1.262-1.315.788.08 1.195.518 1.222 1.315v.572h-.532l-.544 1.01h-1.767l-.531-1.01h-1.567l-2.404 3.493V18h-.572v-6.561h-4.516v-.41l-.1.109a.297.297 0 0 1-.267.092l-1.74-.292a.298.298 0 0 1-.173-.492c.217-.242.436-.48.656-.716l-1.656 1.078a.296.296 0 0 1-.412-.087.297.297 0 0 1 .087-.411l1.345-.876a.292.292 0 0 1-.077-.09.315.315 0 0 1-.019-.237.287.287 0 0 1 .047-.093c.056-.076.084-.088.124-.119.04-.03.083-.06.131-.094.095-.065.206-.137.3-.2a4.156 4.156 0 0 0 .217-.156l2.378-1.672.009-.005c.805-1.13 1.567-2.316 2.456-3.414.433-.535.938-1.524 1.813-1.894.048-.262.156-.68.483-.997C37.257.119 37.768 0 38.32 0zM20.583.885q-3.632.442 0 6.73 3.633-6.288 0-6.73zm0-.885q5.03.35.699 8.08h4.284v1.095h-4.238V18h-1.443V9.128H15.6V8.08h4.285Q15.553.326 20.583 0zM10.307 2.582C10.062 4.372 9.802 6.207 9.62 8a90.748 90.748 0 0 0-.27 3.413c-.061.951-.092 1.67-.06 2.005.068.7.253 1.107.45 1.318a.75.75 0 0 0 .568.24.72.72 0 0 0 .569-.24c.2-.21.411-.617.479-1.318.032-.334.002-1.054-.06-2.005a97.244 97.244 0 0 0-.3-3.413c-.183-1.794-.443-3.628-.688-5.418zM10.33 0c.022 0 .045.003.067.008a.287.287 0 0 1 .09.06.287.287 0 0 1 .06.06c.029.034.05.075.06.12.004.025-.005.063 0 .09.345 2.222.7 5.084.957 7.603.13 1.273.238 2.45.3 3.412.062.962.1 1.7.06 2.125-.076.788-.316 1.319-.629 1.647a1.373 1.373 0 0 1-.988.449 1.39 1.39 0 0 1-.988-.45c-.305-.326-.523-.858-.598-1.646-.041-.425-.033-1.163.03-2.125.062-.962.169-2.139.299-3.412a155.7 155.7 0 0 1 .988-7.604c.004-.026-.004-.064 0-.09a.287.287 0 0 1 .15-.21A.287.287 0 0 1 10.33 0zm2.701 14.496c-.062.034-.158.035-.21.09-.123.133-.22.322-.299.569-.078.247-.15.545-.21.808-.059.263-.11.505-.239.718-.087.144-.218.238-.359.33-.14.091-.3.165-.479.24-.24.099-.493.135-.748.179h2.544v-2.934zm-5.807 0v2.934h2.544c-.255-.044-.508-.08-.748-.18-.178-.074-.368-.148-.509-.24a.974.974 0 0 1-.33-.329c-.127-.213-.179-.455-.239-.718-.06-.263-.131-.561-.21-.808-.077-.247-.175-.436-.299-.57-.05-.054-.147-.055-.21-.089zm6.151-.692c.015 0 .03.001.045.004a.287.287 0 0 1 .09.06c.05.047.083.11.09.18v3.681a.3.3 0 0 1 0 .06.287.287 0 0 1-.27.21H6.926a.288.288 0 0 1-.06 0 .287.287 0 0 1-.21-.27v-3.652a.287.287 0 0 1 .03-.12.287.287 0 0 1 .06-.09.287.287 0 0 1 .18-.06c.384 0 .712.158.928.39.215.231.357.519.449.808.09.289.122.556.18.808.056.252.125.48.179.569.002.003.077.083.18.15.101.066.237.116.389.18.302.125.664.209.898.209.233 0 .595-.084.898-.21.15-.063.287-.113.389-.18.102-.066.177-.146.18-.149.053-.089.092-.317.149-.569.057-.252.118-.519.21-.808.09-.289.233-.577.449-.808.215-.232.543-.39.928-.39a.287.287 0 0 1 .044-.003zM2.333 0q2.322 0 2.322 2.232V18H3.584V2.232q0-1.16-1.251-1.16-1.262 0-1.262 1.16v10.492H0V2.232Q0 0 2.333 0z"/></svg>