<svg xmlns="http://www.w3.org/2000/svg" width="343.017" height="18"><path d="M323.646 0l-2.63 2.63v.707l3.16-3.16.178-.177zm3 0l-5.63 5.63v.707l6.16-6.16.178-.177zm3 0l-8.63 8.63v.707l9.16-9.16.178-.177zm3 0l-11.63 11.63v.707l12.16-12.16.178-.177zm3 0l-14.63 14.63v.707l15.16-15.16.178-.177zm3 0l-17.63 17.63V18h.338L339.177.177l.177-.177zm3 0l-17.823 17.823-.177.177h.708L342.177.177l.177-.177zm1.37 1.63l-16.193 16.193-.177.177h.708l15.663-15.663V1.63zm0 3l-13.193 13.193-.177.177h.708l12.663-12.663V4.63zm0 3l-10.193 10.193-.177.177h.708l9.663-9.663V7.63zm0 3l-7.193 7.193-.177.177h.708l6.663-6.663v-.707zm0 3l-4.193 4.193-.177.177h.708l3.663-3.663v-.707zm0 3l-1.193 1.193-.177.177h.708l.663-.663v-.707z"/><path d="M344.646 0l-1.63 1.63v.707l2-2V0zm.37 2.63l-2 2v.707l2-2V2.63zm0 3l-2 2v.707l2-2V5.63zm0 3l-2 2v.707l2-2V8.63zm0 3l-2 2v.707l2-2v-.707zm0 3l-2 2v.707l2-2v-.707zm0 3l-.193.193-.177.177h.37v-.37zM299.646 0l-2.63 2.63v.707l3.16-3.16.178-.177zm3 0l-5.63 5.63v.707l6.16-6.16.178-.177zm3 0l-8.63 8.63v.707l9.16-9.16.178-.177zm3 0l-11.63 11.63v.707l12.16-12.16.178-.177zm3 0l-14.63 14.63v.707l15.16-15.16.178-.177zm3 0l-17.63 17.63V18h.338L315.177.177l.177-.177zm3 0l-17.823 17.823-.177.177h.708L318.177.177l.177-.177zm1.37 1.63l-16.193 16.193-.177.177h.708l15.663-15.663V1.63zm0 3l-13.193 13.193-.177.177h.708l12.663-12.663V4.63zm0 3l-10.193 10.193-.177.177h.708l9.663-9.663V7.63zm0 3l-7.193 7.193-.177.177h.708l6.663-6.663v-.707zm0 3l-4.193 4.193-.177.177h.708l3.663-3.663v-.707zm0 3l-1.193 1.193-.177.177h.708l.663-.663v-.707z"/><path d="M320.646 0l-1.63 1.63v.707l2-2V0zm.37 2.63l-2 2v.707l2-2V2.63zm0 3l-2 2v.707l2-2V5.63zm0 3l-2 2v.707l2-2V8.63zm0 3l-2 2v.707l2-2v-.707zm0 3l-2 2v.707l2-2v-.707zm0 3l-.193.193-.177.177h.37v-.37zM275.646 0l-2.63 2.63v.707l3.16-3.16.178-.177zm3 0l-5.63 5.63v.707l6.16-6.16.178-.177zm3 0l-8.63 8.63v.707l9.16-9.16.178-.177zm3 0l-11.63 11.63v.707l12.16-12.16.178-.177zm3 0l-14.63 14.63v.707l15.16-15.16.178-.177zm3 0l-17.63 17.63V18h.338L291.177.177l.177-.177zm3 0l-17.823 17.823-.177.177h.708L294.177.177l.177-.177zm1.37 1.63l-16.193 16.193-.177.177h.708l15.663-15.663V1.63zm0 3l-13.193 13.193-.177.177h.708l12.663-12.663V4.63zm0 3l-10.193 10.193-.177.177h.708l9.663-9.663V7.63zm0 3l-7.193 7.193-.177.177h.708l6.663-6.663v-.707zm0 3l-4.193 4.193-.177.177h.708l3.663-3.663v-.707zm0 3l-1.193 1.193-.177.177h.708l.663-.663v-.707z"/><path d="M296.646 0l-1.63 1.63v.707l2-2V0zm.37 2.63l-2 2v.707l2-2V2.63zm0 3l-2 2v.707l2-2V5.63zm0 3l-2 2v.707l2-2V8.63zm0 3l-2 2v.707l2-2v-.707zm0 3l-2 2v.707l2-2v-.707zm0 3l-.193.193-.177.177h.37v-.37zM269.37 0c.335 0 .67.026.994.066.447.113.218.626-.18.626a.476.476 0 0 1-.082-.008c-.839.097-1.872.15-2.506.626-.84.916-.463 2.821-.56 3.725-.008.05-.01 3.653-.01 5.48a6.145 6.145 0 0 1 2.634-.586c.402 0 .802.04 1.188.117.44.231-.077.528-.423.528a.454.454 0 0 1-.114-.013c-1.226.133-2.62.461-3.243 1.602-.062.206-.023.277.07.277.207 0 .68-.342.947-.342.014 0 .027 0 .04.003a7.535 7.535 0 0 1 1.58-.169c.39 0 .776.031 1.149.095.42.278-.096.534-.438.534a.532.532 0 0 1-.105-.01c-1.252.151-2.637.49-3.243 1.633-.007 1.27 0 2.11-.034 3.278.015.36-.219.538-.456.538-.235 0-.473-.176-.474-.526.008-1.15.09-2.161-.06-3.277-.305-1.253-2.478-1.445-3.827-1.754-.295-.347.285-.475.658-.475.056 0 .107.003.15.008.173-.013.347-.02.522-.02.882 0 1.77.175 2.557.58.032-.755-.712-1.19-1.244-1.493-.84-.361-1.766-.397-2.643-.59-.314-.273.18-.501.52-.501a.58.58 0 0 1 .126.012c.215-.02.431-.031.648-.031.902 0 1.804.183 2.614.582-.017-2.851-.063-5.61.019-8.308.066-.834.546-1.6 1.354-1.849C268.08.094 268.725 0 269.37 0zm-23.995 2.99q-.557 0-1.087.606 4.368 5.2 5.46 5.81.815.457 1.434.457.211 0 .4-.053.74-.208 1.585-.234h.043q.828 0 1.816.988h.13q-.702-1.638-1.963-2.34-1.26-.702-7.397-5.148-.212-.085-.421-.085zm7.73-2.369q-.065 0-.133.01v6.683q2.054 1.196 2.835 3.354-1.197-8.268-1.678-9.204-.432-.843-1.023-.843zm5.356 10.468q.08 0 .154.138.13.247-.234.689-.208-.546-.052-.741.068-.086.132-.086zm-.036-.372q-.153 0-.33.237-.39.52.234 2.08.702-1.352.429-1.976-.15-.34-.333-.34zm-6.805 2.577v.39q.286-.026.442-.182-.052-.078-.208-.208zm-.598.884l-2.418.338-.494.884q.832-.234 1.833-.624t1.08-.598zm5.33-.364l-.467.234-.156 1.118.416 1.274h.65l-.442-1.274v-1.352zm-1.118.39l-.442.13-.156.832.416 1.274h.65l-.442-1.274-.026-.962zm-1.534.156l-.156.806.416 1.274h.65l-.442-1.274v-.78l-.468-.026zm.995-3.234q-.416 0-.89.1-1.405.3-1.769 1.418h-1.092l-.416-.676q-5.512 1.274-6.214 4.602 1.508-.832 3.172-1.118l.728-1.456 2.886-.39-.078-.702h.988q1.092.9 2.229.9.243 0 .488-.042 1.392-.234 1.82-.95.43-.714-.454-1.3-.585-.386-1.398-.386zM252.849 0q.948 0 1.488.658.663.806 1.236 4.238l.91 5.954q.442.468.676.52h.312q.026-.65.494-1.196.416-3.978-.364-6.968l.312-.598q1.118 3.38.546 7.592h.078q1.794-4.03.52-7.592l.312-.468q1.664 3.796-.364 8.242.572 1.248.117 2.054-.455.806-.56 1.508l-.181.13q-.702-1.04-.806-1.794h-.26q-.026.598-.338 1.248l-.182 1.638.442 1.274h2.262v.624h-6.527v-.624h.546l-.416-1.274-.026-.962q-.468-.156-.702-.364-.338.312-.754.312.026.26-.104.442-1.04.806-3.718 1.404l-.91 1.768q0-.434-.27-.434-.085 0-.198.044l.728-1.3q-1.508.338-2.288.858-.416.442.052 1.066-1.04-.442-1.17-1.248.416-3.926 7.046-5.46l.468.78h.416q.338-1.092 2.678-1.508-.522-.388-1.284-.388-.414 0-.9.115-.492.116-.96.116-.845 0-1.614-.376-1.196-.585-6.084-6.461.901-1.136 1.905-1.136.33 0 .67.122L252.4 7.08V.034q.235-.034.45-.034zm-12.772.589c-.06 0-.076.012-.089.027a.455.455 0 0 0-.07.195c-.026.122-.039.26-.06.39a1.61 1.61 0 0 1-.128.462c-.079.16-.153.329-.232.501h1.159c-.08-.172-.153-.341-.232-.501a1.61 1.61 0 0 1-.129-.461c-.02-.132-.034-.269-.059-.391a.455.455 0 0 0-.07-.195c-.013-.015-.029-.027-.09-.027zm-.662 2.164c.418.992.538 2.236.551 3.319.016 1.302-.137 2.597-.288 3.892-.147 1.27-.292 2.538-.262 3.812.015.64.169 1.6.367 2.393.098.393.206.744.313.994.017.038.033.074.049.106a2.29 2.29 0 0 0 .037-.094c.094-.25.184-.6.263-.993.162-.798.279-1.761.294-2.406.03-1.274-.115-2.543-.262-3.812-.151-1.295-.304-2.59-.288-3.892.013-1.083.133-2.327.55-3.319zm.73 14.516zm.104.169zm-.197.003zM240.077 0c.236 0 .418.09.542.239.1.12.16.278.195.453.027.133.043.278.064.42.017.106.036.21.076.29.151.308.283.653.473.982l.081.142-.077.144c-.513.954-.64 2.284-.653 3.409-.016 1.277.136 2.547.284 3.817.15 1.297.297 2.592.266 3.894-.016.68-.137 1.677-.305 2.51a7.533 7.533 0 0 1-.29 1.082c-.058.155-.12.283-.184.377a.659.659 0 0 1-.141.152.42.42 0 0 1-.254.089.427.427 0 0 1-.252-.086.692.692 0 0 1-.144-.146 1.855 1.855 0 0 1-.203-.373 7.514 7.514 0 0 1-.344-1.083c-.208-.836-.368-1.838-.384-2.522-.03-1.302.115-2.597.266-3.894.148-1.27.3-2.54.284-3.817-.013-1.125-.14-2.455-.653-3.409l-.077-.144.081-.142c.19-.329.322-.674.473-.981.04-.082.06-.185.076-.291.021-.142.036-.287.064-.42.036-.175.095-.334.195-.453a.676.676 0 0 1 .541-.239zm-4.431 2.196q.12 0 .288.147.662.89.713 2.544-.204 1.298-.916 3.665.254 1.908.381 5.242.102 1.12-.61 1.45-2.112.56-5.344.56-3.257 0-5.344-.56-.738-.33-.636-1.45.127-3.334.381-5.242-.712-2.367-.916-3.665.051-1.654.713-2.544.168-.147.288-.147.171 0 .246.3-.178.508-.33.992-.204.61-.153 1.145.05.865.165 1.412.115.547.471.547l.037.002q.6 0 .6-1.605 0-.585-.154-1.425.132-.223.283-.223.142 0 .303.198.076.61.102 1.348.101 1.12-.535 3.156.23 2.875.23 5.75 1.73.28 4.249.357 2.494-.076 4.224-.356 0-2.876.229-5.751-.636-2.036-.534-3.156.025-.738.101-1.348.16-.198.303-.198.152 0 .283.223-.153.84-.153 1.425 0 1.605.599 1.605l.037-.002q.356 0 .47-.547.115-.547.166-1.412.051-.535-.152-1.145-.153-.484-.331-.993.075-.299.246-.299zM221.643 5.34v7.32h-1.225V5.34z"/><path d="M210.73.375v17.25m7.688-17.25c-9.625 0-9.625 17.25 0 17.25m0 0" fill="none" stroke="#000"/><path d="M202.761.597a2.12 2.12 0 0 0-.692.109c.031.223.169.569.953.773-.73-.053-1.206-.113-1.452-.307-.09.2-.137.427-.158.556a.297.297 0 0 1-.207.237c-.624.191-1.173 1.112-1.7 1.763-.95 1.173-1.771 2.48-2.688 3.733l1.27-.622c1.182-.622 2.395-1.11 3.407-1.877.589-.49 1.172-.996 1.39-1.641.076-.497-.296-1.074-.767-1.279a.297.297 0 1 1 .238-.545c.377.164.7.458.904.817a1.986 1.986 0 0 0-.075-.448.297.297 0 0 1-.012-.104c.01-.184.041-.313.082-.422.04-.109.085-.206.157-.459a.297.297 0 0 1 .105-.153 1.546 1.546 0 0 0-.527-.125c-.043-.003-.084-.003-.125-.004a.258.258 0 1 1-.103-.002zm-1.193 5.432c-.606.466-1.253.873-1.888 1.28a13 13 0 0 1-.047 1.321c.207-.135.434-.236.697-.3.39-.636.82-1.22 1.082-1.842.054-.129.105-.29.156-.46zm.248 1c-.273.549-.62 1.04-.928 1.529.059.04.112.08.155.121l.027.027a1.72 1.72 0 0 1 .613-.454c-.01-.348.047-.768.133-1.222zm-2.88.047a25.922 25.922 0 0 0-.588.297c-.78.38-1.56.772-2.349 1.148-.556.67-1.157 1.293-1.735 1.92l1.044.175 2.562-2.786a.297.297 0 0 1 .04-.036 18.5 18.5 0 0 1 1.026-.718zm2.592 2.009c-.058.066-.112.14-.162.222a.298.298 0 0 1-.429.087c-.125-.09-.2-.177-.266-.244l-.077 1.413c.1-.006.201-.013.296-.013.167 0 .314.022.398.108.1-.078.28-.1.504-.1.058 0 .118.002.18.005l-.444-1.478zm5.418.999c-.451.062-.686.323-.703.783h1.394c0-.46-.23-.721-.69-.783zm-7.86-2.39a16.38 16.38 0 0 0-.798.56l-2.403 2.613h2.456c.171-.19.519-.365.776-.365.074 0 .14.014.192.046.082-.007.168-.01.256-.01.14 0 .286.007.434.016l.082-1.506c-.224.115-.407.282-.625.542a.297.297 0 0 1-.52-.246c.1-.544.142-1.093.15-1.65zm6.24 3.745l.266.465h1.248l.253-.465zm-4.516 0v2.51l1.727-2.51zM202.754 0a3.878 3.878 0 0 1 .272.01c.695.044 1.215.325 1.408.768a.298.298 0 0 1-.34.408l-.025-.006-.03.007-.108.029c-.055.168-.096.269-.12.332a.541.541 0 0 0-.042.2c.154.552.094 1.107.036 1.389-.095.466-.384.977-.76 1.46a.295.295 0 0 1-.015.108 21.24 21.24 0 0 0-.548 2.027c-.152.708-.233 1.387-.192 1.684a.297.297 0 0 1-.223.33l-.019.005.527 1.75c.086-.013.173-.018.26-.018.256 0 .509.041.712.041a.865.865 0 0 0 .183-.016.314.314 0 0 1 .068-.007c.212 0 .657.13.787.366h1.1c.062-.797.482-1.235 1.261-1.315.788.08 1.196.518 1.222 1.315v.572h-.53l-.545 1.01h-1.767l-.531-1.01h-1.568l-2.404 3.493V18h-.571v-6.561h-4.516v-.41l-.1.109a.297.297 0 0 1-.268.092l-1.74-.292a.298.298 0 0 1-.172-.492c.216-.242.436-.48.656-.716l-1.657 1.078a.296.296 0 0 1-.411-.087.297.297 0 0 1 .087-.411l1.344-.876a.292.292 0 0 1-.076-.09.315.315 0 0 1-.02-.237.305.305 0 0 1 .048-.093c.055-.076.084-.088.124-.119l.13-.094c.096-.065.207-.137.301-.2a4.156 4.156 0 0 0 .217-.156l2.378-1.672.008-.005c.806-1.13 1.568-2.316 2.457-3.414.433-.535.938-1.524 1.812-1.894.048-.262.157-.68.484-.997.353-.344.863-.463 1.416-.463zM168 0v.354l.177-.177.177-.177zm2.646 0L168 2.646v.708l3.177-3.177.177-.177zm3 0L168 5.646v.708l6.177-6.177.177-.177zm3 0L168 8.646v.708l9.177-9.177.177-.177zm3 0L168 11.646v.708L180.177.177l.177-.177zm3 0L168 14.646v.708L183.177.177l.177-.177zm3 0L168 17.646V18h.354L186.177.177l.177-.177zm3 0l-17.823 17.823-.177.177h.708L189.177.177l.177-.177zM190 1.646l-16.177 16.177-.177.177h.708L190 2.354v-.708zm0 3l-13.177 13.177-.177.177h.708L190 5.354v-.708zm0 3l-10.177 10.177-.177.177h.708L190 8.354v-.708zm0 3l-7.177 7.177-.177.177h.708L190 11.354v-.708zm0 3l-4.177 4.177-.177.177h.708L190 14.354v-.708zm0 3l-1.177 1.177-.177.177h.708l.646-.646v-.708z"/><path d="M191.646 0L190 1.646v.708l2-2V0zM192 2.646l-2 2v.708l2-2v-.708zm0 3l-2 2v.708l2-2v-.708zm0 3l-2 2v.708l2-2v-.708zm0 3l-2 2v.708l2-2v-.708zm0 3l-2 2v.708l2-2v-.708zM144 0v.354l.177-.177.177-.177zm2.646 0L144 2.646v.708l3.177-3.177.177-.177zm3 0L144 5.646v.708l6.177-6.177.177-.177zm3 0L144 8.646v.708l9.177-9.177.177-.177zm3 0L144 11.646v.708L156.177.177l.177-.177zm3 0L144 14.646v.708L159.177.177l.177-.177zm3 0L144 17.646V18h.354L162.177.177l.177-.177zm3 0l-17.823 17.823-.177.177h.708L165.177.177l.177-.177zM166 1.646l-16.177 16.177-.177.177h.708L166 2.354v-.708zm0 3l-13.177 13.177-.177.177h.708L166 5.354v-.708zm0 3l-10.177 10.177-.177.177h.708L166 8.354v-.708zm0 3l-7.177 7.177-.177.177h.708L166 11.354v-.708zm0 3l-4.177 4.177-.177.177h.708L166 14.354v-.708zm0 3l-1.177 1.177-.177.177h.708l.646-.646v-.708zM167.646 0L166 1.646v.708l2-2V0zM168 2.646l-2 2v.708l2-2v-.708zm0 3l-2 2v.708l2-2v-.708zm0 3l-2 2v.708l2-2v-.708zm0 3l-2 2v.708l2-2v-.708zm0 3l-2 2v.708l2-2v-.708zM120 0v.354l.177-.177.177-.177zm2.646 0L120 2.646v.708l3.177-3.177.177-.177zm3 0L120 5.646v.708l6.177-6.177.177-.177zm3 0L120 8.646v.708l9.177-9.177.177-.177zm3 0L120 11.646v.708L132.177.177l.177-.177zm3 0L120 14.646v.708L135.177.177l.177-.177zm3 0L120 17.646V18h.354L138.177.177l.177-.177zm3 0l-17.823 17.823-.177.177h.708L141.177.177l.177-.177zM142 1.646l-16.177 16.177-.177.177h.708L142 2.354v-.708zm0 3l-13.177 13.177-.177.177h.708L142 5.354v-.708zm0 3l-10.177 10.177-.177.177h.708L142 8.354v-.708zm0 3l-7.177 7.177-.177.177h.708L142 11.354v-.708zm0 3l-4.177 4.177-.177.177h.708L142 14.354v-.708zm0 3l-1.177 1.177-.177.177h.708l.646-.646v-.708zM143.646 0L142 1.646v.708l2-2V0zM144 2.646l-2 2v.708l2-2v-.708zm0 3l-2 2v.708l2-2v-.708zm0 3l-2 2v.708l2-2v-.708zm0 3l-2 2v.708l2-2v-.708zm0 3l-2 2v.708l2-2v-.708zM96 0v.354l.177-.177.177-.177zm2.646 0L96 2.646v.708L99.177.177 99.354 0zm3 0L96 5.646v.708l6.177-6.177.177-.177zm3 0L96 8.646v.708l9.177-9.177.177-.177zm3 0L96 11.646v.708L108.177.177l.177-.177zm3 0L96 14.646v.708L111.177.177l.177-.177zm3 0L96 17.646V18h.354L114.177.177l.177-.177zm3 0L98.823 17.823l-.177.177h.708L117.177.177l.177-.177zM118 1.646l-16.177 16.177-.177.177h.708L118 2.354v-.708zm0 3l-13.177 13.177-.177.177h.708L118 5.354v-.708zm0 3l-10.177 10.177-.177.177h.708L118 8.354v-.708zm0 3l-7.177 7.177-.177.177h.708L118 11.354v-.708zm0 3l-4.177 4.177-.177.177h.708L118 14.354v-.708zm0 3l-1.177 1.177-.177.177h.708l.646-.646v-.708zM119.646 0L118 1.646v.708l2-2V0zM120 2.646l-2 2v.708l2-2v-.708zm0 3l-2 2v.708l2-2v-.708zm0 3l-2 2v.708l2-2v-.708zm0 3l-2 2v.708l2-2v-.708zm0 3l-2 2v.708l2-2v-.708zM72 0v.354l.177-.177.177-.177zm2.646 0L72 2.646v.708L75.177.177 75.354 0zm3 0L72 5.646v.708L78.177.177 78.354 0zm3 0L72 8.646v.708L81.177.177 81.354 0zm3 0L72 11.646v.708L84.177.177 84.354 0zm3 0L72 14.646v.708L87.177.177 87.354 0zm3 0L72 17.646V18h.354L90.177.177 90.354 0zm3 0L74.823 17.823l-.177.177h.708L93.177.177 93.354 0zM94 1.646L77.823 17.823l-.177.177h.708L94 2.354v-.708zm0 3L80.823 17.823l-.177.177h.708L94 5.354v-.708zm0 3L83.823 17.823l-.177.177h.708L94 8.354v-.708zm0 3l-7.177 7.177-.177.177h.708L94 11.354v-.708zm0 3l-4.177 4.177-.177.177h.708L94 14.354v-.708zm0 3l-1.177 1.177-.177.177h.708l.646-.646v-.708zM95.646 0L94 1.646v.708l2-2V0zM96 2.646l-2 2v.708l2-2v-.708zm0 3l-2 2v.708l2-2v-.708zm0 3l-2 2v.708l2-2v-.708zm0 3l-2 2v.708l2-2v-.708zm0 3l-2 2v.708l2-2v-.708zM48 0v.354l.177-.177.177-.177zm2.646 0L48 2.646v.708L51.177.177 51.354 0zm3 0L48 5.646v.708L54.177.177 54.354 0zm3 0L48 8.646v.708L57.177.177 57.354 0zM48 9.354zM59.646 0L48 11.646v.708L60.177.177 60.354 0zm3 0L48 14.646v.708L63.177.177 63.354 0zm3 0L48 17.646V18h.354L66.177.177 66.354 0zm3 0L50.823 17.823l-.177.177h.708L69.177.177 69.354 0zM70 1.646L53.823 17.823l-.177.177h.708L70 2.354v-.708zm0 3L56.823 17.823l-.177.177h.708L70 5.354v-.708zm0 3L59.823 17.823l-.177.177h.708L70 8.354v-.708zm0 3l-7.177 7.177-.177.177h.708L70 11.354v-.708zm0 3l-4.177 4.177-.177.177h.708L70 14.354v-.708zm0 3l-1.177 1.177-.177.177h.708l.646-.646v-.708zM71.646 0L70 1.646v.708l2-2V0zM72 2.646l-2 2v.708l2-2v-.708zm0 3l-2 2v.708l2-2v-.708zm0 3l-2 2v.708l2-2v-.708zm0 3l-2 2v.708l2-2v-.708zm0 3l-2 2v.708l2-2v-.708zM43.885 0c.772 0 1.545.455 1.9 1.356.307.782.2 2.27.2 3.144h-.525c0-.685.08-2.012-.113-2.619-.248-.782-.858-1.193-1.47-1.193-.547 0-1.096.33-1.384 1.02-.268.641-.176 2.055-.176 2.792h-.524c0-.875-.108-2.36.2-3.144C42.352.449 43.119 0 43.886 0zm-6.066 0c.773 0 1.545.455 1.9 1.356.308.782.2 2.27.2 3.144h-.524c0-.685.08-2.012-.113-2.619-.248-.782-.859-1.193-1.47-1.193-.548 0-1.096.33-1.384 1.02-.269.641-.177 2.055-.177 2.792h-.523c0-.875-.108-2.36.2-3.144C36.285.449 37.052 0 37.82 0zm-5.647 0c.773 0 1.545.455 1.9 1.356.308.782.2 2.27.2 3.144h-.524c0-.685.08-2.012-.113-2.619-.249-.782-.859-1.193-1.47-1.193-.548 0-1.096.33-1.384 1.02-.269.641-.177 2.055-.177 2.792h-.523c0-.875-.108-2.36.2-3.144C30.638.449 31.405 0 32.172 0zm-6.065 0c.772 0 1.545.455 1.9 1.356.308.782.2 2.27.2 3.144h-.525c0-.685.08-2.012-.113-2.619-.248-.782-.858-1.193-1.47-1.193-.547 0-1.096.33-1.384 1.02-.268.641-.176 2.055-.176 2.792h-.523c0-.875-.109-2.36.2-3.144C24.573.449 25.34 0 26.107 0zm15.699 12.947c.867 0 1.734.51 2.133 1.522.346.879.224 2.55.224 3.531h-.588c0-.77.09-2.26-.127-2.941-.279-.879-.964-1.34-1.65-1.34-.616 0-1.232.371-1.555 1.146-.301.72-.198 2.307-.198 3.135h-.587c0-.983-.122-2.651.224-3.53.401-1.019 1.262-1.523 2.124-1.523zm-6.81 0c.867 0 1.734.51 2.132 1.522.346.879.225 2.55.225 3.531h-.589c0-.77.09-2.26-.126-2.941-.28-.879-.965-1.34-1.65-1.34-.616 0-1.232.371-1.555 1.146-.302.72-.198 2.307-.198 3.135h-.588c0-.983-.121-2.651.225-3.53.4-1.019 1.262-1.523 2.123-1.523zm-6.811 0c.867 0 1.734.51 2.133 1.522.346.879.224 2.55.224 3.531h-.588c0-.77.09-2.26-.127-2.941-.279-.879-.964-1.34-1.65-1.34-.616 0-1.231.371-1.555 1.146-.301.72-.198 2.307-.198 3.135h-.587c0-.983-.122-2.651.224-3.53.401-1.019 1.262-1.523 2.124-1.523zM0 0v.354L.177.177.354 0zm2.646 0L0 2.646v.708L3.177.177 3.354 0zm3 0L0 5.646v.708L6.177.177 6.354 0zm3 0L0 8.646v.708L9.177.177 9.354 0zm3 0L0 11.646v.708L12.177.177 12.354 0zm3 0L0 14.646v.708L15.177.177 15.354 0zm3 0L0 17.646V18h.354L18.177.177 18.354 0zm3 0L2.823 17.823 2.646 18h.708L21.177.177 21.354 0zM22 1.646L5.823 17.823 5.646 18h.708L22 2.354v-.708zm0 3L8.823 17.823 8.646 18h.708L22 5.354v-.708zm0 3L11.823 17.823l-.177.177h.708L22 8.354v-.708zm0 3l-7.177 7.177-.177.177h.708L22 11.354v-.708zm0 3l-4.177 4.177-.177.177h.708L22 14.354v-.708zm0 3l-1.177 1.177-.177.177h.708l.646-.646v-.708z"/></svg>