<svg xmlns="http://www.w3.org/2000/svg" width="75.206" height="18"><path d="M73.559 0c.335 0 .67.026.994.066.448.113.218.626-.18.626a.476.476 0 0 1-.081-.008c-.84.097-1.872.15-2.506.626-.841.916-.463 2.821-.561 3.725-.007.05-.01 3.653-.01 5.48a6.145 6.145 0 0 1 2.634-.586c.402 0 .802.04 1.188.117.441.231-.077.528-.423.528a.454.454 0 0 1-.114-.013c-1.226.133-2.62.461-3.243 1.602-.062.206-.023.277.07.277.207 0 .68-.342.947-.342.014 0 .028 0 .04.003a7.535 7.535 0 0 1 1.58-.169 6.8 6.8 0 0 1 1.149.095c.42.278-.096.534-.438.534a.532.532 0 0 1-.105-.01c-1.251.151-2.636.49-3.243 1.633-.007 1.27 0 2.11-.034 3.278.015.36-.219.538-.456.538-.235 0-.473-.176-.474-.526.009-1.15.09-2.161-.06-3.277-.305-1.253-2.478-1.445-3.827-1.754-.295-.347.285-.475.658-.475.056 0 .107.003.15.008.173-.013.347-.02.522-.02.882 0 1.771.175 2.557.58.032-.755-.711-1.19-1.244-1.493-.84-.361-1.766-.397-2.643-.59-.313-.273.18-.501.521-.501a.58.58 0 0 1 .125.012 7.01 7.01 0 0 1 .648-.031c.902 0 1.804.183 2.614.582-.016-2.851-.063-5.61.02-8.308.065-.834.545-1.6 1.354-1.849.58-.264 1.227-.358 1.87-.358zM49.665 2.99q-.557 0-1.087.606 4.368 5.2 5.46 5.81.815.457 1.434.457.211 0 .4-.053.74-.208 1.586-.234h.042q.828 0 1.817.988h.13q-.702-1.638-1.963-2.34-1.262-.702-7.398-5.148-.212-.085-.421-.085zm7.73-2.369q-.065 0-.133.01v6.683q2.055 1.196 2.835 3.354Q58.9 2.4 58.42 1.464 57.987.62 57.396.62zm5.356 10.468q.081 0 .154.138.13.247-.234.689-.208-.546-.052-.741.068-.086.132-.086zm-.036-.372q-.153 0-.33.237-.39.52.234 2.08.702-1.352.429-1.976-.15-.34-.333-.34zm-6.805 2.577v.39q.286-.026.442-.182-.052-.078-.208-.208zm-.598.884l-2.418.338-.494.884q.832-.234 1.833-.624t1.08-.598zm5.33-.364l-.467.234-.156 1.118.416 1.274h.65l-.442-1.274v-1.352zm-1.117.39l-.442.13-.156.832.416 1.274h.65l-.442-1.274-.026-.962zm-1.534.156l-.156.806.416 1.274h.65l-.442-1.274v-.78l-.468-.026zm.994-3.234q-.416 0-.89.1-1.405.3-1.769 1.418h-1.092l-.416-.676q-5.512 1.274-6.214 4.602 1.508-.832 3.172-1.118l.728-1.456 2.886-.39-.078-.702h.988q1.093.9 2.229.9.243 0 .489-.042 1.39-.234 1.82-.95.429-.714-.455-1.3-.585-.386-1.398-.386zM57.139 0q.948 0 1.489.658.663.806 1.235 4.238l.91 5.954q.442.468.676.52h.312q.026-.65.494-1.196.416-3.978-.364-6.968l.312-.598q1.118 3.38.546 7.592h.078q1.794-4.03.52-7.592l.312-.468q1.664 3.796-.364 8.242.572 1.248.117 2.054-.455.806-.56 1.508l-.181.13q-.702-1.04-.806-1.794h-.26q-.026.598-.338 1.248l-.182 1.638.442 1.274h2.262v.624h-6.527v-.624h.547l-.416-1.274-.026-.962q-.469-.156-.703-.364-.338.312-.754.312.026.26-.104.442-1.04.806-3.718 1.404l-.91 1.768q0-.434-.269-.434-.086 0-.199.044l.728-1.3q-1.508.338-2.288.858-.416.442.052 1.066-1.04-.442-1.17-1.248.416-3.926 7.046-5.46l.468.78h.416q.338-1.092 2.679-1.508-.523-.388-1.285-.388-.414 0-.9.115-.492.116-.96.116-.845 0-1.614-.376-1.196-.585-6.084-6.461.901-1.136 1.905-1.136.33 0 .67.122L56.69 7.08V.034Q56.925 0 57.14 0z"/><path d="M0 0v.354L.177.177.354 0zm2.646 0L0 2.646v.708L3.177.177 3.354 0zm3 0L0 5.646v.708L6.177.177 6.354 0zm3 0L0 8.646v.708L9.177.177 9.354 0zm3 0L0 11.646v.708L12.177.177 12.354 0zm3 0L0 14.646v.708L15.177.177 15.354 0zm3 0L0 17.646V18h.354L18.177.177 18.354 0zm3 0L2.823 17.823 2.646 18h.708L21.177.177 21.354 0zm3 0L5.823 17.823 5.646 18h.708L24.177.177 24.354 0zm3 0L8.823 17.823 8.646 18h.708L27.177.177 27.354 0zm3 0L11.823 17.823l-.177.177h.708L30.177.177 30.354 0zm3 0L14.823 17.823l-.177.177h.708L33.177.177 33.354 0zm3 0L17.823 17.823l-.177.177h.708L36.177.177 36.354 0zm3 0L20.823 17.823l-.177.177h.708L39.177.177 39.354 0zm3 0L23.823 17.823l-.177.177h.708L42.177.177 42.354 0zm3 0L26.823 17.823l-.177.177h.708L45.177.177 45.354 0zm3 0L29.823 17.823l-.177.177h.708L48.177.177 48.354 0zm3 0L32.823 17.823l-.177.177h.708L51.177.177 51.354 0zm3 0L35.823 17.823l-.177.177h.708L54.177.177 54.354 0zm3 0L38.823 17.823l-.177.177h.708L57.177.177 57.354 0zm3 0L41.823 17.823l-.177.177h.708L60.177.177 60.354 0zm3 0L44.823 17.823l-.177.177h.708L63.177.177 63.354 0zm3 0L47.823 17.823l-.177.177h.708L66.177.177 66.354 0zm3 0L50.823 17.823l-.177.177h.708L69.177.177 69.354 0zm3 0L53.823 17.823l-.177.177h.708L72.177.177 72.354 0zm3 0L56.823 17.823l-.177.177h.708L75.177.177l.029-.03V0zm.56 2.44L59.823 17.824l-.177.177h.708L75.206 3.148V2.44zm0 3L62.823 17.824l-.177.177h.708L75.206 6.148V5.44zm0 3l-9.383 9.383-.177.177h.708l8.852-8.852V8.44zm0 3l-6.383 6.383-.177.177h.708l5.852-5.852v-.707zm0 3l-3.383 3.383-.177.177h.708l2.852-2.852v-.707zm0 3l-.383.383-.177.177h.56v-.56z"/></svg>