<svg xmlns="http://www.w3.org/2000/svg" width="235.576" height="18"><path d="M233.93 0c.335 0 .67.026.994.066.447.113.217.626-.18.626a.476.476 0 0 1-.082-.008c-.839.097-1.872.15-2.506.626-.84.916-.463 2.821-.56 3.725-.008.05-.01 3.653-.01 5.48a6.145 6.145 0 0 1 2.634-.586c.402 0 .801.04 1.188.117.44.231-.077.528-.423.528a.454.454 0 0 1-.114-.013c-1.226.133-2.62.461-3.243 1.602-.062.206-.023.277.07.277.207 0 .68-.342.947-.342.014 0 .027 0 .04.003a7.535 7.535 0 0 1 1.58-.169c.39 0 .776.031 1.149.095.42.278-.096.534-.438.534a.532.532 0 0 1-.105-.01c-1.252.151-2.637.49-3.243 1.633-.007 1.27 0 2.11-.034 3.278.015.36-.22.538-.456.538-.235 0-.473-.176-.474-.526.008-1.15.09-2.161-.06-3.277-.305-1.253-2.478-1.445-3.827-1.754-.295-.347.285-.475.658-.475.056 0 .107.003.15.008.173-.013.347-.02.522-.02.882 0 1.77.175 2.557.58.032-.755-.712-1.19-1.244-1.493-.84-.361-1.766-.397-2.643-.59-.314-.273.18-.501.52-.501a.58.58 0 0 1 .126.012c.215-.02.431-.031.648-.031.902 0 1.804.183 2.614.582-.017-2.851-.063-5.61.019-8.308.066-.834.546-1.6 1.354-1.849.58-.264 1.227-.358 1.871-.358zm-23.996 2.99q-.556 0-1.086.606 4.368 5.2 5.46 5.81.815.457 1.434.457.211 0 .4-.053.74-.208 1.585-.234h.043q.828 0 1.816.988h.13q-.702-1.638-1.963-2.34-1.26-.702-7.397-5.148-.213-.085-.422-.085zm7.732-2.369q-.066 0-.134.01v6.683q2.054 1.196 2.834 3.354-1.196-8.268-1.677-9.204-.433-.843-1.023-.843zm5.355 10.468q.08 0 .153.138.13.247-.234.689-.208-.546-.052-.741.07-.086.133-.086zm-.036-.372q-.153 0-.33.237-.39.52.233 2.08.702-1.352.43-1.976-.15-.34-.333-.34zm-6.805 2.577v.39q.286-.026.442-.182-.052-.078-.208-.208zm-.598.884l-2.418.338-.494.884q.832-.234 1.833-.624t1.08-.598zm5.33-.364l-.468.234-.156 1.118.416 1.274h.65l-.442-1.274v-1.352zm-1.118.39l-.442.13-.156.832.416 1.274h.65l-.442-1.274-.026-.962zm-1.534.156l-.156.806.416 1.274h.65l-.442-1.274v-.78l-.468-.026zm.995-3.234q-.416 0-.89.1-1.405.3-1.769 1.418h-1.092l-.416-.676q-5.512 1.274-6.214 4.602 1.508-.832 3.172-1.118l.728-1.456 2.886-.39-.078-.702h.988q1.092.9 2.228.9.244 0 .49-.042 1.39-.234 1.82-.95.428-.714-.456-1.3-.585-.386-1.397-.386zM217.409 0q.947 0 1.488.658.663.806 1.235 4.238l.91 5.954q.442.468.676.52h.312q.026-.65.494-1.196.416-3.978-.364-6.968l.312-.598q1.118 3.38.546 7.592h.078q1.794-4.03.52-7.592l.312-.468q1.664 3.796-.364 8.242.572 1.248.117 2.054-.455.806-.559 1.508l-.182.13q-.702-1.04-.806-1.794h-.26q-.026.598-.338 1.248l-.182 1.638.442 1.274h2.262v.624h-6.526v-.624h.546l-.416-1.274-.026-.962q-.468-.156-.702-.364-.338.312-.754.312.026.26-.104.442-1.04.806-3.718 1.404l-.91 1.768q0-.434-.27-.434-.085 0-.198.044l.728-1.3q-1.508.338-2.288.858-.416.442.052 1.066-1.04-.442-1.17-1.248.416-3.926 7.046-5.46l.468.78h.416q.338-1.092 2.678-1.508-.522-.388-1.284-.388-.415 0-.9.115-.492.116-.96.116-.845 0-1.614-.376-1.196-.585-6.084-6.461.9-1.136 1.905-1.136.33 0 .67.122l6.317 4.524V.034q.235-.034.449-.034z"/><path d="M198.568.375c9.625 0 9.625 17.25 0 17.25" fill="none" stroke="#000"/><path d="M194.245 0q2.323 0 2.323 2.232V18h-1.071V2.232q0-1.16-1.252-1.16-1.261 0-1.261 1.16v10.492h-1.071V2.232q0-2.232 2.332-2.232zm-26.332 0v.44l.264-.263.177-.177zm2.733 0l-2.733 2.734v.707l3.264-3.264.177-.177zm3 0l-5.733 5.734v.707l6.264-6.264.177-.177zm3 0l-8.733 8.734v.707l9.264-9.264.177-.177zm3 0l-11.733 11.734v.707L180.177.177l.177-.177zm3 0l-14.733 14.734v.707L183.177.177l.177-.177zm3 0l-17.733 17.734V18h.44L186.178.177l.177-.177zm3 0l-17.823 17.823-.177.177h.708L189.177.177l.177-.177zm1.267 1.734l-16.09 16.09-.177.176h.708l15.559-15.56v-.706zm0 3l-13.09 13.09-.177.176h.708l12.559-12.56v-.706zm0 3l-10.09 10.09-.177.176h.708l9.559-9.56v-.706zm0 3l-7.09 7.09-.177.176h.708l6.559-6.56v-.706zm0 3l-4.09 4.09-.177.176h.708l3.559-3.56v-.706zm0 3l-1.09 1.09-.177.176h.708l.559-.56v-.706zM163.79 1.353q.14 0 .177.146 0 .15-.157.15-.026 0-.057-.004-.214-.03-.525-.107.389-.175.544-.185h.018zm.119-.204q-.273.039-.798.175-.195.39-.331.39-.156 0-.253-.118-.052-.037-.089-.037-.058 0-.076.096-.03.155.262.486-.02.837-.408 1.498.272-.175.438-.175.165 0 .262.098 0-.312.04-.7.215-.23.473-.23.114 0 .236.044.146.054.241.054.165 0 .178-.16.097-.195.058-.37.039-.195.214-.273l-.447-.778zm-.905-.779q-.477 0-1.022.224t-.564 1.06q-.02.954-.02 1.713v2.646h.312V3.678q.525-.68.545-1.44-.273-.389-.234-.7.039-.292.311-.302h.042q.241 0 .367.107.058-.272.487-.37.544-.116.486-.136-.233-.467-.71-.467zm-.349 3.865q-.06 0-.128.008-.33.078-.311.408-.078 1.518.097 2.841-.428 1.09-.097 1.966.214 1.303.155 3.989l.02 3.19q-.273.78.039.838h1.926q-.895-.39-1.46-1.11-.155-.739-.077-1.926.078-1.187.613-4.378t-.321-5.468q-.034-.358-.456-.358zM162.957 0q.804 0 1.03.507.233.525.505.875.253.37.331.545 0 .078-.058.136-.175.078-.214.214-.059.467-.088.604-.029.136-.243.194l.292 1.031q.35.117.136.331-.084.084-.168.084-.13 0-.26-.2l-.564-1.246q-.049-.068-.141-.068-.093 0-.23.068l.06.837h.019q.33.467.33.74.74 2.218.429 4.407-.312 2.189-.604 4.144-.291 1.956-.214 2.637.292.837 1.888 1.557.72.175.72.603h-3.97q-.467-.292-.058-1.401v-5.624q0-1.109-.195-1.342-.37-1.051.117-2.14l-.156-.935h-.661V3.29q0-1.226.02-1.751.019-.525.262-.944.243-.418 1.625-.593l.06-.001zm-4.069 9.337V18h-.723v-7.923h-7.67v7.15l2.96.016.017-4.861h.757V18h-4.475V9.337zm-17.527-.979c-1.36 1.528-2.485 3.271-3.488 5.042-.211.26.026.498.2.745.661-2.1 2.183-3.719 3.288-5.787zm1.316-7.71c-.113.528.096 1.139.497 1.319l-.128.273c-.501-.238-.983-.95-1.055-1.591-.684.04-.87.556-.978 1.154-.128.408.002 1.4-.516 1.571-1.529.592-2.698 1.277-3.747 2.312-1.81 2.264-3.703 4.457-5.513 6.724-.703.882-1.347 1.69-1.869 2.3 2.75-2.056 5.821-3.628 8.835-5.262 1.602-.87 3.13-1.582 3.13-3.498 0-1.03-1.898-1.894-1.82-2.028.007-.011.029-.017.063-.017.39 0 2.385.74 2.385 2.3 0 .432-.115.833-.316 1.207h.009c2.188-1.16 1.84-3.506 1.756-5.574.91-.05 1.659-.547 2.522-.753-.67-.087-1.337-.199-2.009-.268a.533.533 0 0 1 .318.2c.01.221-.238.318-.482.318-.237 0-.468-.092-.446-.252a.61.61 0 0 1 .52-.276c-.333-.047-.778-.118-1.156-.16zm-3.822 13.303c-.196.476-.298.98-.409 1.48-.319-.257-.628-.523-.89-.838.171.926.489 1.86 1.26 1.86.467 0 .683-.315.384-1.271-.141-.45-.253-.882-.345-1.231zm.838-4.584c-3.121 1.662-6.211 3.34-9.163 5.292-.695.563-1.314 1.191-1.734 1.778.279.432.808.58 1.298.613 2.498-.087 3.476-2.495 4.795-4.216l.718-.872-.124 1.117c-.008.202-.214 1.153.093 1.153a.228.228 0 0 0 .09-.021l1.262-1.512c.135.09.263.19.402.273.626-1.267 1.543-2.447 2.363-3.605zM142.386 0c.656 0 1.328.118 1.965.177.76.37 1.53.088 2.326.378.576.258.737.782.975 1.306a2.939 2.939 0 0 0-.938-.16c-.929 0-1.676.468-2.658.717.002.493.08 1.052.116 1.615.152 1.526-.652 2.865-1.814 3.818-.833 1.855-1.985 3.277-2.826 4.724.1.65.705 3.103 1.003 3.983.584.098 1.208.154 1.82.154a9.337 9.337 0 0 0 .79-.032c.473 0 .993.808 1.503 1.24l-10.362.08c.264-.934 2.106-1.43 2.76-1.43.037 0 .071.002.1.005-.23-.66-.519-1.281-.6-2.204-.29.259-.614.539-1.019.568-.495-.037-.696-.375-.758-.816-1.122 1.854-2.375 3.368-4.675 3.591-.795-.039-1.785-.386-2-1.231-1.054-.06-.281-1.087.11-1.489 2.869-3.105 5.237-6.65 8.071-9.778 1.092-1.077 2.325-1.805 3.851-2.41.114-.278.151-.675.225-1.112.08-.477.335-1.257.8-1.5A3.556 3.556 0 0 1 142.386 0zm-36.858 12.17q-.442 0-.442.464v3.556h1.347l-.442-3.746q-.021-.273-.463-.273zm-.021-.568q1.073 0 1.136.61.442 3.978.947 4l9.765.357 1.01-.042q1.137-1.2 2.02-1.2l.653-.042q1.789.337 2.146.337.253 0 .253.337 0 .463-.716.463-1.228-.196-1.884-.196-.12 0-.22.006-.358 0-.59.295.411.508 1.838.508.11 0 .225-.003 1.62-.042 2.862-.421.61 0 .61.716-.063.652-4.566.673l-2-.21-11.406-.064-3.199.043v-5.135q.021-1.032 1.116-1.032zM104.646 0l-.255.255v.707l.786-.785.177-.177zm3 0l-3.255 3.255v.707l3.786-3.785.177-.177zm3 0l-6.255 6.255v.707l6.786-6.785.177-.177zm3 0l-8.823 8.823-.177.177h.708l8.823-8.823.177-.177zm3 0l-8.823 8.823-.177.177h.708l8.823-8.823.177-.177zm3 0l-8.823 8.823-.177.177h.708l8.823-8.823.177-.177zm3 0l-8.823 8.823-.177.177h.708l8.823-8.823.177-.177zm2.917.084l-8.74 8.74-.177.176h.708l8.209-8.209V.084zm0 3l-5.74 5.74-.177.176h.708l5.209-5.209v-.707zm0 3l-2.74 2.74-.177.176h.708l2.209-2.209v-.707zM96.867 18.048c-2.597 0-2.597-3.896 0-3.896 2.598 0 2.598 3.896 0 3.896z"/><path d="M92.646 0l-1.255 1.255v.707L93.177.177 93.354 0zm3 0l-4.255 4.255v.707L96.177.177 96.354 0zm3 0l-7.255 7.255v.707L99.177.177 99.354 0zm3 0L91.391 10.255v.707L102.177.177l.177-.177zm.745 2.255l-11 11v.707l11-11v-.707zm0 3l-11 11v.707l11-11v-.707zm0 3l-9.568 9.568-.177.177h.708l9.037-9.038v-.707zm0 3l-6.568 6.568-.177.177h.708l6.037-6.038v-.707zm0 3l-3.568 3.568-.177.177h.708l3.037-3.038v-.707zm0 3l-.568.568-.177.177h.708l.037-.038v-.707zm2-17l-2 2v.707l2-2V.255zm0 3l-2 2v.707l2-2v-.707zm0 3l-2 2v.707l2-2v-.707zm0 3l-2 2v.707l2-2v-.707zm0 3l-2 2v.707l2-2v-.707zm0 3l-2 2v.707l2-2v-.707zM68.646 0l-1.255 1.255v.707L69.177.177 69.354 0zm3 0l-4.255 4.255v.707L72.177.177 72.354 0zm3 0l-7.255 7.255v.707L75.177.177 75.354 0zm3 0L67.391 10.255v.707L78.177.177 78.354 0zm3 0L67.391 13.255v.707L81.177.177 81.354 0zm3 0L67.391 16.255v.707L84.177.177 84.354 0zm3 0L68.823 17.823l-.177.177h.708L87.177.177 87.354 0zm2.745.255L71.823 17.823l-.177.177h.708L89.39.962V.255zm0 3L74.823 17.823l-.177.177h.708L89.39 3.962v-.707zm0 3L77.823 17.823l-.177.177h.708L89.39 6.962v-.707zm0 3l-8.568 8.568-.177.177h.708l8.037-8.038v-.707zm0 3l-5.568 5.568-.177.177h.708l5.037-5.038v-.707zm0 3l-2.568 2.568-.177.177h.708l2.037-2.038v-.707zM89.646 0l-.255.255v.707l.786-.785.177-.177zm1.745 1.255l-2 2v.707l2-2v-.707zm0 3l-2 2v.707l2-2v-.707zm0 3l-2 2v.707l2-2v-.707zm0 3l-2 2v.707l2-2v-.707zm0 3l-2 2v.707l2-2v-.707zm0 3l-1.568 1.568-.177.177h.708l1.037-1.038v-.707zM60.442 1.343q.088.166.198.364l.188 1.091q0 .573-.188 1.07-.198.43-.496.771 1.995-.364 3.594-.54-1.003-.595-1.577-1.323-.584-.727-1.72-1.433zm-4.707-.088q-.606.044-2.04.915-1.433.86-2.954 1.422 1.114.066 2.425.474 1.323.397 2.778.595-.231-.275-.463-.782-.22-.508-.22-1.08 0-.585.21-1.092.11-.243.264-.452zm2.319-.508q-.38 0-.732.155-.375.155-.661.42-.287.253-.463.616-.144.364-.166.783-.022.419.133.783.165.364.419.65.264.298.628.463.364.154.783.165l.054.001q.378 0 .728-.144.375-.154.662-.408.275-.253.44-.617.155-.364.177-.794 0-.408-.154-.771-.144-.364-.397-.65-.265-.298-.629-.442-.363-.198-.771-.21h-.051zm.06-.747q.722 0 1.424.153 1.521.33 3.086 1.973 1.566 1.631 2.745 1.742l.022.771q-2.678.232-5.258.706-.964.177-2.03.177-1.782 0-3.845-.497-3.285-.794-4.167-.96h-1.455v-.947h1.499q1.07-.364 2.866-1.444Q54.787.594 56.407.208 57.274 0 58.115 0zm5.222 15.57L65.391 18H64.39l-1.053-1.255L62.273 18l-1.033-1.255L60.177 18l-1.053-1.255L58.061 18l-1.053-1.255L55.945 18l-1.032-1.255L53.85 18l-1.063-1.255L51.754 18l-1.063-1.255L49.638 18h-1.002l2.055-2.43 1.063 1.175 1.033-1.175 1.063 1.175 1.063-1.175 1.032 1.175 1.063-1.175 1.053 1.175 1.063-1.175 1.053 1.175 1.063-1.175 1.033 1.175 1.063-1.175zM44.569 8.13q-.999 0-2.265 1.421-.977 1.088-2.647 1.088-.614 0-1.321-.146-2.643-.547-4.435-.577-.254-.006-.5-.006-1.475 0-2.638.208-1.357.233-2.44.942-1.083.718-2.065.718.198.012.393.012 1.3 0 2.472-.528.876-.392 2.888-.392 1.057 0 2.427.109 2.467.194 4.058.194.975 0 1.622-.073 1.7-.192 2.53-1.377.685-.976 1.066-.976.082 0 .15.045.394.263 1.042.273h.032q.62 0 .728-.395.02-.465-1.003-.536-.047-.004-.094-.004zm-1.455-2.365q.79 0 1.236 1.792.098-.012.201-.012.172 0 .355.032.628-1.61 1.408-1.61.273 0 .314.192.04.183-.112.385-.719.567-.962 1.185.74.364.74.941-.071.87-.962.962-.25.026-.465.026-.546 0-.852-.168-.119-.065-.23-.065-.288 0-.529.43-.344.607-1.306 1.306-.874.644-3.614.644-.274 0-.567-.006-3.26-.02-5.123-.173-.5-.043-.956-.043-1.257 0-2.193.327-.91.325-3.279.325-.947 0-2.127-.052-.05 0-.091-.202 0-.608 1.296-.608 1.772-.06 2.308-.506.537-.455 1.792-1.043 1.266-.597 3.746-.597t5.052.597q.798.183 1.459.183 1.47 0 2.267-.901 1.154-1.306 1.75-1.418 0-.425-.435-.931-.435-.496-.405-.75.02-.242.283-.242zM0 0v.354L.177.177.354 0zm2.646 0L0 2.646v.708L3.177.177 3.354 0zm3 0L0 5.646v.708L6.177.177 6.354 0zm3 0L0 8.646v.708L9.177.177 9.354 0zm3 0L0 11.646v.708L12.177.177 12.354 0zm3 0L0 14.646v.708L15.177.177 15.354 0zm3 0L0 17.646V18h.354L18.177.177 18.354 0zm3 0L2.823 17.823 2.646 18h.708L21.177.177 21.354 0zM22 1.646L5.823 17.823 5.646 18h.708L22 2.354v-.708zm0 3L8.823 17.823 8.646 18h.708L22 5.354v-.708zm0 3L11.823 17.823l-.177.177h.708L22 8.354v-.708zm0 3l-7.177 7.177-.177.177h.708L22 11.354v-.708zm0 3l-4.177 4.177-.177.177h.708L22 14.354v-.708zm0 3l-1.177 1.177-.177.177h.708l.646-.646v-.708z"/></svg>