<svg xmlns="http://www.w3.org/2000/svg" width="130.269" height="18"><path d="M128.622 0c.336 0 .67.026.995.066.447.113.217.626-.18.626a.476.476 0 0 1-.082-.008c-.839.097-1.872.15-2.506.626-.84.916-.463 2.821-.56 3.725-.008.05-.01 3.653-.01 5.48a6.145 6.145 0 0 1 2.634-.586c.402 0 .801.04 1.188.117.44.231-.077.528-.423.528a.454.454 0 0 1-.114-.013c-1.226.133-2.62.461-3.243 1.602-.062.206-.023.277.07.277.207 0 .68-.342.947-.342.014 0 .027 0 .04.003a7.535 7.535 0 0 1 1.58-.169c.39 0 .776.031 1.149.095.42.278-.096.534-.438.534a.532.532 0 0 1-.105-.01c-1.252.151-2.637.49-3.243 1.633-.007 1.27 0 2.11-.034 3.278.015.36-.219.538-.456.538-.235 0-.473-.176-.474-.526.008-1.15.09-2.161-.06-3.277-.305-1.253-2.478-1.445-3.827-1.754-.295-.347.285-.475.658-.475.056 0 .107.003.15.008.173-.013.347-.02.522-.02.882 0 1.77.175 2.557.58.032-.755-.712-1.19-1.244-1.493-.84-.361-1.766-.397-2.643-.59-.314-.273.18-.501.52-.501a.58.58 0 0 1 .126.012c.215-.02.431-.031.648-.031.902 0 1.804.183 2.614.582-.017-2.851-.063-5.61.019-8.308.066-.834.546-1.6 1.354-1.849.58-.264 1.227-.358 1.871-.358z"/><path d="M122.646 0l-1.275 1.276v.707l1.806-1.806.177-.177zm3 0l-4.275 4.276v.707l4.806-4.806.177-.177zm3 0l-7.275 7.276v.707l7.806-7.806.177-.177zm1.623 1.377l-8.898 8.899v.707l8.898-8.899v-.707zm0 3l-8.898 8.899v.707l8.898-8.899v-.707zm0 3l-8.898 8.899v.707l8.898-8.899v-.707zm0 3l-7.446 7.446-.177.177h.708l6.915-6.916v-.707zm0 3l-4.446 4.446-.177.177h.708l3.915-3.916v-.707zm0 3l-1.446 1.446-.177.177h.708l.915-.916v-.707z"/><path d="M131.646 0l-1.377 1.377v.707l1.908-1.907.127-.128V0zm.658 2.342l-2.035 2.035v.707l2.035-2.035v-.707zm0 3l-2.035 2.035v.707l2.035-2.035v-.707zm0 3l-2.035 2.035v.707l2.035-2.035v-.707zm0 3l-2.035 2.035v.707l2.035-2.035v-.707zm0 3l-2.035 2.035v.707l2.035-2.035v-.707zm0 3l-.48.481-.178.177h.658v-.658zM104.628 2.99q-.557 0-1.087.606 4.368 5.2 5.46 5.81.815.457 1.434.457.211 0 .4-.053.74-.208 1.585-.234h.043q.828 0 1.816.988h.13q-.702-1.638-1.963-2.34-1.26-.702-7.397-5.148-.213-.085-.421-.085zm7.73-2.369q-.065 0-.133.01v6.683q2.054 1.196 2.834 3.354-1.196-8.268-1.677-9.204Q112.95.62 112.36.62zm5.356 10.468q.08 0 .153.138.13.247-.234.689-.208-.546-.052-.741.07-.086.133-.086zm-.036-.372q-.153 0-.33.237-.39.52.233 2.08.703-1.352.43-1.976-.15-.34-.333-.34zm-6.805 2.577v.39q.286-.026.442-.182-.052-.078-.208-.208zm-.598.884l-2.418.338-.494.884q.832-.234 1.833-.624t1.08-.598zm5.33-.364l-.468.234-.156 1.118.416 1.274h.65l-.442-1.274v-1.352zm-1.118.39l-.442.13-.156.832.416 1.274h.65l-.442-1.274-.026-.962zm-1.534.156l-.156.806.416 1.274h.65l-.442-1.274v-.78l-.468-.026zm.995-3.234q-.416 0-.89.1-1.405.3-1.769 1.418h-1.092l-.416-.676q-5.512 1.274-6.214 4.602 1.508-.832 3.172-1.118l.728-1.456 2.886-.39-.078-.702h.988q1.092.9 2.228.9.244 0 .49-.042 1.39-.234 1.82-.95.428-.714-.456-1.3-.585-.386-1.397-.386zM112.102 0q.948 0 1.488.658.663.806 1.235 4.238l.91 5.954q.442.468.676.52h.312q.026-.65.494-1.196.416-3.978-.364-6.968l.312-.598q1.119 3.38.546 7.592h.078q1.795-4.03.52-7.592l.313-.468q1.664 3.796-.364 8.242.572 1.248.117 2.054-.456.806-.56 1.508l-.182.13q-.702-1.04-.806-1.794h-.26q-.026.598-.338 1.248l-.182 1.638.442 1.274h2.263v.624h-6.527v-.624h.546l-.416-1.274-.026-.962q-.468-.156-.702-.364-.338.312-.754.312.026.26-.104.442-1.04.806-3.718 1.404l-.91 1.768q0-.434-.27-.434-.085 0-.198.044l.728-1.3q-1.508.338-2.288.858-.416.442.052 1.066-1.04-.442-1.17-1.248.416-3.926 7.046-5.46l.468.78h.416q.338-1.092 2.678-1.508-.522-.388-1.284-.388-.414 0-.9.115-.492.116-.96.116-.845 0-1.614-.376-1.196-.585-6.084-6.461.901-1.136 1.905-1.136.33 0 .67.122l6.317 4.524V.034q.235-.034.449-.034z"/><path d="M32.646 0l-1.582 1.583v.707L33.177.177 33.354 0zm3 0l-4.582 4.583v.707L36.177.177 36.354 0zm3 0l-7.582 7.583v.707L39.177.177 39.354 0zm3 0L31.064 10.583v.707L42.177.177 42.354 0zm3 0L31.064 13.583v.707L45.177.177 45.354 0zm3 0L31.064 16.583v.707L48.177.177 48.354 0zm3 0L32.823 17.823l-.177.177h.708L51.177.177 51.354 0zm3 0L35.823 17.823l-.177.177h.708L54.177.177 54.354 0zm3 0L38.823 17.823l-.177.177h.708L57.177.177 57.354 0zm3 0L41.823 17.823l-.177.177h.708L60.177.177 60.354 0zm3 0L44.823 17.823l-.177.177h.708L63.177.177 63.354 0zm3 0L47.823 17.823l-.177.177h.708L66.177.177 66.354 0zm3 0L50.823 17.823l-.177.177h.708L69.177.177 69.354 0zm3 0L53.823 17.823l-.177.177h.708L72.177.177 72.354 0zm3 0L56.823 17.823l-.177.177h.708L75.177.177 75.354 0zm3 0L59.823 17.823l-.177.177h.708L78.177.177 78.354 0zm3 0L62.823 17.823l-.177.177h.708L81.177.177 81.354 0zm3 0L65.823 17.823l-.177.177h.708L84.177.177 84.354 0zm3 0L68.823 17.823l-.177.177h.708L87.177.177 87.354 0zm3 0L71.823 17.823l-.177.177h.708L90.177.177 90.354 0zm3 0L74.823 17.823l-.177.177h.708L93.177.177 93.354 0zm3 0L77.823 17.823l-.177.177h.708L96.177.177 96.354 0zm3 0L80.823 17.823l-.177.177h.708L99.177.177 99.354 0zm3 0L83.823 17.823l-.177.177h.708L102.177.177l.177-.177zm3 0L86.823 17.823l-.177.177h.708L105.177.177l.177-.177zm3 0L89.823 17.823l-.177.177h.708L108.177.177l.177-.177zm3 0L92.823 17.823l-.177.177h.708L111.177.177l.177-.177zm3 0L95.823 17.823l-.177.177h.708L114.177.177l.177-.177zm3 0L98.823 17.823l-.177.177h.708L117.177.177l.177-.177zm2.725.276l-17.548 17.547-.177.177h.708L119.37.983V.276zm0 3l-14.548 14.547-.177.177h.708L119.37 3.983v-.707zm0 3l-11.548 11.547-.177.177h.708L119.37 6.983v-.707zm0 3l-8.548 8.547-.177.177h.708l8.017-8.017v-.707zm0 3l-5.548 5.547-.177.177h.708l5.017-5.017v-.707zm0 3l-2.548 2.547-.177.177h.708l2.017-2.017v-.707zM119.646 0l-.275.276v.707l.806-.806.177-.177zm1.831 1.17l-2.106 2.106v.707l2.106-2.107V1.17zm0 3l-2.106 2.106v.707l2.106-2.107V4.17zm0 3l-2.106 2.106v.707l2.106-2.107V7.17zm0 3l-2.106 2.106v.707l2.106-2.107v-.707zm0 3l-2.106 2.106v.707l2.106-2.107v-.707zm0 3l-1.654 1.653-.177.177h.708l1.123-1.124v-.707zM27.63 7.458v1.656c.565 0 .848-.283.848-.848 0-.539-.283-.808-.848-.808zM25.535 0c.463 0 .855.116 1.176.35.613.443.919 1.09.919 1.938v4.584c.942 0 1.42.465 1.434 1.394 0 .942-.478 1.413-1.434 1.413V18h-.747V2.732c0-1.023-.198-1.68-.595-1.969-.206-.15-.476-.225-.839-.225-.337 0-.754.065-1.273.195a.65.65 0 0 1-.212.043c-.111 0-.188-.048-.232-.144-.013-.162.108-.276.364-.343C24.634.096 25.114 0 25.535 0zm-8.169.601c-1.074 0-2.418.552-3.069 1.202-.569.57-.643 1.324-.664 2.025h7.435c-.021-.7-.096-1.455-.665-2.025-.65-.65-1.963-1.202-3.037-1.202zm0-.601c1.274 0 2.645.589 3.449 1.392.824.824.917 1.91.917 2.72v.317H13v-.316c0-.812.062-1.897.886-2.72C14.689.588 16.092 0 17.366 0zm1.187 9.627c5.438 1.9 2.904 9.54-2.195 8.228-5.054-1.302-4.046-9.318 2.195-8.228m-.243.698c-5.418-.787-5.64 5.768-1.708 6.812 3.846 1.022 6.482-5.13 1.708-6.812m-1.189 1.152c-1.082-.74.885-.487 0-.018v.018m1.986.433c-1.227-.397.343-.795 0-.073v.073m-2.993-.712v.732l-.73-.244.73-.488m3.57 2.066c-.902-.795.596-.885.11-.09l-.11.09m-2.838-.846l.244.731-.732-.487.488-.244m1.052.358l.072-.017c.668-.489 1.39 1.767-.072.017m-3.014-.397c.956.56-.162.703-.253.703l.253-.703m2.938 1.502l-.244.244-.488-.732.732.488m-1.675-.474l.47.019c-.56.866-.758.793-.47-.019m3.681 1.517c-.883-.74.434-.632.416-.488l-.416.488m-1.01-.903l-.22.305c-.718-.215-.34-.792.22-.305m-3.435.836l-.244.244-.488-.732.732.488m1.323.012c.759-.378.92-.27.47.344l-.47-.344m2.579.72l-.244.731-.488-.732h.732m-3.246-.465l.45.54c-.107.217-1.1.145-.45-.54m1.539.71l.244.731h-.732l.488-.732zM0 0v.354L.177.177.354 0zm2.646 0L0 2.646v.708L3.177.177 3.354 0zm3 0L0 5.646v.708L6.177.177 6.354 0zm3 0L0 8.646v.708L9.177.177 9.354 0zM11 .646l-11 11v.708l11-11V.646zm0 3l-11 11v.708l11-11v-.708zm0 3l-11 11V18h.354L11 7.354v-.708zm0 3l-8.177 8.177-.177.177h.708L11 10.354v-.708zm0 3l-5.177 5.177-.177.177h.708L11 13.354v-.708zm0 3l-2.177 2.177-.177.177h.708L11 16.354v-.708z"/></svg>