<svg xmlns="http://www.w3.org/2000/svg" width="129.273" height="18"><path d="M107.646 0l-.373.374v.707l.904-.904.177-.177zm3 0l-3.373 3.374v.707l3.904-3.904.177-.177zm3 0l-6.373 6.374v.707l6.904-6.904.177-.177zm3 0l-9.373 9.374v.707l9.904-9.904.177-.177zm3 0l-12.373 12.374v.707L120.177.177l.177-.177zm3 0l-15.373 15.374v.707L123.177.177l.177-.177zm3 0l-17.823 17.823-.177.177h.708L126.177.177l.177-.177zm3 0l-17.823 17.823-.177.177h.708L129.177.177l.096-.096V0zm.627 2.374l-15.45 15.45-.177.176h.708l14.919-14.92v-.706zm0 3l-12.45 12.45-.177.176h.708l11.919-11.92v-.706zm0 3l-9.45 9.45-.177.176h.708l8.919-8.92v-.706zm0 3l-6.45 6.45-.177.176h.708l5.919-5.92v-.706zm0 3l-3.45 3.45-.177.176h.708l2.919-2.92v-.706zm0 3l-.45.45-.177.176h.627v-.626zM103.626 0c.335 0 .67.026.994.066.448.113.218.626-.18.626a.476.476 0 0 1-.081-.008c-.84.097-1.872.15-2.506.626-.841.916-.463 2.821-.561 3.725-.007.05-.01 3.653-.01 5.48a6.145 6.145 0 0 1 2.634-.586c.402 0 .802.04 1.188.117.441.231-.077.528-.423.528a.454.454 0 0 1-.114-.013c-1.226.133-2.62.461-3.243 1.602-.061.206-.023.277.07.277.207 0 .68-.342.947-.342.014 0 .028 0 .04.003a7.535 7.535 0 0 1 1.58-.169 6.8 6.8 0 0 1 1.149.095c.42.278-.096.534-.438.534a.532.532 0 0 1-.105-.01c-1.251.151-2.636.49-3.243 1.633-.007 1.27 0 2.11-.034 3.278.015.36-.219.538-.456.538-.235 0-.473-.176-.474-.526.009-1.15.09-2.161-.06-3.277-.304-1.253-2.477-1.445-3.827-1.754-.295-.347.285-.475.658-.475.056 0 .107.003.15.008.173-.013.348-.02.522-.02.882 0 1.771.175 2.557.58.032-.755-.711-1.19-1.244-1.493-.84-.361-1.765-.397-2.643-.59-.313-.273.18-.501.521-.501a.58.58 0 0 1 .125.012 7.01 7.01 0 0 1 .648-.031c.902 0 1.804.183 2.614.582-.016-2.851-.063-5.61.02-8.308.065-.834.545-1.6 1.354-1.849.58-.264 1.227-.358 1.87-.358zm-17.63.601c-1.074 0-2.418.552-3.068 1.202-.57.57-.644 1.324-.665 2.025h7.435c-.02-.7-.095-1.455-.664-2.025-.65-.65-1.964-1.202-3.038-1.202zm0-.601c1.275 0 2.645.589 3.449 1.392.824.824.917 1.91.917 2.72v.317H81.63v-.316c0-.812.062-1.897.886-2.72C83.32.588 84.722 0 85.996 0zm6.323 15.57L94.374 18h-1.002l-1.053-1.255L91.256 18l-1.033-1.255L89.16 18l-1.053-1.255L87.044 18l-1.053-1.255L84.928 18l-1.032-1.255L82.833 18l-1.063-1.255L80.737 18l-1.063-1.255L78.62 18h-1.002l2.055-2.43 1.063 1.175 1.033-1.175 1.063 1.175 1.063-1.175 1.032 1.175 1.063-1.175 1.053 1.175 1.063-1.175 1.053 1.175 1.063-1.175 1.033 1.175 1.063-1.175zM70.212.597a2.12 2.12 0 0 0-.693.109c.032.223.17.569.953.773-.73-.053-1.206-.113-1.452-.307-.089.2-.137.427-.158.556a.297.297 0 0 1-.207.237c-.624.191-1.173 1.112-1.7 1.763-.95 1.173-1.77 2.48-2.687 3.733.422-.207.845-.415 1.27-.622 1.181-.622 2.394-1.11 3.406-1.877.589-.49 1.172-.996 1.391-1.641.076-.497-.297-1.074-.768-1.279a.297.297 0 1 1 .238-.545c.377.164.7.458.904.817a1.986 1.986 0 0 0-.074-.448.297.297 0 0 1-.013-.104c.01-.184.041-.313.082-.422.04-.109.085-.206.158-.459a.297.297 0 0 1 .104-.153 1.546 1.546 0 0 0-.527-.125C70.396.6 70.355.6 70.314.599a.258.258 0 1 1-.102-.002zm-1.194 5.432c-.606.466-1.253.873-1.888 1.28.005.438-.006.879-.047 1.321.207-.135.434-.236.697-.3.391-.636.82-1.22 1.082-1.842.055-.129.106-.29.156-.46zm.249 1c-.273.549-.622 1.04-.929 1.529.06.04.112.08.155.121l.027.027a1.72 1.72 0 0 1 .613-.454c-.009-.348.048-.768.134-1.222zm-2.88.047a25.922 25.922 0 0 0-.589.297c-.78.38-1.56.772-2.349 1.148-.556.67-1.156 1.293-1.734 1.92l1.043.175 2.563-2.786a.297.297 0 0 1 .04-.036c.332-.253.677-.489 1.025-.718zm2.591 2.009c-.058.066-.112.14-.162.222a.298.298 0 0 1-.429.087c-.125-.09-.2-.177-.265-.244l-.078 1.413c.1-.006.202-.013.296-.013.167 0 .314.022.398.108.1-.078.28-.1.504-.1.058 0 .118.002.181.005l-.445-1.478zm5.419.999c-.452.062-.687.323-.704.783h1.394c0-.46-.23-.721-.69-.783zm-7.861-2.39a16.38 16.38 0 0 0-.798.56l-2.403 2.613h2.457c.17-.19.518-.365.776-.365.073 0 .139.014.191.046.082-.007.168-.01.257-.01.139 0 .285.007.433.016l.083-1.506c-.225.115-.407.282-.626.542a.297.297 0 0 1-.52-.246 9.773 9.773 0 0 0 .15-1.65zm6.24 3.745l.266.465h1.248l.253-.465zm-4.516 0v2.51l1.727-2.51zM70.204 0a3.878 3.878 0 0 1 .273.01c.694.044 1.215.325 1.407.768a.298.298 0 0 1-.34.408l-.025-.006-.03.007-.108.029c-.054.168-.096.269-.12.332a.541.541 0 0 0-.042.2c.154.552.094 1.107.037 1.389-.096.466-.384.977-.762 1.46a.295.295 0 0 1-.014.108 21.85 21.85 0 0 0-.548 2.027c-.152.708-.233 1.387-.192 1.684a.297.297 0 0 1-.223.33l-.018.005.527 1.75c.085-.013.172-.018.259-.018.256 0 .51.041.712.041a.865.865 0 0 0 .183-.016.314.314 0 0 1 .069-.007c.212 0 .656.13.786.366h1.1c.062-.797.482-1.235 1.262-1.315.788.08 1.195.518 1.222 1.315v.572h-.532l-.544 1.01h-1.767l-.531-1.01h-1.567l-2.404 3.493V18h-.572v-6.561h-4.516v-.41l-.1.109a.297.297 0 0 1-.267.092l-1.74-.292a.298.298 0 0 1-.173-.492c.216-.242.436-.48.656-.716l-1.656 1.078a.296.296 0 0 1-.412-.087.297.297 0 0 1 .087-.411l1.345-.876a.292.292 0 0 1-.077-.09.315.315 0 0 1-.02-.237.305.305 0 0 1 .048-.093c.056-.076.084-.088.124-.119l.13-.094c.096-.065.207-.137.302-.2a4.156 4.156 0 0 0 .216-.156l2.378-1.672.008-.005c.806-1.13 1.568-2.316 2.457-3.414.433-.535.938-1.524 1.813-1.894.048-.262.156-.68.483-.997.353-.344.864-.463 1.416-.463zM51.926 18.048c-2.597 0-2.597-3.896 0-3.896 2.598 0 2.598 3.896 0 3.896zM44.45 0v7.35h-.735V0zm-4.37 0v7.35h-.735V0zm-4.37 0v7.35h-.736V0zm6.555 10.65V18h-.735v-7.35zm-4.37 0V18h-.736v-7.35zm-4.921-4.08l-4.77.008c-1.442.008-2.52.705-3.208 1.604-.68.899-.996 1.984-.996 2.883v.365h8.974l-.008-.73h-8.213c.073-.663.34-1.44.826-2.073.575-.76 1.41-1.312 2.625-1.32l4.77-.008V6.57z"/><path d="M26.646 0L24 2.646v.708L27.177.177 27.354 0zm1.841 1.16L24 5.645v.708l4.487-4.487v-.708zm0 3L24 8.645v.708l4.487-4.487v-.708zm0 3L24 11.645v.708l4.487-4.487v-.708zm0 3L24 14.645v.708l4.487-4.487v-.708zm0 3L24 17.645V18h.354l4.133-4.133v-.708zm0 3l-1.664 1.663-.177.177h.708l1.133-1.133v-.708zM2.646 0L0 2.646v.708L3.177.177 3.354 0zm3 0L0 5.646v.708L6.177.177 6.354 0zm3 0L0 8.646v.708L9.177.177 9.354 0zm3 0L0 11.646v.708L12.177.177 12.354 0zm3 0L0 14.646v.708L15.177.177 15.354 0zm3 0L0 17.646V18h.354L18.177.177 18.354 0zm3 0L2.823 17.823 2.646 18h.708L21.177.177 21.354 0zM22 1.646L5.823 17.823 5.646 18h.708L22 2.354v-.708zm0 3L8.823 17.823 8.646 18h.708L22 5.354v-.708zm0 3L11.823 17.823l-.177.177h.708L22 8.354v-.708zm0 3l-7.177 7.177-.177.177h.708L22 11.354v-.708zm0 3l-4.177 4.177-.177.177h.708L22 14.354v-.708zm0 3l-1.177 1.177-.177.177h.708l.646-.646v-.708z"/></svg>