<svg xmlns="http://www.w3.org/2000/svg" width="288.905" height="18"><path d="M287.258 0c.336 0 .67.026.995.066.447.113.217.626-.18.626a.476.476 0 0 1-.082-.008c-.839.097-1.872.15-2.506.626-.84.916-.463 2.821-.56 3.725-.008.05-.01 3.653-.01 5.48a6.145 6.145 0 0 1 2.634-.586c.402 0 .801.04 1.188.117.44.231-.077.528-.423.528a.454.454 0 0 1-.114-.013c-1.227.133-2.62.461-3.243 1.602-.062.206-.023.277.07.277.207 0 .68-.342.947-.342.014 0 .027 0 .04.003a7.535 7.535 0 0 1 1.58-.169c.39 0 .776.031 1.148.095.421.278-.095.534-.437.534a.532.532 0 0 1-.105-.01c-1.252.151-2.637.49-3.243 1.633-.007 1.27 0 2.11-.034 3.278.015.36-.22.538-.456.538-.235 0-.473-.176-.474-.526.008-1.15.09-2.161-.06-3.277-.305-1.253-2.478-1.445-3.828-1.754-.294-.347.285-.475.659-.475.056 0 .107.003.15.008.173-.013.347-.02.521-.02.883 0 1.772.175 2.558.58.032-.755-.712-1.19-1.244-1.493-.84-.361-1.766-.397-2.644-.59-.313-.273.18-.501.522-.501a.58.58 0 0 1 .125.012c.215-.02.431-.031.647-.031.903 0 1.805.183 2.615.582-.017-2.851-.063-5.61.019-8.308.065-.834.546-1.6 1.354-1.849.58-.264 1.227-.358 1.871-.358zm-23.995 2.99q-.557 0-1.086.606 4.368 5.2 5.46 5.81.815.457 1.434.457.21 0 .4-.053.74-.208 1.585-.234h.043q.828 0 1.816.988h.13q-.702-1.638-1.963-2.34-1.26-.702-7.397-5.148-.213-.085-.422-.085zm7.731-2.369q-.065 0-.133.01v6.683q2.054 1.196 2.834 3.354-1.196-8.268-1.677-9.204-.433-.843-1.024-.843zm5.356 10.468q.08 0 .153.138.13.247-.234.689-.208-.546-.052-.741.07-.086.133-.086zm-.036-.372q-.153 0-.33.237-.39.52.233 2.08.702-1.352.43-1.976-.15-.34-.333-.34zm-6.805 2.577v.39q.286-.026.442-.182-.052-.078-.208-.208zm-.598.884l-2.418.338-.494.884q.832-.234 1.833-.624t1.08-.598zm5.33-.364l-.468.234-.156 1.118.416 1.274h.65l-.442-1.274v-1.352zm-1.118.39l-.442.13-.156.832.416 1.274h.65l-.442-1.274-.026-.962zm-1.534.156l-.156.806.416 1.274h.65l-.442-1.274v-.78l-.468-.026zm.994-3.234q-.415 0-.89.1-1.404.3-1.768 1.418h-1.092l-.416-.676q-5.512 1.274-6.214 4.602 1.508-.832 3.172-1.118l.728-1.456 2.886-.39-.078-.702h.988q1.092.9 2.228.9.244 0 .49-.042 1.39-.234 1.82-.95.428-.714-.456-1.3-.585-.386-1.398-.386zM270.738 0q.947 0 1.488.658.663.806 1.235 4.238l.91 5.954q.442.468.676.52h.312q.026-.65.494-1.196.416-3.978-.364-6.968l.312-.598q1.118 3.38.546 7.592h.078q1.794-4.03.52-7.592l.312-.468q1.664 3.796-.364 8.242.572 1.248.117 2.054-.455.806-.559 1.508l-.182.13q-.702-1.04-.806-1.794h-.26q-.026.598-.338 1.248l-.182 1.638.442 1.274h2.262v.624h-6.526v-.624h.546l-.416-1.274-.026-.962q-.468-.156-.702-.364-.338.312-.754.312.026.26-.104.442-1.04.806-3.718 1.404l-.91 1.768q0-.434-.27-.434-.085 0-.198.044l.728-1.3q-1.508.338-2.288.858-.416.442.052 1.066-1.04-.442-1.17-1.248.416-3.926 7.046-5.46l.468.78h.416q.338-1.092 2.678-1.508-.522-.388-1.284-.388-.415 0-.9.115-.492.116-.961.116-.844 0-1.613-.376-1.196-.585-6.084-6.461.9-1.136 1.905-1.136.329 0 .669.122l6.318 4.524V.034q.235-.034.449-.034z"/><path d="M47.646 0l-1.341 1.342v.707L48.177.177 48.354 0zm3 0l-4.341 4.342v.707L51.177.177 51.354 0zm3 0l-7.341 7.342v.707L54.177.177 54.354 0zm3 0L46.305 10.342v.707L57.177.177 57.354 0zm3 0L46.305 13.342v.707L60.177.177 60.354 0zm3 0L46.305 16.342v.707L63.177.177 63.354 0zm3 0L47.823 17.823l-.177.177h.708L66.177.177 66.354 0zm3 0L50.823 17.823l-.177.177h.708L69.177.177 69.354 0zm3 0L53.823 17.823l-.177.177h.708L72.177.177 72.354 0zm3 0L56.823 17.823l-.177.177h.708L75.177.177 75.354 0zm3 0L59.823 17.823l-.177.177h.708L78.177.177 78.354 0zm3 0L62.823 17.823l-.177.177h.708L81.177.177 81.354 0zm3 0L65.823 17.823l-.177.177h.708L84.177.177 84.354 0zm3 0L68.823 17.823l-.177.177h.708L87.177.177 87.354 0zm3 0L71.823 17.823l-.177.177h.708L90.177.177 90.354 0zm3 0L74.823 17.823l-.177.177h.708L93.177.177 93.354 0zm3 0L77.823 17.823l-.177.177h.708L96.177.177 96.354 0zm3 0L80.823 17.823l-.177.177h.708L99.177.177 99.354 0zm3 0L83.823 17.823l-.177.177h.708L102.177.177l.177-.177zm3 0L86.823 17.823l-.177.177h.708L105.177.177l.177-.177zm3 0L89.823 17.823l-.177.177h.708L108.177.177l.177-.177zm3 0L92.823 17.823l-.177.177h.708L111.177.177l.177-.177zm3 0L95.823 17.823l-.177.177h.708L114.177.177l.177-.177zm3 0L98.823 17.823l-.177.177h.708L117.177.177l.177-.177zm3 0l-17.823 17.823-.177.177h.708L120.177.177l.177-.177zm3 0l-17.823 17.823-.177.177h.708L123.177.177l.177-.177zm3 0l-17.823 17.823-.177.177h.708L126.177.177l.177-.177zm3 0l-17.823 17.823-.177.177h.708L129.177.177l.177-.177zm3 0l-17.823 17.823-.177.177h.708L132.177.177l.177-.177zm3 0l-17.823 17.823-.177.177h.708L135.177.177l.177-.177zm3 0l-17.823 17.823-.177.177h.708L138.177.177l.177-.177zm3 0l-17.823 17.823-.177.177h.708L141.177.177l.177-.177zm3 0l-17.823 17.823-.177.177h.708L144.177.177l.177-.177zm3 0l-17.823 17.823-.177.177h.708L147.177.177l.177-.177zm3 0l-17.823 17.823-.177.177h.708L150.177.177l.177-.177zm3 0l-17.823 17.823-.177.177h.708L153.177.177l.177-.177zm3 0l-17.823 17.823-.177.177h.708L156.177.177l.177-.177zm3 0l-17.823 17.823-.177.177h.708L159.177.177l.177-.177zm3 0l-17.823 17.823-.177.177h.708L162.177.177l.177-.177zm3 0l-17.823 17.823-.177.177h.708L165.177.177l.177-.177zm3 0l-17.823 17.823-.177.177h.708L168.177.177l.177-.177zm3 0l-17.823 17.823-.177.177h.708L171.177.177l.177-.177zm3 0l-17.823 17.823-.177.177h.708L174.177.177l.177-.177zm3 0l-17.823 17.823-.177.177h.708L177.177.177l.177-.177zm3 0l-17.823 17.823-.177.177h.708L180.177.177l.177-.177zm3 0l-17.823 17.823-.177.177h.708L183.177.177l.177-.177zm3 0l-17.823 17.823-.177.177h.708L186.177.177l.177-.177zm3 0l-17.823 17.823-.177.177h.708L189.177.177l.177-.177zm3 0l-17.823 17.823-.177.177h.708L192.177.177l.177-.177zm3 0l-17.823 17.823-.177.177h.708L195.177.177l.177-.177zm3 0l-17.823 17.823-.177.177h.708L198.177.177l.177-.177zm3 0l-17.823 17.823-.177.177h.708L201.177.177l.177-.177zm3 0l-17.823 17.823-.177.177h.708L204.177.177l.177-.177zm3 0l-17.823 17.823-.177.177h.708L207.177.177l.177-.177zm3 0l-17.823 17.823-.177.177h.708L210.177.177l.177-.177zm3 0l-17.823 17.823-.177.177h.708L213.177.177l.177-.177zm3 0l-17.823 17.823-.177.177h.708L216.177.177l.177-.177zm3 0l-17.823 17.823-.177.177h.708L219.177.177l.177-.177zm3 0l-17.823 17.823-.177.177h.708L222.177.177l.177-.177zm3 0l-17.823 17.823-.177.177h.708L225.177.177l.177-.177zm3 0l-17.823 17.823-.177.177h.708L228.177.177l.177-.177zm3 0l-17.823 17.823-.177.177h.708L231.177.177l.177-.177zm3 0l-17.823 17.823-.177.177h.708L234.177.177l.177-.177zm3 0l-17.823 17.823-.177.177h.708L237.177.177l.177-.177zm3 0l-17.823 17.823-.177.177h.708L240.177.177l.177-.177zm3 0l-17.823 17.823-.177.177h.708L243.177.177l.177-.177zm3 0l-17.823 17.823-.177.177h.708L246.177.177l.177-.177zm3 0l-17.823 17.823-.177.177h.708L249.177.177l.177-.177zm3 0l-17.823 17.823-.177.177h.708L252.177.177l.177-.177zm3 0l-17.823 17.823-.177.177h.708L255.177.177l.177-.177zm3 0l-17.823 17.823-.177.177h.708L258.177.177l.177-.177zm3 0l-17.823 17.823-.177.177h.708L261.177.177l.177-.177zm3 0l-17.823 17.823-.177.177h.708L264.177.177l.177-.177zm3 0l-17.823 17.823-.177.177h.708L267.177.177l.177-.177zm3 0l-17.823 17.823-.177.177h.708L270.177.177l.177-.177zm3 0l-17.823 17.823-.177.177h.708L273.177.177l.177-.177zm3 0l-17.823 17.823-.177.177h.708L276.177.177l.177-.177zm2.36.64l-17.183 17.183-.177.177h.708l16.653-16.653V.64zm0 3l-14.183 14.183-.177.177h.708l13.653-13.653V3.64zm0 3l-11.183 11.183-.177.177h.708l10.653-10.653V6.64zm0 3l-8.183 8.183-.177.177h.708l7.653-7.653V9.64zm0 3l-5.183 5.183-.177.177h.708l4.653-4.653v-.707zm0 3l-2.183 2.183-.177.177h.708l1.653-1.653v-.707z"/><path d="M278.646 0l-.64.64v.707l1.17-1.17.178-.177zm1.467 1.534l-2.106 2.106v.707l2.106-2.106v-.707zm0 3l-2.106 2.106v.707l2.106-2.106v-.707zm0 3l-2.106 2.106v.707l2.106-2.106v-.707zm0 3l-2.106 2.106v.707l2.106-2.106v-.707zm0 3l-2.106 2.106v.707l2.106-2.106v-.707zm0 3l-1.29 1.29-.177.176h.708l.759-.76v-.706zM42.87 7.458v1.656c.566 0 .85-.283.85-.848 0-.539-.284-.808-.85-.808zM40.777 0c.463 0 .855.116 1.176.35.613.443.919 1.09.919 1.938v4.584c.942 0 1.42.465 1.434 1.394 0 .942-.478 1.413-1.434 1.413V18h-.746V2.732c0-1.023-.2-1.68-.596-1.969-.206-.15-.476-.225-.839-.225-.337 0-.753.065-1.273.195a.65.65 0 0 1-.212.043c-.11 0-.188-.048-.232-.144-.013-.162.108-.276.364-.343C39.875.096 40.355 0 40.776 0zm-8.17.601c-1.074 0-2.418.552-3.069 1.202-.569.57-.643 1.324-.664 2.025h7.435c-.021-.7-.096-1.455-.665-2.025-.65-.65-1.963-1.202-3.037-1.202zm0-.601c1.274 0 2.645.589 3.449 1.392.824.824.917 1.91.917 2.72v.317h-8.732v-.316c0-.812.062-1.897.886-2.72C29.93.588 31.333 0 32.607 0zm1.187 9.627c5.438 1.9 2.904 9.54-2.195 8.228-5.054-1.302-4.046-9.318 2.195-8.228m-.243.698c-5.417-.787-5.64 5.768-1.708 6.812 3.846 1.022 6.482-5.13 1.708-6.812m-1.189 1.152c-1.082-.74.885-.487 0-.018v.018m1.986.433c-1.227-.397.343-.795 0-.073v.073m-2.993-.712v.732l-.73-.244.73-.488m3.57 2.066c-.902-.795.596-.885.11-.09l-.11.09m-2.838-.846l.244.731-.732-.487.488-.244m1.052.358l.072-.017c.668-.489 1.39 1.767-.072.017m-3.014-.397c.957.56-.162.703-.253.703l.253-.703m2.938 1.502l-.244.244-.488-.732.732.488m-1.675-.474l.47.019c-.56.866-.758.793-.47-.019m3.681 1.517c-.883-.74.434-.632.416-.488l-.416.488m-1.01-.903l-.22.305c-.718-.215-.34-.792.22-.305m-3.435.836l-.244.244-.488-.732.732.488m1.323.012c.759-.378.92-.27.47.344l-.47-.344m2.579.72l-.244.731-.488-.732h.732m-3.246-.465l.45.54c-.107.217-1.1.145-.45-.54m1.539.71l.244.731h-.732l.488-.732zM26.241 5.34v7.32h-1.225V5.34zM13.093.837q-1.56 0-3.135.546-3.166 1.096-5.706 3.903 3.053-2.254 5.962-3.002 1.454-.374 2.91-.374 1.454 0 2.908.374 2.91.748 5.962 3.002-2.663-2.787-5.767-3.893-1.56-.556-3.134-.556zm.03-.837q3.585.082 6.239 1.905Q22.015 3.73 22.69 5.04q.614 1.024.072 1.29-.165.081-.33.081-.38 0-.767-.429-1.044-1.106-4.794-2.489-1.874-.691-3.749-.691t-3.75.691Q5.626 4.876 4.58 6.003q-.41.424-.786.424-.169 0-.33-.086-.523-.277.091-1.301.676-1.311 3.33-3.135Q9.538.082 13.123 0zm4.784 12.998q.328 0 .53.219.2.22.2.493 0 .237-.2.466-.202.228-.512.228-.347 0-.539-.21-.191-.21-.191-.484 0-.292.228-.502.228-.21.484-.21zm0-.164q-.329 0-.612.255-.283.256-.283.621 0 .329.246.603.247.273.667.273.383 0 .63-.292.246-.292.246-.584 0-.347-.246-.612-.247-.264-.648-.264zm0-4.583q.347 0 .401.712v3.122q-.018.365.201.676.192.073.374.073.183 0 .357-.073l2.958-.968q.246-.057.418-.057.325 0 .385.203.11.329-.566.602l-2.976.95q-.347.11-.566.438 0 .402.237.694l1.826 2.52q.383.62.11.803-.074.054-.162.054-.24 0-.587-.4l-1.826-2.52q-.2-.311-.584-.439-.366.11-.585.438l-1.826 2.52Q15.15 18 14.92 18q-.084 0-.153-.054-.274-.2.091-.822l1.845-2.52q.237-.291.219-.675-.22-.329-.585-.438l-2.958-.95q-.675-.273-.566-.584.073-.219.406-.219.166 0 .398.055l2.976.968q.173.063.351.063t.361-.063q.237-.31.22-.676V8.963q.054-.712.383-.712zM7.124 13.17c.62.049.964.36 1.03.931-.082.621-.425.948-1.03.981-.605-.033-.924-.36-.957-.98.05-.573.368-.883.957-.932zm-.074-2.06c-.441 0-.85.082-1.226.245a3.233 3.233 0 0 0-1.667 1.655 2.836 2.836 0 0 0-.245 1.165c0 .425.081.821.245 1.19a3.12 3.12 0 0 0 2.893 1.851c.442 0 .854-.078 1.238-.234a2.95 2.95 0 0 0 .994-.65c.277-.277.498-.6.662-.968.163-.368.245-.764.245-1.19 0-.408-.082-.796-.245-1.164a3.347 3.347 0 0 0-.662-.98 3.01 3.01 0 0 0-.994-.675 3.13 3.13 0 0 0-1.238-.245zm.05-.834a3.8 3.8 0 0 1 1.52.307 3.79 3.79 0 0 1 1.225.833c.344.352.618.76.822 1.226.204.466.306.969.306 1.508 0 .54-.102 1.042-.306 1.508a3.93 3.93 0 0 1-.822 1.214A3.891 3.891 0 0 1 7.1 18a3.7 3.7 0 0 1-1.508-.307 4.086 4.086 0 0 1-1.226-.82 3.826 3.826 0 0 1-.833-1.215 3.713 3.713 0 0 1-.307-1.508 3.7 3.7 0 0 1 .307-1.508 3.974 3.974 0 0 1 2.06-2.06 3.713 3.713 0 0 1 1.507-.306zM1.225 5.34v7.32H0V5.34z"/></svg>