<svg xmlns="http://www.w3.org/2000/svg" width="234.044" height="18"><path d="M232.397 0c.335 0 .67.026.994.066.447.113.218.626-.18.626a.476.476 0 0 1-.082-.008c-.839.097-1.872.15-2.506.626-.84.916-.463 2.821-.56 3.725-.008.05-.01 3.653-.01 5.48a6.145 6.145 0 0 1 2.634-.586c.402 0 .802.04 1.188.117.44.231-.077.528-.423.528a.454.454 0 0 1-.114-.013c-1.226.133-2.62.461-3.243 1.602-.062.206-.023.277.07.277.207 0 .68-.342.947-.342.014 0 .027 0 .04.003a7.535 7.535 0 0 1 1.58-.169c.39 0 .776.031 1.149.095.42.278-.096.534-.438.534a.532.532 0 0 1-.105-.01c-1.252.151-2.637.49-3.243 1.633-.007 1.27 0 2.11-.034 3.278.015.36-.219.538-.456.538-.235 0-.473-.176-.474-.526.008-1.15.09-2.161-.06-3.277-.305-1.253-2.478-1.445-3.827-1.754-.295-.347.285-.475.658-.475.056 0 .107.003.15.008.173-.013.347-.02.522-.02.882 0 1.77.175 2.557.58.032-.755-.712-1.19-1.244-1.493-.84-.361-1.766-.397-2.643-.59-.314-.273.18-.501.52-.501a.58.58 0 0 1 .126.012c.215-.02.431-.031.648-.031.902 0 1.804.183 2.614.582-.017-2.851-.063-5.61.019-8.308.066-.834.546-1.6 1.354-1.849.581-.264 1.227-.358 1.872-.358zm-23.995 2.99q-.557 0-1.087.606 4.368 5.2 5.46 5.81.815.457 1.434.457.211 0 .4-.053.74-.208 1.585-.234h.043q.828 0 1.816.988h.13q-.702-1.638-1.963-2.34-1.26-.702-7.397-5.148-.212-.085-.421-.085zm7.73-2.369q-.065 0-.133.01v6.683q2.054 1.196 2.835 3.354-1.197-8.268-1.678-9.204-.432-.843-1.023-.843zm5.356 10.468q.08 0 .154.138.13.247-.234.689-.208-.546-.052-.741.068-.086.132-.086zm-.036-.372q-.153 0-.33.237-.39.52.234 2.08.702-1.352.429-1.976-.15-.34-.333-.34zm-6.805 2.577v.39q.286-.026.442-.182-.052-.078-.208-.208zm-.598.884l-2.418.338-.494.884q.832-.234 1.833-.624t1.08-.598zm5.33-.364l-.467.234-.156 1.118.416 1.274h.65l-.442-1.274v-1.352zm-1.117.39l-.443.13-.156.832.416 1.274h.65l-.441-1.274-.026-.962zm-1.535.156l-.156.806.416 1.274h.65l-.442-1.274v-.78l-.468-.026zm.995-3.234q-.416 0-.89.1-1.405.3-1.769 1.418h-1.092l-.416-.676q-5.512 1.274-6.214 4.602 1.508-.832 3.172-1.118l.728-1.456 2.886-.39-.078-.702h.988q1.092.9 2.229.9.243 0 .488-.042 1.392-.234 1.82-.95.43-.714-.454-1.3-.585-.386-1.398-.386zM215.876 0q.948 0 1.488.658.663.806 1.236 4.238l.91 5.954q.442.468.676.52h.312q.026-.65.494-1.196.416-3.978-.364-6.968l.312-.598q1.118 3.38.546 7.592h.078q1.794-4.03.52-7.592l.312-.468q1.664 3.796-.364 8.242.572 1.248.117 2.054-.455.806-.56 1.508l-.181.13q-.702-1.04-.806-1.794h-.26q-.026.598-.338 1.248l-.182 1.638.442 1.274h2.262v.624h-6.527v-.624h.546l-.416-1.274-.026-.962q-.468-.156-.702-.364-.338.312-.754.312.026.26-.104.442-1.04.806-3.718 1.404l-.91 1.768q0-.434-.27-.434-.085 0-.198.044l.728-1.3q-1.508.338-2.288.858-.416.442.052 1.066-1.04-.442-1.17-1.248.416-3.926 7.046-5.46l.468.78h.416q.338-1.092 2.678-1.508-.522-.388-1.284-.388-.414 0-.9.115-.492.116-.96.116-.845 0-1.614-.376-1.196-.585-6.084-6.461.901-1.136 1.905-1.136.33 0 .67.122l6.317 4.524V.034q.235-.034.45-.034z"/><path d="M197.035.375c9.625 0 9.625 17.25 0 17.25" fill="none" stroke="#000"/><path d="M173.646 0l-.61.611v.707l1.14-1.141.178-.177zm3 0l-3.61 3.611v.707l4.14-4.141.178-.177zm3 0l-6.61 6.611v.707l7.14-7.141.178-.177zm3 0l-9.61 9.611v.707L183.175.177l.178-.177zm3 0l-12.61 12.611v.707L186.175.177l.178-.177zm3 0l-15.61 15.611v.707L189.175.177l.178-.177zm3 0l-17.823 17.823-.177.177h.708L192.177.177l.177-.177zm3 0l-17.823 17.823-.177.177h.708L195.035.318V0zm.39 2.611l-15.213 15.212-.177.177h.708l14.681-14.682v-.707zm0 3l-12.213 12.212-.177.177h.708l11.681-11.682v-.707zm0 3l-9.213 9.212-.177.177h.708l8.681-8.682v-.707zm0 3l-6.213 6.212-.177.177h.708l5.681-5.682v-.707zm0 3l-3.213 3.212-.177.177h.708l2.681-2.682v-.707zm0 3l-.213.212-.177.177h.39v-.389z"/><path d="M197.035.611l-2 2v.707l2-2V.611zm0 3l-2 2v.707l2-2v-.707zm0 3l-2 2v.707l2-2v-.707zm0 3l-2 2v.707l2-2v-.707zm0 3l-2 2v.707l2-2v-.707zm0 3l-2 2V18h.319l1.681-1.682v-.707zM149.646 0l-.61.611v.707l1.14-1.141.178-.177zm3 0l-3.61 3.611v.707l4.14-4.141.178-.177zm3 0l-6.61 6.611v.707l7.14-7.141.178-.177zm3 0l-9.61 9.611v.707L159.175.177l.178-.177zm3 0l-12.61 12.611v.707L162.175.177l.178-.177zm3 0l-15.61 15.611v.707L165.175.177l.178-.177zm3 0l-17.823 17.823-.177.177h.708L168.177.177l.177-.177zm3 0l-17.823 17.823-.177.177h.708L171.035.318V0zm.39 2.611l-15.213 15.212-.177.177h.708l14.681-14.682v-.707zm0 3l-12.213 12.212-.177.177h.708l11.681-11.682v-.707zm0 3l-9.213 9.212-.177.177h.708l8.681-8.682v-.707zm0 3l-6.213 6.212-.177.177h.708l5.681-5.682v-.707zm0 3l-3.213 3.212-.177.177h.708l2.681-2.682v-.707zm0 3l-.213.212-.177.177h.39v-.389z"/><path d="M173.035.611l-2 2v.707l2-2V.611zm0 3l-2 2v.707l2-2v-.707zm0 3l-2 2v.707l2-2v-.707zm0 3l-2 2v.707l2-2v-.707zm0 3l-2 2v.707l2-2v-.707zm0 3l-2 2V18h.319l1.681-1.682v-.707zM138.752.585c.03 4.318.064 8.637.09 12.955-.063.7-.1 1.402-.18 2.1-.048.372-.291.72-.238 1.101.079.258.249.662.534.662a.4.4 0 0 0 .208-.066c.463-.178.905-.472 1.415-.472.028 0 .057 0 .086.002h.075c.97 0 1.924.214 2.887.308.526.075 1.05.195 1.584.195h.067c-.962-.218-1.914-.586-2.672-1.234-1.033-.802-2.069-1.6-3.1-2.406-.14-.172.067-8.948.137-13.114l-.893-.03zM138.227 0c.51.017 1.27.009 1.777.041.272.079.225.383.22.601l-.21 12.755c1.127.862 2.245 1.737 3.378 2.59.634.413 1.368.67 2.108.806.332-.004.666-.175.996-.175.106 0 .21.018.315.064.255.195.342.73.002.894-.512.274-1.082.379-1.657.379-.362 0-.726-.042-1.078-.109-.818-.139-1.645-.22-2.466-.336-.27-.024-.55-.06-.827-.06-.299 0-.592.042-.862.19-.325.143-.683.36-1.044.36a.806.806 0 0 1-.362-.084c-.379-.236-.597-.675-.69-1.1-.076-.556.3-1.047.293-1.599.043-.603.111-1.205.138-1.809C138.228 9.044 138.06 0 138.227 0zm-4.464 0l2.055 2.43h-1.002l-1.053-1.256L132.7 2.43l-1.032-1.256-1.063 1.256-1.053-1.256-1.063 1.256-1.053-1.256-1.063 1.256-1.033-1.256-1.063 1.256-1.063-1.256-1.033 1.256-1.063-1.256-1.053 1.256h-1.002L121.118 0l1.063 1.174L123.214 0l1.063 1.174L125.34 0l1.033 1.174L127.436 0l1.053 1.174L129.552 0l1.053 1.174L131.668 0l1.032 1.174L133.763 0zm-6.295 12.703c.68.054 1.057.394 1.129 1.022-.09.68-.466 1.04-1.13 1.075-.663-.036-1.012-.394-1.048-1.075.054-.628.403-.968 1.049-1.022zm-.081-2.259c-.484 0-.932.09-1.345.269a3.545 3.545 0 0 0-1.828 1.815 3.11 3.11 0 0 0-.269 1.277c0 .466.09.901.269 1.304a3.422 3.422 0 0 0 3.173 2.03c.484 0 .937-.085 1.358-.255.421-.17.784-.408 1.089-.712.305-.305.547-.66.726-1.063.18-.403.269-.838.269-1.304 0-.448-.09-.874-.27-1.277a3.67 3.67 0 0 0-.725-1.076 3.302 3.302 0 0 0-1.09-.739 3.431 3.431 0 0 0-1.357-.269zm.054-.914a4.17 4.17 0 0 1 1.667.336c.52.224.968.529 1.344.914.377.386.677.834.901 1.345.224.51.336 1.062.336 1.653 0 .592-.112 1.143-.336 1.654a4.31 4.31 0 0 1-.9 1.331A4.267 4.267 0 0 1 127.44 18a4.071 4.071 0 0 1-1.654-.336 4.48 4.48 0 0 1-1.344-.9 4.195 4.195 0 0 1-.915-1.332 4.071 4.071 0 0 1-.336-1.654c0-.591.112-1.142.336-1.653a4.358 4.358 0 0 1 2.259-2.259 4.071 4.071 0 0 1 1.654-.336zM111.656.597a2.12 2.12 0 0 0-.692.109c.031.223.169.569.953.773-.73-.053-1.206-.113-1.453-.307a2.45 2.45 0 0 0-.158.556.297.297 0 0 1-.206.237c-.625.191-1.174 1.112-1.7 1.763-.95 1.173-1.772 2.48-2.688 3.733.423-.207.845-.415 1.27-.622 1.182-.622 2.394-1.11 3.407-1.877.588-.49 1.171-.996 1.39-1.641.076-.497-.296-1.074-.767-1.279a.297.297 0 1 1 .238-.545c.376.164.699.458.904.817a1.986 1.986 0 0 0-.075-.448.297.297 0 0 1-.013-.104c.01-.184.042-.313.082-.422.041-.109.085-.206.158-.459a.297.297 0 0 1 .104-.153 1.546 1.546 0 0 0-.527-.125C111.841.6 111.8.6 111.758.599a.258.258 0 1 1-.102-.002zm-1.194 5.432c-.605.466-1.253.873-1.888 1.28.005.438-.006.879-.047 1.321.207-.135.434-.236.697-.3.392-.636.82-1.22 1.083-1.842a4.64 4.64 0 0 0 .155-.46zm.249 1c-.273.549-.621 1.04-.928 1.529.059.04.112.08.154.121l.027.027c.17-.194.375-.351.614-.454-.01-.348.047-.768.133-1.222zm-2.88.047a25.922 25.922 0 0 0-.588.297c-.78.38-1.56.772-2.35 1.148-.556.67-1.156 1.293-1.734 1.92l1.043.175 2.563-2.786a.297.297 0 0 1 .04-.036c.333-.253.678-.489 1.025-.718zm2.591 2.009c-.058.066-.112.14-.161.222a.298.298 0 0 1-.43.087c-.124-.09-.2-.177-.265-.244l-.077 1.413c.1-.006.201-.013.296-.013.166 0 .313.022.398.108.1-.078.28-.1.504-.1.057 0 .118.002.18.005l-.445-1.478zm5.419.999c-.452.062-.686.323-.704.783h1.395c0-.46-.23-.721-.691-.783zm-7.861-2.39c-.274.182-.541.367-.798.56l-2.402 2.613h2.456c.17-.19.518-.365.776-.365.073 0 .14.014.192.046.081-.007.167-.01.256-.01.14 0 .285.007.433.016l.083-1.506c-.225.115-.407.282-.625.542a.297.297 0 0 1-.52-.246c.1-.544.141-1.093.149-1.65zm6.24 3.745l.266.465h1.249l.252-.465zm-4.515 0v2.51l1.726-2.51zM111.648 0a3.878 3.878 0 0 1 .273.01c.694.044 1.215.325 1.408.768a.298.298 0 0 1-.341.408l-.025-.006-.03.007-.108.029c-.054.168-.096.269-.12.332a.541.541 0 0 0-.042.2 3.1 3.1 0 0 1 .037 1.389c-.095.466-.384.977-.761 1.46a.295.295 0 0 1-.014.108 21.24 21.24 0 0 0-.548 2.027c-.152.708-.234 1.387-.192 1.684a.297.297 0 0 1-.223.33l-.019.005.527 1.75c.086-.013.172-.018.259-.018.256 0 .51.041.712.041a.865.865 0 0 0 .184-.016.314.314 0 0 1 .068-.007c.212 0 .656.13.787.366h1.1c.061-.797.482-1.235 1.26-1.315.789.08 1.196.518 1.223 1.315v.572h-.531l-.545 1.01h-1.767l-.53-1.01h-1.568l-2.404 3.493V18h-.571v-6.561h-4.517v-.41l-.099.109a.297.297 0 0 1-.268.092l-1.74-.292a.298.298 0 0 1-.173-.492c.217-.242.436-.48.656-.716l-1.656 1.078a.296.296 0 0 1-.412-.087.297.297 0 0 1 .087-.411l1.345-.876a.292.292 0 0 1-.076-.09.315.315 0 0 1-.02-.237c.016-.05.034-.074.048-.093.055-.076.084-.088.123-.119.04-.03.084-.06.131-.094.096-.065.206-.137.301-.2a4.156 4.156 0 0 0 .216-.156l2.379-1.672.008-.005c.805-1.13 1.568-2.316 2.457-3.414.433-.535.937-1.524 1.812-1.894.048-.262.157-.68.483-.997.353-.344.864-.463 1.416-.463z"/><path d="M91.207.375v17.25M98.895.375c-9.625 0-9.625 17.25 0 17.25m0 0" fill="none" stroke="#000"/><path d="M83.237.597a2.12 2.12 0 0 0-.692.109c.032.223.17.569.953.773-.73-.053-1.206-.113-1.452-.307-.089.2-.137.427-.158.556a.297.297 0 0 1-.207.237c-.624.191-1.173 1.112-1.7 1.763-.95 1.173-1.771 2.48-2.688 3.733l1.27-.622c1.182-.622 2.395-1.11 3.407-1.877.589-.49 1.172-.996 1.391-1.641.076-.497-.297-1.074-.768-1.279a.297.297 0 1 1 .238-.545c.377.164.7.458.904.817a1.986 1.986 0 0 0-.074-.448.297.297 0 0 1-.013-.104c.01-.184.041-.313.082-.422.04-.109.085-.206.158-.459a.297.297 0 0 1 .104-.153 1.546 1.546 0 0 0-.527-.125C83.422.6 83.38.6 83.34.599a.258.258 0 1 1-.103-.002zm-1.193 5.432c-.606.466-1.253.873-1.888 1.28.005.438-.006.879-.047 1.321.207-.135.434-.236.697-.3.391-.636.82-1.22 1.082-1.842.055-.129.106-.29.156-.46zm.249 1c-.273.549-.622 1.04-.929 1.529.06.04.112.08.155.121l.027.027a1.72 1.72 0 0 1 .613-.454c-.009-.348.048-.768.134-1.222zm-2.881.047a25.922 25.922 0 0 0-.588.297c-.78.38-1.56.772-2.349 1.148-.556.67-1.156 1.293-1.734 1.92l1.043.175 2.563-2.786a.297.297 0 0 1 .039-.036 18.5 18.5 0 0 1 1.026-.718zm2.592 2.009c-.058.066-.112.14-.162.222a.298.298 0 0 1-.429.087c-.125-.09-.2-.177-.265-.244l-.078 1.413c.1-.006.202-.013.296-.013.167 0 .314.022.398.108.1-.078.28-.1.504-.1.058 0 .118.002.181.005l-.445-1.478zm5.419.999c-.452.062-.687.323-.704.783h1.394c0-.46-.23-.721-.69-.783zm-7.861-2.39a16.38 16.38 0 0 0-.798.56l-2.403 2.613h2.457c.17-.19.518-.365.776-.365.073 0 .139.014.191.046.082-.007.168-.01.256-.01.14 0 .286.007.434.016l.083-1.506c-.225.115-.408.282-.626.542a.297.297 0 0 1-.52-.246 9.773 9.773 0 0 0 .15-1.65zm6.24 3.745l.266.465h1.248l.253-.465zm-4.516 0v2.51l1.727-2.51zM83.23 0a3.878 3.878 0 0 1 .273.01c.694.044 1.215.325 1.407.768a.298.298 0 0 1-.34.408l-.025-.006-.03.007-.108.029c-.054.168-.096.269-.12.332a.541.541 0 0 0-.042.2c.154.552.094 1.107.037 1.389-.096.466-.384.977-.762 1.46a.295.295 0 0 1-.014.108 21.85 21.85 0 0 0-.548 2.027c-.152.708-.233 1.387-.192 1.684a.297.297 0 0 1-.223.33l-.018.005.527 1.75c.085-.013.172-.018.259-.018.256 0 .509.041.712.041a.865.865 0 0 0 .183-.016.314.314 0 0 1 .069-.007c.211 0 .656.13.786.366h1.1c.062-.797.482-1.235 1.262-1.315.788.08 1.195.518 1.222 1.315v.572h-.532l-.544 1.01h-1.767l-.531-1.01h-1.567l-2.405 3.493V18h-.57v-6.561h-4.517v-.41l-.1.109a.297.297 0 0 1-.267.092l-1.74-.292a.298.298 0 0 1-.173-.492c.216-.242.436-.48.656-.716l-1.657 1.078a.296.296 0 0 1-.411-.087.297.297 0 0 1 .087-.411l1.345-.876a.292.292 0 0 1-.077-.09.315.315 0 0 1-.02-.237.305.305 0 0 1 .048-.093c.056-.076.084-.088.124-.119l.13-.094c.096-.065.207-.137.302-.2a4.156 4.156 0 0 0 .216-.156l2.378-1.672.008-.005c.806-1.13 1.568-2.316 2.457-3.414.433-.535.938-1.524 1.812-1.894.049-.262.157-.68.484-.997C82.167.119 82.678 0 83.23 0zM50.646 0l-2.17 2.17v.707l2.7-2.7.178-.177zm3 0l-5.17 5.17v.707l5.7-5.7.178-.177zm3 0l-8.17 8.17v.707l8.7-8.7.178-.177zm3 0l-11.17 11.17v.707l11.7-11.7.178-.177zm3 0l-14.17 14.17v.707l14.7-14.7.178-.177zm3 0l-17.17 17.17v.707l17.7-17.7.178-.177zm3 0L50.823 17.823l-.177.177h.708L69.177.177 69.354 0zm1.83 1.17L53.823 17.823l-.177.177h.708L70.476 1.877V1.17zm0 3L56.823 17.823l-.177.177h.708L70.476 4.877V4.17zm0 3L59.823 17.823l-.177.177h.708L70.476 7.877V7.17zm0 3l-7.653 7.653-.177.177h.708l7.122-7.123v-.707zm0 3l-4.653 4.653-.177.177h.708l4.122-4.123v-.707zm0 3l-1.653 1.653-.177.177h.708l1.122-1.123v-.707z"/><path d="M71.646 0l-1.17 1.17v.707l1.7-1.7.178-.177zm.83 2.17l-2 2v.707l2-2V2.17zm0 3l-2 2v.707l2-2V5.17zm0 3l-2 2v.707l2-2V8.17zm0 3l-2 2v.707l2-2v-.707zm0 3l-2 2v.707l2-2v-.707zm0 3l-.653.653-.177.177h.708l.122-.123v-.707zm-26-11.845v7.35h-.735v-7.35zm-4.37 0v7.35h-.735v-7.35zm-4.37 0v7.35H37v-7.35zM2.646 0L0 2.646v.708L3.177.177 3.354 0zm3 0L0 5.646v.708L6.177.177 6.354 0zm3 0L0 8.646v.708L9.177.177 9.354 0zm3 0L0 11.646v.708L12.177.177 12.354 0zm3 0L0 14.646v.708L15.177.177 15.354 0zm3 0L0 17.646V18h.354L18.177.177 18.354 0zm3 0L2.823 17.823 2.646 18h.708L21.177.177 21.354 0zM22 1.646L5.823 17.823 5.646 18h.708L22 2.354v-.708zm0 3L8.823 17.823 8.646 18h.708L22 5.354v-.708zm0 3L11.823 17.823l-.177.177h.708L22 8.354v-.708zm0 3l-7.177 7.177-.177.177h.708L22 11.354v-.708zm0 3l-4.177 4.177-.177.177h.708L22 14.354v-.708zm0 3l-1.177 1.177-.177.177h.708l.646-.646v-.708z"/></svg>