<svg xmlns="http://www.w3.org/2000/svg" width="316.726" height="18"><path d="M315.08 0c.335 0 .67.026.994.066.447.113.217.626-.18.626a.476.476 0 0 1-.082-.008c-.839.097-1.872.15-2.506.626-.84.916-.463 2.821-.56 3.725-.008.05-.01 3.653-.01 5.48a6.145 6.145 0 0 1 2.634-.586c.402 0 .801.04 1.188.117.44.231-.077.528-.423.528a.454.454 0 0 1-.114-.013c-1.226.133-2.62.461-3.243 1.602-.062.206-.023.277.07.277.207 0 .68-.342.947-.342.014 0 .027 0 .04.003a7.535 7.535 0 0 1 1.58-.169c.39 0 .776.031 1.149.095.42.278-.096.534-.438.534a.532.532 0 0 1-.105-.01c-1.252.151-2.637.49-3.243 1.633-.007 1.27 0 2.11-.034 3.278.015.36-.22.538-.456.538-.235 0-.473-.176-.474-.526.008-1.15.09-2.161-.06-3.277-.305-1.253-2.478-1.445-3.827-1.754-.295-.347.285-.475.658-.475.056 0 .107.003.15.008.173-.013.347-.02.522-.02.882 0 1.77.175 2.557.58.032-.755-.712-1.19-1.244-1.493-.84-.361-1.766-.397-2.643-.59-.314-.273.18-.501.52-.501a.58.58 0 0 1 .126.012c.215-.02.431-.031.648-.031.902 0 1.804.183 2.614.582-.017-2.851-.063-5.61.019-8.308.066-.834.546-1.6 1.354-1.849.58-.264 1.227-.358 1.871-.358z"/><path d="M308.646 0l-.818.819v.707l1.349-1.35.177-.176zm3 0l-3.818 3.819v.707l4.349-4.35.177-.176zm3 0l-6.818 6.819v.707l7.349-7.35.177-.176zm2.08.92l-8.898 8.899v.707l8.898-8.899V.92zm0 3l-8.898 8.899v.707l8.898-8.899V3.92zm0 3l-8.898 8.899v.707l8.898-8.899V6.92zm0 3l-7.903 7.903-.177.177h.708l7.372-7.373V9.92zm0 3l-4.903 4.903-.177.177h.708l4.372-4.373v-.707zm0 3l-1.903 1.903-.177.177h.708l1.372-1.373v-.707zm.92-15.92l-.92.92v.707l1.45-1.45.178-.177zm1.115 1.885l-2.035 2.035v.707l2.035-2.035v-.707zm0 3l-2.035 2.035v.707l2.035-2.035v-.707zm0 3l-2.035 2.035v.707l2.035-2.035v-.707zm0 3l-2.035 2.035v.707l2.035-2.035v-.707zm0 3l-2.035 2.035v.707l2.035-2.035v-.707zm0 3l-.938.938-.177.177h.708l.407-.408v-.707zM297.45.601c-1.074 0-2.418.552-3.069 1.202-.569.57-.643 1.324-.664 2.025h7.435c-.021-.7-.096-1.455-.665-2.025-.65-.65-1.963-1.202-3.037-1.202zm0-.601c1.274 0 2.645.589 3.449 1.392.824.824.917 1.91.917 2.72v.317h-8.732v-.316c0-.812.062-1.897.886-2.72C294.773.588 296.176 0 297.45 0zm6.323 15.57l2.055 2.43h-1.002l-1.053-1.255L302.71 18l-1.033-1.255L300.614 18l-1.053-1.255L298.498 18l-1.053-1.255L296.382 18l-1.033-1.255L294.286 18l-1.063-1.255L292.191 18l-1.063-1.255L290.075 18h-1.003l2.056-2.43 1.063 1.175 1.032-1.175 1.063 1.175 1.063-1.175 1.033 1.175 1.063-1.175 1.053 1.175 1.063-1.175 1.053 1.175 1.063-1.175 1.033 1.175 1.063-1.175z"/><path d="M290.646 0l-1.574 1.574v.707l2.105-2.104.177-.177zm3 0l-4.574 4.574v.707l5.105-5.104.177-.177zm3 0l-7.574 7.574v.707l8.105-8.104.177-.177zm3 0l-10.574 10.574v.707L300.177.177l.177-.177zm3 0l-13.574 13.574v.707L303.177.177l.177-.177zm3 0l-16.574 16.574v.707L305.828.526V0zm.182 2.819l-15.005 15.004-.177.177h.708l14.474-14.474v-.707zm0 3l-12.005 12.004-.177.177h.708l11.474-11.474v-.707zm0 3l-9.005 9.004-.177.177h.708l8.474-8.474v-.707zm0 3l-6.005 6.004-.177.177h.708l5.474-5.474v-.707zm0 3l-3.005 3.004-.177.177h.708l2.474-2.474v-.707z"/><path d="M305.828 0v.526l.349-.35.177-.176zm2 .819l-2 2v.707l2-2V.819zm0 3l-2 2v.707l2-2v-.707zm0 3l-2 2v.707l2-2v-.707zm0 3l-2 2v.707l2-2v-.707zm0 3l-2 2v.707l2-2v-.707zm0 3l-2 2V18h.526l1.474-1.474v-.707zM284.997 1.124q-2.015.293-2.106 1.842v11.177q.942-1.124 3.382-1.58l-1.276-11.44zM285.564 0l1.508 13.363q-3.36.385-4.18 2.4V18h-1.003V2.966q0-2.51 3.675-2.966z"/><path d="M281.889 0v.465l.288-.288.177-.177zm2.757 0l-2.757 2.757v.708l3.288-3.288.177-.177zm2.426.574l-5.183 5.183v.708l5.183-5.184V.574zm0 3l-5.183 5.183v.708l5.183-5.184v-.707zm0 3l-5.183 5.183v.708l5.183-5.184v-.707zm0 3l-5.183 5.183v.708l5.183-5.184v-.707zm0 3l-5.183 5.183V18h.465l4.718-4.719v-.707zm0 3l-2.249 2.25-.177.176h.708l1.718-1.719v-.707zM287.646 0l-.574.574v.707l1.105-1.104.177-.177zm1.426 1.574l-2 2v.707l2-2v-.707zm0 3l-2 2v.707l2-2v-.707zm0 3l-2 2v.707l2-2v-.707zm0 3l-2 2v.707l2-2v-.707zm0 3l-2 2v.707l2-2v-.707zm0 3l-1.249 1.25-.177.176h.708l.718-.719v-.707zm-11.258-15.45q-2.015.293-2.106 1.842v11.177q.941-1.124 3.381-1.58l-1.275-11.44zM278.38 0l1.508 13.363q-3.361.385-4.181 2.4V18h-1.002V2.966q0-2.51 3.675-2.966z"/><path d="M275.646 0l-.94.94v.708l1.47-1.471.178-.177zm3 0l-3.94 3.94v.708l4.47-4.471.178-.177zm1.243 1.757l-5.183 5.184v.707l5.183-5.183v-.708zm0 3l-5.183 5.184v.707l5.183-5.183v-.708zm0 3l-5.183 5.184v.707l5.183-5.183v-.708zm0 3l-5.183 5.184v.707l5.183-5.183v-.708zm0 3l-4.066 4.066-.177.177h.708l3.535-3.535v-.708zm0 3l-1.066 1.066-.177.177h.708l.535-.535v-.708z"/><path d="M281.646 0l-1.757 1.757v.708l2-2V0zm.243 2.757l-2 2v.708l2-2v-.708zm0 3l-2 2v.708l2-2v-.708zm0 3l-2 2v.708l2-2v-.708zm0 3l-2 2v.708l2-2v-.708zm0 3l-2 2v.708l2-2v-.708zM263.56.601c-1.074 0-2.419.552-3.07 1.202-.568.57-.643 1.324-.664 2.025h7.435c-.02-.7-.095-1.455-.664-2.025-.65-.65-1.963-1.202-3.037-1.202zm0-.601c1.274 0 2.645.589 3.448 1.392.824.824.918 1.91.918 2.72v.317h-8.732v-.316c0-.812.061-1.897.886-2.72C260.883.588 262.286 0 263.56 0zm-.115 14.915c-.296 0-.475.05-.567.103-.27.172-.141.583-.098.84h1.33c.032-.263.177-.663-.098-.84-.092-.052-.27-.103-.567-.103zm7.39 1.552v.924h1.262v-.924zm-6.556 0v.924h6.252v-.924zm-1.52 0v.924h1.216v-.924zm-6.105 0v.924h5.8v-.924zm-1.632 0v.924h1.329v-.924zm11.094-2.476l.43.431-1.44 1.436h7.6V18h-18.292v-2.142h7.37l-1.44-1.436.43-.43 1.331 1.326c.08-.804.631-.989 1.34-1.012.757.02 1.222.192 1.34 1.012l1.33-1.327z"/><path d="M254.646 0l-.232.233V.94l.763-.763.177-.177zm3 0l-3.232 3.233v.707l3.763-3.763.177-.177zm3 0l-6.232 6.233v.707l6.763-6.763.177-.177zm3 0l-9.232 9.233v.707l9.763-9.763.177-.177zm3 0l-12.232 12.233v.707L267.177.177l.177-.177zm3 0l-15.232 15.233v.707L270.177.177l.177-.177zm3 0l-17.823 17.823-.177.177h.708L272.706.648V0zm.06 2.94l-14.883 14.883-.177.177h.708l14.352-14.352v-.707zm0 3l-11.883 11.883-.177.177h.708l11.352-11.352v-.707zm0 3l-8.883 8.883-.177.177h.708l8.352-8.352V8.94zm0 3l-5.883 5.883-.177.177h.708l5.352-5.352v-.707zm0 3l-2.883 2.883-.177.177h.708l2.352-2.352v-.707zm0-14.94v.648l.47-.471.178-.177zm2 .94l-2 2v.708l2-2V.941zm0 3l-2 2v.708l2-2v-.707zm0 3l-2 2v.708l2-2v-.707zm0 3l-2 2v.708l2-2v-.707zm0 3l-2 2v.708l2-2v-.707zm0 3l-1.883 1.883-.117.118V18h.648l1.352-1.352v-.707zM247.007.597a2.12 2.12 0 0 0-.692.109c.03.223.168.569.952.773-.73-.053-1.206-.113-1.452-.307-.089.2-.137.427-.158.556a.297.297 0 0 1-.206.237c-.625.191-1.174 1.112-1.701 1.763-.95 1.173-1.77 2.48-2.687 3.733.423-.207.845-.415 1.27-.622 1.181-.622 2.394-1.11 3.406-1.877.589-.49 1.172-.996 1.391-1.641.076-.497-.296-1.074-.767-1.279a.297.297 0 1 1 .237-.545c.377.164.7.458.904.817a1.986 1.986 0 0 0-.074-.448.297.297 0 0 1-.013-.104c.01-.184.041-.313.082-.422.04-.109.085-.206.158-.459a.297.297 0 0 1 .104-.153 1.546 1.546 0 0 0-.527-.125c-.043-.003-.083-.003-.125-.004a.258.258 0 1 1-.102-.002zm-1.194 5.432c-.605.466-1.253.873-1.888 1.28.005.438-.006.879-.047 1.321.207-.135.434-.236.697-.3.391-.636.82-1.22 1.083-1.842a4.64 4.64 0 0 0 .155-.46zm.249 1c-.273.549-.622 1.04-.929 1.529.06.04.112.08.155.121l.027.027c.169-.194.375-.351.614-.454-.01-.348.047-.768.133-1.222zm-2.88.047a25.922 25.922 0 0 0-.588.297c-.78.38-1.56.772-2.35 1.148-.556.67-1.156 1.293-1.734 1.92l1.043.175 2.563-2.786a.297.297 0 0 1 .04-.036c.333-.253.678-.489 1.025-.718zm2.591 2.009c-.058.066-.112.14-.162.222a.298.298 0 0 1-.429.087c-.125-.09-.2-.177-.265-.244l-.078 1.413c.1-.006.202-.013.297-.013.166 0 .313.022.397.108.1-.078.28-.1.505-.1.057 0 .118.002.18.005l-.445-1.478zm5.419.999c-.452.062-.686.323-.704.783h1.394c0-.46-.23-.721-.69-.783zm-7.861-2.39a16.38 16.38 0 0 0-.798.56l-2.403 2.613h2.457c.17-.19.518-.365.776-.365.073 0 .139.014.191.046.082-.007.168-.01.257-.01.139 0 .285.007.433.016l.083-1.506c-.225.115-.407.282-.626.542a.297.297 0 0 1-.52-.246 9.773 9.773 0 0 0 .15-1.65zm6.24 3.745l.266.465h1.248l.253-.465zm-4.516 0v2.51l1.727-2.51zM247 0a3.878 3.878 0 0 1 .273.01c.694.044 1.215.325 1.407.768a.298.298 0 0 1-.34.408l-.025-.006-.03.007-.108.029c-.054.168-.096.269-.12.332a.541.541 0 0 0-.042.2c.155.552.094 1.107.037 1.389-.095.466-.384.977-.762 1.46a.295.295 0 0 1-.014.108 21.555 21.555 0 0 0-.547 2.027c-.153.708-.234 1.387-.193 1.684a.297.297 0 0 1-.223.33l-.018.005.527 1.75c.085-.013.172-.018.259-.018.256 0 .51.041.712.041a.865.865 0 0 0 .184-.016.314.314 0 0 1 .068-.007c.212 0 .656.13.787.366h1.099c.062-.797.482-1.235 1.262-1.315.788.08 1.195.518 1.222 1.315v.572h-.532l-.544 1.01h-1.767l-.531-1.01h-1.567l-2.404 3.493V18h-.572v-6.561h-4.516v-.41l-.1.109a.297.297 0 0 1-.267.092l-1.74-.292a.298.298 0 0 1-.173-.492c.217-.242.436-.48.656-.716l-1.656 1.078a.296.296 0 0 1-.412-.087.297.297 0 0 1 .087-.411l1.345-.876a.292.292 0 0 1-.076-.09.315.315 0 0 1-.02-.237c.016-.05.034-.074.047-.093.056-.076.085-.088.124-.119.04-.03.083-.06.131-.094l.3-.2a4.156 4.156 0 0 0 .217-.156l2.379-1.672.008-.005c.805-1.13 1.567-2.316 2.456-3.414.433-.535.938-1.524 1.813-1.894.048-.262.156-.68.483-.997C245.936.119 246.447 0 247 0z"/><path d="M236.646 0l-.4.401v.707l.93-.931.178-.177zm3 0l-3.4 3.401v.707l3.93-3.931.178-.177zm3 0l-6.4 6.401v.707l6.93-6.931.178-.177zm3 0l-9.4 9.401v.707l9.93-9.931.178-.177zm3 0l-12.4 12.401v.707L249.175.177l.178-.177zm3 0l-15.4 15.401v.707L252.175.177l.178-.177zm.768 2.233l-15.59 15.59-.178.177h.708l15.06-15.06v-.707zm0 3l-12.59 12.59-.178.177h.708l12.06-12.06v-.707zm0 3l-9.59 9.59-.178.177h.708l9.06-9.06v-.707zm0 3l-6.59 6.59-.178.177h.708l6.06-6.06v-.707zm0 3l-3.59 3.59-.178.177h.708l3.06-3.06v-.707zm0 3l-.59.59-.178.177h.708l.06-.06v-.707zM254.456.19l-2.042 2.043v.707l2.042-2.043V.19zm0 3l-2.042 2.043v.707l2.042-2.043V3.19zm0 3l-2.042 2.043v.707l2.042-2.043V6.19zm0 3l-2.042 2.043v.707l2.042-2.043V9.19zm0 3l-2.042 2.043v.707l2.042-2.043v-.707zm0 3l-2.042 2.043v.707l2.042-2.043v-.707zM234.245 0v1.21h-6.564V0zm0 8.32v1.21h-6.544V8.32zm0 8.47V18h-6.544v-1.21z"/><path d="M227.68 0v.673l.497-.496.177-.177zm2.966 0l-2.965 2.966v.707l3.496-3.496.177-.177zm3 0l-5.965 5.966v.707l6.496-6.496.068-.069V0zm.6 2.401l-6.565 6.565v.707l6.564-6.565v-.707zm0 3l-6.565 6.565v.707l6.564-6.565v-.707zm0 3l-6.565 6.565v.707l6.564-6.565v-.707zm0 3l-6.423 6.422-.142.143V18h.673l5.891-5.892v-.707zm0 3l-3.423 3.422-.177.177h.708l2.891-2.892v-.707zm0 3l-.423.422-.177.177h.6v-.599z"/><path d="M236.253.393l-2.008 2.008v.707l2.008-2.008V.393zm0 3l-2.008 2.008v.707l2.008-2.008v-.707zm0 3l-2.008 2.008v.707l2.008-2.008v-.707zm0 3l-2.008 2.008v.707l2.008-2.008v-.707zm0 3l-2.008 2.008v.707l2.008-2.008v-.707zm0 3l-2.008 2.008V18h.109l1.9-1.9v-.707zM220.725 1.844h.003c.115.002.206.103.204.225-.003.12-.095.217-.208.217a.2.2 0 0 1-.003 0c-.115-.002-.206-.103-.204-.225l.208.004-.208-.005c.003-.12.095-.216.208-.216zm-.038-.036a.812.812 0 0 0-.474.296l-.093.184v.001c-.018.213.06.537.176.857a.66.66 0 0 1 .1-.31.712.712 0 0 1 .302-.247c.204-.097.388-.139.594-.27a.297.297 0 0 1 .13-.046l.105-.01a.297.297 0 0 1-.139-.178l.005.02c-.001 0-.013-.021-.043-.045a1.082 1.082 0 0 0-.204-.12 1.56 1.56 0 0 0-.459-.132zm-1.524.383a1.496 1.496 0 0 0-.765.524c-.237.309-.367.74-.45 1.24l.872-.08a2.965 2.965 0 0 1 .044-1.215c.048-.172.15-.327.299-.469zm.651 4.058c-.18.021-.36.036-.532.044-1.665.074-3.355.809-4.318 1.556-1.057.82-2.294 1.473-3.52 1.984a14.847 14.847 0 0 0 1.617.078c.101.004.203.006.305.006 1.876 0 3.767-.593 5.231-1.76a3.765 3.765 0 0 0 1.217-1.908zm1.646-.71a.574.574 0 0 1-.276.326 3.212 3.212 0 0 1-.74.271c-.154.963-.745 1.9-1.476 2.486-1.582 1.26-3.6 1.889-5.6 1.889a9.543 9.543 0 0 1-.372-.006c-.891 0-1.779-.065-2.664-.237l.002-.007c-.59.21-1.163.388-1.697.537.882-.059 1.8-.258 2.754-.287.099-.003.198-.004.297-.004.896 0 1.778.112 2.616.127h.111c2.374 0 4.342-1.36 6.245-3.196.44-.425.771-1.271.8-1.899zm-10.31 5.58c-.702.046-1.423.178-2.164.248-.212.147-.44.263-.626.38-.146.09-.248.179-.31.251a.834.834 0 0 0 .09.023c.1.019.225.027.341.027.115 0 .22-.008.288-.021.23-.045.854-.192 1.452-.423a4.38 4.38 0 0 0 .928-.485zm9.533-9.905h.015c.229.004.468.08.7.188.115.053.225.116.323.194a.803.803 0 0 1 .159.16c.31.082.697.116 1.095.164.448.054.916.125 1.32.372.657.4 1.149 1.154 1.373 1.887a.297.297 0 0 1-.534.247c-.685-1.07-1.144-1.381-1.65-1.495a5.399 5.399 0 0 0-1.156-.11c-.252 0-.515.012-.781.037-.262.155-.492.22-.594.268-.051.024-.061.036-.061.036s-.009.011-.005.08c.01.154.233.485.516.837.283.352.619.735.65 1.235.054.861-.322 1.916-.98 2.552a18.43 18.43 0 0 1-1.89 1.615c-.139.905-.315 2.167-.422 3.05.242 1.111.845 2.098 1.15 3.188.093.204.312.288.526.288a.808.808 0 0 0 .2-.025c.31-.045.623-.09.935-.09a2.772 2.772 0 0 1 .314.016c.215 0 .939.288.83.692-.033.091-.671.132-1.351.132a12.5 12.5 0 0 1-1.35-.062.515.515 0 0 1-.081.006.61.61 0 0 1-.59-.518c-.403-1.114-.877-2.2-1.274-3.317-.004-.96.255-1.893.351-2.844-.467.29-.95.538-1.449.734-.228.457-1.259 1.915-1.64 2.485l-.204 2.9c.536-.02 1.064-.17 1.6-.17.069 0 .138.003.207.009.417 0 .55.817.235.817a.21.21 0 0 1-.039-.004c-.61.006-1.219.018-1.828.018-.2 0-.399-.001-.598-.005-.207-.031-.327-.277-.267-.469l.237-3.282c.21-.386.826-1.3 1.292-1.982a6.744 6.744 0 0 1-1.674.18c-.772-.014-1.542-.1-2.29-.121-.316.513-.952.813-1.568 1.051-.648.25-1.285.4-1.552.452a2.12 2.12 0 0 1-.401.036c-.148 0-.303-.013-.451-.041a1.033 1.033 0 0 1-.415-.154.507.507 0 0 1-.179-.203.47.47 0 0 1-.023-.315c.074-.255.246-.425.436-.561l-.036-.004a1.73 1.73 0 0 1-.292-.064.588.588 0 0 1-.142-.065.333.333 0 0 1-.165-.23.344.344 0 0 1 .084-.297.522.522 0 0 1 .124-.104c.081-.051.167-.09.262-.13.188-.077.404-.146.564-.189 1.938-.52 4.484-1.46 6.351-2.91 1.076-.834 2.838-1.598 4.655-1.68.578-.026 1.25-.145 1.65-.358a.065.065 0 0 1-.018.008c-.009 0 .025-.033.037-.091.016-.074.001-.17.001-.17-.064-.146-.222-.32-.412-.513-.19-.193-.41-.405-.551-.695-.173-.351-.367-.782-.426-1.22a.552.552 0 0 0-.1.159c-.056.201-.05.983.037 1.213a.297.297 0 0 1-.25.401l-1.594.149a.298.298 0 0 1-.323-.331c.082-.69.212-1.366.622-1.898.405-.528 1.085-.86 2.094-.884.191-.143.406-.255.66-.255z"/><path d="M209.646 0l-2.436 2.437v.707l2.967-2.967.177-.177zm3 0l-5.436 5.437v.707l5.967-5.967.177-.177zm3 0l-8.436 8.437v.707l8.967-8.967.177-.177zm3 0L207.21 11.437v.707L219.177.177l.177-.177zm3 0L207.21 14.437v.707L222.177.177l.177-.177zm3 0L207.21 17.437V18h.144L225.177.177l.177-.177zm1.035 1.966l-15.858 15.857-.177.177h.708L225.68 2.673v-.707zm0 3l-12.858 12.857-.177.177h.708L225.68 5.673v-.707zm0 3l-9.858 9.857-.177.177h.708l9.327-9.327v-.707zm0 3l-6.858 6.857-.177.177h.708l6.327-6.327v-.707zm0 3l-3.858 3.857-.177.177h.708l3.327-3.327v-.707zm0 3l-.858.857-.177.177h.708l.327-.327v-.707zM227.646 0l-1.965 1.966v.707l2-2V0zm.035 2.966l-2 2v.707l2-2v-.707zm0 3l-2 2v.707l2-2v-.707zm0 3l-2 2v.707l2-2v-.707zm0 3l-2 2v.707l2-2v-.707zm0 3l-2 2v.707l2-2v-.707zM200.833 5.23c-1.19 0-2.251.55-2.942 1.41h5.883a3.761 3.761 0 0 0-2.941-1.41zm-3.34 2.017a3.75 3.75 0 0 0-.416 1.425h7.511a3.75 3.75 0 0 0-.416-1.425zm-.42 2.033c.037.51.175.991.395 1.424h6.73a3.75 3.75 0 0 0 .394-1.424zm.78 2.032a3.762 3.762 0 0 0 2.98 1.458 3.76 3.76 0 0 0 2.979-1.458zm2.98-6.69A4.383 4.383 0 0 1 205.21 9a4.383 4.383 0 0 1-4.377 4.377A4.383 4.383 0 0 1 196.455 9a4.383 4.383 0 0 1 4.378-4.377zm-9.243.368c.11 0 .222.011.333.021 1.61.172 2.754 1.802 2.501 3.382-.111 1.174-.84 1.832-1.64 2.48-2.38 1.458-1.711.921-4.11 2.136l-.385-.719c2.855-1.336 3.199-1.549 4.09-2.136.729-.587 1.306-1.235 1.255-2.217.02-.678-.384-1.377-.84-1.711a2.186 2.186 0 0 0-1.286-.435c-.344 0-.668.08-.951.283-.72.354-1.114 1.529-.588 2.268.243.354.679.597 1.114.597.213 0 .425-.06.607-.192.365-.203.638-.911.264-1.306.172-.182.415-.405.597-.405.122 0 .213.091.273.304.405.972-.243 2.075-1.215 2.338a1.83 1.83 0 0 1-.516.081c-1.114 0-2.146-.931-2.146-2.085-.101-1.347.972-2.582 2.318-2.663.101-.01.213-.02.324-.02zm-13.561-3.718c.038 0 .074.004.106.013.075.02.123.047.143.082.02.034.017.078-.01.133a.596.596 0 0 0-.261-.073.31.31 0 0 0-.087.011 1.54 1.54 0 0 0-.266.103 1.114 1.114 0 0 1-.39.082l-.02-.103a.758.758 0 0 0 .317-.102c.09-.055.188-.096.297-.123a.709.709 0 0 1 .17-.023zm.096.31c.027.054.02.102-.02.143a.252.252 0 0 0 .142-.041.31.31 0 0 0-.122-.102zm-.185 0l-.184.082c.068.027.137.047.205.061-.055-.041-.062-.089-.02-.143zm.094-.083a.31.31 0 0 1 .213.083l.144.123-.041.06-.082-.04a.496.496 0 0 1-.264.077.675.675 0 0 1-.33-.097l-.348.06-.123.021v-.122h.246l.246-.041a.648.648 0 0 1 .34-.124zM177.107.33c-.082 0-.17.007-.262.022-.526.082-.922.287-1.188.614-.266.328-.365 1.14-.297 2.437h.717c.56-.56.676-1.003.348-1.33-.287-.247-.41-.468-.369-.666.041-.198.144-.308.307-.328a.525.525 0 0 1 .066-.004c.133 0 .241.056.324.168.042.057.077.086.106.086.037 0 .063-.046.078-.137.027-.164.348-.294.962-.39-.146-.314-.41-.472-.792-.472zm1.059.739c-.601.054-.956.201-1.065.44-.056.121-.122.182-.198.182-.074 0-.159-.057-.253-.172-.06-.13-.12-.196-.174-.196-.032 0-.062.021-.092.063-.082.116.02.304.307.563.396.423.266.976-.389 1.659.133.113.26.17.383.17.13 0 .255-.064.375-.19.054-.342.184-.547.389-.615.136-.045.283-.068.441-.068.08 0 .16.006.245.017.074.01.136.015.186.015.12 0 .171-.029.152-.087-.028-.082-.02-.15.02-.205.037-.048 0-.072-.109-.072a.937.937 0 0 0-.072.002c-.124 0-.18-.045-.167-.134h.225a.367.367 0 0 1 .185-.123c-.069-.096-.014-.178.163-.246l-.45-.553.061-.164-.163-.286zm-2.11 2.805c-.314.123-.47.376-.47.758.253.278.568.417.944.417.05 0 .1-.003.15-.008.445-.04.735-.157.871-.348l-.286-.819c-.171.178-.357.266-.559.266-.2 0-.418-.088-.65-.266zm6.226-1.986l1.76 4.935.902-.532-2.662-4.403zm-1.949 4.064a1.76 1.76 0 0 0-.181.01c-.26.028-.457.1-.594.216a5.455 5.455 0 0 1-.348.276h-.778l.02.39 1.659-.062c.205-.095.273-.266.205-.512.177-.082.26-.16.245-.235-.01-.055-.086-.083-.228-.083zm-1.86 1.22l.02.286.167.003c.287 0 .474-.032.56-.095a1.42 1.42 0 0 1 .42-.195zm1.597.224c-.341.096-.56.181-.655.256-.096.075-.39.127-.88.154l-.021.41 1.413.102c.177-.11.225-.287.143-.533.205-.081.304-.163.297-.245-.007-.082-.106-.13-.297-.144zm-5.16 1.209v2.375l.532 2.048c-.642.6-.901 1.341-.778 2.222.123.88.184 1.566.184 2.058h1.044c.014-.3-.232-.512-.737-.635-.15-1.57.103-2.655.758-3.256.177-.205.28-.39.307-.553.027-.164-.068-.642-.287-1.433v-.02h5.53c0-.26-.09-.404-.267-.43h-4.607c-.765 0-1.229-.65-1.393-1.946v-.43zm.675-3.523v3.113c-.054 1.584.383 2.302 1.31 2.329h4.24c.614.082.853.518.717 1.132a7.186 7.186 0 0 0 .215 2.11c.17.64.378 1.357.624 2.15v.696c-.3.532-.218.84.246.921h2.519v-.02c-.737-.205-1.243-.45-1.516-.738-.518-.314-.778-.716-.778-1.208-.027-1.229-.136-2.696-.327-4.403.068-.737-.171-1.16-.717-1.27-.423-.177-.98-.33-1.67-.46a25.249 25.249 0 0 0-2.364-.317c.095-1.543-.034-2.86-.39-3.953-.272.164-.638.253-1.095.267h-.071c-.422 0-.736-.116-.943-.349zM177.146 0c.669 0 1.131.411 1.388 1.234l.02.225.44.583c.049.062-.023.133-.214.215l.02.103-.061.04c.095.069.082.124-.041.165.068.068.068.136 0 .204.082.123.075.24-.02.348l.102.308h-.553l.02-.185a2.447 2.447 0 0 0-.444-.05.798.798 0 0 0-.19.02c-.137.034-.226.146-.267.338.192.122.38.453.564.993.184.539.33 1.075.44 1.607h.737c.369-.368.792-.553 1.27-.553l1.392-3.85c.073-.295.177-.442.313-.442.172 0 .396.236.67.709l2.744 4.32c-.437.41-.996.745-1.679 1.004l-1.782-5.14-1.249 3.46c.191.37.15.615-.123.738.028.41-.13.628-.47.655v.082a.965.965 0 0 1 .091-.004c.255 0 .392.107.41.322.02.239-.051.406-.215.501.014.328-.116.553-.389.676l-1.556-.082v.144a25.05 25.05 0 0 1 1.966.296c.682.13 1.31.297 1.884.502.737.232 1.111.799.947 1.7.164 1.201.186 2.546.24 4.034-.013.505.228.894.57 1.167.34.355.867.649 1.576.88.465.096.656.405.574.733h-3.58c-.382-.027-.594-.227-.635-.404-.04-.178-.081-.383.014-.615.096-.232.144-.481.144-.747 0-.267-.157-.918-.471-1.956a5.82 5.82 0 0 1-.349-2.498h-4.87c.191.614.26 1.01.205 1.187-.055.205-.293.577-.717 1.117-.423.539-.56 1.307-.41 2.303.56.191.8.615.717 1.27h-.57l.059.328h-.898v-.349h-.48v-1.003c-.328-2.007-.15-3.242.532-3.706l-.491-1.905V8.107h.725V5.022c-.027-.642.089-1.065.348-1.27h-.491c-.15-1.652-.044-2.675.317-3.071.362-.396.912-.622 1.649-.676.043-.003.086-.005.127-.005zm-4.872 0v1.21h-6.564V0zm0 8.32v1.21h-6.544V8.32zm0 8.47V18h-6.544v-1.21zM160.7.474c-.693 0-1.247.2-1.635.479-.006.053-.019.107-.008.16.05.248.195.477.395.63.316.207.698.267 1.057.356.09.01.02.031-.03.04-.23.04-.708.099-.972.099l-.052-.001a1.627 1.627 0 0 1-.765-.311 1.113 1.113 0 0 1-.205-.236 4.199 4.199 0 0 0-.26.917.293.293 0 0 1-.203.233c-1.138.349-2.038 1.91-2.879 2.949-1.73 2.137-3.2 4.526-4.892 6.76.936-.456 1.87-.916 2.809-1.374 1.921-1.01 3.921-1.816 5.605-3.09l.008-.008c.97-.808 1.962-1.66 2.338-2.793.149-.92-1.757-2.577-1.542-2.646a.207.207 0 0 1 .064-.01c.459 0 1.754 1.128 2.02 2.202.003-.014.01-.03.013-.045.073-.356.155-1.256-.067-1.98a.29.29 0 0 1-.011-.103c.016-.29.06-.464.123-.634.064-.17.14-.344.26-.765.032-.108.142-.328.208-.345-.186-.138-.374-.28-.644-.375a.434.434 0 0 1 .131.314c0 .23-.163.415-.364.415-.201 0-.365-.186-.365-.415V.894a.411.411 0 0 1 .255-.39c-.052-.007-.095-.019-.154-.022a3.718 3.718 0 0 0-.238-.008zm-.67 7.763c-.065.065-.135.124-.202.187-.214.78-.412 1.64-.692 2.305-.484 1.145-1.216 2.141-1.84 3.154.153.082.285.175.384.27.082.076.136.128.2.193a2.61 2.61 0 0 1 1.185-.897c-.044-.723.109-1.712.34-2.787.178-.831.401-1.659.625-2.425zm-1.007.908c-1.148.945-2.427 1.738-3.675 2.54.018.91.017 1.778-.084 2.675a3.411 3.411 0 0 1 1.437-.736c.02 0 .037.012.057.012.648-1.063 1.383-2.06 1.836-3.134.156-.37.294-.85.43-1.357zm-.406 5.254a2.5 2.5 0 0 0-.44.541.3.3 0 0 1-.258.14.288.288 0 0 1-.168-.053c-.216-.156-.348-.324-.477-.446a1.332 1.332 0 0 0-.149-.117l-.148 2.722c.213-.014.435-.035.637-.035.264 0 .495.036.633.172.168-.134.497-.164.89-.164.101 0 .207.002.315.004l-.835-2.764zm-1.158-4.825c-1.354.787-2.784 1.414-4.135 2.125a.244.244 0 0 1-.006.003c-1.295.631-2.587 1.28-3.894 1.904-.984 1.189-2.052 2.295-3.079 3.42l2.15.362c1.422-1.546 2.846-3.089 4.268-4.635a.288.288 0 0 1 .036-.036c1.5-1.137 3.153-2.082 4.66-3.143zM160.634 0a7.1 7.1 0 0 1 .41.013c1.086.07 1.874.526 2.143 1.144.04.093.145.314.007.314a2.35 2.35 0 0 0-.341-.028c-.418 0-.38.172-.47.194-.09.282-.29.846-.304 1.068.244.86.154 1.763.065 2.198-.15.732-.63 1.584-1.262 2.38a.285.285 0 0 1 0 .166 35.3 35.3 0 0 0-.903 3.336c-.25 1.168-.392 2.277-.316 2.823a.294.294 0 0 1-.222.328c-.044.011-.083.031-.126.045l.928 3.079a2.8 2.8 0 0 1 .592-.055c.382 0 .756.05 1.064.05.126 0 .24-.008.34-.032a.546.546 0 0 1 .125-.012c.437 0 1.429.306 1.342.879-.152-.128-.259-.159-.377-.159-.11 0-.23.027-.404.027h-.027c-.255-.004-.698-.083-1.054-.083-.18 0-.337.02-.438.08a16.14 16.14 0 0 0-.648-.013c-.85 0-1.447.07-2.5.075a89.565 89.565 0 0 1-2.975-.079c-.45.003-.696.054-.922.054h-.04c-.133-.004-.264-.057-.48-.057a1.76 1.76 0 0 0-.467.07c.25-.341.876-.685 1.33-.685.115 0 .218.022.302.071.16-.016.331-.022.508-.022.219 0 .447.01.678.02l.157-2.83c-.487.203-.857.517-1.282 1.021a.295.295 0 0 1-.513-.246c.193-1.039.214-2.019.202-3.06-.54.354-1.071.713-1.575 1.094l-4.36 4.738a.29.29 0 0 1-.264.09c-.949-.159-1.899-.315-2.848-.474a.294.294 0 0 1-.23-.193.298.298 0 0 1 .059-.297c.742-.83 1.508-1.631 2.251-2.445-1.27.78-2.876 1.755-3.08 1.755-.023 0-.028-.013-.012-.04.094-.163.9-.755 1.774-1.373-.139.058-.275.12-.415.177l-.016.01c-.103.035-.16.059-.27.062a.286.286 0 0 1-.109-.016.317.317 0 0 1-.188-.152.32.32 0 0 1-.022-.238c.016-.05.038-.077.053-.098.062-.085.103-.109.163-.154.06-.046.128-.097.204-.149.154-.105.337-.223.494-.328.157-.105.3-.207.328-.233a.307.307 0 0 1 .028-.025l3.891-2.736c.009-.006.02-.001.028-.006 1.334-1.869 2.588-3.825 4.046-5.627.744-.92 1.599-2.528 2.986-3.064.067-.396.218-1.127.754-1.649.456-.443 1.116-.647 1.856-.692.116-.008.233-.011.352-.011zm-11.198.239a.848.848 0 0 0-.277.043c.012.09.067.228.381.31-.292-.022-.482-.046-.58-.123a.966.966 0 0 0-.064.222.119.119 0 0 1-.083.095c-.25.076-.47.445-.68.705-.38.47-.708.992-1.075 1.493l.508-.249c.473-.248.958-.444 1.363-.75.235-.196.469-.399.556-.657.03-.199-.119-.429-.307-.511a.119.119 0 1 1 .095-.218.78.78 0 0 1 .362.327.794.794 0 0 0-.03-.18.119.119 0 0 1-.005-.041.549.549 0 0 1 .033-.169c.016-.044.034-.083.063-.184a.119.119 0 0 1 .042-.06.618.618 0 0 0-.211-.05l-.05-.003a.103.103 0 1 1-.041 0zm-.478 2.172c-.242.187-.5.35-.755.512a4.96 4.96 0 0 1-.019.53.886.886 0 0 1 .28-.121c.156-.254.327-.488.432-.737.022-.051.042-.116.062-.184zm.1.4c-.11.22-.249.417-.372.612a.498.498 0 0 1 .062.049l.011.01a.685.685 0 0 1 .246-.181c-.004-.14.018-.307.053-.49zm-1.152.02a10.369 10.369 0 0 0-.236.118c-.312.153-.623.309-.94.46-.222.268-.462.517-.693.768l.417.07 1.025-1.115a7.659 7.659 0 0 1 .426-.302zm1.036.803a.617.617 0 0 0-.064.089.12.12 0 0 1-.172.035c-.05-.037-.08-.071-.106-.098l-.031.565c.04-.002.08-.005.118-.005.067 0 .126.009.16.043.04-.03.112-.04.201-.04l.072.002-.178-.591zm2.168.4c-.18.024-.275.129-.282.313h.558c0-.184-.092-.289-.276-.314zm-3.145-.956c-.11.072-.216.146-.319.224l-.96 1.045h.982a.486.486 0 0 1 .31-.146c.03 0 .056.005.077.018a1.13 1.13 0 0 1 .102-.004c.056 0 .115.003.174.006l.033-.602a.807.807 0 0 0-.25.217.119.119 0 0 1-.208-.098 4.05 4.05 0 0 0 .06-.66zm2.497 1.497l.106.186h.5l.1-.186zm-1.807 0V5.58l.69-1.005zM149.433 0a1.551 1.551 0 0 1 .109.004c.277.018.486.13.563.307a.12.12 0 0 1-.136.163l-.01-.002-.012.003-.044.011c-.021.068-.038.108-.047.133a.217.217 0 0 0-.017.08c.061.221.037.443.014.556-.038.186-.153.39-.304.584 0 .014 0 .029-.006.043a8.593 8.593 0 0 0-.219.81c-.06.284-.093.556-.077.674a.119.119 0 0 1-.089.132c-.003 0-.005.002-.007.003l.21.7a.715.715 0 0 1 .104-.008c.103 0 .204.017.285.017a.346.346 0 0 0 .073-.007.126.126 0 0 1 .028-.002c.084 0 .262.051.314.146h.44c.025-.319.193-.494.505-.526.315.032.478.207.489.526v.228h-.213l-.218.404h-.706l-.213-.404h-.627l-.961 1.398V7.2h-.229V4.575h-1.806v-.163l-.04.043a.119.119 0 0 1-.107.037l-.696-.117a.119.119 0 0 1-.07-.196c.087-.097.175-.193.263-.287l-.663.431a.118.118 0 0 1-.164-.035.119.119 0 0 1 .034-.164l.538-.35a.117.117 0 0 1-.03-.037.126.126 0 0 1-.008-.094.094.094 0 0 1 .019-.037c.022-.03.034-.036.05-.048.015-.012.033-.024.052-.037.038-.027.082-.055.12-.08a1.662 1.662 0 0 0 .087-.063l.951-.669.003-.002c.322-.452.627-.926.983-1.365.173-.214.375-.61.725-.758a.732.732 0 0 1 .193-.399c.142-.137.346-.185.567-.185zm-10.118 6.817v2.122l2.523-2.122zm2.973.31l-2.593 2.123h2.593V7.127zm-2.973 2.503v2.473l2.573-2.473zm2.973.36l-2.633 2.453h2.633V9.991zM140.21 0c.135 0 .27.01.407.029.52.067 1.048.143 1.582.23l-.16.871a114.79 114.79 0 0 0-1.422-.21 2.338 2.338 0 0 0-.332-.026c-.658 0-.98.353-.97 1.057v4.065l3.355-4.035c0 1.529-.478 2.603-1.432 3.224-.955.614-1.505 1.011-1.652 1.191h3.084v6.448h-3.034l3.054 3.074-.531.54-2.843-2.923V18h-.982V1.981c0-.968.25-1.552.751-1.752A2.92 2.92 0 0 1 140.21 0zm-6.2 0q2.323 0 2.323 2.232V18h-1.07V2.232q0-1.16-1.252-1.16-1.262 0-1.262 1.16v10.492h-1.07V2.232Q131.678 0 134.01 0zm-12.758 0l.347.202q1.791 2.197 2.875 3.757.737.405 1.07.643.332.239.996.354.839.058.839.275v.202q.01.058-.578.058-.294 0-.737-.015-.472-.125-.79-.125-.16 0-.28.031-.36.094-.592.094-.231 0-.369-.123-.137-.122-.209-.758 0-.173-1.2-1.351-1.199-1.178-1.372-1.785 0-.159-.448-.404-.159 0-.722.621-1.099 1.33-1.496 1.893-.397.564-.108.73.289.166.578.448.262.255.548.255.029 0 .059-.003.635.102.635.333v.144h-1.488q-.414-.221-.729-.221-.157 0-.29.055-.397.166-.614.166-.332-.043-.332-.274 0-.246.231-.564.361-.578.91-2.03.55-1.452 1.835-2.102.752-.506 1.156-.506zm6.654 13.04c.068 0 .137.007.206.013.996.106 1.703 1.115 1.547 2.091-.069.727-.52 1.134-1.015 1.535-1.471.901-1.058.57-2.542 1.321l-.238-.445c1.766-.826 1.979-.958 2.53-1.32.45-.364.808-.765.776-1.372.013-.42-.237-.852-.52-1.059a1.352 1.352 0 0 0-.795-.269.986.986 0 0 0-.588.175c-.445.22-.689.946-.363 1.403.15.22.42.37.688.37a.637.637 0 0 0 .376-.12c.226-.125.395-.563.163-.807.106-.113.257-.25.37-.25.075 0 .131.056.169.187.25.601-.15 1.284-.752 1.447-.106.031-.213.05-.32.05-.688 0-1.327-.576-1.327-1.29-.062-.833.601-1.597 1.434-1.647.063-.006.132-.013.2-.013zm-8.965-4.884q.157 0 .207.05.044.05.119.05v.057l-.088.012q-.097.097-.258.097-.12 0-.274-.053l-.157.044-.012-.113.137-.012q.2-.113.326-.132zm-.82-1.002q-.29 0-.67.088-.645.144-.652.814-.006.664.376.97.202.169.368.169.143 0 .258-.125.113-.112.044-.181-.181-.057-.169-.282-.194-.238-.194-.407-.012-.295.27-.295h.024q.126.013.213.082.554-.368.976-.368.045 0 .089.005-.182-.32-.57-.426-.158-.044-.363-.044zm-1.76 4.208q-.244.501-.958 1.46.27-.182 1.321-.383l-.363-1.077zm2.597-3.528q-.395 0-.843.34l.043.126q-.052.03-.102.03-.021 0-.042-.005-.1-.263-.225-.263l-.029-.002q-.12 0-.109.152 0 .157.17.351 0 .173.083.173.014 0 .029-.004.113-.025.094-.125.075.282-.132.714l-.307.67q-.106.232-.338.244-.231.013-.532.069-.3.056-.163.407.138.35.576 1.572l.295-.138q.307-.62 1.064-1.052.144.138-.056.363l.225.495q.044.294-.225.463-.376.17-.827.17l-.394.319.112 2.066 1.128.25q.883-2.824 1.052-3.068.169-.244.094-1.396.03-.395-.645-.395-.702 0-.645-.32l.087-.256q.07-.238.057-.294.055-.015.128-.015.11 0 .26.034.142.012.245.012.206 0 .256-.05.075-.075.05-.207l-.2-.068q-.07-.038-.025-.126l.281-.025q-.1-.213.025-.282l.036.002q.133 0 .133-.09-.043-.08-.175-.3-.131-.219-.32-.282-.084-.027-.167-.027-.108 0-.214.046-.188.075-.357.12l-.031-.076q.156-.038.325-.125.163-.085.304-.085.14 0 .26.085-.032-.113-.088-.17-.108-.027-.221-.027zm2.425 5.914l-2.304 1.597 2.574.776q-.088-1.784.238-2.373zm-4.114 1.503q-.263 1.008.313 1.753.516.308 1.162.308.444 0 .949-.145.517-.151 1.012-.151.693 0 1.342.295-.113-.394-1.841-1.29l-2.937-.77zm.762-8.384q.2 0 .403.03.701.082 1.027.965.044.238.213.444.169.2.219.445 0 .138-.175.144-.176.006-.044.119.056.012.044.056-.007.044-.044.057.081.087 0 .119-.088.037-.063.125.019.094-.031.232-.05.144-.501.144l-.388-.057q.025.094-.032.226 1.127.012 1.403.488.946.79 1.797 1.672.17-.35.77-.958.595-.601.696-.883.206-.614.882-1.165.15.113 0 .363l.282.451q.082.295-.156.495-.363.22-.745.463-1.052 1.867-1.54 2.017-.028.004-.057.004-.372 0-1.115-.662-.736-.643-.873-.643-.049 0-.022.08 0 .407-.17.695-.169.288-.826 2.617l2.048-1.528q.463-.42.814-.42.983.013.87.815l-.35 2.499q.745.181.688 1.12.338.07.62.195.228.098.46.098.049 0 .098-.005h.033q.255 0 .361.276h-9.95q.254-.498.688-.498.09 0 .188.022.095.021.18.021.418 0 .584-.516.124-.39.356-.39.133 0 .302.127-.451-.87-.025-1.828-.019-1.04-.088-1.854-1.472.464-1.947.464-.37-.038-.37-.32.326-1.265 1.503-2.824.238-.476 1.221-.52.17-.225.182-.394-.407-.094-.683-.426-.282-.332-.275-1.077.006-.739.645-.964.442-.156.893-.156zM107.138.597a2.12 2.12 0 0 0-.692.109c.031.223.169.569.953.773-.73-.053-1.206-.113-1.452-.307-.09.2-.138.427-.159.556a.297.297 0 0 1-.206.237c-.625.191-1.174 1.112-1.7 1.763-.95 1.173-1.771 2.48-2.688 3.733.423-.207.845-.415 1.27-.622 1.182-.622 2.395-1.11 3.407-1.877.588-.49 1.172-.996 1.39-1.641.076-.497-.296-1.074-.767-1.279a.297.297 0 1 1 .238-.545c.377.164.7.458.904.817a1.986 1.986 0 0 0-.075-.448.297.297 0 0 1-.013-.104c.01-.184.042-.313.083-.422.04-.109.084-.206.157-.459a.297.297 0 0 1 .105-.153 1.546 1.546 0 0 0-.528-.125c-.042-.003-.083-.003-.125-.004a.258.258 0 1 1-.102-.002zm-1.194 5.432c-.605.466-1.253.873-1.888 1.28.005.438-.006.879-.046 1.321.206-.135.433-.236.697-.3.39-.636.82-1.22 1.082-1.842a4.64 4.64 0 0 0 .155-.46zm.25 1c-.274.549-.622 1.04-.93 1.529.06.04.113.08.155.121l.028.027c.168-.194.374-.351.613-.454-.01-.348.047-.768.133-1.222zm-2.881.047a25.922 25.922 0 0 0-.588.297c-.78.38-1.56.772-2.35 1.148-.556.67-1.156 1.293-1.734 1.92l1.043.175 2.563-2.786a.297.297 0 0 1 .04-.036 18.5 18.5 0 0 1 1.026-.718zm2.591 2.009c-.057.066-.112.14-.161.222a.298.298 0 0 1-.43.087c-.124-.09-.2-.177-.265-.244l-.077 1.413c.1-.006.201-.013.296-.013.167 0 .313.022.398.108.1-.078.28-.1.504-.1.057 0 .118.002.18.005l-.445-1.478zm5.419.999c-.452.062-.686.323-.704.783h1.395c0-.46-.23-.721-.691-.783zm-7.86-2.39c-.274.182-.542.367-.799.56l-2.402 2.613h2.456c.17-.19.518-.365.776-.365.073 0 .14.014.192.046a3.01 3.01 0 0 1 .256-.01c.14 0 .286.007.433.016l.083-1.506c-.224.115-.407.282-.625.542a.297.297 0 0 1-.52-.246c.1-.544.142-1.093.15-1.65zm6.24 3.745l.265.465h1.249l.252-.465zm-4.516 0v2.51l1.726-2.51zM107.13 0a3.878 3.878 0 0 1 .272.01c.694.044 1.215.325 1.408.768a.298.298 0 0 1-.341.408l-.024-.006-.03.007-.109.029c-.054.168-.095.269-.12.332a.541.541 0 0 0-.042.2 3.1 3.1 0 0 1 .037 1.389c-.095.466-.384.977-.761 1.46a.295.295 0 0 1-.014.108 21.24 21.24 0 0 0-.548 2.027c-.152.708-.233 1.387-.192 1.684a.297.297 0 0 1-.223.33l-.019.005.527 1.75c.086-.013.173-.018.26-.018.256 0 .509.041.712.041a.865.865 0 0 0 .183-.016.314.314 0 0 1 .068-.007c.212 0 .657.13.787.366h1.1c.061-.797.482-1.235 1.261-1.315.788.08 1.196.518 1.222 1.315v.572h-.531l-.545 1.01h-1.766l-.532-1.01h-1.567l-2.404 3.493V18h-.571v-6.561h-4.516v-.41l-.1.109a.297.297 0 0 1-.268.092l-1.74-.292a.298.298 0 0 1-.173-.492c.217-.242.437-.48.656-.716l-1.656 1.078a.296.296 0 0 1-.412-.087.297.297 0 0 1 .087-.411l1.345-.876a.292.292 0 0 1-.076-.09.315.315 0 0 1-.02-.237c.016-.05.034-.074.048-.093.055-.076.084-.088.123-.119.04-.03.084-.06.131-.094.096-.065.206-.137.301-.2a4.156 4.156 0 0 0 .216-.156l2.379-1.672.008-.005c.805-1.13 1.568-2.316 2.457-3.414.433-.535.938-1.524 1.812-1.894.048-.262.157-.68.484-.997.352-.344.863-.463 1.416-.463zM94.377 0v1.21h-6.565V0zm0 8.32v1.21h-6.545V8.32zm0 8.47V18h-6.545v-1.21zm-9.999-9.332v1.656c.566 0 .848-.283.848-.848 0-.539-.282-.808-.848-.808zM82.283 0c.463 0 .855.116 1.176.35.613.443.92 1.09.92 1.938v4.584c.942 0 1.42.465 1.433 1.394 0 .942-.478 1.413-1.434 1.413V18h-.746V2.732c0-1.023-.199-1.68-.596-1.969-.206-.15-.476-.225-.838-.225-.337 0-.754.065-1.273.195a.65.65 0 0 1-.212.043c-.112 0-.189-.048-.233-.144-.013-.162.108-.276.364-.343C81.382.096 81.862 0 82.284 0zm-8.169 7.386c-1.074 0-2.418.552-3.069 1.203-.569.569-.643 1.323-.664 2.025h7.435c-.02-.702-.095-1.456-.664-2.025-.65-.65-1.964-1.203-3.038-1.203zm0-.6c1.274 0 2.645.588 3.449 1.391.824.825.917 1.91.917 2.721v.317h-8.732v-.317c0-.812.062-1.896.886-2.72.804-.804 2.206-1.393 3.48-1.393zM65.951.732q-.209.794-.773 1.421l.48.314q.502-.48.774-1.464l-.48-.271zm.962.585q-.272.962-1.212 1.923l-.753-.564q-.502.606-1.464 1.652v13.024h1.38V4.997q2.739-2.321 2.049-3.68zM65.68 0q1.568.23 2.007 1.516.439 1.285-2.196 3.836V18h-2.634V3.93Q64.802 2.132 65.68 0zm-8.094.809q-.832 0-1.324.312l1.424.93-1.405.95q.57.398 1.557.398 2.108-.095 2.108-1.33 0-1.081-2.089-1.252-.14-.008-.27-.008zm-.298 15.064q-1.272 0-1.52 1.462h3.058q-.285-1.462-1.538-1.462zM57.679 0h.055q1.452.02 2.269.475.816.456.854 1.576-.038 1.14-.845 1.595-.807.456-2.269.55V14.64l1.69-1.595.532.532-1.88 1.728q1.52.74 1.52 2.696H54.99q-.019-1.956 1.5-2.696l-1.88-1.747.532-.55 1.69 1.651V4.196q-.55-.094-1.937-1.063l1.386-1.082L54.895.969Q56.255 0 57.68 0zM49.34.809q-.832 0-1.324.312l1.424.93-1.405.95q.57.398 1.557.398 2.107-.095 2.107-1.33 0-1.081-2.088-1.252-.14-.008-.272-.008zm-.299 15.064q-1.272 0-1.519 1.462h3.057q-.285-1.462-1.538-1.462zM49.432 0h.055q1.453.02 2.27.475.816.456.854 1.576-.038 1.14-.845 1.595-.807.456-2.27.55V14.64l1.69-1.595.532.532-1.88 1.728q1.52.74 1.52 2.696h-4.614q-.02-1.956 1.5-2.696l-1.88-1.747.532-.55 1.69 1.651V4.196q-.551-.094-1.937-1.063l1.386-1.082L46.649.969Q48.009 0 49.432 0zm-8.339.809q-.832 0-1.324.312l1.424.93-1.405.95q.57.398 1.557.398 2.108-.095 2.108-1.33 0-1.081-2.09-1.252-.139-.008-.27-.008zm-.299 15.064q-1.272 0-1.519 1.462h3.057q-.285-1.462-1.538-1.462zM41.186 0h.055q1.452.02 2.268.475.817.456.855 1.576-.038 1.14-.845 1.595-.807.456-2.269.55V14.64l1.69-1.595.531.532-1.88 1.728q1.52.74 1.52 2.696h-4.614q-.02-1.956 1.5-2.696l-1.88-1.747.532-.55 1.69 1.651V4.196q-.551-.094-1.937-1.063l1.386-1.082L38.402.969Q39.762 0 41.186 0zm-7.864 3.644c.401 0 .823.084 1.267.253.922.351 1.432 1.215 1.528 2.592-.041 1.308-.571 2.54-1.59 3.696-.812 1.005-1.314 1.659-1.507 1.962-.51.757-.812 1.493-.909 2.21h-.888c.138-1.02.544-2.01 1.219-2.974a47.457 47.457 0 0 1 1.9-2.354c.715-1.143.994-2.151.836-3.026-.159-.874-.64-1.355-1.446-1.445a3.552 3.552 0 0 0-.391-.023c-.598 0-1.025.18-1.281.54-.31.433-.376.922-.197 1.465.152.462.439.693.859.693.074 0 .153-.007.236-.022.55-.096.764-.433.64-1.011l.454-.868c.358.386.52.792.486 1.219-.035.426-.224.805-.568 1.135-.3.289-.688.433-1.16.433a2.53 2.53 0 0 1-.214-.01c-.57-.047-1.011-.292-1.321-.732-.31-.44-.434-1.03-.372-1.766s.461-1.294 1.198-1.672c.382-.197.79-.295 1.221-.295zm-7.2 0c.401 0 .824.084 1.267.253.923.351 1.432 1.215 1.528 2.592-.04 1.308-.57 2.54-1.59 3.696-.812 1.005-1.314 1.659-1.507 1.962-.51.757-.812 1.493-.909 2.21h-.887c.137-1.02.543-2.01 1.218-2.974a47.457 47.457 0 0 1 1.9-2.354c.715-1.143.994-2.151.836-3.026-.158-.874-.64-1.355-1.446-1.445a3.552 3.552 0 0 0-.391-.023c-.597 0-1.024.18-1.281.54-.31.433-.375.922-.196 1.465.152.462.438.693.858.693.075 0 .153-.007.236-.022.55-.096.764-.433.64-1.011l.454-.868c.358.386.52.792.486 1.219-.035.426-.224.805-.568 1.135-.3.289-.687.433-1.16.433a2.53 2.53 0 0 1-.213-.01c-.572-.047-1.012-.292-1.322-.732-.31-.44-.433-1.03-.372-1.766.062-.736.462-1.294 1.198-1.672a2.63 2.63 0 0 1 1.222-.295zm-7.2 0c.402 0 .824.084 1.268.253.922.351 1.431 1.215 1.528 2.592-.042 1.308-.572 2.54-1.59 3.696-.813 1.005-1.315 1.659-1.508 1.962-.51.757-.812 1.493-.908 2.21h-.888c.137-1.02.544-2.01 1.218-2.974a47.457 47.457 0 0 1 1.9-2.354c.716-1.143.994-2.151.836-3.026-.158-.874-.64-1.355-1.445-1.445a3.552 3.552 0 0 0-.392-.023c-.597 0-1.024.18-1.28.54-.31.433-.376.922-.197 1.465.152.462.438.693.858.693.075 0 .153-.007.236-.022.551-.096.764-.433.64-1.011l.455-.868c.358.386.52.792.485 1.219-.034.426-.224.805-.568 1.135-.3.289-.687.433-1.16.433a2.53 2.53 0 0 1-.213-.01c-.571-.047-1.012-.292-1.322-.732-.31-.44-.433-1.03-.371-1.766s.46-1.294 1.197-1.672c.383-.197.79-.295 1.222-.295zm-7.199 0c.4 0 .823.084 1.267.253.922.351 1.432 1.215 1.528 2.592-.041 1.308-.571 2.54-1.59 3.696-.812 1.005-1.315 1.659-1.507 1.962-.51.757-.813 1.493-.909 2.21h-.888c.138-1.02.544-2.01 1.218-2.974a47.457 47.457 0 0 1 1.9-2.354c.716-1.143.995-2.151.836-3.026-.158-.874-.64-1.355-1.445-1.445a3.552 3.552 0 0 0-.392-.023c-.597 0-1.024.18-1.28.54-.31.433-.376.922-.197 1.465.152.462.438.693.859.693.074 0 .153-.007.236-.022.55-.096.764-.433.64-1.011l.454-.868c.358.386.52.792.485 1.219-.034.426-.223.805-.568 1.135-.3.289-.687.433-1.16.433a2.53 2.53 0 0 1-.213-.01c-.571-.047-1.012-.292-1.321-.732-.31-.44-.434-1.03-.372-1.766s.461-1.294 1.198-1.672a2.626 2.626 0 0 1 1.221-.295zM3.675 0c.958.012 1.835.245 2.498.785.687.546 1.123 1.393 1.116 2.43v5.179h-.711V3.209c0-.847-.32-1.448-.847-1.871C5.22.933 4.504.712 3.694.712h-.098c-.804 0-1.528.22-2.037.626C1.03 1.76.712 2.362.712 3.209v5.185H0V3.215C-.006 2.178.43 1.331 1.117.785 1.779.245 2.657.012 3.614 0zm0 9.606c.958.012 1.835.246 2.498.785.687.547 1.123 1.393 1.116 2.43V18h-.711v-5.185c0-.847-.32-1.448-.847-1.871-.51-.405-1.227-.626-2.037-.626h-.098c-.804 0-1.528.22-2.037.626-.528.423-.847 1.024-.847 1.871V18H0v-5.179c-.006-1.037.43-1.883 1.117-2.43.662-.54 1.54-.773 2.497-.785z"/></svg>