<svg xmlns="http://www.w3.org/2000/svg" width="361.688" height="18"><path d="M352.428 7.92c-.297 0-.475.05-.568.103-.269.171-.14.583-.097.84h1.33c.032-.263.177-.664-.098-.84-.092-.053-.27-.103-.567-.103zm7.39 1.551v.924h1.261v-.924zm-6.556 0v.924h6.252v-.924zm-1.52 0v.924h1.216v-.924zm-6.105 0v.924h5.8v-.924zm-1.632 0v.924h1.328v-.924zm11.093-2.475l.43.43-1.439 1.436h7.6v2.142h-18.292V8.862h7.37l-1.44-1.435.43-.431 1.331 1.327c.08-.805.631-.99 1.34-1.012.757.02 1.222.191 1.34 1.012l1.33-1.327z" fill="red"/><path d="M344.646 0l-1.25 1.25v.707l1.78-1.78.178-.177zm3 0l-4.25 4.25v.707l4.78-4.78.178-.177zm3 0l-7.25 7.25v.707l7.78-7.78.178-.177zm1.896 1.104l-9.145 9.146v.707l9.145-9.146v-.707zm0 3l-9.145 9.146v.707l9.145-9.146v-.707zm0 3l-9.145 9.146v.707l9.145-9.146v-.707zM353.646 9l-8.823 8.823-.177.177h.708l9-9zm3 0l-8.823 8.823-.177.177h.708l9-9zm3 0l-8.823 8.823-.177.177h.708l9-9zm2.042.958l-7.865 7.865-.177.177h.708l7.334-7.335v-.707zm0 3l-4.865 4.865-.177.177h.708l4.334-4.335v-.707zm0 3l-1.865 1.865-.177.177h.708l1.334-1.335v-.707zM320.646 0l-1.25 1.25v.707l1.78-1.78.178-.177zm3 0l-4.25 4.25v.707l4.78-4.78.178-.177zm3 0l-7.25 7.25v.707l7.78-7.78.178-.177zm3 0l-10.25 10.25v.707l10.78-10.78.178-.177zm3 0l-13.25 13.25v.707l13.78-13.78.178-.177zm3 0l-16.25 16.25v.707l16.78-16.78.178-.177zm3 0l-17.823 17.823-.177.177h.708L339.177.177l.177-.177zm2.75.25l-17.573 17.573-.177.177h.708L341.397.957V.25zm0 3l-14.573 14.573-.177.177h.708l14.043-14.043V3.25zm0 3l-11.573 11.573-.177.177h.708l11.043-11.043V6.25zm0 3l-8.573 8.573-.177.177h.708l8.043-8.043V9.25zm0 3l-5.573 5.573-.177.177h.708l5.043-5.043v-.707zm0 3l-2.573 2.573-.177.177h.708l2.043-2.043v-.707z"/><path d="M341.646 0l-.25.25v.707l.78-.78.178-.177zm1.75 1.25l-2 2v.707l2-2V1.25zm0 3l-2 2v.707l2-2V4.25zm0 3l-2 2v.707l2-2V7.25zm0 3l-2 2v.707l2-2v-.707zm0 3l-2 2v.707l2-2v-.707zm0 3l-1.573 1.573-.177.177h.708l1.043-1.043v-.707zM296.646 0l-1.25 1.25v.707l1.78-1.78.178-.177zm3 0l-4.25 4.25v.707l4.78-4.78.178-.177zm3 0l-7.25 7.25v.707l7.78-7.78.178-.177zm3 0l-10.25 10.25v.707l10.78-10.78.178-.177zm3 0l-13.25 13.25v.707l13.78-13.78.178-.177zm3 0l-16.25 16.25v.707l16.78-16.78.178-.177zm3 0l-17.823 17.823-.177.177h.708L315.177.177l.177-.177zm2.75.25l-17.573 17.573-.177.177h.708L317.397.957V.25zm0 3l-14.573 14.573-.177.177h.708l14.043-14.043V3.25zm0 3l-11.573 11.573-.177.177h.708l11.043-11.043V6.25zm0 3l-8.573 8.573-.177.177h.708l8.043-8.043V9.25zm0 3l-5.573 5.573-.177.177h.708l5.043-5.043v-.707zm0 3l-2.573 2.573-.177.177h.708l2.043-2.043v-.707z"/><path d="M317.646 0l-.25.25v.707l.78-.78.178-.177zm1.75 1.25l-2 2v.707l2-2V1.25zm0 3l-2 2v.707l2-2V4.25zm0 3l-2 2v.707l2-2V7.25zm0 3l-2 2v.707l2-2v-.707zm0 3l-2 2v.707l2-2v-.707zm0 3l-1.573 1.573-.177.177h.708l1.043-1.043v-.707zM272.646 0l-1.25 1.25v.707l1.78-1.78.178-.177zm3 0l-4.25 4.25v.707l4.78-4.78.178-.177zm3 0l-7.25 7.25v.707l7.78-7.78.178-.177zm3 0l-10.25 10.25v.707l10.78-10.78.178-.177zm3 0l-13.25 13.25v.707l13.78-13.78.178-.177zm3 0l-16.25 16.25v.707l16.78-16.78.178-.177zm3 0l-17.823 17.823-.177.177h.708L291.177.177l.177-.177zm2.75.25l-17.573 17.573-.177.177h.708L293.397.957V.25zm0 3l-14.573 14.573-.177.177h.708l14.043-14.043V3.25zm0 3l-11.573 11.573-.177.177h.708l11.043-11.043V6.25zm0 3l-8.573 8.573-.177.177h.708l8.043-8.043V9.25zm0 3l-5.573 5.573-.177.177h.708l5.043-5.043v-.707zm0 3l-2.573 2.573-.177.177h.708l2.043-2.043v-.707z"/><path d="M293.646 0l-.25.25v.707l.78-.78.178-.177zm1.75 1.25l-2 2v.707l2-2V1.25zm0 3l-2 2v.707l2-2V4.25zm0 3l-2 2v.707l2-2V7.25zm0 3l-2 2v.707l2-2v-.707zm0 3l-2 2v.707l2-2v-.707zm0 3l-1.573 1.573-.177.177h.708l1.043-1.043v-.707zM265.819 4.845c.947.012 1.816.243 2.472.778.68.54 1.112 1.378 1.106 2.405v5.127h-.705V8.022c0-.838-.316-1.434-.838-1.853-.505-.4-1.215-.62-2.017-.62h-.097c-.796 0-1.513.22-2.017.62-.522.42-.838 1.015-.838 1.853v5.133h-.705V8.028c-.006-1.027.425-1.865 1.106-2.405.656-.535 1.524-.766 2.472-.778zM258.533 0c.335 0 .67.026.995.066.447.113.217.626-.18.626a.476.476 0 0 1-.082-.008c-.84.097-1.872.15-2.506.626-.84.916-.463 2.821-.561 3.725-.007.05-.01 3.653-.01 5.48a6.145 6.145 0 0 1 2.635-.586c.402 0 .801.04 1.187.117.441.231-.076.528-.422.528a.454.454 0 0 1-.115-.013c-1.226.133-2.62.461-3.243 1.602-.061.206-.023.277.071.277.206 0 .68-.342.946-.342.014 0 .028 0 .04.003a7.535 7.535 0 0 1 1.58-.169c.39 0 .777.031 1.15.095.42.278-.096.534-.439.534a.532.532 0 0 1-.105-.01c-1.251.151-2.636.49-3.243 1.633-.007 1.27 0 2.11-.033 3.278.014.36-.22.538-.456.538-.235 0-.473-.176-.475-.526.009-1.15.091-2.161-.06-3.277-.304-1.253-2.477-1.445-3.827-1.754-.294-.347.285-.475.659-.475.056 0 .107.003.15.008.173-.013.347-.02.521-.02.882 0 1.771.175 2.557.58.032-.755-.711-1.19-1.244-1.493-.84-.361-1.765-.397-2.643-.59-.313-.273.18-.501.521-.501a.58.58 0 0 1 .125.012c.216-.02.432-.031.648-.031.903 0 1.805.183 2.614.582-.016-2.851-.062-5.61.02-8.308.065-.834.546-1.6 1.354-1.849.58-.264 1.227-.358 1.871-.358zm-17.629.601c-1.074 0-2.419.552-3.07 1.202-.568.57-.643 1.324-.664 2.025h7.435c-.02-.7-.095-1.455-.664-2.025-.65-.65-1.963-1.202-3.037-1.202zm0-.601c1.274 0 2.645.589 3.448 1.392.824.824.918 1.91.918 2.72v.317h-8.732v-.316c0-.812.061-1.897.886-2.72C238.227.588 239.63 0 240.904 0zm6.322 15.57l2.055 2.43h-1.002l-1.053-1.255L246.163 18l-1.032-1.255L244.067 18l-1.052-1.255L241.952 18l-1.053-1.255L239.836 18l-1.033-1.255L237.74 18l-1.063-1.255L235.644 18l-1.063-1.255L233.528 18h-1.002l2.055-2.43 1.063 1.175 1.033-1.175 1.063 1.175 1.063-1.175 1.033 1.175 1.063-1.175 1.053 1.175 1.063-1.175 1.052 1.175 1.064-1.175 1.032 1.175 1.063-1.175zM228.45 1.124q-2.014.293-2.105 1.842v11.177q.941-1.124 3.381-1.58l-1.275-11.44zM229.018 0l1.509 13.363q-3.361.385-4.181 2.4V18h-1.002V2.966q0-2.51 3.674-2.966zm-7.751 1.124q-2.014.293-2.106 1.842v11.177q.942-1.124 3.382-1.58l-1.276-11.44zM221.834 0l1.509 13.363q-3.361.385-4.182 2.4V18h-1.002V2.966q0-2.51 3.675-2.966zm-14.821.601c-1.074 0-2.418.552-3.069 1.202-.569.57-.643 1.324-.664 2.025h7.435c-.02-.7-.095-1.455-.664-2.025-.651-.65-1.964-1.202-3.038-1.202zm0-.601c1.274 0 2.645.589 3.449 1.392.824.824.917 1.91.917 2.72v.317h-8.732v-.316c0-.812.062-1.897.886-2.72C204.337.588 205.74 0 207.013 0zm-.114 14.915c-.297 0-.475.05-.568.103-.269.172-.14.583-.097.84h1.33c.032-.263.177-.663-.098-.84-.092-.052-.27-.103-.567-.103zm7.39 1.552v.924h1.261v-.924zm-6.557 0v.924h6.252v-.924zm-1.52 0v.924h1.217v-.924zm-6.104 0v.924h5.8v-.924zm-1.632 0v.924h1.328v-.924zm11.093-2.476l.43.431-1.439 1.436h7.6V18h-18.293v-2.142h7.37l-1.44-1.436.431-.43 1.33 1.326c.08-.804.632-.989 1.34-1.012.758.02 1.223.192 1.34 1.012l1.331-1.327zM190.46.597a2.12 2.12 0 0 0-.692.109c.031.223.169.569.953.773-.73-.053-1.206-.113-1.452-.307-.09.2-.137.427-.158.556a.297.297 0 0 1-.207.237c-.624.191-1.173 1.112-1.7 1.763-.95 1.173-1.771 2.48-2.688 3.733l1.27-.622c1.182-.622 2.395-1.11 3.407-1.877.589-.49 1.172-.996 1.39-1.641.076-.497-.296-1.074-.767-1.279a.297.297 0 1 1 .238-.545c.377.164.7.458.904.817a1.986 1.986 0 0 0-.075-.448.297.297 0 0 1-.012-.104c.01-.184.041-.313.082-.422.04-.109.085-.206.157-.459a.297.297 0 0 1 .105-.153 1.546 1.546 0 0 0-.527-.125c-.043-.003-.084-.003-.125-.004a.258.258 0 1 1-.103-.002zm-1.193 5.432c-.606.466-1.253.873-1.888 1.28a13 13 0 0 1-.047 1.321c.207-.135.434-.236.697-.3.39-.636.82-1.22 1.082-1.842.054-.129.105-.29.156-.46zm.248 1c-.273.549-.62 1.04-.928 1.529.059.04.112.08.155.121l.027.027a1.72 1.72 0 0 1 .613-.454c-.01-.348.047-.768.133-1.222zm-2.88.047a25.922 25.922 0 0 0-.588.297c-.78.38-1.56.772-2.349 1.148-.556.67-1.157 1.293-1.735 1.92l1.044.175 2.562-2.786a.297.297 0 0 1 .04-.036 18.5 18.5 0 0 1 1.026-.718zm2.592 2.009c-.058.066-.112.14-.162.222a.298.298 0 0 1-.429.087c-.125-.09-.2-.177-.266-.244l-.077 1.413c.1-.006.201-.013.296-.013.167 0 .314.022.398.108.1-.078.28-.1.504-.1.058 0 .118.002.18.005l-.444-1.478zm5.418.999c-.451.062-.686.323-.703.783h1.394c0-.46-.23-.721-.69-.783zm-7.86-2.39a16.38 16.38 0 0 0-.798.56l-2.403 2.613h2.456c.171-.19.519-.365.776-.365.074 0 .14.014.192.046.082-.007.168-.01.256-.01.14 0 .286.007.434.016l.082-1.506c-.224.115-.407.282-.625.542a.297.297 0 0 1-.52-.246c.1-.544.142-1.093.15-1.65zm6.24 3.745l.266.465h1.248l.253-.465zm-4.516 0v2.51l1.727-2.51zM190.453 0a3.878 3.878 0 0 1 .272.01c.695.044 1.215.325 1.408.768a.298.298 0 0 1-.34.408l-.025-.006-.03.007-.108.029c-.055.168-.096.269-.12.332a.541.541 0 0 0-.042.2c.154.552.094 1.107.036 1.389-.095.466-.384.977-.76 1.46a.295.295 0 0 1-.015.108 21.24 21.24 0 0 0-.548 2.027c-.152.708-.233 1.387-.192 1.684a.297.297 0 0 1-.223.33l-.019.005.527 1.75c.086-.013.173-.018.26-.018.256 0 .509.041.712.041a.865.865 0 0 0 .183-.016.314.314 0 0 1 .068-.007c.212 0 .657.13.787.366h1.1c.062-.797.482-1.235 1.261-1.315.788.08 1.196.518 1.222 1.315v.572h-.53l-.545 1.01h-1.767l-.531-1.01h-1.568l-2.404 3.493V18h-.571v-6.561h-4.516v-.41l-.1.109a.297.297 0 0 1-.268.092l-1.74-.292a.298.298 0 0 1-.172-.492c.216-.242.436-.48.656-.716l-1.657 1.078a.296.296 0 0 1-.411-.087.297.297 0 0 1 .087-.411l1.344-.876a.292.292 0 0 1-.076-.09.315.315 0 0 1-.02-.237.305.305 0 0 1 .048-.093c.055-.076.084-.088.124-.119l.13-.094c.096-.065.207-.137.301-.2a4.156 4.156 0 0 0 .217-.156l2.378-1.672.008-.005c.806-1.13 1.568-2.316 2.457-3.414.433-.535.938-1.524 1.812-1.894.048-.262.157-.68.484-.997.353-.344.863-.463 1.416-.463zm-12.754 0v1.21h-6.565V0zm0 8.32v1.21h-6.545V8.32zm0 8.47V18h-6.545v-1.21zM166.812 0q2.322 0 2.322 2.232V18h-1.07V2.232q0-1.16-1.252-1.16-1.262 0-1.262 1.16v10.492h-1.07V2.232Q164.48 0 166.811 0zm-6.568 0l2.235 2.643h-1.09l-1.145-1.366-1.156 1.366-1.123-1.366-1.157 1.366-1.145-1.366-1.156 1.366-1.145-1.366-1.156 1.366-1.123-1.366-1.157 1.366-1.156-1.366-1.123 1.366-1.156-1.366-1.145 1.366h-1.09L146.49 0l1.156 1.277L148.77 0l1.156 1.277L151.083 0l1.123 1.277L153.362 0l1.145 1.277L155.663 0l1.145 1.277L157.965 0l1.123 1.277L160.244 0zm2.236 10.67V18h-1.226v-7.33zm-8.424.01V18h-1.225v-7.32zm-8.575 0V18h-1.225v-7.32zm-4.659-3.222v1.656c.565 0 .848-.283.848-.848 0-.539-.283-.808-.848-.808zM138.727 0c.463 0 .855.116 1.176.35.612.443.919 1.09.919 1.938v4.584c.942 0 1.42.465 1.434 1.394 0 .942-.478 1.413-1.434 1.413V18h-.747V2.732c0-1.023-.198-1.68-.595-1.969-.206-.15-.476-.225-.839-.225-.337 0-.754.065-1.273.195a.65.65 0 0 1-.212.043c-.111 0-.188-.048-.232-.144-.013-.162.108-.276.364-.343.538-.193 1.018-.289 1.439-.289zm-8.169 7.386c-1.074 0-2.418.552-3.069 1.203-.57.569-.643 1.323-.664 2.025h7.435c-.021-.702-.096-1.456-.665-2.025-.65-.65-1.963-1.203-3.037-1.203zm0-.6c1.274 0 2.645.588 3.448 1.391.825.825.918 1.91.918 2.721v.317h-8.732v-.317c0-.812.062-1.896.886-2.72.803-.804 2.206-1.393 3.48-1.393zM121.87 0q2.322 0 2.322 2.232V18h-1.071V2.232q0-1.16-1.252-1.16-1.261 0-1.261 1.16v10.492h-1.071V2.232q0-2.232 2.332-2.232zm-6.569 0l2.236 2.643h-1.09L115.3 1.277l-1.156 1.366-1.123-1.366-1.156 1.366-1.145-1.366-1.156 1.366-1.146-1.366-1.156 1.366-1.123-1.366-1.156 1.366-1.156-1.366-1.123 1.366-1.157-1.366-1.145 1.366h-1.09L101.548 0l1.157 1.277L103.828 0l1.156 1.277L106.14 0l1.123 1.277L108.42 0l1.146 1.277L110.72 0l1.145 1.277L113.022 0l1.123 1.277L115.301 0zm2.236 10.67V18h-1.225v-7.33zm-8.424.01V18h-1.225v-7.32zm-8.575 0V18h-1.225v-7.32zm-6.911-7.609c.27.13.6.49.1.55-.24-.01-.79-.26-.69-.49.051.05.104.067.157.067.142 0 .287-.127.433-.127zm1.97.09c.331.08.501.44.08.52l-.021.002c-.242 0-.901-.294-.358-.361.09-.06.18-.16.3-.16zm-2.63-2.51c-.59.69-1.11 1.49-1.211 2.41-.1.66-.13 1.321-.23 1.971.47-.04.33-.77.24-1.12-.08-.69.29-1.33.55-1.941.18-.33.35-.85.81-.86.51.09.841.52 1.171.89.34-.34.7-.71 1.17-.85a.236.236 0 0 1 .082-.013c.105 0 .229.046.286.046.049 0 .048-.034-.057-.164-.064-.224-.196-.29-.359-.29-.238 0-.542.141-.8.141a.561.561 0 0 1-.112-.01 5.346 5.346 0 0 1-.254.007c-.437 0-.876-.067-1.286-.218zm.16.76c-.39.1-.48.64-.67.96-.24.56-.53 1.17-.34 1.801.15.3-.04.68-.02.9.333.235.626.73 1.069.73a.631.631 0 0 0 .15-.02c.441-.09.661-.51 1.001-.71.247.238.392.73.798.73a.607.607 0 0 0 .183-.03c.37-.08.86-.04.97-.49.19-.46.21-.97.24-1.47a.324.324 0 0 1-.06.006c-.203 0-.222-.235-.24-.436-.078-.293-.287-.429-.52-.429a.762.762 0 0 0-.47.178c-.17.19-.69.34-.58.64.05.18.11.371.17.561l-.42.56c-.04-.29-.47-.53-.22-.82.04-.13.19-.3.17-.4-.18-.32-.42-.6-.701-.84a.322.322 0 0 0-.23-.103c-.268 0-.537.351-.77.382-.23-.25.02-.35.25-.48a.701.701 0 0 1 .486-.196c.25 0 .5.13.654.356.19.114.323.494.49.494.052 0 .108-.037.17-.134.306-.244.672-.518 1.072-.518.06 0 .119.005.179.018.283.059.538.632.56.632v-.001c.01-.47-.21-.89-.34-1.351a.612.612 0 0 0-.596-.477.596.596 0 0 0-.474.237c-.298.11-.516.634-.797.634a.272.272 0 0 1-.154-.054c-.31-.33-.56-.72-1.01-.86zm1.42 6.943c-1.27 1.31-2.44 4.632-2.74 5.993.49-.4 1.16-.66 1.31-.91.16-.26.6-2.792 1.43-5.083zm-4.522-2.381c-2.4 1.38-6.583 8.174-7.473 9.264 1.5-.95 2.981-1.91 4.592-2.691 2.26-1.11 4.192-2.911 6.033-4.592-1.521-.51-2.612-1.37-3.152-1.981zm2.491 8.624c-.32.19-.61.45-.96.59.21.52.34 1.1.77 1.51.081.13.196.172.328.172.228 0 .504-.123.735-.123.016 0 .032 0 .048.002-.28-.7-.7-1.01-.92-2.151zm-.68-9.365c-.06.126-.138.167-.22.167-.108 0-.224-.071-.32-.116-.24.17-1.07.15-.58.51.31.42 1.967 1.566 3.119 1.768.497.087-.338.873-.608 1.153-1.561 1.4-3.092 2.882-4.963 3.892-1.17.66-2.4 1.25-3.531 1.98-.54.781-1.18 1.502-1.591 2.362.41.12.81.29 1.23.39.222.056.462.082.703.082.661 0 1.325-.197 1.619-.512.54-.57 1.13-3.001 1.44-3.892.045-.1.107-.133.175-.133.135 0 .292.132.37.132a.041.041 0 0 0 .036-.019.391.391 0 0 1 .386-.376c.175 0 .339.127.314.396.06.63.18 1.26.48 1.831.037.097.114.134.215.134.284 0 .761-.293 1.086-.374-.13-.77.92-4.712 4.002-8.014.107-.116.577-.611.536-.611-.005 0-.016.006-.036.02a2.06 2.06 0 0 1-.511.07c-.338 0-.669-.104-.84-.42-.026-.077-.058-.108-.096-.108-.138 0-.345.399-.564.399a.92.92 0 0 1-.514.155c-.29 0-.578-.131-.777-.355-.19-.17-.37-.34-.56-.51zM92.876 0c.315.14.866.28 1.36.28.072 0 .143-.004.211-.01a.804.804 0 0 0 .143.012c.337 0 .7-.18 1.025-.18.124 0 .243.026.353.098.55.8 1.05 1.69 1.11 2.681.11 1.901.06 2.562-1.44 4.122-.59 1.341-1.69 5.713-2.021 6.904-.36.34.45 2.2.79 2.66.185.256.673.268 1.197.268h.172c.471 0 .948.01 1.243.193.28.18.38.85.22.94-.15-.23-.45-.54-.66-.57.2.21-.5.11-.651.16-.405.007-.814.041-1.225.041-.198 0-.397-.008-.596-.03-.09-.04-.186-.102-.228-.102-.033 0-.033.038.028.151a3.675 3.675 0 0 1-.912.111c-.7 0-1.364-.187-1.51-.56-.3-.551-.58-1.131-.78-1.732-.255.054-.576.234-.833.234a.38.38 0 0 1-.207-.054c-.28-.19-.57-1.08-.73-1.67-.016-.062-.099-.092-.183-.092-.081 0-.163.028-.187.082-.3.6-.8 2.44-1.281 3.211-.362.571-1.24.852-2.175.852a4.48 4.48 0 0 1-1.717-.332c-.65-.28-1.13-.22-.99-.58.22-.6.6-1.17 1-1.68-.58.36-1.16.73-1.74 1.09-.049.174-.169.243-.292.243-.236 0-.483-.256-.239-.513 2.271-3.282 5.883-8.875 8.384-10.685.4-.35.87-.62 1.39-.75.17-.44.12-1.031.22-1.531.1-.99.701-2.632 1.752-3.262zM74.05.885q-3.633.442 0 6.73 3.632-6.288 0-6.73zm0-.885q5.029.35.698 8.08h4.284v1.095h-4.238V18h-1.443V9.128h-4.285V8.08h4.285Q69.019.326 74.049 0zm-9.04 0l2.056 2.43h-1.002L65.01 1.174 63.948 2.43l-1.033-1.256-1.063 1.256-1.053-1.256-1.063 1.256-1.053-1.256L57.62 2.43l-1.033-1.256-1.063 1.256-1.063-1.256L53.43 2.43l-1.063-1.256-1.053 1.256H50.31L52.366 0l1.063 1.174L54.46 0l1.063 1.174L56.587 0l1.033 1.174L58.683 0l1.053 1.174L60.799 0l1.053 1.174L62.915 0l1.033 1.174L65.01 0zm-6.322 9.853c-1.19 0-2.25.55-2.941 1.41h5.882a3.761 3.761 0 0 0-2.94-1.41zm-3.34 2.017a3.75 3.75 0 0 0-.416 1.425h7.512a3.75 3.75 0 0 0-.417-1.425zm-.42 2.032c.038.51.176.992.396 1.425h6.729a3.75 3.75 0 0 0 .395-1.425zm.781 2.033a3.762 3.762 0 0 0 2.98 1.458 3.76 3.76 0 0 0 2.978-1.458zm2.98-6.69a4.383 4.383 0 0 1 4.376 4.378A4.383 4.383 0 0 1 58.688 18a4.383 4.383 0 0 1-4.377-4.377 4.383 4.383 0 0 1 4.377-4.378zM46.877 7.458v1.656c.565 0 .848-.283.848-.848 0-.539-.283-.808-.848-.808zM44.782 0c.463 0 .855.116 1.176.35.612.443.919 1.09.919 1.938v4.584c.942 0 1.42.465 1.433 1.394 0 .942-.478 1.413-1.433 1.413V18h-.747V2.732c0-1.023-.198-1.68-.596-1.969-.205-.15-.476-.225-.838-.225-.337 0-.754.065-1.273.195a.65.65 0 0 1-.212.043c-.111 0-.189-.048-.232-.144-.014-.162.108-.276.363-.343C43.881.096 44.361 0 44.782 0zm-8.169 7.386c-1.074 0-2.419.552-3.07 1.203-.568.569-.643 1.323-.664 2.025h7.435c-.02-.702-.095-1.456-.664-2.025-.65-.65-1.963-1.203-3.037-1.203zm0-.6c1.274 0 2.645.588 3.448 1.391.824.825.918 1.91.918 2.721v.317h-8.732v-.317c0-.812.061-1.896.886-2.72.803-.804 2.206-1.393 3.48-1.393zM26.976.809q-.832 0-1.324.312l1.424.93L25.67 3q.57.398 1.557.398 2.107-.095 2.107-1.33 0-1.081-2.088-1.252-.14-.008-.271-.008zm-.299 15.064q-1.272 0-1.519 1.462h3.057q-.285-1.462-1.538-1.462zM27.07 0h.054q1.453.02 2.27.475.816.456.854 1.576-.038 1.14-.845 1.595-.807.456-2.27.55V14.64l1.69-1.595.532.532-1.88 1.728q1.52.74 1.52 2.696H24.38q-.02-1.956 1.5-2.696L24 13.557l.532-.55 1.69 1.651V4.196q-.551-.094-1.937-1.063l1.386-1.082L24.285.969Q25.645 0 27.069 0zM0 0v.354L.177.177.354 0zm2.646 0L0 2.646v.708L3.177.177 3.354 0zm3 0L0 5.646v.708L6.177.177 6.354 0zm3 0L0 8.646v.708L9.177.177 9.354 0zm3 0L0 11.646v.708L12.177.177 12.354 0zm3 0L0 14.646v.708L15.177.177 15.354 0zm3 0L0 17.646V18h.354L18.177.177 18.354 0zm3 0L2.823 17.823 2.646 18h.708L21.177.177 21.354 0zM22 1.646L5.823 17.823 5.646 18h.708L22 2.354v-.708zm0 3L8.823 17.823 8.646 18h.708L22 5.354v-.708zm0 3L11.823 17.823l-.177.177h.708L22 8.354v-.708zm0 3l-7.177 7.177-.177.177h.708L22 11.354v-.708zm0 3l-4.177 4.177-.177.177h.708L22 14.354v-.708zm0 3l-1.177 1.177-.177.177h.708l.646-.646v-.708z"/></svg>