<svg xmlns="http://www.w3.org/2000/svg" width="114.377" height="18"><path d="M112.73 0c.335 0 .67.026.994.066.447.113.218.626-.18.626a.476.476 0 0 1-.081-.008c-.84.097-1.873.15-2.506.626-.841.916-.464 2.821-.561 3.725-.007.05-.01 3.653-.01 5.48a6.145 6.145 0 0 1 2.634-.586c.402 0 .802.04 1.188.117.44.231-.077.528-.423.528a.454.454 0 0 1-.114-.013c-1.226.133-2.62.461-3.243 1.602-.062.206-.023.277.07.277.207 0 .68-.342.947-.342.014 0 .027 0 .04.003a7.535 7.535 0 0 1 1.58-.169c.39 0 .776.031 1.149.095.42.278-.096.534-.438.534a.532.532 0 0 1-.105-.01c-1.252.151-2.637.49-3.243 1.633-.007 1.27 0 2.11-.034 3.278.015.36-.219.538-.456.538-.235 0-.473-.176-.474-.526.009-1.15.09-2.161-.06-3.277-.305-1.253-2.478-1.445-3.827-1.754-.295-.347.285-.475.658-.475.056 0 .107.003.15.008.173-.013.347-.02.522-.02.882 0 1.77.175 2.557.58.032-.755-.712-1.19-1.244-1.493-.84-.361-1.766-.397-2.643-.59-.314-.273.18-.501.521-.501a.58.58 0 0 1 .125.012c.215-.02.431-.031.648-.031.902 0 1.804.183 2.614.582-.017-2.851-.063-5.61.02-8.308.065-.834.545-1.6 1.354-1.849.58-.264 1.227-.358 1.87-.358zM88.735 2.99q-.557 0-1.087.606 4.368 5.2 5.46 5.81.815.457 1.434.457.211 0 .4-.053.74-.208 1.586-.234h.042q.828 0 1.817.988h.13q-.702-1.638-1.963-2.34-1.262-.702-7.398-5.148-.212-.085-.421-.085zm7.73-2.369q-.065 0-.132.01v6.683q2.054 1.196 2.834 3.354Q97.97 2.4 97.49 1.464 97.057.62 96.466.62zm5.356 10.468q.081 0 .154.138.13.247-.234.689-.208-.546-.052-.741.068-.086.132-.086zm-.036-.372q-.153 0-.33.237-.39.52.234 2.08.702-1.352.429-1.976-.15-.34-.333-.34zm-6.805 2.577v.39q.286-.026.442-.182-.052-.078-.208-.208zm-.598.884l-2.418.338-.494.884q.832-.234 1.833-.624t1.08-.598zm5.33-.364l-.467.234-.156 1.118.416 1.274h.65l-.442-1.274v-1.352zm-1.117.39l-.442.13-.156.832.416 1.274h.65l-.442-1.274-.026-.962zm-1.534.156l-.156.806.416 1.274h.65l-.442-1.274v-.78l-.468-.026zm.994-3.234q-.416 0-.89.1-1.405.3-1.769 1.418h-1.092l-.416-.676q-5.512 1.274-6.214 4.602 1.508-.832 3.172-1.118l.728-1.456 2.886-.39-.078-.702h.988q1.093.9 2.229.9.243 0 .489-.042 1.39-.234 1.82-.95.429-.714-.455-1.3-.585-.386-1.398-.386zM96.209 0q.948 0 1.489.658.663.806 1.235 4.238l.91 5.954q.442.468.676.52h.312q.026-.65.494-1.196.416-3.978-.364-6.968l.312-.598q1.118 3.38.546 7.592h.078q1.794-4.03.52-7.592l.312-.468q1.664 3.796-.364 8.242.572 1.248.117 2.054-.455.806-.56 1.508l-.181.13q-.702-1.04-.806-1.794h-.26q-.026.598-.338 1.248l-.182 1.638.442 1.274h2.262v.624h-6.526v-.624h.546l-.416-1.274-.026-.962q-.469-.156-.703-.364-.338.312-.754.312.026.26-.104.442-1.04.806-3.718 1.404l-.91 1.768q0-.434-.269-.434-.086 0-.199.044l.728-1.3q-1.508.338-2.288.858-.416.442.052 1.066-1.04-.442-1.17-1.248.416-3.926 7.046-5.46l.468.78h.416q.338-1.092 2.679-1.508-.523-.388-1.285-.388-.414 0-.9.115-.492.116-.96.116-.845 0-1.614-.376-1.196-.585-6.084-6.461.901-1.136 1.905-1.136.33 0 .67.122L95.76 7.08V.034Q95.995 0 96.21 0z"/><path d="M77.368.375c9.625 0 9.625 17.25 0 17.25" fill="none" stroke="#000"/><path d="M72.983 11.783c-.534.205-1.117.861-1.287 1.402-.17.54-.15 1.171-.03 1.792.12.61.36 1.191.65 1.571.201.26.381.41.551.46h.16c.17-.04.391-.19.611-.46.29-.38.53-.96.651-1.571.12-.621.14-1.252-.03-1.792-.17-.541-.808-1.243-1.276-1.395v-.007zM73.548 0v1.201h1.081v.771h-1.08l.15 9.09c.77.4 1.25 1.081 1.481 1.812.23.751.24 1.562.09 2.313-.15.75-.45 1.411-.86 1.942-.311.4-.722.73-1.202.831v.03c-.03.01-.06.01-.09.01-.04 0-.08-.01-.12-.01-.05.01-.1.01-.14.01-.04 0-.07 0-.11-.01v-.03c-.481-.1-.892-.43-1.202-.831a4.654 4.654 0 0 1-.861-1.942c-.15-.751-.14-1.562.09-2.313a2.97 2.97 0 0 1 1.482-1.782l.15-9.12h-1.021l-.03-.77h1.141V0h1.051zm-7.223 2.235q-.943 0-2.139 1.342-.923 1.028-2.5 1.028-.58 0-1.248-.139-2.496-.516-4.19-.545-.24-.005-.472-.005-1.393 0-2.492.196-1.281.22-2.305.89-1.023.679-1.95.679.186.01.37.01 1.23 0 2.336-.498.827-.37 2.728-.37.998 0 2.293.102 2.33.184 3.833.184.921 0 1.532-.07 1.606-.18 2.39-1.3.647-.922 1.007-.922.077 0 .141.042.373.25.985.259h.03q.585 0 .688-.373.019-.44-.947-.507-.045-.003-.09-.003zM64.952 0q.745 0 1.166 1.693.094-.011.19-.011.163 0 .336.03.593-1.52 1.33-1.52.258 0 .296.181.038.172-.105.363-.68.536-.909 1.12.698.344.698.889-.066.822-.908.908-.237.024-.439.024-.516 0-.804-.158-.113-.061-.219-.061-.272 0-.499.406-.325.573-1.233 1.233-.826.609-3.415.609-.259 0-.535-.006-3.08-.02-4.84-.163-.47-.04-.903-.04-1.187 0-2.07.308-.861.307-3.098.307-.894 0-2.01-.049-.047 0-.085-.191 0-.574 1.224-.574 1.673-.057 2.18-.478.507-.43 1.693-.985 1.195-.564 3.539-.564 2.343 0 4.772.564.753.172 1.378.172 1.389 0 2.141-.851 1.09-1.234 1.655-1.339 0-.402-.412-.88-.41-.468-.382-.707.019-.23.268-.23zm-7.365 13.137q-3.875 0-8.218 1.872 4.343 1.82 8.218 1.82 3.848 0 8.217-1.82-4.369-1.872-8.217-1.872zm0-1.196q4.785 0 11 3.042Q62.372 18 57.587 18t-11-3.017q6.189-3.042 11-3.042zM39.18.597a2.12 2.12 0 0 0-.692.109c.03.223.168.569.952.773-.73-.053-1.206-.113-1.452-.307-.089.2-.137.427-.158.556a.297.297 0 0 1-.206.237c-.625.191-1.174 1.112-1.701 1.763-.95 1.173-1.77 2.48-2.687 3.733.423-.207.845-.415 1.27-.622 1.181-.622 2.394-1.11 3.406-1.877.589-.49 1.172-.996 1.391-1.641.076-.497-.296-1.074-.767-1.279a.297.297 0 1 1 .237-.545c.377.164.7.458.904.817a1.986 1.986 0 0 0-.074-.448.297.297 0 0 1-.013-.104c.01-.184.041-.313.082-.422.04-.109.085-.206.158-.459a.297.297 0 0 1 .104-.153 1.546 1.546 0 0 0-.527-.125C39.364.6 39.324.6 39.282.599a.258.258 0 1 1-.102-.002zm-1.194 5.432c-.605.466-1.253.873-1.888 1.28.005.438-.006.879-.047 1.321.207-.135.434-.236.697-.3.391-.636.82-1.22 1.083-1.842a4.64 4.64 0 0 0 .155-.46zm.249 1c-.273.549-.622 1.04-.929 1.529.06.04.112.08.155.121l.027.027c.169-.194.375-.351.614-.454-.01-.348.047-.768.133-1.222zm-2.88.047a25.922 25.922 0 0 0-.588.297c-.78.38-1.56.772-2.35 1.148-.556.67-1.156 1.293-1.734 1.92l1.043.175L34.29 7.83a.297.297 0 0 1 .04-.036c.333-.253.678-.489 1.025-.718zm2.591 2.009c-.058.066-.112.14-.162.222a.298.298 0 0 1-.429.087c-.125-.09-.2-.177-.265-.244l-.078 1.413c.1-.006.202-.013.297-.013.166 0 .313.022.397.108.1-.078.28-.1.505-.1.057 0 .118.002.18.005l-.445-1.478zm5.419.999c-.452.062-.686.323-.704.783h1.395c0-.46-.23-.721-.691-.783zm-7.861-2.39a16.38 16.38 0 0 0-.798.56l-2.402 2.613h2.456c.17-.19.518-.365.776-.365.073 0 .139.014.191.046.082-.007.168-.01.257-.01.139 0 .285.007.433.016l.083-1.506c-.225.115-.407.282-.626.542a.297.297 0 0 1-.52-.246 9.773 9.773 0 0 0 .15-1.65zm6.24 3.745l.266.465h1.248l.253-.465zm-4.516 0v2.51l1.727-2.51zM39.172 0a3.878 3.878 0 0 1 .273.01c.694.044 1.215.325 1.407.768a.298.298 0 0 1-.34.408l-.025-.006-.03.007-.108.029c-.054.168-.096.269-.12.332a.541.541 0 0 0-.042.2c.155.552.094 1.107.037 1.389-.095.466-.384.977-.762 1.46a.295.295 0 0 1-.013.108 21.24 21.24 0 0 0-.548 2.027c-.153.708-.234 1.387-.193 1.684a.297.297 0 0 1-.223.33l-.018.005.527 1.75c.085-.013.172-.018.259-.018.256 0 .51.041.712.041a.865.865 0 0 0 .184-.016.314.314 0 0 1 .068-.007c.212 0 .656.13.787.366h1.099c.062-.797.482-1.235 1.262-1.315.788.08 1.195.518 1.222 1.315v.572h-.531l-.545 1.01h-1.767l-.531-1.01h-1.567l-2.404 3.493V18h-.572v-6.561h-4.516v-.41l-.1.109a.297.297 0 0 1-.267.092l-1.74-.292a.298.298 0 0 1-.173-.492c.217-.242.436-.48.656-.716l-1.656 1.078a.296.296 0 0 1-.412-.087.297.297 0 0 1 .087-.411l1.345-.876a.292.292 0 0 1-.076-.09.315.315 0 0 1-.02-.237c.016-.05.034-.074.047-.093.056-.076.085-.088.124-.119.04-.03.083-.06.131-.094l.3-.2a4.156 4.156 0 0 0 .217-.156l2.379-1.672.008-.005c.805-1.13 1.567-2.316 2.456-3.414.433-.535.938-1.524 1.813-1.894.048-.262.156-.68.483-.997C38.11.119 38.62 0 39.172 0z"/><path d="M18.73.375v17.25M26.418.375c-9.625 0-9.625 17.25 0 17.25m0 0" fill="none" stroke="#000"/><path d="M10.761.597a2.12 2.12 0 0 0-.692.109c.031.223.169.569.953.773-.73-.053-1.206-.113-1.452-.307-.09.2-.137.427-.158.556a.297.297 0 0 1-.207.237c-.624.191-1.173 1.112-1.7 1.763-.95 1.173-1.771 2.48-2.688 3.733l1.27-.622c1.182-.622 2.395-1.11 3.407-1.877.589-.49 1.172-.996 1.39-1.641.076-.497-.296-1.074-.767-1.279a.297.297 0 1 1 .238-.545c.377.164.7.458.904.817a1.986 1.986 0 0 0-.075-.448.297.297 0 0 1-.012-.104c.01-.184.041-.313.082-.422.04-.109.085-.206.157-.459a.297.297 0 0 1 .105-.153 1.546 1.546 0 0 0-.527-.125C10.946.6 10.905.6 10.864.599a.258.258 0 1 1-.103-.002zM9.568 6.029c-.606.466-1.253.873-1.888 1.28a13 13 0 0 1-.047 1.321c.207-.135.434-.236.697-.3.39-.636.82-1.22 1.082-1.842.054-.129.105-.29.156-.46zm.248 1c-.273.549-.62 1.04-.928 1.529.059.04.112.08.155.121l.027.027a1.72 1.72 0 0 1 .613-.454c-.01-.348.047-.768.133-1.222zm-2.88.047a25.922 25.922 0 0 0-.588.297c-.78.38-1.56.772-2.349 1.148-.556.67-1.157 1.293-1.735 1.92l1.044.175L5.87 7.83a.297.297 0 0 1 .04-.036 18.5 18.5 0 0 1 1.026-.718zm2.592 2.009c-.058.066-.112.14-.162.222a.298.298 0 0 1-.429.087c-.125-.09-.2-.177-.266-.244l-.077 1.413c.1-.006.201-.013.296-.013.167 0 .314.022.398.108.1-.078.28-.1.504-.1.058 0 .118.002.18.005l-.444-1.478zm5.418.999c-.451.062-.686.323-.703.783h1.394c0-.46-.23-.721-.69-.783zm-7.86-2.39a16.38 16.38 0 0 0-.798.56l-2.403 2.613h2.456c.171-.19.519-.365.776-.365.074 0 .14.014.192.046.082-.007.168-.01.256-.01.14 0 .286.007.434.016l.082-1.506c-.224.115-.407.282-.625.542a.297.297 0 0 1-.52-.246c.1-.544.142-1.093.15-1.65zm6.24 3.745l.266.465h1.248l.253-.465zm-4.516 0v2.51l1.727-2.51zM10.754 0a3.878 3.878 0 0 1 .272.01c.695.044 1.215.325 1.408.768a.298.298 0 0 1-.34.408l-.025-.006-.03.007-.108.029c-.055.168-.096.269-.12.332a.541.541 0 0 0-.042.2c.154.552.094 1.107.036 1.389-.095.466-.384.977-.76 1.46a.295.295 0 0 1-.015.108 21.24 21.24 0 0 0-.548 2.027c-.152.708-.233 1.387-.192 1.684a.297.297 0 0 1-.223.33l-.019.005.527 1.75c.086-.013.173-.018.26-.018.256 0 .509.041.712.041a.865.865 0 0 0 .183-.016.314.314 0 0 1 .068-.007c.212 0 .657.13.787.366h1.1c.062-.797.482-1.235 1.261-1.315.788.08 1.196.518 1.222 1.315v.572h-.53l-.545 1.01h-1.767l-.531-1.01h-1.568l-2.404 3.493V18h-.571v-6.561H3.736v-.41l-.1.109a.297.297 0 0 1-.268.092l-1.74-.292a.298.298 0 0 1-.172-.492c.216-.242.436-.48.656-.716L.455 10.808a.296.296 0 0 1-.411-.087.297.297 0 0 1 .087-.411l1.344-.876a.292.292 0 0 1-.076-.09.315.315 0 0 1-.02-.237.305.305 0 0 1 .048-.093c.055-.076.084-.088.124-.119l.13-.094c.096-.065.207-.137.301-.2a4.156 4.156 0 0 0 .217-.156l2.378-1.672.008-.005c.806-1.13 1.568-2.316 2.457-3.414.433-.535.938-1.524 1.812-1.894.048-.262.157-.68.484-.997C9.69.119 10.2 0 10.754 0z"/></svg>