<svg xmlns="http://www.w3.org/2000/svg" width="216.848" height="18"><path d="M215.201 0c.336 0 .67.026.995.066.447.113.217.626-.18.626a.476.476 0 0 1-.082-.008c-.839.097-1.872.15-2.506.626-.84.916-.463 2.821-.56 3.725-.008.05-.01 3.653-.01 5.48a6.145 6.145 0 0 1 2.634-.586c.402 0 .801.04 1.188.117.44.231-.077.528-.423.528a.454.454 0 0 1-.114-.013c-1.227.133-2.62.461-3.244 1.602-.061.206-.023.277.071.277.207 0 .68-.342.947-.342.014 0 .027 0 .04.003a7.535 7.535 0 0 1 1.58-.169c.39 0 .776.031 1.148.095.421.278-.095.534-.437.534a.532.532 0 0 1-.105-.01c-1.252.151-2.637.49-3.244 1.633-.006 1.27 0 2.11-.033 3.278.015.36-.22.538-.456.538-.235 0-.473-.176-.475-.526.01-1.15.091-2.161-.06-3.277-.304-1.253-2.477-1.445-3.827-1.754-.294-.347.285-.475.659-.475.056 0 .107.003.15.008.173-.013.347-.02.521-.02.883 0 1.771.175 2.557.58.033-.755-.71-1.19-1.243-1.493-.84-.361-1.766-.397-2.644-.59-.313-.273.18-.501.522-.501a.58.58 0 0 1 .125.012c.215-.02.431-.031.647-.031.903 0 1.805.183 2.615.582-.017-2.851-.063-5.61.019-8.308.065-.834.546-1.6 1.354-1.849.58-.264 1.227-.358 1.871-.358z"/><path d="M209.646 0l-1.696 1.697v.707l2.227-2.227.177-.177zm3 0l-4.696 4.697v.707l5.227-5.227.177-.177zm3 0l-7.696 7.697v.707l8.227-8.227.177-.177zm1.202 1.798l-8.898 8.899v.707l8.898-8.899v-.707zm0 3l-8.898 8.899v.707l8.898-8.899v-.707zm0 3l-8.898 8.899v.707l8.898-8.899v-.707zm0 3l-7.025 7.025-.177.177h.708l6.494-6.495v-.707zm0 3l-4.025 4.025-.177.177h.708l3.494-3.495v-.707zm0 3l-1.025 1.025-.177.177h.708l.494-.495v-.707zM218.646 0l-1.798 1.798v.707l2.035-2.034V0zm.237 2.763l-2.035 2.035v.707l2.035-2.034v-.708zm0 3l-2.035 2.035v.707l2.035-2.034v-.708zm0 3l-2.035 2.035v.707l2.035-2.034v-.708zm0 3l-2.035 2.035v.707l2.035-2.034v-.708zm0 3l-2.035 2.035v.707l2.035-2.034v-.708zM191.206 2.99q-.557 0-1.086.606 4.368 5.2 5.46 5.81.815.457 1.434.457.21 0 .4-.053.74-.208 1.585-.234h.042q.828 0 1.817.988h.13q-.702-1.638-1.963-2.34-1.26-.702-7.397-5.148-.213-.085-.422-.085zm7.731-2.369q-.065 0-.133.01v6.683q2.054 1.196 2.834 3.354-1.196-8.268-1.677-9.204-.433-.843-1.024-.843zm5.356 10.468q.08 0 .153.138.13.247-.234.689-.208-.546-.052-.741.07-.086.133-.086zm-.036-.372q-.153 0-.33.237-.39.52.233 2.08.702-1.352.43-1.976-.15-.34-.333-.34zm-6.805 2.577v.39q.286-.026.442-.182-.052-.078-.208-.208zm-.598.884l-2.418.338-.494.884q.832-.234 1.833-.624t1.08-.598zm5.33-.364l-.468.234-.156 1.118.416 1.274h.65l-.442-1.274v-1.352zm-1.118.39l-.442.13-.156.832.416 1.274h.65l-.442-1.274-.026-.962zm-1.534.156l-.156.806.416 1.274h.65L200 15.166v-.78l-.468-.026zm.994-3.234q-.415 0-.89.1-1.404.3-1.768 1.418h-1.092l-.416-.676q-5.512 1.274-6.214 4.602 1.508-.832 3.172-1.118l.728-1.456 2.886-.39-.078-.702h.988q1.092.9 2.228.9.244 0 .49-.042 1.39-.234 1.82-.95.428-.714-.456-1.3-.585-.386-1.398-.386zM198.681 0q.947 0 1.488.658.663.806 1.235 4.238l.91 5.954q.442.468.676.52h.312q.026-.65.494-1.196.416-3.978-.364-6.968l.312-.598q1.118 3.38.546 7.592h.078q1.794-4.03.52-7.592l.312-.468q1.664 3.796-.364 8.242.572 1.248.117 2.054-.455.806-.559 1.508l-.182.13q-.702-1.04-.806-1.794h-.26q-.026.598-.338 1.248l-.182 1.638.442 1.274h2.262v.624h-6.526v-.624h.546l-.416-1.274-.026-.962q-.468-.156-.702-.364-.338.312-.754.312.026.26-.104.442-1.04.806-3.718 1.404l-.91 1.768q0-.434-.27-.434-.085 0-.198.044l.728-1.3q-1.508.338-2.288.858-.416.442.052 1.066-1.04-.442-1.17-1.248.416-3.926 7.046-5.46l.468.78h.416q.338-1.092 2.678-1.508-.522-.388-1.284-.388-.415 0-.9.115-.492.116-.961.116-.844 0-1.613-.376-1.196-.585-6.084-6.461.9-1.136 1.905-1.136.329 0 .669.122l6.318 4.524V.034q.235-.034.449-.034z"/><path d="M179.84.375c9.625 0 9.625 17.25 0 17.25" fill="none" stroke="#000"/><path d="M173.618 7.938c.681.054 1.058.394 1.13 1.022-.09.68-.466 1.04-1.13 1.075-.663-.036-1.013-.394-1.048-1.075.053-.628.403-.968 1.048-1.022zm-.08-2.259c-.484 0-.933.09-1.345.27a3.545 3.545 0 0 0-1.828 1.815 3.11 3.11 0 0 0-.27 1.276c0 .466.09.901.27 1.304a3.422 3.422 0 0 0 3.173 2.03c.484 0 .936-.085 1.357-.255a3.24 3.24 0 0 0 1.09-.712c.304-.305.546-.66.726-1.063.179-.403.268-.838.268-1.304 0-.448-.09-.874-.268-1.277a3.67 3.67 0 0 0-.726-1.075 3.302 3.302 0 0 0-1.09-.74 3.431 3.431 0 0 0-1.357-.269zm.053-.914a4.17 4.17 0 0 1 1.668.336c.52.224.968.529 1.344.914.376.386.677.834.9 1.345.225.51.337 1.062.337 1.653 0 .592-.112 1.143-.336 1.654a4.31 4.31 0 0 1-.901 1.331 4.267 4.267 0 0 1-3.012 1.237 4.071 4.071 0 0 1-1.653-.336 4.48 4.48 0 0 1-1.345-.9 4.195 4.195 0 0 1-.914-1.332 4.071 4.071 0 0 1-.336-1.654c0-.591.112-1.142.336-1.653a4.358 4.358 0 0 1 2.259-2.259 4.071 4.071 0 0 1 1.653-.336zM165.02 0q2.323 0 2.323 2.232V18h-1.071V2.232q0-1.16-1.252-1.16-1.261 0-1.261 1.16v10.492h-1.071V2.232Q162.688 0 165.02 0zm-9.737 0c.12 0 .128.377.299.935.195.635.338 1.962.788 2.22a.4.4 0 0 0 .204.052c.134 0 .27-.05.418-.05.054 0 .11.006.168.025.212.068.323.397.545.436.922.16 2.183.1 2.888.163.452.04-.756.93-1.965.93h-.051c-.251-.005-.516-.017-.779-.017-.441 0-.877.032-1.237.18-.352.146-.768.567-.763.981L155.945 18h-1.358l.069-13.719c.002-.368-1.061-.618-1.2-.936-.242-.553-.119-2.995.272-3.323a.021.021 0 0 1 .014-.006c.176 0 .505 2.56 1.021 3.111.053.056.157.082.247.082.097 0 .177-.03.162-.082-.329-1.118-.46-2.749.054-3.105a.102.102 0 0 1 .057-.022zm-6.273 0q2.323 0 2.323 2.232V18h-1.072V2.232q0-1.16-1.251-1.16-1.261 0-1.261 1.16v10.492h-1.072V2.232Q146.677 0 149.01 0zm-12.334.768q-2.486 0-5.273 1.2 2.787 1.169 5.273 1.169 2.47 0 5.273-1.168-2.804-1.201-5.273-1.201zm0-.768q3.07 0 7.058 1.952-3.988 1.936-7.058 1.936t-7.058-1.936Q133.59 0 136.676 0zm-7.142 13.594q-.334 0-.334.35v2.688h1.018l-.334-2.832q-.016-.206-.35-.206zm-.016-.43q.811 0 .859.461.334 3.007.716 3.023l7.38.27.764-.032q.86-.906 1.527-.906l.493-.032q1.352.254 1.623.254.19 0 .19.255 0 .35-.54.35-.929-.148-1.425-.148-.09 0-.166.005-.27 0-.445.222.31.385 1.388.385.083 0 .17-.003 1.226-.032 2.164-.318.461 0 .461.541-.047.493-3.452.509l-1.51-.16-8.622-.047-2.418.032v-3.881q.016-.78.843-.78zm-4.898-5.379l2.055 2.43h-1.003L124.62 8.96l-1.063 1.255-1.032-1.255-1.063 1.255-1.053-1.255-1.063 1.255-1.053-1.255-1.063 1.255-1.033-1.255-1.063 1.255-1.063-1.255-1.033 1.255-1.063-1.255-1.053 1.255h-1.002l2.055-2.43 1.063 1.175 1.033-1.175 1.063 1.175 1.063-1.175 1.033 1.175 1.063-1.175 1.053 1.175 1.063-1.175 1.053 1.175 1.063-1.175 1.032 1.175 1.063-1.175z"/><path d="M100.232.375v17.25M107.92.375c-9.626 0-9.626 17.25 0 17.25m0 0" fill="none" stroke="#000"/><path d="M92.262.597a2.12 2.12 0 0 0-.692.109c.031.223.169.569.953.773-.73-.053-1.206-.113-1.452-.307-.09.2-.138.427-.159.556a.297.297 0 0 1-.206.237c-.625.191-1.174 1.112-1.7 1.763-.95 1.173-1.771 2.48-2.688 3.733.423-.207.845-.415 1.27-.622 1.182-.622 2.395-1.11 3.407-1.877.588-.49 1.172-.996 1.39-1.641.076-.497-.296-1.074-.767-1.279a.297.297 0 1 1 .238-.545c.377.164.7.458.904.817a1.986 1.986 0 0 0-.075-.448.297.297 0 0 1-.013-.104c.01-.184.042-.313.083-.422.04-.109.084-.206.157-.459a.297.297 0 0 1 .105-.153 1.546 1.546 0 0 0-.528-.125C92.447.6 92.406.6 92.364.599a.258.258 0 1 1-.102-.002zm-1.194 5.432c-.605.466-1.253.873-1.888 1.28.005.438-.006.879-.046 1.321.206-.135.433-.236.697-.3.39-.636.82-1.22 1.082-1.842a4.64 4.64 0 0 0 .155-.46zm.25 1c-.274.549-.622 1.04-.93 1.529.06.04.113.08.155.121l.028.027c.168-.194.374-.351.613-.454-.01-.348.047-.768.133-1.222zm-2.881.047a25.922 25.922 0 0 0-.588.297c-.78.38-1.56.772-2.35 1.148-.556.67-1.156 1.293-1.734 1.92l1.043.175 2.563-2.786a.297.297 0 0 1 .04-.036 18.5 18.5 0 0 1 1.026-.718zm2.591 2.009c-.057.066-.112.14-.161.222a.298.298 0 0 1-.43.087c-.124-.09-.2-.177-.265-.244l-.077 1.413c.1-.006.201-.013.296-.013.167 0 .313.022.398.108.1-.078.28-.1.504-.1.057 0 .118.002.18.005l-.445-1.478zm5.419.999c-.452.062-.686.323-.704.783h1.395c0-.46-.23-.721-.691-.783zm-7.86-2.39c-.274.182-.542.367-.799.56l-2.402 2.613h2.456c.17-.19.518-.365.776-.365.073 0 .14.014.192.046a3.01 3.01 0 0 1 .256-.01c.14 0 .286.007.433.016l.083-1.506c-.224.115-.407.282-.625.542a.297.297 0 0 1-.52-.246c.1-.544.142-1.093.15-1.65zm6.24 3.745l.265.465h1.249l.252-.465zm-4.516 0v2.51l1.726-2.51zM92.255 0a3.878 3.878 0 0 1 .272.01c.694.044 1.215.325 1.408.768a.298.298 0 0 1-.341.408l-.024-.006-.03.007-.109.029c-.054.168-.095.269-.12.332a.541.541 0 0 0-.042.2 3.1 3.1 0 0 1 .037 1.389c-.095.466-.384.977-.761 1.46a.295.295 0 0 1-.014.108 21.24 21.24 0 0 0-.548 2.027c-.152.708-.233 1.387-.192 1.684a.297.297 0 0 1-.223.33l-.019.005.527 1.75c.086-.013.173-.018.26-.018.256 0 .509.041.712.041a.865.865 0 0 0 .183-.016.314.314 0 0 1 .068-.007c.212 0 .657.13.787.366h1.1c.061-.797.482-1.235 1.261-1.315.788.08 1.196.518 1.222 1.315v.572h-.531l-.545 1.01h-1.766l-.532-1.01h-1.567l-2.404 3.493V18h-.571v-6.561h-4.516v-.41l-.1.109a.297.297 0 0 1-.268.092l-1.74-.292a.298.298 0 0 1-.173-.492c.217-.242.437-.48.656-.716l-1.656 1.078a.296.296 0 0 1-.412-.087.297.297 0 0 1 .087-.411l1.345-.876a.292.292 0 0 1-.076-.09.315.315 0 0 1-.02-.237c.016-.05.034-.074.048-.093.055-.076.084-.088.123-.119.04-.03.084-.06.131-.094.096-.065.206-.137.301-.2a4.156 4.156 0 0 0 .216-.156l2.379-1.672.008-.005c.805-1.13 1.568-2.316 2.457-3.414.433-.535.938-1.524 1.812-1.894.048-.262.157-.68.484-.997C91.19.119 91.702 0 92.255 0zM78.067 7.458v1.656c.565 0 .848-.283.848-.848 0-.539-.283-.808-.848-.808zM75.972 0c.463 0 .855.116 1.176.35.613.443.919 1.09.919 1.938v4.584c.942 0 1.42.465 1.434 1.394 0 .942-.478 1.413-1.434 1.413V18h-.747V2.732c0-1.023-.198-1.68-.595-1.969-.206-.15-.476-.225-.839-.225-.337 0-.754.065-1.273.195a.65.65 0 0 1-.212.043c-.111 0-.188-.048-.232-.144-.013-.162.108-.276.364-.343C75.07.096 75.55 0 75.972 0z"/><path d="M74.646 0l-.477.477v.707L75.177.177 75.354 0zm3 0L74.17 3.477v.707L78.177.177 78.354 0zm1.855 1.146l-5.332 5.331v.707l5.332-5.331v-.707zm0 3l-5.332 5.331v.707l5.332-5.331v-.707zm0 3l-5.332 5.331v.707l5.332-5.331v-.707zm0 3l-5.332 5.331v.707l5.332-5.331v-.707zm0 3l-4.678 4.677-.177.177h.708l4.147-4.147v-.707zm0 3l-1.678 1.677-.177.177h.708l1.147-1.147v-.707z"/><path d="M80.646 0l-1.145 1.146v.707L81.177.177 81.354 0zm.877 2.123l-2.022 2.023v.707l2.022-2.023v-.707zm0 3l-2.022 2.023v.707l2.022-2.023v-.707zm0 3l-2.022 2.023v.707l2.022-2.023v-.707zm0 3l-2.022 2.023v.707l2.022-2.023v-.707zm0 3l-2.022 2.023v.707l2.022-2.023v-.707zm0 3l-.7.7-.177.177h.708l.17-.17v-.707zM67.803.601c-1.074 0-2.418.552-3.069 1.202-.569.57-.643 1.324-.664 2.025h7.435c-.021-.7-.096-1.455-.665-2.025-.65-.65-1.963-1.202-3.037-1.202zm0-.601c1.274 0 2.645.589 3.449 1.392.824.824.917 1.91.917 2.72v.317h-8.732v-.316c0-.812.062-1.897.886-2.72C65.126.588 66.529 0 67.803 0zm1.187 9.627c5.438 1.9 2.904 9.54-2.195 8.228-5.054-1.302-4.046-9.318 2.195-8.228m-.243.698c-5.418-.787-5.64 5.768-1.708 6.812 3.846 1.022 6.482-5.13 1.708-6.812m-1.189 1.152c-1.082-.74.885-.487 0-.018v.018m1.986.433c-1.227-.397.343-.795 0-.073v.073m-2.993-.712v.732l-.73-.244.73-.488m3.57 2.066c-.902-.795.596-.885.11-.09l-.11.09m-2.838-.846l.244.731-.732-.487.488-.244m1.052.358l.072-.017c.668-.489 1.39 1.767-.072.017m-3.014-.397c.956.56-.162.703-.253.703l.253-.703m2.938 1.502l-.244.244-.488-.732.732.488m-1.675-.474l.47.019c-.56.866-.758.793-.47-.019m3.681 1.517c-.883-.74.434-.632.416-.488l-.416.488m-1.01-.903l-.22.305c-.718-.215-.34-.792.22-.305m-3.435.836l-.244.244-.488-.732.732.488m1.323.012c.759-.378.92-.27.47.344l-.47-.344m2.579.72l-.244.731-.488-.732h.732m-3.246-.465l.45.54c-.107.217-1.1.145-.45-.54m1.539.71l.244.731h-.732l.488-.732zM57.86 4.845c.947.012 1.815.243 2.471.778.68.54 1.112 1.378 1.106 2.405v5.127h-.705V8.022c0-.838-.316-1.434-.838-1.853-.504-.4-1.215-.62-2.017-.62h-.097c-.796 0-1.512.22-2.017.62-.522.42-.838 1.015-.838 1.853v5.133h-.705V8.028c-.006-1.027.426-1.865 1.106-2.405.656-.535 1.525-.766 2.472-.778zm-5.64.48v7.35h-.735v-7.35zm-4.37 0v7.35h-.735v-7.35zm-4.956-4.001q.316 0 .316.266 0 .267-.277.267-.316 0-.316-.247-.01-.286.277-.286zM35.999.375q.01.316.464.539.225.11.097.11-.131 0-.63-.115.296.227.523.365 1.433.405 2.717 1.857-.91-1.59-3.171-2.756zm-1.067.702q.079.306.533.42.387.096-.207.096-.104 0-.237-.003.593.336.736.346.143.01.01.074-.134.064-.608.064.405.257.677.272.271.015.113.08-.158.063-.582.063.211.197.515.197.094 0 .196-.019l-.455.237q.218.08.405.109.504.02 0 .257.106.066.255.066.075 0 .16-.017.553.632 2.835 1.867l-.207.148-.504-.138q-.395.662-1.126 1.235-.79.108-.8.82.008.336.41.336.07 0 .153-.01.033.005.065.005.284 0 .488-.39.264-.45.692-.45h.01q.434.005.71.143l.742-.276q1.047-1.295 1.526-1.843.479-.548.696-1.422.217-.874.647-1.112.43-.237 1.032-.681l-.098-.168q-.444-.174-.773-.174-.752 0-.897.915-.207 1.314-.444 1.793-.237.479-.944.548-.036.004-.074.004-.688 0-1.719-1.2-1.086-1.264-2.415-1.679-1.328-.414-1.516-.513zM35.84 0q2.499 1.245 3.274 2.519.776 1.274 1.17 1.442.196.083.392.083.201 0 .404-.088.4-.173.543-1.136.144-.963.341-1.348.198-.385.746-.519.15-.036.305-.036.416 0 .875.259.465-.178.86-.178.286.138.118.237-1.165.75-1.718 1.121-.554.37-.776 1.309-.222.938-1.091 1.748-.91.968-.9 1.61.08.396.53.939.449.543.528 1.077.01.286-.109.424-.168-.069-.198-.217.05-.306-.014-.42-.065-.113-.144-.271-.118.306-.098.652-.237-.178-.218-.386l.07-.573q-.544-.533-.78-1.106-.238.05-.337.188.07.444.43.844.36.4.499.865-.03.622-.148.652-.168-.218-.114-.356.054-.138.005-.252-.05-.114-.119-.232-.138.138-.138.642-.178-.128-.217-.336.138-.444.04-.681-.524-.534-.781-1.275-.227-.099-.48-.148-.044-.009-.089-.009-.204 0-.4.187-.205.67-.876.67-.198 0-.437-.058-.14.234-.508.234-.099 0-.213-.016-.02-.514.326-.692-.096-1.147.817-1.147l.062.001q.88-.8 1.087-1.205-1.423-.77-2.114-1.491-.023.004-.049.004-.204 0-.564-.281l.237-.119q-.276-.04-.622-.326l.316-.049q-.207-.02-.533-.385l.365-.02q-.346-.099-.543-.425l.504-.01q-.544-.158-.623-.464l.208-.03q-.297-.167-.257-.671l1.324.434q-.287-.177-.287-.494l.208.02Q35.683.474 35.84 0zm7.85 11.157q.289 0 .289.219 0 .183-.289.183-.28 0-.28-.183 0-.219.28-.219zm-.218-.122q-.664 0-.996.428-.166.271-.324.83.01.132.219.175.21.044.41.044.927-.34 1.434-1.18-.035-.297-.743-.297zm-1.582 1.31q-.166.123-.703.447-.538.323-1.678 1.341t-1.726 1.197q-.586.18-1.377.214-.79.035-1.192.184 0 .122.253.192 2.194-.253 3.22-.472 1.027-.218 1.517-.371.489-.153 1.25-.581.76-.429 1.214-.83.454-.403.594-.63.14-.227-.345-.24-.485-.013-.787-.14-.301-.127-.24-.31zm-6.703 3.427l-.07.07q0 .07.088.096l.166-.01q-.184-.078-.184-.156zm-.113.104l-.07.088.13-.009q-.051-.044-.06-.079zm9.237-4.5q-.594.848-1.39 1.188.102-.005.19-.005.642 0 .65.276 0 .437-1.49 1.503-1.49 1.067-3.51 1.381-.873.114-.978.34-.018.167.83.21h1.407q.14-.305.516-.559l-.079.219q1.398-.804 2.451-1.779 1.053-.974 1.062-1.69 0-.341.34-.857 0-.079.473-.149v-.017l-.472-.061zM37.46 15.98l-2.421.429q.253.104.354.375.1.271-.022.656l2.508-.988q-.035-.009-.166-.074-.131-.066-.232-.18-.1-.113-.021-.218zm3.801-.166q-.944.63-.926.822.14.454.681 1.153.289 0 .546-.06.14-.034.29-.034.128 0 .265.024-.9-1.276-.9-1.328 0-.34.053-.577zm2.22-5.06q.463 0 .694.127.232.127.25.337.69.096.69.14v.174q-.018.044-.577.21-.297.393-.297.716 0 .612-.446 1.206-.445.595-1.914 1.95-.13 0-.27.777l.821 1.258q.105.07.28.08.288-.097.917-.097.2.061.354.061.11 0 .197-.03.17-.06.454-.06.067 0 .14.003.297.14.052.384l-4.369.01.14-.21q-.271-.445-.7-1.223h-1.572l-3.409 1.32-.034-.123q.367-.367.305-.83-.13-.376-.69-.498v-.123l1.398-.253v-.009l-1.31.088q0-.035.222-.446.223-.41.94-.41 1.17-.036 1.726-.114.555-.08 2.119-1.512 1.564-1.433 2.237-1.59.323-1.312 1.652-1.312zM28.275 7.938c.682.054 1.058.394 1.13 1.022-.09.68-.466 1.04-1.13 1.075-.663-.036-1.012-.394-1.048-1.075.053-.628.403-.968 1.048-1.022zm-.08-2.259c-.484 0-.932.09-1.345.27a3.545 3.545 0 0 0-1.828 1.815 3.11 3.11 0 0 0-.27 1.276c0 .466.09.901.27 1.304a3.422 3.422 0 0 0 3.173 2.03c.484 0 .936-.085 1.358-.255.42-.17.784-.408 1.089-.712.304-.305.546-.66.726-1.063.179-.403.269-.838.269-1.304 0-.448-.09-.874-.27-1.277a3.67 3.67 0 0 0-.725-1.075 3.302 3.302 0 0 0-1.09-.74 3.431 3.431 0 0 0-1.357-.269zm.053-.914a4.17 4.17 0 0 1 1.668.336c.52.224.968.529 1.344.914.377.386.677.834.9 1.345.225.51.337 1.062.337 1.653 0 .592-.112 1.143-.336 1.654a4.31 4.31 0 0 1-.9 1.331 4.267 4.267 0 0 1-3.013 1.237 4.071 4.071 0 0 1-1.653-.336 4.48 4.48 0 0 1-1.345-.9 4.195 4.195 0 0 1-.914-1.332A4.071 4.071 0 0 1 24 9.013c0-.591.112-1.142.336-1.653a4.358 4.358 0 0 1 2.259-2.26 4.071 4.071 0 0 1 1.653-.336zM0 0v.354L.177.177.354 0zm2.646 0L0 2.646v.708L3.177.177 3.354 0zm3 0L0 5.646v.708L6.177.177 6.354 0zm3 0L0 8.646v.708L9.177.177 9.354 0zm3 0L0 11.646v.708L12.177.177 12.354 0zm3 0L0 14.646v.708L15.177.177 15.354 0zm3 0L0 17.646V18h.354L18.177.177 18.354 0zm3 0L2.823 17.823 2.646 18h.708L21.177.177 21.354 0zM22 1.646L5.823 17.823 5.646 18h.708L22 2.354v-.708zm0 3L8.823 17.823 8.646 18h.708L22 5.354v-.708zm0 3L11.823 17.823l-.177.177h.708L22 8.354v-.708zm0 3l-7.177 7.177-.177.177h.708L22 11.354v-.708zm0 3l-4.177 4.177-.177.177h.708L22 14.354v-.708zm0 3l-1.177 1.177-.177.177h.708l.646-.646v-.708z"/></svg>