<svg xmlns="http://www.w3.org/2000/svg" width="91.15" height="18"><path d="M89.503 0c.335 0 .67.026.995.066.447.113.217.626-.18.626a.476.476 0 0 1-.082-.008c-.84.097-1.872.15-2.506.626-.84.916-.463 2.821-.561 3.725-.007.05-.01 3.653-.01 5.48a6.145 6.145 0 0 1 2.635-.586c.402 0 .801.04 1.188.117.44.231-.077.528-.423.528a.454.454 0 0 1-.115-.013c-1.226.133-2.62.461-3.243 1.602-.061.206-.023.277.071.277.206 0 .68-.342.946-.342.014 0 .028 0 .04.003a7.535 7.535 0 0 1 1.581-.169c.39 0 .776.031 1.148.095.42.278-.095.534-.438.534a.532.532 0 0 1-.105-.01c-1.251.151-2.636.49-3.243 1.633-.007 1.27 0 2.11-.033 3.278.014.36-.22.538-.456.538-.235 0-.473-.176-.475-.526.009-1.15.091-2.161-.06-3.277-.304-1.253-2.477-1.445-3.827-1.754-.294-.347.285-.475.659-.475.056 0 .107.003.15.008.173-.013.347-.02.521-.02.882 0 1.771.175 2.557.58.032-.755-.711-1.19-1.244-1.493-.84-.361-1.765-.397-2.643-.59-.313-.273.18-.501.521-.501a.58.58 0 0 1 .125.012c.216-.02.432-.031.648-.031.903 0 1.805.183 2.615.582-.017-2.851-.063-5.61.019-8.308.065-.834.546-1.6 1.354-1.849C88.212.094 88.859 0 89.503 0zM65.508 2.99q-.557 0-1.086.606 4.368 5.2 5.46 5.81.815.457 1.434.457.21 0 .399-.053.741-.208 1.586-.234h.042q.828 0 1.817.988h.13q-.702-1.638-1.963-2.34-1.261-.702-7.397-5.148-.213-.085-.422-.085zM73.24.622q-.065 0-.133.01v6.683q2.054 1.196 2.834 3.354-1.196-8.268-1.677-9.204Q73.83.62 73.239.62zm5.356 10.468q.08 0 .153.138.13.247-.234.689-.208-.546-.052-.741.069-.086.133-.086zm-.037-.372q-.153 0-.33.237-.39.52.234 2.08.702-1.352.43-1.976-.15-.34-.334-.34zm-6.804 2.577v.39q.286-.026.442-.182-.052-.078-.208-.208zm-.598.884l-2.418.338-.494.884q.832-.234 1.833-.624 1-.39 1.079-.598zm5.33-.364l-.468.234-.156 1.118.416 1.274h.65l-.442-1.274v-1.352zm-1.118.39l-.442.13-.156.832.416 1.274h.65l-.442-1.274-.026-.962zm-1.534.156l-.156.806.416 1.274h.65l-.442-1.274v-.78l-.468-.026zm.994-3.234q-.415 0-.89.1-1.404.3-1.768 1.418h-1.092l-.416-.676q-5.512 1.274-6.214 4.602 1.508-.832 3.172-1.118l.728-1.456 2.886-.39-.078-.702h.988q1.092.9 2.228.9.244 0 .489-.042 1.391-.234 1.82-.95.43-.714-.455-1.3-.585-.386-1.398-.386zM72.983 0q.947 0 1.488.658.663.806 1.235 4.238l.91 5.954q.442.468.676.52h.312q.026-.65.494-1.196.416-3.978-.364-6.968l.312-.598q1.118 3.38.546 7.592h.078q1.794-4.03.52-7.592l.312-.468q1.664 3.796-.364 8.242.572 1.248.117 2.054-.455.806-.559 1.508l-.182.13q-.702-1.04-.806-1.794h-.26q-.026.598-.338 1.248l-.182 1.638.442 1.274h2.262v.624h-6.526v-.624h.546l-.416-1.274-.026-.962q-.468-.156-.702-.364-.338.312-.754.312.026.26-.104.442-1.04.806-3.718 1.404l-.91 1.768q0-.434-.27-.434-.085 0-.198.044l.728-1.3q-1.508.338-2.288.858-.416.442.052 1.066-1.04-.442-1.17-1.248.416-3.926 7.046-5.46l.468.78h.416q.338-1.092 2.678-1.508-.522-.388-1.285-.388-.414 0-.899.115-.492.116-.961.116-.844 0-1.613-.376-1.196-.585-6.084-6.461.9-1.136 1.905-1.136.329 0 .669.122l6.318 4.524V.034Q72.769 0 72.983 0z"/><path d="M54.142.375c9.625 0 9.625 17.25 0 17.25" fill="none" stroke="#000"/><path d="M47.92 7.938c.681.054 1.058.394 1.13 1.022-.09.68-.467 1.04-1.13 1.075-.663-.036-1.013-.394-1.049-1.075.054-.628.404-.968 1.05-1.022zm-.08-2.259c-.485 0-.933.09-1.345.27a3.545 3.545 0 0 0-1.828 1.815 3.11 3.11 0 0 0-.27 1.276c0 .466.09.901.27 1.304.179.404.425.758.739 1.063a3.422 3.422 0 0 0 2.433.968c.484 0 .937-.086 1.358-.256a3.24 3.24 0 0 0 1.09-.712c.304-.305.546-.66.725-1.063.18-.403.27-.838.27-1.304 0-.448-.09-.874-.27-1.277a3.67 3.67 0 0 0-.726-1.075 3.302 3.302 0 0 0-1.089-.74 3.431 3.431 0 0 0-1.358-.269zm.053-.914c.592 0 1.148.112 1.667.336.52.224.968.529 1.345.914.376.386.677.834.9 1.345.225.51.337 1.062.337 1.653 0 .592-.112 1.143-.336 1.654a4.31 4.31 0 0 1-.901 1.331 4.267 4.267 0 0 1-3.012 1.237 4.071 4.071 0 0 1-1.653-.336 4.48 4.48 0 0 1-1.345-.9 4.195 4.195 0 0 1-.914-1.332 4.071 4.071 0 0 1-.336-1.654c0-.591.112-1.142.336-1.653A4.358 4.358 0 0 1 46.24 5.1a4.071 4.071 0 0 1 1.653-.336zM32.822 14.1q-3.107 0-6.59 1.501 3.483 1.46 6.59 1.46 3.087 0 6.591-1.46-3.504-1.501-6.59-1.501zm0-.96q3.838 0 8.823 2.44Q36.66 18 32.822 18 28.985 18 24 15.58q4.964-2.44 8.822-2.44zM0 0v.354L.177.177.354 0zm2.646 0L0 2.646v.708L3.177.177 3.354 0zm3 0L0 5.646v.708L6.177.177 6.354 0zm27 0l-9 9h.708L33.177.177 33.354 0zm3 0l-9 9h.708L36.177.177 36.354 0zm3 0l-9 9h.708L39.177.177 39.354 0zm2.999.002L32.646 9h.708l8.29-8.291V.002zm0 3L35.646 9h.708l5.29-5.291v-.707zm0 3L38.646 9h.708l2.29-2.291v-.707zM8.646 0L0 8.646v.708L9.177.177 9.354 0zm3 0L0 11.646v.708L12.177.177 12.354 0zm3 0L0 14.646v.708L15.177.177 15.354 0zm3 0L0 17.646V18h.354L18.177.177 18.354 0zm3 0L2.823 17.823 2.646 18h.708L21.177.177 21.354 0zm3 0L5.823 17.823 5.646 18h.708L24.177.177 24.354 0zm3 0L8.823 17.823 8.646 18h.708L27.177.177 27.354 0zm3 0L11.823 17.823l-.177.177h.708l8.468-8.469V9h.532L30.177.177 30.354 0zm-8.824 11.824l-5.999 6-.177.176h.708l5.468-5.469v-.707zm0 3l-2.999 3-.177.176h.708l2.468-2.469v-.707zm0 3l-.176.176h.176v-.176z"/></svg>