<svg xmlns="http://www.w3.org/2000/svg" width="264.324" height="18"><path d="M242.646 0l-.322.323v.707l.853-.853.177-.177zm3 0l-3.322 3.323v.707l3.853-3.853.177-.177zm3 0l-6.322 6.323v.707l6.853-6.853.177-.177zm3 0l-9.322 9.323v.707l9.853-9.853.177-.177zm3 0l-12.322 12.323v.707L255.177.177l.177-.177zm3 0l-15.322 15.323v.707L258.177.177l.177-.177zm3 0l-17.823 17.823-.177.177h.708L261.177.177l.177-.177zm3 0l-17.823 17.823-.177.177h.708L264.177.177l.147-.147V0zm.678 2.323l-15.5 15.5-.178.177h.708l14.97-14.97v-.707zm0 3l-12.5 12.5-.178.177h.708l11.97-11.97v-.707zm0 3l-9.5 9.5-.178.177h.708l8.97-8.97v-.707zm0 3l-6.5 6.5-.178.177h.708l5.97-5.97v-.707zm0 3l-3.5 3.5-.178.177h.708l2.97-2.97v-.707zm0 3l-.5.5-.178.177h.678v-.677zm2-17l-2 2v.707l2-2V.323zm0 3l-2 2v.707l2-2v-.707zm0 3l-2 2v.707l2-2v-.707zm0 3l-2 2v.707l2-2v-.707zm0 3l-2 2v.707l2-2v-.707zm0 3l-2 2V18h.03l1.97-1.97v-.707zM218.646 0l-.322.323v.707l.853-.853.177-.177zm3 0l-3.322 3.323v.707l3.853-3.853.177-.177zm3 0l-6.322 6.323v.707l6.853-6.853.177-.177zm3 0l-9.322 9.323v.707l9.853-9.853.177-.177zm3 0l-12.322 12.323v.707L231.177.177l.177-.177zm3 0l-15.322 15.323v.707L234.177.177l.177-.177zm3 0l-17.823 17.823-.177.177h.708L237.177.177l.177-.177zm3 0l-17.823 17.823-.177.177h.708L240.177.177l.147-.147V0zm.678 2.323l-15.5 15.5-.178.177h.708l14.97-14.97v-.707zm0 3l-12.5 12.5-.178.177h.708l11.97-11.97v-.707zm0 3l-9.5 9.5-.178.177h.708l8.97-8.97v-.707zm0 3l-6.5 6.5-.178.177h.708l5.97-5.97v-.707zm0 3l-3.5 3.5-.178.177h.708l2.97-2.97v-.707zm0 3l-.5.5-.178.177h.678v-.677z"/><path d="M242.324.323l-2 2v.707l2-2V.323zm0 3l-2 2v.707l2-2v-.707zm0 3l-2 2v.707l2-2v-.707zm0 3l-2 2v.707l2-2v-.707zm0 3l-2 2v.707l2-2v-.707zm0 3l-2 2V18h.03l1.97-1.97v-.707zM194.646 0l-.322.323v.707l.853-.853.177-.177zm3 0l-3.322 3.323v.707l3.853-3.853.177-.177zm3 0l-6.322 6.323v.707l6.853-6.853.177-.177zm3 0l-9.322 9.323v.707l9.853-9.853.177-.177zm3 0l-12.322 12.323v.707L207.177.177l.177-.177zm3 0l-15.322 15.323v.707L210.177.177l.177-.177zm3 0l-17.823 17.823-.177.177h.708L213.177.177l.177-.177zm3 0l-17.823 17.823-.177.177h.708L216.177.177l.147-.147V0zm.678 2.323l-15.5 15.5-.178.177h.708l14.97-14.97v-.707zm0 3l-12.5 12.5-.178.177h.708l11.97-11.97v-.707zm0 3l-9.5 9.5-.178.177h.708l8.97-8.97v-.707zm0 3l-6.5 6.5-.178.177h.708l5.97-5.97v-.707zm0 3l-3.5 3.5-.178.177h.708l2.97-2.97v-.707zm0 3l-.5.5-.178.177h.678v-.677zm2-17l-2 2v.707l2-2V.323zm0 3l-2 2v.707l2-2v-.707zm0 3l-2 2v.707l2-2v-.707zm0 3l-2 2v.707l2-2v-.707zm0 3l-2 2v.707l2-2v-.707zm0 3l-2 2V18h.03l1.97-1.97v-.707zM190.677 0c.335 0 .67.026.994.066.447.113.218.626-.18.626a.476.476 0 0 1-.081-.008c-.84.097-1.872.15-2.506.626-.841.916-.463 2.821-.561 3.725-.007.05-.01 3.653-.01 5.48a6.145 6.145 0 0 1 2.634-.586c.402 0 .802.04 1.188.117.44.231-.077.528-.423.528a.454.454 0 0 1-.114-.013c-1.226.133-2.62.461-3.243 1.602-.062.206-.023.277.07.277.207 0 .68-.342.947-.342.014 0 .027 0 .04.003a7.535 7.535 0 0 1 1.58-.169 6.8 6.8 0 0 1 1.149.095c.42.278-.096.534-.438.534a.532.532 0 0 1-.105-.01c-1.252.151-2.636.49-3.243 1.633-.007 1.27 0 2.11-.034 3.278.015.36-.219.538-.456.538-.235 0-.473-.176-.474-.526.009-1.15.09-2.161-.06-3.277-.305-1.253-2.478-1.445-3.827-1.754-.295-.347.285-.475.658-.475.056 0 .107.003.15.008.173-.013.347-.02.522-.02.882 0 1.771.175 2.557.58.032-.755-.711-1.19-1.244-1.493-.84-.361-1.766-.397-2.643-.59-.313-.273.18-.501.521-.501a.58.58 0 0 1 .125.012 7.01 7.01 0 0 1 .648-.031c.902 0 1.804.183 2.614.582-.016-2.851-.063-5.61.02-8.308.065-.834.545-1.6 1.354-1.849.58-.264 1.227-.358 1.87-.358z"/><path d="M185.646 0l-2.22 2.221v.707l2.75-2.751.178-.177zm3 0l-5.22 5.221v.707l5.75-5.751.178-.177zm3 0l-8.22 8.221v.707l8.75-8.751.148-.147V0zm.678 2.323l-8.899 8.898v.707l8.899-8.898v-.707zm0 3l-8.899 8.898v.707l8.899-8.898v-.707zm0 3l-8.899 8.898v.707l8.899-8.898v-.707zm0 3l-6.5 6.5-.178.177h.708l5.97-5.97v-.707zm0 3l-3.5 3.5-.178.177h.708l2.97-2.97v-.707zm0 3l-.5.5-.178.177h.678v-.677zM166.682 2.99q-.557 0-1.087.606 4.368 5.2 5.46 5.81.815.457 1.435.457.21 0 .399-.053.74-.208 1.586-.234h.042q.828 0 1.817.988h.13q-.702-1.638-1.963-2.34-1.261-.702-7.398-5.148-.212-.085-.421-.085zm7.73-2.369q-.065 0-.132.01v6.683q2.054 1.196 2.834 3.354-1.196-8.268-1.677-9.204-.433-.843-1.024-.843zm5.356 10.468q.081 0 .154.138.13.247-.234.689-.208-.546-.052-.741.069-.086.132-.086zm-.036-.372q-.153 0-.33.237-.39.52.234 2.08.702-1.352.429-1.976-.15-.34-.333-.34zm-6.804 2.577v.39q.286-.026.442-.182-.052-.078-.208-.208zm-.598.884l-2.419.338-.494.884q.832-.234 1.834-.624 1-.39 1.079-.598zm5.33-.364l-.468.234-.156 1.118.416 1.274h.65l-.442-1.274v-1.352zm-1.118.39l-.442.13-.156.832.416 1.274h.65l-.442-1.274-.026-.962zm-1.534.156l-.156.806.416 1.274h.65l-.442-1.274v-.78l-.468-.026zm.994-3.234q-.415 0-.89.1-1.404.3-1.768 1.418h-1.092l-.416-.676q-5.513 1.274-6.215 4.602 1.508-.832 3.172-1.118l.728-1.456 2.887-.39-.078-.702h.988q1.092.9 2.228.9.243 0 .489-.042 1.39-.234 1.82-.95.429-.714-.455-1.3-.585-.386-1.398-.386zM174.156 0q.948 0 1.489.658.663.806 1.235 4.238l.91 5.954q.442.468.676.52h.312q.026-.65.494-1.196.416-3.978-.364-6.968l.312-.598q1.118 3.38.546 7.592h.078q1.794-4.03.52-7.592l.312-.468q1.664 3.796-.364 8.242.572 1.248.117 2.054-.455.806-.56 1.508l-.181.13q-.702-1.04-.806-1.794h-.26q-.026.598-.338 1.248l-.182 1.638.442 1.274h2.262v.624h-6.526v-.624h.546l-.416-1.274-.026-.962q-.468-.156-.702-.364-.338.312-.754.312.026.26-.104.442-1.04.806-3.719 1.404l-.91 1.768q0-.434-.269-.434-.086 0-.199.044l.728-1.3q-1.508.338-2.288.858-.416.442.052 1.066-1.04-.442-1.17-1.248.416-3.926 7.047-5.46l.468.78h.416q.338-1.092 2.678-1.508-.523-.388-1.285-.388-.414 0-.9.115-.492.116-.96.116-.845 0-1.613-.376-1.197-.585-6.085-6.461.901-1.136 1.905-1.136.33 0 .67.122l6.318 4.524V.034q.234-.034.448-.034z"/><path d="M155.315.375c9.625 0 9.625 17.25 0 17.25" fill="none" stroke="#000"/><path d="M135.471 2.373v2.341h17.243V2.373zM152.651 0v1.772h.664v3.543H134.87V1.772h.538V0h.601v1.772h1.487V0h.601v1.772h1.487V0h.602v1.772h1.455V0h.633v1.772h1.455V0h.601v1.772h1.487V0h.601v1.772h1.487V0h.601v1.772h1.456V0h.6v1.772h1.488V0zm-1.598 15.325L153.315 18h-1.103l-1.16-1.382-1.17 1.382-1.136-1.382-1.17 1.382-1.16-1.382-1.17 1.382-1.159-1.382-1.17 1.382-1.137-1.382L140.61 18l-1.17-1.382L138.303 18l-1.17-1.382-1.16 1.382h-1.103l2.263-2.675 1.17 1.293 1.137-1.293 1.17 1.293 1.17-1.293 1.137 1.293 1.17-1.293 1.16 1.293 1.17-1.293 1.159 1.293 1.17-1.293 1.137 1.293 1.17-1.293zM130.795 1.124q-2.015.293-2.106 1.842v11.177q.942-1.124 3.382-1.58l-1.276-11.44zM131.362 0l1.508 13.363q-3.36.385-4.18 2.4V18h-1.003V2.966q0-2.51 3.675-2.966zm-10.079 5.512l.02.01-3.624 6.946h-1.367l3.624-6.956zm3.037.01l1.367.01-3.624 6.956-1.367-.01 3.624-6.956zM108.905.597a2.12 2.12 0 0 0-.692.109c.031.223.169.569.953.773-.73-.053-1.206-.113-1.453-.307a2.45 2.45 0 0 0-.158.556.297.297 0 0 1-.206.237c-.625.191-1.174 1.112-1.7 1.763-.95 1.173-1.772 2.48-2.688 3.733.423-.207.845-.415 1.27-.622 1.182-.622 2.394-1.11 3.407-1.877.588-.49 1.172-.996 1.39-1.641.076-.497-.296-1.074-.767-1.279a.297.297 0 1 1 .238-.545c.376.164.699.458.904.817a1.986 1.986 0 0 0-.075-.448.297.297 0 0 1-.013-.104c.01-.184.042-.313.082-.422.041-.109.085-.206.158-.459a.297.297 0 0 1 .104-.153 1.546 1.546 0 0 0-.527-.125C109.09.6 109.05.6 109.007.599a.258.258 0 1 1-.102-.002zm-1.194 5.432c-.605.466-1.253.873-1.888 1.28.005.438-.006.879-.047 1.321.207-.135.434-.236.697-.3.392-.636.82-1.22 1.083-1.842a4.64 4.64 0 0 0 .155-.46zm.25 1c-.274.549-.622 1.04-.93 1.529.06.04.113.08.155.121l.027.027c.17-.194.375-.351.614-.454-.01-.348.047-.768.133-1.222zm-2.882.047a25.922 25.922 0 0 0-.587.297c-.78.38-1.56.772-2.35 1.148-.556.67-1.156 1.293-1.734 1.92l1.043.175 2.563-2.786a.297.297 0 0 1 .04-.036c.333-.253.678-.489 1.025-.718zm2.592 2.009c-.058.066-.112.14-.161.222a.298.298 0 0 1-.43.087c-.124-.09-.2-.177-.265-.244l-.077 1.413c.1-.006.201-.013.296-.013.167 0 .313.022.398.108.1-.078.28-.1.504-.1.057 0 .118.002.18.005l-.445-1.478zm5.419.999c-.452.062-.686.323-.704.783h1.395c0-.46-.23-.721-.691-.783zm-7.86-2.39c-.275.182-.542.367-.799.56l-2.402 2.613h2.456c.17-.19.518-.365.776-.365.073 0 .14.014.192.046.081-.007.167-.01.256-.01.14 0 .285.007.433.016l.083-1.506c-.224.115-.407.282-.625.542a.297.297 0 0 1-.52-.246c.1-.544.141-1.093.15-1.65zm6.24 3.745l.265.465h1.249l.252-.465zm-4.516 0v2.51l1.726-2.51zM108.898 0a3.878 3.878 0 0 1 .272.01c.694.044 1.215.325 1.408.768a.298.298 0 0 1-.341.408l-.025-.006-.03.007-.108.029c-.054.168-.096.269-.12.332a.541.541 0 0 0-.042.2 3.1 3.1 0 0 1 .037 1.389c-.095.466-.384.977-.761 1.46a.295.295 0 0 1-.014.108 21.24 21.24 0 0 0-.548 2.027c-.152.708-.234 1.387-.192 1.684a.297.297 0 0 1-.223.33l-.019.005.527 1.75c.086-.013.173-.018.26-.018.255 0 .508.041.711.041a.865.865 0 0 0 .184-.016.314.314 0 0 1 .068-.007c.212 0 .656.13.787.366h1.1c.061-.797.482-1.235 1.261-1.315.788.08 1.195.518 1.222 1.315v.572h-.531l-.545 1.01h-1.766l-.532-1.01h-1.567l-2.404 3.493V18h-.571v-6.561h-4.517v-.41l-.099.109a.297.297 0 0 1-.268.092l-1.74-.292a.298.298 0 0 1-.173-.492c.217-.242.437-.48.656-.716L98.6 10.808a.296.296 0 0 1-.412-.087.297.297 0 0 1 .087-.411l1.345-.876a.292.292 0 0 1-.076-.09.315.315 0 0 1-.02-.237c.016-.05.034-.074.048-.093.055-.076.084-.088.123-.119.04-.03.084-.06.131-.094.096-.065.206-.137.301-.2a4.156 4.156 0 0 0 .216-.156l2.379-1.672.008-.005c.805-1.13 1.568-2.316 2.457-3.414.433-.535.938-1.524 1.812-1.894.048-.262.157-.68.483-.997.353-.344.864-.463 1.417-.463z"/><path d="M88.456.375v17.25M96.144.375c-9.625 0-9.625 17.25 0 17.25m0 0" fill="none" stroke="#000"/><path d="M80.486.597a2.12 2.12 0 0 0-.692.109c.032.223.17.569.953.773-.73-.053-1.206-.113-1.452-.307-.089.2-.137.427-.158.556a.297.297 0 0 1-.207.237c-.624.191-1.173 1.112-1.7 1.763-.95 1.173-1.77 2.48-2.688 3.733l1.27-.622c1.182-.622 2.395-1.11 3.407-1.877.589-.49 1.172-.996 1.391-1.641.076-.497-.297-1.074-.768-1.279a.297.297 0 1 1 .238-.545c.377.164.7.458.904.817a1.986 1.986 0 0 0-.074-.448.297.297 0 0 1-.013-.104c.01-.184.041-.313.082-.422.04-.109.085-.206.158-.459a.297.297 0 0 1 .104-.153 1.546 1.546 0 0 0-.527-.125C80.67.6 80.63.6 80.589.599a.258.258 0 1 1-.103-.002zm-1.193 5.432c-.606.466-1.253.873-1.888 1.28.005.438-.006.879-.047 1.321.207-.135.434-.236.697-.3.391-.636.82-1.22 1.082-1.842.055-.129.106-.29.156-.46zm.249 1c-.273.549-.622 1.04-.929 1.529.06.04.112.08.155.121l.027.027a1.72 1.72 0 0 1 .613-.454c-.009-.348.048-.768.134-1.222zm-2.88.047a25.922 25.922 0 0 0-.589.297c-.78.38-1.56.772-2.349 1.148-.556.67-1.156 1.293-1.734 1.92l1.043.175 2.563-2.786a.297.297 0 0 1 .04-.036c.332-.253.677-.489 1.025-.718zm2.591 2.009c-.058.066-.112.14-.162.222a.298.298 0 0 1-.429.087c-.125-.09-.2-.177-.265-.244l-.078 1.413c.1-.006.202-.013.296-.013.167 0 .314.022.398.108.1-.078.28-.1.504-.1.058 0 .118.002.181.005l-.445-1.478zm5.419.999c-.452.062-.687.323-.704.783h1.394c0-.46-.23-.721-.69-.783zm-7.861-2.39a16.38 16.38 0 0 0-.798.56l-2.403 2.613h2.457c.17-.19.518-.365.776-.365.073 0 .139.014.191.046.082-.007.168-.01.257-.01.139 0 .285.007.433.016l.083-1.506c-.225.115-.407.282-.626.542a.297.297 0 0 1-.52-.246 9.773 9.773 0 0 0 .15-1.65zm6.24 3.745l.266.465h1.248l.253-.465zm-4.516 0v2.51l1.727-2.51zM80.48 0a3.878 3.878 0 0 1 .273.01c.694.044 1.215.325 1.407.768a.298.298 0 0 1-.34.408l-.025-.006-.03.007-.108.029c-.054.168-.096.269-.12.332a.541.541 0 0 0-.042.2c.154.552.094 1.107.037 1.389-.096.466-.384.977-.762 1.46a.295.295 0 0 1-.014.108 21.85 21.85 0 0 0-.548 2.027c-.152.708-.233 1.387-.192 1.684a.297.297 0 0 1-.223.33l-.018.005.527 1.75c.085-.013.172-.018.259-.018.256 0 .51.041.712.041a.865.865 0 0 0 .183-.016.314.314 0 0 1 .069-.007c.212 0 .656.13.786.366h1.1c.062-.797.482-1.235 1.262-1.315.788.08 1.195.518 1.222 1.315v.572h-.532l-.544 1.01H83.05l-.531-1.01h-1.567l-2.404 3.493V18h-.572v-6.561H73.46v-.41l-.1.109a.297.297 0 0 1-.267.092l-1.74-.292a.298.298 0 0 1-.173-.492c.216-.242.436-.48.656-.716l-1.656 1.078a.296.296 0 0 1-.412-.087.297.297 0 0 1 .087-.411l1.345-.876a.292.292 0 0 1-.077-.09.315.315 0 0 1-.02-.237.305.305 0 0 1 .048-.093c.056-.076.084-.088.124-.119l.13-.094c.096-.065.207-.137.302-.2a4.156 4.156 0 0 0 .216-.156l2.378-1.672.008-.005c.806-1.13 1.568-2.316 2.457-3.414.433-.535.938-1.524 1.813-1.894.048-.262.156-.68.483-.997C79.416.119 79.927 0 80.48 0zM62.742.885q-3.633.442 0 6.73 3.633-6.288 0-6.73zm0-.885q5.03.35.699 8.08h4.284v1.095h-4.238V18h-1.443V9.128h-4.285V8.08h4.285Q57.712.326 62.742 0zM52.585.984q-.261 0-.302.302l-.442 4.018q-.341 2.732-.401 5.243 0 1.728.291 2.752.291 1.025.914 1.025t.854-1.025q.23-1.024.21-2.752-.04-2.511-.38-5.243l-.443-4.018q-.04-.302-.301-.302zm-2.471 14.947v1.466h4.942v-1.466zM52.584 0q.603 0 .724.382l.723 4.922q.322 2.732.462 5.243 0 2.47-.462 3.596-.4.975-1.192 1.105h2.92V18H49.41v-2.752h2.92q-.792-.13-1.193-1.105-.462-1.125-.462-3.596.14-2.511.462-5.243l.724-4.922q.12-.382.723-.382zm-7.496 0q2.323 0 2.323 2.232V18h-1.072V2.232q0-1.16-1.25-1.16-1.262 0-1.262 1.16v10.492h-1.071V2.232Q42.756 0 45.088 0zm-9.282 1.343q.088.166.198.364l.188 1.091q0 .573-.188 1.07-.198.43-.496.771 1.996-.364 3.594-.54-1.003-.595-1.576-1.323-.585-.727-1.72-1.433zm-4.707-.088q-.606.044-2.04.915-1.432.86-2.954 1.422 1.114.066 2.426.474 1.322.397 2.777.595-.231-.275-.462-.782-.221-.508-.221-1.08 0-.585.21-1.092.11-.243.264-.452zm2.32-.508q-.381 0-.733.155-.374.155-.661.42-.287.253-.463.616-.143.364-.165.783-.022.419.132.783.165.364.419.65.264.298.628.463.364.154.783.165l.054.001q.379 0 .728-.144.375-.154.662-.408.275-.253.44-.617.155-.364.177-.794 0-.408-.154-.771-.143-.364-.397-.65-.265-.298-.628-.442-.364-.198-.772-.21h-.05zm.06-.747q.721 0 1.423.153 1.521.33 3.087 1.973 1.565 1.631 2.744 1.742l.023.771q-2.68.232-5.259.706-.964.177-2.029.177-1.783 0-3.846-.497-3.285-.794-4.167-.96H24v-.947h1.5q1.068-.364 2.865-1.444Q30.151.594 31.771.208 32.638 0 33.48 0zM38.7 15.57L40.756 18h-1.003L38.7 16.745 37.637 18l-1.032-1.255L35.542 18l-1.053-1.255L33.426 18l-1.053-1.255L31.31 18l-1.033-1.255L29.214 18l-1.063-1.255L27.118 18l-1.063-1.255L25.002 18H24l2.055-2.43 1.063 1.175 1.033-1.175 1.063 1.175 1.063-1.175 1.033 1.175 1.063-1.175 1.053 1.175 1.063-1.175 1.053 1.175 1.063-1.175 1.032 1.175L38.7 15.57zM2.646 0L0 2.646v.708L3.177.177 3.354 0zm3 0L0 5.646v.708L6.177.177 6.354 0zm3 0L0 8.646v.708L9.177.177 9.354 0zM0 9.354zM11.646 0L0 11.646v.708L12.177.177 12.354 0zm3 0L0 14.646v.708L15.177.177 15.354 0zm3 0L0 17.646V18h.354L18.177.177 18.354 0zm3 0L2.823 17.823 2.646 18h.708L21.177.177 21.354 0zM22 1.646L5.823 17.823 5.646 18h.708L22 2.354v-.708zm0 3L8.823 17.823 8.646 18h.708L22 5.354v-.708zm0 3L11.823 17.823l-.177.177h.708L22 8.354v-.708zm0 3l-7.177 7.177-.177.177h.708L22 11.354v-.708zm0 3l-4.177 4.177-.177.177h.708L22 14.354v-.708zm0 3l-1.177 1.177-.177.177h.708l.646-.646v-.708z"/></svg>