<svg xmlns="http://www.w3.org/2000/svg" width="196.391" height="18"><path d="M194.744 0c.335 0 .67.026.994.066.447.113.218.626-.18.626a.476.476 0 0 1-.082-.008c-.839.097-1.872.15-2.506.626-.84.916-.463 2.821-.56 3.725-.008.05-.01 3.653-.01 5.48a6.145 6.145 0 0 1 2.634-.586c.402 0 .802.04 1.188.117.44.231-.077.528-.423.528a.454.454 0 0 1-.114-.013c-1.226.133-2.62.461-3.243 1.602-.062.206-.023.277.07.277.207 0 .68-.342.947-.342.014 0 .027 0 .04.003a7.535 7.535 0 0 1 1.58-.169c.39 0 .776.031 1.149.095.42.278-.096.534-.438.534a.532.532 0 0 1-.105-.01c-1.252.151-2.637.49-3.243 1.633-.007 1.27 0 2.11-.034 3.278.015.36-.219.538-.456.538-.235 0-.473-.176-.474-.526.008-1.15.09-2.161-.06-3.277-.305-1.253-2.478-1.445-3.827-1.754-.295-.347.285-.475.658-.475.056 0 .107.003.15.008.173-.013.347-.02.522-.02.882 0 1.77.175 2.557.58.032-.755-.712-1.19-1.244-1.493-.84-.361-1.766-.397-2.643-.59-.314-.273.18-.501.521-.501a.58.58 0 0 1 .125.012c.215-.02.431-.031.648-.031.902 0 1.804.183 2.614.582-.017-2.851-.063-5.61.019-8.308.066-.834.546-1.6 1.354-1.849C193.453.094 194.1 0 194.744 0z"/><path d="M188.646 0l-1.154 1.154v.708l1.685-1.685.177-.177zm3 0l-4.154 4.154v.708l4.685-4.685.177-.177zm3 0l-7.154 7.154v.708l7.685-7.685.177-.177zm1.745 1.256l-8.899 8.898v.708l8.899-8.899v-.707zm0 3l-8.899 8.898v.708l8.899-8.899v-.707zm0 3l-8.899 8.898v.708l8.899-8.899v-.707zm0 3l-7.568 7.567-.177.177h.708l7.037-7.037v-.707zm0 3l-4.568 4.567-.177.177h.708l4.037-4.037v-.707zm0 3l-1.568 1.567-.177.177h.708l1.037-1.037v-.707zM197.646 0l-1.255 1.256v.707l1.786-1.786.177-.177zm.78 2.221l-2.035 2.035v.707l2.034-2.035v-.707zm0 3l-2.035 2.035v.707l2.034-2.035v-.707zm0 3l-2.035 2.035v.707l2.034-2.035v-.707zm0 3l-2.035 2.035v.707l2.034-2.035v-.707zm0 3l-2.035 2.035v.707l2.034-2.035v-.707zm0 3l-.603.602-.177.177h.708l.071-.072v-.707zM170.749 2.99q-.557 0-1.087.606 4.368 5.2 5.46 5.81.815.457 1.434.457.211 0 .4-.053.74-.208 1.585-.234h.043q.828 0 1.817.988h.13q-.703-1.638-1.964-2.34-1.26-.702-7.397-5.148-.212-.085-.421-.085zm7.73-2.369q-.065 0-.133.01v6.683q2.055 1.196 2.835 3.354-1.196-8.268-1.678-9.204-.432-.843-1.023-.843zm5.356 10.468q.081 0 .154.138.13.247-.234.689-.208-.546-.052-.741.068-.086.132-.086zm-.036-.372q-.153 0-.33.237-.39.52.234 2.08.702-1.352.429-1.976-.15-.34-.333-.34zm-6.805 2.577v.39q.286-.026.442-.182-.052-.078-.208-.208zm-.598.884l-2.418.338-.494.884q.832-.234 1.833-.624t1.08-.598zm5.33-.364l-.467.234-.156 1.118.416 1.274h.65l-.442-1.274v-1.352zm-1.117.39l-.442.13-.156.832.416 1.274h.65l-.442-1.274-.026-.962zm-1.535.156l-.156.806.416 1.274h.65l-.442-1.274v-.78l-.468-.026zm.995-3.234q-.416 0-.89.1-1.405.3-1.769 1.418h-1.092l-.416-.676q-5.512 1.274-6.214 4.602 1.508-.832 3.172-1.118l.728-1.456 2.886-.39-.078-.702h.988q1.092.9 2.229.9.243 0 .489-.042 1.39-.234 1.82-.95.429-.714-.455-1.3-.585-.386-1.398-.386zM178.223 0q.948 0 1.488.658.664.806 1.236 4.238l.91 5.954q.442.468.676.52h.312q.026-.65.494-1.196.416-3.978-.364-6.968l.312-.598q1.118 3.38.546 7.592h.078q1.794-4.03.52-7.592l.312-.468q1.664 3.796-.364 8.242.572 1.248.117 2.054-.455.806-.56 1.508l-.181.13q-.702-1.04-.806-1.794h-.26q-.026.598-.338 1.248l-.182 1.638.442 1.274h2.262v.624h-6.527v-.624h.546l-.416-1.274-.026-.962q-.468-.156-.702-.364-.338.312-.754.312.026.26-.104.442-1.04.806-3.718 1.404l-.91 1.768q0-.434-.269-.434-.086 0-.199.044l.728-1.3q-1.508.338-2.288.858-.416.442.052 1.066-1.04-.442-1.17-1.248.416-3.926 7.046-5.46l.468.78h.416q.338-1.092 2.678-1.508-.522-.388-1.284-.388-.414 0-.9.115-.492.116-.96.116-.845 0-1.614-.376-1.196-.585-6.084-6.461.901-1.136 1.905-1.136.33 0 .67.122l6.317 4.524V.034q.235-.034.45-.034z"/><path d="M170.646 0l-1.764 1.764v.707l2.295-2.294.177-.177zm3 0l-4.764 4.764v.707l5.295-5.294.177-.177zm3 0l-7.764 7.764v.707l8.295-8.294.177-.177zm3 0l-10.764 10.764v.707L180.177.177l.177-.177zm3 0l-13.764 13.764v.707L183.177.177l.177-.177zm2.846.154l-16.61 16.61v.707l16.61-16.61V.155zm0 3l-14.669 14.67-.177.176h.708l14.138-14.138v-.708zm0 3l-11.669 11.67-.177.176h.708l11.138-11.138v-.708zm0 3l-8.669 8.67-.177.176h.708l8.138-8.138v-.708zm0 3l-5.669 5.67-.177.176h.708l5.138-5.138v-.708zm0 3l-2.669 2.67-.177.176h.708l2.138-2.138v-.708z"/><path d="M185.646 0l-.154.154v.708l.685-.685.177-.177zm1.952 1.048l-2.106 2.106v.708l2.106-2.107v-.707zm0 3l-2.106 2.106v.708l2.106-2.107v-.707zm0 3l-2.106 2.106v.708l2.106-2.107v-.707zm0 3l-2.106 2.106v.708l2.106-2.107v-.707zm0 3l-2.106 2.106v.708l2.106-2.107v-.707zm0 3l-1.775 1.775-.177.177h.708l1.244-1.245v-.707zM146.646 0l-1.764 1.764v.707l2.295-2.294.177-.177zm3 0l-4.764 4.764v.707l5.295-5.294.177-.177zm3 0l-7.764 7.764v.707l8.295-8.294.177-.177zm3 0l-10.764 10.764v.707L156.177.177l.177-.177zm3 0l-13.764 13.764v.707L159.177.177l.177-.177zm3 0l-16.764 16.764v.707L162.177.177l.177-.177zm3 0l-17.823 17.823-.177.177h.708L165.177.177l.177-.177zm2.236.764l-17.059 17.06-.177.176h.708l16.528-16.529V.764zm0 3l-14.059 14.06-.177.176h.708l13.528-13.529v-.707zm0 3l-11.059 11.06-.177.176h.708l10.528-10.529v-.707zm0 3l-8.059 8.06-.177.176h.708l7.528-7.529v-.707zm0 3l-5.059 5.06-.177.176h.708l4.528-4.529v-.707zm0 3l-2.059 2.06-.177.176h.708l1.528-1.529v-.707zM167.646 0l-.764.764v.707l1.295-1.294.177-.177zm1.236 1.764l-2 2v.707l2-2v-.707zm0 3l-2 2v.707l2-2v-.707zm0 3l-2 2v.707l2-2v-.707zm0 3l-2 2v.707l2-2v-.707zm0 3l-2 2v.707l2-2v-.707zm0 3l-1.059 1.06-.177.176h.708l.528-.529v-.707zM140.827 0l2.055 2.43h-1.002l-1.053-1.256-1.063 1.256-1.033-1.256-1.063 1.256-1.053-1.256-1.063 1.256-1.053-1.256-1.063 1.256-1.032-1.256-1.063 1.256-1.063-1.256-1.033 1.256-1.063-1.256-1.053 1.256h-1.002L128.182 0l1.063 1.174L130.278 0l1.063 1.174L132.404 0l1.032 1.174L134.5 0l1.053 1.174L136.615 0l1.053 1.174L138.731 0l1.033 1.174L140.827 0zm-6.296 12.703c.682.054 1.058.394 1.13 1.022-.09.68-.466 1.04-1.13 1.075-.663-.036-1.012-.394-1.048-1.075.053-.628.403-.968 1.048-1.022zm-.08-2.259c-.484 0-.932.09-1.345.269a3.545 3.545 0 0 0-1.828 1.815 3.11 3.11 0 0 0-.27 1.277c0 .466.09.901.27 1.304a3.422 3.422 0 0 0 3.173 2.03c.484 0 .936-.085 1.358-.255.42-.17.784-.408 1.089-.712.304-.305.546-.66.726-1.063.179-.403.269-.838.269-1.304 0-.448-.09-.874-.27-1.277a3.67 3.67 0 0 0-.725-1.076 3.302 3.302 0 0 0-1.09-.739 3.431 3.431 0 0 0-1.357-.269zm.053-.914a4.17 4.17 0 0 1 1.668.336c.52.224.968.529 1.344.914.377.386.677.834.9 1.345.225.51.337 1.062.337 1.653 0 .592-.112 1.143-.336 1.654a4.31 4.31 0 0 1-.9 1.331A4.267 4.267 0 0 1 134.503 18a4.071 4.071 0 0 1-1.653-.336 4.48 4.48 0 0 1-1.345-.9 4.195 4.195 0 0 1-.914-1.332 4.071 4.071 0 0 1-.336-1.654c0-.591.112-1.142.336-1.653a4.358 4.358 0 0 1 2.259-2.259 4.071 4.071 0 0 1 1.653-.336zM118.72.597a2.12 2.12 0 0 0-.692.109c.03.223.168.569.952.773-.73-.053-1.206-.113-1.452-.307-.089.2-.137.427-.158.556a.297.297 0 0 1-.206.237c-.625.191-1.174 1.112-1.701 1.763-.95 1.173-1.77 2.48-2.687 3.733.423-.207.845-.415 1.27-.622 1.181-.622 2.394-1.11 3.406-1.877.589-.49 1.172-.996 1.391-1.641.076-.497-.296-1.074-.767-1.279a.297.297 0 1 1 .237-.545c.377.164.7.458.904.817a1.986 1.986 0 0 0-.074-.448.297.297 0 0 1-.013-.104c.01-.184.041-.313.082-.422.04-.109.085-.206.158-.459a.297.297 0 0 1 .104-.153 1.546 1.546 0 0 0-.527-.125c-.043-.003-.084-.003-.125-.004a.258.258 0 1 1-.102-.002zm-1.194 5.432c-.605.466-1.253.873-1.888 1.28.005.438-.006.879-.047 1.321.207-.135.434-.236.697-.3.391-.636.82-1.22 1.082-1.842.055-.129.106-.29.156-.46zm.249 1c-.273.549-.622 1.04-.929 1.529.06.04.112.08.155.121l.027.027c.169-.194.375-.351.614-.454-.01-.348.047-.768.133-1.222zm-2.88.047a25.922 25.922 0 0 0-.589.297c-.78.38-1.56.772-2.349 1.148-.556.67-1.156 1.293-1.734 1.92l1.043.175 2.563-2.786a.297.297 0 0 1 .04-.036c.333-.253.677-.489 1.025-.718zm2.591 2.009c-.058.066-.112.14-.162.222a.298.298 0 0 1-.429.087c-.125-.09-.2-.177-.265-.244l-.078 1.413c.1-.006.202-.013.297-.013.166 0 .313.022.397.108.1-.078.28-.1.505-.1.057 0 .117.002.18.005l-.445-1.478zm5.419.999c-.452.062-.686.323-.704.783h1.394c0-.46-.23-.721-.69-.783zm-7.861-2.39a16.38 16.38 0 0 0-.798.56l-2.403 2.613h2.457c.17-.19.518-.365.776-.365.073 0 .139.014.191.046.082-.007.168-.01.257-.01.139 0 .285.007.433.016l.083-1.506c-.225.115-.407.282-.626.542a.297.297 0 0 1-.52-.246 9.773 9.773 0 0 0 .15-1.65zm6.24 3.745l.266.465h1.248l.253-.465zm-4.516 0v2.51l1.727-2.51zM118.712 0a3.878 3.878 0 0 1 .273.01c.694.044 1.215.325 1.407.768a.298.298 0 0 1-.34.408l-.025-.006-.03.007-.108.029c-.054.168-.096.269-.12.332a.541.541 0 0 0-.042.2c.155.552.094 1.107.037 1.389-.096.466-.384.977-.762 1.46a.295.295 0 0 1-.014.108 21.85 21.85 0 0 0-.548 2.027c-.152.708-.233 1.387-.192 1.684a.297.297 0 0 1-.223.33l-.018.005.527 1.75c.085-.013.172-.018.259-.018.256 0 .51.041.712.041a.865.865 0 0 0 .184-.016.314.314 0 0 1 .068-.007c.212 0 .656.13.787.366h1.099c.062-.797.482-1.235 1.262-1.315.788.08 1.195.518 1.222 1.315v.572h-.532l-.544 1.01h-1.767l-.531-1.01h-1.567l-2.404 3.493V18h-.572v-6.561h-4.516v-.41l-.1.109a.297.297 0 0 1-.267.092l-1.74-.292a.298.298 0 0 1-.173-.492c.217-.242.436-.48.656-.716l-1.656 1.078a.296.296 0 0 1-.412-.087.297.297 0 0 1 .087-.411l1.345-.876a.292.292 0 0 1-.077-.09.315.315 0 0 1-.019-.237.287.287 0 0 1 .047-.093c.056-.076.085-.088.124-.119.04-.03.083-.06.131-.094.095-.065.206-.137.3-.2a4.156 4.156 0 0 0 .217-.156l2.378-1.672.009-.005c.805-1.13 1.567-2.316 2.456-3.414.433-.535.938-1.524 1.813-1.894.048-.262.156-.68.483-.997.353-.344.864-.463 1.416-.463z"/><path d="M98.27.375v17.25m7.688-17.25c-9.625 0-9.625 17.25 0 17.25m0 0" fill="none" stroke="#000"/><path d="M90.301.597a2.12 2.12 0 0 0-.692.109c.031.223.169.569.953.773-.73-.053-1.206-.113-1.452-.307-.09.2-.137.427-.159.556a.297.297 0 0 1-.206.237c-.624.191-1.173 1.112-1.7 1.763-.95 1.173-1.771 2.48-2.688 3.733l1.27-.622c1.182-.622 2.395-1.11 3.407-1.877.589-.49 1.172-.996 1.39-1.641.076-.497-.296-1.074-.767-1.279a.297.297 0 1 1 .238-.545c.377.164.7.458.904.817a1.986 1.986 0 0 0-.075-.448.297.297 0 0 1-.012-.104c.01-.184.041-.313.082-.422.04-.109.084-.206.157-.459a.297.297 0 0 1 .105-.153 1.546 1.546 0 0 0-.527-.125C90.486.6 90.445.6 90.404.599A.258.258 0 1 1 90.3.597zm-1.193 5.432c-.606.466-1.253.873-1.888 1.28a13 13 0 0 1-.047 1.321c.206-.135.434-.236.697-.3.39-.636.82-1.22 1.082-1.842.054-.129.105-.29.156-.46zm.248 1c-.273.549-.621 1.04-.928 1.529.059.04.112.08.155.121l.027.027a1.72 1.72 0 0 1 .613-.454c-.01-.348.047-.768.133-1.222zm-2.88.047a25.922 25.922 0 0 0-.588.297c-.78.38-1.56.772-2.349 1.148-.556.67-1.157 1.293-1.735 1.92l1.044.175L85.41 7.83a.297.297 0 0 1 .04-.036 18.5 18.5 0 0 1 1.026-.718zm2.592 2.009c-.058.066-.112.14-.162.222a.298.298 0 0 1-.43.087c-.124-.09-.2-.177-.265-.244l-.077 1.413c.1-.006.201-.013.296-.013.167 0 .313.022.398.108.1-.078.28-.1.504-.1.058 0 .118.002.18.005l-.444-1.478zm5.418.999c-.451.062-.686.323-.704.783h1.395c0-.46-.23-.721-.69-.783zm-7.86-2.39a16.38 16.38 0 0 0-.798.56l-2.403 2.613h2.456c.171-.19.519-.365.776-.365.074 0 .14.014.192.046.082-.007.168-.01.256-.01.14 0 .286.007.434.016l.082-1.506c-.224.115-.407.282-.625.542a.297.297 0 0 1-.52-.246c.1-.544.142-1.093.15-1.65zm6.24 3.745l.266.465h1.248l.252-.465zm-4.516 0v2.51l1.727-2.51zM90.294 0a3.878 3.878 0 0 1 .272.01c.695.044 1.215.325 1.408.768a.298.298 0 0 1-.34.408l-.025-.006-.03.007-.108.029c-.055.168-.096.269-.12.332a.541.541 0 0 0-.042.2c.154.552.094 1.107.036 1.389-.095.466-.384.977-.761 1.46a.295.295 0 0 1-.014.108 21.24 21.24 0 0 0-.548 2.027c-.152.708-.233 1.387-.192 1.684a.297.297 0 0 1-.223.33l-.019.005.527 1.75c.086-.013.173-.018.26-.018.256 0 .509.041.712.041a.865.865 0 0 0 .183-.016.314.314 0 0 1 .068-.007c.212 0 .657.13.787.366h1.1c.062-.797.482-1.235 1.261-1.315.788.08 1.196.518 1.222 1.315v.572h-.53l-.546 1.01h-1.766l-.531-1.01h-1.568l-2.404 3.493V18h-.571v-6.561h-4.516v-.41l-.1.109a.297.297 0 0 1-.268.092l-1.74-.292a.298.298 0 0 1-.173-.492c.217-.242.437-.48.657-.716l-1.657 1.078a.296.296 0 0 1-.411-.087.297.297 0 0 1 .087-.411l1.344-.876a.292.292 0 0 1-.076-.09.315.315 0 0 1-.02-.237.305.305 0 0 1 .048-.093c.055-.076.084-.088.124-.119.039-.03.083-.06.13-.094.096-.065.206-.137.301-.2a4.156 4.156 0 0 0 .217-.156l2.378-1.672.008-.005c.806-1.13 1.568-2.316 2.457-3.414.433-.535.938-1.524 1.812-1.894.048-.262.157-.68.484-.997C89.23.119 89.74 0 90.294 0z"/><path d="M80.646 0L79.54 1.107v.707L81.177.177 81.354 0zm3 0L79.54 4.107v.707L84.177.177 84.354 0zm3 0L79.54 7.107v.707L87.177.177 87.354 0zm3 0L79.54 10.107v.707L90.177.177 90.354 0zm3 0L79.54 13.107v.707L93.177.177 93.354 0zm3 0L79.54 16.107v.707L95.708.645V0zm.062 2.938L80.823 17.823l-.177.177h.708L95.708 3.645v-.707zm0 3L83.823 17.823l-.177.177h.708L95.708 6.645v-.707zm0 3l-8.885 8.885-.177.177h.708l8.354-8.355v-.707zm0 3l-5.885 5.885-.177.177h.708l5.354-5.355v-.707zm0 3l-2.885 2.885-.177.177h.708l2.354-2.355v-.707zm0-14.938v.645l.469-.468.177-.177zm2.043.895l-2.043 2.043v.707l2.043-2.042V.895zm0 3l-2.043 2.043v.707l2.043-2.042v-.708zm0 3l-2.043 2.043v.707l2.043-2.042v-.708zm0 3l-2.043 2.043v.707l2.043-2.042v-.708zm0 3l-2.043 2.043v.707l2.043-2.042v-.708zm0 3l-1.928 1.928-.115.115V18h.646l1.397-1.397v-.708zM68.646 0L66.54 2.107v.707L69.177.177 69.354 0zm3 0L66.54 5.107v.707L72.177.177 72.354 0zm3 0L66.54 8.107v.707L75.177.177 75.354 0zm2.894.107l-11 11v.707l11-11V.107zm0 3l-11 11v.707l11-11v-.707zm0 3l-11 11v.707l11-11v-.707zm0 3l-8.717 8.716-.177.177h.708l8.186-8.186v-.707zm0 3l-5.717 5.716-.177.177h.708l5.186-5.186v-.707zm0 3l-2.717 2.716-.177.177h.708l2.186-2.186v-.707zM77.646 0l-.106.107v.707l.637-.637.177-.177zm1.894 1.107l-2 2v.707l2-2v-.707zm0 3l-2 2v.707l2-2v-.707zm0 3l-2 2v.707l2-2v-.707zm0 3l-2 2v.707l2-2v-.707zm0 3l-2 2v.707l2-2v-.707zm0 3l-1.717 1.716-.177.177h.708l1.186-1.186v-.707zM44.646 0L42.54 2.107v.707L45.177.177 45.354 0zm3 0L42.54 5.107v.707L48.177.177 48.354 0zm3 0L42.54 8.107v.707L51.177.177 51.354 0zm3 0L42.54 11.107v.707L54.177.177 54.354 0zm3 0L42.54 14.107v.707L57.177.177 57.354 0zm3 0L42.54 17.107v.707L60.177.177 60.354 0zm3 0L44.823 17.823l-.177.177h.708L63.177.177 63.354 0zm1.894 1.107L47.823 17.823l-.177.177h.708L64.54 1.814v-.707zm0 3L50.823 17.823l-.177.177h.708L64.54 4.814v-.707zm0 3L53.823 17.823l-.177.177h.708L64.54 7.814v-.707zm0 3l-7.717 7.716-.177.177h.708l7.186-7.186v-.707zm0 3l-4.717 4.716-.177.177h.708l4.186-4.186v-.707zm0 3l-1.717 1.716-.177.177h.708l1.186-1.186v-.707zM65.646 0L64.54 1.107v.707L66.177.177 66.354 0zm.894 2.107l-2 2v.707l2-2v-.707zm0 3l-2 2v.707l2-2v-.707zm0 3l-2 2v.707l2-2v-.707zm0 3l-2 2v.707l2-2v-.707zm0 3l-2 2v.707l2-2v-.707zm0 3l-.717.716-.177.177h.708l.186-.186v-.707zM39.106 7.458v1.656c.566 0 .848-.283.848-.848 0-.539-.282-.808-.848-.808zM37.011 0c.463 0 .855.116 1.176.35.613.443.919 1.09.919 1.938v4.584c.943 0 1.42.465 1.434 1.394 0 .942-.478 1.413-1.434 1.413V18h-.746V2.732c0-1.023-.199-1.68-.596-1.969-.206-.15-.476-.225-.838-.225-.337 0-.754.065-1.273.195a.65.65 0 0 1-.213.043c-.11 0-.188-.048-.232-.144-.013-.162.108-.276.364-.343C36.11.096 36.59 0 37.012 0z"/><path d="M35.646 0l-.438.438v.707l.969-.968.177-.177zm3 0l-3.438 3.438v.707L39.177.177 39.354 0zm1.894 1.107l-5.332 5.331v.707l5.332-5.331v-.707zm0 3l-5.332 5.331v.707l5.332-5.331v-.707zm0 3l-5.332 5.331v.707l5.332-5.331v-.707zm0 3l-5.332 5.331v.707l5.332-5.331v-.707zm0 3l-4.717 4.716-.177.177h.708l4.186-4.186v-.707zm0 3l-1.717 1.716-.177.177h.708l1.186-1.186v-.707zM41.646 0L40.54 1.107v.707L42.177.177 42.354 0zm.916 2.084L40.54 4.107v.707l2.022-2.023v-.707zm0 3L40.54 7.107v.707l2.022-2.023v-.707zm0 3l-2.022 2.023v.707l2.022-2.023v-.707zm0 3l-2.022 2.023v.707l2.022-2.023v-.707zm0 3l-2.022 2.023v.707l2.022-2.023v-.707zm0 3l-.739.74-.177.176h.708l.208-.209v-.707zM28.842.601c-1.074 0-2.418.552-3.069 1.202-.569.57-.643 1.324-.664 2.025h7.435c-.021-.7-.095-1.455-.664-2.025-.651-.65-1.964-1.202-3.038-1.202zm0-.601c1.274 0 2.645.589 3.449 1.392.824.824.917 1.91.917 2.72v.317h-8.732v-.316c0-.812.062-1.897.886-2.72C26.166.588 27.568 0 28.842 0zm1.187 9.627c5.438 1.9 2.904 9.54-2.195 8.228-5.054-1.302-4.045-9.318 2.195-8.228m-.243.698c-5.417-.787-5.639 5.768-1.708 6.812 3.846 1.022 6.482-5.13 1.708-6.812m-1.189 1.152c-1.082-.74.885-.487 0-.018v.018m1.986.433c-1.227-.397.343-.795 0-.073v.073m-2.993-.712v.732l-.73-.244.73-.488m3.571 2.066c-.903-.795.595-.885.108-.09l-.108.09m-2.839-.846l.244.731-.732-.487.488-.244m1.052.358l.072-.017c.668-.489 1.39 1.767-.072.017m-3.014-.397c.957.56-.162.703-.253.703l.253-.703m2.938 1.502l-.244.244-.488-.732.732.488m-1.674-.474l.468.019c-.559.866-.757.793-.468-.019m3.68 1.517c-.883-.74.434-.632.416-.488l-.415.488m-1.01-.903l-.221.305c-.718-.215-.34-.792.22-.305m-3.435.836l-.244.244-.488-.732.732.488m1.323.012c.759-.378.92-.27.47.344l-.47-.344m2.58.72l-.245.731-.488-.732h.732m-3.246-.465l.45.54c-.107.217-1.1.145-.45-.54m1.539.71l.244.731h-.732l.488-.732zM22.476 5.325v7.35h-.735v-7.35zm-4.37 0v7.35h-.735v-7.35zm-4.37 0v7.35H13v-7.35zM2.646 0L0 2.646v.708L3.177.177 3.354 0zm3 0L0 5.646v.708L6.177.177 6.354 0zm3 0L0 8.646v.708L9.177.177 9.354 0zM11 .646l-11 11v.708l11-11V.646zm0 3l-11 11v.708l11-11v-.708zm0 3l-11 11V18h.354L11 7.354v-.708zm0 3l-8.177 8.177-.177.177h.708L11 10.354v-.708zm0 3l-5.177 5.177-.177.177h.708L11 13.354v-.708zm0 3l-2.177 2.177-.177.177h.708L11 16.354v-.708z"/></svg>