<svg xmlns="http://www.w3.org/2000/svg" width="252.196" height="18"><path d="M250.549 0c.335 0 .67.026.994.066.447.113.218.626-.18.626a.476.476 0 0 1-.082-.008c-.839.097-1.872.15-2.506.626-.84.916-.463 2.821-.56 3.725-.008.05-.01 3.653-.01 5.48a6.145 6.145 0 0 1 2.634-.586c.402 0 .802.04 1.188.117.44.231-.077.528-.423.528a.454.454 0 0 1-.114-.013c-1.226.133-2.62.461-3.243 1.602-.062.206-.023.277.07.277.207 0 .68-.342.947-.342.014 0 .027 0 .04.003a7.535 7.535 0 0 1 1.58-.169c.39 0 .776.031 1.149.095.42.278-.096.534-.438.534a.532.532 0 0 1-.105-.01c-1.252.151-2.637.49-3.243 1.633-.007 1.27 0 2.11-.034 3.278.015.36-.219.538-.456.538-.235 0-.473-.176-.474-.526.008-1.15.09-2.161-.06-3.277-.305-1.253-2.478-1.445-3.827-1.754-.295-.347.285-.475.658-.475.056 0 .107.003.15.008.173-.013.347-.02.522-.02.882 0 1.77.175 2.557.58.032-.755-.712-1.19-1.244-1.493-.84-.361-1.766-.397-2.643-.59-.314-.273.18-.501.52-.501a.58.58 0 0 1 .126.012c.215-.02.431-.031.648-.031.902 0 1.804.183 2.614.582-.017-2.851-.063-5.61.019-8.308.066-.834.546-1.6 1.354-1.849.581-.264 1.227-.358 1.872-.358zm-23.995 2.99q-.557 0-1.087.606 4.368 5.2 5.46 5.81.815.457 1.434.457.211 0 .4-.053.74-.208 1.585-.234h.043q.828 0 1.816.988h.13q-.702-1.638-1.963-2.34-1.26-.702-7.397-5.148-.212-.085-.421-.085zm7.73-2.369q-.065 0-.133.01v6.683q2.054 1.196 2.835 3.354-1.197-8.268-1.678-9.204-.432-.843-1.023-.843zm5.356 10.468q.08 0 .154.138.13.247-.234.689-.208-.546-.052-.741.068-.086.132-.086zm-.036-.372q-.153 0-.33.237-.39.52.234 2.08.702-1.352.429-1.976-.15-.34-.333-.34zm-6.805 2.577v.39q.286-.026.442-.182-.052-.078-.208-.208zm-.598.884l-2.418.338-.494.884q.832-.234 1.833-.624t1.08-.598zm5.33-.364l-.467.234-.156 1.118.416 1.274h.65l-.442-1.274v-1.352zm-1.118.39l-.442.13-.156.832.416 1.274h.65l-.442-1.274-.026-.962zm-1.534.156l-.156.806.416 1.274h.65l-.442-1.274v-.78l-.468-.026zm.995-3.234q-.416 0-.89.1-1.405.3-1.769 1.418h-1.092l-.416-.676q-5.512 1.274-6.214 4.602 1.508-.832 3.172-1.118l.728-1.456 2.886-.39-.078-.702h.988q1.092.9 2.229.9.243 0 .488-.042 1.392-.234 1.82-.95.43-.714-.454-1.3-.585-.386-1.398-.386zM234.028 0q.948 0 1.488.658.663.806 1.236 4.238l.91 5.954q.442.468.676.52h.312q.026-.65.494-1.196.416-3.978-.364-6.968l.312-.598q1.118 3.38.546 7.592h.078q1.794-4.03.52-7.592l.312-.468q1.664 3.796-.364 8.242.572 1.248.117 2.054-.455.806-.56 1.508l-.181.13q-.702-1.04-.806-1.794h-.26q-.026.598-.338 1.248l-.182 1.638.442 1.274h2.262v.624h-6.527v-.624h.546l-.416-1.274-.026-.962q-.468-.156-.702-.364-.338.312-.754.312.026.26-.104.442-1.04.806-3.718 1.404l-.91 1.768q0-.434-.27-.434-.085 0-.198.044l.728-1.3q-1.508.338-2.288.858-.416.442.052 1.066-1.04-.442-1.17-1.248.416-3.926 7.046-5.46l.468.78h.416q.338-1.092 2.678-1.508-.522-.388-1.284-.388-.414 0-.9.115-.492.116-.96.116-.845 0-1.614-.376-1.196-.585-6.084-6.461.901-1.136 1.905-1.136.33 0 .67.122l6.317 4.524V.034q.235-.034.45-.034z"/><path d="M215.187.375c9.625 0 9.625 17.25 0 17.25" fill="none" stroke="#000"/><path d="M208.966 7.938c.68.054 1.057.394 1.129 1.022-.09.68-.466 1.04-1.13 1.075-.663-.036-1.012-.394-1.048-1.075.054-.628.403-.968 1.049-1.022zm-.081-2.259c-.484 0-.932.09-1.345.27a3.545 3.545 0 0 0-1.828 1.815 3.11 3.11 0 0 0-.269 1.276c0 .466.09.901.269 1.304a3.422 3.422 0 0 0 3.173 2.03c.484 0 .937-.085 1.358-.255.421-.17.784-.408 1.089-.712.305-.305.547-.66.726-1.063.18-.403.269-.838.269-1.304 0-.448-.09-.874-.27-1.277a3.67 3.67 0 0 0-.725-1.075 3.302 3.302 0 0 0-1.09-.74 3.431 3.431 0 0 0-1.357-.269zm.054-.914a4.17 4.17 0 0 1 1.667.336c.52.224.968.529 1.344.914.377.386.677.834.901 1.345.224.51.336 1.062.336 1.653 0 .592-.112 1.143-.336 1.654a4.31 4.31 0 0 1-.9 1.331 4.267 4.267 0 0 1-3.012 1.237 4.071 4.071 0 0 1-1.654-.336 4.48 4.48 0 0 1-1.344-.9 4.195 4.195 0 0 1-.915-1.332 4.071 4.071 0 0 1-.336-1.654c0-.591.112-1.142.336-1.653a4.358 4.358 0 0 1 2.259-2.259 4.071 4.071 0 0 1 1.654-.336zM198.394.383V.79h1.029V.383zm-1.317 1.173q.192.215.192.742h3.279q-.024-.527.167-.742zm0 1.508q.24.215.192.742h3.279q-.024-.527.167-.742zm0 1.508q.192.167.192.742h3.279q-.048-.527.167-.742zm.096 1.508q.335.598.311 1.604h2.896q-.048-1.006.312-1.604zm.311 1.771v.168h2.896V7.85zm0 .335v.168h2.896v-.168zm0 .335v.168h2.896V8.52zm0 .335v.168h2.896v-.168zm0 .335v5.817q-.215 1.077-.766 2.37h4.404q-.43-.958-.742-2.37V9.191zM199.782 0v.79h2.68q.456.383 0 .766h-1.1q-.216.215-.192.742h1.293q.455.383 0 .766h-1.101q-.216.215-.192.742h1.293q.455.383 0 .766h-1.101q-.24.215-.192.742h1.293q.455.359 0 .766h-1.101q-.431.502-.383 3.04v5.888q.167 1.316 1.173 2.992h-6.559q1.15-1.915 1.269-2.992V9.12q.12-2.514-.407-3.04h-1.125q-.479-.36 0-.766h1.292q.024-.575-.167-.742h-1.197q-.407-.407.072-.766h1.292q.024-.527-.167-.742h-1.125q-.455-.383 0-.766h1.292q.024-.527-.167-.742h-1.125q-.455-.383 0-.766h2.68V0zm-12.117.597a2.12 2.12 0 0 0-.692.109c.032.223.17.569.953.773-.73-.053-1.206-.113-1.452-.307-.089.2-.137.427-.158.556a.297.297 0 0 1-.207.237c-.624.191-1.173 1.112-1.7 1.763-.95 1.173-1.771 2.48-2.688 3.733l1.27-.622c1.182-.622 2.395-1.11 3.407-1.877.589-.49 1.172-.996 1.391-1.641.076-.497-.297-1.074-.768-1.279a.297.297 0 1 1 .238-.545c.377.164.7.458.904.817a1.986 1.986 0 0 0-.074-.448.297.297 0 0 1-.013-.104c.01-.184.041-.313.082-.422.04-.109.085-.206.158-.459a.297.297 0 0 1 .104-.153 1.546 1.546 0 0 0-.527-.125c-.043-.003-.084-.003-.125-.004a.258.258 0 1 1-.103-.002zm-1.193 5.432c-.606.466-1.253.873-1.888 1.28.005.438-.006.879-.047 1.321.207-.135.434-.236.697-.3.391-.636.82-1.22 1.082-1.842.055-.129.106-.29.156-.46zm.249 1c-.273.549-.622 1.04-.929 1.529.059.04.112.08.155.121l.027.027a1.72 1.72 0 0 1 .613-.454c-.009-.348.047-.768.134-1.222zm-2.881.047a25.922 25.922 0 0 0-.588.297c-.78.38-1.56.772-2.349 1.148-.556.67-1.156 1.293-1.735 1.92l1.044.175 2.563-2.786a.297.297 0 0 1 .039-.036 18.5 18.5 0 0 1 1.026-.718zm2.592 2.009c-.058.066-.112.14-.162.222a.298.298 0 0 1-.429.087c-.125-.09-.2-.177-.265-.244l-.078 1.413c.1-.006.201-.013.296-.013.167 0 .314.022.398.108.1-.078.28-.1.504-.1.058 0 .118.002.181.005l-.445-1.478zm5.418.999c-.451.062-.686.323-.703.783h1.394c0-.46-.23-.721-.69-.783zm-7.86-2.39a16.38 16.38 0 0 0-.798.56l-2.403 2.613h2.456c.171-.19.519-.365.777-.365.073 0 .139.014.191.046.082-.007.168-.01.256-.01.14 0 .286.007.434.016l.082-1.506c-.224.115-.407.282-.625.542a.297.297 0 0 1-.52-.246c.1-.544.142-1.093.15-1.65zm6.24 3.745l.266.465h1.248l.253-.465zm-4.516 0v2.51l1.727-2.51zM187.658 0a3.878 3.878 0 0 1 .273.01c.694.044 1.215.325 1.407.768a.298.298 0 0 1-.34.408l-.025-.006-.03.007-.108.029c-.054.168-.096.269-.12.332a.541.541 0 0 0-.042.2c.154.552.094 1.107.037 1.389-.096.466-.384.977-.762 1.46a.295.295 0 0 1-.014.108 21.54 21.54 0 0 0-.548 2.027c-.152.708-.233 1.387-.192 1.684a.297.297 0 0 1-.223.33l-.018.005.526 1.75c.086-.013.173-.018.26-.018.256 0 .509.041.712.041a.865.865 0 0 0 .183-.016.314.314 0 0 1 .068-.007c.212 0 .657.13.787.366h1.1c.062-.797.482-1.235 1.261-1.315.789.08 1.196.518 1.223 1.315v.572h-.532l-.544 1.01h-1.767l-.531-1.01h-1.567l-2.405 3.493V18h-.57v-6.561h-4.517v-.41l-.1.109a.297.297 0 0 1-.267.092l-1.74-.292a.298.298 0 0 1-.173-.492c.216-.242.436-.48.656-.716l-1.657 1.078a.296.296 0 0 1-.411-.087.297.297 0 0 1 .087-.411l1.344-.876a.292.292 0 0 1-.076-.09.315.315 0 0 1-.02-.237.305.305 0 0 1 .048-.093c.056-.076.084-.088.124-.119l.13-.094c.096-.065.207-.137.302-.2a4.156 4.156 0 0 0 .216-.156l2.378-1.672.008-.005c.806-1.13 1.568-2.316 2.457-3.414.433-.535.938-1.524 1.812-1.894.049-.262.157-.68.484-.997.353-.344.864-.463 1.416-.463zm-14.736 11.716c-.523.673-.853 1.324-.987 1.952a4.555 4.555 0 0 0 0 1.908c.134.643.508 1.167 1.122 1.571.613-.404.987-.928 1.122-1.57a4.555 4.555 0 0 0 0-1.909c-.135-.628-.464-1.279-.987-1.952zM173.057 0c.524 0 .785.284.785.853l-.291 10.347c.718.912 1.144 1.709 1.279 2.39.135.68.086 1.455-.146 2.323-.232.868-.774 1.563-1.627 2.087-.853-.524-1.392-1.22-1.616-2.087-.225-.868-.27-1.642-.135-2.323s.554-1.478 1.257-2.39l-.27-10.347c0-.569.255-.853.764-.853zm-6.693 4.99c.112 0 .223.011.335.021 1.61.172 2.753 1.802 2.5 3.382-.111 1.174-.84 1.832-1.64 2.48-2.38 1.458-1.71.921-4.11 2.136l-.385-.719c2.855-1.336 3.2-1.549 4.09-2.136.73-.587 1.306-1.235 1.256-2.217.02-.678-.385-1.377-.84-1.711a2.186 2.186 0 0 0-1.287-.435c-.344 0-.668.08-.951.283-.72.354-1.114 1.529-.587 2.268.243.354.678.597 1.113.597.213 0 .425-.06.608-.192.364-.203.637-.911.263-1.306.172-.182.415-.405.597-.405.122 0 .213.091.274.304.405.972-.243 2.075-1.215 2.338a1.83 1.83 0 0 1-.517.081c-1.113 0-2.146-.931-2.146-2.085-.101-1.347.972-2.582 2.318-2.663.102-.01.213-.02.324-.02z"/><path d="M153.376.375v17.25m7.688-17.25c-9.625 0-9.625 17.25 0 17.25m0 0" fill="none" stroke="#000"/><path d="M145.407.597a2.12 2.12 0 0 0-.692.109c.031.223.169.569.953.773-.73-.053-1.207-.113-1.453-.307-.089.2-.137.427-.158.556a.297.297 0 0 1-.206.237c-.625.191-1.174 1.112-1.7 1.763-.95 1.173-1.772 2.48-2.688 3.733.423-.207.845-.415 1.27-.622 1.182-.622 2.394-1.11 3.406-1.877.59-.49 1.172-.996 1.391-1.641.076-.497-.296-1.074-.767-1.279a.297.297 0 1 1 .238-.545c.376.164.699.458.904.817a1.986 1.986 0 0 0-.075-.448.297.297 0 0 1-.013-.104c.01-.184.042-.313.082-.422.041-.109.085-.206.158-.459a.297.297 0 0 1 .104-.153 1.546 1.546 0 0 0-.527-.125c-.042-.003-.083-.003-.125-.004a.258.258 0 1 1-.102-.002zm-1.194 5.432c-.605.466-1.253.873-1.888 1.28.005.438-.006.879-.047 1.321.207-.135.434-.236.697-.3.391-.636.82-1.22 1.083-1.842a4.64 4.64 0 0 0 .155-.46zm.249 1c-.273.549-.621 1.04-.928 1.529.058.04.112.08.154.121l.027.027c.17-.194.375-.351.614-.454-.01-.348.047-.768.133-1.222zm-2.88.047a25.922 25.922 0 0 0-.588.297c-.78.38-1.56.772-2.35 1.148-.556.67-1.156 1.293-1.734 1.92l1.043.175 2.563-2.786a.297.297 0 0 1 .04-.036c.333-.253.678-.489 1.025-.718zm2.591 2.009c-.058.066-.112.14-.161.222a.298.298 0 0 1-.43.087c-.124-.09-.2-.177-.265-.244l-.077 1.413c.1-.006.2-.013.296-.013.166 0 .313.022.397.108.1-.078.281-.1.505-.1.057 0 .118.002.18.005l-.445-1.478zm5.419.999c-.452.062-.686.323-.704.783h1.395c0-.46-.23-.721-.691-.783zm-7.861-2.39c-.274.182-.541.367-.798.56l-2.402 2.613h2.456c.17-.19.518-.365.776-.365a.37.37 0 0 1 .192.046c.081-.007.167-.01.256-.01.14 0 .285.007.433.016l.083-1.506c-.225.115-.407.282-.626.542a.297.297 0 0 1-.52-.246 9.773 9.773 0 0 0 .15-1.65zm6.24 3.745l.266.465h1.249l.252-.465zm-4.515 0v2.51l1.726-2.51zM145.399 0a3.878 3.878 0 0 1 .273.01c.694.044 1.215.325 1.408.768a.298.298 0 0 1-.341.408l-.025-.006-.03.007-.108.029c-.054.168-.096.269-.12.332a.541.541 0 0 0-.042.2 3.1 3.1 0 0 1 .037 1.389c-.095.466-.384.977-.761 1.46a.295.295 0 0 1-.014.108 21.24 21.24 0 0 0-.548 2.027c-.153.708-.234 1.387-.192 1.684a.297.297 0 0 1-.223.33l-.019.005.527 1.75c.085-.013.172-.018.259-.018.256 0 .51.041.712.041a.865.865 0 0 0 .184-.016.314.314 0 0 1 .068-.007c.212 0 .656.13.787.366h1.1c.061-.797.482-1.235 1.26-1.315.789.08 1.196.518 1.223 1.315v.572h-.531l-.545 1.01h-1.767l-.53-1.01h-1.568l-2.404 3.493V18h-.571v-6.561h-4.517v-.41l-.1.109a.297.297 0 0 1-.267.092l-1.74-.292a.298.298 0 0 1-.173-.492c.217-.242.436-.48.656-.716l-1.656 1.078a.296.296 0 0 1-.412-.087.297.297 0 0 1 .087-.411l1.345-.876a.292.292 0 0 1-.076-.09.315.315 0 0 1-.02-.237c.016-.05.034-.074.048-.093.055-.076.084-.088.123-.119.04-.03.083-.06.131-.094.096-.065.206-.137.301-.2a4.156 4.156 0 0 0 .216-.156l2.379-1.672.008-.005c.805-1.13 1.568-2.316 2.457-3.414.433-.535.937-1.524 1.812-1.894.048-.262.156-.68.483-.997.353-.344.864-.463 1.416-.463zm-34.753 0v.708l.53-.531.178-.177zm3 0l-3 3v.708l3.53-3.531.178-.177zm3 0l-6 6v.708l6.53-6.531.178-.177zm3 0l-9 9v.708l9.53-9.531.178-.177zm3 0l-12 12v.708L123.176.177l.178-.177zm3 0l-15 15v.708L126.176.177l.178-.177zm3 0l-17.823 17.823-.177.177h.708L129.177.177l.177-.177zm3 0l-17.823 17.823-.177.177h.708L132.177.177l.177-.177zm1 2l-15.823 15.823-.177.177h.708l15.292-15.292v-.707zm0 3l-12.823 12.823-.177.177h.708l12.292-12.292v-.707zm0 3l-9.823 9.823-.177.177h.708l9.292-9.292v-.707zm0 3l-6.823 6.823-.177.177h.708l6.292-6.292v-.707zm0 3l-3.823 3.823-.177.177h.708l3.292-3.292v-.707zm0 3l-.823.823-.177.177h.708l.292-.292v-.707z"/><path d="M134.646 0l-2 2v.708l2-2V.001zm0 3l-2 2v.708l2-2v-.707zm0 3l-2 2v.708l2-2v-.707zm0 3l-2 2v.708l2-2v-.707zm0 3l-2 2v.708l2-2v-.707zm0 3l-2 2v.708l2-2v-.707zm-48-15v.708l.53-.531.178-.177zm3 0l-3 3v.708l3.53-3.531.178-.177zm3 0l-6 6v.708l6.53-6.531.178-.177zm3 0l-9 9v.708l9.53-9.531.178-.177zm3 0l-12 12v.708L99.176.177 99.355 0zm3 0l-15 15v.708L102.176.177l.178-.177zm3 0L86.823 17.823l-.177.177h.708L105.177.177l.177-.177zm3 0L89.823 17.823l-.177.177h.708L108.177.177l.177-.177zm1 2L92.823 17.824l-.177.177h.708l15.292-15.292v-.707zm0 3L95.823 17.824l-.177.177h.708l12.292-12.292v-.707zm0 3l-9.823 9.823-.177.177h.708l9.292-9.292v-.707zm0 3l-6.823 6.823-.177.177h.708l6.292-6.292v-.707zm0 3l-3.823 3.823-.177.177h.708l3.292-3.292v-.707zm0 3l-.823.823-.177.177h.708l.292-.292v-.707zm2-17l-2 2v.708l2-2V.001zm0 3l-2 2v.708l2-2v-.707zm0 3l-2 2v.708l2-2v-.707zm0 3l-2 2v.708l2-2v-.707zm0 3l-2 2v.708l2-2v-.707zm0 3l-2 2v.708l2-2v-.707zM83.212 7.458v1.656c.565 0 .848-.283.848-.848 0-.539-.283-.808-.848-.808zM81.117 0c.463 0 .855.116 1.176.35.612.443.919 1.09.919 1.938v4.584c.942 0 1.42.465 1.434 1.394 0 .942-.478 1.413-1.434 1.413V18h-.747V2.732c0-1.023-.198-1.68-.595-1.969-.206-.15-.476-.225-.839-.225-.337 0-.754.065-1.273.195a.65.65 0 0 1-.212.043c-.111 0-.189-.048-.232-.144-.014-.162.108-.276.363-.343C80.216.096 80.696 0 81.117 0zm-8.169.601c-1.074 0-2.418.552-3.069 1.202-.57.57-.644 1.324-.664 2.025h7.435c-.021-.7-.096-1.455-.665-2.025-.65-.65-1.963-1.202-3.037-1.202zm0-.601c1.274 0 2.645.589 3.448 1.392.825.824.918 1.91.918 2.72v.317h-8.732v-.316c0-.812.062-1.897.886-2.72C70.27.588 71.674 0 72.948 0zm1.187 9.627c5.438 1.9 2.903 9.54-2.195 8.228-5.054-1.302-4.046-9.318 2.195-8.228m-.243.698c-5.418-.787-5.64 5.768-1.708 6.812 3.846 1.022 6.482-5.13 1.708-6.812m-1.189 1.152c-1.082-.74.885-.487 0-.018v.018m1.986.433c-1.228-.397.343-.795 0-.073v.073m-2.993-.712v.732l-.731-.244.73-.488m3.572 2.066c-.904-.795.595-.885.108-.09l-.108.09m-2.84-.846l.245.731-.732-.487.488-.244m1.052.358l.072-.017c.668-.489 1.39 1.767-.072.017m-3.014-.397c.956.56-.162.703-.254.703l.254-.703m2.938 1.502l-.244.244-.488-.732.732.488m-1.675-.474l.469.019c-.559.866-.757.793-.469-.019m3.681 1.517c-.883-.74.434-.632.415-.488l-.415.488m-1.01-.903l-.22.305c-.719-.215-.34-.792.22-.305m-3.435.836l-.244.244-.488-.732.732.488m1.323.012c.758-.378.92-.27.47.344l-.47-.344m2.579.72l-.244.731-.488-.732h.732m-3.246-.465l.45.54c-.107.217-1.1.145-.45-.54m1.539.71l.244.731h-.732l.488-.732zm-12.102 2.215c-2.597 0-2.597-3.896 0-3.896s2.597 3.896 0 3.896zM53.582 5.325v7.35h-.735v-7.35zm-4.37 0v7.35h-.736v-7.35zm-8.26 12.723c-2.597 0-2.597-3.896 0-3.896 2.598 0 2.598 3.896 0 3.896zM33.476 0v7.35h-.735V0zm-4.37 0v7.35h-.735V0zm-4.37 0v7.35H24V0zm6.554 10.65V18h-.734v-7.35zm-4.37 0V18h-.735v-7.35zM2.646 0L0 2.646v.708L3.177.177 3.354 0zm3 0L0 5.646v.708L6.177.177 6.354 0zm3 0L0 8.646v.708L9.177.177 9.354 0zm3 0L0 11.646v.708L12.177.177 12.354 0zm3 0L0 14.646v.708L15.177.177 15.354 0zm3 0L0 17.646V18h.354L18.177.177 18.354 0zm3 0L2.823 17.823 2.646 18h.708L21.177.177 21.354 0zM22 1.646L5.823 17.823 5.646 18h.708L22 2.354v-.708zm0 3L8.823 17.823 8.646 18h.708L22 5.354v-.708zm0 3L11.823 17.823l-.177.177h.708L22 8.354v-.708zm0 3l-7.177 7.177-.177.177h.708L22 11.354v-.708zm0 3l-4.177 4.177-.177.177h.708L22 14.354v-.708zm0 3l-1.177 1.177-.177.177h.708l.646-.646v-.708z"/></svg>