<svg xmlns="http://www.w3.org/2000/svg" width="208.49" height="18"><path d="M206.843 0c.336 0 .67.026.995.066.447.113.217.626-.18.626a.476.476 0 0 1-.082-.008c-.839.097-1.872.15-2.506.626-.84.916-.463 2.821-.56 3.725-.008.05-.01 3.653-.01 5.48a6.145 6.145 0 0 1 2.634-.586c.402 0 .801.04 1.188.117.44.231-.077.528-.423.528a.454.454 0 0 1-.114-.013c-1.226.133-2.62.461-3.243 1.602-.062.206-.023.277.07.277.207 0 .68-.342.947-.342.014 0 .027 0 .04.003a7.535 7.535 0 0 1 1.58-.169c.39 0 .776.031 1.149.095.42.278-.096.534-.438.534a.532.532 0 0 1-.105-.01c-1.252.151-2.637.49-3.243 1.633-.007 1.27 0 2.11-.034 3.278.015.36-.219.538-.456.538-.235 0-.473-.176-.474-.526.008-1.15.09-2.161-.06-3.277-.305-1.253-2.478-1.445-3.827-1.754-.295-.347.285-.475.658-.475.056 0 .107.003.15.008.173-.013.347-.02.522-.02.882 0 1.77.175 2.557.58.032-.755-.712-1.19-1.244-1.493-.84-.361-1.766-.397-2.643-.59-.314-.273.18-.501.52-.501a.58.58 0 0 1 .126.012c.215-.02.431-.031.648-.031.902 0 1.804.183 2.614.582-.017-2.851-.063-5.61.019-8.308.066-.834.546-1.6 1.354-1.849.58-.264 1.227-.358 1.871-.358z"/><path d="M200.646 0l-1.054 1.055v.707l1.585-1.585.177-.177zm3 0l-4.054 4.055v.707l4.585-4.585.177-.177zm3 0l-7.054 7.055v.707l7.585-7.585.177-.177zm1.844 1.156l-8.898 8.899v.707l8.898-8.899v-.707zm0 3l-8.898 8.899v.707l8.898-8.899v-.707zm0 3l-8.898 8.899v.707l8.898-8.899v-.707zm0 3l-7.667 7.667-.177.177h.708l7.136-7.137v-.707zm0 3l-4.667 4.667-.177.177h.708l4.136-4.137v-.707zm0 3l-1.667 1.667-.177.177h.708l1.136-1.137v-.707zM209.646 0l-1.156 1.156v.707l1.687-1.686.177-.177zm.88 2.121l-2.036 2.035v.707l2.035-2.035v-.707zm0 3l-2.036 2.035v.707l2.035-2.035v-.707zm0 3l-2.036 2.035v.707l2.035-2.035v-.707zm0 3l-2.036 2.035v.707l2.035-2.035v-.707zm0 3l-2.036 2.035v.707l2.035-2.035v-.707zm0 3l-.703.702-.177.177h.708l.171-.172v-.707zM182.849 2.99q-.557 0-1.087.606 4.368 5.2 5.46 5.81.815.457 1.434.457.211 0 .4-.053.74-.208 1.585-.234h.043q.828 0 1.816.988h.13q-.702-1.638-1.963-2.34-1.26-.702-7.397-5.148-.213-.085-.421-.085zm7.73-2.369q-.065 0-.133.01v6.683q2.054 1.196 2.834 3.354-1.196-8.268-1.677-9.204Q191.17.62 190.58.62zm5.356 10.468q.08 0 .153.138.13.247-.234.689-.208-.546-.052-.741.07-.086.133-.086zm-.036-.372q-.153 0-.33.237-.39.52.233 2.08.702-1.352.43-1.976-.15-.34-.333-.34zm-6.805 2.577v.39q.286-.026.442-.182-.052-.078-.208-.208zm-.598.884l-2.418.338-.494.884q.832-.234 1.833-.624t1.08-.598zm5.33-.364l-.468.234-.156 1.118.416 1.274h.65l-.442-1.274v-1.352zm-1.118.39l-.442.13-.156.832.416 1.274h.65l-.442-1.274-.026-.962zm-1.534.156l-.156.806.416 1.274h.65l-.442-1.274v-.78l-.468-.026zm.995-3.234q-.416 0-.89.1-1.405.3-1.769 1.418h-1.092l-.416-.676q-5.512 1.274-6.214 4.602 1.508-.832 3.172-1.118l.728-1.456 2.886-.39-.078-.702h.988q1.092.9 2.228.9.244 0 .49-.042 1.39-.234 1.82-.95.428-.714-.456-1.3-.585-.386-1.397-.386zM190.323 0q.947 0 1.488.658.663.806 1.235 4.238l.91 5.954q.442.468.676.52h.312q.026-.65.494-1.196.416-3.978-.364-6.968l.312-.598q1.118 3.38.546 7.592h.078q1.795-4.03.52-7.592l.312-.468q1.665 3.796-.364 8.242.573 1.248.117 2.054-.455.806-.559 1.508l-.182.13q-.702-1.04-.806-1.794h-.26q-.026.598-.338 1.248l-.182 1.638.442 1.274h2.263v.624h-6.527v-.624h.546l-.416-1.274-.026-.962q-.468-.156-.702-.364-.338.312-.754.312.026.26-.104.442-1.04.806-3.718 1.404l-.91 1.768q0-.434-.27-.434-.085 0-.198.044l.728-1.3q-1.508.338-2.288.858-.416.442.052 1.066-1.04-.442-1.17-1.248.416-3.926 7.046-5.46l.468.78h.416q.338-1.092 2.678-1.508-.522-.388-1.284-.388-.414 0-.9.115-.492.116-.96.116-.845 0-1.614-.376-1.196-.585-6.084-6.461.901-1.136 1.905-1.136.33 0 .67.122l6.317 4.524V.034q.235-.034.449-.034z"/><path d="M171.482.375c9.625 0 9.625 17.25 0 17.25" fill="none" stroke="#000"/><path d="M156.68.56a4.072 4.072 0 0 0 2.8 1.064c.42 0 .86-.054 1.323-.163a5.387 5.387 0 0 1 1.239-.146c1.234 0 2.475.433 3.723 1.297-1.011-.916-1.79-1.413-2.338-1.49-.395-.056-.972-.084-1.73-.084-.293 0-.611.004-.957.012a9.198 9.198 0 0 1-.289.004c-1.163 0-2.42-.165-3.772-.494zm5.604 1.298c-.486 0-1.027.067-1.624.201-1.026.23-2.011.346-2.954.346-.13 0-.257-.003-.384-.007a19.617 19.617 0 0 0-.644-.013c-.554 0-.711.043-.472.13.316.112.946.184 1.892.213.947.03 1.753.268 2.42.714.454.305.985.457 1.595.457.284 0 .585-.033.903-.1 1-.208 1.672-.437 2.018-.687-.262-.464-.765-.82-1.509-1.07a3.888 3.888 0 0 0-1.24-.184zm4.652 2.558zm-.913-.768c.153 0 .794.225 1.067.552.127.153.17.343.166.5.02.114-.019.263-.14.461a.578.578 0 0 1-.353.125c-.26 0-.486-.192-.462-.469.025-.299.147-.448.376-.448a.765.765 0 0 1 .26.047c-.014-.047-.023-.09-.045-.12-.222-.306-.715-.48-.87-.597-.046-.035-.04-.051.001-.051zm1.562 2.489zm-1.551-2.762c-.24 0-.453.106-.643.317-.37.41-.533.824-.491 1.241.041.417.163.756.366 1.017.232-.02.447-.03.644-.03.594 0 1.034.093 1.32.28l.16-.028a6.365 6.365 0 0 1-.181-.345.647.647 0 0 1-.07 0l-.259-.058c-.076-.018.546-.32.553-.32l-.007.005-.043.263a.12.12 0 0 1-.01.035c.07.126.17.302.212.385l.144-.026c-.19-.702-.259-1.19-.205-1.464.053-.273-.197-.604-.75-.99-.268-.188-.515-.282-.74-.282zm-1.76 1.45c-.02 0-.047.03-.08.09-1.536 1.286-2.784 1.93-3.742 1.93-.133 0-.26-.013-.381-.038-.708-.143-1.318-.215-1.829-.215-.21 0-.404.013-.58.037-.608.083-1.01.431-1.206 1.044-.196.613-.238.997-.125 1.151.113.155.574.26 1.384.313.202.013.406.02.61.02.615 0 1.242-.06 1.88-.18.287-.055.53-.082.728-.082.39 0 .608.104.655.313.029.127.11.19.246.19.201 0 .521-.14.96-.422.731-.47 1.264-.99 1.597-1.562.333-.571.407-1 .223-1.285a1.723 1.723 0 0 1-.277-.955c0-.233-.02-.35-.062-.35zm-8.868 1.843c-.566 0-1.153.27-1.761.809-.786.696-1.193 1.261-1.223 1.696-.03.434.172.702.607.803.09.02.181.031.275.031.356 0 .734-.153 1.135-.46.506-.386.875-.797 1.107-1.231.232-.435.348-.961.348-1.58a1.781 1.781 0 0 0-.488-.068zM156.501 0c.055 0 .115.002.178.006 1.47.381 3.066.571 4.785.571.215 0 .432-.003.65-.009l.196-.002c1.874 0 3.318.753 4.33 2.26.726.477 1.172.857 1.339 1.143.167.286.196.684.09 1.196.089.24.158.452.206.637l1.207.57-.498-.014-.651-.3c.015.082.024.157.028.224l1.026.683-.465-.061-.578-.381c-.022.088-.063.15-.124.186-.184.109-.441.163-.771.163a3.57 3.57 0 0 1-.273-.011c-.248-.203-.62-.305-1.115-.305a4.7 4.7 0 0 0-.563.037c-.25 1.202-1.202 2.291-2.856 3.267a49.719 49.719 0 0 1 2.932-.116c.717 0 1.173.038 1.37.116.392.155.595.446.607.875a3.743 3.743 0 0 1-1.928-.036h-5.552c-.071-.238.202-.643.821-1.214a7.946 7.946 0 0 1-2.1.261c-.906 0-1.902-.123-2.987-.368l-.964.428c.354.144.803.215 1.348.215.225 0 .466-.012.722-.036a2.96 2.96 0 0 1 .292-.015c.717 0 1.198.285 1.44.854a8.367 8.367 0 0 1-1.282.112 3.8 3.8 0 0 1-1.057-.13 24.943 24.943 0 0 0-2.101-.108c-.372 0-.689.015-.951.045-.321.038-.66.092-.965.092-.327 0-.616-.063-.802-.279-.805-.935-.76-.983-.781-1.491-.033-.806.05-1.776.562-1.776.093 0 .2.032.323.103.587.339.028.707.065 1.641 0 0 .083-1.216 1.277-2.011.95-.634 2.124-1.012 3.588-1.036.216-.003.424-.005.622-.005 1.14 0 1.974.058 2.502.175a2.803 2.803 0 0 0 1.838-.214c.607-.28 1.535-.914 2.785-1.902-.758.296-1.472.445-2.141.445a4.073 4.073 0 0 1-1.893-.453c-1.167-.601-2.264-.917-3.294-.947-1.03-.03-1.627-.33-1.794-.901a19.55 19.55 0 0 1 2.66-.25c-.845-.321-1.428-.735-1.75-1.24-.293-.463-.144-.694.447-.694zm10.677 15.276L169.482 18h-1.124l-1.18-1.407L165.986 18l-1.157-1.407L163.637 18l-1.18-1.407L161.264 18l-1.18-1.407L158.891 18l-1.157-1.407L156.543 18l-1.192-1.407L154.193 18l-1.191-1.407-1.18 1.407h-1.124l2.304-2.724 1.191 1.317 1.158-1.317 1.192 1.317 1.192-1.317 1.157 1.317 1.192-1.317 1.18 1.317 1.192-1.317 1.18 1.317 1.193-1.317 1.157 1.317 1.192-1.317zM146.622 1.124q-2.014.293-2.106 1.842v11.177q.942-1.124 3.382-1.58l-1.276-11.44zM147.19 0l1.509 13.363q-3.362.385-4.182 2.4V18h-1.002V2.966q0-2.51 3.675-2.966zm-7.998 0q2.322 0 2.322 2.232V18h-1.071V2.232q0-1.16-1.251-1.16-1.262 0-1.262 1.16v10.492h-1.071V2.232q0-2.232 2.333-2.232z"/><path d="M127.171.375v17.25m7.688-17.25c-9.625 0-9.625 17.25 0 17.25m0 0" fill="none" stroke="#000"/><path d="M119.202.597a2.12 2.12 0 0 0-.692.109c.031.223.169.569.953.773-.73-.053-1.206-.113-1.453-.307a2.45 2.45 0 0 0-.158.556.297.297 0 0 1-.206.237c-.625.191-1.174 1.112-1.7 1.763-.95 1.173-1.772 2.48-2.688 3.733.423-.207.845-.415 1.27-.622 1.182-.622 2.394-1.11 3.407-1.877.588-.49 1.172-.996 1.39-1.641.076-.497-.296-1.074-.767-1.279a.297.297 0 1 1 .238-.545c.376.164.699.458.904.817a1.986 1.986 0 0 0-.075-.448.297.297 0 0 1-.013-.104c.01-.184.042-.313.082-.422.041-.109.085-.206.158-.459a.297.297 0 0 1 .104-.153 1.546 1.546 0 0 0-.527-.125c-.042-.003-.083-.003-.125-.004a.258.258 0 1 1-.102-.002zm-1.194 5.432c-.605.466-1.253.873-1.888 1.28.005.438-.006.879-.047 1.321.207-.135.434-.236.697-.3.392-.636.82-1.22 1.083-1.842a4.64 4.64 0 0 0 .155-.46zm.249 1c-.273.549-.621 1.04-.928 1.529.059.04.112.08.154.121l.027.027c.17-.194.375-.351.614-.454-.01-.348.047-.768.133-1.222zm-2.88.047a25.922 25.922 0 0 0-.588.297c-.78.38-1.56.772-2.35 1.148-.556.67-1.156 1.293-1.734 1.92l1.043.175 2.563-2.786a.297.297 0 0 1 .04-.036c.333-.253.678-.489 1.025-.718zm2.591 2.009c-.058.066-.112.14-.161.222a.298.298 0 0 1-.43.087c-.124-.09-.2-.177-.265-.244l-.077 1.413c.1-.006.201-.013.296-.013.166 0 .313.022.398.108.1-.078.28-.1.504-.1.057 0 .118.002.18.005l-.445-1.478zm5.419.999c-.452.062-.686.323-.704.783h1.395c0-.46-.23-.721-.691-.783zm-7.861-2.39c-.274.182-.541.367-.798.56l-2.402 2.613h2.456c.17-.19.518-.365.776-.365.073 0 .14.014.192.046.081-.007.167-.01.256-.01.14 0 .285.007.433.016l.083-1.506c-.225.115-.407.282-.625.542a.297.297 0 0 1-.52-.246c.1-.544.141-1.093.149-1.65zm6.24 3.745l.266.465h1.249l.252-.465zm-4.515 0v2.51l1.726-2.51zM119.194 0a3.878 3.878 0 0 1 .273.01c.694.044 1.215.325 1.408.768a.298.298 0 0 1-.341.408l-.025-.006-.03.007-.108.029c-.054.168-.096.269-.12.332a.541.541 0 0 0-.042.2 3.1 3.1 0 0 1 .037 1.389c-.095.466-.384.977-.761 1.46a.295.295 0 0 1-.014.108 21.24 21.24 0 0 0-.548 2.027c-.152.708-.234 1.387-.192 1.684a.297.297 0 0 1-.223.33l-.019.005.527 1.75c.086-.013.172-.018.259-.018.256 0 .51.041.712.041a.865.865 0 0 0 .184-.016.314.314 0 0 1 .068-.007c.212 0 .656.13.787.366h1.1c.061-.797.482-1.235 1.26-1.315.789.08 1.196.518 1.223 1.315v.572h-.531l-.545 1.01h-1.767l-.53-1.01h-1.568l-2.404 3.493V18h-.571v-6.561h-4.517v-.41l-.099.109a.297.297 0 0 1-.268.092l-1.74-.292a.298.298 0 0 1-.173-.492c.217-.242.436-.48.656-.716l-1.656 1.078a.296.296 0 0 1-.412-.087.297.297 0 0 1 .087-.411l1.345-.876a.292.292 0 0 1-.076-.09.315.315 0 0 1-.02-.237c.016-.05.034-.074.048-.093.055-.076.084-.088.123-.119.04-.03.084-.06.131-.094.096-.065.206-.137.301-.2a4.156 4.156 0 0 0 .216-.156l2.379-1.672.008-.005c.805-1.13 1.568-2.316 2.457-3.414.433-.535.937-1.524 1.812-1.894.048-.262.157-.68.483-.997.353-.344.864-.463 1.416-.463zM68.007 7.458v1.656c.565 0 .848-.283.848-.848 0-.539-.283-.808-.848-.808zM65.912 0c.463 0 .855.116 1.176.35.612.443.919 1.09.919 1.938v4.584c.942 0 1.42.465 1.434 1.394 0 .942-.478 1.413-1.434 1.413V18h-.747V2.732c0-1.023-.198-1.68-.595-1.969-.206-.15-.476-.225-.839-.225-.337 0-.754.065-1.273.195a.65.65 0 0 1-.212.043c-.111 0-.188-.048-.232-.144-.013-.162.108-.276.364-.343C65.01.096 65.49 0 65.912 0zm-8.169.601c-1.074 0-2.418.552-3.069 1.202-.57.57-.643 1.324-.664 2.025h7.435c-.021-.7-.096-1.455-.665-2.025-.65-.65-1.963-1.202-3.037-1.202zm0-.601c1.274 0 2.645.589 3.448 1.392.825.824.918 1.91.918 2.72v.317h-8.732v-.316c0-.812.062-1.897.886-2.72C55.066.588 56.469 0 57.743 0zm1.187 9.627c5.438 1.9 2.903 9.54-2.195 8.228-5.054-1.302-4.046-9.318 2.195-8.228m-.243.698c-5.418-.787-5.64 5.768-1.708 6.812 3.846 1.022 6.482-5.13 1.708-6.812m-1.189 1.152c-1.082-.74.885-.487 0-.018v.018m1.986.433c-1.228-.397.343-.795 0-.073v.073m-2.993-.712v.732l-.731-.244.73-.488m3.572 2.066c-.903-.795.595-.885.108-.09l-.108.09m-2.84-.846l.245.731-.732-.487.488-.244m1.052.358l.072-.017c.668-.489 1.39 1.767-.072.017m-3.014-.397c.956.56-.162.703-.253.703l.253-.703m2.938 1.502l-.244.244-.488-.732.732.488m-1.675-.474l.469.019c-.559.866-.757.793-.469-.019m3.681 1.517c-.883-.74.434-.632.416-.488l-.416.488m-1.01-.903l-.22.305c-.719-.215-.34-.792.22-.305m-3.435.836l-.244.244-.488-.732.732.488m1.323.012c.758-.378.92-.27.47.344l-.47-.344m2.579.72l-.244.731-.488-.732h.732m-3.246-.465l.45.54c-.107.217-1.1.145-.45-.54m1.539.71l.244.731h-.732l.488-.732zM48.086 0c.872.011 1.67.223 2.274.715.626.497 1.022 1.268 1.017 2.212v4.715h-.648v-4.72c0-.771-.29-1.319-.771-1.704-.464-.369-1.117-.57-1.855-.57h-.09c-.731 0-1.39.201-1.854.57-.48.385-.77.933-.77 1.704v4.72h-.649V2.927c-.005-.944.391-1.715 1.017-2.212C46.36.223 47.159.011 48.031 0zm-7.74 0c.872.011 1.67.223 2.274.715.626.497 1.022 1.268 1.017 2.212v4.715h-.648v-4.72c0-.771-.29-1.319-.771-1.704-.464-.369-1.118-.57-1.855-.57h-.09c-.731 0-1.39.201-1.854.57-.48.385-.771.933-.771 1.704v4.72H37V2.927c-.006-.944.391-1.715 1.017-2.212C38.62.223 39.419.011 40.29 0zm3.876 8.95c1.032.012 1.978.264 2.692.846.741.589 1.211 1.502 1.204 2.62V18h-.767v-5.59c0-.914-.344-1.562-.913-2.019-.55-.436-1.323-.674-2.197-.674h-.105c-.867 0-1.648.238-2.197.674-.569.457-.913 1.105-.913 2.018V18h-.768v-5.584c-.006-1.118.464-2.031 1.205-2.62.714-.582 1.66-.834 2.692-.847zM2.646 0L0 2.646v.708L3.177.177 3.354 0zm3 0L0 5.646v.708L6.177.177 6.354 0zm3 0L0 8.646v.708L9.177.177 9.354 0zm3 0L0 11.646v.708L12.177.177 12.354 0zm3 0L0 14.646v.708L15.177.177 15.354 0zm3 0L0 17.646V18h.354L18.177.177 18.354 0zm3 0L2.823 17.823 2.646 18h.708L21.177.177 21.354 0zM22 1.646L5.823 17.823 5.646 18h.708L22 2.354v-.708zm0 3L8.823 17.823 8.646 18h.708L22 5.354v-.708zm0 3L11.823 17.823l-.177.177h.708L22 8.354v-.708zm0 3l-7.177 7.177-.177.177h.708L22 11.354v-.708zm0 3l-4.177 4.177-.177.177h.708L22 14.354v-.708zm0 3l-1.177 1.177-.177.177h.708l.646-.646v-.708z"/></svg>