<svg xmlns="http://www.w3.org/2000/svg" width="229.507" height="18"><path d="M227.86 0c.335 0 .67.026.994.066.447.113.218.626-.18.626a.476.476 0 0 1-.082-.008c-.839.097-1.872.15-2.506.626-.84.916-.463 2.821-.56 3.725-.008.05-.01 3.653-.01 5.48a6.145 6.145 0 0 1 2.634-.586c.402 0 .802.04 1.188.117.44.231-.077.528-.423.528a.454.454 0 0 1-.114-.013c-1.226.133-2.62.461-3.243 1.602-.062.206-.023.277.07.277.207 0 .68-.342.947-.342.014 0 .027 0 .04.003a7.535 7.535 0 0 1 1.58-.169c.39 0 .776.031 1.149.095.42.278-.096.534-.438.534a.532.532 0 0 1-.105-.01c-1.252.151-2.637.49-3.243 1.633-.007 1.27 0 2.11-.034 3.278.015.36-.219.538-.456.538-.235 0-.473-.176-.474-.526.008-1.15.09-2.161-.06-3.277-.305-1.253-2.478-1.445-3.827-1.754-.295-.347.285-.475.658-.475.056 0 .107.003.15.008.173-.013.347-.02.522-.02.882 0 1.77.175 2.557.58.032-.755-.712-1.19-1.244-1.493-.84-.361-1.766-.397-2.643-.59-.314-.273.18-.501.521-.501a.58.58 0 0 1 .125.012c.215-.02.431-.031.648-.031.902 0 1.804.183 2.614.582-.017-2.851-.063-5.61.019-8.308.066-.834.546-1.6 1.354-1.849C226.57.094 227.215 0 227.86 0z"/><path d="M221.646 0l-1.038 1.038v.708l1.569-1.57.177-.176zm3 0l-4.038 4.038v.708l4.569-4.57.177-.176zm3 0l-7.038 7.038v.708l7.569-7.57.177-.176zm1.86 1.14l-8.898 8.898v.708l8.899-8.899V1.14zm0 3l-8.898 8.898v.708l8.899-8.899V4.14zm0 3l-8.898 8.898v.708l8.899-8.899V7.14zm0 3l-7.683 7.683-.177.177h.708l7.153-7.153v-.707zm0 3l-4.683 4.683-.177.177h.708l4.153-4.153v-.707zm0 3l-1.683 1.683-.177.177h.708l1.153-1.153v-.707z"/><path d="M230.646 0l-1.14 1.14v.707l1.67-1.67.178-.177zm.895 2.105l-2.034 2.035v.707l2.034-2.035v-.707zm0 3l-2.034 2.035v.707l2.034-2.035v-.707zm0 3l-2.034 2.035v.707l2.034-2.035v-.707zm0 3l-2.034 2.035v.707l2.034-2.035v-.707zm0 3l-2.034 2.035v.707l2.034-2.035v-.707zm0 3l-.718.718-.177.177h.708l.187-.188v-.707zM203.865 2.99q-.557 0-1.087.606 4.368 5.2 5.46 5.81.815.457 1.434.457.211 0 .4-.053.74-.208 1.585-.234h.043q.828 0 1.817.988h.13q-.703-1.638-1.964-2.34-1.26-.702-7.397-5.148-.212-.085-.421-.085zm7.73-2.369q-.065 0-.133.01v6.683q2.055 1.196 2.835 3.354-1.196-8.268-1.678-9.204-.432-.843-1.023-.843zm5.356 10.468q.081 0 .154.138.13.247-.234.689-.208-.546-.052-.741.068-.086.132-.086zm-.036-.372q-.153 0-.33.237-.39.52.234 2.08.702-1.352.429-1.976-.15-.34-.333-.34zm-6.805 2.577v.39q.286-.026.442-.182-.052-.078-.208-.208zm-.598.884l-2.418.338-.494.884q.832-.234 1.833-.624t1.08-.598zm5.33-.364l-.467.234-.156 1.118.416 1.274h.65l-.442-1.274v-1.352zm-1.117.39l-.442.13-.156.832.416 1.274h.65l-.442-1.274-.026-.962zm-1.535.156l-.156.806.416 1.274h.65l-.442-1.274v-.78l-.468-.026zm.995-3.234q-.416 0-.89.1-1.405.3-1.769 1.418h-1.092l-.416-.676q-5.512 1.274-6.214 4.602 1.508-.832 3.172-1.118l.728-1.456 2.886-.39-.078-.702h.988q1.092.9 2.229.9.243 0 .489-.042 1.39-.234 1.82-.95.429-.714-.455-1.3-.585-.386-1.398-.386zM211.339 0q.948 0 1.488.658.664.806 1.236 4.238l.91 5.954q.442.468.676.52h.312q.026-.65.494-1.196.416-3.978-.364-6.968l.312-.598q1.118 3.38.546 7.592h.078q1.794-4.03.52-7.592l.312-.468q1.664 3.796-.364 8.242.572 1.248.117 2.054-.455.806-.56 1.508l-.181.13q-.702-1.04-.806-1.794h-.26q-.026.598-.338 1.248l-.182 1.638.442 1.274h2.262v.624h-6.527v-.624h.546l-.416-1.274-.026-.962q-.468-.156-.702-.364-.338.312-.754.312.026.26-.104.442-1.04.806-3.718 1.404l-.91 1.768q0-.434-.269-.434-.086 0-.199.044l.728-1.3q-1.508.338-2.288.858-.416.442.052 1.066-1.04-.442-1.17-1.248.416-3.926 7.046-5.46l.468.78h.416q.338-1.092 2.678-1.508-.522-.388-1.284-.388-.414 0-.9.115-.492.116-.96.116-.845 0-1.614-.376-1.196-.585-6.084-6.461.901-1.136 1.905-1.136.33 0 .67.122l6.317 4.524V.034q.235-.034.45-.034z"/><path d="M83.646 0l-1.143 1.144v.707L84.177.177 84.354 0zm3 0l-4.143 4.144v.707L87.177.177 87.354 0zm3 0l-7.143 7.144v.707L90.177.177 90.354 0zm3 0L82.503 10.144v.707L93.177.177 93.354 0zm3 0L82.503 13.144v.707L96.177.177 96.354 0zm3 0L82.503 16.144v.707L99.177.177 99.354 0zm3 0L83.823 17.823l-.177.177h.708L102.177.177l.177-.177zm3 0L86.823 17.823l-.177.177h.708L105.177.177l.177-.177zm3 0L89.823 17.823l-.177.177h.708L108.177.177l.177-.177zm3 0L92.823 17.823l-.177.177h.708L111.177.177l.177-.177zm3 0L95.823 17.823l-.177.177h.708L114.177.177l.177-.177zm3 0L98.823 17.823l-.177.177h.708L117.177.177l.177-.177zm3 0l-17.823 17.823-.177.177h.708L120.177.177l.177-.177zm3 0l-17.823 17.823-.177.177h.708L123.177.177l.177-.177zm3 0l-17.823 17.823-.177.177h.708L126.177.177l.177-.177zm3 0l-17.823 17.823-.177.177h.708L129.177.177l.177-.177zm3 0l-17.823 17.823-.177.177h.708L132.177.177l.177-.177zm3 0l-17.823 17.823-.177.177h.708L135.177.177l.177-.177zm3 0l-17.823 17.823-.177.177h.708L138.177.177l.177-.177zm3 0l-17.823 17.823-.177.177h.708L141.177.177l.177-.177zm3 0l-17.823 17.823-.177.177h.708L144.177.177l.177-.177zm3 0l-17.823 17.823-.177.177h.708L147.177.177l.177-.177zm3 0l-17.823 17.823-.177.177h.708L150.177.177l.177-.177zm3 0l-17.823 17.823-.177.177h.708L153.177.177l.177-.177zm3 0l-17.823 17.823-.177.177h.708L156.177.177l.177-.177zm3 0l-17.823 17.823-.177.177h.708L159.177.177l.177-.177zm3 0l-17.823 17.823-.177.177h.708L162.177.177l.177-.177zm3 0l-17.823 17.823-.177.177h.708L165.177.177l.177-.177zm3 0l-17.823 17.823-.177.177h.708L168.177.177l.177-.177zm3 0l-17.823 17.823-.177.177h.708L171.177.177l.177-.177zm3 0l-17.823 17.823-.177.177h.708L174.177.177l.177-.177zm3 0l-17.823 17.823-.177.177h.708L177.177.177l.177-.177zm3 0l-17.823 17.823-.177.177h.708L180.177.177l.177-.177zm3 0l-17.823 17.823-.177.177h.708L183.177.177l.177-.177zm3 0l-17.823 17.823-.177.177h.708L186.177.177l.177-.177zm3 0l-17.823 17.823-.177.177h.708L189.177.177l.177-.177zm3 0l-17.823 17.823-.177.177h.708L192.177.177l.177-.177zm3 0l-17.823 17.823-.177.177h.708L195.177.177l.177-.177zm3 0l-17.823 17.823-.177.177h.708L198.177.177l.177-.177zm3 0l-17.823 17.823-.177.177h.708L201.177.177l.177-.177zm3 0l-17.823 17.823-.177.177h.708L204.177.177l.177-.177zm3 0l-17.823 17.823-.177.177h.708L207.177.177l.177-.177zm3 0l-17.823 17.823-.177.177h.708L210.177.177l.177-.177zm3 0l-17.823 17.823-.177.177h.708L213.177.177l.177-.177zm3 0l-17.823 17.823-.177.177h.708L216.177.177l.177-.177zm2.962.038l-17.785 17.785-.177.177h.708L218.608.746V.038zm0 3l-14.785 14.785-.177.177h.708l14.254-14.254v-.708zm0 3l-11.785 11.785-.177.177h.708l11.254-11.254v-.708zm0 3l-8.785 8.785-.177.177h.708l8.254-8.254v-.708zm0 3l-5.785 5.785-.177.177h.708l5.254-5.254v-.708zm0 3l-2.785 2.785-.177.177h.708l2.254-2.254v-.708z"/><path d="M218.646 0l-.038.038v.708l.569-.57.177-.176zm2.068.932l-2.106 2.106v.708l2.106-2.107V.932zm0 3l-2.106 2.106v.708l2.106-2.107v-.707zm0 3l-2.106 2.106v.708l2.106-2.107v-.707zm0 3l-2.106 2.106v.708l2.106-2.107v-.707zm0 3l-2.106 2.106v.708l2.106-2.107v-.707zm0 3l-1.89 1.891-.178.177h.708l1.36-1.36v-.708zM55.069 7.458v1.656c.565 0 .848-.283.848-.848 0-.539-.283-.808-.848-.808zM52.974 0c.463 0 .855.116 1.176.35.612.443.919 1.09.919 1.938v4.584c.942 0 1.42.465 1.434 1.394 0 .942-.478 1.413-1.434 1.413V18h-.747V2.732c0-1.023-.198-1.68-.595-1.969-.206-.15-.476-.225-.839-.225-.337 0-.754.065-1.273.195a.65.65 0 0 1-.212.043c-.111 0-.188-.048-.232-.144-.014-.162.108-.276.363-.343C52.073.096 52.553 0 52.974 0zm-8.169.601c-1.074 0-2.418.552-3.069 1.202-.57.57-.644 1.324-.664 2.025h7.435c-.021-.7-.096-1.455-.665-2.025-.65-.65-1.963-1.202-3.037-1.202zm0-.601c1.274 0 2.645.589 3.448 1.392.825.824.918 1.91.918 2.72v.317h-8.732v-.316c0-.812.062-1.897.886-2.72C42.128.588 43.53 0 44.805 0zm1.187 9.627c5.438 1.9 2.903 9.54-2.195 8.228-5.054-1.302-4.046-9.318 2.195-8.228m-.243.698c-5.418-.787-5.64 5.768-1.708 6.812 3.846 1.022 6.482-5.13 1.708-6.812m-1.189 1.152c-1.082-.74.885-.487 0-.018v.018m1.986.433c-1.228-.397.343-.795 0-.073v.073m-2.993-.712v.732l-.731-.244.73-.488m3.572 2.066c-.904-.795.595-.885.108-.09l-.108.09m-2.84-.846l.245.731-.732-.487.488-.244m1.052.358l.072-.017c.668-.489 1.39 1.767-.072.017m-3.014-.397c.956.56-.162.703-.253.703l.253-.703m2.938 1.502l-.244.244-.488-.732.732.488m-1.675-.474l.469.019c-.559.866-.757.793-.469-.019m3.681 1.517c-.883-.74.434-.632.416-.488l-.416.488m-1.01-.903l-.22.305c-.719-.215-.34-.792.22-.305m-3.435.836l-.244.244-.488-.732.732.488m1.323.012c.758-.378.92-.27.47.344l-.47-.344m2.579.72l-.244.731-.488-.732h.732m-3.246-.465l.45.54c-.107.217-1.1.145-.45-.54m1.539.71l.244.731h-.732l.488-.732zM35.47 0c1.084 0 2.168.639 2.666 1.903.433 1.098.281 3.186.281 4.414h-.735c0-.962.111-2.825-.16-3.677C37.175 1.542 36.319.966 35.46.966c-.77 0-1.54.464-1.943 1.432-.377.9-.247 2.884-.247 3.919h-.735c0-1.229-.152-3.315.28-4.414C33.318.63 34.394 0 35.47 0zm-8.513 0c1.084 0 2.168.639 2.666 1.903.433 1.098.281 3.186.281 4.414h-.736c0-.962.112-2.825-.158-3.677-.35-1.098-1.206-1.674-2.063-1.674-.77 0-1.54.464-1.943 1.432-.377.9-.248 2.884-.248 3.919h-.734c0-1.229-.152-3.315.28-4.414C24.805.63 25.88 0 26.958 0zm8.513 11.683c1.084 0 2.168.639 2.666 1.904.433 1.098.281 3.186.281 4.413h-.735c0-.962.111-2.825-.16-3.676-.348-1.098-1.204-1.675-2.062-1.675-.77 0-1.54.464-1.943 1.432-.377.9-.247 2.884-.247 3.919h-.735c0-1.228-.152-3.314.28-4.413.502-1.273 1.578-1.904 2.655-1.904zm-8.513 0c1.084 0 2.168.639 2.666 1.904.433 1.098.281 3.186.281 4.413h-.736c0-.962.112-2.825-.158-3.676-.349-1.098-1.206-1.675-2.063-1.675-.77 0-1.54.464-1.943 1.432-.377.9-.248 2.884-.248 3.919h-.734c0-1.228-.152-3.314.28-4.413.502-1.273 1.578-1.904 2.655-1.904zM0 0v.354L.177.177.354 0zm2.646 0L0 2.646v.708L3.177.177 3.354 0zm3 0L0 5.646v.708L6.177.177 6.354 0zm3 0L0 8.646v.708L9.177.177 9.354 0zm3 0L0 11.646v.708L12.177.177 12.354 0zm3 0L0 14.646v.708L15.177.177 15.354 0zm3 0L0 17.646V18h.354L18.177.177 18.354 0zm3 0L2.823 17.823 2.646 18h.708L21.177.177 21.354 0zM22 1.646L5.823 17.823 5.646 18h.708L22 2.354v-.708zm0 3L8.823 17.823 8.646 18h.708L22 5.354v-.708zm0 3L11.823 17.823l-.177.177h.708L22 8.354v-.708zm0 3l-7.177 7.177-.177.177h.708L22 11.354v-.708zm0 3l-4.177 4.177-.177.177h.708L22 14.354v-.708zm0 3l-1.177 1.177-.177.177h.708l.646-.646v-.708z"/></svg>