<svg xmlns="http://www.w3.org/2000/svg" width="201.956" height="18"><path d="M200.31 0c.335 0 .67.026.994.066.447.113.217.626-.18.626a.476.476 0 0 1-.082-.008c-.839.097-1.872.15-2.506.626-.84.916-.463 2.821-.56 3.725-.008.05-.01 3.653-.01 5.48a6.145 6.145 0 0 1 2.634-.586c.402 0 .801.04 1.188.117.44.231-.077.528-.423.528a.454.454 0 0 1-.114-.013c-1.226.133-2.62.461-3.243 1.602-.062.206-.023.277.07.277.207 0 .68-.342.947-.342.014 0 .027 0 .04.003a7.535 7.535 0 0 1 1.58-.169c.39 0 .776.031 1.149.095.42.278-.096.534-.438.534a.532.532 0 0 1-.105-.01c-1.252.151-2.637.49-3.243 1.633-.007 1.27 0 2.11-.034 3.278.015.36-.219.538-.456.538-.235 0-.473-.176-.474-.526.008-1.15.09-2.161-.06-3.277-.305-1.253-2.478-1.445-3.827-1.754-.295-.347.285-.475.658-.475.056 0 .107.003.15.008.173-.013.347-.02.522-.02.882 0 1.77.175 2.557.58.032-.755-.712-1.19-1.244-1.493-.84-.361-1.766-.397-2.643-.59-.314-.273.18-.501.52-.501a.58.58 0 0 1 .126.012c.215-.02.431-.031.648-.031.902 0 1.804.183 2.614.582-.017-2.851-.063-5.61.019-8.308.066-.834.546-1.6 1.354-1.849.58-.264 1.227-.358 1.871-.358zm-23.995 2.99q-.557 0-1.087.606 4.368 5.2 5.46 5.81.815.457 1.434.457.211 0 .4-.053.74-.208 1.585-.234h.043q.828 0 1.816.988h.13q-.702-1.638-1.963-2.34-1.26-.702-7.397-5.148-.213-.085-.421-.085zm7.73-2.369q-.065 0-.133.01v6.683q2.054 1.196 2.834 3.354-1.196-8.268-1.677-9.204-.433-.843-1.023-.843zm5.356 10.468q.08 0 .153.138.13.247-.234.689-.208-.546-.052-.741.07-.086.133-.086zm-.036-.372q-.153 0-.33.237-.39.52.233 2.08.703-1.352.43-1.976-.15-.34-.333-.34zm-6.805 2.577v.39q.286-.026.442-.182-.052-.078-.208-.208zm-.598.884l-2.418.338-.494.884q.832-.234 1.833-.624t1.08-.598zm5.33-.364l-.468.234-.156 1.118.416 1.274h.65l-.442-1.274v-1.352zm-1.118.39l-.442.13-.156.832.416 1.274h.65l-.442-1.274-.026-.962zm-1.534.156l-.156.806.416 1.274h.65l-.442-1.274v-.78l-.468-.026zm.995-3.234q-.416 0-.89.1-1.405.3-1.769 1.418h-1.092l-.416-.676q-5.512 1.274-6.214 4.602 1.508-.832 3.172-1.118l.728-1.456 2.886-.39-.078-.702h.988q1.092.9 2.228.9.244 0 .49-.042 1.39-.234 1.82-.95.428-.714-.456-1.3-.585-.386-1.397-.386zM183.789 0q.948 0 1.488.658.663.806 1.235 4.238l.91 5.954q.442.468.676.52h.312q.026-.65.494-1.196.416-3.978-.364-6.968l.312-.598q1.119 3.38.546 7.592h.078q1.795-4.03.52-7.592l.313-.468q1.664 3.796-.364 8.242.572 1.248.117 2.054-.456.806-.56 1.508l-.182.13q-.702-1.04-.806-1.794h-.26q-.026.598-.338 1.248l-.182 1.638.442 1.274h2.263v.624h-6.527v-.624h.546l-.416-1.274-.026-.962q-.468-.156-.702-.364-.338.312-.754.312.026.26-.104.442-1.04.806-3.718 1.404l-.91 1.768q0-.434-.27-.434-.085 0-.198.044l.728-1.3q-1.508.338-2.288.858-.416.442.052 1.066-1.04-.442-1.17-1.248.416-3.926 7.046-5.46l.468.78h.416q.338-1.092 2.678-1.508-.522-.388-1.284-.388-.414 0-.9.115-.492.116-.96.116-.845 0-1.614-.376-1.196-.585-6.084-6.461.901-1.136 1.905-1.136.33 0 .67.122l6.317 4.524V.034q.235-.034.449-.034z"/><path d="M164.948.375c9.625 0 9.625 17.25 0 17.25" fill="none" stroke="#000"/><path d="M158.726 7.938c.682.054 1.058.394 1.13 1.022-.09.68-.466 1.04-1.13 1.075-.663-.036-1.012-.394-1.048-1.075.054-.628.403-.968 1.048-1.022zm-.08-2.259c-.484 0-.932.09-1.345.27a3.545 3.545 0 0 0-1.828 1.815 3.11 3.11 0 0 0-.269 1.276c0 .466.09.901.269 1.304a3.422 3.422 0 0 0 3.173 2.03c.484 0 .936-.085 1.358-.255.421-.17.784-.408 1.089-.712.304-.305.546-.66.726-1.063.179-.403.269-.838.269-1.304 0-.448-.09-.874-.27-1.277a3.67 3.67 0 0 0-.725-1.075 3.302 3.302 0 0 0-1.09-.74 3.431 3.431 0 0 0-1.357-.269zm.054-.914a4.17 4.17 0 0 1 1.667.336c.52.224.968.529 1.344.914.377.386.677.834.901 1.345.224.51.336 1.062.336 1.653 0 .592-.112 1.143-.336 1.654a4.31 4.31 0 0 1-.9 1.331 4.267 4.267 0 0 1-3.012 1.237 4.071 4.071 0 0 1-1.654-.336 4.48 4.48 0 0 1-1.345-.9 4.195 4.195 0 0 1-.914-1.332 4.071 4.071 0 0 1-.336-1.654c0-.591.112-1.142.336-1.653a4.358 4.358 0 0 1 2.259-2.259 4.071 4.071 0 0 1 1.654-.336zm-8.446-3.475l-4.85.271c-.086.939-.043 1.988.127 3.146 1.81-1 3.385-2.139 4.723-3.417zM144.991 0c.27 0 .548.175.835.524l5.242-.27c1.24.32 1.492.816.759 1.489a1.807 1.807 0 0 0-.38-.047c-.273 0-.45.094-.531.282-.114.264-.422.609-.924 1.034-.502.426-1.863 1.304-4.082 2.636-.262.657-.551.986-.869.986-.148 0-.302-.072-.462-.216-3.155 1.36-6.202 2.312-9.142 2.853l-.415-.325 1.013-1.077c2.158-.187 4.969-1.026 8.431-2.517a8.956 8.956 0 0 0 .06-3.67l-5.87.393c-.871-.218-.936-.67-.194-1.354L144.24.48c.242-.32.492-.48.75-.48zm-1.362 14.1q-3.108 0-6.591 1.501 3.483 1.46 6.59 1.46 3.088 0 6.591-1.46-3.503-1.501-6.59-1.501zm0-.96q3.837 0 8.822 2.44Q147.466 18 143.63 18q-3.838 0-8.823-2.42 4.964-2.44 8.823-2.44zM130.087.517c.142 0 .49.168.163.17-.053 0-.17.016-.258.016-.104 0-.164-.023-.02-.122.034-.024.066-.062.11-.063h.005zm-.055-.112h-.012c-.251.059-.45.27-.711.344-.22.06-.582.143-.506.465.1.43.39.846.299 1.295-.057.282-.37.307-.624.307l-.12-.001c-1.657-.013-2.973-.083-4.028-.083-1.73 0-2.761.187-3.451 1.12-1.145 1.549-.753 3.097-.468 5.051-.08-1.153-.462-2.97.723-4.538.5-.663 1.35-.942 2.131-1.139.359-.09.838-.122 1.366-.122 1.221 0 2.704.169 3.567.169.205 0 .375-.01.499-.034.332-.063.57-.473.54-.812-.039-.45-.394-.869-.26-1.324.059-.202.235-.247.427-.247.137 0 .283.023.399.029.125.006.248.024.368.024a.65.65 0 0 0 .46-.161c.282-.248-.486-.343-.599-.343zM129.994 0h.026c.366.018.733.13 1.05.315.33.192.064.564-.16.728-.205.152-.436.293-.695.293a.709.709 0 0 1-.153-.017c-.133-.029-.366-.084-.526-.084-.093 0-.162.02-.169.074-.058.448.42.992.227 1.51-.158.424-.52.81-1.003.845a8.814 8.814 0 0 1-.635.021c-1.114 0-2.222-.18-3.336-.199h-.106c-2.135 0-3.209 1.114-3.453 1.806-.237.671-.408 1.374-.348 2.088.072.859.198 1.726.128 2.586-.062.758-.326 1.493-.505 2.229-.043.172-.164.258-.278.258-.125 0-.24-.103-.232-.308.038-.948.256-1.758.23-2.632-.02-.751-.213-1.474-.258-2.228-.051-.873-.294-3.816 2.09-4.673.685-.246 1.555-.313 2.477-.313 1.091 0 2.256.094 3.275.094.381 0 .742-.013 1.072-.05-.132-.467-.383-.875-.324-1.362.046-.386.467-.53.788-.617.299-.082.502-.364.818-.364zm1.477 15.348q-.645 0-1.462.918-.632.703-1.71.703-.397 0-.854-.095-1.707-.353-2.864-.373-.165-.003-.324-.003-.952 0-1.704.134-.876.15-1.576.608-.7.465-1.334.465.128.007.254.007.84 0 1.597-.34.566-.254 1.865-.254.683 0 1.568.07 1.594.126 2.622.126.63 0 1.047-.047 1.099-.125 1.635-.89.442-.63.688-.63.053 0 .097.029.255.17.673.176h.02q.4 0 .47-.255.014-.3-.647-.347l-.06-.002zm-.94-1.528q.51 0 .799 1.158.063-.008.13-.008.11 0 .23.02.405-1.039.908-1.039.177 0 .203.124.026.118-.072.249-.464.366-.621.765.477.235.477.608-.046.563-.621.621-.162.017-.3.017-.353 0-.55-.108-.077-.042-.15-.042-.185 0-.34.277-.223.393-.844.844-.565.416-2.335.416-.177 0-.366-.004-2.106-.013-3.31-.111-.322-.028-.617-.028-.812 0-1.416.21-.589.211-2.118.211-.612 0-1.374-.034-.033 0-.06-.13 0-.393.838-.393 1.144-.039 1.491-.327.347-.294 1.158-.673.817-.386 2.42-.386 1.601 0 3.262.386.516.117.943.117.95 0 1.464-.582.746-.843 1.131-.915 0-.275-.28-.602-.282-.32-.262-.484.013-.157.183-.157zm-20.637-5.462c-1.36 1.528-2.486 3.271-3.489 5.042-.21.26.027.498.2.745.662-2.1 2.183-3.719 3.289-5.787zm1.316-7.71c-.114.528.095 1.139.496 1.319l-.128.273c-.501-.238-.983-.95-1.054-1.591-.684.04-.871.556-.979 1.154-.128.408.002 1.4-.515 1.571-1.53.592-2.699 1.277-3.748 2.312-1.81 2.264-3.702 4.457-5.513 6.724-.703.882-1.346 1.69-1.869 2.3 2.75-2.056 5.822-3.628 8.836-5.262 1.602-.87 3.13-1.582 3.13-3.498 0-1.03-1.899-1.894-1.82-2.028.006-.011.028-.017.063-.017.39 0 2.385.74 2.385 2.3 0 .432-.116.833-.317 1.207h.01c2.188-1.16 1.84-3.506 1.755-5.574.91-.05 1.659-.547 2.523-.753-.67-.087-1.338-.199-2.01-.268a.533.533 0 0 1 .318.2c.011.221-.238.318-.481.318-.237 0-.469-.092-.446-.252a.61.61 0 0 1 .52-.276c-.334-.047-.779-.118-1.156-.16zm-3.823 13.303c-.196.476-.298.98-.408 1.48-.32-.257-.628-.523-.89-.838.17.926.488 1.86 1.26 1.86.467 0 .683-.315.383-1.271-.14-.45-.253-.882-.345-1.231zm.838-4.584c-3.12 1.662-6.21 3.34-9.162 5.292-.695.563-1.315 1.191-1.734 1.778.278.432.807.58 1.297.613 2.498-.087 3.476-2.495 4.796-4.216l.718-.872-.124 1.117c-.009.202-.215 1.153.092 1.153a.228.228 0 0 0 .09-.021l1.263-1.512c.135.09.262.19.401.273.627-1.267 1.543-2.447 2.363-3.605zM110.918 0c.656 0 1.328.118 1.965.177.76.37 1.53.088 2.327.378.575.258.737.782.975 1.306a2.939 2.939 0 0 0-.939-.16c-.928 0-1.676.468-2.657.717.001.493.079 1.052.115 1.615.152 1.526-.652 2.865-1.814 3.818-.833 1.855-1.985 3.277-2.826 4.724.1.65.705 3.103 1.003 3.983a11.14 11.14 0 0 0 1.821.154 9.337 9.337 0 0 0 .79-.032c.473 0 .993.808 1.502 1.24l-10.36.08c.264-.934 2.105-1.43 2.76-1.43.037 0 .07.002.1.005-.231-.66-.52-1.281-.601-2.204-.29.259-.614.539-1.019.568-.494-.037-.695-.375-.758-.816-1.121 1.854-2.375 3.368-4.675 3.591-.795-.039-1.785-.386-2-1.231-1.054-.06-.28-1.087.11-1.489 2.87-3.105 5.237-6.65 8.072-9.778 1.091-1.077 2.324-1.805 3.85-2.41.114-.278.151-.675.225-1.112.08-.477.335-1.257.8-1.5A3.556 3.556 0 0 1 110.918 0zM91.682 1.567q.375 0 .375.316t-.328.316q-.374 0-.374-.293-.012-.339.327-.339zM83.52.444q.012.375.55.638.266.13.114.13-.154 0-.746-.136.351.269.62.433 1.696.48 3.216 2.198Q86.197 1.824 83.52.444zm-1.263.83q.094.363.632.498.458.114-.246.114-.123 0-.28-.003.701.398.87.41.17.01.012.087-.157.076-.719.076.48.304.801.322.322.017.135.093t-.69.076q.25.233.61.233.11 0 .232-.022l-.538.28q.257.094.48.129.596.023 0 .304.124.078.3.078.09 0 .19-.02.655.75 3.357 2.211l-.246.175-.596-.163q-.468.783-1.333 1.462-.936.128-.948.97.01.398.486.398.084 0 .181-.012.04.006.078.006.335 0 .577-.462.312-.532.82-.532h.01q.515.006.842.17l.878-.328q1.24-1.532 1.806-2.181.568-.65.825-1.684.257-1.035.766-1.316.509-.28 1.222-.807l-.117-.199q-.525-.206-.914-.206-.891 0-1.062 1.083-.246 1.556-.527 2.123-.28.567-1.116.65-.044.003-.088.003-.815 0-2.035-1.419-1.287-1.497-2.86-1.988-1.573-.491-1.795-.608zM83.332 0q2.959 1.474 3.877 2.982.918 1.509 1.386 1.708.23.098.462.098.24 0 .48-.104.473-.205.643-1.345.17-1.14.403-1.596.234-.457.883-.614.177-.043.362-.043.491 0 1.036.306.55-.21 1.017-.21.34.163.14.28-1.38.889-2.034 1.327-.655.439-.919 1.55-.263 1.11-1.292 2.07-1.076 1.146-1.064 1.906.093.468.626 1.111.532.644.625 1.275.012.34-.128.503-.2-.082-.234-.257.058-.363-.018-.497-.076-.135-.17-.322-.14.363-.116.772-.281-.21-.258-.456l.082-.679q-.643-.631-.924-1.31-.28.06-.397.223.082.526.508 1 .427.473.591 1.023-.035.737-.175.772-.2-.257-.135-.421.064-.164.006-.298-.059-.135-.14-.275-.164.164-.164.76-.21-.152-.257-.398.163-.526.046-.807-.62-.631-.924-1.508-.269-.117-.567-.176-.053-.01-.106-.01-.242 0-.473.22-.243.795-1.038.795-.234 0-.517-.069-.166.277-.602.277-.116 0-.252-.02-.023-.608.386-.818-.113-1.359.968-1.359l.073.002q1.04-.947 1.286-1.427-1.684-.912-2.502-1.766-.028.005-.058.005-.241 0-.667-.332l.28-.14q-.327-.047-.737-.387l.375-.058q-.246-.023-.632-.456l.433-.024q-.41-.117-.643-.502l.596-.012q-.643-.187-.737-.55l.246-.035q-.351-.199-.304-.795l1.567.514q-.34-.21-.34-.584l.246.023q-.292-.28-.105-.842zm8.598 13.207h.015c.078 0 .17.034.194.115.021.08-.054.146-.124.164a.266.266 0 0 1-.087.015.19.19 0 0 1-.164-.078c-.037-.05-.042-.136.019-.17.04-.037.095-.046.148-.046zm-1.81.978l-.006.003-.004.003a1.1 1.1 0 0 1-.288.135c-.69.239-1.427.347-2.09.665-.424.191-.845.386-1.267.581.38.02.762.038 1.143.038a9.3 9.3 0 0 0 .588-.017c.462-.035.926-.1 1.363-.253.202-.07.372-.204.554-.31a.379.379 0 0 0 .182-.317c-.001-.19-.09-.364-.176-.528zm1.568-1.02l-.007.001c-.282.025-.516.2-.737.361-.204.142-.382.316-.574.474.146.18.283.388.295.629.017.197-.03.4-.143.562-.174.258-.457.415-.74.527-.515.195-1.066.272-1.613.308a14.96 14.96 0 0 1-.82.021 27.836 27.836 0 0 1-1.778-.063c-.017.012-.112.04-.06.04h.003c.81.055 1.622.135 2.434.135.245 0 .489-.007.733-.024.824-.08 1.647-.309 2.34-.772.248-.166.477-.36.673-.585.196-.231.336-.505.497-.761.158-.237.342-.465.585-.618a3.868 3.868 0 0 0-1.088-.234zM83.682 15.8h-.005c-.21.01-.439.001-.624.118a.22.22 0 0 0-.107.129c-.063.166-.035.385.118.494a.066.066 0 0 0 .044.015c.027 0 .056-.01.082-.013.171-.04.326-.133.492-.19.335-.142.668-.288 1-.438-.335-.03-.668-.07-1-.115zm5.165.754l-.021.002a9.22 9.22 0 0 1-1.06.036c-.014.033-.07.064-.05.098l.49.858c.462-.004.923-.006 1.383-.007-.24-.258-.485-.514-.724-.775a.213.213 0 0 1-.018-.212zm2.789-3.82h.021c.296.014.583.093.865.177.35.11.7.236 1.02.414.085.053.182.102.232.19a.122.122 0 0 1-.087.162.39.39 0 0 1-.089.01c-.091 0-.183-.025-.274-.025a.379.379 0 0 0-.103.013c-.214.049-.38.211-.511.379-.205.252-.34.552-.53.816a3.256 3.256 0 0 1-.5.54c-.597.522-1.344.847-2.113 1.022-.068.075-.142.145-.215.216l.838.893c.42.004.84-.002 1.26.025.1.012.195.087.207.19.019.126-.094.245-.218.245a.19.19 0 0 1-.032-.003c-.451-.019-.903-.015-1.355-.02h-2.006c-.093-.01-.16-.087-.196-.167-.203-.357-.41-.712-.61-1.07a.205.205 0 0 1 .004-.166c-.805-.04-1.608-.112-2.413-.164-.046 0-.094-.009-.14-.009a.228.228 0 0 0-.045.004c-.48.207-.952.441-1.455.589a.502.502 0 0 1-.062.004.632.632 0 0 1-.485-.257.802.802 0 0 1-.173-.512c-.003-.228.074-.468.253-.616-.138-.043-.285-.08-.4-.171-.03-.026-.066-.068-.05-.11.039-.034.098-.026.145-.033h.104c.316 0 .631.029.946.05.697.053 1.393.114 2.09.165.758-.35 1.515-.708 2.28-1.04.626-.257 1.302-.36 1.935-.591.376-.22.67-.552 1.027-.799.244-.18.522-.35.835-.35z"/><path d="M72.27.375v17.25M79.958.375c-9.625 0-9.625 17.25 0 17.25m0 0" fill="none" stroke="#000"/><path d="M64.301.597a2.12 2.12 0 0 0-.692.109c.031.223.169.569.953.773-.73-.053-1.206-.113-1.452-.307-.09.2-.137.427-.159.556a.297.297 0 0 1-.206.237c-.624.191-1.173 1.112-1.7 1.763-.95 1.173-1.771 2.48-2.688 3.733l1.27-.622c1.182-.622 2.395-1.11 3.407-1.877.589-.49 1.172-.996 1.39-1.641.076-.497-.296-1.074-.767-1.279a.297.297 0 1 1 .238-.545c.377.164.7.458.904.817a1.986 1.986 0 0 0-.075-.448.297.297 0 0 1-.012-.104c.01-.184.041-.313.082-.422.04-.109.084-.206.157-.459a.297.297 0 0 1 .105-.153 1.546 1.546 0 0 0-.527-.125C64.486.6 64.445.6 64.404.599A.258.258 0 1 1 64.3.597zm-1.193 5.432c-.606.466-1.253.873-1.888 1.28a13 13 0 0 1-.047 1.321c.206-.135.434-.236.697-.3.39-.636.82-1.22 1.082-1.842.054-.129.105-.29.156-.46zm.248 1c-.273.549-.621 1.04-.928 1.529.059.04.112.08.155.121l.027.027a1.72 1.72 0 0 1 .613-.454c-.01-.348.047-.768.133-1.222zm-2.88.047a25.922 25.922 0 0 0-.588.297c-.78.38-1.56.772-2.349 1.148-.556.67-1.157 1.293-1.735 1.92l1.044.175L59.41 7.83a.297.297 0 0 1 .04-.036 18.5 18.5 0 0 1 1.026-.718zm2.592 2.009c-.058.066-.112.14-.162.222a.298.298 0 0 1-.43.087c-.124-.09-.2-.177-.265-.244l-.077 1.413c.1-.006.201-.013.296-.013.167 0 .313.022.398.108.1-.078.28-.1.504-.1.058 0 .118.002.18.005l-.444-1.478zm5.418.999c-.451.062-.686.323-.704.783h1.395c0-.46-.23-.721-.69-.783zm-7.86-2.39a16.38 16.38 0 0 0-.798.56l-2.403 2.613h2.456c.171-.19.519-.365.776-.365.074 0 .14.014.192.046.082-.007.168-.01.256-.01.14 0 .286.007.434.016l.082-1.506c-.224.115-.407.282-.625.542a.297.297 0 0 1-.52-.246c.1-.544.142-1.093.15-1.65zm6.24 3.745l.266.465h1.248l.252-.465zm-4.516 0v2.51l1.727-2.51zM64.294 0a3.878 3.878 0 0 1 .272.01c.695.044 1.215.325 1.408.768a.298.298 0 0 1-.34.408l-.025-.006-.03.007-.108.029c-.055.168-.096.269-.12.332a.541.541 0 0 0-.042.2c.154.552.094 1.107.036 1.389-.095.466-.384.977-.761 1.46a.295.295 0 0 1-.014.108 21.24 21.24 0 0 0-.548 2.027c-.152.708-.233 1.387-.192 1.684a.297.297 0 0 1-.223.33l-.019.005.527 1.75c.086-.013.173-.018.26-.018.256 0 .509.041.712.041a.865.865 0 0 0 .183-.016.314.314 0 0 1 .068-.007c.212 0 .657.13.787.366h1.1c.062-.797.482-1.235 1.261-1.315.788.08 1.196.518 1.222 1.315v.572h-.531l-.545 1.01h-1.766l-.531-1.01h-1.568l-2.404 3.493V18h-.571v-6.561h-4.516v-.41l-.1.109a.297.297 0 0 1-.268.092l-1.74-.292a.298.298 0 0 1-.173-.492c.217-.242.437-.48.657-.716l-1.657 1.078a.296.296 0 0 1-.411-.087.297.297 0 0 1 .087-.411l1.344-.876a.292.292 0 0 1-.076-.09.315.315 0 0 1-.02-.237.305.305 0 0 1 .048-.093c.055-.076.084-.088.124-.119.039-.03.083-.06.13-.094.096-.065.206-.137.301-.2a4.156 4.156 0 0 0 .217-.156l2.378-1.672.008-.005c.806-1.13 1.568-2.316 2.457-3.414.433-.535.938-1.524 1.812-1.894.048-.262.157-.68.484-.997C63.23.119 63.74 0 64.294 0zM50.106 7.458v1.656c.566 0 .848-.283.848-.848 0-.539-.282-.808-.848-.808zM48.011 0c.463 0 .855.116 1.176.35.613.443.919 1.09.919 1.938v4.584c.943 0 1.42.465 1.434 1.394 0 .942-.478 1.413-1.434 1.413V18h-.746V2.732c0-1.023-.199-1.68-.596-1.969-.206-.15-.476-.225-.838-.225-.337 0-.754.065-1.273.195a.65.65 0 0 1-.213.043c-.11 0-.188-.048-.232-.144-.013-.162.108-.276.364-.343C47.11.096 47.59 0 48.012 0zm-8.169.601c-1.074 0-2.418.552-3.069 1.202-.569.57-.643 1.324-.664 2.025h7.435c-.021-.7-.095-1.455-.664-2.025-.651-.65-1.964-1.202-3.038-1.202zm0-.601c1.274 0 2.645.589 3.449 1.392.824.824.917 1.91.917 2.72v.317h-8.732v-.316c0-.812.062-1.897.886-2.72C37.166.588 38.568 0 39.842 0zm1.187 9.627c5.438 1.9 2.904 9.54-2.195 8.228-5.054-1.302-4.045-9.318 2.195-8.228m-.243.698c-5.417-.787-5.639 5.768-1.708 6.812 3.846 1.022 6.482-5.13 1.708-6.812m-1.189 1.152c-1.082-.74.885-.487 0-.018v.018m1.986.433c-1.227-.397.343-.795 0-.073v.073m-2.993-.712v.732l-.73-.244.73-.488m3.571 2.066c-.903-.795.595-.885.108-.09l-.108.09m-2.839-.846l.244.731-.732-.487.488-.244m1.052.358l.072-.017c.668-.489 1.39 1.767-.072.017m-3.014-.397c.957.56-.162.703-.253.703l.253-.703m2.938 1.502l-.244.244-.488-.732.732.488m-1.674-.474l.468.019c-.559.866-.757.793-.468-.019m3.68 1.517c-.883-.74.434-.632.416-.488l-.415.488m-1.01-.903l-.221.305c-.718-.215-.34-.792.22-.305m-3.435.836l-.244.244-.488-.732.732.488m1.323.012c.759-.378.92-.27.47.344l-.47-.344m2.58.72l-.245.731-.488-.732h.732m-3.246-.465l.45.54c-.107.217-1.1.145-.45-.54m1.539.71l.244.731h-.732l.488-.732zM33.476 5.325v7.35h-.735v-7.35zm-4.37 0v7.35h-.735v-7.35zm-4.37 0v7.35H24v-7.35zM2.646 0L0 2.646v.708L3.177.177 3.354 0zm3 0L0 5.646v.708L6.177.177 6.354 0zm3 0L0 8.646v.708L9.177.177 9.354 0zm3 0L0 11.646v.708L12.177.177 12.354 0zm3 0L0 14.646v.708L15.177.177 15.354 0zm3 0L0 17.646V18h.354L18.177.177 18.354 0zm3 0L2.823 17.823 2.646 18h.708L21.177.177 21.354 0zM22 1.646L5.823 17.823 5.646 18h.708L22 2.354v-.708zm0 3L8.823 17.823 8.646 18h.708L22 5.354v-.708zm0 3L11.823 17.823l-.177.177h.708L22 8.354v-.708zm0 3l-7.177 7.177-.177.177h.708L22 11.354v-.708zm0 3l-4.177 4.177-.177.177h.708L22 14.354v-.708zm0 3l-1.177 1.177-.177.177h.708l.646-.646v-.708z"/></svg>