<svg xmlns="http://www.w3.org/2000/svg" width="362.334" height="18"><path d="M341.646 0l-1.312 1.313v.707l1.843-1.843.177-.177zm3 0l-4.312 4.313v.707l4.843-4.843.177-.177zm3 0l-7.312 7.313v.707l7.843-7.843.177-.177zm3 0l-10.312 10.313v.707L351.177.177l.177-.177zm3 0l-13.312 13.313v.707L354.177.177l.177-.177zm3 0l-16.312 16.313v.707L357.177.177l.177-.177zm3 0l-17.823 17.823-.177.177h.708L360.177.177l.177-.177zm2.688.313l-17.51 17.51-.178.177h.708l16.98-16.98V.313zm0 3l-14.51 14.51-.178.177h.708l13.98-13.98v-.707zm0 3l-11.51 11.51-.178.177h.708l10.98-10.98v-.707zm0 3l-8.51 8.51-.178.177h.708l7.98-7.98v-.707zm0 3l-5.51 5.51-.178.177h.708l4.98-4.98v-.707zm0 3l-2.51 2.51-.178.177h.708l1.98-1.98v-.707z"/><path d="M362.646 0l-.312.313v.707l.843-.843.177-.177zm1.688 1.313l-2 2v.707l2-2v-.707zm0 3l-2 2v.707l2-2v-.707zm0 3l-2 2v.707l2-2v-.707zm0 3l-2 2v.707l2-2v-.707zm0 3l-2 2v.707l2-2v-.707zm0 3l-1.51 1.51-.178.177h.708l.98-.98v-.707zM317.646 0l-1.312 1.313v.707l1.843-1.843.177-.177zm3 0l-4.312 4.313v.707l4.843-4.843.177-.177zm3 0l-7.312 7.313v.707l7.843-7.843.177-.177zm3 0l-10.312 10.313v.707L327.177.177l.177-.177zm3 0l-13.312 13.313v.707L330.177.177l.177-.177zm3 0l-16.312 16.313v.707L333.177.177l.177-.177zm3 0l-17.823 17.823-.177.177h.708L336.177.177l.177-.177zm2.688.313l-17.51 17.51-.178.177h.708l16.98-16.98V.313zm0 3l-14.51 14.51-.178.177h.708l13.98-13.98v-.707zm0 3l-11.51 11.51-.178.177h.708l10.98-10.98v-.707zm0 3l-8.51 8.51-.178.177h.708l7.98-7.98v-.707zm0 3l-5.51 5.51-.178.177h.708l4.98-4.98v-.707zm0 3l-2.51 2.51-.178.177h.708l1.98-1.98v-.707z"/><path d="M338.646 0l-.312.313v.707l.843-.843.177-.177zm1.688 1.313l-2 2v.707l2-2v-.707zm0 3l-2 2v.707l2-2v-.707zm0 3l-2 2v.707l2-2v-.707zm0 3l-2 2v.707l2-2v-.707zm0 3l-2 2v.707l2-2v-.707zm0 3l-1.51 1.51-.178.177h.708l.98-.98v-.707zM293.646 0l-1.312 1.313v.707l1.843-1.843.177-.177zm3 0l-4.312 4.313v.707l4.843-4.843.177-.177zm3 0l-7.312 7.313v.707l7.843-7.843.177-.177zm3 0l-10.312 10.313v.707L303.177.177l.177-.177zm3 0l-13.312 13.313v.707L306.177.177l.177-.177zm3 0l-16.312 16.313v.707L309.177.177l.177-.177zm3 0l-17.823 17.823-.177.177h.708L312.177.177l.177-.177zm2.688.313l-17.51 17.51-.178.177h.708l16.98-16.98V.313zm0 3l-14.51 14.51-.178.177h.708l13.98-13.98v-.707zm0 3l-11.51 11.51-.178.177h.708l10.98-10.98v-.707zm0 3l-8.51 8.51-.178.177h.708l7.98-7.98v-.707zm0 3l-5.51 5.51-.178.177h.708l4.98-4.98v-.707zm0 3l-2.51 2.51-.178.177h.708l1.98-1.98v-.707z"/><path d="M314.646 0l-.312.313v.707l.843-.843.177-.177zm1.688 1.313l-2 2v.707l2-2v-.707zm0 3l-2 2v.707l2-2v-.707zm0 3l-2 2v.707l2-2v-.707zm0 3l-2 2v.707l2-2v-.707zm0 3l-2 2v.707l2-2v-.707zm0 3l-1.51 1.51-.178.177h.708l.98-.98v-.707zM288.687 0c.335 0 .67.026.994.066.448.113.218.626-.18.626a.476.476 0 0 1-.081-.008c-.84.097-1.872.15-2.506.626-.841.916-.463 2.821-.561 3.725-.007.05-.01 3.653-.01 5.48a6.145 6.145 0 0 1 2.634-.586c.402 0 .802.04 1.188.117.441.231-.077.528-.423.528a.454.454 0 0 1-.114-.013c-1.226.133-2.62.461-3.243 1.602-.061.206-.023.277.07.277.207 0 .68-.342.947-.342.014 0 .028 0 .04.003a7.535 7.535 0 0 1 1.58-.169 6.8 6.8 0 0 1 1.149.095c.42.278-.096.534-.438.534a.532.532 0 0 1-.105-.01c-1.251.151-2.636.49-3.243 1.633-.007 1.27 0 2.11-.034 3.278.015.36-.219.538-.456.538-.235 0-.473-.176-.474-.526.009-1.15.09-2.161-.06-3.277-.304-1.253-2.477-1.445-3.827-1.754-.295-.347.285-.475.658-.475.056 0 .107.003.15.008.173-.013.348-.02.522-.02.882 0 1.771.175 2.557.58.032-.755-.711-1.19-1.244-1.493-.84-.361-1.765-.397-2.643-.59-.313-.273.18-.501.521-.501a.58.58 0 0 1 .125.012 7.01 7.01 0 0 1 .648-.031c.902 0 1.804.183 2.614.582-.016-2.851-.063-5.61.02-8.308.065-.834.545-1.6 1.354-1.849.58-.264 1.227-.358 1.87-.358z"/><path d="M281.646 0l-.21.211v.707l.74-.741.178-.177zm3 0l-3.21 3.211v.707l3.74-3.741.178-.177zm3 0l-6.21 6.211v.707l6.74-6.741.178-.177zm2.688.313l-8.899 8.898v.707l8.899-8.898V.313zm0 3l-8.899 8.898v.707l8.899-8.898v-.707zm0 3l-8.899 8.898v.707l8.899-8.898v-.707zm0 3l-8.51 8.51-.178.177h.708l7.98-7.98v-.707zm0 3l-5.51 5.51-.178.177h.708l4.98-4.98v-.707zm0 3l-2.51 2.51-.178.177h.708l1.98-1.98v-.707z"/><path d="M290.646 0l-.312.313v.707l.843-.843.177-.177zm1.723 1.278l-2.035 2.035v.707l2.035-2.035v-.707zm0 3l-2.035 2.035v.707l2.035-2.035v-.707zm0 3l-2.035 2.035v.707l2.035-2.035v-.707zm0 3l-2.035 2.035v.707l2.035-2.035v-.707zm0 3l-2.035 2.035v.707l2.035-2.035v-.707zm0 3l-1.546 1.545-.177.177h.708l1.015-1.015v-.707zM264.692 2.99q-.557 0-1.087.606 4.369 5.2 5.46 5.81.815.457 1.435.457.21 0 .399-.053.74-.208 1.586-.234h.042q.828 0 1.817.988h.13q-.702-1.638-1.963-2.34-1.261-.702-7.398-5.148-.212-.085-.421-.085zm7.73-2.369q-.065 0-.132.01v6.683q2.054 1.196 2.834 3.354-1.196-8.268-1.677-9.204-.433-.843-1.024-.843zm5.356 10.468q.081 0 .154.138.13.247-.234.689-.208-.546-.052-.741.069-.086.132-.086zm-.036-.372q-.153 0-.33.237-.39.52.234 2.08.702-1.352.429-1.976-.15-.34-.333-.34zm-6.804 2.577v.39q.286-.026.442-.182-.052-.078-.208-.208zm-.598.884l-2.418.338-.494.884q.832-.234 1.833-.624 1-.39 1.079-.598zm5.33-.364l-.468.234-.156 1.118.416 1.274h.65l-.442-1.274v-1.352zm-1.118.39l-.442.13-.156.832.416 1.274h.65l-.442-1.274-.026-.962zm-1.534.156l-.156.806.416 1.274h.65l-.442-1.274v-.78l-.468-.026zm.994-3.234q-.415 0-.89.1-1.404.3-1.768 1.418h-1.092l-.416-.676q-5.513 1.274-6.215 4.602 1.508-.832 3.173-1.118l.728-1.456 2.886-.39-.078-.702h.988q1.092.9 2.228.9.243 0 .489-.042 1.39-.234 1.82-.95.429-.714-.455-1.3-.585-.386-1.398-.386zM272.166 0q.948 0 1.489.658.663.806 1.235 4.238l.91 5.954q.442.468.676.52h.312q.026-.65.494-1.196.416-3.978-.364-6.968l.312-.598q1.118 3.38.546 7.592h.078q1.794-4.03.52-7.592l.312-.468q1.664 3.796-.364 8.242.572 1.248.117 2.054-.455.806-.56 1.508l-.181.13q-.702-1.04-.806-1.794h-.26q-.026.598-.338 1.248l-.182 1.638.442 1.274h2.262v.624h-6.526v-.624h.546l-.416-1.274-.026-.962q-.468-.156-.702-.364-.338.312-.754.312.026.26-.104.442-1.04.806-3.718 1.404l-.91 1.768q0-.434-.27-.434-.086 0-.199.044l.729-1.3q-1.509.338-2.289.858-.416.442.052 1.066-1.04-.442-1.17-1.248.416-3.926 7.047-5.46l.468.78h.416q.338-1.092 2.678-1.508-.523-.388-1.285-.388-.414 0-.9.115-.492.116-.96.116-.845 0-1.613-.376-1.196-.585-6.085-6.461.901-1.136 1.905-1.136.33 0 .67.122l6.318 4.524V.034q.234-.034.448-.034z"/><path d="M253.325.375c9.625 0 9.625 17.25 0 17.25" fill="none" stroke="#000"/><path d="M249.003 0q2.322 0 2.322 2.232V18h-1.07V2.232q0-1.16-1.252-1.16-1.262 0-1.262 1.16v10.492h-1.07V2.232Q246.67 0 249.002 0zm-7.995 3.071c.27.13.6.49.1.55-.24-.01-.79-.26-.69-.49.051.05.104.067.157.067.142 0 .287-.127.433-.127zm1.97.09c.33.08.5.44.08.52l-.021.002c-.242 0-.901-.294-.359-.361.09-.06.18-.16.3-.16zm-2.63-2.51c-.591.69-1.111 1.49-1.211 2.41-.1.66-.13 1.321-.23 1.971.47-.04.33-.77.24-1.12-.08-.69.29-1.33.55-1.941.18-.33.35-.85.81-.86.51.09.84.52 1.17.89.341-.34.701-.71 1.171-.85a.236.236 0 0 1 .082-.013c.105 0 .228.046.285.046.05 0 .049-.034-.056-.164-.064-.224-.196-.29-.36-.29-.237 0-.542.141-.799.141a.561.561 0 0 1-.112-.01c-.084.004-.17.007-.254.007-.437 0-.876-.067-1.287-.218zm.16.76c-.39.1-.48.64-.671.96-.24.56-.53 1.17-.34 1.801.15.3-.04.68-.02.9.334.235.627.73 1.07.73a.631.631 0 0 0 .15-.02c.44-.09.66-.51 1-.71.247.238.393.73.798.73a.602.602 0 0 0 .183-.03c.37-.08.86-.04.97-.49.19-.46.21-.97.24-1.47a.324.324 0 0 1-.06.006c-.203 0-.22-.235-.24-.436-.077-.293-.287-.429-.52-.429a.762.762 0 0 0-.47.178c-.17.19-.69.34-.58.64.05.18.11.371.17.561l-.42.56c-.04-.29-.47-.53-.22-.82.04-.13.19-.3.17-.4-.18-.32-.42-.6-.7-.84a.322.322 0 0 0-.23-.103c-.268 0-.538.351-.77.382-.231-.25.02-.35.25-.48a.701.701 0 0 1 .486-.196c.25 0 .5.13.654.356.19.114.322.494.489.494.053 0 .109-.037.171-.134.305-.244.672-.518 1.072-.518a.85.85 0 0 1 .179.018c.283.059.537.632.559.632v-.001c.01-.47-.21-.89-.34-1.351a.612.612 0 0 0-.595-.477.596.596 0 0 0-.475.237c-.298.11-.516.634-.796.634a.27.27 0 0 1-.154-.054c-.31-.33-.56-.72-1.01-.86zm1.42 6.943c-1.27 1.31-2.441 4.632-2.741 5.993.49-.4 1.16-.66 1.31-.91.16-.26.6-2.792 1.431-5.083zm-4.522-2.381c-2.401 1.38-6.583 8.174-7.474 9.264 1.501-.95 2.982-1.91 4.592-2.691 2.262-1.11 4.192-2.911 6.033-4.592-1.52-.51-2.61-1.37-3.151-1.981zm2.491 8.624c-.32.19-.61.45-.96.59.21.52.34 1.1.77 1.51.08.13.196.172.328.172.227 0 .504-.123.735-.123.016 0 .032 0 .047.002-.28-.7-.7-1.01-.92-2.151zm-.68-9.365c-.06.126-.138.167-.22.167-.108 0-.224-.071-.32-.116-.24.17-1.071.15-.58.51.31.42 1.967 1.566 3.118 1.768.497.087-.338.873-.608 1.153-1.56 1.4-3.091 2.882-4.962 3.892-1.17.66-2.401 1.25-3.532 1.98-.54.781-1.18 1.502-1.59 2.362.41.12.81.29 1.23.39.222.056.462.082.703.082.66 0 1.325-.197 1.618-.512.54-.57 1.13-3.001 1.44-3.892.045-.1.108-.133.176-.133.135 0 .291.132.369.132a.04.04 0 0 0 .036-.019.391.391 0 0 1 .387-.376c.175 0 .338.127.314.396.06.63.18 1.26.48 1.831.037.097.113.134.215.134.284 0 .76-.293 1.085-.374-.13-.77.92-4.712 4.002-8.014.108-.116.578-.611.536-.611-.004 0-.016.006-.035.02a2.06 2.06 0 0 1-.512.07c-.337 0-.668-.104-.84-.42-.025-.077-.058-.108-.096-.108-.137 0-.344.399-.563.399a.92.92 0 0 1-.514.155c-.29 0-.578-.131-.777-.355-.19-.17-.37-.34-.56-.51zM240.257 0c.315.14.865.28 1.36.28.071 0 .142-.004.21-.01a.804.804 0 0 0 .144.012c.336 0 .699-.18 1.025-.18.124 0 .243.026.353.098.55.8 1.05 1.69 1.11 2.681.11 1.901.06 2.562-1.44 4.122-.59 1.341-1.691 5.713-2.021 6.904-.36.34.45 2.2.79 2.66.185.256.673.268 1.197.268h.172c.47 0 .948.01 1.242.193.28.18.38.85.22.94-.15-.23-.45-.54-.66-.57.2.21-.5.11-.65.16-.405.007-.814.041-1.225.041-.199 0-.397-.008-.596-.03-.09-.04-.187-.102-.229-.102-.033 0-.033.038.029.151a3.689 3.689 0 0 1-.913.111c-.7 0-1.363-.187-1.508-.56-.3-.551-.58-1.131-.78-1.732-.256.054-.577.234-.835.234a.38.38 0 0 1-.206-.054c-.28-.19-.57-1.08-.73-1.67-.016-.062-.1-.092-.184-.092-.08 0-.162.028-.187.082-.3.6-.8 2.44-1.28 3.211-.363.571-1.241.852-2.176.852a4.48 4.48 0 0 1-1.716-.332c-.65-.28-1.13-.22-.99-.58.22-.6.6-1.17 1-1.68-.58.36-1.16.73-1.741 1.09-.048.174-.168.243-.291.243-.237 0-.483-.256-.24-.513 2.272-3.282 5.883-8.875 8.385-10.685.4-.35.87-.62 1.39-.75.17-.44.12-1.031.22-1.531.1-.99.7-2.632 1.751-3.262zm-16.143 0q2.323 0 2.323 2.232V18h-1.072V2.232q0-1.16-1.251-1.16-1.261 0-1.261 1.16v10.492h-1.072V2.232q0-2.232 2.333-2.232zm-7.995 3.071c.27.13.6.49.1.55-.24-.01-.79-.26-.69-.49.051.05.104.067.157.067.142 0 .287-.127.433-.127zm1.97.09c.33.08.5.44.08.52l-.021.002c-.242 0-.901-.294-.359-.361.09-.06.18-.16.3-.16zm-2.63-2.51c-.59.69-1.111 1.49-1.211 2.41-.1.66-.13 1.321-.23 1.971.47-.04.33-.77.24-1.12-.08-.69.29-1.33.55-1.941.18-.33.35-.85.81-.86.51.09.84.52 1.171.89.34-.34.7-.71 1.17-.85a.236.236 0 0 1 .082-.013c.105 0 .228.046.285.046.05 0 .049-.034-.056-.164-.064-.224-.196-.29-.36-.29-.237 0-.542.141-.798.141a.561.561 0 0 1-.113-.01 5.346 5.346 0 0 1-.254.007c-.437 0-.876-.067-1.287-.218zm.16.76c-.39.1-.48.64-.67.96-.241.56-.531 1.17-.341 1.801.15.3-.04.68-.02.9.334.235.627.73 1.07.73a.631.631 0 0 0 .15-.02c.44-.09.66-.51 1.001-.71.246.238.392.73.798.73a.6.6 0 0 0 .182-.03c.37-.08.86-.04.97-.49.191-.46.211-.97.241-1.47a.324.324 0 0 1-.061.006c-.202 0-.22-.235-.24-.436-.077-.293-.287-.429-.52-.429a.762.762 0 0 0-.47.178c-.17.19-.69.34-.58.64.05.18.11.371.17.561l-.42.56c-.04-.29-.47-.53-.22-.82.04-.13.19-.3.17-.4-.18-.32-.42-.6-.7-.84a.322.322 0 0 0-.23-.103c-.268 0-.538.351-.77.382-.23-.25.02-.35.25-.48a.701.701 0 0 1 .486-.196c.25 0 .5.13.654.356.19.114.322.494.489.494.053 0 .109-.037.171-.134.305-.244.672-.518 1.072-.518.059 0 .119.005.179.018.283.059.537.632.559.632l.001-.001c.01-.47-.21-.89-.34-1.351a.612.612 0 0 0-.596-.477.596.596 0 0 0-.475.237c-.297.11-.516.634-.796.634a.27.27 0 0 1-.154-.054c-.31-.33-.56-.72-1.01-.86zm1.42 6.943c-1.27 1.31-2.441 4.632-2.741 5.993.49-.4 1.16-.66 1.31-.91.16-.26.6-2.792 1.431-5.083zm-4.522-2.381c-2.401 1.38-6.583 8.174-7.474 9.264 1.501-.95 2.982-1.91 4.593-2.691 2.26-1.11 4.192-2.911 6.032-4.592-1.52-.51-2.61-1.37-3.151-1.981zm2.491 8.624c-.32.19-.61.45-.96.59.21.52.34 1.1.77 1.51.08.13.196.172.328.172.227 0 .504-.123.735-.123.016 0 .032 0 .048.002-.28-.7-.7-1.01-.92-2.151zm-.68-9.365c-.06.126-.138.167-.22.167-.108 0-.224-.071-.32-.116-.24.17-1.071.15-.58.51.31.42 1.967 1.566 3.118 1.768.497.087-.337.873-.608 1.153-1.56 1.4-3.091 2.882-4.962 3.892-1.17.66-2.401 1.25-3.532 1.98-.54.781-1.18 1.502-1.59 2.362.41.12.81.29 1.23.39.222.056.462.082.703.082.66 0 1.325-.197 1.618-.512.54-.57 1.13-3.001 1.441-3.892.044-.1.107-.133.175-.133.135 0 .291.132.369.132.016 0 .028-.006.036-.019a.391.391 0 0 1 .387-.376c.175 0 .339.127.314.396.06.63.18 1.26.48 1.831.037.097.113.134.215.134.284 0 .76-.293 1.085-.374-.13-.77.92-4.712 4.002-8.014.108-.116.578-.611.537-.611-.005 0-.017.006-.036.02a2.06 2.06 0 0 1-.512.07c-.337 0-.668-.104-.839-.42-.026-.077-.059-.108-.097-.108-.137 0-.344.399-.563.399a.92.92 0 0 1-.514.155c-.29 0-.578-.131-.777-.355-.19-.17-.37-.34-.56-.51zM215.368 0c.315.14.865.28 1.36.28.072 0 .142-.004.211-.01a.804.804 0 0 0 .143.012c.337 0 .699-.18 1.025-.18.124 0 .243.026.353.098.55.8 1.05 1.69 1.11 2.681.11 1.901.06 2.562-1.44 4.122-.59 1.341-1.691 5.713-2.021 6.904-.36.34.45 2.2.79 2.66.185.256.673.268 1.197.268h.172c.47 0 .948.01 1.242.193.28.18.38.85.22.94-.15-.23-.45-.54-.66-.57.2.21-.5.11-.65.16-.405.007-.814.041-1.225.041-.198 0-.397-.008-.596-.03-.09-.04-.187-.102-.229-.102-.032 0-.032.038.029.151a3.683 3.683 0 0 1-.913.111c-.7 0-1.363-.187-1.508-.56-.3-.551-.58-1.131-.78-1.732-.256.054-.577.234-.835.234a.38.38 0 0 1-.206-.054c-.28-.19-.57-1.08-.73-1.67-.016-.062-.1-.092-.184-.092-.08 0-.162.028-.187.082-.3.6-.8 2.44-1.28 3.211-.363.571-1.241.852-2.176.852a4.48 4.48 0 0 1-1.716-.332c-.65-.28-1.13-.22-.99-.58.22-.6.6-1.17 1-1.68-.58.36-1.16.73-1.741 1.09-.048.174-.168.243-.291.243-.237 0-.483-.256-.24-.513 2.272-3.282 5.884-8.875 8.385-10.685.4-.35.87-.62 1.39-.75.17-.44.12-1.031.22-1.531.1-.99.7-2.632 1.751-3.262z"/><path d="M203.646 9l-.122.122v.708l.653-.653.177-.177zm3 0l-3.122 3.122v.708l3.653-3.653.177-.177zm3 0l-6.122 6.122v.708l6.653-6.653.177-.177zm3 0l-8.823 8.823-.177.177h.708l8.823-8.823.177-.177zm3 0l-8.823 8.823-.177.177h.708l8.823-8.823.177-.177zm3 0l-8.823 8.823-.177.177h.708l8.823-8.823.177-.177zm3 0l-8.823 8.823-.177.177h.708l8.823-8.823.177-.177zm3 0l-8.823 8.823-.177.177h.708l8.823-8.823.177-.177zm3 0l-8.823 8.823-.177.177h.708l8.823-8.823.177-.177zm3 0l-8.823 8.823-.177.177h.708l8.823-8.823.177-.177zm3 0l-8.823 8.823-.177.177h.708l8.823-8.823.177-.177zm3 0l-8.823 8.823-.177.177h.708l8.823-8.823.177-.177zm3 0l-8.823 8.823-.177.177h.708l8.823-8.823.177-.177zm3 0l-8.823 8.823-.177.177h.708l8.823-8.823.177-.177zm3 0l-8.823 8.823-.177.177h.708l8.823-8.823.177-.177zm3 0l-8.823 8.823-.177.177h.708l8.823-8.823.177-.177zm2.68.321l-8.503 8.502-.177.177h.708l7.971-7.972v-.707zm0 3l-5.503 5.502-.177.177h.708l4.971-4.972v-.707zm0 3l-2.503 2.502-.177.177h.708l1.971-1.972v-.707z"/><path d="M193.837.375v17.25m7.687-17.25c-9.625 0-9.625 17.25 0 17.25m0 0" fill="none" stroke="#000"/><path d="M185.867.597a2.12 2.12 0 0 0-.692.109c.031.223.169.569.953.773-.73-.053-1.206-.113-1.453-.307a2.45 2.45 0 0 0-.158.556.297.297 0 0 1-.206.237c-.625.191-1.174 1.112-1.7 1.763-.95 1.173-1.772 2.48-2.688 3.733.423-.207.845-.415 1.27-.622 1.182-.622 2.394-1.11 3.407-1.877.588-.49 1.172-.996 1.39-1.641.076-.497-.296-1.074-.767-1.279a.297.297 0 1 1 .238-.545c.376.164.699.458.904.817a1.986 1.986 0 0 0-.075-.448.297.297 0 0 1-.013-.104c.01-.184.042-.313.082-.422.041-.109.085-.206.158-.459a.297.297 0 0 1 .104-.153 1.546 1.546 0 0 0-.527-.125c-.042-.003-.083-.003-.125-.004a.258.258 0 1 1-.102-.002zm-1.194 5.432c-.605.466-1.253.873-1.888 1.28.005.438-.006.879-.047 1.321.207-.135.434-.236.697-.3.392-.636.82-1.22 1.083-1.842a4.64 4.64 0 0 0 .155-.46zm.249 1c-.273.549-.621 1.04-.928 1.529.059.04.112.08.154.121l.027.027c.17-.194.375-.351.614-.454-.01-.348.047-.768.133-1.222zm-2.88.047a25.922 25.922 0 0 0-.588.297c-.78.38-1.56.772-2.35 1.148-.556.67-1.156 1.293-1.734 1.92l1.043.175 2.563-2.786a.297.297 0 0 1 .04-.036c.333-.253.678-.489 1.025-.718zm2.591 2.009c-.058.066-.112.14-.161.222a.298.298 0 0 1-.43.087c-.124-.09-.2-.177-.265-.244l-.077 1.413c.1-.006.201-.013.296-.013.167 0 .313.022.398.108.1-.078.28-.1.504-.1.057 0 .118.002.18.005l-.445-1.478zm5.419.999c-.452.062-.686.323-.704.783h1.395c0-.46-.23-.721-.691-.783zm-7.861-2.39c-.274.182-.541.367-.798.56l-2.402 2.613h2.456c.17-.19.518-.365.776-.365.073 0 .14.014.192.046.081-.007.167-.01.256-.01.14 0 .285.007.433.016l.083-1.506c-.225.115-.407.282-.625.542a.297.297 0 0 1-.52-.246c.1-.544.141-1.093.149-1.65zm6.24 3.745l.266.465h1.249l.252-.465zm-4.515 0v2.51l1.726-2.51zM185.859 0a3.878 3.878 0 0 1 .273.01c.694.044 1.215.325 1.408.768a.298.298 0 0 1-.341.408l-.025-.006-.03.007-.108.029c-.054.168-.096.269-.12.332a.541.541 0 0 0-.042.2 3.1 3.1 0 0 1 .037 1.389c-.095.466-.384.977-.761 1.46a.295.295 0 0 1-.014.108 21.24 21.24 0 0 0-.548 2.027c-.152.708-.234 1.387-.192 1.684a.297.297 0 0 1-.223.33l-.019.005.527 1.75c.086-.013.172-.018.259-.018.256 0 .51.041.712.041a.865.865 0 0 0 .184-.016.314.314 0 0 1 .068-.007c.212 0 .656.13.787.366h1.1c.061-.797.482-1.235 1.26-1.315.789.08 1.196.518 1.223 1.315v.572h-.531l-.545 1.01h-1.767l-.53-1.01h-1.568l-2.404 3.493V18h-.571v-6.561h-4.517v-.41l-.099.109a.297.297 0 0 1-.268.092l-1.74-.292a.298.298 0 0 1-.173-.492c.217-.242.436-.48.656-.716l-1.656 1.078a.296.296 0 0 1-.412-.087.297.297 0 0 1 .087-.411l1.345-.876a.292.292 0 0 1-.076-.09.315.315 0 0 1-.02-.237c.016-.05.034-.074.048-.093.055-.076.084-.088.123-.119.04-.03.084-.06.131-.094.096-.065.206-.137.301-.2a4.156 4.156 0 0 0 .216-.156l2.379-1.672.008-.005c.805-1.13 1.568-2.316 2.457-3.414.433-.535.937-1.524 1.812-1.894.048-.262.157-.68.483-.997.353-.344.864-.463 1.416-.463zm-33.213 0l-1.54 1.54v.708l2.07-2.071.178-.177zm3 0l-4.54 4.54v.708l5.07-5.071.178-.177zm3 0l-7.54 7.54v.708l8.07-8.071.178-.177zm3 0l-10.54 10.54v.708L162.176.177l.178-.177zm3 0l-13.54 13.54v.708L165.176.177l.178-.177zm3 0l-16.54 16.54v.708L168.176.177l.178-.177zm3 0l-17.823 17.823-.177.177h.708L171.177.177l.177-.177zm2.46.54l-17.283 17.283-.177.177h.708l16.752-16.752V.54zm0 3l-14.283 14.283-.177.177h.708l13.752-13.752V3.54zm0 3l-11.283 11.283-.177.177h.708l10.752-10.752V6.54zm0 3l-8.283 8.283-.177.177h.708l7.752-7.752V9.54zm0 3l-5.283 5.283-.177.177h.708l4.752-4.752v-.707zm0 3l-2.283 2.283-.177.177h.708l1.752-1.752v-.707z"/><path d="M173.646 0l-.54.54v.708l1.07-1.071.178-.177zm1.46 1.54l-2 2v.708l2-2V1.54zm0 3l-2 2v.708l2-2V4.54zm0 3l-2 2v.708l2-2V7.54zm0 3l-2 2v.708l2-2v-.707zm0 3l-2 2v.708l2-2v-.707zm0 3l-1.283 1.283-.177.177h.708l.752-.752v-.707zM128.646 0l-1.54 1.54v.708l2.07-2.071.178-.177zm3 0l-4.54 4.54v.708l5.07-5.071.178-.177zm3 0l-7.54 7.54v.708l8.07-8.071.178-.177zm3 0l-10.54 10.54v.708L138.176.177l.178-.177zm3 0l-13.54 13.54v.708L141.176.177l.178-.177zm3 0l-16.54 16.54v.708L144.176.177l.178-.177zm3 0l-17.823 17.823-.177.177h.708L147.177.177l.177-.177zm2.46.54l-17.283 17.283-.177.177h.708l16.752-16.752V.54zm0 3l-14.283 14.283-.177.177h.708l13.752-13.752V3.54zm0 3l-11.283 11.283-.177.177h.708l10.752-10.752V6.54zm0 3l-8.283 8.283-.177.177h.708l7.752-7.752V9.54zm0 3l-5.283 5.283-.177.177h.708l4.752-4.752v-.707zm0 3l-2.283 2.283-.177.177h.708l1.752-1.752v-.707z"/><path d="M149.646 0l-.54.54v.708l1.07-1.071.178-.177zm1.46 1.54l-2 2v.708l2-2V1.54zm0 3l-2 2v.708l2-2V4.54zm0 3l-2 2v.708l2-2V7.54zm0 3l-2 2v.708l2-2v-.707zm0 3l-2 2v.708l2-2v-.707zm0 3l-1.283 1.283-.177.177h.708l.752-.752v-.707zM104.646 0l-1.54 1.54v.708l2.07-2.071.178-.177zm3 0l-4.54 4.54v.708l5.07-5.071.178-.177zm3 0l-7.54 7.54v.708l8.07-8.071.178-.177zm3 0l-10.54 10.54v.708L114.176.177l.178-.177zm3 0l-13.54 13.54v.708L117.176.177l.178-.177zm3 0l-16.54 16.54v.708L120.176.177l.178-.177zm3 0l-17.823 17.823-.177.177h.708L123.177.177l.177-.177zm2.46.54l-17.283 17.283-.177.177h.708l16.752-16.752V.54zm0 3l-14.283 14.283-.177.177h.708l13.752-13.752V3.54zm0 3l-11.283 11.283-.177.177h.708l10.752-10.752V6.54zm0 3l-8.283 8.283-.177.177h.708l7.752-7.752V9.54zm0 3l-5.283 5.283-.177.177h.708l4.752-4.752v-.707zm0 3l-2.283 2.283-.177.177h.708l1.752-1.752v-.707zm.54-15.54l-.54.54v.708l1.07-1.071.178-.177zm1.46 1.54l-2 2v.708l2-2V1.54zm0 3l-2 2v.708l2-2V4.54zm0 3l-2 2v.708l2-2V7.54zm0 3l-2 2v.708l2-2v-.707zm0 3l-2 2v.708l2-2v-.707zm0 3l-1.283 1.283-.177.177h.708l.752-.752v-.707zM80.646 0l-1.54 1.54v.708l2.07-2.071.178-.177zm3 0l-4.54 4.54v.708l5.07-5.071.178-.177zm3 0l-7.54 7.54v.708l8.07-8.071.178-.177zm3 0l-10.54 10.54v.708L90.176.177 90.355 0zm3 0l-13.54 13.54v.708L93.176.177 93.355 0zm3 0l-16.54 16.54v.708L96.176.177 96.355 0zm3 0L80.823 17.823l-.177.177h.708L99.177.177 99.354 0zm2.46.54L83.823 17.824l-.177.177h.708l16.752-16.752V.54zm0 3L86.823 17.824l-.177.177h.708l13.752-13.752V3.54zm0 3L89.823 17.824l-.177.177h.708l10.752-10.752V6.54zm0 3l-8.283 8.283-.177.177h.708l7.752-7.752V9.54zm0 3l-5.283 5.283-.177.177h.708l4.752-4.752v-.707zm0 3l-2.283 2.283-.177.177h.708l1.752-1.752v-.707zm.54-15.54l-.54.54v.708l1.07-1.071.178-.177zm1.46 1.54l-2 2v.708l2-2V1.54zm0 3l-2 2v.708l2-2V4.54zm0 3l-2 2v.708l2-2V7.54zm0 3l-2 2v.708l2-2v-.707zm0 3l-2 2v.708l2-2v-.707zm0 3l-1.283 1.283-.177.177h.708l.752-.752v-.707zM56.646 0l-1.54 1.54v.708l2.07-2.071.178-.177zm3 0l-4.54 4.54v.708l5.07-5.071.178-.177zm3 0l-7.54 7.54v.708l8.07-8.071.178-.177zm3 0l-10.54 10.54v.708L66.176.177 66.355 0zm3 0l-13.54 13.54v.708L69.176.177 69.355 0zm3 0l-16.54 16.54v.708L72.176.177 72.355 0zm3 0L56.823 17.823l-.177.177h.708L75.177.177 75.354 0zm2.46.54L59.823 17.824l-.177.177h.708L77.106 1.248V.54zm0 3L62.823 17.824l-.177.177h.708L77.106 4.248V3.54zm0 3L65.823 17.824l-.177.177h.708L77.106 7.248V6.54zm0 3l-8.283 8.283-.177.177h.708l7.752-7.752V9.54zm0 3l-5.283 5.283-.177.177h.708l4.752-4.752v-.707zm0 3l-2.283 2.283-.177.177h.708l1.752-1.752v-.707zM77.646 0l-.54.54v.708l1.07-1.071.178-.177zm1.46 1.54l-2 2v.708l2-2V1.54zm0 3l-2 2v.708l2-2V4.54zm0 3l-2 2v.708l2-2V7.54zm0 3l-2 2v.708l2-2v-.707zm0 3l-2 2v.708l2-2v-.707zm0 3l-1.283 1.283-.177.177h.708l.752-.752v-.707zM50.99 0c.773 0 1.545.455 1.9 1.356.308.782.2 2.27.2 3.144h-.524c0-.685.08-2.012-.113-2.619-.248-.782-.859-1.193-1.47-1.193-.548 0-1.096.33-1.384 1.02-.269.641-.176 2.055-.176 2.792h-.524c0-.875-.108-2.36.2-3.144C49.456.449 50.223 0 50.991 0zm-6.065 0c.772 0 1.545.455 1.9 1.356.308.782.2 2.27.2 3.144H46.5c0-.685.08-2.012-.113-2.619-.249-.782-.86-1.193-1.47-1.193-.548 0-1.097.33-1.385 1.02-.268.641-.176 2.055-.176 2.792h-.523c0-.875-.108-2.36.2-3.144C43.39.449 44.158 0 44.925 0zm-5.647 0c.772 0 1.545.455 1.9 1.356.308.782.2 2.27.2 3.144h-.524c0-.685.08-2.012-.114-2.619-.248-.782-.858-1.193-1.47-1.193-.547 0-1.096.33-1.384 1.02-.268.641-.176 2.055-.176 2.792h-.523c0-.875-.109-2.36.2-3.144C37.744.449 38.51 0 39.278 0zm-6.065 0c.772 0 1.544.455 1.9 1.356.307.782.2 2.27.2 3.144h-.525c0-.685.08-2.012-.113-2.619-.248-.782-.859-1.193-1.47-1.193-.548 0-1.096.33-1.384 1.02-.269.641-.176 2.055-.176 2.792h-.524c0-.875-.108-2.36.2-3.144C31.678.449 32.445 0 33.213 0zm15.698 12.947c.868 0 1.735.51 2.133 1.522.346.879.225 2.55.225 3.531h-.588c0-.77.09-2.26-.127-2.941-.28-.879-.965-1.34-1.65-1.34-.616 0-1.232.371-1.555 1.146-.302.72-.198 2.307-.198 3.135h-.588c0-.983-.121-2.651.225-3.53.4-1.019 1.262-1.523 2.123-1.523zm-6.81 0c.867 0 1.735.51 2.133 1.522.346.879.225 2.55.225 3.531h-.589c0-.77.09-2.26-.127-2.941-.279-.879-.964-1.34-1.65-1.34-.616 0-1.231.371-1.555 1.146-.301.72-.197 2.307-.197 3.135h-.588c0-.983-.122-2.651.224-3.53.401-1.019 1.263-1.523 2.124-1.523zm-6.81 0c.867 0 1.734.51 2.133 1.522.345.879.224 2.55.224 3.531h-.588c0-.77.09-2.26-.127-2.941-.28-.879-.965-1.34-1.65-1.34-.616 0-1.232.371-1.555 1.146-.301.72-.198 2.307-.198 3.135h-.588c0-.983-.121-2.651.225-3.53.4-1.019 1.262-1.523 2.124-1.523zm-6.185-7.622v7.35h-.735v-7.35zm-4.37 0v7.35H24v-7.35zM0 0v.354L.177.177.354 0zm2.646 0L0 2.646v.708L3.177.177 3.354 0zm3 0L0 5.646v.708L6.177.177 6.354 0zm3 0L0 8.646v.708L9.177.177 9.354 0zm3 0L0 11.646v.708L12.177.177 12.354 0zm3 0L0 14.646v.708L15.177.177 15.354 0zm3 0L0 17.646V18h.354L18.177.177 18.354 0zm3 0L2.823 17.823 2.646 18h.708L21.177.177 21.354 0zM22 1.646L5.823 17.823 5.646 18h.708L22 2.354v-.708zm0 3L8.823 17.823 8.646 18h.708L22 5.354v-.708zm0 3L11.823 17.823l-.177.177h.708L22 8.354v-.708zm0 3l-7.177 7.177-.177.177h.708L22 11.354v-.708zm0 3l-4.177 4.177-.177.177h.708L22 14.354v-.708zm0 3l-1.177 1.177-.177.177h.708l.646-.646v-.708z"/></svg>