<svg xmlns="http://www.w3.org/2000/svg" width="212.17" height="18"><path d="M191.646 0l-1.476 1.476v.707l2.007-2.006.177-.177zm3 0l-4.476 4.476v.707l5.007-5.006.177-.177zm3 0l-7.476 7.476v.707l8.007-8.006.177-.177zm3 0L190.17 10.476v.707L201.177.177l.177-.177zm3 0L190.17 13.476v.707L204.177.177l.177-.177zm3 0L190.17 16.476v.707L207.177.177l.177-.177zm3 0l-17.823 17.823-.177.177h.708L210.177.177l.177-.177zm2.524.476l-17.347 17.347-.177.177h.708L212.17 1.183V.476zm0 3l-14.347 14.347-.177.177h.708L212.17 4.183v-.707zm0 3l-11.347 11.347-.177.177h.708L212.17 7.183v-.707zm0 3l-8.347 8.347-.177.177h.708l7.816-7.817v-.707zm0 3l-5.347 5.347-.177.177h.708l4.816-4.817v-.707zm0 3l-2.347 2.347-.177.177h.708l1.816-1.817v-.707zM212.646 0l-.476.476v.707l1.007-1.006.177-.177zm1.524 1.476l-2 2v.707l2-2v-.707zm0 3l-2 2v.707l2-2v-.707zm0 3l-2 2v.707l2-2v-.707zm0 3l-2 2v.707l2-2v-.707zm0 3l-2 2v.707l2-2v-.707zm0 3l-1.347 1.347-.177.177h.708l.816-.817v-.707zM167.646 0l-1.476 1.476v.707l2.007-2.006.177-.177zm3 0l-4.476 4.476v.707l5.007-5.006.177-.177zm3 0l-7.476 7.476v.707l8.007-8.006.177-.177zm3 0L166.17 10.476v.707L177.177.177l.177-.177zm3 0L166.17 13.476v.707L180.177.177l.177-.177zm3 0L166.17 16.476v.707L183.177.177l.177-.177zm3 0l-17.823 17.823-.177.177h.708L186.177.177l.177-.177zm2.524.476l-17.347 17.347-.177.177h.708L188.17 1.183V.476zm0 3l-14.347 14.347-.177.177h.708L188.17 4.183v-.707zm0 3l-11.347 11.347-.177.177h.708L188.17 7.183v-.707zm0 3l-8.347 8.347-.177.177h.708l7.816-7.817v-.707zm0 3l-5.347 5.347-.177.177h.708l4.816-4.817v-.707zm0 3l-2.347 2.347-.177.177h.708l1.816-1.817v-.707zM188.646 0l-.476.476v.707l1.007-1.006.177-.177zm1.524 1.476l-2 2v.707l2-2v-.707zm0 3l-2 2v.707l2-2v-.707zm0 3l-2 2v.707l2-2v-.707zm0 3l-2 2v.707l2-2v-.707zm0 3l-2 2v.707l2-2v-.707zm0 3l-1.347 1.347-.177.177h.708l.816-.817v-.707zM143.646 0l-1.476 1.476v.707l2.007-2.006.177-.177zm3 0l-4.476 4.476v.707l5.007-5.006.177-.177zm3 0l-7.476 7.476v.707l8.007-8.006.177-.177zm3 0L142.17 10.476v.707L153.177.177l.177-.177zm3 0L142.17 13.476v.707L156.177.177l.177-.177zm3 0L142.17 16.476v.707L159.177.177l.177-.177zm3 0l-17.823 17.823-.177.177h.708L162.177.177l.177-.177zm2.524.476l-17.347 17.347-.177.177h.708L164.17 1.183V.476zm0 3l-14.347 14.347-.177.177h.708L164.17 4.183v-.707zm0 3l-11.347 11.347-.177.177h.708L164.17 7.183v-.707zm0 3l-8.347 8.347-.177.177h.708l7.816-7.817v-.707zm0 3l-5.347 5.347-.177.177h.708l4.816-4.817v-.707zm0 3l-2.347 2.347-.177.177h.708l1.816-1.817v-.707zM164.646 0l-.476.476v.707l1.007-1.006.177-.177zm1.524 1.476l-2 2v.707l2-2v-.707zm0 3l-2 2v.707l2-2v-.707zm0 3l-2 2v.707l2-2v-.707zm0 3l-2 2v.707l2-2v-.707zm0 3l-2 2v.707l2-2v-.707zm0 3l-1.347 1.347-.177.177h.708l.816-.817v-.707zM138.523 0c.336 0 .67.026.995.066.447.113.217.626-.18.626a.476.476 0 0 1-.082-.008c-.839.097-1.872.15-2.506.626-.84.916-.463 2.821-.56 3.725-.008.05-.01 3.653-.01 5.48a6.145 6.145 0 0 1 2.634-.586c.402 0 .801.04 1.188.117.44.231-.077.528-.423.528a.454.454 0 0 1-.115-.013c-1.226.133-2.62.461-3.243 1.602-.061.206-.023.277.071.277.206 0 .68-.342.947-.342.014 0 .027 0 .04.003a7.535 7.535 0 0 1 1.58-.169c.39 0 .776.031 1.148.095.421.278-.095.534-.438.534a.532.532 0 0 1-.105-.01c-1.251.151-2.636.49-3.243 1.633-.006 1.27 0 2.11-.033 3.278.015.36-.22.538-.456.538-.235 0-.473-.176-.475-.526.01-1.15.091-2.161-.06-3.277-.304-1.253-2.477-1.445-3.827-1.754-.294-.347.285-.475.659-.475.056 0 .107.003.15.008.173-.013.347-.02.521-.02.882 0 1.771.175 2.557.58.032-.755-.71-1.19-1.243-1.493-.84-.361-1.766-.397-2.644-.59-.313-.273.18-.501.522-.501a.58.58 0 0 1 .125.012c.215-.02.431-.031.647-.031.903 0 1.805.183 2.615.582-.017-2.851-.063-5.61.019-8.308.065-.834.546-1.6 1.354-1.849.58-.264 1.227-.358 1.871-.358z"/><path d="M131.646 0l-.374.375v.707l.905-.905.177-.177zm3 0l-3.374 3.375v.707l3.905-3.905.177-.177zm3 0l-6.374 6.375v.707l6.905-6.905.177-.177zm2.524.476l-8.898 8.899v.707l8.898-8.899V.476zm0 3l-8.898 8.899v.707l8.898-8.899v-.707zm0 3l-8.898 8.899v.707l8.898-8.899v-.707zm0 3l-8.347 8.347-.177.177h.708l7.816-7.817v-.707zm0 3l-5.347 5.347-.177.177h.708l4.816-4.817v-.707zm0 3l-2.347 2.347-.177.177h.708l1.816-1.817v-.707zM140.646 0l-.476.476v.707l1.007-1.006.177-.177zm1.559 1.441l-2.035 2.035v.707l2.035-2.034V1.44zm0 3l-2.035 2.035v.707l2.035-2.034V4.44zm0 3l-2.035 2.035v.707l2.035-2.034V7.44zm0 3l-2.035 2.035v.707l2.035-2.034v-.708zm0 3l-2.035 2.035v.707l2.035-2.034v-.708zm0 3l-1.382 1.382-.177.177h.708l.851-.851v-.708zM114.528 2.99q-.557 0-1.086.606 4.368 5.2 5.46 5.81.815.457 1.434.457.21 0 .399-.053.741-.208 1.586-.234h.042q.828 0 1.817.988h.13q-.702-1.638-1.963-2.34-1.261-.702-7.397-5.148-.213-.085-.422-.085zM122.26.622q-.065 0-.133.01v6.683q2.054 1.196 2.834 3.354-1.196-8.268-1.677-9.204Q122.85.62 122.26.62zm5.356 10.468q.08 0 .153.138.13.247-.234.689-.208-.546-.052-.741.069-.086.133-.086zm-.036-.372q-.154 0-.33.237-.39.52.233 2.08.702-1.352.43-1.976-.15-.34-.333-.34zm-6.805 2.577v.39q.286-.026.442-.182-.052-.078-.208-.208zm-.598.884l-2.418.338-.494.884q.832-.234 1.833-.624t1.079-.598zm5.33-.364l-.468.234-.156 1.118.416 1.274h.65l-.442-1.274v-1.352zm-1.118.39l-.442.13-.156.832.416 1.274h.65l-.442-1.274-.026-.962zm-1.534.156l-.156.806.416 1.274h.65l-.442-1.274v-.78l-.468-.026zm.994-3.234q-.415 0-.89.1-1.404.3-1.768 1.418h-1.092l-.416-.676q-5.512 1.274-6.214 4.602 1.508-.832 3.172-1.118l.728-1.456 2.886-.39-.078-.702h.988q1.092.9 2.228.9.244 0 .49-.042 1.39-.234 1.82-.95.428-.714-.456-1.3-.585-.386-1.398-.386zM122.003 0q.947 0 1.488.658.663.806 1.235 4.238l.91 5.954q.442.468.676.52h.312q.026-.65.494-1.196.416-3.978-.364-6.968l.312-.598q1.118 3.38.546 7.592h.078q1.794-4.03.52-7.592l.312-.468q1.664 3.796-.364 8.242.572 1.248.117 2.054-.455.806-.559 1.508l-.182.13q-.702-1.04-.806-1.794h-.26q-.026.598-.338 1.248l-.182 1.638.442 1.274h2.262v.624h-6.526v-.624h.546l-.416-1.274-.026-.962q-.468-.156-.702-.364-.338.312-.754.312.026.26-.104.442-1.04.806-3.718 1.404l-.91 1.768q0-.434-.27-.434-.085 0-.198.044l.728-1.3q-1.508.338-2.288.858-.416.442.052 1.066-1.04-.442-1.17-1.248.416-3.926 7.046-5.46l.468.78h.416q.338-1.092 2.678-1.508-.522-.388-1.284-.388-.415 0-.9.115-.492.116-.961.116-.844 0-1.613-.376-1.196-.585-6.084-6.461.9-1.136 1.905-1.136.329 0 .669.122l6.318 4.524V.034q.235-.034.449-.034z"/><path d="M77.646 0l-1.228 1.228v.707L78.177.177 78.354 0zm3 0l-4.228 4.228v.707L81.177.177 81.354 0zm3 0l-7.228 7.228v.707L84.177.177 84.354 0zm3 0L76.418 10.228v.707L87.177.177 87.354 0zm3 0L76.418 13.228v.707L90.177.177 90.354 0zm3 0L76.418 16.228v.707L93.177.177 93.354 0zm3 0L77.823 17.823l-.177.177h.708L96.177.177 96.354 0zm3 0L80.823 17.823l-.177.177h.708L99.177.177 99.354 0zm3 0L83.823 17.823l-.177.177h.708L102.177.177l.177-.177zm3 0L86.823 17.823l-.177.177h.708L105.177.177l.177-.177zm3 0L89.823 17.823l-.177.177h.708L108.177.177l.177-.177zm3 0L92.823 17.823l-.177.177h.708L111.177.177l.177-.177zm3 0L95.823 17.823l-.177.177h.708L114.177.177l.177-.177zm3 0L98.823 17.823l-.177.177h.708L117.177.177l.177-.177zm3 0l-17.823 17.823-.177.177h.708L120.177.177l.177-.177zm3 0l-17.823 17.823-.177.177h.708L123.177.177l.177-.177zm3 0l-17.823 17.823-.177.177h.708L126.177.177l.177-.177zm3 0l-17.823 17.823-.177.177h.708L129.177.177l.095-.095V0zm.626 2.375l-15.449 15.448-.177.177h.708l14.918-14.918v-.707zm0 3l-12.449 12.448-.177.177h.708l11.918-11.918v-.707zm0 3l-9.449 9.448-.177.177h.708l8.918-8.918v-.707zm0 3l-6.449 6.448-.177.177h.708l5.918-5.918v-.707zm0 3l-3.449 3.448-.177.177h.708l2.918-2.918v-.707zm0 3l-.449.448-.177.177h.626v-.625z"/><path d="M131.378.269l-2.106 2.106v.707l2.106-2.106V.269zm0 3l-2.106 2.106v.707l2.106-2.106v-.707zm0 3l-2.106 2.106v.707l2.106-2.106v-.707zm0 3l-2.106 2.106v.707l2.106-2.106v-.707zm0 3l-2.106 2.106v.707l2.106-2.106v-.707zm0 3l-2.106 2.106V18h.082l2.024-2.024v-.707z"/><path d="M66.73.375v17.25M74.418.375c-9.625 0-9.625 17.25 0 17.25m0 0" fill="none" stroke="#000"/><path d="M58.761.597a2.12 2.12 0 0 0-.692.109c.031.223.169.569.953.773-.73-.053-1.206-.113-1.452-.307-.09.2-.137.427-.158.556a.297.297 0 0 1-.207.237c-.624.191-1.173 1.112-1.7 1.763-.95 1.173-1.771 2.48-2.688 3.733l1.27-.622c1.182-.622 2.395-1.11 3.407-1.877.589-.49 1.172-.996 1.39-1.641.076-.497-.296-1.074-.767-1.279a.297.297 0 1 1 .238-.545c.377.164.7.458.904.817a1.986 1.986 0 0 0-.075-.448.297.297 0 0 1-.012-.104c.01-.184.041-.313.082-.422.04-.109.085-.206.157-.459a.297.297 0 0 1 .105-.153 1.546 1.546 0 0 0-.527-.125C58.946.6 58.905.6 58.864.599a.258.258 0 1 1-.103-.002zm-1.193 5.432c-.606.466-1.253.873-1.888 1.28a13 13 0 0 1-.047 1.321c.207-.135.434-.236.697-.3.39-.636.82-1.22 1.082-1.842.054-.129.105-.29.156-.46zm.248 1c-.273.549-.62 1.04-.928 1.529.059.04.112.08.155.121l.027.027a1.72 1.72 0 0 1 .613-.454c-.01-.348.047-.768.133-1.222zm-2.88.047a25.922 25.922 0 0 0-.588.297c-.78.38-1.56.772-2.349 1.148-.556.67-1.157 1.293-1.735 1.92l1.044.175L53.87 7.83a.297.297 0 0 1 .04-.036 18.5 18.5 0 0 1 1.026-.718zm2.592 2.009c-.058.066-.112.14-.162.222a.298.298 0 0 1-.429.087c-.125-.09-.2-.177-.266-.244l-.077 1.413c.1-.006.201-.013.296-.013.167 0 .314.022.398.108.1-.078.28-.1.504-.1.058 0 .118.002.18.005l-.444-1.478zm5.418.999c-.451.062-.686.323-.703.783h1.394c0-.46-.23-.721-.69-.783zm-7.86-2.39a16.38 16.38 0 0 0-.798.56l-2.403 2.613h2.456c.171-.19.519-.365.776-.365.074 0 .14.014.192.046.082-.007.168-.01.256-.01.14 0 .286.007.434.016l.082-1.506c-.224.115-.407.282-.625.542a.297.297 0 0 1-.52-.246c.1-.544.142-1.093.15-1.65zm6.24 3.745l.266.465h1.248l.253-.465zm-4.516 0v2.51l1.727-2.51zM58.754 0a3.878 3.878 0 0 1 .272.01c.695.044 1.215.325 1.408.768a.298.298 0 0 1-.34.408l-.025-.006-.03.007-.108.029c-.055.168-.096.269-.12.332a.541.541 0 0 0-.042.2c.154.552.094 1.107.036 1.389-.095.466-.384.977-.76 1.46a.295.295 0 0 1-.015.108 21.24 21.24 0 0 0-.548 2.027c-.152.708-.233 1.387-.192 1.684a.297.297 0 0 1-.223.33l-.019.005.527 1.75c.086-.013.173-.018.26-.018.256 0 .509.041.712.041a.865.865 0 0 0 .183-.016.314.314 0 0 1 .068-.007c.212 0 .657.13.787.366h1.1c.062-.797.482-1.235 1.261-1.315.788.08 1.196.518 1.222 1.315v.572h-.53l-.545 1.01h-1.767l-.531-1.01h-1.568l-2.404 3.493V18h-.571v-6.561h-4.516v-.41l-.1.109a.297.297 0 0 1-.268.092l-1.74-.292a.298.298 0 0 1-.172-.492c.216-.242.436-.48.656-.716l-1.657 1.078a.296.296 0 0 1-.411-.087.297.297 0 0 1 .087-.411l1.344-.876a.292.292 0 0 1-.076-.09.315.315 0 0 1-.02-.237.305.305 0 0 1 .048-.093c.055-.076.084-.088.124-.119l.13-.094c.096-.065.207-.137.301-.2a4.156 4.156 0 0 0 .217-.156l2.378-1.672.008-.005c.806-1.13 1.568-2.316 2.457-3.414.433-.535.938-1.524 1.812-1.894.048-.262.157-.68.484-.997C57.69.119 58.2 0 58.754 0zM0 0v.354L.177.177.354 0zm2.646 0L0 2.646v.708L3.177.177 3.354 0zm3 0L0 5.646v.708L6.177.177 6.354 0zm3 0L0 8.646v.708L9.177.177 9.354 0zm3 0L0 11.646v.708L12.177.177 12.354 0zm3 0L0 14.646v.708L15.177.177 15.354 0zm3 0L0 17.646V18h.354L18.177.177 18.354 0zm3 0L2.823 17.823 2.646 18h.708L21.177.177 21.354 0zM22 1.646L5.823 17.823 5.646 18h.708L22 2.354v-.708zm0 3L8.823 17.823 8.646 18h.708L22 5.354v-.708zm0 3L11.823 17.823l-.177.177h.708L22 8.354v-.708zm0 3l-7.177 7.177-.177.177h.708L22 11.354v-.708zm0 3l-4.177 4.177-.177.177h.708L22 14.354v-.708zm0 3l-1.177 1.177-.177.177h.708l.646-.646v-.708z"/></svg>