<svg xmlns="http://www.w3.org/2000/svg" width="213.187" height="18"><path d="M191.646 0l-.459.46v.706l.99-.99.177-.176zm3 0l-3.459 3.46v.706l3.99-3.99.177-.176zm3 0l-6.459 6.46v.706l6.99-6.99.177-.176zm3 0l-9.459 9.46v.706l9.99-9.99.177-.176zm3 0l-12.459 12.46v.706l12.99-12.99.177-.176zm3 0l-15.459 15.46v.706l15.99-15.99.177-.176zm3 0l-17.823 17.823-.177.177h.708L210.177.177l.177-.177zm3 0l-17.823 17.823-.177.177h.708L213.177.177l.01-.01V0zm.541 2.46l-15.364 15.363-.177.177h.708l14.833-14.834V2.46zm0 3l-12.364 12.363-.177.177h.708l11.833-11.834V5.46zm0 3l-9.364 9.363-.177.177h.708l8.833-8.834V8.46zm0 3l-6.364 6.363-.177.177h.708l5.833-5.834v-.707zm0 3l-3.364 3.363-.177.177h.708l2.833-2.834v-.707zm0 3l-.364.363-.177.177h.541v-.54zm2-17l-2 2v.706l2-2V.46zm0 3l-2 2v.706l2-2V3.46zm0 3l-2 2v.706l2-2V6.46zm0 3l-2 2v.706l2-2V9.46zm0 3l-2 2v.706l2-2v-.707zm0 3l-2 2V18h.167l1.833-1.834v-.707zM167.646 0l-.459.46v.706l.99-.99.177-.176zm3 0l-3.459 3.46v.706l3.99-3.99.177-.176zm3 0l-6.459 6.46v.706l6.99-6.99.177-.176zm3 0l-9.459 9.46v.706l9.99-9.99.177-.176zm3 0l-12.459 12.46v.706l12.99-12.99.177-.176zm3 0l-15.459 15.46v.706l15.99-15.99.177-.176zm3 0l-17.823 17.823-.177.177h.708L186.177.177l.177-.177zm3 0l-17.823 17.823-.177.177h.708L189.177.177l.01-.01V0zm.541 2.46l-15.364 15.363-.177.177h.708l14.833-14.834V2.46zm0 3l-12.364 12.363-.177.177h.708l11.833-11.834V5.46zm0 3l-9.364 9.363-.177.177h.708l8.833-8.834V8.46zm0 3l-6.364 6.363-.177.177h.708l5.833-5.834v-.707zm0 3l-3.364 3.363-.177.177h.708l2.833-2.834v-.707zm0 3l-.364.363-.177.177h.541v-.54z"/><path d="M191.187.46l-2 2v.706l2-2V.46zm0 3l-2 2v.706l2-2V3.46zm0 3l-2 2v.706l2-2V6.46zm0 3l-2 2v.706l2-2V9.46zm0 3l-2 2v.706l2-2v-.707zm0 3l-2 2V18h.167l1.833-1.834v-.707zM143.646 0l-.459.46v.706l.99-.99.177-.176zm3 0l-3.459 3.46v.706l3.99-3.99.177-.176zm3 0l-6.459 6.46v.706l6.99-6.99.177-.176zm3 0l-9.459 9.46v.706l9.99-9.99.177-.176zm3 0l-12.459 12.46v.706l12.99-12.99.177-.176zm3 0l-15.459 15.46v.706l15.99-15.99.177-.176zm3 0l-17.823 17.823-.177.177h.708L162.177.177l.177-.177zm3 0l-17.823 17.823-.177.177h.708L165.177.177l.01-.01V0zm.541 2.46l-15.364 15.363-.177.177h.708l14.833-14.834V2.46zm0 3l-12.364 12.363-.177.177h.708l11.833-11.834V5.46zm0 3l-9.364 9.363-.177.177h.708l8.833-8.834V8.46zm0 3l-6.364 6.363-.177.177h.708l5.833-5.834v-.707zm0 3l-3.364 3.363-.177.177h.708l2.833-2.834v-.707zm0 3l-.364.363-.177.177h.541v-.54zm2-17l-2 2v.706l2-2V.46zm0 3l-2 2v.706l2-2V3.46zm0 3l-2 2v.706l2-2V6.46zm0 3l-2 2v.706l2-2V9.46zm0 3l-2 2v.706l2-2v-.707zm0 3l-2 2V18h.167l1.833-1.834v-.707zM139.54 0c.335 0 .67.026.995.066.447.113.217.626-.18.626a.476.476 0 0 1-.082-.008c-.84.097-1.872.15-2.506.626-.84.916-.463 2.821-.561 3.725-.007.05-.01 3.653-.01 5.48a6.145 6.145 0 0 1 2.635-.586c.402 0 .801.04 1.188.117.44.231-.077.528-.423.528a.454.454 0 0 1-.115-.013c-1.226.133-2.62.461-3.243 1.602-.061.206-.023.277.071.277.206 0 .68-.342.946-.342.014 0 .028 0 .04.003a7.535 7.535 0 0 1 1.581-.169c.39 0 .776.031 1.148.095.42.278-.095.534-.438.534a.532.532 0 0 1-.105-.01c-1.251.151-2.636.49-3.243 1.633-.007 1.27 0 2.11-.033 3.278.014.36-.22.538-.456.538-.235 0-.473-.176-.475-.526.009-1.15.091-2.161-.06-3.277-.304-1.253-2.477-1.445-3.827-1.754-.294-.347.285-.475.659-.475.056 0 .107.003.15.008.173-.013.347-.02.521-.02.882 0 1.771.175 2.557.58.032-.755-.711-1.19-1.244-1.493-.84-.361-1.765-.397-2.643-.59-.313-.273.18-.501.521-.501a.58.58 0 0 1 .125.012c.216-.02.432-.031.648-.031.903 0 1.805.183 2.615.582-.017-2.851-.063-5.61.019-8.308.065-.834.546-1.6 1.354-1.849.58-.264 1.227-.358 1.871-.358z"/><path d="M134.646 0l-2.358 2.358v.707l2.889-2.888.177-.177zm3 0l-5.358 5.358v.707l5.889-5.888.177-.177zm3 0l-8.358 8.358v.707l8.889-8.888.01-.01V0zm.541 2.46l-8.899 8.898v.707l8.9-8.899V2.46zm0 3l-8.899 8.898v.707l8.9-8.899V5.46zm0 3l-8.899 8.898V18h.066l8.833-8.834V8.46zm0 3l-6.364 6.363-.177.177h.708l5.833-5.834v-.707zm0 3l-3.364 3.363-.177.177h.708l2.833-2.834v-.707zm0 3l-.364.363-.177.177h.541v-.54z"/><path d="M143.222.425l-2.035 2.034v.707l2.035-2.034V.425zm0 3l-2.035 2.034v.707l2.035-2.034v-.707zm0 3l-2.035 2.034v.707l2.035-2.034v-.707zm0 3l-2.035 2.034v.707l2.035-2.034v-.707zm0 3l-2.035 2.034v.707l2.035-2.034v-.707zm0 3l-2.035 2.034V18h.167l1.868-1.868v-.707zM115.545 2.99q-.557 0-1.086.606 4.368 5.2 5.46 5.81.815.457 1.434.457.21 0 .399-.053.741-.208 1.586-.234h.042q.828 0 1.817.988h.13q-.702-1.638-1.963-2.34-1.261-.702-7.397-5.148-.213-.085-.422-.085zm7.731-2.369q-.065 0-.133.01v6.683q2.054 1.196 2.834 3.354-1.196-8.268-1.677-9.204-.433-.843-1.024-.843zm5.356 10.468q.08 0 .153.138.13.247-.234.689-.208-.546-.052-.741.069-.086.133-.086zm-.037-.372q-.153 0-.33.237-.39.52.234 2.08.702-1.352.43-1.976-.15-.34-.334-.34zm-6.804 2.577v.39q.286-.026.442-.182-.052-.078-.208-.208zm-.598.884l-2.418.338-.494.884q.832-.234 1.833-.624 1-.39 1.079-.598zm5.33-.364l-.468.234-.156 1.118.416 1.274h.65l-.442-1.274v-1.352zm-1.118.39l-.442.13-.156.832.416 1.274h.65l-.442-1.274-.026-.962zm-1.534.156l-.156.806.416 1.274h.65l-.442-1.274v-.78l-.468-.026zm.994-3.234q-.415 0-.89.1-1.404.3-1.768 1.418h-1.092l-.416-.676q-5.512 1.274-6.214 4.602 1.508-.832 3.172-1.118l.728-1.456 2.886-.39-.078-.702h.988q1.092.9 2.228.9.244 0 .489-.042 1.391-.234 1.82-.95.43-.714-.455-1.3-.585-.386-1.398-.386zM123.02 0q.947 0 1.488.658.663.806 1.235 4.238l.91 5.954q.442.468.676.52h.312q.026-.65.494-1.196.416-3.978-.364-6.968l.312-.598q1.118 3.38.546 7.592h.078q1.794-4.03.52-7.592l.312-.468q1.664 3.796-.364 8.242.572 1.248.117 2.054-.455.806-.559 1.508l-.182.13q-.702-1.04-.806-1.794h-.26q-.026.598-.338 1.248l-.182 1.638.442 1.274h2.262v.624h-6.526v-.624h.546l-.416-1.274-.026-.962q-.468-.156-.702-.364-.338.312-.754.312.026.26-.104.442-1.04.806-3.718 1.404l-.91 1.768q0-.434-.27-.434-.085 0-.198.044l.728-1.3q-1.508.338-2.288.858-.416.442.052 1.066-1.04-.442-1.17-1.248.416-3.926 7.046-5.46l.468.78h.416q.338-1.092 2.678-1.508-.522-.388-1.285-.388-.414 0-.899.115-.492.116-.961.116-.844 0-1.613-.376-1.196-.585-6.084-6.461.9-1.136 1.905-1.136.329 0 .669.122l6.318 4.524V.034q.235-.034.449-.034z"/><path d="M104.179.375c9.625 0 9.625 17.25 0 17.25" fill="none" stroke="#000"/><path d="M80.646 0l-.467.468v.707l.998-.998.177-.177zm3 0L80.18 3.468v.707L84.177.177 84.354 0zm3 0L80.18 6.468v.707L87.177.177 87.354 0zm3 0L80.18 9.468v.707L90.177.177 90.354 0zm3 0L80.18 12.468v.707L93.177.177 93.354 0zm3 0L80.18 15.468v.707L96.177.177 96.354 0zm3 0L80.823 17.823l-.177.177h.708L99.177.177 99.354 0zm3 0L83.823 17.823l-.177.177h.708L102.177.177l.002-.002V0zm.533 2.468L86.823 17.823l-.177.177h.708l14.825-14.825v-.707zm0 3L89.823 17.823l-.177.177h.708l11.825-11.825v-.707zm0 3l-9.356 9.355-.177.177h.708l8.825-8.825v-.707zm0 3l-6.356 6.355-.177.177h.708l5.825-5.825v-.707zm0 3l-3.356 3.355-.177.177h.708l2.825-2.825v-.707zm0 3l-.356.355-.177.177h.533v-.532zM74.764.832q.471 0 .566.283-.189.377-.603.377-.415-.076-.415-.377 0-.283.452-.283zm2.313 1.15q-.212 0-.41.17h.849q-.227-.17-.439-.17zm-1.187.056q-.212 0-.372.113h.848q-.264-.113-.476-.113zm-.278-.942q-.15.528-.556.933-.212.212-.17.212.037 0 .283-.175.321-.227.718-.227.244 0 .517.086.336-.208.693-.208.323 0 .664.17 0-.245-.18-.461-.178-.217-1.969-.33zm-2.393 9.912q-1.244 1.225-1.715 2.714l.32.735.51-.377.376.679.509-3.75zm.03-5.215q-.113 0-.247.024-.782.14-1.988.14-2.676 1.923-3.93 3.44-1.252 1.517-2.722 3.722-1.206 1.093-2.667 2.045-1.46.951-1.555 1.536 1.715-1.112 3.213-2.054 1.499-.943 3.129-1.565 1.63-.621 3.279-1.535 1.649-.914 2.95-2.705 1.3-1.79 1.186-2.478-.093-.57-.648-.57zm-2.009 8.476v2.205q.266.443.65.443.268 0 .594-.217-.188-1.659-.32-2.017l-.51.584-.414-.998zM74.297.572q-1.967 0-1.804 1.636.18 1.79-1.064 3.26.96-.094 1.978-.226.132-.017.25-.017.788 0 .919.77.15.886-.886 2.479-1.036 1.592-2.167 2.61-1.13 1.017-3.647 2.016-2.516.999-3.345 1.47-.829.471-1.319 1.093t-1.45 1.734q.389.065.751.065 1.83 0 2.97-1.667 1.366-1.997 4.268-3.222-.226 1.225-.075 1.94l1.093-.508q.792-2.28 2.563-3.939 2.431-3.053 2.393-4.513-.037-1.46-1.074-3.232 1.187-1.093.697-1.414-.49-.32-.66-.32-.205-.015-.391-.015zM74.129 0q.265 0 .56.022.433 0 .923.527 2.036.227 2.337.632.302.405.207 1.686-.3-.502-.798-.502-.157 0-.332.05-.426.12-.927.12-.365 0-.77-.063 1.508 2.808.67 4.654-.839 1.847-2.158 3.185l-.566 3.958q.057 1.846.472 2.638.385-.158.719-.158.302 0 .562.13.317.158.51.158.14 0 .216-.083.144-.16.406-.16.062 0 .13.01.359.046.594.291.236.245-.103.886h-7.915L68.28 18q-.207-.302-.131-.565.064-.497.753-.497.122 0 .264.016.241.027.432.027.554 0 .68-.225v-2.073l-1.018.66q-.245-1.15-.17-1.677-1.601.546-2.854 2.11-1.253 1.564-1.856 1.885-.604.32-1.338.32h-2.545l1.923-2.186-2.733 1.753q-.433-1.338 1.3-2.478 1.734-1.14 2.997-2.403.98-1.64 2.44-3.392 1.46-1.753 3.505-3.487 2.045-1.733 1.866-3.863Q71.634 0 74.13 0z"/><path d="M68.89 0v.463l.287-.286.177-.177zm2.756 0L68.89 2.756v.707L72.177.177 72.354 0zm3 0L68.89 5.756v.707L75.177.177 75.354 0zm3 0L68.89 8.756v.707L78.177.177l.002-.002V0zm.533 2.468l-9.289 9.288v.707l9.289-9.288v-.707zm0 3l-9.289 9.288v.707l9.289-9.288v-.707zm0 3l-9.289 9.288V18h.464l8.825-8.825v-.707zm0 3l-6.356 6.355-.177.177h.708l5.825-5.825v-.707zm0 3l-3.356 3.355-.177.177h.708l2.825-2.825v-.707zm0 3l-.356.355-.177.177h.533v-.532zM55.526 1.124q-2.014.293-2.105 1.842v11.177q.941-1.124 3.381-1.58l-1.276-11.44zM56.093 0l1.509 13.363q-3.361.385-4.181 2.4V18h-1.003V2.966q0-2.51 3.675-2.966z"/><path d="M42.73.375v17.25M50.418.375c-9.625 0-9.625 17.25 0 17.25m0 0" fill="none" stroke="#000"/><path d="M34.761.597a2.12 2.12 0 0 0-.692.109c.031.223.169.569.953.773-.73-.053-1.206-.113-1.452-.307-.09.2-.137.427-.158.556a.297.297 0 0 1-.207.237c-.624.191-1.173 1.112-1.7 1.763-.95 1.173-1.771 2.48-2.688 3.733l1.27-.622c1.182-.622 2.395-1.11 3.407-1.877.589-.49 1.172-.996 1.39-1.641.076-.497-.296-1.074-.767-1.279a.297.297 0 1 1 .238-.545c.377.164.7.458.904.817a1.986 1.986 0 0 0-.075-.448.297.297 0 0 1-.012-.104c.01-.184.041-.313.082-.422.04-.109.085-.206.157-.459a.297.297 0 0 1 .105-.153 1.546 1.546 0 0 0-.527-.125C34.946.6 34.905.6 34.864.599a.258.258 0 1 1-.103-.002zm-1.193 5.432c-.606.466-1.253.873-1.888 1.28a13 13 0 0 1-.047 1.321c.207-.135.434-.236.697-.3.39-.636.82-1.22 1.082-1.842.054-.129.105-.29.156-.46zm.248 1c-.273.549-.62 1.04-.928 1.529.059.04.112.08.155.121l.027.027a1.72 1.72 0 0 1 .613-.454c-.01-.348.047-.768.133-1.222zm-2.88.047a25.922 25.922 0 0 0-.588.297c-.78.38-1.56.772-2.349 1.148-.556.67-1.157 1.293-1.735 1.92l1.044.175L29.87 7.83a.297.297 0 0 1 .04-.036 18.5 18.5 0 0 1 1.026-.718zm2.592 2.009c-.058.066-.112.14-.162.222a.298.298 0 0 1-.429.087c-.125-.09-.2-.177-.266-.244l-.077 1.413c.1-.006.201-.013.296-.013.167 0 .314.022.398.108.1-.078.28-.1.504-.1.058 0 .118.002.18.005l-.444-1.478zm5.418.999c-.451.062-.686.323-.703.783h1.394c0-.46-.23-.721-.69-.783zm-7.86-2.39a16.38 16.38 0 0 0-.798.56l-2.403 2.613h2.456c.171-.19.519-.365.776-.365.074 0 .14.014.192.046.082-.007.168-.01.256-.01.14 0 .286.007.434.016l.082-1.506c-.224.115-.407.282-.625.542a.297.297 0 0 1-.52-.246c.1-.544.142-1.093.15-1.65zm6.24 3.745l.266.465h1.248l.253-.465zm-4.516 0v2.51l1.727-2.51zM34.754 0a3.878 3.878 0 0 1 .272.01c.695.044 1.215.325 1.408.768a.298.298 0 0 1-.34.408l-.025-.006-.03.007-.108.029c-.055.168-.096.269-.12.332a.541.541 0 0 0-.042.2c.154.552.094 1.107.036 1.389-.095.466-.383.977-.76 1.46a.295.295 0 0 1-.015.108 21.24 21.24 0 0 0-.548 2.027c-.152.708-.233 1.387-.192 1.684a.297.297 0 0 1-.223.33l-.019.005.527 1.75c.086-.013.173-.018.26-.018.256 0 .509.041.712.041a.865.865 0 0 0 .183-.016.314.314 0 0 1 .068-.007c.212 0 .657.13.787.366h1.1c.062-.797.482-1.235 1.261-1.315.788.08 1.196.518 1.222 1.315v.572h-.53l-.545 1.01h-1.767l-.531-1.01h-1.568l-2.404 3.493V18h-.571v-6.561h-4.516v-.41l-.1.109a.297.297 0 0 1-.268.092l-1.74-.292a.298.298 0 0 1-.172-.492c.216-.242.436-.48.656-.716l-1.657 1.078a.296.296 0 0 1-.411-.087.297.297 0 0 1 .087-.411l1.344-.876a.292.292 0 0 1-.076-.09.315.315 0 0 1-.02-.237.305.305 0 0 1 .048-.093c.055-.076.084-.088.124-.119l.13-.094c.096-.065.207-.137.301-.2a4.156 4.156 0 0 0 .217-.156l2.378-1.672.008-.005c.806-1.13 1.568-2.316 2.457-3.414.433-.535.938-1.524 1.812-1.894.048-.262.157-.68.484-.997C33.69.119 34.2 0 34.754 0zM2.646 0L0 2.646v.708L3.177.177 3.354 0zm3 0L0 5.646v.708L6.177.177 6.354 0zm3 0L0 8.646v.708L9.177.177 9.354 0zm3 0L0 11.646v.708L12.177.177 12.354 0zm3 0L0 14.646v.708L15.177.177 15.354 0zm3 0L0 17.646V18h.354L18.177.177 18.354 0zm3 0L2.823 17.823 2.646 18h.708L21.177.177 21.354 0zM22 1.646L5.823 17.823 5.646 18h.708L22 2.354v-.708zm0 3L8.823 17.823 8.646 18h.708L22 5.354v-.708zm0 3L11.823 17.823l-.177.177h.708L22 8.354v-.708zm0 3l-7.177 7.177-.177.177h.708L22 11.354v-.708zm0 3l-4.177 4.177-.177.177h.708L22 14.354v-.708zm0 3l-1.177 1.177-.177.177h.708l.646-.646v-.708z"/></svg>