<svg xmlns="http://www.w3.org/2000/svg" width="199.862" height="18"><path d="M198.215 0c.335 0 .67.026.995.066.447.113.217.626-.18.626a.476.476 0 0 1-.082-.008c-.84.097-1.872.15-2.506.626-.84.916-.463 2.821-.561 3.725-.007.05-.01 3.653-.01 5.48a6.145 6.145 0 0 1 2.635-.586c.402 0 .801.04 1.187.117.441.231-.076.528-.422.528a.454.454 0 0 1-.115-.013c-1.226.133-2.62.461-3.243 1.602-.061.206-.023.277.071.277.206 0 .68-.342.946-.342.014 0 .028 0 .04.003a7.535 7.535 0 0 1 1.581-.169c.39 0 .776.031 1.148.095.42.278-.095.534-.438.534a.532.532 0 0 1-.105-.01c-1.251.151-2.636.49-3.243 1.633-.007 1.27 0 2.11-.033 3.278.014.36-.22.538-.456.538-.235 0-.473-.176-.475-.526.009-1.15.091-2.161-.06-3.277-.304-1.253-2.477-1.445-3.827-1.754-.294-.347.285-.475.659-.475.056 0 .107.003.15.008.173-.013.347-.02.521-.02.882 0 1.771.175 2.557.58.032-.755-.711-1.19-1.244-1.493-.84-.361-1.765-.397-2.643-.59-.313-.273.18-.501.521-.501a.58.58 0 0 1 .125.012c.216-.02.432-.031.648-.031.903 0 1.805.183 2.614.582-.016-2.851-.062-5.61.02-8.308.065-.834.546-1.6 1.354-1.849.58-.264 1.227-.358 1.871-.358z"/><path d="M191.646 0l-.683.683v.707l1.214-1.213.177-.177zm3 0l-3.683 3.683v.707l4.214-4.213.177-.177zm3 0l-6.683 6.683v.707l7.214-7.213.177-.177zm2.216.784l-8.899 8.899v.707l8.9-8.899V.784zm0 3l-8.899 8.899v.707l8.9-8.899v-.707zm0 3l-8.899 8.899v.707l8.9-8.899v-.707zm0 3l-8.039 8.04-.177.176h.708l7.508-7.509v-.707zm0 3l-5.039 5.04-.177.176h.708l4.508-4.509v-.707zm0 3l-2.039 2.04-.177.176h.708l1.508-1.509v-.707z"/><path d="M200.646 0l-.784.784v.707l1.315-1.314.177-.177zm1.25 1.75l-2.034 2.034v.707l2.035-2.034V1.75zm0 3l-2.034 2.034v.707l2.035-2.034V4.75zm0 3l-2.034 2.034v.707l2.035-2.034V7.75zm0 3l-2.034 2.034v.707l2.035-2.034v-.707zm0 3l-2.034 2.034v.707l2.035-2.034v-.707zm0 3l-1.073 1.073-.177.177h.708l.543-.543v-.707zM174.22 2.99q-.557 0-1.086.606 4.368 5.2 5.46 5.81.815.457 1.434.457.21 0 .399-.053.741-.208 1.586-.234h.042q.828 0 1.817.988h.13q-.702-1.638-1.963-2.34-1.261-.702-7.397-5.148-.213-.085-.422-.085zm7.731-2.369q-.065 0-.133.01v6.683q2.054 1.196 2.834 3.354-1.196-8.268-1.677-9.204-.433-.843-1.024-.843zm5.356 10.468q.08 0 .153.138.13.247-.234.689-.208-.546-.052-.741.069-.086.133-.086zm-.037-.372q-.153 0-.33.237-.39.52.234 2.08.702-1.352.43-1.976-.15-.34-.334-.34zm-6.804 2.577v.39q.286-.026.442-.182-.052-.078-.208-.208zm-.598.884l-2.418.338-.494.884q.832-.234 1.833-.624 1-.39 1.079-.598zm5.33-.364l-.468.234-.156 1.118.416 1.274h.65l-.442-1.274v-1.352zm-1.118.39l-.442.13-.156.832.416 1.274h.65l-.442-1.274-.026-.962zm-1.534.156l-.156.806.416 1.274h.65l-.442-1.274v-.78l-.468-.026zm.994-3.234q-.415 0-.89.1-1.404.3-1.768 1.418h-1.092l-.416-.676q-5.512 1.274-6.214 4.602 1.508-.832 3.172-1.118l.728-1.456 2.886-.39-.078-.702h.988q1.092.9 2.228.9.244 0 .489-.042 1.391-.234 1.82-.95.43-.714-.455-1.3-.585-.386-1.398-.386zM181.695 0q.947 0 1.488.658.663.806 1.235 4.238l.91 5.954q.442.468.676.52h.312q.026-.65.494-1.196.416-3.978-.364-6.968l.312-.598q1.118 3.38.546 7.592h.078q1.794-4.03.52-7.592l.312-.468q1.664 3.796-.364 8.242.572 1.248.117 2.054-.455.806-.559 1.508l-.182.13q-.702-1.04-.806-1.794h-.26q-.026.598-.338 1.248l-.182 1.638.442 1.274h2.262v.624h-6.526v-.624h.546l-.416-1.274-.026-.962q-.468-.156-.702-.364-.338.312-.754.312.026.26-.104.442-1.04.806-3.718 1.404l-.91 1.768q0-.434-.27-.434-.085 0-.198.044l.728-1.3q-1.508.338-2.288.858-.416.442.052 1.066-1.04-.442-1.17-1.248.416-3.926 7.046-5.46l.468.78h.416q.338-1.092 2.678-1.508-.522-.388-1.285-.388-.414 0-.899.115-.492.116-.961.116-.844 0-1.613-.376-1.196-.585-6.084-6.461.9-1.136 1.905-1.136.329 0 .669.122l6.318 4.524V.034q.235-.034.449-.034z"/><path d="M162.854.375c9.625 0 9.625 17.25 0 17.25" fill="none" stroke="#000"/><path d="M156.557.383V.79h1.03V.383zm-1.316 1.173q.191.215.191.742h3.28q-.025-.527.167-.742zm0 1.508q.24.215.191.742h3.28q-.025-.527.167-.742zm0 1.508q.191.167.191.742h3.28q-.048-.527.167-.742zm.095 1.508q.336.598.312 1.604h2.896q-.048-1.006.311-1.604zm.312 1.771v.168h2.896V7.85zm0 .335v.168h2.896v-.168zm0 .335v.168h2.896V8.52zm0 .335v.168h2.896v-.168zm0 .335v5.817q-.216 1.077-.766 2.37h4.404q-.43-.958-.742-2.37V9.191zM157.945 0v.79h2.681q.455.383 0 .766h-1.1q-.216.215-.192.742h1.292q.455.383 0 .766h-1.1q-.216.215-.192.742h1.292q.455.383 0 .766h-1.1q-.24.215-.192.742h1.292q.455.359 0 .766h-1.1q-.432.502-.384 3.04v5.888q.168 1.316 1.173 2.992h-6.558q1.149-1.915 1.268-2.992V9.12q.12-2.514-.407-3.04h-1.125q-.478-.36 0-.766h1.293q.024-.575-.168-.742h-1.196q-.407-.407.071-.766h1.293q.024-.527-.168-.742h-1.125q-.454-.383 0-.766h1.293q.024-.527-.168-.742h-1.125q-.454-.383 0-.766h2.681V0zM146.94.383V.79h1.029V.383zm-1.317 1.173q.191.215.191.742h3.28q-.024-.527.167-.742zm0 1.508q.24.215.191.742h3.28q-.024-.527.167-.742zm0 1.508q.191.167.191.742h3.28q-.048-.527.167-.742zm.096 1.508q.335.598.31 1.604h2.897q-.048-1.006.311-1.604zm.31 1.771v.168h2.897V7.85zm0 .335v.168h2.897v-.168zm0 .335v.168h2.897V8.52zm0 .335v.168h2.897v-.168zm0 .335v5.817q-.215 1.077-.765 2.37h4.404q-.43-.958-.742-2.37V9.191zm2.3-9.191v.79h2.68q.455.383 0 .766h-1.1q-.216.215-.192.742h1.293q.454.383 0 .766h-1.101q-.216.215-.192.742h1.293q.454.383 0 .766h-1.101q-.24.215-.192.742h1.293q.454.359 0 .766h-1.101q-.431.502-.383 3.04v5.888q.167 1.316 1.172 2.992h-6.558q1.149-1.915 1.269-2.992V9.12q.12-2.514-.407-3.04h-1.125q-.48-.36 0-.766h1.292q.024-.575-.167-.742h-1.197q-.407-.407.072-.766h1.292q.024-.527-.167-.742h-1.125q-.455-.383 0-.766h1.292q.024-.527-.167-.742h-1.125q-.455-.383 0-.766h2.68V0z"/><path d="M133.93.375v17.25m7.688-17.25c-9.625 0-9.625 17.25 0 17.25m0 0" fill="none" stroke="#000"/><path d="M125.961.597a2.12 2.12 0 0 0-.692.109c.031.223.169.569.953.773-.73-.053-1.206-.113-1.452-.307-.09.2-.137.427-.159.556a.297.297 0 0 1-.206.237c-.624.191-1.173 1.112-1.7 1.763-.95 1.173-1.771 2.48-2.688 3.733l1.27-.622c1.182-.622 2.395-1.11 3.407-1.877.589-.49 1.172-.996 1.39-1.641.076-.497-.296-1.074-.767-1.279a.297.297 0 1 1 .238-.545c.377.164.7.458.904.817a1.986 1.986 0 0 0-.075-.448.297.297 0 0 1-.012-.104c.01-.184.041-.313.082-.422.04-.109.085-.206.157-.459a.297.297 0 0 1 .105-.153 1.546 1.546 0 0 0-.527-.125c-.043-.003-.084-.003-.125-.004a.258.258 0 1 1-.103-.002zm-1.193 5.432c-.606.466-1.253.873-1.888 1.28a13 13 0 0 1-.047 1.321c.206-.135.434-.236.697-.3.39-.636.82-1.22 1.082-1.842.054-.129.105-.29.156-.46zm.248 1c-.273.549-.62 1.04-.928 1.529.059.04.112.08.155.121l.027.027a1.72 1.72 0 0 1 .613-.454c-.01-.348.047-.768.133-1.222zm-2.88.047a25.922 25.922 0 0 0-.588.297c-.78.38-1.56.772-2.349 1.148-.556.67-1.157 1.293-1.735 1.92l1.044.175 2.562-2.786a.297.297 0 0 1 .04-.036 18.5 18.5 0 0 1 1.026-.718zm2.592 2.009c-.058.066-.112.14-.162.222a.298.298 0 0 1-.43.087c-.124-.09-.2-.177-.265-.244l-.077 1.413c.1-.006.201-.013.296-.013.167 0 .314.022.398.108.1-.078.28-.1.504-.1.058 0 .118.002.18.005l-.444-1.478zm5.418.999c-.451.062-.686.323-.704.783h1.395c0-.46-.23-.721-.69-.783zm-7.86-2.39a16.38 16.38 0 0 0-.798.56l-2.403 2.613h2.456c.171-.19.519-.365.776-.365.074 0 .14.014.192.046.082-.007.168-.01.256-.01.14 0 .286.007.434.016l.082-1.506c-.224.115-.407.282-.625.542a.297.297 0 0 1-.52-.246c.1-.544.142-1.093.15-1.65zm6.24 3.745l.266.465h1.248l.252-.465zm-4.516 0v2.51l1.727-2.51zM125.954 0a3.878 3.878 0 0 1 .272.01c.695.044 1.215.325 1.408.768a.298.298 0 0 1-.34.408l-.025-.006-.03.007-.108.029c-.055.168-.096.269-.12.332a.541.541 0 0 0-.042.2c.154.552.094 1.107.036 1.389-.095.466-.384.977-.761 1.46a.295.295 0 0 1-.014.108 21.24 21.24 0 0 0-.548 2.027c-.152.708-.233 1.387-.192 1.684a.297.297 0 0 1-.223.33l-.019.005.527 1.75c.086-.013.173-.018.26-.018.256 0 .509.041.712.041a.865.865 0 0 0 .183-.016.314.314 0 0 1 .068-.007c.212 0 .657.13.787.366h1.1c.062-.797.482-1.235 1.261-1.315.788.08 1.196.518 1.222 1.315v.572h-.53l-.546 1.01h-1.766l-.531-1.01h-1.568l-2.404 3.493V18h-.571v-6.561h-4.516v-.41l-.1.109a.297.297 0 0 1-.268.092l-1.74-.292a.298.298 0 0 1-.173-.492c.217-.242.437-.48.657-.716l-1.657 1.078a.296.296 0 0 1-.411-.087.297.297 0 0 1 .087-.411l1.344-.876a.292.292 0 0 1-.076-.09.315.315 0 0 1-.02-.237.305.305 0 0 1 .048-.093c.055-.076.084-.088.124-.119l.13-.094c.096-.065.207-.137.301-.2a4.156 4.156 0 0 0 .217-.156l2.378-1.672.008-.005c.806-1.13 1.568-2.316 2.457-3.414.433-.535.938-1.524 1.812-1.894.048-.262.157-.68.484-.997.353-.344.863-.463 1.416-.463zM63.766 7.458v1.656c.566 0 .848-.283.848-.848 0-.539-.282-.808-.848-.808zM61.671 0c.463 0 .855.116 1.176.35.613.443.92 1.09.92 1.938v4.584c.942 0 1.42.465 1.433 1.394 0 .942-.478 1.413-1.434 1.413V18h-.746V2.732c0-1.023-.199-1.68-.596-1.969-.206-.15-.476-.225-.838-.225-.337 0-.754.065-1.273.195a.65.65 0 0 1-.213.043c-.11 0-.188-.048-.232-.144-.013-.162.108-.276.364-.343C60.77.096 61.25 0 61.672 0zm-8.169.601c-1.074 0-2.418.552-3.069 1.202-.569.57-.643 1.324-.664 2.025h7.435c-.02-.7-.095-1.455-.664-2.025-.651-.65-1.964-1.202-3.038-1.202zm0-.601c1.274 0 2.645.589 3.449 1.392.824.824.917 1.91.917 2.72v.317h-8.732v-.316c0-.812.062-1.897.886-2.72C50.826.588 52.228 0 53.502 0zm1.187 9.627c5.439 1.9 2.904 9.54-2.195 8.228-5.054-1.302-4.045-9.318 2.195-8.228m-.243.698c-5.417-.787-5.639 5.768-1.708 6.812 3.846 1.022 6.482-5.13 1.708-6.812m-1.188 1.152c-1.083-.74.884-.487 0-.018v.018m1.985.433c-1.227-.397.343-.795 0-.073v.073m-2.993-.712v.732l-.73-.244.73-.488m3.571 2.066c-.903-.795.595-.885.108-.09l-.108.09m-2.839-.846l.244.731-.732-.487.488-.244m1.052.358l.072-.017c.668-.489 1.39 1.767-.072.017m-3.014-.397c.957.56-.162.703-.253.703l.253-.703m2.938 1.502l-.244.244-.488-.732.732.488m-1.674-.474l.468.019c-.559.866-.757.793-.468-.019m3.68 1.517c-.883-.74.434-.632.416-.488l-.415.488m-1.01-.903l-.221.305c-.718-.215-.34-.792.22-.305m-3.435.836l-.244.244-.488-.732.732.488m1.323.012c.759-.378.92-.27.47.344l-.47-.344m2.58.72l-.245.731-.488-.732h.732m-3.246-.465l.45.54c-.106.217-1.1.145-.45-.54m1.54.71l.243.731h-.732l.488-.732zM43.522 0c.957.012 1.835.245 2.498.785.687.546 1.122 1.393 1.116 2.43v5.179h-.712V3.209c0-.847-.319-1.448-.846-1.871-.51-.405-1.227-.626-2.037-.626h-.099c-.803 0-1.527.22-2.037.626-.527.423-.846 1.024-.846 1.871v5.185h-.712V3.215c-.006-1.037.43-1.884 1.117-2.43.662-.54 1.54-.773 2.497-.785zm0 9.606c.957.012 1.835.246 2.498.785.687.547 1.122 1.393 1.116 2.43V18h-.712v-5.185c0-.847-.319-1.448-.846-1.871-.51-.405-1.227-.626-2.037-.626h-.099c-.803 0-1.527.22-2.037.626-.527.423-.846 1.024-.846 1.871V18h-.712v-5.179c-.006-1.037.43-1.883 1.117-2.43.662-.54 1.54-.773 2.497-.785zM37.847 0v7.35h-.735V0zm-4.37 0v7.35h-.736V0zm-4.371 0v7.35h-.735V0zm-4.371 0v7.35H24V0zm13.112 10.65V18h-.735v-7.35zm-4.37 0V18h-.736v-7.35zm-4.371 0V18h-.735v-7.35zm-4.371 0V18H24v-7.35zM0 0v.354L.177.177.354 0zm2.646 0L0 2.646v.708L3.177.177 3.354 0zm3 0L0 5.646v.708L6.177.177 6.354 0zm3 0L0 8.646v.708L9.177.177 9.354 0zM0 9.354zM11.646 0L0 11.646v.708L12.177.177 12.354 0zm3 0L0 14.646v.708L15.177.177 15.354 0zm3 0L0 17.646V18h.354L18.177.177 18.354 0zm3 0L2.823 17.823 2.646 18h.708L21.177.177 21.354 0zM22 1.646L5.823 17.823 5.646 18h.708L22 2.354v-.708zm0 3L8.823 17.823 8.646 18h.708L22 5.354v-.708zm0 3L11.823 17.823l-.177.177h.708L22 8.354v-.708zm0 3l-7.177 7.177-.177.177h.708L22 11.354v-.708zm0 3l-4.177 4.177-.177.177h.708L22 14.354v-.708zm0 3l-1.177 1.177-.177.177h.708l.646-.646v-.708z"/></svg>