<svg xmlns="http://www.w3.org/2000/svg" width="324.292" height="18"><path d="M315.031 7.92c-.296 0-.475.05-.567.103-.27.171-.141.583-.098.84h1.33c.032-.263.177-.664-.098-.84-.092-.053-.27-.103-.567-.103zm7.39 1.551v.924h1.262v-.924zm-6.556 0v.924h6.252v-.924zm-1.52 0v.924h1.216v-.924zm-6.105 0v.924h5.8v-.924zm-1.631 0v.924h1.328v-.924zm11.093-2.475l.43.43-1.44 1.436h7.6v2.142H306V8.862h7.37l-1.44-1.435.43-.431 1.331 1.327c.08-.805.631-.99 1.34-1.012.757.02 1.222.191 1.34 1.012l1.33-1.327z"/><path d="M306 0v.354l.177-.177.177-.177zm2.646 0L306 2.647v.707l3.177-3.177.177-.177zm3 0L306 5.647v.707l6.177-6.177.177-.177zm3 0L306 8.647v.707l9.177-9.177.177-.177zm3 0L306 11.647v.707L318.177.177l.177-.177zm3 0L306 14.647v.707L321.177.177l.177-.177zm3 0L306 17.647V18h.354L324.177.177l.115-.115V0zm.646 2.355l-15.469 15.468-.177.177h.708l14.938-14.938v-.707zm0 3l-12.469 12.468-.177.177h.708l11.938-11.938v-.707zm0 3l-9.469 9.468-.177.177h.708l8.938-8.938v-.707zm0 3l-6.469 6.468-.177.177h.708l5.938-5.938v-.707zm0 3l-3.469 3.468-.177.177h.708l2.938-2.938v-.707zm0 3l-.469.468-.177.177h.646v-.645z"/><path d="M326.292.355l-2 2v.707l2-2V.355zm0 3l-2 2v.707l2-2v-.707zm0 3l-2 2v.707l2-2v-.707zm0 3l-2 2v.707l2-2v-.707zm0 3l-2 2v.707l2-2v-.707zm0 3l-2 2V18h.062l1.938-1.938v-.707zM302.353 0c.335 0 .67.026.994.066.448.113.218.626-.18.626a.476.476 0 0 1-.081-.008c-.84.097-1.872.15-2.506.626-.841.916-.463 2.821-.561 3.725-.007.05-.01 3.653-.01 5.48a6.145 6.145 0 0 1 2.634-.586c.402 0 .802.04 1.188.117.441.231-.076.528-.422.528a.454.454 0 0 1-.115-.013c-1.226.133-2.62.461-3.243 1.602-.061.206-.023.277.07.277.207 0 .68-.342.947-.342.014 0 .028 0 .04.003a7.535 7.535 0 0 1 1.58-.169 6.8 6.8 0 0 1 1.149.095c.42.278-.096.534-.438.534a.532.532 0 0 1-.105-.01c-1.251.151-2.636.49-3.243 1.633-.007 1.27 0 2.11-.033 3.278.014.36-.22.538-.457.538-.235 0-.473-.176-.474-.526.009-1.15.09-2.161-.06-3.277-.304-1.253-2.477-1.445-3.827-1.754-.295-.347.285-.475.659-.475.055 0 .106.003.15.008a6.93 6.93 0 0 1 .52-.02c.883 0 1.772.175 2.558.58.032-.755-.711-1.19-1.244-1.493-.84-.361-1.765-.397-2.643-.59-.313-.273.18-.501.521-.501a.58.58 0 0 1 .125.012 7.01 7.01 0 0 1 .648-.031c.902 0 1.804.183 2.614.582-.016-2.851-.063-5.61.02-8.308.065-.834.545-1.6 1.354-1.849.58-.264 1.227-.358 1.87-.358zM284.94.589c-1.052 0-2.368.54-3.005 1.177-.557.557-.63 1.296-.65 1.982h7.28c-.021-.686-.094-1.425-.651-1.982-.637-.637-1.922-1.177-2.974-1.177zm0-.589c1.248 0 2.59.576 3.377 1.363.807.807.898 1.87.898 2.664v.31h-8.55v-.31c0-.795.06-1.857.868-2.664C282.319.576 283.693 0 284.94 0zm6.19 15.62l2.013 2.38h-.981l-1.031-1.23L290.09 18l-1.011-1.23-1.041 1.23-1.031-1.23-1.04 1.23-1.032-1.23-1.04 1.23-1.012-1.23-1.04 1.23-1.042-1.23-1.01 1.23-1.042-1.23-1.03 1.23h-.982l2.012-2.38 1.041 1.15 1.011-1.15 1.041 1.15 1.041-1.15 1.011 1.15 1.041-1.15 1.031 1.15 1.04-1.15 1.032 1.15 1.04-1.15 1.012 1.15 1.04-1.15zM269.372.597a2.12 2.12 0 0 0-.692.109c.031.223.169.569.953.773-.73-.053-1.207-.113-1.453-.307-.089.2-.137.427-.158.556a.297.297 0 0 1-.206.237c-.625.191-1.174 1.112-1.7 1.763-.95 1.173-1.772 2.48-2.688 3.733.423-.207.845-.415 1.27-.622 1.182-.622 2.394-1.11 3.406-1.877.59-.49 1.172-.996 1.391-1.641.076-.497-.296-1.074-.767-1.279a.297.297 0 1 1 .238-.545c.376.164.699.458.904.817a1.986 1.986 0 0 0-.075-.448.297.297 0 0 1-.013-.104c.01-.184.042-.313.082-.422.041-.109.085-.206.158-.459a.297.297 0 0 1 .104-.153 1.546 1.546 0 0 0-.527-.125c-.042-.003-.083-.003-.125-.004a.258.258 0 1 1-.102-.002zm-1.194 5.432c-.605.466-1.253.873-1.888 1.28.005.438-.006.879-.047 1.321.207-.135.434-.236.697-.3.391-.636.82-1.22 1.083-1.842a4.64 4.64 0 0 0 .155-.46zm.249 1c-.273.549-.621 1.04-.928 1.529.058.04.112.08.154.121l.027.027c.17-.194.375-.351.614-.454-.01-.348.047-.768.133-1.222zm-2.88.047a25.922 25.922 0 0 0-.588.297c-.78.38-1.56.772-2.35 1.148-.556.67-1.156 1.293-1.734 1.92l1.043.175 2.563-2.786a.297.297 0 0 1 .04-.036c.333-.253.678-.489 1.025-.718zm2.591 2.009c-.058.066-.112.14-.161.222a.298.298 0 0 1-.43.087c-.124-.09-.2-.177-.265-.244l-.077 1.413c.1-.006.2-.013.296-.013.166 0 .313.022.397.108.1-.078.28-.1.505-.1.057 0 .118.002.18.005l-.445-1.478zm5.419.999c-.452.062-.686.323-.704.783h1.395c0-.46-.23-.721-.691-.783zm-7.861-2.39a16.38 16.38 0 0 0-.798.56l-2.402 2.613h2.456c.17-.19.518-.365.776-.365a.37.37 0 0 1 .192.046c.081-.007.167-.01.256-.01.14 0 .285.007.433.016l.083-1.506c-.225.115-.407.282-.626.542a.297.297 0 0 1-.52-.246 9.773 9.773 0 0 0 .15-1.65zm6.24 3.745l.266.465h1.249l.252-.465zm-4.516 0v2.51l1.727-2.51zM269.364 0a3.878 3.878 0 0 1 .273.01c.694.044 1.215.325 1.408.768a.298.298 0 0 1-.341.408l-.025-.006-.03.007-.108.029c-.054.168-.096.269-.12.332a.541.541 0 0 0-.042.2 3.1 3.1 0 0 1 .037 1.389c-.095.466-.384.977-.761 1.46a.295.295 0 0 1-.014.108 21.24 21.24 0 0 0-.548 2.027c-.153.708-.234 1.387-.192 1.684a.297.297 0 0 1-.223.33l-.019.005.527 1.75c.085-.013.172-.018.259-.018.256 0 .51.041.712.041a.865.865 0 0 0 .184-.016.314.314 0 0 1 .068-.007c.212 0 .656.13.787.366h1.1c.061-.797.482-1.235 1.26-1.315.789.08 1.196.518 1.223 1.315v.572h-.531l-.545 1.01h-1.767l-.53-1.01h-1.568l-2.404 3.493V18h-.571v-6.561h-4.517v-.41l-.1.109a.297.297 0 0 1-.267.092l-1.74-.292a.298.298 0 0 1-.173-.492c.217-.242.436-.48.656-.716l-1.656 1.078a.296.296 0 0 1-.412-.087.297.297 0 0 1 .087-.411l1.345-.876a.292.292 0 0 1-.076-.09.315.315 0 0 1-.02-.237c.016-.05.034-.074.048-.093.055-.076.084-.088.123-.119.04-.03.083-.06.131-.094.096-.065.206-.137.301-.2a4.156 4.156 0 0 0 .216-.156l2.379-1.672.008-.005c.805-1.13 1.568-2.316 2.457-3.414.433-.535.937-1.524 1.812-1.894.048-.262.156-.68.483-.997.353-.344.864-.463 1.416-.463zm-12.712 0v7.197h-.72V0zm-4.28 0v7.197h-.719V0zm-4.278 0v7.197h-.72V0zm8.558 10.803V18h-.72v-7.197zm-4.28 0V18h-.719v-7.197zm-4.278 0V18h-.72v-7.197z"/><path d="M248.646 9l-1.272 1.273v.707l1.803-1.803.177-.177zm3 0l-4.272 4.273v.707l4.803-4.803.177-.177zm3 0l-7.272 7.273v.707l7.803-7.803.177-.177zm3 0l-8.823 8.823-.177.177h.708l8.823-8.823.177-.177zm3 0l-8.823 8.823-.177.177h.708l8.823-8.823.177-.177zm3 0l-8.823 8.823-.177.177h.708l8.823-8.823.177-.177zm3 0l-8.823 8.823-.177.177h.708l8.823-8.823.177-.177zm3 0l-8.823 8.823-.177.177h.708l8.823-8.823.177-.177zm3 0l-8.823 8.823-.177.177h.708l8.823-8.823.177-.177zm3 0l-8.823 8.823-.177.177h.708l8.823-8.823.177-.177zm3 0l-8.823 8.823-.177.177h.708l8.823-8.823.177-.177zm3 0l-8.823 8.823-.177.177h.708l8.823-8.823.177-.177zm3 0l-8.823 8.823-.177.177h.708l8.823-8.823.177-.177zm3 0l-8.823 8.823-.177.177h.708l8.823-8.823.177-.177zm3 0l-8.823 8.823-.177.177h.708l8.823-8.823.177-.177zm3 0l-8.823 8.823-.177.177h.708l8.823-8.823.177-.177zm3 0l-8.823 8.823-.177.177h.708l8.823-8.823.177-.177zm3 0l-8.823 8.823-.177.177h.708l8.823-8.823.177-.177zm3 0l-8.823 8.823-.177.177h.708l8.823-8.823.177-.177zM304 10.647l-7.177 7.176-.177.177h.708L304 11.354v-.707zm0 3l-4.177 4.176-.177.177h.708L304 14.354v-.707zm0 3l-1.177 1.176-.177.177h.708l.646-.646v-.707zM240.424 1.343q.089.166.199.364l.187 1.091q0 .573-.187 1.07-.199.43-.496.771 1.995-.364 3.593-.54-1.003-.595-1.576-1.323-.584-.727-1.72-1.433zm-4.707-.088q-.606.044-2.039.915-1.433.86-2.954 1.422 1.113.066 2.425.474 1.323.397 2.778.595-.232-.275-.463-.782-.22-.508-.22-1.08 0-.585.209-1.092.11-.243.264-.452zm2.32-.508q-.38 0-.732.155-.375.155-.662.42-.286.253-.463.616-.143.364-.165.783-.022.419.132.783.166.364.42.65.264.298.628.463.363.154.782.165l.054.001q.38 0 .729-.144.375-.154.661-.408.276-.253.441-.617.155-.364.177-.794 0-.408-.155-.771-.143-.364-.397-.65-.264-.298-.628-.442-.364-.198-.772-.21h-.05zm.06-.747q.721 0 1.423.153 1.522.33 3.087 1.973 1.565 1.631 2.745 1.742l.022.771q-2.679.232-5.258.706-.965.177-2.03.177-1.782 0-3.846-.497-3.285-.794-4.167-.96h-1.455v-.947h1.5q1.069-.364 2.866-1.444 1.785-1.08 3.406-1.466.866-.208 1.707-.208zm5.222 15.57l2.055 2.43h-1.002l-1.053-1.255L242.256 18l-1.033-1.255L240.16 18l-1.053-1.255L238.044 18l-1.053-1.255L235.928 18l-1.033-1.255L233.832 18l-1.063-1.255L231.737 18l-1.063-1.255L229.62 18h-1.003l2.056-2.43 1.063 1.175 1.032-1.175 1.063 1.175 1.063-1.175 1.033 1.175 1.063-1.175 1.053 1.175 1.063-1.175 1.053 1.175 1.063-1.175 1.033 1.175 1.063-1.175zm-18.135-8.112v1.656c.566 0 .849-.283.849-.848 0-.539-.283-.808-.849-.808zM223.09 0c.463 0 .855.116 1.176.35.612.443.918 1.09.918 1.938v4.584c.943 0 1.42.465 1.434 1.394 0 .942-.478 1.413-1.434 1.413V18h-.746V2.732c0-1.023-.198-1.68-.596-1.969-.205-.15-.476-.225-.838-.225-.337 0-.754.065-1.273.195a.65.65 0 0 1-.212.043c-.111 0-.189-.048-.232-.144-.014-.162.107-.276.363-.343.54-.193 1.02-.289 1.44-.289zm-8.17.601c-1.073 0-2.418.552-3.068 1.202-.57.57-.644 1.324-.665 2.025h7.435c-.02-.7-.095-1.455-.664-2.025-.65-.65-1.963-1.202-3.037-1.202zm0-.601c1.275 0 2.646.589 3.45 1.392.823.824.917 1.91.917 2.72v.317h-8.732v-.316c0-.812.061-1.897.886-2.72C212.244.588 213.647 0 214.92 0zm1.187 9.627c5.439 1.9 2.904 9.54-2.195 8.228-5.053-1.302-4.045-9.318 2.195-8.228m-.242.698c-5.418-.787-5.64 5.768-1.708 6.812 3.846 1.022 6.482-5.13 1.708-6.812m-1.19 1.152c-1.081-.74.886-.487 0-.018v.018m1.986.433c-1.227-.397.344-.795 0-.073v.073m-2.992-.712v.732l-.731-.244.73-.488m3.571 2.066c-.903-.795.596-.885.109-.09l-.109.09m-2.838-.846l.244.731-.733-.487.489-.244m1.051.358l.072-.017c.668-.489 1.39 1.767-.072.017m-3.013-.397c.956.56-.162.703-.254.703l.254-.703m2.937 1.502l-.244.244-.487-.732.731.488m-1.674-.474l.469.019c-.56.866-.757.793-.469-.019m3.681 1.517c-.884-.74.433-.632.415-.488l-.415.488m-1.01-.903l-.221.305c-.718-.215-.34-.792.22-.305m-3.434.836l-.244.244-.488-.732.732.488m1.323.012c.758-.378.92-.27.47.344l-.47-.344m2.579.72l-.245.731-.488-.732h.733m-3.246-.465l.45.54c-.107.217-1.1.145-.45-.54m1.538.71l.244.731h-.731l.487-.732z"/><path d="M212.646 0l-2.091 2.092v.707l2.622-2.622.177-.177zm3 0l-5.091 5.092v.707l5.622-5.622.177-.177zm3 0l-8.091 8.092v.707l8.622-8.622.11-.11V0zm.64 2.36l-8.731 8.732v.707l8.732-8.732V2.36zm0 3l-8.731 8.732v.707l8.732-8.732V5.36zm0 3l-8.731 8.732v.707l8.732-8.732V8.36zm0 3l-6.463 6.463-.177.177h.708l5.933-5.933v-.707zm0 3l-3.463 3.463-.177.177h.708l2.933-2.933v-.707zm0 3l-.463.463-.177.177h.64v-.64zm2.001-17l-2 2v.707l2-2V.36zm0 3l-2 2v.707l2-2V3.36zm0 3l-2 2v.707l2-2V6.36zm0 3l-2 2v.707l2-2V9.36zm0 3l-2 2v.707l2-2v-.707zm0 3l-2 2V18h.067l1.933-1.933v-.707zM205.76 3.644c.4 0 .823.084 1.267.253.922.351 1.431 1.215 1.528 2.592-.042 1.308-.572 2.54-1.59 3.696-.813 1.005-1.315 1.659-1.508 1.962-.51.757-.812 1.493-.908 2.21h-.888c.137-1.02.544-2.01 1.218-2.974a47.457 47.457 0 0 1 1.9-2.354c.716-1.143.994-2.151.836-3.026-.158-.874-.64-1.355-1.445-1.445a3.552 3.552 0 0 0-.392-.023c-.597 0-1.024.18-1.28.54-.31.433-.376.922-.197 1.465.152.462.438.693.858.693.075 0 .153-.007.236-.022.551-.096.764-.433.64-1.011l.455-.868c.358.386.52.792.485 1.219-.034.426-.224.805-.568 1.135-.3.289-.687.433-1.16.433a2.53 2.53 0 0 1-.213-.01c-.571-.047-1.012-.292-1.322-.732-.31-.44-.433-1.03-.371-1.766s.46-1.294 1.197-1.672c.383-.197.79-.295 1.222-.295zM179.646 0l-.32.32v.707l.85-.85.178-.177zm3 0l-3.32 3.32v.707l3.85-3.85.178-.177zm3 0l-6.32 6.32v.707l6.85-6.85.178-.177zm3 0l-9.32 9.32v.707l9.85-9.85.178-.177zm3 0l-12.32 12.32v.707l12.85-12.85.178-.177zm3 0l-15.32 15.32v.707l15.85-15.85.178-.177zm3 0l-17.823 17.823-.177.177h.708L198.177.177l.177-.177zm3 0l-17.823 17.823-.177.177h.708L201.177.177l.15-.15V0zm.68 2.32l-15.503 15.503-.177.177h.708l14.972-14.973V2.32zm0 3l-12.503 12.503-.177.177h.708l11.972-11.973V5.32zm0 3l-9.503 9.503-.177.177h.708l8.972-8.973V8.32zm0 3l-6.503 6.503-.177.177h.708l5.972-5.973v-.707zm0 3l-3.503 3.503-.177.177h.708l2.972-2.973v-.707zm0 3l-.503.503-.177.177h.68v-.68z"/><path d="M203.326.32l-2 2v.707l2-2V.32zm0 3l-2 2v.707l2-2V3.32zm0 3l-2 2v.707l2-2V6.32zm0 3l-2 2v.707l2-2V9.32zm0 3l-2 2v.707l2-2v-.707zm0 3l-2 2V18h.028l1.972-1.973v-.707zM155.646 0l-.32.32v.707l.85-.85.178-.177zm3 0l-3.32 3.32v.707l3.85-3.85.178-.177zm3 0l-6.32 6.32v.707l6.85-6.85.178-.177zm3 0l-9.32 9.32v.707l9.85-9.85.178-.177zm3 0l-12.32 12.32v.707l12.85-12.85.178-.177zm3 0l-15.32 15.32v.707l15.85-15.85.178-.177zm3 0l-17.823 17.823-.177.177h.708L174.177.177l.177-.177zm3 0l-17.823 17.823-.177.177h.708L177.177.177l.15-.15V0zm.68 2.32l-15.503 15.503-.177.177h.708l14.972-14.973V2.32zm0 3l-12.503 12.503-.177.177h.708l11.972-11.973V5.32zm0 3l-9.503 9.503-.177.177h.708l8.972-8.973V8.32zm0 3l-6.503 6.503-.177.177h.708l5.972-5.973v-.707zm0 3l-3.503 3.503-.177.177h.708l2.972-2.973v-.707zm0 3l-.503.503-.177.177h.68v-.68z"/><path d="M179.326.32l-2 2v.707l2-2V.32zm0 3l-2 2v.707l2-2V3.32zm0 3l-2 2v.707l2-2V6.32zm0 3l-2 2v.707l2-2V9.32zm0 3l-2 2v.707l2-2v-.707zm0 3l-2 2V18h.028l1.972-1.973v-.707zM131.646 0l-.32.32v.707l.85-.85.178-.177zm3 0l-3.32 3.32v.707l3.85-3.85.178-.177zm3 0l-6.32 6.32v.707l6.85-6.85.178-.177zm3 0l-9.32 9.32v.707l9.85-9.85.178-.177zm3 0l-12.32 12.32v.707l12.85-12.85.178-.177zm3 0l-15.32 15.32v.707l15.85-15.85.178-.177zm3 0l-17.823 17.823-.177.177h.708L150.177.177l.177-.177zm3 0l-17.823 17.823-.177.177h.708L153.177.177l.15-.15V0zm.68 2.32l-15.503 15.503-.177.177h.708l14.972-14.973V2.32zm0 3l-12.503 12.503-.177.177h.708l11.972-11.973V5.32zm0 3l-9.503 9.503-.177.177h.708l8.972-8.973V8.32zm0 3l-6.503 6.503-.177.177h.708l5.972-5.973v-.707zm0 3l-3.503 3.503-.177.177h.708l2.972-2.973v-.707zm0 3l-.503.503-.177.177h.68v-.68z"/><path d="M155.326.32l-2 2v.707l2-2V.32zm0 3l-2 2v.707l2-2V3.32zm0 3l-2 2v.707l2-2V6.32zm0 3l-2 2v.707l2-2V9.32zm0 3l-2 2v.707l2-2v-.707zm0 3l-2 2V18h.028l1.972-1.973v-.707zM107.646 0l-.32.32v.707l.85-.85.178-.177zm3 0l-3.32 3.32v.707l3.85-3.85.178-.177zm3 0l-6.32 6.32v.707l6.85-6.85.178-.177zm3 0l-9.32 9.32v.707l9.85-9.85.178-.177zm3 0l-12.32 12.32v.707l12.85-12.85.178-.177zm3 0l-15.32 15.32v.707l15.85-15.85.178-.177zm3 0l-17.823 17.823-.177.177h.708L126.177.177l.177-.177zm3 0l-17.823 17.823-.177.177h.708L129.177.177l.15-.15V0zm.68 2.32l-15.503 15.503-.177.177h.708l14.972-14.973V2.32zm0 3l-12.503 12.503-.177.177h.708l11.972-11.973V5.32zm0 3l-9.503 9.503-.177.177h.708l8.972-8.973V8.32zm0 3l-6.503 6.503-.177.177h.708l5.972-5.973v-.707zm0 3l-3.503 3.503-.177.177h.708l2.972-2.973v-.707zm0 3l-.503.503-.177.177h.68v-.68z"/><path d="M131.326.32l-2 2v.707l2-2V.32zm0 3l-2 2v.707l2-2V3.32zm0 3l-2 2v.707l2-2V6.32zm0 3l-2 2v.707l2-2V9.32zm0 3l-2 2v.707l2-2v-.707zm0 3l-2 2V18h.028l1.972-1.973v-.707zM83.646 0l-.32.32v.707l.85-.85.178-.177zm3 0l-3.32 3.32v.707l3.85-3.85.178-.177zm3 0l-6.32 6.32v.707l6.85-6.85.178-.177zm3 0l-9.32 9.32v.707l9.85-9.85.178-.177zm3 0l-12.32 12.32v.707L96.176.177 96.355 0zm3 0l-15.32 15.32v.707L99.176.177 99.355 0zm3 0L83.823 17.823l-.177.177h.708L102.177.177l.177-.177zm3 0L86.823 17.823l-.177.177h.708L105.177.177l.15-.15V0zm.68 2.32L89.823 17.823l-.177.177h.708l14.972-14.973V2.32zm0 3L92.823 17.823l-.177.177h.708l11.972-11.973V5.32zm0 3l-9.503 9.503-.177.177h.708l8.972-8.973V8.32zm0 3l-6.503 6.503-.177.177h.708l5.972-5.973v-.707zm0 3l-3.503 3.503-.177.177h.708l2.972-2.973v-.707zm0 3l-.503.503-.177.177h.68v-.68z"/><path d="M107.326.32l-2 2v.707l2-2V.32zm0 3l-2 2v.707l2-2V3.32zm0 3l-2 2v.707l2-2V6.32zm0 3l-2 2v.707l2-2V9.32zm0 3l-2 2v.707l2-2v-.707zm0 3l-2 2V18h.028l1.972-1.973v-.707zm-35.26-7.4c-.297 0-.475.05-.568.103-.269.171-.14.583-.097.84h1.33c.032-.263.177-.664-.098-.84-.092-.053-.27-.103-.567-.103zm7.39 1.551v.924h1.261v-.924zm-6.557 0v.924h6.252v-.924zm-1.52 0v.924h1.217v-.924zm-6.104 0v.924h5.8v-.924zm-1.632 0v.924h1.328v-.924zm11.093-2.475l.43.43-1.439 1.436h7.6v2.142H63.033V8.862h7.37l-1.44-1.435.431-.431 1.33 1.327c.08-.805.632-.99 1.34-1.012.758.02 1.223.191 1.34 1.012l1.331-1.327zM56.325 9.12c.332 0 .682.07 1.05.21.765.29 1.187 1.006 1.267 2.148-.034 1.084-.474 2.105-1.318 3.064-.674.833-1.09 1.375-1.25 1.626-.422.628-.673 1.239-.753 1.832h-.736c.114-.845.45-1.666 1.01-2.465.49-.65 1.016-1.301 1.575-1.952.593-.947.824-1.783.693-2.508-.131-.724-.53-1.124-1.198-1.198a2.945 2.945 0 0 0-.325-.019c-.495 0-.849.15-1.062.447-.257.36-.31.765-.162 1.216.126.382.363.574.711.574.062 0 .127-.006.196-.018.456-.08.633-.36.53-.839l.377-.719c.297.32.43.656.402 1.01-.028.354-.185.668-.47.942-.25.239-.57.358-.963.358-.057 0-.116-.002-.176-.007-.473-.04-.839-.243-1.095-.608-.257-.365-.36-.853-.309-1.464.052-.61.383-1.073.993-1.386a2.184 2.184 0 0 1 1.013-.245zM46.946 0c1.084 0 2.169.639 2.667 1.903.432 1.098.28 3.186.28 4.414h-.735c0-.962.112-2.825-.159-3.677C48.65 1.542 47.794.966 46.936.966c-.769 0-1.539.464-1.943 1.432-.377.9-.247 2.884-.247 3.919h-.735c0-1.229-.152-3.315.28-4.414C44.794.63 45.87 0 46.947 0zm-8.513 0c1.084 0 2.168.639 2.667 1.903.432 1.098.28 3.186.28 4.414h-.735c0-.962.112-2.825-.159-3.677-.349-1.098-1.205-1.674-2.063-1.674-.77 0-1.539.464-1.943 1.432-.377.9-.247 2.884-.247 3.919h-.735c0-1.229-.152-3.315.28-4.414C36.28.63 37.357 0 38.434 0zm8.513 11.683c1.084 0 2.169.639 2.667 1.904.432 1.098.28 3.186.28 4.413h-.735c0-.962.112-2.825-.159-3.676-.349-1.098-1.205-1.675-2.063-1.675-.769 0-1.539.464-1.943 1.432-.377.9-.247 2.884-.247 3.919h-.735c0-1.228-.152-3.314.28-4.413.502-1.273 1.579-1.904 2.655-1.904zm-8.513 0c1.084 0 2.168.639 2.667 1.904.432 1.098.28 3.186.28 4.413h-.735c0-.962.112-2.825-.159-3.676-.349-1.098-1.205-1.675-2.063-1.675-.77 0-1.539.464-1.943 1.432-.377.9-.247 2.884-.247 3.919h-.735c0-1.228-.152-3.314.28-4.413.502-1.273 1.578-1.904 2.655-1.904zm-4.957-6.358v7.35h-.735v-7.35zm-4.37 0v7.35h-.735v-7.35zm-4.371 0v7.35H24v-7.35zM0 0v.354L.177.177.354 0zm2.646 0L0 2.646v.708L3.177.177 3.354 0zm3 0L0 5.646v.708L6.177.177 6.354 0zm3 0L0 8.646v.708L9.177.177 9.354 0zm3 0L0 11.646v.708L12.177.177 12.354 0zm3 0L0 14.646v.708L15.177.177 15.354 0zm3 0L0 17.646V18h.354L18.177.177 18.354 0zm3 0L2.823 17.823 2.646 18h.708L21.177.177 21.354 0zM22 1.646L5.823 17.823 5.646 18h.708L22 2.354v-.708zm0 3L8.823 17.823 8.646 18h.708L22 5.354v-.708zm0 3L11.823 17.823l-.177.177h.708L22 8.354v-.708zm0 3l-7.177 7.177-.177.177h.708L22 11.354v-.708zm0 3l-4.177 4.177-.177.177h.708L22 14.354v-.708zm0 3l-1.177 1.177-.177.177h.708l.646-.646v-.708z"/></svg>