<svg xmlns="http://www.w3.org/2000/svg" width="153.711" height="18"><path d="M152.064 0c.335 0 .67.026.995.066.447.113.217.626-.18.626a.476.476 0 0 1-.082-.008c-.84.097-1.872.15-2.506.626-.841.916-.463 2.821-.561 3.725-.007.05-.01 3.653-.01 5.48a6.145 6.145 0 0 1 2.635-.586c.402 0 .801.04 1.187.117.441.231-.076.528-.422.528a.454.454 0 0 1-.115-.013c-1.226.133-2.62.461-3.243 1.602-.061.206-.023.277.071.277.206 0 .68-.342.946-.342.014 0 .028 0 .04.003a7.535 7.535 0 0 1 1.58-.169c.39 0 .777.031 1.15.095.42.278-.097.534-.439.534a.532.532 0 0 1-.105-.01c-1.251.151-2.636.49-3.243 1.633-.007 1.27 0 2.11-.033 3.278.014.36-.22.538-.456.538-.235 0-.473-.176-.475-.526.009-1.15.091-2.161-.06-3.277-.304-1.253-2.477-1.445-3.827-1.754-.294-.347.285-.475.659-.475.055 0 .107.003.15.008.173-.013.347-.02.521-.02.882 0 1.771.175 2.557.58.032-.755-.711-1.19-1.244-1.493-.84-.361-1.765-.397-2.643-.59-.313-.273.18-.501.521-.501a.58.58 0 0 1 .125.012 7.01 7.01 0 0 1 .648-.031c.903 0 1.805.183 2.614.582-.016-2.851-.062-5.61.02-8.308.065-.834.546-1.6 1.354-1.849.58-.264 1.227-.358 1.871-.358z"/><path d="M146.646 0l-1.834 1.834v.707l2.365-2.364.177-.177zm3 0l-4.834 4.834v.707l5.365-5.364.177-.177zm3 0l-7.834 7.834v.707l8.365-8.364.177-.177zm1.065 1.935l-8.899 8.9v.706l8.899-8.898v-.708zm0 3l-8.899 8.9v.706l8.899-8.898v-.708zm0 3l-8.899 8.9v.706l8.899-8.898v-.708zm0 3l-6.888 6.888-.177.177h.708l6.357-6.357v-.708zm0 3l-3.888 3.888-.177.177h.708l3.357-3.357v-.708zm0 3l-.888.888-.177.177h.708l.357-.357v-.708zM155.646 0l-1.935 1.935v.708l2.035-2.035V0zm.1 2.9l-2.035 2.035v.708l2.035-2.035V2.9zm0 3l-2.035 2.035v.708l2.035-2.035V5.9zm0 3l-2.035 2.035v.708l2.035-2.035V8.9zm0 3l-2.035 2.035v.708l2.035-2.035V11.9zm0 3l-2.035 2.035v.708l2.035-2.035V14.9zM128.07 2.99q-.558 0-1.087.606 4.368 5.2 5.46 5.81.814.457 1.434.457.21 0 .399-.053.74-.208 1.586-.234h.042q.828 0 1.817.988h.13q-.702-1.638-1.963-2.34-1.261-.702-7.397-5.148-.213-.085-.422-.085zM135.8.622q-.066 0-.133.01v6.683q2.054 1.196 2.834 3.354-1.196-8.268-1.677-9.204Q136.39.62 135.8.62zm5.356 10.468q.08 0 .153.138.13.247-.234.689-.208-.546-.052-.741.069-.086.133-.086zm-.037-.372q-.153 0-.33.237-.39.52.234 2.08.702-1.352.429-1.976-.149-.34-.333-.34zm-6.804 2.577v.39q.286-.026.442-.182-.052-.078-.208-.208zm-.598.884l-2.418.338-.494.884q.832-.234 1.833-.624 1-.39 1.079-.598zm5.33-.364l-.468.234-.156 1.118.416 1.274h.65l-.442-1.274v-1.352zm-1.118.39l-.442.13-.156.832.416 1.274h.65l-.442-1.274-.026-.962zm-1.534.156l-.156.806.416 1.274h.65l-.442-1.274v-.78l-.468-.026zm.994-3.234q-.415 0-.89.1-1.404.3-1.768 1.418h-1.092l-.416-.676q-5.512 1.274-6.214 4.602 1.508-.832 3.172-1.118l.728-1.456 2.886-.39-.078-.702h.988q1.092.9 2.228.9.243 0 .489-.042 1.391-.234 1.82-.95.429-.714-.455-1.3-.585-.386-1.398-.386zM135.544 0q.947 0 1.488.658.663.806 1.235 4.238l.91 5.954q.442.468.676.52h.312q.026-.65.494-1.196.416-3.978-.364-6.968l.312-.598q1.118 3.38.546 7.592h.078q1.794-4.03.52-7.592l.312-.468q1.664 3.796-.364 8.242.572 1.248.117 2.054-.455.806-.559 1.508l-.182.13q-.702-1.04-.806-1.794h-.26q-.026.598-.338 1.248l-.182 1.638.442 1.274h2.262v.624h-6.526v-.624h.546l-.416-1.274-.026-.962q-.468-.156-.702-.364-.338.312-.754.312.026.26-.104.442-1.04.806-3.718 1.404l-.91 1.768q0-.434-.27-.434-.085 0-.198.044l.728-1.3q-1.508.338-2.288.858-.416.442.052 1.066-1.04-.442-1.17-1.248.416-3.926 7.046-5.46l.468.78h.416q.338-1.092 2.678-1.508-.522-.388-1.285-.388-.414 0-.9.115-.491.116-.96.116-.844 0-1.613-.376-1.196-.585-6.084-6.461.9-1.136 1.905-1.136.329 0 .669.122l6.318 4.524V.034q.235-.034.449-.034z"/><path d="M56.646 0l-2.14 2.141v.707l2.67-2.671.178-.177zm3 0l-5.14 5.141v.707l5.67-5.671.178-.177zm3 0l-8.14 8.141v.707l8.67-8.671.178-.177zm3 0l-11.14 11.141v.707L66.175.177l.18-.177zm3 0l-14.14 14.141v.707L69.175.177l.18-.177zm3 0l-17.14 17.141v.707L72.175.177l.18-.177zm3 0L56.823 17.823l-.177.177h.708L75.177.177 75.354 0zm3 0L59.823 17.823l-.177.177h.708L78.177.177 78.354 0zm3 0L62.823 17.823l-.177.177h.708L81.177.177 81.354 0zm3 0L65.823 17.823l-.177.177h.708L84.177.177 84.354 0zm3 0L68.823 17.823l-.177.177h.708L87.177.177 87.354 0zm3 0L71.823 17.823l-.177.177h.708L90.177.177 90.354 0zm3 0L74.823 17.823l-.177.177h.708L93.177.177 93.354 0zm3 0L77.823 17.823l-.177.177h.708L96.177.177 96.354 0zm3 0L80.823 17.823l-.177.177h.708L99.177.177 99.354 0zm3 0L83.823 17.823l-.177.177h.708L102.177.177l.177-.177zm3 0L86.823 17.823l-.177.177h.708L105.177.177l.177-.177zm3 0L89.823 17.823l-.177.177h.708L108.177.177l.177-.177zm3 0L92.823 17.823l-.177.177h.708L111.177.177l.177-.177zm3 0L95.823 17.823l-.177.177h.708L114.177.177l.177-.177zm3 0L98.823 17.823l-.177.177h.708L117.177.177l.177-.177zm3 0l-17.823 17.823-.177.177h.708L120.177.177l.177-.177zm3 0l-17.823 17.823-.177.177h.708L123.177.177l.177-.177zm3 0l-17.823 17.823-.177.177h.708L126.177.177l.177-.177zm3 0l-17.823 17.823-.177.177h.708L129.177.177l.177-.177zm3 0l-17.823 17.823-.177.177h.708L132.177.177l.177-.177zm3 0l-17.823 17.823-.177.177h.708L135.177.177l.177-.177zm3 0l-17.823 17.823-.177.177h.708L138.177.177l.177-.177zm3 0l-17.823 17.823-.177.177h.708L141.177.177l.177-.177zm2.166.834l-16.989 16.99-.177.176h.708l16.458-16.459V.834zm0 3l-13.989 13.99-.177.176h.708l13.458-13.459v-.707zm0 3l-10.989 10.99-.177.176h.708l10.458-10.459v-.707zm0 3l-7.989 7.99-.177.176h.708l7.458-7.459v-.707zm0 3l-4.989 4.99-.177.176h.708l4.458-4.459v-.707zm0 3l-1.989 1.99-.177.176h.708l1.458-1.459v-.707z"/><path d="M143.646 0l-.834.834v.707l1.365-1.364.177-.177zm1.273 1.728l-2.107 2.106v.707l2.107-2.106v-.707zm0 3l-2.107 2.106v.707l2.107-2.106v-.707zm0 3l-2.107 2.106v.707l2.107-2.106v-.707zm0 3l-2.107 2.106v.707l2.107-2.106v-.707zm0 3l-2.107 2.106v.707l2.107-2.106v-.707zm0 3l-1.096 1.095-.177.177h.708l.565-.565v-.707zm-93.848-9.27v1.656c.566 0 .849-.283.849-.848 0-.539-.283-.808-.849-.808zM48.976 0c.464 0 .856.116 1.176.35.613.443.92 1.09.92 1.938v4.584c.942 0 1.42.465 1.433 1.394 0 .942-.478 1.413-1.434 1.413V18h-.746V2.732c0-1.023-.199-1.68-.596-1.969-.206-.15-.476-.225-.838-.225-.337 0-.754.065-1.273.195a.65.65 0 0 1-.212.043c-.111 0-.189-.048-.232-.144-.014-.162.107-.276.363-.343C48.076.096 48.555 0 48.977 0zm-8.168.601c-1.074 0-2.419.552-3.07 1.202-.568.57-.643 1.324-.664 2.025h7.435c-.02-.7-.095-1.455-.664-2.025-.65-.65-1.963-1.202-3.037-1.202zm0-.601c1.274 0 2.645.589 3.448 1.392.824.824.918 1.91.918 2.72v.317h-8.732v-.316c0-.812.061-1.897.885-2.72C38.131.588 39.533 0 40.807 0zm1.186 9.627c5.439 1.9 2.904 9.54-2.195 8.228-5.054-1.302-4.045-9.318 2.195-8.228m-.243.698c-5.417-.787-5.639 5.768-1.707 6.812 3.846 1.022 6.482-5.13 1.707-6.812m-1.188 1.152c-1.082-.74.885-.487 0-.018v.018m1.985.433c-1.227-.397.343-.795 0-.073v.073m-2.993-.712v.732l-.73-.244.73-.488m3.571 2.066c-.903-.795.596-.885.109-.09l-.109.09m-2.839-.846l.244.731-.732-.487.488-.244m1.052.358l.072-.017c.668-.489 1.39 1.767-.072.017m-3.014-.397c.957.56-.162.703-.253.703l.253-.703m2.938 1.502l-.244.244-.488-.732.732.488m-1.674-.474l.469.019c-.56.866-.758.793-.47-.019m3.682 1.517c-.884-.74.433-.632.415-.488l-.415.488m-1.01-.903l-.221.305c-.718-.215-.34-.792.22-.305m-3.434.836l-.245.244-.487-.732.732.488m1.323.012c.758-.378.92-.27.47.344l-.47-.344m2.578.72l-.244.731-.488-.732h.732m-3.245-.465l.45.54c-.107.217-1.1.145-.45-.54m1.538.71l.244.731h-.732l.488-.732zM30.864 4.845c.947.012 1.816.243 2.472.778.68.54 1.112 1.378 1.106 2.405v5.127h-.705V8.022c0-.838-.316-1.434-.838-1.853-.505-.4-1.215-.62-2.017-.62h-.097c-.796 0-1.513.22-2.017.62-.522.42-.838 1.015-.838 1.853v5.133h-.705V8.028c-.006-1.027.425-1.865 1.106-2.405.656-.535 1.524-.766 2.472-.778zm-5.639.495v7.32H24V5.34zM0 0v.354L.177.177.354 0zm2.646 0L0 2.646v.708L3.177.177 3.354 0zm3 0L0 5.646v.708L6.177.177 6.354 0zm3 0L0 8.646v.708L9.177.177 9.354 0zm3 0L0 11.646v.708L12.177.177 12.354 0zm3 0L0 14.646v.708L15.177.177 15.354 0zm3 0L0 17.646V18h.354L18.177.177 18.354 0zm3 0L2.823 17.823 2.646 18h.708L21.177.177 21.354 0zM22 1.646L5.823 17.823 5.646 18h.708L22 2.354v-.708zm0 3L8.823 17.823 8.646 18h.708L22 5.354v-.708zm0 3L11.823 17.823l-.177.177h.708L22 8.354v-.708zm0 3l-7.177 7.177-.177.177h.708L22 11.354v-.708zm0 3l-4.177 4.177-.177.177h.708L22 14.354v-.708zm0 3l-1.177 1.177-.177.177h.708l.646-.646v-.708z"/></svg>