<svg xmlns="http://www.w3.org/2000/svg" width="181.592" height="18"><path d="M179.945 0c.335 0 .67.026.994.066.447.113.218.626-.18.626a.476.476 0 0 1-.081-.008c-.84.097-1.873.15-2.506.626-.841.916-.464 2.821-.561 3.725-.007.05-.01 3.653-.01 5.48a6.145 6.145 0 0 1 2.634-.586c.402 0 .802.04 1.188.117.44.231-.077.528-.423.528a.454.454 0 0 1-.114-.013c-1.226.133-2.62.461-3.243 1.602-.062.206-.023.277.07.277.207 0 .68-.342.947-.342.014 0 .027 0 .04.003a7.535 7.535 0 0 1 1.58-.169c.39 0 .776.031 1.149.095.42.278-.096.534-.438.534a.532.532 0 0 1-.105-.01c-1.252.151-2.637.49-3.243 1.633-.007 1.27 0 2.11-.034 3.278.015.36-.219.538-.456.538-.235 0-.473-.176-.474-.526.009-1.15.09-2.161-.06-3.277-.305-1.253-2.478-1.445-3.827-1.754-.295-.347.285-.475.658-.475.056 0 .107.003.15.008.173-.013.347-.02.522-.02.882 0 1.77.175 2.557.58.032-.755-.712-1.19-1.244-1.493-.84-.361-1.766-.397-2.643-.59-.314-.273.18-.501.521-.501a.58.58 0 0 1 .125.012c.215-.02.431-.031.648-.031.902 0 1.804.183 2.614.582-.017-2.851-.063-5.61.02-8.308.065-.834.545-1.6 1.354-1.849.58-.264 1.227-.358 1.87-.358z"/><path d="M173.646 0l-.953.953v.708l1.484-1.484.177-.177zm3 0l-3.953 3.953v.708l4.484-4.484.177-.177zm3 0l-6.953 6.953v.708l7.484-7.484.177-.177zm1.946 1.055l-8.899 8.898v.708l8.899-8.899v-.707zm0 3l-8.899 8.898v.708l8.899-8.899v-.707zm0 3l-8.899 8.898v.708l8.899-8.899v-.707zm0 3l-7.769 7.768-.177.177h.708l7.238-7.238v-.707zm0 3l-4.769 4.768-.177.177h.708l4.238-4.238v-.707zm0 3l-1.769 1.768-.177.177h.708l1.238-1.238v-.707zM182.646 0l-1.054 1.055v.707l1.585-1.585.177-.177zm.98 2.02l-2.034 2.035v.707l2.034-2.035V2.02zm0 3l-2.034 2.035v.707l2.034-2.035V5.02zm0 3l-2.034 2.035v.707l2.034-2.035V8.02zm0 3l-2.034 2.035v.707l2.034-2.035v-.707zm0 3l-2.034 2.035v.707l2.034-2.035v-.707zm0 3l-.803.803-.177.177h.708l.272-.273v-.707zM155.95 2.99q-.557 0-1.087.606 4.368 5.2 5.46 5.81.815.457 1.434.457.211 0 .4-.053.74-.208 1.585-.234h.043q.828 0 1.817.988h.13q-.702-1.638-1.964-2.34-1.26-.702-7.397-5.148-.212-.085-.421-.085zm7.73-2.369q-.065 0-.133.01v6.683q2.055 1.196 2.835 3.354-1.196-8.268-1.677-9.204-.433-.843-1.024-.843zm5.356 10.468q.081 0 .154.138.13.247-.234.689-.208-.546-.052-.741.068-.086.132-.086zm-.036-.372q-.153 0-.33.237-.39.52.234 2.08.702-1.352.429-1.976-.15-.34-.333-.34zm-6.805 2.577v.39q.286-.026.442-.182-.052-.078-.208-.208zm-.598.884l-2.418.338-.494.884q.832-.234 1.833-.624t1.08-.598zm5.33-.364l-.467.234-.156 1.118.416 1.274h.65l-.442-1.274v-1.352zm-1.117.39l-.442.13-.156.832.416 1.274h.65l-.442-1.274-.026-.962zm-1.534.156l-.156.806.416 1.274h.65l-.442-1.274v-.78l-.468-.026zm.994-3.234q-.416 0-.89.1-1.405.3-1.769 1.418h-1.092l-.416-.676q-5.512 1.274-6.214 4.602 1.508-.832 3.172-1.118l.728-1.456 2.886-.39-.078-.702h.988q1.092.9 2.229.9.243 0 .489-.042 1.39-.234 1.82-.95.429-.714-.455-1.3-.585-.386-1.398-.386zM163.424 0q.948 0 1.489.658.663.806 1.235 4.238l.91 5.954q.442.468.676.52h.312q.026-.65.494-1.196.416-3.978-.364-6.968l.312-.598q1.118 3.38.546 7.592h.078q1.794-4.03.52-7.592l.312-.468q1.664 3.796-.364 8.242.572 1.248.117 2.054-.455.806-.56 1.508l-.181.13q-.702-1.04-.806-1.794h-.26q-.026.598-.338 1.248l-.182 1.638.442 1.274h2.262v.624h-6.527v-.624h.547l-.417-1.274-.026-.962q-.468-.156-.702-.364-.338.312-.754.312.026.26-.104.442-1.04.806-3.718 1.404l-.91 1.768q0-.434-.269-.434-.086 0-.199.044l.728-1.3q-1.508.338-2.288.858-.416.442.052 1.066-1.04-.442-1.17-1.248.416-3.926 7.046-5.46l.468.78h.416q.338-1.092 2.679-1.508-.523-.388-1.285-.388-.414 0-.9.115-.492.116-.96.116-.845 0-1.614-.376-1.196-.585-6.084-6.461.901-1.136 1.905-1.136.33 0 .67.122l6.317 4.524V.034q.235-.034.45-.034z"/><path d="M83.646 0l-1.26 1.26v.708l1.79-1.791.178-.177zm3 0l-4.26 4.26v.708l4.79-4.791.178-.177zm3 0l-7.26 7.26v.708l7.79-7.791.178-.177zm3 0l-10.26 10.26v.708L93.176.177 93.355 0zm3 0l-13.26 13.26v.708L96.176.177 96.355 0zm3 0l-16.26 16.26v.708L99.176.177 99.355 0zm3 0L83.823 17.823l-.177.177h.708L102.177.177l.177-.177zm3 0L86.823 17.823l-.177.177h.708L105.177.177l.177-.177zm3 0L89.823 17.823l-.177.177h.708L108.177.177l.177-.177zm3 0L92.823 17.823l-.177.177h.708L111.177.177l.177-.177zm3 0L95.823 17.823l-.177.177h.708L114.177.177l.177-.177zm3 0L98.823 17.823l-.177.177h.708L117.177.177l.177-.177zm3 0l-17.823 17.823-.177.177h.708L120.177.177l.177-.177zm3 0l-17.823 17.823-.177.177h.708L123.177.177l.177-.177zm3 0l-17.823 17.823-.177.177h.708L126.177.177l.177-.177zm3 0l-17.823 17.823-.177.177h.708L129.177.177l.177-.177zm3 0l-17.823 17.823-.177.177h.708L132.177.177l.177-.177zm3 0l-17.823 17.823-.177.177h.708L135.177.177l.177-.177zm3 0l-17.823 17.823-.177.177h.708L138.177.177l.177-.177zm3 0l-17.823 17.823-.177.177h.708L141.177.177l.177-.177zm3 0l-17.823 17.823-.177.177h.708L144.177.177l.177-.177zm3 0l-17.823 17.823-.177.177h.708L147.177.177l.177-.177zm3 0l-17.823 17.823-.177.177h.708L150.177.177l.177-.177zm3 0l-17.823 17.823-.177.177h.708L153.177.177l.177-.177zm3 0l-17.823 17.823-.177.177h.708L156.177.177l.177-.177zm3 0l-17.823 17.823-.177.177h.708L159.177.177l.177-.177zm3 0l-17.823 17.823-.177.177h.708L162.177.177l.177-.177zm3 0l-17.823 17.823-.177.177h.708L165.177.177l.177-.177zm3 0l-17.823 17.823-.177.177h.708L168.177.177l.177-.177zm3 0l-17.823 17.823-.177.177h.708L170.693.66V0zm.047 2.953l-14.87 14.87-.177.177h.708l14.339-14.34v-.707zm0 3l-11.87 11.87-.177.177h.708l11.339-11.34v-.707zm0 3l-8.87 8.87-.177.177h.708l8.339-8.34v-.706zm0 3l-5.87 5.87-.177.177h.708l5.339-5.34v-.707zm0 3l-2.87 2.87-.177.177h.708l2.339-2.34v-.707zm0-14.953v.66l.484-.483.177-.177zm2.106.847l-2.106 2.106v.708l2.106-2.107V.847zm0 3l-2.106 2.106v.708l2.106-2.107v-.707zm0 3l-2.106 2.106v.708l2.106-2.107v-.707zm0 3l-2.106 2.106v.708l2.106-2.107v-.707zm0 3l-2.106 2.106v.708l2.106-2.107v-.707zm0 3l-1.976 1.976-.13.13V18h.66l1.446-1.446v-.707zM54.952 7.458v1.656c.565 0 .848-.283.848-.848 0-.539-.283-.808-.848-.808zM52.857 0c.463 0 .855.116 1.176.35.613.443.919 1.09.919 1.938v4.584c.942 0 1.42.465 1.434 1.394 0 .942-.478 1.413-1.434 1.413V18h-.746V2.732c0-1.023-.199-1.68-.596-1.969-.206-.15-.476-.225-.838-.225-.338 0-.754.065-1.273.195a.65.65 0 0 1-.213.043c-.11 0-.188-.048-.232-.144-.013-.162.108-.276.364-.343C51.956.096 52.436 0 52.858 0zm-8.169.601c-1.074 0-2.418.552-3.069 1.202-.569.57-.643 1.324-.664 2.025h7.435c-.021-.7-.095-1.455-.665-2.025-.65-.65-1.963-1.202-3.037-1.202zm0-.601c1.274 0 2.645.589 3.449 1.392.824.824.917 1.91.917 2.72v.317h-8.732v-.316c0-.812.062-1.897.886-2.72C42.011.588 43.414 0 44.688 0zm1.187 9.627c5.438 1.9 2.904 9.54-2.195 8.228-5.054-1.302-4.045-9.318 2.195-8.228m-.243.698c-5.417-.787-5.64 5.768-1.708 6.812 3.846 1.022 6.482-5.13 1.708-6.812m-1.189 1.152c-1.082-.74.885-.487 0-.018v.018m1.986.433c-1.227-.397.343-.795 0-.073v.073m-2.993-.712v.732l-.73-.244.73-.488m3.57 2.066c-.902-.795.596-.885.11-.09l-.11.09m-2.838-.846l.244.731-.732-.487.488-.244m1.052.358l.072-.017c.668-.489 1.39 1.767-.072.017m-3.014-.397c.957.56-.162.703-.253.703l.253-.703m2.938 1.502l-.244.244-.488-.732.732.488m-1.674-.474l.468.019c-.559.866-.757.793-.468-.019m3.68 1.517c-.883-.74.434-.632.416-.488l-.415.488m-1.01-.903l-.221.305c-.718-.215-.34-.792.22-.305m-3.435.836l-.244.244-.488-.732.732.488m1.323.012c.759-.378.92-.27.47.344l-.47-.344m2.579.72l-.244.731-.488-.732h.732m-3.246-.465l.45.54c-.107.217-1.1.145-.45-.54m1.539.71l.244.731h-.732l.488-.732zM34.744 4.845c.948.012 1.817.243 2.473.778.68.54 1.111 1.378 1.105 2.405v5.127h-.704V8.022c0-.838-.316-1.434-.839-1.853-.504-.4-1.215-.62-2.017-.62h-.097c-.795 0-1.512.22-2.016.62-.523.42-.839 1.015-.839 1.853v5.133h-.704V8.028c-.006-1.027.425-1.865 1.105-2.405.656-.535 1.525-.766 2.473-.778zm-5.638.48v7.35h-.735v-7.35zm-4.37 0v7.35H24v-7.35zM2.646 0L0 2.646v.708L3.177.177 3.354 0zm3 0L0 5.646v.708L6.177.177 6.354 0zm3 0L0 8.646v.708L9.177.177 9.354 0zm3 0L0 11.646v.708L12.177.177 12.354 0zm3 0L0 14.646v.708L15.177.177 15.354 0zm3 0L0 17.646V18h.354L18.177.177 18.354 0zm3 0L2.823 17.823 2.646 18h.708L21.177.177 21.354 0zM22 1.646L5.823 17.823 5.646 18h.708L22 2.354v-.708zm0 3L8.823 17.823 8.646 18h.708L22 5.354v-.708zm0 3L11.823 17.823l-.177.177h.708L22 8.354v-.708zm0 3l-7.177 7.177-.177.177h.708L22 11.354v-.708zm0 3l-4.177 4.177-.177.177h.708L22 14.354v-.708zm0 3l-1.177 1.177-.177.177h.708l.646-.646v-.708z"/></svg>