<svg xmlns="http://www.w3.org/2000/svg" width="34.003" height="18"><path d="M9.777 3.093q1.51.22 1.579 1.382v8.382q-.706-.843-2.536-1.184l.957-8.58zM9.35 2.25L8.22 12.272q2.52.289 3.136 1.8v1.678h.752V4.475q0-1.883-2.757-2.225zM16.882 7.79c.806 0 1.814.414 2.302.902.427.426.482.992.498 1.518h-5.576c.015-.526.071-1.092.498-1.518.488-.488 1.473-.902 2.278-.902zm0-.451c-.956 0-1.984.441-2.586 1.044-.618.618-.688 1.432-.688 2.04v.238h6.549v-.237c0-.61-.047-1.423-.665-2.04-.602-.604-1.654-1.045-2.61-1.045zM24.302 4.877q.199 0 .23.244l.335 3.04q.26 2.091.306 4 0 1.314-.222 2.085-.221.771-.694.771-.474 0-.65-.771-.175-.771-.16-2.085.03-1.909.29-4l.336-3.04q.03-.244.23-.244zM21.996 2.25q-.641.32-.076.672 1.863 1.084 1.634 2.306l-.351 2.932q-.244 2.092-.351 4.001 0 1.863.35 2.726.352.863 1.1.863.749 0 1.1-.863.351-.863.351-2.726-.107-1.909-.351-4l-.32-2.81q-.49-2.505-3.086-3.101z"/><path d="M8.22.375c-9.625 0-9.625 17.25 0 17.25M8.22.375h17.533M8.22 17.625h17.533M33.44.375v17.25M25.753.375c9.625 0 9.625 17.25 0 17.25" fill="none" stroke="#000"/></svg>