<svg xmlns="http://www.w3.org/2000/svg" width="44.974" height="18"><path d="M9.777 3.093q1.51.22 1.579 1.382v8.382q-.706-.843-2.536-1.184l.957-8.58zM9.35 2.25L8.22 12.272q2.52.289 3.136 1.8v1.678h.752V4.475q0-1.883-2.757-2.225zM16.882 7.79c.806 0 1.814.414 2.302.902.427.426.482.992.498 1.518h-5.576c.015-.526.071-1.092.498-1.518.488-.488 1.473-.902 2.278-.902zm0-.451c-.956 0-1.984.441-2.586 1.044-.618.618-.688 1.432-.688 2.04v.238h6.549v-.237c0-.61-.047-1.423-.665-2.04-.602-.604-1.654-1.045-2.61-1.045zM26.375 8.519c1.02 1.145 1.864 2.453 2.616 3.781.159.195-.02.374-.15.559-.496-1.575-1.637-2.79-2.466-4.34zm-.987-5.783c.085.396-.072.854-.372.989l.096.205c.375-.178.737-.713.79-1.193.514.03.654.417.734.865.096.307-.001 1.05.387 1.179 1.147.444 2.024.957 2.81 1.734 1.358 1.698 2.777 3.342 4.135 5.042.528.662 1.01 1.268 1.402 1.725-2.062-1.542-4.366-2.72-6.627-3.946-1.201-.652-2.347-1.186-2.347-2.623 0-.773 1.424-1.42 1.365-1.521-.005-.01-.021-.013-.047-.013-.293 0-1.79.555-1.79 1.725 0 .324.088.625.238.905h-.006c-1.642-.87-1.381-2.63-1.318-4.18-.682-.038-1.243-.41-1.891-.565.502-.065 1.003-.15 1.507-.201a.4.4 0 00-.239.15c-.008.166.179.239.361.239.178 0 .352-.07.335-.19a.457.457 0 00-.39-.206c.25-.036.584-.09.867-.12zm2.867 9.977c.147.357.223.736.306 1.11.24-.193.471-.392.667-.628-.127.694-.366 1.395-.944 1.395-.35 0-.513-.237-.288-.954.106-.338.19-.66.259-.923zm-.629-3.438c2.341 1.247 4.659 2.506 6.872 3.969.521.422.986.893 1.3 1.334-.208.324-.605.435-.972.46-1.874-.066-2.607-1.872-3.597-3.162l-.538-.654.092.838c.007.15.161.864-.069.864a.17.17 0 01-.068-.016l-.946-1.134c-.102.067-.197.143-.301.205-.47-.95-1.158-1.836-1.773-2.704zm-2.02-7.025c-.491 0-.995.088-1.473.133-.57.278-1.147.066-1.745.283-.432.194-.553.587-.731.98.254-.085.486-.12.704-.12.696 0 1.257.351 1.993.538-.001.37-.06.788-.087 1.21-.114 1.145.489 2.15 1.36 2.865.625 1.39 1.49 2.457 2.12 3.542-.075.488-.529 2.327-.752 2.988a8.341 8.341 0 01-1.366.115 7.003 7.003 0 01-.592-.024c-.355 0-.745.606-1.127.93l7.771.06c-.198-.7-1.579-1.072-2.07-1.072a.685.685 0 00-.075.003c.173-.495.39-.96.45-1.653.218.195.461.404.765.426.37-.028.521-.281.569-.612.84 1.39 1.78 2.526 3.506 2.693.596-.029 1.339-.29 1.5-.923.79-.044.21-.815-.083-1.116-2.152-2.33-3.928-4.988-6.054-7.334-.818-.808-1.743-1.354-2.888-1.807-.085-.21-.113-.507-.168-.835-.06-.357-.251-.942-.6-1.124a2.667 2.667 0 00-.927-.146z"/><path d="M8.22.375c-9.625 0-9.625 17.25 0 17.25M8.22.375h28.504M8.22 17.625h28.504M44.411.375v17.25M36.724.375c9.625 0 9.625 17.25 0 17.25" fill="none" stroke="#000"/></svg>