<svg xmlns="http://www.w3.org/2000/svg" width="43.133" height="18"><path d="M20.058 7.686q-1.86 2.529-5.353 2.597-3.47-.068-5.33-2.597zm-11.838-.6q1.906 3.812 6.485 3.827 4.601-.015 6.507-3.826zM23.462 3.897q-.09 0-.216.11-.496.668-.534 1.909.153.973.687 2.748-.19 1.431-.286 3.931-.077.84.458 1.088 1.584.42 4.008.42 2.442 0 4.007-.42.554-.248.478-1.088-.096-2.5-.287-3.931.535-1.775.687-2.748-.038-1.241-.534-1.909-.126-.11-.216-.11-.129 0-.185.225.134.381.248.744.153.458.115.859-.038.649-.124 1.059-.086.41-.353.41l-.028.001q-.45 0-.45-1.203 0-.44.115-1.069-.098-.167-.212-.167-.107 0-.227.148-.057.458-.076 1.012-.077.84.4 2.366-.171 2.157-.171 4.313-1.298.21-3.187.267-1.87-.057-3.169-.267 0-2.156-.171-4.313.477-1.527.4-2.366-.019-.554-.076-1.012-.12-.148-.227-.148-.114 0-.212.167.115.63.115 1.069 0 1.203-.45 1.203h-.027q-.268 0-.354-.411-.085-.41-.124-1.06-.038-.4.115-.858.114-.363.248-.744-.056-.225-.185-.225zM33.964 6.255v5.49h.92v-5.49z"/><path d="M8.22.375c-9.625 0-9.625 17.25 0 17.25M8.22.375h26.663M8.22 17.625h26.663M42.57.375v17.25M34.883.375c9.625 0 9.625 17.25 0 17.25" fill="none" stroke="#000"/></svg>