<svg xmlns="http://www.w3.org/2000/svg" width="54.552" height="18"><path d="M8.22 2.25v13.5h16.5V2.25z" fill="#999" fill-opacity=".302"/><path d="M27.072 6.006q.83.86 1.205 1.958.376 1.097-.337 1.29-.104.027-.196.027-.55 0-.733-.972-.215-1.136.061-2.303zm11.922-.33q.104 0 .169.077.238.284-.707 1.512-.944 1.228-2.018 2.426-1.075 1.198-2.196 1.428-1.12.23-4.729.63l-1.397.368q-.368-.568-.276-1.136.447-.197.767-.197.503 0 .691.488 3.666-1.047 5.305-1.047.092 0 .176.003 2.58-3.224 3.363-3.991.571-.56.852-.56zm.222-.867h-.015q-.675.015-1.528.867-.852.852-3.14 3.877-1.304.138-5.004 1.12-.33-.59-.82-.59-.058 0-.117.007l-.077-.322q1.136-1.09.138-2.756-.945-1.579-1.643-1.579-.038 0-.076.005-.676.292-.714 2.234-.038 1.942 1.543 2.31l.092.338q-.522.139-.622.691-.1.553.13 1.16.185.483.779.483.15 0 .327-.03l.154.567.752-.214-.169-.645.415-.108q3.577-.276 5.834-.783 4.406-3.96 4.414-5.304.008-1.328-.653-1.328zM42.338 3.85q-.046.33-.015.653h-.466v-.654zm3.543 0v.653h-.443q.023-.323-.03-.654zm-2.004-.88q.593 0 .833 1.014.233 1.022-.473 3.267h-.736q-.69-2.245-.488-3.267.203-1.013.864-1.013zm1.096 4.513l-.015.203h-2.162l-.03-.203zm-.03.436l-.03.203H42.84l-.03-.203zm-.038.428l-.03.187h-1.99l-.03-.187zm-.045.435l-.03.188h-1.907l-.022-.188zm-.045.42l-.03.203h-1.832l-.015-.202zm-.938-6.952q-1.314.113-1.487 1.284h-.848v1.299h.78q.053 1.179.489 2.418h-.39l.232 2.395h.3q-.203 2.267-1.584 6.104h.969q.99-3.837 1.306-6.104h.465q.316 2.267 1.21 6.104h.983q-1.299-3.837-1.517-6.104h.308l.225-2.395h-.39q.45-1.24.51-2.418h.759v-1.3h-.834q-.187-1.17-1.486-1.283z"/><path d="M8.22.375c-9.625 0-9.625 17.25 0 17.25M8.22.375h38.082M8.22 17.625h38.082M53.99.375v17.25M46.302.375c9.625 0 9.625 17.25 0 17.25" fill="none" stroke="#000"/></svg>