<svg xmlns="http://www.w3.org/2000/svg" width="28.407" height="18"><path d="M11.495 2.7c.805 0 1.813.415 2.301.903.427.426.483.992.499 1.518H8.718c.016-.526.072-1.092.499-1.518.487-.488 1.472-.902 2.278-.902zm0-.45c-.956 0-1.984.441-2.587 1.044-.618.618-.688 1.432-.688 2.04v.238h6.55v-.237c0-.61-.047-1.423-.665-2.04-.603-.604-1.655-1.045-2.61-1.045zM11.495 12.879c.805 0 1.813.414 2.301.902.427.426.483.992.499 1.518H8.718c.016-.526.072-1.092.499-1.518.487-.488 1.472-.902 2.278-.902zm0-.451c-.956 0-1.984.441-2.587 1.044-.618.618-.688 1.432-.688 2.04v.238h6.55v-.237c0-.61-.047-1.423-.665-2.04-.603-.604-1.655-1.045-2.61-1.045zM17.826 3.093q1.51.22 1.579 1.382v8.382q-.706-.843-2.536-1.184l.957-8.58zM17.4 2.25l-1.13 10.022q2.52.289 3.135 1.8v1.678h.752V4.475q0-1.883-2.757-2.225z"/><path d="M8.22.375c-9.625 0-9.625 17.25 0 17.25M8.22.375h11.937M8.22 17.625h11.937M27.844.375v17.25M20.157.375c9.625 0 9.625 17.25 0 17.25" fill="none" stroke="#000"/></svg>