<svg xmlns="http://www.w3.org/2000/svg" width="37.207" height="18"><path d="M9.962 2.25q-1.742 0-1.742 1.674V15.75h.803V3.924q0-.87.939-.87.946 0 .946.87v7.87h.803v-7.87q0-1.674-1.75-1.674zM14.984 11.088c.4.153.837.645.965 1.05.127.406.112.879.022 1.344-.09.458-.27.894-.488 1.18-.15.195-.285.307-.413.345h-.12c-.127-.03-.293-.143-.458-.346-.218-.285-.398-.72-.488-1.179-.09-.465-.105-.938.023-1.344.127-.405.606-.931.957-1.046v-.004zM14.56 2.25v.901h-.811v.578h.81l-.112 6.818c-.578.3-.938.81-1.111 1.359a3.576 3.576 0 00-.068 1.734 3.49 3.49 0 00.646 1.457c.233.3.54.548.901.623v.022a.208.208 0 00.068.008c.03 0 .06-.008.09-.008a.532.532 0 00.105.008c.03 0 .052 0 .082-.008v-.022c.36-.075.669-.323.901-.623a3.49 3.49 0 00.646-1.457 3.576 3.576 0 00-.067-1.734 2.228 2.228 0 00-1.112-1.337l-.112-6.84h.766l.022-.578h-.856V2.25h-.788zM20.248 2.726q-.279 0-.279.328 0 .278.279.278.295-.016.295-.311t-.295-.295zm-1.082.213v.295l-.64.115q.296-.312.64-.41zm.033.393q.377.295.13.443-.376-.131-.556-.344l.426-.099zm1.147-.754q.77 0 1.23.59.459.59.492 1.82 1.196.246 1.59 1.082.064.542-.244.542l-.018-.001q-.328-.016-.517-.18-.068-.06-.103-.06-.062 0-.02.183.066.287.721.696.656.41.107.68-.136.068-.29.068-.467 0-1.095-.616-.836-.82-.885-1.246-.05-.427.344-.787.234-.215.16-.215-.05 0-.242.1-.476.246-.5.721-.025.476.377 1.041.402.566 1.582 1.435.12.063.273.063.324 0 .792-.285.689-.418-.688-1.286.508-.132.525-.443.639.213 3.59 3.967.787.525.803.77-.016.23-.246.28-.05.01-.1.01-.186 0-.392-.142-.918.443-1.778.46h-.09q-.8 0-1.328-.28.54.476.377 1-.08.255-.12.255-.044 0-.044-.287 0-.558-1.427-1.066v.623q-.084.353-.133.353-.047 0-.063-.32-.099-.705-.468-1.517-.368-.811-1.172-2.245-.803-1.435-1.024-2.066-.222-.631-.205-1.172.016-.541-.221-.795-.238-.254-.14-.55.099-.295-.295-.557v-.278q.426-.345.885-.345zm3.115 9.443q.803.23.803.54l-.54 2.017q-.066.361-.443.361h-.656v-.033l.836-2.557v-.328zM20.405 2.25h-.059q-.639 0-1.295.525-.377.131-.77.607.54.491.983.606.05.23.312.64.016 1.081.295 1.795.279.713 1.869 3.827.787 1.64.787 2.017 0 .574-.722 2.574 0 .114-.983.18-1.476.05-1.476.41 0 .213.197.213h4.36q.41-.328.46-.558.393.164.426.443.055.221.157.221.019 0 .04-.008.13-.049.13-.213-.114-.443-.573-.852l.525-2.213q1.59-.05 2.77-.509.219.05.4.05.365 0 .584-.197.328-.295-.131-.918-1-1-1.902-2.197-1.852-2.279-2.541-2.64-.23-.475-.55-.753-.319-.28-1.155-.689-.016-.967-.45-1.672-.425-.689-1.688-.689z"/><path d="M8.22.375c-9.625 0-9.625 17.25 0 17.25M8.22.375h20.737M8.22 17.625h20.737M36.645.375v17.25M28.957.375c9.625 0 9.625 17.25 0 17.25" fill="none" stroke="#000"/></svg>