<svg xmlns="http://www.w3.org/2000/svg" width="49.91" height="18"><path d="M11.386 8.203c-.51.04-.793.296-.847.767.067.51.35.78.847.806.498-.026.76-.295.787-.806-.04-.47-.303-.726-.787-.767zm.06-1.694c.364 0 .7.068 1.01.202a2.659 2.659 0 011.371 1.361c.134.303.201.622.201.958 0 .35-.067.676-.202.978a2.567 2.567 0 01-2.38 1.523c-.362 0-.702-.064-1.018-.192a2.426 2.426 0 01-.816-.534 2.621 2.621 0 01-.545-.797 2.38 2.38 0 01-.202-.978c0-.336.068-.655.202-.958.134-.302.316-.571.545-.806.228-.236.5-.42.816-.555a2.574 2.574 0 011.019-.202zm-.04-.685c-.443 0-.86.084-1.25.252-.39.168-.726.396-1.008.685a3.36 3.36 0 00-.676 1.009 3.053 3.053 0 00-.252 1.24c0 .444.084.857.252 1.24.168.384.393.716.676.999a3.2 3.2 0 002.258.927c.444 0 .857-.084 1.24-.252a3.36 3.36 0 001.009-.675c.289-.283.518-.615.686-.999.168-.383.252-.796.252-1.24 0-.444-.084-.857-.252-1.24a3.268 3.268 0 00-1.694-1.694 3.053 3.053 0 00-1.24-.252zM17.317 5.63q.243 0 .548.228-.304.568-.684.907-.26.23-.429.23-.079 0-.139-.05-.186-.16-.048-.575.138-.415.47-.65.129-.09.282-.09zm3.476.002q.238 0 .532.226-.291.582-.672.914-.26.227-.434.227-.079 0-.14-.048-.193-.152-.048-.567.145-.415.477-.657.13-.095.285-.095zm3.378 0q.241 0 .543.226-.29.582-.678.92-.263.231-.434.231-.08 0-.14-.05-.187-.16-.048-.575.138-.415.47-.657.13-.095.287-.095zm-5.268-1.033v5.59h-.705V4.6zm3.46 0v5.59h-.706V4.6zm3.39 0v5.59h-.72V4.6zm.497 6.074q.512 0 .512.36t-.526.374h-8.509v-.734zm1.812 1.01q.115 0 .333.18.913.913.553 1.522-.72 0-.996-1.273-.067-.428.11-.428zM17.852 4.17v1.204q-.238-.15-.477-.15-.485 0-.976.62-.401.568-.277 1.107.162.471.624.471h.026q.623-.263 1.08-.941v3.708h-.72v1.702h.72v.802h1.356v-.844h2.117v.9h1.342v-.913H24.7v.913h1.342v-.927h1.356l.013.221q.263 1.398 1.273 1.771.088.016.168.016.419 0 .593-.43.222-1.066-.844-2.021l-.94-.443q-.471-.18-.65-.747h-.956V4.17h-1.355v1.204q-.233-.148-.467-.148-.49 0-.986.646-.402.554-.277 1.093.161.471.624.471h.026q.623-.263 1.08-.969v3.722h-2.034V4.17h-1.342v1.204q-.238-.148-.474-.148-.493 0-.98.646-.414.554-.29 1.093.166.47.65.47.637-.262 1.094-.968v3.722h-2.117V4.17zM32.951 2.726q-.278 0-.278.328 0 .278.278.278.295-.016.295-.311t-.295-.295zm-1.082.213v.295l-.639.115q.295-.312.64-.41zm.033.393q.377.295.131.443-.377-.131-.557-.344l.426-.099zm1.148-.754q.77 0 1.23.59.458.59.491 1.82 1.197.246 1.59 1.082.064.542-.244.542L36.1 6.61q-.328-.016-.517-.18-.068-.06-.103-.06-.061 0-.02.183.066.287.722.696.656.41.106.68-.136.068-.29.068-.466 0-1.095-.616-.836-.82-.885-1.246-.05-.427.344-.787.234-.215.16-.215-.05 0-.242.1-.475.246-.5.721-.024.476.377 1.041.402.566 1.582 1.435.12.063.273.063.325 0 .793-.285.688-.418-.689-1.286.508-.132.525-.443.64.213 3.59 3.967.787.525.803.77-.016.23-.246.28-.049.01-.1.01-.185 0-.391-.142-.918.443-1.78.46h-.089q-.8 0-1.328-.28.54.476.377 1-.08.255-.12.255-.044 0-.044-.287 0-.558-1.426-1.066v.623q-.084.353-.134.353-.047 0-.063-.32-.098-.705-.467-1.517-.369-.811-1.172-2.245-.804-1.435-1.025-2.066-.221-.631-.205-1.172.017-.541-.221-.795t-.14-.55q.099-.295-.295-.557v-.278q.427-.345.886-.345zm3.114 9.443q.804.23.804.54l-.541 2.017q-.066.361-.443.361h-.656v-.033l.836-2.557v-.328zM33.11 2.25h-.06q-.639 0-1.294.525-.377.131-.77.607.54.491.983.606.049.23.311.64.017 1.081.295 1.795.279.713 1.87 3.827.786 1.64.786 2.017 0 .574-.721 2.574 0 .114-.984.18-1.475.05-1.475.41 0 .213.196.213h4.361q.41-.328.46-.558.393.164.425.443.056.221.157.221.02 0 .04-.008.131-.049.131-.213-.115-.443-.574-.852l.525-2.213q1.59-.05 2.77-.509.22.05.401.05.365 0 .583-.197.328-.295-.131-.918-1-1-1.902-2.197-1.852-2.279-2.54-2.64-.23-.475-.55-.753-.32-.28-1.156-.689-.016-.967-.45-1.672-.425-.689-1.687-.689z"/><path d="M8.22.375c-9.625 0-9.625 17.25 0 17.25M8.22.375h33.44M8.22 17.625h33.44M49.348.375v17.25M41.66.375c9.625 0 9.625 17.25 0 17.25" fill="none" stroke="#000"/></svg>