<svg xmlns="http://www.w3.org/2000/svg" width="55.761" height="18"><path d="M14.483 4.63c-.51.04-.793.295-.847.766.067.51.35.78.847.807.498-.027.76-.296.787-.807-.04-.47-.303-.726-.787-.766zm.06-1.694c.364 0 .7.067 1.009.201a2.659 2.659 0 011.371 1.361c.135.303.202.622.202.959 0 .35-.067.675-.202.978a2.567 2.567 0 01-2.38 1.523c-.362 0-.702-.065-1.018-.192a2.426 2.426 0 01-.817-.535 2.621 2.621 0 01-.544-.796 2.38 2.38 0 01-.202-.978c0-.337.068-.656.202-.958.134-.303.316-.572.544-.807.229-.235.501-.42.817-.555a2.574 2.574 0 011.019-.201zm-.04-.686c-.443 0-.86.084-1.25.252-.39.168-.726.397-1.008.686a3.36 3.36 0 00-.676 1.008 3.053 3.053 0 00-.252 1.24c0 .444.084.857.252 1.24.168.384.393.717.676.999a3.2 3.2 0 002.258.928c.444 0 .857-.084 1.24-.253a3.36 3.36 0 001.009-.675c.289-.282.518-.615.686-.998.168-.384.252-.797.252-1.24 0-.444-.084-.858-.252-1.24a3.268 3.268 0 00-1.694-1.695 3.053 3.053 0 00-1.24-.252zM9.761 13.928L8.22 15.75h.752l.79-.942.797.942.774-.942.797.942.79-.942.797.942.79-.942.797.942.775-.942.797.942.797-.942.775.942.797-.942.79.942h.752l-1.542-1.822-.797.88-.775-.88-.797.88-.797-.88-.775.88-.797-.88-.79.88-.797-.88-.79.88-.797-.88-.774.88-.798-.88zM26.34 2.25c-.09 0-.096.283-.224.701-.146.476-.254 1.472-.591 1.665a.298.298 0 01-.153.039c-.1 0-.202-.038-.313-.038a.409.409 0 00-.127.02c-.158.05-.242.297-.409.326-.69.12-1.637.075-2.165.123-.34.03.567.698 1.473.698h.039c.188-.005.387-.013.584-.013.33 0 .658.024.928.135.264.109.575.425.572.735l-.11 9.109h1.018l-.051-10.289c-.002-.276.795-.464.9-.702.181-.415.088-2.247-.205-2.493a.016.016 0 00-.01-.004c-.132 0-.378 1.92-.766 2.333-.04.043-.118.062-.185.062-.073 0-.133-.022-.122-.062.247-.838.346-2.061-.04-2.329a.077.077 0 00-.043-.016zM31.028 2.25q-1.742 0-1.742 1.674V15.75h.804V3.924q0-.87.938-.87.946 0 .946.87v7.87h.804v-7.87q0-1.674-1.75-1.674zM40.894 7.897q2.331 0 4.943 1.126-2.612 1.095-4.943 1.095-2.315 0-4.943-1.095 2.628-1.126 4.943-1.126zm0-.72q-2.878 0-6.616 1.83 3.738 1.815 6.616 1.815 2.879 0 6.617-1.814-3.723-1.83-6.617-1.83z"/><path d="M8.22.375c-9.625 0-9.625 17.25 0 17.25M8.22.375h39.291M8.22 17.625h39.291M55.199.375v17.25M47.511.375c9.625 0 9.625 17.25 0 17.25" fill="none" stroke="#000"/></svg>