<svg xmlns="http://www.w3.org/2000/svg" width="41.309" height="18"><path d="M11.386 8.203c-.51.04-.793.296-.847.767.067.51.35.78.847.806.498-.026.76-.295.787-.806-.04-.47-.303-.726-.787-.767zm.06-1.694c.364 0 .7.068 1.01.202a2.659 2.659 0 011.371 1.361c.134.303.201.622.201.958 0 .35-.067.676-.202.978a2.567 2.567 0 01-2.38 1.523c-.362 0-.702-.064-1.018-.192a2.426 2.426 0 01-.816-.534 2.621 2.621 0 01-.545-.797 2.38 2.38 0 01-.202-.978c0-.336.068-.655.202-.958.134-.302.316-.571.545-.806.228-.236.5-.42.816-.555a2.574 2.574 0 011.019-.202zm-.04-.685c-.443 0-.86.084-1.25.252-.39.168-.726.396-1.008.685a3.36 3.36 0 00-.676 1.009 3.053 3.053 0 00-.252 1.24c0 .444.084.857.252 1.24.168.384.393.716.676.999a3.2 3.2 0 002.258.927c.444 0 .857-.084 1.24-.252a3.36 3.36 0 001.009-.675c.289-.283.518-.615.686-.999.168-.383.252-.796.252-1.24 0-.444-.084-.857-.252-1.24a3.268 3.268 0 00-1.694-1.694 3.053 3.053 0 00-1.24-.252zM19.315 2.537v.305h-.772v-.305zm.988.88q-.144.161-.144.556h-2.46q.018-.395-.125-.556zm0 1.13q-.18.162-.144.557h-2.46q.018-.395-.125-.556zm0 1.132q-.144.126-.144.556h-2.46q.036-.395-.125-.556zm-.072 1.13q-.252.45-.234 1.204h-2.172q.036-.754-.233-1.203zm-.234 1.33v.125h-2.172v-.126zm0 .25v.126h-2.172V8.39zm0 .252v.126h-2.172V8.64zm0 .251v.126h-2.172v-.126zm0 .252v4.362q.162.808.575 1.777h-3.303q.323-.718.556-1.777V9.144zM18.274 2.25v.592h-2.01q-.342.288 0 .575h.825q.162.161.144.556h-.97q-.34.288 0 .575h.826q.162.161.144.556h-.97q-.34.288 0 .575h.826q.18.161.144.556h-.97q-.34.27 0 .575h.826q.323.377.287 2.28v4.416q-.125.987-.88 2.244h4.92q-.862-1.436-.952-2.244V9.09q-.09-1.885.305-2.28h.844q.36-.27 0-.575h-.97q-.017-.43.126-.556h.898q.305-.305-.054-.575h-.97q-.017-.395.126-.556h.844q.341-.287 0-.575h-.97q-.017-.395.126-.556h.844q.341-.287 0-.575h-2.01V2.25zM24.056 3.897q-.09 0-.216.11-.496.668-.534 1.909.153.973.687 2.748-.19 1.431-.286 3.931-.077.84.458 1.088 1.584.42 4.008.42 2.443 0 4.008-.42.553-.248.477-1.088-.096-2.5-.287-3.931.535-1.775.688-2.748-.039-1.241-.535-1.909-.126-.11-.216-.11-.129 0-.185.225.134.381.248.744.153.458.115.859-.038.649-.124 1.059-.086.41-.353.41l-.028.001q-.45 0-.45-1.203 0-.44.115-1.069-.098-.167-.212-.167-.106 0-.227.148-.057.458-.076 1.012-.076.84.4 2.366-.171 2.157-.171 4.313-1.298.21-3.187.267-1.87-.057-3.168-.267 0-2.156-.172-4.313.477-1.527.4-2.366-.018-.554-.076-1.012-.12-.148-.227-.148-.113 0-.212.167.115.63.115 1.069 0 1.203-.45 1.203h-.027q-.267 0-.353-.411-.086-.41-.124-1.06-.039-.4.114-.858.115-.363.248-.744-.056-.225-.185-.225z"/><path d="M8.22.375c-9.625 0-9.625 17.25 0 17.25M8.22.375h24.839M8.22 17.625h24.839M40.746.375v17.25M33.059.375c9.625 0 9.625 17.25 0 17.25" fill="none" stroke="#000"/></svg>