<svg xmlns="http://www.w3.org/2000/svg" width="46.086" height="18"><path d="M11.386 8.203c-.51.04-.793.296-.847.767.067.51.35.78.847.806.498-.026.76-.295.787-.806-.04-.47-.303-.726-.787-.767zm.06-1.694c.364 0 .7.068 1.01.202a2.659 2.659 0 011.371 1.361c.134.303.201.622.201.958 0 .35-.067.676-.202.978a2.567 2.567 0 01-2.38 1.523c-.362 0-.702-.064-1.018-.192a2.426 2.426 0 01-.816-.534 2.621 2.621 0 01-.545-.797 2.38 2.38 0 01-.202-.978c0-.336.068-.655.202-.958.134-.302.316-.571.545-.806.228-.236.5-.42.816-.555a2.574 2.574 0 011.019-.202zm-.04-.685c-.443 0-.86.084-1.25.252-.39.168-.726.396-1.008.685a3.36 3.36 0 00-.676 1.009 3.053 3.053 0 00-.252 1.24c0 .444.084.857.252 1.24.168.384.393.716.676.999a3.2 3.2 0 002.258.927c.444 0 .857-.084 1.24-.252a3.36 3.36 0 001.009-.675c.289-.283.518-.615.686-.999.168-.383.252-.796.252-1.24 0-.444-.084-.857-.252-1.24a3.268 3.268 0 00-1.694-1.694 3.053 3.053 0 00-1.24-.252zM20.146 2.25c-.09 0-.095.283-.224.701-.146.476-.254 1.472-.591 1.665a.298.298 0 01-.153.039c-.1 0-.202-.038-.313-.038a.409.409 0 00-.127.02c-.158.05-.242.297-.408.326-.692.12-1.637.075-2.166.123-.34.03.567.698 1.473.698h.039c.188-.005.387-.013.584-.013.33 0 .658.024.928.135.264.109.575.425.572.735l-.11 9.109h1.019l-.052-10.289c-.002-.276.795-.464.9-.702.181-.415.088-2.247-.205-2.493a.016.016 0 00-.01-.004c-.132 0-.378 1.92-.766 2.333-.04.043-.118.062-.185.062-.073 0-.133-.022-.121-.062.246-.838.345-2.061-.041-2.329a.077.077 0 00-.043-.016zM24.834 2.25q-1.742 0-1.742 1.674V15.75h.804V3.924q0-.87.938-.87.946 0 .946.87v7.87h.804v-7.87q0-1.674-1.75-1.674zM28.834 3.897q-.09 0-.216.11-.496.668-.534 1.909.152.973.687 2.748-.191 1.431-.286 3.931-.077.84.458 1.088 1.584.42 4.007.42 2.443 0 4.008-.42.554-.248.477-1.088-.095-2.5-.286-3.931.535-1.775.687-2.748-.038-1.241-.534-1.909-.126-.11-.216-.11-.129 0-.185.225.134.381.248.744.153.458.115.859-.039.649-.124 1.059-.086.41-.353.41l-.029.001q-.449 0-.449-1.203 0-.44.115-1.069-.098-.167-.212-.167-.107 0-.227.148-.057.458-.076 1.012-.077.84.4 2.366-.171 2.157-.171 4.313-1.298.21-3.188.267-1.87-.057-3.168-.267 0-2.156-.171-4.313.477-1.527.4-2.366-.019-.554-.076-1.012-.12-.148-.227-.148-.114 0-.212.167.115.63.115 1.069 0 1.203-.45 1.203h-.028q-.267 0-.353-.411-.086-.41-.124-1.06-.038-.4.115-.858.114-.363.248-.744-.056-.225-.185-.225z"/><path d="M8.22.375c-9.625 0-9.625 17.25 0 17.25M8.22.375h29.616M8.22 17.625h29.616M45.524.375v17.25M37.836.375c9.625 0 9.625 17.25 0 17.25" fill="none" stroke="#000"/></svg>