<svg xmlns="http://www.w3.org/2000/svg" width="49.429" height="18"><path d="M11.386 8.203c-.51.04-.793.296-.847.767.067.51.35.78.847.806.498-.026.76-.295.787-.806-.04-.47-.303-.726-.787-.767zm.06-1.694c.364 0 .7.068 1.01.202a2.659 2.659 0 011.371 1.361c.134.303.201.622.201.958 0 .35-.067.676-.202.978a2.567 2.567 0 01-2.38 1.523c-.362 0-.702-.064-1.018-.192a2.426 2.426 0 01-.816-.534 2.621 2.621 0 01-.545-.797 2.38 2.38 0 01-.202-.978c0-.336.068-.655.202-.958.134-.302.316-.571.545-.806.228-.236.5-.42.816-.555a2.574 2.574 0 011.019-.202zm-.04-.685c-.443 0-.86.084-1.25.252-.39.168-.726.396-1.008.685a3.36 3.36 0 00-.676 1.009 3.053 3.053 0 00-.252 1.24c0 .444.084.857.252 1.24.168.384.393.716.676.999a3.2 3.2 0 002.258.927c.444 0 .857-.084 1.24-.252a3.36 3.36 0 001.009-.675c.289-.283.518-.615.686-.999.168-.383.252-.796.252-1.24 0-.444-.084-.857-.252-1.24a3.268 3.268 0 00-1.694-1.694 3.053 3.053 0 00-1.24-.252zM29.476 4.03v1.756H16.544V4.03zM16.59 2.25v1.329h-.498v2.657h13.833V3.58h-.403V2.25h-.45v1.329h-1.116V2.25h-.45v1.329H26.39V2.25h-.45v1.329h-1.092V2.25h-.475v1.329h-1.092V2.25h-.45v1.329h-1.116V2.25h-.45v1.329H20.15V2.25h-.45v1.329h-1.092V2.25h-.45v1.329h-1.116V2.25zM17.79 13.744l-1.697 2.006h.827l.87-1.036.877 1.036.853-1.036.878 1.036.869-1.036.877 1.036.87-1.036.877 1.036.853-1.036.878 1.036.877-1.036.853 1.036.878-1.036.869 1.036h.827l-1.696-2.006-.878.97-.853-.97-.877.97-.878-.97-.853.97-.877-.97-.87.97-.877-.97-.87.97-.877-.97-.853.97-.877-.97zM32.177 3.897q-.09 0-.216.11-.496.668-.535 1.909.153.973.688 2.748-.191 1.431-.287 3.931-.076.84.458 1.088 1.584.42 4.008.42 2.443 0 4.008-.42.554-.248.477-1.088-.095-2.5-.286-3.931.534-1.775.687-2.748-.038-1.241-.534-1.909-.126-.11-.216-.11-.13 0-.185.225.133.381.248.744.153.458.114.859-.038.649-.124 1.059-.086.41-.353.41l-.028.001q-.449 0-.449-1.203 0-.44.115-1.069-.099-.167-.212-.167-.107 0-.227.148-.058.458-.077 1.012-.076.84.401 2.366-.172 2.157-.172 4.313-1.297.21-3.187.267-1.87-.057-3.168-.267 0-2.156-.172-4.313.477-1.527.401-2.366-.019-.554-.076-1.012-.12-.148-.227-.148-.114 0-.212.167.114.63.114 1.069 0 1.203-.449 1.203h-.028q-.267 0-.353-.411-.086-.41-.124-1.06-.038-.4.115-.858.114-.363.248-.744-.056-.225-.185-.225z"/><path d="M8.22.375c-9.625 0-9.625 17.25 0 17.25M8.22.375h32.959M8.22 17.625h32.959M48.866.375v17.25M41.179.375c9.625 0 9.625 17.25 0 17.25" fill="none" stroke="#000"/></svg>