<svg xmlns="http://www.w3.org/2000/svg" width="72.781" height="18"><path d="M11.386 8.203c-.51.04-.793.296-.847.767.067.51.35.78.847.806.498-.026.76-.295.787-.806-.04-.47-.303-.726-.787-.767zm.06-1.694c.364 0 .7.068 1.01.202a2.659 2.659 0 011.371 1.361c.134.303.201.622.201.958 0 .35-.067.676-.202.978a2.567 2.567 0 01-2.38 1.523c-.362 0-.702-.064-1.018-.192a2.426 2.426 0 01-.816-.534 2.621 2.621 0 01-.545-.797 2.38 2.38 0 01-.202-.978c0-.336.068-.655.202-.958.134-.302.316-.571.545-.806.228-.236.5-.42.816-.555a2.574 2.574 0 011.019-.202zm-.04-.685c-.443 0-.86.084-1.25.252-.39.168-.726.396-1.008.685a3.36 3.36 0 00-.676 1.009 3.053 3.053 0 00-.252 1.24c0 .444.084.857.252 1.24.168.384.393.716.676.999a3.2 3.2 0 002.258.927c.444 0 .857-.084 1.24-.252a3.36 3.36 0 001.009-.675c.289-.283.518-.615.686-.999.168-.383.252-.796.252-1.24 0-.444-.084-.857-.252-1.24a3.268 3.268 0 00-1.694-1.694 3.053 3.053 0 00-1.24-.252zM17.882 11.088c.4.153.837.645.965 1.05.128.406.112.879.022 1.344-.09.458-.27.894-.488 1.18-.15.195-.285.307-.413.345h-.12c-.127-.03-.293-.143-.458-.346-.217-.285-.398-.72-.488-1.179-.09-.465-.105-.938.023-1.344.127-.405.606-.931.957-1.046v-.004zm-.424-8.838v.901h-.811v.578h.81l-.112 6.818c-.578.3-.938.81-1.111 1.359a3.576 3.576 0 00-.068 1.734 3.49 3.49 0 00.646 1.457c.233.3.54.548.901.623v.022c.023.008.045.008.068.008.03 0 .06-.008.09-.008a.532.532 0 00.105.008c.03 0 .052 0 .082-.008v-.022c.36-.075.669-.323.901-.623a3.49 3.49 0 00.646-1.457 3.576 3.576 0 00-.067-1.734 2.228 2.228 0 00-1.112-1.337l-.112-6.84h.766l.022-.578h-.856V2.25h-.788zM21.93 3.897q-.091 0-.217.11-.496.668-.534 1.909.153.973.687 2.748-.19 1.431-.286 3.931-.077.84.458 1.088 1.584.42 4.008.42 2.442 0 4.007-.42.554-.248.478-1.088-.096-2.5-.287-3.931.535-1.775.687-2.748-.038-1.241-.534-1.909-.126-.11-.216-.11-.129 0-.185.225.134.381.248.744.153.458.115.859-.038.649-.124 1.059-.086.41-.353.41l-.028.001q-.45 0-.45-1.203 0-.44.115-1.069-.098-.167-.212-.167-.107 0-.227.148-.057.458-.076 1.012-.077.84.4 2.366-.171 2.157-.171 4.313-1.298.21-3.187.267-1.87-.057-3.169-.267 0-2.156-.171-4.313.477-1.527.4-2.366-.019-.554-.076-1.012-.12-.148-.227-.148-.114 0-.212.167.115.63.115 1.069 0 1.203-.45 1.203h-.027q-.268 0-.354-.411-.085-.41-.124-1.06-.038-.4.115-.858.114-.363.248-.744-.056-.225-.185-.225zM44.269 7.686q-1.86 2.529-5.353 2.597-3.47-.068-5.33-2.597zm-11.838-.6q1.906 3.812 6.485 3.827 4.601-.015 6.507-3.826zM53.136 2.689c-.022 3.239-.048 6.477-.068 9.716.047.525.074 1.051.135 1.574.036.28.218.54.179.827-.06.193-.187.496-.401.496a.3.3 0 01-.156-.049c-.347-.134-.679-.355-1.061-.355-.021 0-.043.001-.064.003h-.057c-.728 0-1.443.16-2.165.23-.395.057-.788.147-1.188.147h-.05c.721-.164 1.435-.44 2.004-.926.774-.602 1.551-1.2 2.324-1.805.105-.129-.05-6.71-.102-9.835l.67-.023zm.393-.439c-.382.013-.952.007-1.333.03-.203.06-.168.288-.165.452l.158 9.566c-.845.646-1.683 1.302-2.533 1.942a4.332 4.332 0 01-1.582.604c-.248-.002-.499-.13-.746-.13a.573.573 0 00-.237.048c-.19.146-.256.547-.001.67.384.206.812.284 1.242.284.272 0 .545-.031.81-.081.613-.105 1.233-.166 1.849-.253.202-.017.413-.045.62-.045.224 0 .444.032.646.143.244.107.512.27.783.27.09 0 .182-.018.272-.063.284-.177.448-.507.517-.826.057-.416-.224-.784-.22-1.198-.031-.453-.083-.904-.103-1.357.023-3.273.15-10.056.023-10.056zM56.852 3.093q1.511.22 1.58 1.382v8.382q-.706-.843-2.536-1.184l.956-8.58zm-.425-.843l-1.131 10.022q2.52.289 3.136 1.8v1.678h.751V4.475q0-1.883-2.756-2.225zM62.2 3.093q1.511.22 1.58 1.382v8.382q-.707-.843-2.537-1.184l.957-8.58zm-.425-.843l-1.132 10.022q2.521.289 3.136 1.8v1.678h.752V4.475q0-1.883-2.756-2.225z"/><path d="M8.22.375c-9.625 0-9.625 17.25 0 17.25M8.22.375h56.311M8.22 17.625h56.311M72.218.375v17.25M64.531.375c9.625 0 9.625 17.25 0 17.25" fill="none" stroke="#000"/></svg>