<svg xmlns="http://www.w3.org/2000/svg" width="46.749" height="18"><path d="M14.15 8.066a1.31 1.31 0 00-.312.038c-.21.052-.437.168-.682.35H8.22v1.092h4.936c.245.182.472.298.682.35a1.31 1.31 0 00.623 0c.205-.052.41-.168.617-.35h.19c.197.182.4.298.61.35a1.316 1.316 0 00.63 0c.209-.052.432-.168.67-.35h4.983V8.454h-4.983c-.238-.182-.461-.298-.67-.35a1.316 1.316 0 00-.63 0c-.21.052-.413.168-.61.35h-.19a1.492 1.492 0 00-.617-.35 1.274 1.274 0 00-.31-.038zM25.45 11.088c.4.153.837.645.965 1.05.127.406.112.879.022 1.344-.09.458-.27.894-.488 1.18-.15.195-.285.307-.413.345h-.12c-.128-.03-.293-.143-.458-.346-.218-.285-.398-.72-.488-1.179-.09-.465-.105-.938.022-1.344.128-.405.606-.931.958-1.046v-.004zm-.424-8.838v.901h-.811v.578h.81l-.112 6.818c-.578.3-.939.81-1.111 1.359a3.576 3.576 0 00-.068 1.734 3.49 3.49 0 00.646 1.457c.233.3.54.548.9.623v.022c.023.008.046.008.068.008.03 0 .06-.008.09-.008a.532.532 0 00.106.008c.03 0 .052 0 .082-.008v-.022c.36-.075.669-.323.901-.623a3.49 3.49 0 00.646-1.457 3.576 3.576 0 00-.068-1.734 2.228 2.228 0 00-1.11-1.337l-.113-6.84h.765l.023-.578h-.856V2.25h-.788zM29.497 3.897q-.09 0-.216.11-.496.668-.534 1.909.152.973.687 2.748-.191 1.431-.287 3.931-.076.84.458 1.088 1.585.42 4.008.42 2.443 0 4.008-.42.554-.248.477-1.088-.095-2.5-.286-3.931.534-1.775.687-2.748-.038-1.241-.534-1.909-.126-.11-.216-.11-.129 0-.185.225.134.381.248.744.153.458.115.859-.039.649-.124 1.059-.086.41-.354.41l-.028.001q-.449 0-.449-1.203 0-.44.115-1.069-.099-.167-.212-.167-.107 0-.227.148-.057.458-.076 1.012-.077.84.4 2.366-.171 2.157-.171 4.313-1.298.21-3.188.267-1.87-.057-3.168-.267 0-2.156-.172-4.313.478-1.527.401-2.366-.019-.554-.076-1.012-.12-.148-.227-.148-.114 0-.212.167.114.63.114 1.069 0 1.203-.449 1.203h-.028q-.267 0-.353-.411-.086-.41-.124-1.06-.038-.4.115-.858.114-.363.248-.744-.056-.225-.185-.225z"/><path d="M8.22.375c-9.625 0-9.625 17.25 0 17.25M8.22.375H38.5M8.22 17.625H38.5M46.187.375v17.25M38.5.375c9.624 0 9.624 17.25 0 17.25" fill="none" stroke="#000"/></svg>