<svg xmlns="http://www.w3.org/2000/svg" width="45.899" height="18"><path d="M11.386 8.203c-.51.04-.793.296-.847.767.067.51.35.78.847.806.498-.026.76-.295.787-.806-.04-.47-.303-.726-.787-.767zm.06-1.694c.364 0 .7.068 1.01.202a2.659 2.659 0 011.371 1.361c.134.303.201.622.201.958 0 .35-.067.676-.202.978a2.567 2.567 0 01-2.38 1.523c-.362 0-.702-.064-1.018-.192a2.426 2.426 0 01-.816-.534 2.621 2.621 0 01-.545-.797 2.38 2.38 0 01-.202-.978c0-.336.068-.655.202-.958.134-.302.316-.571.545-.806.228-.236.5-.42.816-.555a2.574 2.574 0 011.019-.202zm-.04-.685c-.443 0-.86.084-1.25.252-.39.168-.726.396-1.008.685a3.36 3.36 0 00-.676 1.009 3.053 3.053 0 00-.252 1.24c0 .444.084.857.252 1.24.168.384.393.716.676.999a3.2 3.2 0 002.258.927c.444 0 .857-.084 1.24-.252a3.36 3.36 0 001.009-.675c.289-.283.518-.615.686-.999.168-.383.252-.796.252-1.24 0-.444-.084-.857-.252-1.24a3.268 3.268 0 00-1.694-1.694 3.053 3.053 0 00-1.24-.252zM20.206 4.239c.005 0-.02.03-.022.066 0 .037.028.066.022.066-.004 0-.023-.01-.088-.044-.02-.01-.032-.013.022-.044.049-.028.063-.044.066-.044zm.133 0c.007 0 .015.007.044.022.037.018.11.06.11.066.032.007-.087.034-.132.044a.161.161 0 01-.034.004c-.019 0-.029-.004-.033-.004-.012 0 .04-.001.045-.044.004-.037-.02-.088 0-.088zm-.067-.067a.251.251 0 00-.177.067l-.088.088.088.066c.06.026.122.044.2.044a.472.472 0 00.154-.022c.06-.019.148-.064.199-.066.09-.004.103-.019 0-.044a1.223 1.223 0 01-.221-.089.323.323 0 00-.155-.044zm.826 0h.014c.068 0 .042.089-.044.2-.047.058-.07.087-.089.087-.02 0-.026-.047-.022-.11.008-.127.044-.154.133-.177a.032.032 0 01.008 0zm-.192.328c.004 0 .007 0 .007.004 0 .008-.025.032-.044.044a.014.014 0 01-.008.002l-.014-.002a.022.022 0 01-.022-.022c0-.02.024-.022.044-.022.013 0 .028-.004.037-.004zm.25-.438c-.09 0-.287.18-.287.265 0 .034-.035.097-.066.132-.047.052-.036.068 0 .111.018.023.024.044.044.044a.281.281 0 00.11-.044c.225-.13.372-.508.2-.508zm-.177-.663c.152 0 .302.04.442.11.2.1.308.235.332.442.027.239-.08.461-.31.685-.125.123-.228.177-.265.177-.025 0-.023-.02.022-.088.271-.414.326-.67.177-.818-.063-.063-.097-.088-.22-.088-.03 0-.07.02-.111.022H21c-.26 0-.467-.096-.486-.221-.009-.062.02-.095.155-.155a.799.799 0 01.31-.066zm-.685.442l.265.11c.146.054.28.11.288.133.004.012.008.022.022.022.02 0 .043-.018.088-.044a.461.461 0 01.2-.067c.089 0 .132.064.132.177 0 .101-.044.19-.243.42-.166.191-.222.435-.045.486.116.033.003.464.31.486.082.006.22.093.353.2.197.155.221.205.221.308 0 .153-.187 1.276-.287 1.724-.084.374-.113.416-.376.508-.127.045-.465.088-.707.088l-.076.001h-.034c-.2-.013-.198.03-.376-.907-.212-1.116-.235-1.554-.11-1.679.03-.03.155-.086.287-.132.132-.046.271-.108.287-.133.045-.07.037-.195-.022-.31-.044-.084-.079-.11-.177-.11-.175 0-.309-.053-.309-.132 0-.037.015-.077.044-.089.08-.03.077-.095-.022-.132-.052-.02-.088-.048-.088-.089 0-.037-.02-.087-.044-.088-.127-.007-.017-.125.066-.265.116-.196.15-.211.287-.221.08 0 .196.062.265.088.134.052.2.067.221.067.011 0 .032-.013.022-.022-.136-.136-.477-.2-.508-.2h-.11l.088-.11.088-.088zm.928 4.817c.18 0 .317.02.332.044.013.02.032.662.044 1.414l.022 1.348-.597.066c-.546.056-.732.088-.861.088-.068 0-.131-.013-.2-.022l-.176-.022.022-.133a25.4 25.4 0 01.155-.972c.077-.446.143-.94.155-1.104.035-.514.099-.598.552-.663.16-.024.38-.044.552-.044zM16.34 2.25c-.023 0-.044.02-.044.066a.124.124 0 00-.05-.016c-.021 0-.026.02-.016.06a.147.147 0 00-.035-.005c-.034 0-.044.023-.031.072a.044.044 0 00-.014-.002.08.08 0 00-.053.024c-.015.015-.001.05.022.088.125.133.214.217.288.287.074.07.157.211.243.398.007.055.015.08 0 .089a.03.03 0 01-.014.003c-.013 0-.03-.008-.053-.026a1.254 1.254 0 01-.11-.198.46.46 0 00-.11-.177.074.074 0 00-.048-.019c-.025 0-.048.016-.063.04-.031.032-.014.067.044.134.059.066.108.175.155.33a.614.614 0 00.132.222c.106.266.214.539.354 1.105.204.823.31 1.152.442 1.237.227.146.864.281 1.37.31.41.022.605.116.729.309.08.126.302.996.353 1.392.03.222-.028.336-.176.397-.184.076-.164.365.022.442.058.024.088.052.088.066a.832.832 0 01-.132.177 1.76 1.76 0 00-.2.265c-.068.133-.049.14.2.155l.154.022v.155c-.005.087-.05.301-.088.486-.04.184-.096.488-.133.663a12.32 12.32 0 00-.154.972c-.1.888-.283 2.153-.376 2.497a1.764 1.764 0 01-.155.397c-.085.128-.641.526-.861.619-.47.2-.518.219-.553.31-.02.05-.012.113 0 .132.01.016.06.022.133.022.213 0 .637-.06 1.016-.155.788-.195.808-.206.796-.64-.006-.213.025-.293.243-.84.41-1.033.439-1.168.464-1.657.028-.563.031-.55.574-.575.132-.006.245-.022.331-.022l.092-.001.019.001c.033.011.06.059.044.155-.013.077-.01.262.022.42.146.725.254 1.83.2 2.032-.087.32-.206.414-.929.73-.488.213-.615.365-.353.397.017.002.052.003.103.003.1 0 .26-.003.449-.003.221 0 .483.004.736.004.127 0 .252-.001.369-.004.223-.005.236-.063.154-.375-.063-.241-.047-.482.067-1.569.086-.83.09-1.015 0-1.348-.041-.149-.076-.315-.067-.375.01-.06.016-.736 0-1.503-.02-1.02-.05-1.445-.088-1.613-.067-.293-.039-.707.11-1.414.144-.68.173-.74.288-.862.251-.266.47-.358 1.325-.464 1.078-.133 1.07-.115 1.15-.707.03-.221.051-.647.066-.95.025-.522.03-.568.132-.729.006-.008-.001-.012 0-.022.001-.01.003-.011 0-.022.063-.065.13-.116.155-.199.047-.156.096-.287.155-.353.058-.067.075-.102.044-.133a.052.052 0 00-.047-.028c-.02 0-.042.01-.064.028a.36.36 0 00-.11.155c-.035.082-.08.152-.11.199-.024.017-.04.025-.054.025a.03.03 0 01-.013-.003c-.016-.008-.008-.034 0-.089.086-.187.169-.305.243-.375.074-.07.163-.177.287-.31.024-.039.038-.072.022-.088a.034.034 0 00-.024-.01.14.14 0 00-.042.01c.013-.054.001-.092-.042-.092a.1.1 0 00-.024.004c.01-.041.005-.06-.017-.06a.124.124 0 00-.05.015c0-.046-.02-.066-.044-.066-.023 0-.057.02-.088.044-.07.102-.152.19-.265.288a.886.886 0 00-.221.265c-.047.093-.102.199-.133.331-.02.085-.018.206-.022.31-.002.006.002.014 0 .022-.058.331-.027.573-.11.95a6.04 6.04 0 00-.11.574c0 .156-.074.292-.178.331-.151.058-.359.073-1.082.155-.31.035-.518.066-.663.066a.644.644 0 01-.354-.088 1.155 1.155 0 00-.331-.066l-.22-.022c-.112-.115-.182-.23-.111-.354l.287-.22c.287-.266.42-.534.42-.84 0-.37-.108-.537-.442-.685a1.353 1.353 0 00-.53-.11c-.13 0-.258.011-.354.043-.242.08-.465.293-.663.619-.09.15-.224.343-.287.442-.15.234-.176.36-.066.376.06.008.081.017.066.066-.011.036.001.076.022.088.02.013.033.05.022.066-.037.06.062.338.133.376.038.02.34.023.353.088.014.071-.006.09-.22.111-.129.013-.371.05-.531.088-.148.036-.223.067-.31.067-.073 0-.152-.022-.287-.045a7.862 7.862 0 00-.552-.066 4.104 4.104 0 01-.42-.066l-.154-.044-.244-.486c-.462-1.01-.493-1.104-.441-1.348-.006-.01-.016-.013-.023-.022.001-.14.004-.29-.022-.398-.03-.133-.085-.238-.132-.331a.886.886 0 00-.221-.266 1.495 1.495 0 01-.265-.287c-.031-.023-.065-.044-.089-.044zM29.049 2.25q-.07 0-.17.086-.389.525-.419 1.498.12.764.54 2.157-.15 1.123-.225 3.085-.06.659.359.853 1.243.33 3.145.33 1.917 0 3.145-.33.435-.194.375-.853-.075-1.962-.225-3.085.42-1.393.54-2.157-.03-.973-.42-1.498-.099-.086-.17-.086-.1 0-.145.176.105.3.195.584.12.36.09.674-.03.51-.098.831-.067.322-.277.322l-.022.001q-.352 0-.352-.944 0-.345.09-.839-.077-.13-.166-.13-.084 0-.179.115-.045.36-.06.794-.06.659.315 1.857-.135 1.692-.135 3.385-1.018.165-2.5.21-1.469-.045-2.487-.21 0-1.693-.135-3.385.375-1.198.315-1.857-.015-.434-.06-.794-.095-.116-.178-.116-.09 0-.167.131.09.494.09.839 0 .944-.352.944h-.022q-.21 0-.277-.323-.068-.322-.098-.83-.03-.315.09-.675.09-.284.195-.584-.044-.176-.145-.176zM26.924 11.436v4.314h.72v-4.314zm4.957.006v4.308h.721v-4.308zm5.047 0v4.308h.721v-4.308z"/><path d="M8.22.375c-9.625 0-9.625 17.25 0 17.25M8.22.375h29.43M8.22 17.625h29.43M45.337.375v17.25M37.65.375c9.624 0 9.624 17.25 0 17.25" fill="none" stroke="#000"/></svg>