<svg xmlns="http://www.w3.org/2000/svg" width="40.154" height="18"><path d="M11.386 8.203c-.51.04-.793.296-.847.767.067.51.35.78.847.806.498-.026.76-.295.787-.806-.04-.47-.303-.726-.787-.767zm.06-1.694c.364 0 .7.068 1.01.202a2.659 2.659 0 011.371 1.361c.134.303.201.622.201.958 0 .35-.067.676-.202.978a2.567 2.567 0 01-2.38 1.523c-.362 0-.702-.064-1.018-.192a2.426 2.426 0 01-.816-.534 2.621 2.621 0 01-.545-.797 2.38 2.38 0 01-.202-.978c0-.336.068-.655.202-.958.134-.302.316-.571.545-.806.228-.236.5-.42.816-.555a2.574 2.574 0 011.019-.202zm-.04-.685c-.443 0-.86.084-1.25.252-.39.168-.726.396-1.008.685a3.36 3.36 0 00-.676 1.009 3.053 3.053 0 00-.252 1.24c0 .444.084.857.252 1.24.168.384.393.716.676.999a3.2 3.2 0 002.258.927c.444 0 .857-.084 1.24-.252a3.36 3.36 0 001.009-.675c.289-.283.518-.615.686-.999.168-.383.252-.796.252-1.24 0-.444-.084-.857-.252-1.24a3.268 3.268 0 00-1.694-1.694 3.053 3.053 0 00-1.24-.252zM17.882 11.088c.4.153.837.645.965 1.05.128.406.112.879.022 1.344-.09.458-.27.894-.488 1.18-.15.195-.285.307-.413.345h-.12c-.127-.03-.293-.143-.458-.346-.217-.285-.398-.72-.488-1.179-.09-.465-.105-.938.023-1.344.127-.405.606-.931.957-1.046v-.004zm-.424-8.838v.901h-.811v.578h.81l-.112 6.818c-.578.3-.938.81-1.111 1.359a3.576 3.576 0 00-.068 1.734 3.49 3.49 0 00.646 1.457c.233.3.54.548.901.623v.022c.023.008.045.008.068.008.03 0 .06-.008.09-.008a.532.532 0 00.105.008c.03 0 .052 0 .082-.008v-.022c.36-.075.669-.323.901-.623a3.49 3.49 0 00.646-1.457 3.576 3.576 0 00-.067-1.734 2.228 2.228 0 00-1.112-1.337l-.112-6.84h.766l.022-.578h-.856V2.25h-.788zM23.304 2.25q-.071 0-.17.086-.389.525-.419 1.498.12.764.54 2.157-.15 1.123-.225 3.085-.06.659.359.853 1.243.33 3.145.33 1.917 0 3.145-.33.434-.194.375-.853-.075-1.962-.225-3.085.42-1.393.539-2.157-.03-.973-.42-1.498-.098-.086-.169-.086-.1 0-.145.176.105.3.195.584.12.36.09.674-.03.51-.098.831-.067.322-.277.322l-.022.001q-.352 0-.352-.944 0-.345.09-.839-.077-.13-.166-.13-.084 0-.179.115-.045.36-.06.794-.06.659.315 1.857-.135 1.692-.135 3.385-1.018.165-2.501.21-1.468-.045-2.486-.21 0-1.693-.135-3.385.375-1.198.315-1.857-.015-.434-.06-.794-.095-.116-.178-.116-.09 0-.167.131.09.494.09.839 0 .944-.352.944h-.022q-.21 0-.277-.323-.068-.322-.098-.83-.03-.315.09-.675.09-.284.195-.584-.044-.176-.145-.176zM21.179 11.436v4.314h.72v-4.314zm4.957.006v4.308h.721v-4.308zm5.047 0v4.308h.721v-4.308z"/><path d="M8.22.375c-9.625 0-9.625 17.25 0 17.25M8.22.375h23.684M8.22 17.625h23.684M39.592.375v17.25M31.904.375c9.625 0 9.625 17.25 0 17.25" fill="none" stroke="#000"/></svg>