<svg xmlns="http://www.w3.org/2000/svg" width="48.047" height="18"><path d="M10.477 2.605c.52 0 .936.15 1.226.36.005.04.015.08.006.12a.8.8 0 01-.296.472c-.237.155-.523.2-.793.268-.068.006-.014.023.023.029a5.534 5.534 0 00.768.074 1.22 1.22 0 00.574-.234c.06-.05.11-.112.153-.177.111.26.171.535.196.688a.22.22 0 00.151.175c.854.261 1.529 1.432 2.16 2.212 1.297 1.602 2.4 3.394 3.67 5.07-.703-.342-1.404-.688-2.108-1.03-1.44-.759-2.94-1.363-4.203-2.318l-.006-.006c-.728-.606-1.472-1.245-1.754-2.095-.112-.69 1.317-1.933 1.156-1.985a.156.156 0 00-.048-.007c-.344 0-1.315.846-1.514 1.652-.002-.011-.008-.024-.01-.034-.055-.267-.117-.942.05-1.485a.218.218 0 00.008-.077 1.476 1.476 0 00-.092-.476c-.048-.127-.105-.258-.196-.574-.023-.08-.106-.246-.155-.258.14-.104.28-.211.483-.282a.326.326 0 00-.099.235c0 .173.123.312.274.312.15 0 .273-.14.273-.312V2.92a.308.308 0 00-.191-.292c.04-.005.071-.014.115-.017.061-.004.12-.006.179-.006zm.503 5.822c.049.05.101.094.151.141.16.585.31 1.23.52 1.729.362.859.911 1.606 1.379 2.365a1.36 1.36 0 00-.288.202 5.123 5.123 0 00-.15.145 1.958 1.958 0 00-.889-.673c.034-.542-.081-1.283-.254-2.09a26.177 26.177 0 00-.47-1.819zm.755.682c.86.709 1.82 1.304 2.756 1.905-.013.682-.013 1.333.063 2.006a2.558 2.558 0 00-1.078-.552c-.014 0-.027.01-.042.01-.487-.798-1.038-1.545-1.378-2.352a8.347 8.347 0 01-.321-1.017zm.305 3.94c.122.115.234.247.33.406a.225.225 0 00.193.106c.045 0 .089-.014.126-.04.162-.118.261-.244.358-.335a1 1 0 01.111-.088l.112 2.041c-.16-.01-.326-.026-.478-.026-.198 0-.372.027-.475.13-.126-.101-.373-.124-.668-.124-.076 0-.155.001-.236.004l.627-2.074zm.868-3.619c1.016.59 2.088 1.061 3.102 1.594l.004.002c.971.474 1.94.961 2.92 1.428.738.892 1.54 1.721 2.31 2.566l-1.614.27c-1.066-1.159-2.134-2.315-3.2-3.475a.216.216 0 00-.027-.027c-1.125-.853-2.365-1.562-3.495-2.358zm-2.381-7.18c-.102 0-.204.003-.308.01-.814.053-1.405.395-1.607.858-.03.07-.109.235-.005.235a1.763 1.763 0 01.256-.021c.313 0 .285.129.353.146.067.211.216.635.227.8-.183.646-.115 1.323-.049 1.65.113.548.473 1.187.947 1.784a.214.214 0 000 .125c.225.691.488 1.626.677 2.502.188.875.294 1.707.237 2.117a.22.22 0 00.166.246c.033.009.063.024.095.034l-.696 2.309a2.135 2.135 0 00-.444-.041c-.286 0-.567.037-.798.037-.095 0-.18-.006-.255-.024a.41.41 0 00-.094-.009c-.327 0-1.071.23-1.006.66.114-.096.194-.12.282-.12.083 0 .172.02.304.02h.02c.19-.003.523-.062.79-.062.135 0 .253.015.328.06.177-.007.337-.01.487-.01.637 0 1.085.053 1.875.057.591-.006 1.648-.03 2.23-.06.338.003.523.041.692.041h.03c.1-.003.199-.043.36-.043.092 0 .205.013.35.053-.187-.256-.656-.514-.997-.514a.443.443 0 00-.226.054 3.81 3.81 0 00-.381-.017c-.164 0-.336.007-.509.015l-.117-2.122c.365.152.642.387.96.765a.222.222 0 00.385-.185c-.144-.779-.16-1.513-.151-2.294.405.265.804.534 1.182.82l3.27 3.554a.217.217 0 00.197.067c.712-.12 1.425-.236 2.137-.355a.22.22 0 00.172-.145.224.224 0 00-.044-.223c-.557-.623-1.132-1.223-1.689-1.834.952.586 2.157 1.316 2.31 1.316.017 0 .021-.009.01-.029-.071-.122-.675-.567-1.331-1.03.104.043.206.09.31.132l.013.009c.078.025.12.043.202.046a.214.214 0 00.082-.013.238.238 0 00.141-.113.24.24 0 00.017-.18c-.012-.037-.028-.057-.04-.073-.046-.063-.077-.08-.122-.115a3.415 3.415 0 00-.153-.112c-.115-.078-.253-.167-.37-.246a3.744 3.744 0 01-.267-.193l-2.92-2.053c-.005-.004-.014 0-.02-.004-1-1.401-1.94-2.869-3.034-4.22-.559-.69-1.2-1.896-2.24-2.298-.05-.297-.163-.846-.565-1.237-.343-.332-.837-.485-1.392-.519a4.296 4.296 0 00-.264-.008zM25.775 11.088c.4.153.837.645.965 1.05.128.406.113.879.022 1.344-.09.458-.27.894-.488 1.18-.15.195-.285.307-.413.345h-.12c-.127-.03-.293-.143-.458-.346-.217-.285-.398-.72-.488-1.179-.09-.465-.105-.938.023-1.344.127-.405.606-.931.957-1.046v-.004zM25.35 2.25v.901h-.811v.578h.81l-.112 6.818c-.578.3-.938.81-1.111 1.359a3.576 3.576 0 00-.068 1.734 3.49 3.49 0 00.646 1.457c.233.3.54.548.901.623v.022c.023.008.045.008.068.008.03 0 .06-.008.09-.008a.532.532 0 00.105.008c.03 0 .052 0 .083-.008v-.022c.36-.075.668-.323.9-.623a3.49 3.49 0 00.646-1.457 3.576 3.576 0 00-.067-1.734 2.228 2.228 0 00-1.112-1.337l-.112-6.84h.766l.022-.578h-.856V2.25h-.788zM31.197 2.25q-.071 0-.17.086-.389.525-.419 1.498.12.764.54 2.157-.15 1.123-.225 3.085-.06.659.359.853 1.243.33 3.145.33 1.917 0 3.145-.33.434-.194.375-.853-.075-1.962-.225-3.085.42-1.393.539-2.157-.03-.973-.42-1.498-.098-.086-.169-.086-.1 0-.145.176.105.3.195.584.12.36.09.674-.03.51-.098.831-.067.322-.277.322l-.022.001q-.352 0-.352-.944 0-.345.09-.839-.077-.13-.166-.13-.084 0-.179.115-.045.36-.06.794-.06.659.315 1.857-.135 1.692-.135 3.385-1.018.165-2.501.21-1.468-.045-2.486-.21 0-1.693-.135-3.385.375-1.198.315-1.857-.015-.434-.06-.794-.095-.116-.178-.116-.09 0-.167.131.09.494.09.839 0 .944-.352.944h-.022q-.21 0-.277-.323-.068-.322-.098-.83-.03-.315.09-.675.09-.284.195-.584-.044-.176-.145-.176zM29.072 11.436v4.314h.72v-4.314zm4.957.006v4.308h.721v-4.308zm5.047 0v4.308h.721v-4.308z"/><path d="M8.22.375c-9.625 0-9.625 17.25 0 17.25M8.22.375h31.577M8.22 17.625h31.577M47.485.375v17.25M39.797.375c9.625 0 9.625 17.25 0 17.25" fill="none" stroke="#000"/></svg>