<svg xmlns="http://www.w3.org/2000/svg" width="52.223" height="18"><path d="M11.386 8.203c-.51.04-.793.296-.847.767.067.51.35.78.847.806.498-.026.76-.295.787-.806-.04-.47-.303-.726-.787-.767zm.06-1.694c.364 0 .7.068 1.01.202a2.659 2.659 0 011.371 1.361c.134.303.201.622.201.958 0 .35-.067.676-.202.978a2.567 2.567 0 01-2.38 1.523c-.362 0-.702-.064-1.018-.192a2.426 2.426 0 01-.816-.534 2.621 2.621 0 01-.545-.797 2.38 2.38 0 01-.202-.978c0-.336.068-.655.202-.958.134-.302.316-.571.545-.806.228-.236.5-.42.816-.555a2.574 2.574 0 011.019-.202zm-.04-.685c-.443 0-.86.084-1.25.252-.39.168-.726.396-1.008.685a3.36 3.36 0 00-.676 1.009 3.053 3.053 0 00-.252 1.24c0 .444.084.857.252 1.24.168.384.393.716.676.999a3.2 3.2 0 002.258.927c.444 0 .857-.084 1.24-.252a3.36 3.36 0 001.009-.675c.289-.283.518-.615.686-.999.168-.383.252-.796.252-1.24 0-.444-.084-.857-.252-1.24a3.268 3.268 0 00-1.694-1.694 3.053 3.053 0 00-1.24-.252zM17.882 11.088c.4.153.837.645.965 1.05.128.406.112.879.022 1.344-.09.458-.27.894-.488 1.18-.15.195-.285.307-.413.345h-.12c-.127-.03-.293-.143-.458-.346-.217-.285-.398-.72-.488-1.179-.09-.465-.105-.938.023-1.344.127-.405.606-.931.957-1.046v-.004zm-.424-8.838v.901h-.811v.578h.81l-.112 6.818c-.578.3-.938.81-1.111 1.359a3.576 3.576 0 00-.068 1.734 3.49 3.49 0 00.646 1.457c.233.3.54.548.901.623v.022c.023.008.045.008.068.008.03 0 .06-.008.09-.008a.532.532 0 00.105.008c.03 0 .052 0 .082-.008v-.022c.36-.075.669-.323.901-.623a3.49 3.49 0 00.646-1.457 3.576 3.576 0 00-.067-1.734 2.228 2.228 0 00-1.112-1.337l-.112-6.84h.766l.022-.578h-.856V2.25h-.788zM24.588 8.023q-.06.114-.137.251l-.129.752q0 .395.13.736.136.296.341.532-1.374-.25-2.475-.372.69-.41 1.086-.911.402-.502 1.184-.988zm3.242-.06q.418.03 1.405.63.987.592 2.035.98-.767.045-1.67.326-.912.273-1.914.41.16-.19.32-.54.15-.348.15-.743 0-.403-.143-.752-.076-.167-.183-.311zm-1.597-.35q.262 0 .504.107.258.106.456.288.197.175.319.425.098.251.113.54.016.288-.09.539-.115.25-.29.448-.181.205-.432.319-.25.106-.54.113l-.037.001q-.26 0-.501-.1-.258-.106-.456-.28-.19-.175-.304-.425-.106-.251-.121-.547 0-.281.106-.532.099-.25.274-.448.182-.205.432-.303.251-.137.532-.145h.035zm-.042-.515q-.497 0-.98.105-1.048.228-2.126 1.36-1.078 1.123-1.891 1.2l-.015.53q1.845.16 3.622.487.664.122 1.398.122 1.227 0 2.649-.342 2.263-.547 2.87-.661h1.002v-.653h-1.032q-.737-.25-1.974-.995-1.23-.744-2.347-1.01-.597-.143-1.176-.143zM34.97 3.897q-.09 0-.215.11-.496.668-.535 1.909.153.973.687 2.748-.19 1.431-.286 3.931-.076.84.458 1.088 1.584.42 4.008.42 2.443 0 4.008-.42.553-.248.477-1.088-.095-2.5-.286-3.931.534-1.775.687-2.748-.038-1.241-.534-1.909-.126-.11-.216-.11-.13 0-.185.225.133.381.248.744.153.458.114.859-.038.649-.124 1.059-.086.41-.353.41l-.028.001q-.449 0-.449-1.203 0-.44.115-1.069-.099-.167-.212-.167-.107 0-.227.148-.058.458-.077 1.012-.076.84.401 2.366-.172 2.157-.172 4.313-1.297.21-3.187.267-1.87-.057-3.168-.267 0-2.156-.172-4.313.477-1.527.401-2.366-.02-.554-.076-1.012-.12-.148-.227-.148-.114 0-.212.167.114.63.114 1.069 0 1.203-.449 1.203h-.028q-.267 0-.353-.411-.086-.41-.124-1.06-.038-.4.114-.858.115-.363.249-.744-.057-.225-.185-.225z"/><path d="M8.22.375c-9.625 0-9.625 17.25 0 17.25M8.22.375h35.753M8.22 17.625h35.753M51.66.375v17.25M43.973.375c9.625 0 9.625 17.25 0 17.25" fill="none" stroke="#000"/></svg>