<svg xmlns="http://www.w3.org/2000/svg" width="48.045" height="18"><path d="M11.386 8.203c-.51.04-.793.296-.847.767.067.51.35.78.847.806.498-.026.76-.295.787-.806-.04-.47-.303-.726-.787-.767zm.06-1.694c.364 0 .7.068 1.01.202a2.659 2.659 0 011.371 1.361c.134.303.201.622.201.958 0 .35-.067.676-.202.978a2.567 2.567 0 01-2.38 1.523c-.362 0-.702-.064-1.018-.192a2.426 2.426 0 01-.816-.534 2.621 2.621 0 01-.545-.797 2.38 2.38 0 01-.202-.978c0-.336.068-.655.202-.958.134-.302.316-.571.545-.806.228-.236.5-.42.816-.555a2.574 2.574 0 011.019-.202zm-.04-.685c-.443 0-.86.084-1.25.252-.39.168-.726.396-1.008.685a3.36 3.36 0 00-.676 1.009 3.053 3.053 0 00-.252 1.24c0 .444.084.857.252 1.24.168.384.393.716.676.999a3.2 3.2 0 002.258.927c.444 0 .857-.084 1.24-.252a3.36 3.36 0 001.009-.675c.289-.283.518-.615.686-.999.168-.383.252-.796.252-1.24 0-.444-.084-.857-.252-1.24a3.268 3.268 0 00-1.694-1.694 3.053 3.053 0 00-1.24-.252zM17.835 2.25q-1.742 0-1.742 1.674V15.75h.803V3.924q0-.87.939-.87.946 0 .946.87v7.87h.803v-7.87q0-1.674-1.75-1.674zM24.805 2.914q2.724.331 0 5.047-2.725-4.716 0-5.047zm0-.664q-3.773.262-.524 6.06h-3.214v.821h3.179v6.619h1.083V9.096h3.213V8.31H25.33q3.248-5.815-.524-6.06zM30.792 3.897q-.09 0-.215.11-.497.668-.535 1.909.153.973.687 2.748-.19 1.431-.286 3.931-.076.84.458 1.088 1.584.42 4.008.42 2.443 0 4.008-.42.553-.248.477-1.088-.096-2.5-.286-3.931.534-1.775.687-2.748-.039-1.241-.535-1.909-.125-.11-.216-.11-.128 0-.185.225.134.381.249.744.152.458.114.859-.038.649-.124 1.059-.086.41-.353.41l-.028.001q-.45 0-.45-1.203 0-.44.115-1.069-.098-.167-.211-.167-.107 0-.228.148-.057.458-.076 1.012-.076.84.4 2.366-.17 2.157-.17 4.313-1.299.21-3.188.267-1.87-.057-3.168-.267 0-2.156-.172-4.313.477-1.527.4-2.366-.018-.554-.076-1.012-.12-.148-.227-.148-.113 0-.212.167.115.63.115 1.069 0 1.203-.45 1.203h-.027q-.267 0-.353-.411-.086-.41-.124-1.06-.038-.4.114-.858.115-.363.248-.744-.056-.225-.185-.225z"/><path d="M8.22.375c-9.625 0-9.625 17.25 0 17.25M8.22.375h31.575M8.22 17.625h31.575M47.482.375v17.25M39.795.375c9.625 0 9.625 17.25 0 17.25" fill="none" stroke="#000"/></svg>