<svg xmlns="http://www.w3.org/2000/svg" width="43.874" height="18"><path d="M15.03 4.63c-.51.04-.793.295-.847.766.067.51.35.78.847.807.497-.027.76-.296.786-.807-.04-.47-.302-.726-.786-.766zm.06-1.694c.363 0 .7.067 1.009.201a2.659 2.659 0 011.371 1.361c.135.303.202.622.202.959 0 .35-.067.675-.202.978a2.567 2.567 0 01-2.38 1.523c-.363 0-.702-.065-1.018-.192a2.426 2.426 0 01-.817-.535 2.621 2.621 0 01-.544-.796 2.38 2.38 0 01-.202-.978c0-.337.067-.656.202-.958.134-.303.316-.572.544-.807.229-.235.501-.42.817-.555a2.574 2.574 0 011.018-.201zm-.04-.686c-.444 0-.86.084-1.25.252-.39.168-.726.397-1.009.686a3.36 3.36 0 00-.675 1.008 3.053 3.053 0 00-.252 1.24c0 .444.084.857.252 1.24.168.384.393.717.675.999a3.2 3.2 0 002.26.928c.443 0 .856-.084 1.24-.253a3.36 3.36 0 001.008-.675c.289-.282.517-.615.685-.998.168-.384.252-.797.252-1.24 0-.444-.084-.858-.252-1.24a3.268 3.268 0 00-1.694-1.695 3.053 3.053 0 00-1.24-.252zM11.21 11.616h.002c.972 0 2.074.062 3.842.062 1.768 0 2.87-.062 3.839-.062.101 0 .2 0 .3.002-.643.334-1.584.793-2.205.962-.771.21-1.385.24-1.89.24-.506 0-1.12-.03-1.892-.24-.62-.17-1.564-.63-2.206-.963l.21-.001zm1.665 1.508h-.003c-.153.008-.781.561-1.01.861-.148.195-.188.443-.042.56.042.032.09.047.142.047.127 0 .272-.091.378-.23.244-.32.648-1.16.556-1.232a.033.033 0 00-.02-.006zm4.397 0h-.003a.031.031 0 00-.018.006c-.092.073.312.912.556 1.232.106.139.251.23.378.23.052 0 .1-.015.142-.048.147-.116.106-.364-.042-.559-.23-.302-.866-.86-1.013-.86zm-3.678.179h-.003c-.133.013-.633.728-.789 1.084-.098.225-.078.476.091.553.03.013.06.02.09.02.143 0 .291-.138.372-.323.162-.37.356-1.284.25-1.332a.026.026 0 00-.01-.002zm2.959 0h-.003a.025.025 0 00-.008.002c-.106.048.089.961.25 1.332.081.185.229.322.372.322.03 0 .06-.006.09-.02.17-.076.189-.327.09-.552-.156-.359-.664-1.084-.791-1.084zm-2.083.133h-.002c-.123.01-.519.815-.62 1.197-.062.238-.004.483.175.532.019.005.038.008.057.008.155 0 .297-.168.352-.38.103-.392.157-1.325.044-1.356a.026.026 0 00-.006 0zm1.207 0h-.002l-.004.001c-.112.031-.06.964.044 1.356.055.212.197.38.352.38a.217.217 0 00.057-.008c.18-.049.237-.294.175-.532-.102-.384-.501-1.197-.622-1.197zm-.632.012h-.001c-.117.014-.3.919-.3 1.32 0 .247.118.468.304.468.183 0 .3-.221.3-.467 0-.405-.185-1.32-.301-1.32h-.002zm-.194-2.513h.2c1.315 0 2.468 0 3.37.018.903.018 1.568.057 1.845.115.24.05.528.18.745.359.216.179.358.396.375.634.075 1.073.044 2.153.006 3.24h-.043c.033-.525.05-1.126.042-1.689-.01-.65-.046-1.23-.15-1.599-.126-.445-.484-.744-.894-.783a15.054 15.054 0 00-1.463-.064c-.982 0-2.081.063-3.83.063-1.75 0-2.851-.063-3.835-.063-.496 0-.962.016-1.466.064-.433.04-.769.391-.893.831-.104.368-.141.937-.15 1.575-.01.553.008 1.143.041 1.665h-.043c-.038-1.087-.069-2.167.007-3.24.016-.238.159-.464.374-.645.216-.181.5-.308.735-.346.684-.11 2.513-.133 4.929-.135h.098zm-.079-.45h-.137c-2.355.002-4.104.016-4.883.141-.328.053-.67.21-.952.446-.281.237-.506.564-.534.957-.082 1.176-.04 2.344 0 3.504l.008.217h.959l-.018-.242a21.638 21.638 0 01-.056-1.865c.009-.622.057-1.19.133-1.46.084-.295.297-.486.504-.506.106-.01.211-.019.315-.026.263.149 1.915 1.073 2.977 1.363.82.223 1.486.255 2.01.255.523 0 1.188-.032 2.009-.255 1.048-.286 2.671-1.19 2.966-1.357.076.006.153.012.231.02.23.022.422.167.504.458.076.268.124.85.134 1.484a22.06 22.06 0 01-.056 1.89l-.019.241h.96l.007-.217c.041-1.16.082-2.328 0-3.504-.028-.394-.256-.716-.537-.948a2.222 2.222 0 00-.939-.453c-.367-.077-1.018-.106-1.928-.124-.91-.018-2.064-.018-3.38-.018h-.278zM23.818 2.25q-.053 0-.126.064-.29.39-.312 1.113.09.567.4 1.602-.11.834-.166 2.291-.045.49.267.635.923.244 2.336.244 1.424 0 2.336-.244.323-.145.279-.635-.056-1.457-.167-2.291.311-1.035.4-1.602-.022-.723-.311-1.113-.074-.064-.126-.064-.075 0-.108.13.078.223.145.435.089.267.066.5-.022.379-.072.618-.05.239-.206.239h-.016q-.262 0-.262-.7 0-.257.067-.624-.057-.097-.124-.097-.062 0-.132.086-.033.267-.044.59-.045.49.233 1.38-.1 1.256-.1 2.513-.756.123-1.858.156-1.09-.033-1.847-.156 0-1.257-.1-2.514.278-.89.234-1.38-.011-.322-.045-.589-.07-.086-.132-.086-.066 0-.124.097.067.367.067.623 0 .702-.262.702l-.016-.001q-.156 0-.206-.24-.05-.238-.072-.617-.022-.233.067-.5.066-.212.144-.434-.032-.131-.107-.131zM30.377 2.25q-.053 0-.126.064-.29.39-.311 1.113.089.567.4 1.602-.111.834-.167 2.291-.044.49.267.635.924.244 2.336.244 1.424 0 2.337-.244.322-.145.278-.635-.056-1.457-.167-2.291.311-1.035.4-1.602-.022-.723-.311-1.113-.073-.064-.126-.064-.075 0-.108.13.078.223.145.435.089.267.067.5-.023.379-.073.618-.05.239-.205.239h-.017q-.262 0-.262-.7 0-.257.067-.624-.057-.097-.123-.097-.063 0-.133.086-.033.267-.044.59-.045.49.233 1.38-.1 1.256-.1 2.513-.756.123-1.858.156-1.09-.033-1.846-.156 0-1.257-.1-2.514.278-.89.233-1.38-.011-.322-.044-.589-.07-.086-.133-.086-.066 0-.123.097.067.367.067.623 0 .702-.262.702l-.017-.001q-.155 0-.205-.24-.05-.238-.073-.617-.022-.233.067-.5.067-.212.145-.434-.033-.131-.108-.131zM26.9 9.312q-.057 0-.136.07-.313.421-.337 1.204.096.614.433 1.733-.12.903-.18 2.48-.049.53.288.686 1 .265 2.528.265 1.541 0 2.528-.265.35-.156.301-.686-.06-1.577-.18-2.48.337-1.12.433-1.733-.024-.783-.337-1.204-.08-.07-.136-.07-.081 0-.117.142.084.24.157.47.096.288.072.541-.024.41-.078.668-.054.26-.223.26h-.018q-.283 0-.283-.76 0-.276.072-.673-.062-.106-.133-.106-.068 0-.144.094-.036.289-.048.638-.048.53.253 1.492-.108 1.36-.108 2.721-.819.132-2.01.169-1.18-.037-1.999-.169 0-1.36-.108-2.72.3-.964.252-1.493-.012-.35-.048-.638-.076-.094-.143-.094-.072 0-.134.106.073.397.073.674 0 .759-.284.759h-.017q-.169 0-.223-.26-.054-.258-.078-.668-.024-.253.072-.541.072-.23.156-.47-.035-.142-.116-.142z"/><path d="M8.22.375c-9.625 0-9.625 17.25 0 17.25M8.22.375h27.404M8.22 17.625h27.404M43.312.375v17.25M35.624.375c9.625 0 9.625 17.25 0 17.25" fill="none" stroke="#000"/></svg>