<svg xmlns="http://www.w3.org/2000/svg" width="63" height="18"><path d="M14.483 4.63c-.51.04-.793.295-.847.766.067.51.35.78.847.807.498-.027.76-.296.787-.807-.04-.47-.303-.726-.787-.766zm.06-1.694c.364 0 .7.067 1.009.201a2.659 2.659 0 011.371 1.361c.135.303.202.622.202.959 0 .35-.067.675-.202.978a2.567 2.567 0 01-2.38 1.523c-.362 0-.702-.065-1.018-.192a2.426 2.426 0 01-.817-.535 2.621 2.621 0 01-.544-.796 2.38 2.38 0 01-.202-.978c0-.337.068-.656.202-.958.134-.303.316-.572.544-.807.229-.235.501-.42.817-.555a2.574 2.574 0 011.019-.201zm-.04-.686c-.443 0-.86.084-1.25.252-.39.168-.726.397-1.008.686a3.36 3.36 0 00-.676 1.008 3.053 3.053 0 00-.252 1.24c0 .444.084.857.252 1.24.168.384.393.717.676.999a3.2 3.2 0 002.258.928c.444 0 .857-.084 1.24-.253a3.36 3.36 0 001.009-.675c.289-.282.518-.615.686-.998.168-.384.252-.797.252-1.24 0-.444-.084-.858-.252-1.24a3.268 3.268 0 00-1.694-1.695 3.053 3.053 0 00-1.24-.252zM9.761 13.928L8.22 15.75h.752l.79-.942.797.942.774-.942.797.942.79-.942.797.942.79-.942.797.942.775-.942.797.942.797-.942.775.942.797-.942.79.942h.752l-1.542-1.822-.797.88-.775-.88-.797.88-.797-.88-.775.88-.797-.88-.79.88-.797-.88-.79.88-.797-.88-.774.88-.798-.88zM31.379 8.529v1.136c-2.661.012-5.322.02-7.984.033l1.216-1.169zm-6.932-.414l-2.016 1.994h9.361V8.115zm7.104-5.251c.245.06.457.084.712.089a7.536 7.536 0 00-.414 2.941c.935.44 1.869.58 2.822.58.676 0 1.362-.07 2.065-.155-1.044 3.244-3.354 5.558-5.861 7.114-1.156.718-3.409 1.346-5.263 1.65l-.103.015c.146-.029.293-.06.443-.094 1.464-.343 3.018-.836 3.934-1.288 2.197-1.084 4.053-3.56 4.482-5.606a1.11 1.11 0 00-.248-.961c-.218-.255-.535-.436-.903-.566-.481-.171-1.055-.255-1.639-.255-.189 0-.379.009-.567.026.35-1.194.58-2.315.54-3.49zm-.491-.614c.175 1.587-.216 3.142-.683 4.646.395-.074.77-.113 1.142-.113.51 0 1.013.073 1.548.224.318.113.567.266.712.435a.613.613 0 01.149.576c-.39 1.856-2.202 4.289-4.242 5.295-.849.419-2.397.916-3.837 1.253-.837.196-1.637.283-2.252.348-.398.075-1.302-.032-1.31.53.09.272.49.306.807.306.101 0 .194-.003.265-.004a15.804 15.804 0 002.326-.22c1.892-.31 4.153-.92 5.427-1.71 3.032-1.89 5.263-4.604 6.26-8.056-.775.166-1.546.256-2.313.256a9.157 9.157 0 01-2.776-.423c-.042-1.09.25-2.096.627-3.103-.14.014-.273.021-.403.021-.5 0-.94-.102-1.447-.261zM53.898 2.676q.332 0 .332.347v2.668h-1.01l.33-2.81q.017-.205.348-.205zm.016-.426q-.805 0-.852.458-.332 2.983-.71 2.999l-7.324.268-.758-.032q-.852-.9-1.515-.9l-.49-.03q-1.341.252-1.61.252-.189 0-.189.252 0 .347.537.347.921-.146 1.413-.146.09 0 .165.004.268 0 .442.221-.308.381-1.378.381l-.169-.002q-1.215-.031-2.146-.315-.458 0-.458.536.047.49 3.425.505l1.5-.158 8.554-.047 2.4.032V3.023q-.016-.773-.837-.773zM46.811 12.879c.806 0 1.814.414 2.302.902.427.426.483.992.498 1.518h-5.576c.016-.526.071-1.092.498-1.518.488-.488 1.473-.902 2.278-.902zm0-.451c-.955 0-1.984.441-2.586 1.044-.618.618-.688 1.432-.688 2.04v.238h6.549v-.237c0-.61-.047-1.423-.665-2.04-.602-.604-1.654-1.045-2.61-1.045z"/><path d="M8.22.375c-9.625 0-9.625 17.25 0 17.25M8.22.375h46.53M8.22 17.625h46.53M62.438.375v17.25M54.75.375c9.625 0 9.625 17.25 0 17.25" fill="none" stroke="#000"/></svg>