<svg xmlns="http://www.w3.org/2000/svg" width="44.752" height="18"><path d="M15.117 4.63c-.511.04-.794.295-.847.766.067.51.35.78.847.807.497-.027.76-.296.786-.807-.04-.47-.302-.726-.786-.766zm.06-1.694c.363 0 .7.067 1.009.201a2.659 2.659 0 011.371 1.361c.134.303.202.622.202.959 0 .35-.068.675-.202.978a2.567 2.567 0 01-2.38 1.523c-.363 0-.702-.065-1.018-.192a2.426 2.426 0 01-.817-.535 2.621 2.621 0 01-.544-.796 2.38 2.38 0 01-.202-.978c0-.337.067-.656.202-.958.134-.303.315-.572.544-.807.229-.235.5-.42.817-.555a2.574 2.574 0 011.018-.201zm-.04-.686c-.444 0-.86.084-1.25.252-.39.168-.726.397-1.009.686a3.36 3.36 0 00-.675 1.008 3.053 3.053 0 00-.253 1.24c0 .444.085.857.253 1.24.168.384.393.717.675.999a3.2 3.2 0 002.259.928c.444 0 .857-.084 1.24-.253a3.36 3.36 0 001.008-.675c.29-.282.518-.615.686-.998.168-.384.252-.797.252-1.24 0-.444-.084-.858-.252-1.24a3.268 3.268 0 00-1.694-1.695 3.053 3.053 0 00-1.24-.252zM21.603 13.543V15.3H8.67v-1.756zm-12.885-1.78v1.33H8.22v2.657h13.834v-2.658h-.404v-1.328h-.45v1.328h-1.116v-1.328h-.45v1.328h-1.116v-1.328h-.45v1.328h-1.092v-1.328H16.5v1.328H15.41v-1.328h-.451v1.328h-1.115v-1.328h-.451v1.328h-1.115v-1.328h-.451v1.328h-1.092v-1.328h-.45v1.328H9.168v-1.328zM29.849 2.652c.175.12.162.185.144.257-.024.093-.307.155-.435.155-.036 0-.06-.005-.063-.015 0-.084.139-.301.354-.397zm-1.453 1.906c-.18 0-.27.096-.27.288 0 .24.109.359.324.359h.018a.8.8 0 00.629-.287V4.81c0-.084-.7-.252-.7-.252zm2.325-1.45c.262.213-.216.814-.5 1.427l-.098.21c.495-.313.752-.923.752-.923.12.19-.27.708-.15.862.131.467.667 1.03-.54 2.178-.156.096-1.95 1.054-2.094 1.054-.108 0-.186-.083-.45-.322l.54-.431v-.126l-.018-.018h-.108c-.18 0-.407.114-.683.341a5.012 5.012 0 01-.49-.586c.224-.176.313-.297.3-.461.033-.203-.103-.235-.207-.235-.049 0-.09.007-.105.007v.144c-.036.072-.114.131-.234.18-.048 0-.072-.162-.072-.162 0-.084.192-.348.575-.79 1.054-1.294 1.867-1.952 2.561-1.952l.158.012c-.266.167-.143.45-.143.45.278-.246.73-.754 1.006-.859zm.73.872h.006c1.819 1.748 2.095 2.936 2.106 6.92l-3.082.05-.043-3.205c0-.216.048-.475.24-.582 1.291-.998.637-2.513.552-2.682-.033-.383.117-.5.221-.5zm-1.55-1.73c-.109 0-.347 0-.588.262-.214.233-.284.673-.699.823-.415.283-.69.578-.953.85-1.054 1.149-1.406 1.55-1.418 1.778-.84.685.066 1.09.342 1.249.898 1.041.744.968 1.13 1.137.138.037.218.069.29.069.076 0 .142-.037.26-.141.132 0 1.544-.682 1.544-.682.156 0 .222.513.222 1.687-.015.806-.1 2.138-.006 2.138h.006l.035.053h4.077l.018-.018-.054-1.185c-.083-1.485.519-5.213-2.932-7.136.04-.241-.153-.504-.397-.504-.122 0-.258.066-.382.234-.022-.29-.147-.591-.496-.614zM26.458 13.203c.715 0 1.609.367 2.042.8.378.379.428.88.442 1.347h-4.946c.014-.466.063-.968.442-1.347.432-.433 1.306-.8 2.02-.8zm0-.4c-.847 0-1.76.392-2.294.927-.548.548-.61 1.27-.61 1.81v.21h5.809v-.21c0-.54-.041-1.262-.59-1.81-.534-.535-1.467-.927-2.315-.927zM33.598 13.203c.714 0 1.608.367 2.041.8.379.379.428.88.442 1.347h-4.946c.014-.466.063-.968.442-1.347.433-.433 1.306-.8 2.02-.8zm0-.4c-.848 0-1.76.392-2.295.927-.548.548-.61 1.27-.61 1.81v.21h5.81v-.21c0-.54-.042-1.262-.59-1.81-.535-.535-1.468-.927-2.315-.927z"/><path d="M8.22.375c-9.625 0-9.625 17.25 0 17.25M8.22.375h28.282M8.22 17.625h28.282M44.19.375v17.25M36.502.375c9.625 0 9.625 17.25 0 17.25" fill="none" stroke="#000"/></svg>