<!DOCTYPE svg PUBLIC "-//W3C//DTD SVG 20010904//EN" "http://www.w3.org/TR/2001/REC-SVG-20010904/DTD/svg10.dtd">
<svg version="1.0" xmlns="http://www.w3.org/2000/svg" width="919px" height="234px" viewBox="0 0 9190 2340" preserveAspectRatio="xMidYMid meet">
<g id="layer101" fill="#000000" stroke="none">
<path d="M950 2190 c0 -7 1360 -10 4060 -10 2700 0 4060 3 4060 10 0 7 -1360 10 -4060 10 -2700 0 -4060 -3 -4060 -10z"/>
</g>
<g id="layer102" fill="#1f1f1f" stroke="none">
<path d="M328 2194 c-142 -34 -228 -122 -228 -233 0 -55 13 -84 60 -135 77 -83 199 -112 349 -82 85 17 131 34 131 47 0 17 -20 18 -61 3 -24 -8 -75 -16 -114 -17 -60 -2 -77 2 -117 25 -77 46 -113 128 -89 201 30 89 93 126 216 127 275 1 530 -186 750 -548 31 -51 105 -188 165 -303 211 -404 370 -645 544 -827 43 -45 77 -84 74 -87 -10 -11 -201 -25 -336 -25 -303 0 -570 52 -820 160 -268 115 -428 277 -463 465 -22 115 35 231 137 281 47 23 63 26 115 21 124 -11 250 -107 311 -237 37 -78 58 -90 58 -32 0 117 -71 217 -198 279 -74 37 -79 38 -187 38 -98 0 -116 -3 -167 -27 -236 -110 -265 -412 -62 -637 160 -177 494 -310 919 -367 172 -23 561 -24 685 -2 l85 15 43 -29 c125 -86 268 -110 160 -27 -24 18 -55 44 -70 57 l-27 25 72 24 c156 53 305 150 378 247 94 123 91 286 -5 432 -117 176 -328 332 -556 412 -148 52 -385 91 -555 92 l-80 1 -38 55 c-73 104 -194 249 -284 340 -195 196 -397 285 -640 283 -54 0 -124 -7 -155 -15z m1483 -762 c205 -52 337 -115 483 -232 275 -219 343 -512 156 -673 -69 -59 -241 -137 -301 -137 -25 0 -149 196 -374 590 -106 184 -211 367 -235 405 -23 39 -45 74 -48 79 -11 18 204 -3 319 -32z"/>
<path d="M7215 2125 c-23 -22 -27 -32 -22 -67 6 -46 29 -75 76 -95 67 -28 121 7 121 79 0 56 -41 98 -102 105 -41 5 -50 2 -73 -22z"/>
<path d="M2190 2124 c0 -22 504 -1038 624 -1258 98 -179 126 -202 233 -191 l61 6 -43 62 c-97 140 -257 425 -450 802 -80 156 -99 200 -74 170 145 -173 312 -299 477 -361 59 -23 112 -31 112 -18 0 3 -35 72 -78 152 -132 250 -192 393 -207 495 -9 60 6 87 47 87 66 0 201 -176 278 -363 70 -169 202 -327 321 -386 86 -42 188 -63 251 -51 113 22 198 108 138 140 -16 9 -22 6 -35 -20 -32 -63 -108 -76 -193 -34 -154 77 -394 419 -409 583 -10 109 38 140 128 83 73 -47 158 -160 272 -364 111 -198 118 -204 223 -193 l63 7 -29 43 c-91 133 -181 343 -194 455 -9 75 7 99 53 80 55 -22 146 -141 238 -310 78 -142 154 -350 197 -540 30 -131 33 -140 62 -151 56 -21 106 30 107 109 1 57 -21 102 -77 160 l-41 43 155 -2 155 -2 -1 45 c0 36 -18 81 -86 219 -150 302 -176 429 -89 429 56 0 184 -176 241 -332 58 -160 202 -333 329 -398 35 -17 95 -38 133 -46 62 -13 77 -13 131 1 78 20 132 61 132 101 0 22 -5 30 -22 32 -15 2 -23 -2 -23 -11 0 -9 -14 -27 -31 -41 -105 -89 -310 63 -484 359 -83 140 -110 240 -83 300 27 59 107 36 192 -55 64 -69 122 -157 210 -315 37 -66 83 -135 102 -154 36 -33 37 -33 102 -27 37 4 68 8 69 10 2 2 -16 32 -39 68 -58 87 -144 269 -163 343 -20 80 -20 161 1 169 27 10 34 7 85 -41 63 -59 139 -174 214 -323 73 -146 103 -189 188 -272 164 -161 348 -181 415 -46 31 61 32 186 4 268 -34 97 -90 197 -157 279 -36 44 -65 84 -65 89 0 20 51 42 97 42 122 0 169 -66 455 -635 276 -548 330 -649 371 -693 43 -46 71 -55 145 -47 l64 7 -20 21 c-68 77 -258 409 -501 880 -44 87 -81 160 -81 163 0 3 22 -21 49 -53 115 -137 251 -244 410 -320 68 -33 161 -55 161 -39 0 4 -30 61 -66 126 -174 318 -258 552 -212 598 7 7 25 12 40 12 59 0 161 -128 273 -344 47 -90 65 -110 80 -86 15 24 -141 309 -214 392 -48 54 -129 98 -180 98 -86 0 -151 -67 -151 -154 0 -94 27 -165 132 -348 28 -49 48 -94 44 -103 -8 -22 -58 -18 -92 8 -152 113 -274 264 -403 499 -46 84 -36 78 -154 93 l-48 6 21 -40 c11 -23 19 -41 18 -41 -2 0 -25 11 -52 25 -71 36 -163 30 -217 -14 -21 -17 -24 -17 -88 16 -90 46 -160 53 -221 21 -56 -29 -80 -70 -88 -152 l-7 -65 -65 87 c-79 105 -142 152 -206 152 -104 0 -156 -117 -117 -265 3 -11 -14 7 -37 40 -58 82 -157 182 -202 206 -105 54 -202 -7 -215 -137 l-6 -57 -21 29 c-39 56 -138 153 -171 168 -98 47 -189 -15 -202 -139 -8 -69 23 -145 165 -405 45 -81 11 -119 -119 -134 l-45 -5 -19 52 c-38 109 -128 304 -181 394 -54 93 -146 195 -209 234 -17 11 -49 19 -74 19 -37 0 -49 -6 -81 -38 -46 -46 -57 -90 -43 -179 5 -35 6 -60 3 -56 -4 5 -30 40 -58 79 -58 79 -133 154 -180 178 -17 9 -51 16 -76 16 -79 0 -135 -68 -139 -169 -1 -23 -2 -41 -4 -41 -1 0 -18 24 -38 54 -64 97 -159 165 -230 166 -47 0 -116 -40 -137 -80 -22 -43 -23 -93 -2 -173 18 -70 35 -106 111 -234 58 -98 63 -126 23 -131 -85 -10 -321 252 -460 511 -23 42 -49 81 -58 86 -21 10 -142 23 -142 15z m3531 -84 c49 -26 54 -36 34 -83 -30 -72 -14 -147 36 -167 40 -17 76 -5 99 32 l18 31 51 -102 c78 -154 102 -282 66 -350 -46 -90 -182 -28 -294 133 -129 187 -199 422 -148 499 14 22 25 27 58 27 22 0 58 -9 80 -20z"/>
<path d="M7550 2119 c-82 -25 -129 -92 -130 -182 0 -63 25 -115 67 -140 29 -17 51 -55 154 -263 125 -253 169 -317 235 -349 44 -21 115 -16 144 10 31 28 10 45 -41 31 -53 -14 -86 4 -117 64 -35 68 -27 157 27 275 59 132 76 205 62 273 -13 67 -44 122 -104 184 -50 51 -45 64 20 46 106 -29 175 -116 306 -388 76 -156 147 -254 234 -321 133 -102 280 -118 337 -37 39 55 3 169 -79 257 -79 84 -155 125 -299 161 -67 16 -70 18 -83 56 -21 59 -20 182 0 221 22 42 45 53 104 53 125 -1 249 -121 353 -343 39 -84 65 -111 76 -82 4 8 -24 77 -61 152 -59 119 -77 146 -144 214 -70 70 -82 79 -150 99 -169 52 -311 -23 -330 -172 l-6 -53 -21 33 c-11 18 -49 62 -83 97 -74 76 -123 96 -245 100 -44 2 -106 6 -136 9 -30 3 -71 1 -90 -5z m93 -54 c-29 -21 -59 -73 -67 -117 -8 -44 -18 -48 -34 -13 -18 39 -14 89 9 119 17 21 29 26 67 26 44 0 45 -1 25 -15z m89 -42 c65 -70 85 -168 68 -334 -23 -227 -28 -284 -23 -291 2 -5 1 -8 -4 -8 -7 0 -213 390 -213 404 0 3 7 6 15 6 20 0 35 40 35 91 0 51 22 102 56 134 33 31 35 31 66 -2z m649 -329 c126 -38 236 -122 284 -217 28 -57 33 -128 11 -146 -32 -27 -124 38 -216 154 -50 63 -140 202 -140 217 0 10 -3 11 61 -8z"/>
</g>


</svg>