<svg xmlns="http://www.w3.org/2000/svg" viewBox="0 0 145.88 398.57"><defs><style>.cls-1,.cls-2{fill:none}.cls-1{stroke:#3b352f;stroke-linecap:round;stroke-linejoin:round;stroke-width:0}.cls-3{fill:#3b352f}</style></defs><g id="Layer_2" data-name="Layer 2"><g id="background"><path d="M137.14 92.51v-.01" class="cls-1"/><path d="M119 397.62a7.43 7.43 0 0 0 0-1v-.86c-2.23.06-13.21-.15-14.83-.19 0 .43.15 1.56.21 2 1.09-.06 2.22-.09 3.36-.09 1.71 0 3.46.05 5.18.1 1.96 0 4.08.07 6.08.04zM127.74 195l-1.91-.07c0 .37.06 1.31.1 1.67 1-.06 1.8-.09 2.4-.09a19.73 19.73 0 0 1 2 .11 26.16 26.16 0 0 0 4 .12 5.65 5.65 0 0 0 0-.89v-.71c-1.33.09-4.5-.03-6.59-.14zm7.64-98.84c-2.44 0-5.51-.18-8.49-.36-2.14-.12-4.34-.25-6.25-.31 0 .2 0 .57.08.9s.06.73.08.9c3.76.27 11.23.6 14.88.63l-.06-1.76zm.06 4.69c-2.16 0-12.9-.51-14.5-.59 0 .43.11 1.56.17 2h1.43c2.26 0 4.63.13 6.93.27 2 .11 4.07.23 6 .26a7 7 0 0 0 0-1c-.02-.38-.04-.69-.03-.94zM130.19 191a42.79 42.79 0 0 0-4.55-.16v1.52c1.37 0 2.43.09 3.38.14 1.66.08 3.1.16 5.56.09v-1.49a30.4 30.4 0 0 1-4.39-.1z" class="cls-2"/><path d="M129.71 63.66h.01l-.01-.01v.01z" class="cls-3"/><path fill="none" stroke="#fff" stroke-linecap="round" stroke-linejoin="round" stroke-width="0" d="m129.73 63.57-.07.02"/><path d="M46 395.18c2.5.49 5.15 1.23 7.71 1.94 1.84.51 3.74 1 5.52 1.45a5.49 5.49 0 0 0 .22-.82c.06-.24.11-.49.17-.68-2.07-.47-11.87-3.1-13.35-3.5-.05.36-.21 1.26-.27 1.61z" class="cls-2"/><path d="M52.76 395.05c-2-.54-4-1.1-5.75-1.55 0 .17-.08.48-.12.74s-.1.58-.12.73c3.44 1 10.31 2.82 13.72 3.6l.32-1.41c-2.3-.51-5.22-1.32-8.05-2.11zM36.24 102c3.21.4 6.64 1.07 9.95 1.72 2.38.47 4.84 1 7.15 1.32a6 6 0 0 0 .22-1c0-.3.1-.6.16-.84-2.57-.38-15.52-2.82-17.26-3.15-.06.4-.2 1.54-.22 1.95zm50.62 53.55 5.21-1.05c5.86-1.19 14.66-3 16.78-3.35-.23-1.45-.49-3-.73-4.4-.72-4.27-1.47-8.69-1.76-12.59-4.11 1.14-8.25 3.67-12.26 6.12-1.66 1-3.24 2-4.79 2.84-2.45 1.35-5 2.68-7.5 4a172.86 172.86 0 0 0-15.41 8.68v4.43A147.81 147.81 0 0 1 84.35 156zm-11.65 80.51a108.8 108.8 0 0 1-10.83-36.86c-.44 5.56-1.18 11.15-1.89 16.57-.63 4.8-1.28 9.75-1.72 14.65-.21 2.28-.22 4.63-.23 6.9a64.39 64.39 0 0 1-.47 8.87c-.46 3.17-.66 6.15-.87 9.31-.07 1.18-.15 2.38-.25 3.6 0 .58-.12 1.21-.21 1.87-.22 1.71-.46 3.65-.06 4.83l1.88-.16c5.6-.48 11.39-1 17.29-1 2.72 0 5.55-.21 8.56-.43 5-.36 10.18-.73 14.82-.1-10.43-5.52-19.42-15.2-26.02-28.05zM44.51 96.7c-2.54-.5-5.17-1-7.46-1.42 0 .19-.06.55-.09.87s-.08.76-.1.93c4.45.93 13.37 2.59 17.74 3.26l.31-1.75c-2.97-.42-6.74-1.17-10.4-1.89zM110 396.68c-2.19-.07-4.45-.13-6.4-.14 0 .2.06.57.09.91s.09.72.1.89c3.85.16 11.5.29 15.25.21l-.09-1.76c-2.5.08-5.77-.01-8.95-.11zM75 88.72zm-51.18 93.41c-.92-.77-2-1.64-4.14-3.2l-.39.55-.41.57c1.24.95 2.2 1.71 3 2.38 1.49 1.18 2.77 2.21 5.1 3.82l.89-1a40.54 40.54 0 0 1-4.05-3.12zM12.26 395.6a2.16 2.16 0 0 0-.79-.17 1.31 1.31 0 0 0-.93.36 1.57 1.57 0 0 0-.38 1.62 1.76 1.76 0 0 0 1.56 1.15 1.21 1.21 0 0 0 1.43-1 1.67 1.67 0 0 0-.89-1.96zM17.38 182c-.21.27-.72 1-.9 1.23a33.27 33.27 0 0 1 4.06 3 39 39 0 0 0 3.69 2.77 3.61 3.61 0 0 0 .57-.59c.14-.17.29-.35.42-.48-1.39-1-4.21-3.14-6.09-4.6z" class="cls-2"/><path d="M83.06 63.52c-.06-.79-.11-1.48-.12-1.9a6 6 0 0 0-1.42-.1c-.24 0-.62.07-.83.07h-1.41a3.88 3.88 0 0 0-1.1.06 5.09 5.09 0 0 0-.82 0h-.06v3.13c0 .91 0 1.41.16 1.61s.67.18 1.53.16h.62l3.7-.06c-.1-.71-.18-1.9-.25-2.97zM77 68.09v5.07a5 5 0 0 0 .08 1.34c.2.3 1.74.48 3.37.39a5.44 5.44 0 0 1 .61 0h1.35L83 75c.27 0 .39 0 .45-.09s.14-.66.11-1.68v-5.3a9.79 9.79 0 0 0-1.06 0h-.91A2.08 2.08 0 0 1 81 68h-.62a5 5 0 0 1-.55 0h-1.65c-.94 0-1.18.07-1.18.09z" class="cls-3"/><path d="m126.45 69.24-1.88-1.69a29.57 29.57 0 0 0-5.24-3.09l-1.47-.6-.53-.22a32 32 0 0 0-4.5-1.3c.81 6.7-1.66 16.27-5.43 21a13.74 13.74 0 0 1-4.17 3.19c-2.21 1.27-4.11 2.36-4.38 5.1a14.68 14.68 0 0 0 0 1.83c.1 1.54.21 3.29-.66 3.9a5.61 5.61 0 0 1-2.64.29h-1.13c-3.37.26-6.58.36-9.83.3h-.11v-.11a29.16 29.16 0 0 1-.15-3.42 18.51 18.51 0 0 0-.07-2.1c-.2-1.33-1-1.28-2.09-1.23h-1.55a15.33 15.33 0 0 0-1.67 0l-.78.08c-1.33.14-1.33.14-1.27 1.14v1.36c0 1.91 0 4.53-2.12 4.55s-7 0-8.85 0h-3.96c-.7 0-1.12 0-1.36-.27s-.25-.72-.22-1.55v-.76c0-.88 0-1.88-.06-2.84s-.06-1.65-.06-2.39v-1.23c0-2.91.06-4.83-2-7.2-.18-.22-.4-.46-.63-.73-2.94-3.35-8.41-9.58-6.86-13.51.53-1.33 3-2.15 4.87-2.74l1-.34a10.5 10.5 0 0 1 1.34-.33 5.9 5.9 0 0 0 2.21-.72c1-.86 1-1.23.94-1.35-.19-.34-1.32-.41-3 .14-11 3.46-16.63 9-18.86 18.55-1.06 4.57-1.86 9.28-2.63 13.84-.24 1.47-.49 2.93-.75 4.4a157.69 157.69 0 0 0-1.74 19.16C34 123.5 33.7 128.83 33 133.9c-1.53 11.1-3.35 20.57-7.3 30.67-1 2.48-1.8 5.08-2.67 7.84-2.1 6.59-4.27 13.42-8.49 18.41l-.25.29v-.37c.1-4.1 0-8.61-.1-13-.07-3.1-.15-6.31-.15-9.34 0-5.08.16-10.25.31-15.25.22-7.1.44-14.44.22-21.64q-.13-4.22-.29-8.42c-.35-10-.72-20.3-.48-30.53.16-6.59.37-13.1.62-19.36V73c.21-5.13.43-10.43-5.89-10.76h-.22l.14-.2c.61-.84 1.15-1.73 1.73-2.66a26.76 26.76 0 0 1 3.49-4.81 10.54 10.54 0 0 1 1.24-1A6.43 6.43 0 0 0 16.62 52c.31-.54.73-2.36.23-2.82-.29-.27-.87 0-1.3.32C8 53.72 5.37 62.62 4.47 67.56c-.27 1.5-.64 7.74.89 8.69.34.22.79.12 1.33-.27.83-.61.55-2 .3-3.32a8.28 8.28 0 0 1-.2-1.39 23.37 23.37 0 0 1 .9-5.7L8 64.42l.12.5a11.93 11.93 0 0 0 1.86.37c1 .15 1.19.19 1.26.26 1.22 1.26.85 4.66.57 7.14-.07.69-.14 1.29-.16 1.75-.45 8.91-.65 18.71-.65 30.83 0 5.55.19 11.17.38 16.61.24 7 .49 14.24.31 21.37-.34 14.42-.37 28.77-.37 44.7v1.4c.05 2.39.09 3.82-1.93 5.81a19.48 19.48 0 0 1-3.56 2.58c-.76.47-1.55.95-2.3 1.51-1.89 1.4-4.29 3.59-3.32 6.36a3.19 3.19 0 0 0 2.53 2.14 4.56 4.56 0 0 1 1.84.92 10.11 10.11 0 0 1 1.77 3c1 2.33 2.24 5 4.66 4.62h.15v.15c0 .68 0 1.27-.06 1.82 0 1-.07 1.82 0 2.72.08 2.15.13 4.34.18 6.45 0 1.07.05 2.14.08 3.22.2 7.42.3 15.31.29 24.11v7.16c0 5.53.06 11.24-.07 16.85-.16 7.55-.35 15.22-.54 22.64-.5 19.74-1 40.16-1 60.29v1.73c0 1.14.09 2.42 0 3.08v.11H10a4.46 4.46 0 0 0-1.3 7.7 4 4 0 0 0 4.74.65 5.42 5.42 0 0 0 2.56-5.18 3.89 3.89 0 0 0-3.37-3.18h-.11v-.1c-.06-2.39 0-18.86 0-25.9v-3c0-6.71.25-13.54.53-20.14.2-4.83.41-9.83.49-14.74.1-5.88.24-11.87.39-17.65.25-10.29.51-20.93.5-31.41v-3.16c0-4.47 0-9.1-.09-13.65 0-1.27-.06-2.53-.08-3.8-.06-3.2-.13-6.51-.26-9.75-.08-1.8-.14-6.55-.16-8.7v-.08h.07c2.92-1.58 5.82-5.78 8.15-9.15.8-1.15 1.55-2.23 2.23-3.12 4.47-5.82 8.35-13.36 11.24-19.28 7.05-14.45 11.38-29.51 14.68-42.33 1.43-5.55 2.32-11.25 3.17-16.76.81-5.24 1.65-10.66 3-15.94l.25-1v1a50.61 50.61 0 0 0 1.91 11.2 65.27 65.27 0 0 1 1.76 8.69c.38 3.44.85 7 1.3 10.45 1.34 10.24 2.73 20.82 2.24 31-.17 3.56-.3 7.2-.42 10.71-.34 9.39-.68 19.1-1.87 28.55-.29 2.36-.62 4.8-.93 7.16-1.2 9-2.45 18.25-2.61 27.16-.06 3.12-.44 6.26-.8 9.31a81.34 81.34 0 0 0-.79 10.11c0 .77-.13 1.93-.28 3.27-.4 3.67-1 8.69.64 10.49a1.93 1.93 0 0 0 1.52.67v.26c-.6.12-1.57 3.06-2.82 16.42-.06.61-.1 1.05-.12 1.25l-.36 3.14c-.7 6.23-1.42 12.67-2.75 18.9-1.84 8.64-3.19 17.57-4.5 26.2l-.12.8c-.31 2-.58 4.13-.85 6.15a116.65 116.65 0 0 1-3 16.84c-2.87 10-12.32 15.34-21 19.55-3.19 1.56-6.49 2.94-9.68 4.27-1.34.56-2.74 1.14-4.1 1.73l-.74.3c-1.47.57-2.75 1.07-2.4 3.08.52 3 4.84 2.95 7.68 2.91h1c2.61 0 5.25-.21 7.81-.42 1.76-.14 3.57-.29 5.36-.36a79.14 79.14 0 0 1 9.82.4 62.07 62.07 0 0 0 12.32.21 14 14 0 0 0 5.18-1.79c3-2 2.8-5.74 2.6-9.37a32.53 32.53 0 0 1-.07-3.52A54.59 54.59 0 0 1 60 371.72a167.21 167.21 0 0 1 5.75-15.93c2-5 4-10.11 5.58-15.32.38-1.31.81-2.66 1.22-4a74.81 74.81 0 0 0 3-11.75c.5-3.45.66-7 .82-10.35.11-2.35.22-4.78.44-7.18a121.49 121.49 0 0 1 5.67-25.61 19.93 19.93 0 0 0 .43-1.95c.33-1.75.71-3.72 1.34-4.15a2.83 2.83 0 0 1 .77-.05 19 19 0 0 1 3.19.22c1 .57 1.16 1.67 1.33 2.94a13.73 13.73 0 0 0 .29 1.72c.19.74.38 1.47.56 2.2.89 3.46 1.73 6.73 2.44 10.2.26 1.29.53 2.59.8 3.9a250.65 250.65 0 0 1 4.35 25.65c.5 5.24 1.11 10.57 1.69 15.72 1.13 9.94 2.3 20.22 2.82 30.37.43 8.55-8.9 14.25-16.8 17.53l-4 1.63c-2.24.9-4.55 1.84-6.79 2.81-2.67 1.16-5.38 3.36-5.14 5.16.16 1.25 1.76 2.14 4.61 2.56 5.32.78 11.87.55 17.64.35 2-.08 3.94-.14 5.76-.17 5.11-.07 10.33-.33 15.53-.77 7.51-.63 8.75-5.18 8.37-12.83-.13-2.5-.37-5-.6-7.49-.34-3.52-.68-7.16-.7-10.77a165.41 165.41 0 0 1 1.31-18.55c.87-8 1.78-16.3 1-24.47-1-11.1-2.21-21.5-3.7-31.77-1.1-7.59-.64-15.15-.2-22.46.13-2.05.26-4.17.35-6.26a101.21 101.21 0 0 0-.45-13q-.11-1.34-.21-2.7V247h.15c1.87 0 6.4.06 8.24.06h.14v.13c-.08 2-.06 6.25 0 10.36v8.66h5.25c0-3.05 0-7.84-.11-12.07-.05-2.82-.09-5.48-.09-7.11v-.14h.14c.55 0 3-.07 4.89-.16l2.48-.1c-.05-1-.09-2.36-.13-3.6 0-1-.06-2-.09-2.55a64.39 64.39 0 0 0-7.18-.08h-.21l.08-.19a15.75 15.75 0 0 1 2.22-3.41 12.24 12.24 0 0 0 2.79-5.09 20.58 20.58 0 0 0-.35-7.65c-.08-.49-.17-1-.24-1.46s-.17-1-.25-1.53a33 33 0 0 1-.59-4.87 113.55 113.55 0 0 1 .47-11.39c.11-1.48.22-3 .31-4.52 1.16-19.58 1.13-38.9 1-60.31 0-5-.09-10.26-.15-15.3-.09-7.68-.18-15.63-.18-23.18 0-.23-.13-.58-.21-1a13.31 13.31 0 0 1-.44-2.45v-.25a5.05 5.05 0 0 1-.05-.52 44.66 44.66 0 0 0-.94-7.31c-.26-1.45-.53-2.94-.7-4.28a30.47 30.47 0 0 0-1.13-4c-.47-1.47-1-3-1.26-4.4a18.38 18.38 0 0 0-2.51-4.53h-.34l.22-.16c0-.05-.07-.09-.09-.12L129 72a30 30 0 0 1-2.55-2.76zm-113 302.34a1.48 1.48 0 0 1-1.47 1.18h-.25a2 2 0 0 1-1.78-1.33 1.85 1.85 0 0 1 .45-1.9 1.78 1.78 0 0 1 2-.25 2 2 0 0 1 1.01 2.3zm12.07-175.45a5.13 5.13 0 0 0-.52.57c-.35.42-.58.68-.78.7a40.19 40.19 0 0 1-3.77-2.87 31.92 31.92 0 0 0-4.12-3l-.1-.06.05-.11a15.48 15.48 0 0 1 1.07-1.48l.08-.09.1.07 1.85 1.42c1.95 1.51 4.89 3.79 6.22 4.68l.14.1zm1.55-1.38-.1-.07c-2.4-1.65-3.7-2.69-5.22-3.89-.86-.69-1.84-1.47-3.14-2.46l-.12-.09.11-.11s.29-.39.47-.65c.3-.42.44-.62.49-.67l.08-.08.1.07c2.25 1.6 3.31 2.49 4.25 3.28a41.78 41.78 0 0 0 4.19 3.15l.12.08zM54 111.26c-.07.24-.13.6-.19.95a2.8 2.8 0 0 1-.34 1.23h-.06c-2.34-.37-4.83-.86-7.24-1.33-3.35-.66-6.81-1.35-10-1.74H36v-.11c0-.33.21-2.06.25-2.28v-.13h.13c1 .2 15.3 2.89 17.53 3.19h.16zm.81-2.47h-.13c-4.36-.66-13.55-2.37-18-3.3h-.13v-.13c0-.08.07-.61.11-1 .07-.58.1-.94.12-1v-.12h.12c2.33.4 5 .93 7.6 1.44 3.71.74 7.54 1.49 10.52 1.91h.13zm11.32 55h.06a168.56 168.56 0 0 1 15.5-8.79c2.48-1.29 5-2.62 7.49-4 1.55-.85 3.12-1.81 4.79-2.83 4.07-2.49 8.28-5.07 12.48-6.19l.15-.05v.16c.28 3.93 1 8.4 1.77 12.73.25 1.49.51 3 .75 4.52v.13h-.13c-1.86.34-10.91 2.17-16.9 3.38L86.91 164l-2.52.48a144.5 144.5 0 0 0-18.08 4.22l-.17.06zm-6.2 203.12a8.13 8.13 0 0 0-.2.79c-.13.58-.2.91-.34 1h-.06c-1.82-.43-3.75-1-5.62-1.48-2.6-.73-5.28-1.47-7.81-2h-.11v-.11c0-.28.27-1.73.31-1.91v-.13h.13c.87.24 11.85 3.19 13.61 3.57h.15zm.76-2h-.13c-3.41-.77-10.54-2.67-14-3.67h-.13v-.12c0-.07.08-.49.14-.83.08-.51.13-.82.15-.89v-.13h.13c1.8.45 3.88 1 5.89 1.59 2.88.8 5.85 1.63 8.17 2.13h.13zM102 272.66c-4.79-.78-10.25-.39-15.53 0-3 .22-5.85.42-8.58.42-5.89 0-11.68.51-17.27 1l-2.07.18v-.09c-.47-1.23-.23-3.17 0-5.05.09-.66.16-1.29.21-1.86.09-1.22.17-2.41.25-3.6.21-3.16.41-6.14.87-9.32a64 64 0 0 0 .46-8.84c0-2.28 0-4.63.24-6.93.44-4.89 1.09-9.85 1.72-14.65.77-5.9 1.57-12 2-18h.26c2.23 23 13.4 54.24 37.55 66.55l.75.38zm17.22 97.14v.06h-1.27c-1.65 0-3.37-.05-5.05-.1-2.89-.08-5.88-.17-8.63 0h-.11v-.11c-.08-.32-.24-2.05-.25-2.27v-.14h.14c.93 0 13.18.27 15.1.2h.15v1.15a3.28 3.28 0 0 1-.12 1.21zm-.08-7.05h.13l.12 2.3h-2.98c-4.06 0-9.63-.11-12.68-.25h-.12v-.13c0-.07-.06-.56-.11-1-.07-.6-.11-1-.11-1.06v-.13h.13c2 0 4.31.07 6.56.13 3.16.13 6.48.23 9.02.14zm7.59-121.91v.16h-.11c-1.36.1-7.35.39-8.12.39h-.13v-.12c-.18-4.17-.29-8.44-.38-12.58-.18-7.39-.35-15-1-22.41-.41-4.68-.6-9.46-.78-14.07-.27-6.71-.54-13.65-1.5-20.44a71.69 71.69 0 0 0-2.46-10.21c-.76-2.58-1.55-5.25-2.09-8a70.21 70.21 0 0 1-.34-24.82 39 39 0 0 1 4.08-12.14 67 67 0 0 0 3.42-8.33c.57-1.59 1.16-3.24 1.82-4.86l.31-.74-.06.8c-.74 11.56.37 23.61 1.45 35.27.74 8.12 1.51 16.51 1.65 24.64.09 5 .46 10.11.82 15 .94 12.68 1.9 25.79-2.09 38.41a21.54 21.54 0 0 0-.7 7.33 22.65 22.65 0 0 0 3.64 12.33 10.77 10.77 0 0 0 1 1.17c.78.95 1.66 1.89 1.53 3.22zm6.59-14.57c-.05.43-.09 1-.12 1.65-.19 3.1-.49 8.26-3.7 8.26h-.06a2.49 2.49 0 0 1-1.82-.87c-1.93-2.11-2-7.41-1.94-8.61v-.13h.12a40.77 40.77 0 0 0 7.35-.45h.18zm1.41-22.11v.83a2.25 2.25 0 0 1-.11 1.1h-1.51a25 25 0 0 1-2.71-.13 22.43 22.43 0 0 0-4.47 0h-.11v-.11c-.07-.28-.13-1.81-.13-2v-.13h.14c.33 0 1.09 0 2 .07 2.16.08 5.42.19 6.81.13h.16zm.25-2.19h-2.13c-1.44 0-2.53-.05-3.74-.12-1 0-2.07-.11-3.49-.14h-.14v-.14c0-.07 0-.51-.06-.87s0-.83 0-.91v-.12h.12a42.65 42.65 0 0 1 4.71.16 30.51 30.51 0 0 0 4.59.09h.14zm.73-89.93v.06h-.07c-2 0-4.07-.14-6.11-.26-2.82-.16-5.75-.33-8.45-.24h-.1v-.1c-.07-.32-.19-2.06-.2-2.28v-.14h.14c.91 0 12.92.62 14.77.6h.14v1.14a2.92 2.92 0 0 1-.16 1.18zm.08-7.05h.13l.08 2.3h-.14c-3.65 0-11.38-.37-15.16-.65h-.12v-.13c0-.08-.05-.56-.09-1 0-.6-.09-1-.09-1.06v-.14h.13c2 0 4.21.18 6.4.31 3.07.21 6.35.38 8.82.38z" class="cls-3"/><path d="M99.15 62.77v2.16c3-.22 7.42-8.12 8.73-11.35l-2.29-.28c-.37.54-.71 1.09-1 1.62a12.13 12.13 0 0 1-3 3.74c-.36.27-.67.49-.93.67-1.57 1.11-1.57 1.11-1.51 3.44zm.07-3.99c2.28-1.09 3.76-3.29 4.85-4.91.15-.21.28-.42.41-.61l-1-.11a28.29 28.29 0 0 0-4.08-.33 40 40 0 0 0-.18 5.96z" class="cls-3"/><path d="M105.39 67.45c2.38-4 4.82-9.86 4-13.66a50.28 50.28 0 0 0-2.75 4.54c-.71 1.25-1.33 2.33-1.54 2.61l-.37.46a13.26 13.26 0 0 1-3.5 3.6 6.77 6.77 0 0 1-1.2.8 3.75 3.75 0 0 0-.69.46v6.64c.66-.2 4.25-2.6 4.88-3.69.44-.62.85-1.21 1.17-1.76z" class="cls-3"/><path d="M139 51.4c-5-14.71-10.42-25.92-16.68-34.25C113.37 5.22 102.81-.54 90.93 0c-10.4.67-19.58 8-27.67 14.46-1.4 1.12-2.71 2.17-4 3.18-6.48 5.21-11 11.3-16.16 19.44a44 44 0 0 0-5.86 13.49c-.59 2.74-.47 4.68.33 5.6a2.07 2.07 0 0 0 1.81.63c2.06-.15 3-3.64 3.46-5.13 0-.2.1-.37.14-.49 2.69-5.47 5.46-11.13 9.2-16.06a42.19 42.19 0 0 1 7.48-7.13l.22-.17c.33-.28 1.33-.91 2.38-1.57L64.07 25A13.79 13.79 0 0 1 66 23.94l2.9-1.34a13.46 13.46 0 0 1 2.91-.49l1.36-.11c.79-.09 1.57-.21 2.32-.33 2.51-.4 4.68-.75 6 .4.9.78 1.31 2.23 1.27 4.41a19 19 0 0 1-6.1 13.93 31.23 31.23 0 0 1-5.58 3.93 37.86 37.86 0 0 0-4.65 3.13c-4.41 3.63-4.18 8.45-4 13.55 0 .84.08 1.7.1 2.56.08 3.54 0 7.19-.13 10.72-.05 1.78-.1 3.61-.13 5.4v.13c0 1.18-.09 4.8.53 5.57.76 1 2.51.93 3.91.91h1.49c1.84.06 4.92.16 6-.72 2.14-1.59 1.8-9.87 1.67-14.3 0-1-.07-1.86-.06-2.38.07-5.69 0-11.66-.36-17.26 0-.62-.1-1.27-.17-1.9-.25-2.47-.51-5 1-7a9.14 9.14 0 0 1 1.67-1.61A11.87 11.87 0 0 0 79.13 40a17.69 17.69 0 0 0 4.44-9c.68-3.15 1.26-7.06-.28-9.4a4.29 4.29 0 0 0-2.92-1.86c-1.64-.33-4.39.14-6.59.52-.81.14-1.57.27-2.22.35h-.13v-1.94c.1-2.48.26-6.64-1.34-7l-.36-.07.33-.17A47.79 47.79 0 0 0 76 7.63C79.24 5.27 82.32 3 86.76 2l.45-.1-.33.32c-2.18 2.19-.29 6.9 1 10 .3.76.56 1.41.74 2 1.39 4.17 3.18 10.34 2.68 15.69-.3 3.27-2.09 5.9-3.82 8.44a21.69 21.69 0 0 0-3.64 7.11 19.85 19.85 0 0 0-.15 5.7c.06.81.11 1.58.11 2.28 0 4.39.31 8.89.6 13.25.2 2.9.4 5.9.51 8.84 0 .34 0 1-.05 1.74-.1 2.12-.27 5.66.34 6.6.84 1.31 3.16 1.1 5.21.91.61-.06 1.18-.11 1.67-.12.87 0 1.62 0 2.28.08 1.31.08 2.18.13 2.73-.36s.73-1.34.8-3c.1-2.43.09-4.91.09-7.3s0-4.69.08-7a38.89 38.89 0 0 0-.37-4.08c-.45-4.08-1-9.15.16-10.53a3.81 3.81 0 0 1 2.74-.7 33.09 33.09 0 0 1 4.09.36l1.42.16A40.09 40.09 0 0 1 118.84 55a24.71 24.71 0 0 1 13.76 13.43c2.53 5.73 3.53 12.53 4.5 19.11l.48 3.26c.55 3.53.6 3.9 4.47 3.32 3.51-.52 3.54-1 3.75-4.34a50.45 50.45 0 0 0-.41-9.74A154.5 154.5 0 0 0 139 51.4z" class="cls-3"/><path d="M82.34 51.43c-.51.06-1.09.06-1.65.07-1.23 0-2.5 0-3.16.68a2.08 2.08 0 0 0-.53 1.58s.15 4.65.16 6.64c1.32.05 3.65 0 5.36 0 0-.3 0-.73.06-1.24.15-2.16.42-7.31-.24-7.73zm-7.78-41.14A1.47 1.47 0 1 0 76 11.76a1.47 1.47 0 0 0-1.44-1.47z" class="cls-3"/></g></g></svg>