<svg xmlns="http://www.w3.org/2000/svg" width="32.154" height="18"><path d="M3.546.72c.67.051 1.246.203 1.726.456-.632.746-1.207 1.764-1.726 3.054-.531-1.29-1.113-2.308-1.745-3.054.493-.24 1.075-.392 1.745-.455zm0 4.894c.392 3.655.6 6.616.626 7.704-.025 1.846-.234 3.072-.626 3.68-.405-.608-.613-1.834-.626-3.68.013-1.1.221-4.062.626-7.704zm0-5.614C2.256 0 1.314.392.72 1.176c.898.746 1.619 1.903 2.162 3.47 0 .709-.142 2.634-.427 4.594-.284 1.96-.35 4.134-.199 6.524.326 1.49.717 2.236 1.171 2.236.04 0 .08-.006.12-.017.04.011.079.017.118.017.454 0 .845-.745 1.17-2.236.14-2.39.067-4.564-.217-6.524-.285-1.96-.427-3.885-.427-4.593.556-1.568 1.283-2.725 2.181-3.471C5.765.392 4.823 0 3.546 0zM17.19 7.795l-.06.07q-1.418.75-2.602 2.036l-.345-.03q2.127-1.874 3.007-2.076zm-.09.476q-.244 1.134-.244 1.984-1.468-.314-1.903-.314l.364-.405q.901-.86 1.782-1.265zm-5.65 4.09q.111 0 .142.07v.102l-.071.08h-.101l-.071-.08v-.101l.07-.071zm.04-.294q-.435.061-.435.415 0 .365.405.405h.03q.385-.09.385-.354-.05-.466-.385-.466zm3.517 1.377q1.431 0 2.872.527-.78.283-1.458.283-.678 0-1.468-.152v-.658h.054zm-.47-.526v1.569q.963.202 2.076.202 1.104 0 2.44-.82-2.48-.951-4.515-.951zm-.586-2.39q2.753 0 6.53 1.387 3.786 1.387 6.186 1.387l.982-.121q.141 0 .172.395.03.395-.071.78-.858-.036-1.56-.036-1.889 0-2.642.258-1.032.344-2.824.709-1.206.238-2.665.238-.708 0-1.476-.056-1.446-.1-2.2-.1-.473 0-.675.04-.192.037-.387.037-.332 0-.676-.109 1.59-.708 1.59-1.6 0-.495-.618-1.153-.284.03-.284.293.486.456.486.86 0 .75-1.863 1.469-.344-.061-1.498-.598-1.144-.536-1.499-.536.071-.112.436-.365v-.01q-.496-.324-.496-.486.354-.01.83-.303.476-.284 1.245-1.074 1.336-.961 2.977-1.306zm17.19 1.499q-.08.141-.759.79-.668.647-.77 1.093 0 .648 1.317 1.954-2.653-1.377-2.825-1.377.101-.415.101-.76 0-.354-.151-.678 2.43-.668 3.087-1.022zm-4.89 2.693q.081.536.588 1.275-1.306 0-3.28-1.012 1.842-.263 2.692-.263zm-10.954 1.306l1.903.08q0 .517.618 1.428-1.863-.951-2.52-1.508zm-.772-.125q.353 0 .509.256 1.053.77 2.298 1.377v.03q-.992-.344-1.903-.87-.901-.537-.982-.79.04-.003.078-.003zM17.98 7.31q-.942.03-1.843.547-.91.526-2.622 2.146-1.397.486-2.085.84-.689.365-1.246.982-.374.314-.729.587-.354.274-.718.274-.365 0-.365.496 0 .132.253.557-.192.101-.212.415-.03.304.486.374 2.986 1.54 5.214 1.54 2.45 1.923 4.17 1.933v-.202q-.688-1.104-.597-1.732.297.018.614.018 2 0 4.823-.716 2.276 1.022 3.46 1.022h.023q1.184-.02 1.184-.09-.759-.558-1.093-1.58 1.276.04 1.913.384l3.513 1.843h.03v-.03q-.202-.547-1.062-1.468-.87-.932-.942-1.448.152-.486.982-1.306.83-.82.83-1.56-.92.578-2.844 1.145-1.924.567-2.42.567-.74 0-2.329-.334-1.6-.345-3.442-1.023-1.832-.678-3.726-1.174 0-1.964.78-3.007z"/></svg>