<svg xmlns="http://www.w3.org/2000/svg" width="32.87" height="18"><path d="M5.086 14.172c1.074 0 2.418.552 3.069 1.202.57.57.643 1.324.664 2.025H1.384c.021-.701.096-1.456.665-2.025.65-.65 1.963-1.202 3.037-1.202zm0-.601c-1.274 0-2.645.588-3.448 1.392-.825.824-.918 1.909-.918 2.72V18h8.732v-.316c0-.812-.062-1.897-.886-2.721-.803-.804-2.206-1.392-3.48-1.392zm8.441-12.447q2.015.293 2.106 1.842v11.177q-.941-1.124-3.381-1.58l1.275-11.44zM12.961 0l-1.509 13.363q3.361.385 4.181 2.4V18h1.002V2.966q0-2.51-3.674-2.966zm8.297.634q-.371 0-.371.438 0 .371.371.371.394-.022.394-.415 0-.394-.394-.394zM19.816.92v.393l-.853.153q.394-.415.853-.546zm.043.524q.503.394.175.59-.502-.175-.743-.459l.568-.13zM21.39.438q1.028 0 1.64.787.612.786.656 2.426 1.595.328 2.12 1.442.085.722-.325.722h-.025q-.437-.022-.688-.24-.092-.08-.138-.08-.082 0-.026.243.087.383.961.93.875.546.143.906-.182.09-.387.09-.622 0-1.46-.822-1.115-1.093-1.18-1.661-.066-.568.458-1.05.312-.285.214-.285-.066 0-.323.133-.634.328-.667.961-.033.634.503 1.388.535.754 2.11 1.913.16.084.364.084.432 0 1.056-.38.918-.556-.918-1.715.678-.175.7-.59.852.284 4.786 5.29 1.05.699 1.071 1.027-.021.306-.327.371-.066.014-.134.014-.247 0-.522-.188-1.224.59-2.372.612h-.12q-1.066 0-1.77-.372.72.634.502 1.333-.106.34-.16.34-.058 0-.058-.383 0-.744-1.902-1.421v.83q-.112.47-.178.47-.063 0-.084-.426-.131-.94-.623-2.022-.492-1.082-1.563-2.994-1.071-1.913-1.366-2.754-.295-.842-.273-1.563.021-.722-.296-1.06-.316-.34-.185-.733.13-.393-.394-.743V.897q.569-.46 1.18-.46zm4.154 12.59q1.07.306 1.07.721l-.72 2.689q-.088.48-.59.48h-.875v-.043l1.115-3.41v-.437zM21.468 0h-.078q-.853 0-1.727.7-.503.175-1.028.809.722.655 1.312.808.066.306.415.853.022 1.443.394 2.393.371.951 2.491 5.104 1.05 2.186 1.05 2.689 0 .765-.962 3.431 0 .153-1.312.24-1.967.066-1.967.547 0 .284.263.284h5.814q.546-.437.612-.743.524.219.568.59.074.295.21.295.025 0 .052-.01.175-.066.175-.285-.153-.59-.765-1.136l.7-2.951q2.12-.066 3.694-.678.291.066.534.066.486 0 .777-.262.437-.394-.175-1.224-1.333-1.334-2.535-2.93-2.47-3.038-3.388-3.518-.306-.634-.732-1.006-.427-.371-1.541-.918-.022-1.29-.602-2.23Q23.151 0 21.468 0z"/></svg>