<svg xmlns="http://www.w3.org/2000/svg" width="94.758" height="18"><path d="M1.647 0c-.335 0-.67.026-.995.066C.205.18.435.692.832.692A.476.476 0 0 0 .914.684c.84.097 1.872.15 2.506.626.841.916.463 2.821.561 3.725.007.05.01 3.653.01 5.48a6.145 6.145 0 0 0-2.635-.586 6.04 6.04 0 0 0-1.187.117c-.441.231.076.528.422.528.041 0 .08-.004.115-.013 1.226.133 2.62.461 3.243 1.602.061.206.023.277-.071.277-.206 0-.68-.342-.946-.342-.014 0-.028 0-.04.003a7.535 7.535 0 0 0-1.58-.169c-.39 0-.777.031-1.15.095-.42.278.097.534.439.534a.532.532 0 0 0 .105-.01c1.251.151 2.636.49 3.243 1.633.007 1.27 0 2.11.033 3.278-.014.36.22.538.456.538.235 0 .473-.176.475-.526-.009-1.15-.091-2.161.06-3.277.304-1.253 2.477-1.445 3.827-1.754.294-.347-.285-.475-.659-.475-.055 0-.107.003-.15.008a6.823 6.823 0 0 0-.521-.02c-.882 0-1.771.175-2.557.58-.032-.755.711-1.19 1.244-1.493.84-.361 1.765-.397 2.643-.59.313-.273-.18-.501-.521-.501a.58.58 0 0 0-.125.012 6.767 6.767 0 0 0-.648-.031c-.903 0-1.805.183-2.614.582.016-2.851.062-5.61-.02-8.308-.065-.834-.546-1.6-1.354-1.849C2.938.094 2.291 0 1.647 0z"/><path d="M0 0v.354L.177.177.354 0zm2.646 0L0 2.646v.708L3.177.177 3.354 0zm3 0L0 5.646v.708L6.177.177 6.354 0zm3 0L0 8.646v.708L8.899.455V0zM8.9 2.748L0 11.646v.708l8.899-8.899v-.707zm0 3L0 14.646v.708l8.899-8.899v-.707zm0 3L0 17.646V18h.354l8.545-8.545v-.707zm0 3l-6.076 6.075-.177.177h.708L8.9 12.455v-.707zm0 3l-3.076 3.075-.177.177h.708L8.9 15.455v-.707zM8.899 0v.455l.278-.278L9.354 0zm2.034.713L8.9 2.748v.707l2.034-2.035V.713zm0 3L8.9 5.748v.707l2.034-2.035v-.707zm0 3L8.9 8.748v.707l2.034-2.035v-.707zm0 3L8.9 11.748v.707l2.034-2.035v-.707zm0 3L8.9 14.748v.707l2.034-2.035v-.707zm0 3L8.9 17.748V18h.455l1.58-1.58v-.707z"/><path d="M25.642 2.99q.557 0 1.086.606-4.368 5.2-5.46 5.81-.814.457-1.434.457-.21 0-.399-.053-.74-.208-1.586-.234h-.042q-.828 0-1.817.988h-.13q.702-1.638 1.963-2.34 1.261-.702 7.397-5.148.213-.085.422-.085zM17.91.622q.066 0 .133.01v6.683Q15.99 8.51 15.21 10.668q1.196-8.268 1.677-9.204Q17.32.62 17.911.62zM12.555 11.09q-.08 0-.153.138-.13.247.234.689.208-.546.052-.741-.069-.086-.133-.086zm.037-.372q.153 0 .33.237.39.52-.234 2.08-.702-1.352-.429-1.976.149-.34.333-.34zm6.804 2.577v.39q-.286-.026-.442-.182.052-.078.208-.208zm.598.884l2.418.338.494.884q-.832-.234-1.833-.624-1-.39-1.079-.598zm-5.33-.364l.468.234.156 1.118-.416 1.274h-.65l.442-1.274v-1.352zm1.118.39l.442.13.156.832-.416 1.274h-.65l.442-1.274.026-.962zm1.534.156l.156.806-.416 1.274h-.65l.442-1.274v-.78l.468-.026zm-.994-3.234q.415 0 .89.1 1.404.3 1.768 1.418h1.092l.416-.676Q26 13.242 26.702 16.57q-1.508-.832-3.172-1.118l-.728-1.456-2.886-.39.078-.702h-.988q-1.092.9-2.228.9-.243 0-.489-.042-1.391-.234-1.82-.95-.429-.714.455-1.3.585-.386 1.398-.386zM18.167 0q-.947 0-1.488.658-.663.806-1.235 4.238l-.91 5.954q-.442.468-.676.52h-.312q-.026-.65-.494-1.196-.416-3.978.364-6.968l-.312-.598q-1.118 3.38-.546 7.592h-.078q-1.794-4.03-.52-7.592l-.312-.468q-1.664 3.796.364 8.242-.572 1.248-.117 2.054.455.806.559 1.508l.182.13q.702-1.04.806-1.794h.26q.026.598.338 1.248l.182 1.638-.442 1.274h-2.262v.624h6.526v-.624h-.546l.416-1.274.026-.962q.468-.156.702-.364.338.312.754.312-.026.26.104.442 1.04.806 3.718 1.404l.91 1.768q0-.434.27-.434.085 0 .198.044l-.728-1.3q1.508.338 2.288.858.416.442-.052 1.066 1.04-.442 1.17-1.248-.416-3.926-7.046-5.46l-.468.78h-.416q-.338-1.092-2.678-1.508.522-.388 1.285-.388.414 0 .9.115.491.116.96.116.844 0 1.613-.376 1.196-.585 6.084-6.461-.9-1.136-1.905-1.136-.329 0-.669.122L18.616 7.08V.034Q18.381 0 18.167 0z"/><path d="M36.508.375c-9.625 0-9.625 17.25 0 17.25m0 0" fill="none" stroke="#000"/><path d="M11.646 0L10.9.748v.707L12.177.177 12.354 0zm3 0L10.9 3.748v.707L15.177.177 15.354 0zm3 0L10.9 6.748v.707L18.177.177 18.354 0zm3 0L10.9 9.748v.707L21.177.177 21.354 0zm3 0L10.9 12.748v.707L24.177.177 24.354 0zm3 0L10.9 15.748v.707L27.177.177 27.354 0zm3 0L11.823 17.823l-.177.177h.708L30.177.177 30.354 0zm3 0L14.823 17.823l-.177.177h.708L33.177.177 33.354 0zm3 0L17.823 17.823l-.177.177h.708L36.177.177 36.354 0zm.862 2.138L20.823 17.823l-.177.177h.708L36.508 2.845v-.707zm0 3L23.823 17.823l-.177.177h.708L36.508 5.845v-.707zm0 3l-9.685 9.685-.177.177h.708l9.154-9.155v-.707zm0 3l-6.685 6.685-.177.177h.708l6.154-6.155v-.707zm0 3l-3.685 3.685-.177.177h.708l3.154-3.155v-.707zm0 3l-.685.685-.177.177h.708l.154-.155v-.707zM38.646 0l-2.138 2.138v.707L39.175.18V0zm.529 2.471l-2.667 2.667v.707l2.667-2.666V2.47zm0 3l-2.667 2.667v.707l2.667-2.666V5.47zm0 3l-2.667 2.667v.707l2.667-2.666V8.47zm0 3l-2.667 2.667v.707l2.667-2.666v-.708zm0 3l-2.667 2.667v.707l2.667-2.666v-.708zm0 3l-.352.352-.177.177h.529v-.529z"/><path d="M38.646 0l-.138.138v.707l.669-.668.177-.177zm3 0l-3.138 3.138v.707L42.177.177 42.354 0zm3 0l-6.138 6.138v.707L45.177.177 45.354 0zm3 0l-9.138 9.138v.707L48.177.177 48.354 0zm3 0L38.508 12.138v.707L51.177.177 51.354 0zm3 0L38.508 15.138v.707L54.177.177 54.354 0zm3 0L38.823 17.823l-.177.177h.708L57.177.177 57.354 0zm3 0L41.823 17.823l-.177.177h.708L60.177.177 60.354 0zm.862 2.138L44.823 17.823l-.177.177h.708L60.508 2.845v-.707zm0 3L47.823 17.823l-.177.177h.708L60.508 5.845v-.707zm0 3l-9.685 9.685-.177.177h.708l9.154-9.155v-.707zm0 3l-6.685 6.685-.177.177h.708l6.154-6.155v-.707zm0 3l-3.685 3.685-.177.177h.708l3.154-3.155v-.707zm0 3l-.685.685-.177.177h.708l.154-.155v-.707zm2-17l-2 2v.707l2-2V.138zm0 3l-2 2v.707l2-2v-.707zm0 3l-2 2v.707l2-2v-.707zm0 3l-2 2v.707l2-2v-.707zm0 3l-2 2v.707l2-2v-.707zm0 3l-2 2v.707l2-2v-.707zM62.646 0l-.138.138v.707l.669-.668.177-.177zm3 0l-3.138 3.138v.707L66.177.177 66.354 0zm3 0l-6.138 6.138v.707L69.177.177 69.354 0zm3 0l-9.138 9.138v.707L72.177.177 72.354 0zm3 0L62.508 12.138v.707L75.177.177 75.354 0zm3 0L62.508 15.138v.707L78.177.177 78.354 0zm3 0L62.823 17.823l-.177.177h.708L81.177.177 81.354 0zm3 0L65.823 17.823l-.177.177h.708L84.177.177 84.354 0zm.862 2.138L68.823 17.823l-.177.177h.708L84.508 2.845v-.707zm0 3L71.823 17.823l-.177.177h.708L84.508 5.845v-.707zm0 3l-9.685 9.685-.177.177h.708l9.154-9.155v-.707zm0 3l-6.685 6.685-.177.177h.708l6.154-6.155v-.707zm0 3l-3.685 3.685-.177.177h.708l3.154-3.155v-.707zm0 3l-.685.685-.177.177h.708l.154-.155v-.707zm2-17l-2 2v.707l2-2V.138zm0 3l-2 2v.707l2-2v-.707zm0 3l-2 2v.707l2-2v-.707zm0 3l-2 2v.707l2-2v-.707zm0 3l-2 2v.707l2-2v-.707zm0 3l-2 2v.707l2-2v-.707z"/><path d="M94.196.375v17.25M86.508.375c9.625 0 9.625 17.25 0 17.25" fill="none" stroke="#000"/></svg>