<svg xmlns="http://www.w3.org/2000/svg" width="59.88" height="18"><path d="M13.251 6.338q.17 0 .354.078.41.173.41 2.758v2.474H9.373q1.793-2.46 2.46-3.718.667-1.257 1.014-1.473.193-.119.404-.119zm-.197-.528l-.075.001q-.66.014-1.487 1.612-.826 1.598-3.272 4.767h6.337l-.014-3.558q-.07-2.376-.487-2.605-.393-.217-1.002-.217zM22.27 2.689c-.023 3.239-.049 6.477-.069 9.716.047.525.075 1.051.136 1.574.035.28.218.54.178.827-.06.193-.186.496-.4.496a.3.3 0 0 1-.157-.049c-.347-.134-.678-.355-1.06-.355-.022 0-.043.001-.065.003h-.057c-.728 0-1.443.16-2.165.23-.394.057-.788.147-1.188.147h-.05c.722-.164 1.435-.44 2.004-.926.775-.602 1.552-1.2 2.325-1.805.105-.129-.05-6.71-.103-9.835l.67-.023zm.393-.439c-.383.013-.952.007-1.333.03-.204.06-.169.288-.166.452l.158 9.566c-.845.646-1.683 1.302-2.533 1.942a4.332 4.332 0 0 1-1.581.604c-.249-.002-.5-.13-.747-.13a.573.573 0 0 0-.237.048c-.19.146-.256.547 0 .67.383.206.811.284 1.242.284.272 0 .545-.031.809-.081.613-.105 1.233-.166 1.849-.253.203-.017.413-.045.62-.045.224 0 .444.032.647.143.243.107.512.27.783.27.09 0 .181-.018.271-.063.284-.177.448-.507.517-.826.058-.416-.224-.784-.219-1.198-.032-.453-.084-.904-.104-1.357.023-3.273.15-10.056.024-10.056zM26.35 2.772q.696 0 .696.917 0 .806-.696 1.596-.695-.79-.695-1.596 0-.917.695-.917zm0 3.525q.49 0 .49 1.059 0 .6-.49 1.107-.49-.506-.49-1.107 0-1.06.49-1.06zm0 3.193q.49 0 .49 1.06 0 .6-.49 1.106-.49-.506-.49-1.107 0-1.059.49-1.059zm0-7.24q-1.264 0-1.264 1.439-.016.9.418 1.414.435.514.388.688-.553.648-.553 1.565 0 .759.648 1.628-.648.648-.648 1.565 0 .759.648 1.613.079.205-.443.964t-1.075 2.624h.696q.347-1.233.616-1.763.269-.53.57-.861.315.332.576.861.261.53.609 1.763h.711q-.521-1.865-1.067-2.624-.545-.759-.45-.964.632-.854.632-1.613 0-.917-.6-1.565.6-.87.6-1.628 0-.917-.538-1.565-.047-.174.38-.688.427-.513.427-1.414 0-1.439-1.28-1.439zM31.714 2.726q-.278 0-.278.328 0 .278.278.278.295-.016.295-.311t-.295-.295zm-1.082.213v.295l-.639.115q.295-.312.64-.41zm.033.393q.377.295.131.443-.377-.131-.557-.344l.426-.099zm1.148-.754q.77 0 1.23.59.458.59.491 1.82 1.197.246 1.59 1.082.064.542-.244.542l-.018-.001q-.328-.016-.516-.18-.069-.06-.104-.06-.061 0-.02.183.066.287.722.696.656.41.106.68-.136.068-.29.068-.466 0-1.095-.616-.836-.82-.885-1.246-.05-.427.344-.787.234-.215.16-.215-.049 0-.242.1-.475.246-.5.721-.024.476.377 1.041.402.566 1.582 1.435.12.063.274.063.324 0 .792-.285.688-.418-.689-1.286.509-.132.525-.443.64.213 3.59 3.967.787.525.803.77-.016.23-.246.28-.049.01-.1.01-.185 0-.391-.142-.918.443-1.779.46h-.09q-.8 0-1.328-.28.54.476.377 1-.08.255-.12.255-.044 0-.044-.287 0-.558-1.426-1.066v.623q-.084.353-.134.353-.047 0-.063-.32-.098-.705-.467-1.517-.369-.811-1.172-2.245-.804-1.435-1.025-2.066-.221-.631-.205-1.172.017-.541-.221-.795t-.14-.55q.099-.295-.294-.557v-.278q.426-.345.885-.345zm3.115 9.443q.803.23.803.54l-.541 2.017q-.066.361-.443.361h-.656v-.033l.837-2.557v-.328zM31.872 2.25h-.06q-.639 0-1.294.525-.377.131-.77.607.54.491.983.606.049.23.311.64.017 1.081.295 1.795.279.713 1.87 3.827.786 1.64.786 2.017 0 .574-.721 2.574 0 .114-.984.18-1.475.05-1.475.41 0 .213.196.213h4.361q.41-.328.46-.558.393.164.425.443.056.221.157.221.02 0 .04-.008.131-.049.131-.213-.114-.443-.574-.852l.525-2.213q1.59-.05 2.77-.509.22.05.401.05.365 0 .583-.197.328-.295-.13-.918-1-1-1.903-2.197-1.852-2.279-2.54-2.64-.23-.475-.55-.753-.32-.28-1.156-.689-.016-.967-.45-1.672-.425-.689-1.687-.689zM48.944 3.11c0 .06.024 1.05.068 1.092.41.397.92.679 1.074 1.017.194.427.22 1.064.133 1.594-.29 1.776-.964 3.547-1.308 5.383-.114.605-.156 1.27-.038 1.879.084.43.28.96.696 1.228l.007.004h-1.747l.006-.004c.416-.268.612-.798.696-1.228.118-.609.076-1.274-.037-1.88-.344-1.835-1.019-3.606-1.309-5.382-.086-.53-.06-1.167.133-1.594.154-.338.664-.62 1.075-1.017.043-.042.067-1.031.067-1.091zm-2.314-.86a.221.221 0 0 0-.183.098c-.438.02-.995.092-1.368.222-.266.094-.569.254-.817.52a1.618 1.618 0 0 0-.432 1.116.358.358 0 0 1-.111.27 1.657 1.657 0 0 1-.347.263c-.144.089-.303.176-.449.3-.145.125-.291.32-.291.565 0 .387.216.665.376.885.16.22.262.382.262.514 0 .047-.015.09-.072.164-.056.074-.152.165-.262.27-.218.209-.517.509-.517.964 0 .391.143.66.248.846.105.185.171.288.171.553 0 .213-.085.308-.239.5-.153.192-.369.479-.369.899 0 .444.268.743.452.947.091.102.166.188.203.252.037.065.045.094.035.152-.017.108-.198.317-.437.542-.12.112-.247.23-.355.37a.877.877 0 0 0-.205.534c0 .34.146.616.253.848.107.231.164.782.15.874h.588c.054-.336-.087-.886-.197-1.124-.11-.238-.198-.447-.198-.598 0-.031.017-.086.082-.171a2.79 2.79 0 0 1 .289-.298c.236-.221.551-.466.619-.882a.837.837 0 0 0-.108-.545c-.084-.144-.186-.253-.277-.353-.18-.2-.298-.338-.298-.548 0-.235.088-.338.239-.526.15-.189.369-.466.369-.873 0-.391-.143-.66-.248-.846-.105-.186-.17-.288-.17-.553 0-.196.126-.336.332-.534.104-.099.22-.203.324-.338a.874.874 0 0 0 .194-.526c0-.38-.218-.648-.377-.866-.158-.217-.262-.382-.262-.533 0-.025.004-.044.083-.111.08-.068.22-.151.375-.247a2.08 2.08 0 0 0 .477-.372c.148-.164.264-.398.264-.668 0-.321.11-.536.272-.71a1.48 1.48 0 0 1 .579-.363c.233-.082.764-.158 1.156-.185a.222.222 0 0 0 .187.119l1.397.065v.814c-.343.3-.87.576-1.102 1.09-.252.556-.264 1.254-.167 1.849.3 1.837.976 3.61 1.31 5.392.107.567.141 1.185.038 1.713-.069.353-.28.799-.501.94-.365.236-1.035.235-1.653.383a.222.222 0 0 0 .052.437h5.416a.221.221 0 0 0 .052-.437c-.617-.148-1.288-.147-1.653-.382-.22-.142-.432-.588-.5-.941-.104-.528-.07-1.146.037-1.713.334-1.782 1.01-3.555 1.31-5.392.097-.595.086-1.293-.166-1.849-.233-.514-.76-.79-1.103-1.09v-.814l1.443-.065a.221.221 0 0 0 .212-.221v-.374c0-.123-.1-.222-.222-.222z"/><path d="M8.22.375c-9.625 0-9.625 17.25 0 17.25M8.22.375h43.41M8.22 17.625h43.41M59.317.375v17.25M51.63.375c9.625 0 9.625 17.25 0 17.25" fill="none" stroke="#000"/></svg>