<svg xmlns="http://www.w3.org/2000/svg" width="93.187" height="18"><path d="M1.647 0c-.335 0-.67.026-.995.066C.205.18.435.692.832.692A.476.476 0 0 0 .914.684c.84.097 1.872.15 2.506.626.841.916.463 2.821.561 3.725.007.05.01 3.653.01 5.48a6.145 6.145 0 0 0-2.635-.586 6.04 6.04 0 0 0-1.187.117c-.441.231.076.528.422.528.041 0 .08-.004.115-.013 1.226.133 2.62.461 3.243 1.602.061.206.023.277-.071.277-.206 0-.68-.342-.946-.342-.014 0-.028 0-.04.003a7.535 7.535 0 0 0-1.58-.169c-.39 0-.777.031-1.15.095-.42.278.097.534.439.534a.532.532 0 0 0 .105-.01c1.251.151 2.636.49 3.243 1.633.007 1.27 0 2.11.033 3.278-.014.36.22.538.456.538.235 0 .473-.176.475-.526-.009-1.15-.091-2.161.06-3.277.304-1.253 2.477-1.445 3.827-1.754.294-.347-.285-.475-.659-.475-.055 0-.107.003-.15.008a6.823 6.823 0 0 0-.521-.02c-.882 0-1.771.175-2.557.58-.032-.755.711-1.19 1.244-1.493.84-.361 1.765-.397 2.643-.59.313-.273-.18-.501-.521-.501a.58.58 0 0 0-.125.012 6.767 6.767 0 0 0-.648-.031c-.903 0-1.805.183-2.614.582.016-2.851.062-5.61-.02-8.308-.065-.834-.546-1.6-1.354-1.849C2.938.094 2.291 0 1.647 0z"/><path d="M0 0v.354L.177.177.354 0zm2.646 0L0 2.646v.708L3.177.177 3.354 0zm3 0L0 5.646v.708L6.177.177 6.354 0zm3 0L0 8.646v.708L8.899.455V0zM8.9 2.748L0 11.646v.708l8.899-8.899v-.707zm0 3L0 14.646v.708l8.899-8.899v-.707zm0 3L0 17.646V18h.354l8.545-8.545v-.707zm0 3l-6.076 6.075-.177.177h.708L8.9 12.455v-.707zm0 3l-3.076 3.075-.177.177h.708L8.9 15.455v-.707zM25.642 2.99q.557 0 1.086.606-4.368 5.2-5.46 5.81-.814.457-1.434.457-.21 0-.399-.053-.74-.208-1.586-.234h-.042q-.828 0-1.817.988h-.13q.702-1.638 1.963-2.34 1.261-.702 7.397-5.148.213-.085.422-.085zM17.91.622q.066 0 .133.01v6.683Q15.99 8.51 15.21 10.668q1.196-8.268 1.677-9.204Q17.32.62 17.911.62zM12.555 11.09q-.08 0-.153.138-.13.247.234.689.208-.546.052-.741-.069-.086-.133-.086zm.037-.372q.153 0 .33.237.39.52-.234 2.08-.702-1.352-.429-1.976.149-.34.333-.34zm6.804 2.577v.39q-.286-.026-.442-.182.052-.078.208-.208zm.598.884l2.418.338.494.884q-.832-.234-1.833-.624-1-.39-1.079-.598zm-5.33-.364l.468.234.156 1.118-.416 1.274h-.65l.442-1.274v-1.352zm1.118.39l.442.13.156.832-.416 1.274h-.65l.442-1.274.026-.962zm1.534.156l.156.806-.416 1.274h-.65l.442-1.274v-.78l.468-.026zm-.994-3.234q.415 0 .89.1 1.404.3 1.768 1.418h1.092l.416-.676Q26 13.242 26.702 16.57q-1.508-.832-3.172-1.118l-.728-1.456-2.886-.39.078-.702h-.988q-1.092.9-2.228.9-.243 0-.489-.042-1.391-.234-1.82-.95-.429-.714.455-1.3.585-.386 1.398-.386zM18.167 0q-.947 0-1.488.658-.663.806-1.235 4.238l-.91 5.954q-.442.468-.676.52h-.312q-.026-.65-.494-1.196-.416-3.978.364-6.968l-.312-.598q-1.118 3.38-.546 7.592h-.078q-1.794-4.03-.52-7.592l-.312-.468q-1.664 3.796.364 8.242-.572 1.248-.117 2.054.455.806.559 1.508l.182.13q.702-1.04.806-1.794h.26q.026.598.338 1.248l.182 1.638-.442 1.274h-2.262v.624h6.526v-.624h-.546l.416-1.274.026-.962q.468-.156.702-.364.338.312.754.312-.026.26.104.442 1.04.806 3.718 1.404l.91 1.768q0-.434.27-.434.085 0 .198.044l-.728-1.3q1.508.338 2.288.858.416.442-.052 1.066 1.04-.442 1.17-1.248-.416-3.926-7.046-5.46l-.468.78h-.416q-.338-1.092-2.678-1.508.522-.388 1.285-.388.414 0 .9.115.491.116.96.116.844 0 1.613-.376 1.196-.585 6.084-6.461-.9-1.136-1.905-1.136-.329 0-.669.122L18.616 7.08V.034Q18.381 0 18.167 0z"/><path d="M37.008.375c-9.625 0-9.625 17.25 0 17.25m0 0" fill="none" stroke="#000"/><path d="M56.852 2.373v2.341H39.61V2.373zM39.672 0v1.772h-.664v3.543h18.445V1.772h-.538V0h-.6v1.772h-1.488V0h-.6v1.772h-1.488V0h-.6v1.772h-1.456V0h-.633v1.772h-1.455V0h-.601v1.772h-1.487V0h-.602v1.772h-1.487V0h-.6v1.772h-1.456V0h-.601v1.772h-1.487V0zm1.598 15.325L39.009 18h1.104l1.159-1.382L42.44 18l1.137-1.382L44.748 18l1.16-1.382L47.077 18l1.158-1.382L49.406 18l1.137-1.382L51.713 18l1.17-1.382L54.022 18l1.17-1.382L56.35 18h1.103l-2.262-2.675-1.17 1.293-1.137-1.293-1.17 1.293-1.17-1.293-1.137 1.293-1.17-1.293-1.16 1.293-1.17-1.293-1.159 1.293-1.17-1.293-1.137 1.293-1.17-1.293zM61.529 1.124q2.014.293 2.105 1.842v11.177q-.941-1.124-3.38-1.58l1.275-11.44zM60.962 0l-1.509 13.363q3.361.385 4.181 2.4V18h1.003V2.966q0-2.51-3.675-2.966zM75.83 2.085q-.254 0-.335.08-.07.082-.192.082v.09l.142.021q.157.157.417.157.193 0 .443-.086l.253.07.02-.181-.222-.02q-.324-.183-.527-.213zm1.325-1.62q.468 0 1.084.142 1.043.233 1.053 1.316.01 1.073-.608 1.57-.326.271-.594.271-.23 0-.418-.201-.182-.182-.07-.294.293-.09.273-.455.313-.385.313-.658.02-.477-.437-.477h-.038q-.203.021-.345.132-.895-.594-1.577-.594-.073 0-.144.007.294-.516.921-.688.257-.072.587-.072zm2.846 6.803q.394.81 1.549 2.36-.436-.294-2.137-.618l.588-1.742zm-4.198-5.704q.638 0 1.363.551l-.071.203q.085.05.165.05.034 0 .068-.01.162-.425.364-.425.025-.003.046-.003.195 0 .177.246 0 .253-.273.567 0 .28-.137.28-.021 0-.046-.007-.182-.04-.151-.202-.122.455.212 1.154l.496 1.083q.172.375.547.395.375.02.86.111.486.092.264.658-.223.567-.932 2.542l-.476-.223q-.496-1.002-1.72-1.701-.233.223.09.587l-.364.8q-.07.476.364.75.608.273 1.337.273l.638.516-.183 3.34-1.822.406q-1.427-4.566-1.7-4.961-.274-.395-.153-2.258-.05-.637 1.043-.637 1.134 0 1.043-.517l-.142-.415q-.111-.385-.09-.476-.09-.024-.208-.024-.178 0-.42.055-.23.02-.397.02-.333 0-.414-.081-.121-.122-.08-.334l.323-.112q.112-.06.041-.202l-.456-.04q.162-.345-.04-.456l-.057.002q-.216 0-.216-.144.07-.132.283-.486.213-.354.516-.455.137-.044.271-.044.175 0 .347.074.304.121.577.192l.05-.121q-.253-.06-.526-.203-.263-.136-.49-.136-.229 0-.421.136.05-.182.142-.273.175-.045.358-.045zm-3.922 9.562l3.726 2.581-4.161 1.256q.141-2.886-.385-3.837zm6.652 2.43q.425 1.63-.507 2.834-.834.498-1.878.498-.717 0-1.533-.235-.837-.245-1.638-.245-1.119 0-2.17.478.183-.637 2.977-2.085l4.749-1.246zM77.3 0q-.324 0-.652.05-1.133.131-1.66 1.559-.07.385-.344.719-.273.324-.354.719 0 .222.283.232.284.01.07.193-.09.02-.07.09.01.072.07.092-.13.142 0 .192.143.061.102.203-.03.152.05.374.082.233.81.233l.628-.09q-.04.151.051.364-1.822.02-2.268.79-1.529 1.275-2.905 2.703-.274-.567-1.246-1.55-.962-.971-1.123-1.427-.335-.992-1.428-1.883-.243.182 0 .587l-.456.73q-.131.475.254.799.587.354 1.204.75 1.701 3.016 2.49 3.26.045.006.092.006.601 0 1.802-1.07 1.19-1.04 1.412-1.04.078 0 .036.129 0 .658.273 1.124.274.465 1.337 4.232l-3.311-2.47q-.75-.68-1.316-.68-1.59.021-1.407 1.317l.567 4.04q-1.205.293-1.114 1.812-.547.111-1.002.314-.368.159-.743.159-.08 0-.158-.007l-.054-.002q-.413 0-.584.447h16.087q-.41-.804-1.112-.804-.147 0-.305.035-.154.034-.29.034-.676 0-.946-.834-.2-.632-.575-.632-.215 0-.488.207.73-1.408.04-2.957.031-1.68.143-2.996 2.379.749 3.148.749.598-.061.598-.517-.527-2.045-2.43-4.566-.385-.77-1.974-.84-.274-.364-.294-.638.658-.152 1.104-.688.455-.537.445-1.742-.01-1.194-1.043-1.559Q78.03 0 77.301 0z"/><path d="M92.624.375v17.25M84.937.375c9.625 0 9.625 17.25 0 17.25" fill="none" stroke="#000"/></svg>