<svg xmlns="http://www.w3.org/2000/svg" width="36.321" height="18"><path d="M22.233 4.03v1.756H9.3V4.03zM9.348 2.25v1.329H8.85v2.657h13.834V3.58h-.404V2.25h-.45v1.329h-1.116V2.25h-.45v1.329h-1.116V2.25h-.45v1.329h-1.092V2.25h-.475v1.329H16.04V2.25h-.451v1.329h-1.115V2.25h-.451v1.329h-1.115V2.25h-.451v1.329h-1.092V2.25h-.45v1.329H9.798V2.25zM10.547 13.744L8.85 15.75h.828l.869-1.036.877 1.036.853-1.036.878 1.036.87-1.036.877 1.036.869-1.036.878 1.036.852-1.036.878 1.036.878-1.036.852 1.036.878-1.036.87 1.036h.827l-1.697-2.006-.878.97-.852-.97-.878.97-.878-.97-.852.97-.878-.97-.87.97-.877-.97-.87.97-.877-.97-.853.97-.877-.97zM25.74 3.093q1.511.22 1.58 1.382v8.382q-.707-.843-2.536-1.184l.956-8.58zm-.425-.843l-1.131 10.022q2.52.289 3.136 1.8v1.678h.751V4.475q0-1.883-2.756-2.225z"/><path d="M8.85.375c-9.625 0-9.625 17.25 0 17.25M8.85.375h19.221M8.85 17.625h19.221M35.759.375v17.25M28.071.375c9.625 0 9.625 17.25 0 17.25" fill="none" stroke="#000"/></svg>