<svg xmlns="http://www.w3.org/2000/svg" width="30.953" height="18"><path d="M1.742.735q-.037 0-.072.012-.248.144-.186.31.041.123.237.164.037.008.07.008.142 0 .208-.142.083-.175-.061-.278-.103-.074-.196-.074zm.17-.12q-.115 0-.273.05-.464.144-.217.546.117.189.442.189.367 0 1.001-.24.577-.228 1.01-.475l-.103-.02-.948.37q-.74.253-1.03.253-.04 0-.073-.005-.257-.041-.288-.237-.031-.196.154-.3Q1.69.69 1.784.69q.075 0 .143.036.155.083.165.196.01.114-.072.237.268-.082.175-.36-.06-.184-.283-.184zm.21-.132q.343 0 .599.202.495-.09.951-.09.686 0 1.285.203 1 .34 1.32 1.773.32 1.433-.598 2.845-.917 1.412-1.536 2.834-1.051 2.474-1.051 3.525 0 1.04.637 1.04h.012q.65-.01 1.587-.494.938-.484 2.01-.505 2.268 0 2.144 1.938-.845-1.01-1.969-1.02h-.035q-1.107 0-2.304.638-.87.465-1.71.465-.333 0-.66-.073-1.155-.258-1.01-2.422.061-1.237.113-3.875.051-2.639.474-4.143.422-1.505 1.185-1.773.24-.084.698-.084.328 0 .766.043.226-.021.04-.248-.39-.1-.794-.1-.838 0-1.74.43-.257.073-.652.073h-.101q-.464-.011-.67-.609.02-.35.618-.515.208-.058.391-.058zM7.517 14.28q.642 0 1.017.547-.248.412-1.196.639-.7 0-1.443-.598.955-.588 1.622-.588zm-6.26-2.38q0 .824.227 1.442.598 1.093 1.608 1.114h.06q.997 0 2.517-.65 1.018-.435 1.797-.435.419 0 .769.126 1 .36 1.185 1.422.186 1.062.722 2.134-.846-.845-1.062-1.958-.216-1.114-1.206-1.248-.159-.021-.325-.021-.873 0-1.963.588-1.28.691-2.97.691h-.05Q.846 15.094.65 13.97q-.196-1.123.608-2.071zM2.4 0q-.24 0-.545.087-.433.124-.763.35-.37.269-.35.62-.02.473.412.772.34.234.806.234.128 0 .266-.017-.866 1.566-.917 4.761-.052 3.195-.155 4.39Q0 12.168 0 13.456t.598 1.721q.598.433 1.917.433 1.298 0 2.741-.495.845.825 2.082.825.763 0 1.32-.598.35 1.731 2.081 2.659-.762-2.824-.742-3.463.186-2.103-.71-2.72-.869-.6-1.881-.6l-.068.001q-1.133 0-2.298.567-.628.306-.96.306-.283 0-.349-.223-.144-.485.423-1.99.566-1.504 1.896-3.74 1.33-2.237.845-3.845Q6.411.685 5.267.355 4.589.16 3.957.16q-.433 0-.844.092-.227-.185-.526-.237Q2.499 0 2.4 0zm14.327 1.507h.002c1.295 0 2.766.083 5.122.083 2.358 0 3.826-.083 5.119-.083.135 0 .268 0 .4.003-.857.445-2.112 1.057-2.94 1.283a9.139 9.139 0 0 1-2.52.32c-.675 0-1.493-.04-2.522-.32-.828-.226-2.085-.84-2.942-1.285l.28-.001zm2.22 2.01l-.005.001c-.204.01-1.042.748-1.347 1.148-.197.26-.25.59-.055.745.055.044.12.064.188.064.17 0 .364-.122.504-.306.326-.427.865-1.547.742-1.643a.044.044 0 0 0-.027-.008zm5.861 0l-.003.001a.041.041 0 0 0-.024.008c-.123.096.416 1.216.742 1.643.14.184.334.306.503.306a.3.3 0 0 0 .19-.064c.195-.154.141-.486-.056-.745-.308-.403-1.156-1.148-1.352-1.148zm-4.903.239h-.004c-.178.017-.845.971-1.052 1.446-.13.3-.105.635.122.737a.282.282 0 0 0 .12.026c.19 0 .387-.183.495-.43.215-.494.475-1.712.334-1.776a.035.035 0 0 0-.015-.003zm3.945 0h-.004a.033.033 0 0 0-.01.003c-.142.064.118 1.282.333 1.776.108.247.305.43.496.43.04 0 .08-.008.12-.026.226-.102.252-.437.12-.737-.208-.479-.885-1.446-1.055-1.446zm-2.778.178h-.002c-.164.012-.692 1.086-.826 1.596-.084.317-.007.644.232.71a.29.29 0 0 0 .077.01c.207 0 .395-.225.47-.507.137-.522.208-1.767.058-1.807a.035.035 0 0 0-.009-.002zm1.61 0h-.003l-.005.002c-.15.04-.08 1.285.058 1.807.075.282.263.506.47.506a.29.29 0 0 0 .076-.01c.24-.065.316-.392.233-.709-.135-.512-.668-1.596-.829-1.596zm-.843.016h-.001c-.155.019-.4 1.225-.4 1.76 0 .329.158.624.405.624.244 0 .401-.295.401-.623 0-.54-.248-1.761-.402-1.761h-.003zM21.581.6h.265c1.754 0 3.292 0 4.496.023 1.203.024 2.09.076 2.459.153.32.067.703.24.992.479.29.239.479.529.5.845.1 1.43.06 2.87.01 4.32h-.058c.043-.7.067-1.5.056-2.251-.013-.867-.062-1.64-.201-2.133-.167-.592-.644-.992-1.191-1.044a20.072 20.072 0 0 0-1.95-.085c-1.31 0-2.776.084-5.108.084-2.333 0-3.8-.084-5.113-.084-.661 0-1.282.021-1.954.085-.577.055-1.026.522-1.191 1.108-.139.492-.188 1.25-.201 2.1-.012.737.012 1.525.055 2.22h-.057c-.05-1.45-.091-2.89.009-4.32.022-.317.212-.618.5-.86.287-.241.666-.41.979-.461.911-.147 3.35-.178 6.572-.18h.13zm-.105-.6h-.183c-3.14.002-5.473.02-6.51.187-.438.07-.895.279-1.27.595-.375.315-.675.752-.712 1.276-.11 1.568-.055 3.125 0 4.672l.01.29h1.279l-.024-.323a28.851 28.851 0 0 1-.075-2.487c.012-.83.077-1.587.178-1.947.112-.394.396-.648.672-.675.142-.013.282-.025.42-.035.35.199 2.553 1.431 3.97 1.818a9.794 9.794 0 0 0 2.678.34c.698 0 1.586-.042 2.68-.34 1.398-.382 3.561-1.587 3.954-1.81l.309.027c.305.03.562.223.671.611.101.358.166 1.133.179 1.979.012.845-.019 1.777-.075 2.519l-.025.322h1.28l.01-.289c.054-1.547.109-3.104 0-4.672-.037-.525-.342-.955-.717-1.265A2.963 2.963 0 0 0 28.924.19c-.49-.103-1.358-.142-2.57-.166A254.71 254.71 0 0 0 21.845 0h-.37zm.378 10.897q2.468.222 2.674 2.674-.254 2.42-2.674 2.673-2.42-.253-2.673-2.673.221-2.452 2.673-2.674zm0-.917q-3.385.205-3.59 3.59.205 2.785 2.483 3.386h-2.484V18h7.166v-1.044h-2.483q2.278-.601 2.483-3.385-.205-3.37-3.575-3.591z"/></svg>