<svg xmlns="http://www.w3.org/2000/svg" width="52.301" height="18"><path d="M9.868 3.218l3.638.203c.064.704.032 1.49-.096 2.36-1.358-.75-2.538-1.605-3.542-2.563zm3.947-.968c-.202 0-.41.131-.626.393L9.257 2.44c-.929.24-1.119.613-.569 1.117.107-.023.202-.035.286-.035.204 0 .336.07.397.211.086.198.317.457.694.776.376.32 1.396.978 3.06 1.977.197.493.414.74.652.74.111 0 .227-.054.347-.162 2.366 1.02 4.652 1.733 6.857 2.14l.31-.245-.759-.807c-1.619-.14-3.727-.77-6.323-1.888a6.717 6.717 0 0 1-.045-2.752l4.402.294c.654-.163.702-.502.146-1.015l-4.334-.181c-.181-.24-.369-.36-.563-.36zM14.837 12.825q2.33 0 4.943 1.126-2.612 1.095-4.943 1.095-2.315 0-4.943-1.095 2.628-1.126 4.943-1.126zm0-.72q-2.878 0-6.617 1.83 3.739 1.815 6.617 1.815t6.617-1.815q-3.723-1.83-6.617-1.83zM26.257 6.384l-.016.008L28.96 11.6h1.025l-2.719-5.217zm-2.278.008l-1.025.007 2.718 5.217 1.025-.008-2.718-5.216zM37.554 3.839l-.015 1.52c-.132 1.762-1.46 2.642-2.773 2.642-1.314 0-2.614-.88-2.69-2.642l-.027-1.52zM31.52 2.25c0 1.39-.221 3.544.442 4.756.567 1.036 1.674 1.535 2.79 1.535 1.279 0 2.57-.653 3.081-1.902.432-1.053.271-3.192.271-4.389h-.548l-.002.9H32.05l.02-.9zM43.577 2.751l-.048 5.268-2.776.048-.024-5.292 2.848-.024zm.474-.45l-3.772.023.023 6.217 3.678-.071.071-6.17zM33.026 13.928l-1.541 1.822h.752l.79-.942.796.942.775-.942.797.942.79-.942.797.942.79-.942.797.942.775-.942.797.942.797-.942.775.942.797-.942.79.942h.751l-1.541-1.822-.797.88-.775-.88-.797.88-.797-.88-.775.88-.797-.88-.79.88-.797-.88-.79.88-.797-.88-.775.88-.797-.88z"/><path d="M8.22.375c-9.625 0-9.625 17.25 0 17.25M8.22.375h35.831M8.22 17.625h35.831M51.739.375v17.25M44.051.375c9.625 0 9.625 17.25 0 17.25" fill="none" stroke="#000"/></svg>