<svg xmlns="http://www.w3.org/2000/svg" width="117.949" height="18"><path d="M1.647 0c-.335 0-.67.026-.995.066C.205.18.435.692.832.692A.476.476 0 0 0 .914.684c.84.097 1.872.15 2.506.626.841.916.463 2.821.561 3.725.007.05.01 3.653.01 5.48a6.145 6.145 0 0 0-2.635-.586 6.04 6.04 0 0 0-1.187.117c-.441.231.076.528.422.528.041 0 .08-.004.115-.013 1.226.133 2.62.461 3.243 1.602.061.206.023.277-.071.277-.206 0-.68-.342-.946-.342-.014 0-.028 0-.04.003a7.535 7.535 0 0 0-1.58-.169c-.39 0-.777.031-1.15.095-.42.278.097.534.439.534a.532.532 0 0 0 .105-.01c1.251.151 2.636.49 3.243 1.633.007 1.27 0 2.11.033 3.278-.014.36.22.538.456.538.235 0 .473-.176.475-.526-.009-1.15-.091-2.161.06-3.277.304-1.253 2.477-1.445 3.827-1.754.294-.347-.285-.475-.659-.475-.055 0-.107.003-.15.008a6.823 6.823 0 0 0-.521-.02c-.882 0-1.771.175-2.557.58-.032-.755.711-1.19 1.244-1.493.84-.361 1.765-.397 2.643-.59.313-.273-.18-.501-.521-.501a.58.58 0 0 0-.125.012 6.767 6.767 0 0 0-.648-.031c-.903 0-1.805.183-2.614.582.016-2.851.062-5.61-.02-8.308-.065-.834-.546-1.6-1.354-1.849C2.938.094 2.291 0 1.647 0z"/><path d="M0 0v.354L.177.177.354 0zm2.646 0L0 2.646v.708L3.177.177 3.354 0zm3 0L0 5.646v.708L6.177.177 6.354 0zm3 0L0 8.646v.708L8.899.455V0zM8.9 2.748L0 11.646v.708l8.899-8.899v-.707zm0 3L0 14.646v.708l8.899-8.899v-.707zm0 3L0 17.646V18h.354l8.545-8.545v-.707zm0 3l-6.076 6.075-.177.177h.708L8.9 12.455v-.707zm0 3l-3.076 3.075-.177.177h.708L8.9 15.455v-.707zM8.899 0v.455l.278-.278L9.354 0zm2.034.713L8.9 2.748v.707l2.034-2.035V.713zm0 3L8.9 5.748v.707l2.034-2.035v-.707zm0 3L8.9 8.748v.707l2.034-2.035v-.707zm0 3L8.9 11.748v.707l2.034-2.035v-.707zm0 3L8.9 14.748v.707l2.034-2.035v-.707zm0 3L8.9 17.748V18h.455l1.58-1.58v-.707z"/><path d="M25.642 2.99q.557 0 1.086.606-4.368 5.2-5.46 5.81-.814.457-1.434.457-.21 0-.399-.053-.74-.208-1.586-.234h-.042q-.828 0-1.817.988h-.13q.702-1.638 1.963-2.34 1.261-.702 7.397-5.148.213-.085.422-.085zM17.91.622q.066 0 .133.01v6.683Q15.99 8.51 15.21 10.668q1.196-8.268 1.677-9.204Q17.32.62 17.911.62zM12.555 11.09q-.08 0-.153.138-.13.247.234.689.208-.546.052-.741-.069-.086-.133-.086zm.037-.372q.153 0 .33.237.39.52-.234 2.08-.702-1.352-.429-1.976.149-.34.333-.34zm6.804 2.577v.39q-.286-.026-.442-.182.052-.078.208-.208zm.598.884l2.418.338.494.884q-.832-.234-1.833-.624-1-.39-1.079-.598zm-5.33-.364l.468.234.156 1.118-.416 1.274h-.65l.442-1.274v-1.352zm1.118.39l.442.13.156.832-.416 1.274h-.65l.442-1.274.026-.962zm1.534.156l.156.806-.416 1.274h-.65l.442-1.274v-.78l.468-.026zm-.994-3.234q.415 0 .89.1 1.404.3 1.768 1.418h1.092l.416-.676Q26 13.242 26.702 16.57q-1.508-.832-3.172-1.118l-.728-1.456-2.886-.39.078-.702h-.988q-1.092.9-2.228.9-.243 0-.489-.042-1.391-.234-1.82-.95-.429-.714.455-1.3.585-.386 1.398-.386zM18.167 0q-.947 0-1.488.658-.663.806-1.235 4.238l-.91 5.954q-.442.468-.676.52h-.312q-.026-.65-.494-1.196-.416-3.978.364-6.968l-.312-.598q-1.118 3.38-.546 7.592h-.078q-1.794-4.03-.52-7.592l-.312-.468q-1.664 3.796.364 8.242-.572 1.248-.117 2.054.455.806.559 1.508l.182.13q.702-1.04.806-1.794h.26q.026.598.338 1.248l.182 1.638-.442 1.274h-2.262v.624h6.526v-.624h-.546l.416-1.274.026-.962q.468-.156.702-.364.338.312.754.312-.026.26.104.442 1.04.806 3.718 1.404l.91 1.768q0-.434.27-.434.085 0 .198.044l-.728-1.3q1.508.338 2.288.858.416.442-.052 1.066 1.04-.442 1.17-1.248-.416-3.926-7.046-5.46l-.468.78h-.416q-.338-1.092-2.678-1.508.522-.388 1.285-.388.414 0 .9.115.491.116.96.116.844 0 1.613-.376 1.196-.585 6.084-6.461-.9-1.136-1.905-1.136-.329 0-.669.122L18.616 7.08V.034Q18.381 0 18.167 0z"/><path d="M11.646 0L10.9.748v.707L12.177.177 12.354 0zm3 0L10.9 3.748v.707L15.177.177 15.354 0zm3 0L10.9 6.748v.707L18.177.177 18.354 0zm3 0L10.9 9.748v.707L21.177.177 21.354 0zm3 0L10.9 12.748v.707L24.177.177 24.354 0zm3 0L10.9 15.748v.707L27.177.177 27.354 0zm.862 2.138L11.823 17.823l-.177.177h.708L27.508 2.845v-.707zm0 3L14.823 17.823l-.177.177h.708L27.508 5.845v-.707zm0 3l-9.685 9.685-.177.177h.708l9.154-9.155v-.707zm0 3l-6.685 6.685-.177.177h.708l6.154-6.155v-.707zm0 3l-3.685 3.685-.177.177h.708l3.154-3.155v-.707zm0 3l-.685.685-.177.177h.708l.154-.155v-.707zM29.615.032l-2.107 2.106v.707L29.615.74V.032zm0 3l-2.107 2.106v.707l2.107-2.106v-.707zm0 3l-2.107 2.106v.707l2.107-2.106v-.707zm0 3l-2.107 2.106v.707l2.107-2.106v-.707zm0 3l-2.107 2.106v.707l2.107-2.106v-.707zm0 3l-2.107 2.106v.707l2.107-2.106v-.707z"/><path d="M37.008.375c-9.625 0-9.625 17.25 0 17.25m0 0" fill="none" stroke="#000"/><path d="M29.646 0l-.138.138v.707l.669-.668.177-.177zm3 0l-3.138 3.138v.707L33.177.177 33.354 0zm3 0l-6.138 6.138v.707L36.177.177 36.354 0zm3 0l-9.138 9.138v.707L39.177.177 39.354 0zm3 0L29.508 12.138v.707L42.177.177 42.354 0zm3 0L29.508 15.138v.707L45.177.177 45.354 0zm3 0L29.823 17.823l-.177.177h.708L48.177.177 48.354 0zm3 0L32.823 17.823l-.177.177h.708L51.177.177 51.354 0zm3 0L35.823 17.823l-.177.177h.708L54.177.177 54.354 0zm3 0L38.823 17.823l-.177.177h.708L57.177.177 57.354 0zm3 0L41.823 17.823l-.177.177h.708L60.177.177 60.354 0zm3 0L44.823 17.823l-.177.177h.708L63.177.177 63.354 0zm3 0L47.823 17.823l-.177.177h.708L66.177.177 66.354 0zm3 0L50.823 17.823l-.177.177h.708L69.177.177 69.354 0zm3 0L53.823 17.823l-.177.177h.708L72.177.177 72.354 0zm3 0L56.823 17.823l-.177.177h.708L75.177.177 75.354 0zm3 0L59.823 17.823l-.177.177h.708L78.177.177 78.354 0zm3 0L62.823 17.823l-.177.177h.708L81.177.177 81.354 0zm3 0L65.823 17.823l-.177.177h.708L84.008.345V0zm.362 2.638L68.823 17.823l-.177.177h.708L84.008 3.345v-.707zm0 3L71.823 17.823l-.177.177h.708L84.008 6.345v-.707zm0 3l-9.185 9.185-.177.177h.708l8.654-8.655v-.707zm0 3l-6.185 6.185-.177.177h.708l5.654-5.655v-.707zm0 3l-3.185 3.185-.177.177h.708l2.654-2.655v-.707zm0 3l-.185.185-.177.177h.362v-.362zM86.646 0l-2.638 2.638v.707L86.675.68V0zm.029 2.971l-2.667 2.667v.707l2.667-2.666V2.97zm0 3l-2.667 2.667v.707l2.667-2.666V5.97zm0 3l-2.667 2.667v.707l2.667-2.666V8.97zm0 3l-2.667 2.667v.707l2.667-2.666v-.708zm0 3l-2.667 2.667V18h.346l2.321-2.321v-.708z"/><path d="M87.754 0c-.93 0-1.746.684-1.746 1.562V18h1.136V1.562c0-.43.379-.57.617-.57.25 0 .634.175.634.703v10.804h1.136V1.695C89.53.815 88.66 0 87.754 0zm9.184.597c.268.002.505.041.692.109-.032.223-.17.569-.953.773.73-.053 1.206-.113 1.452-.307.089.2.137.427.158.556a.297.297 0 0 0 .207.237c.624.191 1.173 1.112 1.7 1.763.95 1.173 1.771 2.48 2.688 3.733l-1.27-.622c-1.182-.622-2.395-1.11-3.407-1.877-.589-.49-1.172-.996-1.39-1.641-.077-.497.296-1.074.767-1.279a.297.297 0 1 0-.238-.545c-.377.164-.7.458-.904.817.01-.152.031-.308.075-.448a.297.297 0 0 0 .012-.104 1.372 1.372 0 0 0-.082-.422c-.04-.109-.085-.206-.158-.459a.297.297 0 0 0-.104-.153c.14-.062.316-.112.527-.125.043-.003.084-.003.125-.004a.258.258 0 1 0 .103-.002zm1.193 5.432c.606.466 1.253.873 1.888 1.28-.005.438.006.879.047 1.321a2.215 2.215 0 0 0-.697-.3c-.391-.636-.82-1.22-1.082-1.842a4.553 4.553 0 0 1-.156-.46zm-.249 1c.273.549.622 1.04.929 1.529-.059.04-.112.08-.155.121l-.027.027a1.713 1.713 0 0 0-.613-.454c.009-.348-.047-.768-.134-1.222zm2.881.047a25.922 25.922 0 0 1 .588.297c.78.38 1.56.772 2.349 1.148.556.67 1.157 1.293 1.735 1.92l-1.044.175-2.563-2.786a.297.297 0 0 0-.039-.036 19.147 19.147 0 0 0-1.026-.718zm-2.592 2.009c.058.066.112.14.162.222a.298.298 0 0 0 .429.087c.125-.09.2-.177.265-.244l.078 1.413c-.1-.006-.201-.013-.296-.013-.167 0-.314.022-.398.108-.1-.078-.28-.1-.504-.1-.058 0-.118.002-.18.005l.444-1.478zm-5.418.999c.451.062.686.323.703.783h-1.394c0-.46.23-.721.69-.783zm7.86-2.39c.274.182.542.367.798.56l2.403 2.613h-2.456c-.171-.19-.519-.365-.777-.365a.366.366 0 0 0-.191.046 2.987 2.987 0 0 0-.256-.01c-.14 0-.286.007-.434.016l-.082-1.506c.224.115.407.282.625.542a.297.297 0 0 0 .52-.246 9.753 9.753 0 0 1-.15-1.65zm-6.24 3.745l-.266.465H92.86l-.253-.465zm4.516 0v2.51l-1.727-2.51zM96.945 0a3.878 3.878 0 0 0-.272.01c-.695.044-1.216.325-1.408.768a.298.298 0 0 0 .34.408l.025-.006.03.007.108.029c.054.168.096.269.12.332a.541.541 0 0 1 .042.2 3.112 3.112 0 0 0-.037 1.389c.096.466.384.977.762 1.46a.295.295 0 0 0 .014.108c.182.559.396 1.318.548 2.027.152.708.233 1.387.192 1.684a.298.298 0 0 0 .223.33l.018.005-.526 1.75a1.787 1.787 0 0 0-.26-.018c-.256 0-.509.041-.712.041a.865.865 0 0 1-.183-.016.314.314 0 0 0-.068-.007c-.212 0-.657.13-.787.366h-1.1c-.062-.797-.482-1.235-1.261-1.315-.789.08-1.196.518-1.222 1.315v.572h.53l.545 1.01h1.767l.531-1.01h1.567l2.405 3.493V18h.57v-6.561h4.517v-.41l.1.109a.297.297 0 0 0 .268.092l1.74-.292a.298.298 0 0 0 .172-.492 49.17 49.17 0 0 0-.656-.716l1.657 1.078a.296.296 0 0 0 .411-.087.297.297 0 0 0-.087-.411l-1.344-.876a.292.292 0 0 0 .076-.09.315.315 0 0 0 .02-.237.305.305 0 0 0-.048-.093c-.056-.076-.084-.088-.124-.119a2.938 2.938 0 0 0-.13-.094c-.096-.065-.207-.137-.302-.2a4.156 4.156 0 0 1-.216-.156l-2.378-1.672-.008-.005c-.806-1.13-1.568-2.316-2.457-3.414-.433-.535-.938-1.524-1.812-1.894-.049-.262-.157-.68-.484-.997C98.008.119 97.497 0 96.945 0z"/><path d="M117.386.375v17.25M109.699.375c9.625 0 9.625 17.25 0 17.25" fill="none" stroke="#000"/></svg>