<svg xmlns="http://www.w3.org/2000/svg" width="58.544" height="18"><path d="M3.01.474c.693 0 1.247.2 1.634.479.006.053.02.107.009.16-.05.248-.195.477-.396.63-.316.207-.697.267-1.057.356-.09.01-.019.031.031.04.23.04.707.099.971.099l.052-.001c.278-.032.54-.148.766-.311.079-.067.147-.15.205-.236.147.346.227.713.26.917.018.11.096.2.202.233 1.139.349 2.038 1.91 2.88 2.949 1.729 2.137 3.199 4.526 4.892 6.76-.937-.456-1.87-.916-2.81-1.374-1.92-1.01-3.92-1.816-5.604-3.09l-.008-.008c-.97-.808-1.963-1.66-2.339-2.793-.148-.92 1.757-2.577 1.542-2.646a.207.207 0 0 0-.064-.01c-.458 0-1.753 1.128-2.019 2.202-.003-.014-.01-.03-.014-.045-.073-.356-.154-1.256.068-1.98a.29.29 0 0 0 .01-.103 1.968 1.968 0 0 0-.123-.634c-.063-.17-.139-.344-.26-.765-.031-.108-.142-.328-.208-.345.186-.138.375-.28.645-.375a.434.434 0 0 0-.132.314c0 .23.164.415.365.415.2 0 .364-.186.364-.415V.894a.411.411 0 0 0-.255-.39c.053-.007.096-.019.154-.022.081-.006.16-.008.238-.008zm.67 7.763c.065.065.135.124.202.187.214.78.412 1.64.692 2.305.483 1.145 1.216 2.141 1.84 3.154a1.814 1.814 0 0 0-.385.27 6.831 6.831 0 0 0-.199.193 2.61 2.61 0 0 0-1.186-.897c.045-.723-.108-1.712-.34-2.787a34.903 34.903 0 0 0-.624-2.425zm1.006.908c1.149.945 2.428 1.738 3.676 2.54-.018.91-.018 1.778.084 2.675a3.411 3.411 0 0 0-1.437-.736c-.02 0-.037.012-.057.012-.649-1.063-1.383-2.06-1.837-3.134-.156-.37-.293-.85-.429-1.357zm.407 5.254a2.5 2.5 0 0 1 .44.541.3.3 0 0 0 .257.14.29.29 0 0 0 .17-.053c.215-.156.347-.324.476-.446.047-.045.097-.08.148-.117l.149 2.722c-.213-.014-.435-.035-.637-.035-.264 0-.495.036-.633.172-.169-.134-.497-.164-.89-.164-.102 0-.207.002-.316.004l.836-2.764zM6.25 9.574c1.354.787 2.784 1.414 4.135 2.125a.244.244 0 0 0 .006.003c1.295.631 2.586 1.28 3.894 1.904.984 1.189 2.052 2.295 3.078 3.42l-2.15.362-4.267-4.635a.288.288 0 0 0-.037-.036c-1.499-1.137-3.152-2.082-4.66-3.143zM3.076 0c-.135 0-.273.005-.411.013C1.58.083.792.54.523 1.157c-.04.093-.146.314-.007.314a2.35 2.35 0 0 1 .341-.028c.418 0 .38.172.47.194.09.282.29.846.303 1.068-.244.86-.153 1.763-.064 2.198.15.732.63 1.584 1.261 2.38a.285.285 0 0 0 0 .166 35.3 35.3 0 0 1 .903 3.336c.251 1.168.393 2.277.317 2.823a.294.294 0 0 0 .221.328c.045.011.084.031.127.045l-.928 3.079a2.847 2.847 0 0 0-.593-.055c-.381 0-.756.05-1.064.05-.125 0-.24-.008-.34-.032a.546.546 0 0 0-.125-.012c-.436 0-1.428.306-1.34.879.15-.128.257-.159.375-.159.11 0 .23.027.405.027h.027c.254-.004.697-.083 1.053-.083.18 0 .338.02.438.08.236-.01.45-.013.649-.013.85 0 1.447.07 2.5.075a89.565 89.565 0 0 0 2.974-.079c.45.003.697.054.922.054h.04c.134-.004.265-.057.48-.057.123 0 .273.017.468.07-.25-.341-.877-.685-1.33-.685a.591.591 0 0 0-.302.071 5.081 5.081 0 0 0-.508-.022c-.22 0-.448.01-.678.02l-.157-2.83c.487.203.857.517 1.281 1.021a.295.295 0 0 0 .513-.246c-.192-1.039-.213-2.019-.202-3.06.54.354 1.072.713 1.576 1.094l4.36 4.738a.29.29 0 0 0 .263.09c.95-.159 1.9-.315 2.849-.474a.294.294 0 0 0 .23-.193.298.298 0 0 0-.06-.297c-.741-.83-1.508-1.631-2.25-2.445 1.269.78 2.875 1.755 3.08 1.755.022 0 .027-.013.012-.04-.094-.163-.9-.755-1.775-1.373.14.058.276.12.415.177l.017.01c.103.035.16.059.27.062a.286.286 0 0 0 .108-.016.317.317 0 0 0 .188-.152.32.32 0 0 0 .023-.238c-.017-.05-.038-.077-.054-.098-.061-.085-.103-.109-.162-.154a4.553 4.553 0 0 0-.205-.149c-.153-.105-.336-.223-.493-.328a4.992 4.992 0 0 1-.328-.233.307.307 0 0 0-.028-.025l-3.892-2.736c-.008-.006-.02-.001-.028-.006-1.333-1.869-2.588-3.825-4.046-5.627-.744-.92-1.598-2.528-2.985-3.064-.067-.396-.218-1.127-.755-1.649C4.827.26 4.168.056 3.427.011A5.728 5.728 0 0 0 3.076 0zM25.33 2.25c-.697 0-1.309.513-1.309 1.171V15.75h.852V3.421c0-.322.284-.427.462-.427.187 0 .476.131.476.527v8.103h.852V3.521c0-.66-.653-1.271-1.333-1.271zm5.311.345q-.082.871-.082 1.953 0 1.08.105 2.184-.24-.127-.751-.127-.518 0-.75.127.112-1.103.104-2.184-.007-1.082-.082-1.953zm-.728 4.475q.51.008 1.036.27l-.135.248q-.106-.018-.199-.018-.32 0-.477.221-.09-.398-.225-.488-.135.09-.233.488-.157-.221-.477-.221-.092 0-.199.018l-.135-.247q.54-.263 1.044-.27zm0 .721q.113.09.075.263-.037.173-.075.33-.045-.157-.083-.33-.037-.173.083-.263zm.684.001q.042 0 .09.007-.511 1.216-.774 1.216-.255 0-.788-1.216.048-.007.091-.007.274 0 .352.247.097.278.202.45.113.18.143.18.038 0 .135-.18.105-.172.195-.45.085-.247.354-.247zM28.742 2.25q.36 2.553-.008 4.603-.668.315-.555.533.082.164.189.164.039 0 .08-.022.654.736 1.075 1.735.165 1.644-.045 5.684 0 .803.42.803h.023q.42 0 .42-.803-.203-4.04-.045-5.684.413-.999 1.066-1.735.042.022.081.022.107 0 .19-.164.112-.218-.549-.533-.375-2.05 0-4.603zm9.372 3.546l-.334.759q.714.144 1.018 1.435l1.154-.296v.721l-1.124.32q.008 1.062-.205 1.996-.22.934-.995 1.208-.387.132-.778.132-.39 0-.786-.132-.79-.274-1.002-1.208-.22-.934-.197-1.997l-1.124-.319v-.721l1.146.296q.304-1.29 1.025-1.435l-.349-.76zm-3.082-.532q-.274 0-.038.532l.205.463q-.608.387-.76 1.07l-1.29-.387v1.921l1.214.35q0 1.093.312 2.186.319 1.094 2.164 1.337 1.845-.243 2.171-1.337.32-1.093.32-2.186l1.214-.35v-1.92l-1.306.387q-.152-.684-.76-1.071l.206-.463q.243-.532-.038-.532z"/><path d="M21.396.375v17.25m0-17.25h2.625m-2.625 17.25h2.625m0-17.25h16.523m-16.523 17.25h16.523m0-17.25H58.17m-17.626 17.25H58.17M42.307.375v17.25M45.832.375v17.25M47.594.375v17.25M49.357 2.1h8.812m-8.812 3.45h8.812M49.357 2.1v3.45m1.763-1.725h7.05m-8.813 3.45h8.812m-8.812 3.45h8.812m-8.812-3.45v3.45M51.12 9h7.05m-8.813 3.45h8.812m-8.812 3.45h8.812m-8.812-3.45v3.45m1.763-1.725h7.05" fill="none" stroke="#000"/></svg>