<svg xmlns="http://www.w3.org/2000/svg" width="49.953" height="18"><path d="M13.635 8.996l-.48 3.443q-.082.452-.439.452H11.29q-.357 0-.425-.452l-.48-3.443zM8.862 7.213q-.727.11-.63.809 1.028.891 1.083.974.466.658.672 2.345.11 1.55.576 2.25h2.743q.576-.7.727-2.25.206-1.687.672-2.345.124-.179.076-.426-.048-.246-.336-.329h-4.101q-.59-.15-1.482-1.028zM19.648 5.965h-.015c-.155.002-.256.047-.303.132V6.272l-.432.227c-.144.075-.216.144-.216.206l.73-.34c.012.029.061.043.149.043.018 0 .037 0 .057-.002a.7.7 0 0 0 .36-.113V6.21h-.061a.543.543 0 0 0-.263-.077.405.405 0 0 0-.087.01.441.441 0 0 0-.23.11c.052-.112.244-.167.575-.167h.056v-.082a1.556 1.556 0 0 0-.32-.04zm1.113-.115c-.124.151-.204.314-.242.49-.038.174-.047.58-.026 1.219.473-.268.746-.55.818-.85.072-.298.064-.543-.025-.735l-.165-.03-.185-.052-.175-.042zm-.368-.314h.004c.266.002.523.097.744.242.395.231.771.491 1.154.742.26.156.554.262.853.317-.487.026-.987.101-1.423.333-.283.155-.524.404-.624.716-.09.276-.085.572-.09.86.004.539.104 1.095.4 1.552.019.032.049.063.06.094-.046.045-.108.056-.172.056-.043 0-.086-.005-.126-.007-.18-.032-.311-.176-.432-.303a3.969 3.969 0 0 1-.476-.66c-.262-.489-.35-1.05-.392-1.598-.016-.194-.01-.389-.027-.582-.012-.088-.073-.186-.171-.186a.146.146 0 0 0-.006 0c-.13 0-.237.09-.358.126a1.117 1.117 0 0 1-.374.067c-.127.012-.242.08-.37.08l-.032-.002a1.146 1.146 0 0 1-.145-.015c.198-.062.401-.118.584-.218.055-.028.115-.096.078-.16-.02-.031-.052-.043-.085-.043a.232.232 0 0 0-.106.03c-.136.065-.255.17-.404.207a.968.968 0 0 1-.314.05c-.04-.037-.042-.1-.038-.152.03-.083.132-.095.196-.14.025-.01.05-.035.076-.035.009 0 .017.003.026.01a.2.2 0 0 0 .087.022c.037 0 .071-.013.09-.049.047-.081.002-.188-.078-.23a.17.17 0 0 0-.243.073c-.028.052-.094.063-.138.1-.007.008-.013.012-.018.012-.013 0-.02-.023-.026-.038-.01-.032.043-.026.055-.047.166-.11.34-.208.5-.325.18-.212.437-.334.685-.448.026-.026.006-.07.036-.096.087-.123.24-.17.373-.225.207-.074.424-.129.645-.13h.022zm6.77 1.575h.01c.625.002 1.263.11 1.808.43.18.104.349.234.472.403-.159-.132-.356-.203-.551-.266.02.06.011.13.045.184.206.125.382.336.39.585.015.337-.146.65-.34.916-.164.23-.345.472-.377.76-.004.052.003.108-.035.148-.087.105-.227.146-.356.171a.857.857 0 0 1-.143.013.547.547 0 0 1-.376-.13c-.088-.09-.147-.206-.233-.3-.227-.277-.507-.532-.857-.638a1.168 1.168 0 0 0-.47-.044l.165.247a.632.632 0 0 1 .17-.024.411.411 0 0 1 .377.205c-.174.005-.343.05-.515.07-.48.07-.962.147-1.441.216-.036-.038-.083-.07-.137-.07a.14.14 0 0 0-.008 0c-.69-.105-1.382-.212-2.081-.217a.09.09 0 0 1-.02.003c-.026 0-.036-.017-.03-.05-.002-.06-.033-.14-.102-.14l-.008.001c-.085.005-.13.089-.152.161-.052.134-.085.296-.212.381a.34.34 0 0 1-.16.038.461.461 0 0 1-.256-.082c-.093-.08-.135-.2-.185-.308-.155-.394-.176-.825-.162-1.244.018-.314.103-.64.321-.876.173-.194.432-.283.68-.338.467-.106.95-.125 1.43-.137h.037c.315 0 .63.021.944.021h.033l.163.001c.599 0 1.197-.03 1.793-.08a6.478 6.478 0 0 1 .369-.01zM22.5 4.41a.953.953 0 0 0-.387.08 1.01 1.01 0 0 1-.41.09 1.01 1.01 0 0 1-.408-.09.702.702 0 0 0-.285-.058c-.217 0-.468.086-.752.258-.289-.172-.543-.258-.76-.258a.705.705 0 0 0-.287.058 1.01 1.01 0 0 1-.41.09 1.01 1.01 0 0 1-.408-.09.953.953 0 0 0-.388-.08c-.172 0-.357.042-.555.125-.242.102-.435.153-.579.153a.383.383 0 0 1-.168-.034 1.649 1.649 0 0 0-.305-.124.158.158 0 0 0-.045-.008c-.052 0-.07.042-.054.127.106.313.316.476.628.49l.146.002c.246 0 .452-.029.617-.087a.847.847 0 0 1 .286-.047c.127 0 .266.024.417.071.173.055.342.083.508.083.096 0 .191-.01.285-.028a.945.945 0 0 1 .18-.018c.165 0 .308.05.428.15a2.25 2.25 0 0 0-.501.21c-.111.066-.219.17-.23.304a1.428 1.428 0 0 0-.327.176c-.197.135-.368.306-.54.47-.083.06-.179.102-.258.167-.066.043-.123.111-.118.195-.008.108.043.208.058.31.007.231.138.525.393.555l1.057-.12h.005c.025 0 .064-.017.089-.017.01 0 .019.004.021.014.005.724.121 1.465.463 2.11.12.23.275.443.446.637.047.2-.06.389-.154.557-.09.159-.242.275-.312.445-.09.18-.11.39-.227.558-.103.164-.25.293-.396.418-.122.113-.243.235-.309.39-.34.255-.676.537-.883.913-.009.029.019.035.043.035l.026-.002h1.026a1.06 1.06 0 0 0 .262-.32c.045.018.096.03.147.03a.245.245 0 0 0 .2-.089.257.257 0 0 0 .07-.204c.01-.34.119-.69.35-.943.11-.1.249-.167.372-.25.062-.055.105-.129.163-.189a5.13 5.13 0 0 1 .92-.846c.021-.01.047-.035.07-.035.01 0 .018.004.026.013.17.118.3.284.423.448.06.193.138.39.287.534a.719.719 0 0 0 .236.156c.11.252.143.527.157.8-.24.28-.461.578-.651.895h1.168a.726.726 0 0 0 .192-.481h.024c.113 0 .23-.065.261-.178.05-.15-.025-.309-.107-.433-.174-.257-.333-.541-.351-.857-.005-.12.005-.243-.028-.36a.817.817 0 0 0-.255-.43c-.193-.208-.273-.491-.33-.763.259.01.519.024.776.058.345.044.69.102 1.03.18.02.007.055.009.047.04.017.1.086.198.187.224.061.18.117.373.255.509.025.02.054.035.083.049.017-.215.039-.43.099-.637l1.022-.097c-.062.42-.145.85-.364 1.218-.202.33-.472.612-.758.871-.072.101-.135.222-.247.283a.276.276 0 0 0-.146.05c-.17.11-.282.289-.393.454-.063.098-.12.198-.177.3h1.282c.017-.104.03-.21.027-.316a.31.31 0 0 0 .1.016.248.248 0 0 0 .217-.112.632.632 0 0 0 .09-.273c.257-.254.41-.59.628-.874a1.14 1.14 0 0 1 .458-.365.69.69 0 0 0 .33-.472l.016.001c.062 0 .108-.055.15-.092.029.006.059.009.09.009.092 0 .187-.031.235-.115a.335.335 0 0 0 .03-.074c.328.21.587.54.68.921.053.172.025.354.032.532v.308a7.003 7.003 0 0 0-.663.906h1.17a.769.769 0 0 0 .191-.49.286.286 0 0 0 .035.002c.103 0 .209-.054.244-.154.06-.15-.008-.314-.086-.443-.042-.067-.023-.151-.035-.226-.02-.343-.021-.688-.022-1.032.005-.12.016-.258-.062-.36-.04-.045-.114-.02-.15-.072-.074-.093-.105-.212-.14-.325-.06-.209-.057-.452.074-.634a2.01 2.01 0 0 0 .241-.372c.082-.164.144-.337.2-.512.01.34-.018.682-.107 1.01-.081.437-.047.885.008 1.323.031.208.071.428.202.598.045.054.118.1.19.1a.154.154 0 0 0 .082-.022c.13-.065.198-.213.194-.354.004-.202-.063-.395-.095-.592-.074-.35-.15-.699-.227-1.047.102-.582.17-1.184.056-1.769-.07-.353-.24-.707-.546-.912a3.783 3.783 0 0 0-.594-.31 3.356 3.356 0 0 0-1.499-.256 25.305 25.305 0 0 1-3.205-.119 3.62 3.62 0 0 1-1.001-.22c-.579-.219-1.084-.583-1.598-.92a1.865 1.865 0 0 0-.652-.259.828.828 0 0 1 .397-.097c.06 0 .122.006.187.017.08.015.163.022.248.022.168 0 .343-.029.525-.087.15-.047.29-.071.417-.071.103 0 .198.015.286.047.164.058.37.087.617.087.047 0 .096 0 .146-.003.312-.013.525-.176.638-.489.01-.085-.013-.127-.07-.127a.183.183 0 0 0-.05.008 2.007 2.007 0 0 0-.299.124.395.395 0 0 1-.17.034c-.145 0-.338-.051-.578-.153a1.414 1.414 0 0 0-.55-.125zM38.068 2.798v1.463q-.323-.482-1.937-.482h-1.195V2.8zm.019-.548q-.659.122-1.956.122h-1.603v1.834h1.603q.847 0 1.212.177.372.176.725.505l.019 8.196h.706V2.25zM32.855 14.288l-1.237 1.462h.604l.633-.756.64.756.622-.756.64.756.633-.756.64.756.634-.756.64.756.621-.756.64.756.64-.756.621.756.64-.756.634.756h.603l-1.237-1.462-.64.706-.621-.706-.64.706-.64-.706-.621.706-.64-.706-.634.706-.64-.706-.633.706-.64-.706-.622.706-.64-.706z"/><path d="M8.22.375c-9.625 0-9.625 17.25 0 17.25M8.22.375h33.483M8.22 17.625h33.483M49.39.375v17.25M41.703.375c9.625 0 9.625 17.25 0 17.25" fill="none" stroke="#000"/></svg>