<svg xmlns="http://www.w3.org/2000/svg" width="32.241" height="18"><path d="M1.108 0c-.226 0-.45.017-.67.044C.139.12.294.465.56.465A.32.32 0 0 0 .615.46c.564.065 1.26.101 1.686.421.565.617.311 1.898.377 2.506.005.033.007 2.458.007 3.686a4.134 4.134 0 0 0-2.572-.315c-.296.156.052.356.285.356a.306.306 0 0 0 .077-.01c.825.09 1.762.31 2.181 1.078.042.14.016.187-.047.187-.139 0-.457-.23-.637-.23l-.027.001a5.069 5.069 0 0 0-1.063-.113c-.262 0-.522.02-.772.064-.283.187.064.36.294.36.025 0 .05-.003.07-.007.843.101 1.774.33 2.182 1.098.005.854 0 1.42.023 2.205-.01.242.147.362.307.362.158 0 .318-.118.319-.354-.006-.774-.061-1.454.04-2.205.205-.842 1.667-.971 2.575-1.18.198-.232-.192-.319-.443-.319a.822.822 0 0 0-.101.006 4.59 4.59 0 0 0-.35-.014c-.594 0-1.192.118-1.721.39-.022-.508.478-.8.837-1.004.565-.243 1.188-.267 1.778-.397.21-.183-.121-.337-.35-.337a.39.39 0 0 0-.085.008 4.552 4.552 0 0 0-.436-.021c-.607 0-1.214.124-1.758.391.01-1.918.042-3.774-.013-5.588C3.234.924 2.91.409 2.367.24 1.977.063 1.54 0 1.108 0zm1.885 15.469c.71 0 1.6.365 2.03.795.376.376.425.875.439 1.339H.546c.013-.464.063-.963.439-1.34.43-.43 1.298-.794 2.008-.794zm0-.398c-.842 0-1.749.39-2.28.92-.545.546-.607 1.263-.607 1.8V18H5.88v-.21c0-.536-.04-1.253-.586-1.798-.53-.532-1.458-.92-2.3-.92zM17.575 2.082q.388 0 .757.422-3.042 3.62-3.802 4.046-.568.318-.999.318-.147 0-.278-.037-.516-.145-1.104-.163h-.03q-.576 0-1.265.688h-.09q.489-1.14 1.367-1.63.878-.488 5.15-3.584.149-.06.294-.06zM12.192.432q.045 0 .093.008v4.653q-1.43.833-1.974 2.335.833-5.757 1.168-6.409.301-.586.713-.586zm-3.73 7.29q-.056 0-.106.096-.09.172.163.48.144-.38.036-.516-.048-.06-.093-.06zm.026-.259q.106 0 .23.165.271.362-.163 1.448-.49-.941-.299-1.376.104-.237.232-.237zm4.738 1.794v.272q-.2-.018-.308-.127.036-.054.145-.145zm.416.616l1.684.235.344.616q-.58-.163-1.276-.435-.697-.271-.752-.416zm-3.711-.254l.326.163.108.779-.29.887h-.452l.308-.887v-.942zm.778.272l.308.09.109.58-.29.887h-.453l.308-.887.018-.67zm1.069.108l.108.562-.29.887h-.452l.308-.887v-.543l.326-.019zm-.693-2.252q.29 0 .62.07.978.209 1.231.987h.76l.29-.47q3.839.887 4.328 3.204-1.05-.579-2.21-.778l-.506-1.014-2.01-.272.054-.488h-.688q-.76.626-1.551.626-.17 0-.34-.029-.97-.163-1.268-.66-.299-.499.317-.906.407-.27.973-.27zM12.37 0q-.66 0-1.036.458-.462.561-.86 2.951L9.84 7.555q-.308.326-.47.362h-.218q-.018-.452-.344-.833-.29-2.77.254-4.852l-.218-.416q-.778 2.353-.38 5.287H8.41q-1.25-2.807-.362-5.287L7.83 1.49q-1.16 2.643.253 5.74-.398.868-.081 1.43.316.56.389 1.05l.127.09q.488-.724.56-1.249h.182q.018.416.235.87l.127 1.14-.308.887H7.74v.434h4.545v-.434h-.38l.289-.887.018-.67q.326-.109.489-.254.235.218.525.218-.018.18.072.307.725.562 2.59.978l.633 1.231q0-.302.188-.302.06 0 .138.03l-.507-.905q1.05.236 1.593.598.29.308-.036.742.724-.308.815-.869-.29-2.734-4.907-3.802l-.326.543h-.29q-.235-.76-1.864-1.05.364-.27.894-.27.289 0 .627.08.342.08.669.08.588 0 1.123-.261.833-.407 4.237-4.5-.627-.79-1.327-.79-.229 0-.466.085l-4.4 3.15V.023Q12.52 0 12.37 0zm.722 15.469c.71 0 1.599.365 2.029.795.376.376.426.875.44 1.339h-4.917c.014-.464.063-.963.44-1.34.43-.43 1.298-.794 2.008-.794zm0-.398c-.843 0-1.75.39-2.28.92-.545.546-.607 1.263-.607 1.8V18h5.774v-.21c0-.536-.041-1.253-.586-1.798-.531-.532-1.459-.92-2.301-.92zM22.834.996h.001c.857 0 1.829.055 3.387.055 1.56 0 2.53-.055 3.385-.055.09 0 .177 0 .264.002-.566.295-1.396.7-1.943.849a6.043 6.043 0 0 1-1.667.21 6.06 6.06 0 0 1-1.668-.21c-.547-.15-1.378-.555-1.945-.85h.186zm1.468 1.33h-.003c-.135.007-.689.495-.89.76-.131.17-.167.39-.038.492.037.029.08.042.125.042.112 0 .24-.08.333-.202.216-.283.572-1.023.491-1.087a.029.029 0 0 0-.018-.005zm3.875 0h-.001a.027.027 0 0 0-.017.005c-.08.064.276.804.49 1.087.094.122.222.202.334.202a.197.197 0 0 0 .125-.042c.13-.102.094-.321-.037-.493-.203-.266-.764-.759-.894-.759zm-3.242.157h-.003c-.117.012-.558.643-.695.956-.086.199-.069.42.08.488a.19.19 0 0 0 .08.017c.126 0 .256-.12.327-.284.143-.327.315-1.132.221-1.175a.023.023 0 0 0-.01-.002zm2.609 0h-.003l-.007.002c-.094.043.078.848.22 1.175.072.163.202.284.329.284a.19.19 0 0 0 .079-.017c.15-.068.166-.29.08-.488-.138-.316-.586-.955-.698-.955zm-1.837.118h-.001c-.109.008-.458.719-.547 1.056-.055.21-.004.425.154.468a.191.191 0 0 0 .05.007c.138 0 .262-.148.311-.335.091-.345.138-1.168.04-1.195h-.007zm1.065 0h-.002l-.004.001c-.099.027-.052.85.039 1.195.049.187.174.335.31.335a.191.191 0 0 0 .051-.007c.158-.043.209-.259.154-.468-.09-.34-.442-1.056-.548-1.056zm-.558.01c-.103.013-.265.81-.265 1.165 0 .217.104.412.268.412.161 0 .265-.195.265-.412 0-.357-.164-1.164-.266-1.164h-.002zm-.17-2.215h.175c1.16 0 2.177 0 2.972.016.796.016 1.382.05 1.627.101.212.045.465.159.656.317s.316.35.33.558c.067.947.04 1.899.006 2.857h-.038c.03-.462.045-.992.037-1.489-.008-.573-.04-1.083-.133-1.41-.11-.392-.425-.656-.787-.69A13.272 13.272 0 0 0 29.599.6c-.866 0-1.835.055-3.377.055C24.68.655 23.709.6 22.841.6c-.437 0-.848.014-1.292.056-.381.036-.678.345-.788.733-.091.325-.124.826-.132 1.389a19.42 19.42 0 0 0 .036 1.467h-.037c-.034-.958-.06-1.91.005-2.857.015-.21.14-.408.33-.568.191-.16.441-.272.648-.305.603-.097 2.216-.117 4.346-.119h.087zM25.974 0h-.12c-2.077.001-3.62.013-4.306.124-.289.046-.59.184-.84.393-.247.208-.446.497-.47.844-.072 1.036-.036 2.066 0 3.09l.007.19h.845l-.016-.213a19.077 19.077 0 0 1-.05-1.644c.01-.549.052-1.05.119-1.287.073-.261.261-.43.444-.447.094-.009.186-.016.278-.023.231.131 1.687.946 2.624 1.202.723.197 1.31.225 1.772.225.46 0 1.048-.028 1.771-.225.925-.252 2.355-1.05 2.615-1.196.067.005.135.01.204.017.202.02.372.148.444.404.067.237.11.75.118 1.308.009.56-.012 1.175-.05 1.666l-.015.213h.845l.007-.19c.036-1.024.072-2.054 0-3.09-.024-.347-.226-.632-.474-.837A1.959 1.959 0 0 0 30.9.125c-.324-.067-.898-.093-1.7-.109A168.42 168.42 0 0 0 26.22 0h-.245zm.242 13.843c.357.137.746.576.86.937.114.362.1.783.02 1.198-.08.409-.241.797-.435 1.051-.134.174-.255.275-.368.308h-.108c-.113-.027-.26-.127-.408-.308-.194-.254-.355-.642-.435-1.05-.08-.416-.094-.837.02-1.199.114-.361.54-.83.854-.933v-.004zm-.379-7.88v.804h-.723v.515h.723l-.1 6.079a2.023 2.023 0 0 0-.99 1.212 3.188 3.188 0 0 0-.061 1.546c.1.502.301.944.576 1.299.207.267.482.488.803.555v.02c.02.007.04.007.06.007.027 0 .054-.007.08-.007a.463.463 0 0 0 .094.007c.027 0 .047 0 .074-.007v-.02c.321-.067.596-.288.803-.555.275-.355.476-.797.576-1.3.1-.501.094-1.043-.06-1.545a1.987 1.987 0 0 0-.991-1.192l-.1-6.099h.682l.02-.515h-.763v-.803h-.703z"/></svg>