<svg xmlns="http://www.w3.org/2000/svg" width="39.214" height="18"><path d="M1.188 0C.946 0 .705.018.471.048.148.129.314.498.6.498c.019 0 .038 0 .058-.004.606.07 1.351.108 1.808.451.607.661.334 2.035.405 2.688.005.035.007 2.635.007 3.952a4.433 4.433 0 0 0-2.757-.338c-.318.167.055.381.305.381.03 0 .057-.003.082-.01.885.096 1.89.333 2.34 1.156.044.15.016.2-.051.2-.15 0-.49-.247-.683-.247l-.03.002a5.436 5.436 0 0 0-1.14-.121c-.28 0-.559.022-.828.069-.303.2.07.385.316.385a.384.384 0 0 0 .076-.007c.903.109 1.902.353 2.34 1.177.005.917 0 1.522.024 2.365-.01.26.158.388.329.388.17 0 .341-.127.342-.379-.006-.83-.065-1.56.043-2.364.22-.904 1.788-1.043 2.761-1.266.213-.25-.205-.342-.475-.342a.882.882 0 0 0-.108.006 4.922 4.922 0 0 0-.376-.015c-.637 0-1.278.127-1.845.419-.023-.545.513-.858.897-1.077.607-.261 1.274-.287 1.907-.427.226-.196-.13-.36-.376-.36a.418.418 0 0 0-.09.008 4.881 4.881 0 0 0-.467-.023c-.651 0-1.302.133-1.886.42.012-2.056.045-4.047-.014-5.993C3.468.991 3.121.438 2.538.26 2.119.068 1.653 0 1.188 0zM3.21 15.286c.761 0 1.715.39 2.176.852.403.404.456.939.47 1.436H.586c.015-.497.068-1.032.471-1.436.461-.461 1.392-.852 2.154-.852zm0-.427c-.904 0-1.876.418-2.446.987-.584.585-.65 1.354-.65 1.93V18h6.192v-.224c0-.576-.044-1.345-.629-1.93-.57-.57-1.564-.987-2.467-.987zM18.847 2.233q.416 0 .811.452-3.262 3.883-4.077 4.34-.608.34-1.07.34-.158 0-.299-.04-.553-.155-1.184-.174h-.032q-.618 0-1.356.737h-.097q.524-1.223 1.465-1.747.942-.524 5.524-3.844.159-.064.315-.064zM13.074.463q.049 0 .1.009v4.99q-1.534.893-2.117 2.504.893-6.174 1.252-6.873.324-.63.765-.63zm-4 7.817q-.06 0-.114.103-.097.185.175.515.155-.408.039-.553-.052-.065-.1-.065zm.028-.277q.114 0 .247.177.29.388-.175 1.553-.524-1.01-.32-1.476.11-.254.248-.254zm5.081 1.924v.291q-.214-.02-.33-.136.039-.058.155-.155zm.447.66l1.805.252.37.66q-.622-.174-1.37-.465-.747-.292-.805-.447zm-3.98-.272l.349.175.116.835-.31.951h-.486l.33-.951v-1.01zm.834.292l.33.097.117.62-.31.952h-.486l.33-.951.02-.718zm1.146.116l.116.602-.31.951h-.486l.33-.951v-.583l.35-.019zm-.743-2.415q.31 0 .665.075 1.049.224 1.32 1.059h.816l.31-.505q4.117.951 4.64 3.436-1.125-.621-2.368-.835l-.544-1.087-2.155-.291.059-.524h-.738q-.816.671-1.664.671-.182 0-.365-.03-1.039-.175-1.36-.71-.32-.533.34-.97.437-.29 1.044-.29zM13.266 0q-.708 0-1.112.491-.495.602-.922 3.165l-.68 4.446q-.33.35-.504.388h-.233q-.02-.485-.37-.893-.31-2.97.272-5.203l-.233-.447q-.834 2.524-.407 5.67h-.059q-1.34-3.01-.388-5.67l-.233-.35q-1.242 2.835.272 6.155-.427.932-.087 1.534.34.602.417 1.126l.136.097q.524-.776.602-1.34h.194q.02.447.252.933l.136 1.223-.33.951H8.3v.466h4.873v-.466h-.407l.31-.951.02-.718q.35-.117.524-.272.252.233.563.233-.02.194.078.33.776.602 2.776 1.048l.68 1.32q0-.324.2-.324.065 0 .15.033l-.544-.97q1.126.252 1.708.64.31.33-.039.796.777-.33.874-.932-.31-2.932-5.262-4.077l-.35.582h-.31q-.252-.815-2-1.126.39-.289.96-.289.309 0 .671.085.368.087.718.087.63 0 1.204-.28.894-.438 4.544-4.825-.673-.849-1.423-.849-.246 0-.5.091l-4.717 3.379V.025Q13.425 0 13.266 0zm.774 15.286c.76 0 1.714.39 2.175.852.404.404.457.939.471 1.436h-5.272c.015-.497.068-1.032.472-1.436.46-.461 1.392-.852 2.153-.852zm0-.427c-.904 0-1.876.418-2.446.987-.584.585-.65 1.354-.65 1.93V18h6.191v-.224c0-.576-.044-1.345-.628-1.93-.57-.57-1.564-.987-2.468-.987zM22.24 0v5.856h4.586v-.69H22.93V.69h11.496v4.478h-3.488v.689h4.177V0zm7.588 7.699l-.303.689q.648.13.923 1.302l1.047-.269v.655l-1.02.289q.008.964-.185 1.812-.2.847-.903 1.095-.351.12-.706.12t-.713-.12q-.716-.248-.91-1.095-.199-.848-.178-1.812l-1.02-.29v-.654l1.04.269q.276-1.171.93-1.302l-.317-.69zm-2.797-.482q-.248 0-.034.482l.186.42q-.551.351-.69.971l-1.17-.35v1.742l1.102.317q0 .992.282 1.984.29.992 1.964 1.213 1.674-.22 1.97-1.213.29-.992.29-1.984l1.102-.317V8.74l-1.185.351q-.138-.62-.69-.97l.187-.421q.22-.482-.035-.482zM37.833 0c-.723 0-1.357.532-1.357 1.214v12.782h.883V1.214c0-.334.294-.443.48-.443.193 0 .492.136.492.547v8.4h.883v-8.4C39.214.634 38.537 0 37.833 0zm-13.51 15.539L22.24 18h1.015l1.067-1.272L25.399 18l1.047-1.272L27.522 18l1.067-1.272L29.666 18l1.067-1.272L31.809 18l1.047-1.272L33.932 18l1.077-1.272L36.055 18l1.077-1.272L38.2 18h1.015l-2.082-2.461-1.077 1.19-1.046-1.19-1.077 1.19-1.076-1.19-1.047 1.19-1.076-1.19-1.067 1.19-1.077-1.19-1.067 1.19-1.076-1.19-1.047 1.19-1.076-1.19z"/></svg>