<svg xmlns="http://www.w3.org/2000/svg" width="54.874" height="18"><path d="M4.518.315q.037 0 .077.015.195.072-.607 2.19h.124q.78-2.036.914-2.066.03-.007.056-.007.098 0 .17.089.093.113-1.223 2.457l-.431.02q.596-2.2.699-2.477.081-.22.221-.22zM2.775 4.308q-.226.226-.472.288v-.041q.102-.247.472-.247zm.282-.24q-.639 0-1.001.364-.432.431-.535.74l.041.061q.412-.37.658-.41.473 0 1.09-.74-.132-.014-.253-.014zm1.61 6.428q.534.864 1.007 1.665-.206.432-.504 1.645-.298 1.213-.627 2.519-.329 1.305-1.213 1.305l.206-.185v-.103q-.39.103-.39.288H2.98q.123-.329.288-.37v-.082q-.35 0-.596.452H2.63q.083-.637.72-.637.535 0 .72-.33.185-.328.349-2.189.164-1.86.247-3.978zm8.593 1.11q.905.535 1.11.72-.822 5.304-2.056 5.304l.206-.185v-.103q-.39.103-.39.288h-.186q.124-.329.309-.37v-.082q-.35 0-.596.452h-.062q.082-.637.72-.637.554 0 .74-.33.184-.328.513-2.281.33-1.953-.308-2.776zM18.197.544l.018.002h.02q.288.082-.35 1.933l.165.02q.359-1.574.611-1.574l.016.001q.257.052-.606 1.923-1.316 4.564-1.943 5.304-.627.74-.689 1.788-.061 1.049.36 1.614.421.565.421.956.098 5.152-.849 5.152-.047 0-.096-.012l.205-.247V17.3q-.39.103-.39.35h-.165q.124-.37.288-.391v-.082q-.35 0-.596.473h-.041q.082-.617.514-.617.904-.33.627-2.519-.278-2.19-.607-2.343-.329-.154-1.531-.936-1.203-.78-1.737-1.583l-.576-.144q.534.761.74 1.008-.596 0-1.08.298-.482.298-1.397.442-.233.037-.465.037-.678 0-1.344-.315-.895-.421-.977-1.326l-.37-.082q.082.679.216 1.264.134.586.34.802.205.216.647 3.248.403 2.77-.419 2.77-.078 0-.167-.025l.185-.267v-.103q-.39.103-.39.37H6.62q.123-.37.288-.411v-.082q-.35 0-.576.493H6.27q.082-.637.514-.637 1.193-.041-.555-4.852-.617-1.028-1.686-2.796-.72-2.118-.699-2.96.02-.843-.318-.997-.34-.155-.658-.175h-.014q-.332 0-1.559.904l-.04-.04q.287-.432.965-.761l-.04-.124q-.803.206-1.317 1.13-.11.084-.2.084-.111 0-.19-.124.432-1.049 1.336-1.83.432-.288.432-.575.72-.432 2.076-.535L5.695.854q.065-.131.17-.131.027 0 .056.008.329.062.514.329.103.144-.041.267L4.83 3.424q-.144.206-.082.37.76 1.131 1.285 2.344.524 1.213.853 1.531.329.32 1.059.597.308.117.9.117.814 0 2.163-.22 1.053-.172 1.844-.172.962 0 1.538.254.403.178.732.178.526 0 .861-.455.545-.74 1.47-5.263-.04-2.006.194-2.006L17.66.7q.246.052-.042 1.737h.165q.14-1.893.414-1.893zM4.331 0q-.304 0-.404.217l-.761 2.796q-1.44.35-1.44 1.028Q.35 5.069 0 6.816h1.09q.185-.267.956-.72.595-.348.902-.348.09 0 .156.03.288.134.257.853-.03.72.38 1.892.412 1.171.432 1.398.041.801-.082 2.847-.123 2.045-.236 2.693-.113.648-.185.925-.072.278-.69.278-.76 0-.76 1.336h1.645q.802-.493.956-1.11.154-.617.421-1.521.268-.905.74-2.652 1.254 3.947.638 3.947-.823 0-.843 1.336l1.521-.02q1.049-.062.627-3.197-.421-3.135-.853-3.65 1.193.639 2.09.639.201 0 .387-.032 1.018-.175 1.49-.463.472-.287 1.25-.349.033.048.313.39.617.72.555 1.964-.061 1.244-.195 2.025-.134.781-.257 1.069-.123.288-.76.288-.761 0-.761 1.336h1.521q.637-.39.987-.997t1.192-4.39q.864 4.071.041 4.071-.822 0-.843 1.316h1.522q1.048-.062.986-6.044-.72-.966-.688-1.933.03-.966.617-1.706.585-.74 1.942-5.448.411-.863.658-1.706.144-.494-.473-.617.083-.411-.308-.493-.059-.01-.11-.01-.313 0-.383.318-.124-.024-.225-.024-.42 0-.454.415-.082.78-.123 1.912-.946 4.77-1.511 5.129-.264.168-.564.168-.342 0-.731-.22-.417-.234-1.348-.234-.698 0-1.685.132-1.256.168-2.102.168-.705 0-1.125-.117-.926-.257-1.501-1.645Q5.9 4.658 5.263 3.733q0-.165.75-1.131t.853-1.172q.33-.37-.328-.812-.41-.275-.685-.275-.166 0-.282.1.041-.185-.257-.298-.105-.04-.19-.04-.152 0-.231.133.02-.165-.411-.226Q4.4 0 4.33 0zm19.813 2.25v4.392h3.439v-.517H24.66V2.767h8.622v3.358h-2.615v.517h3.132V2.25zm5.69 5.774l-.227.517q.486.098.692.976l.786-.201v.49l-.765.218q.005.723-.14 1.359-.15.635-.677.821-.263.09-.53.09-.265 0-.534-.09-.537-.186-.682-.821-.15-.636-.134-1.36l-.765-.216v-.491l.78.201q.207-.878.698-.976l-.238-.517zm-2.098-.362q-.186 0-.025.362l.14.315q-.414.264-.518.729l-.878-.264v1.308l.827.237q0 .744.212 1.488.217.744 1.472.91 1.256-.166 1.478-.91.217-.744.217-1.488l.827-.237V8.804l-.89.264q-.102-.465-.516-.729l.14-.315q.165-.362-.026-.362zm8.101-5.412c-.542 0-1.017.399-1.017.91v9.587h.662V3.16c0-.251.22-.333.36-.333.145 0 .37.103.37.41v6.3h.662v-6.3c0-.512-.508-.988-1.037-.988zM25.705 13.904l-1.561 1.846h.761l.8-.954.808.954.784-.954.808.954.8-.954.808.954.8-.954.807.954.785-.954.807.954.808-.954.785.954.807-.954.8.954h.762l-1.562-1.846-.807.892-.785-.892-.808.892-.807-.892-.785.892-.808-.892-.8.892-.807-.892-.8.892-.808-.892-.784.892-.808-.892z"/><path d="M21.519.375v17.25m0-17.25h2.625m-2.625 17.25h2.625m0-17.25h12.73m-12.73 17.25h12.73m0-17.25h17.625m-17.625 17.25h17.625M38.636.375v17.25M42.161.375v17.25M43.924.375v17.25M45.686 2.1H54.5m-8.814 3.45H54.5M45.686 2.1v3.45m1.763-1.725h7.05m-8.813 3.45H54.5m-8.814 3.45H54.5m-8.814-3.45v3.45M47.449 9h7.05m-8.813 3.45H54.5m-8.814 3.45H54.5m-8.814-3.45v3.45m1.763-1.725h7.05" fill="none" stroke="#000"/></svg>