<svg xmlns="http://www.w3.org/2000/svg" width="36.487" height="18"><path d="M10.34 2.79c.502.038.934.152 1.294.342-.474.56-.906 1.323-1.294 2.29-.399-.967-.835-1.73-1.31-2.29.37-.18.807-.294 1.31-.341zm0 3.67c.294 2.741.45 4.963.469 5.778-.019 1.385-.175 2.305-.47 2.76-.303-.455-.46-1.375-.469-2.76.01-.825.166-3.046.47-5.777zm0-4.21c-.968 0-1.674.294-2.12.882.673.56 1.214 1.427 1.622 2.603 0 .531-.107 1.975-.32 3.445-.214 1.47-.264 3.1-.15 4.893.245 1.118.538 1.677.879 1.677.029 0 .059-.004.089-.012.03.008.06.012.089.012.34 0 .633-.559.878-1.677.104-1.792.05-3.423-.164-4.893-.213-1.47-.32-2.914-.32-3.445.418-1.176.963-2.044 1.636-2.603-.455-.588-1.162-.882-2.12-.882zM14.972 2.25c-.305 0-1.124 1.162-1 1.375.042.073.201.102.441.102.91 0 2.976-.414 4.184-.414 3.534 0 3.688 1.223 3.688 2.437 0 .707-.273 1.23-.273 1.967 0 1.068 1.045 3.284 1.21 3.284.167 0-.675-2.197-.675-3.205 0-.995.369-1.772.369-2.733 0-.69-.318-1-.506-1.5.292-.021.784.02.784-.069 0-.088-.867-.27-1.33-.352-1.078-.19-1.993-.364-3.068-.364-1.143 0-3.688.296-3.688.296.019-.282.025-.824-.136-.824zM18.289 12.02v3.73h.624v-3.73zM25.772 7.243a.85.85 0 0 1 .396.107c.277.15.546.437.807.86.261.424.577 1.181.95 2.273-.373-.499-.75-.864-1.134-1.098-.797-.488-1.956-1.134-1.477-1.892a.518.518 0 0 1 .458-.25zm-.073-.426a.838.838 0 0 0-.717.367c-.288.42-.293.829-.143 1.133.15.305.339.542.564.712.225.17.56.392 1.002.665.443.273.772.573.985.901.214.329.47.524.771.588.127-.412.095-.936-.095-1.572-.19-.637-.372-1.165-.622-1.537-.398-.591-.777-1.13-1.59-1.246a1.107 1.107 0 0 0-.155-.01z"/><path d="M8.22.375c-9.625 0-9.625 17.25 0 17.25M8.22.375h20.017M8.22 17.625h20.017M35.925.375v17.25M28.237.375c9.625 0 9.625 17.25 0 17.25" fill="none" stroke="#000"/></svg>