<svg xmlns="http://www.w3.org/2000/svg" width="71.721" height="18"><path d="M13.635 7.594l-.48 3.443q-.082.453-.439.453H11.29q-.357 0-.425-.453l-.48-3.443zM8.862 5.811q-.727.11-.63.81 1.028.89 1.083.973.466.658.672 2.346.11 1.55.576 2.25h2.743q.576-.7.727-2.25.206-1.688.672-2.346.124-.178.076-.425t-.336-.33h-4.101q-.59-.15-1.482-1.028zM19.42 2.901c.034 0 .07.008.112.022.156.046.216.143.18.29-.042.124-.115.187-.218.187a.363.363 0 0 1-.114-.021c-.157-.046-.208-.147-.152-.304.034-.116.098-.174.192-.174zm1.657 3.568c.58 0 1.237.264 1.97.792 1.267.912 2.269 1.628 3.005 2.148.737.52 1 .827.788.92h-.207c-1.368 0-2.466-.175-3.295-.526-.87-.368-1.502-.725-1.893-1.07-.391-.346-.474-.6-.249-.76.226-.162.339-.284.339-.367 0-.073-.07-.152-.207-.234-.452.082-.735.228-.85.435-.115.207-.03.481.255.822.286.34.873.773 1.762 1.298s2.558.843 5.008.954l1.547.166c-.008.303-.192.455-.551.455-.044 0-.09-.002-.14-.006-.45-.042-.96-.123-1.526-.242a8.1 8.1 0 0 0-1.886-.16l-.04.001c-.688 0-1.66-.35-2.916-1.05-1.28-.714-2.128-1.591-2.542-2.632-.074-.203.087-.378.483-.525.341-.28.723-.419 1.145-.419zm.278 3.804c.295.184.53.308.705.373l.11.94c-.451-.627-.723-1.064-.815-1.313zM19.84 2.25c-.08 0-.164.003-.253.01-.415.101-.76.479-1.036 1.133a24.221 24.221 0 0 0-1.741 1.685c-.457.517-.61.775-.46.775.103 0 .354-.125.75-.374a31.29 31.29 0 0 1 1.499-1.07.895.895 0 0 1 .49-.149c.141 0 .289.033.443.1-.535.958-.816 1.676-.843 2.155-.792.378-1.188.935-1.188 1.672.14.24.274.36.4.36.122 0 .237-.112.346-.333-.01-.598.165-.902.525-.911 0 .138.147.483.442 1.036.295.552.796 1.119 1.506 1.699l1.23 2.335c-.553 1.667-1.161 2.634-1.824 2.901l-.954-.124c-.46.083-.667.28-.621.594a.427.427 0 0 1 .262-.105c.04 0 .079.007.118.022.036.013.077.02.123.02a.99.99 0 0 0 .408-.117l.58.18 1.603-.263h.054c.193 0 .332.046.416.138a.344.344 0 0 0 .11-.248c-.092-.184-.372-.277-.842-.277.092-.488.318-1.04.677-1.657.359-.617.534-1.046.525-1.285-.184-.636-.256-1.016-.214-1.14.041-.124.09-.187.145-.187.147 0 .451.194.912.58.46.388.787.71.98.968.166.22.244.783.235 1.685-.008.843-.326 1.264-.952 1.264-.045 0-.091-.002-.14-.006-.211 0-.427-.028-.648-.083-.222 0-.332.17-.332.51l.442-.11c.515.078.91.117 1.183.117.147 0 .26-.011.337-.034.22-.064.414-.097.58-.097a.79.79 0 0 0 .26.049.552.552 0 0 0 .23-.049.298.298 0 0 1 .122-.029c.087 0 .16.051.217.154.092-.313-.198-.525-.87-.636-.111-.175-.122-.651-.035-1.43.088-.778.085-1.245-.007-1.402l-.414-.829a5.89 5.89 0 0 1 .186-.003c.54 0 1.166.07 1.88.21.796.157 1.383.29 1.76.401.142.041.28.062.412.062.22 0 .429-.057.625-.172.304-.682.35-1.115.138-1.3-.967-.1-1.854-.492-2.66-1.173-.806-.682-1.98-1.573-3.523-2.674-.892-.637-1.683-.955-2.37-.955-.5 0-.947.169-1.339.506.028-.663.368-1.469 1.022-2.417.295-.406.286-.848-.027-1.327-.11-.237-.404-.355-.88-.355zM35.658 2.933v1.823q-.403-.6-2.415-.6h-1.488V2.933zm.023-.683q-.82.152-2.438.152h-1.997v2.285h1.997q1.056 0 1.511.22.463.22.904.63l.023 10.213h.88V2.25zM44.678 2.7c.806 0 1.814.415 2.302.903.427.426.482.992.498 1.518h-5.576c.016-.526.071-1.092.498-1.518.488-.488 1.473-.902 2.278-.902zm0-.45c-.955 0-1.984.441-2.586 1.044-.618.618-.688 1.432-.688 2.04v.238h6.549v-.237c0-.61-.047-1.423-.665-2.04-.602-.604-1.654-1.045-2.61-1.045zM44.678 12.825q2.33 0 4.943 1.126-2.612 1.095-4.943 1.095-2.315 0-4.943-1.095 2.628-1.126 4.943-1.126zm0-.72q-2.878 0-6.617 1.83 3.739 1.815 6.617 1.815t6.617-1.815q-3.723-1.83-6.617-1.83zM54.762 2.726q-.279 0-.279.328 0 .278.28.278.294-.016.294-.311t-.295-.295zm-1.082.213v.295l-.64.115q.296-.312.64-.41zm.033.393q.377.295.131.443-.377-.131-.557-.344l.426-.099zm1.147-.754q.771 0 1.23.59.459.59.492 1.82 1.197.246 1.59 1.082.064.542-.244.542l-.018-.001q-.328-.016-.517-.18-.068-.06-.103-.06-.061 0-.02.183.066.287.722.696.655.41.106.68-.136.068-.29.068-.466 0-1.095-.616-.836-.82-.885-1.246-.05-.427.344-.787.234-.215.16-.215-.05 0-.242.1-.475.246-.5.721-.025.476.377 1.041.402.566 1.582 1.435.12.063.273.063.324 0 .793-.285.688-.418-.689-1.286.508-.132.525-.443.639.213 3.59 3.967.787.525.803.77-.016.23-.246.28-.049.01-.1.01-.186 0-.392-.142-.918.443-1.778.46h-.09q-.8 0-1.328-.28.54.476.377 1-.08.255-.12.255-.044 0-.044-.287 0-.558-1.426-1.066v.623q-.084.353-.134.353-.047 0-.063-.32-.099-.705-.467-1.517-.37-.811-1.173-2.245-.803-1.435-1.024-2.066-.221-.631-.205-1.172.016-.541-.221-.795-.238-.254-.14-.55.099-.295-.295-.557v-.278q.426-.345.885-.345zm3.115 9.443q.804.23.804.54l-.541 2.017q-.066.361-.443.361h-.656v-.033l.836-2.557v-.328zM54.92 2.25h-.06q-.639 0-1.295.525-.377.131-.77.607.54.491.983.606.05.23.312.64.016 1.081.295 1.795.279.713 1.869 3.827.787 1.64.787 2.017 0 .574-.722 2.574 0 .114-.983.18-1.476.05-1.476.41 0 .213.197.213h4.36q.41-.328.46-.558.393.164.426.443.055.221.157.221.02 0 .04-.008.131-.049.131-.213-.115-.443-.574-.852l.525-2.213q1.59-.05 2.77-.509.219.05.401.05.364 0 .583-.197.328-.295-.131-.918-1-1-1.902-2.197-1.852-2.279-2.54-2.64-.23-.475-.55-.753-.32-.28-1.156-.689-.016-.967-.45-1.672-.425-.689-1.687-.689z"/><path d="M8.22.375c-9.625 0-9.625 17.25 0 17.25M8.22.375h55.251M8.22 17.625h55.251M71.159.375v17.25M63.471.375c9.625 0 9.625 17.25 0 17.25" fill="none" stroke="#000"/></svg>