<svg xmlns="http://www.w3.org/2000/svg" width="52.955" height="18"><path d="M14.433 2.689c-.022 3.239-.048 6.477-.068 9.716.047.525.074 1.051.135 1.574.036.28.218.54.178.827-.059.193-.186.496-.4.496a.3.3 0 0 1-.156-.049c-.348-.134-.679-.355-1.061-.355-.022 0-.043.001-.065.003h-.056c-.728 0-1.443.16-2.165.23-.395.057-.788.147-1.188.147h-.051c.722-.164 1.436-.44 2.005-.926.774-.602 1.551-1.2 2.324-1.805.105-.129-.05-6.71-.102-9.835l.67-.023zm.393-.439c-.382.013-.952.007-1.333.03-.204.06-.168.288-.165.452l.158 9.566c-.846.646-1.684 1.302-2.534 1.942a4.332 4.332 0 0 1-1.58.604c-.25-.002-.5-.13-.747-.13a.573.573 0 0 0-.237.048c-.19.146-.257.547-.001.67.384.206.811.284 1.242.284.272 0 .545-.031.81-.081.613-.105 1.232-.166 1.848-.253.203-.017.413-.045.62-.045.225 0 .445.032.647.143.244.107.512.27.783.27.09 0 .181-.018.272-.063.284-.177.448-.507.517-.826.057-.416-.224-.784-.22-1.198-.032-.453-.083-.904-.103-1.357.023-3.273.149-10.056.023-10.056zM22.845 2.689c-.022 3.239-.048 6.477-.068 9.716.047.525.075 1.051.136 1.574.035.28.218.54.178.827-.06.193-.186.496-.4.496a.3.3 0 0 1-.157-.049c-.347-.134-.678-.355-1.06-.355-.022 0-.043.001-.065.003h-.057c-.728 0-1.443.16-2.165.23-.394.057-.788.147-1.188.147h-.05c.722-.164 1.435-.44 2.004-.926.775-.602 1.552-1.2 2.325-1.805.105-.129-.05-6.71-.103-9.835l.67-.023zm.394-.439c-.383.013-.952.007-1.333.03-.204.06-.169.288-.166.452l.158 9.566c-.845.646-1.683 1.302-2.533 1.942a4.332 4.332 0 0 1-1.581.604c-.249-.002-.5-.13-.747-.13a.573.573 0 0 0-.237.048c-.19.146-.256.547 0 .67.383.206.811.284 1.242.284.272 0 .545-.031.809-.081.613-.105 1.233-.166 1.849-.253.203-.017.413-.045.62-.045.224 0 .444.032.647.143.243.107.512.27.783.27.09 0 .181-.018.271-.063.284-.177.448-.507.517-.826.058-.416-.224-.784-.219-1.198-.032-.453-.084-.904-.104-1.357.023-3.273.15-10.056.024-10.056zM26.284 7.46q.193 0 .44.042 3.185.241 6.467.796l-.7 2.196q-2.968-.748-6.008-1.882-.989-.338-.868-.772.09-.38.67-.38zm.092-.647q-1.077 0-1.292.882-.241.94.99 1.423 3.208 1.183 6.369 2.003.188.066.313.066.198 0 .242-.162l.917-2.8q.096-.385-.362-.506-3.595-.579-6.9-.893-.145-.013-.277-.013zM36.987 3.093q1.51.22 1.58 1.382v8.382q-.707-.843-2.537-1.184l.957-8.58zm-.425-.843L35.43 12.272q2.521.289 3.136 1.8v1.678h.752V4.475q0-1.883-2.756-2.225zM42.374 3.093q1.511.22 1.58 1.382v8.382q-.707-.843-2.536-1.184l.956-8.58zm-.425-.843l-1.131 10.022q2.52.289 3.136 1.8v1.678h.751V4.475q0-1.883-2.756-2.225z"/><path d="M8.22.375c-9.625 0-9.625 17.25 0 17.25M8.22.375h36.485M8.22 17.625h36.485M52.393.375v17.25M44.705.375c9.625 0 9.625 17.25 0 17.25" fill="none" stroke="#000"/></svg>