<svg xmlns="http://www.w3.org/2000/svg" width="42.693" height="18"><path d="M8.343 3.435q.82.851 1.193 1.937.372 1.087-.334 1.277-.102.027-.194.027-.544 0-.726-.962-.212-1.124.061-2.279zm11.798-.326q.103 0 .167.076.235.28-.699 1.496-.934 1.216-1.998 2.4-1.063 1.186-2.173 1.414-1.109.227-4.68.623l-1.382.364q-.364-.562-.273-1.124.442-.195.759-.195.498 0 .684.484 3.627-1.037 5.25-1.037.09 0 .174.003 2.553-3.19 3.328-3.95.565-.554.843-.554zm.22-.859h-.015q-.669.015-1.512.859-.843.843-3.107 3.836-1.291.137-4.953 1.109-.327-.585-.812-.585-.056 0-.115.008l-.076-.32q1.125-1.078.137-2.727-.936-1.562-1.626-1.562-.038 0-.076.005-.668.289-.706 2.21-.038 1.923 1.527 2.287l.091.335q-.516.136-.615.683-.099.547.129 1.147.182.48.77.48.149 0 .324-.031l.152.562.744-.213-.167-.638.41-.107q3.54-.273 5.774-.774 4.36-3.92 4.368-5.25.007-1.314-.646-1.314zm-6.108 10.514q2.38 0 5.045 1.15-2.666 1.118-5.045 1.118-2.362 0-5.045-1.118 2.683-1.15 5.045-1.15zm0-.734q-2.937 0-6.753 1.868 3.816 1.852 6.753 1.852 2.938 0 6.754-1.852-3.8-1.868-6.754-1.868zm9.81-8.937q1.511.22 1.58 1.382v8.382q-.707-.843-2.536-1.184l.956-8.58zm-.425-.843l-1.131 10.022q2.52.289 3.136 1.8v1.678h.751V4.475q0-1.883-2.756-2.225zm7.531.45c.805 0 1.814.415 2.301.903.427.426.483.992.499 1.518h-5.576c.015-.526.071-1.092.498-1.518.488-.488 1.472-.902 2.278-.902zm0-.45c-.956 0-1.984.441-2.587 1.044-.618.618-.688 1.432-.688 2.04v.238h6.55v-.237c0-.61-.047-1.423-.665-2.04-.603-.604-1.655-1.045-2.61-1.045zm0 10.629c.805 0 1.814.414 2.301.902.427.426.483.992.499 1.518h-5.576c.015-.526.071-1.092.498-1.518.488-.488 1.472-.902 2.278-.902zm0-.451c-.956 0-1.984.441-2.587 1.044-.618.618-.688 1.432-.688 2.04v.238h6.55v-.237c0-.61-.047-1.423-.665-2.04-.603-.604-1.655-1.045-2.61-1.045z"/><path d="M7.5.375c-9.625 0-9.625 17.25 0 17.25m0-17.25h26.943M7.5 17.625h26.943M42.13.375v17.25M34.443.375c9.625 0 9.625 17.25 0 17.25" fill="none" stroke="#000"/></svg>