<svg xmlns="http://www.w3.org/2000/svg" width="106.454" height="18"><path d="M1.647 0c-.335 0-.67.026-.995.066C.205.18.435.692.832.692A.476.476 0 0 0 .914.684c.84.097 1.872.15 2.506.626.841.916.463 2.821.561 3.725.007.05.01 3.653.01 5.48a6.145 6.145 0 0 0-2.635-.586 6.04 6.04 0 0 0-1.187.117c-.441.231.076.528.422.528.041 0 .08-.004.115-.013 1.226.133 2.62.461 3.243 1.602.061.206.023.277-.071.277-.206 0-.68-.342-.946-.342-.014 0-.028 0-.04.003a7.535 7.535 0 0 0-1.58-.169c-.39 0-.777.031-1.15.095-.42.278.097.534.439.534a.532.532 0 0 0 .105-.01c1.251.151 2.636.49 3.243 1.633.007 1.27 0 2.11.033 3.278-.014.36.22.538.456.538.235 0 .473-.176.475-.526-.009-1.15-.091-2.161.06-3.277.304-1.253 2.477-1.445 3.827-1.754.294-.347-.285-.475-.659-.475-.055 0-.107.003-.15.008a6.823 6.823 0 0 0-.521-.02c-.882 0-1.771.175-2.557.58-.032-.755.711-1.19 1.244-1.493.84-.361 1.765-.397 2.643-.59.313-.273-.18-.501-.521-.501a.58.58 0 0 0-.125.012 6.767 6.767 0 0 0-.648-.031c-.903 0-1.805.183-2.614.582.016-2.851.062-5.61-.02-8.308-.065-.834-.546-1.6-1.354-1.849C2.938.094 2.291 0 1.647 0z"/><path d="M0 0v.354L.177.177.354 0zm2.646 0L0 2.646v.708L3.177.177 3.354 0zm3 0L0 5.646v.708L6.177.177 6.354 0zm3 0L0 8.646v.708L8.899.455V0zM8.9 2.748L0 11.646v.708l8.899-8.899v-.707zm0 3L0 14.646v.708l8.899-8.899v-.707zm0 3L0 17.646V18h.354l8.545-8.545v-.707zm0 3l-6.076 6.075-.177.177h.708L8.9 12.455v-.707zm0 3l-3.076 3.075-.177.177h.708L8.9 15.455v-.707zM8.899 0v.455l.278-.278L9.354 0zm2.034.713L8.9 2.748v.707l2.034-2.035V.713zm0 3L8.9 5.748v.707l2.034-2.035v-.707zm0 3L8.9 8.748v.707l2.034-2.035v-.707zm0 3L8.9 11.748v.707l2.034-2.035v-.707zm0 3L8.9 14.748v.707l2.034-2.035v-.707zm0 3L8.9 17.748V18h.455l1.58-1.58v-.707z"/><path d="M25.642 2.99q.557 0 1.086.606-4.368 5.2-5.46 5.81-.814.457-1.434.457-.21 0-.399-.053-.74-.208-1.586-.234h-.042q-.828 0-1.817.988h-.13q.702-1.638 1.963-2.34 1.261-.702 7.397-5.148.213-.085.422-.085zM17.91.622q.066 0 .133.01v6.683Q15.99 8.51 15.21 10.668q1.196-8.268 1.677-9.204Q17.32.62 17.911.62zM12.555 11.09q-.08 0-.153.138-.13.247.234.689.208-.546.052-.741-.069-.086-.133-.086zm.037-.372q.153 0 .33.237.39.52-.234 2.08-.702-1.352-.429-1.976.149-.34.333-.34zm6.804 2.577v.39q-.286-.026-.442-.182.052-.078.208-.208zm.598.884l2.418.338.494.884q-.832-.234-1.833-.624-1-.39-1.079-.598zm-5.33-.364l.468.234.156 1.118-.416 1.274h-.65l.442-1.274v-1.352zm1.118.39l.442.13.156.832-.416 1.274h-.65l.442-1.274.026-.962zm1.534.156l.156.806-.416 1.274h-.65l.442-1.274v-.78l.468-.026zm-.994-3.234q.415 0 .89.1 1.404.3 1.768 1.418h1.092l.416-.676Q26 13.242 26.702 16.57q-1.508-.832-3.172-1.118l-.728-1.456-2.886-.39.078-.702h-.988q-1.092.9-2.228.9-.243 0-.489-.042-1.391-.234-1.82-.95-.429-.714.455-1.3.585-.386 1.398-.386zM18.167 0q-.947 0-1.488.658-.663.806-1.235 4.238l-.91 5.954q-.442.468-.676.52h-.312q-.026-.65-.494-1.196-.416-3.978.364-6.968l-.312-.598q-1.118 3.38-.546 7.592h-.078q-1.794-4.03-.52-7.592l-.312-.468q-1.664 3.796.364 8.242-.572 1.248-.117 2.054.455.806.559 1.508l.182.13q.702-1.04.806-1.794h.26q.026.598.338 1.248l.182 1.638-.442 1.274h-2.262v.624h6.526v-.624h-.546l.416-1.274.026-.962q.468-.156.702-.364.338.312.754.312-.026.26.104.442 1.04.806 3.718 1.404l.91 1.768q0-.434.27-.434.085 0 .198.044l-.728-1.3q1.508.338 2.288.858.416.442-.052 1.066 1.04-.442 1.17-1.248-.416-3.926-7.046-5.46l-.468.78h-.416q-.338-1.092-2.678-1.508.522-.388 1.285-.388.414 0 .9.115.491.116.96.116.844 0 1.613-.376 1.196-.585 6.084-6.461-.9-1.136-1.905-1.136-.329 0-.669.122L18.616 7.08V.034Q18.381 0 18.167 0z"/><path d="M37.008.375c-9.625 0-9.625 17.25 0 17.25m0 0" fill="none" stroke="#000"/><path d="M41.517.696q.927 0 .927 1.222 0 1.075-.927 2.129-.928-1.054-.928-2.129 0-1.222.928-1.222zm0 4.7q.653 0 .653 1.412 0 .8-.653 1.475-.654-.674-.654-1.475 0-1.412.654-1.412zm0 4.257q.653 0 .653 1.413 0 .8-.653 1.475-.654-.674-.654-1.475 0-1.413.654-1.413zm0-9.653Q39.83 0 39.83 1.918q-.02 1.201.559 1.886.58.685.516.917-.737.864-.737 2.087 0 1.012.864 2.17-.864.865-.864 2.088 0 1.011.864 2.15.105.273-.59 1.285-.696 1.012-1.434 3.499h.928q.463-1.644.822-2.35.358-.706.759-1.149.421.443.769 1.149.348.706.811 2.35h.949q-.696-2.487-1.423-3.499-.727-1.012-.6-1.286.842-1.138.842-2.15 0-1.222-.8-2.086.8-1.16.8-2.171 0-1.223-.716-2.087-.063-.232.506-.917t.569-1.886Q43.224 0 41.517 0zm5.113 8.86q-.29 0-.486.374-.244.481.115.742.595.098 2.218 1.583 1.615 1.484 2.48 2.772.872 1.289 2.258 2.463 1.386 1.166 1.753 1.183.127.023.235.023.46 0 .573-.423.138-.53-.457-.815-.79-.367-1.843-1.46-1.052-1.101-1.94-2.292-.898-1.19-2.415-2.577-1.517-1.386-2.316-1.541-.091-.031-.175-.031zm18.441-7.078q-.065 0-.115.018-.152.02-.203.091-.05.071-.111.112l.02.04.101-.02q.095.07.209.07.168 0 .379-.151l.172-.02-.02-.122-.152.04q-.163-.058-.28-.058zM66.38.318q.648 0 .845.581.222.628-.102 1.073-.324.456-.637.476-.173-.07-.132-.192.192-.101.111-.375.142-.314.061-.506-.048-.25-.27-.25-.056 0-.125.017-.152.071-.192.172-.444-.154-.792-.154-.271 0-.484.093.101-.425.496-.647.385-.233 1.114-.284.055-.004.107-.004zm-.174.994q.133 0 .178.144.061.192-.09.466.04.192-.082.202h-.017q-.104 0-.104-.121-.071.111.02.384.081.284.294.405.202.112.526.405.324.294.78.334.178.017.353.017.262 0 .517-.037.274.76.577 1.458.304.699.385 1.934l-1.235.9q-1.296-2.054-1.995-2.51-.708-.486-1.022-.76.04-.394.8-.556.415-.112.131-.344-.283-.243-.303-.456-.065-.032-.145-.032-.119 0-.27.073-.339.146-.473.146-.042 0-.064-.015-.091-.07-.132-.233l.183-.1q.06-.092 0-.153l-.314.02q.04-.253-.122-.273-.049.012-.086.012-.092 0-.106-.073-.02-.121.101-.394.091-.274.253-.395.126-.082.28-.082.056 0 .115.01.142.028.284.028.07 0 .141-.007l.02-.101q-.064.007-.131.007-.135 0-.284-.027-.102-.022-.192-.022-.246 0-.395.163 0-.121.02-.222.22-.103.495-.103.346 0 .781.163l-.02.142q.04.01.08.01.041 0 .082-.01.02-.354.152-.395l.034-.002zm3.61 5.986q.73.445.648 4.464h-3.098q.517-1.569 1.003-3.472l1.447-.992zM66.32 0q-.635 0-1.201.27-.709.294-.79 1.337.02.273-.091.557-.121.283-.101.556.032.13.155.13.031 0 .067-.008.053-.012.084-.012.078 0 .028.073-.06.06-.03.121.021.036.048.036.01 0 .022-.005-.08.121.051.131.121.01.101.122-.02.121.081.253.054.068.188.068.144 0 .38-.078l.414-.162q.071.1.213.273l-.122.04q-1.407.335-1.781 1.023-.588.688-1.175 1.55-.79.171-2.237.374-.274-.04-.527-.274.02-.476-.688-.749l-.86-1.69q-.122-.274-.224-.628-.086-.325.19-.325h.033v-.516h-.121q-.82 0-.567 1.043l.88 1.903q-.253.335-.212.628.02.294.213.567.202.274.92.547l.517.962.365-.213-.385-.688q1.651.142 2.013.142h.042q.294-.01.921-.203.962-.901 1.722-1.802.087-.218.377-.218.047 0 .098.005 2.37 1.893 2.582 3.27-1.195 3.351-1.265 3.858.172.313.172.688 0 .526-.547 2.177-.314 1.377-.962 1.761-.648.375-1.225.395-.577.02-.83.567-.02.06.486.122h.08q.254 0 .71-.04.445-.041.698-.183.1-.06.203-.06.158 0 .324.14.105.009.21.009.158 0 .316-.018.263-.03.101-.932 2.025-3.23 1.59-4.464h1.842q-.04.394.203.84.385 1.488.506 2.571.152 1.114-.466 1.357-.617.233-1.042.263-.334.04-.547.476.405.06 1.195.06.293 0 .678-.12.182-.057.334-.057.178 0 .314.077.043.004.083.004.78 0 .25-1.513.122-2.723-.293-4.02-.02-.586-.121-2.753-.091-2.167-.992-2.895-.081-1.266-.527-2.137-.128-.266-.079-.266.044 0 .231.216.527.921 1.195 1.741.04.668.273 1.235.223.76.273 1.61-.07.587.183 1.134l.02-.02q.111-.02.142-.203.03-.172.546-.526.132-.426-.314-.901-.141-.355-.08-1.195.06-.84-.476-1.66Q70 3.075 68.964 3.075q-.065 0-.13.01-.6.095-.965.095-.301 0-.443-.064-.314-.152-.547-.465.395-.274.638-.71.243-.434 0-1.163-.243-.72-.992-.77-.104-.007-.206-.007zm8.326 0l-.442.442v.707l.973-.972.177-.177zm3 0l-3.442 3.442v.707L78.177.177 78.354 0zm3 0l-6.442 6.442v.707L81.177.177 81.354 0zm3 0l-9.442 9.442v.707L84.177.177 84.354 0zm3 0L74.204 12.442v.707L87.177.177 87.354 0zm3 0L74.204 15.442v.707L90.177.177 90.354 0zm3 0L74.823 17.823l-.177.177h.708L93.177.177 93.354 0zm3 0L77.823 17.823l-.177.177h.708L96.177.177l.027-.028V0zm.558 2.442l-15.38 15.381-.178.177h.708l14.85-14.85v-.708zm0 3l-12.38 12.381-.178.177h.708l11.85-11.85v-.708zm0 3l-9.38 9.381-.178.177h.708l8.85-8.85v-.708zm0 3l-6.38 6.381-.178.177h.708l5.85-5.85v-.708zm0 3l-3.38 3.381-.178.177h.708l2.85-2.85v-.708zm0 3l-.38.381-.178.177h.558v-.558z"/><path d="M105.892.375v17.25M98.204.375c9.625 0 9.625 17.25 0 17.25" fill="none" stroke="#000"/></svg>