<svg xmlns="http://www.w3.org/2000/svg" width="44.476" height="18"><path d="M8.343 3.435q.82.851 1.193 1.937.372 1.087-.334 1.277-.102.027-.194.027-.544 0-.726-.962-.212-1.124.061-2.279zm11.798-.326q.103 0 .167.076.235.28-.699 1.496-.934 1.216-1.998 2.4-1.063 1.186-2.173 1.414-1.109.227-4.68.623l-1.382.364q-.364-.562-.273-1.124.442-.195.759-.195.498 0 .684.484 3.627-1.037 5.25-1.037.09 0 .174.003 2.553-3.19 3.328-3.95.565-.554.843-.554zm.22-.859h-.015q-.669.015-1.512.859-.843.843-3.107 3.836-1.291.137-4.953 1.109-.327-.585-.812-.585-.056 0-.115.008l-.076-.32q1.125-1.078.137-2.727-.936-1.562-1.626-1.562-.038 0-.076.005-.668.289-.706 2.21-.038 1.923 1.527 2.287l.091.335q-.516.136-.615.683-.099.547.129 1.147.182.48.77.48.149 0 .324-.031l.152.562.744-.213-.167-.638.41-.107q3.54-.273 5.774-.774 4.36-3.92 4.368-5.25.007-1.314-.646-1.314zm-6.108 10.514q2.38 0 5.045 1.15-2.666 1.118-5.045 1.118-2.362 0-5.045-1.118 2.683-1.15 5.045-1.15zm0-.734q-2.937 0-6.753 1.868 3.816 1.852 6.753 1.852 2.938 0 6.754-1.852-3.8-1.868-6.754-1.868zm15.199-9.087c.223 0 .356.038.426.077.202.13.105.437.073.63h-.998c-.024-.197-.133-.497.074-.63.069-.04.203-.077.425-.077zM23.91 4.107V4.8h-.946v-.693zm4.917 0V4.8h-4.69v-.693zm1.14 0V4.8h-.912v-.693zm4.578 0V4.8h-4.35v-.693zm1.224 0V4.8h-.996v-.693zM27.45 2.25l-.322.323 1.08 1.077h-5.7v1.607h13.719V3.65h-5.528l1.08-1.077-.323-.323-.998.995c-.06-.603-.473-.741-1.005-.759-.568.016-.916.144-1.005.76l-.998-.996zm-1.94 9.348h.002c.975 0 2.083.063 3.858.063 1.776 0 2.882-.063 3.856-.063.101 0 .201 0 .3.002-.645.336-1.59.797-2.213.967a6.884 6.884 0 0 1-1.9.24 6.92 6.92 0 0 1-1.898-.24c-.624-.17-1.571-.633-2.217-.968l.212-.001zm1.672 1.515h-.003c-.154.008-.785.563-1.015.865-.148.195-.189.445-.042.56a.22.22 0 0 0 .143.049c.127 0 .273-.092.38-.23.244-.322.65-1.165.558-1.238a.033.033 0 0 0-.02-.006zm4.415 0h-.002a.031.031 0 0 0-.019.006c-.092.073.314.916.56 1.237.105.14.251.231.379.231.052 0 .1-.015.142-.048.147-.116.107-.366-.042-.561-.231-.304-.87-.865-1.018-.865zm-3.693.18h-.003c-.134.012-.636.73-.792 1.088-.099.226-.08.478.091.555.03.014.06.02.09.02.144 0 .293-.138.374-.324.162-.372.358-1.29.251-1.338a.026.026 0 0 0-.011-.002zm2.971 0h-.002a.025.025 0 0 0-.009.001c-.106.049.09.966.252 1.338.081.186.23.324.373.324.03 0 .061-.006.09-.02.17-.077.19-.329.092-.555-.158-.36-.668-1.089-.796-1.089zm-2.092.133h-.001c-.124.01-.522.819-.623 1.202-.063.24-.005.485.175.535.02.005.039.007.058.007.156 0 .298-.169.354-.381.103-.393.157-1.33.044-1.362a.026.026 0 0 0-.007 0zm1.213 0h-.002l-.004.001c-.113.031-.06.969.044 1.362.056.212.198.381.353.381a.218.218 0 0 0 .058-.007c.18-.05.238-.296.175-.535-.102-.386-.503-1.202-.624-1.202zm-.635.012h-.001c-.117.014-.301.923-.301 1.327 0 .247.118.47.305.47.184 0 .302-.223.302-.47 0-.407-.187-1.327-.303-1.327h-.002zm-.195-2.524h.2c1.321 0 2.48.001 3.386.019.907.017 1.574.056 1.853.115.241.05.53.18.747.36.218.18.36.399.377.637.075 1.077.044 2.162.007 3.254h-.044c.033-.527.05-1.13.042-1.696-.01-.653-.046-1.235-.151-1.606-.126-.447-.485-.748-.897-.787a15.119 15.119 0 0 0-1.47-.064c-.986 0-2.09.063-3.846.063-1.757 0-2.863-.063-3.852-.063-.497 0-.965.016-1.471.064-.435.042-.773.394-.898.835-.104.37-.141.942-.151 1.582-.008.555.01 1.148.042 1.672h-.043c-.038-1.092-.069-2.177.006-3.254.017-.24.16-.466.377-.648s.502-.31.737-.347c.687-.11 2.524-.134 4.95-.136h.1zm-.079-.45h-.137c-2.366 0-4.123.014-4.904.14a2.02 2.02 0 0 0-.957.448c-.282.238-.508.567-.536.961-.082 1.181-.041 2.354 0 3.52l.008.217h.963l-.018-.243a21.731 21.731 0 0 1-.057-1.873c.01-.624.058-1.195.135-1.466.084-.297.298-.489.505-.509.107-.01.213-.019.317-.026.264.15 1.923 1.078 2.99 1.369a7.377 7.377 0 0 0 2.018.257c.525 0 1.194-.032 2.018-.257 1.053-.287 2.683-1.195 2.978-1.363l.233.02c.23.022.423.169.506.46.076.27.125.854.134 1.49.01.638-.014 1.34-.056 1.898l-.019.243h.964l.008-.218c.04-1.165.082-2.338 0-3.519-.028-.395-.258-.72-.54-.953a2.232 2.232 0 0 0-.943-.454c-.369-.077-1.023-.107-1.936-.125-.914-.017-2.074-.018-3.395-.018h-.279z"/><path d="M7.5.375c-9.625 0-9.625 17.25 0 17.25m0-17.25h28.726M7.5 17.625h28.726M43.913.375v17.25M36.226.375c9.625 0 9.625 17.25 0 17.25" fill="none" stroke="#000"/></svg>