<svg xmlns="http://www.w3.org/2000/svg" width="105.619" height="18"><path d="M1.647 0c-.335 0-.67.026-.995.066C.205.18.435.692.832.692A.476.476 0 0 0 .914.684c.84.097 1.872.15 2.506.626.841.916.463 2.821.561 3.725.007.05.01 3.653.01 5.48a6.145 6.145 0 0 0-2.635-.586 6.04 6.04 0 0 0-1.187.117c-.441.231.076.528.422.528.041 0 .08-.004.115-.013 1.226.133 2.62.461 3.243 1.602.061.206.023.277-.071.277-.206 0-.68-.342-.946-.342-.014 0-.028 0-.04.003a7.535 7.535 0 0 0-1.58-.169c-.39 0-.777.031-1.15.095-.42.278.097.534.439.534a.532.532 0 0 0 .105-.01c1.251.151 2.636.49 3.243 1.633.007 1.27 0 2.11.033 3.278-.014.36.22.538.456.538.235 0 .473-.176.475-.526-.009-1.15-.091-2.161.06-3.277.304-1.253 2.477-1.445 3.827-1.754.294-.347-.285-.475-.659-.475-.055 0-.107.003-.15.008a6.823 6.823 0 0 0-.521-.02c-.882 0-1.771.175-2.557.58-.032-.755.711-1.19 1.244-1.493.84-.361 1.765-.397 2.643-.59.313-.273-.18-.501-.521-.501a.58.58 0 0 0-.125.012 6.767 6.767 0 0 0-.648-.031c-.903 0-1.805.183-2.614.582.016-2.851.062-5.61-.02-8.308-.065-.834-.546-1.6-1.354-1.849C2.938.094 2.291 0 1.647 0zm23.995 2.99q.557 0 1.086.606-4.368 5.2-5.46 5.81-.814.457-1.434.457-.21 0-.399-.053-.74-.208-1.586-.234h-.042q-.828 0-1.817.988h-.13q.702-1.638 1.963-2.34 1.261-.702 7.397-5.148.213-.085.422-.085zM17.91.622q.066 0 .133.01v6.683Q15.99 8.51 15.21 10.668q1.196-8.268 1.677-9.204Q17.32.62 17.911.62zM12.555 11.09q-.08 0-.153.138-.13.247.234.689.208-.546.052-.741-.069-.086-.133-.086zm.037-.372q.153 0 .33.237.39.52-.234 2.08-.702-1.352-.429-1.976.149-.34.333-.34zm6.804 2.577v.39q-.286-.026-.442-.182.052-.078.208-.208zm.598.884l2.418.338.494.884q-.832-.234-1.833-.624-1-.39-1.079-.598zm-5.33-.364l.468.234.156 1.118-.416 1.274h-.65l.442-1.274v-1.352zm1.118.39l.442.13.156.832-.416 1.274h-.65l.442-1.274.026-.962zm1.534.156l.156.806-.416 1.274h-.65l.442-1.274v-.78l.468-.026zm-.994-3.234q.415 0 .89.1 1.404.3 1.768 1.418h1.092l.416-.676Q26 13.242 26.702 16.57q-1.508-.832-3.172-1.118l-.728-1.456-2.886-.39.078-.702h-.988q-1.092.9-2.228.9-.243 0-.489-.042-1.391-.234-1.82-.95-.429-.714.455-1.3.585-.386 1.398-.386zM18.167 0q-.947 0-1.488.658-.663.806-1.235 4.238l-.91 5.954q-.442.468-.676.52h-.312q-.026-.65-.494-1.196-.416-3.978.364-6.968l-.312-.598q-1.118 3.38-.546 7.592h-.078q-1.794-4.03-.52-7.592l-.312-.468q-1.664 3.796.364 8.242-.572 1.248-.117 2.054.455.806.559 1.508l.182.13q.702-1.04.806-1.794h.26q.026.598.338 1.248l.182 1.638-.442 1.274h-2.262v.624h6.526v-.624h-.546l.416-1.274.026-.962q.468-.156.702-.364.338.312.754.312-.026.26.104.442 1.04.806 3.718 1.404l.91 1.768q0-.434.27-.434.085 0 .198.044l-.728-1.3q1.508.338 2.288.858.416.442-.052 1.066 1.04-.442 1.17-1.248-.416-3.926-7.046-5.46l-.468.78h-.416q-.338-1.092-2.678-1.508.522-.388 1.285-.388.414 0 .9.115.491.116.96.116.844 0 1.613-.376 1.196-.585 6.084-6.461-.9-1.136-1.905-1.136-.329 0-.669.122L18.616 7.08V.034Q18.381 0 18.167 0z" fill="red"/><path d="M37.008.375c-9.625 0-9.625 17.25 0 17.25m0 0" fill="none" stroke="#000"/><path d="M40.133 1.58q1.094 1.135 1.59 2.583.496 1.449-.446 1.702-.136.036-.258.036-.725 0-.967-1.282-.284-1.5.08-3.039zm15.73-.435q.138 0 .223.101.314.375-.932 1.995-1.246 1.621-2.664 3.201-1.418 1.58-2.897 1.884-1.479.304-6.24.83l-1.843.487q-.486-.75-.364-1.5.59-.259 1.011-.259.665 0 .913.645 4.836-1.382 7-1.382.12 0 .232.004 3.403-4.254 4.436-5.267.755-.74 1.125-.74zM56.156 0h-.02q-.891.02-2.015 1.145-1.125 1.124-4.143 5.115-1.722.182-6.604 1.479-.436-.78-1.083-.78-.075 0-.153.01l-.101-.426q1.499-1.438.182-3.636Q40.971.824 40.051.824q-.05 0-.1.007-.892.385-.943 2.947-.05 2.563 2.036 3.05l.122.445q-.689.182-.82.911-.132.73.172 1.53.242.638 1.026.638.199 0 .432-.04l.203.749.992-.284-.223-.85.547-.142q4.72-.365 7.698-1.033 5.814-5.227 5.824-7Q57.027 0 56.157 0zm-8.143 14.02q3.172 0 6.727 1.532-3.555 1.49-6.727 1.49-3.15 0-6.727-1.49 3.576-1.533 6.727-1.533zm0-.98q-3.917 0-9.005 2.49Q44.096 18 48.013 18q3.917 0 9.004-2.47-5.066-2.49-9.004-2.49zm13.08-11.916q2.014.293 2.105 1.842v11.177q-.941-1.124-3.38-1.58l1.275-11.44zM60.526 0l-1.509 13.363q3.361.385 4.181 2.4V18h1.003V2.966Q64.2.456 60.526 0zM71.7 14.172c1.075 0 2.42.552 3.07 1.202.569.57.643 1.324.664 2.025h-7.435c.021-.701.095-1.456.664-2.025.651-.65 1.964-1.202 3.038-1.202zm0-.601c-1.273 0-2.644.588-3.448 1.392-.824.824-.917 1.909-.917 2.72V18h8.732v-.316c0-.812-.062-1.897-.886-2.721-.804-.804-2.206-1.392-3.48-1.392zM68.646 0l-2.445 2.446v.707L69.177.177 69.354 0zm3 0l-5.445 5.446v.707L72.177.177 72.354 0zm3 0l-8.445 8.446V9h.153L75.177.177 75.354 0zm2.555.446l-8.378 8.377-.177.177h.708L77.2 1.153V.446zm0 3l-5.378 5.377-.177.177h.708L77.2 4.153v-.707zm0 3l-2.378 2.377-.177.177h.708L77.2 7.153v-.707zM84.608.597c.269.002.505.041.692.109-.031.223-.169.569-.953.773.73-.053 1.206-.113 1.452-.307.09.2.137.427.159.556a.297.297 0 0 0 .206.237c.625.191 1.174 1.112 1.7 1.763.95 1.173 1.771 2.48 2.688 3.733l-1.27-.622c-1.182-.622-2.395-1.11-3.407-1.877-.589-.49-1.172-.996-1.39-1.641-.076-.497.296-1.074.767-1.279a.297.297 0 1 0-.238-.545c-.377.164-.7.458-.904.817.01-.152.032-.308.075-.448a.297.297 0 0 0 .012-.104 1.372 1.372 0 0 0-.082-.422c-.04-.109-.084-.206-.157-.459a.297.297 0 0 0-.105-.153 1.53 1.53 0 0 1 .528-.125c.042-.003.083-.003.124-.004a.258.258 0 1 0 .103-.002zM85.8 6.029c.606.466 1.254.873 1.889 1.28-.005.438.006.879.046 1.321a2.215 2.215 0 0 0-.697-.3c-.39-.636-.82-1.22-1.082-1.842a4.553 4.553 0 0 1-.156-.46zm-.248 1c.273.549.621 1.04.928 1.529-.059.04-.112.08-.154.121l-.028.027a1.713 1.713 0 0 0-.613-.454c.01-.348-.047-.768-.133-1.222zm2.88.047a25.922 25.922 0 0 1 .588.297c.78.38 1.56.772 2.349 1.148.556.67 1.157 1.293 1.735 1.92l-1.044.175L89.5 7.83a.297.297 0 0 0-.04-.036 19.147 19.147 0 0 0-1.026-.718zM85.84 9.085c.058.066.112.14.162.222a.298.298 0 0 0 .43.087c.124-.09.2-.177.265-.244l.077 1.413c-.1-.006-.201-.013-.296-.013-.167 0-.313.022-.398.108-.1-.078-.28-.1-.504-.1-.058 0-.118.002-.18.005l.444-1.478zm-5.418.999c.451.062.686.323.704.783h-1.395c0-.46.23-.721.69-.783zm7.86-2.39c.274.182.542.367.798.56l2.403 2.613h-2.456c-.171-.19-.519-.365-.776-.365a.366.366 0 0 0-.192.046 2.987 2.987 0 0 0-.256-.01c-.14 0-.286.007-.434.016l-.082-1.506c.224.115.407.282.625.542a.297.297 0 0 0 .52-.246 9.753 9.753 0 0 1-.15-1.65zm-6.24 3.745l-.266.465H80.53l-.252-.465zm4.516 0v2.51l-1.727-2.51zM84.615 0a3.878 3.878 0 0 0-.272.01c-.694.044-1.215.325-1.408.768a.298.298 0 0 0 .34.408l.025-.006.03.007.108.029c.055.168.096.269.12.332a.541.541 0 0 1 .042.2 3.112 3.112 0 0 0-.036 1.389c.095.466.384.977.761 1.46a.295.295 0 0 0 .014.108c.183.559.396 1.318.548 2.027.152.708.233 1.387.192 1.684a.3.3 0 0 0 .223.33l.019.005-.527 1.75a1.787 1.787 0 0 0-.26-.018c-.256 0-.509.041-.712.041a.865.865 0 0 1-.183-.016.314.314 0 0 0-.068-.007c-.212 0-.657.13-.787.366h-1.1c-.061-.797-.482-1.235-1.261-1.315-.788.08-1.196.518-1.222 1.315v.572h.531l.545 1.01h1.766l.532-1.01h1.567l2.404 3.493V18h.571v-6.561h4.516v-.41l.1.109a.297.297 0 0 0 .268.092l1.74-.292a.298.298 0 0 0 .173-.492 49.17 49.17 0 0 0-.657-.716l1.657 1.078a.296.296 0 0 0 .412-.087.297.297 0 0 0-.087-.411l-1.345-.876a.292.292 0 0 0 .076-.09.315.315 0 0 0 .02-.237.305.305 0 0 0-.048-.093c-.055-.076-.084-.088-.124-.119a2.938 2.938 0 0 0-.13-.094c-.096-.065-.206-.137-.301-.2a4.156 4.156 0 0 1-.217-.156l-2.378-1.672-.008-.005c-.805-1.13-1.568-2.316-2.457-3.414-.433-.535-.938-1.524-1.812-1.894-.048-.262-.157-.68-.484-.997C85.678.119 85.168 0 84.615 0z"/><path d="M105.057.375v17.25M97.37.375c9.624 0 9.624 17.25 0 17.25" fill="none" stroke="#000"/></svg>