<svg xmlns="http://www.w3.org/2000/svg" width="14.211" height="18"><path d="M2.062.287q-.069.725-.069 1.624 0 .9.088 1.818-.2-.106-.625-.106-.43 0-.624.106.093-.918.087-1.818Q.913 1.012.85.287zM1.456 4.01q.425.007.862.225l-.112.206q-.088-.015-.165-.015-.267 0-.397.184-.075-.331-.188-.406-.112.075-.193.406-.131-.184-.397-.184-.077 0-.166.015l-.112-.206q.45-.218.868-.225zm0 .6q.094.075.063.219l-.063.275q-.037-.132-.068-.275-.032-.144.068-.219zm.57.001q.034 0 .074.005-.425 1.012-.644 1.012-.212 0-.656-1.012.04-.005.076-.005.228 0 .293.205.081.231.169.375.093.15.118.15.031 0 .113-.15.087-.144.162-.375.07-.205.294-.205zM.481 0q.3 2.124-.006 3.83-.556.262-.463.443.069.137.157.137.033 0 .068-.019.544.613.893 1.443.138 1.368-.037 4.73 0 .668.35.668h.019q.35 0 .35-.669-.17-3.36-.038-4.729.343-.83.887-1.443.035.019.068.019.088 0 .157-.137.093-.181-.456-.444-.313-1.705 0-3.829zm7.015.372c.168.002.315.026.432.068-.02.14-.105.355-.595.483.456-.033.753-.07.906-.192.056.125.086.267.1.347.01.07.06.127.128.148.39.12.732.694 1.061 1.1.592.732 1.105 1.548 1.677 2.33l-.793-.389c-.737-.387-1.494-.693-2.125-1.17-.368-.307-.732-.622-.868-1.025-.047-.31.185-.67.479-.798a.186.186 0 1 0-.149-.34 1.218 1.218 0 0 0-.564.51 1.24 1.24 0 0 1 .047-.28.186.186 0 0 0 .008-.064.856.856 0 0 0-.051-.264C7.163.768 7.136.707 7.09.55a.186.186 0 0 0-.065-.096.965.965 0 0 1 .33-.078c.026-.002.051-.002.077-.002a.161.161 0 1 0 .064-.002zm.745 3.39c.378.29.782.545 1.178.798a8 8 0 0 0 .03.825 1.382 1.382 0 0 0-.436-.188c-.244-.396-.512-.761-.675-1.149a2.841 2.841 0 0 1-.097-.286zm-.155.625c.17.341.387.648.579.953a.776.776 0 0 0-.097.076l-.017.017a1.069 1.069 0 0 0-.382-.284 3.868 3.868 0 0 0-.083-.762zm1.797.028a16.175 16.175 0 0 1 .367.186c.487.237.973.481 1.465.716.348.418.722.807 1.083 1.198l-.651.11-1.6-1.74a.186.186 0 0 0-.024-.022 11.947 11.947 0 0 0-.64-.448zM8.266 5.67c.036.04.07.087.1.138a.186.186 0 0 0 .268.055c.078-.057.126-.11.166-.153l.048.882a2.924 2.924 0 0 0-.185-.008c-.104 0-.195.014-.248.067-.062-.048-.175-.061-.314-.061-.036 0-.074 0-.113.002l.278-.922zm-3.381.623c.281.039.428.202.439.489h-.87c0-.287.143-.45.43-.489zm4.905-1.49c.17.113.338.228.497.349l1.5 1.63h-1.533a.758.758 0 0 0-.484-.228.229.229 0 0 0-.12.029 1.864 1.864 0 0 0-.16-.006c-.087 0-.178.004-.27.01l-.052-.94c.14.072.254.176.39.338a.186.186 0 0 0 .325-.154 6.086 6.086 0 0 1-.093-1.029zM5.896 7.136l-.166.29h-.78l-.157-.29zm2.818 0v1.567L7.636 7.137zM7.5 0a2.42 2.42 0 0 0-.17.006c-.434.028-.759.203-.879.48a.186.186 0 0 0 .213.254L6.68.736l.02.005.067.018c.034.104.06.167.075.207.017.045.022.06.026.124a1.942 1.942 0 0 0-.023.867c.06.291.24.61.476.912a.171.171 0 0 0 .008.067c.114.349.247.822.342 1.264.095.442.146.866.12 1.051a.186.186 0 0 0 .14.206l.01.004-.328 1.091a1.115 1.115 0 0 0-.162-.01c-.16 0-.318.025-.444.025a.54.54 0 0 1-.115-.01.196.196 0 0 0-.042-.004c-.132 0-.41.08-.491.228h-.686c-.039-.497-.301-.77-.787-.82-.492.05-.746.323-.763.82v.356h.332l.34.63h1.102l.331-.63h.978l1.5 2.18v1.915h.357V7.137h2.818v-.255l.062.068a.186.186 0 0 0 .167.057l1.086-.182a.186.186 0 0 0 .108-.307c-.136-.15-.273-.3-.41-.447l1.034.673a.185.185 0 0 0 .257-.054.185.185 0 0 0-.055-.257l-.839-.546a.182.182 0 0 0 .048-.057.197.197 0 0 0 .012-.148.18.18 0 0 0-.03-.057c-.034-.048-.052-.056-.077-.074a1.834 1.834 0 0 0-.082-.059l-.187-.125a2.593 2.593 0 0 1-.135-.098l-1.484-1.043-.005-.003c-.503-.705-.979-1.445-1.533-2.13-.27-.334-.585-.951-1.131-1.182-.03-.163-.098-.424-.302-.622C8.164.075 7.845 0 7.501 0zM3.11 13.699h.003c1.01 0 2.158.065 3.996.065 1.84 0 2.985-.065 3.994-.065.105 0 .21 0 .312.002-.669.348-1.648.826-2.293 1.001a7.13 7.13 0 0 1-1.967.25 7.13 7.13 0 0 1-1.968-.25c-.646-.176-1.627-.654-2.295-1.002l.219-.001zm1.733 1.57H4.84c-.16.008-.813.583-1.051.895-.154.202-.196.461-.044.581a.23.23 0 0 0 .148.05c.132 0 .283-.095.393-.239.254-.333.674-1.206.579-1.282a.034.034 0 0 0-.022-.006zm4.573 0h-.002a.032.032 0 0 0-.02.005c-.095.076.326.95.58 1.282.11.144.26.24.393.24a.233.233 0 0 0 .147-.05c.153-.121.111-.38-.043-.582-.24-.315-.901-.896-1.055-.896zm-3.825.185h-.004c-.138.013-.658.758-.82 1.128-.102.234-.082.495.095.575a.22.22 0 0 0 .093.02c.15 0 .303-.142.387-.335.168-.385.37-1.336.26-1.386a.027.027 0 0 0-.011-.002zm3.078 0h-.003a.026.026 0 0 0-.009.002c-.11.05.093 1 .26 1.386.085.193.239.335.387.335a.225.225 0 0 0 .094-.02c.176-.08.197-.34.094-.575-.162-.373-.69-1.128-.823-1.128zm-2.168.14H6.5c-.128.009-.54.847-.645 1.244-.065.248-.005.503.182.553.02.006.04.009.06.009.16 0 .308-.175.366-.396.107-.407.162-1.378.046-1.41a.027.027 0 0 0-.008 0zm1.257 0H7.75c-.117.032-.061 1.003.046 1.41.058.22.205.396.366.396.02 0 .04-.003.06-.009.186-.05.246-.305.181-.553-.105-.4-.52-1.245-.646-1.245zm-.658.011h-.001c-.121.015-.312.956-.312 1.374 0 .256.123.487.316.487.19 0 .313-.23.313-.487 0-.421-.193-1.374-.314-1.374H7.1zm-.202-2.614h.207c1.369 0 2.569 0 3.508.019.939.018 1.63.059 1.919.12.25.052.548.186.774.373.226.186.373.412.39.659.078 1.116.046 2.24.007 3.37h-.045c.034-.545.053-1.17.044-1.756-.01-.676-.048-1.279-.157-1.664-.13-.462-.502-.774-.93-.815a15.66 15.66 0 0 0-1.52-.066c-1.023 0-2.166.065-3.986.065-1.82 0-2.965-.065-3.99-.065-.515 0-1 .017-1.524.066-.45.043-.8.408-.93.865-.107.384-.146.975-.156 1.64-.009.574.01 1.188.043 1.73H.508c-.04-1.13-.072-2.254.006-3.37.018-.248.166-.482.39-.67.225-.19.52-.321.764-.36.712-.115 2.615-.14 5.128-.14h.102zm-.082-.467h-.142c-2.45 0-4.27.015-5.08.146a2.093 2.093 0 0 0-.99.463c-.293.247-.527.587-.556.996-.085 1.223-.043 2.439 0 3.646L.056 18h.998l-.02-.251a22.51 22.51 0 0 1-.058-1.94c.01-.648.06-1.239.14-1.52.086-.307.308-.506.523-.526.111-.01.22-.02.329-.028.273.155 1.991 1.117 3.096 1.418a7.642 7.642 0 0 0 2.09.266 7.62 7.62 0 0 0 2.09-.266c1.092-.297 2.78-1.238 3.086-1.41.08.005.16.012.241.02.239.022.439.174.524.476.079.28.13.885.14 1.544.01.66-.015 1.387-.059 1.966l-.019.251h.998l.008-.225c.042-1.207.085-2.423 0-3.646-.029-.41-.266-.745-.56-.987a2.312 2.312 0 0 0-.976-.47c-.382-.08-1.059-.111-2.005-.13-.946-.018-2.148-.018-3.517-.018h-.289z"/></svg>