<svg xmlns="http://www.w3.org/2000/svg" width="87.373" height="18"><path d="M1.647 0c-.335 0-.67.026-.995.066C.205.18.435.692.832.692A.476.476 0 0 0 .914.684c.84.097 1.872.15 2.506.626.841.916.463 2.821.561 3.725.007.05.01 3.653.01 5.48a6.145 6.145 0 0 0-2.635-.586 6.04 6.04 0 0 0-1.187.117c-.441.231.076.528.422.528.041 0 .08-.004.115-.013 1.226.133 2.62.461 3.243 1.602.061.206.023.277-.071.277-.206 0-.68-.342-.946-.342-.014 0-.028 0-.04.003a7.535 7.535 0 0 0-1.58-.169c-.39 0-.777.031-1.15.095-.42.278.097.534.439.534a.532.532 0 0 0 .105-.01c1.251.151 2.636.49 3.243 1.633.007 1.27 0 2.11.033 3.278-.014.36.22.538.456.538.235 0 .473-.176.475-.526-.009-1.15-.091-2.161.06-3.277.304-1.253 2.477-1.445 3.827-1.754.294-.347-.285-.475-.659-.475-.055 0-.107.003-.15.008a6.823 6.823 0 0 0-.521-.02c-.882 0-1.771.175-2.557.58-.032-.755.711-1.19 1.244-1.493.84-.361 1.765-.397 2.643-.59.313-.273-.18-.501-.521-.501a.58.58 0 0 0-.125.012 6.767 6.767 0 0 0-.648-.031c-.903 0-1.805.183-2.614.582.016-2.851.062-5.61-.02-8.308-.065-.834-.546-1.6-1.354-1.849C2.938.094 2.291 0 1.647 0zm23.995 2.99q.557 0 1.086.606-4.368 5.2-5.46 5.81-.814.457-1.434.457-.21 0-.399-.053-.74-.208-1.586-.234h-.042q-.828 0-1.817.988h-.13q.702-1.638 1.963-2.34 1.261-.702 7.397-5.148.213-.085.422-.085zM17.91.622q.066 0 .133.01v6.683Q15.99 8.51 15.21 10.668q1.196-8.268 1.677-9.204Q17.32.62 17.911.62zM12.555 11.09q-.08 0-.153.138-.13.247.234.689.208-.546.052-.741-.069-.086-.133-.086zm.037-.372q.153 0 .33.237.39.52-.234 2.08-.702-1.352-.429-1.976.149-.34.333-.34zm6.804 2.577v.39q-.286-.026-.442-.182.052-.078.208-.208zm.598.884l2.418.338.494.884q-.832-.234-1.833-.624-1-.39-1.079-.598zm-5.33-.364l.468.234.156 1.118-.416 1.274h-.65l.442-1.274v-1.352zm1.118.39l.442.13.156.832-.416 1.274h-.65l.442-1.274.026-.962zm1.534.156l.156.806-.416 1.274h-.65l.442-1.274v-.78l.468-.026zm-.994-3.234q.415 0 .89.1 1.404.3 1.768 1.418h1.092l.416-.676Q26 13.242 26.702 16.57q-1.508-.832-3.172-1.118l-.728-1.456-2.886-.39.078-.702h-.988q-1.092.9-2.228.9-.243 0-.489-.042-1.391-.234-1.82-.95-.429-.714.455-1.3.585-.386 1.398-.386zM18.167 0q-.947 0-1.488.658-.663.806-1.235 4.238l-.91 5.954q-.442.468-.676.52h-.312q-.026-.65-.494-1.196-.416-3.978.364-6.968l-.312-.598q-1.118 3.38-.546 7.592h-.078q-1.794-4.03-.52-7.592l-.312-.468q-1.664 3.796.364 8.242-.572 1.248-.117 2.054.455.806.559 1.508l.182.13q.702-1.04.806-1.794h.26q.026.598.338 1.248l.182 1.638-.442 1.274h-2.262v.624h6.526v-.624h-.546l.416-1.274.026-.962q.468-.156.702-.364.338.312.754.312-.026.26.104.442 1.04.806 3.718 1.404l.91 1.768q0-.434.27-.434.085 0 .198.044l-.728-1.3q1.508.338 2.288.858.416.442-.052 1.066 1.04-.442 1.17-1.248-.416-3.926-7.046-5.46l-.468.78h-.416q-.338-1.092-2.678-1.508.522-.388 1.285-.388.414 0 .9.115.491.116.96.116.844 0 1.613-.376 1.196-.585 6.084-6.461-.9-1.136-1.905-1.136-.329 0-.669.122L18.616 7.08V.034Q18.381 0 18.167 0z"/><path d="M37.008.375c-9.625 0-9.625 17.25 0 17.25m0 0" fill="none" stroke="#000"/><path d="M40.754 0c-.93 0-1.746.684-1.746 1.562V18h1.136V1.562c0-.43.379-.57.617-.57.25 0 .634.175.634.703v10.804h1.136V1.695C42.53.815 41.66 0 40.754 0zm6.162 11.783c.534.205 1.117.861 1.287 1.402.17.54.15 1.171.03 1.792-.12.61-.36 1.191-.651 1.571-.2.26-.38.41-.55.46h-.16c-.171-.04-.391-.19-.611-.46-.29-.38-.531-.96-.651-1.571-.12-.621-.14-1.252.03-1.792.17-.541.808-1.243 1.276-1.395v-.007zM46.351 0v1.201h-1.082v.771h1.082l-.15 9.09c-.771.4-1.252 1.081-1.482 1.812-.23.751-.24 1.562-.09 2.313.15.75.45 1.411.86 1.942.311.4.721.73 1.202.831v.03c.03.01.06.01.09.01.04 0 .08-.01.12-.01.05.01.1.01.14.01.04 0 .07 0 .11-.01v-.03c.481-.1.892-.43 1.202-.831.41-.53.71-1.191.86-1.942.151-.751.141-1.562-.09-2.313a2.97 2.97 0 0 0-1.48-1.782l-.151-9.12h1.021l.03-.77h-1.141V0H46.35zm6.556 2.451q-.1 0-.196.031-.371.12-.328.36.037.204.333.204.053 0 .116-.006.404-.044.71-.328-.342-.26-.635-.26zm.19-.221q.789 0 2.435.94.826.428 1.81.428.476 0 .989-.1 1.29-.262 2.71-.458.483-.067.936-.067.88 0 1.645.252 1.159.383 1.924.492.765.11 2.427.197-1.072.11-2.1.11-1.027 0-2.426-.23-.7-.115-1.348-.115-.647 0-1.243.115-1.192.23-2.711.426-.38.05-.747.05-1.1 0-2.085-.443-.955-.652-1.984-.652-.455 0-.924.127-.415-.022-.371-.46.24-.59 1.027-.611l.036-.001zM53.68 0q-.473 0-.882 1.443Q52.456.17 51.915.17q-.08 0-.166.028-.656.416.438 1.596-.875.503-.875 1.268 0 .766 1.29.853.399-.105.78-.105.89 0 1.68.575.675.492 2.142.492.978 0 2.307-.219 1.633-.46 3.174-.46.584 0 1.155.067 1.428.165 2.433.165.456 0 .825-.034 1.859-.044 1.859-.35-.503-.459-1.421-.612-1.946-.022-3.553-.678-.804-.328-1.971-.328t-2.698.328q-.987.25-1.837.25-1.166 0-2.076-.468-.94-.569-1.99-.94.875-.678.82-1.127-.055-.448-.536-.47h-.014zm6.454 14.1q3.108 0 6.591 1.501-3.483 1.46-6.59 1.46-3.087 0-6.591-1.46 3.504-1.501 6.59-1.501zm0-.96q-3.837 0-8.822 2.44Q56.297 18 60.134 18q3.838 0 8.823-2.42-4.964-2.44-8.823-2.44zm13.689-8.15c-.112 0-.223.011-.334.021-1.61.172-2.754 1.802-2.5 3.382.11 1.174.84 1.832 1.64 2.48 2.378 1.458 1.71.921 4.11 2.136l.384-.719c-2.855-1.336-3.199-1.549-4.09-2.136-.729-.587-1.306-1.235-1.255-2.217-.02-.678.384-1.377.84-1.711.365-.273.83-.435 1.286-.435.344 0 .668.08.951.283.72.354 1.114 1.529.588 2.268a1.396 1.396 0 0 1-1.114.597 1.03 1.03 0 0 1-.607-.192c-.365-.203-.638-.911-.264-1.306-.172-.182-.415-.405-.597-.405-.121 0-.213.091-.273.304-.405.972.243 2.075 1.215 2.338.172.05.344.081.516.081 1.114 0 2.146-.931 2.146-2.085.101-1.347-.972-2.582-2.318-2.663a3.272 3.272 0 0 0-.324-.02z"/><path d="M86.81.375v17.25M79.123.375c9.625 0 9.625 17.25 0 17.25" fill="none" stroke="#000"/></svg>