<svg xmlns="http://www.w3.org/2000/svg" width="19.432" height="18"><path d="M1.462.23c.337 0 .606.098.794.233.003.026.01.052.004.077a.518.518 0 0 1-.192.307c-.153.1-.338.13-.513.173-.044.004-.01.015.015.019a3.584 3.584 0 0 0 .497.048.79.79 0 0 0 .372-.152.54.54 0 0 0 .1-.114c.07.168.11.346.126.445a.142.142 0 0 0 .098.113c.553.17.99.928 1.399 1.433.84 1.038 1.554 2.2 2.377 3.284-.456-.221-.91-.445-1.365-.667-.934-.49-1.905-.882-2.723-1.501l-.004-.004c-.471-.392-.953-.807-1.136-1.357-.072-.447.853-1.252.75-1.286a.1.1 0 0 0-.032-.004c-.223 0-.852.548-.98 1.07l-.008-.022c-.035-.173-.075-.61.033-.962a.141.141 0 0 0 .005-.05.956.956 0 0 0-.06-.308C.99.922.952.838.893.633.878.581.824.473.792.466c.09-.067.182-.137.313-.183a.211.211 0 0 0-.064.153c0 .111.08.201.177.201.098 0 .177-.09.177-.201V.434a.2.2 0 0 0-.124-.19c.026-.003.047-.008.075-.01.04-.003.078-.004.116-.004zm.326 3.771c.031.032.065.06.098.092.104.379.2.797.336 1.12.235.556.59 1.04.894 1.532a.881.881 0 0 0-.187.13l-.097.094a1.268 1.268 0 0 0-.576-.435c.022-.352-.052-.832-.165-1.354A16.956 16.956 0 0 0 1.788 4zm.489.442c.558.46 1.179.844 1.785 1.234-.008.442-.008.864.041 1.3a1.657 1.657 0 0 0-.698-.358c-.01 0-.018.006-.028.006-.315-.517-.672-1-.892-1.523a5.407 5.407 0 0 1-.208-.66zm.197 2.552c.08.075.152.16.214.263a.146.146 0 0 0 .125.069.14.14 0 0 0 .082-.027c.105-.076.169-.157.232-.216a.647.647 0 0 1 .072-.057l.072 1.322c-.104-.006-.211-.017-.31-.017-.128 0-.24.018-.307.084-.082-.065-.241-.08-.433-.08-.049 0-.1 0-.153.002l.406-1.343zm.563-2.344c.658.383 1.352.687 2.009 1.033l.002.001c.63.307 1.257.622 1.892.925.478.578.997 1.115 1.496 1.662l-1.045.175-2.073-2.251a.14.14 0 0 0-.018-.018c-.728-.552-1.531-1.011-2.263-1.527zM1.494 0a2.73 2.73 0 0 0-.2.007C.769.04.385.262.255.562.234.607.184.714.25.714A1.142 1.142 0 0 1 .416.7C.62.7.601.785.645.796c.044.137.14.412.147.52a2.423 2.423 0 0 0-.031 1.067c.072.356.306.77.613 1.156a.138.138 0 0 0 0 .08c.146.449.316 1.054.438 1.622.122.567.191 1.106.154 1.371a.143.143 0 0 0 .108.16c.021.005.04.015.061.021l-.45 1.496a1.383 1.383 0 0 0-.289-.027c-.185 0-.367.025-.517.025a.733.733 0 0 1-.165-.016.265.265 0 0 0-.06-.006c-.212 0-.694.149-.652.427.074-.062.125-.077.183-.077.053 0 .111.013.196.013h.013c.124-.002.34-.04.512-.04a.44.44 0 0 1 .213.039c.115-.005.218-.007.315-.007.413 0 .703.034 1.214.037a43.512 43.512 0 0 0 1.446-.038c.218 0 .338.026.448.026h.019c.065-.002.129-.028.233-.028a.84.84 0 0 1 .227.034c-.121-.166-.425-.333-.646-.333a.287.287 0 0 0-.147.035 2.468 2.468 0 0 0-.246-.01c-.107 0-.218.004-.33.009l-.076-1.375c.237.099.416.25.623.496a.144.144 0 0 0 .249-.12c-.094-.504-.104-.98-.098-1.486.262.172.52.346.765.531L7.233 8.7a.14.14 0 0 0 .128.044l1.384-.23a.143.143 0 0 0 .112-.094.145.145 0 0 0-.029-.145c-.36-.403-.733-.792-1.094-1.187.617.379 1.398.852 1.497.852.01 0 .013-.006.006-.019-.046-.08-.438-.367-.862-.667.067.028.133.058.201.086l.008.005c.05.017.078.028.131.03a.139.139 0 0 0 .053-.008.154.154 0 0 0 .092-.074.155.155 0 0 0 .01-.116c-.008-.024-.018-.037-.025-.047-.03-.041-.05-.053-.08-.075a2.212 2.212 0 0 0-.099-.072c-.074-.051-.163-.109-.24-.16a2.425 2.425 0 0 1-.173-.125l-1.89-1.33c-.004-.002-.01 0-.014-.002-.648-.908-1.257-1.859-1.965-2.734-.362-.447-.777-1.228-1.45-1.489C2.9.95 2.826.595 2.566.342 2.345.126 2.025.027 1.665.005A2.783 2.783 0 0 0 1.495 0zm10.159.23c.337 0 .607.098.795.233.003.026.01.052.004.077a.518.518 0 0 1-.192.307c-.154.1-.339.13-.514.173-.044.004-.009.015.015.019a3.584 3.584 0 0 0 .497.048.79.79 0 0 0 .372-.152.54.54 0 0 0 .1-.114c.071.168.11.346.126.445a.142.142 0 0 0 .098.113c.554.17.99.928 1.4 1.433.84 1.038 1.554 2.2 2.376 3.284-.455-.221-.909-.445-1.365-.667-.933-.49-1.905-.882-2.722-1.501l-.005-.004c-.47-.392-.953-.807-1.135-1.357-.073-.447.853-1.252.749-1.286a.1.1 0 0 0-.031-.004c-.223 0-.852.548-.981 1.07-.002-.007-.006-.015-.007-.022-.036-.173-.075-.61.033-.962a.141.141 0 0 0 .005-.05.956.956 0 0 0-.06-.308c-.03-.083-.068-.167-.127-.372-.015-.052-.068-.16-.1-.167.09-.067.181-.137.313-.183a.211.211 0 0 0-.064.153c0 .111.08.201.177.201.098 0 .177-.09.177-.201V.434a.2.2 0 0 0-.124-.19c.026-.003.046-.008.075-.01.04-.003.078-.004.115-.004zm.326 3.771c.032.032.066.06.098.092.104.379.2.797.337 1.12.234.556.59 1.04.893 1.532a.881.881 0 0 0-.186.13l-.097.094a1.268 1.268 0 0 0-.576-.435c.022-.352-.053-.832-.165-1.354A16.956 16.956 0 0 0 11.979 4zm.49.442c.557.46 1.178.844 1.785 1.234-.009.442-.009.864.04 1.3a1.657 1.657 0 0 0-.698-.358c-.009 0-.017.006-.027.006-.315-.517-.672-1-.892-1.523a5.407 5.407 0 0 1-.209-.66zm.197 2.552c.08.075.152.16.214.263a.146.146 0 0 0 .125.069.14.14 0 0 0 .082-.027c.105-.076.168-.157.231-.216a.647.647 0 0 1 .072-.057l.073 1.322c-.104-.006-.212-.017-.31-.017-.128 0-.24.018-.307.084-.082-.065-.242-.08-.433-.08-.05 0-.1 0-.153.002l.406-1.343zm.562-2.344c.658.383 1.353.687 2.01 1.033l.002.001c.63.307 1.257.622 1.892.925.478.578.997 1.115 1.496 1.662l-1.045.175c-.69-.75-1.383-1.5-2.073-2.251a.14.14 0 0 0-.018-.018c-.728-.552-1.532-1.011-2.264-1.527zM11.686 0a2.71 2.71 0 0 0-.2.007c-.527.034-.91.255-1.04.555-.02.045-.071.152-.004.152A1.142 1.142 0 0 1 10.608.7c.203 0 .184.084.228.095.044.137.14.412.148.52a2.423 2.423 0 0 0-.032 1.067c.073.356.307.77.613 1.156a.138.138 0 0 0 0 .08c.146.449.317 1.054.439 1.622.122.567.19 1.106.154 1.371a.143.143 0 0 0 .107.16c.022.005.04.015.062.021l-.451 1.496a1.383 1.383 0 0 0-.288-.027c-.185 0-.367.025-.517.025a.733.733 0 0 1-.165-.016.265.265 0 0 0-.06-.006c-.213 0-.695.149-.652.427.073-.062.125-.077.182-.077.054 0 .112.013.197.013h.013c.124-.002.339-.04.512-.04.087 0 .164.01.212.039.115-.005.219-.007.316-.007.412 0 .703.034 1.214.037a43.512 43.512 0 0 0 1.445-.038c.219 0 .339.026.448.026h.02c.065-.002.128-.028.233-.028.06 0 .132.008.227.034-.121-.166-.426-.333-.646-.333a.287.287 0 0 0-.147.035 2.468 2.468 0 0 0-.247-.01c-.106 0-.217.004-.33.009l-.075-1.375c.236.099.416.25.622.496a.144.144 0 0 0 .25-.12c-.094-.504-.104-.98-.099-1.486.262.172.52.346.766.531L17.425 8.7a.14.14 0 0 0 .128.044l1.384-.23a.143.143 0 0 0 .111-.094.145.145 0 0 0-.028-.145c-.36-.403-.733-.792-1.094-1.187.617.379 1.397.852 1.496.852.011 0 .014-.006.006-.019-.045-.08-.437-.367-.862-.667l.202.086.008.005c.05.017.078.028.13.03a.139.139 0 0 0 .054-.008.154.154 0 0 0 .091-.074.155.155 0 0 0 .011-.116.14.14 0 0 0-.026-.047c-.03-.041-.05-.053-.079-.075a2.212 2.212 0 0 0-.1-.072c-.074-.051-.163-.109-.239-.16a2.425 2.425 0 0 1-.173-.125l-1.89-1.33c-.005-.002-.01 0-.014-.002-.648-.908-1.257-1.859-1.966-2.734-.361-.447-.776-1.228-1.45-1.489-.033-.192-.106-.547-.367-.8-.221-.216-.542-.315-.901-.337A2.783 2.783 0 0 0 11.686 0zM4.254 12.119h.003c1.381 0 2.95.089 5.464.089 2.516 0 4.082-.09 5.462-.09.144 0 .286.002.426.004-.914.475-2.253 1.128-3.135 1.369a9.75 9.75 0 0 1-2.69.34 9.75 9.75 0 0 1-2.69-.34c-.884-.241-2.225-.896-3.14-1.37.1-.002.2-.002.3-.002zm2.369 2.146a.09.09 0 0 0-.005 0c-.218.011-1.112.797-1.437 1.224-.21.277-.268.63-.06.796.06.046.129.068.202.068.18 0 .388-.13.538-.327.347-.456.922-1.65.791-1.753a.047.047 0 0 0-.03-.008zm6.253 0a.044.044 0 0 0-.03.008c-.13.103.446 1.297.793 1.753.15.197.356.327.537.327a.318.318 0 0 0 .202-.068c.208-.165.151-.519-.06-.796-.328-.43-1.232-1.224-1.442-1.224zm-5.231.253H7.64c-.189.019-.9 1.037-1.121 1.543-.14.32-.112.678.13.787a.308.308 0 0 0 .127.027c.204 0 .414-.195.529-.459.23-.526.507-1.826.356-1.894a.038.038 0 0 0-.016-.004zm4.209 0h-.004a.036.036 0 0 0-.012.004c-.15.068.127 1.368.357 1.894.115.264.325.46.528.46a.308.308 0 0 0 .128-.028c.241-.11.269-.467.13-.787-.223-.51-.946-1.542-1.127-1.542zm-2.964.19h-.002c-.175.014-.738 1.16-.881 1.703-.09.339-.007.687.248.757a.309.309 0 0 0 .081.01c.22 0 .422-.238.501-.54.147-.557.223-1.884.063-1.928a.037.037 0 0 0-.01-.001zm1.718 0h-.003l-.006.002c-.16.044-.084 1.371.062 1.928.08.302.281.54.502.54a.309.309 0 0 0 .081-.01c.255-.07.337-.418.248-.757-.144-.546-.712-1.702-.884-1.702zm-.9.017c-.166.02-.427 1.307-.427 1.88 0 .35.168.664.432.664.26 0 .428-.315.428-.665 0-.576-.265-1.878-.43-1.878H9.71zm-.275-3.574h.283c1.871 0 3.513 0 4.796.025 1.284.025 2.23.08 2.624.163.343.072.75.257 1.06.511.308.255.51.564.533.902.107 1.526.063 3.063.01 4.609h-.062c.046-.746.072-1.601.06-2.402-.014-.925-.067-1.749-.215-2.275-.178-.633-.687-1.059-1.27-1.114a21.415 21.415 0 0 0-2.082-.091c-1.397 0-2.96.09-5.449.09-2.488 0-4.055-.09-5.455-.09-.705 0-1.368.022-2.085.09-.616.06-1.094.558-1.27 1.183-.149.524-.201 1.334-.215 2.241-.012.786.013 1.626.06 2.368H.693c-.053-1.546-.097-3.083.01-4.61.023-.338.226-.658.533-.916a2.3 2.3 0 0 1 1.044-.493c.973-.156 3.575-.189 7.012-.191h.14zm-.112-.64h-.195c-3.35.002-5.84.022-6.946.2a2.863 2.863 0 0 0-1.355.634c-.4.337-.72.803-.76 1.362-.116 1.673-.058 3.334 0 4.985L.076 18h1.365l-.026-.344a30.782 30.782 0 0 1-.08-2.653c.014-.885.082-1.693.19-2.077.12-.42.423-.692.717-.72.151-.015.3-.027.449-.037.373.211 2.723 1.526 4.234 1.938a10.45 10.45 0 0 0 2.858.364c.745 0 1.692-.045 2.859-.364 1.492-.406 3.8-1.692 4.219-1.93.109.009.218.018.33.029.325.03.6.238.716.651.107.382.177 1.21.19 2.112a31.38 31.38 0 0 1-.08 2.687l-.026.344h1.365l.011-.308c.058-1.65.116-3.312 0-4.985-.04-.56-.364-1.019-.765-1.35a3.16 3.16 0 0 0-1.335-.643c-.523-.11-1.448-.152-2.742-.177a271.752 271.752 0 0 0-4.809-.026h-.395z"/></svg>