<svg xmlns="http://www.w3.org/2000/svg" width="15.159" height="18"><path d="M1.398.342v.48L1.537.82a.58.58 0 0 1 .228.032c.462.165.494.877.477 1.274-.024.548-.297 1.182-.71 1.285a.954.954 0 0 1-.263.037.74.74 0 0 1-.28-.051C.703 3.269.345 2.628.345 2.133.345 1.33.471.998.8.853a.53.53 0 0 1 .203-.03h.13v-.48zm-.126 3.563l.178 3.652-.26-.001.082-3.65zm-.089 4l.277.001.009.301-.292.001.006-.304zm.296.645l.006.214h-.32l.004-.213.31-.001zm-.322.558l.338.004.01.323-.356.005.008-.332zm.357.67l.02.66h-.407l.015-.654.372-.006zM.792 0v.5C.34.607-.028.96.001 2.131c.017.74.49 1.45.886 1.591l-.11 7.057h1.11L1.68 3.747c.617-.165.897-1.062.914-1.61.038-1.185-.45-1.541-.853-1.65V0zM5.57.284c.415 0 .747.12.979.287.003.032.011.064.005.095a.639.639 0 0 1-.237.378c-.19.124-.418.16-.633.213-.054.006-.011.019.018.024a4.419 4.419 0 0 0 .613.059.975.975 0 0 0 .459-.187.667.667 0 0 0 .122-.14c.089.206.137.426.156.548.011.066.058.12.121.14.682.209 1.22 1.143 1.725 1.766 1.036 1.28 1.916 2.71 2.93 4.048l-1.683-.822c-1.15-.606-2.348-1.088-3.356-1.85l-.005-.006c-.581-.483-1.175-.994-1.4-1.672-.09-.551 1.052-1.544.923-1.585a.124.124 0 0 0-.038-.006c-.275 0-1.05.676-1.21 1.319l-.008-.027c-.044-.214-.093-.753.04-1.186a.174.174 0 0 0 .007-.062 1.179 1.179 0 0 0-.074-.38c-.038-.101-.083-.205-.156-.458-.019-.064-.085-.196-.124-.206.111-.083.224-.168.386-.225a.26.26 0 0 0-.079.188c0 .137.098.248.218.248s.219-.11.219-.248V.535a.246.246 0 0 0-.153-.233c.031-.005.057-.011.092-.014.049-.003.096-.004.143-.004zm.401 4.649c.04.039.081.074.121.112.128.467.247.983.415 1.38.29.686.728 1.283 1.101 1.89-.091.049-.17.104-.23.16l-.119.117a1.564 1.564 0 0 0-.71-.538c.027-.433-.065-1.025-.203-1.669-.107-.497-.24-.993-.375-1.452zm.603.544c.688.566 1.454 1.041 2.201 1.521-.01.545-.01 1.065.05 1.602a2.043 2.043 0 0 0-.86-.44c-.012 0-.022.007-.034.007-.389-.637-.829-1.234-1.1-1.877a6.666 6.666 0 0 1-.257-.813zm.243 3.146a1.5 1.5 0 0 1 .264.325.18.18 0 0 0 .154.084A.175.175 0 0 0 7.336 9c.13-.094.208-.194.286-.267a.798.798 0 0 1 .089-.07l.089 1.63c-.128-.009-.26-.022-.382-.022-.158 0-.297.022-.379.104-.101-.08-.298-.099-.533-.099l-.189.003.5-1.656zm.694-2.89c.81.472 1.667.848 2.477 1.273l.003.002c.776.378 1.549.767 2.332 1.14.59.712 1.229 1.375 1.844 2.049l-1.288.216-2.556-2.775a.173.173 0 0 0-.021-.022c-.898-.68-1.889-1.247-2.791-1.882zM5.609 0a3.85 3.85 0 0 0-.246.008C4.713.05 4.242.323 4.08.693c-.024.056-.087.188-.004.188A1.408 1.408 0 0 1 4.28.864c.25 0 .228.103.282.116.054.17.174.507.182.64a2.988 2.988 0 0 0-.039 1.316c.09.439.378.949.756 1.426a.17.17 0 0 0 0 .099c.18.552.39 1.299.54 1.998.15.7.236 1.364.19 1.691a.176.176 0 0 0 .133.196c.026.007.05.019.075.027l-.555 1.844a1.705 1.705 0 0 0-.355-.033c-.229 0-.453.03-.638.03a.903.903 0 0 1-.203-.019.327.327 0 0 0-.075-.007c-.261 0-.855.183-.803.526.09-.076.154-.095.225-.095.066 0 .138.016.242.016h.016c.153-.002.418-.05.632-.05a.54.54 0 0 1 .262.048c.141-.005.269-.008.388-.008.509 0 .867.042 1.497.045a53.64 53.64 0 0 0 1.782-.047c.27.002.417.033.552.033a.83.83 0 0 0 .024 0c.08-.003.158-.035.287-.035.074 0 .164.01.28.043-.15-.205-.524-.41-.796-.41a.354.354 0 0 0-.18.042 3.043 3.043 0 0 0-.305-.014 9.23 9.23 0 0 0-.406.012L8.176 8.6c.291.121.513.309.767.611a.177.177 0 0 0 .307-.148c-.115-.622-.127-1.208-.12-1.832.323.212.641.427.943.655l2.611 2.838a.173.173 0 0 0 .158.054c.569-.096 1.137-.189 1.706-.284a.176.176 0 0 0 .138-.116.179.179 0 0 0-.036-.178c-.444-.497-.903-.977-1.348-1.464.76.468 1.722 1.051 1.844 1.051.014 0 .017-.007.008-.023-.056-.098-.539-.453-1.063-.823.083.035.165.072.249.106l.01.006c.062.021.096.035.161.037a.171.171 0 0 0 .066-.01.19.19 0 0 0 .112-.09.191.191 0 0 0 .013-.143c-.01-.03-.022-.046-.031-.059-.037-.05-.062-.065-.098-.092a2.727 2.727 0 0 0-.122-.09l-.296-.196a2.99 2.99 0 0 1-.213-.154l-2.33-1.64c-.006-.003-.012 0-.018-.002-.798-1.12-1.55-2.291-2.423-3.37-.445-.551-.957-1.515-1.788-1.836-.04-.237-.13-.675-.451-.987C6.658.155 6.263.034 5.82.006A3.43 3.43 0 0 0 5.61 0zM3.318 13.412h.003c1.077 0 2.301.07 4.262.07 1.963 0 3.185-.07 4.26-.07.113 0 .224 0 .334.003-.714.37-1.758.88-2.447 1.067a7.606 7.606 0 0 1-2.098.266c-.56 0-1.242-.032-2.099-.266-.689-.187-1.735-.698-2.448-1.069l.233-.001zm1.848 1.674a.07.07 0 0 0-.004 0c-.17.01-.867.622-1.12.955-.165.216-.21.492-.047.62.046.037.1.054.157.054.141 0 .303-.101.42-.255.27-.355.72-1.287.617-1.367a.036.036 0 0 0-.023-.007zm4.879 0h-.003a.034.034 0 0 0-.02.007c-.102.08.347 1.012.617 1.367.117.154.279.255.42.255.057 0 .11-.017.157-.053.162-.129.118-.405-.047-.62-.255-.336-.961-.956-1.124-.956zm-4.081.198H5.96c-.148.014-.703.809-.875 1.203-.109.25-.087.529.101.614a.24.24 0 0 0 .1.022c.159 0 .323-.152.412-.358.18-.411.396-1.425.278-1.478a.03.03 0 0 0-.012-.003zm3.283 0h-.003a.028.028 0 0 0-.01.003c-.117.053.1 1.067.279 1.478.09.206.253.358.412.358a.24.24 0 0 0 .1-.022c.188-.085.21-.364.1-.614-.173-.398-.737-1.203-.878-1.203zm-2.312.149h-.002c-.136.01-.575.904-.687 1.328-.07.264-.006.536.193.59a.24.24 0 0 0 .064.008c.172 0 .33-.186.391-.421.114-.435.173-1.47.049-1.504a.03.03 0 0 0-.008-.001zm1.34 0h-.007c-.124.035-.065 1.07.049 1.505.062.235.219.421.39.421a.24.24 0 0 0 .064-.008c.2-.054.263-.326.194-.59-.112-.427-.556-1.328-.69-1.328zm-.702.013c-.13.015-.333 1.019-.333 1.465 0 .273.13.52.337.52.203 0 .334-.247.334-.52 0-.45-.206-1.465-.335-1.465h-.003zm-.214-2.79h.22c1.46 0 2.74.002 3.742.02 1.001.02 1.739.064 2.047.128.267.056.585.2.826.399.24.198.398.44.416.703.083 1.19.05 2.39.007 3.595h-.048c.037-.581.056-1.249.047-1.873-.01-.722-.051-1.365-.167-1.775-.14-.493-.536-.826-.992-.87a16.706 16.706 0 0 0-1.623-.07c-1.09 0-2.31.07-4.25.07-1.942 0-3.164-.07-4.256-.07-.55 0-1.067.017-1.626.07-.48.046-.854.435-.992.923-.115.409-.156 1.04-.167 1.748-.01.613.01 1.269.046 1.847H.541C.5 16.295.466 15.097.55 13.906c.018-.264.177-.514.416-.716.24-.2.554-.342.815-.383.758-.123 2.789-.148 5.47-.15h.109zm-.088-.498H7.12c-2.613.001-4.555.017-5.418.156a2.233 2.233 0 0 0-1.057.495c-.313.262-.562.626-.593 1.062-.09 1.305-.045 2.601 0 3.888L.059 18h1.065l-.02-.268a24.012 24.012 0 0 1-.062-2.07c.01-.69.064-1.32.148-1.62.093-.328.33-.54.559-.562.118-.011.234-.02.35-.029.291.165 2.124 1.191 3.303 1.513.91.248 1.65.283 2.23.283.58 0 1.32-.035 2.23-.283 1.163-.318 2.964-1.321 3.291-1.506l.257.022c.254.024.468.186.559.508.084.298.138.944.148 1.647a24.48 24.48 0 0 1-.062 2.097l-.02.268H15.1l.008-.24c.045-1.288.09-2.584 0-3.889-.031-.437-.284-.795-.597-1.053a2.466 2.466 0 0 0-1.041-.502c-.408-.085-1.13-.118-2.14-.138-1.009-.02-2.29-.02-3.75-.02h-.31z"/></svg>