<svg xmlns="http://www.w3.org/2000/svg" width="97.442" height="18"><path d="M5.566.322q.06 0 .113.039.214.116-.136.564-.37.369-.457.622-.088.253-.185.67-.097.419-.428 1.197l-.447.136H2.412q.233-.506.544-.914.759-.7 1.128-.934.37-.233.593-.398.224-.166.477-.632.233-.35.412-.35zM4.55 3.939l-.311.68q-.454-.045-.84-.045-.775 0-1.28.182-.097-.661-.292-.817zm-2.237 1.42q-.37.02-.389.35.02.389.39.389.369 0 .388-.39-.02-.33-.389-.35zm.837-.33q.836 0 .972.777.136.778-.895 1.07.35.66 0 .836-.123.062-.24.062-.216 0-.411-.208-.302-.32-.535-.914-.233-.593-.7-.593h.33q-.213-.33-.155-.506l.034.002q.166 0 .219-.177.37-.35 1.38-.35zm1.147.057q.292 0 .836 1.255.545 1.254 1.77 2.314t1.974 2.577q.749 1.517 2.927 3.326-3.812-1.809-4.784-2.237-.973-.428-3.15-2.003-1.246-.914-1.246-1.459 0-.427.098-.739V8.1q.992 0 .992-.991 1.342-.661.583-2.023zm-.545 5.971q.37 1.77 1.829 3.91-.139.109-.302.109-.385 0-.904-.616 0-.972-.7-3.403zm.642.622q1.148.914 2.587 1.731v1.848q-.506-.39-1.011-.467-1.381-2.256-1.576-3.112zm.214 3.812q.265.336.546.336.255 0 .524-.277l.097 1.711q-.185-.041-.354-.041-.308 0-.56.138-.34-.113-.597-.113-.096 0-.18.016l.524-1.77zm.603-3.676l5.815 2.937q1.128 1.264 2.159 2.392v.02l-1.459.233-2.898-3.131q-.836-.68-3.617-2.45zM5.482 0h-.037q-.233.01-.486.4-.058.174-.243.388-.185.214-.535.428-.35.214-.505.34-.156.127-.525.458-.312.252-.448.408-.31-.194-.525-.476-.214-.282-.233-.516-.02-.233.048-.37.069-.135.214-.165.04-.008.08-.008.103 0 .202.057.136.078.117.272-.039.175-.253.214-.058-.025-.095-.025-.05 0-.06.045-.04.252.194.272l.05.002q.2 0 .33-.138.145-.156.126-.525Q2.762.652 2.47.613 2.417.606 2.364.606q-.237 0-.468.144-.282.175-.311.544-.03.37.263.749.291.379.641.632-.272.35-.564.875H1.09q.506.545.603 1.536h-.04q-.346 0-.29.331-.545.156-.545 1.03.181-.105.34-.105.044 0 .088.009.233 0 .379.544.146.545.632 1.206v.02q-.117.233-.117.738 0 .506.895 1.459.895 3.073.875 4.493 0 .175.253.213l-.642 2.14q-.052-.004-.106-.004-.272 0-.604.082-.19.046-.388.046-.219 0-.448-.056-.253-.062-.497-.062-.177 0-.349.033-.272.051-.432.051-.08 0-.132-.012Q.058 17.358 0 18q.337-.194.514-.194.089 0 .138.048.145.146.573.146h5.66q.37 0 .583-.156.071-.051.169-.051.194 0 .492.207.02-.622-.66-.797-.386.143-.696.143-.238 0-.433-.085l-.097-1.925q.532.736.93.736.17 0 .315-.134-.137-1.186-.137-2.178l.545.33q.467.215 2.052 2.024 1.52 1.734 1.814 1.734.013 0 .024-.004l1.847-.389q.292-.097.117-.291l-1.46-1.654q1.362.875 2.042 1.167-.33-.37-1.108-.934l.389.136q.233-.039.194-.37-3.384-2.45-4.298-4.22-.914-1.77-2.149-2.878-1.235-1.108-1.838-2.49-.37-.874-.758-1.186L6.573.633 6.146.399 5.134 2.597l.098-.447q.116-.467.252-.7.137-.234.273-.331.291-.428.291-.661 0-.234-.175-.35Q5.693 0 5.481 0zm25.689 2.85q-1.86 2.528-5.353 2.597-3.47-.069-5.33-2.597zm-11.838-.6q1.906 3.812 6.485 3.827 4.601-.015 6.507-3.827zm6.463 8.905l.1.001h.051q1.868 0 3.562 1.606l-1.049.847q-.98-.936-2.564-.936-1.583 0-2.564.936l-1.048-.847q1.672-1.607 3.512-1.607zm.1 2.164q1.762.023 2.899 1.851h-5.82q.892-1.828 2.921-1.85zm0-2.854q-2.765.112-4.66 2.275l1.583 1.338q-.67.892-.825 1.672h7.782q-.156-.78-.825-1.65l1.472-1.338q-1.762-2.185-4.527-2.297zm9.896-7.739q-.278 0-.278.328 0 .278.278.278.295-.016.295-.311t-.295-.295zm-1.082.213v.295l-.639.115q.295-.312.64-.41zm.033.393q.377.295.131.443-.377-.131-.557-.344l.426-.099zm1.148-.754q.77 0 1.23.59.458.59.491 1.82 1.197.246 1.59 1.082.064.542-.244.542l-.018-.001q-.328-.016-.516-.18-.07-.06-.104-.06-.061 0-.02.183.066.287.722.696.656.41.106.68-.136.068-.29.068-.466 0-1.095-.616-.836-.82-.885-1.246-.05-.427.344-.787.234-.215.16-.215-.049 0-.242.1-.475.246-.5.721-.024.476.377 1.041.402.566 1.582 1.435.12.063.273.063.325 0 .793-.285.688-.418-.689-1.286.508-.132.525-.443.64.213 3.59 3.967.787.525.803.77-.016.23-.246.28-.049.01-.1.01-.185 0-.391-.142-.918.443-1.78.46h-.089q-.8 0-1.328-.28.54.476.377 1-.08.255-.12.255-.044 0-.044-.287 0-.558-1.426-1.066v.623q-.084.353-.134.353-.047 0-.063-.32-.098-.705-.467-1.517-.369-.811-1.172-2.245-.804-1.435-1.025-2.066-.221-.631-.205-1.172.017-.541-.221-.795t-.14-.55q.099-.295-.295-.557v-.278q.427-.345.886-.345zm3.114 9.443q.804.23.804.54l-.541 2.017q-.066.361-.443.361h-.656v-.033l.836-2.557v-.328zM35.95 2.25h-.06q-.639 0-1.294.525-.377.131-.77.607.54.491.983.606.049.23.311.64.017 1.081.295 1.795.279.713 1.87 3.827.786 1.64.786 2.017 0 .574-.721 2.574 0 .114-.984.18-1.475.05-1.475.41 0 .213.196.213h4.361q.41-.328.46-.558.393.164.425.443.056.221.157.221.02 0 .04-.008.131-.049.131-.213-.115-.443-.574-.852l.525-2.213q1.59-.05 2.77-.509.22.05.401.05.365 0 .583-.197.328-.295-.131-.918-1-1-1.902-2.197-1.852-2.279-2.54-2.64-.23-.475-.55-.753-.32-.28-1.156-.689-.016-.967-.45-1.672-.425-.689-1.687-.689zm13.218 5.953c-.511.04-.794.296-.847.767.067.51.35.78.847.806.497-.026.76-.295.786-.806-.04-.47-.302-.726-.786-.767zm.06-1.694c.363 0 .7.068 1.008.202a2.659 2.659 0 0 1 1.371 1.361c.135.303.202.622.202.958 0 .35-.067.676-.201.978a2.567 2.567 0 0 1-2.38 1.523c-.363 0-.702-.064-1.018-.192a2.426 2.426 0 0 1-.817-.534 2.621 2.621 0 0 1-.545-.797 2.38 2.38 0 0 1-.201-.978c0-.336.067-.655.201-.958.135-.302.316-.571.545-.806.228-.236.5-.42.817-.555a2.574 2.574 0 0 1 1.018-.202zm-.04-.685c-.444 0-.86.084-1.25.252-.39.168-.727.396-1.009.685a3.36 3.36 0 0 0-.676 1.009 3.053 3.053 0 0 0-.252 1.24c0 .444.084.857.252 1.24.169.384.394.716.676.999a3.2 3.2 0 0 0 2.259.927c.443 0 .857-.084 1.24-.252a3.36 3.36 0 0 0 1.008-.675c.29-.283.518-.615.686-.999.168-.383.252-.796.252-1.24 0-.444-.084-.857-.252-1.24a3.268 3.268 0 0 0-1.694-1.694 3.053 3.053 0 0 0-1.24-.252zm5.91-.194q.243 0 .549.228-.304.568-.685.907-.259.23-.428.23-.08 0-.14-.05-.186-.16-.048-.575.139-.415.47-.65.129-.09.282-.09zm3.476.002q.238 0 .532.226-.29.582-.671.914-.261.227-.434.227-.08 0-.14-.048-.194-.152-.049-.567.146-.415.478-.657.13-.095.284-.095zm3.378 0q.242 0 .544.226-.29.582-.678.92-.264.231-.435.231-.08 0-.14-.05-.186-.16-.048-.575.139-.415.47-.657.131-.095.287-.095zm-5.267-1.033v5.59h-.706V4.6zm3.459 0v5.59h-.706V4.6zm3.39 0v5.59h-.72V4.6zm.498 6.074q.512 0 .512.36t-.526.374h-8.51v-.734zm1.812 1.01q.115 0 .332.18.913.913.554 1.522-.72 0-.997-1.273-.067-.428.11-.428zM55.634 4.17v1.204q-.238-.15-.477-.15-.485 0-.977.62-.401.568-.276 1.107.161.471.623.471h.027q.622-.263 1.08-.941v3.708h-.72v1.702h.72v.802h1.355v-.844h2.117v.9h1.342v-.913h2.034v.913h1.342v-.927h1.356l.014.221q.263 1.398 1.273 1.771.088.016.167.016.42 0 .594-.43.221-1.066-.844-2.021l-.941-.443q-.47-.18-.65-.747h-.955V4.17h-1.356v1.204q-.233-.148-.467-.148-.49 0-.986.646-.401.554-.277 1.093.162.471.624.471h.027q.622-.263 1.079-.969v3.722h-2.034V4.17h-1.342v1.204q-.237-.148-.473-.148-.493 0-.98.646-.415.554-.29 1.093.166.47.65.47.636-.262 1.093-.968v3.722h-2.117V4.17zm15.099-1.444q-.279 0-.279.328 0 .278.279.278.295-.016.295-.311t-.295-.295zm-1.082.213v.295l-.64.115q.295-.312.64-.41zm.033.393q.377.295.13.443-.376-.131-.557-.344l.427-.099zm1.147-.754q.77 0 1.23.59.459.59.491 1.82 1.197.246 1.59 1.082.064.542-.243.542l-.019-.001q-.328-.016-.516-.18-.069-.06-.104-.06-.06 0-.02.183.066.287.722.696.656.41.107.68-.136.068-.29.068-.467 0-1.095-.616-.837-.82-.886-1.246-.049-.427.345-.787.233-.215.16-.215-.05 0-.242.1-.476.246-.5.721-.025.476.377 1.041.401.566 1.582 1.435.12.063.273.063.324 0 .792-.285.689-.418-.688-1.286.508-.132.524-.443.64.213 3.59 3.967.787.525.804.77-.017.23-.246.28-.05.01-.1.01-.186 0-.392-.142-.918.443-1.779.46h-.09q-.8 0-1.328-.28.541.476.377 1-.08.255-.12.255-.044 0-.044-.287 0-.558-1.426-1.066v.623q-.084.353-.133.353-.048 0-.064-.32-.098-.705-.467-1.517-.369-.811-1.172-2.245-.803-1.435-1.025-2.066-.22-.631-.204-1.172.016-.541-.222-.795-.237-.254-.14-.55.1-.295-.294-.557v-.278q.426-.345.885-.345zm3.115 9.443q.803.23.803.54l-.54 2.017q-.066.361-.443.361h-.656v-.033l.836-2.557v-.328zM70.89 2.25h-.059q-.64 0-1.295.525-.377.131-.77.607.54.491.983.606.05.23.312.64.016 1.081.295 1.795.278.713 1.869 3.827.786 1.64.786 2.017 0 .574-.72 2.574 0 .114-.985.18-1.475.05-1.475.41 0 .213.197.213h4.36q.41-.328.46-.558.393.164.426.443.055.221.157.221.019 0 .04-.008.13-.049.13-.213-.114-.443-.573-.852l.524-2.213q1.59-.05 2.77-.509.22.05.402.05.364 0 .583-.197.327-.295-.132-.918-1-1-1.901-2.197-1.853-2.279-2.541-2.64-.23-.475-.55-.753-.32-.28-1.155-.689-.017-.967-.451-1.672-.425-.689-1.687-.689z"/><path d="M16.708.375v17.25m0-17.25h2.625m-2.625 17.25h2.625m0-17.25h60.109m-60.109 17.25h60.109m0-17.25h17.625m-17.625 17.25h17.625M81.204.375v17.25M84.73.375v17.25M86.492.375v17.25M88.254 2.1h8.813m-8.813 3.45h8.813M88.254 2.1v3.45m1.763-1.725h7.05m-8.813 3.45h8.813m-8.813 3.45h8.813m-8.813-3.45v3.45M90.017 9h7.05m-8.813 3.45h8.813m-8.813 3.45h8.813m-8.813-3.45v3.45m1.763-1.725h7.05" fill="none" stroke="#000"/></svg>