<svg xmlns="http://www.w3.org/2000/svg" width="14.263" height="18"><path d="M1.485 7.336c.333.128.695.536.801.873.106.336.094.73.019 1.116-.075.38-.224.741-.405.978-.125.162-.237.256-.343.287h-.1c-.106-.025-.243-.119-.38-.287-.18-.237-.33-.598-.405-.978-.075-.387-.087-.78.019-1.116.106-.337.503-.774.794-.868v-.005zM1.133 0v.748H.46v.48h.673l-.093 5.66c-.48.249-.78.673-.923 1.128-.143.467-.15.972-.056 1.44.094.467.28.878.536 1.209.193.249.449.455.748.517v.019a.173.173 0 0 0 .056.006c.025 0 .05-.006.075-.006a.442.442 0 0 0 .087.006c.025 0 .044 0 .069-.006v-.019c.299-.062.555-.268.748-.517a2.91 2.91 0 0 0 .536-1.21 2.968 2.968 0 0 0-.056-1.44 1.85 1.85 0 0 0-.923-1.109l-.093-5.678h.636l.018-.48h-.71V0h-.655zm6.43.372c.167.001.314.025.43.067-.019.14-.104.355-.593.482.455-.033.751-.07.905-.192.055.125.085.266.098.347.011.07.061.127.129.147.388.12.73.693 1.058 1.098.591.73 1.103 1.544 1.673 2.324l-.79-.387c-.736-.387-1.491-.692-2.121-1.169-.367-.305-.73-.62-.866-1.022-.047-.309.184-.668.478-.796a.185.185 0 1 0-.148-.339 1.215 1.215 0 0 0-.563.509 1.29 1.29 0 0 1 .046-.28.185.185 0 0 0 .008-.064.854.854 0 0 0-.05-.263C7.23.767 7.202.706 7.156.55a.185.185 0 0 0-.064-.096.963.963 0 0 1 .328-.078c.027-.002.052-.002.078-.002a.16.16 0 1 0 .064-.001zm.743 3.381c.377.29.78.544 1.175.797-.003.273.004.548.03.823a1.38 1.38 0 0 0-.434-.187c-.244-.396-.511-.76-.674-1.147a2.835 2.835 0 0 1-.097-.286zm-.155.624c.17.341.387.647.578.951a.774.774 0 0 0-.096.076l-.017.017a1.067 1.067 0 0 0-.382-.283 3.757 3.757 0 0 0-.083-.761zm1.793.028a16.14 16.14 0 0 1 .366.186c.486.237.971.48 1.463.715.346.417.72.804 1.08 1.195l-.65.109-1.595-1.735a.185.185 0 0 0-.025-.022 11.92 11.92 0 0 0-.639-.448zM8.331 5.656a.96.96 0 0 1 .1.138.185.185 0 0 0 .268.055c.077-.056.125-.11.165-.152l.048.88a2.925 2.925 0 0 0-.184-.008c-.104 0-.195.013-.248.067-.062-.049-.175-.062-.314-.062-.036 0-.073 0-.112.002l.277-.92zm-3.374.622c.281.039.427.201.438.488h-.868c0-.287.143-.45.43-.488zm4.894-1.487a10 10 0 0 1 .497.348l1.496 1.627h-1.53a.757.757 0 0 0-.483-.227.228.228 0 0 0-.119.028 1.86 1.86 0 0 0-.16-.006c-.086 0-.177.004-.27.01l-.05-.937c.139.071.253.175.389.337a.185.185 0 0 0 .323-.153 6.073 6.073 0 0 1-.093-1.027zM5.966 7.12l-.166.29h-.777l-.157-.29zm2.812 0v1.564L7.703 7.122zM7.568 0a2.414 2.414 0 0 0-.17.006c-.433.028-.757.203-.877.478a.185.185 0 0 0 .212.254L6.75.734l.018.005.068.018c.033.105.06.167.074.207a.34.34 0 0 1 .027.124 1.91 1.91 0 0 0-.023.865c.059.29.239.608.474.91a.167.167 0 0 0 .008.066c.114.348.247.821.342 1.262.094.441.145.864.12 1.049a.185.185 0 0 0 .138.205l.012.004-.329 1.089a1.113 1.113 0 0 0-.16-.011c-.16 0-.318.025-.444.025a.538.538 0 0 1-.115-.01.196.196 0 0 0-.042-.004c-.132 0-.409.08-.49.228h-.684c-.039-.496-.3-.769-.786-.819-.49.05-.744.323-.76.82v.355h.33l.339.628h1.1l.33-.628h.976L8.77 9.297v1.91h.356V7.122h2.812v-.255l.062.067a.185.185 0 0 0 .167.058l1.083-.182a.185.185 0 0 0 .108-.306c-.135-.151-.272-.3-.409-.446l1.031.671a.184.184 0 0 0 .257-.054.185.185 0 0 0-.055-.256l-.837-.545a.182.182 0 0 0 .048-.057.196.196 0 0 0 .012-.147.187.187 0 0 0-.03-.058c-.034-.047-.052-.055-.077-.074a1.83 1.83 0 0 0-.081-.058l-.188-.125a2.588 2.588 0 0 1-.134-.097l-1.481-1.041-.005-.003c-.501-.704-.976-1.442-1.53-2.126-.27-.333-.584-.949-1.128-1.179-.03-.163-.098-.423-.301-.621C8.229.074 7.911 0 7.567 0zM3.122 13.683h.002c1.014 0 2.166.066 4.011.066 1.847 0 2.996-.066 4.009-.066.105 0 .21.001.313.003-.671.348-1.654.828-2.302 1.004a7.14 7.14 0 0 1-1.974.25c-.528 0-1.17-.03-1.975-.25-.648-.176-1.633-.657-2.304-1.006h.22zm1.739 1.575h-.004c-.16.009-.815.586-1.054.9-.155.202-.197.462-.044.583.043.034.094.05.148.05.133 0 .284-.095.395-.24.254-.334.676-1.21.58-1.287a.034.034 0 0 0-.021-.006zm4.59 0h-.003a.032.032 0 0 0-.019.006c-.096.076.327.953.581 1.287.11.145.262.24.395.24a.233.233 0 0 0 .148-.05c.153-.121.11-.38-.044-.584-.24-.315-.905-.899-1.058-.899zm-3.84.187h-.003c-.14.013-.661.76-.824 1.132-.102.235-.082.497.096.577a.22.22 0 0 0 .093.02c.15 0 .304-.143.388-.336.17-.387.373-1.34.262-1.391a.028.028 0 0 0-.012-.002zm3.09 0h-.004a.026.026 0 0 0-.008.002c-.111.05.093 1.004.261 1.39.085.194.24.337.388.337a.226.226 0 0 0 .094-.02c.177-.08.198-.342.095-.577-.163-.375-.694-1.132-.827-1.132zm-2.176.14h-.001c-.129.009-.542.85-.647 1.249-.066.248-.005.504.182.555.02.006.04.008.06.008.162 0 .31-.175.367-.397.108-.408.164-1.383.046-1.415a.027.027 0 0 0-.007 0zm1.261 0H7.78c-.118.032-.062 1.007.045 1.415.058.222.206.397.368.397.02 0 .04-.002.06-.008.187-.05.247-.307.182-.555-.106-.401-.523-1.25-.649-1.25zm-.66.012h-.001c-.122.014-.313.959-.313 1.378 0 .258.123.489.317.489.19 0 .314-.231.314-.489 0-.423-.194-1.378-.315-1.378h-.002zm-.202-2.624h.207c1.374 0 2.578 0 3.52.019.943.018 1.637.059 1.926.12.252.052.551.187.778.374.226.187.374.414.391.662.079 1.12.046 2.248.007 3.383h-.045c.034-.548.053-1.175.044-1.763-.01-.679-.048-1.284-.157-1.67-.131-.464-.505-.777-.933-.818a15.718 15.718 0 0 0-1.527-.066c-1.026 0-2.173.065-4 .065-1.826 0-2.976-.065-4.004-.065-.517 0-1.004.016-1.53.066-.452.043-.803.41-.933.868-.108.385-.147.979-.157 1.645-.01.577.01 1.194.043 1.738H.51c-.039-1.135-.071-2.263.007-3.383.018-.249.167-.484.392-.673.225-.19.522-.322.767-.361.713-.115 2.623-.14 5.146-.141h.103zm-.083-.47h-.143c-2.459.002-4.285.016-5.098.147-.342.055-.7.218-.994.466-.294.247-.529.589-.558 1-.086 1.227-.043 2.446 0 3.658L.056 18h1.002l-.02-.252A22.593 22.593 0 0 1 .98 15.8c.01-.649.06-1.242.14-1.524.087-.309.31-.508.525-.529.112-.01.221-.02.33-.027.274.155 1.998 1.12 3.108 1.423a7.67 7.67 0 0 0 2.098.267 7.67 7.67 0 0 0 2.098-.267c1.095-.299 2.789-1.242 3.096-1.416l.242.02c.24.023.44.175.526.479.08.28.13.887.14 1.549.01.662-.015 1.392-.059 1.973l-.019.252h1.002l.008-.226c.042-1.212.085-2.431 0-3.659-.03-.411-.268-.748-.561-.99a2.32 2.32 0 0 0-.98-.473c-.384-.08-1.064-.111-2.013-.13-.95-.018-2.156-.018-3.53-.018h-.29z"/></svg>