<svg xmlns="http://www.w3.org/2000/svg" width="12.043" height="18"><path d="M2.21.308q-.074.776-.074 1.74t.094 1.948q-.214-.113-.67-.113-.461 0-.669.113.1-.984.094-1.948Q.978 1.084.91.308zm-.65 3.99q.456.006.924.24l-.12.222q-.095-.017-.177-.017-.285 0-.426.197-.08-.354-.2-.435-.12.08-.208.435-.14-.197-.425-.197-.083 0-.177.017l-.12-.221q.481-.235.93-.241zm0 .642q.101.08.068.235-.034.154-.067.294-.04-.14-.074-.294-.033-.154.074-.235zm.61.002q.038 0 .08.005-.455 1.085-.69 1.085-.227 0-.702-1.085.043-.005.081-.005.244 0 .314.22.087.247.18.401.1.16.128.16.033 0 .12-.16.094-.154.174-.402.075-.22.315-.22zM.516 0Q.838 2.276.51 4.104q-.596.28-.496.475.074.147.169.147.035 0 .072-.02.583.656.958 1.546.147 1.467-.04 5.068 0 .716.374.716h.021q.374 0 .374-.716-.18-3.601-.04-5.068.368-.89.95-1.546.038.02.073.02.095 0 .169-.147.1-.194-.49-.475-.334-1.828 0-4.104zm6.162.308q-.074.776-.074 1.74t.094 1.948q-.215-.113-.67-.113-.462 0-.67.113.101-.984.095-1.948-.007-.964-.074-1.74zm-.65 3.99q.455.006.924.24l-.12.222q-.095-.017-.178-.017-.285 0-.425.197-.08-.354-.2-.435-.121.08-.208.435-.14-.197-.426-.197-.082 0-.177.017l-.12-.221q.482-.235.93-.241zm0 .642q.1.08.067.235-.033.154-.067.294-.04-.14-.073-.294-.034-.154.073-.235zm.61.002q.038 0 .08.005-.455 1.085-.69 1.085-.227 0-.703-1.085.043-.005.082-.005.244 0 .313.22.087.247.181.401.1.16.127.16.034 0 .12-.16.094-.154.175-.402.075-.22.315-.22zM4.984 0q.321 2.276-.007 4.104-.596.28-.495.475.073.147.168.147.035 0 .073-.02.582.656.957 1.546.147 1.467-.04 5.068 0 .716.375.716h.02q.375 0 .375-.716-.18-3.601-.04-5.068.368-.89.95-1.546.038.02.073.02.095 0 .168-.147.1-.194-.488-.475-.335-1.828 0-4.104zm6.161.308q-.073.776-.073 1.74t.093 1.948q-.214-.113-.67-.113-.461 0-.669.113.1-.984.094-1.948-.006-.964-.073-1.74zm-.65 3.99q.456.006.925.24l-.12.222q-.095-.017-.178-.017-.285 0-.425.197-.08-.354-.201-.435-.12.08-.208.435-.14-.197-.425-.197-.082 0-.177.017l-.12-.221q.481-.235.93-.241zm0 .642q.101.08.068.235-.034.154-.067.294-.04-.14-.074-.294-.033-.154.074-.235zm.61.002q.038 0 .08.005-.455 1.085-.69 1.085-.227 0-.702-1.085.043-.005.081-.005.245 0 .314.22.087.247.18.401.101.16.128.16.033 0 .12-.16.094-.154.174-.402.076-.22.316-.22zM9.453 0q.32 2.276-.007 4.104-.596.28-.495.475.073.147.168.147.035 0 .073-.02.582.656.957 1.546.147 1.467-.04 5.068 0 .716.374.716h.021q.374 0 .374-.716-.18-3.601-.04-5.068.369-.89.95-1.546.039.02.073.02.095 0 .169-.147.1-.194-.489-.475-.334-1.828 0-4.104zM2.636 14.355h.002c.856 0 1.829.055 3.387.055 1.559 0 2.53-.055 3.385-.055.089 0 .177 0 .264.002-.567.294-1.397.7-1.943.848a6.043 6.043 0 0 1-1.668.212c-.445 0-.987-.026-1.667-.212-.547-.149-1.379-.554-1.945-.849l.185-.001zm1.468 1.33h-.003c-.135.007-.688.494-.89.759-.13.172-.166.39-.037.493.037.029.08.042.125.042.112 0 .24-.08.333-.203.215-.282.572-1.022.49-1.086a.029.029 0 0 0-.018-.005zm3.876 0h-.002a.027.027 0 0 0-.016.005c-.081.064.275.804.49 1.086.094.123.222.203.334.203a.197.197 0 0 0 .124-.042c.13-.102.094-.321-.036-.493-.203-.267-.764-.759-.894-.759zm-3.242.157h-.003c-.117.012-.558.643-.695.956-.087.199-.07.42.08.488a.19.19 0 0 0 .08.017c.126 0 .256-.12.327-.284.143-.327.314-1.132.22-1.175a.023.023 0 0 0-.009-.002zm2.608 0h-.002l-.007.002c-.094.043.078.848.22 1.175.072.163.202.284.328.284a.19.19 0 0 0 .08-.017c.15-.068.166-.29.08-.488-.139-.316-.586-.956-.699-.956zm-1.836.118h-.002c-.108.008-.457.718-.546 1.055-.055.21-.004.426.154.47a.191.191 0 0 0 .05.006c.137 0 .262-.148.311-.335.09-.345.138-1.168.039-1.195H5.51zm1.064 0h-.002l-.003.001c-.1.027-.052.85.038 1.195.05.187.174.335.311.335a.191.191 0 0 0 .05-.007c.159-.043.21-.259.154-.469-.089-.338-.441-1.055-.548-1.055zm-.557.01h-.001c-.103.013-.264.81-.264 1.165 0 .217.104.412.268.412.16 0 .265-.195.265-.412 0-.357-.164-1.164-.266-1.164h-.002zm-.17-2.215h.175c1.16 0 2.176 0 2.972.016.796.015 1.382.05 1.626.101.212.045.465.159.656.317.192.158.317.35.331.558.066.946.04 1.899.006 2.857h-.038c.029-.462.044-.992.037-1.489-.009-.573-.04-1.084-.133-1.41-.11-.392-.426-.656-.788-.69a13.272 13.272 0 0 0-1.29-.057c-.865 0-1.834.056-3.376.056-1.543 0-2.513-.056-3.381-.056-.437 0-.848.014-1.292.057-.382.036-.678.345-.788.733-.091.324-.124.826-.133 1.389a19.42 19.42 0 0 0 .037 1.467H.43c-.033-.958-.06-1.91.006-2.857.015-.21.14-.408.33-.568.19-.16.441-.272.648-.305.603-.097 2.216-.117 4.345-.119h.087zm-.07-.396h-.121c-2.076 0-3.619.013-4.305.124-.29.046-.591.184-.84.393-.248.208-.446.497-.47.844-.073 1.036-.036 2.066 0 3.089L.046 18h.846l-.016-.213a19.077 19.077 0 0 1-.05-1.644c.009-.549.051-1.05.118-1.288.074-.26.262-.429.444-.446.094-.009.187-.017.279-.023.231.131 1.687.946 2.624 1.202.723.197 1.31.225 1.771.225.462 0 1.049-.028 1.772-.225.924-.253 2.355-1.05 2.615-1.196.067.005.135.01.204.017.202.02.371.148.444.404.067.237.11.75.118 1.308.008.56-.013 1.175-.05 1.666L11.15 18h.846l.007-.191c.036-1.023.072-2.053 0-3.09-.025-.346-.226-.63-.474-.836a1.959 1.959 0 0 0-.828-.399c-.324-.067-.897-.094-1.7-.109-.801-.016-1.82-.016-2.98-.016h-.244z"/></svg>