<svg xmlns="http://www.w3.org/2000/svg" width="70.598" height="18"><path d="M3.01.474c.693 0 1.247.2 1.634.479.006.053.02.107.009.16-.05.248-.195.477-.396.63-.316.207-.697.267-1.057.356-.09.01-.019.031.031.04.23.04.707.099.971.099l.052-.001c.278-.032.54-.148.766-.311.079-.067.147-.15.205-.236.147.346.227.713.26.917.018.11.096.2.202.233 1.139.349 2.038 1.91 2.88 2.949 1.729 2.137 3.199 4.526 4.892 6.76-.937-.456-1.87-.916-2.81-1.374-1.92-1.01-3.92-1.816-5.604-3.09l-.008-.008c-.97-.808-1.963-1.66-2.339-2.793-.148-.92 1.757-2.577 1.542-2.646a.207.207 0 0 0-.064-.01c-.458 0-1.753 1.128-2.019 2.202-.003-.014-.01-.03-.014-.045-.073-.356-.154-1.256.068-1.98a.29.29 0 0 0 .01-.103 1.968 1.968 0 0 0-.123-.634c-.063-.17-.139-.344-.26-.765-.031-.108-.142-.328-.208-.345.186-.138.375-.28.645-.375a.434.434 0 0 0-.132.314c0 .23.164.415.365.415.2 0 .364-.186.364-.415V.894a.411.411 0 0 0-.255-.39c.053-.007.096-.019.154-.022.081-.006.16-.008.238-.008zm.67 7.763c.065.065.135.124.202.187.214.78.412 1.64.692 2.305.483 1.145 1.216 2.141 1.84 3.154a1.814 1.814 0 0 0-.385.27 6.831 6.831 0 0 0-.199.193 2.61 2.61 0 0 0-1.186-.897c.045-.723-.108-1.712-.34-2.787a34.903 34.903 0 0 0-.624-2.425zm1.006.908c1.149.945 2.428 1.738 3.676 2.54-.018.91-.018 1.778.084 2.675a3.411 3.411 0 0 0-1.437-.736c-.02 0-.037.012-.057.012-.649-1.063-1.383-2.06-1.837-3.134-.156-.37-.293-.85-.429-1.357zm.407 5.254a2.5 2.5 0 0 1 .44.541.3.3 0 0 0 .257.14.29.29 0 0 0 .17-.053c.215-.156.347-.324.476-.446.047-.045.097-.08.148-.117l.149 2.722c-.213-.014-.435-.035-.637-.035-.264 0-.495.036-.633.172-.169-.134-.497-.164-.89-.164-.102 0-.207.002-.316.004l.836-2.764zM6.25 9.574c1.354.787 2.784 1.414 4.135 2.125a.244.244 0 0 0 .006.003c1.295.631 2.586 1.28 3.894 1.904.984 1.189 2.052 2.295 3.078 3.42l-2.15.362-4.267-4.635a.288.288 0 0 0-.037-.036c-1.499-1.137-3.152-2.082-4.66-3.143zM3.076 0c-.135 0-.273.005-.411.013C1.58.083.792.54.523 1.157c-.04.093-.146.314-.007.314a2.35 2.35 0 0 1 .341-.028c.418 0 .38.172.47.194.09.282.29.846.303 1.068-.244.86-.153 1.763-.064 2.198.15.732.63 1.584 1.261 2.38a.285.285 0 0 0 0 .166 35.3 35.3 0 0 1 .903 3.336c.251 1.168.393 2.277.317 2.823a.294.294 0 0 0 .221.328c.045.011.084.031.127.045l-.928 3.079a2.847 2.847 0 0 0-.593-.055c-.381 0-.756.05-1.064.05-.125 0-.24-.008-.34-.032a.546.546 0 0 0-.125-.012c-.436 0-1.428.306-1.34.879.15-.128.257-.159.375-.159.11 0 .23.027.405.027h.027c.254-.004.697-.083 1.053-.083.18 0 .338.02.438.08.236-.01.45-.013.649-.013.85 0 1.447.07 2.5.075a89.565 89.565 0 0 0 2.974-.079c.45.003.697.054.922.054h.04c.134-.004.265-.057.48-.057.123 0 .273.017.468.07-.25-.341-.877-.685-1.33-.685a.591.591 0 0 0-.302.071 5.081 5.081 0 0 0-.508-.022c-.22 0-.448.01-.678.02l-.157-2.83c.487.203.857.517 1.281 1.021a.295.295 0 0 0 .513-.246c-.192-1.039-.213-2.019-.202-3.06.54.354 1.072.713 1.576 1.094l4.36 4.738a.29.29 0 0 0 .263.09c.95-.159 1.9-.315 2.849-.474a.294.294 0 0 0 .23-.193.298.298 0 0 0-.06-.297c-.741-.83-1.508-1.631-2.25-2.445 1.269.78 2.875 1.755 3.08 1.755.022 0 .027-.013.012-.04-.094-.163-.9-.755-1.775-1.373.14.058.276.12.415.177l.017.01c.103.035.16.059.27.062a.286.286 0 0 0 .108-.016.317.317 0 0 0 .188-.152.32.32 0 0 0 .023-.238c-.017-.05-.038-.077-.054-.098-.061-.085-.103-.109-.162-.154a4.553 4.553 0 0 0-.205-.149c-.153-.105-.336-.223-.493-.328a4.992 4.992 0 0 1-.328-.233.307.307 0 0 0-.028-.025l-3.892-2.736c-.008-.006-.02-.001-.028-.006-1.333-1.869-2.588-3.825-4.046-5.627-.744-.92-1.598-2.528-2.985-3.064-.067-.396-.218-1.127-.755-1.649C4.827.26 4.168.056 3.427.011A5.728 5.728 0 0 0 3.076 0zm24.167 2.537v.305h-.772v-.305zm.988.88q-.144.161-.144.556h-2.46q.019-.395-.125-.556zm0 1.13q-.18.162-.144.557h-2.46q.019-.395-.125-.556zm0 1.132q-.144.126-.144.556h-2.46q.037-.395-.125-.556zm-.072 1.13q-.251.45-.233 1.204h-2.173q.036-.754-.233-1.203zm-.233 1.33v.125h-2.173v-.126zm0 .25v.126h-2.173V8.39zm0 .252v.126h-2.173V8.64zm0 .251v.126h-2.173v-.126zm0 .252v4.362q.161.808.574 1.777h-3.303q.323-.718.556-1.777V9.144zM26.202 2.25v.592h-2.01q-.342.288 0 .575h.825q.162.161.144.556h-.97q-.34.288 0 .575h.826q.162.161.144.556h-.97q-.34.288 0 .575h.826q.18.161.144.556h-.97q-.34.27 0 .575h.826q.323.377.288 2.28v4.416q-.126.987-.88 2.244h4.919q-.862-1.436-.952-2.244V9.09q-.09-1.885.306-2.28h.843q.36-.27 0-.575h-.97q-.017-.43.127-.556h.897q.305-.305-.054-.575h-.97q-.017-.395.127-.556h.843q.341-.287 0-.575h-.97q-.017-.395.127-.556h.843q.341-.287 0-.575h-2.01V2.25zm9.593 4.798h.15q1.868 0 3.562 1.606l-1.048.848q-.981-.937-2.564-.937-1.583 0-2.565.937l-1.048-.848q1.672-1.606 3.513-1.606zm.1 2.164q1.761.022 2.899 1.85h-5.82q.892-1.828 2.92-1.85zm0-2.854q-2.765.111-4.66 2.274l1.582 1.338q-.668.892-.825 1.672h7.783q-.156-.78-.825-1.65l1.471-1.338Q38.66 6.47 35.895 6.358zm7.994-3.632q-.28 0-.28.328 0 .278.28.278.295-.016.295-.311t-.295-.295zm-1.082.213v.295l-.64.115q.295-.312.64-.41zm.032.393q.377.295.132.443-.377-.131-.558-.344l.426-.099zm1.148-.754q.77 0 1.23.59.458.59.491 1.82 1.197.246 1.59 1.082.064.542-.243.542l-.019-.001q-.328-.016-.516-.18-.069-.06-.104-.06-.06 0-.02.183.066.287.722.696.656.41.107.68-.137.068-.29.068-.467 0-1.096-.616-.836-.82-.885-1.246-.049-.427.344-.787.234-.215.161-.215-.05 0-.243.1-.475.246-.5.721-.024.476.378 1.041.401.566 1.581 1.435.121.063.274.063.324 0 .792-.285.689-.418-.688-1.286.508-.132.524-.443.64.213 3.59 3.967.787.525.804.77-.017.23-.246.28-.05.01-.1.01-.186 0-.392-.142-.918.443-1.779.46h-.09q-.8 0-1.328-.28.541.476.377 1-.08.255-.12.255-.044 0-.044-.287 0-.558-1.426-1.066v.623q-.084.353-.133.353-.048 0-.064-.32-.098-.705-.467-1.517-.369-.811-1.172-2.245-.803-1.435-1.025-2.066-.22-.631-.205-1.172.017-.541-.22-.795-.239-.254-.14-.55.098-.295-.295-.557v-.278q.426-.345.885-.345zm3.115 9.443q.803.23.803.54l-.541 2.017q-.066.361-.443.361h-.655v-.033l.836-2.557v-.328zM44.046 2.25h-.059q-.64 0-1.295.525-.377.131-.77.607.54.491.983.606.05.23.311.64.017 1.081.296 1.795.278.713 1.868 3.827.787 1.64.787 2.017 0 .574-.721 2.574 0 .114-.984.18-1.475.05-1.475.41 0 .213.197.213h4.36q.41-.328.46-.558.393.164.426.443.055.221.157.221.019 0 .04-.008.13-.049.13-.213-.114-.443-.573-.852l.524-2.213q1.59-.05 2.77-.509.22.05.402.05.364 0 .582-.197.328-.295-.13-.918-1-1-1.902-2.197-1.853-2.279-2.541-2.64-.23-.475-.55-.753-.32-.28-1.155-.689-.017-.967-.451-1.672-.425-.689-1.687-.689z"/><path d="M21.396.375v17.25m0-17.25h2.625m-2.625 17.25h2.625m0-17.25h28.577m-28.577 17.25h28.577m0-17.25h17.625m-17.625 17.25h17.625M54.36.375v17.25M57.885.375v17.25M59.648.375v17.25M61.41 2.1h8.813M61.41 5.55h8.813M61.41 2.1v3.45m1.763-1.725h7.05m-8.813 3.45h8.813m-8.813 3.45h8.813m-8.813-3.45v3.45M63.173 9h7.05m-8.813 3.45h8.813M61.41 15.9h8.813m-8.813-3.45v3.45m1.763-1.725h7.05" fill="none" stroke="#000"/></svg>