<svg xmlns="http://www.w3.org/2000/svg" width="15.882" height="18"><path d="M2.343.61l-.378 6.373h-.189L1.41.611zm-.938 6.675q.13 0 .282.009V9.87q.012.155-.122.155-.21 0-.588-.766Q.6 8.493.6 7.639q0-.354.805-.354zm.906 0q.82 0 .82.364 0 .844-.378 1.61-.377.766-.588.766-.133 0-.133-.155V7.294q.15-.01.279-.01zM0 0v.61h.877L1.5 6.584q.054.39-.04.39l-.005-.001q-.269-.119-.506-.119-.36 0-.648.274-.3.367.033 1.377.333 1.01.627 1.471.295.46.905.46.71 0 .96-.46t.606-1.465q.355-1.005 0-1.383-.358-.265-.716-.265-.242 0-.484.121-.055 0 0-.4l.61-5.973h.877V0zm6.599.275c.402 0 .723.116.947.277.004.031.012.063.005.093a.618.618 0 0 1-.229.366c-.183.12-.404.154-.613.206-.052.006-.01.018.018.023a4.278 4.278 0 0 0 .593.057.944.944 0 0 0 .444-.18.645.645 0 0 0 .119-.137c.085.2.132.413.151.531a.17.17 0 0 0 .117.135c.66.203 1.182 1.108 1.67 1.71 1.002 1.24 1.854 2.624 2.836 3.92-.543-.265-1.084-.532-1.629-.797-1.114-.586-2.273-1.053-3.25-1.791 0-.002-.002-.004-.004-.005-.562-.468-1.138-.963-1.356-1.62-.086-.533 1.019-1.493.894-1.534a.12.12 0 0 0-.037-.005c-.266 0-1.017.654-1.17 1.276l-.009-.026c-.042-.206-.09-.728.04-1.147a.168.168 0 0 0 .006-.06 1.141 1.141 0 0 0-.072-.368c-.036-.098-.08-.2-.15-.444-.019-.062-.083-.19-.121-.2.108-.08.217-.162.374-.217a.252.252 0 0 0-.077.182c0 .133.095.24.212.24.116 0 .211-.107.211-.24V.518a.238.238 0 0 0-.148-.226c.03-.004.056-.01.09-.013a2.16 2.16 0 0 1 .138-.004zm.388 4.5c.038.038.079.072.117.11.124.451.24.95.402 1.335.28.664.705 1.242 1.066 1.829a1.052 1.052 0 0 0-.223.156 3.96 3.96 0 0 0-.115.112 1.514 1.514 0 0 0-.688-.52c.026-.42-.062-.992-.196-1.616a20.236 20.236 0 0 0-.363-1.406zm.584.527c.666.548 1.407 1.008 2.13 1.473-.01.527-.01 1.03.05 1.55a1.978 1.978 0 0 0-.834-.426c-.011 0-.021.007-.033.007-.376-.617-.802-1.194-1.064-1.817a6.453 6.453 0 0 1-.25-.787zm.236 3.046c.094.089.18.191.255.314a.174.174 0 0 0 .149.081c.035 0 .069-.01.098-.03.125-.091.201-.189.276-.26a.772.772 0 0 1 .086-.068l.086 1.579c-.123-.008-.252-.02-.369-.02-.153 0-.287.02-.367.1-.098-.078-.288-.096-.516-.096l-.183.003.485-1.603zm.67-2.797c.786.456 1.615.82 2.398 1.232l.004.001c.75.367 1.5.743 2.257 1.104.57.69 1.19 1.33 1.785 1.983l-1.247.21c-.824-.897-1.65-1.79-2.473-2.687a.167.167 0 0 0-.022-.021c-.869-.66-1.827-1.207-2.701-1.822zM6.638 0C6.56 0 6.48.003 6.4.008c-.63.04-1.086.305-1.242.663-.024.054-.084.182-.004.182A1.363 1.363 0 0 1 5.35.837c.242 0 .22.1.272.112.053.164.168.49.176.62a2.892 2.892 0 0 0-.037 1.274c.086.424.365.918.731 1.38a.165.165 0 0 0 0 .096c.175.534.378 1.257.524 1.934.145.677.227 1.32.183 1.637a.17.17 0 0 0 .129.19c.025.006.048.018.073.026L6.864 9.89a1.65 1.65 0 0 0-.344-.032c-.22 0-.438.029-.617.029a.874.874 0 0 1-.197-.018.316.316 0 0 0-.072-.007c-.253 0-.828.177-.778.509.088-.074.15-.092.218-.092.064 0 .134.016.235.016a1 1 0 0 0 .015 0c.148-.003.405-.049.611-.049.105 0 .196.012.254.047.137-.006.26-.008.376-.008.493 0 .84.04 1.45.044a51.927 51.927 0 0 0 1.724-.046c.26.002.404.031.535.031h.023c.077-.002.153-.033.278-.033.071 0 .159.01.271.041-.145-.198-.508-.397-.771-.397a.343.343 0 0 0-.175.041 2.946 2.946 0 0 0-.295-.013c-.126 0-.259.005-.392.011l-.091-1.64c.282.118.496.3.742.592a.171.171 0 0 0 .298-.143c-.112-.602-.124-1.17-.117-1.773.313.205.62.413.913.634.843.915 1.686 1.83 2.528 2.747a.168.168 0 0 0 .153.052c.55-.093 1.1-.183 1.651-.275a.17.17 0 0 0 .133-.112.173.173 0 0 0-.034-.173c-.43-.48-.874-.945-1.305-1.417.736.453 1.667 1.018 1.786 1.018.013 0 .016-.008.007-.023-.055-.095-.522-.438-1.029-.797.08.034.16.07.24.103l.01.006c.06.02.093.034.156.036a.166.166 0 0 0 .064-.01.184.184 0 0 0 .109-.088.185.185 0 0 0 .013-.138c-.01-.03-.022-.044-.031-.057-.036-.049-.06-.062-.094-.089a2.64 2.64 0 0 0-.12-.086c-.088-.061-.194-.13-.285-.19a2.894 2.894 0 0 1-.207-.15c-.752-.53-1.504-1.057-2.256-1.586-.005-.004-.011 0-.016-.004-.773-1.083-1.5-2.218-2.346-3.262-.431-.533-.927-1.466-1.73-1.777-.04-.23-.127-.653-.438-.955C7.653.15 7.27.033 6.841.006A3.321 3.321 0 0 0 6.637 0zM3.477 13.193h.002c1.13 0 2.411.073 4.466.073 2.056 0 3.336-.073 4.464-.073.117 0 .233.001.348.003-.747.388-1.842.922-2.563 1.119a7.969 7.969 0 0 1-2.198.278 7.969 7.969 0 0 1-2.199-.278c-.722-.197-1.818-.732-2.565-1.12l.245-.002zm1.936 1.754h-.004c-.179.01-.909.652-1.175 1.001-.172.226-.219.515-.048.65a.26.26 0 0 0 .164.056c.148 0 .317-.107.44-.267.283-.373.753-1.349.647-1.433a.038.038 0 0 0-.024-.007zm5.11 0h-.002a.036.036 0 0 0-.022.007c-.106.084.364 1.06.648 1.433.122.16.291.267.439.267a.26.26 0 0 0 .164-.056c.171-.135.124-.424-.048-.65-.268-.351-1.007-1-1.179-1zm-4.275.208a.04.04 0 0 0-.004 0c-.154.015-.736.847-.916 1.26-.115.262-.092.554.105.643.034.016.07.023.105.023.166 0 .338-.16.432-.375.188-.43.414-1.493.29-1.549a.03.03 0 0 0-.012-.002zm3.44 0h-.003a.03.03 0 0 0-.01.002c-.123.056.104 1.118.291 1.549.094.215.266.375.432.375.036 0 .07-.007.105-.023.197-.089.22-.381.106-.643-.183-.417-.773-1.26-.921-1.26zm-2.422.155h-.002c-.143.01-.603.947-.72 1.392-.073.276-.006.561.202.618a.252.252 0 0 0 .067.009c.18 0 .345-.196.41-.442.12-.455.181-1.54.05-1.576a.03.03 0 0 0-.007 0zm1.404 0h-.003l-.004.001c-.131.036-.07 1.121.05 1.576.065.246.23.442.41.442a.252.252 0 0 0 .067-.01c.208-.056.275-.34.202-.617-.117-.447-.582-1.392-.722-1.392zm-.735.014h-.002c-.135.016-.348 1.068-.348 1.535 0 .286.137.544.353.544.213 0 .35-.258.35-.544 0-.47-.216-1.535-.351-1.535h-.002zm-.225-2.922h.23c1.53 0 2.871 0 3.92.021 1.05.02 1.823.066 2.145.133.28.06.613.21.866.418.252.208.416.46.436.737.087 1.247.051 2.503.007 3.766h-.05c.038-.609.059-1.308.049-1.962-.011-.756-.054-1.43-.175-1.86-.146-.517-.562-.865-1.039-.91a17.502 17.502 0 0 0-1.7-.075c-1.143 0-2.42.073-4.454.073s-3.314-.073-4.459-.073c-.576 0-1.117.019-1.703.075-.504.047-.895.455-1.04.966-.12.428-.163 1.09-.174 1.832-.01.642.01 1.329.048 1.934h-.05c-.043-1.263-.08-2.519.008-3.766.02-.277.185-.54.436-.75.25-.21.58-.358.854-.402.794-.128 2.921-.155 5.73-.157h.115zm-.092-.522h-.16c-2.738.001-4.772.017-5.676.163a2.34 2.34 0 0 0-1.107.518c-.328.275-.59.656-.621 1.113-.096 1.367-.048 2.725 0 4.074L.061 18h1.116l-.022-.28a25.157 25.157 0 0 1-.065-2.17c.011-.722.067-1.383.156-1.697.097-.343.345-.566.585-.588.124-.012.246-.022.367-.03.305.172 2.225 1.247 3.46 1.584a8.54 8.54 0 0 0 2.337.297 8.54 8.54 0 0 0 2.336-.297c1.22-.333 3.106-1.384 3.448-1.578l.27.024c.266.025.49.194.585.532.088.312.144.988.155 1.725.012.738-.016 1.55-.065 2.197l-.021.281h1.115l.01-.252c.047-1.349.094-2.707-.001-4.074-.032-.458-.297-.833-.625-1.103a2.583 2.583 0 0 0-1.09-.526c-.428-.09-1.185-.124-2.242-.144-1.058-.02-2.4-.021-3.93-.021h-.323z"/></svg>