<svg xmlns="http://www.w3.org/2000/svg" width="94.411" height="18"><path d="M3.01.474c.693 0 1.247.2 1.634.479.006.053.02.107.009.16-.05.248-.195.477-.396.63-.316.207-.697.267-1.057.356-.09.01-.019.031.031.04.23.04.707.099.971.099l.052-.001c.278-.032.54-.148.766-.311.079-.067.147-.15.205-.236.147.346.227.713.26.917.018.11.096.2.202.233 1.139.349 2.038 1.91 2.88 2.949 1.729 2.137 3.199 4.526 4.892 6.76-.937-.456-1.87-.916-2.81-1.374-1.92-1.01-3.92-1.816-5.604-3.09l-.008-.008c-.97-.808-1.963-1.66-2.339-2.793-.148-.92 1.757-2.577 1.542-2.646a.207.207 0 0 0-.064-.01c-.458 0-1.753 1.128-2.019 2.202-.003-.014-.01-.03-.014-.045-.073-.356-.154-1.256.068-1.98a.29.29 0 0 0 .01-.103 1.968 1.968 0 0 0-.123-.634c-.063-.17-.139-.344-.26-.765-.031-.108-.142-.328-.208-.345.186-.138.375-.28.645-.375a.434.434 0 0 0-.132.314c0 .23.164.415.365.415.2 0 .364-.186.364-.415V.894a.411.411 0 0 0-.255-.39c.053-.007.096-.019.154-.022.081-.006.16-.008.238-.008zm.67 7.763c.065.065.135.124.202.187.214.78.412 1.64.692 2.305.483 1.145 1.216 2.141 1.84 3.154a1.814 1.814 0 0 0-.385.27 6.831 6.831 0 0 0-.199.193 2.61 2.61 0 0 0-1.186-.897c.045-.723-.108-1.712-.34-2.787a34.903 34.903 0 0 0-.624-2.425zm1.006.908c1.149.945 2.428 1.738 3.676 2.54-.018.91-.018 1.778.084 2.675a3.411 3.411 0 0 0-1.437-.736c-.02 0-.037.012-.057.012-.649-1.063-1.383-2.06-1.837-3.134-.156-.37-.293-.85-.429-1.357zm.407 5.254a2.5 2.5 0 0 1 .44.541.3.3 0 0 0 .257.14.29.29 0 0 0 .17-.053c.215-.156.347-.324.476-.446.047-.045.097-.08.148-.117l.149 2.722c-.213-.014-.435-.035-.637-.035-.264 0-.495.036-.633.172-.169-.134-.497-.164-.89-.164-.102 0-.207.002-.316.004l.836-2.764zM6.25 9.574c1.354.787 2.784 1.414 4.135 2.125a.244.244 0 0 0 .006.003c1.295.631 2.586 1.28 3.894 1.904.984 1.189 2.052 2.295 3.078 3.42l-2.15.362-4.267-4.635a.288.288 0 0 0-.037-.036c-1.499-1.137-3.152-2.082-4.66-3.143zM3.076 0c-.135 0-.273.005-.411.013C1.58.083.792.54.523 1.157c-.04.093-.146.314-.007.314a2.35 2.35 0 0 1 .341-.028c.418 0 .38.172.47.194.09.282.29.846.303 1.068-.244.86-.153 1.763-.064 2.198.15.732.63 1.584 1.261 2.38a.285.285 0 0 0 0 .166 35.3 35.3 0 0 1 .903 3.336c.251 1.168.393 2.277.317 2.823a.294.294 0 0 0 .221.328c.045.011.084.031.127.045l-.928 3.079a2.847 2.847 0 0 0-.593-.055c-.381 0-.756.05-1.064.05-.125 0-.24-.008-.34-.032a.546.546 0 0 0-.125-.012c-.436 0-1.428.306-1.34.879.15-.128.257-.159.375-.159.11 0 .23.027.405.027h.027c.254-.004.697-.083 1.053-.083.18 0 .338.02.438.08.236-.01.45-.013.649-.013.85 0 1.447.07 2.5.075a89.565 89.565 0 0 0 2.974-.079c.45.003.697.054.922.054h.04c.134-.004.265-.057.48-.057.123 0 .273.017.468.07-.25-.341-.877-.685-1.33-.685a.591.591 0 0 0-.302.071 5.081 5.081 0 0 0-.508-.022c-.22 0-.448.01-.678.02l-.157-2.83c.487.203.857.517 1.281 1.021a.295.295 0 0 0 .513-.246c-.192-1.039-.213-2.019-.202-3.06.54.354 1.072.713 1.576 1.094l4.36 4.738a.29.29 0 0 0 .263.09c.95-.159 1.9-.315 2.849-.474a.294.294 0 0 0 .23-.193.298.298 0 0 0-.06-.297c-.741-.83-1.508-1.631-2.25-2.445 1.269.78 2.875 1.755 3.08 1.755.022 0 .027-.013.012-.04-.094-.163-.9-.755-1.775-1.373.14.058.276.12.415.177l.017.01c.103.035.16.059.27.062a.286.286 0 0 0 .108-.016.317.317 0 0 0 .188-.152.32.32 0 0 0 .023-.238c-.017-.05-.038-.077-.054-.098-.061-.085-.103-.109-.162-.154a4.553 4.553 0 0 0-.205-.149c-.153-.105-.336-.223-.493-.328a4.992 4.992 0 0 1-.328-.233.307.307 0 0 0-.028-.025l-3.892-2.736c-.008-.006-.02-.001-.028-.006-1.333-1.869-2.588-3.825-4.046-5.627-.744-.92-1.598-2.528-2.985-3.064-.067-.396-.218-1.127-.755-1.649C4.827.26 4.168.056 3.427.011A5.728 5.728 0 0 0 3.076 0zm25.356 2.933v1.823q-.402-.6-2.414-.6H24.53V2.933zm.023-.683q-.82.152-2.437.152H24.02v2.285h1.997q1.055 0 1.51.22.464.22.904.63l.023 10.213h.881V2.25zm6.942 4.798h.15q1.868 0 3.562 1.606l-1.048.848q-.981-.937-2.565-.937-1.583 0-2.564.937l-1.048-.848q1.672-1.606 3.513-1.606zm.1 2.164q1.761.022 2.898 1.85h-5.82q.892-1.828 2.921-1.85zm0-2.854q-2.766.111-4.661 2.274l1.583 1.338q-.669.892-.825 1.672h7.782q-.156-.78-.825-1.65l1.472-1.338q-1.762-2.185-4.527-2.296zm7.993-3.632q-.278 0-.278.328 0 .278.278.278.295-.016.295-.311t-.295-.295zm-1.082.213v.295l-.639.115q.295-.312.64-.41zm.033.393q.377.295.131.443-.377-.131-.557-.344l.426-.099zm1.148-.754q.77 0 1.23.59.458.59.491 1.82 1.197.246 1.59 1.082.064.542-.244.542l-.018-.001q-.328-.016-.517-.18-.068-.06-.103-.06-.061 0-.02.183.066.287.722.696.656.41.106.68-.136.068-.29.068-.466 0-1.095-.616-.836-.82-.885-1.246-.05-.427.344-.787.234-.215.16-.215-.05 0-.242.1-.475.246-.5.721-.024.476.377 1.041.402.566 1.582 1.435.12.063.273.063.325 0 .793-.285.688-.418-.689-1.286.508-.132.525-.443.64.213 3.59 3.967.787.525.803.77-.016.23-.246.28-.049.01-.1.01-.185 0-.391-.142-.918.443-1.78.46h-.089q-.8 0-1.328-.28.54.476.377 1-.08.255-.12.255-.044 0-.044-.287 0-.558-1.426-1.066v.623q-.084.353-.134.353-.047 0-.063-.32-.098-.705-.467-1.517-.37-.811-1.172-2.245-.804-1.435-1.025-2.066-.221-.631-.205-1.172.017-.541-.221-.795t-.14-.55q.099-.295-.295-.557v-.278q.427-.345.886-.345zm3.114 9.443q.804.23.804.54l-.541 2.017q-.066.361-.443.361h-.656v-.033l.836-2.557v-.328zM43.648 2.25h-.06q-.639 0-1.294.525-.377.131-.77.607.54.491.983.606.049.23.311.64.017 1.081.295 1.795.279.713 1.87 3.827.786 1.64.786 2.017 0 .574-.721 2.574 0 .114-.984.18-1.475.05-1.475.41 0 .213.196.213h4.361q.41-.328.46-.558.393.164.425.443.056.221.157.221.02 0 .04-.008.131-.049.131-.213-.115-.443-.574-.852l.525-2.213q1.59-.05 2.77-.509.22.05.401.05.365 0 .583-.197.328-.295-.131-.918-1-1-1.902-2.197-1.852-2.279-2.54-2.64-.23-.475-.55-.753-.32-.28-1.156-.689-.016-.967-.45-1.672-.425-.689-1.687-.689zm13.218 5.953c-.511.04-.794.296-.847.767.067.51.35.78.847.806.497-.026.76-.295.786-.806-.04-.47-.302-.726-.786-.767zm.06-1.694c.363 0 .7.068 1.008.202a2.659 2.659 0 0 1 1.371 1.361c.135.303.202.622.202.958 0 .35-.067.676-.201.978a2.567 2.567 0 0 1-2.38 1.523c-.363 0-.702-.064-1.018-.192a2.426 2.426 0 0 1-.817-.534 2.621 2.621 0 0 1-.545-.797 2.38 2.38 0 0 1-.201-.978c0-.336.067-.655.201-.958.135-.302.316-.571.545-.806.228-.236.5-.42.817-.555a2.574 2.574 0 0 1 1.018-.202zm-.04-.685c-.444 0-.86.084-1.25.252-.39.168-.727.396-1.009.685a3.36 3.36 0 0 0-.676 1.009 3.053 3.053 0 0 0-.252 1.24c0 .444.084.857.252 1.24.168.384.394.716.676.999a3.2 3.2 0 0 0 2.259.927c.443 0 .857-.084 1.24-.252a3.36 3.36 0 0 0 1.008-.675c.29-.283.518-.615.686-.999.168-.383.252-.796.252-1.24 0-.444-.084-.857-.252-1.24a3.268 3.268 0 0 0-1.694-1.694 3.053 3.053 0 0 0-1.24-.252zm6.475 5.264c.4.153.838.645.965 1.05.128.406.113.879.023 1.344-.09.458-.27.894-.488 1.18-.15.195-.286.307-.413.345h-.12c-.128-.03-.293-.143-.458-.346-.218-.285-.398-.72-.488-1.179-.09-.465-.106-.938.022-1.344.128-.405.606-.931.957-1.046v-.004zm-.424-8.838v.901h-.81v.578h.81l-.112 6.818c-.579.3-.939.81-1.112 1.359a3.576 3.576 0 0 0-.067 1.734 3.49 3.49 0 0 0 .645 1.457c.233.3.541.548.901.623v.022c.023.008.046.008.068.008.03 0 .06-.008.09-.008a.532.532 0 0 0 .105.008c.03 0 .053 0 .083-.008v-.022c.36-.075.668-.323.9-.623a3.49 3.49 0 0 0 .647-1.457 3.576 3.576 0 0 0-.068-1.734 2.228 2.228 0 0 0-1.111-1.337l-.113-6.84h.766l.023-.578h-.856V2.25h-.789zm4.471 1.647q-.09 0-.215.11-.497.668-.535 1.909.153.973.687 2.748-.19 1.431-.286 3.931-.076.84.458 1.088 1.584.42 4.008.42 2.443 0 4.008-.42.553-.248.477-1.088-.096-2.5-.286-3.931.534-1.775.687-2.748-.038-1.241-.535-1.909-.125-.11-.216-.11-.128 0-.184.225.133.381.248.744.152.458.114.859-.038.649-.124 1.059-.086.41-.353.41l-.028.001q-.45 0-.45-1.203 0-.44.115-1.069-.098-.167-.211-.167-.107 0-.228.148-.057.458-.076 1.012-.076.84.4 2.366-.17 2.157-.17 4.313-1.299.21-3.188.267-1.87-.057-3.168-.267 0-2.156-.172-4.313.477-1.527.4-2.366-.018-.554-.076-1.012-.12-.148-.227-.148-.113 0-.211.167.114.63.114 1.069 0 1.203-.45 1.203h-.027q-.267 0-.353-.411-.086-.41-.124-1.06-.038-.4.114-.858.115-.363.248-.744-.056-.225-.185-.225z"/><path d="M21.396.375v17.25m0-17.25h2.625m-2.625 17.25h2.625m0-17.25h52.39m-52.39 17.25h52.39M76.41.375h17.626M76.41 17.625h17.626M78.173.375v17.25M81.698.375v17.25M83.46.375v17.25M85.223 2.1h8.813m-8.813 3.45h8.813M85.223 2.1v3.45m1.763-1.725h7.05m-8.813 3.45h8.813m-8.813 3.45h8.813m-8.813-3.45v3.45M86.986 9h7.05m-8.813 3.45h8.813m-8.813 3.45h8.813m-8.813-3.45v3.45m1.763-1.725h7.05" fill="none" stroke="#000"/></svg>