<svg xmlns="http://www.w3.org/2000/svg" width="79.514" height="18"><path d="M9.62 8.704c.336 0 .751.06 1.244.18 1.041.253 1.942.612 2.701 1.076a33.73 33.73 0 0 1 2.554 1.752c-.908.459-1.95.689-3.13.689-.265 0-.537-.012-.816-.035-1.52-.127-2.825-.574-3.915-1.34-1.09-.767-1.36-1.238-.812-1.414.548-.176.995-.404 1.34-.686.181-.148.459-.222.833-.222zm7.258 3.176l.865.19c0 .225-.204.408-.611.549-.233.016-.475.024-.727.024-.42 0-.867-.022-1.341-.066.914-.113 1.519-.345 1.814-.697zm1.33.317l.527.105c.057.17-.14.338-.59.507l-.613-.042c.437-.197.662-.387.676-.57zm.802.211l.358.084c-.084.24-.337.36-.76.36.24-.156.373-.303.402-.444zm.59.211c.338.098.563.26.676.485l-.95-.21c.183-.085.274-.177.274-.275zm-2.194 1.245c1.055.127 1.85.422 2.384.886l-2.616-.612c.028-.154.105-.246.232-.274zM5.188.401c.661 0 1.16.183 1.498.549.338.365.443 1.248.317 2.648-.127 1.4-.17 2.35-.127 2.849.042.5.172.868.39 1.108.218.239.482.474.792.706.31.233.154.44-.465.623s-.963.454-1.034.812c-.07.36.018.69.264.992.246.303.834.71 1.762 1.224.929.514 1.748.84 2.459.981.71.141 2.887.211 6.53.211 1.126.211 1.872.493 2.237.844l-2.405-.548a.943.943 0 0 0-.528.4c0 .366-.795.577-2.384.634-.24 0-.401-.33-.486-.992l-.253.211c.127.535.162 1.006.106 1.414a1.582 1.582 0 0 0-1.034-.95c-.788-.14-1.491-.27-2.11-.39-.62-.12-1.246-.376-1.879-.77-.562-.436-1.466-.908-2.711-1.414-1.245-.507-1.868-1.26-1.868-2.258 0-.999.334-1.825 1.003-2.48.668-.654 1.002-1.438 1.002-2.352 0-.45-.056-.876-.169-1.277-.102-.363-.405-.544-.91-.544a2.39 2.39 0 0 0-.166.006l-1.773.232a1.71 1.71 0 0 1 .254-.507c.14-.436.295-.689.464-.76.024.087.12.13.284.13.023 0 .048 0 .075-.003.281-.014.443-.154.485-.422-.028-.267-.19-.408-.485-.422-.254.014-.394.155-.422.422a2.29 2.29 0 0 0-.528.739c-.04.02-.08.03-.12.03a.277.277 0 0 1-.197-.093c.17-.338.415-.686.74-1.045.323-.359.787-.538 1.392-.538zm4.79 13.758l.675.17-.76 1.097.085-1.267zm1.308.233c.563 0 1.038.06 1.425.179.387.12.626.573.717 1.361.09.774-.027 1.161-.352 1.161h-2.043a1.842 1.842 0 0 0-.136-.005c-.345 0-.73.093-1.151.279.112-.985.626-1.977 1.54-2.975zM5.188 0C4.23 0 3.443.535 2.824 1.604c-.21.351-.837.703-1.878 1.055-.717.21-1.027.506-.928.886l.02.253c1.337-.126 2.456-.288 3.356-.485l1.646-.295a.89.89 0 0 1 .025 0c.49 0 .731.414.724 1.245-.007.844-.362 1.6-1.065 2.268C4.02 7.2 3.66 8.166 3.647 9.433c0 1.027.49 1.762 1.467 2.205.978.443 1.924.918 2.838 1.424.915.507 1.435.9 1.562 1.182-.07 1.491-.254 2.455-.549 2.89-.492 0-1.35-.07-2.574-.21-.38.056-.64.18-.781.37-.14.189-.113.397.084.622.094-.136.184-.204.27-.204.03 0 .06.008.089.024.113.064.394.095.844.095h2.068c.102-.02.198-.03.289-.03.236 0 .435.067.597.199a.988.988 0 0 0 .507-.169c.62.018 1.14.027 1.559.027.557 0 .934-.016 1.131-.048.345-.056.658-.105.94-.148l.717.232.024.001c.16 0 .181-.14.06-.423-.619-.337-.76-1.188-.422-2.553.12.003.234.004.345.004 1.113 0 1.842-.128 2.187-.384 1.407.253 2.554.5 3.44.739l.148-.253c-.366-.408-.64-.669-.823-.781l.928.19c.15.056.254.084.312.084.116 0 .047-.112-.206-.337-.057-.155-.464-.458-1.224-.908l1.287.253c.14-.9-.837-1.54-2.933-1.92a7.14 7.14 0 0 1-2.975-1.477c-1.168-1.027-2.934-1.78-5.297-2.258-1.252-.084-1.949-.468-2.09-1.15-.14-.682-.136-1.77.011-3.26.148-1.491-.06-2.462-.622-2.912C6.433.183 5.877 0 5.188 0z"/><path d="M15.54 2.697c-.579.046-.899.335-.96.869.076.579.396.884.96.914.564-.03.861-.335.892-.914-.046-.534-.343-.823-.892-.869zm.069-1.92c.411 0 .792.076 1.143.229a3.014 3.014 0 0 1 1.554 1.543c.152.342.228.704.228 1.085 0 .396-.076.766-.228 1.109a2.91 2.91 0 0 1-2.697 1.726 3.05 3.05 0 0 1-1.155-.218 2.75 2.75 0 0 1-.925-.605 2.97 2.97 0 0 1-.617-.903 2.698 2.698 0 0 1-.229-1.109c0-.38.076-.743.229-1.085a3.12 3.12 0 0 1 .617-.915c.259-.266.567-.476.925-.628A2.917 2.917 0 0 1 15.61.777zM15.563 0c-.503 0-.975.095-1.417.286-.442.19-.823.45-1.143.777-.32.327-.575.708-.766 1.143a3.46 3.46 0 0 0-.285 1.405c0 .503.095.972.285 1.406.19.434.446.812.766 1.132a3.627 3.627 0 0 0 2.56 1.051 3.46 3.46 0 0 0 1.406-.286c.434-.19.815-.445 1.143-.765a3.59 3.59 0 0 0 .777-1.132 3.46 3.46 0 0 0 .285-1.406 3.46 3.46 0 0 0-.285-1.405 3.704 3.704 0 0 0-1.92-1.92A3.46 3.46 0 0 0 15.563 0zm27.786 3.964v1.692H30.89V3.964zM30.936 2.25v1.28h-.48v2.56h13.327V3.53h-.389V2.25h-.434v1.28h-1.074V2.25h-.435v1.28h-1.074V2.25h-.434v1.28H38.89V2.25h-.457v1.28h-1.052V2.25h-.434v1.28h-1.074V2.25h-.435v1.28h-1.074V2.25h-.434v1.28h-1.052V2.25h-.434v1.28H31.37V2.25zm1.154 5.285l-1.634 1.933h.797l.838-.999.845.999.822-.999.845.999.838-.999.845.999.838-.999.845.999.821-.999.846.999.845-.999.822.999.845-.999.838.999h.797l-1.635-1.933-.845.934-.822-.934-.845.934-.846-.934-.82.934-.846-.934-.838.934-.845-.934-.838.934-.845-.934-.822.934-.845-.934zm-.631 3.858l.093.003c.409.03.857.185 1.344.468-.487.302-.935.465-1.344.49a1.297 1.297 0 0 1-.077.002c-.357 0-.531-.164-.522-.492-.009-.314.16-.471.506-.471zm0 2.907c.03 0 .06.001.093.004.409.029.857.185 1.344.467-.487.302-.935.465-1.344.49a1.298 1.298 0 0 1-.077.002c-.357 0-.531-.164-.522-.492-.009-.314.16-.47.506-.47zm-.054-3.387l-.08.001c-.52.02-.81.336-.869.95.077.653.355.979.834.979h.02c.493-.01 1.182-.185 2.068-.526h8.444c.691.058 1.04.38 1.044.964.005.584-.343.94-1.044 1.066h-8.444c-.805-.351-1.463-.527-1.973-.527l-.08.001c-.52.02-.81.336-.869.95.077.653.355.979.834.979h.02c.493-.01 1.182-.185 2.068-.526h8.067c.993 0 1.676-.311 2.05-.935.384-.643.384-1.286 0-1.928-.369-.615-1.037-.923-2.007-.923l-.134.002h-7.976c-.805-.351-1.463-.527-1.973-.527zM47.25 2.726q-.279 0-.279.328 0 .278.28.278.294-.016.294-.311t-.295-.295zm-1.082.213v.295l-.64.115q.296-.312.64-.41zm.033.393q.377.295.131.443-.377-.131-.557-.344l.426-.099zm1.148-.754q.77 0 1.229.59.46.59.492 1.82 1.197.246 1.59 1.082.064.542-.244.542l-.018-.001q-.328-.016-.517-.18-.068-.06-.103-.06-.061 0-.02.183.066.287.722.696.655.41.106.68-.136.068-.29.068-.466 0-1.095-.616-.836-.82-.885-1.246-.05-.427.344-.787.234-.215.16-.215-.05 0-.242.1-.475.246-.5.721-.025.476.377 1.041.402.566 1.582 1.435.12.063.273.063.324 0 .793-.285.688-.418-.689-1.286.508-.132.525-.443.639.213 3.59 3.967.787.525.803.77-.016.23-.246.28-.049.01-.1.01-.185 0-.392-.142-.918.443-1.778.46h-.09q-.8 0-1.328-.28.54.476.377 1-.08.255-.12.255-.044 0-.044-.287 0-.558-1.426-1.066v.623q-.084.353-.134.353-.047 0-.063-.32-.098-.705-.467-1.517-.37-.811-1.172-2.245-.804-1.435-1.025-2.066-.221-.631-.205-1.172.016-.541-.221-.795-.238-.254-.14-.55.099-.295-.295-.557v-.278q.427-.345.886-.345zm3.114 9.443q.804.23.804.54l-.541 2.017q-.066.361-.443.361h-.656v-.033l.836-2.557v-.328zM47.408 2.25h-.06q-.639 0-1.295.525-.377.131-.77.607.54.491.984.606.049.23.311.64.016 1.081.295 1.795.279.713 1.869 3.827.787 1.64.787 2.017 0 .574-.721 2.574 0 .114-.984.18-1.475.05-1.475.41 0 .213.196.213h4.36q.41-.328.46-.558.393.164.426.443.055.221.157.221.02 0 .04-.008.131-.049.131-.213-.115-.443-.574-.852l.525-2.213q1.59-.05 2.77-.509.219.05.401.05.364 0 .583-.197.328-.295-.131-.918-1-1-1.902-2.197-1.852-2.279-2.54-2.64-.23-.475-.55-.753-.32-.28-1.156-.689-.016-.967-.45-1.672-.425-.689-1.687-.689zm16.953.524q.95.562.95 1.686H63.42q0-1.124.941-1.686zm.95 2.21q-.213.751-.95.751-.736 0-.926-.751zm5.451 1.313v.896H57.968v-.896zm-6.4-4.047q-1.45.547-1.45 2.346 0 .684.295 1.14H57.46v1.981h13.805V5.735h-5.726q.296-.455.296-1.139 0-1.8-1.473-2.346zm-3.628 10.629c.805 0 1.814.414 2.301.902.427.426.483.992.499 1.518h-5.576c.015-.526.071-1.092.498-1.518.488-.488 1.472-.902 2.278-.902zm0-.451c-.956 0-1.984.441-2.587 1.044-.618.618-.688 1.432-.688 2.04v.238h6.55v-.237c0-.61-.047-1.423-.665-2.04-.603-.604-1.655-1.045-2.61-1.045zM70.789 9.96l-.048 5.268-2.776.047-.023-5.291 2.847-.024zm.475-.45l-3.773.023.023 6.217 3.678-.071.072-6.17z"/><path d="M30.456.375c-9.625 0-9.625 17.25 0 17.25m0-17.25h40.808m-40.808 17.25h40.808M78.951.375v17.25M71.264.375c9.625 0 9.625 17.25 0 17.25" fill="none" stroke="#000"/></svg>