<svg xmlns="http://www.w3.org/2000/svg" width="57.277" height="18"><path d="M21.112 3.964v1.692H8.654V3.964zM8.7 2.25v1.28h-.48v2.56h13.327V3.53h-.389V2.25h-.434v1.28h-1.075V2.25h-.434v1.28h-1.074V2.25h-.435v1.28h-1.051V2.25h-.457v1.28h-1.052V2.25h-.434v1.28h-1.074V2.25h-.435v1.28H12.13V2.25h-.434v1.28h-1.052V2.25h-.434v1.28H9.134V2.25zM9.855 7.535L8.22 9.468h.797l.838-.999.845.999.821-.999.846.999.837-.999.846.999.837-.999.846.999.821-.999.846.999.845-.999.822.999.845-.999.837.999h.798l-1.635-1.933-.845.934-.822-.934-.845.934-.846-.934-.821.934-.846-.934-.837.934-.846-.934-.837.934-.846-.934-.82.934-.846-.934zM9.223 11.393l.093.003c.409.03.857.185 1.344.468-.487.302-.935.465-1.344.49a1.297 1.297 0 01-.077.002c-.357 0-.531-.164-.522-.492-.01-.314.16-.471.506-.471zm0 2.907c.03 0 .06.001.093.004.409.029.857.185 1.344.467-.487.302-.935.465-1.344.49a1.298 1.298 0 01-.077.002c-.357 0-.531-.164-.522-.492-.01-.314.16-.47.506-.47zm-.054-3.387l-.08.001c-.52.02-.81.336-.869.95.077.653.355.979.833.979h.022c.491-.01 1.18-.185 2.067-.526h8.443c.692.058 1.04.38 1.045.964.005.584-.343.94-1.045 1.066h-8.443c-.805-.351-1.463-.527-1.973-.527l-.08.001c-.52.02-.81.336-.869.95.077.653.355.979.833.979h.022c.491-.01 1.18-.185 2.067-.526h8.067c.993 0 1.676-.311 2.05-.935.384-.643.384-1.286 0-1.928-.369-.615-1.037-.923-2.007-.923l-.134.002h-7.976c-.805-.351-1.463-.527-1.973-.527zM25.014 2.726q-.279 0-.279.328 0 .278.279.278.295-.016.295-.311t-.295-.295zm-1.082.213v.295l-.64.115q.296-.312.64-.41zm.033.393q.377.295.13.443-.376-.131-.557-.344l.427-.099zm1.147-.754q.77 0 1.23.59.459.59.492 1.82 1.196.246 1.59 1.082.063.542-.244.542l-.019-.001q-.327-.016-.516-.18-.068-.06-.103-.06-.062 0-.02.183.066.287.721.696.656.41.107.68-.136.068-.29.068-.467 0-1.095-.616-.836-.82-.886-1.246-.049-.427.345-.787.234-.215.16-.215-.05 0-.242.1-.476.246-.5.721-.025.476.377 1.041.401.566 1.582 1.435.12.063.273.063.324 0 .792-.285.689-.418-.688-1.286.508-.132.524-.443.64.213 3.59 3.967.788.525.804.77-.016.23-.246.28-.05.01-.1.01-.186 0-.392-.142-.918.443-1.779.46h-.09q-.8 0-1.328-.28.541.476.378 1-.08.255-.12.255-.044 0-.044-.287 0-.558-1.427-1.066v.623q-.084.353-.133.353-.047 0-.063-.32-.099-.705-.468-1.517-.368-.811-1.172-2.245-.803-1.435-1.024-2.066-.222-.631-.205-1.172.016-.541-.222-.795-.237-.254-.139-.55.098-.295-.295-.557v-.278q.426-.345.885-.345zm3.115 9.443q.803.23.803.54l-.54 2.017q-.066.361-.443.361h-.656v-.033l.836-2.557v-.328zM25.171 2.25h-.059q-.64 0-1.295.525-.377.131-.77.607.54.491.983.606.05.23.312.64.016 1.081.295 1.795.279.713 1.869 3.827.787 1.64.787 2.017 0 .574-.722 2.574 0 .114-.983.18-1.476.05-1.476.41 0 .213.197.213h4.36q.41-.328.46-.558.393.164.426.443.055.221.157.221.019 0 .04-.008.13-.049.13-.213-.114-.443-.573-.852l.525-2.213q1.59-.05 2.77-.509.219.05.4.05.365 0 .584-.197.328-.295-.131-.918-1-1-1.902-2.197-1.853-2.279-2.541-2.64-.23-.475-.55-.753-.319-.28-1.155-.689-.016-.967-.45-1.672-.425-.689-1.688-.689zM42.125 2.774q.95.562.95 1.686h-1.891q0-1.124.941-1.686zm.95 2.21q-.213.751-.95.751-.736 0-.926-.751zm5.451 1.313v.896H35.732v-.896zm-6.4-4.047q-1.451.547-1.451 2.346 0 .684.296 1.14h-5.748v1.981h13.804V5.735h-5.725q.296-.455.296-1.139 0-1.8-1.473-2.346zM38.497 12.879c.806 0 1.814.414 2.302.902.427.426.483.992.498 1.518h-5.576c.016-.526.072-1.092.499-1.518.487-.488 1.472-.902 2.277-.902zm0-.451c-.955 0-1.983.441-2.586 1.044-.618.618-.688 1.432-.688 2.04v.238h6.549v-.237c0-.61-.046-1.423-.664-2.04-.603-.604-1.655-1.045-2.61-1.045zM48.553 9.96l-.048 5.268-2.776.047-.024-5.291 2.848-.024zm.474-.45l-3.773.023.024 6.217 3.678-.071.071-6.17z"/><path d="M8.22.375c-9.625 0-9.625 17.25 0 17.25M8.22.375h40.807M8.22 17.625h40.807M56.715.375v17.25M49.027.375c9.625 0 9.625 17.25 0 17.25" fill="none" stroke="#000"/></svg>