<svg xmlns="http://www.w3.org/2000/svg" width="15.14" height="18"><path d="M3.526.546v1.456q-.322-.479-1.93-.479H.406V.546zM3.544 0q-.656.121-1.948.121H0v1.827h1.596q.843 0 1.207.176.37.176.723.503l.018 8.162h.704V0zm5.428.546v1.456q-.322-.479-1.93-.479h-1.19V.546zM8.99 0q-.655.121-1.948.121H5.446v1.827h1.596q.844 0 1.208.176.37.176.722.503l.018 8.162h.704V0zm5.428.546v1.456q-.321-.479-1.93-.479H11.3V.546zM14.436 0q-.655.121-1.947.121h-1.596v1.827h1.596q.843 0 1.207.176.37.176.722.503l.018 8.162h.704V0zM3.314 13.418h.002c1.077 0 2.3.069 4.258.069 1.96 0 3.18-.07 4.255-.07.112 0 .223.002.333.003-.713.37-1.756.88-2.443 1.067a7.597 7.597 0 0 1-2.096.265 7.6 7.6 0 0 1-2.096-.265c-.689-.188-1.734-.698-2.446-1.068l.233-.001zM5.16 15.09a.07.07 0 0 0-.004 0c-.17.009-.866.621-1.12.954-.164.215-.208.491-.046.62a.25.25 0 0 0 .157.052c.141 0 .302-.1.42-.254.27-.355.718-1.285.616-1.366a.036.036 0 0 0-.023-.006zm4.872 0h-.002a.034.034 0 0 0-.02.006c-.102.08.346 1.011.616 1.366.117.153.278.254.419.254.057 0 .11-.016.157-.053.162-.128.118-.404-.046-.62-.256-.334-.96-.953-1.124-.953zm-4.076.197h-.003c-.148.015-.702.808-.874 1.202-.109.25-.087.528.1.613a.24.24 0 0 0 .1.022c.159 0 .323-.152.412-.358.18-.41.395-1.423.278-1.476a.03.03 0 0 0-.013-.003zm3.28 0h-.003a.028.028 0 0 0-.01.003c-.117.053.099 1.066.278 1.476.09.206.253.358.412.358a.24.24 0 0 0 .1-.022c.188-.085.21-.363.1-.613-.173-.398-.736-1.201-.877-1.201zm-2.31.149h-.001c-.136.01-.575.903-.687 1.326-.07.264-.005.536.193.59a.24.24 0 0 0 .064.008c.172 0 .329-.186.39-.421.115-.434.174-1.468.05-1.502a.03.03 0 0 0-.008-.001zm1.34 0h-.008c-.124.035-.066 1.07.049 1.503.062.235.218.421.39.421a.24.24 0 0 0 .064-.008c.198-.054.262-.326.193-.59-.112-.426-.555-1.326-.689-1.326zm-.702.013c-.13.015-.333 1.018-.333 1.463 0 .273.13.519.337.519.202 0 .333-.246.333-.519 0-.449-.206-1.463-.335-1.463h-.002zm-.214-2.786h.22c1.458 0 2.737.001 3.737.02 1 .02 1.737.063 2.044.128.267.055.585.2.825.398s.398.439.416.702c.083 1.19.049 2.386.007 3.59h-.048c.037-.58.057-1.246.047-1.87-.01-.72-.051-1.363-.167-1.773-.139-.493-.535-.825-.99-.868a16.685 16.685 0 0 0-1.621-.07c-1.09 0-2.307.069-4.246.069-1.939 0-3.16-.07-4.25-.07-.55 0-1.066.018-1.625.07-.48.046-.852.435-.99.922-.115.409-.156 1.04-.167 1.746-.01.612.01 1.267.047 1.845H.54C.499 16.297.465 15.1.548 13.91c.019-.264.177-.514.416-.715a1.79 1.79 0 0 1 .814-.383c.757-.122 2.785-.148 5.462-.15h.11zm-.088-.498H7.11c-2.61.002-4.55.017-5.412.156a2.23 2.23 0 0 0-1.055.494c-.312.262-.561.626-.592 1.061-.09 1.303-.045 2.598 0 3.884l.008.24h1.064l-.02-.268a23.983 23.983 0 0 1-.063-2.067c.01-.69.064-1.32.149-1.618.092-.328.328-.54.558-.561.118-.012.234-.021.35-.03.29.166 2.12 1.19 3.299 1.511a8.142 8.142 0 0 0 2.227.284c.58 0 1.317-.036 2.227-.284 1.162-.317 2.96-1.319 3.287-1.503.085.006.17.013.257.022.254.024.467.185.558.507.084.298.138.942.148 1.645a24.45 24.45 0 0 1-.062 2.094l-.02.268h1.063l.009-.24c.044-1.286.09-2.58-.001-3.884-.03-.436-.283-.794-.595-1.051a2.463 2.463 0 0 0-1.04-.502c-.408-.085-1.13-.118-2.137-.137a211.73 211.73 0 0 0-3.747-.02h-.308z"/></svg>