<svg xmlns="http://www.w3.org/2000/svg" width="60.203" height="18"><path d="M20.392 3.964v1.692H7.934V3.964zM7.98 2.25v1.28H7.5v2.56h13.327V3.53h-.389V2.25h-.434v1.28h-1.075V2.25h-.434v1.28h-1.074V2.25h-.435v1.28h-1.051V2.25h-.457v1.28h-1.052V2.25h-.434v1.28h-1.074V2.25h-.435v1.28H11.41V2.25h-.434v1.28H9.923V2.25h-.434v1.28H8.414V2.25zm1.155 5.285L7.5 9.468h.797l.838-.999.845.999.821-.999.846.999.837-.999.846.999.837-.999.846.999.821-.999.846.999.845-.999.822.999.845-.999.837.999h.798l-1.635-1.933-.845.934-.822-.934-.845.934-.846-.934-.821.934-.846-.934-.837.934-.846-.934-.837.934-.846-.934-.82.934-.846-.934zm-.632 3.858l.093.003c.409.03.857.185 1.344.468-.487.302-.935.465-1.344.49a1.297 1.297 0 0 1-.077.002c-.357 0-.531-.164-.522-.492-.01-.314.16-.471.506-.471zm0 2.907c.03 0 .06.001.093.004.409.029.857.185 1.344.467-.487.302-.935.465-1.344.49a1.298 1.298 0 0 1-.077.002c-.357 0-.531-.164-.522-.492-.01-.314.16-.47.506-.47zm-.054-3.387l-.08.001c-.52.02-.81.336-.869.95.077.653.355.979.833.979h.022c.491-.01 1.18-.185 2.067-.526h8.443c.692.058 1.04.38 1.045.964.005.584-.343.94-1.045 1.066h-8.443c-.805-.351-1.463-.527-1.973-.527l-.08.001c-.52.02-.81.336-.869.95.077.653.355.979.833.979h.022c.491-.01 1.18-.185 2.067-.526h8.067c.993 0 1.676-.311 2.05-.935.384-.643.384-1.286 0-1.928-.369-.615-1.037-.923-2.007-.923l-.134.002h-7.976c-.805-.351-1.463-.527-1.973-.527zm15.845-8.187q-.279 0-.279.328 0 .278.279.278.295-.016.295-.311t-.295-.295zm-1.082.213v.295l-.64.115q.296-.312.64-.41zm.033.393q.377.295.13.443-.376-.131-.557-.344l.427-.099zm1.147-.754q.77 0 1.23.59.459.59.492 1.82 1.196.246 1.59 1.082.063.542-.244.542l-.019-.001q-.327-.016-.516-.18-.068-.06-.103-.06-.062 0-.02.183.066.287.721.696.656.41.107.68-.136.068-.29.068-.467 0-1.095-.616-.836-.82-.886-1.246-.049-.427.345-.787.234-.215.16-.215-.05 0-.242.1-.476.246-.5.721-.025.476.377 1.041.401.566 1.582 1.435.12.063.273.063.324 0 .792-.285.689-.418-.688-1.286.508-.132.524-.443.64.213 3.59 3.967.788.525.804.77-.016.23-.246.28-.05.01-.1.01-.186 0-.392-.142-.918.443-1.779.46h-.09q-.8 0-1.328-.28.541.476.378 1-.08.255-.12.255-.044 0-.044-.287 0-.558-1.427-1.066v.623q-.084.353-.133.353-.047 0-.063-.32-.099-.705-.468-1.517-.368-.811-1.172-2.245-.803-1.435-1.024-2.066-.222-.631-.205-1.172.016-.541-.222-.795-.237-.254-.139-.55.098-.295-.295-.557v-.278q.426-.345.885-.345zm3.115 9.443q.803.23.803.54l-.54 2.017q-.066.361-.443.361h-.656v-.033l.836-2.557v-.328zM24.451 2.25h-.059q-.64 0-1.295.525-.377.131-.77.607.54.491.983.606.05.23.312.64.016 1.081.295 1.795.279.713 1.869 3.827.787 1.64.787 2.017 0 .574-.722 2.574 0 .114-.983.18-1.476.05-1.476.41 0 .213.197.213h4.36q.41-.328.46-.558.393.164.426.443.055.221.157.221.019 0 .04-.008.13-.049.13-.213-.114-.443-.573-.852l.525-2.213q1.59-.05 2.77-.509.219.05.4.05.365 0 .584-.197.328-.295-.131-.918-1-1-1.902-2.197-1.853-2.279-2.541-2.64-.23-.475-.55-.753-.319-.28-1.155-.689-.016-.967-.45-1.672-.425-.689-1.688-.689zm16.954.524q.95.562.95 1.686h-1.891q0-1.124.941-1.686zm.95 2.21q-.213.751-.95.751-.736 0-.926-.751zm5.451 1.313v.896H35.012v-.896zm-6.4-4.047q-1.451.547-1.451 2.346 0 .684.296 1.14h-5.748v1.981h13.804V5.735h-5.725q.296-.455.296-1.139 0-1.8-1.473-2.346zm-3.629 10.629c.806 0 1.814.414 2.302.902.427.426.483.992.498 1.518h-5.576c.016-.526.072-1.092.499-1.518.487-.488 1.472-.902 2.277-.902zm0-.451c-.955 0-1.983.441-2.586 1.044-.618.618-.688 1.432-.688 2.04v.238h6.549v-.237c0-.61-.046-1.423-.664-2.04-.603-.604-1.655-1.045-2.61-1.045zM47.833 9.96l-.048 5.268-2.776.047-.024-5.291 2.848-.024zm.474-.45l-3.773.023.024 6.217 3.678-.071.071-6.17zm2.573-6.818c.046 0 .058.008.067.02a.34.34 0 0 1 .053.146c.02.092.03.195.044.293.02.125.047.245.097.346.06.12.115.247.174.376h-.87c.06-.129.115-.256.175-.376a1.19 1.19 0 0 0 .096-.346c.015-.098.026-.2.044-.293a.34.34 0 0 1 .053-.146c.01-.012.022-.02.067-.02zm.497 1.623c-.313.743-.403 1.676-.413 2.489-.012.976.103 1.948.216 2.92.11.95.219 1.902.197 2.858-.012.48-.127 1.2-.276 1.795a5.204 5.204 0 0 1-.235.745 1.738 1.738 0 0 1-.036.08 1.717 1.717 0 0 1-.028-.07 5.225 5.225 0 0 1-.198-.746 11.547 11.547 0 0 1-.22-1.804c-.022-.956.086-1.907.197-2.859.113-.971.228-1.943.216-2.92-.01-.812-.1-1.745-.413-2.488zm-.547 10.887zm-.078.126zm.147.003zM50.88 2.25a.507.507 0 0 0-.406.179.766.766 0 0 0-.146.34c-.02.1-.032.209-.048.315a.776.776 0 0 1-.057.218c-.113.23-.213.49-.355.736l-.06.106.057.109c.385.715.48 1.713.49 2.556.012.958-.102 1.91-.213 2.863-.113.972-.223 1.944-.2 2.92.012.51.103 1.258.23 1.883.064.317.138.603.216.812.044.116.09.212.139.282a.494.494 0 0 0 .105.114.315.315 0 0 0 .191.067.32.32 0 0 0 .189-.064.52.52 0 0 0 .108-.11 1.39 1.39 0 0 0 .152-.28c.09-.209.179-.495.258-.812.156-.627.276-1.379.288-1.892.023-.976-.086-1.948-.2-2.92-.11-.952-.224-1.905-.213-2.863.01-.843.106-1.84.49-2.556l.058-.108-.06-.107c-.143-.247-.242-.506-.355-.736a.776.776 0 0 1-.057-.218c-.016-.106-.028-.215-.048-.315a.766.766 0 0 0-.146-.34.507.507 0 0 0-.407-.179z"/><path d="M7.5.375c-9.625 0-9.625 17.25 0 17.25m0-17.25h44.453M7.5 17.625h44.453M59.64.375v17.25M51.953.375c9.625 0 9.625 17.25 0 17.25" fill="none" stroke="#000"/></svg>