<svg xmlns="http://www.w3.org/2000/svg" width="53.803" height="18"><path d="M3.01.474c.693 0 1.247.2 1.634.479.006.053.02.107.009.16-.05.248-.195.477-.396.63-.316.207-.697.267-1.057.356-.09.01-.019.031.031.04.23.04.707.099.971.099l.052-.001c.278-.032.54-.148.766-.311.079-.067.147-.15.205-.236.147.346.227.713.26.917.018.11.096.2.202.233 1.139.349 2.038 1.91 2.88 2.949 1.729 2.137 3.199 4.526 4.892 6.76-.937-.456-1.87-.916-2.81-1.374-1.92-1.01-3.92-1.816-5.604-3.09l-.008-.008c-.97-.808-1.963-1.66-2.339-2.793-.148-.92 1.757-2.577 1.542-2.646a.207.207 0 0 0-.064-.01c-.458 0-1.753 1.128-2.019 2.202-.003-.014-.01-.03-.014-.045-.073-.356-.154-1.256.068-1.98a.29.29 0 0 0 .01-.103 1.968 1.968 0 0 0-.123-.634c-.063-.17-.139-.344-.26-.765-.031-.108-.142-.328-.208-.345.186-.138.375-.28.645-.375a.434.434 0 0 0-.132.314c0 .23.164.415.365.415.2 0 .364-.186.364-.415V.894a.411.411 0 0 0-.255-.39c.053-.007.096-.019.154-.022.081-.006.16-.008.238-.008zm.67 7.763c.065.065.135.124.202.187.214.78.412 1.64.692 2.305.483 1.145 1.216 2.141 1.84 3.154a1.814 1.814 0 0 0-.385.27 6.831 6.831 0 0 0-.199.193 2.61 2.61 0 0 0-1.186-.897c.045-.723-.108-1.712-.34-2.787a34.903 34.903 0 0 0-.624-2.425zm1.006.908c1.149.945 2.428 1.738 3.676 2.54-.018.91-.018 1.778.084 2.675a3.411 3.411 0 0 0-1.437-.736c-.02 0-.037.012-.057.012-.649-1.063-1.383-2.06-1.837-3.134-.156-.37-.293-.85-.429-1.357zm.407 5.254a2.5 2.5 0 0 1 .44.541.3.3 0 0 0 .257.14.29.29 0 0 0 .17-.053c.215-.156.347-.324.476-.446.047-.045.097-.08.148-.117l.149 2.722c-.213-.014-.435-.035-.637-.035-.264 0-.495.036-.633.172-.169-.134-.497-.164-.89-.164-.102 0-.207.002-.316.004l.836-2.764zM6.25 9.574c1.354.787 2.784 1.414 4.135 2.125a.244.244 0 0 0 .006.003c1.295.631 2.586 1.28 3.894 1.904.984 1.189 2.052 2.295 3.078 3.42l-2.15.362-4.267-4.635a.288.288 0 0 0-.037-.036c-1.499-1.137-3.152-2.082-4.66-3.143zM3.076 0c-.135 0-.273.005-.411.013C1.58.083.792.54.523 1.157c-.04.093-.146.314-.007.314a2.35 2.35 0 0 1 .341-.028c.418 0 .38.172.47.194.09.282.29.846.303 1.068-.244.86-.153 1.763-.064 2.198.15.732.63 1.584 1.261 2.38a.285.285 0 0 0 0 .166 35.3 35.3 0 0 1 .903 3.336c.251 1.168.393 2.277.317 2.823a.294.294 0 0 0 .221.328c.045.011.084.031.127.045l-.928 3.079a2.847 2.847 0 0 0-.593-.055c-.381 0-.756.05-1.064.05-.125 0-.24-.008-.34-.032a.546.546 0 0 0-.125-.012c-.436 0-1.428.306-1.34.879.15-.128.257-.159.375-.159.11 0 .23.027.405.027h.027c.254-.004.697-.083 1.053-.083.18 0 .338.02.438.08.236-.01.45-.013.649-.013.85 0 1.447.07 2.5.075a89.565 89.565 0 0 0 2.974-.079c.45.003.697.054.922.054h.04c.134-.004.265-.057.48-.057.123 0 .273.017.468.07-.25-.341-.877-.685-1.33-.685a.591.591 0 0 0-.302.071 5.081 5.081 0 0 0-.508-.022c-.22 0-.448.01-.678.02l-.157-2.83c.487.203.857.517 1.281 1.021a.295.295 0 0 0 .513-.246c-.192-1.039-.213-2.019-.202-3.06.54.354 1.072.713 1.576 1.094l4.36 4.738a.29.29 0 0 0 .263.09c.95-.159 1.9-.315 2.849-.474a.294.294 0 0 0 .23-.193.298.298 0 0 0-.06-.297c-.741-.83-1.508-1.631-2.25-2.445 1.269.78 2.875 1.755 3.08 1.755.022 0 .027-.013.012-.04-.094-.163-.9-.755-1.775-1.373.14.058.276.12.415.177l.017.01c.103.035.16.059.27.062a.286.286 0 0 0 .108-.016.317.317 0 0 0 .188-.152.32.32 0 0 0 .023-.238c-.017-.05-.038-.077-.054-.098-.061-.085-.103-.109-.162-.154a4.553 4.553 0 0 0-.205-.149c-.153-.105-.336-.223-.493-.328a4.992 4.992 0 0 1-.328-.233.307.307 0 0 0-.028-.025l-3.892-2.736c-.008-.006-.02-.001-.028-.006-1.333-1.869-2.588-3.825-4.046-5.627-.744-.92-1.598-2.528-2.985-3.064-.067-.396-.218-1.127-.755-1.649C4.827.26 4.168.056 3.427.011A5.728 5.728 0 0 0 3.076 0zM23.21 0l-2.189 2.589h1.068L23.21 1.25l1.132 1.338 1.1-1.338 1.133 1.338 1.122-1.338 1.133 1.34 1.121-1.338 1.133 1.338 1.1-1.338 1.133 1.338 1.133-1.34 1.1 1.338 1.133-1.338 1.122 1.338h1.068L36.683 0l-1.132 1.251L34.45 0l-1.133 1.251L32.185 0l-1.1 1.251L29.952 0l-1.121 1.251L27.698 0l-1.122 1.251L25.444 0l-1.1 1.251L23.21 0zm-1.52 4.446l-.015.003-.654.144a4.1 4.1 0 0 0 .894 2.126c.447.545 1.074.98 1.783 1.078.243.023.487.032.73.032.252 0 .503-.01.754-.02.923-.048 1.846-.297 2.625-.803a5.2 5.2 0 0 0 1.216-1.108c.036-.033.08-.041.127-.041.042 0 .086.006.128.006a.276.276 0 0 0 .053-.004c1.215-.011 2.43-.034 3.646-.034.69 0 1.38.007 2.069.028a.134.134 0 0 1 .028-.004c.063 0-.074.105-.095.14-.5.568-.99 1.146-1.508 1.698l1.05.593c.57-.563 1.003-1.278 1.701-1.7.659-.337 1.419-.298 2.136-.361l.515-.045V4.758c-3.044.009-6.087.008-9.13.059a13.14 13.14 0 0 1-.343.005c-1.429 0-2.846-.232-4.272-.3a11.146 11.146 0 0 0-.413-.008c-.305 0-.61.015-.912.053-.301.073-.425.389-.57.628-.07.125-.146.246-.224.366.028.014.054.02.08.02.11 0 .206-.108.308-.146.245-.14.511-.28.797-.28a.84.84 0 0 1 .117.008c1.133.02 2.256.182 3.382.288-.231.504-.753.78-1.25.967a8.024 8.024 0 0 1-2.78.521c-.514-.038-.926-.415-1.217-.812-.373-.497-.571-1.095-.756-1.681zm3.25 8.636c-.632.05-.982.366-1.048.949.083.632.432.965 1.048.998.616-.033.94-.366.974-.998-.05-.583-.375-.899-.974-.949zm.075-2.097c.45 0 .866.084 1.248.25a3.291 3.291 0 0 1 1.698 1.685c.166.374.25.77.25 1.186 0 .432-.084.836-.25 1.21a3.177 3.177 0 0 1-2.946 1.885c-.45 0-.87-.079-1.26-.237a3.003 3.003 0 0 1-1.012-.662 3.244 3.244 0 0 1-.674-.986 2.947 2.947 0 0 1-.25-1.21c0-.416.084-.812.25-1.186.167-.374.392-.707.674-.999.283-.29.62-.52 1.011-.686a3.2 3.2 0 0 1 1.261-.25zm-.05-.848c-.549 0-1.065.104-1.548.312-.482.208-.898.49-1.248.848a4.16 4.16 0 0 0-.836 1.249 3.78 3.78 0 0 0-.312 1.535c0 .549.104 1.06.312 1.535a4 4 0 0 0 .836 1.236A3.961 3.961 0 0 0 24.965 18c.55 0 1.061-.104 1.535-.312a4.16 4.16 0 0 0 1.249-.836c.357-.35.64-.762.848-1.236a3.78 3.78 0 0 0 .312-1.535c0-.55-.104-1.061-.312-1.535a4.046 4.046 0 0 0-2.097-2.097 3.78 3.78 0 0 0-1.535-.312zm9.855 4.309c.997 0 2.245.512 2.849 1.116.528.528.597 1.229.616 1.88h-6.902c.02-.651.088-1.352.617-1.88.604-.604 1.822-1.116 2.82-1.116zm0-.558c-1.183 0-2.456.546-3.202 1.292-.765.765-.852 1.773-.852 2.526V18h8.107v-.294c0-.753-.058-1.76-.823-2.526-.746-.746-2.048-1.292-3.23-1.292zM52.654.597q-1.851 2.517-5.327 2.585-3.454-.068-5.305-2.585zM40.873 0q1.897 3.794 6.454 3.809 4.58-.015 6.476-3.809zm2.215 13.133h-.007c-.326.023-.29.055-.46.098l-.223.385a.99.99 0 0 0 .506.153c.12 0 .245-.025.385-.08.146-.055.336-.066.512-.066.118 0 .23.005.316.005.08 0 .139-.005.161-.022.072-.053-1.001-.473-1.19-.473zm2.136-2.471c1.86 0 3.822 1.542 3.068 4.485-.173.671-.365 1.072-.666 1.201a.332.332 0 0 1-.176.05c-.534 0-1.24-1.157-1.282-1.169-.133-.038.865-.812.712-1.526-.033-.153-.147-.702-.898-.702-.047 0-.096.002-.148.006-.318.028-.416.273-.52.273-.059 0-.12-.079-.225-.323-.242-.564-1.978-.781-2.158-.859-.11-.047-.174-.102-.045-.291.528-.77 1.42-1.145 2.338-1.145zm-2.545 1.922c.19 0 1.79.419 1.865.454.09.021.363.872.67.918a.93.93 0 0 0 .138.01c.43 0 .547-.341.708-.341.01 0 .021.001.032.004.682.193-.12.909-.686 1.44-.317.297 1.853 2.274 1.853 2.274l-2.256.051-.63-.888c-.051-.074-.233-.14-.499-.14-.235 0-.538.051-.876.192a1.144 1.144 0 0 1-.43.103c-.54 0-.45-.686-.45-.686a3.742 3.742 0 0 1-.176-.222h.027c.312 0 .765-.103.843-.2.102-.05-.122-.25-.267-.25a.125.125 0 0 0-.04.005c-.175-.078-.39-.047-.566-.105.083-.315-.386-.63-.356-.698l1.081-1.92a.049.049 0 0 1 .015 0zm2.463-2.435c-.75 0-1.618.171-2.257.8-.368.361-.42.732-.842 1.595-.305.624-1.23 1.86-1.17 2.048.155.484.562.156.52.921-.033.624.28.204.346.992.019.232-.164.888-.19.942.06.308.337.416.575.427h.006c.27 0 .884-.89 1.018-.95.095-.041.34-.073.506-.073.068 0 .123.005.147.018.156.08.62 1.084.807 1.131l2.787-.028c.172-.002.282-.29.612-.793.651-.989.983-2.181.995-3.142.028-2.291-1.075-3.105-2.285-3.649-.074-.033-.753-.239-1.575-.239zm6.959 3.435c.38.145.793.611.914.995.12.384.107.832.021 1.273-.085.434-.256.847-.462 1.117-.142.185-.27.291-.391.327h-.114c-.12-.028-.277-.135-.434-.327-.206-.27-.376-.683-.462-1.117-.085-.44-.1-.889.022-1.273.12-.384.573-.882.906-.99v-.005zm-.402-8.37v.853h-.768v.548h.768l-.106 6.457c-.548.284-.89.768-1.053 1.287a3.387 3.387 0 0 0-.064 1.643c.107.533.32 1.002.612 1.38.22.284.512.518.853.59v.02c.022.008.043.008.064.008.029 0 .057-.007.086-.007a.504.504 0 0 0 .1.007c.028 0 .049 0 .077-.007v-.021c.342-.072.633-.306.854-.59.291-.378.505-.847.611-1.38.107-.534.1-1.11-.064-1.643a2.11 2.11 0 0 0-1.052-1.266l-.107-6.478h.726l.02-.548h-.81v-.853H51.7z"/></svg>