<svg xmlns="http://www.w3.org/2000/svg" width="59.891" height="18"><path d="M3.01.474c.693 0 1.247.2 1.634.479.006.053.02.107.009.16-.05.248-.195.477-.396.63-.316.207-.697.267-1.057.356-.09.01-.019.031.031.04.23.04.707.099.971.099l.052-.001c.278-.032.54-.148.766-.311.079-.067.147-.15.205-.236.147.346.227.713.26.917.018.11.096.2.202.233 1.139.349 2.038 1.91 2.88 2.949 1.729 2.137 3.199 4.526 4.892 6.76-.937-.456-1.87-.916-2.81-1.374-1.92-1.01-3.92-1.816-5.604-3.09l-.008-.008c-.97-.808-1.963-1.66-2.339-2.793-.148-.92 1.757-2.577 1.542-2.646a.207.207 0 0 0-.064-.01c-.458 0-1.753 1.128-2.019 2.202-.003-.014-.01-.03-.014-.045-.073-.356-.154-1.256.068-1.98a.29.29 0 0 0 .01-.103 1.968 1.968 0 0 0-.123-.634c-.063-.17-.139-.344-.26-.765-.031-.108-.142-.328-.208-.345.186-.138.375-.28.645-.375a.434.434 0 0 0-.132.314c0 .23.164.415.365.415.2 0 .364-.186.364-.415V.894a.411.411 0 0 0-.255-.39c.053-.007.096-.019.154-.022.081-.006.16-.008.238-.008zm.67 7.763c.065.065.135.124.202.187.214.78.412 1.64.692 2.305.483 1.145 1.216 2.141 1.84 3.154a1.814 1.814 0 0 0-.385.27 6.831 6.831 0 0 0-.199.193 2.61 2.61 0 0 0-1.186-.897c.045-.723-.108-1.712-.34-2.787a34.903 34.903 0 0 0-.624-2.425zm1.006.908c1.149.945 2.428 1.738 3.676 2.54-.018.91-.018 1.778.084 2.675a3.411 3.411 0 0 0-1.437-.736c-.02 0-.037.012-.057.012-.649-1.063-1.383-2.06-1.837-3.134-.156-.37-.293-.85-.429-1.357zm.407 5.254a2.5 2.5 0 0 1 .44.541.3.3 0 0 0 .257.14.29.29 0 0 0 .17-.053c.215-.156.347-.324.476-.446.047-.045.097-.08.148-.117l.149 2.722c-.213-.014-.435-.035-.637-.035-.264 0-.495.036-.633.172-.169-.134-.497-.164-.89-.164-.102 0-.207.002-.316.004l.836-2.764zM6.25 9.574c1.354.787 2.784 1.414 4.135 2.125a.244.244 0 0 0 .006.003c1.295.631 2.586 1.28 3.894 1.904.984 1.189 2.052 2.295 3.078 3.42l-2.15.362-4.267-4.635a.288.288 0 0 0-.037-.036c-1.499-1.137-3.152-2.082-4.66-3.143zM3.076 0c-.135 0-.273.005-.411.013C1.58.083.792.54.523 1.157c-.04.093-.146.314-.007.314a2.35 2.35 0 0 1 .341-.028c.418 0 .38.172.47.194.09.282.29.846.303 1.068-.244.86-.153 1.763-.064 2.198.15.732.63 1.584 1.261 2.38a.285.285 0 0 0 0 .166 35.3 35.3 0 0 1 .903 3.336c.251 1.168.393 2.277.317 2.823a.294.294 0 0 0 .221.328c.045.011.084.031.127.045l-.928 3.079a2.847 2.847 0 0 0-.593-.055c-.381 0-.756.05-1.064.05-.125 0-.24-.008-.34-.032a.546.546 0 0 0-.125-.012c-.436 0-1.428.306-1.34.879.15-.128.257-.159.375-.159.11 0 .23.027.405.027h.027c.254-.004.697-.083 1.053-.083.18 0 .338.02.438.08.236-.01.45-.013.649-.013.85 0 1.447.07 2.5.075a89.565 89.565 0 0 0 2.974-.079c.45.003.697.054.922.054h.04c.134-.004.265-.057.48-.057.123 0 .273.017.468.07-.25-.341-.877-.685-1.33-.685a.591.591 0 0 0-.302.071 5.081 5.081 0 0 0-.508-.022c-.22 0-.448.01-.678.02l-.157-2.83c.487.203.857.517 1.281 1.021a.295.295 0 0 0 .513-.246c-.192-1.039-.213-2.019-.202-3.06.54.354 1.072.713 1.576 1.094l4.36 4.738a.29.29 0 0 0 .263.09c.95-.159 1.9-.315 2.849-.474a.294.294 0 0 0 .23-.193.298.298 0 0 0-.06-.297c-.741-.83-1.508-1.631-2.25-2.445 1.269.78 2.875 1.755 3.08 1.755.022 0 .027-.013.012-.04-.094-.163-.9-.755-1.775-1.373.14.058.276.12.415.177l.017.01c.103.035.16.059.27.062a.286.286 0 0 0 .108-.016.317.317 0 0 0 .188-.152.32.32 0 0 0 .023-.238c-.017-.05-.038-.077-.054-.098-.061-.085-.103-.109-.162-.154a4.553 4.553 0 0 0-.205-.149c-.153-.105-.336-.223-.493-.328a4.992 4.992 0 0 1-.328-.233.307.307 0 0 0-.028-.025l-3.892-2.736c-.008-.006-.02-.001-.028-.006-1.333-1.869-2.588-3.825-4.046-5.627-.744-.92-1.598-2.528-2.985-3.064-.067-.396-.218-1.127-.755-1.649C4.827.26 4.168.056 3.427.011A5.728 5.728 0 0 0 3.076 0zm19.69 0c-.93 0-1.745.684-1.745 1.562V18h1.136V1.562c0-.43.379-.57.616-.57.25 0 .634.175.634.703v10.804h1.136V1.695c0-.88-.87-1.695-1.777-1.695zm5.994 6.317l13.8 3.27c-.932.749-1.914 1.184-2.926 1.336a5.37 5.37 0 0 1-.891.071c-.132 0-.263 0-.395-.01-1.498-.122-3.139-.668-4.92-1.59-1.782-.931-3.341-1.954-4.668-3.077zM43.552 9.82c1.883 1.235 2.561 2.105 2.055 2.561a.453.453 0 0 1-.233.111h-.05c-.476 0-1.064-.9-1.772-2.672zM26.543 5.122c1.772 2.288 4.04 4.08 6.804 5.346.86.405 1.68.718 2.41.972-1.418 1.751-2.582 3.28-3.463 4.545-.648.355-1.134.648-1.428.86-.283.203-.698.355-1.275.456-.73.051-1.114.183-1.114.365v.263c-.01.05.253.071.77.071.263 0 .576-.01.961-.02.405-.101.74-.152 1.013-.152.151 0 .273.01.384.04.314.081.567.112.77.112a.697.697 0 0 0 .486-.172c.121-.102.192-.415.253-.962 0-.152.546-.77 1.59-1.792 1.052-1.033 1.65-1.802 1.801-2.339 0-.131.172-.293.567-.506.132 0 .446.253.932.79.962 1.164 1.62 1.984 1.964 2.48.354.486.395.82.142.962a3.985 3.985 0 0 0-.74.577c-.222.223-.465.344-.718.344-.03 0-.05 0-.071-.01-.557.091-.86.233-.86.425v.203h1.963c.365-.193.689-.294.972-.294.132 0 .253.02.365.071.354.142.607.223.8.223.293-.04.425-.162.425-.365 0-.222-.112-.435-.314-.719-.314-.496-.689-1.407-1.164-2.672-.355-.932-.891-1.66-1.59-2.218.112-.01.233-.01.334-.03.04 0 .101-.02.142-.03 1.448-.263 2.541-.77 3.3-1.56.82 1.985 1.6 2.967 2.39 2.967.05 0 .101 0 .141-.01.254-.04.527-.182.77-.425 1.093-1.043.202-2.36-2.642-3.929l-17.07-3.867zM51.437.404q-.237 0-.237.278 0 .236.237.236.25-.013.25-.264 0-.25-.25-.25zm-.919.18v.251l-.542.097q.25-.264.542-.347zm.028.334q.32.25.112.376-.32-.111-.473-.292l.361-.084zm.974-.64q.654 0 1.044.501.389.501.417 1.545 1.015.208 1.35.918.053.46-.208.46l-.015-.001q-.279-.014-.439-.153-.058-.05-.087-.05-.052 0-.017.154.056.244.612.591.557.348.09.578-.115.057-.246.057-.395 0-.929-.523-.71-.696-.751-1.058-.042-.361.292-.667.199-.182.136-.182-.042 0-.205.084-.404.209-.425.612-.02.404.32.884.341.48 1.343 1.217.102.053.232.053.275 0 .672-.24.584-.356-.584-1.093.43-.111.445-.375.542.18 3.046 3.366.668.445.682.654-.014.195-.209.237-.041.008-.084.008-.158 0-.333-.12-.779.376-1.51.39h-.075q-.68 0-1.128-.237.46.404.32.849-.067.216-.102.216-.037 0-.037-.244 0-.473-1.21-.904v.528q-.071.3-.113.3-.04 0-.054-.272-.084-.598-.397-1.287-.313-.688-.994-1.905-.682-1.218-.87-1.753-.188-.536-.174-.995.014-.46-.187-.675-.202-.215-.119-.466.084-.25-.25-.473V.571q.362-.292.751-.292zm2.643 8.014q.682.194.682.459l-.46 1.71q-.055.307-.375.307h-.556v-.028l.71-2.17v-.278zM51.57 0h-.05q-.542 0-1.099.445-.32.112-.654.515.46.418.835.515.042.195.264.543.014.918.25 1.523.237.605 1.587 3.248.667 1.391.667 1.711 0 .487-.612 2.185 0 .097-.834.153-1.252.041-1.252.347 0 .181.166.181h3.701q.348-.278.39-.473.333.14.361.376.047.187.133.187.017 0 .034-.006.111-.042.111-.181-.097-.376-.486-.724l.445-1.878q1.35-.041 2.35-.431.186.042.34.042.31 0 .495-.167.279-.25-.11-.78-.85-.848-1.615-1.863-1.572-1.934-2.156-2.24-.195-.404-.466-.64-.271-.237-.98-.584-.015-.821-.383-1.42Q52.642 0 51.57 0zm7.633 13.25c.102 0 .153.37.153.471 0 .102-.051.472-.153.472h-9.786c-.119 0-.178-.37-.178-.472 0-.101.059-.471.178-.471zm-10.092-.535c-.272 0-.408.548-.408 1.006 0 .46.136 1.007.408 1.007H59.51c.255 0 .382-.548.382-1.007 0-.458-.127-1.006-.382-1.006zm10.092 3.807c.102 0 .153.37.153.471 0 .102-.051.472-.153.472h-9.786c-.119 0-.178-.37-.178-.472 0-.102.059-.471.178-.471zm-10.092-.535c-.272 0-.408.548-.408 1.006 0 .46.136 1.007.408 1.007H59.51c.255 0 .382-.548.382-1.007 0-.458-.127-1.006-.382-1.006z"/></svg>