<svg xmlns="http://www.w3.org/2000/svg" width="74.387" height="18"><path d="M3.01.474c.693 0 1.247.2 1.634.479.006.053.02.107.009.16-.05.248-.195.477-.396.63-.316.207-.697.267-1.057.356-.09.01-.019.031.031.04.23.04.707.099.971.099l.052-.001c.278-.032.54-.148.766-.311.079-.067.147-.15.205-.236.147.346.227.713.26.917.018.11.096.2.202.233 1.139.349 2.038 1.91 2.88 2.949 1.729 2.137 3.199 4.526 4.892 6.76-.937-.456-1.87-.916-2.81-1.374-1.92-1.01-3.92-1.816-5.604-3.09l-.008-.008c-.97-.808-1.963-1.66-2.339-2.793-.148-.92 1.757-2.577 1.542-2.646a.207.207 0 0 0-.064-.01c-.458 0-1.753 1.128-2.019 2.202-.003-.014-.01-.03-.014-.045-.073-.356-.154-1.256.068-1.98a.29.29 0 0 0 .01-.103 1.968 1.968 0 0 0-.123-.634c-.063-.17-.139-.344-.26-.765-.031-.108-.142-.328-.208-.345.186-.138.375-.28.645-.375a.434.434 0 0 0-.132.314c0 .23.164.415.365.415.2 0 .364-.186.364-.415V.894a.411.411 0 0 0-.255-.39c.053-.007.096-.019.154-.022.081-.006.16-.008.238-.008zm.67 7.763c.065.065.135.124.202.187.214.78.412 1.64.692 2.305.483 1.145 1.216 2.141 1.84 3.154a1.814 1.814 0 0 0-.385.27 6.831 6.831 0 0 0-.199.193 2.61 2.61 0 0 0-1.186-.897c.045-.723-.108-1.712-.34-2.787a34.903 34.903 0 0 0-.624-2.425zm1.006.908c1.149.945 2.428 1.738 3.676 2.54-.018.91-.018 1.778.084 2.675a3.411 3.411 0 0 0-1.437-.736c-.02 0-.037.012-.057.012-.649-1.063-1.383-2.06-1.837-3.134-.156-.37-.293-.85-.429-1.357zm.407 5.254a2.5 2.5 0 0 1 .44.541.3.3 0 0 0 .257.14.29.29 0 0 0 .17-.053c.215-.156.347-.324.476-.446.047-.045.097-.08.148-.117l.149 2.722c-.213-.014-.435-.035-.637-.035-.264 0-.495.036-.633.172-.169-.134-.497-.164-.89-.164-.102 0-.207.002-.316.004l.836-2.764zM6.25 9.574c1.354.787 2.784 1.414 4.135 2.125a.244.244 0 0 0 .006.003c1.295.631 2.586 1.28 3.894 1.904.984 1.189 2.052 2.295 3.078 3.42l-2.15.362-4.267-4.635a.288.288 0 0 0-.037-.036c-1.499-1.137-3.152-2.082-4.66-3.143zM3.076 0c-.135 0-.273.005-.411.013C1.58.083.792.54.523 1.157c-.04.093-.146.314-.007.314a2.35 2.35 0 0 1 .341-.028c.418 0 .38.172.47.194.09.282.29.846.303 1.068-.244.86-.153 1.763-.064 2.198.15.732.63 1.584 1.261 2.38a.285.285 0 0 0 0 .166 35.3 35.3 0 0 1 .903 3.336c.251 1.168.393 2.277.317 2.823a.294.294 0 0 0 .221.328c.045.011.084.031.127.045l-.928 3.079a2.847 2.847 0 0 0-.593-.055c-.381 0-.756.05-1.064.05-.125 0-.24-.008-.34-.032a.546.546 0 0 0-.125-.012c-.436 0-1.428.306-1.34.879.15-.128.257-.159.375-.159.11 0 .23.027.405.027h.027c.254-.004.697-.083 1.053-.083.18 0 .338.02.438.08.236-.01.45-.013.649-.013.85 0 1.447.07 2.5.075a89.565 89.565 0 0 0 2.974-.079c.45.003.697.054.922.054h.04c.134-.004.265-.057.48-.057.123 0 .273.017.468.07-.25-.341-.877-.685-1.33-.685a.591.591 0 0 0-.302.071 5.081 5.081 0 0 0-.508-.022c-.22 0-.448.01-.678.02l-.157-2.83c.487.203.857.517 1.281 1.021a.295.295 0 0 0 .513-.246c-.192-1.039-.213-2.019-.202-3.06.54.354 1.072.713 1.576 1.094l4.36 4.738a.29.29 0 0 0 .263.09c.95-.159 1.9-.315 2.849-.474a.294.294 0 0 0 .23-.193.298.298 0 0 0-.06-.297c-.741-.83-1.508-1.631-2.25-2.445 1.269.78 2.875 1.755 3.08 1.755.022 0 .027-.013.012-.04-.094-.163-.9-.755-1.775-1.373.14.058.276.12.415.177l.017.01c.103.035.16.059.27.062a.286.286 0 0 0 .108-.016.317.317 0 0 0 .188-.152.32.32 0 0 0 .023-.238c-.017-.05-.038-.077-.054-.098-.061-.085-.103-.109-.162-.154a4.553 4.553 0 0 0-.205-.149c-.153-.105-.336-.223-.493-.328a4.992 4.992 0 0 1-.328-.233.307.307 0 0 0-.028-.025l-3.892-2.736c-.008-.006-.02-.001-.028-.006-1.333-1.869-2.588-3.825-4.046-5.627-.744-.92-1.598-2.528-2.985-3.064-.067-.396-.218-1.127-.755-1.649C4.827.26 4.168.056 3.427.011A5.728 5.728 0 0 0 3.076 0zM25.89 2.25q-.247 0-.27.218l.24-.053q.15 0 .083.158-.173.165-.052.488-.22.475-.848.475l-.076-.002q.03.353-.15.533-.63.36-.63.66.495.234.164.571-.33.338-.33.458.218.068.3.233.376.916.759 1.3l-.03.307q.368 0 .405-.39-.69-.841-.668-1.795.03-.954 1.209-1.877.338-.188.338-.728 0-.556-.443-.556zm4.506 0q-.443 0-.443.556 0 .54.322.728 1.194.923 1.224 1.877.023.954-.683 1.795.053.39.406.39l-.023-.308q.375-.383.758-1.299.09-.165.293-.233 0-.12-.323-.458-.323-.337.165-.57 0-.3-.623-.661-.18-.18-.165-.533l-.075.002q-.614 0-.833-.475.112-.323-.053-.488-.068-.158.083-.158l.24.053q-.023-.218-.27-.218zm-2.257 4.115q.883 0 1.769.675.69.586.082 1.344h-3.709q-.608-.758.098-1.344.878-.675 1.76-.675zM25.485 8.64q-1.044 1.216-1.044 1.854.083.368.323.368.316 0 .406-.285 0-.946.405-1.585l-.09-.352zm5.316 0l-.09.352q.405.639.405 1.585.083.285.406.285.233 0 .323-.368 0-.638-1.044-1.854zm-3.289.135q.488 0 .488.518v3.912q-1.531 0-1.734-.984-.203-.984-.023-3.446zm2.508 0q.203 2.462-.007 3.446-.21.984-1.742.984V9.293q0-.518.488-.518zm-1.99-4.182v.27q0 .188-.15.188-.232 0-.555-.27h-.166l.519.975-.166.053q-.27-.353-.54-.728-.042-.02-.075-.02-.082 0-.098.125l.406.706q-.286.232-.286.405-.45 0-.676.353-.653.458-.653 1.014 0 .42.27.96-.187 1.044-.187 2.629 0 1.043.36 1.674.368.63 2.103.63 1.734 0 2.094-.63.368-.63.368-1.674.015-1.585-.172-2.613.27-.556.27-.976 0-.556-.66-1.014-.234-.353-.67-.353 0-.173-.307-.405l.406-.706q0-.124-.078-.124-.03 0-.073.019-.27.375-.54.728l-.165-.053.503-.976h-.15q-.338.27-.579.27-.127 0-.127-.187v-.27zm-2.967 6.621l-.028.001q-.879 1.554-.879 2.448 0 .893.308 1.434.315.54.856.653-.728-.976-.728-1.562 0-.578.135-.946.12 1.029.54 1.45-.187-.827-.172-1.743.007-.923.308-1.374.014-.36-.34-.36zm6.16 0q-.354 0-.34.361.286.45.301 1.374.015.916-.165 1.742.42-.42.54-1.449.136.368.136.946 0 .586-.729 1.562.54-.113.841-.653.308-.54.308-1.434 0-.894-.863-2.448h-.03zM35.62 2.25q-.248 0-.27.218l.24-.053q.15 0 .082.158-.172.165-.052.488-.22.475-.847.475l-.077-.002q.03.353-.15.533-.63.36-.63.66.495.234.165.571-.33.338-.33.458.217.068.3.233.375.916.758 1.3l-.03.307q.368 0 .405-.39-.69-.841-.668-1.795.03-.954 1.209-1.877.338-.188.338-.728 0-.556-.443-.556zm4.505 0q-.443 0-.443.556 0 .54.323.728 1.193.923 1.223 1.877.023.954-.683 1.795.053.39.406.39l-.023-.308q.376-.383.758-1.299.09-.165.293-.233 0-.12-.323-.458-.322-.337.166-.57 0-.3-.624-.661-.18-.18-.165-.533l-.074.002q-.615 0-.834-.475.112-.323-.053-.488-.067-.158.083-.158l.24.053q-.022-.218-.27-.218zm-2.257 4.115q.883 0 1.769.675.69.586.082 1.344H36.01q-.608-.758.098-1.344.878-.675 1.76-.675zM35.214 8.64q-1.043 1.216-1.043 1.854.082.368.322.368.316 0 .406-.285 0-.946.405-1.585l-.09-.352zm5.316 0l-.09.352q.406.639.406 1.585.082.285.405.285.233 0 .323-.368 0-.638-1.044-1.854zm-3.288.135q.488 0 .488.518v3.912q-1.532 0-1.735-.984-.203-.984-.022-3.446zm2.507 0q.203 2.462-.007 3.446-.21.984-1.742.984V9.293q0-.518.488-.518zm-1.99-4.182v.27q0 .188-.15.188-.232 0-.555-.27h-.165l.518.975-.165.053q-.27-.353-.541-.728-.042-.02-.074-.02-.083 0-.099.125l.406.706q-.286.232-.286.405-.45 0-.675.353-.654.458-.654 1.014 0 .42.27.96-.187 1.044-.187 2.629 0 1.043.36 1.674.368.63 2.103.63 1.734 0 2.095-.63.367-.63.367-1.674.015-1.585-.172-2.613.27-.556.27-.976 0-.556-.66-1.014-.233-.353-.669-.353 0-.173-.308-.405l.406-.706q0-.124-.078-.124-.03 0-.072.019-.27.375-.541.728l-.165-.053.503-.976h-.15q-.338.27-.579.27-.127 0-.127-.187v-.27zm-2.966 6.621l-.03.001q-.878 1.554-.878 2.448 0 .893.308 1.434.315.54.856.653-.728-.976-.728-1.562 0-.578.135-.946.12 1.029.54 1.45-.187-.827-.172-1.743.007-.923.308-1.374.014-.36-.34-.36zm6.159 0q-.354 0-.34.361.286.45.301 1.374.015.916-.165 1.742.42-.42.54-1.449.136.368.136.946 0 .586-.729 1.562.541-.113.841-.653.308-.54.308-1.434 0-.894-.863-2.448h-.03zm2.528-8.799v3.841h.73V2.415h-.73m0 4.939v3.658h.73V7.354h-.73m0 4.573v3.658h.73v-3.658h-.73zm4.198-9.201q-.279 0-.279.328 0 .278.28.278.294-.016.294-.311t-.295-.295zm-1.082.213v.295l-.64.115q.296-.312.64-.41zm.033.393q.377.295.131.443-.377-.131-.557-.344l.426-.099zm1.147-.754q.77 0 1.23.59.459.59.492 1.82 1.196.246 1.59 1.082.064.542-.244.542l-.018-.001q-.328-.016-.517-.18-.068-.06-.103-.06-.061 0-.02.183.066.287.722.696.655.41.106.68-.136.068-.29.068-.466 0-1.095-.616-.836-.82-.885-1.246-.05-.427.344-.787.234-.215.16-.215-.05 0-.242.1-.475.246-.5.721-.025.476.377 1.041.402.566 1.582 1.435.12.063.273.063.324 0 .793-.285.688-.418-.689-1.286.508-.132.525-.443.639.213 3.59 3.967.787.525.803.77-.016.23-.246.28-.049.01-.1.01-.186 0-.392-.142-.918.443-1.778.46h-.09q-.8 0-1.328-.28.54.476.377 1-.08.255-.12.255-.044 0-.044-.287 0-.558-1.426-1.066v.623q-.084.353-.134.353-.047 0-.063-.32-.099-.705-.467-1.517-.37-.811-1.173-2.245-.803-1.435-1.024-2.066-.221-.631-.205-1.172.016-.541-.221-.795-.238-.254-.14-.55.099-.295-.295-.557v-.278q.426-.345.885-.345zm3.115 9.443q.803.23.803.54l-.54 2.017q-.066.361-.443.361h-.656v-.033l.836-2.557v-.328zM47.836 2.25h-.06q-.639 0-1.295.525-.377.131-.77.607.54.491.983.606.05.23.312.64.016 1.081.295 1.795.279.713 1.869 3.827.787 1.64.787 2.017 0 .574-.722 2.574 0 .114-.983.18-1.476.05-1.476.41 0 .213.197.213h4.36q.41-.328.46-.558.393.164.426.443.055.221.157.221.02 0 .04-.008.13-.049.13-.213-.114-.443-.573-.852l.525-2.213q1.59-.05 2.77-.509.219.05.401.05.364 0 .583-.197.328-.295-.131-.918-1-1-1.902-2.197-1.852-2.279-2.54-2.64-.23-.475-.55-.753-.32-.28-1.156-.689-.016-.967-.45-1.672-.425-.689-1.687-.689z"/><path d="M21.396.375v17.25m0-17.25h2.625m-2.625 17.25h2.625m0-17.25h32.366m-32.366 17.25h32.366m0-17.25h17.625m-17.625 17.25h17.625M58.15.375v17.25M61.675.375v17.25M63.437.375v17.25M65.2 2.1h8.812M65.2 5.55h8.812M65.2 2.1v3.45m1.762-1.725h7.05M65.2 7.275h8.812m-8.812 3.45h8.812M65.2 7.275v3.45M66.962 9h7.05M65.2 12.45h8.812M65.2 15.9h8.812M65.2 12.45v3.45m1.762-1.725h7.05" fill="none" stroke="#000"/></svg>