<svg xmlns="http://www.w3.org/2000/svg" width="40.891" height="18"><path d="M3.01.474c.693 0 1.247.2 1.634.479.006.053.02.107.009.16-.05.248-.195.477-.396.63-.316.207-.697.267-1.057.356-.09.01-.019.031.031.04.23.04.707.099.971.099l.052-.001c.278-.032.54-.148.766-.311.079-.067.147-.15.205-.236.147.346.227.713.26.917.018.11.096.2.202.233 1.139.349 2.038 1.91 2.88 2.949 1.729 2.137 3.199 4.526 4.892 6.76-.937-.456-1.87-.916-2.81-1.374-1.92-1.01-3.92-1.816-5.604-3.09l-.008-.008c-.97-.808-1.963-1.66-2.339-2.793-.148-.92 1.757-2.577 1.542-2.646a.207.207 0 0 0-.064-.01c-.458 0-1.753 1.128-2.019 2.202-.003-.014-.01-.03-.014-.045-.073-.356-.154-1.256.068-1.98a.29.29 0 0 0 .01-.103 1.968 1.968 0 0 0-.123-.634c-.063-.17-.139-.344-.26-.765-.031-.108-.142-.328-.208-.345.186-.138.375-.28.645-.375a.434.434 0 0 0-.132.314c0 .23.164.415.365.415.2 0 .364-.186.364-.415V.894a.411.411 0 0 0-.255-.39c.053-.007.096-.019.154-.022.081-.006.16-.008.238-.008zm.67 7.763c.065.065.135.124.202.187.214.78.412 1.64.692 2.305.483 1.145 1.216 2.141 1.84 3.154a1.814 1.814 0 0 0-.385.27 6.831 6.831 0 0 0-.199.193 2.61 2.61 0 0 0-1.186-.897c.045-.723-.108-1.712-.34-2.787a34.903 34.903 0 0 0-.624-2.425zm1.006.908c1.149.945 2.428 1.738 3.676 2.54-.018.91-.018 1.778.084 2.675a3.411 3.411 0 0 0-1.437-.736c-.02 0-.037.012-.057.012-.649-1.063-1.383-2.06-1.837-3.134-.156-.37-.293-.85-.429-1.357zm.407 5.254a2.5 2.5 0 0 1 .44.541.3.3 0 0 0 .257.14.29.29 0 0 0 .17-.053c.215-.156.347-.324.476-.446.047-.045.097-.08.148-.117l.149 2.722c-.213-.014-.435-.035-.637-.035-.264 0-.495.036-.633.172-.169-.134-.497-.164-.89-.164-.102 0-.207.002-.316.004l.836-2.764zM6.25 9.574c1.354.787 2.784 1.414 4.135 2.125a.244.244 0 0 0 .006.003c1.295.631 2.586 1.28 3.894 1.904.984 1.189 2.052 2.295 3.078 3.42l-2.15.362-4.267-4.635a.288.288 0 0 0-.037-.036c-1.499-1.137-3.152-2.082-4.66-3.143zM3.076 0c-.135 0-.273.005-.411.013C1.58.083.792.54.523 1.157c-.04.093-.146.314-.007.314a2.35 2.35 0 0 1 .341-.028c.418 0 .38.172.47.194.09.282.29.846.303 1.068-.244.86-.153 1.763-.064 2.198.15.732.63 1.584 1.261 2.38a.285.285 0 0 0 0 .166 35.3 35.3 0 0 1 .903 3.336c.251 1.168.393 2.277.317 2.823a.294.294 0 0 0 .221.328c.045.011.084.031.127.045l-.928 3.079a2.847 2.847 0 0 0-.593-.055c-.381 0-.756.05-1.064.05-.125 0-.24-.008-.34-.032a.546.546 0 0 0-.125-.012c-.436 0-1.428.306-1.34.879.15-.128.257-.159.375-.159.11 0 .23.027.405.027h.027c.254-.004.697-.083 1.053-.083.18 0 .338.02.438.08.236-.01.45-.013.649-.013.85 0 1.447.07 2.5.075a89.565 89.565 0 0 0 2.974-.079c.45.003.697.054.922.054h.04c.134-.004.265-.057.48-.057.123 0 .273.017.468.07-.25-.341-.877-.685-1.33-.685a.591.591 0 0 0-.302.071 5.081 5.081 0 0 0-.508-.022c-.22 0-.448.01-.678.02l-.157-2.83c.487.203.857.517 1.281 1.021a.295.295 0 0 0 .513-.246c-.192-1.039-.213-2.019-.202-3.06.54.354 1.072.713 1.576 1.094l4.36 4.738a.29.29 0 0 0 .263.09c.95-.159 1.9-.315 2.849-.474a.294.294 0 0 0 .23-.193.298.298 0 0 0-.06-.297c-.741-.83-1.508-1.631-2.25-2.445 1.269.78 2.875 1.755 3.08 1.755.022 0 .027-.013.012-.04-.094-.163-.9-.755-1.775-1.373.14.058.276.12.415.177l.017.01c.103.035.16.059.27.062a.286.286 0 0 0 .108-.016.317.317 0 0 0 .188-.152.32.32 0 0 0 .023-.238c-.017-.05-.038-.077-.054-.098-.061-.085-.103-.109-.162-.154a4.553 4.553 0 0 0-.205-.149c-.153-.105-.336-.223-.493-.328a4.992 4.992 0 0 1-.328-.233.307.307 0 0 0-.028-.025l-3.892-2.736c-.008-.006-.02-.001-.028-.006-1.333-1.869-2.588-3.825-4.046-5.627-.744-.92-1.598-2.528-2.985-3.064-.067-.396-.218-1.127-.755-1.649C4.827.26 4.168.056 3.427.011A5.728 5.728 0 0 0 3.076 0zm22.928.885q3.633.442 0 6.73-3.632-6.288 0-6.73zm0-.885q-5.03.35-.698 8.08H21.02v1.095h4.238V18h1.444V9.128h4.284V8.08h-4.284Q31.033.326 26.004 0zm11.593 0l-.014.001a15.257 15.257 0 0 1-1.104.037c-.079.004-.085.105-.059.162.166.467.309.94.443 1.417h-.019c-.132.002-.267 0-.398.013l-.006.01c-.008-.03-.029-.058-.06-.065a28.246 28.246 0 0 1-1.254-.908c-.01-.002-.02-.005-.031-.005h-.007c-.041.026-.056.083-.08.125-.071.194-.132.393-.212.584-.057.145-.12.29-.164.438.02.042.055.055.095.055a.396.396 0 0 0 .112-.022c.506-.108 1.028-.099 1.544-.105-.051.112-.073.239-.12.354-.02.065-.045.132-.06.2a.09.09 0 0 0-.013-.002c-.005 0-.01 0-.015.002-.63.244-1.245.542-1.782.955a6.66 6.66 0 0 0-.737.64c-.005.095.102.125.172.152l.435.18c-.073.1-.092.232-.139.346-.244.715-.587 1.39-.873 2.089 0 .057.054.085.106.085.02 0 .039-.004.055-.011.1-.02.202-.029.304-.031-.022.079-.03.163-.065.237-.171.546-.452 1.048-.664 1.578-.01.058.044.093.096.093.016 0 .03-.003.044-.01.259-.042.52-.08.783-.09-.03.073-.035.155-.058.23-.127.537-.312 1.066-.335 1.62-.004.362.04.722.097 1.078.098.585.275 1.155.503 1.702.003.05.049.082.093.082a.08.08 0 0 0 .072-.04c.033-.074.043-.157.068-.234a7.92 7.92 0 0 0 .268-1.449c.04-.423.057-.848.054-1.273-.017-.498-.136-.983-.212-1.473-.013-.074-.023-.15-.042-.223a6.921 6.921 0 0 1 .752.125c.08 0 .097-.105.061-.161-.213-.559-.43-1.117-.61-1.686l.026.004c.216.04.434.09.653.103.068-.057.019-.15-.014-.213-.264-.573-.48-1.174-.567-1.801-.027-.17-.027-.345-.056-.514.186.076.372.151.56.224.08-.02.085-.12.068-.186a2.07 2.07 0 0 1 .263-1.18c.175-.313.429-.57.687-.814.103.087.222.153.337.223-.02.004-.039.01-.058.015-.212.41-.391.838-.582 1.26-.025.058-.053.118-.062.18.032.052.085.062.141.062.035 0 .07-.004.102-.004h.006l.237-.006c-.027.082-.034.173-.061.255l-.454 1.888c.019.067.086.08.149.08a.638.638 0 0 0 .053-.002l.391-.013c-.036.103-.052.214-.087.317-.169.618-.341 1.237-.506 1.856.018.07.087.084.152.084.02 0 .04-.002.057-.003l.623-.018a.853.853 0 0 0-.024.102c-.13.567-.33 1.124-.36 1.71a6.758 6.758 0 0 0 .198 1.577c.1.417.242.823.403 1.22.007.045.05.076.092.076.024 0 .048-.01.064-.034.035-.062.041-.136.065-.202a8.24 8.24 0 0 0 .31-1.872c.02-.337.033-.676.017-1.013-.035-.485-.144-.959-.222-1.437-.009-.047-.016-.096-.029-.143.218-.007.436-.013.653-.022.078-.06.035-.165.013-.241-.185-.664-.368-1.328-.558-1.99l.546-.021c.076-.06.033-.164.01-.24l-.575-1.937.586-.016c.074-.05.038-.149.004-.21-.174-.394-.345-.79-.525-1.18.13-.054.258-.109.384-.169.348.326.651.717.79 1.177.081.274.086.564.058.846.016.044.053.06.094.06a.196.196 0 0 0 .1-.028l.435-.18-.004.003a5.123 5.123 0 0 1-.342 1.67c-.095.26-.215.51-.32.767-.006.056.046.09.096.09a.1.1 0 0 0 .05-.013c.193-.028.384-.067.575-.103-.038.106-.064.217-.107.321-.163.479-.348.95-.526 1.422-.013.056.037.105.09.105a.08.08 0 0 0 .04-.01c.232-.053.468-.092.705-.115a.562.562 0 0 0-.012.065c-.078.44-.164.878-.22 1.321-.03.276-.035.555-.017.833.025.7.096 1.405.284 2.083.031.116.062.232.1.346a.08.08 0 0 0 .074.043c.037 0 .074-.021.082-.06a7.826 7.826 0 0 0 .557-2.018c.05-.403.081-.815.004-1.216-.078-.427-.205-.844-.306-1.265-.017-.049-.025-.102-.042-.15.121.002.243.01.363.026.169.018.336.053.504.068.072-.02.065-.114.03-.164-.236-.567-.542-1.11-.693-1.71l-.008-.031c.029 0 .057 0 .085.002.108.008.214.03.321.038.076-.033.057-.132.022-.188-.313-.712-.652-1.414-.894-2.155-.023-.057-.039-.122-.073-.173l-.005-.004c.196-.081.391-.163.586-.247.045-.079-.032-.154-.09-.198-.497-.454-1.046-.86-1.655-1.153a6.389 6.389 0 0 0-.704-.295c-.018-.054-.043-.107-.056-.16-.062-.178-.115-.363-.193-.534a.248.248 0 0 0 .051.005l.06-.002.018.001h.131c.452 0 .906.014 1.348.116a.115.115 0 0 0 .045.008c.045 0 .092-.022.083-.072-.086-.269-.207-.525-.295-.794-.04-.11-.078-.222-.127-.327a.11.11 0 0 0-.058-.007c-.415.302-.821.618-1.25.9-.046.024-.104.069-.072.126a.835.835 0 0 0-.155-.012l-.157.003a1.223 1.223 0 0 1-.067-.001h-.035a.076.076 0 0 0 .004-.029c.168-.5.335-1.006.621-1.452.035-.046.01-.125-.045-.135A.064.064 0 0 0 37.597 0zm-.657 15.192c.787 0 1.773.404 2.25.882.418.417.473.97.488 1.485h-5.454c.015-.514.07-1.068.487-1.485.477-.478 1.44-.882 2.228-.882zm0-.441c-.935 0-1.941.431-2.53 1.02-.605.605-.674 1.401-.674 1.997V18h6.406v-.232c0-.596-.045-1.392-.65-1.996-.59-.59-1.618-1.021-2.553-1.021z"/></svg>