<svg xmlns="http://www.w3.org/2000/svg" width="59.218" height="18"><path d="M17.338.568q-.111.037-.111.128t.07.146q.027.022.054.022.04 0 .077-.05.063-.081.021-.163-.041-.083-.11-.083zM1.95.47q-.153 0-.296.282.084.183.264.237.028.01.054.01.131 0 .224-.229 0-.255-.194-.292Q1.975.47 1.949.47zM.945.787q-.042.128.027.238l-.583.073Q.375.934.945.788zm.568.436zm.105-.003q.12 0 .195.033.027.012 0 .012-.052 0-.288-.04.05-.005.093-.005zm2.564 1.252q.035 0 .097.068 1.125 1.223 2.792 2.865Q8.74 7.048 8.947 7.724 7.585 7.468 6.62 6.318q-.966-1.15-1.681-2.236-.716-1.086-.799-1.414-.017-.196.042-.196zm.046-.868q.202 0 .384.096 4.321 4.308 4.946 5.604.584 1.405.764 2.154-.076.11-.182.11-.087 0-.193-.074l-.57-1.515q-.43-1.296-2.104-2.875-1.674-1.579-2.424-2.5-.441-.542-.676-.542-.164 0-.227.268-.108.455-.38.455-.115 0-.26-.081.126-.858.542-1.022.198-.078.38-.078zm.357 6.43q.666 1.405.541 2.83-.125 0-.236.236-.045-.403-.277-.403-.051 0-.112.02.292-1.405.084-2.683zM2.107.346q.066 0 .116.013.25.063.292.237.029.122.058.122.013 0 .025-.022.042-.073.056-.164.305.53.041 1.57t.848 1.24q1.028 3.104 2.209 4.72 1.18 1.615.986 3.038-.449-.438-.993-.438-.113 0-.23.019.042-1.296-.472-2.556t-.945-1.889q-.43-.63-1.16-1.497-.73-.867-.722-1.789.007-.921.194-1.286.188-.365.181-.584-.003-.091-.027-.091-.035 0-.112.182-.132.31-.73.328l-.07.001q-.568 0-1.235-.274l.82.073q.404.11.601.11.162 0 .183-.074.049-.164-.076-.192-.125-.027-.257-.027t-.201.055l.026.052-.29-.052Q1.042.787 1.167.623q.028-.055.097-.055-.028.183.049.274.028.034.056.034.046 0 .09-.098.07-.155-.125-.228.511-.204.773-.204zm15.412.04q.375 0 .555.365.056.055.695.2v.056l-.695.073q-.597 0-.75-.12-.153-.118-.146-.273.007-.155.188-.155.18 0 .25.082t.035.173q-.035.092-.132.147h.028q.18 0 .187-.22.007-.237-.299-.273-.389 0-.291.374.092.357.854.357l.076-.001q.431-.037.765-.128L18.81.97q1.236 1.004 1.16 2.29-.077 1.288-.966 2.136-.889.85-1.584 1.871-1.083 1.734-1.167 2.72-.083.986.376.986.458 0 1.118-.721.66-.721 1.34-.74 1.82.055 1.612 2.209-.667-.93-1.5-.93-.417 0-1.14.474-1.097.766-1.667.766l-.472-.091q-.861-.84-.583-2.482.416-1.187 1.125-4.235.486-1.734.965-2.628.48-.895 1.022-.913.291 0 .944.365.027.01.047.01.094 0 .037-.21-.526-.429-1.226-.429-.225 0-.47.045-.208 0-.506-.146-.3-.146-.3-.694.251-.237.543-.237zM3.946 3.05q1.083 1.825 1.986 3.002.903 1.178 1.702 1.588.799.411 1.48.43.083.145 1.653 4.617l-.097.055-3.738-3.14q.028-.273-1.104-1.962-1.132-1.687-1.994-4.46l.112-.128zm3.834 7.867l2.07 1.66q.07.256-.5.348-.127.02-.233.02-.37 0-.49-.248-.152-.32-.389-.831-.236-.511-.458-.95zm7.071-.785q0 .767.167 1.332.43 1.004 1.153 1.023h.038q.711 0 1.699-.657.938-.625 1.365-.625.034 0 .066.004.416.055.903.566.486.51.514.894.05.311-.043.311-.06 0-.18-.128-.399-1.05-1.024-1.05h-.01q-.633.01-1.557.648-.923.639-2.153.639t-1.368-1.04q-.14-1.04.43-1.917zm-10.294 1.06l.208.547q.195-.255.299-.3l.005-.002q.088 0-.304 1.543l-.583.238q-.153-.146.09-.904.243-.757.285-1.122zm14.763 1.14q.461 0 .727.502-.18.384-.847.603-.514 0-1.042-.566.685-.539 1.162-.539zm-1.607.758q.207.265.448.438h-1.883q.692-.095 1.435-.438zm-7.182 1.15q-1.554 2.935-4.48 3.011-2.913-.076-4.467-3.011zm11.239.018q-1.554 2.935-4.48 3.012-2.913-.077-4.48-3.012zM2.346.008q-.084 0-.179.013-.222 0-1.264.42Q.069.696 0 1.098l.028.62.417-.2q.68.292 1.139.292.458 0 .347.41-.111.411.028 1.37.139.958 1.097 1.934.959.977 1.188 2.556.23 1.578-.41 3.641l.209-.164q.004-.004.007-.004.046 0-.216.816-.277.867-.757.894-.084.005-.16.005-.348 0-.486-.105-.155-.12-.462-.12l-.045.001q-.34.01-.34.302v.182H.61Q2.21 17.982 6.057 18q3.849-.018 5.446-4.472l-4.279.037q0-.165-.264-.356-.129-.094-.296-.094-.175 0-.391.103-.13.061-.278.061-.337 0-.771-.317.097-.639.236-1.14.139-.503.528-.594.036-.008.073-.008.362 0 .816.811.264-.675.153-1.825l.139.128q1.042 2.3 1.257 2.701.163.305.634.305.15 0 .331-.031.75-.128.737-.475l.639.42.486-.237-1.07-3.048q.264 0 .487-.292-.264-1.096-.82-2.446-.39-.822-.792-1.278Q7.961 4.603 6.78 3.39T5.043 1.518q-.373-.28-.775-.28-.226 0-.461.088-.653.246-.792 1.214-.042-.037.07-.73.11-.694-.05-1.287-.138-.514-.689-.514zM17.566 0q-.252 0-.478.094-.292.11-.347.42-.111.383.097.757.208.374.653.466-.89 1.058-1.514 3.741-.584 2.556-.973 3.779-1.042 1.113-1.035 2.236.007 1.122.424 1.597.301.343.878.438h-3.434q1.597 4.454 5.446 4.472 3.848-.018 5.445-4.472h-2.674q.153-.11.313-.256.156.245.354.245.083 0 .174-.044.347-.219.139-1.004.194-2.245-.459-2.865-.653-.621-1.473-.621-.75 0-1.625.849-.543.526-.743.526-.124 0-.118-.198.014-.52.611-1.761.403-.876 1.75-2.254 1.348-1.378 1.334-2.775-.014-1.396-.597-2.099-.584-.703-1.292-.794-.111-.2-.292-.328-.18-.128-.48-.146Q17.609 0 17.567 0zm8.908 0c-.93 0-1.746.684-1.746 1.562V18h1.136V1.562c0-.43.379-.57.617-.57.25 0 .634.175.634.703v10.804h1.136V1.695C28.25.815 27.38 0 26.474 0zm6.285.696q.927 0 .927 1.222 0 1.075-.927 2.129-.928-1.054-.928-2.129 0-1.222.928-1.222zm0 4.7q.653 0 .653 1.412 0 .8-.653 1.475-.654-.674-.654-1.475 0-1.412.654-1.412zm0 4.257q.653 0 .653 1.413 0 .8-.653 1.475-.654-.674-.654-1.475 0-1.413.654-1.413zm0-9.653q-1.686 0-1.686 1.918-.021 1.201.558 1.886.58.685.517.917-.738.864-.738 2.087 0 1.012.864 2.17-.864.865-.864 2.088 0 1.011.864 2.15.105.273-.59 1.285-.696 1.012-1.433 3.499h.927q.464-1.644.822-2.35.358-.706.759-1.149.421.443.77 1.149.347.706.81 2.35h.95q-.696-2.487-1.424-3.499-.727-1.012-.6-1.286.843-1.138.843-2.15 0-1.222-.801-2.086.8-1.16.8-2.171 0-1.223-.716-2.087-.063-.232.506-.917.57-.685.57-1.886Q34.466 0 32.758 0zm12.813.585c-.03 4.318-.064 8.637-.09 12.955.062.7.098 1.402.18 2.1.047.372.29.72.237 1.101-.079.258-.248.662-.534.662a.4.4 0 0 1-.208-.066c-.463-.178-.904-.472-1.415-.472-.028 0-.057 0-.085.002h-.076c-.97 0-1.924.214-2.887.308-.526.075-1.05.195-1.584.195h-.067c.963-.218 1.914-.586 2.673-1.234 1.032-.802 2.068-1.6 3.099-2.406.14-.172-.067-8.948-.136-13.114l.893-.03zM46.096 0c-.51.017-1.27.009-1.777.041-.272.079-.224.383-.22.601l.21 12.755c-1.127.862-2.244 1.737-3.378 2.59-.634.413-1.368.67-2.108.806-.331-.004-.666-.175-.995-.175a.763.763 0 0 0-.316.064c-.254.195-.342.73-.002.894.512.274 1.083.379 1.657.379.363 0 .727-.042 1.079-.109.818-.139 1.644-.22 2.465-.336.27-.024.551-.06.827-.06.299 0 .593.042.862.19.325.143.683.36 1.044.36a.795.795 0 0 0 .362-.084c.379-.236.598-.675.69-1.1.076-.556-.299-1.047-.292-1.599-.043-.603-.112-1.205-.139-1.809.03-4.364.2-13.408.031-13.408zm7.777.936v.012c.446 0 .808.038 1.085.115-.292.5-.654.878-1.085 1.132-.439-.254-.8-.631-1.086-1.132.277-.085.64-.127 1.086-.127zm0 1.767v.012c.154.885.25 1.52.289 1.905.03.262.046.705.046 1.329 0 .415-.016.796-.046 1.143-.054.346-.15.685-.29 1.016v-.011a4.359 4.359 0 0 1-.288-1.017c-.03-.338-.046-.716-.046-1.131 0-.624.011-1.067.035-1.329a39.94 39.94 0 0 1 .3-1.917zm-1.548-1.617l.312.208c.239.447.547.812.924 1.097-.262 1.463-.377 2.649-.346 3.558 0 1.1.142 1.955.427 2.563a.313.313 0 0 0 .23.093v.011h-3.984V1.93c.239-.254 1.051-.535 2.437-.843zm3.084.012c1.386.3 2.202.581 2.448.843v6.675h-3.984a.29.29 0 0 0 .23-.104c.278-.608.42-1.462.428-2.563.031-.909-.088-2.095-.358-3.558.377-.285.685-.647.924-1.085l.312-.208zM54.099.33c.574 0 1.29.1 2.147.3.974.227 1.758.49 2.35.791v7.195h-.438v-6.94A10.096 10.096 0 0 0 55.9.872a9.182 9.182 0 0 0-2.027-.226l-.013-.01h-.084a8.95 8.95 0 0 0-1.931.23c-.728.162-1.48.428-2.258.798v6.952h-.45V1.421c.6-.3 1.385-.564 2.356-.791.854-.2 1.568-.3 2.142-.3.077 0 .153.002.225.005h.012c.072-.003.148-.005.226-.005zm-.268 9.073l.859.703-.86.803-.858-.803.859-.703zm0-.267l-1.126.97 1.126 1.07 1.137-1.07-1.137-.97zm4.35-.023c-1.01 1.367-2.463 2.07-4.356 2.108-1.878-.039-3.322-.741-4.332-2.108zM53.788 0c-.59 0-1.28.077-2.07.232-.828.161-1.792.458-2.893.889v7.495h-.312v.462h.292c1.056 1.764 2.732 2.65 5.025 2.656 2.3-.007 3.979-.892 5.036-2.656h.342v-.462h-.3V1.121C57.814.697 56.854.403 56.026.237 55.27.086 54.604.01 54.03.01c-.054 0-.106 0-.158.002V.001L53.789 0zm4.771 13.452c.097 0 .146.353.146.451 0 .098-.049.452-.146.452h-9.37c-.115 0-.172-.354-.172-.452 0-.098.057-.451.171-.451zm-9.664-.513c-.26 0-.39.525-.39.964 0 .44.13.964.39.964h9.957c.244 0 .366-.525.366-.964 0-.44-.122-.964-.366-.964zm9.664 3.646c.097 0 .146.353.146.451 0 .098-.049.452-.146.452h-9.37c-.115 0-.172-.354-.172-.452 0-.098.057-.451.171-.451zm-9.664-.513c-.26 0-.39.525-.39.964 0 .44.13.964.39.964h9.957c.244 0 .366-.525.366-.964 0-.44-.122-.964-.366-.964z"/></svg>