<svg xmlns="http://www.w3.org/2000/svg" width="70.541" height="18"><path d="M1.188 0C.946 0 .705.018.471.048.148.129.314.498.6.498c.019 0 .038 0 .058-.004.606.07 1.351.108 1.808.451.607.661.334 2.035.405 2.688.005.035.007 2.635.007 3.952a4.433 4.433 0 0 0-2.757-.338c-.318.167.055.381.305.381.03 0 .057-.003.082-.01.885.096 1.89.333 2.34 1.156.044.15.016.2-.051.2-.15 0-.49-.247-.683-.247l-.03.002a5.436 5.436 0 0 0-1.14-.121c-.28 0-.559.022-.828.069-.303.2.07.385.316.385a.384.384 0 0 0 .076-.007c.903.109 1.902.353 2.34 1.177.005.917 0 1.522.024 2.365-.01.26.158.388.329.388.17 0 .341-.127.342-.379-.006-.83-.065-1.56.043-2.364.22-.904 1.788-1.043 2.761-1.266.213-.25-.205-.342-.475-.342a.882.882 0 0 0-.108.006 4.922 4.922 0 0 0-.376-.015c-.637 0-1.278.127-1.845.419-.023-.545.513-.858.897-1.077.607-.261 1.274-.287 1.907-.427.226-.196-.13-.36-.376-.36a.418.418 0 0 0-.09.008 4.881 4.881 0 0 0-.467-.023c-.651 0-1.302.133-1.886.42.012-2.056.045-4.047-.014-5.993C3.468.991 3.121.438 2.538.26 2.119.068 1.653 0 1.188 0zM3.21 15.286c.761 0 1.715.39 2.176.852.403.404.456.939.47 1.436H.586c.015-.497.068-1.032.471-1.436.461-.461 1.392-.852 2.154-.852zm0-.427c-.904 0-1.876.418-2.446.987-.584.585-.65 1.354-.65 1.93V18h6.192v-.224c0-.576-.044-1.345-.629-1.93-.57-.57-1.564-.987-2.467-.987zM18.847 2.233q.416 0 .811.452-3.262 3.883-4.077 4.34-.608.34-1.07.34-.158 0-.299-.04-.553-.155-1.184-.174h-.032q-.618 0-1.356.737h-.097q.524-1.223 1.465-1.747.942-.524 5.524-3.844.159-.064.315-.064zM13.074.463q.049 0 .1.009v4.99q-1.534.893-2.117 2.504.893-6.174 1.252-6.873.324-.63.765-.63zm-4 7.817q-.06 0-.114.103-.097.185.175.515.155-.408.039-.553-.052-.065-.1-.065zm.028-.277q.114 0 .247.177.29.388-.175 1.553-.524-1.01-.32-1.476.11-.254.248-.254zm5.081 1.924v.291q-.214-.02-.33-.136.039-.058.155-.155zm.447.66l1.805.252.37.66q-.622-.174-1.37-.465-.747-.292-.805-.447zm-3.98-.272l.349.175.116.835-.31.951h-.486l.33-.951v-1.01zm.834.292l.33.097.117.62-.31.952h-.486l.33-.951.02-.718zm1.146.116l.116.602-.31.951h-.486l.33-.951v-.583l.35-.019zm-.743-2.415q.31 0 .665.075 1.049.224 1.32 1.059h.816l.31-.505q4.117.951 4.64 3.436-1.125-.621-2.368-.835l-.544-1.087-2.155-.291.059-.524h-.738q-.816.671-1.664.671-.182 0-.365-.03-1.039-.175-1.36-.71-.32-.533.34-.97.437-.29 1.044-.29zM13.266 0q-.708 0-1.112.491-.495.602-.922 3.165l-.68 4.446q-.33.35-.504.388h-.233q-.02-.485-.37-.893-.31-2.97.272-5.203l-.233-.447q-.834 2.524-.407 5.67h-.059q-1.34-3.01-.388-5.67l-.233-.35q-1.242 2.835.272 6.155-.427.932-.087 1.534.34.602.417 1.126l.136.097q.524-.776.602-1.34h.194q.02.447.252.933l.136 1.223-.33.951H8.3v.466h4.873v-.466h-.407l.31-.951.02-.718q.35-.117.524-.272.252.233.563.233-.02.194.078.33.776.602 2.776 1.048l.68 1.32q0-.324.2-.324.065 0 .15.033l-.544-.97q1.126.252 1.708.64.31.33-.039.796.777-.33.874-.932-.31-2.932-5.262-4.077l-.35.582h-.31q-.252-.815-2-1.126.39-.289.96-.289.309 0 .671.085.368.087.718.087.63 0 1.204-.28.894-.438 4.544-4.825-.673-.849-1.423-.849-.246 0-.5.091l-4.717 3.379V.025Q13.425 0 13.266 0zm.774 15.286c.76 0 1.714.39 2.175.852.404.404.457.939.471 1.436h-5.272c.015-.497.068-1.032.472-1.436.46-.461 1.392-.852 2.153-.852zm0-.427c-.904 0-1.876.418-2.446.987-.584.585-.65 1.354-.65 1.93V18h6.191v-.224c0-.576-.044-1.345-.628-1.93-.57-.57-1.564-.987-2.468-.987z"/><path d="M29.74.375c-9.624 0-9.624 17.25 0 17.25m0 0" fill="none" stroke="#000"/><path d="M37.839 3.173c-.682.054-1.058.394-1.13 1.022.09.68.466 1.04 1.13 1.075.663-.036 1.012-.394 1.048-1.075-.054-.628-.403-.968-1.048-1.022zm.08-2.259c.484 0 .932.09 1.345.27a3.545 3.545 0 0 1 1.828 1.815c.18.402.269.828.269 1.276 0 .466-.09.901-.269 1.305a3.422 3.422 0 0 1-3.173 2.03c-.484 0-.936-.085-1.358-.256a3.235 3.235 0 0 1-1.089-.712 3.495 3.495 0 0 1-.726-1.062 3.174 3.174 0 0 1-.269-1.305c0-.448.09-.874.27-1.277a3.67 3.67 0 0 1 .725-1.075 3.31 3.31 0 0 1 1.09-.74 3.41 3.41 0 0 1 1.357-.269zM37.865 0a4.17 4.17 0 0 0-1.667.336c-.52.224-.968.529-1.344.914a4.48 4.48 0 0 0-.901 1.345 4.071 4.071 0 0 0-.336 1.653c0 .592.112 1.143.336 1.654.224.511.524.955.9 1.331a4.267 4.267 0 0 0 3.012 1.237c.592 0 1.143-.112 1.654-.336a4.48 4.48 0 0 0 1.345-.9c.385-.377.69-.82.914-1.332a4.07 4.07 0 0 0 .336-1.654c0-.591-.112-1.142-.336-1.653A4.358 4.358 0 0 0 39.519.336 4.071 4.071 0 0 0 37.865 0zm-.043 11.874l.133.001h.068q2.49 0 4.748 2.14l-1.397 1.13q-1.308-1.248-3.42-1.248-2.11 0-3.419 1.249l-1.397-1.13q2.23-2.142 4.684-2.142zm.133 2.885q2.348.03 3.865 2.468h-7.76q1.189-2.438 3.895-2.468zm0-3.805q-3.687.148-6.214 3.032l2.11 1.784q-.891 1.19-1.1 2.23h10.377q-.208-1.04-1.1-2.2l1.962-1.784q-2.349-2.914-6.035-3.062zM48.823 0q-.094 0-.226.115-.519.699-.559 1.997.16 1.018.72 2.875-.2 1.498-.3 4.114-.08.879.479 1.138 1.657.44 4.193.44 2.556 0 4.194-.44.579-.26.5-1.138-.1-2.616-.3-4.114.559-1.857.718-2.875-.04-1.298-.559-1.997Q57.552 0 57.457 0q-.134 0-.193.235.14.4.26.779.16.479.12.898-.04.68-.13 1.109-.09.429-.37.429l-.03.001q-.47 0-.47-1.26 0-.458.12-1.117-.102-.175-.22-.175-.113 0-.239.155-.06.479-.08 1.058-.08.879.42 2.476-.18 2.257-.18 4.513-1.358.22-3.335.28-1.957-.06-3.314-.28 0-2.256-.18-4.513.5-1.597.42-2.476-.02-.58-.08-1.058-.127-.155-.238-.155-.12 0-.222.175.12.659.12 1.118 0 1.26-.47 1.26l-.03-.002q-.279 0-.369-.43-.09-.429-.13-1.108-.04-.419.12-.898.12-.38.26-.78Q48.958 0 48.823 0zM45.99 12.248V18h.961v-5.752zm6.61.008V18h.961v-5.744zm6.73 0V18h.96v-5.744z"/><path d="M69.978.375v17.25M62.29.375c9.626 0 9.626 17.25 0 17.25" fill="none" stroke="#000"/></svg>