<svg xmlns="http://www.w3.org/2000/svg" width="61.056" height="18"><path d="M5.566.322q.06 0 .113.039.214.116-.136.564-.37.369-.457.622-.088.253-.185.67-.097.419-.428 1.197l-.447.136H2.412q.233-.506.544-.914.759-.7 1.128-.934.37-.233.593-.398.224-.166.477-.632.233-.35.412-.35zM4.55 3.939l-.311.68q-.454-.045-.84-.045-.775 0-1.28.182-.097-.661-.292-.817zm-2.237 1.42q-.37.02-.389.35.02.389.39.389.369 0 .388-.39-.02-.33-.389-.35zm.837-.33q.836 0 .972.777.136.778-.895 1.07.35.66 0 .836-.123.062-.24.062-.216 0-.411-.208-.302-.32-.535-.914-.233-.593-.7-.593h.33q-.213-.33-.155-.506l.034.002q.166 0 .219-.177.37-.35 1.38-.35zm1.147.057q.292 0 .836 1.255.545 1.254 1.77 2.314t1.974 2.577q.749 1.517 2.927 3.326-3.812-1.809-4.784-2.237-.973-.428-3.15-2.003-1.246-.914-1.246-1.459 0-.427.098-.739V8.1q.992 0 .992-.991 1.342-.661.583-2.023zm-.545 5.971q.37 1.77 1.829 3.91-.139.109-.302.109-.385 0-.904-.616 0-.972-.7-3.403zm.642.622q1.148.914 2.587 1.731v1.848q-.506-.39-1.011-.467-1.381-2.256-1.576-3.112zm.214 3.812q.265.336.546.336.255 0 .524-.277l.097 1.711q-.185-.041-.354-.041-.308 0-.56.138-.34-.113-.597-.113-.096 0-.18.016l.524-1.77zm.603-3.676l5.815 2.937q1.128 1.264 2.159 2.392v.02l-1.459.233-2.898-3.131q-.836-.68-3.617-2.45zM5.482 0h-.037q-.233.01-.486.4-.058.174-.243.388-.185.214-.535.428-.35.214-.505.34-.156.127-.525.458-.312.252-.448.408-.31-.194-.525-.476-.214-.282-.233-.516-.02-.233.048-.37.069-.135.214-.165.04-.008.08-.008.103 0 .202.057.136.078.117.272-.039.175-.253.214-.058-.025-.095-.025-.05 0-.06.045-.04.252.194.272l.05.002q.2 0 .33-.138.145-.156.126-.525Q2.762.652 2.47.613 2.417.606 2.364.606q-.237 0-.468.144-.282.175-.311.544-.03.37.263.749.291.379.641.632-.272.35-.564.875H1.09q.506.545.603 1.536h-.04q-.346 0-.29.331-.545.156-.545 1.03.181-.105.34-.105.044 0 .088.009.233 0 .379.544.146.545.632 1.206v.02q-.117.233-.117.738 0 .506.895 1.459.895 3.073.875 4.493 0 .175.253.213l-.642 2.14q-.052-.004-.106-.004-.272 0-.604.082-.19.046-.388.046-.219 0-.448-.056-.253-.062-.497-.062-.177 0-.349.033-.272.051-.432.051-.08 0-.132-.012Q.058 17.358 0 18q.337-.194.514-.194.089 0 .138.048.145.146.573.146h5.66q.37 0 .583-.156.071-.051.169-.051.194 0 .492.207.02-.622-.66-.797-.386.143-.696.143-.238 0-.433-.085l-.097-1.925q.532.736.93.736.17 0 .315-.134-.137-1.186-.137-2.178l.545.33q.467.215 2.052 2.024 1.52 1.734 1.814 1.734.013 0 .024-.004l1.847-.389q.292-.097.117-.291l-1.46-1.654q1.362.875 2.042 1.167-.33-.37-1.108-.934l.389.136q.233-.039.194-.37-3.384-2.45-4.298-4.22-.914-1.77-2.149-2.878-1.235-1.108-1.838-2.49-.37-.874-.758-1.186L6.573.633 6.146.399 5.134 2.597l.098-.447q.116-.467.252-.7.137-.234.273-.331.291-.428.291-.661 0-.234-.175-.35Q5.693 0 5.481 0zm15.959 3.326l1.236.785q.247 2.428.051 3.91-.196 1.484-.233 2.45-.036.967.473 2.596-.015.116-.422.334-.19.102-.452.102-.296 0-.682-.131.77-1.425.67-3.097-.103-1.672-.393-3.758-.291-2.086-.248-3.191zm-.552 10.7q.669.117 1.134.233-.175.64-.814.814-.274.075-.527.075-.337 0-.636-.133.261-.61.843-.989zM20.802 2.25q-.131 1.207.312 4.064.444 2.856.444 3.845 0 2.617-1.003 3.155-.945.96-1.222 1.934.277.378.989.472.226.03.431.03.443 0 .79-.139.509-.204.77-.538.335-.45.19-1.018l.625-.334q.45-.218.276-.698-.712-1.919-.269-4.536.444-2.617.124-4.696L20.802 2.25zm7.608 0l-.01.001a11.443 11.443 0 0 1-.829.027c-.06.004-.064.08-.044.122.124.35.231.705.332 1.063h-.014c-.1.001-.2 0-.299.01l-.005.007c-.006-.023-.02-.043-.044-.049a21.185 21.185 0 0 1-.94-.681c-.009-.001-.016-.004-.024-.004h-.006c-.03.02-.042.063-.059.094-.054.146-.099.295-.16.438-.042.109-.09.217-.122.329.014.031.041.04.071.04.029 0 .06-.008.084-.015.38-.082.771-.074 1.158-.08-.038.085-.055.18-.09.266-.015.05-.034.099-.045.15l-.01-.001-.011.001c-.472.183-.934.407-1.337.716-.193.15-.384.305-.552.48-.004.072.076.094.13.115l.325.134c-.055.076-.069.174-.104.26-.183.537-.44 1.043-.655 1.566 0 .044.04.065.08.065a.098.098 0 0 0 .04-.009c.076-.014.152-.021.228-.023-.015.06-.022.122-.048.178-.129.41-.339.786-.498 1.183-.007.043.033.07.072.07a.074.074 0 0 0 .033-.007c.194-.032.39-.06.588-.068-.023.055-.027.116-.044.173-.096.402-.234.799-.251 1.215-.004.27.029.54.072.808.074.439.207.866.378 1.277.001.037.036.06.07.06a.06.06 0 0 0 .053-.029c.025-.055.033-.117.052-.175a5.98 5.98 0 0 0 .2-1.087 9.26 9.26 0 0 0 .041-.955c-.013-.373-.102-.737-.16-1.105-.01-.055-.017-.112-.031-.167a5.19 5.19 0 0 1 .564.094c.06 0 .073-.08.046-.121-.16-.419-.323-.837-.457-1.265l.019.004c.162.03.325.067.49.076.051-.042.014-.112-.01-.159-.2-.43-.361-.88-.426-1.351-.02-.128-.02-.258-.042-.385l.42.168c.06-.015.064-.09.051-.14a1.553 1.553 0 0 1 .197-.885c.132-.234.322-.427.516-.61.076.065.166.114.252.167l-.043.011c-.16.308-.294.629-.437.945-.018.044-.04.089-.046.135.024.04.064.047.105.047.026 0 .053-.003.077-.003h.004l.178-.005c-.02.062-.026.13-.046.191l-.34 1.416c.014.05.064.061.112.061.014 0 .027 0 .04-.002l.293-.01c-.027.077-.04.16-.066.238-.126.464-.255.928-.379 1.392.014.052.065.063.114.063a499.756 499.756 0 0 1 .51-.015.64.64 0 0 0-.018.075c-.098.426-.248.844-.27 1.284-.002.398.057.795.148 1.182.075.313.182.617.303.915.005.034.037.057.069.057a.056.056 0 0 0 .048-.026c.026-.046.03-.101.049-.151a6.18 6.18 0 0 0 .232-1.404c.015-.253.024-.507.013-.76-.026-.363-.109-.719-.167-1.078-.006-.035-.012-.072-.021-.107l.49-.016c.058-.045.025-.124.01-.181-.14-.498-.277-.996-.42-1.492.137-.005.274-.01.41-.017.057-.044.025-.122.008-.18l-.431-1.452c.146-.004.293-.007.439-.012.055-.037.028-.111.002-.158-.13-.295-.258-.591-.393-.885a6.12 6.12 0 0 0 .288-.126c.26.244.488.537.593.883.06.205.064.422.043.634.012.033.04.045.07.045a.147.147 0 0 0 .075-.021l.327-.135-.003.003a3.81 3.81 0 0 1-.257 1.251c-.071.196-.161.384-.24.576-.004.042.035.067.073.067a.075.075 0 0 0 .037-.01c.144-.02.288-.05.431-.077-.028.08-.048.163-.08.242-.123.358-.261.711-.395 1.066-.01.042.028.079.067.079a.06.06 0 0 0 .03-.009 4.33 4.33 0 0 1 .53-.085.421.421 0 0 0-.01.049c-.058.33-.123.658-.164.99a3.634 3.634 0 0 0-.013.625c.019.526.071 1.054.212 1.562.024.087.047.174.075.26a.06.06 0 0 0 .056.032c.028 0 .056-.016.062-.046.203-.483.35-.992.417-1.512.037-.303.061-.612.003-.913-.058-.32-.153-.632-.23-.948-.012-.037-.018-.077-.03-.113.09.002.181.008.272.02.126.013.251.04.378.05.053-.014.049-.085.022-.122-.176-.426-.406-.833-.52-1.282l-.005-.024.063.001c.081.006.161.023.241.03.057-.026.043-.1.016-.142-.234-.534-.489-1.06-.67-1.616-.017-.043-.03-.092-.054-.13l-.005-.003c.147-.06.294-.122.44-.186.034-.058-.024-.115-.067-.148a5.224 5.224 0 0 0-1.242-.864 4.792 4.792 0 0 0-.528-.222c-.013-.04-.032-.08-.042-.12-.047-.134-.086-.272-.145-.4a.186.186 0 0 0 .039.003h.157c.338 0 .68.01 1.01.087.01.004.022.006.034.006.034 0 .07-.017.062-.054-.064-.202-.155-.394-.22-.596-.03-.082-.06-.166-.096-.245a.083.083 0 0 0-.044-.006c-.31.227-.616.464-.938.676-.033.017-.077.052-.053.094a.626.626 0 0 0-.116-.008l-.118.001a.917.917 0 0 1-.05 0h-.026a.057.057 0 0 0 .003-.022c.125-.375.25-.754.465-1.09.027-.033.008-.093-.034-.1l-.008-.001zm-.494 11.394c.591 0 1.33.303 1.689.661.313.313.354.729.365 1.114h-4.09c.011-.385.052-.8.365-1.114.358-.358 1.08-.661 1.671-.661zm0-.331c-.7 0-1.455.324-1.897.766-.454.453-.505 1.05-.505 1.497v.174h4.804v-.174c0-.447-.034-1.044-.487-1.497-.442-.442-1.214-.766-1.915-.766zm6.431-10.587q-.278 0-.278.328 0 .278.278.278.295-.016.295-.311t-.295-.295zm-1.082.213v.295l-.639.115q.295-.312.64-.41zm.033.393q.377.295.131.443-.377-.131-.557-.344l.426-.099zm1.148-.754q.77 0 1.23.59.458.59.491 1.82 1.197.246 1.59 1.082.064.542-.244.542l-.018-.001q-.328-.016-.517-.18-.068-.06-.103-.06-.061 0-.02.183.066.287.722.696.656.41.106.68-.136.068-.29.068-.466 0-1.095-.616-.836-.82-.885-1.246-.05-.427.344-.787.234-.215.16-.215-.05 0-.242.1-.475.246-.5.721-.024.476.377 1.041.402.566 1.582 1.435.12.063.273.063.325 0 .793-.285.688-.418-.689-1.286.508-.132.525-.443.64.213 3.59 3.967.787.525.803.77-.016.23-.246.28-.049.01-.1.01-.185 0-.391-.142-.918.443-1.78.46h-.089q-.8 0-1.328-.28.54.476.377 1-.08.255-.12.255-.044 0-.044-.287 0-.558-1.426-1.066v.623q-.084.353-.134.353-.047 0-.063-.32-.098-.705-.467-1.517-.37-.811-1.172-2.245-.804-1.435-1.025-2.066-.221-.631-.205-1.172.017-.541-.221-.795t-.14-.55q.099-.295-.295-.557v-.278q.427-.345.886-.345zm3.114 9.443q.804.23.804.54l-.541 2.017q-.066.361-.443.361h-.656v-.033l.836-2.557v-.328zM34.505 2.25h-.06q-.639 0-1.294.525-.377.131-.77.607.54.491.983.606.049.23.311.64.017 1.081.295 1.795.279.713 1.87 3.827.786 1.64.786 2.017 0 .574-.721 2.574 0 .114-.984.18-1.475.05-1.475.41 0 .213.196.213h4.361q.41-.328.46-.558.393.164.425.443.056.221.157.221.02 0 .04-.008.131-.049.131-.213-.115-.443-.574-.852l.525-2.213q1.59-.05 2.77-.509.22.05.401.05.365 0 .583-.197.328-.295-.131-.918-1-1-1.902-2.197-1.852-2.279-2.54-2.64-.23-.475-.55-.753-.32-.28-1.156-.689-.016-.967-.45-1.672-.425-.689-1.687-.689z"/><path d="M16.708.375v17.25m0-17.25h2.625m-2.625 17.25h2.625m0-17.25h23.723m-23.723 17.25h23.723m0-17.25h17.625m-17.625 17.25h17.625M44.819.375v17.25M48.344.375v17.25M50.106.375v17.25M51.869 2.1h8.812m-8.812 3.45h8.812M51.869 2.1v3.45m1.762-1.725h7.05m-8.812 3.45h8.812m-8.812 3.45h8.812m-8.812-3.45v3.45M53.631 9h7.05m-8.812 3.45h8.812m-8.812 3.45h8.812m-8.812-3.45v3.45m1.762-1.725h7.05" fill="none" stroke="#000"/></svg>