<svg xmlns="http://www.w3.org/2000/svg" width="41.919" height="18"><path d="M1.97.274q-.066.692-.066 1.552 0 .859.083 1.736-.19-.102-.596-.102-.412 0-.597.102.09-.877.084-1.736Q.872.966.812.274zM1.39 3.83q.406.006.824.215l-.107.197q-.085-.015-.158-.015-.254 0-.38.176-.07-.316-.178-.388-.108.072-.185.388-.125-.176-.38-.176-.073 0-.157.015l-.107-.197q.43-.209.829-.215zm0 .573q.09.071.06.209-.03.137-.06.262-.035-.125-.065-.262-.03-.138.066-.21zm.544 0q.034 0 .071.006-.405.966-.614.966-.203 0-.627-.966.039-.005.073-.005.218 0 .28.196.077.22.16.358.09.143.114.143.03 0 .107-.143.084-.138.155-.358.067-.196.281-.196zM.46 0Q.746 2.028.454 3.657q-.53.25-.441.424.065.13.15.13.03 0 .064-.017.52.585.854 1.378.13 1.307-.036 4.516 0 .639.334.639h.018q.334 0 .334-.639-.161-3.21-.036-4.516.328-.793.847-1.378.034.018.065.018.084 0 .15-.131.09-.173-.436-.424-.298-1.629 0-3.657zm5.27.282c.413 0 .743.12.974.286.003.032.011.064.005.095a.636.636 0 0 1-.236.376c-.188.123-.415.159-.63.212-.054.006-.011.018.019.023a4.397 4.397 0 0 0 .61.059.97.97 0 0 0 .456-.186.663.663 0 0 0 .121-.14c.088.206.136.425.156.546.01.066.057.12.12.14C8.004 1.9 8.54 2.83 9.041 3.45c1.03 1.273 1.907 2.697 2.916 4.028-.559-.272-1.115-.546-1.675-.819-1.144-.602-2.336-1.082-3.34-1.84l-.004-.006c-.578-.481-1.17-.989-1.394-1.664-.088-.548 1.047-1.536.92-1.577a.124.124 0 0 0-.04-.006c-.272 0-1.044.672-1.202 1.312l-.009-.026c-.043-.213-.092-.75.04-1.18a.173.173 0 0 0 .007-.062 1.173 1.173 0 0 0-.073-.377c-.038-.102-.083-.205-.156-.456C5.013.712 4.947.58 4.908.57c.11-.082.223-.167.384-.224a.259.259 0 0 0-.079.187c0 .137.098.248.218.248s.217-.11.217-.248c0-.11-.066-.2-.152-.233.031-.004.057-.01.092-.013.048-.003.095-.005.141-.005zm.399 4.626c.039.04.08.074.12.112.128.465.246.978.413 1.374.288.682.724 1.276 1.096 1.88a1.08 1.08 0 0 0-.229.16 4.07 4.07 0 0 0-.119.115 1.556 1.556 0 0 0-.706-.535c.026-.43-.065-1.02-.203-1.66a20.8 20.8 0 0 0-.372-1.446zm.6.542c.684.563 1.446 1.036 2.19 1.513-.01.543-.01 1.06.05 1.594a2.033 2.033 0 0 0-.856-.438c-.012 0-.022.007-.034.007-.387-.634-.824-1.227-1.095-1.868a6.633 6.633 0 0 1-.255-.808zm.242 3.13c.098.092.186.197.262.323a.179.179 0 0 0 .154.084c.035 0 .07-.01.1-.032.129-.093.207-.193.284-.266a.794.794 0 0 1 .089-.07l.088 1.622c-.127-.008-.259-.02-.38-.02-.157 0-.294.021-.376.102-.101-.08-.297-.098-.531-.098l-.188.003.498-1.647zm.69-2.875c.807.47 1.659.843 2.464 1.267l.004.001c.772.377 1.541.764 2.32 1.135.587.709 1.223 1.368 1.835 2.038l-1.282.216c-.847-.922-1.695-1.84-2.542-2.762a.172.172 0 0 0-.022-.022c-.894-.677-1.879-1.24-2.777-1.873zM5.769 0c-.08 0-.162.003-.245.008C4.878.05 4.408.321 4.248.69c-.025.055-.087.186-.005.186A1.401 1.401 0 0 1 4.446.86c.25 0 .227.103.281.116.054.169.172.505.18.637a2.973 2.973 0 0 0-.038 1.31c.09.436.376.944.752 1.418a.17.17 0 0 0 0 .099c.18.55.388 1.292.538 1.988.15.696.234 1.357.189 1.683a.175.175 0 0 0 .132.195c.026.007.05.018.075.027l-.553 1.834a1.697 1.697 0 0 0-.353-.032c-.227 0-.45.03-.634.03a.899.899 0 0 1-.203-.02.325.325 0 0 0-.074-.007c-.26 0-.851.182-.8.524.09-.076.154-.094.225-.094.065 0 .137.015.24.015h.017c.151-.002.415-.05.628-.05.107 0 .2.013.26.049.141-.006.268-.008.387-.008.506 0 .863.041 1.49.044.47-.004 1.31-.023 1.773-.046.268.001.415.032.549.032h.024c.08-.003.157-.034.286-.034.073 0 .163.01.278.042-.148-.204-.522-.409-.792-.409a.352.352 0 0 0-.18.043 3.028 3.028 0 0 0-.303-.013c-.13 0-.266.005-.404.011l-.093-1.686c.29.121.51.308.763.608a.176.176 0 0 0 .306-.147c-.115-.618-.127-1.202-.12-1.822.321.21.638.424.939.651.865.942 1.732 1.882 2.598 2.824a.173.173 0 0 0 .157.053c.565-.095 1.132-.187 1.697-.282a.175.175 0 0 0 .137-.115.178.178 0 0 0-.035-.177c-.442-.495-.899-.972-1.342-1.457.757.465 1.714 1.046 1.836 1.046.013 0 .017-.008.007-.024-.056-.097-.536-.45-1.057-.819.083.035.164.072.247.106l.01.006c.061.021.095.035.16.037a.17.17 0 0 0 .066-.01.189.189 0 0 0 .112-.09.19.19 0 0 0 .013-.142c-.01-.03-.023-.046-.032-.059-.036-.05-.061-.064-.097-.091a2.713 2.713 0 0 0-.122-.089c-.091-.063-.2-.133-.294-.195a2.975 2.975 0 0 1-.212-.154l-2.319-1.63c-.005-.004-.012-.001-.017-.004-.794-1.114-1.542-2.28-2.41-3.353C8.87 2.68 8.36 1.72 7.533 1.4c-.04-.236-.13-.671-.45-.982C6.814.155 6.42.033 5.98.006A3.414 3.414 0 0 0 5.769 0zM3.343 13.378h.002c1.086 0 2.319.07 4.294.07 1.978 0 3.208-.07 4.293-.07.113 0 .224.001.335.003-.719.373-1.771.886-2.465 1.075a7.662 7.662 0 0 1-2.114.268 7.663 7.663 0 0 1-2.114-.268c-.694-.189-1.748-.703-2.466-1.077l.235-.001zm1.861 1.686a.07.07 0 0 0-.003 0c-.172.01-.874.627-1.13.963-.165.217-.21.495-.046.625a.25.25 0 0 0 .158.053c.142 0 .305-.102.423-.256.272-.358.724-1.297.622-1.378a.037.037 0 0 0-.024-.007zm4.915 0h-.002a.035.035 0 0 0-.021.007c-.103.081.35 1.02.622 1.378.118.154.28.256.422.256a.25.25 0 0 0 .159-.053c.164-.13.119-.408-.047-.625-.257-.338-.968-.963-1.133-.963zm-4.111.2h-.004c-.148.014-.708.814-.881 1.212-.11.252-.088.533.102.618a.242.242 0 0 0 .1.022c.16 0 .325-.153.416-.36.18-.414.398-1.436.28-1.49a.03.03 0 0 0-.013-.002zm3.307 0h-.003a.028.028 0 0 0-.009.003c-.119.053.1 1.075.28 1.488.09.208.256.361.416.361a.242.242 0 0 0 .1-.022c.19-.085.211-.366.102-.618-.175-.401-.743-1.212-.886-1.212zm-2.328.15h-.002c-.138.01-.58.91-.693 1.338-.07.265-.005.54.195.594a.243.243 0 0 0 .064.009c.174 0 .332-.188.394-.425.115-.438.175-1.481.05-1.515a.03.03 0 0 0-.008-.001zm1.35 0H8.33c-.126.035-.067 1.078.048 1.516.063.237.22.425.394.425a.243.243 0 0 0 .064-.009c.2-.055.265-.329.195-.594-.113-.43-.56-1.338-.695-1.338zm-.707.013h-.001c-.13.015-.335 1.027-.335 1.476 0 .275.131.523.339.523.204 0 .336-.248.336-.523 0-.453-.207-1.476-.337-1.476H7.63zm-.217-2.81h.223c1.47 0 2.76.001 3.769.02 1.009.02 1.752.064 2.062.129.269.056.59.201.832.401s.4.443.42.708c.083 1.2.049 2.408.007 3.623h-.049a25.19 25.19 0 0 0 .047-1.888c-.01-.726-.052-1.374-.168-1.788-.14-.497-.54-.832-.999-.875a16.83 16.83 0 0 0-1.635-.072c-1.098 0-2.327.07-4.283.07-1.955 0-3.186-.07-4.287-.07-.554 0-1.074.018-1.638.072-.484.046-.86.437-.999.929-.116.412-.157 1.048-.168 1.761-.01.617.01 1.278.047 1.86H.546c-.042-1.214-.077-2.422.007-3.622.018-.265.178-.517.419-.72.241-.203.559-.345.82-.387.765-.123 2.81-.149 5.511-.15h.11zm-.088-.502h-.153c-2.633.001-4.589.017-5.459.157a2.25 2.25 0 0 0-1.064.498c-.315.265-.567.631-.597 1.07-.092 1.315-.046 2.62 0 3.918L.06 18h1.072l-.02-.27a24.19 24.19 0 0 1-.063-2.085c.01-.695.065-1.33.15-1.632.093-.33.332-.544.563-.566.119-.012.236-.022.353-.03.293.167 2.14 1.2 3.327 1.524.917.25 1.661.286 2.246.286s1.33-.036 2.247-.286c1.172-.32 2.986-1.33 3.315-1.517.086.007.172.014.26.023.255.024.47.187.562.512.085.3.14.95.15 1.659.01.708-.016 1.49-.063 2.112l-.02.27h1.072l.009-.242c.045-1.297.091-2.603 0-3.918-.031-.44-.286-.8-.601-1.06a2.484 2.484 0 0 0-1.05-.506c-.41-.086-1.138-.119-2.155-.139a213.56 213.56 0 0 0-3.778-.02h-.311zM22.541.911v2.43q-.536-.8-3.219-.8h-1.984V.911zm.03-.911q-1.093.202-3.249.202h-2.663V3.25h2.663q1.407 0 2.015.293.617.294 1.204.84L22.571 18h1.175V0zm9.057.911v2.43q-.537-.8-3.22-.8h-1.984V.911zm.03-.911q-1.093.202-3.25.202h-2.662V3.25h2.663q1.407 0 2.014.293.618.294 1.205.84L31.658 18h1.175V0zm9.057.911v2.43q-.537-.8-3.22-.8h-1.984V.911zm.03-.911q-1.093.202-3.25.202h-2.662V3.25h2.662q1.407 0 2.015.293.617.294 1.205.84L40.745 18h1.174V0z"/></svg>