<svg xmlns="http://www.w3.org/2000/svg" width="63.195" height="18"><path d="M17.338.568q-.111.037-.111.128t.07.146q.027.022.054.022.04 0 .077-.05.063-.081.021-.163-.041-.083-.11-.083zM1.95.47q-.153 0-.296.282.084.183.264.237.028.01.054.01.131 0 .224-.229 0-.255-.194-.292Q1.975.47 1.949.47zM.945.787q-.042.128.027.238l-.583.073Q.375.934.945.788zm.568.436zm.105-.003q.12 0 .195.033.027.012 0 .012-.052 0-.288-.04.05-.005.093-.005zm2.564 1.252q.035 0 .097.068 1.125 1.223 2.792 2.865Q8.74 7.048 8.947 7.724 7.585 7.468 6.62 6.318q-.966-1.15-1.681-2.236-.716-1.086-.799-1.414-.017-.196.042-.196zm.046-.868q.202 0 .384.096 4.321 4.308 4.946 5.604.584 1.405.764 2.154-.076.11-.182.11-.087 0-.193-.074l-.57-1.515q-.43-1.296-2.104-2.875-1.674-1.579-2.424-2.5-.441-.542-.676-.542-.164 0-.227.268-.108.455-.38.455-.115 0-.26-.081.126-.858.542-1.022.198-.078.38-.078zm.357 6.43q.666 1.405.541 2.83-.125 0-.236.236-.045-.403-.277-.403-.051 0-.112.02.292-1.405.084-2.683zM2.107.346q.066 0 .116.013.25.063.292.237.029.122.058.122.013 0 .025-.022.042-.073.056-.164.305.53.041 1.57t.848 1.24q1.028 3.104 2.209 4.72 1.18 1.615.986 3.038-.449-.438-.993-.438-.113 0-.23.019.042-1.296-.472-2.556t-.945-1.889q-.43-.63-1.16-1.497-.73-.867-.722-1.789.007-.921.194-1.286.188-.365.181-.584-.003-.091-.027-.091-.035 0-.112.182-.132.31-.73.328l-.07.001q-.568 0-1.235-.274l.82.073q.404.11.601.11.162 0 .183-.074.049-.164-.076-.192-.125-.027-.257-.027t-.201.055l.026.052-.29-.052Q1.042.787 1.167.623q.028-.055.097-.055-.028.183.049.274.028.034.056.034.046 0 .09-.098.07-.155-.125-.228.511-.204.773-.204zm15.412.04q.375 0 .555.365.056.055.695.2v.056l-.695.073q-.597 0-.75-.12-.153-.118-.146-.273.007-.155.188-.155.18 0 .25.082t.035.173q-.035.092-.132.147h.028q.18 0 .187-.22.007-.237-.299-.273-.389 0-.291.374.092.357.854.357l.076-.001q.431-.037.765-.128L18.81.97q1.236 1.004 1.16 2.29-.077 1.288-.966 2.136-.889.85-1.584 1.871-1.083 1.734-1.167 2.72-.083.986.376.986.458 0 1.118-.721.66-.721 1.34-.74 1.82.055 1.612 2.209-.667-.93-1.5-.93-.417 0-1.14.474-1.097.766-1.667.766l-.472-.091q-.861-.84-.583-2.482.416-1.187 1.125-4.235.486-1.734.965-2.628.48-.895 1.022-.913.291 0 .944.365.027.01.047.01.094 0 .037-.21-.526-.429-1.226-.429-.225 0-.47.045-.208 0-.506-.146-.3-.146-.3-.694.251-.237.543-.237zM3.946 3.05q1.083 1.825 1.986 3.002.903 1.178 1.702 1.588.799.411 1.48.43.083.145 1.653 4.617l-.097.055-3.738-3.14q.028-.273-1.104-1.962-1.132-1.687-1.994-4.46l.112-.128zm3.834 7.867l2.07 1.66q.07.256-.5.348-.127.02-.233.02-.37 0-.49-.248-.152-.32-.389-.831-.236-.511-.458-.95zm7.071-.785q0 .767.167 1.332.43 1.004 1.153 1.023h.038q.711 0 1.699-.657.938-.625 1.365-.625.034 0 .066.004.416.055.903.566.486.51.514.894.05.311-.043.311-.06 0-.18-.128-.399-1.05-1.024-1.05h-.01q-.633.01-1.557.648-.923.639-2.153.639t-1.368-1.04q-.14-1.04.43-1.917zm-10.294 1.06l.208.547q.195-.255.299-.3l.005-.002q.088 0-.304 1.543l-.583.238q-.153-.146.09-.904.243-.757.285-1.122zm14.763 1.14q.461 0 .727.502-.18.384-.847.603-.514 0-1.042-.566.685-.539 1.162-.539zm-1.607.758q.207.265.448.438h-1.883q.692-.095 1.435-.438zm-7.182 1.15q-1.554 2.935-4.48 3.011-2.913-.076-4.467-3.011zm11.239.018q-1.554 2.935-4.48 3.012-2.913-.077-4.48-3.012zM2.346.008q-.084 0-.179.013-.222 0-1.264.42Q.069.696 0 1.098l.028.62.417-.2q.68.292 1.139.292.458 0 .347.41-.111.411.028 1.37.139.958 1.097 1.934.959.977 1.188 2.556.23 1.578-.41 3.641l.209-.164q.004-.004.007-.004.046 0-.216.816-.277.867-.757.894-.084.005-.16.005-.348 0-.486-.105-.155-.12-.462-.12l-.045.001q-.34.01-.34.302v.182H.61Q2.21 17.982 6.057 18q3.849-.018 5.446-4.472l-4.279.037q0-.165-.264-.356-.129-.094-.296-.094-.175 0-.391.103-.13.061-.278.061-.337 0-.771-.317.097-.639.236-1.14.139-.503.528-.594.036-.008.073-.008.362 0 .816.811.264-.675.153-1.825l.139.128q1.042 2.3 1.257 2.701.163.305.634.305.15 0 .331-.031.75-.128.737-.475l.639.42.486-.237-1.07-3.048q.264 0 .487-.292-.264-1.096-.82-2.446-.39-.822-.792-1.278Q7.961 4.603 6.78 3.39T5.043 1.518q-.373-.28-.775-.28-.226 0-.461.088-.653.246-.792 1.214-.042-.037.07-.73.11-.694-.05-1.287-.138-.514-.689-.514zM17.566 0q-.252 0-.478.094-.292.11-.347.42-.111.383.097.757.208.374.653.466-.89 1.058-1.514 3.741-.584 2.556-.973 3.779-1.042 1.113-1.035 2.236.007 1.122.424 1.597.301.343.878.438h-3.434q1.597 4.454 5.446 4.472 3.848-.018 5.445-4.472h-2.674q.153-.11.313-.256.156.245.354.245.083 0 .174-.044.347-.219.139-1.004.194-2.245-.459-2.865-.653-.621-1.473-.621-.75 0-1.625.849-.543.526-.743.526-.124 0-.118-.198.014-.52.611-1.761.403-.876 1.75-2.254 1.348-1.378 1.334-2.775-.014-1.396-.597-2.099-.584-.703-1.292-.794-.111-.2-.292-.328-.18-.128-.48-.146Q17.609 0 17.567 0zm9.974 1.434l1.647 1.047q.33 3.238.068 5.215-.262 1.977-.31 3.266-.049 1.29.63 3.46-.02.155-.562.446-.255.136-.603.136-.395 0-.91-.175 1.028-1.9.892-4.129-.135-2.229-.523-5.01-.388-2.782-.33-4.256zm-.737 14.268q.891.155 1.512.31-.233.853-1.086 1.085-.365.1-.702.1-.45 0-.849-.177.35-.814 1.125-1.318zM26.686 0q-.174 1.609.417 5.418.591 3.81.591 5.127 0 3.49-1.337 4.207-1.26 1.28-1.629 2.578.369.504 1.319.63.3.04.575.04.59 0 1.053-.185.678-.272 1.027-.718.446-.6.252-1.357l.834-.445q.6-.291.368-.93-.95-2.56-.358-6.049.59-3.49.164-6.261L26.686 0zm11.781 0a20.674 20.674 0 0 1-1.514.051c-.108.006-.117.143-.08.22.224.632.417 1.274.599 1.92h-.026c-.18.003-.361 0-.539.017-.003.005-.005.01-.009.014-.01-.041-.038-.078-.08-.088a38.275 38.275 0 0 1-1.7-1.23.149.149 0 0 0-.041-.008.06.06 0 0 0-.01 0c-.055.035-.075.112-.106.169-.098.263-.18.533-.289.792-.077.196-.163.392-.222.594.026.056.075.074.129.074a.537.537 0 0 0 .15-.03c.688-.147 1.395-.134 2.094-.143-.07.153-.1.324-.162.48-.029.089-.062.179-.082.27a.123.123 0 0 0-.017-.001c-.007 0-.014 0-.021.003-.853.33-1.687.735-2.415 1.293-.349.27-.694.55-.999.868-.006.128.138.17.234.206l.59.243c-.1.137-.126.315-.19.47-.33.969-.795 1.884-1.183 2.83.002.078.074.116.145.116a.177.177 0 0 0 .074-.016c.137-.026.274-.038.411-.042-.028.107-.04.221-.087.322-.233.74-.613 1.42-.9 2.138-.013.078.06.127.13.127a.136.136 0 0 0 .06-.014 8.6 8.6 0 0 1 1.061-.122c-.04.099-.048.21-.079.312-.172.726-.423 1.443-.453 2.195-.007.49.052.978.13 1.46.134.793.374 1.565.683 2.307.003.068.065.11.125.11a.108.108 0 0 0 .097-.054c.045-.1.06-.212.094-.316.178-.643.305-1.3.362-1.964.055-.573.078-1.15.074-1.725-.024-.675-.185-1.333-.288-1.997-.018-.1-.031-.203-.057-.302a9.379 9.379 0 0 1 1.019.17c.108 0 .131-.143.083-.219-.289-.756-.584-1.512-.826-2.284l.034.006c.294.053.588.121.885.139.093-.078.026-.204-.019-.288-.358-.776-.651-1.591-.768-2.441-.037-.23-.036-.467-.076-.697.252.103.505.206.758.304.11-.026.116-.162.093-.252a2.806 2.806 0 0 1 .357-1.599c.237-.424.58-.772.93-1.104.14.12.3.208.457.303l-.079.02c-.287.557-.53 1.136-.788 1.707-.033.08-.072.16-.084.245.043.07.116.083.19.083.048 0 .096-.005.14-.005h.007l.32-.007c-.036.11-.045.234-.081.344-.207.853-.411 1.706-.615 2.56.025.09.116.109.201.109.025 0 .05-.002.073-.004l.529-.018c-.049.14-.07.29-.118.43-.229.838-.462 1.676-.686 2.515.025.093.118.113.206.113a902.933 902.933 0 0 1 .922-.028 1.156 1.156 0 0 0-.033.138c-.176.77-.447 1.524-.488 2.318-.003.72.104 1.437.268 2.137.136.565.329 1.115.547 1.652.009.062.068.103.125.103a.101.101 0 0 0 .086-.046c.047-.084.056-.184.089-.274.238-.825.375-1.678.419-2.536.028-.457.045-.915.024-1.373-.048-.656-.196-1.299-.3-1.947-.013-.064-.023-.13-.04-.193.295-.01.59-.018.885-.03.105-.081.046-.224.017-.327-.25-.899-.5-1.799-.756-2.696.246-.01.493-.018.74-.03.103-.08.044-.221.013-.324l-.778-2.625c.264-.007.529-.013.793-.022.1-.066.051-.2.005-.285-.236-.534-.468-1.069-.712-1.598.176-.073.35-.148.522-.229.47.441.882.971 1.071 1.595.109.371.116.764.078 1.146.02.06.072.082.127.082a.265.265 0 0 0 .134-.039l.591-.243-.005.004a6.942 6.942 0 0 1-.464 2.262c-.13.353-.292.692-.434 1.04-.008.076.062.121.131.121a.136.136 0 0 0 .068-.017c.26-.038.52-.09.779-.14-.052.144-.088.295-.146.436-.221.648-.471 1.286-.712 1.927-.018.076.05.142.12.142a.107.107 0 0 0 .056-.015 7.69 7.69 0 0 1 .955-.154.761.761 0 0 0-.016.088c-.106.595-.223 1.19-.298 1.79-.04.374-.047.752-.023 1.128.034.95.13 1.904.384 2.823.043.157.084.315.135.468.02.04.06.059.101.059.05 0 .1-.028.112-.082a10.56 10.56 0 0 0 .754-2.734c.067-.546.11-1.104.005-1.648-.105-.578-.277-1.142-.414-1.714-.023-.066-.034-.138-.057-.204.165.004.329.015.492.036.229.025.455.072.683.093.097-.028.089-.155.04-.222-.319-.77-.734-1.505-.939-2.317l-.01-.043c.038 0 .077.001.115.003.146.01.29.04.435.052.102-.045.077-.18.03-.256-.425-.964-.884-1.916-1.212-2.919-.03-.078-.053-.166-.098-.235l-.008-.005c.266-.11.53-.222.794-.336.062-.106-.042-.207-.12-.268-.676-.615-1.418-1.165-2.244-1.562a8.657 8.657 0 0 0-.955-.4c-.023-.073-.057-.145-.075-.217-.084-.241-.155-.49-.262-.723a.335.335 0 0 0 .07.006l.08-.001a37.286 37.286 0 0 1 .203 0c.612 0 1.228.02 1.827.157a.146.146 0 0 0 .06.012c.062 0 .125-.03.113-.098-.117-.365-.281-.712-.4-1.076-.053-.149-.105-.3-.171-.443a.15.15 0 0 0-.08-.01c-.562.41-1.113.837-1.694 1.22-.061.032-.14.093-.096.17v.001a1.13 1.13 0 0 0-.21-.016l-.214.003a1.657 1.657 0 0 1-.09-.001h-.047a.103.103 0 0 0 .005-.039c.227-.677.454-1.363.841-1.968.048-.062.013-.169-.061-.183a.087.087 0 0 0-.017 0zm9.081.673q-.371 0-.371.437 0 .37.37.37.393-.022.393-.414 0-.393-.392-.393zm-1.44.284v.392l-.85.153q.392-.414.85-.545zm.044.523q.501.393.174.59-.501-.175-.741-.459l.567-.13zM47.678.477q1.025 0 1.636.785.61.785.654 2.421 1.592.327 2.116 1.44.085.72-.325.72h-.024q-.436-.023-.687-.24-.091-.08-.138-.08-.081 0-.026.243.088.381.96.927.872.545.142.905-.182.089-.386.089-.62 0-1.457-.82-1.112-1.09-1.178-1.657-.065-.567.458-1.047.311-.286.214-.286-.066 0-.323.133-.632.327-.665.96-.033.632.502 1.385.534.752 2.104 1.908.16.084.364.084.43 0 1.054-.379.916-.556-.916-1.712.676-.174.698-.588.85.283 4.776 5.277 1.047.698 1.068 1.025-.021.306-.327.371-.065.014-.133.014-.247 0-.521-.188-1.221.589-2.366.61l-.12.001q-1.064 0-1.767-.371.72.632.502 1.33-.106.338-.16.338-.058 0-.058-.382 0-.741-1.898-1.417v.828q-.111.47-.177.47-.063 0-.084-.426-.131-.938-.622-2.017-.49-1.08-1.56-2.988-1.068-1.908-1.362-2.748-.295-.84-.273-1.56.022-.72-.294-1.057-.317-.338-.186-.73.131-.393-.392-.742V.935q.567-.458 1.177-.458zm4.144 12.562q1.069.305 1.069.72l-.72 2.682q-.087.48-.589.48h-.872v-.044l1.112-3.402v-.436zM47.757.04h-.079q-.85 0-1.722.699-.502.174-1.025.807.72.654 1.308.807.066.305.414.85.022 1.44.393 2.388.37.949 2.486 5.093 1.047 2.18 1.047 2.682 0 .763-.96 3.424 0 .153-1.308.24-1.963.066-1.963.545 0 .284.262.284h5.801q.545-.436.61-.742.524.218.568.59.073.293.208.293.026 0 .053-.01.175-.066.175-.284-.153-.589-.763-1.134l.697-2.944q2.116-.066 3.686-.676.291.065.533.065.485 0 .776-.261.436-.393-.175-1.222-1.33-1.33-2.53-2.922Q53.785 5.58 52.87 5.1q-.305-.633-.73-1.004-.426-.37-1.538-.916-.022-1.286-.6-2.224Q49.436.04 47.757.04zm11.131.553c1.06 0 2.386.544 3.028 1.186.561.562.634 1.306.655 1.998h-7.335c.02-.692.094-1.436.656-1.998.641-.642 1.936-1.186 2.996-1.186zm0-.593c-1.257 0-2.61.58-3.402 1.373-.813.813-.905 1.884-.905 2.685v.312h8.614v-.312c0-.801-.06-1.872-.874-2.685C61.53.581 60.145 0 58.888 0z"/></svg>