<svg xmlns="http://www.w3.org/2000/svg" width="16.609" height="18"><path d="M1.11 6.567c.294.377.479.742.554 1.094a2.54 2.54 0 0 1 0 1.07c-.075.36-.285.654-.629.88-.343-.226-.553-.52-.629-.88a2.553 2.553 0 0 1 0-1.07c.076-.352.26-.717.554-1.094zM1.036 0c-.293 0-.44.16-.44.478l.164 5.8c-.403.511-.642.958-.717 1.34-.076.38-.049.815.081 1.301.13.487.434.877.912 1.17.478-.293.78-.683.906-1.17.126-.486.151-.92.076-1.302-.076-.381-.31-.828-.705-1.34l.15-5.799C1.463.159 1.321 0 1.035 0zM4.48.41v8.652l-.892-1.33V.41zM3.156 0v7.856l1.487 2.233c.034-.011.062-.011.09-.011.04 0 .067.006.09.006.011 0 .022 0 .028-.012V0zm4.479.266c.388 0 .699.112.916.268.003.03.01.06.005.09a.598.598 0 0 1-.222.353c-.177.116-.39.15-.592.2-.051.005-.011.017.017.022a4.136 4.136 0 0 0 .574.055.912.912 0 0 0 .429-.175.624.624 0 0 0 .114-.132c.083.194.128.4.146.514.01.062.054.112.114.13.638.196 1.142 1.071 1.613 1.654.97 1.197 1.794 2.537 2.743 3.789-.525-.256-1.049-.514-1.575-.77-1.077-.567-2.198-1.018-3.141-1.732l-.005-.005c-.544-.452-1.1-.93-1.31-1.565-.084-.516.984-1.445.864-1.484a.116.116 0 0 0-.036-.005c-.257 0-.983.632-1.132 1.234l-.008-.025c-.04-.2-.087-.704.038-1.11a.163.163 0 0 0 .006-.057 1.103 1.103 0 0 0-.069-.356c-.036-.095-.078-.193-.146-.429-.017-.06-.08-.183-.116-.193.104-.077.21-.157.361-.21a.243.243 0 0 0-.074.176c0 .128.092.232.204.232.113 0 .205-.104.205-.232V.5a.23.23 0 0 0-.143-.218c.03-.005.053-.01.086-.013.046-.003.09-.004.134-.004zm.375 4.35c.037.037.076.07.113.106.12.437.232.92.389 1.292.27.642.681 1.2 1.03 1.768a1.065 1.065 0 0 0-.215.15 3.829 3.829 0 0 0-.111.109 1.463 1.463 0 0 0-.665-.503c.025-.405-.06-.96-.19-1.562-.1-.466-.225-.93-.35-1.36zm.565.51c.643.53 1.36.974 2.06 1.424-.01.51-.01.996.047 1.499a1.912 1.912 0 0 0-.806-.413c-.01 0-.02.007-.032.007-.363-.596-.775-1.154-1.029-1.757a6.238 6.238 0 0 1-.24-.76zm.227 2.945c.092.086.176.185.247.303a.168.168 0 0 0 .144.079c.034 0 .067-.01.095-.03.121-.088.195-.182.267-.25a.747.747 0 0 1 .083-.066l.084 1.526c-.12-.008-.244-.02-.357-.02-.148 0-.278.02-.355.097-.095-.075-.279-.092-.5-.092a6.88 6.88 0 0 0-.176.002l.468-1.55zm.65-2.705c.758.442 1.56.793 2.317 1.192l.004.001c.725.354 1.45.718 2.182 1.067.552.667 1.15 1.286 1.726 1.917l-1.206.203c-.796-.867-1.594-1.731-2.391-2.598a.162.162 0 0 0-.02-.02c-.841-.637-1.768-1.167-2.613-1.762zM7.671 0c-.076 0-.153.003-.23.008-.609.039-1.05.294-1.201.64-.023.053-.082.176-.004.176a1.318 1.318 0 0 1 .191-.016c.234 0 .213.097.264.11.05.158.162.474.17.598a2.796 2.796 0 0 0-.037 1.232c.084.41.354.888.708 1.334a.16.16 0 0 0 0 .093c.168.517.365 1.216.506 1.87.14.655.22 1.276.177 1.583a.165.165 0 0 0 .124.184c.025.006.047.017.071.025l-.52 1.725a1.596 1.596 0 0 0-.332-.03c-.214 0-.424.028-.597.028a.845.845 0 0 1-.19-.018.306.306 0 0 0-.07-.007c-.245 0-.8.171-.752.492.085-.071.145-.088.211-.088.062 0 .129.015.227.015h.015c.142-.003.39-.047.59-.047.101 0 .19.011.246.045a9.67 9.67 0 0 1 .363-.008c.476 0 .812.04 1.402.043a50.202 50.202 0 0 0 1.667-.044c.252.001.39.03.517.03h.022c.075-.003.148-.032.269-.032a.98.98 0 0 1 .262.04c-.14-.192-.491-.385-.745-.385a.331.331 0 0 0-.17.04 2.848 2.848 0 0 0-.284-.012c-.123 0-.251.005-.38.01l-.088-1.585c.273.113.48.289.718.572a.166.166 0 0 0 .287-.138c-.107-.582-.12-1.132-.113-1.715.303.198.6.4.884.613l2.443 2.656a.162.162 0 0 0 .148.05c.532-.09 1.064-.176 1.597-.266a.165.165 0 0 0 .128-.108.167.167 0 0 0-.033-.167c-.415-.465-.845-.914-1.262-1.37.712.438 1.612.984 1.727.984.013 0 .015-.007.007-.022-.053-.092-.505-.424-.995-.77.078.032.154.067.233.099a.024.024 0 0 0 .01.006c.057.02.089.033.15.035a.16.16 0 0 0 .061-.01.178.178 0 0 0 .106-.085.179.179 0 0 0 .012-.133c-.01-.029-.021-.043-.03-.055-.034-.047-.057-.06-.09-.087a2.552 2.552 0 0 0-.116-.083c-.085-.059-.188-.125-.276-.184a2.798 2.798 0 0 1-.2-.144L13.29 6.193c-.005-.003-.01 0-.016-.003-.747-1.048-1.45-2.144-2.267-3.154-.418-.516-.897-1.417-1.674-1.718-.038-.222-.122-.632-.423-.924C8.654.146 8.284.031 7.87.006A3.21 3.21 0 0 0 7.672 0zM3.636 12.973h.002c1.181 0 2.522.076 4.671.076 2.15 0 3.49-.076 4.668-.076.123 0 .244.001.365.003-.782.406-1.926.964-2.68 1.17a8.334 8.334 0 0 1-2.3.291 8.334 8.334 0 0 1-2.3-.291c-.754-.206-1.9-.765-2.682-1.172l.256-.001zm2.025 1.834h-.005c-.186.01-.95.682-1.228 1.047-.18.237-.229.539-.05.68.05.04.109.058.172.058.154 0 .33-.111.46-.28.296-.389.787-1.41.676-1.498a.04.04 0 0 0-.025-.007zm5.345 0h-.003a.038.038 0 0 0-.022.007c-.112.089.38 1.11.676 1.499.129.168.305.279.46.279a.272.272 0 0 0 .172-.058c.178-.141.13-.443-.05-.68-.281-.368-1.054-1.047-1.233-1.047zm-4.472.217H6.53c-.161.016-.77.886-.958 1.319-.12.273-.096.579.11.672a.263.263 0 0 0 .11.024c.174 0 .353-.167.452-.393.196-.45.433-1.56.304-1.619a.032.032 0 0 0-.014-.003zm3.598 0h-.004a.03.03 0 0 0-.01.003c-.129.058.109 1.17.305 1.62.098.225.278.392.452.392a.263.263 0 0 0 .11-.024c.205-.093.229-.399.11-.672-.19-.437-.808-1.319-.963-1.319zm-2.533.163h-.002c-.15.011-.631.99-.753 1.455-.077.29-.006.587.212.647.023.006.046.01.07.01.188 0 .36-.205.428-.463.125-.476.19-1.61.053-1.648a.032.032 0 0 0-.008-.001zm1.468 0h-.003l-.005.001c-.136.037-.072 1.172.054 1.648.068.258.24.462.428.462a.264.264 0 0 0 .07-.01c.218-.059.288-.357.212-.646-.123-.467-.61-1.455-.756-1.455zm-.769.014h-.001c-.142.017-.364 1.117-.364 1.606 0 .3.143.569.369.569.222 0 .366-.27.366-.57 0-.492-.226-1.605-.368-1.605h-.002zm-.235-3.055h.242c1.6 0 3.002 0 4.1.022 1.096.02 1.905.068 2.242.139.293.061.641.219.905.437.264.217.436.482.456.77.091 1.305.054 2.618.008 3.94h-.053c.04-.638.062-1.369.052-2.053-.012-.79-.057-1.495-.184-1.945-.152-.54-.587-.905-1.086-.952a18.304 18.304 0 0 0-1.778-.078c-1.195 0-2.531.077-4.658.077-2.127 0-3.466-.077-4.663-.077-.602 0-1.169.02-1.782.078-.526.05-.935.476-1.086 1.01-.126.448-.171 1.14-.183 1.916-.01.671.01 1.39.05 2.024H.594c-.045-1.322-.083-2.635.008-3.94.02-.29.194-.563.456-.784a1.97 1.97 0 0 1 .893-.42c.831-.134 3.056-.162 5.993-.164h.12zm-.096-.547H7.8c-2.863.002-4.99.018-5.937.171a2.447 2.447 0 0 0-1.158.542c-.342.288-.615.686-.649 1.164-.1 1.43-.05 2.85 0 4.26l.01.264h1.166l-.023-.294a26.31 26.31 0 0 1-.068-2.268c.012-.756.07-1.447.163-1.775.101-.36.36-.591.612-.615.13-.013.257-.023.384-.032.319.18 2.327 1.305 3.62 1.657.996.272 1.806.31 2.442.31.636 0 1.446-.038 2.443-.31 1.275-.348 3.248-1.447 3.606-1.65l.282.025c.279.026.513.203.612.557.092.326.152 1.033.163 1.804.012.77-.017 1.62-.068 2.297l-.022.294h1.166l.01-.264c.049-1.41.1-2.83 0-4.26-.034-.479-.312-.871-.654-1.154a2.702 2.702 0 0 0-1.141-.55c-.447-.093-1.238-.13-2.344-.15-1.106-.022-2.51-.023-4.11-.023h-.338z"/></svg>