<svg xmlns="http://www.w3.org/2000/svg" width="181.941" height="18"><path d="M2.097 0c-.335 0-.67.026-.995.066-.447.113-.217.626.18.626a.476.476 0 0 0 .082-.008c.84.097 1.872.15 2.506.626.841.916.463 2.821.561 3.725.007.05.01 3.653.01 5.48a6.145 6.145 0 0 0-2.635-.586 6.04 6.04 0 0 0-1.187.117c-.441.231.076.528.422.528.041 0 .08-.004.115-.013 1.226.133 2.62.461 3.243 1.602.061.206.023.277-.071.277-.206 0-.68-.342-.946-.342-.014 0-.028 0-.04.003a7.535 7.535 0 0 0-1.58-.169c-.39 0-.777.031-1.15.095-.42.278.097.534.439.534a.532.532 0 0 0 .105-.01c1.251.151 2.636.49 3.243 1.633.007 1.27 0 2.11.033 3.278-.014.36.22.538.456.538.235 0 .473-.176.475-.526-.009-1.15-.091-2.161.06-3.277.304-1.253 2.477-1.445 3.827-1.754.294-.347-.285-.475-.659-.475-.055 0-.107.003-.15.008a6.823 6.823 0 0 0-.521-.02c-.882 0-1.771.175-2.557.58-.032-.755.711-1.19 1.244-1.493.84-.361 1.765-.397 2.643-.59.313-.273-.18-.501-.521-.501a.58.58 0 0 0-.125.012 6.767 6.767 0 0 0-.648-.031c-.903 0-1.805.183-2.614.582.016-2.851.062-5.61-.02-8.308-.065-.834-.546-1.6-1.354-1.849C3.388.094 2.741 0 2.097 0zm23.995 2.99q.557 0 1.086.606-4.368 5.2-5.46 5.81-.814.457-1.434.457-.21 0-.399-.053-.74-.208-1.586-.234h-.042q-.828 0-1.817.988h-.13q.702-1.638 1.963-2.34 1.261-.702 7.397-5.148.213-.085.422-.085zM18.36.622q.066 0 .133.01v6.683Q16.44 8.51 15.66 10.668q1.196-8.268 1.677-9.204Q17.77.62 18.361.62zM13.005 11.09q-.08 0-.153.138-.13.247.234.689.208-.546.052-.741-.069-.086-.133-.086zm.037-.372q.153 0 .33.237.39.52-.234 2.08-.702-1.352-.429-1.976.149-.34.333-.34zm6.804 2.577v.39q-.286-.026-.442-.182.052-.078.208-.208zm.598.884l2.418.338.494.884q-.832-.234-1.833-.624-1-.39-1.079-.598zm-5.33-.364l.468.234.156 1.118-.416 1.274h-.65l.442-1.274v-1.352zm1.118.39l.442.13.156.832-.416 1.274h-.65l.442-1.274.026-.962zm1.534.156l.156.806-.416 1.274h-.65l.442-1.274v-.78l.468-.026zm-.994-3.234q.415 0 .89.1 1.404.3 1.768 1.418h1.092l.416-.676q5.512 1.274 6.214 4.602-1.508-.832-3.172-1.118l-.728-1.456-2.886-.39.078-.702h-.988q-1.092.9-2.228.9-.243 0-.489-.042-1.391-.234-1.82-.95-.429-.714.455-1.3.585-.386 1.398-.386zM18.617 0q-.947 0-1.488.658-.663.806-1.235 4.238l-.91 5.954q-.442.468-.676.52h-.312q-.026-.65-.494-1.196-.416-3.978.364-6.968l-.312-.598q-1.118 3.38-.546 7.592h-.078q-1.794-4.03-.52-7.592l-.312-.468q-1.664 3.796.364 8.242-.572 1.248-.117 2.054.455.806.559 1.508l.182.13q.702-1.04.806-1.794h.26q.026.598.338 1.248l.182 1.638-.442 1.274h-2.262v.624h6.526v-.624h-.546l.416-1.274.026-.962q.468-.156.702-.364.338.312.754.312-.026.26.104.442 1.04.806 3.718 1.404l.91 1.768q0-.434.27-.434.085 0 .198.044l-.728-1.3q1.508.338 2.288.858.416.442-.052 1.066 1.04-.442 1.17-1.248-.416-3.926-7.046-5.46l-.468.78h-.416q-.338-1.092-2.678-1.508.522-.388 1.285-.388.414 0 .9.115.491.116.96.116.844 0 1.613-.376 1.196-.585 6.084-6.461-.9-1.136-1.905-1.136-.329 0-.669.122L19.066 7.08V.034Q18.831 0 18.617 0z"/><path d="M37.458.375c-9.625 0-9.625 17.25 0 17.25m0 0" fill="none" stroke="#000"/><path d="M43.68 12.703c-.681.054-1.058.394-1.13 1.022.09.68.467 1.04 1.13 1.075.663-.036 1.013-.394 1.049-1.075-.054-.628-.404-.968-1.049-1.022zm.08-2.259c.485 0 .933.09 1.345.269a3.545 3.545 0 0 1 1.828 1.815c.18.403.27.83.27 1.277 0 .466-.09.901-.27 1.304a3.422 3.422 0 0 1-3.173 2.03c-.483 0-.936-.085-1.357-.255a3.235 3.235 0 0 1-1.09-.712 3.495 3.495 0 0 1-.725-1.063 3.174 3.174 0 0 1-.27-1.304c0-.448.09-.874.27-1.277a3.67 3.67 0 0 1 .726-1.076c.304-.313.667-.56 1.089-.739.421-.18.874-.269 1.358-.269zm-.053-.914c-.592 0-1.147.112-1.667.336-.52.224-.968.529-1.345.914a4.48 4.48 0 0 0-.9 1.345 4.071 4.071 0 0 0-.337 1.653c0 .592.112 1.143.336 1.654.225.511.525.955.901 1.331A4.267 4.267 0 0 0 43.707 18c.591 0 1.143-.112 1.654-.336a4.48 4.48 0 0 0 1.344-.9 4.21 4.21 0 0 0 .914-1.332 4.07 4.07 0 0 0 .336-1.654c0-.591-.112-1.142-.336-1.653a4.358 4.358 0 0 0-2.258-2.259 4.071 4.071 0 0 0-1.654-.336zM51.7 0c-.93 0-1.745.684-1.745 1.562V18h1.136V1.562c0-.43.379-.57.617-.57.25 0 .634.175.634.703v10.804h1.136V1.695C53.478.815 52.607 0 51.7 0zm12.98.699q1.266.749 1.266 2.247h-2.521q0-1.498 1.255-2.247zm1.266 2.946q-.284 1.002-1.266 1.002t-1.235-1.002zm7.27 1.751v1.195h-17.06V5.396zM64.68 0q-1.933.729-1.933 3.128 0 .912.395 1.519h-7.664v2.642h18.405V4.647H66.25q.394-.607.394-1.519 0-2.4-1.964-3.128zm-4.836 14.172c1.074 0 2.418.552 3.068 1.202.57.57.644 1.324.665 2.025h-7.435c.02-.701.095-1.456.664-2.025.65-.65 1.964-1.202 3.038-1.202zm0-.601c-1.275 0-2.646.588-3.449 1.392-.824.824-.917 1.909-.917 2.72V18h8.732v-.316c0-.812-.062-1.897-.886-2.721-.804-.804-2.206-1.392-3.48-1.392zm13.128-2.921v6.46H68.64v-6.46zm-5.224-.911V18h6.135V9.739zm14.756-.992l-.445 1.012q.952.192 1.357 1.913l1.539-.394v.961l-1.499.426q.01 1.417-.273 2.662-.294 1.245-1.326 1.61-.517.177-1.038.177-.522 0-1.048-.177-1.053-.365-1.336-1.61-.294-1.245-.264-2.662l-1.498-.426v-.961l1.529.394q.405-1.72 1.366-1.913l-.465-1.012zm-4.11-.71q-.364 0-.05.71l.273.617q-.81.516-1.013 1.428l-1.72-.517v2.562l1.62.465q0 1.458.414 2.916.425 1.458 2.886 1.782 2.46-.324 2.895-1.782.425-1.458.425-2.916l1.62-.465v-2.562l-1.741.517Q83.8 9.88 82.99 9.364l.274-.617q.324-.71-.05-.71zm9.35 2.643V18h1.225v-7.32z"/><path d="M98.657.375v17.25M90.97.375c9.624 0 9.624 17.25 0 17.25" fill="none" stroke="#000"/><path d="M101.646 0l-.427.427v.707l.958-.957.177-.177zm3 0l-3.427 3.427v.707l3.958-3.957.177-.177zm3 0l-6.427 6.427v.707l6.958-6.957.177-.177zm3 0l-9.427 9.427v.707l9.958-9.957.177-.177zm3 0L101.22 12.427v.707L114.177.177l.177-.177zm3 0L101.22 15.427v.707L117.177.177l.177-.177zm3 0l-17.823 17.823-.177.177h.708L120.177.177l.177-.177zm3 0l-17.823 17.823-.177.177h.708L123.177.177l.042-.043V0zm.573 2.427l-15.396 15.396-.177.177h.708l14.865-14.866v-.707zm0 3l-12.396 12.396-.177.177h.708l11.865-11.866v-.707zm0 3l-9.396 9.396-.177.177h.708l8.865-8.866v-.707zm0 3l-6.396 6.396-.177.177h.708l5.865-5.866v-.707zm0 3l-3.396 3.396-.177.177h.708l2.865-2.866v-.707zm0 3l-.396.396-.177.177h.573v-.573zm2.001-17l-2 2v.707l2-2V.427zm0 3l-2 2v.707l2-2v-.707zm0 3l-2 2v.707l2-2v-.707zm0 3l-2 2v.707l2-2v-.707zm0 3l-2 2v.707l2-2v-.707zm0 3l-2 2V18h.134l1.865-1.866v-.707z"/><path d="M125.646 0l-.427.427v.707l.958-.957.177-.177zm3 0l-3.427 3.427v.707l3.958-3.957.177-.177zm3 0l-6.427 6.427v.707l6.958-6.957.177-.177zm3 0l-9.427 9.427v.707l9.958-9.957.177-.177zm3 0L125.22 12.427v.707L138.177.177l.177-.177zm3 0L125.22 15.427v.707L141.177.177l.177-.177zm3 0l-17.823 17.823-.177.177h.708L144.177.177l.177-.177zm3 0l-17.823 17.823-.177.177h.708L147.177.177l.042-.043V0zm.573 2.427l-15.396 15.396-.177.177h.708l14.865-14.866v-.707zm0 3l-12.396 12.396-.177.177h.708l11.865-11.866v-.707zm0 3l-9.396 9.396-.177.177h.708l8.865-8.866v-.707zm0 3l-6.396 6.396-.177.177h.708l5.865-5.866v-.707zm0 3l-3.396 3.396-.177.177h.708l2.865-2.866v-.707zm0 3l-.396.396-.177.177h.573v-.573zm2.001-17l-2 2v.707l2-2V.427zm0 3l-2 2v.707l2-2v-.707zm0 3l-2 2v.707l2-2v-.707zm0 3l-2 2v.707l2-2v-.707zm0 3l-2 2v.707l2-2v-.707zm0 3l-2 2V18h.134l1.865-1.866v-.707zm0-4.747V18h1.224v-7.32zm6.007 7.388c3.71 0 3.71-5.565 0-5.565s-3.71 5.565 0 5.565zM161.646 0l-1.705 1.705v.707l2.236-2.235.177-.177zm3 0l-4.705 4.705v.707l5.236-5.235.177-.177zm3 0l-7.705 7.705v.707l8.236-8.235.177-.177zm3 0l-10.705 10.705v.707L171.177.177l.177-.177zm3 0l-13.705 13.705v.707L174.177.177l.177-.177zm3 0l-16.705 16.705v.707L177.177.177l.177-.177zm3 0l-17.823 17.823-.177.177h.708L180.177.177l.177-.177zm2.295.705l-17.118 17.118-.177.177h.708L181.94 1.412V.705zm0 3l-14.118 14.118-.177.177h.708L181.94 4.412v-.707zm0 3l-11.118 11.118-.177.177h.708L181.94 7.412v-.707zm0 3l-8.118 8.118-.177.177h.708l7.587-7.588v-.707zm0 3l-5.118 5.118-.177.177h.708l4.587-4.588v-.707zm0 3l-2.118 2.118-.177.177h.708l1.587-1.588v-.707z"/></svg>