<svg xmlns="http://www.w3.org/2000/svg" width="98.291" height="18"><path d="M9.507 3.093q1.51.22 1.579 1.382v8.382q-.706-.843-2.536-1.184l.957-8.58zM9.08 2.25L7.95 12.272q2.52.289 3.136 1.8v1.678h.752V4.475q0-1.883-2.757-2.225zm17.64 1.78v1.756H13.788V4.03zM13.836 2.25v1.329h-.498v2.657H27.17V3.58h-.403V2.25h-.451v1.329h-1.115V2.25h-.451v1.329h-1.115V2.25h-.451v1.329h-1.092V2.25h-.474v1.329h-1.092V2.25h-.45v1.329H18.96V2.25h-.45v1.329h-1.116V2.25h-.45v1.329h-1.092V2.25h-.451v1.329h-1.115V2.25zm1.198 11.494l-1.696 2.006h.827l.87-1.036.877 1.036.853-1.036.877 1.036.87-1.036.877 1.036.87-1.036.877 1.036.853-1.036.877 1.036.878-1.036.853 1.036.877-1.036.87 1.036h.827l-1.697-2.006-.877.97-.853-.97-.878.97-.877-.97-.853.97-.877-.97-.87.97-.877-.97-.87.97-.877-.97-.853.97-.878-.97zm16.402-9.19c-.203.097-.45.367-.075.412.18-.007.593-.195.518-.367a.166.166 0 0 1-.119.05c-.106 0-.215-.095-.324-.095zm-1.478.067c-.248.06-.375.33-.06.39l.016.001c.182 0 .676-.22.269-.27-.068-.046-.135-.12-.225-.12zm1.973-1.883c.443.517.833 1.118.908 1.808.075.495.098.99.173 1.478-.353-.03-.248-.577-.18-.84.06-.518-.218-.998-.413-1.456-.135-.247-.263-.638-.608-.645-.383.067-.63.39-.878.668-.255-.255-.525-.533-.878-.638a.177.177 0 0 0-.06-.01c-.08 0-.172.035-.215.035-.037 0-.036-.026.043-.123.047-.168.146-.218.269-.218.178 0 .407.106.6.106a.42.42 0 0 0 .084-.008 2.801 2.801 0 0 0 1.156-.158zm-.12.57c.293.075.36.48.503.72.18.42.398.878.255 1.351-.113.225.03.51.015.675-.25.176-.47.547-.802.547a.474.474 0 0 1-.113-.014c-.33-.067-.496-.383-.75-.533-.186.178-.295.548-.599.548a.464.464 0 0 1-.137-.022c-.278-.06-.645-.03-.728-.368-.143-.345-.158-.728-.18-1.103a.243.243 0 0 0 .046.005c.152 0 .165-.177.179-.328.058-.22.216-.321.39-.321.118 0 .244.046.353.134.127.142.518.255.435.48-.037.135-.082.277-.127.42l.315.42c.03-.217.352-.397.165-.615-.03-.098-.143-.225-.128-.3.135-.24.315-.45.525-.63a.241.241 0 0 1 .173-.077c.2 0 .403.263.578.287.172-.188-.015-.263-.188-.36a.526.526 0 0 0-.365-.147.602.602 0 0 0-.49.266c-.143.086-.242.371-.367.371-.04 0-.082-.028-.128-.1-.23-.184-.504-.39-.804-.39a.642.642 0 0 0-.134.014c-.213.044-.404.474-.42.474-.008-.353.157-.669.255-1.014a.459.459 0 0 1 .447-.357c.13 0 .26.055.355.177.224.083.387.475.598.475a.2.2 0 0 0 .115-.04c.233-.247.42-.54.758-.645zm-1.065 5.207c.953.983 1.83 3.475 2.056 4.495-.368-.3-.87-.495-.983-.683-.12-.195-.45-2.093-1.073-3.812zm3.391-1.785c1.801 1.035 4.938 6.13 5.605 6.948-1.125-.713-2.236-1.433-3.444-2.019-1.696-.832-3.144-2.183-4.524-3.444 1.14-.382 1.958-1.028 2.363-1.485zm-1.868 6.468c.24.142.458.337.72.442-.157.39-.255.826-.578 1.133-.06.098-.147.129-.245.129-.171 0-.378-.092-.552-.092a.44.44 0 0 0-.035.001c.21-.525.525-.758.69-1.613zm.51-7.024c.046.094.104.125.165.125.08 0 .168-.053.24-.087.18.127.803.112.435.383-.232.315-1.475 1.174-2.339 1.326-.373.065.254.655.456.865 1.17 1.05 2.319 2.16 3.722 2.918.878.496 1.8.938 2.649 1.486.405.585.885 1.126 1.193 1.771-.308.09-.608.218-.923.293a2.168 2.168 0 0 1-.527.061c-.496 0-.994-.147-1.214-.384-.405-.428-.848-2.251-1.08-2.919-.034-.075-.08-.1-.132-.1-.1 0-.218.099-.276.099-.012 0-.022-.004-.028-.014a.293.293 0 0 0-.29-.282c-.131 0-.254.096-.235.297-.045.473-.135.946-.36 1.373-.028.073-.085.101-.161.101-.213 0-.571-.22-.815-.28.098-.579-.69-3.535-3.001-6.011-.08-.088-.433-.459-.402-.459.003 0 .012.005.027.016.118.031.251.052.383.052.253 0 .501-.078.63-.314.02-.06.044-.082.072-.082.103 0 .258.3.423.3a.69.69 0 0 0 .385.115.79.79 0 0 0 .583-.266c.142-.128.278-.255.42-.383zM32 2.25a2.79 2.79 0 0 1-1.02.21 2.02 2.02 0 0 1-.158-.007.603.603 0 0 1-.107.009c-.253 0-.525-.136-.77-.136a.466.466 0 0 0-.264.074c-.413.6-.788 1.268-.833 2.011-.082 1.426-.045 1.92 1.08 3.091.443 1.006 1.269 4.285 1.516 5.178.27.255-.337 1.65-.592 1.996-.14.191-.505.2-.898.2h-.129c-.353 0-.711.008-.932.145-.21.135-.285.638-.165.705.113-.172.338-.405.495-.427-.15.157.376.082.488.12.304.005.61.03.919.03.149 0 .298-.006.447-.023.067-.03.14-.075.171-.075.025 0 .025.027-.021.113.212.055.451.083.684.083.525 0 1.023-.14 1.132-.42a8.15 8.15 0 0 0 .585-1.299c.192.04.432.176.625.176a.284.284 0 0 0 .155-.04c.21-.144.428-.811.548-1.254.012-.046.074-.069.137-.069.061 0 .122.021.14.061.226.45.601 1.831.961 2.41.272.427.93.638 1.632.638.44 0 .899-.083 1.287-.249.488-.21.848-.165.743-.435-.165-.45-.45-.878-.75-1.26.435.27.87.547 1.305.817.036.131.126.183.218.183.178 0 .363-.193.18-.385-1.703-2.461-4.412-6.656-6.288-8.014a2.525 2.525 0 0 0-1.043-.563c-.128-.33-.09-.773-.165-1.148-.075-.743-.525-1.973-1.313-2.446zm21.13.431c.228 0 .385.109.471.325v.016a.733.733 0 0 0-.284-.072c-.17 0-.27.11-.3.332-.031.363-.127.545-.288.545h-.02c-.174-.017-.293-.096-.358-.236 0-.098.13-.271.39-.52.119-.26.249-.39.39-.39zm.39.498c.065 0 .098.04.098.12-.04.36-.18.542-.422.542a.56.56 0 0 1-.082-.007v-.032l.13-.26c.01-.24.076-.36.196-.36l.032.003a.224.224 0 0 1 .048-.006zm-2.297.284c-.234 0-.41.04-.569.12-.171.087-.213.36-.138.64h.098a.787.787 0 0 1 .154-.462c.092-.114.333-.179.962-.251a3.246 3.246 0 0 0-.507-.047zm-.074.249h-.064c-.217.006-.314.16-.293.463v.146l.031.003c.057 0 .09-.028.1-.084.302-.076.641-.232.793-.405-.117-.098-.361-.123-.567-.123zm-.495.722c-.098.13-.148.258-.073.447.07.175.462.403 1.177.403.06 0 .123-.001.187-.005l.426-.08c-1.411-.048-1.725-.243-1.628-.644l-.09-.12zm1.713-1.314c-.227.162-.313.368-.26.617.033.119.136.21.31.276.15.076.216.265.194.568.022.66-.26 1.175-.844 1.543a.572.572 0 0 0-.528-.366 1.031 1.031 0 0 0-.066-.002c-.22 0-.382.077-.486.23-.086.126-.183.19-.29.19a.319.319 0 0 1-.108-.02.373.373 0 0 1-.086.011c-.171 0-.262-.15-.271-.45.184-.01.311-.048.382-.113.07-.065.296-.156.493-.218a.424.424 0 0 0-.303-.12.446.446 0 0 0-.182.038c-.13.06-.271.1-.423.121-.292-.054-.41-.205-.357-.454-.173-.195-.227-.357-.162-.487.39-.26.714-.504.974-.731.26-.227.55-.363.869-.406.32-.043.7-.119 1.144-.227zm1.592-.26c2.118.32 2.804 3.144 2.354 4.189-1.147.704-1.98 1.77-2.5 3.199-1.7.126-3.126.172-4.324.172-3.282 0-4.848-.347-5.629-.347-.31 0-.496.055-.618.207.02-.328.389-.707.785-.707.034 0 .07.003.104.01.548.12 1.63.19 2.73.19.823 0 1.656-.04 2.283-.128 1.467-.205 2.422-.523 2.866-.631.325-.477.455-1.029.39-1.656-.303-.304-.363-.645-.179-1.023.504-.174.902-.994.94-1.372.044-.443-.106-.625.197-.755.703-.12.904-.569.6-1.348zm-.85-.61c-.789 0-1.128.288-1.034.529-.314.13-.636.214-.966.251-.33.038-.617.166-.86.382a5.008 5.008 0 0 1-.812.585c-.298.173-.474.319-.528.438-.097.184-.016.4.244.65 0 .194.086.357.26.486.043 0 .086.152.13.455.043.303.21.53.503.682.346-.054.579-.157.698-.308a.453.453 0 0 1 .446-.187c.179.027.311.176.398.446-.076.271-.005.558.211.86.022.228-.081.537-.308.926-1.877.61-2.403.785-5.253.785-.29 0-.604-.002-.946-.005-.444-.14-.822-.2-1.145-.2-1.37 0-1.73 1.06-1.765 1.499.049.233.324.306.66.306.356 0 .781-.083 1.077-.144 1.142.114 2.962.143 4.871.143 1.929 0 3.949-.03 5.456-.03 0-.995.822-2.18 2.468-3.555.265-1.93-.227-4.904-3.719-4.993l-.086-.001zm-3.431 10.629c.805 0 1.813.414 2.301.902.427.426.483.992.499 1.518H46.9c.016-.526.072-1.092.499-1.518.487-.488 1.472-.902 2.278-.902zm0-.451c-.956 0-1.984.441-2.587 1.044-.618.618-.688 1.432-.688 2.04v.238h6.55v-.237c0-.61-.047-1.423-.665-2.04-.603-.604-1.655-1.045-2.61-1.045zM61.804 4.1q-.153 0-.319.07.116.073.116.29.084.092.183.092.071 0 .15-.049.064-.117.276-.117.077 0 .173.016-.263-.303-.58-.303zm8.487 4.473q-.507.376-.609.81H60.66q-.101-.434-.608-.81zm-.753 1.347l.651 3.968h-3.62V11.31h-2.795v2.578h-3.62l.65-3.968zM61.84 3.924q.17 0 .354.116.782.072 1.361.405 0 .348 3.375.348 3.49.087 3.823.304.782.26 1.057.536.855.796 1.29 2.592l.188 1.535q.246 1.231.398 1.955.152.725.586 2.187-.738-.68-1.984-5.17-.188-.912-.695-1.52-.84-.696-1.477-.768l-.065-.001q-.467 0-.413.204-.101.231-.29.231-.796-.275-.796-.912.014-.333.347-.377.096.012.182.012.447 0 .63-.316-.479-.101-.855-.101-.637.087-.797.81 0 .435-1.636.508-1.231 0-1.52.333-.87-.13-.87-.623.087-.623.652-.652l.492-.188v-.174q-.105-.106-.266-.106-.19 0-.458.15-.767.087-.883 1.014-1.215-.848-1.61-.848h-.02q-.024.002-.049.002-.363 0-.783-.298l-.16.217-.188-.304-.159.202-.188-.347-.145.318-.275-.478-.16.406-.231-.507-.203.42-.246-.521-.188.29q-.302-.738.127-.738.17 0 .452.115.47-.093 1.017-.093.398 0 .837.05.209-.218.442-.218zm.166-.391q-.333 0-.608.217-.565-.036-1.018-.036-.452 0-.793.036-.229-.058-.413-.058-.503 0-.673.435-.058.188 0 .55l.275.203-.217.13q0 .263.251.263l.053-.002q1.477.405 3.056.55 1.854.985 1.854 1.217 0 .217-.58.318-.824-.223-1.306-.223-.144 0-.258.02-.565.03-.29.754l.059-.174q.018-.123.135-.123.063 0 .154.036l.087.26q.094-.246.21-.246.116 0 .254.247.038-.242.254-.242.108 0 .26.06.187.075.647.075.664 0 1.894-.154h.006q.099 0 .212-.507 0-.232 2.447-.304.16 0 .666.217 0 .217-.565.319-.835-.223-1.32-.223-.145 0-.258.02-.565.029-.29.753l.058-.174q.019-.122.136-.122.063 0 .154.035l.087.261q.094-.246.21-.246.116 0 .253.246.039-.241.254-.241.108 0 .26.06.187.074.648.074.663 0 1.894-.154h.005q.1 0 .212-.506.956.217 1.405 1.404.55 2.042 1.318 4.099.767 1.738 1.318 1.738.304-.044.333-.333-.203-.667-.42-1.608-.652-2.925-.71-3.707-.174-1.116-.449-1.84-.55-1.506-1.868-2.158-1.057-.405-1.84-.405-5.054-.13-5.054-.174-1.448-.637-2.39-.637zm-2.882 4.475q-.26.217.072.565.724.376.927.81-.492 0-.492.29 0 .261.594.261l-.754 4.533h4.953v-2.505h1.492v2.505h4.895l-.666-4.547q.55 0 .565-.247 0-.29-.493-.29.189-.434.913-.81.347-.348.13-.565zm24.015-5.234q.949.562.949 1.686h-1.89q0-1.124.94-1.686zm.949 2.21q-.213.751-.95.751-.736 0-.925-.751zm5.452 1.313v.896H76.745v-.896zM83.139 2.25q-1.45.547-1.45 2.346 0 .684.296 1.14h-5.748v1.981H90.04V5.735h-5.725q.296-.455.296-1.139 0-1.8-1.473-2.346zm-3.628 10.629c.806 0 1.814.414 2.302.902.427.426.483.992.498 1.518h-5.576c.016-.526.071-1.092.498-1.518.488-.488 1.473-.902 2.278-.902zm0-.451c-.955 0-1.984.441-2.586 1.044-.618.618-.688 1.432-.688 2.04v.238h6.549v-.237c0-.61-.047-1.423-.665-2.04-.602-.604-1.654-1.045-2.61-1.045zm9.847-2.191v4.845h-3.25v-4.845zm-3.918-.683v6.196h4.601V9.554z"/><path d="M7.95.375c-9.625 0-9.625 17.25 0 17.25m0-17.25h82.091M7.95 17.625h82.091M97.729.375v17.25M90.041.375c9.625 0 9.625 17.25 0 17.25" fill="none" stroke="#000"/></svg>