<svg xmlns="http://www.w3.org/2000/svg" width="53.301" height="18"><path d="M11.116 8.203c-.51.04-.793.296-.847.767.067.51.35.78.847.806.498-.026.76-.295.787-.806-.04-.47-.303-.726-.787-.767zm.06-1.694c.364 0 .7.068 1.01.202a2.659 2.659 0 0 1 1.371 1.361c.134.303.201.622.201.958 0 .35-.067.676-.202.978a2.567 2.567 0 0 1-2.38 1.523c-.362 0-.702-.064-1.018-.192a2.426 2.426 0 0 1-.816-.534 2.621 2.621 0 0 1-.545-.797 2.38 2.38 0 0 1-.202-.978c0-.336.068-.655.202-.958.134-.302.316-.571.545-.806.228-.236.5-.42.816-.555a2.574 2.574 0 0 1 1.019-.202zm-.04-.685c-.443 0-.86.084-1.25.252-.39.168-.726.396-1.008.685a3.36 3.36 0 0 0-.676 1.009 3.053 3.053 0 0 0-.252 1.24c0 .444.084.857.252 1.24.168.384.393.716.676.999a3.2 3.2 0 0 0 2.258.927c.444 0 .857-.084 1.24-.252a3.36 3.36 0 0 0 1.009-.675c.289-.283.518-.615.686-.999.168-.383.252-.796.252-1.24 0-.444-.084-.857-.252-1.24a3.268 3.268 0 0 0-1.694-1.694 3.053 3.053 0 0 0-1.24-.252zm5.996-3.574c-.698 0-1.31.513-1.31 1.171V15.75h.853V3.421c0-.322.284-.427.462-.427.187 0 .475.131.475.527v8.103h.852V3.521c0-.66-.653-1.271-1.332-1.271zm16.215 1.78v1.756H20.415V4.03zM20.463 2.25v1.329h-.499v2.657h13.834V3.58h-.403V2.25h-.451v1.329h-1.115V2.25h-.451v1.329h-1.115V2.25h-.451v1.329H28.72V2.25h-.474v1.329h-1.092V2.25h-.45v1.329h-1.116V2.25h-.45v1.329h-1.116V2.25h-.45v1.329H22.48V2.25h-.451v1.329h-1.115V2.25zm1.198 11.494l-1.697 2.006h.828l.87-1.036.877 1.036.852-1.036.878 1.036.87-1.036.877 1.036.87-1.036.877 1.036.853-1.036.877 1.036.878-1.036.853 1.036.877-1.036.87 1.036h.827l-1.697-2.006-.877.97-.853-.97-.878.97-.877-.97-.853.97-.878-.97-.869.97-.878-.97-.869.97-.878-.97-.852.97-.878-.97zm14.387-9.847q-.09 0-.216.11-.496.668-.534 1.909.153.973.687 2.748-.19 1.431-.286 3.931-.076.84.458 1.088 1.584.42 4.008.42 2.443 0 4.008-.42.553-.248.477-1.088-.096-2.5-.286-3.931.534-1.775.687-2.748-.039-1.241-.535-1.909-.126-.11-.216-.11-.128 0-.185.225.134.381.249.744.152.458.114.859-.038.649-.124 1.059-.086.41-.353.41l-.028.001q-.45 0-.45-1.203 0-.44.115-1.069-.098-.167-.212-.167-.106 0-.227.148-.057.458-.076 1.012-.076.84.4 2.366-.171 2.157-.171 4.313-1.298.21-3.187.267-1.87-.057-3.168-.267 0-2.156-.172-4.313.477-1.527.4-2.366-.018-.554-.076-1.012-.12-.148-.227-.148-.113 0-.212.167.115.63.115 1.069 0 1.203-.45 1.203h-.027q-.267 0-.353-.411-.086-.41-.124-1.06-.039-.4.114-.858.115-.363.248-.744-.056-.225-.185-.225z"/><path d="M7.95.375c-9.625 0-9.625 17.25 0 17.25m0-17.25h37.1m-37.1 17.25h37.1M52.738.375v17.25M45.05.375c9.626 0 9.626 17.25 0 17.25" fill="none" stroke="#000"/></svg>