<svg xmlns="http://www.w3.org/2000/svg" width="62.966" height="18"><path d="M9.507 3.093q1.51.22 1.579 1.382v8.382q-.706-.843-2.536-1.184l.957-8.58zM9.08 2.25L7.95 12.272q2.52.289 3.136 1.8v1.678h.752V4.475q0-1.883-2.757-2.225zm17.64 1.78v1.756H13.788V4.03zM13.836 2.25v1.329h-.498v2.657H27.17V3.58h-.403V2.25h-.451v1.329h-1.115V2.25h-.451v1.329h-1.115V2.25h-.451v1.329h-1.092V2.25h-.474v1.329h-1.092V2.25h-.45v1.329H18.96V2.25h-.45v1.329h-1.116V2.25h-.45v1.329h-1.092V2.25h-.451v1.329h-1.115V2.25zm1.198 11.494l-1.696 2.006h.827l.87-1.036.877 1.036.853-1.036.877 1.036.87-1.036.877 1.036.87-1.036.877 1.036.853-1.036.877 1.036.878-1.036.853 1.036.877-1.036.87 1.036h.827l-1.697-2.006-.877.97-.853-.97-.878.97-.877-.97-.853.97-.877-.97-.87.97-.877-.97-.87.97-.877-.97-.853.97-.878-.97zM30.228 3.093q1.51.22 1.58 1.382v8.382q-.707-.843-2.537-1.184l.957-8.58zm-.425-.843L28.67 12.272q2.521.289 3.136 1.8v1.678h.752V4.475q0-1.883-2.756-2.225zm5.812.843q1.511.22 1.58 1.382v8.382q-.707-.843-2.536-1.184l.956-8.58zm-.425-.843l-1.13 10.022q2.52.289 3.136 1.8v1.678h.751V4.475q0-1.883-2.756-2.225zm5.015 0l-.759.473L41.7 5.952v9.798h.84V5.681L40.206 2.25zm5.802.476q-.279 0-.279.328 0 .278.279.278.295-.016.295-.311t-.295-.295zm-1.082.213v.295l-.64.115q.296-.312.64-.41zm.033.393q.377.295.13.443-.376-.131-.556-.344l.426-.099zm1.147-.754q.77 0 1.23.59.459.59.492 1.82 1.196.246 1.59 1.082.063.542-.244.542l-.019-.001q-.327-.016-.516-.18-.068-.06-.103-.06-.062 0-.02.183.066.287.721.696.656.41.107.68-.136.068-.29.068-.467 0-1.095-.616-.836-.82-.885-1.246-.05-.427.344-.787.234-.215.16-.215-.05 0-.242.1-.476.246-.5.721-.025.476.377 1.041.401.566 1.582 1.435.12.063.273.063.324 0 .792-.285.689-.418-.688-1.286.508-.132.524-.443.64.213 3.59 3.967.788.525.804.77-.016.23-.246.28-.05.01-.1.01-.186 0-.392-.142-.918.443-1.778.46h-.09q-.8 0-1.329-.28.541.476.378 1-.08.255-.12.255-.044 0-.044-.287 0-.558-1.427-1.066v.623q-.084.353-.133.353-.047 0-.063-.32-.099-.705-.468-1.517-.368-.811-1.172-2.245-.803-1.435-1.024-2.066-.222-.631-.205-1.172.016-.541-.222-.795-.237-.254-.139-.55.098-.295-.295-.557v-.278q.426-.345.885-.345zm3.115 9.443q.803.23.803.54l-.54 2.017q-.066.361-.443.361h-.656v-.033l.836-2.557v-.328zM46.164 2.25h-.059q-.64 0-1.295.525-.377.131-.77.607.54.491.983.606.05.23.312.64.016 1.081.295 1.795.279.713 1.869 3.827.787 1.64.787 2.017 0 .574-.722 2.574 0 .114-.983.18-1.476.05-1.476.41 0 .213.197.213h4.36q.41-.328.46-.558.393.164.426.443.055.221.157.221.019 0 .04-.008.13-.049.13-.213-.114-.443-.573-.852l.525-2.213q1.59-.05 2.77-.509.219.05.4.05.365 0 .584-.197.328-.295-.131-.918-1-1-1.902-2.197-1.853-2.279-2.541-2.64-.23-.475-.55-.753-.319-.28-1.155-.689-.016-.967-.45-1.672-.425-.689-1.688-.689z"/><path d="M7.95.375c-9.625 0-9.625 17.25 0 17.25m0-17.25h46.766M7.95 17.625h46.766M62.403.375v17.25M54.716.375c9.625 0 9.625 17.25 0 17.25" fill="none" stroke="#000"/></svg>