<svg xmlns="http://www.w3.org/2000/svg" width="103.28" height="18"><path d="M6.332.911v2.43q-.537-.8-3.22-.8H1.129V.911zM6.362 0Q5.27.202 3.112.202H.45V3.25h2.663q1.407 0 2.014.293.618.294 1.205.84L6.362 18h1.175V0zM11.9 11.783c.534.205 1.116.861 1.286 1.402.17.54.15 1.171.03 1.792-.12.61-.36 1.191-.65 1.571-.2.26-.38.41-.55.46h-.161c-.17-.04-.39-.19-.61-.46-.291-.38-.531-.96-.651-1.571-.12-.621-.14-1.252.03-1.792.17-.541.807-1.243 1.276-1.395v-.007zM11.334 0v1.201h-1.08v.771h1.08l-.15 9.09c-.77.4-1.251 1.081-1.481 1.812-.23.751-.24 1.562-.09 2.313.15.75.45 1.411.86 1.942.31.4.721.73 1.202.831v.03c.03.01.06.01.09.01.04 0 .08-.01.12-.01.05.01.1.01.14.01.04 0 .07 0 .11-.01v-.03c.48-.1.891-.43 1.202-.831.41-.53.71-1.191.86-1.942.15-.751.14-1.562-.09-2.313a2.97 2.97 0 0 0-1.481-1.782l-.15-9.12h1.02l.03-.77h-1.14V0h-1.052zm21.16.82Q29.95 4.28 25.17 4.375q-4.748-.093-7.294-3.553zM16.296 0q2.608 5.216 8.873 5.237Q31.466 5.216 34.074 0zM32.98 9.27c.162 0 .243.587.243.749 0 .162-.08.749-.243.749H17.43c-.19 0-.284-.587-.284-.75 0-.161.095-.748.284-.748zm-16.036-.85c-.432 0-.648.87-.648 1.599s.216 1.6.648 1.6h16.522c.405 0 .608-.871.608-1.6 0-.73-.203-1.6-.608-1.6zm16.036 7.231c.162 0 .243.587.243.75 0 .161-.08.749-.243.749H17.43c-.19 0-.284-.588-.284-.75 0-.162.095-.749.284-.749zm-16.036-.85c-.432 0-.648.87-.648 1.6 0 .728.216 1.599.648 1.599h16.522c.405 0 .608-.87.608-1.6 0-.729-.203-1.6-.608-1.6zm28.749-6.097c.337 0 .752.06 1.245.18 1.041.253 1.941.612 2.701 1.076a33.73 33.73 0 0 1 2.553 1.752c-.907.459-1.95.689-3.13.689-.264 0-.537-.012-.816-.035-1.519-.127-2.824-.574-3.914-1.34-1.09-.767-1.361-1.238-.812-1.414.548-.176.995-.404 1.34-.686.18-.148.459-.222.833-.222zm7.26 3.176l.864.19c0 .225-.204.408-.612.549-.232.016-.474.024-.726.024-.42 0-.867-.022-1.342-.066.915-.113 1.52-.345 1.815-.697zm1.329.317l.527.105c.056.17-.14.338-.59.507l-.613-.042c.436-.197.661-.387.676-.57zm.801.211l.36.084c-.085.24-.338.36-.76.36.239-.156.372-.303.4-.444zm.591.211c.338.098.563.26.676.485l-.95-.21c.183-.085.274-.177.274-.275zm-2.194 1.245c1.055.127 1.85.422 2.384.886l-2.616-.612c.028-.154.105-.246.232-.274zM41.262.401c.66 0 1.16.183 1.498.549.337.365.443 1.248.316 2.648-.126 1.4-.168 2.35-.126 2.849.042.5.172.868.39 1.108.218.239.482.474.791.706.31.233.155.44-.464.623s-.963.454-1.034.812c-.07.36.018.69.264.992.246.303.834.71 1.762 1.224.929.514 1.748.84 2.458.981.71.141 2.888.211 6.531.211 1.126.211 1.872.493 2.237.844L53.48 13.4a.943.943 0 0 0-.528.4c0 .366-.795.577-2.384.634-.24 0-.401-.33-.486-.992l-.253.211c.127.535.162 1.006.106 1.414a1.582 1.582 0 0 0-1.034-.95c-.788-.14-1.492-.27-2.11-.39-.62-.12-1.246-.376-1.879-.77-.562-.436-1.466-.908-2.711-1.414-1.245-.507-1.868-1.26-1.868-2.258 0-.999.334-1.825 1.002-2.48.669-.654 1.003-1.438 1.003-2.352 0-.45-.056-.876-.169-1.277-.102-.363-.405-.544-.91-.544a2.39 2.39 0 0 0-.166.006l-1.773.232a1.71 1.71 0 0 1 .253-.507c.141-.436.296-.689.465-.76.024.087.119.13.284.13.023 0 .048 0 .074-.003.282-.014.444-.154.486-.422-.028-.267-.19-.408-.486-.422-.253.014-.393.155-.422.422-.225.211-.4.458-.527.739a.273.273 0 0 1-.12.03.276.276 0 0 1-.197-.093 4.81 4.81 0 0 1 .739-1.045c.323-.359.788-.538 1.393-.538zm4.79 13.758l.675.17-.76 1.097.085-1.267zm1.308.233c.563 0 1.038.06 1.424.179.387.12.626.573.718 1.361.09.774-.027 1.161-.352 1.161h-2.043a1.842 1.842 0 0 0-.136-.005c-.346 0-.73.093-1.151.279.112-.985.626-1.977 1.54-2.975zM41.262 0c-.957 0-1.745.535-2.364 1.604-.21.351-.837.703-1.878 1.055-.717.21-1.027.506-.928.886l.02.253c1.337-.126 2.456-.288 3.356-.485l1.646-.295a.89.89 0 0 1 .025 0c.49 0 .73.414.724 1.245-.007.844-.362 1.6-1.066 2.268-.703.668-1.062 1.635-1.076 2.902 0 1.027.489 1.762 1.467 2.205.977.443 1.924.918 2.838 1.424.914.507 1.435.9 1.562 1.182-.07 1.491-.254 2.455-.55 2.89-.492 0-1.35-.07-2.574-.21-.38.056-.64.18-.78.37-.141.189-.113.397.084.622.094-.136.184-.204.27-.204.03 0 .06.008.089.024.112.064.394.095.844.095h2.068c.101-.02.198-.03.288-.03.236 0 .436.067.598.199a.988.988 0 0 0 .507-.169c.62.018 1.14.027 1.558.027.558 0 .935-.016 1.132-.048.345-.056.658-.105.94-.148l.717.232.024.001c.16 0 .18-.14.06-.423-.619-.337-.76-1.188-.422-2.553.119.003.234.004.345.004 1.113 0 1.842-.128 2.187-.384 1.407.253 2.554.5 3.44.739l.148-.253c-.366-.408-.64-.669-.823-.781l.928.19c.15.056.254.084.312.084.116 0 .047-.112-.206-.337-.057-.155-.465-.458-1.224-.908l1.287.253c.14-.9-.837-1.54-2.933-1.92a7.14 7.14 0 0 1-2.976-1.477c-1.167-1.027-2.933-1.78-5.296-2.258-1.252-.084-1.949-.468-2.09-1.15-.14-.682-.137-1.77.011-3.26.148-1.491-.06-2.462-.622-2.912C42.507.183 41.95 0 41.262 0z"/><path d="M51.614 2.697c-.58.046-.9.335-.96.869.076.579.396.884.96.914.564-.03.86-.335.891-.914-.045-.534-.342-.823-.891-.869zm.069-1.92c.411 0 .792.076 1.142.229a3.014 3.014 0 0 1 1.554 1.543c.153.342.23.704.23 1.085 0 .396-.077.766-.23 1.109a2.91 2.91 0 0 1-2.697 1.726 3.05 3.05 0 0 1-1.154-.218 2.75 2.75 0 0 1-.925-.605 2.97 2.97 0 0 1-.618-.903 2.698 2.698 0 0 1-.228-1.109c0-.38.076-.743.228-1.085a3.12 3.12 0 0 1 .618-.915c.259-.266.567-.476.925-.628a2.917 2.917 0 0 1 1.155-.229zM51.637 0c-.503 0-.975.095-1.417.286-.442.19-.823.45-1.143.777-.32.327-.575.708-.766 1.143a3.46 3.46 0 0 0-.286 1.405c0 .503.096.972.286 1.406.19.434.446.812.766 1.132a3.627 3.627 0 0 0 2.56 1.051 3.46 3.46 0 0 0 1.406-.286 3.79 3.79 0 0 0 1.142-.765c.328-.32.587-.698.778-1.132a3.46 3.46 0 0 0 .285-1.406 3.46 3.46 0 0 0-.285-1.405 3.704 3.704 0 0 0-1.92-1.92A3.46 3.46 0 0 0 51.637 0zm12.06 3.235q.132 0 .274.06.318.134.318 2.137v1.916h-3.596q1.389-1.905 1.905-2.88.517-.974.786-1.14.15-.093.313-.093zm-.153-.41l-.057.002q-.512.01-1.152 1.248-.641 1.239-2.536 3.693h4.91l-.011-2.756q-.054-1.84-.377-2.019-.305-.167-.777-.167z"/><path d="M68.151.604c.242.059.45.083.702.088a7.42 7.42 0 0 0-.407 2.896c.92.433 1.84.571 2.778.571.665 0 1.34-.07 2.033-.152-1.028 3.194-3.302 5.472-5.771 7.004-1.138.706-3.356 1.325-5.182 1.623l-.101.016c.143-.028.288-.058.436-.093 1.442-.337 2.972-.823 3.873-1.267 2.163-1.068 3.99-3.505 4.414-5.52a1.093 1.093 0 0 0-.245-.946c-.215-.252-.527-.43-.888-.558-.475-.168-1.04-.251-1.614-.251-.187 0-.374.009-.56.026.346-1.176.573-2.28.532-3.437zM67.668 0c.173 1.563-.212 3.094-.672 4.575a6.008 6.008 0 0 1 1.124-.111c.503 0 .998.071 1.524.22.314.11.56.262.701.428a.604.604 0 0 1 .147.567c-.384 1.828-2.168 4.223-4.176 5.214-.836.412-2.36.901-3.778 1.233-.825.193-1.612.28-2.217.343-.393.074-1.283-.031-1.29.522.088.268.482.301.794.301.1 0 .19-.003.261-.003a15.56 15.56 0 0 0 2.29-.217c1.863-.305 4.09-.906 5.344-1.685 2.985-1.86 5.182-4.533 6.163-7.931a10.82 10.82 0 0 1-2.277.252c-.918 0-1.83-.13-2.734-.416-.04-1.074.247-2.065.618-3.056-.138.014-.27.021-.397.021-.492 0-.925-.1-1.425-.257zM66.55 15.495c.24 0 .385.041.46.084.219.14.115.473.08.682h-1.08c-.026-.214-.144-.539.079-.682.075-.043.22-.084.46-.084zm-6 1.26v.75h-1.025v-.75zm5.323 0v.75h-5.077v-.75zm1.234 0v.75h-.988v-.75zm4.957 0v.75h-4.71v-.75zm1.325 0v.75H72.31v-.75zm-9.008-2.01l-.35.35 1.17 1.166h-6.17V18h14.852v-1.74H67.9l1.168-1.165-.349-.35-1.08 1.078c-.065-.654-.513-.804-1.088-.822-.615.016-.993.155-1.088.822l-1.08-1.078zM76.894 0l-1.01.63 3.002 4.305V18h1.122V4.575L76.894 0zm7.622.696q.927 0 .927 1.222 0 1.075-.927 2.129-.928-1.054-.928-2.129 0-1.222.928-1.222zm0 4.7q.653 0 .653 1.412 0 .8-.653 1.475-.654-.674-.654-1.475 0-1.412.654-1.412zm0 4.257q.653 0 .653 1.413 0 .8-.653 1.475-.654-.674-.654-1.475 0-1.413.654-1.413zm0-9.653Q82.83 0 82.83 1.918q-.021 1.201.558 1.886.58.685.517.917-.738.864-.738 2.087 0 1.012.864 2.17-.864.865-.864 2.088 0 1.011.864 2.15.105.273-.59 1.285-.696 1.012-1.433 3.499h.927q.464-1.644.822-2.35.358-.706.759-1.149.421.443.77 1.149.347.706.81 2.35h.95q-.696-2.487-1.424-3.499-.727-1.012-.6-1.286.843-1.138.843-2.15 0-1.222-.801-2.086.8-1.16.8-2.171 0-1.223-.716-2.087-.063-.232.506-.917.57-.685.57-1.886Q86.223 0 84.515 0zm7.152.634q-.372 0-.372.438 0 .371.372.371.394-.022.394-.415 0-.394-.394-.394zM90.225.92v.393l-.852.153q.393-.415.852-.546zm.044.524q.503.394.175.59-.503-.175-.743-.459l.568-.13zM91.8.438q1.028 0 1.64.787.612.786.655 2.426 1.596.328 2.12 1.442.085.722-.325.722h-.024q-.437-.022-.689-.24-.091-.08-.138-.08-.081 0-.026.243.088.383.962.93.874.546.142.906-.181.09-.387.09-.622 0-1.46-.822-1.115-1.093-1.18-1.661-.066-.568.459-1.05.312-.285.214-.285-.066 0-.323.133-.634.328-.667.961-.033.634.503 1.388.535.754 2.109 1.913.16.084.364.084.432 0 1.057-.38.918-.556-.918-1.715.677-.175.7-.59.852.284 4.786 5.29 1.05.699 1.071 1.027-.022.306-.328.371-.065.014-.133.014-.248 0-.523-.188-1.224.59-2.371.612h-.12q-1.067 0-1.77-.372.72.634.502 1.333-.106.34-.16.34-.059 0-.059-.383 0-.744-1.901-1.421v.83q-.112.47-.178.47-.063 0-.085-.426-.13-.94-.623-2.022-.491-1.082-1.562-2.994-1.071-1.913-1.367-2.754-.295-.842-.273-1.563.022-.722-.295-1.06-.317-.34-.186-.733.131-.393-.393-.743V.897q.568-.46 1.18-.46zm4.153 12.59q1.071.306 1.071.721l-.721 2.689q-.087.48-.59.48h-.875v-.043l1.115-3.41v-.437zM91.878 0H91.8q-.852 0-1.727.7-.502.175-1.027.809.721.655 1.312.808.065.306.415.853.022 1.443.393 2.393.372.951 2.492 5.104 1.05 2.186 1.05 2.689 0 .765-.962 3.431 0 .153-1.312.24-1.967.066-1.967.547 0 .284.262.284h5.814q.547-.437.612-.743.525.219.569.59.073.295.209.295.025 0 .053-.01.175-.066.175-.285-.153-.59-.765-1.136l.7-2.951q2.12-.066 3.693-.678.292.066.535.066.485 0 .777-.262.437-.394-.175-1.224-1.333-1.334-2.536-2.93-2.47-3.038-3.388-3.518-.306-.634-.732-1.006-.426-.371-1.54-.918-.023-1.29-.602-2.23Q93.561 0 91.878 0z"/></svg>