<svg xmlns="http://www.w3.org/2000/svg" width="226.634" height="18"><path d="M2.097 0c-.335 0-.67.026-.995.066-.447.113-.217.626.18.626a.476.476 0 0 0 .082-.008c.84.097 1.872.15 2.506.626.841.916.463 2.821.561 3.725.007.05.01 3.653.01 5.48a6.145 6.145 0 0 0-2.635-.586 6.04 6.04 0 0 0-1.187.117c-.441.231.076.528.422.528.041 0 .08-.004.115-.013 1.226.133 2.62.461 3.243 1.602.061.206.023.277-.071.277-.206 0-.68-.342-.946-.342-.014 0-.028 0-.04.003a7.535 7.535 0 0 0-1.58-.169c-.39 0-.777.031-1.15.095-.42.278.097.534.439.534a.532.532 0 0 0 .105-.01c1.251.151 2.636.49 3.243 1.633.007 1.27 0 2.11.033 3.278-.014.36.22.538.456.538.235 0 .473-.176.475-.526-.009-1.15-.091-2.161.06-3.277.304-1.253 2.477-1.445 3.827-1.754.294-.347-.285-.475-.659-.475-.055 0-.107.003-.15.008a6.823 6.823 0 0 0-.521-.02c-.882 0-1.771.175-2.557.58-.032-.755.711-1.19 1.244-1.493.84-.361 1.765-.397 2.643-.59.313-.273-.18-.501-.521-.501a.58.58 0 0 0-.125.012 6.767 6.767 0 0 0-.648-.031c-.903 0-1.805.183-2.614.582.016-2.851.062-5.61-.02-8.308-.065-.834-.546-1.6-1.354-1.849C3.388.094 2.741 0 2.097 0z"/><path d="M2.646 0L.45 2.196v.708L3.177.177 3.354 0zm3 0L.45 5.196v.708L6.177.177 6.354 0zm3 0L.45 8.196v.708L9.177.177l.172-.172V0zm.703 2.298L.45 11.196v.708l8.899-8.899v-.707zm0 3L.45 14.196v.708l8.899-8.899v-.707zm0 3L.45 17.196v.708l8.899-8.899v-.707zm0 3l-6.526 6.525-.177.177h.708l5.995-5.995v-.707zm0 3l-3.526 3.525-.177.177h.708l2.995-2.995v-.707zm0 3l-.526.525-.177.177h.703v-.702zM26.092 2.99q.557 0 1.086.606-4.368 5.2-5.46 5.81-.814.457-1.434.457-.21 0-.399-.053-.74-.208-1.586-.234h-.042q-.828 0-1.817.988h-.13q.702-1.638 1.963-2.34 1.261-.702 7.397-5.148.213-.085.422-.085zM18.36.622q.066 0 .133.01v6.683Q16.44 8.51 15.66 10.668q1.196-8.268 1.677-9.204Q17.77.62 18.361.62zM13.005 11.09q-.08 0-.153.138-.13.247.234.689.208-.546.052-.741-.069-.086-.133-.086zm.037-.372q.153 0 .33.237.39.52-.234 2.08-.702-1.352-.429-1.976.149-.34.333-.34zm6.804 2.577v.39q-.286-.026-.442-.182.052-.078.208-.208zm.598.884l2.418.338.494.884q-.832-.234-1.833-.624-1-.39-1.079-.598zm-5.33-.364l.468.234.156 1.118-.416 1.274h-.65l.442-1.274v-1.352zm1.118.39l.442.13.156.832-.416 1.274h-.65l.442-1.274.026-.962zm1.534.156l.156.806-.416 1.274h-.65l.442-1.274v-.78l.468-.026zm-.994-3.234q.415 0 .89.1 1.404.3 1.768 1.418h1.092l.416-.676q5.512 1.274 6.214 4.602-1.508-.832-3.172-1.118l-.728-1.456-2.886-.39.078-.702h-.988q-1.092.9-2.228.9-.243 0-.489-.042-1.391-.234-1.82-.95-.429-.714.455-1.3.585-.386 1.398-.386zM18.617 0q-.947 0-1.488.658-.663.806-1.235 4.238l-.91 5.954q-.442.468-.676.52h-.312q-.026-.65-.494-1.196-.416-3.978.364-6.968l-.312-.598q-1.118 3.38-.546 7.592h-.078q-1.794-4.03-.52-7.592l-.312-.468q-1.664 3.796.364 8.242-.572 1.248-.117 2.054.455.806.559 1.508l.182.13q.702-1.04.806-1.794h.26q.026.598.338 1.248l.182 1.638-.442 1.274h-2.262v.624h6.526v-.624h-.546l.416-1.274.026-.962q.468-.156.702-.364.338.312.754.312-.026.26.104.442 1.04.806 3.718 1.404l.91 1.768q0-.434.27-.434.085 0 .198.044l-.728-1.3q1.508.338 2.288.858.416.442-.052 1.066 1.04-.442 1.17-1.248-.416-3.926-7.046-5.46l-.468.78h-.416q-.338-1.092-2.678-1.508.522-.388 1.285-.388.414 0 .9.115.491.116.96.116.844 0 1.613-.376 1.196-.585 6.084-6.461-.9-1.136-1.905-1.136-.329 0-.669.122L19.066 7.08V.034Q18.831 0 18.617 0z"/><path d="M37.458.375c-9.625 0-9.625 17.25 0 17.25m0 0" fill="none" stroke="#000"/><path d="M43.68 12.703c-.681.054-1.058.394-1.13 1.022.09.68.467 1.04 1.13 1.075.663-.036 1.013-.394 1.049-1.075-.054-.628-.404-.968-1.049-1.022zm.08-2.259c.485 0 .933.09 1.345.269a3.545 3.545 0 0 1 1.828 1.815c.18.403.27.83.27 1.277 0 .466-.09.901-.27 1.304a3.422 3.422 0 0 1-3.173 2.03c-.483 0-.936-.085-1.357-.255a3.235 3.235 0 0 1-1.09-.712 3.495 3.495 0 0 1-.725-1.063 3.174 3.174 0 0 1-.27-1.304c0-.448.09-.874.27-1.277a3.67 3.67 0 0 1 .726-1.076c.304-.313.667-.56 1.089-.739.421-.18.874-.269 1.358-.269zm-.053-.914c-.592 0-1.147.112-1.667.336-.52.224-.968.529-1.345.914a4.48 4.48 0 0 0-.9 1.345 4.071 4.071 0 0 0-.337 1.653c0 .592.112 1.143.336 1.654.225.511.525.955.901 1.331A4.267 4.267 0 0 0 43.707 18c.591 0 1.143-.112 1.654-.336a4.48 4.48 0 0 0 1.344-.9 4.21 4.21 0 0 0 .914-1.332 4.07 4.07 0 0 0 .336-1.654c0-.591-.112-1.142-.336-1.653a4.358 4.358 0 0 0-2.258-2.259 4.071 4.071 0 0 0-1.654-.336zM51.7 0c-.93 0-1.745.684-1.745 1.562V18h1.136V1.562c0-.43.379-.57.617-.57.25 0 .634.175.634.703v10.804h1.136V1.695C53.478.815 52.607 0 51.7 0zm5.271.543c-.149 0-.514.176-.171.178.056 0 .18.017.27.017.11 0 .173-.024.022-.128-.036-.025-.07-.065-.116-.067h-.005zm.058-.118l.012.001c.264.061.473.283.747.36.231.064.61.15.532.488-.106.452-.41.888-.315 1.36.06.296.39.322.656.322h.126c1.74-.015 3.12-.088 4.228-.088 1.817 0 2.9.197 3.624 1.177 1.201 1.625.79 3.25.491 5.303.084-1.211.486-3.118-.759-4.766-.526-.695-1.417-.988-2.238-1.195-.376-.095-.88-.128-1.434-.128-1.282 0-2.839.177-3.745.177-.215 0-.394-.01-.523-.035-.35-.067-.598-.497-.567-.853.04-.473.413-.912.273-1.39-.062-.212-.247-.26-.449-.26-.144 0-.297.025-.418.03-.132.008-.26.026-.387.026a.683.683 0 0 1-.484-.169c-.295-.26.511-.36.63-.36zm.04-.425h-.028c-.384.02-.77.137-1.101.33-.347.202-.069.593.166.765.216.16.46.308.731.308a.744.744 0 0 0 .16-.018c.14-.03.385-.088.552-.088.099 0 .17.02.178.077.061.47-.44 1.042-.238 1.585.166.446.546.85 1.053.887.222.016.444.023.666.023 1.17 0 2.334-.189 3.503-.209h.111c2.242 0 3.369 1.17 3.626 1.897.249.704.428 1.441.365 2.191-.076.902-.208 1.813-.134 2.715.065.796.341 1.568.53 2.34.045.181.172.271.292.271.13 0 .252-.107.243-.323-.039-.995-.268-1.845-.242-2.763.023-.789.225-1.548.271-2.339.054-.917.31-4.007-2.193-4.906-.72-.259-1.633-.33-2.601-.33-1.146 0-2.369.1-3.44.1-.4 0-.778-.015-1.124-.052.138-.491.402-.92.34-1.431-.048-.405-.49-.556-.827-.648-.314-.086-.527-.382-.86-.382zm-.449 16.264q-.073 0-.141.022-.266.087-.235.259.027.145.238.145.039 0 .083-.004.29-.032.509-.235-.245-.187-.455-.187zm.135-.158q.565 0 1.743.673.59.306 1.296.306.34 0 .707-.07.923-.189 1.94-.33.346-.047.67-.047.629 0 1.177.18.829.274 1.377.353.547.078 1.737.14-.767.079-1.503.079-.735 0-1.737-.165-.5-.082-.964-.082-.464 0-.89.082-.853.165-1.94.306-.272.035-.535.035-.788 0-1.492-.317-.684-.467-1.42-.467-.325 0-.661.091-.297-.015-.266-.328.172-.423.735-.438h.026zm.418-1.596q-.338 0-.631 1.033-.245-.912-.633-.912-.058 0-.119.02-.469.298.313 1.143-.625.36-.625.907 0 .548.923.61.285-.074.557-.074.638 0 1.203.41.484.353 1.533.353.7 0 1.652-.156 1.168-.33 2.271-.33.418 0 .827.048 1.022.118 1.74.118.328 0 .592-.024 1.33-.032 1.33-.25-.36-.33-1.017-.439-1.393-.015-2.543-.485-.575-.235-1.41-.235-.836 0-1.931.235-.707.178-1.315.178-.835 0-1.486-.334-.673-.407-1.424-.673.626-.485.587-.806-.04-.321-.384-.337h-.01zm19.224-6.152c1.36 1.528 2.485 3.271 3.489 5.042.21.26-.027.498-.2.745-.662-2.1-2.183-3.719-3.29-5.787zM75.08.648c.113.528-.095 1.139-.497 1.319l.129.273c.5-.238.982-.95 1.054-1.591.684.04.871.556.978 1.154.128.408-.002 1.4.516 1.571 1.53.592 2.698 1.277 3.747 2.312 1.81 2.264 3.703 4.457 5.513 6.724.704.882 1.347 1.69 1.87 2.3-2.75-2.056-5.822-3.628-8.836-5.262-1.602-.87-3.13-1.582-3.13-3.498 0-1.03 1.899-1.894 1.82-2.028-.006-.011-.028-.017-.063-.017-.39 0-2.385.74-2.385 2.3 0 .432.116.833.317 1.207h-.01c-2.188-1.16-1.84-3.506-1.756-5.574-.91-.05-1.658-.547-2.522-.753.67-.087 1.338-.199 2.01-.268a.533.533 0 0 0-.319.2c-.01.221.239.318.482.318.237 0 .468-.092.446-.252a.61.61 0 0 0-.52-.276c.334-.047.778-.118 1.156-.16zm3.823 13.303c.196.476.297.98.408 1.48.319-.257.628-.523.89-.838-.17.926-.489 1.86-1.26 1.86-.467 0-.683-.315-.384-1.271.141-.45.254-.882.346-1.231zm-.838-4.584c3.12 1.662 6.21 3.34 9.162 5.292.695.563 1.314 1.191 1.734 1.778-.278.432-.808.58-1.297.613-2.499-.087-3.476-2.495-4.796-4.216l-.718-.872.124 1.117c.008.202.214 1.153-.093 1.153a.228.228 0 0 1-.09-.021l-1.262-1.512c-.135.09-.262.19-.402.273-.626-1.267-1.543-2.447-2.362-3.605zM75.372 0c-.656 0-1.328.118-1.965.177-.76.37-1.53.088-2.326.378-.576.258-.737.782-.975 1.306.34-.113.648-.16.939-.16.928 0 1.676.468 2.657.717-.002.493-.079 1.052-.116 1.615-.152 1.526.652 2.865 1.815 3.818.832 1.855 1.985 3.277 2.826 4.724-.1.65-.706 3.103-1.004 3.983-.584.098-1.207.154-1.82.154a9.337 9.337 0 0 1-.79-.032c-.473 0-.993.808-1.503 1.24l10.362.08c-.264-.934-2.105-1.43-2.76-1.43a.913.913 0 0 0-.1.005c.23-.66.519-1.281.6-2.204.29.259.614.539 1.02.568.494-.037.695-.375.758-.816 1.12 1.854 2.375 3.368 4.675 3.591.794-.039 1.785-.386 2-1.231 1.053-.06.28-1.087-.111-1.489-2.869-3.105-5.236-6.65-8.071-9.778-1.092-1.077-2.324-1.805-3.85-2.41-.114-.278-.152-.675-.226-1.112-.08-.477-.335-1.257-.8-1.5A3.556 3.556 0 0 0 75.373 0zm17.274 0l-.45.45v.708l.98-.981.178-.177zm3 0l-3.45 3.45v.708l3.98-3.981.178-.177zm3 0l-6.45 6.45v.708l6.98-6.981.178-.177zm3 0l-9.45 9.45v.708l9.98-9.981.178-.177zm3 0l-12.45 12.45v.708L105.176.177l.178-.177zm3 0l-15.45 15.45v.708L108.176.177l.178-.177zm3 0L92.823 17.823l-.177.177h.708L111.177.177l.177-.177zm3 0L95.823 17.823l-.177.177h.708L114.177.177l.019-.02V0zm.55 2.45L98.823 17.824l-.177.177h.708l14.842-14.842V2.45zm0 3l-12.373 12.373-.177.177h.708l11.842-11.842V5.45zm0 3l-9.373 9.373-.177.177h.708l8.842-8.842V8.45zm0 3l-6.373 6.373-.177.177h.708l5.842-5.842v-.707zm0 3l-3.373 3.373-.177.177h.708l2.842-2.842v-.707zm0 3l-.373.373-.177.177h.55v-.55zm3-13.058q-.12 0-.288.147-.661.89-.712 2.544.203 1.298.916 3.665-.255 1.908-.382 5.242-.102 1.12.61 1.45 2.113.56 5.345.56 3.257 0 5.343-.56.738-.33.637-1.45-.128-3.334-.382-5.242.712-2.367.916-3.665-.05-1.654-.712-2.544-.168-.147-.288-.147-.172 0-.247.3.178.508.33.992.205.61.154 1.145-.051.865-.166 1.412-.114.547-.47.547l-.038.002q-.599 0-.599-1.605 0-.585.153-1.425-.131-.223-.282-.223-.143 0-.303.198-.077.61-.102 1.348-.102 1.12.534 3.156-.229 2.875-.229 5.75-1.73.28-4.25.357-2.493-.076-4.224-.356 0-2.876-.229-5.751.637-2.036.535-3.156-.026-.738-.102-1.348-.16-.198-.303-.198-.151 0-.282.223.152.84.152 1.425 0 1.605-.598 1.605l-.038-.002q-.356 0-.47-.547-.115-.547-.166-1.412-.05-.535.153-1.145.152-.484.33-.993-.074-.3-.246-.3zm14.003 6.288V18h1.225v-7.32z"/><path d="M142.112.375v17.25M134.424.375c9.625 0 9.625 17.25 0 17.25" fill="none" stroke="#000"/><path d="M150.081.597c.269.002.505.041.692.109-.031.223-.169.569-.953.773.73-.053 1.207-.113 1.453-.307.089.2.137.427.158.556a.297.297 0 0 0 .206.237c.625.191 1.174 1.112 1.7 1.763.95 1.173 1.772 2.48 2.688 3.733-.423-.207-.845-.415-1.27-.622-1.182-.622-2.394-1.11-3.407-1.877-.588-.49-1.171-.996-1.39-1.641-.076-.497.296-1.074.767-1.279a.297.297 0 1 0-.238-.545 1.957 1.957 0 0 0-.904.817c.01-.152.032-.308.075-.448a.297.297 0 0 0 .013-.104 1.372 1.372 0 0 0-.082-.422c-.041-.109-.085-.206-.158-.459a.297.297 0 0 0-.104-.153c.14-.062.315-.112.527-.125.042-.003.083-.003.125-.004a.258.258 0 1 0 .102-.002zm1.194 5.432c.605.466 1.253.873 1.888 1.28-.005.438.006.879.047 1.321a2.215 2.215 0 0 0-.697-.3c-.391-.636-.82-1.22-1.083-1.842a4.553 4.553 0 0 1-.155-.46zm-.249 1c.273.549.621 1.04.928 1.529-.058.04-.112.08-.154.121l-.027.027a1.713 1.713 0 0 0-.614-.454c.01-.348-.047-.768-.133-1.222zm2.88.047a25.922 25.922 0 0 1 .588.297c.78.38 1.56.772 2.35 1.148.556.67 1.156 1.293 1.734 1.92l-1.043.175-2.563-2.786a.297.297 0 0 0-.04-.036 19.147 19.147 0 0 0-1.025-.718zm-2.591 2.009c.058.066.112.14.161.222a.298.298 0 0 0 .43.087c.124-.09.2-.177.265-.244l.077 1.413c-.1-.006-.2-.013-.296-.013-.166 0-.313.022-.398.108-.1-.078-.28-.1-.504-.1-.057 0-.118.002-.18.005l.445-1.478zm-5.419.999c.452.062.686.323.704.783h-1.395c0-.46.23-.721.691-.783zm7.861-2.39c.274.182.541.367.798.56l2.402 2.613h-2.456c-.17-.19-.518-.365-.776-.365a.366.366 0 0 0-.192.046 2.987 2.987 0 0 0-.256-.01c-.14 0-.285.007-.433.016l-.083-1.506c.225.115.407.282.626.542a.297.297 0 0 0 .52-.246 9.753 9.753 0 0 1-.15-1.65zm-6.24 3.745l-.266.465h-1.249l-.252-.465zm4.515 0v2.51l-1.726-2.51zM150.09 0a3.878 3.878 0 0 0-.273.01c-.694.044-1.215.325-1.408.768a.298.298 0 0 0 .341.408l.025-.006.03.007.108.029c.054.168.096.269.12.332a.541.541 0 0 1 .042.2 3.112 3.112 0 0 0-.037 1.389c.095.466.384.977.761 1.46a.295.295 0 0 0 .014.108c.183.559.396 1.318.548 2.027.153.708.234 1.387.192 1.684a.3.3 0 0 0 .223.33l.019.005-.527 1.75a1.787 1.787 0 0 0-.259-.018c-.256 0-.51.041-.712.041a.865.865 0 0 1-.184-.016.314.314 0 0 0-.068-.007c-.212 0-.656.13-.787.366h-1.1c-.061-.797-.482-1.235-1.26-1.315-.789.08-1.196.518-1.223 1.315v.572h.531l.545 1.01h1.767l.53-1.01h1.568l2.404 3.493V18h.571v-6.561h4.517v-.41l.1.109a.297.297 0 0 0 .267.092l1.74-.292a.298.298 0 0 0 .173-.492 49.17 49.17 0 0 0-.656-.716l1.656 1.078a.296.296 0 0 0 .412-.087.297.297 0 0 0-.087-.411l-1.345-.876a.292.292 0 0 0 .076-.09.315.315 0 0 0 .02-.237c-.016-.05-.034-.074-.048-.093-.055-.076-.084-.088-.123-.119a2.938 2.938 0 0 0-.131-.094c-.096-.065-.206-.137-.301-.2a4.156 4.156 0 0 1-.216-.156l-2.379-1.672-.008-.005c-.805-1.13-1.568-2.316-2.457-3.414-.433-.535-.937-1.524-1.812-1.894-.048-.262-.156-.68-.483-.997-.353-.344-.864-.463-1.416-.463zm38.186 7.458v1.656c-.565 0-.848-.283-.848-.848 0-.539.283-.808.848-.808zM190.371 0c-.463 0-.855.116-1.176.35-.612.443-.919 1.09-.919 1.938v4.584c-.942 0-1.42.465-1.434 1.394 0 .942.478 1.413 1.434 1.413V18h.747V2.732c0-1.023.198-1.68.595-1.969.206-.15.476-.225.839-.225.337 0 .754.065 1.273.195a.65.65 0 0 0 .212.043c.111 0 .188-.048.232-.144.014-.162-.108-.276-.363-.343-.539-.193-1.019-.289-1.44-.289zm8.067 5.565c3.71 0 3.71-5.565 0-5.565s-3.71 5.565 0 5.565zm-1.221 4.062c-5.438 1.9-2.904 9.54 2.195 8.228 5.054-1.302 4.046-9.318-2.195-8.228m.243.698c5.418-.787 5.64 5.768 1.708 6.812-3.846 1.022-6.482-5.13-1.708-6.812m1.189 1.152c1.082-.74-.885-.487 0-.018v.018m-1.986.433c1.227-.397-.343-.795 0-.073v.073m2.993-.712v.732l.73-.244-.73-.488m-3.57 2.066c.902-.795-.596-.885-.11-.09l.11.09m2.838-.846l-.244.731.732-.487-.488-.244m-1.052.358l-.072-.017c-.668-.489-1.39 1.767.072.017m3.014-.397c-.957.56.162.703.253.703l-.253-.703m-2.938 1.502l.244.244.488-.732-.732.488m1.675-.474l-.47.019c.56.866.758.793.47-.019m-3.681 1.517c.883-.74-.434-.632-.416-.488l.416.488m1.01-.903l.22.305c.718-.215.34-.792-.22-.305m3.435.836l.244.244.488-.732-.732.488m-1.323.012c-.759-.378-.92-.27-.47.344l.47-.344m-2.579.72l.244.731.488-.732h-.732m3.246-.465l-.45.54c.107.217 1.1.145.45-.54m-1.539.71l-.244.731h.732l-.488-.732zM206.646 0l-2.012 2.013v.707l2.543-2.543.177-.177zm3 0l-5.012 5.013v.707l5.543-5.543.177-.177zm3 0l-8.012 8.013v.707l8.543-8.543.177-.177zm3 0l-11.012 11.013v.707L216.177.177l.177-.177zm3 0l-14.012 14.013v.707L219.177.177l.177-.177zm3 0l-17.012 17.013v.707L222.177.177l.177-.177zm3 0l-17.823 17.823-.177.177h.708L225.177.177l.177-.177zm1.988 1.013l-16.81 16.81-.178.177h.708l16.28-16.28v-.707zm0 3l-13.81 13.81-.178.177h.708l13.28-13.28v-.707zm0 3l-10.81 10.81-.178.177h.708l10.28-10.28v-.707zm0 3l-7.81 7.81-.178.177h.708l7.28-7.28v-.707zm0 3l-4.81 4.81-.178.177h.708l4.28-4.28v-.707zm0 3l-1.81 1.81-.178.177h.708l1.28-1.28v-.707z"/></svg>