<svg xmlns="http://www.w3.org/2000/svg" width="176.451" height="18"><path d="M2.097 0c-.335 0-.67.026-.995.066-.447.113-.217.626.18.626a.476.476 0 0 0 .082-.008c.84.097 1.872.15 2.506.626.841.916.463 2.821.561 3.725.007.05.01 3.653.01 5.48a6.145 6.145 0 0 0-2.635-.586 6.04 6.04 0 0 0-1.187.117c-.441.231.076.528.422.528.041 0 .08-.004.115-.013 1.226.133 2.62.461 3.243 1.602.061.206.023.277-.071.277-.206 0-.68-.342-.946-.342-.014 0-.028 0-.04.003a7.535 7.535 0 0 0-1.58-.169c-.39 0-.777.031-1.15.095-.42.278.097.534.439.534a.532.532 0 0 0 .105-.01c1.251.151 2.636.49 3.243 1.633.007 1.27 0 2.11.033 3.278-.014.36.22.538.456.538.235 0 .473-.176.475-.526-.009-1.15-.091-2.161.06-3.277.304-1.253 2.477-1.445 3.827-1.754.294-.347-.285-.475-.659-.475-.055 0-.107.003-.15.008a6.823 6.823 0 0 0-.521-.02c-.882 0-1.771.175-2.557.58-.032-.755.711-1.19 1.244-1.493.84-.361 1.765-.397 2.643-.59.313-.273-.18-.501-.521-.501a.58.58 0 0 0-.125.012 6.767 6.767 0 0 0-.648-.031c-.903 0-1.805.183-2.614.582.016-2.851.062-5.61-.02-8.308-.065-.834-.546-1.6-1.354-1.849C3.388.094 2.741 0 2.097 0zm23.894 2.99q.557 0 1.086.606-4.368 5.2-5.46 5.81-.814.457-1.434.457-.21 0-.399-.053-.74-.208-1.586-.234h-.042q-.828 0-1.817.988h-.13q.702-1.638 1.963-2.34 1.261-.702 7.397-5.148.213-.085.422-.085zM18.26.622q.066 0 .133.01v6.683Q16.34 8.51 15.56 10.668q1.196-8.268 1.677-9.204Q17.67.62 18.26.62zM12.904 11.09q-.08 0-.153.138-.13.247.234.689.208-.546.052-.741-.069-.086-.133-.086zm.037-.372q.153 0 .33.237.39.52-.234 2.08-.702-1.352-.429-1.976.149-.34.333-.34zm6.804 2.577v.39q-.286-.026-.442-.182.052-.078.208-.208zm.598.884l2.418.338.494.884q-.832-.234-1.833-.624-1-.39-1.079-.598zm-5.33-.364l.468.234.156 1.118-.416 1.274h-.65l.442-1.274v-1.352zm1.118.39l.442.13.156.832-.416 1.274h-.65l.442-1.274.026-.962zm1.534.156l.156.806-.416 1.274h-.65l.442-1.274v-.78l.468-.026zm-.994-3.234q.415 0 .89.1 1.404.3 1.768 1.418h1.092l.416-.676q5.512 1.274 6.214 4.602-1.508-.832-3.172-1.118l-.728-1.456-2.886-.39.078-.702h-.988q-1.092.9-2.228.9-.243 0-.489-.042-1.39-.234-1.82-.95-.429-.714.455-1.3.585-.386 1.398-.386zM18.517 0q-.948 0-1.489.658-.663.806-1.235 4.238l-.91 5.954q-.442.468-.676.52h-.312q-.026-.65-.494-1.196-.416-3.978.364-6.968l-.312-.598q-1.118 3.38-.546 7.592h-.078q-1.794-4.03-.52-7.592l-.312-.468q-1.664 3.796.364 8.242-.572 1.248-.117 2.054.455.806.56 1.508l.181.13q.702-1.04.806-1.794h.26q.026.598.338 1.248l.182 1.638-.442 1.274h-2.262v.624h6.526v-.624h-.546l.416-1.274.026-.962q.468-.156.702-.364.338.312.754.312-.026.26.104.442 1.04.806 3.718 1.404l.91 1.768q0-.434.27-.434.085 0 .198.044l-.728-1.3q1.508.338 2.288.858.416.442-.052 1.066 1.04-.442 1.17-1.248-.416-3.926-7.046-5.46l-.468.78h-.416q-.338-1.092-2.678-1.508.522-.388 1.285-.388.414 0 .9.115.491.116.96.116.844 0 1.613-.376 1.196-.585 6.084-6.461-.9-1.136-1.905-1.136-.329 0-.669.122L18.965 7.08V.034Q18.731 0 18.517 0z"/><path d="M2.646 0L.45 2.196v.708L3.177.177 3.354 0zm3 0L.45 5.196v.708L6.177.177 6.354 0zm3 0L.45 8.196v.708L9.177.177 9.354 0zm3 0L.45 11.196v.708L12.177.177 12.354 0zm2.508.493L.45 14.196v.708L14.154 1.2V.493zm0 3L.45 17.196v.708L14.154 4.2v-.707zm0 3l-11.33 11.33-.178.177h.708l10.8-10.8v-.707zm0 3l-8.33 8.33-.178.177h.708l7.8-7.8v-.707zm0 3l-5.33 5.33-.178.177h.708l4.8-4.8v-.707zm0 3l-2.33 2.33-.178.177h.708l1.8-1.8v-.707z"/><path d="M37.357.375c-9.625 0-9.625 17.25 0 17.25m0 0" fill="none" stroke="#000"/><path d="M43.58 12.703c-.682.054-1.059.394-1.13 1.022.09.68.466 1.04 1.13 1.075.662-.036 1.012-.394 1.048-1.075-.054-.628-.404-.968-1.049-1.022zm.08-2.259c.484 0 .932.09 1.344.269a3.545 3.545 0 0 1 1.828 1.815c.18.403.27.83.27 1.277 0 .466-.09.901-.27 1.304a3.422 3.422 0 0 1-3.173 2.03c-.483 0-.936-.085-1.357-.255a3.235 3.235 0 0 1-1.09-.712 3.495 3.495 0 0 1-.725-1.063 3.174 3.174 0 0 1-.27-1.304c0-.448.09-.874.27-1.277a3.67 3.67 0 0 1 .726-1.076c.305-.313.668-.56 1.089-.739.421-.18.874-.269 1.358-.269zm-.054-.914c-.592 0-1.147.112-1.667.336-.52.224-.968.529-1.345.914a4.48 4.48 0 0 0-.9 1.345 4.071 4.071 0 0 0-.337 1.653c0 .592.113 1.143.337 1.654.224.511.524.955.9 1.331A4.267 4.267 0 0 0 43.606 18c.592 0 1.143-.112 1.654-.336a4.48 4.48 0 0 0 1.344-.9c.386-.377.69-.821.914-1.332a4.07 4.07 0 0 0 .336-1.654c0-.591-.112-1.142-.336-1.653a4.358 4.358 0 0 0-2.258-2.259 4.071 4.071 0 0 0-1.654-.336zM51.6 0c-.93 0-1.746.684-1.746 1.562V18h1.136V1.562c0-.43.379-.57.617-.57.25 0 .634.175.634.703v10.804h1.136V1.695C53.377.815 52.506 0 51.6 0zm6.603.72c.67.051 1.245.203 1.726.456-.632.746-1.208 1.764-1.726 3.054-.531-1.29-1.113-2.308-1.745-3.054.493-.24 1.075-.392 1.745-.455zm0 4.894c.392 3.655.6 6.616.626 7.704-.026 1.846-.234 3.072-.626 3.68-.405-.608-.614-1.834-.626-3.68.012-1.1.221-4.062.626-7.704zm0-5.614c-1.29 0-2.232.392-2.826 1.176.897.746 1.618 1.903 2.162 3.47 0 .709-.142 2.634-.427 4.594-.284 1.96-.35 4.134-.199 6.524.326 1.49.716 2.236 1.171 2.236.04 0 .079-.006.119-.017.04.011.08.017.118.017.455 0 .845-.745 1.171-2.236.14-2.39.067-4.564-.218-6.524-.284-1.96-.426-3.885-.426-4.593.556-1.568 1.283-2.725 2.18-3.471C60.423.392 59.48 0 58.204 0zm5.827 4.392q-.121 0-.289.147-.661.89-.712 2.544.203 1.298.916 3.665-.255 1.908-.382 5.242-.102 1.12.61 1.45 2.113.56 5.345.56 3.257 0 5.344-.56.738-.33.636-1.45-.127-3.334-.382-5.242.713-2.367.916-3.665-.05-1.654-.712-2.544-.168-.147-.288-.147-.172 0-.247.3.178.508.331.992.204.61.153 1.145-.051.865-.166 1.412-.114.547-.47.547l-.038.002q-.599 0-.599-1.605 0-.585.153-1.425-.131-.223-.282-.223-.143 0-.303.198-.077.61-.102 1.348-.102 1.12.534 3.156-.229 2.875-.229 5.75-1.73.28-4.25.357-2.493-.076-4.223-.356 0-2.876-.23-5.751.637-2.036.535-3.156-.025-.738-.102-1.348-.16-.198-.303-.198-.151 0-.282.223.153.84.153 1.425 0 1.605-.6 1.605l-.037-.002q-.356 0-.47-.547-.115-.547-.166-1.412-.05-.535.153-1.145.153-.484.33-.993-.074-.3-.246-.3z"/><path d="M85.72.375v17.25M78.032.375c9.625 0 9.625 17.25 0 17.25" fill="none" stroke="#000"/><path d="M93.69.597a2.1 2.1 0 0 1 .691.109c-.03.223-.168.569-.953.773.73-.053 1.207-.113 1.453-.307.089.2.137.427.158.556a.297.297 0 0 0 .206.237c.625.191 1.174 1.112 1.701 1.763.95 1.173 1.77 2.48 2.687 3.733-.423-.207-.845-.415-1.27-.622-1.182-.622-2.394-1.11-3.406-1.877-.59-.49-1.172-.996-1.391-1.641-.076-.497.296-1.074.767-1.279a.297.297 0 1 0-.238-.545 1.957 1.957 0 0 0-.904.817c.01-.152.032-.308.075-.448a.297.297 0 0 0 .013-.104 1.372 1.372 0 0 0-.082-.422c-.04-.109-.085-.206-.158-.459a.297.297 0 0 0-.104-.153c.14-.062.315-.112.527-.125.043-.003.083-.003.125-.004a.258.258 0 1 0 .102-.002zm1.193 5.432c.605.466 1.253.873 1.888 1.28-.005.438.006.879.047 1.321a2.215 2.215 0 0 0-.697-.3c-.391-.636-.82-1.22-1.083-1.842a4.553 4.553 0 0 1-.155-.46zm-.249 1c.273.549.621 1.04.929 1.529-.06.04-.113.08-.155.121l-.027.027a1.713 1.713 0 0 0-.614-.454c.01-.348-.047-.768-.133-1.222zm2.88.047a25.922 25.922 0 0 1 .588.297c.78.38 1.56.772 2.35 1.148.556.67 1.156 1.293 1.734 1.92l-1.043.175L98.58 7.83a.297.297 0 0 0-.04-.036 19.147 19.147 0 0 0-1.025-.718zm-2.591 2.009c.058.066.112.14.162.222a.298.298 0 0 0 .429.087c.124-.09.2-.177.265-.244l.077 1.413c-.1-.006-.2-.013-.296-.013-.166 0-.313.022-.397.108-.1-.078-.28-.1-.505-.1-.057 0-.118.002-.18.005l.445-1.478zm-5.419.999c.452.062.686.323.704.783h-1.395c0-.46.23-.721.691-.783zm7.861-2.39c.274.182.542.367.798.56l2.402 2.613H98.11c-.17-.19-.518-.365-.776-.365a.366.366 0 0 0-.192.046 2.987 2.987 0 0 0-.256-.01c-.14 0-.285.007-.433.016l-.083-1.506c.225.115.407.282.626.542a.297.297 0 0 0 .52-.246 9.753 9.753 0 0 1-.15-1.65zm-6.24 3.745l-.266.465H89.61l-.252-.465zm4.516 0v2.51l-1.727-2.51zM93.697 0a3.878 3.878 0 0 0-.273.01c-.694.044-1.215.325-1.407.768a.298.298 0 0 0 .34.408l.025-.006.03.007.108.029c.054.168.096.269.12.332a.541.541 0 0 1 .042.2 3.112 3.112 0 0 0-.037 1.389c.095.466.384.977.761 1.46a.295.295 0 0 0 .014.108c.183.559.396 1.318.548 2.027.153.708.234 1.387.192 1.684a.3.3 0 0 0 .224.33l.018.005-.527 1.75a1.787 1.787 0 0 0-.259-.018c-.256 0-.51.041-.712.041a.865.865 0 0 1-.184-.016.314.314 0 0 0-.068-.007c-.212 0-.656.13-.787.366h-1.1c-.061-.797-.482-1.235-1.26-1.315-.789.08-1.196.518-1.223 1.315v.572h.531l.545 1.01h1.767l.53-1.01h1.568l2.404 3.493V18h.571v-6.561h4.517v-.41l.1.109a.297.297 0 0 0 .267.092l1.74-.292a.298.298 0 0 0 .173-.492 49.17 49.17 0 0 0-.656-.716l1.656 1.078a.296.296 0 0 0 .412-.087.297.297 0 0 0-.087-.411l-1.345-.876a.292.292 0 0 0 .076-.09.315.315 0 0 0 .02-.237c-.016-.05-.034-.074-.048-.093-.055-.076-.084-.088-.123-.119a2.938 2.938 0 0 0-.131-.094l-.3-.2a4.156 4.156 0 0 1-.217-.156l-2.379-1.672-.008-.005c-.805-1.13-1.568-2.316-2.457-3.414-.433-.535-.937-1.524-1.812-1.894-.048-.262-.156-.68-.483-.997C94.76.119 94.249 0 93.697 0zm13.949 0l-1.195 1.196v.707l1.726-1.726.177-.177zm3 0l-4.195 4.196v.707l4.726-4.726.177-.177zm3 0l-7.195 7.196v.707l7.726-7.726.177-.177zm3 0l-10.195 10.196v.707L117.177.177l.177-.177zm3 0l-13.195 13.196v.707L120.177.177l.177-.177zm3 0l-16.195 16.196v.707L123.177.177l.177-.177zm3 0l-17.823 17.823-.177.177h.708L126.177.177l.177-.177zm2.805.196l-17.628 17.627-.177.177h.708L128.45.903V.196zm0 3l-14.628 14.627-.177.177h.708L128.45 3.903v-.707zm0 3l-11.628 11.627-.177.177h.708L128.45 6.903v-.707zm0 3l-8.628 8.627-.177.177h.708l8.097-8.097v-.707zm0 3l-5.628 5.627-.177.177h.708l5.097-5.097v-.707zm0 3l-2.628 2.627-.177.177h.708l2.097-2.097v-.707zM128.646 0l-.195.196v.707l.726-.726.177-.177zm1.805 1.196l-2 2v.707l2-2v-.707zm0 3l-2 2v.707l2-2v-.707zm0 3l-2 2v.707l2-2v-.707zm0 3l-2 2v.707l2-2v-.707zm0 3l-2 2v.707l2-2v-.707zm0 3l-1.628 1.627-.177.177h.708l1.097-1.097v-.707z"/><path d="M131.646 0l-1.195 1.196v.707l1.726-1.726.177-.177zm3 0l-4.195 4.196v.707l4.726-4.726.177-.177zm3 0l-7.195 7.196v.707l7.726-7.726.177-.177zm3 0l-10.195 10.196v.707L141.177.177l.177-.177zm3 0l-13.195 13.196v.707L144.177.177l.177-.177zm3 0l-16.195 16.196v.707L147.177.177l.177-.177zm3 0l-17.823 17.823-.177.177h.708L150.177.177l.177-.177zm2.805.196l-17.628 17.627-.177.177h.708L152.45.903V.196zm0 3l-14.628 14.627-.177.177h.708L152.45 3.903v-.707zm0 3l-11.628 11.627-.177.177h.708L152.45 6.903v-.707zm0 3l-8.628 8.627-.177.177h.708l8.097-8.097v-.707zm0 3l-5.628 5.627-.177.177h.708l5.097-5.097v-.707zm0 3l-2.628 2.627-.177.177h.708l2.097-2.097v-.707zM152.646 0l-.195.196v.707l.726-.726.177-.177zm1.805 1.196l-2 2v.707l2-2v-.707zm0 3l-2 2v.707l2-2v-.707zm0 3l-2 2v.707l2-2v-.707zm0 3l-2 2v.707l2-2v-.707zm0 3l-2 2v.707l2-2v-.707zm0 3l-1.628 1.627-.177.177h.708l1.097-1.097v-.707z"/><path d="M155.646 0l-1.195 1.196v.707l1.726-1.726.177-.177zm3 0l-4.195 4.196v.707l4.726-4.726.177-.177zm3 0l-7.195 7.196v.707l7.726-7.726.177-.177zm3 0l-10.195 10.196v.707L165.177.177l.177-.177zm3 0l-13.195 13.196v.707L168.177.177l.177-.177zm3 0l-16.195 16.196v.707L171.177.177l.177-.177zm3 0l-17.823 17.823-.177.177h.708L174.177.177l.177-.177zm2.805.196l-17.628 17.627-.177.177h.708L176.45.903V.196zm0 3l-14.628 14.627-.177.177h.708L176.45 3.903v-.707zm0 3l-11.628 11.627-.177.177h.708L176.45 6.903v-.707zm0 3l-8.628 8.627-.177.177h.708l8.097-8.097v-.707zm0 3l-5.628 5.627-.177.177h.708l5.097-5.097v-.707zm0 3l-2.628 2.627-.177.177h.708l2.097-2.097v-.707z"/></svg>