<svg xmlns="http://www.w3.org/2000/svg" width="74.815" height="18"><path d="M1.669 0c-.248 0-.496.019-.736.049-.331.084-.161.463.133.463.02 0 .04-.002.06-.005.622.071 1.386.11 1.855.463.623.678.343 2.088.416 2.757.005.036.007 2.704.007 4.055a4.548 4.548 0 0 0-2.83-.347c-.325.172.058.392.314.392.03 0 .059-.003.084-.01.908.098 1.94.341 2.4 1.185.046.153.018.206-.052.206-.152 0-.503-.254-.7-.254-.01 0-.02 0-.03.002a5.577 5.577 0 0 0-1.17-.125 5.01 5.01 0 0 0-.85.071c-.31.206.071.395.325.395a.394.394 0 0 0 .077-.007c.927.112 1.952.363 2.4 1.208.006.94 0 1.562.026 2.426-.011.266.162.399.337.399.174 0 .35-.13.351-.39-.006-.851-.067-1.6.045-2.425.225-.927 1.833-1.07 2.832-1.299.218-.256-.21-.351-.487-.351a.904.904 0 0 0-.111.006 5.05 5.05 0 0 0-.386-.015c-.653 0-1.311.13-1.893.43-.024-.56.527-.88.92-1.105.623-.268 1.308-.294 1.957-.438.232-.2-.133-.37-.386-.37a.429.429 0 0 0-.092.009 5.008 5.008 0 0 0-.48-.023c-.667 0-1.335.136-1.934.43.012-2.11.046-4.152-.015-6.148C4.008 1.016 3.652.45 3.054.265 2.624.07 2.146 0 1.669 0zm2.074 15.215c.781 0 1.76.401 2.233.875.414.414.468.963.483 1.473H1.05c.015-.51.07-1.06.484-1.473.473-.474 1.428-.875 2.21-.875zm0-.437c-.927 0-1.924.428-2.509 1.012-.6.6-.667 1.39-.667 1.98V18h6.352v-.23c0-.59-.045-1.38-.644-1.98-.585-.584-1.605-1.012-2.532-1.012zM20.046 2.233q.415 0 .81.452-3.26 3.883-4.076 4.34-.609.34-1.071.34-.158 0-.298-.04-.554-.155-1.185-.174h-.031q-.618 0-1.357.737h-.097q.524-1.223 1.466-1.747t5.524-3.844q.159-.064.315-.064zM14.273.463q.049 0 .1.009v4.99q-1.535.893-2.117 2.504.893-6.174 1.252-6.873.323-.63.765-.63zm-4 7.817q-.06 0-.114.103-.097.185.175.515.155-.408.038-.553-.05-.065-.099-.065zm.028-.277q.114 0 .246.177.291.388-.175 1.553-.524-1.01-.32-1.476.111-.254.249-.254zm5.08 1.924v.291q-.213-.02-.33-.136.04-.058.156-.155zm.447.66l1.806.252.369.66q-.622-.174-1.369-.465-.748-.292-.806-.447zm-3.98-.272l.35.175.116.835-.31.951h-.486l.33-.951v-1.01zm.835.292l.33.097.116.62-.31.952h-.486l.33-.951.02-.718zm1.145.116l.117.602-.31.951h-.486l.33-.951v-.583l.35-.019zm-.742-2.415q.31 0 .665.075 1.048.224 1.32 1.059h.815l.311-.505q4.116.951 4.64 3.436-1.126-.621-2.368-.835l-.544-1.087-2.155-.291.058-.524h-.738q-.815.671-1.663.671-.182 0-.365-.03-1.04-.175-1.36-.71-.32-.533.34-.97.437-.29 1.044-.29zM14.464 0q-.707 0-1.111.491-.495.602-.922 3.165l-.68 4.446q-.33.35-.505.388h-.233q-.02-.485-.369-.893-.31-2.97.272-5.203l-.233-.447q-.835 2.524-.408 5.67h-.058q-1.34-3.01-.388-5.67l-.233-.35q-1.243 2.835.272 6.155-.427.932-.088 1.534.34.602.418 1.126l.136.097q.524-.776.602-1.34h.194q.02.447.252.933l.136 1.223-.33.951h-1.69v.466h4.874v-.466h-.408l.311-.951.02-.718q.349-.117.524-.272.252.233.563.233-.02.194.077.33.777.602 2.777 1.048l.68 1.32q0-.324.2-.324.064 0 .149.033l-.544-.97q1.126.252 1.709.64.31.33-.04.796.778-.33.875-.932-.311-2.932-5.262-4.077l-.35.582h-.31q-.253-.815-2-1.126.39-.289.96-.289.309 0 .671.085.367.087.718.087.63 0 1.204-.28.893-.438 4.543-4.825-.672-.849-1.422-.849-.246 0-.5.091L14.8 5.287V.025Q14.624 0 14.464 0zm.774 15.286c.761 0 1.715.39 2.176.852.403.404.456.939.471 1.436h-5.272c.015-.497.068-1.032.471-1.436.461-.461 1.392-.852 2.154-.852zm0-.427c-.904 0-1.876.418-2.445.987-.585.585-.651 1.354-.651 1.93V18h6.192v-.224c0-.576-.044-1.345-.628-1.93-.57-.57-1.565-.987-2.468-.987zm18.868-6.656c-.511.04-.794.296-.847.767.067.51.35.78.847.806.497-.026.76-.295.786-.806-.04-.47-.302-.726-.786-.767zm.06-1.694c.363 0 .7.068 1.008.202a2.659 2.659 0 0 1 1.371 1.361c.135.303.202.622.202.958 0 .35-.067.676-.201.978a2.567 2.567 0 0 1-2.38 1.523c-.363 0-.702-.064-1.018-.192a2.426 2.426 0 0 1-.817-.534 2.621 2.621 0 0 1-.545-.797 2.38 2.38 0 0 1-.201-.978c0-.336.067-.655.201-.958.135-.302.316-.571.545-.806.228-.236.5-.42.817-.555a2.574 2.574 0 0 1 1.018-.202zm-.04-.685c-.444 0-.86.084-1.25.252-.39.168-.727.396-1.009.685a3.36 3.36 0 0 0-.676 1.009 3.053 3.053 0 0 0-.252 1.24c0 .444.084.857.252 1.24.168.384.394.716.676.999a3.2 3.2 0 0 0 2.259.927c.443 0 .857-.084 1.24-.252a3.36 3.36 0 0 0 1.008-.675c.29-.283.518-.615.686-.999.168-.383.252-.796.252-1.24 0-.444-.084-.857-.252-1.24a3.268 3.268 0 0 0-1.694-1.694 3.053 3.053 0 0 0-1.24-.252zm5.27-3.574l-.584.584v.707l1.115-1.114.177-.177zm3 0l-3.584 3.584v.707l4.115-4.114.177-.177zm3 0l-6.584 6.584v.707l7.115-7.114.177-.177zm3 0l-9.584 9.584v.707L48.927 2.427l.177-.177zm3 0L38.812 14.834v.707L51.927 2.427l.177-.177zm3 0L41.073 15.573l-.177.177h.708L54.927 2.427l.177-.177zm.916 2.084l-11.239 11.24-.177.176h.708L55.312 5.041v-.707zm0 3l-8.239 8.24-.177.176h.708l7.708-7.709v-.707zm0 3l-5.239 5.24-.177.176h.708l4.708-4.709v-.707zm0 3l-2.239 2.24-.177.176h.708l1.708-1.709v-.707zm2.25-9.437q-.09 0-.216.11-.496.668-.534 1.909.153.973.687 2.748-.19 1.431-.286 3.931-.076.84.458 1.088 1.584.42 4.008.42 2.443 0 4.008-.42.553-.248.477-1.088-.096-2.5-.286-3.931.534-1.775.687-2.748-.039-1.241-.535-1.909-.126-.11-.216-.11-.128 0-.185.225.134.381.249.744.152.458.114.859-.038.649-.124 1.059-.086.41-.353.41l-.028.001q-.45 0-.45-1.203 0-.44.115-1.069-.098-.167-.212-.167-.106 0-.227.148-.057.458-.076 1.012-.076.84.4 2.366-.171 2.157-.171 4.313-1.298.21-3.187.267-1.87-.057-3.168-.267 0-2.156-.172-4.313.477-1.527.4-2.366-.018-.554-.076-1.012-.12-.148-.227-.148-.113 0-.212.167.115.63.115 1.069 0 1.203-.45 1.203h-.027q-.267 0-.353-.411-.086-.41-.124-1.06-.039-.4.114-.858.115-.363.248-.744-.056-.225-.185-.225z"/><path d="M30.94.375c-9.626 0-9.626 17.25 0 17.25m0-17.25h35.625M30.94 17.625h35.625M74.252.375v17.25M66.565.375c9.625 0 9.625 17.25 0 17.25" fill="none" stroke="#000"/></svg>