<svg xmlns="http://www.w3.org/2000/svg" width="68.12" height="18"><path d="M11.386 8.203c-.51.04-.793.296-.847.767.067.51.35.78.847.806.498-.026.76-.295.787-.806-.04-.47-.303-.726-.787-.767zm.06-1.694c.364 0 .7.068 1.01.202a2.659 2.659 0 011.371 1.361c.134.303.201.622.201.958 0 .35-.067.676-.202.978a2.567 2.567 0 01-2.38 1.523c-.362 0-.702-.064-1.018-.192a2.426 2.426 0 01-.816-.534 2.621 2.621 0 01-.545-.797 2.38 2.38 0 01-.202-.978c0-.336.068-.655.202-.958.134-.302.316-.571.545-.806.228-.236.5-.42.816-.555a2.574 2.574 0 011.019-.202zm-.04-.685c-.443 0-.86.084-1.25.252-.39.168-.726.396-1.008.685a3.36 3.36 0 00-.676 1.009 3.053 3.053 0 00-.252 1.24c0 .444.084.857.252 1.24.168.384.393.716.676.999a3.2 3.2 0 002.258.927c.444 0 .857-.084 1.24-.252a3.36 3.36 0 001.009-.675c.289-.283.518-.615.686-.999.168-.383.252-.796.252-1.24 0-.444-.084-.857-.252-1.24a3.268 3.268 0 00-1.694-1.694 3.053 3.053 0 00-1.24-.252zM17.835 2.25q-1.742 0-1.742 1.674V15.75h.803V3.924q0-.87.939-.87.946 0 .946.87v7.87h.803v-7.87q0-1.674-1.75-1.674zM23.124 2.638c-.107 0-.368.126-.123.127.04 0 .128.012.194.012.078 0 .123-.017.015-.091-.026-.018-.05-.047-.083-.048h-.003zm.04-.084h.01c.188.044.337.203.533.257.166.046.437.108.38.35-.076.322-.292.634-.224.971.042.211.278.23.468.23l.09-.001c1.242-.01 2.229-.062 3.02-.062 1.298 0 2.071.14 2.589.84.858 1.161.564 2.323.35 3.788.06-.864.347-2.227-.542-3.404-.375-.497-1.012-.706-1.598-.853-.269-.068-.628-.092-1.025-.092-.915 0-2.028.126-2.675.126-.154 0-.281-.007-.374-.024-.249-.048-.427-.355-.405-.61.03-.338.296-.651.196-.992-.045-.152-.177-.186-.321-.186-.103 0-.212.017-.299.022-.094.004-.186.018-.276.018a.488.488 0 01-.346-.121c-.21-.186.365-.257.45-.257zm.03-.304h-.02c-.274.014-.55.098-.787.236-.248.144-.049.423.119.547.154.113.328.22.522.22a.531.531 0 00.115-.013c.099-.022.274-.063.394-.063.07 0 .121.014.126.055.044.336-.314.744-.17 1.132.12.318.39.608.753.634.159.011.317.016.476.016.835 0 1.667-.135 2.502-.15h.08c1.6 0 2.406.836 2.59 1.355.177.503.305 1.03.26 1.566-.054.644-.149 1.294-.096 1.94.047.568.244 1.12.38 1.671.03.129.122.193.208.193.093 0 .18-.077.173-.23-.028-.711-.191-1.319-.173-1.974.017-.564.16-1.106.194-1.671.039-.655.221-2.862-1.566-3.505-.515-.185-1.167-.235-1.859-.235-.818 0-1.692.07-2.456.07-.286 0-.557-.01-.804-.036.099-.351.287-.657.243-1.022-.034-.29-.35-.398-.59-.463-.225-.062-.377-.273-.615-.273zM22.085 13.761q.484 0 1.097.689.474.527 1.283.527.298 0 .64-.071 1.28-.265 2.148-.28.124-.003.243-.003.715 0 1.278.101.657.113 1.182.456.525.349 1 .349-.095.005-.19.005-.63 0-1.198-.256-.424-.19-1.399-.19-.512 0-1.176.053-1.195.094-1.966.094-.472 0-.785-.035-.824-.093-1.226-.667-.332-.473-.517-.473-.04 0-.072.022-.191.127-.505.132h-.015q-.3 0-.353-.191-.01-.226.486-.26.022-.002.045-.002zm.705-1.146q-.383 0-.598.868-.048-.005-.098-.005-.083 0-.172.015-.304-.78-.682-.78-.132 0-.152.093-.02.089.054.187.348.274.466.574-.358.176-.358.456.034.422.466.466.121.012.225.012.264 0 .413-.08.057-.033.112-.033.139 0 .255.209.167.294.633.632.424.313 1.751.313.133 0 .275-.004 1.58-.01 2.482-.083.242-.02.463-.02.609 0 1.062.157.441.158 1.589.158.458 0 1.03-.025.025 0 .044-.098 0-.295-.628-.295-.858-.029-1.118-.245-.26-.22-.868-.505-.613-.29-1.815-.29-1.201 0-2.447.29-.387.088-.707.088-.712 0-1.098-.436-.56-.633-.849-.687 0-.206.211-.451.211-.24.196-.363-.01-.118-.137-.118zM38.269 8.519c1.02 1.145 1.864 2.453 2.616 3.781.158.195-.02.374-.15.559-.496-1.575-1.637-2.79-2.466-4.34zm-.987-5.783c.085.396-.072.854-.373.989l.096.205c.376-.178.737-.713.791-1.193.513.03.654.417.734.865.096.307-.002 1.05.387 1.179 1.147.444 2.023.957 2.81 1.734 1.358 1.698 2.777 3.342 4.135 5.042.527.662 1.01 1.268 1.402 1.725-2.062-1.542-4.367-2.72-6.627-3.946-1.201-.652-2.348-1.186-2.348-2.623 0-.773 1.425-1.42 1.366-1.521-.005-.01-.022-.013-.048-.013-.292 0-1.788.555-1.788 1.725 0 .324.086.625.237.905h-.007c-1.641-.87-1.38-2.63-1.317-4.18-.682-.038-1.244-.41-1.892-.565.503-.065 1.004-.15 1.507-.201a.4.4 0 00-.238.15c-.008.166.179.239.361.239.178 0 .351-.07.335-.19a.457.457 0 00-.39-.206c.25-.036.583-.09.867-.12zm2.867 9.977c.147.357.223.736.306 1.11.24-.193.47-.392.667-.628-.128.694-.366 1.395-.945 1.395-.35 0-.512-.237-.287-.954.105-.338.19-.66.259-.923zm-.629-3.438c2.34 1.247 4.658 2.506 6.872 3.969.521.422.986.893 1.3 1.334-.208.324-.605.435-.973.46-1.873-.066-2.607-1.872-3.596-3.162l-.539-.654.093.838c.007.15.161.864-.07.864a.17.17 0 01-.067-.016l-.947-1.134c-.101.067-.196.143-.3.205-.47-.95-1.158-1.836-1.773-2.704zM37.5 2.25c-.492 0-.996.088-1.474.133-.57.278-1.147.066-1.744.283-.432.194-.553.587-.732.98.255-.085.486-.12.704-.12.697 0 1.257.351 1.993.538 0 .37-.059.788-.086 1.21-.114 1.145.489 2.15 1.36 2.865.625 1.39 1.49 2.457 2.12 3.542-.075.488-.529 2.327-.753 2.988a8.341 8.341 0 01-1.365.115 7.003 7.003 0 01-.593-.024c-.354 0-.744.606-1.126.93l7.771.06c-.198-.7-1.58-1.072-2.07-1.072a.685.685 0 00-.075.003c.173-.495.389-.96.45-1.653.217.195.46.404.764.426.371-.028.522-.281.57-.612.84 1.39 1.78 2.526 3.505 2.693.596-.029 1.34-.29 1.5-.923.79-.044.21-.815-.083-1.116-2.151-2.33-3.927-4.988-6.053-7.334-.819-.808-1.743-1.354-2.888-1.807-.085-.21-.113-.507-.169-.835-.06-.357-.25-.942-.6-1.124a2.667 2.667 0 00-.926-.146zM50.868 3.897q-.09 0-.216.11-.496.668-.534 1.909.152.973.687 2.748-.191 1.431-.287 3.931-.076.84.458 1.088 1.585.42 4.008.42 2.443 0 4.008-.42.554-.248.477-1.088-.095-2.5-.286-3.931.534-1.775.687-2.748-.038-1.241-.534-1.909-.126-.11-.216-.11-.129 0-.185.225.134.381.248.744.153.458.115.859-.039.649-.124 1.059-.086.41-.354.41l-.028.001q-.449 0-.449-1.203 0-.44.115-1.069-.098-.167-.212-.167-.107 0-.227.148-.057.458-.076 1.012-.077.84.4 2.366-.171 2.157-.171 4.313-1.298.21-3.188.267-1.87-.057-3.168-.267 0-2.156-.172-4.313.478-1.527.401-2.366-.019-.554-.076-1.012-.12-.148-.227-.148-.114 0-.212.167.114.63.114 1.069 0 1.203-.449 1.203h-.028q-.267 0-.353-.411-.086-.41-.124-1.06-.038-.4.115-.858.114-.363.248-.744-.056-.225-.185-.225z"/><path d="M8.22.375c-9.625 0-9.625 17.25 0 17.25M8.22.375h51.65M8.22 17.625h51.65M67.558.375v17.25M59.87.375c9.625 0 9.625 17.25 0 17.25" fill="none" stroke="#000"/></svg>