<svg xmlns="http://www.w3.org/2000/svg" width="72.216" height="18"><path d="M8.622 2.25q-.048 0-.116.059-.266.358-.286 1.022.082.521.368 1.472-.102.767-.153 2.106-.041.45.245.582.848.225 2.146.225 1.309 0 2.147-.225.296-.133.256-.582-.052-1.34-.154-2.106.286-.95.368-1.472-.02-.664-.286-1.022-.067-.059-.116-.059-.069 0-.099.12.072.205.133.399.082.245.062.46-.02.347-.067.567-.046.22-.189.22h-.015q-.24 0-.24-.644 0-.235.06-.572-.052-.09-.113-.09-.057 0-.121.08-.031.245-.041.541-.041.45.214 1.268-.092 1.155-.092 2.31-.695.112-1.707.143-1.001-.031-1.696-.143 0-1.155-.092-2.31.255-.818.214-1.268-.01-.296-.04-.542-.065-.079-.122-.079-.061 0-.114.09.062.337.062.572 0 .645-.24.645l-.016-.001q-.143 0-.189-.22-.046-.22-.066-.567-.02-.215.061-.46.061-.194.133-.399-.03-.12-.1-.12zM9.054 8.97q.809.119.846.741v4.49q-.379-.452-1.359-.635l.513-4.595zm-.228-.45l-.606 5.367q1.35.155 1.68.964v.899h.402V9.711q0-1.009-1.476-1.192zM12.195 8.97q.809.119.846.741v4.49q-.379-.452-1.359-.635l.513-4.595zm-.228-.45l-.606 5.367q1.35.155 1.68.964v.899h.402V9.711q0-1.009-1.476-1.192zM16.5 3.093q1.51.22 1.579 1.382v8.382q-.706-.843-2.536-1.184l.957-8.58zm-.425-.843l-1.132 10.022q2.521.289 3.136 1.8v1.678h.752V4.475q0-1.883-2.756-2.225zM33.714 4.03v1.756H20.782V4.03zM20.829 2.25v1.329h-.498v2.657h13.833V3.58h-.403V2.25h-.45v1.329h-1.116V2.25h-.45v1.329h-1.116V2.25h-.451v1.329h-1.091V2.25h-.475v1.329H27.52V2.25h-.45v1.329h-1.116V2.25h-.45v1.329h-1.116V2.25h-.45v1.329h-1.092V2.25h-.45v1.329H21.28V2.25zM22.028 13.744L20.33 15.75h.827l.87-1.036.877 1.036.853-1.036.877 1.036.87-1.036.877 1.036.87-1.036.877 1.036.853-1.036.878 1.036.877-1.036.853 1.036.878-1.036.869 1.036h.827l-1.696-2.006-.878.97-.853-.97-.877.97-.878-.97-.853.97-.877-.97-.87.97-.877-.97-.87.97-.877-.97-.853.97-.877-.97zM38.43 4.554c-.203.097-.451.367-.076.412.18-.007.593-.195.518-.367a.166.166 0 01-.118.05c-.107 0-.216-.095-.325-.095zm-1.48.067c-.247.06-.374.33-.06.39l.017.001c.182 0 .676-.22.269-.27-.067-.046-.135-.12-.225-.12zm1.974-1.883c.443.517.833 1.118.908 1.808.075.495.098.99.173 1.478-.353-.03-.248-.577-.18-.84.06-.518-.218-.998-.413-1.456-.135-.247-.263-.638-.608-.645-.382.067-.63.39-.878.668-.255-.255-.525-.533-.878-.638a.177.177 0 00-.06-.01c-.08 0-.172.035-.215.035-.036 0-.036-.026.043-.123.048-.168.146-.218.269-.218.178 0 .407.106.6.106a.42.42 0 00.084-.008 2.801 2.801 0 001.156-.158zm-.12.57c.293.075.36.48.503.72.18.42.398.878.255 1.351-.112.225.03.51.015.675-.25.176-.47.547-.802.547a.474.474 0 01-.113-.014c-.33-.067-.495-.383-.75-.533-.185.178-.295.548-.599.548a.464.464 0 01-.137-.022c-.278-.06-.645-.03-.728-.368-.142-.345-.157-.728-.18-1.103a.243.243 0 00.046.005c.152 0 .165-.177.18-.328.057-.22.215-.321.39-.321.118 0 .243.046.352.134.128.142.518.255.435.48-.037.135-.082.277-.127.42l.315.42c.03-.217.353-.397.165-.615-.03-.098-.143-.225-.128-.3.135-.24.316-.45.526-.63a.241.241 0 01.172-.077c.2 0 .403.263.578.287.173-.188-.015-.263-.188-.36a.526.526 0 00-.365-.147.602.602 0 00-.49.266c-.143.086-.242.371-.367.371-.04 0-.081-.028-.128-.1-.23-.184-.504-.39-.804-.39a.642.642 0 00-.134.014c-.212.044-.403.474-.42.474-.008-.353.157-.669.255-1.014a.459.459 0 01.447-.357c.13 0 .26.055.356.177.223.083.387.475.597.475a.2.2 0 00.115-.04c.233-.247.42-.54.758-.645zM37.74 8.515c.953.983 1.83 3.475 2.056 4.495-.368-.3-.87-.495-.983-.683-.12-.195-.45-2.093-1.073-3.812zM41.13 6.73c1.801 1.035 4.938 6.13 5.606 6.948-1.126-.713-2.236-1.433-3.445-2.019-1.695-.832-3.144-2.183-4.524-3.444 1.14-.382 1.958-1.028 2.363-1.485zm-1.868 6.468c.24.142.458.337.72.442-.157.39-.255.826-.577 1.133-.061.098-.148.129-.246.129-.171 0-.378-.092-.552-.092a.44.44 0 00-.035.001c.21-.525.525-.758.69-1.613zm.51-7.024c.046.094.104.125.165.125.081 0 .168-.053.24-.087.18.127.803.112.436.383-.233.315-1.476 1.174-2.34 1.326-.372.065.254.655.456.865 1.17 1.05 2.319 2.16 3.722 2.918.878.496 1.8.938 2.649 1.486.405.585.885 1.126 1.193 1.771-.308.09-.608.218-.923.293a2.168 2.168 0 01-.527.061c-.496 0-.994-.147-1.214-.384-.405-.428-.848-2.251-1.08-2.919-.034-.075-.08-.1-.131-.1-.102 0-.22.099-.277.099-.012 0-.021-.004-.028-.014a.293.293 0 00-.29-.282c-.131 0-.254.096-.235.297-.045.473-.135.946-.36 1.373-.028.073-.085.101-.161.101-.213 0-.571-.22-.815-.28.098-.579-.69-3.535-3-6.011-.082-.088-.434-.459-.403-.459.004 0 .012.005.027.016.118.031.251.052.383.052.253 0 .502-.078.63-.314.02-.06.044-.082.072-.082.103 0 .259.3.423.3a.69.69 0 00.385.115.79.79 0 00.583-.266c.143-.128.278-.255.42-.383zm-.78-3.924c-.236.105-.649.21-1.02.21-.054 0-.107-.003-.158-.007a.603.603 0 01-.107.009c-.253 0-.525-.136-.769-.136a.466.466 0 00-.265.074c-.412.6-.788 1.268-.833 2.011-.082 1.426-.045 1.92 1.08 3.091.444 1.006 1.269 4.285 1.517 5.178.27.255-.338 1.65-.593 1.996-.139.191-.505.2-.898.2h-.129c-.353 0-.71.008-.932.145-.21.135-.285.638-.165.705.113-.172.338-.405.496-.427-.15.157.375.082.487.12.304.005.61.03.919.03.149 0 .298-.006.447-.023.068-.03.14-.075.171-.075.025 0 .025.027-.021.113.212.055.451.083.684.083.525 0 1.023-.14 1.132-.42.225-.414.435-.849.585-1.299.192.04.433.176.626.176a.284.284 0 00.155-.04c.21-.144.427-.811.547-1.254.012-.046.074-.069.138-.069.06 0 .122.021.14.061.225.45.6 1.831.96 2.41.272.427.93.638 1.632.638.441 0 .899-.083 1.287-.249.488-.21.848-.165.743-.435-.165-.45-.45-.878-.75-1.26.435.27.87.547 1.305.817.036.131.127.183.219.183.177 0 .362-.193.18-.385-1.704-2.461-4.413-6.656-6.289-8.014a2.525 2.525 0 00-1.043-.563c-.127-.33-.09-.773-.165-1.148-.075-.743-.525-1.973-1.313-2.446zM60.124 2.681c.227 0 .384.109.47.325v.016a.733.733 0 00-.284-.072c-.17 0-.27.11-.3.332-.031.363-.127.545-.287.545h-.021c-.174-.017-.293-.096-.358-.236 0-.098.13-.271.39-.52.12-.26.249-.39.39-.39zm.389.498c.065 0 .098.04.098.12-.04.36-.18.542-.422.542a.56.56 0 01-.082-.007v-.032l.13-.26c.01-.24.076-.36.196-.36l.032.003a.224.224 0 01.048-.006zm-2.297.284c-.234 0-.41.04-.568.12-.172.087-.214.36-.138.64h.097a.787.787 0 01.154-.462c.092-.114.333-.179.963-.251a3.246 3.246 0 00-.508-.047zm-.074.249h-.064c-.217.006-.314.16-.292.463v.146l.03.003c.057 0 .09-.028.1-.084.303-.076.642-.232.793-.405-.117-.098-.361-.123-.567-.123zm-.495.722c-.097.13-.148.258-.072.447.07.175.462.403 1.176.403.06 0 .123-.001.187-.005l.426-.08c-1.411-.048-1.725-.243-1.628-.644l-.09-.12zM59.36 3.12c-.228.162-.314.368-.26.617.032.119.135.21.308.276.152.076.217.265.195.568.022.66-.26 1.175-.844 1.543a.572.572 0 00-.528-.366 1.031 1.031 0 00-.066-.002c-.22 0-.382.077-.486.23-.086.126-.183.19-.29.19a.319.319 0 01-.108-.02.373.373 0 01-.086.011c-.171 0-.262-.15-.27-.45.183-.01.31-.048.38-.113.071-.065.297-.156.494-.218a.424.424 0 00-.303-.12.446.446 0 00-.182.038c-.13.06-.27.1-.422.121-.293-.054-.412-.205-.358-.454-.173-.195-.227-.357-.162-.487.39-.26.714-.504.974-.731.26-.227.55-.363.869-.406.32-.043.7-.119 1.145-.227zm1.59-.26c2.12.32 2.806 3.144 2.355 4.189-1.147.704-1.98 1.77-2.5 3.199-1.7.126-3.126.172-4.323.172-3.283 0-4.848-.347-5.63-.347-.31 0-.496.055-.617.207.02-.328.388-.707.784-.707.034 0 .07.003.104.01.548.12 1.63.19 2.73.19.823 0 1.656-.04 2.284-.128 1.466-.205 2.422-.523 2.865-.631.325-.477.455-1.029.39-1.656-.303-.304-.363-.645-.179-1.023.504-.174.902-.994.94-1.372.044-.443-.106-.625.197-.755.704-.12.904-.569.6-1.348zm-.848-.61c-.79 0-1.129.288-1.035.529-.314.13-.636.214-.966.251-.33.038-.617.166-.86.382a5.008 5.008 0 01-.812.585c-.298.173-.474.319-.528.438-.097.184-.016.4.244.65 0 .194.086.357.26.486.043 0 .086.152.13.455.043.303.21.53.503.682.346-.054.579-.157.698-.308a.453.453 0 01.446-.187c.18.027.312.176.398.446-.076.271-.005.558.211.86.022.228-.08.537-.308.926-1.877.61-2.403.785-5.253.785-.29 0-.604-.002-.945-.005-.444-.14-.823-.2-1.146-.2-1.369 0-1.73 1.06-1.765 1.499.049.233.324.306.66.306.356 0 .781-.083 1.077-.144 1.143.114 2.962.143 4.871.143 1.929 0 3.95-.03 5.456-.03 0-.995.823-2.18 2.468-3.555.265-1.93-.227-4.904-3.718-4.993l-.086-.001zM56.67 12.879c.806 0 1.815.414 2.302.902.427.426.483.992.499 1.518h-5.577c.016-.526.072-1.092.499-1.518.488-.488 1.472-.902 2.278-.902zm0-.451c-.955 0-1.983.441-2.586 1.044-.618.618-.688 1.432-.688 2.04v.238h6.55v-.237c0-.61-.047-1.423-.665-2.04-.603-.604-1.655-1.045-2.61-1.045z"/><path d="M8.22.375c-9.625 0-9.625 17.25 0 17.25M8.22.375h55.746M8.22 17.625h55.746M71.654.375v17.25M63.966.375c9.625 0 9.625 17.25 0 17.25" fill="none" stroke="#000"/></svg>