<svg xmlns="http://www.w3.org/2000/svg" width="72.38" height="18"><path d="M10.07 8.704c.336 0 .751.06 1.244.18 1.041.253 1.942.612 2.701 1.076a33.73 33.73 0 0 1 2.554 1.752c-.908.459-1.95.689-3.13.689-.265 0-.537-.012-.816-.035-1.52-.127-2.825-.574-3.915-1.34-1.09-.767-1.36-1.238-.812-1.414.548-.176.995-.404 1.34-.686.181-.148.459-.222.833-.222zm7.258 3.176l.865.19c0 .225-.204.408-.611.549-.233.016-.475.024-.727.024-.42 0-.867-.022-1.341-.066.914-.113 1.519-.345 1.814-.697zm1.33.317l.527.105c.057.17-.14.338-.59.507l-.613-.042c.437-.197.662-.387.676-.57zm.802.211l.358.084c-.084.24-.337.36-.76.36.24-.156.373-.303.402-.444zm.59.211c.338.098.563.26.676.485l-.95-.21c.183-.085.274-.177.274-.275zm-2.194 1.245c1.055.127 1.85.422 2.384.886l-2.616-.612c.028-.154.105-.246.232-.274zM5.638.401c.661 0 1.16.183 1.498.549.338.365.443 1.248.317 2.648-.127 1.4-.17 2.35-.127 2.849.042.5.172.868.39 1.108.218.239.482.474.792.706.31.233.154.44-.465.623s-.963.454-1.034.812c-.07.36.018.69.264.992.246.303.834.71 1.762 1.224.929.514 1.748.84 2.459.981.71.141 2.887.211 6.53.211 1.126.211 1.872.493 2.237.844l-2.405-.548a.943.943 0 0 0-.528.4c0 .366-.795.577-2.384.634-.24 0-.401-.33-.486-.992l-.253.211c.127.535.162 1.006.106 1.414a1.582 1.582 0 0 0-1.034-.95c-.788-.14-1.491-.27-2.11-.39-.62-.12-1.246-.376-1.879-.77-.562-.436-1.466-.908-2.711-1.414-1.245-.507-1.868-1.26-1.868-2.258 0-.999.334-1.825 1.003-2.48.668-.654 1.002-1.438 1.002-2.352 0-.45-.056-.876-.169-1.277-.102-.363-.405-.544-.91-.544a2.39 2.39 0 0 0-.166.006l-1.773.232a1.71 1.71 0 0 1 .254-.507c.14-.436.295-.689.464-.76.024.087.12.13.284.13.023 0 .048 0 .075-.003.281-.014.443-.154.485-.422-.028-.267-.19-.408-.485-.422-.254.014-.394.155-.422.422a2.29 2.29 0 0 0-.528.739c-.04.02-.08.03-.12.03a.277.277 0 0 1-.197-.093c.17-.338.415-.686.74-1.045.323-.359.787-.538 1.392-.538zm4.79 13.758l.675.17-.76 1.097.085-1.267zm1.308.233c.563 0 1.038.06 1.425.179.387.12.626.573.717 1.361.09.774-.027 1.161-.352 1.161h-2.043a1.842 1.842 0 0 0-.136-.005c-.345 0-.73.093-1.151.279.112-.985.626-1.977 1.54-2.975zM5.638 0C4.68 0 3.893.535 3.274 1.604c-.21.351-.837.703-1.878 1.055-.717.21-1.027.506-.928.886l.02.253c1.337-.126 2.456-.288 3.356-.485l1.646-.295a.89.89 0 0 1 .025 0c.49 0 .731.414.724 1.245-.007.844-.362 1.6-1.065 2.268C4.47 7.2 4.11 8.166 4.097 9.433c0 1.027.49 1.762 1.467 2.205.978.443 1.924.918 2.838 1.424.915.507 1.435.9 1.562 1.182-.07 1.491-.254 2.455-.549 2.89-.492 0-1.35-.07-2.574-.21-.38.056-.64.18-.781.37-.14.189-.113.397.084.622.094-.136.184-.204.27-.204.03 0 .06.008.089.024.113.064.394.095.844.095h2.068c.102-.02.198-.03.289-.03.236 0 .435.067.597.199a.988.988 0 0 0 .507-.169c.62.018 1.14.027 1.559.027.557 0 .934-.016 1.131-.048.345-.056.658-.105.94-.148l.717.232.024.001c.16 0 .181-.14.06-.423-.619-.337-.76-1.188-.422-2.553.12.003.234.004.345.004 1.113 0 1.842-.128 2.187-.384 1.407.253 2.554.5 3.44.739l.148-.253c-.366-.408-.64-.669-.823-.781l.928.19c.15.056.254.084.312.084.116 0 .047-.112-.206-.337-.057-.155-.464-.458-1.224-.908l1.287.253c.14-.9-.837-1.54-2.933-1.92a7.14 7.14 0 0 1-2.975-1.477c-1.168-1.027-2.934-1.78-5.297-2.258-1.252-.084-1.949-.468-2.09-1.15-.14-.682-.136-1.77.011-3.26.148-1.491-.06-2.462-.622-2.912C6.883.183 6.327 0 5.638 0z"/><path d="M15.99 2.697c-.579.046-.899.335-.96.869.076.579.396.884.96.914.564-.03.861-.335.892-.914-.046-.534-.343-.823-.892-.869zm.069-1.92c.411 0 .792.076 1.143.229a3.014 3.014 0 0 1 1.554 1.543c.152.342.228.704.228 1.085 0 .396-.076.766-.228 1.109a2.91 2.91 0 0 1-2.697 1.726 3.05 3.05 0 0 1-1.155-.218 2.75 2.75 0 0 1-.925-.605 2.97 2.97 0 0 1-.617-.903 2.698 2.698 0 0 1-.229-1.109c0-.38.076-.743.229-1.085a3.12 3.12 0 0 1 .617-.915c.259-.266.567-.476.925-.628A2.917 2.917 0 0 1 16.06.777zM16.013 0c-.503 0-.975.095-1.417.286-.442.19-.823.45-1.143.777-.32.327-.575.708-.766 1.143a3.46 3.46 0 0 0-.285 1.405c0 .503.095.972.285 1.406.19.434.446.812.766 1.132a3.627 3.627 0 0 0 2.56 1.051 3.46 3.46 0 0 0 1.406-.286c.434-.19.815-.445 1.143-.765a3.59 3.59 0 0 0 .777-1.132 3.46 3.46 0 0 0 .285-1.406 3.46 3.46 0 0 0-.285-1.405 3.704 3.704 0 0 0-1.92-1.92A3.46 3.46 0 0 0 16.013 0zm21.369 4.63c-.51.04-.793.295-.847.766.067.51.35.78.847.807.497-.027.76-.296.787-.807-.04-.47-.303-.726-.787-.766zm.06-1.694c.364 0 .7.067 1.009.201a2.659 2.659 0 0 1 1.371 1.361c.135.303.202.622.202.959 0 .35-.067.675-.202.978a2.567 2.567 0 0 1-2.38 1.523c-.362 0-.702-.065-1.018-.192a2.426 2.426 0 0 1-.817-.535 2.621 2.621 0 0 1-.544-.796 2.38 2.38 0 0 1-.202-.978c0-.337.067-.656.202-.958.134-.303.316-.572.544-.807.229-.235.501-.42.817-.555a2.574 2.574 0 0 1 1.019-.201zm-.04-.686c-.443 0-.86.084-1.25.252-.39.168-.726.397-1.009.686a3.36 3.36 0 0 0-.675 1.008 3.053 3.053 0 0 0-.252 1.24c0 .444.084.857.252 1.24.168.384.393.717.675.999a3.2 3.2 0 0 0 2.26.928c.443 0 .856-.084 1.24-.253a3.36 3.36 0 0 0 1.008-.675c.289-.282.517-.615.685-.998.169-.384.253-.797.253-1.24 0-.444-.084-.858-.253-1.24a3.268 3.268 0 0 0-1.694-1.695 3.053 3.053 0 0 0-1.24-.252zm5.342 10.273q-1.86 2.528-5.353 2.597-3.47-.069-5.33-2.597zm-11.838-.6q1.906 3.812 6.485 3.827 4.601-.015 6.507-3.827zM45.398 2.25v.705l.529-.528.177-.177zm2.998 0l-2.998 2.998v.707l3.529-3.528.177-.177zm3 0l-5.998 5.998v.707l6.529-6.528.177-.177zm3 0l-8.998 8.998v.707l9.529-9.528.177-.177zm3 0L45.398 14.248v.707L57.927 2.427l.177-.177zm3 0L47.073 15.573l-.177.177h.708L60.927 2.427l.177-.177zm1.502 1.498L50.073 15.573l-.177.177h.708L61.898 4.455v-.707zm0 3l-8.825 8.825-.177.177h.708l8.294-8.295v-.707zm0 3l-5.825 5.825-.177.177h.708l5.294-5.295v-.707zm0 3l-2.825 2.825-.177.177h.708l2.294-2.295v-.707zm1.5-10.333v3.841h.732V2.415h-.732m0 4.939v3.658h.732V7.354h-.732m0 4.573v3.658h.732v-3.658h-.732z"/><path d="M30.906.375c-9.625 0-9.625 17.25 0 17.25m0-17.25H64.13m-33.224 17.25H64.13M71.817.375v17.25M64.13.375c9.625 0 9.625 17.25 0 17.25" fill="none" stroke="#000"/></svg>