<svg xmlns="http://www.w3.org/2000/svg" width="45.037" height="18"><path d="M11.116 8.203c-.51.04-.793.296-.847.767.067.51.35.78.847.806.498-.026.76-.295.787-.806-.04-.47-.303-.726-.787-.767zm.06-1.694c.364 0 .7.068 1.01.202a2.659 2.659 0 0 1 1.371 1.361c.134.303.201.622.201.958 0 .35-.067.676-.202.978a2.567 2.567 0 0 1-2.38 1.523c-.362 0-.702-.064-1.018-.192a2.426 2.426 0 0 1-.816-.534 2.621 2.621 0 0 1-.545-.797 2.38 2.38 0 0 1-.202-.978c0-.336.068-.655.202-.958.134-.302.316-.571.545-.806.228-.236.5-.42.816-.555a2.574 2.574 0 0 1 1.019-.202zm-.04-.685c-.443 0-.86.084-1.25.252-.39.168-.726.396-1.008.685a3.36 3.36 0 0 0-.676 1.009 3.053 3.053 0 0 0-.252 1.24c0 .444.084.857.252 1.24.168.384.393.716.676.999a3.2 3.2 0 0 0 2.258.927c.444 0 .857-.084 1.24-.252a3.36 3.36 0 0 0 1.009-.675c.289-.283.518-.615.686-.999.168-.383.252-.796.252-1.24 0-.444-.084-.857-.252-1.24a3.268 3.268 0 0 0-1.694-1.694 3.053 3.053 0 0 0-1.24-.252zM23.73 2.94l.099.001h.051q1.867 0 3.561 1.606l-1.048.847q-.98-.936-2.564-.936-1.583 0-2.564.936l-1.049-.847Q21.888 2.94 23.73 2.94zm.099 2.164q1.761.023 2.899 1.851h-5.82q.892-1.828 2.92-1.85zm0-2.854q-2.765.111-4.66 2.274l1.583 1.338q-.67.892-.825 1.673h7.782q-.156-.78-.825-1.65l1.472-1.338Q26.594 2.36 23.829 2.25zm7.02 9.128q.331 0 .331.347v2.668h-1.01l.332-2.81q.015-.205.347-.205zm.016-.426q-.805 0-.853.457-.331 2.984-.71 3l-7.324.268-.757-.032q-.853-.9-1.515-.9l-.49-.031q-1.341.252-1.61.252-.19 0-.19.253 0 .347.538.347.921-.147 1.413-.147.09 0 .165.005.268 0 .442.221-.308.381-1.378.381l-.169-.002q-1.215-.032-2.147-.316-.457 0-.457.537.047.49 3.425.505l1.5-.158 8.554-.047 2.4.031v-3.85q-.017-.774-.837-.774zm4.125.136c.401.153.838.645.965 1.05.128.406.113.879.023 1.344-.09.458-.27.894-.488 1.18-.15.195-.285.307-.413.345h-.12c-.128-.03-.293-.143-.458-.346-.218-.285-.398-.72-.488-1.179-.09-.465-.105-.938.022-1.344.128-.405.606-.931.957-1.046v-.004zm-.424-8.838v.901h-.81v.578h.81l-.112 6.818c-.578.3-.939.81-1.112 1.359a3.576 3.576 0 0 0-.067 1.734 3.49 3.49 0 0 0 .646 1.457c.232.3.54.548.9.623v.022c.023.008.046.008.068.008.03 0 .06-.008.09-.008a.532.532 0 0 0 .105.008c.03 0 .053 0 .083-.008v-.022c.36-.075.668-.323.901-.623a3.49 3.49 0 0 0 .646-1.457 3.576 3.576 0 0 0-.068-1.734 2.228 2.228 0 0 0-1.111-1.337l-.113-6.84h.766l.023-.578h-.856V2.25h-.789z"/><path d="M7.95.375c-9.625 0-9.625 17.25 0 17.25m0-17.25h28.837M7.95 17.625h28.837M44.475.375v17.25M36.787.375c9.625 0 9.625 17.25 0 17.25" fill="none" stroke="#000"/></svg>