<svg xmlns="http://www.w3.org/2000/svg" width="90.529" height="18"><path d="M17.788.568q-.111.037-.111.128t.07.146q.027.022.054.022.04 0 .077-.05.063-.081.021-.163-.041-.083-.11-.083zM2.4.47q-.153 0-.296.282.084.183.264.237.028.01.054.01.131 0 .224-.229 0-.255-.194-.292Q2.425.47 2.399.47zM1.395.787q-.042.128.027.238l-.583.073q-.014-.164.556-.31zm.568.436zm.105-.003q.12 0 .195.033.027.012 0 .012-.052 0-.288-.04.05-.005.093-.005zm2.564 1.252q.035 0 .097.068 1.125 1.223 2.792 2.865Q9.19 7.048 9.397 7.724 8.035 7.468 7.07 6.318q-.966-1.15-1.681-2.236-.716-1.086-.799-1.414-.017-.196.042-.196zm.046-.868q.202 0 .384.096 4.321 4.308 4.946 5.604.584 1.405.764 2.154-.076.11-.182.11-.087 0-.193-.074l-.57-1.515q-.43-1.296-2.104-2.875-1.674-1.579-2.424-2.5-.441-.542-.676-.542-.164 0-.227.268-.108.455-.38.455-.115 0-.26-.081.126-.858.542-1.022.198-.078.38-.078zm.357 6.43q.666 1.405.541 2.83-.125 0-.236.236-.045-.403-.277-.403-.051 0-.112.02.292-1.405.084-2.683zM2.557.346q.066 0 .116.013.25.063.292.237.029.122.058.122.013 0 .025-.022.042-.073.056-.164.305.53.041 1.57t.848 1.24q1.028 3.104 2.209 4.72 1.18 1.615.986 3.038-.449-.438-.993-.438-.113 0-.23.019.042-1.296-.472-2.556t-.945-1.889q-.43-.63-1.16-1.497-.73-.867-.722-1.789.007-.921.194-1.286.188-.365.181-.584-.003-.091-.027-.091-.035 0-.112.182-.132.31-.73.328l-.07.001q-.568 0-1.235-.274l.82.073q.404.11.601.11.162 0 .183-.074.049-.164-.076-.192-.125-.027-.257-.027t-.201.055l.026.052-.29-.052Q1.492.787 1.617.623q.028-.055.097-.055-.028.183.049.274.028.034.056.034.046 0 .09-.098.07-.155-.125-.228.511-.204.773-.204zm15.412.04q.375 0 .555.365.056.055.695.2v.056l-.695.073q-.597 0-.75-.12-.153-.118-.146-.273.007-.155.188-.155.18 0 .25.082t.035.173q-.035.092-.132.147h.028q.18 0 .187-.22.007-.237-.299-.273-.389 0-.291.374.092.357.854.357l.076-.001q.431-.037.765-.128L19.26.97q1.236 1.004 1.16 2.29-.077 1.288-.966 2.136-.889.85-1.584 1.871-1.083 1.734-1.167 2.72-.083.986.376.986.458 0 1.118-.721.66-.721 1.34-.74 1.82.055 1.612 2.209-.667-.93-1.5-.93-.417 0-1.14.474-1.097.766-1.667.766l-.472-.091q-.861-.84-.583-2.482.416-1.187 1.125-4.235.486-1.734.965-2.628.48-.895 1.022-.913.291 0 .944.365.027.01.047.01.094 0 .037-.21-.526-.429-1.226-.429-.225 0-.47.045-.208 0-.506-.146-.3-.146-.3-.694.251-.237.543-.237zM4.396 3.05q1.083 1.825 1.986 3.002.903 1.178 1.702 1.588.799.411 1.48.43.083.145 1.653 4.617l-.097.055-3.738-3.14q.028-.273-1.104-1.962-1.132-1.687-1.994-4.46l.112-.128zm3.834 7.867l2.07 1.66q.07.256-.5.348-.127.02-.233.02-.37 0-.49-.248-.152-.32-.389-.831-.236-.511-.458-.95zm7.071-.785q0 .767.167 1.332.43 1.004 1.153 1.023h.038q.711 0 1.699-.657.938-.625 1.365-.625.034 0 .066.004.416.055.903.566.486.51.514.894.05.311-.043.311-.06 0-.18-.128-.399-1.05-1.024-1.05h-.01q-.633.01-1.557.648-.923.639-2.153.639t-1.368-1.04q-.14-1.04.43-1.917zm-10.294 1.06l.208.547q.195-.255.299-.3l.005-.002q.088 0-.304 1.543l-.583.238q-.153-.146.09-.904.243-.757.285-1.122zm14.763 1.14q.461 0 .727.502-.18.384-.847.603-.514 0-1.042-.566.685-.539 1.162-.539zm-1.607.758q.207.265.448.438h-1.883q.692-.095 1.435-.438zm-7.182 1.15Q9.427 17.175 6.5 17.25q-2.913-.076-4.467-3.011zm11.239.018q-1.554 2.935-4.48 3.012-2.913-.077-4.48-3.012zM2.796.008q-.084 0-.179.013-.222 0-1.264.42-.834.255-.903.657l.028.62.417-.2q.68.292 1.139.292.458 0 .347.41-.111.411.028 1.37.139.958 1.097 1.934.959.977 1.188 2.556.23 1.578-.41 3.641l.209-.164q.004-.004.007-.004.046 0-.216.816-.277.867-.757.894-.084.005-.16.005-.348 0-.486-.105-.155-.12-.462-.12l-.045.001q-.34.01-.34.302v.182H1.06Q2.66 17.982 6.507 18q3.849-.018 5.446-4.472l-4.279.037q0-.165-.264-.356-.129-.094-.296-.094-.175 0-.391.103-.13.061-.278.061-.337 0-.771-.317.097-.639.236-1.14.139-.503.528-.594.036-.008.073-.008.362 0 .816.811.264-.675.153-1.825l.139.128q1.042 2.3 1.257 2.701.163.305.634.305.15 0 .331-.031.75-.128.737-.475l.639.42.486-.237-1.07-3.048q.264 0 .487-.292-.264-1.096-.82-2.446-.39-.822-.792-1.278Q8.411 4.603 7.23 3.39T5.493 1.518q-.373-.28-.775-.28-.226 0-.461.088-.653.246-.792 1.214-.042-.037.07-.73.11-.694-.05-1.287-.138-.514-.689-.514zM18.016 0q-.252 0-.478.094-.292.11-.347.42-.111.383.097.757.208.374.653.466-.89 1.058-1.514 3.741-.584 2.556-.973 3.779-1.042 1.113-1.035 2.236.007 1.122.424 1.597.301.343.878.438h-3.434q1.597 4.454 5.446 4.472 3.848-.018 5.445-4.472h-2.674q.153-.11.313-.256.156.245.354.245.083 0 .174-.044.347-.219.139-1.004.194-2.245-.459-2.865-.653-.621-1.473-.621-.75 0-1.625.849-.543.526-.743.526-.124 0-.118-.198.014-.52.611-1.761.403-.876 1.75-2.254 1.348-1.378 1.334-2.775-.014-1.396-.597-2.099-.584-.703-1.292-.794-.111-.2-.292-.328Q18.4.02 18.1.003 18.059 0 18.017 0zm9.989.72c.67.051 1.245.203 1.726.456-.633.746-1.208 1.764-1.726 3.054-.531-1.29-1.113-2.308-1.745-3.054.493-.24 1.074-.392 1.745-.455zm0 4.894c.392 3.655.6 6.616.626 7.704-.026 1.846-.234 3.072-.626 3.68-.405-.608-.614-1.834-.626-3.68.012-1.1.221-4.062.626-7.704zm0-5.614c-1.29 0-2.232.392-2.827 1.176.898.746 1.619 1.903 2.163 3.47 0 .709-.143 2.634-.427 4.594-.285 1.96-.35 4.134-.2 6.524.327 1.49.717 2.236 1.172 2.236a.45.45 0 0 0 .119-.017c.04.011.08.017.118.017.455 0 .845-.745 1.171-2.236.14-2.39.067-4.564-.218-6.524-.284-1.96-.427-3.885-.427-4.593.557-1.568 1.284-2.725 2.182-3.471C30.224.392 29.28 0 28.005 0zm15.368.92l.133.002h.068q2.49 0 4.748 2.14l-1.397 1.13q-1.309-1.249-3.42-1.249-2.11 0-3.419 1.25l-1.397-1.13Q40.919.92 43.373.92zm.133 2.886q2.348.03 3.865 2.467h-7.76q1.189-2.438 3.895-2.467zm0-3.806q-3.687.149-6.214 3.033l2.11 1.784q-.891 1.189-1.1 2.23H48.68q-.208-1.041-1.1-2.2l1.962-1.785Q47.192.15 43.506 0zm9.36 12.17q.442 0 .442.464v3.556H51.96l.442-3.746q.02-.273.463-.273zm.02-.568q-1.073 0-1.136.61-.442 3.978-.947 4l-9.765.357-1.01-.042q-1.136-1.2-2.02-1.2l-.653-.042q-1.788.337-2.146.337-.253 0-.253.337 0 .463.716.463 1.228-.196 1.885-.196.119 0 .22.006.357 0 .589.295-.41.508-1.837.508-.11 0-.226-.003-1.62-.042-2.862-.421-.61 0-.61.716.063.652 4.566.673l2-.21 11.406-.064 3.199.043v-5.135q-.021-1.032-1.115-1.032zM58.625.634q-.372 0-.372.438 0 .371.372.371.393-.022.393-.415 0-.394-.393-.394zM57.182.92v.393l-.852.153q.393-.415.852-.546zm.044.524q.503.394.175.59-.503-.175-.743-.459l.568-.13zm1.53-1.005q1.027 0 1.64.787.611.786.655 2.426 1.596.328 2.12 1.442.085.722-.325.722h-.024q-.437-.022-.689-.24-.091-.08-.138-.08-.081 0-.026.243.088.383.962.93.874.546.142.906-.182.09-.387.09-.622 0-1.46-.822-1.115-1.093-1.18-1.661-.066-.568.459-1.05.312-.285.214-.285-.067 0-.324.133-.633.328-.666.961-.033.634.503 1.388.535.754 2.109 1.913.16.084.364.084.432 0 1.057-.38.918-.556-.918-1.715.677-.175.699-.59.852.284 4.787 5.29 1.05.699 1.071 1.027-.022.306-.328.371-.065.014-.133.014-.248 0-.523-.188-1.224.59-2.371.612h-.12q-1.067 0-1.771-.372.721.634.503 1.333-.106.34-.16.34-.059 0-.059-.383 0-.744-1.901-1.421v.83q-.112.47-.178.47-.063 0-.085-.426-.13-.94-.623-2.022-.492-1.082-1.563-2.994-1.07-1.913-1.366-2.754-.295-.842-.273-1.563.022-.722-.295-1.06-.317-.34-.186-.733.131-.393-.393-.743V.897q.568-.46 1.18-.46zm4.153 12.59q1.071.306 1.071.721l-.721 2.689q-.088.48-.59.48h-.875v-.043l1.115-3.41v-.437zM58.835 0h-.079q-.852 0-1.727.7-.502.175-1.027.809.721.655 1.311.808.066.306.416.853.022 1.443.393 2.393.372.951 2.492 5.104 1.05 2.186 1.05 2.689 0 .765-.963 3.431 0 .153-1.311.24-1.967.066-1.967.547 0 .284.262.284H63.5q.547-.437.612-.743.525.219.569.59.073.295.209.295.025 0 .053-.01.175-.066.175-.285-.153-.59-.765-1.136l.7-2.951q2.12-.066 3.693-.678.292.066.535.066.485 0 .777-.262.437-.394-.175-1.224-1.333-1.334-2.536-2.93-2.47-3.038-3.388-3.518-.306-.634-.732-1.006-.426-.371-1.54-.918-.023-1.29-.602-2.23Q60.518 0 58.835 0zm22.662.924c.297 0 .476.05.568.103.27.172.14.583.098.84h-1.33c-.032-.263-.178-.664.097-.84.093-.053.271-.103.567-.103zm-7.389 1.552V3.4h-1.262v-.924zm6.556 0V3.4h-6.252v-.924zm1.52 0V3.4h-1.216v-.924zm6.104 0V3.4h-5.8v-.924zm1.632 0V3.4h-1.328v-.924zM78.827 0l-.43.431 1.44 1.436h-7.6v2.142h18.292V1.867h-7.37L84.6.43 84.168 0l-1.332 1.327c-.08-.804-.63-.989-1.34-1.012-.757.02-1.222.192-1.34 1.012L78.828 0zm-6.556 10.67V18h1.225v-7.33zm8.424.01V18h1.225v-7.32zm8.575 0V18h1.225v-7.32z"/></svg>