<svg xmlns="http://www.w3.org/2000/svg" width="44.983" height="18"><path d="M12.004 2.25c-.09 0-.096.283-.225.701-.146.476-.253 1.472-.591 1.665a.298.298 0 0 1-.153.039c-.1 0-.202-.038-.313-.038a.409.409 0 0 0-.127.02c-.158.05-.241.297-.408.326-.691.12-1.637.075-2.166.123-.34.03.567.698 1.474.698h.038c.188-.005.387-.013.584-.013.331 0 .658.024.928.135.264.109.576.425.572.735l-.11 9.109h1.019l-.052-10.289c-.001-.276.796-.464.9-.702.182-.415.089-2.247-.204-2.493a.016.016 0 0 0-.01-.004c-.133 0-.38 1.92-.767 2.333-.04.043-.117.062-.185.062-.072 0-.133-.022-.121-.062.246-.838.345-2.061-.041-2.329a.077.077 0 0 0-.042-.016zm4.271 0c-.697 0-1.309.513-1.309 1.171V15.75h.852V3.421c0-.322.284-.427.463-.427.187 0 .475.131.475.527v8.103h.852V3.521c0-.66-.653-1.271-1.333-1.271zm3.583 1.647q-.09 0-.216.11-.496.668-.534 1.909.153.973.687 2.748-.19 1.431-.286 3.931-.077.84.458 1.088 1.584.42 4.008.42 2.443 0 4.008-.42.553-.248.477-1.088-.096-2.5-.287-3.931.535-1.775.687-2.748-.038-1.241-.534-1.909-.126-.11-.216-.11-.129 0-.185.225.134.381.248.744.153.458.115.859-.038.649-.124 1.059-.086.41-.353.41l-.028.001q-.45 0-.45-1.203 0-.44.115-1.069-.098-.167-.212-.167-.106 0-.227.148-.057.458-.076 1.012-.076.84.4 2.366-.171 2.157-.171 4.313-1.298.21-3.187.267-1.87-.057-3.168-.267 0-2.156-.172-4.313.477-1.527.4-2.366-.019-.554-.076-1.012-.12-.148-.227-.148-.113 0-.212.167.115.63.115 1.069 0 1.203-.45 1.203h-.027q-.268 0-.353-.411-.086-.41-.124-1.06-.039-.4.114-.858.115-.363.248-.744-.056-.225-.185-.225zm13.669 4.306c-.511.04-.794.296-.847.767.067.51.35.78.847.806.497-.026.76-.295.786-.806-.04-.47-.302-.726-.786-.767zm.06-1.694c.363 0 .7.068 1.009.202a2.659 2.659 0 0 1 1.371 1.361c.134.303.202.622.202.958 0 .35-.068.676-.202.978a2.567 2.567 0 0 1-2.38 1.523c-.363 0-.702-.064-1.018-.192a2.426 2.426 0 0 1-.817-.534 2.621 2.621 0 0 1-.545-.797 2.38 2.38 0 0 1-.201-.978c0-.336.067-.655.201-.958.135-.302.316-.571.545-.806.229-.236.5-.42.817-.555a2.574 2.574 0 0 1 1.018-.202zm-.04-.685c-.444 0-.86.084-1.25.252-.39.168-.727.396-1.009.685a3.36 3.36 0 0 0-.675 1.009 3.053 3.053 0 0 0-.253 1.24c0 .444.084.857.253 1.24.168.384.393.716.675.999a3.2 3.2 0 0 0 2.259.927c.444 0 .857-.084 1.24-.252a3.36 3.36 0 0 0 1.008-.675c.29-.283.518-.615.686-.999.168-.383.252-.796.252-1.24 0-.444-.084-.857-.252-1.24a3.268 3.268 0 0 0-1.694-1.694 3.053 3.053 0 0 0-1.24-.252z"/><path d="M7.95.375c-9.625 0-9.625 17.25 0 17.25m0-17.25h28.783M7.95 17.625h28.783M44.42.375v17.25M36.733.375c9.625 0 9.625 17.25 0 17.25" fill="none" stroke="#000"/></svg>