<svg xmlns="http://www.w3.org/2000/svg" width="57.108" height="18"><path d="M11.116 8.203c-.51.04-.793.296-.847.767.067.51.35.78.847.806.498-.026.76-.295.787-.806-.04-.47-.303-.726-.787-.767zm.06-1.694c.364 0 .7.068 1.01.202a2.659 2.659 0 0 1 1.371 1.361c.134.303.201.622.201.958 0 .35-.067.676-.202.978a2.567 2.567 0 0 1-2.38 1.523c-.362 0-.702-.064-1.018-.192a2.426 2.426 0 0 1-.816-.534 2.621 2.621 0 0 1-.545-.797 2.38 2.38 0 0 1-.202-.978c0-.336.068-.655.202-.958.134-.302.316-.571.545-.806.228-.236.5-.42.816-.555a2.574 2.574 0 0 1 1.019-.202zm-.04-.685c-.443 0-.86.084-1.25.252-.39.168-.726.396-1.008.685a3.36 3.36 0 0 0-.676 1.009 3.053 3.053 0 0 0-.252 1.24c0 .444.084.857.252 1.24.168.384.393.716.676.999a3.2 3.2 0 0 0 2.258.927c.444 0 .857-.084 1.24-.252a3.36 3.36 0 0 0 1.009-.675c.289-.283.518-.615.686-.999.168-.383.252-.796.252-1.24 0-.444-.084-.857-.252-1.24a3.268 3.268 0 0 0-1.694-1.694 3.053 3.053 0 0 0-1.24-.252zM29.14 4.777l1.182.048V8.25q-.256 0-1.316-.755l.134-2.717zM17.858 3.254l-.963 5.178-.634-.22q.007-.009 1.597-4.958zm.101-1.004q-.088 0-.199.138l-1.937 6.044 1.328.5.975-5.191.828 2.449-.901.037.024.182q.195.402.792.402-.317.585.67 1.84h.305l.329.89.438-.195-.256-.695 10.126.013q.134-.037.231-.183.073 0 .146-4.155h-2.132l-.17 3.01q-.268-.007-.577-.007-1.934 0-5.516.262-1.316-.024-1.316-.146-.755-1.12-1.645-1.182L18.138 2.45q-.073-.199-.179-.199zm5.476 10.964c.243 0 .39.042.466.085.222.141.116.48.08.69h-1.093c-.026-.216-.146-.545.08-.69.076-.043.223-.085.467-.085zM17.36 14.49v.76h-1.038v-.76zm5.388 0v.76H17.61v-.76zm1.25 0v.76h-1v-.76zm5.018 0v.76h-4.768v-.76zm1.341 0v.76h-1.092v-.76zm-9.118-2.035l-.354.354 1.183 1.18h-6.246v1.761h15.035v-1.76H24.8l1.183-1.18-.354-.355-1.094 1.09c-.065-.66-.519-.812-1.101-.831-.623.016-1.005.157-1.102.832l-1.093-1.091zM47.844 3.04c.15 0 .225.544.225.695 0 .15-.075.695-.225.695H33.41c-.176 0-.263-.545-.263-.695 0-.15.087-.696.263-.696zM32.96 2.25c-.401 0-.602.808-.602 1.485 0 .676.2 1.484.602 1.484h15.335c.376 0 .563-.808.563-1.484 0-.677-.187-1.485-.563-1.485zm14.884 5.667c.15 0 .225.545.225.695 0 .15-.075.696-.225.696H33.41c-.176 0-.263-.545-.263-.696 0-.15.087-.695.263-.695zm-14.884-.79c-.401 0-.602.809-.602 1.485 0 .677.2 1.485.602 1.485h15.335c.376 0 .563-.808.563-1.485 0-.676-.187-1.484-.563-1.484zm5.945 5.432q-.165 0-.377.036-2.727.206-5.537.682l.6 1.88q2.54-.64 5.144-1.612.847-.29.744-.66-.078-.326-.574-.326zm-.079-.554q.923 0 1.107.755.207.806-.847 1.219-2.748 1.012-5.454 1.715-.16.056-.268.056-.17 0-.207-.139l-.785-2.396q-.083-.33.31-.434 3.078-.496 5.908-.765.124-.01.236-.01zm8.971.554q-.165 0-.377.036-2.727.206-5.536.682l.599 1.88q2.54-.64 5.144-1.612.847-.29.744-.66-.078-.326-.574-.326zm-.079-.554q.923 0 1.107.755.207.806-.847 1.219-2.747 1.012-5.454 1.715-.16.056-.268.056-.17 0-.207-.139l-.785-2.396q-.083-.33.31-.434 3.078-.496 5.908-.765.124-.01.236-.01z"/><path d="M7.95.375c-9.625 0-9.625 17.25 0 17.25m0-17.25h40.908M7.95 17.625h40.908M56.546.375v17.25M48.858.375c9.625 0 9.625 17.25 0 17.25" fill="none" stroke="#000"/></svg>