<svg xmlns="http://www.w3.org/2000/svg" width="47.768" height="18"><path d="M11.28 4.1q-.152 0-.318.07.116.073.116.29.084.092.182.092.072 0 .151-.049.064-.117.276-.117.077 0 .173.016-.263-.303-.58-.303zm8.488 4.473q-.507.376-.609.81h-9.022q-.102-.434-.608-.81zm-.754 1.347l.652 3.968h-3.62V11.31H13.25v2.578H9.63l.652-3.968zm-7.696-5.996q.17 0 .354.116.782.072 1.361.405 0 .348 3.375.348 3.49.087 3.823.304.782.26 1.057.536.855.796 1.29 2.592l.187 1.535q.247 1.231.399 1.955.152.725.586 2.187-.738-.68-1.984-5.17-.188-.912-.695-1.52-.84-.696-1.477-.768l-.065-.001q-.467 0-.413.204-.102.231-.29.231-.796-.275-.796-.912.014-.333.347-.377.096.012.182.012.447 0 .63-.316-.479-.101-.855-.101-.637.087-.797.81 0 .435-1.636.508-1.231 0-1.52.333-.87-.13-.87-.623.087-.623.652-.652l.492-.188v-.174q-.106-.106-.266-.106-.19 0-.458.15-.767.087-.883 1.014-1.215-.848-1.61-.848h-.02q-.024.002-.049.002-.363 0-.783-.298l-.16.217-.188-.304-.16.202-.187-.347-.145.318-.275-.478-.16.406-.231-.507-.203.42-.246-.521-.189.29q-.3-.738.128-.738.17 0 .452.115.47-.093 1.016-.093.398 0 .837.05.21-.218.443-.218zm.166-.391q-.333 0-.609.217-.564-.036-1.017-.036-.453 0-.793.036-.229-.058-.413-.058-.503 0-.673.435-.058.188 0 .55l.275.203-.217.13q0 .263.251.263l.053-.002q1.477.405 3.056.55 1.854.985 1.854 1.217 0 .217-.58.318-.824-.223-1.306-.223-.144 0-.258.02-.565.03-.29.754l.058-.174q.02-.123.136-.123.063 0 .154.036l.087.26q.094-.246.21-.246.116 0 .253.247.039-.242.255-.242.107 0 .26.06.186.075.647.075.663 0 1.894-.154h.006q.099 0 .211-.507 0-.232 2.448-.304.16 0 .666.217 0 .217-.565.319-.835-.223-1.32-.223-.145 0-.258.02-.565.029-.29.753l.058-.174q.019-.122.136-.122.062 0 .154.035l.087.261q.094-.246.21-.246.115 0 .253.246.039-.241.254-.241.108 0 .26.06.187.074.648.074.663 0 1.894-.154h.005q.1 0 .212-.506.956.217 1.405 1.404.55 2.042 1.318 4.099.767 1.738 1.317 1.738.305-.044.334-.333-.203-.667-.42-1.608-.652-2.925-.71-3.707-.174-1.116-.449-1.84-.55-1.506-1.868-2.158-1.057-.405-1.84-.405-5.054-.13-5.054-.174-1.448-.637-2.39-.637zM8.602 8.008q-.261.217.072.565.724.376.927.81-.492 0-.492.29 0 .261.593.261l-.753 4.533h4.953v-2.505h1.492v2.505h4.895l-.666-4.547q.55 0 .565-.247 0-.29-.493-.29.188-.434.912-.81.348-.348.13-.565zm24.014-5.234q.949.562.949 1.686h-1.89q0-1.124.94-1.686zm.949 2.21q-.213.751-.95.751-.736 0-.926-.751zm5.452 1.313v.896H26.222v-.896zM32.616 2.25q-1.45.547-1.45 2.346 0 .684.296 1.14h-5.748v1.981h13.804V5.735h-5.725q.296-.455.296-1.139 0-1.8-1.473-2.346zm-3.628 10.629c.806 0 1.814.414 2.302.902.427.426.482.992.498 1.518h-5.576c.016-.526.071-1.092.498-1.518.488-.488 1.473-.902 2.278-.902zm0-.451c-.955 0-1.984.441-2.586 1.044-.618.618-.688 1.432-.688 2.04v.238h6.549v-.237c0-.61-.047-1.423-.665-2.04-.602-.604-1.654-1.045-2.61-1.045zm9.846-2.191v4.845h-3.25v-4.845zm-3.918-.683v6.196h4.602V9.554z"/><path d="M7.95.375c-9.625 0-9.625 17.25 0 17.25m0-17.25h31.568M7.95 17.625h31.568M47.205.375v17.25M39.518.375c9.625 0 9.625 17.25 0 17.25" fill="none" stroke="#000"/></svg>