<svg xmlns="http://www.w3.org/2000/svg" width="53.271" height="18"><path d="M11.116 8.203c-.51.04-.793.296-.847.767.067.51.35.78.847.806.498-.026.76-.295.787-.806-.04-.47-.303-.726-.787-.767zm.06-1.694c.364 0 .7.068 1.01.202a2.659 2.659 0 0 1 1.371 1.361c.134.303.201.622.201.958 0 .35-.067.676-.202.978a2.567 2.567 0 0 1-2.38 1.523c-.362 0-.702-.064-1.018-.192a2.426 2.426 0 0 1-.816-.534 2.621 2.621 0 0 1-.545-.797 2.38 2.38 0 0 1-.202-.978c0-.336.068-.655.202-.958.134-.302.316-.571.545-.806.228-.236.5-.42.816-.555a2.574 2.574 0 0 1 1.019-.202zm-.04-.685c-.443 0-.86.084-1.25.252-.39.168-.726.396-1.008.685a3.36 3.36 0 0 0-.676 1.009 3.053 3.053 0 0 0-.252 1.24c0 .444.084.857.252 1.24.168.384.393.716.676.999a3.2 3.2 0 0 0 2.258.927c.444 0 .857-.084 1.24-.252a3.36 3.36 0 0 0 1.009-.675c.289-.283.518-.615.686-.999.168-.383.252-.796.252-1.24 0-.444-.084-.857-.252-1.24a3.268 3.268 0 0 0-1.694-1.694 3.053 3.053 0 0 0-1.24-.252zm5.996-3.574c-.698 0-1.31.513-1.31 1.171V15.75h.853V3.421c0-.322.284-.427.462-.427.187 0 .475.131.475.527v8.103h.852V3.521c0-.66-.653-1.271-1.332-1.271zm9.735.524q.949.562.949 1.686h-1.891q0-1.124.942-1.686zm.949 2.21q-.213.751-.95.751-.736 0-.926-.751zm5.452 1.313v.896H20.473v-.896zM26.867 2.25q-1.45.547-1.45 2.346 0 .684.295 1.14h-5.748v1.981H33.77V5.735h-5.726q.297-.455.297-1.139 0-1.8-1.473-2.346zm-3.628 10.629c.805 0 1.814.414 2.302.902.426.426.482.992.498 1.518h-5.576c.015-.526.071-1.092.498-1.518.488-.488 1.472-.902 2.278-.902zm0-.451c-.956 0-1.984.441-2.587 1.044-.618.618-.688 1.432-.688 2.04v.238h6.55v-.237c0-.61-.047-1.423-.665-2.04-.603-.604-1.654-1.045-2.61-1.045zm9.846-2.191v4.845h-3.25v-4.845zm-3.918-.683v6.196h4.602V9.554zm6.852-5.657q-.09 0-.216.11-.496.668-.534 1.909.152.973.687 2.748-.191 1.431-.287 3.931-.076.84.459 1.088 1.584.42 4.007.42 2.443 0 4.008-.42.554-.248.477-1.088-.095-2.5-.286-3.931.534-1.775.687-2.748-.038-1.241-.534-1.909-.126-.11-.216-.11-.129 0-.185.225.134.381.248.744.153.458.115.859-.039.649-.124 1.059-.086.41-.354.41l-.028.001q-.449 0-.449-1.203 0-.44.115-1.069-.098-.167-.212-.167-.107 0-.227.148-.057.458-.076 1.012-.077.84.4 2.366-.171 2.157-.171 4.313-1.298.21-3.188.267-1.87-.057-3.168-.267 0-2.156-.172-4.313.478-1.527.401-2.366-.019-.554-.076-1.012-.12-.148-.227-.148-.114 0-.212.167.114.63.114 1.069 0 1.203-.449 1.203h-.028q-.267 0-.353-.411-.086-.41-.124-1.06-.038-.4.115-.858.114-.363.248-.744-.056-.225-.185-.225z"/><path d="M7.95.375c-9.625 0-9.625 17.25 0 17.25m0-17.25h37.071M7.95 17.625h37.071M52.709.375v17.25M45.021.375c9.625 0 9.625 17.25 0 17.25" fill="none" stroke="#000"/></svg>