<svg xmlns="http://www.w3.org/2000/svg" width="92.263" height="18"><path d="M17.788.568q-.111.037-.111.128t.07.146q.027.022.054.022.04 0 .077-.05.063-.081.021-.163-.041-.083-.11-.083zM2.4.47q-.153 0-.296.282.084.183.264.237.028.01.054.01.131 0 .224-.229 0-.255-.194-.292Q2.425.47 2.399.47zM1.395.787q-.042.128.027.238l-.583.073q-.014-.164.556-.31zm.568.436zm.105-.003q.12 0 .195.033.027.012 0 .012-.052 0-.288-.04.05-.005.093-.005zm2.564 1.252q.035 0 .097.068 1.125 1.223 2.792 2.865Q9.19 7.048 9.397 7.724 8.035 7.468 7.07 6.318q-.966-1.15-1.681-2.236-.716-1.086-.799-1.414-.017-.196.042-.196zm.046-.868q.202 0 .384.096 4.321 4.308 4.946 5.604.584 1.405.764 2.154-.076.11-.182.11-.087 0-.193-.074l-.57-1.515q-.43-1.296-2.104-2.875-1.674-1.579-2.424-2.5-.441-.542-.676-.542-.164 0-.227.268-.108.455-.38.455-.115 0-.26-.081.126-.858.542-1.022.198-.078.38-.078zm.357 6.43q.666 1.405.541 2.83-.125 0-.236.236-.045-.403-.277-.403-.051 0-.112.02.292-1.405.084-2.683zM2.557.346q.066 0 .116.013.25.063.292.237.029.122.058.122.013 0 .025-.022.042-.073.056-.164.305.53.041 1.57t.848 1.24q1.028 3.104 2.209 4.72 1.18 1.615.986 3.038-.449-.438-.993-.438-.113 0-.23.019.042-1.296-.472-2.556t-.945-1.889q-.43-.63-1.16-1.497-.73-.867-.722-1.789.007-.921.194-1.286.188-.365.181-.584-.003-.091-.027-.091-.035 0-.112.182-.132.31-.73.328l-.07.001q-.568 0-1.235-.274l.82.073q.404.11.601.11.162 0 .183-.074.049-.164-.076-.192-.125-.027-.257-.027t-.201.055l.026.052-.29-.052Q1.492.787 1.617.623q.028-.055.097-.055-.028.183.049.274.028.034.056.034.046 0 .09-.098.07-.155-.125-.228.511-.204.773-.204zm15.412.04q.375 0 .555.365.056.055.695.2v.056l-.695.073q-.597 0-.75-.12-.153-.118-.146-.273.007-.155.188-.155.18 0 .25.082t.035.173q-.035.092-.132.147h.028q.18 0 .187-.22.007-.237-.299-.273-.389 0-.291.374.092.357.854.357l.076-.001q.431-.037.765-.128L19.26.97q1.236 1.004 1.16 2.29-.077 1.288-.966 2.136-.889.85-1.584 1.871-1.083 1.734-1.167 2.72-.083.986.376.986.458 0 1.118-.721.66-.721 1.34-.74 1.82.055 1.612 2.209-.667-.93-1.5-.93-.417 0-1.14.474-1.097.766-1.667.766l-.472-.091q-.861-.84-.583-2.482.416-1.187 1.125-4.235.486-1.734.965-2.628.48-.895 1.022-.913.291 0 .944.365.027.01.047.01.094 0 .037-.21-.526-.429-1.226-.429-.225 0-.47.045-.208 0-.506-.146-.3-.146-.3-.694.251-.237.543-.237zM4.396 3.05q1.083 1.825 1.986 3.002.903 1.178 1.702 1.588.799.411 1.48.43.083.145 1.653 4.617l-.097.055-3.738-3.14q.028-.273-1.104-1.962-1.132-1.687-1.994-4.46l.112-.128zm3.834 7.867l2.07 1.66q.07.256-.5.348-.127.02-.233.02-.37 0-.49-.248-.152-.32-.389-.831-.236-.511-.458-.95zm7.071-.785q0 .767.167 1.332.43 1.004 1.153 1.023h.038q.711 0 1.699-.657.938-.625 1.365-.625.034 0 .066.004.416.055.903.566.486.51.514.894.05.311-.043.311-.06 0-.18-.128-.399-1.05-1.024-1.05h-.01q-.633.01-1.557.648-.923.639-2.153.639t-1.368-1.04q-.14-1.04.43-1.917zm-10.294 1.06l.208.547q.195-.255.299-.3l.005-.002q.088 0-.304 1.543l-.583.238q-.153-.146.09-.904.243-.757.285-1.122zm14.763 1.14q.461 0 .727.502-.18.384-.847.603-.514 0-1.042-.566.685-.539 1.162-.539zm-1.607.758q.207.265.448.438h-1.883q.692-.095 1.435-.438zm-7.182 1.15Q9.427 17.175 6.5 17.25q-2.913-.076-4.467-3.011zm11.239.018q-1.554 2.935-4.48 3.012-2.913-.077-4.48-3.012zM2.796.008q-.084 0-.179.013-.222 0-1.264.42-.834.255-.903.657l.028.62.417-.2q.68.292 1.139.292.458 0 .347.41-.111.411.028 1.37.139.958 1.097 1.934.959.977 1.188 2.556.23 1.578-.41 3.641l.209-.164q.004-.004.007-.004.046 0-.216.816-.277.867-.757.894-.084.005-.16.005-.348 0-.486-.105-.155-.12-.462-.12l-.045.001q-.34.01-.34.302v.182H1.06Q2.66 17.982 6.507 18q3.849-.018 5.446-4.472l-4.279.037q0-.165-.264-.356-.129-.094-.296-.094-.175 0-.391.103-.13.061-.278.061-.337 0-.771-.317.097-.639.236-1.14.139-.503.528-.594.036-.008.073-.008.362 0 .816.811.264-.675.153-1.825l.139.128q1.042 2.3 1.257 2.701.163.305.634.305.15 0 .331-.031.75-.128.737-.475l.639.42.486-.237-1.07-3.048q.264 0 .487-.292-.264-1.096-.82-2.446-.39-.822-.792-1.278Q8.411 4.603 7.23 3.39T5.493 1.518q-.373-.28-.775-.28-.226 0-.461.088-.653.246-.792 1.214-.042-.037.07-.73.11-.694-.05-1.287-.138-.514-.689-.514zM18.016 0q-.252 0-.478.094-.292.11-.347.42-.111.383.097.757.208.374.653.466-.89 1.058-1.514 3.741-.584 2.556-.973 3.779-1.042 1.113-1.035 2.236.007 1.122.424 1.597.301.343.878.438h-3.434q1.597 4.454 5.446 4.472 3.848-.018 5.445-4.472h-2.674q.153-.11.313-.256.156.245.354.245.083 0 .174-.044.347-.219.139-1.004.194-2.245-.459-2.865-.653-.621-1.473-.621-.75 0-1.625.849-.543.526-.743.526-.124 0-.118-.198.014-.52.611-1.761.403-.876 1.75-2.254 1.348-1.378 1.334-2.775-.014-1.396-.597-2.099-.584-.703-1.292-.794-.111-.2-.292-.328Q18.4.02 18.1.003 18.059 0 18.017 0zm8.89 2.536q.606 1.984.799 3.077.193 1.094.845 1.957.653.864 1.746 1.24 1.093.377 1.993 1.222.882-.845 1.976-1.221 1.093-.377 1.745-1.24.653-.864.846-1.958.192-1.093.799-3.077-.368 1.819-.579 3.261-.211 1.443-1.02 2.389-.808.946-1.92 1.369-1.112.422-1.13 1.102h-1.452q-.018-.68-1.13-1.102-1.111-.423-1.92-1.37-.808-.945-1.02-2.388-.21-1.442-.578-3.261zM25.178 0q1.544 2.076 1.673 3.95.128 1.875.395 2.986.266 1.112 1.166 1.957.9.845 1.774 1.13.872.285.964 1.204h2.26q.092-.919.965-1.204.873-.285 1.773-1.13.9-.845 1.167-1.957.266-1.111.395-2.985.129-1.875 1.672-3.951h-.11q-.919 1.029-1.571 1.782-.653.754-1.121 3.133-.469 2.38-1.948 3.087-1.479.708-2.343 1.185-.882-.477-2.36-1.185-1.48-.707-1.948-3.087-.469-2.38-1.121-3.133Q26.207 1.03 25.289 0zm3.449 13.148v4.264h-2.86v-4.264zm-3.449-.601V18h4.05v-5.453zm11.878 2.544l-1.704-1.718-.616.55 1.737 1.747-1.747 1.737.579.583 1.747-1.737L38.79 18l.582-.579-1.703-1.819 1.714-1.665-.579-.582-1.747 1.736zm14.429-9.805v.445h-7.658l.247-.445zM43.58 4.57l-1.012 1.877H52.2V4.57zM54.03.716q0 1.038.271 1.915.272.877 4.2 1.642-.791 2.15-4.101 3.792-3.31 1.643-10.548 1.989l-.131.002q-.48 0-.24-.175 4.2-.519 8.202-1.643 4.001-1.124 4.001-3.199 0-1.136-2.816-1.951V.716zM52.2 0l.025 3.78q2.643.592 2.581 1.247-.061.654-.74 1.272-.68.618-3.138 1.433-2.458.815-5.422 1.284-2.964.47-3.013.667.197.766.642.766.664.016 1.304.016 4.287 0 7.49-.72 3.68-.828 5.656-2.804 1.977-1.976 1.63-3.063 0-.148-1.852-.543-1.853-.395-2.186-.902-.333-.506-.408-2.433zm7.159 12.77q.396 0 .396.415v3.191h-1.208l.396-3.361q.02-.246.416-.246zm.019-.51q-.963 0-1.02.547-.397 3.569-.85 3.588l-8.762.32-.906-.037q-1.02-1.076-1.813-1.076l-.585-.038q-1.605.302-1.926.302-.227 0-.227.302 0 .416.642.416 1.103-.176 1.691-.176.107 0 .198.006.32 0 .528.264-.368.456-1.648.456-.098 0-.202-.003-1.454-.037-2.568-.377-.548 0-.548.642.057.585 4.098.604l1.794-.189 10.234-.056 2.87.037v-4.607q-.018-.925-1-.925zM71.524.601c1.074 0 2.419.552 3.07 1.202.568.57.643 1.324.664 2.025h-7.435c.02-.7.095-1.455.664-2.025.65-.65 1.963-1.202 3.037-1.202zm0-.601c-1.274 0-2.645.589-3.448 1.392-.824.824-.918 1.91-.918 2.72v.317h8.732v-.316c0-.812-.061-1.897-.885-2.72C74.2.588 72.799 0 71.525 0zm.115 14.915c.296 0 .475.05.568.103.269.172.14.583.097.84h-1.33c-.032-.263-.177-.663.098-.84.092-.052.27-.103.567-.103zm-7.39 1.552v.924h-1.261v-.924zm6.556 0v.924h-6.252v-.924zm1.52 0v.924H71.11v-.924zm6.105 0v.924h-5.8v-.924zm1.632 0v.924h-1.329v-.924zM68.968 13.99l-.43.431 1.44 1.436h-7.6V18H80.67v-2.142H73.3l1.44-1.436-.43-.43-1.331 1.326c-.08-.804-.631-.989-1.34-1.012-.757.02-1.222.192-1.34 1.012l-1.33-1.327zM84.965 1.168a.78.78 0 0 1 .652.314c.254.39.362.755.325 1.097a1.989 1.989 0 0 1-.388.968c.19.417.437.845.741 1.282.437.629 1.153 1.504 2.148 2.626 1.092 1.188 1.863 2.083 2.314 2.684-.893 1.037-1.512 1.99-1.855 2.861-2.438-3.796-3.976-6.238-4.615-7.325-.638-1.087-.935-1.933-.89-2.538.046-.606.242-1.083.59-1.433.348-.35.664-.528.95-.536h.028zm.078-.772c-.249 0-.507.08-.775.24-.748.444-1.23 1-1.45 1.667-.218.668-.197 1.452.063 2.353.45 1.015.99 1.82 1.523 2.66L91.152 18l1.111-.772-2.327-3.35c.203-1.288.854-2.447 1.952-3.476-.715-.934-1.642-2.029-2.78-3.284-1.197-1.315-1.943-2.186-2.24-2.612-.295-.427-.475-.71-.538-.848.559-.872.542-1.704-.051-2.498-.38-.51-.792-.764-1.236-.764z"/></svg>