<svg xmlns="http://www.w3.org/2000/svg" width="57.824" height="18"><path d="M9.259 2.25c-.697 0-1.309.513-1.309 1.171V15.75h.852V3.421c0-.322.284-.427.462-.427.187 0 .476.131.476.527v8.103h.852V3.521c0-.66-.653-1.271-1.333-1.271zm9.045.439c-.022 3.239-.048 6.477-.068 9.716.047.525.075 1.051.136 1.574.036.28.218.54.178.827-.06.193-.186.496-.4.496a.3.3 0 0 1-.157-.049c-.347-.134-.678-.355-1.06-.355a.707.707 0 0 0-.065.003h-.057c-.727 0-1.443.16-2.165.23-.394.057-.787.147-1.188.147h-.05c.722-.164 1.435-.44 2.004-.926.775-.602 1.552-1.2 2.325-1.805.105-.129-.05-6.71-.102-9.835l.67-.023zm.394-.439c-.383.013-.952.007-1.333.03-.204.06-.169.288-.166.452l.158 9.566c-.845.646-1.683 1.302-2.533 1.942a4.332 4.332 0 0 1-1.581.604c-.249-.002-.5-.13-.747-.13a.573.573 0 0 0-.237.048c-.19.146-.256.547 0 .67.383.206.811.284 1.242.284.272 0 .545-.031.809-.081.613-.105 1.233-.166 1.849-.253.203-.017.413-.045.62-.045.224 0 .444.032.647.143.243.107.512.27.783.27.09 0 .181-.018.271-.063.284-.177.448-.507.517-.826.058-.416-.224-.784-.219-1.198-.032-.453-.083-.904-.104-1.357.023-3.273.15-10.056.024-10.056zm14.815 5.897c.23.327.286.73.306 1.119-.009.184.005.383-.071.555-.216-.214-.196-.71-.201-.987 0-.273-.01-.497-.034-.687zM21.23 7.839l11.21.012c-1.638 1.552-3.28 2.31-5.755 2.31-2.485 0-3.988-.74-5.455-2.322zm-.503-.451a.225.225 0 0 0-.17.372c1.628 1.9 3.356 2.852 6.128 2.852 2.699 0 4.542-.914 6.32-2.681.06.169.091.435.091.903.011.52.007 1.383.69 1.444.48-.1.48-.612.483-1.012 0-.491-.12-.937-.32-1.275-.201-.339-.498-.59-.858-.59l-12.363-.013zm21.944-4.614q.95.562.95 1.686H41.73q0-1.124.941-1.686zm.95 2.21q-.213.751-.95.751-.736 0-.926-.751zm5.451 1.313v.896H36.278v-.896zm-6.4-4.047q-1.45.547-1.45 2.346 0 .684.295 1.14H35.77v1.981h13.805V5.735h-5.726q.296-.455.296-1.139 0-1.8-1.473-2.346zm-3.628 10.629c.805 0 1.814.414 2.301.902.427.426.483.992.499 1.518h-5.576c.015-.526.071-1.092.498-1.518.488-.488 1.472-.902 2.278-.902zm0-.451c-.956 0-1.984.441-2.587 1.044-.618.618-.688 1.432-.688 2.04v.238h6.55v-.237c0-.61-.047-1.423-.665-2.04-.603-.604-1.655-1.045-2.61-1.045zm9.846-2.191v4.845h-3.25v-4.845zm-3.918-.683v6.196h4.602V9.554z"/><path d="M7.95.375c-9.625 0-9.625 17.25 0 17.25m0-17.25h41.624M7.95 17.625h41.624M57.261.375v17.25M49.574.375c9.625 0 9.625 17.25 0 17.25" fill="none" stroke="#000"/></svg>