<svg xmlns="http://www.w3.org/2000/svg" width="72.108" height="18"><path d="M3.46.474c.693 0 1.247.2 1.634.479.006.053.02.107.009.16-.05.248-.195.477-.396.63-.316.207-.697.267-1.057.356-.09.01-.019.031.031.04.23.04.707.099.971.099l.052-.001c.278-.032.54-.148.766-.311.079-.067.147-.15.205-.236.147.346.227.713.26.917.018.11.096.2.202.233 1.139.349 2.038 1.91 2.88 2.949 1.729 2.137 3.199 4.526 4.892 6.76-.937-.456-1.87-.916-2.81-1.374-1.92-1.01-3.92-1.816-5.604-3.09l-.008-.008c-.97-.808-1.963-1.66-2.339-2.793C3 4.364 4.905 2.707 4.69 2.638a.207.207 0 0 0-.064-.01c-.458 0-1.753 1.128-2.019 2.202-.003-.014-.01-.03-.014-.045-.073-.356-.154-1.256.068-1.98a.29.29 0 0 0 .01-.103 1.968 1.968 0 0 0-.123-.634c-.063-.17-.139-.344-.26-.765-.031-.108-.142-.328-.208-.345.186-.138.375-.28.645-.375a.434.434 0 0 0-.132.314c0 .23.164.415.365.415.2 0 .364-.186.364-.415V.894a.411.411 0 0 0-.255-.39c.053-.007.096-.019.154-.022.081-.006.16-.008.238-.008zm.67 7.763c.065.065.135.124.202.187.214.78.412 1.64.692 2.305.483 1.145 1.216 2.141 1.84 3.154a1.814 1.814 0 0 0-.385.27 6.831 6.831 0 0 0-.199.193 2.61 2.61 0 0 0-1.186-.897c.045-.723-.108-1.712-.34-2.787a34.903 34.903 0 0 0-.624-2.425zm1.006.908c1.149.945 2.428 1.738 3.676 2.54-.018.91-.018 1.778.084 2.675a3.411 3.411 0 0 0-1.437-.736c-.02 0-.037.012-.057.012-.649-1.063-1.383-2.06-1.837-3.134-.156-.37-.293-.85-.429-1.357zm.407 5.254a2.5 2.5 0 0 1 .44.541.3.3 0 0 0 .257.14.29.29 0 0 0 .17-.053c.215-.156.347-.324.476-.446.047-.045.097-.08.148-.117l.149 2.722c-.213-.014-.435-.035-.637-.035-.264 0-.495.036-.633.172-.169-.134-.497-.164-.89-.164-.102 0-.207.002-.316.004l.836-2.764zM6.7 9.574c1.354.787 2.784 1.414 4.135 2.125a.244.244 0 0 0 .006.003c1.295.631 2.586 1.28 3.894 1.904.984 1.189 2.052 2.295 3.078 3.42l-2.15.362-4.267-4.635a.288.288 0 0 0-.037-.036C9.861 11.58 8.208 10.635 6.7 9.574zM3.526 0c-.135 0-.273.005-.411.013C2.03.083 1.242.54.973 1.157c-.04.093-.146.314-.007.314a2.35 2.35 0 0 1 .341-.028c.418 0 .38.172.47.194.09.282.29.846.303 1.068-.244.86-.153 1.763-.064 2.198.15.732.63 1.584 1.261 2.38a.285.285 0 0 0 0 .166 35.3 35.3 0 0 1 .903 3.336c.251 1.168.393 2.277.317 2.823a.294.294 0 0 0 .221.328c.045.011.084.031.127.045l-.928 3.079a2.847 2.847 0 0 0-.593-.055c-.381 0-.756.05-1.064.05-.125 0-.24-.008-.34-.032a.546.546 0 0 0-.125-.012c-.436 0-1.428.306-1.34.879.15-.128.257-.159.375-.159.11 0 .23.027.405.027h.027c.254-.004.697-.083 1.053-.083.18 0 .338.02.438.08.236-.01.45-.013.649-.013.85 0 1.447.07 2.5.075a89.565 89.565 0 0 0 2.974-.079c.45.003.697.054.922.054h.04c.134-.004.265-.057.48-.057.123 0 .273.017.468.07-.25-.341-.877-.685-1.33-.685a.591.591 0 0 0-.302.071 5.081 5.081 0 0 0-.508-.022c-.22 0-.448.01-.678.02l-.157-2.83c.487.203.857.517 1.281 1.021a.295.295 0 0 0 .513-.246c-.192-1.039-.213-2.019-.202-3.06.54.354 1.072.713 1.576 1.094l4.36 4.738a.29.29 0 0 0 .263.09c.95-.159 1.9-.315 2.849-.474a.294.294 0 0 0 .23-.193.298.298 0 0 0-.06-.297c-.741-.83-1.508-1.631-2.25-2.445 1.269.78 2.875 1.755 3.08 1.755.022 0 .027-.013.012-.04-.094-.163-.9-.755-1.775-1.373.14.058.276.12.415.177l.017.01c.103.035.16.059.27.062a.286.286 0 0 0 .108-.016.317.317 0 0 0 .188-.152.32.32 0 0 0 .023-.238c-.017-.05-.038-.077-.054-.098-.061-.085-.103-.109-.162-.154a4.553 4.553 0 0 0-.205-.149c-.153-.105-.336-.223-.493-.328a4.992 4.992 0 0 1-.328-.233.307.307 0 0 0-.028-.025l-3.892-2.736c-.008-.006-.02-.001-.028-.006-1.333-1.869-2.588-3.825-4.046-5.627-.744-.92-1.598-2.528-2.985-3.064-.067-.396-.218-1.127-.755-1.649C5.277.26 4.618.056 3.877.011A5.728 5.728 0 0 0 3.526 0zm13.74 2.229c-.478 0-.799.277-.793.718.007.478.328.755.793.755.466 0 .744-.278.737-.755-.006-.442-.283-.718-.737-.718zm.055-1.594c.315 0 .63.066.946.196.606.25 1.015.685 1.285 1.275.274.601.255 1.21 0 1.813-.255.6-.69.995-1.285 1.247a2.343 2.343 0 0 1-.923.189 2.74 2.74 0 0 1-.975-.19c-.603-.229-1.003-.672-1.274-1.246a2.13 2.13 0 0 1-.19-.916c0-.634.277-1.196.7-1.652.208-.226.467-.398.764-.52.32-.13.636-.196.951-.196zM17.246 0c-.833 0-1.488.289-2.076.878-.602.603-.857 1.26-.869 2.106-.006.49.093.921.292 1.313.158.773.167 2.065-.043 2.065-.366 0-.156-.97-.174-1.274-.03-.515-.335-.954-.696-1.302-.084-.08-.175-.17-.296-.183a3.318 3.318 0 0 0-.349-.023c-.136 0-.27.015-.396.06-.089.033-.092.16-.063.242.03.085.088.175.186.187.025.003.05.004.074.004.12 0 .24-.03.36-.03h.015c.05 0 .107.004.143.04-.081.152-.193.3-.21.478a.465.465 0 0 0 .016.208c.236.652.38 2.15 1.357 2.15.185 0 .274-.04.333-.094.434-.403.44-1.086.414-1.652.574.54 1.221.765 2.021.776h.047c.819 0 1.472-.303 2.06-.868.159-.154.294-.311.406-.476.027.56.054 1.124.26 1.65.161.415.522.717.91.922.03.016.051.023.066.023.048 0 .019-.074-.036-.127a2.354 2.354 0 0 1-.574-.87c-.208-.57-.187-1.184-.174-1.78.008-.364.024-.73.003-1.093h-.003c.012-.112.018-.227.02-.346.01-.853-.287-1.503-.879-2.106-.6-.61-1.255-.869-2.106-.878h-.039zm15.419 2.65a2.48 2.48 0 0 1 1.94.93h-3.879a2.48 2.48 0 0 1 1.94-.93zm2.202 1.33c.15.285.246.603.275.94h-4.953a2.47 2.47 0 0 1 .275-.94zm.277 1.34a2.473 2.473 0 0 1-.26.94h-4.437a2.473 2.473 0 0 1-.26-.94zm-.514 1.34a2.48 2.48 0 0 1-1.965.962c-.8 0-1.51-.377-1.964-.962zm-1.965-4.41a2.89 2.89 0 0 0-2.886 2.886 2.89 2.89 0 0 0 2.886 2.886 2.89 2.89 0 0 0 2.886-2.886 2.89 2.89 0 0 0-2.886-2.886zm5.099 9.312l1.039.043v3.01q-.225 0-1.157-.665l.118-2.388zm-9.919-1.34L27 14.776l-.557-.193q.006-.008 1.403-4.36zm.09-.881q-.078 0-.175.121l-1.704 5.313 1.168.44.857-4.564.728 2.153-.792.033.021.16q.171.354.696.354-.278.514.59 1.617h.267l.29.782.385-.171-.225-.61 8.901.01q.118-.032.204-.16.064 0 .128-3.653H37.4l-.15 2.645q-.235-.006-.507-.006-1.7 0-4.849.231-1.157-.021-1.157-.128-.664-.986-1.446-1.04l-1.2-3.352q-.064-.175-.157-.175zm25.353-6.453c.121 0 .182.44.182.562 0 .121-.06.562-.182.562H41.625c-.142 0-.213-.44-.213-.562 0-.122.07-.562.213-.562zM41.26 2.25c-.324 0-.486.653-.486 1.2 0 .546.162 1.2.486 1.2h12.392c.304 0 .456-.654.456-1.2 0-.547-.152-1.2-.456-1.2zm12.028 11.738c.121 0 .182.44.182.562 0 .122-.06.562-.182.562H41.625c-.142 0-.213-.44-.213-.562 0-.121.07-.562.213-.562zm-12.028-.637c-.324 0-.486.653-.486 1.2 0 .546.162 1.199.486 1.199h12.392c.304 0 .456-.653.456-1.2 0-.546-.152-1.2-.456-1.2z"/><path d="M23.431.375v17.25m0-17.25h2.625m-2.625 17.25h2.625m0-17.25h28.052m-28.052 17.25h28.052m0-17.25h17.625m-17.625 17.25h17.625M55.87.375v17.25M59.395.375v17.25M61.158.375v17.25M62.92 2.1h8.813M62.92 5.55h8.813M62.92 2.1v3.45m1.763-1.725h7.05m-8.813 3.45h8.813m-8.813 3.45h8.813m-8.813-3.45v3.45M64.683 9h7.05m-8.813 3.45h8.813M62.92 15.9h8.813m-8.813-3.45v3.45m1.763-1.725h7.05" fill="none" stroke="#000"/></svg>