<svg xmlns="http://www.w3.org/2000/svg" width="84.862" height="18"><path d="M2.836 11.783c.534.205 1.116.861 1.286 1.402.17.54.15 1.171.03 1.792-.12.61-.36 1.191-.65 1.571-.2.26-.38.41-.551.46h-.16c-.17-.04-.39-.19-.611-.46-.29-.38-.53-.96-.65-1.571-.12-.621-.14-1.252.03-1.792.17-.541.807-1.243 1.276-1.395v-.007zM2.27 0v1.201H1.19v.771h1.08l-.15 9.09c-.77.4-1.251 1.081-1.482 1.812-.23.751-.24 1.562-.09 2.313.15.75.45 1.411.861 1.942.31.4.721.73 1.201.831v.03c.03.01.06.01.09.01.04 0 .08-.01.12-.01.05.01.1.01.14.01.04 0 .071 0 .111-.01v-.03c.48-.1.891-.43 1.201-.831.41-.53.711-1.191.861-1.942.15-.751.14-1.562-.09-2.313a2.97 2.97 0 0 0-1.481-1.782l-.15-9.12h1.02l.03-.77h-1.14V0H2.27zm10.843.911v2.43q-.536-.8-3.219-.8H7.91V.911zm.03-.911Q12.05.202 9.895.202H7.231V3.25h2.663q1.407 0 2.015.293.617.294 1.204.84L13.143 18h1.175V0zm13.841 8.203c-.51.04-.793.296-.847.767.068.51.35.78.847.806.498-.026.76-.295.787-.806-.04-.47-.303-.726-.787-.767zm.06-1.694c.364 0 .7.068 1.01.202a2.659 2.659 0 0 1 1.371 1.361c.134.303.201.622.201.958 0 .35-.067.676-.201.978a2.567 2.567 0 0 1-2.38 1.523 2.69 2.69 0 0 1-1.019-.192 2.426 2.426 0 0 1-.816-.534 2.621 2.621 0 0 1-.545-.797 2.38 2.38 0 0 1-.202-.978c0-.336.068-.655.202-.958.135-.302.316-.571.545-.806.228-.236.5-.42.816-.555a2.574 2.574 0 0 1 1.019-.202zm-.04-.685c-.443 0-.86.084-1.25.252-.39.168-.726.396-1.008.685a3.36 3.36 0 0 0-.676 1.009 3.053 3.053 0 0 0-.252 1.24c0 .444.084.857.252 1.24.168.384.393.716.676.999a3.2 3.2 0 0 0 2.258.927c.444 0 .858-.084 1.24-.252a3.36 3.36 0 0 0 1.01-.675c.288-.283.517-.615.685-.999.168-.383.252-.796.252-1.24 0-.444-.084-.857-.252-1.24a3.268 3.268 0 0 0-1.694-1.694 3.053 3.053 0 0 0-1.24-.252zm7.166-3.229q-.083.871-.083 1.953 0 1.08.105 2.184-.24-.127-.75-.127-.519 0-.752.127.113-1.103.106-2.184-.008-1.082-.083-1.953zm-.73 4.475q.51.008 1.036.27l-.135.248q-.106-.018-.199-.018-.32 0-.477.221-.09-.398-.225-.488-.135.09-.233.488-.157-.221-.477-.221-.092 0-.198.018l-.135-.247q.54-.263 1.043-.27zm0 .721q.113.09.075.263-.037.173-.075.33-.045-.157-.082-.33-.038-.173.082-.263zm.684.001q.042 0 .09.007-.511 1.216-.774 1.216-.255 0-.788-1.216.048-.007.091-.007.274 0 .352.247.097.278.203.45.112.18.142.18.038 0 .135-.18.105-.172.196-.45.084-.247.353-.247zM32.27 2.25q.36 2.553-.008 4.603-.668.315-.555.533.082.164.189.164.039 0 .081-.022.653.736 1.074 1.735.165 1.644-.045 5.684 0 .803.42.803h.023q.42 0 .42-.803-.203-4.04-.045-5.684.413-.999 1.066-1.735.043.022.082.022.106 0 .189-.164.112-.218-.548-.533-.376-2.05 0-4.603zm5.716 0c-.698 0-1.31.513-1.31 1.171V15.75h.853V3.421c0-.322.284-.427.462-.427.187 0 .475.131.475.527v8.103h.852V3.521c0-.66-.653-1.271-1.332-1.271zm4.952.54c.503.038.934.152 1.294.342-.474.56-.905 1.323-1.294 2.29-.398-.967-.835-1.73-1.309-2.29a3.78 3.78 0 0 1 1.309-.341zm0 3.67c.294 2.741.45 4.963.47 5.778-.02 1.385-.176 2.305-.47 2.76-.304-.455-.46-1.375-.47-2.76.01-.825.166-3.046.47-5.777zm0-4.21c-.967 0-1.674.294-2.12.882.674.56 1.214 1.427 1.622 2.603 0 .531-.107 1.975-.32 3.445-.213 1.47-.263 3.1-.15 4.893.245 1.118.538 1.677.879 1.677a.34.34 0 0 0 .089-.012c.03.008.06.012.089.012.34 0 .634-.559.878-1.677.105-1.792.05-3.423-.163-4.893-.214-1.47-.32-2.914-.32-3.445.417-1.176.962-2.044 1.635-2.603-.455-.588-1.161-.882-2.12-.882zm16.132.638c.122 0 .183.44.183.562 0 .121-.06.562-.182.562H47.408c-.142 0-.213-.44-.213-.562 0-.122.071-.562.213-.562zM47.044 2.25c-.324 0-.486.653-.486 1.2 0 .546.162 1.2.486 1.2h12.392c.304 0 .456-.654.456-1.2 0-.547-.152-1.2-.456-1.2zM59.07 13.988c.122 0 .183.44.183.562 0 .122-.06.562-.182.562H47.408c-.142 0-.213-.44-.213-.562 0-.121.071-.562.213-.562zm-12.027-.637c-.324 0-.486.653-.486 1.2 0 .546.162 1.199.486 1.199h12.392c.304 0 .456-.653.456-1.2 0-.546-.152-1.2-.456-1.2zM63.867 2.604q-.132 0-.287.11.116.083.085.2.06.071.13.071.053 0 .112-.04.045-.075.192-.075.059 0 .134.012-.155-.278-.366-.278zm.07-.115q.22 0 .401.182.432.042.748.242.377.258 1.972.258.228 0 .48-.005 2.21.063 2.81.2.6.137 1.959.726l1 .674 1.347.747q.495.274 1.558.748-.05.008-.114.008-.839 0-3.844-1.43-.631-.347-1.22-.347-.706-.074-1.18-.126h-.049q-.328 0-.298.137-.074.179-.21.179-.58-.211-.58-.664.021-.252.253-.273.067.008.128.008.328 0 .461-.24-.336-.063-.62-.074-.464.064-.57.59 0 .316-1.2.368-.894 0-1.104.253-.632-.095-.632-.453.063-.463.474-.473l.358-.148v-.115q-.077-.077-.194-.077-.138 0-.333.108-.558.063-.642.737-.883-.616-1.17-.616h-.039q-.268 0-.56-.32l-.136.262-.2-.42-.053.347-.19-.411-.052.39-.231-.495-.085.431-.2-.494-.115.442-.158-.506-.158.327q-.218-.527.095-.527.126 0 .336.085.398-.08.861-.08.21 0 .434.017.249-.172.462-.172zm.022-.239q-.242 0-.442.158-.41-.026-.74-.026-.328 0-.575.026-.26-.091-.434-.091-.349 0-.356.365-.042.136 0 .4l.2.147-.137.021q-.019.256.295.256.035 0 .074-.003.905.305 2.052.4 1.348.715 1.348.894 0 .158-.41.232-.608-.162-.96-.162-.106 0-.188.015-.41.02-.21.547l.041-.126q.015-.094.108-.094.043 0 .103.02l.063.2q.068-.179.153-.179.084 0 .184.179.028-.176.185-.176.078 0 .188.044.136.054.471.054.482 0 1.377-.112h.004q.072 0 .154-.368 0-.168 1.79-.221.115 0 .473.158 0 .158-.41.231-.608-.161-.96-.161-.105 0-.188.014-.41.01-.2.547l.032-.136q.014-.085.107-.085.047 0 .114.021l.052.19q.068-.171.15-.171.086 0 .187.181.035-.175.194-.175.08 0 .19.044.136.054.47.054.479 0 1.367-.112h.005q.081 0 .153-.368.283-.04.56-.04.68 0 1.324.24 1.474.705 3.021 1.284.774.228 1.192.228.333 0 .44-.144.105-.21-.053-.379-.484-.21-1.147-.568-2.032-1.085-2.526-1.453-.737-.463-1.295-.663-1.126-.432-2.18-.548-3.673-.094-3.673-.136-1.052-.453-1.737-.453zm5.042 8.557q.95.562.95 1.686H68.06q0-1.124.941-1.686zm.95 2.21q-.213.751-.95.751-.736 0-.926-.752zm5.451 1.313v.896H62.608v-.896zm-6.4-4.047q-1.45.547-1.45 2.346 0 .684.295 1.14H62.1v1.981h13.805v-1.982h-5.726q.296-.455.296-1.139 0-1.8-1.473-2.346z"/><path d="M23.818.375c-9.625 0-9.625 17.25 0 17.25m0-17.25h52.794m-52.794 17.25h52.794M84.3.375v17.25M76.612.375c9.625 0 9.625 17.25 0 17.25" fill="none" stroke="#000"/></svg>