<svg xmlns="http://www.w3.org/2000/svg" width="202.536" height="18"><path d="M2.097 0c-.335 0-.67.026-.995.066-.447.113-.217.626.18.626a.476.476 0 0 0 .082-.008c.84.097 1.872.15 2.506.626.841.916.463 2.821.561 3.725.007.05.01 3.653.01 5.48a6.145 6.145 0 0 0-2.635-.586 6.04 6.04 0 0 0-1.187.117c-.441.231.076.528.422.528.041 0 .08-.004.115-.013 1.226.133 2.62.461 3.243 1.602.061.206.023.277-.071.277-.206 0-.68-.342-.946-.342-.014 0-.028 0-.04.003a7.535 7.535 0 0 0-1.58-.169c-.39 0-.777.031-1.15.095-.42.278.097.534.439.534a.532.532 0 0 0 .105-.01c1.251.151 2.636.49 3.243 1.633.007 1.27 0 2.11.033 3.278-.014.36.22.538.456.538.235 0 .473-.176.475-.526-.009-1.15-.091-2.161.06-3.277.304-1.253 2.477-1.445 3.827-1.754.294-.347-.285-.475-.659-.475-.055 0-.107.003-.15.008a6.823 6.823 0 0 0-.521-.02c-.882 0-1.771.175-2.557.58-.032-.755.711-1.19 1.244-1.493.84-.361 1.765-.397 2.643-.59.313-.273-.18-.501-.521-.501a.58.58 0 0 0-.125.012 6.767 6.767 0 0 0-.648-.031c-.903 0-1.805.183-2.614.582.016-2.851.062-5.61-.02-8.308-.065-.834-.546-1.6-1.354-1.849C3.388.094 2.741 0 2.097 0zm23.894 2.99q.557 0 1.086.606-4.368 5.2-5.46 5.81-.814.457-1.434.457-.21 0-.399-.053-.74-.208-1.586-.234h-.042q-.828 0-1.817.988h-.13q.702-1.638 1.963-2.34 1.261-.702 7.397-5.148.213-.085.422-.085zM18.26.622q.066 0 .133.01v6.683Q16.34 8.51 15.56 10.668q1.196-8.268 1.677-9.204Q17.67.62 18.26.62zM12.904 11.09q-.08 0-.153.138-.13.247.234.689.208-.546.052-.741-.069-.086-.133-.086zm.037-.372q.153 0 .33.237.39.52-.234 2.08-.702-1.352-.429-1.976.149-.34.333-.34zm6.804 2.577v.39q-.286-.026-.442-.182.052-.078.208-.208zm.598.884l2.418.338.494.884q-.832-.234-1.833-.624-1-.39-1.079-.598zm-5.33-.364l.468.234.156 1.118-.416 1.274h-.65l.442-1.274v-1.352zm1.118.39l.442.13.156.832-.416 1.274h-.65l.442-1.274.026-.962zm1.534.156l.156.806-.416 1.274h-.65l.442-1.274v-.78l.468-.026zm-.994-3.234q.415 0 .89.1 1.404.3 1.768 1.418h1.092l.416-.676q5.512 1.274 6.214 4.602-1.508-.832-3.172-1.118l-.728-1.456-2.886-.39.078-.702h-.988q-1.092.9-2.228.9-.243 0-.489-.042-1.39-.234-1.82-.95-.429-.714.455-1.3.585-.386 1.398-.386zM18.517 0q-.948 0-1.489.658-.663.806-1.235 4.238l-.91 5.954q-.442.468-.676.52h-.312q-.026-.65-.494-1.196-.416-3.978.364-6.968l-.312-.598q-1.118 3.38-.546 7.592h-.078q-1.794-4.03-.52-7.592l-.312-.468q-1.664 3.796.364 8.242-.572 1.248-.117 2.054.455.806.56 1.508l.181.13q.702-1.04.806-1.794h.26q.026.598.338 1.248l.182 1.638-.442 1.274h-2.262v.624h6.526v-.624h-.546l.416-1.274.026-.962q.468-.156.702-.364.338.312.754.312-.026.26.104.442 1.04.806 3.718 1.404l.91 1.768q0-.434.27-.434.085 0 .198.044l-.728-1.3q1.508.338 2.288.858.416.442-.052 1.066 1.04-.442 1.17-1.248-.416-3.926-7.046-5.46l-.468.78h-.416q-.338-1.092-2.678-1.508.522-.388 1.285-.388.414 0 .9.115.491.116.96.116.844 0 1.613-.376 1.196-.585 6.084-6.461-.9-1.136-1.905-1.136-.329 0-.669.122L18.965 7.08V.034Q18.731 0 18.517 0z"/><path d="M2.646 0L.45 2.196v.708L3.177.177 3.354 0zm3 0L.45 5.196v.708L6.177.177 6.354 0zm3 0L.45 8.196v.708L9.177.177 9.354 0zm3 0L.45 11.196v.708L12.177.177 12.354 0zm3 0L.45 14.196v.708L15.177.177 15.354 0zm3 0L.45 17.196v.708L18.177.177 18.354 0zm3 0L2.823 17.823 2.646 18h.708L21.177.177 21.354 0zm3 0L5.823 17.823 5.646 18h.708L24.177.177 24.354 0zm3 0L8.823 17.823 8.646 18h.708L27.177.177 27.354 0zm1.211 1.789L11.823 17.823l-.177.177h.708L27.857 2.496V1.79zm0 3L14.823 17.823l-.177.177h.708L27.857 5.496V4.79zm0 3L17.823 17.823l-.177.177h.708l9.503-9.504V7.79zm0 3l-7.034 7.034-.177.177h.708l6.503-6.504v-.707zm0 3l-4.034 4.034-.177.177h.708l3.503-3.504v-.707zm0 3l-1.034 1.034-.177.177h.708l.503-.504v-.707z"/><path d="M37.357.375c-9.625 0-9.625 17.25 0 17.25m0 0" fill="none" stroke="#000"/><path d="M43.58 12.703c-.682.054-1.059.394-1.13 1.022.09.68.466 1.04 1.13 1.075.662-.036 1.012-.394 1.048-1.075-.054-.628-.404-.968-1.049-1.022zm.08-2.259c.484 0 .932.09 1.344.269a3.545 3.545 0 0 1 1.828 1.815c.18.403.27.83.27 1.277 0 .466-.09.901-.27 1.304a3.422 3.422 0 0 1-3.173 2.03c-.483 0-.936-.085-1.357-.255a3.235 3.235 0 0 1-1.09-.712 3.495 3.495 0 0 1-.725-1.063 3.174 3.174 0 0 1-.27-1.304c0-.448.09-.874.27-1.277a3.67 3.67 0 0 1 .726-1.076c.305-.313.668-.56 1.089-.739.421-.18.874-.269 1.358-.269zm-.054-.914c-.592 0-1.147.112-1.667.336-.52.224-.968.529-1.345.914a4.48 4.48 0 0 0-.9 1.345 4.071 4.071 0 0 0-.337 1.653c0 .592.113 1.143.337 1.654.224.511.524.955.9 1.331A4.267 4.267 0 0 0 43.606 18c.592 0 1.143-.112 1.654-.336a4.48 4.48 0 0 0 1.344-.9c.386-.377.69-.821.914-1.332a4.07 4.07 0 0 0 .336-1.654c0-.591-.112-1.142-.336-1.653a4.358 4.358 0 0 0-2.258-2.259 4.071 4.071 0 0 0-1.654-.336zM50.646 0l-.792.792v.707L51.177.177 51.354 0zm3 0l-3.792 3.792v.707L54.177.177 54.354 0zm3 0l-6.792 6.792v.707L57.177.177 57.354 0zm3 0l-9.792 9.792v.707L60.177.177 60.354 0zm3 0L49.854 12.792v.707L63.177.177 63.354 0zm3 0L49.854 15.792v.707L66.177.177 66.354 0zm3 0L50.823 17.823l-.177.177h.708L69.177.177 69.354 0zm3 0L53.823 17.823l-.177.177h.708L71.854.5V0zm.208 2.792l-15.03 15.031-.178.177h.708l14.5-14.5v-.708zm0 3l-12.03 12.031-.178.177h.708l11.5-11.5v-.708zm0 3l-9.03 9.031-.178.177h.708l8.5-8.5v-.708zm0 3l-6.03 6.031-.178.177h.708l5.5-5.5v-.708zm0 3l-3.03 3.031-.178.177h.708l2.5-2.5v-.708zm0-14.792v.5l.323-.323.177-.177zm2 .792l-2 2v.707l2-2V.792zm0 3l-2 2v.707l2-2v-.707zm0 3l-2 2v.707l2-2v-.707zm0 3l-2 2v.707l2-2v-.707zm0 3l-2 2v.707l2-2v-.707zm0 3l-2 2V18h.5l1.5-1.5v-.708zM74.646 0l-.792.792v.707L75.177.177 75.354 0zm3 0l-3.792 3.792v.707L78.177.177 78.354 0zm3 0l-6.792 6.792v.707L81.177.177 81.354 0zm3 0l-9.792 9.792v.707L84.177.177 84.354 0zm1.208 1.792l-11 11v.707l11-11v-.707zm0 3l-11 11v.707l11-11v-.707zm0 3l-10.03 10.031-.178.177h.708l9.5-9.5v-.708zm0 3l-7.03 7.031-.178.177h.708l6.5-6.5v-.708zm0 3l-4.03 4.031-.178.177h.708l3.5-3.5v-.708zm0 3l-1.03 1.031-.178.177h.708l.5-.5v-.708zM86.646 0l-1.792 1.792v.707l2-2V0zm.208 2.792l-2 2v.707l2-2v-.707zm0 3l-2 2v.707l2-2v-.707zm0 3l-2 2v.707l2-2v-.707zm0 3l-2 2v.707l2-2v-.707zm0 3l-2 2v.707l2-2v-.707zm1.001-10.4q-.12 0-.288.147-.662.89-.713 2.544.204 1.298.917 3.665-.255 1.908-.382 5.242-.102 1.12.61 1.45 2.113.56 5.344.56 3.258 0 5.344-.56.738-.33.636-1.45-.127-3.334-.381-5.242.712-2.367.916-3.665-.051-1.654-.713-2.544-.167-.147-.288-.147-.171 0-.246.3.178.508.33.992.204.61.153 1.145-.05.865-.165 1.412-.115.547-.47.547l-.038.002q-.599 0-.599-1.605 0-.585.153-1.425-.131-.223-.283-.223-.142 0-.303.198-.076.61-.101 1.348-.102 1.12.534 3.156-.229 2.875-.229 5.75-1.73.28-4.25.357-2.493-.076-4.224-.356 0-2.876-.229-5.751.636-2.036.535-3.156-.026-.738-.102-1.348-.16-.198-.303-.198-.151 0-.282.223.152.84.152 1.425 0 1.605-.599 1.605l-.037-.002q-.356 0-.47-.547-.115-.547-.166-1.412-.051-.535.153-1.145.152-.484.33-.993-.074-.3-.246-.3zm14.003 6.288V18h1.225v-7.32zM110.49.597c.269.002.505.041.692.109-.031.223-.169.569-.953.773.73-.053 1.206-.113 1.452-.307.09.2.137.427.159.556a.297.297 0 0 0 .206.237c.625.191 1.174 1.112 1.7 1.763.95 1.173 1.771 2.48 2.688 3.733-.423-.207-.845-.415-1.27-.622-1.182-.622-2.395-1.11-3.407-1.877-.588-.49-1.172-.996-1.39-1.641-.076-.497.296-1.074.767-1.279a.297.297 0 1 0-.238-.545c-.377.164-.7.458-.904.817.01-.152.032-.308.075-.448a.297.297 0 0 0 .013-.104 1.372 1.372 0 0 0-.083-.422c-.04-.109-.084-.206-.157-.459a.297.297 0 0 0-.105-.153 1.53 1.53 0 0 1 .528-.125c.042-.003.083-.003.124-.004a.258.258 0 1 0 .103-.002zm1.194 5.432c.605.466 1.253.873 1.888 1.28-.005.438.006.879.046 1.321a2.215 2.215 0 0 0-.697-.3c-.39-.636-.82-1.22-1.082-1.842a4.553 4.553 0 0 1-.155-.46zm-.25 1c.274.549.622 1.04.93 1.529-.06.04-.113.08-.155.121l-.028.027a1.713 1.713 0 0 0-.613-.454c.01-.348-.047-.768-.133-1.222zm2.881.047a25.922 25.922 0 0 1 .588.297c.78.38 1.56.772 2.35 1.148.556.67 1.156 1.293 1.734 1.92l-1.043.175-2.563-2.786a.297.297 0 0 0-.04-.036 19.147 19.147 0 0 0-1.026-.718zm-2.591 2.009c.057.066.111.14.161.222a.298.298 0 0 0 .43.087c.124-.09.2-.177.265-.244l.077 1.413c-.1-.006-.201-.013-.296-.013-.167 0-.313.022-.398.108-.1-.078-.28-.1-.504-.1-.058 0-.118.002-.18.005l.445-1.478zm-5.42.999c.452.062.687.323.705.783h-1.395c0-.46.23-.721.69-.783zm7.862-2.39c.273.182.541.367.797.56l2.403 2.613h-2.456c-.171-.19-.519-.365-.776-.365a.366.366 0 0 0-.192.046 2.987 2.987 0 0 0-.256-.01c-.14 0-.286.007-.433.016l-.083-1.506c.224.115.407.282.625.542a.297.297 0 0 0 .52-.246 9.753 9.753 0 0 1-.15-1.65zm-6.24 3.745l-.266.465h-1.249l-.252-.465zm4.515 0v2.51l-1.726-2.51zM110.497 0a3.878 3.878 0 0 0-.272.01c-.694.044-1.215.325-1.408.768a.298.298 0 0 0 .34.408l.025-.006.03.007.109.029c.054.168.095.269.12.332a.541.541 0 0 1 .042.2 3.112 3.112 0 0 0-.037 1.389c.095.466.384.977.761 1.46a.295.295 0 0 0 .014.108c.183.559.396 1.318.548 2.027.152.708.233 1.387.192 1.684a.3.3 0 0 0 .223.33l.019.005-.527 1.75a1.787 1.787 0 0 0-.26-.018c-.256 0-.509.041-.712.041a.865.865 0 0 1-.183-.016.314.314 0 0 0-.068-.007c-.212 0-.657.13-.787.366h-1.1c-.061-.797-.482-1.235-1.261-1.315-.788.08-1.196.518-1.222 1.315v.572h.531l.545 1.01h1.766l.532-1.01h1.567l2.404 3.493V18h.571v-6.561h4.516v-.41l.1.109a.297.297 0 0 0 .268.092l1.74-.292a.298.298 0 0 0 .173-.492 49.17 49.17 0 0 0-.656-.716l1.656 1.078a.296.296 0 0 0 .412-.087.297.297 0 0 0-.087-.411l-1.345-.876a.292.292 0 0 0 .076-.09.315.315 0 0 0 .02-.237c-.016-.05-.034-.074-.048-.093-.055-.076-.084-.088-.123-.119a2.938 2.938 0 0 0-.131-.094c-.096-.065-.206-.137-.301-.2a4.156 4.156 0 0 1-.216-.156l-2.379-1.672-.008-.005c-.805-1.13-1.568-2.316-2.457-3.414-.433-.535-.938-1.524-1.812-1.894-.048-.262-.157-.68-.484-.997C111.56.119 111.05 0 110.497 0z"/><path d="M130.939.375v17.25M123.251.375c9.625 0 9.625 17.25 0 17.25" fill="none" stroke="#000"/><path d="M138.908.597c.27.002.505.041.692.109-.03.223-.168.569-.952.773.73-.053 1.206-.113 1.452-.307.089.2.137.427.158.556a.297.297 0 0 0 .206.237c.625.191 1.174 1.112 1.701 1.763.95 1.173 1.77 2.48 2.687 3.733-.423-.207-.845-.415-1.27-.622-1.181-.622-2.394-1.11-3.406-1.877-.59-.49-1.172-.996-1.391-1.641-.076-.497.296-1.074.767-1.279a.297.297 0 1 0-.238-.545 1.95 1.95 0 0 0-.903.817c.01-.152.031-.308.074-.448a.297.297 0 0 0 .013-.104 1.372 1.372 0 0 0-.082-.422c-.04-.109-.085-.206-.158-.459a.297.297 0 0 0-.104-.153c.14-.062.315-.112.527-.125.043-.003.083-.003.125-.004a.258.258 0 1 0 .102-.002zm1.194 5.432c.605.466 1.253.873 1.888 1.28-.005.438.006.879.047 1.321a2.215 2.215 0 0 0-.697-.3c-.391-.636-.82-1.22-1.083-1.842a4.553 4.553 0 0 1-.155-.46zm-.249 1c.273.549.621 1.04.929 1.529-.06.04-.112.08-.155.121l-.027.027a1.713 1.713 0 0 0-.614-.454c.01-.348-.047-.768-.133-1.222zm2.88.047a25.922 25.922 0 0 1 .588.297c.78.38 1.56.772 2.35 1.148.556.67 1.156 1.293 1.734 1.92l-1.043.175-2.563-2.786a.297.297 0 0 0-.04-.036 19.147 19.147 0 0 0-1.025-.718zm-2.591 2.009c.058.066.112.14.162.222a.298.298 0 0 0 .429.087c.125-.09.2-.177.265-.244l.078 1.413c-.1-.006-.202-.013-.297-.013-.166 0-.313.022-.397.108-.1-.078-.28-.1-.505-.1-.057 0-.118.002-.18.005l.445-1.478zm-5.419.999c.452.062.686.323.704.783h-1.395c0-.46.23-.721.691-.783zm7.861-2.39c.274.182.542.367.798.56l2.402 2.613h-2.456c-.17-.19-.518-.365-.776-.365a.366.366 0 0 0-.191.046 2.987 2.987 0 0 0-.257-.01c-.139 0-.285.007-.433.016l-.083-1.506c.225.115.407.282.626.542a.297.297 0 0 0 .52-.246 9.753 9.753 0 0 1-.15-1.65zm-6.24 3.745l-.266.465h-1.248l-.253-.465zm4.516 0v2.51l-1.727-2.51zM138.916 0a3.878 3.878 0 0 0-.273.01c-.694.044-1.215.325-1.407.768a.298.298 0 0 0 .34.408l.025-.006.03.007.108.029c.054.168.096.269.12.332a.541.541 0 0 1 .042.2 3.112 3.112 0 0 0-.037 1.389c.095.466.384.977.762 1.46a.295.295 0 0 0 .013.108c.183.559.396 1.318.548 2.027.153.708.234 1.387.193 1.684a.298.298 0 0 0 .223.33l.018.005-.527 1.75a1.787 1.787 0 0 0-.259-.018c-.256 0-.51.041-.712.041a.865.865 0 0 1-.184-.016.314.314 0 0 0-.068-.007c-.212 0-.656.13-.787.366h-1.099c-.062-.797-.482-1.235-1.262-1.315-.788.08-1.195.518-1.222 1.315v.572h.531l.545 1.01h1.767l.531-1.01h1.567l2.404 3.493V18h.572v-6.561h4.516v-.41l.1.109a.297.297 0 0 0 .267.092l1.74-.292a.298.298 0 0 0 .173-.492 49.17 49.17 0 0 0-.656-.716l1.656 1.078a.296.296 0 0 0 .412-.087.297.297 0 0 0-.087-.411l-1.345-.876a.292.292 0 0 0 .076-.09.315.315 0 0 0 .02-.237c-.016-.05-.034-.074-.047-.093-.056-.076-.085-.088-.124-.119a2.938 2.938 0 0 0-.131-.094l-.3-.2a4.156 4.156 0 0 1-.217-.156l-2.379-1.672-.008-.005c-.805-1.13-1.567-2.316-2.456-3.414-.433-.535-.938-1.524-1.813-1.894-.048-.262-.156-.68-.483-.997-.353-.344-.864-.463-1.416-.463zm15.851 2.231c-.196.095-.436.356-.072.4.174-.007.574-.189.501-.356a.16.16 0 0 1-.114.048c-.103 0-.21-.092-.315-.092zm-1.432.066c-.24.058-.363.32-.058.378h.016c.176 0 .655-.213.26-.262-.065-.044-.13-.116-.218-.116zm1.912-1.825c.429.502.807 1.083.88 1.752.072.48.094.96.166 1.432-.341-.03-.24-.56-.174-.814.058-.502-.21-.967-.4-1.41-.13-.24-.254-.618-.588-.625-.371.065-.61.378-.85.647-.248-.248-.51-.516-.851-.618a.171.171 0 0 0-.06-.01c-.076 0-.165.034-.207.034-.035 0-.035-.025.042-.119.046-.163.142-.21.26-.21.173 0 .394.102.58.102a.408.408 0 0 0 .083-.008c.06.004.122.005.184.005.318 0 .637-.048.935-.158zm-.116.553c.283.072.348.465.487.697.174.407.385.85.247 1.309-.11.218.029.494.014.654-.242.17-.455.53-.777.53a.459.459 0 0 1-.11-.014c-.32-.066-.48-.37-.726-.516-.18.172-.285.53-.58.53a.45.45 0 0 1-.133-.022c-.268-.058-.625-.029-.705-.356-.138-.334-.152-.705-.174-1.068.016.003.03.005.044.005.147 0 .16-.171.174-.317.057-.213.209-.312.378-.312.114 0 .236.045.342.13.123.138.501.247.421.465-.036.13-.08.269-.123.407l.305.407c.029-.21.341-.385.16-.596-.03-.095-.138-.218-.124-.29a2.28 2.28 0 0 1 .509-.611.234.234 0 0 1 .167-.075c.194 0 .39.256.56.278.167-.181-.015-.254-.182-.349a.51.51 0 0 0-.354-.142.583.583 0 0 0-.475.259c-.138.083-.234.359-.355.359-.038 0-.079-.028-.124-.098-.222-.177-.488-.377-.779-.377a.621.621 0 0 0-.13.014c-.205.042-.39.459-.406.459v-.001c-.008-.342.152-.647.246-.981a.444.444 0 0 1 .433-.347c.126 0 .253.054.345.172.216.08.375.46.579.46a.194.194 0 0 0 .112-.038c.225-.24.407-.523.734-.625zm-1.032 5.044c.923.952 1.773 3.365 1.99 4.353-.355-.29-.842-.48-.951-.661-.116-.19-.436-2.028-1.04-3.692zm3.285-1.73c1.744 1.003 4.782 5.938 5.429 6.73-1.09-.69-2.166-1.388-3.336-1.955-1.643-.807-3.046-2.115-4.383-3.336 1.105-.37 1.897-.996 2.29-1.44zm-1.81 6.265c.232.138.443.327.698.428-.153.378-.247.8-.56 1.098-.059.094-.142.124-.238.124-.165 0-.366-.09-.534-.09l-.035.002c.204-.509.509-.734.669-1.562zm.494-6.803c.044.091.1.121.16.121.078 0 .162-.052.233-.085.174.124.777.11.421.371-.225.305-1.43 1.138-2.266 1.284-.36.064.246.635.442.838 1.134 1.018 2.246 2.093 3.605 2.827.85.48 1.744.909 2.565 1.44.393.566.858 1.09 1.156 1.715-.298.087-.589.21-.894.283a2.1 2.1 0 0 1-.51.06c-.48 0-.963-.143-1.176-.372-.393-.415-.822-2.18-1.047-2.828-.032-.072-.077-.097-.127-.097-.098 0-.212.096-.268.096a.03.03 0 0 1-.026-.013.284.284 0 0 0-.281-.274c-.128 0-.246.093-.228.288-.044.458-.13.916-.349 1.33-.027.071-.082.098-.156.098-.206 0-.553-.213-.789-.272.095-.56-.668-3.423-2.907-5.822-.078-.084-.42-.444-.39-.444.004 0 .012.005.027.016.114.03.243.05.371.05.245 0 .486-.075.61-.305.019-.056.043-.079.07-.079.1 0 .25.29.41.29a.668.668 0 0 0 .373.112c.21 0 .42-.095.564-.257.138-.124.269-.247.407-.371zM155.312 0a2.7 2.7 0 0 1-.987.203 1.67 1.67 0 0 1-.154-.007.584.584 0 0 1-.103.009c-.245 0-.508-.131-.745-.131a.453.453 0 0 0-.256.071c-.4.582-.764 1.229-.807 1.948-.08 1.381-.044 1.86 1.046 2.994.43.974 1.229 4.15 1.468 5.015.262.247-.327 1.6-.574 1.933-.134.186-.488.195-.87.195h-.124c-.342 0-.689.007-.903.14-.203.13-.276.617-.16.683.11-.167.328-.393.48-.414-.145.152.364.08.473.116.294.005.59.03.89.03.143 0 .288-.006.432-.023.066-.028.136-.073.166-.073.024 0 .024.027-.02.11.205.053.437.08.663.08.508 0 .99-.136 1.095-.408.219-.4.422-.82.567-1.257.186.04.42.17.606.17a.275.275 0 0 0 .15-.039c.204-.138.414-.785.53-1.214.012-.044.072-.066.134-.066.058 0 .118.02.136.059.218.436.581 1.773.93 2.333.263.415.901.619 1.58.619.427 0 .87-.081 1.247-.241.472-.204.821-.16.72-.422-.16-.436-.436-.85-.727-1.22.421.261.843.53 1.264.792.035.126.123.176.212.176.172 0 .35-.186.174-.373-1.65-2.384-4.274-6.446-6.09-7.762a2.446 2.446 0 0 0-1.011-.545c-.124-.32-.087-.748-.16-1.112-.073-.72-.509-1.911-1.272-2.369zm2.691 15.2q2.23 0 4.731 1.078-2.5 1.048-4.731 1.048-2.216 0-4.731-1.048 2.515-1.078 4.73-1.078zm0-.689q-2.755 0-6.333 1.752Q155.248 18 158.003 18q2.755 0 6.333-1.737-3.563-1.752-6.333-1.752zM177.567.376c.07 0 .145.03.274.09.27.123.191.314.074.432-.066.066-.129.111-.23.111a.844.844 0 0 1-.335-.098l-.902 1.448c-.065-.327-.125-.39-.517-.428l1.251-1.383c.203-.116.29-.172.385-.172zm-3.257 2.056c.187 0 .367.039.54.106l-.252.267-.492-.357c.069-.01.137-.016.204-.016zm.95.371c.235.13.352.48.326.95l-.6-.644.274-.306zm-2.252.656c-.14 0-.24.065-.303.196a.355.355 0 0 0 .346.216c.147 0 .332-.059.556-.177-.246-.157-.446-.235-.599-.235zm.579-.901a5.865 5.865 0 0 1 1.881 1.548 1.278 1.278 0 0 1-.48.607.379.379 0 0 1-.201.077c-.105 0-.178-.085-.22-.253.26-.324.445-.304.408-.69-.025-.274-.186-.394-.487-.408a.574.574 0 0 0-.352.138c.065-.473-.242-.562-.921-.667a.754.754 0 0 1 .372-.352zm-5.84-.392v3.762l-.353-.411c-.366-.431-.548-.98-.548-1.646 0-.667.3-1.235.901-1.705zm5.095 1.078c.17.026.73.055.921.195.04.274.094.507.28.507a.303.303 0 0 0 .093-.017c.112-.036.241-.058.372-.176.052 0 .105.033.157.098 0 .144-.17.36-.51.647v.02c.04.47.242.953.608 1.45a1.21 1.21 0 0 1-.62.185c-.141 0-.28-.029-.419-.088.144-.26.15-.512.02-.754-.068-.126-.183-.189-.343-.189-.147 0-.334.053-.559.16a.514.514 0 0 1-.148.026c-.084 0-.14-.035-.165-.105.039-.17.013-.294-.079-.372.3-.04.451-.079.451-.118 0-.091-.157-.143-.47-.156.143-.183.065-.308-.235-.373.078-.274.294-.588.646-.94zm3.213 3.222c.212.085.409.187.59.305-.419.431-.674 1.237-.936 2.321a10.64 10.64 0 0 0-.73-.695l1.076-1.931zm.55 1.285l.98 1.9-1.47-.313c.157-.901.32-1.43.49-1.587zm-9.29-.569c.119.144.262.268.432.373v2.9c-.6-.47-.901-1.012-.901-1.626 0-.614.156-1.163.47-1.647zm7.977-.94c.065.013.128.027.19.042l-.983 1.755c-.13-.078-.234-.118-.307-.118a.15.15 0 0 0-.047.006.752.752 0 0 0-.44.333 1.26 1.26 0 0 0-.157.569c-.017.155.078.288.283.4l-.303.54.5.332.376-.673c.505.131.921.271 1.144.358-.104.653-.13 1.103-.248 1.495l-1.927.578c.026-.911-.183-4.128-1.414-4.842.457-.38.838-.56 1.334-.638.252.143.522.215.81.215.367 0 .763-.117 1.189-.352zm-6.506 5.703c1.385.209 2.613.437 3.684.685-.902.55-1.816 1.261-2.744 2.137-.039-1.53-.352-2.47-.94-2.822zm6.506-.02c.405.68.124 1.496-.843 2.45-.705.352-1.502.689-2.39 1.009-.889.32-1.523.774-1.902 1.362l-.803-.882c1.293-1.437 2.548-2.502 3.763-3.194a8.758 8.758 0 0 1 2.175-.745zM177.565 0c-.206 0-.417.104-.666.324l-1.823 1.94a3.99 3.99 0 0 0-.963-.14c-.42 0-.732.109-.938.326-.34.36-.614.663-.823.911-.444.614-.614.937-.51.97.105.033.184.062.236.088.104.026.15.105.137.235-.052.157-.013.327.118.51l-.255.803c.04.144.13.216.274.216.079 0 .268-.209.569-.627.052-.118.209-.176.47-.176.13.078.137.267.02.568-.628.052-1.222.313-1.784.784l-1.391 2.018v.04c-.065 0-.732-.595-1.999-1.784V1.127c-1.267.692-1.9 1.587-1.9 2.685 0 .897.182 1.568.546 2.013-.228.162-.247.49-.057.985l.02.079c-.34.444-.51 1.084-.51 1.92 0 1.097.634 1.973 1.901 2.626v-3.43l1.352 1.647c.159.187.326.28.503.28.229 0 .473-.158.732-.476.535-.64.914-1.202 1.136-1.686.578.052 1.146 3.158.98 4.449-1.215-.196-2.43-.412-3.645-.647a3.764 3.764 0 0 0-.712-.08c-.34 0-.58.076-.718.227-.222.242-.262.604-.118 1.088l1.097 3.057c-.287.327-.359.692-.215 1.097l-1.509.647V18H170l5.213-2.822-.137 2.352-.764.098V18h1.49l.058-.627.392-2.39c.04-.537-.026-.87-.196-1a.344.344 0 0 0-.215-.073c-.122 0-.264.055-.426.164.61-.458.733-1.338.367-2.638.004-.266.082-.75.235-1.451l1.842.647c.056.006.11.01.159.01.453 0 .61-.272.468-.814-.692-1.947-1.189-3.05-1.49-3.312a17.025 17.025 0 0 0-.77-.357l1.515-2.72-.509-.274-1.556 2.774a6.37 6.37 0 0 0-.521-.167c-.327-.249-.294-.503.098-.765.392-.261.633-.597.725-1.009.091-.412.068-.748-.069-1.01-.137-.26-.251-.424-.343-.49l.196-.215c.21 0 .418.288.627.863l1.098-1.843a.67.67 0 0 0 .267.062c.186 0 .348-.1.487-.297.203-.287.23-.582-.186-.882-.17-.122-.328-.186-.49-.186zm5.081 0l-2.11 2.11v.707l2.64-2.64.178-.177zm3 0l-5.11 5.11v.707l5.64-5.64.178-.177zm3 0l-8.11 8.11v.707l8.64-8.64.178-.177zm3 0l-11.11 11.11v.707l11.64-11.64.178-.177zm3 0l-14.11 14.11v.707l14.64-14.64.178-.177zm3 0l-17.11 17.11v.707l17.64-17.64.178-.177zm3 0l-17.823 17.823-.177.177h.708L201.177.177l.177-.177zm1.89 1.11l-16.713 16.713-.177.177h.708l16.182-16.183V1.11zm0 3l-13.713 13.713-.177.177h.708l13.182-13.183V4.11zm0 3l-10.713 10.713-.177.177h.708l10.182-10.183V7.11zm0 3l-7.713 7.713-.177.177h.708l7.182-7.183v-.707zm0 3l-4.713 4.713-.177.177h.708l4.182-4.183v-.707zm0 3l-1.713 1.713-.177.177h.708l1.182-1.183v-.707z"/></svg>