<svg xmlns="http://www.w3.org/2000/svg" width="90.868" height="18"><path d="M17.788.568q-.111.037-.111.128t.07.146q.027.022.054.022.04 0 .077-.05.063-.081.021-.163-.041-.083-.11-.083zM2.4.47q-.153 0-.296.282.084.183.264.237.028.01.054.01.131 0 .224-.229 0-.255-.194-.292Q2.425.47 2.399.47zM1.395.787q-.042.128.027.238l-.583.073q-.014-.164.556-.31zm.568.436zm.105-.003q.12 0 .195.033.027.012 0 .012-.052 0-.288-.04.05-.005.093-.005zm2.564 1.252q.035 0 .097.068 1.125 1.223 2.792 2.865Q9.19 7.048 9.397 7.724 8.035 7.468 7.07 6.318q-.966-1.15-1.681-2.236-.716-1.086-.799-1.414-.017-.196.042-.196zm.046-.868q.202 0 .384.096 4.321 4.308 4.946 5.604.584 1.405.764 2.154-.076.11-.182.11-.087 0-.193-.074l-.57-1.515q-.43-1.296-2.104-2.875-1.674-1.579-2.424-2.5-.441-.542-.676-.542-.164 0-.227.268-.108.455-.38.455-.115 0-.26-.081.126-.858.542-1.022.198-.078.38-.078zm.357 6.43q.666 1.405.541 2.83-.125 0-.236.236-.045-.403-.277-.403-.051 0-.112.02.292-1.405.084-2.683zM2.557.346q.066 0 .116.013.25.063.292.237.029.122.058.122.013 0 .025-.022.042-.073.056-.164.305.53.041 1.57t.848 1.24q1.028 3.104 2.209 4.72 1.18 1.615.986 3.038-.449-.438-.993-.438-.113 0-.23.019.042-1.296-.472-2.556t-.945-1.889q-.43-.63-1.16-1.497-.73-.867-.722-1.789.007-.921.194-1.286.188-.365.181-.584-.003-.091-.027-.091-.035 0-.112.182-.132.31-.73.328l-.07.001q-.568 0-1.235-.274l.82.073q.404.11.601.11.162 0 .183-.074.049-.164-.076-.192-.125-.027-.257-.027t-.201.055l.026.052-.29-.052Q1.492.787 1.617.623q.028-.055.097-.055-.028.183.049.274.028.034.056.034.046 0 .09-.098.07-.155-.125-.228.511-.204.773-.204zm15.412.04q.375 0 .555.365.056.055.695.2v.056l-.695.073q-.597 0-.75-.12-.153-.118-.146-.273.007-.155.188-.155.18 0 .25.082t.035.173q-.035.092-.132.147h.028q.18 0 .187-.22.007-.237-.299-.273-.389 0-.291.374.092.357.854.357l.076-.001q.431-.037.765-.128L19.26.97q1.236 1.004 1.16 2.29-.077 1.288-.966 2.136-.889.85-1.584 1.871-1.083 1.734-1.167 2.72-.083.986.376.986.458 0 1.118-.721.66-.721 1.34-.74 1.82.055 1.612 2.209-.667-.93-1.5-.93-.417 0-1.14.474-1.097.766-1.667.766l-.472-.091q-.861-.84-.583-2.482.416-1.187 1.125-4.235.486-1.734.965-2.628.48-.895 1.022-.913.291 0 .944.365.027.01.047.01.094 0 .037-.21-.526-.429-1.226-.429-.225 0-.47.045-.208 0-.506-.146-.3-.146-.3-.694.251-.237.543-.237zM4.396 3.05q1.083 1.825 1.986 3.002.903 1.178 1.702 1.588.799.411 1.48.43.083.145 1.653 4.617l-.097.055-3.738-3.14q.028-.273-1.104-1.962-1.132-1.687-1.994-4.46l.112-.128zm3.834 7.867l2.07 1.66q.07.256-.5.348-.127.02-.233.02-.37 0-.49-.248-.152-.32-.389-.831-.236-.511-.458-.95zm7.071-.785q0 .767.167 1.332.43 1.004 1.153 1.023h.038q.711 0 1.699-.657.938-.625 1.365-.625.034 0 .066.004.416.055.903.566.486.51.514.894.05.311-.043.311-.06 0-.18-.128-.399-1.05-1.024-1.05h-.01q-.633.01-1.557.648-.923.639-2.153.639t-1.368-1.04q-.14-1.04.43-1.917zm-10.294 1.06l.208.547q.195-.255.299-.3l.005-.002q.088 0-.304 1.543l-.583.238q-.153-.146.09-.904.243-.757.285-1.122zm14.763 1.14q.461 0 .727.502-.18.384-.847.603-.514 0-1.042-.566.685-.539 1.162-.539zm-1.607.758q.207.265.448.438h-1.883q.692-.095 1.435-.438zm-7.182 1.15Q9.427 17.175 6.5 17.25q-2.913-.076-4.467-3.011zm11.239.018q-1.554 2.935-4.48 3.012-2.913-.077-4.48-3.012zM2.796.008q-.084 0-.179.013-.222 0-1.264.42-.834.255-.903.657l.028.62.417-.2q.68.292 1.139.292.458 0 .347.41-.111.411.028 1.37.139.958 1.097 1.934.959.977 1.188 2.556.23 1.578-.41 3.641l.209-.164q.004-.004.007-.004.046 0-.216.816-.277.867-.757.894-.084.005-.16.005-.348 0-.486-.105-.155-.12-.462-.12l-.045.001q-.34.01-.34.302v.182H1.06Q2.66 17.982 6.507 18q3.849-.018 5.446-4.472l-4.279.037q0-.165-.264-.356-.129-.094-.296-.094-.175 0-.391.103-.13.061-.278.061-.337 0-.771-.317.097-.639.236-1.14.139-.503.528-.594.036-.008.073-.008.362 0 .816.811.264-.675.153-1.825l.139.128q1.042 2.3 1.257 2.701.163.305.634.305.15 0 .331-.031.75-.128.737-.475l.639.42.486-.237-1.07-3.048q.264 0 .487-.292-.264-1.096-.82-2.446-.39-.822-.792-1.278Q8.411 4.603 7.23 3.39T5.493 1.518q-.373-.28-.775-.28-.226 0-.461.088-.653.246-.792 1.214-.042-.037.07-.73.11-.694-.05-1.287-.138-.514-.689-.514zM18.016 0q-.252 0-.478.094-.292.11-.347.42-.111.383.097.757.208.374.653.466-.89 1.058-1.514 3.741-.584 2.556-.973 3.779-1.042 1.113-1.035 2.236.007 1.122.424 1.597.301.343.878.438h-3.434q1.597 4.454 5.446 4.472 3.848-.018 5.445-4.472h-2.674q.153-.11.313-.256.156.245.354.245.083 0 .174-.044.347-.219.139-1.004.194-2.245-.459-2.865-.653-.621-1.473-.621-.75 0-1.625.849-.543.526-.743.526-.124 0-.118-.198.014-.52.611-1.761.403-.876 1.75-2.254 1.348-1.378 1.334-2.775-.014-1.396-.597-2.099-.584-.703-1.292-.794-.111-.2-.292-.328Q18.4.02 18.1.003 18.059 0 18.017 0zM35.72.92q.067 0 .133.002h.069q2.49 0 4.748 2.14l-1.397 1.13q-1.309-1.249-3.42-1.249-2.11 0-3.419 1.25l-1.397-1.13Q33.266.92 35.72.92zm.133 2.886q2.35.03 3.865 2.467h-7.76q1.19-2.438 3.895-2.467zm0-3.806q-3.686.149-6.214 3.033l2.111 1.784q-.892 1.189-1.1 2.23h10.377q-.208-1.041-1.1-2.2l1.962-1.785Q39.54.15 35.853 0zm9.36 12.17q.442 0 .442.464v3.556h-1.347l.442-3.746q.021-.273.463-.273zm.021-.568q-1.073 0-1.136.61-.442 3.978-.947 4l-9.765.357-1.01-.042q-1.137-1.2-2.02-1.2l-.653-.042q-1.789.337-2.146.337-.253 0-.253.337 0 .463.716.463 1.228-.196 1.884-.196.12 0 .22.006.358 0 .59.295-.411.508-1.838.508-.11 0-.225-.003-1.62-.042-2.862-.421-.61 0-.61.716.063.652 4.566.673l2-.21 11.406-.064 3.199.043v-5.135q-.021-1.032-1.116-1.032zm6.802-8.531c-.27.13-.6.49-.1.55.24-.01.79-.26.69-.49a.221.221 0 0 1-.157.067c-.142 0-.287-.127-.433-.127zm-1.97.09c-.331.08-.501.44-.08.52l.021.002c.242 0 .901-.294.358-.361-.09-.06-.18-.16-.3-.16zm2.63-2.51c.59.69 1.11 1.49 1.211 2.41.1.66.13 1.321.23 1.971-.47-.04-.33-.77-.24-1.12.08-.69-.29-1.33-.55-1.941-.18-.33-.35-.85-.81-.86-.51.09-.841.52-1.171.89-.34-.34-.7-.71-1.17-.85a.236.236 0 0 0-.082-.013c-.105 0-.229.046-.286.046-.049 0-.048-.034.057-.164.064-.224.196-.29.359-.29.238 0 .543.141.8.141a.561.561 0 0 0 .112-.01c.084.004.169.007.254.007.437 0 .876-.067 1.286-.218zm-.16.76c.39.1.48.64.67.96.24.56.53 1.17.34 1.801-.15.3.04.68.02.9-.333.235-.626.73-1.069.73a.631.631 0 0 1-.15-.02c-.441-.09-.661-.51-1.001-.71-.247.238-.392.73-.798.73a.618.618 0 0 1-.183-.03c-.37-.08-.86-.04-.97-.49-.19-.46-.21-.97-.24-1.47a.324.324 0 0 0 .06.006c.203 0 .222-.235.24-.436.078-.293.287-.429.52-.429.158 0 .325.062.47.178.17.19.69.34.58.64-.05.18-.11.371-.17.561l.42.56c.04-.29.471-.53.22-.82-.04-.13-.19-.3-.17-.4.18-.32.421-.6.701-.84a.322.322 0 0 1 .23-.103c.268 0 .537.351.77.382.23-.25-.02-.35-.25-.48a.701.701 0 0 0-.486-.196c-.25 0-.5.13-.654.356-.19.114-.323.494-.49.494-.052 0-.108-.037-.17-.134-.306-.244-.672-.518-1.072-.518a.855.855 0 0 0-.179.018c-.283.059-.538.632-.56.632v-.001c-.01-.47.21-.89.34-1.351a.612.612 0 0 1 .596-.477c.173 0 .348.075.474.237.298.11.516.634.797.634.049 0 .1-.017.154-.054.31-.33.56-.72 1.01-.86zm-1.42 6.943c1.27 1.31 2.44 4.632 2.741 5.993-.49-.4-1.16-.66-1.31-.91-.16-.26-.6-2.792-1.431-5.083zm4.522-2.381c2.401 1.38 6.583 8.174 7.473 9.264-1.5-.95-2.981-1.91-4.592-2.691-2.26-1.11-4.192-2.911-6.033-4.592 1.521-.51 2.612-1.37 3.152-1.981zm-2.491 8.624c.32.19.61.45.96.59-.21.52-.34 1.1-.77 1.51-.081.13-.196.172-.328.172-.228 0-.504-.123-.735-.123-.016 0-.032 0-.048.002.28-.7.7-1.01.92-2.151zm.68-9.365c.06.126.138.167.22.167.108 0 .224-.071.32-.116.24.17 1.07.15.58.51-.31.42-1.967 1.566-3.119 1.768-.497.087.338.873.608 1.153 1.561 1.4 3.092 2.882 4.963 3.892 1.17.66 2.4 1.25 3.531 1.98.54.781 1.18 1.502 1.591 2.362-.41.12-.81.29-1.23.39a2.89 2.89 0 0 1-.703.082c-.661 0-1.325-.197-1.619-.512-.54-.57-1.13-3.001-1.44-3.892-.045-.1-.107-.133-.175-.133-.135 0-.292.132-.37.132a.041.041 0 0 1-.036-.019.391.391 0 0 0-.386-.376c-.175 0-.339.127-.314.396-.06.63-.18 1.26-.48 1.831-.037.097-.114.134-.215.134-.284 0-.761-.293-1.086-.374.13-.77-.92-4.712-4.002-8.014-.107-.116-.577-.611-.536-.611.005 0 .016.006.036.02.158.042.335.07.511.07.338 0 .669-.104.84-.42.026-.077.058-.108.096-.108.138 0 .345.399.564.399a.92.92 0 0 0 .514.155c.29 0 .578-.131.777-.355.19-.17.37-.34.56-.51zM52.787 0a3.72 3.72 0 0 1-1.36.28c-.072 0-.143-.004-.211-.01a.804.804 0 0 1-.143.012c-.337 0-.7-.18-1.025-.18a.622.622 0 0 0-.353.098c-.55.8-1.05 1.69-1.11 2.681-.11 1.901-.06 2.562 1.44 4.122.59 1.341 1.691 5.713 2.021 6.904.36.34-.45 2.2-.79 2.66-.185.256-.673.268-1.197.268h-.172c-.471 0-.948.01-1.243.193-.28.18-.38.85-.22.94.15-.23.45-.54.66-.57-.2.21.5.11.651.16.405.007.814.041 1.225.041.198 0 .397-.008.596-.03.09-.04.186-.102.228-.102.033 0 .033.038-.028.151.283.074.601.111.912.111.7 0 1.364-.187 1.51-.56.3-.551.58-1.131.78-1.732.255.054.576.234.833.234a.38.38 0 0 0 .207-.054c.28-.19.57-1.08.73-1.67.016-.062.099-.092.183-.092.081 0 .163.028.188.082.3.6.8 2.44 1.28 3.211.362.571 1.24.852 2.175.852a4.48 4.48 0 0 0 1.717-.332c.65-.28 1.13-.22.99-.58-.22-.6-.6-1.17-1-1.68.58.36 1.16.73 1.74 1.09.049.174.169.243.292.243.236 0 .483-.256.239-.513-2.271-3.282-5.883-8.875-8.384-10.685-.4-.35-.87-.62-1.39-.75-.17-.44-.12-1.031-.22-1.531-.1-.99-.701-2.632-1.752-3.262zm17.149.46q-.11 1.162-.11 2.603 0 1.442.14 2.914-.32-.17-1.001-.17-.691 0-1.002.17.15-1.472.14-2.914-.01-1.441-.11-2.602zm-.971 5.967q.68.01 1.381.36l-.18.33q-.142-.024-.265-.024-.426 0-.636.295-.12-.53-.3-.65-.18.12-.31.65-.21-.295-.637-.295-.123 0-.265.025l-.18-.33q.72-.35 1.392-.36zm0 .961q.15.12.1.35-.05.23-.1.441-.06-.21-.11-.44t.11-.35zm.911.002q.057 0 .12.008-.681 1.622-1.031 1.622-.34 0-1.052-1.622.065-.008.122-.008.365 0 .47.329.13.37.27.6.15.24.19.24.05 0 .18-.24.14-.23.26-.6.112-.329.471-.329zM67.403 0q.48 3.404-.01 6.137-.891.42-.741.71.11.22.252.22.052 0 .108-.03.871.982 1.432 2.313.22 2.193-.06 7.579 0 1.071.56 1.071h.031q.56 0 .56-1.071-.27-5.386-.06-7.579.55-1.331 1.422-2.312.056.03.108.03.142 0 .252-.22.15-.29-.73-.711-.501-2.733 0-6.137zM81.46 0v7.32h1.226V0zm-6.591 15.583q-.1 0-.196.03-.37.12-.326.36.036.203.33.203.054 0 .116-.007.404-.043.709-.327-.34-.26-.633-.26zm.189-.22q.786 0 2.427.937.823.426 1.805.426.474 0 .985-.1 1.286-.26 2.703-.457.48-.066.932-.066.877 0 1.64.251 1.155.382 1.918.49.762.11 2.419.197-1.068.109-2.092.109-1.025 0-2.42-.229-.697-.114-1.343-.114t-1.24.114q-1.187.229-2.702.425-.379.05-.745.05-1.097 0-2.078-.442-.952-.65-1.978-.65-.453 0-.92.127-.415-.022-.371-.458.24-.588 1.024-.61h.036zm.582-2.224q-.471 0-.88 1.44-.34-1.272-.88-1.272-.08 0-.166.029-.653.414.436 1.59-.871.502-.871 1.265 0 .763 1.285.85.398-.104.777-.104.889 0 1.676.573.673.49 2.135.49.975 0 2.3-.218 1.628-.458 3.163-.458.583 0 1.153.066 1.423.165 2.424.165.455 0 .823-.035 1.853-.043 1.853-.348-.502-.458-1.417-.61-1.94-.022-3.542-.676-.8-.327-1.964-.327t-2.69.327q-.983.248-1.831.248-1.162 0-2.07-.466-.937-.567-1.983-.937.872-.676.817-1.123-.054-.447-.534-.468h-.014z"/></svg>