<svg xmlns="http://www.w3.org/2000/svg" width="35.773" height="18"><path d="M14.847 4.63c-.511.04-.794.295-.847.766.067.51.35.78.847.807.497-.027.76-.296.786-.807-.04-.47-.302-.726-.786-.766zm.06-1.694c.363 0 .7.067 1.009.201a2.659 2.659 0 0 1 1.371 1.361c.134.303.202.622.202.959 0 .35-.068.675-.202.978a2.567 2.567 0 0 1-2.38 1.523c-.363 0-.702-.065-1.018-.192a2.426 2.426 0 0 1-.817-.535 2.621 2.621 0 0 1-.544-.796 2.38 2.38 0 0 1-.202-.978c0-.337.067-.656.202-.958.134-.303.315-.572.544-.807.229-.235.5-.42.817-.555a2.574 2.574 0 0 1 1.018-.201zm-.04-.686c-.444 0-.86.084-1.25.252-.39.168-.726.397-1.009.686a3.36 3.36 0 0 0-.675 1.008 3.053 3.053 0 0 0-.253 1.24c0 .444.085.857.253 1.24.168.384.393.717.675.999a3.2 3.2 0 0 0 2.259.928c.444 0 .857-.084 1.24-.253a3.36 3.36 0 0 0 1.008-.675c.29-.282.518-.615.686-.998.168-.384.252-.797.252-1.24 0-.444-.084-.858-.252-1.24a3.268 3.268 0 0 0-1.694-1.695 3.053 3.053 0 0 0-1.24-.252zm6.466 11.293V15.3H8.4v-1.756zm-12.885-1.78v1.33H7.95v2.657h13.834v-2.658h-.404v-1.328h-.45v1.328h-1.116v-1.328h-.45v1.328h-1.116v-1.328h-.45v1.328h-1.092v-1.328h-.475v1.328H15.14v-1.328h-.451v1.328h-1.115v-1.328h-.451v1.328h-1.115v-1.328h-.451v1.328h-1.092v-1.328h-.45v1.328H8.898v-1.328zM25.403 2.79c.503.038.934.152 1.295.342-.474.56-.906 1.323-1.295 2.29-.398-.967-.834-1.73-1.308-2.29a3.78 3.78 0 0 1 1.308-.341zm0 3.67c.294 2.741.45 4.963.47 5.778-.02 1.385-.176 2.305-.47 2.76-.303-.455-.46-1.375-.47-2.76.01-.825.167-3.046.47-5.777zm0-4.21c-.967 0-1.674.294-2.12.882.674.56 1.215 1.427 1.622 2.603 0 .531-.106 1.975-.32 3.445-.213 1.47-.263 3.1-.149 4.893.245 1.118.537 1.677.878 1.677.03 0 .06-.004.09-.012.03.008.059.012.088.012.341 0 .634-.559.879-1.677.104-1.792.05-3.423-.164-4.893-.213-1.47-.32-2.914-.32-3.445.417-1.176.963-2.044 1.636-2.603-.455-.588-1.162-.882-2.12-.882z"/><path d="M7.95.375c-9.625 0-9.625 17.25 0 17.25m0-17.25h19.573M7.95 17.625h19.573M35.21.375v17.25M27.523.375c9.625 0 9.625 17.25 0 17.25" fill="none" stroke="#000"/></svg>