<svg xmlns="http://www.w3.org/2000/svg" width="283.938" height="18"><path d="M2.097 0c-.335 0-.67.026-.995.066-.447.113-.217.626.18.626a.476.476 0 0 0 .082-.008c.84.097 1.872.15 2.506.626.841.916.463 2.821.561 3.725.007.05.01 3.653.01 5.48a6.145 6.145 0 0 0-2.635-.586 6.04 6.04 0 0 0-1.187.117c-.441.231.076.528.422.528.041 0 .08-.004.115-.013 1.226.133 2.62.461 3.243 1.602.061.206.023.277-.071.277-.206 0-.68-.342-.946-.342-.014 0-.028 0-.04.003a7.535 7.535 0 0 0-1.58-.169c-.39 0-.777.031-1.15.095-.42.278.097.534.439.534a.532.532 0 0 0 .105-.01c1.251.151 2.636.49 3.243 1.633.007 1.27 0 2.11.033 3.278-.014.36.22.538.456.538.235 0 .473-.176.475-.526-.009-1.15-.091-2.161.06-3.277.304-1.253 2.477-1.445 3.827-1.754.294-.347-.285-.475-.659-.475-.055 0-.107.003-.15.008a6.823 6.823 0 0 0-.521-.02c-.882 0-1.771.175-2.557.58-.032-.755.711-1.19 1.244-1.493.84-.361 1.765-.397 2.643-.59.313-.273-.18-.501-.521-.501a.58.58 0 0 0-.125.012 6.767 6.767 0 0 0-.648-.031c-.903 0-1.805.183-2.614.582.016-2.851.062-5.61-.02-8.308-.065-.834-.546-1.6-1.354-1.849C3.388.094 2.741 0 2.097 0z"/><path d="M2.646 9L.45 11.196v.708l2.727-2.727L3.354 9zm3 0L.45 14.196v.708l5.727-5.727L6.354 9zm3 0L.45 17.196v.708l8.727-8.727.172-.172V9zm.703 2.298l-6.526 6.525-.177.177h.708l5.995-5.995v-.707zm0 3l-3.526 3.525-.177.177h.708l2.995-2.995v-.707zm0 3l-.526.525-.177.177h.703v-.702zM26.092 2.99q.557 0 1.086.606-4.368 5.2-5.46 5.81-.814.457-1.434.457-.21 0-.399-.053-.74-.208-1.586-.234h-.042q-.828 0-1.817.988h-.13q.702-1.638 1.963-2.34 1.261-.702 7.397-5.148.213-.085.422-.085zM18.36.622q.066 0 .133.01v6.683Q16.44 8.51 15.66 10.668q1.196-8.268 1.677-9.204Q17.77.62 18.361.62zM13.005 11.09q-.08 0-.153.138-.13.247.234.689.208-.546.052-.741-.069-.086-.133-.086zm.037-.372q.153 0 .33.237.39.52-.234 2.08-.702-1.352-.429-1.976.149-.34.333-.34zm6.804 2.577v.39q-.286-.026-.442-.182.052-.078.208-.208zm.598.884l2.418.338.494.884q-.832-.234-1.833-.624-1-.39-1.079-.598zm-5.33-.364l.468.234.156 1.118-.416 1.274h-.65l.442-1.274v-1.352zm1.118.39l.442.13.156.832-.416 1.274h-.65l.442-1.274.026-.962zm1.534.156l.156.806-.416 1.274h-.65l.442-1.274v-.78l.468-.026zm-.994-3.234q.415 0 .89.1 1.404.3 1.768 1.418h1.092l.416-.676q5.512 1.274 6.214 4.602-1.508-.832-3.172-1.118l-.728-1.456-2.886-.39.078-.702h-.988q-1.092.9-2.228.9-.243 0-.489-.042-1.391-.234-1.82-.95-.429-.714.455-1.3.585-.386 1.398-.386zM18.617 0q-.947 0-1.488.658-.663.806-1.235 4.238l-.91 5.954q-.442.468-.676.52h-.312q-.026-.65-.494-1.196-.416-3.978.364-6.968l-.312-.598q-1.118 3.38-.546 7.592h-.078q-1.794-4.03-.52-7.592l-.312-.468q-1.664 3.796.364 8.242-.572 1.248-.117 2.054.455.806.559 1.508l.182.13q.702-1.04.806-1.794h.26q.026.598.338 1.248l.182 1.638-.442 1.274h-2.262v.624h6.526v-.624h-.546l.416-1.274.026-.962q.468-.156.702-.364.338.312.754.312-.026.26.104.442 1.04.806 3.718 1.404l.91 1.768q0-.434.27-.434.085 0 .198.044l-.728-1.3q1.508.338 2.288.858.416.442-.052 1.066 1.04-.442 1.17-1.248-.416-3.926-7.046-5.46l-.468.78h-.416q-.338-1.092-2.678-1.508.522-.388 1.285-.388.414 0 .9.115.491.116.96.116.844 0 1.613-.376 1.196-.585 6.084-6.461-.9-1.136-1.905-1.136-.329 0-.669.122L19.066 7.08V.034Q18.831 0 18.617 0z"/><path d="M37.458.375c-9.625 0-9.625 17.25 0 17.25m0 0" fill="none" stroke="#000"/><path d="M43.68 12.703c-.681.054-1.058.394-1.13 1.022.09.68.467 1.04 1.13 1.075.663-.036 1.013-.394 1.049-1.075-.054-.628-.404-.968-1.049-1.022zm.08-2.259c.485 0 .933.09 1.345.269a3.545 3.545 0 0 1 1.828 1.815c.18.403.27.83.27 1.277 0 .466-.09.901-.27 1.304a3.422 3.422 0 0 1-3.173 2.03c-.483 0-.936-.085-1.357-.255a3.235 3.235 0 0 1-1.09-.712 3.495 3.495 0 0 1-.725-1.063 3.174 3.174 0 0 1-.27-1.304c0-.448.09-.874.27-1.277a3.67 3.67 0 0 1 .726-1.076c.304-.313.667-.56 1.089-.739.421-.18.874-.269 1.358-.269zm-.053-.914c-.592 0-1.147.112-1.667.336-.52.224-.968.529-1.345.914a4.48 4.48 0 0 0-.9 1.345 4.071 4.071 0 0 0-.337 1.653c0 .592.112 1.143.336 1.654.225.511.525.955.901 1.331A4.267 4.267 0 0 0 43.707 18c.591 0 1.143-.112 1.654-.336a4.48 4.48 0 0 0 1.344-.9 4.21 4.21 0 0 0 .914-1.332 4.07 4.07 0 0 0 .336-1.654c0-.591-.112-1.142-.336-1.653a4.358 4.358 0 0 0-2.258-2.259 4.071 4.071 0 0 0-1.654-.336zM56.033.785v9.509h-3.49v6.863H50.8V.785zm0 10.352v6.02h-2.646v-6.02zM49.955 0v18h6.921V0zm18.381.601c1.074 0 2.418.552 3.069 1.202.569.57.643 1.324.664 2.025h-7.435c.021-.7.096-1.455.665-2.025.65-.65 1.963-1.202 3.037-1.202zm0-.601c-1.274 0-2.645.589-3.449 1.392-.824.824-.917 1.91-.917 2.72v.317h8.732v-.316c0-.812-.062-1.897-.886-2.72C71.013.588 69.61 0 68.336 0zm-9.46 9.394V18h6.74v-1.012h-5.727v-6.581h16.894v6.58h-5.125V18h6.138V9.394zm24.135.934q-.228.229 0 .422l-.65-.246.65-.176zm3.511-.017l.632.193-.632.246q.229-.193 0-.44zm-3.072-.018l.527.386-.562.106q.21-.193.035-.492zm2.633-.017q-.175.316.036.509l-.562-.106.526-.403zm.074-.144q-.184 0-.293.056-.377.193-.518.562.316.174.705.174.63 0 1.454-.455-.898-.337-1.348-.337zm-2.772.001q-.454 0-1.374.353.822.45 1.45.45.404 0 .726-.186-.14-.369-.517-.562-.107-.055-.285-.055zm-2.801-.837q-.103 0-.232.12-.36.333.588 1.913l.175-.123-.28-.685.017-.561-.228-.035q.07.087.079.386.009.298.307.842l-.053.053q-.123-.228-.386-.816t-.096-.817q.063-.087.128-.087.105 0 .214.228l.053-.035q-.102-.383-.286-.383zm8.364 0q-.189 0-.302.383l.053.035q.109-.228.217-.228.067 0 .134.087.176.229-.088.817-.263.588-.403.816l-.053-.053q.298-.544.307-.842.009-.299.08-.386l-.211.035.017.561-.28.685.157.123q.966-1.58.606-1.914-.13-.12-.234-.12zm-8.253-.243q.151 0 .2.213.097.413.071.685-.019.196.195.196.082 0 .2-.03-.456.51-.035.931.105.58-.193.597h-.01q-.297 0-.78-1-.492-1.019-.018-1.405.23-.187.37-.187zm8.143 0q.141 0 .37.187.474.386-.026 1.404-.492 1.001-.78 1.001h-.01q-.29-.018-.184-.597.403-.421-.036-.93.113.03.193.03.206 0 .194-.197-.018-.272.079-.685.05-.213.2-.213zm-2.687.368q-.109 0-.208.02-.614.132-.825.571-.193.597-.184 1.326.008.728.403.86t.272.272q-.067.078-.162.078-.077 0-.171-.052-.08-.043-.152-.043-.116 0-.208.114-.075.092-.151.092-.077 0-.156-.092-.098-.114-.212-.114-.07 0-.148.043-.09.052-.167.052-.094 0-.167-.078-.131-.14.264-.272t.403-.851q.01-.72-.166-1.335-.176-.439-.764-.57-.093-.021-.198-.021-.562 0-1.479.591l-.035.264q.864-.537 1.5-.537.424 0 .747.238.37 1.37-.052 2.002-.72.175-.492.579.135.238.373.238.166 0 .382-.115.184.228.364.228t.356-.228q.223.115.393.115.245 0 .38-.238.228-.404-.51-.58-.333-.631-.035-2 .336-.25.77-.25.634 0 1.477.53l-.052-.263q-.825-.574-1.39-.574zm-.93 3.8q.197 0 .494.11-.502.167-1.019.167-.459 0-.93-.133.34-.138.554-.138.14 0 .227.06.11.074.218.074.107 0 .212-.075.092-.065.244-.065zm-1.455.285q.5.184 1.031.184.532 0 1.093-.184-.579.386-1.123.412l-.062.002q-.508 0-.939-.414zm.597-.51q-.421.089-.948.387.474.58.93.685.19.043.39.043.285 0 .594-.087.526-.15.772-.659-.562-.28-.93-.35l-.404.157-.404-.175zm1.738-4.318q.772.737 1.86 1.405.194.509.089.667-.106.158-.211.93-.544 1.229-1.01 2.019-.465.79-.965 1.115-.218.141-.454.141-.306 0-.643-.238-.404.277-.706.277-.157 0-.286-.075-.378-.22-1-.965-.624-.747-1.098-2.274-.105-.772-.202-.922-.096-.149.08-.675 1.544-.685 1.86-1.37.655.273 1.307.273.692 0 1.379-.308zm-1.334 6.39q.46.32.82.32.093 0 .18-.021l.352 2.3h-2.74l.387-2.3q.087.022.181.022.36 0 .82-.32zm0-7.76q-2.792 0-3.546 2.494.07-.755-.369-.975-.107-.053-.216-.053-.34 0-.706.519-.482.684.746 2.44.225.483.457.483h.009q.237-.01.324-.237.492 2.071 1.967 3.072L82.94 18h3.581l-.421-2.95q1.124-1.035 1.966-3.071.088.228.325.237h.008q.233 0 .457-.483 1.229-1.756.737-2.44-.372-.519-.709-.519-.108 0-.212.053-.43.22-.343.975-.772-2.493-3.563-2.493zm6.967 3.372V18h1.225v-7.32zM100.459.601c1.074 0 2.418.552 3.069 1.202.569.57.643 1.324.664 2.025h-7.435c.02-.7.095-1.455.664-2.025.651-.65 1.964-1.202 3.038-1.202zm0-.601c-1.274 0-2.645.589-3.449 1.392-.824.824-.917 1.91-.917 2.72v.317h8.732v-.316c0-.812-.062-1.897-.886-2.72C103.135.588 101.733 0 100.459 0zm12.907.597c.269.002.505.041.692.109-.031.223-.169.569-.953.773.73-.053 1.206-.113 1.452-.307.09.2.137.427.159.556a.297.297 0 0 0 .206.237c.625.191 1.173 1.112 1.7 1.763.95 1.173 1.771 2.48 2.688 3.733l-1.27-.622c-1.182-.622-2.395-1.11-3.407-1.877-.589-.49-1.172-.996-1.39-1.641-.076-.497.296-1.074.767-1.279a.297.297 0 1 0-.238-.545c-.377.164-.7.458-.904.817.01-.152.032-.308.075-.448a.297.297 0 0 0 .012-.104 1.372 1.372 0 0 0-.082-.422c-.04-.109-.084-.206-.157-.459a.297.297 0 0 0-.105-.153c.14-.062.316-.112.527-.125.043-.003.084-.003.125-.004a.258.258 0 1 0 .103-.002zm1.193 5.432c.606.466 1.253.873 1.889 1.28-.005.438.005.879.046 1.321a2.215 2.215 0 0 0-.697-.3c-.39-.636-.82-1.22-1.082-1.842a4.553 4.553 0 0 1-.156-.46zm-.248 1c.273.549.621 1.04.928 1.529-.059.04-.112.08-.155.121l-.027.027a1.713 1.713 0 0 0-.613-.454c.01-.348-.047-.768-.133-1.222zm2.88.047a25.922 25.922 0 0 1 .588.297c.78.38 1.56.772 2.349 1.148.556.67 1.157 1.293 1.735 1.92l-1.044.175-2.562-2.786a.297.297 0 0 0-.04-.036 19.147 19.147 0 0 0-1.026-.718zM114.6 9.085c.058.066.112.14.162.222a.298.298 0 0 0 .43.087c.124-.09.2-.177.265-.244l.077 1.413c-.1-.006-.201-.013-.296-.013-.167 0-.313.022-.398.108-.1-.078-.28-.1-.504-.1-.058 0-.118.002-.18.005l.444-1.478zm-5.418.999c.451.062.686.323.704.783h-1.395c0-.46.23-.721.69-.783zm7.86-2.39c.274.182.542.367.798.56l2.403 2.613h-2.456c-.171-.19-.519-.365-.776-.365a.366.366 0 0 0-.192.046 2.987 2.987 0 0 0-.256-.01c-.14 0-.286.007-.434.016l-.082-1.506c.224.115.407.282.625.542a.297.297 0 0 0 .52-.246 9.753 9.753 0 0 1-.15-1.65zm-6.24 3.745l-.266.465h-1.248l-.252-.465zm4.516 0v2.51l-1.727-2.51zM113.373 0a3.878 3.878 0 0 0-.272.01c-.695.044-1.215.325-1.408.768a.298.298 0 0 0 .34.408l.025-.006.03.007.108.029c.055.168.096.269.12.332a.541.541 0 0 1 .042.2 3.112 3.112 0 0 0-.036 1.389c.095.466.384.977.761 1.46a.295.295 0 0 0 .014.108c.183.559.396 1.318.548 2.027.152.708.233 1.387.192 1.684a.3.3 0 0 0 .223.33l.019.005-.527 1.75a1.787 1.787 0 0 0-.26-.018c-.256 0-.509.041-.712.041a.865.865 0 0 1-.183-.016.314.314 0 0 0-.068-.007c-.212 0-.657.13-.787.366h-1.1c-.062-.797-.482-1.235-1.261-1.315-.788.08-1.196.518-1.222 1.315v.572h.531l.545 1.01h1.766l.531-1.01h1.568l2.404 3.493V18h.571v-6.561h4.516v-.41l.1.109a.297.297 0 0 0 .268.092l1.74-.292a.298.298 0 0 0 .173-.492 49.17 49.17 0 0 0-.657-.716l1.657 1.078a.296.296 0 0 0 .412-.087.297.297 0 0 0-.088-.411l-1.344-.876a.292.292 0 0 0 .076-.09.315.315 0 0 0 .02-.237.305.305 0 0 0-.048-.093c-.055-.076-.084-.088-.124-.119a2.938 2.938 0 0 0-.13-.094c-.096-.065-.206-.137-.301-.2a4.156 4.156 0 0 1-.217-.156l-2.378-1.672-.008-.005c-.806-1.13-1.568-2.316-2.457-3.414-.433-.535-.938-1.524-1.812-1.894-.048-.262-.157-.68-.484-.997-.353-.344-.863-.463-1.416-.463zm22.373 8.704c.337 0 .752.06 1.245.18 1.041.253 1.942.612 2.701 1.076a33.73 33.73 0 0 1 2.554 1.752c-.908.459-1.95.689-3.13.689-.265 0-.537-.012-.816-.035-1.52-.127-2.825-.574-3.915-1.34-1.09-.767-1.36-1.238-.812-1.414.548-.176.995-.404 1.34-.686.181-.148.459-.222.833-.222zm7.26 3.176l.865.19c0 .225-.204.408-.612.549-.233.016-.475.024-.726.024-.42 0-.868-.022-1.342-.066.914-.113 1.519-.345 1.814-.697zm1.329.317l.527.105c.057.17-.14.338-.59.507l-.612-.042c.436-.197.66-.387.675-.57zm.802.211l.358.084c-.084.24-.337.36-.76.36.24-.156.374-.303.402-.444zm.59.211c.338.098.563.26.676.485l-.95-.21c.183-.085.275-.177.275-.275zm-2.194 1.245c1.055.127 1.85.422 2.384.886l-2.616-.612c.028-.154.105-.246.232-.274zM131.315.401c.661 0 1.16.183 1.498.549.338.365.443 1.248.317 2.648-.127 1.4-.17 2.35-.127 2.849.042.5.172.868.39 1.108.218.239.482.474.792.706.31.233.154.44-.464.623-.62.183-.964.454-1.034.812-.07.36.017.69.263.992.246.303.834.71 1.762 1.224.929.514 1.748.84 2.459.981.71.141 2.887.211 6.53.211 1.126.211 1.872.493 2.238.844l-2.406-.548a.943.943 0 0 0-.528.4c0 .366-.794.577-2.384.634-.24 0-.401-.33-.485-.992l-.254.211c.127.535.162 1.006.106 1.414a1.582 1.582 0 0 0-1.034-.95c-.788-.14-1.491-.27-2.11-.39-.62-.12-1.245-.376-1.878-.77-.563-.436-1.467-.908-2.712-1.414-1.245-.507-1.868-1.26-1.868-2.258 0-.999.335-1.825 1.003-2.48.668-.654 1.002-1.438 1.002-2.352 0-.45-.056-.876-.169-1.277-.102-.363-.405-.544-.91-.544a2.39 2.39 0 0 0-.166.006l-1.773.232a1.71 1.71 0 0 1 .254-.507c.14-.436.295-.689.464-.76.025.087.12.13.284.13.023 0 .048 0 .075-.003.281-.014.443-.154.485-.422-.028-.267-.19-.408-.485-.422-.254.014-.394.155-.422.422a2.306 2.306 0 0 0-.528.739c-.04.02-.08.03-.12.03a.274.274 0 0 1-.196-.093c.168-.338.415-.686.738-1.045.324-.359.788-.538 1.393-.538zm4.79 13.758l.675.17-.76 1.097.085-1.267zm1.308.233c.563 0 1.038.06 1.425.179.387.12.626.573.717 1.361.09.774-.027 1.161-.352 1.161h-2.043a1.842 1.842 0 0 0-.136-.005c-.345 0-.73.093-1.151.279.112-.985.626-1.977 1.54-2.975zM131.315 0c-.957 0-1.745.535-2.364 1.604-.21.351-.837.703-1.878 1.055-.717.21-1.027.506-.928.886l.021.253c1.336-.126 2.455-.288 3.355-.485l1.646-.295a.89.89 0 0 1 .025 0c.49 0 .731.414.724 1.245-.007.844-.362 1.6-1.065 2.268-.704.668-1.063 1.635-1.077 2.902 0 1.027.49 1.762 1.467 2.205.978.443 1.924.918 2.838 1.424.915.507 1.435.9 1.562 1.182-.07 1.491-.253 2.455-.549 2.89-.492 0-1.35-.07-2.574-.21-.38.056-.64.18-.781.37-.14.189-.113.397.084.622.094-.136.185-.204.27-.204.03 0 .06.008.09.024.112.064.393.095.843.095h2.068c.102-.02.198-.03.289-.03.236 0 .435.067.597.199a.988.988 0 0 0 .507-.169c.62.018 1.14.027 1.559.027.557 0 .934-.016 1.131-.048.345-.056.658-.105.94-.148l.717.232.024.001c.161 0 .181-.14.06-.423-.619-.337-.76-1.188-.422-2.553.12.003.234.004.346.004 1.112 0 1.841-.128 2.186-.384 1.407.253 2.554.5 3.44.739l.148-.253c-.366-.408-.64-.669-.823-.781l.928.19c.15.056.254.084.312.084.116 0 .047-.112-.206-.337-.056-.155-.464-.458-1.224-.908l1.287.253c.14-.9-.837-1.54-2.933-1.92a7.14 7.14 0 0 1-2.975-1.477c-1.168-1.027-2.934-1.78-5.297-2.258-1.252-.084-1.948-.468-2.09-1.15-.14-.682-.136-1.77.011-3.26.148-1.491-.06-2.462-.622-2.912-.422-.366-.978-.549-1.667-.549z"/><path d="M138.079 0v7.2h1.205V0zm16.411.597c.27.002.505.041.693.109-.032.223-.17.569-.953.773.73-.053 1.206-.113 1.452-.307.089.2.137.427.158.556a.297.297 0 0 0 .206.237c.625.191 1.174 1.112 1.701 1.763.95 1.173 1.77 2.48 2.687 3.733-.422-.207-.845-.415-1.27-.622-1.181-.622-2.394-1.11-3.406-1.877-.589-.49-1.172-.996-1.391-1.641-.076-.497.297-1.074.768-1.279a.297.297 0 1 0-.238-.545c-.377.164-.7.458-.904.817.01-.152.031-.308.074-.448a.297.297 0 0 0 .013-.104 1.372 1.372 0 0 0-.082-.422c-.04-.109-.085-.206-.158-.459a.297.297 0 0 0-.104-.153c.14-.062.315-.112.527-.125.043-.003.084-.003.125-.004a.258.258 0 1 0 .102-.002zm1.194 5.432c.605.466 1.253.873 1.888 1.28-.005.438.006.879.047 1.321a2.215 2.215 0 0 0-.697-.3c-.391-.636-.82-1.22-1.082-1.842a4.553 4.553 0 0 1-.156-.46zm-.249 1c.273.549.622 1.04.929 1.529-.06.04-.112.08-.155.121l-.027.027a1.713 1.713 0 0 0-.613-.454c.009-.348-.048-.768-.134-1.222zm2.88.047a25.922 25.922 0 0 1 .589.297c.78.38 1.56.772 2.349 1.148.556.67 1.156 1.293 1.734 1.92l-1.043.175-2.563-2.786a.297.297 0 0 0-.04-.036 19.147 19.147 0 0 0-1.025-.718zm-2.591 2.009c.058.066.112.14.162.222a.298.298 0 0 0 .429.087c.125-.09.2-.177.265-.244l.078 1.413c-.1-.006-.202-.013-.296-.013-.167 0-.314.022-.398.108-.1-.078-.28-.1-.504-.1-.058 0-.118.002-.181.005l.445-1.478zm-5.419.999c.452.062.687.323.704.783h-1.394c0-.46.23-.721.69-.783zm7.861-2.39c.274.182.542.367.798.56l2.403 2.613h-2.457c-.17-.19-.518-.365-.776-.365a.366.366 0 0 0-.191.046 2.987 2.987 0 0 0-.257-.01c-.139 0-.285.007-.433.016l-.083-1.506c.225.115.407.282.626.542a.297.297 0 0 0 .52-.246 9.753 9.753 0 0 1-.15-1.65zm-6.24 3.745l-.266.465h-1.248l-.253-.465zm4.516 0v2.51l-1.727-2.51zM154.498 0a3.878 3.878 0 0 0-.273.01c-.694.044-1.215.325-1.407.768a.298.298 0 0 0 .34.408l.025-.006.03.007.108.029c.054.168.096.269.12.332a.541.541 0 0 1 .042.2 3.112 3.112 0 0 0-.037 1.389c.096.466.384.977.762 1.46a.295.295 0 0 0 .014.108c.182.559.395 1.318.548 2.027.152.708.233 1.387.192 1.684a.298.298 0 0 0 .223.33l.018.005-.527 1.75a1.787 1.787 0 0 0-.259-.018c-.256 0-.51.041-.712.041a.865.865 0 0 1-.183-.016.314.314 0 0 0-.069-.007c-.212 0-.656.13-.786.366h-1.1c-.062-.797-.482-1.235-1.262-1.315-.788.08-1.195.518-1.222 1.315v.572h.532l.544 1.01h1.767l.531-1.01h1.567l2.404 3.493V18H157v-6.561h4.516v-.41l.1.109a.297.297 0 0 0 .267.092l1.74-.292a.298.298 0 0 0 .173-.492 49.17 49.17 0 0 0-.656-.716l1.656 1.078a.296.296 0 0 0 .412-.087.297.297 0 0 0-.087-.411l-1.345-.876a.292.292 0 0 0 .077-.09.315.315 0 0 0 .02-.237.305.305 0 0 0-.048-.093c-.056-.076-.084-.088-.124-.119a2.938 2.938 0 0 0-.131-.094c-.095-.065-.206-.137-.3-.2a4.156 4.156 0 0 1-.217-.156l-2.378-1.672-.008-.005c-.806-1.13-1.568-2.316-2.457-3.414-.433-.535-.938-1.524-1.813-1.894-.048-.262-.156-.68-.483-.997C155.56.119 155.05 0 154.498 0z"/><path d="M174.94.375v17.25M167.252.375c9.625 0 9.625 17.25 0 17.25" fill="none" stroke="#000"/><path d="M182.909.597c.269.002.505.041.692.109-.031.223-.169.569-.953.773.73-.053 1.206-.113 1.452-.307.09.2.137.427.159.556a.297.297 0 0 0 .206.237c.625.191 1.174 1.112 1.7 1.763.95 1.173 1.771 2.48 2.688 3.733l-1.27-.622c-1.182-.622-2.395-1.11-3.407-1.877-.589-.49-1.172-.996-1.39-1.641-.076-.497.296-1.074.767-1.279a.297.297 0 1 0-.238-.545c-.377.164-.7.458-.904.817.01-.152.032-.308.075-.448a.297.297 0 0 0 .012-.104 1.372 1.372 0 0 0-.082-.422c-.04-.109-.084-.206-.157-.459a.297.297 0 0 0-.105-.153 1.53 1.53 0 0 1 .528-.125c.042-.003.083-.003.124-.004a.258.258 0 1 0 .103-.002zm1.193 5.432c.606.466 1.254.873 1.889 1.28-.005.438.005.879.046 1.321a2.215 2.215 0 0 0-.697-.3c-.39-.636-.82-1.22-1.082-1.842a4.553 4.553 0 0 1-.156-.46zm-.248 1c.273.549.621 1.04.928 1.529-.059.04-.112.08-.154.121l-.028.027a1.713 1.713 0 0 0-.613-.454c.01-.348-.047-.768-.133-1.222zm2.88.047a25.922 25.922 0 0 1 .588.297c.78.38 1.56.772 2.349 1.148.556.67 1.157 1.293 1.735 1.92l-1.044.175L187.8 7.83a.297.297 0 0 0-.04-.036 19.147 19.147 0 0 0-1.026-.718zm-2.592 2.009c.058.066.112.14.162.222a.298.298 0 0 0 .43.087c.124-.09.2-.177.265-.244l.077 1.413c-.1-.006-.201-.013-.296-.013-.167 0-.313.022-.398.108-.1-.078-.28-.1-.504-.1-.058 0-.118.002-.18.005l.444-1.478zm-5.418.999c.451.062.686.323.704.783h-1.395c0-.46.23-.721.69-.783zm7.86-2.39c.274.182.542.367.798.56l2.403 2.613h-2.456c-.171-.19-.519-.365-.776-.365a.366.366 0 0 0-.192.046 2.987 2.987 0 0 0-.256-.01c-.14 0-.286.007-.434.016l-.082-1.506c.224.115.407.282.625.542a.297.297 0 0 0 .52-.246 9.753 9.753 0 0 1-.15-1.65zm-6.24 3.745l-.266.465h-1.248l-.252-.465zm4.516 0v2.51l-1.727-2.51zM182.916 0a3.878 3.878 0 0 0-.272.01c-.694.044-1.215.325-1.408.768a.298.298 0 0 0 .34.408l.025-.006.03.007.108.029c.055.168.096.269.12.332a.541.541 0 0 1 .042.2 3.112 3.112 0 0 0-.036 1.389c.095.466.384.977.761 1.46a.295.295 0 0 0 .014.108c.183.559.396 1.318.548 2.027.152.708.233 1.387.192 1.684a.3.3 0 0 0 .223.33l.019.005-.527 1.75a1.787 1.787 0 0 0-.26-.018c-.256 0-.509.041-.712.041a.865.865 0 0 1-.183-.016.314.314 0 0 0-.068-.007c-.212 0-.657.13-.787.366h-1.1c-.061-.797-.482-1.235-1.261-1.315-.788.08-1.196.518-1.222 1.315v.572h.531l.545 1.01h1.766l.532-1.01h1.567l2.404 3.493V18h.571v-6.561h4.516v-.41l.1.109a.297.297 0 0 0 .268.092l1.74-.292a.298.298 0 0 0 .173-.492 49.17 49.17 0 0 0-.657-.716l1.657 1.078a.296.296 0 0 0 .412-.087.297.297 0 0 0-.088-.411l-1.344-.876a.292.292 0 0 0 .076-.09.315.315 0 0 0 .02-.237.305.305 0 0 0-.048-.093c-.055-.076-.084-.088-.124-.119a2.938 2.938 0 0 0-.13-.094c-.096-.065-.206-.137-.301-.2a4.156 4.156 0 0 1-.217-.156l-2.378-1.672-.008-.005c-.805-1.13-1.568-2.316-2.457-3.414-.433-.535-.938-1.524-1.812-1.894-.048-.262-.157-.68-.484-.997C183.98.119 183.47 0 182.916 0zm14.188 7.458v1.656c-.565 0-.848-.283-.848-.848 0-.539.283-.808.848-.808zM199.199 0c-.463 0-.855.116-1.176.35-.613.443-.919 1.09-.919 1.938v4.584c-.942 0-1.42.465-1.434 1.394 0 .942.478 1.413 1.434 1.413V18h.746V2.732c0-1.023.199-1.68.596-1.969.206-.15.476-.225.838-.225.337 0 .754.065 1.273.195a.65.65 0 0 0 .213.043c.11 0 .188-.048.232-.144.013-.162-.108-.276-.364-.343C200.1.096 199.62 0 199.198 0zm8.067 5.565c3.71 0 3.71-5.565 0-5.565s-3.71 5.565 0 5.565zm-1.221 4.062c-5.439 1.9-2.904 9.54 2.195 8.228 5.054-1.302 4.045-9.318-2.195-8.228m.243.698c5.417-.787 5.639 5.768 1.708 6.812-3.846 1.022-6.482-5.13-1.708-6.812m1.188 1.152c1.083-.74-.884-.487 0-.018v.018m-1.985.433c1.227-.397-.343-.795 0-.073v.073m2.993-.712v.732l.73-.244-.73-.488m-3.571 2.066c.903-.795-.595-.885-.108-.09l.108.09m2.839-.846l-.244.731.732-.487-.488-.244m-1.052.358l-.072-.017c-.668-.489-1.39 1.767.072.017m3.014-.397c-.957.56.162.703.253.703l-.253-.703m-2.938 1.502l.244.244.488-.732-.732.488m1.674-.474l-.468.019c.558.866.757.793.468-.019m-3.68 1.517c.883-.74-.434-.632-.416-.488l.415.488m1.01-.903l.221.305c.718-.215.34-.792-.22-.305m3.435.836l.244.244.488-.732-.732.488m-1.324.012c-.758-.378-.92-.27-.47.344l.47-.344m-2.578.72l.244.731.488-.732h-.732m3.246-.465l-.45.54c.106.217 1.1.145.45-.54m-1.54.71l-.243.731h.732l-.488-.732zM227.646 0l-1.184 1.185v.707l1.715-1.715.177-.177zm3 0l-4.184 4.185v.707l4.715-4.715.177-.177zm3 0l-7.184 7.185v.707l7.715-7.715.177-.177zm3 0l-10.184 10.185v.707L237.177.177l.177-.177zm3 0l-13.184 13.185v.707L240.177.177l.177-.177zm3 0l-16.184 16.185v.707L243.177.177l.177-.177zm3 0l-17.823 17.823-.177.177h.708L246.177.177l.177-.177zm2.816.185l-17.639 17.638-.177.177h.708L248.462.892V.185zm0 3l-14.639 14.638-.177.177h.708l14.108-14.108v-.707zm0 3l-11.639 11.638-.177.177h.708l11.108-11.108v-.707zm0 3l-8.639 8.638-.177.177h.708l8.108-8.108v-.707zm0 3l-5.639 5.638-.177.177h.708l5.108-5.108v-.707zm0 3l-2.639 2.638-.177.177h.708l2.108-2.108v-.707zm26-4.535V18h.735v-7.35zm4.37 0V18h.735v-7.35zm4.37 0V18h.736v-7.35z"/></svg>