<svg xmlns="http://www.w3.org/2000/svg" width="245.969" height="18"><path d="M2.097 0c-.335 0-.67.026-.995.066-.447.113-.217.626.18.626a.476.476 0 0 0 .082-.008c.84.097 1.872.15 2.506.626.841.916.463 2.821.561 3.725.007.05.01 3.653.01 5.48a6.145 6.145 0 0 0-2.635-.586 6.04 6.04 0 0 0-1.187.117c-.441.231.076.528.422.528.041 0 .08-.004.115-.013 1.226.133 2.62.461 3.243 1.602.061.206.023.277-.071.277-.206 0-.68-.342-.946-.342-.014 0-.028 0-.04.003a7.535 7.535 0 0 0-1.58-.169c-.39 0-.777.031-1.15.095-.42.278.097.534.439.534a.532.532 0 0 0 .105-.01c1.251.151 2.636.49 3.243 1.633.007 1.27 0 2.11.033 3.278-.014.36.22.538.456.538.235 0 .473-.176.475-.526-.009-1.15-.091-2.161.06-3.277.304-1.253 2.477-1.445 3.827-1.754.294-.347-.285-.475-.659-.475-.055 0-.107.003-.15.008a6.823 6.823 0 0 0-.521-.02c-.882 0-1.771.175-2.557.58-.032-.755.711-1.19 1.244-1.493.84-.361 1.765-.397 2.643-.59.313-.273-.18-.501-.521-.501a.58.58 0 0 0-.125.012 6.767 6.767 0 0 0-.648-.031c-.903 0-1.805.183-2.614.582.016-2.851.062-5.61-.02-8.308-.065-.834-.546-1.6-1.354-1.849C3.388.094 2.741 0 2.097 0zm23.995 2.99q.557 0 1.086.606-4.368 5.2-5.46 5.81-.814.457-1.434.457-.21 0-.399-.053-.74-.208-1.586-.234h-.042q-.828 0-1.817.988h-.13q.702-1.638 1.963-2.34 1.261-.702 7.397-5.148.213-.085.422-.085zM18.36.622q.066 0 .133.01v6.683Q16.44 8.51 15.66 10.668q1.196-8.268 1.677-9.204Q17.77.62 18.361.62zM13.005 11.09q-.08 0-.153.138-.13.247.234.689.208-.546.052-.741-.069-.086-.133-.086zm.037-.372q.153 0 .33.237.39.52-.234 2.08-.702-1.352-.429-1.976.149-.34.333-.34zm6.804 2.577v.39q-.286-.026-.442-.182.052-.078.208-.208zm.598.884l2.418.338.494.884q-.832-.234-1.833-.624-1-.39-1.079-.598zm-5.33-.364l.468.234.156 1.118-.416 1.274h-.65l.442-1.274v-1.352zm1.118.39l.442.13.156.832-.416 1.274h-.65l.442-1.274.026-.962zm1.534.156l.156.806-.416 1.274h-.65l.442-1.274v-.78l.468-.026zm-.994-3.234q.415 0 .89.1 1.404.3 1.768 1.418h1.092l.416-.676q5.512 1.274 6.214 4.602-1.508-.832-3.172-1.118l-.728-1.456-2.886-.39.078-.702h-.988q-1.092.9-2.228.9-.243 0-.489-.042-1.391-.234-1.82-.95-.429-.714.455-1.3.585-.386 1.398-.386zM18.617 0q-.947 0-1.488.658-.663.806-1.235 4.238l-.91 5.954q-.442.468-.676.52h-.312q-.026-.65-.494-1.196-.416-3.978.364-6.968l-.312-.598q-1.118 3.38-.546 7.592h-.078q-1.794-4.03-.52-7.592l-.312-.468q-1.664 3.796.364 8.242-.572 1.248-.117 2.054.455.806.559 1.508l.182.13q.702-1.04.806-1.794h.26q.026.598.338 1.248l.182 1.638-.442 1.274h-2.262v.624h6.526v-.624h-.546l.416-1.274.026-.962q.468-.156.702-.364.338.312.754.312-.026.26.104.442 1.04.806 3.718 1.404l.91 1.768q0-.434.27-.434.085 0 .198.044l-.728-1.3q1.508.338 2.288.858.416.442-.052 1.066 1.04-.442 1.17-1.248-.416-3.926-7.046-5.46l-.468.78h-.416q-.338-1.092-2.678-1.508.522-.388 1.285-.388.414 0 .9.115.491.116.96.116.844 0 1.613-.376 1.196-.585 6.084-6.461-.9-1.136-1.905-1.136-.329 0-.669.122L19.066 7.08V.034Q18.831 0 18.617 0z"/><path d="M37.458.375c-9.625 0-9.625 17.25 0 17.25m0 0" fill="none" stroke="#000"/><path d="M43.68 12.703c-.681.054-1.058.394-1.13 1.022.09.68.467 1.04 1.13 1.075.663-.036 1.013-.394 1.049-1.075-.054-.628-.404-.968-1.049-1.022zm.08-2.259c.485 0 .933.09 1.345.269a3.545 3.545 0 0 1 1.828 1.815c.18.403.27.83.27 1.277 0 .466-.09.901-.27 1.304a3.422 3.422 0 0 1-3.173 2.03c-.483 0-.936-.085-1.357-.255a3.235 3.235 0 0 1-1.09-.712 3.495 3.495 0 0 1-.725-1.063 3.174 3.174 0 0 1-.27-1.304c0-.448.09-.874.27-1.277a3.67 3.67 0 0 1 .726-1.076c.304-.313.667-.56 1.089-.739.421-.18.874-.269 1.358-.269zm-.053-.914c-.592 0-1.147.112-1.667.336-.52.224-.968.529-1.345.914a4.48 4.48 0 0 0-.9 1.345 4.071 4.071 0 0 0-.337 1.653c0 .592.112 1.143.336 1.654.225.511.525.955.901 1.331A4.267 4.267 0 0 0 43.707 18c.591 0 1.143-.112 1.654-.336a4.48 4.48 0 0 0 1.344-.9 4.21 4.21 0 0 0 .914-1.332 4.07 4.07 0 0 0 .336-1.654c0-.591-.112-1.142-.336-1.653a4.358 4.358 0 0 0-2.258-2.259 4.071 4.071 0 0 0-1.654-.336zm8.445-8.24l4.851.271c.086.939.043 1.988-.128 3.146-1.81-1-3.384-2.139-4.723-3.417zM57.416 0c-.27 0-.548.175-.836.524l-5.242-.27c-1.239.32-1.491.816-.758 1.489.142-.031.27-.047.38-.047.272 0 .45.094.53.282.115.264.423.609.925 1.034.502.426 1.862 1.304 4.081 2.636.262.657.552.986.869.986.148 0 .302-.072.463-.216 3.154 1.36 6.202 2.312 9.142 2.853l.415-.325-1.013-1.077c-2.159-.187-4.97-1.026-8.432-2.517a8.956 8.956 0 0 1-.06-3.67l5.87.393c.872-.218.937-.67.194-1.354L58.166.48c-.242-.32-.492-.48-.75-.48zm1.362 14.1q3.107 0 6.59 1.501-3.483 1.46-6.59 1.46-3.087 0-6.591-1.46 3.504-1.501 6.59-1.501zm0-.96q-3.838 0-8.823 2.44Q54.94 18 58.778 18q3.837 0 8.822-2.42-4.964-2.44-8.822-2.44zM78.803.699q1.265.749 1.265 2.247h-2.52q0-1.498 1.255-2.247zm1.265 2.946q-.283 1.002-1.265 1.002t-1.235-1.002zm7.27 1.751v1.195h-17.06V5.396zM78.803 0q-1.934.729-1.934 3.128 0 .912.395 1.519H69.6v2.642h18.406V4.647h-7.634q.395-.607.395-1.519 0-2.4-1.964-3.128zm-4.837 14.172c1.074 0 2.419.552 3.069 1.202.57.57.644 1.324.664 2.025h-7.435c.021-.701.096-1.456.665-2.025.65-.65 1.963-1.202 3.037-1.202zm0-.601c-1.274 0-2.645.588-3.448 1.392-.825.824-.918 1.909-.918 2.72V18h8.732v-.316c0-.812-.062-1.897-.886-2.721-.803-.804-2.206-1.392-3.48-1.392zm13.129-2.921v6.46h-4.333v-6.46zm-5.224-.911V18h6.135V9.739z"/><path d="M97.693.375v17.25M90.006.375c9.625 0 9.625 17.25 0 17.25" fill="none" stroke="#000"/><path d="M105.663.597c.269.002.505.041.692.109-.031.223-.169.569-.953.773.73-.053 1.206-.113 1.452-.307.09.2.137.427.159.556a.297.297 0 0 0 .206.237c.625.191 1.174 1.112 1.7 1.763.95 1.173 1.771 2.48 2.688 3.733-.423-.207-.845-.415-1.27-.622-1.182-.622-2.395-1.11-3.407-1.877-.588-.49-1.172-.996-1.39-1.641-.076-.497.296-1.074.767-1.279a.297.297 0 1 0-.238-.545c-.377.164-.7.458-.904.817.01-.152.032-.308.075-.448a.297.297 0 0 0 .013-.104 1.372 1.372 0 0 0-.083-.422c-.04-.109-.084-.206-.157-.459a.297.297 0 0 0-.105-.153 1.53 1.53 0 0 1 .528-.125c.042-.003.083-.003.124-.004a.258.258 0 1 0 .103-.002zm1.194 5.432c.605.466 1.253.873 1.888 1.28-.005.438.006.879.046 1.321a2.215 2.215 0 0 0-.697-.3c-.39-.636-.82-1.22-1.082-1.842a4.553 4.553 0 0 1-.155-.46zm-.25 1c.274.549.622 1.04.93 1.529-.06.04-.113.08-.155.121l-.028.027a1.713 1.713 0 0 0-.613-.454c.01-.348-.047-.768-.133-1.222zm2.881.047a25.922 25.922 0 0 1 .588.297c.78.38 1.56.772 2.35 1.148.556.67 1.156 1.293 1.734 1.92l-1.043.175-2.563-2.786a.297.297 0 0 0-.04-.036 19.147 19.147 0 0 0-1.026-.718zm-2.591 2.009c.057.066.111.14.161.222a.298.298 0 0 0 .43.087c.124-.09.2-.177.265-.244l.077 1.413c-.1-.006-.201-.013-.296-.013-.167 0-.313.022-.398.108-.1-.078-.28-.1-.504-.1-.058 0-.118.002-.18.005l.445-1.478zm-5.42.999c.453.062.687.323.705.783h-1.395c0-.46.23-.721.69-.783zm7.862-2.39c.273.182.541.367.797.56l2.403 2.613h-2.456c-.171-.19-.519-.365-.776-.365a.366.366 0 0 0-.192.046 2.987 2.987 0 0 0-.256-.01c-.14 0-.286.007-.433.016l-.083-1.506c.224.115.407.282.625.542a.297.297 0 0 0 .52-.246 9.753 9.753 0 0 1-.15-1.65zm-6.24 3.745l-.266.465h-1.249l-.252-.465zm4.515 0v2.51l-1.726-2.51zM105.67 0a3.878 3.878 0 0 0-.272.01c-.694.044-1.215.325-1.408.768a.298.298 0 0 0 .34.408l.025-.006.03.007.109.029c.054.168.095.269.12.332a.541.541 0 0 1 .042.2 3.112 3.112 0 0 0-.037 1.389c.095.466.384.977.761 1.46a.295.295 0 0 0 .014.108c.183.559.396 1.318.548 2.027.152.708.233 1.387.192 1.684a.3.3 0 0 0 .223.33l.019.005-.527 1.75a1.787 1.787 0 0 0-.26-.018c-.256 0-.509.041-.712.041a.865.865 0 0 1-.183-.016.314.314 0 0 0-.068-.007c-.212 0-.657.13-.787.366h-1.1c-.061-.797-.482-1.235-1.261-1.315-.788.08-1.196.518-1.222 1.315v.572h.531l.545 1.01h1.766l.532-1.01h1.567l2.404 3.493V18h.571v-6.561h4.516v-.41l.1.109a.297.297 0 0 0 .268.092l1.74-.292a.298.298 0 0 0 .173-.492 49.17 49.17 0 0 0-.656-.716l1.656 1.078a.296.296 0 0 0 .412-.087.297.297 0 0 0-.087-.411l-1.345-.876a.292.292 0 0 0 .076-.09.315.315 0 0 0 .02-.237c-.016-.05-.034-.074-.048-.093-.055-.076-.084-.088-.123-.119a2.938 2.938 0 0 0-.131-.094c-.096-.065-.206-.137-.301-.2a4.156 4.156 0 0 1-.216-.156l-2.379-1.672-.008-.005c-.805-1.13-1.568-2.316-2.457-3.414-.433-.535-.938-1.524-1.812-1.894-.048-.262-.157-.68-.484-.997-.353-.344-.863-.463-1.416-.463zm13.976 0l-1.222 1.222v.707l1.753-1.752.177-.177zm3 0l-4.222 4.222v.707l4.753-4.752.177-.177zm3 0l-7.222 7.222v.707l7.753-7.752.177-.177zm3 0l-10.222 10.222v.707L129.177.177l.177-.177zm3 0l-13.222 13.222v.707L132.177.177l.177-.177zm3 0l-16.222 16.222v.707L135.177.177l.177-.177zm3 0l-17.823 17.823-.177.177h.708L138.177.177l.177-.177zm2.778.222l-17.6 17.601-.178.177h.708L140.424.93V.221zm0 3l-14.6 14.601-.178.177h.708l14.07-14.07v-.708zm0 3l-11.6 11.601-.178.177h.708l11.07-11.07v-.708zm0 3l-8.6 8.601-.178.177h.708l8.07-8.07v-.708zm0 3l-5.6 5.601-.178.177h.708l5.07-5.07v-.708zm0 3l-2.6 2.601-.178.177h.708l2.07-2.07v-.708z"/><path d="M140.646 0l-.222.222V.93l.753-.752.177-.177zm1.778 1.222l-2 2v.707l2-2v-.707zm0 3l-2 2v.707l2-2v-.707zm0 3l-2 2v.707l2-2v-.707zm0 3l-2 2v.707l2-2v-.707zm0 3l-2 2v.707l2-2v-.707zm0 3l-1.6 1.601-.178.177h.708l1.07-1.07v-.708zm14.434-8.764v1.656c-.565 0-.848-.283-.848-.848 0-.539.283-.808.848-.808zM158.953 0c-.463 0-.855.116-1.176.35-.613.443-.919 1.09-.919 1.938v4.584c-.942 0-1.42.465-1.434 1.394 0 .942.478 1.413 1.434 1.413V18h.746V2.732c0-1.023.2-1.68.596-1.969.206-.15.476-.225.839-.225.337 0 .753.065 1.273.195a.65.65 0 0 0 .212.043c.11 0 .188-.048.232-.144.013-.162-.108-.276-.364-.343-.538-.193-1.018-.289-1.439-.289zm8.067 5.565c3.71 0 3.71-5.565 0-5.565s-3.71 5.565 0 5.565zm-1.221 4.062c-5.438 1.9-2.904 9.54 2.195 8.228 5.054-1.302 4.045-9.318-2.195-8.228m.243.698c5.417-.787 5.639 5.768 1.708 6.812-3.846 1.022-6.482-5.13-1.708-6.812m1.189 1.152c1.082-.74-.885-.487 0-.018v.018m-1.986.433c1.227-.397-.343-.795 0-.073v.073m2.993-.712v.732l.73-.244-.73-.488m-3.571 2.066c.903-.795-.595-.885-.108-.09l.108.09m2.839-.846l-.244.731.732-.487-.488-.244m-1.052.358l-.072-.017c-.668-.489-1.39 1.767.072.017m3.014-.397c-.957.56.162.703.253.703l-.253-.703m-2.938 1.502l.244.244.488-.732-.732.488m1.674-.474l-.468.019c.559.866.757.793.468-.019m-3.68 1.517c.883-.74-.434-.632-.416-.488l.415.488m1.01-.903l.221.305c.718-.215.34-.792-.22-.305m3.435.836l.244.244.488-.732-.732.488m-1.323.012c-.759-.378-.92-.27-.47.344l.47-.344m-2.58.72l.245.731.488-.732h-.732m3.246-.465l-.45.54c.107.217 1.1.145.45-.54m-1.54.71l-.243.731h.732l-.488-.732zm6.443-5.183V18h.735v-7.35zm4.37 0V18h.735v-7.35zm5.518 7.418c3.71 0 3.71-5.565 0-5.565s-3.71 5.565 0 5.565zm4.714-7.418V18h.736v-7.35zm4.371 0V18h.735v-7.35zM194.924 0v.43l.253-.253.177-.177zm2.722 0l-2.722 2.722v.707l3.253-3.252.177-.177zm3 0l-5.722 5.722v.707l6.253-6.252.177-.177zm3 0l-8.722 8.722v.707l9.253-9.252.177-.177zm2.278.722l-11 11v.707l11-11V.722zm0 3l-11 11v.707l11-11v-.707zm0 3l-11 11V18h.43l10.57-10.57v-.708zm0 3l-8.1 8.101-.178.177h.708l7.57-7.57v-.708zm0 3l-5.1 5.101-.178.177h.708l4.57-4.57v-.708zm0 3l-2.1 2.101-.178.177h.708l1.57-1.57v-.708zm4.783 2.346c3.71 0 3.71-5.565 0-5.565s-3.71 5.565 0 5.565zM215.421 0v5.079h.508V0zm3.02 0v5.079h.508V0zm3.02 0v5.079h.508V0zm-6.04 6.46v5.08h.508V6.46zm3.02 0v5.08h.508V6.46zm3.02 0v5.08h.508V6.46zm-6.04 6.461V18h.508v-5.079zm3.02 0V18h.508v-5.079zm3.02 0V18h.508v-5.079z"/></svg>