<svg xmlns="http://www.w3.org/2000/svg" width="48.564" height="18"><path d="M11.116 8.203c-.51.04-.793.296-.847.767.067.51.35.78.847.806.498-.026.76-.295.787-.806-.04-.47-.303-.726-.787-.767zm.06-1.694c.364 0 .7.068 1.01.202a2.659 2.659 0 0 1 1.371 1.361c.134.303.201.622.201.958 0 .35-.067.676-.202.978a2.567 2.567 0 0 1-2.38 1.523c-.362 0-.702-.064-1.018-.192a2.426 2.426 0 0 1-.816-.534 2.621 2.621 0 0 1-.545-.797 2.38 2.38 0 0 1-.202-.978c0-.336.068-.655.202-.958.134-.302.316-.571.545-.806.228-.236.5-.42.816-.555a2.574 2.574 0 0 1 1.019-.202zm-.04-.685c-.443 0-.86.084-1.25.252-.39.168-.726.396-1.008.685a3.36 3.36 0 0 0-.676 1.009 3.053 3.053 0 0 0-.252 1.24c0 .444.084.857.252 1.24.168.384.393.716.676.999a3.2 3.2 0 0 0 2.258.927c.444 0 .857-.084 1.24-.252a3.36 3.36 0 0 0 1.009-.675c.289-.283.518-.615.686-.999.168-.383.252-.796.252-1.24 0-.444-.084-.857-.252-1.24a3.268 3.268 0 0 0-1.694-1.694 3.053 3.053 0 0 0-1.24-.252zm9.248 1.224h.15q1.868 0 3.562 1.606l-1.048.848q-.982-.937-2.565-.937t-2.564.937l-1.048-.848q1.672-1.606 3.513-1.606zm.1 2.164q1.76.022 2.898 1.85h-5.82q.892-1.828 2.921-1.85zm0-2.854q-2.766.111-4.661 2.274l1.583 1.338q-.669.892-.825 1.672h7.782q-.156-.78-.825-1.65l1.472-1.338q-1.762-2.185-4.527-2.296zm12.928-3.584q.95.562.95 1.686H32.47q0-1.124.942-1.686zm.95 2.21q-.213.751-.95.751t-.926-.751zm5.451 1.313v.896H27.019v-.896zM33.412 2.25q-1.45.547-1.45 2.346 0 .684.296 1.14H26.51v1.981h13.804V5.735H34.59q.296-.455.296-1.139 0-1.8-1.473-2.346zm-3.628 10.629c.806 0 1.814.414 2.302.902.427.426.483.992.498 1.518h-5.576c.016-.526.072-1.092.498-1.518.488-.488 1.473-.902 2.278-.902zm0-.451c-.955 0-1.983.441-2.586 1.044-.618.618-.688 1.432-.688 2.04v.238h6.549v-.237c0-.61-.046-1.423-.664-2.04-.603-.604-1.655-1.045-2.61-1.045zm9.846-2.191v4.845h-3.25v-4.845zm-3.917-.683v6.196h4.601V9.554z"/><path d="M27.396 2.25l-.886.887v.707l1.417-1.417.177-.177zm3 0L26.51 6.137v.707l4.417-4.417.177-.177zm3 0L26.51 9.137v.707l7.417-7.417.177-.177zm3 0l-9.886 9.887v.707L36.927 2.427l.177-.177zm3 0L26.51 15.137v.613h.094L39.927 2.427l.177-.177zm.918 2.082l-11.24 11.241-.178.177h.708l10.71-10.71v-.708zm0 3l-8.24 8.241-.178.177h.708l7.71-7.71v-.708zm0 3l-5.24 5.241-.178.177h.708l4.71-4.71v-.708zm0 3l-2.24 2.241-.178.177h.708l1.71-1.71v-.708z"/><path d="M7.95.375c-9.625 0-9.625 17.25 0 17.25m0-17.25h32.364M7.95 17.625h32.364M48.002.375v17.25M40.314.375c9.625 0 9.625 17.25 0 17.25" fill="none" stroke="#000"/></svg>