<svg xmlns="http://www.w3.org/2000/svg" width="231.939" height="18"><path d="M2.097 0c-.335 0-.67.026-.995.066-.447.113-.217.626.18.626a.476.476 0 0 0 .082-.008c.84.097 1.872.15 2.506.626.841.916.463 2.821.561 3.725.007.05.01 3.653.01 5.48a6.145 6.145 0 0 0-2.635-.586 6.04 6.04 0 0 0-1.187.117c-.441.231.076.528.422.528.041 0 .08-.004.115-.013 1.226.133 2.62.461 3.243 1.602.061.206.023.277-.071.277-.206 0-.68-.342-.946-.342-.014 0-.028 0-.04.003a7.535 7.535 0 0 0-1.58-.169c-.39 0-.777.031-1.15.095-.42.278.097.534.439.534a.532.532 0 0 0 .105-.01c1.251.151 2.636.49 3.243 1.633.007 1.27 0 2.11.033 3.278-.014.36.22.538.456.538.235 0 .473-.176.475-.526-.009-1.15-.091-2.161.06-3.277.304-1.253 2.477-1.445 3.827-1.754.294-.347-.285-.475-.659-.475-.055 0-.107.003-.15.008a6.823 6.823 0 0 0-.521-.02c-.882 0-1.771.175-2.557.58-.032-.755.711-1.19 1.244-1.493.84-.361 1.765-.397 2.643-.59.313-.273-.18-.501-.521-.501a.58.58 0 0 0-.125.012 6.767 6.767 0 0 0-.648-.031c-.903 0-1.805.183-2.614.582.016-2.851.062-5.61-.02-8.308-.065-.834-.546-1.6-1.354-1.849C3.388.094 2.741 0 2.097 0zm23.495 2.99q.557 0 1.086.606-4.368 5.2-5.46 5.81-.814.457-1.434.457-.21 0-.399-.053-.74-.208-1.586-.234h-.042q-.828 0-1.817.988h-.13q.702-1.638 1.963-2.34 1.261-.702 7.397-5.148.213-.085.422-.085zM17.86.622q.066 0 .133.01v6.683Q15.94 8.51 15.16 10.668q1.196-8.268 1.677-9.204Q17.27.62 17.861.62zM12.505 11.09q-.08 0-.153.138-.13.247.234.689.208-.546.052-.741-.069-.086-.133-.086zm.037-.372q.153 0 .33.237.39.52-.234 2.08-.702-1.352-.429-1.976.149-.34.333-.34zm6.804 2.577v.39q-.286-.026-.442-.182.052-.078.208-.208zm.598.884l2.418.338.494.884q-.832-.234-1.833-.624-1-.39-1.079-.598zm-5.33-.364l.468.234.156 1.118-.416 1.274h-.65l.442-1.274v-1.352zm1.118.39l.442.13.156.832-.416 1.274h-.65l.442-1.274.026-.962zm1.534.156l.156.806-.416 1.274h-.65l.442-1.274v-.78l.468-.026zm-.994-3.234q.415 0 .89.1 1.404.3 1.768 1.418h1.092l.416-.676q5.512 1.274 6.214 4.602-1.508-.832-3.172-1.118l-.728-1.456-2.886-.39.078-.702h-.988q-1.092.9-2.228.9-.243 0-.489-.042-1.391-.234-1.82-.95-.429-.714.455-1.3.585-.386 1.398-.386zM18.117 0q-.947 0-1.488.658-.663.806-1.235 4.238l-.91 5.954q-.442.468-.676.52h-.312q-.026-.65-.494-1.196-.416-3.978.364-6.968l-.312-.598q-1.118 3.38-.546 7.592h-.078q-1.794-4.03-.52-7.592l-.312-.468q-1.664 3.796.364 8.242-.572 1.248-.117 2.054.455.806.559 1.508l.182.13q.702-1.04.806-1.794h.26q.026.598.338 1.248l.182 1.638-.442 1.274h-2.262v.624h6.526v-.624h-.546l.416-1.274.026-.962q.468-.156.702-.364.338.312.754.312-.026.26.104.442 1.04.806 3.718 1.404l.91 1.768q0-.434.27-.434.085 0 .198.044l-.728-1.3q1.508.338 2.288.858.416.442-.052 1.066 1.04-.442 1.17-1.248-.416-3.926-7.046-5.46l-.468.78h-.416q-.338-1.092-2.678-1.508.522-.388 1.285-.388.414 0 .9.115.491.116.96.116.844 0 1.613-.376 1.196-.585 6.084-6.461-.9-1.136-1.905-1.136-.329 0-.669.122L18.566 7.08V.034Q18.331 0 18.117 0z"/><path d="M36.458.375c-9.625 0-9.625 17.25 0 17.25m0 0" fill="none" stroke="#000"/><path d="M2.646 0L.45 2.196v.708L3.177.177 3.354 0zm3 0L.45 5.196v.708L6.177.177 6.354 0zm3 0L.45 8.196v.708L9.177.177 9.354 0zm3 0l-9 9h.708L12.177.177 12.354 0zm3 0l-9 9h.708L15.177.177 15.354 0zm3 0l-9 9h.708L18.177.177 18.354 0zm3 0l-9 9h.708L21.177.177 21.354 0zm3 0l-9 9h.708L24.177.177 24.354 0zm3 0l-9 9h.708L27.177.177 27.354 0zm3 0L18.454 11.192v.707L30.177.177 30.354 0zm3 0L18.454 14.192v.707L33.177.177 33.354 0zm3 0L18.454 17.192v.707L36.177.177 36.354 0zm.812 2.188L20.823 17.823l-.177.177h.708L36.458 2.895v-.707zm0 3L23.823 17.823l-.177.177h.708L36.458 5.895v-.707zm0 3l-9.635 9.635-.177.177h.708l9.104-9.105v-.707zm0 3l-6.635 6.635-.177.177h.708l6.104-6.105v-.707zm0 3l-3.635 3.635-.177.177h.708l3.104-3.105v-.707zm0 3l-.635.635-.177.177h.708l.104-.105v-.707zm6.222-4.485c-.681.054-1.058.394-1.13 1.022.09.68.467 1.04 1.13 1.075.663-.036 1.013-.394 1.049-1.075-.054-.628-.404-.968-1.049-1.022zm.08-2.259c.485 0 .933.09 1.345.269a3.545 3.545 0 0 1 1.828 1.815c.18.403.27.83.27 1.277 0 .466-.09.901-.27 1.304a3.422 3.422 0 0 1-3.173 2.03c-.483 0-.936-.085-1.357-.255a3.235 3.235 0 0 1-1.09-.712 3.495 3.495 0 0 1-.725-1.063 3.174 3.174 0 0 1-.27-1.304c0-.448.09-.874.27-1.277a3.67 3.67 0 0 1 .726-1.076c.304-.313.667-.56 1.089-.739.421-.18.874-.269 1.358-.269zm-.053-.914c-.592 0-1.147.112-1.667.336-.52.224-.968.529-1.345.914a4.48 4.48 0 0 0-.9 1.345 4.071 4.071 0 0 0-.337 1.653c0 .592.112 1.143.336 1.654.225.511.525.955.901 1.331A4.267 4.267 0 0 0 42.707 18c.591 0 1.143-.112 1.654-.336a4.48 4.48 0 0 0 1.344-.9 4.21 4.21 0 0 0 .914-1.332 4.07 4.07 0 0 0 .336-1.654c0-.591-.112-1.142-.336-1.653a4.358 4.358 0 0 0-2.258-2.259 4.071 4.071 0 0 0-1.654-.336z"/><path d="M38.646 9l-.188.188v.707l.719-.718.177-.177zm3 0l-3.188 3.188v.707l3.719-3.718.177-.177zm3 0l-6.188 6.188v.707l6.719-6.718.177-.177zm2.31.691l-8.133 8.132-.177.177h.708l7.601-7.602v-.707zm0 3l-5.133 5.132-.177.177h.708l4.601-4.602v-.707zm0 3l-2.133 2.132-.177.177h.708l1.601-1.602v-.707zM51.152 1.29l4.851.271c.086.939.043 1.988-.128 3.146-1.81-1-3.384-2.139-4.723-3.417zM56.416 0c-.27 0-.548.175-.836.524l-5.242-.27c-1.239.32-1.491.816-.758 1.489.142-.031.27-.047.38-.047.272 0 .45.094.53.282.115.264.423.609.925 1.034.502.426 1.862 1.304 4.081 2.636.262.657.552.986.869.986.148 0 .302-.072.463-.216 3.154 1.36 6.202 2.312 9.142 2.853l.415-.325-1.013-1.077c-2.159-.187-4.97-1.026-8.432-2.517a8.956 8.956 0 0 1-.06-3.67l5.87.393c.872-.218.937-.67.194-1.354L57.166.48c-.242-.32-.492-.48-.75-.48zm1.362 14.1q3.107 0 6.59 1.501-3.483 1.46-6.59 1.46-3.087 0-6.591-1.46 3.504-1.501 6.59-1.501zm0-.96q-3.838 0-8.823 2.44Q53.94 18 57.778 18q3.837 0 8.822-2.42-4.964-2.44-8.822-2.44z"/><path d="M50.646 9l-1.69 1.691v.707l2.22-2.221.178-.177zm3 0l-4.69 4.691v.707l5.22-5.221.178-.177zm3 0l-7.69 7.691v.707l8.22-8.221.178-.177zm3 0l-8.823 8.823-.177.177h.708l8.823-8.823.177-.177zm3 0l-8.823 8.823-.177.177h.708l8.823-8.823.177-.177zm3 0l-8.823 8.823-.177.177h.708l8.823-8.823.177-.177zm.954 2.046l-6.777 6.777-.177.177h.708l6.246-6.247v-.707zm0 3l-3.777 3.777-.177.177h.708l3.246-3.247v-.707zm0 3l-.777.777-.177.177h.708l.246-.247v-.707zm3-12.654q-.12 0-.287.147-.662.89-.713 2.544.204 1.298.916 3.665-.254 1.908-.382 5.242-.101 1.12.611 1.45 2.112.56 5.344.56 3.257 0 5.344-.56.738-.33.636-1.45-.127-3.334-.382-5.242.713-2.367.916-3.665-.05-1.654-.712-2.544-.168-.147-.288-.147-.172 0-.246.3.178.508.33.992.204.61.153 1.145-.05.865-.165 1.412-.115.547-.471.547l-.038.002q-.598 0-.598-1.605 0-.585.152-1.425-.13-.223-.282-.223-.143 0-.303.198-.076.61-.102 1.348-.102 1.12.535 3.156-.23 2.875-.23 5.75-1.73.28-4.249.357-2.494-.076-4.224-.356 0-2.876-.23-5.751.637-2.036.535-3.156-.025-.738-.102-1.348-.16-.198-.302-.198-.152 0-.283.223.153.84.153 1.425 0 1.605-.599 1.605L70 8.788q-.357 0-.471-.547-.115-.547-.166-1.412-.05-.535.153-1.145.153-.484.331-.993-.075-.3-.247-.3zm14.003 6.288V18h1.225v-7.32zm7.105 1.067q-.207 0-.449.171.181.132.132.314.094.113.205.113.082 0 .174-.064.071-.117.302-.117.092 0 .21.018-.244-.435-.574-.435zm.11-.18q.344 0 .629.286.676.065 1.17.379.592.404 3.09.404.358 0 .753-.008 3.464.099 4.404.313t3.068 1.138l1.567 1.056q1.336.742 2.11 1.17.776.43 2.442 1.172-.08.012-.179.012-1.314 0-6.023-2.239-.99-.544-1.913-.544-1.105-.116-1.847-.198l-.076-.001q-.514 0-.468.215-.116.28-.33.28-.907-.33-.907-1.038.033-.396.396-.43.105.014.2.014.514 0 .723-.376-.528-.099-.973-.115-.726.098-.89.923 0 .495-1.88.577-1.403 0-1.733.396-.99-.148-.99-.709.1-.726.743-.742l.56-.231v-.181q-.12-.121-.303-.121-.216 0-.52.17-.875.099-1.007 1.155-1.384-.966-1.834-.966h-.021l-.04.002q-.419 0-.876-.504l-.214.412-.314-.66-.082.544-.297-.643-.082.61-.363-.775-.132.677-.314-.776-.181.693-.247-.792-.248.512q-.341-.825.15-.825.197 0 .526.132.624-.125 1.35-.125.329 0 .68.026.389-.268.723-.268zm.035-.374q-.38 0-.693.247-.643-.041-1.159-.041-.515 0-.903.041-.406-.143-.68-.143-.546 0-.557.572-.066.214 0 .627l.314.23-.215.034q-.03.4.462.4.055 0 .116-.005 1.418.479 3.216.627 2.11 1.122 2.11 1.402 0 .248-.642.363-.952-.254-1.503-.254-.166 0-.295.023-.643.033-.33.858l.066-.198q.023-.147.169-.147.067 0 .16.031l.1.314q.107-.28.239-.28t.289.28q.044-.275.29-.275.122 0 .295.069.213.084.738.084.755 0 2.157-.175h.006q.113 0 .241-.577 0-.264 2.804-.347.181 0 .742.248 0 .247-.643.362-.952-.253-1.503-.253-.165 0-.295.023-.643.016-.313.857l.05-.214q.021-.132.168-.132.073 0 .178.033l.082.297q.106-.268.235-.268.134 0 .293.284.055-.275.304-.275.125 0 .298.07.213.084.735.084.751 0 2.143-.176h.007q.128 0 .24-.577.443-.062.877-.062 1.067 0 2.076.375 2.309 1.106 4.733 2.013 1.213.358 1.868.358.52 0 .689-.226.165-.33-.083-.594-.759-.33-1.798-.89-3.183-1.7-3.958-2.277-1.154-.726-2.029-1.039-1.764-.676-3.414-.858-5.756-.148-5.756-.214-1.65-.71-2.721-.71z"/><path d="M98.753 0v.6l.424-.423.177-.177zm2.893 0l-2.893 2.894V3.6l3.424-3.424.177-.177zm3 0l-5.893 5.894V6.6l6.424-6.424.177-.177zm3 0l-8.893 8.894V9.6l9.424-9.423.177-.177zm3 0L98.753 11.894v.707L110.677.676V0zm.031 2.97L98.753 14.893v.707l11.924-11.925V2.97zm0 3L98.823 17.822l-.07.07V18h.6l11.324-11.324V5.97zm0 3l-8.854 8.853-.177.177h.708l8.323-8.324V8.97zm0 3l-5.854 5.853-.177.177h.708l5.323-5.324v-.707zm0 3l-2.854 2.853-.177.177h.708l2.323-2.324v-.707zM113.646 0l-.969.97v.706l1.5-1.5.177-.176zm3 0l-3.969 3.97v.706l4.5-4.5.177-.176zm3 0l-6.969 6.97v.706l7.5-7.5.177-.176zm3 0l-9.969 9.97v.706l10.5-10.5.177-.176zm3 0l-12.969 12.97v.706l13.5-13.5.177-.176zm3 0l-15.969 15.97v.706l16.5-16.5.177-.176zm3 0l-17.823 17.823-.177.177h.708L132.177.177l.177-.177zm3 0l-17.823 17.823-.177.177h.708L134.677.676V0zm.031 2.97l-14.854 14.853-.177.177h.708l14.323-14.324V2.97zm0 3l-11.854 11.853-.177.177h.708l11.323-11.324V5.97zm0 3l-8.854 8.853-.177.177h.708l8.323-8.324V8.97zm0 3l-5.854 5.853-.177.177h.708l5.323-5.324v-.707zm0 3l-2.854 2.853-.177.177h.708l2.323-2.324v-.707z"/><path d="M134.677 0v.676l.5-.5.177-.176zm2 .97l-2 2v.706l2-2V.97zm0 3l-2 2v.706l2-2V3.97zm0 3l-2 2v.706l2-2V6.97zm0 3l-2 2v.706l2-2V9.97zm0 3l-2 2v.706l2-2v-.707zm0 3l-1.854 1.853-.146.146V18h.677l1.323-1.324v-.707zM137.646 0l-.969.97v.706l1.5-1.5.177-.176zm3 0l-3.969 3.97v.706l4.5-4.5.177-.176zm3 0l-6.969 6.97v.706l7.5-7.5.177-.176zm3 0l-9.969 9.97v.706l10.5-10.5.177-.176zm3 0l-12.969 12.97v.706l13.5-13.5.177-.176zm3 0l-15.969 15.97v.706l16.5-16.5.177-.176zm3 0l-17.823 17.823-.177.177h.708L156.177.177l.177-.177zm3 0l-17.823 17.823-.177.177h.708L158.677.676V0zm.031 2.97l-14.854 14.853-.177.177h.708l14.323-14.324V2.97zm0 3l-11.854 11.853-.177.177h.708l11.323-11.324V5.97zm0 3l-8.854 8.853-.177.177h.708l8.323-8.324V8.97zm0 3l-5.854 5.853-.177.177h.708l5.323-5.324v-.707zm0 3l-2.854 2.853-.177.177h.708l2.323-2.324v-.707zm0-14.97v.676l.5-.5.177-.176zm2 .97l-2 2v.706l2-2V.97zm0 3l-2 2v.706l2-2V3.97zm0 3l-2 2v.706l2-2V6.97zm0 3l-2 2v.706l2-2V9.97zm0 3l-2 2v.706l2-2v-.707zm0 3l-1.854 1.853-.146.146V18h.677l1.323-1.324v-.707zm1.434-8.512v1.656c-.565 0-.848-.283-.848-.848 0-.539.283-.808.848-.808zM164.206 0c-.463 0-.855.116-1.176.35-.612.443-.919 1.09-.919 1.938v4.584c-.942 0-1.42.465-1.434 1.394 0 .942.478 1.413 1.434 1.413V18h.747V2.732c0-1.023.198-1.68.595-1.969.206-.15.476-.225.839-.225.337 0 .754.065 1.273.195a.65.65 0 0 0 .212.043c.111 0 .188-.048.232-.144.013-.162-.108-.276-.364-.343-.538-.193-1.018-.289-1.439-.289zm8.067 5.565c3.71 0 3.71-5.565 0-5.565s-3.71 5.565 0 5.565zm-1.221 4.062c-5.438 1.9-2.904 9.54 2.195 8.228 5.054-1.302 4.046-9.318-2.195-8.228m.243.698c5.417-.787 5.64 5.768 1.708 6.812-3.846 1.022-6.482-5.13-1.708-6.812m1.189 1.152c1.082-.74-.885-.487 0-.018v.018m-1.986.433c1.227-.397-.343-.795 0-.073v.073m2.993-.712v.732l.73-.244-.73-.488m-3.57 2.066c.902-.795-.596-.885-.11-.09l.11.09m2.838-.846l-.244.731.732-.487-.488-.244m-1.052.358l-.072-.017c-.668-.489-1.39 1.767.072.017m3.014-.397c-.957.56.162.703.253.703l-.253-.703m-2.938 1.502l.244.244.488-.732-.732.488m1.675-.474l-.47.019c.56.866.758.793.47-.019m-3.682 1.517c.884-.74-.433-.632-.415-.488l.415.488m1.01-.903l.222.305c.717-.215.339-.792-.221-.305m3.435.836l.244.244.488-.732-.732.488m-1.323.012c-.759-.378-.92-.27-.47.344l.47-.344m-2.579.72l.244.731.488-.732h-.732m3.246-.465l-.45.54c.107.217 1.1.145.45-.54m-1.539.71l-.244.731h.732l-.488-.732zm6.442-6.653V18h.882V9.18zm5.244 0V18h.882V9.18z"/><path d="M179.646 9l-1.177 1.178v.707l1.708-1.708.177-.177zm3 0l-4.177 4.178v.707l4.708-4.708.177-.177zm1.95 1.051l-6.127 6.127v.707l6.126-6.127v-.707zm0 3l-4.773 4.772-.177.177h.708l4.241-4.242v-.707zm0 3l-1.773 1.772-.177.177h.708l1.241-1.242v-.707zM188.646 0l-2.05 2.051v.707l2.58-2.581.178-.177zm3 0l-5.05 5.051v.707l5.58-5.581.178-.177zm3 0l-8.05 8.051v.707l8.58-8.581.178-.177zm3 0l-11.05 11.051v.707L198.175.177l.178-.177zm3 0l-14.05 14.051v.707L201.175.177l.178-.177zm3 0l-17.05 17.051v.707L204.175.177l.178-.177zm3 0l-17.823 17.823-.177.177h.708L207.177.177l.177-.177zm1.95 1.051l-16.773 16.772-.177.177h.708l16.241-16.242v-.707zm0 3l-13.773 13.772-.177.177h.708l13.241-13.242v-.707zm0 3l-10.773 10.772-.177.177h.708l10.241-10.242v-.707zm0 3l-7.773 7.772-.177.177h.708l7.241-7.242v-.707zm0 3l-4.773 4.772-.177.177h.708l4.241-4.242v-.707zm0 3l-1.773 1.772-.177.177h.708l1.241-1.242v-.707zm4.782 2.017c3.71 0 3.71-5.565 0-5.565s-3.71 5.565 0 5.565zm4.715-7.418V18h.735v-7.35zm4.37 0V18h.735v-7.35zm4.37 0V18h.736v-7.35zm4.371 0V18h.735v-7.35z"/></svg>