<svg xmlns="http://www.w3.org/2000/svg" width="48.564" height="18"><path d="M11.116 8.203c-.51.04-.793.296-.847.767.067.51.35.78.847.806.498-.026.76-.295.787-.806-.04-.47-.303-.726-.787-.767zm.06-1.694c.364 0 .7.068 1.01.202a2.659 2.659 0 0 1 1.371 1.361c.134.303.201.622.201.958 0 .35-.067.676-.202.978a2.567 2.567 0 0 1-2.38 1.523c-.362 0-.702-.064-1.018-.192a2.426 2.426 0 0 1-.816-.534 2.621 2.621 0 0 1-.545-.797 2.38 2.38 0 0 1-.202-.978c0-.336.068-.655.202-.958.134-.302.316-.571.545-.806.228-.236.5-.42.816-.555a2.574 2.574 0 0 1 1.019-.202zm-.04-.685c-.443 0-.86.084-1.25.252-.39.168-.726.396-1.008.685a3.36 3.36 0 0 0-.676 1.009 3.053 3.053 0 0 0-.252 1.24c0 .444.084.857.252 1.24.168.384.393.716.676.999a3.2 3.2 0 0 0 2.258.927c.444 0 .857-.084 1.24-.252a3.36 3.36 0 0 0 1.009-.675c.289-.283.518-.615.686-.999.168-.383.252-.796.252-1.24 0-.444-.084-.857-.252-1.24a3.268 3.268 0 0 0-1.694-1.694 3.053 3.053 0 0 0-1.24-.252zm9.248 1.224h.15q1.868 0 3.562 1.606l-1.048.848q-.982-.937-2.565-.937t-2.564.937l-1.048-.848q1.672-1.606 3.513-1.606zm.1 2.164q1.76.022 2.898 1.85h-5.82q.892-1.828 2.921-1.85zm0-2.854q-2.766.111-4.661 2.274l1.583 1.338q-.669.892-.825 1.672h7.782q-.156-.78-.825-1.65l1.472-1.338q-1.762-2.185-4.527-2.296zm12.928.432q.95.562.95 1.686H32.47q0-1.124.942-1.686zm.95 2.21q-.213.752-.95.752T32.486 9zm5.451 1.314v.896H27.019v-.896zm-6.401-4.048q-1.45.547-1.45 2.347 0 .683.296 1.139H26.51v1.982h13.804V9.752H34.59q.296-.456.296-1.14 0-1.799-1.473-2.346z"/><path d="M7.95.375c-9.625 0-9.625 17.25 0 17.25m0-17.25h32.364M7.95 17.625h32.364M48.002.375v17.25M40.314.375c9.625 0 9.625 17.25 0 17.25" fill="none" stroke="#000"/></svg>