<svg xmlns="http://www.w3.org/2000/svg" width="248.687" height="18"><path d="M2.097 0c-.335 0-.67.026-.995.066-.447.113-.217.626.18.626a.476.476 0 0 0 .082-.008c.84.097 1.872.15 2.506.626.841.916.463 2.821.561 3.725.007.05.01 3.653.01 5.48a6.145 6.145 0 0 0-2.635-.586 6.04 6.04 0 0 0-1.187.117c-.441.231.076.528.422.528.041 0 .08-.004.115-.013 1.226.133 2.62.461 3.243 1.602.061.206.023.277-.071.277-.206 0-.68-.342-.946-.342-.014 0-.028 0-.04.003a7.535 7.535 0 0 0-1.58-.169c-.39 0-.777.031-1.15.095-.42.278.097.534.439.534a.532.532 0 0 0 .105-.01c1.251.151 2.636.49 3.243 1.633.007 1.27 0 2.11.033 3.278-.014.36.22.538.456.538.235 0 .473-.176.475-.526-.009-1.15-.091-2.161.06-3.277.304-1.253 2.477-1.445 3.827-1.754.294-.347-.285-.475-.659-.475-.055 0-.107.003-.15.008a6.823 6.823 0 0 0-.521-.02c-.882 0-1.771.175-2.557.58-.032-.755.711-1.19 1.244-1.493.84-.361 1.765-.397 2.643-.59.313-.273-.18-.501-.521-.501a.58.58 0 0 0-.125.012 6.767 6.767 0 0 0-.648-.031c-.903 0-1.805.183-2.614.582.016-2.851.062-5.61-.02-8.308-.065-.834-.546-1.6-1.354-1.849C3.388.094 2.741 0 2.097 0zm23.995 2.99q.557 0 1.086.606-4.368 5.2-5.46 5.81-.814.457-1.434.457-.21 0-.399-.053-.74-.208-1.586-.234h-.042q-.828 0-1.817.988h-.13q.702-1.638 1.963-2.34 1.261-.702 7.397-5.148.213-.085.422-.085zM18.36.622q.066 0 .133.01v6.683Q16.44 8.51 15.66 10.668q1.196-8.268 1.677-9.204Q17.77.62 18.361.62zM13.005 11.09q-.08 0-.153.138-.13.247.234.689.208-.546.052-.741-.069-.086-.133-.086zm.037-.372q.153 0 .33.237.39.52-.234 2.08-.702-1.352-.429-1.976.149-.34.333-.34zm6.804 2.577v.39q-.286-.026-.442-.182.052-.078.208-.208zm.598.884l2.418.338.494.884q-.832-.234-1.833-.624-1-.39-1.079-.598zm-5.33-.364l.468.234.156 1.118-.416 1.274h-.65l.442-1.274v-1.352zm1.118.39l.442.13.156.832-.416 1.274h-.65l.442-1.274.026-.962zm1.534.156l.156.806-.416 1.274h-.65l.442-1.274v-.78l.468-.026zm-.994-3.234q.415 0 .89.1 1.404.3 1.768 1.418h1.092l.416-.676q5.512 1.274 6.214 4.602-1.508-.832-3.172-1.118l-.728-1.456-2.886-.39.078-.702h-.988q-1.092.9-2.228.9-.243 0-.489-.042-1.391-.234-1.82-.95-.429-.714.455-1.3.585-.386 1.398-.386zM18.617 0q-.947 0-1.488.658-.663.806-1.235 4.238l-.91 5.954q-.442.468-.676.52h-.312q-.026-.65-.494-1.196-.416-3.978.364-6.968l-.312-.598q-1.118 3.38-.546 7.592h-.078q-1.794-4.03-.52-7.592l-.312-.468q-1.664 3.796.364 8.242-.572 1.248-.117 2.054.455.806.559 1.508l.182.13q.702-1.04.806-1.794h.26q.026.598.338 1.248l.182 1.638-.442 1.274h-2.262v.624h6.526v-.624h-.546l.416-1.274.026-.962q.468-.156.702-.364.338.312.754.312-.026.26.104.442 1.04.806 3.718 1.404l.91 1.768q0-.434.27-.434.085 0 .198.044l-.728-1.3q1.508.338 2.288.858.416.442-.052 1.066 1.04-.442 1.17-1.248-.416-3.926-7.046-5.46l-.468.78h-.416q-.338-1.092-2.678-1.508.522-.388 1.285-.388.414 0 .9.115.491.116.96.116.844 0 1.613-.376 1.196-.585 6.084-6.461-.9-1.136-1.905-1.136-.329 0-.669.122L19.066 7.08V.034Q18.831 0 18.617 0z"/><path d="M37.458.375c-9.625 0-9.625 17.25 0 17.25m0 0" fill="none" stroke="#000"/><path d="M43.68 12.703c-.681.054-1.058.394-1.13 1.022.09.68.467 1.04 1.13 1.075.663-.036 1.013-.394 1.049-1.075-.054-.628-.404-.968-1.049-1.022zm.08-2.259c.485 0 .933.09 1.345.269a3.545 3.545 0 0 1 1.828 1.815c.18.403.27.83.27 1.277 0 .466-.09.901-.27 1.304a3.422 3.422 0 0 1-3.173 2.03c-.483 0-.936-.085-1.357-.255a3.235 3.235 0 0 1-1.09-.712 3.495 3.495 0 0 1-.725-1.063 3.174 3.174 0 0 1-.27-1.304c0-.448.09-.874.27-1.277a3.67 3.67 0 0 1 .726-1.076c.304-.313.667-.56 1.089-.739.421-.18.874-.269 1.358-.269zm-.053-.914c-.592 0-1.147.112-1.667.336-.52.224-.968.529-1.345.914a4.48 4.48 0 0 0-.9 1.345 4.071 4.071 0 0 0-.337 1.653c0 .592.112 1.143.336 1.654.225.511.525.955.901 1.331A4.267 4.267 0 0 0 43.707 18c.591 0 1.143-.112 1.654-.336a4.48 4.48 0 0 0 1.344-.9 4.21 4.21 0 0 0 .914-1.332 4.07 4.07 0 0 0 .336-1.654c0-.591-.112-1.142-.336-1.653a4.358 4.358 0 0 0-2.258-2.259 4.071 4.071 0 0 0-1.654-.336zM51.7 0c-.93 0-1.745.684-1.745 1.562V18h1.136V1.562c0-.43.379-.57.617-.57.25 0 .634.175.634.703v10.804h1.136V1.695C53.478.815 52.607 0 51.7 0zm8.76.885q3.633.442 0 6.73-3.632-6.288 0-6.73zm0-.885q-5.03.35-.698 8.08h-4.284v1.095h4.238V18h1.443V9.128h4.285V8.08h-4.285Q65.49.326 60.461 0zm9.04 0l-2.056 2.43h1.002L69.5 1.174l1.063 1.256 1.033-1.256 1.063 1.256 1.053-1.256 1.063 1.256 1.053-1.256L76.89 2.43l1.032-1.256 1.063 1.256 1.063-1.256 1.033 1.256 1.063-1.256 1.053 1.256H84.2L82.144 0l-1.063 1.174L80.048 0l-1.063 1.174L77.922 0 76.89 1.174 75.827 0l-1.053 1.174L73.71 0l-1.053 1.174L71.595 0l-1.033 1.174L69.5 0zm6.321 9.853c1.19 0 2.251.55 2.942 1.41H72.88a3.76 3.76 0 0 1 2.941-1.41zm3.34 2.017c.227.432.373.914.417 1.425h-7.512a3.75 3.75 0 0 1 .416-1.425zm.42 2.032a3.75 3.75 0 0 1-.395 1.425h-6.729a3.75 3.75 0 0 1-.395-1.425zm-.78 2.033a3.762 3.762 0 0 1-2.98 1.458 3.763 3.763 0 0 1-2.979-1.458zm-2.98-6.69a4.383 4.383 0 0 0-4.377 4.378A4.383 4.383 0 0 0 75.821 18a4.383 4.383 0 0 0 4.378-4.377 4.383 4.383 0 0 0-4.378-4.378zm19.639 5.67c.296 0 .475.05.567.103.27.172.141.583.098.84h-1.33c-.032-.263-.177-.663.098-.84.092-.052.27-.103.567-.103zm-7.39 1.552v.924h-1.262v-.924zm6.556 0v.924h-6.252v-.924zm1.52 0v.924H94.93v-.924zm6.105 0v.924h-5.8v-.924zm1.632 0v.924h-1.329v-.924zM92.789 13.99l-.43.431 1.44 1.436h-7.6V18h18.292v-2.142h-7.37l1.44-1.436-.43-.43-1.331 1.326c-.08-.804-.631-.989-1.34-1.012-.757.02-1.222.192-1.34 1.012l-1.33-1.327zM108.236 0c-.93 0-1.745.684-1.745 1.562V18h1.136V1.562c0-.43.379-.57.617-.57.25 0 .633.175.633.703v10.804h1.136V1.695c0-.88-.87-1.695-1.777-1.695zm6.604.72c.67.051 1.245.203 1.725.456-.632.746-1.207 1.764-1.726 3.054-.53-1.29-1.112-2.308-1.744-3.054.493-.24 1.074-.392 1.744-.455zm0 4.894c.391 3.655.6 6.616.625 7.704-.025 1.846-.234 3.072-.626 3.68-.404-.608-.613-1.834-.625-3.68.012-1.1.22-4.062.625-7.704zm0-5.614c-1.29 0-2.232.392-2.827 1.176.898.746 1.619 1.903 2.163 3.47 0 .709-.143 2.634-.427 4.594-.285 1.96-.351 4.134-.2 6.524.327 1.49.717 2.236 1.172 2.236a.443.443 0 0 0 .118-.017c.04.011.08.017.12.017.454 0 .844-.745 1.17-2.236.14-2.39.067-4.564-.218-6.524-.284-1.96-.427-3.885-.427-4.593.557-1.568 1.284-2.725 2.182-3.471C117.059.392 116.116 0 114.839 0zm9.192.601c1.074 0 2.418.552 3.069 1.202.569.57.643 1.324.664 2.025h-7.435c.02-.7.095-1.455.664-2.025.65-.65 1.964-1.202 3.038-1.202zm0-.601c-1.275 0-2.645.589-3.449 1.392-.824.824-.917 1.91-.917 2.72v.317h8.732v-.316c0-.812-.062-1.897-.886-2.72C126.708.588 125.306 0 124.032 0zm-.218 9.982c-.11 0-.222.01-.334.02-1.61.172-2.753 1.802-2.5 3.381.111 1.175.84 1.833 1.64 2.48 2.379 1.459 1.71.922 4.11 2.137l.385-.719c-2.855-1.336-3.2-1.549-4.09-2.136-.73-.587-1.306-1.235-1.256-2.217-.02-.679.385-1.377.84-1.711.365-.274.83-.436 1.286-.436.345 0 .669.081.952.284.719.354 1.114 1.529.587 2.268a1.396 1.396 0 0 1-1.113.597 1.03 1.03 0 0 1-.608-.192c-.364-.203-.638-.911-.263-1.306-.172-.183-.415-.405-.597-.405-.122 0-.213.09-.274.303-.405.972.243 2.076 1.215 2.34.172.05.344.08.517.08 1.113 0 2.146-.931 2.146-2.085.101-1.347-.972-2.582-2.319-2.663a3.272 3.272 0 0 0-.324-.02z"/><path d="M138.085.375v17.25M130.398.375c9.625 0 9.625 17.25 0 17.25" fill="none" stroke="#000"/><path d="M146.055.597c.269.002.505.041.692.109-.031.223-.169.569-.953.773.73-.053 1.206-.113 1.452-.307.09.2.137.427.159.556a.297.297 0 0 0 .206.237c.624.191 1.173 1.112 1.7 1.763.95 1.173 1.771 2.48 2.688 3.733l-1.27-.622c-1.182-.622-2.395-1.11-3.407-1.877-.589-.49-1.172-.996-1.39-1.641-.076-.497.296-1.074.767-1.279a.297.297 0 1 0-.238-.545c-.377.164-.7.458-.904.817.01-.152.032-.308.075-.448a.297.297 0 0 0 .012-.104 1.372 1.372 0 0 0-.082-.422c-.04-.109-.084-.206-.157-.459a.297.297 0 0 0-.105-.153c.14-.062.316-.112.527-.125.043-.003.084-.003.125-.004a.258.258 0 1 0 .103-.002zm1.193 5.432c.606.466 1.253.873 1.888 1.28a13 13 0 0 0 .047 1.321 2.215 2.215 0 0 0-.697-.3c-.39-.636-.82-1.22-1.082-1.842a4.553 4.553 0 0 1-.156-.46zm-.248 1c.273.549.621 1.04.928 1.529-.059.04-.112.08-.155.121l-.027.027a1.713 1.713 0 0 0-.613-.454c.01-.348-.047-.768-.133-1.222zm2.88.047a25.922 25.922 0 0 1 .588.297c.78.38 1.56.772 2.349 1.148.556.67 1.157 1.293 1.735 1.92l-1.044.175-2.562-2.786a.297.297 0 0 0-.04-.036 19.147 19.147 0 0 0-1.026-.718zm-2.592 2.009c.058.066.112.14.162.222a.298.298 0 0 0 .43.087c.124-.09.2-.177.265-.244l.077 1.413c-.1-.006-.201-.013-.296-.013-.167 0-.313.022-.398.108-.1-.078-.28-.1-.504-.1-.058 0-.118.002-.18.005l.444-1.478zm-5.418.999c.451.062.686.323.704.783h-1.395c0-.46.23-.721.69-.783zm7.86-2.39c.274.182.542.367.798.56l2.403 2.613h-2.456c-.171-.19-.519-.365-.776-.365a.366.366 0 0 0-.192.046 2.987 2.987 0 0 0-.256-.01c-.14 0-.286.007-.434.016l-.082-1.506c.224.115.407.282.625.542a.297.297 0 0 0 .52-.246 9.753 9.753 0 0 1-.15-1.65zm-6.24 3.745l-.266.465h-1.248l-.252-.465zm4.516 0v2.51l-1.727-2.51zM146.062 0a3.878 3.878 0 0 0-.272.01c-.695.044-1.215.325-1.408.768a.298.298 0 0 0 .34.408l.025-.006.03.007.108.029c.055.168.096.269.12.332a.541.541 0 0 1 .042.2 3.112 3.112 0 0 0-.036 1.389c.095.466.384.977.761 1.46a.295.295 0 0 0 .014.108c.183.559.396 1.318.548 2.027.152.708.233 1.387.192 1.684a.3.3 0 0 0 .223.33l.019.005-.527 1.75a1.787 1.787 0 0 0-.26-.018c-.256 0-.509.041-.712.041a.865.865 0 0 1-.183-.016.314.314 0 0 0-.068-.007c-.212 0-.657.13-.787.366h-1.1c-.062-.797-.482-1.235-1.261-1.315-.788.08-1.196.518-1.222 1.315v.572h.53l.546 1.01h1.766l.531-1.01h1.568l2.404 3.493V18h.571v-6.561h4.516v-.41l.1.109a.297.297 0 0 0 .268.092l1.74-.292a.298.298 0 0 0 .173-.492 49.17 49.17 0 0 0-.657-.716l1.657 1.078a.296.296 0 0 0 .411-.087.297.297 0 0 0-.087-.411l-1.344-.876a.292.292 0 0 0 .076-.09.315.315 0 0 0 .02-.237.305.305 0 0 0-.048-.093c-.055-.076-.084-.088-.124-.119a2.938 2.938 0 0 0-.13-.094c-.096-.065-.206-.137-.301-.2a4.156 4.156 0 0 1-.217-.156l-2.378-1.672-.008-.005c-.806-1.13-1.568-2.316-2.457-3.414-.433-.535-.938-1.524-1.812-1.894-.048-.262-.157-.68-.484-.997-.353-.344-.863-.463-1.416-.463zm38.188 7.458v1.656c-.566 0-.848-.283-.848-.848 0-.539.282-.808.848-.808zM186.345 0c-.463 0-.855.116-1.176.35-.613.443-.919 1.09-.919 1.938v4.584c-.943 0-1.42.465-1.434 1.394 0 .942.478 1.413 1.434 1.413V18h.746V2.732c0-1.023.199-1.68.596-1.969.206-.15.476-.225.838-.225.337 0 .754.065 1.273.195a.65.65 0 0 0 .213.043c.11 0 .188-.048.232-.144.013-.162-.108-.276-.364-.343-.538-.193-1.018-.289-1.44-.289zm8.067 5.565c3.71 0 3.71-5.565 0-5.565s-3.71 5.565 0 5.565zm-1.222 4.062c-5.438 1.9-2.903 9.54 2.196 8.228 5.054-1.302 4.045-9.318-2.195-8.228m.243.698c5.417-.787 5.639 5.768 1.708 6.812-3.846 1.022-6.482-5.13-1.708-6.812m1.188 1.152c1.083-.74-.884-.487 0-.018v.018m-1.985.433c1.227-.397-.343-.795 0-.073v.073m2.993-.712v.732l.73-.244-.73-.488m-3.571 2.066c.903-.795-.595-.885-.109-.09l.109.09m2.839-.846l-.244.731.732-.487-.488-.244m-1.052.358l-.072-.017c-.668-.489-1.39 1.767.072.017m3.014-.397c-.957.56.162.703.253.703l-.253-.703m-2.938 1.502l.244.244.488-.732-.732.488m1.674-.474l-.468.019c.558.866.757.793.468-.019m-3.68 1.517c.883-.74-.434-.632-.416-.488l.415.488m1.01-.903l.221.305c.718-.215.34-.792-.22-.305m3.435.836l.244.244.488-.732-.732.488m-1.324.012c-.758-.378-.92-.27-.47.344l.47-.344m-2.578.72l.244.731.488-.732h-.732m3.246-.465l-.45.54c.106.217 1.1.145.45-.54m-1.54.71l-.243.731h.732l-.488-.732zm6.442-5.183V18h.736v-7.35zm4.371 0V18h.735v-7.35zm4.37 0V18h.736v-7.35zm5.518 7.418c3.71 0 3.71-5.565 0-5.565s-3.71 5.565 0 5.565zm4.714-7.418V18h.736v-7.35zm4.371 0V18h.736v-7.35zM227.646 0l-.96.96v.707l1.49-1.49.178-.177zm3 0l-3.96 3.96v.707l4.49-4.49.178-.177zm3 0l-6.96 6.96v.707l7.49-7.49.178-.177zm3 0l-9.96 9.96v.707l10.49-10.49.178-.177zm3 0l-12.96 12.96v.707l13.49-13.49.178-.177zm3 0l-15.96 15.96v.707l16.49-16.49.178-.177zm3 0l-17.823 17.823-.177.177h.708L246.177.177l.177-.177zm3 0l-17.823 17.823-.177.177h.708L248.687.667V0zm.04 2.96l-14.863 14.863-.177.177h.708l14.333-14.333V2.96zm0 3l-11.863 11.863-.177.177h.708l11.333-11.333V5.96zm0 3l-8.863 8.863-.177.177h.708l8.333-8.333V8.96zm0 3l-5.863 5.863-.177.177h.708l5.333-5.333v-.707zm0 3l-2.863 2.863-.177.177h.708l2.333-2.333v-.707z"/></svg>