<svg xmlns="http://www.w3.org/2000/svg" width="43.836" height="18"><path d="M11.116 8.203c-.51.04-.793.296-.847.767.067.51.35.78.847.806.498-.026.76-.295.787-.806-.04-.47-.303-.726-.787-.767zm.06-1.694c.364 0 .7.068 1.01.202a2.659 2.659 0 0 1 1.371 1.361c.134.303.201.622.201.958 0 .35-.067.676-.202.978a2.567 2.567 0 0 1-2.38 1.523c-.362 0-.702-.064-1.018-.192a2.426 2.426 0 0 1-.816-.534 2.621 2.621 0 0 1-.545-.797 2.38 2.38 0 0 1-.202-.978c0-.336.068-.655.202-.958.134-.302.316-.571.545-.806.228-.236.5-.42.816-.555a2.574 2.574 0 0 1 1.019-.202zm-.04-.685c-.443 0-.86.084-1.25.252-.39.168-.726.396-1.008.685a3.36 3.36 0 0 0-.676 1.009 3.053 3.053 0 0 0-.252 1.24c0 .444.084.857.252 1.24.168.384.393.716.676.999a3.2 3.2 0 0 0 2.258.927c.444 0 .857-.084 1.24-.252a3.36 3.36 0 0 0 1.009-.675c.289-.283.518-.615.686-.999.168-.383.252-.796.252-1.24 0-.444-.084-.857-.252-1.24a3.268 3.268 0 0 0-1.694-1.694 3.053 3.053 0 0 0-1.24-.252zm7.758-3.249c1.185 0 2.192.886 2.548 1.763l-1.08.159c-.271-.537-.816-.838-1.54-.838h-.018c-.698.004-1.246.36-1.44.838l-1.065-.242c.461-.985 1.527-1.674 2.581-1.68h.014zm-.02 1.952c.437 0 .658.274.658.799 0 .475-.221.985-.657 1.55-.436-.565-.657-1.075-.657-1.55 0-.525.221-.799.657-.799zm0 3.71c.36.527.476 1.398 0 2.277-.308-.683-.41-1.522 0-2.277zm0-5.987c-.663 0-1.27.2-1.83.587-.56.386-.974 1.003-1.221 1.855l1.432.094c-.03.158-.047.332-.047.54 0 .644.357 1.37 1.08 2.183-.287.555-.504 1.04-.493 1.69-.024.983.237 1.31.563 2.231l-1.901 4.32h.986l1.432-3.569 1.409 3.569h1.01l-1.903-4.32c.327-.921.551-1.222.54-2.23.011-.651-.195-1.136-.493-1.69.733-.813 1.104-1.54 1.104-2.184 0-.208-.03-.382-.07-.54l1.432-.094c-.248-.852-.633-1.469-1.198-1.855-.564-.386-1.177-.587-1.831-.587zm6.411.522q.695 0 .695.917 0 .806-.695 1.596-.696-.79-.696-1.596 0-.917.696-.917zm0 3.525q.49 0 .49 1.059 0 .6-.49 1.107-.49-.506-.49-1.107 0-1.06.49-1.06zm0 3.193q.49 0 .49 1.06 0 .6-.49 1.106-.49-.506-.49-1.107 0-1.059.49-1.059zm0-7.24q-1.265 0-1.265 1.439-.016.9.419 1.414.435.514.387.688-.553.648-.553 1.565 0 .759.648 1.628-.648.648-.648 1.565 0 .759.648 1.613.08.205-.442.964t-1.075 2.624h.695q.348-1.233.617-1.763.268-.53.569-.861.316.332.577.861.26.53.608 1.763h.712q-.522-1.865-1.067-2.624-.546-.759-.45-.964.631-.854.631-1.613 0-.917-.6-1.565.6-.87.6-1.628 0-.917-.537-1.565-.047-.174.38-.688.426-.513.426-1.414 0-1.439-1.28-1.439zm8.032.496l-.311.709q.666.135.95 1.34l1.077-.277v.674l-1.05.297q.008.993-.19 1.865-.206.871-.93 1.127-.36.124-.726.124-.365 0-.733-.124-.738-.256-.936-1.127-.206-.872-.184-1.865l-1.05-.297v-.674l1.07.277q.284-1.205.958-1.34l-.326-.709zM30.44 2.25q-.256 0-.036.496l.192.433q-.568.361-.71.999l-1.204-.361V5.61l1.134.326q0 1.02.29 2.041.298 1.021 2.02 1.248 1.723-.227 2.028-1.248.298-1.02.298-2.041l1.134-.326V3.817l-1.22.361q-.141-.638-.708-1l.191-.432q.227-.496-.035-.496zm1.265 8.375v5.125h.858v-5.125z"/><path d="M7.95.375c-9.625 0-9.625 17.25 0 17.25m0-17.25h27.636M7.95 17.625h27.636M43.273.375v17.25M35.586.375c9.625 0 9.625 17.25 0 17.25" fill="none" stroke="#000"/></svg>