<svg xmlns="http://www.w3.org/2000/svg" width="37.46" height="18"><path d="M11.116 8.203c-.51.04-.793.296-.847.767.067.51.35.78.847.806.498-.026.76-.295.787-.806-.04-.47-.303-.726-.787-.767zm.06-1.694c.364 0 .7.068 1.01.202a2.659 2.659 0 0 1 1.371 1.361c.134.303.201.622.201.958 0 .35-.067.676-.202.978a2.567 2.567 0 0 1-2.38 1.523c-.362 0-.702-.064-1.018-.192a2.426 2.426 0 0 1-.816-.534 2.621 2.621 0 0 1-.545-.797 2.38 2.38 0 0 1-.202-.978c0-.336.068-.655.202-.958.134-.302.316-.571.545-.806.228-.236.5-.42.816-.555a2.574 2.574 0 0 1 1.019-.202zm-.04-.685c-.443 0-.86.084-1.25.252-.39.168-.726.396-1.008.685a3.36 3.36 0 0 0-.676 1.009 3.053 3.053 0 0 0-.252 1.24c0 .444.084.857.252 1.24.168.384.393.716.676.999a3.2 3.2 0 0 0 2.258.927c.444 0 .857-.084 1.24-.252a3.36 3.36 0 0 0 1.009-.675c.289-.283.518-.615.686-.999.168-.383.252-.796.252-1.24 0-.444-.084-.857-.252-1.24a3.268 3.268 0 0 0-1.694-1.694 3.053 3.053 0 0 0-1.24-.252zm6.561-2.635l3.529.196c.062.683.03 1.446-.093 2.289-1.317-.728-2.462-1.556-3.436-2.485zm3.829-.939c-.196 0-.399.127-.608.381l-3.813-.197c-.9.233-1.085.595-.551 1.084.103-.023.196-.034.276-.034.198 0 .327.068.386.204.083.193.307.443.672.753.365.31 1.355.949 2.969 1.917.19.478.401.717.632.717.108 0 .22-.052.336-.157 2.295.99 4.511 1.682 6.65 2.075l.301-.236-.736-.784c-1.57-.135-3.614-.746-6.133-1.83a6.514 6.514 0 0 1-.043-2.67l4.269.286c.634-.159.681-.487.141-.984l-4.202-.176c-.176-.233-.358-.349-.546-.349zm.99 8.706q.92.545.92 1.635h-1.833q0-1.09.913-1.635zm.92 2.143q-.205.73-.92.73-.714 0-.898-.73zm5.288 1.274v.869H16.316v-.869zm-6.208-3.925q-1.406.53-1.406 2.276 0 .662.287 1.104h-5.574v1.922H29.21v-1.922h-5.552q.287-.442.287-1.104 0-1.746-1.429-2.276z"/><path d="M7.95.375c-9.625 0-9.625 17.25 0 17.25m0-17.25h21.26M7.95 17.625h21.26M36.897.375v17.25M29.21.375c9.625 0 9.625 17.25 0 17.25" fill="none" stroke="#000"/></svg>