<svg xmlns="http://www.w3.org/2000/svg" width="138.822" height="18"><path d="M2.097 0c-.335 0-.67.026-.995.066-.447.113-.217.626.18.626a.476.476 0 0 0 .082-.008c.84.097 1.872.15 2.506.626.841.916.463 2.821.561 3.725.007.05.01 3.653.01 5.48a6.145 6.145 0 0 0-2.635-.586 6.04 6.04 0 0 0-1.187.117c-.441.231.076.528.422.528.041 0 .08-.004.115-.013 1.226.133 2.62.461 3.243 1.602.061.206.023.277-.071.277-.206 0-.68-.342-.946-.342-.014 0-.028 0-.04.003a7.535 7.535 0 0 0-1.58-.169c-.39 0-.777.031-1.15.095-.42.278.097.534.439.534a.532.532 0 0 0 .105-.01c1.251.151 2.636.49 3.243 1.633.007 1.27 0 2.11.033 3.278-.014.36.22.538.456.538.235 0 .473-.176.475-.526-.009-1.15-.091-2.161.06-3.277.304-1.253 2.477-1.445 3.827-1.754.294-.347-.285-.475-.659-.475-.055 0-.107.003-.15.008a6.823 6.823 0 0 0-.521-.02c-.882 0-1.771.175-2.557.58-.032-.755.711-1.19 1.244-1.493.84-.361 1.765-.397 2.643-.59.313-.273-.18-.501-.521-.501a.58.58 0 0 0-.125.012 6.767 6.767 0 0 0-.648-.031c-.903 0-1.805.183-2.614.582.016-2.851.062-5.61-.02-8.308-.065-.834-.546-1.6-1.354-1.849C3.388.094 2.741 0 2.097 0zm23.995 2.99q.557 0 1.086.606-4.368 5.2-5.46 5.81-.814.457-1.434.457-.21 0-.399-.053-.74-.208-1.586-.234h-.042q-.828 0-1.817.988h-.13q.702-1.638 1.963-2.34 1.261-.702 7.397-5.148.213-.085.422-.085zM18.36.622q.066 0 .133.01v6.683Q16.44 8.51 15.66 10.668q1.196-8.268 1.677-9.204Q17.77.62 18.361.62zM13.005 11.09q-.08 0-.153.138-.13.247.234.689.208-.546.052-.741-.069-.086-.133-.086zm.037-.372q.153 0 .33.237.39.52-.234 2.08-.702-1.352-.429-1.976.149-.34.333-.34zm6.804 2.577v.39q-.286-.026-.442-.182.052-.078.208-.208zm.598.884l2.418.338.494.884q-.832-.234-1.833-.624-1-.39-1.079-.598zm-5.33-.364l.468.234.156 1.118-.416 1.274h-.65l.442-1.274v-1.352zm1.118.39l.442.13.156.832-.416 1.274h-.65l.442-1.274.026-.962zm1.534.156l.156.806-.416 1.274h-.65l.442-1.274v-.78l.468-.026zm-.994-3.234q.415 0 .89.1 1.404.3 1.768 1.418h1.092l.416-.676q5.512 1.274 6.214 4.602-1.508-.832-3.172-1.118l-.728-1.456-2.886-.39.078-.702h-.988q-1.092.9-2.228.9-.243 0-.489-.042-1.391-.234-1.82-.95-.429-.714.455-1.3.585-.386 1.398-.386zM18.617 0q-.947 0-1.488.658-.663.806-1.235 4.238l-.91 5.954q-.442.468-.676.52h-.312q-.026-.65-.494-1.196-.416-3.978.364-6.968l-.312-.598q-1.118 3.38-.546 7.592h-.078q-1.794-4.03-.52-7.592l-.312-.468q-1.664 3.796.364 8.242-.572 1.248-.117 2.054.455.806.559 1.508l.182.13q.702-1.04.806-1.794h.26q.026.598.338 1.248l.182 1.638-.442 1.274h-2.262v.624h6.526v-.624h-.546l.416-1.274.026-.962q.468-.156.702-.364.338.312.754.312-.026.26.104.442 1.04.806 3.718 1.404l.91 1.768q0-.434.27-.434.085 0 .198.044l-.728-1.3q1.508.338 2.288.858.416.442-.052 1.066 1.04-.442 1.17-1.248-.416-3.926-7.046-5.46l-.468.78h-.416q-.338-1.092-2.678-1.508.522-.388 1.285-.388.414 0 .9.115.491.116.96.116.844 0 1.613-.376 1.196-.585 6.084-6.461-.9-1.136-1.905-1.136-.329 0-.669.122L19.066 7.08V.034Q18.831 0 18.617 0z"/><path d="M37.458.375c-9.625 0-9.625 17.25 0 17.25m0 0" fill="none" stroke="#000"/><path d="M43.68 12.703c-.681.054-1.058.394-1.13 1.022.09.68.467 1.04 1.13 1.075.663-.036 1.013-.394 1.049-1.075-.054-.628-.404-.968-1.049-1.022zm.08-2.259c.485 0 .933.09 1.345.269a3.545 3.545 0 0 1 1.828 1.815c.18.403.27.83.27 1.277 0 .466-.09.901-.27 1.304a3.422 3.422 0 0 1-3.173 2.03c-.483 0-.936-.085-1.357-.255a3.235 3.235 0 0 1-1.09-.712 3.495 3.495 0 0 1-.725-1.063 3.174 3.174 0 0 1-.27-1.304c0-.448.09-.874.27-1.277a3.67 3.67 0 0 1 .726-1.076c.304-.313.667-.56 1.089-.739.421-.18.874-.269 1.358-.269zm-.053-.914c-.592 0-1.147.112-1.667.336-.52.224-.968.529-1.345.914a4.48 4.48 0 0 0-.9 1.345 4.071 4.071 0 0 0-.337 1.653c0 .592.112 1.143.336 1.654.225.511.525.955.901 1.331A4.267 4.267 0 0 0 43.707 18c.591 0 1.143-.112 1.654-.336a4.48 4.48 0 0 0 1.344-.9 4.21 4.21 0 0 0 .914-1.332 4.07 4.07 0 0 0 .336-1.654c0-.591-.112-1.142-.336-1.653a4.358 4.358 0 0 0-2.258-2.259 4.071 4.071 0 0 0-1.654-.336zm8.445-8.24l4.851.271c.086.939.043 1.988-.128 3.146-1.81-1-3.384-2.139-4.723-3.417zM57.416 0c-.27 0-.548.175-.836.524l-5.242-.27c-1.239.32-1.491.816-.758 1.489.142-.031.27-.047.38-.047.272 0 .45.094.53.282.115.264.423.609.925 1.034.502.426 1.862 1.304 4.081 2.636.262.657.552.986.869.986.148 0 .302-.072.463-.216 3.154 1.36 6.202 2.312 9.142 2.853l.415-.325-1.013-1.077c-2.159-.187-4.97-1.026-8.432-2.517a8.956 8.956 0 0 1-.06-3.67l5.87.393c.872-.218.937-.67.194-1.354L58.166.48c-.242-.32-.492-.48-.75-.48zm1.362 14.1q3.107 0 6.59 1.501-3.483 1.46-6.59 1.46-3.087 0-6.591-1.46 3.504-1.501 6.59-1.501zm0-.96q-3.838 0-8.823 2.44Q54.94 18 58.778 18q3.837 0 8.822-2.42-4.964-2.44-8.822-2.44zM72.093 0q-.33 0-.36.29l.32-.07q.2 0 .11.21-.23.22-.07.651-.293.633-1.13.633l-.102-.002q.04.47-.2.71-.84.481-.84.882.66.31.22.76-.44.451-.44.611.29.09.4.31.5 1.222 1.01 1.732l-.04.41q.491 0 .541-.52-.92-1.12-.89-2.392.04-1.272 1.611-2.503.45-.25.45-.971 0-.741-.59-.741zM78.1 0q-.591 0-.591.74 0 .722.43.972 1.592 1.231 1.632 2.503.03 1.271-.91 2.392.07.52.54.52l-.03-.41q.5-.51 1.01-1.731.121-.22.391-.31 0-.161-.43-.611-.43-.451.22-.761 0-.4-.83-.881-.241-.24-.221-.711l-.1.002q-.819 0-1.111-.633.15-.43-.07-.65-.09-.21.11-.21l.32.07Q78.43 0 78.1 0zm-3.01 5.486q1.176 0 2.358.901.92.781.11 1.792h-4.946q-.81-1.011.13-1.792 1.172-.9 2.348-.9zM71.552 8.52q-1.391 1.622-1.391 2.473.11.49.43.49.42 0 .54-.38 0-1.261.541-2.112l-.12-.47zm7.088 0l-.12.471q.54.85.54 2.112.11.38.541.38.31 0 .43-.49 0-.85-1.39-2.473zm-4.385.18q.651 0 .651.691v5.216q-2.042 0-2.313-1.311-.27-1.312-.03-4.595zm3.344 0q.27 3.284-.01 4.596-.28 1.311-2.323 1.311V9.39q0-.69.651-.69zm-2.653-5.576v.36q0 .251-.2.251-.31 0-.741-.36h-.22l.69 1.301-.22.07q-.36-.47-.72-.97-.057-.026-.1-.026-.11 0-.13.165l.54.941q-.38.31-.38.541-.601 0-.902.47-.87.611-.87 1.352 0 .56.36 1.281-.25 1.392-.25 3.504 0 1.392.48 2.233.49.84 2.803.84 2.313 0 2.793-.84.49-.841.49-2.233.02-2.112-.23-3.484.361-.74.361-1.301 0-.74-.881-1.351-.31-.471-.891-.471 0-.23-.41-.54l.54-.942q0-.165-.103-.165-.04 0-.097.025-.36.5-.72.971l-.221-.07.67-1.301h-.2q-.45.36-.77.36-.17 0-.17-.25v-.36zm-3.956 8.83h-.038q-1.172 2.073-1.172 3.264 0 1.191.41 1.912.421.72 1.142.871-.971-1.301-.971-2.082 0-.771.18-1.262.16 1.372.72 1.932-.25-1.1-.23-2.322.01-1.232.411-1.832.02-.481-.452-.481zm8.212 0q-.471 0-.452.48.38.601.4 1.833.02 1.221-.22 2.322.561-.56.721-1.932.18.49.18 1.262 0 .78-.97 2.082.72-.15 1.12-.871.411-.72.411-1.912 0-1.191-1.151-3.264h-.039z"/><path d="M90.26.375v17.25M82.572.375c9.625 0 9.625 17.25 0 17.25" fill="none" stroke="#000"/><path d="M92.822 0v.531l.355-.354.177-.177zm2.824 0l-2.824 2.824v.707L96.177.177 96.354 0zm3 0l-5.824 5.824v.707L99.177.177 99.354 0zm3 0l-8.824 8.824v.707l9.355-9.354.177-.177zm3 0L92.822 11.824v.707L105.177.177l.177-.177zm3 0L92.822 14.824v.707L108.177.177l.177-.177zm3 0L92.823 17.823V18h.53L111.178.177l.177-.177zm3 0L95.823 17.823l-.177.177h.708L114.177.177l.177-.177zm1.176 1.824l-15.999 16-.177.176h.708l15.468-15.469v-.707zm0 3l-12.999 13-.177.176h.708l12.468-12.469v-.707zm0 3l-9.999 10-.177.176h.708l9.468-9.469v-.707zm0 3l-6.999 7-.177.176h.708l6.468-6.469v-.707zm0 3l-3.999 4-.177.176h.708l3.468-3.469v-.707zm0 3l-.999 1-.177.176h.708l.468-.469v-.707zM116.646 0l-1.824 1.824v.707l2-2V0zm.176 2.824l-2 2v.707l2-2v-.707zm0 3l-2 2v.707l2-2v-.707zm0 3l-2 2v.707l2-2v-.707zm0 3l-2 2v.707l2-2v-.707zm0 3l-2 2v.707l2-2v-.707zm0-14.824v.531l.355-.354.177-.177zm2.824 0l-2.824 2.824v.707l3.355-3.354.177-.177zm3 0l-5.824 5.824v.707l6.355-6.354.177-.177zm3 0l-8.824 8.824v.707l9.355-9.354.177-.177zm3 0l-11.824 11.824v.707L129.177.177l.177-.177zm3 0l-14.824 14.824v.707L132.177.177l.177-.177zm3 0l-17.823 17.823V18h.53L135.178.177l.177-.177zm3 0l-17.823 17.823-.177.177h.708L138.177.177l.177-.177zm1.176 1.824l-15.999 16-.177.176h.708l15.468-15.469v-.707zm0 3l-12.999 13-.177.176h.708l12.468-12.469v-.707zm0 3l-9.999 10-.177.176h.708l9.468-9.469v-.707zm0 3l-6.999 7-.177.176h.708l6.468-6.469v-.707zm0 3l-3.999 4-.177.176h.708l3.468-3.469v-.707zm0 3l-.999 1-.177.176h.708l.468-.469v-.707z"/></svg>