<svg xmlns="http://www.w3.org/2000/svg" width="205.105" height="18"><path d="M2.097 0c-.335 0-.67.026-.995.066-.447.113-.217.626.18.626a.476.476 0 0 0 .082-.008c.84.097 1.872.15 2.506.626.841.916.463 2.821.561 3.725.007.05.01 3.653.01 5.48a6.145 6.145 0 0 0-2.635-.586 6.04 6.04 0 0 0-1.187.117c-.441.231.076.528.422.528.041 0 .08-.004.115-.013 1.226.133 2.62.461 3.243 1.602.061.206.023.277-.071.277-.206 0-.68-.342-.946-.342-.014 0-.028 0-.04.003a7.535 7.535 0 0 0-1.58-.169c-.39 0-.777.031-1.15.095-.42.278.097.534.439.534a.532.532 0 0 0 .105-.01c1.251.151 2.636.49 3.243 1.633.007 1.27 0 2.11.033 3.278-.014.36.22.538.456.538.235 0 .473-.176.475-.526-.009-1.15-.091-2.161.06-3.277.304-1.253 2.477-1.445 3.827-1.754.294-.347-.285-.475-.659-.475-.055 0-.107.003-.15.008a6.823 6.823 0 0 0-.521-.02c-.882 0-1.771.175-2.557.58-.032-.755.711-1.19 1.244-1.493.84-.361 1.765-.397 2.643-.59.313-.273-.18-.501-.521-.501a.58.58 0 0 0-.125.012 6.767 6.767 0 0 0-.648-.031c-.903 0-1.805.183-2.614.582.016-2.851.062-5.61-.02-8.308-.065-.834-.546-1.6-1.354-1.849C3.388.094 2.741 0 2.097 0zm23.995 2.99q.557 0 1.086.606-4.368 5.2-5.46 5.81-.814.457-1.434.457-.21 0-.399-.053-.74-.208-1.586-.234h-.042q-.828 0-1.817.988h-.13q.702-1.638 1.963-2.34 1.261-.702 7.397-5.148.213-.085.422-.085zM18.36.622q.066 0 .133.01v6.683Q16.44 8.51 15.66 10.668q1.196-8.268 1.677-9.204Q17.77.62 18.361.62zM13.005 11.09q-.08 0-.153.138-.13.247.234.689.208-.546.052-.741-.069-.086-.133-.086zm.037-.372q.153 0 .33.237.39.52-.234 2.08-.702-1.352-.429-1.976.149-.34.333-.34zm6.804 2.577v.39q-.286-.026-.442-.182.052-.078.208-.208zm.598.884l2.418.338.494.884q-.832-.234-1.833-.624-1-.39-1.079-.598zm-5.33-.364l.468.234.156 1.118-.416 1.274h-.65l.442-1.274v-1.352zm1.118.39l.442.13.156.832-.416 1.274h-.65l.442-1.274.026-.962zm1.534.156l.156.806-.416 1.274h-.65l.442-1.274v-.78l.468-.026zm-.994-3.234q.415 0 .89.1 1.404.3 1.768 1.418h1.092l.416-.676q5.512 1.274 6.214 4.602-1.508-.832-3.172-1.118l-.728-1.456-2.886-.39.078-.702h-.988q-1.092.9-2.228.9-.243 0-.489-.042-1.391-.234-1.82-.95-.429-.714.455-1.3.585-.386 1.398-.386zM18.617 0q-.947 0-1.488.658-.663.806-1.235 4.238l-.91 5.954q-.442.468-.676.52h-.312q-.026-.65-.494-1.196-.416-3.978.364-6.968l-.312-.598q-1.118 3.38-.546 7.592h-.078q-1.794-4.03-.52-7.592l-.312-.468q-1.664 3.796.364 8.242-.572 1.248-.117 2.054.455.806.559 1.508l.182.13q.702-1.04.806-1.794h.26q.026.598.338 1.248l.182 1.638-.442 1.274h-2.262v.624h6.526v-.624h-.546l.416-1.274.026-.962q.468-.156.702-.364.338.312.754.312-.026.26.104.442 1.04.806 3.718 1.404l.91 1.768q0-.434.27-.434.085 0 .198.044l-.728-1.3q1.508.338 2.288.858.416.442-.052 1.066 1.04-.442 1.17-1.248-.416-3.926-7.046-5.46l-.468.78h-.416q-.338-1.092-2.678-1.508.522-.388 1.285-.388.414 0 .9.115.491.116.96.116.844 0 1.613-.376 1.196-.585 6.084-6.461-.9-1.136-1.905-1.136-.329 0-.669.122L19.066 7.08V.034Q18.831 0 18.617 0z"/><path d="M37.458.375c-9.625 0-9.625 17.25 0 17.25m0 0" fill="none" stroke="#000"/><path d="M41.646 0l-2.188 2.188v.707L42.177.177 42.354 0zm3 0l-5.188 5.188v.707L45.177.177 45.354 0zm3 0l-8.188 8.188v.707L48.177.177 48.354 0zm3 0L39.458 11.188v.707L51.177.177 51.354 0zm3 0L39.458 14.188v.707L54.177.177 54.354 0zm3 0L39.458 17.188v.707L57.177.177 57.354 0zm3 0L41.823 17.823l-.177.177h.708L60.177.177 60.354 0zm1.812 1.188L44.823 17.823l-.177.177h.708L61.458 1.895v-.707zm0 3L47.823 17.823l-.177.177h.708L61.458 4.895v-.707zm0 3L50.823 17.823l-.177.177h.708L61.458 7.895v-.707zm0 3l-7.635 7.635-.177.177h.708l7.104-7.105v-.707zm0 3l-4.635 4.635-.177.177h.708l4.104-4.105v-.707zm0 3l-1.635 1.635-.177.177h.708l1.104-1.105v-.707zM62.646 0l-1.188 1.188v.707L63.177.177 63.354 0zm.812 2.188l-2 2v.707l2-2v-.707zm0 3l-2 2v.707l2-2v-.707zm0 3l-2 2v.707l2-2v-.707zm0 3l-2 2v.707l2-2v-.707zm0 3l-2 2v.707l2-2v-.707zm0 3l-.635.635-.177.177h.708l.104-.105v-.707zM65.646 0l-2.188 2.188v.707L66.177.177 66.354 0zm3 0l-5.188 5.188v.707L69.177.177 69.354 0zm3 0l-8.188 8.188v.707L72.177.177 72.354 0zm3 0L63.458 11.188v.707L75.177.177 75.354 0zm3 0L63.458 14.188v.707L78.177.177 78.354 0zm3 0L63.458 17.188v.707L81.177.177 81.354 0zm3 0L65.823 17.823l-.177.177h.708L84.177.177 84.354 0zm1.812 1.188L68.823 17.823l-.177.177h.708L85.458 1.895v-.707zm0 3L71.823 17.823l-.177.177h.708L85.458 4.895v-.707zm0 3L74.823 17.823l-.177.177h.708L85.458 7.895v-.707zm0 3l-7.635 7.635-.177.177h.708l7.104-7.105v-.707zm0 3l-4.635 4.635-.177.177h.708l4.104-4.105v-.707zm0 3l-1.635 1.635-.177.177h.708l1.104-1.105v-.707zM86.646 0l-1.188 1.188v.707L87.177.177 87.354 0zm.812 2.188l-2 2v.707l2-2v-.707zm0 3l-2 2v.707l2-2v-.707zm0 3l-2 2v.707l2-2v-.707zm0 3l-2 2v.707l2-2v-.707zm0 3l-2 2v.707l2-2v-.707zm0 3l-.635.635-.177.177h.708l.104-.105v-.707zM90.081.634q-.371 0-.371.438 0 .371.371.371.394-.022.394-.415 0-.394-.394-.394zM88.64.92v.393l-.853.153q.394-.415.853-.546zm.043.524q.503.394.175.59-.502-.175-.743-.459l.568-.13zm1.53-1.005q1.028 0 1.64.787.612.786.656 2.426 1.595.328 2.12 1.442.085.722-.325.722h-.025q-.437-.022-.688-.24-.092-.08-.138-.08-.082 0-.026.243.087.383.961.93.875.546.142.906-.181.09-.386.09-.622 0-1.46-.822-1.115-1.093-1.18-1.661-.066-.568.458-1.05.312-.285.214-.285-.066 0-.323.133-.634.328-.667.961-.033.634.503 1.388.535.754 2.11 1.913.16.084.363.084.433 0 1.057-.38.918-.556-.918-1.715.678-.175.7-.59.852.284 4.786 5.29 1.05.699 1.071 1.027-.022.306-.328.371-.065.014-.133.014-.248 0-.522-.188-1.224.59-2.372.612h-.12q-1.067 0-1.77-.372.72.634.502 1.333-.106.34-.16.34-.058 0-.058-.383 0-.744-1.902-1.421v.83q-.112.47-.178.47-.063 0-.084-.426-.132-.94-.623-2.022-.492-1.082-1.563-2.994-1.071-1.913-1.366-2.754-.295-.842-.274-1.563.022-.722-.295-1.06-.317-.34-.185-.733.13-.393-.394-.743V.897q.568-.46 1.18-.46zm4.153 12.59q1.072.306 1.072.721l-.722 2.689q-.087.48-.59.48h-.874v-.043l1.114-3.41v-.437zM90.291 0h-.079q-.852 0-1.726.7-.503.175-1.028.809.722.655 1.312.808.065.306.415.853.022 1.443.394 2.393.371.951 2.491 5.104 1.05 2.186 1.05 2.689 0 .765-.962 3.431 0 .153-1.312.24-1.967.066-1.967.547 0 .284.262.284h5.815q.546-.437.612-.743.524.219.568.59.074.295.21.295.025 0 .052-.01.175-.066.175-.285-.153-.59-.765-1.136l.7-2.951q2.12-.066 3.694-.678.291.066.534.066.486 0 .777-.262.437-.394-.175-1.224-1.333-1.334-2.535-2.93-2.47-3.038-3.388-3.518-.306-.634-.733-1.006-.426-.371-1.54-.918-.022-1.29-.602-2.23Q91.974 0 90.291 0zm21.686.585c-.03 4.318-.064 8.637-.09 12.955.062.7.099 1.402.18 2.1.048.372.29.72.238 1.101-.08.258-.249.662-.535.662a.4.4 0 0 1-.208-.066c-.463-.178-.904-.472-1.415-.472-.028 0-.056 0-.085.002h-.076c-.97 0-1.924.214-2.887.308-.526.075-1.05.195-1.583.195h-.068c.963-.218 1.914-.586 2.673-1.234 1.033-.802 2.069-1.6 3.1-2.406.139-.172-.067-8.948-.137-13.114l.893-.03zm.525-.585c-.51.017-1.27.009-1.778.041-.271.079-.224.383-.22.601l.21 12.755c-1.127.862-2.244 1.737-3.377 2.59-.635.413-1.368.67-2.109.806-.33-.004-.665-.175-.995-.175a.763.763 0 0 0-.316.064c-.254.195-.342.73-.001.894.512.274 1.082.379 1.656.379.363 0 .727-.042 1.079-.109.818-.139 1.644-.22 2.466-.336.27-.024.55-.06.827-.06.298 0 .592.042.862.19.324.143.682.36 1.043.36a.802.802 0 0 0 .363-.084c.378-.236.597-.675.689-1.1.076-.556-.299-1.047-.292-1.599-.043-.603-.112-1.205-.139-1.809.031-4.364.2-13.408.032-13.408zm4.463 0l-2.055 2.43h1.002l1.053-1.256 1.063 1.256 1.033-1.256 1.063 1.256 1.053-1.256 1.063 1.256 1.053-1.256 1.063 1.256 1.033-1.256 1.063 1.256 1.063-1.256 1.032 1.256 1.063-1.256 1.053 1.256h1.003L129.61 0l-1.063 1.174L127.515 0l-1.063 1.174L125.389 0l-1.033 1.174L123.293 0l-1.053 1.174L121.177 0l-1.053 1.174L119.061 0l-1.033 1.174L116.965 0zm6.296 12.703c-.681.054-1.058.394-1.13 1.022.09.68.467 1.04 1.13 1.075.663-.036 1.013-.394 1.049-1.075-.054-.628-.404-.968-1.049-1.022zm.08-2.259c.485 0 .933.09 1.345.269a3.545 3.545 0 0 1 1.828 1.815c.18.403.27.83.27 1.277 0 .466-.09.901-.27 1.304a3.422 3.422 0 0 1-3.173 2.03c-.483 0-.936-.085-1.357-.255a3.235 3.235 0 0 1-1.09-.712 3.495 3.495 0 0 1-.725-1.063 3.174 3.174 0 0 1-.27-1.304c0-.448.09-.874.27-1.277a3.67 3.67 0 0 1 .726-1.076c.304-.313.667-.56 1.089-.739.421-.18.874-.269 1.358-.269zm-.053-.914c-.592 0-1.147.112-1.667.336-.52.224-.968.529-1.345.914a4.48 4.48 0 0 0-.9 1.345 4.071 4.071 0 0 0-.337 1.653c0 .592.112 1.143.336 1.654.225.511.525.955.901 1.331A4.267 4.267 0 0 0 123.288 18c.591 0 1.143-.112 1.654-.336a4.48 4.48 0 0 0 1.344-.9 4.21 4.21 0 0 0 .914-1.332 4.07 4.07 0 0 0 .336-1.654c0-.591-.112-1.142-.336-1.653a4.358 4.358 0 0 0-2.258-2.259 4.071 4.071 0 0 0-1.654-.336z"/><path d="M141.353.375v17.25M133.666.375c9.625 0 9.625 17.25 0 17.25" fill="none" stroke="#000"/><path d="M149.323.597c.269.002.505.041.692.109-.031.223-.169.569-.953.773.73-.053 1.206-.113 1.452-.307.09.2.137.427.158.556a.297.297 0 0 0 .207.237c.624.191 1.173 1.112 1.7 1.763.95 1.173 1.771 2.48 2.688 3.733l-1.27-.622c-1.182-.622-2.395-1.11-3.407-1.877-.589-.49-1.172-.996-1.39-1.641-.076-.497.296-1.074.767-1.279a.297.297 0 1 0-.238-.545c-.377.164-.7.458-.904.817.01-.152.032-.308.075-.448a.297.297 0 0 0 .012-.104 1.372 1.372 0 0 0-.082-.422c-.04-.109-.085-.206-.157-.459a.297.297 0 0 0-.105-.153c.14-.062.316-.112.527-.125.043-.003.084-.003.125-.004a.258.258 0 1 0 .103-.002zm1.193 5.432c.606.466 1.253.873 1.888 1.28a13 13 0 0 0 .047 1.321 2.215 2.215 0 0 0-.697-.3c-.39-.636-.82-1.22-1.082-1.842a4.553 4.553 0 0 1-.156-.46zm-.248 1c.273.549.62 1.04.928 1.529-.059.04-.112.08-.155.121l-.027.027a1.713 1.713 0 0 0-.613-.454c.009-.348-.047-.768-.133-1.222zm2.88.047a25.922 25.922 0 0 1 .588.297c.78.38 1.56.772 2.349 1.148.556.67 1.157 1.293 1.735 1.92l-1.044.175-2.562-2.786a.297.297 0 0 0-.04-.036 19.147 19.147 0 0 0-1.026-.718zm-2.592 2.009c.058.066.112.14.162.222a.298.298 0 0 0 .429.087c.125-.09.2-.177.266-.244l.077 1.413c-.1-.006-.201-.013-.296-.013-.167 0-.314.022-.398.108-.1-.078-.28-.1-.504-.1-.058 0-.118.002-.18.005l.444-1.478zm-5.418.999c.451.062.686.323.703.783h-1.394c0-.46.23-.721.69-.783zm7.86-2.39c.274.182.542.367.798.56l2.403 2.613h-2.456c-.171-.19-.519-.365-.777-.365a.366.366 0 0 0-.191.046 2.987 2.987 0 0 0-.256-.01c-.14 0-.286.007-.434.016l-.082-1.506c.224.115.407.282.625.542a.297.297 0 0 0 .52-.246 9.753 9.753 0 0 1-.15-1.65zm-6.24 3.745l-.266.465h-1.248l-.253-.465zm4.516 0v2.51l-1.727-2.51zM149.33 0a3.878 3.878 0 0 0-.272.01c-.695.044-1.215.325-1.408.768a.298.298 0 0 0 .34.408l.025-.006.03.007.108.029c.055.168.096.269.12.332a.541.541 0 0 1 .042.2 3.112 3.112 0 0 0-.037 1.389c.096.466.384.977.762 1.46a.295.295 0 0 0 .014.108c.183.559.396 1.318.548 2.027.152.708.233 1.387.192 1.684a.298.298 0 0 0 .223.33l.019.005-.527 1.75a1.787 1.787 0 0 0-.26-.018c-.256 0-.509.041-.712.041a.865.865 0 0 1-.183-.016.314.314 0 0 0-.068-.007c-.212 0-.657.13-.787.366h-1.1c-.062-.797-.482-1.235-1.261-1.315-.788.08-1.196.518-1.222 1.315v.572h.53l.545 1.01h1.767l.531-1.01h1.568l2.404 3.493V18h.57v-6.561h4.517v-.41l.1.109a.297.297 0 0 0 .268.092l1.74-.292a.298.298 0 0 0 .172-.492 49.17 49.17 0 0 0-.656-.716l1.657 1.078a.296.296 0 0 0 .411-.087.297.297 0 0 0-.087-.411l-1.344-.876a.292.292 0 0 0 .076-.09.315.315 0 0 0 .02-.237.305.305 0 0 0-.048-.093c-.056-.076-.084-.088-.124-.119a2.938 2.938 0 0 0-.13-.094c-.096-.065-.207-.137-.301-.2a4.156 4.156 0 0 1-.217-.156l-2.378-1.672-.008-.005c-.806-1.13-1.568-2.316-2.457-3.414-.433-.535-.938-1.524-1.812-1.894-.048-.262-.157-.68-.484-.997-.353-.344-.863-.463-1.416-.463zm15.763.474c.694 0 1.248.2 1.635.479.006.053.02.107.009.16-.05.248-.195.477-.396.63-.316.207-.697.267-1.057.356-.09.01-.019.031.031.04.23.04.707.099.971.099l.052-.001c.278-.032.54-.148.766-.311.079-.067.147-.15.205-.236.147.346.227.713.26.917.018.11.096.2.202.233 1.138.349 2.038 1.91 2.88 2.949 1.729 2.137 3.199 4.526 4.892 6.76-.937-.456-1.87-.916-2.81-1.374-1.92-1.01-3.92-1.816-5.604-3.09l-.008-.008c-.97-.808-1.963-1.66-2.339-2.793-.148-.92 1.757-2.577 1.542-2.646a.207.207 0 0 0-.064-.01c-.458 0-1.753 1.128-2.019 2.202-.003-.014-.01-.03-.014-.045-.073-.356-.154-1.256.068-1.98a.29.29 0 0 0 .01-.103 1.968 1.968 0 0 0-.123-.634c-.063-.17-.139-.344-.26-.765-.031-.108-.142-.328-.208-.345.186-.138.375-.28.645-.375a.434.434 0 0 0-.132.314c0 .23.164.415.365.415.2 0 .364-.186.364-.415V.894a.411.411 0 0 0-.255-.39c.053-.007.096-.019.154-.022.081-.006.16-.008.238-.008zm.67 7.763c.066.065.136.124.203.187.214.78.412 1.64.692 2.305.483 1.145 1.216 2.141 1.84 3.154a1.814 1.814 0 0 0-.385.27 6.831 6.831 0 0 0-.199.193 2.61 2.61 0 0 0-1.186-.897c.045-.723-.108-1.712-.34-2.787a34.903 34.903 0 0 0-.624-2.425zm1.007.908c1.149.945 2.428 1.738 3.676 2.54-.018.91-.018 1.778.084 2.675a3.411 3.411 0 0 0-1.437-.736c-.02 0-.037.012-.057.012-.649-1.063-1.383-2.06-1.837-3.134-.156-.37-.293-.85-.429-1.357zm.407 5.254a2.5 2.5 0 0 1 .44.541.3.3 0 0 0 .257.14.29.29 0 0 0 .17-.053c.215-.156.347-.324.476-.446.047-.045.097-.08.148-.117l.149 2.722c-.213-.014-.435-.035-.637-.035-.264 0-.496.036-.633.172-.169-.134-.497-.164-.89-.164-.102 0-.207.002-.316.004l.836-2.764zm1.158-4.825c1.354.787 2.784 1.414 4.135 2.125a.244.244 0 0 0 .006.003c1.295.631 2.586 1.28 3.894 1.904.984 1.189 2.052 2.295 3.078 3.42l-2.15.362-4.267-4.635a.288.288 0 0 0-.037-.036c-1.499-1.137-3.152-2.082-4.66-3.143zM165.16 0c-.135 0-.273.005-.411.013-1.085.07-1.873.526-2.142 1.144-.04.093-.146.314-.007.314a2.35 2.35 0 0 1 .341-.028c.418 0 .38.172.47.194.09.282.29.846.303 1.068-.244.86-.153 1.763-.064 2.198.15.732.63 1.584 1.261 2.38a.285.285 0 0 0 0 .166 35.3 35.3 0 0 1 .903 3.336c.251 1.168.393 2.277.317 2.823a.294.294 0 0 0 .221.328c.045.011.084.031.127.045l-.928 3.079a2.847 2.847 0 0 0-.593-.055c-.381 0-.756.05-1.064.05-.125 0-.24-.008-.34-.032a.546.546 0 0 0-.125-.012c-.436 0-1.428.306-1.34.879.15-.128.257-.159.375-.159.11 0 .23.027.405.027h.027c.254-.004.697-.083 1.053-.083.18 0 .338.02.438.08.236-.01.45-.013.649-.013.85 0 1.447.07 2.5.075a89.565 89.565 0 0 0 2.974-.079c.45.003.697.054.922.054h.04c.134-.004.265-.057.48-.057.123 0 .273.017.468.07-.25-.341-.877-.685-1.33-.685a.591.591 0 0 0-.302.071 5.081 5.081 0 0 0-.508-.022c-.22 0-.448.01-.678.02l-.157-2.83c.487.203.857.517 1.281 1.021a.295.295 0 0 0 .513-.246c-.192-1.039-.213-2.019-.202-3.06.54.354 1.072.713 1.576 1.094l4.36 4.738a.29.29 0 0 0 .263.09c.95-.159 1.9-.315 2.849-.474a.294.294 0 0 0 .23-.193.298.298 0 0 0-.06-.297c-.741-.83-1.508-1.631-2.25-2.445 1.269.78 2.875 1.755 3.08 1.755.022 0 .027-.013.012-.04-.094-.163-.9-.755-1.775-1.373.14.058.276.12.415.177l.017.01c.103.035.16.059.27.062a.286.286 0 0 0 .108-.016.317.317 0 0 0 .188-.152.32.32 0 0 0 .023-.238c-.017-.05-.038-.077-.054-.098-.061-.085-.103-.109-.162-.154a4.553 4.553 0 0 0-.205-.149c-.153-.105-.336-.223-.493-.328a4.992 4.992 0 0 1-.328-.233.307.307 0 0 0-.028-.025l-3.892-2.736c-.008-.006-.02-.001-.028-.006-1.333-1.869-2.588-3.825-4.046-5.627-.744-.92-1.598-2.528-2.985-3.064-.067-.396-.218-1.127-.755-1.649-.456-.443-1.115-.647-1.856-.692A5.728 5.728 0 0 0 165.16 0zm20.486 0l-2.541 2.541v.708l3.072-3.072.177-.177zm3 0l-5.541 5.541v.708l6.072-6.072.177-.177zm3 0l-8.541 8.541v.708l9.072-9.072.177-.177zm3 0l-11.541 11.541v.708L195.177.177l.177-.177zm3 0l-14.541 14.541v.708L198.177.177l.177-.177zm3 0l-17.541 17.541V18h.249L201.177.177l.177-.177zm3 0l-17.823 17.823-.177.177h.708L204.177.177l.177-.177zm1.459 1.541l-16.282 16.282-.177.177h.708l15.751-15.751V1.54zm0 3l-13.282 13.282-.177.177h.708l12.751-12.751V4.54zm0 3l-10.282 10.282-.177.177h.708l9.751-9.751V7.54zm0 3l-7.282 7.282-.177.177h.708l6.751-6.751v-.708zm0 3l-4.282 4.282-.177.177h.708l3.751-3.751v-.708zm0 3l-1.282 1.282-.177.177h.708l.751-.751v-.708z"/></svg>