<svg xmlns="http://www.w3.org/2000/svg" width="168.666" height="18"><path d="M2.097 0c-.335 0-.67.026-.995.066-.447.113-.217.626.18.626a.476.476 0 0 0 .082-.008c.84.097 1.872.15 2.506.626.841.916.463 2.821.561 3.725.007.05.01 3.653.01 5.48a6.145 6.145 0 0 0-2.635-.586 6.04 6.04 0 0 0-1.187.117c-.441.231.076.528.422.528.041 0 .08-.004.115-.013 1.226.133 2.62.461 3.243 1.602.061.206.023.277-.071.277-.206 0-.68-.342-.946-.342-.014 0-.028 0-.04.003a7.535 7.535 0 0 0-1.58-.169c-.39 0-.777.031-1.15.095-.42.278.097.534.439.534a.532.532 0 0 0 .105-.01c1.251.151 2.636.49 3.243 1.633.007 1.27 0 2.11.033 3.278-.014.36.22.538.456.538.235 0 .473-.176.475-.526-.009-1.15-.091-2.161.06-3.277.304-1.253 2.477-1.445 3.827-1.754.294-.347-.285-.475-.659-.475-.055 0-.107.003-.15.008a6.823 6.823 0 0 0-.521-.02c-.882 0-1.771.175-2.557.58-.032-.755.711-1.19 1.244-1.493.84-.361 1.765-.397 2.643-.59.313-.273-.18-.501-.521-.501a.58.58 0 0 0-.125.012 6.767 6.767 0 0 0-.648-.031c-.903 0-1.805.183-2.614.582.016-2.851.062-5.61-.02-8.308-.065-.834-.546-1.6-1.354-1.849C3.388.094 2.741 0 2.097 0zm23.995 2.99q.557 0 1.086.606-4.368 5.2-5.46 5.81-.814.457-1.434.457-.21 0-.399-.053-.74-.208-1.586-.234h-.042q-.828 0-1.817.988h-.13q.702-1.638 1.963-2.34 1.261-.702 7.397-5.148.213-.085.422-.085zM18.36.622q.066 0 .133.01v6.683Q16.44 8.51 15.66 10.668q1.196-8.268 1.677-9.204Q17.77.62 18.361.62zM13.005 11.09q-.08 0-.153.138-.13.247.234.689.208-.546.052-.741-.069-.086-.133-.086zm.037-.372q.153 0 .33.237.39.52-.234 2.08-.702-1.352-.429-1.976.149-.34.333-.34zm6.804 2.577v.39q-.286-.026-.442-.182.052-.078.208-.208zm.598.884l2.418.338.494.884q-.832-.234-1.833-.624-1-.39-1.079-.598zm-5.33-.364l.468.234.156 1.118-.416 1.274h-.65l.442-1.274v-1.352zm1.118.39l.442.13.156.832-.416 1.274h-.65l.442-1.274.026-.962zm1.534.156l.156.806-.416 1.274h-.65l.442-1.274v-.78l.468-.026zm-.994-3.234q.415 0 .89.1 1.404.3 1.768 1.418h1.092l.416-.676q5.512 1.274 6.214 4.602-1.508-.832-3.172-1.118l-.728-1.456-2.886-.39.078-.702h-.988q-1.092.9-2.228.9-.243 0-.489-.042-1.391-.234-1.82-.95-.429-.714.455-1.3.585-.386 1.398-.386zM18.617 0q-.947 0-1.488.658-.663.806-1.235 4.238l-.91 5.954q-.442.468-.676.52h-.312q-.026-.65-.494-1.196-.416-3.978.364-6.968l-.312-.598q-1.118 3.38-.546 7.592h-.078q-1.794-4.03-.52-7.592l-.312-.468q-1.664 3.796.364 8.242-.572 1.248-.117 2.054.455.806.559 1.508l.182.13q.702-1.04.806-1.794h.26q.026.598.338 1.248l.182 1.638-.442 1.274h-2.262v.624h6.526v-.624h-.546l.416-1.274.026-.962q.468-.156.702-.364.338.312.754.312-.026.26.104.442 1.04.806 3.718 1.404l.91 1.768q0-.434.27-.434.085 0 .198.044l-.728-1.3q1.508.338 2.288.858.416.442-.052 1.066 1.04-.442 1.17-1.248-.416-3.926-7.046-5.46l-.468.78h-.416q-.338-1.092-2.678-1.508.522-.388 1.285-.388.414 0 .9.115.491.116.96.116.844 0 1.613-.376 1.196-.585 6.084-6.461-.9-1.136-1.905-1.136-.329 0-.669.122L19.066 7.08V.034Q18.831 0 18.617 0z"/><path d="M37.458.375c-9.625 0-9.625 17.25 0 17.25m0 0" fill="none" stroke="#000"/><path d="M43.68 12.703c-.681.054-1.058.394-1.13 1.022.09.68.467 1.04 1.13 1.075.663-.036 1.013-.394 1.049-1.075-.054-.628-.404-.968-1.049-1.022zm.08-2.259c.485 0 .933.09 1.345.269a3.545 3.545 0 0 1 1.828 1.815c.18.403.27.83.27 1.277 0 .466-.09.901-.27 1.304a3.422 3.422 0 0 1-3.173 2.03c-.483 0-.936-.085-1.357-.255a3.235 3.235 0 0 1-1.09-.712 3.495 3.495 0 0 1-.725-1.063 3.174 3.174 0 0 1-.27-1.304c0-.448.09-.874.27-1.277a3.67 3.67 0 0 1 .726-1.076c.304-.313.667-.56 1.089-.739.421-.18.874-.269 1.358-.269zm-.053-.914c-.592 0-1.147.112-1.667.336-.52.224-.968.529-1.345.914a4.48 4.48 0 0 0-.9 1.345 4.071 4.071 0 0 0-.337 1.653c0 .592.112 1.143.336 1.654.225.511.525.955.901 1.331A4.267 4.267 0 0 0 43.707 18c.591 0 1.143-.112 1.654-.336a4.48 4.48 0 0 0 1.344-.9 4.21 4.21 0 0 0 .914-1.332 4.07 4.07 0 0 0 .336-1.654c0-.591-.112-1.142-.336-1.653a4.358 4.358 0 0 0-2.258-2.259 4.071 4.071 0 0 0-1.654-.336zM50.646 0l-.69.691v.707l1.22-1.221.178-.177zm3 0l-3.69 3.691v.707l4.22-4.221.178-.177zm3 0l-6.69 6.691v.707l7.22-7.221.178-.177zm3 0l-9.69 9.691v.707L60.175.177l.18-.177zm3 0l-12.69 12.691v.707L63.175.177l.18-.177zm3 0l-15.69 15.691v.707L66.175.177l.18-.177zm3 0L50.823 17.823l-.177.177h.708L69.177.177 69.354 0zm3 0L53.823 17.823l-.177.177h.708L71.955.398V0zm.31 2.691L56.822 17.823l-.177.177h.708L71.955 3.398v-.707zm0 3L59.822 17.823l-.177.177h.708L71.955 6.398v-.707zm0 3l-9.133 9.132-.177.177h.708l8.601-8.602v-.707zm0 3l-6.133 6.132-.177.177h.708l5.601-5.602v-.707zm0 3l-3.133 3.132-.177.177h.708l2.601-2.602v-.707zM83.216.924c.296 0 .475.05.567.103.27.172.141.583.098.84h-1.33c-.032-.263-.177-.664.098-.84.092-.053.27-.103.567-.103zm-7.39 1.552V3.4h-1.262v-.924zm6.556 0V3.4H76.13v-.924zm1.52 0V3.4h-1.216v-.924zm6.105 0V3.4h-5.8v-.924zm1.631 0V3.4H90.31v-.924zM80.545 0l-.43.431 1.44 1.436h-7.6v2.142h18.292V1.867h-7.37L86.317.43l-.43-.43-1.331 1.327c-.08-.804-.631-.989-1.34-1.012-.757.02-1.222.192-1.34 1.012L80.546 0zm-4.346 15.347L73.955 18h1.095l1.149-1.37 1.16 1.37 1.128-1.37 1.16 1.37 1.15-1.37 1.16 1.37 1.15-1.37 1.16 1.37 1.128-1.37 1.16 1.37 1.16-1.37L88.844 18l1.16-1.37 1.15 1.37h1.094l-2.243-2.653-1.161 1.282-1.127-1.282-1.16 1.282-1.161-1.282-1.128 1.282-1.16-1.282-1.15 1.282-1.16-1.282-1.15 1.282-1.16-1.282-1.127 1.282-1.161-1.282z"/><path d="M101.935.375v17.25M94.247.375c9.625 0 9.625 17.25 0 17.25" fill="none" stroke="#000"/><path d="M109.904.597c.27.002.505.041.692.109-.03.223-.168.569-.952.773.73-.053 1.206-.113 1.452-.307.089.2.137.427.158.556a.297.297 0 0 0 .206.237c.625.191 1.174 1.112 1.701 1.763.95 1.173 1.77 2.48 2.687 3.733-.423-.207-.845-.415-1.27-.622-1.181-.622-2.394-1.11-3.406-1.877-.59-.49-1.172-.996-1.391-1.641-.076-.497.296-1.074.767-1.279a.297.297 0 1 0-.238-.545 1.95 1.95 0 0 0-.903.817c.01-.152.031-.308.074-.448a.297.297 0 0 0 .013-.104 1.372 1.372 0 0 0-.082-.422c-.04-.109-.085-.206-.158-.459a.297.297 0 0 0-.104-.153c.14-.062.315-.112.527-.125.043-.003.083-.003.125-.004a.258.258 0 1 0 .102-.002zm1.194 5.432c.605.466 1.253.873 1.888 1.28-.005.438.006.879.047 1.321a2.215 2.215 0 0 0-.697-.3c-.391-.636-.82-1.22-1.083-1.842a4.553 4.553 0 0 1-.155-.46zm-.249 1c.273.549.621 1.04.929 1.529-.06.04-.112.08-.155.121l-.027.027a1.713 1.713 0 0 0-.614-.454c.01-.348-.047-.768-.133-1.222zm2.88.047a25.922 25.922 0 0 1 .588.297c.78.38 1.56.772 2.35 1.148.556.67 1.156 1.293 1.734 1.92l-1.043.175-2.563-2.786a.297.297 0 0 0-.04-.036 19.147 19.147 0 0 0-1.025-.718zm-2.591 2.009c.058.066.112.14.162.222a.298.298 0 0 0 .429.087c.125-.09.2-.177.265-.244l.078 1.413c-.1-.006-.202-.013-.297-.013-.166 0-.313.022-.397.108-.1-.078-.28-.1-.505-.1-.057 0-.118.002-.18.005l.445-1.478zm-5.419.999c.452.062.686.323.704.783h-1.395c0-.46.23-.721.691-.783zm7.861-2.39c.274.182.542.367.798.56l2.402 2.613h-2.456c-.17-.19-.518-.365-.776-.365a.366.366 0 0 0-.191.046 2.987 2.987 0 0 0-.257-.01c-.139 0-.285.007-.433.016l-.083-1.506c.225.115.407.282.626.542a.297.297 0 0 0 .52-.246 9.753 9.753 0 0 1-.15-1.65zm-6.24 3.745l-.266.465h-1.248l-.253-.465zm4.516 0v2.51l-1.727-2.51zM109.912 0a3.878 3.878 0 0 0-.273.01c-.694.044-1.215.325-1.407.768a.298.298 0 0 0 .34.408l.025-.006.03.007.108.029c.054.168.096.269.12.332a.541.541 0 0 1 .042.2 3.112 3.112 0 0 0-.037 1.389c.095.466.384.977.762 1.46a.295.295 0 0 0 .013.108c.183.559.396 1.318.548 2.027.153.708.234 1.387.193 1.684a.298.298 0 0 0 .223.33l.018.005-.527 1.75a1.787 1.787 0 0 0-.259-.018c-.256 0-.51.041-.712.041a.865.865 0 0 1-.184-.016.314.314 0 0 0-.068-.007c-.212 0-.656.13-.787.366h-1.099c-.062-.797-.482-1.235-1.262-1.315-.788.08-1.195.518-1.222 1.315v.572h.531l.545 1.01h1.767l.531-1.01h1.567l2.404 3.493V18h.572v-6.561h4.516v-.41l.1.109a.297.297 0 0 0 .267.092l1.74-.292a.298.298 0 0 0 .173-.492 49.17 49.17 0 0 0-.656-.716l1.656 1.078a.296.296 0 0 0 .412-.087.297.297 0 0 0-.087-.411l-1.345-.876a.292.292 0 0 0 .076-.09.315.315 0 0 0 .02-.237c-.016-.05-.034-.074-.047-.093-.056-.076-.085-.088-.124-.119a2.938 2.938 0 0 0-.131-.094l-.3-.2a4.156 4.156 0 0 1-.217-.156l-2.379-1.672-.008-.005c-.805-1.13-1.567-2.316-2.456-3.414-.433-.535-.938-1.524-1.813-1.894-.048-.262-.156-.68-.483-.997-.353-.344-.864-.463-1.416-.463zm12.754 0v.688l.51-.511.178-.177zm2.98 0l-2.98 2.98v.708l3.51-3.511.178-.177zm3 0l-5.98 5.98v.708l6.51-6.511.178-.177zm3 0l-8.98 8.98v.708l9.51-9.511.178-.177zm3 0l-11.98 11.98v.708L135.176.177l.178-.177zm3 0l-14.98 14.98v.708L138.176.177l.178-.177zm3 0l-17.823 17.823-.157.158V18h.688L141.177.177l.177-.177zm3 0l-17.823 17.823-.177.177h.708L144.177.177l.177-.177zm1.02 1.98l-15.843 15.843-.177.177h.708l15.312-15.312v-.707zm0 3l-12.843 12.843-.177.177h.708l12.312-12.312v-.707zm0 3l-9.843 9.843-.177.177h.708l9.312-9.312v-.707zm0 3l-6.843 6.843-.177.177h.708l6.312-6.312v-.707zm0 3l-3.843 3.843-.177.177h.708l3.312-3.312v-.707zm0 3l-.843.843-.177.177h.708l.312-.312v-.707z"/><path d="M146.646 0l-1.98 1.98v.708l2-2V0zm.02 2.98l-2 2v.708l2-2v-.707zm0 3l-2 2v.708l2-2v-.707zm0 3l-2 2v.708l2-2v-.707zm0 3l-2 2v.708l2-2v-.707zm0 3l-2 2v.708l2-2v-.707z"/><path d="M146.666 0v.688l.51-.511.178-.177zm2.98 0l-2.98 2.98v.708l3.51-3.511.178-.177zm3 0l-5.98 5.98v.708l6.51-6.511.178-.177zm3 0l-8.98 8.98v.708l9.51-9.511.178-.177zm3 0l-11.98 11.98v.708L159.176.177l.178-.177zm3 0l-14.98 14.98v.708L162.176.177l.178-.177zm3 0l-17.823 17.823-.157.158V18h.688L165.177.177l.177-.177zm3 0l-17.823 17.823-.177.177h.708L168.177.177l.177-.177zm1.02 1.98l-15.843 15.843-.177.177h.708l15.312-15.312v-.707zm0 3l-12.843 12.843-.177.177h.708l12.312-12.312v-.707zm0 3l-9.843 9.843-.177.177h.708l9.312-9.312v-.707zm0 3l-6.843 6.843-.177.177h.708l6.312-6.312v-.707zm0 3l-3.843 3.843-.177.177h.708l3.312-3.312v-.707zm0 3l-.843.843-.177.177h.708l.312-.312v-.707z"/></svg>