<svg xmlns="http://www.w3.org/2000/svg" width="55.475" height="18"><path d="M11.116 8.203c-.51.04-.793.296-.847.767.067.51.35.78.847.806.498-.026.76-.295.787-.806-.04-.47-.303-.726-.787-.767zm.06-1.694c.364 0 .7.068 1.01.202a2.659 2.659 0 0 1 1.371 1.361c.134.303.201.622.201.958 0 .35-.067.676-.202.978a2.567 2.567 0 0 1-2.38 1.523c-.362 0-.702-.064-1.018-.192a2.426 2.426 0 0 1-.816-.534 2.621 2.621 0 0 1-.545-.797 2.38 2.38 0 0 1-.202-.978c0-.336.068-.655.202-.958.134-.302.316-.571.545-.806.228-.236.5-.42.816-.555a2.574 2.574 0 0 1 1.019-.202zm-.04-.685c-.443 0-.86.084-1.25.252-.39.168-.726.396-1.008.685a3.36 3.36 0 0 0-.676 1.009 3.053 3.053 0 0 0-.252 1.24c0 .444.084.857.252 1.24.168.384.393.716.676.999a3.2 3.2 0 0 0 2.258.927c.444 0 .857-.084 1.24-.252a3.36 3.36 0 0 0 1.009-.675c.289-.283.518-.615.686-.999.168-.383.252-.796.252-1.24 0-.444-.084-.857-.252-1.24a3.268 3.268 0 0 0-1.694-1.694 3.053 3.053 0 0 0-1.24-.252zm13.779 2.705v1.136c-2.661.012-5.322.02-7.983.033l1.215-1.169zm-6.931-.414l-2.017 1.994h9.361V8.115zm7.103-5.251c.245.06.457.084.712.089a7.536 7.536 0 0 0-.414 2.941c.935.44 1.869.58 2.822.58.676 0 1.362-.07 2.065-.155-1.044 3.244-3.354 5.558-5.861 7.114-1.156.718-3.409 1.346-5.263 1.65l-.103.015c.146-.029.293-.06.443-.094 1.465-.343 3.018-.836 3.934-1.288 2.197-1.084 4.053-3.56 4.482-5.606a1.11 1.11 0 0 0-.248-.961c-.218-.255-.535-.436-.902-.566-.482-.171-1.056-.255-1.64-.255a6.31 6.31 0 0 0-.567.026c.35-1.194.58-2.315.54-3.49zm-.491-.614c.175 1.587-.216 3.142-.683 4.646.395-.074.77-.113 1.142-.113.51 0 1.014.073 1.548.224.318.113.568.266.712.435a.613.613 0 0 1 .15.576c-.39 1.856-2.203 4.289-4.242 5.295-.85.419-2.398.916-3.838 1.253-.837.196-1.637.283-2.252.348-.398.075-1.302-.032-1.31.53.09.272.49.306.807.306.101 0 .194-.003.265-.004a15.804 15.804 0 0 0 2.326-.22c1.892-.31 4.153-.92 5.427-1.71 3.032-1.89 5.263-4.604 6.26-8.056a11.03 11.03 0 0 1-2.313.256 9.157 9.157 0 0 1-2.776-.423c-.042-1.09.25-2.096.627-3.103-.14.014-.273.021-.403.021-.5 0-.939-.102-1.447-.261zm22.544.418q.325 0 .325.34v2.615h-.99l.324-2.754q.016-.201.34-.201zm.015-.418q-.789 0-.835.449-.325 2.924-.697 2.94l-7.18.263-.743-.031q-.835-.882-1.485-.882-.232-.016-.48-.031-1.315.248-1.578.248-.186 0-.186.247 0 .34.526.34.904-.143 1.386-.143.088 0 .162.004.263 0 .433.217-.302.374-1.35.374-.082 0-.167-.003-1.191-.03-2.104-.31-.449 0-.449.527.046.48 3.358.495l1.47-.155 8.387-.046 2.352.031V3.008q-.015-.758-.82-.758zm-5.72 6.696l-.328.744q.7.142.998 1.407l1.131-.29v.707l-1.101.313q.007 1.042-.201 1.958-.216.915-.976 1.183-.38.13-.763.13t-.77-.13q-.774-.268-.983-1.183-.216-.916-.193-1.958l-1.102-.313v-.707l1.124.29q.298-1.265 1.005-1.407l-.342-.744zm-3.023-.521q-.268 0-.037.52l.201.455q-.595.38-.744 1.05l-1.266-.38v1.883l1.191.343q0 1.072.306 2.144.312 1.072 2.121 1.31 1.81-.238 2.13-1.31.312-1.072.312-2.144l1.191-.343V10.07l-1.28.38q-.15-.67-.745-1.05l.201-.454q.238-.521-.037-.521z"/><path d="M7.95.375c-9.625 0-9.625 17.25 0 17.25m0-17.25h40.025M7.95 17.625h40.025m0-17.25c9.625 0 9.625 17.25 0 17.25" fill="none" stroke="#000"/></svg>