<svg xmlns="http://www.w3.org/2000/svg" width="69.979" height="18"><path d="M12.361 2.933v1.823q-.402-.6-2.414-.6H8.459V2.933zm.023-.683q-.82.152-2.437.152H7.95v2.285h1.997q1.055 0 1.51.22.464.22.904.63l.023 10.213h.881V2.25zm4.17 8.838c.4.153.837.645.965 1.05.128.406.113.879.023 1.344-.09.458-.27.894-.488 1.18-.15.195-.286.307-.413.345h-.12c-.128-.03-.293-.143-.459-.346-.217-.285-.397-.72-.488-1.179-.09-.465-.105-.938.023-1.344.128-.405.606-.931.957-1.046v-.004zM16.13 2.25v.901h-.81v.578h.81l-.113 6.818c-.578.3-.938.81-1.11 1.359a3.576 3.576 0 0 0-.068 1.734 3.49 3.49 0 0 0 .645 1.457c.233.3.54.548.901.623v.022c.023.008.045.008.068.008.03 0 .06-.008.09-.008a.532.532 0 0 0 .105.008c.03 0 .053 0 .083-.008v-.022c.36-.075.668-.323.9-.623a3.49 3.49 0 0 0 .646-1.457 3.576 3.576 0 0 0-.067-1.734 2.228 2.228 0 0 0-1.111-1.337l-.113-6.84h.766l.022-.578h-.856V2.25h-.788zm10.671 2.38c-.51.04-.793.295-.847.766.067.51.35.78.847.807.498-.027.76-.296.787-.807-.04-.47-.303-.726-.787-.766zm.06-1.694c.364 0 .7.067 1.009.201a2.659 2.659 0 0 1 1.371 1.361c.135.303.202.622.202.959 0 .35-.067.675-.202.978a2.567 2.567 0 0 1-2.38 1.523c-.362 0-.702-.065-1.018-.192a2.426 2.426 0 0 1-.817-.535 2.621 2.621 0 0 1-.544-.796 2.38 2.38 0 0 1-.202-.978c0-.337.068-.656.202-.958.134-.303.316-.572.544-.807.229-.235.501-.42.817-.555a2.574 2.574 0 0 1 1.019-.201zm-.04-.686c-.443 0-.86.084-1.25.252-.39.168-.726.397-1.008.686a3.36 3.36 0 0 0-.676 1.008 3.053 3.053 0 0 0-.252 1.24c0 .444.084.857.252 1.24.168.384.393.717.676.999a3.2 3.2 0 0 0 2.258.928c.444 0 .857-.084 1.24-.253a3.36 3.36 0 0 0 1.009-.675c.289-.282.518-.615.686-.998.168-.384.252-.797.252-1.24 0-.444-.084-.858-.252-1.24a3.268 3.268 0 0 0-1.694-1.695 3.053 3.053 0 0 0-1.24-.252zm-1.039 11.631a1.31 1.31 0 0 0-.313.039c-.21.051-.437.168-.682.35H19.85v1.091h4.936c.245.182.472.299.682.35a1.31 1.31 0 0 0 .623 0c.205-.051.411-.168.617-.35h.19c.197.182.4.299.61.35a1.316 1.316 0 0 0 .63 0c.209-.051.432-.168.67-.35h4.983V14.27h-4.983c-.238-.182-.461-.299-.67-.35a1.316 1.316 0 0 0-.63 0 1.39 1.39 0 0 0-.61.35h-.19a1.492 1.492 0 0 0-.617-.35 1.274 1.274 0 0 0-.31-.039zm14.07-6.833h.151q1.868 0 3.561 1.606l-1.048.848q-.98-.937-2.564-.937-1.583 0-2.564.937l-1.048-.848q1.671-1.606 3.512-1.606zm.1 2.164q1.762.022 2.899 1.85h-5.82q.892-1.828 2.921-1.85zm0-2.854q-2.765.111-4.66 2.274l1.583 1.338q-.67.892-.825 1.672h7.782q-.156-.78-.825-1.65l1.472-1.338q-1.762-2.185-4.527-2.296zm21.364-3.682q.331 0 .331.347v2.668h-1.01l.331-2.81q.016-.205.348-.205zm.015-.426q-.805 0-.852.458-.331 2.983-.71 2.999l-7.324.268-.757-.032q-.853-.9-1.516-.9l-.489-.03q-1.342.252-1.61.252-.19 0-.19.252 0 .347.537.347.922-.146 1.414-.146.09 0 .165.004.268 0 .442.221-.308.381-1.378.381l-.17-.002q-1.215-.031-2.146-.315-.458 0-.458.536.048.49 3.426.505l1.499-.158 8.555-.047 2.399.032V3.023q-.016-.773-.837-.773zM48.003 13.357l-2.024 2.393h.987l1.037-1.236 1.046 1.236 1.017-1.236 1.047 1.236 1.037-1.236 1.047 1.236 1.037-1.236 1.047 1.236 1.016-1.236 1.047 1.236 1.047-1.236 1.017 1.236 1.047-1.236 1.037 1.236h.987l-2.024-2.393-1.047 1.157-1.017-1.157-1.047 1.157-1.047-1.157-1.016 1.157-1.047-1.157-1.037 1.157-1.047-1.157-1.037 1.157-1.047-1.157-1.017 1.157-1.046-1.157z"/><path d="M7.95.375c-9.625 0-9.625 17.25 0 17.25m0-17.25h54.529M7.95 17.625h54.529m0-17.25c9.625 0 9.625 17.25 0 17.25" fill="none" stroke="#000"/></svg>