<svg xmlns="http://www.w3.org/2000/svg" width="58.366" height="18"><path d="M12.981 6.338q.17 0 .354.078.41.173.41 2.758v2.474H9.103q1.793-2.46 2.46-3.718.667-1.257 1.014-1.473.193-.119.404-.119zm-.197-.528l-.075.001q-.66.014-1.487 1.612-.826 1.598-3.272 4.767h6.337l-.014-3.558q-.07-2.376-.487-2.605-.393-.217-1.002-.217zm7.721 2.709c1.02 1.145 1.864 2.453 2.616 3.781.158.195-.02.374-.15.559-.496-1.575-1.637-2.79-2.466-4.34zm-.987-5.783c.085.396-.072.854-.373.989l.097.205c.375-.178.737-.713.79-1.193.513.03.654.417.734.865.096.307-.001 1.05.387 1.179 1.147.444 2.024.957 2.81 1.734 1.358 1.698 2.777 3.342 4.135 5.042.528.662 1.01 1.268 1.402 1.725-2.062-1.542-4.366-2.72-6.627-3.946-1.201-.652-2.347-1.186-2.347-2.623 0-.773 1.424-1.42 1.365-1.521-.005-.01-.021-.013-.047-.013-.293 0-1.79.555-1.79 1.725 0 .324.088.625.238.905h-.006c-1.642-.87-1.381-2.63-1.318-4.18-.682-.038-1.244-.41-1.891-.565.502-.065 1.003-.15 1.507-.201a.4.4 0 0 0-.239.15c-.008.166.179.239.361.239.178 0 .352-.07.335-.19a.457.457 0 0 0-.39-.206c.25-.036.584-.09.867-.12zm2.867 9.977c.147.357.223.736.306 1.11.24-.193.471-.392.667-.628-.127.694-.366 1.395-.944 1.395-.35 0-.513-.237-.288-.954.106-.338.19-.66.259-.923zm-.629-3.438c2.34 1.247 4.659 2.506 6.872 3.969.521.422.986.893 1.3 1.334-.208.324-.605.435-.972.46-1.874-.066-2.607-1.872-3.597-3.162l-.538-.654.092.838c.007.15.161.864-.069.864a.17.17 0 0 1-.068-.016l-.946-1.134c-.102.067-.197.143-.302.205-.47-.95-1.157-1.836-1.772-2.704zm-2.02-7.025c-.492 0-.996.088-1.473.133-.57.278-1.147.066-1.745.283-.432.194-.553.587-.731.98.254-.085.485-.12.704-.12.696 0 1.257.351 1.993.538-.002.37-.06.788-.087 1.21-.114 1.145.489 2.15 1.36 2.865.625 1.39 1.49 2.457 2.12 3.542-.075.488-.529 2.327-.752 2.988a8.341 8.341 0 0 1-1.366.115 7.003 7.003 0 0 1-.592-.024c-.355 0-.745.606-1.127.93l7.771.06c-.198-.7-1.579-1.072-2.07-1.072a.685.685 0 0 0-.075.003c.173-.495.39-.96.45-1.653.218.195.46.404.765.426.37-.028.521-.281.568-.612.841 1.39 1.782 2.526 3.507 2.693.596-.029 1.339-.29 1.5-.923.79-.044.21-.815-.083-1.116-2.152-2.33-3.928-4.988-6.054-7.334-.818-.808-1.743-1.354-2.888-1.807-.085-.21-.113-.507-.168-.835-.06-.357-.251-.942-.6-1.124a2.667 2.667 0 0 0-.927-.146zM38.97 7.897q2.331 0 4.944 1.126-2.613 1.095-4.943 1.095-2.315 0-4.943-1.095 2.628-1.126 4.943-1.126zm0-.72q-2.877 0-6.616 1.83 3.739 1.815 6.617 1.815t6.617-1.814q-3.723-1.83-6.617-1.83zm9.999-4.405q.695 0 .695.917 0 .806-.695 1.596-.696-.79-.696-1.596 0-.917.696-.917zm0 3.525q.49 0 .49 1.059 0 .6-.49 1.107-.49-.506-.49-1.107 0-1.06.49-1.06zm0 3.193q.49 0 .49 1.06 0 .6-.49 1.106-.49-.506-.49-1.107 0-1.059.49-1.059zm0-7.24q-1.265 0-1.265 1.439-.016.9.419 1.414.435.514.387.688-.553.648-.553 1.565 0 .759.648 1.628-.648.648-.648 1.565 0 .759.648 1.613.08.205-.443.964-.521.759-1.074 2.624h.695q.348-1.233.617-1.763.268-.53.569-.861.316.332.577.861.26.53.608 1.763h.712q-.522-1.865-1.067-2.624-.546-.759-.451-.964.632-.854.632-1.613 0-.917-.6-1.565.6-.87.6-1.628 0-.917-.537-1.565-.048-.174.38-.688.426-.513.426-1.414 0-1.439-1.28-1.439z"/><path d="M7.95.375c-9.625 0-9.625 17.25 0 17.25m0-17.25h42.916M7.95 17.625h42.916m0-17.25c9.625 0 9.625 17.25 0 17.25" fill="none" stroke="#000"/></svg>