<svg xmlns="http://www.w3.org/2000/svg" width="55.573" height="18"><path d="M11.116 8.203c-.51.04-.793.296-.847.767.067.51.35.78.847.806.498-.026.76-.295.787-.806-.04-.47-.303-.726-.787-.767zm.06-1.694c.364 0 .7.068 1.01.202a2.659 2.659 0 0 1 1.371 1.361c.134.303.201.622.201.958 0 .35-.067.676-.202.978a2.567 2.567 0 0 1-2.38 1.523c-.362 0-.702-.064-1.018-.192a2.426 2.426 0 0 1-.816-.534 2.621 2.621 0 0 1-.545-.797 2.38 2.38 0 0 1-.202-.978c0-.336.068-.655.202-.958.134-.302.316-.571.545-.806.228-.236.5-.42.816-.555a2.574 2.574 0 0 1 1.019-.202zm-.04-.685c-.443 0-.86.084-1.25.252-.39.168-.726.396-1.008.685a3.36 3.36 0 0 0-.676 1.009 3.053 3.053 0 0 0-.252 1.24c0 .444.084.857.252 1.24.168.384.393.716.676.999a3.2 3.2 0 0 0 2.258.927c.444 0 .857-.084 1.24-.252a3.36 3.36 0 0 0 1.009-.675c.289-.283.518-.615.686-.999.168-.383.252-.796.252-1.24 0-.444-.084-.857-.252-1.24a3.268 3.268 0 0 0-1.694-1.694 3.053 3.053 0 0 0-1.24-.252zM31.81 3.538zm-.003.18zm-14-.688v1.063c-.158-.073-.314-.14-.46-.213a1.477 1.477 0 0 0-.423-.118c-.12-.019-.246-.03-.358-.054a.417.417 0 0 1-.179-.065c-.014-.011-.024-.026-.024-.081 0-.056.01-.071.024-.082a.417.417 0 0 1 .179-.065c.112-.023.238-.035.358-.054.152-.024.3-.057.423-.118.146-.072.302-.14.46-.213zm0 1.063zm.54.076zm9.79-1.218c.104 0 .21.002.314.004.586.014 1.466.155 2.194.336.36.09.681.19.91.288l.098.044a2.1 2.1 0 0 1-.086.034c-.23.086-.551.169-.91.242a14.18 14.18 0 0 1-2.206.269c-.105.002-.21.004-.314.004-1.063 0-2.121-.121-3.18-.245-1.13-.131-2.26-.265-3.396-.265l-.173.001c-.992.012-2.133.123-3.042.506V2.954c.91.383 2.05.494 3.042.506h.173c1.135 0 2.265-.133 3.395-.264 1.06-.124 2.118-.245 3.18-.245zm-9.998-.701l-.13.075c-.302.173-.619.295-.9.433a.949.949 0 0 1-.267.07c-.13.02-.263.033-.385.058a.936.936 0 0 0-.416.179.62.62 0 0 0-.218.497.62.62 0 0 0 .218.496c.11.092.255.146.416.179.122.025.255.039.385.059a.949.949 0 0 1 .267.069c.281.138.598.26.9.433l.13.075.132-.071c.874-.47 2.093-.586 3.124-.599h.167c1.114 0 2.224.132 3.333.26 1.08.126 2.16.249 3.244.249.108 0 .216-.002.324-.004a14.633 14.633 0 0 0 2.301-.28c.387-.079.737-.17.992-.265.143-.053.26-.11.346-.17a.604.604 0 0 0 .139-.129.385.385 0 0 0 .082-.233c0-.08-.028-.16-.079-.23a.634.634 0 0 0-.134-.132 1.7 1.7 0 0 0-.342-.186 6.888 6.888 0 0 0-.992-.315c-.767-.192-1.685-.338-2.313-.353a13.778 13.778 0 0 0-.324-.004c-1.084 0-2.164.123-3.244.248-1.11.13-2.219.262-3.333.262l-.167-.001c-1.03-.013-2.25-.13-3.124-.599l-.132-.071zm13.021 9.128q.331 0 .331.347v2.668h-1.01l.331-2.81q.016-.205.348-.205zm.015-.426q-.805 0-.852.457-.331 2.984-.71 3l-7.324.268-.757-.032q-.853-.9-1.516-.9l-.489-.031q-1.342.252-1.61.252-.19 0-.19.253 0 .347.537.347.922-.147 1.414-.147.09 0 .165.005.268 0 .442.221-.308.381-1.378.381l-.17-.002q-1.215-.032-2.146-.316-.458 0-.458.537.048.49 3.426.505l1.499-.158 8.555-.047 2.399.031v-3.85q-.016-.774-.837-.774zm9.398-8.015q.962 0 1.683.103l-1.735 2.387-1.717-2.387q.79-.103 1.769-.103zm-.017-.687q-4.123 0-5.857 1.872-.876.91-.876 3.298v8.296h.721V7.42q0-2.216.876-2.989.876-.893 2.49-1.254l2.302 3.23v9.343h.721V6.39l2.199-3.23q1.494.155 2.576 1.271.876.773.876 2.989v8.296h.739l-.017-8.296q0-2.37-.876-3.298-1.735-1.872-5.874-1.872z"/><path d="M7.95.375c-9.625 0-9.625 17.25 0 17.25m0-17.25h39.373M7.95 17.625h39.373M55.01.375v17.25M47.323.375c9.625 0 9.625 17.25 0 17.25" fill="none" stroke="#000"/></svg>