<svg xmlns="http://www.w3.org/2000/svg" width="222.472" height="18"><path d="M2.097 0c-.335 0-.67.026-.995.066-.447.113-.217.626.18.626a.476.476 0 0 0 .082-.008c.84.097 1.872.15 2.506.626.841.916.463 2.821.561 3.725.007.05.01 3.653.01 5.48a6.145 6.145 0 0 0-2.635-.586 6.04 6.04 0 0 0-1.187.117c-.441.231.076.528.422.528.041 0 .08-.004.115-.013 1.226.133 2.62.461 3.243 1.602.061.206.023.277-.071.277-.206 0-.68-.342-.946-.342-.014 0-.028 0-.04.003a7.535 7.535 0 0 0-1.58-.169c-.39 0-.777.031-1.15.095-.42.278.097.534.439.534a.532.532 0 0 0 .105-.01c1.251.151 2.636.49 3.243 1.633.007 1.27 0 2.11.033 3.278-.014.36.22.538.456.538.235 0 .473-.176.475-.526-.009-1.15-.091-2.161.06-3.277.304-1.253 2.477-1.445 3.827-1.754.294-.347-.285-.475-.659-.475-.055 0-.107.003-.15.008a6.823 6.823 0 0 0-.521-.02c-.882 0-1.771.175-2.557.58-.032-.755.711-1.19 1.244-1.493.84-.361 1.765-.397 2.643-.59.313-.273-.18-.501-.521-.501a.58.58 0 0 0-.125.012 6.767 6.767 0 0 0-.648-.031c-.903 0-1.805.183-2.614.582.016-2.851.062-5.61-.02-8.308-.065-.834-.546-1.6-1.354-1.849C3.388.094 2.741 0 2.097 0zm23.995 2.99q.557 0 1.086.606-4.368 5.2-5.46 5.81-.814.457-1.434.457-.21 0-.399-.053-.74-.208-1.586-.234h-.042q-.828 0-1.817.988h-.13q.702-1.638 1.963-2.34 1.261-.702 7.397-5.148.213-.085.422-.085zM18.36.622q.066 0 .133.01v6.683Q16.44 8.51 15.66 10.668q1.196-8.268 1.677-9.204Q17.77.62 18.361.62zM13.005 11.09q-.08 0-.153.138-.13.247.234.689.208-.546.052-.741-.069-.086-.133-.086zm.037-.372q.153 0 .33.237.39.52-.234 2.08-.702-1.352-.429-1.976.149-.34.333-.34zm6.804 2.577v.39q-.286-.026-.442-.182.052-.078.208-.208zm.598.884l2.418.338.494.884q-.832-.234-1.833-.624-1-.39-1.079-.598zm-5.33-.364l.468.234.156 1.118-.416 1.274h-.65l.442-1.274v-1.352zm1.118.39l.442.13.156.832-.416 1.274h-.65l.442-1.274.026-.962zm1.534.156l.156.806-.416 1.274h-.65l.442-1.274v-.78l.468-.026zm-.994-3.234q.415 0 .89.1 1.404.3 1.768 1.418h1.092l.416-.676q5.512 1.274 6.214 4.602-1.508-.832-3.172-1.118l-.728-1.456-2.886-.39.078-.702h-.988q-1.092.9-2.228.9-.243 0-.489-.042-1.391-.234-1.82-.95-.429-.714.455-1.3.585-.386 1.398-.386zM18.617 0q-.947 0-1.488.658-.663.806-1.235 4.238l-.91 5.954q-.442.468-.676.52h-.312q-.026-.65-.494-1.196-.416-3.978.364-6.968l-.312-.598q-1.118 3.38-.546 7.592h-.078q-1.794-4.03-.52-7.592l-.312-.468q-1.664 3.796.364 8.242-.572 1.248-.117 2.054.455.806.559 1.508l.182.13q.702-1.04.806-1.794h.26q.026.598.338 1.248l.182 1.638-.442 1.274h-2.262v.624h6.526v-.624h-.546l.416-1.274.026-.962q.468-.156.702-.364.338.312.754.312-.026.26.104.442 1.04.806 3.718 1.404l.91 1.768q0-.434.27-.434.085 0 .198.044l-.728-1.3q1.508.338 2.288.858.416.442-.052 1.066 1.04-.442 1.17-1.248-.416-3.926-7.046-5.46l-.468.78h-.416q-.338-1.092-2.678-1.508.522-.388 1.285-.388.414 0 .9.115.491.116.96.116.844 0 1.613-.376 1.196-.585 6.084-6.461-.9-1.136-1.905-1.136-.329 0-.669.122L19.066 7.08V.034Q18.831 0 18.617 0z"/><path d="M37.458.375c-9.625 0-9.625 17.25 0 17.25m0 0" fill="none" stroke="#000"/><path d="M43.68 12.703c-.681.054-1.058.394-1.13 1.022.09.68.467 1.04 1.13 1.075.663-.036 1.013-.394 1.049-1.075-.054-.628-.404-.968-1.049-1.022zm.08-2.259c.485 0 .933.09 1.345.269a3.545 3.545 0 0 1 1.828 1.815c.18.403.27.83.27 1.277 0 .466-.09.901-.27 1.304a3.422 3.422 0 0 1-3.173 2.03c-.483 0-.936-.085-1.357-.255a3.235 3.235 0 0 1-1.09-.712 3.495 3.495 0 0 1-.725-1.063 3.174 3.174 0 0 1-.27-1.304c0-.448.09-.874.27-1.277a3.67 3.67 0 0 1 .726-1.076c.304-.313.667-.56 1.089-.739.421-.18.874-.269 1.358-.269zm-.053-.914c-.592 0-1.147.112-1.667.336-.52.224-.968.529-1.345.914a4.48 4.48 0 0 0-.9 1.345 4.071 4.071 0 0 0-.337 1.653c0 .592.112 1.143.336 1.654.225.511.525.955.901 1.331A4.267 4.267 0 0 0 43.707 18c.591 0 1.143-.112 1.654-.336a4.48 4.48 0 0 0 1.344-.9 4.21 4.21 0 0 0 .914-1.332 4.07 4.07 0 0 0 .336-1.654c0-.591-.112-1.142-.336-1.653a4.358 4.358 0 0 0-2.258-2.259 4.071 4.071 0 0 0-1.654-.336zM58.813.744l.107.001h.055q2.013 0 3.839 1.73l-1.13.914q-1.057-1.01-2.764-1.01-1.706 0-2.764 1.01l-1.13-.913Q56.828.744 58.813.744zm.107 2.333q1.899.024 3.125 1.995H55.77q.962-1.971 3.15-1.995zm0-3.077q-2.98.12-5.023 2.452l1.706 1.442q-.72.961-.89 1.802h8.39q-.169-.84-.89-1.778l1.586-1.442Q61.901.12 58.92 0zm7.567 7.773q.357 0 .357.374v2.875h-1.089l.358-3.028q.017-.221.374-.221zm.017-.46q-.868 0-.919.494-.357 3.215-.765 3.232l-7.895.29-.816-.035q-.919-.97-1.633-.97l-.528-.033q-1.446.272-1.735.272-.204 0-.204.272 0 .374.578.374.993-.158 1.524-.158.096 0 .177.005.29 0 .477.238-.332.411-1.485.411l-.183-.002q-1.31-.034-2.313-.34-.494 0-.494.578.051.527 3.692.544l1.616-.17 9.222-.05 2.586.033V8.147q-.017-.834-.902-.834zM58.96 15c.288 0 .461.05.551.1.262.168.137.568.095.817h-1.293c-.031-.255-.173-.645.095-.816.09-.051.263-.1.551-.1zm-7.185 1.51v.898h-1.227v-.899zm6.374 0v.898h-6.08v-.899zm1.478 0v.898h-1.183v-.899zm5.935 0v.898h-5.64v-.899zm1.587 0v.898h-1.292v-.899zm-10.786-2.408l-.418.42 1.399 1.395h-7.389V18h17.786v-2.083h-7.166l1.4-1.396-.42-.419-1.293 1.29c-.078-.782-.613-.961-1.303-.983-.736.02-1.188.186-1.302.984l-1.294-1.29zm16.905-10.6q.265 0 .306.326l.448 4.052q.346 2.79.407 5.335 0 1.751-.295 2.78-.295 1.028-.927 1.028-.63 0-.865-1.029-.234-1.028-.214-2.78.04-2.544.387-5.334l.448-4.052q.04-.326.305-.326zM70.194 0q-.855.428-.102.896 2.484 1.446 2.179 3.075l-.469 3.91q-.325 2.789-.468 5.334 0 2.484.468 3.635.469 1.15 1.466 1.15.998 0 1.466-1.15.469-1.15.469-3.635-.143-2.545-.469-5.335l-.427-3.747Q73.655.794 70.194 0zm11.413 11.024l-.02.01 3.624 6.946h1.367l-3.625-6.956zm-3.037.01l-1.367.01L80.827 18l1.367-.01-3.624-6.955z"/><path d="M96.265.375v17.25M88.578.375c9.625 0 9.625 17.25 0 17.25" fill="none" stroke="#000"/><path d="M104.235.597c.269.002.505.041.692.109-.031.223-.169.569-.953.773.73-.053 1.206-.113 1.452-.307.09.2.137.427.159.556a.297.297 0 0 0 .206.237c.625.191 1.174 1.112 1.7 1.763.95 1.173 1.771 2.48 2.688 3.733l-1.27-.622c-1.182-.622-2.395-1.11-3.407-1.877-.589-.49-1.172-.996-1.39-1.641-.076-.497.296-1.074.767-1.279a.297.297 0 1 0-.238-.545c-.377.164-.7.458-.904.817.01-.152.032-.308.075-.448a.297.297 0 0 0 .012-.104 1.372 1.372 0 0 0-.082-.422c-.04-.109-.084-.206-.157-.459a.297.297 0 0 0-.105-.153 1.53 1.53 0 0 1 .528-.125c.042-.003.083-.003.124-.004a.258.258 0 1 0 .103-.002zm1.193 5.432c.606.466 1.254.873 1.889 1.28-.005.438.006.879.046 1.321a2.215 2.215 0 0 0-.697-.3c-.39-.636-.82-1.22-1.082-1.842a4.553 4.553 0 0 1-.156-.46zm-.248 1c.273.549.621 1.04.928 1.529-.059.04-.112.08-.154.121l-.028.027a1.713 1.713 0 0 0-.613-.454c.01-.348-.047-.768-.133-1.222zm2.88.047a25.922 25.922 0 0 1 .588.297c.78.38 1.56.772 2.349 1.148.556.67 1.157 1.293 1.735 1.92l-1.044.175-2.562-2.786a.297.297 0 0 0-.04-.036 19.147 19.147 0 0 0-1.026-.718zm-2.592 2.009c.058.066.112.14.162.222a.298.298 0 0 0 .43.087c.124-.09.2-.177.265-.244l.077 1.413c-.1-.006-.201-.013-.296-.013-.167 0-.313.022-.398.108-.1-.078-.28-.1-.504-.1-.058 0-.118.002-.18.005l.444-1.478zm-5.418.999c.451.062.686.323.704.783h-1.395c0-.46.23-.721.69-.783zm7.86-2.39c.274.182.542.367.798.56l2.403 2.613h-2.456c-.171-.19-.519-.365-.776-.365a.366.366 0 0 0-.192.046 2.987 2.987 0 0 0-.256-.01c-.14 0-.286.007-.434.016l-.082-1.506c.224.115.407.282.625.542a.297.297 0 0 0 .52-.246 9.753 9.753 0 0 1-.15-1.65zm-6.24 3.745l-.266.465h-1.248l-.252-.465zm4.516 0v2.51l-1.727-2.51zM104.242 0a3.878 3.878 0 0 0-.272.01c-.694.044-1.215.325-1.408.768a.298.298 0 0 0 .34.408l.025-.006.03.007.109.029c.054.168.095.269.12.332a.541.541 0 0 1 .042.2 3.112 3.112 0 0 0-.037 1.389c.095.466.384.977.761 1.46a.295.295 0 0 0 .014.108c.183.559.396 1.318.548 2.027.152.708.233 1.387.192 1.684a.3.3 0 0 0 .223.33l.019.005-.527 1.75a1.787 1.787 0 0 0-.26-.018c-.256 0-.509.041-.712.041a.865.865 0 0 1-.183-.016.314.314 0 0 0-.068-.007c-.212 0-.657.13-.787.366h-1.1c-.061-.797-.482-1.235-1.261-1.315-.788.08-1.196.518-1.222 1.315v.572h.531l.545 1.01h1.766l.532-1.01h1.567l2.404 3.493V18h.571v-6.561h4.516v-.41l.1.109a.297.297 0 0 0 .268.092l1.74-.292a.298.298 0 0 0 .173-.492 49.17 49.17 0 0 0-.657-.716l1.657 1.078a.296.296 0 0 0 .412-.087.297.297 0 0 0-.087-.411l-1.345-.876a.292.292 0 0 0 .076-.09.315.315 0 0 0 .02-.237.305.305 0 0 0-.048-.093c-.055-.076-.084-.088-.123-.119a2.938 2.938 0 0 0-.132-.094c-.095-.065-.205-.137-.3-.2a4.156 4.156 0 0 1-.217-.156l-2.378-1.672-.008-.005c-.805-1.13-1.568-2.316-2.457-3.414-.433-.535-.938-1.524-1.812-1.894-.048-.262-.157-.68-.484-.997-.353-.344-.863-.463-1.416-.463zm12.754 0v.357l.18-.18.178-.177zm2.65 0l-2.65 2.65v.707l3.18-3.18.178-.177zm3 0l-5.65 5.65v.707l6.18-6.18.178-.177zm3 0l-8.65 8.65v.707l9.18-9.18.178-.177zm3 0l-11.65 11.65v.707l12.18-12.18.178-.177zm3 0l-14.65 14.65v.707l15.18-15.18.178-.177zm3 0l-17.65 17.65V18h.358L135.177.177l.177-.177zm3 0l-17.823 17.823-.177.177h.708L138.177.177l.177-.177zm1.35 1.65l-16.173 16.173-.177.177h.708l15.642-15.643V1.65zm0 3l-13.173 13.173-.177.177h.708l12.642-12.643V4.65zm0 3l-10.173 10.173-.177.177h.708l9.642-9.643V7.65zm0 3l-7.173 7.173-.177.177h.708l6.642-6.643v-.707zm0 3l-4.173 4.173-.177.177h.708l3.642-3.643v-.707zm0 3l-1.173 1.173-.177.177h.708l.642-.643v-.707z"/><path d="M140.646 0l-1.65 1.65v.707l2-2V0zm.35 2.65l-2 2v.707l2-2V2.65zm0 3l-2 2v.707l2-2V5.65zm0 3l-2 2v.707l2-2V8.65zm0 3l-2 2v.707l2-2v-.707zm0 3l-2 2v.707l2-2v-.707zm0-14.65v.357l.18-.18.178-.177zm2.65 0l-2.65 2.65v.707l3.18-3.18.178-.177zm3 0l-5.65 5.65v.707l6.18-6.18.178-.177zm3 0l-8.65 8.65v.707l9.18-9.18.178-.177zm3 0l-11.65 11.65v.707l12.18-12.18.178-.177zm3 0l-14.65 14.65v.707l15.18-15.18.178-.177zm3 0l-17.65 17.65V18h.358L159.177.177l.177-.177zm3 0l-17.823 17.823-.177.177h.708L162.177.177l.177-.177zm1.35 1.65l-16.173 16.173-.177.177h.708l15.642-15.643V1.65zm0 3l-13.173 13.173-.177.177h.708l12.642-12.643V4.65zm0 3l-10.173 10.173-.177.177h.708l9.642-9.643V7.65zm0 3l-7.173 7.173-.177.177h.708l6.642-6.643v-.707zm0 3l-4.173 4.173-.177.177h.708l3.642-3.643v-.707zm0 3l-1.173 1.173-.177.177h.708l.642-.643v-.707zM164.646 0l-1.65 1.65v.707l2-2V0zm.35 2.65l-2 2v.707l2-2V2.65zm0 3l-2 2v.707l2-2V5.65zm0 3l-2 2v.707l2-2V8.65zm0 3l-2 2v.707l2-2v-.707zm0 3l-2 2v.707l2-2v-.707zm0-14.65v.357l.18-.18.178-.177zm2.65 0l-2.65 2.65v.707l3.18-3.18.178-.177zm3 0l-5.65 5.65v.707l6.18-6.18.178-.177zm3 0l-8.65 8.65v.707l9.18-9.18.178-.177zm3 0l-11.65 11.65v.707l12.18-12.18.178-.177zm3 0l-14.65 14.65v.707l15.18-15.18.178-.177zm3 0l-17.65 17.65V18h.358L183.177.177l.177-.177zm3 0l-17.823 17.823-.177.177h.708L186.177.177l.177-.177zm1.35 1.65l-16.173 16.173-.177.177h.708l15.642-15.643V1.65zm0 3l-13.173 13.173-.177.177h.708l12.642-12.643V4.65zm0 3l-10.173 10.173-.177.177h.708l9.642-9.643V7.65zm0 3l-7.173 7.173-.177.177h.708l6.642-6.643v-.707zm0 3l-4.173 4.173-.177.177h.708l3.642-3.643v-.707zm0 3l-1.173 1.173-.177.177h.708l.642-.643v-.707zM188.646 0l-1.65 1.65v.707l2-2V0zm.35 2.65l-2 2v.707l2-2V2.65zm0 3l-2 2v.707l2-2V5.65zm0 3l-2 2v.707l2-2V8.65zm0 3l-2 2v.707l2-2v-.707zm0 3l-2 2v.707l2-2v-.707zm0-14.65v.357l.18-.18.178-.177zm2.65 0l-2.65 2.65v.707l3.18-3.18.178-.177zm3 0l-5.65 5.65v.707l6.18-6.18.178-.177zm3 0l-8.65 8.65v.707l9.18-9.18.178-.177zm3 0l-11.65 11.65v.707l12.18-12.18.178-.177zm3 0l-14.65 14.65v.707l15.18-15.18.178-.177zm3 0l-17.65 17.65V18h.358L207.177.177l.177-.177zm3 0l-17.823 17.823-.177.177h.708L210.177.177l.177-.177zm1.35 1.65l-16.173 16.173-.177.177h.708l15.642-15.643V1.65zm0 3l-13.173 13.173-.177.177h.708l12.642-12.643V4.65zm0 3l-10.173 10.173-.177.177h.708l9.642-9.643V7.65zm0 3l-7.173 7.173-.177.177h.708l6.642-6.643v-.707zm0 3l-4.173 4.173-.177.177h.708l3.642-3.643v-.707zm0 3l-1.173 1.173-.177.177h.708l.642-.643v-.707zM212.646 0l-1.65 1.65v.707l2-2V0zm.35 2.65l-2 2v.707l2-2V2.65zm0 3l-2 2v.707l2-2V5.65zm0 3l-2 2v.707l2-2V8.65zm0 3l-2 2v.707l2-2v-.707zm0 3l-2 2v.707l2-2v-.707zm0-4V18h.735v-7.35zm4.37 0V18h.736v-7.35zm4.371 0V18h.735v-7.35z"/></svg>