<svg xmlns="http://www.w3.org/2000/svg" width="331.816" height="18"><path d="M2.097 0c-.335 0-.67.026-.995.066-.447.113-.217.626.18.626a.476.476 0 0 0 .082-.008c.84.097 1.872.15 2.506.626.841.916.463 2.821.561 3.725.007.05.01 3.653.01 5.48a6.145 6.145 0 0 0-2.635-.586 6.04 6.04 0 0 0-1.187.117c-.441.231.076.528.422.528.041 0 .08-.004.115-.013 1.226.133 2.62.461 3.243 1.602.061.206.023.277-.071.277-.206 0-.68-.342-.946-.342-.014 0-.028 0-.04.003a7.535 7.535 0 0 0-1.58-.169c-.39 0-.777.031-1.15.095-.42.278.097.534.439.534a.532.532 0 0 0 .105-.01c1.251.151 2.636.49 3.243 1.633.007 1.27 0 2.11.033 3.278-.014.36.22.538.456.538.235 0 .473-.176.475-.526-.009-1.15-.091-2.161.06-3.277.304-1.253 2.477-1.445 3.827-1.754.294-.347-.285-.475-.659-.475-.055 0-.107.003-.15.008a6.823 6.823 0 0 0-.521-.02c-.882 0-1.771.175-2.557.58-.032-.755.711-1.19 1.244-1.493.84-.361 1.765-.397 2.643-.59.313-.273-.18-.501-.521-.501a.58.58 0 0 0-.125.012 6.767 6.767 0 0 0-.648-.031c-.903 0-1.805.183-2.614.582.016-2.851.062-5.61-.02-8.308-.065-.834-.546-1.6-1.354-1.849C3.388.094 2.741 0 2.097 0zm23.995 2.99q.557 0 1.086.606-4.368 5.2-5.46 5.81-.814.457-1.434.457-.21 0-.399-.053-.74-.208-1.586-.234h-.042q-.828 0-1.817.988h-.13q.702-1.638 1.963-2.34 1.261-.702 7.397-5.148.213-.085.422-.085zM18.36.622q.066 0 .133.01v6.683Q16.44 8.51 15.66 10.668q1.196-8.268 1.677-9.204Q17.77.62 18.361.62zM13.005 11.09q-.08 0-.153.138-.13.247.234.689.208-.546.052-.741-.069-.086-.133-.086zm.037-.372q.153 0 .33.237.39.52-.234 2.08-.702-1.352-.429-1.976.149-.34.333-.34zm6.804 2.577v.39q-.286-.026-.442-.182.052-.078.208-.208zm.598.884l2.418.338.494.884q-.832-.234-1.833-.624-1-.39-1.079-.598zm-5.33-.364l.468.234.156 1.118-.416 1.274h-.65l.442-1.274v-1.352zm1.118.39l.442.13.156.832-.416 1.274h-.65l.442-1.274.026-.962zm1.534.156l.156.806-.416 1.274h-.65l.442-1.274v-.78l.468-.026zm-.994-3.234q.415 0 .89.1 1.404.3 1.768 1.418h1.092l.416-.676q5.512 1.274 6.214 4.602-1.508-.832-3.172-1.118l-.728-1.456-2.886-.39.078-.702h-.988q-1.092.9-2.228.9-.243 0-.489-.042-1.391-.234-1.82-.95-.429-.714.455-1.3.585-.386 1.398-.386zM18.617 0q-.947 0-1.488.658-.663.806-1.235 4.238l-.91 5.954q-.442.468-.676.52h-.312q-.026-.65-.494-1.196-.416-3.978.364-6.968l-.312-.598q-1.118 3.38-.546 7.592h-.078q-1.794-4.03-.52-7.592l-.312-.468q-1.664 3.796.364 8.242-.572 1.248-.117 2.054.455.806.559 1.508l.182.13q.702-1.04.806-1.794h.26q.026.598.338 1.248l.182 1.638-.442 1.274h-2.262v.624h6.526v-.624h-.546l.416-1.274.026-.962q.468-.156.702-.364.338.312.754.312-.026.26.104.442 1.04.806 3.718 1.404l.91 1.768q0-.434.27-.434.085 0 .198.044l-.728-1.3q1.508.338 2.288.858.416.442-.052 1.066 1.04-.442 1.17-1.248-.416-3.926-7.046-5.46l-.468.78h-.416q-.338-1.092-2.678-1.508.522-.388 1.285-.388.414 0 .9.115.491.116.96.116.844 0 1.613-.376 1.196-.585 6.084-6.461-.9-1.136-1.905-1.136-.329 0-.669.122L19.066 7.08V.034Q18.831 0 18.617 0z"/><path d="M37.458.375c-9.625 0-9.625 17.25 0 17.25m0 0" fill="none" stroke="#000"/><path d="M43.68 12.703c-.681.054-1.058.394-1.13 1.022.09.68.467 1.04 1.13 1.075.663-.036 1.013-.394 1.049-1.075-.054-.628-.404-.968-1.049-1.022zm.08-2.259c.485 0 .933.09 1.345.269a3.545 3.545 0 0 1 1.828 1.815c.18.403.27.83.27 1.277 0 .466-.09.901-.27 1.304a3.422 3.422 0 0 1-3.173 2.03c-.483 0-.936-.085-1.357-.255a3.235 3.235 0 0 1-1.09-.712 3.495 3.495 0 0 1-.725-1.063 3.174 3.174 0 0 1-.27-1.304c0-.448.09-.874.27-1.277a3.67 3.67 0 0 1 .726-1.076c.304-.313.667-.56 1.089-.739.421-.18.874-.269 1.358-.269zm-.053-.914c-.592 0-1.147.112-1.667.336-.52.224-.968.529-1.345.914a4.48 4.48 0 0 0-.9 1.345 4.071 4.071 0 0 0-.337 1.653c0 .592.112 1.143.336 1.654.225.511.525.955.901 1.331A4.267 4.267 0 0 0 43.707 18c.591 0 1.143-.112 1.654-.336a4.48 4.48 0 0 0 1.344-.9 4.21 4.21 0 0 0 .914-1.332 4.07 4.07 0 0 0 .336-1.654c0-.591-.112-1.142-.336-1.653a4.358 4.358 0 0 0-2.258-2.259 4.071 4.071 0 0 0-1.654-.336zM51.7 0c-.93 0-1.745.684-1.745 1.562V18h1.136V1.562c0-.43.379-.57.617-.57.25 0 .634.175.634.703v10.804h1.136V1.695C53.478.815 52.607 0 51.7 0zm6.286.696q.927 0 .927 1.222 0 1.075-.927 2.129-.928-1.054-.928-2.129 0-1.222.928-1.222zm0 4.7q.653 0 .653 1.412 0 .8-.653 1.475-.654-.674-.654-1.475 0-1.412.654-1.412zm0 4.257q.653 0 .653 1.413 0 .8-.653 1.475-.654-.674-.654-1.475 0-1.413.654-1.413zm0-9.653Q56.3 0 56.3 1.918q-.022 1.201.558 1.886.58.685.516.917-.737.864-.737 2.087 0 1.012.864 2.17-.864.865-.864 2.088 0 1.011.864 2.15.105.273-.59 1.285-.696 1.012-1.433 3.499h.927q.464-1.644.822-2.35.358-.706.759-1.149.421.443.769 1.149.348.706.812 2.35h.948q-.696-2.487-1.423-3.499-.727-1.012-.6-1.286.843-1.138.843-2.15 0-1.222-.801-2.086.8-1.16.8-2.171 0-1.223-.716-2.087-.063-.232.506-.917t.569-1.886Q59.693 0 57.986 0zm12.813.585c-.03 4.318-.064 8.637-.091 12.955.063.7.1 1.402.18 2.1.048.372.291.72.238 1.101-.079.258-.248.662-.534.662a.4.4 0 0 1-.208-.066c-.463-.178-.905-.472-1.415-.472-.028 0-.057 0-.085.002h-.076c-.97 0-1.924.214-2.887.308-.526.075-1.05.195-1.584.195h-.067c.963-.218 1.914-.586 2.672-1.234 1.033-.802 2.07-1.6 3.1-2.406.14-.172-.067-8.948-.136-13.114l.893-.03zM71.323 0c-.51.017-1.27.009-1.777.041-.272.079-.225.383-.22.601l.21 12.755c-1.127.862-2.244 1.737-3.378 2.59-.634.413-1.368.67-2.108.806-.331-.004-.666-.175-.996-.175a.763.763 0 0 0-.315.064c-.255.195-.342.73-.002.894.512.274 1.083.379 1.657.379.362 0 .727-.042 1.079-.109.818-.139 1.644-.22 2.465-.336.27-.024.55-.06.827-.06.299 0 .592.042.862.19.325.143.683.36 1.044.36.12 0 .242-.024.362-.084.379-.236.597-.675.69-1.1.076-.556-.3-1.047-.292-1.599-.044-.603-.112-1.205-.139-1.809.03-4.364.199-13.408.031-13.408zM82.52 1.225l1.579 1.934v.02l-1.58 2.075L80.94 3.18v-.02l1.58-1.934zM82.093.82l-1.882 2.34 1.58 2.116q-.83 0-1.66-.213-.841-.213-1.712-.628-.88-.405-1.913-1.377-1.043-.961-1.711-2.237zm8.17 0q-.668 1.276-1.7 2.237-1.033.972-1.914 1.377-.88.415-1.71.628-.841.213-1.661.213l1.58-2.116L82.964.82zM73.732 0q0 .537.425 1.357t1.235 1.781q.81.952 2.49 1.954 1.65.983 4.516.983h.243q2.865 0 4.525-.983 1.701-1.002 2.511-1.954.81-.961 1.225-1.781.405-.82.405-1.357zm8.761 12.703c-.682.054-1.058.394-1.13 1.022.09.68.466 1.04 1.13 1.075.663-.036 1.012-.394 1.048-1.075-.054-.628-.403-.968-1.048-1.022zm.08-2.259c.484 0 .932.09 1.345.269a3.545 3.545 0 0 1 1.828 1.815c.18.403.27.83.27 1.277 0 .466-.09.901-.27 1.304a3.422 3.422 0 0 1-3.173 2.03c-.484 0-.936-.085-1.358-.255a3.235 3.235 0 0 1-1.089-.712 3.495 3.495 0 0 1-.726-1.063 3.174 3.174 0 0 1-.269-1.304c0-.448.09-.874.27-1.277a3.67 3.67 0 0 1 .725-1.076 3.41 3.41 0 0 1 2.447-1.008zm-.054-.914a4.17 4.17 0 0 0-1.667.336c-.52.224-.968.529-1.344.914a4.48 4.48 0 0 0-.9 1.345 4.071 4.071 0 0 0-.337 1.653c0 .592.112 1.143.336 1.654.224.511.524.955.9 1.331A4.267 4.267 0 0 0 82.52 18c.592 0 1.143-.112 1.654-.336a4.48 4.48 0 0 0 1.345-.9 4.21 4.21 0 0 0 .914-1.332 4.07 4.07 0 0 0 .336-1.654c0-.591-.112-1.142-.336-1.653a4.358 4.358 0 0 0-2.259-2.259 4.071 4.071 0 0 0-1.654-.336z"/><path d="M100.995.375v17.25M93.307.375c9.625 0 9.625 17.25 0 17.25" fill="none" stroke="#000"/><path d="M108.964.597c.27.002.505.041.692.109-.03.223-.168.569-.952.773.73-.053 1.206-.113 1.452-.307.089.2.137.427.158.556a.297.297 0 0 0 .206.237c.625.191 1.174 1.112 1.701 1.763.95 1.173 1.77 2.48 2.687 3.733-.423-.207-.845-.415-1.27-.622-1.181-.622-2.394-1.11-3.406-1.877-.589-.49-1.172-.996-1.391-1.641-.076-.497.296-1.074.767-1.279a.297.297 0 1 0-.237-.545c-.377.164-.7.458-.904.817.01-.152.031-.308.074-.448a.297.297 0 0 0 .013-.104 1.372 1.372 0 0 0-.082-.422c-.04-.109-.085-.206-.158-.459a.297.297 0 0 0-.104-.153c.14-.062.315-.112.527-.125.043-.003.083-.003.125-.004a.258.258 0 1 0 .102-.002zm1.194 5.432c.605.466 1.253.873 1.888 1.28-.005.438.006.879.047 1.321a2.215 2.215 0 0 0-.697-.3c-.391-.636-.82-1.22-1.083-1.842a4.553 4.553 0 0 1-.155-.46zm-.249 1c.273.549.622 1.04.929 1.529-.06.04-.112.08-.155.121l-.027.027a1.713 1.713 0 0 0-.614-.454c.01-.348-.047-.768-.133-1.222zm2.88.047a25.922 25.922 0 0 1 .588.297c.78.38 1.56.772 2.35 1.148.556.67 1.156 1.293 1.734 1.92l-1.043.175-2.563-2.786a.297.297 0 0 0-.04-.036 19.147 19.147 0 0 0-1.025-.718zm-2.591 2.009c.058.066.112.14.162.222a.298.298 0 0 0 .429.087c.125-.09.2-.177.265-.244l.078 1.413c-.1-.006-.202-.013-.297-.013-.166 0-.313.022-.397.108-.1-.078-.28-.1-.505-.1-.057 0-.118.002-.18.005l.445-1.478zm-5.419.999c.452.062.686.323.704.783h-1.394c0-.46.23-.721.69-.783zm7.861-2.39c.274.182.542.367.798.56l2.403 2.613h-2.457c-.17-.19-.518-.365-.776-.365a.366.366 0 0 0-.191.046 2.987 2.987 0 0 0-.257-.01c-.139 0-.285.007-.433.016l-.083-1.506c.225.115.407.282.626.542a.297.297 0 0 0 .52-.246 9.753 9.753 0 0 1-.15-1.65zm-6.24 3.745l-.266.465h-1.248l-.253-.465zm4.516 0v2.51l-1.727-2.51zM108.972 0a3.878 3.878 0 0 0-.273.01c-.694.044-1.215.325-1.407.768a.298.298 0 0 0 .34.408l.025-.006.03.007.108.029c.054.168.096.269.12.332a.541.541 0 0 1 .042.2 3.112 3.112 0 0 0-.037 1.389c.095.466.384.977.762 1.46a.295.295 0 0 0 .014.108c.182.559.395 1.318.548 2.027.152.708.233 1.387.192 1.684a.298.298 0 0 0 .223.33l.018.005-.527 1.75a1.787 1.787 0 0 0-.259-.018c-.256 0-.51.041-.712.041a.865.865 0 0 1-.184-.016.314.314 0 0 0-.068-.007c-.212 0-.656.13-.787.366h-1.099c-.062-.797-.482-1.235-1.262-1.315-.788.08-1.195.518-1.222 1.315v.572h.532l.544 1.01h1.767l.531-1.01h1.567l2.404 3.493V18h.572v-6.561h4.516v-.41l.1.109a.297.297 0 0 0 .267.092l1.74-.292a.298.298 0 0 0 .173-.492 49.17 49.17 0 0 0-.656-.716l1.656 1.078a.296.296 0 0 0 .412-.087.297.297 0 0 0-.087-.411l-1.345-.876a.292.292 0 0 0 .076-.09.315.315 0 0 0 .02-.237c-.016-.05-.034-.074-.047-.093-.056-.076-.085-.088-.124-.119a2.938 2.938 0 0 0-.131-.094l-.3-.2a4.156 4.156 0 0 1-.217-.156l-2.379-1.672-.008-.005c-.805-1.13-1.567-2.316-2.456-3.414-.433-.535-.938-1.524-1.813-1.894-.048-.262-.156-.68-.483-.997-.353-.344-.864-.463-1.416-.463zm17.703 1.343q-.088.166-.198.364l-.188 1.091q0 .573.188 1.07.198.43.496.771-1.995-.364-3.594-.54 1.003-.595 1.576-1.323.585-.727 1.72-1.433zm4.707-.088q.606.044 2.04.915 1.432.86 2.954 1.422-1.114.066-2.425.474-1.323.397-2.778.595.231-.275.463-.782.22-.508.22-1.08 0-.585-.21-1.092-.11-.243-.264-.452zm-2.32-.508q.381 0 .733.155.375.155.661.42.287.253.463.616.143.364.165.783.023.419-.132.783-.165.364-.419.65-.264.298-.628.463-.364.154-.783.165l-.054.001q-.379 0-.728-.144-.375-.154-.662-.408-.275-.253-.44-.617-.155-.364-.177-.794 0-.408.154-.771.144-.364.397-.65.265-.298.628-.442.364-.198.772-.21h.05zm-.06-.747q-.72 0-1.423.153-1.521.33-3.086 1.973-1.566 1.631-2.745 1.742l-.022.771q2.678.232 5.258.706.964.177 2.029.177 1.783 0 3.846-.497 3.285-.794 4.167-.96h1.455v-.947h-1.499q-1.07-.364-2.866-1.444Q132.33.594 130.71.208 129.843 0 129.002 0zm-5.222 15.57L121.727 18h1.002l1.053-1.255L124.844 18l1.033-1.255L126.94 18l1.053-1.255L129.056 18l1.052-1.255L131.171 18l1.033-1.255L133.267 18l1.063-1.255L135.363 18l1.063-1.255L137.479 18h1.002l-2.055-2.43-1.063 1.175-1.033-1.175-1.063 1.175-1.063-1.175-1.033 1.175-1.063-1.175-1.052 1.175-1.063-1.175-1.053 1.175-1.063-1.175-1.033 1.175-1.063-1.175zm18.291.013q-.1 0-.195.03-.37.12-.327.36.037.203.331.203.054 0 .116-.007.403-.043.708-.327-.34-.26-.633-.26zm.19-.22q.786 0 2.427.937.823.426 1.805.426.474 0 .985-.1 1.286-.26 2.702-.457.481-.066.932-.066.877 0 1.64.251 1.155.382 1.918.49.763.11 2.42.197-1.068.109-2.093.109-1.024 0-2.42-.229-.697-.114-1.342-.114-.646 0-1.24.114-1.188.229-2.703.425-.378.05-.744.05-1.097 0-2.078-.442-.953-.65-1.978-.65-.454 0-.921.127-.414-.022-.37-.458.24-.588 1.024-.61h.035zm.582-2.224q-.472 0-.88 1.44-.341-1.272-.88-1.272-.081 0-.166.029-.654.414.436 1.59-.872.502-.872 1.265 0 .763 1.286.85.398-.104.777-.104.888 0 1.675.573.674.49 2.136.49.974 0 2.3-.218 1.627-.458 3.163-.458.583 0 1.152.066 1.424.165 2.425.165.455 0 .823-.035 1.852-.043 1.852-.348-.501-.458-1.416-.61-1.94-.022-3.542-.676-.801-.327-1.965-.327-1.163 0-2.689.327-.983.248-1.832.248-1.162 0-2.069-.466-.937-.567-1.983-.937.871-.676.817-1.123-.055-.447-.534-.468h-.014zm20.914-10.068c-.27.13-.6.49-.1.55.24-.01.79-.26.69-.49a.221.221 0 0 1-.158.067c-.141 0-.287-.127-.432-.127zm-1.971.09c-.33.08-.5.44-.08.52l.022.002c.241 0 .9-.294.358-.361-.09-.06-.18-.16-.3-.16zm2.63-2.51c.591.69 1.111 1.49 1.211 2.41.1.66.13 1.321.23 1.971-.47-.04-.33-.77-.24-1.12.08-.69-.29-1.33-.55-1.941-.18-.33-.35-.85-.81-.86-.51.09-.84.52-1.17.89-.34-.34-.701-.71-1.171-.85a.236.236 0 0 0-.082-.013c-.105 0-.228.046-.285.046-.05 0-.048-.034.057-.164.063-.224.195-.29.358-.29.238 0 .543.141.8.141a.561.561 0 0 0 .112-.01c.085.004.17.007.254.007.437 0 .876-.067 1.287-.218zm-.16.76c.391.1.481.64.671.96.24.56.53 1.17.34 1.801-.15.3.04.68.02.9-.333.235-.626.73-1.07.73a.631.631 0 0 1-.15-.02c-.44-.09-.66-.51-1-.71-.247.238-.393.73-.798.73a.618.618 0 0 1-.183-.03c-.37-.08-.86-.04-.97-.49-.19-.46-.21-.97-.24-1.47a.324.324 0 0 0 .06.006c.203 0 .221-.235.24-.436.077-.293.287-.429.52-.429.157 0 .325.062.47.178.17.19.69.34.58.64-.05.18-.11.371-.17.561l.42.56c.04-.29.47-.53.22-.82-.04-.13-.19-.3-.17-.4.18-.32.42-.6.7-.84a.322.322 0 0 1 .23-.103c.268 0 .538.351.771.382.23-.25-.02-.35-.25-.48a.701.701 0 0 0-.487-.196c-.25 0-.5.13-.654.356-.19.114-.322.494-.489.494-.052 0-.108-.037-.17-.134-.306-.244-.672-.518-1.073-.518a.855.855 0 0 0-.178.018c-.284.059-.538.632-.56.632v-.001c-.01-.47.21-.89.34-1.351a.612.612 0 0 1 .595-.477c.173 0 .348.075.475.237.298.11.516.634.796.634.05 0 .1-.017.154-.054.31-.33.56-.72 1.01-.86zm-1.42 6.943c1.27 1.31 2.441 4.632 2.741 5.993-.49-.4-1.16-.66-1.31-.91-.16-.26-.6-2.792-1.43-5.083zm4.522-2.381c2.401 1.38 6.583 8.174 7.474 9.264-1.5-.95-2.982-1.91-4.592-2.691-2.261-1.11-4.192-2.911-6.033-4.592 1.52-.51 2.611-1.37 3.151-1.981zm-2.49 8.624c.32.19.61.45.96.59-.21.52-.34 1.1-.77 1.51-.082.13-.197.172-.329.172-.227 0-.504-.123-.735-.123-.016 0-.032 0-.047.002.28-.7.7-1.01.92-2.151zm.68-9.365c.06.126.137.167.22.167.107 0 .223-.071.32-.116.24.17 1.07.15.58.51-.31.42-1.968 1.566-3.119 1.768-.497.087.338.873.608 1.153 1.56 1.4 3.091 2.882 4.962 3.892 1.17.66 2.401 1.25 3.532 1.98.54.781 1.18 1.502 1.59 2.362-.41.12-.81.29-1.23.39a2.89 2.89 0 0 1-.703.082c-.66 0-1.325-.197-1.618-.512-.54-.57-1.13-3.001-1.44-3.892-.045-.1-.107-.133-.175-.133-.135 0-.292.132-.37.132a.04.04 0 0 1-.036-.019.391.391 0 0 0-.387-.376c-.175 0-.338.127-.313.396-.06.63-.18 1.26-.48 1.831-.037.097-.114.134-.215.134-.285 0-.762-.293-1.086-.374.13-.77-.92-4.712-4.002-8.014-.108-.116-.577-.611-.536-.611a.11.11 0 0 1 .036.02c.157.042.335.07.51.07.338 0 .67-.104.84-.42.026-.077.059-.108.097-.108.137 0 .344.399.564.399a.92.92 0 0 0 .513.155c.29 0 .578-.131.777-.355.19-.17.37-.34.56-.51zM164.506 0a3.71 3.71 0 0 1-1.36.28c-.071 0-.142-.004-.21-.01a.804.804 0 0 1-.143.012c-.337 0-.7-.18-1.026-.18a.622.622 0 0 0-.353.098c-.55.8-1.05 1.69-1.11 2.681-.11 1.901-.06 2.562 1.44 4.122.59 1.341 1.691 5.713 2.022 6.904.36.34-.45 2.2-.79 2.66-.186.256-.674.268-1.198.268h-.171c-.472 0-.949.01-1.243.193-.28.18-.38.85-.22.94.15-.23.45-.54.66-.57-.2.21.5.11.65.16.405.007.814.041 1.225.041.199 0 .398-.008.596-.03.09-.04.187-.102.229-.102.033 0 .033.038-.029.151.284.074.602.111.913.111.7 0 1.363-.187 1.509-.56.3-.551.58-1.131.78-1.732.255.054.577.234.834.234a.38.38 0 0 0 .206-.054c.28-.19.57-1.08.73-1.67.016-.062.1-.092.184-.092.08 0 .163.028.187.082.3.6.8 2.44 1.28 3.211.363.571 1.241.852 2.176.852a4.48 4.48 0 0 0 1.716-.332c.65-.28 1.131-.22.99-.58-.22-.6-.6-1.17-1-1.68.58.36 1.161.73 1.741 1.09.048.174.168.243.291.243.237 0 .483-.256.24-.513-2.272-3.282-5.883-8.875-8.384-10.685-.4-.35-.87-.62-1.391-.75-.17-.44-.12-1.031-.22-1.531-.1-.99-.7-2.632-1.751-3.262zm15.492 0c-.335 0-.67.026-.994.066-.448.113-.218.626.18.626a.476.476 0 0 0 .081-.008c.84.097 1.872.15 2.506.626.841.916.463 2.821.561 3.725.007.05.01 3.653.01 5.48a6.145 6.145 0 0 0-2.634-.586 6.04 6.04 0 0 0-1.188.117c-.441.231.077.528.423.528.04 0 .08-.004.114-.013 1.226.133 2.62.461 3.243 1.602.061.206.023.277-.07.277-.207 0-.68-.342-.947-.342-.014 0-.028 0-.04.003a7.535 7.535 0 0 0-1.58-.169 6.8 6.8 0 0 0-1.149.095c-.42.278.096.534.438.534a.532.532 0 0 0 .105-.01c1.251.151 2.636.49 3.243 1.633.007 1.27 0 2.11.034 3.278-.015.36.219.538.456.538.235 0 .473-.176.474-.526-.009-1.15-.09-2.161.06-3.277.304-1.253 2.477-1.445 3.827-1.754.295-.347-.285-.475-.658-.475-.056 0-.107.003-.15.008a6.823 6.823 0 0 0-.522-.02c-.882 0-1.771.175-2.557.58-.032-.755.711-1.19 1.244-1.493.84-.361 1.765-.397 2.643-.59.313-.273-.18-.501-.521-.501a.58.58 0 0 0-.125.012 6.767 6.767 0 0 0-.648-.031c-.902 0-1.804.183-2.614.582.016-2.851.063-5.61-.02-8.308-.065-.834-.545-1.6-1.354-1.849C181.29.094 180.642 0 180 0zm17.63.601c1.074 0 2.418.552 3.068 1.202.57.57.644 1.324.665 2.025h-7.435c.02-.7.095-1.455.664-2.025.65-.65 1.964-1.202 3.038-1.202zm0-.601c-1.275 0-2.645.589-3.449 1.392-.824.824-.917 1.91-.917 2.72v.317h8.732v-.316c0-.812-.062-1.897-.886-2.72C200.304.588 198.902 0 197.628 0zm-6.323 15.57L189.25 18h1.002l1.053-1.255L192.368 18l1.033-1.255L194.464 18l1.053-1.255L196.58 18l1.053-1.255L198.696 18l1.032-1.255L200.791 18l1.063-1.255L202.887 18l1.063-1.255L205.003 18h1.002l-2.055-2.43-1.063 1.175-1.033-1.175-1.063 1.175-1.063-1.175-1.032 1.175-1.063-1.175-1.053 1.175-1.063-1.175-1.053 1.175-1.063-1.175-1.033 1.175-1.063-1.175zM210.08 1.124q2.015.293 2.106 1.842v11.177q-.941-1.124-3.38-1.58l1.275-11.44zM209.515 0l-1.509 13.363q3.361.385 4.181 2.4V18h1.003V2.966q0-2.51-3.675-2.966zm7.749 1.124q2.015.293 2.106 1.842v11.177q-.942-1.124-3.382-1.58l1.276-11.44zM216.697 0l-1.508 13.363q3.36.385 4.18 2.4V18h1.003V2.966q0-2.51-3.675-2.966zm11.083.597a2.1 2.1 0 0 1 .691.109c-.031.223-.169.569-.953.773.73-.053 1.207-.113 1.453-.307.089.2.137.427.158.556a.297.297 0 0 0 .206.237c.625.191 1.174 1.112 1.7 1.763.95 1.173 1.772 2.48 2.688 3.733-.423-.207-.845-.415-1.27-.622-1.182-.622-2.394-1.11-3.407-1.877-.588-.49-1.171-.996-1.39-1.641-.076-.497.296-1.074.767-1.279a.297.297 0 1 0-.238-.545 1.957 1.957 0 0 0-.904.817c.01-.152.032-.308.075-.448a.297.297 0 0 0 .013-.104 1.372 1.372 0 0 0-.082-.422c-.041-.109-.085-.206-.158-.459a.297.297 0 0 0-.104-.153c.14-.062.315-.112.527-.125.042-.003.083-.003.125-.004a.258.258 0 1 0 .102-.002zm1.193 5.432c.605.466 1.253.873 1.888 1.28-.005.438.006.879.047 1.321a2.215 2.215 0 0 0-.697-.3c-.391-.636-.82-1.22-1.083-1.842a4.553 4.553 0 0 1-.155-.46zm-.249 1c.273.549.621 1.04.928 1.529-.058.04-.112.08-.154.121l-.027.027a1.713 1.713 0 0 0-.614-.454c.01-.348-.047-.768-.133-1.222zm2.88.047a25.922 25.922 0 0 1 .588.297c.78.38 1.56.772 2.35 1.148.556.67 1.156 1.293 1.734 1.92l-1.043.175-2.563-2.786a.297.297 0 0 0-.04-.036 19.147 19.147 0 0 0-1.025-.718zm-2.591 2.009c.058.066.112.14.161.222a.298.298 0 0 0 .43.087c.124-.09.2-.177.265-.244l.077 1.413c-.1-.006-.2-.013-.296-.013-.166 0-.313.022-.398.108-.1-.078-.28-.1-.504-.1-.057 0-.118.002-.18.005l.445-1.478zm-5.419.999c.452.062.686.323.704.783h-1.395c0-.46.23-.721.691-.783zm7.861-2.39c.274.182.541.367.798.56l2.402 2.613H232.2c-.17-.19-.518-.365-.776-.365a.366.366 0 0 0-.192.046 2.987 2.987 0 0 0-.256-.01c-.14 0-.285.007-.433.016l-.083-1.506c.225.115.407.282.626.542a.297.297 0 0 0 .52-.246 9.753 9.753 0 0 1-.15-1.65zm-6.24 3.745l-.266.465H223.7l-.252-.465zm4.515 0v2.51l-1.726-2.51zM227.787 0a3.878 3.878 0 0 0-.273.01c-.694.044-1.215.325-1.408.768a.298.298 0 0 0 .341.408l.025-.006.03.007.108.029c.054.168.096.269.12.332a.541.541 0 0 1 .042.2 3.112 3.112 0 0 0-.037 1.389c.095.466.384.977.761 1.46a.295.295 0 0 0 .014.108c.183.559.396 1.318.548 2.027.153.708.234 1.387.192 1.684a.3.3 0 0 0 .223.33l.019.005-.527 1.75a1.787 1.787 0 0 0-.259-.018c-.256 0-.51.041-.712.041a.865.865 0 0 1-.184-.016.314.314 0 0 0-.068-.007c-.212 0-.656.13-.787.366h-1.1c-.061-.797-.482-1.235-1.26-1.315-.789.08-1.196.518-1.223 1.315v.572h.531l.545 1.01h1.767l.53-1.01h1.568l2.404 3.493V18h.571v-6.561h4.517v-.41l.1.109a.297.297 0 0 0 .267.092l1.74-.292a.298.298 0 0 0 .173-.492 49.17 49.17 0 0 0-.656-.716l1.656 1.078a.296.296 0 0 0 .412-.087.297.297 0 0 0-.087-.411l-1.345-.876a.292.292 0 0 0 .076-.09.315.315 0 0 0 .02-.237c-.016-.05-.034-.074-.048-.093-.055-.076-.084-.088-.123-.119a2.938 2.938 0 0 0-.131-.094c-.096-.065-.206-.137-.301-.2a4.156 4.156 0 0 1-.216-.156l-2.379-1.672-.008-.005c-.805-1.13-1.568-2.316-2.457-3.414-.433-.535-.937-1.524-1.812-1.894-.048-.262-.156-.68-.483-.997-.353-.344-.864-.463-1.416-.463zm12.753 0v1.21h6.565V0zm0 8.32v1.21h6.545V8.32zm0 8.47V18h6.545v-1.21zm9.999-9.332v1.656c-.565 0-.848-.283-.848-.848 0-.539.283-.808.848-.808zM252.634 0c-.463 0-.855.116-1.176.35-.613.443-.919 1.09-.919 1.938v4.584c-.942 0-1.42.465-1.434 1.394 0 .942.478 1.413 1.434 1.413V18h.746V2.732c0-1.023.199-1.68.596-1.969.206-.15.476-.225.838-.225.337 0 .754.065 1.273.195a.65.65 0 0 0 .213.043c.11 0 .188-.048.232-.144.013-.162-.108-.276-.364-.343-.538-.193-1.018-.289-1.44-.289zm8.066 5.565c3.711 0 3.711-5.565 0-5.565-3.71 0-3.71 5.565 0 5.565zm-1.22 4.062c-5.439 1.9-2.904 9.54 2.195 8.228 5.054-1.302 4.045-9.318-2.195-8.228m.243.698c5.417-.787 5.639 5.768 1.708 6.812-3.846 1.022-6.482-5.13-1.708-6.812m1.188 1.152c1.083-.74-.884-.487 0-.018v.018m-1.985.433c1.227-.397-.343-.795 0-.073v.073m2.993-.712v.732l.73-.244-.73-.488m-3.571 2.066c.903-.795-.595-.885-.108-.09l.108.09m2.839-.846l-.244.731.732-.487-.488-.244m-1.052.358l-.072-.017c-.668-.489-1.39 1.767.072.017m3.014-.397c-.957.56.162.703.253.703l-.253-.703m-2.938 1.502l.244.244.488-.732-.732.488m1.674-.474l-.468.019c.558.866.757.793.468-.019m-3.68 1.517c.883-.74-.434-.632-.416-.488l.415.488m1.01-.903l.221.305c.718-.215.34-.792-.22-.305m3.435.836l.244.244.488-.732-.732.488m-1.324.012c-.758-.378-.92-.27-.47.344l.47-.344m-2.578.72l.244.731.488-.732h-.732m3.246-.465l-.45.54c.106.217 1.1.145.45-.54m-1.54.71l-.243.731h.732l-.488-.732zm6.443-5.183V18h.735v-7.35zm4.37 0V18h.735v-7.35zm4.37 0V18h.736v-7.35zM286.255.665q1.24 0 2.49.434 2.515.87 4.533 3.1-2.425-1.79-4.736-2.384-1.155-.297-2.31-.297-1.156 0-2.312.297-2.31.594-4.736 2.384 2.116-2.214 4.582-3.092 1.238-.442 2.49-.442zM286.231 0q-2.848.065-4.955 1.514-2.108 1.448-2.645 2.49-.488.813-.057 1.025.13.064.262.064.302 0 .609-.34.83-.88 3.808-1.978 1.49-.55 2.978-.55 1.49 0 2.979.55 2.978 1.098 3.808 1.993.325.337.624.337.134 0 .263-.068.415-.22-.073-1.033-.538-1.042-2.645-2.49Q289.079.065 286.23 0zm.002 12.515q-.36 0-.58.24-.22.24-.22.54 0 .26.22.511.22.25.56.25.38 0 .591-.23.21-.23.21-.53 0-.32-.25-.551-.25-.23-.53-.23zm0-.18q.36 0 .671.28.31.28.31.68 0 .36-.27.661-.27.3-.73.3-.421 0-.691-.32-.27-.32-.27-.64 0-.38.27-.671.27-.29.71-.29zm0-5.026q-.38 0-.44.78v3.424q.02.4-.22.741-.21.08-.41.08-.201 0-.391-.08l-3.244-1.06q-.27-.063-.46-.063-.356 0-.421.222-.12.36.62.661l3.264 1.041q.38.12.621.48 0 .441-.26.762l-2.003 2.763q-.42.68-.12.88.08.06.177.06.263 0 .644-.44l2.003-2.763q.22-.34.64-.48.4.12.641.48l2.002 2.763q.381.44.634.44.092 0 .167-.06.3-.22-.1-.9l-2.022-2.763q-.26-.32-.24-.741.24-.36.64-.48l3.244-1.042q.741-.3.62-.64-.08-.241-.444-.241-.183 0-.436.06l-3.264 1.061q-.19.07-.385.07-.196 0-.396-.07-.26-.34-.24-.74V8.09q-.06-.781-.42-.781zM296.646 0l-.552.552v.708l1.083-1.083.177-.177zm3 0l-3.552 3.552v.708l4.083-4.083.177-.177zm3 0l-6.552 6.552v.708l7.083-7.083.177-.177zm3 0l-9.552 9.552v.708L306.177.177l.177-.177zm3 0l-12.552 12.552v.708L309.177.177l.177-.177zm3 0l-15.552 15.552v.708L312.177.177l.177-.177zm3 0l-17.823 17.823-.177.177h.708L315.177.177l.177-.177zm3 0l-17.823 17.823-.177.177h.708L318.094.26V0zm.448 2.552l-15.27 15.271-.178.177h.708l14.74-14.74v-.708zm0 3l-12.27 12.271-.178.177h.708l11.74-11.74v-.708zm0 3l-9.27 9.271-.178.177h.708l8.74-8.74v-.708zm0 3l-6.27 6.271-.178.177h.708l5.74-5.74v-.708zm0 3l-3.27 3.271-.178.177h.708l2.74-2.74v-.708zm0 3l-.27.271-.178.177h.448v-.448z"/><path d="M320.094.552l-2 2v.708l2-2V.552zm0 3l-2 2v.708l2-2v-.708zm0 3l-2 2v.708l2-2v-.708zm0 3l-2 2v.708l2-2v-.708zm0 3l-2 2v.708l2-2v-.708zm0 3l-2 2V18h.26l1.74-1.74v-.708zm4.222-2.849c-.682.054-1.058.394-1.13 1.022.09.68.466 1.04 1.13 1.075.663-.036 1.012-.394 1.048-1.075-.054-.628-.403-.968-1.048-1.022zm.08-2.259c.484 0 .932.09 1.345.269a3.545 3.545 0 0 1 1.828 1.815c.18.403.27.83.27 1.277 0 .466-.09.901-.27 1.304a3.422 3.422 0 0 1-3.173 2.03c-.484 0-.936-.085-1.358-.255a3.235 3.235 0 0 1-1.089-.712 3.495 3.495 0 0 1-.726-1.063 3.174 3.174 0 0 1-.269-1.304c0-.448.09-.874.27-1.277a3.67 3.67 0 0 1 .725-1.076 3.41 3.41 0 0 1 2.447-1.008zm-.054-.914a4.17 4.17 0 0 0-1.667.336c-.52.224-.968.529-1.344.914a4.48 4.48 0 0 0-.9 1.345 4.071 4.071 0 0 0-.337 1.653c0 .592.112 1.143.336 1.654.224.511.524.955.9 1.331A4.267 4.267 0 0 0 324.343 18c.592 0 1.143-.112 1.654-.336a4.48 4.48 0 0 0 1.345-.9 4.21 4.21 0 0 0 .914-1.332 4.07 4.07 0 0 0 .336-1.654c0-.591-.112-1.142-.336-1.653a4.358 4.358 0 0 0-2.259-2.259 4.071 4.071 0 0 0-1.654-.336zm6.249 1.15V18h1.225v-7.32z"/></svg>