<svg xmlns="http://www.w3.org/2000/svg" width="248.363" height="18"><path d="M2.097 0c-.335 0-.67.026-.995.066-.447.113-.217.626.18.626a.476.476 0 0 0 .082-.008c.84.097 1.872.15 2.506.626.841.916.463 2.821.561 3.725.007.05.01 3.653.01 5.48a6.145 6.145 0 0 0-2.635-.586 6.04 6.04 0 0 0-1.187.117c-.441.231.076.528.422.528.041 0 .08-.004.115-.013 1.226.133 2.62.461 3.243 1.602.061.206.023.277-.071.277-.206 0-.68-.342-.946-.342-.014 0-.028 0-.04.003a7.535 7.535 0 0 0-1.58-.169c-.39 0-.777.031-1.15.095-.42.278.097.534.439.534a.532.532 0 0 0 .105-.01c1.251.151 2.636.49 3.243 1.633.007 1.27 0 2.11.033 3.278-.014.36.22.538.456.538.235 0 .473-.176.475-.526-.009-1.15-.091-2.161.06-3.277.304-1.253 2.477-1.445 3.827-1.754.294-.347-.285-.475-.659-.475-.055 0-.107.003-.15.008a6.823 6.823 0 0 0-.521-.02c-.882 0-1.771.175-2.557.58-.032-.755.711-1.19 1.244-1.493.84-.361 1.765-.397 2.643-.59.313-.273-.18-.501-.521-.501a.58.58 0 0 0-.125.012 6.767 6.767 0 0 0-.648-.031c-.903 0-1.805.183-2.614.582.016-2.851.062-5.61-.02-8.308-.065-.834-.546-1.6-1.354-1.849C3.388.094 2.741 0 2.097 0zm23.995 2.99q.557 0 1.086.606-4.368 5.2-5.46 5.81-.814.457-1.434.457-.21 0-.399-.053-.74-.208-1.586-.234h-.042q-.828 0-1.817.988h-.13q.702-1.638 1.963-2.34 1.261-.702 7.397-5.148.213-.085.422-.085zM18.36.622q.066 0 .133.01v6.683Q16.44 8.51 15.66 10.668q1.196-8.268 1.677-9.204Q17.77.62 18.361.62zM13.005 11.09q-.08 0-.153.138-.13.247.234.689.208-.546.052-.741-.069-.086-.133-.086zm.037-.372q.153 0 .33.237.39.52-.234 2.08-.702-1.352-.429-1.976.149-.34.333-.34zm6.804 2.577v.39q-.286-.026-.442-.182.052-.078.208-.208zm.598.884l2.418.338.494.884q-.832-.234-1.833-.624-1-.39-1.079-.598zm-5.33-.364l.468.234.156 1.118-.416 1.274h-.65l.442-1.274v-1.352zm1.118.39l.442.13.156.832-.416 1.274h-.65l.442-1.274.026-.962zm1.534.156l.156.806-.416 1.274h-.65l.442-1.274v-.78l.468-.026zm-.994-3.234q.415 0 .89.1 1.404.3 1.768 1.418h1.092l.416-.676q5.512 1.274 6.214 4.602-1.508-.832-3.172-1.118l-.728-1.456-2.886-.39.078-.702h-.988q-1.092.9-2.228.9-.243 0-.489-.042-1.391-.234-1.82-.95-.429-.714.455-1.3.585-.386 1.398-.386zM18.617 0q-.947 0-1.488.658-.663.806-1.235 4.238l-.91 5.954q-.442.468-.676.52h-.312q-.026-.65-.494-1.196-.416-3.978.364-6.968l-.312-.598q-1.118 3.38-.546 7.592h-.078q-1.794-4.03-.52-7.592l-.312-.468q-1.664 3.796.364 8.242-.572 1.248-.117 2.054.455.806.559 1.508l.182.13q.702-1.04.806-1.794h.26q.026.598.338 1.248l.182 1.638-.442 1.274h-2.262v.624h6.526v-.624h-.546l.416-1.274.026-.962q.468-.156.702-.364.338.312.754.312-.026.26.104.442 1.04.806 3.718 1.404l.91 1.768q0-.434.27-.434.085 0 .198.044l-.728-1.3q1.508.338 2.288.858.416.442-.052 1.066 1.04-.442 1.17-1.248-.416-3.926-7.046-5.46l-.468.78h-.416q-.338-1.092-2.678-1.508.522-.388 1.285-.388.414 0 .9.115.491.116.96.116.844 0 1.613-.376 1.196-.585 6.084-6.461-.9-1.136-1.905-1.136-.329 0-.669.122L19.066 7.08V.034Q18.831 0 18.617 0z"/><path d="M37.458.375c-9.625 0-9.625 17.25 0 17.25m0 0" fill="none" stroke="#000"/><path d="M43.68 12.703c-.681.054-1.058.394-1.13 1.022.09.68.467 1.04 1.13 1.075.663-.036 1.013-.394 1.049-1.075-.054-.628-.404-.968-1.049-1.022zm.08-2.259c.485 0 .933.09 1.345.269a3.545 3.545 0 0 1 1.828 1.815c.18.403.27.83.27 1.277 0 .466-.09.901-.27 1.304a3.422 3.422 0 0 1-3.173 2.03c-.483 0-.936-.085-1.357-.255a3.235 3.235 0 0 1-1.09-.712 3.495 3.495 0 0 1-.725-1.063 3.174 3.174 0 0 1-.27-1.304c0-.448.09-.874.27-1.277a3.67 3.67 0 0 1 .726-1.076c.304-.313.667-.56 1.089-.739.421-.18.874-.269 1.358-.269zm-.053-.914c-.592 0-1.147.112-1.667.336-.52.224-.968.529-1.345.914a4.48 4.48 0 0 0-.9 1.345 4.071 4.071 0 0 0-.337 1.653c0 .592.112 1.143.336 1.654.225.511.525.955.901 1.331A4.267 4.267 0 0 0 43.707 18c.591 0 1.143-.112 1.654-.336a4.48 4.48 0 0 0 1.344-.9 4.21 4.21 0 0 0 .914-1.332 4.07 4.07 0 0 0 .336-1.654c0-.591-.112-1.142-.336-1.653a4.358 4.358 0 0 0-2.258-2.259 4.071 4.071 0 0 0-1.654-.336zm22.032 4.167q-2.48 3.372-7.138 3.463-4.626-.091-7.107-3.463zm-15.784-.8Q52.497 17.98 58.601 18q6.136-.02 8.677-5.103zm20.913 2.686q-.1 0-.195.03-.37.12-.327.36.037.203.331.203.054 0 .116-.007.403-.043.708-.327-.34-.26-.633-.26zm.189-.22q.786 0 2.427.937.824.426 1.805.426.474 0 .985-.1 1.286-.26 2.703-.457.481-.066.932-.066.877 0 1.64.251 1.155.382 1.918.49.763.11 2.42.197-1.069.109-2.093.109-1.025 0-2.42-.229-.697-.114-1.343-.114-.645 0-1.24.114-1.187.229-2.702.425-.379.05-.744.05-1.098 0-2.079-.442-.952-.65-1.978-.65-.453 0-.92.127-.415-.022-.37-.458.239-.588 1.023-.61h.036zm.582-2.224q-.471 0-.88 1.44-.34-1.272-.88-1.272-.08 0-.165.029-.654.414.436 1.59-.872.502-.872 1.265 0 .763 1.286.85.397-.104.776-.104.889 0 1.676.573.673.49 2.135.49.975 0 2.3-.218 1.628-.458 3.164-.458.582 0 1.152.066 1.423.165 2.424.165.456 0 .823-.035 1.853-.043 1.853-.348-.501-.458-1.417-.61-1.94-.022-3.542-.676-.8-.327-1.964-.327-1.163 0-2.689.327-.984.248-1.832.248-1.162 0-2.07-.466-.937-.567-1.983-.937.872-.676.818-1.123-.055-.447-.534-.468h-.015zm24.877-9.872q.575 0 .447.554l-1.321 5.39h-1.108l1.321-5.368q.107-.576.66-.576zm1.704 0q.533 0 .426.554l-1.278 5.39H96.26l1.278-5.368q.128-.576.682-.576zm1.832 0q.597 0 .448.554l-1.3 5.39h-1.108l1.278-5.368q.15-.576.682-.576zm1.79 0q.49 0 .426.554l-1.3 5.39H99.86l1.3-5.368q.107-.576.682-.576zm1.79 0q.51 0 .447.554l-1.321 5.39h-1.108l1.3-5.368q.17-.576.681-.576zm-.768 6.605q.533 0 .533.447 0 .448-.511.448h-8.48q-.532 0-.532-.448 0-.447.532-.447zm-9.97.895q-1.79 2.79-2.301 5.54-.042.916-.552.916h-.024q-.532-.022-.34-.938.894-3.75 3.217-5.518zm11.483 0q2.322 1.768 3.217 5.518.192.916-.34.937h-.024q-.51 0-.552-.916-.511-2.748-2.3-5.54zm-4.41-8.075q-2.45 0-4.112.213-.66.085-.81.938l-1.235 5.22q-.17.49-.789.809-3.472 2.45-4.154 6.775Q88.973 18 90.001 18h.016q1.044-.01 1.236-1.332 1.023-3.941 1.875-5.198h1.023v.682h1.619v-.682h5.71v.682h1.619v-.682h1.022q.874 1.257 1.897 5.198.191 1.321 1.235 1.332h.016q1.03 0 1.135-1.353-.682-4.325-4.155-6.775h.022q-.618-.34-.64-.554l1.236-5.475q.107-.831-.703-.96-1.96-.19-4.197-.19zM114.553 0c-.112 0-.223.01-.334.02-1.61.172-2.754 1.802-2.501 3.382.111 1.174.84 1.832 1.64 2.48 2.38 1.458 1.711.921 4.11 2.136l.385-.718c-2.855-1.337-3.2-1.55-4.09-2.137-.729-.587-1.306-1.235-1.255-2.217-.02-.678.384-1.377.84-1.71A2.18 2.18 0 0 1 114.634.8c.344 0 .668.08.951.283.72.355 1.114 1.529.588 2.268a1.396 1.396 0 0 1-1.114.597 1.03 1.03 0 0 1-.608-.192c-.364-.202-.637-.911-.263-1.306-.172-.182-.415-.405-.597-.405-.122 0-.213.091-.273.304-.405.972.242 2.075 1.214 2.338.173.051.345.081.517.081 1.113 0 2.146-.93 2.146-2.085.101-1.347-.972-2.582-2.318-2.663a3.272 3.272 0 0 0-.324-.02zm.217 14.172c1.074 0 2.418.552 3.069 1.202.569.57.643 1.324.664 2.025h-7.435c.021-.701.095-1.456.665-2.025.65-.65 1.963-1.202 3.037-1.202zm0-.601c-1.274 0-2.645.588-3.449 1.392-.824.824-.917 1.909-.917 2.72V18h8.732v-.316c0-.812-.062-1.897-.886-2.721-.803-.804-2.206-1.392-3.48-1.392zM130.396.924c.297 0 .476.05.568.103.27.172.14.583.097.84h-1.33c-.032-.263-.177-.664.098-.84.093-.053.27-.103.567-.103zm-7.389 1.552V3.4h-1.262v-.924zm6.556 0V3.4h-6.252v-.924zm1.52 0V3.4h-1.217v-.924zm6.104 0V3.4h-5.8v-.924zm1.632 0V3.4h-1.328v-.924zM127.726 0l-.43.431 1.439 1.436h-7.6v2.142h18.293V1.867h-7.37l1.44-1.436-.431-.431-1.33 1.327c-.08-.804-.632-.989-1.34-1.012-.758.02-1.223.192-1.34 1.012L127.725 0zm-6.556 10.67V18h1.225v-7.33zm8.423.01V18h1.225v-7.32zm8.576 0V18h1.225v-7.32z"/><path d="M149.115.375v17.25M141.428.375c9.625 0 9.625 17.25 0 17.25" fill="none" stroke="#000"/><path d="M157.085.597c.269.002.505.041.692.109-.031.223-.169.569-.953.773.73-.053 1.206-.113 1.452-.307.09.2.137.427.159.556a.297.297 0 0 0 .206.237c.625.191 1.174 1.112 1.7 1.763.95 1.173 1.771 2.48 2.688 3.733l-1.27-.622c-1.182-.622-2.395-1.11-3.407-1.877-.589-.49-1.172-.996-1.39-1.641-.076-.497.296-1.074.767-1.279a.297.297 0 1 0-.238-.545c-.377.164-.7.458-.904.817.01-.152.032-.308.075-.448a.297.297 0 0 0 .012-.104 1.372 1.372 0 0 0-.082-.422c-.04-.109-.084-.206-.157-.459a.297.297 0 0 0-.105-.153 1.53 1.53 0 0 1 .528-.125c.042-.003.083-.003.124-.004a.258.258 0 1 0 .103-.002zm1.193 5.432c.606.466 1.254.873 1.889 1.28-.005.438.006.879.046 1.321a2.215 2.215 0 0 0-.697-.3c-.39-.636-.82-1.22-1.082-1.842a4.553 4.553 0 0 1-.156-.46zm-.248 1c.273.549.621 1.04.928 1.529-.059.04-.112.08-.154.121l-.028.027a1.713 1.713 0 0 0-.613-.454c.01-.348-.047-.768-.133-1.222zm2.88.047a25.922 25.922 0 0 1 .588.297c.78.38 1.56.772 2.349 1.148.556.67 1.157 1.293 1.735 1.92l-1.044.175-2.562-2.786a.297.297 0 0 0-.04-.036 19.147 19.147 0 0 0-1.026-.718zm-2.592 2.009c.058.066.112.14.162.222a.298.298 0 0 0 .43.087c.124-.09.2-.177.265-.244l.077 1.413c-.1-.006-.201-.013-.296-.013-.167 0-.313.022-.398.108-.1-.078-.28-.1-.504-.1-.058 0-.118.002-.18.005l.444-1.478zm-5.418.999c.451.062.686.323.704.783h-1.395c0-.46.23-.721.69-.783zm7.86-2.39c.274.182.542.367.798.56l2.403 2.613h-2.456c-.171-.19-.519-.365-.776-.365a.366.366 0 0 0-.192.046 2.987 2.987 0 0 0-.256-.01c-.14 0-.286.007-.434.016l-.082-1.506c.224.115.407.282.625.542a.297.297 0 0 0 .52-.246 9.753 9.753 0 0 1-.15-1.65zm-6.24 3.745l-.266.465h-1.248l-.252-.465zm4.516 0v2.51l-1.727-2.51zM157.092 0a3.878 3.878 0 0 0-.272.01c-.694.044-1.215.325-1.408.768a.298.298 0 0 0 .34.408l.025-.006.03.007.108.029c.055.168.096.269.12.332a.541.541 0 0 1 .043.2 3.112 3.112 0 0 0-.037 1.389c.095.466.384.977.761 1.46a.295.295 0 0 0 .014.108c.183.559.396 1.318.548 2.027.152.708.233 1.387.192 1.684a.3.3 0 0 0 .223.33l.019.005-.527 1.75a1.787 1.787 0 0 0-.26-.018c-.256 0-.509.041-.712.041a.865.865 0 0 1-.183-.016.314.314 0 0 0-.068-.007c-.212 0-.657.13-.787.366h-1.1c-.061-.797-.482-1.235-1.261-1.315-.788.08-1.196.518-1.222 1.315v.572h.531l.545 1.01h1.766l.532-1.01h1.567l2.404 3.493V18h.571v-6.561h4.516v-.41l.1.109a.297.297 0 0 0 .268.092l1.74-.292a.298.298 0 0 0 .173-.492 49.17 49.17 0 0 0-.657-.716l1.657 1.078a.296.296 0 0 0 .412-.087.297.297 0 0 0-.087-.411l-1.345-.876a.292.292 0 0 0 .076-.09.315.315 0 0 0 .02-.237.305.305 0 0 0-.048-.093c-.055-.076-.084-.088-.124-.119a2.938 2.938 0 0 0-.13-.094c-.096-.065-.206-.137-.301-.2a4.156 4.156 0 0 1-.217-.156l-2.378-1.672-.008-.005c-.805-1.13-1.568-2.316-2.457-3.414-.433-.535-.938-1.524-1.812-1.894-.048-.262-.157-.68-.484-.997-.353-.344-.863-.463-1.416-.463zm14.188 7.458v1.656c-.565 0-.848-.283-.848-.848 0-.539.283-.808.848-.808zM173.375 0c-.463 0-.855.116-1.176.35-.613.443-.919 1.09-.919 1.938v4.584c-.942 0-1.42.465-1.434 1.394 0 .942.478 1.413 1.434 1.413V18h.746V2.732c0-1.023.199-1.68.596-1.969.206-.15.476-.225.838-.225.338 0 .754.065 1.273.195a.65.65 0 0 0 .213.043c.11 0 .188-.048.232-.144.013-.162-.108-.276-.364-.343-.538-.193-1.018-.289-1.44-.289zm6.271 0l-2.468 2.469v.707l2.999-3 .177-.176zm3 0l-5.468 5.469v.707l5.999-6 .177-.176zm3 0l-8.468 8.469v.707l8.999-9 .177-.176zm3 0l-11.468 11.469v.707l11.999-12 .177-.176zm3 0l-14.468 14.469v.707l14.999-15 .177-.176zm3 0l-17.468 17.469V18h.176L195.177.177l.177-.177zm3 0l-17.823 17.823-.177.177h.708L198.177.177l.177-.177zm1.532 1.469l-16.355 16.354-.177.177h.708l15.824-15.824v-.707zm0 3l-13.355 13.354-.177.177h.708l12.824-12.824v-.707zm0 3l-10.355 10.354-.177.177h.708l9.824-9.824v-.707zm0 3l-7.355 7.354-.177.177h.708l6.824-6.824v-.707zm0 3l-4.355 4.354-.177.177h.708l3.824-3.824v-.707zm0 3l-1.355 1.354-.177.177h.708l.824-.824v-.707z"/><path d="M200.646 0l-1.468 1.469v.707l1.999-2V0zm.532 2.469l-2 2v.707l2-2v-.707zm0 3l-2 2v.707l2-2v-.707zm0 3l-2 2v.707l2-2v-.707zm0 3l-2 2v.707l2-2v-.707zm0 3l-2 2v.707l2-2v-.707zm0 3l-.355.354-.177.177h.532v-.531z"/><path d="M201.178 10.68V18h1.225v-7.32zm6.008 7.388c3.71 0 3.71-5.565 0-5.565s-3.71 5.565 0 5.565zM211.9 0v7.35h.735V0zm4.37 0v7.35h.736V0zm4.371 0v7.35h.735V0zm-6.556 10.65V18h.735v-7.35zm4.37 0V18h.736v-7.35zm7.704 7.418c3.71 0 3.71-5.565 0-5.565s-3.71 5.565 0 5.565zm7.696-6.993c-.79.01-1.514.203-2.06.648-.567.45-.927 1.15-.922 2.005V18h.588v-4.277c0-.699.263-1.195.698-1.544.42-.334 1.013-.517 1.68-.517h.082c.663 0 1.26.183 1.68.517.436.349.699.845.699 1.544V18h.587v-4.272c.005-.856-.354-1.554-.921-2.005-.547-.445-1.27-.638-2.06-.648zM238.887 0v7.35h.735V0zm4.37 0v7.35h.736V0zm4.371 0v7.35h.735V0zm-6.556 10.65V18h.736v-7.35zm4.371 0V18h.735v-7.35z"/></svg>