<svg xmlns="http://www.w3.org/2000/svg" width="207.231" height="18"><path d="M2.097 0c-.335 0-.67.026-.995.066-.447.113-.217.626.18.626a.476.476 0 0 0 .082-.008c.84.097 1.872.15 2.506.626.841.916.463 2.821.561 3.725.007.05.01 3.653.01 5.48a6.145 6.145 0 0 0-2.635-.586 6.04 6.04 0 0 0-1.187.117c-.441.231.076.528.422.528.041 0 .08-.004.115-.013 1.226.133 2.62.461 3.243 1.602.061.206.023.277-.071.277-.206 0-.68-.342-.946-.342-.014 0-.028 0-.04.003a7.535 7.535 0 0 0-1.58-.169c-.39 0-.777.031-1.15.095-.42.278.097.534.439.534a.532.532 0 0 0 .105-.01c1.251.151 2.636.49 3.243 1.633.007 1.27 0 2.11.033 3.278-.014.36.22.538.456.538.235 0 .473-.176.475-.526-.009-1.15-.091-2.161.06-3.277.304-1.253 2.477-1.445 3.827-1.754.294-.347-.285-.475-.659-.475-.055 0-.107.003-.15.008a6.823 6.823 0 0 0-.521-.02c-.882 0-1.771.175-2.557.58-.032-.755.711-1.19 1.244-1.493.84-.361 1.765-.397 2.643-.59.313-.273-.18-.501-.521-.501a.58.58 0 0 0-.125.012 6.767 6.767 0 0 0-.648-.031c-.903 0-1.805.183-2.614.582.016-2.851.062-5.61-.02-8.308-.065-.834-.546-1.6-1.354-1.849C3.388.094 2.741 0 2.097 0zm23.995 2.99q.557 0 1.086.606-4.368 5.2-5.46 5.81-.814.457-1.434.457-.21 0-.399-.053-.74-.208-1.586-.234h-.042q-.828 0-1.817.988h-.13q.702-1.638 1.963-2.34 1.261-.702 7.397-5.148.213-.085.422-.085zM18.36.622q.066 0 .133.01v6.683Q16.44 8.51 15.66 10.668q1.196-8.268 1.677-9.204Q17.77.62 18.361.62zM13.005 11.09q-.08 0-.153.138-.13.247.234.689.208-.546.052-.741-.069-.086-.133-.086zm.037-.372q.153 0 .33.237.39.52-.234 2.08-.702-1.352-.429-1.976.149-.34.333-.34zm6.804 2.577v.39q-.286-.026-.442-.182.052-.078.208-.208zm.598.884l2.418.338.494.884q-.832-.234-1.833-.624-1-.39-1.079-.598zm-5.33-.364l.468.234.156 1.118-.416 1.274h-.65l.442-1.274v-1.352zm1.118.39l.442.13.156.832-.416 1.274h-.65l.442-1.274.026-.962zm1.534.156l.156.806-.416 1.274h-.65l.442-1.274v-.78l.468-.026zm-.994-3.234q.415 0 .89.1 1.404.3 1.768 1.418h1.092l.416-.676q5.512 1.274 6.214 4.602-1.508-.832-3.172-1.118l-.728-1.456-2.886-.39.078-.702h-.988q-1.092.9-2.228.9-.243 0-.489-.042-1.391-.234-1.82-.95-.429-.714.455-1.3.585-.386 1.398-.386zM18.617 0q-.947 0-1.488.658-.663.806-1.235 4.238l-.91 5.954q-.442.468-.676.52h-.312q-.026-.65-.494-1.196-.416-3.978.364-6.968l-.312-.598q-1.118 3.38-.546 7.592h-.078q-1.794-4.03-.52-7.592l-.312-.468q-1.664 3.796.364 8.242-.572 1.248-.117 2.054.455.806.559 1.508l.182.13q.702-1.04.806-1.794h.26q.026.598.338 1.248l.182 1.638-.442 1.274h-2.262v.624h6.526v-.624h-.546l.416-1.274.026-.962q.468-.156.702-.364.338.312.754.312-.026.26.104.442 1.04.806 3.718 1.404l.91 1.768q0-.434.27-.434.085 0 .198.044l-.728-1.3q1.508.338 2.288.858.416.442-.052 1.066 1.04-.442 1.17-1.248-.416-3.926-7.046-5.46l-.468.78h-.416q-.338-1.092-2.678-1.508.522-.388 1.285-.388.414 0 .9.115.491.116.96.116.844 0 1.613-.376 1.196-.585 6.084-6.461-.9-1.136-1.905-1.136-.329 0-.669.122L19.066 7.08V.034Q18.831 0 18.617 0z"/><path d="M37.458.375c-9.625 0-9.625 17.25 0 17.25m0 0" fill="none" stroke="#000"/><path d="M43.68 12.703c-.681.054-1.058.394-1.13 1.022.09.68.467 1.04 1.13 1.075.663-.036 1.013-.394 1.049-1.075-.054-.628-.404-.968-1.049-1.022zm.08-2.259c.485 0 .933.09 1.345.269a3.545 3.545 0 0 1 1.828 1.815c.18.403.27.83.27 1.277 0 .466-.09.901-.27 1.304a3.422 3.422 0 0 1-3.173 2.03c-.483 0-.936-.085-1.357-.255a3.235 3.235 0 0 1-1.09-.712 3.495 3.495 0 0 1-.725-1.063 3.174 3.174 0 0 1-.27-1.304c0-.448.09-.874.27-1.277a3.67 3.67 0 0 1 .726-1.076c.304-.313.667-.56 1.089-.739.421-.18.874-.269 1.358-.269zm-.053-.914c-.592 0-1.147.112-1.667.336-.52.224-.968.529-1.345.914a4.48 4.48 0 0 0-.9 1.345 4.071 4.071 0 0 0-.337 1.653c0 .592.112 1.143.336 1.654.225.511.525.955.901 1.331A4.267 4.267 0 0 0 43.707 18c.591 0 1.143-.112 1.654-.336a4.48 4.48 0 0 0 1.344-.9 4.21 4.21 0 0 0 .914-1.332 4.07 4.07 0 0 0 .336-1.654c0-.591-.112-1.142-.336-1.653a4.358 4.358 0 0 0-2.258-2.259 4.071 4.071 0 0 0-1.654-.336zM58.59 3.173c-.682.054-1.058.394-1.13 1.022.09.68.466 1.04 1.13 1.075.663-.036 1.013-.394 1.048-1.075-.053-.628-.403-.968-1.048-1.022zm.08-2.259c.484 0 .933.09 1.345.27a3.545 3.545 0 0 1 1.828 1.815c.18.402.27.828.27 1.276 0 .466-.09.901-.27 1.305a3.422 3.422 0 0 1-3.173 2.03c-.484 0-.936-.085-1.358-.256a3.235 3.235 0 0 1-1.089-.712 3.495 3.495 0 0 1-.726-1.062 3.174 3.174 0 0 1-.268-1.305c0-.448.09-.874.268-1.277a3.67 3.67 0 0 1 .726-1.075 3.31 3.31 0 0 1 1.09-.74A3.41 3.41 0 0 1 58.67.914zM58.617 0a4.17 4.17 0 0 0-1.668.336c-.52.224-.968.529-1.344.914a4.48 4.48 0 0 0-.9 1.345 4.071 4.071 0 0 0-.337 1.653c0 .592.112 1.143.336 1.654.224.511.525.955.901 1.331a4.267 4.267 0 0 0 3.012 1.237c.591 0 1.142-.112 1.653-.336a4.48 4.48 0 0 0 1.345-.9c.385-.377.69-.82.914-1.332a4.07 4.07 0 0 0 .336-1.654c0-.591-.112-1.142-.336-1.653A4.358 4.358 0 0 0 60.27.336 4.071 4.071 0 0 0 58.617 0zm7.122 13.697q-2.48 3.372-7.138 3.463-4.626-.091-7.107-3.463zm-15.784-.8Q52.497 17.98 58.601 18q6.136-.02 8.677-5.103zM70.771.543c-.148 0-.514.176-.171.178.056 0 .18.017.27.017.11 0 .174-.024.023-.128-.037-.025-.07-.065-.116-.067h-.006zm.058-.118l.012.001c.265.061.473.283.748.36.23.064.61.15.53.488-.105.452-.408.888-.313 1.36.06.296.389.322.655.322h.126c1.74-.015 3.12-.088 4.229-.088 1.816 0 2.899.197 3.623 1.177 1.202 1.625.79 3.25.492 5.303.083-1.211.485-3.118-.76-4.766-.526-.695-1.417-.988-2.237-1.195-.377-.095-.88-.128-1.435-.128-1.281 0-2.839.177-3.744.177-.216 0-.395-.01-.524-.035-.349-.067-.598-.497-.567-.853.04-.473.413-.912.274-1.39-.063-.212-.248-.26-.45-.26-.144 0-.296.025-.418.03-.132.008-.26.026-.387.026A.683.683 0 0 1 70.2.785c-.296-.26.51-.36.629-.36zm.04-.425h-.028c-.383.02-.769.137-1.101.33-.347.202-.068.593.166.765.217.16.46.308.731.308a.744.744 0 0 0 .161-.018c.139-.03.384-.088.551-.088.099 0 .17.02.178.077.061.47-.44 1.042-.238 1.585.166.446.546.85 1.053.887a9.3 9.3 0 0 0 .666.023c1.17 0 2.334-.189 3.504-.209h.11c2.242 0 3.37 1.17 3.626 1.897.25.704.429 1.441.366 2.191-.076.902-.209 1.813-.135 2.715.065.796.342 1.568.53 2.34.045.181.173.271.292.271.131 0 .252-.107.243-.323-.039-.995-.268-1.845-.241-2.763.022-.789.224-1.548.27-2.339.055-.917.31-4.007-2.192-4.906-.72-.259-1.634-.33-2.602-.33-1.146 0-2.369.1-3.439.1-.4 0-.779-.015-1.124-.052.137-.491.401-.92.34-1.431-.049-.405-.491-.556-.828-.648-.314-.086-.527-.382-.86-.382zm-.449 16.264q-.073 0-.14.022-.267.087-.235.259.026.145.237.145.039 0 .083-.004.29-.032.509-.235-.245-.187-.454-.187zm.135-.158q.565 0 1.743.673.591.306 1.296.306.34 0 .707-.07.923-.189 1.94-.33.346-.047.67-.047.63 0 1.177.18.83.274 1.377.353.548.078 1.737.14-.767.079-1.502.079-.736 0-1.737-.165-.501-.082-.965-.082-.463 0-.89.082-.852.165-1.94.306-.272.035-.535.035-.787 0-1.492-.317-.683-.467-1.42-.467-.325 0-.66.091-.298-.015-.267-.328.172-.423.736-.438h.025zm.418-1.596q-.338 0-.631 1.033-.245-.912-.632-.912-.058 0-.12.02-.469.298.314 1.143-.626.36-.626.907 0 .548.923.61.286-.074.558-.074.638 0 1.203.41.483.353 1.533.353.7 0 1.651-.156 1.169-.33 2.271-.33.419 0 .827.048 1.022.118 1.741.118.327 0 .591-.024 1.33-.032 1.33-.25-.36-.33-1.017-.439-1.393-.015-2.543-.485-.575-.235-1.41-.235t-1.93.235q-.707.178-1.316.178-.835 0-1.486-.334-.673-.407-1.424-.673.626-.485.587-.806-.04-.321-.384-.337h-.01zm19.224-6.152c1.36 1.528 2.486 3.271 3.489 5.042.21.26-.027.498-.2.745-.662-2.1-2.183-3.719-3.289-5.787zM88.881.648c.114.528-.095 1.139-.496 1.319l.128.273c.501-.238.982-.95 1.054-1.591.684.04.871.556.978 1.154.129.408-.001 1.4.516 1.571 1.53.592 2.698 1.277 3.748 2.312 1.81 2.264 3.702 4.457 5.513 6.724.703.882 1.346 1.69 1.869 2.3-2.75-2.056-5.822-3.628-8.836-5.262-1.602-.87-3.13-1.582-3.13-3.498 0-1.03 1.899-1.894 1.82-2.028-.006-.011-.028-.017-.063-.017-.39 0-2.385.74-2.385 2.3 0 .432.116.833.317 1.207h-.01c-2.188-1.16-1.84-3.506-1.755-5.574-.91-.05-1.659-.547-2.523-.753.67-.087 1.338-.199 2.01-.268a.533.533 0 0 0-.318.2c-.011.221.238.318.481.318.237 0 .469-.092.446-.252a.61.61 0 0 0-.52-.276c.334-.047.779-.118 1.156-.16zm3.823 13.303c.196.476.298.98.408 1.48.32-.257.628-.523.89-.838-.17.926-.488 1.86-1.26 1.86-.467 0-.683-.315-.383-1.271.14-.45.253-.882.345-1.231zm-.838-4.584c3.12 1.662 6.21 3.34 9.162 5.292.695.563 1.315 1.191 1.734 1.778-.278.432-.808.58-1.297.613-2.498-.087-3.476-2.495-4.796-4.216l-.718-.872.124 1.117c.009.202.215 1.153-.092 1.153a.228.228 0 0 1-.09-.021l-1.263-1.512c-.135.09-.262.19-.401.273-.627-1.267-1.543-2.447-2.363-3.605zM89.173 0c-.656 0-1.328.118-1.965.177-.76.37-1.53.088-2.327.378-.575.258-.737.782-.975 1.306.34-.113.648-.16.939-.16.928 0 1.676.468 2.657.717-.001.493-.079 1.052-.115 1.615-.153 1.526.652 2.865 1.814 3.818.833 1.855 1.985 3.277 2.826 4.724-.1.65-.705 3.103-1.003 3.983a11.14 11.14 0 0 1-1.821.154 9.337 9.337 0 0 1-.79-.032c-.473 0-.993.808-1.503 1.24l10.362.08c-.264-.934-2.105-1.43-2.76-1.43a.913.913 0 0 0-.1.005c.231-.66.52-1.281.601-2.204.29.259.614.539 1.018.568.495-.037.696-.375.759-.816 1.121 1.854 2.375 3.368 4.675 3.591.795-.039 1.785-.386 2-1.231 1.054-.06.28-1.087-.11-1.489-2.87-3.105-5.237-6.65-8.072-9.778-1.091-1.077-2.324-1.805-3.85-2.41-.114-.278-.151-.675-.225-1.112-.08-.477-.335-1.257-.8-1.5A3.556 3.556 0 0 0 89.173 0zm19.689 9.982c-.111 0-.223.01-.334.02-1.61.172-2.754 1.802-2.5 3.381.11 1.175.84 1.833 1.64 2.48 2.379 1.459 1.71.922 4.11 2.137l.385-.719c-2.855-1.336-3.2-1.549-4.09-2.136-.73-.587-1.307-1.235-1.256-2.217-.02-.679.385-1.377.84-1.711.365-.274.83-.436 1.286-.436.344 0 .668.081.952.284.719.354 1.113 1.529.587 2.268a1.396 1.396 0 0 1-1.114.597 1.03 1.03 0 0 1-.607-.192c-.365-.203-.638-.911-.263-1.306-.173-.183-.415-.405-.598-.405-.121 0-.212.09-.273.303-.405.972.243 2.076 1.215 2.34.172.05.344.08.516.08 1.114 0 2.146-.931 2.146-2.085.102-1.347-.971-2.582-2.318-2.663a3.272 3.272 0 0 0-.324-.02zm7.713-8.415q-.374 0-.374.316t.327.316q.375 0 .375-.293.011-.339-.328-.339zm8.163-1.123q-.011.375-.55.638-.265.13-.114.13.155 0 .746-.136-.35.269-.62.433-1.696.48-3.216 2.198 1.076-1.883 3.754-3.263zm1.263.83q-.093.363-.631.498-.458.114.246.114.122 0 .28-.003-.702.398-.871.41-.17.01-.012.087.158.076.72.076-.48.304-.802.322-.321.017-.134.093t.69.076q-.25.233-.61.233-.111 0-.232-.022l.538.28q-.258.094-.48.129-.596.023 0 .304-.125.078-.301.078-.089 0-.19-.02-.655.75-3.357 2.211l.246.175.597-.163q.467.783 1.333 1.462.935.128.947.97-.01.398-.486.398-.083 0-.18-.012-.04.006-.078.006-.336 0-.577-.462-.313-.532-.82-.532h-.01q-.515.006-.843.17l-.877-.328q-1.24-1.532-1.807-2.181-.567-.65-.824-1.684-.258-1.035-.766-1.316-.51-.28-1.223-.807l.117-.199q.526-.206.915-.206.89 0 1.062 1.083.245 1.556.526 2.123.28.567 1.117.65.043.003.088.003.815 0 2.035-1.419 1.286-1.497 2.86-1.988 1.572-.491 1.794-.608zM124.925 0q-2.958 1.474-3.877 2.982-.918 1.509-1.385 1.708-.23.098-.463.098-.239 0-.479-.104-.474-.205-.643-1.345-.17-1.14-.404-1.596-.234-.457-.883-.614-.177-.043-.361-.043-.492 0-1.036.306-.55-.21-1.018-.21-.339.163-.14.28 1.38.889 2.035 1.327.655.439.918 1.55.263 1.11 1.292 2.07 1.076 1.146 1.065 1.906-.094.468-.626 1.111-.532.644-.626 1.275-.011.34.129.503.199-.082.234-.257-.059-.363.017-.497.076-.135.17-.322.14.363.117.772.28-.21.257-.456l-.082-.679q.644-.631.924-1.31.28.06.398.223-.082.526-.509 1-.427.473-.59 1.023.035.737.175.772.199-.257.134-.421-.064-.164-.005-.298.058-.135.14-.275.164.164.164.76.21-.152.257-.398-.164-.526-.047-.807.62-.631.924-1.508.27-.117.567-.176.054-.01.106-.01.243 0 .473.22.244.795 1.038.795.235 0 .518-.069.166.277.602.277.116 0 .251-.02.024-.608-.386-.818.114-1.359-.967-1.359l-.073.002q-1.041-.947-1.287-1.427 1.684-.912 2.503-1.766.027.005.057.005.242 0 .668-.332l-.28-.14q.327-.047.736-.387l-.374-.058q.245-.023.631-.456l-.432-.024q.409-.117.643-.502l-.597-.012q.644-.187.737-.55l-.245-.035q.35-.199.304-.795l-1.567.514q.339-.21.339-.584l-.246.023q.293-.28.105-.842zm-8.598 13.207h-.014c-.079 0-.17.034-.195.115-.02.08.055.146.124.164.028.01.058.015.088.015a.19.19 0 0 0 .163-.078c.038-.05.042-.136-.018-.17-.04-.037-.096-.046-.148-.046zm1.811.978l.005.003.004.003c.089.059.186.103.288.135.691.239 1.428.347 2.09.665.424.191.846.386 1.267.581-.38.02-.761.038-1.142.038a9.3 9.3 0 0 1-.589-.017c-.461-.035-.925-.1-1.363-.253-.201-.07-.371-.204-.554-.31a.379.379 0 0 1-.182-.317c.002-.19.09-.364.176-.528zm-1.568-1.02l.006.001c.282.025.516.2.738.361.204.142.381.316.574.474-.147.18-.284.388-.295.629-.017.197.03.4.143.562.173.258.457.415.74.527.514.195 1.065.272 1.612.308.274.015.548.021.821.021a27.836 27.836 0 0 0 1.778-.063c.017.012.111.04.06.04h-.003c-.81.055-1.622.135-2.435.135a10.4 10.4 0 0 1-.733-.024c-.823-.08-1.647-.309-2.34-.772a3.432 3.432 0 0 1-.673-.585c-.196-.231-.335-.505-.496-.761-.158-.237-.342-.465-.586-.618.35-.125.716-.214 1.089-.234zm8.006 2.634h.004c.211.01.44.001.624.118a.22.22 0 0 1 .107.129c.063.166.035.385-.117.494a.066.066 0 0 1-.044.015c-.027 0-.056-.01-.082-.013-.172-.04-.326-.133-.493-.19a51.919 51.919 0 0 1-1-.438c.335-.03.669-.07 1-.115zm-5.165.754l.021.002a9.22 9.22 0 0 0 1.06.036c.013.033.07.064.049.098l-.49.858a212.53 212.53 0 0 0-1.383-.007c.241-.258.486-.514.725-.775a.213.213 0 0 0 .018-.212zm-2.79-3.82h-.02c-.296.014-.584.093-.866.177-.35.11-.7.236-1.02.414-.085.053-.181.102-.231.19a.122.122 0 0 0 .086.162c.03.007.06.01.09.01.09 0 .182-.025.273-.025.035 0 .07.004.103.013.215.049.38.211.512.379.205.252.34.552.53.816.141.202.317.375.5.54.597.522 1.344.847 2.113 1.022.068.075.142.145.214.216l-.837.893c-.42.004-.841-.002-1.26.025-.1.012-.196.087-.207.19-.019.126.094.245.217.245.011 0 .022 0 .033-.003.451-.019.903-.015 1.354-.02h2.006c.093-.01.16-.087.197-.167.203-.357.41-.712.61-1.07a.205.205 0 0 0-.005-.166c.806-.04 1.609-.112 2.413-.164.047 0 .094-.009.14-.009.016 0 .03.001.046.004.48.207.952.441 1.455.589.02.002.041.004.062.004.19 0 .37-.108.485-.257a.802.802 0 0 0 .172-.512c.003-.228-.073-.468-.252-.616.138-.043.285-.08.4-.171.03-.026.065-.068.049-.11-.038-.034-.097-.026-.144-.033h-.105c-.315 0-.63.029-.946.05-.696.053-1.392.114-2.089.165-.759-.35-1.515-.708-2.281-1.04-.625-.257-1.301-.36-1.935-.591-.376-.22-.669-.552-1.026-.799-.244-.18-.522-.35-.835-.35z"/><path d="M135.987.375v17.25M128.3.375c9.624 0 9.624 17.25 0 17.25" fill="none" stroke="#000"/><path d="M143.956.597c.27.002.505.041.692.109-.03.223-.168.569-.952.773.73-.053 1.206-.113 1.452-.307.089.2.137.427.158.556a.297.297 0 0 0 .206.237c.625.191 1.174 1.112 1.701 1.763.95 1.173 1.77 2.48 2.687 3.733-.423-.207-.845-.415-1.27-.622-1.181-.622-2.394-1.11-3.406-1.877-.59-.49-1.172-.996-1.391-1.641-.076-.497.296-1.074.767-1.279a.297.297 0 1 0-.238-.545 1.95 1.95 0 0 0-.903.817c.01-.152.031-.308.074-.448a.297.297 0 0 0 .013-.104 1.372 1.372 0 0 0-.082-.422c-.04-.109-.085-.206-.158-.459a.297.297 0 0 0-.104-.153c.14-.062.315-.112.527-.125.043-.003.083-.003.125-.004a.258.258 0 1 0 .102-.002zm1.194 5.432c.605.466 1.253.873 1.888 1.28-.005.438.006.879.047 1.321a2.215 2.215 0 0 0-.697-.3c-.391-.636-.82-1.22-1.083-1.842a4.553 4.553 0 0 1-.155-.46zm-.249 1c.273.549.621 1.04.929 1.529-.06.04-.112.08-.155.121l-.027.027a1.713 1.713 0 0 0-.614-.454c.01-.348-.047-.768-.133-1.222zm2.88.047a25.922 25.922 0 0 1 .588.297c.78.38 1.56.772 2.35 1.148.556.67 1.156 1.293 1.734 1.92l-1.043.175-2.563-2.786a.297.297 0 0 0-.04-.036 19.147 19.147 0 0 0-1.025-.718zm-2.591 2.009c.058.066.112.14.162.222a.298.298 0 0 0 .429.087c.125-.09.2-.177.265-.244l.078 1.413c-.1-.006-.202-.013-.297-.013-.166 0-.313.022-.397.108-.1-.078-.28-.1-.505-.1-.057 0-.118.002-.18.005l.445-1.478zm-5.419.999c.452.062.686.323.704.783h-1.395c0-.46.23-.721.691-.783zm7.861-2.39c.274.182.542.367.798.56l2.402 2.613h-2.456c-.17-.19-.518-.365-.776-.365a.366.366 0 0 0-.191.046 2.987 2.987 0 0 0-.257-.01c-.139 0-.285.007-.433.016l-.083-1.506c.225.115.407.282.626.542a.297.297 0 0 0 .52-.246 9.753 9.753 0 0 1-.15-1.65zm-6.24 3.745l-.266.465h-1.248l-.253-.465zm4.516 0v2.51l-1.727-2.51zM143.964 0a3.878 3.878 0 0 0-.273.01c-.694.044-1.215.325-1.407.768a.298.298 0 0 0 .34.408l.025-.006.03.007.108.029c.054.168.096.269.12.332a.541.541 0 0 1 .042.2 3.112 3.112 0 0 0-.037 1.389c.095.466.384.977.762 1.46a.295.295 0 0 0 .013.108c.183.559.396 1.318.548 2.027.153.708.234 1.387.193 1.684a.298.298 0 0 0 .223.33l.018.005-.527 1.75a1.787 1.787 0 0 0-.259-.018c-.256 0-.51.041-.712.041a.865.865 0 0 1-.184-.016.314.314 0 0 0-.068-.007c-.212 0-.656.13-.787.366h-1.099c-.062-.797-.482-1.235-1.262-1.315-.788.08-1.195.518-1.222 1.315v.572h.531l.545 1.01h1.767l.531-1.01h1.567l2.404 3.493V18h.572v-6.561h4.516v-.41l.1.109a.297.297 0 0 0 .267.092l1.74-.292a.298.298 0 0 0 .173-.492 49.17 49.17 0 0 0-.656-.716l1.656 1.078a.296.296 0 0 0 .412-.087.297.297 0 0 0-.087-.411l-1.345-.876a.292.292 0 0 0 .076-.09.315.315 0 0 0 .02-.237c-.016-.05-.034-.074-.047-.093-.056-.076-.085-.088-.124-.119a2.938 2.938 0 0 0-.131-.094l-.3-.2a4.156 4.156 0 0 1-.217-.156l-2.379-1.672-.008-.005c-.805-1.13-1.567-2.316-2.456-3.414-.433-.535-.938-1.524-1.813-1.894-.048-.262-.156-.68-.483-.997-.353-.344-.864-.463-1.416-.463zm14.187 7.458v1.656c-.565 0-.848-.283-.848-.848 0-.539.283-.808.848-.808zM160.246 0c-.463 0-.855.116-1.176.35-.612.443-.919 1.09-.919 1.938v4.584c-.942 0-1.42.465-1.433 1.394 0 .942.478 1.413 1.433 1.413V18h.747V2.732c0-1.023.198-1.68.596-1.969.205-.15.476-.225.838-.225.337 0 .754.065 1.273.195a.65.65 0 0 0 .212.043c.111 0 .189-.048.232-.144.014-.162-.107-.276-.363-.343-.539-.193-1.019-.289-1.44-.289zm8.067 5.565c3.71 0 3.71-5.565 0-5.565s-3.71 5.565 0 5.565zm-1.221 4.062c-5.438 1.9-2.903 9.54 2.195 8.228 5.054-1.302 4.046-9.318-2.195-8.228m.243.698c5.418-.787 5.64 5.768 1.708 6.812-3.846 1.022-6.482-5.13-1.708-6.812m1.189 1.152c1.082-.74-.885-.487 0-.018v.018m-1.986.433c1.228-.397-.343-.795 0-.073v.073m2.993-.712v.732l.731-.244-.73-.488m-3.572 2.066c.904-.795-.595-.885-.108-.09l.108.09m2.84-.846l-.245.731.732-.487-.488-.244m-1.052.358l-.072-.017c-.668-.489-1.39 1.767.072.017m3.014-.397c-.956.56.162.703.254.703l-.254-.703m-2.938 1.502l.244.244.488-.732-.732.488m1.675-.474l-.469.019c.559.866.757.793.469-.019m-3.681 1.517c.883-.74-.434-.632-.415-.488l.415.488m1.01-.903l.22.305c.719-.215.34-.792-.22-.305m3.435.836l.244.244.488-.732-.732.488m-1.323.012c-.758-.378-.92-.27-.47.344l.47-.344m-2.579.72l.244.731.488-.732h-.732m3.246-.465l-.45.54c.107.217 1.1.145.45-.54m-1.539.71l-.244.731h.732l-.488-.732zm6.442-5.153V18h1.225v-7.32zm6.008 7.388c3.71 0 3.71-5.565 0-5.565s-3.71 5.565 0 5.565zM185.646 0l-.415.415v.707l.946-.945.177-.177zm3 0l-3.415 3.415v.707l3.946-3.945.177-.177zm3 0l-6.415 6.415v.707l6.946-6.945.177-.177zm3 0l-9.415 9.415v.707l9.946-9.945.177-.177zm3 0l-12.415 12.415v.707L198.177.177l.177-.177zm3 0l-15.415 15.415v.707L201.177.177l.177-.177zm3 0l-17.823 17.823-.177.177h.708L204.177.177l.177-.177zm3 0l-17.823 17.823-.177.177h.708L207.177.177l.054-.055V0zm.585 2.415l-15.408 15.408-.177.177h.708L207.23 3.122v-.707zm0 3l-12.408 12.408-.177.177h.708L207.23 6.122v-.707zm0 3l-9.408 9.408-.177.177h.708l8.877-8.878v-.707zm0 3l-6.408 6.408-.177.177h.708l5.877-5.878v-.707zm0 3l-3.408 3.408-.177.177h.708l2.877-2.878v-.707zm0 3l-.408.408-.177.177h.585v-.585z"/></svg>