<svg xmlns="http://www.w3.org/2000/svg" width="290.577" height="18"><path d="M2.097 0c-.335 0-.67.026-.995.066-.447.113-.217.626.18.626a.476.476 0 0 0 .082-.008c.84.097 1.872.15 2.506.626.841.916.463 2.821.561 3.725.007.05.01 3.653.01 5.48a6.145 6.145 0 0 0-2.635-.586 6.04 6.04 0 0 0-1.187.117c-.441.231.076.528.422.528.041 0 .08-.004.115-.013 1.226.133 2.62.461 3.243 1.602.061.206.023.277-.071.277-.206 0-.68-.342-.946-.342-.014 0-.028 0-.04.003a7.535 7.535 0 0 0-1.58-.169c-.39 0-.777.031-1.15.095-.42.278.097.534.439.534a.532.532 0 0 0 .105-.01c1.251.151 2.636.49 3.243 1.633.007 1.27 0 2.11.033 3.278-.014.36.22.538.456.538.235 0 .473-.176.475-.526-.009-1.15-.091-2.161.06-3.277.304-1.253 2.477-1.445 3.827-1.754.294-.347-.285-.475-.659-.475-.055 0-.107.003-.15.008a6.823 6.823 0 0 0-.521-.02c-.882 0-1.771.175-2.557.58-.032-.755.711-1.19 1.244-1.493.84-.361 1.765-.397 2.643-.59.313-.273-.18-.501-.521-.501a.58.58 0 0 0-.125.012 6.767 6.767 0 0 0-.648-.031c-.903 0-1.805.183-2.614.582.016-2.851.062-5.61-.02-8.308-.065-.834-.546-1.6-1.354-1.849C3.388.094 2.741 0 2.097 0zm23.995 2.99q.557 0 1.086.606-4.368 5.2-5.46 5.81-.814.457-1.434.457-.21 0-.399-.053-.74-.208-1.586-.234h-.042q-.828 0-1.817.988h-.13q.702-1.638 1.963-2.34 1.261-.702 7.397-5.148.213-.085.422-.085zM18.36.622q.066 0 .133.01v6.683Q16.44 8.51 15.66 10.668q1.196-8.268 1.677-9.204Q17.77.62 18.361.62zM13.005 11.09q-.08 0-.153.138-.13.247.234.689.208-.546.052-.741-.069-.086-.133-.086zm.037-.372q.153 0 .33.237.39.52-.234 2.08-.702-1.352-.429-1.976.149-.34.333-.34zm6.804 2.577v.39q-.286-.026-.442-.182.052-.078.208-.208zm.598.884l2.418.338.494.884q-.832-.234-1.833-.624-1-.39-1.079-.598zm-5.33-.364l.468.234.156 1.118-.416 1.274h-.65l.442-1.274v-1.352zm1.118.39l.442.13.156.832-.416 1.274h-.65l.442-1.274.026-.962zm1.534.156l.156.806-.416 1.274h-.65l.442-1.274v-.78l.468-.026zm-.994-3.234q.415 0 .89.1 1.404.3 1.768 1.418h1.092l.416-.676q5.512 1.274 6.214 4.602-1.508-.832-3.172-1.118l-.728-1.456-2.886-.39.078-.702h-.988q-1.092.9-2.228.9-.243 0-.489-.042-1.391-.234-1.82-.95-.429-.714.455-1.3.585-.386 1.398-.386zM18.617 0q-.947 0-1.488.658-.663.806-1.235 4.238l-.91 5.954q-.442.468-.676.52h-.312q-.026-.65-.494-1.196-.416-3.978.364-6.968l-.312-.598q-1.118 3.38-.546 7.592h-.078q-1.794-4.03-.52-7.592l-.312-.468q-1.664 3.796.364 8.242-.572 1.248-.117 2.054.455.806.559 1.508l.182.13q.702-1.04.806-1.794h.26q.026.598.338 1.248l.182 1.638-.442 1.274h-2.262v.624h6.526v-.624h-.546l.416-1.274.026-.962q.468-.156.702-.364.338.312.754.312-.026.26.104.442 1.04.806 3.718 1.404l.91 1.768q0-.434.27-.434.085 0 .198.044l-.728-1.3q1.508.338 2.288.858.416.442-.052 1.066 1.04-.442 1.17-1.248-.416-3.926-7.046-5.46l-.468.78h-.416q-.338-1.092-2.678-1.508.522-.388 1.285-.388.414 0 .9.115.491.116.96.116.844 0 1.613-.376 1.196-.585 6.084-6.461-.9-1.136-1.905-1.136-.329 0-.669.122L19.066 7.08V.034Q18.831 0 18.617 0z"/><path d="M37.458.375c-9.625 0-9.625 17.25 0 17.25m0 0" fill="none" stroke="#000"/><path d="M43.68 12.703c-.681.054-1.058.394-1.13 1.022.09.68.467 1.04 1.13 1.075.663-.036 1.013-.394 1.049-1.075-.054-.628-.404-.968-1.049-1.022zm.08-2.259c.485 0 .933.09 1.345.269a3.545 3.545 0 0 1 1.828 1.815c.18.403.27.83.27 1.277 0 .466-.09.901-.27 1.304a3.422 3.422 0 0 1-3.173 2.03c-.483 0-.936-.085-1.357-.255a3.235 3.235 0 0 1-1.09-.712 3.495 3.495 0 0 1-.725-1.063 3.174 3.174 0 0 1-.27-1.304c0-.448.09-.874.27-1.277a3.67 3.67 0 0 1 .726-1.076c.304-.313.667-.56 1.089-.739.421-.18.874-.269 1.358-.269zm-.053-.914c-.592 0-1.147.112-1.667.336-.52.224-.968.529-1.345.914a4.48 4.48 0 0 0-.9 1.345 4.071 4.071 0 0 0-.337 1.653c0 .592.112 1.143.336 1.654.225.511.525.955.901 1.331A4.267 4.267 0 0 0 43.707 18c.591 0 1.143-.112 1.654-.336a4.48 4.48 0 0 0 1.344-.9 4.21 4.21 0 0 0 .914-1.332 4.07 4.07 0 0 0 .336-1.654c0-.591-.112-1.142-.336-1.653a4.358 4.358 0 0 0-2.258-2.259 4.071 4.071 0 0 0-1.654-.336zm6.248-1.735V18h.852V8.667h9.036v8.421l-3.487.02-.02-5.726h-.892V18h5.271V7.795zm21.906-6.8q3.222 0 6.833 1.556-3.611 1.514-6.833 1.514-3.2 0-6.832-1.514Q68.66.995 71.86.995zm0-.995q-3.978 0-9.146 2.53 5.168 2.508 9.146 2.508 3.979 0 9.146-2.508Q75.861 0 71.861 0zm.115 14.915c.296 0 .475.05.567.103.27.172.141.583.098.84h-1.33c-.032-.263-.177-.663.098-.84.092-.052.27-.103.567-.103zm-7.39 1.552v.924h-1.262v-.924zm6.556 0v.924H64.89v-.924zm1.52 0v.924h-1.216v-.924zm6.105 0v.924h-5.8v-.924zm1.631 0v.924H79.07v-.924zM69.305 13.99l-.43.431 1.44 1.436h-7.6V18h18.292v-2.142h-7.37l1.44-1.436-.43-.43-1.331 1.326c-.08-.804-.631-.989-1.34-1.012-.757.02-1.222.192-1.34 1.012l-1.33-1.327zm20.323-5.243l-.445 1.012q.952.192 1.357 1.913l1.538-.394v.961l-1.498.426q.01 1.417-.273 2.662-.294 1.245-1.327 1.61-.516.177-1.037.177-.522 0-1.048-.177-1.053-.365-1.337-1.61-.293-1.245-.263-2.662l-1.498-.426v-.961l1.529.394q.405-1.72 1.366-1.913l-.465-1.012zm-4.11-.71q-.364 0-.05.71l.273.617q-.81.516-1.013 1.428l-1.72-.517v2.562l1.62.465q0 1.458.414 2.916.425 1.458 2.886 1.782 2.46-.324 2.895-1.782.425-1.458.425-2.916l1.62-.465v-2.562l-1.741.517q-.203-.912-1.013-1.428l.274-.617q.324-.71-.05-.71zm9.35 2.643V18h1.225v-7.32z"/><path d="M105.78.375v17.25M98.093.375c9.625 0 9.625 17.25 0 17.25" fill="none" stroke="#000"/><path d="M113.75.597c.27.002.505.041.692.109-.03.223-.168.569-.953.773.73-.053 1.207-.113 1.453-.307.089.2.137.427.158.556a.297.297 0 0 0 .206.237c.625.191 1.174 1.112 1.701 1.763.95 1.173 1.77 2.48 2.687 3.733-.423-.207-.845-.415-1.27-.622-1.182-.622-2.394-1.11-3.406-1.877-.59-.49-1.172-.996-1.391-1.641-.076-.497.296-1.074.767-1.279a.297.297 0 1 0-.238-.545 1.95 1.95 0 0 0-.903.817c.01-.152.031-.308.074-.448a.297.297 0 0 0 .013-.104 1.372 1.372 0 0 0-.082-.422c-.04-.109-.085-.206-.158-.459a.297.297 0 0 0-.104-.153c.14-.062.315-.112.527-.125.043-.003.083-.003.125-.004a.258.258 0 1 0 .102-.002zm1.194 5.432c.605.466 1.253.873 1.888 1.28-.005.438.006.879.047 1.321a2.215 2.215 0 0 0-.697-.3c-.391-.636-.82-1.22-1.083-1.842a4.553 4.553 0 0 1-.155-.46zm-.249 1c.273.549.621 1.04.929 1.529-.06.04-.113.08-.155.121l-.027.027a1.713 1.713 0 0 0-.614-.454c.01-.348-.047-.768-.133-1.222zm2.88.047a25.922 25.922 0 0 1 .588.297c.78.38 1.56.772 2.35 1.148.556.67 1.156 1.293 1.734 1.92l-1.043.175-2.563-2.786a.297.297 0 0 0-.04-.036 19.147 19.147 0 0 0-1.025-.718zm-2.591 2.009c.058.066.112.14.162.222a.298.298 0 0 0 .429.087c.124-.09.2-.177.265-.244l.078 1.413c-.1-.006-.202-.013-.297-.013-.166 0-.313.022-.397.108-.1-.078-.28-.1-.505-.1-.057 0-.118.002-.18.005l.445-1.478zm-5.419.999c.452.062.686.323.704.783h-1.395c0-.46.23-.721.691-.783zm7.861-2.39c.274.182.542.367.798.56l2.402 2.613h-2.456c-.17-.19-.518-.365-.776-.365a.366.366 0 0 0-.192.046 2.987 2.987 0 0 0-.256-.01c-.139 0-.285.007-.433.016l-.083-1.506c.225.115.407.282.626.542a.297.297 0 0 0 .52-.246 9.753 9.753 0 0 1-.15-1.65zm-6.24 3.745l-.266.465h-1.249l-.252-.465zm4.516 0v2.51l-1.727-2.51zM113.758 0a3.878 3.878 0 0 0-.273.01c-.694.044-1.215.325-1.407.768a.298.298 0 0 0 .34.408l.025-.006.03.007.108.029c.054.168.096.269.12.332a.541.541 0 0 1 .042.2 3.112 3.112 0 0 0-.037 1.389c.095.466.384.977.762 1.46a.295.295 0 0 0 .013.108c.183.559.396 1.318.548 2.027.153.708.234 1.387.192 1.684a.3.3 0 0 0 .224.33l.018.005-.527 1.75a1.787 1.787 0 0 0-.259-.018c-.256 0-.51.041-.712.041a.865.865 0 0 1-.184-.016.314.314 0 0 0-.068-.007c-.212 0-.656.13-.787.366h-1.099c-.062-.797-.483-1.235-1.262-1.315-.788.08-1.195.518-1.222 1.315v.572h.531l.545 1.01h1.767l.531-1.01h1.567l2.404 3.493V18h.572v-6.561h4.516v-.41l.1.109a.297.297 0 0 0 .267.092l1.74-.292a.298.298 0 0 0 .173-.492 49.17 49.17 0 0 0-.656-.716l1.656 1.078a.296.296 0 0 0 .412-.087.297.297 0 0 0-.087-.411l-1.345-.876a.292.292 0 0 0 .076-.09.315.315 0 0 0 .02-.237c-.016-.05-.034-.074-.047-.093-.056-.076-.085-.088-.124-.119a2.938 2.938 0 0 0-.131-.094l-.3-.2a4.156 4.156 0 0 1-.217-.156l-2.379-1.672-.008-.005c-.805-1.13-1.567-2.316-2.456-3.414-.433-.535-.938-1.524-1.813-1.894-.048-.262-.156-.68-.483-.997C114.82.119 114.31 0 113.758 0zm17.737.885q3.632.442 0 6.73-3.633-6.288 0-6.73zm0-.885q-5.03.35-.699 8.08h-4.284v1.095h4.238V18h1.443V9.128h4.285V8.08h-4.285q4.331-7.754-.698-8.08zm10.275 2.582c.246 1.79.506 3.625.69 5.418.129 1.27.207 2.461.269 3.413.061.951.092 1.67.06 2.005-.068.7-.253 1.107-.45 1.318a.75.75 0 0 1-.568.24.72.72 0 0 1-.57-.24c-.2-.21-.41-.617-.478-1.318-.032-.334-.002-1.054.06-2.005.061-.952.17-2.144.3-3.413.182-1.794.443-3.628.688-5.418zM141.749 0a.287.287 0 0 0-.067.008.287.287 0 0 0-.09.06.287.287 0 0 0-.06.06.287.287 0 0 0-.06.12c-.004.025.004.063 0 .09a156.91 156.91 0 0 0-.958 7.603 96.489 96.489 0 0 0-.299 3.412c-.062.962-.1 1.7-.06 2.125.076.788.316 1.319.629 1.647.313.328.682.449.988.449.288 0 .682-.122.988-.45.305-.326.522-.858.598-1.646.041-.425.032-1.163-.03-2.125a96.489 96.489 0 0 0-.3-3.412 155.7 155.7 0 0 0-.987-7.604c-.004-.026.004-.064 0-.09a.287.287 0 0 0-.15-.21.287.287 0 0 0-.142-.037zm-2.701 14.496c.061.034.158.035.21.09.123.133.22.322.299.569.078.247.15.545.21.808.059.263.11.505.239.718.086.144.218.238.359.33.14.091.3.165.479.24.24.099.493.135.748.179h-2.544v-2.934zm5.807 0v2.934h-2.544c.255-.044.508-.08.748-.18.178-.074.368-.148.509-.24a.974.974 0 0 0 .329-.329c.128-.213.18-.455.24-.718.06-.263.131-.561.21-.808.077-.247.174-.436.298-.57.052-.054.148-.055.21-.089zm-6.152-.692a.287.287 0 0 0-.044.004.287.287 0 0 0-.09.06.287.287 0 0 0-.09.18v3.681a.287.287 0 0 0 0 .06.287.287 0 0 0 .27.21h6.405a.288.288 0 0 0 .06 0 .287.287 0 0 0 .21-.27v-3.652a.287.287 0 0 0-.03-.12.287.287 0 0 0-.06-.09.287.287 0 0 0-.18-.06 1.26 1.26 0 0 0-.928.39 2.111 2.111 0 0 0-.449.808c-.091.289-.122.556-.18.808-.056.252-.125.48-.179.569a1.001 1.001 0 0 1-.18.15c-.102.066-.238.116-.389.18-.302.125-.665.209-.898.209-.233 0-.596-.084-.898-.21-.15-.063-.287-.113-.389-.18a1.001 1.001 0 0 1-.18-.149c-.053-.089-.092-.317-.15-.569a9.742 9.742 0 0 0-.209-.808 2.108 2.108 0 0 0-.449-.808 1.261 1.261 0 0 0-.928-.39.287.287 0 0 0-.045-.003zM149.168 0c-.93 0-1.745.684-1.745 1.562V18h1.136V1.562c0-.43.378-.57.616-.57.25 0 .634.175.634.703v10.804h1.136V1.695c0-.88-.87-1.695-1.777-1.695z"/><path d="M149.646 0l-2.223 2.224v.707l2.754-2.754.177-.177zm1.299 1.702l-3.522 3.522v.707l3.522-3.522v-.707zm0 3l-3.522 3.522v.707l3.522-3.522v-.707zm0 3l-3.522 3.522v.707l3.522-3.522v-.707zm0 3l-3.522 3.522v.707l3.522-3.522v-.707zm0 3l-3.522 3.522v.707l3.522-3.522v-.707zm0 3l-1.122 1.121-.177.177h.708l.59-.591v-.707zM152.646 0l-1.701 1.702v.707L152.972.38V0zm.326 2.674l-2.027 2.028v.707l2.027-2.028v-.707zm0 3l-2.027 2.028v.707l2.027-2.028v-.707zm0 3l-2.027 2.028v.707l2.027-2.028v-.707zm0 3l-2.027 2.028v.707l2.027-2.028v-.707zm0 3l-2.027 2.028v.707l2.027-2.028v-.707z"/><path d="M152.945 0v.409l.232-.232.177-.177zm2.701 0l-2.701 2.702v.707l3.232-3.232.177-.177zm3 0l-5.701 5.702v.707l6.232-6.232.177-.177zm3 0l-8.701 8.702v.707l9.232-9.232.177-.177zm3 0l-11.701 11.702v.707L165.177.177l.177-.177zm3 0l-14.701 14.702v.707L168.177.177l.177-.177zm3 0l-17.701 17.702V18h.409L171.177.177l.177-.177zm3 0l-17.823 17.823-.177.177h.708L174.177.177l.177-.177zm1.299 1.702l-16.122 16.121-.177.177h.708l15.59-15.591v-.707zm0 3l-13.122 13.121-.177.177h.708l12.59-12.591v-.707zm0 3l-10.122 10.121-.177.177h.708l9.59-9.591v-.707zm0 3l-7.122 7.121-.177.177h.708l6.59-6.591v-.707zm0 3l-4.122 4.121-.177.177h.708l3.59-3.591v-.707zm0 3l-1.122 1.121-.177.177h.708l.59-.591v-.707zM176.646 0l-1.701 1.702v.707l2-2V0zm.299 2.702l-2 2v.707l2-2v-.707zm0 3l-2 2v.707l2-2v-.707zm0 3l-2 2v.707l2-2v-.707zm0 3l-2 2v.707l2-2v-.707zm0 3l-2 2v.707l2-2v-.707zm0-14.702v.409l.232-.232.177-.177zm2.701 0l-2.701 2.702v.707l3.232-3.232.177-.177zm3 0l-5.701 5.702v.707l6.232-6.232.177-.177zm3 0l-8.701 8.702v.707l9.232-9.232.177-.177zm3 0l-11.701 11.702v.707L189.177.177l.177-.177zm3 0l-14.701 14.702v.707L192.177.177l.177-.177zm3 0l-17.701 17.702V18h.409L195.177.177l.177-.177zm3 0l-17.823 17.823-.177.177h.708L198.177.177l.177-.177zm1.299 1.702l-16.122 16.121-.177.177h.708l15.59-15.591v-.707zm0 3l-13.122 13.121-.177.177h.708l12.59-12.591v-.707zm0 3l-10.122 10.121-.177.177h.708l9.59-9.591v-.707zm0 3l-7.122 7.121-.177.177h.708l6.59-6.591v-.707zm0 3l-4.122 4.121-.177.177h.708l3.59-3.591v-.707zm0 3l-1.122 1.121-.177.177h.708l.59-.591v-.707zM200.646 0l-1.701 1.702v.707l2-2V0zm.299 2.702l-2 2v.707l2-2v-.707zm0 3l-2 2v.707l2-2v-.707zm0 3l-2 2v.707l2-2v-.707zm0 3l-2 2v.707l2-2v-.707zm0 3l-2 2v.707l2-2v-.707zm0-14.702v.409l.232-.232.177-.177zm2.701 0l-2.701 2.702v.707l3.232-3.232.177-.177zm3 0l-5.701 5.702v.707l6.232-6.232.177-.177zm3 0l-8.701 8.702v.707l9.232-9.232.177-.177zm3 0l-11.701 11.702v.707L213.177.177l.177-.177zm3 0l-14.701 14.702v.707L216.177.177l.177-.177zm3 0l-17.701 17.702V18h.409L219.177.177l.177-.177zm3 0l-17.823 17.823-.177.177h.708L222.177.177l.177-.177zm1.299 1.702l-16.122 16.121-.177.177h.708l15.59-15.591v-.707zm0 3l-13.122 13.121-.177.177h.708l12.59-12.591v-.707zm0 3l-10.122 10.121-.177.177h.708l9.59-9.591v-.707zm0 3l-7.122 7.121-.177.177h.708l6.59-6.591v-.707zm0 3l-4.122 4.121-.177.177h.708l3.59-3.591v-.707zm0 3l-1.122 1.121-.177.177h.708l.59-.591v-.707zM224.646 0l-1.701 1.702v.707l2-2V0zm.299 2.702l-2 2v.707l2-2v-.707zm0 3l-2 2v.707l2-2v-.707zm0 3l-2 2v.707l2-2v-.707zm0 3l-2 2v.707l2-2v-.707zm0 3l-2 2v.707l2-2v-.707zm0-14.702v.409l.232-.232.177-.177zm2.701 0l-2.701 2.702v.707l3.232-3.232.177-.177zm3 0l-5.701 5.702v.707l6.232-6.232.177-.177zm3 0l-8.701 8.702v.707l9.232-9.232.177-.177zm3 0l-11.701 11.702v.707L237.177.177l.177-.177zm3 0l-14.701 14.702v.707L240.177.177l.177-.177zm3 0l-17.701 17.702V18h.409L243.177.177l.177-.177zm3 0l-17.823 17.823-.177.177h.708L246.177.177l.177-.177zm1.299 1.702l-16.122 16.121-.177.177h.708l15.59-15.591v-.707zm0 3l-13.122 13.121-.177.177h.708l12.59-12.591v-.707zm0 3l-10.122 10.121-.177.177h.708l9.59-9.591v-.707zm0 3l-7.122 7.121-.177.177h.708l6.59-6.591v-.707zm0 3l-4.122 4.121-.177.177h.708l3.59-3.591v-.707zm0 3l-1.122 1.121-.177.177h.708l.59-.591v-.707zM248.646 0l-1.701 1.702v.707l2-2V0zm.299 2.702l-2 2v.707l2-2v-.707zm0 3l-2 2v.707l2-2v-.707zm0 3l-2 2v.707l2-2v-.707zm0 3l-2 2v.707l2-2v-.707zm0 3l-2 2v.707l2-2v-.707zM265.458 0c-.93.012-1.784.239-2.428.763-.668.531-1.091 1.354-1.085 2.362v5.033h.692V3.12c0-.823.31-1.407.823-1.819.495-.394 1.192-.608 1.98-.608h.095c.781 0 1.485.214 1.98.608.513.412.823.996.823 1.82v5.038h.692V3.125c.006-1.008-.418-1.83-1.086-2.362C267.3.24 266.448.012 265.517 0zm0 9.842c-.93.011-1.784.238-2.428.763-.668.53-1.091 1.354-1.085 2.362V18h.692v-5.04c0-.822.31-1.407.823-1.818.495-.394 1.192-.609 1.98-.609h.095c.781 0 1.485.215 1.98.609.513.411.823.996.823 1.819V18h.692v-5.033c.006-1.008-.418-1.831-1.086-2.362-.644-.525-1.496-.752-2.427-.763zM284.03 0v5.079h.508V0zm3.02 0v5.079h.507V0zm3.02 0v5.079h.507V0zm-6.04 6.46v5.08h.508V6.46zm3.02 0v5.08h.507V6.46zm3.02 0v5.08h.507V6.46zm-6.04 6.461V18h.508v-5.079zm3.02 0V18h.507v-5.079zm3.02 0V18h.507v-5.079z"/></svg>