<svg xmlns="http://www.w3.org/2000/svg" width="309.461" height="18"><path d="M2.097 0c-.335 0-.67.026-.995.066-.447.113-.217.626.18.626a.476.476 0 0 0 .082-.008c.84.097 1.872.15 2.506.626.841.916.463 2.821.561 3.725.007.05.01 3.653.01 5.48a6.145 6.145 0 0 0-2.635-.586 6.04 6.04 0 0 0-1.187.117c-.441.231.076.528.422.528.041 0 .08-.004.115-.013 1.226.133 2.62.461 3.243 1.602.061.206.023.277-.071.277-.206 0-.68-.342-.946-.342-.014 0-.028 0-.04.003a7.535 7.535 0 0 0-1.58-.169c-.39 0-.777.031-1.15.095-.42.278.097.534.439.534a.532.532 0 0 0 .105-.01c1.251.151 2.636.49 3.243 1.633.007 1.27 0 2.11.033 3.278-.014.36.22.538.456.538.235 0 .473-.176.475-.526-.009-1.15-.091-2.161.06-3.277.304-1.253 2.477-1.445 3.827-1.754.294-.347-.285-.475-.659-.475-.055 0-.107.003-.15.008a6.823 6.823 0 0 0-.521-.02c-.882 0-1.771.175-2.557.58-.032-.755.711-1.19 1.244-1.493.84-.361 1.765-.397 2.643-.59.313-.273-.18-.501-.521-.501a.58.58 0 0 0-.125.012 6.767 6.767 0 0 0-.648-.031c-.903 0-1.805.183-2.614.582.016-2.851.062-5.61-.02-8.308-.065-.834-.546-1.6-1.354-1.849C3.388.094 2.741 0 2.097 0zm23.995 2.99q.557 0 1.086.606-4.368 5.2-5.46 5.81-.814.457-1.434.457-.21 0-.399-.053-.74-.208-1.586-.234h-.042q-.828 0-1.817.988h-.13q.702-1.638 1.963-2.34 1.261-.702 7.397-5.148.213-.085.422-.085zM18.36.622q.066 0 .133.01v6.683Q16.44 8.51 15.66 10.668q1.196-8.268 1.677-9.204Q17.77.62 18.361.62zM13.005 11.09q-.08 0-.153.138-.13.247.234.689.208-.546.052-.741-.069-.086-.133-.086zm.037-.372q.153 0 .33.237.39.52-.234 2.08-.702-1.352-.429-1.976.149-.34.333-.34zm6.804 2.577v.39q-.286-.026-.442-.182.052-.078.208-.208zm.598.884l2.418.338.494.884q-.832-.234-1.833-.624-1-.39-1.079-.598zm-5.33-.364l.468.234.156 1.118-.416 1.274h-.65l.442-1.274v-1.352zm1.118.39l.442.13.156.832-.416 1.274h-.65l.442-1.274.026-.962zm1.534.156l.156.806-.416 1.274h-.65l.442-1.274v-.78l.468-.026zm-.994-3.234q.415 0 .89.1 1.404.3 1.768 1.418h1.092l.416-.676q5.512 1.274 6.214 4.602-1.508-.832-3.172-1.118l-.728-1.456-2.886-.39.078-.702h-.988q-1.092.9-2.228.9-.243 0-.489-.042-1.391-.234-1.82-.95-.429-.714.455-1.3.585-.386 1.398-.386zM18.617 0q-.947 0-1.488.658-.663.806-1.235 4.238l-.91 5.954q-.442.468-.676.52h-.312q-.026-.65-.494-1.196-.416-3.978.364-6.968l-.312-.598q-1.118 3.38-.546 7.592h-.078q-1.794-4.03-.52-7.592l-.312-.468q-1.664 3.796.364 8.242-.572 1.248-.117 2.054.455.806.559 1.508l.182.13q.702-1.04.806-1.794h.26q.026.598.338 1.248l.182 1.638-.442 1.274h-2.262v.624h6.526v-.624h-.546l.416-1.274.026-.962q.468-.156.702-.364.338.312.754.312-.026.26.104.442 1.04.806 3.718 1.404l.91 1.768q0-.434.27-.434.085 0 .198.044l-.728-1.3q1.508.338 2.288.858.416.442-.052 1.066 1.04-.442 1.17-1.248-.416-3.926-7.046-5.46l-.468.78h-.416q-.338-1.092-2.678-1.508.522-.388 1.285-.388.414 0 .9.115.491.116.96.116.844 0 1.613-.376 1.196-.585 6.084-6.461-.9-1.136-1.905-1.136-.329 0-.669.122L19.066 7.08V.034Q18.831 0 18.617 0z"/><path d="M37.458.375c-9.625 0-9.625 17.25 0 17.25m0 0" fill="none" stroke="#000"/><path d="M43.68 12.703c-.681.054-1.058.394-1.13 1.022.09.68.467 1.04 1.13 1.075.663-.036 1.013-.394 1.049-1.075-.054-.628-.404-.968-1.049-1.022zm.08-2.259c.485 0 .933.09 1.345.269a3.545 3.545 0 0 1 1.828 1.815c.18.403.27.83.27 1.277 0 .466-.09.901-.27 1.304a3.422 3.422 0 0 1-3.173 2.03c-.483 0-.936-.085-1.357-.255a3.235 3.235 0 0 1-1.09-.712 3.495 3.495 0 0 1-.725-1.063 3.174 3.174 0 0 1-.27-1.304c0-.448.09-.874.27-1.277a3.67 3.67 0 0 1 .726-1.076c.304-.313.667-.56 1.089-.739.421-.18.874-.269 1.358-.269zm-.053-.914c-.592 0-1.147.112-1.667.336-.52.224-.968.529-1.345.914a4.48 4.48 0 0 0-.9 1.345 4.071 4.071 0 0 0-.337 1.653c0 .592.112 1.143.336 1.654.225.511.525.955.901 1.331A4.267 4.267 0 0 0 43.707 18c.591 0 1.143-.112 1.654-.336a4.48 4.48 0 0 0 1.344-.9 4.21 4.21 0 0 0 .914-1.332 4.07 4.07 0 0 0 .336-1.654c0-.591-.112-1.142-.336-1.653a4.358 4.358 0 0 0-2.258-2.259 4.071 4.071 0 0 0-1.654-.336zM51.7 0c-.93 0-1.745.684-1.745 1.562V18h1.136V1.562c0-.43.379-.57.617-.57.25 0 .634.175.634.703v10.804h1.136V1.695C53.478.815 52.607 0 51.7 0zm6.27 0q-.33 0-.36.29l.32-.07q.2 0 .11.21-.23.22-.07.651-.293.633-1.13.633l-.101-.002q.04.47-.2.71-.841.481-.841.882.66.31.22.76-.44.451-.44.611.29.09.4.31.5 1.222 1.011 1.732l-.04.41q.49 0 .54-.52-.92-1.12-.89-2.392.04-1.272 1.611-2.503.45-.25.45-.971 0-.741-.59-.741zm6.007 0q-.59 0-.59.74 0 .722.43.972 1.592 1.231 1.632 2.503.03 1.271-.911 2.392.07.52.54.52l-.03-.41q.5-.51 1.011-1.731.12-.22.39-.31 0-.161-.43-.611-.43-.451.22-.761 0-.4-.83-.881-.24-.24-.22-.711l-.1.002q-.82 0-1.112-.633.15-.43-.07-.65-.09-.21.11-.21l.32.07Q64.307 0 63.977 0zm-3.008 5.486q1.176 0 2.357.901.921.781.11 1.792h-4.945q-.811-1.011.13-1.792 1.171-.9 2.348-.9zm-3.54 3.033q-1.39 1.622-1.39 2.473.11.49.43.49.42 0 .54-.38 0-1.261.54-2.112l-.12-.47zm7.089 0l-.12.471q.54.85.54 2.112.11.38.54.38.311 0 .431-.49 0-.85-1.391-2.473zm-4.385.18q.65 0 .65.691v5.216q-2.042 0-2.312-1.311-.27-1.312-.03-4.595zm3.343 0q.27 3.284-.01 4.596-.28 1.311-2.322 1.311V9.39q0-.69.65-.69zm-2.653-5.576v.36q0 .251-.2.251-.31 0-.74-.36h-.22l.69 1.301-.22.07q-.36-.47-.721-.97-.056-.026-.1-.026-.109 0-.13.165l.54.941q-.38.31-.38.541-.6 0-.901.47-.871.611-.871 1.352 0 .56.36 1.281-.25 1.392-.25 3.504 0 1.392.48 2.233.491.84 2.804.84 2.312 0 2.793-.84.49-.841.49-2.233.02-2.112-.23-3.484.36-.74.36-1.301 0-.74-.88-1.351-.31-.471-.892-.471 0-.23-.41-.54l.54-.942q0-.165-.103-.165-.04 0-.097.025-.36.5-.72.971l-.22-.07.67-1.301h-.2q-.45.36-.771.36-.17 0-.17-.25v-.36zm-3.955 8.83h-.039q-1.171 2.073-1.171 3.264 0 1.191.41 1.912.42.72 1.141.871-.97-1.301-.97-2.082 0-.771.18-1.262.16 1.372.72 1.932-.25-1.1-.23-2.322.01-1.232.41-1.832.02-.481-.451-.481zm8.212 0q-.472 0-.452.48.38.601.4 1.833.02 1.221-.22 2.322.56-.56.72-1.932.18.49.18 1.262 0 .78-.97 2.082.72-.15 1.121-.871.41-.72.41-1.912 0-1.191-1.15-3.264h-.04zM77.272.96q3.108 0 6.59 1.501-3.482 1.46-6.59 1.46-3.087 0-6.59-1.46Q74.184.96 77.271.96zm0-.96q-3.838 0-8.822 2.44 4.984 2.42 8.822 2.42 3.838 0 8.822-2.42Q81.131 0 77.272 0zm-6.658 15.441L68.45 18h1.055l1.109-1.322L71.734 18l1.087-1.322L73.94 18l1.108-1.322L76.17 18l1.108-1.322L78.397 18l1.087-1.322L80.604 18l1.12-1.322L82.81 18l1.12-1.322L85.038 18h1.055l-2.164-2.559-1.12 1.237-1.087-1.237-1.12 1.237-1.119-1.237-1.087 1.237-1.12-1.237-1.108 1.237-1.12-1.237-1.109 1.237-1.12-1.237-1.087 1.237-1.119-1.237z"/><path d="M95.782.375v17.25M88.094.375c9.625 0 9.625 17.25 0 17.25" fill="none" stroke="#000"/><path d="M98.646 0l-.302.302v.707l.833-.832.177-.177zm3 0l-3.302 3.302v.707l3.833-3.832.177-.177zm3 0l-6.302 6.302v.707l6.833-6.832.177-.177zm3 0l-9.302 9.302v.707l9.833-9.832.177-.177zm3 0L98.344 12.302v.707L111.177.177l.177-.177zm3 0L98.344 15.302v.707L114.177.177l.177-.177zm3 0L98.823 17.823l-.177.177h.708L117.177.177l.177-.177zm3 0l-17.823 17.823-.177.177h.708L120.177.177l.167-.168V0zm.698 2.302l-15.52 15.521-.178.177h.708l14.99-14.99v-.708zm0 3l-12.52 12.521-.178.177h.708l11.99-11.99v-.708zm0 3l-9.52 9.521-.178.177h.708l8.99-8.99v-.708zm0 3l-6.52 6.521-.178.177h.708l5.99-5.99v-.708zm0 3l-3.52 3.521-.178.177h.708l2.99-2.99v-.708zm0 3l-.52.521-.178.177h.698v-.698z"/><path d="M122.344.302l-2 2v.707l2-2V.302zm0 3l-2 2v.707l2-2v-.707zm0 3l-2 2v.707l2-2v-.707zm0 3l-2 2v.707l2-2v-.707zm0 3l-2 2v.707l2-2v-.707zm0 3l-2 2V18h.01l1.99-1.99v-.708zM122.646 0l-.302.302v.707l.833-.832.177-.177zm3 0l-3.302 3.302v.707l3.833-3.832.177-.177zm3 0l-6.302 6.302v.707l6.833-6.832.177-.177zm3 0l-9.302 9.302v.707l9.833-9.832.177-.177zm3 0l-12.302 12.302v.707L135.177.177l.177-.177zm3 0l-15.302 15.302v.707L138.177.177l.177-.177zm3 0l-17.823 17.823-.177.177h.708L141.177.177l.177-.177zm3 0l-17.823 17.823-.177.177h.708L144.177.177l.167-.168V0zm.698 2.302l-15.52 15.521-.178.177h.708l14.99-14.99v-.708zm0 3l-12.52 12.521-.178.177h.708l11.99-11.99v-.708zm0 3l-9.52 9.521-.178.177h.708l8.99-8.99v-.708zm0 3l-6.52 6.521-.178.177h.708l5.99-5.99v-.708zm0 3l-3.52 3.521-.178.177h.708l2.99-2.99v-.708zm0 3l-.52.521-.178.177h.698v-.698z"/><path d="M146.344.302l-2 2v.707l2-2V.302zm0 3l-2 2v.707l2-2v-.707zm0 3l-2 2v.707l2-2v-.707zm0 3l-2 2v.707l2-2v-.707zm0 3l-2 2v.707l2-2v-.707zm0 3l-2 2V18h.01l1.99-1.99v-.708zM146.646 0l-.302.302v.707l.833-.832.177-.177zm3 0l-3.302 3.302v.707l3.833-3.832.177-.177zm3 0l-6.302 6.302v.707l6.833-6.832.177-.177zm3 0l-9.302 9.302v.707l9.833-9.832.177-.177zm3 0l-12.302 12.302v.707L159.177.177l.177-.177zm3 0l-15.302 15.302v.707L162.177.177l.177-.177zm3 0l-17.823 17.823-.177.177h.708L165.177.177l.177-.177zm3 0l-17.823 17.823-.177.177h.708L168.177.177l.167-.168V0zm.698 2.302l-15.52 15.521-.178.177h.708l14.99-14.99v-.708zm0 3l-12.52 12.521-.178.177h.708l11.99-11.99v-.708zm0 3l-9.52 9.521-.178.177h.708l8.99-8.99v-.708zm0 3l-6.52 6.521-.178.177h.708l5.99-5.99v-.708zm0 3l-3.52 3.521-.178.177h.708l2.99-2.99v-.708zm0 3l-.52.521-.178.177h.698v-.698zm2-17l-2 2v.707l2-2V.302zm0 3l-2 2v.707l2-2v-.707zm0 3l-2 2v.707l2-2v-.707zm0 3l-2 2v.707l2-2v-.707zm0 3l-2 2v.707l2-2v-.707zm0 3l-2 2V18h.01l1.99-1.99v-.708zM170.646 0l-.302.302v.707l.833-.832.177-.177zm3 0l-3.302 3.302v.707l3.833-3.832.177-.177zm3 0l-6.302 6.302v.707l6.833-6.832.177-.177zm3 0l-9.302 9.302v.707l9.833-9.832.177-.177zm3 0l-12.302 12.302v.707L183.177.177l.177-.177zm3 0l-15.302 15.302v.707L186.177.177l.177-.177zm3 0l-17.823 17.823-.177.177h.708L189.177.177l.177-.177zm3 0l-17.823 17.823-.177.177h.708L192.177.177l.167-.168V0zm.698 2.302l-15.52 15.521-.178.177h.708l14.99-14.99v-.708zm0 3l-12.52 12.521-.178.177h.708l11.99-11.99v-.708zm0 3l-9.52 9.521-.178.177h.708l8.99-8.99v-.708zm0 3l-6.52 6.521-.178.177h.708l5.99-5.99v-.708zm0 3l-3.52 3.521-.178.177h.708l2.99-2.99v-.708zm0 3l-.52.521-.178.177h.698v-.698zm2-17l-2 2v.707l2-2V.302zm0 3l-2 2v.707l2-2v-.707zm0 3l-2 2v.707l2-2v-.707zm0 3l-2 2v.707l2-2v-.707zm0 3l-2 2v.707l2-2v-.707zm0 3l-2 2V18h.01l1.99-1.99v-.708zm1.434-7.844v1.656c-.565 0-.848-.283-.848-.848 0-.539.283-.808.848-.808zM197.873 0c-.463 0-.855.116-1.176.35-.612.443-.919 1.09-.919 1.938v4.584c-.942 0-1.42.465-1.434 1.394 0 .942.478 1.413 1.434 1.413V18h.747V2.732c0-1.023.198-1.68.595-1.969.206-.15.476-.225.839-.225.337 0 .754.065 1.273.195a.65.65 0 0 0 .212.043c.111 0 .189-.048.232-.144.014-.162-.108-.276-.363-.343-.539-.193-1.019-.289-1.44-.289zm8.067 5.565c3.71 0 3.71-5.565 0-5.565s-3.71 5.565 0 5.565zm-1.22 4.062c-5.44 1.9-2.905 9.54 2.194 8.228 5.054-1.302 4.046-9.318-2.195-8.228m.243.698c5.418-.787 5.64 5.768 1.708 6.812-3.846 1.022-6.482-5.13-1.708-6.812m1.189 1.152c1.082-.74-.885-.487 0-.018v.018m-1.986.433c1.227-.397-.343-.795 0-.073v.073m2.993-.712v.732l.73-.244-.73-.488m-3.57 2.066c.902-.795-.596-.885-.11-.09l.11.09m2.838-.846l-.244.731.732-.487-.488-.244m-1.052.358l-.072-.017c-.668-.489-1.39 1.767.072.017m3.014-.397c-.956.56.162.703.253.703l-.253-.703m-2.938 1.502l.244.244.488-.732-.732.488m1.675-.474l-.47.019c.56.866.758.793.47-.019m-3.681 1.517c.883-.74-.434-.632-.416-.488l.416.488m1.01-.903l.22.305c.718-.215.34-.792-.22-.305m3.435.836l.244.244.488-.732-.732.488m-1.323.012c-.759-.378-.92-.27-.47.344l.47-.344m-2.579.72l.244.731.488-.732h-.732m3.246-.465l-.45.54c.107.217 1.1.145.45-.54m-1.539.71l-.244.731h.732l-.488-.732zm22.225 2.235c3.71 0 3.71-5.565 0-5.565s-3.71 5.565 0 5.565zm4.714-7.418V18h.735v-7.35zm4.37 0V18h.736v-7.35zm29.519 7.418c3.71 0 3.71-5.565 0-5.565s-3.71 5.565 0 5.565zm17.714-7.388V18h1.225v-7.32zM287.646 0l-.185.185v.708l.716-.716.177-.177zm3 0l-3.185 3.185v.708l3.716-3.716.177-.177zm3 0l-6.185 6.185v.708l6.716-6.716.177-.177zm3 0l-9.185 9.185v.708l9.716-9.716.177-.177zm3 0l-12.185 12.185v.708L300.177.177l.177-.177zm3 0l-15.185 15.185v.708L303.177.177l.177-.177zm3 0l-17.823 17.823-.177.177h.708L306.177.177l.177-.177zm3 0l-17.823 17.823-.177.177h.708L309.177.177l.177-.177zm.815 2.185l-15.638 15.638-.177.177h.708L309.46 2.893v-.708zm0 3l-12.638 12.638-.177.177h.708L309.46 5.893v-.708zm0 3l-9.638 9.638-.177.177h.708l9.107-9.107v-.708zm0 3l-6.638 6.638-.177.177h.708l6.107-6.107v-.708zm0 3l-3.638 3.638-.177.177h.708l3.107-3.107v-.708zm0 3l-.638.638-.177.177h.708l.107-.107v-.708z"/></svg>