<svg xmlns="http://www.w3.org/2000/svg" width="212.165" height="18"><path d="M2.097 0c-.335 0-.67.026-.995.066-.447.113-.217.626.18.626a.476.476 0 0 0 .082-.008c.84.097 1.872.15 2.506.626.841.916.463 2.821.561 3.725.007.05.01 3.653.01 5.48a6.145 6.145 0 0 0-2.635-.586 6.04 6.04 0 0 0-1.187.117c-.441.231.076.528.422.528.041 0 .08-.004.115-.013 1.226.133 2.62.461 3.243 1.602.061.206.023.277-.071.277-.206 0-.68-.342-.946-.342-.014 0-.028 0-.04.003a7.535 7.535 0 0 0-1.58-.169c-.39 0-.777.031-1.15.095-.42.278.097.534.439.534a.532.532 0 0 0 .105-.01c1.251.151 2.636.49 3.243 1.633.007 1.27 0 2.11.033 3.278-.014.36.22.538.456.538.235 0 .473-.176.475-.526-.009-1.15-.091-2.161.06-3.277.304-1.253 2.477-1.445 3.827-1.754.294-.347-.285-.475-.659-.475-.055 0-.107.003-.15.008a6.823 6.823 0 0 0-.521-.02c-.882 0-1.771.175-2.557.58-.032-.755.711-1.19 1.244-1.493.84-.361 1.765-.397 2.643-.59.313-.273-.18-.501-.521-.501a.58.58 0 0 0-.125.012 6.767 6.767 0 0 0-.648-.031c-.903 0-1.805.183-2.614.582.016-2.851.062-5.61-.02-8.308-.065-.834-.546-1.6-1.354-1.849C3.388.094 2.741 0 2.097 0zm23.995 2.99q.557 0 1.086.606-4.368 5.2-5.46 5.81-.814.457-1.434.457-.21 0-.399-.053-.74-.208-1.586-.234h-.042q-.828 0-1.817.988h-.13q.702-1.638 1.963-2.34 1.261-.702 7.397-5.148.213-.085.422-.085zM18.36.622q.066 0 .133.01v6.683Q16.44 8.51 15.66 10.668q1.196-8.268 1.677-9.204Q17.77.62 18.361.62zM13.005 11.09q-.08 0-.153.138-.13.247.234.689.208-.546.052-.741-.069-.086-.133-.086zm.037-.372q.153 0 .33.237.39.52-.234 2.08-.702-1.352-.429-1.976.149-.34.333-.34zm6.804 2.577v.39q-.286-.026-.442-.182.052-.078.208-.208zm.598.884l2.418.338.494.884q-.832-.234-1.833-.624-1-.39-1.079-.598zm-5.33-.364l.468.234.156 1.118-.416 1.274h-.65l.442-1.274v-1.352zm1.118.39l.442.13.156.832-.416 1.274h-.65l.442-1.274.026-.962zm1.534.156l.156.806-.416 1.274h-.65l.442-1.274v-.78l.468-.026zm-.994-3.234q.415 0 .89.1 1.404.3 1.768 1.418h1.092l.416-.676q5.512 1.274 6.214 4.602-1.508-.832-3.172-1.118l-.728-1.456-2.886-.39.078-.702h-.988q-1.092.9-2.228.9-.243 0-.489-.042-1.391-.234-1.82-.95-.429-.714.455-1.3.585-.386 1.398-.386zM18.617 0q-.947 0-1.488.658-.663.806-1.235 4.238l-.91 5.954q-.442.468-.676.52h-.312q-.026-.65-.494-1.196-.416-3.978.364-6.968l-.312-.598q-1.118 3.38-.546 7.592h-.078q-1.794-4.03-.52-7.592l-.312-.468q-1.664 3.796.364 8.242-.572 1.248-.117 2.054.455.806.559 1.508l.182.13q.702-1.04.806-1.794h.26q.026.598.338 1.248l.182 1.638-.442 1.274h-2.262v.624h6.526v-.624h-.546l.416-1.274.026-.962q.468-.156.702-.364.338.312.754.312-.026.26.104.442 1.04.806 3.718 1.404l.91 1.768q0-.434.27-.434.085 0 .198.044l-.728-1.3q1.508.338 2.288.858.416.442-.052 1.066 1.04-.442 1.17-1.248-.416-3.926-7.046-5.46l-.468.78h-.416q-.338-1.092-2.678-1.508.522-.388 1.285-.388.414 0 .9.115.491.116.96.116.844 0 1.613-.376 1.196-.585 6.084-6.461-.9-1.136-1.905-1.136-.329 0-.669.122L19.066 7.08V.034Q18.831 0 18.617 0z"/><path d="M37.458.375c-9.625 0-9.625 17.25 0 17.25m0 0" fill="none" stroke="#000"/><path d="M43.68 12.703c-.681.054-1.058.394-1.13 1.022.09.68.467 1.04 1.13 1.075.663-.036 1.013-.394 1.049-1.075-.054-.628-.404-.968-1.049-1.022zm.08-2.259c.485 0 .933.09 1.345.269a3.545 3.545 0 0 1 1.828 1.815c.18.403.27.83.27 1.277 0 .466-.09.901-.27 1.304a3.422 3.422 0 0 1-3.173 2.03c-.483 0-.936-.085-1.357-.255a3.235 3.235 0 0 1-1.09-.712 3.495 3.495 0 0 1-.725-1.063 3.174 3.174 0 0 1-.27-1.304c0-.448.09-.874.27-1.277a3.67 3.67 0 0 1 .726-1.076c.304-.313.667-.56 1.089-.739.421-.18.874-.269 1.358-.269zm-.053-.914c-.592 0-1.147.112-1.667.336-.52.224-.968.529-1.345.914a4.48 4.48 0 0 0-.9 1.345 4.071 4.071 0 0 0-.337 1.653c0 .592.112 1.143.336 1.654.225.511.525.955.901 1.331A4.267 4.267 0 0 0 43.707 18c.591 0 1.143-.112 1.654-.336a4.48 4.48 0 0 0 1.344-.9 4.21 4.21 0 0 0 .914-1.332 4.07 4.07 0 0 0 .336-1.654c0-.591-.112-1.142-.336-1.653a4.358 4.358 0 0 0-2.258-2.259 4.071 4.071 0 0 0-1.654-.336zM51.7 0c-.93 0-1.745.684-1.745 1.562V18h1.136V1.562c0-.43.379-.57.617-.57.25 0 .634.175.634.703v10.804h1.136V1.695C53.478.815 52.607 0 51.7 0zm21.621 2.373v2.341H56.08V2.373zM56.141 0v1.772h-.663v3.543h18.444V1.772h-.537V0h-.601v1.772h-1.487V0h-.602v1.772h-1.487V0h-.6v1.772h-1.456V0h-.633v1.772h-1.455V0h-.601v1.772h-1.487V0h-.601v1.772h-1.487V0h-.602v1.772h-1.455V0h-.601v1.772h-1.487V0zm1.599 15.325L55.478 18h1.103l1.159-1.382L58.91 18l1.137-1.382L61.217 18l1.16-1.382L63.546 18l1.159-1.382L65.876 18l1.137-1.382L68.183 18l1.17-1.382L70.49 18l1.17-1.382L72.82 18h1.102l-2.262-2.675-1.17 1.293-1.137-1.293-1.17 1.293-1.17-1.293-1.137 1.293-1.17-1.293-1.16 1.293-1.17-1.293-1.159 1.293-1.17-1.293-1.137 1.293-1.17-1.293zM85.183.924c.296 0 .475.05.568.103.269.172.14.583.097.84h-1.33c-.032-.263-.177-.664.098-.84.092-.053.27-.103.567-.103zm-7.39 1.552V3.4h-1.261v-.924zm6.556 0V3.4h-6.252v-.924zm1.52 0V3.4h-1.216v-.924zm6.105 0V3.4h-5.8v-.924zm1.632 0V3.4h-1.329v-.924zM82.512 0l-.43.431 1.44 1.436h-7.6v2.142h18.292V1.867h-7.37L88.285.43 87.854 0l-1.331 1.327c-.08-.804-.631-.989-1.34-1.012-.757.02-1.222.192-1.34 1.012L82.513 0zm-4.346 15.347L75.922 18h1.095l1.15-1.37 1.16 1.37 1.127-1.37 1.16 1.37 1.15-1.37 1.16 1.37 1.15-1.37 1.16 1.37 1.128-1.37 1.16 1.37 1.16-1.37L90.81 18l1.16-1.37L93.12 18h1.094l-2.243-2.653-1.16 1.282-1.128-1.282-1.16 1.282-1.161-1.282-1.128 1.282-1.16-1.282-1.15 1.282-1.16-1.282-1.15 1.282-1.16-1.282-1.127 1.282-1.16-1.282z"/><path d="M103.902.375v17.25M96.214.375c9.625 0 9.625 17.25 0 17.25" fill="none" stroke="#000"/><path d="M111.871.597c.27.002.505.041.693.109-.032.223-.17.569-.953.773.73-.053 1.206-.113 1.452-.307.089.2.137.427.158.556a.297.297 0 0 0 .207.237c.624.191 1.173 1.112 1.7 1.763.95 1.173 1.77 2.48 2.687 3.733-.422-.207-.845-.415-1.27-.622-1.181-.622-2.394-1.11-3.406-1.877-.589-.49-1.172-.996-1.391-1.641-.076-.497.297-1.074.768-1.279a.297.297 0 1 0-.238-.545c-.377.164-.7.458-.904.817.01-.152.031-.308.074-.448a.297.297 0 0 0 .013-.104 1.372 1.372 0 0 0-.082-.422c-.04-.109-.085-.206-.158-.459a.297.297 0 0 0-.104-.153c.14-.062.315-.112.527-.125.043-.003.084-.003.125-.004a.258.258 0 1 0 .102-.002zm1.194 5.432c.605.466 1.253.873 1.888 1.28-.005.438.006.879.047 1.321a2.215 2.215 0 0 0-.697-.3c-.391-.636-.82-1.22-1.082-1.842a4.553 4.553 0 0 1-.156-.46zm-.249 1c.273.549.622 1.04.929 1.529-.06.04-.112.08-.155.121l-.027.027a1.713 1.713 0 0 0-.613-.454c.009-.348-.048-.768-.134-1.222zm2.88.047a25.922 25.922 0 0 1 .589.297c.78.38 1.56.772 2.349 1.148.556.67 1.156 1.293 1.734 1.92l-1.043.175-2.563-2.786a.297.297 0 0 0-.04-.036 19.147 19.147 0 0 0-1.025-.718zm-2.591 2.009c.058.066.112.14.162.222a.298.298 0 0 0 .429.087c.125-.09.2-.177.265-.244l.078 1.413c-.1-.006-.202-.013-.296-.013-.167 0-.314.022-.398.108-.1-.078-.28-.1-.504-.1-.058 0-.118.002-.181.005l.445-1.478zm-5.419.999c.452.062.687.323.704.783h-1.394c0-.46.23-.721.69-.783zm7.861-2.39c.274.182.542.367.798.56l2.403 2.613h-2.457c-.17-.19-.518-.365-.776-.365a.366.366 0 0 0-.191.046 2.987 2.987 0 0 0-.257-.01c-.139 0-.285.007-.433.016l-.083-1.506c.225.115.407.282.626.542a.297.297 0 0 0 .52-.246 9.753 9.753 0 0 1-.15-1.65zm-6.24 3.745l-.266.465h-1.248l-.253-.465zm4.516 0v2.51l-1.727-2.51zM111.879 0a3.878 3.878 0 0 0-.273.01c-.694.044-1.215.325-1.407.768a.298.298 0 0 0 .34.408l.025-.006.03.007.108.029c.054.168.096.269.12.332a.541.541 0 0 1 .042.2 3.112 3.112 0 0 0-.037 1.389c.096.466.384.977.762 1.46a.295.295 0 0 0 .014.108c.182.559.395 1.318.548 2.027.152.708.233 1.387.192 1.684a.298.298 0 0 0 .223.33l.018.005-.527 1.75a1.787 1.787 0 0 0-.259-.018c-.256 0-.51.041-.712.041a.865.865 0 0 1-.183-.016.314.314 0 0 0-.069-.007c-.212 0-.656.13-.786.366h-1.1c-.062-.797-.482-1.235-1.262-1.315-.788.08-1.195.518-1.222 1.315v.572h.532l.544 1.01h1.767l.531-1.01h1.567l2.404 3.493V18h.572v-6.561h4.516v-.41l.1.109a.297.297 0 0 0 .267.092l1.74-.292a.298.298 0 0 0 .173-.492 49.17 49.17 0 0 0-.656-.716l1.656 1.078a.296.296 0 0 0 .412-.087.297.297 0 0 0-.087-.411l-1.345-.876a.292.292 0 0 0 .077-.09.315.315 0 0 0 .02-.237.305.305 0 0 0-.048-.093c-.056-.076-.084-.088-.124-.119a2.938 2.938 0 0 0-.131-.094c-.095-.065-.206-.137-.3-.2a4.156 4.156 0 0 1-.217-.156l-2.378-1.672-.008-.005c-.806-1.13-1.568-2.316-2.457-3.414-.433-.535-.938-1.524-1.813-1.894-.048-.262-.156-.68-.483-.997-.353-.344-.864-.463-1.416-.463zm18.283.842l3.57 4.659-.594.958-2.976-3.876-2.96 3.876-.595-.958 3.555-4.66zm0 2.51l4.935 6.43-.551.871-4.384-5.718-4.368 5.718-.552-.87 4.92-6.43zm0-3.352l-4.165 5.457.885 1.423-2.25 2.902 1.118 1.727 4.412-5.79 4.427 5.79 1.118-1.727-2.25-2.902.885-1.423L130.162 0zm1.372 13.35v4.086h-2.741v-4.085zm-3.305-.576V18h3.881v-5.226zm12.344-2.792c-.112 0-.223.01-.334.02-1.61.172-2.754 1.802-2.501 3.381.111 1.175.84 1.833 1.64 2.48 2.38 1.459 1.711.922 4.11 2.137l.385-.719c-2.855-1.336-3.199-1.549-4.09-2.136-.729-.587-1.306-1.235-1.255-2.217-.02-.679.384-1.377.84-1.711.365-.274.83-.436 1.286-.436.344 0 .668.081.951.284.72.354 1.114 1.529.588 2.268a1.396 1.396 0 0 1-1.114.597 1.03 1.03 0 0 1-.607-.192c-.365-.203-.638-.911-.264-1.306-.172-.183-.415-.405-.597-.405-.121 0-.213.09-.273.303-.405.972.243 2.076 1.215 2.34.172.05.344.08.516.08 1.114 0 2.146-.931 2.146-2.085.101-1.347-.972-2.582-2.318-2.663a3.272 3.272 0 0 0-.324-.02zm14.561 4.933c.296 0 .475.05.567.103.27.172.141.583.098.84h-1.33c-.032-.263-.177-.663.097-.84.093-.052.271-.103.568-.103zm-7.39 1.552v.924h-1.262v-.924zm6.556 0v.924h-6.252v-.924zm1.52 0v.924h-1.216v-.924zm6.105 0v.924h-5.801v-.924zm1.631 0v.924h-1.328v-.924zm-11.093-2.476l-.43.431 1.44 1.436h-7.6V18h18.292v-2.142h-7.37l1.44-1.436-.43-.43-1.331 1.326c-.08-.804-.631-.989-1.34-1.012-.757.02-1.222.192-1.34 1.012l-1.33-1.327zM167.646 0l-1.48 1.481v.707l2.01-2.011.178-.177zm3 0l-4.48 4.481v.707l5.01-5.011.178-.177zm3 0l-7.48 7.481v.707l8.01-8.011.178-.177zm3 0l-10.48 10.481v.707L177.175.177l.178-.177zm3 0l-13.48 13.481v.707L180.175.177l.178-.177zm3 0l-16.48 16.481v.707L183.175.177l.178-.177zm3 0l-17.823 17.823-.177.177h.708L186.177.177l.177-.177zm2.52.481l-17.343 17.342-.177.177h.708l16.811-16.812V.481zm0 3l-14.343 14.342-.177.177h.708l13.811-13.812v-.707zm0 3l-11.343 11.342-.177.177h.708l10.811-10.812v-.707zm0 3l-8.343 8.342-.177.177h.708l7.811-7.812v-.707zm0 3l-5.343 5.342-.177.177h.708l4.811-4.812v-.707zm0 3l-2.343 2.342-.177.177h.708l1.811-1.812v-.707zM188.646 0l-.48.481v.707l1.01-1.011.178-.177zm1.52 1.481l-2 2v.707l2-2v-.707zm0 3l-2 2v.707l2-2v-.707zm0 3l-2 2v.707l2-2v-.707zm0 3l-2 2v.707l2-2v-.707zm0 3l-2 2v.707l2-2v-.707zm0 3l-1.343 1.342-.177.177h.708l.811-.812v-.707zM191.646 0l-1.48 1.481v.707l2.01-2.011.178-.177zm3 0l-4.48 4.481v.707l5.01-5.011.178-.177zm3 0l-7.48 7.481v.707l8.01-8.011.178-.177zm3 0l-10.48 10.481v.707L201.175.177l.178-.177zm3 0l-13.48 13.481v.707L204.175.177l.178-.177zm3 0l-16.48 16.481v.707L207.175.177l.178-.177zm3 0l-17.823 17.823-.177.177h.708L210.177.177l.177-.177zm2.52.481l-17.343 17.342-.177.177h.708l16.811-16.812V.481zm0 3l-14.343 14.342-.177.177h.708l13.811-13.812v-.707zm0 3l-11.343 11.342-.177.177h.708l10.811-10.812v-.707zm0 3l-8.343 8.342-.177.177h.708l7.811-7.812v-.707zm0 3l-5.343 5.342-.177.177h.708l4.811-4.812v-.707zm0 3l-2.343 2.342-.177.177h.708l1.811-1.812v-.707z"/></svg>