<svg xmlns="http://www.w3.org/2000/svg" width="181.162" height="18"><path d="M2.097 0c-.335 0-.67.026-.995.066-.447.113-.217.626.18.626a.476.476 0 0 0 .082-.008c.84.097 1.872.15 2.506.626.841.916.463 2.821.561 3.725.007.05.01 3.653.01 5.48a6.145 6.145 0 0 0-2.635-.586 6.04 6.04 0 0 0-1.187.117c-.441.231.076.528.422.528.041 0 .08-.004.115-.013 1.226.133 2.62.461 3.243 1.602.061.206.023.277-.071.277-.206 0-.68-.342-.946-.342-.014 0-.028 0-.04.003a7.535 7.535 0 0 0-1.58-.169c-.39 0-.777.031-1.15.095-.42.278.097.534.439.534a.532.532 0 0 0 .105-.01c1.251.151 2.636.49 3.243 1.633.007 1.27 0 2.11.033 3.278-.014.36.22.538.456.538.235 0 .473-.176.475-.526-.009-1.15-.091-2.161.06-3.277.304-1.253 2.477-1.445 3.827-1.754.294-.347-.285-.475-.659-.475-.055 0-.107.003-.15.008a6.823 6.823 0 0 0-.521-.02c-.882 0-1.771.175-2.557.58-.032-.755.711-1.19 1.244-1.493.84-.361 1.765-.397 2.643-.59.313-.273-.18-.501-.521-.501a.58.58 0 0 0-.125.012 6.767 6.767 0 0 0-.648-.031c-.903 0-1.805.183-2.614.582.016-2.851.062-5.61-.02-8.308-.065-.834-.546-1.6-1.354-1.849C3.388.094 2.741 0 2.097 0zm23.995 2.99q.557 0 1.086.606-4.368 5.2-5.46 5.81-.814.457-1.434.457-.21 0-.399-.053-.74-.208-1.586-.234h-.042q-.828 0-1.817.988h-.13q.702-1.638 1.963-2.34 1.261-.702 7.397-5.148.213-.085.422-.085zM18.36.622q.066 0 .133.01v6.683Q16.44 8.51 15.66 10.668q1.196-8.268 1.677-9.204Q17.77.62 18.361.62zM13.005 11.09q-.08 0-.153.138-.13.247.234.689.208-.546.052-.741-.069-.086-.133-.086zm.037-.372q.153 0 .33.237.39.52-.234 2.08-.702-1.352-.429-1.976.149-.34.333-.34zm6.804 2.577v.39q-.286-.026-.442-.182.052-.078.208-.208zm.598.884l2.418.338.494.884q-.832-.234-1.833-.624-1-.39-1.079-.598zm-5.33-.364l.468.234.156 1.118-.416 1.274h-.65l.442-1.274v-1.352zm1.118.39l.442.13.156.832-.416 1.274h-.65l.442-1.274.026-.962zm1.534.156l.156.806-.416 1.274h-.65l.442-1.274v-.78l.468-.026zm-.994-3.234q.415 0 .89.1 1.404.3 1.768 1.418h1.092l.416-.676q5.512 1.274 6.214 4.602-1.508-.832-3.172-1.118l-.728-1.456-2.886-.39.078-.702h-.988q-1.092.9-2.228.9-.243 0-.489-.042-1.391-.234-1.82-.95-.429-.714.455-1.3.585-.386 1.398-.386zM18.617 0q-.947 0-1.488.658-.663.806-1.235 4.238l-.91 5.954q-.442.468-.676.52h-.312q-.026-.65-.494-1.196-.416-3.978.364-6.968l-.312-.598q-1.118 3.38-.546 7.592h-.078q-1.794-4.03-.52-7.592l-.312-.468q-1.664 3.796.364 8.242-.572 1.248-.117 2.054.455.806.559 1.508l.182.13q.702-1.04.806-1.794h.26q.026.598.338 1.248l.182 1.638-.442 1.274h-2.262v.624h6.526v-.624h-.546l.416-1.274.026-.962q.468-.156.702-.364.338.312.754.312-.026.26.104.442 1.04.806 3.718 1.404l.91 1.768q0-.434.27-.434.085 0 .198.044l-.728-1.3q1.508.338 2.288.858.416.442-.052 1.066 1.04-.442 1.17-1.248-.416-3.926-7.046-5.46l-.468.78h-.416q-.338-1.092-2.678-1.508.522-.388 1.285-.388.414 0 .9.115.491.116.96.116.844 0 1.613-.376 1.196-.585 6.084-6.461-.9-1.136-1.905-1.136-.329 0-.669.122L19.066 7.08V.034Q18.831 0 18.617 0z"/><path d="M37.458.375c-9.625 0-9.625 17.25 0 17.25m0 0" fill="none" stroke="#000"/><path d="M43.68 12.703c-.681.054-1.058.394-1.13 1.022.09.68.467 1.04 1.13 1.075.663-.036 1.013-.394 1.049-1.075-.054-.628-.404-.968-1.049-1.022zm.08-2.259c.485 0 .933.09 1.345.269a3.545 3.545 0 0 1 1.828 1.815c.18.403.27.83.27 1.277 0 .466-.09.901-.27 1.304a3.422 3.422 0 0 1-3.173 2.03c-.483 0-.936-.085-1.357-.255a3.235 3.235 0 0 1-1.09-.712 3.495 3.495 0 0 1-.725-1.063 3.174 3.174 0 0 1-.27-1.304c0-.448.09-.874.27-1.277a3.67 3.67 0 0 1 .726-1.076c.304-.313.667-.56 1.089-.739.421-.18.874-.269 1.358-.269zm-.053-.914c-.592 0-1.147.112-1.667.336-.52.224-.968.529-1.345.914a4.48 4.48 0 0 0-.9 1.345 4.071 4.071 0 0 0-.337 1.653c0 .592.112 1.143.336 1.654.225.511.525.955.901 1.331A4.267 4.267 0 0 0 43.707 18c.591 0 1.143-.112 1.654-.336a4.48 4.48 0 0 0 1.344-.9 4.21 4.21 0 0 0 .914-1.332 4.07 4.07 0 0 0 .336-1.654c0-.591-.112-1.142-.336-1.653a4.358 4.358 0 0 0-2.258-2.259 4.071 4.071 0 0 0-1.654-.336zM51.386.589c.06 0 .077.012.09.027a.455.455 0 0 1 .07.195c.025.122.039.26.059.39.026.167.062.327.129.462.079.16.153.329.231.501h-1.158c.079-.172.153-.341.231-.501a1.61 1.61 0 0 0 .13-.461c.02-.132.033-.269.058-.391a.455.455 0 0 1 .07-.195c.013-.015.03-.027.09-.027zm.662 2.164c-.417.992-.538 2.236-.55 3.319-.017 1.302.137 2.597.287 3.892.148 1.27.293 2.538.263 3.812-.015.64-.17 1.6-.367 2.393a6.939 6.939 0 0 1-.314.994 2.318 2.318 0 0 1-.048.106 2.29 2.29 0 0 1-.038-.094c-.093-.25-.183-.6-.263-.993-.162-.798-.278-1.761-.294-2.406-.03-1.274.115-2.543.263-3.812.15-1.295.304-2.59.288-3.892-.013-1.083-.134-2.327-.551-3.319zm-.73 14.516zm-.103.169zm.196.003zM51.386 0a.676.676 0 0 0-.542.239c-.1.12-.159.278-.195.453-.027.133-.042.278-.064.42-.016.106-.035.21-.075.29-.151.308-.284.653-.473.982l-.082.142.078.144c.512.954.64 2.284.653 3.409.016 1.277-.137 2.547-.284 3.817-.15 1.297-.297 2.592-.266 3.894.016.68.136 1.677.305 2.51.086.422.184.804.289 1.082.058.155.12.283.185.377.043.063.09.113.14.152a.42.42 0 0 0 .255.089c.088 0 .174-.03.251-.086a.692.692 0 0 0 .144-.146c.07-.093.138-.22.204-.373.119-.279.238-.66.343-1.083.209-.836.369-1.838.385-2.522.03-1.302-.116-2.597-.267-3.894-.147-1.27-.3-2.54-.284-3.817.014-1.125.14-2.455.653-3.409l.078-.144-.082-.142c-.19-.329-.321-.674-.473-.981a1.035 1.035 0 0 1-.075-.291c-.022-.142-.037-.287-.064-.42a1.021 1.021 0 0 0-.195-.453.676.676 0 0 0-.542-.239zm4.431 4.392q-.12 0-.288.147-.661.89-.712 2.544.203 1.298.916 3.665-.255 1.908-.382 5.242-.102 1.12.61 1.45 2.113.56 5.345.56 3.257 0 5.344-.56.738-.33.636-1.45-.127-3.334-.382-5.242.713-2.367.916-3.665-.05-1.654-.712-2.544-.168-.147-.288-.147-.172 0-.247.3.178.508.331.992.204.61.153 1.145-.051.865-.166 1.412-.114.547-.47.547l-.038.002q-.599 0-.599-1.605 0-.585.153-1.425-.131-.223-.282-.223-.143 0-.303.198-.077.61-.102 1.348-.102 1.12.534 3.156-.229 2.875-.229 5.75-1.73.28-4.25.357-2.493-.076-4.223-.356 0-2.876-.23-5.751.637-2.036.535-3.156-.026-.738-.102-1.348-.16-.198-.303-.198-.151 0-.282.223.153.84.153 1.425 0 1.605-.6 1.605l-.037-.002q-.356 0-.47-.547-.115-.547-.166-1.412-.05-.535.153-1.145.153-.484.33-.993-.074-.3-.246-.3zM75.227.597c.269.002.505.041.692.109-.03.223-.168.569-.953.773.73-.053 1.207-.113 1.453-.307.089.2.137.427.158.556a.297.297 0 0 0 .206.237c.625.191 1.174 1.112 1.701 1.763.95 1.173 1.77 2.48 2.687 3.733-.423-.207-.845-.415-1.27-.622-1.182-.622-2.394-1.11-3.406-1.877-.59-.49-1.172-.996-1.391-1.641-.076-.497.296-1.074.767-1.279a.297.297 0 1 0-.238-.545 1.957 1.957 0 0 0-.904.817c.01-.152.032-.308.075-.448a.297.297 0 0 0 .013-.104 1.372 1.372 0 0 0-.082-.422c-.04-.109-.085-.206-.158-.459a.297.297 0 0 0-.104-.153c.14-.062.315-.112.527-.125.043-.003.083-.003.125-.004a.258.258 0 1 0 .102-.002zm1.194 5.432c.605.466 1.253.873 1.888 1.28-.005.438.006.879.047 1.321a2.215 2.215 0 0 0-.697-.3c-.391-.636-.82-1.22-1.083-1.842a4.553 4.553 0 0 1-.155-.46zm-.249 1c.273.549.621 1.04.929 1.529-.06.04-.113.08-.155.121l-.027.027a1.713 1.713 0 0 0-.614-.454c.01-.348-.047-.768-.133-1.222zm2.88.047a25.922 25.922 0 0 1 .588.297c.78.38 1.56.772 2.35 1.148.556.67 1.156 1.293 1.734 1.92l-1.043.175-2.563-2.786a.297.297 0 0 0-.04-.036 19.147 19.147 0 0 0-1.025-.718zm-2.591 2.009c.058.066.112.14.162.222a.298.298 0 0 0 .429.087c.124-.09.2-.177.265-.244l.077 1.413c-.1-.006-.2-.013-.296-.013-.166 0-.313.022-.397.108-.1-.078-.28-.1-.505-.1-.057 0-.118.002-.18.005l.445-1.478zm-5.419.999c.452.062.686.323.704.783h-1.395c0-.46.23-.721.691-.783zm7.861-2.39c.274.182.542.367.798.56l2.402 2.613h-2.456c-.17-.19-.518-.365-.776-.365a.366.366 0 0 0-.192.046 2.987 2.987 0 0 0-.256-.01c-.14 0-.285.007-.433.016l-.083-1.506c.225.115.407.282.626.542a.297.297 0 0 0 .52-.246 9.753 9.753 0 0 1-.15-1.65zm-6.24 3.745l-.266.465h-1.249l-.252-.465zm4.516 0v2.51l-1.727-2.51zM75.235 0a3.878 3.878 0 0 0-.273.01c-.694.044-1.215.325-1.408.768a.298.298 0 0 0 .341.408l.025-.006.03.007.108.029c.054.168.096.269.12.332a.541.541 0 0 1 .042.2 3.112 3.112 0 0 0-.037 1.389c.095.466.384.977.761 1.46a.295.295 0 0 0 .014.108c.183.559.396 1.318.548 2.027.153.708.234 1.387.192 1.684a.3.3 0 0 0 .223.33l.02.005-.528 1.75a1.787 1.787 0 0 0-.259-.018c-.256 0-.51.041-.712.041a.865.865 0 0 1-.184-.016.314.314 0 0 0-.068-.007c-.212 0-.656.13-.787.366h-1.1c-.061-.797-.482-1.235-1.26-1.315-.789.08-1.196.518-1.223 1.315v.572h.531l.545 1.01h1.767l.53-1.01h1.568l2.404 3.493V18h.571v-6.561h4.517v-.41l.1.109a.297.297 0 0 0 .267.092l1.74-.292a.298.298 0 0 0 .173-.492 49.17 49.17 0 0 0-.656-.716l1.656 1.078a.296.296 0 0 0 .412-.087.297.297 0 0 0-.087-.411l-1.345-.876a.292.292 0 0 0 .076-.09.315.315 0 0 0 .02-.237c-.016-.05-.034-.074-.048-.093-.055-.076-.084-.088-.123-.119a2.938 2.938 0 0 0-.131-.094c-.096-.065-.206-.137-.301-.2a4.156 4.156 0 0 1-.216-.156l-2.38-1.672-.008-.005c-.805-1.13-1.568-2.316-2.457-3.414-.433-.535-.937-1.524-1.812-1.894-.048-.262-.156-.68-.483-.997C76.298.119 75.787 0 75.235 0z"/><path d="M95.676.375v17.25M87.989.375c9.625 0 9.625 17.25 0 17.25" fill="none" stroke="#000"/><path d="M103.646.597c.268.002.505.041.692.109-.032.223-.17.569-.953.773.73-.053 1.206-.113 1.452-.307.089.2.137.427.158.556a.297.297 0 0 0 .207.237c.624.191 1.173 1.112 1.7 1.763.95 1.173 1.771 2.48 2.688 3.733l-1.27-.622c-1.182-.622-2.395-1.11-3.407-1.877-.589-.49-1.172-.996-1.39-1.641-.077-.497.296-1.074.767-1.279a.297.297 0 1 0-.238-.545c-.377.164-.7.458-.904.817.01-.152.031-.308.075-.448a.297.297 0 0 0 .012-.104 1.372 1.372 0 0 0-.082-.422c-.04-.109-.085-.206-.158-.459a.297.297 0 0 0-.104-.153c.14-.062.316-.112.527-.125.043-.003.084-.003.125-.004a.258.258 0 1 0 .103-.002zm1.193 5.432c.606.466 1.253.873 1.888 1.28-.005.438.006.879.047 1.321a2.215 2.215 0 0 0-.697-.3c-.391-.636-.82-1.22-1.082-1.842a4.553 4.553 0 0 1-.156-.46zm-.249 1c.273.549.622 1.04.929 1.529-.059.04-.112.08-.155.121l-.027.027a1.713 1.713 0 0 0-.613-.454c.009-.348-.047-.768-.134-1.222zm2.881.047a25.922 25.922 0 0 1 .588.297c.78.38 1.56.772 2.349 1.148.556.67 1.157 1.293 1.735 1.92l-1.044.175-2.563-2.786a.297.297 0 0 0-.039-.036 19.147 19.147 0 0 0-1.026-.718zm-2.592 2.009c.058.066.112.14.162.222a.298.298 0 0 0 .429.087c.125-.09.2-.177.265-.244l.078 1.413c-.1-.006-.201-.013-.296-.013-.167 0-.314.022-.398.108-.1-.078-.28-.1-.504-.1-.058 0-.118.002-.181.005l.445-1.478zm-5.418.999c.451.062.686.323.703.783H98.77c0-.46.23-.721.69-.783zm7.86-2.39c.274.182.542.367.798.56l2.403 2.613h-2.456c-.171-.19-.519-.365-.777-.365a.366.366 0 0 0-.191.046 2.987 2.987 0 0 0-.256-.01c-.14 0-.286.007-.434.016l-.082-1.506c.224.115.407.282.625.542a.297.297 0 0 0 .52-.246 9.753 9.753 0 0 1-.15-1.65zm-6.24 3.745l-.266.465h-1.248l-.253-.465zm4.516 0v2.51l-1.727-2.51zM103.653 0a3.878 3.878 0 0 0-.273.01c-.694.044-1.215.325-1.407.768a.298.298 0 0 0 .34.408l.025-.006.03.007.108.029c.054.168.096.269.12.332a.541.541 0 0 1 .042.2 3.112 3.112 0 0 0-.037 1.389c.096.466.384.977.762 1.46a.295.295 0 0 0 .014.108c.182.559.396 1.318.548 2.027.152.708.233 1.387.192 1.684a.298.298 0 0 0 .223.33l.018.005-.526 1.75a1.787 1.787 0 0 0-.26-.018c-.256 0-.509.041-.712.041a.865.865 0 0 1-.183-.016.314.314 0 0 0-.068-.007c-.212 0-.657.13-.787.366h-1.1c-.062-.797-.482-1.235-1.261-1.315-.789.08-1.196.518-1.222 1.315v.572h.53l.545 1.01h1.767l.531-1.01h1.567l2.405 3.493V18h.57v-6.561h4.517v-.41l.1.109a.297.297 0 0 0 .267.092l1.74-.292a.298.298 0 0 0 .173-.492 49.17 49.17 0 0 0-.656-.716l1.657 1.078a.296.296 0 0 0 .411-.087.297.297 0 0 0-.087-.411l-1.344-.876a.292.292 0 0 0 .076-.09.315.315 0 0 0 .02-.237.305.305 0 0 0-.048-.093c-.056-.076-.084-.088-.124-.119a2.938 2.938 0 0 0-.13-.094c-.096-.065-.207-.137-.302-.2a4.156 4.156 0 0 1-.216-.156l-2.378-1.672-.008-.005c-.806-1.13-1.568-2.316-2.457-3.414-.433-.535-.938-1.524-1.812-1.894-.049-.262-.157-.68-.484-.997-.353-.344-.864-.463-1.416-.463zm17.703 1.343q-.088.166-.198.364l-.187 1.091q0 .573.187 1.07.198.43.496.771-1.995-.364-3.594-.54 1.004-.595 1.577-1.323.584-.727 1.72-1.433zm4.707-.088q.607.044 2.04.915 1.433.86 2.954 1.422-1.113.066-2.425.474-1.323.397-2.778.595.231-.275.463-.782.22-.508.22-1.08 0-.585-.21-1.092-.11-.243-.264-.452zm-2.319-.508q.38 0 .732.155.375.155.661.42.287.253.463.616.144.364.166.783.022.419-.133.783-.165.364-.418.65-.265.298-.629.463-.364.154-.782.165l-.055.001q-.378 0-.728-.144-.375-.154-.661-.408-.276-.253-.441-.617-.155-.364-.177-.794 0-.408.155-.771.143-.364.396-.65.265-.298.629-.442.363-.198.771-.21h.051zm-.06-.747q-.722 0-1.424.153-1.52.33-3.086 1.973-1.566 1.631-2.745 1.742l-.022.771q2.679.232 5.258.706.965.177 2.03.177 1.782 0 3.845-.497 3.285-.794 4.167-.96h1.455v-.947h-1.499q-1.069-.364-2.866-1.444-1.786-1.08-3.406-1.466Q124.524 0 123.683 0zm-5.222 15.57L116.407 18h1.002l1.053-1.255L119.525 18l1.033-1.255L121.62 18l1.053-1.255L123.737 18l1.053-1.255L125.853 18l1.032-1.255L127.948 18l1.063-1.255L130.044 18l1.063-1.255L132.16 18h1.002l-2.055-2.43-1.063 1.175-1.033-1.175-1.063 1.175-1.063-1.175-1.032 1.175-1.063-1.175-1.053 1.175-1.063-1.175-1.053 1.175-1.063-1.175-1.033 1.175-1.063-1.175z"/><path d="M125.646 0l-.861.862v.707l1.392-1.392.177-.177zm3 0l-3.861 3.862v.707l4.392-4.392.177-.177zm3 0l-6.861 6.862v.707l7.392-7.392.177-.177zm1.516 1.484l-8.377 8.378v.707l8.377-8.378v-.707zm0 3l-8.377 8.378v.707l8.377-8.378v-.707zm0 3l-8.377 8.378v.707l8.377-8.378v-.707zm0 3l-7.339 7.34-.177.176h.708l6.808-6.809v-.707zm0 3l-4.339 4.34-.177.176h.708l3.808-3.809v-.707zm0 3l-1.339 1.34-.177.176h.708l.808-.809v-.707zM137.646 0l-2.484 2.484v.707l3.015-3.014.177-.177zm3 0l-5.484 5.484v.707l6.015-6.014.177-.177zm3 0l-8.484 8.484v.707l9.015-9.014.177-.177zm3 0l-11.484 11.484v.707L147.177.177l.177-.177zm3 0l-14.484 14.484v.707L150.177.177l.177-.177zm3 0l-17.484 17.484V18h.192L153.177.177l.177-.177zm3 0l-17.823 17.823-.177.177h.708L156.177.177l.177-.177zm1.516 1.484l-16.339 16.34-.177.176h.708l15.808-15.809v-.707zm0 3l-13.339 13.34-.177.176h.708l12.808-12.809v-.707zm0 3l-10.339 10.34-.177.176h.708l9.808-9.809v-.707zm0 3l-7.339 7.34-.177.176h.708l6.808-6.809v-.707zm0 3l-4.339 4.34-.177.176h.708l3.808-3.809v-.707zm0 3l-1.339 1.34-.177.176h.708l.808-.809v-.707zM158.646 0l-1.484 1.484v.707l2-2V0zm.516 2.484l-2 2v.707l2-2v-.707zm0 3l-2 2v.707l2-2v-.707zm0 3l-2 2v.707l2-2v-.707zm0 3l-2 2v.707l2-2v-.707zm0 3l-2 2v.707l2-2v-.707zm0 3l-.339.34-.177.176h.516v-.516zM161.646 0l-2.484 2.484v.707l3.015-3.014.177-.177zm3 0l-5.484 5.484v.707l6.015-6.014.177-.177zm3 0l-8.484 8.484v.707l9.015-9.014.177-.177zm3 0l-11.484 11.484v.707L171.177.177l.177-.177zm3 0l-14.484 14.484v.707L174.177.177l.177-.177zm3 0l-17.484 17.484V18h.192L177.177.177l.177-.177zm3 0l-17.823 17.823-.177.177h.708L180.177.177l.177-.177zm1.516 1.484l-16.339 16.34-.177.176h.708l15.808-15.809v-.707zm0 3l-13.339 13.34-.177.176h.708l12.808-12.809v-.707zm0 3l-10.339 10.34-.177.176h.708l9.808-9.809v-.707zm0 3l-7.339 7.34-.177.176h.708l6.808-6.809v-.707zm0 3l-4.339 4.34-.177.176h.708l3.808-3.809v-.707zm0 3l-1.339 1.34-.177.176h.708l.808-.809v-.707z"/></svg>