<svg xmlns="http://www.w3.org/2000/svg" width="233.011" height="18"><path d="M2.097 0c-.335 0-.67.026-.995.066-.447.113-.217.626.18.626a.476.476 0 0 0 .082-.008c.84.097 1.872.15 2.506.626.841.916.463 2.821.561 3.725.007.05.01 3.653.01 5.48a6.145 6.145 0 0 0-2.635-.586 6.04 6.04 0 0 0-1.187.117c-.441.231.076.528.422.528.041 0 .08-.004.115-.013 1.226.133 2.62.461 3.243 1.602.061.206.023.277-.071.277-.206 0-.68-.342-.946-.342-.014 0-.028 0-.04.003a7.535 7.535 0 0 0-1.58-.169c-.39 0-.777.031-1.15.095-.42.278.097.534.439.534a.532.532 0 0 0 .105-.01c1.251.151 2.636.49 3.243 1.633.007 1.27 0 2.11.033 3.278-.014.36.22.538.456.538.235 0 .473-.176.475-.526-.009-1.15-.091-2.161.06-3.277.304-1.253 2.477-1.445 3.827-1.754.294-.347-.285-.475-.659-.475-.055 0-.107.003-.15.008a6.823 6.823 0 0 0-.521-.02c-.882 0-1.771.175-2.557.58-.032-.755.711-1.19 1.244-1.493.84-.361 1.765-.397 2.643-.59.313-.273-.18-.501-.521-.501a.58.58 0 0 0-.125.012 6.767 6.767 0 0 0-.648-.031c-.903 0-1.805.183-2.614.582.016-2.851.062-5.61-.02-8.308-.065-.834-.546-1.6-1.354-1.849C3.388.094 2.741 0 2.097 0z"/><path d="M2.646 0L.45 2.196v.708L3.177.177 3.354 0zm3 0L.45 5.196v.708L6.177.177 6.354 0zm3 0L.45 8.196v.708L9.177.177l.172-.172V0zm.703 2.298L.45 11.196v.708l8.899-8.899v-.707zm0 3L.45 14.196v.708l8.899-8.899v-.707zm0 3L.45 17.196v.708l8.899-8.899v-.707zm0 3l-6.526 6.525-.177.177h.708l5.995-5.995v-.707zm0 3l-3.526 3.525-.177.177h.708l2.995-2.995v-.707zm0 3l-.526.525-.177.177h.703v-.702zM11.383.263L9.35 2.298v.707L11.383.97V.263zm0 3L9.35 5.298v.707l2.034-2.035v-.707zm0 3L9.35 8.298v.707l2.034-2.035v-.707zm0 3L9.35 11.298v.707l2.034-2.035v-.707zm0 3L9.35 14.298v.707l2.034-2.035v-.707zm0 3L9.35 17.298V18h.005l2.03-2.03v-.707z"/><path d="M26.092 2.99q.557 0 1.086.606-4.368 5.2-5.46 5.81-.814.457-1.434.457-.21 0-.399-.053-.74-.208-1.586-.234h-.042q-.828 0-1.817.988h-.13q.702-1.638 1.963-2.34 1.261-.702 7.397-5.148.213-.085.422-.085zM18.36.622q.066 0 .133.01v6.683Q16.44 8.51 15.66 10.668q1.196-8.268 1.677-9.204Q17.77.62 18.361.62zM13.005 11.09q-.08 0-.153.138-.13.247.234.689.208-.546.052-.741-.069-.086-.133-.086zm.037-.372q.153 0 .33.237.39.52-.234 2.08-.702-1.352-.429-1.976.149-.34.333-.34zm6.804 2.577v.39q-.286-.026-.442-.182.052-.078.208-.208zm.598.884l2.418.338.494.884q-.832-.234-1.833-.624-1-.39-1.079-.598zm-5.33-.364l.468.234.156 1.118-.416 1.274h-.65l.442-1.274v-1.352zm1.118.39l.442.13.156.832-.416 1.274h-.65l.442-1.274.026-.962zm1.534.156l.156.806-.416 1.274h-.65l.442-1.274v-.78l.468-.026zm-.994-3.234q.415 0 .89.1 1.404.3 1.768 1.418h1.092l.416-.676q5.512 1.274 6.214 4.602-1.508-.832-3.172-1.118l-.728-1.456-2.886-.39.078-.702h-.988q-1.092.9-2.228.9-.243 0-.489-.042-1.391-.234-1.82-.95-.429-.714.455-1.3.585-.386 1.398-.386zM18.617 0q-.947 0-1.488.658-.663.806-1.235 4.238l-.91 5.954q-.442.468-.676.52h-.312q-.026-.65-.494-1.196-.416-3.978.364-6.968l-.312-.598q-1.118 3.38-.546 7.592h-.078q-1.794-4.03-.52-7.592l-.312-.468q-1.664 3.796.364 8.242-.572 1.248-.117 2.054.455.806.559 1.508l.182.13q.702-1.04.806-1.794h.26q.026.598.338 1.248l.182 1.638-.442 1.274h-2.262v.624h6.526v-.624h-.546l.416-1.274.026-.962q.468-.156.702-.364.338.312.754.312-.026.26.104.442 1.04.806 3.718 1.404l.91 1.768q0-.434.27-.434.085 0 .198.044l-.728-1.3q1.508.338 2.288.858.416.442-.052 1.066 1.04-.442 1.17-1.248-.416-3.926-7.046-5.46l-.468.78h-.416q-.338-1.092-2.678-1.508.522-.388 1.285-.388.414 0 .9.115.491.116.96.116.844 0 1.613-.376 1.196-.585 6.084-6.461-.9-1.136-1.905-1.136-.329 0-.669.122L19.066 7.08V.034Q18.831 0 18.617 0z"/><path d="M11.646 0l-.297.298v.707l.828-.828.177-.177zm3 0L11.35 3.298v.707L15.177.177 15.354 0zm3 0L11.35 6.298v.707L18.177.177 18.354 0zm3 0L11.35 9.298v.707L21.177.177 21.354 0zm3 0L11.35 12.298v.707L24.177.177 24.354 0zm3 0L11.35 15.298v.707L27.177.177 27.354 0zm1.312 1.688L11.823 17.823l-.177.177h.708L27.958 2.395v-.707zm0 3L14.823 17.823l-.177.177h.708L27.958 5.395v-.707zm0 3L17.823 17.823l-.177.177h.708l9.604-9.605v-.707zm0 3l-7.135 7.135-.177.177h.708l6.604-6.605v-.707zm0 3l-4.135 4.135-.177.177h.708l3.604-3.605v-.707zm0 3l-1.135 1.135-.177.177h.708l.604-.605v-.707zM29.646 0l-1.688 1.688v.707L30.065.29V0zm.419 2.582l-2.107 2.106v.707l2.107-2.106v-.707zm0 3l-2.107 2.106v.707l2.107-2.106v-.707zm0 3l-2.107 2.106v.707l2.107-2.106v-.707zm0 3l-2.107 2.106v.707l2.107-2.106v-.707zm0 3l-2.107 2.106v.707l2.107-2.106v-.707zm0 3l-.242.241-.177.177h.419v-.418z"/><path d="M29.958 0v.395l.219-.218.177-.177zm2.688 0l-2.688 2.688v.707L33.177.177 33.354 0zm3 0l-5.688 5.688v.707L36.177.177 36.354 0zm3 0l-8.688 8.688v.707L39.177.177 39.354 0zm3 0L29.958 11.688v.707L42.177.177 42.354 0zm3 0L29.958 14.688v.707L45.177.177 45.354 0zm3 0L29.958 17.688V18h.396L48.177.177 48.354 0zm3 0L32.823 17.823l-.177.177h.708L51.177.177 51.354 0zm1.312 1.688L35.823 17.823l-.177.177h.708L51.958 2.395v-.707zm0 3L38.823 17.823l-.177.177h.708L51.958 5.395v-.707zm0 3L41.823 17.823l-.177.177h.708l9.604-9.605v-.707zm0 3l-7.135 7.135-.177.177h.708l6.604-6.605v-.707zm0 3l-4.135 4.135-.177.177h.708l3.604-3.605v-.707zm0 3l-1.135 1.135-.177.177h.708l.604-.605v-.707zM53.646 0l-1.688 1.688v.707l2-2V0zm.312 2.688l-2 2v.707l2-2v-.707zm0 3l-2 2v.707l2-2v-.707zm0 3l-2 2v.707l2-2v-.707zm0 3l-2 2v.707l2-2v-.707zm0 3l-2 2v.707l2-2v-.707zm0-14.688v.395l.219-.218.177-.177zm2.688 0l-2.688 2.688v.707L57.177.177 57.354 0zm3 0l-5.688 5.688v.707L60.177.177 60.354 0zm3 0l-8.688 8.688v.707L63.177.177 63.354 0zm2.312.688l-11 11v.707l11-11V.688zm0 3l-11 11v.707l11-11v-.707zm0 3l-11 11V18h.396L64.958 7.395v-.707zm0 3l-8.135 8.135-.177.177h.708l7.604-7.605v-.707zm0 3l-5.135 5.135-.177.177h.708l4.604-4.605v-.707zm0 3l-2.135 2.135-.177.177h.708l1.604-1.605v-.707zM65.646 0l-.688.688v.707L66.177.177 66.354 0zm1.312 1.688l-2 2v.707l2-2v-.707zm0 3l-2 2v.707l2-2v-.707zm0 3l-2 2v.707l2-2v-.707zm0 3l-2 2v.707l2-2v-.707zm0 3l-2 2v.707l2-2v-.707zm0 3l-1.135 1.135-.177.177h.708l.604-.605v-.707zm1.001-12.296q-.12 0-.288.147-.662.89-.713 2.544.204 1.298.916 3.665-.254 1.908-.381 5.242-.102 1.12.61 1.45 2.113.56 5.344.56 3.257 0 5.344-.56.738-.33.636-1.45-.127-3.334-.381-5.242.712-2.367.916-3.665-.051-1.654-.713-2.544-.167-.147-.288-.147-.171 0-.246.3.178.508.33.992.204.61.153 1.145-.05.865-.165 1.412-.115.547-.47.547l-.038.002q-.6 0-.6-1.605 0-.585.154-1.425-.131-.223-.283-.223-.142 0-.303.198-.076.61-.101 1.348-.102 1.12.534 3.156-.23 2.875-.23 5.75-1.73.28-4.249.357-2.493-.076-4.224-.356 0-2.876-.229-5.751.636-2.036.534-3.156-.025-.738-.101-1.348-.16-.198-.303-.198-.151 0-.283.223.153.84.153 1.425 0 1.605-.599 1.605l-.037-.002q-.356 0-.47-.547-.115-.547-.166-1.412-.051-.535.152-1.145.153-.484.331-.993-.075-.3-.246-.3zm14.003 6.288V18h1.225v-7.32zM90.594.597c.269.002.505.041.692.109-.031.223-.169.569-.953.773.73-.053 1.206-.113 1.452-.307.09.2.137.427.159.556a.297.297 0 0 0 .206.237c.625.191 1.173 1.112 1.7 1.763.95 1.173 1.771 2.48 2.688 3.733l-1.27-.622c-1.182-.622-2.395-1.11-3.407-1.877-.589-.49-1.172-.996-1.39-1.641-.076-.497.296-1.074.767-1.279A.297.297 0 1 0 91 1.497c-.377.164-.7.458-.904.817.01-.152.032-.308.075-.448a.297.297 0 0 0 .012-.104 1.372 1.372 0 0 0-.082-.422c-.04-.109-.084-.206-.157-.459a.297.297 0 0 0-.105-.153c.14-.062.316-.112.527-.125.043-.003.084-.003.125-.004a.258.258 0 1 0 .103-.002zm1.193 5.432c.606.466 1.253.873 1.889 1.28-.005.438.005.879.046 1.321a2.215 2.215 0 0 0-.697-.3c-.39-.636-.82-1.22-1.082-1.842a4.553 4.553 0 0 1-.156-.46zm-.248 1c.273.549.621 1.04.928 1.529-.059.04-.112.08-.155.121l-.027.027a1.713 1.713 0 0 0-.613-.454c.01-.348-.047-.768-.133-1.222zm2.88.047a25.922 25.922 0 0 1 .588.297c.78.38 1.56.772 2.349 1.148.556.67 1.157 1.293 1.735 1.92l-1.044.175-2.562-2.786a.297.297 0 0 0-.04-.036 19.147 19.147 0 0 0-1.026-.718zm-2.592 2.009c.058.066.112.14.162.222a.298.298 0 0 0 .43.087c.124-.09.2-.177.265-.244l.077 1.413c-.1-.006-.201-.013-.296-.013-.167 0-.313.022-.398.108-.1-.078-.28-.1-.504-.1-.058 0-.118.002-.18.005l.444-1.478zm-5.418.999c.451.062.686.323.704.783h-1.395c0-.46.23-.721.69-.783zm7.86-2.39c.274.182.542.367.798.56l2.403 2.613h-2.456c-.171-.19-.519-.365-.776-.365a.366.366 0 0 0-.192.046 2.987 2.987 0 0 0-.256-.01c-.14 0-.286.007-.434.016l-.082-1.506c.224.115.407.282.625.542a.297.297 0 0 0 .52-.246 9.753 9.753 0 0 1-.15-1.65zm-6.24 3.745l-.266.465h-1.248l-.252-.465zm4.516 0v2.51l-1.727-2.51zM90.601 0a3.878 3.878 0 0 0-.272.01c-.695.044-1.215.325-1.408.768a.298.298 0 0 0 .34.408l.025-.006.03.007.108.029c.055.168.096.269.12.332a.541.541 0 0 1 .042.2 3.112 3.112 0 0 0-.036 1.389c.095.466.384.977.761 1.46a.295.295 0 0 0 .014.108c.183.559.396 1.318.548 2.027.152.708.233 1.387.192 1.684a.3.3 0 0 0 .223.33l.019.005-.527 1.75a1.787 1.787 0 0 0-.26-.018c-.256 0-.509.041-.712.041a.865.865 0 0 1-.183-.016.314.314 0 0 0-.068-.007c-.212 0-.657.13-.787.366h-1.1c-.061-.797-.482-1.235-1.261-1.315-.788.08-1.196.518-1.222 1.315v.572h.531l.545 1.01h1.766l.531-1.01h1.568l2.404 3.493V18h.571v-6.561h4.516v-.41l.1.109a.297.297 0 0 0 .268.092l1.74-.292a.298.298 0 0 0 .173-.492 49.17 49.17 0 0 0-.657-.716l1.657 1.078a.296.296 0 0 0 .412-.087.297.297 0 0 0-.088-.411l-1.344-.876a.292.292 0 0 0 .076-.09.315.315 0 0 0 .02-.237.305.305 0 0 0-.048-.093c-.055-.076-.084-.088-.124-.119a2.938 2.938 0 0 0-.13-.094c-.096-.065-.206-.137-.301-.2a4.156 4.156 0 0 1-.217-.156l-2.378-1.672-.008-.005c-.806-1.13-1.568-2.316-2.457-3.414-.433-.535-.938-1.524-1.812-1.894-.048-.262-.157-.68-.484-.997C91.664.119 91.154 0 90.601 0z"/><path d="M111.043.375v17.25M103.355.375c9.625 0 9.625 17.25 0 17.25" fill="none" stroke="#000"/><path d="M119.012.597c.269.002.505.041.692.109-.031.223-.169.569-.953.773.73-.053 1.207-.113 1.453-.307.089.2.137.427.158.556a.297.297 0 0 0 .206.237c.625.191 1.174 1.112 1.7 1.763.95 1.173 1.772 2.48 2.688 3.733-.423-.207-.845-.415-1.27-.622-1.182-.622-2.394-1.11-3.406-1.877-.59-.49-1.172-.996-1.391-1.641-.076-.497.296-1.074.767-1.279a.297.297 0 1 0-.238-.545 1.957 1.957 0 0 0-.904.817c.01-.152.032-.308.075-.448a.297.297 0 0 0 .013-.104 1.372 1.372 0 0 0-.082-.422c-.041-.109-.085-.206-.158-.459a.297.297 0 0 0-.104-.153c.14-.062.315-.112.527-.125.043-.003.083-.003.125-.004a.258.258 0 1 0 .102-.002zm1.194 5.432c.605.466 1.253.873 1.888 1.28-.005.438.006.879.047 1.321a2.215 2.215 0 0 0-.697-.3c-.391-.636-.82-1.22-1.083-1.842a4.553 4.553 0 0 1-.155-.46zm-.249 1c.273.549.621 1.04.928 1.529-.058.04-.112.08-.154.121l-.027.027a1.713 1.713 0 0 0-.614-.454c.01-.348-.047-.768-.133-1.222zm2.88.047a25.922 25.922 0 0 1 .588.297c.78.38 1.56.772 2.35 1.148.556.67 1.156 1.293 1.734 1.92l-1.043.175-2.563-2.786a.297.297 0 0 0-.04-.036 19.147 19.147 0 0 0-1.025-.718zm-2.591 2.009c.058.066.112.14.161.222a.298.298 0 0 0 .43.087c.124-.09.2-.177.265-.244l.077 1.413c-.1-.006-.2-.013-.296-.013-.166 0-.313.022-.397.108-.1-.078-.28-.1-.505-.1-.057 0-.118.002-.18.005l.445-1.478zm-5.419.999c.452.062.686.323.704.783h-1.395c0-.46.23-.721.691-.783zm7.861-2.39c.274.182.542.367.798.56l2.402 2.613h-2.456c-.17-.19-.518-.365-.776-.365a.366.366 0 0 0-.192.046 2.987 2.987 0 0 0-.256-.01c-.14 0-.285.007-.433.016l-.083-1.506c.225.115.407.282.626.542a.297.297 0 0 0 .52-.246 9.753 9.753 0 0 1-.15-1.65zm-6.24 3.745l-.266.465h-1.249l-.252-.465zm4.516 0v2.51l-1.727-2.51zM119.02 0a3.878 3.878 0 0 0-.273.01c-.694.044-1.215.325-1.408.768a.298.298 0 0 0 .341.408l.025-.006.03.007.108.029c.054.168.096.269.12.332a.541.541 0 0 1 .042.2 3.112 3.112 0 0 0-.037 1.389c.095.466.384.977.761 1.46a.295.295 0 0 0 .014.108c.183.559.396 1.318.548 2.027.153.708.234 1.387.192 1.684a.3.3 0 0 0 .223.33l.019.005-.527 1.75a1.787 1.787 0 0 0-.259-.018c-.256 0-.51.041-.712.041a.865.865 0 0 1-.184-.016.314.314 0 0 0-.068-.007c-.212 0-.656.13-.787.366h-1.1c-.061-.797-.482-1.235-1.26-1.315-.789.08-1.196.518-1.223 1.315v.572h.531l.545 1.01h1.767l.53-1.01h1.568l2.404 3.493V18h.571v-6.561h4.517v-.41l.1.109a.297.297 0 0 0 .267.092l1.74-.292a.298.298 0 0 0 .173-.492 49.17 49.17 0 0 0-.656-.716l1.656 1.078a.296.296 0 0 0 .412-.087.297.297 0 0 0-.087-.411l-1.345-.876a.292.292 0 0 0 .076-.09.315.315 0 0 0 .02-.237c-.016-.05-.034-.074-.048-.093-.055-.076-.084-.088-.123-.119a2.938 2.938 0 0 0-.131-.094c-.096-.065-.206-.137-.301-.2a4.156 4.156 0 0 1-.216-.156l-2.379-1.672-.008-.005c-.805-1.13-1.568-2.316-2.457-3.414-.433-.535-.937-1.524-1.812-1.894-.048-.262-.156-.68-.483-.997-.353-.344-.864-.463-1.416-.463zm21.037.585c-.03 4.318-.064 8.637-.09 12.955.062.7.099 1.402.18 2.1.048.372.29.72.238 1.101-.08.258-.249.662-.535.662a.4.4 0 0 1-.208-.066c-.463-.178-.904-.472-1.414-.472-.029 0-.057 0-.086.002h-.076c-.97 0-1.924.214-2.886.308-.527.075-1.05.195-1.584.195h-.068c.963-.218 1.914-.586 2.673-1.234 1.033-.802 2.069-1.6 3.1-2.406.14-.172-.067-8.948-.137-13.114l.893-.03zm.525-.585c-.51.017-1.27.009-1.778.041-.271.079-.224.383-.22.601l.21 12.755c-1.127.862-2.244 1.737-3.377 2.59-.635.413-1.368.67-2.109.806-.33-.004-.665-.175-.995-.175a.763.763 0 0 0-.316.064c-.254.195-.342.73-.001.894.512.274 1.082.379 1.656.379.363 0 .727-.042 1.079-.109.818-.139 1.644-.22 2.466-.336.27-.024.55-.06.827-.06.298 0 .592.042.862.19.324.143.682.36 1.044.36a.8.8 0 0 0 .362-.084c.378-.236.597-.675.69-1.1.075-.556-.3-1.047-.293-1.599-.043-.603-.112-1.205-.139-1.809.031-4.364.2-13.408.032-13.408zm10.692.585c-.03 4.318-.064 8.637-.09 12.955.062.7.099 1.402.18 2.1.047.372.29.72.238 1.101-.08.258-.25.662-.535.662a.4.4 0 0 1-.208-.066c-.463-.178-.904-.472-1.415-.472-.028 0-.057 0-.085.002h-.076c-.97 0-1.924.214-2.887.308-.526.075-1.05.195-1.584.195h-.067c.963-.218 1.914-.586 2.673-1.234 1.032-.802 2.068-1.6 3.099-2.406.14-.172-.067-8.948-.136-13.114l.893-.03zm.524-.585c-.51.017-1.27.009-1.777.041-.272.079-.224.383-.22.601l.21 12.755c-1.127.862-2.244 1.737-3.378 2.59-.634.413-1.368.67-2.108.806-.331-.004-.666-.175-.995-.175a.763.763 0 0 0-.316.064c-.254.195-.342.73-.002.894.512.274 1.083.379 1.657.379.363 0 .727-.042 1.079-.109.818-.139 1.644-.22 2.465-.336.27-.024.551-.06.827-.06.299 0 .593.042.863.19.324.143.682.36 1.043.36a.795.795 0 0 0 .362-.084c.379-.236.598-.675.69-1.1.076-.556-.299-1.047-.292-1.599-.043-.603-.112-1.205-.139-1.809.03-4.364.2-13.408.031-13.408zm4.644 0l-2.235 2.643h1.09l1.145-1.366 1.156 1.366 1.123-1.366 1.157 1.366 1.145-1.366 1.156 1.366 1.145-1.366 1.156 1.366 1.123-1.366 1.157 1.366 1.156-1.366 1.123 1.366 1.156-1.366 1.145 1.366h1.09L170.195 0l-1.156 1.277L167.916 0l-1.156 1.277L165.603 0l-1.123 1.277L163.324 0l-1.145 1.277L161.023 0l-1.145 1.277L158.72 0l-1.123 1.277L156.442 0zm-2.235 10.67V18h1.225v-7.33zm8.423.01V18h1.225v-7.32zm8.575 0V18h1.225v-7.32zm6.912-7.609c-.27.13-.6.49-.1.55.24-.01.79-.26.69-.49a.221.221 0 0 1-.158.067c-.141 0-.287-.127-.432-.127zm-1.971.09c-.33.08-.5.44-.08.52l.022.002c.241 0 .9-.294.358-.361-.09-.06-.18-.16-.3-.16zm2.631-2.51c.59.69 1.11 1.49 1.21 2.41.1.66.13 1.321.23 1.971-.47-.04-.33-.77-.24-1.12.08-.69-.29-1.33-.55-1.941-.18-.33-.35-.85-.81-.86-.51.09-.84.52-1.17.89-.34-.34-.701-.71-1.171-.85a.236.236 0 0 0-.081-.013c-.106 0-.23.046-.286.046-.049 0-.048-.034.057-.164.063-.224.195-.29.358-.29.238 0 .543.141.8.141a.561.561 0 0 0 .112-.01c.085.004.17.007.254.007.438 0 .876-.067 1.287-.218zm-.16.76c.39.1.48.64.67.96.24.56.53 1.17.34 1.801-.15.3.04.68.02.9-.333.235-.626.73-1.07.73a.631.631 0 0 1-.15-.02c-.44-.09-.66-.51-1-.71-.247.238-.393.73-.798.73a.618.618 0 0 1-.183-.03c-.37-.08-.86-.04-.97-.49-.19-.46-.21-.97-.24-1.47a.324.324 0 0 0 .06.006c.203 0 .221-.235.24-.436.077-.293.287-.429.52-.429.157 0 .325.062.47.178.17.19.69.34.58.64-.05.18-.11.371-.17.561l.42.56c.04-.29.47-.53.22-.82-.04-.13-.19-.3-.17-.4.18-.32.42-.6.7-.84a.322.322 0 0 1 .23-.103c.268 0 .538.351.771.382.23-.25-.02-.35-.25-.48a.701.701 0 0 0-.487-.196c-.25 0-.5.13-.654.356-.19.114-.322.494-.489.494-.052 0-.108-.037-.17-.134-.306-.244-.672-.518-1.073-.518a.855.855 0 0 0-.178.018c-.283.059-.538.632-.56.632v-.001c-.01-.47.21-.89.34-1.351a.612.612 0 0 1 .595-.477c.173 0 .348.075.475.237.298.11.516.634.796.634.05 0 .1-.017.154-.054.31-.33.56-.72 1.01-.86zm-1.42 6.943c1.27 1.31 2.44 4.632 2.74 5.993-.49-.4-1.16-.66-1.31-.91-.16-.26-.6-2.792-1.43-5.083zm4.521-2.381c2.402 1.38 6.584 8.174 7.474 9.264-1.5-.95-2.981-1.91-4.592-2.691-2.261-1.11-4.192-2.911-6.033-4.592 1.52-.51 2.611-1.37 3.151-1.981zm-2.49 8.624c.32.19.61.45.96.59-.21.52-.34 1.1-.77 1.51-.082.13-.197.172-.329.172-.227 0-.504-.123-.735-.123-.016 0-.032 0-.047.002.28-.7.7-1.01.92-2.151zm.68-9.365c.06.126.137.167.22.167.107 0 .223-.071.32-.116.24.17 1.07.15.58.51-.31.42-1.968 1.566-3.119 1.768-.497.087.338.873.608 1.153 1.56 1.4 3.091 2.882 4.962 3.892 1.17.66 2.401 1.25 3.532 1.98.54.781 1.18 1.502 1.59 2.362-.41.12-.81.29-1.23.39a2.89 2.89 0 0 1-.703.082c-.66 0-1.325-.197-1.618-.512-.54-.57-1.13-3.001-1.44-3.892-.045-.1-.107-.133-.175-.133-.135 0-.292.132-.37.132a.04.04 0 0 1-.036-.019.391.391 0 0 0-.386-.376c-.176 0-.34.127-.314.396-.06.63-.18 1.26-.48 1.831-.037.097-.114.134-.215.134-.285 0-.762-.293-1.086-.374.13-.77-.92-4.712-4.002-8.014-.108-.116-.577-.611-.536-.611.005 0 .016.006.036.02.157.042.335.07.511.07.337 0 .668-.104.84-.42.025-.077.058-.108.096-.108.137 0 .344.399.564.399a.92.92 0 0 0 .513.155c.29 0 .578-.131.777-.355.19-.17.37-.34.56-.51zM178.867 0a3.71 3.71 0 0 1-1.36.28c-.071 0-.142-.004-.21-.01a.804.804 0 0 1-.143.012c-.337 0-.7-.18-1.025-.18a.622.622 0 0 0-.353.098c-.55.8-1.05 1.69-1.111 2.681-.11 1.901-.06 2.562 1.44 4.122.591 1.341 1.692 5.713 2.022 6.904.36.34-.45 2.2-.79 2.66-.186.256-.674.268-1.198.268h-.171c-.472 0-.949.01-1.243.193-.28.18-.38.85-.22.94.15-.23.45-.54.66-.57-.2.21.5.11.65.16.405.007.815.041 1.225.041.199 0 .398-.008.596-.03.09-.04.187-.102.229-.102.033 0 .033.038-.028.151.283.074.601.111.912.111.7 0 1.363-.187 1.509-.56.3-.551.58-1.131.78-1.732.255.054.577.234.834.234a.38.38 0 0 0 .207-.054c.28-.19.57-1.08.73-1.67.015-.062.098-.092.183-.092.08 0 .163.028.187.082.3.6.8 2.44 1.28 3.211.363.571 1.241.852 2.176.852a4.48 4.48 0 0 0 1.717-.332c.65-.28 1.13-.22.99-.58-.22-.6-.6-1.17-1-1.68.58.36 1.16.73 1.74 1.09.048.174.169.243.291.243.237 0 .483-.256.24-.513-2.271-3.282-5.883-8.875-8.384-10.685-.4-.35-.87-.62-1.391-.75-.17-.44-.12-1.031-.22-1.531-.1-.99-.7-2.632-1.751-3.262zm23.037 2.085q-.253 0-.334.08-.07.082-.192.082v.09l.141.021q.157.157.418.157.193 0 .443-.086l.253.07.02-.181-.222-.02q-.324-.183-.527-.213zm1.326-1.62q.467 0 1.084.142 1.042.233 1.053 1.316.01 1.073-.608 1.57-.327.271-.595.271-.23 0-.417-.201-.183-.182-.071-.294.293-.09.273-.455.314-.385.314-.658.02-.477-.438-.477h-.038q-.202.021-.344.132-.896-.594-1.577-.594-.073 0-.144.007.293-.516.921-.688.256-.072.587-.072zm2.845 6.803q.395.81 1.55 2.36-.436-.294-2.137-.618l.587-1.742zm-4.198-5.704q.639 0 1.363.551l-.07.203q.085.05.165.05.034 0 .067-.01.162-.425.365-.425.024-.003.046-.003.195 0 .177.246 0 .253-.274.567 0 .28-.136.28-.021 0-.046-.007-.182-.04-.152-.202-.121.455.213 1.154l.496 1.083q.172.375.547.395.374.02.86.111.486.092.263.658-.222.567-.931 2.542l-.476-.223q-.496-1.002-1.721-1.701-.233.223.091.587l-.364.8q-.071.476.364.75.608.273 1.337.273l.637.516-.182 3.34-1.822.406q-1.428-4.566-1.701-4.961-.273-.395-.152-2.258-.05-.637 1.043-.637 1.134 0 1.043-.517l-.142-.415q-.112-.385-.091-.476-.09-.024-.208-.024-.177 0-.42.055-.23.02-.396.02-.333 0-.414-.081-.121-.122-.08-.334l.323-.112q.111-.06.04-.202l-.455-.04q.162-.345-.04-.456l-.058.002q-.216 0-.216-.144.071-.132.284-.486.212-.354.516-.455.136-.044.271-.044.175 0 .347.074.303.121.577.192l.05-.121q-.253-.06-.526-.203-.263-.136-.491-.136-.228 0-.42.136.05-.182.141-.273.176-.045.358-.045zm-3.921 9.562l3.725 2.581-4.16 1.256q.141-2.886-.385-3.837zm6.651 2.43q.425 1.63-.506 2.834-.834.498-1.879.498-.717 0-1.533-.235-.836-.245-1.637-.245-1.12 0-2.17.478.183-.637 2.977-2.085l4.748-1.246zM203.375 0q-.324 0-.65.05-1.135.131-1.661 1.559-.071.385-.344.719-.274.324-.355.719 0 .222.284.232.283.01.07.193-.09.02-.07.09.01.072.07.092-.131.142 0 .192.142.061.102.203-.03.152.05.374.081.233.81.233l.628-.09q-.04.151.05.364-1.822.02-2.267.79-1.529 1.275-2.906 2.703-.273-.567-1.245-1.55-.962-.971-1.124-1.427-.334-.992-1.427-1.883-.243.182 0 .587l-.456.73q-.132.475.253.799.587.354 1.205.75 1.7 3.016 2.49 3.26.044.006.092.006.6 0 1.802-1.07 1.19-1.04 1.412-1.04.078 0 .035.129 0 .658.274 1.124.273.465 1.336 4.232l-3.31-2.47q-.75-.68-1.317-.68-1.59.021-1.407 1.317l.567 4.04q-1.205.293-1.114 1.812-.546.111-1.002.314-.368.159-.743.159-.079 0-.158-.007l-.054-.002q-.412 0-.584.447H208.8q-.41-.804-1.113-.804-.146 0-.305.035-.153.034-.29.034-.675 0-.945-.834-.2-.632-.576-.632-.215 0-.487.207.729-1.408.04-2.957.03-1.68.142-2.996 2.38.749 3.149.749.597-.061.597-.517-.526-2.045-2.43-4.566-.384-.77-1.974-.84-.273-.364-.293-.638.658-.152 1.103-.688.456-.537.446-1.742-.01-1.194-1.043-1.559Q204.105 0 203.375 0z"/><path d="M200.861 0v.492l.316-.315.177-.177zm2.785 0l-2.785 2.785v.707l3.316-3.315.177-.177zm3 0l-5.785 5.785v.707l6.316-6.315.177-.177zm2.365.635l-8.15 8.15v.707l8.15-8.15V.635zm0 3l-8.15 8.15v.707l8.15-8.15v-.707zm0 3l-8.15 8.15v.707l8.15-8.15v-.707zm0 3l-8.15 8.15V18h.493l7.657-7.658v-.707zm0 3l-5.188 5.188-.177.177h.708l4.657-4.658v-.707zm0 3l-2.188 2.188-.177.177h.708l1.657-1.658v-.707zM212.646 0l-1.635 1.635v.707l2.166-2.165.177-.177zm3 0l-4.635 4.635v.707l5.166-5.165.177-.177zm3 0l-7.635 7.635v.707l8.166-8.165.177-.177zm3 0l-10.635 10.635v.707L222.177.177l.177-.177zm3 0l-13.635 13.635v.707L225.177.177l.177-.177zm3 0l-16.635 16.635v.707L228.177.177l.177-.177zm3 0l-17.823 17.823-.177.177h.708L231.177.177l.177-.177zm2.365.635l-17.188 17.188-.177.177h.708L233.01 1.342V.635zm0 3l-14.188 14.188-.177.177h.708L233.01 4.342v-.707zm0 3l-11.188 11.188-.177.177h.708L233.01 7.342v-.707zm0 3l-8.188 8.188-.177.177h.708l7.657-7.658v-.707zm0 3l-5.188 5.188-.177.177h.708l4.657-4.658v-.707zm0 3l-2.188 2.188-.177.177h.708l1.657-1.658v-.707z"/></svg>