<svg xmlns="http://www.w3.org/2000/svg" width="115.169" height="18"><path d="M2.097 0c-.335 0-.67.026-.995.066-.447.113-.217.626.18.626a.476.476 0 0 0 .082-.008c.84.097 1.872.15 2.506.626.841.916.463 2.821.561 3.725.007.05.01 3.653.01 5.48a6.145 6.145 0 0 0-2.635-.586 6.04 6.04 0 0 0-1.187.117c-.441.231.076.528.422.528.041 0 .08-.004.115-.013 1.226.133 2.62.461 3.243 1.602.061.206.023.277-.071.277-.206 0-.68-.342-.946-.342-.014 0-.028 0-.04.003a7.535 7.535 0 0 0-1.58-.169c-.39 0-.777.031-1.15.095-.42.278.097.534.439.534a.532.532 0 0 0 .105-.01c1.251.151 2.636.49 3.243 1.633.007 1.27 0 2.11.033 3.278-.014.36.22.538.456.538.235 0 .473-.176.475-.526-.009-1.15-.091-2.161.06-3.277.304-1.253 2.477-1.445 3.827-1.754.294-.347-.285-.475-.659-.475-.055 0-.107.003-.15.008a6.823 6.823 0 0 0-.521-.02c-.882 0-1.771.175-2.557.58-.032-.755.711-1.19 1.244-1.493.84-.361 1.765-.397 2.643-.59.313-.273-.18-.501-.521-.501a.58.58 0 0 0-.125.012 6.767 6.767 0 0 0-.648-.031c-.903 0-1.805.183-2.614.582.016-2.851.062-5.61-.02-8.308-.065-.834-.546-1.6-1.354-1.849C3.388.094 2.741 0 2.097 0zm23.995 2.99q.557 0 1.086.606-4.368 5.2-5.46 5.81-.814.457-1.434.457-.21 0-.399-.053-.74-.208-1.586-.234h-.042q-.828 0-1.817.988h-.13q.702-1.638 1.963-2.34 1.261-.702 7.397-5.148.213-.085.422-.085zM18.36.622q.066 0 .133.01v6.683Q16.44 8.51 15.66 10.668q1.196-8.268 1.677-9.204Q17.77.62 18.361.62zM13.005 11.09q-.08 0-.153.138-.13.247.234.689.208-.546.052-.741-.069-.086-.133-.086zm.037-.372q.153 0 .33.237.39.52-.234 2.08-.702-1.352-.429-1.976.149-.34.333-.34zm6.804 2.577v.39q-.286-.026-.442-.182.052-.078.208-.208zm.598.884l2.418.338.494.884q-.832-.234-1.833-.624-1-.39-1.079-.598zm-5.33-.364l.468.234.156 1.118-.416 1.274h-.65l.442-1.274v-1.352zm1.118.39l.442.13.156.832-.416 1.274h-.65l.442-1.274.026-.962zm1.534.156l.156.806-.416 1.274h-.65l.442-1.274v-.78l.468-.026zm-.994-3.234q.415 0 .89.1 1.404.3 1.768 1.418h1.092l.416-.676q5.512 1.274 6.214 4.602-1.508-.832-3.172-1.118l-.728-1.456-2.886-.39.078-.702h-.988q-1.092.9-2.228.9-.243 0-.489-.042-1.391-.234-1.82-.95-.429-.714.455-1.3.585-.386 1.398-.386zM18.617 0q-.947 0-1.488.658-.663.806-1.235 4.238l-.91 5.954q-.442.468-.676.52h-.312q-.026-.65-.494-1.196-.416-3.978.364-6.968l-.312-.598q-1.118 3.38-.546 7.592h-.078q-1.794-4.03-.52-7.592l-.312-.468q-1.664 3.796.364 8.242-.572 1.248-.117 2.054.455.806.559 1.508l.182.13q.702-1.04.806-1.794h.26q.026.598.338 1.248l.182 1.638-.442 1.274h-2.262v.624h6.526v-.624h-.546l.416-1.274.026-.962q.468-.156.702-.364.338.312.754.312-.026.26.104.442 1.04.806 3.718 1.404l.91 1.768q0-.434.27-.434.085 0 .198.044l-.728-1.3q1.508.338 2.288.858.416.442-.052 1.066 1.04-.442 1.17-1.248-.416-3.926-7.046-5.46l-.468.78h-.416q-.338-1.092-2.678-1.508.522-.388 1.285-.388.414 0 .9.115.491.116.96.116.844 0 1.613-.376 1.196-.585 6.084-6.461-.9-1.136-1.905-1.136-.329 0-.669.122L19.066 7.08V.034Q18.831 0 18.617 0z"/><path d="M37.458.375c-9.625 0-9.625 17.25 0 17.25m0 0" fill="none" stroke="#000"/><path d="M43.68 12.703c-.681.054-1.058.394-1.13 1.022.09.68.467 1.04 1.13 1.075.663-.036 1.013-.394 1.049-1.075-.054-.628-.404-.968-1.049-1.022zm.08-2.259c.485 0 .933.09 1.345.269a3.545 3.545 0 0 1 1.828 1.815c.18.403.27.83.27 1.277 0 .466-.09.901-.27 1.304a3.422 3.422 0 0 1-3.173 2.03c-.483 0-.936-.085-1.357-.255a3.235 3.235 0 0 1-1.09-.712 3.495 3.495 0 0 1-.725-1.063 3.174 3.174 0 0 1-.27-1.304c0-.448.09-.874.27-1.277a3.67 3.67 0 0 1 .726-1.076c.304-.313.667-.56 1.089-.739.421-.18.874-.269 1.358-.269zm-.053-.914c-.592 0-1.147.112-1.667.336-.52.224-.968.529-1.345.914a4.48 4.48 0 0 0-.9 1.345 4.071 4.071 0 0 0-.337 1.653c0 .592.112 1.143.336 1.654.225.511.525.955.901 1.331A4.267 4.267 0 0 0 43.707 18c.591 0 1.143-.112 1.654-.336a4.48 4.48 0 0 0 1.344-.9 4.21 4.21 0 0 0 .914-1.332 4.07 4.07 0 0 0 .336-1.654c0-.591-.112-1.142-.336-1.653a4.358 4.358 0 0 0-2.258-2.259 4.071 4.071 0 0 0-1.654-.336z"/><path d="M41.646 9l-2.188 2.188v.707l2.719-2.718.177-.177zm3 0l-5.188 5.188v.707l5.719-5.718.177-.177zm3 0l-8.188 8.188v.707l8.497-8.497V9zm.31 2.691l-6.133 6.132-.177.177h.708l5.601-5.602v-.707zm0 3l-3.133 3.132-.177.177h.708l2.601-2.602v-.707zM54.252.383V.79h-1.03V.383zm1.316 1.173q-.191.215-.191.742h-3.28q.025-.527-.167-.742zm0 1.508q-.239.215-.191.742h-3.28q.025-.527-.167-.742zm0 1.508q-.191.167-.191.742h-3.28q.049-.527-.167-.742zm-.095 1.508q-.335.598-.312 1.604h-2.896q.048-1.006-.311-1.604zm-.313 1.77v.168h-2.896V7.85zm0 .335v.168h-2.896v-.168zm0 .335v.168h-2.896V8.52zm0 .335v.168h-2.896v-.168zm0 .335v5.817q.216 1.077.766 2.37h-4.404q.431-.958.742-2.37V9.191zM52.864 0v.79h-2.681q-.455.383 0 .766h1.1q.216.215.192.742h-1.292q-.455.383 0 .766h1.1q.216.215.192.742h-1.292q-.455.383 0 .766h1.1q.24.215.192.742h-1.292q-.455.359 0 .766h1.1q.432.502.384 3.04v5.888q-.168 1.316-1.173 2.992h6.558q-1.149-1.915-1.268-2.992V9.12q-.12-2.514.407-3.04h1.125q.478-.36 0-.766h-1.293q-.024-.575.168-.742h1.197q.406-.407-.072-.766h-1.293q-.024-.527.168-.742h1.125q.455-.383 0-.766h-1.293q-.024-.527.168-.742h1.125q.455-.383 0-.766h-2.681V0zm10.984.383V.79h-1.03V.383zm1.316 1.173q-.191.215-.191.742h-3.28q.024-.527-.167-.742zm0 1.508q-.24.215-.191.742h-3.28q.024-.527-.167-.742zm0 1.508q-.191.167-.191.742h-3.28q.048-.527-.167-.742zm-.096 1.508q-.335.598-.31 1.604H61.86q.048-1.006-.311-1.604zm-.31 1.771v.168H61.86V7.85zm0 .335v.168H61.86v-.168zm0 .335v.168H61.86V8.52zm0 .335v.168H61.86v-.168zm0 .335v5.817q.215 1.077.765 2.37H61.12q.43-.958.742-2.37V9.191zM62.458 0v.79h-2.68q-.455.383 0 .766h1.1q.216.215.192.742h-1.293q-.454.383 0 .766h1.101q.216.215.192.742h-1.293q-.454.383 0 .766h1.101q.24.215.192.742h-1.293q-.454.359 0 .766h1.101q.431.502.383 3.04v5.888Q61.095 16.324 60.09 18h6.558q-1.149-1.915-1.269-2.992V9.12q-.12-2.514.407-3.04h1.125q.48-.36 0-.766H65.62q-.024-.575.167-.742h1.197q.407-.407-.072-.766H65.62q-.024-.527.167-.742h1.125q.455-.383 0-.766H65.62q-.024-.527.167-.742h1.125q.455-.383 0-.766h-2.68V0z"/><path d="M50.646 9l-.69.691v.707l1.22-1.221.178-.177zm3 0l-3.69 3.691v.707l4.22-4.221.178-.177zm3 0l-6.69 6.691v.707l7.22-7.221.178-.177zm3 0l-8.823 8.823-.177.177h.708l8.823-8.823.177-.177zm3 0l-8.823 8.823-.177.177h.708l8.823-8.823.177-.177zm3 0l-8.823 8.823-.177.177h.708l8.823-8.823.177-.177zm1.523 1.478l-7.346 7.345-.177.177h.708l6.815-6.815v-.707zm0 3l-4.346 4.345-.177.177h.708l3.815-3.815v-.707zm0 3l-1.346 1.345-.177.177h.708l.815-.815v-.707zM71.646 0L69.17 2.478v.707L72.177.177 72.354 0zm3 0L69.17 5.478v.707L75.177.177 75.354 0zm3 0L69.17 8.478v.707L78.177.177 78.354 0zm3 0L69.17 11.478v.707L81.177.177 81.354 0zm3 0L69.17 14.478v.707L84.177.177 84.354 0zm3 0L69.17 17.478V18h.185L87.177.177 87.354 0zm3 0L71.823 17.823l-.177.177h.708L90.177.177 90.354 0zm1.523 1.478L74.823 17.823l-.177.177h.708L91.169 2.185v-.707zm0 3L77.823 17.823l-.177.177h.708L91.169 5.185v-.707zm0 3L80.823 17.823l-.177.177h.708l9.815-9.815v-.707zm0 3l-7.346 7.345-.177.177h.708l6.815-6.815v-.707zm0 3l-4.346 4.345-.177.177h.708l3.815-3.815v-.707zm0 3l-1.346 1.345-.177.177h.708l.815-.815v-.707zM92.646 0L91.17 1.478v.707l2-2V0zm.523 2.478l-2 2v.707l2-2v-.707zm0 3l-2 2v.707l2-2v-.707zm0 3l-2 2v.707l2-2v-.707zm0 3l-2 2v.707l2-2v-.707zm0 3l-2 2v.707l2-2v-.707zm0 3l-.346.345-.177.177h.523v-.522zM95.646 0L93.17 2.478v.707L96.177.177 96.354 0zm3 0L93.17 5.478v.707L99.177.177 99.354 0zm3 0L93.17 8.478v.707l9.008-9.008.177-.177zm3 0L93.17 11.478v.707L105.177.177l.177-.177zm3 0L93.17 14.478v.707L108.177.177l.177-.177zm3 0L93.17 17.478V18h.185L111.177.177l.177-.177zm3 0L95.823 17.823l-.177.177h.708L114.177.177l.177-.177zm1.523 1.478L98.823 17.823l-.177.177h.708l15.815-15.815v-.707zm0 3l-13.346 13.345-.177.177h.708l12.815-12.815v-.707zm0 3l-10.346 10.345-.177.177h.708l9.815-9.815v-.707zm0 3l-7.346 7.345-.177.177h.708l6.815-6.815v-.707zm0 3l-4.346 4.345-.177.177h.708l3.815-3.815v-.707zm0 3l-1.346 1.345-.177.177h.708l.815-.815v-.707z"/></svg>