<svg xmlns="http://www.w3.org/2000/svg" width="129.4" height="18"><path d="M2.097 0c-.335 0-.67.026-.995.066-.447.113-.217.626.18.626a.476.476 0 0 0 .082-.008c.84.097 1.872.15 2.506.626.841.916.463 2.821.561 3.725.007.05.01 3.653.01 5.48a6.145 6.145 0 0 0-2.635-.586 6.04 6.04 0 0 0-1.187.117c-.441.231.076.528.422.528.041 0 .08-.004.115-.013 1.226.133 2.62.461 3.243 1.602.061.206.023.277-.071.277-.206 0-.68-.342-.946-.342-.014 0-.028 0-.04.003a7.535 7.535 0 0 0-1.58-.169c-.39 0-.777.031-1.15.095-.42.278.097.534.439.534a.532.532 0 0 0 .105-.01c1.251.151 2.636.49 3.243 1.633.007 1.27 0 2.11.033 3.278-.014.36.22.538.456.538.235 0 .473-.176.475-.526-.009-1.15-.091-2.161.06-3.277.304-1.253 2.477-1.445 3.827-1.754.294-.347-.285-.475-.659-.475-.055 0-.107.003-.15.008a6.823 6.823 0 0 0-.521-.02c-.882 0-1.771.175-2.557.58-.032-.755.711-1.19 1.244-1.493.84-.361 1.765-.397 2.643-.59.313-.273-.18-.501-.521-.501a.58.58 0 0 0-.125.012 6.767 6.767 0 0 0-.648-.031c-.903 0-1.805.183-2.614.582.016-2.851.062-5.61-.02-8.308-.065-.834-.546-1.6-1.354-1.849C3.388.094 2.741 0 2.097 0zm23.995 2.99q.557 0 1.086.606-4.368 5.2-5.46 5.81-.814.457-1.434.457-.21 0-.399-.053-.74-.208-1.586-.234h-.042q-.828 0-1.817.988h-.13q.702-1.638 1.963-2.34 1.261-.702 7.397-5.148.213-.085.422-.085zM18.36.622q.066 0 .133.01v6.683Q16.44 8.51 15.66 10.668q1.196-8.268 1.677-9.204Q17.77.62 18.361.62zM13.005 11.09q-.08 0-.153.138-.13.247.234.689.208-.546.052-.741-.069-.086-.133-.086zm.037-.372q.153 0 .33.237.39.52-.234 2.08-.702-1.352-.429-1.976.149-.34.333-.34zm6.804 2.577v.39q-.286-.026-.442-.182.052-.078.208-.208zm.598.884l2.418.338.494.884q-.832-.234-1.833-.624-1-.39-1.079-.598zm-5.33-.364l.468.234.156 1.118-.416 1.274h-.65l.442-1.274v-1.352zm1.118.39l.442.13.156.832-.416 1.274h-.65l.442-1.274.026-.962zm1.534.156l.156.806-.416 1.274h-.65l.442-1.274v-.78l.468-.026zm-.994-3.234q.415 0 .89.1 1.404.3 1.768 1.418h1.092l.416-.676q5.512 1.274 6.214 4.602-1.508-.832-3.172-1.118l-.728-1.456-2.886-.39.078-.702h-.988q-1.092.9-2.228.9-.243 0-.489-.042-1.391-.234-1.82-.95-.429-.714.455-1.3.585-.386 1.398-.386zM18.617 0q-.947 0-1.488.658-.663.806-1.235 4.238l-.91 5.954q-.442.468-.676.52h-.312q-.026-.65-.494-1.196-.416-3.978.364-6.968l-.312-.598q-1.118 3.38-.546 7.592h-.078q-1.794-4.03-.52-7.592l-.312-.468q-1.664 3.796.364 8.242-.572 1.248-.117 2.054.455.806.559 1.508l.182.13q.702-1.04.806-1.794h.26q.026.598.338 1.248l.182 1.638-.442 1.274h-2.262v.624h6.526v-.624h-.546l.416-1.274.026-.962q.468-.156.702-.364.338.312.754.312-.026.26.104.442 1.04.806 3.718 1.404l.91 1.768q0-.434.27-.434.085 0 .198.044l-.728-1.3q1.508.338 2.288.858.416.442-.052 1.066 1.04-.442 1.17-1.248-.416-3.926-7.046-5.46l-.468.78h-.416q-.338-1.092-2.678-1.508.522-.388 1.285-.388.414 0 .9.115.491.116.96.116.844 0 1.613-.376 1.196-.585 6.084-6.461-.9-1.136-1.905-1.136-.329 0-.669.122L19.066 7.08V.034Q18.831 0 18.617 0z"/><path d="M37.458.375c-9.625 0-9.625 17.25 0 17.25m0 0" fill="none" stroke="#000"/><path d="M43.68 12.703c-.681.054-1.058.394-1.13 1.022.09.68.467 1.04 1.13 1.075.663-.036 1.013-.394 1.049-1.075-.054-.628-.404-.968-1.049-1.022zm.08-2.259c.485 0 .933.09 1.345.269a3.545 3.545 0 0 1 1.828 1.815c.18.403.27.83.27 1.277 0 .466-.09.901-.27 1.304a3.422 3.422 0 0 1-3.173 2.03c-.483 0-.936-.085-1.357-.255a3.235 3.235 0 0 1-1.09-.712 3.495 3.495 0 0 1-.725-1.063 3.174 3.174 0 0 1-.27-1.304c0-.448.09-.874.27-1.277a3.67 3.67 0 0 1 .726-1.076c.304-.313.667-.56 1.089-.739.421-.18.874-.269 1.358-.269zm-.053-.914c-.592 0-1.147.112-1.667.336-.52.224-.968.529-1.345.914a4.48 4.48 0 0 0-.9 1.345 4.071 4.071 0 0 0-.337 1.653c0 .592.112 1.143.336 1.654.225.511.525.955.901 1.331A4.267 4.267 0 0 0 43.707 18c.591 0 1.143-.112 1.654-.336a4.48 4.48 0 0 0 1.344-.9 4.21 4.21 0 0 0 .914-1.332 4.07 4.07 0 0 0 .336-1.654c0-.591-.112-1.142-.336-1.653a4.358 4.358 0 0 0-2.258-2.259 4.071 4.071 0 0 0-1.654-.336zM67.8 2.373v2.341H50.555V2.373zM50.62 0v1.772h-.665v3.543H68.4V1.772h-.538V0h-.6v1.772h-1.488V0h-.6v1.772h-1.488V0h-.6v1.772H61.63V0h-.633v1.772h-1.455V0h-.601v1.772h-1.487V0h-.602v1.772h-1.487V0h-.6v1.772h-1.456V0h-.601v1.772H51.22V0zm1.598 15.325L49.955 18h1.104l1.159-1.382L53.388 18l1.137-1.382L55.695 18l1.16-1.382L58.024 18l1.158-1.382L60.353 18l1.137-1.382L62.66 18l1.17-1.382L64.969 18l1.17-1.382L67.297 18H68.4l-2.262-2.675-1.17 1.293-1.137-1.293-1.17 1.293-1.17-1.293-1.137 1.293-1.17-1.293-1.16 1.293-1.17-1.293-1.159 1.293-1.17-1.293-1.137 1.293-1.17-1.293zM71.646 0L70.4 1.246v.707L72.177.177 72.354 0zm3 0L70.4 4.246v.707L75.177.177 75.354 0zm3 0L70.4 7.246v.707L78.177.177 78.354 0zm3 0L70.4 10.246v.707L81.177.177 81.354 0zm.754 2.246l-11 11v.707l11-11v-.707zm0 3l-11 11v.707l11-11v-.707zm0 3l-9.577 9.577-.177.177h.708L81.4 8.953v-.707zm0 3l-6.577 6.577-.177.177h.708l6.046-6.047v-.707zm0 3l-3.577 3.577-.177.177h.708l3.046-3.047v-.707zm0 3l-.577.577-.177.177h.708l.046-.047v-.707zm2-17l-2 2v.707l2-2V.246zm0 3l-2 2v.707l2-2v-.707zm0 3l-2 2v.707l2-2v-.707zm0 3l-2 2v.707l2-2v-.707zm0 3l-2 2v.707l2-2v-.707zm0 3l-2 2v.707l2-2v-.707zM83.646 0L83.4.246v.707l.777-.776.177-.177zm3 0L83.4 3.246v.707L87.177.177 87.354 0zm3 0L83.4 6.246v.707L90.177.177 90.354 0zm3 0L83.4 9.246v.707L93.177.177 93.354 0zm3 0L83.4 12.246v.707L96.177.177 96.354 0zm3 0L83.4 15.246v.707L99.177.177 99.354 0zm3 0L83.823 17.823l-.177.177h.708L102.177.177l.177-.177zm3 0L86.823 17.823l-.177.177h.708L105.177.177l.177-.177zm.754 2.246L89.823 17.823l-.177.177h.708L105.4 2.953v-.707zm0 3L92.823 17.823l-.177.177h.708L105.4 5.953v-.707zm0 3l-9.577 9.577-.177.177h.708l9.046-9.047v-.707zm0 3l-6.577 6.577-.177.177h.708l6.046-6.047v-.707zm0 3l-3.577 3.577-.177.177h.708l3.046-3.047v-.707zm0 3l-.577.577-.177.177h.708l.046-.047v-.707zm2-17l-2 2v.707l2-2V.246zm0 3l-2 2v.707l2-2v-.707zm0 3l-2 2v.707l2-2v-.707zm0 3l-2 2v.707l2-2v-.707zm0 3l-2 2v.707l2-2v-.707zm0 3l-2 2v.707l2-2v-.707zM107.646 0l-.246.246v.707l.777-.776.177-.177zm3 0L107.4 3.246v.707l3.777-3.776.177-.177zm3 0L107.4 6.246v.707l6.777-6.776.177-.177zm3 0L107.4 9.246v.707l9.777-9.776.177-.177zm3 0L107.4 12.246v.707L120.177.177l.177-.177zm3 0L107.4 15.246v.707L123.177.177l.177-.177zm3 0l-17.823 17.823-.177.177h.708L126.177.177l.177-.177zm3 0l-17.823 17.823-.177.177h.708L129.177.177l.177-.177zm.754 2.246l-15.577 15.577-.177.177h.708L129.4 2.953v-.707zm0 3l-12.577 12.577-.177.177h.708L129.4 5.953v-.707zm0 3l-9.577 9.577-.177.177h.708l9.046-9.047v-.707zm0 3l-6.577 6.577-.177.177h.708l6.046-6.047v-.707zm0 3l-3.577 3.577-.177.177h.708l3.046-3.047v-.707zm0 3l-.577.577-.177.177h.708l.046-.047v-.707z"/></svg>