<svg xmlns="http://www.w3.org/2000/svg" width="48.639" height="18"><path d="M10.07 2.79c.502.038.934.152 1.294.342-.474.56-.906 1.323-1.294 2.29-.399-.967-.835-1.73-1.31-2.29.37-.18.807-.294 1.31-.341zm0 3.67c.294 2.741.45 4.963.469 5.778-.019 1.385-.175 2.305-.47 2.76-.303-.455-.46-1.375-.469-2.76.01-.825.166-3.046.47-5.777zm0-4.21c-.968 0-1.674.294-2.12.882.673.56 1.214 1.427 1.622 2.603 0 .531-.107 1.975-.32 3.445-.214 1.47-.264 3.1-.15 4.893.245 1.118.538 1.677.879 1.677a.346.346 0 0 0 .089-.012c.03.008.06.012.089.012.34 0 .633-.559.878-1.677.104-1.792.05-3.423-.164-4.893-.213-1.47-.32-2.914-.32-3.445.418-1.176.963-2.044 1.636-2.603-.455-.588-1.162-.882-2.12-.882zm4.851.561c-.154 0-.53.182-.177.183.058 0 .185.018.28.018.113 0 .178-.025.022-.132-.037-.026-.071-.067-.12-.069h-.005zm.06-.122l.012.001c.273.063.488.293.772.372.239.066.63.155.549.504-.11.466-.423.917-.325 1.404.062.306.402.332.677.332h.13c1.796-.015 3.222-.09 4.366-.09 1.876 0 2.994.203 3.742 1.215 1.24 1.678.816 3.356.507 5.475.087-1.25.501-3.22-.784-4.92-.543-.719-1.463-1.02-2.31-1.234-.389-.098-.909-.133-1.481-.133-1.324 0-2.932.183-3.867.183-.223 0-.407-.01-.54-.036-.36-.07-.618-.513-.586-.881.042-.488.427-.942.282-1.435-.064-.22-.255-.269-.463-.269-.15 0-.307.026-.433.032-.135.007-.269.026-.399.026a.705.705 0 0 1-.5-.174c-.304-.269.528-.372.65-.372zm.04-.439h-.028c-.396.02-.794.142-1.137.341-.358.208-.07.612.172.79.223.164.474.318.755.318.054 0 .11-.006.166-.019.143-.031.396-.09.569-.09.102 0 .175.02.183.079.064.486-.454 1.075-.245 1.637.171.46.563.878 1.087.916.23.016.459.023.688.023 1.208 0 2.41-.195 3.617-.216h.115c2.314 0 3.478 1.208 3.744 1.959.256.727.442 1.488.377 2.263-.079.931-.215 1.87-.14 2.803.068.822.354 1.62.549 2.417.045.186.177.279.3.279.136 0 .26-.111.252-.334-.04-1.027-.277-1.905-.25-2.853.023-.814.232-1.598.28-2.415.056-.947.32-4.137-2.264-5.066-.744-.267-1.687-.34-2.687-.34-1.183 0-2.445.102-3.55.102-.414 0-.805-.014-1.162-.053.143-.507.415-.95.351-1.478-.05-.418-.506-.574-.854-.669-.324-.088-.544-.394-.887-.394zm19.194 4.997q.82 0 1.495.409 1.374.797 2.604.797 1.238 0 2.27-.106v2.126q-1.282-.228-1.852-.228h-.015q-.463 0-1.291.106-3.364.464-4.191.464-1.375 0-2.59-.046-2.08-.122-2.285-.22-.198-.091-.198-.524 0-.425.114-.744.114-.32.38-.456 6.5-.288 7.008-.334-.452-.653-1.403-.653-.309 0-.67.068-1.21.239-1.866.239-.138 0-.252-.01-.645-.062-.6-.616.363.05.749.05.81 0 1.727-.217.451-.105.866-.105zm.193-.616q-.329 0-.65.083-1.298.342-2.285.357-.243 0-.873-.121-.296.273-.296.645t.235.63q-2.483.091-2.483.296-.448.57-.448 1.367 0 .79.418 1.078 1.26.403 5.064.403.608 0 1.238-.06 3.523-.525 4.199-.54h.067q.694 0 2.545.289V7.7l-.015.016q-1.587.182-2.59.205l-.102.001q-.954 0-1.963-.533-1.067-.759-2.06-.759z"/><path d="M7.95.375c-9.625 0-9.625 17.25 0 17.25m0-17.25h33.19M7.95 17.625h33.19m0-17.25c9.624 0 9.624 17.25 0 17.25" fill="none" stroke="#000"/></svg>