<svg xmlns="http://www.w3.org/2000/svg" width="26.059" height="18"><path d="M9.507 3.093q1.51.22 1.579 1.382v8.382q-.706-.843-2.536-1.184l.957-8.58zM9.08 2.25L7.95 12.272q2.52.289 3.136 1.8v1.678h.752V4.475q0-1.883-2.757-2.225zm8.065.664v4.708h-3.158V2.914zm-3.807-.664v6.021h4.471V2.25zm3.807 8.143V15.1h-3.158v-4.708zm-3.807-.664v6.021h4.471V9.729z"/><path d="M7.95.375c-9.625 0-9.625 17.25 0 17.25m0-17.25h9.86m-9.86 17.25h9.86M25.497.375v17.25M17.81.375c9.624 0 9.624 17.25 0 17.25" fill="none" stroke="#000"/></svg>