<svg xmlns="http://www.w3.org/2000/svg" width="55.365" height="18"><path d="M14.9 4.63c-.51.04-.793.295-.847.766.067.51.35.78.847.807.498-.027.76-.296.787-.807-.04-.47-.303-.726-.787-.766zm.06-1.694c.364 0 .7.067 1.009.201a2.659 2.659 0 0 1 1.371 1.361c.135.303.202.622.202.959 0 .35-.067.675-.202.978a2.567 2.567 0 0 1-2.38 1.523c-.362 0-.702-.065-1.018-.192a2.426 2.426 0 0 1-.817-.535 2.621 2.621 0 0 1-.544-.796 2.38 2.38 0 0 1-.202-.978c0-.337.067-.656.202-.958.134-.303.316-.572.544-.807.229-.235.501-.42.817-.555a2.574 2.574 0 0 1 1.019-.201zm-.04-.686c-.443 0-.86.084-1.25.252-.39.168-.726.397-1.008.686a3.36 3.36 0 0 0-.676 1.008 3.053 3.053 0 0 0-.252 1.24c0 .444.084.857.252 1.24.168.384.393.717.676.999a3.2 3.2 0 0 0 2.258.928c.444 0 .857-.084 1.24-.253a3.36 3.36 0 0 0 1.009-.675 3.16 3.16 0 0 0 .686-.998c.168-.384.252-.797.252-1.24 0-.444-.084-.858-.252-1.24a3.268 3.268 0 0 0-1.694-1.695 3.053 3.053 0 0 0-1.24-.252zm-1.04 11.631a1.31 1.31 0 0 0-.312.039c-.21.051-.437.168-.682.35H7.95v1.091h4.936c.245.182.472.299.682.35a1.31 1.31 0 0 0 .623 0c.205-.051.41-.168.617-.35h.19c.197.182.4.299.61.35a1.316 1.316 0 0 0 .63 0c.209-.051.432-.168.67-.35h4.983V14.27h-4.983c-.238-.182-.461-.299-.67-.35a1.316 1.316 0 0 0-.63 0 1.39 1.39 0 0 0-.61.35h-.19a1.492 1.492 0 0 0-.617-.35 1.274 1.274 0 0 0-.31-.039zM27.444 2.25c-.09 0-.096.283-.224.701-.146.476-.254 1.472-.592 1.665a.298.298 0 0 1-.153.039c-.1 0-.201-.038-.312-.038a.409.409 0 0 0-.127.02c-.158.05-.242.297-.409.326-.69.12-1.637.075-2.165.123-.34.03.567.698 1.473.698h.039c.188-.005.386-.013.584-.013.33 0 .658.024.927.135.265.109.576.425.572.735l-.11 9.109h1.02l-.053-10.289c0-.276.796-.464.9-.702.182-.415.09-2.247-.204-2.493a.016.016 0 0 0-.01-.004c-.132 0-.379 1.92-.766 2.333-.04.043-.118.062-.185.062-.073 0-.133-.022-.122-.062.247-.838.346-2.061-.04-2.329a.077.077 0 0 0-.043-.016zm4.272 0c-.698 0-1.31.513-1.31 1.171V15.75h.853V3.421c0-.322.284-.427.462-.427.187 0 .476.131.476.527v8.103h.851V3.521c0-.66-.652-1.271-1.332-1.271zm4.374 5.839L34.548 9.91h.752l.79-.941.797.941.775-.941.797.941.79-.941.797.941.79-.941.797.941.774-.941.798.941.797-.941.774.941.798-.941.79.941h.751l-1.541-1.82-.798.88-.774-.88-.797.88-.798-.88-.774.88-.797-.88-.79.88-.797-.88-.79.88-.797-.88-.775.88-.797-.88z"/><path d="M7.95.375c-9.625 0-9.625 17.25 0 17.25m0-17.25h39.165M7.95 17.625h39.165M54.803.375v17.25M47.115.375c9.625 0 9.625 17.25 0 17.25" fill="none" stroke="#000"/></svg>