<svg xmlns="http://www.w3.org/2000/svg" width="243.006" height="18"><path d="M7.95.375c-9.625 0-9.625 17.25 0 17.25m0 0" fill="none" stroke="#000"/><path d="M14.172 12.703c-.682.054-1.058.394-1.13 1.022.09.68.466 1.04 1.13 1.075.663-.036 1.012-.394 1.048-1.075-.053-.628-.403-.968-1.048-1.022zm.08-2.259c.484 0 .932.09 1.345.269a3.545 3.545 0 0 1 1.828 1.815c.18.403.27.83.27 1.277 0 .466-.09.901-.27 1.304a3.422 3.422 0 0 1-3.173 2.03c-.484 0-.936-.085-1.358-.255a3.235 3.235 0 0 1-1.089-.712 3.495 3.495 0 0 1-.726-1.063 3.174 3.174 0 0 1-.269-1.304c0-.448.09-.874.27-1.277a3.67 3.67 0 0 1 .725-1.076 3.41 3.41 0 0 1 2.447-1.008zm-.054-.914a4.17 4.17 0 0 0-1.667.336c-.52.224-.968.529-1.344.914a4.48 4.48 0 0 0-.9 1.345 4.071 4.071 0 0 0-.337 1.653c0 .592.112 1.143.336 1.654.224.511.524.955.9 1.331A4.267 4.267 0 0 0 14.199 18c.592 0 1.143-.112 1.654-.336a4.48 4.48 0 0 0 1.345-.9 4.21 4.21 0 0 0 .914-1.332 4.07 4.07 0 0 0 .336-1.654c0-.591-.112-1.142-.336-1.653a4.358 4.358 0 0 0-2.259-2.259 4.071 4.071 0 0 0-1.654-.336zM23.752.46q-.11 1.162-.11 2.603 0 1.442.14 2.914-.32-.17-1.001-.17-.69 0-1.001.17.15-1.472.14-2.914-.01-1.441-.11-2.602zm-.971 5.967q.68.01 1.381.36l-.18.33q-.141-.024-.265-.024-.426 0-.636.295-.12-.53-.3-.65-.18.12-.31.65-.21-.295-.637-.295-.123 0-.265.025l-.18-.33q.721-.35 1.392-.36zm0 .961q.15.12.1.35-.05.23-.1.441-.06-.21-.11-.44t.11-.35zm.912.002q.056 0 .119.008-.68 1.622-1.031 1.622-.34 0-1.051-1.622.064-.008.121-.008.366 0 .47.329.13.37.27.6.15.24.19.24.05 0 .18-.24.14-.23.26-.6.113-.329.472-.329zM21.219 0q.48 3.404-.01 6.137-.89.42-.74.71.11.22.251.22.052 0 .109-.03.87.982 1.431 2.313.22 2.193-.06 7.579 0 1.071.56 1.071h.031q.56 0 .56-1.071-.27-5.386-.06-7.579.551-1.331 1.422-2.312.056.03.108.03.142 0 .252-.22.15-.29-.73-.711-.501-2.733 0-6.137zm5.876 10.68V18h1.225v-7.32zM32.646 0L30.32 2.327v.707L33.177.177 33.354 0zm3 0L30.32 5.327v.707L36.177.177 36.354 0zm3 0L30.32 8.327v.707L39.177.177 39.354 0zM30.32 9.034zM41.646 0L30.32 11.327v.707L42.177.177 42.354 0zm3 0L30.32 14.327v.707L45.177.177 45.354 0zm3 0L30.32 17.327V18h.034L48.177.177 48.354 0zm3 0L32.823 17.823l-.177.177h.708L51.177.177 51.354 0zm1.674 1.327L35.823 17.823l-.177.177h.708L52.32 2.034v-.707zm0 3L38.823 17.823l-.177.177h.708L52.32 5.034v-.707zm0 3L41.823 17.823l-.177.177h.708l9.966-9.966v-.707zm0 3l-7.497 7.496-.177.177h.708l6.966-6.966v-.707zm0 3l-4.497 4.496-.177.177h.708l3.966-3.966v-.707zm0 3l-1.497 1.496-.177.177h.708l.966-.966v-.707zM53.646 0L52.32 1.327v.707L54.177.177l.143-.143V0zm.674 2.327l-2 2v.707l2-2v-.707zm0 3l-2 2v.707l2-2v-.707zm0 3l-2 2v.707l2-2v-.707zm0 3l-2 2v.707l2-2v-.707zm0 3l-2 2v.707l2-2v-.707zm0 3l-.497.496-.177.177h.674v-.673zM56.646 0L54.32 2.327v.707L57.177.177 57.354 0zm3 0L54.32 5.327v.707L60.177.177 60.354 0zm3 0L54.32 8.327v.707L63.177.177 63.354 0zM54.32 9.034zM65.646 0L54.32 11.327v.707L66.177.177 66.354 0zm3 0L54.32 14.327v.707L69.177.177 69.354 0zm3 0L54.32 17.327V18h.034L72.177.177 72.354 0zm3 0L56.823 17.823l-.177.177h.708L75.177.177 75.354 0zm1.674 1.327L59.823 17.823l-.177.177h.708L76.32 2.034v-.707zm0 3L62.823 17.823l-.177.177h.708L76.32 5.034v-.707zm0 3L65.823 17.823l-.177.177h.708l9.966-9.966v-.707zm0 3l-7.497 7.496-.177.177h.708l6.966-6.966v-.707zm0 3l-4.497 4.496-.177.177h.708l3.966-3.966v-.707zm0 3l-1.497 1.496-.177.177h.708l.966-.966v-.707z"/><path d="M77.646 0L76.32 1.327v.707L78.177.177l.143-.143V0zm.674 2.327l-2 2v.707l2-2v-.707zm0 3l-2 2v.707l2-2v-.707zm0 3l-2 2v.707l2-2v-.707zm0 3l-2 2v.707l2-2v-.707zm0 3l-2 2v.707l2-2v-.707zm0 3l-.497.496-.177.177h.674v-.673z"/><path d="M86.007.375v17.25M78.32.375c9.625 0 9.625 17.25 0 17.25" fill="none" stroke="#000"/><path d="M93.977.597c.269.002.505.041.692.109-.031.223-.169.569-.953.773.73-.053 1.206-.113 1.452-.307.09.2.137.427.159.556a.297.297 0 0 0 .206.237c.625.191 1.174 1.112 1.7 1.763.95 1.173 1.771 2.48 2.688 3.733-.423-.207-.845-.415-1.27-.622-1.182-.622-2.395-1.11-3.407-1.877-.588-.49-1.172-.996-1.39-1.641-.076-.497.296-1.074.767-1.279a.297.297 0 1 0-.238-.545c-.377.164-.7.458-.904.817.01-.152.032-.308.075-.448a.297.297 0 0 0 .013-.104 1.372 1.372 0 0 0-.083-.422c-.04-.109-.084-.206-.157-.459a.297.297 0 0 0-.105-.153 1.53 1.53 0 0 1 .528-.125c.042-.003.083-.003.124-.004a.258.258 0 1 0 .103-.002zm1.194 5.432c.605.466 1.253.873 1.888 1.28-.005.438.006.879.046 1.321a2.215 2.215 0 0 0-.697-.3c-.39-.636-.82-1.22-1.082-1.842a4.553 4.553 0 0 1-.155-.46zm-.25 1c.274.549.622 1.04.93 1.529-.06.04-.113.08-.155.121l-.028.027a1.713 1.713 0 0 0-.613-.454c.01-.348-.047-.768-.133-1.222zm2.881.047a25.922 25.922 0 0 1 .588.297c.78.38 1.56.772 2.35 1.148.556.67 1.156 1.293 1.734 1.92l-1.043.175-2.563-2.786a.297.297 0 0 0-.04-.036 19.147 19.147 0 0 0-1.026-.718zm-2.591 2.009c.057.066.111.14.161.222a.298.298 0 0 0 .43.087c.124-.09.2-.177.265-.244l.077 1.413c-.1-.006-.201-.013-.296-.013-.167 0-.313.022-.398.108-.1-.078-.28-.1-.504-.1-.058 0-.118.002-.18.005l.445-1.478zm-5.42.999c.452.062.687.323.705.783H89.1c0-.46.23-.721.69-.783zm7.862-2.39c.273.182.541.367.797.56l2.403 2.613h-2.456c-.171-.19-.519-.365-.776-.365a.366.366 0 0 0-.192.046 2.987 2.987 0 0 0-.256-.01c-.14 0-.286.007-.433.016l-.083-1.506c.224.115.407.282.625.542a.297.297 0 0 0 .52-.246 9.753 9.753 0 0 1-.15-1.65zm-6.24 3.745l-.266.465h-1.249l-.252-.465zm4.515 0v2.51l-1.726-2.51zM93.984 0a3.878 3.878 0 0 0-.272.01c-.694.044-1.215.325-1.408.768a.298.298 0 0 0 .34.408l.025-.006.03.007.109.029c.054.168.095.269.12.332a.541.541 0 0 1 .042.2 3.112 3.112 0 0 0-.037 1.389c.095.466.384.977.761 1.46a.295.295 0 0 0 .014.108c.183.559.396 1.318.548 2.027.152.708.233 1.387.192 1.684a.3.3 0 0 0 .223.33l.019.005-.527 1.75a1.787 1.787 0 0 0-.26-.018c-.256 0-.509.041-.712.041a.865.865 0 0 1-.183-.016.314.314 0 0 0-.068-.007c-.212 0-.657.13-.787.366h-1.1c-.061-.797-.482-1.235-1.261-1.315-.788.08-1.196.518-1.222 1.315v.572h.531l.545 1.01h1.766l.532-1.01h1.567l2.404 3.493V18h.571v-6.561h4.516v-.41l.1.109a.297.297 0 0 0 .268.092l1.74-.292a.298.298 0 0 0 .173-.492 49.17 49.17 0 0 0-.656-.716l1.656 1.078a.296.296 0 0 0 .412-.087.297.297 0 0 0-.087-.411l-1.345-.876a.292.292 0 0 0 .076-.09.315.315 0 0 0 .02-.237c-.016-.05-.034-.074-.048-.093-.055-.076-.084-.088-.123-.119a2.938 2.938 0 0 0-.131-.094c-.096-.065-.206-.137-.301-.2a4.156 4.156 0 0 1-.216-.156l-2.379-1.672-.008-.005c-.805-1.13-1.568-2.316-2.457-3.414-.433-.535-.938-1.524-1.812-1.894-.048-.262-.157-.68-.484-.997C95.047.119 94.537 0 93.984 0zm38.188 7.458v1.656c-.565 0-.848-.283-.848-.848 0-.539.283-.808.848-.808zM134.267 0c-.463 0-.855.116-1.176.35-.613.443-.919 1.09-.919 1.938v4.584c-.942 0-1.42.465-1.434 1.394 0 .942.478 1.413 1.434 1.413V18h.746V2.732c0-1.023.2-1.68.596-1.969.206-.15.476-.225.838-.225.338 0 .754.065 1.274.195a.65.65 0 0 0 .212.043c.11 0 .188-.048.232-.144.013-.162-.108-.276-.364-.343-.538-.193-1.018-.289-1.439-.289zm8.067 5.565c3.71 0 3.71-5.565 0-5.565s-3.71 5.565 0 5.565zm-1.221 4.062c-5.439 1.9-2.904 9.54 2.195 8.228 5.054-1.302 4.045-9.318-2.195-8.228m.243.698c5.417-.787 5.639 5.768 1.708 6.812-3.846 1.022-6.482-5.13-1.708-6.812m1.188 1.152c1.083-.74-.884-.487 0-.018v.018m-1.985.433c1.227-.397-.343-.795 0-.073v.073m2.993-.712v.732l.73-.244-.73-.488m-3.571 2.066c.903-.795-.595-.885-.108-.09l.108.09m2.839-.846l-.244.731.732-.487-.488-.244m-1.052.358l-.072-.017c-.668-.489-1.39 1.767.072.017m3.014-.397c-.957.56.162.703.253.703l-.253-.703m-2.938 1.502l.244.244.488-.732-.732.488m1.674-.474l-.468.019c.559.866.757.793.468-.019m-3.68 1.517c.883-.74-.434-.632-.416-.488l.415.488m1.01-.903l.221.305c.718-.215.34-.792-.22-.305m3.435.836l.244.244.488-.732-.732.488m-1.323.012c-.759-.378-.92-.27-.47.344l.47-.344m-2.58.72l.245.731.488-.732h-.732m3.246-.465l-.45.54c.107.217 1.1.145.45-.54m-1.54.71l-.243.731h.732l-.488-.732zm19.443-5.183V18h.735v-7.35zm4.37 0V18h.735v-7.35zm4.37 0V18h.736v-7.35zM197.646 0l-.64.64v.708l1.17-1.171.178-.177zm3 0l-3.64 3.64v.708l4.17-4.171.178-.177zm3 0l-6.64 6.64v.708l7.17-7.171.178-.177zm3 0l-9.64 9.64v.708L207.176.177l.178-.177zm3 0l-12.64 12.64v.708L210.176.177l.178-.177zm3 0l-15.64 15.64v.708L213.176.177l.178-.177zm3 0l-17.823 17.823-.177.177h.708L216.177.177l.177-.177zm3 0l-17.823 17.823-.177.177h.708L219.006.348V0zm.36 2.64l-15.183 15.183-.177.177h.708l14.652-14.652V2.64zm0 3l-12.183 12.183-.177.177h.708l11.652-11.652V5.64zm0 3l-9.183 9.183-.177.177h.708l8.652-8.652V8.64zm0 3l-6.183 6.183-.177.177h.708l5.652-5.652v-.707zm0 3l-3.183 3.183-.177.177h.708l2.652-2.652v-.707zm0 3l-.183.183-.177.177h.36v-.36z"/><path d="M221.006.64l-2 2v.708l2-2V.64zm0 3l-2 2v.708l2-2V3.64zm0 3l-2 2v.708l2-2V6.64zm0 3l-2 2v.708l2-2V9.64zm0 3l-2 2v.708l2-2v-.707zm0 3l-2 2V18h.348l1.652-1.652v-.707z"/><path d="M221.646 0l-.64.64v.708l1.17-1.171.178-.177zm3 0l-3.64 3.64v.708l4.17-4.171.178-.177zm3 0l-6.64 6.64v.708l7.17-7.171.178-.177zm3 0l-9.64 9.64v.708L231.176.177l.178-.177zm3 0l-12.64 12.64v.708L234.176.177l.178-.177zm3 0l-15.64 15.64v.708L237.176.177l.178-.177zm3 0l-17.823 17.823-.177.177h.708L240.177.177l.177-.177zm3 0l-17.823 17.823-.177.177h.708L243.006.348V0zm.36 2.64l-15.183 15.183-.177.177h.708l14.652-14.652V2.64zm0 3l-12.183 12.183-.177.177h.708l11.652-11.652V5.64zm0 3l-9.183 9.183-.177.177h.708l8.652-8.652V8.64zm0 3l-6.183 6.183-.177.177h.708l5.652-5.652v-.707zm0 3l-3.183 3.183-.177.177h.708l2.652-2.652v-.707zm0 3l-.183.183-.177.177h.36v-.36z"/></svg>