<svg xmlns="http://www.w3.org/2000/svg" width="282.763" height="18"><path d="M2.097 0c-.335 0-.67.026-.995.066-.447.113-.217.626.18.626a.476.476 0 0 0 .082-.008c.84.097 1.872.15 2.506.626.841.916.463 2.821.561 3.725.007.05.01 3.653.01 5.48a6.145 6.145 0 0 0-2.635-.586 6.04 6.04 0 0 0-1.187.117c-.441.231.076.528.422.528.041 0 .08-.004.115-.013 1.226.133 2.62.461 3.243 1.602.061.206.023.277-.071.277-.206 0-.68-.342-.946-.342-.014 0-.028 0-.04.003a7.535 7.535 0 0 0-1.58-.169c-.39 0-.777.031-1.15.095-.42.278.097.534.439.534a.532.532 0 0 0 .105-.01c1.251.151 2.636.49 3.243 1.633.007 1.27 0 2.11.033 3.278-.014.36.22.538.456.538.235 0 .473-.176.475-.526-.009-1.15-.091-2.161.06-3.277.304-1.253 2.477-1.445 3.827-1.754.294-.347-.285-.475-.659-.475-.055 0-.107.003-.15.008a6.823 6.823 0 0 0-.521-.02c-.882 0-1.771.175-2.557.58-.032-.755.711-1.19 1.244-1.493.84-.361 1.765-.397 2.643-.59.313-.273-.18-.501-.521-.501a.58.58 0 0 0-.125.012 6.767 6.767 0 0 0-.648-.031c-.903 0-1.805.183-2.614.582.016-2.851.062-5.61-.02-8.308-.065-.834-.546-1.6-1.354-1.849C3.388.094 2.741 0 2.097 0z"/><path d="M2.646 0L.45 2.196v.708L3.177.177 3.354 0zm3 0L.45 5.196v.708L6.177.177 6.354 0zm3 0L.45 8.196v.708L9.177.177l.172-.172V0zm.703 2.298L.45 11.196v.708l8.899-8.899v-.707zm0 3L.45 14.196v.708l8.899-8.899v-.707zm0 3L.45 17.196v.708l8.899-8.899v-.707zm0 3l-6.526 6.525-.177.177h.708l5.995-5.995v-.707zm0 3l-3.526 3.525-.177.177h.708l2.995-2.995v-.707zm0 3l-.526.525-.177.177h.703v-.702zM11.383.263L9.35 2.298v.707L11.383.97V.263zm0 3L9.35 5.298v.707l2.034-2.035v-.707zm0 3L9.35 8.298v.707l2.034-2.035v-.707zm0 3L9.35 11.298v.707l2.034-2.035v-.707zm0 3L9.35 14.298v.707l2.034-2.035v-.707zm0 3L9.35 17.298V18h.005l2.03-2.03v-.707z"/><path d="M26.092 2.99q.557 0 1.086.606-4.368 5.2-5.46 5.81-.814.457-1.434.457-.21 0-.399-.053-.74-.208-1.586-.234h-.042q-.828 0-1.817.988h-.13q.702-1.638 1.963-2.34 1.261-.702 7.397-5.148.213-.085.422-.085zM18.36.622q.066 0 .133.01v6.683Q16.44 8.51 15.66 10.668q1.196-8.268 1.677-9.204Q17.77.62 18.361.62zM13.005 11.09q-.08 0-.153.138-.13.247.234.689.208-.546.052-.741-.069-.086-.133-.086zm.037-.372q.153 0 .33.237.39.52-.234 2.08-.702-1.352-.429-1.976.149-.34.333-.34zm6.804 2.577v.39q-.286-.026-.442-.182.052-.078.208-.208zm.598.884l2.418.338.494.884q-.832-.234-1.833-.624-1-.39-1.079-.598zm-5.33-.364l.468.234.156 1.118-.416 1.274h-.65l.442-1.274v-1.352zm1.118.39l.442.13.156.832-.416 1.274h-.65l.442-1.274.026-.962zm1.534.156l.156.806-.416 1.274h-.65l.442-1.274v-.78l.468-.026zm-.994-3.234q.415 0 .89.1 1.404.3 1.768 1.418h1.092l.416-.676q5.512 1.274 6.214 4.602-1.508-.832-3.172-1.118l-.728-1.456-2.886-.39.078-.702h-.988q-1.092.9-2.228.9-.243 0-.489-.042-1.391-.234-1.82-.95-.429-.714.455-1.3.585-.386 1.398-.386zM18.617 0q-.947 0-1.488.658-.663.806-1.235 4.238l-.91 5.954q-.442.468-.676.52h-.312q-.026-.65-.494-1.196-.416-3.978.364-6.968l-.312-.598q-1.118 3.38-.546 7.592h-.078q-1.794-4.03-.52-7.592l-.312-.468q-1.664 3.796.364 8.242-.572 1.248-.117 2.054.455.806.559 1.508l.182.13q.702-1.04.806-1.794h.26q.026.598.338 1.248l.182 1.638-.442 1.274h-2.262v.624h6.526v-.624h-.546l.416-1.274.026-.962q.468-.156.702-.364.338.312.754.312-.026.26.104.442 1.04.806 3.718 1.404l.91 1.768q0-.434.27-.434.085 0 .198.044l-.728-1.3q1.508.338 2.288.858.416.442-.052 1.066 1.04-.442 1.17-1.248-.416-3.926-7.046-5.46l-.468.78h-.416q-.338-1.092-2.678-1.508.522-.388 1.285-.388.414 0 .9.115.491.116.96.116.844 0 1.613-.376 1.196-.585 6.084-6.461-.9-1.136-1.905-1.136-.329 0-.669.122L19.066 7.08V.034Q18.831 0 18.617 0z"/><path d="M37.458.375c-9.625 0-9.625 17.25 0 17.25m0 0" fill="none" stroke="#000"/><path d="M43.68 12.703c-.681.054-1.058.394-1.13 1.022.09.68.467 1.04 1.13 1.075.663-.036 1.013-.394 1.049-1.075-.054-.628-.404-.968-1.049-1.022zm.08-2.259c.485 0 .933.09 1.345.269a3.545 3.545 0 0 1 1.828 1.815c.18.403.27.83.27 1.277 0 .466-.09.901-.27 1.304a3.422 3.422 0 0 1-3.173 2.03c-.483 0-.936-.085-1.357-.255a3.235 3.235 0 0 1-1.09-.712 3.495 3.495 0 0 1-.725-1.063 3.174 3.174 0 0 1-.27-1.304c0-.448.09-.874.27-1.277a3.67 3.67 0 0 1 .726-1.076c.304-.313.667-.56 1.089-.739.421-.18.874-.269 1.358-.269zm-.053-.914c-.592 0-1.147.112-1.667.336-.52.224-.968.529-1.345.914a4.48 4.48 0 0 0-.9 1.345 4.071 4.071 0 0 0-.337 1.653c0 .592.112 1.143.336 1.654.225.511.525.955.901 1.331A4.267 4.267 0 0 0 43.707 18c.591 0 1.143-.112 1.654-.336a4.48 4.48 0 0 0 1.344-.9 4.21 4.21 0 0 0 .914-1.332 4.07 4.07 0 0 0 .336-1.654c0-.591-.112-1.142-.336-1.653a4.358 4.358 0 0 0-2.258-2.259 4.071 4.071 0 0 0-1.654-.336zm22.032 4.167q-2.48 3.372-7.138 3.463-4.626-.091-7.107-3.463zm-15.784-.8Q52.497 17.98 58.601 18q6.136-.02 8.677-5.103zM71.353 1.124q2.015.293 2.106 1.842v11.177q-.942-1.124-3.381-1.58l1.275-11.44zM70.786 0l-1.508 13.363q3.36.385 4.18 2.4V18h1.003V2.966q0-2.51-3.675-2.966zm14.498.96q3.107 0 6.59 1.501-3.483 1.46-6.59 1.46-3.087 0-6.591-1.46Q82.197.96 85.283.96zm0-.96q-3.838 0-8.823 2.44 4.985 2.42 8.823 2.42 3.837 0 8.822-2.42Q89.142 0 85.284 0zM85 11.024l-.02.01 3.624 6.946h1.367l-3.624-6.956zm-3.037.01l-1.367.01L84.22 18l1.367-.01-3.624-6.955zm21.791-7.767q.576 0 .448.554l-1.321 5.39h-1.108l1.321-5.368q.107-.576.66-.576zm1.705 0q.532 0 .426.554l-1.278 5.39h-1.108l1.278-5.368q.128-.576.682-.576zm1.832 0q.597 0 .448.554l-1.3 5.39h-1.108l1.278-5.368q.15-.576.682-.576zm1.79 0q.49 0 .426.554l-1.3 5.39H107.1l1.3-5.368q.106-.576.682-.576zm1.79 0q.51 0 .447.554l-1.321 5.39h-1.108l1.3-5.368q.17-.576.681-.576zm-.768 6.605q.533 0 .533.447 0 .448-.511.448h-8.48q-.532 0-.532-.448 0-.447.532-.447zm-9.97.895q-1.79 2.79-2.301 5.54-.042.916-.552.916h-.024q-.532-.022-.34-.938.894-3.75 3.217-5.518zm11.483 0q2.322 1.768 3.217 5.518.192.916-.34.937h-.024q-.51 0-.552-.916-.511-2.748-2.301-5.54zm-4.41-8.075q-2.45 0-4.112.213-.66.085-.81.938l-1.235 5.22q-.17.49-.789.809-3.472 2.45-4.154 6.775Q96.212 18 97.24 18h.016q1.044-.01 1.236-1.332 1.023-3.941 1.875-5.198h1.023v.682h1.619v-.682h5.71v.682h1.619v-.682h1.022q.874 1.257 1.897 5.198.191 1.321 1.235 1.332h.016q1.029 0 1.135-1.353-.682-4.325-4.155-6.775h.022q-.618-.34-.64-.554l1.236-5.475q.107-.831-.703-.96-1.96-.19-4.197-.19zm13.303 7.29c-.112 0-.223.01-.334.02-1.61.172-2.754 1.802-2.501 3.381.111 1.175.84 1.833 1.64 2.48 2.38 1.459 1.711.922 4.11 2.137l.385-.719c-2.855-1.336-3.199-1.549-4.09-2.136-.729-.587-1.306-1.235-1.255-2.217-.02-.679.384-1.377.84-1.711a2.18 2.18 0 0 1 1.286-.436c.344 0 .668.081.951.284.72.354 1.114 1.529.588 2.268a1.396 1.396 0 0 1-1.114.597 1.03 1.03 0 0 1-.607-.192c-.365-.203-.638-.911-.264-1.306-.172-.183-.415-.405-.597-.405-.121 0-.213.09-.273.303-.405.972.243 2.076 1.215 2.34.172.05.344.08.516.08 1.114 0 2.146-.931 2.146-2.085.101-1.347-.972-2.582-2.318-2.663a3.272 3.272 0 0 0-.324-.02zM135.07.924c.296 0 .475.05.567.103.27.172.141.583.098.84h-1.33c-.032-.263-.177-.664.097-.84.093-.053.271-.103.568-.103zm-7.39 1.552V3.4h-1.262v-.924zm6.556 0V3.4h-6.252v-.924zm1.52 0V3.4h-1.216v-.924zm6.105 0V3.4h-5.801v-.924zm1.631 0V3.4h-1.328v-.924zM132.4 0l-.43.431 1.44 1.436h-7.6v2.142h18.292V1.867h-7.37l1.44-1.436-.43-.431-1.331 1.327c-.08-.804-.631-.989-1.34-1.012-.758.02-1.222.192-1.34 1.012L132.4 0zm-6.557 10.67V18h1.225v-7.33zm8.424.01V18h1.225v-7.32zm8.575 0V18h1.225v-7.32z"/><path d="M153.789.375v17.25M146.101.375c9.625 0 9.625 17.25 0 17.25" fill="none" stroke="#000"/><path d="M161.758.597c.269.002.505.041.692.109-.03.223-.168.569-.953.773.73-.053 1.207-.113 1.453-.307.089.2.137.427.158.556a.297.297 0 0 0 .206.237c.625.191 1.174 1.112 1.701 1.763.95 1.173 1.77 2.48 2.687 3.733-.423-.207-.845-.415-1.27-.622-1.182-.622-2.394-1.11-3.406-1.877-.59-.49-1.172-.996-1.391-1.641-.076-.497.296-1.074.767-1.279a.297.297 0 1 0-.238-.545 1.957 1.957 0 0 0-.904.817c.01-.152.032-.308.075-.448a.297.297 0 0 0 .013-.104 1.372 1.372 0 0 0-.082-.422c-.04-.109-.085-.206-.158-.459a.297.297 0 0 0-.104-.153c.14-.062.315-.112.527-.125.043-.003.083-.003.125-.004a.258.258 0 1 0 .102-.002zm1.194 5.432c.605.466 1.253.873 1.888 1.28-.005.438.006.879.047 1.321a2.215 2.215 0 0 0-.697-.3c-.391-.636-.82-1.22-1.083-1.842a4.553 4.553 0 0 1-.155-.46zm-.249 1c.273.549.621 1.04.928 1.529-.058.04-.112.08-.154.121l-.027.027a1.713 1.713 0 0 0-.614-.454c.01-.348-.047-.768-.133-1.222zm2.88.047a25.922 25.922 0 0 1 .588.297c.78.38 1.56.772 2.35 1.148.556.67 1.156 1.293 1.734 1.92l-1.043.175-2.563-2.786a.297.297 0 0 0-.04-.036 19.147 19.147 0 0 0-1.025-.718zm-2.591 2.009c.058.066.112.14.162.222a.298.298 0 0 0 .429.087c.124-.09.2-.177.265-.244l.077 1.413c-.1-.006-.2-.013-.296-.013-.166 0-.313.022-.397.108-.1-.078-.28-.1-.505-.1-.057 0-.118.002-.18.005l.445-1.478zm-5.419.999c.452.062.686.323.704.783h-1.395c0-.46.23-.721.691-.783zm7.861-2.39c.274.182.542.367.798.56l2.402 2.613h-2.456c-.17-.19-.518-.365-.776-.365a.366.366 0 0 0-.192.046 2.987 2.987 0 0 0-.256-.01c-.14 0-.285.007-.433.016l-.083-1.506c.225.115.407.282.626.542a.297.297 0 0 0 .52-.246 9.753 9.753 0 0 1-.15-1.65zm-6.24 3.745l-.266.465h-1.249l-.252-.465zm4.516 0v2.51l-1.727-2.51zM161.766 0a3.878 3.878 0 0 0-.273.01c-.694.044-1.215.325-1.408.768a.298.298 0 0 0 .341.408l.025-.006.03.007.108.029c.054.168.096.269.12.332a.541.541 0 0 1 .042.2 3.112 3.112 0 0 0-.037 1.389c.095.466.384.977.761 1.46a.295.295 0 0 0 .014.108c.183.559.396 1.318.548 2.027.153.708.234 1.387.192 1.684a.3.3 0 0 0 .223.33l.02.005-.528 1.75a1.787 1.787 0 0 0-.259-.018c-.256 0-.51.041-.712.041a.865.865 0 0 1-.184-.016.314.314 0 0 0-.068-.007c-.212 0-.656.13-.787.366h-1.1c-.061-.797-.482-1.235-1.26-1.315-.789.08-1.196.518-1.223 1.315v.572h.531l.545 1.01h1.767l.53-1.01h1.568l2.404 3.493V18h.571v-6.561h4.517v-.41l.1.109a.297.297 0 0 0 .267.092l1.74-.292a.298.298 0 0 0 .173-.492 49.17 49.17 0 0 0-.656-.716l1.656 1.078a.296.296 0 0 0 .412-.087.297.297 0 0 0-.087-.411l-1.345-.876a.292.292 0 0 0 .076-.09.315.315 0 0 0 .02-.237c-.016-.05-.034-.074-.048-.093-.055-.076-.084-.088-.123-.119a2.938 2.938 0 0 0-.131-.094c-.096-.065-.206-.137-.301-.2a4.156 4.156 0 0 1-.216-.156l-2.379-1.672-.008-.005c-.805-1.13-1.568-2.316-2.457-3.414-.433-.535-.937-1.524-1.812-1.894-.048-.262-.156-.68-.483-.997-.353-.344-.864-.463-1.416-.463zm38.187 7.458v1.656c-.565 0-.848-.283-.848-.848 0-.539.283-.808.848-.808zM202.048 0c-.463 0-.855.116-1.176.35-.612.443-.919 1.09-.919 1.938v4.584c-.942 0-1.42.465-1.433 1.394 0 .942.477 1.413 1.433 1.413V18h.747V2.732c0-1.023.198-1.68.596-1.969.205-.15.475-.225.838-.225.337 0 .754.065 1.273.195a.65.65 0 0 0 .212.043c.111 0 .189-.048.232-.144.014-.162-.108-.276-.363-.343-.539-.193-1.019-.289-1.44-.289zm8.067 5.565c3.71 0 3.71-5.565 0-5.565s-3.71 5.565 0 5.565zm-1.221 4.062c-5.438 1.9-2.903 9.54 2.195 8.228 5.054-1.302 4.046-9.318-2.195-8.228m.243.698c5.418-.787 5.64 5.768 1.708 6.812-3.846 1.022-6.482-5.13-1.708-6.812m1.189 1.152c1.082-.74-.885-.487 0-.018v.018m-1.986.433c1.228-.397-.343-.795 0-.073v.073m2.993-.712v.732l.731-.244-.73-.488m-3.572 2.066c.903-.795-.595-.885-.108-.09l.108.09m2.84-.846l-.245.731.732-.487-.488-.244m-1.052.358l-.072-.017c-.668-.489-1.39 1.767.072.017m3.014-.397c-.956.56.162.703.253.703l-.253-.703m-2.938 1.502l.244.244.488-.732-.732.488m1.675-.474l-.469.019c.559.866.757.793.469-.019m-3.681 1.517c.883-.74-.434-.632-.416-.488l.416.488m1.01-.903l.22.305c.719-.215.34-.792-.22-.305m3.435.836l.244.244.488-.732-.732.488m-1.323.012c-.758-.378-.92-.27-.47.344l.47-.344m-2.579.72l.244.731.488-.732h-.732m3.246-.465l-.45.54c.107.217 1.1.145.45-.54m-1.539.71l-.244.731h.732l-.488-.732zM219.77 0c-.916.012-1.756.235-2.39.752-.658.522-1.075 1.333-1.07 2.325v4.956h.682V3.071c0-.81.305-1.386.81-1.79.488-.388 1.175-.6 1.95-.6h.094c.77 0 1.462.212 1.95.6.505.404.81.98.81 1.79v4.962h.681V3.077c.006-.992-.41-1.803-1.069-2.325-.634-.517-1.474-.74-2.39-.752zm0 9.967c-.916.011-1.756.235-2.39.751-.658.523-1.075 1.333-1.07 2.326V18h.682v-4.962c0-.81.305-1.386.81-1.791.488-.388 1.175-.6 1.95-.6h.094c.77 0 1.462.212 1.95.6.505.405.81.98.81 1.79V18h.681v-4.956c.006-.993-.41-1.803-1.069-2.326-.634-.516-1.474-.74-2.39-.751z"/><path d="M218.646 0l-2.335 2.336v.707l2.866-2.866.177-.177zm3 0l-5.335 5.336v.707l5.866-5.866.177-.177zm1.641 1.36l-6.976 6.976v.707l6.976-6.977V1.36zm0 3l-6.976 6.976v.707l6.976-6.977V4.36zm0 3l-6.976 6.976v.707l6.976-6.977V7.36zm0 3l-6.976 6.976V18h.043l6.933-6.934v-.707zm0 3l-4.464 4.463-.177.177h.708l3.933-3.934v-.707zm0 3l-1.464 1.463-.177.177h.708l.933-.934v-.707zM224.646 0l-1.359 1.36v.706l1.89-1.89.177-.176zm.71 2.29l-2.069 2.07v.706l2.07-2.069V2.29zm0 3l-2.069 2.07v.706l2.07-2.069V5.29zm0 3l-2.069 2.07v.706l2.07-2.069V8.29zm0 3l-2.069 2.07v.706l2.07-2.069v-.707zm0 3l-2.069 2.07v.706l2.07-2.069v-.707zm0 3l-.533.533-.177.177h.708l.002-.003v-.707z"/><path d="M225.287 1.298V8.65h.735V1.3zm4.37 0V8.65h.736V1.3zm4.371 0V8.65h.735V1.3zm-8.741 9.352V18h.735v-7.35zm4.37 0V18h.736v-7.35zm4.371 0V18h.735v-7.35z"/><path d="M227.646 9l-2.359 2.36v.706l2.89-2.89.177-.176zm3 0l-5.359 5.36v.706l5.89-5.89.177-.176zm3 0l-8.359 8.36V18h.067l8.823-8.823.177-.177zm1.117 1.883l-6.94 6.94-.177.177h.708l6.41-6.41v-.707zm0 3l-3.94 3.94-.177.177h.708l3.41-3.41v-.707zm0 3l-.94.94-.177.177h.708l.41-.41v-.707zm2-16.883v.59l.414-.413.177-.177zm2.883 0l-2.883 2.883v.707l3.414-3.413.177-.177zm3 0l-5.883 5.883v.707l6.414-6.413.177-.177zm3 0l-8.883 8.883v.707l9.414-9.413.177-.177zm-8.883 9.59zM248.646 0l-11.883 11.883v.707L249.177.177l.177-.177zm3 0l-14.883 14.883v.707L252.177.177l.177-.177zm3 0l-17.823 17.823-.06.06V18h.59L255.178.177l.177-.177zm3 0l-17.823 17.823-.177.177h.708L258.177.177l.177-.177zm1.117 1.883l-15.94 15.94-.177.177h.708l15.41-15.41v-.707zm0 3l-12.94 12.94-.177.177h.708l12.41-12.41v-.707zm0 3l-9.94 9.94-.177.177h.708l9.41-9.41v-.707zm0 3l-6.94 6.94-.177.177h.708l6.41-6.41v-.707zm0 3l-3.94 3.94-.177.177h.708l3.41-3.41v-.707zm0 3l-.94.94-.177.177h.708l.41-.41v-.707z"/><path d="M260.646 0l-1.883 1.883v.707l2-2V0zm.117 2.883l-2 2v.707l2-2v-.707zm0 3l-2 2v.707l2-2v-.707zm0 3l-2 2v.707l2-2v-.707zm0 3l-2 2v.707l2-2v-.707zm0 3l-2 2v.707l2-2v-.707z"/><path d="M260.763 0v.59l.414-.413.177-.177zm2.883 0l-2.883 2.883v.707l3.414-3.413.177-.177zm3 0l-5.883 5.883v.707l6.414-6.413.177-.177zm3 0l-8.883 8.883v.707l9.414-9.413.177-.177zm-8.883 9.59zM272.646 0l-11.883 11.883v.707L273.177.177l.177-.177zm3 0l-14.883 14.883v.707L276.177.177l.177-.177zm3 0l-17.823 17.823-.06.06V18h.59L279.178.177l.177-.177zm3 0l-17.823 17.823-.177.177h.708L282.177.177l.177-.177zm1.117 1.883l-15.94 15.94-.177.177h.708l15.41-15.41v-.707zm0 3l-12.94 12.94-.177.177h.708l12.41-12.41v-.707zm0 3l-9.94 9.94-.177.177h.708l9.41-9.41v-.707zm0 3l-6.94 6.94-.177.177h.708l6.41-6.41v-.707zm0 3l-3.94 3.94-.177.177h.708l3.41-3.41v-.707zm0 3l-.94.94-.177.177h.708l.41-.41v-.707z"/></svg>