<svg xmlns="http://www.w3.org/2000/svg" width="77.726" height="18"><path d="M3.46.474c.693 0 1.247.2 1.634.479.006.053.02.107.009.16-.05.248-.195.477-.396.63-.316.207-.697.267-1.057.356-.09.01-.019.031.031.04.23.04.707.099.971.099l.052-.001c.278-.032.54-.148.766-.311.079-.067.147-.15.205-.236.147.346.227.713.26.917.018.11.096.2.202.233 1.139.349 2.038 1.91 2.88 2.949 1.729 2.137 3.199 4.526 4.892 6.76-.937-.456-1.87-.916-2.81-1.374-1.92-1.01-3.92-1.816-5.604-3.09l-.008-.008c-.97-.808-1.963-1.66-2.339-2.793C3 4.364 4.905 2.707 4.69 2.638a.207.207 0 0 0-.064-.01c-.458 0-1.753 1.128-2.019 2.202-.003-.014-.01-.03-.014-.045-.073-.356-.154-1.256.068-1.98a.29.29 0 0 0 .01-.103 1.968 1.968 0 0 0-.123-.634c-.063-.17-.139-.344-.26-.765-.031-.108-.142-.328-.208-.345.186-.138.375-.28.645-.375a.434.434 0 0 0-.132.314c0 .23.164.415.365.415.2 0 .364-.186.364-.415V.894a.411.411 0 0 0-.255-.39c.053-.007.096-.019.154-.022.081-.006.16-.008.238-.008zm.67 7.763c.065.065.135.124.202.187.214.78.412 1.64.692 2.305.483 1.145 1.216 2.141 1.84 3.154a1.814 1.814 0 0 0-.385.27 6.831 6.831 0 0 0-.199.193 2.61 2.61 0 0 0-1.186-.897c.045-.723-.108-1.712-.34-2.787a34.903 34.903 0 0 0-.624-2.425zm1.006.908c1.149.945 2.428 1.738 3.676 2.54-.018.91-.018 1.778.084 2.675a3.411 3.411 0 0 0-1.437-.736c-.02 0-.037.012-.057.012-.649-1.063-1.383-2.06-1.837-3.134-.156-.37-.293-.85-.429-1.357zm.407 5.254a2.5 2.5 0 0 1 .44.541.3.3 0 0 0 .257.14.29.29 0 0 0 .17-.053c.215-.156.347-.324.476-.446.047-.045.097-.08.148-.117l.149 2.722c-.213-.014-.435-.035-.637-.035-.264 0-.495.036-.633.172-.169-.134-.497-.164-.89-.164-.102 0-.207.002-.316.004l.836-2.764zM6.7 9.574c1.354.787 2.784 1.414 4.135 2.125a.244.244 0 0 0 .006.003c1.295.631 2.586 1.28 3.894 1.904.984 1.189 2.052 2.295 3.078 3.42l-2.15.362-4.267-4.635a.288.288 0 0 0-.037-.036C9.861 11.58 8.208 10.635 6.7 9.574zM3.526 0c-.135 0-.273.005-.411.013C2.03.083 1.242.54.973 1.157c-.04.093-.146.314-.007.314a2.35 2.35 0 0 1 .341-.028c.418 0 .38.172.47.194.09.282.29.846.303 1.068-.244.86-.153 1.763-.064 2.198.15.732.63 1.584 1.261 2.38a.285.285 0 0 0 0 .166 35.3 35.3 0 0 1 .903 3.336c.251 1.168.393 2.277.317 2.823a.294.294 0 0 0 .221.328c.045.011.084.031.127.045l-.928 3.079a2.847 2.847 0 0 0-.593-.055c-.381 0-.756.05-1.064.05-.125 0-.24-.008-.34-.032a.546.546 0 0 0-.125-.012c-.436 0-1.428.306-1.34.879.15-.128.257-.159.375-.159.11 0 .23.027.405.027h.027c.254-.004.697-.083 1.053-.083.18 0 .338.02.438.08.236-.01.45-.013.649-.013.85 0 1.447.07 2.5.075a89.565 89.565 0 0 0 2.974-.079c.45.003.697.054.922.054h.04c.134-.004.265-.057.48-.057.123 0 .273.017.468.07-.25-.341-.877-.685-1.33-.685a.591.591 0 0 0-.302.071 5.081 5.081 0 0 0-.508-.022c-.22 0-.448.01-.678.02l-.157-2.83c.487.203.857.517 1.281 1.021a.295.295 0 0 0 .513-.246c-.192-1.039-.213-2.019-.202-3.06.54.354 1.072.713 1.576 1.094l4.36 4.738a.29.29 0 0 0 .263.09c.95-.159 1.9-.315 2.849-.474a.294.294 0 0 0 .23-.193.298.298 0 0 0-.06-.297c-.741-.83-1.508-1.631-2.25-2.445 1.269.78 2.875 1.755 3.08 1.755.022 0 .027-.013.012-.04-.094-.163-.9-.755-1.775-1.373.14.058.276.12.415.177l.017.01c.103.035.16.059.27.062a.286.286 0 0 0 .108-.016.317.317 0 0 0 .188-.152.32.32 0 0 0 .023-.238c-.017-.05-.038-.077-.054-.098-.061-.085-.103-.109-.162-.154a4.553 4.553 0 0 0-.205-.149c-.153-.105-.336-.223-.493-.328a4.992 4.992 0 0 1-.328-.233.307.307 0 0 0-.028-.025l-3.892-2.736c-.008-.006-.02-.001-.028-.006-1.333-1.869-2.588-3.825-4.046-5.627-.744-.92-1.598-2.528-2.985-3.064-.067-.396-.218-1.127-.755-1.649C5.277.26 4.618.056 3.877.011A5.728 5.728 0 0 0 3.526 0zM25.45 4.723q.043 0 .09.004.59.042 1.279.45-.703.435-1.286.47-.038.003-.074.003-.51 0-.496-.474-.013-.453.487-.453zm.002 2.798q.042 0 .088.003.59.043 1.279.464-.703.422-1.286.457-.04.003-.076.003-.507 0-.494-.46-.013-.467.49-.467zm-.054-3.26q-.039 0-.076.002-.753.028-.851.913.126.95.82.95h.01q.703-.008 1.982-.514h8.14q.999.085 1.006.935.007.85-1.006 1.02h-8.126q-1.176-.5-1.916-.5h-.06q-.752.022-.85.921.126.935.82.935h.01q.703-.007 1.982-.499h3.388q-1.743 2.32-2.924 4.078-.577.45-.97.548-.169.098-1.11.169-.816.056-.816.28l.014.015q0 .155 1.785.21.211-.084.535-.084.52.07.66.07h.014q.296 0 .436-.168.14 0 .211-.66 0-.17 1.09-1.4t1.244-1.82q0-.155.605-.225.154 0 .963.949.808.949 1.652 2.34 0 .057-.211.085-.506.337-.83.38-1.082.182-1.082.407v.028q0 .085 1.237.113l.928-.085.97.085q.323-.042.323-.267 0-.24-.225-.549-.45-.562-.913-1.476-.999-2.08-1.983-2.545-.408-.464-.619-.492h3.364q1.467 0 2.014-.907.556-.92 0-1.849-.53-.887-1.93-.887l-.13.002h-7.676q-1.162-.508-1.899-.508zm16.178.293c-.203.097-.45.367-.075.412.18-.007.592-.195.517-.367a.166.166 0 0 1-.118.05c-.106 0-.215-.095-.324-.095zm-1.478.067c-.248.06-.376.33-.06.39l.016.001c.181 0 .676-.22.269-.27-.068-.046-.135-.12-.225-.12zm1.973-1.883c.443.517.833 1.118.908 1.808.075.495.097.99.172 1.478-.352-.03-.247-.577-.18-.84.06-.518-.217-.998-.412-1.456-.135-.247-.263-.638-.608-.645-.383.067-.63.39-.878.668-.255-.255-.525-.533-.878-.638a.177.177 0 0 0-.06-.01c-.08 0-.172.035-.215.035-.037 0-.036-.026.042-.123.048-.168.147-.218.27-.218.178 0 .407.106.599.106a.42.42 0 0 0 .084-.008 2.801 2.801 0 0 0 1.156-.158zm-.12.57c.293.075.36.48.503.72.18.42.397.878.255 1.351-.113.225.03.51.015.675-.25.176-.47.547-.802.547a.474.474 0 0 1-.114-.014c-.33-.067-.495-.383-.75-.533-.185.178-.294.548-.598.548a.464.464 0 0 1-.137-.022c-.278-.06-.646-.03-.728-.368-.143-.345-.158-.728-.18-1.103a.243.243 0 0 0 .045.005c.152 0 .166-.177.18-.328.058-.22.215-.321.39-.321.118 0 .244.046.353.134.127.142.517.255.435.48-.038.135-.083.277-.128.42l.315.42c.03-.217.353-.397.166-.615-.03-.098-.143-.225-.128-.3.135-.24.315-.45.525-.63a.241.241 0 0 1 .172-.077c.201 0 .404.263.579.287.172-.188-.015-.263-.188-.36a.526.526 0 0 0-.365-.147.602.602 0 0 0-.49.266c-.143.086-.242.371-.367.371-.04 0-.082-.028-.129-.1-.229-.184-.503-.39-.804-.39a.642.642 0 0 0-.134.014c-.212.044-.403.474-.419.474-.008-.353.157-.669.254-1.014a.459.459 0 0 1 .447-.357c.13 0 .261.055.356.177.224.083.387.475.597.475a.2.2 0 0 0 .116-.04c.233-.247.42-.54.758-.645zm-1.066 5.207c.953.983 1.831 3.475 2.056 4.495-.367-.3-.87-.495-.983-.683-.12-.195-.45-2.093-1.073-3.812zm3.392-1.785c1.8 1.035 4.937 6.13 5.605 6.948-1.125-.713-2.236-1.433-3.444-2.019-1.696-.832-3.144-2.183-4.525-3.444 1.14-.382 1.959-1.028 2.364-1.485zm-1.868 6.468c.24.142.457.337.72.442-.158.39-.255.826-.578 1.133-.06.098-.147.129-.246.129-.17 0-.378-.092-.551-.092a.44.44 0 0 0-.036.001c.21-.525.526-.758.69-1.613zm.51-7.024c.045.094.103.125.165.125.08 0 .168-.053.24-.087.18.127.803.112.435.383-.232.315-1.476 1.174-2.339 1.326-.373.065.253.655.456.865 1.17 1.05 2.318 2.16 3.722 2.918.878.496 1.8.938 2.648 1.486.406.585.886 1.126 1.193 1.771-.307.09-.607.218-.922.293a2.168 2.168 0 0 1-.527.061c-.496 0-.994-.147-1.214-.384-.406-.428-.848-2.251-1.08-2.919-.034-.075-.08-.1-.132-.1-.101 0-.219.099-.277.099a.03.03 0 0 1-.027-.014.293.293 0 0 0-.29-.282c-.131 0-.254.096-.235.297-.045.473-.135.946-.36 1.373-.028.073-.086.101-.162.101-.213 0-.57-.22-.814-.28.098-.579-.69-3.535-3.001-6.011-.081-.088-.433-.459-.402-.459.003 0 .012.005.026.016.119.031.252.052.384.052.253 0 .501-.078.63-.314.019-.06.043-.082.072-.082.103 0 .258.3.423.3a.69.69 0 0 0 .385.115.79.79 0 0 0 .583-.266c.142-.128.277-.255.42-.383zm-.78-3.924a2.79 2.79 0 0 1-1.02.21c-.054 0-.107-.003-.159-.007a.603.603 0 0 1-.107.009c-.252 0-.524-.136-.768-.136a.466.466 0 0 0-.265.074c-.413.6-.788 1.268-.833 2.011-.083 1.426-.045 1.92 1.08 3.091.443 1.006 1.269 4.285 1.516 5.178.27.255-.337 1.65-.593 1.996-.138.191-.504.2-.897.2h-.129c-.353 0-.711.008-.932.145-.21.135-.285.638-.165.705.112-.172.338-.405.495-.427-.15.157.375.082.488.12.303.005.61.03.918.03.15 0 .298-.006.448-.023.067-.03.14-.075.171-.075.025 0 .025.027-.021.113.212.055.45.083.684.083.525 0 1.022-.14 1.131-.42.226-.414.436-.849.586-1.299.191.04.432.176.625.176a.284.284 0 0 0 .155-.04c.21-.144.428-.811.548-1.254.011-.046.074-.069.137-.069.06 0 .122.021.14.061.226.45.6 1.831.961 2.41.272.427.93.638 1.631.638.442 0 .9-.083 1.288-.249.488-.21.848-.165.743-.435-.165-.45-.45-.878-.75-1.26.435.27.87.547 1.305.817.036.131.126.183.218.183.178 0 .362-.193.18-.385-1.704-2.461-4.412-6.656-6.288-8.014a2.525 2.525 0 0 0-1.043-.563c-.128-.33-.09-.773-.165-1.148-.075-.743-.526-1.973-1.314-2.446zm14.656 1.344l-.114.03q-.08-.015-.148-.015-.068 0-.125.016-.114.038-.137.083-.022.046-.075.084l.038.045.06-.03q.048.022.102.022.135 0 .308-.136l.114-.015-.023-.084zm.555-1.086q.41 0 .577.418.182.47.007.805-.146.267-.33.267-.046 0-.095-.016-.129-.046-.076-.13.106-.098.03-.258.076-.243.016-.357-.061-.166-.188-.166-.046 0-.1.022-.1.06-.13.13-.255-.058-.458-.058-.25 0-.423.088.038-.304.289-.486.25-.175.76-.25.063-.01.121-.01zm-3.857 3.827q.941.592 1.602.805l.326.084q-.326.129-1.541.531-.13-.114-.35-.13l-.212-1.183q.099-.03.175-.107zm3.786-3.126q.064 0 .086.082.045.129-.015.318.045.145-.038.152-.014.003-.027.003-.067 0-.08-.071-.038.084.236.425.265.35.79.858.523.516.576 2.878l-1.055.531q-.213-1.404-.987-2.407-.19-.212-.099-.402.099-.182.653-.478.274-.114.076-.274-.19-.16-.243-.341-.129 0-.273.114-.238.119-.337.119-.02 0-.035-.006-.084-.03-.099-.144l.114-.114q.053-.045 0-.083l-.228.053q.038-.198-.098-.213-.048.031-.08.031-.037 0-.05-.046-.03-.099.054-.288.045-.183.144-.281.091-.084.234-.084h.024q.053.003.105.003.105 0 .206-.01l-.015-.084q-.057.008-.123.008-.067 0-.143-.008-.035-.004-.068-.004-.222 0-.334.179-.015-.114 0-.16.192-.134.46-.134.188 0 .413.066v.099q.034.007.063.007.028 0 .051-.007 0-.243.084-.274.032-.013.058-.013zm1.703 4.986q.44.775.433 1.375-.008.6-.122 1.928l-1.928-.015.44-2.771 1.177-.517zM57.416 2.25h-.028q-.524.016-.965.274-.486.258-.47 1.01.038.205-.023.402-.053.19-.038.387.032.082.104.082.028 0 .063-.013.035-.016.057-.016.051 0 .019.091-.03.016-.015.054.01.02.033.02.012 0 .027-.005-.042.107.022.107h.009l.012-.002q.057 0 .064.07.007.083.09.174.034.033.1.033.104 0 .288-.079l.273-.144q.023.069.099.16-.645.197-.941.729-.433.523-.707 1.085-.653-.19-1.928-.729-.114-.159-.372-.205l-.327-1.753q-.098-.547.259-.972l-.243-.175q-.471.402-.32 1.23l.29 1.67-.259.016q-.03.129.13.19-.031.5.257.523l.213 1.162q-.167.03-.327.053-.015.144.183.19-.067.486.268.486h.02l.03.296.342-.068-.068-.312q.083-.045.167-.076 1.632-.197 2.02-.584.523-.813.766-1.26.532.432.874 2.103l-.042-.001q-.359 0-.323.259.03.214.204.214.048 0 .107-.017l-.516 3.12q-.455 2.028-.66 2.514-.114.387-.38.463-.273.068-.873.41-.334.068-.372.182-.03.114.16.137.038.005.085.005.173 0 .453-.066.143-.03.312-.03.255 0 .569.068.072.014.133.014.387 0 .315-.583-.03-.426.493-1.208.524-.782.577-1.852l.243-.243.775-.015.015.372q.213 1.457.228 1.92.099.752-.182.866-.289.106-.866.448-.342.053-.387.167-.038.114.16.144.047.008.105.008.173 0 .441-.068.14-.033.323-.033.281 0 .664.078.089.018.158.018.427 0 .1-.686.023-.714.16-1.48.136-.767-.16-1.55l.152-.204.091-2.096q.023-.903-.63-2.02-.03-.41-.099-1.442-.06-1.04-.562-1.503-.5-.471-.554-.57.281-.197.372-.516.099-.327-.121-.889-.207-.539-.716-.539z"/><path d="M21.846.375v17.25m0-17.25h2.625m-2.625 17.25h2.625m0-17.25h35.255m-35.255 17.25h35.255m0-17.25h17.625m-17.625 17.25h17.625M61.489.375v17.25M65.014.375v17.25M66.776.375v17.25M68.539 2.1h8.812m-8.812 3.45h8.812M68.539 2.1v3.45m1.762-1.725h7.05m-8.812 3.45h8.812m-8.812 3.45h8.812m-8.812-3.45v3.45M70.301 9h7.05m-8.812 3.45h8.812m-8.812 3.45h8.812m-8.812-3.45v3.45m1.762-1.725h7.05" fill="none" stroke="#000"/></svg>