<svg xmlns="http://www.w3.org/2000/svg" width="62.438" height="18"><path d="M19.788 7.686q-1.86 2.529-5.353 2.597-3.47-.068-5.33-2.597zm-11.838-.6q1.906 3.812 6.485 3.827 4.601-.015 6.507-3.826zm16.048-3.993q1.511.22 1.58 1.382v8.382q-.706-.843-2.536-1.184l.956-8.58zm-.425-.843l-1.131 10.022q2.52.289 3.136 1.8v1.678h.751V4.475q0-1.883-2.756-2.225zm10.873.72q2.33 0 4.943 1.126-2.612 1.095-4.943 1.095-2.315 0-4.943-1.095 2.628-1.126 4.943-1.126zm0-.72q-2.878 0-6.617 1.83 3.739 1.815 6.617 1.815t6.617-1.815q-3.723-1.83-6.617-1.83zm-.212 8.268l-.016.008 2.719 5.209h1.025l-2.719-5.217zm-2.278.008l-1.025.008 2.718 5.216 1.025-.008-2.718-5.216zm16.419-7.644q2.048 0 4.342.99-2.294.961-4.342.961-2.033 0-4.342-.962 2.309-.989 4.342-.989zm0-.632q-2.528 0-5.812 1.608 3.284 1.594 5.812 1.594 2.529 0 5.813-1.594-3.27-1.608-5.813-1.608zm-1.261 4.734q.342 0 .266.33l-.786 3.207h-.659l.786-3.195q.063-.342.393-.342zm1.014 0q.317 0 .254.33l-.761 3.207h-.66l.761-3.195q.076-.342.406-.342zm1.09 0q.355 0 .266.33l-.773 3.207h-.659l.76-3.195q.09-.342.406-.342zm1.065 0q.292 0 .254.33l-.774 3.207h-.659l.773-3.195q.064-.342.406-.342zm1.065 0q.304 0 .266.33l-.786 3.207h-.659l.773-3.195q.102-.342.406-.342zm-.456 3.93q.317 0 .317.266t-.305.266H45.86q-.317 0-.317-.266t.317-.266zm-5.933.532q-1.065 1.66-1.37 3.296-.024.546-.328.546h-.014q-.316-.013-.202-.559.532-2.23 1.914-3.283zm6.833 0q1.381 1.052 1.914 3.283.114.546-.203.558h-.014q-.303 0-.328-.545-.304-1.635-1.37-3.296zm-2.624-4.804q-1.458 0-2.447.126-.393.051-.482.558l-.735 3.106q-.101.292-.47.482-2.065 1.458-2.471 4.031.063.805.675.805h.01q.62-.006.735-.792.608-2.346 1.115-3.094h.609v.406h.963v-.406h3.398v.406h.963v-.406h.609q.52.748 1.128 3.094.114.786.735.792h.01q.612 0 .675-.805-.406-2.573-2.472-4.031h.012q-.367-.203-.38-.33l.735-3.258q.064-.494-.418-.57-1.166-.114-2.497-.114z"/><path d="M7.95.375c-9.625 0-9.625 17.25 0 17.25m0-17.25h46.238M7.95 17.625h46.238M61.875.375v17.25M54.188.375c9.625 0 9.625 17.25 0 17.25" fill="none" stroke="#000"/></svg>