<svg xmlns="http://www.w3.org/2000/svg" width="72.606" height="18"><path d="M10.338 2.25c-.09 0-.179.004-.268.012h-.042c-1.005 0-1.87.969-1.797 1.965-.054.784.109 1.558.152 2.338a.35.35 0 0 0 .326.187.554.554 0 0 0 .454-.245c.237-.33.132-.758.036-1.118-.106-.643-.145-1.359.209-1.936.227-.305.602-.457.976-.457.407 0 .814.18 1.03.541.344.506.251 1.241-.191 1.659-.427.505-1.067.838-1.34 1.464-.175.63-.029 1.288-.087 1.93-.056 2.342-.086 4.684-.13 7.027.12.101.263.12.41.12.087 0 .175-.006.26-.006.07 0 .14.004.206.019.32-.163.294-.573.27-.876-.113-2.457-.03-4.917-.092-7.375.007-.28-.084-.602.212-.762.589-.572 1.217-1.142 1.579-1.894.369-1.09-.457-2.397-1.599-2.536a2.837 2.837 0 0 0-.574-.057zm8.792 4.088q.17 0 .353.078.41.173.41 2.758v2.474h-4.641q1.792-2.46 2.46-3.718.666-1.257 1.014-1.473.192-.119.403-.119zm-.198-.528l-.074.001q-.66.014-1.487 1.612-.827 1.598-3.273 4.767h6.337l-.014-3.558q-.07-2.376-.487-2.605-.393-.217-1.002-.217zm12.47-3.077c.33 0 .496.179.496.537v2.281h-9.473V3.282c0-.366.17-.55.508-.55.257 0 .578.289.963.864.385.58.772.869 1.161.869.382 0 .728-.243 1.04-.73.31-.487.567-.783.77-.888a.606.606 0 0 1 .595-.006c.19.101.444.397.759.888.311.49.657.736 1.039.736.4 0 .792-.29 1.173-.87.381-.574.704-.862.969-.862zm-.012-.483c-.408 0-.805.294-1.19.881-.386.588-.699.881-.94.881-.23 0-.54-.293-.928-.88-.39-.588-.775-.882-1.156-.882-.436 0-.84.294-1.214.881-.37.588-.671.881-.905.881-.237 0-.548-.293-.934-.88-.385-.588-.782-.882-1.19-.882-.666 0-.998.344-.998 1.032v2.752h4.71c.576.002.523.003.535.003l.498-.003h4.71V3.27c0-.68-.332-1.02-.998-1.02zm.012 5.34c.33 0 .496.178.496.536v2.282h-9.473v-2.27c0-.366.17-.549.508-.549.257 0 .578.288.963.863.385.58.772.87 1.161.87.382 0 .728-.244 1.04-.73.31-.488.567-.783.77-.888a.606.606 0 0 1 .595-.006c.19.1.444.396.759.887.311.491.657.736 1.039.736.4 0 .792-.29 1.173-.869.381-.575.704-.863.969-.863zm-.012-.483c-.408 0-.805.293-1.19.88-.386.588-.699.882-.94.882-.23 0-.54-.294-.928-.881-.39-.588-.775-.881-1.156-.881-.436 0-.84.293-1.214.88-.37.588-.671.882-.905.882-.237 0-.548-.294-.934-.881-.385-.588-.782-.881-1.19-.881-.666 0-.998.344-.998 1.032v2.752h4.71c.576.001.523.002.535.002l.498-.002h4.71V8.126c0-.68-.332-1.02-.998-1.02zm.012 5.339c.33 0 .496.179.496.537v2.281h-9.473v-2.269c0-.366.17-.55.508-.55.257 0 .578.289.963.864.385.58.772.869 1.161.869.382 0 .728-.243 1.04-.73.31-.487.567-.783.77-.887a.606.606 0 0 1 .595-.006c.19.1.444.396.759.887.311.49.657.736 1.039.736.4 0 .792-.29 1.173-.87.381-.574.704-.862.969-.862zm-.012-.483c-.408 0-.805.294-1.19.881-.386.588-.699.881-.94.881-.23 0-.54-.293-.928-.88-.39-.588-.775-.882-1.156-.882-.436 0-.84.294-1.214.881-.37.588-.671.881-.905.881-.237 0-.548-.293-.934-.88-.385-.588-.782-.882-1.19-.882-.666 0-.998.344-.998 1.032v2.752h4.71c.576.002.523.003.535.003l.498-.003h4.71v-2.764c0-.68-.332-1.02-.998-1.02zm17.82-9.287q.331 0 .331.347v2.665h-1.009l.331-2.807q.016-.205.347-.205zm.016-.426q-.804 0-.851.457-.332 2.98-.71 2.996l-7.317.268-.756-.031q-.852-.899-1.514-.899-.237-.016-.49-.031-1.34.252-1.607.252-.19 0-.19.252 0 .347.536.347.921-.147 1.413-.147.09 0 .164.005.268 0 .442.22-.308.382-1.377.382-.082 0-.169-.003-1.214-.031-2.144-.315-.457 0-.457.536.047.489 3.421.505l1.498-.158 8.547-.047 2.397.031V3.023q-.016-.773-.836-.773zM35.91 8.542l-2.022 2.39h.986l1.036-1.234 1.046 1.235 1.016-1.235 1.046 1.235 1.036-1.235 1.045 1.235 1.036-1.235 1.046 1.235 1.016-1.235 1.046 1.235 1.046-1.235 1.016 1.235 1.045-1.235 1.036 1.235h.986l-2.022-2.39-1.045 1.155-1.016-1.156-1.046 1.156-1.046-1.156-1.016 1.156-1.046-1.156L41.1 9.698l-1.045-1.156-1.036 1.156-1.046-1.156-1.016 1.156-1.046-1.156zm6.22 4.34c.805 0 1.812.413 2.3.9.426.427.482.992.498 1.518h-5.571c.015-.526.071-1.091.498-1.518.487-.487 1.47-.9 2.275-.9zm0-.45c-.954 0-1.982.44-2.584 1.042-.617.618-.687 1.43-.687 2.039v.237h6.543v-.237c0-.608-.047-1.421-.664-2.039-.602-.602-1.653-1.043-2.608-1.043zM54.454 2.25v7.654h.64v-7h6.776V9.22l-2.616.015-.014-4.295h-.67v4.964h3.954V2.25zm4.036 10.575q2.33 0 4.942 1.126-2.612 1.095-4.943 1.095-2.315 0-4.943-1.095 2.628-1.126 4.943-1.126zm0-.72q-2.88 0-6.618 1.83 3.739 1.815 6.617 1.815t6.617-1.815q-3.723-1.83-6.617-1.83z"/><path d="M8.22.375c-9.625 0-9.625 17.25 0 17.25m0-17.25h56.886M8.22 17.625h56.886m0-17.25c9.625 0 9.625 17.25 0 17.25" fill="none" stroke="#000"/></svg>