<svg xmlns="http://www.w3.org/2000/svg" width="45.887" height="18"><path d="M14.163 2.689c-.022 3.239-.048 6.477-.068 9.716.047.525.074 1.051.135 1.574.036.28.218.54.178.827-.059.193-.186.496-.4.496a.3.3 0 0 1-.156-.049c-.348-.134-.679-.355-1.061-.355a.707.707 0 0 0-.065.003h-.056c-.728 0-1.443.16-2.165.23-.395.057-.788.147-1.188.147h-.051c.722-.164 1.436-.44 2.005-.926.774-.602 1.551-1.2 2.324-1.805.105-.129-.05-6.71-.102-9.835l.67-.023zm.393-.439c-.382.013-.952.007-1.333.03-.204.06-.168.288-.165.452l.158 9.566c-.846.646-1.684 1.302-2.534 1.942a4.332 4.332 0 0 1-1.58.604c-.25-.002-.5-.13-.747-.13a.573.573 0 0 0-.237.048c-.19.146-.257.547-.001.67.384.206.811.284 1.242.284.272 0 .545-.031.81-.081.613-.105 1.232-.166 1.848-.253.203-.017.413-.045.62-.045.225 0 .445.032.647.143.244.107.512.27.783.27.09 0 .181-.018.272-.063.284-.177.448-.507.517-.826.057-.416-.224-.784-.22-1.198-.032-.453-.083-.904-.103-1.357.023-3.273.149-10.056.023-10.056zm8.019.439c-.022 3.239-.048 6.477-.068 9.716.047.525.075 1.051.136 1.574.035.28.218.54.178.827-.06.193-.186.496-.4.496a.3.3 0 0 1-.157-.049c-.347-.134-.678-.355-1.06-.355a.707.707 0 0 0-.065.003h-.057c-.728 0-1.443.16-2.165.23-.394.057-.788.147-1.188.147h-.05c.722-.164 1.435-.44 2.004-.926.775-.602 1.552-1.2 2.325-1.805.105-.129-.05-6.71-.103-9.835l.67-.023zm.394-.439c-.383.013-.952.007-1.333.03-.204.06-.169.288-.166.452l.158 9.566c-.845.646-1.683 1.302-2.533 1.942a4.332 4.332 0 0 1-1.581.604c-.249-.002-.5-.13-.747-.13a.573.573 0 0 0-.237.048c-.19.146-.256.547 0 .67.383.206.811.284 1.242.284.272 0 .545-.031.809-.081.613-.105 1.233-.166 1.849-.253.203-.017.413-.045.62-.045.224 0 .444.032.647.143.243.107.512.27.783.27.09 0 .181-.018.271-.063.284-.177.448-.507.517-.826.058-.416-.224-.784-.219-1.198-.032-.453-.084-.904-.104-1.357.023-3.273.15-10.056.024-10.056zm3.363.843q1.51.22 1.579 1.382v8.382q-.706-.843-2.536-1.184l.957-8.58zm-.426-.843l-1.13 10.022q2.52.289 3.135 1.8v1.678h.752V4.475q0-1.883-2.757-2.225zm7.994.664q2.724.331 0 5.047-2.724-4.716 0-5.047zm0-.664q-3.772.262-.524 6.06h-3.213v.821h3.178v6.619h1.083V9.096h3.213V8.31h-3.213q3.248-5.815-.524-6.06z"/><path d="M7.95.375c-9.625 0-9.625 17.25 0 17.25m0-17.25h29.687M7.95 17.625h29.687M45.325.375v17.25M37.637.375c9.625 0 9.625 17.25 0 17.25" fill="none" stroke="#000"/></svg>