<svg xmlns="http://www.w3.org/2000/svg" width="57.897" height="18"><path d="M22.956 2.847q.338 0 .338.346V5.85h-1.022l.33-2.798q.016-.205.354-.205zm-12.585.786l.943 1.95h-.597l-.346-.88-.346.88h-.157q0 .503.519.503h.896q.393.047.031.141-.27.07-.55.07-.16 0-.322-.022-.448-.063-1.14-.346l1.07-2.296zm0-1.383l-1.51 3.412q-.14-.08-.376-.268l-.535.66q.802.598 1.965.928.52.148 1.19.148.83 0 1.892-.227l10.8.126V3.193q0-.77-.818-.77-.817 0-.864.44-.33 2.987-.708 2.987l-8.615.189q-.55-.236-.927-.377L10.37 2.25zm12.585 9.218q.338 0 .338.346v2.657h-1.022l.33-2.799q.016-.204.354-.204zm-12.585.786l.943 1.95h-.597l-.346-.881-.346.88h-.157q0 .503.519.503h.896q.393.048.031.142-.27.07-.55.07-.16 0-.322-.023-.448-.063-1.14-.346l1.07-2.295zm0-1.384l-1.51 3.412q-.14-.079-.376-.267l-.535.66q.802.597 1.965.927.52.148 1.19.148.83 0 1.892-.226l10.8.126v-3.836q0-.77-.818-.77-.817 0-.864.44-.33 2.987-.708 2.987l-8.615.188q-.55-.236-.927-.377L10.37 10.87zm19.611-8.62l-.014.001a15.506 15.506 0 0 1-1.122.037c-.08.005-.087.107-.06.165.168.474.313.956.45 1.44h-.02c-.134.003-.27 0-.404.013l-.007.01c-.008-.03-.028-.058-.06-.065a28.706 28.706 0 0 1-1.274-.923c-.011-.002-.022-.005-.032-.005h-.008c-.041.026-.056.084-.08.127-.073.197-.134.399-.216.593-.058.148-.122.294-.167.446.02.042.057.055.097.055.039 0 .08-.012.113-.022.516-.11 1.046-.1 1.57-.107-.052.115-.074.243-.122.36-.02.066-.046.134-.06.202a.092.092 0 0 0-.014 0l-.016.001c-.64.248-1.264.552-1.81.97a6.77 6.77 0 0 0-.75.652c-.005.096.104.127.176.154l.442.182c-.075.103-.094.236-.142.353-.248.726-.596 1.413-.887 2.122 0 .058.055.087.108.087.02 0 .039-.004.055-.012.103-.019.206-.028.31-.03-.022.08-.03.165-.067.24-.174.555-.459 1.065-.674 1.604-.01.058.045.095.097.095a.1.1 0 0 0 .045-.01 6.45 6.45 0 0 1 .796-.092c-.03.074-.036.157-.06.234-.128.545-.317 1.082-.34 1.646-.004.367.04.733.099 1.095.1.595.28 1.174.511 1.73.003.051.05.083.095.083a.081.081 0 0 0 .072-.04c.034-.075.045-.16.07-.238.134-.481.23-.974.272-1.472.042-.43.058-.863.055-1.295-.017-.505-.138-.999-.216-1.497-.013-.075-.023-.152-.042-.226a7.034 7.034 0 0 1 .764.127c.08 0 .099-.107.062-.164-.216-.567-.437-1.134-.62-1.714l.027.005c.22.04.44.091.663.104.07-.058.02-.152-.014-.216-.269-.582-.489-1.193-.576-1.83-.028-.173-.027-.35-.057-.523.189.077.378.154.568.228.083-.02.087-.121.07-.19a2.105 2.105 0 0 1 .268-1.198c.178-.318.435-.58.698-.828.104.09.225.156.342.227l-.059.015c-.216.418-.398.852-.591 1.28-.025.06-.054.12-.063.184.032.052.087.063.143.063.035 0 .071-.004.104-.004h.005l.241-.006c-.027.083-.034.176-.061.259a412.1 412.1 0 0 0-.461 1.919c.018.068.086.082.15.082a.648.648 0 0 0 .055-.003l.397-.014c-.037.105-.053.218-.089.323-.171.628-.346 1.257-.514 1.886.019.07.088.085.154.085a677.2 677.2 0 0 1 .691-.021.867.867 0 0 0-.024.103c-.132.577-.335 1.144-.366 1.74-.002.54.078 1.077.201 1.602.102.423.247.836.41 1.239.007.046.051.077.094.077.025 0 .049-.01.065-.035.035-.062.041-.137.066-.205a8.29 8.29 0 0 0 .314-1.902c.022-.343.034-.687.018-1.03-.035-.492-.147-.974-.225-1.46-.01-.048-.017-.097-.03-.145.222-.007.443-.014.664-.023.079-.06.035-.167.013-.245-.188-.674-.374-1.349-.567-2.021.185-.007.37-.014.554-.023.078-.06.034-.166.011-.243l-.584-1.969.595-.016c.075-.05.039-.15.004-.214-.177-.4-.35-.801-.534-1.199.132-.054.263-.11.391-.171.353.33.662.728.804 1.196.081.278.087.573.058.86.016.044.054.061.096.061a.2.2 0 0 0 .1-.03l.443-.182-.004.004a5.206 5.206 0 0 1-.347 1.696c-.098.265-.22.52-.326.78-.006.057.047.091.098.091a.102.102 0 0 0 .051-.013c.195-.029.39-.067.584-.105-.039.108-.065.221-.109.327-.166.486-.354.965-.534 1.445-.014.057.037.107.09.107a.08.08 0 0 0 .042-.011 5.81 5.81 0 0 1 .716-.116.57.57 0 0 0-.012.066c-.08.447-.167.892-.223 1.342a4.98 4.98 0 0 0-.018.846c.026.713.097 1.429.288 2.118.033.117.064.236.102.351.014.03.045.044.076.044.037 0 .075-.021.083-.062a7.92 7.92 0 0 0 .566-2.05c.05-.41.082-.828.004-1.236-.08-.434-.208-.857-.311-1.285-.017-.05-.025-.104-.042-.153.123.003.246.011.369.027.17.018.34.054.512.069.072-.02.066-.116.03-.166-.24-.577-.55-1.13-.704-1.738l-.008-.032c.029 0 .057 0 .086.002.11.008.218.03.326.039.077-.034.058-.134.022-.192-.318-.723-.662-1.437-.908-2.19-.023-.058-.04-.124-.074-.176l-.005-.003c.199-.083.397-.166.595-.252.046-.08-.032-.156-.09-.201-.507-.462-1.064-.874-1.683-1.171a6.493 6.493 0 0 0-.716-.3c-.018-.055-.043-.11-.057-.163-.063-.181-.116-.368-.196-.542a.252.252 0 0 0 .052.004l.06-.001h.153c.459 0 .92.015 1.37.118a.111.111 0 0 0 .046.009c.045 0 .093-.023.083-.074-.087-.273-.21-.534-.3-.807-.039-.112-.078-.225-.128-.332a.113.113 0 0 0-.06-.008c-.42.308-.834.628-1.27.916-.046.023-.105.07-.072.127v.001a.848.848 0 0 0-.158-.012l-.16.002a1.243 1.243 0 0 1-.068-.001h-.035a.077.077 0 0 0 .004-.029c.17-.508.34-1.022.631-1.476.035-.046.01-.127-.046-.137a.065.065 0 0 0-.012-.001zm6.156 0c-.697 0-1.308.513-1.308 1.171V15.75h.852V3.421c0-.322.283-.427.462-.427.187 0 .475.131.475.527v8.103h.852V3.521c0-.66-.653-1.271-1.333-1.271zm4.8.476q-.278 0-.278.328 0 .278.278.278.295-.016.295-.311t-.295-.295zm-1.082.213v.295l-.639.115q.295-.312.64-.41zm.033.393q.377.295.131.443-.377-.131-.557-.344l.426-.099zm1.148-.754q.77 0 1.23.59.458.59.491 1.82 1.197.246 1.59 1.082.064.542-.244.542l-.018-.001q-.328-.016-.516-.18-.069-.06-.104-.06-.061 0-.02.183.066.287.722.696.656.41.106.68-.136.068-.29.068-.466 0-1.095-.616-.836-.82-.885-1.246-.05-.427.344-.787.234-.215.16-.215-.049 0-.242.1-.475.246-.5.721-.024.476.377 1.041.402.566 1.582 1.435.121.063.274.063.324 0 .792-.285.688-.418-.689-1.286.509-.132.525-.443.64.213 3.59 3.967.787.525.803.77-.016.23-.246.28-.049.01-.1.01-.185 0-.391-.142-.918.443-1.779.46h-.09q-.8 0-1.328-.28.54.476.377 1-.08.255-.12.255-.044 0-.044-.287 0-.558-1.426-1.066v.623q-.084.353-.134.353-.047 0-.063-.32-.098-.705-.467-1.517-.369-.811-1.172-2.245-.804-1.435-1.025-2.066-.221-.631-.205-1.172.017-.541-.221-.795t-.14-.55q.099-.295-.294-.557v-.278q.426-.345.885-.345zm3.115 9.443q.803.23.803.54l-.541 2.017q-.066.361-.443.361h-.656v-.033l.837-2.557v-.328zM41.096 2.25h-.06q-.639 0-1.294.525-.377.131-.77.607.54.491.983.606.049.23.311.64.017 1.081.295 1.795.279.713 1.87 3.827.786 1.64.786 2.017 0 .574-.721 2.574 0 .114-.984.18-1.475.05-1.475.41 0 .213.196.213h4.361q.41-.328.46-.558.393.164.425.443.056.221.157.221.02 0 .04-.008.131-.049.131-.213-.114-.443-.574-.852l.525-2.213q1.59-.05 2.77-.509.22.05.401.05.365 0 .583-.197.328-.295-.13-.918-1-1-1.903-2.197-1.852-2.279-2.54-2.64-.23-.475-.55-.753-.32-.28-1.156-.689-.016-.967-.45-1.672-.425-.689-1.687-.689z"/><path d="M7.95.375c-9.625 0-9.625 17.25 0 17.25m0-17.25h41.697M7.95 17.625h41.697M57.335.375v17.25M49.647.375c9.625 0 9.625 17.25 0 17.25" fill="none" stroke="#000"/></svg>