<svg xmlns="http://www.w3.org/2000/svg" width="45.974" height="18"><path d="M11.116 8.203c-.51.04-.793.296-.847.767.067.51.35.78.847.806.498-.026.76-.295.787-.806-.04-.47-.303-.726-.787-.767zm.06-1.694c.364 0 .7.068 1.01.202a2.659 2.659 0 0 1 1.371 1.361c.134.303.201.622.201.958 0 .35-.067.676-.202.978a2.567 2.567 0 0 1-2.38 1.523c-.362 0-.702-.064-1.018-.192a2.426 2.426 0 0 1-.816-.534 2.621 2.621 0 0 1-.545-.797 2.38 2.38 0 0 1-.202-.978c0-.336.068-.655.202-.958.134-.302.316-.571.545-.806.228-.236.5-.42.816-.555a2.574 2.574 0 0 1 1.019-.202zm-.04-.685c-.443 0-.86.084-1.25.252-.39.168-.726.396-1.008.685a3.36 3.36 0 0 0-.676 1.009 3.053 3.053 0 0 0-.252 1.24c0 .444.084.857.252 1.24.168.384.393.716.676.999a3.2 3.2 0 0 0 2.258.927c.444 0 .857-.084 1.24-.252a3.36 3.36 0 0 0 1.009-.675c.289-.283.518-.615.686-.999.168-.383.252-.796.252-1.24 0-.444-.084-.857-.252-1.24a3.268 3.268 0 0 0-1.694-1.694 3.053 3.053 0 0 0-1.24-.252zm7.909-3.287v.305h-.772v-.305zm.988.88q-.144.161-.144.556h-2.46q.018-.395-.125-.556zm0 1.13q-.18.162-.144.557h-2.46q.018-.395-.125-.556zm0 1.132q-.144.126-.144.556h-2.46q.036-.395-.125-.556zm-.072 1.13q-.252.45-.234 1.204h-2.172q.036-.754-.233-1.203zm-.234 1.33v.125h-2.172v-.126zm0 .25v.126h-2.172V8.39zm0 .252v.126h-2.172V8.64zm0 .251v.126h-2.172v-.126zm0 .252v4.362q.162.808.575 1.777h-3.303q.323-.718.556-1.777V9.144zM18.004 2.25v.592h-2.01q-.342.288 0 .575h.825q.162.161.144.556h-.97q-.34.288 0 .575h.826q.162.161.144.556h-.97q-.34.288 0 .575h.826q.18.161.144.556h-.97q-.34.27 0 .575h.826q.323.377.287 2.28v4.416q-.125.987-.88 2.244h4.92q-.862-1.436-.952-2.244V9.09q-.09-1.885.305-2.28h.844q.36-.27 0-.575h-.97q-.017-.43.126-.556h.898q.305-.305-.054-.575h-.97q-.017-.395.126-.556h.844q.341-.287 0-.575h-.97q-.017-.395.126-.556h.844q.341-.287 0-.575h-2.01V2.25zm8.254.287v.305h-.772v-.305zm.988.88q-.144.161-.144.556h-2.46q.019-.395-.125-.556zm0 1.13q-.18.162-.144.557h-2.46q.019-.395-.125-.556zm0 1.132q-.144.126-.144.556h-2.46q.037-.395-.125-.556zm-.072 1.13q-.251.45-.233 1.204h-2.173q.036-.754-.233-1.203zm-.233 1.33v.125h-2.173v-.126zm0 .25v.126h-2.173V8.39zm0 .252v.126h-2.173V8.64zm0 .251v.126h-2.173v-.126zm0 .252v4.362q.161.808.574 1.777h-3.303q.323-.718.556-1.777V9.144zM25.217 2.25v.592h-2.01q-.342.288 0 .575h.825q.162.161.144.556h-.97q-.34.288 0 .575h.826q.162.161.144.556h-.97q-.34.288 0 .575h.826q.18.161.144.556h-.97q-.34.27 0 .575h.826q.323.377.288 2.28v4.416q-.126.987-.88 2.244h4.919q-.862-1.436-.952-2.244V9.09q-.09-1.885.306-2.28h.843q.36-.27 0-.575h-.97q-.017-.43.127-.556h.897q.305-.305-.054-.575h-.97q-.017-.395.127-.556h.843q.341-.287 0-.575h-.97q-.017-.395.127-.556h.843q.341-.287 0-.575h-2.01V2.25zm8.77.664q2.724.331 0 5.047-2.725-4.716 0-5.047zm0-.664q-3.773.262-.524 6.06h-3.214v.821h3.179v6.619h1.083V9.096h3.213V8.31h-3.213q3.248-5.815-.524-6.06z"/><path d="M7.95.375c-9.625 0-9.625 17.25 0 17.25m0-17.25h29.774M7.95 17.625h29.774M45.412.375v17.25M37.724.375c9.625 0 9.625 17.25 0 17.25" fill="none" stroke="#000"/></svg>