<svg xmlns="http://www.w3.org/2000/svg" width="39.459" height="18"><path d="M12.004 2.25c-.09 0-.096.283-.225.701-.146.476-.253 1.472-.591 1.665a.298.298 0 0 1-.153.039c-.1 0-.202-.038-.313-.038a.409.409 0 0 0-.127.02c-.158.05-.241.297-.408.326-.691.12-1.637.075-2.166.123-.34.03.567.698 1.474.698h.038c.188-.005.387-.013.584-.013.331 0 .658.024.928.135.264.109.576.425.572.735l-.11 9.109h1.019l-.052-10.289c-.001-.276.796-.464.9-.702.182-.415.089-2.247-.204-2.493a.016.016 0 0 0-.01-.004c-.133 0-.38 1.92-.767 2.333-.04.043-.117.062-.185.062-.072 0-.133-.022-.121-.062.246-.838.345-2.061-.041-2.329a.077.077 0 0 0-.042-.016zm4.271 0c-.697 0-1.309.513-1.309 1.171V15.75h.852V3.421c0-.322.284-.427.463-.427.187 0 .475.131.475.527v8.103h.852V3.521c0-.66-.653-1.271-1.333-1.271zm8.884.658q2.131 0 4.52 1.03-2.389 1.001-4.52 1.001-2.117 0-4.52-1.001 2.403-1.03 4.52-1.03zm0-.658q-2.632 0-6.051 1.674 3.419 1.659 6.05 1.659 2.633 0 6.051-1.66-3.404-1.673-6.05-1.673zm0 5.026c.699 0 1.574.36 1.998.783.37.37.419.862.432 1.318h-4.84c.013-.456.062-.947.432-1.318.424-.423 1.278-.783 1.978-.783zm0-.391c-.83 0-1.722.383-2.246.906-.536.537-.597 1.243-.597 1.772v.206h5.685v-.206c0-.529-.04-1.235-.576-1.772-.524-.523-1.437-.906-2.266-.906zm-.903 4.185c-.09 0-.18.012-.271.034-.182.045-.38.146-.593.304h-4.284v.948h4.284c.213.158.41.259.593.304a1.137 1.137 0 0 0 .54 0 1.3 1.3 0 0 0 .536-.304h.165c.171.158.348.259.53.304a1.142 1.142 0 0 0 .546 0 1.62 1.62 0 0 0 .582-.304h4.325v-.948h-4.325a1.62 1.62 0 0 0-.582-.304 1.142 1.142 0 0 0-.546 0 1.22 1.22 0 0 0-.53.304h-.165a1.295 1.295 0 0 0-.536-.304 1.106 1.106 0 0 0-.269-.033zm-3.664 2.925l-1.484 1.755h.724l.76-.907.768.907.746-.907.768.907.76-.907.768.907.76-.907.768.907.746-.907.768.907.767-.907.746.907.768-.907.76.907h.724l-1.484-1.755-.768.848-.746-.848-.767.848-.768-.848-.746.848-.768-.848-.76.848-.768-.848-.76.848-.768-.848-.746.848-.768-.848z"/><path d="M7.95.375c-9.625 0-9.625 17.25 0 17.25m0-17.25h23.26M7.95 17.625h23.26M38.897.375v17.25M31.21.375c9.624 0 9.624 17.25 0 17.25" fill="none" stroke="#000"/></svg>