<svg xmlns="http://www.w3.org/2000/svg" width="75.646" height="18"><path d="M21.333 4.03v1.756H8.4V4.03zM8.448 2.25v1.329H7.95v2.657h13.834V3.58h-.404V2.25h-.45v1.329h-1.116V2.25h-.45v1.329h-1.116V2.25h-.45v1.329h-1.092V2.25h-.475v1.329H15.14V2.25h-.451v1.329h-1.115V2.25h-.451v1.329h-1.115V2.25h-.451v1.329h-1.092V2.25h-.45v1.329H8.898V2.25zm1.199 11.494L7.95 15.75h.828l.869-1.036.877 1.036.853-1.036.878 1.036.87-1.036.877 1.036.869-1.036.878 1.036.852-1.036.878 1.036.878-1.036.852 1.036.878-1.036.87 1.036h.827l-1.697-2.006-.878.97-.852-.97-.878.97-.878-.97-.852.97-.878-.97-.87.97-.877-.97-.87.97-.877-.97-.853.97-.877-.97zm16.874-1.879c.797 0 1.794.41 2.276.892.422.422.477.982.493 1.502h-5.514c.016-.52.071-1.08.493-1.502.483-.482 1.456-.892 2.252-.892zm0-.445c-.944 0-1.961.436-2.557 1.032-.611.611-.68 1.416-.68 2.018v.234h6.475v-.234c0-.602-.046-1.407-.657-2.018-.596-.596-1.636-1.032-2.58-1.032z"/><path d="M29.99 2.726q-.278 0-.278.328 0 .278.279.278.295-.016.295-.311t-.295-.295zm-1.081.213v.295l-.64.115q.296-.312.64-.41zm.033.393q.377.295.13.443-.376-.131-.557-.344l.427-.099zm1.147-.754q.77 0 1.23.59.459.59.491 1.82 1.197.246 1.59 1.082.064.542-.243.542l-.019-.001q-.328-.016-.516-.18-.069-.06-.104-.06-.06 0-.019.183.066.287.721.696.656.41.107.68-.136.068-.29.068-.467 0-1.095-.616-.836-.82-.886-1.246-.049-.427.345-.787.234-.215.16-.215-.05 0-.242.1-.476.246-.5.721-.025.476.377 1.041.401.566 1.582 1.435.12.063.273.063.324 0 .792-.285.689-.418-.688-1.286.508-.132.524-.443.64.213 3.59 3.967.787.525.804.77-.017.23-.246.28-.05.01-.1.01-.186 0-.392-.142-.918.443-1.779.46h-.09q-.8 0-1.328-.28.541.476.377 1-.08.255-.12.255-.044 0-.044-.287 0-.558-1.426-1.066v.623q-.084.353-.133.353-.048 0-.064-.32-.098-.705-.467-1.517-.369-.811-1.172-2.245-.803-1.435-1.024-2.066-.222-.631-.205-1.172.016-.541-.222-.795-.237-.254-.14-.55.1-.295-.294-.557v-.278q.426-.345.885-.345zm3.115 9.443q.803.23.803.54l-.54 2.017q-.066.361-.443.361h-.656v-.033l.836-2.557v-.328zM30.148 2.25h-.059q-.64 0-1.295.525-.377.131-.77.607.54.491.983.606.05.23.312.64.016 1.081.295 1.795.278.713 1.869 3.827.786 1.64.786 2.017 0 .574-.72 2.574 0 .114-.984.18-1.476.05-1.476.41 0 .213.197.213h4.36q.41-.328.46-.558.393.164.426.443.055.221.157.221.019 0 .04-.008.13-.049.13-.213-.114-.443-.573-.852l.524-2.213q1.59-.05 2.771-.509.219.05.4.05.365 0 .584-.197.327-.295-.132-.918-1-1-1.901-2.197-1.853-2.279-2.541-2.64-.23-.475-.55-.753-.32-.28-1.155-.689-.017-.967-.451-1.672-.425-.689-1.687-.689zm12.817 2.304c-.203.097-.45.367-.076.412.18-.007.593-.195.518-.367a.166.166 0 0 1-.118.05c-.106 0-.215-.095-.324-.095zm-1.479.067c-.247.06-.375.33-.06.39l.017.001c.181 0 .676-.22.268-.27-.067-.046-.135-.12-.225-.12zm1.974-1.883c.442.517.833 1.118.908 1.808.075.495.097.99.172 1.478-.352-.03-.247-.577-.18-.84.06-.518-.217-.998-.413-1.456-.135-.247-.262-.638-.607-.645-.383.067-.63.39-.878.668-.255-.255-.525-.533-.878-.638a.177.177 0 0 0-.061-.01c-.08 0-.172.035-.214.035-.037 0-.037-.026.042-.123.048-.168.147-.218.27-.218.178 0 .406.106.599.106a.42.42 0 0 0 .084-.008 2.801 2.801 0 0 0 1.156-.158zm-.12.57c.292.075.36.48.502.72.18.42.398.878.256 1.351-.113.225.03.51.015.675-.25.176-.47.547-.803.547a.474.474 0 0 1-.113-.014c-.33-.067-.495-.383-.75-.533-.185.178-.294.548-.598.548a.464.464 0 0 1-.138-.022c-.277-.06-.645-.03-.727-.368-.143-.345-.158-.728-.18-1.103a.243.243 0 0 0 .045.005c.152 0 .166-.177.18-.328.058-.22.215-.321.39-.321.118 0 .244.046.352.134.128.142.518.255.436.48-.038.135-.083.277-.128.42l.315.42c.03-.217.353-.397.165-.615-.03-.098-.142-.225-.127-.3.135-.24.315-.45.525-.63a.241.241 0 0 1 .172-.077c.201 0 .403.263.578.287.173-.188-.015-.263-.187-.36a.526.526 0 0 0-.365-.147.602.602 0 0 0-.49.266c-.143.086-.242.371-.368.371-.039 0-.081-.028-.128-.1-.229-.184-.504-.39-.804-.39a.642.642 0 0 0-.134.014c-.212.044-.403.474-.42.474-.008-.353.158-.669.255-1.014a.459.459 0 0 1 .447-.357c.13 0 .261.055.356.177.223.083.387.475.597.475a.2.2 0 0 0 .116-.04c.232-.247.42-.54.758-.645zm-1.066 5.207c.953.983 1.831 3.475 2.056 4.495-.368-.3-.87-.495-.983-.683-.12-.195-.45-2.093-1.073-3.812zm3.392-1.785c1.8 1.035 4.937 6.13 5.605 6.948-1.126-.713-2.236-1.433-3.444-2.019-1.696-.832-3.144-2.183-4.525-3.444 1.14-.382 1.959-1.028 2.364-1.485zm-1.869 6.468c.24.142.458.337.72.442-.157.39-.254.826-.577 1.133-.06.098-.147.129-.246.129-.17 0-.378-.092-.551-.092a.44.44 0 0 0-.036.001c.21-.525.525-.758.69-1.613zm.51-7.024c.046.094.104.125.166.125.08 0 .167-.053.24-.087.18.127.803.112.435.383-.233.315-1.476 1.174-2.34 1.326-.372.065.254.655.457.865 1.17 1.05 2.318 2.16 3.721 2.918.878.496 1.801.938 2.65 1.486.404.585.885 1.126 1.192 1.771-.307.09-.608.218-.923.293a2.168 2.168 0 0 1-.527.061c-.495 0-.994-.147-1.214-.384-.405-.428-.847-2.251-1.08-2.919-.033-.075-.08-.1-.13-.1-.102 0-.22.099-.278.099-.012 0-.021-.004-.027-.014a.293.293 0 0 0-.29-.282c-.132 0-.254.096-.235.297-.046.473-.136.946-.36 1.373-.028.073-.086.101-.162.101-.213 0-.57-.22-.814-.28.097-.579-.69-3.535-3.002-6.011-.08-.088-.433-.459-.402-.459.004 0 .013.005.027.016.119.031.252.052.384.052.253 0 .501-.078.63-.314.019-.06.043-.082.072-.082.103 0 .258.3.422.3a.69.69 0 0 0 .386.115.79.79 0 0 0 .582-.266c.143-.128.278-.255.42-.383zm-.78-3.924c-.236.105-.649.21-1.02.21-.053 0-.106-.003-.158-.007a.603.603 0 0 1-.107.009c-.252 0-.524-.136-.769-.136a.466.466 0 0 0-.264.074c-.413.6-.788 1.268-.833 2.011-.083 1.426-.045 1.92 1.08 3.091.443 1.006 1.268 4.285 1.516 5.178.27.255-.338 1.65-.593 1.996-.139.191-.504.2-.897.2h-.13c-.353 0-.71.008-.931.145-.21.135-.285.638-.165.705.112-.172.337-.405.495-.427-.15.157.375.082.488.12.303.005.61.03.918.03.15 0 .298-.006.447-.023.068-.03.14-.075.172-.075.024 0 .024.027-.022.113.213.055.452.083.685.083.525 0 1.022-.14 1.131-.42.225-.414.435-.849.586-1.299.191.04.432.176.625.176a.284.284 0 0 0 .155-.04c.21-.144.428-.811.548-1.254.011-.046.074-.069.137-.069.06 0 .122.021.14.061.225.45.6 1.831.96 2.41.272.427.931.638 1.632.638.441 0 .9-.083 1.288-.249.487-.21.848-.165.743-.435-.166-.45-.45-.878-.75-1.26.434.27.87.547 1.305.817.036.131.126.183.218.183.178 0 .362-.193.18-.385-1.704-2.461-4.413-6.656-6.289-8.014a2.525 2.525 0 0 0-1.043-.563c-.127-.33-.09-.773-.165-1.148-.075-.743-.525-1.973-1.313-2.446zm13.466.334q.38 0 .486.608 0 .394-.083.706-.084.311-.403 1.025-.319-.73-.41-1.033-.09-.304-.06-.698.075-.608.47-.608zm2.445 0q.38 0 .471.608.015.394-.068.698-.084.304-.403 1.033-.334-.714-.417-1.025-.084-.312-.084-.706.106-.608.501-.608zm2.43 0q.395 0 .47.608.031.394-.06.698-.091.304-.41 1.033-.319-.714-.402-1.025-.084-.312-.1-.706.122-.608.502-.608zm2.445 0q.38 0 .47.608.016.394-.067.698-.084.304-.403 1.033-.334-.714-.418-1.025-.083-.312-.083-.706.106-.608.501-.608zm-9.476 2.172q.395 0 .706.083.311.084 1.04.418-.744.319-1.048.402-.257.071-.579.071l-.12-.002q-.591-.091-.591-.471 0-.395.592-.501zm11.44.023q.094 0 .193.007.592.076.592.47 0 .38-.592.487-.395 0-.707-.084-.31-.083-1.04-.402.73-.319 1.04-.41.234-.068.514-.068zm-9.284.797q.32.729.403 1.032.083.304.068.714-.091.592-.47.592-.396 0-.502-.592 0-.41.084-.721.083-.311.417-1.025zm2.43 0q.319.729.41 1.032.091.304.06.714-.075.592-.47.592-.38 0-.501-.592.015-.41.099-.721.083-.311.402-1.025zm2.445 0q.319.729.41 1.032.091.304.06.714-.075.592-.47.592-.38 0-.501-.592.015-.41.099-.721.083-.311.402-1.025zm2.445.015q.319.729.403 1.033.083.303.068.713-.091.593-.47.593-.396 0-.502-.593 0-.41.083-.721.084-.311.418-1.025zm-7.32-3.341q-.744 0-.805.942-.03.394.122.88l.243.76-.82-.259q-.501-.151-.896-.151-.927.09-.927.835 0 .729.927.805l.08.001q.363 0 .8-.123l.82-.273-.227.76q-.152.5-.152.895.091.927.835.927.73 0 .805-.927.015-.41-.121-.88l-.274-.866h1.61l-.273.85q-.137.501-.137.896.091.927.82.927.744 0 .805-.927.03-.41-.122-.88l-.273-.866h1.625l-.273.85q-.137.501-.137.896.091.927.82.927.744 0 .805-.927.03-.41-.122-.88l-.273-.866 1.625.015-.273.85q-.152.502-.152.896.09.927.835.927.729 0 .805-.927.015-.41-.122-.896l-.243-.774.82.273q.502.137.897.137.926-.091.926-.82 0-.744-.926-.805-.066-.005-.135-.005-.341 0-.746.126l-.836.259.243-.76q.137-.486.122-.88-.076-.942-.805-.942-.744 0-.835.942 0 .38.152.88l.273.85h-1.625l.273-.85q.152-.486.122-.88-.06-.942-.805-.942-.729 0-.82.942 0 .38.137.88l.273.85h-1.61l.274-.85q.136-.486.121-.88-.076-.942-.805-.942-.744 0-.835.942 0 .38.152.88l.273.85h-1.625l.274-.85q.136-.5.136-.88-.09-.942-.82-.942zM55.13 13.897q-.077 0-.15.023-.284.092-.25.276.028.155.253.155.041 0 .089-.005.309-.033.543-.25-.261-.2-.485-.2zm.144-.17q.604 0 1.862.72.63.326 1.383.326.364 0 .756-.076.985-.2 2.072-.35.369-.052.714-.052.673 0 1.258.193.885.293 1.47.376.585.084 1.855.15-.819.084-1.604.084-.786 0-1.855-.175-.535-.088-1.03-.088t-.95.088q-.911.175-2.072.326-.29.037-.571.037-.842 0-1.593-.338-.73-.498-1.517-.498-.348 0-.706.097-.317-.017-.284-.351.184-.451.785-.468h.027zm.447-1.704q-.361 0-.674 1.103-.262-.974-.675-.974-.062 0-.127.022-.502.317.334 1.22-.669.384-.669.969t.986.652q.305-.08.596-.08.681 0 1.284.439.517.376 1.638.376.747 0 1.763-.167 1.248-.351 2.425-.351.447 0 .884.05 1.091.126 1.859.126.349 0 .63-.026 1.42-.033 1.42-.267-.383-.35-1.085-.468-1.488-.017-2.716-.518-.614-.25-1.506-.25t-2.061.25q-.755.19-1.405.19-.891 0-1.587-.357-.718-.435-1.52-.719.668-.518.626-.86-.041-.343-.41-.36h-.01z"/><path d="M7.95.375c-9.625 0-9.625 17.25 0 17.25m0-17.25h59.446M7.95 17.625h59.446M75.083.375v17.25M67.396.375c9.625 0 9.625 17.25 0 17.25" fill="none" stroke="#000"/></svg>