<svg xmlns="http://www.w3.org/2000/svg" width="203.065" height="18"><path d="M2.097 0c-.335 0-.67.026-.995.066-.447.113-.217.626.18.626a.476.476 0 0 0 .082-.008c.84.097 1.872.15 2.506.626.841.916.463 2.821.561 3.725.007.05.01 3.653.01 5.48a6.145 6.145 0 0 0-2.635-.586 6.04 6.04 0 0 0-1.187.117c-.441.231.076.528.422.528.041 0 .08-.004.115-.013 1.226.133 2.62.461 3.243 1.602.061.206.023.277-.071.277-.206 0-.68-.342-.946-.342-.014 0-.028 0-.04.003a7.535 7.535 0 0 0-1.58-.169c-.39 0-.777.031-1.15.095-.42.278.097.534.439.534a.532.532 0 0 0 .105-.01c1.251.151 2.636.49 3.243 1.633.007 1.27 0 2.11.033 3.278-.014.36.22.538.456.538.235 0 .473-.176.475-.526-.009-1.15-.091-2.161.06-3.277.304-1.253 2.477-1.445 3.827-1.754.294-.347-.285-.475-.659-.475-.055 0-.107.003-.15.008a6.823 6.823 0 0 0-.521-.02c-.882 0-1.771.175-2.557.58-.032-.755.711-1.19 1.244-1.493.84-.361 1.765-.397 2.643-.59.313-.273-.18-.501-.521-.501a.58.58 0 0 0-.125.012 6.767 6.767 0 0 0-.648-.031c-.903 0-1.805.183-2.614.582.016-2.851.062-5.61-.02-8.308-.065-.834-.546-1.6-1.354-1.849C3.388.094 2.741 0 2.097 0zm23.995 2.99q.557 0 1.086.606-4.368 5.2-5.46 5.81-.814.457-1.434.457-.21 0-.399-.053-.74-.208-1.586-.234h-.042q-.828 0-1.817.988h-.13q.702-1.638 1.963-2.34 1.261-.702 7.397-5.148.213-.085.422-.085zM18.36.622q.066 0 .133.01v6.683Q16.44 8.51 15.66 10.668q1.196-8.268 1.677-9.204Q17.77.62 18.361.62zM13.005 11.09q-.08 0-.153.138-.13.247.234.689.208-.546.052-.741-.069-.086-.133-.086zm.037-.372q.153 0 .33.237.39.52-.234 2.08-.702-1.352-.429-1.976.149-.34.333-.34zm6.804 2.577v.39q-.286-.026-.442-.182.052-.078.208-.208zm.598.884l2.418.338.494.884q-.832-.234-1.833-.624-1-.39-1.079-.598zm-5.33-.364l.468.234.156 1.118-.416 1.274h-.65l.442-1.274v-1.352zm1.118.39l.442.13.156.832-.416 1.274h-.65l.442-1.274.026-.962zm1.534.156l.156.806-.416 1.274h-.65l.442-1.274v-.78l.468-.026zm-.994-3.234q.415 0 .89.1 1.404.3 1.768 1.418h1.092l.416-.676q5.512 1.274 6.214 4.602-1.508-.832-3.172-1.118l-.728-1.456-2.886-.39.078-.702h-.988q-1.092.9-2.228.9-.243 0-.489-.042-1.391-.234-1.82-.95-.429-.714.455-1.3.585-.386 1.398-.386zM18.617 0q-.947 0-1.488.658-.663.806-1.235 4.238l-.91 5.954q-.442.468-.676.52h-.312q-.026-.65-.494-1.196-.416-3.978.364-6.968l-.312-.598q-1.118 3.38-.546 7.592h-.078q-1.794-4.03-.52-7.592l-.312-.468q-1.664 3.796.364 8.242-.572 1.248-.117 2.054.455.806.559 1.508l.182.13q.702-1.04.806-1.794h.26q.026.598.338 1.248l.182 1.638-.442 1.274h-2.262v.624h6.526v-.624h-.546l.416-1.274.026-.962q.468-.156.702-.364.338.312.754.312-.026.26.104.442 1.04.806 3.718 1.404l.91 1.768q0-.434.27-.434.085 0 .198.044l-.728-1.3q1.508.338 2.288.858.416.442-.052 1.066 1.04-.442 1.17-1.248-.416-3.926-7.046-5.46l-.468.78h-.416q-.338-1.092-2.678-1.508.522-.388 1.285-.388.414 0 .9.115.491.116.96.116.844 0 1.613-.376 1.196-.585 6.084-6.461-.9-1.136-1.905-1.136-.329 0-.669.122L19.066 7.08V.034Q18.831 0 18.617 0z"/><path d="M37.458.375c-9.625 0-9.625 17.25 0 17.25m0 0" fill="none" stroke="#000"/><path d="M43.68 12.703c-.681.054-1.058.394-1.13 1.022.09.68.467 1.04 1.13 1.075.663-.036 1.013-.394 1.049-1.075-.054-.628-.404-.968-1.049-1.022zm.08-2.259c.485 0 .933.09 1.345.269a3.545 3.545 0 0 1 1.828 1.815c.18.403.27.83.27 1.277 0 .466-.09.901-.27 1.304a3.422 3.422 0 0 1-3.173 2.03c-.483 0-.936-.085-1.357-.255a3.235 3.235 0 0 1-1.09-.712 3.495 3.495 0 0 1-.725-1.063 3.174 3.174 0 0 1-.27-1.304c0-.448.09-.874.27-1.277a3.67 3.67 0 0 1 .726-1.076c.304-.313.667-.56 1.089-.739.421-.18.874-.269 1.358-.269zm-.053-.914c-.592 0-1.147.112-1.667.336-.52.224-.968.529-1.345.914a4.48 4.48 0 0 0-.9 1.345 4.071 4.071 0 0 0-.337 1.653c0 .592.112 1.143.336 1.654.225.511.525.955.901 1.331A4.267 4.267 0 0 0 43.707 18c.591 0 1.143-.112 1.654-.336a4.48 4.48 0 0 0 1.344-.9 4.21 4.21 0 0 0 .914-1.332 4.07 4.07 0 0 0 .336-1.654c0-.591-.112-1.142-.336-1.653a4.358 4.358 0 0 0-2.258-2.259 4.071 4.071 0 0 0-1.654-.336zM53.26.46q-.11 1.162-.11 2.603 0 1.442.14 2.914-.32-.17-1-.17-.692 0-1.002.17.15-1.472.14-2.914-.01-1.441-.11-2.602zm-.97 5.967q.68.01 1.38.36l-.18.33q-.141-.024-.264-.024-.427 0-.636.295-.12-.53-.3-.65-.181.12-.311.65-.21-.295-.636-.295-.124 0-.265.025l-.18-.33q.72-.35 1.391-.36zm0 .961q.15.12.1.35-.05.23-.1.441-.06-.21-.11-.44-.051-.23.11-.35zm.91.002q.058 0 .12.008-.68 1.622-1.03 1.622-.341 0-1.052-1.622.064-.008.122-.008.365 0 .469.329.13.37.27.6.15.24.19.24.05 0 .18-.24.14-.23.26-.6.113-.329.472-.329zM50.728 0q.481 3.404-.01 6.137-.89.42-.74.71.11.22.252.22.052 0 .108-.03.871.982 1.432 2.313.22 2.193-.06 7.579 0 1.071.56 1.071h.03q.56 0 .56-1.071-.27-5.386-.06-7.579.551-1.331 1.422-2.312.057.03.109.03.142 0 .252-.22.15-.29-.731-.711-.5-2.733 0-6.137zm12.754 2.198h.055q1.802.01 3.698.227 1.897.217 3.293.518v.453q-1.415.321-3.302.538-1.887.217-3.689.236h-.106q-1.765 0-4.035-.604-.642.283-1.359.302H58q-.68 0-.718-.68.037-.69.702-.69l.053.002q.717.028 1.359.292 2.303-.594 4.086-.594zm6.367 1.915q1.34 2.981 1.377 4.415l-.528-.019q.037-1.415-.85-4.396zm-.548.095q1.057 2.886.812 6.434h-.547q.226-3.548-.906-6.302l.641-.132zM59.396 0l-.642.358q.642.925.642 1.868-.859-.38-1.458-.38-1.125 0-1.335 1.343.208 1.334 1.322 1.334.603 0 1.47-.39 0 .943-.66 1.867l.66.359q.755-1.265 1.095-1.982 1.16.424 2.821.424.339 0 .698-.018 2.123-.104 4.123-.368 1.037 2.68.924 6.83h1.585q.057-1.037.057-2.17h1.056q.132-1.98-1.434-5.037 1.189-.283 1.02-.85.169-.584-.935-.839t-2.689-.462q-1.584-.208-3.707-.312-.396-.019-.766-.019-1.617 0-2.753.369-.34-.66-1.094-1.925zm4.61 13.382q.918 0 1.675.458 1.54.893 2.918.893 1.387 0 2.544-.12v2.383q-1.438-.255-2.076-.255h-.017q-.519 0-1.446.119-3.77.519-4.697.519-1.54 0-2.9-.051-2.332-.136-2.562-.247-.22-.102-.22-.587 0-.476.127-.834.127-.357.425-.51 7.283-.323 7.853-.374-.507-.733-1.573-.733-.345 0-.75.077-1.356.268-2.091.268-.155 0-.282-.012-.724-.068-.672-.69.406.055.838.055.91 0 1.935-.242.506-.117.97-.117zm.216-.69q-.368 0-.728.093-1.454.383-2.56.4-.273 0-.979-.137-.332.307-.332.724 0 .416.264.706-2.782.102-2.782.332-.502.638-.502 1.531 0 .885.468 1.208 1.412.451 5.675.451.68 0 1.387-.068 3.947-.587 4.704-.604h.075q.778 0 2.852.323v-3.76l-.017.017q-1.778.204-2.901.23l-.115.001q-1.07 0-2.2-.597-1.195-.85-2.309-.85zm15.24-10.9l-.152.04q-.106-.02-.197-.02-.091 0-.167.02-.152.051-.182.112-.03.061-.101.112l.05.06.081-.04q.064.029.136.029.18 0 .41-.181l.153-.02-.03-.112zm.74-1.449q.547 0 .769.559.243.627.01 1.073-.195.356-.44.356-.062 0-.127-.022-.172-.061-.101-.172.141-.132.04-.345.101-.324.02-.475-.081-.223-.25-.223-.06 0-.134.03-.132.081-.172.172-.34-.077-.61-.077-.335 0-.565.118.05-.405.385-.648.334-.233 1.012-.334.085-.012.163-.012zM75.06 5.447q1.255.79 2.136 1.073l.435.111q-.435.172-2.055.709-.172-.152-.466-.172l-.283-1.58q.131-.04.233-.141zm5.048-4.168q.086 0 .115.108.06.173-.02.426.06.192-.051.202-.019.003-.035.003-.09 0-.107-.094-.05.111.314.567.354.466 1.053 1.144.698.688.769 3.837l-1.407.708q-.284-1.873-1.316-3.209-.253-.283-.132-.536.132-.243.87-.638.365-.152.102-.365-.253-.212-.324-.455-.172 0-.364.152-.318.159-.45.159-.027 0-.046-.007-.112-.041-.132-.193l.152-.152q.07-.06 0-.111l-.304.07q.05-.262-.131-.283-.064.041-.105.041-.05 0-.068-.06-.04-.132.071-.386.061-.243.193-.374.121-.112.312-.112h.032q.07.004.14.004.14 0 .275-.014l-.02-.111q-.076.01-.165.01-.088 0-.19-.01-.047-.005-.09-.005-.296 0-.446.238-.02-.152 0-.213.256-.178.614-.178.25 0 .55.087v.132q.046.01.084.01.037 0 .068-.01 0-.324.111-.365.044-.017.078-.017zm2.27 6.648q.588 1.033.578 1.833-.01.8-.162 2.57l-2.571-.02.587-3.694 1.569-.689zM80.29 0h-.037q-.699.02-1.286.365-.648.344-.627 1.346.05.274-.03.537-.072.253-.051.516.043.109.138.109.038 0 .084-.018.048-.02.076-.02.069 0 .026.122-.04.02-.02.07.013.027.044.027.016 0 .036-.006-.057.142.029.142h.012l.016-.001q.076 0 .085.092.01.11.122.232.043.044.132.044.138 0 .384-.104l.364-.193q.03.091.132.213-.86.263-1.255.972-.577.698-.942 1.447-.87-.253-2.571-.971-.152-.213-.496-.274l-.436-2.338q-.131-.73.345-1.296L74.239.78q-.628.537-.426 1.64l.385 2.227-.344.02q-.04.173.172.254-.04.668.344.698l.284 1.549q-.223.04-.436.07-.02.193.243.254-.088.648.358.648h.027l.04.395.456-.092-.091-.415q.111-.06.223-.1 2.176-.264 2.693-.78.698-1.084 1.022-1.68.709.576 1.164 2.803h-.055q-.479 0-.43.345.039.285.27.285.065 0 .144-.022l-.688 4.16q-.607 2.703-.88 3.351-.153.517-.507.618-.364.091-1.164.547-.446.09-.496.243-.04.151.212.182.052.006.115.006.23 0 .604-.087.19-.04.416-.04.34 0 .758.09.097.02.178.02.516 0 .42-.779-.04-.567.658-1.61.698-1.042.77-2.47l.323-.324 1.033-.02.02.496q.283 1.944.304 2.561.131 1.003-.243 1.155-.385.141-1.154.597-.456.07-.517.223-.05.151.213.192.063.01.14.01.232 0 .589-.091.187-.044.43-.044.376 0 .886.105.118.024.21.024.57 0 .134-.915.03-.952.213-1.974.182-1.023-.213-2.065l.202-.274.122-2.794q.03-1.205-.84-2.693-.04-.546-.132-1.923-.08-1.387-.749-2.005-.668-.627-.739-.759.375-.263.496-.688.132-.436-.162-1.185Q80.968 0 80.289 0zm9.331 0q-.155 0-.404.083-.667.51-1.63 1.57-.784.589-1.04 1.217-.058.177-.353.775-.294.6-.824 2.483.022.571.179.571.124 0 .331-.355.157-.49.452-1.344.294-.854.942-1.423.373-.295.628-.393.589 0 .589.785v9.697q.04.55-.295.883-.647.471-.883 1.295-.137.746.118 2.042.157.114.397.114.09 0 .192-.016-.177-.707-.177-1.237-.098-1.08.589-1.57.177-.137.451-.137.314 0 .471.098.668.51.57 1.61 0 .53-.177 1.216.124.026.231.026.214 0 .358-.104.255-1.296.137-2.022-.216-.844-.844-1.315-.392-.334-.353-.883V3.969q-.02-1.55-1.119-1.61.295-.49 1.119-1.314.373-.197.589-.687Q89.945 0 89.62 0zm7.477.601c1.074 0 2.418.552 3.069 1.202.569.57.643 1.324.664 2.025h-7.435c.021-.7.096-1.455.665-2.025.65-.65 1.963-1.202 3.037-1.202zm0-.601c-1.274 0-2.645.589-3.449 1.392-.824.824-.917 1.91-.917 2.72v.317h8.732v-.316c0-.812-.062-1.897-.886-2.72C99.775.588 98.372 0 97.098 0zm.021 9.696q.811 0 1.654.354l-1.602 1.624-1.644-1.624q.78-.354 1.592-.354zm-3.507 2.123l1.623 1.623-1.623 1.624q-.707-1.686 0-3.247zm7.013.083q.708 1.686 0 3.247l-1.623-1.623 1.623-1.624zm-1.27-1.373q.5.229.792.79l-2.206 2.227 2.185 2.186q-.27.54-.812.79l-2.185-2.185-2.143 2.144q-.541-.333-.791-.812l2.143-2.123-2.247-2.247q.229-.541.811-.77l2.227 2.227 2.227-2.227zm-2.184 4.828l1.623 1.623q-.79.354-1.602.354t-1.644-.354l1.623-1.623zm-.042-6.347q-2.143 0-3.382 1.394-1.238 1.394-1.238 3.06 0 1.872 1.447 3.194 1.446 1.321 3.132 1.342 2.039-.02 3.319-1.405 1.28-1.384 1.28-3.132l-.021.042q.02-1.582-1.26-3.039Q99.128 9.01 97.13 9.01zM109.094.597c.269.002.505.041.692.109-.031.223-.169.569-.953.773.73-.053 1.206-.113 1.452-.307.09.2.137.427.159.556a.297.297 0 0 0 .206.237c.625.191 1.174 1.112 1.7 1.763.95 1.173 1.771 2.48 2.688 3.733l-1.27-.622c-1.182-.622-2.395-1.11-3.407-1.877-.589-.49-1.172-.996-1.39-1.641-.076-.497.296-1.074.767-1.279a.297.297 0 1 0-.238-.545c-.377.164-.7.458-.904.817.01-.152.032-.308.075-.448a.297.297 0 0 0 .012-.104 1.372 1.372 0 0 0-.082-.422c-.04-.109-.084-.206-.157-.459a.297.297 0 0 0-.105-.153 1.53 1.53 0 0 1 .528-.125c.042-.003.083-.003.124-.004a.258.258 0 1 0 .103-.002zm1.193 5.432c.606.466 1.254.873 1.889 1.28-.005.438.006.879.046 1.321a2.215 2.215 0 0 0-.697-.3c-.39-.636-.82-1.22-1.082-1.842a4.553 4.553 0 0 1-.156-.46zm-.248 1c.273.549.621 1.04.928 1.529-.059.04-.112.08-.154.121l-.028.027a1.713 1.713 0 0 0-.613-.454c.01-.348-.047-.768-.133-1.222zm2.88.047a25.922 25.922 0 0 1 .588.297c.78.38 1.56.772 2.349 1.148.556.67 1.157 1.293 1.735 1.92l-1.044.175-2.562-2.786a.297.297 0 0 0-.04-.036 19.147 19.147 0 0 0-1.026-.718zm-2.592 2.009c.058.066.112.14.162.222a.298.298 0 0 0 .43.087c.124-.09.2-.177.265-.244l.077 1.413c-.1-.006-.201-.013-.296-.013-.167 0-.313.022-.398.108-.1-.078-.28-.1-.504-.1-.058 0-.118.002-.18.005l.444-1.478zm-5.418.999c.451.062.686.323.704.783h-1.395c0-.46.23-.721.69-.783zm7.86-2.39c.274.182.542.367.798.56l2.403 2.613h-2.456c-.171-.19-.519-.365-.776-.365a.366.366 0 0 0-.192.046 2.987 2.987 0 0 0-.256-.01c-.14 0-.286.007-.434.016l-.082-1.506c.224.115.407.282.625.542a.297.297 0 0 0 .52-.246 9.753 9.753 0 0 1-.15-1.65zm-6.24 3.745l-.266.465h-1.248l-.252-.465zm4.516 0v2.51l-1.727-2.51zM109.101 0a3.878 3.878 0 0 0-.272.01c-.694.044-1.215.325-1.408.768a.298.298 0 0 0 .34.408l.025-.006.03.007.108.029c.055.168.096.269.12.332a.541.541 0 0 1 .043.2 3.112 3.112 0 0 0-.037 1.389c.095.466.384.977.761 1.46a.295.295 0 0 0 .014.108c.183.559.396 1.318.548 2.027.152.708.233 1.387.192 1.684a.3.3 0 0 0 .223.33l.019.005-.527 1.75a1.787 1.787 0 0 0-.26-.018c-.256 0-.509.041-.712.041a.865.865 0 0 1-.183-.016.314.314 0 0 0-.068-.007c-.212 0-.657.13-.787.366h-1.1c-.061-.797-.482-1.235-1.261-1.315-.788.08-1.196.518-1.222 1.315v.572h.531l.545 1.01h1.766l.532-1.01h1.567l2.404 3.493V18h.571v-6.561h4.516v-.41l.1.109a.297.297 0 0 0 .268.092l1.74-.292a.298.298 0 0 0 .173-.492 49.17 49.17 0 0 0-.657-.716l1.657 1.078a.296.296 0 0 0 .412-.087.297.297 0 0 0-.087-.411l-1.345-.876a.292.292 0 0 0 .076-.09.315.315 0 0 0 .02-.237.305.305 0 0 0-.048-.093c-.055-.076-.084-.088-.124-.119a2.938 2.938 0 0 0-.13-.094c-.096-.065-.206-.137-.301-.2a4.156 4.156 0 0 1-.217-.156l-2.378-1.672-.008-.005c-.805-1.13-1.568-2.316-2.457-3.414-.433-.535-.938-1.524-1.812-1.894-.048-.262-.157-.68-.484-.997-.353-.344-.863-.463-1.416-.463z"/><path d="M129.543.375v17.25M121.855.375c9.625 0 9.625 17.25 0 17.25" fill="none" stroke="#000"/><path d="M137.512.597c.27.002.505.041.692.109-.03.223-.168.569-.953.773.73-.053 1.207-.113 1.453-.307.089.2.137.427.158.556a.297.297 0 0 0 .206.237c.625.191 1.174 1.112 1.701 1.763.95 1.173 1.77 2.48 2.687 3.733-.423-.207-.845-.415-1.27-.622-1.182-.622-2.394-1.11-3.406-1.877-.59-.49-1.172-.996-1.391-1.641-.076-.497.296-1.074.767-1.279a.297.297 0 1 0-.238-.545 1.957 1.957 0 0 0-.904.817c.01-.152.032-.308.075-.448a.297.297 0 0 0 .013-.104 1.372 1.372 0 0 0-.082-.422c-.04-.109-.085-.206-.158-.459a.297.297 0 0 0-.104-.153c.14-.062.315-.112.527-.125.043-.003.083-.003.125-.004a.258.258 0 1 0 .102-.002zm1.194 5.432c.605.466 1.253.873 1.888 1.28-.005.438.006.879.047 1.321a2.215 2.215 0 0 0-.697-.3c-.391-.636-.82-1.22-1.083-1.842a4.553 4.553 0 0 1-.155-.46zm-.249 1c.273.549.621 1.04.929 1.529-.06.04-.113.08-.155.121l-.027.027a1.713 1.713 0 0 0-.614-.454c.01-.348-.047-.768-.133-1.222zm2.88.047a25.922 25.922 0 0 1 .588.297c.78.38 1.56.772 2.35 1.148.556.67 1.156 1.293 1.734 1.92l-1.043.175-2.563-2.786a.297.297 0 0 0-.04-.036 19.147 19.147 0 0 0-1.025-.718zm-2.591 2.009c.058.066.112.14.162.222a.298.298 0 0 0 .429.087c.124-.09.2-.177.265-.244l.077 1.413c-.1-.006-.2-.013-.296-.013-.166 0-.313.022-.397.108-.1-.078-.28-.1-.505-.1-.057 0-.118.002-.18.005l.445-1.478zm-5.419.999c.452.062.686.323.704.783h-1.395c0-.46.23-.721.691-.783zm7.861-2.39c.274.182.542.367.798.56l2.402 2.613h-2.456c-.17-.19-.518-.365-.776-.365a.366.366 0 0 0-.192.046 2.987 2.987 0 0 0-.256-.01c-.14 0-.285.007-.433.016l-.083-1.506c.225.115.407.282.626.542a.297.297 0 0 0 .52-.246 9.753 9.753 0 0 1-.15-1.65zm-6.24 3.745l-.266.465h-1.249l-.252-.465zm4.516 0v2.51l-1.727-2.51zM137.52 0a3.878 3.878 0 0 0-.273.01c-.694.044-1.215.325-1.408.768a.298.298 0 0 0 .341.408l.025-.006.03.007.108.029c.054.168.096.269.12.332a.541.541 0 0 1 .042.2 3.112 3.112 0 0 0-.037 1.389c.095.466.384.977.761 1.46a.295.295 0 0 0 .014.108c.183.559.396 1.318.548 2.027.153.708.234 1.387.192 1.684a.3.3 0 0 0 .224.33l.018.005-.527 1.75a1.787 1.787 0 0 0-.259-.018c-.256 0-.51.041-.712.041a.865.865 0 0 1-.184-.016.314.314 0 0 0-.068-.007c-.212 0-.656.13-.787.366h-1.1c-.061-.797-.482-1.235-1.26-1.315-.789.08-1.196.518-1.223 1.315v.572h.531l.545 1.01h1.767l.53-1.01h1.568l2.404 3.493V18h.571v-6.561h4.517v-.41l.1.109a.297.297 0 0 0 .267.092l1.74-.292a.298.298 0 0 0 .173-.492 49.17 49.17 0 0 0-.656-.716l1.656 1.078a.296.296 0 0 0 .412-.087.297.297 0 0 0-.087-.411l-1.345-.876a.292.292 0 0 0 .076-.09.315.315 0 0 0 .02-.237c-.016-.05-.034-.074-.048-.093-.055-.076-.084-.088-.123-.119a2.938 2.938 0 0 0-.131-.094l-.3-.2a4.156 4.156 0 0 1-.217-.156l-2.379-1.672-.008-.005c-.805-1.13-1.568-2.316-2.457-3.414-.433-.535-.937-1.524-1.812-1.894-.048-.262-.156-.68-.483-.997-.353-.344-.864-.463-1.416-.463zm27.187 7.458v1.656c-.565 0-.848-.283-.848-.848 0-.539.283-.808.848-.808zM166.802 0c-.463 0-.855.116-1.176.35-.612.443-.919 1.09-.919 1.938v4.584c-.942 0-1.42.465-1.433 1.394 0 .942.477 1.413 1.433 1.413V18h.747V2.732c0-1.023.198-1.68.596-1.969.205-.15.475-.225.838-.225.337 0 .754.065 1.273.195a.65.65 0 0 0 .212.043c.111 0 .189-.048.232-.144.014-.162-.108-.276-.363-.343-.539-.193-1.019-.289-1.44-.289zm8.068 5.565c3.71 0 3.71-5.565 0-5.565-3.711 0-3.711 5.565 0 5.565zm-1.222 4.062c-5.438 1.9-2.903 9.54 2.195 8.228 5.054-1.302 4.046-9.318-2.195-8.228m.243.698c5.418-.787 5.64 5.768 1.708 6.812-3.846 1.022-6.482-5.13-1.708-6.812m1.189 1.152c1.082-.74-.885-.487 0-.018v.018m-1.986.433c1.228-.397-.343-.795 0-.073v.073m2.993-.712v.732l.731-.244-.73-.488m-3.572 2.066c.903-.795-.595-.885-.108-.09l.108.09m2.84-.846l-.245.731.732-.487-.488-.244m-1.052.358l-.072-.017c-.668-.489-1.39 1.767.072.017m3.014-.397c-.956.56.162.703.253.703l-.253-.703m-2.938 1.502l.244.244.488-.732-.732.488m1.675-.474l-.469.019c.559.866.757.793.469-.019m-3.681 1.517c.883-.74-.434-.632-.416-.488l.416.488m1.01-.903l.22.305c.719-.215.34-.792-.22-.305m3.435.836l.244.244.488-.732-.732.488m-1.323.012c-.758-.378-.92-.27-.47.344l.47-.344m-2.579.72l.244.731.488-.732h-.732m3.246-.465l-.45.54c.107.217 1.1.145.45-.54m-1.539.71l-.244.731h.732l-.488-.732zM182.646 0l-1.581 1.582v.707l2.112-2.112.177-.177zm3 0l-4.581 4.582v.707l5.112-5.112.177-.177zm3 0l-7.581 7.582v.707l8.112-8.112.177-.177zm3 0l-10.581 10.582v.707L192.177.177l.177-.177zm3 0l-13.581 13.582v.707L195.177.177l.177-.177zm3 0l-16.581 16.582v.707L198.177.177l.177-.177zm3 0l-17.823 17.823-.177.177h.708L201.177.177l.177-.177zm2.419.582l-17.242 17.241-.177.177h.708l16.71-16.711V.582zm0 3l-14.242 14.241-.177.177h.708l13.71-13.711v-.707zm0 3l-11.242 11.241-.177.177h.708l10.71-10.711v-.707zm0 3l-8.242 8.241-.177.177h.708l7.71-7.711v-.707zm0 3l-5.242 5.241-.177.177h.708l4.71-4.711v-.707zm0 3l-2.242 2.241-.177.177h.708l1.71-1.711v-.707z"/></svg>