<svg xmlns="http://www.w3.org/2000/svg" width="56.772" height="18"><path d="M11.116 8.203c-.51.04-.793.296-.847.767.067.51.35.78.847.806.498-.026.76-.295.787-.806-.04-.47-.303-.726-.787-.767zm.06-1.694c.364 0 .7.068 1.01.202a2.659 2.659 0 0 1 1.371 1.361c.134.303.201.622.201.958 0 .35-.067.676-.202.978a2.567 2.567 0 0 1-2.38 1.523c-.362 0-.702-.064-1.018-.192a2.426 2.426 0 0 1-.816-.534 2.621 2.621 0 0 1-.545-.797 2.38 2.38 0 0 1-.202-.978c0-.336.068-.655.202-.958.134-.302.316-.571.545-.806.228-.236.5-.42.816-.555a2.574 2.574 0 0 1 1.019-.202zm-.04-.685c-.443 0-.86.084-1.25.252-.39.168-.726.396-1.008.685a3.36 3.36 0 0 0-.676 1.009 3.053 3.053 0 0 0-.252 1.24c0 .444.084.857.252 1.24.168.384.393.716.676.999a3.2 3.2 0 0 0 2.258.927c.444 0 .857-.084 1.24-.252a3.36 3.36 0 0 0 1.009-.675c.289-.283.518-.615.686-.999.168-.383.252-.796.252-1.24 0-.444-.084-.857-.252-1.24a3.268 3.268 0 0 0-1.694-1.694 3.053 3.053 0 0 0-1.24-.252zm5.996-3.574c-.698 0-1.31.513-1.31 1.171V15.75h.853V3.421c0-.322.284-.427.462-.427.187 0 .475.131.475.527v8.103h.852V3.521c0-.66-.653-1.271-1.332-1.271zm4.622 8.838c.4.153.837.645.964 1.05.128.406.113.879.023 1.344-.09.458-.27.894-.488 1.18-.15.195-.285.307-.413.345h-.12c-.128-.03-.293-.143-.458-.346-.218-.285-.398-.72-.488-1.179-.09-.465-.105-.938.022-1.344.128-.405.606-.931.958-1.046v-.004zm-.425-8.838v.901h-.81v.578h.81l-.112 6.818c-.578.3-.939.81-1.111 1.359a3.576 3.576 0 0 0-.068 1.734 3.49 3.49 0 0 0 .646 1.457c.232.3.54.548.9.623v.022c.023.008.046.008.068.008.03 0 .06-.008.09-.008a.532.532 0 0 0 .106.008c.03 0 .052 0 .082-.008v-.022c.36-.075.668-.323.901-.623a3.49 3.49 0 0 0 .646-1.457 3.576 3.576 0 0 0-.068-1.734 2.228 2.228 0 0 0-1.111-1.337l-.113-6.84h.766l.023-.578h-.856V2.25h-.789zm7.459.664q2.724.331 0 5.047-2.725-4.716 0-5.047zm0-.664q-3.772.262-.524 6.06H25.05v.821h3.179v6.619h1.083V9.096h3.213V8.31h-3.213q3.248-5.815-.524-6.06zm9.045.664v4.708h-3.158V2.914zm-3.808-.664v6.021h4.472V2.25zm3.808 8.143V15.1h-3.158v-4.708zm-3.808-.664v6.021h4.472V9.729zm7.528-6.636q1.511.22 1.58 1.382v8.382q-.706-.843-2.536-1.184l.956-8.58zm-.425-.843l-1.131 10.022q2.52.289 3.136 1.8v1.678h.751V4.475q0-1.883-2.756-2.225zm5.812.843q1.512.22 1.58 1.382v8.382q-.706-.843-2.536-1.184l.957-8.58zm-.424-.843l-1.132 10.022q2.521.289 3.136 1.8v1.678h.752V4.475q0-1.883-2.756-2.225z"/><path d="M7.95.375c-9.625 0-9.625 17.25 0 17.25m0-17.25h41.322M7.95 17.625h41.322m0-17.25c9.625 0 9.625 17.25 0 17.25" fill="none" stroke="#000"/></svg>