<svg xmlns="http://www.w3.org/2000/svg" width="39.269" height="18"><path d="M14.213 4.63c-.51.04-.793.295-.847.766.067.51.35.78.847.807.498-.027.76-.296.787-.807-.04-.47-.303-.726-.787-.766zm.06-1.694c.364 0 .7.067 1.009.201a2.659 2.659 0 0 1 1.371 1.361c.135.303.202.622.202.959 0 .35-.067.675-.202.978a2.567 2.567 0 0 1-2.38 1.523c-.362 0-.702-.065-1.018-.192a2.426 2.426 0 0 1-.817-.535 2.621 2.621 0 0 1-.544-.796 2.38 2.38 0 0 1-.202-.978c0-.337.068-.656.202-.958.134-.303.316-.572.544-.807.229-.235.501-.42.817-.555a2.574 2.574 0 0 1 1.019-.201zm-.04-.686c-.443 0-.86.084-1.25.252-.39.168-.726.397-1.008.686a3.36 3.36 0 0 0-.676 1.008 3.053 3.053 0 0 0-.252 1.24c0 .444.084.857.252 1.24.168.384.393.717.676.999a3.2 3.2 0 0 0 2.258.928c.444 0 .857-.084 1.24-.253a3.36 3.36 0 0 0 1.009-.675c.289-.282.518-.615.686-.998.168-.384.252-.797.252-1.24 0-.444-.084-.858-.252-1.24a3.268 3.268 0 0 0-1.694-1.695 3.053 3.053 0 0 0-1.24-.252zM9.491 13.928L7.95 15.75h.752l.79-.942.797.942.774-.942.797.942.79-.942.797.942.79-.942.797.942.775-.942.797.942.797-.942.775.942.797-.942.79.942h.752l-1.542-1.822-.797.88-.775-.88-.797.88-.797-.88-.775.88-.797-.88-.79.88-.797-.88-.79.88-.797-.88-.774.88-.798-.88zM22.767 3.897q-.09 0-.216.11-.496.668-.534 1.909.152.973.687 2.748-.191 1.431-.287 3.931-.076.84.458 1.088 1.585.42 4.008.42 2.443 0 4.008-.42.554-.248.477-1.088-.095-2.5-.286-3.931.534-1.775.687-2.748-.038-1.241-.534-1.909-.126-.11-.216-.11-.129 0-.185.225.134.381.248.744.153.458.115.859-.039.649-.124 1.059-.086.41-.354.41l-.028.001q-.449 0-.449-1.203 0-.44.115-1.069-.098-.167-.212-.167-.107 0-.227.148-.057.458-.076 1.012-.077.84.4 2.366-.171 2.157-.171 4.313-1.298.21-3.188.267-1.87-.057-3.168-.267 0-2.156-.172-4.313.478-1.527.401-2.366-.019-.554-.076-1.012-.12-.148-.227-.148-.114 0-.212.167.114.63.114 1.069 0 1.203-.449 1.203h-.028q-.267 0-.353-.411-.086-.41-.124-1.06-.038-.4.115-.858.114-.363.248-.744-.056-.225-.185-.225z"/><path d="M7.95.375c-9.625 0-9.625 17.25 0 17.25m0-17.25h23.82M7.95 17.625h23.82m0-17.25c9.624 0 9.624 17.25 0 17.25" fill="none" stroke="#000"/></svg>