<svg xmlns="http://www.w3.org/2000/svg" width="56.937" height="18"><path d="M11.116 8.203c-.51.04-.793.296-.847.767.067.51.35.78.847.806.498-.026.76-.295.787-.806-.04-.47-.303-.726-.787-.767zm.06-1.694c.364 0 .7.068 1.01.202a2.659 2.659 0 0 1 1.371 1.361c.134.303.201.622.201.958 0 .35-.067.676-.202.978a2.567 2.567 0 0 1-2.38 1.523c-.362 0-.702-.064-1.018-.192a2.426 2.426 0 0 1-.816-.534 2.621 2.621 0 0 1-.545-.797 2.38 2.38 0 0 1-.202-.978c0-.336.068-.655.202-.958.134-.302.316-.571.545-.806.228-.236.5-.42.816-.555a2.574 2.574 0 0 1 1.019-.202zm-.04-.685c-.443 0-.86.084-1.25.252-.39.168-.726.396-1.008.685a3.36 3.36 0 0 0-.676 1.009 3.053 3.053 0 0 0-.252 1.24c0 .444.084.857.252 1.24.168.384.393.716.676.999a3.2 3.2 0 0 0 2.258.927c.444 0 .857-.084 1.24-.252a3.36 3.36 0 0 0 1.009-.675c.289-.283.518-.615.686-.999.168-.383.252-.796.252-1.24 0-.444-.084-.857-.252-1.24a3.268 3.268 0 0 0-1.694-1.694 3.053 3.053 0 0 0-1.24-.252zm7.165-3.229q-.082.871-.082 1.953 0 1.08.105 2.184-.24-.127-.75-.127-.519 0-.752.127.113-1.103.105-2.184-.007-1.082-.082-1.953zm-.728 4.475q.51.008 1.036.27l-.135.248q-.106-.018-.199-.018-.32 0-.477.221-.09-.398-.225-.488-.135.09-.233.488-.157-.221-.477-.221-.092 0-.198.018l-.136-.247q.541-.263 1.044-.27zm0 .721q.113.09.075.263-.037.173-.075.33-.045-.157-.082-.33-.038-.173.082-.263zm.684.001q.042 0 .09.007-.511 1.216-.774 1.216-.255 0-.788-1.216.048-.007.091-.007.274 0 .352.247.097.278.202.45.113.18.143.18.038 0 .135-.18.105-.172.195-.45.085-.247.354-.247zM16.402 2.25q.36 2.553-.008 4.603-.668.315-.555.533.082.164.189.164.039 0 .081-.022.653.736 1.074 1.735.165 1.644-.045 5.684 0 .803.42.803h.023q.42 0 .42-.803-.203-4.04-.045-5.684.413-.999 1.066-1.735.043.022.082.022.106 0 .189-.164.112-.218-.549-.533-.375-2.05 0-4.603zm10.353 1.802h.046q1.477.008 3.032.186t2.7.425v.372q-1.16.263-2.707.44-1.548.179-3.025.194h-.087q-1.447 0-3.309-.495-.526.232-1.114.248h-.03q-.559 0-.589-.557.03-.566.575-.566h.044q.588.024 1.114.24 1.889-.487 3.35-.487zm5.221 1.57q1.098 2.445 1.13 3.62l-.434-.015q.031-1.16-.696-3.604zm-.449.078q.867 2.367.666 5.276h-.45q.187-2.909-.742-5.168l.526-.108zm-8.122-3.45l-.526.294q.526.758.526 1.532-.704-.312-1.195-.312-.923 0-1.095 1.1.171 1.095 1.084 1.095.494 0 1.206-.32 0 .773-.541 1.53l.541.295q.619-1.037.897-1.625.951.347 2.314.347.277 0 .572-.014 1.74-.085 3.38-.302.851 2.197.758 5.6h1.3q.046-.85.046-1.778h.867q.108-1.625-1.176-4.131.974-.232.835-.696.14-.48-.766-.689-.905-.209-2.204-.379-1.3-.17-3.04-.255-.325-.016-.629-.016-1.325 0-2.257.302-.278-.541-.897-1.578zm1.31 11.063q.485 0 .884.242.813.471 1.54.471.732 0 1.342-.063v1.257q-.758-.134-1.095-.134h-.01q-.273 0-.762.062-1.99.274-2.479.274-.812 0-1.53-.027-1.23-.072-1.352-.13-.117-.054-.117-.31 0-.251.068-.44.067-.188.224-.269 3.843-.17 4.144-.198-.268-.386-.83-.386-.182 0-.396.04-.715.142-1.103.142-.082 0-.15-.007-.38-.035-.354-.363.214.029.443.029.48 0 1.02-.128.268-.062.513-.062zm.114-.364q-.194 0-.384.049-.768.202-1.351.21-.144 0-.516-.071-.176.162-.176.382t.14.372q-1.469.054-1.469.175-.264.337-.264.809 0 .466.247.637.745.238 2.994.238.36 0 .732-.036 2.083-.31 2.483-.319h.039q.41 0 1.505.17v-1.983l-.009.008q-.938.108-1.53.122h-.062q-.564 0-1.16-.315-.63-.448-1.219-.448zm6.82-.292l-.009.004 1.607 3.08h.606l-1.607-3.084zm-1.347.004l-.606.005 1.607 3.084.606-.004-1.607-3.085zm17.565-9.773c.121 0 .182.44.182.562 0 .121-.06.562-.182.562H36.204c-.142 0-.213-.44-.213-.562 0-.122.071-.562.213-.562zM35.839 2.25c-.324 0-.486.653-.486 1.2 0 .546.162 1.2.486 1.2h12.392c.304 0 .456-.654.456-1.2 0-.547-.152-1.2-.456-1.2zm12.028 11.738c.121 0 .182.44.182.562 0 .122-.06.562-.182.562H36.204c-.142 0-.213-.44-.213-.562 0-.121.071-.562.213-.562zm-12.028-.637c-.324 0-.486.653-.486 1.2 0 .546.162 1.199.486 1.199h12.392c.304 0 .456-.653.456-1.2 0-.546-.152-1.2-.456-1.2z"/><path d="M7.95.375c-9.625 0-9.625 17.25 0 17.25m0-17.25h40.737M7.95 17.625h40.737M56.374.375v17.25M48.687.375c9.625 0 9.625 17.25 0 17.25" fill="none" stroke="#000"/></svg>