<svg xmlns="http://www.w3.org/2000/svg" width="71.882" height="18"><path d="M3.46.474c.693 0 1.247.2 1.634.479.006.053.02.107.009.16-.05.248-.195.477-.396.63-.316.207-.697.267-1.057.356-.09.01-.019.031.031.04.23.04.707.099.971.099l.052-.001c.278-.032.54-.148.766-.311.079-.067.147-.15.205-.236.147.346.227.713.26.917.018.11.096.2.202.233 1.139.349 2.038 1.91 2.88 2.949 1.729 2.137 3.199 4.526 4.892 6.76-.937-.456-1.87-.916-2.81-1.374-1.92-1.01-3.92-1.816-5.604-3.09l-.008-.008c-.97-.808-1.963-1.66-2.339-2.793C3 4.364 4.905 2.707 4.69 2.638a.207.207 0 0 0-.064-.01c-.458 0-1.753 1.128-2.019 2.202-.003-.014-.01-.03-.014-.045-.073-.356-.154-1.256.068-1.98a.29.29 0 0 0 .01-.103 1.968 1.968 0 0 0-.123-.634c-.063-.17-.139-.344-.26-.765-.031-.108-.142-.328-.208-.345.186-.138.375-.28.645-.375a.434.434 0 0 0-.132.314c0 .23.164.415.365.415.2 0 .364-.186.364-.415V.894a.411.411 0 0 0-.255-.39c.053-.007.096-.019.154-.022.081-.006.16-.008.238-.008zm.67 7.763c.065.065.135.124.202.187.214.78.412 1.64.692 2.305.483 1.145 1.216 2.141 1.84 3.154a1.814 1.814 0 0 0-.385.27 6.831 6.831 0 0 0-.199.193 2.61 2.61 0 0 0-1.186-.897c.045-.723-.108-1.712-.34-2.787a34.903 34.903 0 0 0-.624-2.425zm1.006.908c1.149.945 2.428 1.738 3.676 2.54-.018.91-.018 1.778.084 2.675a3.411 3.411 0 0 0-1.437-.736c-.02 0-.037.012-.057.012-.649-1.063-1.383-2.06-1.837-3.134-.156-.37-.293-.85-.429-1.357zm.407 5.254a2.5 2.5 0 0 1 .44.541.3.3 0 0 0 .257.14.29.29 0 0 0 .17-.053c.215-.156.347-.324.476-.446.047-.045.097-.08.148-.117l.149 2.722c-.213-.014-.435-.035-.637-.035-.264 0-.495.036-.633.172-.169-.134-.497-.164-.89-.164-.102 0-.207.002-.316.004l.836-2.764zM6.7 9.574c1.354.787 2.784 1.414 4.135 2.125a.244.244 0 0 0 .006.003c1.295.631 2.586 1.28 3.894 1.904.984 1.189 2.052 2.295 3.078 3.42l-2.15.362-4.267-4.635a.288.288 0 0 0-.037-.036C9.861 11.58 8.208 10.635 6.7 9.574zM3.526 0c-.135 0-.273.005-.411.013C2.03.083 1.242.54.973 1.157c-.04.093-.146.314-.007.314a2.35 2.35 0 0 1 .341-.028c.418 0 .38.172.47.194.09.282.29.846.303 1.068-.244.86-.153 1.763-.064 2.198.15.732.63 1.584 1.261 2.38a.285.285 0 0 0 0 .166 35.3 35.3 0 0 1 .903 3.336c.251 1.168.393 2.277.317 2.823a.294.294 0 0 0 .221.328c.045.011.084.031.127.045l-.928 3.079a2.847 2.847 0 0 0-.593-.055c-.381 0-.756.05-1.064.05-.125 0-.24-.008-.34-.032a.546.546 0 0 0-.125-.012c-.436 0-1.428.306-1.34.879.15-.128.257-.159.375-.159.11 0 .23.027.405.027h.027c.254-.004.697-.083 1.053-.083.18 0 .338.02.438.08.236-.01.45-.013.649-.013.85 0 1.447.07 2.5.075a89.565 89.565 0 0 0 2.974-.079c.45.003.697.054.922.054h.04c.134-.004.265-.057.48-.057.123 0 .273.017.468.07-.25-.341-.877-.685-1.33-.685a.591.591 0 0 0-.302.071 5.081 5.081 0 0 0-.508-.022c-.22 0-.448.01-.678.02l-.157-2.83c.487.203.857.517 1.281 1.021a.295.295 0 0 0 .513-.246c-.192-1.039-.213-2.019-.202-3.06.54.354 1.072.713 1.576 1.094l4.36 4.738a.29.29 0 0 0 .263.09c.95-.159 1.9-.315 2.849-.474a.294.294 0 0 0 .23-.193.298.298 0 0 0-.06-.297c-.741-.83-1.508-1.631-2.25-2.445 1.269.78 2.875 1.755 3.08 1.755.022 0 .027-.013.012-.04-.094-.163-.9-.755-1.775-1.373.14.058.276.12.415.177l.017.01c.103.035.16.059.27.062a.286.286 0 0 0 .108-.016.317.317 0 0 0 .188-.152.32.32 0 0 0 .023-.238c-.017-.05-.038-.077-.054-.098-.061-.085-.103-.109-.162-.154a4.553 4.553 0 0 0-.205-.149c-.153-.105-.336-.223-.493-.328a4.992 4.992 0 0 1-.328-.233.307.307 0 0 0-.028-.025l-3.892-2.736c-.008-.006-.02-.001-.028-.006-1.333-1.869-2.588-3.825-4.046-5.627-.744-.92-1.598-2.528-2.985-3.064-.067-.396-.218-1.127-.755-1.649C5.277.26 4.618.056 3.877.011A5.728 5.728 0 0 0 3.526 0zm20.331 11.783c.534.205 1.116.861 1.286 1.402.17.54.15 1.171.03 1.792-.12.61-.36 1.191-.65 1.571-.2.26-.38.41-.551.46h-.16c-.17-.04-.39-.19-.611-.46-.29-.38-.53-.96-.65-1.571-.12-.621-.14-1.252.03-1.792.17-.541.807-1.243 1.276-1.395v-.007zM23.29 0v1.201h-1.08v.771h1.081l-.15 9.09c-.77.4-1.251 1.081-1.482 1.812-.23.751-.24 1.562-.09 2.313.15.75.45 1.411.861 1.942.31.4.721.73 1.201.831v.03c.03.01.06.01.09.01.04 0 .08-.01.12-.01.05.01.1.01.14.01.04 0 .071 0 .111-.01v-.03c.48-.1.891-.43 1.201-.831.41-.53.711-1.191.861-1.942.15-.751.14-1.562-.09-2.313a2.97 2.97 0 0 0-1.481-1.782l-.15-9.12h1.02l.03-.77h-1.14V0H23.29zm7.268.89q-.029 0-.059.003-.248.027-.327.367.136.102.305.102.091 0 .193-.03.288-.085.183-.275Q30.76.89 30.558.89zm.195-.098q.316 0 .466.193.184.236.184.426t-.079.477q-.48-.24-1.197-.24-.454 0-1.002.096.17-.327.608-.608.439-.282.871-.334.079-.01.149-.01zm2.289-.425q1.129 0 2.027.343 1.335.51 2.173 1.218l-.353.21q-.302-.171-.864-.459-.563-.288-1.552-.655-.988-.366-2.586-.576.605-.081 1.155-.081zm-1.377.37q2.513.366 3.607.916 1.093.55 2.363 1.316t2.003.936q-.301.445-.196.76-.786-.511-1.192-.754-.406-.242-1.06-.425-.655-.183-1.218-.23-.563-.045-1.65-.287-1.086-.243-1.656-.393-.57-.15-1.014-.439.235-.51.013-1.4zM32.743 0q-1.35 0-2.597.402-1.44.465-1.637 1.919.813-.19 1.455-.19.818 0 1.36.307.812.943 1.14 1.153 0-.603.3-.603h.013q1.074.367 2.357.55 1.14.917 1.48.917.057 0 .091-.027-.235-.432-.118-.746.289.105.884.275.596.17 1.349.733t1.067.747q.026-.013.177-.04.15-.026-.053-.307-.203-.282-.176-.819.209-.366.53-.425.32-.06.255-.334-.655-.04-1.296-.17-.642-.131-1.093-.42l-.845-.536q.131-.275.681-.354Q36.679.92 35.71.501 34.741.08 33.164.01 32.952 0 32.743 0zm-.534 11.936c.855.961 1.563 2.057 2.194 3.171.133.164-.017.313-.126.469-.416-1.32-1.373-2.34-2.068-3.64zm-.828-4.85c.072.333-.06.717-.312.83l.08.173c.316-.15.619-.599.664-1.001.43.025.548.35.615.725.08.257-.001.881.324.989.962.372 1.697.803 2.357 1.454 1.139 1.424 2.329 2.803 3.467 4.228.443.555.847 1.063 1.176 1.446-1.73-1.292-3.661-2.28-5.557-3.308-1.007-.547-1.969-.995-1.969-2.2 0-.648 1.195-1.191 1.146-1.276-.005-.007-.019-.01-.04-.01-.245 0-1.5.465-1.5 1.446 0 .272.072.524.199.76l-.006-.001c-1.376-.73-1.158-2.205-1.104-3.505-.572-.032-1.043-.344-1.587-.474.422-.055.842-.125 1.264-.168a.335.335 0 0 0-.2.126c-.007.139.15.2.303.2.149 0 .294-.059.28-.16a.383.383 0 0 0-.327-.172c.21-.03.49-.075.727-.101zm2.404 8.367c.124.3.188.617.257.932a4 4 0 0 0 .56-.528c-.107.583-.307 1.17-.792 1.17-.294 0-.43-.198-.242-.8.089-.283.16-.554.217-.774zm-.527-2.882c1.963 1.045 3.907 2.1 5.763 3.328.437.354.826.749 1.09 1.118-.175.272-.508.365-.816.386-1.57-.055-2.186-1.57-3.016-2.652l-.451-.548.078.702c.005.127.135.726-.058.726a.143.143 0 0 1-.057-.014l-.794-.95c-.085.055-.165.119-.253.17-.393-.796-.97-1.538-1.486-2.266zM31.565 6.68c-.413 0-.836.074-1.236.111-.478.233-.962.055-1.463.238-.362.162-.464.491-.614.82.214-.07.408-.1.59-.1.585 0 1.055.295 1.672.452 0 .31-.05.66-.073 1.015-.095.96.41 1.802 1.142 2.402.523 1.166 1.248 2.06 1.777 2.97-.063.409-.444 1.951-.631 2.505-.368.062-.76.097-1.145.097a5.872 5.872 0 0 1-.497-.02c-.298 0-.624.508-.945.78l6.517.05c-.167-.588-1.324-.9-1.736-.9a.574.574 0 0 0-.063.004c.145-.416.326-.806.378-1.386.182.163.386.339.64.357.311-.023.438-.236.477-.514.705 1.167 1.494 2.12 2.94 2.26.5-.025 1.123-.244 1.258-.775.663-.037.177-.683-.07-.936-1.804-1.953-3.293-4.182-5.075-6.15-.687-.677-1.462-1.135-2.422-1.515-.072-.176-.095-.425-.141-.7-.051-.3-.211-.79-.503-.943a2.236 2.236 0 0 0-.777-.122zM51.17.585c-.029 4.318-.063 8.637-.09 12.955.063.7.1 1.402.18 2.1.048.372.292.72.238 1.101-.079.258-.248.662-.534.662a.4.4 0 0 1-.208-.066c-.463-.178-.904-.472-1.415-.472-.028 0-.057 0-.085.002h-.076c-.97 0-1.924.214-2.887.308-.526.075-1.05.195-1.584.195h-.067c.963-.218 1.914-.586 2.673-1.234 1.032-.802 2.068-1.6 3.099-2.406.14-.172-.067-8.948-.136-13.114l.893-.03zM51.696 0c-.51.017-1.27.009-1.777.041-.272.079-.224.383-.22.601l.21 12.755c-1.127.862-2.244 1.737-3.378 2.59-.634.413-1.368.67-2.108.806-.331-.004-.666-.175-.995-.175a.763.763 0 0 0-.316.064c-.254.195-.342.73-.002.894.512.274 1.083.379 1.657.379.363 0 .727-.042 1.079-.109.818-.139 1.644-.22 2.465-.336.27-.024.551-.06.827-.06.299 0 .593.042.863.19.324.143.682.36 1.043.36a.795.795 0 0 0 .362-.084c.379-.236.598-.675.69-1.1.076-.556-.299-1.047-.292-1.599-.043-.603-.112-1.205-.139-1.809.03-4.364.2-13.408.031-13.408zm11.321.752q1.402 0 2.817.49 2.843.985 5.125 3.506-2.742-2.024-5.355-2.696-1.307-.336-2.613-.336-1.307 0-2.614.336-2.613.672-5.355 2.696 2.392-2.503 5.18-3.497 1.401-.499 2.815-.499zM62.991 0q-3.221.074-5.604 1.712-2.384 1.637-2.991 2.815-.552.92-.064 1.16.147.072.295.072.343 0 .69-.385.938-.994 4.306-2.236 1.684-.621 3.368-.621t3.367.62q3.368 1.243 4.307 2.255.368.381.705.381.152 0 .298-.077.47-.248-.083-1.169-.607-1.178-2.99-2.815Q66.21.074 62.99 0zm7.798 9.538c.161 0 .242.587.242.749 0 .162-.08.75-.242.75H55.238c-.19 0-.284-.588-.284-.75 0-.162.095-.75.284-.75zm-16.037-.85c-.432 0-.648.87-.648 1.599s.216 1.6.648 1.6h16.522c.405 0 .608-.871.608-1.6 0-.729-.203-1.6-.608-1.6zm16.037 6.963c.161 0 .242.587.242.75 0 .161-.08.749-.242.749H55.238c-.19 0-.284-.588-.284-.75 0-.162.095-.749.284-.749zm-16.037-.85c-.432 0-.648.87-.648 1.6 0 .728.216 1.599.648 1.599h16.522c.405 0 .608-.87.608-1.6 0-.729-.203-1.6-.608-1.6z"/></svg>