<svg xmlns="http://www.w3.org/2000/svg" width="48.465" height="18"><path d="M11.116 8.203c-.51.04-.793.296-.847.767.067.51.35.78.847.806.498-.026.76-.295.787-.806-.04-.47-.303-.726-.787-.767zm.06-1.694c.364 0 .7.068 1.01.202a2.659 2.659 0 0 1 1.371 1.361c.134.303.201.622.201.958 0 .35-.067.676-.202.978a2.567 2.567 0 0 1-2.38 1.523c-.362 0-.702-.064-1.018-.192a2.426 2.426 0 0 1-.816-.534 2.621 2.621 0 0 1-.545-.797 2.38 2.38 0 0 1-.202-.978c0-.336.068-.655.202-.958.134-.302.316-.571.545-.806.228-.236.5-.42.816-.555a2.574 2.574 0 0 1 1.019-.202zm-.04-.685c-.443 0-.86.084-1.25.252-.39.168-.726.396-1.008.685a3.36 3.36 0 0 0-.676 1.009 3.053 3.053 0 0 0-.252 1.24c0 .444.084.857.252 1.24.168.384.393.716.676.999a3.2 3.2 0 0 0 2.258.927c.444 0 .857-.084 1.24-.252a3.36 3.36 0 0 0 1.009-.675c.289-.283.518-.615.686-.999.168-.383.252-.796.252-1.24 0-.444-.084-.857-.252-1.24a3.268 3.268 0 0 0-1.694-1.694 3.053 3.053 0 0 0-1.24-.252zm7.165-3.229q-.082.871-.082 1.953 0 1.08.105 2.184-.24-.127-.75-.127-.519 0-.752.127.113-1.103.105-2.184-.007-1.082-.082-1.953zm-.728 4.475q.51.008 1.036.27l-.135.248q-.106-.018-.199-.018-.32 0-.477.221-.09-.398-.225-.488-.135.09-.233.488-.157-.221-.477-.221-.092 0-.198.018l-.136-.247q.541-.263 1.044-.27zm0 .721q.113.09.075.263-.037.173-.075.33-.045-.157-.082-.33-.038-.173.082-.263zm.684.001q.042 0 .09.007-.511 1.216-.774 1.216-.255 0-.788-1.216.048-.007.091-.007.274 0 .352.247.097.278.202.45.113.18.143.18.038 0 .135-.18.105-.172.195-.45.085-.247.354-.247zM16.402 2.25q.36 2.553-.008 4.603-.668.315-.555.533.082.164.189.164.039 0 .081-.022.653.736 1.074 1.735.165 1.644-.045 5.684 0 .803.42.803h.023q.42 0 .42-.803-.203-4.04-.045-5.684.413-.999 1.066-1.735.043.022.082.022.106 0 .189-.164.112-.218-.549-.533-.375-2.05 0-4.603zm6.526.54c.503.038.934.152 1.295.342-.475.56-.906 1.323-1.295 2.29-.398-.967-.834-1.73-1.309-2.29.37-.18.807-.294 1.31-.341zm0 3.67c.294 2.741.45 4.963.47 5.778-.02 1.385-.176 2.305-.47 2.76-.303-.455-.46-1.375-.47-2.76.01-.825.167-3.046.47-5.777zm0-4.21c-.967 0-1.674.294-2.12.882.674.56 1.214 1.427 1.622 2.603 0 .531-.106 1.975-.32 3.445-.213 1.47-.263 3.1-.15 4.893.245 1.118.538 1.677.88 1.677a.345.345 0 0 0 .088-.012c.03.008.06.012.09.012.34 0 .633-.559.877-1.677.105-1.792.05-3.423-.163-4.893-.213-1.47-.32-2.914-.32-3.445.417-1.176.962-2.044 1.636-2.603-.455-.588-1.162-.882-2.12-.882zm10.421.69l.1.001h.05q1.868 0 3.562 1.606l-1.048.847q-.981-.936-2.565-.936-1.583 0-2.564.936l-1.048-.847q1.672-1.607 3.513-1.607zm.1 2.164q1.761.023 2.898 1.851h-5.82q.892-1.828 2.921-1.85zm0-2.854q-2.766.111-4.661 2.274l1.583 1.338q-.669.892-.825 1.673h7.782q-.156-.78-.825-1.65l1.472-1.338Q36.213 2.36 33.448 2.25zm-6.901 8.003v5.497h.919v-5.497zm6.317.007v5.49h.919v-5.49zm6.432 0v5.49h.918v-5.49z"/><path d="M7.95.375c-9.625 0-9.625 17.25 0 17.25m0-17.25h32.265M7.95 17.625h32.265M47.903.375v17.25M40.215.375c9.625 0 9.625 17.25 0 17.25" fill="none" stroke="#000"/></svg>