<svg xmlns="http://www.w3.org/2000/svg" width="51.805" height="18"><path d="M6.016.322q.06 0 .113.039.214.116-.136.564-.37.369-.457.622-.088.253-.185.67-.097.419-.428 1.197l-.447.136H2.862q.233-.506.544-.914.759-.7 1.128-.934.37-.233.593-.398.224-.166.477-.632.233-.35.412-.35zM5 3.939l-.311.68q-.454-.045-.84-.045-.775 0-1.28.182-.097-.661-.292-.817zm-2.237 1.42q-.37.02-.389.35.02.389.39.389.369 0 .388-.39-.02-.33-.389-.35zm.837-.33q.836 0 .972.777.136.778-.895 1.07.35.66 0 .836-.123.062-.24.062-.216 0-.411-.208-.302-.32-.535-.914-.233-.593-.7-.593h.33q-.213-.33-.155-.506L2 5.555q.166 0 .219-.177.37-.35 1.38-.35zm1.147.057q.292 0 .836 1.255.545 1.254 1.77 2.314t1.974 2.577q.749 1.517 2.927 3.326-3.812-1.809-4.784-2.237-.973-.428-3.15-2.003-1.246-.914-1.246-1.459 0-.427.098-.739V8.1q.992 0 .992-.991 1.342-.661.583-2.023zm-.545 5.971q.37 1.77 1.829 3.91-.139.109-.302.109-.385 0-.904-.616 0-.972-.7-3.403zm.642.622q1.148.914 2.587 1.731v1.848q-.506-.39-1.011-.467-1.381-2.256-1.576-3.112zm.214 3.812q.265.336.546.336.255 0 .524-.277l.097 1.711q-.185-.041-.354-.041-.308 0-.56.138-.34-.113-.597-.113-.096 0-.18.016l.524-1.77zm.603-3.676l5.815 2.937q1.128 1.264 2.159 2.392v.02l-1.459.233-2.898-3.131q-.836-.68-3.617-2.45zM5.932 0h-.037q-.233.01-.486.4-.058.174-.243.388-.185.214-.535.428-.35.214-.505.34-.156.127-.525.458-.312.252-.448.408-.31-.194-.525-.476-.214-.282-.233-.516-.02-.233.048-.37.069-.135.214-.165.04-.008.08-.008.103 0 .202.057.136.078.117.272-.039.175-.253.214-.058-.025-.095-.025-.05 0-.06.045-.04.252.194.272l.05.002q.2 0 .33-.138.145-.156.126-.525Q3.212.652 2.92.613 2.867.606 2.814.606q-.237 0-.468.144-.282.175-.311.544-.03.37.263.749.291.379.641.632-.272.35-.564.875H1.54q.506.545.603 1.536h-.04q-.346 0-.29.331-.545.156-.545 1.03.181-.105.34-.105.044 0 .088.009.233 0 .379.544.146.545.632 1.206v.02q-.117.233-.117.738 0 .506.895 1.459.895 3.073.875 4.493 0 .175.253.213l-.642 2.14q-.052-.004-.106-.004-.272 0-.604.082-.19.046-.388.046-.219 0-.448-.056-.253-.062-.497-.062-.177 0-.349.033-.272.051-.432.051-.08 0-.132-.012-.506.116-.564.758.337-.194.514-.194.089 0 .138.048.145.146.573.146h5.66q.37 0 .583-.156.071-.051.169-.051.194 0 .492.207.02-.622-.66-.797-.386.143-.696.143-.238 0-.433-.085l-.097-1.925q.532.736.93.736.17 0 .315-.134Q7.8 14.752 7.8 13.76l.545.33q.467.215 2.052 2.024 1.52 1.734 1.814 1.734.013 0 .024-.004l1.847-.389q.292-.097.117-.291L12.74 15.51q1.362.875 2.042 1.167-.33-.37-1.108-.934l.389.136q.233-.039.194-.37-3.384-2.45-4.298-4.22-.914-1.77-2.149-2.878-1.235-1.108-1.838-2.49-.37-.874-.758-1.186L7.023.633 6.596.399 5.584 2.597l.098-.447q.116-.467.252-.7.137-.234.273-.331.291-.428.291-.661 0-.234-.175-.35Q6.143 0 5.931 0zm15.64 11.088c.401.153.838.645.965 1.05.128.406.113.879.023 1.344-.09.458-.27.894-.488 1.18-.15.195-.285.307-.413.345h-.12c-.128-.03-.293-.143-.458-.346-.218-.285-.398-.72-.488-1.179-.09-.465-.105-.938.022-1.344.128-.405.606-.931.957-1.046v-.004zm-.424-8.838v.901h-.81v.578h.81l-.112 6.818c-.578.3-.939.81-1.111 1.359a3.576 3.576 0 0 0-.068 1.734 3.49 3.49 0 0 0 .646 1.457c.232.3.54.548.9.623v.022c.023.008.046.008.068.008.03 0 .06-.008.09-.008a.532.532 0 0 0 .105.008c.03 0 .053 0 .083-.008v-.022c.36-.075.668-.323.901-.623a3.49 3.49 0 0 0 .646-1.457 3.576 3.576 0 0 0-.068-1.734 2.228 2.228 0 0 0-1.111-1.337l-.113-6.84h.766l.023-.578h-.856V2.25h-.789zm6.705 0q-.164 0-.179.144l.159-.035q.1 0 .055.104-.115.11-.035.323-.145.314-.56.314l-.05-.001q.02.233-.1.352-.417.239-.417.437.328.154.11.377-.22.224-.22.303.145.045.2.154.248.606.5.859l-.02.203q.244 0 .269-.258-.457-.556-.442-1.186.02-.63.8-1.241.223-.124.223-.482 0-.367-.293-.367zm2.978 0q-.293 0-.293.367 0 .358.214.482.79.61.809 1.24.015.631-.452 1.187.035.258.268.258l-.015-.203q.249-.253.502-.859.06-.11.193-.154 0-.08-.213-.303-.214-.223.11-.377 0-.198-.413-.437-.119-.119-.11-.352l-.049.001q-.406 0-.55-.314.074-.213-.036-.323-.044-.104.055-.104l.159.035q-.015-.144-.179-.144zM29.34 4.97q.583 0 1.169.447.456.387.054.889h-2.452q-.402-.502.064-.889.581-.447 1.165-.447zm-1.755 1.504q-.69.805-.69 1.227.054.243.213.243.209 0 .268-.189 0-.625.268-1.047l-.06-.234zm3.514 0l-.06.234q.269.422.269 1.047.054.189.268.189.154 0 .213-.243 0-.422-.69-1.227zm-2.174.09q.323 0 .323.342v2.587q-1.013 0-1.147-.65-.134-.651-.015-2.28zm1.658 0q.134 1.628-.005 2.278-.139.65-1.152.65V6.907q0-.342.323-.342zm-1.315-2.765v.178q0 .125-.1.125-.154 0-.367-.18h-.11l.343.646-.109.035q-.179-.233-.357-.482-.028-.012-.05-.012-.054 0-.065.082l.269.467q-.19.153-.19.268-.297 0-.446.233-.432.303-.432.67 0 .278.179.635-.124.69-.124 1.738 0 .69.238 1.107.243.417 1.39.417 1.147 0 1.385-.417.243-.417.243-1.107.01-1.048-.114-1.728.179-.367.179-.645 0-.367-.437-.67-.154-.233-.442-.233 0-.115-.203-.268l.268-.467q0-.082-.052-.082-.02 0-.048.012-.178.249-.357.482l-.11-.035.333-.645h-.099q-.223.179-.382.179-.085 0-.085-.125V3.8zm-1.962 4.378h-.02q-.58 1.028-.58 1.618 0 .591.204.949.208.357.566.431-.482-.645-.482-1.032 0-.382.09-.626.079.68.357.958-.124-.546-.114-1.151.005-.61.203-.909.01-.238-.224-.238zm4.072 0q-.234 0-.224.238.189.298.198.909.01.605-.109 1.151.278-.278.358-.958.089.244.089.626 0 .387-.482 1.032.358-.074.556-.431.204-.358.204-.949 0-.59-.57-1.618h-.02zm-6.508 3.979v3.594h.6v-3.594zm4.13.005v3.589h.6v-3.589zm4.204 0v3.589h.6v-3.589z"/><path d="M17.158.375v17.25m0-17.25h2.625m-2.625 17.25h2.625m0-17.25h14.022m-14.022 17.25h14.022m0-17.25H51.43m-17.625 17.25H51.43M35.567.375v17.25M39.092.375v17.25M40.855.375v17.25M42.617 2.1h8.813m-8.813 3.45h8.813M42.617 2.1v3.45m1.763-1.725h7.05m-8.813 3.45h8.813m-8.813 3.45h8.813m-8.813-3.45v3.45M44.38 9h7.05m-8.813 3.45h8.813m-8.813 3.45h8.813m-8.813-3.45v3.45m1.763-1.725h7.05" fill="none" stroke="#000"/></svg>