<svg xmlns="http://www.w3.org/2000/svg" width="126.034" height="18"><path d="M17.788.568q-.111.037-.111.128t.07.146q.027.022.054.022.04 0 .077-.05.063-.081.021-.163-.041-.083-.11-.083zM2.4.47q-.153 0-.296.282.084.183.264.237.028.01.054.01.131 0 .224-.229 0-.255-.194-.292Q2.425.47 2.399.47zM1.395.787q-.042.128.027.238l-.583.073q-.014-.164.556-.31zm.568.436zm.105-.003q.12 0 .195.033.027.012 0 .012-.052 0-.288-.04.05-.005.093-.005zm2.564 1.252q.035 0 .097.068 1.125 1.223 2.792 2.865Q9.19 7.048 9.397 7.724 8.035 7.468 7.07 6.318q-.966-1.15-1.681-2.236-.716-1.086-.799-1.414-.017-.196.042-.196zm.046-.868q.202 0 .384.096 4.321 4.308 4.946 5.604.584 1.405.764 2.154-.076.11-.182.11-.087 0-.193-.074l-.57-1.515q-.43-1.296-2.104-2.875-1.674-1.579-2.424-2.5-.441-.542-.676-.542-.164 0-.227.268-.108.455-.38.455-.115 0-.26-.081.126-.858.542-1.022.198-.078.38-.078zm.357 6.43q.666 1.405.541 2.83-.125 0-.236.236-.045-.403-.277-.403-.051 0-.112.02.292-1.405.084-2.683zM2.557.346q.066 0 .116.013.25.063.292.237.029.122.058.122.013 0 .025-.022.042-.073.056-.164.305.53.041 1.57t.848 1.24q1.028 3.104 2.209 4.72 1.18 1.615.986 3.038-.449-.438-.993-.438-.113 0-.23.019.042-1.296-.472-2.556t-.945-1.889q-.43-.63-1.16-1.497-.73-.867-.722-1.789.007-.921.194-1.286.188-.365.181-.584-.003-.091-.027-.091-.035 0-.112.182-.132.31-.73.328l-.07.001q-.568 0-1.235-.274l.82.073q.404.11.601.11.162 0 .183-.074.049-.164-.076-.192-.125-.027-.257-.027t-.201.055l.026.052-.29-.052Q1.492.787 1.617.623q.028-.055.097-.055-.028.183.049.274.028.034.056.034.046 0 .09-.098.07-.155-.125-.228.511-.204.773-.204zm15.412.04q.375 0 .555.365.056.055.695.2v.056l-.695.073q-.597 0-.75-.12-.153-.118-.146-.273.007-.155.188-.155.18 0 .25.082t.035.173q-.035.092-.132.147h.028q.18 0 .187-.22.007-.237-.299-.273-.389 0-.291.374.092.357.854.357l.076-.001q.431-.037.765-.128L19.26.97q1.236 1.004 1.16 2.29-.077 1.288-.966 2.136-.889.85-1.584 1.871-1.083 1.734-1.167 2.72-.083.986.376.986.458 0 1.118-.721.66-.721 1.34-.74 1.82.055 1.612 2.209-.667-.93-1.5-.93-.417 0-1.14.474-1.097.766-1.667.766l-.472-.091q-.861-.84-.583-2.482.416-1.187 1.125-4.235.486-1.734.965-2.628.48-.895 1.022-.913.291 0 .944.365.027.01.047.01.094 0 .037-.21-.526-.429-1.226-.429-.225 0-.47.045-.208 0-.506-.146-.3-.146-.3-.694.251-.237.543-.237zM4.396 3.05q1.083 1.825 1.986 3.002.903 1.178 1.702 1.588.799.411 1.48.43.083.145 1.653 4.617l-.097.055-3.738-3.14q.028-.273-1.104-1.962-1.132-1.687-1.994-4.46l.112-.128zm3.834 7.867l2.07 1.66q.07.256-.5.348-.127.02-.233.02-.37 0-.49-.248-.152-.32-.389-.831-.236-.511-.458-.95zm7.071-.785q0 .767.167 1.332.43 1.004 1.153 1.023h.038q.711 0 1.699-.657.938-.625 1.365-.625.034 0 .066.004.416.055.903.566.486.51.514.894.05.311-.043.311-.06 0-.18-.128-.399-1.05-1.024-1.05h-.01q-.633.01-1.557.648-.923.639-2.153.639t-1.368-1.04q-.14-1.04.43-1.917zm-10.294 1.06l.208.547q.195-.255.299-.3l.005-.002q.088 0-.304 1.543l-.583.238q-.153-.146.09-.904.243-.757.285-1.122zm14.763 1.14q.461 0 .727.502-.18.384-.847.603-.514 0-1.042-.566.685-.539 1.162-.539zm-1.607.758q.207.265.448.438h-1.883q.692-.095 1.435-.438zm-7.182 1.15Q9.427 17.175 6.5 17.25q-2.913-.076-4.467-3.011zm11.239.018q-1.554 2.935-4.48 3.012-2.913-.077-4.48-3.012zM2.796.008q-.084 0-.179.013-.222 0-1.264.42-.834.255-.903.657l.028.62.417-.2q.68.292 1.139.292.458 0 .347.41-.111.411.028 1.37.139.958 1.097 1.934.959.977 1.188 2.556.23 1.578-.41 3.641l.209-.164q.004-.004.007-.004.046 0-.216.816-.277.867-.757.894-.084.005-.16.005-.348 0-.486-.105-.155-.12-.462-.12l-.045.001q-.34.01-.34.302v.182H1.06Q2.66 17.982 6.507 18q3.849-.018 5.446-4.472l-4.279.037q0-.165-.264-.356-.129-.094-.296-.094-.175 0-.391.103-.13.061-.278.061-.337 0-.771-.317.097-.639.236-1.14.139-.503.528-.594.036-.008.073-.008.362 0 .816.811.264-.675.153-1.825l.139.128q1.042 2.3 1.257 2.701.163.305.634.305.15 0 .331-.031.75-.128.737-.475l.639.42.486-.237-1.07-3.048q.264 0 .487-.292-.264-1.096-.82-2.446-.39-.822-.792-1.278Q8.411 4.603 7.23 3.39T5.493 1.518q-.373-.28-.775-.28-.226 0-.461.088-.653.246-.792 1.214-.042-.037.07-.73.11-.694-.05-1.287-.138-.514-.689-.514zM18.016 0q-.252 0-.478.094-.292.11-.347.42-.111.383.097.757.208.374.653.466-.89 1.058-1.514 3.741-.584 2.556-.973 3.779-1.042 1.113-1.035 2.236.007 1.122.424 1.597.301.343.878.438h-3.434q1.597 4.454 5.446 4.472 3.848-.018 5.445-4.472h-2.674q.153-.11.313-.256.156.245.354.245.083 0 .174-.044.347-.219.139-1.004.194-2.245-.459-2.865-.653-.621-1.473-.621-.75 0-1.625.849-.543.526-.743.526-.124 0-.118-.198.014-.52.611-1.761.403-.876 1.75-2.254 1.348-1.378 1.334-2.775-.014-1.396-.597-2.099-.584-.703-1.292-.794-.111-.2-.292-.328Q18.4.02 18.1.003 18.059 0 18.017 0zm9.974 1.434l1.647 1.047q.33 3.238.068 5.215-.262 1.977-.31 3.266-.049 1.29.63 3.46-.02.155-.562.446-.255.136-.603.136-.395 0-.91-.175 1.028-1.9.892-4.129-.135-2.229-.523-5.01-.388-2.782-.33-4.256zm-.737 14.268q.891.155 1.512.31-.233.853-1.086 1.085-.365.1-.702.1-.45 0-.849-.177.35-.814 1.125-1.318zM27.136 0q-.174 1.609.417 5.418.591 3.81.591 5.127 0 3.49-1.337 4.207-1.26 1.28-1.629 2.578.369.504 1.319.63.3.04.575.04.59 0 1.053-.185.678-.272 1.027-.718.446-.6.252-1.357l.834-.445q.6-.291.368-.93-.95-2.56-.358-6.049.59-3.49.164-6.261L27.136 0zm9.221 3.071c-.27.13-.6.49-.1.55.24-.01.79-.26.69-.49a.221.221 0 0 1-.158.067c-.141 0-.287-.127-.432-.127zm-1.971.09c-.33.08-.5.44-.08.52l.022.002c.241 0 .9-.294.358-.361-.09-.06-.18-.16-.3-.16zm2.631-2.51c.59.69 1.11 1.49 1.21 2.41.1.66.13 1.321.23 1.971-.47-.04-.33-.77-.24-1.12.08-.69-.29-1.33-.55-1.941-.18-.33-.35-.85-.81-.86-.51.09-.84.52-1.17.89-.34-.34-.7-.71-1.171-.85a.236.236 0 0 0-.081-.013c-.106 0-.23.046-.286.046-.049 0-.048-.034.057-.164.063-.224.195-.29.358-.29.238 0 .543.141.8.141a.561.561 0 0 0 .112-.01c.085.004.17.007.254.007.438 0 .876-.067 1.287-.218zm-.16.76c.39.1.48.64.67.96.24.56.53 1.17.34 1.801-.15.3.04.68.02.9-.333.235-.626.73-1.07.73a.631.631 0 0 1-.15-.02c-.44-.09-.66-.51-1-.71-.247.238-.393.73-.798.73a.618.618 0 0 1-.183-.03c-.37-.08-.86-.04-.97-.49-.19-.46-.21-.97-.24-1.47a.324.324 0 0 0 .06.006c.203 0 .221-.235.24-.436.077-.293.287-.429.52-.429.157 0 .325.062.47.178.17.19.69.34.58.64-.05.18-.11.371-.17.561l.42.56c.04-.29.47-.53.22-.82-.04-.13-.19-.3-.17-.4.18-.32.42-.6.7-.84a.322.322 0 0 1 .23-.103c.268 0 .538.351.771.382.23-.25-.02-.35-.25-.48a.701.701 0 0 0-.487-.196c-.25 0-.5.13-.653.356-.19.114-.323.494-.49.494-.052 0-.108-.037-.17-.134-.306-.244-.672-.518-1.073-.518a.855.855 0 0 0-.178.018c-.283.059-.538.632-.56.632v-.001c-.01-.47.21-.89.34-1.351a.612.612 0 0 1 .596-.477c.172 0 .347.075.474.237.298.11.516.634.796.634.05 0 .1-.017.155-.054.31-.33.56-.72 1.01-.86zm-1.42 6.943c1.27 1.31 2.44 4.632 2.74 5.993-.49-.4-1.16-.66-1.31-.91-.16-.26-.6-2.792-1.43-5.083zm4.521-2.381c2.402 1.38 6.584 8.174 7.474 9.264-1.5-.95-2.981-1.91-4.592-2.691-2.261-1.11-4.192-2.911-6.033-4.592 1.52-.51 2.611-1.37 3.151-1.981zm-2.49 8.624c.32.19.61.45.96.59-.21.52-.34 1.1-.77 1.51-.081.13-.197.172-.328.172-.228 0-.504-.123-.736-.123-.016 0-.032 0-.047.002.28-.7.7-1.01.92-2.151zm.68-9.365c.06.126.138.167.22.167.107 0 .223-.071.32-.116.24.17 1.07.15.58.51-.31.42-1.968 1.566-3.119 1.768-.497.087.338.873.608 1.153 1.56 1.4 3.091 2.882 4.962 3.892 1.17.66 2.401 1.25 3.532 1.98.54.781 1.18 1.502 1.59 2.362-.41.12-.81.29-1.23.39a2.89 2.89 0 0 1-.702.082c-.661 0-1.326-.197-1.619-.512-.54-.57-1.13-3.001-1.44-3.892-.045-.1-.107-.133-.175-.133-.135 0-.292.132-.37.132a.04.04 0 0 1-.036-.019.391.391 0 0 0-.386-.376c-.176 0-.34.127-.314.396-.06.63-.18 1.26-.48 1.831-.037.097-.114.134-.215.134-.285 0-.761-.293-1.086-.374.13-.77-.92-4.712-4.002-8.014-.108-.116-.577-.611-.536-.611.005 0 .016.006.036.02.157.042.335.07.511.07.337 0 .668-.104.84-.42.025-.077.058-.108.096-.108.137 0 .344.399.564.399a.92.92 0 0 0 .513.155c.29 0 .578-.131.777-.355.19-.17.37-.34.56-.51zM37.108 0a3.72 3.72 0 0 1-1.36.28c-.072 0-.143-.004-.212-.01a.804.804 0 0 1-.142.012c-.337 0-.7-.18-1.025-.18a.622.622 0 0 0-.353.098c-.55.8-1.05 1.69-1.11 2.681-.11 1.901-.06 2.562 1.44 4.122.59 1.341 1.69 5.713 2.02 6.904.36.34-.45 2.2-.79 2.66-.185.256-.672.268-1.196.268h-.172c-.472 0-.949.01-1.243.193-.28.18-.38.85-.22.94.15-.23.45-.54.66-.57-.2.21.5.11.65.16.405.007.815.041 1.225.041.199 0 .398-.008.597-.03.09-.04.186-.102.228-.102.033 0 .033.038-.028.151.283.074.601.111.912.111.7 0 1.363-.187 1.509-.56.3-.551.58-1.131.78-1.732.255.054.577.234.834.234a.38.38 0 0 0 .207-.054c.28-.19.57-1.08.73-1.67.015-.062.099-.092.183-.092.08 0 .163.028.187.082.3.6.8 2.44 1.28 3.211.363.571 1.241.852 2.176.852a4.48 4.48 0 0 0 1.717-.332c.65-.28 1.13-.22.99-.58-.22-.6-.6-1.17-1-1.68.58.36 1.16.73 1.74 1.09.048.174.169.243.291.243.237 0 .483-.256.24-.513-2.271-3.282-5.883-8.875-8.384-10.685-.4-.35-.87-.62-1.391-.75-.17-.44-.12-1.031-.22-1.531-.1-.99-.7-2.632-1.75-3.262zM59.98 2.133q-.15 0-.222.055-.08.081-.192.101l-.03.112h.161q.16.19.444.19.183 0 .417-.079l.223.05.05-.161-.202-.04q-.334-.203-.557-.223-.05-.005-.092-.005zM61.378.48q.497 0 1.154.18 1.032.274 1.012 1.357-.02 1.073-.648 1.58-.352.282-.634.282-.214 0-.388-.161-.172-.182-.04-.314.263-.091.263-.466.334-.405.334-.688.04-.496-.446-.516-.222.05-.334.182-.914-.674-1.601-.674-.066 0-.13.006.314-.557.942-.709.231-.059.516-.059zm-1.395 1.116q.691 0 1.445.603l-.09.203q.141.07.222.07.182-.465.385-.465.263 0 .243.263-.02.294-.314.597 0 .278-.135.278-.018 0-.037-.004-.182-.05-.142-.223-.152.132-.01.739.152.618.385 1.286.232.668.607.759.294.02.982.03.688.01-.02 2.015-.72 2.004-.83 5.355l-1.823.425q-1.376-4.556-1.67-4.94-.283-.375-.202-1.6 0-1.154 1.316-1.285h.074q.721 0 .634-.385-.08-.395-.192-.91-.111-.057-.268-.057-.157 0-.36.056-.162.01-.292.01-.422 0-.507-.101-.112-.132-.071-.354l.314-.112q.131-.07.07-.172l-.465-.09q.172-.335-.03-.466l-.056.002q-.208 0-.208-.144.04-.152.294-.506.243-.355.536-.456.127-.042.253-.042.178 0 .355.083.293.141.567.232l.06-.131q-.243-.091-.526-.223-.256-.162-.491-.162-.22 0-.42.142.06-.203.131-.294.142-.026.286-.026zm-3.829 9.552l3.695 2.601-4.14 1.205q.142-2.855-.374-3.806zm6.63 2.399q.406 1.65-.525 2.824-.84.52-1.887.52-.705 0-1.505-.236-.823-.245-1.617-.245-1.108 0-2.158.477.202-.627 2.955-2.095l4.738-1.245zM61.556 0q-.294 0-.592.042-1.114.112-1.69 1.56-.092.404-.365.748-.284.344-.375.74-.02.252.264.252.273 0 .07.223-.08 0-.07.07.01.082.07.082-.131.152-.01.212.122.05.091.213-.03.152.051.385.07.232.76.253l.667-.061q-.04.172.05.395-1.892.07-2.024.759-1.781.648-3.249 1.518.617-.92 1.286-2.004.647-.05 1.123-.132.486-.09.395-1.164.668-.06.668-.293 0-.145-.41-.145-.25 0-.653.054-1.053.141-1.538.941-2.916 2.581-2.582 4.18 1.772-.08 2.774-.384t2.136-.86q0 .83.283 1.295.274.466 1.326 4.201l-3.28-2.45q-.769-.667-1.326-.667-1.579 0-1.407 1.315l.557 4.01q-1.154.313-1.093 1.821-.527.091-.972.294-.385.166-.777.166-.062 0-.124-.004l-.055-.002q-.412 0-.583.437h15.994q-.421-.801-1.117-.801-.14 0-.29.032-.144.03-.273.03-.68 0-.952-.85-.2-.629-.57-.629-.225 0-.513.234.74-1.397.05-2.956.062-3.31.892-5.446.658 1.083 1.549 2.308-.193 1.316-.081 3.918-.446.617-.446 1.62 0 1.012.189 1.012h.003q.203-.01.314-.76.982 0 .982-.587 0-.557-.263-1.306.547-1.913.658-4.14-.192-1.002-2.085-3.654-.53-1.04-1.94-1.04-.181 0-.378.017-.264-.354-.284-.577.709-.151 1.164-.688.456-.537.486-1.792.04-1.255-.982-1.66Q62.32 0 61.555 0zM86.92 2.373v2.341H69.679V2.373zM69.742 0v1.772h-.664v3.543h18.445V1.772h-.538V0h-.601v1.772h-1.487V0h-.601v1.772h-1.487V0h-.601v1.772H80.75V0h-.632v1.772h-1.456V0h-.6v1.772h-1.488V0h-.6v1.772h-1.488V0h-.601v1.772H72.43V0h-.602v1.772h-1.487V0zm1.598 15.325L69.076 18h1.103l1.16-1.382L72.51 18l1.136-1.382L74.816 18l1.16-1.382L77.146 18l1.159-1.382L79.475 18l1.137-1.382L81.782 18l1.17-1.382L84.09 18l1.17-1.382L86.42 18h1.103l-2.262-2.675-1.17 1.293-1.137-1.293-1.17 1.293-1.17-1.293-1.138 1.293-1.17-1.293-1.159 1.293-1.17-1.293-1.16 1.293-1.17-1.293-1.136 1.293-1.17-1.293zm23.703-9.754v.563h-2.971V5.57zM93.55 6.68q1.864 0 2.576.95.712.949.712 1.705-.018 1.178-.985 2.057-.967.88-2.303.88-1.354 0-2.321-.88-.968-.879-.968-2.04 0-.773.58-1.723.581-.95 2.709-.95zm-2.322-1.69v1.32q-.633.369-1.16 1.195-.528.827-.546 1.83 0 1.177.976 2.382.976 1.204 3.05 1.292 2.058-.088 3.043-1.292.984-1.205.984-2.365-.017-1.02-.545-1.855-.527-.836-1.178-1.205V4.991zm11.214 0c-.112 0-.223.011-.335.021-1.61.172-2.753 1.802-2.5 3.382.111 1.174.84 1.832 1.64 2.48 2.38 1.458 1.71.921 4.11 2.136l.385-.719c-2.855-1.336-3.2-1.549-4.09-2.136-.73-.587-1.306-1.235-1.256-2.217-.02-.678.385-1.377.84-1.711a2.192 2.192 0 0 1 1.287-.435c.344 0 .668.08.951.283.719.354 1.114 1.529.587 2.268a1.396 1.396 0 0 1-1.113.597 1.03 1.03 0 0 1-.608-.192c-.364-.203-.638-.911-.263-1.306-.172-.182-.415-.405-.597-.405-.122 0-.213.091-.274.304-.405.972.243 2.075 1.215 2.338.172.05.345.081.517.081 1.113 0 2.146-.931 2.146-2.085.101-1.347-.972-2.582-2.318-2.663a3.272 3.272 0 0 0-.324-.02zm14.56-4.066c.297 0 .476.05.568.103.27.172.14.583.098.84h-1.33c-.033-.263-.178-.664.097-.84.093-.053.271-.103.567-.103zm-7.389 1.552V3.4h-1.262v-.924zm6.556 0V3.4h-6.252v-.924zm1.52 0V3.4h-1.216v-.924zm6.104 0V3.4h-5.8v-.924zm1.632 0V3.4h-1.328v-.924zM114.332 0l-.43.431 1.44 1.436h-7.6v2.142h18.292V1.867h-7.37l1.44-1.436-.431-.431-1.33 1.327c-.08-.804-.632-.989-1.34-1.012-.758.02-1.223.192-1.34 1.012L114.332 0zm-6.556 10.67V18h1.225v-7.33zm8.424.01V18h1.225v-7.32zm8.575 0V18H126v-7.32z"/></svg>