<svg xmlns="http://www.w3.org/2000/svg" width="65.567" height="18"><path d="M11.225 2.7c.805 0 1.813.415 2.301.903.427.426.483.992.499 1.518H8.448c.016-.526.072-1.092.499-1.518.487-.488 1.472-.902 2.278-.902zm0-.45c-.956 0-1.984.441-2.587 1.044-.618.618-.688 1.432-.688 2.04v.238h6.55v-.237c0-.61-.047-1.423-.665-2.04-.603-.604-1.655-1.045-2.61-1.045zm.023 7.14q.605 0 .795.736l.7 2.907H9.73l.723-2.907q.178-.735.795-.735zm1.495 4.236q-.213 1.068-1.115 1.673h-.736q-.925-.605-1.162-1.673zm-1.471-4.674h-.024q-.89 0-1.222.866-.118.296-.385 1.406-.267 1.11-.718 1.82v.582q.45 1.032.872 1.53.421.5.955.594h1.008q.522-.083.944-.587.42-.505.824-1.537v-.593q-.403-.7-1.056-3.227-.34-.854-1.198-.854zm9.063-5.887l1.336 2.914h.676l-1.3-2.914zm2.966 0L24.62 5.98h.694l-1.335-2.914zm4.094-.295q1.682 0 1.682 1.735 0 1.752-1.682 1.786H18.27q-1.682 0-1.682-1.734 0-1.752 1.682-1.787zm-9.124-.52Q16 2.25 16 4.557q0 2.255 2.29 2.255h9.106q2.272-.018 2.272-2.325 0-2.237-2.29-2.237zM16 10.253v5.497h.918v-5.497zm6.317.007v5.49h.918v-5.49zm6.43 0v5.49h.92v-5.49zm15.91-1.28zm-.003.152zm-11.813-.58v.896c-.134-.06-.265-.118-.388-.179a1.246 1.246 0 0 0-.357-.1c-.101-.015-.207-.026-.302-.045a.352.352 0 0 1-.151-.055c-.012-.01-.02-.022-.02-.069 0-.047.008-.06.02-.07a.352.352 0 0 1 .15-.054c.096-.02.202-.03.303-.045.129-.02.252-.049.357-.1.123-.06.254-.118.388-.18zm0 .896zm.455.064zm8.26-1.027c.09 0 .178.001.266.003.495.012 1.237.13 1.85.284.305.076.576.16.77.243.03.012.057.025.082.037a1.01 1.01 0 0 1-.073.029 5.389 5.389 0 0 1-.768.204 11.97 11.97 0 0 1-1.861.227c-.088.002-.177.003-.265.003-.897 0-1.79-.102-2.683-.206-.954-.111-1.907-.224-2.866-.224h-.145c-.838.011-1.8.104-2.567.427V8.488c.767.323 1.73.416 2.567.426l.145.001c.958 0 1.912-.113 2.866-.224.893-.104 1.786-.206 2.683-.206zm-8.435-.592l-.11.064c-.255.146-.522.248-.76.365a.8.8 0 0 1-.224.059c-.11.016-.222.028-.325.05a.79.79 0 0 0-.35.15.523.523 0 0 0-.185.419c0 .182.069.323.184.42a.79.79 0 0 0 .351.15c.103.02.215.033.325.05a.8.8 0 0 1 .225.058c.237.117.504.22.759.365l.11.064.111-.06c.738-.397 1.767-.495 2.636-.506h.142c.94 0 1.876.112 2.811.22.912.106 1.823.21 2.738.21.091 0 .182-.002.273-.004a12.347 12.347 0 0 0 1.942-.236c.327-.066.622-.143.837-.224.12-.044.219-.092.292-.143a.51.51 0 0 0 .117-.108.325.325 0 0 0 .069-.197.33.33 0 0 0-.066-.194.535.535 0 0 0-.114-.112 1.434 1.434 0 0 0-.288-.157 5.812 5.812 0 0 0-.837-.266c-.647-.161-1.422-.285-1.952-.297a11.625 11.625 0 0 0-.273-.003c-.915 0-1.826.103-2.738.209-.935.108-1.871.22-2.811.22h-.142c-.87-.011-1.898-.11-2.636-.506l-.111-.06zm20.293-5.229q.134 0 .278.06.321.137.321 2.165v1.94h-3.64q1.406-1.93 1.929-2.916.523-.987.796-1.155.15-.094.316-.094zm-.154-.414h-.06q-.518.012-1.166 1.265-.649 1.254-2.568 3.74h4.971l-.01-2.791q-.055-1.865-.382-2.044-.308-.17-.786-.17zm-5.355 6.18l-1.316 1.557h.642l.674-.804.68.804.662-.804.68.804.674-.804.681.804.674-.804.68.804.662-.804.68.804.681-.804.661.804.681-.804.674.804h.642L56 8.43l-.68.752-.662-.752-.68.752-.681-.752-.661.752-.68-.752-.675.752-.68-.752-.675.752-.68-.752-.662.752-.68-.752zm7.995 3.454c.553.024.857.036.988.036h.06l-.072 2.895a4.248 4.248 0 0 1-1.102-.655l.125-2.276zm-8.078-.72c-.185.035-.429.148-.4.369v1.614a30.871 30.871 0 0 0-.833-.036c0 .203.167.477.685.477.006.458.09 1.018.173 1.304l.071.75c0 .084.143.108.298.108a2.6 2.6 0 0 0 .387-.036l-.03-.75c2.943.024 8.554.172 8.834.172.143 0 .238-.154.238-.369l.072-3.234-1.77-.018-.142 2.52c-1.28.005-3.497.214-5.004.214-.476 0-.887-.018-1.167-.078-.06-.065-.614-.87-.965-.959a1.545 1.545 0 0 0-.209-.023c-.06-.489-.119-.977-.172-1.46.107-.137.351-.101.416-.286.066-.089.024-.238-.1-.244-.072-.03-.269-.036-.352-.036z"/><path d="M7.95.375c-9.625 0-9.625 17.25 0 17.25m0-17.25h49.367M7.95 17.625h49.367M65.004.375v17.25M57.317.375c9.625 0 9.625 17.25 0 17.25" fill="none" stroke="#000"/></svg>