<svg xmlns="http://www.w3.org/2000/svg" width="77.853" height="18"><path d="M3.46.474c.693 0 1.247.2 1.634.479.006.053.02.107.009.16-.05.248-.195.477-.396.63-.316.207-.697.267-1.057.356-.09.01-.019.031.031.04.23.04.707.099.971.099l.052-.001c.278-.032.54-.148.766-.311.079-.067.147-.15.205-.236.147.346.227.713.26.917.018.11.096.2.202.233 1.139.349 2.038 1.91 2.88 2.949 1.729 2.137 3.199 4.526 4.892 6.76-.937-.456-1.87-.916-2.81-1.374-1.92-1.01-3.92-1.816-5.604-3.09l-.008-.008c-.97-.808-1.963-1.66-2.339-2.793C3 4.364 4.905 2.707 4.69 2.638a.207.207 0 0 0-.064-.01c-.458 0-1.753 1.128-2.019 2.202-.003-.014-.01-.03-.014-.045-.073-.356-.154-1.256.068-1.98a.29.29 0 0 0 .01-.103 1.968 1.968 0 0 0-.123-.634c-.063-.17-.139-.344-.26-.765-.031-.108-.142-.328-.208-.345.186-.138.375-.28.645-.375a.434.434 0 0 0-.132.314c0 .23.164.415.365.415.2 0 .364-.186.364-.415V.894a.411.411 0 0 0-.255-.39c.053-.007.096-.019.154-.022.081-.006.16-.008.238-.008zm.67 7.763c.065.065.135.124.202.187.214.78.412 1.64.692 2.305.483 1.145 1.216 2.141 1.84 3.154a1.814 1.814 0 0 0-.385.27 6.831 6.831 0 0 0-.199.193 2.61 2.61 0 0 0-1.186-.897c.045-.723-.108-1.712-.34-2.787a34.903 34.903 0 0 0-.624-2.425zm1.006.908c1.149.945 2.428 1.738 3.676 2.54-.018.91-.018 1.778.084 2.675a3.411 3.411 0 0 0-1.437-.736c-.02 0-.037.012-.057.012-.649-1.063-1.383-2.06-1.837-3.134-.156-.37-.293-.85-.429-1.357zm.407 5.254a2.5 2.5 0 0 1 .44.541.3.3 0 0 0 .257.14.29.29 0 0 0 .17-.053c.215-.156.347-.324.476-.446.047-.045.097-.08.148-.117l.149 2.722c-.213-.014-.435-.035-.637-.035-.264 0-.495.036-.633.172-.169-.134-.497-.164-.89-.164-.102 0-.207.002-.316.004l.836-2.764zM6.7 9.574c1.354.787 2.784 1.414 4.135 2.125a.244.244 0 0 0 .006.003c1.295.631 2.586 1.28 3.894 1.904.984 1.189 2.052 2.295 3.078 3.42l-2.15.362-4.267-4.635a.288.288 0 0 0-.037-.036C9.861 11.58 8.208 10.635 6.7 9.574zM3.526 0c-.135 0-.273.005-.411.013C2.03.083 1.242.54.973 1.157c-.04.093-.146.314-.007.314a2.35 2.35 0 0 1 .341-.028c.418 0 .38.172.47.194.09.282.29.846.303 1.068-.244.86-.153 1.763-.064 2.198.15.732.63 1.584 1.261 2.38a.285.285 0 0 0 0 .166 35.3 35.3 0 0 1 .903 3.336c.251 1.168.393 2.277.317 2.823a.294.294 0 0 0 .221.328c.045.011.084.031.127.045l-.928 3.079a2.847 2.847 0 0 0-.593-.055c-.381 0-.756.05-1.064.05-.125 0-.24-.008-.34-.032a.546.546 0 0 0-.125-.012c-.436 0-1.428.306-1.34.879.15-.128.257-.159.375-.159.11 0 .23.027.405.027h.027c.254-.004.697-.083 1.053-.083.18 0 .338.02.438.08.236-.01.45-.013.649-.013.85 0 1.447.07 2.5.075a89.565 89.565 0 0 0 2.974-.079c.45.003.697.054.922.054h.04c.134-.004.265-.057.48-.057.123 0 .273.017.468.07-.25-.341-.877-.685-1.33-.685a.591.591 0 0 0-.302.071 5.081 5.081 0 0 0-.508-.022c-.22 0-.448.01-.678.02l-.157-2.83c.487.203.857.517 1.281 1.021a.295.295 0 0 0 .513-.246c-.192-1.039-.213-2.019-.202-3.06.54.354 1.072.713 1.576 1.094l4.36 4.738a.29.29 0 0 0 .263.09c.95-.159 1.9-.315 2.849-.474a.294.294 0 0 0 .23-.193.298.298 0 0 0-.06-.297c-.741-.83-1.508-1.631-2.25-2.445 1.269.78 2.875 1.755 3.08 1.755.022 0 .027-.013.012-.04-.094-.163-.9-.755-1.775-1.373.14.058.276.12.415.177l.017.01c.103.035.16.059.27.062a.286.286 0 0 0 .108-.016.317.317 0 0 0 .188-.152.32.32 0 0 0 .023-.238c-.017-.05-.038-.077-.054-.098-.061-.085-.103-.109-.162-.154a4.553 4.553 0 0 0-.205-.149c-.153-.105-.336-.223-.493-.328a4.992 4.992 0 0 1-.328-.233.307.307 0 0 0-.028-.025l-3.892-2.736c-.008-.006-.02-.001-.028-.006-1.333-1.869-2.588-3.825-4.046-5.627-.744-.92-1.598-2.528-2.985-3.064-.067-.396-.218-1.127-.755-1.649C5.277.26 4.618.056 3.877.011A5.728 5.728 0 0 0 3.526 0zm22.102 3.808l2.736 2.406q-.577.89-1.533 1.797-.906-2.143-1.203-4.203zM24.9 2.62q-.528 0-.41.725.512.248.43.56-.083.314.065 1.04.149.725 1.187 3.444-.316 1.074.366 1.074l.062-.002q1.847 3.395 4.072 5.917h.395l-.098-1.104q-1.78-1.665-3.808-5.39.593-1.253 1.665-2.193l3.28 2.95q.248.112.416.112.458 0 .326-.82L29.55 6.116q.013-.75-.625-.75-.148 0-.331.04L25.628 2.82q-.452-.198-.728-.198zm11.033.473q1.511.22 1.58 1.382v8.382q-.706-.843-2.536-1.184l.956-8.58zm-.425-.843l-1.131 10.022q2.52.289 3.136 1.8v1.678h.751V4.475q0-1.883-2.756-2.225zm5.813.843q1.511.22 1.58 1.382v8.382q-.707-.843-2.537-1.184l.957-8.58zm-.425-.843l-1.132 10.022q2.521.289 3.136 1.8v1.678h.752V4.475q0-1.883-2.756-2.225zm9.416.273q.124 0 .205.155.126.201-.177.34-.315.152-.214.518l.303 1.249q-.316.038-.53.303V3.536q0-.795.214-.934.11-.08.2-.08zm-.703 2.834v.47l-1.035-.108q.025-.127.385-.26.265-.097.65-.102zm.441.028q.465.091.694.56l-.82-.085v-.18q0-.088.101-.264l.025-.031zm1.36.527q-.073 0-.199.223.316-.114.24-.202-.018-.02-.04-.02zm-2.937.008l1.136.116v.108q-.019 0-.038.004-.215 0-.253.252-.025-.202-.233-.297-.095-.043-.248-.043-.184 0-.452.062.012-.126.088-.202zm.139.631q.126 0 .214.05-.05.09-.164.152.05-.063.044-.126-.006-.063-.094-.076zm-.101.013q-.038.076-.032.12.007.044.07.082-.076 0-.152-.038.013-.088.114-.164zm.063-.063q-.19 0-.24.265.101.063.265.063.177 0 .278-.19h.315v-.1l-.315.025q-.126-.063-.303-.063zm2.84-.667q.055 0 .1.049.139.151-.24.328.391.593.404 1.413l-.101.012q0-.82-.34-1.375l-.026.025q.252.53.252 1.754h-.1q-.089-1.224-.152-1.514l-.113-.416q.186-.276.317-.276zm-2.666.386q.124 0 .23.035.252.082.252.347h.164q.038-.227.151-.227.114 0 .051.227l-.353.555v1.186l-.038.013q-.063-.089-.126-.221-.063-.133-.101-.36l-.379-.012q-.202 0-.202-.101 0-.19.19-.215 0-.1-.064-.1l-.252-.013q.076-.164-.151-.227 0-.101.214-.455v-.214l.038.063q.151-.088.252-.088t.29.075h.228V6.4h-.227q-.164-.114-.29-.114-.14 0-.29.114 0-.101.037-.114.205-.066.376-.066zm1.176-.151l.896.091q.025.063.139.43.164.479.126 3.457l-1.59.012V7.195q.088-.126.227-.353.139-.228.133-.48-.005-.186-.158-.214h.227v-.08zm-.681 2.817v1.45h1.35q-.013.77-.145 1.868-.133 1.098-.335 1.861-.202.764.278 1.243h-3.735q.139-.138.183-.467.044-.328-.297-1.097l-.946-2.865q-.063-.265.158-.41.073-.048.146-.048.146 0 .289.193l1.274 1.906.493.605q.126.089.223.089.193 0 .269-.354.454-1.034.34-2.523-.441-.48.455-1.451zm1.084-6.636q-.17 0-.378.137-.34.227-.34 1.338v1.371q-.36.019-.606.074-.366.082-.593.353-.227.271-.227.75-.063.203-.026.38-.201.378-.201.517 0 .075.176.075l-.025.114q.013.063.076.076-.05.05-.026.113l.089.038q-.089.34.29.34h.252q.026.24.29.657-.012.012-.24.309-.226.297-.453.7-.228.404.088.795.088 1.287-.391 2.36l-1.653-2.423h-.013q-.214-.283-.528-.283-.148 0-.317.062-.53.196-.391.663 1.312 3.874 1.274 4.139-.038.265-.372.466-.335.202-.17.379h5.009q.252-.114 0-.353-.656-.795-.423-1.527.234-.732.41-3.533h.467v-.833q.013-.77 0-1.312.088-.013.215-.063l-.013-.379.227-.013q0-.933-.404-1.476.442-.164.19-.454-.093-.107-.191-.107-.156 0-.327.27-.339-.624-.742-.807.169-.094.402-.164l-.354-1.501q-.038-.177.227-.341.354-.24.14-.606-.167-.301-.418-.301zm6.252.45c.805 0 1.813.415 2.301.903.427.426.483.992.499 1.518h-5.577c.016-.526.072-1.092.499-1.518.488-.488 1.472-.902 2.278-.902zm0-.45c-.956 0-1.984.441-2.587 1.044-.618.618-.688 1.432-.688 2.04v.238h6.55v-.237c0-.61-.047-1.423-.665-2.04-.603-.604-1.655-1.045-2.61-1.045zm-.459 8.01v5.49h.918v-5.49z"/><path d="M21.846.375v17.25m0-17.25h2.625m-2.625 17.25h2.625m0-17.25h35.382m-35.382 17.25h35.382m0-17.25h17.625m-17.625 17.25h17.625M61.616.375v17.25M65.14.375v17.25M66.903.375v17.25M68.666 2.1h8.812m-8.812 3.45h8.812M68.666 2.1v3.45m1.762-1.725h7.05m-8.812 3.45h8.812m-8.812 3.45h8.812m-8.812-3.45v3.45M70.428 9h7.05m-8.812 3.45h8.812m-8.812 3.45h8.812m-8.812-3.45v3.45m1.762-1.725h7.05" fill="none" stroke="#000"/></svg>