<svg xmlns="http://www.w3.org/2000/svg" width="61.16" height="18"><path d="M11.28 4.1q-.152 0-.318.07.116.073.116.29.084.092.182.092.072 0 .151-.049.064-.117.276-.117.077 0 .173.016-.263-.303-.58-.303zm8.488 4.473q-.507.376-.609.81h-9.022q-.102-.434-.608-.81zm-.754 1.347l.652 3.968h-3.62V11.31H13.25v2.578H9.63l.652-3.968zm-7.696-5.996q.17 0 .354.116.782.072 1.361.405 0 .348 3.375.348 3.49.087 3.823.304.782.26 1.057.536.855.796 1.29 2.592l.187 1.535q.247 1.231.399 1.955.152.725.586 2.187-.738-.68-1.984-5.17-.188-.912-.695-1.52-.84-.696-1.477-.768l-.065-.001q-.467 0-.413.204-.102.231-.29.231-.796-.275-.796-.912.014-.333.347-.377.096.012.182.012.447 0 .63-.316-.479-.101-.855-.101-.637.087-.797.81 0 .435-1.636.508-1.231 0-1.52.333-.87-.13-.87-.623.087-.623.652-.652l.492-.188v-.174q-.106-.106-.266-.106-.19 0-.458.15-.767.087-.883 1.014-1.215-.848-1.61-.848h-.02q-.024.002-.049.002-.363 0-.783-.298l-.16.217-.188-.304-.16.202-.187-.347-.145.318-.275-.478-.16.406-.231-.507-.203.42-.246-.521-.189.29q-.3-.738.128-.738.17 0 .452.115.47-.093 1.016-.093.398 0 .837.05.21-.218.443-.218zm.166-.391q-.333 0-.609.217-.564-.036-1.017-.036-.453 0-.793.036-.229-.058-.413-.058-.503 0-.673.435-.058.188 0 .55l.275.203-.217.13q0 .263.251.263l.053-.002q1.477.405 3.056.55 1.854.985 1.854 1.217 0 .217-.58.318-.824-.223-1.306-.223-.144 0-.258.02-.565.03-.29.754l.058-.174q.02-.123.136-.123.063 0 .154.036l.087.26q.094-.246.21-.246.116 0 .253.247.039-.242.255-.242.107 0 .26.06.186.075.647.075.663 0 1.894-.154h.006q.099 0 .211-.507 0-.232 2.448-.304.16 0 .666.217 0 .217-.565.319-.835-.223-1.32-.223-.145 0-.258.02-.565.029-.29.753l.058-.174q.019-.122.136-.122.062 0 .154.035l.087.261q.094-.246.21-.246.115 0 .253.246.039-.241.254-.241.108 0 .26.06.187.074.648.074.663 0 1.894-.154h.005q.1 0 .212-.506.956.217 1.405 1.404.55 2.042 1.318 4.099.767 1.738 1.317 1.738.305-.044.334-.333-.203-.667-.42-1.608-.652-2.925-.71-3.707-.174-1.116-.449-1.84-.55-1.506-1.868-2.158-1.057-.405-1.84-.405-5.054-.13-5.054-.174-1.448-.637-2.39-.637zM8.602 8.008q-.261.217.072.565.724.376.927.81-.492 0-.492.29 0 .261.593.261l-.753 4.533h4.953v-2.505h1.492v2.505h4.895l-.666-4.547q.55 0 .565-.247 0-.29-.493-.29.188-.434.912-.81.348-.348.13-.565zm19.876-3.454c-.202.097-.45.367-.075.412.18-.007.593-.195.518-.367a.166.166 0 0 1-.118.05c-.106 0-.216-.095-.325-.095zM27 4.62c-.248.06-.375.33-.06.39l.017.001c.18 0 .675-.22.268-.27-.067-.046-.135-.12-.225-.12zm1.974-1.883c.442.517.832 1.118.907 1.808.075.495.098.99.173 1.478-.353-.03-.248-.577-.18-.84.06-.518-.218-.998-.413-1.456-.135-.247-.262-.638-.608-.645-.382.067-.63.39-.877.668-.256-.255-.526-.533-.878-.638a.177.177 0 0 0-.061-.01c-.08 0-.172.035-.214.035-.037 0-.037-.026.042-.123.048-.168.147-.218.27-.218.178 0 .406.106.599.106a.42.42 0 0 0 .084-.008 2.801 2.801 0 0 0 1.156-.158zm-.12.57c.292.075.36.48.502.72.18.42.398.878.255 1.351-.112.225.03.51.015.675-.25.176-.47.547-.802.547a.474.474 0 0 1-.113-.014c-.33-.067-.495-.383-.75-.533-.185.178-.294.548-.599.548a.464.464 0 0 1-.137-.022c-.277-.06-.645-.03-.728-.368-.142-.345-.157-.728-.18-1.103a.243.243 0 0 0 .046.005c.152 0 .166-.177.18-.328.058-.22.215-.321.39-.321.118 0 .243.046.352.134.128.142.518.255.435.48-.037.135-.082.277-.127.42l.315.42c.03-.217.353-.397.165-.615-.03-.098-.142-.225-.127-.3.135-.24.315-.45.525-.63a.241.241 0 0 1 .172-.077c.201 0 .403.263.578.287.173-.188-.015-.263-.187-.36a.526.526 0 0 0-.365-.147.602.602 0 0 0-.49.266c-.143.086-.243.371-.368.371-.04 0-.081-.028-.128-.1-.23-.184-.504-.39-.804-.39a.642.642 0 0 0-.134.014c-.212.044-.403.474-.42.474-.008-.353.157-.669.255-1.014a.459.459 0 0 1 .447-.357c.13 0 .26.055.356.177.223.083.387.475.597.475a.2.2 0 0 0 .116-.04c.232-.247.42-.54.757-.645zm-1.066 5.207c.953.983 1.83 3.475 2.056 4.495-.368-.3-.87-.495-.983-.683-.12-.195-.45-2.093-1.073-3.812zM31.18 6.73c1.8 1.035 4.937 6.13 5.605 6.948-1.126-.713-2.236-1.433-3.444-2.019-1.696-.832-3.144-2.183-4.525-3.444 1.14-.382 1.958-1.028 2.364-1.485zm-1.869 6.468c.24.142.458.337.72.442-.157.39-.255.826-.577 1.133-.06.098-.147.129-.246.129-.17 0-.378-.092-.552-.092a.44.44 0 0 0-.035.001c.21-.525.525-.758.69-1.613zm.51-7.024c.046.094.104.125.165.125.081 0 .168-.053.24-.087.18.127.803.112.436.383-.233.315-1.476 1.174-2.34 1.326-.372.065.254.655.456.865 1.171 1.05 2.319 2.16 3.722 2.918.878.496 1.801.938 2.649 1.486.405.585.885 1.126 1.193 1.771-.308.09-.608.218-.923.293a2.168 2.168 0 0 1-.527.061c-.496 0-.994-.147-1.214-.384-.405-.428-.848-2.251-1.08-2.919-.033-.075-.08-.1-.131-.1-.102 0-.219.099-.277.099-.012 0-.021-.004-.027-.014a.293.293 0 0 0-.29-.282c-.132 0-.254.096-.236.297-.045.473-.135.946-.36 1.373-.027.073-.085.101-.161.101-.213 0-.57-.22-.814-.28.097-.579-.69-3.535-3.002-6.011-.08-.088-.433-.459-.402-.459.004 0 .012.005.027.016.118.031.252.052.383.052.254 0 .502-.078.63-.314.02-.06.044-.082.073-.082.102 0 .258.3.422.3a.69.69 0 0 0 .386.115.79.79 0 0 0 .582-.266c.143-.128.278-.255.42-.383zm-.78-3.924c-.236.105-.649.21-1.02.21-.053 0-.106-.003-.158-.007a.603.603 0 0 1-.107.009c-.253 0-.524-.136-.769-.136a.466.466 0 0 0-.265.074c-.412.6-.787 1.268-.832 2.011-.083 1.426-.045 1.92 1.08 3.091.443 1.006 1.268 4.285 1.516 5.178.27.255-.338 1.65-.593 1.996-.139.191-.505.2-.898.2h-.128c-.354 0-.712.008-.932.145-.21.135-.286.638-.166.705.113-.172.338-.405.496-.427-.15.157.375.082.487.12.304.005.61.03.919.03.149 0 .298-.006.447-.023.068-.03.14-.075.172-.075.024 0 .024.027-.022.113.213.055.451.083.685.083.524 0 1.022-.14 1.131-.42a8.15 8.15 0 0 0 .585-1.299c.192.04.433.176.626.176a.284.284 0 0 0 .155-.04c.21-.144.427-.811.547-1.254.012-.046.074-.069.138-.069.06 0 .122.021.14.061.225.45.6 1.831.96 2.41.272.427.931.638 1.632.638.441 0 .899-.083 1.287-.249.488-.21.848-.165.743-.435-.165-.45-.45-.878-.75-1.26.435.27.87.547 1.306.817.035.131.126.183.218.183.177 0 .362-.193.18-.385-1.704-2.461-4.413-6.656-6.289-8.014a2.525 2.525 0 0 0-1.043-.563c-.127-.33-.09-.773-.165-1.148-.075-.743-.525-1.973-1.313-2.446zm13.466.334q.38 0 .486.608 0 .394-.083.706-.084.311-.403 1.025-.319-.73-.41-1.033-.091-.304-.06-.698.075-.608.47-.608zm2.445 0q.38 0 .47.608.016.394-.068.698-.083.304-.402 1.033-.334-.714-.418-1.025-.083-.312-.083-.706.106-.608.501-.608zm2.43 0q.395 0 .47.608.031.394-.06.698-.091.304-.41 1.033-.32-.714-.403-1.025-.083-.312-.098-.706.121-.608.5-.608zm2.445 0q.38 0 .47.608.016.394-.068.698-.083.304-.402 1.033-.334-.714-.418-1.025-.083-.312-.083-.706.106-.608.5-.608zM40.35 4.756q.394 0 .706.083.311.084 1.04.418-.744.319-1.048.402-.257.071-.579.071l-.12-.002q-.592-.091-.592-.471 0-.395.593-.501zm11.44.023q.094 0 .192.007.593.076.593.47 0 .38-.593.487-.395 0-.706-.084-.311-.083-1.04-.402.729-.319 1.04-.41.234-.068.514-.068zm-9.284.797q.319.729.403 1.032.083.304.068.714-.091.592-.47.592-.396 0-.502-.592 0-.41.083-.721.084-.311.418-1.025zm2.43 0q.319.729.41 1.032.091.304.06.714-.075.592-.47.592-.38 0-.501-.592.015-.41.098-.721.084-.311.403-1.025zm2.445 0q.319.729.41 1.032.091.304.06.714-.075.592-.47.592-.38 0-.501-.592.015-.41.098-.721.084-.311.403-1.025zm2.445.015q.319.729.402 1.033.084.303.069.713-.092.593-.471.593-.395 0-.501-.593 0-.41.083-.721.084-.311.418-1.025zm-7.32-3.341q-.744 0-.805.942-.03.394.122.88l.243.76-.82-.259q-.502-.151-.896-.151-.927.09-.927.835 0 .729.927.805l.08.001q.363 0 .8-.123l.82-.273-.227.76q-.152.5-.152.895.09.927.835.927.729 0 .805-.927.015-.41-.122-.88l-.273-.866h1.61l-.274.85q-.136.501-.136.896.09.927.82.927.744 0 .805-.927.03-.41-.122-.88l-.273-.866h1.625l-.274.85q-.136.501-.136.896.09.927.82.927.744 0 .805-.927.03-.41-.122-.88l-.273-.866 1.625.015-.274.85q-.151.502-.151.896.09.927.835.927.729 0 .805-.927.015-.41-.122-.896l-.243-.774.82.273q.501.137.896.137.927-.091.927-.82 0-.744-.927-.805-.066-.005-.134-.005-.342 0-.747.126l-.835.259.243-.76q.137-.486.122-.88-.076-.942-.805-.942-.744 0-.835.942 0 .38.151.88l.274.85h-1.625l.273-.85q.152-.486.122-.88-.061-.942-.805-.942-.73 0-.82.942 0 .38.136.88l.274.85h-1.61l.273-.85q.137-.486.122-.88-.076-.942-.805-.942-.744 0-.835.942 0 .38.152.88l.273.85h-1.625l.273-.85q.137-.5.137-.88-.091-.942-.82-.942zm-1.863 11.647q-.077 0-.15.023-.283.092-.25.276.028.155.254.155.041 0 .089-.005.309-.033.543-.25-.261-.2-.486-.2zm.145-.17q.603 0 1.861.72.632.326 1.384.326.364 0 .755-.076.986-.2 2.072-.35.37-.052.715-.052.672 0 1.257.193.886.293 1.47.376.586.084 1.856.15-.82.084-1.605.084t-1.854-.175q-.535-.088-1.03-.088t-.95.088q-.911.175-2.073.326-.29.037-.57.037-.842 0-1.594-.338-.73-.498-1.516-.498-.348 0-.706.097-.318-.017-.284-.351.184-.451.785-.468h.027zm.447-1.704q-.362 0-.674 1.103-.262-.974-.676-.974-.061 0-.127.022-.5.317.335 1.22-.669.384-.669.969t.986.652q.305-.08.596-.08.68 0 1.284.439.516.376 1.637.376.748 0 1.764-.167 1.248-.351 2.425-.351.447 0 .883.05 1.092.126 1.86.126.348 0 .63-.026 1.42-.033 1.42-.267-.384-.35-1.086-.468-1.487-.017-2.715-.518-.614-.25-1.506-.25t-2.062.25q-.754.19-1.404.19-.891 0-1.587-.357-.718-.435-1.52-.719.668-.518.626-.86-.042-.343-.41-.36h-.01z"/><path d="M7.95.375c-9.625 0-9.625 17.25 0 17.25m0-17.25h44.96M7.95 17.625h44.96M60.597.375v17.25M52.91.375c9.625 0 9.625 17.25 0 17.25" fill="none" stroke="#000"/></svg>