<svg xmlns="http://www.w3.org/2000/svg" width="75.719" height="18"><path d="M3.46.474c.693 0 1.247.2 1.634.479.006.053.02.107.009.16-.05.248-.195.477-.396.63-.316.207-.697.267-1.057.356-.09.01-.019.031.031.04.23.04.707.099.971.099l.052-.001c.278-.032.54-.148.766-.311.079-.067.147-.15.205-.236.147.346.227.713.26.917.018.11.096.2.202.233 1.139.349 2.038 1.91 2.88 2.949 1.729 2.137 3.199 4.526 4.892 6.76-.937-.456-1.87-.916-2.81-1.374-1.92-1.01-3.92-1.816-5.604-3.09l-.008-.008c-.97-.808-1.963-1.66-2.339-2.793C3 4.364 4.905 2.707 4.69 2.638a.207.207 0 0 0-.064-.01c-.458 0-1.753 1.128-2.019 2.202-.003-.014-.01-.03-.014-.045-.073-.356-.154-1.256.068-1.98a.29.29 0 0 0 .01-.103 1.968 1.968 0 0 0-.123-.634c-.063-.17-.139-.344-.26-.765-.031-.108-.142-.328-.208-.345.186-.138.375-.28.645-.375a.434.434 0 0 0-.132.314c0 .23.164.415.365.415.2 0 .364-.186.364-.415V.894a.411.411 0 0 0-.255-.39c.053-.007.096-.019.154-.022.081-.006.16-.008.238-.008zm.67 7.763c.065.065.135.124.202.187.214.78.412 1.64.692 2.305.483 1.145 1.216 2.141 1.84 3.154a1.814 1.814 0 0 0-.385.27 6.831 6.831 0 0 0-.199.193 2.61 2.61 0 0 0-1.186-.897c.045-.723-.108-1.712-.34-2.787a34.903 34.903 0 0 0-.624-2.425zm1.006.908c1.149.945 2.428 1.738 3.676 2.54-.018.91-.018 1.778.084 2.675a3.411 3.411 0 0 0-1.437-.736c-.02 0-.037.012-.057.012-.649-1.063-1.383-2.06-1.837-3.134-.156-.37-.293-.85-.429-1.357zm.407 5.254a2.5 2.5 0 0 1 .44.541.3.3 0 0 0 .257.14.29.29 0 0 0 .17-.053c.215-.156.347-.324.476-.446.047-.045.097-.08.148-.117l.149 2.722c-.213-.014-.435-.035-.637-.035-.264 0-.495.036-.633.172-.169-.134-.497-.164-.89-.164-.102 0-.207.002-.316.004l.836-2.764zM6.7 9.574c1.354.787 2.784 1.414 4.135 2.125a.244.244 0 0 0 .006.003c1.295.631 2.586 1.28 3.894 1.904.984 1.189 2.052 2.295 3.078 3.42l-2.15.362-4.267-4.635a.288.288 0 0 0-.037-.036C9.861 11.58 8.208 10.635 6.7 9.574zM3.526 0c-.135 0-.273.005-.411.013C2.03.083 1.242.54.973 1.157c-.04.093-.146.314-.007.314a2.35 2.35 0 0 1 .341-.028c.418 0 .38.172.47.194.09.282.29.846.303 1.068-.244.86-.153 1.763-.064 2.198.15.732.63 1.584 1.261 2.38a.285.285 0 0 0 0 .166 35.3 35.3 0 0 1 .903 3.336c.251 1.168.393 2.277.317 2.823a.294.294 0 0 0 .221.328c.045.011.084.031.127.045l-.928 3.079a2.847 2.847 0 0 0-.593-.055c-.381 0-.756.05-1.064.05-.125 0-.24-.008-.34-.032a.546.546 0 0 0-.125-.012c-.436 0-1.428.306-1.34.879.15-.128.257-.159.375-.159.11 0 .23.027.405.027h.027c.254-.004.697-.083 1.053-.083.18 0 .338.02.438.08.236-.01.45-.013.649-.013.85 0 1.447.07 2.5.075a89.565 89.565 0 0 0 2.974-.079c.45.003.697.054.922.054h.04c.134-.004.265-.057.48-.057.123 0 .273.017.468.07-.25-.341-.877-.685-1.33-.685a.591.591 0 0 0-.302.071 5.081 5.081 0 0 0-.508-.022c-.22 0-.448.01-.678.02l-.157-2.83c.487.203.857.517 1.281 1.021a.295.295 0 0 0 .513-.246c-.192-1.039-.213-2.019-.202-3.06.54.354 1.072.713 1.576 1.094l4.36 4.738a.29.29 0 0 0 .263.09c.95-.159 1.9-.315 2.849-.474a.294.294 0 0 0 .23-.193.298.298 0 0 0-.06-.297c-.741-.83-1.508-1.631-2.25-2.445 1.269.78 2.875 1.755 3.08 1.755.022 0 .027-.013.012-.04-.094-.163-.9-.755-1.775-1.373.14.058.276.12.415.177l.017.01c.103.035.16.059.27.062a.286.286 0 0 0 .108-.016.317.317 0 0 0 .188-.152.32.32 0 0 0 .023-.238c-.017-.05-.038-.077-.054-.098-.061-.085-.103-.109-.162-.154a4.553 4.553 0 0 0-.205-.149c-.153-.105-.336-.223-.493-.328a4.992 4.992 0 0 1-.328-.233.307.307 0 0 0-.028-.025l-3.892-2.736c-.008-.006-.02-.001-.028-.006-1.333-1.869-2.588-3.825-4.046-5.627-.744-.92-1.598-2.528-2.985-3.064-.067-.396-.218-1.127-.755-1.649C5.277.26 4.618.056 3.877.011A5.728 5.728 0 0 0 3.526 0zm28.487.92l.133.002h.068q2.49 0 4.748 2.14l-1.397 1.13q-1.308-1.249-3.42-1.249-2.11 0-3.418 1.25l-1.398-1.13Q29.56.92 32.013.92zm.133 2.886q2.349.03 3.865 2.467h-7.76q1.19-2.438 3.895-2.467zm0-3.806q-3.687.149-6.214 3.033l2.11 1.784q-.891 1.189-1.1 2.23H37.32q-.208-1.041-1.1-2.2l1.962-1.785Q35.833.15 32.146 0zm9.36 12.17q.442 0 .442.464v3.556H40.6l.442-3.746q.021-.273.463-.273zm.02-.568q-1.072 0-1.135.61-.442 3.978-.948 4l-9.764.357-1.01-.042q-1.137-1.2-2.02-1.2l-.653-.042q-1.79.337-2.147.337-.252 0-.252.337 0 .463.715.463 1.229-.196 1.885-.196.12 0 .22.006.357 0 .589.295-.41.508-1.837.508-.11 0-.226-.003-1.62-.042-2.862-.421-.61 0-.61.716.063.652 4.567.673l2-.21 11.405-.064 3.2.043v-5.135q-.022-1.032-1.116-1.032zm6.009-8.886q-.206.205 0 .38l-.585-.222.585-.158zm3.158-.016l.568.174-.568.221q.205-.174 0-.395zm-2.764-.016l.474.348-.505.095q.19-.174.031-.443zm2.37-.015q-.159.284.03.458l-.505-.095.474-.363zm.065-.13q-.165 0-.263.05-.34.174-.466.506.284.157.634.157.567 0 1.308-.41-.808-.303-1.213-.303zm-2.493.002q-.409 0-1.236.317.74.404 1.304.404.363 0 .654-.167-.127-.332-.466-.505-.096-.05-.256-.05zm-2.52-.754q-.093 0-.209.108-.323.3.53 1.721l.157-.11-.252-.616.015-.506-.205-.031q.063.079.071.347.008.269.277.758l-.048.048q-.11-.206-.347-.735t-.087-.734q.057-.078.116-.078.094 0 .192.204l.047-.031q-.091-.345-.257-.345zm7.523 0q-.169 0-.27.345l.047.031q.098-.204.195-.204.06 0 .12.078.159.205-.078.734-.237.53-.363.735l-.048-.048q.269-.49.277-.758.008-.268.07-.347l-.189.031.016.506-.253.616.142.11q.869-1.421.545-1.721-.116-.108-.21-.108zm-7.422-.218q.135 0 .18.192.087.37.063.616-.017.176.175.176.075 0 .18-.026-.41.458-.031.837.095.52-.174.536h-.01q-.266 0-.7-.9-.443-.916-.016-1.263.206-.168.333-.168zm7.324 0q.127 0 .333.168.426.347-.024 1.263-.442.9-.701.9h-.01q-.26-.015-.165-.536.363-.38-.032-.837.102.026.173.026.186 0 .175-.176-.016-.245.07-.616.046-.192.181-.192zm-2.417.33q-.098 0-.187.02-.553.118-.742.513-.174.537-.166 1.192.008.655.363.774.355.118.245.245-.061.07-.146.07-.07 0-.154-.047-.073-.039-.137-.039-.104 0-.187.102-.067.083-.136.083-.07 0-.14-.083-.088-.102-.19-.102-.065 0-.134.04-.081.045-.15.045-.085 0-.15-.07-.118-.126.237-.244.355-.119.363-.766.008-.647-.15-1.2-.158-.395-.687-.513-.083-.02-.178-.02-.505 0-1.33.533l-.032.237q.777-.484 1.35-.484.381 0 .672.215.331 1.232-.048 1.8-.647.158-.442.522.121.214.336.214.149 0 .343-.104.166.205.328.205t.32-.205q.2.104.353.104.22 0 .341-.214.206-.364-.457-.522-.3-.568-.032-1.8.302-.225.693-.225.57 0 1.328.478l-.047-.237q-.742-.516-1.25-.516zm-.836 3.42q.176 0 .444.097-.452.15-.917.15-.413 0-.836-.118.305-.124.498-.124.126 0 .204.053.1.067.196.067.097 0 .191-.067.083-.059.22-.059zm-1.31.255q.45.166.928.166.478 0 .983-.166-.52.348-1.01.371l-.055.002q-.458 0-.845-.373zm.538-.458q-.38.08-.853.348.426.52.837.616.17.039.35.039.256 0 .534-.079.474-.134.695-.592-.505-.253-.837-.316l-.363.142-.363-.158zm1.563-3.884q.695.663 1.674 1.263.174.458.079.6-.095.142-.19.837-.49 1.105-.908 1.816-.418.71-.868 1.003-.196.127-.408.127-.276 0-.58-.214-.363.249-.634.249-.141 0-.257-.068-.34-.197-.9-.868-.561-.671-.987-2.045-.095-.695-.182-.83-.087-.133.071-.607 1.39-.616 1.674-1.232.59.245 1.175.245.623 0 1.24-.276zm-1.2 5.748q.413.288.737.288.085 0 .163-.02l.316 2.069h-2.464l.348-2.069q.078.02.163.02.324 0 .737-.288zm0-6.98q-2.511 0-3.19 2.242.063-.679-.332-.876-.095-.048-.194-.048-.306 0-.635.466-.434.616.672 2.195.201.435.41.435h.008q.213-.008.292-.214.442 1.864 1.769 2.764l-.442 2.653h3.22l-.378-2.653q1.01-.932 1.769-2.764.079.206.292.214h.007q.21 0 .411-.435 1.106-1.579.663-2.195-.334-.466-.638-.466-.097 0-.19.048-.388.197-.309.876Q51.625 0 49.114 0zm-.553 11.416V18h1.102v-6.584zM60.284 4.07l.949 2.213q-.475.158-.949.158t-.948-.158l.948-2.213zm0-1.738L58.21 6.876q.968.435 2.074.435 1.107 0 2.075-.435l-2.075-4.544zM63.09.869q.158 3.26.929 6.165-.949 1.067-3.735 1.067T56.55 7.034q.77-2.904.928-6.165zM56.293 0q-.474 0-.474.435 0 .434.474.434.118.1.375.218-.158 2.885-1.086 6.48Q57.32 8.99 60.284 8.99t4.703-1.422q-.929-3.596-1.087-6.481.257-.119.375-.218.475 0 .475-.434 0-.435-.475-.435zm15.06 5.162c1.074 0 2.418.552 3.069 1.202.569.57.643 1.324.664 2.025h-7.435c.021-.701.095-1.456.665-2.025.65-.65 1.963-1.202 3.037-1.202zm0-.601c-1.274 0-2.645.589-3.449 1.392-.824.824-.917 1.909-.917 2.72v.317h8.732v-.316c0-.812-.062-1.897-.886-2.721-.803-.803-2.206-1.392-3.48-1.392zM57.402 15.233q-.115 0-.223.035-.425.137-.375.411.043.233.38.233.06 0 .132-.008.461-.05.81-.374-.39-.297-.724-.297zm.216-.253q.9 0 2.78 1.074.942.488 2.066.488.543 0 1.128-.114 1.472-.3 3.094-.524.55-.076 1.067-.076 1.004 0 1.877.288 1.323.437 2.196.561.874.125 2.77.225-1.223.125-2.396.125-1.172 0-2.77-.262-.798-.131-1.537-.131-.74 0-1.42.13-1.36.263-3.094.487-.433.057-.852.057-1.256 0-2.379-.506-1.09-.744-2.265-.744-.518 0-1.054.145-.474-.025-.424-.524.275-.673 1.173-.698h.04zm.667-2.545q-.54 0-1.007 1.647-.39-1.454-1.008-1.454-.092 0-.19.032-.748.474.5 1.822-.998.574-.998 1.447 0 .873 1.472.973.455-.12.89-.12 1.016 0 1.917.657.771.561 2.445.561 1.116 0 2.633-.25 1.863-.524 3.622-.524.667 0 1.319.075 1.63.189 2.776.189.52 0 .942-.039 2.12-.05 2.12-.4-.573-.523-1.621-.698-2.22-.025-4.055-.773-.917-.375-2.249-.375t-3.079.375q-1.126.284-2.097.284-1.33 0-2.37-.534-1.072-.649-2.27-1.073.998-.774.936-1.285-.063-.512-.611-.537h-.017z"/></svg>