<svg xmlns="http://www.w3.org/2000/svg" width="46.335" height="18"><path d="M11.116 8.203c-.51.04-.793.296-.847.767.067.51.35.78.847.806.498-.026.76-.295.787-.806-.04-.47-.303-.726-.787-.767zm.06-1.694c.364 0 .7.068 1.01.202a2.659 2.659 0 0 1 1.371 1.361c.134.303.201.622.201.958 0 .35-.067.676-.202.978a2.567 2.567 0 0 1-2.38 1.523c-.362 0-.702-.064-1.018-.192a2.426 2.426 0 0 1-.816-.534 2.621 2.621 0 0 1-.545-.797 2.38 2.38 0 0 1-.202-.978c0-.336.068-.655.202-.958.134-.302.316-.571.545-.806.228-.236.5-.42.816-.555a2.574 2.574 0 0 1 1.019-.202zm-.04-.685c-.443 0-.86.084-1.25.252-.39.168-.726.396-1.008.685a3.36 3.36 0 0 0-.676 1.009 3.053 3.053 0 0 0-.252 1.24c0 .444.084.857.252 1.24.168.384.393.716.676.999a3.2 3.2 0 0 0 2.258.927c.444 0 .857-.084 1.24-.252a3.36 3.36 0 0 0 1.009-.675c.289-.283.518-.615.686-.999.168-.383.252-.796.252-1.24 0-.444-.084-.857-.252-1.24a3.268 3.268 0 0 0-1.694-1.694 3.053 3.053 0 0 0-1.24-.252zm7.165-3.229q-.082.871-.082 1.953 0 1.08.105 2.184-.24-.127-.75-.127-.519 0-.752.127.113-1.103.105-2.184-.007-1.082-.082-1.953zm-.728 4.475q.51.008 1.036.27l-.135.248q-.106-.018-.199-.018-.32 0-.477.221-.09-.398-.225-.488-.135.09-.233.488-.157-.221-.477-.221-.092 0-.198.018l-.136-.247q.541-.263 1.044-.27zm0 .721q.113.09.075.263-.037.173-.075.33-.045-.157-.082-.33-.038-.173.082-.263zm.684.001q.042 0 .09.007-.511 1.216-.774 1.216-.255 0-.788-1.216.048-.007.091-.007.274 0 .352.247.097.278.202.45.113.18.143.18.038 0 .135-.18.105-.172.195-.45.085-.247.354-.247zM16.402 2.25q.36 2.553-.008 4.603-.668.315-.555.533.082.164.189.164.039 0 .081-.022.653.736 1.074 1.735.165 1.644-.045 5.684 0 .803.42.803h.023q.42 0 .42-.803-.203-4.04-.045-5.684.413-.999 1.066-1.735.043.022.082.022.106 0 .189-.164.112-.218-.549-.533-.375-2.05 0-4.603zm6.526.54c.503.038.934.152 1.295.342-.475.56-.906 1.323-1.295 2.29-.398-.967-.834-1.73-1.309-2.29.37-.18.807-.294 1.31-.341zm0 3.67c.294 2.741.45 4.963.47 5.778-.02 1.385-.176 2.305-.47 2.76-.303-.455-.46-1.375-.47-2.76.01-.825.167-3.046.47-5.777zm0-4.21c-.967 0-1.674.294-2.12.882.674.56 1.214 1.427 1.622 2.603 0 .531-.106 1.975-.32 3.445-.213 1.47-.263 3.1-.15 4.893.245 1.118.538 1.677.88 1.677a.345.345 0 0 0 .088-.012c.03.008.06.012.09.012.34 0 .633-.559.877-1.677.105-1.792.05-3.423-.163-4.893-.213-1.47-.32-2.914-.32-3.445.417-1.176.962-2.044 1.636-2.603-.455-.588-1.162-.882-2.12-.882zm9.364.501l.073.001h.037q1.357 0 2.587 1.167l-.761.615q-.713-.68-1.863-.68t-1.863.68l-.762-.615q1.215-1.168 2.552-1.168zm.073 1.573q1.28.016 2.106 1.345h-4.229q.648-1.329 2.123-1.345zm0-2.074q-2.01.081-3.386 1.653l1.15.972q-.486.648-.6 1.215h5.655q-.114-.567-.6-1.2l1.07-.971q-1.28-1.588-3.29-1.669zm5.1 5.24q.241 0 .241.252V9.68h-.734l.241-2.042q.011-.149.252-.149zm.012-.31q-.585 0-.62.332-.24 2.168-.516 2.18l-5.32.194-.551-.023q-.62-.654-1.101-.654l-.356-.022q-.974.183-1.17.183-.137 0-.137.184 0 .252.39.252.67-.107 1.027-.107.065 0 .12.004.195 0 .32.16-.223.277-1 .277l-.123-.002q-.883-.023-1.56-.229-.332 0-.332.39.034.355 2.488.367l1.09-.115 6.215-.034 1.744.023V7.742q-.012-.562-.608-.562zM27.35 11.756v3.994h.668v-3.994zm4.591.005v3.989h.668v-3.989zm4.673 0v3.989h.667v-3.989z"/><path d="M7.95.375c-9.625 0-9.625 17.25 0 17.25m0-17.25h30.135M7.95 17.625h30.135M45.772.375v17.25M38.085.375c9.625 0 9.625 17.25 0 17.25" fill="none" stroke="#000"/></svg>