<svg xmlns="http://www.w3.org/2000/svg" width="49.008" height="18"><path d="M9.938 2.25q-.07 0-.169.086-.388.522-.417 1.492.119.762.537 2.15-.15 1.119-.224 3.074-.06.656.358.85 1.239.329 3.134.329 1.91 0 3.134-.329.433-.194.373-.85-.074-1.955-.224-3.075.418-1.387.538-2.149-.03-.97-.418-1.492-.098-.086-.169-.086-.1 0-.145.176.105.298.194.582.12.358.09.671-.03.508-.097.828-.067.321-.276.321l-.022.001q-.351 0-.351-.94 0-.344.09-.837-.078-.13-.166-.13-.084 0-.178.115-.045.359-.06.791-.06.657.314 1.851-.135 1.686-.135 3.373-1.014.164-2.492.209-1.462-.045-2.477-.21 0-1.686-.134-3.372.373-1.194.313-1.85-.015-.433-.06-.792-.094-.115-.177-.115-.09 0-.166.13.09.493.09.836 0 .941-.352.941h-.022q-.209 0-.276-.322-.067-.32-.097-.828-.03-.313.09-.671.09-.284.194-.582-.044-.176-.145-.176zm-.205 9.547a1.91 1.91 0 0 1-.449 1.032.79.79 0 0 1-.159.018c-.144 0-.263-.052-.463-.156-.268-.14-.381-.307-.339-.504.042-.197.158-.314.347-.35.046-.01.165-.013.296-.013.192 0 .41.006.45.006.107 0 .205-.01.317-.033zm6.759 1.6c.131 0 .162.071.123.358-.04.286-.027.653.036 1.102.054.39-.215.505-.263.505a.02.02 0 0 1-.003 0c-.339-.056-.525-.2-.415-.607.11-.407.33-.768.522-1.357zm-6.388-1.44c.556.116 1.08.223 1.72.249.583.024 2.863.036 3.282.04.627.004 1.138.056 1.532.153.394.097.682.256.966.65.283.394.445.901.484 1.52.038.6-.073.752-.423.854h-.001c-.024 0-.506-.126-.574-.466-.068-.344-.177-.753-.153-1.171.023-.418-.144-.741-.401-.799a9.41 9.41 0 0 0-.985-.154c-.4-.044-1.296-.072-2.69-.082-.43-.004-.81-.005-1.144-.005-.75 0-1.666.032-1.72.032-.2 0-.22-.006-.138-.138.105-.168.187-.362.245-.683zm-.165-.553c-.04 0-.086.081-.14.101a.78.78 0 0 1-.28.039l-.14-.001h-.02c-.108 0-.614 0-.8.013-.308.021-.5.2-.58.465-.078.265 0 .5.237.705.236.205.496.338.78.398.148.032.264.048.347.048.075 0 .124-.014.145-.04.045-.055.504-.085 1.379-.09.874-.006 1.78-.008 2.718-.008s1.842.07 2.714.212c-.3.547-.51 1.02-.63 1.422-.12.402-.051.698.209.887a.74.74 0 0 0 .448.136c.188 0 .405-.053.65-.16.207.146.41.219.61.219a.838.838 0 0 0 .281-.05c.289-.102.454-.37.496-.803a3.117 3.117 0 0 0-.23-1.542c-.245-.575-.642-.973-1.075-1.164-.422-.187-1.017-.237-1.757-.237-.02 0-1.844-.008-2.598-.027-.922-.024-1.576-.06-1.962-.11-.386-.05-.53-.165-.575-.273-.029-.07-.152-.14-.227-.14zM24.564 2.25l-.014.001a15.506 15.506 0 0 1-1.122.037c-.08.005-.087.107-.06.165.169.474.314.956.45 1.44h-.019c-.135.003-.272 0-.404.013l-.007.01c-.008-.03-.03-.058-.06-.065a28.706 28.706 0 0 1-1.275-.923c-.01-.002-.021-.005-.032-.005h-.007c-.042.026-.057.084-.08.127-.074.197-.135.399-.217.593-.058.148-.122.294-.166.446.02.042.056.055.096.055a.42.42 0 0 0 .114-.022c.515-.11 1.045-.1 1.57-.107-.053.115-.075.243-.122.36-.022.066-.047.134-.061.202a.092.092 0 0 0-.013 0l-.016.001c-.64.248-1.265.552-1.811.97a6.77 6.77 0 0 0-.75.652c-.004.096.104.127.176.154l.442.182c-.075.103-.094.236-.141.353-.248.726-.597 1.413-.888 2.122.001.058.055.087.108.087.02 0 .04-.004.056-.012.102-.019.205-.028.308-.03-.021.08-.03.165-.065.24-.174.555-.46 1.065-.675 1.604-.01.058.045.095.098.095a.1.1 0 0 0 .044-.01 6.45 6.45 0 0 1 .796-.092c-.03.074-.036.157-.06.234-.128.545-.316 1.082-.339 1.646-.005.367.04.733.098 1.095.1.595.28 1.174.512 1.73.002.051.049.083.094.083a.081.081 0 0 0 .073-.04c.033-.075.044-.16.07-.238.133-.481.229-.974.271-1.472.042-.43.059-.863.056-1.295-.018-.505-.139-.999-.216-1.497-.014-.075-.024-.152-.043-.226a7.034 7.034 0 0 1 .764.127c.081 0 .099-.107.063-.164-.217-.567-.438-1.134-.62-1.714l.026.005c.22.04.44.091.663.104.07-.058.02-.152-.014-.216-.268-.582-.488-1.193-.576-1.83-.028-.173-.027-.35-.057-.523.19.077.379.154.569.228.083-.02.087-.121.07-.19a2.105 2.105 0 0 1 .267-1.198c.178-.318.436-.58.698-.828.104.09.225.156.343.227l-.06.015c-.215.418-.397.852-.591 1.28-.025.06-.054.12-.063.184.033.052.087.063.143.063.036 0 .072-.004.104-.004h.006l.24-.006c-.027.083-.034.176-.061.259-.155.639-.308 1.279-.461 1.919.018.068.087.082.15.082a.648.648 0 0 0 .055-.003l.397-.014c-.036.105-.053.218-.088.323-.172.628-.347 1.257-.514 1.886.018.07.088.085.154.085a677.2 677.2 0 0 1 .691-.021.867.867 0 0 0-.024.103c-.133.577-.336 1.144-.366 1.74a6.87 6.87 0 0 0 .2 1.602c.103.423.247.836.41 1.239.007.046.052.077.094.077.025 0 .05-.01.065-.035.035-.062.042-.137.066-.205.18-.619.282-1.259.315-1.902.021-.343.033-.687.018-1.03-.036-.492-.147-.974-.226-1.46-.009-.048-.016-.097-.03-.145.222-.007.444-.014.665-.023.078-.06.035-.167.013-.245-.189-.674-.375-1.349-.568-2.021.185-.007.37-.014.555-.023.077-.06.034-.166.01-.243l-.584-1.969.596-.016c.075-.05.038-.15.003-.214-.177-.4-.35-.801-.534-1.199.132-.054.263-.11.391-.171.354.33.662.728.804 1.196.081.278.087.573.058.86.016.044.054.061.096.061a.2.2 0 0 0 .1-.03l.443-.182-.003.004a5.206 5.206 0 0 1-.348 1.696c-.097.265-.22.52-.326.78-.006.057.047.091.098.091a.102.102 0 0 0 .051-.013c.196-.029.39-.067.585-.105-.04.108-.066.221-.11.327-.166.486-.353.965-.534 1.445-.014.057.038.107.09.107a.08.08 0 0 0 .042-.011 5.81 5.81 0 0 1 .717-.116.57.57 0 0 0-.013.066c-.08.447-.167.892-.223 1.342a4.98 4.98 0 0 0-.018.846c.026.713.098 1.429.289 2.118.032.117.063.236.101.351.015.03.045.044.076.044.037 0 .075-.021.084-.062a7.92 7.92 0 0 0 .565-2.05c.05-.41.083-.828.004-1.236-.079-.434-.208-.857-.31-1.285-.018-.05-.026-.104-.043-.153.123.003.246.011.369.027.171.018.34.054.512.069.072-.02.066-.116.03-.166-.24-.577-.55-1.13-.704-1.738l-.008-.032c.029 0 .058 0 .087.002.109.008.217.03.326.039.076-.034.058-.134.022-.192-.318-.723-.663-1.437-.909-2.19-.023-.058-.04-.124-.074-.176l-.005-.003c.199-.083.398-.166.595-.252.047-.08-.032-.156-.09-.201-.506-.462-1.064-.874-1.683-1.171a6.493 6.493 0 0 0-.716-.3c-.018-.055-.043-.11-.056-.163-.064-.181-.117-.368-.197-.542a.252.252 0 0 0 .052.004l.06-.001h.153c.459 0 .921.015 1.37.118.013.006.03.009.046.009.045 0 .093-.023.084-.074-.088-.273-.21-.534-.3-.807-.04-.112-.079-.225-.129-.332a.113.113 0 0 0-.06-.008c-.42.308-.834.628-1.27.916-.046.023-.105.07-.072.127v.001a.848.848 0 0 0-.158-.012l-.16.002a1.243 1.243 0 0 1-.068-.001h-.035a.077.077 0 0 0 .004-.029c.17-.508.34-1.022.631-1.476.036-.046.01-.127-.046-.137a.065.065 0 0 0-.012-.001zm6.156 0c-.697 0-1.308.513-1.308 1.171V15.75h.852V3.421c0-.322.284-.427.462-.427.187 0 .475.131.475.527v8.103h.852V3.521c0-.66-.652-1.271-1.332-1.271zm7.107 1.344l-.114.03q-.08-.015-.148-.015-.068 0-.125.016-.114.038-.137.083-.023.046-.076.084l.038.045.061-.03q.048.022.102.022.134 0 .308-.136l.114-.015-.023-.084zm.555-1.086q.41 0 .576.418.183.47.008.805-.146.267-.33.267-.047 0-.095-.016-.13-.046-.076-.13.106-.098.03-.258.076-.243.015-.357-.06-.166-.187-.166-.046 0-.101.022-.099.06-.13.13-.254-.058-.457-.058-.25 0-.423.088.038-.304.289-.486.25-.175.759-.25.064-.01.122-.01zm-3.858 3.827q.942.592 1.602.805l.327.084q-.327.129-1.541.531-.13-.114-.35-.13l-.212-1.183q.098-.03.174-.107zm3.787-3.126q.064 0 .086.082.045.129-.016.318.046.145-.038.152-.014.003-.026.003-.067 0-.08-.071-.038.084.236.425.265.35.79.858.523.516.576 2.878l-1.055.531q-.213-1.404-.987-2.407-.19-.212-.099-.402.099-.182.653-.478.273-.114.076-.274-.19-.16-.243-.341-.13 0-.273.114-.239.119-.337.119-.02 0-.035-.006-.084-.03-.1-.144l.115-.114q.053-.045 0-.083l-.228.053q.038-.198-.099-.213-.047.031-.078.031-.038 0-.05-.046-.031-.099.052-.288.046-.183.145-.281.09-.084.234-.084h.024q.053.003.105.003.105 0 .206-.01l-.015-.084q-.057.008-.123.008-.067 0-.143-.008-.035-.004-.068-.004-.222 0-.334.179-.015-.114 0-.16.192-.134.46-.134.188 0 .413.066v.099q.034.007.063.007.028 0 .05-.007 0-.243.084-.274.033-.013.059-.013zm1.703 4.986q.44.775.433 1.375-.008.6-.122 1.928l-1.928-.015.44-2.771 1.177-.517zM38.447 2.25h-.028q-.524.016-.964.274-.486.258-.47 1.01.037.205-.023.402-.054.19-.038.387.032.082.103.082.029 0 .064-.013.035-.016.056-.016.052 0 .02.091-.03.016-.016.054.01.02.034.02.012 0 .027-.005-.043.107.022.107h.009l.011-.002q.058 0 .064.07.008.083.092.174.032.033.1.033.102 0 .287-.079l.273-.144q.023.069.099.16-.646.197-.942.729-.432.523-.706 1.085-.653-.19-1.928-.729-.114-.159-.372-.205l-.327-1.753q-.099-.547.258-.972l-.243-.175q-.47.402-.319 1.23l.289 1.67-.258.016q-.03.129.129.19-.03.5.258.523l.213 1.162q-.167.03-.327.053-.015.144.182.19-.066.486.268.486h.02l.031.296.342-.068-.068-.312q.083-.045.167-.076 1.632-.197 2.02-.584.523-.813.766-1.26.532.432.873 2.103l-.04-.001q-.36 0-.324.259.03.214.203.214.049 0 .108-.017l-.516 3.12q-.456 2.028-.66 2.514-.115.387-.38.463-.274.068-.873.41-.335.068-.373.182-.03.114.16.137.039.005.086.005.173 0 .453-.066.143-.03.312-.03.254 0 .569.068.072.014.133.014.387 0 .315-.583-.03-.426.493-1.208.524-.782.577-1.852l.243-.243.775-.015.015.372q.212 1.457.228 1.92.098.752-.183.866-.288.106-.865.448-.342.053-.387.167-.038.114.16.144.047.008.104.008.174 0 .442-.068.14-.033.322-.033.282 0 .665.078.089.018.158.018.427 0 .1-.686.023-.714.16-1.48.136-.767-.16-1.55l.152-.204.09-2.096q.024-.903-.63-2.02-.03-.41-.098-1.442-.06-1.04-.562-1.503-.501-.471-.554-.57.28-.197.372-.516.099-.327-.122-.889-.206-.539-.716-.539z"/><path d="M7.95.375c-9.625 0-9.625 17.25 0 17.25m0-17.25h32.808M7.95 17.625h32.808M48.445.375v17.25M40.758.375c9.625 0 9.625 17.25 0 17.25" fill="none" stroke="#000"/></svg>