<svg xmlns="http://www.w3.org/2000/svg" width="72.288" height="18"><path d="M17.788.568q-.111.037-.111.128t.07.146q.027.022.054.022.04 0 .077-.05.063-.081.021-.163-.041-.083-.11-.083zM2.4.47q-.153 0-.296.282.084.183.264.237.028.01.054.01.131 0 .224-.229 0-.255-.194-.292Q2.425.47 2.399.47zM1.395.787q-.042.128.027.238l-.583.073q-.014-.164.556-.31zm.568.436zm.105-.003q.12 0 .195.033.027.012 0 .012-.052 0-.288-.04.05-.005.093-.005zm2.564 1.252q.035 0 .097.068 1.125 1.223 2.792 2.865Q9.19 7.048 9.397 7.724 8.035 7.468 7.07 6.318q-.966-1.15-1.681-2.236-.716-1.086-.799-1.414-.017-.196.042-.196zm.046-.868q.202 0 .384.096 4.321 4.308 4.946 5.604.584 1.405.764 2.154-.076.11-.182.11-.087 0-.193-.074l-.57-1.515q-.43-1.296-2.104-2.875-1.674-1.579-2.424-2.5-.441-.542-.676-.542-.164 0-.227.268-.108.455-.38.455-.115 0-.26-.081.126-.858.542-1.022.198-.078.38-.078zm.357 6.43q.666 1.405.541 2.83-.125 0-.236.236-.045-.403-.277-.403-.051 0-.112.02.292-1.405.084-2.683zM2.557.346q.066 0 .116.013.25.063.292.237.029.122.058.122.013 0 .025-.022.042-.073.056-.164.305.53.041 1.57t.848 1.24q1.028 3.104 2.209 4.72 1.18 1.615.986 3.038-.449-.438-.993-.438-.113 0-.23.019.042-1.296-.472-2.556t-.945-1.889q-.43-.63-1.16-1.497-.73-.867-.722-1.789.007-.921.194-1.286.188-.365.181-.584-.003-.091-.027-.091-.035 0-.112.182-.132.31-.73.328l-.07.001q-.568 0-1.235-.274l.82.073q.404.11.601.11.162 0 .183-.074.049-.164-.076-.192-.125-.027-.257-.027t-.201.055l.026.052-.29-.052Q1.492.787 1.617.623q.028-.055.097-.055-.028.183.049.274.028.034.056.034.046 0 .09-.098.07-.155-.125-.228.511-.204.773-.204zm15.412.04q.375 0 .555.365.056.055.695.2v.056l-.695.073q-.597 0-.75-.12-.153-.118-.146-.273.007-.155.188-.155.18 0 .25.082t.035.173q-.035.092-.132.147h.028q.18 0 .187-.22.007-.237-.299-.273-.389 0-.291.374.092.357.854.357l.076-.001q.431-.037.765-.128L19.26.97q1.236 1.004 1.16 2.29-.077 1.288-.966 2.136-.889.85-1.584 1.871-1.083 1.734-1.167 2.72-.083.986.376.986.458 0 1.118-.721.66-.721 1.34-.74 1.82.055 1.612 2.209-.667-.93-1.5-.93-.417 0-1.14.474-1.097.766-1.667.766l-.472-.091q-.861-.84-.583-2.482.416-1.187 1.125-4.235.486-1.734.965-2.628.48-.895 1.022-.913.291 0 .944.365.027.01.047.01.094 0 .037-.21-.526-.429-1.226-.429-.225 0-.47.045-.208 0-.506-.146-.3-.146-.3-.694.251-.237.543-.237zM4.396 3.05q1.083 1.825 1.986 3.002.903 1.178 1.702 1.588.799.411 1.48.43.083.145 1.653 4.617l-.097.055-3.738-3.14q.028-.273-1.104-1.962-1.132-1.687-1.994-4.46l.112-.128zm3.834 7.867l2.07 1.66q.07.256-.5.348-.127.02-.233.02-.37 0-.49-.248-.152-.32-.389-.831-.236-.511-.458-.95zm7.071-.785q0 .767.167 1.332.43 1.004 1.153 1.023h.038q.711 0 1.699-.657.938-.625 1.365-.625.034 0 .066.004.416.055.903.566.486.51.514.894.05.311-.043.311-.06 0-.18-.128-.399-1.05-1.024-1.05h-.01q-.633.01-1.557.648-.923.639-2.153.639t-1.368-1.04q-.14-1.04.43-1.917zm-10.294 1.06l.208.547q.195-.255.299-.3l.005-.002q.088 0-.304 1.543l-.583.238q-.153-.146.09-.904.243-.757.285-1.122zm14.763 1.14q.461 0 .727.502-.18.384-.847.603-.514 0-1.042-.566.685-.539 1.162-.539zm-1.607.758q.207.265.448.438h-1.883q.692-.095 1.435-.438zm-7.182 1.15Q9.427 17.175 6.5 17.25q-2.913-.076-4.467-3.011zm11.239.018q-1.554 2.935-4.48 3.012-2.913-.077-4.48-3.012zM2.796.008q-.084 0-.179.013-.222 0-1.264.42-.834.255-.903.657l.028.62.417-.2q.68.292 1.139.292.458 0 .347.41-.111.411.028 1.37.139.958 1.097 1.934.959.977 1.188 2.556.23 1.578-.41 3.641l.209-.164q.004-.004.007-.004.046 0-.216.816-.277.867-.757.894-.084.005-.16.005-.348 0-.486-.105-.155-.12-.462-.12l-.045.001q-.34.01-.34.302v.182H1.06Q2.66 17.982 6.507 18q3.849-.018 5.446-4.472l-4.279.037q0-.165-.264-.356-.129-.094-.296-.094-.175 0-.391.103-.13.061-.278.061-.337 0-.771-.317.097-.639.236-1.14.139-.503.528-.594.036-.008.073-.008.362 0 .816.811.264-.675.153-1.825l.139.128q1.042 2.3 1.257 2.701.163.305.634.305.15 0 .331-.031.75-.128.737-.475l.639.42.486-.237-1.07-3.048q.264 0 .487-.292-.264-1.096-.82-2.446-.39-.822-.792-1.278Q8.411 4.603 7.23 3.39T5.493 1.518q-.373-.28-.775-.28-.226 0-.461.088-.653.246-.792 1.214-.042-.037.07-.73.11-.694-.05-1.287-.138-.514-.689-.514zM18.016 0q-.252 0-.478.094-.292.11-.347.42-.111.383.097.757.208.374.653.466-.89 1.058-1.514 3.741-.584 2.556-.973 3.779-1.042 1.113-1.035 2.236.007 1.122.424 1.597.301.343.878.438h-3.434q1.597 4.454 5.446 4.472 3.848-.018 5.445-4.472h-2.674q.153-.11.313-.256.156.245.354.245.083 0 .174-.044.347-.219.139-1.004.194-2.245-.459-2.865-.653-.621-1.473-.621-.75 0-1.625.849-.543.526-.743.526-.124 0-.118-.198.014-.52.611-1.761.403-.876 1.75-2.254 1.348-1.378 1.334-2.775-.014-1.396-.597-2.099-.584-.703-1.292-.794-.111-.2-.292-.328Q18.4.02 18.1.003 18.059 0 18.017 0zm7.162 0v8.023h.67V.685h7.104v6.621l-2.742.016-.015-4.502h-.701v5.203h4.144V0zm2.852 11.969q-.18.18 0 .331l-.511-.193.51-.138zm2.76-.014l.497.152-.497.193q.18-.152 0-.345zm-2.415-.014l.414.304-.442.083q.166-.152.028-.387zm2.07-.013q-.138.248.027.4l-.441-.083.414-.317zm.057-.113q-.144 0-.23.044-.297.151-.407.441.248.137.555.137.495 0 1.143-.358-.706-.264-1.06-.264zm-2.179 0q-.357 0-1.08.278.647.353 1.14.353.317 0 .571-.146-.11-.29-.407-.441-.084-.043-.224-.043zm-2.202-.658q-.08 0-.182.094-.283.262.462 1.505l.138-.097-.22-.538.013-.442-.18-.028q.056.07.063.304.007.235.241.663l-.041.041q-.097-.18-.304-.642t-.076-.642q.05-.068.102-.068.082 0 .167.179l.042-.028q-.08-.3-.225-.3zm6.575 0q-.148 0-.236.301l.041.028q.085-.18.17-.18.053 0 .106.07.138.179-.069.641-.207.463-.317.642l-.042-.041q.235-.428.242-.663.007-.234.062-.304l-.166.028.014.442-.22.538.123.097q.76-1.243.477-1.505-.102-.094-.185-.094zm-6.487-.19q.118 0 .157.167.076.324.056.538-.015.154.153.154.065 0 .157-.023-.359.4-.027.732.082.455-.152.469h-.008q-.233 0-.613-.787-.387-.8-.014-1.104.18-.147.29-.147zm6.401 0q.111 0 .291.146.373.304-.02 1.104-.387.787-.614.787h-.007q-.228-.014-.145-.47.317-.33-.028-.73.089.022.151.022.163 0 .153-.154-.014-.214.062-.538.039-.168.157-.168zm-2.112.288q-.086 0-.164.017-.483.103-.648.449-.152.469-.145 1.041.007.573.317.677.31.103.214.214-.053.06-.128.06-.06 0-.134-.04-.063-.034-.12-.034-.09 0-.163.09-.059.072-.12.072-.06 0-.122-.072-.076-.09-.166-.09-.056 0-.116.034-.072.04-.132.04-.074 0-.13-.06-.104-.11.206-.214t.318-.67q.007-.565-.131-1.048-.138-.346-.6-.449-.074-.016-.157-.016-.441 0-1.162.465l-.027.207q.679-.423 1.179-.423.333 0 .587.188.29 1.076-.041 1.573-.566.138-.387.456.106.187.294.187.13 0 .3-.09.145.179.286.179.142 0 .28-.18.175.09.309.09.192 0 .298-.186.18-.318-.4-.456-.263-.497-.028-1.573.264-.197.606-.197.498 0 1.16.418l-.04-.207q-.649-.452-1.093-.452zm-.731 2.988q.154 0 .388.086-.395.131-.8.131-.362 0-.732-.103.267-.109.436-.109.11 0 .178.046.086.06.17.06.085 0 .168-.06.072-.05.192-.05zm-1.144.224q.393.145.81.145.418 0 .86-.145-.456.304-.883.324l-.049.001q-.4 0-.738-.325zm.47-.4q-.332.069-.746.303.373.456.731.539.149.034.307.034.224 0 .466-.069.414-.117.608-.517-.442-.221-.732-.277l-.317.125-.318-.138zm1.366-3.395q.607.58 1.462 1.104.152.4.07.524-.083.124-.166.732-.428.966-.794 1.587-.365.62-.759.876-.171.111-.357.111-.24 0-.505-.187-.318.218-.555.218-.124 0-.225-.06-.297-.172-.787-.758-.49-.587-.862-1.787-.083-.608-.16-.725-.075-.117.063-.531 1.215-.539 1.463-1.077.515.214 1.027.214.544 0 1.085-.241zm-1.05 5.023q.362.252.645.252.074 0 .142-.017l.276 1.808H28.32l.304-1.808q.069.017.142.017.283 0 .645-.252zm0-6.1q-2.194 0-2.787 1.96.055-.594-.29-.766-.084-.042-.17-.042-.267 0-.555.408-.38.538.587 1.918.176.38.36.38h.006q.186-.007.255-.187.386 1.629 1.546 2.415L27.974 18h2.816l-.331-2.319q.883-.814 1.545-2.415.07.18.256.187h.006q.183 0 .36-.38.965-1.38.579-1.918-.293-.408-.558-.408-.085 0-.167.042-.338.172-.269.766-.607-1.96-2.801-1.96zM44.46.96q3.108 0 6.59 1.501-3.482 1.46-6.59 1.46-3.087 0-6.59-1.46Q41.372.96 44.46.96zm0-.96q-3.838 0-8.822 2.44 4.984 2.42 8.822 2.42 3.838 0 8.822-2.42Q48.318 0 44.46 0zm-.613 10.68V18h1.225v-7.32zm15.407-3.224l.8 1.87q-.4.133-.8.133t-.801-.134l.8-1.869zm0-1.468l-1.752 3.838q.817.367 1.752.367.934 0 1.752-.367l-1.752-3.838zm2.37-1.235q.133 2.753.783 5.206-.8.901-3.153.901-2.353 0-3.154-.9.65-2.454.784-5.207zm-5.741-.734q-.4 0-.4.367t.4.367q.1.084.317.184-.133 2.436-.918 5.473 1.469 1.201 3.972 1.201t3.971-1.201q-.784-3.037-.918-5.473.217-.1.317-.184.4 0 .4-.367t-.4-.367zM68.601.508c.907 0 2.043.466 2.592 1.015.48.48.543 1.118.561 1.71h-6.279c.018-.592.08-1.23.561-1.71.55-.55 1.658-1.015 2.565-1.015zm0-.508c-1.076 0-2.234.497-2.912 1.176-.696.696-.775 1.612-.775 2.297v.268h7.374v-.268c0-.685-.052-1.601-.748-2.297C70.862.497 69.677 0 68.601 0zm-.517 5.43v6.181h1.035V5.43zM56.82 15.663q-.097 0-.19.03-.357.115-.315.347.036.196.32.196.052 0 .112-.006.39-.042.685-.316-.33-.251-.612-.251zm.182-.213q.76 0 2.347.906.796.412 1.746.412.458 0 .952-.096 1.243-.253 2.613-.442.465-.065.901-.065.848 0 1.586.244 1.116.369 1.854.474.738.105 2.34.19-1.033.105-2.024.105-.99 0-2.339-.221-.674-.11-1.299-.11-.624 0-1.198.11-1.149.221-2.613.41-.366.048-.72.048-1.061 0-2.01-.427-.92-.628-1.912-.628-.438 0-.89.123-.4-.021-.358-.443.231-.569.99-.59h.034zm.564-2.15q-.456 0-.85 1.391-.33-1.228-.852-1.228-.078 0-.16.027-.632.4.421 1.539-.843.484-.843 1.222 0 .737 1.244.822.384-.101.75-.101.86 0 1.62.554.652.474 2.065.474.943 0 2.224-.21 1.573-.444 3.058-.444.564 0 1.114.064 1.377.16 2.345.16.44 0 .795-.034 1.791-.042 1.791-.337-.484-.442-1.37-.59-1.875-.02-3.424-.653-.774-.316-1.899-.316t-2.6.316q-.951.24-1.771.24-1.124 0-2.001-.45-.906-.549-1.918-.907.843-.653.79-1.085-.052-.432-.516-.453h-.013z"/></svg>