<svg xmlns="http://www.w3.org/2000/svg" width="91.29" height="18"><path d="M17.788.568q-.111.037-.111.128t.07.146q.027.022.054.022.04 0 .077-.05.063-.081.021-.163-.041-.083-.11-.083zM2.4.47q-.153 0-.296.282.084.183.264.237.028.01.054.01.131 0 .224-.229 0-.255-.194-.292Q2.425.47 2.399.47zM1.395.787q-.042.128.027.238l-.583.073q-.014-.164.556-.31zm.568.436zm.105-.003q.12 0 .195.033.027.012 0 .012-.052 0-.288-.04.05-.005.093-.005zm2.564 1.252q.035 0 .097.068 1.125 1.223 2.792 2.865Q9.19 7.048 9.397 7.724 8.035 7.468 7.07 6.318q-.966-1.15-1.681-2.236-.716-1.086-.799-1.414-.017-.196.042-.196zm.046-.868q.202 0 .384.096 4.321 4.308 4.946 5.604.584 1.405.764 2.154-.076.11-.182.11-.087 0-.193-.074l-.57-1.515q-.43-1.296-2.104-2.875-1.674-1.579-2.424-2.5-.441-.542-.676-.542-.164 0-.227.268-.108.455-.38.455-.115 0-.26-.081.126-.858.542-1.022.198-.078.38-.078zm.357 6.43q.666 1.405.541 2.83-.125 0-.236.236-.045-.403-.277-.403-.051 0-.112.02.292-1.405.084-2.683zM2.557.346q.066 0 .116.013.25.063.292.237.029.122.058.122.013 0 .025-.022.042-.073.056-.164.305.53.041 1.57t.848 1.24q1.028 3.104 2.209 4.72 1.18 1.615.986 3.038-.449-.438-.993-.438-.113 0-.23.019.042-1.296-.472-2.556t-.945-1.889q-.43-.63-1.16-1.497-.73-.867-.722-1.789.007-.921.194-1.286.188-.365.181-.584-.003-.091-.027-.091-.035 0-.112.182-.132.31-.73.328l-.07.001q-.568 0-1.235-.274l.82.073q.404.11.601.11.162 0 .183-.074.049-.164-.076-.192-.125-.027-.257-.027t-.201.055l.026.052-.29-.052Q1.492.787 1.617.623q.028-.055.097-.055-.028.183.049.274.028.034.056.034.046 0 .09-.098.07-.155-.125-.228.511-.204.773-.204zm15.412.04q.375 0 .555.365.056.055.695.2v.056l-.695.073q-.597 0-.75-.12-.153-.118-.146-.273.007-.155.188-.155.18 0 .25.082t.035.173q-.035.092-.132.147h.028q.18 0 .187-.22.007-.237-.299-.273-.389 0-.291.374.092.357.854.357l.076-.001q.431-.037.765-.128L19.26.97q1.236 1.004 1.16 2.29-.077 1.288-.966 2.136-.889.85-1.584 1.871-1.083 1.734-1.167 2.72-.083.986.376.986.458 0 1.118-.721.66-.721 1.34-.74 1.82.055 1.612 2.209-.667-.93-1.5-.93-.417 0-1.14.474-1.097.766-1.667.766l-.472-.091q-.861-.84-.583-2.482.416-1.187 1.125-4.235.486-1.734.965-2.628.48-.895 1.022-.913.291 0 .944.365.027.01.047.01.094 0 .037-.21-.526-.429-1.226-.429-.225 0-.47.045-.208 0-.506-.146-.3-.146-.3-.694.251-.237.543-.237zM4.396 3.05q1.083 1.825 1.986 3.002.903 1.178 1.702 1.588.799.411 1.48.43.083.145 1.653 4.617l-.097.055-3.738-3.14q.028-.273-1.104-1.962-1.132-1.687-1.994-4.46l.112-.128zm3.834 7.867l2.07 1.66q.07.256-.5.348-.127.02-.233.02-.37 0-.49-.248-.152-.32-.389-.831-.236-.511-.458-.95zm7.071-.785q0 .767.167 1.332.43 1.004 1.153 1.023h.038q.711 0 1.699-.657.938-.625 1.365-.625.034 0 .066.004.416.055.903.566.486.51.514.894.05.311-.043.311-.06 0-.18-.128-.399-1.05-1.024-1.05h-.01q-.633.01-1.557.648-.923.639-2.153.639t-1.368-1.04q-.14-1.04.43-1.917zm-10.294 1.06l.208.547q.195-.255.299-.3l.005-.002q.088 0-.304 1.543l-.583.238q-.153-.146.09-.904.243-.757.285-1.122zm14.763 1.14q.461 0 .727.502-.18.384-.847.603-.514 0-1.042-.566.685-.539 1.162-.539zm-1.607.758q.207.265.448.438h-1.883q.692-.095 1.435-.438zm-7.182 1.15Q9.427 17.175 6.5 17.25q-2.913-.076-4.467-3.011zm11.239.018q-1.554 2.935-4.48 3.012-2.913-.077-4.48-3.012zM2.796.008q-.084 0-.179.013-.222 0-1.264.42-.834.255-.903.657l.028.62.417-.2q.68.292 1.139.292.458 0 .347.41-.111.411.028 1.37.139.958 1.097 1.934.959.977 1.188 2.556.23 1.578-.41 3.641l.209-.164q.004-.004.007-.004.046 0-.216.816-.277.867-.757.894-.084.005-.16.005-.348 0-.486-.105-.155-.12-.462-.12l-.045.001q-.34.01-.34.302v.182H1.06Q2.66 17.982 6.507 18q3.849-.018 5.446-4.472l-4.279.037q0-.165-.264-.356-.129-.094-.296-.094-.175 0-.391.103-.13.061-.278.061-.337 0-.771-.317.097-.639.236-1.14.139-.503.528-.594.036-.008.073-.008.362 0 .816.811.264-.675.153-1.825l.139.128q1.042 2.3 1.257 2.701.163.305.634.305.15 0 .331-.031.75-.128.737-.475l.639.42.486-.237-1.07-3.048q.264 0 .487-.292-.264-1.096-.82-2.446-.39-.822-.792-1.278Q8.411 4.603 7.23 3.39T5.493 1.518q-.373-.28-.775-.28-.226 0-.461.088-.653.246-.792 1.214-.042-.037.07-.73.11-.694-.05-1.287-.138-.514-.689-.514zM18.016 0q-.252 0-.478.094-.292.11-.347.42-.111.383.097.757.208.374.653.466-.89 1.058-1.514 3.741-.584 2.556-.973 3.779-1.042 1.113-1.035 2.236.007 1.122.424 1.597.301.343.878.438h-3.434q1.597 4.454 5.446 4.472 3.848-.018 5.445-4.472h-2.674q.153-.11.313-.256.156.245.354.245.083 0 .174-.044.347-.219.139-1.004.194-2.245-.459-2.865-.653-.621-1.473-.621-.75 0-1.625.849-.543.526-.743.526-.124 0-.118-.198.014-.52.611-1.761.403-.876 1.75-2.254 1.348-1.378 1.334-2.775-.014-1.396-.597-2.099-.584-.703-1.292-.794-.111-.2-.292-.328Q18.4.02 18.1.003 18.059 0 18.017 0zm10.078 0v7.9h.66V.675h6.995v6.52l-2.7.015-.016-4.433h-.69V7.9h4.08V0zm4.165 10.218q2.494 0 5.289 1.205-2.795 1.172-5.29 1.172-2.477 0-5.289-1.172 2.812-1.205 5.29-1.205zm0-.77q-3.08 0-7.08 1.959 4 1.941 7.08 1.941t7.08-1.941q-3.984-1.959-7.08-1.959zm.088 6.164c.23 0 .368.039.44.08.208.133.109.45.075.65h-1.03c-.024-.204-.137-.514.076-.65.072-.041.21-.08.44-.08zm-5.72 1.201v.716h-.977v-.716zm5.075 0v.716h-4.84v-.716zm1.177 0v.716h-.942v-.716zm4.725 0v.716h-4.49v-.716zm1.264 0v.716h-1.029v-.716zm-8.588-1.916l-.333.333 1.114 1.112h-5.883V18h14.16v-1.658h-5.704l1.114-1.112-.333-.333-1.03 1.027c-.062-.623-.489-.766-1.038-.783-.586.015-.946.148-1.037.783l-1.03-1.027zM44.231 2.716q-.205.205 0 .38l-.584-.222.584-.158zM47.39 2.7l.569.174-.569.221q.206-.174 0-.395zm-2.763-.016l.474.348-.506.095q.19-.174.032-.443zm2.369-.015q-.158.284.031.458l-.505-.095.474-.363zm.066-.13q-.165 0-.264.05-.34.174-.466.506.284.157.635.157.566 0 1.308-.41-.808-.303-1.213-.303zm-2.494.002q-.408 0-1.236.317.74.404 1.305.404.363 0 .653-.167-.126-.332-.466-.505-.095-.05-.256-.05zm-2.52-.754q-.092 0-.208.108-.324.3.529 1.721l.158-.11-.253-.616.016-.506-.205-.031q.063.079.07.347.009.269.277.758l-.047.048q-.11-.206-.348-.735-.237-.529-.087-.734.058-.078.116-.078.095 0 .192.204l.048-.031q-.091-.345-.257-.345zm7.524 0q-.17 0-.27.345l.047.031q.097-.204.195-.204.06 0 .12.078.158.205-.079.734-.236.53-.363.735l-.047-.048q.268-.49.276-.758.008-.268.071-.347l-.19.031.017.506-.253.616.142.11q.868-1.421.545-1.721-.116-.108-.211-.108zm-7.423-.218q.136 0 .18.192.087.37.064.616-.018.176.175.176.074 0 .18-.026-.41.458-.032.837.095.52-.173.536h-.01q-.266 0-.701-.9-.442-.916-.016-1.263.206-.168.333-.168zm7.325 0q.126 0 .332.168.427.347-.023 1.263-.443.9-.702.9h-.009q-.26-.015-.166-.536.364-.38-.031-.837.101.026.173.026.186 0 .174-.176-.016-.245.071-.616.045-.192.18-.192zm-2.418.33q-.098 0-.187.02-.552.118-.742.513-.174.537-.166 1.192.008.655.364.774.355.118.244.245-.06.07-.146.07-.069 0-.154-.047-.072-.039-.137-.039-.104 0-.186.102-.068.083-.137.083t-.14-.083q-.088-.102-.19-.102-.064 0-.134.04-.08.045-.15.045-.084 0-.15-.07-.118-.126.237-.244.356-.119.363-.766.008-.647-.15-1.2-.157-.395-.686-.513-.084-.02-.179-.02-.505 0-1.33.533l-.031.237q.777-.484 1.35-.484.38 0 .671.215.332 1.232-.047 1.8-.648.158-.442.522.12.214.335.214.15 0 .344-.104.165.205.327.205t.32-.205q.201.104.354.104.22 0 .34-.214.206-.364-.457-.522-.3-.568-.032-1.8.302-.225.693-.225.57 0 1.329.478l-.048-.237q-.741-.516-1.25-.516zm-.836 3.42q.177 0 .444.097-.451.15-.916.15-.413 0-.837-.118.306-.124.499-.124.126 0 .204.053.099.067.195.067.097 0 .192-.067.082-.059.219-.059zm-1.309.255q.45.166.928.166.478 0 .983-.166-.521.348-1.01.371l-.056.002q-.457 0-.845-.373zm.537-.458q-.379.08-.853.348.427.52.837.616.17.039.35.039.257 0 .535-.079.473-.134.694-.592-.505-.253-.837-.316l-.363.142-.363-.158zm1.563-3.884q.695.663 1.674 1.263.174.458.08.6-.096.142-.19.837-.49 1.105-.908 1.816-.419.71-.869 1.003-.196.127-.408.127-.276 0-.579-.214-.363.249-.634.249-.142 0-.258-.068-.34-.197-.9-.868t-.987-2.045q-.095-.695-.182-.83-.086-.133.072-.607 1.39-.616 1.673-1.232.59.245 1.176.245.622 0 1.24-.276zm-1.2 5.748q.414.288.737.288.085 0 .163-.02l.316 2.069h-2.463l.347-2.069q.079.02.163.02.324 0 .737-.288zm0-6.98q-2.51 0-3.19 2.242.064-.679-.331-.876-.096-.048-.194-.048-.306 0-.635.466-.434.616.671 2.195.202.435.411.435h.007q.214-.008.293-.214.442 1.864 1.768 2.764l-.442 2.653h3.221l-.379-2.653q1.011-.932 1.769-2.764.079.206.292.214h.008q.209 0 .41-.435 1.106-1.579.664-2.195-.335-.466-.638-.466-.097 0-.191.048-.387.197-.308.876Q48.32 0 45.81 0zm-.554 11.416V18h1.102v-6.584zM54.12 0l-1.842 2.177h.898l.943-1.125.953 1.125.925-1.125.952 1.125.944-1.125.952 1.125.944-1.125.952 1.125.925-1.125.953 1.125.952-1.125.925 1.125.953-1.125.943 1.125h.898L65.449 0l-.953 1.052L63.571 0l-.952 1.052L61.666 0l-.925 1.052L59.789 0l-.944 1.052L57.893 0l-.944 1.052L55.997 0l-.925 1.052L54.119 0zm-.2 3.824c-.492 0-1.815 1.878-1.616 2.223.068.118.326.165.714.165 1.471 0 4.81-.67 6.763-.67 5.712 0 5.961 1.977 5.961 3.94 0 1.142-.44 1.988-.44 3.179 0 1.727 1.688 5.309 1.956 5.309s-1.093-3.551-1.093-5.18c0-1.61.597-2.865.597-4.419 0-1.114-.514-1.617-.818-2.425.472-.034 1.268.032 1.268-.11 0-.144-1.401-.438-2.15-.57-1.744-.306-3.222-.588-4.96-.588-1.847 0-5.96.478-5.96.478.03-.456.04-1.332-.221-1.332zm.973 9.152c.643 0 1.448.33 1.837.72.341.341.386.793.398 1.213h-4.452c.012-.42.057-.872.398-1.213.39-.39 1.175-.72 1.819-.72zm0-.36c-.763 0-1.584.353-2.065.834-.494.493-.55 1.143-.55 1.63v.189h5.23v-.19c0-.486-.038-1.136-.531-1.63-.481-.48-1.321-.833-2.084-.833z"/><path d="M61.521 15.054l.568 1.325q-.284.095-.568.095t-.568-.095l.568-1.325zm0-1.042l-1.242 2.722q.58.26 1.242.26.663 0 1.242-.26l-1.242-2.722zm1.68-.875q.095 1.952.556 3.692-.568.639-2.236.639-1.668 0-2.236-.64.461-1.739.556-3.691zm-4.07-.52q-.284 0-.284.26t.284.26q.07.059.225.13-.095 1.728-.651 3.881Q59.746 18 61.52 18t2.816-.852q-.556-2.153-.65-3.881.153-.071.224-.13.284 0 .284-.26t-.284-.26zM71.646 0L69.29 2.357v.707L72.177.177 72.354 0zm3 0L69.29 5.357v.707L75.177.177 75.354 0zm3 0L69.29 8.357v.707L78.177.177 78.354 0zm3 0L69.29 11.357v.707L81.177.177 81.354 0zm3 0L69.29 14.357v.707L84.177.177 84.354 0zm3 0L69.29 17.357V18h.064L87.177.177 87.354 0zm3 0L71.823 17.823l-.177.177h.708L90.177.177 90.354 0zm1.644 1.357L74.823 17.823l-.177.177h.708L91.29 2.064v-.707zm0 3L77.823 17.823l-.177.177h.708L91.29 5.064v-.707zm0 3L80.823 17.823l-.177.177h.708l9.936-9.936v-.707zm0 3l-7.467 7.466-.177.177h.708l6.936-6.936v-.707zm0 3l-4.467 4.466-.177.177h.708l3.936-3.936v-.707zm0 3l-1.467 1.466-.177.177h.708l.936-.936v-.707z"/></svg>