<svg xmlns="http://www.w3.org/2000/svg" width="52.518" height="18"><path d="M11.116 8.203c-.51.04-.793.296-.847.767.067.51.35.78.847.806.498-.026.76-.295.787-.806-.04-.47-.303-.726-.787-.767zm.06-1.694c.364 0 .7.068 1.01.202a2.659 2.659 0 0 1 1.371 1.361c.134.303.201.622.201.958 0 .35-.067.676-.202.978a2.567 2.567 0 0 1-2.38 1.523c-.362 0-.702-.064-1.018-.192a2.426 2.426 0 0 1-.816-.534 2.621 2.621 0 0 1-.545-.797 2.38 2.38 0 0 1-.202-.978c0-.336.068-.655.202-.958.134-.302.316-.571.545-.806.228-.236.5-.42.816-.555a2.574 2.574 0 0 1 1.019-.202zm-.04-.685c-.443 0-.86.084-1.25.252-.39.168-.726.396-1.008.685a3.36 3.36 0 0 0-.676 1.009 3.053 3.053 0 0 0-.252 1.24c0 .444.084.857.252 1.24.168.384.393.716.676.999a3.2 3.2 0 0 0 2.258.927c.444 0 .857-.084 1.24-.252a3.36 3.36 0 0 0 1.009-.675c.289-.283.518-.615.686-.999.168-.383.252-.796.252-1.24 0-.444-.084-.857-.252-1.24a3.268 3.268 0 0 0-1.694-1.694 3.053 3.053 0 0 0-1.24-.252zm7.165-3.229q-.082.871-.082 1.953 0 1.08.105 2.184-.24-.127-.75-.127-.519 0-.752.127.113-1.103.105-2.184-.007-1.082-.082-1.953zm-.728 4.475q.51.008 1.036.27l-.135.248q-.106-.018-.199-.018-.32 0-.477.221-.09-.398-.225-.488-.135.09-.233.488-.157-.221-.477-.221-.092 0-.198.018l-.136-.247q.541-.263 1.044-.27zm0 .721q.113.09.075.263-.037.173-.075.33-.045-.157-.082-.33-.038-.173.082-.263zm.684.001q.042 0 .09.007-.511 1.216-.774 1.216-.255 0-.788-1.216.048-.007.091-.007.274 0 .352.247.097.278.202.45.113.18.143.18.038 0 .135-.18.105-.172.195-.45.085-.247.354-.247zM16.402 2.25q.36 2.553-.008 4.603-.668.315-.555.533.082.164.189.164.039 0 .081-.022.653.736 1.074 1.735.165 1.644-.045 5.684 0 .803.42.803h.023q.42 0 .42-.803-.203-4.04-.045-5.684.413-.999 1.066-1.735.043.022.082.022.106 0 .189-.164.112-.218-.549-.533-.375-2.05 0-4.603zm7.478.325c1.185 0 2.192.886 2.548 1.763l-1.08.159c-.272-.537-.817-.838-1.54-.838h-.018c-.698.004-1.246.36-1.44.838l-1.065-.242c.461-.985 1.527-1.674 2.581-1.68h.014zm-.02 1.952c.437 0 .658.274.658.799 0 .475-.221.985-.657 1.55-.436-.565-.658-1.075-.658-1.55 0-.525.222-.799.658-.799zm0 3.71c.36.527.476 1.398 0 2.277-.308-.683-.41-1.522 0-2.277zm0-5.987c-.663 0-1.27.2-1.83.587-.56.386-.974 1.003-1.221 1.855l1.432.094c-.03.158-.047.332-.047.54 0 .644.357 1.37 1.08 2.183-.287.555-.504 1.04-.493 1.69-.024.983.236 1.31.563 2.231l-1.901 4.32h.986l1.432-3.569 1.408 3.569h1.01l-1.902-4.32c.327-.921.551-1.222.54-2.23.011-.651-.196-1.136-.493-1.69.733-.813 1.104-1.54 1.104-2.184 0-.208-.031-.382-.07-.54l1.431-.094c-.247-.852-.632-1.469-1.197-1.855-.565-.386-1.177-.587-1.831-.587zm12.436.69l.1.001h.05q1.868 0 3.562 1.606l-1.048.847q-.981-.936-2.564-.936-1.584 0-2.565.936l-1.048-.847q1.672-1.607 3.513-1.607zm.1 2.164q1.761.023 2.898 1.851h-5.82q.892-1.828 2.922-1.85zm0-2.854q-2.765.111-4.66 2.274l1.582 1.338q-.669.892-.825 1.673h7.783q-.156-.78-.825-1.65l1.471-1.338Q39.161 2.36 36.396 2.25zm7.02 9.128q.331 0 .331.347v2.668h-1.01l.331-2.81q.016-.205.348-.205zm.015-.426q-.805 0-.852.457-.331 2.984-.71 3l-7.324.268-.757-.032q-.853-.9-1.516-.9l-.489-.031q-1.342.252-1.61.252-.19 0-.19.253 0 .347.537.347.922-.147 1.414-.147.09 0 .165.005.268 0 .442.221-.308.381-1.378.381l-.17-.002q-1.215-.032-2.146-.316-.458 0-.458.537.048.49 3.426.505l1.499-.158 8.555-.047 2.399.031v-3.85q-.016-.774-.837-.774z"/><path d="M7.95.375c-9.625 0-9.625 17.25 0 17.25m0-17.25h36.318M7.95 17.625h36.318M51.955.375v17.25M44.268.375c9.625 0 9.625 17.25 0 17.25" fill="none" stroke="#000"/></svg>