<svg xmlns="http://www.w3.org/2000/svg" width="60.825" height="18"><path d="M14.23 2.7c.805 0 1.813.415 2.3.903.428.426.483.992.5 1.518h-5.577c.016-.526.071-1.092.498-1.518.488-.488 1.473-.902 2.278-.902zm0-.45c-.956 0-1.985.441-2.587 1.044-.618.618-.688 1.432-.688 2.04v.238h6.549v-.237c0-.61-.047-1.423-.665-2.04-.602-.604-1.654-1.045-2.61-1.045zm-2.296 10.058l1.227 2.677h.622l-1.195-2.677zm2.725 0l1.212 2.677h.637l-1.227-2.677zm3.762-.271q1.545 0 1.545 1.593 0 1.61-1.545 1.642h-8.383q-1.546 0-1.546-1.594 0-1.61 1.546-1.641zm-8.383-.478q-2.088 0-2.088 2.12 0 2.071 2.104 2.071h8.367q2.087-.016 2.087-2.136 0-2.055-2.103-2.055zm27.958-8.021zm-.003.18zM23.992 3.03v1.063c-.158-.073-.313-.14-.46-.213a1.477 1.477 0 0 0-.422-.118c-.12-.019-.246-.03-.359-.054a.417.417 0 0 1-.178-.065c-.014-.011-.025-.026-.025-.081 0-.056.01-.071.025-.082a.417.417 0 0 1 .178-.065c.113-.023.238-.035.359-.054a1.48 1.48 0 0 0 .422-.118c.147-.072.302-.14.46-.213zm0 1.063zm.54.076zm9.79-1.218c.105 0 .21.002.314.004.587.014 1.467.155 2.194.336.36.09.682.19.91.288.036.015.069.03.098.044a2.1 2.1 0 0 1-.086.034 6.34 6.34 0 0 1-.91.242 14.18 14.18 0 0 1-2.206.269c-.104.002-.21.004-.314.004-1.062 0-2.12-.121-3.18-.245-1.13-.131-2.26-.265-3.395-.265l-.173.001c-.993.012-2.133.123-3.042.506V2.954c.909.383 2.05.494 3.042.506h.172c1.136 0 2.266-.133 3.396-.264 1.06-.124 2.118-.245 3.18-.245zm-9.998-.701l-.13.075c-.302.173-.618.295-.9.433a.949.949 0 0 1-.267.07c-.13.02-.263.033-.384.058a.936.936 0 0 0-.416.179.62.62 0 0 0-.219.497.62.62 0 0 0 .219.496c.11.092.255.146.416.179.121.025.255.039.384.059a.949.949 0 0 1 .267.069c.282.138.598.26.9.433l.13.075.132-.071c.875-.47 2.094-.586 3.125-.599h.167c1.114 0 2.223.132 3.332.26 1.08.126 2.16.249 3.245.249.108 0 .216-.002.324-.004a14.633 14.633 0 0 0 2.3-.28c.388-.079.738-.17.993-.265.142-.053.26-.11.345-.17a.604.604 0 0 0 .14-.129.385.385 0 0 0 .081-.233c0-.08-.027-.16-.078-.23a.634.634 0 0 0-.135-.132 1.7 1.7 0 0 0-.341-.186 6.888 6.888 0 0 0-.993-.315c-.767-.192-1.685-.338-2.312-.353a13.778 13.778 0 0 0-.324-.004c-1.084 0-2.164.123-3.245.248-1.109.13-2.218.262-3.332.262l-.167-.001c-1.031-.013-2.25-.13-3.125-.599l-.132-.071zm13.021 9.128q.332 0 .332.347v2.668h-1.01l.331-2.81q.016-.205.347-.205zm.016-.426q-.805 0-.852.457-.332 2.984-.71 3l-7.324.268-.758-.032q-.852-.9-1.515-.9l-.49-.031q-1.341.252-1.61.252-.189 0-.189.253 0 .347.537.347.921-.147 1.413-.147.09 0 .165.005.269 0 .442.221-.308.381-1.378.381l-.169-.002q-1.215-.032-2.146-.316-.458 0-.458.537.047.49 3.425.505l1.5-.158 8.554-.047 2.4.031v-3.85q-.016-.774-.837-.774zm10.793-8.174q.171 0 .354.077.41.174.41 2.759v2.473h-4.641q1.792-2.46 2.46-3.717.666-1.258 1.014-1.473.192-.12.403-.12zm-.197-.528h-.074q-.66.015-1.487 1.613-.827 1.598-3.273 4.766h6.337l-.014-3.557q-.07-2.377-.486-2.606-.393-.216-1.003-.216zM41.55 13.928l-1.542 1.822h.752l.79-.942.797.942.774-.942.798.942.79-.942.797.942.79-.942.797.942.774-.942.797.942.798-.942.774.942.798-.942.79.942h.75l-1.54-1.822-.798.88-.774-.88-.798.88-.797-.88-.774.88-.798-.88-.79.88-.797-.88-.79.88-.797-.88-.774.88-.797-.88z"/><path d="M7.95.375c-9.625 0-9.625 17.25 0 17.25m0-17.25h44.625M7.95 17.625h44.625M60.262.375v17.25M52.575.375c9.625 0 9.625 17.25 0 17.25" fill="none" stroke="#000"/></svg>