<svg xmlns="http://www.w3.org/2000/svg" width="76.664" height="18"><path d="M3.46.474c.693 0 1.247.2 1.634.479.006.053.02.107.009.16-.05.248-.195.477-.396.63-.316.207-.697.267-1.057.356-.09.01-.019.031.031.04.23.04.707.099.971.099l.052-.001c.278-.032.54-.148.766-.311.079-.067.147-.15.205-.236.147.346.227.713.26.917.018.11.096.2.202.233 1.139.349 2.038 1.91 2.88 2.949 1.729 2.137 3.199 4.526 4.892 6.76-.937-.456-1.87-.916-2.81-1.374-1.92-1.01-3.92-1.816-5.604-3.09l-.008-.008c-.97-.808-1.963-1.66-2.339-2.793C3 4.364 4.905 2.707 4.69 2.638a.207.207 0 0 0-.064-.01c-.458 0-1.753 1.128-2.019 2.202-.003-.014-.01-.03-.014-.045-.073-.356-.154-1.256.068-1.98a.29.29 0 0 0 .01-.103 1.968 1.968 0 0 0-.123-.634c-.063-.17-.139-.344-.26-.765-.031-.108-.142-.328-.208-.345.186-.138.375-.28.645-.375a.434.434 0 0 0-.132.314c0 .23.164.415.365.415.2 0 .364-.186.364-.415V.894a.411.411 0 0 0-.255-.39c.053-.007.096-.019.154-.022.081-.006.16-.008.238-.008zm.67 7.763c.065.065.135.124.202.187.214.78.412 1.64.692 2.305.483 1.145 1.216 2.141 1.84 3.154a1.814 1.814 0 0 0-.385.27 6.831 6.831 0 0 0-.199.193 2.61 2.61 0 0 0-1.186-.897c.045-.723-.108-1.712-.34-2.787a34.903 34.903 0 0 0-.624-2.425zm1.006.908c1.149.945 2.428 1.738 3.676 2.54-.018.91-.018 1.778.084 2.675a3.411 3.411 0 0 0-1.437-.736c-.02 0-.037.012-.057.012-.649-1.063-1.383-2.06-1.837-3.134-.156-.37-.293-.85-.429-1.357zm.407 5.254a2.5 2.5 0 0 1 .44.541.3.3 0 0 0 .257.14.29.29 0 0 0 .17-.053c.215-.156.347-.324.476-.446.047-.045.097-.08.148-.117l.149 2.722c-.213-.014-.435-.035-.637-.035-.264 0-.495.036-.633.172-.169-.134-.497-.164-.89-.164-.102 0-.207.002-.316.004l.836-2.764zM6.7 9.574c1.354.787 2.784 1.414 4.135 2.125a.244.244 0 0 0 .006.003c1.295.631 2.586 1.28 3.894 1.904.984 1.189 2.052 2.295 3.078 3.42l-2.15.362-4.267-4.635a.288.288 0 0 0-.037-.036C9.861 11.58 8.208 10.635 6.7 9.574zM3.526 0c-.135 0-.273.005-.411.013C2.03.083 1.242.54.973 1.157c-.04.093-.146.314-.007.314a2.35 2.35 0 0 1 .341-.028c.418 0 .38.172.47.194.09.282.29.846.303 1.068-.244.86-.153 1.763-.064 2.198.15.732.63 1.584 1.261 2.38a.285.285 0 0 0 0 .166 35.3 35.3 0 0 1 .903 3.336c.251 1.168.393 2.277.317 2.823a.294.294 0 0 0 .221.328c.045.011.084.031.127.045l-.928 3.079a2.847 2.847 0 0 0-.593-.055c-.381 0-.756.05-1.064.05-.125 0-.24-.008-.34-.032a.546.546 0 0 0-.125-.012c-.436 0-1.428.306-1.34.879.15-.128.257-.159.375-.159.11 0 .23.027.405.027h.027c.254-.004.697-.083 1.053-.083.18 0 .338.02.438.08.236-.01.45-.013.649-.013.85 0 1.447.07 2.5.075a89.565 89.565 0 0 0 2.974-.079c.45.003.697.054.922.054h.04c.134-.004.265-.057.48-.057.123 0 .273.017.468.07-.25-.341-.877-.685-1.33-.685a.591.591 0 0 0-.302.071 5.081 5.081 0 0 0-.508-.022c-.22 0-.448.01-.678.02l-.157-2.83c.487.203.857.517 1.281 1.021a.295.295 0 0 0 .513-.246c-.192-1.039-.213-2.019-.202-3.06.54.354 1.072.713 1.576 1.094l4.36 4.738a.29.29 0 0 0 .263.09c.95-.159 1.9-.315 2.849-.474a.294.294 0 0 0 .23-.193.298.298 0 0 0-.06-.297c-.741-.83-1.508-1.631-2.25-2.445 1.269.78 2.875 1.755 3.08 1.755.022 0 .027-.013.012-.04-.094-.163-.9-.755-1.775-1.373.14.058.276.12.415.177l.017.01c.103.035.16.059.27.062a.286.286 0 0 0 .108-.016.317.317 0 0 0 .188-.152.32.32 0 0 0 .023-.238c-.017-.05-.038-.077-.054-.098-.061-.085-.103-.109-.162-.154a4.553 4.553 0 0 0-.205-.149c-.153-.105-.336-.223-.493-.328a4.992 4.992 0 0 1-.328-.233.307.307 0 0 0-.028-.025l-3.892-2.736c-.008-.006-.02-.001-.028-.006-1.333-1.869-2.588-3.825-4.046-5.627-.744-.92-1.598-2.528-2.985-3.064-.067-.396-.218-1.127-.755-1.649C5.277.26 4.618.056 3.877.011A5.728 5.728 0 0 0 3.526 0zm25.506 7.048h.15q1.868 0 3.562 1.606l-1.048.848q-.981-.937-2.565-.937-1.583 0-2.564.937l-1.048-.848q1.672-1.606 3.513-1.606zm.1 2.164q1.761.022 2.898 1.85h-5.82q.892-1.828 2.921-1.85zm0-2.854q-2.766.111-4.661 2.274l1.583 1.338q-.669.892-.825 1.672h7.782q-.156-.78-.825-1.65l1.472-1.338q-1.761-2.185-4.527-2.296zm21.363-3.682q.331 0 .331.347v2.668h-1.01l.332-2.81q.016-.205.347-.205zm.016-.426q-.805 0-.853.458-.331 2.983-.71 2.999l-7.323.268-.758-.032q-.852-.9-1.515-.9l-.49-.03q-1.341.252-1.61.252-.189 0-.189.252 0 .347.537.347.921-.146 1.413-.146.09 0 .165.004.268 0 .442.221-.308.381-1.378.381l-.169-.002q-1.215-.031-2.146-.315-.458 0-.458.536.047.49 3.425.505l1.5-.158 8.554-.047 2.4.032V3.023q-.016-.773-.837-.773zm-11.322 9.394q-1.647.038-2.725 1.192-1.192 1.306-1.306 2.611 0 .303.34.303h15.82q.34 0 .34-.36 0-.359-.34-.359H36.01q.946-2.422 2.838-2.687h12.47q.34 0 .34-.36 0-.34-.34-.34zM58.156 2.48q.068 0 .128.03.102.052.146.177t0 .198q-.102.117-.205.125h-.03q-.092 0-.205-.037-.088.088-.206.22-.147.191-.396.602-.28.456-.411.647-.309-.177-.515-.177.926-1.145 1.197-1.439.272-.294.397-.33.052-.016.1-.016zM56.17 4.72q.411.206.5.368.087.161.014.161-.074 0-.176.089-.074-.265-.338-.617zm-.103.427l.646 2.423q-.308 0-.646.235V5.147zM58.13 2.25q-.198 0-.418.194l-1.733 2.071q-.558-.088-.867-.617.206-.25.698-.705.492-.455.404-.602-.042-.088-.144-.088-.252 0-.87.544-.66.47-1.057.763-.206.191-.338.668-.132.478-.396 1-.265.52-.25.814.037.184.121.184.085 0 .217-.184.19-.323.455-.734t.661-.764q.28-.19.529-.235.279.103.426.397v8.106q-.867.235-.896 1.131-.044.338.205 1.043.177.514.661.514-.323-1.219-.323-1.557.03-.675.588-.675.602 0 .631.675 0 .338-.308 1.557.484 0 .646-.514.25-.705.19-1.043.016-.896-.895-1.13V8.421q.455-.323 1.19-.426-.294-1.498-.58-2.056-.254-.494.233-.494.064 0 .14.009-.175-.69-.704-.881V4.5q.032-.003.065-.003.296 0 .64.238.22-.293.5-.778.293-.5.396-.631.103-.133.147-.147.084.03.158.03.188 0 .319-.185.184-.257.007-.499-.176-.242-.396-.272-.026-.003-.052-.003z"/><path d="M21.846.375v17.25m0-17.25h2.625m-2.625 17.25h2.625m0-17.25h34.193m-34.193 17.25h34.193m0-17.25h17.625m-17.625 17.25h17.625M60.426.375v17.25M63.951.375v17.25M65.714.375v17.25M67.476 2.1h8.813m-8.813 3.45h8.813M67.476 2.1v3.45m1.763-1.725h7.05m-8.813 3.45h8.813m-8.813 3.45h8.813m-8.813-3.45v3.45M69.239 9h7.05m-8.813 3.45h8.813m-8.813 3.45h8.813m-8.813-3.45v3.45m1.763-1.725h7.05" fill="none" stroke="#000"/></svg>