<svg xmlns="http://www.w3.org/2000/svg" width="72.077" height="18"><path d="M10.545 7.982a2.816 2.816 0 0 1-.652 1.52 1.022 1.022 0 0 1-.217.028c-.21 0-.386-.065-.679-.217-.392-.204-.577-.473-.516-.761.062-.288.24-.435.516-.489.126-.024.612-.027.893-.027h.194c.156 0 .298-.022.461-.054zm5.65 1.82c.593 0 1.163.042 1.738.08a53.355 53.355 0 0 0-.081 2.663c-.85.137-1.888.234-3.124.271a24.189 24.189 0 0 1-3.096-.271 53.5 53.5 0 0 0-.082-2.716l.184-.003c.123 0 .24.003.402.003h.093c1.28-.008 2.593-.028 3.966-.028zm4.264.543c.192 0 .22.097.163.516-.058.419-.038.945.054 1.602.08.572-.307.761-.376.761h-.004c-.496-.08-.759-.3-.597-.897.161-.595.48-1.12.76-1.982zm-9.37-2.119c.815.17 1.588.342 2.526.38.852.035 4.195.05 4.807.055.919.007 1.678.075 2.254.217.577.142.998.374 1.413.95.415.577.648 1.32.706 2.228.056.876-.111 1.1-.625 1.25-.036 0-.743-.183-.842-.68-.1-.503-.252-1.1-.217-1.71.035-.612-.22-1.084-.598-1.169a13.12 13.12 0 0 0-1.44-.244c-.583-.066-1.896-.094-3.937-.109a80.43 80.43 0 0 0-.608-.002l-1.076.002c-1.098 0-2.421.027-2.5.027h-.033c-.262 0-.3-.004-.184-.19.154-.246.269-.536.354-1.005zm-.387-4.237c-.023 0-.047.015-.075.027-.042.017-.086.065-.136.109-.325.437-.518 1.062-.543 1.874.065.419.206.984.38 1.63a2.913 2.913 0 0 1-.097.001l-.202-.001c-.027 0-.416-.01-.76-.01-.173 0-.335.003-.435.01-.45.03-.727.317-.842.706-.115.388.007.732.353 1.032a2.5 2.5 0 0 0 1.141.57c.217.046.367.082.489.082.11 0 .186-.043.217-.082.023-.028.155-.035.326-.054-.065.76-.123 1.616-.163 2.662-.05.55.085.897.435 1.059 1.036.275 2.352.407 3.938.407 1.598 0 2.915-.132 3.939-.407.362-.162.511-.51.461-1.06a59.247 59.247 0 0 0-.136-2.552c.39.043.788.073 1.168.135-.438.8-.746 1.476-.923 2.065-.177.588-.055 1.027.326 1.303.183.133.397.19.652.19.275 0 .59-.06.95-.217.303.214.605.326.897.326.138 0 .27-.033.407-.081.423-.15.672-.534.733-1.168a4.684 4.684 0 0 0-.353-2.282c-.357-.842-.94-1.403-1.575-1.684-.559-.247-1.337-.34-2.282-.353.266-.92.459-1.686.544-2.227-.025-.812-.219-1.437-.544-1.874-.083-.073-.152-.113-.211-.113a.12.12 0 0 0-.033.004c-.066.019-.105.093-.136.217.088.25.17.497.245.734.1.3.133.58.108.842-.025.424-.052.763-.108 1.032-.057.268-.179.407-.353.407a.333.333 0 0 1-.027.001c-.294 0-.435-.408-.435-1.196 0-.287.034-.62.108-1.032-.065-.111-.137-.168-.214-.168-.07 0-.143.046-.22.14-.038.3-.07.644-.082 1.006-.048.533.088 1.27.38 2.227-.688-.003-2.216-.031-3.123-.054-1.35-.035-2.287-.063-2.852-.136-.205-.027-.367-.09-.489-.136.224-.801.342-1.43.299-1.901a11.302 11.302 0 0 0-.081-1.005c-.077-.095-.151-.141-.22-.141-.078 0-.15.057-.215.168a5.8 5.8 0 0 1 .109 1.032c0 .788-.141 1.196-.436 1.196h-.026c-.175 0-.297-.14-.353-.408-.056-.269-.084-.608-.109-1.032a2.036 2.036 0 0 1 .109-.842c.075-.237.157-.484.244-.734-.035-.14-.088-.234-.163-.244h-.006zm16.67 2.581q-.588 0-.682.455v.027q.067.12.28.12.616-.267.616-.495v-.026q0-.054-.214-.08zm2.14-.829q-.093.522-.923 1.124l.295.12.401-.147.2.134q1.539.736 4.08.776l3.987.04.054-.002q.68 0 .662.998-.02 1.037-.703 2.08-.428 0-.87-.327-.44-.328-.722-.77-.28-.44-.722-1.15.134 1.405.803 2.207-.816 0-1.452.154-.317.077-.53.077-.212 0-.32-.077-.132-.095-.66-.095-.322 0-.79.035-.361.027-.66.027-.726 0-1.086-.16-.335-.282-.422-.984-.086-.702.395-1.946-.99.709-.99 2.153v.482q-.495-.508-.776-1.124-.548-1.364-1.498-1.364-.361 0-1.391.455-.348-.148-.281-.469l.669-.896q.481-.816.695-.91.107-.2 1.044-.2.401.107.401.294 0 .254-.267.509.508-.108.735-.602 0-.12.642-.442zm.577-2.846q-.065 0-.148.104-1.017 1.618-1.847 2.247-.32.281-.869.294-.268 0-.816-.4-.816-.79-1.137-1.339-.361-.642-.468-.709-.054 0-.08.134 0 .763 1.551 2.823-.294.428-.548.976-.254.549-.602.836-.348.288.067.569 0 .348.575.562.468-.134 1.431-.415.575 0 .79.482.708 1.07.708 2.234.08 1.551-1.07 2.97-.36.24-.36.668 0 .174.44.174.723 0 .723-.174l-.054-.361q0-.187.281-.281v-.027q0-.254.91-2.555.415 0 .655.402.308 1.016.308 1.685 0 .147-.187.629-.228.174-.281.628h1.07l-.08-.334q-.054-.2.147-.348l-.094-.495q-.174-1.886-.174-2.22v-.027q1.057-.254 1.626-.254.568 0 .876.207.122.083.343.083.334 0 .894-.19.607-.205.932-.205.173 0 .265.058.268.167.268.568 0 1.472-.75 2.502-.24.24-.36.669h.923q.24-.08.107-.402.026-.347.32-.44 0-1.218 1.07-2.409.75.415.763 1.284 0 .335-.133.91l-.16.441q-.148.174-.268.656h.882q.161-.067.201-.147l-.134-.428q-.067-.188.188-.335-.134-.709.174-1.07-.63-1.471-.63-2.314.335-1.378.429-2.582.16.843.04 2.02t.401 2.435q.102.212.186.212.059 0 .109-.105.133-.763.053-4.214-.107-.428-.227-.655-.428-.656-.736-.683h-4.32q-3.198 0-4.736-.91.254-.454.28-.621.027-.168 0-.408-.641.187-.962.495l-.268-.201q.281-.174.896-1.124.616-.95.723-1.485-.046-.09-.106-.09zm15.668-.645l-.014.001a15.506 15.506 0 0 1-1.122.037c-.08.005-.087.107-.06.165.168.474.313.956.45 1.44h-.02c-.134.003-.271 0-.404.013l-.007.01c-.008-.03-.029-.058-.06-.065a28.706 28.706 0 0 1-1.275-.923c-.01-.002-.02-.005-.032-.005h-.007c-.041.026-.057.084-.08.127-.073.197-.134.399-.216.593-.058.148-.123.294-.167.446.02.042.057.055.097.055.039 0 .08-.012.113-.022.515-.11 1.046-.1 1.57-.107-.052.115-.074.243-.122.36-.021.066-.046.134-.06.202a.092.092 0 0 0-.014 0l-.016.001c-.64.248-1.265.552-1.81.97a6.77 6.77 0 0 0-.75.652c-.005.096.104.127.176.154l.442.182c-.075.103-.094.236-.142.353-.248.726-.596 1.413-.887 2.122 0 .058.055.087.108.087.02 0 .039-.004.055-.012.103-.019.206-.028.309-.03-.022.08-.03.165-.066.24-.174.555-.459 1.065-.674 1.604-.01.058.044.095.097.095a.1.1 0 0 0 .045-.01 6.45 6.45 0 0 1 .796-.092c-.03.074-.036.157-.06.234-.129.545-.317 1.082-.34 1.646-.004.367.04.733.098 1.095.1.595.28 1.174.512 1.73.003.051.05.083.095.083a.081.081 0 0 0 .072-.04c.034-.075.045-.16.07-.238.134-.481.23-.974.272-1.472.042-.43.058-.863.055-1.295-.018-.505-.138-.999-.216-1.497-.013-.075-.023-.152-.042-.226a7.034 7.034 0 0 1 .764.127c.08 0 .098-.107.062-.164-.216-.567-.438-1.134-.62-1.714l.027.005c.22.04.44.091.663.104.07-.058.02-.152-.014-.216-.269-.582-.489-1.193-.576-1.83-.028-.173-.028-.35-.058-.523.19.077.38.154.57.228.082-.02.086-.121.07-.19a2.105 2.105 0 0 1 .266-1.198c.178-.318.436-.58.699-.828.104.09.225.156.342.227l-.059.015c-.216.418-.398.852-.591 1.28-.025.06-.054.12-.063.184.032.052.086.063.143.063.035 0 .071-.004.104-.004h.005l.241-.006c-.027.083-.035.176-.062.259-.154.639-.308 1.279-.46 1.919.018.068.086.082.15.082a.648.648 0 0 0 .055-.003l.397-.014c-.037.105-.053.218-.089.323-.171.628-.346 1.257-.514 1.886.019.07.088.085.154.085a677.2 677.2 0 0 1 .691-.021.867.867 0 0 0-.024.103c-.132.577-.335 1.144-.366 1.74-.002.54.078 1.077.201 1.602.102.423.246.836.41 1.239.007.046.051.077.094.077.025 0 .049-.01.065-.035.035-.062.041-.137.066-.205a8.29 8.29 0 0 0 .314-1.902c.022-.343.034-.687.018-1.03-.035-.492-.147-.974-.225-1.46-.01-.048-.017-.097-.03-.145.222-.007.443-.014.664-.023.079-.06.035-.167.013-.245-.188-.674-.374-1.349-.567-2.021.185-.007.37-.014.554-.023.078-.06.034-.166.011-.243l-.584-1.969.595-.016c.075-.05.039-.15.004-.214-.177-.4-.351-.801-.534-1.199.132-.054.263-.11.39-.171.354.33.663.728.805 1.196.081.278.086.573.058.86.016.044.054.061.095.061a.2.2 0 0 0 .101-.03l.443-.182-.004.004a5.206 5.206 0 0 1-.347 1.696c-.098.265-.22.52-.326.78-.006.057.047.091.098.091a.102.102 0 0 0 .05-.013c.196-.029.39-.067.585-.105-.039.108-.066.221-.11.327-.165.486-.353.965-.534 1.445-.013.057.038.107.091.107a.08.08 0 0 0 .042-.011 5.81 5.81 0 0 1 .716-.116.57.57 0 0 0-.012.066c-.08.447-.167.892-.223 1.342a4.98 4.98 0 0 0-.018.846c.026.713.097 1.429.288 2.118.032.117.064.236.102.351a.08.08 0 0 0 .075.044c.038 0 .075-.021.084-.062a7.92 7.92 0 0 0 .566-2.05c.05-.41.082-.828.004-1.236-.08-.434-.208-.857-.311-1.285-.017-.05-.026-.104-.043-.153.124.003.247.011.37.027.17.018.34.054.511.069.073-.02.067-.116.031-.166-.24-.577-.551-1.13-.704-1.738l-.008-.032c.028 0 .057 0 .086.002.11.008.218.03.326.039.077-.034.058-.134.022-.192-.318-.723-.662-1.437-.908-2.19-.023-.058-.04-.124-.074-.176l-.006-.003c.2-.083.398-.166.596-.252.046-.08-.032-.156-.09-.201-.507-.462-1.064-.874-1.683-1.171a6.493 6.493 0 0 0-.716-.3c-.018-.055-.044-.11-.057-.163-.063-.181-.116-.368-.196-.542a.252.252 0 0 0 .052.004l.06-.001h.152c.46 0 .922.015 1.37.118.014.006.03.009.046.009.046 0 .094-.023.084-.074-.087-.273-.21-.534-.3-.807-.04-.112-.078-.225-.128-.332a.113.113 0 0 0-.06-.008c-.42.308-.834.628-1.27.916-.046.023-.105.07-.073.127v.001a.848.848 0 0 0-.157-.012l-.16.002a1.243 1.243 0 0 1-.068-.001h-.035a.077.077 0 0 0 .004-.029c.17-.508.34-1.022.63-1.476.036-.046.01-.127-.045-.137a.065.065 0 0 0-.012-.001zm6.156 0c-.697 0-1.309.513-1.309 1.171V15.75h.852V3.421c0-.322.284-.427.463-.427.187 0 .475.131.475.527v8.103h.852V3.521c0-.66-.653-1.271-1.333-1.271zm3.377 2.495q-.27 0-.452.348-.228.448.106.691.554.091 2.066 1.473 1.503 1.382 2.308 2.582.812 1.2 2.103 2.293 1.291 1.086 1.633 1.101.118.022.218.022.429 0 .533-.394.13-.494-.425-.76-.736-.341-1.716-1.359-.98-1.025-1.807-2.133-.835-1.109-2.248-2.4-1.412-1.29-2.156-1.435-.085-.029-.163-.029z"/><path d="M7.95.375c-9.625 0-9.625 17.25 0 17.25m0-17.25h55.877M7.95 17.625h55.877M71.515.375v17.25M63.827.375c9.625 0 9.625 17.25 0 17.25" fill="none" stroke="#000"/></svg>