<svg xmlns="http://www.w3.org/2000/svg" width="53.152" height="18"><path d="M14.9 4.63c-.51.04-.793.295-.847.766.067.51.35.78.847.807.498-.027.76-.296.787-.807-.04-.47-.303-.726-.787-.766zm.06-1.694c.364 0 .7.067 1.009.201a2.659 2.659 0 0 1 1.371 1.361c.135.303.202.622.202.959 0 .35-.067.675-.202.978a2.567 2.567 0 0 1-2.38 1.523c-.362 0-.702-.065-1.018-.192a2.426 2.426 0 0 1-.817-.535 2.621 2.621 0 0 1-.544-.796 2.38 2.38 0 0 1-.202-.978c0-.337.067-.656.202-.958.134-.303.316-.572.544-.807.229-.235.501-.42.817-.555a2.574 2.574 0 0 1 1.019-.201zm-.04-.686c-.443 0-.86.084-1.25.252-.39.168-.726.397-1.008.686a3.36 3.36 0 0 0-.676 1.008 3.053 3.053 0 0 0-.252 1.24c0 .444.084.857.252 1.24.168.384.393.717.676.999a3.2 3.2 0 0 0 2.258.928c.444 0 .857-.084 1.24-.253a3.36 3.36 0 0 0 1.009-.675 3.16 3.16 0 0 0 .686-.998c.168-.384.252-.797.252-1.24 0-.444-.084-.858-.252-1.24a3.268 3.268 0 0 0-1.694-1.695 3.053 3.053 0 0 0-1.24-.252zm-1.04 11.631a1.31 1.31 0 0 0-.312.039c-.21.051-.437.168-.682.35H7.95v1.091h4.936c.245.182.472.299.682.35a1.31 1.31 0 0 0 .623 0c.205-.051.41-.168.617-.35h.19c.197.182.4.299.61.35a1.316 1.316 0 0 0 .63 0c.209-.051.432-.168.67-.35h4.983V14.27h-4.983c-.238-.182-.461-.299-.67-.35a1.316 1.316 0 0 0-.63 0 1.39 1.39 0 0 0-.61.35h-.19a1.492 1.492 0 0 0-.617-.35 1.274 1.274 0 0 0-.31-.039zm14.542-7.543q.17 0 .353.078.41.173.41 2.758v2.474h-4.641q1.792-2.46 2.46-3.718.666-1.257 1.014-1.473.192-.119.404-.119zm-.197-.528l-.075.001q-.66.014-1.487 1.612-.827 1.598-3.272 4.767h6.336l-.014-3.558q-.07-2.376-.486-2.605-.393-.217-1.002-.217zm4.679-3.56l-1.677 1.983h.818l.86-1.024.867 1.024.843-1.024.867 1.024.86-1.024.867 1.024.86-1.024.867 1.024.843-1.024.868 1.024.867-1.024.843 1.024.868-1.024.86 1.024h.817L43.225 2.25l-.868.959-.843-.959-.867.959-.868-.959-.843.959-.867-.959-.86.959-.867-.959-.86.959-.867-.959-.843.959-.868-.959zm10.191 4.745c.706.03 1.094.046 1.26.046h.077l-.092 3.69a5.414 5.414 0 0 1-1.404-.835l.16-2.9zM32.8 6.077c-.236.045-.547.19-.509.47v2.058a39.352 39.352 0 0 0-1.063-.045c0 .258.213.607.873.607.008.585.114 1.298.22 1.663l.092.957c0 .106.182.136.38.136.235 0 .493-.045.493-.045l-.038-.957c3.75.03 10.904.22 11.26.22.183 0 .304-.197.304-.47l.091-4.124-2.255-.022-.182 3.212c-1.633.007-4.457.273-6.378.273-.608 0-1.132-.023-1.489-.099-.076-.083-.782-1.108-1.23-1.222a1.97 1.97 0 0 0-.265-.03c-.076-.623-.152-1.246-.22-1.861.136-.175.447-.13.53-.364.084-.114.031-.304-.128-.312-.091-.038-.342-.045-.448-.045zm.104 7.69l-1.677 1.983h.818l.86-1.025.867 1.025.843-1.025.867 1.025.86-1.025.867 1.025.86-1.025.867 1.025.843-1.025.868 1.025.867-1.025.843 1.025.868-1.025.86 1.025h.817l-1.677-1.983-.868.958-.843-.958-.867.958-.868-.958-.843.958-.867-.958-.86.958-.867-.958-.86.958-.867-.958-.843.958-.868-.958z"/><path d="M7.95.375c-9.625 0-9.625 17.25 0 17.25m0-17.25h36.952M7.95 17.625h36.952M52.59.375v17.25M44.902.375c9.625 0 9.625 17.25 0 17.25" fill="none" stroke="#000"/></svg>