<svg xmlns="http://www.w3.org/2000/svg" width="88.377" height="18"><path d="M5.566.322q.06 0 .113.039.214.116-.136.564-.37.369-.457.622-.088.253-.185.67-.097.419-.428 1.197l-.447.136H2.412q.233-.506.544-.914.759-.7 1.128-.934.37-.233.593-.398.224-.166.477-.632.233-.35.412-.35zM4.55 3.939l-.311.68q-.454-.045-.84-.045-.775 0-1.28.182-.097-.661-.292-.817zm-2.237 1.42q-.37.02-.389.35.02.389.39.389.369 0 .388-.39-.02-.33-.389-.35zm.837-.33q.836 0 .972.777.136.778-.895 1.07.35.66 0 .836-.123.062-.24.062-.216 0-.411-.208-.302-.32-.535-.914-.233-.593-.7-.593h.33q-.213-.33-.155-.506l.034.002q.166 0 .219-.177.37-.35 1.38-.35zm1.147.057q.292 0 .836 1.255.545 1.254 1.77 2.314t1.974 2.577q.749 1.517 2.927 3.326-3.812-1.809-4.784-2.237-.973-.428-3.15-2.003-1.246-.914-1.246-1.459 0-.427.098-.739V8.1q.992 0 .992-.991 1.342-.661.583-2.023zm-.545 5.971q.37 1.77 1.829 3.91-.139.109-.302.109-.385 0-.904-.616 0-.972-.7-3.403zm.642.622q1.148.914 2.587 1.731v1.848q-.506-.39-1.011-.467-1.381-2.256-1.576-3.112zm.214 3.812q.265.336.546.336.255 0 .524-.277l.097 1.711q-.185-.041-.354-.041-.308 0-.56.138-.34-.113-.597-.113-.096 0-.18.016l.524-1.77zm.603-3.676l5.815 2.937q1.128 1.264 2.159 2.392v.02l-1.459.233-2.898-3.131q-.836-.68-3.617-2.45zM5.482 0h-.037q-.233.01-.486.4-.058.174-.243.388-.185.214-.535.428-.35.214-.505.34-.156.127-.525.458-.312.252-.448.408-.31-.194-.525-.476-.214-.282-.233-.516-.02-.233.048-.37.069-.135.214-.165.04-.008.08-.008.103 0 .202.057.136.078.117.272-.039.175-.253.214-.058-.025-.095-.025-.05 0-.06.045-.04.252.194.272l.05.002q.2 0 .33-.138.145-.156.126-.525Q2.762.652 2.47.613 2.417.606 2.364.606q-.237 0-.468.144-.282.175-.311.544-.03.37.263.749.291.379.641.632-.272.35-.564.875H1.09q.506.545.603 1.536h-.04q-.346 0-.29.331-.545.156-.545 1.03.181-.105.34-.105.044 0 .088.009.233 0 .379.544.146.545.632 1.206v.02q-.117.233-.117.738 0 .506.895 1.459.895 3.073.875 4.493 0 .175.253.213l-.642 2.14q-.052-.004-.106-.004-.272 0-.604.082-.19.046-.388.046-.219 0-.448-.056-.253-.062-.497-.062-.177 0-.349.033-.272.051-.432.051-.08 0-.132-.012Q.058 17.358 0 18q.337-.194.514-.194.089 0 .138.048.145.146.573.146h5.66q.37 0 .583-.156.071-.051.169-.051.194 0 .492.207.02-.622-.66-.797-.386.143-.696.143-.238 0-.433-.085l-.097-1.925q.532.736.93.736.17 0 .315-.134-.137-1.186-.137-2.178l.545.33q.467.215 2.052 2.024 1.52 1.734 1.814 1.734.013 0 .024-.004l1.847-.389q.292-.097.117-.291l-1.46-1.654q1.362.875 2.042 1.167-.33-.37-1.108-.934l.389.136q.233-.039.194-.37-3.384-2.45-4.298-4.22-.914-1.77-2.149-2.878-1.235-1.108-1.838-2.49-.37-.874-.758-1.186L6.573.633 6.146.399 5.134 2.597l.098-.447q.116-.467.252-.7.137-.234.273-.331.291-.428.291-.661 0-.234-.175-.35Q5.693 0 5.481 0zm6.662 1.88c-.404 0-.674.234-.67.606.006.404.277.637.67.637s.627-.234.621-.637c-.005-.373-.239-.606-.621-.606zM12.19.536c.266 0 .531.055.798.165.511.211.856.578 1.084 1.076.231.507.215 1.02 0 1.53-.215.506-.583.838-1.084 1.05a1.98 1.98 0 0 1-.778.16c-.275 0-.55-.056-.823-.16-.509-.193-.846-.567-1.075-1.05a1.797 1.797 0 0 1-.16-.774c-.001-.535.233-1.009.59-1.394.176-.19.394-.335.645-.438.27-.11.536-.165.802-.165zM12.127 0c-.703 0-1.256.244-1.752.741-.507.509-.723 1.062-.733 1.776a2.32 2.32 0 0 0 .247 1.108c.133.652.14 1.742-.037 1.742-.308 0-.132-.819-.147-1.074-.025-.435-.282-.805-.587-1.099-.07-.068-.148-.144-.25-.154a2.8 2.8 0 0 0-.294-.02.975.975 0 0 0-.333.051c-.076.027-.079.134-.054.204.026.072.074.148.157.158l.063.003c.101 0 .201-.025.303-.026h.013c.042 0 .09.004.12.035-.068.128-.162.252-.178.402a.393.393 0 0 0 .015.176c.199.55.32 1.813 1.145 1.813.156 0 .23-.032.28-.079.366-.34.372-.916.35-1.393.484.455 1.03.646 1.705.655h.039c.691 0 1.242-.256 1.737-.733.135-.13.249-.262.344-.401.022.472.045.948.218 1.392.137.35.441.604.768.778a.139.139 0 0 0 .056.019c.04 0 .016-.062-.03-.107a1.986 1.986 0 0 1-.484-.734c-.176-.481-.158-1-.147-1.502.007-.307.02-.615.002-.922h-.002c.01-.094.015-.191.016-.292.008-.72-.242-1.268-.74-1.776-.507-.515-1.06-.733-1.777-.74L12.127 0zM22.17 4.787q-.407 0-.471.314v.019q.046.083.193.083.425-.185.425-.342v-.018q0-.037-.148-.056zm1.477-.572q-.065.36-.637.775l.203.083.277-.101.138.092q1.062.508 2.817.536l2.752.027h.037q.47 0 .457.688-.014.716-.485 1.436-.296 0-.6-.226-.305-.226-.499-.53-.194-.306-.499-.795.093.97.554 1.524-.563 0-1.002.106-.219.053-.365.053-.147 0-.22-.053-.093-.066-.458-.066-.222 0-.545.024-.249.02-.455.02-.501 0-.75-.112-.23-.194-.29-.679-.06-.485.272-1.343-.684.489-.684 1.486v.333q-.341-.351-.535-.776-.379-.942-1.034-.942-.25 0-.96.314-.24-.101-.195-.323l.462-.619q.332-.563.48-.628.074-.138.72-.138.277.074.277.203 0 .175-.184.35.35-.073.508-.415 0-.083.443-.304zm.398-1.965q-.045 0-.103.072-.701 1.117-1.274 1.551-.222.194-.6.203-.185 0-.563-.277-.564-.545-.785-.923-.25-.444-.324-.49-.036 0-.055.093 0 .526 1.071 1.948-.203.296-.378.674-.176.379-.416.577-.24.199.046.393 0 .24.397.388.324-.093.988-.287.397 0 .545.333.49.738.49 1.542.055 1.071-.74 2.05-.248.166-.248.461 0 .12.304.12.499 0 .499-.12l-.037-.249q0-.13.194-.194v-.018q0-.176.628-1.764.286 0 .452.277.213.702.213 1.164 0 .101-.13.434-.157.12-.193.434h.738l-.055-.231q-.037-.139.101-.24l-.064-.342q-.12-1.302-.12-1.533v-.018q.73-.176 1.122-.176.392 0 .605.143.084.057.236.057.231 0 .618-.13.419-.142.643-.142.119 0 .183.04.185.115.185.392 0 1.016-.517 1.727-.167.166-.25.462h.638q.166-.056.073-.277.019-.24.222-.305 0-.84.739-1.662.517.286.526.886 0 .231-.092.628l-.111.305q-.102.12-.185.453h.61q.11-.047.138-.102l-.092-.296q-.046-.129.13-.23-.093-.49.12-.74-.435-1.015-.435-1.597.231-.95.296-1.782.11.582.027 1.395-.083.812.277 1.68.07.146.129.146.04 0 .075-.072.092-.526.037-2.909-.074-.295-.157-.452-.296-.453-.508-.471h-2.983q-2.207 0-3.269-.628.176-.314.194-.43.019-.115 0-.281-.443.13-.665.342l-.184-.139q.193-.12.618-.776.425-.655.499-1.025-.031-.062-.073-.062zm4.894 10.098c.487.021.754.032.87.032h.052l-.063 2.547a3.738 3.738 0 0 1-.97-.576l.11-2.003zm-7.108-.634c-.162.031-.377.131-.351.325v1.42c-.315-.015-.64-.031-.734-.031 0 .178.147.42.603.42.005.403.078.896.152 1.147l.063.66c0 .074.125.095.262.095.162 0 .34-.031.34-.031l-.026-.66c2.59.02 7.527.151 7.774.151.125 0 .21-.136.21-.325l.062-2.846-1.557-.016-.125 2.217c-1.127.006-3.077.19-4.403.19-.42 0-.781-.017-1.028-.069-.052-.058-.54-.765-.849-.844a1.36 1.36 0 0 0-.183-.02c-.053-.43-.105-.86-.152-1.285.094-.12.309-.09.367-.252.057-.078.02-.21-.09-.215-.062-.026-.235-.031-.309-.031zm14.821-4.666h.15q1.868 0 3.562 1.606l-1.048.848q-.981-.937-2.565-.937-1.583 0-2.564.937l-1.048-.848q1.672-1.606 3.513-1.606zm.1 2.164q1.761.022 2.898 1.85h-5.82q.892-1.828 2.921-1.85zm0-2.854q-2.766.111-4.661 2.274l1.583 1.338q-.669.892-.825 1.672h7.782q-.156-.78-.825-1.65l1.472-1.338q-1.762-2.185-4.527-2.296zm8.791-1.804c-.203.097-.45.367-.075.412.18-.007.593-.195.518-.367a.166.166 0 0 1-.119.05c-.106 0-.215-.095-.324-.095zm-1.478.067c-.248.06-.376.33-.06.39l.016.001c.181 0 .676-.22.269-.27-.068-.046-.135-.12-.225-.12zm1.973-1.883c.443.517.833 1.118.908 1.808.075.495.098.99.173 1.478-.353-.03-.248-.577-.18-.84.06-.518-.218-.998-.413-1.456-.135-.247-.263-.638-.608-.645-.383.067-.63.39-.878.668-.255-.255-.525-.533-.878-.638a.177.177 0 0 0-.06-.01c-.08 0-.172.035-.215.035-.037 0-.036-.026.043-.123.047-.168.146-.218.269-.218.178 0 .407.106.6.106a.42.42 0 0 0 .083-.008 2.801 2.801 0 0 0 1.156-.158zm-.12.57c.293.075.36.48.503.72.18.42.397.878.255 1.351-.113.225.03.51.015.675-.25.176-.47.547-.802.547a.474.474 0 0 1-.114-.014c-.33-.067-.495-.383-.75-.533-.185.178-.294.548-.598.548a.464.464 0 0 1-.137-.022c-.278-.06-.646-.03-.728-.368-.143-.345-.158-.728-.18-1.103a.243.243 0 0 0 .046.005c.151 0 .165-.177.179-.328.058-.22.215-.321.39-.321.118 0 .244.046.353.134.127.142.517.255.435.48-.038.135-.083.277-.128.42l.316.42c.03-.217.352-.397.165-.615-.03-.098-.143-.225-.128-.3.135-.24.315-.45.525-.63a.241.241 0 0 1 .172-.077c.202 0 .404.263.579.287.172-.188-.015-.263-.188-.36a.526.526 0 0 0-.365-.147.602.602 0 0 0-.49.266c-.143.086-.242.371-.367.371-.04 0-.082-.028-.129-.1-.229-.184-.503-.39-.804-.39a.642.642 0 0 0-.134.014c-.212.044-.403.474-.419.474-.008-.353.157-.669.254-1.014a.459.459 0 0 1 .447-.357c.13 0 .261.055.356.177.224.083.387.475.597.475a.2.2 0 0 0 .116-.04c.233-.247.42-.54.758-.645zm-1.066 5.207c.953.983 1.831 3.475 2.056 4.495-.367-.3-.87-.495-.983-.683-.12-.195-.45-2.093-1.073-3.812zm3.392-1.785c1.8 1.035 4.937 6.13 5.605 6.948-1.125-.713-2.236-1.433-3.444-2.019-1.696-.832-3.144-2.183-4.525-3.444 1.141-.382 1.959-1.028 2.364-1.485zm-1.868 6.468c.24.142.457.337.72.442-.158.39-.255.826-.578 1.133-.06.098-.147.129-.246.129-.17 0-.378-.092-.551-.092a.44.44 0 0 0-.036.001c.21-.525.526-.758.69-1.613zm.51-7.024c.045.094.103.125.165.125.08 0 .168-.053.24-.087.18.127.803.112.435.383-.232.315-1.475 1.174-2.339 1.326-.373.065.253.655.456.865 1.17 1.05 2.319 2.16 3.722 2.918.878.496 1.8.938 2.648 1.486.406.585.886 1.126 1.194 1.771-.308.09-.608.218-.923.293a2.168 2.168 0 0 1-.527.061c-.496 0-.994-.147-1.214-.384-.405-.428-.848-2.251-1.08-2.919-.034-.075-.08-.1-.132-.1-.101 0-.219.099-.277.099a.03.03 0 0 1-.027-.014.293.293 0 0 0-.29-.282c-.131 0-.254.096-.235.297-.045.473-.135.946-.36 1.373-.028.073-.086.101-.161.101-.214 0-.571-.22-.815-.28.098-.579-.69-3.535-3.001-6.011-.081-.088-.433-.459-.402-.459.003 0 .012.005.027.016.118.031.251.052.383.052.253 0 .501-.078.63-.314.02-.06.044-.082.072-.082.103 0 .258.3.423.3a.69.69 0 0 0 .385.115.79.79 0 0 0 .583-.266c.142-.128.277-.255.42-.383zm-.78-3.924a2.79 2.79 0 0 1-1.02.21 2.02 2.02 0 0 1-.158-.007.603.603 0 0 1-.107.009c-.253 0-.525-.136-.77-.136a.466.466 0 0 0-.264.074c-.413.6-.788 1.268-.833 2.011-.082 1.426-.045 1.92 1.08 3.091.443 1.006 1.269 4.285 1.516 5.178.27.255-.337 1.65-.592 1.996-.14.191-.505.2-.898.2h-.129c-.353 0-.711.008-.932.145-.21.135-.285.638-.165.705.113-.172.338-.405.495-.427-.15.157.375.082.488.12.303.005.61.03.918.03.15 0 .298-.006.448-.023.067-.03.14-.075.171-.075.025 0 .025.027-.021.113.212.055.45.083.684.083.525 0 1.022-.14 1.132-.42a8.15 8.15 0 0 0 .585-1.299c.191.04.432.176.625.176a.284.284 0 0 0 .155-.04c.21-.144.428-.811.548-1.254.011-.046.074-.069.137-.069.06 0 .122.021.14.061.226.45.6 1.831.961 2.41.272.427.93.638 1.631.638.442 0 .9-.083 1.288-.249.488-.21.848-.165.743-.435-.165-.45-.45-.878-.75-1.26.435.27.87.547 1.305.817.036.131.126.183.218.183.178 0 .362-.193.18-.385-1.704-2.461-4.412-6.656-6.288-8.014a2.525 2.525 0 0 0-1.043-.563c-.128-.33-.09-.773-.165-1.148-.075-.743-.526-1.973-1.313-2.446zm15.381.23q.067 0 .127.03.103.052.147.177t0 .198q-.103.117-.206.125h-.03q-.091 0-.204-.037-.089.088-.206.22-.147.191-.397.602-.279.456-.41.647-.31-.177-.515-.177.925-1.145 1.197-1.439.272-.294.397-.33.052-.016.1-.016zm-1.988 2.24q.412.206.5.368.088.161.014.161-.073 0-.176.089-.073-.265-.338-.617zm-.102.427l.646 2.423q-.309 0-.646.235V5.147zm2.062-2.897q-.197 0-.418.194L59.31 4.515q-.559-.088-.867-.617.206-.25.698-.705.492-.455.403-.602-.042-.088-.144-.088-.252 0-.869.544-.66.47-1.057.763-.206.191-.338.668-.132.478-.397 1-.264.52-.25.814.037.184.122.184.084 0 .217-.184.19-.323.455-.734.264-.411.66-.764.28-.19.53-.235.278.103.425.397v8.106q-.866.235-.896 1.131-.044.338.206 1.043.176.514.66.514-.322-1.219-.322-1.557.03-.675.587-.675.602 0 .632.675 0 .338-.309 1.557.485 0 .647-.514.25-.705.19-1.043.015-.896-.895-1.13V8.421q.455-.323 1.19-.426-.295-1.498-.58-2.056-.254-.494.233-.494.064 0 .14.009-.176-.69-.704-.881V4.5q.032-.003.065-.003.296 0 .64.238.22-.293.499-.778.294-.5.396-.631.103-.133.147-.147.084.03.16.03.186 0 .318-.185.183-.257.007-.499t-.397-.272q-.025-.003-.052-.003zm5.477.45c.805 0 1.814.415 2.301.903.427.426.483.992.499 1.518H64.16c.015-.526.071-1.092.498-1.518.488-.488 1.472-.902 2.278-.902zm0-.45c-.956 0-1.984.441-2.587 1.044-.618.618-.688 1.432-.688 2.04v.238h6.55v-.237c0-.61-.047-1.423-.665-2.04-.603-.604-1.655-1.045-2.61-1.045zm.015 7.272q.61 0 1.241.266l-1.202 1.217-1.233-1.217q.586-.266 1.194-.266zm-2.63 1.592l1.218 1.218-1.218 1.217q-.53-1.264 0-2.435zm5.26.063q.531 1.264 0 2.435l-1.217-1.218 1.217-1.217zm-.952-1.03q.375.171.593.593l-1.654 1.67 1.639 1.639q-.203.406-.609.593l-1.639-1.639-1.607 1.608q-.406-.25-.594-.61l1.608-1.591-1.686-1.686q.172-.406.61-.577l1.67 1.67 1.67-1.67zm-1.639 3.62l1.218 1.218q-.593.266-1.202.266t-1.233-.266l1.217-1.217zm-.03-4.76q-1.608 0-2.537 1.046-.929 1.046-.929 2.294 0 1.405 1.085 2.396 1.085.991 2.349 1.007 1.53-.016 2.49-1.054.96-1.037.96-2.349l-.016.032q.015-1.187-.944-2.28-.96-1.092-2.459-1.092z"/><path d="M17.716.375v17.25m0-17.25h2.625m-2.625 17.25h2.625m0-17.25h50.036m-50.036 17.25h50.036m0-17.25h17.625m-17.625 17.25h17.625M72.14.375v17.25M75.665.375v17.25M77.427.375v17.25M79.19 2.1h8.812M79.19 5.55h8.812M79.19 2.1v3.45m1.762-1.725h7.05m-8.812 3.45h8.812m-8.812 3.45h8.812m-8.812-3.45v3.45M80.952 9h7.05m-8.812 3.45h8.812M79.19 15.9h8.812m-8.812-3.45v3.45m1.762-1.725h7.05" fill="none" stroke="#000"/></svg>