<svg xmlns="http://www.w3.org/2000/svg" width="77.475" height="18"><path d="M3.01.474c.693 0 1.247.2 1.634.479.006.053.02.107.009.16-.05.248-.195.477-.396.63-.316.207-.697.267-1.057.356-.09.01-.019.031.031.04.23.04.707.099.971.099l.052-.001c.278-.032.54-.148.766-.311.079-.067.147-.15.205-.236.147.346.227.713.26.917.018.11.096.2.202.233 1.139.349 2.038 1.91 2.88 2.949 1.729 2.137 3.199 4.526 4.892 6.76-.937-.456-1.87-.916-2.81-1.374-1.92-1.01-3.92-1.816-5.604-3.09l-.008-.008c-.97-.808-1.963-1.66-2.339-2.793-.148-.92 1.757-2.577 1.542-2.646a.207.207 0 0 0-.064-.01c-.458 0-1.753 1.128-2.019 2.202-.003-.014-.01-.03-.014-.045-.073-.356-.154-1.256.068-1.98a.29.29 0 0 0 .01-.103 1.968 1.968 0 0 0-.123-.634c-.063-.17-.139-.344-.26-.765-.031-.108-.142-.328-.208-.345.186-.138.375-.28.645-.375a.434.434 0 0 0-.132.314c0 .23.164.415.365.415.2 0 .364-.186.364-.415V.894a.411.411 0 0 0-.255-.39c.053-.007.096-.019.154-.022.081-.006.16-.008.238-.008zm.67 7.763c.065.065.135.124.202.187.214.78.412 1.64.692 2.305.483 1.145 1.216 2.141 1.84 3.154a1.814 1.814 0 0 0-.385.27 6.831 6.831 0 0 0-.199.193 2.61 2.61 0 0 0-1.186-.897c.045-.723-.108-1.712-.34-2.787a34.903 34.903 0 0 0-.624-2.425zm1.006.908c1.149.945 2.428 1.738 3.676 2.54-.018.91-.018 1.778.084 2.675a3.411 3.411 0 0 0-1.437-.736c-.02 0-.037.012-.057.012-.649-1.063-1.383-2.06-1.837-3.134-.156-.37-.293-.85-.429-1.357zm.407 5.254a2.5 2.5 0 0 1 .44.541.3.3 0 0 0 .257.14.29.29 0 0 0 .17-.053c.215-.156.347-.324.476-.446.047-.045.097-.08.148-.117l.149 2.722c-.213-.014-.435-.035-.637-.035-.264 0-.495.036-.633.172-.169-.134-.497-.164-.89-.164-.102 0-.207.002-.316.004l.836-2.764zM6.25 9.574c1.354.787 2.784 1.414 4.135 2.125a.244.244 0 0 0 .006.003c1.295.631 2.586 1.28 3.894 1.904.984 1.189 2.052 2.295 3.078 3.42l-2.15.362-4.267-4.635a.288.288 0 0 0-.037-.036c-1.499-1.137-3.152-2.082-4.66-3.143zM3.076 0c-.135 0-.273.005-.411.013C1.58.083.792.54.523 1.157c-.04.093-.146.314-.007.314a2.35 2.35 0 0 1 .341-.028c.418 0 .38.172.47.194.09.282.29.846.303 1.068-.244.86-.153 1.763-.064 2.198.15.732.63 1.584 1.261 2.38a.285.285 0 0 0 0 .166 35.3 35.3 0 0 1 .903 3.336c.251 1.168.393 2.277.317 2.823a.294.294 0 0 0 .221.328c.045.011.084.031.127.045l-.928 3.079a2.847 2.847 0 0 0-.593-.055c-.381 0-.756.05-1.064.05-.125 0-.24-.008-.34-.032a.546.546 0 0 0-.125-.012c-.436 0-1.428.306-1.34.879.15-.128.257-.159.375-.159.11 0 .23.027.405.027h.027c.254-.004.697-.083 1.053-.083.18 0 .338.02.438.08.236-.01.45-.013.649-.013.85 0 1.447.07 2.5.075a89.565 89.565 0 0 0 2.974-.079c.45.003.697.054.922.054h.04c.134-.004.265-.057.48-.057.123 0 .273.017.468.07-.25-.341-.877-.685-1.33-.685a.591.591 0 0 0-.302.071 5.081 5.081 0 0 0-.508-.022c-.22 0-.448.01-.678.02l-.157-2.83c.487.203.857.517 1.281 1.021a.295.295 0 0 0 .513-.246c-.192-1.039-.213-2.019-.202-3.06.54.354 1.072.713 1.576 1.094l4.36 4.738a.29.29 0 0 0 .263.09c.95-.159 1.9-.315 2.849-.474a.294.294 0 0 0 .23-.193.298.298 0 0 0-.06-.297c-.741-.83-1.508-1.631-2.25-2.445 1.269.78 2.875 1.755 3.08 1.755.022 0 .027-.013.012-.04-.094-.163-.9-.755-1.775-1.373.14.058.276.12.415.177l.017.01c.103.035.16.059.27.062a.286.286 0 0 0 .108-.016.317.317 0 0 0 .188-.152.32.32 0 0 0 .023-.238c-.017-.05-.038-.077-.054-.098-.061-.085-.103-.109-.162-.154a4.553 4.553 0 0 0-.205-.149c-.153-.105-.336-.223-.493-.328a4.992 4.992 0 0 1-.328-.233.307.307 0 0 0-.028-.025l-3.892-2.736c-.008-.006-.02-.001-.028-.006-1.333-1.869-2.588-3.825-4.046-5.627-.744-.92-1.598-2.528-2.985-3.064-.067-.396-.218-1.127-.755-1.649C4.827.26 4.168.056 3.427.011A5.728 5.728 0 0 0 3.076 0zm21.477 5.76q-.785 0-.91.607v.036q.09.16.374.16.82-.356.82-.66v-.035q0-.072-.284-.107zm2.853-1.105q-.125.695-1.23 1.498l.392.16.535-.196.268.179q2.05.98 5.44 1.034l5.315.054.071-.002q.909 0 .883 1.33-.027 1.383-.937 2.774-.57 0-1.159-.437-.588-.437-.963-1.026-.375-.588-.963-1.533.178 1.872 1.07 2.942-1.088 0-1.935.206-.424.102-.707.102t-.426-.102q-.177-.128-.882-.128-.429 0-1.053.047-.481.037-.88.037-.967 0-1.448-.215-.445-.375-.561-1.311-.116-.936.526-2.595-1.32.945-1.32 2.871v.643q-.66-.678-1.035-1.499-.73-1.819-1.997-1.819-.482 0-1.855.606-.464-.196-.375-.624l.892-1.195q.642-1.088.928-1.213.142-.267 1.39-.267.536.143.536.392 0 .34-.357.678.678-.143.981-.803 0-.16.856-.588zM28.175.86q-.087 0-.198.138-1.356 2.159-2.461 2.997-.428.374-1.16.392-.356 0-1.088-.535Q22.18 2.8 21.752 2.07q-.481-.856-.624-.946-.071 0-.107.179 0 1.016 2.069 3.763-.392.57-.731 1.302-.34.731-.803 1.115-.464.383.09.758 0 .464.766.749.624-.178 1.909-.553.767 0 1.052.642.945 1.427.945 2.979.107 2.069-1.427 3.96-.481.32-.481.891 0 .232.588.232.964 0 .964-.232l-.072-.482q0-.25.375-.374v-.036q0-.339 1.213-3.406.552 0 .874.535.41 1.355.41 2.247 0 .196-.25.838-.303.232-.374.839h1.426l-.107-.446q-.071-.268.197-.464l-.125-.66q-.232-2.515-.232-2.96v-.036q1.409-.34 2.167-.34.758 0 1.168.277.163.11.457.11.446 0 1.193-.253.81-.273 1.242-.273.23 0 .354.077.357.223.357.758 0 1.962-.999 3.336-.32.32-.481.891h1.23q.321-.107.143-.535.036-.463.428-.588 0-1.623 1.427-3.21.999.552 1.017 1.712 0 .445-.179 1.212l-.214.589q-.196.232-.357.874h1.178q.214-.09.267-.196l-.178-.571q-.09-.25.25-.446-.179-.945.231-1.427-.838-1.962-.838-3.085.446-1.837.57-3.443.215 1.124.054 2.693-.16 1.57.535 3.247.136.282.248.282.078 0 .145-.14.178-1.016.071-5.618-.143-.57-.303-.874-.57-.874-.981-.91h-5.761q-4.263 0-6.314-1.212.339-.607.375-.83.035-.223 0-.544-.856.25-1.285.66l-.356-.267q.374-.232 1.195-1.499.82-1.266.963-1.98-.06-.12-.141-.12zm20.342.932l-.152.04q-.106-.02-.197-.02-.091 0-.167.02-.152.051-.182.112-.03.061-.102.112l.05.06.082-.04q.064.029.135.029.18 0 .412-.181l.151-.02-.03-.112zm.74-1.449q.547 0 .768.559.243.627.01 1.073-.194.356-.44.356-.062 0-.126-.022-.172-.061-.102-.172.142-.132.04-.345.102-.324.021-.475-.081-.223-.25-.223-.061 0-.135.03-.131.081-.172.172-.34-.077-.61-.077-.335 0-.564.118.05-.405.385-.648.334-.233 1.012-.334.085-.012.163-.012zm-5.144 5.104q1.256.79 2.136 1.073l.436.111q-.436.172-2.055.709-.172-.152-.466-.172l-.284-1.58q.132-.04.233-.141zm5.049-4.168q.085 0 .114.108.061.173-.02.426.06.192-.05.202-.02.003-.036.003-.09 0-.106-.094-.05.111.314.567.354.466 1.052 1.144.699.688.77 3.837l-1.407.708q-.284-1.873-1.316-3.209-.254-.283-.132-.536.132-.243.87-.638.365-.152.102-.365-.253-.212-.324-.455-.172 0-.365.152-.317.159-.449.159-.027 0-.047-.007-.111-.041-.131-.193l.152-.152q.07-.06 0-.111l-.304.07q.05-.262-.132-.283-.064.041-.105.041-.05 0-.067-.06-.04-.132.071-.386.06-.243.192-.374.122-.112.312-.112h.033q.07.004.14.004.14 0 .275-.014l-.02-.111q-.077.01-.165.01-.089 0-.19-.01-.047-.005-.09-.005-.297 0-.446.238-.02-.152 0-.213.256-.178.613-.178.25 0 .55.087v.132q.046.01.084.01.038 0 .069-.01 0-.324.11-.365.044-.017.079-.017zm2.27 6.648q.588 1.033.578 1.833-.01.8-.162 2.57l-2.572-.02.587-3.694 1.57-.689zM49.345 0h-.037q-.699.02-1.286.365-.648.344-.628 1.346.05.274-.03.537-.07.253-.05.516.043.109.138.109.038 0 .084-.018.047-.02.076-.02.068 0 .025.122-.04.02-.02.07.014.027.045.027.016 0 .036-.006-.057.142.028.142h.013l.015-.001q.077 0 .086.092.01.11.121.232.044.044.133.044.138 0 .384-.104l.364-.193q.03.091.132.213-.86.263-1.256.972-.577.698-.941 1.447-.87-.253-2.572-.971-.151-.213-.496-.274l-.435-2.338q-.132-.73.344-1.296L43.293.78q-.627.537-.425 1.64l.385 2.227-.344.02q-.04.173.172.254-.04.668.344.698l.283 1.549q-.222.04-.435.07-.02.193.243.254-.088.648.357.648h.028l.04.395.456-.092-.091-.415q.111-.06.222-.1 2.177-.264 2.693-.78.699-1.084 1.023-1.68.708.576 1.164 2.803h-.055q-.479 0-.431.345.04.285.271.285.065 0 .144-.022l-.688 4.16q-.608 2.703-.881 3.351-.152.517-.506.618-.365.091-1.164.547-.446.09-.497.243-.04.151.213.182.052.006.115.006.23 0 .604-.087.19-.04.416-.04.339 0 .758.09.096.02.178.02.516 0 .42-.779-.041-.567.657-1.61.699-1.042.77-2.47l.324-.324 1.032-.02.02.496q.284 1.944.304 2.561.132 1.003-.243 1.155-.384.141-1.154.597-.455.07-.516.223-.05.151.213.192.063.01.14.01.232 0 .588-.091.187-.044.43-.044.376 0 .887.105.118.024.21.024.57 0 .134-.915.03-.952.212-1.974.183-1.023-.212-2.065l.202-.274.122-2.794q.03-1.205-.84-2.693-.041-.546-.132-1.923-.081-1.387-.75-2.005-.667-.627-.738-.759.374-.263.496-.688.131-.436-.162-1.185Q50.023 0 49.344 0zm12.944.364q.17 0 .279.206.168.27-.253.454-.404.202-.269.69l.387 1.666q-.404.05-.707.403V1.697q0-1.06.286-1.228.155-.105.277-.105zm-.95 3.779v.626l-1.38-.144q.035-.169.522-.345.356-.129.858-.137zm.604.038q.607.125.91.747l-1.093-.115v-.239q0-.118.151-.353l.032-.04zm1.801.696q-.091 0-.268.303.438-.152.32-.27-.021-.033-.052-.033zm-3.868.875q-.05.1-.042.16.008.059.092.092-.1 0-.185-.05.017-.101.135-.202zm.151-.034q.152.017.27.084-.068.118-.22.202.068-.084.06-.168-.009-.084-.11-.118zm-.067-.067q-.236 0-.32.353.152.101.37.101.22 0 .37-.252h.404v-.135l-.404.034q-.185-.101-.42-.101zm-4.055-.454q1.01 0 0 1.867-1.01-1.867 0-1.867zm7.859-.427q.064 0 .116.057.185.218-.32.454.522.79.539 1.884l-.135.017q0-1.11-.437-1.834l-.034.017q.32.707.336 2.339l-.151.016q-.1-1.632-.185-2.019l-.151-.555q.254-.376.422-.376zm-3.572.524q.165 0 .306.046.337.11.337.462h.235q.05-.32.202-.32.152 0 .05.32l-.47.74v1.582l-.05.017q-.068-.118-.16-.303-.093-.185-.127-.488h-.505q-.286 0-.286-.134 0-.253.27-.286 0-.135-.085-.135l-.336-.017q.1-.235-.202-.303 0-.134.27-.605v-.286l.05.067q.218-.101.336-.118.135 0 .404.118h.303v-.118h-.303q-.236-.151-.404-.151-.185 0-.387.151 0-.134.05-.151.274-.088.502-.088zm-.367-.417l1.514.162v.14h.421v-.095l1.211.13q.017.084.169.555.218.656.185 4.626l-2.12.017V6.593q.118-.168.303-.471.185-.303.176-.648-.007-.288-.279-.288-.053 0-.116.01-.27 0-.337.337-.016-.269-.302-.395-.13-.058-.337-.058-.248 0-.606.083.017-.168.118-.286zm-3.942 5.425q.677 0 .813.464h-.64q-.52-.05-.52-.438.188-.026.347-.026zm4.969-1.454v1.918h1.817q-.017 1.043-.194 2.506-.177 1.464-.446 2.482-.269 1.018.354 1.657h-4.964q.169-.185.228-.622.058-.438-.379-1.48l-1.262-3.82q.01-.558.3-.558.182 0 .474.222l1.716 2.54.64.808q.168.117.299.117.261 0 .373-.47.606-1.38.455-3.382-.59-.623.589-1.918zM62.306 0q-.228 0-.512.183-.455.303-.455 1.783v1.83q-.466.024-.79.097-.488.11-.8.47-.31.363-.31 1.002-.068.27-.018.505-.286.504-.286.69 0 .1.253.1l-.05.152q.033.084.1.1-.05.068-.033.152l.117.05q-.1.455.387.455h.354q.033.32.387.858-.017.034-.328.42-.312.388-.615.934-.302.547.135 1.069.118 1.699-.521 3.146l-2.221-3.23q-.248-.808-.867-.808h-.025V7.603h1.195v-.404h-1.195q1.211-2.339-.303-2.339-1.497 0-.303 2.339h-1.177v.404h1.16v2.355q-.942 0-.185 1.195 1.784 5.35 1.733 5.703-.05.37-.496.64-.446.268-.227.504h6.696q.336-.151 0-.471-.892-1.06-.572-2.036.32-.976.555-4.727h.623v-1.11q0-1.01-.017-1.734.134-.017.303-.084l-.034-.505.303-.016q0-1.245-.538-1.969.588-.235.269-.606-.125-.15-.26-.15-.21 0-.447.37-.438-.83-.977-1.075.226-.127.54-.221l-.471-2.002q-.068-.236.286-.455.47-.336.185-.807Q62.643 0 62.306 0zm5.504 2.077l3.648 3.209q-.77 1.187-2.044 2.395-1.209-2.857-1.604-5.604zM66.838.495q-.704 0-.545.967.681.33.572.747-.11.418.087 1.385.198.967 1.583 4.593-.421 1.431.488 1.431.04 0 .083-.003 2.462 4.528 5.429 7.89h.527l-.132-1.472q-2.373-2.22-5.077-7.187.792-1.67 2.22-2.923l4.374 3.934q.33.148.555.148.61 0 .434-1.093L73.04 5.154q.018-.999-.833-.999-.197 0-.442.054L67.81.759q-.604-.264-.972-.264z"/></svg>