<svg xmlns="http://www.w3.org/2000/svg" width="61.641" height="18"><path d="M11.724 2.584q.07 0 .151.028.212.075.157.273-.054.199-.246.24-.038.008-.077.008-.158 0-.333-.131 0-.22.144-.342.089-.076.204-.076zm2.658 2.44q1.066.054 2.904 1.134 1.838 1.08 2.658 1.708-.957-.342-1.708-.342-2.269 0-3.225-.56t-.956-.813q0-.253.109-.253.929 0 1.011-.437l-.219-.068q-.185.212-.66.212h-.043q-.485 0-.485.512 0 .52 1.045 1.093 1.045.574 2.562.574.902 0 1.441.26.54.26.759.464l-.738.137q-.164-.342-1.735-.342-.93 0-1.367-.52h-.232q.656.547.642 1.012-.007.236-.038.236t-.085-.222q-.11-.451-1.27-.697-.032.355-.089.355-.067 0-.171-.505-.137-.342-1.216-1.018-1.08-.677-1.107-.875-.027-.198.697-.622.724-.423 1.516-.423zm.588 3.334q.56.15.752.574.382 1.01.389 1.824.007.813-.608.867-1.025 0-1.011.37H13.33q1.49-2.747 1.64-3.635zm1.544 4.236v1.284l-1.79-1.284zM11.95 2.25q-.423 0-.806.26-.3.341-.478.437-1.285.82-1.572 1.667 0 .256.122.256.046 0 .11-.038.575-1.024 1.586-1.339.3.092.525.092.112 0 .206-.023.175-.043.305-.043.077 0 .139.015.164.041-.048.506-.212.465-.39 1.127-.177.663.137 1.032.56.52 2.214 1.599.273.273.246.478-.014 1.025-.574 2.234-.52 1.12-1.132 1.12-.049 0-.098-.007-.874 0-.984.37H8.22v.6h5.753l2.541 1.873v1.284h.601v-3.184l3.143.014v-.588h-3.785q-.014-.314.096-.478.109-.164.04-.376-.068-.211-.102-.929-.034-.717-.102-1.646h1.516q.246 0 .916.41l1.325-.233q-.396-.56-1.325-.942.15.04 1.148.382.314 0 .232-.355-.137-.219-.52-.533-3.907-2.555-5.328-2.555-1.066 0-1.647.396-.113.077-.179.077-.274 0 .254-1.32.656-1.64-.847-1.64zM27.845 2.25l-.01.001a12.424 12.424 0 01-.9.03c-.064.004-.07.086-.048.132.135.38.251.766.36 1.154h-.012-.003c-.108.002-.217 0-.324.01l-.005.008c-.007-.024-.023-.046-.049-.052a23.001 23.001 0 01-1.02-.74c-.01-.001-.018-.004-.026-.004h-.006c-.033.021-.046.067-.064.102-.059.158-.108.32-.174.475-.046.119-.098.236-.133.357.015.034.045.045.077.045.031 0 .065-.01.091-.018.413-.088.838-.08 1.258-.086-.042.092-.06.195-.098.289-.017.053-.037.107-.049.162h-.01a.05.05 0 00-.013 0c-.512.2-1.013.442-1.451.778-.21.163-.417.33-.6.522-.004.077.083.101.14.123l.355.147c-.06.082-.076.188-.114.282-.198.582-.478 1.132-.71 1.7 0 .047.043.07.086.07a.107.107 0 00.044-.01c.083-.015.165-.022.248-.024-.018.064-.024.132-.053.193-.14.444-.368.853-.54 1.285-.009.047.035.076.078.076a.08.08 0 00.035-.008c.211-.035.424-.065.638-.074-.024.06-.029.126-.047.188-.104.436-.255.867-.273 1.319-.004.294.032.587.079.877.08.476.224.94.41 1.386.002.041.039.067.075.067.023 0 .045-.01.058-.033.028-.06.036-.127.057-.19.107-.386.183-.78.217-1.18.034-.344.047-.69.045-1.037-.015-.405-.111-.8-.173-1.2-.011-.06-.019-.122-.035-.18a5.636 5.636 0 01.613.101c.065 0 .079-.086.05-.132-.174-.454-.351-.908-.497-1.372l.021.003c.176.032.353.073.532.084.056-.047.015-.122-.012-.173-.215-.467-.391-.956-.461-1.467-.023-.139-.022-.28-.046-.419.152.062.303.124.456.183.066-.016.07-.097.056-.152a1.686 1.686 0 01.214-.96c.142-.255.349-.464.56-.664.083.072.18.125.274.182l-.048.012c-.173.335-.318.683-.474 1.026-.02.048-.043.096-.05.147.026.042.07.05.115.05.028 0 .057-.003.083-.003h.004l.193-.004c-.021.066-.027.14-.05.207l-.368 1.537c.014.055.07.066.12.066a.52.52 0 00.044-.002l.318-.01c-.03.083-.042.174-.07.258-.138.503-.278 1.007-.413 1.511.015.056.071.068.124.068a542.609 542.609 0 01.554-.017.695.695 0 00-.02.083c-.106.462-.269.916-.293 1.393-.002.433.062.864.161 1.284.082.34.197.67.329.993.005.037.04.062.074.062a.06.06 0 00.053-.028c.028-.05.033-.11.053-.164a6.71 6.71 0 00.251-1.524c.018-.275.027-.55.015-.825-.029-.395-.118-.78-.18-1.17-.008-.039-.014-.079-.024-.117.177-.005.354-.01.531-.018.063-.048.028-.134.01-.196-.15-.54-.3-1.081-.454-1.62.149-.006.297-.01.445-.018.062-.049.027-.133.008-.195l-.468-1.577c.16-.004.318-.008.477-.014.06-.04.03-.12.003-.17-.142-.321-.281-.643-.428-.961.106-.044.21-.089.314-.138.283.266.53.584.643.959.066.223.07.459.047.689.013.035.043.049.077.049a.16.16 0 00.08-.024l.355-.146-.003.003c-.017.464-.11.926-.278 1.359-.078.212-.176.416-.261.625-.005.046.037.073.078.073a.082.082 0 00.041-.01c.157-.023.312-.055.468-.084-.03.086-.052.176-.087.261-.133.39-.284.773-.429 1.158-.01.046.03.086.073.086a.065.065 0 00.034-.01c.188-.041.38-.074.573-.092a.457.457 0 00-.01.053c-.063.358-.133.715-.178 1.075a3.946 3.946 0 00-.014.678c.02.572.078 1.145.23 1.697.026.094.051.19.082.281a.066.066 0 00.06.036c.03 0 .06-.017.068-.05.22-.525.38-1.077.453-1.642.04-.328.066-.664.003-.99-.063-.349-.166-.687-.249-1.03-.014-.04-.02-.084-.034-.123.099.002.197.009.296.021.137.015.273.044.41.056.058-.017.053-.093.024-.133-.192-.463-.441-.905-.564-1.393l-.006-.026.069.002c.087.006.174.024.261.031.062-.027.047-.107.018-.153-.255-.58-.531-1.152-.728-1.754-.018-.048-.032-.1-.06-.142l-.004-.003c.16-.066.32-.133.477-.202.038-.063-.025-.124-.072-.16-.406-.37-.852-.7-1.348-.94a5.203 5.203 0 00-.574-.24c-.014-.044-.035-.087-.045-.13-.051-.145-.094-.295-.158-.434a.202.202 0 00.042.003H27.985c.368 0 .738.011 1.098.094.01.005.024.007.037.007.036 0 .075-.018.067-.059-.07-.22-.169-.428-.24-.647-.032-.09-.063-.18-.103-.266a.09.09 0 00-.048-.006c-.337.247-.669.503-1.018.733-.037.02-.084.056-.058.103a.68.68 0 00-.126-.01l-.128.002a.996.996 0 01-.055 0h-.028a.062.062 0 00.003-.024c.137-.407.273-.819.506-1.183.028-.037.008-.1-.037-.11h-.01zM26.482 14.262c-.083 0-.166.01-.25.03-.167.041-.348.134-.543.28h-3.931v.869h3.931c.195.144.376.237.543.278a1.043 1.043 0 00.497 0c.163-.04.327-.134.49-.278h.152c.158.144.32.237.487.278a1.048 1.048 0 00.5 0 1.48 1.48 0 00.535-.278h3.968v-.87h-3.968a1.48 1.48 0 00-.534-.279 1.048 1.048 0 00-.501 0 1.12 1.12 0 00-.487.28h-.151a1.188 1.188 0 00-.491-.28 1.014 1.014 0 00-.247-.03zM36.48 2.25c-.09 0-.18.004-.268.012h-.042c-1.005 0-1.871.969-1.798 1.965-.054.784.109 1.558.152 2.338a.35.35 0 00.326.187.554.554 0 00.455-.245c.236-.33.132-.758.035-1.118-.106-.643-.145-1.359.21-1.936.227-.305.601-.457.975-.457.408 0 .815.18 1.03.541.344.506.252 1.241-.19 1.659-.427.505-1.068.838-1.341 1.464-.175.63-.028 1.288-.087 1.93-.056 2.342-.085 4.684-.13 7.027.121.101.264.12.411.12.086 0 .174-.006.26-.006.07 0 .14.004.206.019.319-.163.293-.573.27-.876-.113-2.457-.031-4.917-.093-7.375.007-.28-.084-.602.212-.762.59-.572 1.217-1.142 1.58-1.894.368-1.09-.457-2.397-1.6-2.536a2.837 2.837 0 00-.573-.057zM45.27 6.338q.171 0 .354.078.41.173.41 2.758v2.474h-4.641q1.793-2.46 2.46-3.718.667-1.257 1.014-1.473.192-.119.404-.119zm-.196-.528l-.075.001q-.66.014-1.487 1.612-.827 1.598-3.272 4.767h6.336l-.014-3.558q-.07-2.376-.486-2.605-.393-.217-1.002-.217zM52.488 2.933v1.823q-.403-.6-2.415-.6h-1.488V2.933zm.022-.683q-.82.152-2.437.152h-1.997v2.285h1.997q1.055 0 1.511.22.463.22.904.63l.022 10.213h.881V2.25z"/><path d="M8.22.375c-9.625 0-9.625 17.25 0 17.25M8.22.375h45.171M8.22 17.625h45.171M61.079.375v17.25M53.391.375c9.625 0 9.625 17.25 0 17.25" fill="none" stroke="#000"/></svg>