<svg xmlns="http://www.w3.org/2000/svg" width="111.266" height="18"><path d="M8.22.375c-9.625 0-9.625 17.25 0 17.25M8.22.375h0M8.22 17.625h0" fill="none" stroke="#000"/><path d="M12.295 1.124q2.015.293 2.106 1.842v11.177q-.941-1.124-3.381-1.58l1.275-11.44zM11.728 0L10.22 13.363q3.361.385 4.181 2.4V18h1.002V2.966q0-2.51-3.675-2.966zM35.247 2.373v2.341H18.004V2.373zM18.067 0v1.772h-.664v3.543h18.445V1.772h-.538V0h-.6v1.772h-1.488V0h-.6v1.772h-1.488V0h-.6v1.772h-1.456V0h-.633v1.772H26.99V0h-.601v1.772h-1.487V0H24.3v1.772h-1.487V0h-.6v1.772h-1.456V0h-.601v1.772h-1.487V0zM19.666 15.325L17.403 18h1.104l1.159-1.382L20.836 18l1.137-1.382L23.143 18l1.16-1.382L25.472 18l1.158-1.382L27.801 18l1.137-1.382L30.108 18l1.17-1.382L32.417 18l1.17-1.382L34.745 18h1.103l-2.262-2.675-1.17 1.293-1.137-1.293-1.17 1.293-1.17-1.293-1.137 1.293-1.17-1.293-1.16 1.293-1.17-1.293-1.159 1.293-1.17-1.293-1.137 1.293-1.17-1.293zM47.051.699q1.266.749 1.266 2.247h-2.521q0-1.498 1.255-2.247zm1.266 2.946q-.284 1.002-1.266 1.002t-1.235-1.002zm7.269 1.751v1.195h-17.06V5.396zM47.05 0q-1.934.729-1.934 3.128 0 .912.395 1.519h-7.664v2.642h18.406V4.647H48.62q.395-.607.395-1.519 0-2.4-1.964-3.128zM42.214 14.172c1.074 0 2.419.552 3.07 1.202.568.57.643 1.324.664 2.025h-7.435c.02-.701.095-1.456.664-2.025.65-.65 1.963-1.202 3.037-1.202zm0-.601c-1.274 0-2.645.588-3.448 1.392-.824.824-.918 1.909-.918 2.72V18h8.732v-.316c0-.812-.061-1.897-.885-2.721-.804-.804-2.206-1.392-3.48-1.392zM55.621 10.28l-.063 7.024-3.702.063-.031-7.055 3.796-.032zm.633-.6l-5.03.03.031 8.29 4.904-.095.095-8.226z"/><path d="M58.254.375h0M58.254 17.625h0M65.942.375v17.25M58.254.375c9.625 0 9.625 17.25 0 17.25" fill="none" stroke="#000"/><path d="M74.386.911v2.43q-.537-.8-3.22-.8h-1.984V.911zm.03-.911q-1.093.202-3.25.202h-2.662V3.25h2.663q1.407 0 2.014.293.618.294 1.205.84L74.416 18h1.175V0zM80.415 0c-.12 0-.238.005-.357.016l-.056-.001c-1.34 0-2.495 1.293-2.397 2.622-.072 1.044.145 2.077.203 3.116.091.175.258.25.434.25.235 0 .487-.131.607-.327.315-.44.176-1.01.047-1.491-.141-.857-.193-1.812.278-2.581.304-.407.803-.61 1.302-.61.543 0 1.085.241 1.372.722.46.674.336 1.655-.254 2.212-.568.673-1.422 1.117-1.787 1.951-.232.841-.037 1.718-.115 2.574-.075 3.123-.114 6.246-.173 9.37.16.135.35.16.547.16.115 0 .232-.009.347-.009.094 0 .186.006.274.026.425-.218.391-.764.36-1.168-.15-3.276-.041-6.556-.123-9.833.009-.374-.112-.803.282-1.016.786-.763 1.623-1.523 2.106-2.525.492-1.455-.609-3.197-2.132-3.382A3.782 3.782 0 0080.415 0zM92.136 5.45q.228 0 .472.104.546.232.546 3.678v3.298h-6.188q2.39-3.28 3.28-4.956.889-1.677 1.352-1.964.256-.16.538-.16zm-.262-.703l-.1.001q-.88.019-1.982 2.15-1.103 2.13-4.364 6.355h8.449l-.019-4.743q-.092-3.169-.648-3.474-.524-.289-1.336-.289zM100.128 0q-.155 0-.404.083-.667.51-1.629 1.57-.785.589-1.04 1.217-.06.177-.354.775-.294.6-.824 2.483.022.571.179.571.124 0 .331-.355.157-.49.452-1.344.294-.854.942-1.423.373-.295.628-.393.589 0 .589.785v9.697q.04.55-.295.883-.647.471-.883 1.295-.137.746.118 2.042.157.114.397.114.09 0 .192-.016-.177-.707-.177-1.237-.098-1.08.589-1.57.177-.137.451-.137.315 0 .472.098.667.51.569 1.61 0 .53-.177 1.216.124.026.231.026.214 0 .358-.104.255-1.296.137-2.022-.216-.844-.844-1.315-.392-.334-.353-.883V3.969q-.02-1.55-1.119-1.61.295-.49 1.119-1.314.373-.197.589-.687.08-.358-.244-.358z"/><path d="M103.016.375h0M103.016 17.625h0M110.704.375v17.25M103.016.375c9.625 0 9.625 17.25 0 17.25" fill="none" stroke="#000"/></svg>