<svg xmlns="http://www.w3.org/2000/svg" width="56.74" height="18"><path d="M18.969 2.681c.227 0 .384.109.47.325v.016a.733.733 0 00-.284-.072c-.17 0-.27.11-.3.332-.031.363-.127.545-.288.545h-.02c-.174-.017-.293-.096-.358-.236 0-.098.13-.271.39-.52.119-.26.249-.39.39-.39zm.389.498c.065 0 .098.04.098.12-.04.36-.18.542-.422.542a.56.56 0 01-.082-.007v-.032l.13-.26c.01-.24.076-.36.196-.36l.032.003a.224.224 0 01.048-.006zm-2.297.284c-.234 0-.41.04-.568.12-.172.087-.214.36-.138.64h.097a.787.787 0 01.154-.462c.092-.114.333-.179.963-.251a3.246 3.246 0 00-.508-.047zm-.074.249h-.064c-.217.006-.314.16-.292.463v.146l.03.003c.057 0 .09-.028.1-.084.303-.076.641-.232.793-.405-.117-.098-.361-.123-.567-.123zm-.495.722c-.098.13-.148.258-.073.447.07.175.463.403 1.177.403.06 0 .123-.001.187-.005l.426-.08c-1.411-.048-1.725-.243-1.628-.644l-.09-.12zm1.714-1.314c-.228.162-.314.368-.26.617.032.119.135.21.308.276.152.076.217.265.195.568.022.66-.26 1.175-.844 1.543a.572.572 0 00-.528-.366 1.031 1.031 0 00-.066-.002c-.22 0-.382.077-.486.23-.086.126-.183.19-.29.19a.319.319 0 01-.108-.02.373.373 0 01-.086.011c-.171 0-.262-.15-.271-.45.184-.01.311-.048.382-.113.07-.065.296-.156.493-.218a.424.424 0 00-.303-.12.446.446 0 00-.182.038c-.13.06-.27.1-.422.121-.293-.054-.412-.205-.358-.454-.173-.195-.227-.357-.162-.487.39-.26.714-.504.974-.731.26-.227.55-.363.869-.406.32-.043.7-.119 1.145-.227zm1.59-.26c2.12.32 2.806 3.144 2.355 4.189-1.147.704-1.98 1.77-2.5 3.199-1.7.126-3.126.172-4.323.172-3.283 0-4.849-.347-5.63-.347-.31 0-.496.055-.617.207.02-.328.388-.707.784-.707.034 0 .07.003.104.01.548.12 1.63.19 2.73.19.823 0 1.656-.04 2.284-.128 1.466-.205 2.421-.523 2.865-.631.325-.477.455-1.029.39-1.656-.303-.304-.363-.645-.179-1.023.504-.174.902-.994.94-1.372.044-.443-.106-.625.197-.755.704-.12.904-.569.6-1.348zm-.849-.61c-.788 0-1.128.288-1.034.529-.314.13-.636.214-.966.251-.33.038-.617.166-.86.382a5.008 5.008 0 01-.812.585c-.298.173-.474.319-.528.438-.097.184-.016.4.244.65 0 .194.086.357.26.486.043 0 .086.152.13.455.043.303.21.53.503.682.346-.054.579-.157.698-.308a.453.453 0 01.446-.187c.179.027.312.176.398.446-.076.271-.005.558.211.86.022.228-.081.537-.308.926-1.877.61-2.403.785-5.253.785-.29 0-.604-.002-.945-.005-.444-.14-.823-.2-1.146-.2-1.369 0-1.73 1.06-1.765 1.499.049.233.324.306.66.306.356 0 .781-.083 1.077-.144 1.142.114 2.962.143 4.871.143 1.929 0 3.95-.03 5.456-.03 0-.995.822-2.18 2.468-3.555.265-1.93-.227-4.904-3.718-4.993l-.087-.001zM15.516 12.879c.805 0 1.813.414 2.301.902.427.426.483.992.499 1.518h-5.577c.016-.526.072-1.092.499-1.518.488-.488 1.472-.902 2.278-.902zm0-.451c-.956 0-1.984.441-2.587 1.044-.618.618-.688 1.432-.688 2.04v.238h6.55v-.237c0-.61-.047-1.423-.665-2.04-.603-.604-1.655-1.045-2.61-1.045zM30.506 3.204a.301.301 0 00-.08.01c-.056.015-.091.035-.107.061-.015.026-.013.059.008.1a.447.447 0 01.196-.055c.023 0 .044.003.065.009.072.02.138.046.2.077.061.03.158.05.291.06l.016-.076a.568.568 0 01-.238-.077.785.785 0 00-.223-.092.531.531 0 00-.128-.017zm-.072.232c-.02.041-.015.077.016.108a.19.19 0 01-.108-.031.232.232 0 01.092-.077zm.139 0l.138.062a.876.876 0 01-.154.046c.041-.031.046-.067.016-.108zm-.07-.062c-.061 0-.115.02-.16.062l-.108.092.03.046.062-.03a.372.372 0 00.198.058c.078 0 .16-.025.247-.074l.261.046.092.016v-.092h-.184l-.184-.031a.486.486 0 00-.255-.093zm.695-.876c.061 0 .127.006.196.017.394.061.691.215.891.46.2.246.274.855.223 1.828h-.538c-.42-.42-.507-.752-.26-.998.214-.184.306-.35.276-.5-.031-.148-.108-.23-.23-.245a.394.394 0 00-.05-.003c-.1 0-.18.042-.243.126-.031.043-.058.064-.08.064-.027 0-.046-.034-.058-.103-.02-.122-.261-.22-.722-.291.11-.237.308-.355.595-.355zm-.794.554c.45.041.716.151.798.33.042.091.091.137.149.137.055 0 .119-.043.19-.129.045-.098.089-.147.13-.147.024 0 .047.016.069.047.061.087-.016.228-.23.423-.297.317-.2.732.291 1.244a.452.452 0 01-.287.127c-.098 0-.191-.048-.281-.143-.041-.256-.138-.41-.292-.46a1.04 1.04 0 00-.33-.052c-.06 0-.121.005-.184.013a1.077 1.077 0 01-.14.012c-.09 0-.128-.022-.114-.066.02-.061.016-.112-.015-.153-.027-.037 0-.055.082-.055a.703.703 0 01.054.002c.093 0 .135-.034.125-.1h-.169a.275.275 0 00-.138-.093c.051-.072.01-.133-.123-.184l.338-.415-.046-.123.123-.215zm1.582 2.104c.235.093.353.282.353.569a.92.92 0 01-.709.312c-.037 0-.074-.002-.113-.005-.333-.03-.55-.118-.653-.261l.215-.615c.128.133.268.2.419.2.151 0 .313-.067.488-.2zm-4.67-1.49l-1.32 3.702-.676-.4 1.997-3.301zm1.462 3.049c.039 0 .084.002.136.008.194.02.343.074.445.161.103.087.19.156.261.208h.584l-.015.291-1.244-.046c-.154-.071-.205-.2-.154-.384-.133-.061-.195-.12-.184-.176.007-.042.064-.062.17-.062zm1.395.914l-.015.215a3.508 3.508 0 01-.125.002c-.215 0-.355-.023-.42-.071a1.064 1.064 0 00-.315-.146zm-1.198.17c.256.07.42.135.492.191.071.056.292.095.66.115l.016.307-1.06.077c-.133-.082-.17-.215-.108-.4-.153-.06-.228-.122-.222-.183.005-.062.079-.098.222-.108zm3.87.905v1.782l-.399 1.536c.482.45.676 1.006.584 1.666-.092.66-.138 1.175-.138 1.544h-.784c-.01-.226.174-.384.553-.477.113-1.177-.076-1.991-.568-2.442-.133-.153-.21-.291-.23-.414-.02-.123.05-.481.215-1.075v-.016H27.93c0-.194.066-.302.2-.322h3.455c.574 0 .922-.487 1.045-1.46v-.322zm-.506-2.641v2.334c.04 1.188-.287 1.726-.983 1.747h-3.18c-.46.061-.64.388-.537.849a5.39 5.39 0 01-.161 1.582 41.358 41.358 0 01-.469 1.612v.522c.226.4.164.63-.184.692h-1.889v-.016c.553-.153.932-.338 1.137-.553.389-.235.583-.537.583-.906.02-.921.103-2.022.246-3.302-.051-.553.128-.87.537-.952.318-.133.735-.248 1.252-.346a19.263 19.263 0 011.774-.238c-.072-1.157.026-2.145.292-2.964.205.123.479.19.822.2h.053c.316 0 .552-.087.707-.261zM31.168 2.25c-.501 0-.848.308-1.04.925l-.016.17-.33.437c-.036.046.018.1.16.161l-.014.077.046.03c-.072.052-.062.093.03.123-.05.052-.05.103 0 .154-.061.092-.056.18.016.261l-.077.23h.415l-.016-.138c.133-.025.244-.038.333-.038.056 0 .104.005.143.015.103.026.17.11.2.254-.143.092-.284.34-.422.745a9.843 9.843 0 00-.33 1.205h-.554c-.276-.276-.593-.414-.952-.414l-1.044-2.888c-.054-.221-.133-.332-.235-.332-.129 0-.296.177-.502.532l-2.058 3.24c.327.308.747.558 1.259.753l1.336-3.855.937 2.596c-.143.276-.113.46.092.552-.02.308.098.471.353.492v.061a.798.798 0 00-.069-.003c-.19 0-.293.08-.307.241-.015.18.039.305.161.377-.01.245.087.414.292.507l1.168-.062v.108c-.471.05-.963.125-1.475.222a9.444 9.444 0 00-1.413.377c-.553.174-.834.599-.71 1.274-.124.901-.14 1.91-.18 3.026.01.379-.172.67-.428.875-.256.267-.65.487-1.182.66-.348.073-.492.304-.43.55h2.684c.287-.02.446-.17.476-.303.031-.133.062-.287-.01-.461a1.458 1.458 0 01-.107-.56c0-.2.117-.69.353-1.467a4.364 4.364 0 00.261-1.874h3.653c-.144.46-.195.757-.154.89.041.154.22.433.538.838.317.404.42.98.307 1.727-.42.144-.6.461-.538.953h.428l-.044.245h.674v-.26h.36v-.753c.245-1.505.112-2.432-.4-2.78l.369-1.428V8.33h-.544V6.016c.02-.48-.067-.798-.261-.952h.368c.113-1.239.033-2.007-.238-2.304-.271-.296-.683-.465-1.236-.506a1.296 1.296 0 00-.096-.004zM41.656 2.7c.805 0 1.814.415 2.302.903.426.426.482.992.498 1.518H38.88c.015-.526.071-1.092.498-1.518.488-.488 1.472-.902 2.278-.902zm0-.45c-.956 0-1.984.441-2.587 1.044-.618.618-.688 1.432-.688 2.04v.238h6.55v-.237c0-.61-.047-1.423-.665-2.04-.603-.604-1.655-1.045-2.61-1.045zM34.822 10.253v5.497h.919v-5.497zm6.318.007v5.49h.918v-5.49zm6.43 0v5.49h.92v-5.49z"/><path d="M8.22.375c-9.625 0-9.625 17.25 0 17.25M8.22.375h40.27M8.22 17.625h40.27M56.177.375v17.25M48.49.375c9.625 0 9.625 17.25 0 17.25" fill="none" stroke="#000"/></svg>