<svg xmlns="http://www.w3.org/2000/svg" width="73.657" height="18"><path d="M15.161 4.63c-.51.04-.793.295-.847.766.067.51.35.78.847.807.497-.027.76-.296.786-.807-.04-.47-.302-.726-.786-.766zm.06-1.694c.363 0 .7.067 1.009.201A2.659 2.659 0 0117.6 4.498c.135.303.202.622.202.959 0 .35-.067.675-.202.978a2.567 2.567 0 01-2.38 1.523c-.363 0-.702-.065-1.018-.192a2.426 2.426 0 01-.817-.535 2.621 2.621 0 01-.544-.796 2.38 2.38 0 01-.202-.978c0-.337.067-.656.202-.958.134-.303.316-.572.544-.807.229-.235.501-.42.817-.555a2.574 2.574 0 011.018-.201zm-.04-.686c-.444 0-.86.084-1.25.252-.39.168-.726.397-1.009.686a3.36 3.36 0 00-.675 1.008 3.053 3.053 0 00-.252 1.24c0 .444.084.857.252 1.24.168.384.393.717.675.999a3.2 3.2 0 002.26.928c.443 0 .856-.084 1.24-.253a3.36 3.36 0 001.008-.675c.289-.282.517-.615.685-.998.168-.384.252-.797.252-1.24 0-.444-.084-.858-.252-1.24a3.268 3.268 0 00-1.694-1.695 3.053 3.053 0 00-1.24-.252zM21.71 14.624zm-.003.152zm-11.813-.58v.896c-.133-.062-.264-.119-.388-.18a1.246 1.246 0 00-.357-.1c-.101-.015-.207-.026-.302-.045a.352.352 0 01-.15-.054c-.013-.01-.021-.023-.021-.07 0-.047.008-.06.02-.069a.352.352 0 01.151-.054c.095-.02.2-.03.302-.046.129-.02.253-.048.357-.1.124-.06.255-.118.388-.179zm0 .896zm.455.064zm8.261-1.027c.088 0 .177 0 .265.003.495.011 1.237.13 1.851.283.304.076.575.16.769.243l.082.037-.073.03a5.389 5.389 0 01-.768.203c-.617.125-1.362.215-1.86.227l-.266.003c-.896 0-1.79-.102-2.683-.206-.954-.11-1.907-.224-2.865-.224l-.146.001c-.838.01-1.8.104-2.567.427V14.13c.767.323 1.73.416 2.567.426l.146.001c.958 0 1.911-.112 2.865-.223.893-.104 1.787-.206 2.683-.206zm-8.436-.592l-.11.063c-.254.146-.521.249-.76.366a.8.8 0 01-.224.058c-.11.017-.222.028-.325.05a.79.79 0 00-.35.15.523.523 0 00-.185.42c0 .182.069.322.185.419a.79.79 0 00.35.15c.103.021.216.033.325.05a.8.8 0 01.225.058c.238.117.505.22.76.366l.109.063.111-.06c.738-.396 1.767-.495 2.637-.505l.141-.001c.94 0 1.876.112 2.812.22.911.107 1.823.21 2.737.21.091 0 .183-.001.274-.003a12.347 12.347 0 001.941-.237c.327-.066.622-.142.837-.223.12-.045.22-.093.292-.143a.51.51 0 00.117-.109.325.325 0 00.07-.197.33.33 0 00-.067-.194.535.535 0 00-.113-.111 1.434 1.434 0 00-.289-.158 5.812 5.812 0 00-.837-.265c-.647-.162-1.422-.285-1.951-.298a11.625 11.625 0 00-.274-.003c-.914 0-1.826.103-2.737.21-.936.108-1.872.22-2.812.22l-.141-.001c-.87-.01-1.899-.109-2.637-.505l-.11-.06zM25.512 2.25q-.248 0-.27.218l.24-.053q.15 0 .082.158-.172.165-.052.488-.22.475-.847.475l-.077-.002q.03.353-.15.533-.63.36-.63.66.495.234.165.571-.33.338-.33.458.217.068.3.233.375.916.758 1.3l-.03.307q.368 0 .405-.39-.69-.841-.668-1.795.03-.954 1.209-1.877.338-.188.338-.728 0-.556-.443-.556zm4.505 0q-.443 0-.443.556 0 .54.323.728 1.194.923 1.224 1.877.022.954-.684 1.795.053.39.406.39l-.023-.308q.376-.383.759-1.299.09-.165.292-.233 0-.12-.322-.458-.323-.337.165-.57 0-.3-.623-.661-.18-.18-.166-.533l-.074.002q-.615 0-.834-.475.112-.323-.053-.488-.067-.158.083-.158l.24.053q-.022-.218-.27-.218zM27.76 6.365q.882 0 1.768.675.69.586.082 1.344h-3.709q-.608-.758.098-1.344.878-.675 1.76-.675zM25.106 8.64q-1.043 1.216-1.043 1.854.082.368.323.368.315 0 .405-.285 0-.946.405-1.585l-.09-.352zm5.316 0l-.09.352q.406.639.406 1.585.082.285.405.285.233 0 .323-.368 0-.638-1.044-1.854zm-3.288.135q.488 0 .488.518v3.912q-1.532 0-1.735-.984-.202-.984-.022-3.446zm2.507 0q.203 2.462-.007 3.446-.21.984-1.742.984V9.293q0-.518.488-.518zm-1.99-4.182v.27q0 .188-.15.188-.232 0-.555-.27h-.165l.518.975-.165.053q-.27-.353-.541-.728-.042-.02-.074-.02-.082 0-.099.125l.406.706q-.286.232-.286.405-.45 0-.675.353-.654.458-.654 1.014 0 .42.27.96-.187 1.044-.187 2.629 0 1.043.36 1.674.368.63 2.103.63 1.734 0 2.095-.63.368-.63.368-1.674.015-1.585-.173-2.613.27-.556.27-.976 0-.556-.66-1.014-.233-.353-.669-.353 0-.173-.308-.405l.406-.706q0-.124-.078-.124-.03 0-.072.019-.27.375-.541.728l-.165-.053.503-.976h-.15q-.338.27-.578.27-.128 0-.128-.187v-.27zm-2.966 6.621l-.03.001q-.878 1.554-.878 2.448 0 .893.308 1.434.316.54.856.653-.728-.976-.728-1.562 0-.578.135-.946.12 1.029.54 1.45-.187-.827-.172-1.743.007-.923.308-1.374.014-.36-.34-.36zm6.159 0q-.354 0-.34.361.286.45.301 1.374.015.916-.165 1.742.42-.42.54-1.449.136.368.136.946 0 .586-.729 1.562.541-.113.841-.653.308-.54.308-1.434 0-.894-.863-2.448h-.03zM34.122 3.897q-.09 0-.216.11-.496.668-.535 1.909.153.973.687 2.748-.19 1.431-.286 3.931-.076.84.458 1.088 1.584.42 4.008.42 2.443 0 4.008-.42.553-.248.477-1.088-.095-2.5-.286-3.931.534-1.775.687-2.748-.038-1.241-.534-1.909-.126-.11-.216-.11-.13 0-.185.225.133.381.248.744.153.458.114.859-.038.649-.124 1.059-.086.41-.353.41l-.028.001q-.449 0-.449-1.203 0-.44.115-1.069-.099-.167-.212-.167-.107 0-.227.148-.058.458-.077 1.012-.076.84.401 2.366-.172 2.157-.172 4.313-1.297.21-3.187.267-1.87-.057-3.168-.267 0-2.156-.172-4.313.477-1.527.401-2.366-.02-.554-.076-1.012-.12-.148-.227-.148-.114 0-.212.167.114.63.114 1.069 0 1.203-.449 1.203h-.028q-.267 0-.353-.411-.086-.41-.124-1.06-.038-.4.114-.858.115-.363.249-.744-.057-.225-.185-.225zM47.79 8.203c-.51.04-.793.296-.847.767.067.51.35.78.847.806.498-.026.76-.295.787-.806-.04-.47-.303-.726-.787-.767zm.06-1.694c.364 0 .7.068 1.009.202a2.659 2.659 0 011.371 1.361c.135.303.202.622.202.958 0 .35-.067.676-.202.978a2.567 2.567 0 01-2.38 1.523c-.362 0-.702-.064-1.018-.192a2.426 2.426 0 01-.817-.534 2.621 2.621 0 01-.544-.797 2.38 2.38 0 01-.202-.978c0-.336.067-.655.202-.958.134-.302.316-.571.544-.806.229-.236.501-.42.817-.555a2.574 2.574 0 011.019-.202zm-.04-.685c-.443 0-.86.084-1.25.252-.39.168-.726.396-1.008.685a3.36 3.36 0 00-.676 1.009 3.053 3.053 0 00-.252 1.24c0 .444.084.857.252 1.24.168.384.393.716.676.999a3.2 3.2 0 002.258.927c.444 0 .857-.084 1.24-.252a3.36 3.36 0 001.009-.675c.289-.283.517-.615.686-.999.168-.383.252-.796.252-1.24 0-.444-.084-.857-.252-1.24a3.268 3.268 0 00-1.694-1.694 3.053 3.053 0 00-1.24-.252zM53.983 3.218l3.638.203c.064.704.032 1.49-.096 2.36-1.358-.75-2.538-1.605-3.542-2.563zm3.947-.968c-.202 0-.41.131-.626.393l-3.932-.203c-.929.24-1.119.613-.569 1.117.107-.023.202-.035.286-.035.204 0 .336.07.397.211.086.198.317.457.694.776.376.32 1.396.978 3.06 1.977.197.493.414.74.652.74.111 0 .227-.054.347-.162 2.366 1.02 4.652 1.733 6.857 2.14l.31-.245-.759-.807c-1.619-.14-3.727-.77-6.323-1.888a6.717 6.717 0 01-.045-2.752l4.402.294c.654-.163.702-.502.146-1.015l-4.334-.181c-.181-.24-.369-.36-.563-.36zM54.08 13.878l-1.583 1.872h.772l.811-.967.82.967.795-.967.819.967.811-.967.82.967.81-.967.82.967.795-.967.82.967.819-.967.795.967.82-.967.81.967h.773l-1.584-1.872-.819.905-.795-.905-.82.905-.819-.905-.795.905-.82-.905-.81.905-.82-.905-.811.905-.819-.905-.796.905-.819-.905z"/><path d="M8.22.375c-9.625 0-9.625 17.25 0 17.25M8.22.375h57.187M8.22 17.625h57.187M73.094.375v17.25M65.407.375c9.625 0 9.625 17.25 0 17.25" fill="none" stroke="#000"/></svg>