<svg xmlns="http://www.w3.org/2000/svg" width="88.368" height="18"><path d="M6.174.386c.221 0 .566.052.757.104.832.223-.005.968-.54.968a.513.513 0 01-.073-.005c-.353.074.06.199.502.199.272 0 .555-.047.681-.18.072-.077.131-.108.182-.108.185 0 .258.417.406.623.74.245 1.203.913 1.682 1.486 1.377 1.65 2.617 3.405 3.917 5.115-.357-.105-.743-.31-1.097-.48-1.62-.783-3.347-1.401-4.814-2.455-.732-.525-1.712-1.134-1.793-2.056-.061-.702 1.227-1.337 1.134-1.717-.011-.044-.043-.064-.09-.064-.274 0-1.077.688-1.288 1.09-.081.155-.14.217-.182.217-.146 0-.077-.757.014-.93.31-.589-.628-1.325-.1-1.664-.016.088.002.337.312.337.325 0 .305-.4.205-.453a.435.435 0 01.185-.027zm.616 5.477c.254.9.626 1.766 1.065 2.59.217.405 1.13 1.049.485 1.377a.194.194 0 01-.052.007c-.257 0-.519-.495-.855-.517a12.843 12.843 0 00-.265-1.873c-.103-.505-.36-1.176-.378-1.584zm.705.597c.795.576 1.63 1.093 2.472 1.6.222.497.034 1.222.149 1.805-.538-.363-1.112-.378-1.457-1.066-.385-.766-1.019-1.494-1.164-2.34zm.226 3.6c.134.235.335.383.538.383.16 0 .32-.091.45-.304.186.205.23.926.23 1.325.002.411-.214.446-.465.446l-.155-.002a.93.93 0 00-.278.032.453.453 0 01-.138.02c-.197 0-.423-.095-.636-.095-.02 0-.04 0-.06.002.001-.52.36-1.225.514-1.808zm1.603-2.968c1.69.766 3.36 1.59 5.054 2.351.648.679 1.239 1.448 1.96 2.049.538.45-.155.358-.474.418-.244.046-.492.08-.738.116-.87-.87-1.745-1.738-2.58-2.641-.909-.982-2.145-1.538-3.222-2.293zm-.512 5.693c1.105 0 2.211.013 3.316.042.556.014 1.197-.023 1.695.164-.658.042-2.304.058-4.042.058a201.337 201.337 0 01-5.037-.05c-.51 0-.097-.173.188-.173a.55.55 0 01.076.005c1.267-.03 2.535-.046 3.804-.046zm-4.862.743c.75.01 1.5.02 2.25.045.495.017.989.023 1.483.023 1.398 0 2.796-.05 4.192-.05.188 0 .375.001.562.003-1.161.634-2.421 1.17-3.766 1.214-.152.005-.3.008-.445.008-.76 0-1.443-.08-2.196-.351-.656-.236-1.506-.523-2.08-.892zm6.649 1.558a.144.144 0 00-.078.02c-.256.16.368 1.331.895 1.613.04.021.078.03.115.03.192 0 .33-.259.247-.445-.214-.48-.87-1.218-1.18-1.218zm-4.848.055c-.042 0-.105.026-.194.086-.432.29-1.443 1.067-.823 1.496.043.03.086.042.129.042.224 0 .442-.354.556-.556.12-.21.574-1.068.332-1.068zm4.06.177c-.274 0 .026 1.476.502 1.79.031.022.07.031.109.031.106 0 .222-.069.242-.173.123-.637-.473-1.61-.846-1.647a.08.08 0 00-.008 0zm-3.278.017c-.05 0-.13.062-.244.216-.302.408-1.043 1.256-.436 1.571.04.021.078.03.114.03.254 0 .4-.478.49-.72.081-.222.268-1.097.076-1.097zm2.271.162c-.023 0-.043.012-.06.037-.245.368-.164 1.491.42 1.817a.196.196 0 00.097.026c.172 0 .306-.25.276-.423-.07-.41-.517-1.457-.733-1.457zm-1.329-.011a.1.1 0 00-.058.023c-.391.291-1.017 1.466-.379 1.845.035.02.068.03.101.03.191 0 .35-.31.375-.504.04-.334.162-1.394-.039-1.394zm.655-.018a.08.08 0 00-.038.01c-.324.174-.62 1.573-.014 1.945.031.019.062.028.092.028.164 0 .306-.252.306-.421-.002-.46-.123-1.562-.346-1.562zM6.352 0c-.205 0-.408.02-.598.054-.567.104-1.44.31-1.43.996a.711.711 0 01.192-.028c.55 0 .663.789.553 1.27-.225.98.26 1.965.898 2.707.425 1.269.96 2.595.954 3.928-.003.556.408.592.256 1.158-.136.51-.373 1.566-.883 1.69-.06.005-.12.007-.182.007-.323 0-.663-.056-.984-.056-.254 0-.497.036-.71.162-.444.264-.778.46-1.31.46l-.071-.001-.078-.002c-.895 0-1.953.472-2.118 1.411-.244 1.391-.044 2.827-.036 4.233.205.005.412.011.618.011.163 0 .325-.004.487-.016-.076-.844-.133-1.694-.079-2.539.039-.601-.113-1.44.465-1.781a.738.738 0 01.383-.107c.506 0 1.005.499 1.472.712 1.306.596 2.697 1.036 4.147 1.036h.1c1.756-.025 3.375-.751 4.878-1.576a.616.616 0 01.41-.148c.28 0 .562.17.622.463.262 1.292.154 2.632.067 3.94.157.012.315.015.473.015.156 0 .313-.003.47-.003.052 0 .105 0 .158.002.008-.911.089-1.823.047-2.733-.033-.721.107-1.55-.417-2.143-.68-.771-1.763-.76-2.704-.825a1.712 1.712 0 00-.117-.004c-.125 0-.257.01-.386.01a.973.973 0 01-.439-.08c-.294-.302-.66-.36-1.04-.36-.228 0-.462.021-.689.021a2.75 2.75 0 01-.22-.008c-.043-.588-.075-1.177-.107-1.766a.155.155 0 01.111-.045c.294 0 .78.686 1.034.686.076 0 .13-.06.154-.217.094-.642-.155-1.343-.146-2.018h.016c.285 0 .766.368 1.053.617.898.779 1.67 1.717 2.513 2.566.334.38.681.803 1.163.803.13 0 .269-.031.42-.101.48-.223 1.5.065 1.609-.544-.462-.54-.994-1.018-1.47-1.547.58.274 1.144.678 1.747.941a.77.77 0 00.24.078c.18 0-.489-.521-.668-.602-.665-.3.624-.188.098-.605-1.155-.915-2.466-1.648-3.699-2.473-.79-.998-1.506-2.067-2.3-3.068-.66-.774-1.221-1.636-1.941-2.356C8.895 1.783 8.245 1.66 8.2.937 7.858.252 7.09 0 6.352 0zM25.283 0c-.12 0-.128.377-.3.935-.194.635-.337 1.962-.788 2.22a.397.397 0 01-.204.052c-.133 0-.269-.05-.417-.05a.545.545 0 00-.169.025c-.21.068-.322.397-.544.436-.922.16-2.183.1-2.888.163-.452.04.756.93 1.965.93h.05c.252-.005.517-.017.78-.017.44 0 .877.032 1.237.18.352.146.767.567.762.981L24.621 18h1.358L25.91 4.281c-.002-.368 1.06-.618 1.2-.936.242-.553.118-2.995-.272-3.323a.021.021 0 00-.014-.006c-.176 0-.505 2.56-1.022 3.111-.052.056-.156.082-.246.082-.097 0-.178-.03-.162-.082.328-1.118.46-2.749-.055-3.105A.102.102 0 0025.283 0zM31.556 0q-2.323 0-2.323 2.232V18h1.071V2.232q0-1.16 1.252-1.16 1.261 0 1.261 1.16v10.492h1.071V2.232Q33.888 0 31.556 0zM36.563.699c.45.173.678.6.687 1.283a2.168 2.168 0 01-.635 1.505c-.182-.415-.273-.917-.273-1.505 0-.683.074-1.11.22-1.283zM38.21.533a7.5 7.5 0 011.212.127c1.163.199 2.462.57 3.897 1.115.175.095.348.142.519.142.233 0 .462-.088.687-.265.389-.307.873-.534 1.452-.681h.014c.207 0 .853.527 1.937 1.582 1.111 1.08 1.706 1.716 1.783 1.906h-1.27c-.433-.89-.882-1.603-1.349-2.14-.46-.527-.827-.79-1.102-.79h-.013c-.58.112-1.254.462-2.023 1.05-.666.58-1.266.899-1.802.96-1.574.12-2.754.181-3.54.181-.787 0-1.18-.121-1.18-.363.06-.484.242-.843.544-1.076.173-.2.173-.38 0-.545-.302-.207-.48-.532-.532-.972.09-.154.345-.231.766-.231zM36.83 0c-.238 0-.4.064-.488.193-.302.501-.454 1.098-.454 1.79 0 .587.152 1.253.454 1.996.094.154.27.231.528.231.147 0 .321-.025.523-.075.64.01 1.224.016 1.753.016.793 0 1.462-.012 2.007-.035.908-.04 1.595-.197 2.062-.474.467-.276.89-.575 1.27-.895.381-.32.878-.574 1.492-.765a.198.198 0 01.077-.014c.17 0 .425.177.766.533.397.415.834 1.171 1.31 2.27h.635v.622H50.8v-.026c-.234-.476-.67-1.046-1.31-1.712a112.539 112.539 0 00-2.431-2.399c-.506-.475-.863-.713-1.072-.713h-.011c-.674.104-1.379.424-2.114.96-.7-.303-1.27-.528-1.711-.675A17.587 17.587 0 0037.419.09C37.188.03 36.99 0 36.829 0zM43.17 7.711q.903 0 1.647.45 1.515.88 2.87.88 1.365 0 2.503-.118v2.343q-1.414-.251-2.042-.251h-.017q-.51 0-1.422.117-3.708.51-4.62.51-1.514 0-2.853-.05-2.293-.133-2.52-.242-.217-.1-.217-.578 0-.468.126-.82.125-.351.418-.502 7.163-.318 7.724-.368-.499-.72-1.547-.72-.34 0-.737.076-1.335.262-2.058.262-.152 0-.277-.011-.711-.067-.661-.678.4.054.825.054.894 0 1.903-.238.498-.116.955-.116zm.213-.679q-.363 0-.716.092-1.431.376-2.52.393-.267 0-.962-.134-.326.301-.326.711t.26.695q-2.737.1-2.737.326-.494.628-.494 1.507 0 .87.46 1.188 1.39.444 5.582.444.67 0 1.364-.067 3.883-.578 4.628-.595h.073q.765 0 2.806.318V8.212l-.017.016q-1.75.201-2.854.226-.056.002-.113.002-1.051 0-2.163-.587-1.176-.837-2.271-.837zM43.345 14.704q2.626 0 5.57 1.269-2.944 1.234-5.57 1.234-2.61 0-5.57-1.234 2.96-1.27 5.57-1.27zm0-.811q-3.244 0-7.457 2.062Q40.101 18 43.345 18q3.243 0 7.456-2.045-4.196-2.062-7.456-2.062zM69.981 1.225c.942.04 1.458.06 1.68.06h.102l-.122 4.921c-.81-.334-1.306-.668-1.873-1.114l.213-3.867zM56.253 0c-.314.06-.73.253-.679.628V3.37a52.47 52.47 0 00-1.417-.06c0 .344.283.81 1.164.81.01.78.152 1.73.294 2.217l.121 1.275c0 .142.243.183.507.183.313 0 .658-.061.658-.061l-.051-1.276c5.001.04 14.538.294 15.014.294.243 0 .405-.263.405-.628l.122-5.497-3.007-.03-.243 4.282c-2.177.01-5.943.364-8.505.364-.81 0-1.508-.03-1.984-.131-.101-.112-1.043-1.478-1.64-1.63-.04-.01-.182-.03-.354-.04-.102-.831-.203-1.661-.294-2.481.182-.233.597-.172.709-.486.111-.152.04-.405-.172-.415C56.779.01 56.445 0 56.303 0zM61.94 15.155v1.142h-.335v-1.142zm1.995 0v1.142h-.336v-1.142zm1.008 0v1.142h-.359v-1.142zm-2.016.022v1.143h-.337v-1.143zm-2.084.47q-2.15 1.502-3.719 1.502-1.545 0-2.71-1.501zm11.179 0q-1.156 1.513-2.82 1.513h-.025q-1.68-.011-3.45-1.512zM52.8 14.842Q54.414 18 57.214 18q2.06 0 3.741-1.3h4.548q1.456 1.3 3.763 1.3 2.756 0 4.48-3.159zM75.747 0v5.077h.848V0zm5.834.007v5.07h.848V.007zm5.939 0v5.07h.848V.007zM75.747 6.462v5.076h.848V6.462zm5.834.007v5.07h.848v-5.07zm5.939 0v5.07h.848v-5.07zM75.747 12.923V18h.848v-5.077zm5.834.007V18h.848v-5.07zm5.939 0V18h.848v-5.07z"/></svg>