<svg xmlns="http://www.w3.org/2000/svg" width="56.232" height="18"><path d="M11.724 2.584q.07 0 .151.028.212.075.157.273-.054.199-.246.24-.038.008-.077.008-.158 0-.333-.131 0-.22.144-.342.089-.076.204-.076zm2.658 2.44q1.066.054 2.904 1.134 1.838 1.08 2.658 1.708-.957-.342-1.708-.342-2.269 0-3.225-.56t-.956-.813q0-.253.109-.253.929 0 1.011-.437l-.219-.068q-.185.212-.66.212h-.043q-.485 0-.485.512 0 .52 1.045 1.093 1.045.574 2.562.574.902 0 1.441.26.54.26.759.464l-.738.137q-.164-.342-1.735-.342-.93 0-1.367-.52h-.232q.656.547.642 1.012-.007.236-.038.236t-.085-.222q-.11-.451-1.27-.697-.032.355-.089.355-.067 0-.171-.505-.137-.342-1.216-1.018-1.08-.677-1.107-.875-.027-.198.697-.622.724-.423 1.516-.423zm.588 3.334q.56.15.752.574.382 1.01.389 1.824.007.813-.608.867-1.025 0-1.011.37H13.33q1.49-2.747 1.64-3.635zm1.544 4.236v1.284l-1.79-1.284zM11.95 2.25q-.423 0-.806.26-.3.341-.478.437-1.285.82-1.572 1.667 0 .256.122.256.046 0 .11-.038.575-1.024 1.586-1.339.3.092.525.092.112 0 .206-.023.175-.043.305-.043.077 0 .139.015.164.041-.048.506-.212.465-.39 1.127-.177.663.137 1.032.56.52 2.214 1.599.273.273.246.478-.014 1.025-.574 2.234-.52 1.12-1.132 1.12-.049 0-.098-.007-.874 0-.984.37H8.22v.6h5.753l2.541 1.873v1.284h.601v-3.184l3.143.014v-.588h-3.785q-.014-.314.096-.478.109-.164.04-.376-.068-.211-.102-.929-.034-.717-.102-1.646h1.516q.246 0 .916.41l1.325-.233q-.396-.56-1.325-.942.15.04 1.148.382.314 0 .232-.355-.137-.219-.52-.533-3.907-2.555-5.328-2.555-1.066 0-1.647.396-.113.077-.179.077-.274 0 .254-1.32.656-1.64-.847-1.64zM25.516 2.25l-.011.001a12.437 12.437 0 01-.9.03c-.065.004-.07.086-.049.132.135.38.252.767.361 1.155H24.904h-.002c-.108.002-.218 0-.325.01l-.005.009c-.006-.025-.023-.047-.048-.053a23.025 23.025 0 01-1.023-.74c-.008-.002-.017-.005-.025-.005h-.006c-.033.022-.046.068-.064.102-.059.159-.108.32-.174.477-.046.118-.098.236-.133.357.015.034.045.044.077.044.031 0 .065-.01.091-.017.413-.089.839-.08 1.259-.086-.042.092-.06.195-.098.288-.017.054-.037.108-.049.163h-.01a.05.05 0 00-.013 0c-.513.2-1.014.443-1.452.779a5.43 5.43 0 00-.601.522c-.004.077.083.102.14.124l.355.146c-.06.082-.075.19-.113.283-.2.583-.479 1.133-.712 1.702 0 .047.044.07.087.07a.107.107 0 00.044-.01c.082-.015.165-.023.248-.025-.018.065-.024.133-.053.194-.14.445-.368.854-.541 1.286-.008.047.036.076.078.076a.08.08 0 00.036-.008c.21-.035.424-.065.638-.073-.024.059-.029.125-.047.187-.104.437-.255.868-.273 1.32-.004.295.032.589.079.879.08.477.224.942.41 1.388.002.04.04.066.076.066.023 0 .045-.01.058-.032.027-.06.036-.128.056-.19.107-.387.184-.782.218-1.182.033-.345.047-.692.044-1.038-.014-.406-.11-.802-.173-1.201-.01-.06-.018-.122-.034-.182a5.642 5.642 0 01.613.103c.065 0 .08-.087.05-.132-.174-.455-.351-.91-.497-1.375l.02.004c.177.032.354.073.533.084.056-.047.016-.123-.011-.173-.216-.467-.392-.958-.462-1.469-.023-.139-.022-.28-.046-.419.151.062.303.124.456.183.066-.016.07-.098.056-.152a1.688 1.688 0 01.214-.962c.143-.255.35-.464.56-.664.084.072.18.125.275.182l-.047.013c-.174.335-.32.683-.475 1.026-.02.048-.043.097-.05.148.026.042.07.05.115.05.028 0 .057-.003.083-.003h.004l.193-.005c-.021.067-.027.141-.049.208l-.37 1.539c.015.054.07.066.121.066a.52.52 0 00.044-.002l.318-.011c-.029.084-.042.174-.07.258-.138.504-.278 1.009-.413 1.513.015.057.07.068.124.068a543.176 543.176 0 01.555-.017.695.695 0 00-.02.083c-.106.463-.27.917-.294 1.395-.002.433.062.865.161 1.285.082.34.198.671.33.994.004.038.04.062.074.062a.06.06 0 00.052-.027c.028-.05.034-.111.053-.165.144-.497.226-1.01.252-1.526a7.68 7.68 0 00.015-.826c-.028-.395-.118-.781-.18-1.171-.008-.039-.014-.078-.024-.116.177-.006.355-.011.532-.019.063-.048.028-.134.01-.196-.15-.54-.3-1.082-.455-1.621.149-.006.297-.011.445-.018.062-.05.027-.134.009-.196l-.469-1.579.477-.013c.06-.04.031-.12.003-.172-.141-.32-.28-.642-.428-.961a6.29 6.29 0 00.314-.138c.283.266.53.585.644.96.066.223.07.46.047.69.013.035.044.049.077.049a.16.16 0 00.08-.024l.356-.146-.003.003c-.018.464-.11.926-.279 1.36-.078.212-.176.417-.261.626-.005.046.037.073.078.073a.082.082 0 00.041-.01c.157-.024.313-.055.469-.084-.031.086-.053.176-.088.262-.133.39-.283.773-.428 1.159-.011.045.03.085.073.085a.065.065 0 00.033-.009 4.66 4.66 0 01.574-.093.458.458 0 00-.01.053c-.063.359-.133.716-.178 1.077a3.95 3.95 0 00-.015.679c.02.571.078 1.145.232 1.698.025.094.05.19.08.282a.066.066 0 00.062.035c.03 0 .06-.017.067-.05.22-.525.38-1.078.453-1.644.04-.328.067-.664.004-.991-.064-.348-.167-.688-.25-1.031-.013-.04-.02-.083-.034-.123.1.002.198.009.296.022.138.014.274.043.41.055.06-.016.054-.093.025-.133-.192-.463-.442-.906-.565-1.394l-.006-.026c.023 0 .046 0 .07.002.087.006.174.024.261.031.061-.027.047-.108.018-.154-.255-.58-.532-1.152-.73-1.756-.017-.047-.03-.1-.058-.141l-.005-.003c.16-.067.32-.133.478-.202.037-.064-.026-.125-.073-.162-.406-.37-.853-.7-1.35-.939a5.208 5.208 0 00-.574-.24c-.014-.045-.034-.088-.045-.131-.05-.145-.093-.295-.158-.435a.202.202 0 00.042.004l.049-.001h.122c.368 0 .739.012 1.099.094.01.005.023.007.037.007.036 0 .074-.018.067-.058-.07-.22-.17-.429-.24-.648-.032-.09-.064-.18-.104-.266a.09.09 0 00-.048-.006c-.337.246-.669.503-1.019.734-.036.019-.084.056-.058.102a.68.68 0 00-.126-.01c-.043 0-.086.003-.128.003a.997.997 0 01-.055-.001h-.028a.062.062 0 00.003-.023c.136-.408.273-.82.506-1.184.029-.037.008-.102-.037-.11l-.01-.001zM31.373 9.339c.322.123.672.517.774.842.103.326.09.705.018 1.078-.072.368-.216.717-.391.946-.12.157-.229.247-.331.277h-.097c-.102-.024-.235-.114-.367-.277-.175-.229-.32-.578-.391-.946-.073-.373-.085-.752.018-1.078.102-.325.486-.747.767-.839V9.34zm-.34-7.089v.723h-.65v.463h.65l-.09 5.469a1.82 1.82 0 00-.891 1.09c-.139.451-.145.94-.055 1.39.09.453.271.85.518 1.17.187.24.434.439.723.5v.017c.018.006.036.006.054.006.024 0 .048-.006.072-.006.03.006.06.006.085.006.024 0 .042 0 .066-.006v-.018c.29-.06.536-.259.723-.5a2.8 2.8 0 00.518-1.168c.09-.452.084-.94-.055-1.391a1.787 1.787 0 00-.89-1.072l-.091-5.487h.614l.018-.463h-.686V2.25h-.633zM26.462 14.268c-.083 0-.165.01-.248.03-.167.041-.347.134-.542.278h-3.914v.866h3.914c.195.144.375.237.542.277a1.039 1.039 0 00.494 0c.163-.04.326-.133.489-.277h.15c.157.144.319.237.485.277a1.043 1.043 0 00.499 0c.166-.04.343-.133.531-.277h3.953v-.866h-3.953a1.475 1.475 0 00-.531-.277 1.043 1.043 0 00-.499 0c-.166.04-.328.133-.485.277h-.15a1.183 1.183 0 00-.49-.277 1.01 1.01 0 00-.245-.031zM41.116 2.94l.1.001h.05q1.868 0 3.562 1.606l-1.048.847q-.981-.936-2.565-.936-1.583 0-2.564.936l-1.048-.847q1.672-1.607 3.513-1.607zm.1 2.164q1.761.023 2.898 1.851h-5.82q.892-1.828 2.921-1.85zm0-2.854q-2.766.111-4.661 2.274l1.583 1.338q-.669.892-.825 1.673h7.782q-.156-.78-.825-1.65l1.472-1.338Q43.98 2.36 41.215 2.25zM34.315 10.253v5.497h.918v-5.497zm6.317.007v5.49h.919v-5.49zm6.432 0v5.49h.918v-5.49z"/><path d="M8.22.375c-9.625 0-9.625 17.25 0 17.25M8.22.375h39.762M8.22 17.625h39.762M55.67.375v17.25M47.982.375c9.625 0 9.625 17.25 0 17.25" fill="none" stroke="#000"/></svg>