<svg xmlns="http://www.w3.org/2000/svg" width="54.823" height="18"><path d="M5.454.386c.221 0 .566.052.757.104.832.223-.005.968-.54.968a.513.513 0 0 1-.073-.005c-.353.074.06.199.502.199.272 0 .555-.047.681-.18.072-.077.131-.108.182-.108.185 0 .258.417.406.623.74.245 1.203.913 1.682 1.486 1.377 1.65 2.617 3.405 3.917 5.115-.357-.105-.743-.31-1.097-.48-1.62-.783-3.347-1.401-4.814-2.455-.732-.525-1.712-1.134-1.793-2.056-.061-.702 1.227-1.337 1.134-1.717-.011-.044-.043-.064-.09-.064-.274 0-1.077.688-1.288 1.09-.081.155-.14.217-.182.217-.146 0-.077-.757.014-.93.31-.589-.628-1.325-.1-1.664-.016.088.002.337.312.337.325 0 .305-.4.205-.453a.435.435 0 0 1 .185-.027zm.616 5.477c.254.9.626 1.766 1.065 2.59.217.405 1.13 1.049.485 1.377a.194.194 0 0 1-.052.007c-.257 0-.519-.495-.855-.517a12.843 12.843 0 0 0-.265-1.873c-.103-.505-.36-1.176-.378-1.584zm.705.597c.795.576 1.63 1.093 2.472 1.6.222.497.034 1.222.149 1.805-.538-.363-1.112-.378-1.457-1.066-.385-.766-1.019-1.494-1.164-2.34zM7 10.06c.134.235.335.383.538.383.16 0 .32-.091.45-.304.186.205.23.926.23 1.325.002.411-.214.446-.465.446l-.155-.002a.93.93 0 0 0-.278.032.453.453 0 0 1-.138.02c-.197 0-.423-.095-.636-.095-.02 0-.04 0-.06.002.001-.52.36-1.225.514-1.808zm1.603-2.968c1.69.766 3.36 1.59 5.054 2.351.648.679 1.239 1.448 1.96 2.049.538.45-.155.358-.474.418-.244.046-.492.08-.738.116-.87-.87-1.745-1.738-2.58-2.641-.909-.982-2.145-1.538-3.222-2.293zm-.512 5.693c1.105 0 2.211.013 3.316.042.556.014 1.197-.023 1.695.164-.658.042-2.304.058-4.042.058a201.337 201.337 0 0 1-5.037-.05c-.51 0-.097-.173.188-.173a.55.55 0 0 1 .076.005c1.267-.03 2.535-.046 3.804-.046zm-4.862.743c.75.01 1.5.02 2.25.045.495.017.989.023 1.483.023 1.398 0 2.796-.05 4.192-.05.188 0 .375.001.562.003-1.161.634-2.421 1.17-3.766 1.214-.152.005-.3.008-.445.008-.76 0-1.443-.08-2.196-.351-.656-.236-1.506-.523-2.08-.892zm6.649 1.558a.144.144 0 0 0-.078.02c-.256.16.368 1.331.895 1.613.04.021.078.03.115.03.192 0 .33-.259.247-.445-.214-.48-.87-1.218-1.18-1.218zm-4.848.055c-.042 0-.105.026-.194.086-.432.29-1.443 1.067-.823 1.496a.22.22 0 0 0 .129.042c.224 0 .442-.354.556-.556.12-.21.574-1.068.332-1.068zm4.06.177c-.274 0 .026 1.476.502 1.79.031.022.07.031.109.031.106 0 .222-.069.242-.173.123-.637-.473-1.61-.846-1.647a.08.08 0 0 0-.008 0zm-3.278.017c-.05 0-.13.062-.244.216-.302.408-1.043 1.256-.436 1.571.04.021.078.03.114.03.254 0 .4-.478.49-.72.081-.222.268-1.097.076-1.097zm2.271.162c-.023 0-.043.012-.06.037-.245.368-.164 1.491.42 1.817a.196.196 0 0 0 .097.026c.172 0 .306-.25.276-.423-.07-.41-.517-1.457-.733-1.457zm-1.329-.011a.1.1 0 0 0-.058.023c-.391.291-1.017 1.466-.379 1.845.035.02.068.03.101.03.191 0 .35-.31.375-.504.04-.334.162-1.394-.039-1.394zm.655-.018a.08.08 0 0 0-.038.01c-.324.174-.62 1.573-.014 1.945a.175.175 0 0 0 .092.028c.164 0 .306-.252.306-.421-.002-.46-.123-1.562-.346-1.562zM5.632 0c-.205 0-.408.02-.598.054-.567.104-1.44.31-1.43.996a.711.711 0 0 1 .192-.028c.55 0 .663.789.553 1.27-.225.98.26 1.965.898 2.707.425 1.269.96 2.595.954 3.928-.003.556.408.592.256 1.158-.136.51-.373 1.566-.883 1.69a2.18 2.18 0 0 1-.182.007c-.323 0-.663-.056-.984-.056-.254 0-.497.036-.71.162-.444.264-.778.46-1.31.46l-.071-.001-.078-.002c-.895 0-1.953.472-2.118 1.411-.244 1.391-.044 2.827-.036 4.233.205.005.412.011.618.011.163 0 .325-.004.487-.016-.076-.844-.133-1.694-.079-2.539.039-.601-.113-1.44.465-1.781a.738.738 0 0 1 .383-.107c.506 0 1.005.499 1.472.712 1.306.596 2.697 1.036 4.147 1.036h.1c1.756-.025 3.375-.751 4.878-1.576a.616.616 0 0 1 .41-.148c.28 0 .562.17.622.463.262 1.292.154 2.632.067 3.94.157.012.315.015.473.015.156 0 .313-.003.47-.003.052 0 .105 0 .158.002.008-.911.089-1.823.047-2.733-.033-.721.107-1.55-.417-2.143-.68-.771-1.763-.76-2.704-.825a1.712 1.712 0 0 0-.117-.004c-.125 0-.257.01-.386.01a.973.973 0 0 1-.439-.08c-.294-.302-.66-.36-1.04-.36-.228 0-.462.021-.689.021a2.75 2.75 0 0 1-.22-.008c-.043-.588-.075-1.177-.107-1.766a.155.155 0 0 1 .111-.045c.294 0 .78.686 1.034.686.076 0 .13-.06.154-.217.094-.642-.155-1.343-.146-2.018h.016c.285 0 .766.368 1.053.617.898.779 1.67 1.717 2.513 2.566.334.38.681.803 1.163.803.13 0 .269-.031.42-.101.48-.223 1.5.065 1.609-.544-.462-.54-.994-1.018-1.47-1.547.58.274 1.144.678 1.747.941a.77.77 0 0 0 .24.078c.18 0-.489-.521-.668-.602-.665-.3.624-.188.098-.605-1.155-.915-2.466-1.648-3.699-2.473-.79-.998-1.506-2.067-2.3-3.068-.66-.774-1.221-1.636-1.941-2.356C8.175 1.783 7.525 1.66 7.48.937 7.138.252 6.37 0 5.632 0zM22.6 0v10.205h.853V.872h9.036v8.422L29 9.314l-.02-5.727h-.892v6.618h5.271V0zm5.38 14.1q3.108 0 6.591 1.501-3.483 1.46-6.59 1.46-3.087 0-6.591-1.46 3.504-1.501 6.59-1.501zm0-.96q-3.837 0-8.822 2.44Q24.143 18 27.98 18q3.838 0 8.823-2.42-4.964-2.44-8.823-2.44zM45.272 2.653q-.2.2 0 .37l-.57-.216.57-.154zm3.085-.015l.556.17-.556.215q.2-.17 0-.385zm-2.699-.016l.463.34-.494.092q.185-.17.031-.432zm2.314-.015q-.155.277.03.447l-.493-.093.463-.354zm.064-.127q-.161 0-.257.05-.332.17-.455.493.277.154.62.154.553 0 1.277-.4-.79-.297-1.185-.297zm-2.435.002q-.4 0-1.208.31.723.394 1.275.394.354 0 .638-.163-.124-.324-.455-.493-.094-.048-.25-.048zm-2.461-.736q-.091 0-.204.105-.317.293.516 1.681l.155-.108-.247-.601.015-.494-.2-.03q.061.076.07.339.007.262.269.74l-.046.046q-.108-.2-.34-.717-.23-.517-.084-.717.056-.077.113-.077.092 0 .187.2l.047-.03q-.09-.337-.251-.337zm7.348 0q-.165 0-.264.336l.046.031q.095-.2.19-.2.06 0 .118.077.155.2-.077.717-.231.517-.355.717l-.046-.046q.262-.478.27-.74.008-.263.07-.34l-.186.031.016.494-.247.601.139.108q.848-1.388.532-1.681-.113-.105-.206-.105zm-7.25-.213q.132 0 .176.187.085.362.061.601-.016.173.172.173.072 0 .176-.026-.402.447-.031.817.092.51-.17.525h-.009q-.26 0-.685-.88-.432-.894-.016-1.233.202-.164.326-.164zm7.154 0q.124 0 .325.164.417.339-.023 1.234-.432.88-.685.88l-.01-.001q-.254-.016-.161-.525.355-.37-.03-.817.098.026.168.026.182 0 .17-.173-.015-.239.07-.601.044-.187.176-.187zm-2.361.322q-.096 0-.183.02-.54.115-.725.5-.17.525-.162 1.165.008.64.355.756.347.115.24.239-.06.068-.143.068-.068 0-.15-.045-.072-.038-.135-.038-.101 0-.182.1-.066.08-.133.08-.068 0-.137-.08-.086-.1-.186-.1-.062 0-.13.038-.08.045-.147.045-.082 0-.146-.068-.116-.124.231-.24.347-.115.355-.747.008-.633-.147-1.173-.154-.385-.67-.5-.082-.02-.175-.02-.493 0-1.299.52l-.03.232q.758-.472 1.317-.472.373 0 .657.21.324 1.203-.046 1.758-.633.154-.432.509.118.21.327.21.146 0 .336-.102.162.2.32.2t.312-.2q.196.101.346.101.215 0 .333-.21.2-.354-.447-.508-.293-.555-.031-1.759.295-.22.677-.22.556 0 1.297.467l-.046-.231q-.725-.505-1.221-.505zm-.817 3.34q.173 0 .434.096-.441.147-.895.147-.404 0-.817-.117.298-.12.487-.12.123 0 .199.051.096.066.19.066.095 0 .188-.066.08-.057.214-.057zm-1.278.25q.44.162.906.162t.96-.162q-.509.34-.987.362l-.054.002q-.447 0-.825-.364zm.524-.448q-.37.078-.833.34.417.509.818.601.166.039.342.039.25 0 .521-.077.463-.131.68-.579-.495-.246-.818-.308l-.355.139-.355-.155zm1.527-3.794q.679.648 1.635 1.234.17.447.077.586-.092.139-.185.818-.478 1.08-.887 1.773-.409.695-.848.98-.192.124-.399.124-.269 0-.565-.209-.355.243-.62.243-.138 0-.252-.066-.331-.192-.879-.848-.547-.655-.964-1.997-.092-.679-.177-.81-.085-.131.07-.594 1.357-.602 1.634-1.203.576.24 1.148.24.608 0 1.212-.27zm-1.172 5.615q.404.28.72.28.082 0 .159-.018l.308 2.02h-2.406l.34-2.02q.076.019.159.019.316 0 .72-.281zm0-6.818q-2.453 0-3.116 2.19.062-.663-.324-.856-.093-.047-.19-.047-.298 0-.62.456-.424.601.656 2.144.197.424.401.424h.008q.208-.008.285-.208.432 1.82 1.728 2.7l-.432 2.59h3.146l-.37-2.59q.987-.91 1.728-2.7.077.2.285.208h.007q.205 0 .402-.424 1.08-1.543.648-2.144-.328-.456-.624-.456-.095 0-.186.047-.378.193-.301.856Q49.267 0 46.815 0zm5.891 12.227a48.94 48.94 0 0 0 1.477.053h.089l-.107 4.323c-.712-.293-1.148-.587-1.646-.978l.187-3.398zm-12.062-1.076c-.276.053-.64.222-.596.551v2.41a46.101 46.101 0 0 0-1.245-.053c0 .303.249.712 1.023.712.009.685.133 1.521.258 1.948l.106 1.12c0 .125.214.161.445.161a3.9 3.9 0 0 0 .578-.053l-.044-1.121c4.394.035 12.774.258 13.192.258.213 0 .355-.231.355-.552l.107-4.83-2.642-.027-.213 3.763c-1.913.01-5.222.32-7.472.32-.712 0-1.326-.026-1.744-.115-.089-.098-.916-1.299-1.44-1.432a2.307 2.307 0 0 0-.312-.036c-.089-.73-.178-1.459-.258-2.18.16-.204.525-.15.623-.426.097-.134.035-.356-.152-.365-.106-.044-.4-.053-.524-.053z"/></svg>