<svg xmlns="http://www.w3.org/2000/svg" width="78.98" height="18"><path d="M3.01.474c.693 0 1.247.2 1.634.479.006.053.02.107.009.16-.05.248-.195.477-.396.63-.316.207-.697.267-1.057.356-.09.01-.019.031.031.04.23.04.707.099.971.099l.052-.001c.278-.032.54-.148.766-.311.079-.067.147-.15.205-.236.147.346.227.713.26.917.018.11.096.2.202.233 1.139.349 2.038 1.91 2.88 2.949 1.729 2.137 3.199 4.526 4.892 6.76-.937-.456-1.87-.916-2.81-1.374-1.92-1.01-3.92-1.816-5.604-3.09l-.008-.008c-.97-.808-1.963-1.66-2.339-2.793-.148-.92 1.757-2.577 1.542-2.646a.207.207 0 0 0-.064-.01c-.458 0-1.753 1.128-2.019 2.202-.003-.014-.01-.03-.014-.045-.073-.356-.154-1.256.068-1.98a.29.29 0 0 0 .01-.103 1.968 1.968 0 0 0-.123-.634c-.063-.17-.139-.344-.26-.765-.031-.108-.142-.328-.208-.345.186-.138.375-.28.645-.375a.434.434 0 0 0-.132.314c0 .23.164.415.365.415.2 0 .364-.186.364-.415V.894a.411.411 0 0 0-.255-.39c.053-.007.096-.019.154-.022.081-.006.16-.008.238-.008zm.67 7.763c.065.065.135.124.202.187.214.78.412 1.64.692 2.305.483 1.145 1.216 2.141 1.84 3.154a1.814 1.814 0 0 0-.385.27 6.831 6.831 0 0 0-.199.193 2.61 2.61 0 0 0-1.186-.897c.045-.723-.108-1.712-.34-2.787a34.903 34.903 0 0 0-.624-2.425zm1.006.908c1.149.945 2.428 1.738 3.676 2.54-.018.91-.018 1.778.084 2.675a3.411 3.411 0 0 0-1.437-.736c-.02 0-.037.012-.057.012-.649-1.063-1.383-2.06-1.837-3.134-.156-.37-.293-.85-.429-1.357zm.407 5.254a2.5 2.5 0 0 1 .44.541.3.3 0 0 0 .257.14.29.29 0 0 0 .17-.053c.215-.156.347-.324.476-.446.047-.045.097-.08.148-.117l.149 2.722c-.213-.014-.435-.035-.637-.035-.264 0-.495.036-.633.172-.169-.134-.497-.164-.89-.164-.102 0-.207.002-.316.004l.836-2.764zM6.25 9.574c1.354.787 2.784 1.414 4.135 2.125a.244.244 0 0 0 .006.003c1.295.631 2.586 1.28 3.894 1.904.984 1.189 2.052 2.295 3.078 3.42l-2.15.362-4.267-4.635a.288.288 0 0 0-.037-.036c-1.499-1.137-3.152-2.082-4.66-3.143zM3.076 0c-.135 0-.273.005-.411.013C1.58.083.792.54.523 1.157c-.04.093-.146.314-.007.314a2.35 2.35 0 0 1 .341-.028c.418 0 .38.172.47.194.09.282.29.846.303 1.068-.244.86-.153 1.763-.064 2.198.15.732.63 1.584 1.261 2.38a.285.285 0 0 0 0 .166 35.3 35.3 0 0 1 .903 3.336c.251 1.168.393 2.277.317 2.823a.294.294 0 0 0 .221.328c.045.011.084.031.127.045l-.928 3.079a2.847 2.847 0 0 0-.593-.055c-.381 0-.756.05-1.064.05-.125 0-.24-.008-.34-.032a.546.546 0 0 0-.125-.012c-.436 0-1.428.306-1.34.879.15-.128.257-.159.375-.159.11 0 .23.027.405.027h.027c.254-.004.697-.083 1.053-.083.18 0 .338.02.438.08.236-.01.45-.013.649-.013.85 0 1.447.07 2.5.075a89.565 89.565 0 0 0 2.974-.079c.45.003.697.054.922.054h.04c.134-.004.265-.057.48-.057.123 0 .273.017.468.07-.25-.341-.877-.685-1.33-.685a.591.591 0 0 0-.302.071 5.081 5.081 0 0 0-.508-.022c-.22 0-.448.01-.678.02l-.157-2.83c.487.203.857.517 1.281 1.021a.295.295 0 0 0 .513-.246c-.192-1.039-.213-2.019-.202-3.06.54.354 1.072.713 1.576 1.094l4.36 4.738a.29.29 0 0 0 .263.09c.95-.159 1.9-.315 2.849-.474a.294.294 0 0 0 .23-.193.298.298 0 0 0-.06-.297c-.741-.83-1.508-1.631-2.25-2.445 1.269.78 2.875 1.755 3.08 1.755.022 0 .027-.013.012-.04-.094-.163-.9-.755-1.775-1.373.14.058.276.12.415.177l.017.01c.103.035.16.059.27.062a.286.286 0 0 0 .108-.016.317.317 0 0 0 .188-.152.32.32 0 0 0 .023-.238c-.017-.05-.038-.077-.054-.098-.061-.085-.103-.109-.162-.154a4.553 4.553 0 0 0-.205-.149c-.153-.105-.336-.223-.493-.328a4.992 4.992 0 0 1-.328-.233.307.307 0 0 0-.028-.025l-3.892-2.736c-.008-.006-.02-.001-.028-.006-1.333-1.869-2.588-3.825-4.046-5.627-.744-.92-1.598-2.528-2.985-3.064-.067-.396-.218-1.127-.755-1.649C4.827.26 4.168.056 3.427.011A5.728 5.728 0 0 0 3.076 0zm28.959 2.805c.383.8-.462 1.105-1.075 3.765-.159 2.59-1.72 5.894-2.411 6.983-.34.758-.733 1.276-1.18 1.554a.753.753 0 0 1-.098.007c-.194 0-.373-.085-.476-.35.25-.307.447-.947.46-1.164.028-.5-.225-.6-.479-.6-.17 0-.34.044-.429.044-.024 0-.042-.004-.052-.012-.632-.528-1.457-.885-1.527-1.124.188-1.649 1.598-3.523 3.281-5.306 4.056-2.853 2.844-3.266 3.986-3.797zm-.122-.555c-.333 0-.659.144-.754.38-.131.328-.675 1.43-1.936 2.423-1.994 1.14-4.177 4.03-4.709 5.497-.255.704-.483 1.37-.493 2.077.05.03 1.339.506 1.713 1.235.033.066.072.092.114.092.16 0 .373-.368.588-.368.022 0 .044.004.065.012.607.23-.354 1.147-.359 1.236-.035.644.892.777 1.062.886.07.02.134.03.194.03.16 0 .248-.173.463-.329 1.512-1.094 3.19-6.027 3.449-6.904.239-.836.28-1.92.36-2.358.37-1.657 1.023-2.649 1.06-2.816.178-.783-.328-1.093-.817-1.093zm7.384 4.088q.171 0 .354.078.41.173.41 2.758v2.474H35.42q1.792-2.46 2.46-3.718.666-1.257 1.014-1.473.192-.119.403-.119zM39.1 5.81l-.074.001q-.66.014-1.487 1.612-.827 1.598-3.273 4.767h6.337l-.014-3.558q-.07-2.376-.486-2.605-.393-.217-1.003-.217zm9.595-3.13q.387 0 .717.308.33.308.33.724 0 .387-.28.71-.28.322-.767.322-.458 0-.76-.337-.3-.337-.3-.695 0-.387.3-.71.302-.322.76-.322zM47.42 5.59q-.086 0-.1.1 0 .085.1.085.086 0 .1-.086-.014-.1-.1-.1zm0-.044q.143 0 .143.143 0 .115-.143.158-.086-.014-.172-.086.043-.215.172-.215zm.37-.154q-.106 0-.227.01.13.073.057.187-.071-.114-.2-.114-.244 0-.244.3.143.1.13.187-.015.086-.044.114.1.1.186.516.058 0 .072-.043-.014-.444.029-.587.129-.258.358-.265h.02q.215 0 .345.15.137.158.094.358-.043.201-.617.445v.028q.889-.229.81-.795-.068-.491-.769-.491zm.39-.147q.558 0 .63.688.072.688-1.118.917.2.086.33.316.129.229.143.473-.06.018-.115.018-.117 0-.215-.083-.143-.122-.344-.609-.305-.832-.73-.832h-.158q.018-.108.082-.108.037 0 .09.037.033-.065.126-.065.07 0 .175.036-.2-.215-.2-.43l.024.002q.095 0 .133-.102.007.005.02.005.07 0 .302-.12.28-.143.824-.143zm-5.265 1.178q.083 0 .184.048.322.15.222 1.24-.817-.732-.68-1.061.093-.227.274-.227zm4.755 1.488q.087 0 .194.071-.373.258-.344 1.305h-.186q-.015-.99.129-1.233.084-.143.207-.143zm1.326-2.551q.502.014 1.104 1.01.602.996.602 2.917h-.43q-.015-1.52-1.319-1.52v1.52h-.286V7.15q.816-.616.33-1.791zm-.69 2.758q.035 0 .074.008v1.476h.888V8.126q.031-.006.06-.006.456 0 .456 1.482-.157 3.912-.544 4.916l.33.716h-4.744l.989-.43q-.488-2.135-1.09-3.146-.601-1.01-.272-1.24.083-.057.171-.057.266 0 .589.516l1.977 2.666h.502l.115-3.941q0-1.484.498-1.484zm.39-5.868q-.674.014-1.083.466-.408.451-.408 1.01 0 .473.215.745.172.287.415.445l-.032-.001q-.231 0-.512.187-.316.215-.287.287-.04-.033-.086-.033-.035 0-.071.018-.086.043-.072.172-.416.143-.416.889.184-.092.266-.092.02 0 .035.006.287 0 .774 1.146-.1.086-.272.33-.172.243-.172.845v.932h.358q-.014.788-.1 3.21l-1.992-2.723q-.416-.341-.658-.341-.082 0-.145.04l-.76-1.519q.53-.258 1.161-.3-.028-.388-.272-.689-.516.387-1.003.588.315-1.448-.337-1.734-.197-.087-.362-.087-.379 0-.584.46-.293.659.925 1.49-.545.258-1.118.258.014.401.287.716.386-.4 1.017-.602l.502 1.749q-.158.057-.201.358-.043.301.537 1.376.58 1.075.94 2.637l-1.047.587.072.674h6.133l-.501-1.232q.43-1.892.444-4.902l.788-.014q0-2.537-.702-3.633-.628-.981-.958-.981-.04 0-.074.014.817-.43.86-1.29 0-.616-.451-1.032-.452-.416-1.054-.43zm5.035 1.558l2.736 2.406q-.577.89-1.533 1.797-.906-2.143-1.203-4.203zm-.728-1.187q-.528 0-.41.725.512.248.43.56-.083.314.065 1.04.149.725 1.187 3.444-.316 1.074.367 1.074l.062-.002q1.846 3.395 4.071 5.917h.396l-.1-1.104q-1.78-1.665-3.807-5.39.594-1.253 1.665-2.193l3.28 2.95q.248.112.417.112.457 0 .325-.82l-3.297-2.818q.014-.75-.624-.75-.149 0-.332.04L53.731 2.82q-.452-.198-.728-.198z"/><path d="M21.396.375v17.25m0-17.25h2.625m-2.625 17.25h2.625m0-17.25h36.96m-36.96 17.25h36.96M60.98.375h17.625M60.98 17.625h17.625M62.743.375v17.25M66.268.375v17.25M68.03.375v17.25M69.793 2.1h8.812m-8.812 3.45h8.812M69.793 2.1v3.45m1.762-1.725h7.05m-8.812 3.45h8.812m-8.812 3.45h8.812m-8.812-3.45v3.45M71.555 9h7.05m-8.812 3.45h8.812m-8.812 3.45h8.812m-8.812-3.45v3.45m1.762-1.725h7.05" fill="none" stroke="#000"/></svg>