<svg xmlns="http://www.w3.org/2000/svg" width="99.534" height="18"><path d="M5.454.386c.221 0 .566.052.757.104.832.223-.005.968-.54.968a.513.513 0 0 1-.073-.005c-.353.074.06.199.502.199.272 0 .555-.047.681-.18.072-.077.131-.108.182-.108.185 0 .258.417.406.623.74.245 1.203.913 1.682 1.486 1.377 1.65 2.617 3.405 3.917 5.115-.357-.105-.743-.31-1.097-.48-1.62-.783-3.347-1.401-4.814-2.455-.732-.525-1.712-1.134-1.793-2.056-.061-.702 1.227-1.337 1.134-1.717-.011-.044-.043-.064-.09-.064-.274 0-1.077.688-1.288 1.09-.081.155-.14.217-.182.217-.146 0-.077-.757.014-.93.31-.589-.628-1.325-.1-1.664-.016.088.002.337.312.337.325 0 .305-.4.205-.453a.435.435 0 0 1 .185-.027zm.616 5.477c.254.9.626 1.766 1.065 2.59.217.405 1.13 1.049.485 1.377a.194.194 0 0 1-.052.007c-.257 0-.519-.495-.855-.517a12.843 12.843 0 0 0-.265-1.873c-.103-.505-.36-1.176-.378-1.584zm.705.597c.795.576 1.63 1.093 2.472 1.6.222.497.034 1.222.149 1.805-.538-.363-1.112-.378-1.457-1.066-.385-.766-1.019-1.494-1.164-2.34zM7 10.06c.134.235.335.383.538.383.16 0 .32-.091.45-.304.186.205.23.926.23 1.325.002.411-.214.446-.465.446l-.155-.002a.93.93 0 0 0-.278.032.453.453 0 0 1-.138.02c-.197 0-.423-.095-.636-.095-.02 0-.04 0-.06.002.001-.52.36-1.225.514-1.808zm1.603-2.968c1.69.766 3.36 1.59 5.054 2.351.648.679 1.239 1.448 1.96 2.049.538.45-.155.358-.474.418-.244.046-.492.08-.738.116-.87-.87-1.745-1.738-2.58-2.641-.909-.982-2.145-1.538-3.222-2.293zm-.512 5.693c1.105 0 2.211.013 3.316.042.556.014 1.197-.023 1.695.164-.658.042-2.304.058-4.042.058a201.337 201.337 0 0 1-5.037-.05c-.51 0-.097-.173.188-.173a.55.55 0 0 1 .076.005c1.267-.03 2.535-.046 3.804-.046zm-4.862.743c.75.01 1.5.02 2.25.045.495.017.989.023 1.483.023 1.398 0 2.796-.05 4.192-.05.188 0 .375.001.562.003-1.161.634-2.421 1.17-3.766 1.214-.152.005-.3.008-.445.008-.76 0-1.443-.08-2.196-.351-.656-.236-1.506-.523-2.08-.892zm6.649 1.558a.144.144 0 0 0-.078.02c-.256.16.368 1.331.895 1.613.04.021.078.03.115.03.192 0 .33-.259.247-.445-.214-.48-.87-1.218-1.18-1.218zm-4.848.055c-.042 0-.105.026-.194.086-.432.29-1.443 1.067-.823 1.496a.22.22 0 0 0 .129.042c.224 0 .442-.354.556-.556.12-.21.574-1.068.332-1.068zm4.06.177c-.274 0 .026 1.476.502 1.79.031.022.07.031.109.031.106 0 .222-.069.242-.173.123-.637-.473-1.61-.846-1.647a.08.08 0 0 0-.008 0zm-3.278.017c-.05 0-.13.062-.244.216-.302.408-1.043 1.256-.436 1.571.04.021.078.03.114.03.254 0 .4-.478.49-.72.081-.222.268-1.097.076-1.097zm2.271.162c-.023 0-.043.012-.06.037-.245.368-.164 1.491.42 1.817a.196.196 0 0 0 .097.026c.172 0 .306-.25.276-.423-.07-.41-.517-1.457-.733-1.457zm-1.329-.011a.1.1 0 0 0-.058.023c-.391.291-1.017 1.466-.379 1.845.035.02.068.03.101.03.191 0 .35-.31.375-.504.04-.334.162-1.394-.039-1.394zm.655-.018a.08.08 0 0 0-.038.01c-.324.174-.62 1.573-.014 1.945a.175.175 0 0 0 .092.028c.164 0 .306-.252.306-.421-.002-.46-.123-1.562-.346-1.562zM5.632 0c-.205 0-.408.02-.598.054-.567.104-1.44.31-1.43.996a.711.711 0 0 1 .192-.028c.55 0 .663.789.553 1.27-.225.98.26 1.965.898 2.707.425 1.269.96 2.595.954 3.928-.003.556.408.592.256 1.158-.136.51-.373 1.566-.883 1.69a2.18 2.18 0 0 1-.182.007c-.323 0-.663-.056-.984-.056-.254 0-.497.036-.71.162-.444.264-.778.46-1.31.46l-.071-.001-.078-.002c-.895 0-1.953.472-2.118 1.411-.244 1.391-.044 2.827-.036 4.233.205.005.412.011.618.011.163 0 .325-.004.487-.016-.076-.844-.133-1.694-.079-2.539.039-.601-.113-1.44.465-1.781a.738.738 0 0 1 .383-.107c.506 0 1.005.499 1.472.712 1.306.596 2.697 1.036 4.147 1.036h.1c1.756-.025 3.375-.751 4.878-1.576a.616.616 0 0 1 .41-.148c.28 0 .562.17.622.463.262 1.292.154 2.632.067 3.94.157.012.315.015.473.015.156 0 .313-.003.47-.003.052 0 .105 0 .158.002.008-.911.089-1.823.047-2.733-.033-.721.107-1.55-.417-2.143-.68-.771-1.763-.76-2.704-.825a1.712 1.712 0 0 0-.117-.004c-.125 0-.257.01-.386.01a.973.973 0 0 1-.439-.08c-.294-.302-.66-.36-1.04-.36-.228 0-.462.021-.689.021a2.75 2.75 0 0 1-.22-.008c-.043-.588-.075-1.177-.107-1.766a.155.155 0 0 1 .111-.045c.294 0 .78.686 1.034.686.076 0 .13-.06.154-.217.094-.642-.155-1.343-.146-2.018h.016c.285 0 .766.368 1.053.617.898.779 1.67 1.717 2.513 2.566.334.38.681.803 1.163.803.13 0 .269-.031.42-.101.48-.223 1.5.065 1.609-.544-.462-.54-.994-1.018-1.47-1.547.58.274 1.144.678 1.747.941a.77.77 0 0 0 .24.078c.18 0-.489-.521-.668-.602-.665-.3.624-.188.098-.605-1.155-.915-2.466-1.648-3.699-2.473-.79-.998-1.506-2.067-2.3-3.068-.66-.774-1.221-1.636-1.941-2.356C8.175 1.783 7.525 1.66 7.48.937 7.138.252 6.37 0 5.632 0zm31.513 1.45zm-.004.202zM21.39.878v1.195c-.178-.081-.352-.158-.517-.239a1.661 1.661 0 0 0-.476-.133c-.135-.02-.276-.035-.403-.06a.469.469 0 0 1-.2-.073c-.017-.013-.028-.03-.028-.093 0-.062.011-.079.027-.092a.469.469 0 0 1 .201-.072c.127-.026.268-.04.403-.061a1.7 1.7 0 0 0 .476-.133c.165-.081.34-.158.517-.239zm0 1.195zm.607.086zM33.012.789c.117 0 .235.001.353.004.66.016 1.65.174 2.468.379.405.1.767.212 1.025.323.04.017.076.034.11.05-.03.013-.063.025-.097.038-.258.097-.62.19-1.025.272-.823.167-1.816.287-2.481.303-.118.003-.236.004-.353.004-1.196 0-2.387-.136-3.578-.275-1.272-.148-2.543-.298-3.82-.298l-.194.001c-1.117.014-2.4.138-3.423.569V.792c1.023.43 2.306.555 3.423.569l.194.001c1.277 0 2.548-.15 3.82-.298 1.191-.139 2.382-.275 3.578-.275zM21.764 0l-.147.084c-.34.195-.696.332-1.012.488-.084.041-.19.06-.3.078-.146.022-.296.038-.433.066a1.053 1.053 0 0 0-.468.2.697.697 0 0 0-.246.56c0 .242.092.43.246.558.124.103.287.164.468.201.137.028.287.044.433.066.11.017.216.037.3.078.316.156.672.293 1.012.488l.146.084.149-.08c.984-.528 2.355-.66 3.515-.674h.188c1.254 0 2.502.149 3.75.294 1.215.14 2.43.278 3.65.278.12 0 .242-.001.364-.004.701-.016 1.73-.14 2.588-.315.436-.088.83-.19 1.117-.298.16-.06.292-.124.389-.19a.68.68 0 0 0 .156-.146.433.433 0 0 0 .092-.262.44.44 0 0 0-.088-.26.714.714 0 0 0-.151-.148 1.913 1.913 0 0 0-.385-.21 7.75 7.75 0 0 0-1.116-.354c-.863-.215-1.896-.38-2.602-.396a15.5 15.5 0 0 0-.365-.004c-1.22 0-2.434.137-3.65.278-1.247.145-2.495.295-3.749.295l-.188-.001C24.267.739 22.896.608 21.912.08L21.764 0zm15.118 12.157c-.56.215-.845.748-.856 1.598a2.7 2.7 0 0 0 .791 1.872c.226-.516.34-1.14.34-1.872 0-.85-.092-1.383-.275-1.598zm-2.051-.207c-.39 0-.892.053-1.509.158-1.447.248-3.064.71-4.85 1.388a1.35 1.35 0 0 1-.647.178c-.29 0-.575-.11-.854-.33-.485-.383-1.087-.665-1.808-.848a.13.13 0 0 0-.018-.001c-.257 0-1.061.656-2.412 1.97-1.382 1.345-2.122 2.136-2.219 2.373h1.582c.538-1.109 1.098-1.996 1.679-2.664.571-.656 1.029-.984 1.371-.984h.017c.72.14 1.56.575 2.518 1.307.829.721 1.576 1.12 2.244 1.195 1.958.15 3.427.226 4.406.226.98 0 1.47-.15 1.47-.452-.076-.603-.302-1.05-.679-1.34-.215-.248-.215-.474 0-.678.377-.258.598-.662.662-1.21-.111-.192-.429-.288-.953-.288zm1.718-.663c.296 0 .498.08.607.24.377.624.565 1.367.565 2.228 0 .731-.188 1.56-.565 2.486-.116.191-.335.287-.656.287-.184 0-.4-.031-.651-.094-.797.013-1.524.02-2.183.02-.988 0-1.82-.015-2.498-.044-1.13-.048-1.986-.245-2.567-.59a11.79 11.79 0 0 1-1.582-1.113c-.473-.398-1.092-.716-1.856-.952a.246.246 0 0 0-.097-.019c-.21 0-.528.222-.952.664-.495.517-1.039 1.459-1.63 2.825h-.792V18h-2.534v-.032c.29-.592.834-1.302 1.63-2.131a140.09 140.09 0 0 1 3.027-2.986c.629-.592 1.074-.888 1.334-.888h.014c.84.13 1.716.527 2.63 1.194a27.839 27.839 0 0 1 2.132-.839 21.892 21.892 0 0 1 5.891-.92c.288-.074.532-.111.733-.111zM42.23.696q.927 0 .927 1.222 0 1.075-.928 2.129-.927-1.054-.927-2.129 0-1.222.927-1.222zm0 4.7q.653 0 .653 1.412 0 .8-.654 1.475-.653-.674-.653-1.475 0-1.412.653-1.412zm0 4.257q.653 0 .653 1.413 0 .8-.654 1.475-.653-.674-.653-1.475 0-1.413.653-1.413zm0-9.653q-1.687 0-1.687 1.918-.021 1.201.559 1.886.58.685.516.917-.738.864-.738 2.087 0 1.012.864 2.17-.864.865-.864 2.088 0 1.011.864 2.15.106.273-.59 1.285-.695 1.012-1.433 3.499h.927q.464-1.644.822-2.35.359-.706.76-1.149.42.443.769 1.149.347.706.811 2.35h.949q-.696-2.487-1.423-3.499-.727-1.012-.6-1.286.842-1.138.842-2.15 0-1.222-.8-2.086.8-1.16.8-2.171 0-1.223-.716-2.087-.064-.232.505-.917.57-.685.57-1.886Q43.937 0 42.229 0zm10.227 1.792l-.152.04q-.106-.02-.197-.02-.092 0-.168.02-.151.051-.182.112-.03.061-.101.112l.05.06.082-.04q.063.029.135.029.18 0 .411-.181l.152-.02-.03-.112zm.74-1.449q.547 0 .768.559.243.627.01 1.073-.194.356-.44.356-.062 0-.127-.022-.172-.061-.1-.172.14-.132.04-.345.1-.324.02-.475-.082-.223-.25-.223-.061 0-.135.03-.131.081-.172.172-.34-.077-.61-.077-.335 0-.564.118.05-.405.384-.648.335-.233 1.013-.334.085-.012.163-.012zm-5.144 5.104q1.255.79 2.136 1.073l.435.111q-.435.172-2.055.709-.172-.152-.465-.172l-.284-1.58q.132-.04.233-.141zm5.048-4.168q.086 0 .115.108.06.173-.02.426.06.192-.05.202-.02.003-.036.003-.09 0-.107-.094-.05.111.314.567.355.466 1.053 1.144.699.688.77 3.837l-1.408.708q-.283-1.873-1.316-3.209-.253-.283-.131-.536.131-.243.87-.638.365-.152.102-.365-.254-.212-.324-.455-.173 0-.365.152-.318.159-.449.159-.028 0-.047-.007-.111-.041-.132-.193l.152-.152q.071-.06 0-.111l-.303.07q.05-.262-.132-.283-.064.041-.105.041-.05 0-.067-.06-.04-.132.07-.386.062-.243.193-.374.122-.112.312-.112h.032q.071.004.14.004.14 0 .275-.014l-.02-.111q-.076.01-.164.01-.089 0-.19-.01-.047-.005-.091-.005-.296 0-.446.238-.02-.152 0-.213.256-.178.614-.178.25 0 .55.087v.132q.046.01.084.01.038 0 .068-.01 0-.324.112-.365.043-.017.077-.017zm2.271 6.648q.587 1.033.577 1.833-.01.8-.162 2.57l-2.571-.02.587-3.694 1.57-.689zM53.284 0h-.038q-.698.02-1.285.365-.648.344-.628 1.346.05.274-.03.537-.071.253-.05.516.042.109.138.109.038 0 .084-.018.047-.02.075-.02.07 0 .026.122-.04.02-.02.07.013.027.045.027.016 0 .036-.006-.057.142.028.142h.012l.016-.001q.076 0 .086.092.01.11.121.232.044.044.133.044.137 0 .383-.104l.365-.193q.03.091.131.213-.86.263-1.255.972-.577.698-.941 1.447-.871-.253-2.572-.971-.152-.213-.496-.274l-.435-2.338q-.132-.73.344-1.296L47.233.78q-.628.537-.425 1.64l.385 2.227-.345.02q-.04.173.172.254-.04.668.345.698l.283 1.549q-.223.04-.435.07-.02.193.243.254-.089.648.357.648h.027l.041.395.456-.092-.092-.415q.112-.06.223-.1 2.177-.264 2.693-.78.698-1.084 1.022-1.68.71.576 1.165 2.803h-.055q-.48 0-.431.345.04.285.271.285.065 0 .144-.022l-.689 4.16q-.607 2.703-.88 3.351-.152.517-.507.618-.364.091-1.164.547-.445.09-.496.243-.04.151.213.182.052.006.115.006.23 0 .604-.087.19-.04.416-.04.339 0 .758.09.096.02.177.02.516 0 .42-.779-.04-.567.658-1.61.699-1.042.77-2.47l.324-.324 1.032-.02.02.496q.284 1.944.304 2.561.132 1.003-.243 1.155-.385.141-1.154.597-.456.07-.516.223-.05.151.212.192.064.01.14.01.232 0 .59-.091.186-.044.43-.044.375 0 .885.105.119.024.21.024.57 0 .134-.915.03-.952.213-1.974.182-1.023-.213-2.065l.203-.274.121-2.794q.03-1.205-.84-2.693-.04-.546-.131-1.923-.081-1.387-.75-2.005-.668-.627-.739-.759.375-.263.496-.688.132-.436-.162-1.185Q53.963 0 53.284 0zm14.221.314v1.142h-.336V.314zm1.993 0v1.142h-.336V.314zm1.009 0v1.142h-.359V.314zM68.49.336v1.143h-.336V.336zm-2.083.47q-2.15 1.501-3.719 1.501-1.546 0-2.71-1.5zm11.179 0q-1.157 1.513-2.82 1.513h-.025q-1.68-.012-3.45-1.513zM58.364 0q1.613 3.159 4.414 3.159 2.06 0 3.74-1.3h4.549q1.456 1.3 3.763 1.3 2.756 0 4.48-3.159zm1.362 10.67V18h1.225v-7.33zm8.423.01V18h1.225v-7.32zm8.575 0V18h1.225v-7.32zM81.31 0v7.33h1.226V0zm8.424.01v7.32h1.225V.01zm8.575 0v7.32h1.225V.01zM81.31 10.67V18h1.226v-7.33zm8.424.01V18h1.225v-7.32zm8.575 0V18h1.225v-7.32z"/></svg>