<svg xmlns="http://www.w3.org/2000/svg" width="43.91" height="18"><path d="M14.696 4.63c-.511.04-.793.295-.847.766.067.51.35.78.847.807.497-.027.76-.296.786-.807-.04-.47-.302-.726-.786-.766zm.06-1.694c.363 0 .7.067 1.009.201a2.659 2.659 0 011.371 1.361c.134.303.202.622.202.959 0 .35-.068.675-.202.978a2.567 2.567 0 01-2.38 1.523c-.363 0-.702-.065-1.018-.192a2.426 2.426 0 01-.817-.535 2.621 2.621 0 01-.544-.796 2.38 2.38 0 01-.202-.978c0-.337.067-.656.202-.958.134-.303.316-.572.544-.807.229-.235.5-.42.817-.555a2.574 2.574 0 011.018-.201zm-.04-.686c-.444 0-.86.084-1.25.252-.39.168-.726.397-1.009.686a3.36 3.36 0 00-.675 1.008 3.053 3.053 0 00-.252 1.24c0 .444.084.857.252 1.24.168.384.393.717.675.999a3.2 3.2 0 002.259.928c.444 0 .857-.084 1.24-.253a3.36 3.36 0 001.009-.675c.289-.282.517-.615.685-.998.168-.384.252-.797.252-1.24 0-.444-.084-.858-.252-1.24a3.268 3.268 0 00-1.694-1.695 3.053 3.053 0 00-1.24-.252zM20.058 12.523q-1.86 2.528-5.353 2.597-3.47-.069-5.33-2.597zm-11.838-.6q1.906 3.812 6.485 3.827 4.601-.015 6.507-3.827zM29.007 2.652c.175.12.162.185.144.257-.024.093-.307.155-.435.155-.036 0-.06-.005-.062-.015 0-.084.138-.301.353-.397zm-1.453 1.906c-.18 0-.27.096-.27.288 0 .24.109.359.324.359h.018a.8.8 0 00.629-.287V4.81c0-.084-.7-.252-.7-.252zm2.325-1.45c.262.213-.216.814-.5 1.427l-.098.21c.495-.313.752-.923.752-.923.12.19-.27.708-.15.862.131.467.667 1.03-.54 2.178-.156.096-1.95 1.054-2.094 1.054-.108 0-.186-.083-.449-.322l.539-.431v-.126l-.018-.018h-.108c-.18 0-.407.114-.682.341a5.012 5.012 0 01-.49-.586c.223-.176.313-.297.3-.461.033-.203-.103-.235-.208-.235-.048 0-.09.007-.105.007v.144c-.036.072-.114.131-.234.18-.048 0-.072-.162-.072-.162 0-.084.192-.348.575-.79 1.054-1.294 1.867-1.952 2.562-1.952l.157.012c-.265.167-.143.45-.143.45.279-.246.731-.754 1.006-.859zm.73.872h.006c1.819 1.748 2.096 2.936 2.106 6.92l-3.081.05-.044-3.205c0-.216.048-.475.24-.582 1.291-.998.637-2.513.552-2.682-.032-.383.117-.5.222-.5zm-1.55-1.73c-.109 0-.347 0-.588.262-.214.233-.284.673-.699.823-.415.283-.69.578-.953.85-1.053 1.149-1.406 1.55-1.418 1.778-.84.685.067 1.09.342 1.249.898 1.041.744.968 1.13 1.137.138.037.218.069.29.069.076 0 .142-.037.26-.141.132 0 1.544-.682 1.544-.682.156 0 .222.513.222 1.687-.015.806-.099 2.138-.006 2.138h.006l.036.053H33.3l.018-.018-.053-1.185c-.084-1.485.518-5.213-2.933-7.136.04-.241-.153-.504-.397-.504-.122 0-.257.066-.382.234-.022-.29-.147-.591-.496-.614zM25.616 13.203c.715 0 1.61.367 2.042.8.378.379.428.88.442 1.347h-4.946c.014-.466.063-.968.442-1.347.433-.433 1.306-.8 2.02-.8zm0-.4c-.847 0-1.76.392-2.294.927-.548.548-.61 1.27-.61 1.81v.21h5.809v-.21c0-.54-.041-1.262-.59-1.81-.534-.535-1.467-.927-2.315-.927zM32.756 13.203c.714 0 1.608.367 2.041.8.379.379.428.88.442 1.347h-4.946c.014-.466.064-.968.442-1.347.433-.433 1.306-.8 2.02-.8zm0-.4c-.848 0-1.76.392-2.294.927-.549.548-.61 1.27-.61 1.81v.21h5.808v-.21c0-.54-.04-1.262-.59-1.81-.534-.535-1.467-.927-2.314-.927z"/><path d="M8.22.375c-9.625 0-9.625 17.25 0 17.25M8.22.375h27.44M8.22 17.625h27.44M43.348.375v17.25M35.66.375c9.625 0 9.625 17.25 0 17.25" fill="none" stroke="#000"/></svg>