<svg xmlns="http://www.w3.org/2000/svg" width="70.42" height="18"><path d="M15.117 4.63c-.511.04-.794.295-.847.766.067.51.35.78.847.807.497-.027.76-.296.786-.807-.04-.47-.302-.726-.786-.766zm.06-1.694c.363 0 .7.067 1.009.201a2.659 2.659 0 011.371 1.361c.134.303.202.622.202.959 0 .35-.068.675-.202.978a2.567 2.567 0 01-2.38 1.523c-.363 0-.702-.065-1.018-.192a2.426 2.426 0 01-.817-.535 2.621 2.621 0 01-.544-.796 2.38 2.38 0 01-.202-.978c0-.337.067-.656.202-.958.134-.303.315-.572.544-.807.229-.235.5-.42.817-.555a2.574 2.574 0 011.018-.201zm-.04-.686c-.444 0-.86.084-1.25.252-.39.168-.726.397-1.009.686a3.36 3.36 0 00-.675 1.008 3.053 3.053 0 00-.253 1.24c0 .444.085.857.253 1.24.168.384.393.717.675.999a3.2 3.2 0 002.259.928c.444 0 .857-.084 1.24-.253a3.36 3.36 0 001.008-.675c.29-.282.518-.615.686-.998.168-.384.252-.797.252-1.24 0-.444-.084-.858-.252-1.24a3.268 3.268 0 00-1.694-1.695 3.053 3.053 0 00-1.24-.252zM21.603 13.543V15.3H8.67v-1.756zm-12.885-1.78v1.33H8.22v2.657h13.834v-2.658h-.404v-1.328h-.45v1.328h-1.116v-1.328h-.45v1.328h-1.116v-1.328h-.45v1.328h-1.092v-1.328H16.5v1.328H15.41v-1.328h-.451v1.328h-1.115v-1.328h-.451v1.328h-1.115v-1.328h-.451v1.328h-1.092v-1.328h-.45v1.328H9.168v-1.328zM25.423 2.25q-.247 0-.27.218l.24-.053q.15 0 .083.158-.173.165-.053.488-.22.475-.847.475l-.076-.002q.03.353-.15.533-.631.36-.631.66.495.234.165.571-.33.338-.33.458.217.068.3.233.375.916.758 1.3l-.03.307q.368 0 .406-.39-.69-.841-.668-1.795.03-.954 1.208-1.877.338-.188.338-.728 0-.556-.443-.556zm4.505 0q-.443 0-.443.556 0 .54.323.728 1.194.923 1.224 1.877.023.954-.683 1.795.052.39.405.39l-.022-.308q.375-.383.758-1.299.09-.165.293-.233 0-.12-.323-.458-.323-.337.165-.57 0-.3-.623-.661-.18-.18-.165-.533l-.075.002q-.614 0-.834-.475.113-.323-.052-.488-.068-.158.082-.158l.24.053q-.022-.218-.27-.218zm-2.256 4.115q.882 0 1.768.675.691.586.083 1.344h-3.71q-.607-.758.098-1.344.879-.675 1.761-.675zM25.018 8.64q-1.044 1.216-1.044 1.854.083.368.323.368.315 0 .406-.285 0-.946.405-1.585l-.09-.352zm5.316 0l-.09.352q.405.639.405 1.585.083.285.406.285.232 0 .322-.368 0-.638-1.043-1.854zm-3.289.135q.488 0 .488.518v3.912q-1.532 0-1.734-.984-.203-.984-.023-3.446zm2.508 0q.203 2.462-.008 3.446-.21.984-1.742.984V9.293q0-.518.488-.518zm-1.99-4.182v.27q0 .188-.15.188-.233 0-.556-.27h-.165l.518.975-.165.053q-.27-.353-.54-.728-.043-.02-.075-.02-.082 0-.098.125l.405.706q-.285.232-.285.405-.45 0-.676.353-.653.458-.653 1.014 0 .42.27.96-.187 1.044-.187 2.629 0 1.043.36 1.674.368.63 2.102.63 1.735 0 2.095-.63.368-.63.368-1.674.015-1.585-.173-2.613.27-.556.27-.976 0-.556-.66-1.014-.233-.353-.668-.353 0-.173-.308-.405l.405-.706q0-.124-.077-.124-.03 0-.073.019-.27.375-.54.728l-.166-.053.503-.976h-.15q-.338.27-.578.27-.128 0-.128-.187v-.27zm-2.967 6.621l-.029.001q-.878 1.554-.878 2.448 0 .893.308 1.434.315.54.856.653-.729-.976-.729-1.562 0-.578.136-.946.12 1.029.54 1.45-.188-.827-.173-1.743.008-.923.308-1.374.015-.36-.339-.36zm6.16 0q-.354 0-.34.361.286.45.3 1.374.016.916-.164 1.742.42-.42.54-1.449.135.368.135.946 0 .586-.728 1.562.54-.113.84-.653.309-.54.309-1.434 0-.894-.864-2.448h-.029zM35.152 2.25q-.247 0-.27.218l.24-.053q.15 0 .083.158-.173.165-.053.488-.22.475-.847.475l-.076-.002q.03.353-.15.533-.63.36-.63.66.495.234.164.571-.33.338-.33.458.218.068.3.233.376.916.759 1.3l-.03.307q.367 0 .405-.39-.69-.841-.668-1.795.03-.954 1.209-1.877.337-.188.337-.728 0-.556-.443-.556zm4.505 0q-.443 0-.443.556 0 .54.323.728 1.194.923 1.224 1.877.023.954-.683 1.795.052.39.405.39l-.022-.308q.375-.383.758-1.299.09-.165.293-.233 0-.12-.323-.458-.323-.337.165-.57 0-.3-.623-.661-.18-.18-.165-.533l-.075.002q-.614 0-.834-.475.113-.323-.052-.488-.068-.158.082-.158l.24.053q-.022-.218-.27-.218zm-2.256 4.115q.882 0 1.768.675.691.586.083 1.344h-3.71q-.607-.758.098-1.344.879-.675 1.761-.675zM34.747 8.64q-1.044 1.216-1.044 1.854.083.368.323.368.316 0 .406-.285 0-.946.405-1.585l-.09-.352zm5.316 0l-.09.352q.405.639.405 1.585.083.285.406.285.232 0 .323-.368 0-.638-1.044-1.854zm-3.289.135q.488 0 .488.518v3.912q-1.531 0-1.734-.984-.203-.984-.023-3.446zm2.508 0q.203 2.462-.007 3.446-.21.984-1.742.984V9.293q0-.518.488-.518zm-1.99-4.182v.27q0 .188-.15.188-.233 0-.555-.27h-.166l.518.975-.165.053q-.27-.353-.54-.728-.043-.02-.075-.02-.082 0-.098.125l.405.706q-.285.232-.285.405-.45 0-.676.353-.653.458-.653 1.014 0 .42.27.96-.187 1.044-.187 2.629 0 1.043.36 1.674.368.63 2.102.63 1.735 0 2.095-.63.368-.63.368-1.674.015-1.585-.173-2.613.27-.556.27-.976 0-.556-.66-1.014-.233-.353-.668-.353 0-.173-.308-.405l.405-.706q0-.124-.077-.124-.03 0-.073.019-.27.375-.54.728l-.166-.053.504-.976h-.15q-.339.27-.579.27-.127 0-.127-.187v-.27zm-2.967 6.621l-.028.001q-.879 1.554-.879 2.448 0 .893.308 1.434.315.54.856.653-.728-.976-.728-1.562 0-.578.135-.946.12 1.029.54 1.45-.187-.827-.172-1.743.007-.923.307-1.374.015-.36-.339-.36zm6.16 0q-.354 0-.34.361.286.45.3 1.374.016.916-.164 1.742.42-.42.54-1.449.135.368.135.946 0 .586-.728 1.562.54-.113.841-.653.308-.54.308-1.434 0-.894-.864-2.448h-.028zM44.882 2.25q-.248 0-.27.218l.24-.053q.15 0 .082.158-.173.165-.052.488-.22.475-.848.475l-.076-.002q.03.353-.15.533-.63.36-.63.66.495.234.164.571-.33.338-.33.458.218.068.3.233.376.916.759 1.3l-.03.307q.368 0 .405-.39-.69-.841-.668-1.795.03-.954 1.209-1.877.338-.188.338-.728 0-.556-.443-.556zm4.505 0q-.443 0-.443.556 0 .54.322.728 1.194.923 1.224 1.877.023.954-.683 1.795.053.39.406.39l-.023-.308q.375-.383.758-1.299.09-.165.293-.233 0-.12-.323-.458-.323-.337.165-.57 0-.3-.623-.661-.18-.18-.165-.533l-.075.002q-.614 0-.833-.475.112-.323-.053-.488-.068-.158.083-.158l.24.053q-.023-.218-.27-.218zM47.13 6.365q.883 0 1.769.675.69.586.082 1.344h-3.709q-.608-.758.098-1.344.878-.675 1.76-.675zM44.476 8.64q-1.044 1.216-1.044 1.854.083.368.323.368.316 0 .406-.285 0-.946.405-1.585l-.09-.352zm5.316 0l-.09.352q.405.639.405 1.585.083.285.406.285.233 0 .323-.368 0-.638-1.044-1.854zm-3.289.135q.488 0 .488.518v3.912q-1.531 0-1.734-.984-.203-.984-.023-3.446zm2.508 0q.203 2.462-.007 3.446-.21.984-1.742.984V9.293q0-.518.488-.518zm-1.99-4.182v.27q0 .188-.15.188-.232 0-.555-.27h-.165l.518.975-.166.053q-.27-.353-.54-.728-.042-.02-.075-.02-.082 0-.098.125l.406.706q-.286.232-.286.405-.45 0-.676.353-.653.458-.653 1.014 0 .42.27.96-.187 1.044-.187 2.629 0 1.043.36 1.674.368.63 2.103.63 1.734 0 2.094-.63.368-.63.368-1.674.015-1.585-.172-2.613.27-.556.27-.976 0-.556-.66-1.014-.234-.353-.669-.353 0-.173-.308-.405l.406-.706q0-.124-.078-.124-.03 0-.073.019-.27.375-.54.728l-.165-.053.503-.976h-.15q-.338.27-.579.27-.127 0-.127-.187v-.27zm-2.966 6.621l-.03.001q-.878 1.554-.878 2.448 0 .893.308 1.434.315.54.856.653-.728-.976-.728-1.562 0-.578.135-.946.12 1.029.54 1.45-.187-.827-.172-1.743.007-.923.308-1.374.014-.36-.34-.36zm6.159 0q-.354 0-.34.361.286.45.301 1.374.015.916-.165 1.742.42-.42.54-1.449.136.368.136.946 0 .586-.729 1.562.54-.113.841-.653.308-.54.308-1.434 0-.894-.863-2.448h-.03zM54.86 2.25c-.09 0-.18.004-.268.012h-.043c-1.005 0-1.87.969-1.797 1.965-.054.784.109 1.558.152 2.338a.35.35 0 00.326.187.554.554 0 00.455-.245c.236-.33.132-.758.035-1.118-.106-.643-.145-1.359.209-1.936.227-.305.602-.457.976-.457.408 0 .814.18 1.03.541.344.506.251 1.241-.191 1.659-.427.505-1.067.838-1.34 1.464-.175.63-.029 1.288-.087 1.93-.056 2.342-.085 4.684-.13 7.027.121.101.263.12.41.12.087 0 .175-.006.261-.006.07 0 .14.004.206.019.318-.163.293-.573.27-.876-.114-2.457-.031-4.917-.093-7.375.007-.28-.084-.602.212-.762.589-.572 1.217-1.142 1.58-1.894.368-1.09-.457-2.397-1.6-2.536a2.837 2.837 0 00-.573-.057zM60.702 2.835c.53 0 .794.21.794.629 0 .42-.26.81-.78 1.169-.119.04-.134.45-.044 1.228l.704 5.005c-.719.21-1.458.589-2.217 1.138V4.348c.26-1.009.774-1.513 1.543-1.513zm-.068-.585c-.583 0-1.027.162-1.333.487-.315.335-.537.847-.667 1.536L58.62 15.75h.794c-.06-1.718.057-2.438.422-2.947.364-.51 1.286-1.064 2.335-1.234-.66-4.125-1.103-6.437-.974-6.577.55-.37.824-.864.824-1.483 0-.84-.434-1.259-1.302-1.259a2.744 2.744 0 00-.084 0z"/><path d="M8.22.375c-9.625 0-9.625 17.25 0 17.25M8.22.375h53.95M8.22 17.625h53.95M69.857.375v17.25M62.17.375c9.625 0 9.625 17.25 0 17.25" fill="none" stroke="#000"/></svg>