<svg xmlns="http://www.w3.org/2000/svg" width="108.86" height="18"><path d="M17.338.568q-.111.037-.111.128t.07.146q.027.022.054.022.04 0 .077-.05.063-.081.021-.163-.041-.083-.11-.083zM1.95.47q-.153 0-.296.282.084.183.264.237.028.01.054.01.131 0 .224-.229 0-.255-.194-.292Q1.975.47 1.949.47zM.945.787q-.042.128.027.238l-.583.073Q.375.934.945.788zm.568.436zm.105-.003q.12 0 .195.033.027.012 0 .012-.052 0-.288-.04.05-.005.093-.005zm2.564 1.252q.035 0 .097.068 1.125 1.223 2.792 2.865Q8.74 7.048 8.947 7.724 7.585 7.468 6.62 6.318q-.966-1.15-1.681-2.236-.716-1.086-.799-1.414-.017-.196.042-.196zm.046-.868q.202 0 .384.096 4.321 4.308 4.946 5.604.584 1.405.764 2.154-.076.11-.182.11-.087 0-.193-.074l-.57-1.515q-.43-1.296-2.104-2.875-1.674-1.579-2.424-2.5-.441-.542-.676-.542-.164 0-.227.268-.108.455-.38.455-.115 0-.26-.081.126-.858.542-1.022.198-.078.38-.078zm.357 6.43q.666 1.405.541 2.83-.125 0-.236.236-.045-.403-.277-.403-.051 0-.112.02.292-1.405.084-2.683zM2.107.346q.066 0 .116.013.25.063.292.237.029.122.058.122.013 0 .025-.022.042-.073.056-.164.305.53.041 1.57t.848 1.24q1.028 3.104 2.209 4.72 1.18 1.615.986 3.038-.449-.438-.993-.438-.113 0-.23.019.042-1.296-.472-2.556t-.945-1.889q-.43-.63-1.16-1.497-.73-.867-.722-1.789.007-.921.194-1.286.188-.365.181-.584-.003-.091-.027-.091-.035 0-.112.182-.132.31-.73.328l-.07.001q-.568 0-1.235-.274l.82.073q.404.11.601.11.162 0 .183-.074.049-.164-.076-.192-.125-.027-.257-.027t-.201.055l.026.052-.29-.052Q1.042.787 1.167.623q.028-.055.097-.055-.028.183.049.274.028.034.056.034.046 0 .09-.098.07-.155-.125-.228.511-.204.773-.204zm15.412.04q.375 0 .555.365.056.055.695.2v.056l-.695.073q-.597 0-.75-.12-.153-.118-.146-.273.007-.155.188-.155.18 0 .25.082t.035.173q-.035.092-.132.147h.028q.18 0 .187-.22.007-.237-.299-.273-.389 0-.291.374.092.357.854.357l.076-.001q.431-.037.765-.128L18.81.97q1.236 1.004 1.16 2.29-.077 1.288-.966 2.136-.889.85-1.584 1.871-1.083 1.734-1.167 2.72-.083.986.376.986.458 0 1.118-.721.66-.721 1.34-.74 1.82.055 1.612 2.209-.667-.93-1.5-.93-.417 0-1.14.474-1.097.766-1.667.766l-.472-.091q-.861-.84-.583-2.482.416-1.187 1.125-4.235.486-1.734.965-2.628.48-.895 1.022-.913.291 0 .944.365.027.01.047.01.094 0 .037-.21-.526-.429-1.226-.429-.225 0-.47.045-.208 0-.506-.146-.3-.146-.3-.694.251-.237.543-.237zM3.946 3.05q1.083 1.825 1.986 3.002.903 1.178 1.702 1.588.799.411 1.48.43.083.145 1.653 4.617l-.097.055-3.738-3.14q.028-.273-1.104-1.962-1.132-1.687-1.994-4.46l.112-.128zm3.834 7.867l2.07 1.66q.07.256-.5.348-.127.02-.233.02-.37 0-.49-.248-.152-.32-.389-.831-.236-.511-.458-.95zm7.071-.785q0 .767.167 1.332.43 1.004 1.153 1.023h.038q.711 0 1.699-.657.938-.625 1.365-.625.034 0 .066.004.416.055.903.566.486.51.514.894.05.311-.043.311-.06 0-.18-.128-.399-1.05-1.024-1.05h-.01q-.633.01-1.557.648-.923.639-2.153.639t-1.368-1.04q-.14-1.04.43-1.917zm-10.294 1.06l.208.547q.195-.255.299-.3l.005-.002q.088 0-.304 1.543l-.583.238q-.153-.146.09-.904.243-.757.285-1.122zm14.763 1.14q.461 0 .727.502-.18.384-.847.603-.514 0-1.042-.566.685-.539 1.162-.539zm-1.607.758q.207.265.448.438h-1.883q.692-.095 1.435-.438zm-7.182 1.15q-1.554 2.935-4.48 3.011-2.913-.076-4.467-3.011zm11.239.018q-1.554 2.935-4.48 3.012-2.913-.077-4.48-3.012zM2.346.008q-.084 0-.179.013-.222 0-1.264.42Q.069.696 0 1.098l.028.62.417-.2q.68.292 1.139.292.458 0 .347.41-.111.411.028 1.37.139.958 1.097 1.934.959.977 1.188 2.556.23 1.578-.41 3.641l.209-.164q.004-.004.007-.004.046 0-.216.816-.277.867-.757.894-.084.005-.16.005-.348 0-.486-.105-.155-.12-.462-.12l-.045.001q-.34.01-.34.302v.182H.61Q2.21 17.982 6.057 18q3.849-.018 5.446-4.472l-4.279.037q0-.165-.264-.356-.129-.094-.296-.094-.175 0-.391.103-.13.061-.278.061-.337 0-.771-.317.097-.639.236-1.14.139-.503.528-.594.036-.008.073-.008.362 0 .816.811.264-.675.153-1.825l.139.128q1.042 2.3 1.257 2.701.163.305.634.305.15 0 .331-.031.75-.128.737-.475l.639.42.486-.237-1.07-3.048q.264 0 .487-.292-.264-1.096-.82-2.446-.39-.822-.792-1.278Q7.961 4.603 6.78 3.39T5.043 1.518q-.373-.28-.775-.28-.226 0-.461.088-.653.246-.792 1.214-.042-.037.07-.73.11-.694-.05-1.287-.138-.514-.689-.514zM17.566 0q-.252 0-.478.094-.292.11-.347.42-.111.383.097.757.208.374.653.466-.89 1.058-1.514 3.741-.584 2.556-.973 3.779-1.042 1.113-1.035 2.236.007 1.122.424 1.597.301.343.878.438h-3.434q1.597 4.454 5.446 4.472 3.848-.018 5.445-4.472h-2.674q.153-.11.313-.256.156.245.354.245.083 0 .174-.044.347-.219.139-1.004.194-2.245-.459-2.865-.653-.621-1.473-.621-.75 0-1.625.849-.543.526-.743.526-.124 0-.118-.198.014-.52.611-1.761.403-.876 1.75-2.254 1.348-1.378 1.334-2.775-.014-1.396-.597-2.099-.584-.703-1.292-.794-.111-.2-.292-.328-.18-.128-.48-.146Q17.609 0 17.567 0zM35.25.575c1.027 0 2.313.528 2.935 1.15.545.544.616 1.266.636 1.937h-7.112c.02-.671.091-1.393.636-1.937.622-.622 1.878-1.15 2.905-1.15zm0-.575c-1.219 0-2.53.563-3.299 1.332-.788.788-.877 1.825-.877 2.602v.303h8.352v-.303c0-.777-.059-1.814-.847-2.602C37.81.563 36.469 0 35.25 0zm-2.515 10.039l.035 1.982-2.19-.035-.035-1.912 2.19-.035zm1.043-.035l5.632.07-.035 2.016-5.632-.07.035-2.016zm8.135.104v1.982l-1.704-.035v-1.947zm-13.777 3.558c-1.032 1.868-1.45 3.367-1.45 3.367-.02.252-.17.383-.313.383-.16 0-.309-.164-.253-.506.279-.745.205-1.606 2.016-3.244zm-1.28-7.516a.412.412 0 0 0-.275.097c-.18.155-.216.472-.033.788v.002l.002.001a11.605 11.605 0 0 0 2.93 2.491c-.044.609.077 1.727.037 2.343-1.85-.597-2.573-.947-3.865-2.469l-.004-.005-.007-.002a1.301 1.301 0 0 0-.326-.043.775.775 0 0 0-.391.091c-.18.106-.259.304-.142.586.115.277.418.64 1.004 1.09.579.446 1.435.979 2.66 1.599-.09.073-.402.33-.745.637-.408.366-.86.802-1.034 1.087-.473.774-.821 1.468-.977 2.062-.158.599-.12 1.098.18 1.474l.004.006.008.001c.002 0 .068.014.172.014.11 0 .263-.015.429-.075.324-.118.694-.41.884-1.101.376-1.369.951-2.46.97-2.498.18-.266.432-.613.638-.88.104-.134.196-.247.262-.321a.73.73 0 0 1 .074-.075h.016c1.32.029 2.656.038 4.001.038 2.79 0 5.617-.041 8.408-.041 1.345 0 2.681.01 4 .038h.02l.002-.02c0-.001.018-.253.013-.506a2.224 2.224 0 0 0-.028-.35.438.438 0 0 0-.037-.12.125.125 0 0 0-.03-.039.068.068 0 0 0-.043-.016h-2.656v-1.939l2.725.035h.02l.002-.02c.011-.348-.012-.627 0-.974v-.022h-.021c-5.18-.07-10.358-.035-15.537-.105-.617-.233-1.14-.714-1.585-1.216-.449-.507-.817-1.036-1.12-1.36l-.001-.001c-.189-.165-.362-.25-.511-.274a.561.561 0 0 0-.093-.008zm29.636-4.715q-.056.074 0 .149-.075-.037-.13-.056.037-.056.13-.093zm.168.018l.186.13q-.112.02-.205.02.075-.056.019-.15zm-.105-.091q-.094 0-.175.054l-.13.112v.093h.056q.14.065.293.065.154 0 .321-.065l.205.056v-.149h-.205q-.201-.166-.365-.166zm-.282.64l-.005.001q-.018.01-.018.056 0 .047-.028.056l-.009.001q-.027 0-.075-.048-.056-.056-.075-.056-.018 0-.037.02-.019.018-.019.055.02-.012.039-.012.04 0 .083.05.043.049.087.049.021 0 .043-.013.065-.037.047-.102-.017-.057-.033-.057zm-.208.301q.019 0 .045.008.065.018.158.028.093.009.075.009l-.298.018q-.038-.018-.019-.046.011-.017.04-.017zm.278.1q-.037.02-.112.047-.074.028-.112.047-.056 0-.065-.019-.01-.018.028-.037l.26-.037zm.267-1.345q.864 0 .795.6h.186q0-.298.15-.298.223 0 .223.317t-.317.708q-.018.764-.018 1.174-.1.037-.193.037-.186 0-.348-.149.019-.074 0-.354-.015-.226-.33-.226-.074 0-.164.012-.07.01-.129.01-.332 0-.253-.318.28-.167.196-.232-.084-.066-.307-.084 0-.13-.205-.243.205-.484.41-.67.107-.059.216-.059.1 0 .203.05.214.102.456.158v-.112q-.149 0-.372-.14-.134-.084-.275-.084-.094 0-.191.038l.112-.13q.08-.005.155-.005zm.988-.745q.389 0 .822.162.625.233.625 1.388 0 1.156-.093 2.851h-.97q-.13-1.975-.018-2.292.26-.354.27-.764.01-.41-.196-.503-.102-.046-.223-.046-.121 0-.261.046-.075-.316-.95-.354.13-.354.661-.456.162-.032.333-.032zm-.64 3.414q.237.251.506.251.09 0 .183-.028 0 .112.056.876-.82-.056-1.025-.335l.28-.764zm-.41 1.21q.391.224.838.243-.074.075-.14.308-.065.232-.307.512t-.727.95q.019-.987.336-2.012zm-2.888 1.38q1.09.083 1.676.083.334 0 .504-.027l-.038.596q-.465.037-1.267.196-.544.107-.908.107-.172 0-.303-.024-.28-.298-.708-.354V6.43l1.044-.112zm6.25 1.947h.03q.502.01.502.307v2.516h-.354V9.764h-.354v4.36h-3v3.373h-3.26v-5.59h5.608q.03.003.057.003.297 0 .297-.376V8.571q0-.307.475-.307zm-.176 6.177v.186h-2.478v2.87h-.186V14.44zm0 .54v2.516H57.61l.019-2.516zm-1.211-9.428v2.199q.093 3.745-1.211 3.782H52.97q-.633.075-.727.671-.149 1.043-.503 1.91-.354.866-.69 1.966l.02.633q.447.783-.205.913h-2.386l-.018-.018q1.062-.298 1.612-.727t.717-2.003q.168-1.575.522-3.252.018-.969.726-1.136.615-.243 1.575-.42t2.58-.307V7.901q.485-.094 2.33-2.348zM52.747 0q-.354.745-.83 1.165-.475.419-.68.866-.205.447-.838 1.733.091.029.177.029.468 0 .736-.868.317-.428.512-.559.037-.024.07-.024.14 0 .2.453v2.46h-.521q0 .223.335.316-.149.205-.047.466.103.261.233.354v.503h-.503q0 .224.336.299-.15.223-.056.456.093.233.223.345v.559q-.186.112-.205.54-.018.168.094.503.074.261.298.261-.15-.596-.13-.764 0-.317.204-.317.187 0 .205.317 0 .168-.13.764.205 0 .28-.26.111-.336.092-.504 0-.428-.186-.54v-.578l1.062-.112q.604.03 1.062.03.686 0 1.044-.067v1.547q-1.23.093-2.199.27-.969.177-1.77.475-.857.335-.895 1.472-.316 1.677-.484 3.112-.168 1.435-.643 1.891-.475.457-1.481.773-.56.168-.54.615h3.298q.559-.056.614-.326.056-.27-.083-.596-.14-.326-.15-.699-.009-.372.476-1.733.559-1.099.624-1.835.065-.736.363-.885h.056V18h7.286v-6.596h.578V8.553q0-.671-.895-.671-.894 0-.894.69 0 2.962-.224 2.962h-.476q.427-.532.57-1.826v-4.64h.335q.149-1.714.149-3.14 0-1.425-.802-1.714-.54-.194-1.003-.194-.225 0-.431.045-.634.14-.802.475-.167.336-.26.653-.187.242-.41.652-.094.26.018.298.112.037.243.112-.15.056-.13.102.017.046.162.065l-.07.047q-.093.065-.018.112.074.046.074.214-.018.205.15.26l-.243.69h.522l.13-.652h.168q.149.205-.019.54-.372.504-.726 1.92-.336.018-1.305.14-.434.054-.771.054-.415 0-.682-.082-.447-.354-.578-.392V2.776q-.019-.559-.391-1.099.223-.429.568-.894.345-.466-.046-.783zm15.672 4.748q-.329 0-.53.219-.2.219-.2.493 0 .237.2.465.201.229.512.229.347 0 .538-.21.192-.21.192-.484 0-.292-.228-.502-.228-.21-.484-.21zm0-.165q.329 0 .612.256t.283.62q0 .33-.247.603-.246.274-.666.274-.384 0-.63-.292-.247-.292-.247-.584 0-.347.247-.612.246-.265.648-.265zm0-4.583q-.347 0-.402.712v3.123q.019.365-.2.675-.192.073-.375.073t-.356-.073l-2.958-.968q-.247-.056-.419-.056-.325 0-.385.203-.11.328.566.602l2.977.95q.347.11.566.438 0 .402-.237.694l-1.826 2.52q-.384.62-.11.803.073.054.161.054.24 0 .588-.4l1.826-2.52q.2-.311.584-.439.365.11.584.438l1.826 2.52q.348.401.578.401.084 0 .153-.054.274-.2-.092-.822l-1.844-2.52q-.237-.292-.219-.675.22-.329.584-.438l2.959-.95q.675-.274.566-.584-.073-.22-.406-.22-.167 0-.398.055l-2.976.968q-.174.064-.352.064t-.36-.064q-.238-.31-.22-.675V.712Q68.748 0 68.42 0zm-.039 12.413l.12.002h.063q2.27 0 4.33 1.952l-1.275 1.03q-1.193-1.139-3.118-1.139-1.925 0-3.118 1.14l-1.274-1.031q2.033-1.954 4.271-1.954zm.12 2.632q2.142.027 3.525 2.25h-7.077q1.085-2.223 3.552-2.25zm0-3.471q-3.362.136-5.666 2.766l1.925 1.626q-.814 1.085-1.004 2.034h9.463q-.19-.949-1.003-2.006l1.79-1.627q-2.143-2.657-5.505-2.793zM83.215 1.418q.043 0 .048.061.01.128-.07.266-.078.139-.157.198-.024.017-.035.017-.026 0 .015-.096.042-.097.016-.097-.012 0-.035.018-.027.02-.04.02-.026 0 0-.08.04-.118.119-.236.092-.071.139-.071zm-1.263.367q.157.02.295.06-.157.117-.335.137-.045.011-.085.011-.1 0-.171-.07.069-.12.123-.12l.015.002q-.08.177.118.177.197-.098.04-.197zm.926.197q.099.06.05.109-.025.024-.047.024t-.042-.024q-.04-.05.04-.109zm-.945-.312q-.066 0-.12.016-.197.06-.295.316.186.115.346.115.06 0 .117-.017.207-.059.404-.236l.276-.04-.02-.079-.275.04q-.259-.115-.433-.115zm1.331-.415q-.05 0-.12.037-.147.079-.246.286-.099.207-.02.306-.118.059-.128.167-.01.109.109.128l.019.002q.113 0 .276-.209.178-.227.217-.404.04-.177-.02-.266-.03-.047-.087-.047zm-.232-.926q.092 0 .191.006.76.05.878.651.118.602-.385 1.164-.234.262-.29.262-.065 0 .103-.341.316-.641.128-.986-.1-.186-.347-.186-.212 0-.53.137-.848-.099-.582-.424.231-.283.834-.283zm.203.863q.048 0 .097.011.217.05.118.375-.098.325-.296.562-.197.237-.128.463.07.227.345.286.04.474.414.868.888.907.632 2.05-.257 1.145-.415 1.618-.276.414-1.42.493-.197-1.44-.492-2.12-.296-.68.069-.858.364-.177 1.272-.63.523-.673-.6-.673l-.127.002q-.097-.585-.406-.585-.06 0-.13.023-.144.047-.247.047-.219 0-.246-.215.237-.158.129-.217-.109-.06-.306-.06.099-.177-.138-.255l.256-.632q.108-.129.35-.129.202 0 .498.09.178-.079-.158-.177-.186-.055-.366-.055-.144 0-.284.035.118-.296.256-.306h.018q.157 0 .751.148.036.062.092.062.067 0 .165-.091.137-.13.297-.13zm.61 6.824q.157 0 .295.139.217.276.434 1.755.06 1.262 0 1.952-.037.207-.67.207h-.06l-.203-.001q-.633 0-1.512.05.04-1.301.296-2.327.256-1.025.828-1.479.04-.02.296-.177.177-.119.296-.119zM83.195 0q-.402 0-.8.158-.621.247-.996 1.193-.079.335-.414 1.045-.035.23.072.23.013 0 .027-.003.046-.01.083-.01.075 0 .114.04-.06.059-.04.138.016.063.057.063.01 0 .022-.004.02-.005.03-.005.032 0-.02.044-.069.06.01.168.08.108.119.276.035.15.188.15l.038-.002q.188-.02.464-.099l.079.395q-.908.217-1.854 1.32-.631-1.044-1.814-2.306.02-1.026-.73-1.578-.276-.296-.365-.325-.024-.008-.043-.008-.05 0-.065.057-.119 0-.119.099-.078 0-.078.118-.119 0-.129.04-.01.039.07.118.808.769.847 1.104.023.09-.019.09-.031 0-.099-.05-.276-.513-.414-.553-.053-.02-.086-.02-.09 0-.032.158.157.138.315.493t.345.483q.188.129.306.168.276.789 1.4 2.228l-.631.296q-.592-.986-1.676-2.169.012-1.01-.75-1.558-.256-.296-.345-.325-.024-.008-.043-.008-.05 0-.065.057-.119 0-.119.099-.098 0-.098.098-.099 0-.109.05-.01.049.07.128.808.769.847 1.104.023.09-.025.09-.037 0-.113-.05-.256-.513-.414-.553-.052-.02-.084-.02-.087 0-.014.158.157.138.315.493t.345.484q.188.128.306.167.69 1.637 1.637 2.583.08.026.184.026.298 0 .782-.213.65-.286.976-.434.325-.148.72-.424.276.276.434.78.158.502.276 1.646-.611.079-.572.335-.04.256.256.296l-.295.769.63.02q-.197.552-.374 1.252-.178.7-.178 1.587-.078 1.046-.108 1.5-.03.453-.01 1.064.02.276-.099.77-.118.492-.276 1.084-.256.315-1.094.483-.838.168-1.075.365 0 .177.434.434.209.123.473.123.284 0 .631-.143.67-.276.967-.276.61 0 .335-.986.907-2.09.769-2.919.315-.808.375-1.203l.887-.02q.099.69.375 1.38.236 1.874.315 2.584-.591.67-1.34.848-.73.197-.671.434.355.29.802.29.223 0 .47-.073.74-.217 1.153-.316.414-.098.276-.552-.039-.335-.039-.71.335-2.09-.02-2.682-.059-.63-.059-1.873-.02-1.42-.118-2.011.02-.474-.473-2.19.335-1.3.473-2.346.138-1.045-.789-1.755-.335-.296-.394-.848.493-.355.7-.858.207-.503.04-1.045-.169-.542-.8-.68-.226-.05-.451-.05zm8.865 11.76l.105.001h.054q1.97 0 3.756 1.693l-1.106.894q-1.034-.988-2.704-.988-1.67 0-2.705.988l-1.105-.894q1.763-1.694 3.705-1.694zm.105 2.282q1.858.024 3.057 1.952h-6.138q.94-1.928 3.08-1.952zm0-3.01q-2.916.118-4.915 2.399l1.67 1.41q-.706.942-.87 1.765h8.207q-.165-.823-.87-1.74l1.552-1.412q-1.858-2.304-4.774-2.422z"/><path d="M97.248.634q-.372 0-.372.438 0 .371.372.371.393-.022.393-.415 0-.394-.393-.394zM95.805.92v.393l-.852.153q.393-.415.852-.546zm.044.524q.503.394.175.59-.503-.175-.743-.459l.568-.13zm1.53-1.005q1.027 0 1.64.787.611.786.655 2.426 1.596.328 2.12 1.442.085.722-.325.722h-.024q-.438-.022-.689-.24-.091-.08-.138-.08-.081 0-.026.243.088.383.962.93.874.546.142.906-.182.09-.387.09-.622 0-1.46-.822-1.115-1.093-1.18-1.661-.066-.568.459-1.05.312-.285.214-.285-.067 0-.324.133-.634.328-.666.961-.033.634.502 1.388.536.754 2.11 1.913.16.084.364.084.432 0 1.057-.38.918-.556-.919-1.715.678-.175.7-.59.852.284 4.787 5.29 1.049.699 1.07 1.027-.021.306-.327.371-.066.014-.133.014-.248 0-.523-.188-1.224.59-2.371.612h-.12q-1.067 0-1.771-.372.721.634.503 1.333-.106.34-.16.34-.059 0-.059-.383 0-.744-1.902-1.421v.83q-.111.47-.178.47-.063 0-.084-.426-.131-.94-.623-2.022-.492-1.082-1.563-2.994-1.07-1.913-1.366-2.754-.295-.842-.273-1.563.022-.722-.295-1.06-.317-.34-.186-.733.131-.393-.393-.743V.897q.568-.46 1.18-.46zm4.153 12.59q1.071.306 1.071.721l-.721 2.689q-.088.48-.59.48h-.875v-.043l1.115-3.41v-.437zM97.458 0h-.079q-.852 0-1.727.7-.502.175-1.027.809.721.655 1.311.808.066.306.416.853.022 1.443.393 2.393.372.951 2.492 5.104 1.05 2.186 1.05 2.689 0 .765-.963 3.431 0 .153-1.311.24-1.967.066-1.967.547 0 .284.262.284h5.814q.547-.437.612-.743.525.219.569.59.073.295.209.295.025 0 .053-.01.175-.066.175-.285-.153-.59-.765-1.136l.7-2.951q2.12-.066 3.693-.678.292.066.534.066.486 0 .778-.262.437-.394-.175-1.224-1.334-1.334-2.536-2.93-2.47-3.038-3.388-3.518-.306-.634-.732-1.006-.426-.371-1.541-.918-.022-1.29-.601-2.23Q99.14 0 97.457 0z"/></svg>