<svg xmlns="http://www.w3.org/2000/svg" width="169.387" height="18"><path d="M5.454.386c.221 0 .566.052.757.104.832.223-.005.968-.54.968a.513.513 0 0 1-.073-.005c-.353.074.06.199.502.199.272 0 .555-.047.681-.18.072-.077.131-.108.182-.108.185 0 .258.417.406.623.74.245 1.203.913 1.682 1.486 1.377 1.65 2.617 3.405 3.917 5.115-.357-.105-.743-.31-1.097-.48-1.62-.783-3.347-1.401-4.814-2.455-.732-.525-1.712-1.134-1.793-2.056-.061-.702 1.227-1.337 1.134-1.717-.011-.044-.043-.064-.09-.064-.274 0-1.077.688-1.288 1.09-.081.155-.14.217-.182.217-.146 0-.077-.757.014-.93.31-.589-.628-1.325-.1-1.664-.016.088.002.337.312.337.325 0 .305-.4.205-.453a.435.435 0 0 1 .185-.027zm.616 5.477c.254.9.626 1.766 1.065 2.59.217.405 1.13 1.049.485 1.377a.194.194 0 0 1-.052.007c-.257 0-.519-.495-.855-.517a12.843 12.843 0 0 0-.265-1.873c-.103-.505-.36-1.176-.378-1.584zm.705.597c.795.576 1.63 1.093 2.472 1.6.222.497.034 1.222.149 1.805-.538-.363-1.112-.378-1.457-1.066-.385-.766-1.019-1.494-1.164-2.34zM7 10.06c.134.235.335.383.538.383.16 0 .32-.091.45-.304.186.205.23.926.23 1.325.002.411-.214.446-.465.446l-.155-.002a.93.93 0 0 0-.278.032.453.453 0 0 1-.138.02c-.197 0-.423-.095-.636-.095-.02 0-.04 0-.06.002.001-.52.36-1.225.514-1.808zm1.603-2.968c1.69.766 3.36 1.59 5.054 2.351.648.679 1.239 1.448 1.96 2.049.538.45-.155.358-.474.418-.244.046-.492.08-.738.116-.87-.87-1.745-1.738-2.58-2.641-.909-.982-2.145-1.538-3.222-2.293zm-.512 5.693c1.105 0 2.211.013 3.316.042.556.014 1.197-.023 1.695.164-.658.042-2.304.058-4.042.058a201.337 201.337 0 0 1-5.037-.05c-.51 0-.097-.173.188-.173a.55.55 0 0 1 .076.005c1.267-.03 2.535-.046 3.804-.046zm-4.862.743c.75.01 1.5.02 2.25.045.495.017.989.023 1.483.023 1.398 0 2.796-.05 4.192-.05.188 0 .375.001.562.003-1.161.634-2.421 1.17-3.766 1.214-.152.005-.3.008-.445.008-.76 0-1.443-.08-2.196-.351-.656-.236-1.506-.523-2.08-.892zm6.649 1.558a.144.144 0 0 0-.078.02c-.256.16.368 1.331.895 1.613.04.021.078.03.115.03.192 0 .33-.259.247-.445-.214-.48-.87-1.218-1.18-1.218zm-4.848.055c-.042 0-.105.026-.194.086-.432.29-1.443 1.067-.823 1.496a.22.22 0 0 0 .129.042c.224 0 .442-.354.556-.556.12-.21.574-1.068.332-1.068zm4.06.177c-.274 0 .026 1.476.502 1.79.031.022.07.031.109.031.106 0 .222-.069.242-.173.123-.637-.473-1.61-.846-1.647a.08.08 0 0 0-.008 0zm-3.278.017c-.05 0-.13.062-.244.216-.302.408-1.043 1.256-.436 1.571.04.021.078.03.114.03.254 0 .4-.478.49-.72.081-.222.268-1.097.076-1.097zm2.271.162c-.023 0-.043.012-.06.037-.245.368-.164 1.491.42 1.817a.196.196 0 0 0 .097.026c.172 0 .306-.25.276-.423-.07-.41-.517-1.457-.733-1.457zm-1.329-.011a.1.1 0 0 0-.058.023c-.391.291-1.017 1.466-.379 1.845.035.02.068.03.101.03.191 0 .35-.31.375-.504.04-.334.162-1.394-.039-1.394zm.655-.018a.08.08 0 0 0-.038.01c-.324.174-.62 1.573-.014 1.945a.175.175 0 0 0 .092.028c.164 0 .306-.252.306-.421-.002-.46-.123-1.562-.346-1.562zM5.632 0c-.205 0-.408.02-.598.054-.567.104-1.44.31-1.43.996a.711.711 0 0 1 .192-.028c.55 0 .663.789.553 1.27-.225.98.26 1.965.898 2.707.425 1.269.96 2.595.954 3.928-.003.556.408.592.256 1.158-.136.51-.373 1.566-.883 1.69a2.18 2.18 0 0 1-.182.007c-.323 0-.663-.056-.984-.056-.254 0-.497.036-.71.162-.444.264-.778.46-1.31.46l-.071-.001-.078-.002c-.895 0-1.953.472-2.118 1.411-.244 1.391-.044 2.827-.036 4.233.205.005.412.011.618.011.163 0 .325-.004.487-.016-.076-.844-.133-1.694-.079-2.539.039-.601-.113-1.44.465-1.781a.738.738 0 0 1 .383-.107c.506 0 1.005.499 1.472.712 1.306.596 2.697 1.036 4.147 1.036h.1c1.756-.025 3.375-.751 4.878-1.576a.616.616 0 0 1 .41-.148c.28 0 .562.17.622.463.262 1.292.154 2.632.067 3.94.157.012.315.015.473.015.156 0 .313-.003.47-.003.052 0 .105 0 .158.002.008-.911.089-1.823.047-2.733-.033-.721.107-1.55-.417-2.143-.68-.771-1.763-.76-2.704-.825a1.712 1.712 0 0 0-.117-.004c-.125 0-.257.01-.386.01a.973.973 0 0 1-.439-.08c-.294-.302-.66-.36-1.04-.36-.228 0-.462.021-.689.021a2.75 2.75 0 0 1-.22-.008c-.043-.588-.075-1.177-.107-1.766a.155.155 0 0 1 .111-.045c.294 0 .78.686 1.034.686.076 0 .13-.06.154-.217.094-.642-.155-1.343-.146-2.018h.016c.285 0 .766.368 1.053.617.898.779 1.67 1.717 2.513 2.566.334.38.681.803 1.163.803.13 0 .269-.031.42-.101.48-.223 1.5.065 1.609-.544-.462-.54-.994-1.018-1.47-1.547.58.274 1.144.678 1.747.941a.77.77 0 0 0 .24.078c.18 0-.489-.521-.668-.602-.665-.3.624-.188.098-.605-1.155-.915-2.466-1.648-3.699-2.473-.79-.998-1.506-2.067-2.3-3.068-.66-.774-1.221-1.636-1.941-2.356C8.175 1.783 7.525 1.66 7.48.937 7.138.252 6.37 0 5.632 0zm34.843 1.718zm-.004.24zm-18.668-.917v1.416c-.21-.097-.417-.187-.613-.283a1.969 1.969 0 0 0-.563-.158c-.16-.025-.328-.041-.478-.072a.556.556 0 0 1-.238-.086c-.019-.015-.033-.035-.033-.11 0-.074.014-.093.033-.109a.556.556 0 0 1 .238-.086c.15-.03.317-.047.478-.072a1.96 1.96 0 0 0 .563-.157c.196-.097.403-.187.613-.283zm0 1.416zm.72.101zM35.577.935c.14 0 .279.002.419.005.782.018 1.954.206 2.924.449.48.12.909.252 1.215.383.047.02.09.04.13.059a2.8 2.8 0 0 1-.115.046 8.515 8.515 0 0 1-1.214.321c-.975.198-2.153.34-2.94.36-.14.003-.28.004-.42.004-1.416 0-2.828-.161-4.24-.325-1.506-.176-3.013-.354-4.527-.354l-.23.001c-1.324.017-2.844.164-4.056.674V.94c1.212.51 2.732.658 4.056.674l.23.001c1.514 0 3.02-.178 4.527-.353 1.412-.164 2.824-.326 4.24-.326zM22.246 0l-.174.1c-.402.231-.824.393-1.2.578a1.255 1.255 0 0 1-.355.092c-.173.026-.35.045-.513.078a1.248 1.248 0 0 0-.554.238.827.827 0 0 0-.292.663c0 .288.11.51.292.662.146.122.34.194.554.238.162.033.34.052.513.079.13.02.256.043.355.092.376.185.798.346 1.2.578l.173.1.177-.095c1.166-.627 2.791-.782 4.166-.799l.223-.001c1.485 0 2.965.177 4.443.349 1.44.167 2.88.33 4.326.33.144 0 .288-.002.432-.005.83-.02 2.05-.167 3.068-.373a9.207 9.207 0 0 0 1.323-.353 2.14 2.14 0 0 0 .46-.226.805.805 0 0 0 .186-.172.514.514 0 0 0 .11-.311.522.522 0 0 0-.106-.307.846.846 0 0 0-.179-.176 2.267 2.267 0 0 0-.456-.249 9.184 9.184 0 0 0-1.323-.42C38.073.435 36.848.24 36.012.22a18.37 18.37 0 0 0-.432-.005c-1.445 0-2.886.163-4.326.33-1.478.173-2.958.35-4.443.35l-.223-.002c-1.375-.017-3-.172-4.166-.798L22.246 0zm1.782 7.137c.215.147.2.228.177.316-.029.114-.377.191-.536.191-.044 0-.073-.006-.076-.019 0-.103.17-.37.435-.488zM22.24 9.485c-.221 0-.332.118-.332.354 0 .294.133.442.398.442h.022c.31 0 .568-.118.775-.354v-.133c0-.103-.863-.31-.863-.31zm2.863-1.786c.323.262-.266 1.002-.615 1.757l-.122.26c.61-.387.926-1.138.926-1.138.148.234-.332.872-.185 1.061.162.576.823 1.27-.663 2.683-.193.118-2.403 1.298-2.58 1.298-.133 0-.229-.103-.553-.397l.664-.531v-.155l-.023-.022h-.132c-.221 0-.502.14-.84.42-.31-.324-.442-.5-.604-.721.275-.217.385-.367.369-.569.04-.25-.127-.289-.255-.289-.06 0-.111.009-.13.009v.177c-.044.088-.14.162-.288.22-.059 0-.088-.198-.088-.198 0-.103.236-.428.708-.973 1.297-1.593 2.299-2.404 3.154-2.404l.194.015c-.327.206-.176.554-.176.554.343-.303.9-.928 1.239-1.057zm.9 1.074h.006c2.24 2.151 2.58 3.615 2.594 8.523l-3.795.06-.053-3.948c0-.265.058-.584.294-.716 1.591-1.23.785-3.094.68-3.302-.04-.472.145-.617.274-.617zM24.09 6.642c-.133 0-.426 0-.723.323-.264.286-.35.828-.86 1.013-.511.349-.85.712-1.174 1.046-1.298 1.416-1.732 1.91-1.747 2.19-1.034.844.082 1.343.421 1.538 1.106 1.283.917 1.192 1.391 1.401.171.046.27.085.357.085.095 0 .176-.045.322-.174.162 0 1.901-.84 1.901-.84.192 0 .273.633.273 2.078-.018.993-.122 2.633-.007 2.633l.007-.001.044.066h5.02l.023-.022-.067-1.46c-.103-1.828.639-6.419-3.61-8.788.05-.296-.19-.62-.49-.62-.15 0-.317.081-.47.288-.027-.357-.18-.728-.611-.756zm11.757.495c.216.147.2.228.177.316-.028.114-.377.191-.535.191-.045 0-.074-.006-.077-.019 0-.103.17-.37.435-.488zm-1.789 2.348c-.22 0-.332.118-.332.354 0 .294.133.442.399.442h.022c.31 0 .567-.118.774-.354v-.133c0-.103-.863-.31-.863-.31zm2.863-1.786c.323.262-.266 1.002-.615 1.757l-.121.26c.609-.387.926-1.138.926-1.138.147.234-.333.872-.186 1.061.162.576.823 1.27-.663 2.683-.193.118-2.403 1.298-2.58 1.298-.132 0-.228-.103-.553-.397l.664-.531v-.155l-.022-.022h-.133c-.221 0-.501.14-.84.42-.31-.324-.441-.5-.604-.721.275-.217.386-.367.369-.569.041-.25-.126-.289-.255-.289-.06 0-.111.009-.13.009v.177c-.044.088-.14.162-.287.22-.06 0-.089-.198-.089-.198 0-.103.236-.428.708-.973 1.298-1.593 2.3-2.404 3.155-2.404l.193.015c-.327.206-.176.554-.176.554.343-.303.9-.928 1.239-1.057zm.9 1.074h.006c2.24 2.151 2.581 3.615 2.594 8.523l-3.795.06-.053-3.948c0-.265.058-.584.294-.716 1.591-1.23.785-3.094.68-3.302-.039-.472.146-.617.274-.617zm-1.91-2.131c-.133 0-.427 0-.724.323-.264.286-.349.828-.86 1.013-.511.349-.85.712-1.174 1.046-1.298 1.416-1.732 1.91-1.747 2.19-1.034.844.082 1.343.421 1.538 1.106 1.283.917 1.192 1.391 1.401.172.046.27.085.358.085.094 0 .175-.045.32-.174.163 0 1.902-.84 1.902-.84.192 0 .273.633.273 2.078-.018.993-.121 2.633-.007 2.633l.007-.001.044.066h5.021l.022-.022-.066-1.46c-.103-1.828.638-6.419-3.611-8.788.05-.296-.189-.62-.49-.62-.15 0-.317.081-.47.288-.027-.357-.18-.728-.61-.756zM48.563 0c-.12 0-.128.377-.3.935-.194.635-.337 1.962-.788 2.22a.397.397 0 0 1-.204.052c-.133 0-.269-.05-.417-.05a.545.545 0 0 0-.169.025c-.21.068-.322.397-.544.436-.922.16-2.183.1-2.888.163-.452.04.756.93 1.965.93h.05c.252-.005.517-.017.78-.017.44 0 .877.032 1.237.18.352.146.767.567.762.981L47.901 18h1.358L49.19 4.281c-.002-.368 1.06-.618 1.2-.936.242-.553.118-2.995-.272-3.323a.021.021 0 0 0-.014-.006c-.176 0-.505 2.56-1.022 3.111-.052.056-.156.082-.246.082-.097 0-.178-.03-.162-.082.328-1.118.46-2.749-.055-3.105A.102.102 0 0 0 48.563 0zm5.668 0c-.93 0-1.745.684-1.745 1.562V18h1.136V1.562c0-.43.379-.57.616-.57.25 0 .634.175.634.703v10.804h1.136V1.695c0-.88-.87-1.695-1.777-1.695zm21.146 6.563q.27.316.27 1.566 0 1.076-.333 1.835-.743-.76-.775-1.835.016-1.25.838-1.566zm-2.01-.202q.771 0 .935.281-.095.807-.649 1.186-.316.301 0 .665.554.427.665 1.313 0 .443-1.44.443t-4.319-.222q-.98-.11-2.198-1.17-1.408-1.076-2.468-1.282h-.016q-.504 0-1.345.965-.854.981-1.645 2.61h-1.55q.142-.348 2.175-2.325 1.985-1.931 2.364-1.931l.017.001q1.06.27 1.772.83.41.325.837.325.313 0 .634-.174 2.626-.997 4.753-1.36.907-.155 1.479-.155zm1.685-.65q-.296 0-.719.108-2.894.048-5.774.902-.806.269-2.088.823-1.344-.981-2.578-1.17l-.014-.001q-.382 0-1.307.87-.941.886-2.966 2.927-1.17 1.218-1.598 2.088v.031h2.484v-.759h.775q.87-2.009 1.598-2.768.623-.651.933-.651.052 0 .095.018 1.123.348 1.82.933.695.586 1.55 1.092.854.506 2.515.577.996.043 2.448.043.968 0 2.14-.019.367.092.637.092.472 0 .643-.282.554-1.36.554-2.436 0-1.266-.554-2.183-.16-.235-.594-.235zM81.026.72c.67.051 1.246.203 1.726.456-.632.746-1.207 1.764-1.726 3.054-.53-1.29-1.113-2.308-1.745-3.054.493-.24 1.075-.392 1.745-.455zm0 4.894c.392 3.655.6 6.616.626 7.704-.025 1.846-.234 3.072-.626 3.68-.404-.608-.613-1.834-.626-3.68.013-1.1.222-4.062.626-7.704zm0-5.614c-1.29 0-2.232.392-2.826 1.176.898.746 1.619 1.903 2.162 3.47 0 .709-.142 2.634-.426 4.594-.285 1.96-.351 4.134-.2 6.524.326 1.49.717 2.236 1.172 2.236a.443.443 0 0 0 .118-.017.45.45 0 0 0 .119.017c.455 0 .845-.745 1.17-2.236.14-2.39.067-4.564-.217-6.524-.285-1.96-.427-3.885-.427-4.593.556-1.568 1.283-2.725 2.181-3.471C83.245.392 82.303 0 81.026 0zM87.2 7.458v1.656c-.566 0-.85-.283-.85-.848 0-.539.284-.808.85-.808zM89.293 0c-.463 0-.855.116-1.176.35-.613.443-.919 1.09-.919 1.938v4.584c-.942 0-1.42.465-1.434 1.394 0 .942.478 1.413 1.434 1.413V18h.746V2.732c0-1.023.2-1.68.596-1.969.206-.15.476-.225.839-.225.337 0 .753.065 1.273.195a.65.65 0 0 0 .212.043c.11 0 .188-.048.232-.144.013-.162-.108-.276-.364-.343C90.195.096 89.715 0 89.294 0zm5.151 7.458v1.656c-.566 0-.849-.283-.849-.848 0-.539.283-.808.849-.808zM96.539 0c-.464 0-.856.116-1.176.35-.613.443-.92 1.09-.92 1.938v4.584c-.942 0-1.42.465-1.433 1.394 0 .942.478 1.413 1.434 1.413V18h.746V2.732c0-1.023.199-1.68.596-1.969.206-.15.476-.225.838-.225.337 0 .754.065 1.273.195a.65.65 0 0 0 .212.043c.111 0 .189-.048.232-.144.014-.162-.107-.276-.363-.343C97.439.096 96.96 0 96.538 0zm5.149 7.458v1.656c-.565 0-.848-.283-.848-.848 0-.539.283-.808.848-.808zM103.783 0c-.463 0-.855.116-1.176.35-.612.443-.919 1.09-.919 1.938v4.584c-.942 0-1.42.465-1.434 1.394 0 .942.478 1.413 1.434 1.413V18h.747V2.732c0-1.023.198-1.68.595-1.969.206-.15.476-.225.839-.225.337 0 .754.065 1.273.195a.65.65 0 0 0 .212.043c.111 0 .188-.048.232-.144.013-.162-.108-.276-.363-.343-.539-.193-1.019-.289-1.44-.289zm7.489 3.071c-.27.13-.6.49-.1.55.24-.01.79-.26.69-.49a.221.221 0 0 1-.157.067c-.142 0-.287-.127-.433-.127zm-1.97.09c-.33.08-.5.44-.08.52l.021.002c.242 0 .901-.294.359-.361-.09-.06-.18-.16-.3-.16zm2.63-2.51c.59.69 1.111 1.49 1.211 2.41.1.66.13 1.321.23 1.971-.47-.04-.33-.77-.24-1.12.08-.69-.29-1.33-.55-1.941-.18-.33-.35-.85-.81-.86-.51.09-.84.52-1.171.89-.34-.34-.7-.71-1.17-.85a.236.236 0 0 0-.082-.013c-.105 0-.229.046-.285.046-.05 0-.049-.034.056-.164.064-.224.196-.29.359-.29.238 0 .543.141.8.141a.561.561 0 0 0 .112-.01c.084.004.169.007.254.007.437 0 .876-.067 1.287-.218zm-.16.76c.39.1.48.64.67.96.241.56.531 1.17.341 1.801-.15.3.04.68.02.9-.334.235-.627.73-1.07.73a.631.631 0 0 1-.15-.02c-.44-.09-.66-.51-1.001-.71-.246.238-.392.73-.798.73a.618.618 0 0 1-.182-.03c-.37-.08-.86-.04-.971-.49-.19-.46-.21-.97-.24-1.47a.324.324 0 0 0 .061.006c.202 0 .22-.235.24-.436.077-.293.287-.429.52-.429.157 0 .325.062.47.178.17.19.69.34.58.64-.05.18-.11.371-.17.561l.42.56c.04-.29.47-.53.22-.82-.04-.13-.19-.3-.17-.4.18-.32.42-.6.7-.84a.322.322 0 0 1 .23-.103c.268 0 .537.351.77.382.23-.25-.02-.35-.25-.48a.701.701 0 0 0-.486-.196c-.25 0-.5.13-.654.356-.19.114-.322.494-.49.494-.052 0-.108-.037-.17-.134-.306-.244-.672-.518-1.072-.518a.855.855 0 0 0-.179.018c-.283.059-.537.632-.559.632l-.001-.001c-.01-.47.21-.89.34-1.351a.612.612 0 0 1 .596-.477c.173 0 .348.075.475.237.297.11.516.634.796.634.05 0 .1-.017.154-.054.31-.33.56-.72 1.01-.86zm-1.42 6.943c1.27 1.31 2.441 4.632 2.741 5.993-.49-.4-1.16-.66-1.31-.91-.16-.26-.6-2.792-1.431-5.083zm4.522-2.381c2.401 1.38 6.583 8.174 7.474 9.264-1.501-.95-2.982-1.91-4.593-2.691-2.26-1.11-4.192-2.911-6.032-4.592 1.52-.51 2.61-1.37 3.151-1.981zm-2.491 8.624c.32.19.61.45.96.59-.21.52-.34 1.1-.77 1.51-.08.13-.196.172-.328.172-.227 0-.504-.123-.735-.123-.016 0-.032 0-.048.002.28-.7.7-1.01.92-2.151zm.68-9.365c.06.126.138.167.22.167.108 0 .224-.071.32-.116.24.17 1.07.15.58.51-.31.42-1.967 1.566-3.118 1.768-.497.087.337.873.607 1.153 1.561 1.4 3.092 2.882 4.963 3.892 1.17.66 2.401 1.25 3.532 1.98.54.781 1.18 1.502 1.59 2.362-.41.12-.81.29-1.23.39a2.89 2.89 0 0 1-.703.082c-.66 0-1.325-.197-1.618-.512-.54-.57-1.13-3.001-1.441-3.892-.044-.1-.107-.133-.175-.133-.135 0-.291.132-.369.132-.016 0-.028-.006-.036-.019a.391.391 0 0 0-.387-.376c-.175 0-.339.127-.314.396-.06.63-.18 1.26-.48 1.831-.037.097-.113.134-.215.134-.284 0-.76-.293-1.086-.374.13-.77-.92-4.712-4.001-8.014-.108-.116-.578-.611-.537-.611.005 0 .017.006.036.02.158.042.336.07.512.07.337 0 .668-.104.839-.42.026-.077.059-.108.097-.108.137 0 .344.399.563.399a.92.92 0 0 0 .514.155c.29 0 .578-.131.777-.355.19-.17.37-.34.56-.51zM112.023 0c-.315.14-.865.28-1.36.28-.072 0-.142-.004-.211-.01a.804.804 0 0 1-.143.012c-.337 0-.699-.18-1.025-.18a.622.622 0 0 0-.353.098c-.55.8-1.05 1.69-1.11 2.681-.11 1.901-.06 2.562 1.44 4.122.59 1.341 1.691 5.713 2.021 6.904.36.34-.45 2.2-.79 2.66-.185.256-.673.268-1.197.268h-.172c-.471 0-.948.01-1.242.193-.28.18-.38.85-.22.94.15-.23.45-.54.66-.57-.2.21.5.11.65.16.405.007.814.041 1.225.041.198 0 .397-.008.596-.03.09-.04.187-.102.229-.102.032 0 .032.038-.029.151.283.074.602.111.913.111.7 0 1.363-.187 1.508-.56.3-.551.58-1.131.78-1.732.256.054.577.234.835.234a.38.38 0 0 0 .206-.054c.28-.19.57-1.08.73-1.67.016-.062.1-.092.184-.092.08 0 .162.028.187.082.3.6.8 2.44 1.28 3.211.363.571 1.241.852 2.175.852a4.48 4.48 0 0 0 1.717-.332c.65-.28 1.13-.22.99-.58-.22-.6-.6-1.17-1-1.68.58.36 1.16.73 1.741 1.09.048.174.168.243.291.243.237 0 .483-.256.24-.513-2.272-3.282-5.884-8.875-8.385-10.685-.4-.35-.87-.62-1.39-.75-.17-.44-.12-1.031-.22-1.531-.1-.99-.7-2.632-1.751-3.262zm23.752 3.402c1.027 0 1.677.562 1.948 1.687h-3.926c.272-1.125.93-1.687 1.978-1.687zm0-.465c-1.493 0-2.336.882-2.53 2.646h5.06c-.194-1.764-1.038-2.646-2.53-2.646zm2.588-2.152V6.67c-1.162.05-2.287.147-3.164.299-.714.067-1.38.09-2.07.096V.785zm-9.802 6.631l-.001.94-.5-.05-.27-.029c-.577-.137-.87-.276-1.026-.387.145-.104.43-.233 1.032-.386.262-.03.503-.059.765-.088zm9.802-.046v.997a171.654 171.654 0 0 1-3.045-.165c-.631-.04-1.246-.09-2.19-.107v-.33c.716-.006 1.408-.03 2.15-.1l.014-.002.013-.002c.842-.146 1.93-.24 3.058-.29zm-8.894.09c.205.047.355.113.56.168.268.072.998.127 1.113.127h.01l1.133.01v.326a52.808 52.808 0 0 0-1.183.02c-.023 0-.693.055-1.016.125-.222.049-.402.105-.624.153l.007-.93zm10.905-.133c1.626 0 3.064.086 3.634.235a.97.97 0 0 1 .41.204c.051.05.071.09.07.128-.001.045-.03.096-.092.156-.089.087-.233.17-.43.234-.446.118-1.345.164-2.461.164-.336 0-.692-.004-1.06-.012-.4-.008-.816-.02-1.239-.035V7.34c.394-.01.786-.014 1.168-.014zm-7.246 1.469c.93.016 1.53.067 2.146.105.978.06 2.042.12 3.089.167v1.226h-3.49v6.863h-1.745V8.796zm5.235 2.341v6.02h-2.646v-6.02zM132.285 0v7.064l-1.153-.009h-.008c-.096 0-.703-.047-.912-.103-.233-.063-.548-.19-.783-.242l.006-.527-.843-.006-.014.517c-.279.031-.621.087-.884.117l-.023.002-.022.006c-1.334.335-1.476.645-1.644.89l-.138.2.14.2c.167.235.464.578 1.644.855l.02.005.021.002.291.032.56.054-.008.724h.933l.01-.703c.231-.049.526-.107.757-.157a8.781 8.781 0 0 1 .87-.11c.44-.012.83-.018 1.18-.02V18h6.921V9.102c.418.015.829.027 1.224.035.355.007.698.01 1.024.01 1.205 0 2.19-.053 2.71-.192.319-.104.554-.241.72-.402a.932.932 0 0 0 .304-.64.868.868 0 0 0-.286-.652c-.165-.158-.403-.29-.712-.376-.628-.163-2.147-.258-3.85-.258-.372 0-.752.005-1.134.014V0zm21.762.364q.165 0 .273.206.168.27-.236.454-.42.202-.286.69l.404 1.666q-.42.05-.707.403V1.714q0-1.06.286-1.245.148-.105.266-.105zm-.939 3.779v.626l-1.38-.144q.034-.169.514-.345.353-.13.866-.137zm.589.037q.62.122.926.748l-1.094-.115v-.239q0-.118.135-.353.015-.021.033-.041zm1.814.703q-.098 0-.266.297.42-.152.32-.27-.024-.027-.054-.027zm-3.917.01l1.514.156v.143q-.024.001-.05.005-.286 0-.337.336-.033-.269-.31-.395-.127-.058-.331-.058-.246 0-.604.083.017-.168.118-.27zm.185.842q.168 0 .286.067-.067.118-.219.202.068-.084.06-.168-.009-.084-.127-.1zm-.134.017q-.05.1-.042.16.008.059.092.11-.1 0-.202-.051.017-.118.152-.22zm.084-.084q-.253 0-.32.353.135.084.353.084.236 0 .37-.252h.421v-.135l-.42.034q-.169-.084-.404-.084zm3.787-.89q.073 0 .133.065.185.202-.32.438.522.79.539 1.884l-.135.017q0-1.094-.454-1.834l-.034.034q.336.706.336 2.338h-.134q-.118-1.632-.202-2.019l-.151-.555q.249-.367.422-.367zm-3.555.516q.165 0 .306.046.337.11.337.462h.218q.05-.302.202-.302.152 0 .067.302l-.47.74v1.582l-.051.017q-.084-.118-.168-.294-.084-.177-.135-.48l-.505-.017q-.269 0-.269-.134 0-.253.253-.286 0-.135-.085-.135l-.336-.017q.1-.219-.202-.303 0-.134.286-.605v-.286l.05.084q.202-.118.337-.118t.387.101h.303v-.118h-.303q-.219-.151-.387-.151-.185 0-.387.151 0-.134.05-.151.274-.088.502-.088zm1.568-.202l1.194.122q.034.084.186.572.218.639.168 4.61l-2.12.016V6.593q.118-.168.303-.471.185-.303.176-.64-.006-.248-.21-.285h.303v-.105zm-.909 3.756v1.934h1.8q-.016 1.027-.193 2.49-.177 1.464-.446 2.482-.269 1.018.37 1.657h-4.98q.185-.185.244-.622.06-.438-.395-1.464l-1.262-3.82q-.084-.352.21-.546.099-.064.196-.064.194 0 .385.258l1.7 2.54.655.808q.169.117.298.117.258 0 .358-.47.606-1.38.455-3.366-.59-.639.605-1.934zM154.067 0q-.226 0-.504.183-.455.303-.455 1.783v1.83q-.48.023-.807.097-.488.11-.791.47-.303.363-.303 1.002-.084.27-.033.505-.27.504-.27.69 0 .1.236.1l-.034.152q.017.084.101.1-.067.068-.033.152l.117.05q-.117.455.387.455h.337q.033.32.387.875-.017.017-.32.412-.303.395-.606.934-.302.538.118 1.06.118 1.716-.521 3.146l-2.204-3.23h-.017q-.286-.378-.705-.378-.197 0-.422.083-.707.26-.522.883 1.75 5.165 1.7 5.519-.051.353-.497.622-.446.27-.227.505h6.679q.337-.151 0-.471-.875-1.06-.564-2.036.312-.976.547-4.71h.623V9.671q.017-1.026 0-1.75.117-.017.286-.084l-.017-.505.303-.016q0-1.245-.539-1.969.59-.219.253-.606-.124-.142-.255-.142-.208 0-.435.361-.452-.833-.99-1.077.225-.125.536-.218l-.471-2.002q-.05-.236.302-.455.472-.32.186-.807-.221-.402-.556-.402zm9.645.601c1.074 0 2.418.552 3.069 1.202.569.57.643 1.324.664 2.025h-7.435c.02-.7.095-1.455.664-2.025.65-.65 1.964-1.202 3.038-1.202zm0-.601c-1.275 0-2.645.589-3.449 1.392-.824.824-.917 1.91-.917 2.72v.317h8.732v-.316c0-.812-.062-1.897-.886-2.72C166.388.588 164.986 0 163.712 0zm-5.676 12.837V18h4.043v-.607h-3.436v-3.949h10.137v3.949h-3.075V18h3.682v-5.163z"/></svg>