<svg xmlns="http://www.w3.org/2000/svg" width="51.563" height="18"><path d="M11.724 2.584q.07 0 .151.028.212.075.157.273-.054.199-.246.24-.038.008-.077.008-.158 0-.333-.131 0-.22.144-.342.089-.076.204-.076zm2.658 2.44q1.066.054 2.904 1.134 1.838 1.08 2.658 1.708-.957-.342-1.708-.342-2.269 0-3.225-.56t-.956-.813q0-.253.109-.253.929 0 1.011-.437l-.219-.068q-.185.212-.66.212h-.043q-.485 0-.485.512 0 .52 1.045 1.093 1.045.574 2.562.574.902 0 1.441.26.54.26.759.464l-.738.137q-.164-.342-1.735-.342-.93 0-1.367-.52h-.232q.656.547.642 1.012-.007.236-.038.236t-.085-.222q-.11-.451-1.27-.697-.032.355-.089.355-.067 0-.171-.505-.137-.342-1.216-1.018-1.08-.677-1.107-.875-.027-.198.697-.622.724-.423 1.516-.423zm.588 3.334q.56.15.752.574.382 1.01.389 1.824.007.813-.608.867-1.025 0-1.011.37H13.33q1.49-2.747 1.64-3.635zm1.544 4.236v1.284l-1.79-1.284zM11.95 2.25q-.423 0-.806.26-.3.341-.478.437-1.285.82-1.572 1.667 0 .256.122.256.046 0 .11-.038.575-1.024 1.586-1.339.3.092.525.092.112 0 .206-.023.175-.043.305-.043.077 0 .139.015.164.041-.048.506-.212.465-.39 1.127-.177.663.137 1.032.56.52 2.214 1.599.273.273.246.478-.014 1.025-.574 2.234-.52 1.12-1.132 1.12-.049 0-.098-.007-.874 0-.984.37H8.22v.6h5.753l2.541 1.873v1.284h.601v-3.184l3.143.014v-.588h-3.785q-.014-.314.096-.478.109-.164.04-.376-.068-.211-.102-.929-.034-.717-.102-1.646h1.516q.246 0 .916.41l1.325-.233q-.396-.56-1.325-.942.15.04 1.148.382.314 0 .232-.355-.137-.219-.52-.533-3.907-2.555-5.328-2.555-1.066 0-1.647.396-.113.077-.179.077-.274 0 .254-1.32.656-1.64-.847-1.64zM25.274 2.7c.805 0 1.813.415 2.301.903.427.426.483.992.499 1.518h-5.577c.016-.526.072-1.092.499-1.518.488-.488 1.472-.902 2.278-.902zm0-.45c-.956 0-1.984.441-2.587 1.044-.618.618-.688 1.432-.688 2.04v.238h6.55v-.237c0-.61-.047-1.423-.665-2.04-.603-.604-1.655-1.045-2.61-1.045zM25.061 10.518l-.015.008 2.718 5.209h1.025l-2.718-5.217zm-2.278.008l-1.025.008 2.718 5.216 1.025-.008-2.718-5.216zM34.974 2.25l-.014.001a15.506 15.506 0 01-1.122.037c-.08.005-.087.107-.06.165.168.474.314.956.45 1.44h-.02c-.134.003-.27 0-.404.013l-.006.01c-.008-.03-.03-.058-.06-.065a28.706 28.706 0 01-1.275-.923c-.01-.002-.021-.005-.032-.005h-.007c-.042.026-.057.084-.08.127-.074.197-.135.399-.217.593-.058.148-.122.294-.166.446.02.042.056.055.096.055.039 0 .08-.012.114-.022.515-.11 1.045-.1 1.57-.107-.053.115-.075.243-.122.36-.022.066-.047.134-.062.202a.092.092 0 00-.012 0l-.016.001c-.64.248-1.265.552-1.812.97a6.77 6.77 0 00-.748.652c-.005.096.103.127.175.154l.442.182c-.075.103-.094.236-.141.353-.248.726-.597 1.413-.888 2.122.001.058.055.087.108.087.02 0 .04-.004.056-.012.102-.019.205-.028.308-.03-.021.08-.03.165-.065.24-.175.555-.46 1.065-.675 1.604-.01.058.045.095.098.095a.1.1 0 00.044-.01 6.45 6.45 0 01.796-.092c-.03.074-.036.157-.06.234-.128.545-.316 1.082-.34 1.646-.004.367.04.733.099 1.095.1.595.28 1.174.512 1.73.002.051.049.083.094.083a.081.081 0 00.072-.04c.034-.075.045-.16.07-.238.134-.481.23-.974.272-1.472.042-.43.059-.863.056-1.295-.018-.505-.139-.999-.216-1.497-.014-.075-.024-.152-.043-.226a7.034 7.034 0 01.764.127c.081 0 .099-.107.063-.164-.217-.567-.438-1.134-.62-1.714l.026.005c.22.04.44.091.663.104.07-.058.02-.152-.014-.216-.268-.582-.488-1.193-.576-1.83-.028-.173-.027-.35-.057-.523.19.077.379.154.569.228.082-.02.086-.121.07-.19a2.105 2.105 0 01.267-1.198c.178-.318.435-.58.698-.828.104.09.225.156.343.227l-.06.015c-.215.418-.397.852-.591 1.28-.025.06-.054.12-.063.184.033.052.087.063.143.063.035 0 .072-.004.104-.004h.006l.24-.006c-.027.083-.034.176-.061.259-.155.639-.308 1.279-.461 1.919.018.068.087.082.15.082a.648.648 0 00.055-.003l.397-.014c-.036.105-.053.218-.088.323-.172.628-.347 1.257-.515 1.886.019.07.089.085.154.085a677.2 677.2 0 01.691-.021.867.867 0 00-.024.103c-.132.577-.335 1.144-.365 1.74-.003.54.077 1.077.2 1.602.102.423.247.836.41 1.239.007.046.051.077.094.077.025 0 .05-.01.065-.035.035-.062.042-.137.066-.205.18-.619.282-1.259.315-1.902.02-.343.033-.687.018-1.03-.036-.492-.147-.974-.226-1.46-.01-.048-.016-.097-.03-.145.222-.007.443-.014.664-.023.08-.06.035-.167.013-.245-.188-.674-.374-1.349-.567-2.021.185-.007.37-.014.555-.023.077-.06.034-.166.01-.243l-.584-1.969.595-.016c.076-.05.039-.15.004-.214-.177-.4-.35-.801-.534-1.199.132-.054.263-.11.391-.171.354.33.662.728.804 1.196.081.278.087.573.058.86.016.044.054.061.096.061a.2.2 0 00.1-.03l.443-.182-.003.004a5.206 5.206 0 01-.348 1.696c-.097.265-.22.52-.326.78-.006.057.047.091.098.091a.102.102 0 00.051-.013c.195-.029.39-.067.584-.105-.038.108-.065.221-.109.327-.166.486-.353.965-.534 1.445-.014.057.038.107.09.107a.08.08 0 00.042-.011 5.81 5.81 0 01.716-.116.57.57 0 00-.012.066c-.08.447-.167.892-.223 1.342-.03.281-.036.564-.018.846.026.713.098 1.429.289 2.118.032.117.063.236.101.351.015.03.045.044.076.044.037 0 .075-.021.083-.062a7.92 7.92 0 00.566-2.05c.05-.41.083-.828.004-1.236-.079-.434-.208-.857-.31-1.285-.018-.05-.026-.104-.043-.153.123.003.246.011.369.027.171.018.34.054.512.069.072-.02.066-.116.03-.166-.24-.577-.55-1.13-.704-1.738l-.008-.032c.029 0 .058 0 .086.002.11.008.218.03.327.039.076-.034.058-.134.022-.192-.318-.723-.663-1.437-.909-2.19-.023-.058-.04-.124-.074-.176l-.005-.003c.199-.083.398-.166.595-.252.047-.08-.032-.156-.09-.201-.507-.462-1.064-.874-1.683-1.171a6.493 6.493 0 00-.716-.3c-.018-.055-.043-.11-.056-.163-.064-.181-.117-.368-.197-.542a.252.252 0 00.052.004l.06-.001h.153c.459 0 .92.015 1.37.118.013.006.03.009.046.009.045 0 .093-.023.084-.074-.088-.273-.21-.534-.3-.807-.04-.112-.079-.225-.129-.332a.113.113 0 00-.06-.008c-.42.308-.834.628-1.27.916-.046.023-.105.07-.072.127v.001a.848.848 0 00-.158-.012l-.16.002a1.243 1.243 0 01-.068-.001h-.035a.077.077 0 00.004-.029c.17-.508.34-1.022.631-1.476.036-.046.01-.127-.046-.137a.065.065 0 00-.012-.001zM41.564 2.25q-1.742 0-1.742 1.674V15.75h.803V3.924q0-.87.939-.87.946 0 .946.87v7.87h.803v-7.87q0-1.674-1.75-1.674z"/><path d="M8.22.375c-9.625 0-9.625 17.25 0 17.25M8.22.375h35.093M8.22 17.625h35.093M51 .375v17.25M43.313.375c9.625 0 9.625 17.25 0 17.25" fill="none" stroke="#000"/></svg>