<svg xmlns="http://www.w3.org/2000/svg" width="50.996" height="18"><path d="M9.777 3.093q1.51.22 1.579 1.382v8.382q-.706-.843-2.536-1.184l.957-8.58zM9.35 2.25L8.22 12.272q2.52.289 3.136 1.8v1.678h.752V4.475q0-1.883-2.757-2.225zM26.99 4.03v1.756H14.058V4.03zM14.106 2.25v1.329h-.498v2.657H27.44V3.58h-.403V2.25h-.451v1.329h-1.115V2.25h-.451v1.329h-1.115V2.25h-.451v1.329h-1.092V2.25h-.474v1.329h-1.092V2.25h-.45v1.329H19.23V2.25h-.45v1.329h-1.116V2.25h-.45v1.329h-1.092V2.25h-.451v1.329h-1.115V2.25zM15.304 13.744l-1.696 2.006h.827l.87-1.036.877 1.036.853-1.036.877 1.036.87-1.036.877 1.036.87-1.036.877 1.036.853-1.036.877 1.036.878-1.036.853 1.036.877-1.036.87 1.036h.827l-1.697-2.006-.877.97-.853-.97-.878.97-.877-.97-.853.97-.877-.97-.87.97-.877-.97-.87.97-.877-.97-.853.97-.878-.97zM35.843 2.774q.95.562.95 1.686h-1.891q0-1.124.941-1.686zm.95 2.21q-.213.751-.95.751-.736 0-.926-.751zm5.451 1.313v.896H29.45v-.896zm-6.4-4.047q-1.45.547-1.45 2.346 0 .684.295 1.14h-5.748v1.981h13.805V5.735H37.02q.296-.455.296-1.139 0-1.8-1.473-2.346zM32.216 12.879c.805 0 1.814.414 2.301.902.427.426.483.992.499 1.518H29.44c.015-.526.071-1.092.498-1.518.488-.488 1.472-.902 2.278-.902zm0-.451c-.956 0-1.984.441-2.587 1.044-.618.618-.688 1.432-.688 2.04v.238h6.55v-.237c0-.61-.047-1.423-.665-2.04-.603-.604-1.655-1.045-2.61-1.045zM42.271 9.96l-.047 5.268-2.777.047-.023-5.291 2.847-.024zm.475-.45l-3.773.023.023 6.217 3.678-.071.072-6.17z"/><path d="M8.22.375c-9.625 0-9.625 17.25 0 17.25M8.22.375h34.526M8.22 17.625h34.526M50.433.375v17.25M42.746.375c9.625 0 9.625 17.25 0 17.25" fill="none" stroke="#000"/></svg>