<svg xmlns="http://www.w3.org/2000/svg" width="94.057" height="18"><path d="M5.454.386c.221 0 .566.052.757.104.832.223-.005.968-.54.968a.513.513 0 0 1-.073-.005c-.353.074.06.199.502.199.272 0 .555-.047.681-.18.072-.077.131-.108.182-.108.185 0 .258.417.406.623.74.245 1.203.913 1.682 1.486 1.377 1.65 2.617 3.405 3.917 5.115-.357-.105-.743-.31-1.097-.48-1.62-.783-3.347-1.401-4.814-2.455-.732-.525-1.712-1.134-1.793-2.056-.061-.702 1.227-1.337 1.134-1.717-.011-.044-.043-.064-.09-.064-.274 0-1.077.688-1.288 1.09-.081.155-.14.217-.182.217-.146 0-.077-.757.014-.93.31-.589-.628-1.325-.1-1.664-.016.088.002.337.312.337.325 0 .305-.4.205-.453a.435.435 0 0 1 .185-.027zm.616 5.477c.254.9.626 1.766 1.065 2.59.217.405 1.13 1.049.485 1.377a.194.194 0 0 1-.052.007c-.257 0-.519-.495-.855-.517a12.843 12.843 0 0 0-.265-1.873c-.103-.505-.36-1.176-.378-1.584zm.705.597c.795.576 1.63 1.093 2.472 1.6.222.497.034 1.222.149 1.805-.538-.363-1.112-.378-1.457-1.066-.385-.766-1.019-1.494-1.164-2.34zM7 10.06c.134.235.335.383.538.383.16 0 .32-.091.45-.304.186.205.23.926.23 1.325.002.411-.214.446-.465.446l-.155-.002a.93.93 0 0 0-.278.032.453.453 0 0 1-.138.02c-.197 0-.423-.095-.636-.095-.02 0-.04 0-.06.002.001-.52.36-1.225.514-1.808zm1.603-2.968c1.69.766 3.36 1.59 5.054 2.351.648.679 1.239 1.448 1.96 2.049.538.45-.155.358-.474.418-.244.046-.492.08-.738.116-.87-.87-1.745-1.738-2.58-2.641-.909-.982-2.145-1.538-3.222-2.293zm-.512 5.693c1.105 0 2.211.013 3.316.042.556.014 1.197-.023 1.695.164-.658.042-2.304.058-4.042.058a201.337 201.337 0 0 1-5.037-.05c-.51 0-.097-.173.188-.173a.55.55 0 0 1 .076.005c1.267-.03 2.535-.046 3.804-.046zm-4.862.743c.75.01 1.5.02 2.25.045.495.017.989.023 1.483.023 1.398 0 2.796-.05 4.192-.05.188 0 .375.001.562.003-1.161.634-2.421 1.17-3.766 1.214-.152.005-.3.008-.445.008-.76 0-1.443-.08-2.196-.351-.656-.236-1.506-.523-2.08-.892zm6.649 1.558a.144.144 0 0 0-.078.02c-.256.16.368 1.331.895 1.613.04.021.078.03.115.03.192 0 .33-.259.247-.445-.214-.48-.87-1.218-1.18-1.218zm-4.848.055c-.042 0-.105.026-.194.086-.432.29-1.443 1.067-.823 1.496a.22.22 0 0 0 .129.042c.224 0 .442-.354.556-.556.12-.21.574-1.068.332-1.068zm4.06.177c-.274 0 .026 1.476.502 1.79.031.022.07.031.109.031.106 0 .222-.069.242-.173.123-.637-.473-1.61-.846-1.647a.08.08 0 0 0-.008 0zm-3.278.017c-.05 0-.13.062-.244.216-.302.408-1.043 1.256-.436 1.571.04.021.078.03.114.03.254 0 .4-.478.49-.72.081-.222.268-1.097.076-1.097zm2.271.162c-.023 0-.043.012-.06.037-.245.368-.164 1.491.42 1.817a.196.196 0 0 0 .097.026c.172 0 .306-.25.276-.423-.07-.41-.517-1.457-.733-1.457zm-1.329-.011a.1.1 0 0 0-.058.023c-.391.291-1.017 1.466-.379 1.845.035.02.068.03.101.03.191 0 .35-.31.375-.504.04-.334.162-1.394-.039-1.394zm.655-.018a.08.08 0 0 0-.038.01c-.324.174-.62 1.573-.014 1.945a.175.175 0 0 0 .092.028c.164 0 .306-.252.306-.421-.002-.46-.123-1.562-.346-1.562zM5.632 0c-.205 0-.408.02-.598.054-.567.104-1.44.31-1.43.996a.711.711 0 0 1 .192-.028c.55 0 .663.789.553 1.27-.225.98.26 1.965.898 2.707.425 1.269.96 2.595.954 3.928-.003.556.408.592.256 1.158-.136.51-.373 1.566-.883 1.69a2.18 2.18 0 0 1-.182.007c-.323 0-.663-.056-.984-.056-.254 0-.497.036-.71.162-.444.264-.778.46-1.31.46l-.071-.001-.078-.002c-.895 0-1.953.472-2.118 1.411-.244 1.391-.044 2.827-.036 4.233.205.005.412.011.618.011.163 0 .325-.004.487-.016-.076-.844-.133-1.694-.079-2.539.039-.601-.113-1.44.465-1.781a.738.738 0 0 1 .383-.107c.506 0 1.005.499 1.472.712 1.306.596 2.697 1.036 4.147 1.036h.1c1.756-.025 3.375-.751 4.878-1.576a.616.616 0 0 1 .41-.148c.28 0 .562.17.622.463.262 1.292.154 2.632.067 3.94.157.012.315.015.473.015.156 0 .313-.003.47-.003.052 0 .105 0 .158.002.008-.911.089-1.823.047-2.733-.033-.721.107-1.55-.417-2.143-.68-.771-1.763-.76-2.704-.825a1.712 1.712 0 0 0-.117-.004c-.125 0-.257.01-.386.01a.973.973 0 0 1-.439-.08c-.294-.302-.66-.36-1.04-.36-.228 0-.462.021-.689.021a2.75 2.75 0 0 1-.22-.008c-.043-.588-.075-1.177-.107-1.766a.155.155 0 0 1 .111-.045c.294 0 .78.686 1.034.686.076 0 .13-.06.154-.217.094-.642-.155-1.343-.146-2.018h.016c.285 0 .766.368 1.053.617.898.779 1.67 1.717 2.513 2.566.334.38.681.803 1.163.803.13 0 .269-.031.42-.101.48-.223 1.5.065 1.609-.544-.462-.54-.994-1.018-1.47-1.547.58.274 1.144.678 1.747.941a.77.77 0 0 0 .24.078c.18 0-.489-.521-.668-.602-.665-.3.624-.188.098-.605-1.155-.915-2.466-1.648-3.699-2.473-.79-.998-1.506-2.067-2.3-3.068-.66-.774-1.221-1.636-1.941-2.356C8.175 1.783 7.525 1.66 7.48.937 7.138.252 6.37 0 5.632 0zm16.034.696q.928 0 .928 1.222 0 1.075-.928 2.129-.927-1.054-.927-2.129 0-1.222.927-1.222zm0 4.7q.654 0 .654 1.412 0 .8-.654 1.475-.653-.674-.653-1.475 0-1.412.653-1.412zm0 4.257q.654 0 .654 1.413 0 .8-.654 1.475-.653-.674-.653-1.475 0-1.413.653-1.413zm0-9.653Q19.98 0 19.98 1.918q-.021 1.201.559 1.886.58.685.516.917-.738.864-.738 2.087 0 1.012.864 2.17-.864.865-.864 2.088 0 1.011.864 2.15.106.273-.59 1.285-.695 1.012-1.433 3.499h.927q.464-1.644.822-2.35.359-.706.76-1.149.42.443.769 1.149.347.706.811 2.35h.949q-.696-2.487-1.423-3.499-.727-1.012-.6-1.286.842-1.138.842-2.15 0-1.222-.8-2.086.8-1.16.8-2.171 0-1.223-.716-2.087-.064-.232.505-.917.57-.685.57-1.886Q23.374 0 21.666 0zm6.119 2.443q-.1 0-.195.03-.37.12-.327.36.037.203.332.203.053 0 .115-.007.403-.043.708-.327-.34-.259-.633-.259zm.19-.22q.786 0 2.426.937.823.426 1.805.426.474 0 .985-.099 1.285-.262 2.702-.458.48-.066.932-.066.876 0 1.64.252 1.154.38 1.917.49.763.109 2.419.196-1.068.109-2.092.109t-2.42-.229q-.696-.114-1.342-.114-.646 0-1.24.114-1.187.229-2.702.425-.378.05-.744.05-1.097 0-2.078-.442-.952-.65-1.977-.65-.453 0-.92.127-.415-.022-.371-.458.24-.588 1.024-.61h.035zM28.556 0q-.472 0-.88 1.439-.34-1.27-.88-1.27-.08 0-.166.027-.653.414.436 1.591-.871.501-.871 1.264t1.285.85q.398-.104.777-.104.888 0 1.675.573.673.49 2.135.49.974 0 2.3-.218 1.627-.458 3.162-.458.583 0 1.152.066 1.423.164 2.424.164.455 0 .823-.034 1.852-.043 1.852-.348-.5-.458-1.416-.61-1.94-.022-3.541-.676-.801-.327-1.964-.327-1.163 0-2.689.327-.983.248-1.831.248-1.162 0-2.07-.466-.936-.566-1.982-.937.871-.675.817-1.122Q29.05.022 28.57 0h-.014zm-.203 6.459l-2.157 2.55h1.052l1.105-1.318 1.115 1.318 1.084-1.318 1.116 1.318 1.105-1.318 1.116 1.318 1.105-1.318 1.115 1.318 1.084-1.318L38.31 9.01l1.116-1.318L40.51 9.01l1.115-1.318L42.73 9.01h1.052l-2.157-2.55-1.115 1.23-1.085-1.23-1.116 1.23-1.116-1.23-1.083 1.23-1.116-1.23-1.105 1.23-1.116-1.23-1.105 1.23-1.116-1.23-1.084 1.23-1.115-1.23zm-.938 4.427q.352.04.843.515.532.508.867.581 1.932 1.154 2.276 2.652.106.41.204.827l.18 1.448-.376-1.26q-.27-.909-.639-1.367-.163-.204-.302-.204-.066 0-.11.094-.046.094.093.266.14.171.148.196-.074.106-.369.123-.294.016-.613.028-.074.003-.133.003-.198 0-.236-.031-.016-.008.225-.094.242-.086.242-.184 0-.033-.262-.246-.205-.712-.05-1.17-.147 0-.261.36-.115.36-.078.622.037.262.045.335-.049.123-.286.131-.205-.082-.36-.327-.156-.246-.279-.458-.122-.213-.253-.651-.131-.438-.23-.642-.171-.352-.433-.565-.639-.328-.639-.41.344.042.59.058.163-.09.024-.188-.172-.05-.286-.054-.115-.004-.148-.11.213-.18.606-.278zm.057-.279q-.155 0-.356.07-.2.07-.524.241-.323.172-.396.434.065.393.982.802.27.221.319.549.09.58.442 1.178.343.5.679 1.015.09.147.728.147h.966q.548 0 .712.238.09.31.565 1.972.082.417.204.655.117.092.175.092.039 0 .05-.043.03-.107.03-.213-.042-1.629-.27-2.668-.304-1.383-.742-1.87-.437-.487-.798-.823-.36-.335-1.194-.744-.532-.45-.864-.741-.331-.29-.708-.29zm5.736 3.14V18h.71v-4.253zm4.887.006V18h.71v-4.247zm4.976 0V18h.71v-4.247zM54.57 1.225l1.578 1.934v.02L54.57 5.254 52.99 3.18v-.02l1.58-1.934zM54.143.82L52.26 3.16l1.58 2.116q-.831 0-1.661-.213-.84-.213-1.711-.628-.881-.405-1.914-1.377-1.042-.961-1.71-2.237zm8.17 0q-.668 1.276-1.7 2.237-1.033.972-1.914 1.377-.881.415-1.711.628-.84.213-1.66.213l1.579-2.116L55.015.82zM45.781 0q0 .537.426 1.357.425.82 1.235 1.781.81.952 2.49 1.954 1.65.983 4.516.983h.243q2.865 0 4.525-.983 1.701-1.002 2.51-1.954.81-.961 1.226-1.781.405-.82.405-1.357zm1.499 12.136V18h.98v-5.864zm6.738.008V18h.98v-5.856zm6.86 0V18h.98v-5.856zm8.7-8.971c-.68.054-1.057.394-1.129 1.022.09.68.466 1.04 1.13 1.075.663-.036 1.012-.394 1.048-1.075-.054-.628-.403-.968-1.049-1.022zM69.66.914c.484 0 .932.09 1.345.27a3.545 3.545 0 0 1 1.828 1.815c.18.402.269.828.269 1.276 0 .466-.09.901-.269 1.305a3.422 3.422 0 0 1-3.173 2.03c-.484 0-.936-.085-1.358-.256a3.235 3.235 0 0 1-1.089-.712 3.495 3.495 0 0 1-.726-1.062 3.174 3.174 0 0 1-.269-1.305c0-.448.09-.874.27-1.277a3.67 3.67 0 0 1 .725-1.075 3.31 3.31 0 0 1 1.09-.74A3.41 3.41 0 0 1 69.66.914zM69.605 0a4.17 4.17 0 0 0-1.667.336c-.52.224-.968.529-1.344.914a4.48 4.48 0 0 0-.901 1.345 4.071 4.071 0 0 0-.336 1.653c0 .592.112 1.143.336 1.654.224.511.524.955.9 1.331a4.267 4.267 0 0 0 3.012 1.237c.592 0 1.143-.112 1.654-.336a4.48 4.48 0 0 0 1.345-.9c.385-.377.69-.82.914-1.332a4.07 4.07 0 0 0 .336-1.654c0-.591-.112-1.142-.336-1.653A4.358 4.358 0 0 0 71.259.336 4.071 4.071 0 0 0 69.605 0zm-.49 12.144V18h.98v-5.856zM79.364.591c.673 0 1.128.1 1.508.529.521.52.62 1.29.572 1.992-.01 1.612-.295 3.21-.766 4.75-.37 1.266-.812 2.51-1.215 3.766h-.196c-.017-.062-1.925-5.289-2.01-8-.015-.79-.129-1.684.412-2.341.334-.459 1.01-.696 1.695-.696zm.416 11.625v.684c0 .124.077.234.194.276.17.062.328.172.489.304h-2.39c.161-.132.318-.242.489-.304a.294.294 0 0 0 .194-.276v-.684zm1.644 2.477c.06.121.069.367.054.538h-4.376a2.059 2.059 0 0 1-.023-.538zm-.466 1.819c-.317.471-.95.9-1.618.9-.72 0-1.422-.417-1.76-.9zM79.394 0c-1.275 0-2.737.735-2.737 2.246-.073.922.02 1.85.115 2.768.29 2.285 1.15 4.436 1.86 6.614h-.017c-.095 0-.447.01-.447.294v.784c-.402.198-.682.5-.954.723h-.876a.294.294 0 0 0-.294.294v.792c0 .157.184.287.341.293.071.133.083.252.101.375l-.33-.01h-.003a.307.307 0 0 0-.3.294v.76c0 .163.132.295.294.295.205 0 .675.01.757.01h.011C77.283 17.374 78.27 18 79.34 18c1.04 0 1.944-.67 2.284-1.478h.764c.275 0 .294-.192.294-.294v-.761c0-.128.055-.285-.59-.285a1.48 1.48 0 0 0-.016-.368c.283-.017.415-.142.415-.3v-.791a.294.294 0 0 0-.293-.294h-.876c-.273-.222-.553-.525-.955-.723v-.784c0-.16-.128-.29-.287-.293.007-.037 1.84-5.082 1.93-7.732.07-.998.168-2.12-.499-2.956C81.095.368 80.657 0 79.394 0zm9.976.601c1.073 0 2.418.552 3.068 1.202.57.57.644 1.324.664 2.025h-7.434c.02-.7.095-1.455.664-2.025.65-.65 1.963-1.202 3.037-1.202zm0-.601c-1.275 0-2.646.589-3.45 1.392-.823.824-.917 1.91-.917 2.72v.317h8.732v-.316c0-.812-.062-1.897-.886-2.72C92.046.588 90.643 0 89.37 0zm-.284 11.024l-.02.01 3.624 6.946h1.367l-3.625-6.956zm-3.038.01l-1.366.01L88.306 18l1.367-.01-3.625-6.955z"/></svg>