<svg xmlns="http://www.w3.org/2000/svg" width="109.067" height="18"><path d="M17.338.568q-.111.037-.111.128t.07.146q.027.022.054.022.04 0 .077-.05.063-.081.021-.163-.041-.083-.11-.083zM1.95.47q-.153 0-.296.282.084.183.264.237.028.01.054.01.131 0 .224-.229 0-.255-.194-.292Q1.975.47 1.949.47zM.945.787q-.042.128.027.238l-.583.073Q.375.934.945.788zm.568.436zm.105-.003q.12 0 .195.033.027.012 0 .012-.052 0-.288-.04.05-.005.093-.005zm2.564 1.252q.035 0 .097.068 1.125 1.223 2.792 2.865Q8.74 7.048 8.947 7.724 7.585 7.468 6.62 6.318q-.966-1.15-1.681-2.236-.716-1.086-.799-1.414-.017-.196.042-.196zm.046-.868q.202 0 .384.096 4.321 4.308 4.946 5.604.584 1.405.764 2.154-.076.11-.182.11-.087 0-.193-.074l-.57-1.515q-.43-1.296-2.104-2.875-1.674-1.579-2.424-2.5-.441-.542-.676-.542-.164 0-.227.268-.108.455-.38.455-.115 0-.26-.081.126-.858.542-1.022.198-.078.38-.078zm.357 6.43q.666 1.405.541 2.83-.125 0-.236.236-.045-.403-.277-.403-.051 0-.112.02.292-1.405.084-2.683zM2.107.346q.066 0 .116.013.25.063.292.237.029.122.058.122.013 0 .025-.022.042-.073.056-.164.305.53.041 1.57t.848 1.24q1.028 3.104 2.209 4.72 1.18 1.615.986 3.038-.449-.438-.993-.438-.113 0-.23.019.042-1.296-.472-2.556t-.945-1.889q-.43-.63-1.16-1.497-.73-.867-.722-1.789.007-.921.194-1.286.188-.365.181-.584-.003-.091-.027-.091-.035 0-.112.182-.132.31-.73.328l-.07.001q-.568 0-1.235-.274l.82.073q.404.11.601.11.162 0 .183-.074.049-.164-.076-.192-.125-.027-.257-.027t-.201.055l.026.052-.29-.052Q1.042.787 1.167.623q.028-.055.097-.055-.028.183.049.274.028.034.056.034.046 0 .09-.098.07-.155-.125-.228.511-.204.773-.204zm15.412.04q.375 0 .555.365.056.055.695.2v.056l-.695.073q-.597 0-.75-.12-.153-.118-.146-.273.007-.155.188-.155.18 0 .25.082t.035.173q-.035.092-.132.147h.028q.18 0 .187-.22.007-.237-.299-.273-.389 0-.291.374.092.357.854.357l.076-.001q.431-.037.765-.128L18.81.97q1.236 1.004 1.16 2.29-.077 1.288-.966 2.136-.889.85-1.584 1.871-1.083 1.734-1.167 2.72-.083.986.376.986.458 0 1.118-.721.66-.721 1.34-.74 1.82.055 1.612 2.209-.667-.93-1.5-.93-.417 0-1.14.474-1.097.766-1.667.766l-.472-.091q-.861-.84-.583-2.482.416-1.187 1.125-4.235.486-1.734.965-2.628.48-.895 1.022-.913.291 0 .944.365.027.01.047.01.094 0 .037-.21-.526-.429-1.226-.429-.225 0-.47.045-.208 0-.506-.146-.3-.146-.3-.694.251-.237.543-.237zM3.946 3.05q1.083 1.825 1.986 3.002.903 1.178 1.702 1.588.799.411 1.48.43.083.145 1.653 4.617l-.097.055-3.738-3.14q.028-.273-1.104-1.962-1.132-1.687-1.994-4.46l.112-.128zm3.834 7.867l2.07 1.66q.07.256-.5.348-.127.02-.233.02-.37 0-.49-.248-.152-.32-.389-.831-.236-.511-.458-.95zm7.071-.785q0 .767.167 1.332.43 1.004 1.153 1.023h.038q.711 0 1.699-.657.938-.625 1.365-.625.034 0 .066.004.416.055.903.566.486.51.514.894.05.311-.043.311-.06 0-.18-.128-.399-1.05-1.024-1.05h-.01q-.633.01-1.557.648-.923.639-2.153.639t-1.368-1.04q-.14-1.04.43-1.917zm-10.294 1.06l.208.547q.195-.255.299-.3l.005-.002q.088 0-.304 1.543l-.583.238q-.153-.146.09-.904.243-.757.285-1.122zm14.763 1.14q.461 0 .727.502-.18.384-.847.603-.514 0-1.042-.566.685-.539 1.162-.539zm-1.607.758q.207.265.448.438h-1.883q.692-.095 1.435-.438zm-7.182 1.15q-1.554 2.935-4.48 3.011-2.913-.076-4.467-3.011zm11.239.018q-1.554 2.935-4.48 3.012-2.913-.077-4.48-3.012zM2.346.008q-.084 0-.179.013-.222 0-1.264.42Q.069.696 0 1.098l.028.62.417-.2q.68.292 1.139.292.458 0 .347.41-.111.411.028 1.37.139.958 1.097 1.934.959.977 1.188 2.556.23 1.578-.41 3.641l.209-.164q.004-.004.007-.004.046 0-.216.816-.277.867-.757.894-.084.005-.16.005-.348 0-.486-.105-.155-.12-.462-.12l-.045.001q-.34.01-.34.302v.182H.61Q2.21 17.982 6.057 18q3.849-.018 5.446-4.472l-4.279.037q0-.165-.264-.356-.129-.094-.296-.094-.175 0-.391.103-.13.061-.278.061-.337 0-.771-.317.097-.639.236-1.14.139-.503.528-.594.036-.008.073-.008.362 0 .816.811.264-.675.153-1.825l.139.128q1.042 2.3 1.257 2.701.163.305.634.305.15 0 .331-.031.75-.128.737-.475l.639.42.486-.237-1.07-3.048q.264 0 .487-.292-.264-1.096-.82-2.446-.39-.822-.792-1.278Q7.961 4.603 6.78 3.39T5.043 1.518q-.373-.28-.775-.28-.226 0-.461.088-.653.246-.792 1.214-.042-.037.07-.73.11-.694-.05-1.287-.138-.514-.689-.514zM17.566 0q-.252 0-.478.094-.292.11-.347.42-.111.383.097.757.208.374.653.466-.89 1.058-1.514 3.741-.584 2.556-.973 3.779-1.042 1.113-1.035 2.236.007 1.122.424 1.597.301.343.878.438h-3.434q1.597 4.454 5.446 4.472 3.848-.018 5.445-4.472h-2.674q.153-.11.313-.256.156.245.354.245.083 0 .174-.044.347-.219.139-1.004.194-2.245-.459-2.865-.653-.621-1.473-.621-.75 0-1.625.849-.543.526-.743.526-.124 0-.118-.198.014-.52.611-1.761.403-.876 1.75-2.254 1.348-1.378 1.334-2.775-.014-1.396-.597-2.099-.584-.703-1.292-.794-.111-.2-.292-.328-.18-.128-.48-.146Q17.609 0 17.567 0zm12.211.764l.11.001h.057q2.067 0 3.942 1.777l-1.16.938q-1.086-1.036-2.839-1.036-1.752 0-2.838 1.036l-1.16-.938Q27.739.764 29.777.764zm.11 2.396q1.95.024 3.21 2.048h-6.443q.987-2.024 3.233-2.048zm0-3.16q-3.06.123-5.159 2.518l1.753 1.48q-.74.988-.913 1.852h8.614q-.172-.864-.913-1.827l1.63-1.48Q32.948.122 29.886 0zm11.72.764l.11.001h.057q2.067 0 3.942 1.777l-1.16.938q-1.086-1.036-2.838-1.036-1.753 0-2.839 1.036l-1.16-.938Q39.569.764 41.607.764zm.11 2.396q1.95.024 3.21 2.048h-6.443q.987-2.024 3.234-2.048zm0-3.16q-3.06.123-5.158 2.518l1.752 1.48q-.74.988-.913 1.852h8.615q-.173-.864-.914-1.827l1.63-1.48Q44.778.122 41.717 0zm-15.1 10.67V18h1.225v-7.33zm8.423.01V18h1.225v-7.32zm8.575 0V18h1.225v-7.32zm8.8-7.609c-.27.13-.6.49-.1.55.24-.01.79-.26.69-.49a.221.221 0 0 1-.158.067c-.141 0-.287-.127-.432-.127zm-1.971.09c-.33.08-.5.44-.08.52l.022.002c.242 0 .9-.294.358-.361-.09-.06-.18-.16-.3-.16zm2.631-2.51c.59.69 1.11 1.49 1.21 2.41.1.66.13 1.321.23 1.971-.47-.04-.33-.77-.24-1.12.08-.69-.29-1.33-.55-1.941-.18-.33-.35-.85-.81-.86-.51.09-.84.52-1.17.89-.34-.34-.7-.71-1.171-.85a.236.236 0 0 0-.081-.013c-.106 0-.229.046-.286.046-.049 0-.048-.034.057-.164.063-.224.195-.29.359-.29.238 0 .542.141.799.141a.561.561 0 0 0 .112-.01c.085.004.17.007.254.007.438 0 .876-.067 1.287-.218zm-.16.76c.39.1.48.64.67.96.24.56.53 1.17.34 1.801-.15.3.04.68.02.9-.333.235-.626.73-1.07.73a.631.631 0 0 1-.15-.02c-.44-.09-.66-.51-1-.71-.247.238-.393.73-.798.73a.618.618 0 0 1-.183-.03c-.37-.08-.86-.04-.97-.49-.19-.46-.21-.97-.24-1.47a.324.324 0 0 0 .06.006c.203 0 .221-.235.24-.436.077-.293.287-.429.52-.429.157 0 .325.062.47.178.17.19.69.34.58.64-.05.18-.11.371-.17.561l.42.56c.04-.29.47-.53.22-.82-.04-.13-.19-.3-.17-.4.18-.32.42-.6.7-.84a.322.322 0 0 1 .23-.103c.268 0 .538.351.771.382.23-.25-.02-.35-.25-.48a.701.701 0 0 0-.487-.196c-.25 0-.5.13-.653.356-.19.114-.323.494-.49.494-.052 0-.108-.037-.17-.134-.306-.244-.672-.518-1.073-.518a.855.855 0 0 0-.178.018c-.283.059-.538.632-.56.632v-.001c-.01-.47.21-.89.34-1.351a.612.612 0 0 1 .596-.477c.172 0 .348.075.474.237.298.11.516.634.796.634.05 0 .1-.017.155-.054.31-.33.56-.72 1.01-.86zm-1.42 6.943c1.27 1.31 2.44 4.632 2.74 5.993-.49-.4-1.16-.66-1.31-.91-.16-.26-.6-2.792-1.43-5.083zm4.521-2.381c2.402 1.38 6.584 8.174 7.474 9.264-1.5-.95-2.981-1.91-4.592-2.691-2.261-1.11-4.192-2.911-6.033-4.592 1.52-.51 2.611-1.37 3.151-1.981zm-2.49 8.624c.32.19.61.45.96.59-.21.52-.34 1.1-.77 1.51-.081.13-.197.172-.328.172-.228 0-.504-.123-.736-.123-.016 0-.032 0-.047.002.28-.7.7-1.01.92-2.151zm.68-9.365c.06.126.138.167.22.167.107 0 .223-.071.32-.116.24.17 1.07.15.58.51-.31.42-1.968 1.566-3.119 1.768-.497.087.338.873.608 1.153 1.56 1.4 3.091 2.882 4.962 3.892 1.17.66 2.401 1.25 3.532 1.98.54.781 1.18 1.502 1.59 2.362-.41.12-.81.29-1.23.39a2.89 2.89 0 0 1-.702.082c-.661 0-1.326-.197-1.619-.512-.54-.57-1.13-3.001-1.44-3.892-.045-.1-.107-.133-.175-.133-.135 0-.292.132-.37.132a.04.04 0 0 1-.036-.019.391.391 0 0 0-.386-.376c-.176 0-.34.127-.314.396-.06.63-.18 1.26-.48 1.831-.037.097-.114.134-.215.134-.284 0-.761-.293-1.086-.374.13-.77-.92-4.712-4.002-8.014-.108-.116-.577-.611-.536-.611.005 0 .016.006.036.02.157.042.335.07.511.07.337 0 .668-.104.84-.42.025-.077.058-.108.096-.108.137 0 .344.399.564.399a.92.92 0 0 0 .514.155c.29 0 .577-.131.776-.355.19-.17.37-.34.56-.51zM53.166 0a3.72 3.72 0 0 1-1.36.28c-.072 0-.143-.004-.212-.01a.804.804 0 0 1-.142.012c-.337 0-.7-.18-1.025-.18a.622.622 0 0 0-.353.098c-.55.8-1.05 1.69-1.11 2.681-.11 1.901-.06 2.562 1.44 4.122.59 1.341 1.69 5.713 2.02 6.904.361.34-.45 2.2-.79 2.66-.185.256-.672.268-1.196.268h-.172c-.471 0-.949.01-1.243.193-.28.18-.38.85-.22.94.15-.23.45-.54.66-.57-.2.21.5.11.65.16.405.007.815.041 1.225.041.199 0 .398-.008.597-.03.09-.04.186-.102.228-.102.033 0 .033.038-.028.151.283.074.601.111.912.111.7 0 1.363-.187 1.509-.56.3-.551.58-1.131.78-1.732.256.054.577.234.834.234a.38.38 0 0 0 .207-.054c.28-.19.57-1.08.73-1.67.015-.062.099-.092.183-.092.08 0 .163.028.187.082.3.6.8 2.44 1.28 3.211.363.571 1.241.852 2.176.852a4.48 4.48 0 0 0 1.717-.332c.65-.28 1.13-.22.99-.58-.22-.6-.6-1.17-1-1.68.58.36 1.16.73 1.74 1.09.048.174.169.243.291.243.237 0 .483-.256.24-.513-2.271-3.282-5.883-8.875-8.384-10.685-.4-.35-.87-.62-1.39-.75-.171-.44-.121-1.031-.221-1.531-.1-.99-.7-2.632-1.75-3.262zm15.919 1.124q2.014.293 2.106 1.842v11.177q-.942-1.124-3.382-1.58l1.276-11.44zM68.518 0l-1.509 13.363q3.361.385 4.182 2.4V18h1.002V2.966q0-2.51-3.675-2.966zm11.923.601l-.063 7.024-3.702.063-.031-7.055L80.44.6zM81.074 0l-5.03.032.031 8.289 4.904-.095L81.074 0zm-2.515 14.172c1.074 0 2.418.552 3.069 1.202.569.57.643 1.324.664 2.025h-7.435c.021-.701.095-1.456.665-2.025.65-.65 1.963-1.202 3.037-1.202zm0-.601c-1.274 0-2.645.588-3.449 1.392-.824.824-.917 1.909-.917 2.72V18h8.732v-.316c0-.812-.062-1.897-.886-2.721-.803-.804-2.206-1.392-3.48-1.392zM92.918.893v16.36h-7.142v-.79h3.613V6.769h2.221V.893zM90.842 0v6.042H88.62v9.778h-3.695V18h8.761V0zm11.535.441c.788 0 1.775.406 2.253.883.418.418.473.972.488 1.487h-5.46c.016-.515.07-1.069.489-1.487.477-.477 1.441-.883 2.23-.883zm0-.441c-.936 0-1.943.432-2.533 1.022-.605.605-.673 1.402-.673 1.998v.232h6.412V3.02c0-.596-.046-1.393-.65-1.998-.59-.59-1.62-1.022-2.556-1.022zm-6.691 4.72v5.383h.9V4.721zm6.185.008v5.375h.9V4.728zm6.297 0v5.375h.9V4.728zm-5.791 7.29c.874 0 1.652.403 2.16 1.035h-4.32a2.762 2.762 0 0 1 2.16-1.035zm2.452 1.48c.166.318.273.672.306 1.047h-5.516a2.76 2.76 0 0 1 .306-1.046zm.308 1.493a2.754 2.754 0 0 1-.29 1.046h-4.94a2.754 2.754 0 0 1-.291-1.046zm-.573 1.492a2.763 2.763 0 0 1-2.187 1.071c-.89 0-1.682-.419-2.188-1.07zm-2.187-4.911a3.218 3.218 0 0 0-3.214 3.214A3.218 3.218 0 0 0 102.377 18a3.218 3.218 0 0 0 3.214-3.214 3.219 3.219 0 0 0-3.214-3.214z"/></svg>