<svg xmlns="http://www.w3.org/2000/svg" width="51.286" height="18"><path d="M14.696 4.63c-.511.04-.793.295-.847.766.067.51.35.78.847.807.497-.027.76-.296.786-.807-.04-.47-.302-.726-.786-.766zm.06-1.694c.363 0 .7.067 1.009.201a2.659 2.659 0 011.371 1.361c.134.303.202.622.202.959 0 .35-.068.675-.202.978a2.567 2.567 0 01-2.38 1.523c-.363 0-.702-.065-1.018-.192a2.426 2.426 0 01-.817-.535 2.621 2.621 0 01-.544-.796 2.38 2.38 0 01-.202-.978c0-.337.067-.656.202-.958.134-.303.316-.572.544-.807.229-.235.5-.42.817-.555a2.574 2.574 0 011.018-.201zm-.04-.686c-.444 0-.86.084-1.25.252-.39.168-.726.397-1.009.686a3.36 3.36 0 00-.675 1.008 3.053 3.053 0 00-.252 1.24c0 .444.084.857.252 1.24.168.384.393.717.675.999a3.2 3.2 0 002.259.928c.444 0 .857-.084 1.24-.253a3.36 3.36 0 001.009-.675c.289-.282.517-.615.685-.998.168-.384.252-.797.252-1.24 0-.444-.084-.858-.252-1.24a3.268 3.268 0 00-1.694-1.695 3.053 3.053 0 00-1.24-.252zM20.058 12.523q-1.86 2.528-5.353 2.597-3.47-.069-5.33-2.597zm-11.838-.6q1.906 3.812 6.485 3.827 4.601-.015 6.507-3.827zM28.61 2.523q.128 0 .21.155.125.201-.19.34-.303.152-.202.518l.29 1.249q-.303.038-.53.303V3.523q0-.795.215-.921.115-.08.207-.08zm-.712 2.834v.47l-1.035-.108q.025-.127.391-.26.267-.096.644-.102zm.453.029q.455.094.683.56l-.82-.086v-.18q0-.088.113-.264l.024-.03zm1.35.522q-.068 0-.2.227.328-.114.24-.202-.017-.025-.04-.025zm-2.9.656q-.039.076-.032.12.006.044.069.07-.076 0-.139-.039.013-.075.101-.151zm.113-.025q.113.012.202.063-.05.088-.164.151.05-.063.044-.126-.007-.063-.082-.088zm-.05-.05q-.177 0-.24.264.113.076.277.076.164 0 .278-.19h.303v-.1l-.303.025q-.14-.076-.316-.076zm-3.042-.341q.757 0 0 1.4-.757-1.4 0-1.4zm5.894-.32q.049 0 .087.042.14.164-.24.34.392.594.404 1.414l-.1.012q0-.832-.329-1.375l-.025.013q.24.53.252 1.754l-.113.012q-.076-1.224-.139-1.514L29.4 6.11q.19-.282.316-.282zm-2.678.392q.123 0 .229.035.252.082.252.347h.177q.038-.24.151-.24.114 0 .038.24l-.353.555v1.186l-.038.013q-.05-.089-.12-.227-.07-.14-.094-.366H26.9q-.214 0-.214-.101 0-.19.201-.215 0-.1-.063-.1l-.252-.013q.076-.177-.151-.227 0-.101.201-.455v-.214l.038.05q.164-.075.253-.088.1 0 .303.088h.227V6.4h-.227q-.177-.114-.303-.114-.14 0-.29.114 0-.101.037-.114.205-.066.377-.066zm-.276-.312l1.136.121v.106h.315v-.072l.909.097q.013.063.126.417.164.492.139 3.47l-1.59.012V7.195q.088-.126.227-.353.139-.228.133-.486-.006-.217-.21-.217-.04 0-.087.009-.202 0-.252.252-.013-.202-.227-.297-.098-.043-.253-.043-.186 0-.454.062.013-.126.088-.214zm-2.956 4.069q.507 0 .61.347h-.48q-.391-.038-.391-.328.141-.02.26-.02zm3.726-1.091v1.438h1.363q-.013.782-.145 1.88-.133 1.098-.335 1.861-.202.764.265 1.243h-3.722q.126-.138.17-.467.044-.328-.284-1.11l-.946-2.864q.008-.418.225-.418.136 0 .355.165l1.287 1.906.48.605q.126.089.224.089.197 0 .28-.354.455-1.034.341-2.536-.441-.467.442-1.438zm1.09-6.636q-.17 0-.383.137-.341.227-.341 1.338v1.372q-.35.018-.593.073-.366.082-.6.353-.233.271-.233.75-.05.203-.013.38-.214.378-.214.517 0 .075.19.075l-.039.114q.026.063.076.076-.038.05-.025.113l.088.038q-.076.34.29.34h.265q.026.24.29.644-.012.025-.245.316-.234.29-.461.7t.1.801q.09 1.275-.39 2.36l-1.666-2.423q-.185-.606-.65-.606h-.019V7.952h.896v-.303h-.896q.909-1.754-.227-1.754-1.123 0-.227 1.754h-.883v.303h.87v1.766q-.706 0-.138.896 1.337 4.013 1.3 4.278-.038.278-.373.48-.334.201-.17.378h5.022q.252-.114 0-.353-.669-.795-.43-1.527.24-.732.417-3.546h.467v-.833q0-.757-.013-1.3.101-.012.228-.062l-.026-.379.228-.013q0-.933-.404-1.476.441-.177.202-.454-.094-.113-.195-.113-.158 0-.335.277-.33-.622-.733-.806.17-.095.405-.166l-.354-1.501q-.05-.177.215-.341.353-.252.139-.606-.159-.301-.411-.301zM32.52 2.752q.9.13.94.822v4.99q-.42-.501-1.51-.705l.57-5.107zm-.253-.502l-.673 5.967q1.5.171 1.866 1.07v1h.448V3.574q0-1.12-1.641-1.324zM42.767 3.31v1.045H35.07V3.309zm-7.67-1.06v.791h-.296v1.582h8.235V3.041h-.24V2.25h-.269v.791h-.664V2.25h-.268v.791h-.664V2.25h-.268v.791h-.65V2.25h-.283v.791h-.65V2.25h-.268v.791h-.664V2.25h-.268v.791h-.664V2.25h-.268v.791h-.65V2.25h-.268v.791h-.664V2.25zM35.81 9.092l-1.01 1.195h.493l.518-.617.522.617.508-.617.522.617.518-.617.522.617.518-.617.522.617.508-.617.522.617.523-.617.507.617.523-.617.517.617h.493l-1.01-1.195-.523.578-.507-.578-.523.578-.522-.578-.508.578-.522-.578-.518.578-.522-.578-.518.578-.522-.578-.508.578-.522-.578zM33.033 11.738v3.696l-.473-2.085q-.143-.506-.427-.6V12.7q.284-.095.41-.537l.048-.426zm-.805-.411v.742q-.11.38-.474.458v.38q.363.079.474.49l.521 2.353h.648v-4.012q4.439 3.76 7.977 3.98 1.011-.047 1.311-.473.3-.427.127-.854-.174-.426-.593-.545-.112-.031-.216-.031-.285 0-.51.237-.308.324-.103.671.139.235.329.235.09 0 .192-.053.316-.166.142-.56.03-.005.057-.005.252 0 .18.407-.079.45-.916.498-3.301-.49-7.203-3.523v-.395z"/><path d="M8.22.375c-9.625 0-9.625 17.25 0 17.25M8.22.375h34.816M8.22 17.625h34.816M50.723.375v17.25M43.036.375c9.625 0 9.625 17.25 0 17.25" fill="none" stroke="#000"/></svg>