<svg xmlns="http://www.w3.org/2000/svg" width="70.694" height="18"><path d="M9.777 3.093q1.51.22 1.579 1.382v8.382q-.706-.843-2.536-1.184l.957-8.58zM9.35 2.25L8.22 12.272q2.52.289 3.136 1.8v1.678h.752V4.475q0-1.883-2.757-2.225zM26.99 4.03v1.756H14.058V4.03zM14.106 2.25v1.329h-.498v2.657H27.44V3.58h-.403V2.25h-.451v1.329h-1.115V2.25h-.451v1.329h-1.115V2.25h-.451v1.329h-1.092V2.25h-.474v1.329h-1.092V2.25h-.45v1.329H19.23V2.25h-.45v1.329h-1.116V2.25h-.45v1.329h-1.092V2.25h-.451v1.329h-1.115V2.25zM15.304 13.744l-1.696 2.006h.827l.87-1.036.877 1.036.853-1.036.877 1.036.87-1.036.877 1.036.87-1.036.877 1.036.853-1.036.877 1.036.878-1.036.853 1.036.877-1.036.87 1.036h.827l-1.697-2.006-.877.97-.853-.97-.878.97-.877-.97-.853.97-.877-.97-.87.97-.877-.97-.87.97-.877-.97-.853.97-.878-.97zM35.843 6.79q.95.562.95 1.686h-1.891q0-1.124.941-1.686zm.95 2.21q-.213.752-.95.752-.736 0-.926-.752zm5.451 1.314v.896H29.45v-.896zm-6.4-4.048q-1.45.547-1.45 2.347 0 .683.295 1.139h-5.748v1.982h13.805V9.752H37.02q.296-.456.296-1.14 0-1.799-1.473-2.346zM48.657 2.933v1.823q-.402-.6-2.415-.6h-1.488V2.933zm.023-.683q-.82.152-2.438.152h-1.996v2.285h1.996q1.056 0 1.511.22.464.22.904.63l.023 10.213h.88V2.25zM53.179 2.25c-.09 0-.179.004-.268.012h-.042c-1.005 0-1.871.969-1.798 1.965-.054.784.11 1.558.152 2.338a.35.35 0 00.326.187.554.554 0 00.455-.245c.236-.33.132-.758.036-1.118-.106-.643-.145-1.359.208-1.936.228-.305.602-.457.977-.457.407 0 .814.18 1.029.541.344.506.252 1.241-.19 1.659-.427.505-1.068.838-1.341 1.464-.174.63-.028 1.288-.087 1.93-.056 2.342-.085 4.684-.13 7.027.121.101.264.12.411.12.086 0 .174-.006.26-.006.07 0 .14.004.206.019.319-.163.293-.573.27-.876-.113-2.457-.031-4.917-.093-7.375.007-.28-.084-.602.212-.762.59-.572 1.217-1.142 1.58-1.894.368-1.09-.457-2.397-1.6-2.536a2.837 2.837 0 00-.573-.057zM61.937 2.48q.067 0 .127.03.103.052.147.177t0 .198q-.103.117-.206.125h-.03q-.091 0-.205-.037-.088.088-.205.22-.147.191-.397.602-.279.456-.41.647-.31-.177-.515-.177.925-1.145 1.197-1.439.272-.294.397-.33.052-.016.1-.016zm-1.988 2.24q.412.206.5.368.088.161.014.161-.073 0-.176.089-.073-.265-.338-.617zm-.102.427l.646 2.423q-.309 0-.646.235V5.147zm2.062-2.897q-.197 0-.418.194l-1.733 2.071q-.558-.088-.866-.617.206-.25.698-.705.492-.455.403-.602-.042-.088-.144-.088-.252 0-.869.544-.66.47-1.057.763-.206.191-.338.668-.132.478-.397 1-.264.52-.25.814.037.184.122.184.084 0 .216-.184.191-.323.456-.734.264-.411.66-.764.28-.19.53-.235.278.103.425.397v8.106q-.866.235-.896 1.131-.044.338.206 1.043.176.514.66.514-.322-1.219-.322-1.557.03-.675.587-.675.602 0 .632.675 0 .338-.309 1.557.485 0 .646-.514.25-.705.191-1.043.015-.896-.895-1.13V8.421q.455-.323 1.19-.426-.295-1.498-.581-2.056-.253-.494.234-.494.064 0 .14.009-.176-.69-.704-.881V4.5q.032-.003.065-.003.296 0 .64.238.22-.293.499-.778.294-.5.396-.631.103-.133.147-.147.084.03.16.03.186 0 .318-.185.183-.257.007-.499t-.397-.272q-.026-.003-.052-.003z"/><path d="M8.22.375c-9.625 0-9.625 17.25 0 17.25M8.22.375h54.224M8.22 17.625h54.224M70.132.375v17.25M62.444.375c9.625 0 9.625 17.25 0 17.25" fill="none" stroke="#000"/></svg>