<svg xmlns="http://www.w3.org/2000/svg" width="138.821" height="18"><path d="M17.338.568q-.111.037-.111.128t.07.146q.027.022.054.022.04 0 .077-.05.063-.081.021-.163-.041-.083-.11-.083zM1.95.47q-.153 0-.296.282.084.183.264.237.028.01.054.01.131 0 .224-.229 0-.255-.194-.292Q1.975.47 1.949.47zM.945.787q-.042.128.027.238l-.583.073Q.375.934.945.788zm.568.436zm.105-.003q.12 0 .195.033.027.012 0 .012-.052 0-.288-.04.05-.005.093-.005zm2.564 1.252q.035 0 .097.068 1.125 1.223 2.792 2.865Q8.74 7.048 8.947 7.724 7.585 7.468 6.62 6.318q-.966-1.15-1.681-2.236-.716-1.086-.799-1.414-.017-.196.042-.196zm.046-.868q.202 0 .384.096 4.321 4.308 4.946 5.604.584 1.405.764 2.154-.076.11-.182.11-.087 0-.193-.074l-.57-1.515q-.43-1.296-2.104-2.875-1.674-1.579-2.424-2.5-.441-.542-.676-.542-.164 0-.227.268-.108.455-.38.455-.115 0-.26-.081.126-.858.542-1.022.198-.078.38-.078zm.357 6.43q.666 1.405.541 2.83-.125 0-.236.236-.045-.403-.277-.403-.051 0-.112.02.292-1.405.084-2.683zM2.107.346q.066 0 .116.013.25.063.292.237.029.122.058.122.013 0 .025-.022.042-.073.056-.164.305.53.041 1.57t.848 1.24q1.028 3.104 2.209 4.72 1.18 1.615.986 3.038-.449-.438-.993-.438-.113 0-.23.019.042-1.296-.472-2.556t-.945-1.889q-.43-.63-1.16-1.497-.73-.867-.722-1.789.007-.921.194-1.286.188-.365.181-.584-.003-.091-.027-.091-.035 0-.112.182-.132.31-.73.328l-.07.001q-.568 0-1.235-.274l.82.073q.404.11.601.11.162 0 .183-.074.049-.164-.076-.192-.125-.027-.257-.027t-.201.055l.026.052-.29-.052Q1.042.787 1.167.623q.028-.055.097-.055-.028.183.049.274.028.034.056.034.046 0 .09-.098.07-.155-.125-.228.511-.204.773-.204zm15.412.04q.375 0 .555.365.056.055.695.2v.056l-.695.073q-.597 0-.75-.12-.153-.118-.146-.273.007-.155.188-.155.18 0 .25.082t.035.173q-.035.092-.132.147h.028q.18 0 .187-.22.007-.237-.299-.273-.389 0-.291.374.092.357.854.357l.076-.001q.431-.037.765-.128L18.81.97q1.236 1.004 1.16 2.29-.077 1.288-.966 2.136-.889.85-1.584 1.871-1.083 1.734-1.167 2.72-.083.986.376.986.458 0 1.118-.721.66-.721 1.34-.74 1.82.055 1.612 2.209-.667-.93-1.5-.93-.417 0-1.14.474-1.097.766-1.667.766l-.472-.091q-.861-.84-.583-2.482.416-1.187 1.125-4.235.486-1.734.965-2.628.48-.895 1.022-.913.291 0 .944.365.027.01.047.01.094 0 .037-.21-.526-.429-1.226-.429-.225 0-.47.045-.208 0-.506-.146-.3-.146-.3-.694.251-.237.543-.237zM3.946 3.05q1.083 1.825 1.986 3.002.903 1.178 1.702 1.588.799.411 1.48.43.083.145 1.653 4.617l-.097.055-3.738-3.14q.028-.273-1.104-1.962-1.132-1.687-1.994-4.46l.112-.128zm3.834 7.867l2.07 1.66q.07.256-.5.348-.127.02-.233.02-.37 0-.49-.248-.152-.32-.389-.831-.236-.511-.458-.95zm7.071-.785q0 .767.167 1.332.43 1.004 1.153 1.023h.038q.711 0 1.699-.657.938-.625 1.365-.625.034 0 .066.004.416.055.903.566.486.51.514.894.05.311-.043.311-.06 0-.18-.128-.399-1.05-1.024-1.05h-.01q-.633.01-1.557.648-.923.639-2.153.639t-1.368-1.04q-.14-1.04.43-1.917zm-10.294 1.06l.208.547q.195-.255.299-.3l.005-.002q.088 0-.304 1.543l-.583.238q-.153-.146.09-.904.243-.757.285-1.122zm14.763 1.14q.461 0 .727.502-.18.384-.847.603-.514 0-1.042-.566.685-.539 1.162-.539zm-1.607.758q.207.265.448.438h-1.883q.692-.095 1.435-.438zm-7.182 1.15q-1.554 2.935-4.48 3.011-2.913-.076-4.467-3.011zm11.239.018q-1.554 2.935-4.48 3.012-2.913-.077-4.48-3.012zM2.346.008q-.084 0-.179.013-.222 0-1.264.42Q.069.696 0 1.098l.028.62.417-.2q.68.292 1.139.292.458 0 .347.41-.111.411.028 1.37.139.958 1.097 1.934.959.977 1.188 2.556.23 1.578-.41 3.641l.209-.164q.004-.004.007-.004.046 0-.216.816-.277.867-.757.894-.084.005-.16.005-.348 0-.486-.105-.155-.12-.462-.12l-.045.001q-.34.01-.34.302v.182H.61Q2.21 17.982 6.057 18q3.849-.018 5.446-4.472l-4.279.037q0-.165-.264-.356-.129-.094-.296-.094-.175 0-.391.103-.13.061-.278.061-.337 0-.771-.317.097-.639.236-1.14.139-.503.528-.594.036-.008.073-.008.362 0 .816.811.264-.675.153-1.825l.139.128q1.042 2.3 1.257 2.701.163.305.634.305.15 0 .331-.031.75-.128.737-.475l.639.42.486-.237-1.07-3.048q.264 0 .487-.292-.264-1.096-.82-2.446-.39-.822-.792-1.278Q7.961 4.603 6.78 3.39T5.043 1.518q-.373-.28-.775-.28-.226 0-.461.088-.653.246-.792 1.214-.042-.037.07-.73.11-.694-.05-1.287-.138-.514-.689-.514zM17.566 0q-.252 0-.478.094-.292.11-.347.42-.111.383.097.757.208.374.653.466-.89 1.058-1.514 3.741-.584 2.556-.973 3.779-1.042 1.113-1.035 2.236.007 1.122.424 1.597.301.343.878.438h-3.434q1.597 4.454 5.446 4.472 3.848-.018 5.445-4.472h-2.674q.153-.11.313-.256.156.245.354.245.083 0 .174-.044.347-.219.139-1.004.194-2.245-.459-2.865-.653-.621-1.473-.621-.75 0-1.625.849-.543.526-.743.526-.124 0-.118-.198.014-.52.611-1.761.403-.876 1.75-2.254 1.348-1.378 1.334-2.775-.014-1.396-.597-2.099-.584-.703-1.292-.794-.111-.2-.292-.328-.18-.128-.48-.146Q17.609 0 17.567 0zm12.567 0c-.12 0-.127.377-.299.935-.195.635-.338 1.962-.788 2.22a.397.397 0 0 1-.204.052c-.134 0-.27-.05-.417-.05a.545.545 0 0 0-.17.025c-.21.068-.322.397-.544.436-.922.16-2.183.1-2.887.163-.453.04.756.93 1.964.93h.051c.251-.005.516-.017.78-.017.44 0 .877.032 1.236.18.352.146.768.567.763.981L29.47 18h1.359l-.07-13.719c-.001-.368 1.061-.618 1.2-.936.243-.553.119-2.995-.272-3.323a.021.021 0 0 0-.014-.006c-.176 0-.504 2.56-1.021 3.111-.053.056-.157.082-.247.082-.097 0-.177-.03-.162-.082.329-1.118.461-2.749-.054-3.105A.102.102 0 0 0 30.133 0zm5.696 0c-.93 0-1.745.684-1.745 1.562V18h1.136V1.562c0-.43.378-.57.616-.57.25 0 .634.175.634.703v10.804h1.136V1.695c0-.88-.87-1.695-1.777-1.695zm5.177 2.151q-.089 0-.172.027-.326.106-.288.317.033.179.292.179.047 0 .102-.006.355-.039.623-.288-.3-.229-.557-.229zm.166-.194q.693 0 2.138.826.724.375 1.589.375.417 0 .867-.087 1.132-.23 2.38-.403.423-.059.82-.059.773 0 1.444.222 1.017.336 1.69.432.67.096 2.13.172-.941.096-1.843.096t-2.13-.201q-.614-.1-1.183-.1-.568 0-1.091.1-1.046.201-2.38.374-.333.043-.656.043-.966 0-1.83-.388-.838-.573-1.74-.573-.4 0-.812.112-.364-.02-.326-.403.211-.518.902-.537h.031zM41.685 0q-.415 0-.774 1.267-.3-1.119-.776-1.119-.07 0-.145.025-.576.365.383 1.4-.767.442-.767 1.114 0 .672 1.132.748.35-.091.684-.091.782 0 1.475.504.593.432 1.88.432.859 0 2.025-.192 1.433-.404 2.786-.404.513 0 1.014.059 1.254.145 2.135.145.4 0 .725-.03 1.63-.039 1.63-.307-.44-.403-1.247-.538-1.708-.019-3.118-.595-.705-.288-1.73-.288-1.024 0-2.367.288-.867.219-1.613.219-1.024 0-1.822-.41-.826-.5-1.747-.826.768-.595.72-.988-.048-.394-.47-.413h-.013zm3.984 6.321q.456 0 .355.44l-1.048 4.272h-.878l1.047-4.256q.085-.456.524-.456zm1.351 0q.422 0 .338.44l-1.014 4.272h-.878l1.014-4.256q.1-.456.54-.456zm1.452 0q.473 0 .355.44l-1.03 4.272h-.878l1.013-4.256q.118-.456.54-.456zm1.42 0q.388 0 .337.44l-1.03 4.272h-.879l1.03-4.256q.085-.456.541-.456zm1.418 0q.405 0 .354.44l-1.047 4.272h-.878l1.03-4.256q.135-.456.54-.456zm-.608 5.236q.422 0 .422.355 0 .354-.405.354h-6.722q-.422 0-.422-.354 0-.355.422-.355zm-7.904.71q-1.419 2.212-1.824 4.39-.033.727-.438.727h-.018q-.422-.017-.27-.744.709-2.972 2.55-4.374zm9.103 0q1.84 1.4 2.55 4.373.152.727-.27.743h-.019q-.404 0-.437-.726-.405-2.178-1.824-4.39zm-3.496-6.402q-1.942 0-3.26.17-.523.067-.641.742l-.98 4.138q-.135.389-.625.642-2.753 1.942-3.293 5.37Q39.69 18 40.505 18h.013q.827-.009.98-1.056.81-3.124 1.486-4.12h.81v.54h1.284v-.54h4.526v.54h1.284v-.54h.81q.693.996 1.503 4.12.152 1.047.98 1.056h.013q.815 0 .899-1.073-.54-3.428-3.293-5.37h.016q-.49-.27-.506-.44l.98-4.34q.084-.658-.558-.76-1.554-.152-3.327-.152zM59.716.634q-.372 0-.372.438 0 .371.372.371.393-.022.393-.415 0-.394-.393-.394zM58.273.92v.393l-.852.153q.393-.415.852-.546zm.044.524q.503.394.175.59-.503-.175-.743-.459l.568-.13zm1.53-1.005q1.027 0 1.64.787.611.786.655 2.426 1.596.328 2.12 1.442.085.722-.325.722h-.024q-.438-.022-.689-.24-.091-.08-.138-.08-.082 0-.026.243.088.383.962.93.874.546.142.906-.182.09-.387.09-.622 0-1.46-.822-1.115-1.093-1.18-1.661-.066-.568.459-1.05.312-.285.214-.285-.067 0-.324.133-.634.328-.666.961-.033.634.502 1.388.536.754 2.11 1.913.16.084.364.084.432 0 1.056-.38.919-.556-.918-1.715.678-.175.7-.59.852.284 4.787 5.29 1.049.699 1.07 1.027-.021.306-.327.371-.066.014-.133.014-.248 0-.523-.188-1.224.59-2.371.612h-.12q-1.067 0-1.771-.372.721.634.503 1.333-.106.34-.16.34-.059 0-.059-.383 0-.744-1.902-1.421v.83q-.112.47-.178.47-.063 0-.084-.426-.131-.94-.623-2.022-.492-1.082-1.563-2.994-1.07-1.913-1.366-2.754-.295-.842-.273-1.563.022-.722-.295-1.06-.317-.34-.186-.733.131-.393-.393-.743V.897q.568-.46 1.18-.46zM64 13.028q1.071.306 1.071.721l-.721 2.689q-.088.48-.59.48h-.875v-.043L64 13.465v-.437zM59.926 0h-.079q-.852 0-1.727.7-.503.175-1.027.809.721.655 1.311.808.066.306.416.853.022 1.443.393 2.393.372.951 2.492 5.104 1.05 2.186 1.05 2.689 0 .765-.963 3.431 0 .153-1.311.24-1.967.066-1.967.547 0 .284.262.284h5.814q.547-.437.612-.743.525.219.569.59.073.295.209.295.025 0 .053-.01.175-.066.175-.285-.153-.59-.765-1.136l.7-2.951q2.12-.066 3.693-.678.292.066.534.066.486 0 .778-.262.437-.394-.175-1.224-1.334-1.334-2.536-2.93-2.47-3.038-3.388-3.518-.306-.634-.732-1.006-.426-.371-1.541-.918-.022-1.29-.601-2.23Q61.609 0 59.925 0zm15.147 0c-.93 0-1.745.684-1.745 1.562V18h1.136V1.562c0-.43.378-.57.616-.57.25 0 .634.175.634.703v10.804h1.136V1.695C76.85.815 75.98 0 75.073 0zm14.319.92l.133.002h.068q2.49 0 4.748 2.14l-1.397 1.13q-1.308-1.249-3.42-1.249-2.11 0-3.418 1.25l-1.398-1.13Q86.938.92 89.392.92zm.133 2.886q2.349.03 3.865 2.467h-7.76q1.19-2.438 3.895-2.467zm0-3.806q-3.687.149-6.214 3.033l2.111 1.784q-.892 1.189-1.1 2.23h10.376q-.208-1.041-1.1-2.2l1.962-1.785Q93.212.15 89.525 0zm9.36 12.17q.442 0 .442.464v3.556H97.98l.442-3.746q.021-.273.463-.273zm.021-.568q-1.073 0-1.136.61-.442 3.978-.947 4l-9.765.357-1.01-.042q-1.137-1.2-2.02-1.2l-.653-.042q-1.79.337-2.147.337-.252 0-.252.337 0 .463.715.463 1.229-.196 1.885-.196.12 0 .22.006.357 0 .589.295-.41.508-1.837.508-.11 0-.225-.003-1.62-.042-2.863-.421-.61 0-.61.716.063.652 4.567.673l2-.21 11.406-.064 3.198.043v-5.135q-.02-1.032-1.115-1.032zm6.802-8.531c-.27.13-.6.49-.1.55.24-.01.79-.26.69-.49a.221.221 0 0 1-.158.067c-.141 0-.287-.127-.432-.127zm-1.971.09c-.33.08-.5.44-.08.52l.022.002c.241 0 .9-.294.358-.361-.09-.06-.18-.16-.3-.16zm2.631-2.51c.59.69 1.11 1.49 1.21 2.41.1.66.13 1.321.23 1.971-.47-.04-.33-.77-.24-1.12.08-.69-.29-1.33-.55-1.941-.18-.33-.35-.85-.81-.86-.51.09-.84.52-1.17.89-.34-.34-.701-.71-1.171-.85a.236.236 0 0 0-.081-.013c-.106 0-.23.046-.286.046-.049 0-.048-.034.057-.164.063-.224.195-.29.358-.29.238 0 .543.141.8.141a.561.561 0 0 0 .112-.01c.085.004.17.007.254.007.438 0 .876-.067 1.287-.218zm-.16.76c.39.1.48.64.67.96.24.56.53 1.17.34 1.801-.15.3.04.68.02.9-.333.235-.626.73-1.07.73a.631.631 0 0 1-.15-.02c-.44-.09-.66-.51-1-.71-.247.238-.393.73-.798.73a.618.618 0 0 1-.183-.03c-.37-.08-.86-.04-.97-.49-.19-.46-.21-.97-.24-1.47a.324.324 0 0 0 .06.006c.203 0 .221-.235.24-.436.077-.293.287-.429.52-.429.157 0 .325.062.47.178.17.19.69.34.58.64-.05.18-.11.371-.17.561l.42.56c.04-.29.47-.53.22-.82-.04-.13-.19-.3-.17-.4.18-.32.42-.6.7-.84a.322.322 0 0 1 .23-.103c.268 0 .538.351.771.382.23-.25-.02-.35-.25-.48a.701.701 0 0 0-.487-.196c-.25 0-.5.13-.653.356-.19.114-.323.494-.49.494-.052 0-.108-.037-.17-.134-.306-.244-.672-.518-1.073-.518a.855.855 0 0 0-.178.018c-.283.059-.538.632-.56.632v-.001c-.01-.47.21-.89.34-1.351a.612.612 0 0 1 .596-.477c.172 0 .347.075.474.237.298.11.516.634.796.634.05 0 .1-.017.154-.054.31-.33.56-.72 1.01-.86zm-1.42 6.943c1.27 1.31 2.44 4.632 2.74 5.993-.49-.4-1.16-.66-1.31-.91-.16-.26-.6-2.792-1.43-5.083zm4.521-2.381c2.402 1.38 6.584 8.174 7.474 9.264-1.5-.95-2.981-1.91-4.592-2.691-2.261-1.11-4.192-2.911-6.033-4.592 1.52-.51 2.611-1.37 3.151-1.981zm-2.49 8.624c.32.19.61.45.96.59-.21.52-.34 1.1-.77 1.51-.081.13-.197.172-.328.172-.228 0-.504-.123-.736-.123-.016 0-.032 0-.047.002.28-.7.7-1.01.92-2.151zm.68-9.365c.06.126.137.167.22.167.107 0 .223-.071.32-.116.24.17 1.07.15.58.51-.31.42-1.968 1.566-3.119 1.768-.497.087.338.873.608 1.153 1.56 1.4 3.091 2.882 4.962 3.892 1.17.66 2.401 1.25 3.532 1.98.54.781 1.18 1.502 1.59 2.362-.41.12-.81.29-1.23.39a2.89 2.89 0 0 1-.703.082c-.66 0-1.325-.197-1.618-.512-.54-.57-1.13-3.001-1.44-3.892-.045-.1-.107-.133-.175-.133-.135 0-.292.132-.37.132a.04.04 0 0 1-.036-.019.391.391 0 0 0-.386-.376c-.176 0-.34.127-.314.396-.06.63-.18 1.26-.48 1.831-.037.097-.114.134-.215.134-.285 0-.762-.293-1.086-.374.13-.77-.92-4.712-4.002-8.014-.108-.116-.577-.611-.536-.611.005 0 .016.006.036.02.157.042.335.07.511.07.337 0 .668-.104.84-.42.025-.077.058-.108.096-.108.137 0 .344.399.564.399a.92.92 0 0 0 .513.155c.29 0 .578-.131.777-.355.19-.17.37-.34.56-.51zM106.459 0a3.72 3.72 0 0 1-1.36.28c-.072 0-.143-.004-.212-.01a.804.804 0 0 1-.142.012c-.337 0-.7-.18-1.025-.18a.622.622 0 0 0-.353.098c-.55.8-1.05 1.69-1.11 2.681-.111 1.901-.061 2.562 1.44 4.122.59 1.341 1.69 5.713 2.02 6.904.36.34-.45 2.2-.79 2.66-.185.256-.672.268-1.196.268h-.172c-.472 0-.949.01-1.243.193-.28.18-.38.85-.22.94.15-.23.45-.54.66-.57-.2.21.5.11.65.16.405.007.815.041 1.225.041.199 0 .398-.008.596-.03.09-.04.187-.102.23-.102.032 0 .032.038-.03.151.284.074.602.111.913.111.7 0 1.363-.187 1.509-.56.3-.551.58-1.131.78-1.732.255.054.577.234.834.234a.38.38 0 0 0 .207-.054c.28-.19.57-1.08.73-1.67.015-.062.098-.092.183-.092.08 0 .163.028.187.082.3.6.8 2.44 1.28 3.211.363.571 1.241.852 2.176.852a4.48 4.48 0 0 0 1.717-.332c.65-.28 1.13-.22.99-.58-.22-.6-.6-1.17-1-1.68.58.36 1.16.73 1.74 1.09.048.174.169.243.291.243.237 0 .483-.256.24-.513-2.271-3.282-5.883-8.875-8.384-10.685-.4-.35-.87-.62-1.391-.75-.17-.44-.12-1.031-.22-1.531-.1-.99-.7-2.632-1.75-3.262zm20.507.307q.09 0 .17.04.137.069.196.235.059.167 0 .265-.137.156-.274.166l-.04.001q-.122 0-.273-.05-.118.118-.274.294-.196.254-.53.803-.371.607-.547.861-.412-.235-.686-.235 1.234-1.527 1.596-1.919.362-.391.529-.44.07-.02.133-.02zm-2.65 2.987q.549.274.666.49.118.215.02.215-.098 0-.235.118-.098-.353-.45-.823zm-.137.568l.862 3.231q-.411 0-.862.313V3.862zM126.93 0q-.263 0-.556.26l-2.311 2.76q-.744-.117-1.155-.822.274-.333.93-.94t.538-.803q-.056-.118-.192-.118-.336 0-1.159.725-.881.627-1.41 1.018-.274.255-.45.891-.176.637-.529 1.332-.352.695-.333 1.087.05.244.162.244t.289-.244q.254-.431.607-.98.352-.548.88-1.018.373-.254.706-.313.372.137.568.529v10.809q-1.156.313-1.195 1.507-.059.45.274 1.39.235.686.882.686-.431-1.625-.431-2.076.039-.9.783-.9.803 0 .842.9 0 .45-.411 2.076.646 0 .861-.685.333-.94.255-1.39.02-1.195-1.195-1.508V8.229q.607-.431 1.587-.568-.392-1.997-.774-2.741-.337-.658.312-.658.085 0 .187.011-.235-.92-.94-1.175v-.097q.044-.004.087-.004.395 0 .853.317.294-.392.666-1.038.392-.666.529-.842.137-.176.196-.196.112.04.212.04.25 0 .424-.245.245-.343.01-.666T127 .005Q126.965 0 126.93 0zm7.302.601c1.074 0 2.418.552 3.069 1.202.569.57.643 1.324.664 2.025h-7.435c.02-.7.095-1.455.664-2.025.651-.65 1.964-1.202 3.038-1.202zm0-.601c-1.274 0-2.645.589-3.449 1.392-.824.824-.917 1.91-.917 2.72v.317h8.732v-.316c0-.812-.062-1.897-.886-2.72C136.908.588 135.506 0 134.232 0zm.021 9.696q.811 0 1.654.354l-1.602 1.624-1.644-1.624q.78-.354 1.592-.354zm-3.507 2.123l1.623 1.623-1.623 1.624q-.708-1.686 0-3.247zm7.013.083q.708 1.686 0 3.247l-1.623-1.623 1.623-1.624zm-1.27-1.373q.5.229.792.79l-2.206 2.227 2.185 2.186q-.27.54-.812.79l-2.185-2.185-2.144 2.144q-.54-.333-.79-.812l2.143-2.123-2.247-2.247q.228-.541.811-.77l2.227 2.227 2.227-2.227zm-2.184 4.828l1.623 1.623q-.791.354-1.603.354-.811 0-1.644-.354l1.624-1.623zm-.042-6.347q-2.144 0-3.382 1.394t-1.238 3.06q0 1.872 1.446 3.194 1.447 1.321 3.132 1.342 2.04-.02 3.32-1.405 1.28-1.384 1.28-3.132l-.021.042q.02-1.582-1.26-3.039-1.28-1.456-3.277-1.456z"/></svg>