<svg xmlns="http://www.w3.org/2000/svg" width="61.475" height="18"><path d="M9.777 3.093q1.51.22 1.579 1.382v8.382q-.706-.843-2.536-1.184l.957-8.58zM9.35 2.25L8.22 12.272q2.52.289 3.136 1.8v1.678h.752V4.475q0-1.883-2.757-2.225zM26.99 4.03v1.756H14.058V4.03zM14.106 2.25v1.329h-.498v2.657H27.44V3.58h-.403V2.25h-.451v1.329h-1.115V2.25h-.451v1.329h-1.115V2.25h-.451v1.329h-1.092V2.25h-.474v1.329h-1.092V2.25h-.45v1.329H19.23V2.25h-.45v1.329h-1.116V2.25h-.45v1.329h-1.092V2.25h-.451v1.329h-1.115V2.25zM15.304 13.744l-1.696 2.006h.827l.87-1.036.877 1.036.853-1.036.877 1.036.87-1.036.877 1.036.87-1.036.877 1.036.853-1.036.877 1.036.878-1.036.853 1.036.877-1.036.87 1.036h.827l-1.697-2.006-.877.97-.853-.97-.878.97-.877-.97-.853.97-.877-.97-.87.97-.877-.97-.87.97-.877-.97-.853.97-.878-.97zM35.843 6.79q.95.562.95 1.686h-1.891q0-1.124.941-1.686zm.95 2.21q-.213.752-.95.752-.736 0-.926-.752zm5.451 1.314v.896H29.45v-.896zm-6.4-4.048q-1.45.547-1.45 2.347 0 .683.295 1.139h-5.748v1.982h13.805V9.752H37.02q.296-.456.296-1.14 0-1.799-1.473-2.346zM46.364 2.25c-.09 0-.179.004-.268.012h-.042c-1.005 0-1.871.969-1.798 1.965-.054.784.11 1.558.152 2.338a.35.35 0 00.326.187.554.554 0 00.455-.245c.236-.33.132-.758.036-1.118-.106-.643-.145-1.359.208-1.936.228-.305.602-.457.977-.457.407 0 .814.18 1.029.541.344.506.252 1.241-.19 1.659-.427.505-1.068.838-1.341 1.464-.174.63-.028 1.288-.087 1.93-.056 2.342-.085 4.684-.13 7.027.121.101.264.12.411.12.086 0 .174-.006.26-.006.07 0 .14.004.206.019.319-.163.293-.573.27-.876-.113-2.457-.031-4.917-.092-7.375.006-.28-.085-.602.211-.762.59-.572 1.217-1.142 1.58-1.894.368-1.09-.457-2.397-1.6-2.536a2.837 2.837 0 00-.573-.057zM51.665 2.974l.13.372h-.26l.13-.372zm.111.762l-.074.668h-.056l-.074-.668zm1.022 1.392v6.5l-2.229-.019v-6.48l1.096.65 1.133-.65zm0 6.927v3.268h-2.229v-3.268zM51.572 2.25q-.167.798-.575 1.244v.186q.37 0 .37 1.485l-1.243-.76V15.75h3.1V4.404l-1.262.761q0-1.485.353-1.485v-.186q-.39-.446-.539-1.244z"/><path d="M8.22.375c-9.625 0-9.625 17.25 0 17.25M8.22.375h45.005M8.22 17.625h45.005M60.912.375v17.25M53.225.375c9.625 0 9.625 17.25 0 17.25" fill="none" stroke="#000"/></svg>