<svg xmlns="http://www.w3.org/2000/svg" width="112.256" height="18"><path d="M17.338.568q-.111.037-.111.128t.07.146q.027.022.054.022.04 0 .077-.05.063-.081.021-.163-.041-.083-.11-.083zM1.95.47q-.153 0-.296.282.084.183.264.237.028.01.054.01.131 0 .224-.229 0-.255-.194-.292Q1.975.47 1.949.47zM.945.787q-.042.128.027.238l-.583.073Q.375.934.945.788zm.568.436zm.105-.003q.12 0 .195.033.027.012 0 .012-.052 0-.288-.04.05-.005.093-.005zm2.564 1.252q.035 0 .097.068 1.125 1.223 2.792 2.865Q8.74 7.048 8.947 7.724 7.585 7.468 6.62 6.318q-.966-1.15-1.681-2.236-.716-1.086-.799-1.414-.017-.196.042-.196zm.046-.868q.202 0 .384.096 4.321 4.308 4.946 5.604.584 1.405.764 2.154-.076.11-.182.11-.087 0-.193-.074l-.57-1.515q-.43-1.296-2.104-2.875-1.674-1.579-2.424-2.5-.441-.542-.676-.542-.164 0-.227.268-.108.455-.38.455-.115 0-.26-.081.126-.858.542-1.022.198-.078.38-.078zm.357 6.43q.666 1.405.541 2.83-.125 0-.236.236-.045-.403-.277-.403-.051 0-.112.02.292-1.405.084-2.683zM2.107.346q.066 0 .116.013.25.063.292.237.029.122.058.122.013 0 .025-.022.042-.073.056-.164.305.53.041 1.57t.848 1.24q1.028 3.104 2.209 4.72 1.18 1.615.986 3.038-.449-.438-.993-.438-.113 0-.23.019.042-1.296-.472-2.556t-.945-1.889q-.43-.63-1.16-1.497-.73-.867-.722-1.789.007-.921.194-1.286.188-.365.181-.584-.003-.091-.027-.091-.035 0-.112.182-.132.31-.73.328l-.07.001q-.568 0-1.235-.274l.82.073q.404.11.601.11.162 0 .183-.074.049-.164-.076-.192-.125-.027-.257-.027t-.201.055l.026.052-.29-.052Q1.042.787 1.167.623q.028-.055.097-.055-.028.183.049.274.028.034.056.034.046 0 .09-.098.07-.155-.125-.228.511-.204.773-.204zm15.412.04q.375 0 .555.365.056.055.695.2v.056l-.695.073q-.597 0-.75-.12-.153-.118-.146-.273.007-.155.188-.155.18 0 .25.082t.035.173q-.035.092-.132.147h.028q.18 0 .187-.22.007-.237-.299-.273-.389 0-.291.374.092.357.854.357l.076-.001q.431-.037.765-.128L18.81.97q1.236 1.004 1.16 2.29-.077 1.288-.966 2.136-.889.85-1.584 1.871-1.083 1.734-1.167 2.72-.083.986.376.986.458 0 1.118-.721.66-.721 1.34-.74 1.82.055 1.612 2.209-.667-.93-1.5-.93-.417 0-1.14.474-1.097.766-1.667.766l-.472-.091q-.861-.84-.583-2.482.416-1.187 1.125-4.235.486-1.734.965-2.628.48-.895 1.022-.913.291 0 .944.365.027.01.047.01.094 0 .037-.21-.526-.429-1.226-.429-.225 0-.47.045-.208 0-.506-.146-.3-.146-.3-.694.251-.237.543-.237zM3.946 3.05q1.083 1.825 1.986 3.002.903 1.178 1.702 1.588.799.411 1.48.43.083.145 1.653 4.617l-.097.055-3.738-3.14q.028-.273-1.104-1.962-1.132-1.687-1.994-4.46l.112-.128zm3.834 7.867l2.07 1.66q.07.256-.5.348-.127.02-.233.02-.37 0-.49-.248-.152-.32-.389-.831-.236-.511-.458-.95zm7.071-.785q0 .767.167 1.332.43 1.004 1.153 1.023h.038q.711 0 1.699-.657.938-.625 1.365-.625.034 0 .066.004.416.055.903.566.486.51.514.894.05.311-.043.311-.06 0-.18-.128-.399-1.05-1.024-1.05h-.01q-.633.01-1.557.648-.923.639-2.153.639t-1.368-1.04q-.14-1.04.43-1.917zm-10.294 1.06l.208.547q.195-.255.299-.3l.005-.002q.088 0-.304 1.543l-.583.238q-.153-.146.09-.904.243-.757.285-1.122zm14.763 1.14q.461 0 .727.502-.18.384-.847.603-.514 0-1.042-.566.685-.539 1.162-.539zm-1.607.758q.207.265.448.438h-1.883q.692-.095 1.435-.438zm-7.182 1.15q-1.554 2.935-4.48 3.011-2.913-.076-4.467-3.011zm11.239.018q-1.554 2.935-4.48 3.012-2.913-.077-4.48-3.012zM2.346.008q-.084 0-.179.013-.222 0-1.264.42Q.069.696 0 1.098l.028.62.417-.2q.68.292 1.139.292.458 0 .347.41-.111.411.028 1.37.139.958 1.097 1.934.959.977 1.188 2.556.23 1.578-.41 3.641l.209-.164q.004-.004.007-.004.046 0-.216.816-.277.867-.757.894-.084.005-.16.005-.348 0-.486-.105-.155-.12-.462-.12l-.045.001q-.34.01-.34.302v.182H.61Q2.21 17.982 6.057 18q3.849-.018 5.446-4.472l-4.279.037q0-.165-.264-.356-.129-.094-.296-.094-.175 0-.391.103-.13.061-.278.061-.337 0-.771-.317.097-.639.236-1.14.139-.503.528-.594.036-.008.073-.008.362 0 .816.811.264-.675.153-1.825l.139.128q1.042 2.3 1.257 2.701.163.305.634.305.15 0 .331-.031.75-.128.737-.475l.639.42.486-.237-1.07-3.048q.264 0 .487-.292-.264-1.096-.82-2.446-.39-.822-.792-1.278Q7.961 4.603 6.78 3.39T5.043 1.518q-.373-.28-.775-.28-.226 0-.461.088-.653.246-.792 1.214-.042-.037.07-.73.11-.694-.05-1.287-.138-.514-.689-.514zM17.566 0q-.252 0-.478.094-.292.11-.347.42-.111.383.097.757.208.374.653.466-.89 1.058-1.514 3.741-.584 2.556-.973 3.779-1.042 1.113-1.035 2.236.007 1.122.424 1.597.301.343.878.438h-3.434q1.597 4.454 5.446 4.472 3.848-.018 5.445-4.472h-2.674q.153-.11.313-.256.156.245.354.245.083 0 .174-.044.347-.219.139-1.004.194-2.245-.459-2.865-.653-.621-1.473-.621-.75 0-1.625.849-.543.526-.743.526-.124 0-.118-.198.014-.52.611-1.761.403-.876 1.75-2.254 1.348-1.378 1.334-2.775-.014-1.396-.597-2.099-.584-.703-1.292-.794-.111-.2-.292-.328-.18-.128-.48-.146Q17.609 0 17.567 0zm11.257.434c1.581 0 2.924 1.18 3.398 2.35l-1.441.212c-.361-.716-1.088-1.118-2.052-1.118h-.024c-.931.007-1.661.481-1.921 1.118l-1.419-.323C25.98 1.36 27.4.442 28.805.433h.018zm-.025 2.603c.581 0 .877.364.877 1.064 0 .634-.296 1.313-.877 2.066-.581-.753-.876-1.432-.876-2.066 0-.7.295-1.064.876-1.064zm0 4.946c.478.702.634 1.864 0 3.036-.411-.911-.548-2.03 0-3.036zm0-7.983c-.885 0-1.695.268-2.442.783-.746.515-1.297 1.337-1.628 2.473l1.91.125c-.04.211-.063.443-.063.72 0 .858.476 1.828 1.44 2.911-.383.74-.672 1.387-.657 2.254-.032 1.31.316 1.746.751 2.974L25.574 18h1.314l1.91-4.758L30.676 18h1.346l-2.535-5.76c.436-1.228.734-1.63.72-2.974.014-.867-.261-1.514-.658-2.254.978-1.083 1.472-2.053 1.472-2.911 0-.277-.041-.509-.094-.72l1.91-.125c-.33-1.136-.844-1.958-1.597-2.473C30.487.268 29.67 0 28.798 0zm10.404 7.386c1.074 0 2.419.552 3.07 1.203.568.569.643 1.323.664 2.025H35.5c.02-.702.095-1.456.664-2.025.65-.65 1.963-1.203 3.037-1.203zm0-.6c-1.274 0-2.645.588-3.448 1.391-.824.825-.918 1.91-.918 2.721v.317h8.732v-.317c0-.812-.061-1.896-.885-2.72-.804-.804-2.206-1.393-3.48-1.393zM47.215 0c-.335 0-.67.026-.994.066-.447.113-.218.626.18.626a.476.476 0 0 0 .082-.008c.839.097 1.872.15 2.505.626.841.916.464 2.821.561 3.725.008.05.01 3.653.01 5.48a6.145 6.145 0 0 0-2.634-.586 6.04 6.04 0 0 0-1.188.117c-.44.231.077.528.423.528.04 0 .08-.004.114-.013 1.226.133 2.62.461 3.243 1.602.062.206.023.277-.07.277-.207 0-.68-.342-.947-.342-.014 0-.027 0-.04.003a7.535 7.535 0 0 0-1.58-.169c-.39 0-.776.031-1.149.095-.42.278.096.534.438.534a.532.532 0 0 0 .105-.01c1.252.151 2.637.49 3.243 1.633.007 1.27 0 2.11.034 3.278-.015.36.219.538.456.538.235 0 .473-.176.474-.526-.009-1.15-.09-2.161.06-3.277.305-1.253 2.478-1.445 3.827-1.754.295-.347-.285-.475-.658-.475-.056 0-.107.003-.15.008a6.823 6.823 0 0 0-.522-.02c-.882 0-1.77.175-2.557.58-.032-.755.712-1.19 1.244-1.493.84-.361 1.766-.397 2.643-.59.314-.273-.18-.501-.521-.501a.58.58 0 0 0-.125.012 6.767 6.767 0 0 0-.648-.031c-.902 0-1.804.183-2.614.582.017-2.851.063-5.61-.019-8.308-.066-.834-.546-1.6-1.354-1.849C48.506.094 47.86 0 47.215 0zm13.474 3.173c-.682.054-1.058.394-1.13 1.022.09.68.466 1.04 1.13 1.075.663-.036 1.012-.394 1.048-1.075-.053-.628-.403-.968-1.048-1.022zm.08-2.259c.484 0 .932.09 1.345.27a3.545 3.545 0 0 1 1.828 1.815c.18.402.27.828.27 1.276 0 .466-.09.901-.27 1.305a3.422 3.422 0 0 1-3.173 2.03c-.484 0-.936-.085-1.358-.256a3.235 3.235 0 0 1-1.089-.712 3.495 3.495 0 0 1-.726-1.062 3.174 3.174 0 0 1-.269-1.305c0-.448.09-.874.27-1.277a3.67 3.67 0 0 1 .725-1.075 3.31 3.31 0 0 1 1.09-.74 3.41 3.41 0 0 1 1.357-.269zM60.716 0a4.17 4.17 0 0 0-1.668.336c-.52.224-.968.529-1.344.914a4.48 4.48 0 0 0-.9 1.345 4.071 4.071 0 0 0-.337 1.653c0 .592.112 1.143.336 1.654.224.511.524.955.9 1.331a4.267 4.267 0 0 0 3.013 1.237c.591 0 1.142-.112 1.653-.336a4.48 4.48 0 0 0 1.345-.9c.385-.377.69-.82.914-1.332a4.07 4.07 0 0 0 .336-1.654c0-.591-.112-1.142-.336-1.653A4.358 4.358 0 0 0 62.369.336 4.071 4.071 0 0 0 60.716 0zm-.613 10.68V18h1.225v-7.32zM70.474.591c.673 0 1.128.1 1.508.529.521.52.621 1.29.572 1.992-.01 1.612-.295 3.21-.766 4.75-.37 1.266-.811 2.51-1.215 3.766h-.196c-.017-.062-1.925-5.289-2.01-8-.015-.79-.128-1.684.412-2.341.334-.459 1.01-.696 1.695-.696zm.416 11.625v.684c0 .124.077.234.194.276.17.062.328.172.49.304h-2.391c.161-.132.318-.242.49-.304a.294.294 0 0 0 .193-.276v-.684zm1.644 2.477c.06.121.069.367.054.538h-4.376a2.059 2.059 0 0 1-.023-.538zm-.466 1.819c-.317.471-.95.9-1.618.9-.72 0-1.422-.417-1.76-.9zM70.504 0c-1.274 0-2.737.735-2.737 2.246-.073.922.02 1.85.115 2.768.29 2.285 1.151 4.436 1.86 6.614h-.017c-.095 0-.446.01-.446.294v.784c-.403.198-.682.5-.955.723h-.876a.294.294 0 0 0-.294.294v.792c0 .157.184.287.341.293.071.133.083.252.101.375l-.33-.01h-.003a.307.307 0 0 0-.299.294v.76c0 .163.131.295.294.295.204 0 .674.01.756.01h.011C68.393 17.374 69.38 18 70.45 18c1.04 0 1.944-.67 2.284-1.478h.764c.275 0 .294-.192.294-.294v-.761c0-.128.055-.285-.59-.285a1.48 1.48 0 0 0-.016-.368c.283-.017.415-.142.415-.3v-.791a.294.294 0 0 0-.293-.294h-.876c-.273-.222-.553-.525-.955-.723v-.784c0-.16-.128-.29-.287-.293.007-.037 1.84-5.082 1.93-7.732.07-.998.168-2.12-.499-2.956C72.205.368 71.767 0 70.504 0zm8.974 3.071c-.27.13-.6.49-.1.55.24-.01.79-.26.69-.49a.221.221 0 0 1-.157.067c-.142 0-.287-.127-.433-.127zm-1.97.09c-.331.08-.501.44-.08.52l.021.002c.242 0 .901-.294.358-.361-.09-.06-.18-.16-.3-.16zm2.63-2.51c.59.69 1.11 1.49 1.211 2.41.1.66.13 1.321.23 1.971-.47-.04-.33-.77-.24-1.12.08-.69-.29-1.33-.55-1.941-.18-.33-.35-.85-.81-.86-.51.09-.841.52-1.171.89-.34-.34-.7-.71-1.17-.85a.236.236 0 0 0-.082-.013c-.105 0-.229.046-.286.046-.049 0-.048-.034.057-.164.064-.224.196-.29.359-.29.238 0 .542.141.8.141a.561.561 0 0 0 .112-.01c.084.004.169.007.254.007.437 0 .876-.067 1.286-.218zm-.16.76c.39.1.48.64.67.96.24.56.53 1.17.34 1.801-.15.3.04.68.02.9-.333.235-.626.73-1.069.73a.631.631 0 0 1-.15-.02c-.441-.09-.661-.51-1.001-.71-.247.238-.392.73-.798.73a.618.618 0 0 1-.183-.03c-.37-.08-.86-.04-.97-.49-.19-.46-.21-.97-.24-1.47a.324.324 0 0 0 .06.006c.203 0 .222-.235.24-.436.078-.293.287-.429.52-.429.158 0 .325.062.47.178.17.19.69.34.58.64-.05.18-.11.371-.17.561l.42.56c.04-.29.47-.53.22-.82-.04-.13-.19-.3-.17-.4.18-.32.42-.6.701-.84a.322.322 0 0 1 .23-.103c.268 0 .537.351.77.382.23-.25-.02-.35-.25-.48a.701.701 0 0 0-.486-.196c-.25 0-.5.13-.654.356-.19.114-.323.494-.49.494-.052 0-.108-.037-.17-.134-.306-.244-.672-.518-1.072-.518a.855.855 0 0 0-.179.018c-.283.059-.538.632-.56.632v-.001c-.01-.47.21-.89.34-1.351a.612.612 0 0 1 .596-.477c.173 0 .348.075.474.237.298.11.516.634.797.634.049 0 .1-.017.154-.054.31-.33.56-.72 1.01-.86zm-1.42 6.943c1.27 1.31 2.44 4.632 2.74 5.993-.49-.4-1.16-.66-1.31-.91-.16-.26-.6-2.792-1.43-5.083zm4.522-2.381c2.4 1.38 6.583 8.174 7.473 9.264-1.5-.95-2.981-1.91-4.592-2.691-2.26-1.11-4.192-2.911-6.033-4.592 1.521-.51 2.612-1.37 3.152-1.981zm-2.491 8.624c.32.19.61.45.96.59-.21.52-.34 1.1-.77 1.51-.081.13-.196.172-.328.172-.228 0-.504-.123-.735-.123-.016 0-.032 0-.048.002.28-.7.7-1.01.92-2.151zm.68-9.365c.06.126.138.167.22.167.108 0 .224-.071.32-.116.24.17 1.07.15.58.51-.31.42-1.967 1.566-3.119 1.768-.497.087.338.873.608 1.153 1.561 1.4 3.092 2.882 4.963 3.892 1.17.66 2.4 1.25 3.531 1.98.54.781 1.18 1.502 1.591 2.362-.41.12-.81.29-1.23.39a2.89 2.89 0 0 1-.703.082c-.661 0-1.325-.197-1.619-.512-.54-.57-1.13-3.001-1.44-3.892-.045-.1-.107-.133-.175-.133-.135 0-.292.132-.37.132a.041.041 0 0 1-.036-.019.391.391 0 0 0-.386-.376c-.175 0-.339.127-.314.396-.06.63-.18 1.26-.48 1.831-.037.097-.114.134-.215.134-.284 0-.761-.293-1.086-.374.13-.77-.92-4.712-4.002-8.014-.107-.116-.577-.611-.536-.611.005 0 .016.006.036.02.158.042.335.07.511.07.338 0 .669-.104.84-.42.026-.077.058-.108.096-.108.138 0 .345.399.564.399a.92.92 0 0 0 .514.155c.29 0 .578-.131.777-.355.19-.17.37-.34.56-.51zM80.229 0a3.72 3.72 0 0 1-1.36.28c-.072 0-.143-.004-.211-.01a.804.804 0 0 1-.143.012c-.337 0-.7-.18-1.025-.18a.622.622 0 0 0-.353.098c-.55.8-1.05 1.69-1.11 2.681-.11 1.901-.06 2.562 1.44 4.122.59 1.341 1.69 5.713 2.021 6.904.36.34-.45 2.2-.79 2.66-.185.256-.673.268-1.197.268h-.172c-.471 0-.948.01-1.243.193-.28.18-.38.85-.22.94.15-.23.45-.54.66-.57-.2.21.5.11.651.16.405.007.814.041 1.225.041.198 0 .397-.008.596-.03.09-.04.186-.102.228-.102.033 0 .033.038-.028.151.283.074.601.111.912.111.7 0 1.364-.187 1.51-.56.3-.551.58-1.131.78-1.732.255.054.576.234.833.234a.38.38 0 0 0 .207-.054c.28-.19.57-1.08.73-1.67.016-.062.099-.092.183-.092.081 0 .163.028.187.082.3.6.8 2.44 1.281 3.211.362.571 1.24.852 2.175.852a4.48 4.48 0 0 0 1.717-.332c.65-.28 1.13-.22.99-.58-.22-.6-.6-1.17-1-1.68.58.36 1.16.73 1.74 1.09.049.174.169.243.292.243.236 0 .483-.256.239-.513-2.271-3.282-5.883-8.875-8.384-10.685-.4-.35-.87-.62-1.39-.75-.17-.44-.12-1.031-.22-1.531-.1-.99-.701-2.632-1.752-3.262zM98.47.601l-.063 7.024-3.702.063-.031-7.055L98.47.6zM99.103 0l-5.03.032.031 8.289 4.904-.095L99.103 0zm8.787 4.493c1.074 0 2.418.551 3.069 1.202.569.569.643 1.324.664 2.025h-7.435c.02-.701.095-1.456.664-2.025.65-.65 1.964-1.202 3.038-1.202zm0-.602c-1.275 0-2.645.59-3.449 1.393-.824.824-.917 1.909-.917 2.72v.317h8.732v-.317c0-.811-.062-1.896-.886-2.72-.804-.804-2.206-1.393-3.48-1.393zm3.616 9.432v3.22l-1.984-1.216H96.806l-2.004 1.215v-3.22zm-17.433-.912V18l2.733-1.762h12.716L112.256 18v-5.589z"/></svg>