<svg xmlns="http://www.w3.org/2000/svg" width="50.924" height="18"><path d="M11.724 2.584q.07 0 .151.028.212.075.157.273-.054.199-.246.24-.038.008-.077.008-.158 0-.333-.131 0-.22.144-.342.089-.076.204-.076zm2.658 2.44q1.066.054 2.904 1.134 1.838 1.08 2.658 1.708-.957-.342-1.708-.342-2.269 0-3.225-.56t-.956-.813q0-.253.109-.253.929 0 1.011-.437l-.219-.068q-.185.212-.66.212h-.043q-.485 0-.485.512 0 .52 1.045 1.093 1.045.574 2.562.574.902 0 1.441.26.54.26.759.464l-.738.137q-.164-.342-1.735-.342-.93 0-1.367-.52h-.232q.656.547.642 1.012-.007.236-.038.236t-.085-.222q-.11-.451-1.27-.697-.032.355-.089.355-.067 0-.171-.505-.137-.342-1.216-1.018-1.08-.677-1.107-.875-.027-.198.697-.622.724-.423 1.516-.423zm.588 3.334q.56.15.752.574.382 1.01.389 1.824.007.813-.608.867-1.025 0-1.011.37H13.33q1.49-2.747 1.64-3.635zm1.544 4.236v1.284l-1.79-1.284zM11.95 2.25q-.423 0-.806.26-.3.341-.478.437-1.285.82-1.572 1.667 0 .256.122.256.046 0 .11-.038.575-1.024 1.586-1.339.3.092.525.092.112 0 .206-.023.175-.043.305-.043.077 0 .139.015.164.041-.048.506-.212.465-.39 1.127-.177.663.137 1.032.56.52 2.214 1.599.273.273.246.478-.014 1.025-.574 2.234-.52 1.12-1.132 1.12-.049 0-.098-.007-.874 0-.984.37H8.22v.6h5.753l2.541 1.873v1.284h.601v-3.184l3.143.014v-.588h-3.785q-.014-.314.096-.478.109-.164.04-.376-.068-.211-.102-.929-.034-.717-.102-1.646h1.516q.246 0 .916.41l1.325-.233q-.396-.56-1.325-.942.15.04 1.148.382.314 0 .232-.355-.137-.219-.52-.533-3.907-2.555-5.328-2.555-1.066 0-1.647.396-.113.077-.179.077-.274 0 .254-1.32.656-1.64-.847-1.64zM26.443 2.25l-.014.001a15.506 15.506 0 01-1.122.037c-.08.005-.087.107-.06.165.168.474.313.956.45 1.44h-.02c-.134.003-.27 0-.404.013l-.007.01c-.008-.03-.028-.058-.06-.065a28.706 28.706 0 01-1.274-.923c-.011-.002-.022-.005-.032-.005h-.008c-.041.026-.056.084-.08.127-.073.197-.134.399-.216.593-.058.148-.123.294-.167.446.02.042.057.055.097.055.039 0 .08-.012.113-.022.515-.11 1.046-.1 1.57-.107-.052.115-.074.243-.122.36-.02.066-.046.134-.06.202a.092.092 0 00-.014 0l-.016.001c-.64.248-1.264.552-1.81.97a6.77 6.77 0 00-.75.652c-.005.096.104.127.176.154l.442.182c-.075.103-.094.236-.142.353-.248.726-.596 1.413-.887 2.122 0 .058.055.087.108.087.02 0 .039-.004.055-.012.103-.019.206-.028.31-.03-.022.08-.03.165-.067.24-.174.555-.459 1.065-.674 1.604-.01.058.045.095.097.095a.1.1 0 00.045-.01 6.45 6.45 0 01.796-.092c-.03.074-.036.157-.06.234-.128.545-.317 1.082-.34 1.646-.004.367.04.733.099 1.095.1.595.28 1.174.511 1.73.003.051.05.083.095.083a.081.081 0 00.072-.04c.034-.075.045-.16.07-.238.134-.481.23-.974.272-1.472.042-.43.058-.863.055-1.295-.017-.505-.138-.999-.216-1.497-.013-.075-.023-.152-.042-.226a7.034 7.034 0 01.764.127c.08 0 .099-.107.062-.164-.216-.567-.437-1.134-.62-1.714l.027.005c.22.04.44.091.663.104.07-.058.02-.152-.014-.216-.269-.582-.489-1.193-.576-1.83-.028-.173-.028-.35-.058-.523.19.077.38.154.57.228.082-.02.086-.121.07-.19a2.105 2.105 0 01.266-1.198c.179-.318.436-.58.699-.828.104.09.225.156.342.227l-.059.015c-.216.418-.398.852-.591 1.28-.025.06-.054.12-.063.184.032.052.087.063.143.063.035 0 .071-.004.104-.004h.005l.241-.006c-.027.083-.034.176-.061.259-.155.639-.309 1.279-.461 1.919.018.068.086.082.15.082a.648.648 0 00.055-.003l.397-.014c-.037.105-.053.218-.089.323-.171.628-.346 1.257-.514 1.886.019.07.088.085.154.085a677.2 677.2 0 01.691-.021.867.867 0 00-.024.103c-.132.577-.335 1.144-.366 1.74-.002.54.078 1.077.201 1.602.102.423.247.836.41 1.239.007.046.051.077.094.077.025 0 .049-.01.065-.035.035-.062.041-.137.066-.205.18-.619.282-1.259.314-1.902.022-.343.034-.687.018-1.03-.035-.492-.147-.974-.225-1.46-.01-.048-.017-.097-.03-.145.222-.007.443-.014.664-.023.079-.06.035-.167.013-.245-.188-.674-.374-1.349-.567-2.021.185-.007.37-.014.554-.023.078-.06.034-.166.011-.243l-.584-1.969.595-.016c.075-.05.039-.15.004-.214-.177-.4-.35-.801-.534-1.199.132-.054.263-.11.391-.171.353.33.662.728.804 1.196.081.278.087.573.058.86.016.044.054.061.095.061a.2.2 0 00.101-.03l.443-.182-.004.004a5.206 5.206 0 01-.347 1.696c-.098.265-.22.52-.326.78-.006.057.047.091.098.091a.102.102 0 00.051-.013c.195-.029.39-.067.584-.105-.039.108-.065.221-.109.327-.166.486-.354.965-.534 1.445-.014.057.037.107.09.107a.08.08 0 00.042-.011 5.81 5.81 0 01.716-.116.57.57 0 00-.012.066c-.08.447-.167.892-.223 1.342-.03.281-.036.564-.018.846.026.713.097 1.429.288 2.118.033.117.064.236.102.351.014.03.045.044.075.044.038 0 .075-.021.084-.062a7.92 7.92 0 00.566-2.05c.05-.41.082-.828.004-1.236-.08-.434-.208-.857-.311-1.285-.017-.05-.026-.104-.042-.153.123.003.246.011.369.027.17.018.34.054.512.069.072-.02.066-.116.03-.166-.24-.577-.551-1.13-.704-1.738l-.008-.032c.029 0 .057 0 .086.002.11.008.218.03.326.039.077-.034.058-.134.022-.192-.318-.723-.662-1.437-.908-2.19-.023-.058-.04-.124-.074-.176L28.5 6.58c.2-.083.398-.166.596-.252.046-.08-.032-.156-.09-.201-.507-.462-1.064-.874-1.683-1.171a6.493 6.493 0 00-.716-.3c-.018-.055-.043-.11-.057-.163-.063-.181-.116-.368-.196-.542a.252.252 0 00.052.004l.06-.001h.153c.459 0 .92.015 1.37.118.013.006.029.009.046.009.045 0 .093-.023.083-.074-.087-.273-.21-.534-.3-.807-.039-.112-.078-.225-.128-.332a.113.113 0 00-.06-.008c-.42.308-.834.628-1.27.916-.046.023-.105.07-.072.127v.001a.848.848 0 00-.158-.012l-.16.002a1.243 1.243 0 01-.068-.001h-.035a.077.077 0 00.004-.029c.17-.508.34-1.022.63-1.476.036-.046.01-.127-.045-.137a.065.065 0 00-.012-.001zM33.409 2.25c-.09 0-.179.004-.268.012h-.042c-1.005 0-1.871.969-1.798 1.965-.054.784.11 1.558.152 2.338a.35.35 0 00.326.187.554.554 0 00.455-.245c.236-.33.132-.758.036-1.118-.106-.643-.145-1.359.208-1.936.228-.305.602-.457.977-.457.407 0 .814.18 1.029.541.344.506.252 1.241-.19 1.659-.427.505-1.068.838-1.341 1.464-.174.63-.028 1.288-.087 1.93-.056 2.342-.085 4.684-.13 7.027.121.101.264.12.411.12.086 0 .174-.006.26-.006.07 0 .14.004.206.019.319-.163.293-.573.27-.876-.113-2.457-.031-4.917-.093-7.375.007-.28-.084-.602.212-.762.59-.572 1.217-1.142 1.58-1.894.368-1.09-.457-2.397-1.6-2.536a2.837 2.837 0 00-.573-.057zM42.167 2.48q.067 0 .127.03.103.052.147.177t0 .198q-.103.117-.206.125h-.03q-.091 0-.205-.037-.088.088-.205.22-.147.191-.397.602-.279.456-.41.647-.31-.177-.515-.177.925-1.145 1.197-1.439.272-.294.397-.33.052-.016.1-.016zm-1.988 2.24q.412.206.5.368.088.161.014.161-.073 0-.176.089-.073-.265-.338-.617zm-.102.427l.646 2.423q-.309 0-.646.235V5.147zm2.062-2.897q-.197 0-.418.194l-1.733 2.071q-.558-.088-.866-.617.206-.25.698-.705.492-.455.403-.602-.042-.088-.144-.088-.252 0-.869.544-.66.47-1.057.763-.206.191-.338.668-.132.478-.397 1-.264.52-.25.814.037.184.122.184.084 0 .216-.184.191-.323.456-.734.264-.411.66-.764.28-.19.53-.235.278.103.425.397v8.106q-.866.235-.896 1.131-.044.338.206 1.043.176.514.66.514-.322-1.219-.322-1.557.03-.675.587-.675.602 0 .632.675 0 .338-.309 1.557.485 0 .646-.514.25-.705.191-1.043.015-.896-.895-1.13V8.421q.455-.323 1.19-.426-.295-1.498-.581-2.056-.253-.494.234-.494.064 0 .14.009-.176-.69-.704-.881V4.5q.032-.003.065-.003.296 0 .64.238.22-.293.499-.778.294-.5.396-.631.103-.133.147-.147.084.03.16.03.186 0 .318-.185.183-.257.007-.499t-.397-.272q-.026-.003-.052-.003z"/><path d="M8.22.375c-9.625 0-9.625 17.25 0 17.25M8.22.375h34.454M8.22 17.625h34.454M50.362.375v17.25M42.674.375c9.625 0 9.625 17.25 0 17.25" fill="none" stroke="#000"/></svg>