<svg xmlns="http://www.w3.org/2000/svg" width="67.364" height="18"><path d="M11.386 8.203c-.51.04-.793.296-.847.767.067.51.35.78.847.806.498-.026.76-.295.787-.806-.04-.47-.303-.726-.787-.767zm.06-1.694c.364 0 .7.068 1.01.202a2.659 2.659 0 011.371 1.361c.134.303.201.622.201.958 0 .35-.067.676-.202.978a2.567 2.567 0 01-2.38 1.523c-.362 0-.702-.064-1.018-.192a2.426 2.426 0 01-.816-.534 2.621 2.621 0 01-.545-.797 2.38 2.38 0 01-.202-.978c0-.336.068-.655.202-.958.134-.302.316-.571.545-.806.228-.236.5-.42.816-.555a2.574 2.574 0 011.019-.202zm-.04-.685c-.443 0-.86.084-1.25.252-.39.168-.726.396-1.008.685a3.36 3.36 0 00-.676 1.009 3.053 3.053 0 00-.252 1.24c0 .444.084.857.252 1.24.168.384.393.716.676.999a3.2 3.2 0 002.258.927c.444 0 .857-.084 1.24-.252a3.36 3.36 0 001.009-.675c.289-.283.518-.615.686-.999.168-.383.252-.796.252-1.24 0-.444-.084-.857-.252-1.24a3.268 3.268 0 00-1.694-1.694 3.053 3.053 0 00-1.24-.252zM29.476 4.03v1.756H16.544V4.03zM16.59 2.25v1.329h-.498v2.657h13.833V3.58h-.403V2.25h-.45v1.329h-1.116V2.25h-.45v1.329H26.39V2.25h-.45v1.329h-1.092V2.25h-.475v1.329h-1.092V2.25h-.45v1.329h-1.116V2.25h-.45v1.329H20.15V2.25h-.45v1.329h-1.092V2.25h-.45v1.329h-1.116V2.25zM17.79 13.744l-1.697 2.006h.827l.87-1.036.877 1.036.853-1.036.878 1.036.869-1.036.877 1.036.87-1.036.877 1.036.853-1.036.878 1.036.877-1.036.853 1.036.878-1.036.869 1.036h.827l-1.696-2.006-.878.97-.853-.97-.877.97-.878-.97-.853.97-.877-.97-.87.97-.877-.97-.87.97-.877-.97-.853.97-.877-.97zM33.296 2.25q-.248 0-.27.218l.24-.053q.15 0 .083.158-.173.165-.053.488-.22.475-.847.475l-.076-.002q.03.353-.15.533-.631.36-.631.66.495.234.165.571-.33.338-.33.458.217.068.3.233.375.916.758 1.3l-.03.307q.368 0 .406-.39-.691-.841-.669-1.795.03-.954 1.21-1.877.337-.188.337-.728 0-.556-.443-.556zm4.505 0q-.443 0-.443.556 0 .54.323.728 1.194.923 1.224 1.877.022.954-.683 1.795.052.39.405.39l-.023-.308q.376-.383.759-1.299.09-.165.293-.233 0-.12-.323-.458-.323-.337.165-.57 0-.3-.623-.661-.18-.18-.165-.533l-.075.002q-.614 0-.834-.475.113-.323-.052-.488-.068-.158.082-.158l.24.053q-.022-.218-.27-.218zm-2.256 4.115q.882 0 1.768.675.69.586.083 1.344h-3.71q-.608-.758.098-1.344.879-.675 1.76-.675zM32.89 8.64q-1.044 1.216-1.044 1.854.083.368.323.368.315 0 .405-.285 0-.946.406-1.585l-.09-.352zm5.316 0l-.09.352q.405.639.405 1.585.082.285.405.285.233 0 .323-.368 0-.638-1.043-1.854zm-3.29.135q.489 0 .489.518v3.912q-1.532 0-1.735-.984-.202-.984-.022-3.446zm2.509 0q.202 2.462-.008 3.446-.21.984-1.742.984V9.293q0-.518.488-.518zm-1.99-4.182v.27q0 .188-.15.188-.233 0-.556-.27h-.165l.518.975-.165.053q-.27-.353-.54-.728-.043-.02-.075-.02-.082 0-.098.125l.405.706q-.285.232-.285.405-.45 0-.676.353-.653.458-.653 1.014 0 .42.27.96-.188 1.044-.188 2.629 0 1.043.36 1.674.369.63 2.103.63 1.734 0 2.095-.63.368-.63.368-1.674.015-1.585-.173-2.613.27-.556.27-.976 0-.556-.66-1.014-.233-.353-.669-.353 0-.173-.307-.405l.405-.706q0-.124-.078-.124-.03 0-.072.019-.27.375-.54.728l-.166-.053.503-.976h-.15q-.338.27-.578.27-.128 0-.128-.187v-.27zm-2.967 6.621l-.029.001q-.878 1.554-.878 2.448 0 .893.307 1.434.316.54.856.653-.728-.976-.728-1.562 0-.578.135-.946.12 1.029.54 1.45-.187-.827-.172-1.743.008-.923.308-1.374.014-.36-.339-.36zm6.16 0q-.354 0-.34.361.285.45.3 1.374.015.916-.165 1.742.42-.42.54-1.449.136.368.136.946 0 .586-.728 1.562.54-.113.84-.653.308-.54.308-1.434 0-.894-.863-2.448h-.029zM43.025 2.25q-.248 0-.27.218l.24-.053q.15 0 .083.158-.173.165-.053.488-.22.475-.847.475l-.076-.002q.03.353-.15.533-.631.36-.631.66.495.234.165.571-.33.338-.33.458.217.068.3.233.375.916.758 1.3l-.03.307q.368 0 .406-.39-.691-.841-.669-1.795.03-.954 1.21-1.877.337-.188.337-.728 0-.556-.443-.556zm4.505 0q-.443 0-.443.556 0 .54.323.728 1.194.923 1.224 1.877.022.954-.683 1.795.052.39.405.39l-.022-.308q.375-.383.758-1.299.09-.165.293-.233 0-.12-.323-.458-.323-.337.165-.57 0-.3-.623-.661-.18-.18-.165-.533l-.075.002q-.614 0-.834-.475.113-.323-.052-.488-.068-.158.082-.158l.24.053q-.022-.218-.27-.218zm-2.256 4.115q.882 0 1.768.675.69.586.083 1.344h-3.71q-.608-.758.098-1.344.879-.675 1.76-.675zM42.62 8.64q-1.044 1.216-1.044 1.854.083.368.323.368.315 0 .405-.285 0-.946.406-1.585l-.09-.352zm5.316 0l-.09.352q.405.639.405 1.585.083.285.405.285.233 0 .323-.368 0-.638-1.043-1.854zm-3.289.135q.488 0 .488.518v3.912q-1.532 0-1.734-.984-.203-.984-.023-3.446zm2.508 0q.203 2.462-.008 3.446-.21.984-1.742.984V9.293q0-.518.488-.518zm-1.99-4.182v.27q0 .188-.15.188-.233 0-.556-.27h-.165l.518.975-.165.053q-.27-.353-.54-.728-.043-.02-.075-.02-.082 0-.098.125l.405.706q-.285.232-.285.405-.45 0-.676.353-.653.458-.653 1.014 0 .42.27.96-.188 1.044-.188 2.629 0 1.043.36 1.674.369.63 2.103.63 1.735 0 2.095-.63.368-.63.368-1.674.015-1.585-.173-2.613.27-.556.27-.976 0-.556-.66-1.014-.233-.353-.668-.353 0-.173-.308-.405l.405-.706q0-.124-.077-.124-.03 0-.073.019-.27.375-.54.728l-.166-.053.503-.976h-.15q-.338.27-.578.27-.128 0-.128-.187v-.27zm-2.967 6.621l-.029.001q-.878 1.554-.878 2.448 0 .893.308 1.434.315.54.856.653-.729-.976-.729-1.562 0-.578.135-.946.12 1.029.541 1.45-.188-.827-.173-1.743.008-.923.308-1.374.015-.36-.339-.36zm6.16 0q-.354 0-.34.361.286.45.3 1.374.016.916-.165 1.742.42-.42.541-1.449.135.368.135.946 0 .586-.728 1.562.54-.113.84-.653.309-.54.309-1.434 0-.894-.864-2.448h-.029zM52.754 2.25q-.247 0-.27.218l.24-.053q.15 0 .083.158-.173.165-.053.488-.22.475-.847.475l-.076-.002q.03.353-.15.533-.631.36-.631.66.496.234.165.571-.33.338-.33.458.218.068.3.233.376.916.758 1.3l-.03.307q.368 0 .406-.39-.69-.841-.668-1.795.03-.954 1.208-1.877.338-.188.338-.728 0-.556-.443-.556zm4.505 0q-.443 0-.443.556 0 .54.323.728 1.194.923 1.224 1.877.023.954-.683 1.795.052.39.405.39l-.022-.308q.375-.383.758-1.299.09-.165.293-.233 0-.12-.323-.458-.323-.337.165-.57 0-.3-.623-.661-.18-.18-.165-.533l-.075.002q-.614 0-.834-.475.113-.323-.052-.488-.068-.158.082-.158l.24.053q-.022-.218-.27-.218zm-2.256 4.115q.882 0 1.768.675.691.586.083 1.344h-3.71q-.607-.758.098-1.344.879-.675 1.761-.675zM52.35 8.64q-1.044 1.216-1.044 1.854.083.368.323.368.315 0 .406-.285 0-.946.405-1.585l-.09-.352zm5.316 0l-.09.352q.405.639.405 1.585.083.285.406.285.232 0 .322-.368 0-.638-1.043-1.854zm-3.289.135q.488 0 .488.518v3.912q-1.532 0-1.734-.984-.203-.984-.023-3.446zm2.508 0q.203 2.462-.008 3.446-.21.984-1.742.984V9.293q0-.518.489-.518zm-1.99-4.182v.27q0 .188-.15.188-.233 0-.556-.27h-.165l.518.975-.165.053q-.27-.353-.54-.728-.043-.02-.075-.02-.082 0-.098.125l.405.706q-.285.232-.285.405-.45 0-.676.353-.653.458-.653 1.014 0 .42.27.96-.187 1.044-.187 2.629 0 1.043.36 1.674.368.63 2.102.63 1.735 0 2.095-.63.368-.63.368-1.674.015-1.585-.173-2.613.27-.556.27-.976 0-.556-.66-1.014-.233-.353-.668-.353 0-.173-.308-.405l.405-.706q0-.124-.077-.124-.03 0-.073.019-.27.375-.54.728l-.166-.053.503-.976h-.15q-.338.27-.578.27-.128 0-.128-.187v-.27zm-2.967 6.621l-.029.001q-.878 1.554-.878 2.448 0 .893.308 1.434.315.54.856.653-.729-.976-.729-1.562 0-.578.136-.946.12 1.029.54 1.45-.188-.827-.173-1.743.008-.923.308-1.374.015-.36-.339-.36zm6.16 0q-.354 0-.34.361.286.45.3 1.374.016.916-.164 1.742.42-.42.54-1.449.135.368.135.946 0 .586-.728 1.562.54-.113.84-.653.309-.54.309-1.434 0-.894-.864-2.448h-.029z"/><path d="M8.22.375c-9.625 0-9.625 17.25 0 17.25M8.22.375h50.894M8.22 17.625h50.894M66.801.375v17.25M59.114.375c9.625 0 9.625 17.25 0 17.25" fill="none" stroke="#000"/></svg>