<svg xmlns="http://www.w3.org/2000/svg" width="55.473" height="18"><path d="M15.117 4.63c-.511.04-.794.295-.847.766.067.51.35.78.847.807.497-.027.76-.296.786-.807-.04-.47-.302-.726-.786-.766zm.06-1.694c.363 0 .7.067 1.009.201a2.659 2.659 0 011.371 1.361c.134.303.202.622.202.959 0 .35-.068.675-.202.978a2.567 2.567 0 01-2.38 1.523c-.363 0-.702-.065-1.018-.192a2.426 2.426 0 01-.817-.535 2.621 2.621 0 01-.544-.796 2.38 2.38 0 01-.202-.978c0-.337.067-.656.202-.958.134-.303.315-.572.544-.807.229-.235.5-.42.817-.555a2.574 2.574 0 011.018-.201zm-.04-.686c-.444 0-.86.084-1.25.252-.39.168-.726.397-1.009.686a3.36 3.36 0 00-.675 1.008 3.053 3.053 0 00-.253 1.24c0 .444.085.857.253 1.24.168.384.393.717.675.999a3.2 3.2 0 002.259.928c.444 0 .857-.084 1.24-.253a3.36 3.36 0 001.008-.675c.29-.282.518-.615.686-.998.168-.384.252-.797.252-1.24 0-.444-.084-.858-.252-1.24a3.268 3.268 0 00-1.694-1.695 3.053 3.053 0 00-1.24-.252zM21.603 13.543V15.3H8.67v-1.756zm-12.885-1.78v1.33H8.22v2.657h13.834v-2.658h-.404v-1.328h-.45v1.328h-1.116v-1.328h-.45v1.328h-1.116v-1.328h-.45v1.328h-1.092v-1.328H16.5v1.328H15.41v-1.328h-.451v1.328h-1.115v-1.328h-.451v1.328h-1.115v-1.328h-.451v1.328h-1.092v-1.328h-.45v1.328H9.168v-1.328zM25.423 2.25q-.247 0-.27.218l.24-.053q.15 0 .083.158-.173.165-.053.488-.22.475-.847.475l-.076-.002q.03.353-.15.533-.631.36-.631.66.495.234.165.571-.33.338-.33.458.217.068.3.233.375.916.758 1.3l-.03.307q.368 0 .406-.39-.69-.841-.668-1.795.03-.954 1.208-1.877.338-.188.338-.728 0-.556-.443-.556zm4.505 0q-.443 0-.443.556 0 .54.323.728 1.194.923 1.224 1.877.023.954-.683 1.795.052.39.405.39l-.022-.308q.375-.383.758-1.299.09-.165.293-.233 0-.12-.323-.458-.323-.337.165-.57 0-.3-.623-.661-.18-.18-.165-.533l-.075.002q-.614 0-.834-.475.113-.323-.052-.488-.068-.158.082-.158l.24.053q-.022-.218-.27-.218zm-2.256 4.115q.882 0 1.768.675.691.586.083 1.344h-3.71q-.607-.758.098-1.344.879-.675 1.761-.675zM25.018 8.64q-1.044 1.216-1.044 1.854.083.368.323.368.315 0 .406-.285 0-.946.405-1.585l-.09-.352zm5.316 0l-.09.352q.405.639.405 1.585.083.285.406.285.232 0 .322-.368 0-.638-1.043-1.854zm-3.289.135q.488 0 .488.518v3.912q-1.532 0-1.734-.984-.203-.984-.023-3.446zm2.508 0q.203 2.462-.008 3.446-.21.984-1.742.984V9.293q0-.518.488-.518zm-1.99-4.182v.27q0 .188-.15.188-.233 0-.556-.27h-.165l.518.975-.165.053q-.27-.353-.54-.728-.043-.02-.075-.02-.082 0-.098.125l.405.706q-.285.232-.285.405-.45 0-.676.353-.653.458-.653 1.014 0 .42.27.96-.187 1.044-.187 2.629 0 1.043.36 1.674.368.63 2.102.63 1.735 0 2.095-.63.368-.63.368-1.674.015-1.585-.173-2.613.27-.556.27-.976 0-.556-.66-1.014-.233-.353-.668-.353 0-.173-.308-.405l.405-.706q0-.124-.077-.124-.03 0-.073.019-.27.375-.54.728l-.166-.053.503-.976h-.15q-.338.27-.578.27-.128 0-.128-.187v-.27zm-2.967 6.621l-.029.001q-.878 1.554-.878 2.448 0 .893.308 1.434.315.54.856.653-.729-.976-.729-1.562 0-.578.136-.946.12 1.029.54 1.45-.188-.827-.173-1.743.008-.923.308-1.374.015-.36-.339-.36zm6.16 0q-.354 0-.34.361.286.45.3 1.374.016.916-.164 1.742.42-.42.54-1.449.135.368.135.946 0 .586-.728 1.562.54-.113.84-.653.309-.54.309-1.434 0-.894-.864-2.448h-.029zM39.214 2.25a1.31 1.31 0 00-.313.039c-.21.051-.437.168-.683.35h-4.935V3.73h4.935c.246.182.473.299.683.35a1.31 1.31 0 00.622 0c.206-.051.412-.168.617-.35h.19c.198.182.402.299.611.35a1.316 1.316 0 00.63 0c.209-.051.432-.168.67-.35h4.982V2.64H42.24c-.237-.182-.46-.299-.67-.35a1.316 1.316 0 00-.629 0c-.21.051-.413.168-.61.35h-.19a1.492 1.492 0 00-.618-.35 1.274 1.274 0 00-.31-.039zM46.79 8.904zm-.002.152zm-11.83-.581v.897c-.132-.06-.264-.118-.387-.18a1.247 1.247 0 00-.357-.099c-.102-.016-.208-.026-.303-.046a.352.352 0 01-.151-.054c-.012-.01-.02-.022-.02-.07 0-.047.008-.059.02-.069a.352.352 0 01.15-.054c.096-.02.202-.03.304-.046.128-.02.252-.048.357-.1.123-.06.255-.118.388-.18zm0 .897zm.457.064zm8.272-1.028c.088 0 .177.001.265.003.496.012 1.239.13 1.853.284.305.076.576.16.77.243.03.013.057.025.082.038-.022.01-.046.019-.072.029a5.396 5.396 0 01-.77.203c-.618.126-1.364.216-1.863.228-.088.002-.177.003-.265.003-.898 0-1.792-.102-2.687-.206-.955-.111-1.91-.224-2.869-.224h-.146c-.839.01-1.802.104-2.57.427V8.411c.768.323 1.731.416 2.57.427h.146c.96 0 1.914-.113 2.869-.224.895-.104 1.789-.206 2.687-.206zm-8.447-.593l-.11.064c-.256.146-.523.249-.76.366a.802.802 0 01-.226.058c-.11.017-.222.029-.325.05a.791.791 0 00-.351.15.524.524 0 00-.185.42c0 .183.069.324.185.42a.791.791 0 00.35.151c.104.021.216.033.326.05a.802.802 0 01.225.058c.238.117.505.22.76.366l.11.064.112-.06c.739-.397 1.769-.496 2.64-.506l.141-.001c.941 0 1.879.112 2.815.22.913.107 1.826.21 2.742.21.091 0 .182 0 .274-.003.526-.012 1.299-.106 1.943-.237.328-.066.623-.142.839-.223.12-.045.22-.093.292-.144a.51.51 0 00.117-.109.326.326 0 00.07-.196.33.33 0 00-.067-.195.536.536 0 00-.113-.112 1.436 1.436 0 00-.29-.157 5.82 5.82 0 00-.838-.266c-.648-.162-1.423-.286-1.953-.298a11.64 11.64 0 00-.274-.003c-.916 0-1.829.103-2.742.21-.936.108-1.874.22-2.815.22h-.141c-.871-.011-1.901-.11-2.64-.507l-.111-.06zM34.993 13.728l-1.71 2.022h.834l.876-1.044.884 1.044.86-1.044.884 1.044.876-1.044.884 1.044.876-1.044.885 1.044.859-1.044.884 1.044.885-1.044.859 1.044.884-1.044.876 1.044h.834l-1.71-2.022-.884.978-.86-.978-.884.978-.884-.978-.86.978-.884-.978-.876.978-.884-.978-.876.978-.885-.978-.859.978-.884-.978z"/><path d="M8.22.375c-9.625 0-9.625 17.25 0 17.25M8.22.375h39.003M8.22 17.625h39.003M54.91.375v17.25M47.223.375c9.625 0 9.625 17.25 0 17.25" fill="none" stroke="#000"/></svg>