<svg xmlns="http://www.w3.org/2000/svg" width="91.558" height="18"><path d="M3.01.474c.693 0 1.247.2 1.634.479.006.053.02.107.009.16-.05.248-.195.477-.396.63-.316.207-.697.267-1.057.356-.09.01-.019.031.031.04.23.04.707.099.971.099l.052-.001c.278-.032.54-.148.766-.311.079-.067.147-.15.205-.236.147.346.227.713.26.917.018.11.096.2.202.233 1.139.349 2.038 1.91 2.88 2.949 1.729 2.137 3.199 4.526 4.892 6.76-.937-.456-1.87-.916-2.81-1.374-1.92-1.01-3.92-1.816-5.604-3.09l-.008-.008c-.97-.808-1.963-1.66-2.339-2.793-.148-.92 1.757-2.577 1.542-2.646a.207.207 0 0 0-.064-.01c-.458 0-1.753 1.128-2.019 2.202-.003-.014-.01-.03-.014-.045-.073-.356-.154-1.256.068-1.98a.29.29 0 0 0 .01-.103 1.968 1.968 0 0 0-.123-.634c-.063-.17-.139-.344-.26-.765-.031-.108-.142-.328-.208-.345.186-.138.375-.28.645-.375a.434.434 0 0 0-.132.314c0 .23.164.415.365.415.2 0 .364-.186.364-.415V.894a.411.411 0 0 0-.255-.39c.053-.007.096-.019.154-.022.081-.006.16-.008.238-.008zm.67 7.763c.065.065.135.124.202.187.214.78.412 1.64.692 2.305.483 1.145 1.216 2.141 1.84 3.154a1.814 1.814 0 0 0-.385.27 6.831 6.831 0 0 0-.199.193 2.61 2.61 0 0 0-1.186-.897c.045-.723-.108-1.712-.34-2.787a34.903 34.903 0 0 0-.624-2.425zm1.006.908c1.149.945 2.428 1.738 3.676 2.54-.018.91-.018 1.778.084 2.675a3.411 3.411 0 0 0-1.437-.736c-.02 0-.037.012-.057.012-.649-1.063-1.383-2.06-1.837-3.134-.156-.37-.293-.85-.429-1.357zm.407 5.254a2.5 2.5 0 0 1 .44.541.3.3 0 0 0 .257.14.29.29 0 0 0 .17-.053c.215-.156.347-.324.476-.446.047-.045.097-.08.148-.117l.149 2.722c-.213-.014-.435-.035-.637-.035-.264 0-.495.036-.633.172-.169-.134-.497-.164-.89-.164-.102 0-.207.002-.316.004l.836-2.764zM6.25 9.574c1.354.787 2.784 1.414 4.135 2.125a.244.244 0 0 0 .006.003c1.295.631 2.586 1.28 3.894 1.904.984 1.189 2.052 2.295 3.078 3.42l-2.15.362-4.267-4.635a.288.288 0 0 0-.037-.036c-1.499-1.137-3.152-2.082-4.66-3.143zM3.076 0c-.135 0-.273.005-.411.013C1.58.083.792.54.523 1.157c-.04.093-.146.314-.007.314a2.35 2.35 0 0 1 .341-.028c.418 0 .38.172.47.194.09.282.29.846.303 1.068-.244.86-.153 1.763-.064 2.198.15.732.63 1.584 1.261 2.38a.285.285 0 0 0 0 .166 35.3 35.3 0 0 1 .903 3.336c.251 1.168.393 2.277.317 2.823a.294.294 0 0 0 .221.328c.045.011.084.031.127.045l-.928 3.079a2.847 2.847 0 0 0-.593-.055c-.381 0-.756.05-1.064.05-.125 0-.24-.008-.34-.032a.546.546 0 0 0-.125-.012c-.436 0-1.428.306-1.34.879.15-.128.257-.159.375-.159.11 0 .23.027.405.027h.027c.254-.004.697-.083 1.053-.083.18 0 .338.02.438.08.236-.01.45-.013.649-.013.85 0 1.447.07 2.5.075a89.565 89.565 0 0 0 2.974-.079c.45.003.697.054.922.054h.04c.134-.004.265-.057.48-.057.123 0 .273.017.468.07-.25-.341-.877-.685-1.33-.685a.591.591 0 0 0-.302.071 5.081 5.081 0 0 0-.508-.022c-.22 0-.448.01-.678.02l-.157-2.83c.487.203.857.517 1.281 1.021a.295.295 0 0 0 .513-.246c-.192-1.039-.213-2.019-.202-3.06.54.354 1.072.713 1.576 1.094l4.36 4.738a.29.29 0 0 0 .263.09c.95-.159 1.9-.315 2.849-.474a.294.294 0 0 0 .23-.193.298.298 0 0 0-.06-.297c-.741-.83-1.508-1.631-2.25-2.445 1.269.78 2.875 1.755 3.08 1.755.022 0 .027-.013.012-.04-.094-.163-.9-.755-1.775-1.373.14.058.276.12.415.177l.017.01c.103.035.16.059.27.062a.286.286 0 0 0 .108-.016.317.317 0 0 0 .188-.152.32.32 0 0 0 .023-.238c-.017-.05-.038-.077-.054-.098-.061-.085-.103-.109-.162-.154a4.553 4.553 0 0 0-.205-.149c-.153-.105-.336-.223-.493-.328a4.992 4.992 0 0 1-.328-.233.307.307 0 0 0-.028-.025l-3.892-2.736c-.008-.006-.02-.001-.028-.006-1.333-1.869-2.588-3.825-4.046-5.627-.744-.92-1.598-2.528-2.985-3.064-.067-.396-.218-1.127-.755-1.649C4.827.26 4.168.056 3.427.011A5.728 5.728 0 0 0 3.076 0zm24.016 2.575c1.186 0 2.193.886 2.548 1.763l-1.08.159c-.271-.537-.816-.838-1.54-.838h-.017c-.699.004-1.246.36-1.441.838l-1.064-.242c.46-.985 1.527-1.674 2.58-1.68h.014zm-.019 1.952c.436 0 .658.274.658.799 0 .475-.222.985-.658 1.55-.436-.565-.657-1.075-.657-1.55 0-.525.221-.799.657-.799zm0 3.71c.359.527.475 1.398 0 2.277-.308-.683-.41-1.522 0-2.277zm0-5.987c-.664 0-1.271.2-1.831.587-.56.386-.973 1.003-1.221 1.855l1.432.094c-.03.158-.047.332-.047.54 0 .644.357 1.37 1.08 2.183-.287.555-.504 1.04-.493 1.69-.024.983.237 1.31.564 2.231l-1.902 4.32h.986l1.432-3.569 1.409 3.569h1.01l-1.902-4.32c.327-.921.55-1.222.54-2.23.01-.651-.196-1.136-.493-1.69.733-.813 1.103-1.54 1.103-2.184 0-.208-.03-.382-.07-.54l1.432-.094c-.248-.852-.633-1.469-1.198-1.855-.564-.386-1.177-.587-1.83-.587zm5.604 5.593v1.242c-.424 0-.636-.212-.636-.636 0-.404.212-.606.636-.606zm1.571-5.593c-.347 0-.64.087-.882.262-.459.333-.689.818-.689 1.454v3.438c-.707 0-1.065.349-1.075 1.045 0 .707.358 1.06 1.075 1.06v6.241h.56V4.3c0-.768.149-1.26.447-1.478.154-.112.357-.168.629-.168.252 0 .565.048.954.146a.502.502 0 0 0 .16.032c.083 0 .14-.036.174-.108.01-.121-.081-.207-.273-.258-.404-.144-.764-.216-1.08-.216zm3.928 5.593v1.242c-.424 0-.636-.212-.636-.636 0-.404.212-.606.636-.606zm1.571-5.593c-.347 0-.641.087-.882.262-.46.333-.689.818-.689 1.454v3.438c-.707 0-1.065.349-1.075 1.045 0 .707.358 1.06 1.075 1.06v6.241h.56V4.3c0-.768.149-1.26.447-1.478.154-.112.357-.168.628-.168.253 0 .566.048.955.146.06.021.114.032.16.032.083 0 .14-.036.173-.108.01-.121-.08-.207-.272-.258-.404-.144-.764-.216-1.08-.216zm3.928 5.593v1.242c-.424 0-.636-.212-.636-.636 0-.404.212-.606.636-.606zm1.57-5.593c-.346 0-.64.087-.881.262-.46.333-.69.818-.69 1.454v3.438c-.706 0-1.065.349-1.075 1.045 0 .707.359 1.06 1.076 1.06v6.241h.56V4.3c0-.768.148-1.26.446-1.478.155-.112.357-.168.629-.168.253 0 .565.048.955.146.06.021.113.032.159.032.083 0 .141-.036.174-.108.01-.121-.08-.207-.273-.258-.404-.144-.763-.216-1.08-.216zm9.165 1.736zm-5.004.34q-.12 0-.12.108 0 .156.276.204.3-.036.3-.264l-.06-.048zm.192.589q-.312 0-.312.192 0 .096.108.096h.396l.048-.048q0-.216-.24-.24zm4.246-.323q-.106 0-.213.004-1.56.066-3.228.066-.133 0-.169.085v.036q.036.084.169.084 1.788-.024 2.55-.066.254-.014.518-.014.528 0 1.096.056 1.285.276 1.927.912.642.636 1.086 1.926.444 1.29.564 1.47h.012q-.708-2.832-1.836-3.726-1.05-.833-2.476-.833zm-.861-.554q.744 0 1.542.24.799.24 1.23.45.433.21 1.14.99.709.78 1.621 4.538h-.072q-.684-1.849-1.056-2.743-.372-.894-1.068-1.638-.554-.592-1.289-.592-.19 0-.392.04-.984.192-1.434.192-.45 0-.978-.168 0-.108-1.5-.264-.42.012-.63.168-.21.156-.33.156-.385 0-1.405-.66v-.06q.94-.553 1.42-.553h.02q.168 0 .336.144t.709.144q.36 0 .756-.084.924-.3 1.38-.3zM49.91 2.25l-.072.036.048.168q-.096.096-.072.24-.09-.049-.178-.049-.062 0-.122.025l-.132-.072-.06.06.12.12q.036.324.264.324-.108.156-.096.312l-.18.06.012.084.204-.048q.088.072.187.072.05 0 .101-.018.156-.054.156-.186.436.24.959.24h.05q-.3.3-.324.492-.053.004-.1.004-.298 0-.38-.13-.097-.15-.6-.15-.3.012-1.345.624-.252.06-.252.168v.217q0 .12.264.192.984.648 1.356.648.396 0 .534-.156.113-.127.466-.127.082 0 .177.007.12.204.432.492h-.05q-.534 0-.97.252.011-.144-.157-.198-.056-.018-.106-.018-.102 0-.182.072l-.204-.06-.024.096.192.072q-.012.144.096.3-.228 0-.264.324l-.12.12.048.06.12-.096q.078.042.156.042t.156-.042q-.024.144.084.24l-.048.168.06.048.108-.18q.023.004.043.004.113 0 .174-.112.098.098.196.098.07 0 .14-.05l.156.072.036-.072-.132-.06q.024-.192-.06-.228.144-.12.012-.264.22-.02.472-.02.377 0 .824.044.192-.048.192-.288-.084-.372-.252-.696.696.264 1.074.264.378 0 .93-.18-.132.336.012.456.696.288 1.152.588-.18.06-.108.24h-.01q-.09 0-.146.18h-.144l-.012.06.18.024q.062.124.202.124.05 0 .11-.016 0 .144.133.192l.024.204h.072l.036-.168q.144-.036.192-.18.084.144.276.144l.048.132.084-.024-.06-.156q.12-.3-.072-.408.156-.096.216-.228l.204.024.024-.096-.216-.036q-.048-.156-.222-.186-.035-.006-.065-.006-.119 0-.157.096-.288-.432-.793-.672.42-.132.613-.24.156.036.822.726.666.69 1.542 3.355.348 1.092.648 1.092.264-.06.264-.24-.024-.132-.558-2.083-.534-1.95-1.152-2.826-.618-.876-1.698-1.417-.048-.108-.289-.468.259.063.509.063.273 0 .536-.075-.036.144.114.228.075.042.148.042.074 0 .146-.042l.18.12.036-.084-.168-.108q.048-.144-.012-.336.035.01.067.01.166 0 .257-.262l.144-.084-.036-.072-.132.072q-.103-.086-.218-.086-.046 0-.094.014.06-.132-.024-.264l.096-.144-.06-.06-.144.144q-.045-.015-.083-.015-.087 0-.145.075-.096-.14-.224-.14-.048 0-.1.02l-.144-.108-.036.06.108.096q-.06.18.012.228-.168.096-.072.264-.552-.084-1.26-.324-.205 0-.253.24-.012.382.083.716-.677-.236-1.265-.236-.594 0-1.338.24.168-.312.252-.684 0-.252-.18-.288-.413.04-.764.04-.294 0-.544-.028.192-.192.18-.564-.108.072-.192.072l-.144-.288q-.012.06-.205.264-.05-.1-.158-.1-.022 0-.046.004l-.096-.168zm-1.226 9.636v3.864h.646v-3.864zm4.44.005v3.859h.646v-3.859zm4.52 0v3.859h.646v-3.859zm9.323-8.722l1.185 1.45v.015l-1.185 1.557-1.184-1.557V4.62l1.184-1.45zm-.319-.304l-1.412 1.754 1.184 1.587q-.622 0-1.245-.16-.63-.159-1.283-.47-.66-.304-1.435-1.033-.782-.721-1.283-1.678zm6.128 0q-.501.957-1.276 1.678-.774.73-1.435 1.033-.66.311-1.283.47-.63.16-1.245.16l1.184-1.587-1.42-1.754zm-12.4-.615q0 .402.32 1.017.318.616.926 1.337.607.714 1.867 1.465 1.238.737 3.387.737h.182q2.15 0 3.394-.737 1.276-.751 1.883-1.465.608-.721.92-1.337.303-.615.303-1.017zm1.807 9.652v3.848h.644v-3.848zm4.423.005v3.843h.643v-3.843zm4.502 0v3.843h.643v-3.843z"/><path d="M21.396.375v17.25m0-17.25h2.625m-2.625 17.25h2.625m0-17.25h49.537m-49.537 17.25h49.537m0-17.25h17.625m-17.625 17.25h17.625M75.32.375v17.25M78.845.375v17.25M80.608.375v17.25M82.37 2.1h8.813M82.37 5.55h8.813M82.37 2.1v3.45m1.763-1.725h7.05m-8.813 3.45h8.813m-8.813 3.45h8.813m-8.813-3.45v3.45M84.133 9h7.05m-8.813 3.45h8.813M82.37 15.9h8.813m-8.813-3.45v3.45m1.763-1.725h7.05" fill="none" stroke="#000"/></svg>