<svg xmlns="http://www.w3.org/2000/svg" width="49.102" height="18"><path d="M11.386 8.203c-.51.04-.793.296-.847.767.067.51.35.78.847.806.498-.026.76-.295.787-.806-.04-.47-.303-.726-.787-.767zm.06-1.694c.364 0 .7.068 1.01.202a2.659 2.659 0 011.371 1.361c.134.303.201.622.201.958 0 .35-.067.676-.202.978a2.567 2.567 0 01-2.38 1.523c-.362 0-.702-.064-1.018-.192a2.426 2.426 0 01-.816-.534 2.621 2.621 0 01-.545-.797 2.38 2.38 0 01-.202-.978c0-.336.068-.655.202-.958.134-.302.316-.571.545-.806.228-.236.5-.42.816-.555a2.574 2.574 0 011.019-.202zm-.04-.685c-.443 0-.86.084-1.25.252-.39.168-.726.396-1.008.685a3.36 3.36 0 00-.676 1.009 3.053 3.053 0 00-.252 1.24c0 .444.084.857.252 1.24.168.384.393.716.676.999a3.2 3.2 0 002.258.927c.444 0 .857-.084 1.24-.252a3.36 3.36 0 001.009-.675c.289-.283.518-.615.686-.999.168-.383.252-.796.252-1.24 0-.444-.084-.857-.252-1.24a3.268 3.268 0 00-1.694-1.694 3.053 3.053 0 00-1.24-.252zM16.936 3.435q.82.851 1.193 1.937.372 1.087-.335 1.277-.102.027-.193.027-.544 0-.726-.962-.213-1.124.061-2.279zm11.798-.326q.103 0 .167.076.235.28-.7 1.496-.934 1.216-1.997 2.4-1.064 1.186-2.173 1.414-1.109.227-4.68.623l-1.382.364q-.365-.562-.273-1.124.442-.195.758-.195.5 0 .685.484 3.627-1.037 5.25-1.037.09 0 .174.003 2.552-3.19 3.327-3.95.566-.554.844-.554zm.22-.859h-.015q-.669.015-1.512.859-.843.843-3.107 3.836-1.292.137-4.953 1.109-.327-.585-.812-.585-.056 0-.115.008l-.076-.32q1.124-1.078.137-2.727-.936-1.562-1.626-1.562-.038 0-.076.005-.668.289-.706 2.21-.038 1.923 1.527 2.287l.09.335q-.516.136-.615.683-.098.547.13 1.147.182.48.77.48.149 0 .324-.031l.151.562.745-.213-.167-.638.41-.107q3.54-.273 5.773-.774 4.36-3.92 4.369-5.25.007-1.314-.646-1.314zM22.846 12.764q2.379 0 5.045 1.15-2.666 1.118-5.045 1.118-2.363 0-5.045-1.118 2.682-1.15 5.045-1.15zm0-.734q-2.938 0-6.753 1.868 3.815 1.852 6.753 1.852t6.754-1.852q-3.8-1.868-6.754-1.868zM31.85 3.897q-.09 0-.216.11-.496.668-.534 1.909.152.973.687 2.748-.191 1.431-.287 3.931-.076.84.458 1.088 1.584.42 4.008.42 2.443 0 4.008-.42.554-.248.477-1.088-.095-2.5-.286-3.931.534-1.775.687-2.748-.038-1.241-.534-1.909-.126-.11-.216-.11-.129 0-.185.225.133.381.248.744.153.458.114.859-.038.649-.124 1.059-.085.41-.353.41l-.028.001q-.449 0-.449-1.203 0-.44.115-1.069-.099-.167-.212-.167-.107 0-.227.148-.057.458-.077 1.012-.076.84.401 2.366-.172 2.157-.172 4.313-1.297.21-3.187.267-1.87-.057-3.168-.267 0-2.156-.172-4.313.477-1.527.401-2.366-.019-.554-.076-1.012-.12-.148-.227-.148-.114 0-.212.167.114.63.114 1.069 0 1.203-.449 1.203h-.028q-.267 0-.353-.411-.086-.41-.124-1.06-.038-.4.115-.858.114-.363.248-.744-.056-.225-.185-.225z"/><path d="M8.22.375c-9.625 0-9.625 17.25 0 17.25M8.22.375h32.632M8.22 17.625h32.632M48.54.375v17.25M40.852.375c9.625 0 9.625 17.25 0 17.25" fill="none" stroke="#000"/></svg>