<svg xmlns="http://www.w3.org/2000/svg" width="52.626" height="18"><path d="M11.386 8.203c-.51.04-.793.296-.847.767.067.51.35.78.847.806.498-.026.76-.295.787-.806-.04-.47-.303-.726-.787-.767zm.06-1.694c.364 0 .7.068 1.01.202a2.659 2.659 0 011.371 1.361c.134.303.201.622.201.958 0 .35-.067.676-.202.978a2.567 2.567 0 01-2.38 1.523c-.362 0-.702-.064-1.018-.192a2.426 2.426 0 01-.816-.534 2.621 2.621 0 01-.545-.797 2.38 2.38 0 01-.202-.978c0-.336.068-.655.202-.958.134-.302.316-.571.545-.806.228-.236.5-.42.816-.555a2.574 2.574 0 011.019-.202zm-.04-.685c-.443 0-.86.084-1.25.252-.39.168-.726.396-1.008.685a3.36 3.36 0 00-.676 1.009 3.053 3.053 0 00-.252 1.24c0 .444.084.857.252 1.24.168.384.393.716.676.999a3.2 3.2 0 002.258.927c.444 0 .857-.084 1.24-.252a3.36 3.36 0 001.009-.675c.289-.283.518-.615.686-.999.168-.383.252-.796.252-1.24 0-.444-.084-.857-.252-1.24a3.268 3.268 0 00-1.694-1.694 3.053 3.053 0 00-1.24-.252zM17.882 11.088c.4.153.837.645.965 1.05.128.406.112.879.022 1.344-.09.458-.27.894-.488 1.18-.15.195-.285.307-.413.345h-.12c-.127-.03-.293-.143-.458-.346-.217-.285-.398-.72-.488-1.179-.09-.465-.105-.938.023-1.344.127-.405.606-.931.957-1.046v-.004zm-.424-8.838v.901h-.811v.578h.81l-.112 6.818c-.578.3-.938.81-1.111 1.359a3.576 3.576 0 00-.068 1.734 3.49 3.49 0 00.646 1.457c.233.3.54.548.901.623v.022c.023.008.045.008.068.008.03 0 .06-.008.09-.008a.532.532 0 00.105.008c.03 0 .052 0 .082-.008v-.022c.36-.075.669-.323.901-.623a3.49 3.49 0 00.646-1.457 3.576 3.576 0 00-.067-1.734 2.228 2.228 0 00-1.112-1.337l-.112-6.84h.766l.022-.578h-.856V2.25h-.788zM23.048 2.25q-.247 0-.27.218l.24-.053q.15 0 .083.158-.173.165-.053.488-.22.475-.847.475l-.076-.002q.03.353-.15.533-.631.36-.631.66.496.234.165.571-.33.338-.33.458.218.068.3.233.376.916.759 1.3l-.03.307q.367 0 .405-.39-.69-.841-.668-1.795.03-.954 1.209-1.877.337-.188.337-.728 0-.556-.443-.556zm4.505 0q-.443 0-.443.556 0 .54.323.728 1.194.923 1.224 1.877.023.954-.683 1.795.052.39.405.39l-.022-.308q.375-.383.758-1.299.09-.165.293-.233 0-.12-.323-.458-.323-.337.165-.57 0-.3-.623-.661-.18-.18-.165-.533l-.075.002q-.614 0-.834-.475.113-.323-.052-.488-.068-.158.082-.158l.24.053q-.022-.218-.27-.218zm-2.256 4.115q.882 0 1.768.675.691.586.083 1.344h-3.71q-.607-.758.098-1.344.879-.675 1.761-.675zM22.643 8.64q-1.044 1.216-1.044 1.854.083.368.323.368.316 0 .406-.285 0-.946.405-1.585l-.09-.352zm5.316 0l-.09.352q.405.639.405 1.585.083.285.406.285.232 0 .323-.368 0-.638-1.044-1.854zm-3.289.135q.488 0 .488.518v3.912q-1.531 0-1.734-.984-.203-.984-.023-3.446zm2.508 0q.203 2.462-.007 3.446-.21.984-1.742.984V9.293q0-.518.488-.518zm-1.99-4.182v.27q0 .188-.15.188-.233 0-.555-.27h-.166l.518.975-.165.053q-.27-.353-.54-.728-.043-.02-.075-.02-.082 0-.098.125l.405.706q-.285.232-.285.405-.45 0-.676.353-.653.458-.653 1.014 0 .42.27.96-.187 1.044-.187 2.629 0 1.043.36 1.674.368.63 2.102.63 1.735 0 2.095-.63.368-.63.368-1.674.015-1.585-.173-2.613.27-.556.27-.976 0-.556-.66-1.014-.233-.353-.668-.353 0-.173-.308-.405l.405-.706q0-.124-.077-.124-.03 0-.073.019-.27.375-.54.728l-.166-.053.504-.976h-.15q-.339.27-.579.27-.127 0-.127-.187v-.27zm-2.967 6.621l-.029.001q-.878 1.554-.878 2.448 0 .893.308 1.434.315.54.856.653-.729-.976-.729-1.562 0-.578.136-.946.12 1.029.54 1.45-.187-.827-.172-1.743.007-.923.307-1.374.015-.36-.339-.36zm6.16 0q-.354 0-.34.361.286.45.3 1.374.016.916-.164 1.742.42-.42.54-1.449.135.368.135.946 0 .586-.728 1.562.54-.113.841-.653.308-.54.308-1.434 0-.894-.864-2.448h-.028zM32.888 3.738c-.32.025-.496.185-.53.48.042.319.219.487.53.503.31-.016.475-.184.491-.504-.025-.294-.189-.454-.491-.48zm.038-1.06c.227 0 .437.043.63.127s.364.2.51.347c.148.147.263.315.347.504.085.19.127.389.127.599 0 .219-.042.422-.127.612a1.585 1.585 0 01-.857.832c-.193.08-.403.12-.63.12-.227 0-.44-.04-.637-.12a1.517 1.517 0 01-.51-.334 1.639 1.639 0 01-.341-.498 1.489 1.489 0 01-.126-.612c0-.21.042-.41.126-.599.084-.19.197-.357.34-.504.143-.148.313-.263.51-.347a1.61 1.61 0 01.638-.126zM32.9 2.25c-.277 0-.538.053-.781.158a1.949 1.949 0 00-.631.428c-.176.181-.317.391-.422.63a1.91 1.91 0 00-.158.776c0 .278.053.536.158.776.105.24.246.447.422.624a2.001 2.001 0 003.247-.624 1.91 1.91 0 00.158-.776 1.91 1.91 0 00-.158-.775 2.044 2.044 0 00-1.06-1.06 1.91 1.91 0 00-.775-.157zM35.83 2.785v3.437h.575V2.785zm3.95.004v3.433h.575V2.789zm4.022 0v3.433h.574V2.789zM40.256 7.867q.109 0 .14.06.068.047.015.253-.061.213-.26.389-.198.198-.42.244-.073.015-.129.015-.112 0-.152-.061-.046-.046.007-.267.054-.221.252-.397.198-.175.42-.22.073-.016.127-.016zm-.677 2.738v.816h-3.958v-.816zm.737-3.159q-.08 0-.172.017-.39.068-.679.35-.35.313-.42.687-.06.198-.053.26.008.026.012.034l-1.308 1.323h-2.563v.488h-4.225v.747l1.792 1.22h.221v-.396l-.51-.755h2.722v.488h4.934v-.488h4.31v-.816h-4.31v-.488h-1.502l.885-.885q.035.008.079.008.086 0 .203-.03.381-.047.686-.329.336-.312.412-.679.076-.366-.122-.587-.134-.169-.392-.169zM32.56 13.797l-1.652 1.953h.806l.846-1.01.855 1.01.83-1.01.854 1.01.846-1.01.855 1.01.846-1.01.855 1.01.83-1.01.854 1.01.855-1.01.83 1.01.854-1.01.847 1.01h.805l-1.652-1.953-.854.944-.83-.944-.855.944-.854-.944-.83.944-.855-.944-.846.944-.855-.944-.846.944-.854-.944-.83.944-.855-.944z"/><path d="M8.22.375c-9.625 0-9.625 17.25 0 17.25M8.22.375h36.156M8.22 17.625h36.156M52.064.375v17.25M44.376.375c9.625 0 9.625 17.25 0 17.25" fill="none" stroke="#000"/></svg>