<svg xmlns="http://www.w3.org/2000/svg" width="64.594" height="18"><path d="M9.777 3.093q1.51.22 1.579 1.382v8.382q-.706-.843-2.536-1.184l.957-8.58zM9.35 2.25L8.22 12.272q2.52.289 3.136 1.8v1.678h.752V4.475q0-1.883-2.757-2.225zM26.99 4.03v1.756H14.058V4.03zM14.106 2.25v1.329h-.498v2.657H27.44V3.58h-.403V2.25h-.451v1.329h-1.115V2.25h-.451v1.329h-1.115V2.25h-.451v1.329h-1.092V2.25h-.474v1.329h-1.092V2.25h-.45v1.329H19.23V2.25h-.45v1.329h-1.116V2.25h-.45v1.329h-1.092V2.25h-.451v1.329h-1.115V2.25zM15.304 13.744l-1.696 2.006h.827l.87-1.036.877 1.036.853-1.036.877 1.036.87-1.036.877 1.036.87-1.036.877 1.036.853-1.036.877 1.036.878-1.036.853 1.036.877-1.036.87 1.036h.827l-1.697-2.006-.877.97-.853-.97-.878.97-.877-.97-.853.97-.877-.97-.87.97-.877-.97-.87.97-.877-.97-.853.97-.878-.97zM32.172 11.874c.794 0 1.79.408 2.27.89.421.42.477.98.492 1.498h-5.501c.015-.519.07-1.077.491-1.498.482-.482 1.453-.89 2.248-.89zm0-.445c-.943 0-1.957.436-2.552 1.03-.61.61-.679 1.413-.679 2.014v.234h6.461v-.234c0-.601-.046-1.404-.655-2.014-.595-.594-1.633-1.03-2.575-1.03z"/><path d="M35.633 2.755q-.278 0-.278.327 0 .278.278.278.295-.016.295-.31 0-.295-.295-.295zm-1.08.213v.294l-.637.115q.294-.311.638-.41zm.033.392q.377.295.131.442-.376-.131-.556-.344l.425-.098zm1.145-.752q.77 0 1.227.589.458.588.49 1.815 1.195.246 1.587 1.08.064.54-.243.54h-.018q-.327-.017-.516-.18-.068-.06-.103-.06-.06 0-.02.182.066.287.72.695.655.41.107.68-.136.066-.29.066-.465 0-1.092-.615-.835-.818-.884-1.243-.049-.425.344-.785.233-.214.16-.214-.05 0-.242.1-.474.245-.499.72-.024.474.376 1.038.401.564 1.579 1.431.12.063.272.063.324 0 .791-.284.687-.417-.687-1.284.507-.13.523-.441.638.212 3.583 3.958.785.523.801.769-.016.229-.245.278-.05.01-.1.01-.185 0-.391-.141-.916.442-1.775.458h-.09q-.798 0-1.325-.278.54.474.377.998-.08.253-.12.253-.044 0-.044-.286 0-.556-1.423-1.063v.621q-.084.352-.133.352-.047 0-.063-.319-.098-.703-.466-1.513-.368-.81-1.17-2.24-.801-1.432-1.022-2.062-.221-.63-.205-1.17.017-.539-.22-.793-.238-.253-.14-.548.099-.294-.294-.556v-.278q.425-.343.883-.343zm3.108 9.421q.802.23.802.54l-.54 2.012q-.066.36-.442.36h-.654v-.033l.834-2.552v-.327zM35.79 2.28h-.059q-.638 0-1.292.524-.376.13-.769.605.54.491.982.605.049.23.31.638.017 1.08.295 1.791.278.712 1.865 3.82.785 1.635.785 2.012 0 .572-.72 2.568 0 .114-.981.18-1.472.049-1.472.408 0 .213.196.213h4.35q.41-.327.459-.556.392.164.425.442.055.22.157.22.019 0 .04-.008.13-.049.13-.212-.114-.442-.572-.85l.523-2.21q1.587-.048 2.764-.506.218.049.4.049.364 0 .582-.196.327-.295-.131-.916-.998-.998-1.897-2.192-1.849-2.274-2.536-2.634-.229-.474-.548-.752-.319-.278-1.153-.687-.016-.965-.45-1.668-.423-.688-1.683-.688zM44.139 2.695c.794 0 1.789.408 2.27.89.421.42.476.979.492 1.497H41.4c.015-.518.07-1.077.491-1.498.482-.481 1.453-.89 2.248-.89zm0-.445c-.943 0-1.958.436-2.552 1.03-.61.61-.679 1.412-.679 2.013v.234h6.46v-.234c0-.6-.045-1.403-.655-2.013-.594-.594-1.632-1.03-2.574-1.03zM52.606 2.914q2.725.331 0 5.047-2.724-4.716 0-5.047zm0-.664q-3.772.262-.524 6.06H48.87v.821h3.178v6.619h1.083V9.096h3.214V8.31H53.13q3.249-5.815-.524-6.06z"/><path d="M8.22.375c-9.625 0-9.625 17.25 0 17.25M8.22.375h48.124M8.22 17.625h48.124M64.031.375v17.25M56.344.375c9.625 0 9.625 17.25 0 17.25" fill="none" stroke="#000"/></svg>