<svg xmlns="http://www.w3.org/2000/svg" width="90.518" height="18"><path d="M9.777 3.093q1.51.22 1.579 1.382v8.382q-.706-.843-2.536-1.184l.957-8.58zM9.35 2.25L8.22 12.272q2.52.289 3.136 1.8v1.678h.752V4.475q0-1.883-2.757-2.225zM19.459 2.67c.75 0 1.689.385 2.143.84.398.397.45.924.464 1.414h-5.193c.015-.49.067-1.017.464-1.414.455-.455 1.372-.84 2.122-.84zm0-.42c-.89 0-1.848.411-2.409.972-.575.576-.64 1.334-.64 1.9v.222h6.098v-.221c0-.567-.043-1.325-.619-1.9-.56-.562-1.54-.973-2.43-.973zM15.043 6.74l-1.435 1.697h.7l.735-.876.742.876.722-.876.742.876.735-.876.743.876.735-.876.743.876.721-.876.742.876.743-.876.721.876.743-.876.735.876h.7L23.875 6.74l-.743.82-.721-.82-.743.82-.742-.82-.721.82-.743-.82-.735.82-.743-.82-.735.82-.742-.82-.722.82-.742-.82zM19.44 12.05c-.476.038-.739.276-.789.714.063.476.326.726.789.751.463-.025.707-.275.732-.751-.037-.438-.281-.676-.732-.714zm.056-1.577c.338 0 .651.062.94.188a2.476 2.476 0 011.277 1.268c.125.281.187.578.187.891 0 .326-.062.63-.188.911a2.39 2.39 0 01-2.216 1.418c-.338 0-.654-.06-.948-.178a2.26 2.26 0 01-.76-.498 2.44 2.44 0 01-.508-.742 2.217 2.217 0 01-.188-.91c0-.314.063-.611.188-.893.125-.281.294-.532.507-.75.213-.22.467-.392.76-.517.295-.126.611-.188.95-.188zm-.037-.639a2.91 2.91 0 00-1.165.235c-.363.157-.676.37-.939.639a3.13 3.13 0 00-.629.939 2.843 2.843 0 00-.235 1.155c0 .413.079.798.235 1.155.157.356.366.666.63.93a2.98 2.98 0 002.103.863c.413 0 .798-.078 1.155-.235a3.13 3.13 0 00.939-.629 2.93 2.93 0 00.638-.93c.157-.356.235-.741.235-1.154 0-.414-.078-.799-.235-1.155a3.044 3.044 0 00-1.577-1.578 2.843 2.843 0 00-1.155-.235zM28.6 11.088c.4.153.836.645.964 1.05.128.406.113.879.023 1.344-.09.458-.27.894-.488 1.18-.15.195-.286.307-.413.345h-.12c-.128-.03-.293-.143-.459-.346-.217-.285-.397-.72-.488-1.179-.09-.465-.105-.938.023-1.344.128-.405.606-.931.957-1.046v-.004zm-.425-8.838v.901h-.81v.578h.81l-.113 6.818c-.578.3-.938.81-1.11 1.359a3.576 3.576 0 00-.068 1.734 3.49 3.49 0 00.645 1.457c.233.3.54.548.901.623v.022c.023.008.045.008.068.008.03 0 .06-.008.09-.008a.532.532 0 00.105.008c.03 0 .053 0 .083-.008v-.022c.36-.075.668-.323.9-.623a3.49 3.49 0 00.646-1.457 3.576 3.576 0 00-.067-1.734 2.228 2.228 0 00-1.111-1.337l-.113-6.84h.766l.022-.578h-.856V2.25h-.788zM33.685 11.088c.4.153.838.645.965 1.05.128.406.113.879.023 1.344-.09.458-.27.894-.488 1.18-.15.195-.286.307-.413.345h-.12c-.128-.03-.293-.143-.458-.346-.218-.285-.398-.72-.488-1.179-.09-.465-.106-.938.022-1.344.128-.405.606-.931.957-1.046v-.004zm-.424-8.838v.901h-.81v.578h.81l-.112 6.818c-.579.3-.939.81-1.112 1.359a3.576 3.576 0 00-.067 1.734 3.49 3.49 0 00.645 1.457c.233.3.541.548.901.623v.022c.023.008.045.008.068.008.03 0 .06-.008.09-.008a.532.532 0 00.105.008c.03 0 .053 0 .083-.008v-.022c.36-.075.668-.323.9-.623a3.49 3.49 0 00.647-1.457 3.576 3.576 0 00-.068-1.734 2.228 2.228 0 00-1.111-1.337l-.113-6.84h.766l.022-.578h-.855V2.25h-.789zM38.771 11.088c.4.153.838.645.965 1.05.128.406.113.879.023 1.344-.09.458-.27.894-.488 1.18-.15.195-.286.307-.413.345h-.12c-.128-.03-.293-.143-.458-.346-.218-.285-.398-.72-.488-1.179-.09-.465-.105-.938.022-1.344.128-.405.606-.931.957-1.046v-.004zm-.424-8.838v.901h-.81v.578h.81l-.112 6.818c-.578.3-.939.81-1.112 1.359a3.576 3.576 0 00-.067 1.734 3.49 3.49 0 00.646 1.457c.232.3.54.548.9.623v.022c.023.008.046.008.068.008.03 0 .06-.008.09-.008a.532.532 0 00.105.008c.03 0 .053 0 .083-.008v-.022c.36-.075.668-.323.9-.623a3.49 3.49 0 00.647-1.457 3.576 3.576 0 00-.068-1.734 2.228 2.228 0 00-1.111-1.337l-.113-6.84h.766l.023-.578h-.856V2.25h-.789zM43.857 11.088c.401.153.838.645.965 1.05.128.406.113.879.023 1.344-.09.458-.27.894-.488 1.18-.15.195-.285.307-.413.345h-.12c-.128-.03-.293-.143-.458-.346-.218-.285-.398-.72-.488-1.179-.09-.465-.105-.938.022-1.344.128-.405.606-.931.957-1.046v-.004zm-.424-8.838v.901h-.81v.578h.81l-.112 6.818c-.578.3-.939.81-1.111 1.359a3.576 3.576 0 00-.068 1.734 3.49 3.49 0 00.646 1.457c.232.3.54.548.9.623v.022c.023.008.046.008.068.008.03 0 .06-.008.09-.008a.532.532 0 00.105.008c.03 0 .053 0 .083-.008v-.022c.36-.075.668-.323.901-.623a3.49 3.49 0 00.646-1.457 3.576 3.576 0 00-.068-1.734 2.228 2.228 0 00-1.111-1.337l-.113-6.84h.766l.023-.578h-.856V2.25h-.789zM50.429 9.736c.805 0 1.814.414 2.302.902.426.427.482.993.498 1.519h-5.576c.015-.526.071-1.092.498-1.519.488-.488 1.472-.902 2.278-.902zm0-.45c-.956 0-1.984.441-2.586 1.044-.619.618-.689 1.431-.689 2.04v.238h6.55v-.238c0-.609-.047-1.422-.665-2.04-.603-.603-1.654-1.044-2.61-1.044z"/><path d="M54.66 3.633h-.002c-.086.002-.154.077-.152.169.001.09.07.163.155.163h.003c.086-.002.154-.077.152-.169l-.155.003.155-.004c-.002-.09-.071-.162-.155-.162zm.029-.027a.632.632 0 01.355.222l.07.138c.014.16-.045.404-.132.644a.494.494 0 00-.075-.233.534.534 0 00-.226-.185c-.153-.073-.292-.104-.446-.203a.223.223 0 00-.098-.034l-.078-.007a.223.223 0 00.104-.134l-.004.015c.001 0 .01-.016.033-.034a.812.812 0 01.152-.09 1.17 1.17 0 01.345-.099zm1.143.287c.265.085.442.222.573.393.179.232.276.555.338.93l-.654-.06a2.224 2.224 0 00-.033-.911.775.775 0 00-.224-.352zm-.489 3.044c.136.016.27.027.4.033 1.249.056 2.516.606 3.238 1.166.793.616 1.72 1.105 2.64 1.489a11.135 11.135 0 01-1.212.059 6.669 6.669 0 01-.229.004c-1.407 0-2.826-.445-3.924-1.32a2.823 2.823 0 01-.913-1.431zm-1.234-.532a.43.43 0 00.207.244c.168.09.358.155.556.203.114.722.558 1.425 1.106 1.864v.001c1.187.945 2.7 1.416 4.2 1.416a7.157 7.157 0 00.28-.004c.668 0 1.333-.05 1.997-.178l-.001-.005c.442.157.872.291 1.272.403-.661-.044-1.35-.194-2.065-.216a7.357 7.357 0 00-.223-.003c-.672 0-1.334.084-1.962.095h-.083c-1.78 0-3.257-1.02-4.684-2.396-.33-.32-.578-.954-.6-1.424zm7.733 4.184c.526.034 1.067.134 1.623.186.158.11.33.198.47.285.109.068.185.134.232.189a.625.625 0 01-.068.017c-.075.014-.169.02-.256.02-.085 0-.165-.006-.215-.016a7.248 7.248 0 01-1.09-.317c-.26-.1-.51-.232-.696-.364zm-7.15-7.429h-.012c-.171.004-.35.06-.524.141-.086.04-.17.087-.243.146a.602.602 0 00-.119.12c-.233.062-.523.087-.821.123-.336.04-.687.094-.99.279-.493.3-.861.866-1.03 1.415a.223.223 0 00.4.185c.514-.802.859-1.036 1.239-1.12a4.05 4.05 0 01.866-.084c.19 0 .387.01.586.029.196.116.369.164.446.2.038.018.045.028.045.028s.007.008.004.06c-.007.115-.175.364-.387.627-.212.264-.464.552-.488.927-.04.645.242 1.437.736 1.913.457.441.927.854 1.417 1.212.104.678.236 1.625.316 2.288-.181.833-.633 1.573-.862 2.39-.07.153-.234.217-.395.217a.606.606 0 01-.15-.02c-.232-.033-.466-.067-.701-.067a2.079 2.079 0 00-.235.012c-.162 0-.704.216-.623.52.025.067.504.098 1.014.098.376 0 .77-.017 1.012-.047a.457.457 0 00.504-.384c.301-.835.657-1.65.955-2.487.003-.72-.191-1.42-.264-2.133.351.217.712.403 1.087.55.171.343.944 1.437 1.23 1.864l.153 2.174c-.402-.014-.797-.126-1.2-.126-.051 0-.103.002-.155.006-.313 0-.413.613-.176.613l.029-.003c.457.004.914.014 1.371.014.15 0 .299-.001.448-.004.156-.024.246-.208.2-.352l-.177-2.462c-.157-.289-.62-.974-.97-1.486a5.058 5.058 0 001.256.135c.58-.01 1.157-.075 1.718-.09.237.384.714.61 1.176.788.486.187.964.3 1.164.338a1.865 1.865 0 00.639-.004.775.775 0 00.312-.115.38.38 0 00.133-.152.352.352 0 00.018-.236c-.056-.191-.185-.319-.327-.421l.027-.003c.078-.012.15-.026.218-.048a.44.44 0 00.107-.049.25.25 0 00.124-.172.258.258 0 00-.063-.223.391.391 0 00-.093-.078 1.213 1.213 0 00-.196-.097 3.717 3.717 0 00-.424-.142c-1.453-.39-3.362-1.096-4.763-2.183-.807-.625-2.128-1.198-3.491-1.26-.434-.019-.938-.109-1.237-.268a.049.049 0 00.013.006c.006 0-.018-.025-.028-.069-.012-.055 0-.126 0-.126.048-.11.166-.24.308-.386.143-.144.307-.304.414-.521.13-.263.275-.587.32-.915.042.05.07.102.074.12.042.15.038.737-.028.91a.223.223 0 00.188.3l1.196.111a.224.224 0 00.242-.248c-.062-.517-.16-1.024-.466-1.423-.305-.396-.815-.645-1.571-.663-.144-.107-.305-.192-.496-.192zM64.554 3.611c.805 0 1.814.414 2.302.902.426.427.482.993.498 1.519h-5.576c.015-.526.071-1.092.498-1.519.488-.488 1.472-.902 2.278-.902zm0-.45c-.956 0-1.984.44-2.586 1.043-.619.619-.689 1.432-.689 2.041v.237h6.55v-.237c0-.609-.047-1.422-.665-2.04-.603-.603-1.654-1.045-2.61-1.045zM70.916 2.25l-1.588 1.876h.775l.813-.969.82.97.798-.97.821.97.813-.97.821.97.813-.97.821.97.798-.97.82.97.822-.97.797.97.821-.97.813.97h.774L80.681 2.25l-.82.907-.798-.907-.821.907-.821-.907-.798.907-.82-.907-.814.907-.82-.907-.814.907-.82-.907-.798.907-.821-.907zM72.053 5.519v7.104h.593V6.126h6.29v5.863l-2.427.013-.014-3.986h-.62v4.607h3.669V5.52zM74.833 14.016c-.096 0-.193.011-.29.035a1.824 1.824 0 00-.633.325h-4.582v1.013h4.582c.227.17.438.277.633.325a1.216 1.216 0 00.578 0c.191-.048.382-.156.573-.325h.176c.183.17.373.277.567.325a1.221 1.221 0 00.584 0c.194-.048.402-.156.622-.325h4.625v-1.013h-4.625a1.726 1.726 0 00-.622-.325 1.221 1.221 0 00-.584 0 1.304 1.304 0 00-.567.325h-.176a1.385 1.385 0 00-.573-.325 1.182 1.182 0 00-.288-.035z"/><path d="M8.22.375c-9.625 0-9.625 17.25 0 17.25M8.22.375h74.048M8.22 17.625h74.048M89.956.375v17.25M82.268.375c9.625 0 9.625 17.25 0 17.25" fill="none" stroke="#000"/></svg>