<svg xmlns="http://www.w3.org/2000/svg" width="85.056" height="18"><path d="M5.566.322q.06 0 .113.039.214.116-.136.564-.37.369-.457.622-.088.253-.185.67-.097.419-.428 1.197l-.447.136H2.412q.233-.506.544-.914.759-.7 1.128-.934.37-.233.593-.398.224-.166.477-.632.233-.35.412-.35zM4.55 3.939l-.311.68q-.454-.045-.84-.045-.775 0-1.28.182-.097-.661-.292-.817zm-2.237 1.42q-.37.02-.389.35.02.389.39.389.369 0 .388-.39-.02-.33-.389-.35zm.837-.33q.836 0 .972.777.136.778-.895 1.07.35.66 0 .836-.123.062-.24.062-.216 0-.411-.208-.302-.32-.535-.914-.233-.593-.7-.593h.33q-.213-.33-.155-.506l.034.002q.166 0 .219-.177.37-.35 1.38-.35zm1.147.057q.292 0 .836 1.255.545 1.254 1.77 2.314t1.974 2.577q.749 1.517 2.927 3.326-3.812-1.809-4.784-2.237-.973-.428-3.15-2.003-1.246-.914-1.246-1.459 0-.427.098-.739V8.1q.992 0 .992-.991 1.342-.661.583-2.023zm-.545 5.971q.37 1.77 1.829 3.91-.139.109-.302.109-.385 0-.904-.616 0-.972-.7-3.403zm.642.622q1.148.914 2.587 1.731v1.848q-.506-.39-1.011-.467-1.381-2.256-1.576-3.112zm.214 3.812q.265.336.546.336.255 0 .524-.277l.097 1.711q-.185-.041-.354-.041-.308 0-.56.138-.34-.113-.597-.113-.096 0-.18.016l.524-1.77zm.603-3.676l5.815 2.937q1.128 1.264 2.159 2.392v.02l-1.459.233-2.898-3.131q-.836-.68-3.617-2.45zM5.482 0h-.037q-.233.01-.486.4-.058.174-.243.388-.185.214-.535.428-.35.214-.505.34-.156.127-.525.458-.312.252-.448.408-.31-.194-.525-.476-.214-.282-.233-.516-.02-.233.048-.37.069-.135.214-.165.04-.008.08-.008.103 0 .202.057.136.078.117.272-.039.175-.253.214-.058-.025-.095-.025-.05 0-.06.045-.04.252.194.272l.05.002q.2 0 .33-.138.145-.156.126-.525Q2.762.652 2.47.613 2.417.606 2.364.606q-.237 0-.468.144-.282.175-.311.544-.03.37.263.749.291.379.641.632-.272.35-.564.875H1.09q.506.545.603 1.536h-.04q-.346 0-.29.331-.545.156-.545 1.03.181-.105.34-.105.044 0 .088.009.233 0 .379.544.146.545.632 1.206v.02q-.117.233-.117.738 0 .506.895 1.459.895 3.073.875 4.493 0 .175.253.213l-.642 2.14q-.052-.004-.106-.004-.272 0-.604.082-.19.046-.388.046-.219 0-.448-.056-.253-.062-.497-.062-.177 0-.349.033-.272.051-.432.051-.08 0-.132-.012Q.058 17.358 0 18q.337-.194.514-.194.089 0 .138.048.145.146.573.146h5.66q.37 0 .583-.156.071-.051.169-.051.194 0 .492.207.02-.622-.66-.797-.386.143-.696.143-.238 0-.433-.085l-.097-1.925q.532.736.93.736.17 0 .315-.134-.137-1.186-.137-2.178l.545.33q.467.215 2.052 2.024 1.52 1.734 1.814 1.734.013 0 .024-.004l1.847-.389q.292-.097.117-.291l-1.46-1.654q1.362.875 2.042 1.167-.33-.37-1.108-.934l.389.136q.233-.039.194-.37-3.384-2.45-4.298-4.22-.914-1.77-2.149-2.878-1.235-1.108-1.838-2.49-.37-.874-.758-1.186L6.573.633 6.146.399 5.134 2.597l.098-.447q.116-.467.252-.7.137-.234.273-.331.291-.428.291-.661 0-.234-.175-.35Q5.693 0 5.481 0zm6.662 1.88c-.404 0-.674.234-.67.606.006.404.277.637.67.637s.627-.234.621-.637c-.005-.373-.239-.606-.621-.606zM12.19.536c.266 0 .531.055.798.165.511.211.856.578 1.084 1.076.231.507.215 1.02 0 1.53-.215.506-.583.838-1.084 1.05a1.98 1.98 0 0 1-.778.16c-.275 0-.55-.056-.823-.16-.509-.193-.846-.567-1.075-1.05a1.797 1.797 0 0 1-.16-.774c-.001-.535.233-1.009.59-1.394.176-.19.394-.335.645-.438.27-.11.536-.165.802-.165zM12.127 0c-.703 0-1.256.244-1.752.741-.507.509-.723 1.062-.733 1.776a2.32 2.32 0 0 0 .247 1.108c.133.652.14 1.742-.037 1.742-.308 0-.132-.819-.147-1.074-.025-.435-.282-.805-.587-1.099-.07-.068-.148-.144-.25-.154a2.8 2.8 0 0 0-.294-.02.975.975 0 0 0-.333.051c-.076.027-.079.134-.054.204.026.072.074.148.157.158l.063.003c.101 0 .201-.025.303-.026h.013c.042 0 .09.004.12.035-.068.128-.162.252-.178.402a.393.393 0 0 0 .015.176c.199.55.32 1.813 1.145 1.813.156 0 .23-.032.28-.079.366-.34.372-.916.35-1.393.484.455 1.03.646 1.705.655h.039c.691 0 1.242-.256 1.737-.733.135-.13.249-.262.344-.401.022.472.045.948.218 1.392.137.35.441.604.768.778a.139.139 0 0 0 .056.019c.04 0 .016-.062-.03-.107a1.986 1.986 0 0 1-.484-.734c-.176-.481-.158-1-.147-1.502.007-.307.02-.615.002-.922h-.002c.01-.094.015-.191.016-.292.008-.72-.242-1.268-.74-1.776-.507-.515-1.06-.733-1.777-.74L12.127 0zM22.17 4.787q-.407 0-.471.314v.019q.046.083.193.083.425-.185.425-.342v-.018q0-.037-.148-.056zm1.477-.572q-.065.36-.637.775l.203.083.277-.101.138.092q1.062.508 2.817.536l2.752.027h.037q.47 0 .457.688-.014.716-.485 1.436-.296 0-.6-.226-.305-.226-.499-.53-.194-.306-.499-.795.093.97.554 1.524-.563 0-1.002.106-.219.053-.365.053-.147 0-.22-.053-.093-.066-.458-.066-.222 0-.545.024-.249.02-.455.02-.501 0-.75-.112-.23-.194-.29-.679-.06-.485.272-1.343-.684.489-.684 1.486v.333q-.341-.351-.535-.776-.379-.942-1.034-.942-.25 0-.96.314-.24-.101-.195-.323l.462-.619q.332-.563.48-.628.074-.138.72-.138.277.074.277.203 0 .175-.184.35.35-.073.508-.415 0-.083.443-.304zm.398-1.965q-.045 0-.103.072-.701 1.117-1.274 1.551-.222.194-.6.203-.185 0-.563-.277-.564-.545-.785-.923-.25-.444-.324-.49-.036 0-.055.093 0 .526 1.071 1.948-.203.296-.378.674-.176.379-.416.577-.24.199.046.393 0 .24.397.388.324-.093.988-.287.397 0 .545.333.49.738.49 1.542.055 1.071-.74 2.05-.248.166-.248.461 0 .12.304.12.499 0 .499-.12l-.037-.249q0-.13.194-.194v-.018q0-.176.628-1.764.286 0 .452.277.213.702.213 1.164 0 .101-.13.434-.157.12-.193.434h.738l-.055-.231q-.037-.139.101-.24l-.064-.342q-.12-1.302-.12-1.533v-.018q.73-.176 1.122-.176.392 0 .605.143.084.057.236.057.231 0 .618-.13.419-.142.643-.142.119 0 .183.04.185.115.185.392 0 1.016-.517 1.727-.167.166-.25.462h.638q.166-.056.073-.277.019-.24.222-.305 0-.84.739-1.662.517.286.526.886 0 .231-.092.628l-.111.305q-.102.12-.185.453h.61q.11-.047.138-.102l-.092-.296q-.046-.129.13-.23-.093-.49.12-.74-.435-1.015-.435-1.597.231-.95.296-1.782.11.582.027 1.395-.083.812.277 1.68.07.146.129.146.04 0 .075-.072.092-.526.037-2.909-.074-.295-.157-.452-.296-.453-.508-.471h-2.983q-2.207 0-3.269-.628.176-.314.194-.43.019-.115 0-.281-.443.13-.665.342l-.184-.139q.193-.12.618-.776.425-.655.499-1.025-.031-.062-.073-.062zm4.894 10.098c.487.021.754.032.87.032h.052l-.063 2.547a3.738 3.738 0 0 1-.97-.576l.11-2.003zm-7.108-.634c-.162.031-.377.131-.351.325v1.42c-.315-.015-.64-.031-.734-.031 0 .178.147.42.603.42.005.403.078.896.152 1.147l.063.66c0 .074.125.095.262.095.162 0 .34-.031.34-.031l-.026-.66c2.59.02 7.527.151 7.774.151.125 0 .21-.136.21-.325l.062-2.846-1.557-.016-.125 2.217c-1.127.006-3.077.19-4.403.19-.42 0-.781-.017-1.028-.069-.052-.058-.54-.765-.849-.844a1.36 1.36 0 0 0-.183-.02c-.053-.43-.105-.86-.152-1.285.094-.12.309-.09.367-.252.057-.078.02-.21-.09-.215-.062-.026-.235-.031-.309-.031zm12.521 1.01c.557 0 1.253.286 1.59.623.295.294.333.685.344 1.048h-3.85c.01-.363.048-.754.343-1.048.337-.337 1.017-.623 1.573-.623zm0-.311c-.66 0-1.37.304-1.786.72-.427.427-.475.99-.475 1.41v.164h4.523v-.164c0-.42-.032-.983-.46-1.41-.415-.416-1.142-.72-1.802-.72z"/><path d="M36.845 2.755q-.278 0-.278.327 0 .278.278.278.294-.016.294-.31 0-.295-.294-.295zm-1.08.213v.294l-.638.115q.295-.311.638-.41zm.033.392q.376.295.13.442-.376-.131-.555-.344l.425-.098zm1.145-.752q.769 0 1.227.589.458.588.49 1.815 1.194.246 1.587 1.08.063.54-.243.54h-.019q-.327-.017-.515-.18-.068-.06-.103-.06-.061 0-.02.182.066.287.72.695.654.41.106.68-.136.066-.29.066-.465 0-1.092-.615-.834-.818-.883-1.243-.05-.425.343-.785.234-.214.16-.214-.05 0-.241.1-.475.245-.5.72-.024.474.377 1.038.4.564 1.578 1.431.12.063.273.063.323 0 .79-.284.687-.417-.686-1.284.507-.13.523-.441.638.212 3.582 3.958.785.523.802.769-.017.229-.246.278-.049.01-.1.01-.185 0-.39-.141-.916.442-1.775.458h-.09q-.798 0-1.325-.278.54.474.376.998-.08.253-.12.253-.043 0-.043-.286 0-.556-1.423-1.063v.621q-.084.352-.134.352-.047 0-.063-.319-.098-.703-.466-1.513-.368-.81-1.17-2.24-.8-1.432-1.022-2.062-.22-.63-.204-1.17.016-.539-.221-.793-.237-.253-.139-.548.098-.294-.294-.556v-.278q.425-.343.883-.343zm3.108 9.421q.801.23.801.54l-.54 2.012q-.065.36-.441.36h-.655v-.033l.835-2.552v-.327zM37 2.28h-.058q-.638 0-1.292.524-.377.13-.77.605.54.491.982.605.05.23.311.638.016 1.08.294 1.791.279.712 1.865 3.82.785 1.635.785 2.012 0 .572-.72 2.568 0 .114-.98.18-1.473.049-1.473.408 0 .213.196.213h4.351q.41-.327.458-.556.393.164.425.442.056.22.157.22.02 0 .04-.008.13-.049.13-.212-.114-.442-.572-.85l.524-2.21q1.586-.048 2.764-.506.218.049.4.049.363 0 .581-.196.327-.295-.13-.916-.998-.998-1.898-2.192-1.848-2.274-2.535-2.634-.23-.474-.548-.752-.32-.278-1.153-.687-.017-.965-.45-1.668-.424-.688-1.683-.688zm7.38.281c.557 0 1.253.286 1.59.623.295.295.334.686.344 1.049h-3.85c.01-.363.049-.754.344-1.049.337-.337 1.017-.623 1.573-.623zm0-.311c-.66 0-1.37.305-1.785.721-.427.427-.475.989-.475 1.41v.163h4.522V4.38c0-.42-.032-.982-.459-1.409-.416-.416-1.142-.721-1.802-.721zm8.447 0l-.014.001a15.506 15.506 0 0 1-1.122.037c-.08.005-.087.107-.06.165.168.474.314.956.45 1.44h-.02c-.134.003-.27 0-.404.013l-.006.01c-.008-.03-.03-.058-.06-.065a28.706 28.706 0 0 1-1.275-.923c-.01-.002-.021-.005-.032-.005h-.007c-.042.026-.057.084-.08.127-.074.197-.135.399-.217.593-.058.148-.122.294-.166.446.02.042.056.055.096.055.039 0 .08-.012.113-.022.516-.11 1.046-.1 1.57-.107-.052.115-.074.243-.121.36-.022.066-.047.134-.062.202a.092.092 0 0 0-.013 0l-.015.001c-.64.248-1.265.552-1.812.97a6.77 6.77 0 0 0-.749.652c-.004.096.104.127.176.154l.442.182c-.075.103-.094.236-.142.353-.247.726-.596 1.413-.887 2.122.001.058.055.087.108.087a.13.13 0 0 0 .056-.012c.102-.019.205-.028.308-.03-.021.08-.03.165-.065.24-.175.555-.46 1.065-.675 1.604-.01.058.045.095.098.095a.1.1 0 0 0 .044-.01 6.45 6.45 0 0 1 .796-.092c-.03.074-.036.157-.06.234-.128.545-.316 1.082-.34 1.646-.004.367.04.733.099 1.095.1.595.28 1.174.512 1.73.002.051.048.083.094.083a.081.081 0 0 0 .072-.04c.034-.075.045-.16.07-.238.134-.481.23-.974.272-1.472.042-.43.059-.863.056-1.295-.018-.505-.139-.999-.216-1.497-.014-.075-.024-.152-.043-.226a7.034 7.034 0 0 1 .764.127c.08 0 .099-.107.063-.164-.217-.567-.438-1.134-.62-1.714l.026.005c.22.04.44.091.663.104.07-.058.02-.152-.014-.216-.268-.582-.488-1.193-.576-1.83-.028-.173-.027-.35-.057-.523.19.077.378.154.569.228.082-.02.086-.121.07-.19a2.105 2.105 0 0 1 .267-1.198c.178-.318.435-.58.698-.828.104.09.225.156.343.227l-.06.015c-.216.418-.397.852-.591 1.28-.025.06-.054.12-.063.184.033.052.087.063.143.063.035 0 .072-.004.104-.004h.005l.241-.006c-.027.083-.034.176-.061.259-.155.639-.308 1.279-.461 1.919.018.068.087.082.15.082a.648.648 0 0 0 .055-.003l.397-.014c-.037.105-.053.218-.088.323-.172.628-.347 1.257-.515 1.886.019.07.089.085.154.085a677.2 677.2 0 0 1 .691-.021.867.867 0 0 0-.024.103c-.132.577-.335 1.144-.365 1.74a6.87 6.87 0 0 0 .2 1.602c.102.423.247.836.41 1.239.007.046.051.077.094.077.025 0 .05-.01.065-.035.035-.062.042-.137.066-.205a8.29 8.29 0 0 0 .314-1.902 9.57 9.57 0 0 0 .019-1.03c-.036-.492-.147-.974-.226-1.46-.01-.048-.017-.097-.03-.145.222-.007.443-.014.664-.023.08-.06.035-.167.013-.245-.188-.674-.374-1.349-.567-2.021.185-.007.37-.014.555-.023.077-.06.034-.166.01-.243l-.584-1.969.595-.016c.075-.05.039-.15.004-.214-.177-.4-.35-.801-.534-1.199.132-.054.263-.11.391-.171.354.33.662.728.804 1.196.081.278.087.573.058.86.016.044.054.061.096.061a.2.2 0 0 0 .1-.03l.443-.182-.003.004a5.206 5.206 0 0 1-.348 1.696c-.097.265-.22.52-.326.78-.006.057.047.091.098.091a.102.102 0 0 0 .051-.013c.195-.029.39-.067.584-.105-.038.108-.065.221-.109.327-.166.486-.354.965-.534 1.445-.014.057.038.107.09.107a.08.08 0 0 0 .042-.011 5.81 5.81 0 0 1 .716-.116.57.57 0 0 0-.012.066c-.08.447-.167.892-.223 1.342a4.98 4.98 0 0 0-.018.846c.026.713.098 1.429.289 2.118.032.117.063.236.101.351.014.03.045.044.076.044.037 0 .075-.021.083-.062a7.92 7.92 0 0 0 .566-2.05c.05-.41.083-.828.004-1.236-.08-.434-.208-.857-.31-1.285-.018-.05-.026-.104-.043-.153.123.003.246.011.369.027.171.018.34.054.512.069.072-.02.066-.116.03-.166-.24-.577-.55-1.13-.704-1.738l-.008-.032c.029 0 .058 0 .086.002.11.008.218.03.327.039.076-.034.058-.134.022-.192-.318-.723-.663-1.437-.91-2.19-.022-.058-.039-.124-.073-.176l-.005-.003c.199-.083.398-.166.595-.252.047-.08-.032-.156-.09-.201-.507-.462-1.064-.874-1.683-1.171a6.493 6.493 0 0 0-.716-.3c-.018-.055-.043-.11-.057-.163-.063-.181-.116-.368-.196-.542a.252.252 0 0 0 .052.004l.06-.001h.153c.459 0 .92.015 1.37.118.013.006.03.009.046.009.045 0 .093-.023.084-.074-.088-.273-.211-.534-.3-.807-.04-.112-.08-.225-.129-.332a.113.113 0 0 0-.06-.008c-.42.308-.834.628-1.27.916-.046.023-.105.07-.072.127v.001a.848.848 0 0 0-.158-.012l-.16.002a1.243 1.243 0 0 1-.068-.001h-.035a.077.077 0 0 0 .004-.029c.17-.508.34-1.022.631-1.476.036-.046.01-.127-.046-.137a.065.065 0 0 0-.012-.001zm7.467 5.782c.645 0 1.451.33 1.842.721.341.342.386.794.398 1.215h-4.46c.012-.42.056-.873.398-1.215.39-.39 1.178-.721 1.822-.721zm0-.36c-.764 0-1.587.352-2.069.834-.494.495-.55 1.146-.55 1.633v.19h5.239v-.19c0-.487-.037-1.138-.532-1.633-.482-.482-1.323-.835-2.088-.835zm5.429-5.422c-.698 0-1.309.513-1.309 1.171V15.75h.852V3.421c0-.322.284-.427.462-.427.187 0 .476.131.476.527v8.103h.852V3.521c0-.66-.653-1.271-1.333-1.271z"/><path d="M17.716.375v17.25m0-17.25h2.625m-2.625 17.25h2.625m0-17.25h46.715m-46.715 17.25h46.715m0-17.25H84.68m-17.624 17.25H84.68M68.818.375v17.25M72.343.375v17.25M74.106.375v17.25M75.868 2.1h8.813m-8.813 3.45h8.813M75.868 2.1v3.45m1.762-1.725h7.05m-8.812 3.45h8.813m-8.813 3.45h8.813m-8.813-3.45v3.45M77.63 9h7.05m-8.812 3.45h8.813m-8.813 3.45h8.813m-8.813-3.45v3.45m1.762-1.725h7.05" fill="none" stroke="#000"/></svg>