<svg xmlns="http://www.w3.org/2000/svg" width="139.425" height="18"><path d="M5.454.386c.221 0 .566.052.757.104.832.223-.005.968-.54.968a.513.513 0 0 1-.073-.005c-.353.074.06.199.502.199.272 0 .555-.047.681-.18.072-.077.131-.108.182-.108.185 0 .258.417.406.623.74.245 1.203.913 1.682 1.486 1.377 1.65 2.617 3.405 3.917 5.115-.357-.105-.743-.31-1.097-.48-1.62-.783-3.347-1.401-4.814-2.455-.732-.525-1.712-1.134-1.793-2.056-.061-.702 1.227-1.337 1.134-1.717-.011-.044-.043-.064-.09-.064-.274 0-1.077.688-1.288 1.09-.081.155-.14.217-.182.217-.146 0-.077-.757.014-.93.31-.589-.628-1.325-.1-1.664-.016.088.002.337.312.337.325 0 .305-.4.205-.453a.435.435 0 0 1 .185-.027zm.616 5.477c.254.9.626 1.766 1.065 2.59.217.405 1.13 1.049.485 1.377a.194.194 0 0 1-.052.007c-.257 0-.519-.495-.855-.517a12.843 12.843 0 0 0-.265-1.873c-.103-.505-.36-1.176-.378-1.584zm.705.597c.795.576 1.63 1.093 2.472 1.6.222.497.034 1.222.149 1.805-.538-.363-1.112-.378-1.457-1.066-.385-.766-1.019-1.494-1.164-2.34zM7 10.06c.134.235.335.383.538.383.16 0 .32-.091.45-.304.186.205.23.926.23 1.325.002.411-.214.446-.465.446l-.155-.002a.93.93 0 0 0-.278.032.453.453 0 0 1-.138.02c-.197 0-.423-.095-.636-.095-.02 0-.04 0-.06.002.001-.52.36-1.225.514-1.808zm1.603-2.968c1.69.766 3.36 1.59 5.054 2.351.648.679 1.239 1.448 1.96 2.049.538.45-.155.358-.474.418-.244.046-.492.08-.738.116-.87-.87-1.745-1.738-2.58-2.641-.909-.982-2.145-1.538-3.222-2.293zm-.512 5.693c1.105 0 2.211.013 3.316.042.556.014 1.197-.023 1.695.164-.658.042-2.304.058-4.042.058a201.337 201.337 0 0 1-5.037-.05c-.51 0-.097-.173.188-.173a.55.55 0 0 1 .076.005c1.267-.03 2.535-.046 3.804-.046zm-4.862.743c.75.01 1.5.02 2.25.045.495.017.989.023 1.483.023 1.398 0 2.796-.05 4.192-.05.188 0 .375.001.562.003-1.161.634-2.421 1.17-3.766 1.214-.152.005-.3.008-.445.008-.76 0-1.443-.08-2.196-.351-.656-.236-1.506-.523-2.08-.892zm6.649 1.558a.144.144 0 0 0-.078.02c-.256.16.368 1.331.895 1.613.04.021.078.03.115.03.192 0 .33-.259.247-.445-.214-.48-.87-1.218-1.18-1.218zm-4.848.055c-.042 0-.105.026-.194.086-.432.29-1.443 1.067-.823 1.496a.22.22 0 0 0 .129.042c.224 0 .442-.354.556-.556.12-.21.574-1.068.332-1.068zm4.06.177c-.274 0 .026 1.476.502 1.79.031.022.07.031.109.031.106 0 .222-.069.242-.173.123-.637-.473-1.61-.846-1.647a.08.08 0 0 0-.008 0zm-3.278.017c-.05 0-.13.062-.244.216-.302.408-1.043 1.256-.436 1.571.04.021.078.03.114.03.254 0 .4-.478.49-.72.081-.222.268-1.097.076-1.097zm2.271.162c-.023 0-.043.012-.06.037-.245.368-.164 1.491.42 1.817a.196.196 0 0 0 .097.026c.172 0 .306-.25.276-.423-.07-.41-.517-1.457-.733-1.457zm-1.329-.011a.1.1 0 0 0-.058.023c-.391.291-1.017 1.466-.379 1.845.035.02.068.03.101.03.191 0 .35-.31.375-.504.04-.334.162-1.394-.039-1.394zm.655-.018a.08.08 0 0 0-.038.01c-.324.174-.62 1.573-.014 1.945a.175.175 0 0 0 .092.028c.164 0 .306-.252.306-.421-.002-.46-.123-1.562-.346-1.562zM5.632 0c-.205 0-.408.02-.598.054-.567.104-1.44.31-1.43.996a.711.711 0 0 1 .192-.028c.55 0 .663.789.553 1.27-.225.98.26 1.965.898 2.707.425 1.269.96 2.595.954 3.928-.003.556.408.592.256 1.158-.136.51-.373 1.566-.883 1.69a2.18 2.18 0 0 1-.182.007c-.323 0-.663-.056-.984-.056-.254 0-.497.036-.71.162-.444.264-.778.46-1.31.46l-.071-.001-.078-.002c-.895 0-1.953.472-2.118 1.411-.244 1.391-.044 2.827-.036 4.233.205.005.412.011.618.011.163 0 .325-.004.487-.016-.076-.844-.133-1.694-.079-2.539.039-.601-.113-1.44.465-1.781a.738.738 0 0 1 .383-.107c.506 0 1.005.499 1.472.712 1.306.596 2.697 1.036 4.147 1.036h.1c1.756-.025 3.375-.751 4.878-1.576a.616.616 0 0 1 .41-.148c.28 0 .562.17.622.463.262 1.292.154 2.632.067 3.94.157.012.315.015.473.015.156 0 .313-.003.47-.003.052 0 .105 0 .158.002.008-.911.089-1.823.047-2.733-.033-.721.107-1.55-.417-2.143-.68-.771-1.763-.76-2.704-.825a1.712 1.712 0 0 0-.117-.004c-.125 0-.257.01-.386.01a.973.973 0 0 1-.439-.08c-.294-.302-.66-.36-1.04-.36-.228 0-.462.021-.689.021a2.75 2.75 0 0 1-.22-.008c-.043-.588-.075-1.177-.107-1.766a.155.155 0 0 1 .111-.045c.294 0 .78.686 1.034.686.076 0 .13-.06.154-.217.094-.642-.155-1.343-.146-2.018h.016c.285 0 .766.368 1.053.617.898.779 1.67 1.717 2.513 2.566.334.38.681.803 1.163.803.13 0 .269-.031.42-.101.48-.223 1.5.065 1.609-.544-.462-.54-.994-1.018-1.47-1.547.58.274 1.144.678 1.747.941a.77.77 0 0 0 .24.078c.18 0-.489-.521-.668-.602-.665-.3.624-.188.098-.605-1.155-.915-2.466-1.648-3.699-2.473-.79-.998-1.506-2.067-2.3-3.068-.66-.774-1.221-1.636-1.941-2.356C8.175 1.783 7.525 1.66 7.48.937 7.138.252 6.37 0 5.632 0zm16.149.634q-.372 0-.372.438 0 .371.372.371.393-.022.393-.415 0-.394-.393-.394zM20.338.92v.393l-.852.153q.393-.415.852-.546zm.044.524q.503.394.175.59-.503-.175-.743-.459l.568-.13zm1.53-1.005q1.028 0 1.64.787.612.786.655 2.426 1.596.328 2.12 1.442.085.722-.325.722h-.024q-.437-.022-.689-.24-.091-.08-.138-.08-.081 0-.026.243.088.383.962.93.874.546.142.906-.182.09-.387.09-.622 0-1.46-.822-1.115-1.093-1.18-1.661-.066-.568.459-1.05.312-.285.214-.285-.066 0-.323.133-.634.328-.667.961-.033.634.503 1.388.535.754 2.109 1.913.16.084.364.084.432 0 1.057-.38.918-.556-.918-1.715.677-.175.7-.59.852.284 4.786 5.29 1.05.699 1.071 1.027-.022.306-.328.371-.065.014-.133.014-.248 0-.523-.188-1.224.59-2.371.612h-.12q-1.067 0-1.77-.372.72.634.502 1.333-.106.34-.16.34-.059 0-.059-.383 0-.744-1.901-1.421v.83q-.112.47-.178.47-.063 0-.085-.426-.13-.94-.623-2.022-.491-1.082-1.562-2.994-1.072-1.913-1.367-2.754-.295-.842-.273-1.563.022-.722-.295-1.06-.317-.34-.186-.733.131-.393-.393-.743V.897q.568-.46 1.18-.46zm4.153 12.59q1.071.306 1.071.721l-.721 2.689q-.087.48-.59.48h-.875v-.043l1.115-3.41v-.437zM21.991 0h-.079q-.852 0-1.727.7-.502.175-1.027.809.721.655 1.312.808.065.306.415.853.022 1.443.393 2.393.372.951 2.492 5.104 1.05 2.186 1.05 2.689 0 .765-.962 3.431 0 .153-1.312.24-1.967.066-1.967.547 0 .284.262.284h5.814q.547-.437.612-.743.525.219.569.59.073.295.209.295.025 0 .053-.01.175-.066.175-.285-.153-.59-.765-1.136l.7-2.951q2.12-.066 3.693-.678.292.066.535.066.485 0 .777-.262.437-.394-.175-1.224-1.333-1.334-2.536-2.93-2.47-3.038-3.388-3.518-.306-.634-.732-1.006-.426-.371-1.54-.918-.023-1.29-.602-2.23Q23.674 0 21.991 0zm14.801.67c.041 0 .084.001.13.004.57.041 1.195.259 1.874.652-.68.422-1.304.649-1.875.683a1.81 1.81 0 0 1-.107.003c-.498 0-.74-.228-.728-.686-.013-.437.223-.656.706-.656zm0 4.054c.041 0 .084.002.13.005.57.04 1.195.258 1.874.652-.68.421-1.304.649-1.875.683a1.81 1.81 0 0 1-.107.003c-.498 0-.74-.229-.728-.686-.013-.438.223-.657.706-.657zM36.716 0c-.037 0-.074 0-.11.002-.727.027-1.131.469-1.213 1.324.107.91.495 1.366 1.162 1.366h.03c.686-.014 1.647-.259 2.883-.734h11.777c.965.082 1.45.53 1.457 1.345.007.815-.479 1.31-1.457 1.487H39.468c-1.123-.49-2.04-.735-2.752-.735-.037 0-.074 0-.11.002-.727.027-1.131.468-1.213 1.324.107.91.495 1.366 1.162 1.366h.03c.686-.014 1.647-.259 2.883-.734H50.72c1.385 0 2.337-.434 2.858-1.304.537-.897.537-1.793 0-2.69-.513-.857-1.446-1.286-2.798-1.286-.061 0-.124 0-.187.003H39.468C38.345.246 37.428 0 36.716 0zM43.3 15.509c-.138 0-.277.017-.417.05-.28.07-.582.225-.91.468h-6.58v1.455h6.58c.328.242.63.398.91.467a1.698 1.698 0 0 0 .83 0c.275-.069.55-.225.824-.467h.253c.263.242.535.398.814.467a1.754 1.754 0 0 0 .839 0c.28-.069.577-.225.893-.467h6.644v-1.455h-6.644c-.316-.243-.614-.399-.893-.467a1.754 1.754 0 0 0-.839 0c-.28.068-.55.224-.814.467h-.253c-.275-.243-.549-.399-.823-.467a1.698 1.698 0 0 0-.413-.051zm15.072-.729q.231 0 .231 2.667l-1.495.02q.266-.246.635-1.516.369-1.086.615-1.168.007-.003.014-.003zm1.133-.08q.533.165.86 1.25.39 1.271.656 1.517l-1.516-.02V14.7zM59.097 0q-.17 0-.391.11l.02 3.32q-1.209 0-1.721-1.29 0-.513.02-1.005-.04-.533-.512-.533-.184.41-.184.923 0 1.127.676 1.782.164.287 1.004.718.656.368.656.84v8.606q-.307.205-.635.41-.349.308-.43 1.025-.329.86-.656 1.68-.41.963-.964 1.414l6.107-.02-.82-1.435q-.491-.881-.573-1.721-.287-.738-.656-.943-.697-.348-.717-.41L59.3.05Q59.21 0 59.096 0zm14.058.92l.133.002h.068q2.49 0 4.749 2.14l-1.398 1.13Q75.4 2.943 73.288 2.943q-2.111 0-3.42 1.25l-1.397-1.13Q70.701.92 73.155.92zm.133 2.886q2.349.03 3.865 2.467h-7.76q1.19-2.438 3.895-2.467zm0-3.806q-3.687.149-6.214 3.033l2.111 1.784q-.892 1.189-1.1 2.23H78.46q-.208-1.041-1.1-2.2l1.963-1.785Q76.974.15 73.288 0zm-9.201 10.67V18h1.225v-7.33zm8.423.01V18h1.225v-7.32zm8.575 0V18h1.226v-7.32zm5.301-9.556q2.015.293 2.106 1.842v11.177q-.942-1.124-3.382-1.58l1.276-11.44zM85.819 0l-1.508 13.363q3.36.385 4.18 2.4V18h1.003V2.966q0-2.51-3.675-2.966zm14.469.601c1.074 0 2.419.552 3.07 1.202.568.57.643 1.324.664 2.025h-7.435c.02-.7.095-1.455.664-2.025.65-.65 1.963-1.202 3.037-1.202zm0-.601c-1.274 0-2.645.589-3.448 1.392-.824.824-.918 1.91-.918 2.72v.317h8.733v-.316c0-.812-.062-1.897-.886-2.72C102.965.588 101.563 0 100.289 0zm-7.204 15.583q-.1 0-.195.03-.37.12-.327.36.037.203.331.203.054 0 .116-.007.403-.043.708-.327-.34-.26-.633-.26zm.189-.22q.786 0 2.427.937.824.426 1.805.426.474 0 .985-.1 1.286-.26 2.703-.457.481-.066.932-.066.877 0 1.64.251 1.155.382 1.918.49.763.11 2.42.197-1.069.109-2.093.109-1.025 0-2.42-.229-.697-.114-1.343-.114-.645 0-1.24.114-1.187.229-2.702.425-.379.05-.744.05-1.098 0-2.079-.442-.952-.65-1.978-.65-.453 0-.92.127-.414-.022-.37-.458.239-.588 1.024-.61h.035zm.583-2.224q-.472 0-.88 1.44-.341-1.272-.88-1.272-.081 0-.166.029-.654.414.436 1.59-.872.502-.872 1.265 0 .763 1.286.85.397-.104.777-.104.888 0 1.675.573.673.49 2.135.49.975 0 2.3-.218 1.628-.458 3.164-.458.582 0 1.152.066 1.423.165 2.425.165.455 0 .822-.035 1.853-.043 1.853-.348-.501-.458-1.417-.61-1.94-.022-3.541-.676-.801-.327-1.965-.327-1.163 0-2.689.327-.984.248-1.832.248-1.162 0-2.07-.466-.937-.567-1.983-.937.872-.676.818-1.123-.055-.447-.534-.468h-.014zM118.877.534c.455 0 .944.092 1.252.455.493.582.598 1.375.636 2.11.069 1.337.089 2.676.076 4.014h-.328V3.822c-.861-.029-1.22-.663-1.297-1.158.104-.225.38-.415.472-.69.097-.29-.029-.722-.375-.722h-.017c-.156.007-.288.062-.427.062a.453.453 0 0 1-.244-.07c-.296-.18-.693-.213-1.035-.289.282-.412.715-.405 1.178-.42h.109zm-1.533.806c.42.075.864.155 1.196.446.062.083.151.138.234.138.073 0 .142-.043.182-.147.056-.079.113-.11.164-.11.155 0 .258.294.135.46-.095.236-.383.376-.485.57.099.386.271.758.564 1.038.226.216.5.411.82.436-.011 1.383-.005 2.766-.035 4.149a25.831 25.831 0 0 1-.421 3.806c-.032.18.132.29.226.418h-5.619c.408-.154.818-.303 1.224-.462.22-.114.118-.382.059-.562-.413-1.458-.995-2.863-1.657-4.224a.53.53 0 0 1 .43-.195.63.63 0 0 1 .27.059c.382.452.744.922 1.118 1.381.51.633 1.016 1.271 1.53 1.901.052.05.113.072.173.072.156 0 .31-.145.287-.32.27-1.828.587-3.649.798-5.485a1.902 1.902 0 0 0-.523-1.572.223.223 0 0 0-.156-.059c-.177 0-.386.163-.534.163-.06 0-.111-.028-.145-.105-.186-.189.42-.087.141-.253a.301.301 0 0 1-.05.004c-.254 0-.063-.421-.35-.49.048-.133.131-.228.239-.228a.27.27 0 0 1 .16.064.803.803 0 0 0 .19.023c.222 0 .442-.083.643-.169-.23-.23-.313-.279-.467-.279-.16 0-.386.05-.452.102a.84.84 0 0 0 .111-.57zM118.85 0c-.04 0-.08 0-.12.002-.62.017-1.31.183-1.68.724-.164.236-.287.523-.232.816-.149.343-.472.606-.522.99-.049.31.42.246.305.547.007.225.257.447.174.591-.144.615-.314 1.264-.75 1.743-.074.128-.169.165-.272.165-.14 0-.294-.067-.435-.07-.29.17.08.442.303.442l.027-.001a.81.81 0 0 0 .065.003c.453 0 .795-.385 1.004-.753.268-.438.464-.93.625-1.408.121-.048.243-.094.345-.094.12 0 .213.063.246.258.197.52.01 1.072-.044 1.6-.197 1.351-.395 2.7-.6 4.05-.75-.931-1.496-1.865-2.247-2.795-.172-.175-.41-.243-.652-.243-.159 0-.319.03-.462.078-.303.124-.625.44-.517.796.662 1.37 1.256 2.776 1.668 4.243-.505.192-1.014.373-1.515.572-.202.119-.104.355-.06.531a.312.312 0 0 0 .357.292h6.639c.092-.055.32-.1.351-.123-.125-.103-.073-.285-.206-.387l-.4-.472a26.17 26.17 0 0 0 .421-4.398l.164.001c.277 0 .607-.034.544-.395.016-1.543.014-3.089-.103-4.627-.06-.806-.29-1.674-.932-2.22-.411-.357-.958-.458-1.489-.458zm-6.627 16.268q-.072 0-.14.022-.266.086-.235.257.027.146.238.146.038 0 .083-.005.289-.031.507-.234-.244-.186-.453-.186zm.135-.158q.564 0 1.74.672.59.305 1.293.305.34 0 .706-.071.921-.187 1.936-.328.345-.048.668-.048.629 0 1.175.18.828.274 1.375.352.547.078 1.734.14-.766.079-1.5.079t-1.734-.164q-.5-.082-.962-.082-.463 0-.888.082-.852.164-1.937.304-.271.036-.534.036-.786 0-1.489-.317-.682-.465-1.417-.465-.325 0-.66.09-.297-.015-.266-.328.172-.421.735-.437h.025zm.417-1.593q-.337 0-.63 1.03-.244-.91-.631-.91-.058 0-.119.02-.468.297.313 1.14-.625.36-.625.907 0 .546.922.609.284-.075.556-.075.637 0 1.2.41.483.352 1.531.352.698 0 1.648-.156 1.166-.329 2.267-.329.418 0 .826.048 1.02.118 1.737.118.326 0 .59-.025 1.327-.03 1.327-.25-.359-.328-1.015-.437-1.39-.015-2.538-.484-.574-.234-1.408-.234-.833 0-1.926.234-.706.178-1.313.178-.833 0-1.483-.334-.672-.406-1.422-.672.625-.484.586-.804-.039-.32-.383-.336h-.01zm21.859-12.405q-.092.091 0 .206-.115-.046-.23-.069.046-.092.23-.137zm.252 0l.32.16q-.183.046-.343.046.114-.069.023-.206zm-.152-.124q-.155 0-.284.078l-.206.183v.138l.092-.023q.203.081.42.081.272 0 .565-.127l.367.069-.023-.184h-.344q-.33-.215-.587-.215zm-.425.96h-.008q-.034.012-.023.07.012.057-.046.091-.015.01-.033.01-.046 0-.104-.067-.064-.074-.107-.074-.01 0-.02.005-.045 0-.057.023-.011.023-.011.069.021-.015.045-.015.055 0 .127.072.066.066.137.066.04 0 .08-.02.115-.058.08-.15-.03-.08-.06-.08zm-.293.457l.044.002.264.023q.15.011.126.011l-.504.046q-.16 0-.08-.046.064-.036.15-.036zm.434.105q-.046.046-.16.092-.115.046-.184.069-.114 0-.126-.023-.011-.023.035-.069l.435-.069zm-7.227-1.106q.148 0 .326.097.505.276.16 1.995-1.192-1.261-.928-1.765.17-.327.442-.327zM135 1.555q1.09 0 1.033.809l.138-.023q0-.413.229-.436h.042q.527 0 .428.562-.103.585-.344.596h-.015q-.226 0-.249-.332l-.16.023q-.022.505.356.505l.034-.001q-.55 1.146.229 2.086-.243.144-.507.144-.284 0-.594-.167.092 0 .058-.63-.029-.525-.551-.525-.105 0-.229.02-.139.024-.249.024-.479 0-.404-.448.458-.252.32-.344-.137-.091-.504-.114 0-.16-.366-.298.32-.734.619-1.032.177-.101.364-.101.153 0 .312.067.355.149.745.172l-.023-.138q-.23 0-.585-.172-.183-.089-.376-.089-.18 0-.369.078l.16-.207q.25-.029.458-.029zm-5.57 6.793q.482.16.138.619l-.757.091q-.527-.206-.252-.71zM135.96.43q.598 0 1.598.408 1.318.539 1.318 8.288l-.481-.023q0-1.903-.092-2.338-.092-.436-.894-1.479-.803-1.043-.447-1.674.355-.63.332-1.203-.023-.573-.401-.723-.234-.092-.429-.092-.12 0-.225.035-.16-.458-1.49-.458.252-.528.871-.7.15-.041.34-.041zm.921 5.44q.711.574.791 1.342.08.768.092 3.382.012 2.613-.607 6.19l.412.55h-8.23l2.2-.688q-.825-3.416-1.822-5.01-.998-1.593-.447-1.96.137-.091.285-.091.443 0 .976.825l3.347 4.219h.802q-.045-6.42.917-8.712v.022q.338.18.636.18.351 0 .648-.248zM136.076 0q-.294 0-.537.071-.86.252-1.123.757-.264.504-.333.756l-.068.207q-.276.366-.62.963-.16.39.023.435.184.046.321.138-.137.091-.114.16.023.069.159.092l-.079.069q-.103.091.034.16.138.069.16.298 0 .298.253.367l-.756 1.422h.825l.367-1.376q.275 0 .481-.069.298.665-.114 1.513-1.055 2.224-1.032 7.497l-3.462-4.402q-.046-1.26-1.33-1.26l-.894-2.362q.813-.3 1.746-.3l.134.002q.023-.619-.344-1.123-.871.527-1.674.78.711-2.27-.286-2.82-.352-.195-.65-.195-.546 0-.91.653-.561 1.008 1.25 2.499-.706.271-1.426.271-.192 0-.385-.02-.046.643.344 1.193.665-.573 1.72-.802l.55 2.224q-1.078 0-.275.573-.321.412.39 1.215-.345.986.573 2.533.917 1.548 1.604 4.184l-1.971.574.114 1.123h10.226l-.917-1.628q.367-3.393.39-6.694h.985q0-8.575-1.513-9.217Q136.826 0 136.076 0z"/></svg>