<svg xmlns="http://www.w3.org/2000/svg" width="174.542" height="18"><path d="M17.338.568q-.111.037-.111.128t.07.146q.027.022.054.022.04 0 .077-.05.063-.081.021-.163-.041-.083-.11-.083zM1.95.47q-.153 0-.296.282.084.183.264.237.028.01.054.01.131 0 .224-.229 0-.255-.194-.292Q1.975.47 1.949.47zM.945.787q-.042.128.027.238l-.583.073Q.375.934.945.788zm.568.436zm.105-.003q.12 0 .195.033.027.012 0 .012-.052 0-.288-.04.05-.005.093-.005zm2.564 1.252q.035 0 .097.068 1.125 1.223 2.792 2.865Q8.74 7.048 8.947 7.724 7.585 7.468 6.62 6.318q-.966-1.15-1.681-2.236-.716-1.086-.799-1.414-.017-.196.042-.196zm.046-.868q.202 0 .384.096 4.321 4.308 4.946 5.604.584 1.405.764 2.154-.076.11-.182.11-.087 0-.193-.074l-.57-1.515q-.43-1.296-2.104-2.875-1.674-1.579-2.424-2.5-.441-.542-.676-.542-.164 0-.227.268-.108.455-.38.455-.115 0-.26-.081.126-.858.542-1.022.198-.078.38-.078zm.357 6.43q.666 1.405.541 2.83-.125 0-.236.236-.045-.403-.277-.403-.051 0-.112.02.292-1.405.084-2.683zM2.107.346q.066 0 .116.013.25.063.292.237.029.122.058.122.013 0 .025-.022.042-.073.056-.164.305.53.041 1.57t.848 1.24q1.028 3.104 2.209 4.72 1.18 1.615.986 3.038-.449-.438-.993-.438-.113 0-.23.019.042-1.296-.472-2.556t-.945-1.889q-.43-.63-1.16-1.497-.73-.867-.722-1.789.007-.921.194-1.286.188-.365.181-.584-.003-.091-.027-.091-.035 0-.112.182-.132.31-.73.328l-.07.001q-.568 0-1.235-.274l.82.073q.404.11.601.11.162 0 .183-.074.049-.164-.076-.192-.125-.027-.257-.027t-.201.055l.026.052-.29-.052Q1.042.787 1.167.623q.028-.055.097-.055-.028.183.049.274.028.034.056.034.046 0 .09-.098.07-.155-.125-.228.511-.204.773-.204zm15.412.04q.375 0 .555.365.056.055.695.2v.056l-.695.073q-.597 0-.75-.12-.153-.118-.146-.273.007-.155.188-.155.18 0 .25.082t.035.173q-.035.092-.132.147h.028q.18 0 .187-.22.007-.237-.299-.273-.389 0-.291.374.092.357.854.357l.076-.001q.431-.037.765-.128L18.81.97q1.236 1.004 1.16 2.29-.077 1.288-.966 2.136-.889.85-1.584 1.871-1.083 1.734-1.167 2.72-.083.986.376.986.458 0 1.118-.721.66-.721 1.34-.74 1.82.055 1.612 2.209-.667-.93-1.5-.93-.417 0-1.14.474-1.097.766-1.667.766l-.472-.091q-.861-.84-.583-2.482.416-1.187 1.125-4.235.486-1.734.965-2.628.48-.895 1.022-.913.291 0 .944.365.027.01.047.01.094 0 .037-.21-.526-.429-1.226-.429-.225 0-.47.045-.208 0-.506-.146-.3-.146-.3-.694.251-.237.543-.237zM3.946 3.05q1.083 1.825 1.986 3.002.903 1.178 1.702 1.588.799.411 1.48.43.083.145 1.653 4.617l-.097.055-3.738-3.14q.028-.273-1.104-1.962-1.132-1.687-1.994-4.46l.112-.128zm3.834 7.867l2.07 1.66q.07.256-.5.348-.127.02-.233.02-.37 0-.49-.248-.152-.32-.389-.831-.236-.511-.458-.95zm7.071-.785q0 .767.167 1.332.43 1.004 1.153 1.023h.038q.711 0 1.699-.657.938-.625 1.365-.625.034 0 .066.004.416.055.903.566.486.51.514.894.05.311-.043.311-.06 0-.18-.128-.399-1.05-1.024-1.05h-.01q-.633.01-1.557.648-.923.639-2.153.639t-1.368-1.04q-.14-1.04.43-1.917zm-10.294 1.06l.208.547q.195-.255.299-.3l.005-.002q.088 0-.304 1.543l-.583.238q-.153-.146.09-.904.243-.757.285-1.122zm14.763 1.14q.461 0 .727.502-.18.384-.847.603-.514 0-1.042-.566.685-.539 1.162-.539zm-1.607.758q.207.265.448.438h-1.883q.692-.095 1.435-.438zm-7.182 1.15q-1.554 2.935-4.48 3.011-2.913-.076-4.467-3.011zm11.239.018q-1.554 2.935-4.48 3.012-2.913-.077-4.48-3.012zM2.346.008q-.084 0-.179.013-.222 0-1.264.42Q.069.696 0 1.098l.028.62.417-.2q.68.292 1.139.292.458 0 .347.41-.111.411.028 1.37.139.958 1.097 1.934.959.977 1.188 2.556.23 1.578-.41 3.641l.209-.164q.004-.004.007-.004.046 0-.216.816-.277.867-.757.894-.084.005-.16.005-.348 0-.486-.105-.155-.12-.462-.12l-.045.001q-.34.01-.34.302v.182H.61Q2.21 17.982 6.057 18q3.849-.018 5.446-4.472l-4.279.037q0-.165-.264-.356-.129-.094-.296-.094-.175 0-.391.103-.13.061-.278.061-.337 0-.771-.317.097-.639.236-1.14.139-.503.528-.594.036-.008.073-.008.362 0 .816.811.264-.675.153-1.825l.139.128q1.042 2.3 1.257 2.701.163.305.634.305.15 0 .331-.031.75-.128.737-.475l.639.42.486-.237-1.07-3.048q.264 0 .487-.292-.264-1.096-.82-2.446-.39-.822-.792-1.278Q7.961 4.603 6.78 3.39T5.043 1.518q-.373-.28-.775-.28-.226 0-.461.088-.653.246-.792 1.214-.042-.037.07-.73.11-.694-.05-1.287-.138-.514-.689-.514zM17.566 0q-.252 0-.478.094-.292.11-.347.42-.111.383.097.757.208.374.653.466-.89 1.058-1.514 3.741-.584 2.556-.973 3.779-1.042 1.113-1.035 2.236.007 1.122.424 1.597.301.343.878.438h-3.434q1.597 4.454 5.446 4.472 3.848-.018 5.445-4.472h-2.674q.153-.11.313-.256.156.245.354.245.083 0 .174-.044.347-.219.139-1.004.194-2.245-.459-2.865-.653-.621-1.473-.621-.75 0-1.625.849-.543.526-.743.526-.124 0-.118-.198.014-.52.611-1.761.403-.876 1.75-2.254 1.348-1.378 1.334-2.775-.014-1.396-.597-2.099-.584-.703-1.292-.794-.111-.2-.292-.328-.18-.128-.48-.146Q17.609 0 17.567 0zm9.548 11.783c.534.205 1.116.861 1.287 1.402.17.54.15 1.171.03 1.792-.12.61-.36 1.191-.651 1.571-.2.26-.38.41-.55.46h-.16c-.171-.04-.391-.19-.611-.46-.29-.38-.531-.96-.651-1.571-.12-.621-.14-1.252.03-1.792.17-.541.808-1.243 1.276-1.395v-.007zM26.55 0v1.201h-1.082v.771h1.082l-.15 9.09c-.771.4-1.252 1.081-1.482 1.812-.23.751-.24 1.562-.09 2.313.15.75.45 1.411.86 1.942.311.4.721.73 1.202.831v.03c.03.01.06.01.09.01.04 0 .08-.01.12-.01.05.01.1.01.14.01.04 0 .07 0 .11-.01v-.03c.481-.1.891-.43 1.202-.831.41-.53.71-1.191.86-1.942.151-.751.14-1.562-.09-2.313a2.97 2.97 0 0 0-1.481-1.782l-.15-9.12h1.021l.03-.77H27.6V0h-1.051zm4.96 0v8.975h.75V.767h7.946v7.407l-3.067.017-.017-5.037h-.785v5.821h4.636V0zm6.628 11.536v5.68h-3.81v-5.68zm-4.594-.802V18h5.396v-7.266zM45.596.634q-.371 0-.371.438 0 .371.371.371.394-.022.394-.415 0-.394-.394-.394zM44.154.92v.393l-.853.153q.394-.415.853-.546zm.043.524q.503.394.175.59-.503-.175-.743-.459l.568-.13zm1.53-1.005q1.028 0 1.64.787.612.786.655 2.426 1.596.328 2.12 1.442.086.722-.324.722h-.025q-.437-.022-.689-.24-.091-.08-.138-.08-.081 0-.025.243.087.383.961.93.875.546.142.906-.181.09-.387.09-.622 0-1.46-.822-1.114-1.093-1.18-1.661-.066-.568.459-1.05.312-.285.214-.285-.066 0-.323.133-.634.328-.667.961-.033.634.503 1.388.535.754 2.11 1.913.16.084.363.084.433 0 1.057-.38.918-.556-.918-1.715.677-.175.7-.59.852.284 4.786 5.29 1.05.699 1.071 1.027-.022.306-.328.371-.065.014-.133.014-.248 0-.522-.188-1.224.59-2.372.612h-.12q-1.067 0-1.77-.372.72.634.502 1.333-.106.34-.16.34-.059 0-.059-.383 0-.744-1.901-1.421v.83q-.112.47-.178.47-.063 0-.084-.426-.132-.94-.623-2.022-.492-1.082-1.563-2.994-1.071-1.913-1.366-2.754-.295-.842-.274-1.563.022-.722-.295-1.06-.317-.34-.186-.733.132-.393-.393-.743V.897q.568-.46 1.18-.46zm4.153 12.59q1.071.306 1.071.721l-.72 2.689q-.088.48-.591.48h-.874v-.043l1.114-3.41v-.437zM45.806 0h-.079q-.852 0-1.726.7-.503.175-1.028.809.722.655 1.312.808.065.306.415.853.022 1.443.393 2.393.372.951 2.492 5.104 1.05 2.186 1.05 2.689 0 .765-.962 3.431 0 .153-1.312.24-1.967.066-1.967.547 0 .284.262.284h5.815q.546-.437.612-.743.524.219.568.59.074.295.21.295.025 0 .052-.01.175-.066.175-.285-.153-.59-.765-1.136l.7-2.951q2.12-.066 3.693-.678.292.066.535.066.486 0 .777-.262.437-.394-.175-1.224-1.333-1.334-2.535-2.93-2.47-3.038-3.388-3.518-.306-.634-.733-1.006-.426-.371-1.54-.918-.023-1.29-.602-2.23Q47.49 0 45.806 0zm13.402.22v5.122h.976V.22h-.976m0 6.585v4.878h.976V6.805h-.976m0 6.097v4.878h.976v-4.878h-.976zM63.929 0c-.93 0-1.745.684-1.745 1.562V18h1.136V1.562c0-.43.378-.57.616-.57.25 0 .634.175.634.703v10.804h1.136V1.695c0-.88-.87-1.695-1.777-1.695zm12.599 4.07l.949 2.213q-.475.158-.949.158t-.948-.158l.948-2.213zm0-1.738l-2.074 4.544q.968.435 2.074.435 1.107 0 2.075-.435l-2.075-4.544zM79.334.869q.158 3.26.929 6.165-.949 1.067-3.735 1.067t-3.734-1.067q.77-2.904.928-6.165zM72.537 0q-.474 0-.474.435 0 .434.474.434.119.1.375.218-.158 2.885-1.086 6.48 1.738 1.423 4.702 1.423t4.703-1.422q-.929-3.596-1.087-6.481.257-.119.376-.218.474 0 .474-.434 0-.435-.474-.435zm3.991 14.1q3.108 0 6.59 1.501-3.482 1.46-6.59 1.46-3.087 0-6.59-1.46 3.503-1.501 6.59-1.501zm0-.96q-3.837 0-8.822 2.44Q72.69 18 76.528 18q3.838 0 8.823-2.42-4.964-2.44-8.823-2.44zM89.859.696q.927 0 .927 1.222 0 1.075-.927 2.129-.928-1.054-.928-2.129 0-1.222.928-1.222zm0 4.7q.653 0 .653 1.412 0 .8-.653 1.475-.654-.674-.654-1.475 0-1.412.654-1.412zm0 4.257q.653 0 .653 1.413 0 .8-.653 1.475-.654-.674-.654-1.475 0-1.413.654-1.413zm0-9.653q-1.686 0-1.686 1.918-.021 1.201.558 1.886.58.685.517.917-.738.864-.738 2.087 0 1.012.864 2.17-.864.865-.864 2.088 0 1.011.864 2.15.105.273-.59 1.285-.696 1.012-1.433 3.499h.927q.464-1.644.822-2.35.358-.706.759-1.149.421.443.77 1.149.347.706.81 2.35h.95q-.696-2.487-1.424-3.499-.727-1.012-.6-1.286.843-1.138.843-2.15 0-1.222-.801-2.086.8-1.16.8-2.171 0-1.223-.716-2.087-.063-.232.506-.917.57-.685.57-1.886Q91.566 0 89.858 0zm24.626.558q.434 0 .434.455V4.51h-1.324l.435-3.682q.02-.269.455-.269zm.02-.558q-1.054 0-1.116.6-.435 3.909-.931 3.93l-9.597.351-.992-.041q-1.117-1.18-1.986-1.18l-.641-.04q-1.758.33-2.11.33-.248 0-.248.331 0 .455.703.455 1.208-.192 1.853-.192.117 0 .216.006.351 0 .579.29-.404.499-1.806.499-.107 0-.221-.003-1.593-.041-2.813-.414-.6 0-.6.704.062.64 4.488.661l1.965-.206 11.21-.062 3.144.04V1.014Q115.58 0 114.506 0zm.175 9.287c.196 0 .295.714.295.911 0 .197-.099.911-.296.911H95.767c-.23 0-.345-.714-.345-.91 0-.198.115-.912.345-.912zM95.175 8.253c-.525 0-.788 1.059-.788 1.945 0 .887.263 1.946.788 1.946h20.094c.493 0 .739-1.06.739-1.946 0-.886-.246-1.945-.739-1.945zm19.505 6.89c.196 0 .295.715.295.912 0 .197-.099.91-.296.91H95.767c-.23 0-.345-.713-.345-.91 0-.197.115-.912.345-.912zM95.175 14.11c-.525 0-.788 1.06-.788 1.946 0 .886.263 1.945.788 1.945h20.094c.493 0 .739-1.059.739-1.945 0-.887-.246-1.946-.739-1.946zM119.754 0c-.93 0-1.745.684-1.745 1.562V18h1.136V1.562c0-.43.378-.57.616-.57.25 0 .634.175.634.703v10.804h1.136V1.695c0-.88-.87-1.695-1.777-1.695zm12.98.699q1.265.749 1.265 2.247h-2.52q0-1.498 1.255-2.247zm1.265 2.946q-.283 1.002-1.265 1.002t-1.235-1.002zm7.27 1.751v1.195h-17.06V5.396zM132.734 0Q130.8.729 130.8 3.128q0 .912.395 1.519h-7.664v2.642h18.406V4.647h-7.634q.395-.607.395-1.519 0-2.4-1.964-3.128zm-4.837 14.172c1.074 0 2.418.552 3.069 1.202.57.57.644 1.324.664 2.025h-7.435c.021-.701.096-1.456.665-2.025.65-.65 1.963-1.202 3.037-1.202zm0-.601c-1.274 0-2.645.588-3.448 1.392-.825.824-.918 1.909-.918 2.72V18h8.732v-.316c0-.812-.062-1.897-.886-2.721-.803-.804-2.206-1.392-3.48-1.392zm13.129-2.921v6.46h-4.334v-6.46zm-5.224-.911V18h6.135V9.739zM152.664.628v1.807q-.393-.552-2.25-.552h-1.103V.628zm4.795 0v1.807q-.394-.552-2.25-.552h-1.103V.628zm-9.59 0v1.821q-.393-.566-2.249-.566h-1.104V.628zM152.664 0q-.759.124-2.25.124h-1.682v2.25h1.662q.98 0 1.407.206.435.2.718.58v4.463q.014 2.643-.235 4.76h1.084q0-2.117-.076-4.76V0zm4.795 0q-.76.124-2.25.124h-1.683v2.25h1.663q.98 0 1.407.206.435.2.718.58v4.463q.013 2.643-.076 4.76h1.07q-.146-2.117-.222-4.76V0zm-9.59 0q-.759.145-2.249.145h-1.683v2.242h1.67q.972 0 1.4.207.434.207.717.58v4.45q.014 2.655-.234 4.78l1.083-.02q0-2.105-.076-4.76V0zm9.161 14.43q-2.057 2.797-5.92 2.873-3.839-.076-5.897-2.872zm-13.093-.663q2.108 4.216 7.172 4.233 5.09-.017 7.198-4.233zM162.93.634q-.371 0-.371.438 0 .371.371.371.394-.022.394-.415 0-.394-.394-.394zm-1.443.285v.393l-.852.153q.393-.415.852-.546zm.044.524q.503.394.175.59-.503-.175-.743-.459l.568-.13zm1.53-1.005q1.028 0 1.64.787.612.786.655 2.426 1.596.328 2.12 1.442.085.722-.325.722h-.024q-.437-.022-.689-.24-.091-.08-.138-.08-.081 0-.026.243.088.383.962.93.874.546.142.906-.181.09-.387.09-.622 0-1.46-.822-1.115-1.093-1.18-1.661-.066-.568.459-1.05.312-.285.214-.285-.066 0-.323.133-.634.328-.667.961-.033.634.503 1.388.535.754 2.109 1.913.16.084.364.084.432 0 1.057-.38.918-.556-.918-1.715.677-.175.7-.59.852.284 4.786 5.29 1.05.699 1.071 1.027-.022.306-.328.371-.065.014-.133.014-.248 0-.523-.188-1.224.59-2.371.612h-.12q-1.067 0-1.77-.372.72.634.502 1.333-.106.34-.16.34-.059 0-.059-.383 0-.744-1.901-1.421v.83q-.112.47-.178.47-.063 0-.085-.426-.13-.94-.623-2.022-.491-1.082-1.562-2.994-1.071-1.913-1.367-2.754-.295-.842-.273-1.563.022-.722-.295-1.06-.317-.34-.186-.733.131-.393-.393-.743V.897q.568-.46 1.18-.46zm4.153 12.59q1.071.306 1.071.721l-.721 2.689q-.087.48-.59.48h-.875v-.043l1.115-3.41v-.437zM163.14 0h-.079q-.852 0-1.727.7-.502.175-1.027.809.721.655 1.312.808.065.306.415.853.022 1.443.393 2.393.372.951 2.492 5.104 1.05 2.186 1.05 2.689 0 .765-.962 3.431 0 .153-1.312.24-1.967.066-1.967.547 0 .284.262.284h5.814q.547-.437.612-.743.525.219.569.59.073.295.209.295.025 0 .053-.01.175-.066.175-.285-.153-.59-.765-1.136l.7-2.951q2.12-.066 3.693-.678.292.066.535.066.485 0 .777-.262.437-.394-.175-1.224-1.333-1.334-2.536-2.93-2.47-3.038-3.388-3.518-.306-.634-.732-1.006-.426-.371-1.54-.918-.023-1.29-.602-2.23Q164.823 0 163.14 0z"/></svg>