<svg xmlns="http://www.w3.org/2000/svg" width="127.809" height="18"><path d="M17.338.568q-.111.037-.111.128t.07.146q.027.022.054.022.04 0 .077-.05.063-.081.021-.163-.041-.083-.11-.083zM1.95.47q-.153 0-.296.282.084.183.264.237.028.01.054.01.131 0 .224-.229 0-.255-.194-.292Q1.975.47 1.949.47zM.945.787q-.042.128.027.238l-.583.073Q.375.934.945.788zm.568.436zm.105-.003q.12 0 .195.033.027.012 0 .012-.052 0-.288-.04.05-.005.093-.005zm2.564 1.252q.035 0 .097.068 1.125 1.223 2.792 2.865Q8.74 7.048 8.947 7.724 7.585 7.468 6.62 6.318q-.966-1.15-1.681-2.236-.716-1.086-.799-1.414-.017-.196.042-.196zm.046-.868q.202 0 .384.096 4.321 4.308 4.946 5.604.584 1.405.764 2.154-.076.11-.182.11-.087 0-.193-.074l-.57-1.515q-.43-1.296-2.104-2.875-1.674-1.579-2.424-2.5-.441-.542-.676-.542-.164 0-.227.268-.108.455-.38.455-.115 0-.26-.081.126-.858.542-1.022.198-.078.38-.078zm.357 6.43q.666 1.405.541 2.83-.125 0-.236.236-.045-.403-.277-.403-.051 0-.112.02.292-1.405.084-2.683zM2.107.346q.066 0 .116.013.25.063.292.237.029.122.058.122.013 0 .025-.022.042-.073.056-.164.305.53.041 1.57t.848 1.24q1.028 3.104 2.209 4.72 1.18 1.615.986 3.038-.449-.438-.993-.438-.113 0-.23.019.042-1.296-.472-2.556t-.945-1.889q-.43-.63-1.16-1.497-.73-.867-.722-1.789.007-.921.194-1.286.188-.365.181-.584-.003-.091-.027-.091-.035 0-.112.182-.132.31-.73.328l-.07.001q-.568 0-1.235-.274l.82.073q.404.11.601.11.162 0 .183-.074.049-.164-.076-.192-.125-.027-.257-.027t-.201.055l.026.052-.29-.052Q1.042.787 1.167.623q.028-.055.097-.055-.028.183.049.274.028.034.056.034.046 0 .09-.098.07-.155-.125-.228.511-.204.773-.204zm15.412.04q.375 0 .555.365.056.055.695.2v.056l-.695.073q-.597 0-.75-.12-.153-.118-.146-.273.007-.155.188-.155.18 0 .25.082t.035.173q-.035.092-.132.147h.028q.18 0 .187-.22.007-.237-.299-.273-.389 0-.291.374.092.357.854.357l.076-.001q.431-.037.765-.128L18.81.97q1.236 1.004 1.16 2.29-.077 1.288-.966 2.136-.889.85-1.584 1.871-1.083 1.734-1.167 2.72-.083.986.376.986.458 0 1.118-.721.66-.721 1.34-.74 1.82.055 1.612 2.209-.667-.93-1.5-.93-.417 0-1.14.474-1.097.766-1.667.766l-.472-.091q-.861-.84-.583-2.482.416-1.187 1.125-4.235.486-1.734.965-2.628.48-.895 1.022-.913.291 0 .944.365.027.01.047.01.094 0 .037-.21-.526-.429-1.226-.429-.225 0-.47.045-.208 0-.506-.146-.3-.146-.3-.694.251-.237.543-.237zM3.946 3.05q1.083 1.825 1.986 3.002.903 1.178 1.702 1.588.799.411 1.48.43.083.145 1.653 4.617l-.097.055-3.738-3.14q.028-.273-1.104-1.962-1.132-1.687-1.994-4.46l.112-.128zm3.834 7.867l2.07 1.66q.07.256-.5.348-.127.02-.233.02-.37 0-.49-.248-.152-.32-.389-.831-.236-.511-.458-.95zm7.071-.785q0 .767.167 1.332.43 1.004 1.153 1.023h.038q.711 0 1.699-.657.938-.625 1.365-.625.034 0 .066.004.416.055.903.566.486.51.514.894.05.311-.043.311-.06 0-.18-.128-.399-1.05-1.024-1.05h-.01q-.633.01-1.557.648-.923.639-2.153.639t-1.368-1.04q-.14-1.04.43-1.917zm-10.294 1.06l.208.547q.195-.255.299-.3l.005-.002q.088 0-.304 1.543l-.583.238q-.153-.146.09-.904.243-.757.285-1.122zm14.763 1.14q.461 0 .727.502-.18.384-.847.603-.514 0-1.042-.566.685-.539 1.162-.539zm-1.607.758q.207.265.448.438h-1.883q.692-.095 1.435-.438zm-7.182 1.15q-1.554 2.935-4.48 3.011-2.913-.076-4.467-3.011zm11.239.018q-1.554 2.935-4.48 3.012-2.913-.077-4.48-3.012zM2.346.008q-.084 0-.179.013-.222 0-1.264.42Q.069.696 0 1.098l.028.62.417-.2q.68.292 1.139.292.458 0 .347.41-.111.411.028 1.37.139.958 1.097 1.934.959.977 1.188 2.556.23 1.578-.41 3.641l.209-.164q.004-.004.007-.004.046 0-.216.816-.277.867-.757.894-.084.005-.16.005-.348 0-.486-.105-.155-.12-.462-.12l-.045.001q-.34.01-.34.302v.182H.61Q2.21 17.982 6.057 18q3.849-.018 5.446-4.472l-4.279.037q0-.165-.264-.356-.129-.094-.296-.094-.175 0-.391.103-.13.061-.278.061-.337 0-.771-.317.097-.639.236-1.14.139-.503.528-.594.036-.008.073-.008.362 0 .816.811.264-.675.153-1.825l.139.128q1.042 2.3 1.257 2.701.163.305.634.305.15 0 .331-.031.75-.128.737-.475l.639.42.486-.237-1.07-3.048q.264 0 .487-.292-.264-1.096-.82-2.446-.39-.822-.792-1.278Q7.961 4.603 6.78 3.39T5.043 1.518q-.373-.28-.775-.28-.226 0-.461.088-.653.246-.792 1.214-.042-.037.07-.73.11-.694-.05-1.287-.138-.514-.689-.514zM17.566 0q-.252 0-.478.094-.292.11-.347.42-.111.383.097.757.208.374.653.466-.89 1.058-1.514 3.741-.584 2.556-.973 3.779-1.042 1.113-1.035 2.236.007 1.122.424 1.597.301.343.878.438h-3.434q1.597 4.454 5.446 4.472 3.848-.018 5.445-4.472h-2.674q.153-.11.313-.256.156.245.354.245.083 0 .174-.044.347-.219.139-1.004.194-2.245-.459-2.865-.653-.621-1.473-.621-.75 0-1.625.849-.543.526-.743.526-.124 0-.118-.198.014-.52.611-1.761.403-.876 1.75-2.254 1.348-1.378 1.334-2.775-.014-1.396-.597-2.099-.584-.703-1.292-.794-.111-.2-.292-.328-.18-.128-.48-.146Q17.609 0 17.567 0zm9.444.644q-.461 0-.461.35 0 .294.462.294.448 0 .448-.294 0-.35-.448-.35zm.351-.196q1.064 0 1.596.686.266.434.518 1.33-.014.21-.35.28-.336.07-.658.07-1.484-.546-2.296-1.89.056-.476 1.19-.476zm2.534 2.1q.266.197 1.128.715.86.518 2.688 2.149 1.827 1.631 2.766 1.918.938.287 2.205.343 1.267.056 1.911.294 0 .197-.406.309-3.514-.407-5.16-.757-1.645-.35-2.43-.595-.783-.245-2.001-.93-1.219-.687-1.947-1.331-.728-.644-.952-1.008-.224-.364.553-.385.777-.021 1.26-.224t.385-.498zm10.74 5.49l.112.111q0 .113-.14.155l-.266-.014q.294-.126.294-.253zm.182.168l.112.14-.21-.014q.084-.07.098-.126zM26.017.994q.952 1.358 2.226 1.905-.162-.009-.305-.009-1.027 0-1.04.443 0 .7 2.388 2.408t5.622 2.212q1.4.182 1.569.547.028.266-1.33.336h-2.255q-.224-.49-.826-.897l.126.35q-2.24-1.288-3.928-2.849-1.687-1.561-1.701-2.71 0-.546-.546-1.372 0-.126-.756-.238v-.028l.756-.098zm10.978 7.38l3.878.686q-.406.168-.567.602-.16.434.035 1.05L36.323 9.13q.056-.014.266-.12.21-.104.37-.286.162-.182.036-.35zm-6.091-.267q1.512 1.009 1.484 1.317-.224.728-1.092 1.848-.462 0-.875-.098-.223-.053-.464-.053-.206 0-.426.04 1.443-2.045 1.443-2.13 0-.545-.084-.924zM27.347 0q-.742 0-1.113.203t-.4.54q-1.106.153-1.106.223v.28q.029.07.925.336.476.63.476 1.149 0 .98.714 1.932t3.066 3.122q.21 0 .435 1.247l-1.317 2.016q-.168.112-.448.126-.462-.154-1.47-.154-.32.098-.567.098-.176 0-.315-.049-.272-.096-.728-.096-.107 0-.224.005-.476.224-.084.616l7 .014-.223-.336q.434-.714 1.12-1.96h2.52l5.462 2.114.056-.196q-.589-.588-.49-1.33.21-.602 1.106-.798v-.196l-2.24-.406v-.014l2.1.14q0-.056-.357-.715-.358-.658-1.506-.658-1.876-.056-2.765-.182-.89-.126-3.396-2.422-2.506-2.297-3.585-2.549Q29.475 0 27.347 0zm5.888 14.24q2.996 0 6.355 1.447-3.359 1.408-6.355 1.408-2.976 0-6.355-1.408 3.379-1.448 6.355-1.448zm0-.926q-3.7 0-8.507 2.353Q29.535 18 33.235 18q3.7 0 8.507-2.333-4.787-2.353-8.507-2.353zM46.151.612q.137.345.221.576V.783l.192.612h-.12l-.072-.207v.207h-.014q-.071-.264-.235-.783zm-.237 1.41q-.197 0-.197.177 0 .155.164.155.047 0 .107-.013.27-.057.412-.142-.142-.136-.412-.171-.04-.005-.074-.005zm1.184-1.41q.498.904.448 1.26-.057.355-.185.483l.128.1q.278-.242.32-.577.064 0 .15.129.085.128.085.498 0 .348-.47.562-.263.122-.56.122-.24 0-.5-.08-.373-.107-.808-.107-.254 0-.53.036-.406.054-.603.054-.17 0-.186-.04-.036-.085.284-.128.275-.036.419-.036h.044l.017.001q.132 0 .118-.107-.009-.067-.09-.067-.049 0-.123.024-.192.064-.747.1-.193-.22-.043-.249.583-.164.832-.263.257-.1.47-.37.206-.27 1.288-.27.128 0 .128-.1V.783q.32 1.003.277 1.138-.042.128-.163.185l.107.15q.17-.178.17-.392 0-.235-.32-1.252zm.135 4.433q.897 2.561 2.86 2.661-.878.408-1.607 1.204-1.109-1.054-1.331-3.865zm2.604 3.273q-.369.56-.598 1.069-.177-.068-.34-.164.387-.444.938-.905zm1.829-.584v1.808h-1.53q-.21 0-.406-.03.323-.831.947-1.778zm1.757 0v1.808h-1.188V7.734zm2.356 0v1.808h-1.772V7.734zm1.722 0v1.808h-1.139V7.734zm-9.002 2.009q.242.15.515.237-.152.499-.152.942 0 1.103-.498 1.103-.505 0-.505-.548 0-.569.448-1.416.085-.158.192-.318zM46.272 0q-.163 0-.163.206v1.189q-.434 0-.64.277-.285.292-.69.441-.4.157-.798.207-.398.05-.135.384.028.178.2.292 0 .38.564.38.163 0 .374-.032.265-.04.506-.04.614 0 1.074.26.02 4.41 1.507 5.846-.81 1.09-.81 2.138 0 1.089 1.06 1.089t1.06-1.466q0-.512.157-1.083.153.016.313.016h9.478v-.562h-1.252V7.734h1.252v-.562h-8.318q-3.038 0-3.55-3.607.291-.029.619-.285.327-.256.327-.761 0-.512-.192-.769-.2-.249-.391-.249 0-.234-.591-1.295Q47.112 0 46.884 0q-.092 0-.092.206V.74q-.114-.263-.32-.534-.114-.206-.2-.206zm-.18 15.94c.578 0 1.302.296 1.652.646.306.307.347.713.358 1.09h-4.003c.012-.377.052-.783.358-1.09.35-.35 1.057-.647 1.635-.647zm0-.324c-.686 0-1.424.316-1.856.749-.444.444-.494 1.028-.494 1.465V18h4.7v-.17c0-.437-.033-1.021-.477-1.465-.432-.433-1.187-.75-1.873-.75zm3.427-1.562V18h.66v-3.946zm4.535.006V18h.659v-3.94zm4.616 0V18h.66v-3.94zm6.346-10.989c-.27.13-.6.49-.1.55.24-.01.79-.26.69-.49a.221.221 0 0 1-.158.067c-.141 0-.287-.127-.432-.127zm-1.971.09c-.33.08-.5.44-.08.52l.022.002c.241 0 .9-.294.358-.361-.09-.06-.18-.16-.3-.16zm2.63-2.51c.591.69 1.111 1.49 1.211 2.41.1.66.13 1.321.23 1.971-.47-.04-.33-.77-.24-1.12.08-.69-.29-1.33-.55-1.941-.18-.33-.35-.85-.81-.86-.51.09-.84.52-1.17.89-.34-.34-.701-.71-1.171-.85a.236.236 0 0 0-.082-.013c-.105 0-.228.046-.285.046-.05 0-.049-.034.057-.164.063-.224.195-.29.358-.29.238 0 .543.141.8.141a.561.561 0 0 0 .112-.01c.085.004.17.007.254.007.437 0 .876-.067 1.287-.218zm-.16.76c.391.1.481.64.671.96.24.56.53 1.17.34 1.801-.15.3.04.68.02.9-.333.235-.626.73-1.07.73a.631.631 0 0 1-.15-.02c-.44-.09-.66-.51-1-.71-.247.238-.393.73-.798.73a.618.618 0 0 1-.183-.03c-.37-.08-.86-.04-.97-.49-.19-.46-.21-.97-.24-1.47a.324.324 0 0 0 .06.006c.203 0 .221-.235.24-.436.077-.293.287-.429.52-.429.157 0 .325.062.47.178.17.19.69.34.58.64-.05.18-.11.371-.17.561l.42.56c.04-.29.47-.53.22-.82-.04-.13-.19-.3-.17-.4.18-.32.42-.6.7-.84a.322.322 0 0 1 .23-.103c.268 0 .538.351.771.382.23-.25-.02-.35-.25-.48a.701.701 0 0 0-.487-.196c-.25 0-.5.13-.654.356-.19.114-.322.494-.489.494-.052 0-.109-.037-.171-.134-.305-.244-.671-.518-1.072-.518a.855.855 0 0 0-.179.018c-.283.059-.537.632-.559.632v-.001c-.01-.47.21-.89.34-1.351a.612.612 0 0 1 .595-.477c.173 0 .348.075.475.237.298.11.516.634.796.634.05 0 .1-.017.154-.054.31-.33.56-.72 1.01-.86zm-1.42 6.943c1.27 1.31 2.441 4.632 2.741 5.993-.49-.4-1.16-.66-1.31-.91-.16-.26-.6-2.792-1.43-5.083zm4.522-2.381c2.401 1.38 6.583 8.174 7.474 9.264-1.5-.95-2.982-1.91-4.592-2.691-2.261-1.11-4.192-2.911-6.033-4.592 1.52-.51 2.611-1.37 3.151-1.981zm-2.49 8.624c.32.19.61.45.96.59-.21.52-.34 1.1-.77 1.51-.082.13-.197.172-.329.172-.227 0-.504-.123-.735-.123-.016 0-.032 0-.047.002.28-.7.7-1.01.92-2.151zm.68-9.365c.06.126.137.167.22.167.107 0 .223-.071.32-.116.24.17 1.07.15.58.51-.31.42-1.968 1.566-3.12 1.768-.496.087.339.873.609 1.153 1.56 1.4 3.091 2.882 4.962 3.892 1.17.66 2.401 1.25 3.532 1.98.54.781 1.18 1.502 1.59 2.362-.41.12-.81.29-1.23.39a2.89 2.89 0 0 1-.703.082c-.66 0-1.325-.197-1.618-.512-.54-.57-1.13-3.001-1.44-3.892-.045-.1-.108-.133-.175-.133-.136 0-.292.132-.37.132a.04.04 0 0 1-.036-.019.391.391 0 0 0-.387-.376c-.175 0-.338.127-.313.396-.06.63-.18 1.26-.48 1.831-.037.097-.114.134-.215.134-.285 0-.762-.293-1.086-.374.13-.77-.92-4.712-4.002-8.014-.108-.116-.578-.611-.536-.611a.11.11 0 0 1 .036.02c.157.042.335.07.51.07.338 0 .67-.104.84-.42.026-.077.059-.108.097-.108.137 0 .344.399.564.399a.92.92 0 0 0 .513.155c.29 0 .578-.131.777-.355.19-.17.37-.34.56-.51zM65.765 0a3.71 3.71 0 0 1-1.36.28c-.071 0-.142-.004-.21-.01a.804.804 0 0 1-.143.012c-.337 0-.7-.18-1.026-.18a.622.622 0 0 0-.353.098c-.55.8-1.05 1.69-1.11 2.681-.11 1.901-.06 2.562 1.44 4.122.59 1.341 1.691 5.713 2.022 6.904.36.34-.45 2.2-.79 2.66-.186.256-.674.268-1.198.268h-.171c-.472 0-.949.01-1.243.193-.28.18-.38.85-.22.94.15-.23.45-.54.66-.57-.2.21.5.11.65.16.405.007.814.041 1.225.041.199 0 .397-.008.596-.03.09-.04.187-.102.229-.102.033 0 .033.038-.029.151.284.074.602.111.913.111.7 0 1.363-.187 1.509-.56.3-.551.58-1.131.78-1.732.255.054.577.234.834.234a.38.38 0 0 0 .206-.054c.28-.19.57-1.08.73-1.67.016-.062.1-.092.184-.092.08 0 .162.028.187.082.3.6.8 2.44 1.28 3.211.363.571 1.241.852 2.176.852a4.48 4.48 0 0 0 1.716-.332c.65-.28 1.13-.22.99-.58-.22-.6-.6-1.17-1-1.68.58.36 1.16.73 1.741 1.09.048.174.168.243.291.243.237 0 .483-.256.24-.513-2.272-3.282-5.883-8.875-8.385-10.685-.4-.35-.87-.62-1.39-.75-.17-.44-.12-1.031-.22-1.531-.1-.99-.7-2.632-1.751-3.262zm15.921 1.124q2.014.293 2.105 1.842v11.177q-.941-1.124-3.381-1.58l1.276-11.44zM81.119 0L79.61 13.363q3.361.385 4.181 2.4V18h1.003V2.966q0-2.51-3.675-2.966zm12.197.911v6.46h-4.333V.91zM88.092 0v8.261h6.135V0zm3.068 14.172c1.074 0 2.418.552 3.068 1.202.57.57.644 1.324.665 2.025h-7.435c.02-.701.095-1.456.664-2.025.65-.65 1.964-1.202 3.038-1.202zm0-.601c-1.275 0-2.646.588-3.449 1.392-.824.824-.917 1.909-.917 2.72V18h8.732v-.316c0-.812-.062-1.897-.886-2.721-.804-.804-2.206-1.392-3.48-1.392zM105.519.893v16.36h-7.142v-.79h3.612V6.769h2.222V.893zM103.443 0v6.042h-2.222v9.778h-3.695V18h8.76V0zm12.837.893v16.36h-7.142v-.79h3.613V6.769h2.221V.893zM114.204 0v6.042h-2.222v9.778h-3.695V18h8.761V0zm12.837.893v16.36H119.9v-.79h3.613V6.769h2.221V.893zM124.965 0v6.042h-2.221v9.778h-3.696V18h8.761V0z"/></svg>