<svg xmlns="http://www.w3.org/2000/svg" width="111.12" height="18"><path d="M17.338.568q-.111.037-.111.128t.07.146q.027.022.054.022.04 0 .077-.05.063-.081.021-.163-.041-.083-.11-.083zM1.95.47q-.153 0-.296.282.084.183.264.237.028.01.054.01.131 0 .224-.229 0-.255-.194-.292Q1.975.47 1.949.47zM.945.787q-.042.128.027.238l-.583.073Q.375.934.945.788zm.568.436zm.105-.003q.12 0 .195.033.027.012 0 .012-.052 0-.288-.04.05-.005.093-.005zm2.564 1.252q.035 0 .097.068 1.125 1.223 2.792 2.865Q8.74 7.048 8.947 7.724 7.585 7.468 6.62 6.318q-.966-1.15-1.681-2.236-.716-1.086-.799-1.414-.017-.196.042-.196zm.046-.868q.202 0 .384.096 4.321 4.308 4.946 5.604.584 1.405.764 2.154-.076.11-.182.11-.087 0-.193-.074l-.57-1.515q-.43-1.296-2.104-2.875-1.674-1.579-2.424-2.5-.441-.542-.676-.542-.164 0-.227.268-.108.455-.38.455-.115 0-.26-.081.126-.858.542-1.022.198-.078.38-.078zm.357 6.43q.666 1.405.541 2.83-.125 0-.236.236-.045-.403-.277-.403-.051 0-.112.02.292-1.405.084-2.683zM2.107.346q.066 0 .116.013.25.063.292.237.029.122.058.122.013 0 .025-.022.042-.073.056-.164.305.53.041 1.57t.848 1.24q1.028 3.104 2.209 4.72 1.18 1.615.986 3.038-.449-.438-.993-.438-.113 0-.23.019.042-1.296-.472-2.556t-.945-1.889q-.43-.63-1.16-1.497-.73-.867-.722-1.789.007-.921.194-1.286.188-.365.181-.584-.003-.091-.027-.091-.035 0-.112.182-.132.31-.73.328l-.07.001q-.568 0-1.235-.274l.82.073q.404.11.601.11.162 0 .183-.074.049-.164-.076-.192-.125-.027-.257-.027t-.201.055l.026.052-.29-.052Q1.042.787 1.167.623q.028-.055.097-.055-.028.183.049.274.028.034.056.034.046 0 .09-.098.07-.155-.125-.228.511-.204.773-.204zm15.412.04q.375 0 .555.365.056.055.695.2v.056l-.695.073q-.597 0-.75-.12-.153-.118-.146-.273.007-.155.188-.155.18 0 .25.082t.035.173q-.035.092-.132.147h.028q.18 0 .187-.22.007-.237-.299-.273-.389 0-.291.374.092.357.854.357l.076-.001q.431-.037.765-.128L18.81.97q1.236 1.004 1.16 2.29-.077 1.288-.966 2.136-.889.85-1.584 1.871-1.083 1.734-1.167 2.72-.083.986.376.986.458 0 1.118-.721.66-.721 1.34-.74 1.82.055 1.612 2.209-.667-.93-1.5-.93-.417 0-1.14.474-1.097.766-1.667.766l-.472-.091q-.861-.84-.583-2.482.416-1.187 1.125-4.235.486-1.734.965-2.628.48-.895 1.022-.913.291 0 .944.365.027.01.047.01.094 0 .037-.21-.526-.429-1.226-.429-.225 0-.47.045-.208 0-.506-.146-.3-.146-.3-.694.251-.237.543-.237zM3.946 3.05q1.083 1.825 1.986 3.002.903 1.178 1.702 1.588.799.411 1.48.43.083.145 1.653 4.617l-.097.055-3.738-3.14q.028-.273-1.104-1.962-1.132-1.687-1.994-4.46l.112-.128zm3.834 7.867l2.07 1.66q.07.256-.5.348-.127.02-.233.02-.37 0-.49-.248-.152-.32-.389-.831-.236-.511-.458-.95zm7.071-.785q0 .767.167 1.332.43 1.004 1.153 1.023h.038q.711 0 1.699-.657.938-.625 1.365-.625.034 0 .066.004.416.055.903.566.486.51.514.894.05.311-.043.311-.06 0-.18-.128-.399-1.05-1.024-1.05h-.01q-.633.01-1.557.648-.923.639-2.153.639t-1.368-1.04q-.14-1.04.43-1.917zm-10.294 1.06l.208.547q.195-.255.299-.3l.005-.002q.088 0-.304 1.543l-.583.238q-.153-.146.09-.904.243-.757.285-1.122zm14.763 1.14q.461 0 .727.502-.18.384-.847.603-.514 0-1.042-.566.685-.539 1.162-.539zm-1.607.758q.207.265.448.438h-1.883q.692-.095 1.435-.438zm-7.182 1.15q-1.554 2.935-4.48 3.011-2.913-.076-4.467-3.011zm11.239.018q-1.554 2.935-4.48 3.012-2.913-.077-4.48-3.012zM2.346.008q-.084 0-.179.013-.222 0-1.264.42Q.069.696 0 1.098l.028.62.417-.2q.68.292 1.139.292.458 0 .347.41-.111.411.028 1.37.139.958 1.097 1.934.959.977 1.188 2.556.23 1.578-.41 3.641l.209-.164q.004-.004.007-.004.046 0-.216.816-.277.867-.757.894-.084.005-.16.005-.348 0-.486-.105-.155-.12-.462-.12l-.045.001q-.34.01-.34.302v.182H.61Q2.21 17.982 6.057 18q3.849-.018 5.446-4.472l-4.279.037q0-.165-.264-.356-.129-.094-.296-.094-.175 0-.391.103-.13.061-.278.061-.337 0-.771-.317.097-.639.236-1.14.139-.503.528-.594.036-.008.073-.008.362 0 .816.811.264-.675.153-1.825l.139.128q1.042 2.3 1.257 2.701.163.305.634.305.15 0 .331-.031.75-.128.737-.475l.639.42.486-.237-1.07-3.048q.264 0 .487-.292-.264-1.096-.82-2.446-.39-.822-.792-1.278Q7.961 4.603 6.78 3.39T5.043 1.518q-.373-.28-.775-.28-.226 0-.461.088-.653.246-.792 1.214-.042-.037.07-.73.11-.694-.05-1.287-.138-.514-.689-.514zM17.566 0q-.252 0-.478.094-.292.11-.347.42-.111.383.097.757.208.374.653.466-.89 1.058-1.514 3.741-.584 2.556-.973 3.779-1.042 1.113-1.035 2.236.007 1.122.424 1.597.301.343.878.438h-3.434q1.597 4.454 5.446 4.472 3.848-.018 5.445-4.472h-2.674q.153-.11.313-.256.156.245.354.245.083 0 .174-.044.347-.219.139-1.004.194-2.245-.459-2.865-.653-.621-1.473-.621-.75 0-1.625.849-.543.526-.743.526-.124 0-.118-.198.014-.52.611-1.761.403-.876 1.75-2.254 1.348-1.378 1.334-2.775-.014-1.396-.597-2.099-.584-.703-1.292-.794-.111-.2-.292-.328-.18-.128-.48-.146Q17.609 0 17.567 0zm9.444.644q-.461 0-.461.35 0 .294.462.294.448 0 .448-.294 0-.35-.448-.35zm.351-.196q1.064 0 1.596.686.266.434.518 1.33-.014.21-.35.28-.336.07-.658.07-1.484-.546-2.296-1.89.056-.476 1.19-.476zm2.534 2.1q.266.197 1.128.715.86.518 2.688 2.149 1.827 1.631 2.766 1.918.938.287 2.205.343 1.267.056 1.911.294 0 .197-.406.309-3.514-.407-5.16-.757-1.645-.35-2.43-.595-.783-.245-2.001-.93-1.219-.687-1.947-1.331-.728-.644-.952-1.008-.224-.364.553-.385.777-.021 1.26-.224t.385-.498zm10.74 5.49l.112.111q0 .113-.14.155l-.266-.014q.294-.126.294-.253zm.182.168l.112.14-.21-.014q.084-.07.098-.126zM26.017.994q.952 1.358 2.226 1.905-.162-.009-.305-.009-1.027 0-1.04.443 0 .7 2.388 2.408t5.622 2.212q1.4.182 1.569.547.028.266-1.33.336h-2.255q-.224-.49-.826-.897l.126.35q-2.24-1.288-3.928-2.849-1.687-1.561-1.701-2.71 0-.546-.546-1.372 0-.126-.756-.238v-.028l.756-.098zm10.978 7.38l3.878.686q-.406.168-.567.602-.16.434.035 1.05L36.323 9.13q.056-.014.266-.12.21-.104.37-.286.162-.182.036-.35zm-6.091-.267q1.512 1.009 1.484 1.317-.224.728-1.092 1.848-.462 0-.875-.098-.223-.053-.464-.053-.206 0-.426.04 1.443-2.045 1.443-2.13 0-.545-.084-.924zM27.347 0q-.742 0-1.113.203t-.4.54q-1.106.153-1.106.223v.28q.029.07.925.336.476.63.476 1.149 0 .98.714 1.932t3.066 3.122q.21 0 .435 1.247l-1.317 2.016q-.168.112-.448.126-.462-.154-1.47-.154-.32.098-.567.098-.176 0-.315-.049-.272-.096-.728-.096-.107 0-.224.005-.476.224-.084.616l7 .014-.223-.336q.434-.714 1.12-1.96h2.52l5.462 2.114.056-.196q-.589-.588-.49-1.33.21-.602 1.106-.798v-.196l-2.24-.406v-.014l2.1.14q0-.056-.357-.715-.358-.658-1.506-.658-1.876-.056-2.765-.182-.89-.126-3.396-2.422-2.506-2.297-3.585-2.549Q29.475 0 27.347 0zm5.888 14.24q2.996 0 6.355 1.447-3.359 1.408-6.355 1.408-2.976 0-6.355-1.408 3.379-1.448 6.355-1.448zm0-.926q-3.7 0-8.507 2.353Q29.535 18 33.235 18q3.7 0 8.507-2.333-4.787-2.353-8.507-2.353zM45.384.027c-.335 0-.668.025-.992.065-.446.113-.217.624.18.624a.475.475 0 0 0 .081-.007c.837.096 1.867.15 2.499.624.838.913.461 2.813.559 3.714.007.049.01 3.642.01 5.463a6.127 6.127 0 0 0-2.627-.583c-.4 0-.799.038-1.184.116-.44.23.076.527.421.527.041 0 .08-.004.114-.013 1.223.132 2.613.46 3.234 1.596.061.206.023.277-.07.277-.206 0-.678-.341-.944-.341-.014 0-.028 0-.04.002a7.513 7.513 0 0 0-1.576-.168c-.388 0-.774.031-1.145.095-.42.277.095.532.437.532a.53.53 0 0 0 .104-.01c1.248.151 2.629.49 3.234 1.629.007 1.266 0 2.103.033 3.268-.014.358.219.536.455.536.234 0 .472-.175.473-.524-.009-1.147-.09-2.155.06-3.268.303-1.248 2.47-1.44 3.816-1.748.293-.346-.285-.474-.657-.474-.056 0-.107.003-.15.008a6.803 6.803 0 0 0-.52-.02c-.88 0-1.765.175-2.55.579-.031-.753.71-1.186 1.241-1.489.838-.36 1.76-.396 2.636-.589.312-.271-.18-.5-.52-.5a.578.578 0 0 0-.125.013 6.747 6.747 0 0 0-.646-.031c-.9 0-1.799.183-2.606.58.016-2.843.062-5.594-.02-8.283-.065-.831-.544-1.594-1.35-1.843-.578-.263-1.223-.357-1.865-.357zm9.843 14.787c.848 0 1.91.436 2.424.95.45.45.509 1.045.525 1.6h-5.873c.016-.555.075-1.15.525-1.6.513-.514 1.55-.95 2.399-.95zm0-.475c-1.007 0-2.09.465-2.724 1.1-.651.65-.725 1.508-.725 2.149v.25h6.898v-.25c0-.641-.049-1.498-.7-2.15-.634-.634-1.742-1.1-2.749-1.1zM60.749 1.14q1.994.29 2.084 1.823V14.03q-.932-1.113-3.347-1.564L60.749 1.14zM60.187.026l-1.493 13.23q3.328.38 4.14 2.375v2.215h.992V2.963q0-2.485-3.639-2.936zm7.016 1.202q1.994.29 2.084 1.824v11.065q-.932-1.112-3.347-1.563l1.263-11.326zM66.64.115l-1.493 13.23q3.327.382 4.14 2.376v2.215h.992V3.052q0-2.486-3.639-2.937zM75.712 0q-1.402.032-2.32 1.015-1.016 1.112-1.112 2.224 0 .258.29.258h13.473q.29 0 .29-.306t-.29-.306H73.005Q73.81.822 75.422.596h10.621q.29 0 .29-.306 0-.29-.29-.29zm3.599 5.222c.505 0 .95.187 1.337.56.387.374.58.816.58 1.327 0 .538-.188.985-.565 1.342a1.898 1.898 0 0 1-1.352.534c-.524 0-.971-.183-1.341-.55a1.765 1.765 0 0 1-.545-1.326c.007-.525.195-.97.565-1.337.37-.366.81-.55 1.321-.55zm2.845 1.635c.141 0 .246.067.313.202v3.258h-6.325V7.059c.074-.128.178-.192.312-.192.256 0 .436.208.54.625.105.417.357.824.757 1.221.393.39.899.585 1.517.585h.031c.646 0 1.169-.198 1.569-.595.4-.397.652-.804.757-1.22.104-.418.28-.626.53-.626zm-2.019 3.783a.086.086 0 0 0 .032.029c-.018.096-.104.154-.17.217-.207.173-.446.302-.666.455-.018-.013-.035-.028-.056-.039-.261-.174-.544-.328-.76-.559a.163.163 0 0 1-.031-.103zm-.874-5.75c-.513 0-.985.181-1.414.544-.458.39-.71.848-.757 1.372-.121-.181-.333-.272-.636-.272a.734.734 0 0 0-.635.333v3.773h2.013c.064.017.13.032.196.037.005.197.126.37.27.494.083.077.174.144.268.208l-.982-.156V12.4l1.35-.213c-.095.446-.19.891-.283 1.337h1.319l-.286-1.337 1.35.213v-1.178l-.92.146c.185-.13.368-.28.465-.488a.683.683 0 0 0 .046-.203l.035.002c.034 0 .07-.008.084-.04h2.046V6.857a.716.716 0 0 0-.626-.323c-.289 0-.497.084-.625.252-.007-.477-.262-.925-.767-1.342-.457-.37-.951-.554-1.483-.554h-.028zm-3.945 10.446c.748 0 1.684.384 2.136.836.396.396.448.922.463 1.41h-5.175c.015-.488.066-1.014.462-1.41.453-.452 1.367-.836 2.114-.836zm0-.419c-.886 0-1.84.41-2.4.969-.573.574-.638 1.329-.638 1.894V18h6.077v-.22c0-.565-.043-1.32-.616-1.894-.56-.56-1.536-.969-2.423-.969zm4.432.088V18h2.344v-.352h-1.992v-2.29h5.879v2.29h-1.784V18h2.136v-2.995zM90.409 1.124q2.014.293 2.105 1.842v11.177q-.941-1.124-3.381-1.58l1.276-11.44zM89.842 0l-1.509 13.363q3.361.385 4.181 2.4V18h1.003V2.966q0-2.51-3.675-2.966zm13.476.56c1 0 2.252.514 2.858 1.12.53.53.6 1.232.619 1.885H99.87c.02-.653.089-1.356.619-1.886.606-.605 1.828-1.12 2.828-1.12zm0-.56c-1.186 0-2.463.548-3.211 1.296-.768.768-.855 1.778-.855 2.534v.295h8.132V3.83c0-.756-.057-1.766-.825-2.534C105.811.548 104.505 0 103.32 0zM97.43 5.987L95.517 8.25h.933l.98-1.17.99 1.17.962-1.17.99 1.17.98-1.17.99 1.17.981-1.17.99 1.17.962-1.17.99 1.17.99-1.17.961 1.17.99-1.17.98 1.17h.934l-1.914-2.263-.99 1.094-.962-1.094-.99 1.094-.99-1.094-.961 1.094-.99-1.094-.98 1.094-.99-1.094-.981 1.094-.99-1.094-.962 1.094-.99-1.094zm5.863 7.08c-.634.05-.985.367-1.051.952.083.634.434.968 1.051 1.001.618-.033.943-.367.977-1.001-.05-.585-.376-.902-.977-.952zm.075-2.103c.451 0 .868.083 1.252.25a3.301 3.301 0 0 1 1.703 1.69c.167.376.25.772.25 1.19 0 .434-.083.839-.25 1.214a3.187 3.187 0 0 1-2.955 1.89c-.45 0-.872-.079-1.264-.237a3.012 3.012 0 0 1-1.014-.664 3.254 3.254 0 0 1-.676-.989 2.956 2.956 0 0 1-.25-1.214c0-.418.083-.814.25-1.19.167-.375.392-.71.676-1.001a3.075 3.075 0 0 1 1.014-.689c.392-.167.814-.25 1.264-.25zm-.05-.852a3.88 3.88 0 0 0-1.552.313 3.87 3.87 0 0 0-1.252.852 4.21 4.21 0 0 0-.84 1.252 3.799 3.799 0 0 0-.312 1.54c0 .55.104 1.064.313 1.54.209.475.488.889.839 1.24A3.974 3.974 0 0 0 103.318 18c.551 0 1.064-.104 1.54-.313a4.173 4.173 0 0 0 1.252-.839c.36-.35.643-.764.852-1.24.208-.475.313-.988.313-1.54 0-.55-.105-1.064-.313-1.54a4.058 4.058 0 0 0-2.104-2.103 3.791 3.791 0 0 0-1.54-.313z"/></svg>