<svg xmlns="http://www.w3.org/2000/svg" width="101.911" height="18"><path d="M3.01.474c.693 0 1.247.2 1.634.479.006.053.02.107.009.16-.05.248-.195.477-.396.63-.316.207-.697.267-1.057.356-.09.01-.019.031.031.04.23.04.707.099.971.099l.052-.001c.278-.032.54-.148.766-.311.079-.067.147-.15.205-.236.147.346.227.713.26.917.018.11.096.2.202.233 1.139.349 2.038 1.91 2.88 2.949 1.729 2.137 3.199 4.526 4.892 6.76-.937-.456-1.87-.916-2.81-1.374-1.92-1.01-3.92-1.816-5.604-3.09l-.008-.008c-.97-.808-1.963-1.66-2.339-2.793-.148-.92 1.757-2.577 1.542-2.646a.207.207 0 0 0-.064-.01c-.458 0-1.753 1.128-2.019 2.202-.003-.014-.01-.03-.014-.045-.073-.356-.154-1.256.068-1.98a.29.29 0 0 0 .01-.103 1.968 1.968 0 0 0-.123-.634c-.063-.17-.139-.344-.26-.765-.031-.108-.142-.328-.208-.345.186-.138.375-.28.645-.375a.434.434 0 0 0-.132.314c0 .23.164.415.365.415.2 0 .364-.186.364-.415V.894a.411.411 0 0 0-.255-.39c.053-.007.096-.019.154-.022.081-.006.16-.008.238-.008zm.67 7.763c.065.065.135.124.202.187.214.78.412 1.64.692 2.305.483 1.145 1.216 2.141 1.84 3.154a1.814 1.814 0 0 0-.385.27 6.831 6.831 0 0 0-.199.193 2.61 2.61 0 0 0-1.186-.897c.045-.723-.108-1.712-.34-2.787a34.903 34.903 0 0 0-.624-2.425zm1.006.908c1.149.945 2.428 1.738 3.676 2.54-.018.91-.018 1.778.084 2.675a3.411 3.411 0 0 0-1.437-.736c-.02 0-.037.012-.057.012-.649-1.063-1.383-2.06-1.837-3.134-.156-.37-.293-.85-.429-1.357zm.407 5.254a2.5 2.5 0 0 1 .44.541.3.3 0 0 0 .257.14.29.29 0 0 0 .17-.053c.215-.156.347-.324.476-.446.047-.045.097-.08.148-.117l.149 2.722c-.213-.014-.435-.035-.637-.035-.264 0-.495.036-.633.172-.169-.134-.497-.164-.89-.164-.102 0-.207.002-.316.004l.836-2.764zM6.25 9.574c1.354.787 2.784 1.414 4.135 2.125a.244.244 0 0 0 .006.003c1.295.631 2.586 1.28 3.894 1.904.984 1.189 2.052 2.295 3.078 3.42l-2.15.362-4.267-4.635a.288.288 0 0 0-.037-.036c-1.499-1.137-3.152-2.082-4.66-3.143zM3.076 0c-.135 0-.273.005-.411.013C1.58.083.792.54.523 1.157c-.04.093-.146.314-.007.314a2.35 2.35 0 0 1 .341-.028c.418 0 .38.172.47.194.09.282.29.846.303 1.068-.244.86-.153 1.763-.064 2.198.15.732.63 1.584 1.261 2.38a.285.285 0 0 0 0 .166 35.3 35.3 0 0 1 .903 3.336c.251 1.168.393 2.277.317 2.823a.294.294 0 0 0 .221.328c.045.011.084.031.127.045l-.928 3.079a2.847 2.847 0 0 0-.593-.055c-.381 0-.756.05-1.064.05-.125 0-.24-.008-.34-.032a.546.546 0 0 0-.125-.012c-.436 0-1.428.306-1.34.879.15-.128.257-.159.375-.159.11 0 .23.027.405.027h.027c.254-.004.697-.083 1.053-.083.18 0 .338.02.438.08.236-.01.45-.013.649-.013.85 0 1.447.07 2.5.075a89.565 89.565 0 0 0 2.974-.079c.45.003.697.054.922.054h.04c.134-.004.265-.057.48-.057.123 0 .273.017.468.07-.25-.341-.877-.685-1.33-.685a.591.591 0 0 0-.302.071 5.081 5.081 0 0 0-.508-.022c-.22 0-.448.01-.678.02l-.157-2.83c.487.203.857.517 1.281 1.021a.295.295 0 0 0 .513-.246c-.192-1.039-.213-2.019-.202-3.06.54.354 1.072.713 1.576 1.094l4.36 4.738a.29.29 0 0 0 .263.09c.95-.159 1.9-.315 2.849-.474a.294.294 0 0 0 .23-.193.298.298 0 0 0-.06-.297c-.741-.83-1.508-1.631-2.25-2.445 1.269.78 2.875 1.755 3.08 1.755.022 0 .027-.013.012-.04-.094-.163-.9-.755-1.775-1.373.14.058.276.12.415.177l.017.01c.103.035.16.059.27.062a.286.286 0 0 0 .108-.016.317.317 0 0 0 .188-.152.32.32 0 0 0 .023-.238c-.017-.05-.038-.077-.054-.098-.061-.085-.103-.109-.162-.154a4.553 4.553 0 0 0-.205-.149c-.153-.105-.336-.223-.493-.328a4.992 4.992 0 0 1-.328-.233.307.307 0 0 0-.028-.025l-3.892-2.736c-.008-.006-.02-.001-.028-.006-1.333-1.869-2.588-3.825-4.046-5.627-.744-.92-1.598-2.528-2.985-3.064-.067-.396-.218-1.127-.755-1.649C4.827.26 4.168.056 3.427.011A5.728 5.728 0 0 0 3.076 0zm13.74 2.229c-.478 0-.799.277-.793.718.007.478.328.755.793.755.466 0 .744-.278.737-.755-.006-.442-.283-.718-.737-.718zm.055-1.594c.315 0 .63.066.946.196.606.25 1.015.685 1.285 1.275.274.601.255 1.21 0 1.813-.255.6-.69.995-1.285 1.247a2.343 2.343 0 0 1-.923.189 2.74 2.74 0 0 1-.975-.19c-.603-.229-1.003-.672-1.274-1.246a2.13 2.13 0 0 1-.19-.916c0-.634.277-1.196.7-1.652.208-.226.467-.398.764-.52.32-.13.636-.196.951-.196zM16.796 0c-.833 0-1.488.289-2.076.878-.602.603-.857 1.26-.869 2.106-.006.49.093.921.292 1.313.158.773.167 2.065-.043 2.065-.366 0-.156-.97-.174-1.274-.03-.515-.335-.954-.696-1.302-.084-.08-.175-.17-.296-.183a3.318 3.318 0 0 0-.349-.023c-.136 0-.27.015-.396.06-.089.033-.092.16-.063.242.03.085.088.175.186.187.025.003.05.004.074.004.12 0 .24-.03.36-.03h.015c.05 0 .107.004.143.04-.081.152-.193.3-.21.478a.465.465 0 0 0 .016.208c.236.652.38 2.15 1.357 2.15.185 0 .274-.04.333-.094.434-.403.44-1.086.414-1.652.574.54 1.221.765 2.021.776h.047c.819 0 1.472-.303 2.06-.868.159-.154.294-.311.406-.476.027.56.054 1.124.26 1.65.161.415.522.717.91.922.03.016.051.023.066.023.048 0 .019-.074-.036-.127a2.354 2.354 0 0 1-.574-.87c-.208-.57-.187-1.184-.174-1.78.008-.364.024-.73.003-1.093H19.8c.012-.112.018-.227.02-.346.01-.853-.287-1.503-.879-2.106-.6-.61-1.255-.869-2.106-.878h-.039zm8.248 3.383q-.542 0-.628.418v.025q.062.11.259.11.566-.245.566-.455v-.024q0-.05-.197-.074zm1.97-.763q-.086.48-.85 1.034l.272.11.369-.135.185.123q1.415.677 3.755.714l3.669.037.05-.001q.626 0 .608.919-.018.954-.646 1.914-.394 0-.8-.302-.406-.301-.665-.708-.259-.406-.665-1.058.123 1.292.739 2.031-.751 0-1.336.142-.292.07-.488.07-.195 0-.294-.07-.122-.088-.609-.088-.296 0-.727.032-.332.025-.607.025-.668 0-1-.148-.307-.258-.387-.905-.08-.646.363-1.791-.911.652-.911 1.982v.443q-.456-.468-.714-1.034Q25.82 4.7 24.945 4.7q-.332 0-1.28.419-.32-.136-.258-.431l.615-.825q.444-.751.64-.837.1-.185.96-.185.37.099.37.271 0 .234-.246.468.468-.099.677-.554 0-.111.591-.406zm.53-2.62q-.06 0-.136.096-.936 1.49-1.699 2.068-.295.259-.8.27-.246 0-.751-.369-.751-.726-1.047-1.23-.332-.592-.43-.653-.05 0-.075.123 0 .702 1.429 2.598-.271.394-.505.898-.234.505-.554.77-.32.265.061.523 0 .32.53.517.43-.123 1.317-.381.53 0 .727.443.652.985.652 2.056.074 1.428-.985 2.733-.332.222-.332.616 0 .16.406.16.665 0 .665-.16l-.05-.332q0-.173.26-.259v-.025q0-.234.836-2.351.382 0 .604.37.283.935.283 1.55 0 .136-.172.58-.21.16-.259.578h.985l-.074-.308q-.05-.185.136-.32l-.087-.456q-.16-1.736-.16-2.043v-.025q.973-.234 1.496-.234t.807.19q.112.077.315.077.308 0 .824-.175.558-.189.857-.189.159 0 .244.054.247.154.247.523 0 1.354-.69 2.302-.221.222-.332.616h.85q.221-.074.098-.37.024-.32.295-.406 0-1.12.985-2.216.69.382.702 1.182 0 .308-.123.837l-.148.407q-.135.16-.246.603h.813q.147-.062.184-.135l-.123-.394q-.061-.173.173-.308-.124-.653.16-.985-.58-1.354-.58-2.13.309-1.268.395-2.376.148.775.037 1.859-.111 1.083.37 2.24.093.196.17.196.054 0 .1-.097.123-.702.05-3.878-.1-.394-.21-.604-.394-.603-.677-.628h-3.977q-2.943 0-4.359-.837.234-.418.259-.572.025-.154 0-.376-.59.173-.886.456l-.247-.185q.259-.16.825-1.034.567-.874.665-1.367Q27.6 0 27.545 0zm6.526 13.464c.65.028 1.006.042 1.16.042h.07l-.084 3.397a4.983 4.983 0 0 1-1.293-.769l.147-2.67zm-9.477-.845c-.217.042-.503.174-.468.433v1.894a36.22 36.22 0 0 0-.979-.042c0 .238.196.56.804.56.007.537.105 1.194.203 1.53l.084.88c0 .098.167.126.349.126.217 0 .454-.042.454-.042l-.035-.88c3.453.027 10.036.202 10.365.202.167 0 .28-.182.28-.433l.083-3.795-2.076-.021-.167 2.956c-1.503.007-4.103.252-5.87.252-.56 0-1.042-.021-1.37-.091-.07-.077-.72-1.02-1.133-1.125a1.813 1.813 0 0 0-.244-.028c-.07-.573-.14-1.146-.203-1.712.126-.161.412-.12.49-.336.076-.105.027-.28-.12-.286-.084-.035-.314-.042-.412-.042zM40.018 0c-.93 0-1.745.684-1.745 1.562V18h1.136V1.562c0-.43.378-.57.616-.57.25 0 .634.175.634.703v10.804h1.136V1.695c0-.88-.87-1.695-1.777-1.695zM50.82.655q.87 0 1.589.434 1.461.848 2.769.848 1.316 0 2.414-.113v2.26q-1.365-.242-1.97-.242h-.016q-.493 0-1.373.113-3.576.493-4.456.493-1.461 0-2.753-.049-2.212-.129-2.43-.234-.21-.097-.21-.557 0-.452.122-.791.12-.34.403-.484 6.91-.307 7.451-.356-.481-.694-1.492-.694-.328 0-.711.073-1.288.253-1.985.253-.147 0-.268-.011-.686-.065-.638-.654.386.052.796.052.863 0 1.836-.23.48-.11.921-.11zM51.024 0q-.35 0-.69.088-1.381.364-2.43.38-.26 0-.93-.13-.314.291-.314.687 0 .395.25.67-2.64.097-2.64.315-.476.605-.476 1.453 0 .84.444 1.146 1.34.428 5.385.428.646 0 1.316-.065 3.745-.557 4.464-.573h.07q.739 0 2.707.307V1.138l-.016.016q-1.687.194-2.753.218l-.11.002q-1.014 0-2.086-.567Q52.082 0 51.025 0zm-6.092 7.837q.177 0 .404.039 2.923.221 5.935.73l-.642 2.016q-2.724-.687-5.514-1.727-.908-.31-.797-.71.083-.348.614-.348zm.085-.593q-.989 0-1.186.81-.222.863.908 1.306 2.945 1.085 5.845 1.837.173.06.288.06.181 0 .222-.148l.841-2.569q.089-.354-.332-.465-3.3-.531-6.333-.82-.132-.011-.253-.011zm10.738.981L53.98 6.433l-.642.573 1.81 1.822-1.821 1.811.604.608 1.822-1.811 1.81 1.822.608-.604-1.777-1.897 1.788-1.736-.604-.607-1.822 1.81zm-.15 5.252c.648.028 1.003.042 1.156.042h.07l-.084 3.387a4.969 4.969 0 0 1-1.289-.767l.147-2.662zm-9.45-.843c-.216.042-.501.175-.466.432v1.889c-.419-.021-.85-.042-.976-.042 0 .237.195.557.801.557.007.537.105 1.192.202 1.527l.084.878c0 .097.167.125.348.125.217 0 .453-.042.453-.042l-.034-.878c3.442.028 10.006.202 10.334.202.167 0 .279-.18.279-.432l.083-3.784-2.07-.02-.167 2.947c-1.498.007-4.09.251-5.853.251-.558 0-1.039-.021-1.366-.09-.07-.077-.718-1.018-1.129-1.123a1.807 1.807 0 0 0-.244-.027c-.07-.572-.14-1.143-.202-1.708.126-.16.411-.118.488-.334.077-.105.028-.279-.119-.286-.083-.035-.313-.042-.41-.042zM62.378 1.291q.034 0 .074.007.292.047.538.273.378.435.397.907-.473-.019-.926-.397-.227-.226-.264-.528-.033-.262.181-.262zm14.211 0q.22 0 .18.262-.048.302-.274.528-.453.378-.907.397 0-.472.397-.907.227-.226.529-.273.04-.007.075-.007zM62.265.93q-.464 0-.437.482.029.5.406.897.567.51 1.493.529 0-.944-.51-1.511Q62.8.948 62.3.929h-.035zm14.426 0h-.036q-.5.02-.916.397-.49.567-.51 1.511.945-.019 1.492-.529.378-.397.407-.897.027-.482-.437-.482zM62.256.549q.04 0 .082.003.463.018 1.124.528.529.567.661 1.2t.151 1.105q-.453-.02-1.095-.16-.642-.142-1.19-.671-.529-.661-.548-1.124-.019-.463.189-.708.223-.172.626-.172zm14.463 0q.403 0 .626.173.189.245.17.708-.02.463-.548 1.124-.548.529-1.18.67-.633.142-1.105.16.018-.471.16-1.104.142-.633.652-1.2.68-.51 1.142-.528L76.72.55zm-2.925 3.044V4.99H65.18V3.593zm-9.369.377q-2.115 1.55-2.512 3.665-.191.43-.49.43-.055 0-.114-.015-.378-.075-.095-1.114 1.19-2.55 3.211-2.966zm10.105 0q2.022.416 3.23 2.966.265 1.039-.094 1.114-.062.015-.12.015-.312 0-.503-.43-.397-2.116-2.513-3.665zm-10.126.899q.175 0 .342.102-2.172 1.832-2.096 6.101-.283.198-.505.198-.222 0-.383-.198.132-2.569 1.143-4.59.807-1.613 1.5-1.613zm10.154 0q.703 0 1.502 1.613 1.001 2.021 1.134 4.59-.16.198-.383.198-.222 0-.505-.198.076-4.269-2.097-6.1.172-.103.349-.103zM62.208 0q-.457 0-.956.363-.378.547-.293 1.133.085.585.378 1.001.293.416.803.737.51.32 1.322.547-2.909 1.587-2.984 4.42.283.472.701.472.168 0 .357-.075-.227 1.454-.227 2.965.352.289.803.289.493 0 1.105-.345-.02-4.288 1.51-5.761h9.52q1.53 1.473 1.492 5.76.612.346 1.11.346.456 0 .817-.289 0-1.51-.246-2.965.19.075.358.075.422 0 .719-.472-.094-2.833-3.003-4.42.812-.226 1.322-.547.51-.321.812-.737.302-.416.378-1.001.075-.586-.302-1.133Q77.22 0 76.767 0q-.113 0-.225.023-.557.113-.982.406-.425.293-.765.774-.34.482-.548 1.634H64.71q-.208-1.152-.548-1.634-.34-.481-.756-.774-.415-.293-.972-.406Q62.32 0 62.207 0zm2.148 14.34c1.027 0 2.313.527 2.935 1.149.544.544.615 1.266.635 1.936h-7.11c.02-.67.091-1.392.636-1.936.622-.622 1.877-1.15 2.904-1.15zm0-.576c-1.218 0-2.53.563-3.298 1.332-.788.788-.877 1.825-.877 2.601V18h8.35v-.303c0-.776-.059-1.813-.847-2.601-.768-.769-2.11-1.332-3.328-1.332zm10.263.576c1.027 0 2.312.527 2.934 1.149.545.544.616 1.266.636 1.936h-7.11c.02-.67.091-1.392.635-1.936.622-.622 1.878-1.15 2.905-1.15zm0-.576c-1.219 0-2.53.563-3.298 1.332-.788.788-.877 1.825-.877 2.601V18h8.35v-.303c0-.776-.06-1.813-.847-2.601-.769-.769-2.11-1.332-3.328-1.332zM84.208.832q-.47 0-.565.283.188.377.603.377.415-.076.415-.377 0-.283-.453-.283zm-2.313 1.15q.212 0 .41.17h-.848q.226-.17.438-.17zm1.187.056q.212 0 .372.113h-.848q.264-.113.476-.113zm.278-.942q.151.528.556.933.213.212.171.212-.037 0-.284-.175-.32-.227-.717-.227-.244 0-.517.086-.337-.208-.694-.208-.323 0-.663.17 0-.245.179-.461.179-.217 1.97-.33zm2.394 9.912q1.243 1.225 1.714 2.714l-.32.735-.509-.377-.377.679-.508-3.75zm-.03-5.215q.113 0 .246.024.782.14 1.988.14 2.676 1.923 3.93 3.44 1.253 1.517 2.723 3.722 1.206 1.093 2.666 2.045 1.46.951 1.555 1.536-1.715-1.112-3.213-2.054-1.498-.943-3.128-1.565-1.63-.621-3.28-1.535-1.648-.914-2.949-2.705-1.3-1.79-1.187-2.478.094-.57.648-.57zm2.008 8.476v2.205q-.266.443-.65.443-.268 0-.593-.217.188-1.659.32-2.017l.509.584.414-.998zM84.675.572q1.968 0 1.804 1.636-.179 1.79 1.065 3.26-.961-.094-1.979-.226-.132-.017-.25-.017-.787 0-.918.77-.151.886.885 2.479 1.037 1.592 2.168 2.61 1.13 1.017 3.646 2.016 2.516.999 3.345 1.47.83.471 1.32 1.093.49.622 1.45 1.734-.39.065-.752.065-1.83 0-2.97-1.667-1.366-1.997-4.268-3.222.226 1.225.075 1.94l-1.093-.508q-.791-2.28-2.563-3.939-2.43-3.053-2.393-4.513.038-1.46 1.074-3.232-1.187-1.093-.697-1.414.49-.32.66-.32.205-.015.391-.015zM84.843 0q-.264 0-.56.022-.433 0-.923.527-2.035.227-2.337.632-.301.405-.207 1.686.301-.502.799-.502.156 0 .332.05.425.12.927.12.364 0 .769-.063-1.508 2.808-.67 4.654.84 1.847 2.159 3.185l.565 3.958q-.057 1.846-.471 2.638-.386-.158-.72-.158-.302 0-.562.13-.317.158-.51.158-.14 0-.215-.083-.145-.16-.406-.16-.062 0-.131.01-.358.046-.594.291-.235.245.104.886h7.915l.584.019q.207-.302.132-.565-.064-.497-.753-.497-.123 0-.265.016-.24.027-.431.027-.554 0-.68-.225v-2.073l1.017.66q.245-1.15.17-1.677 1.601.546 2.855 2.11 1.253 1.564 1.856 1.885.603.32 1.338.32h2.544l-1.922-2.186 2.732 1.753q.434-1.338-1.3-2.478-1.734-1.14-2.996-2.403-.98-1.64-2.44-3.392-1.461-1.753-3.506-3.487-2.045-1.733-1.866-3.863Q87.338 0 84.843 0zm7.779 0v3.736h.624V0zm4.293.005v3.731h.625V.006zm4.371 0v3.731h.625V.006z"/></svg>