<svg xmlns="http://www.w3.org/2000/svg" width="71.707" height="18"><path d="M14.812 2.68q.387 0 .717.308.33.308.33.724 0 .387-.28.71-.28.322-.767.322-.458 0-.76-.337-.3-.337-.3-.695 0-.387.3-.71.302-.322.76-.322zm-1.275 2.91q-.086 0-.1.1 0 .085.1.085.086 0 .1-.086-.014-.1-.1-.1zm0-.044q.143 0 .143.143 0 .115-.143.158-.086-.014-.172-.086.043-.215.172-.215zm.37-.154q-.106 0-.227.01.13.073.058.187-.072-.114-.201-.114-.244 0-.244.3.144.1.13.187-.015.086-.044.114.1.1.187.516.057 0 .071-.043-.014-.444.029-.587.129-.258.358-.265h.02q.215 0 .346.15.136.158.093.358-.043.201-.617.445v.028q.889-.229.81-.795-.068-.491-.768-.491zm.39-.147q.558 0 .63.688.072.688-1.118.917.2.086.33.316.129.229.143.473-.06.018-.115.018-.117 0-.215-.083-.143-.122-.343-.609-.306-.832-.731-.832h-.158q.018-.108.082-.108.037 0 .09.037.033-.065.126-.065.07 0 .175.036-.2-.215-.2-.43l.024.002q.095 0 .133-.102.007.005.02.005.07 0 .302-.12.28-.143.824-.143zM9.031 6.423q.083 0 .184.048.322.15.222 1.24-.817-.732-.68-1.061.093-.227.274-.227zm4.755 1.488q.087 0 .194.071-.372.258-.344 1.305h-.186q-.014-.99.129-1.233.084-.143.207-.143zm1.326-2.551q.502.014 1.104 1.01.602.996.602 2.917h-.43q-.015-1.52-1.319-1.52v1.52h-.286V7.15q.817-.616.33-1.791zm-.69 2.758q.036 0 .074.008v1.476h.889V8.126q.03-.006.06-.006.456 0 .456 1.482-.158 3.912-.545 4.916l.33.716h-4.744l.989-.43q-.487-2.135-1.09-3.146-.601-1.01-.272-1.24.083-.057.171-.057.266 0 .589.516l1.978 2.666h.501l.115-3.941q0-1.484.499-1.484zm.39-5.868q-.674.014-1.083.466-.408.451-.408 1.01 0 .473.215.745.172.287.415.445l-.032-.001q-.231 0-.512.187-.315.215-.287.287-.04-.033-.086-.033-.035 0-.071.018-.086.043-.072.172-.416.143-.416.889.184-.092.266-.092.021 0 .035.006.287 0 .774 1.146-.1.086-.272.33-.172.243-.172.845v.932h.358q-.014.788-.1 3.21l-1.992-2.723q-.416-.341-.657-.341-.083 0-.146.04L9.81 8.27q.531-.258 1.162-.3-.03-.388-.273-.689-.516.387-1.003.588.315-1.448-.337-1.734-.197-.087-.362-.087-.379 0-.584.46-.293.659.925 1.49-.545.258-1.118.258.014.401.287.716.387-.4 1.017-.602l.502 1.749q-.158.057-.2.358-.044.301.537 1.376.58 1.075.938 2.637l-1.046.587.072.674h6.133l-.501-1.232q.43-1.892.444-4.902l.788-.014q0-2.537-.702-3.633-.628-.981-.958-.981-.039 0-.074.014.817-.43.86-1.29 0-.616-.451-1.032-.452-.416-1.054-.43zm8.564 0l-.014.001a15.506 15.506 0 0 1-1.122.037c-.08.005-.087.107-.06.165.169.474.314.956.45 1.44h-.019c-.135.003-.272 0-.404.013l-.007.01c-.008-.03-.029-.058-.06-.065a28.706 28.706 0 0 1-1.275-.923c-.01-.002-.021-.005-.032-.005h-.007c-.042.026-.057.084-.08.127-.074.197-.135.399-.216.593-.059.148-.123.294-.167.446.02.042.056.055.096.055a.42.42 0 0 0 .114-.022c.515-.11 1.045-.1 1.57-.107-.053.115-.075.243-.122.36-.022.066-.047.134-.061.202a.092.092 0 0 0-.013 0l-.016.001c-.64.248-1.265.552-1.811.97a6.77 6.77 0 0 0-.75.652c-.004.096.104.127.176.154l.442.182c-.075.103-.094.236-.141.353-.248.726-.597 1.413-.888 2.122.001.058.055.087.108.087.02 0 .04-.004.056-.012a1.88 1.88 0 0 1 .309-.03c-.022.08-.03.165-.066.24-.174.555-.46 1.065-.675 1.604-.01.058.045.095.098.095a.1.1 0 0 0 .044-.01 6.45 6.45 0 0 1 .796-.092c-.03.074-.036.157-.059.234-.13.545-.317 1.082-.34 1.646-.005.367.04.733.098 1.095.1.595.28 1.174.512 1.73.002.051.049.083.094.083a.081.081 0 0 0 .073-.04c.033-.075.044-.16.07-.238.133-.481.229-.974.271-1.472.042-.43.059-.863.056-1.295-.018-.505-.138-.999-.216-1.497-.014-.075-.024-.152-.043-.226a7.034 7.034 0 0 1 .764.127c.081 0 .099-.107.063-.164-.217-.567-.438-1.134-.62-1.714l.026.005c.22.04.44.091.663.104.07-.058.02-.152-.014-.216-.268-.582-.488-1.193-.576-1.83-.028-.173-.027-.35-.057-.523.19.077.379.154.569.228.083-.02.087-.121.07-.19a2.105 2.105 0 0 1 .267-1.198c.178-.318.436-.58.698-.828.104.09.225.156.343.227l-.06.015c-.215.418-.397.852-.591 1.28-.025.06-.054.12-.062.184.032.052.086.063.142.063.036 0 .072-.004.104-.004h.006l.24-.006c-.027.083-.034.176-.061.259-.155.639-.308 1.279-.461 1.919.019.068.087.082.15.082a.648.648 0 0 0 .055-.003l.397-.014c-.036.105-.053.218-.088.323-.172.628-.347 1.257-.514 1.886.018.07.088.085.154.085a677.2 677.2 0 0 1 .691-.021.867.867 0 0 0-.024.103c-.133.577-.336 1.144-.366 1.74a6.87 6.87 0 0 0 .2 1.602c.103.423.247.836.41 1.239.007.046.052.077.094.077.025 0 .05-.01.065-.035.035-.062.042-.137.066-.205.18-.619.282-1.259.315-1.902.021-.343.033-.687.018-1.03-.036-.492-.147-.974-.226-1.46-.009-.048-.016-.097-.03-.145.222-.007.444-.014.665-.023.078-.06.035-.167.013-.245-.188-.674-.375-1.349-.567-2.021.184-.007.37-.014.554-.023.077-.06.034-.166.01-.243l-.584-1.969.596-.016c.075-.05.038-.15.003-.214-.177-.4-.35-.801-.533-1.199.131-.054.262-.11.39-.171.354.33.662.728.804 1.196.081.278.087.573.059.86.015.044.053.061.095.061a.2.2 0 0 0 .1-.03l.443-.182-.003.004a5.206 5.206 0 0 1-.348 1.696c-.097.265-.22.52-.326.78-.006.057.047.091.099.091a.102.102 0 0 0 .05-.013c.196-.029.39-.067.585-.105-.04.108-.066.221-.11.327-.166.486-.353.965-.534 1.445-.013.057.038.107.09.107a.08.08 0 0 0 .042-.011 5.81 5.81 0 0 1 .717-.116.57.57 0 0 0-.013.066c-.08.447-.167.892-.223 1.342a4.98 4.98 0 0 0-.017.846c.025.713.097 1.429.288 2.118.032.117.063.236.101.351.015.03.045.044.076.044.037 0 .075-.021.084-.062a7.92 7.92 0 0 0 .565-2.05c.05-.41.083-.828.004-1.236-.079-.434-.208-.857-.31-1.285-.018-.05-.026-.104-.043-.153.123.003.246.011.37.027.17.018.34.054.51.069.074-.02.067-.116.032-.166-.24-.577-.552-1.13-.705-1.738l-.008-.032c.029 0 .058 0 .087.002.109.008.217.03.326.039.076-.034.058-.134.022-.192-.318-.723-.663-1.437-.909-2.19-.023-.058-.04-.124-.073-.176l-.006-.003c.199-.083.398-.166.595-.252.047-.08-.032-.156-.09-.201-.506-.462-1.063-.874-1.683-1.171a6.493 6.493 0 0 0-.716-.3c-.018-.055-.043-.11-.056-.163-.064-.181-.117-.368-.197-.542a.252.252 0 0 0 .052.004l.06-.001h.153c.46 0 .921.015 1.37.118.013.006.03.009.046.009.045 0 .093-.023.084-.074-.087-.273-.21-.534-.3-.807-.04-.112-.079-.225-.129-.332a.113.113 0 0 0-.06-.008c-.42.308-.834.628-1.27.916-.046.023-.105.07-.072.127v.001a.848.848 0 0 0-.158-.012l-.16.002a1.243 1.243 0 0 1-.068-.001H22.8a.077.077 0 0 0 .004-.029c.17-.508.34-1.022.631-1.476.036-.046.01-.127-.046-.137a.065.065 0 0 0-.012-.001zm10.779 0a1.31 1.31 0 0 0-.313.039c-.21.051-.437.168-.683.35h-4.935V3.73h4.935c.246.182.473.299.683.35a1.31 1.31 0 0 0 .623 0 1.49 1.49 0 0 0 .616-.35h.19c.198.182.402.299.611.35a1.316 1.316 0 0 0 .63 0c.209-.051.432-.168.67-.35h4.982V2.64h-4.983c-.237-.182-.46-.299-.67-.35a1.316 1.316 0 0 0-.629 0 1.39 1.39 0 0 0-.61.35h-.19a1.492 1.492 0 0 0-.617-.35 1.274 1.274 0 0 0-.31-.039zm0 11.631a1.31 1.31 0 0 0-.313.039c-.21.051-.437.168-.683.35h-4.935v1.091h4.935c.246.182.473.299.683.35a1.31 1.31 0 0 0 .623 0 1.49 1.49 0 0 0 .616-.35h.19c.198.182.402.299.611.35a1.316 1.316 0 0 0 .63 0c.209-.051.432-.168.67-.35h4.982V14.27h-4.983c-.237-.182-.46-.299-.67-.35a1.316 1.316 0 0 0-.629 0 1.39 1.39 0 0 0-.61.35h-.19a1.492 1.492 0 0 0-.617-.35 1.274 1.274 0 0 0-.31-.039zM45.322 3.1q.367 0 .966.2 1.028.342 2.13 1.43 1.1 1.09.88 2.02-.22.93-.856 1.395-.526.384-1.268.384-.157 0-.323-.017-.954-.098-1.64-1.505-.685-1.407-.636-2.509.05-1.1.343-1.297.143-.102.404-.102zm-.1-.85q-.504 0-.818.217-.66.465-.734 1.91-.074 1.443.832 3.132.905 1.688 2.202 1.847.248.03.483.03.992 0 1.744-.544.93-.673 1.163-1.909.232-1.235-.991-2.618-1.224-1.383-2.643-1.836-.72-.229-1.238-.229zm1.257 8.502v4.998h.836v-4.998zm10.043-7.819v4.845h-3.25V2.933zm-3.918-.683v6.196h4.601V2.25zm2.3 10.629c.806 0 1.814.414 2.302.902.427.426.483.992.498 1.518h-5.576c.016-.526.072-1.092.498-1.518.488-.488 1.473-.902 2.278-.902zm0-.451c-.955 0-1.983.441-2.586 1.044-.618.618-.688 1.432-.688 2.04v.238h6.549v-.237c0-.61-.046-1.423-.665-2.04-.602-.604-1.654-1.045-2.61-1.045zm6.656-9.656q.696 0 .696.917 0 .806-.696 1.596-.696-.79-.696-1.596 0-.917.696-.917zm0 3.525q.49 0 .49 1.059 0 .6-.49 1.107-.49-.506-.49-1.107 0-1.06.49-1.06zm0 3.193q.49 0 .49 1.06 0 .6-.49 1.106-.49-.506-.49-1.107 0-1.059.49-1.059zm0-7.24q-1.265 0-1.265 1.439-.015.9.42 1.414.434.514.387.688-.554.648-.554 1.565 0 .759.648 1.628-.648.648-.648 1.565 0 .759.648 1.613.08.205-.442.964t-1.075 2.624h.695q.348-1.233.617-1.763.269-.53.569-.861.316.332.577.861.26.53.609 1.763h.711q-.522-1.865-1.067-2.624-.545-.759-.45-.964.632-.854.632-1.613 0-.917-.601-1.565.6-.87.6-1.628 0-.917-.537-1.565-.047-.174.38-.688.426-.513.426-1.414 0-1.439-1.28-1.439z"/><path d="M8.22.375c-9.625 0-9.625 17.25 0 17.25m0-17.25h55.237M8.22 17.625h55.237M71.144.375v17.25M63.457.375c9.625 0 9.625 17.25 0 17.25" fill="none" stroke="#000"/></svg>