<svg xmlns="http://www.w3.org/2000/svg" width="74.824" height="18"><path d="M3.73.474c.693 0 1.247.2 1.634.479.006.053.02.107.009.16-.05.248-.195.477-.396.63-.316.207-.697.267-1.057.356-.09.01-.019.031.031.04.23.04.707.099.971.099l.052-.001c.278-.032.54-.148.766-.311.079-.067.147-.15.205-.236.147.346.227.713.26.917.018.11.096.2.202.233 1.139.349 2.038 1.91 2.88 2.949 1.729 2.137 3.199 4.526 4.892 6.76-.937-.456-1.87-.916-2.81-1.374-1.92-1.01-3.92-1.816-5.604-3.09l-.008-.008c-.97-.808-1.963-1.66-2.339-2.793-.148-.92 1.757-2.577 1.542-2.646a.207.207 0 0 0-.064-.01c-.458 0-1.753 1.128-2.019 2.202-.003-.014-.01-.03-.014-.045-.073-.356-.154-1.256.068-1.98a.29.29 0 0 0 .01-.103 1.968 1.968 0 0 0-.123-.634c-.063-.17-.139-.344-.26-.765-.031-.108-.142-.328-.208-.345.186-.138.375-.28.645-.375a.434.434 0 0 0-.132.314c0 .23.164.415.365.415.2 0 .364-.186.364-.415V.894a.411.411 0 0 0-.255-.39c.053-.007.096-.019.154-.022.081-.006.16-.008.238-.008zm.67 7.763c.065.065.135.124.202.187.214.78.412 1.64.692 2.305.483 1.145 1.216 2.141 1.84 3.154a1.814 1.814 0 0 0-.385.27 6.831 6.831 0 0 0-.199.193 2.61 2.61 0 0 0-1.186-.897c.045-.723-.108-1.712-.34-2.787A34.903 34.903 0 0 0 4.4 8.237zm1.006.908c1.149.945 2.428 1.738 3.676 2.54-.018.91-.018 1.778.084 2.675a3.411 3.411 0 0 0-1.437-.736c-.02 0-.037.012-.057.012-.649-1.063-1.383-2.06-1.837-3.134-.156-.37-.293-.85-.429-1.357zm.407 5.254a2.5 2.5 0 0 1 .44.541.3.3 0 0 0 .257.14.29.29 0 0 0 .17-.053c.215-.156.347-.324.476-.446.047-.045.097-.08.148-.117l.149 2.722c-.213-.014-.435-.035-.637-.035-.264 0-.495.036-.633.172-.169-.134-.497-.164-.89-.164-.102 0-.207.002-.316.004l.836-2.764zM6.97 9.574c1.354.787 2.784 1.414 4.135 2.125a.244.244 0 0 0 .006.003c1.295.631 2.586 1.28 3.894 1.904.984 1.189 2.052 2.295 3.078 3.42l-2.15.362-4.267-4.635a.288.288 0 0 0-.037-.036c-1.499-1.137-3.152-2.082-4.66-3.143zM3.796 0c-.135 0-.273.005-.411.013C2.3.083 1.512.54 1.243 1.157c-.04.093-.146.314-.007.314a2.35 2.35 0 0 1 .341-.028c.418 0 .38.172.47.194.09.282.29.846.303 1.068-.244.86-.153 1.763-.064 2.198.15.732.63 1.584 1.261 2.38a.285.285 0 0 0 0 .166 35.3 35.3 0 0 1 .903 3.336c.251 1.168.393 2.277.317 2.823a.294.294 0 0 0 .221.328c.045.011.084.031.127.045l-.928 3.079a2.847 2.847 0 0 0-.593-.055c-.381 0-.756.05-1.064.05-.125 0-.24-.008-.34-.032a.546.546 0 0 0-.125-.012c-.436 0-1.428.306-1.34.879.15-.128.257-.159.375-.159.11 0 .23.027.405.027h.027c.254-.004.697-.083 1.053-.083.18 0 .338.02.438.08.236-.01.45-.013.649-.013.85 0 1.447.07 2.5.075a89.565 89.565 0 0 0 2.974-.079c.45.003.697.054.922.054h.04c.134-.004.265-.057.48-.057.123 0 .273.017.468.07-.25-.341-.877-.685-1.33-.685a.591.591 0 0 0-.302.071 5.081 5.081 0 0 0-.508-.022c-.22 0-.448.01-.678.02l-.157-2.83c.487.203.857.517 1.281 1.021a.295.295 0 0 0 .513-.246c-.192-1.039-.213-2.019-.202-3.06.54.354 1.072.713 1.576 1.094l4.36 4.738a.29.29 0 0 0 .263.09c.95-.159 1.9-.315 2.849-.474a.294.294 0 0 0 .23-.193.298.298 0 0 0-.06-.297c-.741-.83-1.508-1.631-2.25-2.445 1.269.78 2.875 1.755 3.08 1.755.022 0 .027-.013.012-.04-.094-.163-.9-.755-1.775-1.373.14.058.276.12.415.177l.017.01c.103.035.16.059.27.062a.286.286 0 0 0 .108-.016.317.317 0 0 0 .188-.152.32.32 0 0 0 .023-.238c-.017-.05-.038-.077-.054-.098-.061-.085-.103-.109-.162-.154a4.553 4.553 0 0 0-.205-.149c-.153-.105-.336-.223-.493-.328a4.992 4.992 0 0 1-.328-.233.307.307 0 0 0-.028-.025l-3.892-2.736c-.008-.006-.02-.001-.028-.006-1.333-1.869-2.588-3.825-4.046-5.627C9 4.496 8.145 2.888 6.758 2.352 6.69 1.956 6.54 1.225 6.003.703 5.547.26 4.888.056 4.147.011A5.728 5.728 0 0 0 3.796 0zm20.383 3.383q-.542 0-.628.418v.025q.061.11.258.11.567-.245.567-.455v-.024q0-.05-.197-.074zm1.97-.763q-.086.48-.85 1.034l.271.11.37-.135.184.123q1.416.677 3.755.714l3.67.037.049-.001q.627 0 .61.919-.02.954-.647 1.914-.394 0-.8-.302-.407-.301-.665-.708-.259-.406-.665-1.058.123 1.292.738 2.031-.75 0-1.335.142-.293.07-.488.07-.196 0-.294-.07-.123-.088-.61-.088-.295 0-.726.032-.332.025-.607.025-.668 0-1-.148-.308-.258-.388-.905-.08-.646.363-1.791-.91.652-.91 1.982v.443q-.456-.468-.715-1.034Q24.954 4.7 24.08 4.7q-.332 0-1.28.419-.32-.136-.259-.431l.616-.825q.443-.751.64-.837.099-.185.96-.185.37.099.37.271 0 .234-.246.468.467-.099.677-.554 0-.111.59-.406zm.53-2.62q-.06 0-.136.096-.936 1.49-1.7 2.068-.295.259-.8.27-.246 0-.75-.369-.752-.726-1.047-1.23-.333-.592-.431-.653-.05 0-.074.123 0 .702 1.428 2.598-.27.394-.505.898-.234.505-.554.77-.32.265.062.523 0 .32.53.517.43-.123 1.317-.381.53 0 .726.443.653.985.653 2.056.074 1.428-.985 2.733-.333.222-.333.616 0 .16.407.16.664 0 .664-.16l-.049-.332q0-.173.259-.259v-.025q0-.234.837-2.351.382 0 .603.37.283.935.283 1.55 0 .136-.172.58-.21.16-.258.578h.985l-.074-.308q-.05-.185.135-.32l-.086-.456q-.16-1.736-.16-2.043v-.025q.973-.234 1.496-.234t.806.19q.113.077.316.077.307 0 .823-.175.559-.189.858-.189.159 0 .244.054.246.154.246.523 0 1.354-.69 2.302-.22.222-.332.616h.85q.222-.074.098-.37.025-.32.296-.406 0-1.12.985-2.216.69.382.702 1.182 0 .308-.123.837l-.148.407q-.136.16-.246.603h.812q.148-.062.185-.135l-.123-.394q-.062-.173.172-.308-.123-.653.16-.985-.579-1.354-.579-2.13.308-1.268.394-2.376.148.775.037 1.859-.11 1.083.37 2.24.094.196.17.196.055 0 .1-.097.124-.702.05-3.878-.099-.394-.21-.604-.393-.603-.677-.628H30.52q-2.943 0-4.359-.837.234-.418.259-.572.024-.154 0-.376-.591.173-.887.456l-.246-.185q.258-.16.825-1.034.566-.874.665-1.367Q26.735 0 26.679 0zm6.525 13.464c.65.028 1.007.042 1.16.042h.07l-.084 3.397a4.983 4.983 0 0 1-1.292-.769l.146-2.67zm-9.476-.845c-.217.042-.504.174-.469.433v1.894a36.22 36.22 0 0 0-.978-.042c0 .238.196.56.804.56.007.537.104 1.194.202 1.53l.084.88c0 .098.168.126.35.126.216 0 .454-.042.454-.042l-.035-.88c3.452.027 10.036.202 10.364.202.168 0 .28-.182.28-.433l.084-3.795-2.076-.021-.168 2.956c-1.502.007-4.102.252-5.87.252-.56 0-1.042-.021-1.37-.091-.07-.077-.72-1.02-1.132-1.125a1.813 1.813 0 0 0-.245-.028c-.07-.573-.14-1.146-.203-1.712.126-.161.413-.12.49-.336.077-.105.028-.28-.12-.286-.083-.035-.314-.042-.412-.042zM45.272.364q.17 0 .278.206.169.27-.252.454-.404.202-.27.69l.388 1.666q-.404.05-.707.403V1.697q0-1.06.286-1.228.155-.105.277-.105zm-.95 3.779v.626l-1.38-.144q.034-.169.522-.345.356-.129.858-.137zm.604.038q.607.125.91.747l-1.093-.115v-.239q0-.118.151-.353l.032-.04zm1.801.696q-.091 0-.268.303.437-.152.32-.27-.021-.033-.052-.033zm-3.868.875q-.05.1-.042.16.008.059.092.092-.1 0-.185-.05.017-.101.135-.202zm.151-.034q.151.017.27.084-.068.118-.22.202.068-.084.06-.168-.009-.084-.11-.118zm-.067-.067q-.236 0-.32.353.151.101.37.101t.37-.252h.404v-.135l-.404.034q-.185-.101-.42-.101zm-4.055-.454q1.01 0 0 1.867-1.01-1.867 0-1.867zm7.858-.427q.065 0 .117.057.185.218-.32.454.522.79.538 1.884l-.134.017q0-1.11-.438-1.834l-.033.017q.32.707.336 2.339l-.151.016q-.101-1.632-.185-2.019l-.152-.555q.255-.376.422-.376zm-3.57.524q.164 0 .305.046.337.11.337.462h.235q.05-.32.202-.32.151 0 .05.32l-.47.74v1.582l-.051.017q-.067-.118-.16-.303-.092-.185-.126-.488h-.505q-.286 0-.286-.134 0-.253.27-.286 0-.135-.085-.135l-.336-.017q.1-.235-.202-.303 0-.134.27-.605v-.286l.05.067q.218-.101.336-.118.135 0 .404.118h.303v-.118h-.303q-.236-.151-.404-.151-.185 0-.387.151 0-.134.05-.151.274-.088.502-.088zm-.368-.417l1.514.162v.14h.42v-.095l1.212.13q.017.084.169.555.218.656.185 4.626l-2.12.017V6.593q.117-.168.303-.471.185-.303.176-.648-.007-.288-.279-.288-.053 0-.116.01-.27 0-.337.337-.016-.269-.302-.395-.13-.058-.337-.058-.248 0-.606.083.017-.168.118-.286zm-3.942 5.425q.677 0 .813.464h-.64q-.521-.05-.521-.438.189-.026.348-.026zm4.968-1.454v1.918h1.817q-.016 1.043-.193 2.506-.177 1.464-.446 2.482-.27 1.018.353 1.657h-4.963q.168-.185.227-.622.06-.438-.378-1.48l-1.262-3.82q.01-.558.3-.558.181 0 .474.222l1.716 2.54.64.808q.168.117.298.117.262 0 .374-.47.606-1.38.455-3.382-.59-.623.588-1.918zM45.29 0q-.228 0-.512.183-.455.303-.455 1.783v1.83q-.466.024-.79.097-.488.11-.8.47-.31.363-.31 1.002-.068.27-.018.505-.286.504-.286.69 0 .1.253.1l-.05.152q.033.084.1.1-.05.068-.033.152l.117.05q-.1.455.387.455h.354q.033.32.387.858-.017.034-.329.42-.31.388-.614.934-.302.547.135 1.069.118 1.699-.522 3.146l-2.22-3.23q-.248-.808-.867-.808h-.025V7.603h1.194v-.404h-1.194q1.211-2.339-.303-2.339-1.497 0-.303 2.339h-1.177v.404h1.16v2.355q-.942 0-.185 1.195 1.784 5.35 1.733 5.703-.05.37-.496.64-.446.268-.227.504h6.696q.336-.151 0-.471-.892-1.06-.572-2.036.32-.976.555-4.727h.623v-1.11q0-1.01-.017-1.734.134-.017.303-.084l-.034-.505.303-.016q0-1.245-.539-1.969.59-.235.27-.606-.125-.15-.26-.15-.211 0-.447.37-.438-.83-.977-1.075.226-.127.54-.221l-.472-2.002q-.067-.236.286-.455.472-.336.185-.807Q45.626 0 45.29 0zm5.502 2.077l3.649 3.209q-.77 1.187-2.044 2.395-1.209-2.857-1.605-5.604zm-.97-1.582q-.705 0-.546.967.681.33.571.747-.11.418.088 1.385.198.967 1.583 4.593-.421 1.431.488 1.431.04 0 .083-.003 2.462 4.528 5.428 7.89h.528l-.132-1.472q-2.373-2.22-5.077-7.187.791-1.67 2.22-2.923l4.374 3.934q.33.148.555.148.61 0 .433-1.093l-4.395-3.758q.018-.999-.833-.999-.197 0-.442.054L50.792.759q-.603-.264-.97-.264zm14.711.629q2.015.293 2.106 1.842v11.177q-.942-1.124-3.382-1.58l1.276-11.44zM63.966 0l-1.508 13.363q3.36.385 4.18 2.4V18h1.003V2.966q0-2.51-3.675-2.966zm7.75 1.124q2.015.293 2.106 1.842v11.177q-.941-1.124-3.381-1.58l1.275-11.44zM71.15 0l-1.508 13.363q3.361.385 4.181 2.4V18h1.002V2.966q0-2.51-3.675-2.966z"/></svg>