<svg xmlns="http://www.w3.org/2000/svg" width="49.639" height="18"><path d="M12.277 3.646q-.07 0-.134.029-.046.058 0 .093.055-.03.124-.03.168 0 .425.182h.129v-.07h-.129q-.229-.204-.415-.204zm-.01.162q-.07 0-.089.024-.023.03-.023.088 0 .093.123.093.122 0 .333-.07-.222-.128-.316-.134l-.029-.001zm.74.369q-.046 0-.046.046 0 .035.035.035.047 0 .058-.035-.011-.046-.046-.046zm.199-.572q.187 0 .187.128 0 .117-.047.21-.047.094-.163.222-.14.117-.181.123h-.016q-.031 0-.054-.018-.03-.023.017-.093l.117-.129.14-.105q.023-.023-.035-.082-.058-.058-.012-.116.026-.033.056-.033.023 0 .05.021.058.047.023.128-.035.082-.187.257l.023.012q.164-.175.193-.234.03-.058.03-.151 0-.094-.141-.094-.07 0-.1.041-.028.041-.028.111 0 .047.07.128l-.082.059q-.058-.14-.03-.263.03-.122.17-.122zm.105-1.005q.619 0 1.028.123.408.123.408.66t-.362.788q-.362.25-.548.403-.316-.21-.432-.56.081-.118.081-.258 0-.233-.28-.245-.198 0-.257.222h-.035q-.023-.222-.21-.28-.187-.059-.385-.105.385-.748.992-.748zm-1.46 1.939l.234.046h-.152q-.093 0-.081-.046zm.28.105q0 .023-.233.082-.008.003-.013.003-.01 0-.01-.015 0-.047.047-.047h.081l.129-.023zm0-1.075q.153 0 .398.059.338.07.35.28.117 0 .117.082-.175.128-.175.268 0 .129.152.129.105 0 .268-.164.117.35.42.596.047.327.164.584-.234.303-.479.303l-.038.001q-.25 0-.353-.147-.11-.157-.17-.484-.01-.083-.085-.083l-.02.001q-.163 0-.595.047-.093-.035-.105-.088-.012-.052-.035-.134.222-.082.304-.187-.176-.128-.28-.163v-.07q.174-.035.174-.094-.035-.093-.093-.093-.07.011-.047.046.047.047-.076.053l-.044.001q-.078 0-.078-.019 0-.035.023-.07.257-.373.304-.654zm1.94 1.904l.058.817q-.39.23-.757.23-.357 0-.691-.218l.221-.409q.249.09.452.09.486 0 .716-.51zM9.544 7.466q.25 0 .462.237-.42.012-.56.257-.13-.28-.316-.292-.187-.012.192-.158.115-.044.222-.044zm4.537-.825q-.012 1.179-.134 2.615-.123 1.436-.392 2.546l.35.187h-3.864l.794-.327q-.35-1.717-.876-2.517-.526-.8-.175-1.033.11-.074.22-.074.238 0 .469.342l1.576 2.242h.397q-.152-2.966.128-3.946.37.19.73.19.393 0 .777-.225zM9.528 2.25q-.187.455-.456.718-.268.263-.385.549-.117.286-.467 1.057.06.025.116.025.254 0 .398-.527.175-.269.274-.304l.013-.002q.09 0 .133.457v3.048q-.677.467-.385.543.27.07.451.357.083.582.477 1.249.415.7.753 2.055l-.899.385.07.456h4.986l-.595-.724q.35-2.593.35-3.9.058-1.308-.047-2.464l-.081-.012q.105-.234.221-.234.129 0 .129.094L14.526 7.2h.513l-.105-2.149q-.046-.21-.198-.326-.073-.056-.162-.056-.099 0-.218.067-.227.129-.356.42l-.105-.315q.128-.093.339-.257.77-.362.764-1.226-.005-.864-1.109-.957-.218-.019-.405-.019-.76 0-1.014.305-.315.38-.467.765-.023.175-.052.28-.03.105-.17.31-.14.204-.116.262.011.082.151.082 0 .082-.093.105 0 .105.047.14-.059.164.046.199l.047.221q-.023.222-.268.9-.316 0-.316.175t.187.175l.042.002q.308 0 .472-.493l.222-.63q.28-.023.397-.058.058.28.152.467-.28.362-.432.788-.152.426-.216.969-.065.543-.053 2.68l-1.576-2.23q-.14-.199-.339-.316-.221-.276-.515-.276-.079 0-.162.02L9.446 7.2v-3q-.023-.759-.198-.91.128-.27.32-.561.193-.292-.04-.479zm7.53.936l2.16 1.9q-.456.701-1.21 1.417-.715-1.691-.95-3.317zm-.574-.936q-.417 0-.323.572.403.195.338.442-.065.248.052.82.117.572.937 2.718-.25.847.289.847l.049-.002q1.456 2.679 3.212 4.669h.312l-.078-.872q-1.405-1.313-3.004-4.252.468-.989 1.313-1.73L22.17 7.79q.196.087.329.087.361 0 .256-.646l-2.6-2.224q.01-.591-.493-.591-.117 0-.262.032l-2.34-2.042q-.357-.156-.575-.156zm-6.478 11.389L8.22 15.75h.87l.916-1.09.923 1.09.897-1.09.924 1.09.915-1.09.923 1.09.915-1.09.924 1.09.897-1.09.924 1.09.923-1.09.897 1.09.924-1.09.915 1.09h.87l-1.785-2.111-.924 1.02-.897-1.02-.923 1.02-.924-1.02-.897 1.02-.924-1.02-.915 1.02-.923-1.02-.915 1.02-.924-1.02-.897 1.02-.923-1.02zM25.936 3.1q.366 0 .966.2 1.027.342 2.129 1.43 1.1 1.09.88 2.02-.22.93-.856 1.395-.526.384-1.268.384-.157 0-.323-.017-.954-.098-1.64-1.505-.685-1.407-.636-2.509.05-1.1.343-1.297.143-.102.405-.102zm-.1-.85q-.505 0-.819.217-.66.465-.734 1.91-.073 1.443.832 3.132.905 1.688 2.203 1.847.248.03.482.03.992 0 1.745-.544.93-.673 1.162-1.909.232-1.235-.991-2.618-1.224-1.383-2.643-1.836-.72-.229-1.238-.229zm1.256 8.502v4.998h.836v-4.998zm10.592-6.63q-.093 0-.179.039-.062.078 0 .125.073-.041.165-.041.227 0 .571.245h.173v-.094h-.173q-.307-.274-.557-.274zm-.014.217q-.092 0-.118.033-.031.04-.031.118 0 .125.164.125.165 0 .447-.094-.298-.172-.423-.18l-.04-.002zm.994.495q-.063 0-.063.063 0 .047.047.047.063 0 .079-.047-.016-.063-.063-.063zm.266-.767q.25 0 .25.172 0 .157-.062.282-.062.125-.219.297-.188.157-.243.165l-.021.001q-.041 0-.073-.025-.039-.03.024-.125l.156-.172.188-.141q.032-.031-.047-.11-.078-.078-.015-.156.034-.044.074-.044.032 0 .067.028.078.063.031.172-.047.11-.25.345l.03.015q.22-.234.26-.313.038-.078.038-.203 0-.126-.188-.126-.094 0-.133.055-.039.055-.039.149 0 .063.094.172l-.11.079q-.078-.188-.039-.353.04-.164.227-.164zm.141-1.347q.83 0 1.378.164.549.165.549.885t-.486 1.057q-.485.337-.736.54-.423-.281-.58-.751.11-.157.11-.345 0-.313-.376-.329-.266 0-.344.298h-.047q-.032-.298-.282-.376-.25-.078-.517-.14.517-1.003 1.331-1.003zm-1.957 2.6l.313.062h-.204q-.125 0-.11-.062zm.375.14q0 .032-.313.11-.01.005-.017.005-.014 0-.014-.02 0-.063.063-.063h.11l.171-.031zm0-1.44q.204 0 .533.078.454.094.47.376.156 0 .156.11-.234.172-.234.36 0 .172.203.172.141 0 .36-.22.157.47.564.8.063.438.22.783-.314.407-.643.407h-.05q-.336 0-.474-.196-.15-.211-.227-.65-.014-.111-.115-.111l-.026.001q-.22 0-.8.063-.124-.047-.14-.117-.016-.07-.047-.18.297-.11.407-.251-.235-.172-.376-.22v-.093q.235-.047.235-.126-.047-.125-.125-.125-.094.016-.063.063.063.062-.102.07l-.059.002q-.105 0-.105-.025 0-.047.031-.094.345-.501.407-.877zm2.6 2.553l.079 1.096q-.524.31-1.015.31-.48 0-.927-.295l.297-.548q.333.12.606.12.651 0 .96-.683zM34.02 9.246q.335 0 .62.318-.565.015-.753.344-.172-.376-.422-.391-.251-.016.258-.212.153-.059.297-.059zm6.085-1.107q-.016 1.581-.18 3.508-.165 1.926-.525 3.414l.47.25h-5.184l1.065-.438q-.47-2.302-1.174-3.375-.705-1.073-.235-1.386.149-.1.296-.1.318 0 .628.46l2.114 3.007h.532q-.203-3.978.173-5.293.495.255.979.255.527 0 1.04-.302zM33.997 2.25q-.25.61-.61.963-.361.353-.518.736-.156.384-.626 1.418.081.033.156.033.34 0 .533-.707.235-.36.368-.407.009-.003.018-.003.12 0 .178.614v4.087q-.908.627-.517.729.363.094.605.479.111.78.64 1.674.556.94 1.01 2.756l-1.206.517.094.611h6.688l-.799-.971q.47-3.477.47-5.23.078-1.755-.063-3.305l-.11-.016q.141-.313.298-.313.172 0 .172.125L40.7 8.89h.69l-.142-2.881q-.062-.282-.266-.439-.097-.074-.217-.074-.132 0-.292.09-.305.172-.478.564l-.14-.423q.172-.125.454-.345 1.033-.485 1.025-1.644-.007-1.16-1.487-1.284-.293-.025-.544-.025-1.02 0-1.36.408-.422.51-.626 1.026-.031.235-.07.376-.04.14-.227.415-.188.274-.157.352.016.11.204.11 0 .11-.126.141 0 .14.063.188-.078.22.063.266l.062.298q-.031.297-.36 1.206-.423 0-.423.235 0 .234.25.234.03.003.057.003.413 0 .633-.66l.297-.846q.376-.031.533-.078.078.376.204.626-.376.486-.58 1.057-.204.572-.29 1.3-.086.728-.07 3.594l-2.114-2.99q-.188-.267-.455-.424-.296-.37-.69-.37-.106 0-.218.026l-.016-.032V4.865q-.03-1.018-.266-1.221.172-.36.43-.752.26-.391-.054-.642z"/><path d="M8.22.375c-9.625 0-9.625 17.25 0 17.25m0-17.25h33.17M8.22 17.625h33.17M49.077.375v17.25M41.39.375c9.624 0 9.624 17.25 0 17.25" fill="none" stroke="#000"/></svg>