<svg xmlns="http://www.w3.org/2000/svg" width="202.619" height="18"><path d="M17.338.568q-.111.037-.111.128t.07.146q.027.022.054.022.04 0 .077-.05.063-.081.021-.163-.041-.083-.11-.083zM1.95.47q-.153 0-.296.282.084.183.264.237.028.01.054.01.131 0 .224-.229 0-.255-.194-.292Q1.975.47 1.949.47zM.945.787q-.042.128.027.238l-.583.073Q.375.934.945.788zm.568.436zm.105-.003q.12 0 .195.033.027.012 0 .012-.052 0-.288-.04.05-.005.093-.005zm2.564 1.252q.035 0 .097.068 1.125 1.223 2.792 2.865Q8.74 7.048 8.947 7.724 7.585 7.468 6.62 6.318q-.966-1.15-1.681-2.236-.716-1.086-.799-1.414-.017-.196.042-.196zm.046-.868q.202 0 .384.096 4.321 4.308 4.946 5.604.584 1.405.764 2.154-.076.11-.182.11-.087 0-.193-.074l-.57-1.515q-.43-1.296-2.104-2.875-1.674-1.579-2.424-2.5-.441-.542-.676-.542-.164 0-.227.268-.108.455-.38.455-.115 0-.26-.081.126-.858.542-1.022.198-.078.38-.078zm.357 6.43q.666 1.405.541 2.83-.125 0-.236.236-.045-.403-.277-.403-.051 0-.112.02.292-1.405.084-2.683zM2.107.346q.066 0 .116.013.25.063.292.237.029.122.058.122.013 0 .025-.022.042-.073.056-.164.305.53.041 1.57t.848 1.24q1.028 3.104 2.209 4.72 1.18 1.615.986 3.038-.449-.438-.993-.438-.113 0-.23.019.042-1.296-.472-2.556t-.945-1.889q-.43-.63-1.16-1.497-.73-.867-.722-1.789.007-.921.194-1.286.188-.365.181-.584-.003-.091-.027-.091-.035 0-.112.182-.132.31-.73.328l-.07.001q-.568 0-1.235-.274l.82.073q.404.11.601.11.162 0 .183-.074.049-.164-.076-.192-.125-.027-.257-.027t-.201.055l.026.052-.29-.052Q1.042.787 1.167.623q.028-.055.097-.055-.028.183.049.274.028.034.056.034.046 0 .09-.098.07-.155-.125-.228.511-.204.773-.204zm15.412.04q.375 0 .555.365.056.055.695.2v.056l-.695.073q-.597 0-.75-.12-.153-.118-.146-.273.007-.155.188-.155.18 0 .25.082t.035.173q-.035.092-.132.147h.028q.18 0 .187-.22.007-.237-.299-.273-.389 0-.291.374.092.357.854.357l.076-.001q.431-.037.765-.128L18.81.97q1.236 1.004 1.16 2.29-.077 1.288-.966 2.136-.889.85-1.584 1.871-1.083 1.734-1.167 2.72-.083.986.376.986.458 0 1.118-.721.66-.721 1.34-.74 1.82.055 1.612 2.209-.667-.93-1.5-.93-.417 0-1.14.474-1.097.766-1.667.766l-.472-.091q-.861-.84-.583-2.482.416-1.187 1.125-4.235.486-1.734.965-2.628.48-.895 1.022-.913.291 0 .944.365.027.01.047.01.094 0 .037-.21-.526-.429-1.226-.429-.225 0-.47.045-.208 0-.506-.146-.3-.146-.3-.694.251-.237.543-.237zM3.946 3.05q1.083 1.825 1.986 3.002.903 1.178 1.702 1.588.799.411 1.48.43.083.145 1.653 4.617l-.097.055-3.738-3.14q.028-.273-1.104-1.962-1.132-1.687-1.994-4.46l.112-.128zm3.834 7.867l2.07 1.66q.07.256-.5.348-.127.02-.233.02-.37 0-.49-.248-.152-.32-.389-.831-.236-.511-.458-.95zm7.071-.785q0 .767.167 1.332.43 1.004 1.153 1.023h.038q.711 0 1.699-.657.938-.625 1.365-.625.034 0 .066.004.416.055.903.566.486.51.514.894.05.311-.043.311-.06 0-.18-.128-.399-1.05-1.024-1.05h-.01q-.633.01-1.557.648-.923.639-2.153.639t-1.368-1.04q-.14-1.04.43-1.917zm-10.294 1.06l.208.547q.195-.255.299-.3l.005-.002q.088 0-.304 1.543l-.583.238q-.153-.146.09-.904.243-.757.285-1.122zm14.763 1.14q.461 0 .727.502-.18.384-.847.603-.514 0-1.042-.566.685-.539 1.162-.539zm-1.607.758q.207.265.448.438h-1.883q.692-.095 1.435-.438zm-7.182 1.15q-1.554 2.935-4.48 3.011-2.913-.076-4.467-3.011zm11.239.018q-1.554 2.935-4.48 3.012-2.913-.077-4.48-3.012zM2.346.008q-.084 0-.179.013-.222 0-1.264.42Q.069.696 0 1.098l.028.62.417-.2q.68.292 1.139.292.458 0 .347.41-.111.411.028 1.37.139.958 1.097 1.934.959.977 1.188 2.556.23 1.578-.41 3.641l.209-.164q.004-.004.007-.004.046 0-.216.816-.277.867-.757.894-.084.005-.16.005-.348 0-.486-.105-.155-.12-.462-.12l-.045.001q-.34.01-.34.302v.182H.61Q2.21 17.982 6.057 18q3.849-.018 5.446-4.472l-4.279.037q0-.165-.264-.356-.129-.094-.296-.094-.175 0-.391.103-.13.061-.278.061-.337 0-.771-.317.097-.639.236-1.14.139-.503.528-.594.036-.008.073-.008.362 0 .816.811.264-.675.153-1.825l.139.128q1.042 2.3 1.257 2.701.163.305.634.305.15 0 .331-.031.75-.128.737-.475l.639.42.486-.237-1.07-3.048q.264 0 .487-.292-.264-1.096-.82-2.446-.39-.822-.792-1.278Q7.961 4.603 6.78 3.39T5.043 1.518q-.373-.28-.775-.28-.226 0-.461.088-.653.246-.792 1.214-.042-.037.07-.73.11-.694-.05-1.287-.138-.514-.689-.514zM17.566 0q-.252 0-.478.094-.292.11-.347.42-.111.383.097.757.208.374.653.466-.89 1.058-1.514 3.741-.584 2.556-.973 3.779-1.042 1.113-1.035 2.236.007 1.122.424 1.597.301.343.878.438h-3.434q1.597 4.454 5.446 4.472 3.848-.018 5.445-4.472h-2.674q.153-.11.313-.256.156.245.354.245.083 0 .174-.044.347-.219.139-1.004.194-2.245-.459-2.865-.653-.621-1.473-.621-.75 0-1.625.849-.543.526-.743.526-.124 0-.118-.198.014-.52.611-1.761.403-.876 1.75-2.254 1.348-1.378 1.334-2.775-.014-1.396-.597-2.099-.584-.703-1.292-.794-.111-.2-.292-.328-.18-.128-.48-.146Q17.609 0 17.567 0zm8.908 0c-.93 0-1.746.684-1.746 1.562V18h1.136V1.562c0-.43.379-.57.617-.57.25 0 .634.175.634.703v10.804h1.136V1.695C28.25.815 27.38 0 26.474 0zm14.505 1.427v1.407H30.612V1.427zM30.65 0v1.065h-.4v2.13h11.09v-2.13h-.323V0h-.361v1.065h-.894V0H39.4v1.065h-.894V0h-.361v1.065h-.875V0h-.38v1.065h-.876V0h-.361v1.065h-.894V0h-.362v1.065h-.894V0h-.361v1.065h-.875V0h-.361v1.065h-.894V0zm.96 4.398l-1.36 1.608h.664l.697-.83.703.83.684-.83.704.83.696-.83.704.83.697-.83.703.83.684-.83.704.83.703-.83.684.83.703-.83.697.83h.663l-1.36-1.608-.703.777-.684-.777-.703.777-.704-.777-.684.777-.703-.777-.697.777-.704-.777-.696.777-.704-.777-.684.777-.703-.777zm1.272 5.071c.716 0 1.354.33 1.769.847h-3.537a2.261 2.261 0 0 1 1.768-.847zm2.008 1.212c.137.26.224.55.25.857h-4.516c.027-.307.114-.597.25-.857zm.253 1.222a2.255 2.255 0 0 1-.238.857H30.86a2.255 2.255 0 0 1-.238-.857zm-.47 1.222a2.262 2.262 0 0 1-1.79.877 2.262 2.262 0 0 1-1.792-.877zm-1.79-4.021a2.635 2.635 0 0 0-2.632 2.631 2.634 2.634 0 0 0 2.631 2.632 2.635 2.635 0 0 0 2.632-2.632 2.635 2.635 0 0 0-2.632-2.631zm6.662-1.494q.579 0 .656.774.076.774.584 2.298l-2.445-.012q.437-1.512.532-2.286.094-.774.673-.774zm0 3.993q.307.472.33.992-.011.52-.33.992-.33-.472-.343-.992.024-.52.343-.992zm0-4.394q-.874 0-1.063.974-.19.975-.744 2.924h1.405q-1.027 1.488.39 3.26 1.477-1.772.414-3.26h1.393q-.555-1.95-.744-2.924-.189-.974-1.051-.974zm-3.68 8.921c.18 0 .288.03.344.062.163.104.085.354.06.51h-.807c-.02-.16-.108-.403.06-.51.055-.032.163-.062.343-.062zm-4.48.94v.56h-.765v-.56zm3.975 0v.56h-3.79v-.56zm.921 0v.56h-.737v-.56zm3.701 0v.56h-3.517v-.56zm.99 0v.56h-.806v-.56zm-6.726-1.5l-.26.261.872.87H30.25V18h11.09v-1.299h-4.469l.873-.87-.261-.261-.807.804c-.048-.488-.382-.6-.812-.613-.46.012-.741.116-.812.613l-.807-.804zM60.692 2.307v2.277H43.925V2.307zM43.986 0v1.723h-.646v3.445h17.936V1.723h-.523V0h-.584v1.723h-1.446V0h-.585v1.723h-1.446V0h-.584v1.723h-1.415V0h-.616v1.723h-1.415V0h-.584v1.723h-1.446V0h-.585v1.723h-1.446V0h-.584v1.723H46.6V0h-.584v1.723H44.57V0zm2.871 7.169v.358h-1.893v-.358zm-.952.705q1.187 0 1.64.605.454.605.454 1.086-.01.75-.627 1.31-.616.56-1.467.56-.862 0-1.478-.56t-.616-1.298q0-.493.37-1.098.369-.605 1.724-.605zM44.427 6.8v.84q-.403.235-.74.762-.335.526-.347 1.164 0 .75.622 1.518.622.767 1.943.823 1.31-.056 1.938-.823.627-.767.627-1.506-.011-.65-.347-1.182-.336-.532-.75-.767V6.8zm8.833.369v.358h-1.892v-.358zm-.952.705q1.188 0 1.641.605.454.605.454 1.086-.012.75-.627 1.31-.616.56-1.468.56-.862 0-1.478-.56t-.616-1.298q0-.493.37-1.098.37-.605 1.724-.605zM50.83 6.8v.84q-.403.235-.74.762-.335.526-.346 1.164 0 .75.621 1.518.622.767 1.943.823 1.31-.056 1.938-.823.627-.767.627-1.506-.011-.65-.347-1.182-.336-.532-.75-.767V6.8zm8.834.369v.358H57.77v-.358zm-.952.705q1.187 0 1.64.605.454.605.454 1.086-.011.75-.627 1.31t-1.467.56q-.863 0-1.479-.56-.616-.56-.616-1.298 0-.493.37-1.098.37-.605 1.725-.605zM57.233 6.8v.84q-.403.235-.739.762-.336.526-.347 1.164 0 .75.621 1.518.622.767 1.944.823 1.31-.056 1.937-.823.627-.767.627-1.506-.01-.65-.347-1.182-.336-.532-.75-.767V6.8zm-9.511 6.737q-1.79.04-2.962 1.295-1.296 1.42-1.42 2.839 0 .329.37.329h17.196q.37 0 .37-.39 0-.392-.37-.392h-16.64q1.028-2.632 3.085-2.92h13.555q.37 0 .37-.391 0-.37-.37-.37zM74.868.748v2.616q-2.803 0-4.366 1.665-1.563 1.665-1.563 4.094h-2.736q0-3.296 2.302-5.835 2.302-2.54 6.363-2.54zm0 3.347v5.028h-5.199q0-1.987 1.308-3.508 1.309-1.52 3.89-1.52zM75.552 0q-5.167 0-7.633 2.752-2.48 2.77-2.48 7.119h10.176V0h-.063zM63.276 11.404V18h5.166v-.776h-4.39V12.18h12.95v5.044h-3.929V18h4.705v-6.596zm20.639 4.598q1.126 0 2.246.643-1.12.634-2.246.634t-2.256-.634q1.13-.643 2.256-.643zM81.211 0q-.468 0-.916.078-.254.156 0 .35.448.137.955.137 1.247.04 1.988.702.409.546.409 1.696v7.29q-1.108-.644-2.663-.644-.47 0-.982.059-.448.175 0 .311 2.066.234 2.787.79.722.555.8.906.038.156.058.526-1.094-.65-2.626-.65-.487 0-1.019.066-.448.156 0 .312 2.066.233 2.787.78.722.545.8.896.038.156.038 1.637-1.754.214-3.099 1.403Q82.224 18 83.92 18t3.391-1.355q-1.345-1.208-2.982-1.403 0-1.481.04-1.637.077-.351.798-.897.721-.546 2.787-.78.468-.155 0-.311-.51-.06-.98-.06-1.552 0-2.645.644 0-.37.04-.526.077-.35.798-.896.721-.546 2.787-.78.468-.156 0-.312-.52-.06-.997-.06-1.541 0-2.628.625v-7.29q0-1.715-.624-2.202Q82.828 0 81.211 0zm13.343.601c1.074 0 2.419.552 3.07 1.202.568.57.643 1.324.664 2.025h-7.435c.02-.7.095-1.455.664-2.025.65-.65 1.963-1.202 3.037-1.202zm0-.601c-1.274 0-2.645.589-3.448 1.392-.824.824-.918 1.91-.918 2.72v.317h8.732v-.316c0-.812-.061-1.897-.885-2.72C97.23.588 95.829 0 94.555 0zm-.612 10.68V18h1.225v-7.32zM103.078 0l-2.158 2.55h1.053l1.105-1.317 1.116 1.318 1.084-1.318 1.116 1.318 1.105-1.318 1.116 1.318 1.105-1.318 1.116 1.318 1.084-1.318 1.116 1.318 1.116-1.318 1.084 1.318 1.116-1.318 1.106 1.318h1.052L116.352 0l-1.116 1.233L114.152 0l-1.116 1.233L111.92 0l-1.084 1.233L109.72 0l-1.105 1.233L107.5 0l-1.105 1.233L105.278 0l-1.084 1.233L103.078 0zm6.637 6.231c1.074 0 2.418.552 3.069 1.203.57.569.644 1.323.664 2.025h-7.435c.021-.702.096-1.456.665-2.025.65-.65 1.963-1.203 3.037-1.203zm0-.6c-1.274 0-2.645.588-3.448 1.391-.825.824-.918 1.91-.918 2.721v.317h8.732v-.317c0-.812-.062-1.897-.886-2.72-.803-.804-2.206-1.393-3.48-1.393zm-7.205 9.952q-.1 0-.195.03-.37.12-.327.36.037.203.332.203.053 0 .115-.007.404-.043.709-.327-.341-.26-.633-.26zm.19-.22q.786 0 2.427.937.823.426 1.805.426.474 0 .985-.1 1.286-.26 2.703-.457.48-.066.932-.066.877 0 1.64.251 1.155.382 1.918.49.762.11 2.419.197-1.068.109-2.093.109-1.024 0-2.419-.229-.697-.114-1.343-.114t-1.24.114q-1.188.229-2.702.425-.379.05-.745.05-1.097 0-2.078-.442-.952-.65-1.978-.65-.453 0-.92.127-.415-.022-.371-.458.24-.588 1.024-.61h.035zm.582-2.224q-.471 0-.88 1.44-.34-1.272-.88-1.272-.08 0-.166.029-.653.414.436 1.59-.872.502-.872 1.265 0 .763 1.286.85.398-.104.777-.104.889 0 1.675.573.674.49 2.136.49.975 0 2.3-.218 1.627-.458 3.163-.458.583 0 1.152.066 1.424.165 2.425.165.455 0 .823-.035 1.853-.043 1.853-.348-.502-.458-1.417-.61-1.94-.022-3.542-.676-.8-.327-1.964-.327t-2.69.327q-.983.248-1.831.248-1.162 0-2.07-.466-.937-.567-1.983-.937.872-.676.817-1.123-.054-.447-.534-.468h-.014zm19.303-12.015q2.015.293 2.106 1.842v11.177q-.942-1.124-3.382-1.58l1.276-11.44zM122.018 0l-1.508 13.363q3.36.385 4.18 2.4V18h1.003V2.966q0-2.51-3.675-2.966zm23.519 2.373v2.341h-17.243V2.373zM128.357 0v1.772h-.664v3.543h18.445V1.772h-.538V0h-.6v1.772h-1.487V0h-.601v1.772h-1.487V0h-.601v1.772h-1.456V0h-.632v1.772h-1.456V0h-.6v1.772h-1.488V0h-.6v1.772h-1.488V0h-.601v1.772h-1.455V0h-.601v1.772h-1.487V0zm1.598 15.325L127.693 18h1.103l1.16-1.382 1.17 1.382 1.136-1.382 1.17 1.382 1.16-1.382 1.17 1.382 1.16-1.382 1.17 1.382 1.136-1.382 1.17 1.382 1.17-1.382L142.706 18l1.17-1.382 1.16 1.382h1.103l-2.262-2.675-1.17 1.293-1.137-1.293-1.17 1.293-1.17-1.293-1.138 1.293-1.17-1.293-1.159 1.293-1.17-1.293-1.16 1.293-1.17-1.293-1.136 1.293-1.17-1.293zm21.878-2.586l.384 4.315h-.769l.385-4.315zm.03-9.842l2.482 14.157h-1.596l-.769-6.207h-.266l-.768 6.207h-1.655l2.571-14.157zM151.713 0l-3.576 18h7.39L151.98 0zm7.461 0c-.335 0-.67.026-.994.066-.448.113-.218.626.18.626a.476.476 0 0 0 .081-.008c.84.097 1.872.15 2.506.626.841.916.463 2.821.561 3.725.007.05.01 3.653.01 5.48a6.145 6.145 0 0 0-2.634-.586 6.04 6.04 0 0 0-1.188.117c-.441.231.076.528.422.528a.46.46 0 0 0 .115-.013c1.226.133 2.62.461 3.243 1.602.061.206.023.277-.07.277-.207 0-.68-.342-.947-.342-.014 0-.028 0-.04.003a7.535 7.535 0 0 0-1.58-.169 6.8 6.8 0 0 0-1.149.095c-.42.278.096.534.438.534a.532.532 0 0 0 .105-.01c1.251.151 2.636.49 3.243 1.633.007 1.27 0 2.11.033 3.278-.014.36.22.538.456.538.236 0 .474-.176.475-.526-.009-1.15-.09-2.161.06-3.277.304-1.253 2.477-1.445 3.827-1.754.294-.347-.285-.475-.659-.475-.055 0-.107.003-.15.008a6.823 6.823 0 0 0-.521-.02c-.882 0-1.771.175-2.557.58-.032-.755.711-1.19 1.244-1.493.84-.361 1.765-.397 2.643-.59.313-.273-.18-.501-.521-.501a.58.58 0 0 0-.125.012 6.767 6.767 0 0 0-.648-.031c-.902 0-1.804.183-2.614.582.016-2.851.063-5.61-.02-8.308-.065-.834-.545-1.6-1.354-1.849-.58-.264-1.227-.358-1.87-.358zm11.875.634q-.372 0-.372.438 0 .371.372.371.393-.022.393-.415 0-.394-.393-.394zm-1.443.285v.393l-.852.153q.393-.415.852-.546zm.044.524q.503.394.175.59-.503-.175-.744-.459l.569-.13zm1.53-1.005q1.027 0 1.64.787.611.786.655 2.426 1.596.328 2.12 1.442.085.722-.325.722h-.025q-.437-.022-.688-.24-.091-.08-.138-.08-.082 0-.026.243.087.383.962.93.874.546.142.906-.182.09-.387.09-.622 0-1.46-.822-1.115-1.093-1.18-1.661-.066-.568.458-1.05.312-.285.215-.285-.067 0-.324.133-.634.328-.666.961-.033.634.502 1.388.536.754 2.11 1.913.16.084.364.084.432 0 1.056-.38.918-.556-.918-1.715.678-.175.7-.59.852.284 4.787 5.29 1.049.699 1.07 1.027-.021.306-.327.371-.066.014-.133.014-.248 0-.523-.188-1.224.59-2.371.612h-.12q-1.067 0-1.771-.372.721.634.503 1.333-.106.34-.161.34-.058 0-.058-.383 0-.744-1.902-1.421v.83q-.112.47-.178.47-.063 0-.084-.426-.131-.94-.623-2.022-.492-1.082-1.563-2.994-1.07-1.913-1.366-2.754-.295-.842-.273-1.563.022-.722-.295-1.06-.317-.34-.186-.733.131-.393-.393-.743V.897q.568-.46 1.18-.46zm4.153 12.59q1.07.306 1.07.721l-.72 2.689q-.088.48-.59.48h-.875v-.043l1.115-3.41v-.437zM171.259 0h-.08q-.852 0-1.726.7-.503.175-1.027.809.721.655 1.311.808.066.306.416.853.021 1.443.393 2.393.372.951 2.492 5.104 1.049 2.186 1.049 2.689 0 .765-.962 3.431 0 .153-1.311.24-1.967.066-1.967.547 0 .284.262.284h5.814q.546-.437.612-.743.525.219.568.59.074.295.21.295.025 0 .053-.01.175-.066.175-.285-.153-.59-.765-1.136l.699-2.951q2.12-.066 3.694-.678.291.066.534.066.486 0 .777-.262.438-.394-.174-1.224-1.334-1.334-2.536-2.93-2.47-3.038-3.388-3.518-.306-.634-.732-1.006-.426-.371-1.541-.918-.022-1.29-.601-2.23-.566-.918-2.25-.918zm15.273 1.757q-.133.133 0 .246l-.378-.144.378-.102zm2.044-.01l.367.112-.367.144q.132-.113 0-.256zm-1.788-.01l.306.225-.327.06q.123-.111.02-.285zm1.532-.01q-.102.184.02.296l-.326-.061.306-.235zm.043-.084q-.107 0-.17.033-.22.112-.302.327.184.101.41.101.367 0 .847-.265-.523-.196-.785-.196zm-1.613 0q-.265 0-.8.206.479.261.844.261.235 0 .423-.107-.082-.215-.302-.327-.062-.032-.165-.032zm-1.63-.487q-.06 0-.136.07-.21.194.343 1.114l.102-.072-.164-.398.01-.327-.132-.02q.04.05.046.224.005.174.178.49l-.03.031q-.072-.133-.225-.475-.153-.342-.056-.475.037-.05.075-.05.061 0 .124.132l.03-.02q-.058-.224-.166-.224zm4.867 0q-.11 0-.175.223l.03.02q.064-.132.127-.132.039 0 .078.051.102.133-.051.475-.154.342-.235.475l-.03-.03q.173-.317.178-.49.005-.175.046-.226l-.123.02.01.328-.163.398.092.072q.562-.92.352-1.114-.075-.07-.136-.07zm-4.803-.14q.088 0 .117.123.056.24.04.399-.01.114.114.114.048 0 .117-.017-.266.296-.02.541.06.337-.113.348h-.006q-.173 0-.454-.583-.286-.592-.01-.817.133-.109.215-.109zm4.74 0q.081 0 .215.108.276.225-.016.817-.286.583-.454.583h-.005q-.169-.01-.108-.348.235-.245-.02-.541.066.017.112.017.12 0 .113-.114-.01-.159.046-.399.029-.124.116-.124zm-1.565.213q-.063 0-.12.012-.358.077-.48.332-.113.348-.108.772.005.424.235.5.23.077.158.159-.04.045-.094.045-.045 0-.1-.03-.047-.025-.088-.025-.068 0-.121.066-.044.054-.088.054-.045 0-.091-.054-.057-.066-.123-.066-.042 0-.087.025-.052.03-.097.03-.054 0-.097-.045-.076-.082.154-.159.23-.076.235-.495.005-.419-.097-.777-.103-.255-.445-.332-.054-.012-.115-.012-.327 0-.86.344l-.021.154q.503-.313.873-.313.247 0 .435.139.214.797-.03 1.165-.42.102-.287.337.078.138.217.138.097 0 .222-.067.108.133.212.133.105 0 .207-.133.13.067.23.067.141 0 .22-.138.133-.235-.297-.337-.194-.368-.02-1.165.195-.146.448-.146.369 0 .86.31l-.03-.154q-.48-.334-.81-.334zm-.54 2.212q.114 0 .287.063-.293.098-.593.098-.267 0-.542-.077.198-.08.323-.08.082 0 .132.034.064.043.127.043.062 0 .123-.043.054-.038.142-.038zm-.848.166q.292.107.6.107.31 0 .637-.107-.337.224-.654.24h-.036q-.296 0-.547-.24zm.348-.297q-.245.051-.552.225.276.337.542.399.11.025.226.025.166 0 .346-.051.306-.087.45-.383-.328-.164-.542-.205l-.235.092-.235-.102zM188.33.797q.45.429 1.083.817.113.297.051.389-.06.091-.122.541-.317.715-.588 1.175-.27.46-.562.649-.126.082-.264.082-.178 0-.374-.138-.235.16-.41.16-.092 0-.167-.043-.22-.128-.583-.562-.362-.434-.638-1.323-.062-.45-.118-.536-.056-.087.046-.394.9-.398 1.083-.797.382.159.76.159.403 0 .803-.18zm-.776 3.719q.267.186.477.186.054 0 .105-.012l.205 1.338h-1.594l.224-1.338q.051.012.106.012.21 0 .477-.186zm0-4.516q-1.625 0-2.064 1.45.04-.439-.215-.566-.062-.031-.125-.031-.198 0-.41.302-.282.398.433 1.42.13.28.266.28h.005q.138-.004.19-.137.285 1.205 1.143 1.788l-.286 1.716h2.085l-.246-1.716q.654-.603 1.145-1.788.05.133.189.138h.004q.136 0 .266-.281.716-1.022.43-1.42-.217-.302-.413-.302-.063 0-.124.03-.25.128-.2.568Q189.179 0 187.555 0zm-.001 9.177c.625 0 1.407.32 1.786.7.33.33.374.77.386 1.178h-4.327c.012-.408.056-.848.387-1.179.379-.378 1.143-.7 1.768-.7zm0-.35c-.742 0-1.54.342-2.007.81-.48.48-.534 1.11-.534 1.583v.185h5.082v-.185c0-.472-.036-1.104-.516-1.583-.468-.468-1.284-.81-2.025-.81zm9.561-6.458l.552 1.288q-.276.092-.552.092t-.552-.092l.552-1.288zm0-1.012l-1.207 2.645q.563.253 1.207.253.644 0 1.207-.253l-1.207-2.645zm1.633-.851q.092 1.897.54 3.588-.552.62-2.173.62t-2.173-.62q.448-1.69.54-3.588zM194.79 0q-.276 0-.276.253t.276.253q.07.057.219.126-.092 1.68-.633 3.772 1.012.828 2.737.828t2.737-.828q-.54-2.093-.633-3.772.15-.069.219-.126.276 0 .276-.253T199.437 0zm-3.181 6.396v5.009h3.921v-.59h-3.332v-3.83h9.832v3.83h-2.983v.59h3.572V6.396zm-5.325 9.136q-.102 0-.199.031-.378.123-.334.367.038.208.338.208.055 0 .118-.007.412-.045.724-.334-.348-.265-.647-.265zm.193-.225q.803 0 2.479.957.84.435 1.843.435.484 0 1.005-.101 1.313-.267 2.76-.467.49-.068.951-.068.896 0 1.675.257 1.179.39 1.958.5.779.112 2.47.2-1.09.112-2.136.112t-2.47-.234q-.713-.116-1.372-.116-.66 0-1.266.116-1.212.234-2.759.434-.387.05-.76.05-1.12 0-2.122-.45-.972-.664-2.02-.664-.462 0-.94.13-.422-.023-.378-.468.245-.6 1.046-.623h.036zm.595-2.27q-.481 0-.898 1.47-.349-1.298-.9-1.298-.081 0-.168.029-.668.423.445 1.624-.89.512-.89 1.291 0 .779 1.313.868.406-.107.793-.107.907 0 1.71.585.688.501 2.18.501.996 0 2.349-.223 1.662-.467 3.23-.467.595 0 1.176.067 1.454.168 2.476.168.464 0 .84-.035 1.891-.044 1.891-.356-.511-.467-1.446-.623-1.98-.022-3.616-.69-.818-.333-2.006-.333-1.188 0-2.745.333-1.005.254-1.87.254-1.187 0-2.114-.476-.957-.579-2.025-.957.89-.69.835-1.146-.056-.456-.546-.479h-.014z"/></svg>