<svg xmlns="http://www.w3.org/2000/svg" width="81.868" height="18"><path d="M3.01.474c.693 0 1.247.2 1.634.479.006.053.02.107.009.16-.05.248-.195.477-.396.63-.316.207-.697.267-1.057.356-.09.01-.019.031.031.04.23.04.707.099.971.099l.052-.001c.278-.032.54-.148.766-.311.079-.067.147-.15.205-.236.147.346.227.713.26.917.018.11.096.2.202.233 1.139.349 2.038 1.91 2.88 2.949 1.729 2.137 3.199 4.526 4.892 6.76-.937-.456-1.87-.916-2.81-1.374-1.92-1.01-3.92-1.816-5.604-3.09l-.008-.008c-.97-.808-1.963-1.66-2.339-2.793-.148-.92 1.757-2.577 1.542-2.646a.207.207 0 0 0-.064-.01c-.458 0-1.753 1.128-2.019 2.202-.003-.014-.01-.03-.014-.045-.073-.356-.154-1.256.068-1.98a.29.29 0 0 0 .01-.103 1.968 1.968 0 0 0-.123-.634c-.063-.17-.139-.344-.26-.765-.031-.108-.142-.328-.208-.345.186-.138.375-.28.645-.375a.434.434 0 0 0-.132.314c0 .23.164.415.365.415.2 0 .364-.186.364-.415V.894a.411.411 0 0 0-.255-.39c.053-.007.096-.019.154-.022.081-.006.16-.008.238-.008zm.67 7.763c.065.065.135.124.202.187.214.78.412 1.64.692 2.305.483 1.145 1.216 2.141 1.84 3.154a1.814 1.814 0 0 0-.385.27 6.831 6.831 0 0 0-.199.193 2.61 2.61 0 0 0-1.186-.897c.045-.723-.108-1.712-.34-2.787a34.903 34.903 0 0 0-.624-2.425zm1.006.908c1.149.945 2.428 1.738 3.676 2.54-.018.91-.018 1.778.084 2.675a3.411 3.411 0 0 0-1.437-.736c-.02 0-.037.012-.057.012-.649-1.063-1.383-2.06-1.837-3.134-.156-.37-.293-.85-.429-1.357zm.407 5.254a2.5 2.5 0 0 1 .44.541.3.3 0 0 0 .257.14.29.29 0 0 0 .17-.053c.215-.156.347-.324.476-.446.047-.045.097-.08.148-.117l.149 2.722c-.213-.014-.435-.035-.637-.035-.264 0-.495.036-.633.172-.169-.134-.497-.164-.89-.164-.102 0-.207.002-.316.004l.836-2.764zM6.25 9.574c1.354.787 2.784 1.414 4.135 2.125a.244.244 0 0 0 .006.003c1.295.631 2.586 1.28 3.894 1.904.984 1.189 2.052 2.295 3.078 3.42l-2.15.362-4.267-4.635a.288.288 0 0 0-.037-.036c-1.499-1.137-3.152-2.082-4.66-3.143zM3.076 0c-.135 0-.273.005-.411.013C1.58.083.792.54.523 1.157c-.04.093-.146.314-.007.314a2.35 2.35 0 0 1 .341-.028c.418 0 .38.172.47.194.09.282.29.846.303 1.068-.244.86-.153 1.763-.064 2.198.15.732.63 1.584 1.261 2.38a.285.285 0 0 0 0 .166 35.3 35.3 0 0 1 .903 3.336c.251 1.168.393 2.277.317 2.823a.294.294 0 0 0 .221.328c.045.011.084.031.127.045l-.928 3.079a2.847 2.847 0 0 0-.593-.055c-.381 0-.756.05-1.064.05-.125 0-.24-.008-.34-.032a.546.546 0 0 0-.125-.012c-.436 0-1.428.306-1.34.879.15-.128.257-.159.375-.159.11 0 .23.027.405.027h.027c.254-.004.697-.083 1.053-.083.18 0 .338.02.438.08.236-.01.45-.013.649-.013.85 0 1.447.07 2.5.075a89.565 89.565 0 0 0 2.974-.079c.45.003.697.054.922.054h.04c.134-.004.265-.057.48-.057.123 0 .273.017.468.07-.25-.341-.877-.685-1.33-.685a.591.591 0 0 0-.302.071 5.081 5.081 0 0 0-.508-.022c-.22 0-.448.01-.678.02l-.157-2.83c.487.203.857.517 1.281 1.021a.295.295 0 0 0 .513-.246c-.192-1.039-.213-2.019-.202-3.06.54.354 1.072.713 1.576 1.094l4.36 4.738a.29.29 0 0 0 .263.09c.95-.159 1.9-.315 2.849-.474a.294.294 0 0 0 .23-.193.298.298 0 0 0-.06-.297c-.741-.83-1.508-1.631-2.25-2.445 1.269.78 2.875 1.755 3.08 1.755.022 0 .027-.013.012-.04-.094-.163-.9-.755-1.775-1.373.14.058.276.12.415.177l.017.01c.103.035.16.059.27.062a.286.286 0 0 0 .108-.016.317.317 0 0 0 .188-.152.32.32 0 0 0 .023-.238c-.017-.05-.038-.077-.054-.098-.061-.085-.103-.109-.162-.154a4.553 4.553 0 0 0-.205-.149c-.153-.105-.336-.223-.493-.328a4.992 4.992 0 0 1-.328-.233.307.307 0 0 0-.028-.025l-3.892-2.736c-.008-.006-.02-.001-.028-.006-1.333-1.869-2.588-3.825-4.046-5.627-.744-.92-1.598-2.528-2.985-3.064-.067-.396-.218-1.127-.755-1.649C4.827.26 4.168.056 3.427.011A5.728 5.728 0 0 0 3.076 0zM25.85 4.787q-.407 0-.472.314v.019q.047.083.194.083.425-.185.425-.342v-.018q0-.037-.148-.056zm1.477-.572q-.065.36-.637.775l.203.083.277-.101.138.092q1.062.508 2.817.536l2.752.027h.037q.47 0 .457.688-.014.716-.485 1.436-.296 0-.6-.226-.305-.226-.5-.53-.193-.306-.498-.795.093.97.554 1.524-.563 0-1.002.106-.219.053-.365.053-.147 0-.221-.053-.092-.066-.457-.066-.222 0-.545.024-.249.02-.455.02-.501 0-.75-.112-.23-.194-.29-.679-.06-.485.272-1.343-.684.489-.684 1.486v.333q-.341-.351-.535-.776-.379-.942-1.035-.942-.249 0-.96.314-.24-.101-.194-.323l.462-.619q.332-.563.48-.628.074-.138.72-.138.277.074.277.203 0 .175-.184.35.35-.073.508-.415 0-.083.443-.304zm.398-1.965q-.045 0-.103.072-.701 1.117-1.274 1.551-.222.194-.6.203-.185 0-.563-.277-.564-.545-.785-.923-.25-.444-.324-.49-.037 0-.055.093 0 .526 1.071 1.948-.203.296-.378.674-.176.379-.416.577-.24.199.046.393 0 .24.397.388l.988-.287q.397 0 .545.333.49.738.49 1.542.055 1.071-.74 2.05-.249.166-.249.461 0 .12.305.12.499 0 .499-.12l-.037-.249q0-.13.194-.194v-.018q0-.176.628-1.764.286 0 .452.277.213.702.213 1.164 0 .101-.13.434-.157.12-.194.434h.74l-.056-.231q-.037-.139.101-.24l-.064-.342q-.12-1.302-.12-1.533v-.018q.73-.176 1.122-.176.392 0 .604.143.085.057.237.057.23 0 .618-.13.419-.142.643-.142.119 0 .183.04.185.115.185.392 0 1.016-.517 1.727-.167.166-.25.462h.637q.167-.056.074-.277.019-.24.222-.305 0-.84.739-1.662.517.286.526.886 0 .231-.092.628l-.111.305q-.102.12-.185.453h.61q.11-.047.138-.102l-.092-.296q-.046-.129.13-.23-.093-.49.12-.74-.435-1.015-.435-1.597.231-.95.296-1.782.11.582.027 1.395-.083.812.277 1.68.07.146.129.146.04 0 .074-.072.093-.526.037-2.909-.073-.295-.157-.452-.295-.453-.507-.471h-2.983q-2.207 0-3.269-.628.176-.314.194-.43.018-.115 0-.281-.443.13-.665.342l-.185-.139q.194-.12.62-.776.424-.655.498-1.025-.031-.062-.073-.062zm4.893 10.098c.488.021.755.032.87.032h.053l-.063 2.547a3.738 3.738 0 0 1-.97-.576l.11-2.003zm-7.107-.634c-.163.031-.377.131-.351.325v1.42c-.315-.015-.64-.031-.734-.031 0 .178.147.42.603.42.005.403.078.896.152 1.147l.063.66c0 .074.125.095.262.095.162 0 .34-.031.34-.031l-.026-.66c2.59.02 7.527.151 7.773.151.126 0 .21-.136.21-.325l.063-2.846-1.557-.016-.126 2.217c-1.127.006-3.076.19-4.402.19-.42 0-.781-.017-1.028-.069-.052-.058-.54-.765-.849-.844a1.36 1.36 0 0 0-.183-.02c-.053-.43-.105-.86-.152-1.285.094-.12.309-.09.366-.252.058-.078.021-.21-.089-.215-.063-.026-.235-.031-.309-.031zM38.25 2.595q-.083.871-.083 1.953 0 1.08.105 2.184-.24-.127-.75-.127-.519 0-.752.127.113-1.103.106-2.184-.008-1.082-.083-1.953zm-.73 4.475q.51.008 1.036.27l-.135.248q-.106-.018-.198-.018-.32 0-.477.221-.09-.398-.226-.488-.135.09-.232.488-.158-.221-.477-.221-.093 0-.2.018l-.134-.247q.54-.263 1.043-.27zm0 .721q.113.09.075.263-.037.173-.075.33-.045-.157-.082-.33-.038-.173.082-.263zm.684.001q.043 0 .09.007-.51 1.216-.774 1.216-.255 0-.788-1.216.048-.007.091-.007.274 0 .352.247.097.278.203.45.112.18.142.18.038 0 .135-.18.106-.172.196-.45.084-.247.353-.247zM36.35 2.25q.36 2.553-.008 4.603-.668.315-.555.533.082.164.189.164.039 0 .081-.022.653.736 1.074 1.735.165 1.644-.045 5.684 0 .803.42.803h.023q.42 0 .42-.803-.202-4.04-.045-5.684.413-.999 1.066-1.735.043.022.082.022.106 0 .189-.164.112-.218-.548-.533-.376-2.05 0-4.603zm7.171 2.304c-.202.097-.45.367-.075.412.18-.007.593-.195.518-.367a.166.166 0 0 1-.118.05c-.106 0-.215-.095-.325-.095zm-1.478.067c-.247.06-.375.33-.06.39l.017.001c.181 0 .675-.22.268-.27-.067-.046-.135-.12-.225-.12zm1.974-1.883c.442.517.833 1.118.908 1.808.075.495.097.99.172 1.478-.352-.03-.247-.577-.18-.84.06-.518-.217-.998-.413-1.456-.135-.247-.262-.638-.607-.645-.383.067-.63.39-.878.668-.255-.255-.526-.533-.878-.638a.177.177 0 0 0-.061-.01c-.08 0-.172.035-.214.035-.037 0-.037-.026.042-.123.048-.168.147-.218.27-.218.178 0 .406.106.599.106a.42.42 0 0 0 .084-.008 2.801 2.801 0 0 0 1.156-.158zm-.12.57c.292.075.36.48.502.72.18.42.398.878.255 1.351-.112.225.03.51.015.675-.25.176-.47.547-.802.547a.474.474 0 0 1-.113-.014c-.33-.067-.495-.383-.75-.533-.185.178-.294.548-.599.548a.464.464 0 0 1-.137-.022c-.277-.06-.645-.03-.727-.368-.143-.345-.158-.728-.18-1.103a.243.243 0 0 0 .045.005c.152 0 .166-.177.18-.328.058-.22.215-.321.39-.321.118 0 .244.046.352.134.128.142.518.255.436.48-.038.135-.083.277-.128.42l.315.42c.03-.217.353-.397.165-.615-.03-.098-.142-.225-.127-.3.135-.24.315-.45.525-.63a.241.241 0 0 1 .172-.077c.201 0 .403.263.578.287.173-.188-.015-.263-.187-.36a.526.526 0 0 0-.365-.147.602.602 0 0 0-.49.266c-.143.086-.243.371-.368.371-.04 0-.081-.028-.128-.1-.229-.184-.504-.39-.804-.39a.642.642 0 0 0-.134.014c-.212.044-.403.474-.42.474-.008-.353.157-.669.255-1.014a.459.459 0 0 1 .447-.357c.13 0 .261.055.356.177.223.083.387.475.597.475a.2.2 0 0 0 .116-.04c.232-.247.42-.54.758-.645zM42.83 8.515c.953.983 1.831 3.475 2.056 4.495-.368-.3-.87-.495-.983-.683-.12-.195-.45-2.093-1.073-3.812zm3.392-1.785c1.8 1.035 4.937 6.13 5.605 6.948-1.126-.713-2.236-1.433-3.444-2.019-1.696-.832-3.144-2.183-4.525-3.444 1.14-.382 1.959-1.028 2.364-1.485zm-1.869 6.468c.24.142.458.337.72.442-.157.39-.254.826-.577 1.133-.06.098-.147.129-.246.129-.17 0-.378-.092-.551-.092a.44.44 0 0 0-.036.001c.21-.525.525-.758.69-1.613zm.51-7.024c.046.094.104.125.166.125.08 0 .167-.053.24-.087.18.127.803.112.435.383-.233.315-1.476 1.174-2.34 1.326-.372.065.254.655.457.865 1.17 1.05 2.318 2.16 3.721 2.918.878.496 1.801.938 2.65 1.486.404.585.885 1.126 1.192 1.771-.307.09-.608.218-.923.293a2.168 2.168 0 0 1-.527.061c-.495 0-.994-.147-1.214-.384-.405-.428-.847-2.251-1.08-2.919-.033-.075-.08-.1-.131-.1-.101 0-.219.099-.277.099-.012 0-.021-.004-.027-.014a.293.293 0 0 0-.29-.282c-.132 0-.254.096-.236.297-.045.473-.135.946-.36 1.373-.027.073-.085.101-.16.101-.214 0-.572-.22-.815-.28.097-.579-.69-3.535-3.002-6.011-.08-.088-.433-.459-.402-.459.004 0 .012.005.027.016.118.031.252.052.384.052.253 0 .5-.078.63-.314.019-.06.043-.082.072-.082.103 0 .258.3.422.3a.69.69 0 0 0 .386.115.79.79 0 0 0 .582-.266c.143-.128.278-.255.42-.383zm-.78-3.924c-.236.105-.649.21-1.02.21-.053 0-.106-.003-.158-.007a.603.603 0 0 1-.107.009c-.252 0-.524-.136-.769-.136a.466.466 0 0 0-.264.074c-.413.6-.788 1.268-.833 2.011-.083 1.426-.045 1.92 1.08 3.091.443 1.006 1.268 4.285 1.516 5.178.27.255-.338 1.65-.593 1.996-.139.191-.504.2-.897.2h-.13c-.353 0-.71.008-.931.145-.21.135-.285.638-.165.705.112-.172.337-.405.495-.427-.15.157.375.082.488.12.303.005.61.03.918.03.149 0 .298-.006.447-.023.068-.03.14-.075.172-.075.024 0 .024.027-.022.113.213.055.451.083.685.083.525 0 1.022-.14 1.131-.42a8.15 8.15 0 0 0 .585-1.299c.192.04.433.176.626.176a.284.284 0 0 0 .155-.04c.21-.144.428-.811.548-1.254.011-.046.074-.069.137-.069.06 0 .122.021.14.061.225.45.6 1.831.96 2.41.272.427.931.638 1.632.638.441 0 .9-.083 1.288-.249.487-.21.847-.165.742-.435-.165-.45-.45-.878-.75-1.26.435.27.87.547 1.306.817.036.131.126.183.218.183.177 0 .362-.193.18-.385-1.704-2.461-4.413-6.656-6.289-8.014a2.525 2.525 0 0 0-1.043-.563c-.127-.33-.09-.773-.165-1.148-.075-.743-.525-1.973-1.313-2.446zm18.543.632c.485.02.751.03.866.03h.052l-.062 2.538a3.722 3.722 0 0 1-.966-.575l.11-1.993zm-7.078-.632c-.162.031-.376.13-.35.324v1.414a27.051 27.051 0 0 0-.73-.031c0 .177.146.417.6.417.005.402.078.893.151 1.143l.063.658c0 .073.125.094.26.094.162 0 .34-.031.34-.031l-.026-.658c2.578.021 7.495.151 7.74.151.126 0 .21-.135.21-.323l.062-2.834-1.55-.016-.126 2.208c-1.122.005-3.063.188-4.384.188-.418 0-.778-.016-1.023-.068-.052-.058-.538-.762-.846-.84a1.354 1.354 0 0 0-.182-.021c-.053-.428-.105-.856-.152-1.28.094-.12.308-.088.366-.25.057-.078.02-.208-.09-.214-.062-.026-.234-.031-.307-.031zm7.895 5.49q.139.164.139.81 0 .556-.172.948-.384-.392-.4-.948.008-.646.433-.81zm-1.039-.104q.399 0 .483.146-.049.416-.335.613-.164.155 0 .343.286.22.343.678 0 .23-.744.23T59.92 9.53q-.507-.057-1.137-.605-.727-.556-1.275-.662H57.5q-.26 0-.695.498-.441.507-.85 1.35h-.8q.073-.18 1.123-1.202 1.026-.998 1.221-.998h.01q.547.14.915.43.212.167.433.167.161 0 .327-.09 1.357-.515 2.456-.703.469-.08.764-.08zm.87-.336q-.152 0-.37.056-1.497.025-2.984.466-.417.14-1.08.425-.694-.506-1.332-.604h-.007q-.197 0-.675.45-.487.457-1.533 1.511-.605.63-.826 1.08v.016h1.284v-.393h.4q.45-1.038.826-1.43.322-.336.482-.336.027 0 .05.009.58.18.94.482.359.303.8.564.442.262 1.3.299.515.022 1.266.022.5 0 1.105-.01.19.047.33.047.243 0 .332-.145.286-.703.286-1.26 0-.653-.286-1.127-.083-.122-.308-.122zm-.648 5.062c.485.021.751.032.866.032h.052l-.062 2.537a3.722 3.722 0 0 1-.966-.575l.11-1.994zm-7.078-.631c-.162.031-.376.13-.35.324v1.414a27.051 27.051 0 0 0-.73-.031c0 .177.146.417.6.417.005.402.078.893.151 1.143l.063.658c0 .073.125.094.26.094.162 0 .34-.031.34-.031l-.026-.658c2.578.02 7.495.151 7.74.151.126 0 .21-.135.21-.323l.062-2.834-1.55-.016-.126 2.208c-1.122.005-3.063.188-4.384.188-.418 0-.778-.016-1.023-.068-.052-.058-.538-.762-.846-.84a1.354 1.354 0 0 0-.182-.021c-.053-.428-.105-.856-.152-1.28.094-.12.308-.088.366-.25.057-.078.02-.209-.09-.214-.062-.026-.234-.031-.307-.031z"/><path d="M21.396.375v17.25m0-17.25h2.625m-2.625 17.25h2.625m0-17.25h39.847m-39.847 17.25h39.847m0-17.25h17.625m-17.625 17.25h17.625M65.63.375v17.25M69.155.375v17.25M70.918.375v17.25M72.68 2.1h8.813M72.68 5.55h8.813M72.68 2.1v3.45m1.763-1.725h7.05m-8.813 3.45h8.813m-8.813 3.45h8.813m-8.813-3.45v3.45M74.443 9h7.05m-8.813 3.45h8.813M72.68 15.9h8.813m-8.813-3.45v3.45m1.763-1.725h7.05" fill="none" stroke="#000"/></svg>