<svg xmlns="http://www.w3.org/2000/svg" width="49.91" height="18"><path d="M10.318 4.528c.06 0 .116.007.171.021.258.067.387.152.387.255l-.062.016c-.229-.114-.418-.172-.567-.172a.55.55 0 0 0-.037.002c-.154.01-.36.093-.619.247V4.82c.268-.195.51-.292.727-.292zm.107.362a.218.218 0 0 0-.06.007.98.98 0 0 0-.217.093c.09.007.169.01.238.01a.709.709 0 0 0 .289-.04.629.629 0 0 0-.25-.07zm-.044-.116c.278.02.64.19 1.083.51l-.015.062-.573-.325c-.146.06-.297.091-.453.091-.11 0-.222-.015-.337-.044-.061 0-.216.036-.464.108a.13.13 0 0 1-.054-.124c.005-.051.049-.088.131-.108l.093.03c.3-.133.496-.2.589-.2zm-.914-2.26l-.186.015.372 1.842-.51.108-.59-1.826-.216.046.759 2.105c.247.104.371.207.371.31 0 .361.16.588.48.681l-.155 1.27c.093 0 .16-.072.202-.217.144-.609.304-1.006.48-1.192.092 0 .485.103 1.176.31.083 0 .15-.026.201-.078-.371-.196-.627-.312-.766-.348a1.422 1.422 0 0 0-.34-.054c-.088 0-.137-.047-.148-.14.269 0 .604.078 1.007.233l.387.2.124-.077c-.021-.04-.28-.283-.775-.727s-1-.666-1.517-.666l-.356-1.796zm.666 4.334c0 .217-.119.366-.356.449l.307 2.493-.772.015-.17-2.539c0-.124-.093-.206-.279-.248-.144.042-.216.124-.216.248 0 .444.056 1.463.17 3.058.114 1.594.325 2.954.635 4.08-.145.35-.227.65-.248.897h4.784c-.227-.454-.33-.867-.31-1.238.29-3.128.465-4.815.527-5.063a.686.686 0 0 0-.314-.09.408.408 0 0 0-.275.105c-.165.155-.477.754-.936 1.796-.46 1.043-.808 1.936-1.045 2.679-.351-.95-.738-2.823-1.161-5.62-.166-.681-.28-1.022-.341-1.022zM9.715 2.25l.232 1.641c0 .124.088.201.263.232a1.74 1.74 0 0 1 1.161.666c.671.526 1.012.82 1.022.882.042.083-.02.176-.186.28a1.214 1.214 0 0 0-.356.309c-.485-.176-.877-.29-1.176-.34-.114.195-.18.293-.201.293v.031c.381.578.79 1.73 1.223 3.453h-.542l.51 2.616c.847-2.539 1.58-3.808 2.199-3.808.826.154 1.254.247 1.285.278l-.046.31h-.511l-.48 5.093c0 .403.237.924.712 1.564H8.569c.124-.537.269-.986.434-1.347a30.916 30.916 0 0 1-.589-4.582l-.387.015-.077-2.57c.031-1.373.32-2.234.867-2.585-.031-.145-.289-.862-.774-2.152l.65-.17.588 1.935.14-.031-.434-1.951.728-.062zM22.09 4.122q-.093 0-.179.039-.062.078 0 .125.073-.041.165-.041.227 0 .571.245h.173v-.094h-.173q-.307-.274-.557-.274zm-.014.217q-.092 0-.118.033-.031.04-.031.118 0 .125.164.125.165 0 .447-.094-.298-.172-.423-.18l-.04-.002zm.994.495q-.063 0-.063.063 0 .047.047.047.063 0 .079-.047-.016-.063-.063-.063zm.266-.767q.25 0 .25.172 0 .157-.062.282-.062.125-.219.297-.188.157-.243.165l-.021.001q-.041 0-.073-.025-.039-.03.024-.125l.156-.172.188-.141q.032-.031-.047-.11-.078-.078-.015-.156.034-.044.074-.044.032 0 .067.028.078.063.031.172-.047.11-.25.345l.03.015q.22-.234.26-.313.038-.078.038-.203 0-.126-.188-.126-.094 0-.133.055-.039.055-.039.149 0 .063.094.172l-.11.079q-.078-.188-.039-.353.04-.164.227-.164zm.141-1.347q.83 0 1.378.164.549.165.549.885t-.486 1.057q-.485.337-.736.54-.423-.281-.58-.751.11-.157.11-.345 0-.313-.376-.329-.266 0-.344.298h-.047q-.032-.298-.282-.376-.25-.078-.517-.14.517-1.003 1.331-1.003zm-1.957 2.6l.313.062h-.204q-.125 0-.11-.062zm.375.14q0 .032-.313.11-.01.005-.017.005-.014 0-.014-.02 0-.063.063-.063h.11l.171-.031zm0-1.44q.204 0 .533.078.454.094.47.376.156 0 .156.11-.234.172-.234.36 0 .172.203.172.141 0 .36-.22.157.47.564.8.063.438.22.783-.314.407-.643.407h-.05q-.336 0-.474-.196-.15-.211-.227-.65-.014-.111-.115-.111l-.026.001q-.22 0-.8.063-.124-.047-.14-.117-.016-.07-.047-.18.297-.11.407-.251-.235-.172-.376-.22v-.093q.235-.047.235-.126-.047-.125-.125-.125-.094.016-.063.063.063.062-.102.07l-.059.002q-.105 0-.105-.025 0-.047.031-.094.345-.501.407-.877zm2.6 2.553l.079 1.096q-.524.31-1.015.31-.48 0-.927-.295l.297-.548q.333.12.606.12.651 0 .96-.683zm-6.069 2.673q.335 0 .62.318-.565.015-.753.344-.172-.376-.422-.391-.251-.016.258-.212.153-.059.297-.059zm6.085-1.107q-.016 1.581-.18 3.508-.165 1.926-.525 3.414l.47.25h-5.184l1.065-.438q-.47-2.302-1.175-3.375-.704-1.073-.234-1.386.149-.1.296-.1.318 0 .628.46l2.114 3.007h.532q-.203-3.978.173-5.293.495.255.979.255.527 0 1.04-.302zM18.403 2.25q-.25.61-.61.963-.361.353-.518.736-.156.384-.626 1.418.081.033.156.033.34 0 .533-.707.235-.36.368-.407.009-.003.018-.003.12 0 .178.614v4.087q-.908.627-.517.729.363.094.605.479.111.78.64 1.674.556.94 1.01 2.756l-1.206.517.094.611h6.688l-.8-.971q.47-3.477.47-5.23.08-1.755-.062-3.305l-.11-.016q.141-.313.298-.313.172 0 .172.125l-.078 2.85h.69l-.142-2.881q-.062-.282-.266-.439-.097-.074-.217-.074-.132 0-.292.09-.305.172-.478.564l-.14-.423q.172-.125.454-.345 1.033-.485 1.025-1.644-.008-1.16-1.487-1.284-.293-.025-.544-.025-1.02 0-1.36.408-.422.51-.626 1.026-.031.235-.07.376-.04.14-.227.415-.188.274-.157.352.016.11.204.11 0 .11-.126.141 0 .14.063.188-.078.22.063.266l.062.298q-.031.297-.36 1.206-.423 0-.423.235 0 .234.25.234.03.003.057.003.413 0 .633-.66l.297-.846q.376-.031.533-.078.078.376.204.626-.376.486-.58 1.057-.204.572-.29 1.3-.086.728-.07 3.594l-2.114-2.99q-.188-.267-.455-.424-.296-.37-.69-.37-.106 0-.218.026l-.016-.032V4.865q-.03-1.018-.266-1.221.172-.36.43-.752.26-.391-.054-.642zm10.057.631q1.133.165 1.184 1.035v6.278q-.53-.631-1.9-.887l.717-6.426zm-.318-.631l-.847 7.506q1.888.216 2.349 1.348v1.257h.563V3.916q0-1.41-2.065-1.666zm4.354.631q1.132.165 1.183 1.035v6.278q-.53-.631-1.9-.887l.717-6.426zm-.319-.631l-.847 7.506q1.888.216 2.349 1.348v1.257h.563V3.916q0-1.41-2.065-1.666zm4.055.889L38.28 4.94q-.432.667-1.148 1.346-.68-1.605-.901-3.148zm-.546-.889q-.395 0-.306.543.382.185.32.42-.061.235.05.778t.889 2.58q-.237.804.274.804l.047-.002q1.382 2.543 3.049 4.432h.296l-.074-.827Q38.898 9.73 37.38 6.94q.444-.938 1.246-1.642l2.457 2.21q.186.083.312.083.343 0 .243-.614l-2.468-2.11q.01-.562-.468-.562-.111 0-.248.03l-2.222-1.938q-.34-.148-.546-.148zm-6.629 11.417l-1.762 2.083h.86l.902-1.076.912 1.076.885-1.076.911 1.076.903-1.076.911 1.076.903-1.076.912 1.076.885-1.076.911 1.076.912-1.076.885 1.076.911-1.076.903 1.076h.86l-1.763-2.083-.911 1.007-.885-1.007-.912 1.007-.911-1.007-.885 1.007-.912-1.007-.903 1.007-.911-1.007-.903 1.007-.911-1.007-.885 1.007-.912-1.007z"/><path d="M7.95.375c-9.625 0-9.625 17.25 0 17.25m0-17.25h33.71M7.95 17.625h33.71M49.348.375v17.25M41.66.375c9.625 0 9.625 17.25 0 17.25" fill="none" stroke="#000"/></svg>