<svg xmlns="http://www.w3.org/2000/svg" width="62.599" height="18"><path d="M14.388 2.543c.024 0 .05.003.075.01.144.04.185.159.124.358l-1.041 2.696h-.508l1.106-2.852c.057-.141.138-.212.244-.212zm.86.217c.03 0 .061.005.094.015.165.048.196.171.092.37l-.951 2.462h-.508l1.003-2.617c.062-.153.153-.23.27-.23zm-2.57 3.976c-.082 0-.174.014-.278.043v.13a.933.933 0 0 1 .28-.05c.072 0 .137.013.195.037.126.052.293.087.501.104l-.065-.065a27.78 27.78 0 0 1-.456-.17.494.494 0 0 0-.178-.029zm.1.29l.234.078a1.737 1.737 0 0 1-.235.078c.052-.043.052-.095 0-.156zm-.196 0c-.026.052-.017.109.026.17a.807.807 0 0 1-.156-.053c.008-.043.052-.082.13-.117zm.065-.091c-.113 0-.19.043-.234.13l-.117.065-.014.065.118.026a.42.42 0 0 0 .23.059c.13 0 .288-.041.473-.124h.286v-.09h-.3c-.182-.088-.33-.131-.442-.131zm2.357-1.08l-.886 1.627c-.057.08-.111.121-.162.121a.109.109 0 0 1-.072-.03l-.286-.182c.017-.061.086-.152.208-.274.121-.121.147-.267.078-.436-.04-.096-.115-.144-.226-.144a.834.834 0 0 0-.32.085c-.278-.166-.523-.25-.735-.25l-.06.003a2.686 2.686 0 0 0-.091-.52zm-2.498.74c.223 0 .513.097.87.288.078-.087.156-.13.235-.13.078 0 .119.039.123.117.005.078-.065.18-.208.306s-.21.232-.202.319l.04.013a.64.64 0 0 1-.261.449c-.148.109-.347.167-.6.176a.936.936 0 0 1-.048.001c-.13 0-.188-.033-.173-.099a.206.206 0 0 0-.039-.189l.075.002c.243 0 .307-.042.192-.125-.085-.062-.153-.093-.205-.093a.093.093 0 0 0-.062.021c.035-.13-.034-.2-.208-.208.191-.321.339-.604.443-.847h.028zm.935.965l.378.234c.026.4.108.677.247.834a1.596 1.596 0 0 0-.21-.015c-.05 0-.097.003-.141.008a.546.546 0 0 0-.3.15 2.489 2.489 0 0 0-.325-.664c.225-.165.343-.347.351-.547zM9.55 10.33c.189 0 .366.092.532.277-.313.008-.52.108-.625.3-.087-.218-.195-.34-.326-.365-.13-.026-.06-.085.209-.176a.652.652 0 0 1 .21-.036zm4.4-1.416c.338 0 .55.191.637.573.122.53.14 1.354.052 2.474-.104 1.285-.225 2.348-.364 3.19l.156.234h-4.323l.898-.364c-.26-1.276-.585-2.212-.976-2.806-.39-.595-.456-.979-.195-1.152a.443.443 0 0 1 .246-.083c.176 0 .35.127.522.382l1.758 2.5.312-.026c.191-1.944.395-3.394.612-4.349.104-.382.326-.573.664-.573zm.375-6.664c-.25 0-.419.147-.506.44l-1.12 2.917h-.56c.104.347.157.655.157.924a2.232 2.232 0 0 1-.346.73c-.163.234-.13.351.099.351h.025c-.06.087-.052.139.026.156-.07.035-.078.072-.026.11.052.04.074.125.065.255-.026.382-.128.692-.306.93-.146.197-.279.295-.398.295a.216.216 0 0 1-.077-.014.459.459 0 0 0-.154-.035c-.052 0-.087.018-.106.054-.035.065.01.133.136.202a.324.324 0 0 0 .16.037c.11 0 .248-.04.413-.122.256-.125.489-.514.697-1.165h.364c.113.104.2.256.26.456-.312 1.007-.568 2.482-.767 4.427l-1.758-2.474a1.217 1.217 0 0 0-.365-.365.758.758 0 0 0-.615-.308.995.995 0 0 0-.205.022v-2.8c0-.381-.135-.577-.404-.585a3.21 3.21 0 0 1 .638-.704c.074-.132.073-.198-.005-.198a.66.66 0 0 0-.242.081 8.5 8.5 0 0 0-.573.495c-.217.226-.34.393-.371.501l-.241.853c.005.14.027.21.067.21.032 0 .075-.043.128-.132.035-.113.083-.256.144-.43a.625.625 0 0 1 .351-.377c.148 0 .221.095.221.286v2.852c-.503.27-.644.451-.423.547.206.088.372.244.499.467.062.43.24.89.53 1.382.308.52.588 1.285.84 2.292l-.99.43.065.507h5.56l-.573-.677c.278-2.7.376-4.425.293-5.176-.082-.75-.271-1.165-.566-1.243-.209-.209-.291-.434-.248-.677l.326-.586c.512.373.768.876.768 1.51v6.849h.287V8.901c0-.755-.309-1.345-.925-1.77l.847-1.524h-.6l.925-2.396c.13-.33.072-.543-.176-.638a.927.927 0 0 0-.332-.069.618.618 0 0 0-.312.082c-.061-.191-.237-.302-.528-.332a.705.705 0 0 0-.073-.004zm7.673 0l-.014.001a15.506 15.506 0 0 1-1.122.037c-.08.005-.087.107-.06.165.168.474.313.956.45 1.44h-.02c-.134.003-.271 0-.404.013l-.007.01c-.008-.03-.029-.058-.06-.065a28.706 28.706 0 0 1-1.275-.923c-.01-.002-.02-.005-.032-.005h-.007c-.041.026-.057.084-.08.127-.073.197-.134.399-.216.593-.058.148-.123.294-.167.446.02.042.057.055.097.055.038 0 .08-.012.113-.022.515-.11 1.046-.1 1.57-.107-.052.115-.075.243-.122.36-.021.066-.046.134-.06.202a.092.092 0 0 0-.014 0l-.016.001c-.64.248-1.265.552-1.81.97a6.77 6.77 0 0 0-.75.652c-.005.096.104.127.176.154l.442.182c-.075.103-.094.236-.142.353-.248.726-.596 1.413-.887 2.122 0 .058.055.087.108.087.02 0 .039-.004.055-.012.103-.019.206-.028.309-.03-.022.08-.03.165-.066.24-.174.555-.459 1.065-.674 1.604-.01.058.044.095.097.095a.1.1 0 0 0 .045-.01 6.45 6.45 0 0 1 .796-.092c-.03.074-.036.157-.06.234-.129.545-.317 1.082-.34 1.646-.004.367.04.733.098 1.095.1.595.28 1.174.512 1.73.003.051.05.083.095.083a.081.081 0 0 0 .072-.04c.034-.075.045-.16.07-.238.134-.481.23-.974.272-1.472.042-.43.058-.863.055-1.295-.018-.505-.138-.999-.216-1.497-.013-.075-.023-.152-.042-.226a7.034 7.034 0 0 1 .764.127c.08 0 .098-.107.062-.164-.216-.567-.438-1.134-.62-1.714l.027.005c.22.04.44.091.663.104.07-.058.02-.152-.014-.216-.269-.582-.489-1.193-.576-1.83-.028-.173-.028-.35-.058-.523.19.077.38.154.57.228.082-.02.086-.121.07-.19a2.105 2.105 0 0 1 .266-1.198c.178-.318.436-.58.699-.828.104.09.225.156.342.227l-.059.015c-.216.418-.398.852-.591 1.28-.025.06-.054.12-.063.184.032.052.086.063.143.063.035 0 .071-.004.104-.004h.005l.241-.006c-.027.083-.035.176-.062.259-.154.639-.308 1.279-.46 1.919.018.068.086.082.15.082a.648.648 0 0 0 .055-.003l.397-.014c-.037.105-.053.218-.089.323-.171.628-.346 1.257-.514 1.886.019.07.088.085.154.085a677.2 677.2 0 0 1 .691-.021.867.867 0 0 0-.024.103c-.132.577-.335 1.144-.366 1.74-.002.54.078 1.077.201 1.602.102.423.246.836.41 1.239.007.046.051.077.094.077.025 0 .049-.01.065-.035.035-.062.041-.137.066-.205a8.29 8.29 0 0 0 .314-1.902c.022-.343.034-.687.018-1.03-.035-.492-.147-.974-.225-1.46-.01-.048-.017-.097-.03-.145.222-.007.443-.014.664-.023.079-.06.035-.167.013-.245-.188-.674-.374-1.349-.567-2.021.185-.007.37-.014.554-.023.078-.06.034-.166.011-.243l-.584-1.969.595-.016c.075-.05.039-.15.004-.214-.177-.4-.351-.801-.534-1.199.132-.054.263-.11.39-.171.354.33.663.728.805 1.196.081.278.086.573.058.86.016.044.054.061.095.061a.2.2 0 0 0 .101-.03l.443-.182-.004.004a5.206 5.206 0 0 1-.347 1.696c-.098.265-.22.52-.326.78-.006.057.047.091.098.091a.102.102 0 0 0 .05-.013c.196-.029.39-.067.585-.105-.039.108-.066.221-.11.327-.165.486-.353.965-.534 1.445-.013.057.038.107.091.107a.08.08 0 0 0 .042-.011 5.81 5.81 0 0 1 .716-.116.57.57 0 0 0-.012.066c-.08.447-.167.892-.223 1.342a4.98 4.98 0 0 0-.018.846c.026.713.097 1.429.288 2.118.032.117.064.236.102.351a.08.08 0 0 0 .075.044c.038 0 .075-.021.084-.062a7.92 7.92 0 0 0 .566-2.05c.05-.41.082-.828.004-1.236-.08-.434-.208-.857-.311-1.285-.017-.05-.026-.104-.043-.153.124.003.247.011.37.027.17.018.34.054.511.069.073-.02.067-.116.031-.166-.24-.577-.551-1.13-.704-1.738l-.008-.032c.028 0 .057 0 .086.002.11.008.218.03.326.039.077-.034.058-.134.022-.192-.318-.723-.662-1.437-.908-2.19-.023-.058-.04-.124-.074-.176l-.006-.003c.2-.083.398-.166.596-.252.046-.08-.032-.156-.09-.201-.507-.462-1.064-.874-1.683-1.171a6.493 6.493 0 0 0-.716-.3c-.018-.055-.044-.11-.057-.163-.063-.181-.116-.368-.196-.542a.252.252 0 0 0 .052.004l.06-.001h.152c.46 0 .922.015 1.37.118.014.006.03.009.046.009.046 0 .094-.023.084-.074-.087-.273-.21-.534-.3-.807-.04-.112-.078-.225-.128-.332a.113.113 0 0 0-.06-.008c-.42.308-.834.628-1.27.916-.046.023-.105.07-.073.127v.001a.848.848 0 0 0-.157-.012l-.16.002a1.243 1.243 0 0 1-.068-.001h-.036a.077.077 0 0 0 .004-.029c.17-.508.34-1.022.63-1.476.036-.046.01-.127-.045-.137a.065.065 0 0 0-.012-.001zm6.156 0c-.697 0-1.309.513-1.309 1.171V15.75h.852V3.421c0-.322.284-.427.463-.427.187 0 .475.131.475.527v8.103h.852V3.521c0-.66-.653-1.271-1.333-1.271zm4.142 0c-.697 0-1.309.513-1.309 1.171V15.75h.852V3.421c0-.322.284-.427.462-.427.187 0 .476.131.476.527v8.103h.852V3.521c0-.66-.653-1.271-1.333-1.271zm4.951 0c-.09 0-.179.004-.268.012h-.042c-1.005 0-1.87.969-1.797 1.965-.055.784.108 1.558.151 2.338a.35.35 0 0 0 .326.187.554.554 0 0 0 .455-.245c.236-.33.132-.758.036-1.118-.106-.643-.145-1.359.208-1.936.228-.305.603-.457.977-.457.407 0 .814.18 1.029.541.345.506.252 1.241-.19 1.659-.427.505-1.067.838-1.341 1.464-.174.63-.028 1.288-.087 1.93-.056 2.342-.085 4.684-.13 7.027.122.101.264.12.411.12.086 0 .174-.006.26-.006.07 0 .14.004.206.019.319-.163.293-.573.27-.876-.113-2.457-.03-4.917-.092-7.375.006-.28-.085-.602.211-.762.59-.572 1.217-1.142 1.58-1.894.368-1.09-.457-2.397-1.6-2.536a2.837 2.837 0 0 0-.573-.057zm8.791 4.088q.17 0 .354.078.41.173.41 2.758v2.474H42.16q1.793-2.46 2.46-3.718.667-1.257 1.014-1.473.193-.119.404-.119zm-.197-.528l-.075.001q-.66.014-1.487 1.612-.826 1.598-3.272 4.767h6.336l-.014-3.558q-.069-2.376-.486-2.605-.393-.217-1.002-.217zm8-3.33q.068 0 .128.03.103.052.147.177t0 .198q-.103.117-.206.125h-.03q-.092 0-.205-.037-.088.088-.205.22-.147.191-.397.602-.279.456-.411.647-.309-.177-.514-.177.925-1.145 1.197-1.439.271-.294.396-.33.052-.016.1-.016zm-1.987 2.24q.411.206.5.368.087.161.014.161t-.176.089q-.074-.265-.338-.617zm-.103.427l.646 2.423q-.308 0-.646.235V5.147zm2.063-2.897q-.198 0-.418.194l-1.733 2.071q-.558-.088-.866-.617.205-.25.697-.705.492-.455.404-.602-.042-.088-.144-.088-.252 0-.87.544-.66.47-1.057.763-.205.191-.337.668-.133.478-.397 1-.264.52-.25.814.037.184.122.184.084 0 .216-.184.191-.323.455-.734.265-.411.661-.764.28-.19.529-.235.28.103.426.397v8.106q-.867.235-.896 1.131-.044.338.206 1.043.176.514.66.514-.323-1.219-.323-1.557.03-.675.588-.675.602 0 .631.675 0 .338-.308 1.557.485 0 .646-.514.25-.705.191-1.043.015-.896-.896-1.13V8.421q.456-.323 1.19-.426-.294-1.498-.58-2.056-.253-.494.233-.494.064 0 .141.009-.176-.69-.705-.881V4.5q.033-.003.065-.003.297 0 .64.238.22-.293.5-.778.293-.5.396-.631.103-.133.147-.147.084.03.159.03.187 0 .318-.185.184-.257.008-.499-.177-.242-.397-.272-.026-.003-.052-.003z"/><path d="M8.22.375c-9.625 0-9.625 17.25 0 17.25m0-17.25h46.129M8.22 17.625h46.129M62.036.375v17.25M54.349.375c9.625 0 9.625 17.25 0 17.25" fill="none" stroke="#000"/></svg>