<svg xmlns="http://www.w3.org/2000/svg" width="72.627" height="18"><path d="M3.01.474c.693 0 1.247.2 1.634.479.006.053.02.107.009.16-.05.248-.195.477-.396.63-.316.207-.697.267-1.057.356-.09.01-.019.031.031.04.23.04.707.099.971.099l.052-.001c.278-.032.54-.148.766-.311.079-.067.147-.15.205-.236.147.346.227.713.26.917.018.11.096.2.202.233 1.139.349 2.038 1.91 2.88 2.949 1.729 2.137 3.199 4.526 4.892 6.76-.937-.456-1.87-.916-2.81-1.374-1.92-1.01-3.92-1.816-5.604-3.09l-.008-.008c-.97-.808-1.963-1.66-2.339-2.793-.148-.92 1.757-2.577 1.542-2.646a.207.207 0 0 0-.064-.01c-.458 0-1.753 1.128-2.019 2.202-.003-.014-.01-.03-.014-.045-.073-.356-.154-1.256.068-1.98a.29.29 0 0 0 .01-.103 1.968 1.968 0 0 0-.123-.634c-.063-.17-.139-.344-.26-.765-.031-.108-.142-.328-.208-.345.186-.138.375-.28.645-.375a.434.434 0 0 0-.132.314c0 .23.164.415.365.415.2 0 .364-.186.364-.415V.894a.411.411 0 0 0-.255-.39c.053-.007.096-.019.154-.022.081-.006.16-.008.238-.008zm.67 7.763c.065.065.135.124.202.187.214.78.412 1.64.692 2.305.483 1.145 1.216 2.141 1.84 3.154a1.814 1.814 0 0 0-.385.27 6.831 6.831 0 0 0-.199.193 2.61 2.61 0 0 0-1.186-.897c.045-.723-.108-1.712-.34-2.787a34.903 34.903 0 0 0-.624-2.425zm1.006.908c1.149.945 2.428 1.738 3.676 2.54-.018.91-.018 1.778.084 2.675a3.411 3.411 0 0 0-1.437-.736c-.02 0-.037.012-.057.012-.649-1.063-1.383-2.06-1.837-3.134-.156-.37-.293-.85-.429-1.357zm.407 5.254a2.5 2.5 0 0 1 .44.541.3.3 0 0 0 .257.14.29.29 0 0 0 .17-.053c.215-.156.347-.324.476-.446.047-.045.097-.08.148-.117l.149 2.722c-.213-.014-.435-.035-.637-.035-.264 0-.495.036-.633.172-.169-.134-.497-.164-.89-.164-.102 0-.207.002-.316.004l.836-2.764zM6.25 9.574c1.354.787 2.784 1.414 4.135 2.125a.244.244 0 0 0 .006.003c1.295.631 2.586 1.28 3.894 1.904.984 1.189 2.052 2.295 3.078 3.42l-2.15.362-4.267-4.635a.288.288 0 0 0-.037-.036c-1.499-1.137-3.152-2.082-4.66-3.143zM3.076 0c-.135 0-.273.005-.411.013C1.58.083.792.54.523 1.157c-.04.093-.146.314-.007.314a2.35 2.35 0 0 1 .341-.028c.418 0 .38.172.47.194.09.282.29.846.303 1.068-.244.86-.153 1.763-.064 2.198.15.732.63 1.584 1.261 2.38a.285.285 0 0 0 0 .166 35.3 35.3 0 0 1 .903 3.336c.251 1.168.393 2.277.317 2.823a.294.294 0 0 0 .221.328c.045.011.084.031.127.045l-.928 3.079a2.847 2.847 0 0 0-.593-.055c-.381 0-.756.05-1.064.05-.125 0-.24-.008-.34-.032a.546.546 0 0 0-.125-.012c-.436 0-1.428.306-1.34.879.15-.128.257-.159.375-.159.11 0 .23.027.405.027h.027c.254-.004.697-.083 1.053-.083.18 0 .338.02.438.08.236-.01.45-.013.649-.013.85 0 1.447.07 2.5.075a89.565 89.565 0 0 0 2.974-.079c.45.003.697.054.922.054h.04c.134-.004.265-.057.48-.057.123 0 .273.017.468.07-.25-.341-.877-.685-1.33-.685a.591.591 0 0 0-.302.071 5.081 5.081 0 0 0-.508-.022c-.22 0-.448.01-.678.02l-.157-2.83c.487.203.857.517 1.281 1.021a.295.295 0 0 0 .513-.246c-.192-1.039-.213-2.019-.202-3.06.54.354 1.072.713 1.576 1.094l4.36 4.738a.29.29 0 0 0 .263.09c.95-.159 1.9-.315 2.849-.474a.294.294 0 0 0 .23-.193.298.298 0 0 0-.06-.297c-.741-.83-1.508-1.631-2.25-2.445 1.269.78 2.875 1.755 3.08 1.755.022 0 .027-.013.012-.04-.094-.163-.9-.755-1.775-1.373.14.058.276.12.415.177l.017.01c.103.035.16.059.27.062a.286.286 0 0 0 .108-.016.317.317 0 0 0 .188-.152.32.32 0 0 0 .023-.238c-.017-.05-.038-.077-.054-.098-.061-.085-.103-.109-.162-.154a4.553 4.553 0 0 0-.205-.149c-.153-.105-.336-.223-.493-.328a4.992 4.992 0 0 1-.328-.233.307.307 0 0 0-.028-.025l-3.892-2.736c-.008-.006-.02-.001-.028-.006-1.333-1.869-2.588-3.825-4.046-5.627-.744-.92-1.598-2.528-2.985-3.064-.067-.396-.218-1.127-.755-1.649C4.827.26 4.168.056 3.427.011A5.728 5.728 0 0 0 3.076 0zm20.383 3.383q-.542 0-.628.418v.025q.061.11.258.11.567-.245.567-.455v-.024q0-.05-.197-.074zm1.97-.763q-.086.48-.85 1.034l.271.11.37-.135.184.123q1.416.677 3.755.714l3.67.037.049-.001q.627 0 .61.919-.02.954-.647 1.914-.394 0-.8-.302-.407-.301-.665-.708-.259-.406-.665-1.058.123 1.292.738 2.031-.75 0-1.335.142-.293.07-.488.07-.196 0-.294-.07-.123-.088-.61-.088-.295 0-.726.032-.332.025-.607.025-.668 0-1-.148-.308-.258-.388-.905-.08-.646.363-1.791-.91.652-.91 1.982v.443q-.456-.468-.715-1.034Q24.234 4.7 23.36 4.7q-.332 0-1.28.419-.32-.136-.259-.431l.616-.825q.443-.751.64-.837.099-.185.96-.185.37.099.37.271 0 .234-.246.468.467-.099.677-.554 0-.111.59-.406zm.53-2.62q-.06 0-.136.096-.936 1.49-1.7 2.068-.295.259-.8.27-.246 0-.75-.369-.752-.726-1.047-1.23-.333-.592-.431-.653-.05 0-.074.123 0 .702 1.428 2.598-.27.394-.505.898-.234.505-.554.77-.32.265.062.523 0 .32.53.517.43-.123 1.317-.381.53 0 .726.443.653.985.653 2.056.074 1.428-.985 2.733-.333.222-.333.616 0 .16.407.16.664 0 .664-.16l-.049-.332q0-.173.259-.259v-.025q0-.234.837-2.351.382 0 .603.37.283.935.283 1.55 0 .136-.172.58-.21.16-.258.578h.985l-.074-.308q-.05-.185.135-.32l-.086-.456q-.16-1.736-.16-2.043v-.025q.973-.234 1.496-.234t.806.19q.113.077.316.077.307 0 .823-.175.559-.189.858-.189.159 0 .244.054.246.154.246.523 0 1.354-.69 2.302-.22.222-.332.616h.85q.222-.074.098-.37.025-.32.296-.406 0-1.12.985-2.216.69.382.702 1.182 0 .308-.123.837l-.148.407q-.136.16-.246.603h.812q.148-.062.185-.135l-.123-.394q-.062-.173.172-.308-.123-.653.16-.985-.579-1.354-.579-2.13.308-1.268.394-2.376.148.775.037 1.859-.11 1.083.37 2.24.094.196.17.196.055 0 .1-.097.124-.702.05-3.878-.099-.394-.21-.604-.393-.603-.677-.628H29.8q-2.943 0-4.359-.837.234-.418.259-.572.024-.154 0-.376-.591.173-.887.456l-.246-.185q.258-.16.825-1.034.566-.874.665-1.367Q26.015 0 25.959 0zm6.525 13.464c.65.028 1.007.042 1.16.042h.07l-.084 3.397a4.983 4.983 0 0 1-1.292-.769l.146-2.67zm-9.476-.845c-.217.042-.504.174-.469.433v1.894a36.22 36.22 0 0 0-.978-.042c0 .238.196.56.804.56.007.537.104 1.194.202 1.53l.084.88c0 .098.168.126.35.126.216 0 .454-.042.454-.042l-.035-.88c3.452.027 10.036.202 10.364.202.168 0 .28-.182.28-.433l.084-3.795-2.076-.021-.168 2.956c-1.502.007-4.102.252-5.87.252-.56 0-1.042-.021-1.37-.091-.07-.077-.72-1.02-1.132-1.125a1.813 1.813 0 0 0-.245-.028c-.07-.573-.14-1.146-.203-1.712.126-.161.413-.12.49-.336.077-.105.028-.28-.12-.286-.083-.035-.314-.042-.412-.042zM39.196.696q.927 0 .927 1.222 0 1.075-.927 2.129-.928-1.054-.928-2.129 0-1.222.928-1.222zm0 4.7q.653 0 .653 1.412 0 .8-.653 1.475-.654-.674-.654-1.475 0-1.412.654-1.412zm0 4.257q.653 0 .653 1.413 0 .8-.653 1.475-.654-.674-.654-1.475 0-1.413.654-1.413zm0-9.653Q37.51 0 37.51 1.918q-.022 1.201.558 1.886.58.685.516.917-.737.864-.737 2.087 0 1.012.864 2.17-.864.865-.864 2.088 0 1.011.864 2.15.105.273-.59 1.285-.696 1.012-1.433 3.499h.927q.464-1.644.822-2.35.358-.706.759-1.149.421.443.769 1.149.348.706.812 2.35h.948q-.696-2.487-1.423-3.499-.727-1.012-.6-1.286.843-1.138.843-2.15 0-1.222-.801-2.086.8-1.16.8-2.171 0-1.223-.716-2.087-.063-.232.506-.917t.569-1.886Q40.903 0 39.196 0zm10.227 1.792l-.152.04q-.106-.02-.197-.02-.091 0-.167.02-.152.051-.182.112-.03.061-.102.112l.051.06.081-.04q.064.029.136.029.18 0 .41-.181l.153-.02-.03-.112zm.74-1.449q.547 0 .769.559.243.627.01 1.073-.195.356-.44.356-.062 0-.127-.022-.172-.061-.101-.172.141-.132.04-.345.101-.324.02-.475-.081-.223-.25-.223-.061 0-.134.03-.132.081-.172.172-.34-.077-.61-.077-.335 0-.565.118.05-.405.385-.648Q49.322.456 50 .355q.085-.012.163-.012zM45.02 5.447q1.255.79 2.136 1.073l.435.111q-.435.172-2.055.709-.172-.152-.466-.172l-.283-1.58q.131-.04.233-.141zm5.048-4.168q.086 0 .114.108.061.173-.02.426.061.192-.05.202-.02.003-.035.003-.09 0-.107-.094-.05.111.314.567.354.466 1.053 1.144.698.688.769 3.837l-1.407.708q-.284-1.873-1.316-3.209-.253-.283-.132-.536.132-.243.87-.638.365-.152.102-.365-.253-.212-.324-.455-.172 0-.364.152-.318.159-.45.159-.027 0-.046-.007-.112-.041-.132-.193l.152-.152q.07-.06 0-.111l-.304.07q.05-.262-.132-.283-.063.041-.105.041-.05 0-.067-.06-.04-.132.071-.386.061-.243.193-.374.121-.112.312-.112h.032q.07.004.14.004.14 0 .275-.014l-.02-.111q-.076.01-.165.01-.089 0-.19-.01-.047-.005-.09-.005-.296 0-.446.238-.02-.152 0-.213.256-.178.613-.178.25 0 .55.087v.132q.046.01.084.01.038 0 .069-.01 0-.324.111-.365.044-.017.078-.017zm2.27 6.648q.588 1.033.578 1.833-.01.8-.162 2.57l-2.572-.02.588-3.694 1.569-.689zM50.25 0h-.037q-.699.02-1.286.365-.648.344-.627 1.346.05.274-.03.537-.072.253-.051.516.043.109.138.109.038 0 .084-.018.047-.02.076-.02.068 0 .025.122-.04.02-.02.07.014.027.045.027.016 0 .036-.006-.057.142.029.142h.012l.016-.001q.076 0 .085.092.01.11.121.232.044.044.133.044.138 0 .384-.104l.364-.193q.03.091.132.213-.86.263-1.256.972-.577.698-.941 1.447-.87-.253-2.571-.971-.152-.213-.496-.274l-.436-2.338q-.131-.73.344-1.296L44.2.78q-.628.537-.426 1.64l.385 2.227-.344.02q-.04.173.172.254-.04.668.344.698l.284 1.549q-.223.04-.436.07-.02.193.243.254-.088.648.357.648h.028l.04.395.456-.092-.091-.415q.111-.06.223-.1 2.176-.264 2.692-.78.699-1.084 1.023-1.68.709.576 1.164 2.803h-.055q-.479 0-.43.345.039.285.27.285.065 0 .144-.022l-.688 4.16q-.608 2.703-.88 3.351-.153.517-.507.618-.365.091-1.164.547-.446.09-.496.243-.04.151.212.182.052.006.115.006.23 0 .604-.087.19-.04.416-.04.34 0 .758.09.097.02.178.02.516 0 .42-.779-.04-.567.658-1.61.698-1.042.769-2.47l.324-.324 1.033-.02.02.496q.283 1.944.304 2.561.131 1.003-.243 1.155-.385.141-1.155.597-.455.07-.516.223-.05.151.213.192.063.01.14.01.232 0 .589-.091.187-.044.43-.044.376 0 .886.105.118.024.21.024.57 0 .134-.915.03-.952.212-1.974.183-1.023-.212-2.065l.202-.274.122-2.794q.03-1.205-.84-2.693-.04-.546-.132-1.923-.081-1.387-.75-2.005-.667-.627-.738-.759.374-.263.496-.688.132-.436-.162-1.185Q50.929 0 50.25 0zm12.628.259v.943h-.277V.26zm1.647 0v.943h-.278V.26zm.832 0v.943h-.296V.26zm-1.665.018v.944h-.277V.277zm-1.72.389q-1.776 1.24-3.07 1.24-1.277 0-2.24-1.24zm9.23 0q-.954 1.249-2.328 1.249h-.02q-1.388-.01-2.85-1.249zM55.332 0q1.332 2.608 3.644 2.608 1.702 0 3.09-1.073h3.755q1.202 1.073 3.107 1.073 2.276 0 3.7-2.608zm3.604 7.143c.887 0 1.997.456 2.534.993.47.47.532 1.093.549 1.672h-6.14c.018-.58.08-1.202.55-1.672.536-.537 1.62-.993 2.507-.993zm0-.496c-1.052 0-2.184.486-2.848 1.15-.68.68-.757 1.576-.757 2.246v.261h7.21v-.261c0-.67-.05-1.566-.731-2.247-.664-.663-1.822-1.15-2.874-1.15zm5.956-2.387v6.044h1.011V4.26zm3.362 0v6.044h1.011V4.26zm3.362 0v6.044h1.011V4.26zM55.33 11.956V18h1.012v-6.044zm3.258 0V18h1.011v-6.044zm3.257 0V18h1.011v-6.044zm3.257 0V18h1.011v-6.044zm3.257 0V18h1.011v-6.044zm3.257 0V18h1.011v-6.044z"/></svg>