<svg xmlns="http://www.w3.org/2000/svg" width="122.558" height="18"><path d="M17.338.568q-.111.037-.111.128t.07.146q.027.022.054.022.04 0 .077-.05.063-.081.021-.163-.041-.083-.11-.083zM1.95.47q-.153 0-.296.282.084.183.264.237.028.01.054.01.131 0 .224-.229 0-.255-.194-.292Q1.975.47 1.949.47zM.945.787q-.042.128.027.238l-.583.073Q.375.934.945.788zm.568.436zm.105-.003q.12 0 .195.033.027.012 0 .012-.052 0-.288-.04.05-.005.093-.005zm2.564 1.252q.035 0 .097.068 1.125 1.223 2.792 2.865Q8.74 7.048 8.947 7.724 7.585 7.468 6.62 6.318q-.966-1.15-1.681-2.236-.716-1.086-.799-1.414-.017-.196.042-.196zm.046-.868q.202 0 .384.096 4.321 4.308 4.946 5.604.584 1.405.764 2.154-.076.11-.182.11-.087 0-.193-.074l-.57-1.515q-.43-1.296-2.104-2.875-1.674-1.579-2.424-2.5-.441-.542-.676-.542-.164 0-.227.268-.108.455-.38.455-.115 0-.26-.081.126-.858.542-1.022.198-.078.38-.078zm.357 6.43q.666 1.405.541 2.83-.125 0-.236.236-.045-.403-.277-.403-.051 0-.112.02.292-1.405.084-2.683zM2.107.346q.066 0 .116.013.25.063.292.237.029.122.058.122.013 0 .025-.022.042-.073.056-.164.305.53.041 1.57t.848 1.24q1.028 3.104 2.209 4.72 1.18 1.615.986 3.038-.449-.438-.993-.438-.113 0-.23.019.042-1.296-.472-2.556t-.945-1.889q-.43-.63-1.16-1.497-.73-.867-.722-1.789.007-.921.194-1.286.188-.365.181-.584-.003-.091-.027-.091-.035 0-.112.182-.132.31-.73.328l-.07.001q-.568 0-1.235-.274l.82.073q.404.11.601.11.162 0 .183-.074.049-.164-.076-.192-.125-.027-.257-.027t-.201.055l.026.052-.29-.052Q1.042.787 1.167.623q.028-.055.097-.055-.028.183.049.274.028.034.056.034.046 0 .09-.098.07-.155-.125-.228.511-.204.773-.204zm15.412.04q.375 0 .555.365.056.055.695.2v.056l-.695.073q-.597 0-.75-.12-.153-.118-.146-.273.007-.155.188-.155.18 0 .25.082t.035.173q-.035.092-.132.147h.028q.18 0 .187-.22.007-.237-.299-.273-.389 0-.291.374.092.357.854.357l.076-.001q.431-.037.765-.128L18.81.97q1.236 1.004 1.16 2.29-.077 1.288-.966 2.136-.889.85-1.584 1.871-1.083 1.734-1.167 2.72-.083.986.376.986.458 0 1.118-.721.66-.721 1.34-.74 1.82.055 1.612 2.209-.667-.93-1.5-.93-.417 0-1.14.474-1.097.766-1.667.766l-.472-.091q-.861-.84-.583-2.482.416-1.187 1.125-4.235.486-1.734.965-2.628.48-.895 1.022-.913.291 0 .944.365.027.01.047.01.094 0 .037-.21-.526-.429-1.226-.429-.225 0-.47.045-.208 0-.506-.146-.3-.146-.3-.694.251-.237.543-.237zM3.946 3.05q1.083 1.825 1.986 3.002.903 1.178 1.702 1.588.799.411 1.48.43.083.145 1.653 4.617l-.097.055-3.738-3.14q.028-.273-1.104-1.962-1.132-1.687-1.994-4.46l.112-.128zm3.834 7.867l2.07 1.66q.07.256-.5.348-.127.02-.233.02-.37 0-.49-.248-.152-.32-.389-.831-.236-.511-.458-.95zm7.071-.785q0 .767.167 1.332.43 1.004 1.153 1.023h.038q.711 0 1.699-.657.938-.625 1.365-.625.034 0 .066.004.416.055.903.566.486.51.514.894.05.311-.043.311-.06 0-.18-.128-.399-1.05-1.024-1.05h-.01q-.633.01-1.557.648-.923.639-2.153.639t-1.368-1.04q-.14-1.04.43-1.917zm-10.294 1.06l.208.547q.195-.255.299-.3l.005-.002q.088 0-.304 1.543l-.583.238q-.153-.146.09-.904.243-.757.285-1.122zm14.763 1.14q.461 0 .727.502-.18.384-.847.603-.514 0-1.042-.566.685-.539 1.162-.539zm-1.607.758q.207.265.448.438h-1.883q.692-.095 1.435-.438zm-7.182 1.15q-1.554 2.935-4.48 3.011-2.913-.076-4.467-3.011zm11.239.018q-1.554 2.935-4.48 3.012-2.913-.077-4.48-3.012zM2.346.008q-.084 0-.179.013-.222 0-1.264.42Q.069.696 0 1.098l.028.62.417-.2q.68.292 1.139.292.458 0 .347.41-.111.411.028 1.37.139.958 1.097 1.934.959.977 1.188 2.556.23 1.578-.41 3.641l.209-.164q.004-.004.007-.004.046 0-.216.816-.277.867-.757.894-.084.005-.16.005-.348 0-.486-.105-.155-.12-.462-.12l-.045.001q-.34.01-.34.302v.182H.61Q2.21 17.982 6.057 18q3.849-.018 5.446-4.472l-4.279.037q0-.165-.264-.356-.129-.094-.296-.094-.175 0-.391.103-.13.061-.278.061-.337 0-.771-.317.097-.639.236-1.14.139-.503.528-.594.036-.008.073-.008.362 0 .816.811.264-.675.153-1.825l.139.128q1.042 2.3 1.257 2.701.163.305.634.305.15 0 .331-.031.75-.128.737-.475l.639.42.486-.237-1.07-3.048q.264 0 .487-.292-.264-1.096-.82-2.446-.39-.822-.792-1.278Q7.961 4.603 6.78 3.39T5.043 1.518q-.373-.28-.775-.28-.226 0-.461.088-.653.246-.792 1.214-.042-.037.07-.73.11-.694-.05-1.287-.138-.514-.689-.514zM17.566 0q-.252 0-.478.094-.292.11-.347.42-.111.383.097.757.208.374.653.466-.89 1.058-1.514 3.741-.584 2.556-.973 3.779-1.042 1.113-1.035 2.236.007 1.122.424 1.597.301.343.878.438h-3.434q1.597 4.454 5.446 4.472 3.848-.018 5.445-4.472h-2.674q.153-.11.313-.256.156.245.354.245.083 0 .174-.044.347-.219.139-1.004.194-2.245-.459-2.865-.653-.621-1.473-.621-.75 0-1.625.849-.543.526-.743.526-.124 0-.118-.198.014-.52.611-1.761.403-.876 1.75-2.254 1.348-1.378 1.334-2.775-.014-1.396-.597-2.099-.584-.703-1.292-.794-.111-.2-.292-.328-.18-.128-.48-.146Q17.609 0 17.567 0zm8.908 0c-.93 0-1.746.684-1.746 1.562V18h1.136V1.562c0-.43.379-.57.617-.57.25 0 .634.175.634.703v10.804h1.136V1.695C28.25.815 27.38 0 26.474 0zm12.008 1.28q.146 0 .275.199.156.24.15.54-.007.3-.202.352-.03.009-.06.009-.149 0-.279-.218-.156-.26-.15-.54.007-.28.202-.332.033-.01.064-.01zm-7.28 0q.145 0 .273.192.156.234.143.54-.013.307-.195.359-.031.009-.061.009-.148 0-.278-.211-.156-.254-.15-.54.007-.287.202-.34.034-.009.066-.009zm2.46.009q.14 0 .262.19.156.24.15.54-.007.3-.202.352-.031.009-.061.009-.149 0-.284-.211-.163-.254-.15-.534.013-.28.208-.332.04-.014.077-.014zm2.397-.009q.147 0 .275.199.156.24.15.547-.007.306-.202.345-.031.009-.061.009-.148 0-.278-.211-.156-.254-.15-.534.007-.28.202-.345.033-.01.064-.01zM32.7 8.194l.43 1.563h-2.305q.417-1.563 1.876-1.563zm2.45 0l.43 1.563h-1.772l-.43-1.563zm.651 0l1.772.013.43 1.55h-1.76L35.8 8.194zm4.195.013l.43 1.55h-1.772l-.43-1.55zM31.189 0l-.756.208.39.756q-.273.078-.273.567 0 .488.241.872.241.385.45.45l1.302 4.768q-1.771 0-2.292 2.136v.6H41.1l-.012-.6h.013l-.43-1.563h.417v-.56h-.573v.013l-1.394-4.964q.156-.169.163-.625.006-.456-.241-.866-.208-.345-.444-.345-.045 0-.09.013L38.457 0l-.742.208.404.769q-.287.065-.287.554 0 .488.235.872.234.385.443.45l1.341 4.78h-1.784l-1.355-4.95q.143-.156.15-.612.006-.456-.241-.866-.214-.354-.457-.354-.038 0-.077.009L36.034 0l-.742.208.404.769q-.287.078-.287.56 0 .482.241.866.241.385.45.463l1.328 4.768h-1.784l-1.355-4.937q.143-.17.15-.626.006-.456-.241-.873-.203-.342-.433-.342-.05 0-.101.017L33.624 0l-.742.208.39.769q-.273.078-.273.56 0 .482.235.866.234.385.443.45l1.328 4.78h-1.784l-1.368-4.95q.143-.169.15-.625.006-.456-.248-.866-.213-.345-.44-.345-.044 0-.087.013l-.04-.86zm6.094 12.525v4.811h-3.228v-4.811zm-3.892-.679V18h4.57v-6.154zM45.224 1.353q-.14 0-.176.146 0 .15.157.15.026 0 .057-.004.214-.03.525-.107-.39-.175-.545-.185h-.018zm-.118-.204q.272.039.798.175.194.39.33.39.156 0 .254-.118.052-.037.089-.037.058 0 .076.096.03.155-.263.486.02.837.409 1.498-.272-.175-.438-.175-.165 0-.263.098 0-.312-.038-.7-.217-.23-.475-.23-.114 0-.236.044-.146.054-.24.054-.166 0-.178-.16-.097-.195-.058-.37-.04-.195-.215-.273l.448-.778zm.905-.779q.477 0 1.021.224.545.224.565 1.06.02.954.02 1.713v2.646h-.312V3.678q-.526-.68-.545-1.44.272-.389.234-.7-.04-.292-.312-.302h-.04q-.243 0-.368.107-.059-.272-.487-.37-.545-.116-.486-.136.233-.467.71-.467zm.348 3.865q.06 0 .129.008.33.078.311.408.078 1.518-.097 2.841.428 1.09.097 1.966-.214 1.303-.156 3.989l-.02 3.19q.273.78-.038.838h-1.927q.896-.39 1.46-1.11.156-.739.078-1.926-.078-1.187-.613-4.378t.32-5.468q.035-.358.456-.358zM46.058 0q-.805 0-1.03.507-.233.525-.506.875-.253.37-.33.545 0 .078.058.136.175.078.214.214.058.467.087.604.03.136.244.194l-.292 1.031q-.35.117-.136.331.084.084.168.084.13 0 .26-.2l.564-1.246q.049-.068.141-.068.093 0 .229.068l-.059.837h-.02q-.33.467-.33.74-.74 2.218-.428 4.407.311 2.189.603 4.144.292 1.956.214 2.637-.292.837-1.887 1.557-.72.175-.72.603h3.97q.466-.292.058-1.401v-5.624q0-1.109.194-1.342.37-1.051-.116-2.14l.155-.935h.662V3.29q0-1.226-.02-1.751-.02-.525-.262-.944-.244-.418-1.625-.593L46.058 0zm9.849.911v2.43q-.537-.8-3.22-.8h-1.984V.911zm.03-.911q-1.093.202-3.25.202h-2.662V3.25h2.662q1.408 0 2.015.293.618.294 1.205.84L55.937 18h1.174V0zm11.011.534c.954 0 2.148.49 2.726 1.068.505.505.572 1.176.59 1.798H63.66c.018-.622.085-1.293.59-1.798.578-.578 1.744-1.068 2.698-1.068zm0-.534c-1.132 0-2.35.523-3.063 1.237-.732.732-.815 1.695-.815 2.416v.281h7.756v-.28c0-.722-.055-1.685-.787-2.417C69.326.523 68.08 0 66.948 0zm0 6.563q2.76 0 5.854 1.334-3.094 1.297-5.854 1.297-2.742 0-5.854-1.297 3.112-1.334 5.854-1.334zm0-.852q-3.409 0-7.837 2.167 4.428 2.15 7.837 2.15t7.836-2.15q-4.409-2.167-7.836-2.167zm-.252 6.093l-.018.009 3.22 6.169h1.214l-3.22-6.178zm-2.698.009l-1.214.009L66.004 18l1.214-.009-3.22-6.178zM86.045.924c.296 0 .475.05.568.103.269.172.14.583.097.84h-1.33c-.032-.263-.177-.664.098-.84.092-.053.27-.103.567-.103zm-7.39 1.552V3.4h-1.261v-.924zm6.556 0V3.4H78.96v-.924zm1.52 0V3.4h-1.216v-.924zm6.105 0V3.4h-5.8v-.924zm1.632 0V3.4h-1.329v-.924zM83.374 0l-.43.431 1.44 1.436h-7.6v2.142h18.292V1.867h-7.37L89.147.43 88.716 0l-1.331 1.327c-.08-.804-.631-.989-1.34-1.012-.757.02-1.222.192-1.34 1.012L83.375 0zm-4.346 15.347L76.784 18h1.095l1.15-1.37 1.16 1.37 1.127-1.37 1.16 1.37 1.15-1.37 1.16 1.37 1.15-1.37 1.16 1.37 1.128-1.37 1.16 1.37 1.16-1.37L91.673 18l1.16-1.37 1.15 1.37h1.094l-2.243-2.653-1.16 1.282-1.128-1.282-1.16 1.282-1.161-1.282-1.128 1.282-1.16-1.282-1.15 1.282-1.16-1.282-1.15 1.282-1.16-1.282-1.127 1.282-1.16-1.282zM101.238 0q-.24 0-.261.21l.232-.05q.146 0 .08.153-.167.16-.05.472-.213.46-.821.46l-.074-.002q.03.342-.145.517-.611.349-.611.64.48.225.16.552-.32.327-.32.444.21.065.29.225.364.887.735 1.258l-.029.298q.356 0 .393-.378-.67-.814-.647-1.738.029-.923 1.17-1.818.327-.181.327-.705 0-.538-.429-.538zm4.363 0q-.429 0-.429.538 0 .524.313.705 1.156.895 1.185 1.818.022.924-.662 1.738.051.378.393.378l-.022-.298q.364-.37.734-1.258.088-.16.284-.225 0-.117-.313-.444-.312-.327.16-.553 0-.29-.603-.64-.175-.174-.16-.516l-.072.002q-.595 0-.808-.46.11-.312-.05-.472-.066-.153.08-.153l.232.05Q105.84 0 105.6 0zm-2.185 3.985q.854 0 1.712.654.67.567.08 1.302h-3.591q-.59-.735.094-1.302.85-.654 1.705-.654zm-2.57 2.203q-1.01 1.178-1.01 1.796.08.356.312.356.305 0 .392-.276 0-.916.393-1.535l-.087-.341zm5.148 0l-.088.341q.393.619.393 1.535.08.276.393.276.225 0 .312-.356 0-.618-1.01-1.796zm-3.185.13q.473 0 .473.502v3.789q-1.484 0-1.68-.953-.196-.952-.022-3.337zm2.429 0q.196 2.386-.008 3.338-.203.953-1.687.953V6.82q0-.501.473-.501zm-1.927-4.05v.262q0 .182-.146.182-.225 0-.538-.262h-.16l.502.946-.16.05q-.262-.341-.524-.705-.04-.018-.072-.018-.08 0-.095.12l.393.683q-.276.226-.276.393-.437 0-.655.342-.632.443-.632.981 0 .408.261.931-.181 1.01-.181 2.545 0 1.01.349 1.622.356.61 2.035.61 1.68 0 2.03-.61.355-.611.355-1.622.015-1.534-.167-2.53.262-.538.262-.946 0-.538-.64-.981-.225-.342-.647-.342 0-.167-.298-.393l.392-.683q0-.12-.075-.12-.029 0-.07.018-.262.364-.523.706l-.16-.051.487-.946h-.146q-.327.262-.56.262-.123 0-.123-.182v-.26zm-2.874 6.413h-.027q-.851 1.506-.851 2.371t.298 1.389q.305.523.829.632-.705-.945-.705-1.512 0-.56.13-.916.117.996.524 1.403-.182-.8-.167-1.687.007-.894.298-1.33.014-.35-.329-.35zm5.965 0q-.342 0-.328.35.276.436.29 1.33.015.887-.16 1.687.408-.407.524-1.403.131.356.131.916 0 .567-.705 1.512.523-.109.814-.632.298-.524.298-1.389t-.836-2.37h-.028zm-2.99 6.518q2.232 0 4.734 1.078-2.502 1.049-4.734 1.049-2.216 0-4.733-1.049 2.517-1.078 4.733-1.078zm0-.69q-2.756 0-6.336 1.753Q100.656 18 103.412 18q2.757 0 6.337-1.738-3.565-1.752-6.337-1.752zm14.114-11.974q-.166 0-.292.073-.23.133-.23.254.332-.11.588-.11.192 0 .342.062.35.144.93.193l-.145-.121q-.531-.193-.894-.302-.163-.049-.299-.049zm.227.52l.41.169q-.217.097-.434.12.169-.12.024-.289zm-.362 0q-.097.169.024.314-.17-.048-.29-.097.048-.12.266-.217zm.099-.163q-.308 0-.437.235l-.218.145v.121l.194.024q.177.108.43.108.368 0 .898-.229l.507.073.024-.193-.556-.024q-.519-.26-.842-.26zm1.523-1.838q.563 0 1.166.214.882.314 1.304 1.244.423.93-.12 1.98-.398.767-.782.767-.141 0-.28-.103-.52-.387-.52-.942.483-.435.604-.845.12-.41-.012-.749-.133-.338-.507-.398-.065-.01-.13-.01-.311 0-.631.24-.604-.339-1.594-.58.194-.628.99-.773.252-.045.512-.045zm-1.84 1.204q.942.17 1.932.676l.193-.048q.204-.188.357-.188.082 0 .15.055.193.157.097.471-.097.314-.749.845.218 1.28 1.207 1.738-.302.688-.93.688-.276 0-.615-.132-.072-.894-.627-1.4.82-.435.893-1.57h-.12q-.122 1.014-.737 1.328-.616.314-1.002.362-.109.018-.187.018-.236 0-.2-.163.049-.217-.072-.362.126.007.225.007.542 0 .246-.224-.24-.183-.385-.183-.065 0-.11.038.096-.362-.386-.362.555-.894.82-1.594zm4.008 4.008q.7 1.256.894 2.704l-.483.097q-.048-1.4-.41-2.8zm-.53.048q.53 1.135.53 4.733 0 3.597-.7 5.987l.604.483h-8.475v-.048l2.294-.773q-.82-3.621-1.835-5.311-1.014-1.69-.447-2.077.142-.096.292-.096.45 0 .976.869l3.356 4.49h.434q.46-5.552 1.039-7.701.405.164.75.164.724 0 1.181-.72zM116.87 0q-.047 0-.095.013-.181.048-.326.133-.145.084-.096.193.04.089.2.089.036 0 .077-.005.033-.003.056-.003.137 0-.08.124-.253.145-.181.724.072.58.435.749-.194.797-.664 1.473-.455.652.205.652h.048q-.169.24.048.29-.193.12-.048.216.145.097.097.46-.29 1.713-.773 2.377-.396.545-.736.545-.074 0-.145-.026-.177-.064-.292-.064-.144 0-.191.1-.084.182.254.363.117.063.282.063.308 0 .78-.22.724-.338 1.593-2.921l.41-.121q.508.386.629 1.207-.725 2.487-1.111 7.364l-3.284-4.612q-.604-.526-1.064-.526-.257 0-.469.164-.591.459-.676.785-.084.326.894 2.137.977 1.81 1.678 4.635l-2.246.773.12.869h9.924l-1.062-1.183q.627-2.028.627-7.219l.87-.12q0-2.005-1.256-3.96 1.183-1.835.676-3.055-.507-1.219-1.436-1.569-.817-.308-1.69-.308-.12 0-.242.006-1.002.049-1.557 1.063-.218-.338.06-.604.278-.266.109-.628.048-.193-.109-.326Q116.998 0 116.87 0z"/></svg>