<svg xmlns="http://www.w3.org/2000/svg" width="97.389" height="18"><path d="M11.495 7.79c.805 0 1.813.414 2.301.902.427.426.483.992.499 1.518H8.718c.016-.526.072-1.092.499-1.518.487-.488 1.472-.902 2.278-.902zm0-.451c-.956 0-1.984.441-2.587 1.044-.618.618-.688 1.432-.688 2.04v.238h6.55v-.237c0-.61-.047-1.423-.665-2.04-.603-.604-1.655-1.045-2.61-1.045zm9.492 1.18c1.02 1.145 1.864 2.453 2.617 3.781.158.195-.02.374-.15.559-.496-1.575-1.637-2.79-2.467-4.34zM20 2.736c.085.396-.071.854-.372.989l.096.205c.376-.178.737-.713.79-1.193.514.03.654.417.735.865.096.307-.002 1.05.387 1.179 1.146.444 2.023.957 2.81 1.734 1.358 1.698 2.777 3.342 4.135 5.042a69.07 69.07 0 0 0 1.401 1.725c-2.062-1.542-4.366-2.72-6.626-3.946-1.201-.652-2.348-1.186-2.348-2.623 0-.773 1.425-1.42 1.366-1.521-.005-.01-.022-.013-.048-.013-.292 0-1.789.555-1.789 1.725 0 .324.087.625.238.905h-.007c-1.641-.87-1.38-2.63-1.317-4.18-.682-.038-1.244-.41-1.892-.565.503-.065 1.004-.15 1.507-.201a.4.4 0 0 0-.238.15c-.009.166.178.239.36.239.179 0 .352-.07.335-.19a.457.457 0 0 0-.39-.206c.25-.036.584-.09.867-.12zm2.867 9.977c.147.357.224.736.307 1.11.239-.193.47-.392.667-.628-.128.694-.366 1.395-.945 1.395-.35 0-.512-.237-.288-.954.106-.338.19-.66.26-.923zm-.628-3.438c2.34 1.247 4.658 2.506 6.872 3.969.521.422.985.893 1.3 1.334-.209.324-.606.435-.973.46-1.873-.066-2.607-1.872-3.597-3.162l-.538-.654.093.838c.006.15.16.864-.07.864a.17.17 0 0 1-.067-.016l-.947-1.134c-.101.067-.197.143-.301.205-.47-.95-1.157-1.836-1.772-2.704zm-2.02-7.025c-.492 0-.996.088-1.474.133-.57.278-1.147.066-1.745.283-.431.194-.552.587-.73.98a2.19 2.19 0 0 1 .703-.12c.697 0 1.257.351 1.993.538-.001.37-.059.788-.087 1.21-.114 1.145.49 2.15 1.361 2.865.625 1.39 1.489 2.457 2.12 3.542-.076.488-.53 2.327-.753 2.988a8.341 8.341 0 0 1-1.365.115 7.003 7.003 0 0 1-.593-.024c-.354 0-.744.606-1.127.93l7.772.06c-.198-.7-1.58-1.072-2.07-1.072a.685.685 0 0 0-.075.003c.173-.495.389-.96.45-1.653.217.195.46.404.764.426.371-.028.522-.281.569-.612.84 1.39 1.781 2.526 3.506 2.693.596-.029 1.339-.29 1.5-.923.79-.044.21-.815-.083-1.116-2.151-2.33-3.927-4.988-6.053-7.334-.819-.808-1.743-1.354-2.888-1.807-.085-.21-.113-.507-.169-.835-.06-.357-.25-.942-.6-1.124a2.667 2.667 0 0 0-.926-.146zm16.671 0c-.09 0-.096.283-.224.701-.146.476-.254 1.472-.592 1.665a.298.298 0 0 1-.153.039c-.1 0-.201-.038-.312-.038a.409.409 0 0 0-.127.02c-.158.05-.242.297-.409.326-.69.12-1.637.075-2.165.123-.34.03.567.698 1.473.698h.039c.188-.005.386-.013.584-.013.33 0 .658.024.927.135.265.109.576.425.572.735l-.11 9.109h1.02L37.36 5.461c0-.276.796-.464.9-.702.182-.415.09-2.247-.204-2.493a.016.016 0 0 0-.01-.004c-.132 0-.379 1.92-.766 2.333-.04.043-.118.062-.185.062-.073 0-.133-.022-.122-.062.247-.838.346-2.061-.04-2.329a.077.077 0 0 0-.043-.016zm8.756.63q2.04 0 4.327.986-2.287.959-4.327.959-2.027 0-4.328-.96 2.3-.985 4.328-.985zm0-.63q-2.52 0-5.793 1.602 3.273 1.589 5.793 1.589t5.792-1.589Q48.18 2.25 45.646 2.25zm0 4.844c.682 0 1.536.35 1.95.763.361.362.408.842.422 1.287h-4.724c.013-.445.06-.925.422-1.287.413-.413 1.247-.763 1.93-.763zm0-.382c-.81 0-1.681.374-2.192.884-.523.524-.583 1.213-.583 1.729v.2h5.549v-.2c0-.516-.04-1.205-.563-1.729-.51-.51-1.402-.884-2.211-.884zm4.261 4.863c.599.026.927.039 1.068.039h.065l-.078 3.126a4.587 4.587 0 0 1-1.19-.708l.135-2.457zm-8.723-.778c-.199.038-.463.16-.43.399v1.743c-.387-.02-.785-.039-.901-.039 0 .219.18.515.74.515.006.495.096 1.1.186 1.409l.077.81c0 .09.155.116.322.116.2 0 .418-.039.418-.039l-.032-.81c3.178.026 9.237.186 9.54.186.154 0 .257-.167.257-.398l.077-3.493-1.91-.02-.155 2.721c-1.383.007-3.776.232-5.403.232-.515 0-.959-.02-1.261-.084-.064-.07-.663-.939-1.042-1.035a1.669 1.669 0 0 0-.225-.026c-.065-.528-.129-1.055-.187-1.576.116-.148.38-.11.45-.309.071-.096.026-.257-.109-.264-.077-.032-.29-.038-.38-.038zM55.46 2.708q-.203 0-.385.267.114.186.344.244.037.01.072.01.168 0 .286-.225-.014-.259-.243-.287-.038-.009-.075-.009zm-1.303.31q-.043.129.043.244l-.76.071q0-.172.717-.315zm4.187 1.65q.047 0 .129.07 1.448 1.205 3.599 2.818 2.15 1.613 2.408 2.258-1.749-.244-2.996-1.37-1.248-1.125-2.165-2.193-.918-1.068-1.033-1.398-.017-.186.058-.186zm.049-.846q.26 0 .496.1 5.577 4.229 6.38 5.49.76 1.391.99 2.123-.094.1-.225.1-.11 0-.249-.072l-.745-1.49q-.56-1.263-2.717-2.811-2.158-1.549-3.126-2.452-.57-.532-.871-.532-.21 0-.29.26-.136.44-.484.44-.15 0-.34-.082.171-.831.702-.996.249-.078.479-.078zm.467 6.308q.86 1.376.702 2.781-.172 0-.315.23-.06-.39-.352-.39-.063 0-.135.017.372-1.391.1-2.638zm-3.204-7.55q.09 0 .157.014.323.064.38.236.04.118.075.118.017 0 .033-.024.05-.08.078-.165.388.516.043 1.541-.344 1.025 1.09 1.226 1.334 3.054 2.86 4.638 1.528 1.585 1.27 2.975-.587-.422-1.27-.422-.151 0-.308.021.043-1.276-.623-2.51-.667-1.232-1.22-1.856-.551-.624-1.483-1.477-.932-.853-.932-1.756t.25-1.262q.252-.358.23-.573-.009-.089-.04-.089-.046 0-.139.182-.158.308-.932.322l-.078.001q-.742 0-1.614-.259l1.047.058q.527.11.782.11.21 0 .236-.074.057-.165-.1-.194-.127-.023-.262-.023l-.068.001q-.172.008-.244.05l.014.058q.058-.003.109-.003.18 0 .286.039.035.013 0 .013-.098 0-.767-.106-.23-.373-.072-.53.043-.044.143-.058-.043.186.05.272.034.032.07.032.06 0 .124-.096.1-.15-.158-.237.646-.193.983-.193zm2.387 2.674q1.376 1.792 2.545 2.939 1.168 1.147 2.208 1.556 1.04.408 1.9.423.114.129 2.15 4.53l-.129.058-4.817-3.083q.028-.272-1.427-1.928t-2.574-4.38l.144-.115zm4.932 7.7l2.667 1.648q.1.258-.638.337-.148.016-.274.016-.503 0-.658-.253-.194-.315-.495-.81-.301-.494-.602-.939zm-4.158.286l.287.545q.243-.258.38-.301.003-.002.007-.002.115 0-.387 1.507l-.775.244q-.186-.158.122-.896.309-.739.366-1.097zM55.94 2.25q-.092 0-.192.008-.302 0-1.635.416-1.09.258-1.176.66l.043.602.53-.187q.89.287 1.478.287t.444.401q-.143.402.036 1.334.18.932 1.412 1.9 1.233.967 1.534 2.516.302 1.548-.516 3.57l.258-.158q.006-.003.01-.003.054 0-.282.8-.359.852-.968.874-.091.003-.174.003-.47 0-.665-.104-.216-.115-.612-.115h-.047q-.43.008-.445.295v.387q.133-.205.245-.205.044 0 .085.033 0 .186 1.649.186h4.46q.185-.15.397-.15.211 0 .448.15.215-.186-.1-.473-.178-.162-.47-.162-.225 0-.52.097-.22.073-.455.073-.485 0-1.036-.31.144-.63.316-1.125.172-.494.674-.58.044-.008.09-.008.47 0 1.07.796.33-.674.173-1.792l.186.129q1.348 2.265 1.628 2.652.21.29.81.29.2 0 .444-.031.975-.13.947-.46l.817.417.616-.23-1.362-2.997q.33 0 .617-.286-.344-1.076-1.061-2.41-.488-.802-1.018-1.246-1.405-1.32-2.932-2.517-1.527-1.197-2.244-1.842-.482-.287-1.005-.287-.287 0-.587.086-.846.244-1.018 1.204-.057-.028.086-.716.144-.689-.064-1.262-.185-.51-.92-.51zm22.588.59l.18.075-5.404 12.034c-.092-.06-.606-.312-.773-.507 0-.13.092-.219.36-.576.28-.375.58-.766.24-1.269-.158-.232-.374-.401-.654-.401-.175 0-.374.065-.6.221-.47-.28-.925-.42-1.666-.42-.13-1.141-.275-1.861-.435-2.762h5.359l3.393-6.395zm-.012-.59c-.03 0-.062.001-.094.004L74.985 8.38c-.12.2-.245.3-.376.3a.349.349 0 0 1-.045.003c-.504 0-1.936-.922-4.293-2.765-.54-.56-.82-1.12-.84-1.681-.02-.56.147-.88.502-.961a1.34 1.34 0 0 1 .29-.036c.2 0 .343.064.43.194.126.185.118.37-.022.555-.07.093-.134.139-.191.139-.058 0-.109-.046-.154-.139-.09-.185-.185-.278-.285-.278-.19.07-.235.236-.135.496.093.241.263.362.511.362.02 0 .04 0 .06-.002.28-.02.474-.115.585-.285.11-.17.165-.37.165-.6a.88.88 0 0 0-.225-.601c-.15-.17-.368-.278-.654-.323a1.027 1.027 0 0 0-.16-.013c-.232 0-.463.08-.695.238-.285.195-.45.516-.496.961-.045.445.078.936.368 1.471.29.536.813 1.074 1.569 1.614s1.474 1.056 2.154 1.546c.016.064-.019.096-.106.096a.533.533 0 0 1-.074-.006h-3.843c.32 1.832.515 3.128.585 3.888.09-.006.18-.01.269-.01.701 0 1.402.209 2.103.626.15-.2.313-.3.488-.3s.265.095.27.285c-.305.488-.753.961-.908 1.516l1.682 1.081 5.72-13.105c-.182-.263-.421-.395-.718-.395zm3.374 1.558l2.736 2.406q-.577.89-1.533 1.797-.906-2.143-1.203-4.203zm-.728-1.187q-.528 0-.41.725.512.248.43.56-.083.314.065 1.04.149.725 1.187 3.444-.316 1.074.366 1.074l.063-.002q1.846 3.395 4.07 5.917h.397l-.1-1.104q-1.78-1.665-3.807-5.39.593-1.253 1.665-2.193l3.28 2.95q.248.112.416.112.458 0 .326-.82l-3.297-2.818q.013-.75-.625-.75-.148 0-.331.04L81.89 2.82q-.452-.198-.728-.198z"/><path d="M8.22.375c-9.625 0-9.625 17.25 0 17.25m0-17.25h80.92M8.22 17.625h80.92M96.827.375v17.25M89.14.375c9.624 0 9.624 17.25 0 17.25" fill="none" stroke="#000"/></svg>