<svg xmlns="http://www.w3.org/2000/svg" width="95.237" height="18"><path d="M6.89.703zm-.058.126l-.81 1.76.096-.443q.116-.462.26-.693.144-.23.28-.327.106-.164.174-.297zm-.37-.503q.051 0 .099.03.212.135-.135.559-.365.384-.452.635-.086.25-.183.673-.096.423-.442 1.193l-.443.135H3.271q.25-.5.558-.905.77-.692 1.145-.923.375-.231.596-.404.221-.173.49-.635.224-.358.401-.358zm-1.017 3.61l-.327.692q-.455-.045-.842-.045-.774 0-1.275.18-.115-.654-.307-.828zm-2.27 1.442q-.366 0-.366.347 0 .365.366.365.384 0 .404-.365-.02-.347-.404-.347zm.865-.346q.828 0 .962.78.135.779-.885 1.067.347.654-.01.837-.127.066-.248.066-.218 0-.415-.21-.308-.327-.539-.924-.23-.596-.692-.596h.346q-.212-.327-.173-.5.032.006.06.006.142 0 .19-.16Q3 5.032 4.04 5.032zM.622 13.935q-.023 0-.045.005-.134.077-.096.154.038.058.144.068h.023q.088 0 .131-.068.048-.077-.038-.125-.062-.034-.119-.034zM5.176 5.09q.307 0 .846 1.25.539 1.251 1.78 2.31 1.24 1.057 1.991 2.577.75 1.52 2.925 3.329-3.829-1.809-4.8-2.241-.972-.433-3.166-2.011-1.25-.904-1.25-1.443 0-.423.096-.731v-.02q1 0 1-1 1.328-.654.578-2.02zm-.54 5.964q.366 1.77 1.829 3.925-.132.1-.288.1-.388 0-.924-.62 0-.98-.693-3.405zm.636.635q1.173.904 2.597 1.713v1.847q-.5-.404-1-.481-1.386-2.232-1.597-3.079zm.211 3.79q.273.333.56.333.262 0 .537-.275l.096 1.713q-.19-.041-.36-.041-.314 0-.563.137-.35-.112-.608-.112-.097 0-.181.016l.52-1.77zm.616-3.674l5.83 2.924q1.135 1.29 2.193 2.405v.02l-1.481.23-2.905-3.136q-.847-.673-3.637-2.443zM.701 13.91q.102 0 .184.069.113-.012.22-.012.24 0 .453.06.308.086.385.51.077.423-.202.837-.279.413-.538.981-.26.568-.26.818t.308.327l-.097.154q-.365-.02-.356-.462.01-.443 0-1.308-.01-.866.068-1.107.077-.24.24-.298.164-.058.49-.058.059 0 .02-.27-.122-.031-.25-.031-.256 0-.539.128-.077.02-.22.02-.145 0-.203-.174.058-.134.212-.173.044-.01.085-.01zM6.365 0H6.33q-.23.01-.481.414-.058.174-.25.395-.192.221-.539.423-.346.202-.51.327-.163.125-.529.452-.308.25-.442.424-.308-.212-.52-.491-.211-.279-.24-.51-.03-.23.038-.365.068-.135.221-.164.042-.008.083-.008.108 0 .206.056.135.077.115.27-.038.173-.25.211-.057-.025-.097-.025-.054 0-.076.044-.038.25.202.27l.052.002q.205 0 .333-.137.144-.154.125-.5-.135-.443-.423-.481Q3.295.6 3.243.6q-.236 0-.473.14-.289.174-.318.549-.029.375.27.76.298.385.644.616-.27.365-.577.885h-.847q.52.558.616 1.52-.385 0-.327.346-.539.173-.539 1.039.165-.105.318-.105.043 0 .086.009.25 0 .395.538.144.54.625 1.213l.02.019q-.116.211-.116.73 0 .52.885 1.444.904 3.078.885 4.483 0 .192.25.23l-.635 2.136q-.054-.003-.11-.003-.283 0-.611.08-.188.046-.387.046-.219 0-.45-.055-.257-.061-.503-.061-.18 0-.354.032-.413.077-.586.077-.193-.077-.049-.539.145-.462.568-1.116.423-.654.289-1.154-.135-.5-.5-.654-.226-.095-.443-.095-.136 0-.27.037-.09-.077-.226-.077-.069 0-.149.02-.24.057-.433.143-.192.087-.192.28 0 .153.23.23.155.052.309.052.077 0 .154-.013-.231.442-.202 1.395.028.952.019 1.53-.01.577.49.673l6.793.02q.347 0 .568-.154.074-.051.172-.051.197 0 .492.205.019-.635-.654-.808-.381.141-.694.141-.24 0-.442-.083l-.096-1.924q.547.738.948.738.164 0 .303-.123-.135-1.212-.135-2.193l.558.346q.462.212 2.05 2.02 1.522 1.735 1.814 1.735.012 0 .023-.003l1.866-.404q.308-.096.115-.289L13.2 15.5q1.385.885 2.059 1.154-.328-.365-1.116-.923l.404.154q.23-.039.192-.385-3.405-2.444-4.329-4.214-.924-1.77-2.155-2.876-1.231-1.107-1.847-2.492-.366-.866-.75-1.193L7.465.645l-.442-.23-.133.288q.056-.138.056-.23 0-.251-.193-.366Q6.576 0 6.365 0zm6.92 2.001c-.43 0-.718.25-.713.645.006.43.294.678.713.678.418 0 .667-.249.661-.678-.005-.396-.254-.645-.661-.645zm.048-1.43c.283 0 .566.058.85.175.544.225.912.616 1.154 1.145.246.54.229 1.087 0 1.628-.229.54-.62.894-1.154 1.12-.273.115-.55.17-.829.17a2.46 2.46 0 0 1-.875-.17c-.542-.206-.9-.604-1.145-1.12a1.913 1.913 0 0 1-.17-.822c0-.57.248-1.074.628-1.484.188-.202.42-.357.687-.467.287-.117.57-.176.854-.176zM13.266 0c-.748 0-1.336.26-1.864.789-.54.541-.77 1.13-.78 1.89-.006.44.083.828.262 1.18.142.693.15 1.854-.04 1.854-.327 0-.14-.872-.155-1.144-.028-.462-.3-.856-.625-1.169-.075-.073-.158-.153-.266-.164a2.98 2.98 0 0 0-.313-.021 1.03 1.03 0 0 0-.355.054c-.08.03-.084.143-.057.217.027.076.079.158.167.168a.562.562 0 0 0 .066.004c.109 0 .215-.027.324-.028h.013c.045 0 .096.004.128.037-.073.136-.173.269-.19.429a.418.418 0 0 0 .016.186c.212.586.34 1.93 1.219 1.93.166 0 .246-.034.298-.083.39-.362.396-.976.373-1.484.515.485 1.096.688 1.814.697h.042c.736 0 1.322-.272 1.85-.78.143-.137.264-.279.365-.427.024.503.049 1.01.233 1.482.145.373.469.644.817.828.027.014.047.02.06.02.043 0 .016-.066-.033-.113a2.114 2.114 0 0 1-.515-.781c-.187-.513-.168-1.064-.156-1.6.007-.327.021-.654.002-.98h-.002c.01-.1.016-.204.017-.311.009-.766-.257-1.35-.788-1.891C14.653.24 14.065.009 13.3 0h-.035zm10.25 4.787q-.406 0-.47.314v.019q.046.083.193.083.425-.185.425-.342v-.018q0-.037-.148-.056zm1.478-.572q-.065.36-.637.775l.203.083.277-.101.138.092q1.062.508 2.817.536l2.751.027h.038q.47 0 .456.688-.013.716-.484 1.436-.296 0-.6-.226-.305-.226-.5-.53-.193-.306-.498-.795.093.97.554 1.524-.563 0-1.002.106-.219.053-.366.053-.146 0-.22-.053-.092-.066-.457-.066-.222 0-.545.024-.25.02-.455.02-.501 0-.75-.112-.23-.194-.29-.679-.06-.485.272-1.343-.684.489-.684 1.486v.333q-.341-.351-.535-.776-.379-.942-1.035-.942-.249 0-.96.314-.24-.101-.194-.323l.462-.619q.332-.563.48-.628.074-.138.72-.138.277.074.277.203 0 .175-.184.35.35-.073.507-.415 0-.083.444-.304zm.398-1.965q-.045 0-.103.072-.702 1.117-1.274 1.551-.222.194-.6.203-.185 0-.564-.277-.563-.545-.784-.923-.25-.444-.324-.49-.037 0-.055.093 0 .526 1.071 1.948-.203.296-.379.674-.175.379-.415.577-.24.199.046.393 0 .24.397.388l.988-.287q.397 0 .545.333.49.738.49 1.542.055 1.071-.74 2.05-.249.166-.249.461 0 .12.305.12.499 0 .499-.12l-.037-.249q0-.13.194-.194v-.018q0-.176.628-1.764.286 0 .452.277.213.702.213 1.164 0 .101-.13.434-.157.12-.194.434h.74l-.056-.231q-.037-.139.101-.24l-.064-.342q-.12-1.302-.12-1.533v-.018q.729-.176 1.122-.176.392 0 .604.143.085.057.237.057.23 0 .617-.13.42-.142.644-.142.119 0 .183.04.185.115.185.392 0 1.016-.517 1.727-.167.166-.25.462h.637q.167-.056.074-.277.019-.24.222-.305 0-.84.739-1.662.517.286.526.886 0 .231-.092.628l-.111.305q-.102.12-.185.453h.61q.11-.047.138-.102l-.092-.296q-.046-.129.129-.23-.092-.49.12-.74-.434-1.015-.434-1.597.23-.95.296-1.782.11.582.027 1.395-.083.812.277 1.68.07.146.128.146.041 0 .075-.072.093-.526.037-2.909-.074-.295-.157-.452-.295-.453-.508-.471h-2.982q-2.207 0-3.269-.628.175-.314.194-.43.018-.115 0-.281-.443.13-.665.342l-.185-.139q.194-.12.619-.776.425-.655.499-1.025-.032-.062-.073-.062zm4.893 10.098c.488.021.755.032.87.032h.053l-.063 2.547a3.738 3.738 0 0 1-.97-.576l.11-2.003zm-7.107-.634c-.163.031-.378.131-.351.325v1.42c-.315-.015-.64-.031-.734-.031 0 .178.147.42.603.42.005.403.078.896.152 1.147l.063.66c0 .074.125.095.262.095.162 0 .34-.031.34-.031l-.026-.66c2.59.02 7.527.151 7.773.151.126 0 .21-.136.21-.325l.063-2.846-1.557-.016-.126 2.217c-1.127.006-3.076.19-4.403.19-.419 0-.78-.017-1.027-.069-.052-.058-.54-.765-.85-.844a1.36 1.36 0 0 0-.183-.02c-.052-.43-.104-.86-.152-1.285.095-.12.31-.09.367-.252.058-.078.021-.21-.089-.215-.063-.026-.236-.031-.309-.031zm12.368-8.388l1.236.785q.247 2.428.05 3.91-.196 1.484-.232 2.45-.036.967.472 2.596-.014.116-.421.334-.191.102-.452.102-.296 0-.682-.131.77-1.425.669-3.097-.102-1.672-.393-3.758-.29-2.086-.247-3.191zm-.553 10.7q.67.117 1.134.233-.174.64-.814.814-.274.075-.527.075-.337 0-.636-.133.262-.61.843-.989zM34.906 2.25q-.13 1.207.313 4.064.443 2.856.443 3.845 0 2.617-1.003 3.155-.945.96-1.221 1.934.276.378.988.472.226.03.432.03.442 0 .79-.139.509-.204.77-.538.335-.45.19-1.018l.624-.334q.451-.218.277-.698-.713-1.919-.27-4.536.444-2.617.124-4.696L34.906 2.25zm6.915 2.304c-.202.097-.45.367-.075.412.18-.007.593-.195.518-.367a.166.166 0 0 1-.118.05c-.106 0-.215-.095-.325-.095zm-1.478.067c-.247.06-.375.33-.06.39l.017.001c.181 0 .676-.22.268-.27-.067-.046-.135-.12-.225-.12zm1.974-1.883c.442.517.833 1.118.908 1.808.075.495.097.99.172 1.478-.352-.03-.247-.577-.18-.84.06-.518-.217-.998-.413-1.456-.135-.247-.262-.638-.607-.645-.383.067-.63.39-.878.668-.255-.255-.526-.533-.878-.638a.177.177 0 0 0-.061-.01c-.08 0-.172.035-.214.035-.037 0-.037-.026.042-.123.048-.168.147-.218.27-.218.178 0 .406.106.599.106a.42.42 0 0 0 .084-.008 2.801 2.801 0 0 0 1.156-.158zm-.12.57c.292.075.36.48.502.72.18.42.398.878.256 1.351-.113.225.03.51.015.675-.25.176-.47.547-.803.547a.474.474 0 0 1-.113-.014c-.33-.067-.495-.383-.75-.533-.185.178-.294.548-.598.548a.464.464 0 0 1-.138-.022c-.277-.06-.645-.03-.727-.368-.143-.345-.158-.728-.18-1.103a.243.243 0 0 0 .045.005c.152 0 .166-.177.18-.328.058-.22.215-.321.39-.321.118 0 .244.046.352.134.128.142.518.255.436.48-.038.135-.083.277-.128.42l.315.42c.03-.217.353-.397.165-.615-.03-.098-.142-.225-.127-.3.135-.24.315-.45.525-.63a.241.241 0 0 1 .172-.077c.201 0 .403.263.578.287.173-.188-.015-.263-.187-.36a.526.526 0 0 0-.365-.147.602.602 0 0 0-.49.266c-.143.086-.242.371-.368.371-.039 0-.081-.028-.128-.1-.229-.184-.504-.39-.804-.39a.642.642 0 0 0-.134.014c-.212.044-.403.474-.42.474-.008-.353.158-.669.255-1.014a.459.459 0 0 1 .447-.357c.13 0 .261.055.356.177.223.083.387.475.597.475a.2.2 0 0 0 .116-.04c.232-.247.42-.54.758-.645zM41.13 8.515c.953.983 1.831 3.475 2.056 4.495-.368-.3-.87-.495-.983-.683-.12-.195-.45-2.093-1.073-3.812zm3.392-1.785c1.8 1.035 4.937 6.13 5.605 6.948-1.126-.713-2.236-1.433-3.444-2.019-1.696-.832-3.144-2.183-4.525-3.444 1.14-.382 1.959-1.028 2.364-1.485zm-1.869 6.468c.24.142.458.337.72.442-.157.39-.254.826-.577 1.133-.06.098-.147.129-.246.129-.17 0-.378-.092-.551-.092a.44.44 0 0 0-.036.001c.21-.525.525-.758.69-1.613zm.51-7.024c.046.094.104.125.166.125.08 0 .167-.053.24-.087.18.127.803.112.435.383-.233.315-1.476 1.174-2.34 1.326-.372.065.254.655.457.865 1.17 1.05 2.318 2.16 3.721 2.918.878.496 1.801.938 2.65 1.486.404.585.885 1.126 1.192 1.771-.307.09-.608.218-.923.293a2.168 2.168 0 0 1-.527.061c-.495 0-.994-.147-1.214-.384-.405-.428-.847-2.251-1.08-2.919-.033-.075-.08-.1-.131-.1-.101 0-.219.099-.277.099-.012 0-.021-.004-.027-.014a.293.293 0 0 0-.29-.282c-.132 0-.254.096-.236.297-.045.473-.135.946-.36 1.373-.027.073-.085.101-.16.101-.214 0-.572-.22-.815-.28.097-.579-.69-3.535-3.002-6.011-.08-.088-.433-.459-.402-.459.004 0 .013.005.027.016.119.031.252.052.384.052.253 0 .501-.078.63-.314.019-.06.043-.082.072-.082.103 0 .258.3.422.3a.69.69 0 0 0 .386.115.79.79 0 0 0 .582-.266c.143-.128.278-.255.42-.383zm-.78-3.924c-.236.105-.649.21-1.02.21-.053 0-.106-.003-.158-.007a.603.603 0 0 1-.107.009c-.252 0-.524-.136-.769-.136a.466.466 0 0 0-.264.074c-.413.6-.788 1.268-.833 2.011-.083 1.426-.045 1.92 1.08 3.091.443 1.006 1.268 4.285 1.516 5.178.27.255-.338 1.65-.593 1.996-.139.191-.504.2-.897.2h-.13c-.353 0-.71.008-.931.145-.21.135-.285.638-.165.705.112-.172.337-.405.495-.427-.15.157.375.082.488.12.303.005.61.03.918.03.149 0 .298-.006.447-.023.068-.03.14-.075.172-.075.024 0 .024.027-.022.113.213.055.451.083.685.083.525 0 1.022-.14 1.131-.42.225-.414.435-.849.586-1.299.191.04.432.176.625.176a.284.284 0 0 0 .155-.04c.21-.144.428-.811.548-1.254.011-.046.074-.069.137-.069.06 0 .122.021.14.061.225.45.6 1.831.96 2.41.272.427.931.638 1.632.638.441 0 .9-.083 1.288-.249.487-.21.848-.165.742-.435-.165-.45-.45-.878-.75-1.26.435.27.87.547 1.306.817.036.131.126.183.218.183.178 0 .362-.193.18-.385-1.704-2.461-4.413-6.656-6.289-8.014a2.525 2.525 0 0 0-1.043-.563c-.127-.33-.09-.773-.165-1.148-.075-.743-.525-1.973-1.313-2.446zm15.069 0l-.014.001a15.506 15.506 0 0 1-1.122.037c-.08.005-.087.107-.06.165.169.474.314.956.45 1.44h-.019c-.135.003-.271 0-.404.013l-.007.01c-.008-.03-.029-.058-.06-.065a28.706 28.706 0 0 1-1.275-.923c-.01-.002-.021-.005-.032-.005h-.007c-.042.026-.057.084-.08.127-.073.197-.135.399-.216.593-.058.148-.123.294-.167.446.02.042.056.055.097.055.038 0 .08-.012.113-.022.515-.11 1.045-.1 1.57-.107-.053.115-.075.243-.122.36-.021.066-.047.134-.061.202a.092.092 0 0 0-.013 0l-.016.001c-.64.248-1.265.552-1.811.97a6.77 6.77 0 0 0-.75.652c-.004.096.104.127.176.154l.442.182c-.074.103-.094.236-.141.353-.248.726-.597 1.413-.888 2.122.001.058.055.087.108.087.02 0 .04-.004.056-.012.103-.019.205-.028.309-.03-.022.08-.03.165-.066.24-.174.555-.46 1.065-.675 1.604-.01.058.045.095.098.095a.1.1 0 0 0 .044-.01 6.45 6.45 0 0 1 .797-.092c-.03.074-.037.157-.06.234-.129.545-.317 1.082-.34 1.646-.005.367.04.733.098 1.095.1.595.28 1.174.512 1.73.002.051.049.083.094.083a.081.081 0 0 0 .073-.04c.034-.075.044-.16.07-.238.133-.481.229-.974.271-1.472.042-.43.059-.863.056-1.295-.018-.505-.138-.999-.216-1.497-.014-.075-.023-.152-.043-.226a7.034 7.034 0 0 1 .764.127c.081 0 .1-.107.063-.164-.217-.567-.438-1.134-.62-1.714l.026.005c.22.04.44.091.663.104.07-.058.02-.152-.014-.216-.268-.582-.488-1.193-.575-1.83-.029-.173-.028-.35-.058-.523.19.077.379.154.569.228.083-.02.087-.121.07-.19a2.105 2.105 0 0 1 .267-1.198c.178-.318.436-.58.698-.828.104.09.225.156.343.227l-.06.015c-.215.418-.397.852-.59 1.28-.026.06-.055.12-.063.184.032.052.086.063.142.063.036 0 .072-.004.104-.004h.006l.24-.006c-.027.083-.034.176-.061.259-.155.639-.308 1.279-.46 1.919.018.068.086.082.15.082a.648.648 0 0 0 .054-.003l.397-.014c-.036.105-.053.218-.088.323-.172.628-.347 1.257-.514 1.886.018.07.088.085.154.085a677.2 677.2 0 0 1 .691-.021.867.867 0 0 0-.024.103c-.132.577-.336 1.144-.366 1.74-.002.54.077 1.077.2 1.602.103.423.247.836.411 1.239.006.046.05.077.093.077.025 0 .05-.01.065-.035.036-.062.042-.137.067-.205a8.4 8.4 0 0 0 .314-1.902c.021-.343.033-.687.018-1.03-.036-.492-.147-.974-.226-1.46-.009-.048-.016-.097-.029-.145.221-.007.443-.014.664-.023.078-.06.035-.167.013-.245-.188-.674-.375-1.349-.567-2.021.184-.007.37-.014.554-.023.078-.06.034-.166.01-.243l-.583-1.969.595-.016c.075-.05.038-.15.003-.214-.176-.4-.35-.801-.533-1.199.131-.054.262-.11.39-.171.354.33.662.728.804 1.196.082.278.087.573.059.86.015.044.054.061.095.061a.2.2 0 0 0 .1-.03l.444-.182-.004.004a5.206 5.206 0 0 1-.348 1.696c-.097.265-.22.52-.326.78-.006.057.047.091.099.091a.102.102 0 0 0 .05-.013c.196-.029.39-.067.585-.105-.04.108-.066.221-.11.327-.165.486-.353.965-.534 1.445-.013.057.038.107.091.107a.08.08 0 0 0 .041-.011 5.81 5.81 0 0 1 .717-.116.57.57 0 0 0-.013.066c-.079.447-.166.892-.223 1.342a4.98 4.98 0 0 0-.017.846c.025.713.097 1.429.288 2.118.032.117.063.236.101.351.015.03.045.044.076.044.037 0 .075-.021.084-.062a7.92 7.92 0 0 0 .565-2.05c.05-.41.083-.828.004-1.236-.079-.434-.208-.857-.31-1.285-.018-.05-.026-.104-.043-.153.123.003.246.011.37.027.17.018.34.054.511.069.073-.02.066-.116.03-.166-.239-.577-.55-1.13-.704-1.738l-.008-.032c.03 0 .058 0 .087.002.109.008.217.03.326.039.077-.034.058-.134.022-.192-.318-.723-.663-1.437-.909-2.19-.023-.058-.04-.124-.073-.176l-.006-.003c.199-.083.398-.166.595-.252.047-.08-.031-.156-.09-.201-.506-.462-1.063-.874-1.682-1.171a6.493 6.493 0 0 0-.717-.3c-.017-.055-.043-.11-.056-.163-.063-.181-.117-.368-.197-.542a.252.252 0 0 0 .053.004l.06-.001h.152c.46 0 .921.015 1.37.118.013.006.03.009.046.009.045 0 .093-.023.084-.074-.087-.273-.21-.534-.3-.807-.04-.112-.079-.225-.128-.332a.113.113 0 0 0-.06-.008c-.421.308-.835.628-1.27.916-.046.023-.106.07-.073.127v.001a.848.848 0 0 0-.157-.012l-.16.002a1.243 1.243 0 0 1-.069-.001h-.035a.077.077 0 0 0 .004-.029c.17-.508.34-1.022.631-1.476.036-.046.01-.127-.046-.137a.065.065 0 0 0-.012-.001zm7.109 10.474c.557 0 1.253.286 1.59.623.295.294.333.685.344 1.048h-3.85c.01-.363.048-.754.343-1.048.337-.337 1.017-.623 1.573-.623zm0-.311c-.66 0-1.37.304-1.786.72-.427.427-.475.99-.475 1.41v.164h4.523v-.164c0-.42-.032-.983-.46-1.41-.415-.416-1.142-.72-1.802-.72z"/><path d="M67.054 2.755q-.278 0-.278.327 0 .278.278.278.294-.016.294-.31 0-.295-.294-.295zm-1.08.213v.294l-.638.115q.295-.311.638-.41zm.033.392q.376.295.13.442-.375-.131-.555-.344l.425-.098zm1.145-.752q.769 0 1.227.589.458.588.49 1.815 1.194.246 1.587 1.08.063.54-.243.54h-.019q-.327-.017-.515-.18-.068-.06-.103-.06-.061 0-.02.182.066.287.72.695.654.41.106.68-.136.066-.29.066-.465 0-1.092-.615-.834-.818-.883-1.243-.05-.425.343-.785.234-.214.16-.214-.05 0-.241.1-.475.245-.5.72-.024.474.377 1.038.4.564 1.578 1.431.12.063.273.063.323 0 .79-.284.688-.417-.686-1.284.507-.13.523-.441.638.212 3.582 3.958.785.523.802.769-.017.229-.246.278-.049.01-.1.01-.185 0-.39-.141-.916.442-1.775.458h-.09q-.798 0-1.325-.278.54.474.376.998-.08.253-.12.253-.043 0-.043-.286 0-.556-1.423-1.063v.621q-.084.352-.134.352-.047 0-.063-.319-.098-.703-.466-1.513-.368-.81-1.17-2.24-.8-1.432-1.022-2.062-.22-.63-.204-1.17.016-.539-.22-.793-.238-.253-.14-.548.098-.294-.294-.556v-.278q.425-.343.883-.343zm3.108 9.421q.801.23.801.54l-.54 2.012q-.065.36-.441.36h-.655v-.033l.835-2.552v-.327zM67.21 2.28h-.058q-.638 0-1.292.524-.377.13-.77.605.54.491.982.605.05.23.311.638.016 1.08.295 1.791.278.712 1.864 3.82.785 1.635.785 2.012 0 .572-.72 2.568 0 .114-.98.18-1.473.049-1.473.408 0 .213.196.213h4.351q.41-.327.458-.556.393.164.426.442.055.22.156.22.02 0 .04-.008.13-.049.13-.212-.114-.442-.572-.85l.524-2.21q1.586-.048 2.764-.506.218.049.4.049.363 0 .581-.196.327-.295-.13-.916-.998-.998-1.898-2.192-1.848-2.274-2.535-2.634-.23-.474-.548-.752-.32-.278-1.153-.687-.017-.965-.45-1.668-.424-.688-1.683-.688zm5.119-.03v3.807h.38V2.25zm2.263 0v3.807h.38V2.25zm2.264 0v3.807h.38V2.25z"/><path d="M19.063.375v17.25m0-17.25h2.625m-2.625 17.25h2.625m0-17.25h55.549m-55.549 17.25h55.549m0-17.25h17.625m-17.625 17.25h17.625M79 .375v17.25M82.524.375v17.25M84.287.375v17.25M86.05 2.1h8.812M86.05 5.55h8.812M86.05 2.1v3.45m1.762-1.725h7.05m-8.812 3.45h8.812m-8.812 3.45h8.812m-8.812-3.45v3.45M87.812 9h7.05m-8.812 3.45h8.812M86.05 15.9h8.812m-8.812-3.45v3.45m1.762-1.725h7.05" fill="none" stroke="#000"/></svg>