<svg xmlns="http://www.w3.org/2000/svg" width="82.38" height="18"><path d="M3.01.474c.693 0 1.247.2 1.634.479.006.053.02.107.009.16-.05.248-.195.477-.396.63-.316.207-.697.267-1.057.356-.09.01-.019.031.031.04.23.04.707.099.971.099l.052-.001c.278-.032.54-.148.766-.311.079-.067.147-.15.205-.236.147.346.227.713.26.917.018.11.096.2.202.233 1.139.349 2.038 1.91 2.88 2.949 1.729 2.137 3.199 4.526 4.892 6.76-.937-.456-1.87-.916-2.81-1.374-1.92-1.01-3.92-1.816-5.604-3.09l-.008-.008c-.97-.808-1.963-1.66-2.339-2.793-.148-.92 1.757-2.577 1.542-2.646a.207.207 0 0 0-.064-.01c-.458 0-1.753 1.128-2.019 2.202-.003-.014-.01-.03-.014-.045-.073-.356-.154-1.256.068-1.98a.29.29 0 0 0 .01-.103 1.968 1.968 0 0 0-.123-.634c-.063-.17-.139-.344-.26-.765-.031-.108-.142-.328-.208-.345.186-.138.375-.28.645-.375a.434.434 0 0 0-.132.314c0 .23.164.415.365.415.2 0 .364-.186.364-.415V.894a.411.411 0 0 0-.255-.39c.053-.007.096-.019.154-.022.081-.006.16-.008.238-.008zm.67 7.763c.065.065.135.124.202.187.214.78.412 1.64.692 2.305.483 1.145 1.216 2.141 1.84 3.154a1.814 1.814 0 0 0-.385.27 6.831 6.831 0 0 0-.199.193 2.61 2.61 0 0 0-1.186-.897c.045-.723-.108-1.712-.34-2.787a34.903 34.903 0 0 0-.624-2.425zm1.006.908c1.149.945 2.428 1.738 3.676 2.54-.018.91-.018 1.778.084 2.675a3.411 3.411 0 0 0-1.437-.736c-.02 0-.037.012-.057.012-.649-1.063-1.383-2.06-1.837-3.134-.156-.37-.293-.85-.429-1.357zm.407 5.254a2.5 2.5 0 0 1 .44.541.3.3 0 0 0 .257.14.29.29 0 0 0 .17-.053c.215-.156.347-.324.476-.446.047-.045.097-.08.148-.117l.149 2.722c-.213-.014-.435-.035-.637-.035-.264 0-.495.036-.633.172-.169-.134-.497-.164-.89-.164-.102 0-.207.002-.316.004l.836-2.764zM6.25 9.574c1.354.787 2.784 1.414 4.135 2.125a.244.244 0 0 0 .006.003c1.295.631 2.586 1.28 3.894 1.904.984 1.189 2.052 2.295 3.078 3.42l-2.15.362-4.267-4.635a.288.288 0 0 0-.037-.036c-1.499-1.137-3.152-2.082-4.66-3.143zM3.076 0c-.135 0-.273.005-.411.013C1.58.083.792.54.523 1.157c-.04.093-.146.314-.007.314a2.35 2.35 0 0 1 .341-.028c.418 0 .38.172.47.194.09.282.29.846.303 1.068-.244.86-.153 1.763-.064 2.198.15.732.63 1.584 1.261 2.38a.285.285 0 0 0 0 .166 35.3 35.3 0 0 1 .903 3.336c.251 1.168.393 2.277.317 2.823a.294.294 0 0 0 .221.328c.045.011.084.031.127.045l-.928 3.079a2.847 2.847 0 0 0-.593-.055c-.381 0-.756.05-1.064.05-.125 0-.24-.008-.34-.032a.546.546 0 0 0-.125-.012c-.436 0-1.428.306-1.34.879.15-.128.257-.159.375-.159.11 0 .23.027.405.027h.027c.254-.004.697-.083 1.053-.083.18 0 .338.02.438.08.236-.01.45-.013.649-.013.85 0 1.447.07 2.5.075a89.565 89.565 0 0 0 2.974-.079c.45.003.697.054.922.054h.04c.134-.004.265-.057.48-.057.123 0 .273.017.468.07-.25-.341-.877-.685-1.33-.685a.591.591 0 0 0-.302.071 5.081 5.081 0 0 0-.508-.022c-.22 0-.448.01-.678.02l-.157-2.83c.487.203.857.517 1.281 1.021a.295.295 0 0 0 .513-.246c-.192-1.039-.213-2.019-.202-3.06.54.354 1.072.713 1.576 1.094l4.36 4.738a.29.29 0 0 0 .263.09c.95-.159 1.9-.315 2.849-.474a.294.294 0 0 0 .23-.193.298.298 0 0 0-.06-.297c-.741-.83-1.508-1.631-2.25-2.445 1.269.78 2.875 1.755 3.08 1.755.022 0 .027-.013.012-.04-.094-.163-.9-.755-1.775-1.373.14.058.276.12.415.177l.017.01c.103.035.16.059.27.062a.286.286 0 0 0 .108-.016.317.317 0 0 0 .188-.152.32.32 0 0 0 .023-.238c-.017-.05-.038-.077-.054-.098-.061-.085-.103-.109-.162-.154a4.553 4.553 0 0 0-.205-.149c-.153-.105-.336-.223-.493-.328a4.992 4.992 0 0 1-.328-.233.307.307 0 0 0-.028-.025l-3.892-2.736c-.008-.006-.02-.001-.028-.006-1.333-1.869-2.588-3.825-4.046-5.627-.744-.92-1.598-2.528-2.985-3.064-.067-.396-.218-1.127-.755-1.649C4.827.26 4.168.056 3.427.011A5.728 5.728 0 0 0 3.076 0zM25.85 4.787q-.407 0-.472.314v.019q.047.083.194.083.425-.185.425-.342v-.018q0-.037-.148-.056zm1.477-.572q-.065.36-.637.775l.203.083.277-.101.138.092q1.062.508 2.817.536l2.752.027h.037q.47 0 .457.688-.014.716-.485 1.436-.296 0-.6-.226-.305-.226-.5-.53-.193-.306-.498-.795.093.97.554 1.524-.563 0-1.002.106-.219.053-.365.053-.147 0-.221-.053-.092-.066-.457-.066-.222 0-.545.024-.249.02-.455.02-.501 0-.75-.112-.23-.194-.29-.679-.06-.485.272-1.343-.684.489-.684 1.486v.333q-.341-.351-.535-.776-.379-.942-1.035-.942-.249 0-.96.314-.24-.101-.194-.323l.462-.619q.332-.563.48-.628.074-.138.72-.138.277.074.277.203 0 .175-.184.35.35-.073.508-.415 0-.083.443-.304zm.398-1.965q-.045 0-.103.072-.701 1.117-1.274 1.551-.222.194-.6.203-.185 0-.563-.277-.564-.545-.785-.923-.25-.444-.324-.49-.037 0-.055.093 0 .526 1.071 1.948-.203.296-.378.674-.176.379-.416.577-.24.199.046.393 0 .24.397.388l.988-.287q.397 0 .545.333.49.738.49 1.542.055 1.071-.74 2.05-.249.166-.249.461 0 .12.305.12.499 0 .499-.12l-.037-.249q0-.13.194-.194v-.018q0-.176.628-1.764.286 0 .452.277.213.702.213 1.164 0 .101-.13.434-.157.12-.194.434h.74l-.056-.231q-.037-.139.101-.24l-.064-.342q-.12-1.302-.12-1.533v-.018q.73-.176 1.122-.176.392 0 .604.143.085.057.237.057.23 0 .618-.13.419-.142.643-.142.119 0 .183.04.185.115.185.392 0 1.016-.517 1.727-.167.166-.25.462h.637q.167-.056.074-.277.019-.24.222-.305 0-.84.739-1.662.517.286.526.886 0 .231-.092.628l-.111.305q-.102.12-.185.453h.61q.11-.047.138-.102l-.092-.296q-.046-.129.13-.23-.093-.49.12-.74-.435-1.015-.435-1.597.231-.95.296-1.782.11.582.027 1.395-.083.812.277 1.68.07.146.129.146.04 0 .074-.072.093-.526.037-2.909-.073-.295-.157-.452-.295-.453-.507-.471h-2.983q-2.207 0-3.269-.628.176-.314.194-.43.018-.115 0-.281-.443.13-.665.342l-.185-.139q.194-.12.62-.776.424-.655.498-1.025-.031-.062-.073-.062zm4.893 10.098c.488.021.755.032.87.032h.053l-.063 2.547a3.738 3.738 0 0 1-.97-.576l.11-2.003zm-7.107-.634c-.163.031-.377.131-.351.325v1.42c-.315-.015-.64-.031-.734-.031 0 .178.147.42.603.42.005.403.078.896.152 1.147l.063.66c0 .074.125.095.262.095.162 0 .34-.031.34-.031l-.026-.66c2.59.02 7.527.151 7.773.151.126 0 .21-.136.21-.325l.063-2.846-1.557-.016-.126 2.217c-1.127.006-3.076.19-4.402.19-.42 0-.781-.017-1.028-.069-.052-.058-.54-.765-.849-.844a1.36 1.36 0 0 0-.183-.02c-.053-.43-.105-.86-.152-1.285.094-.12.309-.09.366-.252.058-.078.021-.21-.089-.215-.063-.026-.235-.031-.309-.031zm16.463-7.16c-.202.097-.45.367-.075.412.18-.007.593-.195.518-.367a.166.166 0 0 1-.118.05c-.106 0-.216-.095-.325-.095zm-1.478.067c-.248.06-.375.33-.06.39l.016.001c.182 0 .676-.22.27-.27-.068-.046-.136-.12-.226-.12zm1.973-1.883c.443.517.833 1.118.908 1.808.075.495.098.99.173 1.478-.353-.03-.248-.577-.18-.84.06-.518-.218-.998-.413-1.456-.135-.247-.262-.638-.608-.645-.382.067-.63.39-.878.668-.255-.255-.525-.533-.877-.638a.177.177 0 0 0-.061-.01c-.08 0-.172.035-.214.035-.037 0-.037-.026.042-.123.048-.168.147-.218.269-.218.179 0 .407.106.6.106a.42.42 0 0 0 .084-.008 2.801 2.801 0 0 0 1.156-.158zm-.12.57c.293.075.36.48.503.72.18.42.398.878.255 1.351-.112.225.03.51.015.675-.25.176-.47.547-.802.547a.474.474 0 0 1-.113-.014c-.33-.067-.495-.383-.75-.533-.185.178-.295.548-.599.548a.464.464 0 0 1-.137-.022c-.278-.06-.645-.03-.728-.368-.142-.345-.157-.728-.18-1.103a.243.243 0 0 0 .046.005c.152 0 .166-.177.18-.328.058-.22.215-.321.39-.321.118 0 .243.046.352.134.128.142.518.255.435.48-.037.135-.082.277-.127.42l.315.42c.03-.217.353-.397.165-.615-.03-.098-.143-.225-.128-.3.136-.24.316-.45.526-.63a.241.241 0 0 1 .172-.077c.2 0 .403.263.578.287.173-.188-.015-.263-.188-.36a.526.526 0 0 0-.365-.147.602.602 0 0 0-.49.266c-.143.086-.242.371-.367.371-.04 0-.081-.028-.128-.1-.23-.184-.504-.39-.804-.39a.642.642 0 0 0-.134.014c-.212.044-.403.474-.42.474-.008-.353.157-.669.255-1.014a.459.459 0 0 1 .447-.357c.13 0 .26.055.356.177.223.083.387.475.597.475a.2.2 0 0 0 .116-.04c.232-.247.42-.54.757-.645zm7.738 2.57c.185 0 .278.097.278.291v2.24h-.849l.279-2.36c.009-.114.106-.171.292-.171zm-5.411.852c.53.305 1.176.962 1.84 1.758l-3.786.109-.418-.382c1.14-.382 1.958-1.028 2.364-1.485zm-1.359-.556c.046.094.104.125.165.125.081 0 .168-.053.24-.087.18.127.803.112.436.383-.233.315-1.476 1.174-2.34 1.326-.295.052.038.433.289.693l-.167.005c-.33-.479-.71-.96-1.144-1.424-.08-.088-.433-.459-.402-.459.004 0 .012.005.027.016.118.031.252.052.383.052.254 0 .502-.078.63-.314.02-.06.044-.082.072-.082.103 0 .259.3.423.3a.69.69 0 0 0 .386.115.79.79 0 0 0 .582-.266c.143-.128.278-.255.42-.383zm-2.033 2.341c.036.038.073.078.109.12l-.066.002-.043-.122zm.645.893c.68 1.169 1.238 2.819 1.41 3.602-.367-.3-.87-.495-.982-.683-.1-.161-.343-1.49-.777-2.918l.349-.001zm5.302-.024c1.358 1.77 2.649 3.803 3.05 4.294-1.126-.713-2.236-1.433-3.444-2.019-1.169-.573-2.22-1.392-3.211-2.259l3.605-.016zm-4.424 3.814c.24.142.458.337.72.442-.157.39-.255.826-.577 1.133-.06.098-.147.129-.246.129-.17 0-.378-.092-.552-.092a.44.44 0 0 0-.035.001c.21-.525.525-.758.69-1.613zm.15-3.795c.945.852 1.91 1.691 3.04 2.301.877.496 1.8.938 2.648 1.486.405.585.885 1.126 1.193 1.771-.308.09-.608.218-.923.293a2.168 2.168 0 0 1-.527.061c-.496 0-.994-.147-1.214-.384-.405-.428-.848-2.251-1.08-2.919-.033-.075-.08-.1-.131-.1-.102 0-.22.099-.277.099a.031.031 0 0 1-.028-.014.293.293 0 0 0-.29-.282c-.13 0-.253.096-.235.297-.045.473-.135.946-.36 1.373-.028.073-.085.101-.161.101-.213 0-.57-.22-.814-.28.069-.41-.308-2.017-1.357-3.8l.517-.003zm-.42-7.153c-.236.105-.649.21-1.02.21-.053 0-.107-.003-.158-.007a.603.603 0 0 1-.107.009c-.253 0-.525-.136-.769-.136a.466.466 0 0 0-.265.074c-.412.6-.787 1.268-.833 2.011-.082 1.426-.045 1.92 1.081 3.091.113.258.252.665.4 1.143l-.561-.024c-.478-.503-.902-.755-1.273-.755-.133-.01-.27-.018-.41-.027-.752.142-1.203.212-1.353.212-.106 0-.16.071-.16.212 0 .195.151.292.451.292.517-.082.912-.123 1.188-.123.05 0 .096.001.138.004.15 0 .274.062.371.185-.172.214-.558.32-1.157.32l-.142-.001c-.68-.018-1.281-.106-1.803-.266-.256 0-.384.15-.384.451.026.274.985.415 2.877.424l1.259-.132 1.186-.006c.366 1.27.737 2.72.889 3.269.27.255-.338 1.65-.593 1.996-.139.191-.505.2-.898.2h-.129c-.353 0-.71.008-.931.145-.21.135-.286.638-.166.705.113-.172.338-.405.496-.427-.15.157.375.082.487.12.304.005.61.03.919.03.149 0 .298-.006.447-.023.068-.03.14-.075.172-.075.024 0 .024.027-.022.113.213.055.451.083.685.083.524 0 1.022-.14 1.131-.42a8.15 8.15 0 0 0 .585-1.299c.192.04.433.176.626.176a.284.284 0 0 0 .155-.04c.21-.144.427-.811.547-1.254.012-.046.074-.069.138-.069.06 0 .122.021.14.061.225.45.6 1.831.96 2.41.272.427.931.638 1.632.638.441 0 .899-.083 1.287-.249.488-.21.848-.165.743-.435-.165-.45-.45-.878-.75-1.26.435.27.87.547 1.305.817.036.131.127.183.219.183.177 0 .362-.193.18-.385-.97-1.4-2.263-3.36-3.544-5.04l.984-.004 2.015.026V6.17c-.008-.433-.243-.65-.702-.65-.451 0-.69.129-.716.385-.186 1.67-.384 2.51-.597 2.519l-1.7.048c-.722-.883-1.42-1.623-2.029-2.064a2.525 2.525 0 0 0-1.043-.563c-.127-.33-.09-.773-.165-1.148-.075-.743-.525-1.973-1.313-2.446zm21.213.632c.192.272.238.608.255.932-.008.153.004.318-.06.462-.179-.179-.163-.59-.167-.822a4.54 4.54 0 0 0-.028-.572zm-10.225-.256l9.331.01c-1.363 1.292-2.73 1.923-4.79 1.923-2.069 0-3.32-.616-4.541-1.933zm-.419-.376a.188.188 0 0 0-.142.31c1.355 1.582 2.794 2.375 5.102 2.375 2.246 0 3.78-.762 5.26-2.233.052.14.077.363.077.752.01.434.006 1.152.575 1.202.4-.082.4-.51.402-.842 0-.41-.1-.78-.267-1.062-.167-.282-.414-.491-.714-.491L53.106 2.25zm10.936 4.173v2.664h-6.964V6.423zm-9.396-.337v.337h2.094v.663h-2.688v.338h2.688v.662h-3.25v.338h3.25v.663h-3.82v.337h11.46V6.086zm.787 7.461c.618 0 1.392.317 1.767.692.327.327.37.761.382 1.165h-4.28c.013-.404.055-.838.383-1.165.374-.375 1.13-.692 1.748-.692zm0-.346c-.733 0-1.522.338-1.985.8-.474.475-.528 1.1-.528 1.567v.182h5.026v-.182c0-.467-.035-1.092-.51-1.566-.462-.463-1.27-.801-2.003-.801zm6.317-2.231q.468 0 .953.204l-.922.935-.947-.935q.45-.203.917-.203zm-2.018 1.222l.935.935-.935.934q-.407-.97 0-1.869zm4.037.048q.407.97 0 1.869l-.934-.934.934-.935zm-.73-.79q.287.132.454.455l-1.27 1.282 1.258 1.257q-.155.312-.467.456l-1.257-1.258-1.234 1.234q-.312-.192-.455-.468l1.233-1.221-1.293-1.294q.131-.311.467-.443l1.282 1.281 1.281-1.281zm-1.258 2.779l.934.934q-.455.204-.923.204-.467 0-.946-.204l.935-.934zm-.024-3.654q-1.234 0-1.947.803-.713.802-.713 1.76 0 1.079.833 1.84.832.76 1.803.772 1.173-.012 1.91-.809.737-.796.737-1.802l-.012.024q.012-.91-.725-1.75-.737-.838-1.886-.838z"/><path d="M21.396.375v17.25m0-17.25h2.625m-2.625 17.25h2.625m0-17.25H64.38m-40.359 17.25H64.38m0-17.25h17.625M64.38 17.625h17.625M66.142.375v17.25M69.667.375v17.25M71.43.375v17.25M73.192 2.1h8.813m-8.813 3.45h8.813M73.192 2.1v3.45m1.763-1.725h7.05m-8.813 3.45h8.813m-8.813 3.45h8.813m-8.813-3.45v3.45M74.955 9h7.05m-8.813 3.45h8.813m-8.813 3.45h8.813m-8.813-3.45v3.45m1.763-1.725h7.05" fill="none" stroke="#000"/></svg>