<svg xmlns="http://www.w3.org/2000/svg" width="85.568" height="18"><path d="M3.01.474c.693 0 1.247.2 1.634.479.006.053.02.107.009.16-.05.248-.195.477-.396.63-.316.207-.697.267-1.057.356-.09.01-.019.031.031.04.23.04.707.099.971.099l.052-.001c.278-.032.54-.148.766-.311.079-.067.147-.15.205-.236.147.346.227.713.26.917.018.11.096.2.202.233 1.139.349 2.038 1.91 2.88 2.949 1.729 2.137 3.199 4.526 4.892 6.76-.937-.456-1.87-.916-2.81-1.374-1.92-1.01-3.92-1.816-5.604-3.09l-.008-.008c-.97-.808-1.963-1.66-2.339-2.793-.148-.92 1.757-2.577 1.542-2.646a.207.207 0 0 0-.064-.01c-.458 0-1.753 1.128-2.019 2.202-.003-.014-.01-.03-.014-.045-.073-.356-.154-1.256.068-1.98a.29.29 0 0 0 .01-.103 1.968 1.968 0 0 0-.123-.634c-.063-.17-.139-.344-.26-.765-.031-.108-.142-.328-.208-.345.186-.138.375-.28.645-.375a.434.434 0 0 0-.132.314c0 .23.164.415.365.415.2 0 .364-.186.364-.415V.894a.411.411 0 0 0-.255-.39c.053-.007.096-.019.154-.022.081-.006.16-.008.238-.008zm.67 7.763c.065.065.135.124.202.187.214.78.412 1.64.692 2.305.483 1.145 1.216 2.141 1.84 3.154a1.814 1.814 0 0 0-.385.27 6.831 6.831 0 0 0-.199.193 2.61 2.61 0 0 0-1.186-.897c.045-.723-.108-1.712-.34-2.787a34.903 34.903 0 0 0-.624-2.425zm1.006.908c1.149.945 2.428 1.738 3.676 2.54-.018.91-.018 1.778.084 2.675a3.411 3.411 0 0 0-1.437-.736c-.02 0-.037.012-.057.012-.649-1.063-1.383-2.06-1.837-3.134-.156-.37-.293-.85-.429-1.357zm.407 5.254a2.5 2.5 0 0 1 .44.541.3.3 0 0 0 .257.14.29.29 0 0 0 .17-.053c.215-.156.347-.324.476-.446.047-.045.097-.08.148-.117l.149 2.722c-.213-.014-.435-.035-.637-.035-.264 0-.495.036-.633.172-.169-.134-.497-.164-.89-.164-.102 0-.207.002-.316.004l.836-2.764zM6.25 9.574c1.354.787 2.784 1.414 4.135 2.125a.244.244 0 0 0 .006.003c1.295.631 2.586 1.28 3.894 1.904.984 1.189 2.052 2.295 3.078 3.42l-2.15.362-4.267-4.635a.288.288 0 0 0-.037-.036c-1.499-1.137-3.152-2.082-4.66-3.143zM3.076 0c-.135 0-.273.005-.411.013C1.58.083.792.54.523 1.157c-.04.093-.146.314-.007.314a2.35 2.35 0 0 1 .341-.028c.418 0 .38.172.47.194.09.282.29.846.303 1.068-.244.86-.153 1.763-.064 2.198.15.732.63 1.584 1.261 2.38a.285.285 0 0 0 0 .166 35.3 35.3 0 0 1 .903 3.336c.251 1.168.393 2.277.317 2.823a.294.294 0 0 0 .221.328c.045.011.084.031.127.045l-.928 3.079a2.847 2.847 0 0 0-.593-.055c-.381 0-.756.05-1.064.05-.125 0-.24-.008-.34-.032a.546.546 0 0 0-.125-.012c-.436 0-1.428.306-1.34.879.15-.128.257-.159.375-.159.11 0 .23.027.405.027h.027c.254-.004.697-.083 1.053-.083.18 0 .338.02.438.08.236-.01.45-.013.649-.013.85 0 1.447.07 2.5.075a89.565 89.565 0 0 0 2.974-.079c.45.003.697.054.922.054h.04c.134-.004.265-.057.48-.057.123 0 .273.017.468.07-.25-.341-.877-.685-1.33-.685a.591.591 0 0 0-.302.071 5.081 5.081 0 0 0-.508-.022c-.22 0-.448.01-.678.02l-.157-2.83c.487.203.857.517 1.281 1.021a.295.295 0 0 0 .513-.246c-.192-1.039-.213-2.019-.202-3.06.54.354 1.072.713 1.576 1.094l4.36 4.738a.29.29 0 0 0 .263.09c.95-.159 1.9-.315 2.849-.474a.294.294 0 0 0 .23-.193.298.298 0 0 0-.06-.297c-.741-.83-1.508-1.631-2.25-2.445 1.269.78 2.875 1.755 3.08 1.755.022 0 .027-.013.012-.04-.094-.163-.9-.755-1.775-1.373.14.058.276.12.415.177l.017.01c.103.035.16.059.27.062a.286.286 0 0 0 .108-.016.317.317 0 0 0 .188-.152.32.32 0 0 0 .023-.238c-.017-.05-.038-.077-.054-.098-.061-.085-.103-.109-.162-.154a4.553 4.553 0 0 0-.205-.149c-.153-.105-.336-.223-.493-.328a4.992 4.992 0 0 1-.328-.233.307.307 0 0 0-.028-.025l-3.892-2.736c-.008-.006-.02-.001-.028-.006-1.333-1.869-2.588-3.825-4.046-5.627-.744-.92-1.598-2.528-2.985-3.064-.067-.396-.218-1.127-.755-1.649C4.827.26 4.168.056 3.427.011A5.728 5.728 0 0 0 3.076 0zm20.383 3.383q-.542 0-.628.418v.025q.061.11.258.11.567-.245.567-.455v-.024q0-.05-.197-.074zm1.97-.763q-.086.48-.85 1.034l.271.11.37-.135.184.123q1.416.677 3.755.714l3.67.037.049-.001q.627 0 .61.919-.02.954-.647 1.914-.394 0-.8-.302-.407-.301-.665-.708-.259-.406-.665-1.058.123 1.292.738 2.031-.75 0-1.335.142-.293.07-.488.07-.196 0-.294-.07-.123-.088-.61-.088-.295 0-.726.032-.332.025-.607.025-.668 0-1-.148-.308-.258-.388-.905-.08-.646.363-1.791-.91.652-.91 1.982v.443q-.456-.468-.715-1.034Q24.234 4.7 23.36 4.7q-.332 0-1.28.419-.32-.136-.259-.431l.616-.825q.443-.751.64-.837.099-.185.96-.185.37.099.37.271 0 .234-.246.468.467-.099.677-.554 0-.111.59-.406zm.53-2.62q-.06 0-.136.096-.936 1.49-1.7 2.068-.295.259-.8.27-.246 0-.75-.369-.752-.726-1.047-1.23-.333-.592-.431-.653-.05 0-.074.123 0 .702 1.428 2.598-.27.394-.505.898-.234.505-.554.77-.32.265.062.523 0 .32.53.517.43-.123 1.317-.381.53 0 .726.443.653.985.653 2.056.074 1.428-.985 2.733-.333.222-.333.616 0 .16.407.16.664 0 .664-.16l-.049-.332q0-.173.259-.259v-.025q0-.234.837-2.351.382 0 .603.37.283.935.283 1.55 0 .136-.172.58-.21.16-.258.578h.985l-.074-.308q-.05-.185.135-.32l-.086-.456q-.16-1.736-.16-2.043v-.025q.973-.234 1.496-.234t.806.19q.113.077.316.077.307 0 .823-.175.559-.189.858-.189.159 0 .244.054.246.154.246.523 0 1.354-.69 2.302-.22.222-.332.616h.85q.222-.074.098-.37.025-.32.296-.406 0-1.12.985-2.216.69.382.702 1.182 0 .308-.123.837l-.148.407q-.136.16-.246.603h.812q.148-.062.185-.135l-.123-.394q-.062-.173.172-.308-.123-.653.16-.985-.579-1.354-.579-2.13.308-1.268.394-2.376.148.775.037 1.859-.11 1.083.37 2.24.094.196.17.196.055 0 .1-.097.124-.702.05-3.878-.099-.394-.21-.604-.393-.603-.677-.628H29.8q-2.943 0-4.359-.837.234-.418.259-.572.024-.154 0-.376-.591.173-.887.456l-.246-.185q.258-.16.825-1.034.566-.874.665-1.367Q26.015 0 25.959 0zm6.525 13.464c.65.028 1.007.042 1.16.042h.07l-.084 3.397a4.983 4.983 0 0 1-1.292-.769l.146-2.67zm-9.476-.845c-.217.042-.504.174-.469.433v1.894a36.22 36.22 0 0 0-.978-.042c0 .238.196.56.804.56.007.537.104 1.194.202 1.53l.084.88c0 .098.168.126.35.126.216 0 .454-.042.454-.042l-.035-.88c3.452.027 10.036.202 10.364.202.168 0 .28-.182.28-.433l.084-3.795-2.076-.021-.168 2.956c-1.502.007-4.102.252-5.87.252-.56 0-1.042-.021-1.37-.091-.07-.077-.72-1.02-1.132-1.125a1.813 1.813 0 0 0-.245-.028c-.07-.573-.14-1.146-.203-1.712.126-.161.413-.12.49-.336.077-.105.028-.28-.12-.286-.083-.035-.314-.042-.412-.042zM40.91 3.173c-.682.054-1.059.394-1.13 1.022.09.68.466 1.04 1.13 1.075.662-.036 1.012-.394 1.048-1.075-.054-.628-.404-.968-1.049-1.022zm.08-2.259c.484 0 .932.09 1.344.27a3.545 3.545 0 0 1 1.828 1.815c.18.402.27.828.27 1.276 0 .466-.09.901-.27 1.305a3.422 3.422 0 0 1-3.173 2.03c-.483 0-.936-.085-1.357-.256a3.235 3.235 0 0 1-1.09-.712 3.495 3.495 0 0 1-.725-1.062 3.174 3.174 0 0 1-.269-1.305c0-.448.09-.874.269-1.277a3.67 3.67 0 0 1 .726-1.075c.305-.314.668-.56 1.089-.74.421-.18.874-.269 1.358-.269zM40.936 0c-.592 0-1.147.112-1.667.336-.52.224-.968.529-1.345.914a4.48 4.48 0 0 0-.9 1.345 4.071 4.071 0 0 0-.336 1.653c0 .592.112 1.143.336 1.654.224.511.524.955.9 1.331a4.267 4.267 0 0 0 3.012 1.237c.592 0 1.143-.112 1.654-.336a4.48 4.48 0 0 0 1.344-.9c.386-.377.69-.82.914-1.332a4.07 4.07 0 0 0 .337-1.654c0-.591-.113-1.142-.337-1.653A4.358 4.358 0 0 0 42.59.336 4.071 4.071 0 0 0 40.936 0zm-.612 10.68V18h1.225v-7.32zm12.638-8.145q-.166 0-.292.073-.23.133-.23.254.331-.11.588-.11.192 0 .342.062.35.144.93.193l-.145-.121q-.532-.193-.894-.302-.163-.049-.299-.049zm.227.52l.41.169q-.217.097-.434.12.169-.12.024-.289zm-.362 0q-.097.169.024.314-.17-.048-.29-.097.048-.12.266-.217zm.099-.163q-.308 0-.437.235l-.218.145v.121l.193.024q.178.108.43.108.369 0 .898-.229l.507.073.025-.193-.556-.024q-.52-.26-.842-.26zm1.523-1.838q.563 0 1.166.214.881.314 1.304 1.244.423.93-.12 1.98-.398.767-.782.767-.141 0-.281-.103-.52-.387-.52-.942.484-.435.604-.845.121-.41-.012-.749-.132-.338-.507-.398-.064-.01-.13-.01-.31 0-.63.24-.604-.339-1.594-.58.193-.628.99-.773.252-.045.512-.045zm-1.84 1.204q.942.17 1.932.676l.193-.048q.204-.188.356-.188.083 0 .151.055.193.157.097.471-.097.314-.749.845.217 1.28 1.207 1.738-.302.688-.93.688-.276 0-.615-.132-.072-.894-.628-1.4.821-.435.894-1.57h-.121q-.12 1.014-.736 1.328-.616.314-1.002.362-.109.018-.188.018-.235 0-.199-.163.049-.217-.072-.362.126.007.225.007.542 0 .246-.224-.241-.183-.385-.183-.065 0-.11.038.096-.362-.387-.362.556-.894.821-1.594zm4.008 4.008q.7 1.256.894 2.704l-.483.097q-.049-1.4-.41-2.8zm-.531.048q.531 1.135.531 4.733 0 3.597-.7 5.987l.604.483h-8.475v-.048l2.294-.773q-.821-3.621-1.835-5.311t-.447-2.077q.142-.096.292-.096.45 0 .976.869l3.356 4.49h.434q.46-5.552 1.039-7.701.405.164.75.164.723 0 1.181-.72zM52.306 0q-.047 0-.095.013-.181.048-.326.133-.145.084-.097.193.04.089.2.089.036 0 .078-.005.033-.003.056-.003.137 0-.08.124-.254.145-.181.724.072.58.434.749-.193.797-.664 1.473-.454.652.205.652h.049q-.169.24.048.29-.193.12-.048.216.145.097.097.46-.29 1.713-.773 2.377-.396.545-.736.545-.074 0-.145-.026-.177-.064-.292-.064-.144 0-.191.1-.085.182.253.363.118.063.283.063.308 0 .78-.22.724-.338 1.593-2.921l.41-.121q.508.386.628 1.207-.724 2.487-1.11 7.364l-3.284-4.612q-.604-.526-1.064-.526-.257 0-.469.164-.591.459-.676.785-.084.326.893 2.137.978 1.81 1.678 4.635l-2.245.773.12.869h9.924l-1.063-1.183q.628-2.028.628-7.219l.87-.12q0-2.005-1.256-3.96 1.183-1.835.676-3.055-.507-1.219-1.437-1.569-.816-.308-1.69-.308-.12 0-.241.006-1.002.049-1.557 1.063-.218-.338.06-.604.278-.266.109-.628.048-.193-.109-.326Q52.434 0 52.306 0zm9.23 2.077l3.648 3.209q-.769 1.187-2.044 2.395-1.208-2.857-1.604-5.604zM60.565.495q-.704 0-.545.967.68.33.571.747-.11.418.088 1.385.198.967 1.582 4.593-.42 1.431.489 1.431.04 0 .083-.003 2.461 4.528 5.428 7.89h.528l-.132-1.472q-2.374-2.22-5.077-7.187.791-1.67 2.22-2.923l4.373 3.934q.331.148.555.148.61 0 .434-1.093l-4.395-3.758q.017-.999-.833-.999-.198 0-.442.054L61.536.759q-.603-.264-.971-.264zm14.712.629q2.014.293 2.105 1.842v11.177q-.941-1.124-3.38-1.58l1.275-11.44zM74.71 0L73.2 13.363q3.361.385 4.181 2.4V18h1.003V2.966q0-2.51-3.675-2.966zm7.75 1.124q2.015.293 2.106 1.842v11.177q-.942-1.124-3.382-1.58l1.276-11.44zM81.893 0l-1.508 13.363q3.36.385 4.18 2.4V18h1.003V2.966q0-2.51-3.675-2.966z"/></svg>