<svg xmlns="http://www.w3.org/2000/svg" width="68.663" height="18"><path d="M17.788.568q-.111.037-.111.128t.07.146q.027.022.054.022.04 0 .077-.05.063-.081.021-.163-.041-.083-.11-.083zM2.4.47q-.153 0-.296.282.084.183.264.237.028.01.054.01.131 0 .224-.229 0-.255-.194-.292Q2.425.47 2.399.47zM1.395.787q-.042.128.027.238l-.583.073q-.014-.164.556-.31zm.568.436zm.105-.003q.12 0 .195.033.027.012 0 .012-.052 0-.288-.04.05-.005.093-.005zm2.564 1.252q.035 0 .097.068 1.125 1.223 2.792 2.865Q9.19 7.048 9.397 7.724 8.035 7.468 7.07 6.318q-.966-1.15-1.681-2.236-.716-1.086-.799-1.414-.017-.196.042-.196zm.046-.868q.202 0 .384.096 4.321 4.308 4.946 5.604.584 1.405.764 2.154-.076.11-.182.11-.087 0-.193-.074l-.57-1.515q-.43-1.296-2.104-2.875-1.674-1.579-2.424-2.5-.441-.542-.676-.542-.164 0-.227.268-.108.455-.38.455-.115 0-.26-.081.126-.858.542-1.022.198-.078.38-.078zm.357 6.43q.666 1.405.541 2.83-.125 0-.236.236-.045-.403-.277-.403-.051 0-.112.02.292-1.405.084-2.683zM2.557.346q.066 0 .116.013.25.063.292.237.029.122.058.122.013 0 .025-.022.042-.073.056-.164.305.53.041 1.57t.848 1.24q1.028 3.104 2.209 4.72 1.18 1.615.986 3.038-.449-.438-.993-.438-.113 0-.23.019.042-1.296-.472-2.556t-.945-1.889q-.43-.63-1.16-1.497-.73-.867-.722-1.789.007-.921.194-1.286.188-.365.181-.584-.003-.091-.027-.091-.035 0-.112.182-.132.31-.73.328l-.07.001q-.568 0-1.235-.274l.82.073q.404.11.601.11.162 0 .183-.074.049-.164-.076-.192-.125-.027-.257-.027t-.201.055l.026.052-.29-.052Q1.492.787 1.617.623q.028-.055.097-.055-.028.183.049.274.028.034.056.034.046 0 .09-.098.07-.155-.125-.228.511-.204.773-.204zm15.412.04q.375 0 .555.365.056.055.695.2v.056l-.695.073q-.597 0-.75-.12-.153-.118-.146-.273.007-.155.188-.155.18 0 .25.082t.035.173q-.035.092-.132.147h.028q.18 0 .187-.22.007-.237-.299-.273-.389 0-.291.374.092.357.854.357l.076-.001q.431-.037.765-.128L19.26.97q1.236 1.004 1.16 2.29-.077 1.288-.966 2.136-.889.85-1.584 1.871-1.083 1.734-1.167 2.72-.083.986.376.986.458 0 1.118-.721.66-.721 1.34-.74 1.82.055 1.612 2.209-.667-.93-1.5-.93-.417 0-1.14.474-1.097.766-1.667.766l-.472-.091q-.861-.84-.583-2.482.416-1.187 1.125-4.235.486-1.734.965-2.628.48-.895 1.022-.913.291 0 .944.365.027.01.047.01.094 0 .037-.21-.526-.429-1.226-.429-.225 0-.47.045-.208 0-.506-.146-.3-.146-.3-.694.251-.237.543-.237zM4.396 3.05q1.083 1.825 1.986 3.002.903 1.178 1.702 1.588.799.411 1.48.43.083.145 1.653 4.617l-.097.055-3.738-3.14q.028-.273-1.104-1.962-1.132-1.687-1.994-4.46l.112-.128zm3.834 7.867l2.07 1.66q.07.256-.5.348-.127.02-.233.02-.37 0-.49-.248-.152-.32-.389-.831-.236-.511-.458-.95zm7.071-.785q0 .767.167 1.332.43 1.004 1.153 1.023h.038q.711 0 1.699-.657.938-.625 1.365-.625.034 0 .066.004.416.055.903.566.486.51.514.894.05.311-.043.311-.06 0-.18-.128-.399-1.05-1.024-1.05h-.01q-.633.01-1.557.648-.923.639-2.153.639t-1.368-1.04q-.14-1.04.43-1.917zm-10.294 1.06l.208.547q.195-.255.299-.3l.005-.002q.088 0-.304 1.543l-.583.238q-.153-.146.09-.904.243-.757.285-1.122zm14.763 1.14q.461 0 .727.502-.18.384-.847.603-.514 0-1.042-.566.685-.539 1.162-.539zm-1.607.758q.207.265.448.438h-1.883q.692-.095 1.435-.438zm-7.182 1.15Q9.427 17.175 6.5 17.25q-2.913-.076-4.467-3.011zm11.239.018q-1.554 2.935-4.48 3.012-2.913-.077-4.48-3.012zM2.796.008q-.084 0-.179.013-.222 0-1.264.42-.834.255-.903.657l.028.62.417-.2q.68.292 1.139.292.458 0 .347.41-.111.411.028 1.37.139.958 1.097 1.934.959.977 1.188 2.556.23 1.578-.41 3.641l.209-.164q.004-.004.007-.004.046 0-.216.816-.277.867-.757.894-.084.005-.16.005-.348 0-.486-.105-.155-.12-.462-.12l-.045.001q-.34.01-.34.302v.182H1.06Q2.66 17.982 6.507 18q3.849-.018 5.446-4.472l-4.279.037q0-.165-.264-.356-.129-.094-.296-.094-.175 0-.391.103-.13.061-.278.061-.337 0-.771-.317.097-.639.236-1.14.139-.503.528-.594.036-.008.073-.008.362 0 .816.811.264-.675.153-1.825l.139.128q1.042 2.3 1.257 2.701.163.305.634.305.15 0 .331-.031.75-.128.737-.475l.639.42.486-.237-1.07-3.048q.264 0 .487-.292-.264-1.096-.82-2.446-.39-.822-.792-1.278Q8.411 4.603 7.23 3.39T5.493 1.518q-.373-.28-.775-.28-.226 0-.461.088-.653.246-.792 1.214-.042-.037.07-.73.11-.694-.05-1.287-.138-.514-.689-.514zM18.016 0q-.252 0-.478.094-.292.11-.347.42-.111.383.097.757.208.374.653.466-.89 1.058-1.514 3.741-.584 2.556-.973 3.779-1.042 1.113-1.035 2.236.007 1.122.424 1.597.301.343.878.438h-3.434q1.597 4.454 5.446 4.472 3.848-.018 5.445-4.472h-2.674q.153-.11.313-.256.156.245.354.245.083 0 .174-.044.347-.219.139-1.004.194-2.245-.459-2.865-.653-.621-1.473-.621-.75 0-1.625.849-.543.526-.743.526-.124 0-.118-.198.014-.52.611-1.761.403-.876 1.75-2.254 1.348-1.378 1.334-2.775-.014-1.396-.597-2.099-.584-.703-1.292-.794-.111-.2-.292-.328Q18.4.02 18.1.003 18.059 0 18.017 0zm8.618 0l-1.456 1.72h.71l.746-.888.753.889.731-.89.753.89.745-.89.753.89.746-.89.753.89.73-.89.754.89.752-.89.732.89.753-.89.745.89h.71L35.589 0l-.753.832L34.104 0l-.752.832L32.599 0l-.731.832L31.115 0l-.746.832L29.616 0l-.745.832L28.118 0l-.731.832L26.634 0zm-1.011 2.938l-.01.003-.435.095c.063.515.263 1.014.595 1.414.297.362.714.65 1.185.716.161.016.323.021.485.021.167 0 .334-.006.501-.013.613-.032 1.227-.197 1.745-.534a3.43 3.43 0 0 0 .808-.736c.024-.022.053-.027.084-.027.028 0 .058.004.086.004a.198.198 0 0 0 .035-.003c.807-.008 1.615-.023 2.423-.023.458 0 .917.005 1.375.02a.09.09 0 0 1 .019-.004c.042 0-.05.07-.063.094-.333.377-.658.76-1.003 1.128l.698.394c.38-.374.667-.85 1.131-1.13.438-.224.943-.198 1.42-.24l.342-.03v-.94c-2.023.005-4.046.005-6.069.038a8.259 8.259 0 0 1-.227.003c-.95 0-1.892-.153-2.84-.199a7.408 7.408 0 0 0-.274-.005c-.203 0-.406.01-.607.035-.2.049-.282.259-.378.418a4.683 4.683 0 0 1-.149.243c.018.01.036.013.053.013.074 0 .137-.071.205-.097.162-.092.34-.186.53-.186.025 0 .05.002.077.005.753.013 1.5.121 2.248.192-.154.335-.5.519-.83.643a5.333 5.333 0 0 1-1.848.346c-.342-.026-.616-.276-.81-.54-.247-.33-.38-.728-.502-1.118zm2.221 4.137c.725 0 1.37.334 1.79.858h-3.581a2.29 2.29 0 0 1 1.79-.858zm2.033 1.228c.138.263.227.556.254.867h-4.574c.027-.31.115-.604.254-.867zm.256 1.237c-.023.31-.107.604-.24.868h-4.098a2.284 2.284 0 0 1-.24-.868zm-.475 1.238a2.29 2.29 0 0 1-1.814.888 2.29 2.29 0 0 1-1.814-.888zm-1.814-4.073a2.669 2.669 0 0 0-2.666 2.665 2.669 2.669 0 0 0 2.666 2.665 2.669 2.669 0 0 0 2.665-2.665 2.669 2.669 0 0 0-2.665-2.665zm6.541 2.999c.654 0 1.473.336 1.87.732.346.347.391.806.404 1.233h-4.527c.012-.427.058-.886.404-1.233.396-.396 1.195-.732 1.85-.732zm0-.366c-.775 0-1.61.359-2.1.848-.501.502-.558 1.162-.558 1.657v.192h5.317v-.192c0-.495-.038-1.155-.54-1.657-.489-.49-1.343-.848-2.119-.848zm.81 4.662c.574.024.888.036 1.024.036h.061l-.074 2.996a4.396 4.396 0 0 1-1.14-.678l.13-2.355zm-8.359-.747c-.191.037-.444.154-.413.382v1.671c-.37-.018-.752-.037-.863-.037 0 .21.173.493.709.493.006.475.092 1.054.179 1.35l.074.777c0 .086.148.111.308.111.191 0 .4-.037.4-.037l-.03-.777c3.045.025 8.852.179 9.142.179.148 0 .246-.16.246-.382l.074-3.348-1.83-.018-.148 2.608c-1.326.006-3.619.222-5.179.222-.493 0-.918-.019-1.208-.08-.062-.068-.635-.9-.999-.993a1.599 1.599 0 0 0-.215-.025 142.85 142.85 0 0 1-.18-1.51c.112-.142.365-.105.432-.296.068-.092.025-.247-.104-.253-.074-.03-.278-.037-.364-.037zM48.9.484q.152.18.152.888 0 .61-.188 1.041-.422-.43-.44-1.04.009-.71.476-.89zM47.76.369q.436 0 .53.16-.055.457-.369.673-.18.17 0 .377.314.242.377.745 0 .251-.817.251-.816 0-2.45-.126-.557-.062-1.248-.664-.799-.61-1.4-.727h-.01q-.285 0-.762.548-.485.556-.933 1.48h-.88q.08-.197 1.234-1.319Q42.16.671 42.373.671l.01.001q.601.153 1.005.471.233.184.476.184.177 0 .36-.098 1.49-.566 2.696-.772.515-.088.84-.088zM48.714 0q-.168 0-.408.062-1.642.027-3.276.511-.458.153-1.185.467-.763-.556-1.463-.664h-.008q-.217 0-.741.494-.535.502-1.683 1.66-.665.691-.907 1.185v.018h1.41v-.43h.439q.494-1.14.907-1.572.353-.369.53-.369.029 0 .053.01.637.198 1.032.53t.88.62q.485.286 1.427.327.566.024 1.39.024.549 0 1.213-.01.209.051.362.051.268 0 .365-.16.314-.771.314-1.382 0-.718-.314-1.238Q48.962 0 48.715 0zm-4.63 5.335q.625 0 1.14.312 1.05.608 1.987.608.945 0 1.732-.081v1.622q-.978-.174-1.413-.174h-.012q-.353 0-.984.081-2.566.354-3.198.354-1.048 0-1.975-.035-1.587-.093-1.744-.168-.15-.07-.15-.4 0-.324.087-.568.087-.243.29-.347 4.958-.22 5.346-.255-.346-.499-1.07-.499-.236 0-.512.053-.923.182-1.424.182-.105 0-.192-.008-.492-.047-.457-.47.276.038.57.038.62 0 1.318-.165.345-.08.661-.08zm.148-.47q-.251 0-.496.064-.99.26-1.744.272-.185 0-.666-.093-.226.209-.226.492 0 .284.18.481-1.894.07-1.894.226-.342.435-.342 1.043 0 .602.319.822.961.307 3.863.307.464 0 .944-.046 2.688-.4 3.204-.411h.05q.53 0 1.942.22v-2.56l-.011.011q-1.21.14-1.976.157h-.078q-.728 0-1.497-.406-.814-.579-1.572-.579zm-.027 5.308q1.818 0 3.856.878-2.038.854-3.856.854-1.806 0-3.856-.854 2.05-.878 3.856-.878zm0-.561q-2.245 0-5.161 1.427 2.916 1.416 5.161 1.416 2.245 0 5.161-1.416-2.904-1.427-5.16-1.427zm3.797 4.668c.533.023.826.035.952.035h.057l-.069 2.785a4.087 4.087 0 0 1-1.06-.63l.12-2.19zm-7.772-.693c-.177.034-.412.143-.384.355v1.553a30.081 30.081 0 0 0-.802-.034c0 .195.16.458.66.458.005.442.085.98.165 1.256l.07.722c0 .08.137.103.286.103.177 0 .372-.034.372-.034l-.028-.723c2.83.023 8.23.167 8.5.167.137 0 .229-.15.229-.356l.068-3.112-1.702-.017-.137 2.424c-1.233.006-3.365.207-4.815.207-.458 0-.854-.018-1.123-.075-.058-.063-.59-.837-.929-.923a1.487 1.487 0 0 0-.2-.023c-.058-.47-.115-.94-.167-1.404.104-.132.339-.097.402-.275.063-.086.023-.23-.098-.235-.069-.028-.258-.034-.338-.034zM58.914.259v.943h-.278V.26zm1.646 0v.943h-.277V.26zm.833 0v.943h-.296V.26zm-1.665.018v.944h-.278V.277zm-1.72.389q-1.776 1.24-3.071 1.24-1.277 0-2.239-1.24zm9.23 0q-.955 1.249-2.329 1.249h-.02q-1.387-.01-2.849-1.249zM51.366 0q1.332 2.608 3.645 2.608 1.701 0 3.089-1.073h3.755q1.203 1.073 3.108 1.073 2.275 0 3.7-2.608zm3.606 7.143c.886 0 1.997.456 2.534.993.47.47.531 1.093.548 1.672h-6.14c.018-.58.08-1.202.55-1.672.537-.537 1.62-.993 2.508-.993zm0-.496c-1.053 0-2.185.486-2.848 1.15-.68.68-.758 1.576-.758 2.246v.261h7.21v-.261c0-.67-.05-1.566-.73-2.247-.664-.663-1.822-1.15-2.874-1.15zm5.955-2.387v6.044h1.012V4.26zm3.363 0v6.044h1.01V4.26zm3.361 0v6.044h1.012V4.26zm-16.285 7.696V18h1.012v-6.044zm3.257 0V18h1.012v-6.044zm3.257 0V18h1.012v-6.044zm3.257 0V18h1.012v-6.044zm3.257 0V18h1.012v-6.044zm3.257 0V18h1.012v-6.044z"/></svg>