<svg xmlns="http://www.w3.org/2000/svg" width="49.431" height="18"><path d="M10.745 2.694c-.69 0-1.246.553-1.25 1.244v.007c0 .693.557 1.251 1.25 1.251s1.251-.558 1.251-1.251c0-.693-.558-1.251-1.25-1.251zm1.612 3.591c-.047.077-.114.144-.05.144a.306.306 0 0 0 .07-.012.289.289 0 0 0 .086.025c.053 0-.068-.102-.106-.157zm-1.103-.27c.288 0 .406.414.19.59a.258.258 0 0 1-.186.075.315.315 0 0 1-.31-.265c-.04-.187.098-.4.298-.4a.283.283 0 0 1 .008 0zm-.086-.247c-.033 0-.065 0-.097.002-.243.02-.51.125-.64.342-.053.291-.042.634.187.855.156.193.457.25.518.516.023.129-.053.337.089.337.018 0 .04-.003.066-.01.2-.295.38-.609.629-.866-.125-.132-.262-.339-.106-.502.105-.144.356-.38.032-.397-.14-.232-.424-.277-.678-.277zm-1.352.348c-.437.388-.583.986-.685 1.538-.042.247-.065.498-.09.747.223-.237.528-.463.861-.463a.725.725 0 0 1 .176.021c.202 0 .31.369.339.384l.11-.666c-.43-.149-.624-.611-.686-1.029a2.388 2.388 0 0 1-.025-.532zm.046 2.49a.724.724 0 0 0-.414.237c-.182.733-.117 1.494-.104 2.24-.012.27.03.55.016.826-.004 1.045-.216 2.078-.185 3.124l4.995.012-.643-1.316c.313-.742.702-1.452.999-2.202.128-.344.287-.696.287-1.07-.015-.115-.067-.157-.134-.157-.12 0-.288.136-.368.222-.625.602-1.132 1.314-1.633 2.02a19.472 19.472 0 0 0-1.285 2.096c.026-1.617.107-3.24-.097-4.85-.03-.352-.18-.678-.343-.987l-.018 2.25h-1.03c.01-.815.031-1.632-.043-2.444zm.883-6.356c.934 0 1.695.761 1.695 1.695a1.7 1.7 0 0 1-.751 1.406c.082.026.165.055.245.09.122.057.245.122.303.25.063.101.118.206.243.24.344.252.465.734.379 1.138a.066.066 0 0 1-.036.01c-.103 0-.279-.177-.352-.177a.033.033 0 0 0-.015.003c-.05.233-.217.408-.31.622a3.747 3.747 0 0 1-.626.832c.236.423.433.877.474 1.365.115.845.134 1.7.134 2.553.644-.882 1.305-1.764 2.107-2.51a.886.886 0 0 1 .572-.223.6.6 0 0 1 .403.145c.29.287.247.73.172 1.094-.215.926-.621 1.792-.983 2.666-.05.192-.262.402-.093.585.209.336.504.616.694.962.101.238.088.504.056.754l-6.49-.016c-.083-.846-.084-1.7.005-2.546.042-.746.056-1.492.088-2.239l-.439-.039c.094-1.1.127-2.208.33-3.295.128-.606.277-1.234.653-1.74.18-.215.412-.375.666-.487a1.693 1.693 0 0 1-.819-1.443v-.012a1.697 1.697 0 0 1 1.695-1.683zm12.36.293c.024 0 .049.003.075.01.143.04.185.159.124.358l-1.042 2.696h-.508l1.107-2.852c.057-.141.138-.212.244-.212zm.86.217c.03 0 .061.005.094.015.165.048.195.171.091.37l-.95 2.462h-.508l1.003-2.617c.062-.153.152-.23.27-.23zm-2.57 3.976c-.082 0-.174.014-.279.043v.13a.933.933 0 0 1 .28-.05c.073 0 .138.013.196.037.126.052.293.087.501.104l-.065-.065a27.78 27.78 0 0 1-.456-.17.494.494 0 0 0-.178-.029zm.099.29l.234.078a1.728 1.728 0 0 1-.234.078c.052-.043.052-.095 0-.156zm-.195 0c-.026.052-.018.109.026.17a.807.807 0 0 1-.156-.053c.008-.043.052-.082.13-.117zm.065-.091c-.113 0-.191.043-.235.13l-.117.065-.013.065.117.026c.064.04.14.059.23.059.13 0 .288-.041.474-.124h.286v-.09h-.3c-.182-.088-.33-.131-.442-.131zm2.357-1.08l-.886 1.627c-.058.08-.112.121-.162.121a.109.109 0 0 1-.072-.03l-.287-.182c.018-.061.087-.152.209-.274.121-.121.147-.267.078-.436-.04-.096-.115-.144-.226-.144a.834.834 0 0 0-.321.085c-.277-.166-.522-.25-.735-.25l-.06.003a2.686 2.686 0 0 0-.09-.52zm-2.498.74c.222 0 .512.097.87.288.078-.087.156-.13.234-.13.078 0 .12.039.124.117.004.078-.065.18-.208.306s-.21.232-.202.319l.039.013a.64.64 0 0 1-.26.449c-.148.109-.348.167-.6.176a.936.936 0 0 1-.048.001c-.13 0-.188-.033-.173-.099a.206.206 0 0 0-.039-.189l.075.002c.243 0 .307-.042.192-.125-.085-.062-.153-.093-.205-.093a.093.093 0 0 0-.062.021c.035-.13-.035-.2-.208-.208.19-.321.338-.604.443-.847h.028zm.935.965l.378.234c.026.4.108.677.247.834a1.596 1.596 0 0 0-.21-.015c-.05 0-.097.003-.141.008a.546.546 0 0 0-.3.15 2.489 2.489 0 0 0-.325-.664c.225-.165.342-.347.351-.547zm-3.891 2.77c.189 0 .366.092.532.277-.313.008-.521.108-.625.3-.087-.218-.196-.34-.326-.365-.13-.026-.06-.085.209-.176a.652.652 0 0 1 .21-.036zm4.399-1.416c.338 0 .551.191.638.573.121.53.139 1.354.052 2.474a39.963 39.963 0 0 1-.365 3.19l.157.234h-4.323l.898-.364c-.26-1.276-.586-2.212-.976-2.806-.391-.595-.456-.979-.196-1.152a.443.443 0 0 1 .247-.083c.176 0 .35.127.522.382l1.757 2.5.313-.026c.19-1.944.395-3.394.612-4.349.104-.382.325-.573.664-.573zm.376-6.664c-.25 0-.42.147-.506.44l-1.12 2.917h-.56c.104.347.156.655.156.924-.06.243-.176.486-.345.73-.163.234-.13.351.099.351h.025c-.06.087-.052.139.026.156-.07.035-.078.072-.026.11.052.04.074.125.065.255-.026.382-.128.692-.306.93-.146.197-.279.295-.399.295a.216.216 0 0 1-.076-.014.459.459 0 0 0-.155-.035c-.051 0-.086.018-.106.054-.034.065.011.133.137.202a.324.324 0 0 0 .159.037c.111 0 .249-.04.414-.122.256-.125.488-.514.697-1.165h.364c.113.104.2.256.26.456-.312 1.007-.568 2.482-.768 4.427l-1.757-2.474a1.217 1.217 0 0 0-.365-.365.758.758 0 0 0-.615-.308.987.987 0 0 0-.205.022v-2.8c0-.381-.135-.577-.404-.585a3.21 3.21 0 0 1 .638-.704c.074-.132.072-.198-.005-.198a.66.66 0 0 0-.242.081 8.5 8.5 0 0 0-.573.495c-.217.226-.341.393-.371.501l-.241.853c.005.14.027.21.067.21.032 0 .074-.043.128-.132.035-.113.083-.256.143-.43a.63.63 0 0 1 .352-.377c.147 0 .221.095.221.286v2.852c-.503.27-.644.451-.423.547.205.088.371.244.498.467.063.43.24.89.53 1.382.309.52.589 1.285.84 2.292l-.99.43.066.507h5.56l-.573-.677c.278-2.7.375-4.425.293-5.176-.082-.75-.271-1.165-.566-1.243-.209-.209-.291-.434-.248-.677l.326-.586c.512.373.768.876.768 1.51v6.849h.286V8.901c0-.755-.308-1.345-.924-1.77l.846-1.524h-.599l.925-2.396c.13-.33.071-.543-.176-.638a.927.927 0 0 0-.333-.069.618.618 0 0 0-.312.082c-.06-.191-.236-.302-.527-.332a.705.705 0 0 0-.073-.004zm15.714.64q-.311.312-.311 1.143 0 .849.311 1.16H28.471q.312-.311.312-1.16 0-.83-.312-1.142zM26.48 2.25q-.45 0-.433.294-.017.347.433.347h1.125q.416.311.416 1.142 0 .849-.416 1.16h-1.108q-.467 0-.467.295 0 .346.45.346h14.268q.433 0 .433-.346 0-.294-.45-.294h-1.109q-.415-.312-.415-1.16 0-.832.415-1.143h1.126q.433 0 .433-.347 0-.294-.433-.294zm1.37 6.594q.403 0 1.062.22 1.129.376 2.339 1.572 1.21 1.196.967 2.218-.242 1.021-.94 1.532-.578.422-1.394.422-.172 0-.354-.019-1.048-.107-1.8-1.653-.754-1.546-.7-2.755.054-1.21.376-1.425.157-.112.445-.112zm-.11-.933q-.553 0-.898.238-.726.511-.807 2.097-.08 1.586.914 3.441.995 1.855 2.42 2.03.272.033.53.033 1.09 0 1.916-.598 1.022-.74 1.277-2.097.255-1.357-1.089-2.876Q30.66 8.66 29.1 8.163q-.79-.252-1.36-.252zm10.166 4.968c.806 0 1.814.414 2.302.902.427.426.482.992.498 1.518H35.13c.016-.526.071-1.092.498-1.518.488-.488 1.473-.902 2.278-.902zm0-.451c-.956 0-1.984.441-2.586 1.044-.618.618-.688 1.432-.688 2.04v.238h6.549v-.237c0-.61-.047-1.423-.665-2.04-.602-.604-1.654-1.045-2.61-1.045z"/><path d="M8.22.375c-9.625 0-9.625 17.25 0 17.25m0-17.25h32.96M8.22 17.625h32.96M48.868.375v17.25M41.18.375c9.626 0 9.626 17.25 0 17.25" fill="none" stroke="#000"/></svg>