<svg xmlns="http://www.w3.org/2000/svg" width="88.538" height="18"><path d="M3.01.474c.693 0 1.247.2 1.634.479.006.053.02.107.009.16-.05.248-.195.477-.396.63-.316.207-.697.267-1.057.356-.09.01-.019.031.031.04.23.04.707.099.971.099l.052-.001c.278-.032.54-.148.766-.311.079-.067.147-.15.205-.236.147.346.227.713.26.917.018.11.096.2.202.233 1.139.349 2.038 1.91 2.88 2.949 1.729 2.137 3.199 4.526 4.892 6.76-.937-.456-1.87-.916-2.81-1.374-1.92-1.01-3.92-1.816-5.604-3.09l-.008-.008c-.97-.808-1.963-1.66-2.339-2.793-.148-.92 1.757-2.577 1.542-2.646a.207.207 0 0 0-.064-.01c-.458 0-1.753 1.128-2.019 2.202-.003-.014-.01-.03-.014-.045-.073-.356-.154-1.256.068-1.98a.29.29 0 0 0 .01-.103 1.968 1.968 0 0 0-.123-.634c-.063-.17-.139-.344-.26-.765-.031-.108-.142-.328-.208-.345.186-.138.375-.28.645-.375a.434.434 0 0 0-.132.314c0 .23.164.415.365.415.2 0 .364-.186.364-.415V.894a.411.411 0 0 0-.255-.39c.053-.007.096-.019.154-.022.081-.006.16-.008.238-.008zm.67 7.763c.065.065.135.124.202.187.214.78.412 1.64.692 2.305.483 1.145 1.216 2.141 1.84 3.154a1.814 1.814 0 0 0-.385.27 6.831 6.831 0 0 0-.199.193 2.61 2.61 0 0 0-1.186-.897c.045-.723-.108-1.712-.34-2.787a34.903 34.903 0 0 0-.624-2.425zm1.006.908c1.149.945 2.428 1.738 3.676 2.54-.018.91-.018 1.778.084 2.675a3.411 3.411 0 0 0-1.437-.736c-.02 0-.037.012-.057.012-.649-1.063-1.383-2.06-1.837-3.134-.156-.37-.293-.85-.429-1.357zm.407 5.254a2.5 2.5 0 0 1 .44.541.3.3 0 0 0 .257.14.29.29 0 0 0 .17-.053c.215-.156.347-.324.476-.446.047-.045.097-.08.148-.117l.149 2.722c-.213-.014-.435-.035-.637-.035-.264 0-.495.036-.633.172-.169-.134-.497-.164-.89-.164-.102 0-.207.002-.316.004l.836-2.764zM6.25 9.574c1.354.787 2.784 1.414 4.135 2.125a.244.244 0 0 0 .006.003c1.295.631 2.586 1.28 3.894 1.904.984 1.189 2.052 2.295 3.078 3.42l-2.15.362-4.267-4.635a.288.288 0 0 0-.037-.036c-1.499-1.137-3.152-2.082-4.66-3.143zM3.076 0c-.135 0-.273.005-.411.013C1.58.083.792.54.523 1.157c-.04.093-.146.314-.007.314a2.35 2.35 0 0 1 .341-.028c.418 0 .38.172.47.194.09.282.29.846.303 1.068-.244.86-.153 1.763-.064 2.198.15.732.63 1.584 1.261 2.38a.285.285 0 0 0 0 .166 35.3 35.3 0 0 1 .903 3.336c.251 1.168.393 2.277.317 2.823a.294.294 0 0 0 .221.328c.045.011.084.031.127.045l-.928 3.079a2.847 2.847 0 0 0-.593-.055c-.381 0-.756.05-1.064.05-.125 0-.24-.008-.34-.032a.546.546 0 0 0-.125-.012c-.436 0-1.428.306-1.34.879.15-.128.257-.159.375-.159.11 0 .23.027.405.027h.027c.254-.004.697-.083 1.053-.083.18 0 .338.02.438.08.236-.01.45-.013.649-.013.85 0 1.447.07 2.5.075a89.565 89.565 0 0 0 2.974-.079c.45.003.697.054.922.054h.04c.134-.004.265-.057.48-.057.123 0 .273.017.468.07-.25-.341-.877-.685-1.33-.685a.591.591 0 0 0-.302.071 5.081 5.081 0 0 0-.508-.022c-.22 0-.448.01-.678.02l-.157-2.83c.487.203.857.517 1.281 1.021a.295.295 0 0 0 .513-.246c-.192-1.039-.213-2.019-.202-3.06.54.354 1.072.713 1.576 1.094l4.36 4.738a.29.29 0 0 0 .263.09c.95-.159 1.9-.315 2.849-.474a.294.294 0 0 0 .23-.193.298.298 0 0 0-.06-.297c-.741-.83-1.508-1.631-2.25-2.445 1.269.78 2.875 1.755 3.08 1.755.022 0 .027-.013.012-.04-.094-.163-.9-.755-1.775-1.373.14.058.276.12.415.177l.017.01c.103.035.16.059.27.062a.286.286 0 0 0 .108-.016.317.317 0 0 0 .188-.152.32.32 0 0 0 .023-.238c-.017-.05-.038-.077-.054-.098-.061-.085-.103-.109-.162-.154a4.553 4.553 0 0 0-.205-.149c-.153-.105-.336-.223-.493-.328a4.992 4.992 0 0 1-.328-.233.307.307 0 0 0-.028-.025l-3.892-2.736c-.008-.006-.02-.001-.028-.006-1.333-1.869-2.588-3.825-4.046-5.627-.744-.92-1.598-2.528-2.985-3.064-.067-.396-.218-1.127-.755-1.649C4.827.26 4.168.056 3.427.011A5.728 5.728 0 0 0 3.076 0zM25.85 4.787q-.407 0-.472.314v.019q.047.083.194.083.425-.185.425-.342v-.018q0-.037-.148-.056zm1.477-.572q-.065.36-.637.775l.203.083.277-.101.138.092q1.062.508 2.817.536l2.752.027h.037q.47 0 .457.688-.014.716-.485 1.436-.296 0-.6-.226-.305-.226-.5-.53-.193-.306-.498-.795.093.97.554 1.524-.563 0-1.002.106-.219.053-.365.053-.147 0-.221-.053-.092-.066-.457-.066-.222 0-.545.024-.249.02-.455.02-.501 0-.75-.112-.23-.194-.29-.679-.06-.485.272-1.343-.684.489-.684 1.486v.333q-.341-.351-.535-.776-.379-.942-1.035-.942-.249 0-.96.314-.24-.101-.194-.323l.462-.619q.332-.563.48-.628.074-.138.72-.138.277.074.277.203 0 .175-.184.35.35-.073.508-.415 0-.083.443-.304zm.398-1.965q-.045 0-.103.072-.701 1.117-1.274 1.551-.222.194-.6.203-.185 0-.563-.277-.564-.545-.785-.923-.25-.444-.324-.49-.037 0-.055.093 0 .526 1.071 1.948-.203.296-.378.674-.176.379-.416.577-.24.199.046.393 0 .24.397.388l.988-.287q.397 0 .545.333.49.738.49 1.542.055 1.071-.74 2.05-.249.166-.249.461 0 .12.305.12.499 0 .499-.12l-.037-.249q0-.13.194-.194v-.018q0-.176.628-1.764.286 0 .452.277.213.702.213 1.164 0 .101-.13.434-.157.12-.194.434h.74l-.056-.231q-.037-.139.101-.24l-.064-.342q-.12-1.302-.12-1.533v-.018q.73-.176 1.122-.176.392 0 .604.143.085.057.237.057.23 0 .618-.13.419-.142.643-.142.119 0 .183.04.185.115.185.392 0 1.016-.517 1.727-.167.166-.25.462h.637q.167-.056.074-.277.019-.24.222-.305 0-.84.739-1.662.517.286.526.886 0 .231-.092.628l-.111.305q-.102.12-.185.453h.61q.11-.047.138-.102l-.092-.296q-.046-.129.13-.23-.093-.49.12-.74-.435-1.015-.435-1.597.231-.95.296-1.782.11.582.027 1.395-.083.812.277 1.68.07.146.129.146.04 0 .074-.072.093-.526.037-2.909-.073-.295-.157-.452-.295-.453-.507-.471h-2.983q-2.207 0-3.269-.628.176-.314.194-.43.018-.115 0-.281-.443.13-.665.342l-.185-.139q.194-.12.62-.776.424-.655.498-1.025-.031-.062-.073-.062zm4.893 10.098c.488.021.755.032.87.032h.053l-.063 2.547a3.738 3.738 0 0 1-.97-.576l.11-2.003zm-7.107-.634c-.163.031-.377.131-.351.325v1.42c-.315-.015-.64-.031-.734-.031 0 .178.147.42.603.42.005.403.078.896.152 1.147l.063.66c0 .074.125.095.262.095.162 0 .34-.031.34-.031l-.026-.66c2.59.02 7.527.151 7.773.151.126 0 .21-.136.21-.325l.063-2.846-1.557-.016-.126 2.217c-1.127.006-3.076.19-4.402.19-.42 0-.781-.017-1.028-.069-.052-.058-.54-.765-.849-.844a1.36 1.36 0 0 0-.183-.02c-.053-.43-.105-.86-.152-1.285.094-.12.309-.09.366-.252.058-.078.021-.21-.089-.215-.063-.026-.235-.031-.309-.031zM38.937 4.63c-.51.04-.793.295-.847.766.067.51.35.78.847.807.498-.027.76-.296.787-.807-.04-.47-.303-.726-.787-.766zm.06-1.694c.364 0 .7.067 1.009.201a2.659 2.659 0 0 1 1.371 1.361c.135.303.202.622.202.959 0 .35-.067.675-.202.978a2.567 2.567 0 0 1-2.38 1.523c-.362 0-.702-.065-1.018-.192a2.426 2.426 0 0 1-.817-.535 2.621 2.621 0 0 1-.544-.796 2.38 2.38 0 0 1-.202-.978c0-.337.067-.656.202-.958.134-.303.316-.572.544-.807.229-.235.501-.42.817-.555a2.574 2.574 0 0 1 1.019-.201zm-.04-.686c-.443 0-.86.084-1.25.252-.39.168-.726.397-1.008.686a3.36 3.36 0 0 0-.676 1.008 3.053 3.053 0 0 0-.252 1.24c0 .444.084.857.252 1.24.168.384.393.717.676.999a3.2 3.2 0 0 0 2.258.928c.444 0 .857-.084 1.24-.253a3.36 3.36 0 0 0 1.009-.675 3.16 3.16 0 0 0 .686-.998c.168-.384.252-.797.252-1.24 0-.444-.084-.858-.252-1.24a3.268 3.268 0 0 0-1.694-1.695 3.053 3.053 0 0 0-1.24-.252zm-.459 8.01v5.49h.919v-5.49zm9.479-6.109q-.125 0-.22.055-.172.1-.172.19.249-.082.441-.082.144 0 .257.046.262.109.697.145l-.109-.09q-.398-.145-.67-.227-.122-.037-.224-.037zm.17.39l.308.127q-.163.072-.326.09.126-.09.018-.217zm-.272 0q-.072.127.018.236-.126-.037-.217-.073.036-.09.2-.163zm.075-.122q-.231 0-.328.177l-.163.108v.09l.145.019q.132.081.322.081.276 0 .674-.172l.38.055.018-.145-.417-.018q-.39-.195-.631-.195zm1.142-1.379q.422 0 .875.161.66.236.977.933.317.697-.09 1.485-.298.576-.586.576-.106 0-.21-.078-.39-.29-.39-.707.362-.326.453-.633.09-.308-.01-.562-.1-.253-.38-.298-.048-.008-.097-.008-.233 0-.473.18-.453-.254-1.195-.435.145-.47.742-.58.189-.034.384-.034zm-1.38.904q.706.126 1.449.507l.145-.037q.152-.14.267-.14.062 0 .113.04.145.119.072.354-.072.235-.56.634.162.96.904 1.304-.226.515-.697.515-.207 0-.461-.099-.055-.67-.471-1.05.615-.326.67-1.177h-.09q-.091.76-.553.996-.462.235-.752.271-.081.014-.14.014-.176 0-.15-.122.037-.163-.054-.272.095.006.17.006.406 0 .184-.169-.181-.137-.289-.137-.049 0-.083.028.073-.271-.29-.271.417-.67.616-1.195zm3.006 3.006q.525.941.67 2.028l-.362.072q-.036-1.05-.308-2.1zm-.398.036q.398.85.398 3.549 0 2.698-.525 4.49l.453.363H44.29v-.036l1.72-.58q-.616-2.716-1.376-3.984-.76-1.267-.335-1.557.106-.072.219-.072.338 0 .732.652l2.517 3.368h.326q.344-4.165.778-5.777.304.123.563.123.543 0 .886-.54zM47.485 2.25q-.035 0-.072.01-.135.036-.244.1-.109.063-.072.144.03.067.15.067.027 0 .058-.004l.042-.002q.103 0-.06.093-.19.109-.136.543.054.435.326.562-.145.597-.498 1.104-.341.49.154.49h.036q-.127.18.036.216-.145.09-.036.163.109.073.072.344-.217 1.286-.579 1.784-.297.409-.552.409-.055 0-.109-.02-.133-.048-.219-.048-.108 0-.143.076-.063.135.19.271.088.048.212.048.231 0 .585-.166.543-.253 1.195-2.19l.308-.091q.38.29.47.905-.543 1.865-.832 5.523l-2.463-3.458q-.453-.395-.798-.395-.193 0-.352.123-.444.344-.507.588-.063.245.67 1.603.733 1.358 1.259 3.477l-1.685.58.091.651h7.442l-.796-.887q.47-1.521.47-5.415l.652-.09q0-1.503-.941-2.97.887-1.376.507-2.29-.38-.915-1.078-1.177-.612-.231-1.267-.231-.09 0-.181.004-.752.036-1.168.797-.163-.254.045-.453.208-.199.081-.47.037-.145-.081-.245-.086-.073-.182-.073zm11.663.273q.129 0 .21.155.126.201-.19.34-.303.152-.202.518l.29 1.249q-.302.038-.53.303V3.523q0-.795.215-.921.116-.08.207-.08zm-.712 2.834v.47l-1.034-.108q.025-.127.39-.26.267-.096.644-.102zm.453.029q.456.094.683.56l-.82-.086v-.18q0-.088.113-.264l.024-.03zm1.351.522q-.069 0-.201.227.328-.114.24-.202-.016-.025-.039-.025zm-2.901.656q-.038.076-.032.12.006.044.07.07-.076 0-.14-.039.013-.075.102-.151zm.113-.025q.114.012.202.063-.05.088-.164.151.05-.063.044-.126-.006-.063-.082-.088zm-.05-.05q-.177 0-.24.264.114.076.278.076.164 0 .277-.19h.303v-.1l-.303.025q-.139-.076-.315-.076zm-3.041-.341q.757 0 0 1.4-.757-1.4 0-1.4zm5.893-.32q.049 0 .088.042.139.164-.24.34.391.594.404 1.414l-.101.012q0-.832-.328-1.375l-.025.013q.24.53.252 1.754l-.114.012q-.075-1.224-.138-1.514l-.114-.416q.191-.282.316-.282zm-2.678.392q.124 0 .23.035.252.082.252.347h.176q.038-.24.152-.24.113 0 .038.24l-.354.555v1.186l-.037.013q-.05-.089-.12-.227-.07-.14-.095-.366h-.378q-.215 0-.215-.101 0-.19.202-.215 0-.1-.063-.1l-.253-.013q.076-.177-.151-.227 0-.101.202-.455v-.214l.038.05q.164-.075.252-.088.101 0 .303.088h.227V6.4h-.227q-.177-.114-.303-.114-.139 0-.29.114 0-.101.038-.114.205-.066.376-.066zm-.275-.312l1.135.121v.106h.316v-.072l.908.097q.013.063.127.417.164.492.138 3.47l-1.59.012V7.195q.089-.126.228-.353.138-.228.132-.486-.005-.217-.21-.217-.04 0-.086.009-.202 0-.253.252-.012-.202-.227-.297-.097-.043-.252-.043-.186 0-.455.062.013-.126.089-.214zm-2.957 4.069q.508 0 .61.347h-.48q-.39-.038-.39-.328.14-.02.26-.02zm3.726-1.091v1.438h1.363q-.012.782-.145 1.88-.132 1.098-.334 1.861-.202.764.265 1.243h-3.723q.127-.138.17-.467.045-.328-.283-1.11l-.947-2.864q.008-.418.225-.418.136 0 .356.165l1.287 1.906.48.605q.126.089.224.089.196 0 .28-.354.454-1.034.34-2.536-.44-.467.442-1.438zm1.091-6.636q-.17 0-.384.137-.34.227-.34 1.338v1.372q-.35.018-.594.073-.366.082-.599.353-.233.271-.233.75-.051.203-.013.38-.215.378-.215.517 0 .075.19.075l-.038.114q.025.063.076.076-.038.05-.026.113l.089.038q-.076.34.29.34h.265q.025.24.29.644-.013.025-.246.316-.233.29-.46.7-.228.41.1.801.089 1.275-.39 2.36l-1.666-2.423q-.186-.606-.65-.606h-.02V7.952h.897v-.303h-.896q.908-1.754-.227-1.754-1.123 0-.227 1.754h-.884v.303h.87v1.766q-.706 0-.138.896 1.338 4.013 1.3 4.278-.038.278-.372.48-.335.201-.17.378h5.021q.253-.114 0-.353-.668-.795-.429-1.527.24-.732.417-3.546h.467v-.833q0-.757-.013-1.3.1-.012.227-.062l-.025-.379.227-.013q0-.933-.404-1.476.442-.177.202-.454-.093-.113-.195-.113-.158 0-.335.277-.329-.622-.732-.806.169-.095.404-.166l-.353-1.501q-.05-.177.214-.341.354-.252.139-.606-.158-.301-.41-.301zm4.128 1.558l2.736 2.406q-.577.89-1.533 1.797-.906-2.143-1.203-4.203zM62.56 2.62q-.528 0-.41.725.512.248.43.56-.083.314.065 1.04.148.725 1.187 3.444-.316 1.074.366 1.074l.062-.002q1.847 3.395 4.072 5.917h.395l-.099-1.104q-1.78-1.665-3.807-5.39.593-1.253 1.665-2.193l3.28 2.95q.248.112.416.112.458 0 .326-.82l-3.297-2.818q.013-.75-.625-.75-.148 0-.331.04L63.289 2.82q-.453-.198-.728-.198z"/><path d="M21.396.375v17.25m0-17.25h2.625m-2.625 17.25h2.625m0-17.25h46.517m-46.517 17.25h46.517m0-17.25h17.625m-17.625 17.25h17.625M72.3.375v17.25M75.825.375v17.25M77.588.375v17.25M79.35 2.1h8.813M79.35 5.55h8.813M79.35 2.1v3.45m1.763-1.725h7.05m-8.813 3.45h8.813m-8.813 3.45h8.813m-8.813-3.45v3.45M81.113 9h7.05m-8.813 3.45h8.813M79.35 15.9h8.813m-8.813-3.45v3.45m1.763-1.725h7.05" fill="none" stroke="#000"/></svg>