<svg xmlns="http://www.w3.org/2000/svg" width="141.003" height="18"><path d="M5.454.386c.221 0 .566.052.757.104.832.223-.005.968-.54.968a.513.513 0 0 1-.073-.005c-.353.074.06.199.502.199.272 0 .555-.047.681-.18.072-.077.131-.108.182-.108.185 0 .258.417.406.623.74.245 1.203.913 1.682 1.486 1.377 1.65 2.617 3.405 3.917 5.115-.357-.105-.743-.31-1.097-.48-1.62-.783-3.347-1.401-4.814-2.455-.732-.525-1.712-1.134-1.793-2.056-.061-.702 1.227-1.337 1.134-1.717-.011-.044-.043-.064-.09-.064-.274 0-1.077.688-1.288 1.09-.081.155-.14.217-.182.217-.146 0-.077-.757.014-.93.31-.589-.628-1.325-.1-1.664-.016.088.002.337.312.337.325 0 .305-.4.205-.453a.435.435 0 0 1 .185-.027zm.616 5.477c.254.9.626 1.766 1.065 2.59.217.405 1.13 1.049.485 1.377a.194.194 0 0 1-.052.007c-.257 0-.519-.495-.855-.517a12.843 12.843 0 0 0-.265-1.873c-.103-.505-.36-1.176-.378-1.584zm.705.597c.795.576 1.63 1.093 2.472 1.6.222.497.034 1.222.149 1.805-.538-.363-1.112-.378-1.457-1.066-.385-.766-1.019-1.494-1.164-2.34zM7 10.06c.134.235.335.383.538.383.16 0 .32-.091.45-.304.186.205.23.926.23 1.325.002.411-.214.446-.465.446l-.155-.002a.93.93 0 0 0-.278.032.453.453 0 0 1-.138.02c-.197 0-.423-.095-.636-.095-.02 0-.04 0-.06.002.001-.52.36-1.225.514-1.808zm1.603-2.968c1.69.766 3.36 1.59 5.054 2.351.648.679 1.239 1.448 1.96 2.049.538.45-.155.358-.474.418-.244.046-.492.08-.738.116-.87-.87-1.745-1.738-2.58-2.641-.909-.982-2.145-1.538-3.222-2.293zm-.512 5.693c1.105 0 2.211.013 3.316.042.556.014 1.197-.023 1.695.164-.658.042-2.304.058-4.042.058a201.337 201.337 0 0 1-5.037-.05c-.51 0-.097-.173.188-.173a.55.55 0 0 1 .076.005c1.267-.03 2.535-.046 3.804-.046zm-4.862.743c.75.01 1.5.02 2.25.045.495.017.989.023 1.483.023 1.398 0 2.796-.05 4.192-.05.188 0 .375.001.562.003-1.161.634-2.421 1.17-3.766 1.214-.152.005-.3.008-.445.008-.76 0-1.443-.08-2.196-.351-.656-.236-1.506-.523-2.08-.892zm6.649 1.558a.144.144 0 0 0-.078.02c-.256.16.368 1.331.895 1.613.04.021.078.03.115.03.192 0 .33-.259.247-.445-.214-.48-.87-1.218-1.18-1.218zm-4.848.055c-.042 0-.105.026-.194.086-.432.29-1.443 1.067-.823 1.496a.22.22 0 0 0 .129.042c.224 0 .442-.354.556-.556.12-.21.574-1.068.332-1.068zm4.06.177c-.274 0 .026 1.476.502 1.79.031.022.07.031.109.031.106 0 .222-.069.242-.173.123-.637-.473-1.61-.846-1.647a.08.08 0 0 0-.008 0zm-3.278.017c-.05 0-.13.062-.244.216-.302.408-1.043 1.256-.436 1.571.04.021.078.03.114.03.254 0 .4-.478.49-.72.081-.222.268-1.097.076-1.097zm2.271.162c-.023 0-.043.012-.06.037-.245.368-.164 1.491.42 1.817a.196.196 0 0 0 .097.026c.172 0 .306-.25.276-.423-.07-.41-.517-1.457-.733-1.457zm-1.329-.011a.1.1 0 0 0-.058.023c-.391.291-1.017 1.466-.379 1.845.035.02.068.03.101.03.191 0 .35-.31.375-.504.04-.334.162-1.394-.039-1.394zm.655-.018a.08.08 0 0 0-.038.01c-.324.174-.62 1.573-.014 1.945a.175.175 0 0 0 .092.028c.164 0 .306-.252.306-.421-.002-.46-.123-1.562-.346-1.562zM5.632 0c-.205 0-.408.02-.598.054-.567.104-1.44.31-1.43.996a.711.711 0 0 1 .192-.028c.55 0 .663.789.553 1.27-.225.98.26 1.965.898 2.707.425 1.269.96 2.595.954 3.928-.003.556.408.592.256 1.158-.136.51-.373 1.566-.883 1.69a2.18 2.18 0 0 1-.182.007c-.323 0-.663-.056-.984-.056-.254 0-.497.036-.71.162-.444.264-.778.46-1.31.46l-.071-.001-.078-.002c-.895 0-1.953.472-2.118 1.411-.244 1.391-.044 2.827-.036 4.233.205.005.412.011.618.011.163 0 .325-.004.487-.016-.076-.844-.133-1.694-.079-2.539.039-.601-.113-1.44.465-1.781a.738.738 0 0 1 .383-.107c.506 0 1.005.499 1.472.712 1.306.596 2.697 1.036 4.147 1.036h.1c1.756-.025 3.375-.751 4.878-1.576a.616.616 0 0 1 .41-.148c.28 0 .562.17.622.463.262 1.292.154 2.632.067 3.94.157.012.315.015.473.015.156 0 .313-.003.47-.003.052 0 .105 0 .158.002.008-.911.089-1.823.047-2.733-.033-.721.107-1.55-.417-2.143-.68-.771-1.763-.76-2.704-.825a1.712 1.712 0 0 0-.117-.004c-.125 0-.257.01-.386.01a.973.973 0 0 1-.439-.08c-.294-.302-.66-.36-1.04-.36-.228 0-.462.021-.689.021a2.75 2.75 0 0 1-.22-.008c-.043-.588-.075-1.177-.107-1.766a.155.155 0 0 1 .111-.045c.294 0 .78.686 1.034.686.076 0 .13-.06.154-.217.094-.642-.155-1.343-.146-2.018h.016c.285 0 .766.368 1.053.617.898.779 1.67 1.717 2.513 2.566.334.38.681.803 1.163.803.13 0 .269-.031.42-.101.48-.223 1.5.065 1.609-.544-.462-.54-.994-1.018-1.47-1.547.58.274 1.144.678 1.747.941a.77.77 0 0 0 .24.078c.18 0-.489-.521-.668-.602-.665-.3.624-.188.098-.605-1.155-.915-2.466-1.648-3.699-2.473-.79-.998-1.506-2.067-2.3-3.068-.66-.774-1.221-1.636-1.941-2.356C8.175 1.783 7.525 1.66 7.48.937 7.138.252 6.37 0 5.632 0zm21.632.634q-.372 0-.372.437 0 .371.372.371.393 0 .393-.415 0-.393-.393-.393zm-1.442.284v.393l-.852.175q.393-.437.852-.568zm.043.524q.503.394.175.612-.502-.175-.743-.48l.568-.132zm13.175 2.47q.458 0 .458.502v3.67h-1.354l.437-3.867q.022-.306.459-.306zM27.395.436q1.027 0 1.638.787.612.786.656 2.425 1.595.328 2.119 1.464.084.711-.314.711l-.036-.001q-.437-.033-.688-.251-.091-.08-.138-.08-.081 0-.026.244.088.382.962.939.874.557.142.907-.178.084-.378.084-.624 0-1.468-.827-1.115-1.093-1.18-1.66-.066-.569.459-1.05.311-.285.214-.285-.067 0-.324.133-.633.328-.666.961-.033.634.502 1.398.536.765 2.109 1.901.16.084.364.084.432 0 1.056-.379.917-.557-.918-1.715.678-.153.7-.59.577.207 2.568 2.56l-5.844.238-.177-.318q-1.07-1.912-1.365-2.742-.295-.83-.273-1.562.022-.732-.295-1.07-.317-.34-.186-.733.131-.393-.393-.72V.896q.568-.459 1.18-.459zm1.51 7.998zm7.086 1.27q.46.57.973 1.22 1.049.699 1.07 1.026-.021.306-.327.372-.066.014-.133.014-.248 0-.523-.19-1.223.59-2.37.613h-.12q-1.067 0-1.792-.372.743.634.525 1.333-.106.339-.16.339-.059 0-.059-.383 0-.743-1.9-1.42v.852q-.111.465-.177.465-.064 0-.086-.443-.13-.918-.622-2.01-.262-.58-.686-1.392l6.387-.024zm-4.445 3.317q1.07.306 1.07.72l-.72 2.688q-.088.48-.59.48h-.874v-.021l1.114-3.43v-.437zM27.474 0h-.08q-.851 0-1.725.721-.503.175-1.027.787.72.655 1.31.808.066.306.416.874.022 1.42.393 2.382.26.672 1.374 2.894l-.828.033-1.005-.065q-1.114-1.246-1.988-1.246l-.655-.043q-1.77.35-2.12.35-.262 0-.262.37 0 .481.721.481 1.218-.224 1.873-.224.11 0 .203.006.371 0 .59.306-.413.537-1.871.537l-.172-.002q-1.606-.033-2.851-.426-.612 0-.612.721.087.677 4.544.7l1.989-.22 3.085-.011.476.93Q30.3 12.846 30.3 13.37q0 .743-.96 3.409 0 .174-1.312.24-1.988.066-1.988.546 0 .284.284.284h5.812q.546-.415.611-.743.525.219.568.612.057.281.201.281.024 0 .05-.008.186-.054.186-.273-.152-.59-.764-1.136l.699-2.971q2.12-.066 3.67-.656.281.055.517.055.516 0 .816-.262.437-.383-.175-1.235-.857-.843-1.66-1.813h.13l3.19.022v-5.33q0-1.07-1.092-1.07t-1.136.633q-.437 4.13-.94 4.151l-1.374.056q-2.187-2.647-3.038-3.093-.306-.633-.732-.994-.426-.36-1.54-.907-.023-1.31-.601-2.25Q29.156 0 27.474 0zM43.37 1.835q-.076 0-.147.023-.278.09-.245.27.027.152.248.152.04 0 .087-.005.303-.033.532-.246-.256-.194-.475-.194zm.141-.166q.591 0 1.823.704.618.32 1.355.32.356 0 .74-.074.965-.197 2.029-.344.361-.05.7-.05.658 0 1.23.189.868.286 1.44.368.574.082 1.817.147-.802.082-1.57.082-.77 0-1.817-.172-.524-.085-1.009-.085-.484 0-.93.085-.892.172-2.03.32-.284.036-.558.036-.824 0-1.56-.331-.716-.488-1.486-.488-.34 0-.691.095-.311-.016-.278-.343.18-.442.769-.459h.026zM43.95 0q-.354 0-.66 1.08-.257-.954-.662-.954-.06 0-.124.022-.49.31.327 1.194-.654.376-.654.95 0 .572.965.637.299-.078.583-.078.667 0 1.258.43.506.368 1.604.368.731 0 1.726-.163 1.222-.344 2.375-.344.438 0 .865.05 1.07.123 1.82.123.343 0 .619-.026 1.39-.032 1.39-.261-.376-.344-1.063-.459-1.456-.016-2.66-.507-.6-.245-1.474-.245-.873 0-2.019.245-.739.187-1.375.187-.873 0-1.554-.35-.704-.426-1.49-.704.655-.507.614-.843-.04-.335-.4-.352h-.011zm4.671 5.098c-.08 0-.16.007-.242.015-1.165.124-1.994 1.305-1.81 2.449.08.85.608 1.327 1.187 1.796 1.723 1.056 1.24.667 2.977 1.547l.279-.52c-2.068-.968-2.317-1.122-2.963-1.547-.528-.426-.945-.895-.909-1.606-.014-.492.279-.997.609-1.24.264-.197.601-.315.931-.315.25 0 .484.059.69.206.52.256.806 1.107.425 1.642a1.011 1.011 0 0 1-.807.433.746.746 0 0 1-.44-.14c-.264-.146-.462-.66-.19-.946-.125-.132-.301-.293-.433-.293-.088 0-.154.066-.198.22-.294.704.176 1.503.88 1.694.124.037.249.059.374.059.806 0 1.554-.675 1.554-1.51.073-.976-.704-1.87-1.679-1.93a2.37 2.37 0 0 0-.235-.014zm5.016 8.143c.681.03 1.055.044 1.217.044h.073l-.088 3.564a5.229 5.229 0 0 1-1.356-.807l.154-2.8zm-9.943-.887c-.228.044-.528.183-.492.455v1.987c-.44-.022-.894-.044-1.026-.044 0 .249.205.586.843.586.007.565.11 1.254.213 1.606l.088.924c0 .103.176.132.366.132.228 0 .477-.044.477-.044l-.037-.924c3.622.03 10.53.213 10.874.213.176 0 .294-.19.294-.455l.088-3.981-2.178-.022-.176 3.101c-1.577.008-4.304.264-6.16.264-.586 0-1.092-.022-1.437-.095-.073-.08-.755-1.07-1.188-1.18a1.902 1.902 0 0 0-.256-.03c-.073-.601-.147-1.203-.213-1.796.132-.17.433-.125.513-.352.081-.11.03-.294-.124-.301-.088-.037-.33-.044-.433-.044zM77.306 1.016c.696 0 1.044.377 1.044 1.13v4.802H58.413V2.172c0-.77.357-1.156 1.07-1.156.54 0 1.215.606 2.026 1.816.81 1.22 1.625 1.83 2.444 1.83.803 0 1.532-.513 2.187-1.537.655-1.025 1.196-1.647 1.621-1.868a1.44 1.44 0 0 1 .651-.168c.205 0 .406.052.602.156.402.211.934.834 1.597 1.867.655 1.033 1.384 1.55 2.187 1.55.843 0 1.666-.61 2.469-1.83.802-1.21 1.482-1.816 2.039-1.816zM77.28 0c-.86 0-1.695.618-2.506 1.854-.81 1.237-1.47 1.855-1.977 1.855-.484 0-1.135-.618-1.953-1.855C70.025.618 69.215 0 68.412 0c-.917 0-1.768.618-2.555 1.854-.778 1.237-1.412 1.855-1.904 1.855-.5 0-1.154-.618-1.965-1.855C61.178.618 60.342 0 59.482 0c-1.4 0-2.1.724-2.1 2.172v5.792h9.913c1.212.003 1.1.006 1.125.006.02 0 .125-.002 1.049-.006h9.913V2.147c0-1.431-.7-2.147-2.1-2.147zM60.699 15.091c.816 0 1.837.42 2.332.914.432.432.489 1.006.504 1.538h-5.649c.016-.532.073-1.106.505-1.538.495-.494 1.492-.914 2.308-.914zm0-.456c-.968 0-2.01.447-2.62 1.057-.626.626-.697 1.45-.697 2.068V18h6.634v-.24c0-.617-.047-1.442-.673-2.068-.61-.61-1.676-1.057-2.644-1.057zm4.837-2.205V18h.93v-5.57zm6.4.009V18h.93v-5.561zm6.515 0V18h.93v-5.561zM88.289.644q.856 0 1.563.427 1.436.834 2.722.834 1.294 0 2.374-.111v2.222q-1.342-.238-1.937-.238h-.016q-.484 0-1.35.111-3.516.484-4.381.484-1.437 0-2.707-.047-2.175-.127-2.39-.23-.206-.096-.206-.548 0-.445.12-.778.118-.333.396-.476 6.795-.302 7.327-.35-.473-.683-1.467-.683-.323 0-.7.072-1.266.25-1.952.25-.144 0-.263-.012-.675-.063-.627-.643.38.051.783.051.848 0 1.805-.225.472-.11.906-.11zM88.49 0q-.344 0-.68.087-1.357.357-2.389.373-.254 0-.913-.127-.31.286-.31.675 0 .389.247.659-2.596.095-2.596.31-.468.594-.468 1.428 0 .826.436 1.127 1.318.42 5.295.42.635 0 1.294-.063 3.683-.547 4.39-.563l.07-.001q.725 0 2.66.302V1.12l-.015.016q-1.66.19-2.707.214l-.108.002q-.997 0-2.052-.558Q89.53 0 88.491 0zm-.035 7.274q2.491 0 5.283 1.204-2.792 1.17-5.283 1.17-2.475 0-5.284-1.17 2.809-1.204 5.284-1.204zm0-.77q-3.077 0-7.073 1.957 3.996 1.94 7.073 1.94 3.076 0 7.072-1.94-3.98-1.956-7.072-1.956zm5.203 6.398c.73.032 1.131.048 1.304.048h.078l-.094 3.817a5.6 5.6 0 0 1-1.453-.864l.165-3zm-10.65-.95c-.244.047-.566.196-.527.487v2.129a40.707 40.707 0 0 0-1.1-.048c0 .268.22.629.904.629.008.605.118 1.343.228 1.72l.094.99c0 .11.188.141.393.141.243 0 .51-.047.51-.047l-.04-.99c3.881.032 11.28.228 11.649.228.189 0 .314-.204.314-.487l.094-4.265-2.332-.023-.189 3.322c-1.689.008-4.61.283-6.598.283-.628 0-1.17-.024-1.539-.102-.079-.087-.809-1.147-1.272-1.265a2.037 2.037 0 0 0-.275-.031c-.079-.644-.157-1.289-.228-1.925.141-.18.463-.133.55-.377.086-.118.031-.314-.134-.322-.094-.039-.353-.047-.463-.047zM105.811.585c-.03 4.318-.064 8.637-.09 12.955.062.7.099 1.402.18 2.1.048.372.29.72.238 1.101-.08.258-.249.662-.535.662a.4.4 0 0 1-.208-.066c-.463-.178-.904-.472-1.414-.472-.029 0-.057 0-.086.002h-.076c-.97 0-1.924.214-2.886.308-.527.075-1.05.195-1.584.195h-.068c.963-.218 1.914-.586 2.673-1.234 1.033-.802 2.069-1.6 3.1-2.406.14-.172-.067-8.948-.137-13.114l.893-.03zm.525-.585c-.51.017-1.27.009-1.778.041-.271.079-.224.383-.22.601l.21 12.755c-1.127.862-2.244 1.737-3.377 2.59-.635.413-1.368.67-2.109.806-.33-.004-.665-.175-.995-.175a.763.763 0 0 0-.316.064c-.254.195-.342.73-.001.894.512.274 1.082.379 1.656.379.363 0 .727-.042 1.079-.109.818-.139 1.644-.22 2.466-.336.27-.024.55-.06.827-.06.298 0 .592.042.862.19.324.143.682.36 1.044.36a.8.8 0 0 0 .362-.084c.378-.236.597-.675.69-1.1.075-.556-.3-1.047-.293-1.599-.043-.603-.112-1.205-.139-1.809.031-4.364.2-13.408.032-13.408zm2.408 0v4.39h17.804V0h-17.804m17.073.731v2.927h-16.341V.73h16.34zM113.11 14.172c1.074 0 2.419.552 3.07 1.202.568.57.643 1.324.664 2.025h-7.435c.02-.701.095-1.456.664-2.025.65-.65 1.963-1.202 3.037-1.202zm0-.601c-1.274 0-2.645.588-3.448 1.392-.824.824-.918 1.909-.918 2.72V18h8.732v-.316c0-.812-.061-1.897-.886-2.721-.803-.804-2.206-1.392-3.48-1.392zm10.138-3.589c-.111 0-.223.01-.334.02-1.61.172-2.754 1.802-2.5 3.381.11 1.175.84 1.833 1.64 2.48 2.378 1.459 1.71.922 4.11 2.137l.384-.719c-2.855-1.336-3.199-1.549-4.09-2.136-.729-.587-1.306-1.235-1.255-2.217-.02-.679.385-1.377.84-1.711.365-.274.83-.436 1.286-.436.344 0 .668.081.952.284.718.354 1.113 1.529.587 2.268a1.396 1.396 0 0 1-1.114.597 1.03 1.03 0 0 1-.607-.192c-.365-.203-.638-.911-.264-1.306-.172-.183-.415-.405-.597-.405-.121 0-.212.09-.273.303-.405.972.243 2.076 1.215 2.34.172.05.344.08.516.08 1.114 0 2.146-.931 2.146-2.085.102-1.347-.972-2.582-2.318-2.663a3.272 3.272 0 0 0-.324-.02zm7.506-9.581q.203 0 .396.126.498.325.523 1.079.014.395-.038.395-.047 0-.147-.325-.21-.683-.587-.773-.042-.01-.083-.01-.326 0-.587.636-.383.31-.558.31-.134 0-.145-.182-.025-.422.55-.939.352-.317.676-.317zm.086 1.06q.022 0 .048.023.096.083.134.23.038.147.013.25-.01.042-.024.042-.018 0-.04-.081-.023-.086-.042-.086-.012 0-.022.035-.012.042-.03.042-.022 0-.053-.055-.057-.102-.057-.243.018-.157.073-.157zm.18.628q.04 0 .04.04 0 .064-.063.064-.064 0-.039-.09.039-.014.063-.014zm-.21-.79q-.086 0-.139.14-.057.154.013.365.07.21.198.21-.039.14.019.217.03.04.074.04.04 0 .092-.033.108-.07.076-.351-.032-.281-.127-.428-.096-.147-.192-.16h-.014zm-.273.894l-.102.14q-.345.154-.453.345-.109.192.006.421l.064-.012q.09-.345.447-.703l.115-.165-.077-.026zm-1.162.268q.243.55.472 1.29.097.128.165.128.04 0 .072-.045.083-.122.16-.122.012.09.07.122.026.014.048.014.026 0 .047-.02.022-.034.037-.034.02 0 .027.059.013.102.109.102.095 0 .242.083.053.03.104.03.09 0 .17-.094.128-.147.307-.479l.166-.178q.332.165.358.268-.051.472 0 .957.076.626.357.932.179.498.294.894-1.188-.524-2.694-.855 0-.396-.345-.741-.217-.664-.498-1.366-.076-.868.332-.945zm.626 3.562q1.468.664 2.502.92-.506-.053-1.217-.053-.508 0-1.12.027-.025-.587-.165-.894zm.856-4.82q.13 0 .235.205.147.287.205.606.057.32.293.453.084.048.17.048.153 0 .309-.156.275-.09.581-.09.432 0 .926.18 1.66 1.302 3.6 1.71 1.392.409 1.124 1.226-.013.498-.843 1.494-.715.842-.843 1.583-.185.176-.394.176-.094 0-.193-.036-.294-.013-.358-.14.077-.83.856-2.235.332-.37-.307-.766-.804-.6-2.208-.804l-1.34-.051q-.358-.179-.41-.562.039-.69-.025-.855-.166-.09-.543-.153-.05-.009-.098-.009-.303 0-.463.353-.13.285-.286.285-.068 0-.142-.055.056-.26-.027-.26-.01 0-.024.005-.115.038-.256.179-.056-.091-.13-.091-.094 0-.214.142l-.23-.715q.025-.332.626-.677.033-.073-.013-.073-.06 0-.25.118-.338.21-.465.491-.077-.345 0-.46.076-.114.664-.459.02.005.038.005.116 0 .121-.216.007-.249.205-.364.056-.032.109-.032zM130.833 0q-.3 0-.622.208-.542.35-.874.964-.14.357-.128.663-.88.818-.587 1.545.28.856.383 1.137l.14.549q-.319.204-.23.53.09.325.46.402l.064.485q-.28.025-.332.37-.051.345.421.575.243.46.18.804.112.225.256.225.116 0 .254-.148.05-.422.076-.856.66.18 1.366.18.753 0 1.558-.205.409-.14.23-.6-.14-.984-.421-1.775l.944.064q1.775.23 2.018.919 0 .09-.447 1.002-.447.913-.447 1.488-.026.408.536.664.498.217 1.583.523l1.852.498q.37.204.74.69.437.723.801.723.04 0 .08-.009.013-.063-.025-.357-.039-.294-.3-.543-.262-.249-.3-.67-.13-.528-.5-.528-.177 0-.407.12-1.251-.83-2.081-1.035l.587.026h.159q2.106 0 2.229.332.319.434.395.664.18.395.55.498.025-.192-.013-.498-.179-.409-.281-1.226-.057-.364-.447-.364-.225 0-.562.121-.115 0-.421-.089-1.147-.423-1.826-.423-.04 0-.076.002 1.136-1.162 1.455-2.477.026-.932-1.34-1.315-.741-.217-1.2-.383-1.124-.383-2.618-1.392-.46-.254-.915-.254-.367 0-.732.165.077-.651-.102-1.137-.192-.51-.677-.753-.198-.099-.406-.099zm-2.283 12.991V18h.836v-5.009zm5.755.007V18h.837v-5.002zm5.86 0V18h.837v-5.002z"/></svg>