<svg xmlns="http://www.w3.org/2000/svg" width="99.261" height="18"><path d="M3.01.474c.693 0 1.247.2 1.634.479.006.053.02.107.009.16-.05.248-.195.477-.396.63-.316.207-.697.267-1.057.356-.09.01-.019.031.031.04.23.04.707.099.971.099l.052-.001c.278-.032.54-.148.766-.311.079-.067.147-.15.205-.236.147.346.227.713.26.917.018.11.096.2.202.233 1.139.349 2.038 1.91 2.88 2.949 1.729 2.137 3.199 4.526 4.892 6.76-.937-.456-1.87-.916-2.81-1.374-1.92-1.01-3.92-1.816-5.604-3.09l-.008-.008c-.97-.808-1.963-1.66-2.339-2.793-.148-.92 1.757-2.577 1.542-2.646a.207.207 0 0 0-.064-.01c-.458 0-1.753 1.128-2.019 2.202-.003-.014-.01-.03-.014-.045-.073-.356-.154-1.256.068-1.98a.29.29 0 0 0 .01-.103 1.968 1.968 0 0 0-.123-.634c-.063-.17-.139-.344-.26-.765-.031-.108-.142-.328-.208-.345.186-.138.375-.28.645-.375a.434.434 0 0 0-.132.314c0 .23.164.415.365.415.2 0 .364-.186.364-.415V.894a.411.411 0 0 0-.255-.39c.053-.007.096-.019.154-.022.081-.006.16-.008.238-.008zm.67 7.763c.065.065.135.124.202.187.214.78.412 1.64.692 2.305.483 1.145 1.216 2.141 1.84 3.154a1.814 1.814 0 0 0-.385.27 6.831 6.831 0 0 0-.199.193 2.61 2.61 0 0 0-1.186-.897c.045-.723-.108-1.712-.34-2.787a34.903 34.903 0 0 0-.624-2.425zm1.006.908c1.149.945 2.428 1.738 3.676 2.54-.018.91-.018 1.778.084 2.675a3.411 3.411 0 0 0-1.437-.736c-.02 0-.037.012-.057.012-.649-1.063-1.383-2.06-1.837-3.134-.156-.37-.293-.85-.429-1.357zm.407 5.254a2.5 2.5 0 0 1 .44.541.3.3 0 0 0 .257.14.29.29 0 0 0 .17-.053c.215-.156.347-.324.476-.446.047-.045.097-.08.148-.117l.149 2.722c-.213-.014-.435-.035-.637-.035-.264 0-.495.036-.633.172-.169-.134-.497-.164-.89-.164-.102 0-.207.002-.316.004l.836-2.764zM6.25 9.574c1.354.787 2.784 1.414 4.135 2.125a.244.244 0 0 0 .006.003c1.295.631 2.586 1.28 3.894 1.904.984 1.189 2.052 2.295 3.078 3.42l-2.15.362-4.267-4.635a.288.288 0 0 0-.037-.036c-1.499-1.137-3.152-2.082-4.66-3.143zM3.076 0c-.135 0-.273.005-.411.013C1.58.083.792.54.523 1.157c-.04.093-.146.314-.007.314a2.35 2.35 0 0 1 .341-.028c.418 0 .38.172.47.194.09.282.29.846.303 1.068-.244.86-.153 1.763-.064 2.198.15.732.63 1.584 1.261 2.38a.285.285 0 0 0 0 .166 35.3 35.3 0 0 1 .903 3.336c.251 1.168.393 2.277.317 2.823a.294.294 0 0 0 .221.328c.045.011.084.031.127.045l-.928 3.079a2.847 2.847 0 0 0-.593-.055c-.381 0-.756.05-1.064.05-.125 0-.24-.008-.34-.032a.546.546 0 0 0-.125-.012c-.436 0-1.428.306-1.34.879.15-.128.257-.159.375-.159.11 0 .23.027.405.027h.027c.254-.004.697-.083 1.053-.083.18 0 .338.02.438.08.236-.01.45-.013.649-.013.85 0 1.447.07 2.5.075a89.565 89.565 0 0 0 2.974-.079c.45.003.697.054.922.054h.04c.134-.004.265-.057.48-.057.123 0 .273.017.468.07-.25-.341-.877-.685-1.33-.685a.591.591 0 0 0-.302.071 5.081 5.081 0 0 0-.508-.022c-.22 0-.448.01-.678.02l-.157-2.83c.487.203.857.517 1.281 1.021a.295.295 0 0 0 .513-.246c-.192-1.039-.213-2.019-.202-3.06.54.354 1.072.713 1.576 1.094l4.36 4.738a.29.29 0 0 0 .263.09c.95-.159 1.9-.315 2.849-.474a.294.294 0 0 0 .23-.193.298.298 0 0 0-.06-.297c-.741-.83-1.508-1.631-2.25-2.445 1.269.78 2.875 1.755 3.08 1.755.022 0 .027-.013.012-.04-.094-.163-.9-.755-1.775-1.373.14.058.276.12.415.177l.017.01c.103.035.16.059.27.062a.286.286 0 0 0 .108-.016.317.317 0 0 0 .188-.152.32.32 0 0 0 .023-.238c-.017-.05-.038-.077-.054-.098-.061-.085-.103-.109-.162-.154a4.553 4.553 0 0 0-.205-.149c-.153-.105-.336-.223-.493-.328a4.992 4.992 0 0 1-.328-.233.307.307 0 0 0-.028-.025l-3.892-2.736c-.008-.006-.02-.001-.028-.006-1.333-1.869-2.588-3.825-4.046-5.627-.744-.92-1.598-2.528-2.985-3.064-.067-.396-.218-1.127-.755-1.649C4.827.26 4.168.056 3.427.011A5.728 5.728 0 0 0 3.076 0zM25.85 4.787q-.407 0-.472.314v.019q.047.083.194.083.425-.185.425-.342v-.018q0-.037-.148-.056zm1.477-.572q-.065.36-.637.775l.203.083.277-.101.138.092q1.062.508 2.817.536l2.752.027h.037q.47 0 .457.688-.014.716-.485 1.436-.296 0-.6-.226-.305-.226-.5-.53-.193-.306-.498-.795.093.97.554 1.524-.563 0-1.002.106-.219.053-.365.053-.147 0-.221-.053-.092-.066-.457-.066-.222 0-.545.024-.249.02-.455.02-.501 0-.75-.112-.23-.194-.29-.679-.06-.485.272-1.343-.684.489-.684 1.486v.333q-.341-.351-.535-.776-.379-.942-1.035-.942-.249 0-.96.314-.24-.101-.194-.323l.462-.619q.332-.563.48-.628.074-.138.72-.138.277.074.277.203 0 .175-.184.35.35-.073.508-.415 0-.083.443-.304zm.398-1.965q-.045 0-.103.072-.701 1.117-1.274 1.551-.222.194-.6.203-.185 0-.563-.277-.564-.545-.785-.923-.25-.444-.324-.49-.037 0-.055.093 0 .526 1.071 1.948-.203.296-.378.674-.176.379-.416.577-.24.199.046.393 0 .24.397.388l.988-.287q.397 0 .545.333.49.738.49 1.542.055 1.071-.74 2.05-.249.166-.249.461 0 .12.305.12.499 0 .499-.12l-.037-.249q0-.13.194-.194v-.018q0-.176.628-1.764.286 0 .452.277.213.702.213 1.164 0 .101-.13.434-.157.12-.194.434h.74l-.056-.231q-.037-.139.101-.24l-.064-.342q-.12-1.302-.12-1.533v-.018q.73-.176 1.122-.176.392 0 .604.143.085.057.237.057.23 0 .618-.13.419-.142.643-.142.119 0 .183.04.185.115.185.392 0 1.016-.517 1.727-.167.166-.25.462h.637q.167-.056.074-.277.019-.24.222-.305 0-.84.739-1.662.517.286.526.886 0 .231-.092.628l-.111.305q-.102.12-.185.453h.61q.11-.047.138-.102l-.092-.296q-.046-.129.13-.23-.093-.49.12-.74-.435-1.015-.435-1.597.231-.95.296-1.782.11.582.027 1.395-.083.812.277 1.68.07.146.129.146.04 0 .074-.072.093-.526.037-2.909-.073-.295-.157-.452-.295-.453-.507-.471h-2.983q-2.207 0-3.269-.628.176-.314.194-.43.018-.115 0-.281-.443.13-.665.342l-.185-.139q.194-.12.62-.776.424-.655.498-1.025-.031-.062-.073-.062zm4.893 10.098c.488.021.755.032.87.032h.053l-.063 2.547a3.738 3.738 0 0 1-.97-.576l.11-2.003zm-7.107-.634c-.163.031-.377.131-.351.325v1.42c-.315-.015-.64-.031-.734-.031 0 .178.147.42.603.42.005.403.078.896.152 1.147l.063.66c0 .074.125.095.262.095.162 0 .34-.031.34-.031l-.026-.66c2.59.02 7.527.151 7.773.151.126 0 .21-.136.21-.325l.063-2.846-1.557-.016-.126 2.217c-1.127.006-3.076.19-4.402.19-.42 0-.781-.017-1.028-.069-.052-.058-.54-.765-.849-.844a1.36 1.36 0 0 0-.183-.02c-.053-.43-.105-.86-.152-1.285.094-.12.309-.09.366-.252.058-.078.021-.21-.089-.215-.063-.026-.235-.031-.309-.031zm13.025-7.16c-.203.097-.45.367-.075.412.18-.007.592-.195.517-.367a.166.166 0 0 1-.118.05c-.106 0-.215-.095-.324-.095zm-1.479.067c-.247.06-.375.33-.06.39l.017.001c.181 0 .676-.22.269-.27-.068-.046-.136-.12-.226-.12zm1.974-1.883c.443.517.833 1.118.908 1.808.075.495.097.99.172 1.478-.352-.03-.247-.577-.18-.84.06-.518-.217-.998-.412-1.456-.135-.247-.263-.638-.608-.645-.383.067-.63.39-.878.668-.255-.255-.525-.533-.878-.638a.177.177 0 0 0-.061-.01c-.079 0-.172.035-.214.035-.037 0-.036-.026.042-.123.048-.168.147-.218.27-.218.178 0 .406.106.599.106a.42.42 0 0 0 .084-.008 2.801 2.801 0 0 0 1.156-.158zm-.12.57c.292.075.36.48.503.72.18.42.397.878.255 1.351-.113.225.03.51.015.675-.25.176-.47.547-.803.547a.474.474 0 0 1-.113-.014c-.33-.067-.495-.383-.75-.533-.185.178-.294.548-.598.548a.464.464 0 0 1-.137-.022c-.278-.06-.646-.03-.728-.368-.143-.345-.158-.728-.18-1.103a.243.243 0 0 0 .045.005c.152 0 .166-.177.18-.328.058-.22.215-.321.39-.321.118 0 .244.046.353.134.127.142.517.255.435.48-.038.135-.083.277-.128.42l.315.42c.03-.217.353-.397.165-.615-.03-.098-.142-.225-.127-.3.135-.24.315-.45.525-.63a.241.241 0 0 1 .172-.077c.201 0 .403.263.578.287.173-.188-.015-.263-.187-.36a.526.526 0 0 0-.365-.147.602.602 0 0 0-.49.266c-.143.086-.242.371-.367.371-.04 0-.082-.028-.129-.1-.229-.184-.503-.39-.804-.39a.642.642 0 0 0-.134.014c-.212.044-.403.474-.419.474-.008-.353.157-.669.254-1.014a.459.459 0 0 1 .447-.357c.13 0 .261.055.356.177.223.083.387.475.597.475a.2.2 0 0 0 .116-.04c.233-.247.42-.54.758-.645zm-1.066 5.207c.953.983 1.831 3.475 2.056 4.495-.367-.3-.87-.495-.983-.683-.12-.195-.45-2.093-1.073-3.812zm3.392-1.785c1.8 1.035 4.937 6.13 5.605 6.948-1.125-.713-2.236-1.433-3.444-2.019-1.696-.832-3.144-2.183-4.525-3.444 1.14-.382 1.959-1.028 2.364-1.485zm-1.869 6.468c.24.142.458.337.72.442-.157.39-.254.826-.577 1.133-.06.098-.147.129-.246.129-.17 0-.378-.092-.551-.092a.44.44 0 0 0-.036.001c.21-.525.525-.758.69-1.613zm.51-7.024c.046.094.104.125.166.125.08 0 .168-.053.24-.087.18.127.803.112.435.383-.232.315-1.476 1.174-2.34 1.326-.372.065.254.655.457.865 1.17 1.05 2.318 2.16 3.722 2.918.877.496 1.8.938 2.648 1.486.405.585.886 1.126 1.193 1.771-.307.09-.607.218-.923.293a2.168 2.168 0 0 1-.527.061c-.495 0-.993-.147-1.213-.384-.406-.428-.848-2.251-1.08-2.919-.034-.075-.08-.1-.132-.1-.101 0-.219.099-.277.099a.03.03 0 0 1-.027-.014.293.293 0 0 0-.29-.282c-.132 0-.254.096-.235.297-.045.473-.135.946-.36 1.373-.028.073-.086.101-.162.101-.213 0-.57-.22-.814-.28.098-.579-.69-3.535-3.001-6.011-.081-.088-.433-.459-.403-.459.004 0 .013.005.027.016.119.031.252.052.384.052.253 0 .501-.078.63-.314.019-.06.043-.082.072-.082.103 0 .258.3.423.3a.69.69 0 0 0 .385.115.79.79 0 0 0 .583-.266c.142-.128.277-.255.42-.383zm-.78-3.924c-.235.105-.648.21-1.02.21-.053 0-.106-.003-.158-.007a.603.603 0 0 1-.107.009c-.252 0-.524-.136-.768-.136a.466.466 0 0 0-.265.074c-.413.6-.788 1.268-.833 2.011-.083 1.426-.045 1.92 1.08 3.091.443 1.006 1.268 4.285 1.516 5.178.27.255-.338 1.65-.593 1.996-.138.191-.504.2-.897.2h-.13c-.353 0-.71.008-.931.145-.21.135-.285.638-.165.705.112-.172.337-.405.495-.427-.15.157.375.082.488.12.303.005.61.03.918.03.15 0 .298-.006.447-.023.068-.03.14-.075.172-.075.024 0 .024.027-.022.113.213.055.452.083.685.083.525 0 1.022-.14 1.131-.42.225-.414.436-.849.586-1.299.191.04.432.176.625.176a.284.284 0 0 0 .155-.04c.21-.144.428-.811.548-1.254.011-.046.074-.069.137-.069.06 0 .122.021.14.061.226.45.6 1.831.96 2.41.273.427.931.638 1.632.638.441 0 .9-.083 1.288-.249.487-.21.848-.165.743-.435-.165-.45-.45-.878-.75-1.26.434.27.87.547 1.305.817.036.131.126.183.218.183.178 0 .362-.193.18-.385-1.704-2.461-4.413-6.656-6.288-8.014a2.525 2.525 0 0 0-1.043-.563c-.128-.33-.09-.773-.166-1.148-.075-.743-.525-1.973-1.313-2.446zm8.289.459h.101q1.24 0 2.366 1.067l-.696.563q-.652-.622-1.704-.622t-1.705.622l-.696-.563q1.111-1.067 2.334-1.067zm.067 1.438q1.17.015 1.926 1.23h-3.868q.593-1.215 1.942-1.23zm0-1.897q-1.838.074-3.097 1.512l1.052.889q-.445.592-.549 1.111h5.172q-.104-.519-.548-1.097l.978-.889q-1.17-1.452-3.008-1.526zm9.506.23q.067 0 .127.03.103.052.147.177t0 .198q-.103.117-.205.125h-.03q-.092 0-.205-.037-.089.088-.206.22-.147.191-.397.602-.279.456-.41.647-.31-.177-.515-.177.925-1.145 1.197-1.439.272-.294.397-.33.052-.016.1-.016zm-1.987 2.24q.41.206.499.368.088.161.015.161-.074 0-.177.089-.073-.265-.337-.617zm-.103.427l.646 2.423q-.308 0-.646.235V5.147zm2.062-2.897q-.197 0-.417.194l-1.733 2.071q-.558-.088-.867-.617.206-.25.698-.705.492-.455.404-.602-.043-.088-.144-.088-.253 0-.87.544-.66.47-1.057.763-.206.191-.338.668-.132.478-.396 1-.265.52-.25.814.037.184.121.184.084 0 .217-.184.19-.323.455-.734.264-.411.66-.764.28-.19.53-.235.279.103.425.397v8.106q-.866.235-.895 1.131-.045.338.205 1.043.176.514.661.514-.323-1.219-.323-1.557.03-.675.587-.675.603 0 .632.675 0 .338-.309 1.557.485 0 .647-.514.25-.705.19-1.043.015-.896-.895-1.13V8.421q.455-.323 1.19-.426-.294-1.498-.58-2.056-.254-.494.233-.494.064 0 .14.009-.176-.69-.704-.881V4.5q.032-.003.065-.003.296 0 .64.238.22-.293.499-.778.294-.5.397-.631.102-.133.146-.147.084.03.16.03.187 0 .318-.185.183-.257.007-.499t-.396-.272q-.026-.003-.053-.003zm3.344 0c-.697 0-1.309.513-1.309 1.171V15.75h.852V3.421c0-.322.284-.427.463-.427.187 0 .475.131.475.527v8.103h.852V3.521c0-.66-.653-1.271-1.333-1.271zm4.658.443c.166 0 .197.028.222.053a.891.891 0 0 1 .099.22c.074.194.063.73.016 1.088a2.447 2.447 0 0 0-.18.183c-.063.071-.108.153-.155.233-.005-.009-.008-.018-.014-.026a1.954 1.954 0 0 0-.38-.404c-.032-.339-.003-.879.071-1.075a.891.891 0 0 1 .1-.219c.024-.025.056-.053.221-.053zm1.015 1.481c-.036.024-.072.054-.101.07-.162.086-.24.173-.351.286-.198.202-.199.47-.198.752a8.122 8.122 0 0 0-.12-.319c.075-.164.16-.336.246-.433a1.33 1.33 0 0 1 .524-.356zm-2.296-.145a.697.697 0 0 1 .314.13c.034.022.096.075.146.115.17.136.381.322.438.41.2.31.304.717.466 1.126.034.085.056.2.08.314-.006.004-.01.008-.018.011a.721.721 0 0 1-.283.054c-.213 0-.303-.033-.381-.143a.904.904 0 0 1-.122-.487c0-.205.061-.507-.047-.796a1.335 1.335 0 0 0-.413-.619c-.072-.061-.126-.086-.18-.115zm1.175 4.536c.038.833.14 2.098.238 3.27.1 1.215.191 2.33.191 2.604 0 .305-.035.551-.101.686-.067.134-.123.182-.328.182-.205 0-.26-.048-.328-.182-.067-.135-.101-.381-.101-.686 0-.275.09-1.39.191-2.604.098-1.172.2-2.437.238-3.27zm.106-6.315c-.234 0-.424.067-.542.192-.119.125-.153.26-.194.366-.093.247-.13.586-.13.91a1.102 1.102 0 0 0-.5-.146.493.493 0 0 0-.31.088.41.41 0 0 0-.065.565c.049.06.101.1.149.132.096.062.18.104.203.124.193.165.209.229.286.436.038.102.019.383.019.642 0 .296.07.553.203.743a.727.727 0 0 0 .341.258c.003.793.022 1.28-.002 1.876-.033.808-.141 2.15-.242 3.364s-.194 2.278-.194 2.64c0 .331.022.63.147.88.125.252.395.43.725.43.33 0 .6-.178.724-.43.125-.25.148-.549.148-.88 0-.362-.093-1.426-.194-2.64-.1-1.215-.209-2.556-.242-3.364-.025-.601-.005-1.089-.002-1.897h.002a.72.72 0 0 0 .38-.413c.096-.276.095-.514.095-.8 0-.275.053-.466.074-.487.12-.122.13-.145.245-.206.09-.047.19-.113.281-.189a.816.816 0 0 0 .125-.127.326.326 0 0 0 .083-.219c0-.054 0-.19-.106-.29-.107-.101-.235-.116-.395-.116a.878.878 0 0 0-.3.06c.026-.324.03-.666-.076-.944-.04-.107-.075-.241-.194-.366-.118-.125-.308-.192-.542-.192zm6.85.664q2.725.331 0 5.047-2.724-4.716 0-5.047zm0-.664q-3.772.262-.524 6.06h-3.213v.821h3.178v6.619h1.083V9.096h3.214V8.31h-3.214q3.249-5.815-.524-6.06zm7.357.54c.503.038.934.152 1.295.342-.475.56-.906 1.323-1.295 2.29-.398-.967-.834-1.73-1.309-2.29.37-.18.807-.294 1.31-.341zm0 3.67c.294 2.741.45 4.963.47 5.778-.02 1.385-.176 2.305-.47 2.76-.303-.455-.46-1.375-.47-2.76.01-.825.167-3.046.47-5.777zm0-4.21c-.967 0-1.674.294-2.12.882.674.56 1.214 1.427 1.622 2.603 0 .531-.106 1.975-.32 3.445-.213 1.47-.263 3.1-.15 4.893.245 1.118.538 1.677.88 1.677a.345.345 0 0 0 .088-.012c.03.008.06.012.09.012.34 0 .633-.559.877-1.677.105-1.792.05-3.423-.163-4.893-.213-1.47-.32-2.914-.32-3.445.417-1.176.962-2.044 1.636-2.603-.455-.588-1.162-.882-2.12-.882z"/><path d="M21.396.375v17.25m0-17.25h2.625m-2.625 17.25h2.625m0-17.25h57.24m-57.24 17.25h57.24M81.26.375h17.626M81.26 17.625h17.626M83.023.375v17.25M86.548.375v17.25M88.31.375v17.25M90.073 2.1h8.813m-8.813 3.45h8.813M90.073 2.1v3.45m1.763-1.725h7.05m-8.813 3.45h8.813m-8.813 3.45h8.813m-8.813-3.45v3.45M91.836 9h7.05m-8.813 3.45h8.813m-8.813 3.45h8.813m-8.813-3.45v3.45m1.763-1.725h7.05" fill="none" stroke="#000"/></svg>