<svg xmlns="http://www.w3.org/2000/svg" width="76.069" height="18"><path d="M5.454.386c.221 0 .566.052.757.104.832.223-.005.968-.54.968a.513.513 0 0 1-.073-.005c-.353.074.06.199.502.199.272 0 .555-.047.681-.18.072-.077.131-.108.182-.108.185 0 .258.417.406.623.74.245 1.203.913 1.682 1.486 1.377 1.65 2.617 3.405 3.917 5.115-.357-.105-.743-.31-1.097-.48-1.62-.783-3.347-1.401-4.814-2.455-.732-.525-1.712-1.134-1.793-2.056-.061-.702 1.227-1.337 1.134-1.717-.011-.044-.043-.064-.09-.064-.274 0-1.077.688-1.288 1.09-.081.155-.14.217-.182.217-.146 0-.077-.757.014-.93.31-.589-.628-1.325-.1-1.664-.016.088.002.337.312.337.325 0 .305-.4.205-.453a.435.435 0 0 1 .185-.027zm.616 5.477c.254.9.626 1.766 1.065 2.59.217.405 1.13 1.049.485 1.377a.194.194 0 0 1-.052.007c-.257 0-.519-.495-.855-.517a12.843 12.843 0 0 0-.265-1.873c-.103-.505-.36-1.176-.378-1.584zm.705.597c.795.576 1.63 1.093 2.472 1.6.222.497.034 1.222.149 1.805-.538-.363-1.112-.378-1.457-1.066-.385-.766-1.019-1.494-1.164-2.34zM7 10.06c.134.235.335.383.538.383.16 0 .32-.091.45-.304.186.205.23.926.23 1.325.002.411-.214.446-.465.446l-.155-.002a.93.93 0 0 0-.278.032.453.453 0 0 1-.138.02c-.197 0-.423-.095-.636-.095-.02 0-.04 0-.06.002.001-.52.36-1.225.514-1.808zm1.603-2.968c1.69.766 3.36 1.59 5.054 2.351.648.679 1.239 1.448 1.96 2.049.538.45-.155.358-.474.418-.244.046-.492.08-.738.116-.87-.87-1.745-1.738-2.58-2.641-.909-.982-2.145-1.538-3.222-2.293zm-.512 5.693c1.105 0 2.211.013 3.316.042.556.014 1.197-.023 1.695.164-.658.042-2.304.058-4.042.058a201.337 201.337 0 0 1-5.037-.05c-.51 0-.097-.173.188-.173a.55.55 0 0 1 .076.005c1.267-.03 2.535-.046 3.804-.046zm-4.862.743c.75.01 1.5.02 2.25.045.495.017.989.023 1.483.023 1.398 0 2.796-.05 4.192-.05.188 0 .375.001.562.003-1.161.634-2.421 1.17-3.766 1.214-.152.005-.3.008-.445.008-.76 0-1.443-.08-2.196-.351-.656-.236-1.506-.523-2.08-.892zm6.649 1.558a.144.144 0 0 0-.078.02c-.256.16.368 1.331.895 1.613.04.021.078.03.115.03.192 0 .33-.259.247-.445-.214-.48-.87-1.218-1.18-1.218zm-4.848.055c-.042 0-.105.026-.194.086-.432.29-1.443 1.067-.823 1.496a.22.22 0 0 0 .129.042c.224 0 .442-.354.556-.556.12-.21.574-1.068.332-1.068zm4.06.177c-.274 0 .026 1.476.502 1.79.031.022.07.031.109.031.106 0 .222-.069.242-.173.123-.637-.473-1.61-.846-1.647a.08.08 0 0 0-.008 0zm-3.278.017c-.05 0-.13.062-.244.216-.302.408-1.043 1.256-.436 1.571.04.021.078.03.114.03.254 0 .4-.478.49-.72.081-.222.268-1.097.076-1.097zm2.271.162c-.023 0-.043.012-.06.037-.245.368-.164 1.491.42 1.817a.196.196 0 0 0 .097.026c.172 0 .306-.25.276-.423-.07-.41-.517-1.457-.733-1.457zm-1.329-.011a.1.1 0 0 0-.058.023c-.391.291-1.017 1.466-.379 1.845.035.02.068.03.101.03.191 0 .35-.31.375-.504.04-.334.162-1.394-.039-1.394zm.655-.018a.08.08 0 0 0-.038.01c-.324.174-.62 1.573-.014 1.945a.175.175 0 0 0 .092.028c.164 0 .306-.252.306-.421-.002-.46-.123-1.562-.346-1.562zM5.632 0c-.205 0-.408.02-.598.054-.567.104-1.44.31-1.43.996a.711.711 0 0 1 .192-.028c.55 0 .663.789.553 1.27-.225.98.26 1.965.898 2.707.425 1.269.96 2.595.954 3.928-.003.556.408.592.256 1.158-.136.51-.373 1.566-.883 1.69a2.18 2.18 0 0 1-.182.007c-.323 0-.663-.056-.984-.056-.254 0-.497.036-.71.162-.444.264-.778.46-1.31.46l-.071-.001-.078-.002c-.895 0-1.953.472-2.118 1.411-.244 1.391-.044 2.827-.036 4.233.205.005.412.011.618.011.163 0 .325-.004.487-.016-.076-.844-.133-1.694-.079-2.539.039-.601-.113-1.44.465-1.781a.738.738 0 0 1 .383-.107c.506 0 1.005.499 1.472.712 1.306.596 2.697 1.036 4.147 1.036h.1c1.756-.025 3.375-.751 4.878-1.576a.616.616 0 0 1 .41-.148c.28 0 .562.17.622.463.262 1.292.154 2.632.067 3.94.157.012.315.015.473.015.156 0 .313-.003.47-.003.052 0 .105 0 .158.002.008-.911.089-1.823.047-2.733-.033-.721.107-1.55-.417-2.143-.68-.771-1.763-.76-2.704-.825a1.712 1.712 0 0 0-.117-.004c-.125 0-.257.01-.386.01a.973.973 0 0 1-.439-.08c-.294-.302-.66-.36-1.04-.36-.228 0-.462.021-.689.021a2.75 2.75 0 0 1-.22-.008c-.043-.588-.075-1.177-.107-1.766a.155.155 0 0 1 .111-.045c.294 0 .78.686 1.034.686.076 0 .13-.06.154-.217.094-.642-.155-1.343-.146-2.018h.016c.285 0 .766.368 1.053.617.898.779 1.67 1.717 2.513 2.566.334.38.681.803 1.163.803.13 0 .269-.031.42-.101.48-.223 1.5.065 1.609-.544-.462-.54-.994-1.018-1.47-1.547.58.274 1.144.678 1.747.941a.77.77 0 0 0 .24.078c.18 0-.489-.521-.668-.602-.665-.3.624-.188.098-.605-1.155-.915-2.466-1.648-3.699-2.473-.79-.998-1.506-2.067-2.3-3.068-.66-.774-1.221-1.636-1.941-2.356C8.175 1.783 7.525 1.66 7.48.937 7.138.252 6.37 0 5.632 0zm16.831.46q-.11 1.162-.11 2.603 0 1.442.14 2.914-.32-.17-1.001-.17-.69 0-1.001.17.15-1.472.14-2.914-.01-1.441-.11-2.602zm-.971 5.967q.68.01 1.381.36l-.18.33q-.141-.024-.265-.024-.426 0-.636.295-.12-.53-.3-.65-.18.12-.31.65-.21-.295-.636-.295-.124 0-.265.025l-.18-.33q.72-.35 1.39-.36zm0 .961q.15.12.1.35-.05.23-.1.441-.06-.21-.11-.44t.11-.35zm.912.002q.056 0 .119.008-.68 1.622-1.031 1.622-.34 0-1.051-1.622.064-.008.122-.008.365 0 .468.329.13.37.27.6.15.24.19.24.051 0 .181-.24.14-.23.26-.6.113-.329.472-.329zM19.93 0q.48 3.404-.01 6.137-.89.42-.74.71.11.22.251.22.052 0 .109-.03.87.982 1.431 2.313.22 2.193-.06 7.579 0 1.071.56 1.071h.031q.56 0 .56-1.071-.27-5.386-.06-7.579.551-1.331 1.422-2.312.056.03.109.03.142 0 .251-.22.15-.29-.73-.711-.5-2.733 0-6.137zm9.496 0q-1.479.034-2.447 1.07-1.071 1.173-1.173 2.346 0 .272.306.272H40.32q.305 0 .305-.323t-.305-.323H26.57Q27.42.867 29.12.63h11.2q.305 0 .305-.323 0-.306-.305-.306zm8.881 6.136c.714.03 1.106.046 1.275.046h.077l-.092 3.734a5.479 5.479 0 0 1-1.422-.845l.162-2.935zm-10.42-.93c-.238.046-.553.192-.514.476v2.083a39.822 39.822 0 0 0-1.076-.046c0 .26.215.614.884.614.007.592.115 1.314.222 1.683l.093.968c0 .108.184.138.384.138.238 0 .5-.046.5-.046l-.04-.968c3.797.03 11.035.223 11.396.223.184 0 .307-.2.307-.476l.092-4.173-2.282-.023-.184 3.25c-1.652.008-4.51.277-6.454.277-.615 0-1.145-.023-1.506-.1-.077-.084-.792-1.122-1.245-1.237a1.993 1.993 0 0 0-.27-.03c-.076-.63-.153-1.26-.222-1.883.138-.177.453-.13.538-.369.084-.115.03-.307-.13-.315-.093-.038-.346-.046-.454-.046zm12.069 8.129q.22.257.22 1.276 0 .876-.271 1.495-.606-.62-.632-1.495.013-1.019.683-1.276zm-1.637-.165q.628 0 .761.23-.077.656-.528.966-.258.245 0 .541.45.348.54 1.07 0 .36-1.172.36-1.173 0-3.518-.18-.8-.09-1.792-.954-1.147-.876-2.01-1.043h-.013q-.41 0-1.095.786-.696.799-1.34 2.126h-1.264q.116-.283 1.772-1.894 1.618-1.574 1.926-1.574l.014.001q.863.22 1.443.677.335.264.683.264.254 0 .516-.142 2.14-.812 3.873-1.108.738-.126 1.204-.126zm1.372-.53q-.241 0-.585.089-2.359.039-4.704.735-.657.219-1.701.67-1.096-.8-2.101-.954h-.011q-.312 0-1.065.709-.767.722-2.416 2.384-.954.992-1.302 1.701V18h2.023v-.619h.632q.709-1.636 1.301-2.255.508-.53.761-.53.042 0 .077.015.915.283 1.482.76.567.477 1.263.89.696.412 2.05.47.811.034 1.994.034.789 0 1.743-.015.3.075.52.075.384 0 .523-.23.451-1.108.451-1.984 0-1.031-.45-1.779-.131-.192-.485-.192zM49.534.644q.856 0 1.562.427 1.437.834 2.723.834 1.294 0 2.374-.111v2.222q-1.342-.238-1.937-.238h-.016q-.484 0-1.35.111-3.516.484-4.381.484-1.437 0-2.707-.047-2.175-.127-2.39-.23-.206-.096-.206-.548 0-.445.119-.778.12-.333.397-.476 6.795-.302 7.327-.35-.474-.683-1.467-.683-.323 0-.7.072-1.266.25-1.952.25-.144 0-.263-.012-.675-.063-.627-.643.379.051.783.051.848 0 1.805-.225.472-.11.906-.11zM49.736 0q-.344 0-.68.087Q47.7.444 46.667.46q-.254 0-.913-.127-.31.286-.31.675 0 .389.247.659-2.596.095-2.596.31-.469.594-.469 1.428 0 .826.437 1.127 1.318.42 5.295.42.635 0 1.294-.063 3.683-.547 4.39-.563l.07-.001q.725 0 2.66.302V1.12l-.016.016q-1.659.19-2.707.214-.053.002-.107.002-.997 0-2.052-.558Q50.775 0 49.736 0zM49.7 7.274q2.49 0 5.283 1.204-2.792 1.17-5.284 1.17-2.474 0-5.283-1.17 2.809-1.204 5.283-1.204zm0-.77q-3.077 0-7.074 1.957 3.997 1.94 7.073 1.94 3.077 0 7.073-1.94-3.98-1.956-7.073-1.956zm5.203 6.398c.73.032 1.131.048 1.304.048h.078l-.094 3.817a5.6 5.6 0 0 1-1.453-.864l.165-3zm-10.65-.95c-.244.047-.566.196-.527.487v2.129a40.707 40.707 0 0 0-1.1-.048c0 .268.22.629.904.629.008.605.118 1.343.228 1.72l.094.99c0 .11.188.141.392.141.244 0 .511-.047.511-.047l-.04-.99c3.88.032 11.28.228 11.649.228.188 0 .314-.204.314-.487l.094-4.265-2.332-.023-.189 3.322c-1.689.008-4.61.283-6.598.283-.628 0-1.17-.024-1.54-.102-.078-.087-.808-1.147-1.272-1.265a2.037 2.037 0 0 0-.274-.031c-.079-.644-.158-1.289-.228-1.925.141-.18.463-.133.55-.377.086-.118.031-.314-.134-.322-.094-.039-.353-.047-.463-.047zM66.32.259v.943h-.278V.26zm1.646 0v.943h-.277V.26zm.833 0v.943h-.296V.26zm-1.665.018v.944h-.278V.277zm-1.72.389q-1.777 1.24-3.071 1.24-1.277 0-2.239-1.24zm9.23 0q-.955 1.249-2.329 1.249h-.02q-1.387-.01-2.849-1.249zM58.772 0q1.332 2.608 3.645 2.608 1.701 0 3.089-1.073h3.755q1.203 1.073 3.108 1.073 2.275 0 3.7-2.608zm3.606 7.143c.886 0 1.997.456 2.534.993.47.47.531 1.093.548 1.672h-6.14c.018-.58.08-1.202.55-1.672.537-.537 1.62-.993 2.508-.993zm0-.496c-1.053 0-2.185.486-2.848 1.15-.68.68-.758 1.576-.758 2.246v.261h7.21v-.261c0-.67-.05-1.566-.73-2.247-.664-.663-1.822-1.15-2.874-1.15zm5.955-2.387v6.044h1.012V4.26zm3.362 0v6.044h1.012V4.26zm3.362 0v6.044h1.012V4.26zm-16.285 7.696V18h1.012v-6.044zm3.258 0V18h1.01v-6.044zm3.256 0V18h1.012v-6.044zm3.257 0V18h1.012v-6.044zm3.257 0V18h1.012v-6.044zm3.257 0V18h1.012v-6.044z"/></svg>