<svg xmlns="http://www.w3.org/2000/svg" width="52.461" height="18"><path d="M11.495 7.79c.805 0 1.813.414 2.301.902.427.426.483.992.499 1.518H8.718c.016-.526.072-1.092.499-1.518.487-.488 1.472-.902 2.278-.902zm0-.451c-.956 0-1.984.441-2.587 1.044-.618.618-.688 1.432-.688 2.04v.238h6.55v-.237c0-.61-.047-1.423-.665-2.04-.603-.604-1.655-1.045-2.61-1.045zm8.828-5.089c-.09 0-.096.283-.225.701-.146.476-.253 1.472-.591 1.665a.298.298 0 0 1-.153.039c-.1 0-.202-.038-.313-.038a.409.409 0 0 0-.126.02c-.159.05-.242.297-.41.326-.69.12-1.636.075-2.165.123-.339.03.567.698 1.474.698h.038c.188-.005.387-.013.584-.013.331 0 .658.024.928.135.264.109.576.425.572.735l-.11 9.109h1.019l-.052-10.289c-.001-.276.796-.464.9-.702.182-.415.089-2.247-.204-2.493a.016.016 0 0 0-.01-.004c-.133 0-.379 1.92-.767 2.333-.04.043-.117.062-.185.062-.072 0-.133-.022-.121-.062.246-.838.345-2.061-.041-2.329a.077.077 0 0 0-.042-.016zm8.901.292q.04 0 .082.031.156.108-.155.323-.347.539-.365.946-.018.407-.293 1.089h-1.34q.167-.371.37-.67.407-.515.778-.73.371-.216.718-.73.09-.259.205-.259zm.669.02l.084.047-1.408 3.069q-.334-.113-.89-.113h-.072q-.622 0-.814.072l-.072-.49 1.951-.013 1.22-2.573zm-1.324 3.116zm-2.685.186q-.048 0-.048.06 0 .039.03.039.008 0 .018-.003l.018.002q.043 0 .053-.05-.012-.048-.071-.048zm.015-.025l.009.001q.131 0 .131.108-.012.096-.102.108-.09.012-.185.03-.057.01-.12.01-.04 0-.083-.004l.155-.024q.227-.024.216-.048 0-.024-.024-.024t-.06.006q-.036.006-.048.018v.012q.04-.008.066-.008.014 0 .024.002.03.006-.174.03l-.048-.096q0-.012.012-.012 0 .048.024.054l.01.001q.016 0 .026-.019 0-.024-.036-.048.162-.097.207-.097zm1.184-.148q.045 0 .081.006l.323.957h-.12l-.382-.957q.054-.006.098-.006zm-.146.042l.37.921-.035.012-.371-.921.036-.012zm-.12.048l.36.91q-.245-.173-.51-.173-.178 0-.364.076-.288-.06-.282-.263.006-.203.042-.275.036-.072.036-.156h.01q.082 0 .014.21-.072.221.132.34h.083q0-.418.48-.67zm2.442-.036q.18.131.227.43.036.252-.108.527l-.263-.096q.084-.191.036-.395-.048-.203-.18-.287l.288-.18zm-.718.083q.502.192.49.455.048.335-.31.539l-.18-.994zm-2.023 1.185q.096 0 .18.036-.048.108-.132.156.036-.06.024-.114-.012-.054-.072-.078zm-.12.024q-.048.072-.036.114.012.042.06.066l-.108-.036q.024-.072.084-.144zm2.585-.251q.12.072.204.191-.028-.006-.053-.006-.063 0-.115.042.18.012.252.072-.064-.021-.121-.021-.07 0-.13.033.298.036.286.084-.066-.033-.147-.033-.065 0-.14.02l.3.085q-.102-.012-.177-.012t-.123.012q-.155-.18-.203-.323.096-.06.167-.144zm-2.463.177l-.062.002q-.155.012-.203.252.08.054.175.054.031 0 .064-.006.156 0 .227-.156h.324v-.108h-.288q-.115-.038-.237-.038zm2.547-.273l.228.096q.155.3.155.73-.084 0-.12.036l-.203-.251q.024-.006.052-.006.086 0 .211.053.06-.323-.347-.634l.024-.024zm.43 1.07l.013.001q.048.006.072.042.024.036.024.084 0 .06-.048.084-.036.036-.084.036-.048 0-.084-.048-.024-.036-.018-.084.006-.048.042-.084.041-.03.082-.03zm.468.15l.06.073-.144.107-.06-.06.144-.12zm-.487-.3q.028 0 .056.008.108.03.155.101.084.084.072.228l-.095-.108q0-.036-.036-.084-.024-.048-.102-.06l-.026-.002q-.064 0-.124.05-.072.048-.083.126-.012.078.047.138.036.036.072.048l.096.107q-.036 0-.096-.006-.06-.006-.131-.101-.06-.096-.06-.198 0-.102.107-.185.071-.062.148-.062zm.188.313l.167.227-.024.012-.167-.203.024-.036zm-.06.084l.155.191-.036.012-.143-.18.024-.023zm-.084.036l.167.215-.011.012-.18-.215.024-.012zm.036.203l.06.06-.144.12-.048-.072.132-.108zm-2.854-1.53q.093 0 .173.028.227.078.227.317h.18q0-.215.132-.215.12 0 .09.293t-.246.449v1.125l-.156.012q-.06-.084-.12-.216-.06-.131-.095-.335l-.36-.012-.03.001q-.16 0-.16-.12.011-.192.179-.204 0-.096-.06-.096l-.24-.012q.073-.143-.143-.191 0-.084.192-.431l.012-.18.024.06q.155-.083.25-.083.097 0 .276.047h.216V6.87h-.216q-.167-.072-.287-.072-.12 0-.263.12 0-.072.035-.108.218-.093.39-.093zm1.086-1.02q.327 0 .583.06.443 2.239.425 2.586-.018.347-.33.467-.31.12-.61.143l-.143-1.065q.323-.311.31-.706 0-.395-.346-1.484l.11-.002zm-.315-.011q.288.766.371 1.215.084.448-.323.951l.18 1.364q.467-.071 1.041-.287.287-.084.191-.97l-.155-.837.419.527q-.06.071-.072.203 0 .156.084.263.095.132.263.144l-.144.108.12.143q-.06.97-.335 1.831h-1.592V7.624q.144-.156.192-.371.048-.216.024-.39-.024-.173-.12-.197l-.335-.97.191-.011zm-.215 3.53v1.389h1.16q-.011.73-.137 1.771-.125 1.041-.317 1.76-.191.717.263 1.184h-3.542q.12-.143.167-.449.048-.305-.275-1.035l-.898-2.717q.008-.406.221-.406.132 0 .342.155l1.209 1.82.467.574q.117.078.208.078.186 0 .258-.33.431-.993.323-2.405-.418-.455.551-1.389zm1.927-6.965q-.082 0-.144.048-.155.12-.275.43-.287.432-.658.635-.371.203-.61.497-.24.293-.252.329-.395-.287-.598-.55-.204-.264-.228-.455-.024-.192.048-.3.072-.107.192-.137.037-.01.074-.01.08 0 .159.046.114.065.102.209-.036.156-.204.192-.048-.02-.08-.02-.05 0-.063.043-.012.168.12.174h.013q.126 0 .273-.102.156-.107.144-.383-.18-.335-.37-.365-.038-.006-.076-.006-.159 0-.338.102-.221.126-.251.437t.21.628q.239.317.73.724-.084.132-.3.515h-.383l.132.885q-.3.204-.3.503-.083-.072-.03-.227.055-.156-.005-.252-.04-.063-.165-.063-.063 0-.146.016l-.01-.001q-.072 0-.35.144-.131.048-.143.144v.12l.12-.072q.113.018.197.018t.138-.018q.024-.008.04-.008.058 0 .026.097-.042.126.017.282.096.12.18.12l.012.131q-.06.191-.024.359-.191.36-.191.49 0 .06.167.073l-.012.107q.012.036.06.048-.036.036-.024.084.096.048.072.048-.072.359.287.359h.24q.023.227.275.61-.012.024-.228.305-.215.282-.43.665-.216.383.083.766.084 1.208-.37 2.226l-1.58-2.298q-.261-.285-.554-.285-.15 0-.308.075-.467.222-.24.808 1.173 3.495 1.125 3.734-.024.275-.34.461-.318.185-.174.365h4.763q.24-.12 0-.335-.634-.754-.407-1.454.228-.7.395-3.357h.55q.348-1.125.396-2.226l.442-.383-.12-.168-.143.12q.012-.18-.072-.275-.048-.06-.107-.108-.036-.539-.144-.874.084-.155.084-.395-.012-.37-.3-.706l-.418.263q-.057-.05-.13-.091l1.386-3.224-.299-.167-.766 1.448q-.024-.383.24-.694.287-.24.317-.413.03-.174-.162-.353-.165-.108-.287-.108zm2.503 6.708v1.317h2.906V8.958h-.57c-.165.293-.355.483-.569.57a.818.818 0 0 1-.635 0c-.21-.087-.397-.277-.563-.57zm1.762-4.793v2.183h-.66v2.67h.713V7.345h.825v-2.29h1.02c.183 1.424.677 2.482 1.484 3.174.806.692 1.803 1.093 2.99 1.204 1.186.11 1.965.267 2.337.469.371.201.557.405.557.61h1.448c-.222-.53-.518-.933-.89-1.21-.372-.276-1.062-.45-2.07-.522-1.009-.07-1.816-.203-2.42-.397a3.858 3.858 0 0 1-1.62-1.032c-.475-.495-.839-1.557-1.092-3.186z"/><path d="M40.576 4.51c.616 0 1.387.316 1.76.689.326.326.368.759.38 1.16h-4.261c.012-.401.054-.834.38-1.16.373-.373 1.126-.69 1.741-.69zm0-.345c-.73 0-1.516.338-1.976.798-.473.472-.526 1.094-.526 1.56v.181h5.005v-.181c0-.466-.035-1.088-.508-1.56-.46-.46-1.264-.798-1.995-.798zm-7.39 7.848l-1.542 1.822h.752l.79-.942.797.942.774-.942.798.942.79-.942.797.942.79-.942.797.942.774-.942.797.942.798-.942.774.942.797-.942.79.942h.752l-1.542-1.822-.797.88-.774-.88-.798.88-.797-.88-.774.88-.798-.88-.79.88-.797-.88-.79.88-.797-.88-.774.88-.797-.88z"/><path d="M8.22.375c-9.625 0-9.625 17.25 0 17.25m0-17.25h35.99M8.22 17.625h35.99M51.898.375v17.25M44.21.375c9.626 0 9.626 17.25 0 17.25" fill="none" stroke="#000"/></svg>