<svg xmlns="http://www.w3.org/2000/svg" width="73.35" height="18"><path d="M11.116 8.203c-.51.04-.793.296-.847.767.067.51.35.78.847.806.498-.026.76-.295.787-.806-.04-.47-.303-.726-.787-.767zm.06-1.694c.364 0 .7.068 1.01.202a2.659 2.659 0 0 1 1.371 1.361c.134.303.201.622.201.958 0 .35-.067.676-.202.978a2.567 2.567 0 0 1-2.38 1.523c-.362 0-.702-.064-1.018-.192a2.426 2.426 0 0 1-.816-.534 2.621 2.621 0 0 1-.545-.797 2.38 2.38 0 0 1-.202-.978c0-.336.068-.655.202-.958.134-.302.316-.571.545-.806.228-.236.5-.42.816-.555a2.574 2.574 0 0 1 1.019-.202zm-.04-.685c-.443 0-.86.084-1.25.252-.39.168-.726.396-1.008.685a3.36 3.36 0 0 0-.676 1.009 3.053 3.053 0 0 0-.252 1.24c0 .444.084.857.252 1.24.168.384.393.716.676.999a3.2 3.2 0 0 0 2.258.927c.444 0 .857-.084 1.24-.252a3.36 3.36 0 0 0 1.009-.675c.289-.283.518-.615.686-.999.168-.383.252-.796.252-1.24 0-.444-.084-.857-.252-1.24a3.268 3.268 0 0 0-1.694-1.694 3.053 3.053 0 0 0-1.24-.252zm8.74-3.574c-.09 0-.095.283-.224.701-.146.476-.254 1.472-.591 1.665a.298.298 0 0 1-.153.039c-.1 0-.202-.038-.313-.038a.409.409 0 0 0-.127.02c-.158.05-.242.297-.408.326-.692.12-1.637.075-2.166.123-.34.03.567.698 1.473.698h.039c.188-.005.387-.013.584-.013.33 0 .658.024.928.135.264.109.575.425.572.735l-.11 9.109h1.019l-.052-10.289c-.002-.276.795-.464.9-.702.181-.415.088-2.247-.205-2.493a.016.016 0 0 0-.01-.004c-.132 0-.378 1.92-.766 2.333-.04.043-.118.062-.185.062-.073 0-.133-.022-.121-.062.246-.838.345-2.061-.041-2.329a.077.077 0 0 0-.043-.016zm5.947 0q-.164 0-.18.144l.16-.035q.099 0 .054.104-.114.11-.034.323-.146.314-.56.314l-.051-.001q.02.233-.1.352-.416.239-.416.437.327.154.109.377-.219.224-.219.303.144.045.199.154.248.606.501.859l-.02.203q.244 0 .269-.258-.457-.556-.442-1.186.02-.63.799-1.241.223-.124.223-.482 0-.367-.292-.367zm2.978 0q-.293 0-.293.367 0 .358.214.482.789.61.809 1.24.015.631-.452 1.187.035.258.268.258l-.015-.203q.248-.253.501-.859.06-.11.194-.154 0-.08-.213-.303-.214-.223.109-.377 0-.198-.412-.437-.12-.119-.11-.352l-.049.001q-.406 0-.551-.314.074-.213-.035-.323-.044-.104.055-.104l.159.035q-.015-.144-.18-.144zm-1.492 2.72q.584 0 1.17.447.456.387.054.889H26.08q-.402-.502.064-.889.581-.447 1.164-.447zm-1.755 1.504q-.69.805-.69 1.227.055.243.214.243.208 0 .268-.189 0-.625.268-1.047l-.06-.234zm3.515 0l-.06.234q.268.422.268 1.047.055.189.269.189.153 0 .213-.243 0-.422-.69-1.227zm-2.174.09q.322 0 .322.342v2.587q-1.012 0-1.146-.65-.134-.651-.015-2.28zm1.658 0q.134 1.628-.005 2.278-.14.65-1.152.65V6.907q0-.342.323-.342zm-1.316-2.765v.178q0 .125-.099.125-.154 0-.367-.18h-.11l.343.646-.11.035q-.178-.233-.357-.482-.028-.012-.049-.012-.054 0-.065.082l.268.467q-.188.153-.188.268-.298 0-.447.233-.432.303-.432.67 0 .278.179.635-.124.69-.124 1.738 0 .69.238 1.107.243.417 1.39.417 1.146 0 1.385-.417.243-.417.243-1.107.01-1.048-.114-1.728Q29 6.107 29 5.83q0-.367-.437-.67-.154-.233-.442-.233 0-.115-.204-.268l.268-.467q0-.082-.05-.082-.021 0-.049.012-.179.249-.357.482l-.11-.035.333-.645h-.1q-.223.179-.381.179-.085 0-.085-.125V3.8zm-1.961 4.378h-.02q-.58 1.028-.58 1.618 0 .591.203.949.209.357.566.431-.481-.645-.481-1.032 0-.382.09-.626.078.68.356.958-.124-.546-.114-1.151.005-.61.204-.909.01-.238-.224-.238zm4.072 0q-.234 0-.224.238.188.298.198.909.01.605-.109 1.151.278-.278.357-.958.09.244.09.626 0 .387-.482 1.032.358-.074.556-.431.204-.358.204-.949 0-.59-.571-1.618h-.02zm-6.508 3.979v3.594h.6v-3.594zm4.13.005v3.589h.6v-3.589zm4.204 0v3.589h.6v-3.589zm2.895-1.184v1.225h2.703v-1.225h-.53c-.154.272-.33.449-.53.53a.76.76 0 0 1-.59 0c-.195-.081-.37-.258-.524-.53zm1.64-4.458v2.03h-.614v2.483h.662V9.476h.768V7.347h.949c.169 1.324.628 2.308 1.379 2.952.75.643 1.677 1.016 2.78 1.12 1.104.102 1.828.248 2.174.435.346.188.519.377.519.569h1.346c-.206-.493-.482-.868-.828-1.126-.346-.257-.987-.42-1.925-.485-.938-.067-1.688-.19-2.251-.37a3.588 3.588 0 0 1-1.506-.96c-.442-.46-.78-1.447-1.015-2.963zm-.893 7.115l-1.542 1.823h.752l.79-.942.797.942.775-.942.797.942.79-.942.797.942.79-.942.797.942.774-.942.798.942.797-.942.774.942.798-.942.79.942h.751L44.3 13.634l-.798.881-.774-.88-.797.88-.798-.88-.774.88-.797-.88-.79.88-.797-.88-.79.88-.797-.88-.775.88-.797-.88zm8.138-9.187c-.408.032-.634.237-.677.613.054.409.28.624.677.646.398-.022.608-.237.63-.646-.033-.376-.242-.58-.63-.613zm.049-1.355c.29 0 .56.054.807.161a2.127 2.127 0 0 1 1.097 1.089c.107.242.16.498.16.767 0 .28-.053.54-.16.782a2.029 2.029 0 0 1-1.097 1.065 2.092 2.092 0 0 1-.807.153c-.29 0-.562-.05-.815-.153a1.94 1.94 0 0 1-.653-.428 2.097 2.097 0 0 1-.436-.637 1.905 1.905 0 0 1-.161-.782c0-.27.054-.525.161-.767.108-.242.253-.457.436-.645s.4-.336.653-.444c.253-.107.524-.161.815-.161zm-.032-.549a2.5 2.5 0 0 0-1 .202 2.472 2.472 0 0 0-.807.549c-.226.23-.406.5-.54.806a2.443 2.443 0 0 0-.203.993c0 .354.068.685.202.992.135.306.315.572.54.798a2.56 2.56 0 0 0 1.808.742c.355 0 .685-.067.992-.201.306-.135.575-.315.806-.54.232-.227.415-.493.549-.8.134-.306.202-.637.202-.991 0-.355-.068-.686-.202-.993a2.615 2.615 0 0 0-1.355-1.355 2.443 2.443 0 0 0-.992-.202zm10.799 0q.035 0 .075.01.215.059.124.358l-1.042 2.696h-.508l1.107-2.852q.085-.212.244-.212zm.86.217q.044 0 .094.015.247.071.091.37l-.95 2.462h-.508l1.002-2.617q.094-.23.271-.23zm-2.57 3.976q-.122 0-.278.043v.13q.154-.05.28-.05.108 0 .195.037.19.078.502.104l-.065-.065q-.287-.104-.456-.17-.077-.029-.178-.029zm.1.29l.234.078q-.13.052-.234.078.078-.065 0-.156zm-.196 0q-.039.078.026.17-.104-.027-.156-.053.013-.065.13-.117zm.066-.091q-.17 0-.235.13l-.117.065-.013.065.117.026q.096.059.23.059.195 0 .473-.124h.287v-.09h-.3q-.273-.131-.442-.131zm2.356-1.08L53.5 7.481q-.087.121-.162.121-.038 0-.072-.03l-.287-.182q.026-.092.208-.274.183-.182.079-.436-.06-.144-.226-.144-.129 0-.321.085-.416-.25-.735-.25-.03 0-.06.003-.026-.3-.09-.52zm-5.56.999q.069 0 .137.061.137.124-.137.736-.273-.612-.136-.736.068-.061.136-.061zm3.063-.258q.333 0 .87.287.117-.13.234-.13t.124.117q.006.117-.209.306-.214.189-.201.319l.039.013q-.04.286-.26.449-.222.163-.6.176l-.049.001q-.195 0-.172-.099.026-.11-.04-.189l.075.002q.365 0 .193-.125-.128-.093-.205-.093-.037 0-.062.021.052-.195-.208-.208.286-.482.442-.847h.029zm.935.964l.377.234q.04.6.248.834-.112-.015-.21-.015-.075 0-.142.008-.156.02-.3.15-.142-.417-.325-.664.339-.248.352-.547zm-3.69 2.5zm-.202.27q.284 0 .532.277-.468.013-.625.3-.13-.326-.325-.365-.195-.04.208-.176.108-.036.21-.036zm4.4-1.416q.507 0 .638.573.182.794.052 2.474-.157 1.927-.365 3.19l.156.234H49.49l.899-.364q-.39-1.914-.977-2.806-.586-.892-.195-1.152.124-.083.247-.083.264 0 .521.382l1.758 2.5.313-.026q.286-2.917.612-4.349.156-.573.664-.573zm.376-6.664q-.376 0-.507.44l-1.12 2.917h-.56q.157.52.157.924-.091.365-.345.73-.245.351.098.351h.026q-.092.13.026.156-.105.052-.026.11.078.06.065.255-.04.573-.306.93-.22.295-.399.295-.04 0-.077-.014-.092-.035-.154-.035-.077 0-.106.054-.052.098.137.202.067.037.159.037.166 0 .414-.122.384-.188.696-1.165h.365q.17.156.26.456-.468 1.51-.768 4.427l-1.758-2.474q-.143-.221-.41-.488-.097-.097-.257-.143-.008-.022-.036-.06-.117-.155-.045-.266.071-.11.071-.202 0-.338-.3-.404v-.325h.066q-.091-.26-.104-.846.26.09.345.136.084.046.123.085.079-.287 0-.56-.208.143-.442.17.43-.782.286-.984-.143-.202-.273-.254v-.742q.026-.325-.078-.456.065-.247.358-.664.293-.416.123-.729-.547.781-.787 1.01-.241.227-.32.527-.078.3-.963 1.562.52-.065 1.133-1.159.104-.156.143-.195.007-.007.012-.007.027 0 .027.163v.69q-.13.052-.28.254-.15.202.28.983-.17-.026-.43-.169-.09.273 0 .573.26-.143.456-.234-.013.586-.117.846h.091v.325q-.273.066-.3.404-.012.091.098.195.111.105-.065.274-.101.098-.046.098.04 0 .163-.053.293-.123.098-.514.013-.195.234-.195.196 0 .222.195-.136.37.073.495-.069-.007-.146-.007-.187 0-.422.04-.742.123-.443.423.3.3.495.677.04.547.501 1.328.463.781.84 2.292l-.99.43.066.507h5.56l-.573-.677q.416-4.05.293-5.176-.124-1.126-.567-1.243-.312-.313-.247-.677l.325-.586q.769.56.769 1.51v6.849h.286V8.901q0-1.133-.924-1.77l.846-1.524h-.599l.924-2.396q.196-.495-.175-.638-.178-.069-.333-.069-.17 0-.312.082-.091-.286-.527-.332-.038-.004-.073-.004zm4.143 1.558l2.736 2.406q-.576.89-1.532 1.797-.907-2.143-1.204-4.203zm-.728-1.187q-.528 0-.409.725.51.248.429.56-.083.314.065 1.04.149.725 1.187 3.444-.315 1.074.367 1.074l.062-.002q1.846 3.395 4.071 5.917h.396l-.1-1.104q-1.78-1.665-3.807-5.39.594-1.253 1.665-2.193l3.28 2.95q.248.112.417.112.457 0 .325-.82l-3.297-2.818q.014-.75-.624-.75-.149 0-.332.04L57.851 2.82q-.452-.198-.728-.198z"/><path d="M7.95.375c-9.625 0-9.625 17.25 0 17.25m0-17.25H65.1M7.95 17.625H65.1M72.788.375v17.25M65.1.375c9.625 0 9.625 17.25 0 17.25" fill="none" stroke="#000"/></svg>