<svg xmlns="http://www.w3.org/2000/svg" width="68.285" height="18"><path d="M3.01.474c.693 0 1.247.2 1.634.479.006.053.02.107.009.16-.05.248-.195.477-.396.63-.316.207-.697.267-1.057.356-.09.01-.019.031.031.04.23.04.707.099.971.099l.052-.001c.278-.032.54-.148.766-.311.079-.067.147-.15.205-.236.147.346.227.713.26.917.018.11.096.2.202.233 1.139.349 2.038 1.91 2.88 2.949 1.729 2.137 3.199 4.526 4.892 6.76-.937-.456-1.87-.916-2.81-1.374-1.92-1.01-3.92-1.816-5.604-3.09l-.008-.008c-.97-.808-1.963-1.66-2.339-2.793-.148-.92 1.757-2.577 1.542-2.646a.207.207 0 0 0-.064-.01c-.458 0-1.753 1.128-2.019 2.202-.003-.014-.01-.03-.014-.045-.073-.356-.154-1.256.068-1.98a.29.29 0 0 0 .01-.103 1.968 1.968 0 0 0-.123-.634c-.063-.17-.139-.344-.26-.765-.031-.108-.142-.328-.208-.345.186-.138.375-.28.645-.375a.434.434 0 0 0-.132.314c0 .23.164.415.365.415.2 0 .364-.186.364-.415V.894a.411.411 0 0 0-.255-.39c.053-.007.096-.019.154-.022.081-.006.16-.008.238-.008zm.67 7.763c.065.065.135.124.202.187.214.78.412 1.64.692 2.305.483 1.145 1.216 2.141 1.84 3.154a1.814 1.814 0 0 0-.385.27 6.831 6.831 0 0 0-.199.193 2.61 2.61 0 0 0-1.186-.897c.045-.723-.108-1.712-.34-2.787a34.903 34.903 0 0 0-.624-2.425zm1.006.908c1.149.945 2.428 1.738 3.676 2.54-.018.91-.018 1.778.084 2.675a3.411 3.411 0 0 0-1.437-.736c-.02 0-.037.012-.057.012-.649-1.063-1.383-2.06-1.837-3.134-.156-.37-.293-.85-.429-1.357zm.407 5.254a2.5 2.5 0 0 1 .44.541.3.3 0 0 0 .257.14.29.29 0 0 0 .17-.053c.215-.156.347-.324.476-.446.047-.045.097-.08.148-.117l.149 2.722c-.213-.014-.435-.035-.637-.035-.264 0-.495.036-.633.172-.169-.134-.497-.164-.89-.164-.102 0-.207.002-.316.004l.836-2.764zM6.25 9.574c1.354.787 2.784 1.414 4.135 2.125a.244.244 0 0 0 .006.003c1.295.631 2.586 1.28 3.894 1.904.984 1.189 2.052 2.295 3.078 3.42l-2.15.362-4.267-4.635a.288.288 0 0 0-.037-.036c-1.499-1.137-3.152-2.082-4.66-3.143zM3.076 0c-.135 0-.273.005-.411.013C1.58.083.792.54.523 1.157c-.04.093-.146.314-.007.314a2.35 2.35 0 0 1 .341-.028c.418 0 .38.172.47.194.09.282.29.846.303 1.068-.244.86-.153 1.763-.064 2.198.15.732.63 1.584 1.261 2.38a.285.285 0 0 0 0 .166 35.3 35.3 0 0 1 .903 3.336c.251 1.168.393 2.277.317 2.823a.294.294 0 0 0 .221.328c.045.011.084.031.127.045l-.928 3.079a2.847 2.847 0 0 0-.593-.055c-.381 0-.756.05-1.064.05-.125 0-.24-.008-.34-.032a.546.546 0 0 0-.125-.012c-.436 0-1.428.306-1.34.879.15-.128.257-.159.375-.159.11 0 .23.027.405.027h.027c.254-.004.697-.083 1.053-.083.18 0 .338.02.438.08.236-.01.45-.013.649-.013.85 0 1.447.07 2.5.075a89.565 89.565 0 0 0 2.974-.079c.45.003.697.054.922.054h.04c.134-.004.265-.057.48-.057.123 0 .273.017.468.07-.25-.341-.877-.685-1.33-.685a.591.591 0 0 0-.302.071 5.081 5.081 0 0 0-.508-.022c-.22 0-.448.01-.678.02l-.157-2.83c.487.203.857.517 1.281 1.021a.295.295 0 0 0 .513-.246c-.192-1.039-.213-2.019-.202-3.06.54.354 1.072.713 1.576 1.094l4.36 4.738a.29.29 0 0 0 .263.09c.95-.159 1.9-.315 2.849-.474a.294.294 0 0 0 .23-.193.298.298 0 0 0-.06-.297c-.741-.83-1.508-1.631-2.25-2.445 1.269.78 2.875 1.755 3.08 1.755.022 0 .027-.013.012-.04-.094-.163-.9-.755-1.775-1.373.14.058.276.12.415.177l.017.01c.103.035.16.059.27.062a.286.286 0 0 0 .108-.016.317.317 0 0 0 .188-.152.32.32 0 0 0 .023-.238c-.017-.05-.038-.077-.054-.098-.061-.085-.103-.109-.162-.154a4.553 4.553 0 0 0-.205-.149c-.153-.105-.336-.223-.493-.328a4.992 4.992 0 0 1-.328-.233.307.307 0 0 0-.028-.025l-3.892-2.736c-.008-.006-.02-.001-.028-.006-1.333-1.869-2.588-3.825-4.046-5.627-.744-.92-1.598-2.528-2.985-3.064-.067-.396-.218-1.127-.755-1.649C4.827.26 4.168.056 3.427.011A5.728 5.728 0 0 0 3.076 0zM25.85 4.787q-.407 0-.472.314v.019q.047.083.194.083.425-.185.425-.342v-.018q0-.037-.148-.056zm1.477-.572q-.065.36-.637.775l.203.083.277-.101.138.092q1.062.508 2.817.536l2.752.027h.037q.47 0 .457.688-.014.716-.485 1.436-.296 0-.6-.226-.305-.226-.5-.53-.193-.306-.498-.795.093.97.554 1.524-.563 0-1.002.106-.219.053-.365.053-.147 0-.221-.053-.092-.066-.457-.066-.222 0-.545.024-.249.02-.455.02-.501 0-.75-.112-.23-.194-.29-.679-.06-.485.272-1.343-.684.489-.684 1.486v.333q-.341-.351-.535-.776-.379-.942-1.035-.942-.249 0-.96.314-.24-.101-.194-.323l.462-.619q.332-.563.48-.628.074-.138.72-.138.277.074.277.203 0 .175-.184.35.35-.073.508-.415 0-.083.443-.304zm.398-1.965q-.045 0-.103.072-.701 1.117-1.274 1.551-.222.194-.6.203-.185 0-.563-.277-.564-.545-.785-.923-.25-.444-.324-.49-.037 0-.055.093 0 .526 1.071 1.948-.203.296-.378.674-.176.379-.416.577-.24.199.046.393 0 .24.397.388l.988-.287q.397 0 .545.333.49.738.49 1.542.055 1.071-.74 2.05-.249.166-.249.461 0 .12.305.12.499 0 .499-.12l-.037-.249q0-.13.194-.194v-.018q0-.176.628-1.764.286 0 .452.277.213.702.213 1.164 0 .101-.13.434-.157.12-.194.434h.74l-.056-.231q-.037-.139.101-.24l-.064-.342q-.12-1.302-.12-1.533v-.018q.73-.176 1.122-.176.392 0 .604.143.085.057.237.057.23 0 .618-.13.419-.142.643-.142.119 0 .183.04.185.115.185.392 0 1.016-.517 1.727-.167.166-.25.462h.637q.167-.056.074-.277.019-.24.222-.305 0-.84.739-1.662.517.286.526.886 0 .231-.092.628l-.111.305q-.102.12-.185.453h.61q.11-.047.138-.102l-.092-.296q-.046-.129.13-.23-.093-.49.12-.74-.435-1.015-.435-1.597.231-.95.296-1.782.11.582.027 1.395-.083.812.277 1.68.07.146.129.146.04 0 .074-.072.093-.526.037-2.909-.073-.295-.157-.452-.295-.453-.507-.471h-2.983q-2.207 0-3.269-.628.176-.314.194-.43.018-.115 0-.281-.443.13-.665.342l-.185-.139q.194-.12.62-.776.424-.655.498-1.025-.031-.062-.073-.062zm4.893 10.098c.488.021.755.032.87.032h.053l-.063 2.547a3.738 3.738 0 0 1-.97-.576l.11-2.003zm-7.107-.634c-.163.031-.377.131-.351.325v1.42c-.315-.015-.64-.031-.734-.031 0 .178.147.42.603.42.005.403.078.896.152 1.147l.063.66c0 .074.125.095.262.095.162 0 .34-.031.34-.031l-.026-.66c2.59.02 7.527.151 7.773.151.126 0 .21-.136.21-.325l.063-2.846-1.557-.016-.126 2.217c-1.127.006-3.076.19-4.402.19-.42 0-.781-.017-1.028-.069-.052-.058-.54-.765-.849-.844a1.36 1.36 0 0 0-.183-.02c-.053-.43-.105-.86-.152-1.285.094-.12.309-.09.366-.252.058-.078.021-.21-.089-.215-.063-.026-.235-.031-.309-.031zm15.381-9.166c.025 0 .051.003.079.01.143.04.184.16.123.359L40.053 5.61h-.508l1.107-2.863c.056-.134.136-.2.24-.2zm.86.217a.35.35 0 0 1 .097.015c.165.048.195.171.091.371l-.95 2.46h-.508l1.003-2.63c.062-.144.15-.216.267-.216zM39.185 6.74c-.08 0-.173.014-.277.042V6.9a.9.9 0 0 1 .27-.047.5.5 0 0 1 .205.041 1.4 1.4 0 0 0 .5.098l-.064-.066a8.543 8.543 0 0 1-.456-.156.494.494 0 0 0-.178-.03zm.1.277l.234.09a1.9 1.9 0 0 1-.234.079c.052-.052.052-.109 0-.17zm-.195 0c-.026.06-.018.121.026.182a1.597 1.597 0 0 0-.156-.052c.008-.052.052-.096.13-.13zm.065-.085c-.113 0-.191.046-.234.137l-.118.065-.013.065.118.013a.43.43 0 0 0 .243.067c.128 0 .281-.04.46-.12h.286v-.09h-.3c-.182-.091-.33-.137-.442-.137zm2.356-1.1l-.885 1.64c-.06.089-.115.133-.166.133a.104.104 0 0 1-.069-.029l-.286-.182c.017-.07.087-.163.208-.28.122-.117.148-.26.078-.43-.04-.098-.119-.147-.235-.147a.85.85 0 0 0-.311.076c-.281-.16-.522-.239-.723-.239a.703.703 0 0 0-.084.005 2.4 2.4 0 0 0-.091-.547zm-2.497.768c.222 0 .512.095.87.286.078-.095.156-.143.234-.143.078 0 .12.04.124.117.004.079-.065.18-.209.306-.143.126-.21.232-.201.32l.039.025a.64.64 0 0 1-.26.45c-.148.108-.348.166-.6.175a.936.936 0 0 1-.048.001c-.13 0-.188-.033-.173-.099a.238.238 0 0 0-.039-.201c.047.002.089.004.125.004.201 0 .249-.04.142-.122-.081-.061-.147-.092-.198-.092a.097.097 0 0 0-.069.027c.035-.13-.034-.2-.208-.208a7.42 7.42 0 0 0 .443-.846h.028zm.935.963l.377.235c.026.399.104.672.235.82a1.704 1.704 0 0 0-.365.013.711.711 0 0 0-.312.117 1.888 1.888 0 0 0-.287-.638c.226-.174.343-.356.352-.547zm.507 1.354c.339 0 .551.186.638.56.122.529.14 1.357.052 2.485-.104 1.285-.225 2.343-.364 3.176l.17.248h-4.335l.898-.365c-.26-1.275-.586-2.21-.976-2.805-.39-.594-.456-.978-.195-1.152a.444.444 0 0 1 .247-.082c.178 0 .356.127.533.382l1.745 2.499.312-.026c.19-1.944.395-3.393.612-4.347.104-.382.325-.573.663-.573zm.386-6.667c-.256 0-.427.148-.516.445L39.22 5.611h-.573c.104.347.156.655.156.924-.06.234-.175.475-.344.722-.164.24-.13.359.098.359h.025c-.06.086-.052.134.026.142-.07.044-.076.083-.02.118.057.034.077.117.06.247-.027.39-.129.705-.307.944-.146.195-.278.293-.398.293a.216.216 0 0 1-.077-.014.458.458 0 0 0-.154-.034c-.051 0-.087.018-.106.054-.035.065.01.132.137.202a.324.324 0 0 0 .159.037c.11 0 .248-.04.413-.122.256-.126.488-.514.697-1.165h.364c.113.104.2.256.26.456-.312.998-.568 2.473-.767 4.425l-1.653-2.343a.83.83 0 0 0-.533-.214.851.851 0 0 0-.424.123c-.334.191-.497.401-.488.631.009.23.167.606.475 1.126.308.52.588 1.284.84 2.29l-.99.43.065.508h5.558l-.573-.677c.278-2.698.376-4.423.293-5.173-.082-.751-.271-1.165-.566-1.243-.208-.209-.29-.434-.247-.677l.338-.599c.503.382.755.885.755 1.51v6.859h.3V8.89c-.01-.754-.322-1.344-.938-1.77l.846-1.51h-.598l.924-2.407c.13-.33.071-.542-.176-.638a.89.89 0 0 0-.32-.065.605.605 0 0 0-.324.091c-.061-.2-.237-.312-.527-.338a.715.715 0 0 0-.064-.003zm4.635.85q.367 0 .966.2 1.028.342 2.13 1.43 1.1 1.09.88 2.02-.22.93-.856 1.395-.526.384-1.268.384-.157 0-.323-.017-.954-.098-1.64-1.505-.685-1.407-.636-2.509.05-1.1.343-1.297.143-.102.404-.102zm-.1-.85q-.504 0-.818.217-.66.465-.734 1.91-.074 1.443.832 3.132.905 1.688 2.202 1.847.248.03.483.03.992 0 1.744-.544.93-.673 1.163-1.909.232-1.235-.991-2.618-1.224-1.383-2.643-1.836-.72-.229-1.238-.229zm1.257 8.502v4.998h.836v-4.998z"/><path d="M21.396.375v17.25m0-17.25h2.625m-2.625 17.25h2.625m0-17.25h26.264m-26.264 17.25h26.264m0-17.25H67.91m-17.625 17.25H67.91M52.047.375v17.25M55.572.375v17.25M57.335.375v17.25M59.097 2.1h8.813m-8.813 3.45h8.813M59.097 2.1v3.45m1.763-1.725h7.05m-8.813 3.45h8.813m-8.813 3.45h8.813m-8.813-3.45v3.45M60.86 9h7.05m-8.813 3.45h8.813m-8.813 3.45h8.813m-8.813-3.45v3.45m1.763-1.725h7.05" fill="none" stroke="#000"/></svg>