<svg xmlns="http://www.w3.org/2000/svg" width="110.458" height="18"><path d="M6.174.386c.221 0 .566.052.757.104.832.223-.005.968-.54.968a.513.513 0 0 1-.073-.005c-.353.074.06.199.502.199.272 0 .555-.047.681-.18.072-.077.131-.108.182-.108.185 0 .258.417.406.623.74.245 1.203.913 1.682 1.486 1.377 1.65 2.617 3.405 3.917 5.115-.357-.105-.743-.31-1.097-.48-1.62-.783-3.347-1.401-4.814-2.455-.732-.525-1.712-1.134-1.793-2.056-.061-.702 1.227-1.337 1.134-1.717-.011-.044-.043-.064-.09-.064-.274 0-1.077.688-1.288 1.09-.081.155-.14.217-.182.217-.146 0-.077-.757.014-.93.31-.589-.628-1.325-.1-1.664-.016.088.002.337.312.337.325 0 .305-.4.205-.453a.435.435 0 0 1 .185-.027zm.616 5.477c.254.9.626 1.766 1.065 2.59.217.405 1.13 1.049.485 1.377a.194.194 0 0 1-.052.007c-.257 0-.519-.495-.855-.517a12.843 12.843 0 0 0-.265-1.873c-.103-.505-.36-1.176-.378-1.584zm.705.597c.795.576 1.63 1.093 2.472 1.6.222.497.034 1.222.149 1.805-.538-.363-1.112-.378-1.457-1.066-.385-.766-1.019-1.494-1.164-2.34zm.226 3.6c.134.235.335.383.538.383.16 0 .32-.091.45-.304.186.205.23.926.23 1.325.002.411-.214.446-.465.446l-.155-.002a.93.93 0 0 0-.278.032.453.453 0 0 1-.138.02c-.197 0-.423-.095-.636-.095-.02 0-.04 0-.06.002.001-.52.36-1.225.514-1.808zm1.603-2.968c1.69.766 3.36 1.59 5.054 2.351.648.679 1.239 1.448 1.96 2.049.538.45-.155.358-.474.418-.244.046-.492.08-.738.116-.87-.87-1.745-1.738-2.58-2.641-.909-.982-2.145-1.538-3.222-2.293zm-.512 5.693c1.105 0 2.211.013 3.316.042.556.014 1.197-.023 1.695.164-.658.042-2.304.058-4.042.058a201.337 201.337 0 0 1-5.037-.05c-.51 0-.097-.173.188-.173a.55.55 0 0 1 .076.005c1.267-.03 2.535-.046 3.804-.046zm-4.862.743c.75.01 1.5.02 2.25.045.495.017.989.023 1.483.023 1.398 0 2.796-.05 4.192-.05.188 0 .375.001.562.003-1.161.634-2.421 1.17-3.766 1.214-.152.005-.3.008-.445.008-.76 0-1.443-.08-2.196-.351-.656-.236-1.506-.523-2.08-.892zm6.649 1.558a.144.144 0 0 0-.078.02c-.256.16.368 1.331.895 1.613.04.021.078.03.115.03.192 0 .33-.259.247-.445-.214-.48-.87-1.218-1.18-1.218zm-4.848.055c-.042 0-.105.026-.194.086-.432.29-1.443 1.067-.823 1.496a.22.22 0 0 0 .129.042c.224 0 .442-.354.556-.556.12-.21.574-1.068.332-1.068zm4.06.177c-.274 0 .026 1.476.502 1.79.031.022.07.031.109.031.106 0 .222-.069.242-.173.123-.637-.473-1.61-.846-1.647a.08.08 0 0 0-.008 0zm-3.278.017c-.05 0-.13.062-.244.216-.302.408-1.043 1.256-.436 1.571.04.021.078.03.114.03.254 0 .4-.478.49-.72.081-.222.268-1.097.076-1.097zm2.271.162c-.023 0-.043.012-.06.037-.245.368-.164 1.491.42 1.817a.196.196 0 0 0 .097.026c.172 0 .306-.25.276-.423-.07-.41-.517-1.457-.733-1.457zm-1.329-.011a.1.1 0 0 0-.058.023c-.391.291-1.017 1.466-.379 1.845.035.02.068.03.101.03.191 0 .35-.31.375-.504.04-.334.162-1.394-.039-1.394zm.655-.018a.08.08 0 0 0-.038.01c-.324.174-.62 1.573-.014 1.945a.175.175 0 0 0 .092.028c.164 0 .306-.252.306-.421-.002-.46-.123-1.562-.346-1.562zM6.352 0c-.205 0-.408.02-.598.054-.567.104-1.44.31-1.43.996a.711.711 0 0 1 .192-.028c.55 0 .663.789.553 1.27-.225.98.26 1.965.898 2.707.425 1.269.96 2.595.954 3.928-.003.556.408.592.256 1.158-.136.51-.373 1.566-.883 1.69a2.18 2.18 0 0 1-.182.007c-.323 0-.663-.056-.984-.056-.254 0-.497.036-.71.162-.444.264-.778.46-1.31.46l-.071-.001-.078-.002c-.895 0-1.953.472-2.118 1.411-.244 1.391-.044 2.827-.036 4.233.205.005.412.011.618.011.163 0 .325-.004.487-.016-.076-.844-.133-1.694-.079-2.539.039-.601-.113-1.44.465-1.781a.738.738 0 0 1 .383-.107c.506 0 1.005.499 1.472.712 1.306.596 2.697 1.036 4.147 1.036h.1c1.756-.025 3.375-.751 4.878-1.576a.616.616 0 0 1 .41-.148c.28 0 .562.17.622.463.262 1.292.154 2.632.067 3.94.157.012.315.015.473.015.156 0 .313-.003.47-.003.052 0 .105 0 .158.002.008-.911.089-1.823.047-2.733-.033-.721.107-1.55-.417-2.143-.68-.771-1.763-.76-2.704-.825a1.712 1.712 0 0 0-.117-.004c-.125 0-.257.01-.386.01a.973.973 0 0 1-.439-.08c-.294-.302-.66-.36-1.04-.36-.228 0-.462.021-.689.021a2.75 2.75 0 0 1-.22-.008c-.043-.588-.075-1.177-.107-1.766a.155.155 0 0 1 .111-.045c.294 0 .78.686 1.034.686.076 0 .13-.06.154-.217.094-.642-.155-1.343-.146-2.018h.016c.285 0 .766.368 1.053.617.898.779 1.67 1.717 2.513 2.566.334.38.681.803 1.163.803.13 0 .269-.031.42-.101.48-.223 1.5.065 1.609-.544-.462-.54-.994-1.018-1.47-1.547.58.274 1.144.678 1.747.941a.77.77 0 0 0 .24.078c.18 0-.489-.521-.668-.602-.665-.3.624-.188.098-.605-1.155-.915-2.466-1.648-3.699-2.473-.79-.998-1.506-2.067-2.3-3.068-.66-.774-1.221-1.636-1.941-2.356C8.895 1.783 8.245 1.66 8.2.937 7.858.252 7.09 0 6.352 0zm31.513 1.45zm-.004.202zM22.11.878v1.195c-.178-.081-.352-.158-.517-.239a1.661 1.661 0 0 0-.476-.133c-.135-.02-.276-.035-.403-.06a.469.469 0 0 1-.2-.073c-.017-.013-.028-.03-.028-.093 0-.062.011-.079.027-.092a.469.469 0 0 1 .201-.072c.127-.026.268-.04.403-.061a1.7 1.7 0 0 0 .476-.133c.165-.081.34-.158.517-.239zm0 1.195zm.607.086zM33.732.789c.117 0 .235.001.353.004.66.016 1.65.174 2.468.379.405.1.767.212 1.025.323.04.017.076.034.11.05-.03.013-.063.025-.097.038-.258.097-.62.19-1.025.272-.823.167-1.816.287-2.481.303-.118.003-.236.004-.353.004-1.196 0-2.387-.136-3.578-.275-1.272-.148-2.543-.298-3.82-.298l-.194.001c-1.117.014-2.4.138-3.423.569V.792c1.023.43 2.306.555 3.423.569l.194.001c1.277 0 2.548-.15 3.82-.298 1.191-.139 2.382-.275 3.578-.275zM22.484 0l-.147.084c-.34.195-.696.332-1.012.488-.084.041-.19.06-.3.078-.146.022-.296.038-.433.066a1.053 1.053 0 0 0-.468.2.697.697 0 0 0-.246.56c0 .242.092.43.246.558.124.103.287.164.468.201.137.028.287.044.433.066.11.017.216.037.3.078.316.156.672.293 1.012.488l.146.084.149-.08c.984-.528 2.355-.66 3.515-.674h.188c1.254 0 2.502.149 3.75.294 1.215.14 2.43.278 3.65.278.12 0 .242-.001.364-.004.701-.016 1.73-.14 2.588-.315.436-.088.83-.19 1.117-.298.16-.06.292-.124.389-.19a.68.68 0 0 0 .156-.146.433.433 0 0 0 .092-.262.44.44 0 0 0-.088-.26.714.714 0 0 0-.151-.148 1.913 1.913 0 0 0-.385-.21 7.75 7.75 0 0 0-1.116-.354c-.863-.215-1.896-.38-2.602-.396a15.5 15.5 0 0 0-.365-.004c-1.22 0-2.434.137-3.65.278-1.247.145-2.495.295-3.749.295l-.188-.001C24.987.739 23.616.608 22.632.08L22.484 0zm15.118 12.157q.274.323.274 1.598 0 1.097-.339 1.872-.759-.775-.79-1.872.015-1.275.855-1.598zm-2.051-.207q.786 0 .953.287-.097.824-.662 1.211-.323.307 0 .678.565.436.678 1.34 0 .452-1.469.452t-4.406-.226q-1.001-.113-2.244-1.195-1.437-1.097-2.518-1.307h-.017q-.514 0-1.371.984-.872 1.001-1.68 2.664h-1.581q.145-.355 2.22-2.373 2.025-1.97 2.411-1.97h.018q1.081.275 1.808.848.419.33.854.33.32 0 .647-.177 2.68-1.016 4.85-1.388.925-.158 1.509-.158zm1.718-.663q-.301 0-.733.111-2.954.048-5.891.92-.824.275-2.131.84-1.372-1.001-2.631-1.195h-.014q-.39 0-1.334.888-.96.904-3.027 2.986-1.194 1.243-1.63 2.13V18h2.534v-.775h.791q.888-2.05 1.63-2.825.637-.664.953-.664.053 0 .097.019 1.146.355 1.856.952.71.597 1.582 1.114.872.516 2.567.589 1.016.044 2.498.044.988 0 2.183-.02.375.094.65.094.482 0 .657-.287.565-1.389.565-2.486 0-1.292-.565-2.228-.163-.24-.607-.24zM42.186 0c-.93 0-1.745.684-1.745 1.562V18h1.136V1.562c0-.43.379-.57.616-.57.25 0 .634.175.634.703v10.804h1.136V1.695c0-.88-.87-1.695-1.777-1.695zM67.28 1.718zm-.004.24zm-18.668-.917v1.416c-.21-.097-.417-.187-.613-.283a1.969 1.969 0 0 0-.563-.158c-.16-.025-.328-.041-.478-.072a.556.556 0 0 1-.238-.086c-.019-.015-.033-.035-.033-.11 0-.074.014-.093.033-.109a.556.556 0 0 1 .238-.086c.15-.03.317-.047.478-.072a1.96 1.96 0 0 0 .563-.157c.196-.097.403-.187.613-.283zm0 1.416zm.72.101zM62.382.935c.14 0 .279.002.419.005.782.018 1.955.206 2.925.449.48.12.908.252 1.214.383.047.02.09.04.13.059a2.8 2.8 0 0 1-.115.046 8.515 8.515 0 0 1-1.214.321c-.975.198-2.153.34-2.94.36-.14.003-.28.004-.42.004-1.416 0-2.827-.161-4.24-.325-1.506-.176-3.013-.354-4.527-.354l-.23.001c-1.324.017-2.844.164-4.056.674V.94c1.212.51 2.732.658 4.056.674l.23.001c1.514 0 3.02-.178 4.528-.353 1.412-.164 2.823-.326 4.24-.326zM49.052 0l-.175.1c-.402.231-.824.393-1.2.578a1.246 1.246 0 0 1-.355.092c-.173.026-.35.045-.513.078a1.248 1.248 0 0 0-.554.238.827.827 0 0 0-.292.663c0 .288.11.51.292.662.146.122.34.194.554.238.162.033.34.052.513.079.13.02.256.043.356.092.375.185.797.346 1.2.578l.172.1.177-.095c1.166-.627 2.792-.782 4.166-.799l.223-.001c1.486 0 2.965.177 4.443.349 1.44.167 2.88.33 4.326.33.144 0 .288-.002.432-.005.831-.02 2.05-.167 3.068-.373a9.207 9.207 0 0 0 1.323-.353 2.14 2.14 0 0 0 .46-.226.805.805 0 0 0 .186-.172.514.514 0 0 0 .11-.311.522.522 0 0 0-.106-.307.846.846 0 0 0-.179-.176 2.267 2.267 0 0 0-.455-.249A9.184 9.184 0 0 0 65.9.69C64.878.435 63.654.24 62.817.22a18.37 18.37 0 0 0-.432-.005c-1.445 0-2.885.163-4.326.33-1.478.173-2.957.35-4.443.35l-.223-.002c-1.374-.017-3-.172-4.166-.798L49.051 0zm17.36 12.17q.442 0 .442.464v3.556h-1.346l.441-3.746q.022-.273.463-.273zm.022-.568q-1.074 0-1.137.61-.442 3.978-.947 4l-9.765.357-1.01-.042q-1.136-1.2-2.02-1.2l-.653-.042q-1.789.337-2.146.337-.253 0-.253.337 0 .463.716.463 1.228-.196 1.885-.196.119 0 .22.006.357 0 .588.295-.41.508-1.837.508-.11 0-.225-.003-1.62-.042-2.862-.421-.61 0-.61.716.063.652 4.566.673l2-.21 11.406-.064 3.199.043v-5.135q-.021-1.032-1.115-1.032zM76.627.307q.09 0 .17.04.137.069.196.235.059.167 0 .265-.137.156-.274.166l-.04.001q-.122 0-.273-.05-.118.118-.275.294-.195.254-.528.803-.372.607-.549.861-.41-.235-.685-.235Q75.603 1.16 75.965.768q.362-.391.529-.44.069-.02.133-.02zm-2.65 2.987q.549.274.666.49.118.215.02.215-.098 0-.235.118-.098-.353-.45-.823zm-.137.568l.862 3.231q-.411 0-.862.313V3.862zM76.59 0q-.263 0-.556.26l-2.311 2.76q-.744-.117-1.155-.822.274-.333.93-.94t.538-.803q-.056-.118-.192-.118-.336 0-1.159.725-.881.627-1.41 1.018-.274.255-.45.891-.176.637-.529 1.332-.352.695-.333 1.087.05.244.162.244t.289-.244q.254-.431.607-.98.352-.548.88-1.018.373-.254.706-.313.372.137.568.529v10.809q-1.156.313-1.195 1.507-.059.45.274 1.39.235.686.881.686-.43-1.625-.43-2.076.039-.9.783-.9.803 0 .842.9 0 .45-.411 2.076.646 0 .861-.685.333-.94.255-1.39.02-1.195-1.195-1.508V8.229q.607-.431 1.586-.568-.391-1.997-.773-2.741-.337-.658.311-.658.086 0 .188.011-.235-.92-.94-1.175v-.097q.044-.004.087-.004.395 0 .853.317.294-.392.666-1.038.392-.666.529-.842.137-.176.196-.196.112.04.211.04.25 0 .425-.245.245-.343.01-.666T76.66.005Q76.626 0 76.59 0zm7.303.601c1.074 0 2.418.552 3.069 1.202.569.57.643 1.324.664 2.025H80.19c.02-.7.095-1.455.664-2.025.65-.65 1.964-1.202 3.038-1.202zm0-.601c-1.274 0-2.645.589-3.449 1.392-.824.824-.917 1.91-.917 2.72v.317h8.732v-.316c0-.812-.062-1.897-.886-2.72C86.569.588 85.167 0 83.893 0zm.02 9.696q.812 0 1.655.354l-1.603 1.624-1.644-1.624q.78-.354 1.592-.354zm-3.506 2.123l1.623 1.623-1.623 1.624q-.708-1.686 0-3.247zm7.013.083q.708 1.686 0 3.247l-1.623-1.623 1.623-1.624zm-1.27-1.373q.5.229.791.79l-2.206 2.227 2.186 2.186q-.27.54-.812.79l-2.185-2.185-2.144 2.144q-.54-.333-.79-.812l2.143-2.123-2.248-2.247q.23-.541.812-.77l2.227 2.227 2.227-2.227zm-2.185 4.828l1.624 1.623q-.791.354-1.603.354-.811 0-1.644-.354l1.623-1.623zm-.041-6.347q-2.144 0-3.382 1.394t-1.238 3.06q0 1.872 1.446 3.194 1.447 1.321 3.132 1.342 2.04-.02 3.32-1.405 1.28-1.384 1.28-3.132l-.021.042q.02-1.582-1.26-3.039-1.28-1.456-3.277-1.456zM92.932 0l-2.45 2.897h1.194L92.932 1.4l1.267 1.497L95.43 1.4l1.268 1.497L97.953 1.4l1.267 1.497 1.256-1.497 1.267 1.497 1.231-1.497 1.268 1.497 1.267-1.497 1.231 1.497 1.268-1.497 1.255 1.497h1.195L108.008 0l-1.268 1.4-1.23-1.4-1.268 1.4-1.268-1.4-1.23 1.4-1.268-1.4-1.256 1.4L97.953 0l-1.255 1.4L95.43 0 94.2 1.4 92.931 0zm2.16 4.713l-.013.001a15.261 15.261 0 0 1-1.105.037c-.079.004-.085.105-.059.162.166.467.309.94.443 1.417h-.019c-.132.003-.267 0-.398.013l-.007.01a.085.085 0 0 0-.059-.065 28.254 28.254 0 0 1-1.254-.908c-.01-.002-.021-.005-.032-.005h-.007c-.04.026-.056.083-.079.125-.072.194-.132.393-.212.584-.058.145-.121.29-.165.439.02.041.056.054.096.054a.396.396 0 0 0 .111-.022c.507-.108 1.03-.098 1.545-.105-.051.113-.073.24-.12.354-.02.066-.045.132-.06.2a.09.09 0 0 0-.013-.001c-.005 0-.01 0-.015.002-.63.244-1.245.542-1.783.955-.257.2-.512.406-.737.64-.005.095.102.125.173.152l.435.18c-.074.1-.093.232-.14.346-.243.716-.587 1.391-.873 2.09.001.057.054.085.106.085.02 0 .039-.004.055-.011.101-.02.202-.029.304-.031-.021.079-.03.163-.065.237-.171.546-.452 1.048-.664 1.578-.01.058.044.094.096.094.016 0 .03-.003.044-.01.26-.043.521-.08.784-.09-.03.072-.036.154-.059.23-.127.536-.312 1.065-.334 1.62-.005.362.038.722.096 1.078a7.86 7.86 0 0 0 .504 1.703c.002.05.048.081.093.081a.08.08 0 0 0 .07-.04c.034-.073.045-.156.07-.233a8.03 8.03 0 0 0 .267-1.45c.041-.423.058-.848.055-1.273-.018-.498-.136-.984-.213-1.474-.013-.074-.023-.15-.042-.223a6.923 6.923 0 0 1 .752.126c.08 0 .097-.106.062-.162-.213-.559-.431-1.117-.61-1.687l.026.005c.216.04.433.09.652.102.07-.057.02-.15-.014-.212-.264-.573-.48-1.174-.566-1.802-.028-.17-.027-.345-.057-.514.187.076.373.151.56.224.082-.02.085-.12.069-.186a2.071 2.071 0 0 1 .263-1.18c.175-.313.429-.57.687-.815.103.088.222.153.337.223l-.058.015c-.212.412-.391.839-.582 1.26-.025.059-.053.119-.062.181.032.052.085.062.14.062.036 0 .071-.004.103-.004h.005l.237-.006c-.026.082-.034.174-.06.255l-.454 1.889c.018.067.086.08.149.08a.638.638 0 0 0 .053-.002l.39-.014c-.035.103-.051.215-.086.318-.17.618-.341 1.237-.506 1.856.018.07.087.084.151.084.02 0 .04-.002.058-.003l.623-.018a.853.853 0 0 0-.024.102c-.13.568-.33 1.125-.36 1.711a6.773 6.773 0 0 0 .198 1.578c.1.417.242.822.403 1.22.007.045.05.075.092.075.025 0 .048-.01.064-.034.035-.062.041-.136.065-.202.177-.61.277-1.239.31-1.872.02-.337.033-.676.017-1.014-.034-.484-.144-.958-.221-1.437-.01-.047-.017-.096-.03-.143.218-.006.436-.013.654-.022.077-.06.034-.165.013-.241-.186-.664-.37-1.328-.559-1.99.182-.007.364-.013.546-.022.076-.06.033-.164.01-.24l-.574-1.937.585-.016c.074-.05.038-.149.004-.21-.174-.394-.345-.79-.525-1.18.13-.054.258-.11.384-.17.348.327.652.718.791 1.178.08.274.086.564.058.846.015.044.053.06.094.06a.196.196 0 0 0 .099-.028l.436-.18-.004.004a5.124 5.124 0 0 1-.342 1.669c-.096.26-.216.511-.32.768-.007.056.045.09.096.09a.1.1 0 0 0 .05-.013c.192-.029.384-.067.575-.103-.038.106-.065.217-.107.321-.164.479-.349.95-.526 1.423-.014.056.037.105.089.105a.08.08 0 0 0 .04-.012c.233-.051.469-.091.706-.114a.562.562 0 0 0-.012.066c-.078.44-.165.878-.22 1.32a4.83 4.83 0 0 0-.017.833c.025.702.095 1.406.283 2.084.032.116.063.233.1.346a.08.08 0 0 0 .075.043c.037 0 .074-.02.082-.06a7.826 7.826 0 0 0 .557-2.018c.05-.403.081-.815.004-1.217-.078-.427-.205-.843-.306-1.265-.017-.049-.025-.102-.042-.15.121.002.243.01.363.026.169.018.336.053.504.068.072-.02.066-.114.03-.163-.236-.568-.542-1.111-.693-1.71l-.008-.032c.029 0 .057 0 .085.002.108.008.214.03.321.038.076-.033.057-.132.022-.189-.313-.712-.652-1.414-.894-2.154-.023-.058-.04-.123-.073-.174l-.005-.003c.195-.082.391-.164.586-.248.045-.079-.032-.154-.09-.198-.498-.454-1.046-.86-1.655-1.153a6.39 6.39 0 0 0-.705-.296c-.018-.054-.043-.107-.056-.16-.062-.178-.114-.362-.193-.533a.248.248 0 0 0 .051.004l.06-.001h.149c.452 0 .907.015 1.349.116a.115.115 0 0 0 .045.009c.045 0 .092-.022.083-.072-.086-.27-.208-.526-.295-.795-.04-.11-.078-.222-.127-.327a.11.11 0 0 0-.059-.007c-.414.302-.821.618-1.25.9-.045.024-.104.07-.071.126v.001a.835.835 0 0 0-.155-.012l-.158.002a1.223 1.223 0 0 1-.067-.001h-.035a.076.076 0 0 0 .004-.029c.168-.5.335-1.006.622-1.452.034-.046.01-.125-.046-.135a.064.064 0 0 0-.012-.001zm6.035 0c-.687 0-1.289.505-1.289 1.153V18h.839V5.866c0-.318.28-.42.455-.42.184 0 .468.128.468.518v7.975h.838V5.964c0-.649-.642-1.251-1.311-1.251zm3.978 0c-.247 0-.495.019-.734.049-.33.083-.16.461.133.461.02 0 .04-.001.06-.005.62.071 1.382.11 1.85.462.62.676.342 2.082.414 2.75.005.036.007 2.696.007 4.045a4.536 4.536 0 0 0-2.821-.347c-.326.171.056.39.312.39a.28.28 0 0 0 .084-.01c.905.099 1.935.341 2.394 1.183.046.153.017.205-.052.205-.152 0-.502-.253-.699-.253-.01 0-.02 0-.03.002a5.562 5.562 0 0 0-1.166-.124c-.287 0-.573.023-.847.07-.31.205.07.394.323.394a.393.393 0 0 0 .077-.007c.924.111 1.946.362 2.394 1.205.005.938 0 1.557.025 2.42-.01.265.162.397.337.397.173 0 .349-.13.35-.388-.007-.85-.067-1.595.044-2.42.225-.924 1.829-1.066 2.825-1.294.218-.256-.21-.35-.486-.35a.902.902 0 0 0-.11.005 5.037 5.037 0 0 0-.386-.014c-.65 0-1.307.129-1.887.428-.024-.558.525-.878.918-1.102.62-.267 1.303-.293 1.951-.436.231-.201-.133-.37-.385-.37a.428.428 0 0 0-.092.009 4.995 4.995 0 0 0-.478-.023c-.666 0-1.332.136-1.93.43.012-2.105.047-4.142-.014-6.133-.048-.615-.403-1.18-1-1.364-.428-.195-.905-.265-1.38-.265z"/></svg>