<svg xmlns="http://www.w3.org/2000/svg" width="184.198" height="18"><path d="M3.73.474c.693 0 1.247.2 1.634.479.006.053.02.107.009.16-.05.248-.195.477-.396.63-.316.207-.697.267-1.057.356-.09.01-.019.031.031.04.23.04.707.099.971.099l.052-.001c.278-.032.54-.148.766-.311.079-.067.147-.15.205-.236.147.346.227.713.26.917.018.11.096.2.202.233 1.139.349 2.038 1.91 2.88 2.949 1.729 2.137 3.199 4.526 4.892 6.76-.937-.456-1.87-.916-2.81-1.374-1.92-1.01-3.92-1.816-5.604-3.09l-.008-.008c-.97-.808-1.963-1.66-2.339-2.793-.148-.92 1.757-2.577 1.542-2.646a.207.207 0 0 0-.064-.01c-.458 0-1.753 1.128-2.019 2.202-.003-.014-.01-.03-.014-.045-.073-.356-.154-1.256.068-1.98a.29.29 0 0 0 .01-.103 1.968 1.968 0 0 0-.123-.634c-.063-.17-.139-.344-.26-.765-.031-.108-.142-.328-.208-.345.186-.138.375-.28.645-.375a.434.434 0 0 0-.132.314c0 .23.164.415.365.415.2 0 .364-.186.364-.415V.894a.411.411 0 0 0-.255-.39c.053-.007.096-.019.154-.022.081-.006.16-.008.238-.008zm.67 7.763c.065.065.135.124.202.187.214.78.412 1.64.692 2.305.483 1.145 1.216 2.141 1.84 3.154a1.814 1.814 0 0 0-.385.27 6.831 6.831 0 0 0-.199.193 2.61 2.61 0 0 0-1.186-.897c.045-.723-.108-1.712-.34-2.787A34.903 34.903 0 0 0 4.4 8.237zm1.006.908c1.149.945 2.428 1.738 3.676 2.54-.018.91-.018 1.778.084 2.675a3.411 3.411 0 0 0-1.437-.736c-.02 0-.037.012-.057.012-.649-1.063-1.383-2.06-1.837-3.134-.156-.37-.293-.85-.429-1.357zm.407 5.254a2.5 2.5 0 0 1 .44.541.3.3 0 0 0 .257.14.29.29 0 0 0 .17-.053c.215-.156.347-.324.476-.446.047-.045.097-.08.148-.117l.149 2.722c-.213-.014-.435-.035-.637-.035-.264 0-.495.036-.633.172-.169-.134-.497-.164-.89-.164-.102 0-.207.002-.316.004l.836-2.764zM6.97 9.574c1.354.787 2.784 1.414 4.135 2.125a.244.244 0 0 0 .006.003c1.295.631 2.586 1.28 3.894 1.904.984 1.189 2.052 2.295 3.078 3.42l-2.15.362-4.267-4.635a.288.288 0 0 0-.037-.036c-1.499-1.137-3.152-2.082-4.66-3.143zM3.796 0c-.135 0-.273.005-.411.013C2.3.083 1.512.54 1.243 1.157c-.04.093-.146.314-.007.314a2.35 2.35 0 0 1 .341-.028c.418 0 .38.172.47.194.09.282.29.846.303 1.068-.244.86-.153 1.763-.064 2.198.15.732.63 1.584 1.261 2.38a.285.285 0 0 0 0 .166 35.3 35.3 0 0 1 .903 3.336c.251 1.168.393 2.277.317 2.823a.294.294 0 0 0 .221.328c.045.011.084.031.127.045l-.928 3.079a2.847 2.847 0 0 0-.593-.055c-.381 0-.756.05-1.064.05-.125 0-.24-.008-.34-.032a.546.546 0 0 0-.125-.012c-.436 0-1.428.306-1.34.879.15-.128.257-.159.375-.159.11 0 .23.027.405.027h.027c.254-.004.697-.083 1.053-.083.18 0 .338.02.438.08.236-.01.45-.013.649-.013.85 0 1.447.07 2.5.075a89.565 89.565 0 0 0 2.974-.079c.45.003.697.054.922.054h.04c.134-.004.265-.057.48-.057.123 0 .273.017.468.07-.25-.341-.877-.685-1.33-.685a.591.591 0 0 0-.302.071 5.081 5.081 0 0 0-.508-.022c-.22 0-.448.01-.678.02l-.157-2.83c.487.203.857.517 1.281 1.021a.295.295 0 0 0 .513-.246c-.192-1.039-.213-2.019-.202-3.06.54.354 1.072.713 1.576 1.094l4.36 4.738a.29.29 0 0 0 .263.09c.95-.159 1.9-.315 2.849-.474a.294.294 0 0 0 .23-.193.298.298 0 0 0-.06-.297c-.741-.83-1.508-1.631-2.25-2.445 1.269.78 2.875 1.755 3.08 1.755.022 0 .027-.013.012-.04-.094-.163-.9-.755-1.775-1.373.14.058.276.12.415.177l.017.01c.103.035.16.059.27.062a.286.286 0 0 0 .108-.016.317.317 0 0 0 .188-.152.32.32 0 0 0 .023-.238c-.017-.05-.038-.077-.054-.098-.061-.085-.103-.109-.162-.154a4.553 4.553 0 0 0-.205-.149c-.153-.105-.336-.223-.493-.328a4.992 4.992 0 0 1-.328-.233.307.307 0 0 0-.028-.025l-3.892-2.736c-.008-.006-.02-.001-.028-.006-1.333-1.869-2.588-3.825-4.046-5.627C9 4.496 8.145 2.888 6.758 2.352 6.69 1.956 6.54 1.225 6.003.703 5.547.26 4.888.056 4.147.011A5.728 5.728 0 0 0 3.796 0zm13.74 2.229c-.478 0-.799.277-.793.718.007.478.328.755.793.755.466 0 .744-.278.737-.755-.006-.442-.283-.718-.737-.718zm.055-1.594c.315 0 .63.066.946.196.606.25 1.015.685 1.285 1.275.274.601.255 1.21 0 1.813-.255.6-.69.995-1.285 1.247a2.343 2.343 0 0 1-.923.189 2.74 2.74 0 0 1-.975-.19c-.603-.229-1.003-.672-1.274-1.246a2.13 2.13 0 0 1-.19-.916c0-.634.277-1.196.7-1.652.208-.226.467-.398.764-.52.32-.13.636-.196.951-.196zM17.516 0c-.833 0-1.488.289-2.076.878-.602.603-.857 1.26-.869 2.106-.006.49.093.921.292 1.313.158.773.167 2.065-.043 2.065-.366 0-.156-.97-.174-1.274-.03-.515-.335-.954-.696-1.302-.084-.08-.175-.17-.296-.183a3.318 3.318 0 0 0-.349-.023c-.136 0-.27.015-.396.06-.089.033-.092.16-.063.242.03.085.088.175.186.187.025.003.05.004.074.004.12 0 .24-.03.36-.03h.015c.05 0 .107.004.143.04-.081.152-.193.3-.21.478a.465.465 0 0 0 .016.208c.236.652.38 2.15 1.357 2.15.185 0 .274-.04.333-.094.434-.403.44-1.086.414-1.652.574.54 1.221.765 2.021.776h.047c.819 0 1.472-.303 2.06-.868.159-.154.294-.311.406-.476.027.56.054 1.124.26 1.65.161.415.522.717.91.922.03.016.051.023.066.023.048 0 .019-.074-.036-.127a2.354 2.354 0 0 1-.574-.87c-.208-.57-.187-1.184-.174-1.78.008-.364.024-.73.003-1.093h-.003c.012-.112.018-.227.02-.346.01-.853-.287-1.503-.879-2.106-.6-.61-1.255-.869-2.106-.878h-.039zm8.248 3.383q-.542 0-.628.418v.025q.062.11.259.11.566-.245.566-.455v-.024q0-.05-.197-.074zm1.97-.763q-.086.48-.85 1.034l.272.11.369-.135.185.123q1.415.677 3.755.714l3.669.037.05-.001q.626 0 .608.919-.018.954-.646 1.914-.394 0-.8-.302-.406-.301-.665-.708-.259-.406-.665-1.058.123 1.292.739 2.031-.751 0-1.336.142-.292.07-.488.07-.195 0-.294-.07-.122-.088-.609-.088-.296 0-.727.032-.332.025-.607.025-.668 0-1-.148-.307-.258-.387-.905-.08-.646.363-1.791-.911.652-.911 1.982v.443q-.456-.468-.714-1.034Q26.54 4.7 25.665 4.7q-.332 0-1.28.419-.32-.136-.258-.431l.615-.825q.444-.751.64-.837.1-.185.96-.185.37.099.37.271 0 .234-.246.468.468-.099.677-.554 0-.111.591-.406zm.53-2.62q-.06 0-.136.096-.936 1.49-1.699 2.068-.295.259-.8.27-.246 0-.751-.369-.751-.726-1.047-1.23-.332-.592-.43-.653-.05 0-.075.123 0 .702 1.429 2.598-.271.394-.505.898-.234.505-.554.77-.32.265.061.523 0 .32.53.517.43-.123 1.317-.381.53 0 .727.443.652.985.652 2.056.074 1.428-.985 2.733-.332.222-.332.616 0 .16.406.16.665 0 .665-.16l-.05-.332q0-.173.26-.259v-.025q0-.234.836-2.351.382 0 .604.37.283.935.283 1.55 0 .136-.172.58-.21.16-.259.578h.985l-.074-.308q-.05-.185.136-.32l-.087-.456q-.16-1.736-.16-2.043v-.025q.973-.234 1.496-.234t.807.19q.112.077.315.077.308 0 .824-.175.558-.189.857-.189.159 0 .244.054.247.154.247.523 0 1.354-.69 2.302-.221.222-.332.616h.85q.221-.074.098-.37.024-.32.295-.406 0-1.12.985-2.216.69.382.702 1.182 0 .308-.123.837l-.148.407q-.135.16-.246.603h.813q.147-.062.184-.135l-.123-.394q-.061-.173.173-.308-.124-.653.16-.985-.58-1.354-.58-2.13.309-1.268.395-2.376.148.775.037 1.859-.111 1.083.37 2.24.093.196.17.196.054 0 .1-.097.123-.702.05-3.878-.1-.394-.21-.604-.394-.603-.677-.628h-3.977q-2.943 0-4.359-.837.234-.418.259-.572.025-.154 0-.376-.59.173-.886.456l-.247-.185q.259-.16.825-1.034.567-.874.665-1.367Q28.32 0 28.265 0zm6.526 13.464c.65.028 1.006.042 1.16.042h.07l-.084 3.397a4.983 4.983 0 0 1-1.293-.769l.147-2.67zm-9.477-.845c-.217.042-.503.174-.468.433v1.894a36.22 36.22 0 0 0-.979-.042c0 .238.196.56.804.56.007.537.105 1.194.203 1.53l.084.88c0 .098.167.126.349.126.217 0 .454-.042.454-.042l-.035-.88c3.453.027 10.036.202 10.365.202.167 0 .28-.182.28-.433l.083-3.795-2.076-.021-.167 2.956c-1.503.007-4.103.252-5.87.252-.56 0-1.042-.021-1.37-.091-.07-.077-.72-1.02-1.133-1.125a1.813 1.813 0 0 0-.244-.028c-.07-.573-.14-1.146-.203-1.712.126-.161.412-.12.49-.336.076-.105.027-.28-.12-.286-.084-.035-.314-.042-.412-.042zM46.857.364q.17 0 .279.206.168.27-.252.454-.404.202-.27.69l.387 1.666q-.403.05-.706.403V1.697q0-1.06.286-1.228.154-.105.276-.105zm-.95 3.779v.626l-1.379-.144q.034-.169.522-.345.355-.129.858-.137zm.605.038q.607.125.91.747l-1.094-.115v-.239q0-.118.152-.353l.032-.04zm1.8.696q-.09 0-.268.303.438-.152.32-.27-.021-.033-.051-.033zm-3.868.875q-.05.1-.042.16.008.059.092.092-.1 0-.185-.05.017-.101.135-.202zm.151-.034q.152.017.27.084-.068.118-.22.202.068-.084.06-.168-.009-.084-.11-.118zm-.067-.067q-.235 0-.32.353.152.101.37.101.22 0 .37-.252h.405v-.135l-.404.034q-.185-.101-.42-.101zm-4.055-.454q1.01 0 0 1.867-1.009-1.867 0-1.867zm7.859-.427q.065 0 .116.057.185.218-.32.454.522.79.539 1.884l-.135.017q0-1.11-.437-1.834l-.034.017q.32.707.337 2.339l-.152.016q-.1-1.632-.185-2.019l-.151-.555q.255-.376.422-.376zm-3.571.524q.164 0 .306.046.336.11.336.462h.236q.05-.32.201-.32.152 0 .05.32l-.47.74v1.582l-.05.017q-.068-.118-.16-.303-.093-.185-.127-.488h-.504q-.286 0-.286-.134 0-.253.269-.286 0-.135-.084-.135l-.337-.017q.101-.235-.202-.303 0-.134.27-.605v-.286l.05.067q.219-.101.336-.118.135 0 .404.118h.303v-.118H45q-.235-.151-.404-.151-.185 0-.387.151 0-.134.05-.151.274-.088.503-.088zm-.367-.417l1.514.162v.14h.42v-.095l1.212.13q.017.084.168.555.219.656.185 4.626l-2.12.017V6.593q.118-.168.303-.471.185-.303.177-.648-.007-.288-.28-.288-.053 0-.116.01-.269 0-.336.337-.017-.269-.303-.395-.13-.058-.337-.058-.247 0-.605.083.017-.168.118-.286zm-3.942 5.425q.676 0 .812.464h-.64q-.52-.05-.52-.438.188-.026.348-.026zm4.968-1.454v1.918h1.817q-.017 1.043-.194 2.506-.176 1.464-.445 2.482-.27 1.018.353 1.657h-4.963q.168-.185.227-.622.059-.438-.379-1.48l-1.262-3.82q.01-.558.3-.558.182 0 .474.222l1.716 2.54.64.808q.168.117.299.117.262 0 .374-.47.605-1.38.454-3.382-.589-.623.589-1.918zM46.874 0q-.227 0-.512.183-.454.303-.454 1.783v1.83q-.466.024-.791.097-.488.11-.8.47-.31.363-.31 1.002-.068.27-.017.505-.286.504-.286.69 0 .1.252.1l-.05.152q.033.084.1.1-.05.068-.033.152l.118.05q-.101.455.387.455h.353q.034.32.387.858-.017.034-.328.42-.311.388-.614.934-.303.547.134 1.069.118 1.699-.521 3.146l-2.221-3.23q-.247-.808-.866-.808h-.026V7.603h1.195v-.404h-1.195q1.212-2.339-.303-2.339-1.497 0-.302 2.339h-1.178v.404h1.16v2.355q-.941 0-.184 1.195 1.783 5.35 1.733 5.703-.05.37-.497.64-.446.268-.227.504h6.696q.337-.151 0-.471-.891-1.06-.572-2.036.32-.976.555-4.727h.623v-1.11q0-1.01-.017-1.734.135-.017.303-.084l-.034-.505.303-.016q0-1.245-.538-1.969.589-.235.269-.606-.125-.15-.26-.15-.21 0-.447.37-.438-.83-.976-1.075.226-.127.539-.221l-.471-2.002q-.067-.236.286-.455.47-.336.185-.807Q47.21 0 46.874 0zm5.504 2.077l3.648 3.209q-.77 1.187-2.044 2.395-1.209-2.857-1.604-5.604zM51.407.495q-.704 0-.546.967.682.33.572.747-.11.418.088 1.385.197.967 1.582 4.593-.42 1.431.489 1.431.04 0 .082-.003 2.462 4.528 5.429 7.89h.527l-.132-1.472q-2.373-2.22-5.076-7.187.79-1.67 2.22-2.923l4.373 3.934q.33.148.555.148.61 0 .434-1.093l-4.396-3.758q.018-.999-.832-.999-.198 0-.442.054L52.378.759q-.603-.264-.971-.264zm14.711.629q2.015.293 2.106 1.842v11.177q-.941-1.124-3.381-1.58l1.275-11.44zM65.552 0l-1.509 13.363q3.361.385 4.181 2.4V18h1.002V2.966q0-2.51-3.674-2.966zm7.75 1.124q2.014.293 2.106 1.842v11.177q-.942-1.124-3.382-1.58l1.276-11.44zM72.735 0l-1.509 13.363q3.362.385 4.182 2.4V18h1.002V2.966q0-2.51-3.675-2.966zM96.39.911q-2.826 3.84-8.131 3.944-5.27-.104-8.096-3.944zM78.41 0q2.894 5.79 9.849 5.812Q95.248 5.79 98.142 0zm18.341 8.116q.397 0 .397.415v3.19H95.94l.396-3.36q.019-.245.415-.245zm.02-.51q-.963 0-1.02.548-.396 3.567-.85 3.586l-8.758.321-.906-.038q-1.02-1.076-1.812-1.076l-.585-.037q-1.605.302-1.926.302-.226 0-.226.302 0 .415.642.415 1.102-.176 1.69-.176.107 0 .197.006.321 0 .529.264-.368.456-1.648.456-.098 0-.202-.003-1.453-.037-2.567-.377-.548 0-.548.642.057.585 4.097.604l1.793-.19L94.9 13.1l2.87.038V8.531q-.02-.925-1-.925zM80.83 15.138L78.41 18h1.18l1.24-1.478L82.082 18l1.216-1.478L84.55 18l1.24-1.478L87.042 18l1.24-1.478L89.534 18l1.216-1.478L92.002 18l1.252-1.478L94.47 18l1.252-1.478L96.962 18h1.18l-2.42-2.862-1.252 1.384-1.216-1.384-1.252 1.384-1.252-1.384-1.216 1.384-1.252-1.384-1.24 1.384-1.252-1.384-1.24 1.384-1.252-1.384-1.216 1.384-1.252-1.384zM108.966.62q2.198 0 4.828 1.445l-.648 1.042q-1.438-.83-2.734-1.144-.72-.167-1.413-.167-.604 0-1.188.127-.962.202-2.34 1.397l-.85-.921Q106.528.62 108.966.62zm-1.905 2.285q-.08.142-.152.293-.182.436-.182.932 0 .466.182.88.152.355.385.649-1.65-.314-2.986-.446.83-.516 1.306-1.124.486-.607 1.447-1.184zM111 2.834q.486.03 1.68.75 1.195.718 2.45 1.194-.9.06-2.004.395-1.104.334-2.329.486.203-.213.385-.638.192-.425.192-.891 0-.496-.182-.932-.091-.192-.192-.364zm-1.942-.406q.316 0 .605.112.314.132.547.345.233.222.375.516.141.314.151.658.01.344-.121.658-.132.314-.344.547-.213.223-.537.364-.293.132-.638.142h-.049q-.317 0-.609-.121-.314-.122-.536-.345-.233-.212-.365-.516-.142-.304-.162-.638 0-.354.122-.658.121-.304.344-.547.223-.232.516-.374.304-.132.648-.142h.053zM108.867 0q-2.939 0-5.187 2.318l.02.02h-.02l1.296 1.438-.152.151q-.891.993-1.873 1.104l-.02.628q2.227.202 4.383.587.8.142 1.675.142 1.497 0 3.215-.416 2.734-.668 3.473-.8h1.205v-.789h-1.256q-.729-.253-1.913-.921l.941-1.62Q111.486 0 108.867 0zm-3.955 13.14q-1.948.045-3.225 1.411-1.41 1.545-1.545 3.09 0 .359.403.359h18.722q.403 0 .403-.425 0-.426-.403-.426H101.15q1.12-2.866 3.36-3.18h14.757q.403 0 .403-.426 0-.403-.403-.403zM123.317 0c-.335 0-.67.026-.994.066-.448.113-.218.626.18.626a.476.476 0 0 0 .081-.008c.84.097 1.872.15 2.506.626.841.916.463 2.821.561 3.725.007.05.01 3.653.01 5.48a6.145 6.145 0 0 0-2.634-.586 6.04 6.04 0 0 0-1.188.117c-.441.231.077.528.423.528.04 0 .08-.004.114-.013 1.226.133 2.62.461 3.243 1.602.061.206.023.277-.07.277-.207 0-.68-.342-.947-.342-.014 0-.028 0-.04.003a7.535 7.535 0 0 0-1.58-.169 6.8 6.8 0 0 0-1.149.095c-.42.278.096.534.438.534a.532.532 0 0 0 .105-.01c1.251.151 2.636.49 3.243 1.633.007 1.27 0 2.11.034 3.278-.015.36.219.538.456.538.235 0 .473-.176.474-.526-.009-1.15-.09-2.161.06-3.277.304-1.253 2.477-1.445 3.827-1.754.295-.347-.285-.475-.658-.475-.056 0-.107.003-.15.008a6.823 6.823 0 0 0-.522-.02c-.882 0-1.771.175-2.557.58-.032-.755.711-1.19 1.244-1.493.84-.361 1.765-.397 2.643-.59.313-.273-.18-.501-.521-.501a.58.58 0 0 0-.125.012 6.767 6.767 0 0 0-.648-.031c-.902 0-1.804.183-2.614.582.016-2.851.063-5.61-.02-8.308-.065-.834-.545-1.6-1.354-1.849-.58-.264-1.227-.358-1.87-.358zm17.63.601c1.074 0 2.418.552 3.068 1.202.57.57.644 1.324.665 2.025h-7.435c.02-.7.095-1.455.664-2.025.65-.65 1.964-1.202 3.038-1.202zm0-.601c-1.275 0-2.645.589-3.449 1.392-.824.824-.917 1.91-.917 2.72v.317h8.732v-.316c0-.812-.062-1.897-.886-2.72C143.623.588 142.22 0 140.947 0zm-6.323 15.57L132.569 18h1.002l1.053-1.255L135.687 18l1.033-1.255L137.783 18l1.053-1.255L139.899 18l1.053-1.255L142.015 18l1.032-1.255L144.11 18l1.063-1.255L146.206 18l1.063-1.255L148.322 18h1.002l-2.055-2.43-1.063 1.175-1.033-1.175-1.063 1.175-1.063-1.175-1.032 1.175-1.063-1.175-1.053 1.175-1.063-1.175-1.053 1.175-1.063-1.175-1.033 1.175-1.063-1.175zm22.478-13.035q-.166 0-.292.073-.23.133-.23.254.331-.11.587-.11.193 0 .343.062.35.144.93.193l-.146-.121q-.53-.193-.893-.302-.163-.049-.299-.049zm.227.52l.41.169q-.217.097-.435.12.17-.12.025-.289zm-.363 0q-.096.169.025.314-.17-.048-.29-.097.048-.12.265-.217zm.1-.163q-.308 0-.438.235l-.217.145v.121l.193.024q.177.108.43.108.369 0 .898-.229l.507.073.024-.193-.555-.024q-.52-.26-.842-.26zm1.523-1.838q.563 0 1.166.214.881.314 1.304 1.244.422.93-.12 1.98-.398.767-.782.767-.142 0-.281-.103-.52-.387-.52-.942.484-.435.604-.845.121-.41-.012-.749-.133-.338-.507-.398-.064-.01-.13-.01-.31 0-.63.24-.604-.339-1.594-.58.193-.628.99-.773.252-.045.512-.045zm-1.84 1.204q.942.17 1.932.676l.193-.048q.203-.188.356-.188.083 0 .15.055.194.157.097.471-.096.314-.748.845.217 1.28 1.207 1.738-.302.688-.93.688-.276 0-.615-.132-.073-.894-.628-1.4.821-.435.894-1.57h-.121q-.12 1.014-.737 1.328-.615.314-1.002.362-.108.018-.187.018-.235 0-.199-.163.048-.217-.072-.362.126.007.225.007.542 0 .246-.224-.241-.183-.385-.183-.065 0-.11.038.096-.362-.387-.362.556-.894.821-1.594zm4.008 4.008q.7 1.256.893 2.704l-.483.097q-.048-1.4-.41-2.8zm-.531.048q.531 1.135.531 4.733 0 3.597-.7 5.987l.603.483h-8.474v-.048l2.294-.773q-.821-3.621-1.835-5.311t-.447-2.077q.142-.096.292-.096.45 0 .976.869l3.356 4.49h.434q.459-5.552 1.038-7.701.406.164.751.164.723 0 1.18-.72zM156.446 0q-.047 0-.095.013-.181.048-.326.133-.145.084-.097.193.04.089.2.089.036 0 .078-.005.033-.003.056-.003.137 0-.08.124-.254.145-.181.724.072.58.434.749-.193.797-.664 1.473-.454.652.205.652h.049q-.17.24.048.29-.193.12-.048.216.145.097.096.46-.29 1.713-.772 2.377-.397.545-.736.545-.074 0-.145-.026-.177-.064-.293-.064-.143 0-.19.1-.085.182.253.363.118.063.283.063.308 0 .78-.22.724-.338 1.593-2.921l.41-.121q.507.386.628 1.207-.724 2.487-1.11 7.364l-3.284-4.612q-.604-.526-1.064-.526-.257 0-.47.164-.59.459-.675.785-.085.326.893 2.137.978 1.81 1.678 4.635l-2.245.773.12.869h9.924l-1.063-1.183q.628-2.028.628-7.219l.87-.12q0-2.005-1.256-3.96 1.183-1.835.676-3.055-.507-1.219-1.437-1.569-.817-.308-1.69-.308-.12 0-.241.006-1.002.049-1.558 1.063-.217-.338.06-.604.278-.266.11-.628.048-.193-.11-.326-.114-.097-.242-.097zm11.197.591c.673 0 1.128.1 1.508.529.521.52.621 1.29.572 1.992-.01 1.612-.294 3.21-.766 4.75-.37 1.266-.811 2.51-1.215 3.766h-.195c-.018-.062-1.926-5.289-2.01-8-.016-.79-.13-1.684.411-2.341.335-.459 1.01-.696 1.695-.696zm.416 11.625v.684c0 .124.077.234.194.276.171.062.328.172.49.304h-2.391c.161-.132.318-.242.49-.304a.294.294 0 0 0 .193-.276v-.684zm1.644 2.477c.06.121.07.367.054.538h-4.376a2.059 2.059 0 0 1-.023-.538zm-.465 1.819c-.318.471-.951.9-1.619.9-.72 0-1.422-.417-1.76-.9zM167.674 0c-1.275 0-2.737.735-2.737 2.246-.073.922.018 1.85.114 2.768.29 2.285 1.151 4.436 1.86 6.614h-.017c-.095 0-.446.01-.446.294v.784c-.402.198-.682.5-.955.723h-.876a.294.294 0 0 0-.294.294v.792c0 .157.184.287.341.293.071.133.083.252.102.375l-.33-.01h-.004a.307.307 0 0 0-.299.294v.76c0 .163.131.295.294.295.204 0 .674.01.756.01h.011c.368.843 1.355 1.468 2.425 1.468 1.041 0 1.945-.67 2.284-1.478h.764c.275 0 .294-.192.294-.294v-.761c0-.128.056-.285-.59-.285a1.48 1.48 0 0 0-.016-.368c.284-.017.415-.142.415-.3v-.791a.294.294 0 0 0-.293-.294h-.876c-.273-.222-.552-.525-.955-.723v-.784c0-.16-.128-.29-.287-.293.007-.037 1.84-5.082 1.93-7.732.07-.998.169-2.12-.499-2.956-.416-.573-.854-.941-2.116-.941zm14.907.753q.073 0 .152.06.304.197-.268.626-.607.964-.607 2.322-.179.179-.465.25h-1.786q.447-.964 1.188-1.375.741-.411 1.42-1.394.159-.489.366-.489zm-3.564 5.045q-.053.09 0 .16-.089-.017-.16-.035.053-.09.16-.125zm.179.018l.232.125q-.125.018-.232.036.09-.054 0-.161zm-.138-.112q-.111 0-.201.058l-.125.143v.125l.071-.036q.153.086.322.086.187 0 .393-.103l.25.035-.018-.107-.232-.018q-.263-.183-.46-.183zm1.57-.036q.065 0 .06.076-.01.143-.116.277-.108.134-.197.188-.025.015-.036.015-.028 0 .036-.096.067-.1.029-.1-.013 0-.038.011-.024.011-.04.011-.047 0-.013-.1.044-.134.151-.224.109-.058.165-.058zm.05-.158q-.046 0-.106.02-.161.054-.286.259-.125.205-.072.313-.125.071-.143.187-.017.116.099.161.018.007.04.007.112 0 .3-.195.222-.232.276-.42.054-.187 0-.276-.033-.056-.109-.056zm-1.886.94h-.007q-.036.009-.018.063.018.053-.027.071-.008.004-.018.004-.037 0-.08-.058-.053-.071-.09-.071-.035.018-.053.036-.018.018 0 .071.02-.02.043-.02.038 0 .082.056.048.06.1.06.025 0 .052-.015.08-.045.063-.126-.016-.072-.047-.072zm-.237.36q.022 0 .051.006.09.018.206.027.116.009.08.009l-.34.036q-.07-.018-.053-.054.012-.024.056-.024zm.32.078q-.018.035-.099.08-.08.045-.152.063-.035 0-.053-.01-.018-.008.018-.08l.285-.053zm3.34-2.52q-.464 1.501-1.483 2.698l.036-.446q.643-.858.349-1.26-.137-.186-.353-.186-.249 0-.603.249-.274-.29-1.01-.29-.082 0-.17.004-.07-.447-.124-.768zm-3.099.997q1.044 0 .83.576l.143.036q.258-.597.633-.597.04 0 .082.007.5.16-.286 1.108-.16.393-.062.866.098.474.276.706-.352.166-.614.166-.215 0-.368-.113.018 0 0-.42-.014-.318-.32-.318-.098 0-.225.033-.122.03-.211.03-.3 0-.245-.343.322-.196.215-.268-.107-.071-.375-.09.017-.142-.233-.231.197-.59.43-.822.124-.068.26-.068.116 0 .24.05.267.107.553.143l-.036-.107q-.16-.018-.428-.143-.157-.073-.313-.073-.112 0-.223.037l.09-.16q.098-.005.187-.005zm-4.315 5.096q.375.125.125.482l-.59.072q-.41-.143-.196-.554zm6.146-1.93q.357.465.348 1.054-.009.59 0 2.636.01 2.045-.455 4.814l.321.429h-6.431l1.733-.536q-.661-2.662-1.43-3.895-.768-1.232-.348-1.527.107-.075.225-.075.341 0 .767.638l2.59 3.287h.643q-.036-5.002.697-6.789v.018q.263.14.567.14.358 0 .773-.194zM179.87 0q-.252 0-.523.152-.51.286-.5 1.135.009.849.866 1.652-.447.483-.643 1.072h-.733q.18.697.242 1.01.062.312.026.527-.196.268-.446.768-.125.286.009.33.134.045.205.117-.107.053-.071.107.035.053.125.071l.009-.003q.012 0-.054.066-.08.08.027.125t.071.223q-.035.179.09.25l-.34.661h.572l.197-.607h.303q.054.518-.196.947-.822 1.733-.804 5.842l-2.68-3.43q0-.983-1.018-.983V6.781q-.018-.769-.554-.804.143-.25.321-.43.179-.106.304-.339.037-.182-.134-.182-.08 0-.205.04-.322.25-.59.571-.393.357-.455.58l-.331 1.17q.01.29.092.29.065 0 .176-.182.071-.232.197-.58.125-.349.482-.528.304 0 .304.394v3.251q-1.108 0-.483.447-.25.34.286.964-.25.75.465 1.957.714 1.206 1.232 3.278l-1.536.429.09.875 7.985.018-.732-1.286q.285-2.644.276-4.895-.008-2.251-.035-2.59-.027-.34-.438-.921-.41-.58-.482-.884.464.446.777.768.312.321.295 1.447h.625q0-1.286-.527-1.706-.527-.42-.849-.777.483-.68.715-1.09.25-.429 2.322-5.395h-.393q-1.16 2.608-1.465 2.84.036-1.161.43-1.643.535-.465.598-.787.062-.321-.313-.66-.318-.209-.551-.209-.148 0-.262.083-.295.215-.51.822-.553.822-1.089 1.117-.536.295-.625.384-.733-.679-.742-1.313-.009-.634.358-.813.163-.08.299-.08.17 0 .3.125.231.223.106.446-.062.112-.138.112-.076 0-.165-.112-.179-.223-.304-.223-.16.107-.063.384.099.277.456.277.607 0 .607-.527t-.437-.777Q180.09 0 179.87 0z"/></svg>