<svg xmlns="http://www.w3.org/2000/svg" width="76.809" height="18"><path d="M3.01.474c.693 0 1.247.2 1.634.479.006.053.02.107.009.16-.05.248-.195.477-.396.63-.316.207-.697.267-1.057.356-.09.01-.019.031.031.04.23.04.707.099.971.099l.052-.001c.278-.032.54-.148.766-.311.079-.067.147-.15.205-.236.147.346.227.713.26.917.018.11.096.2.202.233 1.139.349 2.038 1.91 2.88 2.949 1.729 2.137 3.199 4.526 4.892 6.76-.937-.456-1.87-.916-2.81-1.374-1.92-1.01-3.92-1.816-5.604-3.09l-.008-.008c-.97-.808-1.963-1.66-2.339-2.793-.148-.92 1.757-2.577 1.542-2.646a.207.207 0 0 0-.064-.01c-.458 0-1.753 1.128-2.019 2.202-.003-.014-.01-.03-.014-.045-.073-.356-.154-1.256.068-1.98a.29.29 0 0 0 .01-.103 1.968 1.968 0 0 0-.123-.634c-.063-.17-.139-.344-.26-.765-.031-.108-.142-.328-.208-.345.186-.138.375-.28.645-.375a.434.434 0 0 0-.132.314c0 .23.164.415.365.415.2 0 .364-.186.364-.415V.894a.411.411 0 0 0-.255-.39c.053-.007.096-.019.154-.022.081-.006.16-.008.238-.008zm.67 7.763c.065.065.135.124.202.187.214.78.412 1.64.692 2.305.483 1.145 1.216 2.141 1.84 3.154a1.814 1.814 0 0 0-.385.27 6.831 6.831 0 0 0-.199.193 2.61 2.61 0 0 0-1.186-.897c.045-.723-.108-1.712-.34-2.787a34.903 34.903 0 0 0-.624-2.425zm1.006.908c1.149.945 2.428 1.738 3.676 2.54-.018.91-.018 1.778.084 2.675a3.411 3.411 0 0 0-1.437-.736c-.02 0-.037.012-.057.012-.649-1.063-1.383-2.06-1.837-3.134-.156-.37-.293-.85-.429-1.357zm.407 5.254a2.5 2.5 0 0 1 .44.541.3.3 0 0 0 .257.14.29.29 0 0 0 .17-.053c.215-.156.347-.324.476-.446.047-.045.097-.08.148-.117l.149 2.722c-.213-.014-.435-.035-.637-.035-.264 0-.495.036-.633.172-.169-.134-.497-.164-.89-.164-.102 0-.207.002-.316.004l.836-2.764zM6.25 9.574c1.354.787 2.784 1.414 4.135 2.125a.244.244 0 0 0 .006.003c1.295.631 2.586 1.28 3.894 1.904.984 1.189 2.052 2.295 3.078 3.42l-2.15.362-4.267-4.635a.288.288 0 0 0-.037-.036c-1.499-1.137-3.152-2.082-4.66-3.143zM3.076 0c-.135 0-.273.005-.411.013C1.58.083.792.54.523 1.157c-.04.093-.146.314-.007.314a2.35 2.35 0 0 1 .341-.028c.418 0 .38.172.47.194.09.282.29.846.303 1.068-.244.86-.153 1.763-.064 2.198.15.732.63 1.584 1.261 2.38a.285.285 0 0 0 0 .166 35.3 35.3 0 0 1 .903 3.336c.251 1.168.393 2.277.317 2.823a.294.294 0 0 0 .221.328c.045.011.084.031.127.045l-.928 3.079a2.847 2.847 0 0 0-.593-.055c-.381 0-.756.05-1.064.05-.125 0-.24-.008-.34-.032a.546.546 0 0 0-.125-.012c-.436 0-1.428.306-1.34.879.15-.128.257-.159.375-.159.11 0 .23.027.405.027h.027c.254-.004.697-.083 1.053-.083.18 0 .338.02.438.08.236-.01.45-.013.649-.013.85 0 1.447.07 2.5.075a89.565 89.565 0 0 0 2.974-.079c.45.003.697.054.922.054h.04c.134-.004.265-.057.48-.057.123 0 .273.017.468.07-.25-.341-.877-.685-1.33-.685a.591.591 0 0 0-.302.071 5.081 5.081 0 0 0-.508-.022c-.22 0-.448.01-.678.02l-.157-2.83c.487.203.857.517 1.281 1.021a.295.295 0 0 0 .513-.246c-.192-1.039-.213-2.019-.202-3.06.54.354 1.072.713 1.576 1.094l4.36 4.738a.29.29 0 0 0 .263.09c.95-.159 1.9-.315 2.849-.474a.294.294 0 0 0 .23-.193.298.298 0 0 0-.06-.297c-.741-.83-1.508-1.631-2.25-2.445 1.269.78 2.875 1.755 3.08 1.755.022 0 .027-.013.012-.04-.094-.163-.9-.755-1.775-1.373.14.058.276.12.415.177l.017.01c.103.035.16.059.27.062a.286.286 0 0 0 .108-.016.317.317 0 0 0 .188-.152.32.32 0 0 0 .023-.238c-.017-.05-.038-.077-.054-.098-.061-.085-.103-.109-.162-.154a4.553 4.553 0 0 0-.205-.149c-.153-.105-.336-.223-.493-.328a4.992 4.992 0 0 1-.328-.233.307.307 0 0 0-.028-.025l-3.892-2.736c-.008-.006-.02-.001-.028-.006-1.333-1.869-2.588-3.825-4.046-5.627-.744-.92-1.598-2.528-2.985-3.064-.067-.396-.218-1.127-.755-1.649C4.827.26 4.168.056 3.427.011A5.728 5.728 0 0 0 3.076 0zM25.85 4.787q-.407 0-.472.314v.019q.047.083.194.083.425-.185.425-.342v-.018q0-.037-.148-.056zm1.477-.572q-.065.36-.637.775l.203.083.277-.101.138.092q1.062.508 2.817.536l2.752.027h.037q.47 0 .457.688-.014.716-.485 1.436-.296 0-.6-.226-.305-.226-.5-.53-.193-.306-.498-.795.093.97.554 1.524-.563 0-1.002.106-.219.053-.365.053-.147 0-.221-.053-.092-.066-.457-.066-.222 0-.545.024-.249.02-.455.02-.501 0-.75-.112-.23-.194-.29-.679-.06-.485.272-1.343-.684.489-.684 1.486v.333q-.341-.351-.535-.776-.379-.942-1.035-.942-.249 0-.96.314-.24-.101-.194-.323l.462-.619q.332-.563.48-.628.074-.138.72-.138.277.074.277.203 0 .175-.184.35.35-.073.508-.415 0-.083.443-.304zm.398-1.965q-.045 0-.103.072-.701 1.117-1.274 1.551-.222.194-.6.203-.185 0-.563-.277-.564-.545-.785-.923-.25-.444-.324-.49-.037 0-.055.093 0 .526 1.071 1.948-.203.296-.378.674-.176.379-.416.577-.24.199.046.393 0 .24.397.388l.988-.287q.397 0 .545.333.49.738.49 1.542.055 1.071-.74 2.05-.249.166-.249.461 0 .12.305.12.499 0 .499-.12l-.037-.249q0-.13.194-.194v-.018q0-.176.628-1.764.286 0 .452.277.213.702.213 1.164 0 .101-.13.434-.157.12-.194.434h.74l-.056-.231q-.037-.139.101-.24l-.064-.342q-.12-1.302-.12-1.533v-.018q.73-.176 1.122-.176.392 0 .604.143.085.057.237.057.23 0 .618-.13.419-.142.643-.142.119 0 .183.04.185.115.185.392 0 1.016-.517 1.727-.167.166-.25.462h.637q.167-.056.074-.277.019-.24.222-.305 0-.84.739-1.662.517.286.526.886 0 .231-.092.628l-.111.305q-.102.12-.185.453h.61q.11-.047.138-.102l-.092-.296q-.046-.129.13-.23-.093-.49.12-.74-.435-1.015-.435-1.597.231-.95.296-1.782.11.582.027 1.395-.083.812.277 1.68.07.146.129.146.04 0 .074-.072.093-.526.037-2.909-.073-.295-.157-.452-.295-.453-.507-.471h-2.983q-2.207 0-3.269-.628.176-.314.194-.43.018-.115 0-.281-.443.13-.665.342l-.185-.139q.194-.12.62-.776.424-.655.498-1.025-.031-.062-.073-.062zm4.893 10.098c.488.021.755.032.87.032h.053l-.063 2.547a3.738 3.738 0 0 1-.97-.576l.11-2.003zm-7.107-.634c-.163.031-.377.131-.351.325v1.42c-.315-.015-.64-.031-.734-.031 0 .178.147.42.603.42.005.403.078.896.152 1.147l.063.66c0 .074.125.095.262.095.162 0 .34-.031.34-.031l-.026-.66c2.59.02 7.527.151 7.773.151.126 0 .21-.136.21-.325l.063-2.846-1.557-.016-.126 2.217c-1.127.006-3.076.19-4.402.19-.42 0-.781-.017-1.028-.069-.052-.058-.54-.765-.849-.844a1.36 1.36 0 0 0-.183-.02c-.053-.43-.105-.86-.152-1.285.094-.12.309-.09.366-.252.058-.078.021-.21-.089-.215-.063-.026-.235-.031-.309-.031zm13.972-8.457q-.066.124-.149.273l-.14.819q0 .43.14.802.149.322.372.578-1.496-.272-2.695-.405.752-.446 1.182-.992.438-.546 1.29-1.075zm3.53-.066q.455.033 1.53.686 1.075.645 2.215 1.067-.835.05-1.818.355-.993.298-2.084.447.174-.207.347-.587.166-.38.166-.81 0-.439-.157-.819-.083-.182-.199-.339zm-1.74-.38q.286 0 .55.116.28.115.496.314.215.19.347.463.107.273.124.587.017.314-.1.587-.123.273-.313.488-.199.223-.472.347-.272.116-.587.124h-.04q-.284 0-.547-.108-.28-.115-.496-.306-.206-.19-.33-.463-.116-.272-.133-.595 0-.306.116-.579.108-.272.298-.487.198-.224.471-.331.273-.149.579-.157h.038zm-.045-.561q-.54 0-1.067.114-1.141.248-2.315 1.48-1.174 1.224-2.059 1.307l-.016.578q2.009.174 3.943.53.724.132 1.522.132 1.337 0 2.885-.372 2.464-.596 3.125-.72h1.092v-.71h-1.125q-.802-.273-2.15-1.084-1.339-.81-2.554-1.1-.65-.155-1.28-.155zm-3.916 11.678l-1.541 1.822h.752l.79-.942.797.942.774-.942.797.942.79-.942.797.942.79-.942.797.942.775-.942.797.942.797-.942.775.942.797-.942.79.942h.752l-1.542-1.822-.797.88-.775-.88-.797.88-.797-.88-.775.88-.797-.88-.79.88-.797-.88-.79.88-.797-.88-.774.88-.798-.88zM56.43 2.68q.387 0 .716.308.33.308.33.724 0 .387-.28.71-.279.322-.766.322-.459 0-.76-.337-.3-.337-.3-.695 0-.387.3-.71.301-.322.76-.322zm-1.276 2.91q-.086 0-.1.1 0 .085.1.085.086 0 .1-.086-.014-.1-.1-.1zm0-.044q.144 0 .144.143 0 .115-.144.158-.086-.014-.172-.086.043-.215.172-.215zm.371-.154q-.106 0-.227.01.129.073.057.187-.072-.114-.2-.114-.244 0-.244.3.143.1.129.187-.015.086-.043.114.1.1.186.516.057 0 .072-.043-.015-.444.028-.587.13-.258.359-.265h.02q.215 0 .345.15.136.158.093.358-.043.201-.616.445v.028q.889-.229.81-.795-.069-.491-.769-.491zm.389-.147q.559 0 .63.688.072.688-1.117.917.2.086.33.316.128.229.143.473-.06.018-.115.018-.118 0-.215-.083-.143-.122-.344-.609-.305-.832-.731-.832h-.157q.018-.108.081-.108.038 0 .09.037.033-.065.127-.065.07 0 .174.036-.2-.215-.2-.43l.024.002q.095 0 .133-.102.008.005.021.005.069 0 .302-.12.28-.143.824-.143zM50.65 6.423q.082 0 .184.048.322.15.222 1.24-.817-.732-.681-1.061.093-.227.275-.227zm4.755 1.488q.087 0 .194.071-.373.258-.344 1.305h-.187q-.014-.99.13-1.233.083-.143.207-.143zM56.73 5.36q.501.014 1.103 1.01t.602 2.917h-.43q-.014-1.52-1.318-1.52v1.52H56.4V7.15q.817-.616.33-1.791zm-.69 2.758q.035 0 .074.008v1.476h.888V8.126q.031-.006.06-.006.456 0 .456 1.482-.158 3.912-.545 4.916l.33.716H52.56l.99-.43q-.488-2.135-1.09-3.146-.602-1.01-.272-1.24.082-.057.17-.057.267 0 .59.516l1.977 2.666h.502l.114-3.941q0-1.484.5-1.484zm.389-5.868q-.674.014-1.082.466-.409.451-.409 1.01 0 .473.215.745.172.287.416.445l-.033-.001q-.23 0-.512.187-.315.215-.286.287-.041-.033-.087-.033-.034 0-.07.018-.087.043-.073.172-.415.143-.415.889.183-.092.266-.092.02 0 .035.006.286 0 .774 1.146-.1.086-.273.33-.172.243-.172.845v.932h.359q-.015.788-.1 3.21L52.99 10.09q-.416-.341-.657-.341-.083 0-.145.04l-.76-1.519q.53-.258 1.161-.3-.029-.388-.272-.689-.516.387-1.003.588.315-1.448-.337-1.734-.198-.087-.362-.087-.38 0-.584.46-.294.659.924 1.49-.544.258-1.117.258.014.401.286.716.387-.4 1.018-.602l.501 1.749q-.157.057-.2.358-.043.301.537 1.376.58 1.075.939 2.637l-1.046.587.071.674h6.134l-.502-1.232q.43-1.892.445-4.902l.788-.014q0-2.537-.702-3.633-.629-.981-.959-.981-.039 0-.073.014.817-.43.86-1.29 0-.616-.452-1.032-.451-.416-1.053-.43z"/><path d="M21.396.375v17.25m0-17.25h2.625m-2.625 17.25h2.625m0-17.25h34.788m-34.788 17.25h34.788m0-17.25h17.625m-17.625 17.25h17.625M60.571.375v17.25M64.096.375v17.25M65.859.375v17.25M67.621 2.1h8.813m-8.813 3.45h8.813M67.621 2.1v3.45m1.763-1.725h7.05m-8.813 3.45h8.813m-8.813 3.45h8.813m-8.813-3.45v3.45M69.384 9h7.05m-8.813 3.45h8.813m-8.813 3.45h8.813m-8.813-3.45v3.45m1.763-1.725h7.05" fill="none" stroke="#000"/></svg>