<svg xmlns="http://www.w3.org/2000/svg" width="71.833" height="18"><path d="M3.01.474c.693 0 1.247.2 1.634.479.006.053.02.107.009.16-.05.248-.195.477-.396.63-.316.207-.697.267-1.057.356-.09.01-.019.031.031.04.23.04.707.099.971.099l.052-.001c.278-.032.54-.148.766-.311.079-.067.147-.15.205-.236.147.346.227.713.26.917.018.11.096.2.202.233 1.139.349 2.038 1.91 2.88 2.949 1.729 2.137 3.199 4.526 4.892 6.76-.937-.456-1.87-.916-2.81-1.374-1.92-1.01-3.92-1.816-5.604-3.09l-.008-.008c-.97-.808-1.963-1.66-2.339-2.793-.148-.92 1.757-2.577 1.542-2.646a.207.207 0 0 0-.064-.01c-.458 0-1.753 1.128-2.019 2.202-.003-.014-.01-.03-.014-.045-.073-.356-.154-1.256.068-1.98a.29.29 0 0 0 .01-.103 1.968 1.968 0 0 0-.123-.634c-.063-.17-.139-.344-.26-.765-.031-.108-.142-.328-.208-.345.186-.138.375-.28.645-.375a.434.434 0 0 0-.132.314c0 .23.164.415.365.415.2 0 .364-.186.364-.415V.894a.411.411 0 0 0-.255-.39c.053-.007.096-.019.154-.022.081-.006.16-.008.238-.008zm.67 7.763c.065.065.135.124.202.187.214.78.412 1.64.692 2.305.483 1.145 1.216 2.141 1.84 3.154a1.814 1.814 0 0 0-.385.27 6.831 6.831 0 0 0-.199.193 2.61 2.61 0 0 0-1.186-.897c.045-.723-.108-1.712-.34-2.787a34.903 34.903 0 0 0-.624-2.425zm1.006.908c1.149.945 2.428 1.738 3.676 2.54-.018.91-.018 1.778.084 2.675a3.411 3.411 0 0 0-1.437-.736c-.02 0-.037.012-.057.012-.649-1.063-1.383-2.06-1.837-3.134-.156-.37-.293-.85-.429-1.357zm.407 5.254a2.5 2.5 0 0 1 .44.541.3.3 0 0 0 .257.14.29.29 0 0 0 .17-.053c.215-.156.347-.324.476-.446.047-.045.097-.08.148-.117l.149 2.722c-.213-.014-.435-.035-.637-.035-.264 0-.495.036-.633.172-.169-.134-.497-.164-.89-.164-.102 0-.207.002-.316.004l.836-2.764zM6.25 9.574c1.354.787 2.784 1.414 4.135 2.125a.244.244 0 0 0 .006.003c1.295.631 2.586 1.28 3.894 1.904.984 1.189 2.052 2.295 3.078 3.42l-2.15.362-4.267-4.635a.288.288 0 0 0-.037-.036c-1.499-1.137-3.152-2.082-4.66-3.143zM3.076 0c-.135 0-.273.005-.411.013C1.58.083.792.54.523 1.157c-.04.093-.146.314-.007.314a2.35 2.35 0 0 1 .341-.028c.418 0 .38.172.47.194.09.282.29.846.303 1.068-.244.86-.153 1.763-.064 2.198.15.732.63 1.584 1.261 2.38a.285.285 0 0 0 0 .166 35.3 35.3 0 0 1 .903 3.336c.251 1.168.393 2.277.317 2.823a.294.294 0 0 0 .221.328c.045.011.084.031.127.045l-.928 3.079a2.847 2.847 0 0 0-.593-.055c-.381 0-.756.05-1.064.05-.125 0-.24-.008-.34-.032a.546.546 0 0 0-.125-.012c-.436 0-1.428.306-1.34.879.15-.128.257-.159.375-.159.11 0 .23.027.405.027h.027c.254-.004.697-.083 1.053-.083.18 0 .338.02.438.08.236-.01.45-.013.649-.013.85 0 1.447.07 2.5.075a89.565 89.565 0 0 0 2.974-.079c.45.003.697.054.922.054h.04c.134-.004.265-.057.48-.057.123 0 .273.017.468.07-.25-.341-.877-.685-1.33-.685a.591.591 0 0 0-.302.071 5.081 5.081 0 0 0-.508-.022c-.22 0-.448.01-.678.02l-.157-2.83c.487.203.857.517 1.281 1.021a.295.295 0 0 0 .513-.246c-.192-1.039-.213-2.019-.202-3.06.54.354 1.072.713 1.576 1.094l4.36 4.738a.29.29 0 0 0 .263.09c.95-.159 1.9-.315 2.849-.474a.294.294 0 0 0 .23-.193.298.298 0 0 0-.06-.297c-.741-.83-1.508-1.631-2.25-2.445 1.269.78 2.875 1.755 3.08 1.755.022 0 .027-.013.012-.04-.094-.163-.9-.755-1.775-1.373.14.058.276.12.415.177l.017.01c.103.035.16.059.27.062a.286.286 0 0 0 .108-.016.317.317 0 0 0 .188-.152.32.32 0 0 0 .023-.238c-.017-.05-.038-.077-.054-.098-.061-.085-.103-.109-.162-.154a4.553 4.553 0 0 0-.205-.149c-.153-.105-.336-.223-.493-.328a4.992 4.992 0 0 1-.328-.233.307.307 0 0 0-.028-.025l-3.892-2.736c-.008-.006-.02-.001-.028-.006-1.333-1.869-2.588-3.825-4.046-5.627-.744-.92-1.598-2.528-2.985-3.064-.067-.396-.218-1.127-.755-1.649C4.827.26 4.168.056 3.427.011A5.728 5.728 0 0 0 3.076 0zM25.85 4.787q-.407 0-.472.314v.019q.047.083.194.083.425-.185.425-.342v-.018q0-.037-.148-.056zm1.477-.572q-.065.36-.637.775l.203.083.277-.101.138.092q1.062.508 2.817.536l2.752.027h.037q.47 0 .457.688-.014.716-.485 1.436-.296 0-.6-.226-.305-.226-.5-.53-.193-.306-.498-.795.093.97.554 1.524-.563 0-1.002.106-.219.053-.365.053-.147 0-.221-.053-.092-.066-.457-.066-.222 0-.545.024-.249.02-.455.02-.501 0-.75-.112-.23-.194-.29-.679-.06-.485.272-1.343-.684.489-.684 1.486v.333q-.341-.351-.535-.776-.379-.942-1.035-.942-.249 0-.96.314-.24-.101-.194-.323l.462-.619q.332-.563.48-.628.074-.138.72-.138.277.074.277.203 0 .175-.184.35.35-.073.508-.415 0-.083.443-.304zm.398-1.965q-.045 0-.103.072-.701 1.117-1.274 1.551-.222.194-.6.203-.185 0-.563-.277-.564-.545-.785-.923-.25-.444-.324-.49-.037 0-.055.093 0 .526 1.071 1.948-.203.296-.378.674-.176.379-.416.577-.24.199.046.393 0 .24.397.388l.988-.287q.397 0 .545.333.49.738.49 1.542.055 1.071-.74 2.05-.249.166-.249.461 0 .12.305.12.499 0 .499-.12l-.037-.249q0-.13.194-.194v-.018q0-.176.628-1.764.286 0 .452.277.213.702.213 1.164 0 .101-.13.434-.157.12-.194.434h.74l-.056-.231q-.037-.139.101-.24l-.064-.342q-.12-1.302-.12-1.533v-.018q.73-.176 1.122-.176.392 0 .604.143.085.057.237.057.23 0 .618-.13.419-.142.643-.142.119 0 .183.04.185.115.185.392 0 1.016-.517 1.727-.167.166-.25.462h.637q.167-.056.074-.277.019-.24.222-.305 0-.84.739-1.662.517.286.526.886 0 .231-.092.628l-.111.305q-.102.12-.185.453h.61q.11-.047.138-.102l-.092-.296q-.046-.129.13-.23-.093-.49.12-.74-.435-1.015-.435-1.597.231-.95.296-1.782.11.582.027 1.395-.083.812.277 1.68.07.146.129.146.04 0 .074-.072.093-.526.037-2.909-.073-.295-.157-.452-.295-.453-.507-.471h-2.983q-2.207 0-3.269-.628.176-.314.194-.43.018-.115 0-.281-.443.13-.665.342l-.185-.139q.194-.12.62-.776.424-.655.498-1.025-.031-.062-.073-.062zm4.893 10.098c.488.021.755.032.87.032h.053l-.063 2.547a3.738 3.738 0 0 1-.97-.576l.11-2.003zm-7.107-.634c-.163.031-.377.131-.351.325v1.42c-.315-.015-.64-.031-.734-.031 0 .178.147.42.603.42.005.403.078.896.152 1.147l.063.66c0 .074.125.095.262.095.162 0 .34-.031.34-.031l-.026-.66c2.59.02 7.527.151 7.773.151.126 0 .21-.136.21-.325l.063-2.846-1.557-.016-.126 2.217c-1.127.006-3.076.19-4.402.19-.42 0-.781-.017-1.028-.069-.052-.058-.54-.765-.849-.844a1.36 1.36 0 0 0-.183-.02c-.053-.43-.105-.86-.152-1.285.094-.12.309-.09.366-.252.058-.078.021-.21-.089-.215-.063-.026-.235-.031-.309-.031zm15.282-7.668a.223.223 0 0 0-.08.015c-.024.032-.024.056 0 .072a.158.158 0 0 1 .082-.022c.074 0 .17.039.286.117h.083V4.18h-.083c-.107-.089-.203-.134-.288-.134zm-.004.103c-.029 0-.046.007-.053.02a.132.132 0 0 0-.012.059c0 .047.024.07.072.07.055 0 .13-.015.225-.047a.55.55 0 0 0-.208-.1.267.267 0 0 0-.024-.002zm.494.257c-.016 0-.024.008-.024.024 0 .015.008.023.024.023.023 0 .035-.008.035-.023 0-.016-.012-.024-.035-.024zm.142-.392c.087 0 .13.031.13.095a.272.272 0 0 1-.035.142.797.797 0 0 1-.119.143c-.055.055-.093.085-.112.089a.058.058 0 0 1-.012.001.043.043 0 0 1-.036-.019c-.012-.016-.01-.035.006-.06l.083-.094.095-.06c.008-.015-.002-.037-.03-.065-.027-.028-.03-.053-.005-.077.011-.012.023-.018.035-.018.012 0 .024.006.036.018.024.024.028.053.012.089a.966.966 0 0 1-.12.172h.013a.625.625 0 0 0 .136-.148.292.292 0 0 0 .018-.113c0-.032-.031-.048-.095-.048-.04 0-.063.008-.071.024a.132.132 0 0 0-.012.06c0 .031.016.063.048.095l-.072.047a.331.331 0 0 1-.018-.184c.012-.06.054-.09.125-.09zm-4.692-.285c.19 0 .352.031.487.095a3.412 3.412 0 0 0-.487.82 3.391 3.391 0 0 0-.487-.82c.135-.064.297-.095.487-.095zm8.173 0c.19 0 .352.035.487.107a3.15 3.15 0 0 0-.487.807c-.143-.34-.305-.61-.487-.807.134-.072.297-.107.487-.107zm-3.421-.38c.277 0 .508.027.694.083.187.055.28.202.28.44 0 .237-.082.413-.244.528l-.374.267a.644.644 0 0 1-.273-.368.353.353 0 0 0 .047-.178c0-.103-.063-.159-.19-.167-.095 0-.158.052-.19.155-.016-.095-.065-.157-.148-.184l-.232-.077c.15-.333.36-.5.63-.5zm-.974 1.294l.166.036h-.107c-.04 0-.06-.012-.06-.036zm.201.072c0 .008-.055.023-.166.047a.052.052 0 0 1-.015.006c-.002 0 0-.002.003-.006-.008-.024.004-.035.036-.035l.047.011.095-.023zm-1.2-.107c.018 0 .036.008.054.024.036.031.018.13-.053.296-.08-.166-.1-.265-.06-.296a.094.094 0 0 1 .058-.024zm1.189-.606c.07 0 .162.012.273.036.142.023.218.087.225.19.056 0 .084.02.084.059-.08.048-.12.103-.12.166 0 .064.036.095.108.095.04 0 .099-.04.178-.118.055.158.178.3.368.427a.763.763 0 0 0 .083.392c-.063.064-.168.095-.314.095-.147 0-.248-.024-.303-.071-.116-.125-.07-.3-.187-.374-.072 0-.23.061-.42.077-.047-.008-.072-.026-.076-.053a.885.885 0 0 0-.018-.09.523.523 0 0 0 .202-.13 3.007 3.007 0 0 0-.19-.107v-.048c.079-.015.118-.035.118-.059-.015-.04-.04-.06-.07-.06-.025.008-.033.02-.025.036.016.016-.002.024-.053.024-.052 0-.077-.004-.077-.012a.1.1 0 0 1 .012-.047c.11-.167.178-.31.202-.428zm-.107 3.611l-.048.356h-.332c-.222-.198-.408-.297-.559-.297v-.047c.099.014.203.021.312.021.137 0 .283-.01.437-.033zM41.912 5.5c.246.514.218 1.433-.083 2.756.261.514.281.946.06 1.294-.096.57-.131 1.446-.107 2.626-.008 1.338-.008 2.035 0 2.09.118.349.106.535-.036.558h-1.342c.396-.174.716-.42.962-.736.079-.325.067-.808-.036-1.45a121.53 121.53 0 0 1-.416-2.933c-.174-1.315-.04-2.705.404-4.17a.55.55 0 0 0 .216.04c.11 0 .236-.025.378-.075zm.238 9.657v.38h-3.338l.226-.38zM38.049 2.555c.118 0 .246.009.383.027.499.068 2.24.276 5.226.624.721.048 1.065.15 1.034.309-.222 0-.416.107-.582.32-.08.088-.097.143-.054.167a.107.107 0 0 0 .052.012.37.37 0 0 0 .156-.048c.15.111.305.376.463.796l-.011 10.774h-2.329v-.582h-.237c.095-.135.083-.372-.036-.713v-3.706c-.008-.483.032-.772.119-.867a1.905 1.905 0 0 0-.071-1.413c.23-1.323.273-2.206.13-2.65v-.273c.032-.134.08-.202.143-.202.04 0 .06.028.06.084l-.048 1.58h.451l-.13-1.652c0-.087-.046-.148-.137-.184a.322.322 0 0 0-.267.012c-.088.044-.17.168-.25.374-.103-.19-.138-.356-.107-.499a.268.268 0 0 1 .107-.166c.356-.158.535-.436.535-.831 0-.396-.256-.614-.767-.654a3.437 3.437 0 0 0-.264-.01c-.36 0-.597.07-.71.212a1.652 1.652 0 0 0-.29.523.906.906 0 0 1-.036.19.85.85 0 0 1-.119.202c-.063.087-.091.146-.083.178.016.04.051.06.107.06 0 .031-.02.055-.06.07 0 .04.012.072.036.096-.032.063-.02.107.036.13l.023.143c-.032.205-.248.624-.28.777l.262.01.244-.704c.127-.008.218-.02.273-.036a.67.67 0 0 0 .095.321 17.31 17.31 0 0 0-.451 1.782h-.44c-.182-.206-.372-.309-.57-.309v-.214h.119l-.095-.404c.008-.055.055-.099.143-.13v-.072h-.131c0-.047.043-.087.13-.118v-.072h-.13c0-.04.043-.067.13-.083v-.071h-.13c0-.04.043-.067.13-.083v-.083h-.118v-.072h-.083c-.032-.07-.048-.19-.048-.356a.525.525 0 0 1 .19.095.6.6 0 0 0 0-.238.345.345 0 0 1-.19.084c.119-.222.158-.36.119-.416a.335.335 0 0 0-.107-.107v-.392c.008-.119-.008-.202-.048-.25.056-.087.137-.205.244-.356.107-.15.129-.281.065-.392-.198.277-.34.457-.427.54a.597.597 0 0 0-.173.286c-.027.107-.2.386-.516.837.19-.024.392-.23.606-.618a1.03 1.03 0 0 1 .083-.106c.003-.003.005-.005.008-.005.01 0 .015.03.015.088v.368a.29.29 0 0 0-.118.107c-.04.055 0 .194.118.416a.597.597 0 0 1-.19-.084.66.66 0 0 0 0 .25c.08-.048.147-.083.202-.107a1.474 1.474 0 0 1-.047.356h-.095V5.5h-.119v.083c.095.016.143.043.143.083h-.143v.071c.095.016.143.044.143.083h-.143v.072c.095.031.143.07.143.118h-.143v.072c.095.031.143.075.143.13l-.096.404h.155v.202h-.309c-.063.032-.091.068-.083.107.024.04.063.067.119.083-.04.032-.04.06 0 .083-.048.048-.044.091.012.131-.04.048-.04.091 0 .13-.032.064-.02.123.035.179a.49.49 0 0 0 .226.083v.06a1.752 1.752 0 0 1-.297 0c-.056.031-.075.067-.06.106a.24.24 0 0 0 .096.107c-.032.04-.04.08-.024.12a.141.141 0 0 1 .006.106c-.012.032-.004.057.024.077.027.02.033.044.017.071-.016.028-.01.054.018.078a.126.126 0 0 1 .042.1c0 .044.06.078.178.102v5.202c-.158.04-.242.155-.25.345-.007.055.016.115.072.178.055.064.037.14-.054.232-.052.052-.064.078-.035.078a.438.438 0 0 0 .13-.043c.155-.067.18-.215.078-.445.007-.11.07-.166.19-.166.11 0 .17.055.178.166-.08.23-.056.376.071.44.053.026.09.04.11.04.029 0 .025-.026-.009-.076-.06-.087-.07-.162-.03-.226a.265.265 0 0 0 .048-.178c0-.19-.08-.305-.238-.345v-5.19l.856-.107c.023.26.073.706.148 1.336.075.63.176 1.372.303 2.227.127.855.174 1.434.142 1.734-.134.365-.554.69-1.259.975-.3 0-.463.079-.487.237h-.487l-.368.582h-1.58V4.762c.159-.42.313-.689.463-.808.062.034.113.05.152.05a.105.105 0 0 0 .044-.008c.044-.02.026-.077-.053-.172-.166-.206-.368-.31-.606-.31 0-.332.127-.587.38-.765.184-.13.433-.194.746-.194zm.009-.305c-.401 0-.736.081-1.004.243-.34.206-.507.547-.5 1.022a.765.765 0 0 0-.617.309c-.079.095-.097.152-.053.172a.105.105 0 0 0 .044.009c.04 0 .09-.017.152-.05.158.118.313.387.463.807v10.774h-.772v.214h10.097v-.214h-.772V4.762c.158-.42.313-.685.463-.796a.321.321 0 0 0 .145.048c.02 0 .036-.004.051-.012.044-.024.026-.08-.053-.166-.167-.214-.369-.321-.606-.321 0-.333-.333-.523-.998-.57-3.247-.396-5.148-.622-5.702-.677a3.404 3.404 0 0 0-.338-.018zm10.968.85q.366 0 .966.2 1.028.342 2.129 1.43 1.101 1.09.88 2.02-.22.93-.856 1.395-.525.384-1.268.384-.156 0-.322-.017-.955-.098-1.64-1.505-.685-1.407-.636-2.509.049-1.1.342-1.297.143-.102.405-.102zm-.1-.85q-.505 0-.819.217-.66.465-.734 1.91-.073 1.443.832 3.132.906 1.688 2.203 1.847.248.03.482.03.993 0 1.745-.544.93-.673 1.162-1.909.233-1.235-.99-2.618-1.225-1.383-2.644-1.836-.72-.229-1.238-.229zm1.256 8.502v4.998h.837v-4.998z"/><path d="M21.396.375v17.25m0-17.25h2.625m-2.625 17.25h2.625m0-17.25h29.812m-29.812 17.25h29.812m0-17.25h17.625m-17.625 17.25h17.625M55.596.375v17.25M59.12.375v17.25M60.883.375v17.25M62.646 2.1h8.812m-8.812 3.45h8.812M62.646 2.1v3.45m1.762-1.725h7.05m-8.812 3.45h8.812m-8.812 3.45h8.812m-8.812-3.45v3.45M64.408 9h7.05m-8.812 3.45h8.812m-8.812 3.45h8.812m-8.812-3.45v3.45m1.762-1.725h7.05" fill="none" stroke="#000"/></svg>