<svg xmlns="http://www.w3.org/2000/svg" width="104.825" height="18"><path d="M3.01.474c.693 0 1.247.2 1.634.479.006.053.02.107.009.16-.05.248-.195.477-.396.63-.316.207-.697.267-1.057.356-.09.01-.019.031.031.04.23.04.707.099.971.099l.052-.001c.278-.032.54-.148.766-.311.079-.067.147-.15.205-.236.147.346.227.713.26.917.018.11.096.2.202.233 1.139.349 2.038 1.91 2.88 2.949 1.729 2.137 3.199 4.526 4.892 6.76-.937-.456-1.87-.916-2.81-1.374-1.92-1.01-3.92-1.816-5.604-3.09l-.008-.008c-.97-.808-1.963-1.66-2.339-2.793-.148-.92 1.757-2.577 1.542-2.646a.207.207 0 0 0-.064-.01c-.458 0-1.753 1.128-2.019 2.202-.003-.014-.01-.03-.014-.045-.073-.356-.154-1.256.068-1.98a.29.29 0 0 0 .01-.103 1.968 1.968 0 0 0-.123-.634c-.063-.17-.139-.344-.26-.765-.031-.108-.142-.328-.208-.345.186-.138.375-.28.645-.375a.434.434 0 0 0-.132.314c0 .23.164.415.365.415.2 0 .364-.186.364-.415V.894a.411.411 0 0 0-.255-.39c.053-.007.096-.019.154-.022.081-.006.16-.008.238-.008zm.67 7.763c.065.065.135.124.202.187.214.78.412 1.64.692 2.305.483 1.145 1.216 2.141 1.84 3.154a1.814 1.814 0 0 0-.385.27 6.831 6.831 0 0 0-.199.193 2.61 2.61 0 0 0-1.186-.897c.045-.723-.108-1.712-.34-2.787a34.903 34.903 0 0 0-.624-2.425zm1.006.908c1.149.945 2.428 1.738 3.676 2.54-.018.91-.018 1.778.084 2.675a3.411 3.411 0 0 0-1.437-.736c-.02 0-.037.012-.057.012-.649-1.063-1.383-2.06-1.837-3.134-.156-.37-.293-.85-.429-1.357zm.407 5.254a2.5 2.5 0 0 1 .44.541.3.3 0 0 0 .257.14.29.29 0 0 0 .17-.053c.215-.156.347-.324.476-.446.047-.045.097-.08.148-.117l.149 2.722c-.213-.014-.435-.035-.637-.035-.264 0-.495.036-.633.172-.169-.134-.497-.164-.89-.164-.102 0-.207.002-.316.004l.836-2.764zM6.25 9.574c1.354.787 2.784 1.414 4.135 2.125a.244.244 0 0 0 .006.003c1.295.631 2.586 1.28 3.894 1.904.984 1.189 2.052 2.295 3.078 3.42l-2.15.362-4.267-4.635a.288.288 0 0 0-.037-.036c-1.499-1.137-3.152-2.082-4.66-3.143zM3.076 0c-.135 0-.273.005-.411.013C1.58.083.792.54.523 1.157c-.04.093-.146.314-.007.314a2.35 2.35 0 0 1 .341-.028c.418 0 .38.172.47.194.09.282.29.846.303 1.068-.244.86-.153 1.763-.064 2.198.15.732.63 1.584 1.261 2.38a.285.285 0 0 0 0 .166 35.3 35.3 0 0 1 .903 3.336c.251 1.168.393 2.277.317 2.823a.294.294 0 0 0 .221.328c.045.011.084.031.127.045l-.928 3.079a2.847 2.847 0 0 0-.593-.055c-.381 0-.756.05-1.064.05-.125 0-.24-.008-.34-.032a.546.546 0 0 0-.125-.012c-.436 0-1.428.306-1.34.879.15-.128.257-.159.375-.159.11 0 .23.027.405.027h.027c.254-.004.697-.083 1.053-.083.18 0 .338.02.438.08.236-.01.45-.013.649-.013.85 0 1.447.07 2.5.075a89.565 89.565 0 0 0 2.974-.079c.45.003.697.054.922.054h.04c.134-.004.265-.057.48-.057.123 0 .273.017.468.07-.25-.341-.877-.685-1.33-.685a.591.591 0 0 0-.302.071 5.081 5.081 0 0 0-.508-.022c-.22 0-.448.01-.678.02l-.157-2.83c.487.203.857.517 1.281 1.021a.295.295 0 0 0 .513-.246c-.192-1.039-.213-2.019-.202-3.06.54.354 1.072.713 1.576 1.094l4.36 4.738a.29.29 0 0 0 .263.09c.95-.159 1.9-.315 2.849-.474a.294.294 0 0 0 .23-.193.298.298 0 0 0-.06-.297c-.741-.83-1.508-1.631-2.25-2.445 1.269.78 2.875 1.755 3.08 1.755.022 0 .027-.013.012-.04-.094-.163-.9-.755-1.775-1.373.14.058.276.12.415.177l.017.01c.103.035.16.059.27.062a.286.286 0 0 0 .108-.016.317.317 0 0 0 .188-.152.32.32 0 0 0 .023-.238c-.017-.05-.038-.077-.054-.098-.061-.085-.103-.109-.162-.154a4.553 4.553 0 0 0-.205-.149c-.153-.105-.336-.223-.493-.328a4.992 4.992 0 0 1-.328-.233.307.307 0 0 0-.028-.025l-3.892-2.736c-.008-.006-.02-.001-.028-.006-1.333-1.869-2.588-3.825-4.046-5.627-.744-.92-1.598-2.528-2.985-3.064-.067-.396-.218-1.127-.755-1.649C4.827.26 4.168.056 3.427.011A5.728 5.728 0 0 0 3.076 0zM25.85 4.787q-.407 0-.472.314v.019q.047.083.194.083.425-.185.425-.342v-.018q0-.037-.148-.056zm1.477-.572q-.065.36-.637.775l.203.083.277-.101.138.092q1.062.508 2.817.536l2.752.027h.037q.47 0 .457.688-.014.716-.485 1.436-.296 0-.6-.226-.305-.226-.5-.53-.193-.306-.498-.795.093.97.554 1.524-.563 0-1.002.106-.219.053-.365.053-.147 0-.221-.053-.092-.066-.457-.066-.222 0-.545.024-.249.02-.455.02-.501 0-.75-.112-.23-.194-.29-.679-.06-.485.272-1.343-.684.489-.684 1.486v.333q-.341-.351-.535-.776-.379-.942-1.035-.942-.249 0-.96.314-.24-.101-.194-.323l.462-.619q.332-.563.48-.628.074-.138.72-.138.277.074.277.203 0 .175-.184.35.35-.073.508-.415 0-.083.443-.304zm.398-1.965q-.045 0-.103.072-.701 1.117-1.274 1.551-.222.194-.6.203-.185 0-.563-.277-.564-.545-.785-.923-.25-.444-.324-.49-.037 0-.055.093 0 .526 1.071 1.948-.203.296-.378.674-.176.379-.416.577-.24.199.046.393 0 .24.397.388l.988-.287q.397 0 .545.333.49.738.49 1.542.055 1.071-.74 2.05-.249.166-.249.461 0 .12.305.12.499 0 .499-.12l-.037-.249q0-.13.194-.194v-.018q0-.176.628-1.764.286 0 .452.277.213.702.213 1.164 0 .101-.13.434-.157.12-.194.434h.74l-.056-.231q-.037-.139.101-.24l-.064-.342q-.12-1.302-.12-1.533v-.018q.73-.176 1.122-.176.392 0 .604.143.085.057.237.057.23 0 .618-.13.419-.142.643-.142.119 0 .183.04.185.115.185.392 0 1.016-.517 1.727-.167.166-.25.462h.637q.167-.056.074-.277.019-.24.222-.305 0-.84.739-1.662.517.286.526.886 0 .231-.092.628l-.111.305q-.102.12-.185.453h.61q.11-.047.138-.102l-.092-.296q-.046-.129.13-.23-.093-.49.12-.74-.435-1.015-.435-1.597.231-.95.296-1.782.11.582.027 1.395-.083.812.277 1.68.07.146.129.146.04 0 .074-.072.093-.526.037-2.909-.073-.295-.157-.452-.295-.453-.507-.471h-2.983q-2.207 0-3.269-.628.176-.314.194-.43.018-.115 0-.281-.443.13-.665.342l-.185-.139q.194-.12.62-.776.424-.655.498-1.025-.031-.062-.073-.062zm4.893 10.098c.488.021.755.032.87.032h.053l-.063 2.547a3.738 3.738 0 0 1-.97-.576l.11-2.003zm-7.107-.634c-.163.031-.377.131-.351.325v1.42c-.315-.015-.64-.031-.734-.031 0 .178.147.42.603.42.005.403.078.896.152 1.147l.063.66c0 .074.125.095.262.095.162 0 .34-.031.34-.031l-.026-.66c2.59.02 7.527.151 7.773.151.126 0 .21-.136.21-.325l.063-2.846-1.557-.016-.126 2.217c-1.127.006-3.076.19-4.402.19-.42 0-.781-.017-1.028-.069-.052-.058-.54-.765-.849-.844a1.36 1.36 0 0 0-.183-.02c-.053-.43-.105-.86-.152-1.285.094-.12.309-.09.366-.252.058-.078.021-.21-.089-.215-.063-.026-.235-.031-.309-.031zm12.368-8.388l1.236.785q.247 2.428.05 3.91-.196 1.484-.232 2.45-.036.967.473 2.596-.015.116-.422.334-.19.102-.452.102-.296 0-.682-.131.77-1.425.669-3.097-.102-1.672-.393-3.758-.29-2.086-.247-3.191zm-.552 10.7q.668.117 1.134.233-.175.64-.815.814-.274.075-.527.075-.337 0-.636-.133.262-.61.844-.989zM37.239 2.25q-.13 1.207.313 4.064.443 2.856.443 3.845 0 2.617-1.003 3.155-.945.96-1.221 1.934.276.378.989.472.225.03.43.03.443 0 .79-.139.51-.204.771-.538.335-.45.19-1.018l.624-.334q.451-.218.277-.698-.713-1.919-.27-4.536.444-2.617.124-4.696L37.24 2.25zm6.916 2.304c-.203.097-.45.367-.075.412.18-.007.592-.195.517-.367a.166.166 0 0 1-.118.05c-.106 0-.215-.095-.324-.095zm-1.479.067c-.247.06-.375.33-.06.39l.017.001c.181 0 .676-.22.268-.27-.067-.046-.135-.12-.225-.12zm1.974-1.883c.443.517.833 1.118.908 1.808.075.495.097.99.172 1.478-.352-.03-.247-.577-.18-.84.06-.518-.217-.998-.412-1.456-.136-.247-.263-.638-.608-.645-.383.067-.63.39-.878.668-.255-.255-.525-.533-.878-.638a.177.177 0 0 0-.061-.01c-.079 0-.172.035-.214.035-.037 0-.036-.026.042-.123.048-.168.147-.218.27-.218.178 0 .406.106.599.106a.42.42 0 0 0 .084-.008 2.801 2.801 0 0 0 1.156-.158zm-.12.57c.292.075.36.48.502.72.18.42.398.878.256 1.351-.113.225.03.51.015.675-.25.176-.47.547-.803.547a.474.474 0 0 1-.113-.014c-.33-.067-.495-.383-.75-.533-.185.178-.294.548-.598.548a.464.464 0 0 1-.138-.022c-.277-.06-.645-.03-.727-.368-.143-.345-.158-.728-.18-1.103a.243.243 0 0 0 .045.005c.152 0 .166-.177.18-.328.058-.22.215-.321.39-.321.118 0 .244.046.353.134.127.142.517.255.435.48-.038.135-.083.277-.128.42l.315.42c.03-.217.353-.397.165-.615-.03-.098-.142-.225-.127-.3.135-.24.315-.45.525-.63a.241.241 0 0 1 .172-.077c.201 0 .403.263.578.287.173-.188-.015-.263-.187-.36a.526.526 0 0 0-.365-.147.602.602 0 0 0-.49.266c-.143.086-.242.371-.367.371-.04 0-.082-.028-.129-.1-.229-.184-.503-.39-.804-.39a.642.642 0 0 0-.134.014c-.212.044-.403.474-.42.474-.007-.353.158-.669.255-1.014a.459.459 0 0 1 .447-.357c.13 0 .261.055.356.177.223.083.387.475.597.475a.2.2 0 0 0 .116-.04c.233-.247.42-.54.758-.645zm-1.066 5.207c.953.983 1.831 3.475 2.056 4.495-.367-.3-.87-.495-.983-.683-.12-.195-.45-2.093-1.073-3.812zm3.392-1.785c1.8 1.035 4.937 6.13 5.605 6.948-1.126-.713-2.236-1.433-3.444-2.019-1.696-.832-3.144-2.183-4.525-3.444 1.14-.382 1.959-1.028 2.364-1.485zm-1.869 6.468c.24.142.458.337.72.442-.157.39-.254.826-.577 1.133-.06.098-.147.129-.246.129-.17 0-.378-.092-.551-.092a.44.44 0 0 0-.036.001c.21-.525.525-.758.69-1.613zm.51-7.024c.046.094.104.125.166.125.08 0 .167-.053.24-.087.18.127.803.112.435.383-.233.315-1.476 1.174-2.34 1.326-.372.065.254.655.457.865 1.17 1.05 2.318 2.16 3.721 2.918.878.496 1.801.938 2.65 1.486.404.585.885 1.126 1.192 1.771-.307.09-.607.218-.923.293a2.168 2.168 0 0 1-.527.061c-.495 0-.993-.147-1.213-.384-.406-.428-.848-2.251-1.081-2.919-.033-.075-.08-.1-.13-.1-.102 0-.22.099-.278.099a.03.03 0 0 1-.027-.014.293.293 0 0 0-.29-.282c-.132 0-.254.096-.235.297-.045.473-.135.946-.36 1.373-.028.073-.086.101-.162.101-.213 0-.57-.22-.814-.28.097-.579-.69-3.535-3.001-6.011-.081-.088-.433-.459-.403-.459.004 0 .013.005.027.016.119.031.252.052.384.052.253 0 .501-.078.63-.314.019-.06.043-.082.072-.082.103 0 .258.3.423.3a.69.69 0 0 0 .385.115.79.79 0 0 0 .583-.266c.142-.128.277-.255.42-.383zm-.78-3.924c-.235.105-.648.21-1.02.21-.053 0-.106-.003-.158-.007a.603.603 0 0 1-.107.009c-.252 0-.524-.136-.769-.136a.466.466 0 0 0-.264.074c-.413.6-.788 1.268-.833 2.011-.083 1.426-.045 1.92 1.08 3.091.443 1.006 1.268 4.285 1.516 5.178.27.255-.338 1.65-.593 1.996-.139.191-.504.2-.897.2h-.13c-.353 0-.71.008-.931.145-.21.135-.285.638-.165.705.112-.172.337-.405.495-.427-.15.157.375.082.488.12.303.005.61.03.918.03.15 0 .298-.006.447-.023.068-.03.14-.075.172-.075.024 0 .024.027-.022.113.213.055.452.083.685.083.525 0 1.022-.14 1.131-.42.225-.414.436-.849.586-1.299.191.04.432.176.625.176a.284.284 0 0 0 .155-.04c.21-.144.428-.811.548-1.254.011-.046.074-.069.137-.069.06 0 .122.021.14.061.225.45.6 1.831.96 2.41.273.427.931.638 1.632.638.441 0 .9-.083 1.288-.249.487-.21.848-.165.743-.435-.166-.45-.45-.878-.75-1.26.434.27.87.547 1.305.817.036.131.126.183.218.183.178 0 .362-.193.18-.385-1.704-2.461-4.413-6.656-6.288-8.014a2.525 2.525 0 0 0-1.043-.563c-.128-.33-.09-.773-.166-1.148-.075-.743-.525-1.973-1.313-2.446zm18.397.555c.384.8-.461 1.105-1.075 3.765-.158 2.59-1.72 5.894-2.41 6.983-.34.758-.733 1.276-1.181 1.554a.753.753 0 0 1-.098.007c-.193 0-.373-.085-.475-.35.25-.307.447-.947.46-1.164.027-.5-.225-.6-.48-.6-.17 0-.34.044-.428.044-.024 0-.042-.004-.053-.012-.632-.528-1.457-.885-1.526-1.124.188-1.649 1.597-3.523 3.28-5.306 4.056-2.853 2.845-3.266 3.986-3.797zm-.121-.555c-.334 0-.66.144-.754.38-.132.328-.675 1.43-1.937 2.423-1.994 1.14-4.176 4.03-4.708 5.497-.256.704-.483 1.37-.493 2.077.05.03 1.338.506 1.712 1.235.034.066.073.092.115.092.16 0 .372-.368.588-.368.022 0 .043.004.065.012.606.23-.355 1.147-.36 1.236-.035.644.893.777 1.062.886.07.02.135.03.195.03.159 0 .248-.173.463-.329 1.512-1.094 3.19-6.027 3.448-6.904.24-.836.281-1.92.36-2.358.371-1.657 1.023-2.649 1.061-2.816.177-.783-.329-1.093-.817-1.093zm11.932.59l.18.075-5.404 12.034c-.091-.06-.605-.312-.773-.507 0-.13.092-.219.36-.576.281-.375.58-.766.24-1.269-.157-.232-.373-.401-.654-.401-.174 0-.374.065-.6.221-.47-.28-.925-.42-1.665-.42-.13-1.141-.276-1.861-.436-2.762h5.36l3.392-6.395zm-.011-.59c-.03 0-.062.001-.094.004L71.382 8.38c-.12.2-.245.3-.375.3a.349.349 0 0 1-.045.003c-.505 0-1.936-.922-4.294-2.765-.54-.56-.82-1.12-.84-1.681-.02-.56.147-.88.503-.961a1.34 1.34 0 0 1 .29-.036c.2 0 .343.064.43.194.125.185.118.37-.022.555-.07.093-.134.139-.192.139-.057 0-.108-.046-.154-.139-.09-.185-.185-.278-.285-.278-.19.07-.235.236-.135.496.093.241.264.362.512.362.019 0 .039 0 .059-.002.28-.02.475-.115.585-.285.11-.17.165-.37.165-.6a.88.88 0 0 0-.225-.601c-.15-.17-.368-.278-.653-.323a1.027 1.027 0 0 0-.16-.013c-.232 0-.464.08-.696.238-.285.195-.45.516-.495.961-.045.445.077.936.368 1.471.29.536.813 1.074 1.568 1.614.756.54 1.474 1.056 2.155 1.546.016.064-.02.096-.106.096a.533.533 0 0 1-.074-.006h-3.844c.32 1.832.516 3.128.586 3.888.09-.006.179-.01.268-.01.702 0 1.403.209 2.104.626.15-.2.313-.3.488-.3s.265.095.27.285c-.306.488-.753.961-.908 1.516l1.681 1.081 5.72-13.105c-.182-.263-.42-.395-.717-.395zm7.673 1.218q.152 0 .288.073.285.15.375.443.09.286-.12.699Q79 7.7 78.655 11.163q-.578-.496-.976-.579.232-3.566 4.535-5.916-.413-.218-.36-.586.044-.375.397-.533.177-.08.336-.08zm3.14 1.429q.135 0 .271.071.293.15.375.496.083.345-.217.563-.171.124-.366.124-.148 0-.31-.072.676 4.453-1.081 7.381-.163-.082-.413-.082-.301 0-.729.12 1.427-3.334 1.893-8.102 0-.248.277-.413.15-.086.3-.086zm-.825-2.114q.525 0 .608.353.083.353-.315.878-.398.519-.631 1.645-.66 4.723-1.57 6.84-.645 1.63-.645 2.553-.63-.218-1.096-.826.878-.683.893-1.494 0-.841-.758-.841-.63 0-.909.495-.27-.63-1.381-.63.255-2.155 1.314-3.634 1.058-1.48 2.402-2.44 1.337-.962 1.45-1.93.105-.969.638-.969zm.12-.533q-.939 0-1.134.646-.195.645-.15 1.111-.248-.698-.646-.841-.247-.084-.508-.084-.16 0-.325.031-.443.083-.706.579-.248.465 0 .893-4.16 2.305-4.422 6.345.413.067.833.383.428.315.66.705v.3h.73q.772 0 .787.782h.564q.172-.699.548-.699.368 0 .368.33 0 .519-.48 1-.549.277-.481.48.3.66 1.043 1.096.744.443 1.24.443l.014-.946q-.015-.548.533-.788.25-.11.508-.11.305 0 .618.155 2.02-3.312 1.292-7.471.51-.068.766-.54.248-.474.09-.887-.158-.413-.48-.585-.186-.1-.43-.1-.179 0-.39.055.73-.789.61-1.54-.114-.743-1.052-.743z"/><path d="M21.396.375v17.25m0-17.25h2.625m-2.625 17.25h2.625m0-17.25h62.804m-62.804 17.25h62.804m0-17.25h17.625m-17.625 17.25h17.625M88.588.375v17.25M92.113.375v17.25M93.875.375v17.25M95.638 2.1h8.812m-8.812 3.45h8.812M95.638 2.1v3.45M97.4 3.825h7.05m-8.812 3.45h8.812m-8.812 3.45h8.812m-8.812-3.45v3.45M97.4 9h7.05m-8.812 3.45h8.812m-8.812 3.45h8.812m-8.812-3.45v3.45m1.762-1.725h7.05" fill="none" stroke="#000"/></svg>