<svg xmlns="http://www.w3.org/2000/svg" width="254.423" height="18"><path d="M17.338.568q-.111.037-.111.128t.07.146q.027.022.054.022.04 0 .077-.05.063-.081.021-.163-.041-.083-.11-.083zM1.95.47q-.153 0-.296.282.084.183.264.237.028.01.054.01.131 0 .224-.229 0-.255-.194-.292Q1.975.47 1.949.47zM.945.787q-.042.128.027.238l-.583.073Q.375.934.945.788zm.568.436zm.105-.003q.12 0 .195.033.027.012 0 .012-.052 0-.288-.04.05-.005.093-.005zm2.564 1.252q.035 0 .097.068 1.125 1.223 2.792 2.865Q8.74 7.048 8.947 7.724 7.585 7.468 6.62 6.318q-.966-1.15-1.681-2.236-.716-1.086-.799-1.414-.017-.196.042-.196zm.046-.868q.202 0 .384.096 4.321 4.308 4.946 5.604.584 1.405.764 2.154-.076.11-.182.11-.087 0-.193-.074l-.57-1.515q-.43-1.296-2.104-2.875-1.674-1.579-2.424-2.5-.441-.542-.676-.542-.164 0-.227.268-.108.455-.38.455-.115 0-.26-.081.126-.858.542-1.022.198-.078.38-.078zm.357 6.43q.666 1.405.541 2.83-.125 0-.236.236-.045-.403-.277-.403-.051 0-.112.02.292-1.405.084-2.683zM2.107.346q.066 0 .116.013.25.063.292.237.029.122.058.122.013 0 .025-.022.042-.073.056-.164.305.53.041 1.57t.848 1.24q1.028 3.104 2.209 4.72 1.18 1.615.986 3.038-.449-.438-.993-.438-.113 0-.23.019.042-1.296-.472-2.556t-.945-1.889q-.43-.63-1.16-1.497-.73-.867-.722-1.789.007-.921.194-1.286.188-.365.181-.584-.003-.091-.027-.091-.035 0-.112.182-.132.31-.73.328l-.07.001q-.568 0-1.235-.274l.82.073q.404.11.601.11.162 0 .183-.074.049-.164-.076-.192-.125-.027-.257-.027t-.201.055l.026.052-.29-.052Q1.042.787 1.167.623q.028-.055.097-.055-.028.183.049.274.028.034.056.034.046 0 .09-.098.07-.155-.125-.228.511-.204.773-.204zm15.412.04q.375 0 .555.365.056.055.695.2v.056l-.695.073q-.597 0-.75-.12-.153-.118-.146-.273.007-.155.188-.155.18 0 .25.082t.035.173q-.035.092-.132.147h.028q.18 0 .187-.22.007-.237-.299-.273-.389 0-.291.374.092.357.854.357l.076-.001q.431-.037.765-.128L18.81.97q1.236 1.004 1.16 2.29-.077 1.288-.966 2.136-.889.85-1.584 1.871-1.083 1.734-1.167 2.72-.083.986.376.986.458 0 1.118-.721.66-.721 1.34-.74 1.82.055 1.612 2.209-.667-.93-1.5-.93-.417 0-1.14.474-1.097.766-1.667.766l-.472-.091q-.861-.84-.583-2.482.416-1.187 1.125-4.235.486-1.734.965-2.628.48-.895 1.022-.913.291 0 .944.365.027.01.047.01.094 0 .037-.21-.526-.429-1.226-.429-.225 0-.47.045-.208 0-.506-.146-.3-.146-.3-.694.251-.237.543-.237zM3.946 3.05q1.083 1.825 1.986 3.002.903 1.178 1.702 1.588.799.411 1.48.43.083.145 1.653 4.617l-.097.055-3.738-3.14q.028-.273-1.104-1.962-1.132-1.687-1.994-4.46l.112-.128zm3.834 7.867l2.07 1.66q.07.256-.5.348-.127.02-.233.02-.37 0-.49-.248-.152-.32-.389-.831-.236-.511-.458-.95zm7.071-.785q0 .767.167 1.332.43 1.004 1.153 1.023h.038q.711 0 1.699-.657.938-.625 1.365-.625.034 0 .066.004.416.055.903.566.486.51.514.894.05.311-.043.311-.06 0-.18-.128-.399-1.05-1.024-1.05h-.01q-.633.01-1.557.648-.923.639-2.153.639t-1.368-1.04q-.14-1.04.43-1.917zm-10.294 1.06l.208.547q.195-.255.299-.3l.005-.002q.088 0-.304 1.543l-.583.238q-.153-.146.09-.904.243-.757.285-1.122zm14.763 1.14q.461 0 .727.502-.18.384-.847.603-.514 0-1.042-.566.685-.539 1.162-.539zm-1.607.758q.207.265.448.438h-1.883q.692-.095 1.435-.438zm-7.182 1.15q-1.554 2.935-4.48 3.011-2.913-.076-4.467-3.011zm11.239.018q-1.554 2.935-4.48 3.012-2.913-.077-4.48-3.012zM2.346.008q-.084 0-.179.013-.222 0-1.264.42Q.069.696 0 1.098l.028.62.417-.2q.68.292 1.139.292.458 0 .347.41-.111.411.028 1.37.139.958 1.097 1.934.959.977 1.188 2.556.23 1.578-.41 3.641l.209-.164q.004-.004.007-.004.046 0-.216.816-.277.867-.757.894-.084.005-.16.005-.348 0-.486-.105-.155-.12-.462-.12l-.045.001q-.34.01-.34.302v.182H.61Q2.21 17.982 6.057 18q3.849-.018 5.446-4.472l-4.279.037q0-.165-.264-.356-.129-.094-.296-.094-.175 0-.391.103-.13.061-.278.061-.337 0-.771-.317.097-.639.236-1.14.139-.503.528-.594.036-.008.073-.008.362 0 .816.811.264-.675.153-1.825l.139.128q1.042 2.3 1.257 2.701.163.305.634.305.15 0 .331-.031.75-.128.737-.475l.639.42.486-.237-1.07-3.048q.264 0 .487-.292-.264-1.096-.82-2.446-.39-.822-.792-1.278Q7.961 4.603 6.78 3.39T5.043 1.518q-.373-.28-.775-.28-.226 0-.461.088-.653.246-.792 1.214-.042-.037.07-.73.11-.694-.05-1.287-.138-.514-.689-.514zM17.566 0q-.252 0-.478.094-.292.11-.347.42-.111.383.097.757.208.374.653.466-.89 1.058-1.514 3.741-.584 2.556-.973 3.779-1.042 1.113-1.035 2.236.007 1.122.424 1.597.301.343.878.438h-3.434q1.597 4.454 5.446 4.472 3.848-.018 5.445-4.472h-2.674q.153-.11.313-.256.156.245.354.245.083 0 .174-.044.347-.219.139-1.004.194-2.245-.459-2.865-.653-.621-1.473-.621-.75 0-1.625.849-.543.526-.743.526-.124 0-.118-.198.014-.52.611-1.761.403-.876 1.75-2.254 1.348-1.378 1.334-2.775-.014-1.396-.597-2.099-.584-.703-1.292-.794-.111-.2-.292-.328-.18-.128-.48-.146Q17.609 0 17.567 0zm11.763 0q-1.88.043-3.11 1.36-1.36 1.49-1.49 2.981 0 .346.388.346h18.056q.389 0 .389-.41t-.389-.41H25.7q1.08-2.765 3.24-3.068h14.233q.389 0 .389-.41 0-.389-.389-.389zm12.905 6.885q.379 0 .379.397v3.044H41.46l.378-3.206q.018-.235.396-.235zm.018-.486q-.918 0-.972.522-.379 3.405-.811 3.423l-8.36.307-.864-.036q-.973-1.027-1.73-1.027l-.558-.036q-1.532.288-1.838.288-.216 0-.216.288 0 .397.612.397 1.052-.168 1.614-.168.102 0 .188.005.306 0 .504.253-.35.435-1.572.435-.094 0-.193-.003-1.387-.036-2.45-.36-.523 0-.523.612.054.559 3.91.577l1.711-.18 9.765-.054 2.738.036V7.282q-.018-.883-.955-.883zm.275 8.228c.315.447.392 1 .419 1.53-.012.252.007.524-.098.76-.294-.293-.268-.97-.275-1.35 0-.373-.012-.68-.046-.94zm-16.805-.422l15.336.017c-2.24 2.124-4.487 3.161-7.873 3.161-3.4 0-5.457-1.012-7.463-3.178zm-.688-.617a.308.308 0 0 0-.234.509c2.228 2.6 4.592 3.903 8.385 3.903 3.692 0 6.214-1.252 8.647-3.67.083.232.125.597.125 1.237.015.712.01 1.893.944 1.975.657-.135.657-.837.661-1.384 0-.672-.164-1.282-.439-1.745-.274-.463-.68-.808-1.173-.808l-16.916-.017zM58.9.79q.731 0 1.479.082l-.02 6.032h-9.631q-.172-.345 1.513-.977-.383-.287-.709-.804.173-.594 2.01-.977-.44-.249-.765-.689.23-.383 2.106-.88-.268-.288-.517-.786 0-.325 1.963-.737 1.26-.264 2.57-.264zM58.815 0q-.693 0-1.29.058-1.475.144-2.528.383-1.053.24-2.106 1.37.038.478.306.497-1.206.268-1.723 1.13.057.287.325.479-1.091.23-1.493 1.206.057.287.517.498-1.34.306-1.896 1.474.153.402.613.498h11.508V.125Q59.83 0 58.816 0zm-9.119 14.375c1.017 0 2.29.522 2.906 1.138.54.54.61 1.254.63 1.918h-7.04c.019-.664.09-1.379.628-1.918.616-.616 1.86-1.138 2.876-1.138zm0-.57c-1.206 0-2.504.558-3.265 1.319-.78.78-.869 1.808-.869 2.576v.3h8.269v-.3c0-.768-.059-1.796-.84-2.576-.76-.76-2.088-1.318-3.295-1.318zm10.394-3.668q.768 0 1.566.335L60.14 12.01l-1.557-1.537q.739-.335 1.507-.335zm-3.321 2.01l1.537 1.537-1.537 1.537q-.67-1.596 0-3.074zm6.64.08q.67 1.595 0 3.073l-1.536-1.537 1.537-1.537zm-1.201-1.302q.473.217.749.75l-2.09 2.108 2.07 2.069q-.256.512-.769.749L60.1 14.53l-2.03 2.03q-.512-.315-.748-.768l2.03-2.01-2.129-2.128q.217-.513.769-.73l2.108 2.109 2.109-2.109zm-2.07 4.572l1.538 1.537q-.75.335-1.518.335t-1.556-.335l1.537-1.537zm-.039-6.01q-2.03 0-3.202 1.32-1.173 1.32-1.173 2.897 0 1.774 1.37 3.025T60.06 18q1.931-.02 3.143-1.33 1.212-1.31 1.212-2.966l-.02.04q.02-1.498-1.192-2.878-1.212-1.38-3.104-1.38zM74.52.634q-.37 0-.37.437 0 .371.37.371.394 0 .394-.415 0-.393-.394-.393zm-1.44.284v.393l-.853.175q.394-.437.853-.568zm.043.524q.503.394.175.612-.503-.175-.743-.48l.568-.132zm13.174 2.47q.46 0 .46.502v3.67H85.4l.437-3.867q.022-.306.458-.306zM74.652.436q1.026 0 1.638.787.612.786.656 2.425 1.594.328 2.119 1.464.084.711-.314.711l-.036-.001q-.437-.033-.688-.251-.091-.08-.138-.08-.081 0-.026.244.088.382.961.939.874.557.143.907-.178.084-.378.084-.625 0-1.469-.827-1.114-1.093-1.18-1.66-.065-.569.46-1.05.311-.285.214-.285-.067 0-.324.133-.633.328-.666.961-.033.634.502 1.398.536.765 2.109 1.901.16.084.364.084.432 0 1.056-.379.917-.557-.918-1.715.677-.153.7-.59.577.207 2.568 2.56l-5.844.238-.177-.318q-1.07-1.912-1.365-2.742-.295-.83-.273-1.562.022-.732-.295-1.07-.317-.34-.186-.733.131-.393-.393-.72V.896q.568-.459 1.18-.459zm1.51 7.998zm7.086 1.27q.46.57.973 1.22 1.049.699 1.07 1.026-.021.306-.327.372-.066.014-.133.014-.248 0-.523-.19-1.223.59-2.37.613h-.12q-1.067 0-1.792-.372.743.634.524 1.333-.105.339-.16.339-.058 0-.058-.383 0-.743-1.9-1.42v.852q-.111.465-.177.465-.064 0-.086-.443-.131-.918-.623-2.01-.26-.58-.685-1.392l6.387-.024zm-4.445 3.317q1.07.306 1.07.72l-.72 2.688q-.088.48-.59.48h-.875v-.021l1.115-3.43v-.437zM74.73 0h-.078q-.853 0-1.726.721-.503.175-1.027.787.72.655 1.31.808.066.306.416.874.022 1.42.393 2.382.26.672 1.374 2.894l-.828.033-1.005-.065q-1.114-1.246-1.988-1.246l-.655-.043q-1.77.35-2.12.35-.262 0-.262.37 0 .481.721.481 1.217-.224 1.873-.224.11 0 .203.006.371 0 .59.306-.414.537-1.871.537l-.172-.002q-1.606-.033-2.851-.426-.612 0-.612.721.087.677 4.544.7l1.988-.22 3.086-.011.476.93q1.048 2.184 1.048 2.708 0 .743-.961 3.409 0 .174-1.31.24-1.989.066-1.989.546 0 .284.284.284h5.812q.546-.415.611-.743.525.219.568.612.057.281.201.281.024 0 .05-.008.186-.054.186-.273-.153-.59-.764-1.136l.699-2.971q2.119-.066 3.67-.656.281.055.517.055.516 0 .816-.262.437-.383-.175-1.235-.857-.843-1.66-1.813h.13l3.19.022V4.392q0-1.07-1.092-1.07t-1.136.633q-.437 4.13-.94 4.151l-1.374.056q-2.187-2.647-3.039-3.093-.306-.633-.732-.994-.426-.36-1.54-.907-.022-1.31-.6-2.25Q76.412 0 74.73 0zm16.351 2.533q-.104 0-.202.032-.385.124-.34.373.039.21.344.21.056 0 .12-.007.418-.045.734-.339-.353-.269-.656-.269zm.196-.229q.815 0 2.516.973.854.441 1.871.441.492 0 1.021-.103 1.333-.27 2.802-.474.499-.07.966-.07.91 0 1.7.262 1.198.395 1.988.508.791.113 2.508.204-1.107.113-2.169.113t-2.508-.238q-.723-.118-1.392-.118-.67 0-1.285.118-1.231.238-2.802.441-.392.05-.771.05-1.138 0-2.155-.457-.987-.673-2.05-.673-.47 0-.955.131-.429-.023-.384-.474.249-.61 1.062-.633h.037zM91.88 0q-.49 0-.912 1.492-.354-1.318-.913-1.318-.084 0-.172.03-.677.429.452 1.65-.903.519-.903 1.31 0 .79 1.333.88.412-.107.805-.107.92 0 1.736.593.699.509 2.214.509 1.01 0 2.384-.226 1.688-.475 3.28-.475.604 0 1.194.068 1.476.171 2.514.171.471 0 .853-.035 1.92-.045 1.92-.362-.52-.474-1.468-.632-2.011-.023-3.672-.7-.83-.34-2.036-.34t-2.788.34q-1.02.257-1.899.257-1.205 0-2.145-.484-.972-.587-2.056-.971.903-.7.847-1.164-.057-.463-.554-.486h-.014zm13.377 11.43c.941.04 1.458.06 1.68.06h.101l-.121 4.92c-.81-.334-1.306-.668-1.873-1.113l.213-3.868zm-13.729-1.226c-.314.061-.729.253-.678.628v2.744a52.47 52.47 0 0 0-1.417-.061c0 .344.283.81 1.164.81.01.78.152 1.731.293 2.217l.122 1.276c0 .142.243.182.506.182.314 0 .658-.06.658-.06l-.05-1.276c5 .04 14.538.293 15.014.293.243 0 .405-.263.405-.627l.121-5.498-3.007-.03-.243 4.282c-2.176.01-5.943.365-8.504.365-.81 0-1.508-.03-1.984-.132-.102-.111-1.043-1.478-1.64-1.63-.04-.01-.183-.03-.355-.04-.101-.83-.202-1.66-.293-2.48.182-.234.597-.173.708-.487.112-.152.04-.405-.172-.415-.121-.05-.455-.06-.597-.06zm38.062-9.188c.696 0 1.044.377 1.044 1.13v4.802h-19.936V2.172c0-.77.356-1.156 1.069-1.156.54 0 1.216.606 2.026 1.816.811 1.22 1.626 1.83 2.445 1.83.802 0 1.531-.513 2.186-1.537.656-1.025 1.196-1.647 1.622-1.868.221-.112.438-.168.65-.168.205 0 .406.052.603.156.401.211.933.834 1.597 1.867.655 1.033 1.384 1.55 2.186 1.55.844 0 1.667-.61 2.47-1.83.802-1.21 1.481-1.816 2.038-1.816zM129.566 0c-.86 0-1.695.618-2.506 1.854-.81 1.237-1.47 1.855-1.978 1.855-.483 0-1.134-.618-1.953-1.855C122.31.618 121.499 0 120.697 0c-.917 0-1.769.618-2.555 1.854-.778 1.237-1.413 1.855-1.904 1.855-.5 0-1.155-.618-1.965-1.855C113.462.618 112.627 0 111.767 0c-1.4 0-2.1.724-2.1 2.172v5.792h9.912c1.213.003 1.1.006 1.125.006.02 0 .126-.002 1.05-.006h9.912V2.147c0-1.431-.7-2.147-2.1-2.147zm-16.583 15.091c.816 0 1.838.42 2.332.914.433.432.49 1.006.505 1.538h-5.649c.016-.532.072-1.106.505-1.538.494-.494 1.491-.914 2.307-.914zm0-.456c-.968 0-2.01.447-2.62 1.057-.626.626-.697 1.45-.697 2.068V18h6.635v-.24c0-.617-.047-1.442-.673-2.068-.61-.61-1.677-1.057-2.645-1.057zm4.837-2.205V18h.931v-5.57zm6.4.009V18h.93v-5.561zm6.515 0V18h.931v-5.561zM142.456.573q.516 0 .955.411.44.41.44.965 0 .516-.373.946-.372.43-1.022.43-.611 0-1.013-.45-.401-.448-.401-.926 0-.516.401-.946.402-.43 1.013-.43zm-1.7 3.88q-.115 0-.134.133 0 .115.133.115.115 0 .134-.115-.019-.134-.134-.134zm0-.058q.19 0 .19.191 0 .153-.19.21-.115-.019-.23-.114.057-.287.23-.287zm.494-.206q-.142 0-.304.015.172.095.077.248-.096-.153-.268-.153-.324 0-.324.402.19.133.171.248-.019.115-.057.153.134.134.249.688.076 0 .095-.058-.019-.592.038-.783.172-.344.478-.353h.026q.288 0 .461.2.182.21.124.478-.057.267-.821.592v.038q1.185-.305 1.08-1.06-.092-.655-1.025-.655zm.518-.195q.745 0 .84.917.096.917-1.49 1.223.268.114.44.42t.191.63q-.08.025-.153.025-.157 0-.287-.11-.19-.163-.458-.812-.407-1.11-.975-1.11l-.038.001h-.172q.024-.144.11-.144.05 0 .12.049.043-.088.168-.088.094 0 .233.05-.268-.287-.268-.574l.033.002q.126 0 .177-.135.01.006.028.006.092 0 .402-.16.373-.19 1.1-.19zm-7.019 1.57q.11 0 .245.063.43.201.296 1.653-1.089-.974-.907-1.414.124-.301.366-.301zm6.34 1.984q.116 0 .259.095-.497.344-.459 1.74h-.248q-.02-1.32.172-1.644.112-.19.276-.19zm1.768-3.402q.67.02 1.472 1.348.802 1.328.802 3.888h-.573q-.02-2.025-1.758-2.025v2.025h-.382V6.535q1.089-.822.44-2.389zm-.92 3.678q.047 0 .099.01v1.969h1.184V7.834q.041-.008.08-.008.608 0 .608 1.977-.21 5.216-.726 6.554l.44.955h-6.325l1.318-.573q-.65-2.847-1.452-4.194-.803-1.348-.363-1.653.11-.077.228-.077.355 0 .785.688l2.637 3.554h.668l.153-5.254q0-1.979.665-1.979zM142.455 0q-.898.02-1.443.621-.544.602-.544 1.347 0 .63.286.994.23.382.554.592l-.043-.001q-.308 0-.683.25-.42.286-.382.382-.054-.044-.115-.044-.046 0-.095.025-.115.057-.096.229-.554.191-.554 1.185.245-.123.355-.123.028 0 .047.008.382 0 1.031 1.529-.133.114-.363.44-.229.324-.229 1.127v1.242h.478q-.02 1.05-.134 4.28l-2.656-3.63q-.555-.456-.876-.456-.111 0-.194.054l-1.013-2.026q.707-.343 1.548-.4-.038-.517-.363-.918-.688.516-1.338.783.42-1.93-.449-2.312-.263-.115-.483-.115-.505 0-.778.612-.392.88 1.233 1.987-.726.344-1.49.344.018.535.381.956.516-.535 1.357-.803l.669 2.331q-.21.077-.268.478-.057.401.717 1.835.774 1.433 1.251 3.515l-1.394.784.095.898h8.178l-.668-1.643q.573-2.523.592-6.535l1.051-.02q0-3.382-.936-4.843-.838-1.308-1.278-1.308-.052 0-.098.018 1.089-.573 1.146-1.72 0-.822-.602-1.376Q143.26.02 142.456 0zm11.419 0a20.674 20.674 0 0 1-1.514.051c-.108.006-.116.143-.08.22.224.632.418 1.274.6 1.92h-.026c-.18.003-.362 0-.54.017l-.008.014c-.01-.041-.039-.078-.08-.088a38.275 38.275 0 0 1-1.7-1.23c-.014-.003-.028-.007-.043-.007a.06.06 0 0 0-.01 0c-.055.035-.075.112-.106.169-.097.263-.18.533-.288.792-.078.196-.164.392-.222.594.026.056.075.074.128.074a.537.537 0 0 0 .151-.03c.687-.147 1.394-.134 2.093-.143-.07.153-.099.324-.162.48-.028.089-.062.179-.081.27a.123.123 0 0 0-.018-.001c-.007 0-.014 0-.02.003-.854.33-1.687.735-2.416 1.293a8.97 8.97 0 0 0-.998.868c-.007.128.138.17.234.206l.59.243c-.1.137-.126.315-.19.47-.33.969-.795 1.884-1.183 2.83.001.078.074.116.144.116a.177.177 0 0 0 .074-.016c.137-.026.274-.038.412-.042-.029.107-.04.221-.088.322-.232.74-.612 1.42-.899 2.138-.014.078.06.127.13.127.02 0 .041-.005.06-.014a8.6 8.6 0 0 1 1.06-.122c-.04.099-.048.21-.079.312-.172.726-.423 1.443-.453 2.195-.006.49.053.978.13 1.46.134.793.374 1.565.683 2.307.003.068.065.11.126.11a.108.108 0 0 0 .097-.054c.045-.1.059-.212.093-.316.178-.643.306-1.3.362-1.964.056-.573.078-1.15.074-1.725-.024-.675-.184-1.333-.288-1.997-.018-.1-.03-.203-.057-.302a9.379 9.379 0 0 1 1.02.17c.107 0 .13-.143.083-.219-.29-.756-.584-1.512-.827-2.284l.035.006c.293.053.587.121.884.139.093-.078.026-.204-.019-.288-.358-.776-.65-1.591-.767-2.441-.038-.23-.037-.467-.077-.697.253.103.505.206.759.304.11-.026.115-.162.093-.252a2.806 2.806 0 0 1 .356-1.599c.237-.424.581-.772.93-1.104.14.12.301.208.458.303l-.079.02c-.288.557-.53 1.136-.789 1.707-.033.08-.072.16-.083.245.043.07.115.083.19.083.047 0 .096-.005.139-.005h.007l.321-.007c-.036.11-.046.234-.082.344-.206.853-.41 1.706-.614 2.56.024.09.115.109.2.109.026 0 .05-.002.073-.004l.53-.018c-.05.14-.071.29-.118.43-.23.838-.462 1.676-.686 2.515.025.093.118.113.205.113a902.933 902.933 0 0 1 .922-.028 1.156 1.156 0 0 0-.032.138c-.177.77-.448 1.524-.488 2.318a9.17 9.17 0 0 0 .268 2.137c.136.565.328 1.115.547 1.652.008.062.067.103.124.103a.101.101 0 0 0 .087-.046c.047-.084.055-.184.088-.274.239-.825.376-1.678.42-2.536.028-.457.044-.915.023-1.373-.047-.656-.196-1.299-.3-1.947-.013-.064-.023-.13-.04-.193.295-.01.59-.018.885-.03.105-.081.047-.224.018-.327-.251-.899-.5-1.799-.756-2.696.246-.01.493-.018.739-.03.103-.08.045-.221.014-.324l-.779-2.625c.265-.007.53-.013.794-.022.1-.066.05-.2.004-.285-.235-.534-.467-1.069-.711-1.598.176-.073.35-.148.521-.229.471.441.882.971 1.072 1.595.108.371.115.764.078 1.146.02.06.071.082.127.082a.265.265 0 0 0 .134-.039l.59-.243-.005.004a6.942 6.942 0 0 1-.463 2.262c-.13.353-.292.692-.434 1.04-.009.076.062.121.13.121a.136.136 0 0 0 .068-.017c.26-.038.52-.09.78-.14-.052.144-.088.295-.146.436-.222.648-.472 1.286-.713 1.927-.018.076.05.142.121.142a.107.107 0 0 0 .056-.015 7.66 7.66 0 0 1 .955-.154.761.761 0 0 0-.017.088c-.106.595-.222 1.19-.297 1.79a6.537 6.537 0 0 0-.024 1.128c.034.95.13 1.904.385 2.823.042.157.084.315.135.468.02.04.06.059.1.059.05 0 .1-.028.112-.082a10.56 10.56 0 0 0 .754-2.734c.067-.546.11-1.104.006-1.648-.106-.578-.277-1.142-.415-1.714-.022-.066-.034-.138-.056-.204.164.004.328.015.492.036.228.025.454.072.682.093.097-.028.089-.155.041-.222-.32-.77-.735-1.505-.94-2.317l-.01-.043c.039 0 .077.001.116.003.145.01.29.04.435.052.102-.045.077-.18.029-.256-.424-.964-.884-1.916-1.212-2.919-.03-.078-.052-.166-.098-.235l-.007-.005c.265-.11.53-.222.793-.336.063-.106-.042-.207-.12-.268-.675-.615-1.418-1.165-2.243-1.562a8.657 8.657 0 0 0-.955-.4c-.024-.073-.058-.145-.076-.217-.084-.241-.155-.49-.262-.723a.335.335 0 0 0 .07.006l.08-.001a37.286 37.286 0 0 1 .203 0c.613 0 1.229.02 1.827.157.018.008.04.012.061.012.061 0 .125-.03.112-.098-.116-.365-.28-.712-.4-1.076a5.256 5.256 0 0 0-.17-.443.15.15 0 0 0-.08-.01c-.562.41-1.113.837-1.695 1.22-.06.032-.14.093-.096.17v.001a1.13 1.13 0 0 0-.21-.016l-.213.003a1.657 1.657 0 0 1-.091-.001h-.046a.103.103 0 0 0 .004-.039c.227-.677.454-1.363.842-1.968.047-.062.013-.169-.062-.183a.087.087 0 0 0-.016-.001zm8.209 0c-.93 0-1.745.684-1.745 1.562V18h1.136V1.562c0-.43.379-.57.616-.57.25 0 .634.175.634.703v10.804h1.136V1.695c0-.88-.87-1.695-1.777-1.695zm9.659.911v2.43q-.536-.8-3.22-.8h-1.983V.911zm.03-.911q-1.093.202-3.25.202h-2.662V3.25h2.663q1.407 0 2.014.293.618.294 1.205.84l.03 13.617h1.175V0zm9.057.911v2.43q-.537-.8-3.22-.8h-1.984V.911zm.03-.911q-1.093.202-3.25.202h-2.662V3.25h2.662q1.408 0 2.015.293.618.294 1.205.84l.03 13.617h1.174V0zm9.056.911v2.43q-.536-.8-3.219-.8h-1.984V.911zm.03-.911q-1.093.202-3.249.202h-2.663V3.25h2.663q1.407 0 2.015.293.617.294 1.204.84l.03 13.617h1.175V0zm11.997 4.07l.949 2.213q-.474.158-.949.158-.474 0-.948-.158l.948-2.213zm0-1.738l-2.074 4.544q.968.435 2.074.435 1.107 0 2.075-.435l-2.075-4.544zm2.806-1.463q.158 3.26.929 6.165-.949 1.067-3.735 1.067t-3.734-1.067q.77-2.904.929-6.165zM197.951 0q-.474 0-.474.435 0 .434.474.434.119.1.376.218-.159 2.885-1.087 6.48 1.739 1.423 4.702 1.423 2.964 0 4.703-1.422-.929-3.596-1.087-6.481.257-.119.376-.218.474 0 .474-.434 0-.435-.474-.435zm3.991 14.1q3.108 0 6.591 1.501-3.483 1.46-6.59 1.46-3.087 0-6.591-1.46 3.504-1.501 6.59-1.501zm0-.96q-3.837 0-8.822 2.44 4.985 2.42 8.822 2.42 3.838 0 8.823-2.42-4.964-2.44-8.823-2.44zM214.861.846l10.4 1.522-.21.782-8.795-1.395 5.771 8.032h-1.099L214.861.846zm14.67 9.597v1.12h-15.875v-1.12zM213.552 0l6.468 9.787h-6.469q-.528 0-.528.254v1.987q0 .171.428.171l.1-.002h16.087l.1.002q.429 0 .429-.17V10.04q0-.254-.529-.254h-6.68l-5.306-7.208 7.97 1.268.486-1.987L213.55 0zm8.152 15.022c.287 0 .46.049.548.1.26.165.136.562.094.81h-1.284c-.03-.253-.17-.64.095-.81.089-.051.261-.1.547-.1zm-7.133 1.498v.892h-1.218v-.892zm6.329 0v.892h-6.036v-.892zm1.467 0v.892h-1.174v-.892zm5.893 0v.892h-5.6v-.892zm1.575 0v.892h-1.282v-.892zm-10.709-2.39l-.415.416 1.39 1.386h-7.336V18h17.658v-2.068h-7.115l1.39-1.386-.416-.416-1.284 1.281c-.077-.776-.61-.955-1.294-.977-.73.02-1.18.185-1.293.977l-1.285-1.281zM253.07 1.052c.2 0 .3.727.3.927 0 .201-.1.928-.3.928h-19.244c-.234 0-.35-.727-.35-.928 0-.2.116-.927.35-.927zM233.225 0c-.535 0-.802 1.077-.802 1.98 0 .902.267 1.979.802 1.979h20.446c.501 0 .752-1.077.752-1.98 0-.902-.25-1.979-.752-1.979zm19.845 7.556c.2 0 .3.726.3.927 0 .2-.1.927-.3.927h-19.244c-.234 0-.35-.727-.35-.927 0-.2.116-.927.35-.927zm-19.845-1.053c-.535 0-.802 1.078-.802 1.98 0 .902.267 1.98.802 1.98h20.446c.501 0 .752-1.078.752-1.98 0-.902-.25-1.98-.752-1.98zm.613 7.242q.22 0 .502.048 3.636.276 7.383.91l-.8 2.506q-3.387-.854-6.858-2.149-1.13-.385-.992-.881.103-.434.765-.434zm.105-.738q-1.23 0-1.476 1.006-.275 1.075 1.13 1.626 3.663 1.35 7.272 2.286.214.075.357.075.226 0 .276-.185l1.047-3.196q.11-.44-.413-.578-4.105-.661-7.878-1.02-.165-.014-.315-.014zm11.751.738q.22 0 .502.048 3.637.276 7.383.91l-.799 2.506q-3.388-.854-6.859-2.149-1.13-.385-.992-.881.104-.434.765-.434zm.105-.738q-1.23 0-1.476 1.006-.275 1.075 1.13 1.626 3.663 1.35 7.272 2.286.214.075.358.075.225 0 .275-.185l1.047-3.196q.11-.44-.413-.578-4.104-.661-7.878-1.02-.165-.014-.315-.014z"/></svg>