<svg xmlns="http://www.w3.org/2000/svg" width="92.485" height="18"><path d="M18.058.568q-.111.037-.111.128t.07.146q.027.022.054.022.04 0 .077-.05.063-.081.021-.163-.041-.083-.11-.083zM2.67.47q-.153 0-.296.282.084.183.264.237.028.01.054.01.131 0 .224-.229 0-.255-.194-.292Q2.695.47 2.669.47zM1.665.787q-.042.128.027.238l-.583.073q-.014-.164.556-.31zm.568.436zm.105-.003q.12 0 .195.033.027.012 0 .012-.052 0-.288-.04.05-.005.093-.005zm2.564 1.252q.035 0 .097.068 1.125 1.223 2.792 2.865Q9.46 7.048 9.667 7.724 8.305 7.468 7.34 6.318q-.966-1.15-1.681-2.236-.716-1.086-.799-1.414-.017-.196.042-.196zm.046-.868q.202 0 .384.096 4.321 4.308 4.946 5.604.584 1.405.764 2.154-.076.11-.182.11-.087 0-.193-.074l-.57-1.515q-.43-1.296-2.104-2.875-1.674-1.579-2.424-2.5-.441-.542-.676-.542-.164 0-.227.268-.108.455-.38.455-.115 0-.26-.081.126-.858.542-1.022.198-.078.38-.078zm.357 6.43q.666 1.405.541 2.83-.125 0-.236.236-.045-.403-.277-.403-.051 0-.112.02.292-1.405.084-2.683zM2.827.346q.066 0 .116.013.25.063.292.237.029.122.058.122.013 0 .025-.022.042-.073.056-.164.305.53.041 1.57t.848 1.24q1.028 3.104 2.209 4.72 1.18 1.615.986 3.038-.449-.438-.993-.438-.113 0-.23.019.042-1.296-.472-2.556t-.945-1.889q-.43-.63-1.16-1.497-.73-.867-.722-1.789.007-.921.194-1.286.188-.365.181-.584-.003-.091-.027-.091-.035 0-.112.182-.132.31-.73.328l-.07.001q-.568 0-1.235-.274l.82.073q.404.11.601.11.162 0 .183-.074.049-.164-.076-.192-.125-.027-.257-.027t-.201.055l.026.052-.29-.052Q1.762.787 1.887.623q.028-.055.097-.055-.028.183.049.274.028.034.056.034.046 0 .09-.098.07-.155-.125-.228.511-.204.773-.204zm15.412.04q.375 0 .555.365.056.055.695.2v.056l-.695.073q-.597 0-.75-.12-.153-.118-.146-.273.007-.155.188-.155.18 0 .25.082t.035.173q-.035.092-.132.147h.028q.18 0 .187-.22.007-.237-.299-.273-.389 0-.291.374.092.357.854.357l.076-.001q.431-.037.765-.128L19.53.97q1.236 1.004 1.16 2.29-.077 1.288-.966 2.136-.889.85-1.584 1.871-1.083 1.734-1.167 2.72-.083.986.376.986.458 0 1.118-.721.66-.721 1.34-.74 1.82.055 1.612 2.209-.667-.93-1.5-.93-.417 0-1.14.474-1.097.766-1.667.766l-.472-.091q-.861-.84-.583-2.482.416-1.187 1.125-4.235.486-1.734.965-2.628.48-.895 1.022-.913.291 0 .944.365.027.01.047.01.094 0 .037-.21-.526-.429-1.226-.429-.225 0-.47.045-.208 0-.506-.146-.3-.146-.3-.694.251-.237.543-.237zM4.666 3.05q1.083 1.825 1.986 3.002.903 1.178 1.702 1.588.799.411 1.48.43.083.145 1.653 4.617l-.097.055-3.738-3.14q.028-.273-1.104-1.962-1.132-1.687-1.994-4.46l.112-.128zM8.5 10.918l2.07 1.66q.07.256-.5.348-.127.02-.233.02-.37 0-.49-.248-.152-.32-.389-.831-.236-.511-.458-.95zm7.071-.785q0 .767.167 1.332.43 1.004 1.153 1.023h.038q.711 0 1.699-.657.938-.625 1.365-.625.034 0 .066.004.416.055.903.566.486.51.514.894.05.311-.043.311-.06 0-.18-.128-.399-1.05-1.024-1.05h-.01q-.633.01-1.557.648-.923.639-2.153.639t-1.368-1.04q-.14-1.04.43-1.917zM5.277 11.192l.208.547q.195-.255.299-.3l.005-.002q.088 0-.304 1.543l-.583.238q-.153-.146.09-.904.243-.757.285-1.122zm14.763 1.14q.461 0 .727.502-.18.384-.847.603-.514 0-1.042-.566.685-.539 1.162-.539zm-1.607.758q.207.265.448.438h-1.883q.692-.095 1.435-.438zm-7.182 1.15q-1.554 2.935-4.48 3.011-2.913-.076-4.467-3.011zm11.239.018q-1.554 2.935-4.48 3.012-2.913-.077-4.48-3.012zM3.066.008q-.084 0-.179.013-.222 0-1.264.42-.834.255-.903.657l.028.62.417-.2q.68.292 1.139.292.458 0 .347.41-.111.411.028 1.37.139.958 1.097 1.934.959.977 1.188 2.556.23 1.578-.41 3.641l.209-.164q.004-.004.007-.004.046 0-.216.816-.277.867-.757.894-.084.005-.16.005-.348 0-.486-.105-.155-.12-.462-.12l-.045.001q-.34.01-.34.302v.182H1.33Q2.93 17.982 6.777 18q3.849-.018 5.446-4.472l-4.279.037q0-.165-.264-.356-.129-.094-.296-.094-.175 0-.391.103-.13.061-.278.061-.337 0-.771-.317.097-.639.236-1.14.139-.503.528-.594.036-.008.073-.008.362 0 .816.811.264-.675.153-1.825l.139.128q1.042 2.3 1.257 2.701.163.305.634.305.15 0 .331-.031.75-.128.737-.475l.639.42.486-.237-1.07-3.048q.264 0 .487-.292-.264-1.096-.82-2.446-.39-.822-.792-1.278Q8.681 4.603 7.5 3.39T5.763 1.518q-.373-.28-.775-.28-.226 0-.461.088-.653.246-.792 1.214-.042-.037.07-.73.11-.694-.05-1.287-.138-.514-.689-.514zM18.286 0q-.252 0-.478.094-.292.11-.347.42-.111.383.097.757.208.374.653.466-.89 1.058-1.514 3.741-.584 2.556-.973 3.779-1.042 1.113-1.035 2.236.007 1.122.424 1.597.301.343.878.438h-3.434q1.597 4.454 5.446 4.472 3.848-.018 5.445-4.472h-2.674q.153-.11.313-.256.156.245.354.245.083 0 .174-.044.347-.219.139-1.004.194-2.245-.459-2.865-.653-.621-1.473-.621-.75 0-1.625.849-.543.526-.743.526-.124 0-.118-.198.014-.52.611-1.761.403-.876 1.75-2.254 1.348-1.378 1.334-2.775-.014-1.396-.597-2.099-.584-.703-1.292-.794-.111-.2-.292-.328-.18-.128-.48-.146Q18.329 0 18.287 0zM41.01.846l-10.4 1.522.211.782 8.794-1.395-5.77 8.032h1.098L41.01.846zm-14.67 9.597v1.12h15.875v-1.12zM42.32 0l-6.468 9.787h6.469q.528 0 .528.254v1.987q0 .171-.428.171l-.1-.002H26.234l-.1.002q-.428 0-.428-.17V10.04q0-.254.528-.254h6.68L38.22 2.58l-7.97 1.268-.486-1.987L42.321 0zm-7.932 15.022c.286 0 .459.049.548.1.26.165.136.562.094.81h-1.284c-.03-.253-.17-.64.094-.81.09-.051.262-.1.548-.1zm-7.133 1.498v.892h-1.219v-.892zm6.328 0v.892h-6.035v-.892zm1.468 0v.892h-1.174v-.892zm5.893 0v.892h-5.6v-.892zm1.575 0v.892h-1.282v-.892zM31.81 14.13l-.415.416 1.39 1.386h-7.337V18h17.659v-2.068h-7.115l1.39-1.386-.416-.416-1.284 1.281c-.077-.776-.61-.955-1.294-.977-.73.02-1.18.185-1.293.977L31.81 14.13zM54.871.578q.536 0 1.084.06l-.015 4.417h-7.05q-.126-.253 1.107-.715-.28-.21-.518-.59.126-.434 1.472-.714-.323-.183-.561-.505.168-.28 1.542-.645-.196-.21-.379-.575 0-.238 1.437-.54.923-.193 1.882-.193zM54.81 0q-.507 0-.944.043-1.08.105-1.85.28-.772.175-1.543 1.002.028.35.224.365-.883.196-1.261.827.042.21.238.35-.8.169-1.094.884.042.21.379.364-.981.225-1.388 1.08.112.294.449.364h8.425V.092Q55.553 0 54.81 0zm-6.332 6.946q-1.377.031-2.28.997-.996 1.092-1.091 2.184 0 .254.285.254h13.233q.285 0 .285-.301 0-.3-.285-.3H45.819q.791-2.027 2.374-2.249h10.432q.285 0 .285-.3 0-.285-.285-.285zm-.345 8.4c.745 0 1.677.382 2.128.833.395.395.446.918.46 1.404h-5.154c.015-.486.066-1.009.46-1.404.452-.45 1.362-.833 2.106-.833zm0-.417c-.883 0-1.833.408-2.39.965-.572.572-.636 1.324-.636 1.887V18h6.053v-.22c0-.562-.042-1.314-.614-1.886-.557-.557-1.53-.965-2.413-.965zm7.61-2.686q.562 0 1.147.246l-1.111 1.125-1.14-1.125q.541-.246 1.104-.246zm-2.431 1.472l1.125 1.125-1.125 1.126q-.49-1.169 0-2.251zm4.862.058q.49 1.168 0 2.25l-1.126-1.125 1.126-1.125zm-.88-.953q.346.16.548.549l-1.53 1.543 1.515 1.515q-.187.376-.562.549L55.75 15.46l-1.486 1.486q-.375-.231-.548-.563l1.486-1.472-1.559-1.558q.16-.375.563-.534l1.544 1.544 1.544-1.544zm-1.515 3.348l1.125 1.125q-.548.245-1.11.245-.563 0-1.14-.245l1.125-1.125zm-.03-4.4q-1.485 0-2.344.966-.858.967-.858 2.12 0 1.3 1.003 2.215 1.002.917 2.171.931 1.414-.014 2.301-.974.888-.96.888-2.171l-.015.029q.015-1.097-.873-2.107-.887-1.01-2.272-1.01zM63.258.33q-.193 0-.193.227 0 .193.193.193.204-.012.204-.216T63.258.33zm-.75.147v.205l-.443.08q.205-.217.443-.285zm.023.273q.261.204.09.306-.26-.09-.385-.238L62.53.75zm.795-.523q.534 0 .852.41.318.408.34 1.26.83.17 1.102.75.044.374-.169.374h-.013q-.227-.011-.357-.125-.048-.041-.072-.041-.043 0-.014.126.046.2.5.483.454.284.074.471-.095.047-.201.047-.323 0-.759-.427-.579-.568-.613-.863-.034-.296.238-.545.163-.149.112-.149-.035 0-.168.07-.33.17-.347.499-.017.33.262.72.278.393 1.095.995.084.043.19.043.224 0 .549-.197.477-.29-.477-.891.352-.091.363-.307.443.148 2.487 2.748.545.364.557.534-.012.16-.17.193-.035.008-.07.008-.129 0-.272-.099-.635.307-1.232.318l-.062.001q-.554 0-.92-.194.375.33.261.693-.055.176-.083.176-.03 0-.03-.199 0-.386-.988-.738v.432q-.059.244-.093.244-.033 0-.044-.222-.068-.488-.323-1.05-.256-.562-.812-1.556-.557-.994-.71-1.43-.153-.438-.142-.813.011-.374-.153-.55-.165-.177-.097-.381.068-.204-.204-.386V.466q.295-.239.613-.239zm2.158 6.542q.556.159.556.374l-.375 1.397q-.045.25-.306.25h-.455v-.023l.58-1.771v-.227zM63.367 0h-.041q-.443 0-.897.364-.261.09-.534.42.375.34.681.42.034.159.216.443.012.75.205 1.243.193.494 1.294 2.652.545 1.136.545 1.397 0 .397-.5 1.783 0 .08-.68.125-1.023.034-1.023.284 0 .147.136.147h3.021q.284-.227.318-.386.273.114.296.307.038.153.108.153.013 0 .028-.005.09-.034.09-.148-.079-.307-.397-.59l.364-1.534q1.101-.034 1.919-.352.151.034.277.034.253 0 .404-.136.227-.204-.09-.636-.693-.693-1.318-1.522-1.283-1.578-1.76-1.828-.16-.33-.38-.522-.222-.194-.801-.477-.012-.67-.313-1.159Q64.241 0 63.367 0zm5.672 11.009c.483.02.748.03.863.03h.052l-.062 2.529a3.709 3.709 0 0 1-.963-.573l.11-1.986zm-7.053-.63c-.161.032-.374.13-.348.323v1.41a26.954 26.954 0 0 0-.728-.032c0 .177.145.416.598.416.005.4.078.89.15 1.14l.063.654c0 .073.125.094.26.094.161 0 .338-.031.338-.031l-.026-.655c2.57.02 7.468.15 7.713.15.125 0 .208-.135.208-.322l.062-2.824-1.544-.016-.125 2.2c-1.118.005-3.053.187-4.369.187-.416 0-.775-.015-1.02-.067-.051-.057-.535-.76-.842-.838a1.349 1.349 0 0 0-.182-.02c-.052-.427-.104-.853-.15-1.275.093-.12.306-.088.363-.25.058-.077.021-.207-.088-.212a1.18 1.18 0 0 0-.307-.032zm-.23 6.334q-.053 0-.104.016-.197.064-.174.192.02.108.177.108.028 0 .061-.004.215-.023.377-.174-.18-.138-.337-.138zm.1-.118q.42 0 1.294.5.438.227.96.227.253 0 .525-.053.685-.14 1.44-.244.256-.035.496-.035.467 0 .873.134.615.203 1.022.26.406.059 1.288.105-.569.058-1.114.058-.546 0-1.289-.122-.371-.06-.715-.06t-.66.06q-.633.122-1.44.227-.2.026-.396.026-.584 0-1.106-.235-.508-.346-1.054-.346-.241 0-.49.067-.22-.011-.197-.243.127-.314.545-.325h.019zm.311-1.184q-.25 0-.468.767-.182-.677-.47-.677-.042 0-.087.015-.348.22.232.847-.464.267-.464.674 0 .406.684.452.212-.055.414-.055.473 0 .892.305.359.261 1.137.261.52 0 1.225-.116.867-.244 1.685-.244.31 0 .613.035.758.088 1.292.088.242 0 .438-.018.986-.024.986-.186-.267-.244-.754-.325-1.033-.012-1.886-.36-.427-.174-1.046-.174-.62 0-1.432.174-.524.132-.976.132-.619 0-1.102-.248-.499-.302-1.056-.499.464-.36.435-.598-.029-.238-.284-.25h-.008zM90.578.933c.64 0 .959.347.959 1.039v4.41H73.224V1.995c0-.708.327-1.062.982-1.062.496 0 1.117.557 1.862 1.669.744 1.12 1.493 1.68 2.245 1.68.737 0 1.407-.47 2.008-1.412.602-.941 1.099-1.513 1.49-1.715.203-.103.402-.155.598-.155.188 0 .372.048.553.143.368.195.857.767 1.466 1.715.602.95 1.272 1.424 2.009 1.424.775 0 1.53-.56 2.268-1.68.737-1.112 1.361-1.669 1.873-1.669zM90.555 0c-.79 0-1.557.568-2.302 1.703-.744 1.136-1.35 1.704-1.816 1.704-.444 0-1.042-.568-1.794-1.704C83.89.568 83.146 0 82.409 0c-.843 0-1.625.568-2.347 1.703-.715 1.136-1.298 1.704-1.75 1.704-.458 0-1.06-.568-1.804-1.704C75.763.568 74.996 0 74.206 0c-1.286 0-1.93.665-1.93 1.995v5.32h9.106c1.114.003 1.01.006 1.033.006.018 0 .116-.002.964-.006h9.106V1.972C92.485.657 91.842 0 90.555 0zM76.642 14.172c1.074 0 2.419.552 3.07 1.202.568.57.643 1.324.664 2.025H72.94c.02-.701.095-1.456.664-2.025.65-.65 1.963-1.202 3.037-1.202zm0-.601c-1.274 0-2.645.588-3.448 1.392-.824.824-.918 1.909-.918 2.72V18h8.732v-.316c0-.812-.061-1.897-.885-2.721-.804-.804-2.206-1.392-3.48-1.392zm6.366-2.921V18h.736v-7.35zm4.371 0V18h.735v-7.35zm4.37 0V18h.736v-7.35z"/></svg>