<svg xmlns="http://www.w3.org/2000/svg" width="50.723" height="18"><path d="M11.386 8.203c-.51.04-.793.296-.847.767.067.51.35.78.847.806.498-.026.76-.295.787-.806-.04-.47-.303-.726-.787-.767zm.06-1.694c.364 0 .7.068 1.01.202a2.659 2.659 0 0 1 1.371 1.361c.134.303.201.622.201.958 0 .35-.067.676-.202.978a2.567 2.567 0 0 1-2.38 1.523c-.362 0-.702-.064-1.018-.192a2.426 2.426 0 0 1-.816-.534 2.621 2.621 0 0 1-.545-.797 2.38 2.38 0 0 1-.202-.978c0-.336.068-.655.202-.958.134-.302.316-.571.545-.806.228-.236.5-.42.816-.555a2.574 2.574 0 0 1 1.019-.202zm-.04-.685c-.443 0-.86.084-1.25.252-.39.168-.726.396-1.008.685a3.36 3.36 0 0 0-.676 1.009 3.053 3.053 0 0 0-.252 1.24c0 .444.084.857.252 1.24.168.384.393.716.676.999a3.2 3.2 0 0 0 2.258.927c.444 0 .857-.084 1.24-.252a3.36 3.36 0 0 0 1.009-.675c.289-.283.518-.615.686-.999.168-.383.252-.796.252-1.24 0-.444-.084-.857-.252-1.24a3.268 3.268 0 0 0-1.694-1.694 3.053 3.053 0 0 0-1.24-.252zm7.991-3.154h-.003a.143.143 0 0 0-.135.15c.001.08.063.145.138.145h.002c.077-.002.137-.069.136-.15l-.138.002.138-.003c-.002-.08-.064-.144-.138-.144zm.025-.024a.561.561 0 0 1 .316.197l.062.123c.012.142-.04.359-.118.572a.44.44 0 0 0-.066-.207.475.475 0 0 0-.202-.164c-.135-.065-.259-.093-.395-.18a.198.198 0 0 0-.088-.031l-.07-.006a.198.198 0 0 0 .093-.12l-.003.014s.009-.014.029-.03a.721.721 0 0 1 .136-.08 1.04 1.04 0 0 1 .306-.088zm1.016.255a.997.997 0 0 1 .51.35c.158.206.245.493.3.827l-.582-.054c.05-.28.031-.593-.029-.81a.689.689 0 0 0-.2-.313zm-.435 2.705c.12.015.24.025.355.03 1.11.05 2.237.54 2.879 1.037.705.547 1.53.982 2.346 1.323a9.898 9.898 0 0 1-1.077.052 5.928 5.928 0 0 1-.203.004c-1.251 0-2.512-.395-3.488-1.173a2.51 2.51 0 0 1-.812-1.273zm-1.097-.472a.386.386 0 0 0 .184.217c.15.08.318.137.494.18.102.642.496 1.267.984 1.658 1.055.84 2.4 1.259 3.733 1.259a6.361 6.361 0 0 0 .248-.004 9.27 9.27 0 0 0 1.776-.158l-.001-.005c.393.14.775.26 1.13.358-.587-.039-1.2-.172-1.835-.191a6.54 6.54 0 0 0-.198-.003c-.597 0-1.186.075-1.744.085h-.074c-1.583 0-2.895-.907-4.163-2.13-.294-.284-.514-.848-.534-1.266zm6.874 3.72c.467.03.948.118 1.442.164.141.099.294.176.418.254a.89.89 0 0 1 .206.167.556.556 0 0 1-.06.016 1.309 1.309 0 0 1-.42.003 6.442 6.442 0 0 1-.967-.281 2.92 2.92 0 0 1-.619-.324zM19.425 2.25h-.01a1.18 1.18 0 0 0-.467.125 1.06 1.06 0 0 0-.216.13.535.535 0 0 0-.105.107c-.208.054-.465.076-.73.109-.3.036-.611.083-.881.248-.438.266-.765.77-.915 1.258a.198.198 0 0 0 .356.164c.457-.713.763-.92 1.1-.996a3.6 3.6 0 0 1 .77-.074c.169 0 .344.008.522.025.174.103.327.146.395.178.035.017.041.025.041.025s.006.007.003.053c-.006.103-.155.324-.344.558-.188.235-.412.49-.433.824-.036.573.215 1.277.654 1.7.406.392.824.759 1.26 1.077.092.603.21 1.445.28 2.034-.16.74-.563 1.398-.766 2.125-.062.135-.208.192-.35.192a.539.539 0 0 1-.134-.017 4.364 4.364 0 0 0-.624-.06 1.848 1.848 0 0 0-.208.01c-.144 0-.626.192-.554.462.022.06.448.088.9.088.336 0 .686-.015.9-.042a.406.406 0 0 0 .448-.341c.269-.742.585-1.467.85-2.21.002-.641-.17-1.263-.235-1.897.312.193.633.359.966.49.152.304.84 1.276 1.094 1.656l.136 1.933c-.358-.013-.71-.112-1.067-.112a1.59 1.59 0 0 0-.138.005c-.278 0-.367.544-.156.544a.14.14 0 0 0 .025-.002c.406.004.813.012 1.22.012.132 0 .265 0 .397-.003.139-.021.219-.185.179-.313l-.158-2.188c-.14-.257-.551-.866-.862-1.321a4.496 4.496 0 0 0 1.116.12c.515-.01 1.029-.066 1.527-.08.21.341.635.541 1.045.7.432.167.857.266 1.035.301a1.657 1.657 0 0 0 .568-.003.689.689 0 0 0 .277-.103.338.338 0 0 0 .119-.135.313.313 0 0 0 .015-.21.703.703 0 0 0-.29-.374l.023-.003c.07-.01.134-.023.195-.043a.37.37 0 0 0 .095-.043.222.222 0 0 0 .11-.153.23.23 0 0 0-.056-.198.348.348 0 0 0-.083-.07 1.078 1.078 0 0 0-.174-.086 3.304 3.304 0 0 0-.377-.126c-1.292-.347-2.989-.974-4.234-1.94-.717-.556-1.891-1.065-3.103-1.12-.385-.017-.833-.097-1.1-.239l.013.006c.005 0-.017-.023-.025-.061-.011-.05 0-.113-.001-.113.043-.097.148-.214.275-.342.126-.129.273-.27.367-.464.115-.234.245-.521.284-.813.039.045.062.09.067.106.037.134.033.656-.025.809a.198.198 0 0 0 .167.267l1.063.099a.199.199 0 0 0 .215-.22c-.055-.46-.142-.911-.415-1.266-.27-.352-.723-.573-1.396-.589a.733.733 0 0 0-.44-.17zm-1.822 11.714l-1.51 1.786h.736l.774-.923.781.923.76-.923.78.923.774-.923.781.923.774-.923.781.923.76-.923.78.923.782-.923.759.923.78-.923.775.923h.736l-1.51-1.786-.781.863-.76-.863-.78.863-.782-.863-.759.863-.78-.863-.775.863-.78-.863-.775.863-.78-.863-.76.863-.78-.863zM30.7 10.977v1.225h2.704v-1.225h-.53c-.155.272-.331.449-.53.53a.76.76 0 0 1-.59 0c-.195-.081-.37-.258-.524-.53zm1.64-4.458v2.03h-.614v2.483h.662V9.476h.768V7.347h.95c.168 1.324.628 2.308 1.379 2.952.75.643 1.677 1.016 2.78 1.12 1.103.102 1.828.248 2.174.435.345.188.518.377.518.569h1.346c-.206-.493-.481-.868-.827-1.126-.346-.257-.988-.42-1.926-.485-.937-.067-1.688-.19-2.25-.37a3.588 3.588 0 0 1-1.507-.96c-.44-.46-.78-1.447-1.015-2.963zm-.892 7.115l-1.542 1.823h.752l.79-.942.797.942.774-.942.798.942.79-.942.797.942.79-.942.797.942.774-.942.797.942.798-.942.774.942.797-.942.79.942h.752l-1.542-1.823-.797.881-.774-.88-.798.88-.797-.88-.774.88-.798-.88-.79.88-.797-.88-.79.88-.797-.88-.774.88-.797-.88zm8.138-9.187c-.409.032-.634.237-.677.613.053.409.28.624.677.646.398-.022.608-.237.63-.646-.033-.376-.243-.58-.63-.613zm.049-1.355c.29 0 .559.054.806.161a2.127 2.127 0 0 1 1.097 1.089c.108.242.162.498.162.767 0 .28-.054.54-.162.782a2.029 2.029 0 0 1-1.097 1.065 2.092 2.092 0 0 1-.806.153c-.29 0-.562-.05-.815-.153a1.94 1.94 0 0 1-.654-.428 2.097 2.097 0 0 1-.435-.637 1.905 1.905 0 0 1-.161-.782c0-.27.053-.525.16-.767.108-.242.254-.457.436-.645.183-.188.401-.336.654-.444.253-.107.524-.161.815-.161zm-.033-.549a2.5 2.5 0 0 0-1 .202c-.312.135-.58.317-.807.549-.225.23-.406.5-.54.806a2.443 2.443 0 0 0-.202.993c0 .354.067.685.202.992.134.306.315.572.54.798a2.56 2.56 0 0 0 1.807.742c.355 0 .686-.067.993-.201.306-.135.575-.315.806-.54.231-.227.414-.493.549-.8.134-.306.201-.637.201-.991 0-.355-.067-.686-.201-.993a2.615 2.615 0 0 0-1.355-1.355 2.443 2.443 0 0 0-.993-.202z"/><path d="M8.22.375c-9.625 0-9.625 17.25 0 17.25m0-17.25h34.253M8.22 17.625h34.253M50.16.375v17.25M42.473.375c9.625 0 9.625 17.25 0 17.25" fill="none" stroke="#000"/></svg>