<svg xmlns="http://www.w3.org/2000/svg" width="69.329" height="18"><path d="M3.01.474c.693 0 1.247.2 1.634.479.006.053.02.107.009.16-.05.248-.195.477-.396.63-.316.207-.697.267-1.057.356-.09.01-.019.031.031.04.23.04.707.099.971.099l.052-.001c.278-.032.54-.148.766-.311.079-.067.147-.15.205-.236.147.346.227.713.26.917.018.11.096.2.202.233 1.139.349 2.038 1.91 2.88 2.949 1.729 2.137 3.199 4.526 4.892 6.76-.937-.456-1.87-.916-2.81-1.374-1.92-1.01-3.92-1.816-5.604-3.09l-.008-.008c-.97-.808-1.963-1.66-2.339-2.793-.148-.92 1.757-2.577 1.542-2.646a.207.207 0 0 0-.064-.01c-.458 0-1.753 1.128-2.019 2.202-.003-.014-.01-.03-.014-.045-.073-.356-.154-1.256.068-1.98a.29.29 0 0 0 .01-.103 1.968 1.968 0 0 0-.123-.634c-.063-.17-.139-.344-.26-.765-.031-.108-.142-.328-.208-.345.186-.138.375-.28.645-.375a.434.434 0 0 0-.132.314c0 .23.164.415.365.415.2 0 .364-.186.364-.415V.894a.411.411 0 0 0-.255-.39c.053-.007.096-.019.154-.022.081-.006.16-.008.238-.008zm.67 7.763c.065.065.135.124.202.187.214.78.412 1.64.692 2.305.483 1.145 1.216 2.141 1.84 3.154a1.814 1.814 0 0 0-.385.27 6.831 6.831 0 0 0-.199.193 2.61 2.61 0 0 0-1.186-.897c.045-.723-.108-1.712-.34-2.787a34.903 34.903 0 0 0-.624-2.425zm1.006.908c1.149.945 2.428 1.738 3.676 2.54-.018.91-.018 1.778.084 2.675a3.411 3.411 0 0 0-1.437-.736c-.02 0-.037.012-.057.012-.649-1.063-1.383-2.06-1.837-3.134-.156-.37-.293-.85-.429-1.357zm.407 5.254a2.5 2.5 0 0 1 .44.541.3.3 0 0 0 .257.14.29.29 0 0 0 .17-.053c.215-.156.347-.324.476-.446.047-.045.097-.08.148-.117l.149 2.722c-.213-.014-.435-.035-.637-.035-.264 0-.495.036-.633.172-.169-.134-.497-.164-.89-.164-.102 0-.207.002-.316.004l.836-2.764zM6.25 9.574c1.354.787 2.784 1.414 4.135 2.125a.244.244 0 0 0 .006.003c1.295.631 2.586 1.28 3.894 1.904.984 1.189 2.052 2.295 3.078 3.42l-2.15.362-4.267-4.635a.288.288 0 0 0-.037-.036c-1.499-1.137-3.152-2.082-4.66-3.143zM3.076 0c-.135 0-.273.005-.411.013C1.58.083.792.54.523 1.157c-.04.093-.146.314-.007.314a2.35 2.35 0 0 1 .341-.028c.418 0 .38.172.47.194.09.282.29.846.303 1.068-.244.86-.153 1.763-.064 2.198.15.732.63 1.584 1.261 2.38a.285.285 0 0 0 0 .166 35.3 35.3 0 0 1 .903 3.336c.251 1.168.393 2.277.317 2.823a.294.294 0 0 0 .221.328c.045.011.084.031.127.045l-.928 3.079a2.847 2.847 0 0 0-.593-.055c-.381 0-.756.05-1.064.05-.125 0-.24-.008-.34-.032a.546.546 0 0 0-.125-.012c-.436 0-1.428.306-1.34.879.15-.128.257-.159.375-.159.11 0 .23.027.405.027h.027c.254-.004.697-.083 1.053-.083.18 0 .338.02.438.08.236-.01.45-.013.649-.013.85 0 1.447.07 2.5.075a89.565 89.565 0 0 0 2.974-.079c.45.003.697.054.922.054h.04c.134-.004.265-.057.48-.057.123 0 .273.017.468.07-.25-.341-.877-.685-1.33-.685a.591.591 0 0 0-.302.071 5.081 5.081 0 0 0-.508-.022c-.22 0-.448.01-.678.02l-.157-2.83c.487.203.857.517 1.281 1.021a.295.295 0 0 0 .513-.246c-.192-1.039-.213-2.019-.202-3.06.54.354 1.072.713 1.576 1.094l4.36 4.738a.29.29 0 0 0 .263.09c.95-.159 1.9-.315 2.849-.474a.294.294 0 0 0 .23-.193.298.298 0 0 0-.06-.297c-.741-.83-1.508-1.631-2.25-2.445 1.269.78 2.875 1.755 3.08 1.755.022 0 .027-.013.012-.04-.094-.163-.9-.755-1.775-1.373.14.058.276.12.415.177l.017.01c.103.035.16.059.27.062a.286.286 0 0 0 .108-.016.317.317 0 0 0 .188-.152.32.32 0 0 0 .023-.238c-.017-.05-.038-.077-.054-.098-.061-.085-.103-.109-.162-.154a4.553 4.553 0 0 0-.205-.149c-.153-.105-.336-.223-.493-.328a4.992 4.992 0 0 1-.328-.233.307.307 0 0 0-.028-.025l-3.892-2.736c-.008-.006-.02-.001-.028-.006-1.333-1.869-2.588-3.825-4.046-5.627-.744-.92-1.598-2.528-2.985-3.064-.067-.396-.218-1.127-.755-1.649C4.827.26 4.168.056 3.427.011A5.728 5.728 0 0 0 3.076 0zM25.85 4.787q-.407 0-.472.314v.019q.047.083.194.083.425-.185.425-.342v-.018q0-.037-.148-.056zm1.477-.572q-.065.36-.637.775l.203.083.277-.101.138.092q1.062.508 2.817.536l2.752.027h.037q.47 0 .457.688-.014.716-.485 1.436-.296 0-.6-.226-.305-.226-.5-.53-.193-.306-.498-.795.093.97.554 1.524-.563 0-1.002.106-.219.053-.365.053-.147 0-.221-.053-.092-.066-.457-.066-.222 0-.545.024-.249.02-.455.02-.501 0-.75-.112-.23-.194-.29-.679-.06-.485.272-1.343-.684.489-.684 1.486v.333q-.341-.351-.535-.776-.379-.942-1.035-.942-.249 0-.96.314-.24-.101-.194-.323l.462-.619q.332-.563.48-.628.074-.138.72-.138.277.074.277.203 0 .175-.184.35.35-.073.508-.415 0-.083.443-.304zm.398-1.965q-.045 0-.103.072-.701 1.117-1.274 1.551-.222.194-.6.203-.185 0-.563-.277-.564-.545-.785-.923-.25-.444-.324-.49-.037 0-.055.093 0 .526 1.071 1.948-.203.296-.378.674-.176.379-.416.577-.24.199.046.393 0 .24.397.388l.988-.287q.397 0 .545.333.49.738.49 1.542.055 1.071-.74 2.05-.249.166-.249.461 0 .12.305.12.499 0 .499-.12l-.037-.249q0-.13.194-.194v-.018q0-.176.628-1.764.286 0 .452.277.213.702.213 1.164 0 .101-.13.434-.157.12-.194.434h.74l-.056-.231q-.037-.139.101-.24l-.064-.342q-.12-1.302-.12-1.533v-.018q.73-.176 1.122-.176.392 0 .604.143.085.057.237.057.23 0 .618-.13.419-.142.643-.142.119 0 .183.04.185.115.185.392 0 1.016-.517 1.727-.167.166-.25.462h.637q.167-.056.074-.277.019-.24.222-.305 0-.84.739-1.662.517.286.526.886 0 .231-.092.628l-.111.305q-.102.12-.185.453h.61q.11-.047.138-.102l-.092-.296q-.046-.129.13-.23-.093-.49.12-.74-.435-1.015-.435-1.597.231-.95.296-1.782.11.582.027 1.395-.083.812.277 1.68.07.146.129.146.04 0 .074-.072.093-.526.037-2.909-.073-.295-.157-.452-.295-.453-.507-.471h-2.983q-2.207 0-3.269-.628.176-.314.194-.43.018-.115 0-.281-.443.13-.665.342l-.185-.139q.194-.12.62-.776.424-.655.498-1.025-.031-.062-.073-.062zm4.893 10.098c.488.021.755.032.87.032h.053l-.063 2.547a3.738 3.738 0 0 1-.97-.576l.11-2.003zm-7.107-.634c-.163.031-.377.131-.351.325v1.42c-.315-.015-.64-.031-.734-.031 0 .178.147.42.603.42.005.403.078.896.152 1.147l.063.66c0 .074.125.095.262.095.162 0 .34-.031.34-.031l-.026-.66c2.59.02 7.527.151 7.773.151.126 0 .21-.136.21-.325l.063-2.846-1.557-.016-.126 2.217c-1.127.006-3.076.19-4.402.19-.42 0-.781-.017-1.028-.069-.052-.058-.54-.765-.849-.844a1.36 1.36 0 0 0-.183-.02c-.053-.43-.105-.86-.152-1.285.094-.12.309-.09.366-.252.058-.078.021-.21-.089-.215-.063-.026-.235-.031-.309-.031zM41.94 2.543c.023 0 .048.003.074.01.144.04.185.159.124.358l-1.042 2.696h-.507l1.106-2.852c.057-.141.138-.212.244-.212zm.86.217c.029 0 .06.005.093.015.165.048.196.171.091.37l-.95 2.462h-.508L42.53 2.99c.062-.153.152-.23.27-.23zm-2.572 3.976c-.08 0-.173.014-.277.043v.13a.933.933 0 0 1 .28-.05c.072 0 .137.013.195.037.126.052.293.087.501.104l-.065-.065a27.78 27.78 0 0 1-.456-.17.494.494 0 0 0-.178-.029zm.1.29l.235.078a1.737 1.737 0 0 1-.235.078c.052-.043.052-.095 0-.156zm-.195 0c-.026.052-.018.109.026.17a.807.807 0 0 1-.156-.053c.008-.043.052-.082.13-.117zm.065-.091c-.113 0-.191.043-.234.13l-.118.065-.013.065.118.026a.42.42 0 0 0 .23.059c.13 0 .288-.041.473-.124h.286v-.09h-.3c-.182-.088-.33-.131-.442-.131zm2.357-1.08l-.886 1.627c-.058.08-.112.121-.162.121a.109.109 0 0 1-.072-.03l-.287-.182c.018-.061.087-.152.209-.274.121-.121.147-.267.078-.436-.04-.096-.115-.144-.226-.144a.834.834 0 0 0-.32.085c-.278-.166-.523-.25-.735-.25l-.06.003a2.686 2.686 0 0 0-.091-.52zm-2.498.74c.222 0 .512.097.87.288.078-.087.156-.13.234-.13.079 0 .12.039.124.117.005.078-.065.18-.208.306s-.21.232-.202.319l.04.013a.64.64 0 0 1-.261.449c-.148.109-.348.167-.6.176a.936.936 0 0 1-.048.001c-.13 0-.188-.033-.173-.099a.206.206 0 0 0-.039-.189l.075.002c.243 0 .307-.042.192-.125-.085-.062-.153-.093-.205-.093a.093.093 0 0 0-.062.021c.035-.13-.034-.2-.208-.208.191-.321.339-.604.443-.847h.028zm.935.965l.378.234c.026.4.108.677.247.834a1.596 1.596 0 0 0-.21-.015c-.05 0-.097.003-.141.008a.546.546 0 0 0-.3.15 2.489 2.489 0 0 0-.325-.664c.225-.165.343-.347.351-.547zm-3.891 2.77c.189 0 .366.092.532.277-.313.008-.521.108-.625.3-.087-.218-.195-.34-.326-.365-.13-.026-.06-.085.209-.176a.652.652 0 0 1 .21-.036zM41.5 8.914c.339 0 .551.191.638.573.122.53.139 1.354.052 2.474a40.496 40.496 0 0 1-.364 3.19l.156.234h-4.323l.898-.364c-.26-1.276-.586-2.212-.976-2.806-.39-.595-.456-.979-.196-1.152a.443.443 0 0 1 .247-.083c.176 0 .35.127.522.382l1.758 2.5.312-.026c.191-1.944.395-3.394.612-4.349.104-.382.326-.573.664-.573zm.376-6.664c-.25 0-.419.147-.506.44l-1.12 2.917h-.56c.104.347.156.655.156.924-.06.243-.175.486-.345.73-.163.234-.13.351.099.351h.025c-.06.087-.052.139.026.156-.07.035-.078.072-.026.11.052.04.074.125.065.255-.026.382-.128.692-.306.93-.146.197-.279.295-.399.295a.216.216 0 0 1-.076-.014.459.459 0 0 0-.154-.035c-.052 0-.087.018-.107.054-.034.065.011.133.137.202a.324.324 0 0 0 .16.037c.11 0 .248-.04.413-.122.256-.125.488-.514.697-1.165h.364c.113.104.2.256.26.456-.312 1.007-.568 2.482-.767 4.427l-1.758-2.474a1.217 1.217 0 0 0-.365-.365.758.758 0 0 0-.615-.308.987.987 0 0 0-.205.022v-2.8c0-.381-.135-.577-.404-.585a3.21 3.21 0 0 1 .638-.704c.074-.132.073-.198-.005-.198a.66.66 0 0 0-.242.081 8.5 8.5 0 0 0-.573.495c-.217.226-.34.393-.371.501l-.241.853c.005.14.027.21.067.21.032 0 .074-.043.128-.132.035-.113.083-.256.143-.43a.63.63 0 0 1 .352-.377c.148 0 .221.095.221.286v2.852c-.503.27-.644.451-.423.547.205.088.372.244.498.467.063.43.24.89.53 1.382.309.52.589 1.285.84 2.292l-.989.43.065.507h5.56l-.573-.677c.278-2.7.376-4.425.293-5.176-.082-.75-.271-1.165-.566-1.243-.209-.209-.291-.434-.248-.677l.326-.586c.512.373.768.876.768 1.51v6.849h.287V8.901c0-.755-.309-1.345-.925-1.77l.846-1.524h-.599l.925-2.396c.13-.33.072-.543-.176-.638a.927.927 0 0 0-.332-.069.618.618 0 0 0-.312.082c-.061-.191-.237-.302-.528-.332a.705.705 0 0 0-.073-.004zm4.646.85q.366 0 .966.2 1.028.342 2.129 1.43 1.101 1.09.88 2.02-.22.93-.856 1.395-.525.384-1.268.384-.156 0-.322-.017-.955-.098-1.64-1.505-.685-1.407-.636-2.509.049-1.1.342-1.297.143-.102.405-.102zm-.1-.85q-.505 0-.819.217-.66.465-.734 1.91-.073 1.443.832 3.132.906 1.688 2.203 1.847.248.03.482.03.993 0 1.745-.544.93-.673 1.162-1.909.233-1.235-.991-2.618-1.224-1.383-2.643-1.836-.72-.229-1.238-.229zm1.256 8.502v4.998h.837v-4.998z"/><path d="M21.396.375v17.25m0-17.25h2.625m-2.625 17.25h2.625m0-17.25h27.308m-27.308 17.25h27.308M51.33.375h17.624M51.33 17.625h17.624M53.092.375v17.25M56.617.375v17.25M58.38.375v17.25M60.142 2.1h8.812m-8.812 3.45h8.812M60.142 2.1v3.45m1.762-1.725h7.05m-8.812 3.45h8.812m-8.812 3.45h8.812m-8.812-3.45v3.45M61.904 9h7.05m-8.812 3.45h8.812m-8.812 3.45h8.812m-8.812-3.45v3.45m1.762-1.725h7.05" fill="none" stroke="#000"/></svg>