<svg xmlns="http://www.w3.org/2000/svg" width="63.817" height="18"><path d="M10.041 3.183q.403 0 1.061.22 1.13.376 2.339 1.572 1.21 1.196.968 2.218-.242 1.021-.941 1.532-.578.422-1.393.422-.172 0-.354-.019-1.049-.107-1.802-1.653-.752-1.545-.698-2.755.053-1.21.376-1.425.157-.112.444-.112zm-.11-.933q-.554 0-.899.239-.725.51-.806 2.096-.08 1.586.914 3.441.995 1.855 2.42 2.03.272.033.53.033 1.09 0 1.916-.598 1.021-.739 1.276-2.096.256-1.358-1.088-2.877Q12.85 3 11.29 2.502q-.79-.252-1.36-.252zm1.84 10.629c.805 0 1.814.414 2.302.902.426.426.482.992.498 1.518H8.995c.015-.526.071-1.092.498-1.518.488-.488 1.472-.902 2.278-.902zm0-.451c-.956 0-1.984.441-2.586 1.044-.619.618-.689 1.432-.689 2.04v.238h6.55v-.237c0-.61-.047-1.423-.665-2.04-.602-.604-1.654-1.045-2.61-1.045zM19.2 2.68q-.386 0-.716.308-.33.308-.33.724 0 .387.28.71.28.322.767.322.459 0 .76-.337.3-.337.3-.695 0-.387-.3-.71-.301-.322-.76-.322zm1.276 2.91q.086 0 .1.1 0 .085-.1.085-.086 0-.1-.086.014-.1.1-.1zm0-.044q-.143 0-.143.143 0 .115.143.158.086-.014.172-.086-.043-.215-.172-.215zm-.37-.154q.106 0 .227.01-.129.073-.057.187.071-.114.2-.114.244 0 .244.3-.143.1-.129.187.014.086.043.114-.1.1-.186.516-.058 0-.072-.043.014-.444-.029-.587-.129-.258-.358-.265h-.02q-.215 0-.345.15-.136.158-.093.358.043.201.616.445v.028q-.889-.229-.81-.795.069-.491.769-.491zm-.39-.147q-.558 0-.63.688-.071.688 1.118.917-.2.086-.33.316-.128.229-.143.473.06.018.115.018.117 0 .215-.083.143-.122.344-.609.305-.832.73-.832h.158q-.018-.108-.082-.108-.037 0-.09.037-.032-.065-.126-.065-.07 0-.175.036.201-.215.201-.43l-.025.002q-.094 0-.133-.102-.007.005-.02.005-.07 0-.302-.12-.28-.143-.824-.143zm5.265 1.178q-.083 0-.184.048-.322.15-.222 1.24.817-.732.68-1.061-.093-.227-.274-.227zm-4.755 1.488q-.087 0-.194.071.373.258.344 1.305h.186q.015-.99-.129-1.233-.084-.143-.207-.143zM18.9 5.36q-.502.014-1.104 1.01-.601.996-.601 2.917h.43q.014-1.52 1.318-1.52v1.52h.287V7.15q-.817-.616-.33-1.791zm.69 2.758q-.035 0-.074.008v1.476h-.888V8.126q-.031-.006-.06-.006-.456 0-.456 1.482.157 3.912.544 4.916l-.33.716h4.744l-.988-.43q.487-2.135 1.089-3.146.602-1.01.272-1.24-.082-.057-.171-.057-.266 0-.589.516l-1.977 2.666h-.502l-.115-3.941q0-1.484-.498-1.484zM19.2 2.25q.674.014 1.083.466.408.451.408 1.01 0 .473-.215.745-.172.287-.415.445l.033-.001q.23 0 .511.187.316.215.287.287.041-.033.087-.033.034 0 .07.018.087.043.072.172.416.143.416.889-.184-.092-.266-.092-.02 0-.035.006-.287 0-.774 1.146.1.086.272.33.172.243.172.845v.932h-.358q.014.788.1 3.21l1.992-2.723q.416-.341.658-.341.083 0 .145.04l.76-1.519q-.53-.258-1.161-.3.028-.388.272-.689.516.387 1.003.588-.315-1.448.337-1.734.198-.087.362-.087.38 0 .584.46.294.659-.925 1.49.545.258 1.118.258-.014.401-.286.716-.387-.4-1.018-.602l-.501 1.749q.157.057.2.358.043.301-.537 1.376-.58 1.075-.939 2.637l1.046.587-.071.674h-6.134l.501-1.232q-.43-1.892-.444-4.902l-.788-.014q0-2.537.702-3.633.628-.981.959-.981.038 0 .073.014-.817-.43-.86-1.29 0-.616.452-1.032.451-.416 1.053-.43zm14.262.293c.023 0 .048.003.075.01.143.04.184.159.123.358l-1.04 2.696h-.508l1.107-2.852c.056-.141.138-.212.244-.212zm.86.217c.03 0 .06.005.094.015.165.048.195.171.09.37l-.95 2.462h-.508l1.003-2.617c.063-.153.153-.23.27-.23zM31.75 6.736c-.081 0-.174.014-.278.043v.13a.933.933 0 0 1 .28-.05c.072 0 .137.013.195.037.126.052.293.087.502.104l-.066-.065a27.78 27.78 0 0 1-.455-.17.494.494 0 0 0-.178-.029zm.1.29l.234.078a1.775 1.775 0 0 1-.234.078c.052-.043.052-.095 0-.156zm-.196 0c-.026.052-.017.109.026.17a.807.807 0 0 1-.156-.053c.009-.043.052-.082.13-.117zm.065-.091c-.112 0-.19.043-.234.13l-.117.065-.013.065.117.026c.064.04.14.059.23.059.13 0 .288-.041.473-.124h.287v-.09h-.3c-.182-.088-.33-.131-.443-.131zm2.357-1.08l-.885 1.627c-.058.08-.112.121-.162.121a.109.109 0 0 1-.073-.03l-.286-.182c.017-.061.087-.152.208-.274.122-.121.148-.267.078-.436-.039-.096-.114-.144-.226-.144a.834.834 0 0 0-.32.085c-.278-.166-.523-.25-.735-.25l-.06.003a2.686 2.686 0 0 0-.091-.52zm-2.497.74c.222 0 .512.097.87.288.078-.087.156-.13.234-.13.078 0 .12.039.124.117.004.078-.066.18-.209.306s-.21.232-.202.319l.04.013a.64.64 0 0 1-.26.449c-.148.109-.348.167-.6.176a.936.936 0 0 1-.049.001c-.13 0-.188-.033-.172-.099a.206.206 0 0 0-.04-.189l.075.002c.243 0 .308-.042.193-.125-.086-.062-.154-.093-.205-.093a.093.093 0 0 0-.062.021c.034-.13-.035-.2-.209-.208.191-.321.339-.604.443-.847h.029zm.935.965l.377.234c.026.4.109.677.248.834a1.596 1.596 0 0 0-.21-.015c-.05 0-.097.003-.142.008a.546.546 0 0 0-.3.15 2.489 2.489 0 0 0-.325-.664c.226-.165.343-.347.352-.547zm-3.892 2.77c.19 0 .367.092.532.277-.312.008-.52.108-.625.3-.087-.218-.195-.34-.325-.365-.13-.026-.061-.085.208-.176a.652.652 0 0 1 .21-.036zm4.4-1.416c.338 0 .55.191.637.573.122.53.14 1.354.053 2.474-.105 1.285-.226 2.348-.365 3.19l.156.234H29.18l.899-.364c-.26-1.276-.586-2.212-.977-2.806-.39-.595-.456-.979-.195-1.152a.443.443 0 0 1 .247-.083c.175 0 .35.127.521.382l1.758 2.5.312-.026c.191-1.944.395-3.394.612-4.349.105-.382.326-.573.664-.573zm.375-6.664c-.25 0-.419.147-.506.44l-1.12 2.917h-.56c.105.347.157.655.157.924a2.25 2.25 0 0 1-.345.73c-.164.234-.13.351.098.351h.025c-.06.087-.052.139.026.156-.069.035-.078.072-.026.11.053.04.074.125.066.255-.026.382-.128.692-.306.93-.147.197-.28.295-.4.295a.216.216 0 0 1-.076-.014.459.459 0 0 0-.154-.035c-.051 0-.087.018-.106.054-.035.065.01.133.137.202a.324.324 0 0 0 .159.037c.11 0 .248-.04.414-.122.256-.125.488-.514.696-1.165h.365c.113.104.2.256.26.456-.312 1.007-.568 2.482-.768 4.427l-1.758-2.474a1.217 1.217 0 0 0-.364-.365.758.758 0 0 0-.616-.308.995.995 0 0 0-.205.022v-2.8c0-.381-.134-.577-.403-.585a3.21 3.21 0 0 1 .638-.704c.074-.132.072-.198-.006-.198a.66.66 0 0 0-.242.081 8.5 8.5 0 0 0-.573.495c-.217.226-.34.393-.37.501l-.242.853c.005.14.028.21.067.21.032 0 .075-.043.129-.132.034-.113.082-.256.143-.43a.627.627 0 0 1 .351-.377c.148 0 .222.095.222.286v2.852c-.504.27-.645.451-.423.547.205.088.371.244.498.467.063.43.24.89.53 1.382.308.52.588 1.285.84 2.292l-.99.43.066.507h5.56l-.573-.677c.277-2.7.375-4.425.293-5.176-.083-.75-.272-1.165-.567-1.243-.208-.209-.29-.434-.247-.677l.325-.586c.512.373.768.876.768 1.51v6.849h.287V8.901c0-.755-.308-1.345-.925-1.77l.847-1.524h-.6l.925-2.396c.13-.33.072-.543-.175-.638a.927.927 0 0 0-.333-.069.618.618 0 0 0-.312.082c-.06-.191-.237-.302-.527-.332a.705.705 0 0 0-.074-.004zm4.146 1.558l2.736 2.406q-.577.89-1.533 1.797-.906-2.143-1.203-4.203zm-.728-1.187q-.528 0-.41.725.512.248.43.56-.083.314.065 1.04.149.725 1.187 3.444-.316 1.074.366 1.074l.063-.002q1.846 3.395 4.07 5.917h.397l-.1-1.104q-1.78-1.665-3.807-5.39.593-1.253 1.665-2.193l3.28 2.95q.248.112.416.112.458 0 .326-.82l-3.297-2.818q.013-.75-.625-.75-.148 0-.33.04L37.542 2.82q-.452-.198-.728-.198zm11.034.472q1.51.22 1.579 1.382v8.382q-.706-.843-2.536-1.184l.957-8.58zm-.426-.843l-1.13 10.022q2.52.289 3.135 1.8v1.678h.752V4.475q0-1.883-2.757-2.225zm5.813.843q1.511.22 1.58 1.382v8.382q-.707-.843-2.537-1.184l.957-8.58zm-.425-.843L51.68 12.272q2.52.289 3.135 1.8v1.678h.752V4.475q0-1.883-2.756-2.225z"/><path d="M8.22.375c-9.625 0-9.625 17.25 0 17.25m0-17.25h47.347M8.22 17.625h47.347M63.255.375v17.25M55.567.375c9.625 0 9.625 17.25 0 17.25" fill="none" stroke="#000"/></svg>