<svg xmlns="http://www.w3.org/2000/svg" width="86.179" height="18"><path d="M3.01.474c.693 0 1.247.2 1.634.479.006.053.02.107.009.16-.05.248-.195.477-.396.63-.316.207-.697.267-1.057.356-.09.01-.019.031.031.04.23.04.707.099.971.099l.052-.001c.278-.032.54-.148.766-.311.079-.067.147-.15.205-.236.147.346.227.713.26.917.018.11.096.2.202.233 1.139.349 2.038 1.91 2.88 2.949 1.729 2.137 3.199 4.526 4.892 6.76-.937-.456-1.87-.916-2.81-1.374-1.92-1.01-3.92-1.816-5.604-3.09l-.008-.008c-.97-.808-1.963-1.66-2.339-2.793-.148-.92 1.757-2.577 1.542-2.646a.207.207 0 0 0-.064-.01c-.458 0-1.753 1.128-2.019 2.202-.003-.014-.01-.03-.014-.045-.073-.356-.154-1.256.068-1.98a.29.29 0 0 0 .01-.103 1.968 1.968 0 0 0-.123-.634c-.063-.17-.139-.344-.26-.765-.031-.108-.142-.328-.208-.345.186-.138.375-.28.645-.375a.434.434 0 0 0-.132.314c0 .23.164.415.365.415.2 0 .364-.186.364-.415V.894a.411.411 0 0 0-.255-.39c.053-.007.096-.019.154-.022.081-.006.16-.008.238-.008zm.67 7.763c.065.065.135.124.202.187.214.78.412 1.64.692 2.305.483 1.145 1.216 2.141 1.84 3.154a1.814 1.814 0 0 0-.385.27 6.831 6.831 0 0 0-.199.193 2.61 2.61 0 0 0-1.186-.897c.045-.723-.108-1.712-.34-2.787a34.903 34.903 0 0 0-.624-2.425zm1.006.908c1.149.945 2.428 1.738 3.676 2.54-.018.91-.018 1.778.084 2.675a3.411 3.411 0 0 0-1.437-.736c-.02 0-.037.012-.057.012-.649-1.063-1.383-2.06-1.837-3.134-.156-.37-.293-.85-.429-1.357zm.407 5.254a2.5 2.5 0 0 1 .44.541.3.3 0 0 0 .257.14.29.29 0 0 0 .17-.053c.215-.156.347-.324.476-.446.047-.045.097-.08.148-.117l.149 2.722c-.213-.014-.435-.035-.637-.035-.264 0-.495.036-.633.172-.169-.134-.497-.164-.89-.164-.102 0-.207.002-.316.004l.836-2.764zM6.25 9.574c1.354.787 2.784 1.414 4.135 2.125a.244.244 0 0 0 .006.003c1.295.631 2.586 1.28 3.894 1.904.984 1.189 2.052 2.295 3.078 3.42l-2.15.362-4.267-4.635a.288.288 0 0 0-.037-.036c-1.499-1.137-3.152-2.082-4.66-3.143zM3.076 0c-.135 0-.273.005-.411.013C1.58.083.792.54.523 1.157c-.04.093-.146.314-.007.314a2.35 2.35 0 0 1 .341-.028c.418 0 .38.172.47.194.09.282.29.846.303 1.068-.244.86-.153 1.763-.064 2.198.15.732.63 1.584 1.261 2.38a.285.285 0 0 0 0 .166 35.3 35.3 0 0 1 .903 3.336c.251 1.168.393 2.277.317 2.823a.294.294 0 0 0 .221.328c.045.011.084.031.127.045l-.928 3.079a2.847 2.847 0 0 0-.593-.055c-.381 0-.756.05-1.064.05-.125 0-.24-.008-.34-.032a.546.546 0 0 0-.125-.012c-.436 0-1.428.306-1.34.879.15-.128.257-.159.375-.159.11 0 .23.027.405.027h.027c.254-.004.697-.083 1.053-.083.18 0 .338.02.438.08.236-.01.45-.013.649-.013.85 0 1.447.07 2.5.075a89.565 89.565 0 0 0 2.974-.079c.45.003.697.054.922.054h.04c.134-.004.265-.057.48-.057.123 0 .273.017.468.07-.25-.341-.877-.685-1.33-.685a.591.591 0 0 0-.302.071 5.081 5.081 0 0 0-.508-.022c-.22 0-.448.01-.678.02l-.157-2.83c.487.203.857.517 1.281 1.021a.295.295 0 0 0 .513-.246c-.192-1.039-.213-2.019-.202-3.06.54.354 1.072.713 1.576 1.094l4.36 4.738a.29.29 0 0 0 .263.09c.95-.159 1.9-.315 2.849-.474a.294.294 0 0 0 .23-.193.298.298 0 0 0-.06-.297c-.741-.83-1.508-1.631-2.25-2.445 1.269.78 2.875 1.755 3.08 1.755.022 0 .027-.013.012-.04-.094-.163-.9-.755-1.775-1.373.14.058.276.12.415.177l.017.01c.103.035.16.059.27.062a.286.286 0 0 0 .108-.016.317.317 0 0 0 .188-.152.32.32 0 0 0 .023-.238c-.017-.05-.038-.077-.054-.098-.061-.085-.103-.109-.162-.154a4.553 4.553 0 0 0-.205-.149c-.153-.105-.336-.223-.493-.328a4.992 4.992 0 0 1-.328-.233.307.307 0 0 0-.028-.025l-3.892-2.736c-.008-.006-.02-.001-.028-.006-1.333-1.869-2.588-3.825-4.046-5.627-.744-.92-1.598-2.528-2.985-3.064-.067-.396-.218-1.127-.755-1.649C4.827.26 4.168.056 3.427.011A5.728 5.728 0 0 0 3.076 0zM25.85 4.787q-.407 0-.472.314v.019q.047.083.194.083.425-.185.425-.342v-.018q0-.037-.148-.056zm1.477-.572q-.065.36-.637.775l.203.083.277-.101.138.092q1.062.508 2.817.536l2.752.027h.037q.47 0 .457.688-.014.716-.485 1.436-.296 0-.6-.226-.305-.226-.5-.53-.193-.306-.498-.795.093.97.554 1.524-.563 0-1.002.106-.219.053-.365.053-.147 0-.221-.053-.092-.066-.457-.066-.222 0-.545.024-.249.02-.455.02-.501 0-.75-.112-.23-.194-.29-.679-.06-.485.272-1.343-.684.489-.684 1.486v.333q-.341-.351-.535-.776-.379-.942-1.035-.942-.249 0-.96.314-.24-.101-.194-.323l.462-.619q.332-.563.48-.628.074-.138.72-.138.277.074.277.203 0 .175-.184.35.35-.073.508-.415 0-.083.443-.304zm.398-1.965q-.045 0-.103.072-.701 1.117-1.274 1.551-.222.194-.6.203-.185 0-.563-.277-.564-.545-.785-.923-.25-.444-.324-.49-.037 0-.055.093 0 .526 1.071 1.948-.203.296-.378.674-.176.379-.416.577-.24.199.046.393 0 .24.397.388l.988-.287q.397 0 .545.333.49.738.49 1.542.055 1.071-.74 2.05-.249.166-.249.461 0 .12.305.12.499 0 .499-.12l-.037-.249q0-.13.194-.194v-.018q0-.176.628-1.764.286 0 .452.277.213.702.213 1.164 0 .101-.13.434-.157.12-.194.434h.74l-.056-.231q-.037-.139.101-.24l-.064-.342q-.12-1.302-.12-1.533v-.018q.73-.176 1.122-.176.392 0 .604.143.085.057.237.057.23 0 .618-.13.419-.142.643-.142.119 0 .183.04.185.115.185.392 0 1.016-.517 1.727-.167.166-.25.462h.637q.167-.056.074-.277.019-.24.222-.305 0-.84.739-1.662.517.286.526.886 0 .231-.092.628l-.111.305q-.102.12-.185.453h.61q.11-.047.138-.102l-.092-.296q-.046-.129.13-.23-.093-.49.12-.74-.435-1.015-.435-1.597.231-.95.296-1.782.11.582.027 1.395-.083.812.277 1.68.07.146.129.146.04 0 .074-.072.093-.526.037-2.909-.073-.295-.157-.452-.295-.453-.507-.471h-2.983q-2.207 0-3.269-.628.176-.314.194-.43.018-.115 0-.281-.443.13-.665.342l-.185-.139q.194-.12.62-.776.424-.655.498-1.025-.031-.062-.073-.062zm4.893 10.098c.488.021.755.032.87.032h.053l-.063 2.547a3.738 3.738 0 0 1-.97-.576l.11-2.003zm-7.107-.634c-.163.031-.377.131-.351.325v1.42c-.315-.015-.64-.031-.734-.031 0 .178.147.42.603.42.005.403.078.896.152 1.147l.063.66c0 .074.125.095.262.095.162 0 .34-.031.34-.031l-.026-.66c2.59.02 7.527.151 7.773.151.126 0 .21-.136.21-.325l.063-2.846-1.557-.016-.126 2.217c-1.127.006-3.076.19-4.402.19-.42 0-.781-.017-1.028-.069-.052-.058-.54-.765-.849-.844a1.36 1.36 0 0 0-.183-.02c-.053-.43-.105-.86-.152-1.285.094-.12.309-.09.366-.252.058-.078.021-.21-.089-.215-.063-.026-.235-.031-.309-.031zm12.141-8.942q.696 0 .696.917 0 .806-.696 1.596-.696-.79-.696-1.596 0-.917.696-.917zm0 3.525q.49 0 .49 1.059 0 .6-.49 1.107-.49-.506-.49-1.107 0-1.06.49-1.06zm0 3.193q.49 0 .49 1.06 0 .6-.49 1.106-.49-.506-.49-1.107 0-1.059.49-1.059zm0-7.24q-1.265 0-1.265 1.439-.015.9.42 1.414.434.514.387.688-.554.648-.554 1.565 0 .759.648 1.628-.648.648-.648 1.565 0 .759.648 1.613.08.205-.442.964T35.77 15.75h.695q.348-1.233.617-1.763.269-.53.569-.861.316.332.577.861.26.53.609 1.763h.711q-.522-1.865-1.067-2.624-.545-.759-.45-.964.632-.854.632-1.613 0-.917-.601-1.565.6-.87.6-1.628 0-.917-.537-1.565-.047-.174.38-.688.426-.513.426-1.414 0-1.439-1.28-1.439zm8.253 1.505c-.019.029-.005.08.024.118-.048-.01-.099-.038-.118-.047 0-.029.037-.052.094-.07zm.118 0l.14.07c-.057.01-.093.038-.14.048.038-.02.028-.07 0-.118zm-.077-.051a.159.159 0 0 0-.04.004.303.303 0 0 0-.095.047l-.093.07.023.095.024-.024a.647.647 0 0 0 .468-.023h.165v-.07h-.164a.563.563 0 0 0-.288-.1zm.965-.066h.003c.02.002.05.019.047.047a.334.334 0 0 1-.07.164.456.456 0 0 1-.118.118.056.056 0 0 1-.024.01c-.01 0-.002-.018.024-.057.027-.04.035-.056.025-.056a.07.07 0 0 0-.025.009.06.06 0 0 1-.026.007c-.021 0-.031-.02-.02-.054a.348.348 0 0 1 .093-.141c.041-.023.071-.047.091-.047zm-.231.352c.037.019.047.051.023.07-.012.01-.021.015-.029.015-.007 0-.013-.005-.018-.015-.01-.019-.005-.051.024-.07zm.249-.434a.183.183 0 0 0-.062.012c-.066.023-.117.078-.164.164-.047.085-.066.15-.047.188-.057.028-.09.055-.094.093-.005.038.037.075.094.094a.088.088 0 0 0 .028.005c.051 0 .111-.042.183-.122a.732.732 0 0 0 .164-.235.17.17 0 0 0-.023-.164.1.1 0 0 0-.08-.035zm-1.19.668a.04.04 0 0 0-.014.004h.004a.028.028 0 0 0 .012-.003h-.002zm-.092-.07c-.028 0-.042.014-.047.024a.053.053 0 0 0 0 .047.096.096 0 0 1 .052-.018c.015 0 .03.005.042.018.006.005.01.007.016.007.005 0 .01-.002.015-.004-.008-.002-.015-.011-.03-.027l-.048-.047zm.136.017c-.005 0-.013.008-.017.008l-.001-.001c.004.014-.005.037-.024.047.01 0 .013.024.021.024l.003-.001c.023-.014.028-.037.023-.07 0-.005-.003-.007-.005-.007zm.92-1.237c.13 0 .28.014.446.047.332.067.492.227.492.493 0 .275-.1.5-.281.68-.13.13-.22.197-.285.197a.086.086 0 0 1-.067-.033c-.076-.085-.04-.204.117-.375.157-.17.17-.332.07-.47a.244.244 0 0 0-.21-.104.734.734 0 0 0-.329.105c-.114-.076-.316-.112-.61-.14.029-.162.143-.286.329-.353a.966.966 0 0 1 .328-.047zm-1.045 1.43l.013.001c.033.005.065.024.117.024l-.164.023c-.02 0-.005-.009 0-.023.004-.012.011-.025.034-.025zm.2.048c0 .02-.032.033-.07.047-.038.014-.065.014-.094.024l-.03.002c-.006 0-.012 0-.017-.002-.014-.005-.005-.005.024-.024l.187-.047zm.087-.94c.259 0 .488.055.664.143 0 .06.008.092.03.092.018 0 .046-.023.087-.069.073-.08.15-.126.226-.126.019 0 .037.003.056.009.095.028.127.101.07.234a1.064 1.064 0 0 1-.234.352c-.1.095-.114.182-.047.258.066.076.08.136.07.165.162.484.34.772.516.891s.185.467.047 1.056a39.223 39.223 0 0 0-.305 1.407l-1.22.165a7.421 7.421 0 0 0-.14-.915c-.081-.38-.173-.738-.235-1.056-.062-.318-.016-.53.117-.633a.715.715 0 0 1 .493-.141h.01c.192 0 .271-.124.248-.352-.019-.186-.096-.276-.234-.276a.461.461 0 0 0-.118.018.544.544 0 0 1-.137.02c-.117 0-.166-.063-.144-.184.132-.076.183-.131.14-.165-.027-.021-.07-.029-.127-.029-.032 0-.067.003-.107.006a.183.183 0 0 0-.07-.117c-.027-.018-.055-.01-.095-.024.076-.228.164-.398.259-.493a.386.386 0 0 1 .305-.023c.113.033.224.06.328.07v-.07a.757.757 0 0 1-.282-.07.435.435 0 0 0-.167-.036.385.385 0 0 0-.161.036c.038-.057.065-.103.094-.141l.063-.001zm5.502 2.747c.152 0 .234.084.234.258V8.47h-.704l.235-2.088c.007-.11.082-.164.235-.164zm-4.298 2.04c.072.12.142.232.187.353l-1.454.07.047-.235 1.22-.187zm.281 1.08a1.748 1.748 0 0 1-.094.47l.07 1.454h-2.134l.446-1.9 1.712-.024zm4.526-7.089a.054.054 0 0 0-.021.004c-.083.035-.162.206-.258.516-.095.304-.174.459-.24.459-.024 0-.045-.02-.065-.06.019-.105.06-.22.117-.352.057-.133.038-.22-.047-.258-.114.266-.238.459-.352.563-.114.104-.15.214-.117.352a.672.672 0 0 1 0 .375c-.057.162-.2.405-.446.704-.247.299-.49.625-.727.985-.74-.095-1.19-.205-1.338-.305-.147-.1-.367-.14-.656-.14-.29 0-.51-.175-.68-.517.265-.113.439-.232.562-.375.124-.142.188-.395.188-.727 0-.351-.156-.576-.493-.68a2.047 2.047 0 0 0-.609-.092c-.146 0-.295.015-.446.045-.366.07-.614.369-.728.891a3.308 3.308 0 0 0-.258.446c-.047.123-.033.178.024.188a.309.309 0 0 1 .14.07c-.047.028-.06.047-.046.07.014.024.032.038.07.047a.14.14 0 0 1 .037-.009c.014 0 .002.013-.037.033-.057.028-.048.051 0 .07.047.019.06.083.07.188.01.104.065.154.165.164a1.73 1.73 0 0 0 .399-.023c.075.104.048.173-.094.21-.437 0-.79.055-1.056.188-.589.086-1.176.187-1.736.282a11.31 11.31 0 0 0-.728-.986c-.246-.299-.388-.542-.445-.703-.038-.105-.034-.21 0-.352.033-.143-.027-.271-.141-.376-.114-.104-.215-.297-.328-.563-.086.038-.104.126-.047.258.057.133.098.248.117.352-.02.04-.042.06-.065.06-.066 0-.146-.155-.24-.459-.107-.345-.209-.51-.3-.51a.088.088 0 0 0-.052.018c.076.237.108.467.117.68.01.214.194.466.516.75.219.798.608 1.587 1.197 2.394.184.045.38.067.587.067.272 0 .562-.038.867-.114.234-.058.418-.085.552-.085.174 0 .264.046.27.132.104.342.19.704.281 1.103.09.398.127.756.117 1.079l-.093.399h-.235l-.366-.047c-.393-.45-.734-.68-1.032-.68-.11-.009-.229-.016-.352-.024-.611.126-.995.187-1.126.187-.088 0-.118.085-.118.212 0 .181.121.258.376.258.423-.081.746-.121.972-.121.039 0 .074.001.107.003.13 0 .232.054.305.165-.142.19-.45.283-.937.283-.039 0-.078 0-.119-.002a5.171 5.171 0 0 1-1.478-.234c-.218 0-.328.13-.328.398.029.245.812.368 2.37.376l1.032-.118h.764l-.54 2.253a2.11 2.11 0 0 0-.163 1.102c-.238.731-.403 1.273-.47 1.619-.066.347-.176.567-.352.657-.175.09-.432.2-.774.352-.36.076-.577.154-.61.234-.033.081.04.15.188.165.049.004.148.006.297.006.3 0 .8-.006 1.51-.006.151-.143.202-.33.164-.563-.038-.233.118-.627.469-1.197.351-.57.475-1.06.352-1.478-.01-.152.055-.307.187-.493.133-.185.243-.322.329-.398h.868c.028.133.106.339.258.633.123 1.092.215 1.812.258 2.135.043.323-.026.547-.188.68-.161.133-.409.215-.75.282-.361.076-.554.154-.587.234-.033.081.036.15.188.165.05.004.15.006.3.006.298 0 .797-.006 1.506-.006.152-.143.203-.33.141-.563a1.583 1.583 0 0 1-.047-.68c.038-.21.112-.54.188-1.01s.007-.882-.211-1.243l-.165-2.44c.053-.148.083-.305.094-.469h2.632l1.666.023V6.477c0-.387-.208-.587-.586-.587-.379 0-.572.123-.587.352-.16 1.492-.325 2.244-.493 2.252l-2.702.118a3.925 3.925 0 0 0-.235-.634c.076-.398.14-.756.188-1.079.047-.323.163-.62.305-.915.021-.06.083-.09.188-.09.128 0 .322.046.586.137.278.096.566.143.858.143.213 0 .428-.025.644-.073.588-.816.978-1.628 1.196-2.416.323-.285.502-.514.516-.727.014-.214.051-.443.117-.68a.135.135 0 0 0-.072-.028zm5.154 0q-1.46.034-2.418 1.058-1.058 1.16-1.159 2.318 0 .269.303.269h14.04q.303 0 .303-.32 0-.319-.302-.319H54.289q.84-2.15 2.52-2.385h11.068q.302 0 .302-.319 0-.302-.302-.302zm-3.577 8.234H68.18V7.839H57.194l-3.66 2.645m13.831-1.832V9.67l-11.303.05 1.132-1.068h10.171zm-6.509 4.227c.806 0 1.814.414 2.302.902.427.426.483.992.498 1.518H58.08c.016-.526.071-1.092.498-1.518.488-.488 1.473-.902 2.278-.902zm0-.451c-.955 0-1.984.441-2.586 1.044-.618.618-.688 1.432-.688 2.04v.238h6.549v-.237c0-.61-.047-1.423-.665-2.04-.602-.604-1.654-1.045-2.61-1.045z"/><path d="M21.396.375v17.25m0-17.25h2.625m-2.625 17.25h2.625m0-17.25h44.158m-44.158 17.25h44.158M68.18.375h17.624M68.18 17.625h17.624M69.942.375v17.25M73.467.375v17.25M75.23.375v17.25M76.992 2.1h8.812m-8.812 3.45h8.812M76.992 2.1v3.45m1.762-1.725h7.05m-8.812 3.45h8.812m-8.812 3.45h8.812m-8.812-3.45v3.45M78.754 9h7.05m-8.812 3.45h8.812m-8.812 3.45h8.812m-8.812-3.45v3.45m1.762-1.725h7.05" fill="none" stroke="#000"/></svg>