<svg xmlns="http://www.w3.org/2000/svg" width="88.371" height="18"><path d="M3.01.474c.693 0 1.247.2 1.634.479.006.053.02.107.009.16-.05.248-.195.477-.396.63-.316.207-.697.267-1.057.356-.09.01-.019.031.031.04.23.04.707.099.971.099l.052-.001c.278-.032.54-.148.766-.311.079-.067.147-.15.205-.236.147.346.227.713.26.917.018.11.096.2.202.233 1.139.349 2.038 1.91 2.88 2.949 1.729 2.137 3.199 4.526 4.892 6.76-.937-.456-1.87-.916-2.81-1.374-1.92-1.01-3.92-1.816-5.604-3.09l-.008-.008c-.97-.808-1.963-1.66-2.339-2.793-.148-.92 1.757-2.577 1.542-2.646a.207.207 0 0 0-.064-.01c-.458 0-1.753 1.128-2.019 2.202-.003-.014-.01-.03-.014-.045-.073-.356-.154-1.256.068-1.98a.29.29 0 0 0 .01-.103 1.968 1.968 0 0 0-.123-.634c-.063-.17-.139-.344-.26-.765-.031-.108-.142-.328-.208-.345.186-.138.375-.28.645-.375a.434.434 0 0 0-.132.314c0 .23.164.415.365.415.2 0 .364-.186.364-.415V.894a.411.411 0 0 0-.255-.39c.053-.007.096-.019.154-.022.081-.006.16-.008.238-.008zm.67 7.763c.065.065.135.124.202.187.214.78.412 1.64.692 2.305.483 1.145 1.216 2.141 1.84 3.154a1.814 1.814 0 0 0-.385.27 6.831 6.831 0 0 0-.199.193 2.61 2.61 0 0 0-1.186-.897c.045-.723-.108-1.712-.34-2.787a34.903 34.903 0 0 0-.624-2.425zm1.006.908c1.149.945 2.428 1.738 3.676 2.54-.018.91-.018 1.778.084 2.675a3.411 3.411 0 0 0-1.437-.736c-.02 0-.037.012-.057.012-.649-1.063-1.383-2.06-1.837-3.134-.156-.37-.293-.85-.429-1.357zm.407 5.254a2.5 2.5 0 0 1 .44.541.3.3 0 0 0 .257.14.29.29 0 0 0 .17-.053c.215-.156.347-.324.476-.446.047-.045.097-.08.148-.117l.149 2.722c-.213-.014-.435-.035-.637-.035-.264 0-.495.036-.633.172-.169-.134-.497-.164-.89-.164-.102 0-.207.002-.316.004l.836-2.764zM6.25 9.574c1.354.787 2.784 1.414 4.135 2.125a.244.244 0 0 0 .006.003c1.295.631 2.586 1.28 3.894 1.904.984 1.189 2.052 2.295 3.078 3.42l-2.15.362-4.267-4.635a.288.288 0 0 0-.037-.036c-1.499-1.137-3.152-2.082-4.66-3.143zM3.076 0c-.135 0-.273.005-.411.013C1.58.083.792.54.523 1.157c-.04.093-.146.314-.007.314a2.35 2.35 0 0 1 .341-.028c.418 0 .38.172.47.194.09.282.29.846.303 1.068-.244.86-.153 1.763-.064 2.198.15.732.63 1.584 1.261 2.38a.285.285 0 0 0 0 .166 35.3 35.3 0 0 1 .903 3.336c.251 1.168.393 2.277.317 2.823a.294.294 0 0 0 .221.328c.045.011.084.031.127.045l-.928 3.079a2.847 2.847 0 0 0-.593-.055c-.381 0-.756.05-1.064.05-.125 0-.24-.008-.34-.032a.546.546 0 0 0-.125-.012c-.436 0-1.428.306-1.34.879.15-.128.257-.159.375-.159.11 0 .23.027.405.027h.027c.254-.004.697-.083 1.053-.083.18 0 .338.02.438.08.236-.01.45-.013.649-.013.85 0 1.447.07 2.5.075a89.565 89.565 0 0 0 2.974-.079c.45.003.697.054.922.054h.04c.134-.004.265-.057.48-.057.123 0 .273.017.468.07-.25-.341-.877-.685-1.33-.685a.591.591 0 0 0-.302.071 5.081 5.081 0 0 0-.508-.022c-.22 0-.448.01-.678.02l-.157-2.83c.487.203.857.517 1.281 1.021a.295.295 0 0 0 .513-.246c-.192-1.039-.213-2.019-.202-3.06.54.354 1.072.713 1.576 1.094l4.36 4.738a.29.29 0 0 0 .263.09c.95-.159 1.9-.315 2.849-.474a.294.294 0 0 0 .23-.193.298.298 0 0 0-.06-.297c-.741-.83-1.508-1.631-2.25-2.445 1.269.78 2.875 1.755 3.08 1.755.022 0 .027-.013.012-.04-.094-.163-.9-.755-1.775-1.373.14.058.276.12.415.177l.017.01c.103.035.16.059.27.062a.286.286 0 0 0 .108-.016.317.317 0 0 0 .188-.152.32.32 0 0 0 .023-.238c-.017-.05-.038-.077-.054-.098-.061-.085-.103-.109-.162-.154a4.553 4.553 0 0 0-.205-.149c-.153-.105-.336-.223-.493-.328a4.992 4.992 0 0 1-.328-.233.307.307 0 0 0-.028-.025l-3.892-2.736c-.008-.006-.02-.001-.028-.006-1.333-1.869-2.588-3.825-4.046-5.627-.744-.92-1.598-2.528-2.985-3.064-.067-.396-.218-1.127-.755-1.649C4.827.26 4.168.056 3.427.011A5.728 5.728 0 0 0 3.076 0zM25.85 4.787q-.407 0-.472.314v.019q.047.083.194.083.425-.185.425-.342v-.018q0-.037-.148-.056zm1.477-.572q-.065.36-.637.775l.203.083.277-.101.138.092q1.062.508 2.817.536l2.752.027h.037q.47 0 .457.688-.014.716-.485 1.436-.296 0-.6-.226-.305-.226-.5-.53-.193-.306-.498-.795.093.97.554 1.524-.563 0-1.002.106-.219.053-.365.053-.147 0-.221-.053-.092-.066-.457-.066-.222 0-.545.024-.249.02-.455.02-.501 0-.75-.112-.23-.194-.29-.679-.06-.485.272-1.343-.684.489-.684 1.486v.333q-.341-.351-.535-.776-.379-.942-1.035-.942-.249 0-.96.314-.24-.101-.194-.323l.462-.619q.332-.563.48-.628.074-.138.72-.138.277.074.277.203 0 .175-.184.35.35-.073.508-.415 0-.083.443-.304zm.398-1.965q-.045 0-.103.072-.701 1.117-1.274 1.551-.222.194-.6.203-.185 0-.563-.277-.564-.545-.785-.923-.25-.444-.324-.49-.037 0-.055.093 0 .526 1.071 1.948-.203.296-.378.674-.176.379-.416.577-.24.199.046.393 0 .24.397.388l.988-.287q.397 0 .545.333.49.738.49 1.542.055 1.071-.74 2.05-.249.166-.249.461 0 .12.305.12.499 0 .499-.12l-.037-.249q0-.13.194-.194v-.018q0-.176.628-1.764.286 0 .452.277.213.702.213 1.164 0 .101-.13.434-.157.12-.194.434h.74l-.056-.231q-.037-.139.101-.24l-.064-.342q-.12-1.302-.12-1.533v-.018q.73-.176 1.122-.176.392 0 .604.143.085.057.237.057.23 0 .618-.13.419-.142.643-.142.119 0 .183.04.185.115.185.392 0 1.016-.517 1.727-.167.166-.25.462h.637q.167-.056.074-.277.019-.24.222-.305 0-.84.739-1.662.517.286.526.886 0 .231-.092.628l-.111.305q-.102.12-.185.453h.61q.11-.047.138-.102l-.092-.296q-.046-.129.13-.23-.093-.49.12-.74-.435-1.015-.435-1.597.231-.95.296-1.782.11.582.027 1.395-.083.812.277 1.68.07.146.129.146.04 0 .074-.072.093-.526.037-2.909-.073-.295-.157-.452-.295-.453-.507-.471h-2.983q-2.207 0-3.269-.628.176-.314.194-.43.018-.115 0-.281-.443.13-.665.342l-.185-.139q.194-.12.62-.776.424-.655.498-1.025-.031-.062-.073-.062zm4.893 10.098c.488.021.755.032.87.032h.053l-.063 2.547a3.738 3.738 0 0 1-.97-.576l.11-2.003zm-7.107-.634c-.163.031-.377.131-.351.325v1.42c-.315-.015-.64-.031-.734-.031 0 .178.147.42.603.42.005.403.078.896.152 1.147l.063.66c0 .074.125.095.262.095.162 0 .34-.031.34-.031l-.026-.66c2.59.02 7.527.151 7.773.151.126 0 .21-.136.21-.325l.063-2.846-1.557-.016-.126 2.217c-1.127.006-3.076.19-4.402.19-.42 0-.781-.017-1.028-.069-.052-.058-.54-.765-.849-.844a1.36 1.36 0 0 0-.183-.02c-.053-.43-.105-.86-.152-1.285.094-.12.309-.09.366-.252.058-.078.021-.21-.089-.215-.063-.026-.235-.031-.309-.031zm13-8.995q.223 0 .45.105.015.454-.114.643-.128.189-.34.25-.196-.061-.325-.25-.128-.189-.113-.643.219-.105.442-.105zM36.345 4.91q.454 0 .643.128.189.129.25.325-.061.197-.25.325-.19.129-.643.129-.211-.454 0-.907zm4.34 0q.21.453 0 .907-.44 0-.636-.129-.196-.128-.242-.325.046-.196.242-.325.197-.128.635-.128zm-2.178-.71q.212 0 .34.21.129.212.129 1.09 0 .634-.129.876-.128.242-.34.242-.196 0-.325-.234-.128-.235-.128-.885 0-.877.128-1.088.129-.212.325-.212zm0-1.951q-.816 0-1.013.242-.106.272.136.77.242.5.242.863 0 .302-.227.59-.362 0-.861-.243-.333-.161-.565-.161-.116 0-.206.04-.242.182-.242 1.013 0 .756.242 1.013.089.04.202.04.233 0 .569-.168.499-.25.861-.25.439 1.058.53 1.89.06 1.587-.167 7.861h1.028q-.226-6.289-.181-7.861.166-.832.529-1.89.363 0 .862.25.336.168.569.168.113 0 .202-.04.242-.257.242-1.013 0-.831-.242-1.013-.091-.04-.207-.04-.232 0-.564.161-.5.242-.862.242-.227-.287-.227-.59 0-.362.242-.861t.136-.771q-.257-.242-1.028-.242zm10.071.293v.284h-1.497v-.284zm-.753.559q.94 0 1.298.478.359.479.359.86-.009.593-.496 1.036-.488.444-1.161.444-.682 0-1.17-.444-.487-.443-.487-1.027 0-.39.292-.869.293-.478 1.365-.478zm-1.17-.851v.665q-.319.186-.585.602-.265.417-.274.922 0 .593.491 1.2.492.607 1.538.652 1.037-.045 1.533-.652t.496-1.191q-.009-.514-.275-.935-.265-.421-.593-.607V2.25zm-1.696 6.635c.541 0 1.218.278 1.546.605.287.287.325.667.335 1.02h-3.747c.01-.353.048-.733.335-1.02.328-.327.99-.605 1.53-.605zm0-.303c-.642 0-1.333.296-1.738.701-.415.415-.462.962-.462 1.371v.16h4.4v-.16c0-.409-.031-.956-.446-1.37-.405-.406-1.112-.702-1.754-.702zm5.427-1.283l-.01.005 1.826 3.5h.69l-1.827-3.505zm-1.53.005l-.69.005 1.827 3.505.689-.005-1.826-3.505zm2.349 5.135c.474.02.734.03.847.03h.05l-.06 2.48a3.638 3.638 0 0 1-.944-.561l.107-1.95zm-6.918-.617c-.158.03-.368.127-.342.316v1.382c-.306-.015-.623-.03-.714-.03 0 .173.142.408.586.408.005.393.077.872.148 1.117l.062.643c0 .072.122.092.255.092.158 0 .331-.03.331-.03l-.025-.643c2.52.02 7.326.148 7.566.148.122 0 .204-.133.204-.317l.061-2.77-1.515-.015-.123 2.158c-1.097.005-2.994.183-4.285.183-.408 0-.76-.015-1-.066-.051-.056-.526-.745-.827-.821a1.323 1.323 0 0 0-.178-.02c-.051-.42-.102-.838-.148-1.25.092-.118.3-.087.357-.246.056-.076.02-.204-.087-.209a1.16 1.16 0 0 0-.3-.03zm13.27-7.192c-.51.04-.793.295-.847.766.068.51.35.78.847.807.498-.027.76-.296.787-.807-.04-.47-.303-.726-.787-.766zm.06-1.694c.364 0 .7.067 1.01.201a2.659 2.659 0 0 1 1.371 1.361c.134.303.201.622.201.959 0 .35-.067.675-.201.978a2.567 2.567 0 0 1-2.38 1.523c-.363 0-.703-.065-1.019-.192a2.426 2.426 0 0 1-.816-.535 2.621 2.621 0 0 1-.545-.796 2.38 2.38 0 0 1-.202-.978c0-.337.068-.656.202-.958.135-.303.316-.572.545-.807.228-.235.5-.42.816-.555a2.574 2.574 0 0 1 1.019-.201zm-.04-.686c-.443 0-.86.084-1.25.252-.39.168-.726.397-1.008.686a3.36 3.36 0 0 0-.676 1.008 3.053 3.053 0 0 0-.252 1.24c0 .444.084.857.252 1.24.168.384.393.717.676.999a3.2 3.2 0 0 0 2.258.928c.444 0 .858-.084 1.24-.253a3.36 3.36 0 0 0 1.01-.675c.288-.282.517-.615.685-.998.168-.384.252-.797.252-1.24 0-.444-.084-.858-.252-1.24a3.268 3.268 0 0 0-1.694-1.695 3.053 3.053 0 0 0-1.24-.252zm-.459 8.01v5.49h.919v-5.49zm9.479-6.109q-.125 0-.22.055-.171.1-.171.19.248-.082.44-.082.144 0 .257.046.262.109.697.145l-.109-.09q-.398-.145-.67-.227-.122-.037-.224-.037zm.17.39l.308.127q-.163.072-.326.09.127-.09.018-.217zm-.272 0q-.072.127.019.236-.127-.037-.218-.073.036-.09.2-.163zm.075-.122q-.23 0-.328.177l-.163.108v.09l.145.019q.133.081.322.081.277 0 .674-.172l.38.055.018-.145-.416-.018q-.39-.195-.632-.195zm1.142-1.379q.423 0 .875.161.66.236.978.933.317.697-.09 1.485-.299.576-.587.576-.106 0-.21-.078-.39-.29-.39-.707.362-.326.453-.633.09-.308-.01-.562-.099-.253-.38-.298-.048-.008-.097-.008-.233 0-.473.18-.453-.254-1.195-.435.145-.47.742-.58.19-.034.384-.034zm-1.38.904q.707.126 1.45.507l.144-.037q.153-.14.267-.14.062 0 .113.04.145.119.073.354-.073.235-.562.634.163.96.906 1.304-.227.515-.698.515-.207 0-.461-.099-.055-.67-.471-1.05.616-.326.67-1.177h-.09q-.091.76-.553.996-.462.235-.751.271-.082.014-.14.014-.177 0-.15-.122.036-.163-.054-.272.094.006.168.006.407 0 .185-.169-.18-.137-.289-.137-.049 0-.082.028.072-.271-.29-.271.416-.67.615-1.195zm3.006 3.006q.525.941.67 2.028l-.362.072q-.036-1.05-.308-2.1zm-.398.036q.398.85.398 3.549 0 2.698-.525 4.49l.453.363H62.91v-.036l1.72-.58q-.615-2.716-1.376-3.984-.76-1.267-.335-1.557.107-.072.22-.072.337 0 .73.652l2.518 3.368h.326q.344-4.165.778-5.777.305.123.563.123.543 0 .886-.54zM66.105 2.25q-.035 0-.071.01-.136.036-.245.1-.108.063-.072.144.03.067.15.067.027 0 .058-.004l.042-.002q.103 0-.06.093-.19.109-.136.543.054.435.326.562-.145.597-.498 1.104-.34.49.154.49h.036q-.127.18.036.216-.144.09-.036.163.109.073.073.344-.218 1.286-.58 1.784-.297.409-.552.409-.055 0-.109-.02-.133-.048-.219-.048-.108 0-.143.076-.063.135.19.271.089.048.212.048.231 0 .585-.166.543-.253 1.195-2.19l.308-.091q.38.29.47.905-.542 1.865-.832 5.523l-2.463-3.458q-.453-.395-.798-.395-.193 0-.352.123-.443.344-.507.588-.063.245.67 1.603.734 1.358 1.259 3.477l-1.684.58.09.651h7.443l-.797-.887q.47-1.521.47-5.415l.653-.09q0-1.503-.942-2.97.887-1.376.507-2.29-.38-.915-1.077-1.177-.613-.231-1.268-.231-.09 0-.181.004-.752.036-1.168.797-.163-.254.045-.453.208-.199.082-.47.036-.145-.082-.245-.086-.073-.182-.073z"/><path d="M21.396.375v17.25m0-17.25h2.625m-2.625 17.25h2.625m0-17.25h46.35m-46.35 17.25h46.35M70.37.375h17.626M70.37 17.625h17.626M72.133.375v17.25M75.658.375v17.25M77.42.375v17.25M79.183 2.1h8.813m-8.813 3.45h8.813M79.183 2.1v3.45m1.763-1.725h7.05m-8.813 3.45h8.813m-8.813 3.45h8.813m-8.813-3.45v3.45M80.946 9h7.05m-8.813 3.45h8.813m-8.813 3.45h8.813m-8.813-3.45v3.45m1.763-1.725h7.05" fill="none" stroke="#000"/></svg>