<svg xmlns="http://www.w3.org/2000/svg" width="79.978" height="18"><path d="M5.566.322q.06 0 .113.039.214.116-.136.564-.37.369-.457.622-.088.253-.185.67-.097.419-.428 1.197l-.447.136H2.412q.233-.506.544-.914.759-.7 1.128-.934.37-.233.593-.398.224-.166.477-.632.233-.35.412-.35zM4.55 3.939l-.311.68q-.454-.045-.84-.045-.775 0-1.28.182-.097-.661-.292-.817zm-2.237 1.42q-.37.02-.389.35.02.389.39.389.369 0 .388-.39-.02-.33-.389-.35zm.837-.33q.836 0 .972.777.136.778-.895 1.07.35.66 0 .836-.123.062-.24.062-.216 0-.411-.208-.302-.32-.535-.914-.233-.593-.7-.593h.33q-.213-.33-.155-.506l.034.002q.166 0 .219-.177.37-.35 1.38-.35zm1.147.057q.292 0 .836 1.255.545 1.254 1.77 2.314t1.974 2.577q.749 1.517 2.927 3.326-3.812-1.809-4.784-2.237-.973-.428-3.15-2.003-1.246-.914-1.246-1.459 0-.427.098-.739V8.1q.992 0 .992-.991 1.342-.661.583-2.023zm-.545 5.971q.37 1.77 1.829 3.91-.139.109-.302.109-.385 0-.904-.616 0-.972-.7-3.403zm.642.622q1.148.914 2.587 1.731v1.848q-.506-.39-1.011-.467-1.381-2.256-1.576-3.112zm.214 3.812q.265.336.546.336.255 0 .524-.277l.097 1.711q-.185-.041-.354-.041-.308 0-.56.138-.34-.113-.597-.113-.096 0-.18.016l.524-1.77zm.603-3.676l5.815 2.937q1.128 1.264 2.159 2.392v.02l-1.459.233-2.898-3.131q-.836-.68-3.617-2.45zM5.482 0h-.037q-.233.01-.486.4-.058.174-.243.388-.185.214-.535.428-.35.214-.505.34-.156.127-.525.458-.312.252-.448.408-.31-.194-.525-.476-.214-.282-.233-.516-.02-.233.048-.37.069-.135.214-.165.04-.008.08-.008.103 0 .202.057.136.078.117.272-.039.175-.253.214-.058-.025-.095-.025-.05 0-.06.045-.04.252.194.272l.05.002q.2 0 .33-.138.145-.156.126-.525Q2.762.652 2.47.613 2.417.606 2.364.606q-.237 0-.468.144-.282.175-.311.544-.03.37.263.749.291.379.641.632-.272.35-.564.875H1.09q.506.545.603 1.536h-.04q-.346 0-.29.331-.545.156-.545 1.03.181-.105.34-.105.044 0 .088.009.233 0 .379.544.146.545.632 1.206v.02q-.117.233-.117.738 0 .506.895 1.459.895 3.073.875 4.493 0 .175.253.213l-.642 2.14q-.052-.004-.106-.004-.272 0-.604.082-.19.046-.388.046-.219 0-.448-.056-.253-.062-.497-.062-.177 0-.349.033-.272.051-.432.051-.08 0-.132-.012Q.058 17.358 0 18q.337-.194.514-.194.089 0 .138.048.145.146.573.146h5.66q.37 0 .583-.156.071-.051.169-.051.194 0 .492.207.02-.622-.66-.797-.386.143-.696.143-.238 0-.433-.085l-.097-1.925q.532.736.93.736.17 0 .315-.134-.137-1.186-.137-2.178l.545.33q.467.215 2.052 2.024 1.52 1.734 1.814 1.734.013 0 .024-.004l1.847-.389q.292-.097.117-.291l-1.46-1.654q1.362.875 2.042 1.167-.33-.37-1.108-.934l.389.136q.233-.039.194-.37-3.384-2.45-4.298-4.22-.914-1.77-2.149-2.878-1.235-1.108-1.838-2.49-.37-.874-.758-1.186L6.573.633 6.146.399 5.134 2.597l.098-.447q.116-.467.252-.7.137-.234.273-.331.291-.428.291-.661 0-.234-.175-.35Q5.693 0 5.481 0zm6.662 1.88c-.404 0-.674.234-.67.606.006.404.277.637.67.637s.627-.234.621-.637c-.005-.373-.239-.606-.621-.606zM12.19.536c.266 0 .531.055.798.165.511.211.856.578 1.084 1.076.231.507.215 1.02 0 1.53-.215.506-.583.838-1.084 1.05a1.98 1.98 0 0 1-.778.16c-.275 0-.55-.056-.823-.16-.509-.193-.846-.567-1.075-1.05a1.797 1.797 0 0 1-.16-.774c-.001-.535.233-1.009.59-1.394.176-.19.394-.335.645-.438.27-.11.536-.165.802-.165zM12.127 0c-.703 0-1.256.244-1.752.741-.507.509-.723 1.062-.733 1.776a2.32 2.32 0 0 0 .247 1.108c.133.652.14 1.742-.037 1.742-.308 0-.132-.819-.147-1.074-.025-.435-.282-.805-.587-1.099-.07-.068-.148-.144-.25-.154a2.8 2.8 0 0 0-.294-.02.975.975 0 0 0-.333.051c-.076.027-.079.134-.054.204.026.072.074.148.157.158l.063.003c.101 0 .201-.025.303-.026h.013c.042 0 .09.004.12.035-.068.128-.162.252-.178.402a.393.393 0 0 0 .015.176c.199.55.32 1.813 1.145 1.813.156 0 .23-.032.28-.079.366-.34.372-.916.35-1.393.484.455 1.03.646 1.705.655h.039c.691 0 1.242-.256 1.737-.733.135-.13.249-.262.344-.401.022.472.045.948.218 1.392.137.35.441.604.768.778a.139.139 0 0 0 .056.019c.04 0 .016-.062-.03-.107a1.986 1.986 0 0 1-.484-.734c-.176-.481-.158-1-.147-1.502.007-.307.02-.615.002-.922h-.002c.01-.094.015-.191.016-.292.008-.72-.242-1.268-.74-1.776-.507-.515-1.06-.733-1.777-.74L12.127 0zM22.17 4.787q-.407 0-.471.314v.019q.046.083.193.083.425-.185.425-.342v-.018q0-.037-.148-.056zm1.477-.572q-.065.36-.637.775l.203.083.277-.101.138.092q1.062.508 2.817.536l2.752.027h.037q.47 0 .457.688-.014.716-.485 1.436-.296 0-.6-.226-.305-.226-.499-.53-.194-.306-.499-.795.093.97.554 1.524-.563 0-1.002.106-.219.053-.365.053-.147 0-.22-.053-.093-.066-.458-.066-.222 0-.545.024-.249.02-.455.02-.501 0-.75-.112-.23-.194-.29-.679-.06-.485.272-1.343-.684.489-.684 1.486v.333q-.341-.351-.535-.776-.379-.942-1.034-.942-.25 0-.96.314-.24-.101-.195-.323l.462-.619q.332-.563.48-.628.074-.138.72-.138.277.074.277.203 0 .175-.184.35.35-.073.508-.415 0-.083.443-.304zm.398-1.965q-.045 0-.103.072-.701 1.117-1.274 1.551-.222.194-.6.203-.185 0-.563-.277-.564-.545-.785-.923-.25-.444-.324-.49-.036 0-.055.093 0 .526 1.071 1.948-.203.296-.378.674-.176.379-.416.577-.24.199.046.393 0 .24.397.388.324-.093.988-.287.397 0 .545.333.49.738.49 1.542.055 1.071-.74 2.05-.248.166-.248.461 0 .12.304.12.499 0 .499-.12l-.037-.249q0-.13.194-.194v-.018q0-.176.628-1.764.286 0 .452.277.213.702.213 1.164 0 .101-.13.434-.157.12-.193.434h.738l-.055-.231q-.037-.139.101-.24l-.064-.342q-.12-1.302-.12-1.533v-.018q.73-.176 1.122-.176.392 0 .605.143.084.057.236.057.231 0 .618-.13.419-.142.643-.142.119 0 .183.04.185.115.185.392 0 1.016-.517 1.727-.167.166-.25.462h.638q.166-.056.073-.277.019-.24.222-.305 0-.84.739-1.662.517.286.526.886 0 .231-.092.628l-.111.305q-.102.12-.185.453h.61q.11-.047.138-.102l-.092-.296q-.046-.129.13-.23-.093-.49.12-.74-.435-1.015-.435-1.597.231-.95.296-1.782.11.582.027 1.395-.083.812.277 1.68.07.146.129.146.04 0 .075-.072.092-.526.037-2.909-.074-.295-.157-.452-.296-.453-.508-.471h-2.983q-2.207 0-3.269-.628.176-.314.194-.43.019-.115 0-.281-.443.13-.665.342l-.184-.139q.193-.12.618-.776.425-.655.499-1.025-.031-.062-.073-.062zm4.894 10.098c.487.021.754.032.87.032h.052l-.063 2.547a3.738 3.738 0 0 1-.97-.576l.11-2.003zm-7.108-.634c-.162.031-.377.131-.351.325v1.42c-.315-.015-.64-.031-.734-.031 0 .178.147.42.603.42.005.403.078.896.152 1.147l.063.66c0 .074.125.095.262.095.162 0 .34-.031.34-.031l-.026-.66c2.59.02 7.527.151 7.774.151.125 0 .21-.136.21-.325l.062-2.846-1.557-.016-.125 2.217c-1.127.006-3.077.19-4.403.19-.42 0-.781-.017-1.028-.069-.052-.058-.54-.765-.849-.844a1.36 1.36 0 0 0-.183-.02c-.053-.43-.105-.86-.152-1.285.094-.12.309-.09.367-.252.057-.078.02-.21-.09-.215-.062-.026-.235-.031-.309-.031zm10.26-9.464V8.5h4.894v-.735h-4.159v-4.78h12.27v4.78h-3.722V8.5h4.458V2.25zm7.779 7.703l-.367.213q-1.892 2.32-3.036 3.967-.778.427-1.129.679-.35.251-1.053.374-.884.06-.884.29v.212q-.01.061.61.061.31 0 .778-.015.498-.132.834-.132.168 0 .295.033.381.099.625.099t.39-.13q.144-.13.22-.8 0-.184 1.267-1.427 1.266-1.244 1.45-1.884 0-.168.472-.428.168 0 .763.656 1.16 1.404 1.579 1.999.42.595.114.77-.305.176-.61.473-.277.27-.578.27-.031 0-.063-.003-.67.107-.67.351v.153h1.57q.438-.234.77-.234.166 0 .306.058.42.176.648.176.351-.046.351-.29 0-.26-.244-.595-.381-.61-.96-2.144-.58-1.533-1.938-2.22-.794-.533-1.22-.533zM50.91 2.25q-1.462.034-2.42 1.058-1.057 1.16-1.158 2.318 0 .269.302.269h14.042q.302 0 .302-.32 0-.319-.302-.319H48.088q.84-2.15 2.52-2.385h11.068q.302 0 .302-.319 0-.302-.302-.302zm-.412 9.527c-.51.04-.793.296-.847.766.067.511.35.78.847.807.498-.027.76-.296.787-.807-.04-.47-.303-.726-.787-.766zm.06-1.694c.364 0 .7.067 1.009.202a2.659 2.659 0 0 1 1.371 1.361c.135.303.202.622.202.958 0 .35-.067.676-.202.978a2.567 2.567 0 0 1-2.38 1.523c-.362 0-.702-.064-1.018-.192a2.426 2.426 0 0 1-.817-.534 2.621 2.621 0 0 1-.544-.797 2.38 2.38 0 0 1-.202-.978c0-.336.067-.655.202-.958a2.77 2.77 0 0 1 .544-.807c.229-.235.501-.42.817-.554a2.574 2.574 0 0 1 1.019-.202zm-.04-.686c-.443 0-.86.084-1.25.253-.39.168-.726.396-1.008.685a3.36 3.36 0 0 0-.676 1.009 3.053 3.053 0 0 0-.252 1.24c0 .443.084.857.252 1.24.168.383.393.716.676.998a3.2 3.2 0 0 0 2.258.928c.444 0 .857-.084 1.24-.252a3.36 3.36 0 0 0 1.009-.676c.289-.282.518-.615.686-.998.168-.383.252-.797.252-1.24 0-.444-.084-.857-.252-1.24a3.268 3.268 0 0 0-1.694-1.694 3.053 3.053 0 0 0-1.24-.253zm10.542.863v5.49h.918v-5.49z"/><path d="M17.716.375v17.25m0-17.25h2.625m-2.625 17.25h2.625m0-17.25h41.637m-41.637 17.25h41.637m0-17.25h17.625m-17.625 17.25h17.625M63.74.375v17.25M67.265.375v17.25M69.028.375v17.25M70.79 2.1h8.813M70.79 5.55h8.813M70.79 2.1v3.45m1.763-1.725h7.05m-8.813 3.45h8.813m-8.813 3.45h8.813m-8.813-3.45v3.45M72.553 9h7.05m-8.813 3.45h8.813M70.79 15.9h8.813m-8.813-3.45v3.45m1.763-1.725h7.05" fill="none" stroke="#000"/></svg>