<svg xmlns="http://www.w3.org/2000/svg" width="84.587" height="18"><path d="M3.01.474c.693 0 1.247.2 1.634.479.006.053.02.107.009.16-.05.248-.195.477-.396.63-.316.207-.697.267-1.057.356-.09.01-.019.031.031.04.23.04.707.099.971.099l.052-.001c.278-.032.54-.148.766-.311.079-.067.147-.15.205-.236.147.346.227.713.26.917.018.11.096.2.202.233 1.139.349 2.038 1.91 2.88 2.949 1.729 2.137 3.199 4.526 4.892 6.76-.937-.456-1.87-.916-2.81-1.374-1.92-1.01-3.92-1.816-5.604-3.09l-.008-.008c-.97-.808-1.963-1.66-2.339-2.793-.148-.92 1.757-2.577 1.542-2.646a.207.207 0 0 0-.064-.01c-.458 0-1.753 1.128-2.019 2.202-.003-.014-.01-.03-.014-.045-.073-.356-.154-1.256.068-1.98a.29.29 0 0 0 .01-.103 1.968 1.968 0 0 0-.123-.634c-.063-.17-.139-.344-.26-.765-.031-.108-.142-.328-.208-.345.186-.138.375-.28.645-.375a.434.434 0 0 0-.132.314c0 .23.164.415.365.415.2 0 .364-.186.364-.415V.894a.411.411 0 0 0-.255-.39c.053-.007.096-.019.154-.022.081-.006.16-.008.238-.008zm.67 7.763c.065.065.135.124.202.187.214.78.412 1.64.692 2.305.483 1.145 1.216 2.141 1.84 3.154a1.814 1.814 0 0 0-.385.27 6.831 6.831 0 0 0-.199.193 2.61 2.61 0 0 0-1.186-.897c.045-.723-.108-1.712-.34-2.787a34.903 34.903 0 0 0-.624-2.425zm1.006.908c1.149.945 2.428 1.738 3.676 2.54-.018.91-.018 1.778.084 2.675a3.411 3.411 0 0 0-1.437-.736c-.02 0-.037.012-.057.012-.649-1.063-1.383-2.06-1.837-3.134-.156-.37-.293-.85-.429-1.357zm.407 5.254a2.5 2.5 0 0 1 .44.541.3.3 0 0 0 .257.14.29.29 0 0 0 .17-.053c.215-.156.347-.324.476-.446.047-.045.097-.08.148-.117l.149 2.722c-.213-.014-.435-.035-.637-.035-.264 0-.495.036-.633.172-.169-.134-.497-.164-.89-.164-.102 0-.207.002-.316.004l.836-2.764zM6.25 9.574c1.354.787 2.784 1.414 4.135 2.125a.244.244 0 0 0 .006.003c1.295.631 2.586 1.28 3.894 1.904.984 1.189 2.052 2.295 3.078 3.42l-2.15.362-4.267-4.635a.288.288 0 0 0-.037-.036c-1.499-1.137-3.152-2.082-4.66-3.143zM3.076 0c-.135 0-.273.005-.411.013C1.58.083.792.54.523 1.157c-.04.093-.146.314-.007.314a2.35 2.35 0 0 1 .341-.028c.418 0 .38.172.47.194.09.282.29.846.303 1.068-.244.86-.153 1.763-.064 2.198.15.732.63 1.584 1.261 2.38a.285.285 0 0 0 0 .166 35.3 35.3 0 0 1 .903 3.336c.251 1.168.393 2.277.317 2.823a.294.294 0 0 0 .221.328c.045.011.084.031.127.045l-.928 3.079a2.847 2.847 0 0 0-.593-.055c-.381 0-.756.05-1.064.05-.125 0-.24-.008-.34-.032a.546.546 0 0 0-.125-.012c-.436 0-1.428.306-1.34.879.15-.128.257-.159.375-.159.11 0 .23.027.405.027h.027c.254-.004.697-.083 1.053-.083.18 0 .338.02.438.08.236-.01.45-.013.649-.013.85 0 1.447.07 2.5.075a89.565 89.565 0 0 0 2.974-.079c.45.003.697.054.922.054h.04c.134-.004.265-.057.48-.057.123 0 .273.017.468.07-.25-.341-.877-.685-1.33-.685a.591.591 0 0 0-.302.071 5.081 5.081 0 0 0-.508-.022c-.22 0-.448.01-.678.02l-.157-2.83c.487.203.857.517 1.281 1.021a.295.295 0 0 0 .513-.246c-.192-1.039-.213-2.019-.202-3.06.54.354 1.072.713 1.576 1.094l4.36 4.738a.29.29 0 0 0 .263.09c.95-.159 1.9-.315 2.849-.474a.294.294 0 0 0 .23-.193.298.298 0 0 0-.06-.297c-.741-.83-1.508-1.631-2.25-2.445 1.269.78 2.875 1.755 3.08 1.755.022 0 .027-.013.012-.04-.094-.163-.9-.755-1.775-1.373.14.058.276.12.415.177l.017.01c.103.035.16.059.27.062a.286.286 0 0 0 .108-.016.317.317 0 0 0 .188-.152.32.32 0 0 0 .023-.238c-.017-.05-.038-.077-.054-.098-.061-.085-.103-.109-.162-.154a4.553 4.553 0 0 0-.205-.149c-.153-.105-.336-.223-.493-.328a4.992 4.992 0 0 1-.328-.233.307.307 0 0 0-.028-.025l-3.892-2.736c-.008-.006-.02-.001-.028-.006-1.333-1.869-2.588-3.825-4.046-5.627-.744-.92-1.598-2.528-2.985-3.064-.067-.396-.218-1.127-.755-1.649C4.827.26 4.168.056 3.427.011A5.728 5.728 0 0 0 3.076 0zM25.85 4.787q-.407 0-.472.314v.019q.047.083.194.083.425-.185.425-.342v-.018q0-.037-.148-.056zm1.477-.572q-.065.36-.637.775l.203.083.277-.101.138.092q1.062.508 2.817.536l2.752.027h.037q.47 0 .457.688-.014.716-.485 1.436-.296 0-.6-.226-.305-.226-.5-.53-.193-.306-.498-.795.093.97.554 1.524-.563 0-1.002.106-.219.053-.365.053-.147 0-.221-.053-.092-.066-.457-.066-.222 0-.545.024-.249.02-.455.02-.501 0-.75-.112-.23-.194-.29-.679-.06-.485.272-1.343-.684.489-.684 1.486v.333q-.341-.351-.535-.776-.379-.942-1.035-.942-.249 0-.96.314-.24-.101-.194-.323l.462-.619q.332-.563.48-.628.074-.138.72-.138.277.074.277.203 0 .175-.184.35.35-.073.508-.415 0-.083.443-.304zm.398-1.965q-.045 0-.103.072-.701 1.117-1.274 1.551-.222.194-.6.203-.185 0-.563-.277-.564-.545-.785-.923-.25-.444-.324-.49-.037 0-.055.093 0 .526 1.071 1.948-.203.296-.378.674-.176.379-.416.577-.24.199.046.393 0 .24.397.388l.988-.287q.397 0 .545.333.49.738.49 1.542.055 1.071-.74 2.05-.249.166-.249.461 0 .12.305.12.499 0 .499-.12l-.037-.249q0-.13.194-.194v-.018q0-.176.628-1.764.286 0 .452.277.213.702.213 1.164 0 .101-.13.434-.157.12-.194.434h.74l-.056-.231q-.037-.139.101-.24l-.064-.342q-.12-1.302-.12-1.533v-.018q.73-.176 1.122-.176.392 0 .604.143.085.057.237.057.23 0 .618-.13.419-.142.643-.142.119 0 .183.04.185.115.185.392 0 1.016-.517 1.727-.167.166-.25.462h.637q.167-.056.074-.277.019-.24.222-.305 0-.84.739-1.662.517.286.526.886 0 .231-.092.628l-.111.305q-.102.12-.185.453h.61q.11-.047.138-.102l-.092-.296q-.046-.129.13-.23-.093-.49.12-.74-.435-1.015-.435-1.597.231-.95.296-1.782.11.582.027 1.395-.083.812.277 1.68.07.146.129.146.04 0 .074-.072.093-.526.037-2.909-.073-.295-.157-.452-.295-.453-.507-.471h-2.983q-2.207 0-3.269-.628.176-.314.194-.43.018-.115 0-.281-.443.13-.665.342l-.185-.139q.194-.12.62-.776.424-.655.498-1.025-.031-.062-.073-.062zm4.893 10.098c.488.021.755.032.87.032h.053l-.063 2.547a3.738 3.738 0 0 1-.97-.576l.11-2.003zm-7.107-.634c-.163.031-.377.131-.351.325v1.42c-.315-.015-.64-.031-.734-.031 0 .178.147.42.603.42.005.403.078.896.152 1.147l.063.66c0 .074.125.095.262.095.162 0 .34-.031.34-.031l-.026-.66c2.59.02 7.527.151 7.773.151.126 0 .21-.136.21-.325l.063-2.846-1.557-.016-.126 2.217c-1.127.006-3.076.19-4.402.19-.42 0-.781-.017-1.028-.069-.052-.058-.54-.765-.849-.844a1.36 1.36 0 0 0-.183-.02c-.053-.43-.105-.86-.152-1.285.094-.12.309-.09.366-.252.058-.078.021-.21-.089-.215-.063-.026-.235-.031-.309-.031zm12.368-8.388l1.236.785q.247 2.428.05 3.91-.196 1.484-.232 2.45-.036.967.473 2.596-.015.116-.422.334-.19.102-.452.102-.296 0-.682-.131.77-1.425.669-3.097-.102-1.672-.393-3.758-.29-2.086-.247-3.191zm-.552 10.7q.668.117 1.134.233-.175.64-.815.814-.274.075-.527.075-.337 0-.636-.133.262-.61.844-.989zM37.239 2.25q-.13 1.207.313 4.064.443 2.856.443 3.845 0 2.617-1.003 3.155-.945.96-1.221 1.934.276.378.989.472.225.03.43.03.443 0 .79-.139.51-.204.771-.538.335-.45.19-1.018l.624-.334q.451-.218.277-.698-.713-1.919-.27-4.536.444-2.617.124-4.696L37.24 2.25zm8.836 0l-.014.001a15.506 15.506 0 0 1-1.122.037c-.08.005-.087.107-.06.165.168.474.313.956.45 1.44h-.02c-.134.003-.271 0-.404.013l-.007.01c-.008-.03-.029-.058-.06-.065a28.706 28.706 0 0 1-1.275-.923c-.01-.002-.02-.005-.032-.005h-.007c-.041.026-.057.084-.08.127-.073.197-.134.399-.216.593-.058.148-.123.294-.167.446.02.042.057.055.097.055.039 0 .08-.012.113-.022.515-.11 1.046-.1 1.57-.107-.052.115-.074.243-.122.36-.021.066-.046.134-.06.202a.092.092 0 0 0-.014 0l-.016.001c-.64.248-1.265.552-1.81.97a6.77 6.77 0 0 0-.75.652c-.005.096.104.127.176.154l.442.182c-.075.103-.094.236-.142.353-.248.726-.596 1.413-.887 2.122 0 .058.055.087.108.087.02 0 .039-.004.055-.012.103-.019.206-.028.309-.03-.022.08-.03.165-.066.24-.174.555-.459 1.065-.674 1.604-.01.058.044.095.097.095a.1.1 0 0 0 .045-.01 6.45 6.45 0 0 1 .796-.092c-.03.074-.036.157-.06.234-.129.545-.317 1.082-.34 1.646-.004.367.04.733.098 1.095.1.595.28 1.174.512 1.73.003.051.05.083.095.083a.081.081 0 0 0 .072-.04c.034-.075.045-.16.07-.238.134-.481.23-.974.272-1.472.042-.43.058-.863.055-1.295-.018-.505-.138-.999-.216-1.497-.013-.075-.023-.152-.042-.226a7.034 7.034 0 0 1 .764.127c.08 0 .098-.107.062-.164-.216-.567-.438-1.134-.62-1.714l.027.005c.22.04.44.091.663.104.07-.058.02-.152-.014-.216-.269-.582-.489-1.193-.576-1.83-.028-.173-.028-.35-.058-.523.19.077.38.154.57.228.082-.02.086-.121.07-.19a2.105 2.105 0 0 1 .266-1.198c.178-.318.436-.58.699-.828.104.09.225.156.342.227l-.059.015c-.216.418-.398.852-.591 1.28-.025.06-.054.12-.063.184.032.052.086.063.143.063.035 0 .071-.004.104-.004h.005l.241-.006c-.027.083-.035.176-.062.259-.154.639-.308 1.279-.46 1.919.018.068.086.082.15.082a.648.648 0 0 0 .055-.003l.397-.014c-.037.105-.053.218-.089.323-.171.628-.346 1.257-.514 1.886.019.07.088.085.154.085a677.2 677.2 0 0 1 .691-.021.867.867 0 0 0-.024.103c-.132.577-.335 1.144-.366 1.74-.002.54.078 1.077.201 1.602.102.423.246.836.41 1.239.007.046.051.077.094.077.025 0 .049-.01.065-.035.035-.062.041-.137.066-.205a8.29 8.29 0 0 0 .314-1.902c.022-.343.034-.687.018-1.03-.035-.492-.147-.974-.225-1.46-.01-.048-.017-.097-.03-.145.222-.007.443-.014.664-.023.079-.06.035-.167.013-.245-.188-.674-.374-1.349-.567-2.021.185-.007.37-.014.554-.023.078-.06.034-.166.011-.243l-.584-1.969.595-.016c.075-.05.039-.15.004-.214-.177-.4-.351-.801-.534-1.199.132-.054.263-.11.39-.171.354.33.663.728.805 1.196.081.278.086.573.058.86.016.044.054.061.095.061a.2.2 0 0 0 .101-.03l.443-.182-.004.004a5.206 5.206 0 0 1-.347 1.696c-.098.265-.22.52-.326.78-.006.057.047.091.098.091a.102.102 0 0 0 .05-.013c.196-.029.39-.067.585-.105-.039.108-.066.221-.11.327-.165.486-.353.965-.534 1.445-.013.057.038.107.091.107a.08.08 0 0 0 .042-.011 5.81 5.81 0 0 1 .716-.116.57.57 0 0 0-.012.066c-.08.447-.167.892-.223 1.342a4.98 4.98 0 0 0-.018.846c.026.713.097 1.429.288 2.118.032.117.064.236.102.351a.08.08 0 0 0 .075.044c.038 0 .075-.021.084-.062a7.92 7.92 0 0 0 .566-2.05c.05-.41.082-.828.004-1.236-.08-.434-.208-.857-.311-1.285-.017-.05-.026-.104-.043-.153.124.003.247.011.37.027.17.018.34.054.511.069.073-.02.067-.116.031-.166-.24-.577-.551-1.13-.704-1.738l-.008-.032c.028 0 .057 0 .086.002.11.008.218.03.326.039.077-.034.058-.134.022-.192-.318-.723-.662-1.437-.908-2.19-.023-.058-.04-.124-.074-.176l-.006-.003c.2-.083.398-.166.596-.252.046-.08-.032-.156-.09-.201-.507-.462-1.064-.874-1.683-1.171a6.493 6.493 0 0 0-.716-.3c-.018-.055-.044-.11-.057-.163-.063-.181-.116-.368-.196-.542a.252.252 0 0 0 .052.004l.06-.001h.152c.46 0 .922.015 1.37.118.014.006.03.009.046.009.046 0 .094-.023.084-.074-.087-.273-.21-.534-.3-.807-.04-.112-.078-.225-.128-.332a.113.113 0 0 0-.06-.008c-.42.308-.834.628-1.27.916-.046.023-.105.07-.073.127v.001a.848.848 0 0 0-.157-.012l-.16.002a1.243 1.243 0 0 1-.068-.001h-.035a.077.077 0 0 0 .004-.029c.17-.508.34-1.022.63-1.476.036-.046.01-.127-.045-.137a.065.065 0 0 0-.012-.001zm6.156 0c-.697 0-1.309.513-1.309 1.171V15.75h.852V3.421c0-.322.284-.427.463-.427.187 0 .475.131.475.527v8.103h.852V3.521c0-.66-.653-1.271-1.333-1.271zm6.214.336q-.197 0-.197.232 0 .196.197.196.208-.011.208-.22 0-.208-.208-.208zm-.764.15v.209l-.452.081q.208-.22.452-.29zm.023.278q.266.209.092.313-.266-.093-.393-.243l.3-.07zm.81-.532q.544 0 .869.417.324.417.347 1.285.845.174 1.123.764.045.383-.172.383h-.013q-.232-.012-.365-.128-.048-.042-.073-.042-.043 0-.014.129.047.202.51.492t.075.48q-.096.048-.205.048-.33 0-.773-.435-.59-.58-.626-.88-.034-.302.244-.556.165-.152.113-.152-.035 0-.171.07-.336.174-.354.51-.017.336.267.735.283.4 1.117 1.014.085.044.193.044.23 0 .56-.2.486-.296-.486-.91.358-.092.37-.312.452.15 2.536 2.802.556.37.567.544-.011.162-.173.197-.035.007-.071.007-.131 0-.277-.1-.648.313-1.256.324l-.064.001q-.565 0-.938-.197.382.335.267.706-.057.18-.085.18-.031 0-.031-.203 0-.394-1.008-.753v.44q-.059.25-.094.25-.033 0-.045-.227-.069-.498-.33-1.07-.26-.574-.827-1.587-.568-1.013-.724-1.46-.156-.445-.145-.827.012-.382-.156-.562-.168-.179-.099-.387.07-.209-.208-.394v-.197q.301-.243.625-.243zm2.2 6.67q.568.162.568.382l-.382 1.424q-.047.255-.313.255h-.463v-.024l.59-1.806v-.232zM58.556 2.25h-.042q-.451 0-.915.37-.266.093-.544.43.382.347.695.428.035.162.22.451.012.764.208 1.268.197.504 1.32 2.704.556 1.158.556 1.424 0 .405-.51 1.818 0 .081-.694.127-1.042.035-1.042.29 0 .15.139.15h3.08q.29-.231.324-.393.278.116.301.312.04.156.111.156.013 0 .028-.005.093-.035.093-.15-.081-.313-.406-.603l.371-1.563q1.123-.035 1.957-.359.154.035.283.035.257 0 .412-.14.231-.208-.093-.648-.706-.706-1.343-1.551-1.309-1.61-1.795-1.864-.162-.336-.388-.533t-.816-.486q-.012-.684-.319-1.181-.3-.487-1.191-.487zm-1.754 11.977c.427 0 .962.22 1.22.478.227.226.257.527.265.806h-2.959c.009-.28.038-.58.265-.806.259-.259.781-.478 1.209-.478zm0-.24c-.507 0-1.053.235-1.373.554-.328.328-.365.76-.365 1.083v.126h3.475v-.126c0-.323-.024-.755-.352-1.083-.32-.32-.878-.554-1.385-.554zm2.533-1.154v2.917h.488v-2.917zm3.352.004v2.913h.488v-2.913zm3.413 0v2.913h.487v-2.913z"/><path d="M21.396.375v17.25m0-17.25h2.625m-2.625 17.25h2.625m0-17.25h42.566m-42.566 17.25h42.566m0-17.25h17.625m-17.625 17.25h17.625M68.35.375v17.25M71.875.375v17.25M73.637.375v17.25M75.4 2.1h8.812M75.4 5.55h8.812M75.4 2.1v3.45m1.762-1.725h7.05M75.4 7.275h8.812m-8.812 3.45h8.812M75.4 7.275v3.45M77.162 9h7.05M75.4 12.45h8.812M75.4 15.9h8.812M75.4 12.45v3.45m1.762-1.725h7.05" fill="none" stroke="#000"/></svg>