<svg xmlns="http://www.w3.org/2000/svg" width="57.244" height="18"><path d="M11.116 8.203c-.51.04-.793.296-.847.767.067.51.35.78.847.806.498-.026.76-.295.787-.806-.04-.47-.303-.726-.787-.767zm.06-1.694c.364 0 .7.068 1.01.202a2.659 2.659 0 0 1 1.371 1.361c.134.303.201.622.201.958 0 .35-.067.676-.202.978a2.567 2.567 0 0 1-2.38 1.523c-.362 0-.702-.064-1.018-.192a2.426 2.426 0 0 1-.816-.534 2.621 2.621 0 0 1-.545-.797 2.38 2.38 0 0 1-.202-.978c0-.336.068-.655.202-.958.134-.302.316-.571.545-.806.228-.236.5-.42.816-.555a2.574 2.574 0 0 1 1.019-.202zm-.04-.685c-.443 0-.86.084-1.25.252-.39.168-.726.396-1.008.685a3.36 3.36 0 0 0-.676 1.009 3.053 3.053 0 0 0-.252 1.24c0 .444.084.857.252 1.24.168.384.393.716.676.999a3.2 3.2 0 0 0 2.258.927c.444 0 .857-.084 1.24-.252a3.36 3.36 0 0 0 1.009-.675c.289-.283.518-.615.686-.999.168-.383.252-.796.252-1.24 0-.444-.084-.857-.252-1.24a3.268 3.268 0 0 0-1.694-1.694 3.053 3.053 0 0 0-1.24-.252zm8.74-3.574c-.09 0-.095.283-.224.701-.146.476-.254 1.472-.591 1.665a.298.298 0 0 1-.153.039c-.1 0-.202-.038-.313-.038a.409.409 0 0 0-.127.02c-.158.05-.242.297-.408.326-.692.12-1.637.075-2.166.123-.34.03.567.698 1.473.698h.039c.188-.005.387-.013.584-.013.33 0 .658.024.928.135.264.109.575.425.572.735l-.11 9.109h1.019l-.052-10.289c-.002-.276.795-.464.9-.702.181-.415.088-2.247-.205-2.493a.016.016 0 0 0-.01-.004c-.132 0-.378 1.92-.766 2.333-.04.043-.118.062-.185.062-.073 0-.133-.022-.121-.062.246-.838.345-2.061-.041-2.329a.077.077 0 0 0-.043-.016zm5.171 0q-.174 0-.19.152l.169-.037q.104 0 .057.11-.12.116-.036.341-.154.332-.592.332l-.053-.001q.02.246-.105.372-.44.252-.44.461.345.163.115.399-.231.236-.231.32.152.047.21.162.262.64.53.907l-.022.215q.257 0 .283-.272-.482-.588-.466-1.254.02-.665.844-1.31.236-.131.236-.509 0-.388-.31-.388zm3.145 0q-.309 0-.309.388 0 .378.226.509.833.645.854 1.31.016.666-.477 1.254.037.272.283.272l-.016-.215q.263-.267.53-.907.063-.115.205-.162 0-.084-.226-.32-.225-.236.115-.399 0-.21-.435-.461-.126-.126-.115-.372h-.052q-.43 0-.583-.33.08-.226-.036-.342-.047-.11.057-.11l.168.037q-.016-.152-.189-.152zm-1.575 2.873q.616 0 1.235.472.482.41.057.939h-2.59q-.425-.53.068-.939.614-.472 1.23-.472zm-1.854 1.589q-.728.85-.728 1.295.057.257.225.257.22 0 .283-.2 0-.66.283-1.106l-.063-.246zm3.713 0l-.063.246q.283.446.283 1.107.057.199.283.199.162 0 .225-.257 0-.446-.728-1.295zm-2.297.094q.34 0 .34.362V9.9q-1.069 0-1.21-.687-.142-.687-.016-2.407zm1.751 0q.142 1.72-.005 2.407t-1.216.687V7.168q0-.362.34-.362zm-1.39-2.92v.189q0 .13-.104.13-.163 0-.388-.188h-.115l.361.682-.115.036q-.189-.246-.377-.508-.03-.014-.052-.014-.058 0-.07.087l.284.493q-.2.163-.2.283-.314 0-.471.247-.456.32-.456.707 0 .294.189.672-.132.728-.132 1.835 0 .728.252 1.169.257.44 1.468.44 1.211 0 1.463-.44.257-.44.257-1.17.01-1.106-.12-1.824.188-.388.188-.682 0-.388-.461-.707-.163-.247-.467-.247 0-.12-.215-.283l.283-.493q0-.087-.054-.087-.021 0-.05.014-.19.262-.378.508l-.115-.036.35-.682h-.104q-.236.189-.404.189-.089 0-.089-.131v-.19zM24.47 8.51h-.02q-.614 1.086-.614 1.71 0 .624.215 1.001.22.378.598.456-.509-.681-.509-1.09 0-.404.095-.66.084.717.377 1.011-.13-.577-.12-1.216.005-.645.215-.96.01-.252-.237-.252zm4.301 0q-.247 0-.237.252.2.315.21.96.01.64-.115 1.216.293-.294.377-1.012.095.257.095.66 0 .41-.51 1.091.378-.078.588-.456.215-.377.215-1.001 0-.624-.603-1.71h-.02zm-5.931 4.203v3.037h.507v-3.037zm3.489.004v3.033h.508v-3.033zm3.553 0v3.033h.507v-3.033zm3.164-8.909l2.737 2.406q-.577.89-1.533 1.797-.907-2.143-1.204-4.203zm-.728-1.187q-.528 0-.409.725.511.248.429.56-.083.314.066 1.04.148.725 1.186 3.444-.315 1.074.367 1.074l.062-.002q1.846 3.395 4.071 5.917h.396l-.1-1.104q-1.78-1.665-3.807-5.39.594-1.253 1.665-2.193l3.28 2.95q.248.112.417.112.457 0 .325-.82l-3.297-2.818q.014-.75-.624-.75-.148 0-.332.04L33.046 2.82q-.452-.198-.728-.198zm14.308 1.907a.675.675 0 0 0-.17.021c-.259.067-.388.152-.388.255l.062.016c.229-.114.418-.172.567-.172a.55.55 0 0 1 .037.002c.155.01.361.093.62.247V4.82c-.269-.195-.511-.292-.728-.292zm-.107.362c.022 0 .042.002.06.007a.98.98 0 0 1 .217.093c-.09.007-.169.01-.238.01a.709.709 0 0 1-.289-.04.623.623 0 0 1 .25-.07zm.045-.116c-.279.02-.64.19-1.084.51l.015.062.573-.325c.146.06.297.091.453.091.11 0 .222-.015.337-.044.062 0 .217.036.464.108a.13.13 0 0 0 .054-.124c-.005-.051-.049-.088-.131-.108l-.093.03c-.3-.133-.495-.2-.588-.2zm.913-2.26l.186.015-.372 1.842.511.108.588-1.826.217.046-.758 2.105c-.248.104-.372.207-.372.31 0 .361-.16.588-.48.681l.155 1.27c-.093 0-.16-.072-.201-.217-.145-.609-.305-1.006-.48-1.192-.093 0-.485.103-1.177.31a.272.272 0 0 1-.201-.078c.371-.196.627-.312.766-.348.14-.036.253-.054.34-.054.089 0 .138-.047.148-.14-.268 0-.604.078-1.006.233l-.387.2-.124-.077c.02-.04.278-.283.774-.727.495-.444 1-.666 1.517-.666l.356-1.796zm-.666 4.334c0 .217.119.366.356.449L46.86 9.79l.772.015.17-2.539c0-.124.093-.206.279-.248.144.042.217.124.217.248 0 .444-.057 1.463-.17 3.058-.114 1.594-.326 2.954-.635 4.08.144.35.227.65.247.897h-4.784c.227-.454.33-.867.31-1.238-.289-3.128-.464-4.815-.526-5.063a.686.686 0 0 1 .313-.09c.103 0 .194.036.275.105.165.155.477.754.937 1.796.459 1.043.807 1.936 1.045 2.679.35-.95.738-2.823 1.16-5.62.166-.681.28-1.022.341-1.022zm.418-4.598l-.232 1.641c0 .124-.088.201-.263.232a1.738 1.738 0 0 0-1.161.666c-.671.526-1.012.82-1.022.882-.041.083.02.176.186.28.165.102.284.206.356.309.485-.176.877-.29 1.176-.34.114.195.181.293.202.293v.031c-.382.578-.79 1.73-1.223 3.453h.542l-.511 2.616c-.847-2.539-1.58-3.808-2.199-3.808-.825.154-1.254.247-1.285.278l.047.31h.51l.48 5.093c0 .403-.237.924-.712 1.564h6.255a7.141 7.141 0 0 0-.433-1.347c.31-1.507.505-3.034.588-4.582l.387.015.077-2.57c-.03-1.373-.32-2.234-.867-2.585.031-.145.29-.862.774-2.152l-.65-.17-.588 1.935-.14-.031.434-1.951-.728-.062z"/><path d="M7.95.375c-9.625 0-9.625 17.25 0 17.25m0-17.25h41.044M7.95 17.625h41.044M56.682.375v17.25M48.994.375c9.625 0 9.625 17.25 0 17.25" fill="none" stroke="#000"/></svg>