<svg xmlns="http://www.w3.org/2000/svg" width="36.767" height="18"><path d="M12.453 2.554q.172 0 .357.102.27.148.336.443.068.256-.06.518t-.424.343q-.09.025-.177.025-.195 0-.367-.126-.249-.182-.316-.424v.014q-.067-.269.067-.538.135-.269.43-.336.076-.021.154-.021zm-.866 1.863q-.054 0-.054.067 0 .04.054.054.054-.014.054-.054 0-.067-.054-.067zm0-.027q.08 0 .08.094 0 .067-.08.094-.04-.013-.094-.067.013-.121.094-.121zm-2.864-.067l.094.376q0 .121-.174.135.08-.27.08-.511zm3.05-.031q-.05 0-.105.004.08.054.026.12-.04-.066-.107-.066-.148 0-.148.188.08.067.074.114-.007.047-.02.074.054.054.107.31.04 0 .04-.028 0-.269.014-.363.08-.16.209-.16.127 0 .208.093.08.094.06.222-.02.128-.356.276v.026q.511-.16.464-.504-.042-.306-.466-.306zm-2.646.125q.04.269.013.578-.027.31-.282.39-.168-.037-.41-.037-.282 0-.666.05-.08-.04-.067-.12.39-.149 1.049-.337.242-.08.363-.524zm2.904-.215q.309 0 .35.43.04.43-.646.565.134.067.201.208.068.141.081.289-.038.014-.072.014-.064 0-.116-.048-.08-.074-.215-.383-.17-.524-.418-.524h-.08q.009-.066.042-.066.021 0 .052.026.022-.044.072-.044.042 0 .103.03-.12-.134-.12-.269.013.003.024.003.058 0 .07-.056.026 0 .18-.088.155-.087.492-.087zm1.022 1.511q.174 0 .376.048-.188.525-.511.713V5.72q.065-.008.135-.008zM11.56 5.52q.027.08.094.215l-.12.78h-.283q0-.632.309-.995zm-.027 1.062v.054h-.282v-.054zm1.29 0v.054h-.416v-.054zm-.308-2.393q.537 0 1.082.41.544.41.665 2.05h-.161l-.014-.376q-.013-.686-1.277-.686v.928h-.403v-1.29q.457-.525.108-1.036zm-.753 1.627q.12.094.275.1l.018.001q.143 0 .244-.101l-.013.793q-.175.067-.343.067-.168 0-.302-.067l.12-.793zm1.304.645l-.014.215h-.174l.188-.215zm.282-.35l-.12.565h-.095l.013-.242.202-.322zm.914.592v.068h-.161v-.068zm-.914.094l-.04.121h-1.815l-.04-.12zm.672.054v.094h-.457V6.85zm-3.401-.08l.444.094-.014.094-.457-.094.027-.094zm3.401.215v.08h-.457v-.08zm-3.428-.068l.43.081-.013.08-.444-.093.027-.068zm2.662.121l-.04.121H11.56l-.04-.12zm.766.068l-.013.094h-.444v-.094zm-3.455-.068l.43.081-.026.094-.43-.08.026-.095zm1.224 1.466l-.054.04v.067l.027.027q.067-.013.067-.134zm1.357-1.21q-.04.188-.094.672l-1.371.753q.054-.35.027-.74t-.067-.685zm-.067.806l.027.43-1.277.458q.067-.135.013-.242L13.08 8.1zm-1.344.697q.054 0 .054.09 0 .128-.148.181l.04-.255q.032-.016.054-.016zm-2.192.137q.095.067.229.255l-.202.202q-.107-.08-.201-.228l.174-.229zm4.383.524v.283l-.296.013-.026-.296zm-2.285-.201q.12.605.376 1.183h-.591l.215-1.183zm1.452-.578q.053.04.1.248.048.209.034.491l.014 1.022h-1.05q-.281-.605-.43-1.304l1.332-.457zm.43-2.004q-.04 1.25.067 1.452-.094.619-.054 1.331l.08.417v.013q-.107.256-.04.552h-.174l-.04-1.09q.013-.416-.148-.792.013-.31.006-.444-.005-.112-.053-.112-.01 0-.02.004.026-.497.376-1.33zm.196 3.656l.005.001q.027.014.068.108h-.094q0-.11.021-.11zm-2.202.416q.52 0 1.307.015-.054.202 0 .498l-2.003-.27q-.064.246-.23.246-.043 0-.093-.017-.242-.242.027-.43.126-.042.992-.042zm-.253.593l1.304.135.148.202H11.21l.054-.337zm1.99-.618l.027.955h-.39l-.134-.189.43.04q-.108-.537 0-.806zm.027 1.049v.067h-2.11l.013-.067zm-2.124-5.069q.443.847.443 1.345 0 .269-.02.638-.02.37-.195 1.27l-.107.485h-.659q-.323 0-.51.269-.19.39.107.726.225.177.422.177.249 0 .452-.285h.013l-.134.632h.12q-.147.282-.12.464.026.181-.081.847-.108.665-.35 1.324-.12.269-.242.39-.12.12-.457.242-.336.12-.645.148-.116.01-.188.057V9.808q.215 0 .376-.162.135-.08.457-.416 1.062-1.304 1.318-2.528zm-2.151 8.73zM12.458 2.25q-.118 0-.24.03-.416.12-.597.497-.182.376-.088.753.08.309.323.497-.283.04-.404.134-.12.095-.107.121-.02-.013-.042-.013-.022 0-.045.013-.048.027-.048.108-.228.094-.228.551.1-.056.155-.056l.02.002q.161 0 .35.498-.135.12-.189.39l-.062-.002q-.457 0-.583.378l-.108.605-.296.968q-.188.242-.557.813-.37.572-.518.585l-.188-.067V5.694q.282-.323.309-.571.027-.25-.04-.962 0-.107-.121-.107-.054 0-.095.161-.04.162-.134.35-.027-.108-.074-.31-.047-.201-.154-.201-.068 0-.081.067-.014.067-.027.188-.054.551-.229.605-.847.215-.86.296.013.08.08.242.071.09.187.09.039 0 .083-.01.255-.026.433-.026t.28.027q.2.053.214.148v3.347q-.08 0-.175.014-.094.013-.114.073-.02.061.06.128-.053.229-.006.417.039.155.173.155.029 0 .062-.007v5.942h.229v-.01q.11.01.322.01.283 0 .531-.108.11-.047.24-.047.161 0 .352.074.127.05.242.05.195 0 .356-.144-.067-.524.108-.94.672-1.291.591-1.708-.08-.417.148-.968h.551q0 .027.121.134.027.377.215.565.377 1.371.404 1.869-.04.47-.78.793-.376.067-.544.074-.169.006-.169.302h.847q.179-.096.444-.096.214 0 .484.063.097.022.17.022.383 0 .112-.62-.067-.283-.013-.62.054-1.37-.141-1.7-.195-.33-.168-.84h.04l-.054-1.183h.162q-.014.067.027.094.02.01.034.01.027 0 .04-.03.02-.047.02-.074h.053q-.06.17.148.17l.047-.002q.262-.02.276-.168h.228v-.282h-.215q0-.04-.1-.182-.101-.141-.182-.45.121-1.25.054-1.788.094-.619.107-1.183h.336q0-2.5-1.438-2.743.551-.484.43-1.075-.12-.417-.477-.625-.246-.144-.507-.144zm4.287 8.727v1.225h2.703v-1.225h-.53c-.154.272-.33.449-.53.53a.76.76 0 0 1-.59 0c-.195-.081-.37-.258-.524-.53zm1.64-4.458v2.03h-.614v2.483h.662V9.476h.768V7.347h.949c.169 1.324.629 2.308 1.379 2.952.75.643 1.677 1.016 2.78 1.12 1.104.102 1.828.248 2.174.435.346.188.519.377.519.569h1.346c-.206-.493-.482-.868-.828-1.126-.346-.257-.987-.42-1.925-.485-.938-.067-1.688-.19-2.251-.37a3.588 3.588 0 0 1-1.506-.96c-.442-.46-.78-1.447-1.015-2.963zm-.893 7.115l-1.542 1.823h.752l.79-.942.797.942.775-.942.797.942.79-.942.797.942.79-.942.797.942.774-.942.798.942.797-.942.774.942.798-.942.79.942h.751l-1.541-1.823-.798.881-.774-.88-.797.88-.798-.88-.774.88-.797-.88-.79.88-.797-.88-.79.88-.797-.88-.775.88-.797-.88zm8.138-9.187c-.408.032-.634.237-.677.613.054.409.28.624.677.646.398-.022.608-.237.63-.646-.033-.376-.242-.58-.63-.613zm.049-1.355c.29 0 .56.054.807.161a2.127 2.127 0 0 1 1.097 1.089c.107.242.161.498.161.767 0 .28-.054.54-.161.782a2.029 2.029 0 0 1-1.097 1.065 2.092 2.092 0 0 1-.807.153c-.29 0-.562-.05-.815-.153a1.94 1.94 0 0 1-.653-.428 2.097 2.097 0 0 1-.436-.637 1.905 1.905 0 0 1-.161-.782c0-.27.054-.525.161-.767.108-.242.253-.457.436-.645s.4-.336.653-.444c.253-.107.524-.161.815-.161zm-.032-.549a2.5 2.5 0 0 0-1 .202 2.483 2.483 0 0 0-.807.549c-.226.23-.406.5-.54.806a2.443 2.443 0 0 0-.202.993c0 .354.067.685.201.992.135.306.315.572.54.798a2.56 2.56 0 0 0 1.808.742c.355 0 .685-.067.992-.201.306-.135.575-.315.807-.54.23-.227.414-.493.548-.8.134-.306.202-.637.202-.991 0-.355-.068-.686-.202-.993a2.615 2.615 0 0 0-1.355-1.355 2.443 2.443 0 0 0-.992-.202z"/><path d="M7.5.375c-9.625 0-9.625 17.25 0 17.25m0-17.25h21.017M7.5 17.625h21.017M36.205.375v17.25M28.517.375c9.625 0 9.625 17.25 0 17.25" fill="none" stroke="#000"/></svg>