<svg xmlns="http://www.w3.org/2000/svg" width="68.168" height="18"><path d="M11.495 7.79c.805 0 1.813.414 2.301.902.427.426.483.992.499 1.518H8.718c.016-.526.072-1.092.499-1.518.487-.488 1.472-.902 2.278-.902zm0-.451c-.956 0-1.984.441-2.587 1.044-.618.618-.688 1.432-.688 2.04v.238h6.55v-.237c0-.61-.047-1.423-.665-2.04-.603-.604-1.655-1.045-2.61-1.045zm9.492 1.18c1.02 1.145 1.864 2.453 2.617 3.781.158.195-.02.374-.15.559-.496-1.575-1.637-2.79-2.467-4.34zM20 2.736c.085.396-.071.854-.372.989l.096.205c.376-.178.737-.713.79-1.193.514.03.654.417.735.865.096.307-.002 1.05.387 1.179 1.146.444 2.023.957 2.81 1.734 1.358 1.698 2.777 3.342 4.135 5.042a69.07 69.07 0 0 0 1.401 1.725c-2.062-1.542-4.366-2.72-6.626-3.946-1.201-.652-2.348-1.186-2.348-2.623 0-.773 1.425-1.42 1.366-1.521-.005-.01-.022-.013-.048-.013-.292 0-1.789.555-1.789 1.725 0 .324.087.625.238.905h-.007c-1.641-.87-1.38-2.63-1.317-4.18-.682-.038-1.244-.41-1.892-.565.503-.065 1.004-.15 1.507-.201a.4.4 0 0 0-.238.15c-.009.166.178.239.36.239.179 0 .352-.07.335-.19a.457.457 0 0 0-.39-.206c.25-.036.584-.09.867-.12zm2.867 9.977c.147.357.224.736.307 1.11.239-.193.47-.392.667-.628-.128.694-.366 1.395-.945 1.395-.35 0-.512-.237-.288-.954.106-.338.19-.66.26-.923zm-.628-3.438c2.34 1.247 4.658 2.506 6.872 3.969.521.422.985.893 1.3 1.334-.209.324-.606.435-.973.46-1.873-.066-2.607-1.872-3.597-3.162l-.538-.654.093.838c.006.15.16.864-.07.864a.17.17 0 0 1-.067-.016l-.947-1.134c-.101.067-.197.143-.301.205-.47-.95-1.157-1.836-1.772-2.704zm-2.02-7.025c-.492 0-.996.088-1.474.133-.57.278-1.147.066-1.745.283-.431.194-.552.587-.73.98a2.19 2.19 0 0 1 .703-.12c.697 0 1.257.351 1.993.538-.001.37-.059.788-.087 1.21-.114 1.145.49 2.15 1.361 2.865.625 1.39 1.489 2.457 2.12 3.542-.076.488-.53 2.327-.753 2.988a8.341 8.341 0 0 1-1.365.115 7.003 7.003 0 0 1-.593-.024c-.354 0-.744.606-1.127.93l7.772.06c-.198-.7-1.58-1.072-2.07-1.072a.685.685 0 0 0-.075.003c.173-.495.389-.96.45-1.653.217.195.46.404.764.426.371-.028.522-.281.569-.612.84 1.39 1.781 2.526 3.506 2.693.596-.029 1.339-.29 1.5-.923.79-.044.21-.815-.083-1.116-2.151-2.33-3.927-4.988-6.053-7.334-.819-.808-1.743-1.354-2.888-1.807-.085-.21-.113-.507-.169-.835-.06-.357-.25-.942-.6-1.124a2.667 2.667 0 0 0-.926-.146zm16.671 0c-.09 0-.096.283-.224.701-.146.476-.254 1.472-.592 1.665a.298.298 0 0 1-.153.039c-.1 0-.201-.038-.312-.038a.409.409 0 0 0-.127.02c-.158.05-.242.297-.409.326-.69.12-1.637.075-2.165.123-.34.03.567.698 1.473.698h.039c.188-.005.386-.013.584-.013.33 0 .658.024.927.135.265.109.576.425.572.735l-.11 9.109h1.02L37.36 5.461c0-.276.796-.464.9-.702.182-.415.09-2.247-.204-2.493a.016.016 0 0 0-.01-.004c-.132 0-.379 1.92-.766 2.333-.04.043-.118.062-.185.062-.073 0-.133-.022-.122-.062.247-.838.346-2.061-.04-2.329a.077.077 0 0 0-.043-.016zm8.901.292q.04 0 .083.031.155.108-.156.323-.347.539-.365.946-.018.407-.293 1.089h-1.34q.167-.371.37-.67.408-.515.779-.73.37-.216.718-.73.089-.259.204-.259zm.67.02l.083.047-1.407 3.069q-.335-.113-.89-.113h-.073q-.622 0-.813.072l-.072-.49 1.95-.013 1.221-2.573zm-1.324 3.116zm-2.686.186q-.048 0-.048.06 0 .039.03.039.008 0 .018-.003l.019.002q.043 0 .053-.05-.012-.048-.072-.048zm.015-.025l.009.001q.132 0 .132.108-.012.096-.102.108-.09.012-.186.03-.057.01-.119.01-.041 0-.084-.004l.156-.024q.227-.024.215-.048 0-.024-.024-.024t-.06.006q-.036.006-.048.018v.012q.04-.008.067-.008.013 0 .023.002.03.006-.173.03l-.048-.096q0-.012.012-.012 0 .048.024.054l.009.001q.017 0 .026-.019 0-.024-.035-.048.161-.097.206-.097zm1.185-.148q.045 0 .08.006l.324.957h-.12l-.383-.957q.054-.006.099-.006zm-.147.042l.371.921-.036.012-.37-.921.035-.012zm-.12.048l.36.91q-.245-.173-.51-.173-.177 0-.364.076-.287-.06-.281-.263.006-.203.042-.275.035-.072.035-.156h.01q.083 0 .014.21-.071.221.132.34h.084q0-.418.479-.67zm2.442-.036q.18.131.227.43.036.252-.107.527l-.264-.096q.084-.191.036-.395-.048-.203-.18-.287l.288-.18zm-.718.083q.503.192.49.455.049.335-.31.539l-.18-.994zm-2.023 1.185q.096 0 .18.036-.048.108-.132.156.036-.06.024-.114-.012-.054-.072-.078zm-.12.024q-.047.072-.035.114.012.042.06.066l-.108-.036q.024-.072.084-.144zm2.586-.251q.12.072.203.191-.027-.006-.053-.006-.063 0-.114.042.18.012.251.072-.064-.021-.12-.021-.071 0-.131.033.299.036.287.084-.067-.033-.148-.033-.065 0-.14.02l.3.085q-.102-.012-.177-.012-.074 0-.122.012-.156-.18-.204-.323.096-.06.168-.144zm-2.464.177l-.061.002q-.156.012-.204.252.08.054.175.054.031 0 .064-.006.156 0 .228-.156h.323v-.108h-.287q-.115-.038-.238-.038zm2.548-.273l.227.096q.156.3.156.73-.084 0-.12.036l-.204-.251q.024-.006.053-.006.085 0 .21.053.06-.323-.346-.634l.024-.024zm.429 1.07l.013.001q.048.006.072.042.024.036.024.084 0 .06-.048.084-.036.036-.084.036-.047 0-.083-.048-.024-.036-.018-.084.006-.048.042-.084.04-.03.082-.03zm.468.15l.06.073-.144.107-.06-.06.144-.12zm-.487-.3q.028 0 .056.008.108.03.156.101.084.084.072.228l-.096-.108q0-.036-.036-.084-.024-.048-.102-.06l-.025-.002q-.064 0-.124.05-.072.048-.084.126-.012.078.048.138.036.036.072.048l.095.107q-.036 0-.095-.006-.06-.006-.132-.101-.06-.096-.06-.198 0-.102.108-.185.07-.062.147-.062zm.188.313l.168.227-.024.012-.168-.203.024-.036zm-.06.084l.156.191-.036.012-.144-.18.024-.023zm-.084.036l.168.215-.012.012-.18-.215.024-.012zm.036.203l.06.06-.144.12-.047-.072.131-.108zm-2.854-1.53q.093 0 .173.028.228.078.228.317h.18q0-.215.131-.215.12 0 .09.293t-.246.449v1.125l-.155.012q-.06-.084-.12-.216-.06-.131-.096-.335l-.359-.012-.03.001q-.161 0-.161-.12.012-.192.18-.204 0-.096-.06-.096l-.24-.012q.072-.143-.143-.191 0-.084.191-.431l.012-.18.024.06q.156-.083.251-.083.096 0 .276.047h.215V6.87h-.215q-.168-.072-.288-.072-.12 0-.263.12 0-.072.036-.108.217-.093.39-.093zm1.086-1.02q.327 0 .583.06.443 2.239.425 2.586-.018.347-.329.467-.311.12-.61.143l-.144-1.065q.323-.311.311-.706 0-.395-.347-1.484l.111-.002zm-.314-.011q.287.766.37 1.215.085.448-.322.951l.18 1.364q.466-.071 1.04-.287.288-.084.192-.97l-.156-.837.42.527q-.06.071-.073.203 0 .156.084.263.096.132.263.144l-.143.108.12.143q-.06.97-.336 1.831h-1.591V7.624q.143-.156.191-.371.048-.216.024-.39-.024-.173-.12-.197l-.335-.97.192-.011zm-.216 3.53v1.389h1.161q-.012.73-.137 1.771-.126 1.041-.318 1.76-.191.717.264 1.184h-3.543q.12-.143.168-.449.048-.305-.275-1.035l-.898-2.717q.007-.406.22-.406.132 0 .342.155l1.21 1.82.466.574q.118.078.208.078.186 0 .259-.33.43-.993.323-2.405-.419-.455.55-1.389zm1.927-6.965q-.081 0-.143.048-.156.12-.276.43-.287.432-.658.635-.37.203-.61.497-.24.293-.252.329-.395-.287-.598-.55-.203-.264-.227-.455-.024-.192.047-.3.072-.107.192-.137.037-.01.074-.01.081 0 .16.046.113.065.101.209-.036.156-.203.192-.048-.02-.08-.02-.05 0-.064.043-.012.168.12.174h.014q.126 0 .273-.102.155-.107.144-.383-.18-.335-.371-.365-.037-.006-.075-.006-.16 0-.338.102-.222.126-.252.437t.21.628q.24.317.73.724-.084.132-.3.515h-.382l.131.885q-.299.204-.299.503-.084-.072-.03-.227.054-.156-.006-.252-.04-.063-.165-.063-.062 0-.146.016l-.01-.001q-.071 0-.35.144-.13.048-.143.144v.12l.12-.072q.114.018.197.018.084 0 .138-.018.024-.008.04-.008.059 0 .026.097-.042.126.018.282.096.12.18.12l.011.131q-.06.191-.024.359-.191.36-.191.49 0 .06.167.073l-.011.107q.011.036.06.048-.037.036-.025.084.096.048.072.048-.072.359.287.359h.24q.024.227.275.61-.012.024-.227.305-.216.282-.431.665-.216.383.084.766.083 1.208-.371 2.226l-1.58-2.298q-.261-.285-.553-.285-.15 0-.309.075-.467.222-.24.808 1.174 3.495 1.126 3.734-.024.275-.341.461-.317.185-.174.365H45.3q.24-.12 0-.335-.634-.754-.406-1.454.227-.7.394-3.357h.551q.347-1.125.395-2.226l.443-.383-.12-.168-.144.12q.012-.18-.071-.275-.048-.06-.108-.108-.036-.539-.144-.874.084-.155.084-.395-.012-.37-.3-.706l-.418.263q-.056-.05-.13-.091l1.387-3.224-.3-.167-.765 1.448q-.024-.383.239-.694.287-.24.317-.413.03-.174-.162-.353-.165-.108-.287-.108zm8.311.42c.75 0 1.69.385 2.144.84.398.398.45.925.464 1.415H51.48c.014-.49.066-1.017.464-1.415.454-.455 1.372-.84 2.122-.84zm0-.42c-.89 0-1.848.411-2.41.973-.575.575-.64 1.333-.64 1.9v.222h6.1v-.221c0-.568-.043-1.326-.618-1.901-.562-.562-1.542-.973-2.432-.973zm-5.811 8.957v1.227h2.707v-1.227h-.53c-.155.273-.332.45-.53.53a.762.762 0 0 1-.591 0c-.196-.08-.371-.257-.526-.53zm1.642-4.465v2.034h-.614v2.486h.663V9.704h.769V7.571h.95c.17 1.326.63 2.312 1.382 2.956.752.645 1.68 1.02 2.785 1.122 1.105.103 1.831.249 2.177.437.347.188.52.377.52.569h1.348c-.206-.494-.482-.87-.829-1.127-.346-.258-.989-.42-1.928-.487-.94-.066-1.691-.19-2.255-.37a3.594 3.594 0 0 1-1.509-.961c-.442-.461-.78-1.45-1.016-2.968zm-.248 7.31l-1.436 1.698h.7l.736-.877.742.877.722-.877.743.877.735-.877.743.877.736-.877.742.877.722-.877.742.877.743-.877.722.877.742-.877.736.877h.7l-1.436-1.698-.742.82-.722-.82-.743.82-.742-.82-.722.82-.742-.82-.736.82-.743-.82-.735.82-.743-.82-.722.82-.742-.82z"/><path d="M8.22.375c-9.625 0-9.625 17.25 0 17.25m0-17.25h51.698M8.22 17.625h51.698M67.606.375v17.25M59.918.375c9.625 0 9.625 17.25 0 17.25" fill="none" stroke="#000"/></svg>