<svg xmlns="http://www.w3.org/2000/svg" width="86.075" height="18"><path d="M3.01.474c.693 0 1.247.2 1.634.479.006.053.02.107.009.16-.05.248-.195.477-.396.63-.316.207-.697.267-1.057.356-.09.01-.019.031.031.04.23.04.707.099.971.099l.052-.001c.278-.032.54-.148.766-.311.079-.067.147-.15.205-.236.147.346.227.713.26.917.018.11.096.2.202.233 1.139.349 2.038 1.91 2.88 2.949 1.729 2.137 3.199 4.526 4.892 6.76-.937-.456-1.87-.916-2.81-1.374-1.92-1.01-3.92-1.816-5.604-3.09l-.008-.008c-.97-.808-1.963-1.66-2.339-2.793-.148-.92 1.757-2.577 1.542-2.646a.207.207 0 0 0-.064-.01c-.458 0-1.753 1.128-2.019 2.202-.003-.014-.01-.03-.014-.045-.073-.356-.154-1.256.068-1.98a.29.29 0 0 0 .01-.103 1.968 1.968 0 0 0-.123-.634c-.063-.17-.139-.344-.26-.765-.031-.108-.142-.328-.208-.345.186-.138.375-.28.645-.375a.434.434 0 0 0-.132.314c0 .23.164.415.365.415.2 0 .364-.186.364-.415V.894a.411.411 0 0 0-.255-.39c.053-.007.096-.019.154-.022.081-.006.16-.008.238-.008zm.67 7.763c.065.065.135.124.202.187.214.78.412 1.64.692 2.305.483 1.145 1.216 2.141 1.84 3.154a1.814 1.814 0 0 0-.385.27 6.831 6.831 0 0 0-.199.193 2.61 2.61 0 0 0-1.186-.897c.045-.723-.108-1.712-.34-2.787a34.903 34.903 0 0 0-.624-2.425zm1.006.908c1.149.945 2.428 1.738 3.676 2.54-.018.91-.018 1.778.084 2.675a3.411 3.411 0 0 0-1.437-.736c-.02 0-.037.012-.057.012-.649-1.063-1.383-2.06-1.837-3.134-.156-.37-.293-.85-.429-1.357zm.407 5.254a2.5 2.5 0 0 1 .44.541.3.3 0 0 0 .257.14.29.29 0 0 0 .17-.053c.215-.156.347-.324.476-.446.047-.045.097-.08.148-.117l.149 2.722c-.213-.014-.435-.035-.637-.035-.264 0-.495.036-.633.172-.169-.134-.497-.164-.89-.164-.102 0-.207.002-.316.004l.836-2.764zM6.25 9.574c1.354.787 2.784 1.414 4.135 2.125a.244.244 0 0 0 .006.003c1.295.631 2.586 1.28 3.894 1.904.984 1.189 2.052 2.295 3.078 3.42l-2.15.362-4.267-4.635a.288.288 0 0 0-.037-.036c-1.499-1.137-3.152-2.082-4.66-3.143zM3.076 0c-.135 0-.273.005-.411.013C1.58.083.792.54.523 1.157c-.04.093-.146.314-.007.314a2.35 2.35 0 0 1 .341-.028c.418 0 .38.172.47.194.09.282.29.846.303 1.068-.244.86-.153 1.763-.064 2.198.15.732.63 1.584 1.261 2.38a.285.285 0 0 0 0 .166 35.3 35.3 0 0 1 .903 3.336c.251 1.168.393 2.277.317 2.823a.294.294 0 0 0 .221.328c.045.011.084.031.127.045l-.928 3.079a2.847 2.847 0 0 0-.593-.055c-.381 0-.756.05-1.064.05-.125 0-.24-.008-.34-.032a.546.546 0 0 0-.125-.012c-.436 0-1.428.306-1.34.879.15-.128.257-.159.375-.159.11 0 .23.027.405.027h.027c.254-.004.697-.083 1.053-.083.18 0 .338.02.438.08.236-.01.45-.013.649-.013.85 0 1.447.07 2.5.075a89.565 89.565 0 0 0 2.974-.079c.45.003.697.054.922.054h.04c.134-.004.265-.057.48-.057.123 0 .273.017.468.07-.25-.341-.877-.685-1.33-.685a.591.591 0 0 0-.302.071 5.081 5.081 0 0 0-.508-.022c-.22 0-.448.01-.678.02l-.157-2.83c.487.203.857.517 1.281 1.021a.295.295 0 0 0 .513-.246c-.192-1.039-.213-2.019-.202-3.06.54.354 1.072.713 1.576 1.094l4.36 4.738a.29.29 0 0 0 .263.09c.95-.159 1.9-.315 2.849-.474a.294.294 0 0 0 .23-.193.298.298 0 0 0-.06-.297c-.741-.83-1.508-1.631-2.25-2.445 1.269.78 2.875 1.755 3.08 1.755.022 0 .027-.013.012-.04-.094-.163-.9-.755-1.775-1.373.14.058.276.12.415.177l.017.01c.103.035.16.059.27.062a.286.286 0 0 0 .108-.016.317.317 0 0 0 .188-.152.32.32 0 0 0 .023-.238c-.017-.05-.038-.077-.054-.098-.061-.085-.103-.109-.162-.154a4.553 4.553 0 0 0-.205-.149c-.153-.105-.336-.223-.493-.328a4.992 4.992 0 0 1-.328-.233.307.307 0 0 0-.028-.025l-3.892-2.736c-.008-.006-.02-.001-.028-.006-1.333-1.869-2.588-3.825-4.046-5.627-.744-.92-1.598-2.528-2.985-3.064-.067-.396-.218-1.127-.755-1.649C4.827.26 4.168.056 3.427.011A5.728 5.728 0 0 0 3.076 0zM25.85 4.787q-.407 0-.472.314v.019q.047.083.194.083.425-.185.425-.342v-.018q0-.037-.148-.056zm1.477-.572q-.065.36-.637.775l.203.083.277-.101.138.092q1.062.508 2.817.536l2.752.027h.037q.47 0 .457.688-.014.716-.485 1.436-.296 0-.6-.226-.305-.226-.5-.53-.193-.306-.498-.795.093.97.554 1.524-.563 0-1.002.106-.219.053-.365.053-.147 0-.221-.053-.092-.066-.457-.066-.222 0-.545.024-.249.02-.455.02-.501 0-.75-.112-.23-.194-.29-.679-.06-.485.272-1.343-.684.489-.684 1.486v.333q-.341-.351-.535-.776-.379-.942-1.035-.942-.249 0-.96.314-.24-.101-.194-.323l.462-.619q.332-.563.48-.628.074-.138.72-.138.277.074.277.203 0 .175-.184.35.35-.073.508-.415 0-.083.443-.304zm.398-1.965q-.045 0-.103.072-.701 1.117-1.274 1.551-.222.194-.6.203-.185 0-.563-.277-.564-.545-.785-.923-.25-.444-.324-.49-.037 0-.055.093 0 .526 1.071 1.948-.203.296-.378.674-.176.379-.416.577-.24.199.046.393 0 .24.397.388l.988-.287q.397 0 .545.333.49.738.49 1.542.055 1.071-.74 2.05-.249.166-.249.461 0 .12.305.12.499 0 .499-.12l-.037-.249q0-.13.194-.194v-.018q0-.176.628-1.764.286 0 .452.277.213.702.213 1.164 0 .101-.13.434-.157.12-.194.434h.74l-.056-.231q-.037-.139.101-.24l-.064-.342q-.12-1.302-.12-1.533v-.018q.73-.176 1.122-.176.392 0 .604.143.085.057.237.057.23 0 .618-.13.419-.142.643-.142.119 0 .183.04.185.115.185.392 0 1.016-.517 1.727-.167.166-.25.462h.637q.167-.056.074-.277.019-.24.222-.305 0-.84.739-1.662.517.286.526.886 0 .231-.092.628l-.111.305q-.102.12-.185.453h.61q.11-.047.138-.102l-.092-.296q-.046-.129.13-.23-.093-.49.12-.74-.435-1.015-.435-1.597.231-.95.296-1.782.11.582.027 1.395-.083.812.277 1.68.07.146.129.146.04 0 .074-.072.093-.526.037-2.909-.073-.295-.157-.452-.295-.453-.507-.471h-2.983q-2.207 0-3.269-.628.176-.314.194-.43.018-.115 0-.281-.443.13-.665.342l-.185-.139q.194-.12.62-.776.424-.655.498-1.025-.031-.062-.073-.062zm4.893 10.098c.488.021.755.032.87.032h.053l-.063 2.547a3.738 3.738 0 0 1-.97-.576l.11-2.003zm-7.107-.634c-.163.031-.377.131-.351.325v1.42c-.315-.015-.64-.031-.734-.031 0 .178.147.42.603.42.005.403.078.896.152 1.147l.063.66c0 .074.125.095.262.095.162 0 .34-.031.34-.031l-.026-.66c2.59.02 7.527.151 7.773.151.126 0 .21-.136.21-.325l.063-2.846-1.557-.016-.126 2.217c-1.127.006-3.076.19-4.402.19-.42 0-.781-.017-1.028-.069-.052-.058-.54-.765-.849-.844a1.36 1.36 0 0 0-.183-.02c-.053-.43-.105-.86-.152-1.285.094-.12.309-.09.366-.252.058-.078.021-.21-.089-.215-.063-.026-.235-.031-.309-.031zM38.25 2.595q-.083.871-.083 1.953 0 1.08.105 2.184-.24-.127-.75-.127-.519 0-.752.127.113-1.103.106-2.184-.008-1.082-.083-1.953zm-.73 4.475q.51.008 1.036.27l-.135.248q-.106-.018-.198-.018-.32 0-.477.221-.09-.398-.226-.488-.135.09-.232.488-.158-.221-.477-.221-.093 0-.2.018l-.134-.247q.54-.263 1.043-.27zm0 .721q.113.09.075.263-.037.173-.075.33-.045-.157-.082-.33-.038-.173.082-.263zm.684.001q.043 0 .09.007-.51 1.216-.774 1.216-.255 0-.788-1.216.048-.007.091-.007.274 0 .352.247.097.278.203.45.112.18.142.18.038 0 .135-.18.106-.172.196-.45.084-.247.353-.247zM36.35 2.25q.36 2.553-.008 4.603-.668.315-.555.533.082.164.189.164.039 0 .081-.022.653.736 1.074 1.735.165 1.644-.045 5.684 0 .803.42.803h.023q.42 0 .42-.803-.202-4.04-.045-5.684.413-.999 1.066-1.735.043.022.082.022.106 0 .189-.164.112-.218-.548-.533-.376-2.05 0-4.603zm10.468 2.304c-.203.097-.45.367-.075.412.18-.007.593-.195.518-.367a.166.166 0 0 1-.118.05c-.107 0-.216-.095-.325-.095zm-1.478.067c-.248.06-.375.33-.06.39l.016.001c.182 0 .676-.22.269-.27-.068-.046-.135-.12-.225-.12zm1.973-1.883c.443.517.833 1.118.908 1.808.075.495.098.99.173 1.478-.353-.03-.248-.577-.18-.84.06-.518-.218-.998-.413-1.456-.135-.247-.263-.638-.608-.645-.383.067-.63.39-.878.668-.255-.255-.525-.533-.878-.638a.177.177 0 0 0-.06-.01c-.08 0-.172.035-.215.035-.037 0-.036-.026.043-.123.047-.168.146-.218.269-.218.178 0 .407.106.6.106a.42.42 0 0 0 .084-.008 2.801 2.801 0 0 0 1.156-.158zm-.12.57c.293.075.36.48.503.72.18.42.398.878.255 1.351-.113.225.03.51.015.675-.25.176-.47.547-.802.547a.474.474 0 0 1-.113-.014c-.33-.067-.496-.383-.75-.533-.185.178-.295.548-.599.548a.464.464 0 0 1-.137-.022c-.278-.06-.645-.03-.728-.368-.143-.345-.158-.728-.18-1.103a.243.243 0 0 0 .046.005c.152 0 .165-.177.18-.328.057-.22.215-.321.39-.321a.57.57 0 0 1 .352.134c.127.142.518.255.435.48-.037.135-.082.277-.127.42l.315.42c.03-.217.352-.397.165-.615-.03-.098-.143-.225-.128-.3.135-.24.315-.45.525-.63a.241.241 0 0 1 .173-.077c.2 0 .403.263.578.287.172-.188-.015-.263-.188-.36a.526.526 0 0 0-.365-.147.602.602 0 0 0-.49.266c-.143.086-.242.371-.367.371-.04 0-.082-.028-.128-.1-.23-.184-.504-.39-.804-.39a.642.642 0 0 0-.134.014c-.213.044-.404.474-.42.474-.008-.353.157-.669.255-1.014a.459.459 0 0 1 .447-.357c.13 0 .26.055.355.177.224.083.387.475.598.475a.2.2 0 0 0 .115-.04c.233-.247.42-.54.758-.645zM49.52 6.73c.589.338 1.32 1.11 2.06 2.024-1.082.047-2.396.124-3.638.177-.265-.24-.526-.48-.785-.716 1.14-.382 1.958-1.028 2.363-1.485zm-1.358-.556c.046.094.104.125.165.125.08 0 .168-.053.24-.087.18.127.803.112.436.383-.233.315-1.476 1.174-2.34 1.326-.373.065.254.655.456.865l.188.17a67.47 67.47 0 0 1-.293.009 12.53 12.53 0 0 0-1.373-1.77c-.08-.088-.433-.459-.402-.459.003 0 .012.005.027.016.118.031.251.052.383.052.253 0 .501-.078.63-.314.02-.06.044-.082.072-.082.103 0 .258.3.423.3a.69.69 0 0 0 .385.115.79.79 0 0 0 .583-.266c.142-.128.278-.255.42-.383zm-2.033 2.341c.126.13.25.287.373.463l-.212.004a16.506 16.506 0 0 0-.161-.467zm7.51-2.552c.708.035 1.099.049 1.266.049.035 0 .06 0 .076-.002l-.094 3.696a5.304 5.304 0 0 1-1.408-.835l.16-2.908zM46.581 9.95l.487.009c.543 1.091.969 2.386 1.116 3.052-.368-.3-.87-.495-.983-.683-.087-.14-.283-1.17-.62-2.378zm2.595.048l3.41.07c1.16 1.578 2.188 3.182 2.538 3.61-1.125-.712-2.236-1.432-3.444-2.018-.895-.44-1.72-1.023-2.504-1.662zm-1.525 3.2c.24.143.458.338.72.443-.157.39-.255.826-.578 1.133-.06.098-.147.129-.245.129-.171 0-.378-.092-.552-.092a.44.44 0 0 0-.035.001c.21-.525.525-.758.69-1.613zm-.054-3.23l.858.016c.74.644 1.514 1.25 2.385 1.721.878.496 1.8.938 2.649 1.486.405.585.885 1.126 1.193 1.771-.308.09-.608.218-.923.293a2.168 2.168 0 0 1-.527.061c-.496 0-.994-.147-1.214-.384-.405-.428-.848-2.251-1.08-2.919-.034-.075-.08-.1-.131-.1-.102 0-.22.099-.277.099-.012 0-.022-.004-.028-.014a.293.293 0 0 0-.29-.282c-.131 0-.254.096-.235.297-.045.473-.135.946-.36 1.373-.028.073-.085.101-.161.101-.213 0-.571-.22-.815-.28.062-.367-.232-1.689-1.044-3.239zM47.38 2.25a2.79 2.79 0 0 1-1.02.21 2.02 2.02 0 0 1-.158-.007.603.603 0 0 1-.107.009c-.253 0-.525-.136-.77-.136a.466.466 0 0 0-.264.074c-.413.6-.788 1.268-.833 2.011-.082 1.426-.045 1.92 1.08 3.091.14.318.318.861.504 1.485h-.042c-.7 0-1.277-.027-1.638-.099-.073-.088-.779-1.116-1.228-1.228a2.717 2.717 0 0 0-.272-.029l-.22-1.867c.14-.173.452-.126.535-.366.085-.112.028-.3-.126-.305-.098-.039-.347-.049-.45-.049l-.042.001c-.234.043-.545.186-.504.473v2.063c-.459-.024-.93-.045-1.07-.052 0 .26.21.614.877.614.008.584.11 1.3.22 1.666l.002-.002.086.959c0 .106.181.135.38.135.238 0 .5-.042.5-.042l-.04-.962c.903.007 2.064.023 3.306.044.313 1.12.607 2.265.738 2.739.27.255-.337 1.65-.592 1.996-.14.191-.505.2-.898.2h-.129c-.353 0-.711.008-.932.145-.21.135-.285.638-.165.705.113-.172.338-.405.495-.427-.15.157.376.082.488.12.304.005.61.03.919.03.149 0 .298-.006.447-.023.067-.03.14-.075.171-.075.025 0 .025.027-.021.113.212.055.451.083.684.083.525 0 1.023-.14 1.132-.42a8.15 8.15 0 0 0 .585-1.299c.192.04.432.176.626.176a.284.284 0 0 0 .154-.04c.21-.144.428-.811.548-1.254.012-.046.074-.069.137-.069.061 0 .122.021.14.061.226.45.601 1.831.961 2.41.272.427.93.638 1.632.638.44 0 .899-.083 1.287-.249.488-.21.848-.165.743-.435-.165-.45-.45-.878-.75-1.26.435.27.87.547 1.305.817.036.131.126.183.218.183.178 0 .363-.193.18-.385-.837-1.21-1.917-2.838-3.022-4.342 1.046.022 1.784.037 1.883.037.183 0 .306-.197.306-.471l.094-4.13-2.26-.023-.184 3.22c-.25.002-.544.009-.866.02-.797-.997-1.57-1.841-2.24-2.325a2.525 2.525 0 0 0-1.042-.563c-.128-.33-.09-.773-.165-1.148-.075-.743-.525-1.973-1.313-2.446zm12.865.344c.674 0 1.276.312 1.667.8h-3.334a2.132 2.132 0 0 1 1.667-.8zm1.893 1.143c.128.245.21.518.236.808h-4.258a2.14 2.14 0 0 1 .236-.808zm.238 1.152c-.021.29-.1.562-.224.808h-3.814a2.126 2.126 0 0 1-.224-.808zm-.443 1.152a2.132 2.132 0 0 1-1.688.827 2.132 2.132 0 0 1-1.689-.827zM60.245 2.25a2.484 2.484 0 0 0-2.481 2.481 2.484 2.484 0 0 0 2.48 2.48 2.484 2.484 0 0 0 2.482-2.48 2.484 2.484 0 0 0-2.481-2.481zm7.313.796v3.661h-2.456V3.046zm-2.96-.516v4.682h3.477V2.53zm-6.834 5.815v2.543h10.31V8.345h-10.31m9.887.424v1.695h-9.463V8.769h9.463zm-9.421 3.735c.311.12.47.416.475.888a1.499 1.499 0 0 1-.439 1.04c-.125-.287-.188-.634-.188-1.04 0-.472.05-.768.152-.888zm1.14-.114c.215 0 .495.029.837.087.804.138 1.702.395 2.694.772a.75.75 0 0 0 .36.098.76.76 0 0 0 .474-.184 2.652 2.652 0 0 1 1.014-.471c.143 0 .59.365 1.34 1.094.768.748 1.179 1.187 1.233 1.318h-.879c-.299-.615-.61-1.108-.932-1.479-.318-.365-.572-.547-.762-.547h-.01c-.4.078-.866.32-1.398.726-.46.4-.876.622-1.247.664-1.087.084-1.903.125-2.447.125s-.816-.083-.816-.25c.042-.335.167-.583.376-.745.12-.137.12-.263 0-.376-.209-.144-.331-.368-.367-.673.062-.106.238-.16.53-.16zm-.955-.369c-.164 0-.277.045-.337.134-.21.346-.314.759-.314 1.237 0 .406.105.867.314 1.38.064.107.186.16.364.16.102 0 .223-.017.362-.052.442.007.846.011 1.212.011.549 0 1.012-.008 1.388-.024.628-.027 1.103-.136 1.426-.327.322-.192.615-.398.878-.619.263-.221.607-.398 1.031-.529a.137.137 0 0 1 .054-.01c.117 0 .294.123.53.369.274.287.576.81.905 1.569h.44v.43h1.407v-.018c-.162-.329-.463-.723-.906-1.183a77.813 77.813 0 0 0-1.68-1.66c-.35-.328-.597-.492-.742-.492h-.008c-.466.071-.953.293-1.461.663a15.641 15.641 0 0 0-1.184-.466 12.16 12.16 0 0 0-3.272-.511 1.678 1.678 0 0 0-.407-.062z"/><path d="M21.396.375v17.25m0-17.25h2.625m-2.625 17.25h2.625m0-17.25h44.054m-44.054 17.25h44.054m0-17.25H85.7m-17.625 17.25H85.7M69.837.375v17.25M73.362.375v17.25M75.125.375v17.25M76.887 2.1H85.7m-8.813 3.45H85.7M76.887 2.1v3.45m1.763-1.725h7.05m-8.813 3.45H85.7m-8.813 3.45H85.7m-8.813-3.45v3.45M78.65 9h7.05m-8.813 3.45H85.7m-8.813 3.45H85.7m-8.813-3.45v3.45m1.763-1.725h7.05" fill="none" stroke="#000"/></svg>