<svg xmlns="http://www.w3.org/2000/svg" width="99.807" height="18"><path d="M3.01.474c.693 0 1.247.2 1.634.479.006.053.02.107.009.16-.05.248-.195.477-.396.63-.316.207-.697.267-1.057.356-.09.01-.019.031.031.04.23.04.707.099.971.099l.052-.001c.278-.032.54-.148.766-.311.079-.067.147-.15.205-.236.147.346.227.713.26.917.018.11.096.2.202.233 1.139.349 2.038 1.91 2.88 2.949 1.729 2.137 3.199 4.526 4.892 6.76-.937-.456-1.87-.916-2.81-1.374-1.92-1.01-3.92-1.816-5.604-3.09l-.008-.008c-.97-.808-1.963-1.66-2.339-2.793-.148-.92 1.757-2.577 1.542-2.646a.207.207 0 0 0-.064-.01c-.458 0-1.753 1.128-2.019 2.202-.003-.014-.01-.03-.014-.045-.073-.356-.154-1.256.068-1.98a.29.29 0 0 0 .01-.103 1.968 1.968 0 0 0-.123-.634c-.063-.17-.139-.344-.26-.765-.031-.108-.142-.328-.208-.345.186-.138.375-.28.645-.375a.434.434 0 0 0-.132.314c0 .23.164.415.365.415.2 0 .364-.186.364-.415V.894a.411.411 0 0 0-.255-.39c.053-.007.096-.019.154-.022.081-.006.16-.008.238-.008zm.67 7.763c.065.065.135.124.202.187.214.78.412 1.64.692 2.305.483 1.145 1.216 2.141 1.84 3.154a1.814 1.814 0 0 0-.385.27 6.831 6.831 0 0 0-.199.193 2.61 2.61 0 0 0-1.186-.897c.045-.723-.108-1.712-.34-2.787a34.903 34.903 0 0 0-.624-2.425zm1.006.908c1.149.945 2.428 1.738 3.676 2.54-.018.91-.018 1.778.084 2.675a3.411 3.411 0 0 0-1.437-.736c-.02 0-.037.012-.057.012-.649-1.063-1.383-2.06-1.837-3.134-.156-.37-.293-.85-.429-1.357zm.407 5.254a2.5 2.5 0 0 1 .44.541.3.3 0 0 0 .257.14.29.29 0 0 0 .17-.053c.215-.156.347-.324.476-.446.047-.045.097-.08.148-.117l.149 2.722c-.213-.014-.435-.035-.637-.035-.264 0-.495.036-.633.172-.169-.134-.497-.164-.89-.164-.102 0-.207.002-.316.004l.836-2.764zM6.25 9.574c1.354.787 2.784 1.414 4.135 2.125a.244.244 0 0 0 .006.003c1.295.631 2.586 1.28 3.894 1.904.984 1.189 2.052 2.295 3.078 3.42l-2.15.362-4.267-4.635a.288.288 0 0 0-.037-.036c-1.499-1.137-3.152-2.082-4.66-3.143zM3.076 0c-.135 0-.273.005-.411.013C1.58.083.792.54.523 1.157c-.04.093-.146.314-.007.314a2.35 2.35 0 0 1 .341-.028c.418 0 .38.172.47.194.09.282.29.846.303 1.068-.244.86-.153 1.763-.064 2.198.15.732.63 1.584 1.261 2.38a.285.285 0 0 0 0 .166 35.3 35.3 0 0 1 .903 3.336c.251 1.168.393 2.277.317 2.823a.294.294 0 0 0 .221.328c.045.011.084.031.127.045l-.928 3.079a2.847 2.847 0 0 0-.593-.055c-.381 0-.756.05-1.064.05-.125 0-.24-.008-.34-.032a.546.546 0 0 0-.125-.012c-.436 0-1.428.306-1.34.879.15-.128.257-.159.375-.159.11 0 .23.027.405.027h.027c.254-.004.697-.083 1.053-.083.18 0 .338.02.438.08.236-.01.45-.013.649-.013.85 0 1.447.07 2.5.075a89.565 89.565 0 0 0 2.974-.079c.45.003.697.054.922.054h.04c.134-.004.265-.057.48-.057.123 0 .273.017.468.07-.25-.341-.877-.685-1.33-.685a.591.591 0 0 0-.302.071 5.081 5.081 0 0 0-.508-.022c-.22 0-.448.01-.678.02l-.157-2.83c.487.203.857.517 1.281 1.021a.295.295 0 0 0 .513-.246c-.192-1.039-.213-2.019-.202-3.06.54.354 1.072.713 1.576 1.094l4.36 4.738a.29.29 0 0 0 .263.09c.95-.159 1.9-.315 2.849-.474a.294.294 0 0 0 .23-.193.298.298 0 0 0-.06-.297c-.741-.83-1.508-1.631-2.25-2.445 1.269.78 2.875 1.755 3.08 1.755.022 0 .027-.013.012-.04-.094-.163-.9-.755-1.775-1.373.14.058.276.12.415.177l.017.01c.103.035.16.059.27.062a.286.286 0 0 0 .108-.016.317.317 0 0 0 .188-.152.32.32 0 0 0 .023-.238c-.017-.05-.038-.077-.054-.098-.061-.085-.103-.109-.162-.154a4.553 4.553 0 0 0-.205-.149c-.153-.105-.336-.223-.493-.328a4.992 4.992 0 0 1-.328-.233.307.307 0 0 0-.028-.025l-3.892-2.736c-.008-.006-.02-.001-.028-.006-1.333-1.869-2.588-3.825-4.046-5.627-.744-.92-1.598-2.528-2.985-3.064-.067-.396-.218-1.127-.755-1.649C4.827.26 4.168.056 3.427.011A5.728 5.728 0 0 0 3.076 0zM25.85 4.787q-.407 0-.472.314v.019q.047.083.194.083.425-.185.425-.342v-.018q0-.037-.148-.056zm1.477-.572q-.065.36-.637.775l.203.083.277-.101.138.092q1.062.508 2.817.536l2.752.027h.037q.47 0 .457.688-.014.716-.485 1.436-.296 0-.6-.226-.305-.226-.5-.53-.193-.306-.498-.795.093.97.554 1.524-.563 0-1.002.106-.219.053-.365.053-.147 0-.221-.053-.092-.066-.457-.066-.222 0-.545.024-.249.02-.455.02-.501 0-.75-.112-.23-.194-.29-.679-.06-.485.272-1.343-.684.489-.684 1.486v.333q-.341-.351-.535-.776-.379-.942-1.035-.942-.249 0-.96.314-.24-.101-.194-.323l.462-.619q.332-.563.48-.628.074-.138.72-.138.277.074.277.203 0 .175-.184.35.35-.073.508-.415 0-.083.443-.304zm.398-1.965q-.045 0-.103.072-.701 1.117-1.274 1.551-.222.194-.6.203-.185 0-.563-.277-.564-.545-.785-.923-.25-.444-.324-.49-.037 0-.055.093 0 .526 1.071 1.948-.203.296-.378.674-.176.379-.416.577-.24.199.046.393 0 .24.397.388l.988-.287q.397 0 .545.333.49.738.49 1.542.055 1.071-.74 2.05-.249.166-.249.461 0 .12.305.12.499 0 .499-.12l-.037-.249q0-.13.194-.194v-.018q0-.176.628-1.764.286 0 .452.277.213.702.213 1.164 0 .101-.13.434-.157.12-.194.434h.74l-.056-.231q-.037-.139.101-.24l-.064-.342q-.12-1.302-.12-1.533v-.018q.73-.176 1.122-.176.392 0 .604.143.085.057.237.057.23 0 .618-.13.419-.142.643-.142.119 0 .183.04.185.115.185.392 0 1.016-.517 1.727-.167.166-.25.462h.637q.167-.056.074-.277.019-.24.222-.305 0-.84.739-1.662.517.286.526.886 0 .231-.092.628l-.111.305q-.102.12-.185.453h.61q.11-.047.138-.102l-.092-.296q-.046-.129.13-.23-.093-.49.12-.74-.435-1.015-.435-1.597.231-.95.296-1.782.11.582.027 1.395-.083.812.277 1.68.07.146.129.146.04 0 .074-.072.093-.526.037-2.909-.073-.295-.157-.452-.295-.453-.507-.471h-2.983q-2.207 0-3.269-.628.176-.314.194-.43.018-.115 0-.281-.443.13-.665.342l-.185-.139q.194-.12.62-.776.424-.655.498-1.025-.031-.062-.073-.062zm4.893 10.098c.488.021.755.032.87.032h.053l-.063 2.547a3.738 3.738 0 0 1-.97-.576l.11-2.003zm-7.107-.634c-.163.031-.377.131-.351.325v1.42c-.315-.015-.64-.031-.734-.031 0 .178.147.42.603.42.005.403.078.896.152 1.147l.063.66c0 .074.125.095.262.095.162 0 .34-.031.34-.031l-.026-.66c2.59.02 7.527.151 7.773.151.126 0 .21-.136.21-.325l.063-2.846-1.557-.016-.126 2.217c-1.127.006-3.076.19-4.402.19-.42 0-.781-.017-1.028-.069-.052-.058-.54-.765-.849-.844a1.36 1.36 0 0 0-.183-.02c-.053-.43-.105-.86-.152-1.285.094-.12.309-.09.366-.252.058-.078.021-.21-.089-.215-.063-.026-.235-.031-.309-.031zm15.291-5.376q.17 0 .354.078.41.173.41 2.758v2.474h-4.642q1.793-2.46 2.46-3.718.667-1.257 1.014-1.473.193-.119.404-.119zm-.197-.528l-.075.001q-.66.014-1.487 1.612-.826 1.598-3.272 4.767h6.336l-.013-3.558q-.07-2.376-.487-2.605-.393-.217-1.002-.217zm7.115-1.571c.006 0-.02.03-.021.066 0 .037.028.066.022.066-.004 0-.023-.01-.089-.044-.019-.01-.032-.013.022-.044.05-.028.064-.044.067-.044zm.133 0c.008 0 .015.007.044.022.038.018.11.06.11.066.033.007-.086.034-.132.044a.161.161 0 0 1-.033.004c-.019 0-.03-.004-.033-.004-.012 0 .039-.001.044-.044.005-.037-.019-.088 0-.088zm-.066-.067a.251.251 0 0 0-.177.067l-.088.088.088.066c.06.026.122.044.199.044a.472.472 0 0 0 .155-.022c.06-.019.147-.064.199-.066.09-.004.103-.019 0-.044a1.223 1.223 0 0 1-.221-.089.323.323 0 0 0-.155-.044zm.826 0h.014c.068 0 .042.089-.045.2-.046.058-.068.087-.088.087-.02 0-.026-.047-.022-.11.007-.127.044-.154.132-.177a.032.032 0 0 1 .009 0zm-.192.328c.004 0 .007 0 .007.004 0 .008-.025.032-.044.044a.014.014 0 0 1-.008.002l-.015-.002a.022.022 0 0 1-.022-.022c0-.02.025-.022.045-.022.012 0 .028-.004.037-.004zm.25-.438c-.09 0-.287.18-.287.265 0 .034-.035.097-.067.132-.047.052-.036.068 0 .111.019.023.025.044.044.044a.281.281 0 0 0 .11-.044c.226-.13.373-.508.2-.508zm-.177-.663a.99.99 0 0 1 .442.11c.2.1.308.235.331.442.027.239-.08.461-.309.685-.125.123-.228.177-.265.177-.026 0-.023-.02.022-.088.271-.414.325-.67.177-.818-.063-.063-.098-.088-.221-.088-.03 0-.07.02-.11.022h-.045c-.26 0-.468-.096-.486-.221-.01-.062.02-.095.155-.155a.799.799 0 0 1 .309-.066zm-.685.442l.265.11c.146.054.28.11.287.133.005.012.009.022.023.022.02 0 .043-.018.088-.044a.461.461 0 0 1 .199-.067c.09 0 .132.064.132.177 0 .101-.043.19-.243.42-.166.191-.221.435-.044.486.115.033.003.464.31.486.082.006.22.093.353.2.196.155.22.205.22.308 0 .153-.186 1.276-.286 1.724-.084.374-.114.416-.376.508-.128.045-.466.088-.707.088l-.076.001h-.034c-.2-.013-.198.03-.376-.907-.212-1.116-.236-1.554-.11-1.679.029-.03.155-.086.287-.132.132-.046.271-.108.287-.133.045-.07.037-.195-.022-.31-.044-.084-.08-.11-.177-.11-.175 0-.31-.053-.31-.132 0-.037.016-.077.045-.089.08-.03.077-.095-.022-.132-.053-.02-.089-.048-.089-.089 0-.037-.019-.087-.044-.088-.127-.007-.016-.125.067-.265.116-.196.15-.211.287-.221.08 0 .196.062.265.088a.883.883 0 0 0 .22.067c.012 0 .033-.013.023-.022-.136-.136-.478-.2-.508-.2h-.11l.088-.11.088-.088zm.928 4.817c.18 0 .316.02.331.044.014.02.032.662.045 1.414l.022 1.348-.597.066c-.547.056-.732.088-.862.088-.067 0-.13-.013-.198-.022l-.177-.022.022-.133a25.4 25.4 0 0 1 .155-.972c.077-.446.143-.94.154-1.104.036-.514.1-.598.553-.663.16-.024.38-.044.552-.044zM43.854 2.25c-.023 0-.044.02-.044.066a.124.124 0 0 0-.05-.016c-.022 0-.027.02-.016.06a.147.147 0 0 0-.035-.005c-.035 0-.044.023-.032.072a.044.044 0 0 0-.014-.002.08.08 0 0 0-.052.024c-.016.015-.001.05.022.088.125.133.213.217.287.287.074.07.158.211.243.398.008.055.016.08 0 .089a.03.03 0 0 1-.013.003c-.013 0-.03-.008-.053-.026a1.254 1.254 0 0 1-.11-.198.46.46 0 0 0-.11-.177.074.074 0 0 0-.048-.019c-.026 0-.049.016-.063.04-.032.032-.015.067.044.134a.914.914 0 0 1 .155.33.614.614 0 0 0 .132.222c.106.266.213.539.354 1.105.204.823.31 1.152.442 1.237.226.146.864.281 1.37.31.41.022.605.116.729.309.08.126.302.996.353 1.392.029.222-.028.336-.177.397-.184.076-.163.365.022.442.059.024.089.052.089.066a.832.832 0 0 1-.133.177 1.76 1.76 0 0 0-.199.265c-.068.133-.049.14.2.155l.154.022v.155c-.006.087-.05.301-.089.486-.039.184-.095.488-.132.663a12.32 12.32 0 0 0-.155.972c-.1.888-.283 2.153-.375 2.497a1.764 1.764 0 0 1-.155.397c-.086.128-.642.526-.862.619-.47.2-.518.219-.552.31-.02.05-.012.113 0 .132.01.016.06.022.132.022.214 0 .638-.06 1.017-.155.788-.195.807-.206.795-.64-.006-.213.026-.293.243-.84.41-1.033.44-1.168.464-1.657.029-.563.032-.55.575-.575.132-.006.244-.022.331-.022l.091-.001.02.001c.033.011.06.059.044.155-.013.077-.01.262.022.42.146.725.253 1.83.199 2.032-.086.32-.205.414-.928.73-.488.213-.615.365-.354.397.017.002.053.003.103.003.101 0 .26-.003.45-.003.22 0 .483.004.736.004.127 0 .252-.001.368-.004.224-.005.237-.063.155-.375-.063-.241-.047-.482.066-1.569.087-.83.092-1.015 0-1.348-.04-.149-.075-.315-.066-.375.01-.06.016-.736 0-1.503-.021-1.02-.05-1.445-.088-1.613-.068-.293-.04-.707.11-1.414.144-.68.173-.74.287-.862.252-.266.47-.358 1.326-.464 1.078-.133 1.07-.115 1.149-.707.03-.221.052-.647.066-.95.025-.522.03-.568.133-.729.005-.008-.001-.012 0-.022.001-.01.003-.011 0-.022.063-.065.13-.116.155-.199.046-.156.096-.287.154-.353.059-.067.076-.102.044-.133a.052.052 0 0 0-.046-.028c-.02 0-.042.01-.064.028a.36.36 0 0 0-.11.155 1.35 1.35 0 0 1-.111.199c-.023.017-.04.025-.053.025a.03.03 0 0 1-.013-.003c-.016-.008-.008-.034 0-.089.085-.187.169-.305.243-.375.074-.07.162-.177.287-.31.023-.039.038-.072.022-.088a.034.034 0 0 0-.025-.01.14.14 0 0 0-.041.01c.013-.054 0-.092-.042-.092a.1.1 0 0 0-.025.004c.01-.041.006-.06-.016-.06a.124.124 0 0 0-.05.015c0-.046-.02-.066-.044-.066-.023 0-.057.02-.088.044-.07.102-.152.19-.266.288a.886.886 0 0 0-.22.265c-.047.093-.102.199-.133.331-.02.085-.018.206-.022.31-.002.006.001.014 0 .022-.059.331-.028.573-.11.95a6.04 6.04 0 0 0-.111.574c0 .156-.073.292-.177.331-.152.058-.36.073-1.082.155-.311.035-.519.066-.663.066a.644.644 0 0 1-.354-.088 1.155 1.155 0 0 0-.331-.066l-.221-.022c-.112-.115-.182-.23-.11-.354l.287-.22c.286-.266.42-.534.42-.84 0-.37-.109-.537-.443-.685a1.353 1.353 0 0 0-.53-.11c-.13 0-.257.011-.353.043-.242.08-.465.293-.663.619-.091.15-.224.343-.287.442-.15.234-.176.36-.067.376.06.008.082.017.067.066-.012.036.001.076.022.088.02.013.032.05.022.066-.038.06.062.338.132.376.039.02.341.023.354.088.013.071-.007.09-.221.111-.128.013-.37.05-.53.088-.148.036-.223.067-.31.067-.073 0-.152-.022-.287-.045a7.862 7.862 0 0 0-.552-.066 4.104 4.104 0 0 1-.42-.066l-.155-.044-.243-.486c-.462-1.01-.493-1.104-.442-1.348-.005-.01-.016-.013-.022-.022 0-.14.004-.29-.022-.398-.031-.133-.086-.238-.132-.331a.886.886 0 0 0-.221-.266 1.495 1.495 0 0 1-.266-.287c-.03-.023-.065-.044-.088-.044zm18.599.555c.383.8-.462 1.105-1.075 3.765-.159 2.59-1.72 5.894-2.412 6.983-.339.758-.732 1.276-1.18 1.554a.753.753 0 0 1-.098.007c-.193 0-.373-.085-.475-.35.25-.307.447-.947.46-1.164.028-.5-.225-.6-.48-.6-.169 0-.34.044-.428.044-.024 0-.042-.004-.053-.012-.632-.528-1.457-.885-1.526-1.124.188-1.649 1.597-3.523 3.28-5.306 4.056-2.853 2.845-3.266 3.987-3.797zm-.122-.555c-.334 0-.659.144-.754.38-.132.328-.675 1.43-1.937 2.423-1.993 1.14-4.176 4.03-4.708 5.497-.256.704-.483 1.37-.493 2.077.05.03 1.338.506 1.712 1.235.034.066.073.092.115.092.16 0 .372-.368.588-.368.022 0 .043.004.065.012.606.23-.355 1.147-.36 1.236-.035.644.893.777 1.062.886.07.02.135.03.195.03.159 0 .248-.173.463-.329 1.512-1.094 3.19-6.027 3.448-6.904.24-.836.281-1.92.36-2.358.371-1.657 1.023-2.649 1.061-2.816.177-.783-.329-1.093-.817-1.093zm7.045.444c.69 0 1.246.553 1.25 1.244v.007c0 .693-.557 1.251-1.25 1.251a1.248 1.248 0 0 1-1.251-1.251c0-.693.557-1.251 1.25-1.251zm-1.612 3.591c.047.077.114.144.05.144a.306.306 0 0 1-.071-.012.289.289 0 0 1-.085.025c-.053 0 .067-.102.106-.157zm1.103-.27c-.288 0-.406.414-.19.59a.258.258 0 0 0 .185.075c.145 0 .292-.11.31-.265.041-.187-.097-.4-.297-.4a.283.283 0 0 0-.008 0zm.085-.247c.033 0 .066 0 .097.002.244.02.51.125.641.342.053.291.042.634-.187.855-.156.193-.458.25-.518.516-.023.129.053.337-.089.337a.243.243 0 0 1-.066-.01c-.2-.295-.38-.609-.63-.866.125-.132.263-.339.107-.502-.105-.144-.356-.38-.032-.397.14-.232.424-.277.677-.277zm1.353.348c.436.388.583.986.685 1.538.042.247.065.498.09.747-.223-.237-.528-.463-.862-.463a.725.725 0 0 0-.175.021c-.203 0-.31.369-.34.384l-.11-.666c.43-.149.625-.611.687-1.029.028-.175.037-.354.025-.532zm-.046 2.49a.724.724 0 0 1 .414.237c.181.733.117 1.494.104 2.24.011.27-.03.55-.016.826.004 1.045.216 2.078.185 3.124-1.666.003-3.33.009-4.995.012l.643-1.316c-.313-.742-.703-1.452-1-2.202-.127-.344-.287-.696-.286-1.07.015-.115.067-.157.134-.157.12 0 .288.136.368.222.625.602 1.132 1.314 1.632 2.02.465.676.91 1.367 1.286 2.096-.026-1.617-.107-3.24.097-4.85.03-.352.18-.678.342-.987l.019 2.25h1.029c-.009-.815-.03-1.632.044-2.444zm-.883-6.356c-.934 0-1.695.761-1.695 1.695 0 .584.3 1.101.751 1.406a2.27 2.27 0 0 0-.245.09c-.123.057-.245.122-.303.25-.063.101-.118.206-.243.24-.344.252-.466.734-.379 1.138.01.007.023.01.036.01.103 0 .278-.177.352-.177.005 0 .01 0 .014.003.051.233.218.408.31.622.168.306.381.585.627.832-.237.423-.433.877-.474 1.365-.115.845-.134 1.7-.134 2.553-.644-.882-1.305-1.764-2.107-2.51a.886.886 0 0 0-.572-.223.6.6 0 0 0-.404.145c-.289.287-.246.73-.17 1.094.214.926.62 1.792.982 2.666.05.192.262.402.092.585-.208.336-.503.616-.693.962-.102.238-.088.504-.056.754l6.489-.016c.084-.846.084-1.7-.005-2.546-.041-.746-.056-1.492-.088-2.239.147-.012.293-.026.44-.039-.094-1.1-.127-2.208-.331-3.295-.127-.606-.277-1.234-.652-1.74a1.804 1.804 0 0 0-.666-.487c.488-.298.819-.831.819-1.443v-.012a1.697 1.697 0 0 0-1.695-1.683zm5.182 1.558l2.736 2.406q-.577.89-1.533 1.797-.907-2.143-1.203-4.203zm-.729-1.187q-.528 0-.409.725.511.248.429.56-.082.314.066 1.04.148.725 1.187 3.444-.316 1.074.366 1.074l.062-.002q1.846 3.395 4.072 5.917h.395l-.099-1.104q-1.78-1.665-3.807-5.39.593-1.253 1.664-2.193l3.28 2.95q.249.112.417.112.458 0 .325-.82l-3.296-2.818q.013-.75-.625-.75-.148 0-.331.04L74.558 2.82q-.453-.198-.729-.198z"/><path d="M21.396.375v17.25m0-17.25h2.625m-2.625 17.25h2.625m0-17.25h57.786m-57.786 17.25h57.786m0-17.25h17.625m-17.625 17.25h17.625M83.57.375v17.25M87.094.375v17.25M88.857.375v17.25M90.62 2.1h8.812M90.62 5.55h8.812M90.62 2.1v3.45m1.762-1.725h7.05m-8.812 3.45h8.812m-8.812 3.45h8.812m-8.812-3.45v3.45M92.382 9h7.05m-8.812 3.45h8.812M90.62 15.9h8.812m-8.812-3.45v3.45m1.762-1.725h7.05" fill="none" stroke="#000"/></svg>