<svg xmlns="http://www.w3.org/2000/svg" width="87.18" height="18"><path d="M5.454.386c.221 0 .566.052.757.104.832.223-.005.968-.54.968a.513.513 0 0 1-.073-.005c-.353.074.06.199.502.199.272 0 .555-.047.681-.18.072-.077.131-.108.182-.108.185 0 .258.417.406.623.74.245 1.203.913 1.682 1.486 1.377 1.65 2.617 3.405 3.917 5.115-.357-.105-.743-.31-1.097-.48-1.62-.783-3.347-1.401-4.814-2.455-.732-.525-1.712-1.134-1.793-2.056-.061-.702 1.227-1.337 1.134-1.717-.011-.044-.043-.064-.09-.064-.274 0-1.077.688-1.288 1.09-.081.155-.14.217-.182.217-.146 0-.077-.757.014-.93.31-.589-.628-1.325-.1-1.664-.016.088.002.337.312.337.325 0 .305-.4.205-.453a.435.435 0 0 1 .185-.027zm.616 5.477c.254.9.626 1.766 1.065 2.59.217.405 1.13 1.049.485 1.377a.194.194 0 0 1-.052.007c-.257 0-.519-.495-.855-.517a12.843 12.843 0 0 0-.265-1.873c-.103-.505-.36-1.176-.378-1.584zm.705.597c.795.576 1.63 1.093 2.472 1.6.222.497.034 1.222.149 1.805-.538-.363-1.112-.378-1.457-1.066-.385-.766-1.019-1.494-1.164-2.34zM7 10.06c.134.235.335.383.538.383.16 0 .32-.091.45-.304.186.205.23.926.23 1.325.002.411-.214.446-.465.446l-.155-.002a.93.93 0 0 0-.278.032.453.453 0 0 1-.138.02c-.197 0-.423-.095-.636-.095-.02 0-.04 0-.06.002.001-.52.36-1.225.514-1.808zm1.603-2.968c1.69.766 3.36 1.59 5.054 2.351.648.679 1.239 1.448 1.96 2.049.538.45-.155.358-.474.418-.244.046-.492.08-.738.116-.87-.87-1.745-1.738-2.58-2.641-.909-.982-2.145-1.538-3.222-2.293zm-.512 5.693c1.105 0 2.211.013 3.316.042.556.014 1.197-.023 1.695.164-.658.042-2.304.058-4.042.058a201.337 201.337 0 0 1-5.037-.05c-.51 0-.097-.173.188-.173a.55.55 0 0 1 .076.005c1.267-.03 2.535-.046 3.804-.046zm-4.862.743c.75.01 1.5.02 2.25.045.495.017.989.023 1.483.023 1.398 0 2.796-.05 4.192-.05.188 0 .375.001.562.003-1.161.634-2.421 1.17-3.766 1.214-.152.005-.3.008-.445.008-.76 0-1.443-.08-2.196-.351-.656-.236-1.506-.523-2.08-.892zm6.649 1.558a.144.144 0 0 0-.078.02c-.256.16.368 1.331.895 1.613.04.021.078.03.115.03.192 0 .33-.259.247-.445-.214-.48-.87-1.218-1.18-1.218zm-4.848.055c-.042 0-.105.026-.194.086-.432.29-1.443 1.067-.823 1.496a.22.22 0 0 0 .129.042c.224 0 .442-.354.556-.556.12-.21.574-1.068.332-1.068zm4.06.177c-.274 0 .026 1.476.502 1.79.031.022.07.031.109.031.106 0 .222-.069.242-.173.123-.637-.473-1.61-.846-1.647a.08.08 0 0 0-.008 0zm-3.278.017c-.05 0-.13.062-.244.216-.302.408-1.043 1.256-.436 1.571.04.021.078.03.114.03.254 0 .4-.478.49-.72.081-.222.268-1.097.076-1.097zm2.271.162c-.023 0-.043.012-.06.037-.245.368-.164 1.491.42 1.817a.196.196 0 0 0 .097.026c.172 0 .306-.25.276-.423-.07-.41-.517-1.457-.733-1.457zm-1.329-.011a.1.1 0 0 0-.058.023c-.391.291-1.017 1.466-.379 1.845.035.02.068.03.101.03.191 0 .35-.31.375-.504.04-.334.162-1.394-.039-1.394zm.655-.018a.08.08 0 0 0-.038.01c-.324.174-.62 1.573-.014 1.945a.175.175 0 0 0 .092.028c.164 0 .306-.252.306-.421-.002-.46-.123-1.562-.346-1.562zM5.632 0c-.205 0-.408.02-.598.054-.567.104-1.44.31-1.43.996a.711.711 0 0 1 .192-.028c.55 0 .663.789.553 1.27-.225.98.26 1.965.898 2.707.425 1.269.96 2.595.954 3.928-.003.556.408.592.256 1.158-.136.51-.373 1.566-.883 1.69a2.18 2.18 0 0 1-.182.007c-.323 0-.663-.056-.984-.056-.254 0-.497.036-.71.162-.444.264-.778.46-1.31.46l-.071-.001-.078-.002c-.895 0-1.953.472-2.118 1.411-.244 1.391-.044 2.827-.036 4.233.205.005.412.011.618.011.163 0 .325-.004.487-.016-.076-.844-.133-1.694-.079-2.539.039-.601-.113-1.44.465-1.781a.738.738 0 0 1 .383-.107c.506 0 1.005.499 1.472.712 1.306.596 2.697 1.036 4.147 1.036h.1c1.756-.025 3.375-.751 4.878-1.576a.616.616 0 0 1 .41-.148c.28 0 .562.17.622.463.262 1.292.154 2.632.067 3.94.157.012.315.015.473.015.156 0 .313-.003.47-.003.052 0 .105 0 .158.002.008-.911.089-1.823.047-2.733-.033-.721.107-1.55-.417-2.143-.68-.771-1.763-.76-2.704-.825a1.712 1.712 0 0 0-.117-.004c-.125 0-.257.01-.386.01a.973.973 0 0 1-.439-.08c-.294-.302-.66-.36-1.04-.36-.228 0-.462.021-.689.021a2.75 2.75 0 0 1-.22-.008c-.043-.588-.075-1.177-.107-1.766a.155.155 0 0 1 .111-.045c.294 0 .78.686 1.034.686.076 0 .13-.06.154-.217.094-.642-.155-1.343-.146-2.018h.016c.285 0 .766.368 1.053.617.898.779 1.67 1.717 2.513 2.566.334.38.681.803 1.163.803.13 0 .269-.031.42-.101.48-.223 1.5.065 1.609-.544-.462-.54-.994-1.018-1.47-1.547.58.274 1.144.678 1.747.941a.77.77 0 0 0 .24.078c.18 0-.489-.521-.668-.602-.665-.3.624-.188.098-.605-1.155-.915-2.466-1.648-3.699-2.473-.79-.998-1.506-2.067-2.3-3.068-.66-.774-1.221-1.636-1.941-2.356C8.175 1.783 7.525 1.66 7.48.937 7.138.252 6.37 0 5.632 0z"/><path d="M0 0v.354L.177.177.354 0zm2.646 0L0 2.646v.708L3.177.177 3.354 0zm3 0L0 5.646v.708L6.177.177 6.354 0zm3 0L0 8.646v.708L9.177.177 9.354 0zm3 0L0 11.646v.708L12.177.177 12.354 0zm3 0L0 14.646v.708L15.177.177 15.354 0zm2.512.488L0 17.646V18h.354L17.158 1.195V.488zm0 3L2.823 17.823 2.646 18h.708L17.158 4.195v-.707zm0 3L5.823 17.823 5.646 18h.708L17.158 7.195v-.707zm0 3l-8.335 8.335-.177.177h.708l7.804-7.805v-.707zm0 3l-5.335 5.335-.177.177h.708l4.804-4.805v-.707zm0 3l-2.335 2.335-.177.177h.708l1.804-1.805v-.707zM17.646 0l-.488.488v.707L18.177.177 18.354 0zm1.539 1.462l-2.027 2.026v.707l2.027-2.026v-.707zm0 3l-2.027 2.026v.707l2.027-2.026v-.707zm0 3l-2.027 2.026v.707l2.027-2.026v-.707zm0 3l-2.027 2.026v.707l2.027-2.026v-.707zm0 3l-2.027 2.026v.707l2.027-2.026v-.707zm0 3l-1.362 1.361-.177.177h.708l.83-.831v-.707z"/><path d="M20.903 0c-.93 0-1.745.684-1.745 1.562V18h1.136V1.562c0-.43.379-.57.616-.57.25 0 .634.175.634.703v10.804h1.136V1.695C22.68.815 21.81 0 20.903 0z"/><path d="M20.646 0l-1.488 1.488v.707L21.177.177 21.354 0zm2.034.966l-3.522 3.522v.707l3.522-3.522V.966zm0 3l-3.522 3.522v.707l3.522-3.522v-.707zm0 3l-3.522 3.522v.707l3.522-3.522v-.707zm0 3l-3.522 3.522v.707l3.522-3.522v-.707zm0 3l-3.522 3.522v.707l3.522-3.522v-.707zm0 3l-1.857 1.857-.177.177h.708l1.326-1.327v-.707zM23.646 0l-.966.966v.707L24.177.177 24.354 0zm1.062 1.939L22.68 3.966v.707l2.028-2.027v-.707zm0 3L22.68 6.966v.707l2.028-2.027v-.707zm0 3L22.68 9.966v.707l2.028-2.027v-.707zm0 3l-2.028 2.027v.707l2.028-2.027v-.707zm0 3l-2.028 2.027v.707l2.028-2.027v-.707zm0 3l-.885.884-.177.177h.708l.354-.354v-.707z"/><path d="M42.524 2.373v2.341H25.281V2.373zM25.344 0v1.772h-.664v3.543h18.445V1.772h-.538V0h-.6v1.772h-1.488V0h-.6v1.772H38.41V0h-.601v1.772h-1.455V0h-.633v1.772h-1.455V0h-.602v1.772h-1.487V0h-.6v1.772H30.09V0h-.6v1.772h-1.456V0h-.601v1.772h-1.487V0zm1.599 15.325L24.68 18h1.104l1.159-1.382L28.113 18l1.137-1.382L30.42 18l1.159-1.382L32.749 18l1.16-1.382L35.078 18l1.136-1.382L37.385 18l1.17-1.382L39.694 18l1.17-1.382L42.022 18h1.103l-2.262-2.675-1.17 1.293-1.137-1.293-1.17 1.293-1.17-1.293-1.137 1.293-1.17-1.293-1.16 1.293-1.17-1.293-1.16 1.293-1.17-1.293-1.136 1.293-1.17-1.293z"/><path d="M26.646 0L24.68 1.966v.707L27.177.177 27.354 0zm3 0L24.68 4.966v.707L30.177.177 30.354 0zm3 0L24.68 7.966v.707L33.177.177 33.354 0zm3 0L24.68 10.966v.707L36.177.177 36.354 0zm3 0L24.68 13.966v.707L39.177.177 39.354 0zm3 0L24.68 16.966v.707L42.177.177 42.354 0zm1.48 1.521L26.822 17.823l-.177.177h.708L43.125 2.228v-.707zm0 3L29.822 17.823l-.177.177h.708L43.125 5.228v-.707zm0 3L32.822 17.823l-.177.177h.708l9.771-9.772v-.707zm0 3l-7.303 7.302-.177.177h.708l6.771-6.772v-.707zm0 3l-4.303 4.302-.177.177h.708l3.771-3.772v-.707zm0 3l-1.303 1.302-.177.177h.708l.771-.772v-.707zM44.646 0l-1.52 1.521v.707l2-2V0zm.48 2.521l-2 2v.707l2-2v-.707zm0 3l-2 2v.707l2-2v-.707zm0 3l-2 2v.707l2-2v-.707zm0 3l-2 2v.707l2-2v-.707zm0 3l-2 2v.707l2-2v-.707zm0 3l-.303.302-.177.177h.48v-.479z"/><path d="M48.653 3.502q.265 0 .305.326l.448 4.052q.347 2.79.408 5.335 0 1.751-.296 2.78-.295 1.028-.926 1.028t-.865-1.029q-.235-1.028-.214-2.78.04-2.544.387-5.334l.448-4.052q.04-.326.305-.326zM45.578 0q-.855.428-.101.896 2.484 1.446 2.178 3.075l-.468 3.91q-.326 2.789-.468 5.334 0 2.484.468 3.635.468 1.15 1.466 1.15t1.466-1.15q.468-1.15.468-3.635-.142-2.545-.468-5.335l-.428-3.747Q49.04.794 45.578 0z"/><path d="M47.646 0l-2.52 2.521v.707l3.05-3.051.178-.177zm2.941.059l-5.462 5.462v.707L50.587.766V.06zm0 3l-5.462 5.462v.707l5.462-5.462V3.06zm0 3l-5.462 5.462v.707l5.462-5.462V6.06zm0 3l-5.462 5.462v.707l5.462-5.462V9.06zm0 3l-5.462 5.462V18h.229l5.233-5.234v-.707zm0 3l-2.764 2.764-.177.177h.708l2.233-2.234v-.707z"/><path d="M50.646 0l-.059.059v.707l.59-.59.177-.176zm1.964 1.037l-2.023 2.022v.707l2.023-2.022v-.707zm0 3l-2.023 2.022v.707l2.023-2.022v-.707zm0 3l-2.023 2.022v.707l2.023-2.022v-.707zm0 3l-2.023 2.022v.707l2.023-2.022v-.707zm0 3l-2.023 2.022v.707l2.023-2.022v-.707zm0 3l-1.787 1.786-.177.177h.708l1.256-1.256v-.707z"/><path d="M54.95.73v15.438l-1.592-2.373V.731zM52.587 0v14.016L55.24 18c.06-.02.11-.02.16-.02.07 0 .12.01.16.01.02 0 .04 0 .05-.02V0z"/><path d="M53.646 0l-1.059 1.059v.707l1.59-1.59.177-.176zm1.965 1.036l-3.024 3.023v.707l3.024-3.023v-.707zm0 3l-3.024 3.023v.707l3.024-3.023v-.707zm0 3l-3.024 3.023v.707l3.024-3.023v-.707zm0 3l-3.024 3.023v.707l3.024-3.023v-.707zm0 3l-3.024 3.023v.707l3.024-3.023v-.707zm0 3l-1.788 1.787-.177.177h.708l1.257-1.257v-.707zM56.646 0l-1.035 1.036v.707L57.177.177 57.354 0zm.987 2.013l-2.022 2.023v.707l2.022-2.023v-.707zm0 3l-2.022 2.023v.707l2.022-2.023v-.707zm0 3l-2.022 2.023v.707l2.022-2.023v-.707zm0 3l-2.022 2.023v.707l2.022-2.023v-.707zm0 3l-2.022 2.023v.707l2.022-2.023v-.707zm0 3l-.81.81-.177.177h.708l.28-.28v-.707zM58.333 0l-.016.004-.706.155c.1.835.425 1.647.965 2.296.483.589 1.16 1.057 1.926 1.164.262.025.525.034.788.034.271 0 .543-.01.814-.021.996-.052 1.993-.321 2.835-.867.501-.32.937-.736 1.312-1.196.039-.037.087-.045.137-.045.046 0 .094.007.14.007a.26.26 0 0 0 .056-.005c1.312-.012 2.624-.037 3.937-.037.745 0 1.49.008 2.234.031a.145.145 0 0 1 .03-.004c.068 0-.08.113-.102.151-.54.613-1.07 1.237-1.629 1.833l1.134.64c.616-.607 1.083-1.38 1.837-1.835.712-.364 1.532-.322 2.307-.39l.555-.049V.338c-3.286.009-6.573.008-9.859.063-.123.004-.246.005-.37.005-1.542 0-3.073-.25-4.613-.323A12.036 12.036 0 0 0 61.6.074c-.33 0-.66.016-.985.057-.325.079-.459.42-.615.678a7.607 7.607 0 0 1-.242.396.19.19 0 0 0 .086.021c.12 0 .222-.116.333-.158.263-.15.551-.302.86-.302a.9.9 0 0 1 .126.009c1.223.02 2.436.196 3.653.31-.25.545-.814.844-1.35 1.045-.954.372-1.98.547-3.002.563-.555-.042-1-.448-1.314-.877-.403-.537-.617-1.183-.817-1.816z"/><path d="M60.848 6.342c.88 0 1.664.406 2.175 1.042h-4.35a2.781 2.781 0 0 1 2.175-1.042zm2.469 1.491c.168.32.276.676.308 1.054H58.07c.033-.378.14-.734.308-1.054zm.31 1.503a2.77 2.77 0 0 1-.291 1.054H58.36a2.773 2.773 0 0 1-.293-1.054zm-.576 1.503a2.782 2.782 0 0 1-2.203 1.078 2.782 2.782 0 0 1-2.203-1.078zm-2.203-4.946A3.241 3.241 0 0 0 57.61 9.13a3.241 3.241 0 0 0 3.237 3.237 3.241 3.241 0 0 0 3.237-3.237 3.241 3.241 0 0 0-3.237-3.237zm11.302.571l-.373.217q-1.926 2.361-3.091 4.039-.792.435-1.15.691-.357.257-1.072.38-.9.063-.9.296v.217q-.01.063.62.063.317 0 .793-.016.508-.135.85-.135.17 0 .3.034.388.101.636.101.249 0 .397-.132.147-.132.225-.816 0-.186 1.289-1.452 1.29-1.266 1.476-1.918 0-.171.481-.435.171 0 .777.668 1.18 1.429 1.608 2.035.427.605.116.784-.31.179-.621.482-.282.274-.59.274-.03 0-.063-.003-.683.11-.683.358v.155h1.6q.445-.238.783-.238.17 0 .312.06.427.178.66.178.357-.047.357-.295 0-.264-.248-.606-.388-.621-.979-2.182-.59-1.561-1.972-2.26-.808-.544-1.243-.544zm-4.9 8.182c.94 0 2.118.483 2.688 1.053.499.499.564 1.16.582 1.774h-6.514c.018-.614.083-1.275.582-1.774.57-.57 1.72-1.053 2.661-1.053zm0-.527c-1.117 0-2.319.516-3.023 1.22-.722.722-.803 1.672-.803 2.384V18h7.65v-.277c0-.712-.053-1.662-.776-2.384-.704-.704-1.932-1.22-3.049-1.22zM80.044.603q.18 0 .41.04 2.974.225 6.036.743l-.653 2.05q-2.77-.699-5.607-1.757-.924-.316-.811-.72.084-.356.625-.356zM80.13 0q-1.006 0-1.206.823-.226.878.923 1.329 2.995 1.103 5.945 1.869.175.061.293.061.184 0 .225-.151l.856-2.613q.09-.36-.338-.473-3.355-.54-6.44-.833Q80.252 0 80.13 0zm-.086 14.521q.18 0 .41.04 2.974.225 6.036.743l-.653 2.05q-2.77-.699-5.607-1.757-.924-.316-.811-.721.084-.355.625-.355zm.086-.603q-1.006 0-1.206.823-.226.878.923 1.329 2.995 1.103 5.945 1.869.175.061.293.061.184 0 .225-.151l.856-2.613q.09-.36-.338-.473-3.355-.54-6.44-.833-.135-.012-.258-.012z"/></svg>