<svg xmlns="http://www.w3.org/2000/svg" width="81.087" height="18"><path d="M3.01.474c.693 0 1.247.2 1.634.479.006.053.02.107.009.16-.05.248-.195.477-.396.63-.316.207-.697.267-1.057.356-.09.01-.019.031.031.04.23.04.707.099.971.099l.052-.001c.278-.032.54-.148.766-.311.079-.067.147-.15.205-.236.147.346.227.713.26.917.018.11.096.2.202.233 1.139.349 2.038 1.91 2.88 2.949 1.729 2.137 3.199 4.526 4.892 6.76-.937-.456-1.87-.916-2.81-1.374-1.92-1.01-3.92-1.816-5.604-3.09l-.008-.008c-.97-.808-1.963-1.66-2.339-2.793-.148-.92 1.757-2.577 1.542-2.646a.207.207 0 0 0-.064-.01c-.458 0-1.753 1.128-2.019 2.202-.003-.014-.01-.03-.014-.045-.073-.356-.154-1.256.068-1.98a.29.29 0 0 0 .01-.103 1.968 1.968 0 0 0-.123-.634c-.063-.17-.139-.344-.26-.765-.031-.108-.142-.328-.208-.345.186-.138.375-.28.645-.375a.434.434 0 0 0-.132.314c0 .23.164.415.365.415.2 0 .364-.186.364-.415V.894a.411.411 0 0 0-.255-.39c.053-.007.096-.019.154-.022.081-.006.16-.008.238-.008zm.67 7.763c.065.065.135.124.202.187.214.78.412 1.64.692 2.305.483 1.145 1.216 2.141 1.84 3.154a1.814 1.814 0 0 0-.385.27 6.831 6.831 0 0 0-.199.193 2.61 2.61 0 0 0-1.186-.897c.045-.723-.108-1.712-.34-2.787a34.903 34.903 0 0 0-.624-2.425zm1.006.908c1.149.945 2.428 1.738 3.676 2.54-.018.91-.018 1.778.084 2.675a3.411 3.411 0 0 0-1.437-.736c-.02 0-.037.012-.057.012-.649-1.063-1.383-2.06-1.837-3.134-.156-.37-.293-.85-.429-1.357zm.407 5.254a2.5 2.5 0 0 1 .44.541.3.3 0 0 0 .257.14.29.29 0 0 0 .17-.053c.215-.156.347-.324.476-.446.047-.045.097-.08.148-.117l.149 2.722c-.213-.014-.435-.035-.637-.035-.264 0-.495.036-.633.172-.169-.134-.497-.164-.89-.164-.102 0-.207.002-.316.004l.836-2.764zM6.25 9.574c1.354.787 2.784 1.414 4.135 2.125a.244.244 0 0 0 .006.003c1.295.631 2.586 1.28 3.894 1.904.984 1.189 2.052 2.295 3.078 3.42l-2.15.362-4.267-4.635a.288.288 0 0 0-.037-.036c-1.499-1.137-3.152-2.082-4.66-3.143zM3.076 0c-.135 0-.273.005-.411.013C1.58.083.792.54.523 1.157c-.04.093-.146.314-.007.314a2.35 2.35 0 0 1 .341-.028c.418 0 .38.172.47.194.09.282.29.846.303 1.068-.244.86-.153 1.763-.064 2.198.15.732.63 1.584 1.261 2.38a.285.285 0 0 0 0 .166 35.3 35.3 0 0 1 .903 3.336c.251 1.168.393 2.277.317 2.823a.294.294 0 0 0 .221.328c.045.011.084.031.127.045l-.928 3.079a2.847 2.847 0 0 0-.593-.055c-.381 0-.756.05-1.064.05-.125 0-.24-.008-.34-.032a.546.546 0 0 0-.125-.012c-.436 0-1.428.306-1.34.879.15-.128.257-.159.375-.159.11 0 .23.027.405.027h.027c.254-.004.697-.083 1.053-.083.18 0 .338.02.438.08.236-.01.45-.013.649-.013.85 0 1.447.07 2.5.075a89.565 89.565 0 0 0 2.974-.079c.45.003.697.054.922.054h.04c.134-.004.265-.057.48-.057.123 0 .273.017.468.07-.25-.341-.877-.685-1.33-.685a.591.591 0 0 0-.302.071 5.081 5.081 0 0 0-.508-.022c-.22 0-.448.01-.678.02l-.157-2.83c.487.203.857.517 1.281 1.021a.295.295 0 0 0 .513-.246c-.192-1.039-.213-2.019-.202-3.06.54.354 1.072.713 1.576 1.094l4.36 4.738a.29.29 0 0 0 .263.09c.95-.159 1.9-.315 2.849-.474a.294.294 0 0 0 .23-.193.298.298 0 0 0-.06-.297c-.741-.83-1.508-1.631-2.25-2.445 1.269.78 2.875 1.755 3.08 1.755.022 0 .027-.013.012-.04-.094-.163-.9-.755-1.775-1.373.14.058.276.12.415.177l.017.01c.103.035.16.059.27.062a.286.286 0 0 0 .108-.016.317.317 0 0 0 .188-.152.32.32 0 0 0 .023-.238c-.017-.05-.038-.077-.054-.098-.061-.085-.103-.109-.162-.154a4.553 4.553 0 0 0-.205-.149c-.153-.105-.336-.223-.493-.328a4.992 4.992 0 0 1-.328-.233.307.307 0 0 0-.028-.025l-3.892-2.736c-.008-.006-.02-.001-.028-.006-1.333-1.869-2.588-3.825-4.046-5.627-.744-.92-1.598-2.528-2.985-3.064-.067-.396-.218-1.127-.755-1.649C4.827.26 4.168.056 3.427.011A5.728 5.728 0 0 0 3.076 0zM25.85 4.787q-.407 0-.472.314v.019q.047.083.194.083.425-.185.425-.342v-.018q0-.037-.148-.056zm1.477-.572q-.065.36-.637.775l.203.083.277-.101.138.092q1.062.508 2.817.536l2.752.027h.037q.47 0 .457.688-.014.716-.485 1.436-.296 0-.6-.226-.305-.226-.5-.53-.193-.306-.498-.795.093.97.554 1.524-.563 0-1.002.106-.219.053-.365.053-.147 0-.221-.053-.092-.066-.457-.066-.222 0-.545.024-.249.02-.455.02-.501 0-.75-.112-.23-.194-.29-.679-.06-.485.272-1.343-.684.489-.684 1.486v.333q-.341-.351-.535-.776-.379-.942-1.035-.942-.249 0-.96.314-.24-.101-.194-.323l.462-.619q.332-.563.48-.628.074-.138.72-.138.277.074.277.203 0 .175-.184.35.35-.073.508-.415 0-.083.443-.304zm.398-1.965q-.045 0-.103.072-.701 1.117-1.274 1.551-.222.194-.6.203-.185 0-.563-.277-.564-.545-.785-.923-.25-.444-.324-.49-.037 0-.055.093 0 .526 1.071 1.948-.203.296-.378.674-.176.379-.416.577-.24.199.046.393 0 .24.397.388l.988-.287q.397 0 .545.333.49.738.49 1.542.055 1.071-.74 2.05-.249.166-.249.461 0 .12.305.12.499 0 .499-.12l-.037-.249q0-.13.194-.194v-.018q0-.176.628-1.764.286 0 .452.277.213.702.213 1.164 0 .101-.13.434-.157.12-.194.434h.74l-.056-.231q-.037-.139.101-.24l-.064-.342q-.12-1.302-.12-1.533v-.018q.73-.176 1.122-.176.392 0 .604.143.085.057.237.057.23 0 .618-.13.419-.142.643-.142.119 0 .183.04.185.115.185.392 0 1.016-.517 1.727-.167.166-.25.462h.637q.167-.056.074-.277.019-.24.222-.305 0-.84.739-1.662.517.286.526.886 0 .231-.092.628l-.111.305q-.102.12-.185.453h.61q.11-.047.138-.102l-.092-.296q-.046-.129.13-.23-.093-.49.12-.74-.435-1.015-.435-1.597.231-.95.296-1.782.11.582.027 1.395-.083.812.277 1.68.07.146.129.146.04 0 .074-.072.093-.526.037-2.909-.073-.295-.157-.452-.295-.453-.507-.471h-2.983q-2.207 0-3.269-.628.176-.314.194-.43.018-.115 0-.281-.443.13-.665.342l-.185-.139q.194-.12.62-.776.424-.655.498-1.025-.031-.062-.073-.062zm4.893 10.098c.488.021.755.032.87.032h.053l-.063 2.547a3.738 3.738 0 0 1-.97-.576l.11-2.003zm-7.107-.634c-.163.031-.377.131-.351.325v1.42c-.315-.015-.64-.031-.734-.031 0 .178.147.42.603.42.005.403.078.896.152 1.147l.063.66c0 .074.125.095.262.095.162 0 .34-.031.34-.031l-.026-.66c2.59.02 7.527.151 7.773.151.126 0 .21-.136.21-.325l.063-2.846-1.557-.016-.126 2.217c-1.127.006-3.076.19-4.402.19-.42 0-.781-.017-1.028-.069-.052-.058-.54-.765-.849-.844a1.36 1.36 0 0 0-.183-.02c-.053-.43-.105-.86-.152-1.285.094-.12.309-.09.366-.252.058-.078.021-.21-.089-.215-.063-.026-.235-.031-.309-.031zm12.141-8.942q.696 0 .696.917 0 .806-.696 1.596-.696-.79-.696-1.596 0-.917.696-.917zm0 3.525q.49 0 .49 1.059 0 .6-.49 1.107-.49-.506-.49-1.107 0-1.06.49-1.06zm0 3.193q.49 0 .49 1.06 0 .6-.49 1.106-.49-.506-.49-1.107 0-1.059.49-1.059zm0-7.24q-1.265 0-1.265 1.439-.015.9.42 1.414.434.514.387.688-.554.648-.554 1.565 0 .759.648 1.628-.648.648-.648 1.565 0 .759.648 1.613.08.205-.442.964T35.77 15.75h.695q.348-1.233.617-1.763.269-.53.569-.861.316.332.577.861.26.53.609 1.763h.711q-.522-1.865-1.067-2.624-.545-.759-.45-.964.632-.854.632-1.613 0-.917-.601-1.565.6-.87.6-1.628 0-.917-.537-1.565-.047-.174.38-.688.426-.513.426-1.414 0-1.439-1.28-1.439zm7.671 1.344l-.114.03q-.08-.015-.148-.015-.069 0-.126.016-.113.038-.136.083-.023.046-.076.084l.038.045.06-.03q.048.022.102.022.135 0 .309-.136l.113-.015-.022-.084zm.555-1.086q.41 0 .576.418.182.47.008.805-.146.267-.33.267-.047 0-.096-.016-.129-.046-.076-.13.107-.098.03-.258.077-.243.016-.357-.061-.166-.187-.166-.047 0-.102.022-.098.06-.129.13-.254-.058-.457-.058-.251 0-.423.088.038-.304.288-.486.25-.175.76-.25.063-.01.122-.01zM42.02 6.335q.941.592 1.602.805l.326.084q-.326.129-1.54.531-.13-.114-.35-.13l-.213-1.183q.099-.03.175-.107zm3.786-3.126q.064 0 .086.082.046.129-.015.318.045.145-.038.152-.014.003-.026.003-.067 0-.08-.071-.038.084.235.425.266.35.79.858.524.516.577 2.878l-1.056.531q-.212-1.404-.987-2.407-.19-.212-.098-.402.098-.182.653-.478.273-.114.075-.274-.19-.16-.242-.341-.13 0-.274.114-.238.119-.337.119-.02 0-.035-.006-.083-.03-.099-.144l.114-.114q.053-.045 0-.083l-.227.053q.038-.198-.1-.213-.047.031-.078.031-.038 0-.05-.046-.03-.099.053-.288.045-.183.144-.281.091-.084.234-.084h.024q.053.003.106.003.104 0 .206-.01l-.016-.084q-.057.008-.123.008t-.142-.008q-.036-.004-.068-.004-.222 0-.335.179-.015-.114 0-.16.192-.134.46-.134.188 0 .413.066v.099q.035.007.063.007.029 0 .051-.007 0-.243.084-.274.032-.013.058-.013zm1.703 4.986q.44.775.433 1.375-.007.6-.121 1.928l-1.929-.015.44-2.771 1.177-.517zM45.943 2.25h-.028q-.524.016-.964.274-.486.258-.471 1.01.038.205-.023.402-.053.19-.038.387.033.082.104.082.028 0 .063-.013.036-.016.057-.016.051 0 .02.091-.031.016-.016.054.01.02.034.02.011 0 .027-.005-.043.107.021.107h.009l.012-.002q.057 0 .064.07.008.083.091.174.033.033.1.033.103 0 .287-.079l.274-.144q.022.069.098.16-.645.197-.941.729-.433.523-.706 1.085-.653-.19-1.929-.729-.114-.159-.372-.205l-.326-1.753q-.099-.547.258-.972l-.243-.175q-.47.402-.319 1.23l.289 1.67-.259.016q-.03.129.13.19-.03.5.258.523l.212 1.162q-.167.03-.326.053-.015.144.182.19-.066.486.268.486h.02l.03.296.342-.068-.068-.312q.084-.045.167-.076 1.633-.197 2.02-.584.524-.813.767-1.26.531.432.873 2.103l-.041-.001q-.36 0-.324.259.03.214.204.214.048 0 .108-.017l-.517 3.12q-.455 2.028-.66 2.514-.114.387-.38.463-.273.068-.873.41-.334.068-.372.182-.03.114.16.137.038.005.086.005.172 0 .453-.066.142-.03.312-.03.254 0 .568.068.072.014.133.014.387 0 .315-.583-.03-.426.494-1.208t.577-1.852l.243-.243.774-.015.015.372q.213 1.457.228 1.92.099.752-.182.866-.289.106-.866.448-.341.053-.387.167-.038.114.16.144.047.008.105.008.174 0 .441-.068.14-.033.323-.033.282 0 .664.078.09.018.158.018.427 0 .1-.686.023-.714.16-1.48.137-.767-.16-1.55l.152-.204.091-2.096q.023-.903-.63-2.02-.03-.41-.098-1.442-.061-1.04-.562-1.503-.501-.471-.555-.57.281-.197.372-.516.1-.327-.121-.889-.207-.539-.716-.539zm16.324.638c.121 0 .182.44.182.562 0 .121-.06.562-.182.562H50.604c-.142 0-.213-.44-.213-.562 0-.122.071-.562.213-.562zM50.239 2.25c-.324 0-.486.653-.486 1.2 0 .546.162 1.2.486 1.2h12.392c.304 0 .456-.654.456-1.2 0-.547-.152-1.2-.456-1.2zm11.663 10.188q-1.909 2.595-5.494 2.665-3.56-.07-5.47-2.665zm-12.149-.616q1.956 3.912 6.655 3.928 4.723-.016 6.679-3.928z"/><path d="M21.396.375v17.25m0-17.25h2.625m-2.625 17.25h2.625m0-17.25h39.066m-39.066 17.25h39.066m0-17.25h17.625m-17.625 17.25h17.625M64.85.375v17.25M68.374.375v17.25M70.137.375v17.25M71.9 2.1h8.812M71.9 5.55h8.812M71.9 2.1v3.45m1.762-1.725h7.05M71.9 7.275h8.812m-8.812 3.45h8.812M71.9 7.275v3.45M73.662 9h7.05M71.9 12.45h8.812M71.9 15.9h8.812M71.9 12.45v3.45m1.762-1.725h7.05" fill="none" stroke="#000"/></svg>