<svg xmlns="http://www.w3.org/2000/svg" width="125.879" height="18"><path d="M5.454.386c.221 0 .566.052.757.104.832.223-.005.968-.54.968a.513.513 0 0 1-.073-.005c-.353.074.06.199.502.199.272 0 .555-.047.681-.18.072-.077.131-.108.182-.108.185 0 .258.417.406.623.74.245 1.203.913 1.682 1.486 1.377 1.65 2.617 3.405 3.917 5.115-.357-.105-.743-.31-1.097-.48-1.62-.783-3.347-1.401-4.814-2.455-.732-.525-1.712-1.134-1.793-2.056-.061-.702 1.227-1.337 1.134-1.717-.011-.044-.043-.064-.09-.064-.274 0-1.077.688-1.288 1.09-.081.155-.14.217-.182.217-.146 0-.077-.757.014-.93.31-.589-.628-1.325-.1-1.664-.016.088.002.337.312.337.325 0 .305-.4.205-.453a.435.435 0 0 1 .185-.027zm.616 5.477c.254.9.626 1.766 1.065 2.59.217.405 1.13 1.049.485 1.377a.194.194 0 0 1-.052.007c-.257 0-.519-.495-.855-.517a12.843 12.843 0 0 0-.265-1.873c-.103-.505-.36-1.176-.378-1.584zm.705.597c.795.576 1.63 1.093 2.472 1.6.222.497.034 1.222.149 1.805-.538-.363-1.112-.378-1.457-1.066-.385-.766-1.019-1.494-1.164-2.34zM7 10.06c.134.235.335.383.538.383.16 0 .32-.091.45-.304.186.205.23.926.23 1.325.002.411-.214.446-.465.446l-.155-.002a.93.93 0 0 0-.278.032.453.453 0 0 1-.138.02c-.197 0-.423-.095-.636-.095-.02 0-.04 0-.06.002.001-.52.36-1.225.514-1.808zm1.603-2.968c1.69.766 3.36 1.59 5.054 2.351.648.679 1.239 1.448 1.96 2.049.538.45-.155.358-.474.418-.244.046-.492.08-.738.116-.87-.87-1.745-1.738-2.58-2.641-.909-.982-2.145-1.538-3.222-2.293zm-.512 5.693c1.105 0 2.211.013 3.316.042.556.014 1.197-.023 1.695.164-.658.042-2.304.058-4.042.058a201.337 201.337 0 0 1-5.037-.05c-.51 0-.097-.173.188-.173a.55.55 0 0 1 .076.005c1.267-.03 2.535-.046 3.804-.046zm-4.862.743c.75.01 1.5.02 2.25.045.495.017.989.023 1.483.023 1.398 0 2.796-.05 4.192-.05.188 0 .375.001.562.003-1.161.634-2.421 1.17-3.766 1.214-.152.005-.3.008-.445.008-.76 0-1.443-.08-2.196-.351-.656-.236-1.506-.523-2.08-.892zm6.649 1.558a.144.144 0 0 0-.078.02c-.256.16.368 1.331.895 1.613.04.021.078.03.115.03.192 0 .33-.259.247-.445-.214-.48-.87-1.218-1.18-1.218zm-4.848.055c-.042 0-.105.026-.194.086-.432.29-1.443 1.067-.823 1.496a.22.22 0 0 0 .129.042c.224 0 .442-.354.556-.556.12-.21.574-1.068.332-1.068zm4.06.177c-.274 0 .026 1.476.502 1.79.031.022.07.031.109.031.106 0 .222-.069.242-.173.123-.637-.473-1.61-.846-1.647a.08.08 0 0 0-.008 0zm-3.278.017c-.05 0-.13.062-.244.216-.302.408-1.043 1.256-.436 1.571.04.021.078.03.114.03.254 0 .4-.478.49-.72.081-.222.268-1.097.076-1.097zm2.271.162c-.023 0-.043.012-.06.037-.245.368-.164 1.491.42 1.817a.196.196 0 0 0 .097.026c.172 0 .306-.25.276-.423-.07-.41-.517-1.457-.733-1.457zm-1.329-.011a.1.1 0 0 0-.058.023c-.391.291-1.017 1.466-.379 1.845.035.02.068.03.101.03.191 0 .35-.31.375-.504.04-.334.162-1.394-.039-1.394zm.655-.018a.08.08 0 0 0-.038.01c-.324.174-.62 1.573-.014 1.945a.175.175 0 0 0 .092.028c.164 0 .306-.252.306-.421-.002-.46-.123-1.562-.346-1.562zM5.632 0c-.205 0-.408.02-.598.054-.567.104-1.44.31-1.43.996a.711.711 0 0 1 .192-.028c.55 0 .663.789.553 1.27-.225.98.26 1.965.898 2.707.425 1.269.96 2.595.954 3.928-.003.556.408.592.256 1.158-.136.51-.373 1.566-.883 1.69a2.18 2.18 0 0 1-.182.007c-.323 0-.663-.056-.984-.056-.254 0-.497.036-.71.162-.444.264-.778.46-1.31.46l-.071-.001-.078-.002c-.895 0-1.953.472-2.118 1.411-.244 1.391-.044 2.827-.036 4.233.205.005.412.011.618.011.163 0 .325-.004.487-.016-.076-.844-.133-1.694-.079-2.539.039-.601-.113-1.44.465-1.781a.738.738 0 0 1 .383-.107c.506 0 1.005.499 1.472.712 1.306.596 2.697 1.036 4.147 1.036h.1c1.756-.025 3.375-.751 4.878-1.576a.616.616 0 0 1 .41-.148c.28 0 .562.17.622.463.262 1.292.154 2.632.067 3.94.157.012.315.015.473.015.156 0 .313-.003.47-.003.052 0 .105 0 .158.002.008-.911.089-1.823.047-2.733-.033-.721.107-1.55-.417-2.143-.68-.771-1.763-.76-2.704-.825a1.712 1.712 0 0 0-.117-.004c-.125 0-.257.01-.386.01a.973.973 0 0 1-.439-.08c-.294-.302-.66-.36-1.04-.36-.228 0-.462.021-.689.021a2.75 2.75 0 0 1-.22-.008c-.043-.588-.075-1.177-.107-1.766a.155.155 0 0 1 .111-.045c.294 0 .78.686 1.034.686.076 0 .13-.06.154-.217.094-.642-.155-1.343-.146-2.018h.016c.285 0 .766.368 1.053.617.898.779 1.67 1.717 2.513 2.566.334.38.681.803 1.163.803.13 0 .269-.031.42-.101.48-.223 1.5.065 1.609-.544-.462-.54-.994-1.018-1.47-1.547.58.274 1.144.678 1.747.941a.77.77 0 0 0 .24.078c.18 0-.489-.521-.668-.602-.665-.3.624-.188.098-.605-1.155-.915-2.466-1.648-3.699-2.473-.79-.998-1.506-2.067-2.3-3.068-.66-.774-1.221-1.636-1.941-2.356C8.175 1.783 7.525 1.66 7.48.937 7.138.252 6.37 0 5.632 0zm18.931 0c-.12 0-.128.377-.3.935-.194.635-.337 1.962-.788 2.22a.397.397 0 0 1-.204.052c-.133 0-.269-.05-.417-.05a.545.545 0 0 0-.169.025c-.21.068-.322.397-.544.436-.922.16-2.183.1-2.888.163-.452.04.756.93 1.965.93h.05c.252-.005.517-.017.78-.017.44 0 .877.032 1.237.18.352.146.767.567.762.981L23.901 18h1.358L25.19 4.281c-.002-.368 1.06-.618 1.2-.936.242-.553.118-2.995-.272-3.323a.021.021 0 0 0-.014-.006c-.176 0-.505 2.56-1.022 3.111-.052.056-.156.082-.246.082-.097 0-.178-.03-.162-.082.328-1.118.46-2.749-.055-3.105A.102.102 0 0 0 24.563 0zm11.285 0a1.62 1.62 0 0 0-.387.048c-.26.063-.54.208-.844.433h-6.104v1.35h6.104c.303.224.585.369.844.432a1.62 1.62 0 0 0 .77 0c.254-.063.509-.208.763-.433h.235c.244.225.496.37.755.433a1.627 1.627 0 0 0 .778 0c.26-.063.536-.208.83-.433h6.162V.48H39.59c-.293-.224-.57-.369-.829-.432a1.627 1.627 0 0 0-.778 0c-.259.063-.51.208-.755.433h-.235c-.254-.225-.509-.37-.763-.433A1.575 1.575 0 0 0 35.848 0zm1.285 5.103q3.037 0 6.44 1.468-3.403 1.426-6.44 1.426-3.016 0-6.44-1.426 3.424-1.468 6.44-1.468zm0-.937q-3.75 0-8.62 2.384 4.87 2.364 8.62 2.364 3.75 0 8.62-2.364-4.85-2.384-8.62-2.384zm6.222 7.74a54.07 54.07 0 0 0 1.558.056h.094l-.112 4.564c-.752-.31-1.212-.62-1.738-1.033l.198-3.587zM30.62 10.769c-.291.057-.676.235-.63.583v2.544a48.668 48.668 0 0 0-1.314-.056c0 .32.263.751 1.08.751.01.723.141 1.606.272 2.057l.113 1.183c0 .131.226.169.47.169.29 0 .61-.056.61-.056l-.047-1.184c4.639.038 13.485.273 13.926.273.226 0 .376-.244.376-.582l.113-5.1-2.79-.028-.225 3.973c-2.019.009-5.512.338-7.888.338-.751 0-1.399-.029-1.84-.122-.094-.104-.968-1.371-1.522-1.512a2.436 2.436 0 0 0-.328-.038c-.094-.77-.188-1.54-.273-2.3.17-.217.554-.16.658-.451.103-.141.037-.376-.16-.385-.113-.047-.422-.057-.554-.057zM56.894.314v1.142h-.336V.314zm1.994 0v1.142h-.336V.314zm1.008 0v1.142h-.359V.314zm-2.017.022v1.143h-.336V.336zm-2.083.47q-2.15 1.501-3.719 1.501-1.546 0-2.71-1.5zm11.179 0q-1.157 1.513-2.82 1.513h-.025q-1.68-.012-3.45-1.513zM47.754 0q1.613 3.159 4.413 3.159 2.06 0 3.741-1.3h4.548q1.456 1.3 3.763 1.3 2.756 0 4.48-3.159zm9.14 7.734v1.143h-.336V7.734zm1.994 0v1.143h-.336V7.734zm1.008 0v1.143h-.359V7.734zm-2.017.023v1.142h-.336V7.757zm-2.083.47q-2.15 1.501-3.719 1.501-1.546 0-2.71-1.5zm11.179 0q-1.157 1.512-2.82 1.512h-.025q-1.68-.01-3.45-1.512zm-19.221-.806q1.613 3.158 4.413 3.158 2.06 0 3.741-1.299h4.548q1.456 1.3 3.763 1.3 2.756 0 4.48-3.16zm9.14 7.734v1.142h-.336v-1.142zm1.994 0v1.142h-.336v-1.142zm1.008 0v1.142h-.359v-1.142zm-2.017.022v1.143h-.336v-1.143zm-2.083.47q-2.15 1.502-3.719 1.502-1.546 0-2.71-1.501zm11.179 0q-1.157 1.513-2.82 1.513h-.025q-1.68-.011-3.45-1.512zm-19.221-.806Q49.367 18 52.167 18q2.06 0 3.741-1.3h4.548q1.456 1.3 3.763 1.3 2.756 0 4.48-3.159zm26.632-11.77c-.27.13-.6.49-.1.55.24-.01.79-.26.69-.49a.221.221 0 0 1-.157.067c-.142 0-.287-.127-.433-.127zm-1.97.09c-.331.08-.501.44-.08.52l.021.002c.242 0 .901-.294.358-.361-.09-.06-.18-.16-.3-.16zm2.63-2.51c.59.69 1.111 1.49 1.211 2.41.1.66.13 1.321.23 1.971-.47-.04-.33-.77-.24-1.12.08-.69-.29-1.33-.55-1.941-.18-.33-.35-.85-.81-.86-.51.09-.841.52-1.171.89-.34-.34-.7-.71-1.17-.85a.236.236 0 0 0-.082-.013c-.105 0-.229.046-.285.046-.05 0-.049-.034.056-.164.064-.224.196-.29.359-.29.238 0 .543.141.8.141a.561.561 0 0 0 .112-.01c.084.004.169.007.254.007.437 0 .876-.067 1.286-.218zm-.16.76c.39.1.48.64.67.96.24.56.53 1.17.34 1.801-.15.3.04.68.02.9-.333.235-.626.73-1.069.73a.631.631 0 0 1-.15-.02c-.44-.09-.661-.51-1.001-.71-.246.238-.392.73-.798.73a.618.618 0 0 1-.183-.03c-.37-.08-.86-.04-.97-.49-.19-.46-.21-.97-.24-1.47a.324.324 0 0 0 .06.006c.203 0 .222-.235.24-.436.078-.293.287-.429.52-.429.158 0 .325.062.47.178.17.19.69.34.58.64-.05.18-.11.371-.17.561l.42.56c.04-.29.471-.53.22-.82-.04-.13-.19-.3-.17-.4.18-.32.421-.6.701-.84a.322.322 0 0 1 .23-.103c.268 0 .537.351.77.382.23-.25-.02-.35-.25-.48a.701.701 0 0 0-.486-.196c-.25 0-.5.13-.654.356-.19.114-.322.494-.49.494-.052 0-.108-.037-.17-.134-.306-.244-.672-.518-1.072-.518a.855.855 0 0 0-.179.018c-.283.059-.538.632-.56.632v-.001c-.01-.47.21-.89.34-1.351a.612.612 0 0 1 .596-.477c.173 0 .348.075.474.237.298.11.516.634.797.634.049 0 .1-.017.154-.054.31-.33.56-.72 1.01-.86zm-1.42 6.943c1.27 1.31 2.44 4.632 2.741 5.993-.49-.4-1.16-.66-1.31-.91-.16-.26-.6-2.792-1.431-5.083zm4.522-2.381c2.401 1.38 6.583 8.174 7.473 9.264-1.5-.95-2.981-1.91-4.592-2.691-2.26-1.11-4.192-2.911-6.033-4.592 1.521-.51 2.612-1.37 3.152-1.981zm-2.491 8.624c.32.19.61.45.96.59-.21.52-.34 1.1-.77 1.51-.081.13-.196.172-.328.172-.228 0-.504-.123-.735-.123-.016 0-.032 0-.048.002.28-.7.7-1.01.92-2.151zm.68-9.365c.06.126.138.167.22.167.108 0 .224-.071.32-.116.24.17 1.07.15.58.51-.31.42-1.967 1.566-3.119 1.768-.497.087.338.873.608 1.153 1.561 1.4 3.092 2.882 4.963 3.892 1.17.66 2.4 1.25 3.531 1.98.54.781 1.18 1.502 1.591 2.362-.41.12-.81.29-1.23.39a2.89 2.89 0 0 1-.703.082c-.66 0-1.325-.197-1.619-.512-.54-.57-1.13-3.001-1.44-3.892-.044-.1-.107-.133-.175-.133-.135 0-.292.132-.369.132a.042.042 0 0 1-.037-.019.391.391 0 0 0-.386-.376c-.175 0-.339.127-.314.396-.06.63-.18 1.26-.48 1.831-.037.097-.114.134-.215.134-.284 0-.761-.293-1.086-.374.13-.77-.92-4.712-4.002-8.014-.107-.116-.577-.611-.536-.611.005 0 .017.006.036.02.158.042.336.07.511.07.338 0 .669-.104.84-.42.026-.077.058-.108.096-.108.138 0 .345.399.564.399a.92.92 0 0 0 .514.155c.29 0 .578-.131.777-.355.19-.17.37-.34.56-.51zM75.137 0a3.72 3.72 0 0 1-1.36.28c-.072 0-.143-.004-.211-.01a.804.804 0 0 1-.143.012c-.337 0-.7-.18-1.025-.18a.622.622 0 0 0-.353.098c-.55.8-1.05 1.69-1.11 2.681-.11 1.901-.06 2.562 1.44 4.122.59 1.341 1.691 5.713 2.021 6.904.36.34-.45 2.2-.79 2.66-.185.256-.673.268-1.197.268h-.172c-.471 0-.948.01-1.242.193-.28.18-.38.85-.22.94.15-.23.45-.54.66-.57-.2.21.5.11.65.16.405.007.814.041 1.225.041.198 0 .397-.008.596-.03.09-.04.186-.102.229-.102.032 0 .032.038-.029.151.283.074.601.111.913.111.7 0 1.363-.187 1.508-.56.3-.551.58-1.131.78-1.732.256.054.577.234.835.234a.38.38 0 0 0 .206-.054c.28-.19.57-1.08.73-1.67.016-.062.099-.092.183-.092.081 0 .163.028.188.082.3.6.8 2.44 1.28 3.211.362.571 1.24.852 2.175.852a4.48 4.48 0 0 0 1.717-.332c.65-.28 1.13-.22.99-.58-.22-.6-.6-1.17-1-1.68.58.36 1.16.73 1.74 1.09.049.174.169.243.292.243.237 0 .483-.256.24-.513-2.272-3.282-5.884-8.875-8.385-10.685-.4-.35-.87-.62-1.39-.75-.17-.44-.12-1.031-.22-1.531-.1-.99-.701-2.632-1.752-3.262zm31.439.897c.171 0 .256.62.256.79 0 .17-.085.79-.256.79h-16.4c-.199 0-.298-.62-.298-.79 0-.17.1-.79.299-.79zM89.664 0c-.455 0-.683.918-.683 1.687s.228 1.687.683 1.687h17.425c.427 0 .64-.918.64-1.687S107.516 0 107.09 0zm16.912 5.975c.171 0 .256.62.256.79 0 .171-.085.79-.256.79h-16.4c-.199 0-.298-.619-.298-.79 0-.17.1-.79.299-.79zm-16.912-.897c-.455 0-.683.919-.683 1.687 0 .769.228 1.687.683 1.687h17.425c.427 0 .64-.918.64-1.687 0-.768-.213-1.687-.64-1.687zm16.912 5.975c.171 0 .256.62.256.79 0 .171-.085.79-.256.79h-16.4c-.199 0-.298-.619-.298-.79 0-.17.1-.79.299-.79zm-16.912-.896c-.455 0-.683.918-.683 1.687 0 .768.228 1.687.683 1.687h17.425c.427 0 .64-.919.64-1.687 0-.77-.213-1.687-.64-1.687zm.1 5.487q.122 0 .279.026 2.013.153 4.088.504l-.443 1.388q-1.876-.473-3.798-1.19-.625-.214-.55-.488.058-.24.424-.24zm.059-.41q-.682 0-.818.558-.152.595.626.9 2.029.748 4.027 1.266.118.042.198.042.125 0 .153-.103l.58-1.769q.06-.244-.23-.32-2.272-.366-4.362-.565-.091-.008-.174-.008zm6.507.41q.122 0 .278.026 2.014.153 4.088.504l-.442 1.388q-1.876-.473-3.798-1.19-.626-.214-.55-.488.058-.24.424-.24zm.058-.41q-.681 0-.817.558-.153.595.625.9 2.03.748 4.027 1.266.12.042.199.042.124 0 .152-.103l.58-1.769q.061-.244-.229-.32-2.273-.366-4.363-.565-.09-.008-.174-.008zm6.507.41q.122 0 .279.026 2.013.153 4.088.504l-.442 1.388q-1.877-.473-3.799-1.19-.625-.214-.549-.488.057-.24.423-.24zm.059-.41q-.682 0-.817.558-.153.595.625.9 2.029.748 4.027 1.266.119.042.198.042.125 0 .153-.103l.58-1.769q.06-.244-.23-.32-2.272-.366-4.362-.565-.091-.008-.174-.008zM124.444.746q-2.313 3.143-6.654 3.228-4.314-.085-6.626-3.228zM109.729 0q2.37 4.738 8.06 4.757 5.72-.019 8.09-4.757zm14.715 7.367q-2.313 3.143-6.654 3.228-4.314-.085-6.626-3.228zm-14.715-.745q2.37 4.738 8.06 4.756 5.72-.018 8.09-4.756zm14.715 7.367q-2.313 3.143-6.654 3.228-4.314-.085-6.626-3.228zm-14.715-.746q2.37 4.738 8.06 4.757 5.72-.019 8.09-4.757z"/></svg>