<svg xmlns="http://www.w3.org/2000/svg" width="140.98" height="18"><path d="M5.454.386c.221 0 .566.052.757.104.832.223-.005.968-.54.968a.513.513 0 0 1-.073-.005c-.353.074.06.199.502.199.272 0 .555-.047.681-.18.072-.077.131-.108.182-.108.185 0 .258.417.406.623.74.245 1.203.913 1.682 1.486 1.377 1.65 2.617 3.405 3.917 5.115-.357-.105-.743-.31-1.097-.48-1.62-.783-3.347-1.401-4.814-2.455-.732-.525-1.712-1.134-1.793-2.056-.061-.702 1.227-1.337 1.134-1.717-.011-.044-.043-.064-.09-.064-.274 0-1.077.688-1.288 1.09-.081.155-.14.217-.182.217-.146 0-.077-.757.014-.93.31-.589-.628-1.325-.1-1.664-.016.088.002.337.312.337.325 0 .305-.4.205-.453a.435.435 0 0 1 .185-.027zm.616 5.477c.254.9.626 1.766 1.065 2.59.217.405 1.13 1.049.485 1.377a.194.194 0 0 1-.052.007c-.257 0-.519-.495-.855-.517a12.843 12.843 0 0 0-.265-1.873c-.103-.505-.36-1.176-.378-1.584zm.705.597c.795.576 1.63 1.093 2.472 1.6.222.497.034 1.222.149 1.805-.538-.363-1.112-.378-1.457-1.066-.385-.766-1.019-1.494-1.164-2.34zM7 10.06c.134.235.335.383.538.383.16 0 .32-.091.45-.304.186.205.23.926.23 1.325.002.411-.214.446-.465.446l-.155-.002a.93.93 0 0 0-.278.032.453.453 0 0 1-.138.02c-.197 0-.423-.095-.636-.095-.02 0-.04 0-.06.002.001-.52.36-1.225.514-1.808zm1.603-2.968c1.69.766 3.36 1.59 5.054 2.351.648.679 1.239 1.448 1.96 2.049.538.45-.155.358-.474.418-.244.046-.492.08-.738.116-.87-.87-1.745-1.738-2.58-2.641-.909-.982-2.145-1.538-3.222-2.293zm-.512 5.693c1.105 0 2.211.013 3.316.042.556.014 1.197-.023 1.695.164-.658.042-2.304.058-4.042.058a201.337 201.337 0 0 1-5.037-.05c-.51 0-.097-.173.188-.173a.55.55 0 0 1 .076.005c1.267-.03 2.535-.046 3.804-.046zm-4.862.743c.75.01 1.5.02 2.25.045.495.017.989.023 1.483.023 1.398 0 2.796-.05 4.192-.05.188 0 .375.001.562.003-1.161.634-2.421 1.17-3.766 1.214-.152.005-.3.008-.445.008-.76 0-1.443-.08-2.196-.351-.656-.236-1.506-.523-2.08-.892zm6.649 1.558a.144.144 0 0 0-.078.02c-.256.16.368 1.331.895 1.613.04.021.078.03.115.03.192 0 .33-.259.247-.445-.214-.48-.87-1.218-1.18-1.218zm-4.848.055c-.042 0-.105.026-.194.086-.432.29-1.443 1.067-.823 1.496a.22.22 0 0 0 .129.042c.224 0 .442-.354.556-.556.12-.21.574-1.068.332-1.068zm4.06.177c-.274 0 .026 1.476.502 1.79.031.022.07.031.109.031.106 0 .222-.069.242-.173.123-.637-.473-1.61-.846-1.647a.08.08 0 0 0-.008 0zm-3.278.017c-.05 0-.13.062-.244.216-.302.408-1.043 1.256-.436 1.571.04.021.078.03.114.03.254 0 .4-.478.49-.72.081-.222.268-1.097.076-1.097zm2.271.162c-.023 0-.043.012-.06.037-.245.368-.164 1.491.42 1.817a.196.196 0 0 0 .097.026c.172 0 .306-.25.276-.423-.07-.41-.517-1.457-.733-1.457zm-1.329-.011a.1.1 0 0 0-.058.023c-.391.291-1.017 1.466-.379 1.845.035.02.068.03.101.03.191 0 .35-.31.375-.504.04-.334.162-1.394-.039-1.394zm.655-.018a.08.08 0 0 0-.038.01c-.324.174-.62 1.573-.014 1.945a.175.175 0 0 0 .092.028c.164 0 .306-.252.306-.421-.002-.46-.123-1.562-.346-1.562zM5.632 0c-.205 0-.408.02-.598.054-.567.104-1.44.31-1.43.996a.711.711 0 0 1 .192-.028c.55 0 .663.789.553 1.27-.225.98.26 1.965.898 2.707.425 1.269.96 2.595.954 3.928-.003.556.408.592.256 1.158-.136.51-.373 1.566-.883 1.69a2.18 2.18 0 0 1-.182.007c-.323 0-.663-.056-.984-.056-.254 0-.497.036-.71.162-.444.264-.778.46-1.31.46l-.071-.001-.078-.002c-.895 0-1.953.472-2.118 1.411-.244 1.391-.044 2.827-.036 4.233.205.005.412.011.618.011.163 0 .325-.004.487-.016-.076-.844-.133-1.694-.079-2.539.039-.601-.113-1.44.465-1.781a.738.738 0 0 1 .383-.107c.506 0 1.005.499 1.472.712 1.306.596 2.697 1.036 4.147 1.036h.1c1.756-.025 3.375-.751 4.878-1.576a.616.616 0 0 1 .41-.148c.28 0 .562.17.622.463.262 1.292.154 2.632.067 3.94.157.012.315.015.473.015.156 0 .313-.003.47-.003.052 0 .105 0 .158.002.008-.911.089-1.823.047-2.733-.033-.721.107-1.55-.417-2.143-.68-.771-1.763-.76-2.704-.825a1.712 1.712 0 0 0-.117-.004c-.125 0-.257.01-.386.01a.973.973 0 0 1-.439-.08c-.294-.302-.66-.36-1.04-.36-.228 0-.462.021-.689.021a2.75 2.75 0 0 1-.22-.008c-.043-.588-.075-1.177-.107-1.766a.155.155 0 0 1 .111-.045c.294 0 .78.686 1.034.686.076 0 .13-.06.154-.217.094-.642-.155-1.343-.146-2.018h.016c.285 0 .766.368 1.053.617.898.779 1.67 1.717 2.513 2.566.334.38.681.803 1.163.803.13 0 .269-.031.42-.101.48-.223 1.5.065 1.609-.544-.462-.54-.994-1.018-1.47-1.547.58.274 1.144.678 1.747.941a.77.77 0 0 0 .24.078c.18 0-.489-.521-.668-.602-.665-.3.624-.188.098-.605-1.155-.915-2.466-1.648-3.699-2.473-.79-.998-1.506-2.067-2.3-3.068-.66-.774-1.221-1.636-1.941-2.356C8.175 1.783 7.525 1.66 7.48.937 7.138.252 6.37 0 5.632 0zm16.337 1.434l1.648 1.047q.33 3.238.067 5.215-.261 1.977-.31 3.266-.048 1.29.63 3.46-.02.155-.562.446-.254.136-.602.136-.395 0-.91-.175 1.028-1.9.892-4.129-.136-2.229-.524-5.01-.387-2.782-.33-4.256zm-.737 14.268q.892.155 1.512.31-.232.853-1.085 1.085-.366.1-.703.1-.45 0-.848-.177.349-.814 1.124-1.318zM21.116 0q-.175 1.609.417 5.418.591 3.81.591 5.127 0 3.49-1.338 4.207-1.26 1.28-1.628 2.578.368.504 1.318.63.301.04.575.04.59 0 1.054-.185.678-.272 1.027-.718.446-.6.252-1.357l.834-.445q.6-.291.368-.93-.95-2.56-.359-6.049.591-3.49.165-6.261L21.116 0zm14.602.92l.133.002h.068q2.49 0 4.749 2.14l-1.398 1.13q-1.308-1.249-3.419-1.249-2.111 0-3.42 1.25l-1.397-1.13Q33.264.92 35.718.92zm.133 2.886q2.349.03 3.865 2.467h-7.76q1.19-2.438 3.895-2.467zm0-3.806q-3.687.149-6.214 3.033l2.111 1.784q-.892 1.189-1.1 2.23h10.376q-.208-1.041-1.1-2.2l1.963-1.785Q39.537.15 35.85 0zM26.65 10.67V18h1.225v-7.33zm8.423.01V18h1.225v-7.32zm8.576 0V18h1.225v-7.32zM52.278 0c-.12 0-.127.377-.299.935-.195.635-.338 1.962-.788 2.22a.397.397 0 0 1-.204.052c-.134 0-.27-.05-.417-.05a.545.545 0 0 0-.17.025c-.21.068-.322.397-.544.436-.922.16-2.183.1-2.887.163-.453.04.756.93 1.964.93h.051c.251-.005.516-.017.78-.017.44 0 .877.032 1.236.18.353.146.768.567.763.981L51.616 18h1.359l-.07-13.719c-.001-.368 1.061-.618 1.2-.936.243-.553.119-2.995-.272-3.323a.021.021 0 0 0-.014-.006c-.176 0-.504 2.56-1.021 3.111-.053.056-.157.082-.247.082-.097 0-.177-.03-.162-.082.329-1.118.461-2.749-.054-3.105A.102.102 0 0 0 52.278 0zm5.696 0c-.93 0-1.745.684-1.745 1.562V18h1.136V1.562c0-.43.378-.57.616-.57.25 0 .634.175.634.703v10.804h1.136V1.695C59.75.815 58.88 0 57.974 0zm12.917.314v1.142h-.336V.314zm1.994 0v1.142h-.336V.314zm1.008 0v1.142h-.358V.314zm-2.016.022v1.143h-.336V.336zm-2.084.47q-2.15 1.501-3.718 1.501-1.546 0-2.711-1.5zm11.18 0Q79.815 2.32 78.15 2.32h-.024q-1.68-.012-3.45-1.513zM61.75 0q1.613 3.159 4.413 3.159 2.061 0 3.741-1.3h4.548q1.456 1.3 3.764 1.3 2.755 0 4.48-3.159zm9.141 7.734v1.143h-.336V7.734zm1.994 0v1.143h-.336V7.734zm1.008 0v1.143h-.358V7.734zm-2.016.023v1.142h-.336V7.757zm-2.084.47q-2.15 1.501-3.718 1.501-1.546 0-2.711-1.5zm11.18 0Q79.815 9.74 78.15 9.74h-.024q-1.68-.01-3.45-1.512zM61.75 7.421q1.613 3.158 4.413 3.158 2.061 0 3.741-1.299h4.548q1.456 1.3 3.764 1.3 2.755 0 4.48-3.16zm9.141 7.734v1.142h-.336v-1.142zm1.994 0v1.142h-.336v-1.142zm1.008 0v1.142h-.358v-1.142zm-2.016.022v1.143h-.336v-1.143zm-2.084.47q-2.15 1.502-3.718 1.502-1.546 0-2.711-1.501zm11.18 0q-1.157 1.513-2.822 1.513h-.024q-1.68-.011-3.45-1.512zm-19.222-.806Q63.364 18 66.164 18q2.061 0 3.741-1.3h4.548q1.456 1.3 3.764 1.3 2.755 0 4.48-3.159zm26.632-11.77c-.27.13-.6.49-.1.55.24-.01.79-.26.69-.49a.221.221 0 0 1-.157.067c-.142 0-.287-.127-.433-.127zm-1.97.09c-.33.08-.5.44-.08.52l.021.002c.242 0 .901-.294.359-.361-.09-.06-.18-.16-.3-.16zm2.63-2.51c.591.69 1.111 1.49 1.211 2.41.1.66.13 1.321.23 1.971-.47-.04-.33-.77-.24-1.12.08-.69-.29-1.33-.55-1.941-.18-.33-.35-.85-.81-.86-.51.09-.84.52-1.17.89-.341-.34-.701-.71-1.171-.85a.236.236 0 0 0-.082-.013c-.105 0-.228.046-.285.046-.05 0-.049-.034.056-.164.064-.224.196-.29.36-.29.237 0 .542.141.799.141a.561.561 0 0 0 .112-.01c.084.004.17.007.254.007.437 0 .876-.067 1.287-.218zm-.16.76c.39.1.48.64.671.96.24.56.53 1.17.34 1.801-.15.3.04.68.02.9-.334.235-.627.73-1.07.73a.631.631 0 0 1-.15-.02c-.44-.09-.66-.51-1-.71-.247.238-.393.73-.799.73a.618.618 0 0 1-.182-.03c-.37-.08-.86-.04-.97-.49-.19-.46-.211-.97-.241-1.47a.324.324 0 0 0 .061.006c.203 0 .22-.235.24-.436.077-.293.287-.429.52-.429.157 0 .325.062.47.178.17.19.69.34.58.64-.05.18-.11.371-.17.561l.42.56c.04-.29.47-.53.22-.82-.04-.13-.19-.3-.17-.4.18-.32.42-.6.7-.84a.322.322 0 0 1 .23-.103c.268 0 .538.351.77.382.231-.25-.02-.35-.25-.48a.701.701 0 0 0-.486-.196c-.25 0-.5.13-.654.356-.19.114-.322.494-.489.494-.053 0-.109-.037-.171-.134-.305-.244-.672-.518-1.072-.518a.855.855 0 0 0-.179.018c-.283.059-.537.632-.559.632l-.001-.001c-.01-.47.21-.89.34-1.351a.612.612 0 0 1 .596-.477c.173 0 .348.075.475.237.298.11.516.634.796.634.05 0 .1-.017.154-.054.31-.33.56-.72 1.01-.86zm-1.42 6.943c1.27 1.31 2.441 4.632 2.741 5.993-.49-.4-1.16-.66-1.31-.91-.16-.26-.6-2.792-1.431-5.083zm4.522-2.381c2.401 1.38 6.583 8.174 7.474 9.264-1.501-.95-2.982-1.91-4.593-2.691-2.26-1.11-4.192-2.911-6.032-4.592 1.52-.51 2.61-1.37 3.151-1.981zm-2.491 8.624c.32.19.61.45.96.59-.21.52-.34 1.1-.77 1.51-.08.13-.196.172-.328.172-.227 0-.504-.123-.735-.123-.016 0-.032 0-.048.002.28-.7.7-1.01.92-2.151zm.68-9.365c.06.126.138.167.22.167.108 0 .224-.071.32-.116.24.17 1.071.15.58.51-.31.42-1.967 1.566-3.118 1.768-.497.087.337.873.608 1.153 1.56 1.4 3.091 2.882 4.962 3.892 1.17.66 2.401 1.25 3.532 1.98.54.781 1.18 1.502 1.59 2.362-.41.12-.81.29-1.23.39a2.89 2.89 0 0 1-.703.082c-.66 0-1.325-.197-1.618-.512-.54-.57-1.13-3.001-1.441-3.892-.044-.1-.107-.133-.175-.133-.135 0-.291.132-.369.132a.04.04 0 0 1-.036-.019.391.391 0 0 0-.387-.376c-.175 0-.338.127-.314.396-.06.63-.18 1.26-.48 1.831-.037.097-.113.134-.215.134-.284 0-.76-.293-1.085-.374.13-.77-.92-4.712-4.002-8.014-.108-.116-.578-.611-.536-.611.004 0 .016.006.035.02.158.042.336.07.512.07.337 0 .668-.104.84-.42.025-.077.058-.108.096-.108.137 0 .344.399.563.399a.92.92 0 0 0 .514.155c.29 0 .578-.131.777-.355.19-.17.37-.34.56-.51zM89.134 0c-.315.14-.865.28-1.36.28-.072 0-.142-.004-.211-.01a.804.804 0 0 1-.143.012c-.336 0-.699-.18-1.025-.18a.622.622 0 0 0-.353.098c-.55.8-1.05 1.69-1.11 2.681-.11 1.901-.06 2.562 1.44 4.122.59 1.341 1.691 5.713 2.021 6.904.36.34-.45 2.2-.79 2.66-.185.256-.673.268-1.197.268h-.172c-.47 0-.948.01-1.242.193-.28.18-.38.85-.22.94.15-.23.45-.54.66-.57-.2.21.5.11.65.16.405.007.814.041 1.225.041.198 0 .397-.008.596-.03.09-.04.187-.102.229-.102.033 0 .033.038-.029.151.283.074.602.111.913.111.7 0 1.363-.187 1.508-.56.3-.551.58-1.131.78-1.732.256.054.577.234.835.234a.38.38 0 0 0 .206-.054c.28-.19.57-1.08.73-1.67.016-.062.1-.092.184-.092.08 0 .162.028.187.082.3.6.8 2.44 1.28 3.211.363.571 1.241.852 2.176.852a4.48 4.48 0 0 0 1.716-.332c.65-.28 1.13-.22.99-.58-.22-.6-.6-1.17-1-1.68.58.36 1.16.73 1.741 1.09.048.174.168.243.291.243.237 0 .483-.256.24-.513-2.272-3.282-5.883-8.875-8.385-10.685-.4-.35-.87-.62-1.39-.75-.17-.44-.12-1.031-.22-1.531-.1-.99-.7-2.632-1.751-3.262zm30.529.85c.162 0 .243.588.243.75 0 .162-.081.749-.243.749h-15.551c-.189 0-.284-.587-.284-.75 0-.161.095-.749.284-.749zM103.626 0c-.432 0-.648.87-.648 1.6 0 .729.216 1.6.648 1.6h16.523c.405 0 .607-.871.607-1.6 0-.73-.202-1.6-.607-1.6zm16.037 8.25c.162 0 .243.588.243.75 0 .162-.081.75-.243.75h-15.551c-.189 0-.284-.588-.284-.75 0-.162.095-.75.284-.75zm-16.037-.85c-.432 0-.648.871-.648 1.6 0 .729.216 1.6.648 1.6h16.523c.405 0 .607-.871.607-1.6 0-.729-.202-1.6-.607-1.6zm16.037 8.251c.162 0 .243.587.243.75 0 .161-.081.749-.243.749h-15.551c-.189 0-.284-.588-.284-.75 0-.162.095-.749.284-.749zm-16.037-.85c-.432 0-.648.87-.648 1.6 0 .728.216 1.599.648 1.599h16.523c.405 0 .607-.87.607-1.6 0-.729-.202-1.6-.607-1.6zM139.36.841q-2.609 3.547-7.508 3.643-4.868-.096-7.477-3.643zM122.757 0q2.673 5.347 9.096 5.368 6.454-.021 9.128-5.368zm-.001 10.67V18h1.225v-7.33zm8.423.01V18h1.225v-7.32zm8.576 0V18h1.225v-7.32z"/></svg>