<svg xmlns="http://www.w3.org/2000/svg" width="79.8" height="18"><path d="M3.01.474c.693 0 1.247.2 1.634.479.006.053.02.107.009.16-.05.248-.195.477-.396.63-.316.207-.697.267-1.057.356-.09.01-.019.031.031.04.23.04.707.099.971.099l.052-.001c.278-.032.54-.148.766-.311.079-.067.147-.15.205-.236.147.346.227.713.26.917.018.11.096.2.202.233 1.139.349 2.038 1.91 2.88 2.949 1.729 2.137 3.199 4.526 4.892 6.76-.937-.456-1.87-.916-2.81-1.374-1.92-1.01-3.92-1.816-5.604-3.09l-.008-.008c-.97-.808-1.963-1.66-2.339-2.793-.148-.92 1.757-2.577 1.542-2.646a.207.207 0 0 0-.064-.01c-.458 0-1.753 1.128-2.019 2.202-.003-.014-.01-.03-.014-.045-.073-.356-.154-1.256.068-1.98a.29.29 0 0 0 .01-.103 1.968 1.968 0 0 0-.123-.634c-.063-.17-.139-.344-.26-.765-.031-.108-.142-.328-.208-.345.186-.138.375-.28.645-.375a.434.434 0 0 0-.132.314c0 .23.164.415.365.415.2 0 .364-.186.364-.415V.894a.411.411 0 0 0-.255-.39c.053-.007.096-.019.154-.022.081-.006.16-.008.238-.008zm.67 7.763c.065.065.135.124.202.187.214.78.412 1.64.692 2.305.483 1.145 1.216 2.141 1.84 3.154a1.814 1.814 0 0 0-.385.27 6.831 6.831 0 0 0-.199.193 2.61 2.61 0 0 0-1.186-.897c.045-.723-.108-1.712-.34-2.787a34.903 34.903 0 0 0-.624-2.425zm1.006.908c1.149.945 2.428 1.738 3.676 2.54-.018.91-.018 1.778.084 2.675a3.411 3.411 0 0 0-1.437-.736c-.02 0-.037.012-.057.012-.649-1.063-1.383-2.06-1.837-3.134-.156-.37-.293-.85-.429-1.357zm.407 5.254a2.5 2.5 0 0 1 .44.541.3.3 0 0 0 .257.14.29.29 0 0 0 .17-.053c.215-.156.347-.324.476-.446.047-.045.097-.08.148-.117l.149 2.722c-.213-.014-.435-.035-.637-.035-.264 0-.495.036-.633.172-.169-.134-.497-.164-.89-.164-.102 0-.207.002-.316.004l.836-2.764zM6.25 9.574c1.354.787 2.784 1.414 4.135 2.125a.244.244 0 0 0 .006.003c1.295.631 2.586 1.28 3.894 1.904.984 1.189 2.052 2.295 3.078 3.42l-2.15.362-4.267-4.635a.288.288 0 0 0-.037-.036c-1.499-1.137-3.152-2.082-4.66-3.143zM3.076 0c-.135 0-.273.005-.411.013C1.58.083.792.54.523 1.157c-.04.093-.146.314-.007.314a2.35 2.35 0 0 1 .341-.028c.418 0 .38.172.47.194.09.282.29.846.303 1.068-.244.86-.153 1.763-.064 2.198.15.732.63 1.584 1.261 2.38a.285.285 0 0 0 0 .166 35.3 35.3 0 0 1 .903 3.336c.251 1.168.393 2.277.317 2.823a.294.294 0 0 0 .221.328c.045.011.084.031.127.045l-.928 3.079a2.847 2.847 0 0 0-.593-.055c-.381 0-.756.05-1.064.05-.125 0-.24-.008-.34-.032a.546.546 0 0 0-.125-.012c-.436 0-1.428.306-1.34.879.15-.128.257-.159.375-.159.11 0 .23.027.405.027h.027c.254-.004.697-.083 1.053-.083.18 0 .338.02.438.08.236-.01.45-.013.649-.013.85 0 1.447.07 2.5.075a89.565 89.565 0 0 0 2.974-.079c.45.003.697.054.922.054h.04c.134-.004.265-.057.48-.057.123 0 .273.017.468.07-.25-.341-.877-.685-1.33-.685a.591.591 0 0 0-.302.071 5.081 5.081 0 0 0-.508-.022c-.22 0-.448.01-.678.02l-.157-2.83c.487.203.857.517 1.281 1.021a.295.295 0 0 0 .513-.246c-.192-1.039-.213-2.019-.202-3.06.54.354 1.072.713 1.576 1.094l4.36 4.738a.29.29 0 0 0 .263.09c.95-.159 1.9-.315 2.849-.474a.294.294 0 0 0 .23-.193.298.298 0 0 0-.06-.297c-.741-.83-1.508-1.631-2.25-2.445 1.269.78 2.875 1.755 3.08 1.755.022 0 .027-.013.012-.04-.094-.163-.9-.755-1.775-1.373.14.058.276.12.415.177l.017.01c.103.035.16.059.27.062a.286.286 0 0 0 .108-.016.317.317 0 0 0 .188-.152.32.32 0 0 0 .023-.238c-.017-.05-.038-.077-.054-.098-.061-.085-.103-.109-.162-.154a4.553 4.553 0 0 0-.205-.149c-.153-.105-.336-.223-.493-.328a4.992 4.992 0 0 1-.328-.233.307.307 0 0 0-.028-.025l-3.892-2.736c-.008-.006-.02-.001-.028-.006-1.333-1.869-2.588-3.825-4.046-5.627-.744-.92-1.598-2.528-2.985-3.064-.067-.396-.218-1.127-.755-1.649C4.827.26 4.168.056 3.427.011A5.728 5.728 0 0 0 3.076 0zM25.85 4.787q-.407 0-.472.314v.019q.047.083.194.083.425-.185.425-.342v-.018q0-.037-.148-.056zm1.477-.572q-.065.36-.637.775l.203.083.277-.101.138.092q1.062.508 2.817.536l2.752.027h.037q.47 0 .457.688-.014.716-.485 1.436-.296 0-.6-.226-.305-.226-.5-.53-.193-.306-.498-.795.093.97.554 1.524-.563 0-1.002.106-.219.053-.365.053-.147 0-.221-.053-.092-.066-.457-.066-.222 0-.545.024-.249.02-.455.02-.501 0-.75-.112-.23-.194-.29-.679-.06-.485.272-1.343-.684.489-.684 1.486v.333q-.341-.351-.535-.776-.379-.942-1.035-.942-.249 0-.96.314-.24-.101-.194-.323l.462-.619q.332-.563.48-.628.074-.138.72-.138.277.074.277.203 0 .175-.184.35.35-.073.508-.415 0-.083.443-.304zm.398-1.965q-.045 0-.103.072-.701 1.117-1.274 1.551-.222.194-.6.203-.185 0-.563-.277-.564-.545-.785-.923-.25-.444-.324-.49-.037 0-.055.093 0 .526 1.071 1.948-.203.296-.378.674-.176.379-.416.577-.24.199.046.393 0 .24.397.388l.988-.287q.397 0 .545.333.49.738.49 1.542.055 1.071-.74 2.05-.249.166-.249.461 0 .12.305.12.499 0 .499-.12l-.037-.249q0-.13.194-.194v-.018q0-.176.628-1.764.286 0 .452.277.213.702.213 1.164 0 .101-.13.434-.157.12-.194.434h.74l-.056-.231q-.037-.139.101-.24l-.064-.342q-.12-1.302-.12-1.533v-.018q.73-.176 1.122-.176.392 0 .604.143.085.057.237.057.23 0 .618-.13.419-.142.643-.142.119 0 .183.04.185.115.185.392 0 1.016-.517 1.727-.167.166-.25.462h.637q.167-.056.074-.277.019-.24.222-.305 0-.84.739-1.662.517.286.526.886 0 .231-.092.628l-.111.305q-.102.12-.185.453h.61q.11-.047.138-.102l-.092-.296q-.046-.129.13-.23-.093-.49.12-.74-.435-1.015-.435-1.597.231-.95.296-1.782.11.582.027 1.395-.083.812.277 1.68.07.146.129.146.04 0 .074-.072.093-.526.037-2.909-.073-.295-.157-.452-.295-.453-.507-.471h-2.983q-2.207 0-3.269-.628.176-.314.194-.43.018-.115 0-.281-.443.13-.665.342l-.185-.139q.194-.12.62-.776.424-.655.498-1.025-.031-.062-.073-.062zm4.893 10.098c.488.021.755.032.87.032h.053l-.063 2.547a3.738 3.738 0 0 1-.97-.576l.11-2.003zm-7.107-.634c-.163.031-.377.131-.351.325v1.42c-.315-.015-.64-.031-.734-.031 0 .178.147.42.603.42.005.403.078.896.152 1.147l.063.66c0 .074.125.095.262.095.162 0 .34-.031.34-.031l-.026-.66c2.59.02 7.527.151 7.773.151.126 0 .21-.136.21-.325l.063-2.846-1.557-.016-.126 2.217c-1.127.006-3.076.19-4.402.19-.42 0-.781-.017-1.028-.069-.052-.058-.54-.765-.849-.844a1.36 1.36 0 0 0-.183-.02c-.053-.43-.105-.86-.152-1.285.094-.12.309-.09.366-.252.058-.078.021-.21-.089-.215-.063-.026-.235-.031-.309-.031zm13.528-9.048h-.003c-.075.001-.135.067-.134.148.002.08.063.143.137.143h.002c.076-.001.136-.068.134-.148l-.136.002.136-.003a.14.14 0 0 0-.136-.142zm.025-.024a.555.555 0 0 1 .312.195l.061.121.001.001c.011.14-.04.354-.117.565a.434.434 0 0 0-.065-.205.47.47 0 0 0-.2-.162c-.134-.064-.256-.092-.391-.179a.196.196 0 0 0-.086-.03l-.07-.006a.196.196 0 0 0 .092-.118l-.003.013s.009-.013.028-.029a.713.713 0 0 1 .135-.08 1.028 1.028 0 0 1 .303-.086zm1.005.252a.986.986 0 0 1 .504.346c.156.204.242.488.297.818l-.575-.054c.048-.276.03-.586-.03-.8a.681.681 0 0 0-.196-.31zm-.43 2.676c.119.014.237.024.351.029 1.098.05 2.212.533 2.847 1.026.697.54 1.513.971 2.321 1.308a9.79 9.79 0 0 1-1.066.052 5.863 5.863 0 0 1-.2.003c-1.238 0-2.485-.39-3.45-1.16a2.482 2.482 0 0 1-.803-1.258zm-1.085-.468c.03.082.081.161.182.215.147.079.314.136.488.179.101.635.491 1.253.973 1.639 1.043.83 2.374 1.245 3.693 1.245a6.292 6.292 0 0 0 .245-.004 9.17 9.17 0 0 0 1.756-.156v-.005c.388.139.766.257 1.118.355-.582-.04-1.187-.17-1.816-.19a6.468 6.468 0 0 0-.196-.003c-.59 0-1.172.074-1.725.084H43.2c-1.565 0-2.863-.896-4.118-2.107-.29-.28-.508-.838-.527-1.252zm6.799 3.68c.462.03.937.117 1.426.163.14.097.29.173.413.25.096.06.163.118.204.166a.55.55 0 0 1-.06.015 1.295 1.295 0 0 1-.414.004 6.372 6.372 0 0 1-.958-.279 2.888 2.888 0 0 1-.611-.32zM39.066 2.25h-.01c-.15.003-.308.053-.46.124a1.05 1.05 0 0 0-.214.128.53.53 0 0 0-.105.106c-.205.054-.46.076-.722.107-.295.036-.604.083-.87.246-.434.264-.758.761-.906 1.244a.196.196 0 0 0 .352.163c.452-.706.755-.91 1.089-.986a3.56 3.56 0 0 1 .761-.073c.167 0 .34.009.516.025.172.102.324.145.391.177.034.016.04.024.04.024s.006.007.004.052c-.007.102-.154.32-.34.552-.187.232-.408.485-.43.815-.035.567.213 1.263.648 1.682.402.388.815.75 1.245 1.065.092.597.208 1.43.278 2.012-.16.732-.557 1.382-.758 2.102-.06.133-.205.19-.347.19a.533.533 0 0 1-.132-.017c-.204-.03-.41-.06-.616-.06a1.828 1.828 0 0 0-.207.01c-.142 0-.619.19-.548.457.023.06.443.087.892.087.33 0 .677-.014.89-.04a.402.402 0 0 0 .443-.337c.265-.736.578-1.452.84-2.188.002-.634-.169-1.249-.232-1.876.308.191.626.355.955.485.15.3.83 1.262 1.082 1.638l.134 1.912c-.354-.013-.701-.111-1.055-.111-.045 0-.09.001-.136.005-.276 0-.363.538-.155.538.008 0 .016 0 .025-.002.402.004.804.012 1.206.012l.394-.003c.137-.021.216-.183.176-.31l-.156-2.164c-.138-.254-.545-.857-.852-1.307a4.447 4.447 0 0 0 1.103.119c.51-.01 1.018-.065 1.511-.08.208.339.628.537 1.033.693.428.165.848.264 1.024.298a1.64 1.64 0 0 0 .562-.003.681.681 0 0 0 .274-.101.334.334 0 0 0 .117-.134.31.31 0 0 0 .015-.208.695.695 0 0 0-.287-.37l.024-.003c.068-.01.132-.022.192-.042.03-.01.06-.02.094-.043a.22.22 0 0 0 .109-.15.227.227 0 0 0-.056-.197.344.344 0 0 0-.082-.068 1.067 1.067 0 0 0-.172-.086 3.268 3.268 0 0 0-.372-.125c-1.278-.344-2.956-.963-4.188-1.919-.71-.55-1.87-1.054-3.07-1.107-.38-.018-.824-.097-1.087-.237l.012.006c.005 0-.016-.022-.025-.06-.01-.05 0-.112 0-.112.042-.097.146-.211.271-.339.125-.127.27-.267.364-.458.113-.232.242-.516.28-.804a.339.339 0 0 1 .066.104c.037.133.033.649-.024.8a.196.196 0 0 0 .165.265l1.051.098a.197.197 0 0 0 .213-.219c-.054-.454-.14-.9-.41-1.251-.268-.348-.716-.567-1.38-.583a.725.725 0 0 0-.437-.168zm7.845.285c.559 0 1.056.258 1.38.661h-2.76a1.765 1.765 0 0 1 1.38-.661zm1.567.946c.106.203.175.429.195.669H45.15c.02-.24.09-.466.196-.669zm.197.954a1.76 1.76 0 0 1-.185.668h-3.157a1.76 1.76 0 0 1-.186-.668zm-.366.953a1.765 1.765 0 0 1-1.398.684 1.765 1.765 0 0 1-1.397-.684zM46.911 2.25a2.056 2.056 0 0 0-2.053 2.054c0 1.132.921 2.053 2.053 2.053a2.056 2.056 0 0 0 2.054-2.053A2.056 2.056 0 0 0 46.91 2.25zM37.39 13.837l-1.62 1.913h.79l.83-.989.836.989.813-.989.838.989.829-.989.837.989.829-.989.837.989.813-.989.837.989.837-.989.813.989.838-.989.829.989h.789l-1.618-1.913-.838.924-.813-.924-.837.924-.837-.924-.813.924-.837-.924-.83.924-.836-.924-.83.924-.837-.924-.813.924-.837-.924zm15.193-5.114c-.342.027-.53.197-.566.512.045.342.233.522.566.54.333-.018.509-.198.526-.54-.026-.315-.202-.485-.526-.512zm.04-1.134c.244 0 .469.045.675.135a1.779 1.779 0 0 1 .918.91c.09.203.135.417.135.642 0 .234-.045.452-.135.654a1.697 1.697 0 0 1-.918.89 1.75 1.75 0 0 1-.674.129 1.8 1.8 0 0 1-.682-.128 1.623 1.623 0 0 1-.546-.358 1.754 1.754 0 0 1-.364-.533 1.593 1.593 0 0 1-.135-.654c0-.225.045-.439.135-.641.09-.203.211-.382.364-.54a1.726 1.726 0 0 1 1.228-.506zm-.026-.459a2.09 2.09 0 0 0-.837.169c-.26.112-.486.265-.674.459-.19.193-.34.418-.452.674a2.043 2.043 0 0 0-.17.83c0 .297.057.574.17.83.112.256.263.48.452.668a2.141 2.141 0 0 0 3.015 0 2.095 2.095 0 0 0 .459-2.328A2.187 2.187 0 0 0 53.427 7.3a2.043 2.043 0 0 0-.83-.169zm7.593-4.59q.263 0 .486.21.223.208.223.489 0 .261-.19.48-.189.218-.518.218-.31 0-.514-.228-.203-.228-.203-.47 0-.262.203-.48.204-.218.514-.218zm-.862 1.968q-.058 0-.068.068 0 .058.068.058.058 0 .068-.058-.01-.068-.068-.068zm0-.029q.097 0 .097.097 0 .078-.097.107-.058-.01-.116-.058.029-.146.116-.146zm.25-.104q-.071 0-.153.007.087.049.039.126-.048-.077-.136-.077-.165 0-.165.203.097.068.088.126-.01.059-.03.078.068.068.127.349.038 0 .048-.03-.01-.3.02-.397.087-.174.242-.179h.013q.146 0 .234.102.092.107.063.242-.03.136-.417.3v.02q.601-.155.548-.538-.046-.332-.52-.332zm.264-.1q.378 0 .426.466.049.465-.756.62.136.059.223.214.088.155.097.32-.04.012-.077.012-.08 0-.146-.056-.097-.083-.232-.412-.207-.563-.495-.563h-.106q.012-.073.055-.073.025 0 .061.025.022-.044.086-.044.047 0 .118.025-.136-.145-.136-.29h.017q.064 0 .09-.069.004.004.014.004.046 0 .204-.081.189-.097.557-.097zm-3.56.798q.056 0 .124.032.218.101.15.838-.552-.494-.46-.717.063-.153.186-.153zm3.216 1.006q.059 0 .13.048-.251.175-.232.882h-.126q-.01-.669.087-.833.057-.097.14-.097zm.896-1.726q.34.01.747.684.407.673.407 1.972h-.29q-.01-1.027-.893-1.027v1.027h-.193V5.565q.552-.417.222-1.212zm-.467 1.866q.025 0 .05.005v.998h.602v-.998q.02-.004.04-.004.309 0 .309 1.002-.107 2.647-.369 3.325l.223.485h-3.208l.669-.291q-.33-1.444-.737-2.128-.407-.683-.184-.838.056-.039.116-.039.18 0 .398.35l1.337 1.802h.34l.077-2.666q0-1.003.337-1.003zm.264-3.969q-.456.01-.732.315-.276.305-.276.683 0 .32.145.504.117.194.281.3h-.022q-.156 0-.346.127-.213.145-.194.194-.028-.022-.058-.022-.024 0-.048.012-.059.03-.049.116-.281.097-.281.601.124-.062.18-.062.014 0 .024.004.193 0 .523.776-.068.058-.184.223-.117.164-.117.571v.63h.243q-.01.534-.068 2.172l-1.347-1.842q-.282-.23-.445-.23-.056 0-.098.026l-.514-1.027q.359-.174.785-.204-.02-.261-.184-.465-.349.262-.678.398.213-.98-.228-1.173-.134-.059-.245-.059-.256 0-.395.31-.199.447.625 1.009-.368.174-.756.174.01.272.194.485.262-.271.688-.407l.34 1.182q-.107.04-.136.243-.03.203.363.93.393.727.635 1.784l-.707.397.048.456h4.149l-.34-.834q.291-1.28.3-3.315l.534-.01q0-1.715-.475-2.457-.425-.663-.648-.663-.026 0-.05.009.553-.29.582-.872 0-.417-.306-.698-.305-.281-.712-.291zm.602 10.684q-1.623 2.207-4.67 2.266-3.028-.06-4.651-2.266zm-10.328-.523q1.663 3.326 5.657 3.339 4.015-.013 5.678-3.339z"/><path d="M21.396.375v17.25m0-17.25h2.625m-2.625 17.25h2.625m0-17.25H61.8m-37.779 17.25H61.8m0-17.25h17.625M61.8 17.625h17.625M63.562.375v17.25M67.087.375v17.25M68.85.375v17.25M70.612 2.1h8.813m-8.813 3.45h8.813M70.612 2.1v3.45m1.763-1.725h7.05m-8.813 3.45h8.813m-8.813 3.45h8.813m-8.813-3.45v3.45M72.375 9h7.05m-8.813 3.45h8.813m-8.813 3.45h8.813m-8.813-3.45v3.45m1.763-1.725h7.05" fill="none" stroke="#000"/></svg>