<svg xmlns="http://www.w3.org/2000/svg" width="66.355" height="18"><path d="M13.659 2.25c.251 0 .502.02.746.05.335.084.163.469-.135.469a.357.357 0 0 1-.062-.006c-.629.073-1.404.113-1.88.47-.63.687-.346 2.115-.42 2.794-.005.036-.007 2.74-.007 4.109a4.609 4.609 0 0 1 2.867-.352c.33.174-.058.397-.318.397a.34.34 0 0 1-.085-.01c-.92.1-1.966.346-2.433 1.201-.046.155-.017.208.054.208.154 0 .51-.257.71-.257l.03.002a5.651 5.651 0 0 1 1.185-.126c.292 0 .582.023.86.072.316.208-.07.4-.328.4a.399.399 0 0 1-.078-.007c-.939.113-1.978.367-2.433 1.224-.005.953 0 1.582-.025 2.458.011.27-.164.404-.342.404-.176 0-.355-.132-.356-.394.007-.864.069-1.621-.045-2.459-.228-.939-1.858-1.083-2.87-1.315-.22-.26.214-.356.494-.356.042 0 .08.002.112.006.13-.01.26-.015.392-.015.661 0 1.328.131 1.917.435.024-.566-.533-.892-.933-1.12-.63-.27-1.324-.297-1.982-.443-.235-.204.135-.375.391-.375.034 0 .066.003.094.009.161-.016.323-.024.486-.024.676 0 1.353.138 1.96.437-.012-2.138-.047-4.208.015-6.23.049-.626.41-1.2 1.015-1.387.436-.198.92-.269 1.404-.269zm4.068 0c.697 0 1.309.513 1.309 1.171V15.75h-.852V3.421c0-.322-.284-.427-.463-.427-.187 0-.475.131-.475.527v8.103h-.852V3.521c0-.66.653-1.271 1.333-1.271zm7.493 0l-.013.001a15.506 15.506 0 0 1-1.122.037c-.081.005-.088.107-.06.165.168.474.313.956.45 1.44h-.02c-.135.003-.271 0-.404.013l-.007.01c-.008-.03-.029-.058-.06-.065a28.706 28.706 0 0 1-1.275-.923c-.01-.002-.021-.005-.032-.005h-.007c-.042.026-.057.084-.08.127-.073.197-.135.399-.216.593-.058.148-.123.294-.167.446.02.042.056.055.097.055.038 0 .08-.012.113-.022.515-.11 1.045-.1 1.57-.107-.053.115-.075.243-.122.36-.021.066-.047.134-.061.202a.092.092 0 0 0-.013 0l-.016.001c-.64.248-1.265.552-1.811.97a6.77 6.77 0 0 0-.75.652c-.004.096.104.127.176.154l.442.182c-.074.103-.093.236-.141.353-.248.726-.597 1.413-.888 2.122.001.058.056.087.109.087.02 0 .038-.004.055-.012.103-.019.206-.028.309-.03-.022.08-.03.165-.066.24-.174.555-.46 1.065-.674 1.604-.01.058.044.095.097.095a.1.1 0 0 0 .045-.01 6.45 6.45 0 0 1 .796-.092c-.03.074-.037.157-.06.234-.129.545-.317 1.082-.34 1.646-.005.367.04.733.098 1.095.1.595.28 1.174.512 1.73.002.051.049.083.094.083a.081.081 0 0 0 .073-.04c.034-.075.044-.16.07-.238.133-.481.229-.974.272-1.472.041-.43.058-.863.055-1.295-.018-.505-.138-.999-.216-1.497-.013-.075-.023-.152-.043-.226a7.034 7.034 0 0 1 .764.127c.081 0 .1-.107.063-.164-.217-.567-.438-1.134-.62-1.714l.026.005c.22.04.44.091.664.104.07-.058.02-.152-.015-.216-.268-.582-.488-1.193-.575-1.83-.029-.173-.028-.35-.058-.523.19.077.379.154.569.228.083-.02.087-.121.07-.19a2.105 2.105 0 0 1 .267-1.198c.178-.318.436-.58.698-.828.105.09.226.156.343.227l-.06.015c-.215.418-.397.852-.59 1.28-.026.06-.055.12-.063.184.032.052.086.063.143.063.035 0 .071-.004.103-.004h.006l.24-.006c-.026.083-.034.176-.06.259-.156.639-.309 1.279-.462 1.919.019.068.087.082.151.082a.648.648 0 0 0 .054-.003l.397-.014c-.036.105-.053.218-.088.323-.172.628-.347 1.257-.514 1.886.018.07.088.085.154.085a677.2 677.2 0 0 1 .691-.021.867.867 0 0 0-.024.103c-.132.577-.336 1.144-.366 1.74-.002.54.078 1.077.201 1.602.102.423.246.836.41 1.239.007.046.05.077.093.077.025 0 .05-.01.065-.035.036-.062.042-.137.067-.205a8.4 8.4 0 0 0 .314-1.902c.021-.343.034-.687.018-1.03-.035-.492-.147-.974-.225-1.46-.01-.048-.017-.097-.03-.145.221-.007.443-.014.664-.023.079-.06.035-.167.013-.245-.188-.674-.375-1.349-.567-2.021.185-.007.37-.014.554-.023.078-.06.034-.166.01-.243l-.583-1.969.595-.016c.075-.05.038-.15.003-.214-.176-.4-.35-.801-.533-1.199.132-.054.262-.11.39-.171.354.33.662.728.804 1.196.082.278.087.573.059.86.015.044.054.061.095.061a.2.2 0 0 0 .1-.03l.444-.182-.004.004a5.206 5.206 0 0 1-.348 1.696c-.097.265-.219.52-.325.78-.007.057.046.091.098.091a.102.102 0 0 0 .05-.013c.196-.029.39-.067.585-.105-.039.108-.066.221-.11.327-.165.486-.353.965-.534 1.445-.013.057.038.107.091.107a.08.08 0 0 0 .041-.011 5.81 5.81 0 0 1 .717-.116.57.57 0 0 0-.012.066c-.08.447-.167.892-.224 1.342a4.98 4.98 0 0 0-.017.846c.025.713.097 1.429.288 2.118.032.117.063.236.101.351.015.03.045.044.076.044.038 0 .075-.021.084-.062a7.92 7.92 0 0 0 .565-2.05c.05-.41.083-.828.004-1.236-.079-.434-.207-.857-.31-1.285-.017-.05-.026-.104-.043-.153.123.003.247.011.37.027.17.018.34.054.511.069.073-.02.067-.116.03-.166-.239-.577-.55-1.13-.704-1.738L27.83 9.1c.03 0 .058 0 .087.002.109.008.217.03.326.039.077-.034.058-.134.022-.192-.318-.723-.663-1.437-.909-2.19-.022-.058-.04-.124-.073-.176l-.006-.003c.2-.083.398-.166.595-.252.047-.08-.031-.156-.09-.201-.506-.462-1.063-.874-1.682-1.171a6.493 6.493 0 0 0-.717-.3c-.017-.055-.043-.11-.056-.163-.063-.181-.116-.368-.197-.542a.252.252 0 0 0 .053.004l.06-.001h.152c.46 0 .921.015 1.37.118.013.006.03.009.046.009.046 0 .093-.023.084-.074-.087-.273-.21-.534-.3-.807-.04-.112-.079-.225-.128-.332a.113.113 0 0 0-.06-.008c-.421.308-.835.628-1.27.916-.046.023-.105.07-.073.127v.001a.848.848 0 0 0-.157-.012l-.16.002a1.243 1.243 0 0 1-.068-.001h-.036a.077.077 0 0 0 .004-.029c.17-.508.34-1.022.632-1.476.035-.046.01-.127-.047-.137a.065.065 0 0 0-.012-.001zm7.373.444c-.69 0-1.246.553-1.25 1.244v.007c0 .693.557 1.251 1.25 1.251.694 0 1.251-.558 1.251-1.251 0-.693-.557-1.251-1.25-1.251zm1.612 3.591c-.047.077-.114.144-.05.144a.306.306 0 0 0 .07-.012.289.289 0 0 0 .086.025c.053 0-.068-.102-.106-.157zm-1.103-.27c.288 0 .406.414.19.59a.258.258 0 0 1-.186.075c-.144 0-.291-.11-.31-.265-.04-.187.098-.4.298-.4a.283.283 0 0 1 .008 0zm-.085-.247c-.033 0-.066 0-.098.002-.243.02-.51.125-.64.342-.053.291-.042.634.187.855.156.193.458.25.518.516.023.129-.053.337.089.337.018 0 .04-.003.066-.01.2-.295.38-.609.629-.866-.124-.132-.262-.339-.106-.502.105-.144.356-.38.032-.397-.14-.232-.424-.277-.677-.277zm-1.353.348c-.436.388-.583.986-.685 1.538-.042.247-.065.498-.09.747.223-.237.528-.463.861-.463a.725.725 0 0 1 .176.021c.202 0 .31.369.339.384l.11-.666c-.43-.149-.624-.611-.686-1.029a2.388 2.388 0 0 1-.025-.532zm.046 2.49a.724.724 0 0 0-.414.237c-.181.733-.117 1.494-.104 2.24-.012.27.03.55.016.826-.004 1.045-.216 2.078-.185 3.124l4.995.012-.643-1.316c.313-.742.702-1.452 1-2.202.127-.344.287-.696.286-1.07-.015-.115-.067-.157-.134-.157-.12 0-.288.136-.368.222-.625.602-1.132 1.314-1.632 2.02-.465.676-.91 1.367-1.286 2.096.026-1.617.107-3.24-.097-4.85-.03-.352-.18-.678-.343-.987l-.018 2.25h-1.03c.01-.815.031-1.632-.043-2.444zm.883-6.356c.934 0 1.695.761 1.695 1.695a1.7 1.7 0 0 1-.751 1.406c.083.026.165.055.245.09.122.057.245.122.303.25.063.101.118.206.243.24.344.252.466.734.379 1.138a.066.066 0 0 1-.036.01c-.103 0-.279-.177-.352-.177a.033.033 0 0 0-.014.003c-.051.233-.218.408-.31.622a3.747 3.747 0 0 1-.627.832c.236.423.433.877.474 1.365.115.845.134 1.7.134 2.553.644-.882 1.305-1.764 2.107-2.51a.886.886 0 0 1 .572-.223.6.6 0 0 1 .404.145c.289.287.246.73.17 1.094-.214.926-.62 1.792-.982 2.666-.05.192-.262.402-.093.585.209.336.504.616.694.962.101.238.088.504.056.754l-6.489-.016c-.084-.846-.084-1.7.005-2.546.041-.746.056-1.492.087-2.239l-.439-.039c.094-1.1.127-2.208.33-3.295.128-.606.277-1.234.653-1.74.18-.215.412-.375.666-.487a1.693 1.693 0 0 1-.819-1.443v-.012a1.697 1.697 0 0 1 1.695-1.683zm11.97.293c.024 0 .049.003.075.01.143.04.185.159.124.358L43.72 5.607h-.508l1.107-2.852c.057-.141.138-.212.244-.212zm.86.217c.03 0 .061.005.094.015.165.048.195.171.091.37l-.95 2.462h-.508l1.002-2.617c.063-.153.153-.23.271-.23zm-2.571 3.976c-.08 0-.173.014-.278.043v.13a.933.933 0 0 1 .28-.05.51.51 0 0 1 .196.037c.125.052.293.087.5.104l-.064-.065c-.191-.07-.343-.126-.456-.17a.494.494 0 0 0-.178-.029zm.1.29l.234.078a1.728 1.728 0 0 1-.234.078c.052-.043.052-.095 0-.156zm-.195 0c-.026.052-.018.109.026.17a.807.807 0 0 1-.157-.053c.01-.043.053-.082.13-.117zm.065-.091c-.113 0-.191.043-.235.13l-.117.065-.013.065.117.026c.064.04.14.059.23.059.13 0 .288-.041.473-.124h.287v-.09h-.3c-.182-.088-.33-.131-.442-.131zm2.357-1.08l-.886 1.627c-.058.08-.112.121-.162.121a.109.109 0 0 1-.072-.03l-.287-.182c.018-.061.087-.152.209-.274.121-.121.147-.267.078-.436-.04-.096-.115-.144-.226-.144a.834.834 0 0 0-.321.085c-.278-.166-.522-.25-.735-.25l-.06.003a2.686 2.686 0 0 0-.09-.52zm-2.498.74c.222 0 .512.097.87.288.078-.087.156-.13.234-.13.078 0 .12.039.124.117.004.078-.065.18-.208.306-.144.126-.21.232-.202.319l.039.013a.64.64 0 0 1-.26.449c-.148.109-.348.167-.6.176a.936.936 0 0 1-.049.001c-.13 0-.187-.033-.172-.099a.206.206 0 0 0-.039-.189l.074.002c.244 0 .308-.042.193-.125-.085-.062-.154-.093-.205-.093a.093.093 0 0 0-.062.021c.035-.13-.035-.2-.208-.208.19-.321.338-.604.442-.847h.03zm.935.965l.378.234c.026.4.108.677.247.834a1.596 1.596 0 0 0-.21-.015c-.05 0-.097.003-.142.008a.546.546 0 0 0-.299.15 2.489 2.489 0 0 0-.326-.664c.226-.165.343-.347.352-.547zm-3.57-1.112c.086 0 .156.05.21.148.079.148.014.265-.195.352-.208.113-.277.295-.208.547l.3 1.328a.848.848 0 0 0-.547.312V7.482c0-.547.073-.864.221-.95a.404.404 0 0 1 .22-.084zm-.322 3.882c.19 0 .367.092.533.277-.313.008-.521.108-.625.3-.087-.218-.196-.34-.326-.365-.13-.026-.06-.085.208-.176a.652.652 0 0 1 .21-.036zm4.4-1.416c.338 0 .551.191.638.573.121.53.139 1.354.052 2.474a39.963 39.963 0 0 1-.365 3.19l.157.234h-4.323l.898-.364c-.26-1.276-.586-2.212-.976-2.806-.391-.595-.456-.979-.196-1.152a.443.443 0 0 1 .247-.083c.176 0 .35.127.521.382l1.758 2.5.313-.026c.19-1.944.395-3.394.612-4.349.104-.382.325-.573.664-.573zM44.5 2.25c-.25 0-.42.147-.506.44l-1.12 2.917h-.56c.104.347.156.655.156.924-.06.243-.176.486-.345.73-.163.234-.13.351.099.351h.025c-.06.087-.052.139.026.156-.07.035-.078.072-.026.11.052.04.074.125.065.255-.026.382-.128.692-.306.93-.146.197-.28.295-.399.295a.216.216 0 0 1-.076-.014.459.459 0 0 0-.155-.035c-.051 0-.086.018-.106.054-.034.065.011.133.137.202a.324.324 0 0 0 .159.037c.11 0 .249-.04.414-.122.256-.125.488-.514.697-1.165h.364c.113.104.2.256.26.456-.312 1.007-.568 2.482-.768 4.427l-1.758-2.474a1.217 1.217 0 0 0-.364-.365c-.118-.166-.308-.25-.57-.25-.067 0-.137.006-.211.016v-.43c0-.06.039-.147.117-.26.139-.191.382-.334.729-.43l-.365-1.55c-.034-.12.04-.242.222-.364.243-.165.29-.369.143-.612-.114-.207-.257-.31-.43-.31a.728.728 0 0 0-.39.14c-.235.157-.352.613-.352 1.368v2.448c-.503.27-.644.451-.423.547.205.088.371.244.498.467.063.43.24.89.53 1.382.309.52.589 1.285.84 2.292l-.99.43.066.507h5.56l-.573-.677c.278-2.7.375-4.425.293-5.176-.083-.75-.271-1.165-.567-1.243-.208-.209-.29-.434-.247-.677l.326-.586c.512.373.768.876.768 1.51v6.849h.286V8.901c0-.755-.308-1.345-.924-1.77l.846-1.524h-.599l.925-2.396c.13-.33.071-.543-.176-.638a.927.927 0 0 0-.333-.069.618.618 0 0 0-.312.082c-.06-.191-.236-.302-.527-.332a.705.705 0 0 0-.073-.004zm9.915.2q.094 0 .153.114.093.148-.139.25-.222.11-.148.379l.213.916q-.222.028-.389.222V3.184q0-.583.158-.676.085-.058.152-.058zm-.522 2.079v.344l-.76-.08q.02-.092.288-.19.195-.07.472-.074zm.332.02q.334.07.5.411l-.601-.063v-.131q0-.065.083-.194l.018-.022zm.99.383q-.05 0-.147.167.24-.083.176-.148-.012-.019-.029-.019zm-2.127.482q-.028.055-.024.088.005.032.051.05-.055 0-.101-.027.009-.056.074-.111zm.083-.019q.083.01.148.046-.037.065-.12.111.037-.046.032-.092-.005-.046-.06-.065zm-.037-.037q-.13 0-.176.194.083.056.204.056.12 0 .203-.139h.222v-.074l-.222.019q-.102-.056-.231-.056zm-2.23-.25q.555 0 0 1.027-.555-1.027 0-1.027zm4.322-.234q.036 0 .064.03.102.12-.176.25.287.435.296 1.037l-.074.01q0-.612-.24-1.01l-.019.01q.176.388.185 1.286l-.083.01q-.056-.898-.102-1.111l-.083-.306q.14-.206.232-.206zm-1.964.288q.09 0 .168.025.185.06.185.254h.13q.027-.175.11-.175.084 0 .028.175l-.259.408v.87l-.027.009q-.037-.065-.088-.167-.051-.102-.07-.268h-.277q-.158 0-.158-.074 0-.14.148-.158 0-.074-.046-.074l-.185-.009q.056-.13-.111-.167 0-.074.148-.333v-.157l.028.037q.12-.055.185-.065.074 0 .222.065h.167v-.065h-.167q-.13-.083-.222-.083-.102 0-.213.083 0-.074.028-.083.15-.048.276-.048zm-.202-.23l.833.09v.077h.231v-.053l.666.071q.01.047.093.306.12.36.102 2.545l-1.166.009v-2.1q.064-.093.166-.26.102-.166.097-.356-.004-.159-.153-.159-.03 0-.064.006-.148 0-.185.185-.01-.148-.167-.217-.071-.032-.185-.032-.136 0-.333.046.01-.093.065-.158zm-2.168 2.984q.372 0 .447.255h-.352q-.287-.028-.287-.24.104-.015.192-.015zm2.732-.8v1.055h1q-.01.574-.107 1.379t-.245 1.365q-.148.56.194.911h-2.73q.093-.102.126-.342.032-.24-.209-.814l-.694-2.101q.006-.307.165-.307.1 0 .261.122l.944 1.397.351.444q.093.065.165.065.144 0 .206-.259.333-.759.25-1.86-.324-.342.323-1.055zm.8-4.866q-.125 0-.281.1-.25.167-.25.982v1.006q-.257.013-.435.053-.269.06-.44.26-.171.198-.171.55-.037.148-.01.277-.157.278-.157.38 0 .055.14.055l-.029.084q.019.046.056.055-.028.037-.018.083l.064.028q-.055.25.213.25h.194q.019.176.213.472-.009.018-.18.231-.171.213-.338.514-.166.3.074.587.065.935-.287 1.73l-1.221-1.776q-.136-.444-.477-.444h-.014V6.431h.657V6.21h-.657q.667-1.286-.166-1.286-.824 0-.167 1.286h-.648v.222h.639v1.296q-.518 0-.102.657.981 2.943.953 3.137-.027.203-.273.352-.245.148-.125.277h3.683q.185-.083 0-.259-.49-.583-.314-1.12.175-.536.305-2.6h.342v-.61q0-.556-.009-.954.074-.009.167-.046l-.019-.278.167-.009q0-.685-.296-1.082.324-.13.148-.334-.069-.083-.143-.083-.116 0-.246.204-.241-.456-.537-.591.124-.07.296-.122l-.259-1.101q-.037-.13.158-.25.259-.185.101-.444-.116-.221-.3-.221zm1.982 11.437q-.218.219-.218.801 0 .595.218.813h-7.208q.219-.218.219-.813 0-.582-.219-.8zm-8.603-.449q-.315 0-.303.207-.012.242.303.242h.789q.29.219.29.801 0 .595-.29.813h-.777q-.327 0-.327.206 0 .243.315.243h9.998q.304 0 .304-.243 0-.206-.316-.206h-.776q-.292-.218-.292-.813 0-.582.292-.8h.788q.304 0 .304-.243 0-.207-.304-.207z"/><path d="M8.22.375c-9.625 0-9.625 17.25 0 17.25m0-17.25h49.885M8.22 17.625h49.885M65.792.375v17.25M58.105.375c9.625 0 9.625 17.25 0 17.25" fill="none" stroke="#000"/></svg>