<svg xmlns="http://www.w3.org/2000/svg" width="134.051" height="18"><path d="M6.174.386c.221 0 .566.052.757.104.832.223-.005.968-.54.968a.513.513 0 0 1-.073-.005c-.353.074.06.199.502.199.272 0 .555-.047.681-.18.072-.077.131-.108.182-.108.185 0 .258.417.406.623.74.245 1.203.913 1.682 1.486 1.377 1.65 2.617 3.405 3.917 5.115-.357-.105-.743-.31-1.097-.48-1.62-.783-3.347-1.401-4.814-2.455-.732-.525-1.712-1.134-1.793-2.056-.061-.702 1.227-1.337 1.134-1.717-.011-.044-.043-.064-.09-.064-.274 0-1.077.688-1.288 1.09-.081.155-.14.217-.182.217-.146 0-.077-.757.014-.93.31-.589-.628-1.325-.1-1.664-.016.088.002.337.312.337.325 0 .305-.4.205-.453a.435.435 0 0 1 .185-.027zm.616 5.477c.254.9.626 1.766 1.065 2.59.217.405 1.13 1.049.485 1.377a.194.194 0 0 1-.052.007c-.257 0-.519-.495-.855-.517a12.843 12.843 0 0 0-.265-1.873c-.103-.505-.36-1.176-.378-1.584zm.705.597c.795.576 1.63 1.093 2.472 1.6.222.497.034 1.222.149 1.805-.538-.363-1.112-.378-1.457-1.066-.385-.766-1.019-1.494-1.164-2.34zm.226 3.6c.134.235.335.383.538.383.16 0 .32-.091.45-.304.186.205.23.926.23 1.325.002.411-.214.446-.465.446l-.155-.002a.93.93 0 0 0-.278.032.453.453 0 0 1-.138.02c-.197 0-.423-.095-.636-.095-.02 0-.04 0-.06.002.001-.52.36-1.225.514-1.808zm1.603-2.968c1.69.766 3.36 1.59 5.054 2.351.648.679 1.239 1.448 1.96 2.049.538.45-.155.358-.474.418-.244.046-.492.08-.738.116-.87-.87-1.745-1.738-2.58-2.641-.909-.982-2.145-1.538-3.222-2.293zm-.512 5.693c1.105 0 2.211.013 3.316.042.556.014 1.197-.023 1.695.164-.658.042-2.304.058-4.042.058a201.337 201.337 0 0 1-5.037-.05c-.51 0-.097-.173.188-.173a.55.55 0 0 1 .076.005c1.267-.03 2.535-.046 3.804-.046zm-4.862.743c.75.01 1.5.02 2.25.045.495.017.989.023 1.483.023 1.398 0 2.796-.05 4.192-.05.188 0 .375.001.562.003-1.161.634-2.421 1.17-3.766 1.214-.152.005-.3.008-.445.008-.76 0-1.443-.08-2.196-.351-.656-.236-1.506-.523-2.08-.892zm6.649 1.558a.144.144 0 0 0-.078.02c-.256.16.368 1.331.895 1.613.04.021.078.03.115.03.192 0 .33-.259.247-.445-.214-.48-.87-1.218-1.18-1.218zm-4.848.055c-.042 0-.105.026-.194.086-.432.29-1.443 1.067-.823 1.496a.22.22 0 0 0 .129.042c.224 0 .442-.354.556-.556.12-.21.574-1.068.332-1.068zm4.06.177c-.274 0 .026 1.476.502 1.79.031.022.07.031.109.031.106 0 .222-.069.242-.173.123-.637-.473-1.61-.846-1.647a.08.08 0 0 0-.008 0zm-3.278.017c-.05 0-.13.062-.244.216-.302.408-1.043 1.256-.436 1.571.04.021.078.03.114.03.254 0 .4-.478.49-.72.081-.222.268-1.097.076-1.097zm2.271.162c-.023 0-.043.012-.06.037-.245.368-.164 1.491.42 1.817a.196.196 0 0 0 .097.026c.172 0 .306-.25.276-.423-.07-.41-.517-1.457-.733-1.457zm-1.329-.011a.1.1 0 0 0-.058.023c-.391.291-1.017 1.466-.379 1.845.035.02.068.03.101.03.191 0 .35-.31.375-.504.04-.334.162-1.394-.039-1.394zm.655-.018a.08.08 0 0 0-.038.01c-.324.174-.62 1.573-.014 1.945a.175.175 0 0 0 .092.028c.164 0 .306-.252.306-.421-.002-.46-.123-1.562-.346-1.562zM6.352 0c-.205 0-.408.02-.598.054-.567.104-1.44.31-1.43.996a.711.711 0 0 1 .192-.028c.55 0 .663.789.553 1.27-.225.98.26 1.965.898 2.707.425 1.269.96 2.595.954 3.928-.003.556.408.592.256 1.158-.136.51-.373 1.566-.883 1.69a2.18 2.18 0 0 1-.182.007c-.323 0-.663-.056-.984-.056-.254 0-.497.036-.71.162-.444.264-.778.46-1.31.46l-.071-.001-.078-.002c-.895 0-1.953.472-2.118 1.411-.244 1.391-.044 2.827-.036 4.233.205.005.412.011.618.011.163 0 .325-.004.487-.016-.076-.844-.133-1.694-.079-2.539.039-.601-.113-1.44.465-1.781a.738.738 0 0 1 .383-.107c.506 0 1.005.499 1.472.712 1.306.596 2.697 1.036 4.147 1.036h.1c1.756-.025 3.375-.751 4.878-1.576a.616.616 0 0 1 .41-.148c.28 0 .562.17.622.463.262 1.292.154 2.632.067 3.94.157.012.315.015.473.015.156 0 .313-.003.47-.003.052 0 .105 0 .158.002.008-.911.089-1.823.047-2.733-.033-.721.107-1.55-.417-2.143-.68-.771-1.763-.76-2.704-.825a1.712 1.712 0 0 0-.117-.004c-.125 0-.257.01-.386.01a.973.973 0 0 1-.439-.08c-.294-.302-.66-.36-1.04-.36-.228 0-.462.021-.689.021a2.75 2.75 0 0 1-.22-.008c-.043-.588-.075-1.177-.107-1.766a.155.155 0 0 1 .111-.045c.294 0 .78.686 1.034.686.076 0 .13-.06.154-.217.094-.642-.155-1.343-.146-2.018h.016c.285 0 .766.368 1.053.617.898.779 1.67 1.717 2.513 2.566.334.38.681.803 1.163.803.13 0 .269-.031.42-.101.48-.223 1.5.065 1.609-.544-.462-.54-.994-1.018-1.47-1.547.58.274 1.144.678 1.747.941a.77.77 0 0 0 .24.078c.18 0-.489-.521-.668-.602-.665-.3.624-.188.098-.605-1.155-.915-2.466-1.648-3.699-2.473-.79-.998-1.506-2.067-2.3-3.068-.66-.774-1.221-1.636-1.941-2.356C8.895 1.783 8.245 1.66 8.2.937 7.858.252 7.09 0 6.352 0zm16.831.46q-.11 1.162-.11 2.603 0 1.442.14 2.914-.32-.17-1.001-.17-.69 0-1.001.17.15-1.472.14-2.914-.01-1.441-.11-2.602zm-.971 5.967q.68.01 1.381.36l-.18.33q-.141-.024-.265-.024-.426 0-.636.295-.12-.53-.3-.65-.18.12-.31.65-.21-.295-.636-.295-.124 0-.265.025l-.18-.33q.72-.35 1.39-.36zm0 .961q.15.12.1.35-.05.23-.1.441-.06-.21-.11-.44t.11-.35zm.912.002q.056 0 .119.008-.68 1.622-1.031 1.622-.34 0-1.051-1.622.064-.008.122-.008.365 0 .468.329.13.37.27.6.15.24.19.24.051 0 .181-.24.14-.23.26-.6.113-.329.472-.329zM20.65 0q.48 3.404-.01 6.137-.89.42-.74.71.11.22.251.22.052 0 .109-.03.87.982 1.431 2.313.22 2.193-.06 7.579 0 1.071.56 1.071h.031q.56 0 .56-1.071-.27-5.386-.06-7.579.551-1.331 1.422-2.312.056.03.109.03.142 0 .251-.22.15-.29-.73-.711-.5-2.733 0-6.137zm10.646 0q-1.948.045-3.225 1.41-1.41 1.546-1.545 3.091 0 .359.403.359h18.722q.403 0 .403-.426 0-.425-.403-.425H27.534q1.12-2.867 3.359-3.18H45.65q.403 0 .403-.426 0-.403-.403-.403zm11.701 11.43c.942.04 1.458.06 1.68.06h.102l-.122 4.92c-.81-.334-1.306-.668-1.872-1.113l.212-3.868zM29.27 10.203c-.314.061-.73.253-.679.628v2.744a52.47 52.47 0 0 0-1.417-.061c0 .344.284.81 1.164.81.01.78.152 1.731.294 2.217l.121 1.276c0 .142.243.182.507.182.313 0 .658-.06.658-.06l-.05-1.276c5 .04 14.537.293 15.013.293.243 0 .405-.263.405-.627l.122-5.498-3.007-.03-.243 4.282c-2.177.01-5.943.365-8.504.365-.81 0-1.509-.03-1.985-.132-.101-.111-1.043-1.478-1.64-1.63a2.64 2.64 0 0 0-.354-.04c-.102-.83-.203-1.66-.294-2.48.182-.234.597-.173.709-.487.111-.152.04-.405-.172-.415-.122-.05-.456-.06-.598-.06zM51.362.46c.9 0 1.7.414 2.223 1.064h-4.446A2.842 2.842 0 0 1 51.362.46zm2.523 1.523c.172.327.282.69.315 1.077h-5.677c.034-.386.144-.75.315-1.077zm.318 1.536c-.028.386-.133.75-.299 1.077H48.82a2.834 2.834 0 0 1-.298-1.077zm-.59 1.536a2.843 2.843 0 0 1-2.251 1.102c-.917 0-1.73-.431-2.252-1.102zM51.362 0a3.312 3.312 0 0 0-3.308 3.308 3.312 3.312 0 0 0 3.308 3.308 3.312 3.312 0 0 0 3.308-3.308A3.313 3.313 0 0 0 51.362 0zm9.751 1.061v4.882h-3.275V1.06zM57.165.373v6.243h4.637V.373zm-9.111 7.754v3.39h13.748v-3.39H48.054m13.182.565v2.26H48.62v-2.26h12.617zm-.056 4.98q.203.24.203 1.184 0 .813-.25 1.387-.563-.574-.587-1.387.012-.944.634-1.184zm-1.519-.153q.583 0 .706.213-.072.61-.49.897-.24.227 0 .502.418.323.502.992 0 .335-1.088.335t-3.263-.168q-.742-.083-1.662-.884-1.064-.813-1.865-.968h-.012q-.38 0-1.016.729-.646.741-1.243 1.972h-1.172q.108-.263 1.644-1.757 1.5-1.46 1.786-1.46l.013.001q.8.204 1.339.628.31.245.633.245.236 0 .479-.131 1.984-.753 3.592-1.028.685-.118 1.117-.118zm1.273-.49q-.224 0-.543.082-2.188.035-4.363.681-.61.203-1.578.622-1.017-.742-1.949-.885h-.01q-.29 0-.988.657-.712.67-2.242 2.212-.884.92-1.207 1.578V18h1.877v-.574h.586q.657-1.518 1.207-2.092.471-.492.705-.492.04 0 .072.014.849.263 1.375.705.526.443 1.171.825.646.383 1.901.436.753.033 1.85.033.732 0 1.617-.015.278.07.482.07.357 0 .486-.213.419-1.028.419-1.841 0-.956-.419-1.65-.12-.178-.45-.178zM70.709.644q.856 0 1.563.427 1.436.834 2.722.834 1.294 0 2.374-.111v2.222q-1.342-.238-1.937-.238h-.016q-.484 0-1.35.111-3.516.484-4.381.484-1.437 0-2.707-.047-2.175-.127-2.39-.23-.206-.096-.206-.548 0-.445.12-.778.118-.333.396-.476 6.795-.302 7.327-.35-.473-.683-1.467-.683-.323 0-.7.072-1.266.25-1.952.25-.144 0-.263-.012-.675-.063-.627-.643.379.051.783.051.848 0 1.805-.225.472-.11.906-.11zM70.91 0q-.344 0-.68.087-1.357.357-2.389.373-.254 0-.913-.127-.31.286-.31.675 0 .389.247.659-2.596.095-2.596.31-.468.594-.468 1.428 0 .826.436 1.127 1.318.42 5.295.42.635 0 1.294-.063 3.683-.547 4.39-.563l.07-.001q.725 0 2.66.302V1.12l-.015.016q-1.66.19-2.707.214l-.108.002q-.997 0-2.052-.558Q71.95 0 70.911 0zm-.035 7.274q2.49 0 5.283 1.204-2.792 1.17-5.283 1.17-2.475 0-5.284-1.17 2.809-1.204 5.284-1.204zm0-.77q-3.077 0-7.073 1.957 3.996 1.94 7.073 1.94 3.076 0 7.072-1.94-3.98-1.956-7.072-1.956zm5.203 6.398c.73.032 1.131.048 1.304.048h.078l-.094 3.817a5.6 5.6 0 0 1-1.453-.864l.165-3zm-10.65-.95c-.244.047-.566.196-.527.487v2.129a40.707 40.707 0 0 0-1.1-.048c0 .268.22.629.904.629.008.605.118 1.343.228 1.72l.094.99c0 .11.188.141.393.141.243 0 .51-.047.51-.047l-.04-.99c3.881.032 11.28.228 11.649.228.188 0 .314-.204.314-.487l.094-4.265-2.332-.023-.189 3.322c-1.689.008-4.61.283-6.598.283-.628 0-1.17-.024-1.539-.102-.079-.087-.809-1.147-1.272-1.265a2.037 2.037 0 0 0-.275-.031c-.079-.644-.157-1.289-.228-1.925.141-.18.463-.133.55-.377.086-.118.031-.314-.134-.322-.094-.039-.353-.047-.463-.047zM88.77.96q3.107 0 6.59 1.501-3.483 1.46-6.59 1.46-3.087 0-6.59-1.46Q85.682.96 88.77.96zm0-.96q-3.838 0-8.823 2.44 4.985 2.42 8.823 2.42 3.837 0 8.822-2.42Q92.628 0 88.77 0zm2.484 10.198q.227 0 .471.104.547.231.547 3.677v3.298h-6.189q2.39-3.279 3.28-4.956.889-1.677 1.352-1.964.257-.159.539-.159zm-.263-.703h-.1q-.88.02-1.982 2.15-1.103 2.13-4.364 6.355h8.45l-.02-4.743q-.092-3.168-.648-3.474-.524-.288-1.336-.288zm10.677-8.371q2.014.293 2.105 1.842v11.177q-.941-1.124-3.381-1.58l1.276-11.44zM101.1 0l-1.509 13.363q3.361.385 4.181 2.4V18h1.003V2.966q0-2.51-3.675-2.966zm7.75 1.124q2.015.293 2.107 1.842v11.177q-.942-1.124-3.382-1.58l1.276-11.44zM108.285 0l-1.508 13.363q3.36.385 4.18 2.4V18h1.003V2.966q0-2.51-3.675-2.966zm7.286 0v7.32h1.225V0zm-1.612 10.68V18h1.225v-7.32zm3.225 0V18h1.225v-7.32zm5.64-10.24q.224 0 .434.137.546.357.574 1.182.014.433-.042.433-.051 0-.161-.356-.23-.748-.643-.846-.046-.011-.09-.011-.359 0-.645.696-.419.34-.61.34-.147 0-.159-.2-.028-.462.602-1.028.386-.348.74-.348zm.096 1.16q.023 0 .052.026.105.09.147.252.041.16.013.272-.011.047-.026.047-.02 0-.043-.089-.026-.094-.046-.094-.013 0-.024.038-.013.046-.034.046-.024 0-.057-.06-.063-.111-.063-.265.02-.172.08-.172zm.197.688q.043 0 .043.044 0 .07-.07.07t-.041-.098q.042-.016.068-.016zm-.231-.866q-.094 0-.152.155-.063.168.014.399.077.23.217.23-.042.154.02.238.033.044.082.044.044 0 .1-.037.12-.077.084-.385-.035-.307-.14-.468-.104-.16-.21-.175h-.015zm-.299.98l-.112.154q-.377.168-.496.378-.12.21.007.461l.07-.014q.098-.378.49-.77l.125-.18-.084-.029zm-1.273.294q.266.601.518 1.412.105.14.18.14.045 0 .079-.049.09-.133.174-.133.014.098.077.133.029.016.053.016.03 0 .052-.023.024-.036.04-.036.022 0 .03.064.014.112.119.112t.266.091q.058.033.113.033.098 0 .187-.103.14-.16.336-.524l.182-.196q.363.182.391.293-.056.518 0 1.05.084.685.392 1.02.196.546.322.98-1.3-.574-2.951-.938 0-.433-.378-.81-.238-.728-.545-1.497-.084-.951.363-1.035zM122 6.598q1.608.727 2.74 1.007-.554-.058-1.332-.058-.556 0-1.226.03-.028-.644-.182-.98zm.937-5.28q.144 0 .258.224.161.315.224.664.063.35.322.497.092.052.185.052.168 0 .34-.171.3-.099.636-.099.473 0 1.014.197 1.818 1.426 3.943 1.874 1.525.447 1.231 1.342-.014.546-.923 1.637-.783.923-.923 1.734-.203.193-.432.193-.103 0-.211-.04-.322-.013-.392-.153.084-.91.937-2.448.364-.405-.336-.839-.88-.657-2.419-.88l-1.468-.057q-.392-.196-.448-.615.042-.755-.028-.937-.182-.098-.594-.168-.056-.01-.108-.01-.332 0-.508.388-.14.311-.312.311-.075 0-.156-.06.062-.284-.03-.284-.012 0-.026.005-.126.042-.28.196-.062-.1-.143-.1-.102 0-.234.155l-.252-.783q.028-.363.685-.74.037-.081-.014-.081-.065 0-.273.13-.37.23-.51.537-.084-.377 0-.503t.727-.503q.023.005.042.005.127 0 .133-.236.007-.273.224-.399.062-.036.12-.036zM122.911 0q-.329 0-.68.227-.595.385-.959 1.056-.153.392-.14.728-.964.895-.643 1.692.308.937.42 1.244l.154.602q-.35.224-.252.58.098.357.503.44l.07.532q-.307.028-.363.406-.056.377.461.629.266.503.196.881.124.247.281.247.128 0 .278-.163.056-.462.084-.937.724.196 1.496.196.825 0 1.707-.224.447-.154.252-.657-.154-1.077-.462-1.944l1.035.07q1.944.251 2.21 1.007 0 .098-.49 1.097-.49 1-.49 1.63-.027.447.588.727.546.238 1.734.573l2.028.546q.406.223.811.755.478.793.877.793.045 0 .088-.01.014-.07-.028-.392-.042-.321-.328-.594-.287-.273-.33-.734-.141-.578-.547-.578-.193 0-.445.13-1.37-.909-2.28-1.132l.644.028h.174q2.306 0 2.44.363.35.476.434.727.196.434.602.546.028-.21-.014-.546-.196-.447-.308-1.342-.062-.399-.49-.399-.246 0-.615.133-.126 0-.461-.098-1.257-.463-2-.463-.043 0-.084.002 1.245-1.273 1.594-2.713.028-1.021-1.468-1.44-.811-.239-1.315-.42-1.23-.42-2.867-1.525-.503-.279-1.002-.279-.402 0-.802.181.084-.713-.112-1.244-.21-.56-.74-.825Q123.138 0 122.91 0zm-1.269 16.125q-.078 0-.151.024-.288.093-.254.279.029.157.257.157.042 0 .09-.005.313-.034.55-.254-.265-.2-.492-.2zm.147-.17q.61 0 1.883.726.638.331 1.4.331.367 0 .763-.077.998-.203 2.097-.355.373-.052.723-.052.68 0 1.271.196.896.296 1.488.38.592.085 1.877.152-.829.085-1.623.085-.795 0-1.877-.178-.54-.089-1.042-.089-.5 0-.961.09-.921.177-2.096.329-.294.038-.578.038-.85 0-1.611-.342-.74-.505-1.535-.505-.351 0-.714.099-.321-.017-.287-.355.186-.457.794-.474h.028zm.452-1.725q-.366 0-.683 1.116-.264-.986-.683-.986-.062 0-.128.022-.507.322.338 1.234-.676.39-.676.98 0 .593.997.66.309-.08.603-.08.689 0 1.3.444.521.38 1.655.38.756 0 1.784-.17 1.263-.354 2.454-.354.452 0 .894.05 1.104.129 1.88.129.353 0 .638-.027 1.437-.034 1.437-.27-.389-.355-1.099-.474-1.504-.017-2.747-.524-.62-.253-1.523-.253-.902 0-2.086.253-.763.193-1.42.193-.902 0-1.606-.362-.727-.44-1.538-.727.676-.524.634-.87-.043-.347-.414-.364h-.011z"/></svg>