<svg xmlns="http://www.w3.org/2000/svg" width="52.773" height="18"><path d="M9.704 2.523q-.129 0-.21.155-.126.201.19.34.303.152.202.518l-.29 1.249q.302.038.53.303V3.523q0-.795-.215-.921-.116-.08-.207-.08zm.712 2.834v.47l1.034-.108q-.025-.127-.39-.26-.267-.096-.644-.102zm-.453.029q-.456.094-.683.56l.82-.086v-.18q0-.088-.113-.264l-.024-.03zm-1.351.522q.069 0 .201.227-.328-.114-.24-.202.016-.025.039-.025zm2.901.656q.038.076.032.12-.006.044-.07.07.076 0 .14-.039-.013-.075-.102-.151zm-.113-.025q-.114.012-.202.063.05.088.164.151-.05-.063-.044-.126.006-.063.082-.088zm.05-.05q.177 0 .24.264-.114.076-.278.076-.164 0-.277-.19h-.303v-.1l.303.025q.139-.076.315-.076zm3.041-.341q-.757 0 0 1.4.757-1.4 0-1.4zm-5.893-.32q-.049 0-.088.042-.139.164.24.34-.391.594-.404 1.414l.101.012q0-.832.328-1.375l.025.013q-.24.53-.252 1.754l.114.012q.075-1.224.138-1.514l.114-.416q-.191-.282-.316-.282zm2.678.392q-.124 0-.23.035-.252.082-.252.347h-.177q-.037-.24-.151-.24-.114 0-.038.24l.354.555v1.186l.037.013q.05-.089.12-.227.07-.14.095-.366h.378q.215 0 .215-.101 0-.19-.202-.215 0-.1.063-.1l.252-.013q-.075-.177.152-.227 0-.101-.202-.455v-.214l-.038.05q-.164-.075-.252-.088-.101 0-.303.088h-.227V6.4h.227q.177-.114.303-.114.139 0 .29.114 0-.101-.038-.114-.205-.066-.376-.066zm.275-.312l-1.135.121v.106H10.1v-.072l-.908.097q-.013.063-.127.417-.164.492-.138 3.47l1.59.012V7.195q-.089-.126-.228-.353-.138-.228-.132-.486.005-.217.21-.217.039 0 .086.009.202 0 .253.252.012-.202.227-.297.097-.043.252-.043.186 0 .455.062-.013-.126-.089-.214zm2.957 4.069q-.508 0-.61.347h.48q.39-.038.39-.328-.14-.02-.26-.02zm-3.726-1.091v1.438H9.419q.012.782.145 1.88.132 1.098.334 1.861.202.764-.265 1.243h3.723q-.127-.138-.17-.467-.045-.328.283-1.11l.947-2.864q-.008-.418-.225-.418-.137 0-.356.165l-1.287 1.906-.48.605q-.126.089-.224.089-.196 0-.28-.354-.454-1.034-.34-2.536.44-.467-.442-1.438zM9.69 2.25q.17 0 .384.137.34.227.34 1.338v1.372q.35.018.594.073.366.082.599.353.233.271.233.75.05.203.013.38.215.378.215.517 0 .075-.19.075l.038.114q-.025.063-.076.076.038.05.026.113l-.089.038q.076.34-.29.34h-.265q-.025.24-.29.644.013.025.246.316.233.29.46.7.228.41-.1.801-.089 1.275.39 2.36l1.666-2.423q.186-.606.65-.606h.02V7.952h-.897v-.303h.896q-.908-1.754.227-1.754 1.123 0 .227 1.754h.884v.303h-.871v1.766q.707 0 .139.896-1.338 4.013-1.3 4.278.038.278.372.48.335.201.17.378H9.092q-.253-.114 0-.353.668-.795.429-1.527-.24-.732-.417-3.546h-.467v-.833q0-.757.013-1.3-.1-.012-.227-.062l.025-.379-.227-.013q0-.933.404-1.476-.442-.177-.202-.454.093-.113.194-.113.159 0 .336.277.329-.622.732-.806-.169-.095-.404-.166l.353-1.501q.05-.177-.214-.341-.354-.252-.14-.606.16-.301.412-.301zm9.394 1.49c-.32.025-.497.185-.53.48.042.32.219.488.53.505.311-.017.476-.185.492-.505-.025-.295-.189-.455-.492-.48zm.038-1.06c.227 0 .438.041.631.126a1.665 1.665 0 0 1 .859.852c.084.19.126.39.126.6 0 .218-.042.423-.126.612a1.588 1.588 0 0 1-.859.833c-.193.08-.404.12-.631.12-.227 0-.44-.04-.638-.12a1.519 1.519 0 0 1-.511-.334 1.641 1.641 0 0 1-.341-.499 1.49 1.49 0 0 1-.126-.612c0-.21.042-.41.126-.6.084-.19.198-.358.34-.505a1.55 1.55 0 0 1 .512-.347c.198-.085.41-.127.638-.127zm-.025-.43c-.278 0-.54.053-.783.158a1.951 1.951 0 0 0-.632.43 2.104 2.104 0 0 0-.423.63c-.105.24-.157.5-.157.777 0 .278.052.537.157.776.106.24.247.449.423.625a2.004 2.004 0 0 0 3.252-.625c.105-.24.158-.498.158-.776s-.053-.537-.158-.777a2.046 2.046 0 0 0-1.06-1.06 1.912 1.912 0 0 0-.777-.158zm-.045 4.916c-.057 0-.114.003-.17.008h-.027c-.64 0-1.19.616-1.143 1.25-.035.498.069.99.096 1.486a.223.223 0 0 0 .207.119.352.352 0 0 0 .29-.156c.15-.21.084-.482.022-.71-.067-.41-.092-.865.133-1.232a.769.769 0 0 1 .62-.29c.26 0 .518.114.655.344a.84.84 0 0 1-.121 1.054c-.271.322-.678.533-.852.931-.111.401-.018.82-.055 1.227-.036 1.49-.055 2.979-.083 4.468.077.065.168.077.261.077.055 0 .11-.004.166-.004.044 0 .088.002.13.012.203-.104.187-.364.172-.557-.072-1.562-.02-3.126-.059-4.69.005-.177-.053-.382.135-.484.374-.363.774-.726 1.004-1.204.234-.693-.29-1.524-1.017-1.612a1.804 1.804 0 0 0-.364-.037zm9.708-4.623c.024 0 .049.003.075.01.143.04.185.159.124.358l-1.042 2.696h-.508l1.107-2.852c.057-.141.138-.212.244-.212zm.86.217c.03 0 .061.005.094.015.165.048.195.171.091.37l-.95 2.462h-.508l1.002-2.617c.063-.153.153-.23.271-.23zm-2.57 3.976c-.081 0-.174.014-.278.043v.13a.933.933 0 0 1 .28-.05c.072 0 .137.013.196.037.125.052.293.087.5.104l-.064-.065a27.78 27.78 0 0 1-.456-.17.494.494 0 0 0-.178-.029zm.1.29l.234.078a1.775 1.775 0 0 1-.234.078c.052-.043.052-.095 0-.156zm-.195 0c-.026.052-.018.109.026.17a.807.807 0 0 1-.157-.053c.009-.043.052-.082.13-.117zm.065-.091c-.113 0-.191.043-.235.13l-.117.065-.013.065.117.026c.064.04.14.059.23.059.13 0 .288-.041.473-.124h.287v-.09h-.3c-.182-.088-.33-.131-.442-.131zm2.356-1.08l-.885 1.627c-.058.08-.112.121-.162.121a.109.109 0 0 1-.072-.03l-.287-.182c.018-.061.087-.152.209-.274.121-.121.147-.267.078-.436-.04-.096-.115-.144-.226-.144a.834.834 0 0 0-.321.085c-.278-.166-.522-.25-.735-.25l-.06.003a2.686 2.686 0 0 0-.09-.52zm-2.497.74c.222 0 .512.097.87.288.078-.087.156-.13.234-.13.078 0 .12.039.124.117.004.078-.065.18-.208.306-.144.126-.21.232-.202.319l.039.013a.64.64 0 0 1-.26.449c-.148.109-.348.167-.6.176a.936.936 0 0 1-.049.001c-.13 0-.187-.033-.172-.099a.206.206 0 0 0-.039-.189l.074.002c.244 0 .308-.042.193-.125-.085-.062-.154-.093-.205-.093a.093.093 0 0 0-.062.021c.035-.13-.035-.2-.208-.208.19-.321.338-.604.442-.847h.029zm.935.965l.378.234c.026.4.108.677.247.834a1.596 1.596 0 0 0-.21-.015c-.05 0-.097.003-.142.008a.546.546 0 0 0-.3.15 2.489 2.489 0 0 0-.325-.664c.226-.165.343-.347.352-.547zm-3.892 2.77c.19 0 .367.092.533.277-.313.008-.521.108-.625.3-.087-.218-.196-.34-.326-.365-.13-.026-.06-.085.208-.176a.652.652 0 0 1 .21-.036zm4.4-1.416c.338 0 .551.191.638.573.121.53.139 1.354.052 2.474a39.963 39.963 0 0 1-.365 3.19l.157.234H24.48l.898-.364c-.26-1.276-.586-2.212-.977-2.806-.39-.595-.455-.979-.195-1.152a.443.443 0 0 1 .247-.083c.176 0 .35.127.521.382l1.758 2.5.313-.026c.19-1.944.395-3.394.612-4.349.104-.382.325-.573.664-.573zm.376-6.664c-.25 0-.42.147-.506.44l-1.12 2.917h-.56c.104.347.156.655.156.924-.06.243-.176.486-.345.73-.163.234-.13.351.098.351h.026c-.061.087-.052.139.026.156-.07.035-.078.072-.026.11.052.04.074.125.065.255-.026.382-.128.692-.306.93-.146.197-.28.295-.399.295a.216.216 0 0 1-.076-.014.459.459 0 0 0-.155-.035c-.051 0-.087.018-.106.054-.035.065.011.133.137.202a.324.324 0 0 0 .159.037c.11 0 .249-.04.414-.122.256-.125.488-.514.696-1.165h.365c.113.104.2.256.26.456-.312 1.007-.568 2.482-.768 4.427l-1.758-2.474a1.217 1.217 0 0 0-.364-.365.758.758 0 0 0-.615-.308.987.987 0 0 0-.205.022v-2.8c0-.381-.135-.577-.404-.585a3.21 3.21 0 0 1 .638-.704c.074-.132.072-.198-.005-.198a.66.66 0 0 0-.243.081 8.5 8.5 0 0 0-.572.495c-.217.226-.341.393-.372.501l-.24.853c.004.14.027.21.067.21.031 0 .074-.043.128-.132.035-.113.082-.256.143-.43a.626.626 0 0 1 .352-.377c.147 0 .221.095.221.286v2.852c-.503.27-.644.451-.423.547.205.088.371.244.498.467.063.43.24.89.53 1.382.309.52.589 1.285.84 2.292l-.99.43.066.507h5.56l-.573-.677c.278-2.7.375-4.425.293-5.176-.083-.75-.271-1.165-.567-1.243-.208-.209-.29-.434-.247-.677l.326-.586c.512.373.768.876.768 1.51v6.849h.286V8.901c0-.755-.308-1.345-.924-1.77l.846-1.524h-.599l.925-2.396c.13-.33.071-.543-.176-.638a.927.927 0 0 0-.333-.069.618.618 0 0 0-.312.082c-.06-.191-.236-.302-.527-.332a.705.705 0 0 0-.073-.004zm2.986 10.983v1.317h2.907v-1.317h-.57c-.165.293-.355.482-.569.57a.818.818 0 0 1-.635 0c-.21-.088-.397-.277-.563-.57zm1.763-4.793v2.183h-.66v2.67h.713v-1.674h.825V9.33h1.02c.183 1.424.677 2.482 1.484 3.174.807.692 1.803 1.094 2.99 1.205 1.186.11 1.965.267 2.337.468.372.202.557.406.557.611h1.448c-.222-.53-.518-.933-.89-1.21-.372-.277-1.062-.45-2.07-.522-1.009-.071-1.815-.204-2.42-.397a3.858 3.858 0 0 1-1.62-1.033c-.475-.494-.838-1.556-1.092-3.185zm10.648-4.87l.11.046-3.278 7.3c-.056-.037-.367-.19-.469-.308 0-.08.056-.133.218-.35.17-.227.352-.464.146-.769-.096-.141-.227-.244-.397-.244a.647.647 0 0 0-.364.135c-.285-.17-.56-.255-1.01-.255-.08-.692-.167-1.13-.264-1.676h3.25l2.058-3.879zm-.007-.357c-.018 0-.037 0-.056.002L41.946 6.93c-.073.122-.148.182-.227.182a.212.212 0 0 1-.028.002c-.306 0-1.174-.559-2.604-1.677-.328-.34-.498-.68-.51-1.02-.012-.34.09-.534.305-.583a.809.809 0 0 1 .176-.021c.121 0 .208.039.261.117.076.112.072.225-.013.337-.043.056-.081.084-.116.084s-.066-.028-.094-.084c-.054-.112-.112-.168-.173-.168-.115.042-.142.142-.082.3.057.147.16.22.31.22a.5.5 0 0 0 .036-.001c.17-.013.289-.07.355-.173a.656.656 0 0 0 .1-.365.533.533 0 0 0-.136-.364.64.64 0 0 0-.396-.196.623.623 0 0 0-.097-.007.743.743 0 0 0-.422.144c-.173.118-.273.313-.3.583-.028.27.047.567.223.892.176.325.493.651.951.979.458.328.894.64 1.307.938.01.039-.012.058-.064.058a.324.324 0 0 1-.046-.004h-2.33c.194 1.111.312 1.897.355 2.359a2.15 2.15 0 0 1 .162-.006c.426 0 .851.126 1.276.379.091-.121.19-.182.296-.182.106 0 .161.058.164.173-.185.296-.457.583-.55.92l1.019.655 3.47-7.949a.506.506 0 0 0-.436-.24z"/><path d="M8.22.375c-9.625 0-9.625 17.25 0 17.25m0-17.25h36.303M8.22 17.625h36.303M52.21.375v17.25M44.523.375c9.625 0 9.625 17.25 0 17.25" fill="none" stroke="#000"/></svg>