<svg xmlns="http://www.w3.org/2000/svg" width="114.589" height="18"><path d="M3.73.474c.693 0 1.247.2 1.634.479.006.053.02.107.009.16-.05.248-.195.477-.396.63-.316.207-.697.267-1.057.356-.09.01-.019.031.031.04.23.04.707.099.971.099l.052-.001c.278-.032.54-.148.766-.311.079-.067.147-.15.205-.236.147.346.227.713.26.917.018.11.096.2.202.233 1.139.349 2.038 1.91 2.88 2.949 1.729 2.137 3.199 4.526 4.892 6.76-.937-.456-1.87-.916-2.81-1.374-1.92-1.01-3.92-1.816-5.604-3.09l-.008-.008c-.97-.808-1.963-1.66-2.339-2.793-.148-.92 1.757-2.577 1.542-2.646a.207.207 0 0 0-.064-.01c-.458 0-1.753 1.128-2.019 2.202-.003-.014-.01-.03-.014-.045-.073-.356-.154-1.256.068-1.98a.29.29 0 0 0 .01-.103 1.968 1.968 0 0 0-.123-.634c-.063-.17-.139-.344-.26-.765-.031-.108-.142-.328-.208-.345.186-.138.375-.28.645-.375a.434.434 0 0 0-.132.314c0 .23.164.415.365.415.2 0 .364-.186.364-.415V.894a.411.411 0 0 0-.255-.39c.053-.007.096-.019.154-.022.081-.006.16-.008.238-.008zm.67 7.763c.065.065.135.124.202.187.214.78.412 1.64.692 2.305.483 1.145 1.216 2.141 1.84 3.154a1.814 1.814 0 0 0-.385.27 6.831 6.831 0 0 0-.199.193 2.61 2.61 0 0 0-1.186-.897c.045-.723-.108-1.712-.34-2.787A34.903 34.903 0 0 0 4.4 8.237zm1.006.908c1.149.945 2.428 1.738 3.676 2.54-.018.91-.018 1.778.084 2.675a3.411 3.411 0 0 0-1.437-.736c-.02 0-.037.012-.057.012-.649-1.063-1.383-2.06-1.837-3.134-.156-.37-.293-.85-.429-1.357zm.407 5.254a2.5 2.5 0 0 1 .44.541.3.3 0 0 0 .257.14.29.29 0 0 0 .17-.053c.215-.156.347-.324.476-.446.047-.045.097-.08.148-.117l.149 2.722c-.213-.014-.435-.035-.637-.035-.264 0-.495.036-.633.172-.169-.134-.497-.164-.89-.164-.102 0-.207.002-.316.004l.836-2.764zM6.97 9.574c1.354.787 2.784 1.414 4.135 2.125a.244.244 0 0 0 .006.003c1.295.631 2.586 1.28 3.894 1.904.984 1.189 2.052 2.295 3.078 3.42l-2.15.362-4.267-4.635a.288.288 0 0 0-.037-.036c-1.499-1.137-3.152-2.082-4.66-3.143zM3.796 0c-.135 0-.273.005-.411.013C2.3.083 1.512.54 1.243 1.157c-.04.093-.146.314-.007.314a2.35 2.35 0 0 1 .341-.028c.418 0 .38.172.47.194.09.282.29.846.303 1.068-.244.86-.153 1.763-.064 2.198.15.732.63 1.584 1.261 2.38a.285.285 0 0 0 0 .166 35.3 35.3 0 0 1 .903 3.336c.251 1.168.393 2.277.317 2.823a.294.294 0 0 0 .221.328c.045.011.084.031.127.045l-.928 3.079a2.847 2.847 0 0 0-.593-.055c-.381 0-.756.05-1.064.05-.125 0-.24-.008-.34-.032a.546.546 0 0 0-.125-.012c-.436 0-1.428.306-1.34.879.15-.128.257-.159.375-.159.11 0 .23.027.405.027h.027c.254-.004.697-.083 1.053-.083.18 0 .338.02.438.08.236-.01.45-.013.649-.013.85 0 1.447.07 2.5.075a89.565 89.565 0 0 0 2.974-.079c.45.003.697.054.922.054h.04c.134-.004.265-.057.48-.057.123 0 .273.017.468.07-.25-.341-.877-.685-1.33-.685a.591.591 0 0 0-.302.071 5.081 5.081 0 0 0-.508-.022c-.22 0-.448.01-.678.02l-.157-2.83c.487.203.857.517 1.281 1.021a.295.295 0 0 0 .513-.246c-.192-1.039-.213-2.019-.202-3.06.54.354 1.072.713 1.576 1.094l4.36 4.738a.29.29 0 0 0 .263.09c.95-.159 1.9-.315 2.849-.474a.294.294 0 0 0 .23-.193.298.298 0 0 0-.06-.297c-.741-.83-1.508-1.631-2.25-2.445 1.269.78 2.875 1.755 3.08 1.755.022 0 .027-.013.012-.04-.094-.163-.9-.755-1.775-1.373.14.058.276.12.415.177l.017.01c.103.035.16.059.27.062a.286.286 0 0 0 .108-.016.317.317 0 0 0 .188-.152.32.32 0 0 0 .023-.238c-.017-.05-.038-.077-.054-.098-.061-.085-.103-.109-.162-.154a4.553 4.553 0 0 0-.205-.149c-.153-.105-.336-.223-.493-.328a4.992 4.992 0 0 1-.328-.233.307.307 0 0 0-.028-.025l-3.892-2.736c-.008-.006-.02-.001-.028-.006-1.333-1.869-2.588-3.825-4.046-5.627C9 4.496 8.145 2.888 6.758 2.352 6.69 1.956 6.54 1.225 6.003.703 5.547.26 4.888.056 4.147.011A5.728 5.728 0 0 0 3.796 0zm20.383 3.383q-.542 0-.628.418v.025q.061.11.258.11.567-.245.567-.455v-.024q0-.05-.197-.074zm1.97-.763q-.086.48-.85 1.034l.271.11.37-.135.184.123q1.416.677 3.755.714l3.67.037.049-.001q.627 0 .61.919-.02.954-.647 1.914-.394 0-.8-.302-.407-.301-.665-.708-.259-.406-.665-1.058.123 1.292.738 2.031-.75 0-1.335.142-.293.07-.488.07-.196 0-.294-.07-.123-.088-.61-.088-.295 0-.726.032-.332.025-.607.025-.668 0-1-.148-.308-.258-.388-.905-.08-.646.363-1.791-.91.652-.91 1.982v.443q-.456-.468-.715-1.034Q24.954 4.7 24.08 4.7q-.332 0-1.28.419-.32-.136-.259-.431l.616-.825q.443-.751.64-.837.099-.185.96-.185.37.099.37.271 0 .234-.246.468.467-.099.677-.554 0-.111.59-.406zm.53-2.62q-.06 0-.136.096-.936 1.49-1.7 2.068-.295.259-.8.27-.246 0-.75-.369-.752-.726-1.047-1.23-.333-.592-.431-.653-.05 0-.074.123 0 .702 1.428 2.598-.27.394-.505.898-.234.505-.554.77-.32.265.062.523 0 .32.53.517.43-.123 1.317-.381.53 0 .726.443.653.985.653 2.056.074 1.428-.985 2.733-.333.222-.333.616 0 .16.407.16.664 0 .664-.16l-.049-.332q0-.173.259-.259v-.025q0-.234.837-2.351.382 0 .603.37.283.935.283 1.55 0 .136-.172.58-.21.16-.258.578h.985l-.074-.308q-.05-.185.135-.32l-.086-.456q-.16-1.736-.16-2.043v-.025q.973-.234 1.496-.234t.806.19q.113.077.316.077.307 0 .823-.175.559-.189.858-.189.159 0 .244.054.246.154.246.523 0 1.354-.69 2.302-.22.222-.332.616h.85q.222-.074.098-.37.025-.32.296-.406 0-1.12.985-2.216.69.382.702 1.182 0 .308-.123.837l-.148.407q-.136.16-.246.603h.812q.148-.062.185-.135l-.123-.394q-.062-.173.172-.308-.123-.653.16-.985-.579-1.354-.579-2.13.308-1.268.394-2.376.148.775.037 1.859-.11 1.083.37 2.24.094.196.17.196.055 0 .1-.097.124-.702.05-3.878-.099-.394-.21-.604-.393-.603-.677-.628H30.52q-2.943 0-4.359-.837.234-.418.259-.572.024-.154 0-.376-.591.173-.887.456l-.246-.185q.258-.16.825-1.034.566-.874.665-1.367Q26.735 0 26.679 0zm6.525 13.464c.65.028 1.007.042 1.16.042h.07l-.084 3.397a4.983 4.983 0 0 1-1.292-.769l.146-2.67zm-9.476-.845c-.217.042-.504.174-.469.433v1.894a36.22 36.22 0 0 0-.978-.042c0 .238.196.56.804.56.007.537.104 1.194.202 1.53l.084.88c0 .098.168.126.35.126.216 0 .454-.042.454-.042l-.035-.88c3.452.027 10.036.202 10.364.202.168 0 .28-.182.28-.433l.084-3.795-2.076-.021-.168 2.956c-1.502.007-4.102.252-5.87.252-.56 0-1.042-.021-1.37-.091-.07-.077-.72-1.02-1.132-1.125a1.813 1.813 0 0 0-.245-.028c-.07-.573-.14-1.146-.203-1.712.126-.161.413-.12.49-.336.077-.105.028-.28-.12-.286-.083-.035-.314-.042-.412-.042zM58.725 1.718zm-.005.24zm-18.668-.917v1.416c-.21-.097-.417-.187-.612-.283a1.969 1.969 0 0 0-.564-.158c-.16-.025-.328-.041-.478-.072a.556.556 0 0 1-.238-.086c-.018-.015-.033-.035-.033-.11 0-.074.015-.093.033-.109a.556.556 0 0 1 .238-.086c.15-.03.318-.047.478-.072.203-.031.399-.076.564-.157.195-.097.402-.187.612-.283zm0 1.416zm.72.101zM53.826.935c.14 0 .28.002.419.005.782.018 1.955.206 2.925.449.48.12.908.252 1.214.383.047.02.09.04.13.059a2.8 2.8 0 0 1-.114.046 8.515 8.515 0 0 1-1.215.321c-.975.198-2.152.34-2.94.36-.14.003-.28.004-.419.004-1.417 0-2.828-.161-4.24-.325-1.507-.176-3.014-.354-4.528-.354l-.23.001c-1.323.017-2.844.164-4.056.674V.94c1.212.51 2.733.658 4.056.674l.23.001c1.514 0 3.021-.178 4.528-.353 1.412-.164 2.823-.326 4.24-.326zM40.496 0l-.174.1c-.403.231-.825.393-1.2.578-.1.049-.225.072-.356.092-.172.026-.35.045-.513.078a1.248 1.248 0 0 0-.554.238.827.827 0 0 0-.291.663c0 .288.109.51.291.662.146.122.34.194.554.238.163.033.34.052.513.079.13.02.257.043.356.092.375.185.797.346 1.2.578l.173.1.176-.095c1.166-.627 2.792-.782 4.166-.799l.224-.001c1.485 0 2.964.177 4.442.349 1.44.167 2.881.33 4.326.33.144 0 .288-.002.433-.005.83-.02 2.05-.167 3.067-.373a9.207 9.207 0 0 0 1.324-.353c.189-.071.345-.147.46-.226a.805.805 0 0 0 .185-.172.514.514 0 0 0 .11-.311.522.522 0 0 0-.105-.307.846.846 0 0 0-.18-.176 2.267 2.267 0 0 0-.455-.249 9.184 9.184 0 0 0-1.323-.42C56.322.435 55.098.24 54.262.22a18.37 18.37 0 0 0-.433-.005c-1.445 0-2.885.163-4.326.33-1.478.173-2.957.35-4.443.35l-.223-.002c-1.374-.017-3-.172-4.166-.798L40.495 0zm17.361 12.17q.442 0 .442.464v3.556h-1.347l.442-3.746q.02-.273.463-.273zm.02-.568q-1.073 0-1.136.61-.442 3.978-.947 4l-9.765.357-1.01-.042q-1.136-1.2-2.02-1.2l-.652-.042q-1.79.337-2.147.337-.253 0-.253.337 0 .463.716.463 1.229-.196 1.885-.196.12 0 .22.006.357 0 .589.295-.41.508-1.837.508-.11 0-.226-.003-1.62-.042-2.862-.421-.61 0-.61.716.063.652 4.567.673l1.999-.21 11.406-.064 3.2.043v-5.135q-.022-1.032-1.116-1.032zM78.219 1.225c.941.04 1.458.06 1.68.06h.102l-.122 4.921c-.81-.334-1.306-.668-1.873-1.114l.213-3.867zM64.49 0c-.314.06-.73.253-.679.628V3.37a52.47 52.47 0 0 0-1.417-.06c0 .344.283.81 1.164.81.01.78.152 1.73.294 2.217l.121 1.275c0 .142.243.183.506.183.314 0 .659-.061.659-.061l-.051-1.276c5.001.04 14.538.294 15.014.294.243 0 .405-.263.405-.628l.121-5.497-3.006-.03-.243 4.282c-2.177.01-5.943.364-8.505.364-.81 0-1.508-.03-1.984-.131-.101-.112-1.043-1.478-1.64-1.63a2.64 2.64 0 0 0-.354-.04c-.102-.831-.203-1.661-.294-2.481.182-.233.597-.172.709-.486.111-.152.04-.405-.172-.415-.121-.05-.455-.06-.598-.06zm1.284 14.172c1.074 0 2.418.552 3.068 1.202.57.57.644 1.324.665 2.025h-7.435c.02-.701.095-1.456.664-2.025.65-.65 1.964-1.202 3.038-1.202zm0-.601c-1.275 0-2.646.588-3.449 1.392-.824.824-.917 1.909-.917 2.72V18h8.732v-.316c0-.812-.062-1.897-.886-2.721-.804-.804-2.206-1.392-3.48-1.392zm6.366-2.921V18h.735v-7.35zm4.37 0V18h.735v-7.35zm4.37 0V18h.736v-7.35zM85.361 0c-.93 0-1.745.684-1.745 1.562V18h1.136V1.562c0-.43.378-.57.616-.57.25 0 .634.175.634.703v10.804h1.136V1.695c0-.88-.87-1.695-1.777-1.695zm8.76.885q3.633.442 0 6.73-3.632-6.288 0-6.73zm0-.885q-5.03.35-.698 8.08h-4.285v1.095h4.238V18h1.444V9.128h4.284V8.08H94.82Q99.15.326 94.12 0zm8.637 0l-1.654 1.955h.807l.847-1.01.856 1.01.83-1.01.856 1.01.848-1.01.855 1.01.848-1.01.855 1.01.831-1.01.856 1.01.855-1.01.831 1.01.856-1.01.847 1.01h.807L112.935 0l-.856.945-.83-.945-.856.945-.856-.945-.83.945L107.85 0l-.848.945-.855-.945-.848.945-.855-.945-.831.945-.856-.945zm5.089 3.933a2.85 2.85 0 0 1 2.23 1.07h-4.461a2.853 2.853 0 0 1 2.23-1.07zm2.532 1.53c.173.328.283.693.316 1.08h-5.697c.033-.387.144-.752.316-1.08zm.32 1.542a2.844 2.844 0 0 1-.3 1.08h-5.104a2.845 2.845 0 0 1-.3-1.08zm-.593 1.541a2.854 2.854 0 0 1-2.26 1.106c-.92 0-1.736-.433-2.26-1.106zm-2.26-5.074c-1.83 0-3.32 1.49-3.32 3.32 0 1.831 1.49 3.32 3.32 3.32 1.83 0 3.32-1.489 3.32-3.32 0-1.83-1.49-3.32-3.32-3.32zm5.914 8.803c.122 0 .184.445.184.568 0 .123-.062.568-.184.568h-11.796c-.143 0-.215-.445-.215-.568 0-.123.072-.568.215-.568zm-12.164-.645c-.328 0-.492.66-.492 1.213s.164 1.213.492 1.213h12.532c.307 0 .461-.66.461-1.213s-.154-1.213-.46-1.213zm12.164 4.588c.122 0 .184.446.184.569 0 .123-.062.568-.184.568h-11.796c-.143 0-.215-.445-.215-.568 0-.123.072-.569.215-.569zm-12.164-.645c-.328 0-.492.66-.492 1.214 0 .553.164 1.213.492 1.213h12.532c.307 0 .461-.66.461-1.213s-.154-1.214-.46-1.214z"/></svg>