<svg xmlns="http://www.w3.org/2000/svg" width="100.474" height="18"><path d="M8.22.375c-9.625 0-9.625 17.25 0 17.25m0 0" fill="none" stroke="#000"/><path d="M14.442 7.938c-.682.054-1.058.394-1.13 1.022.09.68.466 1.04 1.13 1.075.663-.036 1.012-.394 1.048-1.075-.053-.628-.403-.968-1.048-1.022zm.08-2.259c.484 0 .932.09 1.345.27a3.545 3.545 0 0 1 1.828 1.815c.18.402.27.828.27 1.276 0 .466-.09.901-.27 1.304a3.422 3.422 0 0 1-3.173 2.03c-.484 0-.936-.085-1.358-.255a3.235 3.235 0 0 1-1.089-.712 3.495 3.495 0 0 1-.726-1.063 3.174 3.174 0 0 1-.269-1.304c0-.448.09-.874.27-1.277a3.67 3.67 0 0 1 .725-1.075 3.31 3.31 0 0 1 1.09-.74 3.41 3.41 0 0 1 1.357-.269zm-.054-.914a4.17 4.17 0 0 0-1.667.336c-.52.224-.968.529-1.344.914a4.48 4.48 0 0 0-.9 1.345 4.071 4.071 0 0 0-.337 1.653c0 .592.112 1.143.336 1.654.224.511.524.955.9 1.331a4.267 4.267 0 0 0 3.012 1.237c.592 0 1.143-.112 1.654-.336a4.48 4.48 0 0 0 1.345-.9 4.21 4.21 0 0 0 .914-1.332 4.07 4.07 0 0 0 .336-1.654c0-.591-.112-1.142-.336-1.653a4.358 4.358 0 0 0-2.259-2.26 4.071 4.071 0 0 0-1.654-.336zM26.122 0c-.12 0-.128.377-.3.935-.194.635-.337 1.962-.788 2.22a.397.397 0 0 1-.204.052c-.134 0-.269-.05-.417-.05a.545.545 0 0 0-.169.025c-.21.068-.322.397-.545.436-.921.16-2.182.1-2.887.163-.452.04.756.93 1.965.93h.05c.252-.005.517-.017.78-.017.44 0 .877.032 1.237.18.352.146.767.567.762.981L25.46 18h1.358l-.07-13.719c0-.368 1.062-.618 1.2-.936.243-.553.12-2.995-.272-3.323a.021.021 0 0 0-.013-.006c-.176 0-.505 2.56-1.022 3.111-.052.056-.156.082-.247.082-.096 0-.177-.03-.161-.082.328-1.118.46-2.749-.055-3.105A.102.102 0 0 0 26.122 0zm6.727.78c.706 0 1.059.28 1.059.839 0 .56-.347 1.078-1.04 1.558-.159.053-.179.6-.059 1.638l.939 6.672c-.959.28-1.945.786-2.957 1.519V2.797C31.138 1.452 31.823.78 32.85.78zm-.09-.78c-.778 0-1.37.217-1.778.65-.42.446-.716 1.129-.889 2.047L30.072 18h1.059c-.08-2.29.075-3.25.561-3.93.487-.679 1.715-1.418 3.114-1.645-.88-5.5-1.47-8.582-1.298-8.769.733-.492 1.099-1.152 1.099-1.977C34.607.559 34.028 0 32.87 0a3.659 3.659 0 0 0-.111 0zm5.791 0c-.929 0-1.744.684-1.744 1.562V18h1.136V1.562c0-.43.378-.57.616-.57.25 0 .634.175.634.703v10.804h1.136V1.695c0-.88-.87-1.695-1.777-1.695zm6.27 0q-.33 0-.36.29l.32-.07q.2 0 .11.21-.23.22-.07.651-.292.633-1.129.633l-.102-.002q.04.47-.2.71-.84.481-.84.882.66.31.22.76-.441.451-.441.611.29.09.4.31.5 1.222 1.011 1.732l-.04.41q.49 0 .541-.52-.921-1.12-.891-2.392.04-1.272 1.612-2.503.45-.25.45-.971 0-.741-.59-.741zm6.007 0q-.59 0-.59.74 0 .722.43.972Q52.26 2.943 52.3 4.215q.03 1.271-.911 2.392.07.52.54.52l-.03-.41q.501-.51 1.012-1.731.12-.22.39-.31 0-.161-.43-.611-.43-.451.22-.761 0-.4-.831-.881-.24-.24-.22-.711l-.1.002q-.819 0-1.112-.633.15-.43-.07-.65-.09-.21.11-.21l.32.07Q51.158 0 50.828 0zM47.82 5.486q1.176 0 2.358.901.92.781.11 1.792H45.34q-.81-1.011.13-1.792 1.172-.9 2.348-.9zM44.28 8.52q-1.391 1.622-1.391 2.473.11.49.43.49.42 0 .54-.38 0-1.261.541-2.112l-.12-.47zm7.088 0l-.12.471q.54.85.54 2.112.11.38.541.38.31 0 .43-.49 0-.85-1.391-2.473zm-4.385.18q.65 0 .65.691v5.216q-2.041 0-2.312-1.311-.27-1.312-.03-4.595zm3.344 0q.27 3.284-.01 4.596-.28 1.311-2.323 1.311V9.39q0-.69.65-.69zm-2.653-5.576v.36q0 .251-.2.251-.31 0-.741-.36h-.22l.69 1.301-.22.07q-.36-.47-.72-.97-.057-.026-.1-.026-.11 0-.131.165l.54.941q-.38.31-.38.541-.6 0-.9.47-.872.611-.872 1.352 0 .56.36 1.281-.25 1.392-.25 3.504 0 1.392.48 2.233.491.84 2.804.84 2.313 0 2.793-.84.49-.841.49-2.233.02-2.112-.23-3.484.36-.74.36-1.301 0-.74-.88-1.351-.31-.471-.891-.471 0-.23-.41-.54l.54-.942q0-.165-.103-.165-.041 0-.097.025-.36.5-.721.971l-.22-.07.67-1.301h-.2q-.45.36-.77.36-.17 0-.17-.25v-.36zm-3.956 8.83h-.039q-1.17 2.073-1.17 3.264 0 1.191.41 1.912.42.72 1.14.871-.97-1.301-.97-2.082 0-.771.18-1.262.16 1.372.72 1.932-.25-1.1-.23-2.322.01-1.232.41-1.832.02-.481-.451-.481zm8.212 0q-.471 0-.452.48.38.601.4 1.833.02 1.221-.22 2.322.56-.56.721-1.932.18.49.18 1.262 0 .78-.97 2.082.72-.15 1.12-.871.41-.72.41-1.912 0-1.191-1.15-3.264h-.039zM57.355 0L55.3 2.43h1.002l1.053-1.256 1.063 1.256 1.033-1.256 1.063 1.256 1.053-1.256L62.63 2.43l1.053-1.256 1.063 1.256 1.033-1.256 1.063 1.256 1.063-1.256 1.032 1.256L70 1.174l1.053 1.256h1.003L70 0l-1.063 1.174L67.905 0l-1.063 1.174L65.779 0l-1.033 1.174L63.683 0 62.63 1.174 61.567 0l-1.053 1.174L59.451 0l-1.033 1.174L57.355 0zm6.295 12.703c-.68.054-1.057.394-1.128 1.022.09.68.466 1.04 1.129 1.075.663-.036 1.013-.394 1.049-1.075-.054-.628-.404-.968-1.05-1.022zm.082-2.259c.484 0 .932.09 1.344.269a3.545 3.545 0 0 1 1.828 1.815c.18.403.27.83.27 1.277 0 .466-.09.901-.27 1.304a3.422 3.422 0 0 1-3.173 2.03c-.483 0-.936-.085-1.357-.255a3.235 3.235 0 0 1-1.09-.712 3.495 3.495 0 0 1-.725-1.063 3.174 3.174 0 0 1-.27-1.304c0-.448.09-.874.27-1.277a3.67 3.67 0 0 1 .726-1.076c.304-.313.667-.56 1.089-.739.421-.18.874-.269 1.358-.269zm-.054-.914c-.592 0-1.147.112-1.667.336-.52.224-.968.529-1.345.914a4.48 4.48 0 0 0-.9 1.345 4.071 4.071 0 0 0-.337 1.653c0 .592.112 1.143.336 1.654.225.511.525.955.901 1.331A4.267 4.267 0 0 0 63.678 18c.591 0 1.143-.112 1.654-.336a4.48 4.48 0 0 0 1.344-.9 4.21 4.21 0 0 0 .914-1.332 4.07 4.07 0 0 0 .336-1.654c0-.591-.112-1.142-.336-1.653a4.358 4.358 0 0 0-2.258-2.259 4.071 4.071 0 0 0-1.654-.336zM79.463.597c.268.002.505.041.692.109-.031.223-.169.569-.953.773.73-.053 1.206-.113 1.452-.307.089.2.137.427.158.556a.297.297 0 0 0 .207.237c.624.191 1.173 1.112 1.7 1.763.95 1.173 1.771 2.48 2.688 3.733l-1.27-.622c-1.182-.622-2.395-1.11-3.407-1.877-.589-.49-1.172-.996-1.39-1.641-.077-.497.296-1.074.767-1.279a.297.297 0 1 0-.238-.545c-.377.164-.7.458-.904.817.01-.152.031-.308.075-.448a.297.297 0 0 0 .012-.104 1.372 1.372 0 0 0-.082-.422c-.04-.109-.085-.206-.157-.459a.297.297 0 0 0-.105-.153c.14-.062.316-.112.527-.125.043-.003.084-.003.125-.004a.258.258 0 1 0 .103-.002zm1.193 5.432c.606.466 1.253.873 1.888 1.28a13 13 0 0 0 .047 1.321 2.215 2.215 0 0 0-.697-.3c-.391-.636-.82-1.22-1.082-1.842a4.553 4.553 0 0 1-.156-.46zm-.248 1c.273.549.62 1.04.928 1.529-.059.04-.112.08-.155.121l-.027.027a1.713 1.713 0 0 0-.613-.454c.009-.348-.047-.768-.133-1.222zm2.88.047a25.922 25.922 0 0 1 .588.297c.78.38 1.56.772 2.349 1.148.556.67 1.157 1.293 1.735 1.92l-1.044.175-2.563-2.786a.297.297 0 0 0-.039-.036 19.147 19.147 0 0 0-1.026-.718zm-2.592 2.009c.058.066.112.14.162.222a.298.298 0 0 0 .429.087c.125-.09.2-.177.265-.244l.078 1.413c-.1-.006-.201-.013-.296-.013-.167 0-.314.022-.398.108-.1-.078-.28-.1-.504-.1-.058 0-.118.002-.18.005l.444-1.478zm-5.418.999c.451.062.686.323.703.783h-1.394c0-.46.23-.721.69-.783zm7.86-2.39c.274.182.542.367.798.56l2.403 2.613h-2.456c-.171-.19-.519-.365-.777-.365a.366.366 0 0 0-.191.046 2.987 2.987 0 0 0-.256-.01c-.14 0-.286.007-.434.016l-.082-1.506c.224.115.407.282.625.542a.297.297 0 0 0 .52-.246 9.753 9.753 0 0 1-.15-1.65zm-6.24 3.745l-.266.465h-1.248l-.253-.465zm4.516 0v2.51l-1.727-2.51zM79.47 0a3.878 3.878 0 0 0-.272.01c-.695.044-1.215.325-1.408.768a.298.298 0 0 0 .34.408l.025-.006.03.007.108.029c.054.168.096.269.12.332a.541.541 0 0 1 .042.2 3.112 3.112 0 0 0-.037 1.389c.096.466.384.977.762 1.46a.295.295 0 0 0 .014.108c.182.559.396 1.318.548 2.027.152.708.233 1.387.192 1.684a.298.298 0 0 0 .223.33l.019.005-.527 1.75a1.787 1.787 0 0 0-.26-.018c-.256 0-.509.041-.712.041a.865.865 0 0 1-.183-.016.314.314 0 0 0-.068-.007c-.212 0-.657.13-.787.366h-1.1c-.062-.797-.482-1.235-1.261-1.315-.788.08-1.196.518-1.222 1.315v.572h.53l.545 1.01h1.767l.531-1.01h1.568l2.404 3.493V18h.57v-6.561h4.517v-.41l.1.109a.297.297 0 0 0 .268.092l1.74-.292a.298.298 0 0 0 .172-.492 49.17 49.17 0 0 0-.656-.716l1.657 1.078a.296.296 0 0 0 .411-.087.297.297 0 0 0-.087-.411l-1.344-.876a.292.292 0 0 0 .076-.09.315.315 0 0 0 .02-.237.305.305 0 0 0-.048-.093c-.056-.076-.084-.088-.124-.119a2.938 2.938 0 0 0-.13-.094c-.096-.065-.207-.137-.302-.2a4.156 4.156 0 0 1-.216-.156l-2.378-1.672-.008-.005c-.806-1.13-1.568-2.316-2.457-3.414-.433-.535-.938-1.524-1.812-1.894-.049-.262-.157-.68-.484-.997C80.533.119 80.022 0 79.47 0z"/><path d="M99.911.375v17.25M92.224.375c9.625 0 9.625 17.25 0 17.25" fill="none" stroke="#000"/></svg>