<svg xmlns="http://www.w3.org/2000/svg" width="53.194" height="18"><path d="M11.386 8.203c-.51.04-.793.296-.847.767.067.51.35.78.847.806.498-.026.76-.295.787-.806-.04-.47-.303-.726-.787-.767zm.06-1.694c.364 0 .7.068 1.01.202a2.659 2.659 0 0 1 1.371 1.361c.134.303.201.622.201.958 0 .35-.067.676-.202.978a2.567 2.567 0 0 1-2.38 1.523c-.362 0-.702-.064-1.018-.192a2.426 2.426 0 0 1-.816-.534 2.621 2.621 0 0 1-.545-.797 2.38 2.38 0 0 1-.202-.978c0-.336.068-.655.202-.958.134-.302.316-.571.545-.806.228-.236.5-.42.816-.555a2.574 2.574 0 0 1 1.019-.202zm-.04-.685c-.443 0-.86.084-1.25.252-.39.168-.726.396-1.008.685a3.36 3.36 0 0 0-.676 1.009 3.053 3.053 0 0 0-.252 1.24c0 .444.084.857.252 1.24.168.384.393.716.676.999a3.2 3.2 0 0 0 2.258.927c.444 0 .857-.084 1.24-.252a3.36 3.36 0 0 0 1.009-.675c.289-.283.518-.615.686-.999.168-.383.252-.796.252-1.24 0-.444-.084-.857-.252-1.24a3.268 3.268 0 0 0-1.694-1.694 3.053 3.053 0 0 0-1.24-.252zm11.116-3.009q.057 0 .12.045.214.147-.214.47-.456.723-.456 1.74-.12.135-.348.189h-1.327q.322-.724.878-1.032.556-.308 1.065-1.045.119-.367.282-.367zm-2.68 3.783q-.04.067 0 .121l-.108-.027q.027-.067.108-.094zm.134.014l.174.094q-.094.013-.174.026.067-.04 0-.12zm-.093-.084q-.081 0-.149.044l-.107.107v.094l.067-.027q.109.064.232.064.136 0 .29-.078l.188.027-.013-.08-.174-.014q-.189-.137-.334-.137zm1.167-.027q.048 0 .044.057-.006.107-.087.208-.08.1-.147.14-.02.012-.027.012-.021 0 .027-.072.05-.075.021-.075-.01 0-.028.008-.018.009-.03.009-.033 0-.003-.076.04-.1.107-.167.081-.044.123-.044zm.036-.119q-.034 0-.079.015-.12.04-.214.195-.094.154-.054.234-.094.054-.107.14-.013.088.074.122.014.005.03.005.084 0 .224-.146.168-.174.208-.315.04-.14 0-.208-.025-.042-.082-.042zm-1.413.705h-.006q-.026.007-.013.047t-.02.054q-.007.003-.014.003-.028 0-.06-.043-.04-.054-.053-.054-.04.014-.054.027-.013.013 0 .054.015-.015.032-.015.028 0 .062.041.036.045.074.045.02 0 .04-.011.06-.034.047-.094-.012-.054-.035-.054zm-.178.27q.016 0 .038.005.067.014.154.02.088.007.06.007l-.254.027q-.04-.014-.033-.04.004-.018.035-.018zm.24.059q-.014.027-.074.06-.06.034-.114.047-.027 0-.04-.007-.014-.006.013-.06l.214-.04zm2.505-1.89q-.348 1.126-1.099 2.024l.014-.335q.482-.643.26-.945-.102-.14-.263-.14-.187 0-.453.187-.205-.217-.746-.217-.06 0-.125.003-.067-.335-.107-.576zm-2.324.748q.783 0 .622.432l.107.026q.194-.447.486-.447.031 0 .064.005.362.12-.228.831-.12.295-.047.65.074.355.221.53-.272.124-.47.124-.165 0-.28-.085.013 0 0-.315-.01-.238-.24-.238-.073 0-.169.024-.091.023-.158.023-.225 0-.183-.257.24-.148.16-.201-.08-.054-.281-.067.027-.108-.174-.175.16-.442.321-.616.094-.05.198-.05.088 0 .184.037.208.08.409.107l-.013-.08q-.134-.014-.329-.108-.113-.054-.233-.054-.086 0-.175.027l.067-.12q.074-.003.14-.003zm1.373 2.374q.281.349.268.791-.014.442 0 1.976.013 1.535-.349 3.611l.241.322h-4.81l1.286-.402q-.495-1.996-1.071-2.92-.577-.925-.255-1.147.082-.056.17-.056.258 0 .567.479l1.943 2.465h.482q-.027-3.752.536-5.092v.014q.197.104.422.104.265 0 .57-.145zm-.797-6.398q-.189 0-.396.114-.388.215-.382.851.007.637.65 1.24-.335.361-.482.804h-.55q.134.522.181.757.047.234.02.395-.147.2-.335.576-.093.214.007.248.1.033.154.087-.08.04-.053.08.026.04.093.054l.007-.002q.01 0-.033.049-.054.06.02.094.073.033.047.167-.027.134.067.188l-.295.603h.415l.201-.563h.228q.054.389-.134.71-.63 1.3-.603 4.382l-1.97-2.533q-.328-.133-.573-.133-.397 0-.579.348-.295.562.241 1.5t.925 2.492l-1.14.322.054.657 5.99.013-.55-.965q.228-1.983.215-3.671-.014-1.688-.027-1.943-.013-.255-.328-.69-.315-.435-.369-.663.349.335.583.576.235.241.221 1.085h.47q0-.964-.39-1.28-.388-.314-.643-.582.362-.51.536-.818.188-.321 1.742-4.046h-.294q-.871 1.956-1.1 2.13.028-.87.322-1.232.402-.349.45-.59.046-.241-.222-.496-.246-.156-.425-.156-.112 0-.198.063-.221.16-.382.616-.402.616-.81.837-.41.221-.476.288-.55-.509-.556-.984-.007-.476.268-.61.122-.06.224-.06.128 0 .225.093.174.168.08.335-.047.084-.104.084-.057 0-.124-.084-.134-.167-.227-.167-.121.08-.047.288.073.208.341.208.47 0 .463-.396-.007-.395-.329-.582-.15-.088-.314-.088zm9.857.298a.32.32 0 0 1 .078.01c.143.04.184.16.124.359L29.509 5.61h-.507l1.106-2.863c.056-.134.136-.2.24-.2zm.86.217a.35.35 0 0 1 .097.015c.164.048.195.171.09.371l-.95 2.46h-.507l1.002-2.63c.062-.144.151-.216.267-.216zM28.641 6.74c-.081 0-.174.014-.278.042V6.9a.9.9 0 0 1 .27-.047c.076 0 .145.014.205.041a1.4 1.4 0 0 0 .501.098l-.065-.066a8.543 8.543 0 0 1-.455-.156.494.494 0 0 0-.178-.03zm.1.277l.234.09a1.91 1.91 0 0 1-.235.079c.053-.052.053-.109 0-.17zm-.196 0c-.026.06-.017.121.026.182a1.597 1.597 0 0 0-.156-.052c.009-.052.052-.096.13-.13zm.065-.085c-.112 0-.19.046-.234.137l-.117.065-.013.065.117.013a.43.43 0 0 0 .244.067c.127 0 .28-.04.459-.12h.286v-.09h-.3c-.181-.091-.329-.137-.442-.137zm2.356-1.1l-.885 1.64c-.06.089-.114.133-.165.133a.104.104 0 0 1-.07-.029l-.286-.182c.018-.07.087-.163.209-.28.121-.117.147-.26.078-.43-.04-.098-.12-.147-.236-.147a.85.85 0 0 0-.31.076c-.282-.16-.523-.239-.724-.239a.703.703 0 0 0-.084.005 2.4 2.4 0 0 0-.09-.547zM28.47 6.6c.222 0 .512.095.87.286.077-.095.155-.143.233-.143.079 0 .12.04.124.117.004.079-.065.18-.208.306s-.21.232-.202.32l.04.025a.64.64 0 0 1-.261.45c-.148.108-.347.166-.599.175a.936.936 0 0 1-.049.001c-.13 0-.188-.033-.172-.099a.238.238 0 0 0-.04-.201c.048.002.09.004.126.004.2 0 .248-.04.142-.122-.082-.061-.148-.092-.198-.092a.1.1 0 0 0-.07.027c.036-.13-.034-.2-.207-.208a7.42 7.42 0 0 0 .442-.846h.029zm.934.963l.378.235c.026.399.104.672.234.82a1.704 1.704 0 0 0-.364.013.711.711 0 0 0-.313.117 1.888 1.888 0 0 0-.286-.638c.225-.174.343-.356.351-.547zm.508 1.354c.338 0 .55.186.638.56.121.529.138 1.357.052 2.485-.104 1.285-.226 2.343-.365 3.176l.17.248h-4.335l.898-.365c-.26-1.275-.585-2.21-.976-2.805-.39-.594-.455-.978-.195-1.152a.444.444 0 0 1 .248-.082c.178 0 .355.127.533.382l1.744 2.499.312-.026c.191-1.944.395-3.393.612-4.347.104-.382.325-.573.664-.573zm.385-6.667c-.255 0-.427.148-.515.445l-1.107 2.916h-.572c.104.347.156.655.156.924-.06.234-.176.475-.345.722-.163.24-.13.359.099.359h.025c-.061.086-.052.134.026.142-.07.044-.076.083-.02.118.057.034.076.117.059.247-.026.39-.128.705-.306.944-.146.195-.279.293-.399.293a.216.216 0 0 1-.076-.014.458.458 0 0 0-.154-.034c-.052 0-.087.018-.107.054-.034.065.011.132.137.202a.324.324 0 0 0 .159.037c.11 0 .249-.04.414-.122.256-.126.488-.514.696-1.165h.365c.112.104.2.256.26.456-.312.998-.568 2.473-.768 4.425l-1.653-2.343a.83.83 0 0 0-.533-.214.851.851 0 0 0-.424.123c-.334.191-.496.401-.488.631.009.23.167.606.475 1.126.308.52.588 1.284.84 2.29l-.99.43.066.508h5.557l-.572-.677c.277-2.698.375-4.423.293-5.173-.083-.751-.272-1.165-.567-1.243-.208-.209-.29-.434-.247-.677l.338-.599c.504.382.755.885.755 1.51v6.859h.3V8.89c-.009-.754-.321-1.344-.937-1.77l.846-1.51h-.6l.925-2.407c.13-.33.072-.542-.176-.638a.89.89 0 0 0-.32-.065.605.605 0 0 0-.324.091c-.06-.2-.236-.312-.527-.338a.715.715 0 0 0-.064-.003zm3.934 0c.5 0 .939.368.939.84v8.839h-.611v-8.84c0-.23-.204-.306-.332-.306-.134 0-.34.094-.34.378v5.81h-.611V3.16c0-.472.468-.911.955-.911zm5.359 0h-.01a11.117 11.117 0 0 1-.805.027c-.058.004-.062.077-.043.119.12.34.225.685.322 1.032H39.04c-.096.002-.194 0-.29.01l-.004.007c-.006-.022-.02-.042-.043-.047-.312-.21-.614-.435-.914-.662-.008-.001-.015-.004-.023-.004h-.005c-.03.02-.041.06-.058.091-.052.142-.096.287-.155.426-.041.106-.088.21-.12.32.015.03.041.04.07.04a.289.289 0 0 0 .081-.017c.37-.079.75-.072 1.126-.077-.038.083-.054.175-.087.258-.016.048-.034.096-.044.146l-.01-.001-.01.001c-.46.178-.908.396-1.3.696a4.853 4.853 0 0 0-.536.467c-.004.069.074.09.125.11l.317.131c-.053.074-.067.17-.101.253-.178.52-.428 1.013-.637 1.521.001.042.04.063.078.063a1.357 1.357 0 0 1 .261-.03v-.001c-.015.057-.021.119-.047.173-.125.397-.33.763-.483 1.15-.008.041.032.067.07.067a.072.072 0 0 0 .031-.007c.189-.03.38-.058.571-.065-.022.053-.026.112-.043.167-.092.39-.227.776-.243 1.18-.004.264.028.526.07.786.072.426.2.841.367 1.24.001.037.035.06.068.06.02 0 .04-.01.051-.03.025-.053.032-.114.05-.17.096-.345.165-.698.196-1.056.03-.308.041-.618.04-.928-.014-.362-.1-.716-.156-1.073-.01-.054-.016-.11-.03-.162a5.043 5.043 0 0 1 .548.091c.058 0 .07-.077.044-.118-.155-.406-.313-.813-.444-1.228l.019.003c.158.029.316.066.475.075.05-.042.014-.11-.01-.155-.192-.417-.35-.855-.413-1.313-.02-.124-.02-.25-.04-.374.135.055.27.11.407.164.06-.015.062-.088.05-.136-.02-.297.042-.602.192-.86.127-.228.312-.415.5-.593.075.063.162.111.246.162l-.042.011c-.155.3-.286.611-.425.918-.017.043-.038.086-.044.132.023.037.062.045.102.045.025 0 .051-.003.074-.003h.004l.173-.004c-.02.06-.025.126-.044.185-.111.458-.221.917-.33 1.376.013.049.062.059.108.059l.039-.002.284-.01c-.026.075-.038.156-.063.231-.123.45-.249.901-.369 1.353.013.05.063.06.11.06a485.517 485.517 0 0 1 .496-.015.622.622 0 0 0-.017.075c-.095.413-.24.82-.262 1.246-.002.387.055.773.144 1.15.073.303.176.599.294.888.004.033.036.055.067.055a.054.054 0 0 0 .046-.025c.025-.045.03-.099.048-.147.128-.444.202-.903.225-1.364a6.99 6.99 0 0 0 .013-.738c-.026-.353-.105-.699-.162-1.047-.006-.035-.012-.07-.02-.104l.475-.016c.056-.044.025-.12.01-.176-.136-.483-.27-.967-.407-1.45.132-.004.265-.009.397-.015.056-.044.024-.12.008-.175l-.419-1.411c.142-.004.285-.007.427-.012.054-.036.027-.108.002-.153-.126-.287-.251-.575-.382-.86.094-.039.188-.079.28-.123.253.238.474.522.576.858.059.2.062.41.042.616.011.032.039.044.068.044a.143.143 0 0 0 .073-.02c.105-.045.211-.088.317-.132l-.003.003a3.733 3.733 0 0 1-.249 1.216c-.07.19-.157.372-.233.56-.005.04.033.064.07.064a.073.073 0 0 0 .037-.009c.14-.02.279-.048.418-.075-.027.077-.047.158-.078.234-.119.349-.253.692-.383 1.037-.01.04.027.076.065.076a4.165 4.165 0 0 1 .543-.091.41.41 0 0 0-.008.047c-.057.32-.12.64-.16.963a3.53 3.53 0 0 0-.013.606c.018.511.07 1.024.207 1.518.023.084.045.17.072.252a.06.06 0 0 0 .055.032.06.06 0 0 0 .06-.045c.197-.47.34-.964.405-1.47.036-.293.06-.593.003-.886-.057-.31-.149-.614-.223-.921-.012-.036-.018-.074-.03-.11.088.002.176.008.264.02.123.013.245.038.367.05.052-.016.048-.084.022-.12-.172-.414-.395-.81-.505-1.246l-.005-.023.061.001c.079.006.156.022.234.028.055-.024.042-.096.016-.137-.228-.519-.475-1.03-.651-1.57-.017-.042-.029-.089-.053-.126l-.004-.003c.143-.06.285-.119.427-.18.033-.057-.023-.112-.065-.145a5.075 5.075 0 0 0-1.206-.84 4.655 4.655 0 0 0-.514-.215c-.013-.039-.03-.078-.04-.116-.046-.13-.084-.264-.141-.389a.18.18 0 0 0 .037.003h.153c.329 0 .66.01.982.084.01.004.02.007.033.007.032 0 .067-.017.06-.053-.063-.196-.151-.383-.215-.579a2.724 2.724 0 0 0-.092-.238.08.08 0 0 0-.043-.005c-.302.22-.598.45-.911.656-.033.017-.075.05-.052.091a.608.608 0 0 0-.113-.008l-.114.002a.89.89 0 0 1-.05-.001h-.024a.055.055 0 0 0 .002-.02c.122-.365.245-.734.453-1.06.025-.032.007-.09-.033-.097l-.009-.001zm4.399 0c-.5 0-.939.368-.939.84v8.839h.611v-8.84c0-.23.204-.306.332-.306.134 0 .34.094.34.378v5.81h.611V3.16c0-.472-.468-.911-.955-.911zm-.912 11.233q-.24.24-.24.88 0 .654.24.894h-7.92q.24-.24.24-.894 0-.64-.24-.88zm-9.454-.493q-.347 0-.334.226-.013.267.334.267h.866q.32.24.32.88 0 .654-.32.894h-.853q-.36 0-.36.226 0 .267.347.267H44.61q.333 0 .333-.267 0-.226-.347-.226h-.853q-.32-.24-.32-.894 0-.64.32-.88h.867q.333 0 .333-.267 0-.226-.333-.226z"/><path d="M8.22.375c-9.625 0-9.625 17.25 0 17.25m0-17.25h36.724M8.22 17.625h36.724M52.632.375v17.25M44.944.375c9.625 0 9.625 17.25 0 17.25" fill="none" stroke="#000"/></svg>