<svg xmlns="http://www.w3.org/2000/svg" width="109.366" height="18"><path d="M3.73.474c.693 0 1.247.2 1.634.479.006.053.02.107.009.16-.05.248-.195.477-.396.63-.316.207-.697.267-1.057.356-.09.01-.019.031.031.04.23.04.707.099.971.099l.052-.001c.278-.032.54-.148.766-.311.079-.067.147-.15.205-.236.147.346.227.713.26.917.018.11.096.2.202.233 1.139.349 2.038 1.91 2.88 2.949 1.729 2.137 3.199 4.526 4.892 6.76-.937-.456-1.87-.916-2.81-1.374-1.92-1.01-3.92-1.816-5.604-3.09l-.008-.008c-.97-.808-1.963-1.66-2.339-2.793-.148-.92 1.757-2.577 1.542-2.646a.207.207 0 0 0-.064-.01c-.458 0-1.753 1.128-2.019 2.202-.003-.014-.01-.03-.014-.045-.073-.356-.154-1.256.068-1.98a.29.29 0 0 0 .01-.103 1.968 1.968 0 0 0-.123-.634c-.063-.17-.139-.344-.26-.765-.031-.108-.142-.328-.208-.345.186-.138.375-.28.645-.375a.434.434 0 0 0-.132.314c0 .23.164.415.365.415.2 0 .364-.186.364-.415V.894a.411.411 0 0 0-.255-.39c.053-.007.096-.019.154-.022.081-.006.16-.008.238-.008zm.67 7.763c.065.065.135.124.202.187.214.78.412 1.64.692 2.305.483 1.145 1.216 2.141 1.84 3.154a1.814 1.814 0 0 0-.385.27 6.831 6.831 0 0 0-.199.193 2.61 2.61 0 0 0-1.186-.897c.045-.723-.108-1.712-.34-2.787A34.903 34.903 0 0 0 4.4 8.237zm1.006.908c1.149.945 2.428 1.738 3.676 2.54-.018.91-.018 1.778.084 2.675a3.411 3.411 0 0 0-1.437-.736c-.02 0-.037.012-.057.012-.649-1.063-1.383-2.06-1.837-3.134-.156-.37-.293-.85-.429-1.357zm.407 5.254a2.5 2.5 0 0 1 .44.541.3.3 0 0 0 .257.14.29.29 0 0 0 .17-.053c.215-.156.347-.324.476-.446.047-.045.097-.08.148-.117l.149 2.722c-.213-.014-.435-.035-.637-.035-.264 0-.495.036-.633.172-.169-.134-.497-.164-.89-.164-.102 0-.207.002-.316.004l.836-2.764zM6.97 9.574c1.354.787 2.784 1.414 4.135 2.125a.244.244 0 0 0 .006.003c1.295.631 2.586 1.28 3.894 1.904.984 1.189 2.052 2.295 3.078 3.42l-2.15.362-4.267-4.635a.288.288 0 0 0-.037-.036c-1.499-1.137-3.152-2.082-4.66-3.143zM3.796 0c-.135 0-.273.005-.411.013C2.3.083 1.512.54 1.243 1.157c-.04.093-.146.314-.007.314a2.35 2.35 0 0 1 .341-.028c.418 0 .38.172.47.194.09.282.29.846.303 1.068-.244.86-.153 1.763-.064 2.198.15.732.63 1.584 1.261 2.38a.285.285 0 0 0 0 .166 35.3 35.3 0 0 1 .903 3.336c.251 1.168.393 2.277.317 2.823a.294.294 0 0 0 .221.328c.045.011.084.031.127.045l-.928 3.079a2.847 2.847 0 0 0-.593-.055c-.381 0-.756.05-1.064.05-.125 0-.24-.008-.34-.032a.546.546 0 0 0-.125-.012c-.436 0-1.428.306-1.34.879.15-.128.257-.159.375-.159.11 0 .23.027.405.027h.027c.254-.004.697-.083 1.053-.083.18 0 .338.02.438.08.236-.01.45-.013.649-.013.85 0 1.447.07 2.5.075a89.565 89.565 0 0 0 2.974-.079c.45.003.697.054.922.054h.04c.134-.004.265-.057.48-.057.123 0 .273.017.468.07-.25-.341-.877-.685-1.33-.685a.591.591 0 0 0-.302.071 5.081 5.081 0 0 0-.508-.022c-.22 0-.448.01-.678.02l-.157-2.83c.487.203.857.517 1.281 1.021a.295.295 0 0 0 .513-.246c-.192-1.039-.213-2.019-.202-3.06.54.354 1.072.713 1.576 1.094l4.36 4.738a.29.29 0 0 0 .263.09c.95-.159 1.9-.315 2.849-.474a.294.294 0 0 0 .23-.193.298.298 0 0 0-.06-.297c-.741-.83-1.508-1.631-2.25-2.445 1.269.78 2.875 1.755 3.08 1.755.022 0 .027-.013.012-.04-.094-.163-.9-.755-1.775-1.373.14.058.276.12.415.177l.017.01c.103.035.16.059.27.062a.286.286 0 0 0 .108-.016.317.317 0 0 0 .188-.152.32.32 0 0 0 .023-.238c-.017-.05-.038-.077-.054-.098-.061-.085-.103-.109-.162-.154a4.553 4.553 0 0 0-.205-.149c-.153-.105-.336-.223-.493-.328a4.992 4.992 0 0 1-.328-.233.307.307 0 0 0-.028-.025l-3.892-2.736c-.008-.006-.02-.001-.028-.006-1.333-1.869-2.588-3.825-4.046-5.627C9 4.496 8.145 2.888 6.758 2.352 6.69 1.956 6.54 1.225 6.003.703 5.547.26 4.888.056 4.147.011A5.728 5.728 0 0 0 3.796 0zM38.56 2.634q.3 0 .3.313V5.35h-.91l.298-2.532q.014-.185.313-.185zm.015-.384q-.725 0-.768.412-.299 2.689-.64 2.703l-6.6.242-.682-.029q-.768-.81-1.365-.81l-.441-.029q-1.209.228-1.45.228-.171 0-.171.227 0 .313.483.313.83-.132 1.274-.132.08 0 .148.004.242 0 .399.2-.278.342-1.242.342l-.152-.002q-1.095-.028-1.935-.284-.412 0-.412.484.043.44 3.086.455l1.351-.143 7.71-.042 2.161.028v-3.47q-.014-.697-.754-.697zm-12.01 5.675l-1.824 2.156h.89l.934-1.114.943 1.114.916-1.114.944 1.114.934-1.114.943 1.114.934-1.114.944 1.114.916-1.114.943 1.114.944-1.114.916 1.114.943-1.114.935 1.114h.889l-1.824-2.156-.943 1.042-.916-1.042-.944 1.042-.943-1.042-.916 1.042-.944-1.042-.934 1.042-.943-1.042-.934 1.042-.944-1.042-.916 1.042-.943-1.042zm4.975 3.927q1.485 0 3.262.976l-.438.705q-.971-.561-1.847-.773-.486-.113-.955-.113-.408 0-.803.086-.65.136-1.58.944l-.576-.623q1.289-1.202 2.937-1.202zm-1.288 1.544q-.054.096-.102.199-.123.294-.123.63 0 .314.123.594.102.24.26.438-1.116-.212-2.019-.3.561-.35.883-.76.328-.41.978-.8zm2.662-.048q.328.02 1.136.507.807.485 1.656.807-.61.041-1.355.267-.746.226-1.574.328.137-.143.26-.43.13-.288.13-.603 0-.335-.123-.63-.062-.13-.13-.246zm-1.312-.274q.213 0 .409.076.212.089.37.233.157.15.252.348.096.213.103.445.007.233-.082.445-.089.212-.233.37-.143.15-.362.246-.199.089-.431.095l-.034.001q-.214 0-.411-.083-.212-.082-.363-.232-.157-.144-.246-.35-.096-.204-.11-.43 0-.24.083-.445.082-.205.232-.37.15-.157.35-.253.204-.089.437-.095h.036zm-.13-1.641q-1.986 0-3.505 1.566l.014.014h-.014l.876.972-.103.102q-.602.67-1.266.746l-.013.424q1.505.137 2.962.397.54.096 1.132.096 1.012 0 2.173-.28 1.848-.452 2.347-.541h.814v-.534h-.848q-.493-.17-1.293-.622l.636-1.095q-2.141-1.245-3.912-1.245zm11.806-7.146q-.154.154 0 .284l-.438-.166.438-.118zm2.369-.012l.426.13-.426.166q.154-.13 0-.296zm-2.073-.012l.356.26-.38.072q.143-.13.024-.332zm1.777-.011q-.119.213.024.343l-.38-.071.356-.272zm.05-.097q-.124 0-.198.037-.255.13-.35.38.213.117.476.117.425 0 .981-.307-.606-.227-.91-.227zm-1.87 0q-.307 0-.928.239.555.302.979.302.272 0 .49-.125-.095-.248-.35-.379-.071-.036-.192-.036zm-1.89-.564q-.07 0-.157.08-.243.225.397 1.291l.118-.083-.19-.462.013-.379-.154-.023q.047.059.053.26.006.202.207.569l-.035.035q-.083-.154-.26-.55-.179-.397-.066-.551.043-.06.087-.06.07 0 .144.155l.035-.024q-.068-.258-.192-.258zm5.642 0q-.127 0-.203.258l.036.024q.073-.154.146-.154.045 0 .09.059.119.154-.059.55-.177.397-.272.551l-.036-.035q.202-.367.207-.569.006-.201.054-.26l-.142.023.012.38-.19.461.107.083q.651-1.066.408-1.29-.087-.081-.158-.081zm-5.567-.164q.102 0 .135.144.065.278.048.461-.013.133.13.133.057 0 .136-.02-.308.343-.024.628.071.39-.13.402h-.007q-.2 0-.526-.675-.332-.687-.012-.947.155-.126.25-.126zm5.493 0q.095 0 .25.126.32.26-.018.947-.332.675-.526.675h-.007q-.195-.012-.124-.402.272-.285-.024-.628.076.02.13.02.14 0 .13-.133-.011-.183.054-.461.034-.144.135-.144zm-1.813.248q-.073 0-.14.014-.414.089-.557.385-.13.403-.124.894.006.492.273.58.266.09.183.184-.046.052-.11.052-.051 0-.115-.034-.054-.03-.103-.03-.078 0-.14.077-.05.062-.102.062-.052 0-.105-.062-.066-.077-.143-.077-.048 0-.1.03-.06.034-.112.034-.064 0-.113-.052-.089-.095.178-.184.266-.088.272-.574.006-.486-.112-.9-.119-.296-.515-.385-.063-.014-.134-.014-.38 0-.997.399l-.024.178q.583-.363 1.012-.363.286 0 .504.161.248.924-.036 1.35-.485.119-.331.391.09.16.251.16.112 0 .258-.077.124.154.246.154.121 0 .24-.154.15.078.265.078.165 0 .256-.16.154-.273-.344-.392-.225-.426-.024-1.35.227-.169.52-.169.427 0 .996.359l-.035-.178q-.556-.387-.938-.387zm-.627 2.564q.133 0 .333.073-.338.113-.687.113-.31 0-.627-.09.229-.092.373-.092.095 0 .154.04.074.05.146.05.073 0 .144-.05.062-.044.164-.044zm-.981.192q.337.124.695.124.359 0 .738-.124-.391.26-.758.278l-.042.001q-.343 0-.633-.28zm.402-.344q-.284.06-.64.26.32.392.628.463.128.03.263.03.192 0 .4-.06.356-.1.522-.444-.38-.19-.628-.237l-.272.107-.273-.119zm1.173-2.913q.52.497 1.255.947.13.344.06.45-.072.107-.143.628-.367.829-.68 1.362-.315.533-.652.752-.147.095-.306.095-.207 0-.434-.16-.273.187-.476.187-.106 0-.194-.05-.254-.149-.675-.652-.42-.504-.74-1.534-.07-.521-.136-.622-.065-.1.053-.456 1.042-.462 1.256-.924.442.184.881.184.467 0 .93-.207zm-.9 4.31q.31.217.552.217.064 0 .123-.015l.237 1.552h-1.848l.26-1.552q.06.015.123.015.243 0 .553-.216zm0-5.234q-1.883 0-2.393 1.682.048-.51-.248-.658-.072-.035-.146-.035-.23 0-.476.35-.326.461.503 1.646.151.325.308.325h.006q.16-.006.22-.16.33 1.398 1.326 2.073l-.332 1.99h2.416l-.284-1.99q.758-.699 1.326-2.073.06.154.22.16h.005q.157 0 .308-.325.83-1.185.498-1.647-.252-.35-.479-.35-.073 0-.143.036-.29.148-.231.658-.521-1.682-2.404-1.682zm-.415 8.562v4.938h.826v-4.938zm6.574-8.562c-.697 0-1.309.513-1.309 1.171V15.75h.852V3.421c0-.322.284-.427.463-.427.187 0 .475.131.475.527v8.103h.852V3.521c0-.66-.653-1.271-1.333-1.271zm6.159.362q1.172 0 2.485.566-1.313.55-2.485.55-1.164 0-2.485-.55 1.321-.566 2.485-.566zm0-.362q-1.447 0-3.326.92 1.88.912 3.326.912 1.447 0 3.326-.912-1.871-.92-3.326-.92zm-.001 2.815c.45 0 .85.207 1.11.531h-2.218c.26-.324.66-.531 1.109-.531zm1.26.76c.085.163.14.345.157.538h-2.832c.017-.193.072-.375.157-.538zm.158.767a1.414 1.414 0 0 1-.149.537h-2.536a1.414 1.414 0 0 1-.15-.537zm-.294.766a1.42 1.42 0 0 1-2.246 0zm-1.123-2.522c-.91 0-1.65.74-1.65 1.65 0 .91.74 1.65 1.65 1.65.91 0 1.65-.74 1.65-1.65 0-.91-.74-1.65-1.65-1.65zM54.002 8.89v.389h5.558V8.89zm0 .811v.397h5.558v-.397zm3.497 1.377v.566h-1.436v-.566zm-1.749 0v.575h-1.436v-.575zm3.498 0v.575h-1.436v-.575zm-5.246-.7v5.372h.312v-3.793h.566v3.793h.304v-3.793h.575v3.793h.304v-3.793h.566v3.793h.304v-3.793h.566v3.793h.313v-3.793h.566v3.793h.304v-3.793h.566v3.793h.312v-5.373h-.312v.397h-1.436v-.397h-.313v.397h-1.436v-.397h-.313v.397h-1.436v-.397zM64.24 2.693c.504 0 .845.075 1.13.397.391.39.466.968.43 1.494-.008 1.209-.222 2.408-.575 3.562-.277.95-.609 1.883-.911 2.825h-.147c-.013-.046-1.444-3.967-1.508-6-.011-.593-.096-1.263.31-1.756.25-.344.756-.522 1.27-.522zm.311 8.719v.513a.22.22 0 0 0 .146.207c.128.046.246.13.367.228H63.27c.121-.099.239-.182.367-.228a.22.22 0 0 0 .146-.207v-.513zm1.233 1.857c.045.092.052.276.04.405h-3.281a1.544 1.544 0 0 1-.017-.405zm-.349 1.365c-.238.353-.713.675-1.213.675a1.701 1.701 0 0 1-1.321-.675zM64.262 2.25c-.956 0-2.052.551-2.052 1.684-.055.692.014 1.388.086 2.077.217 1.713.863 3.327 1.394 4.96h-.012c-.071 0-.335.007-.335.22v.589c-.302.148-.512.375-.716.542h-.657a.22.22 0 0 0-.22.22v.594c0 .118.137.215.255.22.054.1.063.189.076.281l-.247-.007h-.003a.23.23 0 0 0-.224.22v.57a.22.22 0 0 0 .22.221c.154 0 .506.008.568.008h.008c.275.632 1.016 1.101 1.819 1.101.78 0 1.458-.503 1.713-1.109h.573c.206 0 .22-.143.22-.22v-.571c0-.096.041-.214-.442-.214a1.11 1.11 0 0 0-.013-.275c.213-.014.312-.107.312-.225v-.594a.22.22 0 0 0-.22-.22h-.657c-.205-.167-.414-.394-.716-.542v-.589a.22.22 0 0 0-.215-.22c.005-.027 1.379-3.81 1.447-5.798.053-.749.126-1.59-.374-2.217-.312-.43-.64-.706-1.588-.706zm5.624.85q.366 0 .966.2 1.028.342 2.129 1.43 1.101 1.09.88 2.02-.22.93-.856 1.395-.525.384-1.268.384-.156 0-.322-.017-.955-.098-1.64-1.505-.685-1.407-.636-2.509.049-1.1.342-1.297.143-.102.405-.102zm-.1-.85q-.505 0-.819.217-.66.465-.734 1.91-.073 1.443.832 3.132.906 1.688 2.203 1.847.248.03.482.03.993 0 1.745-.544.93-.673 1.162-1.909.233-1.235-.991-2.618-1.224-1.383-2.643-1.836-.72-.229-1.238-.229zm1.256 8.502v4.998h.837v-4.998zM82.188 2.92v12.27h-5.356v-.592h2.709V7.326h1.666V2.92zm-1.557-.67v4.531h-1.666v7.334h-2.772v1.635h6.571V2.25zm7.184.45c.806 0 1.814.415 2.302.903.427.426.482.992.498 1.518h-5.576c.015-.526.071-1.092.498-1.518.488-.488 1.473-.902 2.278-.902zm0-.45c-.956 0-1.984.441-2.586 1.044-.618.618-.688 1.432-.688 2.04v.238h6.549v-.237c0-.61-.047-1.423-.665-2.04-.602-.604-1.654-1.045-2.61-1.045zm-1.73 6.594q.403 0 1.061.22 1.13.376 2.34 1.572 1.209 1.196.967 2.218-.242 1.021-.941 1.532-.577.422-1.393.422-.172 0-.354-.019-1.049-.107-1.801-1.653-.753-1.546-.7-2.755.054-1.21.377-1.425.157-.112.444-.112zm-.11-.933q-.554 0-.899.238-.725.511-.806 2.097-.08 1.586.914 3.441.995 1.855 2.42 2.03.272.033.53.033 1.09 0 1.916-.598 1.021-.74 1.277-2.097.255-1.357-1.09-2.876-1.343-1.519-2.902-2.016-.79-.252-1.36-.252z"/><path d="M22.116.375v17.25m0-17.25h2.625m-2.625 17.25h2.625m0-17.25h66.625m-66.625 17.25h66.625m0-17.25h17.625m-17.625 17.25h17.625M93.129.375v17.25M96.654.375v17.25M98.416.375v17.25M100.179 2.1h8.812m-8.812 3.45h8.812m-8.812-3.45v3.45m1.762-1.725h7.05m-8.812 3.45h8.812m-8.812 3.45h8.812m-8.812-3.45v3.45M101.941 9h7.05m-8.812 3.45h8.812m-8.812 3.45h8.812m-8.812-3.45v3.45m1.762-1.725h7.05" fill="none" stroke="#000"/></svg>