<svg xmlns="http://www.w3.org/2000/svg" width="79.352" height="18"><path d="M10.745 2.694c-.69 0-1.246.553-1.25 1.244v.007c0 .693.557 1.251 1.25 1.251s1.251-.558 1.251-1.251c0-.693-.558-1.251-1.25-1.251zm1.612 3.591c-.047.077-.114.144-.05.144a.306.306 0 0 0 .07-.012.289.289 0 0 0 .086.025c.053 0-.068-.102-.106-.157zm-1.103-.27c.288 0 .406.414.19.59a.258.258 0 0 1-.186.075.315.315 0 0 1-.31-.265c-.04-.187.098-.4.298-.4a.283.283 0 0 1 .008 0zm-.086-.247c-.033 0-.065 0-.097.002-.243.02-.51.125-.64.342-.053.291-.042.634.187.855.156.193.457.25.518.516.023.129-.053.337.089.337.018 0 .04-.003.066-.01.2-.295.38-.609.629-.866-.125-.132-.262-.339-.106-.502.105-.144.356-.38.032-.397-.14-.232-.424-.277-.678-.277zm-1.352.348c-.437.388-.583.986-.685 1.538-.042.247-.065.498-.09.747.223-.237.528-.463.861-.463a.725.725 0 0 1 .176.021c.202 0 .31.369.339.384l.11-.666c-.43-.149-.624-.611-.686-1.029a2.388 2.388 0 0 1-.025-.532zm.046 2.49a.724.724 0 0 0-.414.237c-.182.733-.117 1.494-.104 2.24-.012.27.03.55.016.826-.004 1.045-.216 2.078-.185 3.124l4.995.012-.643-1.316c.313-.742.702-1.452.999-2.202.128-.344.287-.696.287-1.07-.015-.115-.067-.157-.134-.157-.12 0-.288.136-.368.222-.625.602-1.132 1.314-1.633 2.02a19.472 19.472 0 0 0-1.285 2.096c.026-1.617.107-3.24-.097-4.85-.03-.352-.18-.678-.343-.987l-.018 2.25h-1.03c.01-.815.031-1.632-.043-2.444zm.883-6.356c.934 0 1.695.761 1.695 1.695a1.7 1.7 0 0 1-.751 1.406c.082.026.165.055.245.09.122.057.245.122.303.25.063.101.118.206.243.24.344.252.465.734.379 1.138a.066.066 0 0 1-.036.01c-.103 0-.279-.177-.352-.177a.033.033 0 0 0-.015.003c-.05.233-.217.408-.31.622a3.747 3.747 0 0 1-.626.832c.236.423.433.877.474 1.365.115.845.134 1.7.134 2.553.644-.882 1.305-1.764 2.107-2.51a.886.886 0 0 1 .572-.223.6.6 0 0 1 .403.145c.29.287.247.73.172 1.094-.215.926-.621 1.792-.983 2.666-.05.192-.262.402-.093.585.209.336.504.616.694.962.101.238.088.504.056.754l-6.49-.016c-.083-.846-.084-1.7.005-2.546.042-.746.056-1.492.088-2.239l-.439-.039c.094-1.1.127-2.208.33-3.295.128-.606.277-1.234.653-1.74.18-.215.412-.375.666-.487a1.693 1.693 0 0 1-.819-1.443v-.012a1.697 1.697 0 0 1 1.695-1.683zm10.877 0l-.014.001a15.506 15.506 0 0 1-1.122.037c-.08.005-.087.107-.06.165.168.474.313.956.45 1.44h-.02c-.134.003-.271 0-.404.013l-.007.01c-.008-.03-.029-.058-.06-.065a28.706 28.706 0 0 1-1.275-.923c-.01-.002-.02-.005-.032-.005h-.007c-.041.026-.057.084-.08.127-.073.197-.135.399-.216.593-.058.148-.123.294-.167.446.02.042.057.055.097.055.038 0 .08-.012.113-.022.515-.11 1.046-.1 1.57-.107-.052.115-.075.243-.122.36-.021.066-.046.134-.061.202a.092.092 0 0 0-.013 0l-.016.001c-.64.248-1.265.552-1.811.97a6.77 6.77 0 0 0-.749.652c-.005.096.104.127.176.154l.442.182c-.075.103-.094.236-.142.353-.248.726-.597 1.413-.888 2.122.002.058.056.087.109.087.02 0 .039-.004.055-.012.103-.019.206-.028.309-.03-.022.08-.03.165-.066.24-.174.555-.46 1.065-.674 1.604-.01.058.044.095.097.095a.1.1 0 0 0 .045-.01 6.45 6.45 0 0 1 .796-.092c-.03.074-.037.157-.06.234-.129.545-.317 1.082-.34 1.646-.004.367.04.733.098 1.095.1.595.28 1.174.512 1.73.002.051.05.083.095.083a.081.081 0 0 0 .072-.04c.034-.075.044-.16.07-.238.134-.481.23-.974.272-1.472.041-.43.058-.863.055-1.295-.018-.505-.138-.999-.216-1.497-.013-.075-.023-.152-.043-.226a7.034 7.034 0 0 1 .765.127c.08 0 .098-.107.062-.164-.217-.567-.438-1.134-.62-1.714l.026.005c.22.04.441.091.664.104.07-.058.02-.152-.014-.216-.269-.582-.489-1.193-.576-1.83-.028-.173-.028-.35-.058-.523.19.077.38.154.57.228.082-.02.086-.121.07-.19a2.105 2.105 0 0 1 .266-1.198c.178-.318.436-.58.698-.828.105.09.226.156.343.227l-.059.015c-.216.418-.398.852-.592 1.28-.024.06-.053.12-.062.184.032.052.086.063.143.063.035 0 .071-.004.104-.004h.005l.24-.006c-.026.083-.034.176-.06.259-.155.639-.309 1.279-.462 1.919.019.068.087.082.151.082a.648.648 0 0 0 .055-.003l.397-.014c-.037.105-.053.218-.089.323-.172.628-.346 1.257-.514 1.886.018.07.088.085.154.085a677.2 677.2 0 0 1 .691-.021.867.867 0 0 0-.024.103c-.132.577-.335 1.144-.366 1.74-.002.54.078 1.077.201 1.602.102.423.246.836.41 1.239.007.046.051.077.094.077.024 0 .049-.01.065-.035.035-.062.041-.137.066-.205a8.4 8.4 0 0 0 .314-1.902c.021-.343.034-.687.018-1.03-.035-.492-.147-.974-.225-1.46-.01-.048-.017-.097-.03-.145.222-.007.443-.014.664-.023.079-.06.035-.167.013-.245-.188-.674-.375-1.349-.567-2.021.185-.007.37-.014.554-.023.078-.06.034-.166.01-.243l-.583-1.969.595-.016c.075-.05.038-.15.003-.214-.176-.4-.35-.801-.533-1.199.132-.054.263-.11.39-.171.354.33.663.728.804 1.196.082.278.087.573.059.86.015.044.054.061.095.061a.2.2 0 0 0 .1-.03l.444-.182-.004.004a5.206 5.206 0 0 1-.348 1.696c-.097.265-.219.52-.325.78-.006.057.046.091.098.091a.102.102 0 0 0 .05-.013c.196-.029.39-.067.585-.105-.039.108-.066.221-.11.327-.165.486-.353.965-.534 1.445-.013.057.038.107.091.107a.08.08 0 0 0 .042-.011 5.81 5.81 0 0 1 .716-.116.57.57 0 0 0-.012.066c-.08.447-.167.892-.223 1.342a4.88 4.88 0 0 0-.018.846c.025.713.097 1.429.288 2.118.032.117.063.236.102.351a.08.08 0 0 0 .075.044c.038 0 .075-.021.084-.062a7.92 7.92 0 0 0 .565-2.05c.05-.41.083-.828.005-1.236-.08-.434-.208-.857-.311-1.285-.017-.05-.026-.104-.043-.153.124.003.247.011.37.027.17.018.34.054.511.069.073-.02.067-.116.031-.166-.24-.577-.551-1.13-.705-1.738l-.007-.032c.028 0 .057 0 .086.002.11.008.218.03.326.039.077-.034.058-.134.022-.192-.318-.723-.662-1.437-.908-2.19-.023-.058-.04-.124-.074-.176l-.006-.003c.2-.083.398-.166.596-.252.046-.08-.032-.156-.09-.201-.507-.462-1.064-.874-1.683-1.171a6.493 6.493 0 0 0-.716-.3c-.018-.055-.044-.11-.057-.163-.063-.181-.116-.368-.196-.542a.252.252 0 0 0 .052.004l.06-.001h.152c.46 0 .921.015 1.37.118.014.006.03.009.046.009.046 0 .093-.023.084-.074-.087-.273-.21-.534-.3-.807-.04-.112-.078-.225-.128-.332a.113.113 0 0 0-.06-.008c-.421.308-.834.628-1.27.916-.046.023-.105.07-.073.127v.001a.848.848 0 0 0-.157-.012l-.16.002a1.243 1.243 0 0 1-.068-.001h-.035a.077.077 0 0 0 .004-.029c.17-.508.34-1.022.63-1.476.036-.046.01-.127-.046-.137a.065.065 0 0 0-.011-.001zm11.198.293q.036 0 .075.01.215.059.124.358l-1.042 2.696h-.508l1.107-2.852q.085-.212.244-.212zm.86.217q.045 0 .094.015.247.071.091.37l-.95 2.462h-.508l1.002-2.617q.094-.23.271-.23zm-2.57 3.976q-.121 0-.278.043v.13q.155-.05.28-.05.108 0 .196.037.188.078.5.104l-.064-.065q-.287-.104-.456-.17-.077-.029-.178-.029zm.1.29l.234.078q-.13.052-.234.078.078-.065 0-.156zm-.195 0q-.04.078.026.17-.105-.027-.157-.053.013-.065.13-.117zm.065-.091q-.17 0-.235.13l-.117.065-.013.065.117.026q.096.059.23.059.196 0 .473-.124h.287v-.09h-.3q-.273-.131-.442-.131zm2.356-1.08l-.885 1.627q-.087.121-.162.121-.038 0-.072-.03l-.287-.182q.026-.092.209-.274.182-.182.078-.436-.06-.144-.226-.144-.129 0-.321.085-.416-.25-.735-.25-.03 0-.06.003-.026-.3-.09-.52zm-5.478-.941q.105 0 .218.016.065 0 .065.058 0 .059-.065.059-.833.117-.833 1.497 0 .73.325 1.25-.234-.182-.442-.182-.196 0-.547.143 0-.3.11-1.302.111-1.002.476-1.302.289-.237.693-.237zm2.981 1.682q.333 0 .87.287.117-.13.234-.13t.124.117q.006.117-.208.306-.215.189-.202.319l.039.013q-.04.286-.26.449-.222.163-.6.176l-.049.001q-.195 0-.172-.099.026-.11-.039-.189l.074.002q.365 0 .193-.125-.128-.093-.205-.093-.037 0-.062.021.052-.195-.208-.208.286-.482.442-.847h.029zM27.915 8.47q-.04.196-.092.196t-.078-.196zm3.958-.911l.378.234q.039.6.247.834-.112-.015-.21-.015-.075 0-.142.008-.156.02-.3.15-.142-.417-.325-.664.339-.248.352-.547zm-4.388.976q.039.013.143.157.104.143.195.143.105 0 .209-.143.104-.144.143-.157l-.352.665-.338-.665zm.338 1.185l.13.365q-.064.026-.13.026-.065 0-.13-.026l.13-.365zm.158.609q.284 0 .533.277-.47.013-.625.3-.13-.326-.326-.365-.195-.04.208-.176.108-.036.21-.036zm4.4-1.416q.508 0 .638.573.182.794.052 2.474-.156 1.927-.365 3.19l.157.234H28.54l.898-.364q-.39-1.914-.977-2.806-.585-.892-.195-1.152.124-.083.247-.083.264 0 .521.382l1.758 2.5.313-.026q.286-2.917.612-4.349.156-.573.664-.573zm.376-6.664q-.376 0-.506.44l-1.12 2.917h-.56q.156.52.156.924-.091.365-.345.73-.245.351.098.351h.026q-.091.13.026.156-.104.052-.026.11.078.06.065.255-.04.573-.306.93-.22.295-.399.295-.04 0-.076-.014-.093-.035-.155-.035-.077 0-.106.054-.052.098.137.202.067.037.159.037.166 0 .414-.122.384-.188.696-1.165h.365q.17.156.26.456-.468 1.51-.768 4.427l-1.758-2.474q-.143-.221-.364-.365-.078-.156-.378-.195-.325-.52-.325-.73 0-.142.162-.474.163-.332.306-.332v-.209q-.089-.08-.174-.08-.027 0-.053.009-.043.012-.085.012-.066 0-.13-.032 0-.195-.091-.495-.339-.755-.339-1.289 0-1.25.612-1.315.26 0 .26-.24 0-.242-.26-.242-.142-.023-.273-.023-.46 0-.795.284-.43.364-.54 1.38-.11 1.016-.098 1.706.56-.287.756-.287.442.117.442.521-.064.032-.13.032-.042 0-.085-.012-.026-.008-.053-.008-.085 0-.174.08v.208q.143 0 .306.332.162.332.162.475 0 .208-.325.73-.521.116-.209.377.313.273.508.65.04.548.502 1.329.462.781.84 2.292l-.99.43.065.507h5.56l-.573-.677q.417-4.05.293-5.176-.124-1.126-.567-1.243-.312-.313-.247-.677l.326-.586q.768.56.768 1.51v6.849h.286V8.901q0-1.133-.924-1.77l.846-1.524h-.599l.925-2.396q.195-.495-.176-.638-.178-.069-.333-.069-.169 0-.312.082-.09-.286-.527-.332-.038-.004-.073-.004zm9.214.001c-.109 0-.218.013-.329.04-.22.054-.458.177-.716.368h-5.182v1.146h5.182c.258.19.496.313.716.367a1.375 1.375 0 0 0 .654 0c.216-.054.432-.176.648-.367h.2c.207.19.42.313.641.367a1.381 1.381 0 0 0 .66 0c.22-.054.455-.176.704-.367h5.232V2.658h-5.232c-.25-.191-.484-.314-.704-.368a1.381 1.381 0 0 0-.66 0 1.48 1.48 0 0 0-.642.368h-.199a1.566 1.566 0 0 0-.648-.368 1.337 1.337 0 0 0-.325-.04zm0 5.019c-.109 0-.218.013-.329.04-.22.054-.458.177-.716.368h-5.182v1.146h5.182c.258.19.496.313.716.367a1.375 1.375 0 0 0 .654 0c.216-.054.432-.176.648-.367h.2c.207.19.42.313.641.367a1.381 1.381 0 0 0 .66 0c.22-.054.455-.176.704-.367h5.232V7.677h-5.232c-.25-.191-.484-.314-.704-.368a1.381 1.381 0 0 0-.66 0 1.48 1.48 0 0 0-.642.368h-.199a1.566 1.566 0 0 0-.648-.368 1.337 1.337 0 0 0-.325-.04zm6.068 5.637q-.301.302-.301 1.104 0 .82.3 1.121h-9.935q.301-.301.301-1.12 0-.803-.301-1.105zm-11.86-.618q-.435 0-.418.284-.017.334.418.334h1.088q.401.302.401 1.104 0 .82-.401 1.121h-1.07q-.453 0-.453.284 0 .335.435.335h13.783q.419 0 .419-.335 0-.284-.435-.284h-1.07q-.402-.301-.402-1.12 0-.803.401-1.105h1.087q.419 0 .419-.334 0-.284-.419-.284zm17.258-9.195q1.511.22 1.58 1.382v8.382q-.707-.843-2.537-1.184l.957-8.58zm-.425-.843L51.88 12.272q2.52.289 3.135 1.8v1.678h.752V4.475q0-1.883-2.756-2.225zM70.65 4.03v1.756H57.72V4.03zM57.767 2.25v1.329h-.498v2.657h13.834V3.58h-.404V2.25h-.45v1.329h-1.116V2.25h-.45v1.329h-1.116V2.25h-.45v1.329h-1.092V2.25h-.475v1.329h-1.091V2.25h-.451v1.329h-1.115V2.25h-.451v1.329h-1.115V2.25h-.451v1.329h-1.092V2.25h-.45v1.329h-1.116V2.25zm1.198 5.829l-1.697 2.006h.828l.869-1.037.878 1.037.852-1.037.878 1.037.87-1.037.877 1.037.87-1.037.877 1.037.852-1.037.878 1.037.878-1.037.852 1.037.878-1.037.87 1.037h.827l-1.697-2.006-.878.97-.852-.97-.878.97-.878-.97-.852.97-.878-.97-.87.97-.877-.97-.87.97-.877-.97-.852.97-.878-.97zm-.446 5.77q-.08 0-.154.024-.291.094-.257.283.029.16.26.16.043 0 .091-.006.318-.034.558-.257-.268-.204-.498-.204zm.148-.174q.619 0 1.91.738.647.335 1.42.335.372 0 .774-.078 1.011-.206 2.125-.36.379-.052.733-.052.69 0 1.29.198.909.3 1.509.385.6.086 1.902.155-.84.085-1.645.085-.806 0-1.903-.18-.549-.09-1.056-.09-.508 0-.975.09-.935.18-2.126.335-.298.038-.586.038-.863 0-1.634-.347-.749-.511-1.556-.511-.356 0-.724.1-.326-.017-.291-.36.188-.463.805-.48h.028zm.458-1.748q-.37 0-.691 1.132-.269-1-.693-1-.063 0-.13.023-.514.325.343 1.251-.686.394-.686.994t1.011.669q.313-.082.611-.082.7 0 1.318.45.53.386 1.68.386.766 0 1.808-.171 1.28-.36 2.488-.36.459 0 .907.051 1.12.13 1.907.13.357 0 .647-.027 1.457-.034 1.457-.274-.395-.36-1.114-.48-1.526-.018-2.786-.532-.63-.257-1.545-.257-.915 0-2.115.257-.774.195-1.44.195-.915 0-1.628-.366-.737-.446-1.56-.737.685-.532.643-.883-.043-.352-.42-.369h-.012z"/><path d="M8.22.375c-9.625 0-9.625 17.25 0 17.25m0-17.25h62.882M8.22 17.625h62.882M78.79.375v17.25M71.102.375c9.625 0 9.625 17.25 0 17.25" fill="none" stroke="#000"/></svg>