<svg xmlns="http://www.w3.org/2000/svg" width="292.115" height="18"><path d="M3.73.474c.693 0 1.247.2 1.634.479.006.053.02.107.009.16-.05.248-.195.477-.396.63-.316.207-.697.267-1.057.356-.09.01-.019.031.031.04.23.04.707.099.971.099l.052-.001c.278-.032.54-.148.766-.311.079-.067.147-.15.205-.236.147.346.227.713.26.917.018.11.096.2.202.233 1.139.349 2.038 1.91 2.88 2.949 1.729 2.137 3.199 4.526 4.892 6.76-.937-.456-1.87-.916-2.81-1.374-1.92-1.01-3.92-1.816-5.604-3.09l-.008-.008c-.97-.808-1.963-1.66-2.339-2.793-.148-.92 1.757-2.577 1.542-2.646a.207.207 0 0 0-.064-.01c-.458 0-1.753 1.128-2.019 2.202-.003-.014-.01-.03-.014-.045-.073-.356-.154-1.256.068-1.98a.29.29 0 0 0 .01-.103 1.968 1.968 0 0 0-.123-.634c-.063-.17-.139-.344-.26-.765-.031-.108-.142-.328-.208-.345.186-.138.375-.28.645-.375a.434.434 0 0 0-.132.314c0 .23.164.415.365.415.2 0 .364-.186.364-.415V.894a.411.411 0 0 0-.255-.39c.053-.007.096-.019.154-.022.081-.006.16-.008.238-.008zm.67 7.763c.065.065.135.124.202.187.214.78.412 1.64.692 2.305.483 1.145 1.216 2.141 1.84 3.154a1.814 1.814 0 0 0-.385.27 6.831 6.831 0 0 0-.199.193 2.61 2.61 0 0 0-1.186-.897c.045-.723-.108-1.712-.34-2.787A34.903 34.903 0 0 0 4.4 8.237zm1.006.908c1.149.945 2.428 1.738 3.676 2.54-.018.91-.018 1.778.084 2.675a3.411 3.411 0 0 0-1.437-.736c-.02 0-.037.012-.057.012-.649-1.063-1.383-2.06-1.837-3.134-.156-.37-.293-.85-.429-1.357zm.407 5.254a2.5 2.5 0 0 1 .44.541.3.3 0 0 0 .257.14.29.29 0 0 0 .17-.053c.215-.156.347-.324.476-.446.047-.045.097-.08.148-.117l.149 2.722c-.213-.014-.435-.035-.637-.035-.264 0-.495.036-.633.172-.169-.134-.497-.164-.89-.164-.102 0-.207.002-.316.004l.836-2.764zM6.97 9.574c1.354.787 2.784 1.414 4.135 2.125a.244.244 0 0 0 .006.003c1.295.631 2.586 1.28 3.894 1.904.984 1.189 2.052 2.295 3.078 3.42l-2.15.362-4.267-4.635a.288.288 0 0 0-.037-.036c-1.499-1.137-3.152-2.082-4.66-3.143zM3.796 0c-.135 0-.273.005-.411.013C2.3.083 1.512.54 1.243 1.157c-.04.093-.146.314-.007.314a2.35 2.35 0 0 1 .341-.028c.418 0 .38.172.47.194.09.282.29.846.303 1.068-.244.86-.153 1.763-.064 2.198.15.732.63 1.584 1.261 2.38a.285.285 0 0 0 0 .166 35.3 35.3 0 0 1 .903 3.336c.251 1.168.393 2.277.317 2.823a.294.294 0 0 0 .221.328c.045.011.084.031.127.045l-.928 3.079a2.847 2.847 0 0 0-.593-.055c-.381 0-.756.05-1.064.05-.125 0-.24-.008-.34-.032a.546.546 0 0 0-.125-.012c-.436 0-1.428.306-1.34.879.15-.128.257-.159.375-.159.11 0 .23.027.405.027h.027c.254-.004.697-.083 1.053-.083.18 0 .338.02.438.08.236-.01.45-.013.649-.013.85 0 1.447.07 2.5.075a89.565 89.565 0 0 0 2.974-.079c.45.003.697.054.922.054h.04c.134-.004.265-.057.48-.057.123 0 .273.017.468.07-.25-.341-.877-.685-1.33-.685a.591.591 0 0 0-.302.071 5.081 5.081 0 0 0-.508-.022c-.22 0-.448.01-.678.02l-.157-2.83c.487.203.857.517 1.281 1.021a.295.295 0 0 0 .513-.246c-.192-1.039-.213-2.019-.202-3.06.54.354 1.072.713 1.576 1.094l4.36 4.738a.29.29 0 0 0 .263.09c.95-.159 1.9-.315 2.849-.474a.294.294 0 0 0 .23-.193.298.298 0 0 0-.06-.297c-.741-.83-1.508-1.631-2.25-2.445 1.269.78 2.875 1.755 3.08 1.755.022 0 .027-.013.012-.04-.094-.163-.9-.755-1.775-1.373.14.058.276.12.415.177l.017.01c.103.035.16.059.27.062a.286.286 0 0 0 .108-.016.317.317 0 0 0 .188-.152.32.32 0 0 0 .023-.238c-.017-.05-.038-.077-.054-.098-.061-.085-.103-.109-.162-.154a4.553 4.553 0 0 0-.205-.149c-.153-.105-.336-.223-.493-.328a4.992 4.992 0 0 1-.328-.233.307.307 0 0 0-.028-.025l-3.892-2.736c-.008-.006-.02-.001-.028-.006-1.333-1.869-2.588-3.825-4.046-5.627C9 4.496 8.145 2.888 6.758 2.352 6.69 1.956 6.54 1.225 6.003.703 5.547.26 4.888.056 4.147.011A5.728 5.728 0 0 0 3.796 0zm20.383 3.383q-.542 0-.628.418v.025q.061.11.258.11.567-.245.567-.455v-.024q0-.05-.197-.074zm1.97-.763q-.086.48-.85 1.034l.271.11.37-.135.184.123q1.416.677 3.755.714l3.67.037.049-.001q.627 0 .61.919-.02.954-.647 1.914-.394 0-.8-.302-.407-.301-.665-.708-.259-.406-.665-1.058.123 1.292.738 2.031-.75 0-1.335.142-.293.07-.488.07-.196 0-.294-.07-.123-.088-.61-.088-.295 0-.726.032-.332.025-.607.025-.668 0-1-.148-.308-.258-.388-.905-.08-.646.363-1.791-.91.652-.91 1.982v.443q-.456-.468-.715-1.034Q24.954 4.7 24.08 4.7q-.332 0-1.28.419-.32-.136-.259-.431l.616-.825q.443-.751.64-.837.099-.185.96-.185.37.099.37.271 0 .234-.246.468.467-.099.677-.554 0-.111.59-.406zm.53-2.62q-.06 0-.136.096-.936 1.49-1.7 2.068-.295.259-.8.27-.246 0-.75-.369-.752-.726-1.047-1.23-.333-.592-.431-.653-.05 0-.074.123 0 .702 1.428 2.598-.27.394-.505.898-.234.505-.554.77-.32.265.062.523 0 .32.53.517.43-.123 1.317-.381.53 0 .726.443.653.985.653 2.056.074 1.428-.985 2.733-.333.222-.333.616 0 .16.407.16.664 0 .664-.16l-.049-.332q0-.173.259-.259v-.025q0-.234.837-2.351.382 0 .603.37.283.935.283 1.55 0 .136-.172.58-.21.16-.258.578h.985l-.074-.308q-.05-.185.135-.32l-.086-.456q-.16-1.736-.16-2.043v-.025q.973-.234 1.496-.234t.806.19q.113.077.316.077.307 0 .823-.175.559-.189.858-.189.159 0 .244.054.246.154.246.523 0 1.354-.69 2.302-.22.222-.332.616h.85q.222-.074.098-.37.025-.32.296-.406 0-1.12.985-2.216.69.382.702 1.182 0 .308-.123.837l-.148.407q-.136.16-.246.603h.812q.148-.062.185-.135l-.123-.394q-.062-.173.172-.308-.123-.653.16-.985-.579-1.354-.579-2.13.308-1.268.394-2.376.148.775.037 1.859-.11 1.083.37 2.24.094.196.17.196.055 0 .1-.097.124-.702.05-3.878-.099-.394-.21-.604-.393-.603-.677-.628H30.52q-2.943 0-4.359-.837.234-.418.259-.572.024-.154 0-.376-.591.173-.887.456l-.246-.185q.258-.16.825-1.034.566-.874.665-1.367Q26.735 0 26.679 0zm6.525 13.464c.65.028 1.007.042 1.16.042h.07l-.084 3.397a4.983 4.983 0 0 1-1.292-.769l.146-2.67zm-9.476-.845c-.217.042-.504.174-.469.433v1.894a36.22 36.22 0 0 0-.978-.042c0 .238.196.56.804.56.007.537.104 1.194.202 1.53l.084.88c0 .098.168.126.35.126.216 0 .454-.042.454-.042l-.035-.88c3.452.027 10.036.202 10.364.202.168 0 .28-.182.28-.433l.084-3.795-2.076-.021-.168 2.956c-1.502.007-4.102.252-5.87.252-.56 0-1.042-.021-1.37-.091-.07-.077-.72-1.02-1.132-1.125a1.813 1.813 0 0 0-.245-.028c-.07-.573-.14-1.146-.203-1.712.126-.161.413-.12.49-.336.077-.105.028-.28-.12-.286-.083-.035-.314-.042-.412-.042zM39.153 0c-.93 0-1.745.684-1.745 1.562V18h1.135V1.562c0-.43.379-.57.617-.57.25 0 .634.175.634.703v10.804h1.136V1.695C40.93.815 40.06 0 39.153 0zm6.4.634q-.372 0-.372.438 0 .371.372.371.393-.022.393-.415 0-.394-.393-.394zM44.11.92v.393l-.852.153q.393-.415.852-.546zm.044.524q.502.394.175.59-.503-.175-.744-.459l.569-.13zm1.53-1.005q1.027 0 1.64.787.611.786.655 2.426 1.596.328 2.12 1.442.085.722-.325.722h-.025q-.437-.022-.688-.24-.092-.08-.138-.08-.082 0-.026.243.087.383.962.93.874.546.142.906-.182.09-.387.09-.622 0-1.46-.822-1.115-1.093-1.18-1.661-.066-.568.458-1.05.312-.285.215-.285-.067 0-.324.133-.634.328-.667.961-.032.634.503 1.388.536.754 2.11 1.913.16.084.364.084.432 0 1.056-.38.918-.556-.918-1.715.678-.175.7-.59.852.284 4.787 5.29 1.049.699 1.07 1.027-.021.306-.327.371-.066.014-.133.014-.248 0-.523-.188-1.224.59-2.372.612h-.12q-1.066 0-1.77-.372.721.634.502 1.333-.106.34-.16.34-.058 0-.058-.383 0-.744-1.902-1.421v.83q-.112.47-.178.47-.063 0-.084-.426-.131-.94-.623-2.022-.492-1.082-1.563-2.994-1.07-1.913-1.366-2.754-.295-.842-.273-1.563.022-.722-.295-1.06-.317-.34-.186-.733.131-.393-.394-.743V.897q.569-.46 1.18-.46zm4.153 12.59q1.07.306 1.07.721l-.72 2.689q-.088.48-.59.48h-.875v-.043l1.115-3.41v-.437zM45.763 0h-.08q-.852 0-1.726.7-.503.175-1.027.809.721.655 1.311.808.066.306.415.853.022 1.443.394 2.393.371.951 2.492 5.104 1.049 2.186 1.049 2.689 0 .765-.962 3.431 0 .153-1.311.24-1.968.066-1.968.547 0 .284.263.284h5.814q.546-.437.612-.743.525.219.568.59.074.295.21.295.025 0 .053-.01.174-.066.174-.285-.153-.59-.765-1.136l.7-2.951q2.12-.066 3.694-.678.291.066.534.066.486 0 .777-.262.438-.394-.174-1.224-1.334-1.334-2.536-2.93-2.47-3.038-3.388-3.518-.306-.634-.732-1.006-.426-.371-1.541-.918-.022-1.29-.601-2.23Q47.446 0 45.762 0zm21.309 0c-.138 0-.277.017-.417.051-.28.069-.583.225-.91.467h-6.58v1.455h6.58c.327.243.63.399.91.467a1.698 1.698 0 0 0 .83 0c.275-.068.549-.224.823-.467h.253c.264.243.535.399.815.467a1.754 1.754 0 0 0 .838 0c.28-.068.578-.224.894-.467h6.644V.518h-6.644c-.316-.242-.614-.398-.894-.467a1.754 1.754 0 0 0-.838 0c-.28.069-.551.225-.815.467h-.253c-.274-.242-.548-.398-.822-.467A1.698 1.698 0 0 0 67.072 0zm1.386 9.853c1.19 0 2.251.55 2.942 1.41h-5.883a3.76 3.76 0 0 1 2.941-1.41zm3.34 2.017c.227.432.372.914.416 1.425h-7.512a3.75 3.75 0 0 1 .417-1.425zm.42 2.032a3.75 3.75 0 0 1-.395 1.425h-6.73a3.75 3.75 0 0 1-.394-1.425zm-.78 2.033a3.762 3.762 0 0 1-2.98 1.458 3.763 3.763 0 0 1-2.979-1.458zm-2.98-6.69a4.383 4.383 0 0 0-4.377 4.378A4.383 4.383 0 0 0 68.458 18a4.383 4.383 0 0 0 4.378-4.377 4.383 4.383 0 0 0-4.378-4.378zm21.539-7.949l-.017 2.847c-.782.44-2.37.405-3.48 1.502.11 1.084.33 2.002.316 2.757.014 1.138-.214 2.38-.625 3.723-.467 1.262-.585 1.641-.729 2.856l.398 1.588c0 .495-.266.743-.798.743l-.087-.002c-.387-.083-.872-.119-1.397-.119-.775 0-1.638.077-2.406.192h-.048c-.435 0-.66-.183-.672-.382l.895-.1c1.586-.163 1.713-.907 2.93-1.746.275-.452.344-.863.495-1.919.247-2.729.356-4.412.329-6.195-.082-.22-.123-1.019-.123-1.252 0-.33.164-.747.493-1.255 1.303-1.742 3.621-2.305 4.526-3.238zM90.701 0c-2.095 1.395-4.99 2.99-5.703 4.04-.425.412-.638.967-.638 1.667 0 .233.028 1.046.083 1.293-.069 5.17-.129 6.49-.639 7.6-1.394 1.137-1.161 1.638-2.54 1.704l-1.512.244c0 .865.446 1.41 1.337 1.452.991-.182 1.744-.31 2.258-.31.183 0 .335.016.458.052.466.137 1.376.205 1.87.205.52-.027.782-.486.782-1.378-.07-1.22-.428-.81-.246-2.436.823-2.222 1.263-4.209 1.263-5.731 0-1.043-.186-1.866-.213-2.469.837-.864 2.48-.768 3.44-1.317V0zm10.907 5.009l-.505.294q-2.604 3.193-4.18 5.461-1.071.589-1.554.935-.483.347-1.45.515-1.218.084-1.218.399v.294q-.014.084.84.084.427 0 1.072-.02.686-.183 1.148-.183.231 0 .406.046.525.136.861.136.336 0 .536-.178.2-.179.305-1.103 0-.252 1.743-1.964t1.996-2.595q0-.23.65-.588.232 0 1.051.904 1.596 1.932 2.174 2.751.578.82.158 1.061-.42.242-.84.651-.382.372-.797.372-.043 0-.086-.004-.924.147-.924.483v.21h2.164q.602-.322 1.06-.322.228 0 .42.08.578.242.893.242.483-.063.483-.399 0-.357-.336-.82-.525-.84-1.323-2.95-.798-2.112-2.668-3.057-1.092-.735-1.68-.735zM123.352.79q.731 0 1.48.082l-.02 6.032h-9.632q-.172-.345 1.513-.977-.383-.287-.708-.804.172-.594 2.01-.977-.44-.249-.766-.689.23-.383 2.107-.88-.269-.288-.517-.786 0-.325 1.962-.737 1.26-.264 2.57-.264zm-.084-.79q-.692 0-1.29.058-1.474.144-2.528.383-1.053.24-2.106 1.37.038.478.306.497-1.206.268-1.723 1.13.058.287.326.479-1.092.23-1.494 1.206.058.287.517.498-1.34.306-1.896 1.474.154.402.613.498h11.508V.125Q124.283 0 123.268 0zm-9.119 14.375c1.017 0 2.29.522 2.906 1.138.539.54.61 1.254.629 1.918h-7.04c.02-.664.09-1.379.629-1.918.616-.616 1.859-1.138 2.876-1.138zm0-.57c-1.207 0-2.505.558-3.266 1.319-.78.78-.869 1.808-.869 2.576v.3h8.269v-.3c0-.768-.058-1.796-.839-2.576-.76-.76-2.089-1.318-3.295-1.318zm10.393-3.668q.768 0 1.566.335l-1.517 1.537-1.557-1.537q.74-.335 1.508-.335zm-3.32 2.01l1.536 1.537-1.537 1.537q-.67-1.596 0-3.074zm6.64.08q.67 1.595 0 3.073l-1.537-1.537 1.537-1.537zm-1.202-1.302q.473.217.749.75l-2.089 2.108 2.07 2.069q-.257.512-.77.749l-2.068-2.07-2.03 2.03q-.512-.315-.749-.768l2.03-2.01-2.128-2.128q.216-.513.768-.73l2.109 2.109 2.108-2.109zm-2.069 4.572l1.537 1.537q-.749.335-1.517.335-.769 0-1.557-.335l1.537-1.537zm-.04-6.01q-2.03 0-3.202 1.32-1.172 1.32-1.172 2.897 0 1.774 1.37 3.025 1.369 1.251 2.965 1.271 1.931-.02 3.143-1.33 1.212-1.31 1.212-2.966l-.02.04q.02-1.498-1.192-2.878-1.212-1.38-3.103-1.38zM136.272 0c-.12 0-.128.377-.299.935-.195.635-.338 1.962-.789 2.22a.397.397 0 0 1-.203.052c-.134 0-.27-.05-.418-.05a.545.545 0 0 0-.168.025c-.212.068-.323.397-.545.436-.922.16-2.183.1-2.888.163-.452.04.756.93 1.965.93h.051c.251-.005.516-.017.779-.017.441 0 .877.032 1.237.18.352.146.768.567.763.981L135.61 18h1.358L136.9 4.281c-.002-.368 1.061-.618 1.2-.936.242-.553.118-2.995-.272-3.323a.021.021 0 0 0-.014-.006c-.176 0-.505 2.56-1.021 3.111-.053.056-.157.082-.247.082-.097 0-.177-.03-.162-.082.329-1.118.46-2.749-.054-3.105a.102.102 0 0 0-.057-.022zm5.172.51q-.54 0-.54.28 0 .281.45.291.45.01 1.221 1.031.78 1.021.78 3.014 0 1.992-.68 2.953-.67.951-.95 1.271v.581q1.05-.75 2.382-1.011.32-1.111.39-2.843.08-1.722-.47-3.004-.551-1.271-1.342-1.912-.79-.65-1.241-.65zm.28 10.903q-.54 0-.9.15.4.21.48.57.07.35.25.39.085.026.168.026.082 0 .162-.025.16-.04.23-.39.08-.36.491-.571-.37-.15-.88-.15zm0 1.461q-.37 2.403-.35 3.464.03 1.061.35 1.061.3 0 .32-1.06.02-1.062-.32-3.465zM141.424 0q.75 0 1.662.73.91.732 1.451 1.933.55 1.201.681 2.963.13 1.772-.49 3.744-1.873.37-2.493 1.142l.09.45q.17.02.34.09.45.1.54.51 0 .131-.09.211-.36 0-.53.52-.16.511-.41.511.04.43.23 1.562.2 1.121.15 2.683-.13.951-.83.951-.732 0-.862-.951-.04-1.562.15-2.683.19-1.131.24-1.562-.26 0-.42-.51-.16-.52-.53-.52-.08-.081-.08-.211.08-.41.64-.51.26-.07.45-.09l-.11-2.013q.471-.39 1.042-1.422.57-1.03.57-2.552t-.64-2.483q-.651-.971-1.192-.971-.55 0-.55-.771 0-.751.99-.751zm5.815 5.325v7.35h.735v-7.35zm4.37 0v7.35h.735v-7.35zM156.521 0l-2.177 2.573h1.062l1.115-1.33 1.126 1.33 1.094-1.33 1.125 1.33 1.116-1.33 1.126 1.33 1.115-1.33 1.126 1.33 1.093-1.33 1.126 1.33 1.126-1.33 1.094 1.33 1.125-1.33 1.116 1.33h1.061L169.913 0l-1.125 1.244L167.694 0l-1.126 1.244L165.442 0l-1.093 1.244L163.223 0l-1.115 1.244L160.982 0l-1.116 1.244L158.741 0l-1.094 1.244L156.52 0zm-1.511 4.395l-.016.003-.65.143c.093.77.392 1.516.889 2.114.445.542 1.068.973 1.773 1.072.24.022.483.03.725.03.25 0 .5-.008.75-.019.917-.048 1.834-.295 2.61-.798a5.17 5.17 0 0 0 1.208-1.101c.035-.033.08-.041.126-.041.042 0 .086.006.128.006a.274.274 0 0 0 .052-.004c1.208-.012 2.416-.034 3.624-.034.686 0 1.371.007 2.057.028a.133.133 0 0 1 .028-.004c.062 0-.074.104-.094.14-.498.564-.985 1.138-1.5 1.687l1.044.59c.567-.56.997-1.271 1.691-1.69.655-.335 1.41-.297 2.124-.36l.511-.044V4.706c-3.025.008-6.051.007-9.076.058-.114.003-.227.005-.34.005-1.42 0-2.83-.23-4.247-.298a11.08 11.08 0 0 0-.41-.008c-.304 0-.607.014-.907.052-.3.073-.422.387-.566.625a6.44 6.44 0 0 1-.223.364c.027.014.054.02.08.02.109 0 .204-.108.306-.146.242-.138.507-.278.791-.278.039 0 .077.002.117.008 1.126.019 2.242.18 3.362.286-.23.501-.75.776-1.243.962a7.976 7.976 0 0 1-2.763.518c-.511-.039-.92-.413-1.21-.808-.37-.494-.568-1.088-.752-1.671zm3.32 6.185a3.43 3.43 0 0 1 2.68 1.284h-5.358a3.425 3.425 0 0 1 2.678-1.283zm3.042 1.837c.206.394.339.833.379 1.298h-6.84c.04-.465.172-.904.379-1.298zm.382 1.851a3.4 3.4 0 0 1-.36 1.298h-6.127a3.415 3.415 0 0 1-.36-1.298zm-.71 1.851a3.426 3.426 0 0 1-2.714 1.328 3.426 3.426 0 0 1-2.712-1.328zm-2.714-6.091a3.992 3.992 0 0 0-3.986 3.986A3.991 3.991 0 0 0 158.33 18a3.992 3.992 0 0 0 3.987-3.986 3.992 3.992 0 0 0-3.987-3.986zm9.784 4.486c.978 0 2.202.502 2.795 1.095.518.518.586 1.205.605 1.844h-6.77c.018-.639.086-1.326.604-1.844.593-.593 1.788-1.095 2.766-1.095zm0-.548c-1.16 0-2.409.536-3.14 1.268-.75.75-.836 1.739-.836 2.478V18h7.952v-.288c0-.74-.056-1.727-.807-2.478-.731-.732-2.009-1.268-3.169-1.268zM186.29.864c.665.029 1.03.043 1.186.043h.072l-.086 3.472a5.093 5.093 0 0 1-1.321-.786l.15-2.729zM176.606 0c-.221.043-.514.179-.479.443v1.936a37.019 37.019 0 0 0-1-.043c0 .243.2.571.822.571.007.55.107 1.222.207 1.564l.086.9c0 .1.171.129.357.129.221 0 .464-.043.464-.043l-.036-.9c3.529.029 10.258.207 10.593.207.172 0 .286-.185.286-.443l.086-3.878-2.122-.022-.171 3.022c-1.536.007-4.193.257-6 .257-.572 0-1.064-.021-1.4-.093-.072-.078-.736-1.043-1.157-1.15a1.853 1.853 0 0 0-.25-.028 147.77 147.77 0 0 1-.207-1.75c.128-.165.421-.122.5-.343.078-.107.028-.286-.122-.293-.086-.036-.321-.043-.421-.043zm4.52 6.911v5.164h.865V6.911zm7.099 6.976q.312 0 .312.327v2.51h-.95l.312-2.644q.014-.193.326-.193zm.015-.4q-.757 0-.802.43-.312 2.806-.668 2.82l-6.89.253-.712-.03q-.802-.846-1.425-.846l-.46-.03q-1.263.238-1.515.238-.178 0-.178.238 0 .326.505.326.866-.138 1.33-.138.084 0 .154.005.253 0 .416.208-.29.358-1.296.358l-.159-.002q-1.143-.03-2.02-.297-.43 0-.43.505.045.46 3.222.475l1.41-.148 8.048-.045 2.257.03v-3.623q-.015-.728-.787-.728zM198.199 0c-.126 0-.252.016-.379.047-.253.062-.528.203-.825.423h-5.968v1.32h5.968c.297.22.572.36.825.423a1.584 1.584 0 0 0 .754 0c.248-.062.497-.203.746-.423h.23c.238.22.485.36.738.423a1.59 1.59 0 0 0 .76 0c.254-.062.524-.203.811-.423h6.026V.47h-6.026c-.287-.22-.557-.361-.81-.423a1.59 1.59 0 0 0-.76 0c-.254.062-.5.203-.74.423h-.23c-.248-.22-.497-.361-.745-.423a1.54 1.54 0 0 0-.375-.047zm4.045 4.413c.249.047.501.07.754.073-.351.801-.527 1.686-.452 2.56a7.729 7.729 0 0 0 3.065.596c.449 0 .912-.028 1.41-.074-.82 1.926-2.041 3.178-3.686 4.408l-.358-.462c.658-.74 1.538-1.847 1.501-2.85-.038-1.048-1.376-1.25-2.465-1.25a9.69 9.69 0 0 0-.365.006c.36-.96.64-1.972.596-3.007zm-6.162 5.98c1.06 1.206 1.937 2.581 2.72 3.978.164.205-.021.393-.157.588-.515-1.656-1.7-2.934-2.563-4.565zm-1.025-6.082c.088.417-.075.898-.387 1.04l.1.216c.39-.188.765-.75.821-1.255.534.032.68.439.763.91.1.323-.002 1.105.402 1.24 1.192.467 2.103 1.007 2.92 1.824 1.412 1.786 2.886 3.516 4.297 5.304.549.696 1.05 1.333 1.457 1.814-2.143-1.621-4.537-2.861-6.886-4.15-1.249-.687-2.44-1.248-2.44-2.76 0-.813 1.48-1.494 1.419-1.6-.005-.009-.022-.014-.05-.014-.303 0-1.858.584-1.858 1.815a2 2 0 0 0 .247.952h-.008c-1.705-.915-1.434-2.765-1.368-4.397-.71-.04-1.293-.431-1.966-.594.522-.068 1.042-.157 1.566-.211a.415.415 0 0 0-.248.158c-.009.174.186.25.375.25.185 0 .365-.072.348-.199a.474.474 0 0 0-.406-.217c.26-.038.607-.094.902-.126zm2.979 10.494c.153.376.232.774.319 1.169.248-.204.489-.413.693-.662-.133.73-.38 1.468-.982 1.468-.364 0-.532-.249-.299-1.003.11-.356.197-.696.269-.972zm-.653-3.615c2.432 1.311 4.84 2.635 7.141 4.174.542.444 1.025.94 1.352 1.403-.217.341-.63.458-1.012.484-1.947-.069-2.709-1.969-3.737-3.326l-.56-.688.097.881c.006.159.167.91-.072.91a.176.176 0 0 1-.07-.017l-.985-1.193c-.105.07-.204.15-.312.215-.489-1-1.203-1.93-1.842-2.843zm-2.1-7.39h-.035c-.5.005-1.01.094-1.496.14-.592.292-1.192.07-1.813.298-.449.203-.574.617-.76 1.03.264-.09.505-.125.732-.125.723 0 1.306.368 2.071.565-.001.388-.062.83-.09 1.273-.119 1.204.508 2.26 1.414 3.013.649 1.463 1.547 2.585 2.202 3.726a6.81 6.81 0 0 1-.061.327c-1.642.447-3.289.693-4.98.84-.398.057-1.38-.067-1.44.417-.037.3.41.36.835.36.263 0 .517-.023.64-.028 1.586-.05 3.16-.27 4.714-.58a27.613 27.613 0 0 1-.49 1.806 8.567 8.567 0 0 1-1.419.122 7.19 7.19 0 0 1-.615-.025c-.369 0-.774.637-1.171.977l8.076.064c-.206-.737-1.641-1.128-2.151-1.128a.703.703 0 0 0-.078.004c.18-.521.404-1.01.468-1.739.225.204.478.425.794.448.385-.03.542-.296.59-.644.875 1.463 1.852 2.658 3.644 2.833.62-.03 1.392-.304 1.559-.97.822-.048.219-.858-.086-1.175-.961-1.054-1.85-2.171-2.728-3.3 1.97-1.445 3.393-3.166 4.276-5.43a9.305 9.305 0 0 1-2.012.214c-.942 0-1.88-.131-2.814-.352-.04-.96.305-1.86.71-2.71a4.291 4.291 0 0 1-.442.021c-.562 0-1.119-.102-1.665-.234 0 .008.002.015.003.023.189 1.412-.263 2.77-.77 4.066.275-.029.62-.053.98-.053.884 0 1.849.146 2.031.723.235.741-.603 1.798-1.24 2.516-.847-1.09-1.702-2.173-2.62-3.198-.85-.85-1.811-1.424-3-1.9-.09-.22-.118-.534-.176-.879-.063-.376-.261-.991-.623-1.183a2.74 2.74 0 0 0-.963-.153zM214.655 0q-1.948.045-3.225 1.41-1.41 1.546-1.545 3.091 0 .359.403.359h18.722q.403 0 .403-.426 0-.425-.403-.425h-18.117q1.12-2.867 3.359-3.18h14.758q.403 0 .403-.426 0-.403-.403-.403zm-3.005 10.376l12.948 3.463c.83.273 1.458.587 1.894.931.435.345.8.71 1.113 1.084.304.384.456.82.456 1.306-.03.162-.223.253-.446.253a.74.74 0 0 1-.567-.253c-.546-1.792-1.569-2.683-3.037-2.683-.09 0-.182 0-.273.01-.699.07-1.377.101-2.045.101-1.812 0-3.503-.243-5.072-.739-2.137-.668-3.797-1.822-4.971-3.473zm-1.144-1.123c.162 1.893 1.538 3.482 4.14 4.768 1.782.881 3.787 1.326 6.014 1.326 1.023 0 2.086-.09 3.2-.273 1.022.101 1.68.476 1.984 1.134.283.456.405 1.195.476 1.792h2.46c.08-1.762-.213-2.187-.891-2.977-.668-.79-1.691-1.417-3.058-1.893l-14.325-3.877zm36.743-8.028c.941.04 1.458.06 1.68.06h.102l-.122 4.921c-.81-.334-1.306-.668-1.873-1.114l.213-3.867zM233.52 0c-.314.06-.73.253-.679.628V3.37a52.47 52.47 0 0 0-1.417-.06c0 .344.283.81 1.164.81.01.78.152 1.73.294 2.217l.121 1.275c0 .142.243.183.506.183.314 0 .659-.061.659-.061l-.051-1.276c5.001.04 14.538.294 15.014.294.243 0 .405-.263.405-.628l.121-5.497-3.006-.03-.243 4.282c-2.177.01-5.943.364-8.505.364-.81 0-1.508-.03-1.984-.131-.101-.112-1.043-1.478-1.64-1.63a2.64 2.64 0 0 0-.354-.04c-.102-.831-.203-1.661-.294-2.481.182-.233.597-.172.709-.486.111-.152.04-.405-.172-.415-.122-.05-.456-.061-.598-.061zm-.733 12.031c.04 0 .083.002.127.005.56.04 1.174.253 1.841.64-.667.414-1.28.637-1.84.67a1.777 1.777 0 0 1-.106.004c-.49 0-.728-.225-.715-.674-.013-.43.218-.645.693-.645zm0 3.983c.04 0 .083.001.127.004.56.04 1.174.254 1.841.64-.667.414-1.28.638-1.84.671a1.778 1.778 0 0 1-.106.004c-.49 0-.728-.225-.715-.674-.013-.43.218-.645.693-.645zm-.074-4.64l-.11.001c-.713.027-1.11.46-1.19 1.301.105.894.486 1.341 1.142 1.341h.029c.674-.013 1.618-.253 2.832-.72h11.568c.947.08 1.424.52 1.43 1.32.007.801-.47 1.288-1.43 1.461h-11.568c-1.103-.481-2.004-.722-2.703-.722-.037 0-.073 0-.11.002-.713.027-1.11.46-1.19 1.3.105.895.486 1.342 1.142 1.342h.029c.674-.014 1.618-.254 2.832-.72h11.052c1.36 0 2.296-.427 2.807-1.282.527-.88.527-1.76 0-2.641-.504-.843-1.42-1.264-2.748-1.264l-.184.003h-10.927c-1.103-.482-2.004-.723-2.703-.723zM254.179.696q.927 0 .927 1.222 0 1.075-.927 2.129-.928-1.054-.928-2.129 0-1.222.928-1.222zm0 4.7q.653 0 .653 1.412 0 .8-.653 1.475-.654-.674-.654-1.475 0-1.412.654-1.412zm0 4.257q.653 0 .653 1.413 0 .8-.653 1.475-.654-.674-.654-1.475 0-1.413.654-1.413zm0-9.653q-1.687 0-1.687 1.918-.02 1.201.559 1.886.58.685.516.917-.737.864-.737 2.087 0 1.012.864 2.17-.864.865-.864 2.088 0 1.011.864 2.15.105.273-.59 1.285-.696 1.012-1.434 3.499h.928q.463-1.644.822-2.35.358-.706.759-1.149.421.443.769 1.149.348.706.811 2.35h.949q-.696-2.487-1.423-3.499-.727-1.012-.6-1.286.842-1.138.842-2.15 0-1.222-.8-2.086.8-1.16.8-2.171 0-1.223-.716-2.087-.063-.232.506-.917t.569-1.886q0-1.918-1.707-1.918zm6.584 0l-2.055 2.43h1.002l1.053-1.256 1.063 1.256 1.033-1.256 1.063 1.256 1.053-1.256 1.063 1.256 1.053-1.256 1.063 1.256 1.032-1.256 1.063 1.256 1.063-1.256 1.033 1.256 1.063-1.256 1.053 1.256h1.002L273.408 0l-1.063 1.174L271.312 0l-1.063 1.174L269.186 0l-1.032 1.174L267.09 0l-1.053 1.174L264.975 0l-1.053 1.174L262.859 0l-1.033 1.174L260.763 0zm3.467 10.562v.563h-2.973v-.563zm-1.495 1.108q1.863 0 2.576.95.712.949.712 1.705-.018 1.178-.985 2.057-.967.88-2.303.88-1.354 0-2.322-.88-.967-.879-.967-2.04 0-.773.58-1.723.58-.95 2.709-.95zm-2.322-1.688V11.3q-.633.37-1.16 1.196-.528.827-.545 1.829 0 1.178.976 2.383.976 1.204 3.05 1.292 2.058-.088 3.043-1.292.984-1.205.984-2.365-.017-1.02-.545-1.856-.527-.835-1.178-1.204V9.982zm11.75 0c-.112 0-.223.01-.334.02-1.61.172-2.754 1.802-2.501 3.381.111 1.175.84 1.833 1.64 2.48 2.38 1.459 1.711.922 4.11 2.137l.385-.719c-2.855-1.336-3.199-1.549-4.09-2.136-.729-.587-1.306-1.235-1.255-2.217-.02-.679.384-1.377.84-1.711.365-.274.83-.436 1.286-.436.344 0 .668.081.951.284.72.354 1.114 1.529.588 2.268a1.396 1.396 0 0 1-1.114.597 1.03 1.03 0 0 1-.607-.192c-.365-.203-.638-.911-.264-1.306-.172-.183-.415-.405-.597-.405-.121 0-.213.09-.273.303-.405.972.243 2.076 1.215 2.34.172.05.344.08.516.08 1.114 0 2.146-.931 2.146-2.085.101-1.347-.972-2.582-2.318-2.663a3.272 3.272 0 0 0-.324-.02zM278.125 0l-.662.412 1.965 2.816v8.545h.733v-8.78L278.125 0zm9.342 1.364q-.166 0-.219.052-.046.053-.126.053v.06l.093.013q.103.103.273.103.126 0 .29-.056l.165.046.014-.12-.146-.012q-.212-.12-.344-.14zm.867-1.06q.305 0 .709.093.682.152.688.86.007.702-.397 1.027-.214.178-.389.178-.15 0-.273-.132-.12-.119-.047-.192.192-.06.18-.298.204-.251.204-.43.013-.312-.286-.312h-.025q-.132.014-.225.087-.586-.389-1.031-.389-.048 0-.095.005.193-.338.603-.45.168-.047.384-.047zm1.86 4.45q.259.53 1.014 1.543-.285-.192-1.397-.404l.384-1.14zm-2.745-3.731q.418 0 .892.36l-.047.133q.056.032.108.032.023 0 .045-.006.106-.278.238-.278l.03-.002q.128 0 .116.161 0 .166-.18.37 0 .184-.088.184-.014 0-.03-.004-.12-.027-.1-.133-.079.298.14.755l.324.709q.112.245.357.258.245.013.563.073.318.06.172.43-.145.37-.609 1.662l-.31-.146q-.325-.655-1.127-1.112-.152.146.06.384l-.238.523q-.047.311.238.49.397.179.874.179l.417.338-.119 2.185-1.192.265q-.933-2.987-1.112-3.245-.179-.258-.1-1.477-.033-.417.682-.417.742 0 .682-.337l-.092-.272q-.073-.252-.06-.311-.058-.016-.135-.016-.116 0-.275.036-.15.013-.26.013-.217 0-.27-.053-.08-.08-.053-.218l.212-.073q.073-.04.026-.133l-.298-.026q.106-.225-.026-.298l-.038.001q-.14 0-.14-.094.045-.086.184-.318.14-.231.338-.298.09-.028.177-.028.115 0 .227.048.199.08.377.126l.034-.08q-.166-.04-.345-.132-.172-.09-.32-.09-.15 0-.276.09.033-.12.093-.179.115-.03.234-.03zm-2.565 6.254l2.437 1.688-2.721.821q.092-1.887-.252-2.51zm4.35 1.589q.279 1.066-.33 1.854-.546.326-1.23.326-.468 0-1.002-.154-.547-.16-1.071-.16-.732 0-1.419.312.12-.417 1.947-1.364l3.106-.814zM288.43 0q-.212 0-.426.033-.742.086-1.086 1.02-.046.25-.225.47-.179.211-.232.47 0 .145.186.152.185.006.046.126-.06.013-.046.06.006.046.046.059-.086.093 0 .126.093.04.066.132-.02.1.033.245.053.152.53.152l.41-.06q-.026.1.034.24-1.192.012-1.484.516-1 .834-1.9 1.768-.179-.371-.814-1.014-.63-.635-.735-.933-.219-.649-.934-1.232-.159.12 0 .384l-.298.477q-.086.311.166.523.384.232.788.49 1.112 1.973 1.628 2.132.029.005.06.005.393 0 1.179-.7.778-.68.923-.68.051 0 .024.084 0 .43.178.735.18.305.874 2.768l-2.165-1.616q-.49-.443-.86-.443-1.04.013-.921.86l.37 2.642q-.787.192-.728 1.186-.357.072-.655.205-.24.104-.486.104-.052 0-.103-.005l-.036-.001q-.27 0-.382.293h10.522q-.269-.527-.728-.527-.095 0-.2.023-.1.023-.189.023-.442 0-.618-.546-.13-.413-.376-.413-.141 0-.32.135.478-.92.027-1.933.02-1.1.093-1.96 1.556.49 2.06.49.39-.04.39-.338-.344-1.338-1.59-2.986-.25-.504-1.29-.55-.18-.238-.192-.417.43-.1.721-.45.298-.351.292-1.14-.007-.78-.682-1.019Q288.907 0 288.43 0zm-6.796 13.104V18h.49v-4.896zm2.91 0V18h.49v-4.896zm2.911 0V18h.49v-4.896z"/></svg>