<svg xmlns="http://www.w3.org/2000/svg" width="69.462" height="18"><path d="M10.745 2.694c-.69 0-1.246.553-1.25 1.244v.007c0 .693.557 1.251 1.25 1.251s1.251-.558 1.251-1.251c0-.693-.558-1.251-1.25-1.251zm1.612 3.591c-.047.077-.114.144-.05.144a.306.306 0 0 0 .07-.012.289.289 0 0 0 .086.025c.053 0-.068-.102-.106-.157zm-1.103-.27c.288 0 .406.414.19.59a.258.258 0 0 1-.186.075.315.315 0 0 1-.31-.265c-.04-.187.098-.4.298-.4a.283.283 0 0 1 .008 0zm-.086-.247c-.033 0-.065 0-.097.002-.243.02-.51.125-.64.342-.053.291-.042.634.187.855.156.193.457.25.518.516.023.129-.053.337.089.337.018 0 .04-.003.066-.01.2-.295.38-.609.629-.866-.125-.132-.262-.339-.106-.502.105-.144.356-.38.032-.397-.14-.232-.424-.277-.678-.277zm-1.352.348c-.437.388-.583.986-.685 1.538-.042.247-.065.498-.09.747.223-.237.528-.463.861-.463a.725.725 0 0 1 .176.021c.202 0 .31.369.339.384l.11-.666c-.43-.149-.624-.611-.686-1.029a2.388 2.388 0 0 1-.025-.532zm.046 2.49a.724.724 0 0 0-.414.237c-.182.733-.117 1.494-.104 2.24-.012.27.03.55.016.826-.004 1.045-.216 2.078-.185 3.124l4.995.012-.643-1.316c.313-.742.702-1.452.999-2.202.128-.344.287-.696.287-1.07-.015-.115-.067-.157-.134-.157-.12 0-.288.136-.368.222-.625.602-1.132 1.314-1.633 2.02a19.472 19.472 0 0 0-1.285 2.096c.026-1.617.107-3.24-.097-4.85-.03-.352-.18-.678-.343-.987l-.018 2.25h-1.03c.01-.815.031-1.632-.043-2.444zm.883-6.356c.934 0 1.695.761 1.695 1.695a1.7 1.7 0 0 1-.751 1.406c.082.026.165.055.245.09.122.057.245.122.303.25.063.101.118.206.243.24.344.252.465.734.379 1.138a.066.066 0 0 1-.036.01c-.103 0-.279-.177-.352-.177a.033.033 0 0 0-.015.003c-.05.233-.217.408-.31.622a3.747 3.747 0 0 1-.626.832c.236.423.433.877.474 1.365.115.845.134 1.7.134 2.553.644-.882 1.305-1.764 2.107-2.51a.886.886 0 0 1 .572-.223.6.6 0 0 1 .403.145c.29.287.247.73.172 1.094-.215.926-.621 1.792-.983 2.666-.05.192-.262.402-.093.585.209.336.504.616.694.962.101.238.088.504.056.754l-6.49-.016c-.083-.846-.084-1.7.005-2.546.042-.746.056-1.492.088-2.239l-.439-.039c.094-1.1.127-2.208.33-3.295.128-.606.277-1.234.653-1.74.18-.215.412-.375.666-.487a1.693 1.693 0 0 1-.819-1.443v-.012a1.697 1.697 0 0 1 1.695-1.683zm11.19.23q.067 0 .127.03.103.052.147.177t0 .198q-.103.117-.206.125h-.03q-.091 0-.205-.037-.088.088-.205.22-.147.191-.397.602-.279.456-.41.647-.31-.177-.515-.177.925-1.145 1.197-1.439.272-.294.397-.33.052-.016.1-.016zm-1.988 2.24q.412.206.5.368.088.161.014.161-.073 0-.176.089-.073-.265-.338-.617zm-.102.427l.646 2.423q-.309 0-.646.235V5.147zm2.062-2.897q-.197 0-.418.194l-1.733 2.071q-.558-.088-.866-.617.206-.25.698-.705.492-.455.403-.602-.042-.088-.144-.088-.252 0-.869.544-.66.47-1.057.763-.206.191-.338.668-.132.478-.397 1-.264.52-.25.814.037.184.122.184.084 0 .217-.184.19-.323.455-.734.264-.411.66-.764.28-.19.53-.235.278.103.425.397v8.106q-.866.235-.896 1.131-.044.338.206 1.043.176.514.66.514-.322-1.219-.322-1.557.03-.675.587-.675.602 0 .632.675 0 .338-.309 1.557.485 0 .647-.514.25-.705.19-1.043.015-.896-.895-1.13V8.421q.455-.323 1.19-.426-.295-1.498-.58-2.056-.254-.494.233-.494.064 0 .14.009-.176-.69-.704-.881V4.5q.032-.003.065-.003.296 0 .64.238.22-.293.499-.778.294-.5.396-.631.103-.133.147-.147.084.03.16.03.186 0 .318-.185.183-.257.007-.499t-.397-.272q-.026-.003-.052-.003zm8.203.293c.024 0 .05.003.076.01.143.04.184.159.123.358l-1.041 2.696h-.508l1.107-2.852c.056-.141.138-.212.243-.212zm.86.217c.03 0 .062.005.095.015.165.048.195.171.09.37l-.95 2.462h-.508L30.7 2.99c.063-.153.153-.23.27-.23zM28.4 6.736c-.081 0-.174.014-.278.043v.13a.933.933 0 0 1 .28-.05c.072 0 .137.013.195.037.126.052.293.087.501.104l-.065-.065a27.78 27.78 0 0 1-.455-.17.494.494 0 0 0-.178-.029zm.1.29l.234.078a1.737 1.737 0 0 1-.235.078c.053-.043.053-.095 0-.156zm-.196 0c-.026.052-.017.109.026.17a.807.807 0 0 1-.156-.053c.009-.043.052-.082.13-.117zm.065-.091c-.113 0-.19.043-.234.13l-.117.065-.013.065.117.026c.064.04.14.059.23.059.13 0 .288-.041.473-.124h.286v-.09h-.299c-.182-.088-.33-.131-.443-.131zm2.357-1.08l-.885 1.627c-.058.08-.112.121-.162.121a.109.109 0 0 1-.073-.03l-.286-.182c.017-.061.087-.152.208-.274.122-.121.148-.267.078-.436-.039-.096-.114-.144-.226-.144a.834.834 0 0 0-.32.085c-.278-.166-.523-.25-.735-.25l-.06.003a2.686 2.686 0 0 0-.091-.52zm-2.497.74c.222 0 .512.097.87.288.078-.087.156-.13.234-.13.078 0 .12.039.124.117.004.078-.066.18-.209.306s-.21.232-.202.319l.04.013a.64.64 0 0 1-.261.449c-.148.109-.347.167-.599.176a.936.936 0 0 1-.049.001c-.13 0-.188-.033-.172-.099a.206.206 0 0 0-.04-.189l.075.002c.243 0 .307-.042.193-.125-.086-.062-.154-.093-.205-.093a.093.093 0 0 0-.062.021c.034-.13-.035-.2-.209-.208.191-.321.339-.604.443-.847h.029zm.935.965l.377.234c.026.4.109.677.248.834a1.596 1.596 0 0 0-.21-.015c-.05 0-.097.003-.142.008a.546.546 0 0 0-.3.15 2.489 2.489 0 0 0-.325-.664c.226-.165.343-.347.352-.547zm-3.892 2.77c.19 0 .366.092.532.277-.312.008-.52.108-.625.3-.087-.218-.195-.34-.325-.365-.13-.026-.061-.085.208-.176a.652.652 0 0 1 .21-.036zm4.4-1.416c.338 0 .55.191.637.573.122.53.14 1.354.052 2.474-.104 1.285-.225 2.348-.364 3.19l.156.234H25.83l.899-.364c-.26-1.276-.586-2.212-.977-2.806-.39-.595-.456-.979-.195-1.152a.443.443 0 0 1 .246-.083c.176 0 .35.127.522.382l1.758 2.5.312-.026c.191-1.944.395-3.394.612-4.349.104-.382.326-.573.664-.573zm.375-6.664c-.25 0-.419.147-.506.44l-1.12 2.917h-.56c.105.347.157.655.157.924a2.25 2.25 0 0 1-.345.73c-.164.234-.131.351.098.351h.025c-.06.087-.052.139.026.156-.069.035-.078.072-.026.11.052.04.074.125.065.255-.026.382-.128.692-.306.93-.146.197-.279.295-.398.295a.216.216 0 0 1-.077-.014.459.459 0 0 0-.154-.035c-.052 0-.087.018-.106.054-.035.065.01.133.137.202a.324.324 0 0 0 .158.037c.111 0 .25-.04.414-.122.257-.125.489-.514.697-1.165h.365c.112.104.2.256.26.456-.312 1.007-.569 2.482-.768 4.427l-1.758-2.474a1.217 1.217 0 0 0-.365-.365.758.758 0 0 0-.615-.308.995.995 0 0 0-.205.022v-2.8c0-.381-.134-.577-.404-.585a3.21 3.21 0 0 1 .639-.704c.074-.132.072-.198-.006-.198a.66.66 0 0 0-.242.081 8.5 8.5 0 0 0-.573.495c-.217.226-.34.393-.37.501l-.242.853c.005.14.027.21.067.21.032 0 .075-.043.129-.132.034-.113.082-.256.143-.43a.627.627 0 0 1 .351-.377c.148 0 .222.095.222.286v2.852c-.504.27-.645.451-.424.547.206.088.372.244.499.467.063.43.24.89.53 1.382.308.52.588 1.285.84 2.292l-.99.43.066.507h5.56l-.574-.677c.278-2.7.376-4.425.293-5.176-.082-.75-.27-1.165-.566-1.243-.208-.209-.29-.434-.247-.677l.325-.586c.512.373.768.876.768 1.51v6.849h.287V8.901c0-.755-.308-1.345-.925-1.77l.847-1.524h-.6l.925-2.396c.13-.33.072-.543-.176-.638a.927.927 0 0 0-.332-.069.618.618 0 0 0-.312.082c-.06-.191-.237-.302-.527-.332a.705.705 0 0 0-.074-.004zm7.673 0l-.014.001a15.506 15.506 0 0 1-1.122.037c-.08.005-.087.107-.06.165.168.474.313.956.45 1.44h-.02c-.134.003-.27 0-.404.013l-.007.01c-.008-.03-.028-.058-.06-.065a28.706 28.706 0 0 1-1.274-.923c-.011-.002-.022-.005-.032-.005h-.008c-.041.026-.056.084-.08.127-.073.197-.134.399-.216.593-.058.148-.122.294-.167.446.02.042.057.055.097.055.039 0 .08-.012.113-.022.516-.11 1.046-.1 1.57-.107-.052.115-.074.243-.122.36-.02.066-.046.134-.06.202a.092.092 0 0 0-.014 0l-.015.001c-.64.248-1.265.552-1.812.97a6.77 6.77 0 0 0-.749.652c-.005.096.104.127.176.154l.442.182c-.075.103-.094.236-.142.353-.248.726-.596 1.413-.887 2.122 0 .058.055.087.108.087.02 0 .039-.004.055-.012.103-.019.206-.028.31-.03-.022.08-.03.165-.067.24-.174.555-.459 1.065-.674 1.604-.01.058.045.095.098.095a.1.1 0 0 0 .044-.01 6.45 6.45 0 0 1 .796-.092c-.03.074-.036.157-.06.234-.128.545-.317 1.082-.34 1.646-.004.367.04.733.099 1.095.1.595.28 1.174.512 1.73.002.051.048.083.094.083a.081.081 0 0 0 .072-.04c.034-.075.045-.16.07-.238.134-.481.23-.974.272-1.472.042-.43.058-.863.056-1.295-.018-.505-.139-.999-.217-1.497-.013-.075-.023-.152-.042-.226a7.034 7.034 0 0 1 .764.127c.08 0 .099-.107.063-.164-.217-.567-.438-1.134-.62-1.714l.026.005c.22.04.44.091.663.104.07-.058.02-.152-.014-.216-.269-.582-.488-1.193-.576-1.83-.028-.173-.027-.35-.057-.523.189.077.378.154.569.228.082-.02.086-.121.07-.19a2.105 2.105 0 0 1 .267-1.198c.178-.318.435-.58.698-.828.104.09.225.156.343.227l-.06.015c-.216.418-.397.852-.591 1.28-.025.06-.054.12-.063.184.033.052.087.063.143.063.035 0 .071-.004.104-.004h.005l.241-.006c-.027.083-.034.176-.061.259a412.1 412.1 0 0 0-.461 1.919c.018.068.086.082.15.082a.648.648 0 0 0 .055-.003l.397-.014c-.037.105-.053.218-.089.323-.171.628-.346 1.257-.514 1.886.019.07.089.085.154.085a677.2 677.2 0 0 1 .691-.021.867.867 0 0 0-.024.103c-.132.577-.335 1.144-.365 1.74a6.87 6.87 0 0 0 .2 1.602c.102.423.247.836.41 1.239.007.046.051.077.094.077.025 0 .049-.01.065-.035.035-.062.042-.137.066-.205a8.29 8.29 0 0 0 .314-1.902 9.57 9.57 0 0 0 .019-1.03c-.036-.492-.147-.974-.226-1.46-.01-.048-.017-.097-.03-.145.222-.007.443-.014.664-.023.079-.06.035-.167.013-.245-.188-.674-.374-1.349-.567-2.021.185-.007.37-.014.555-.023.077-.06.033-.166.01-.243L37.4 6.449l.595-.016c.075-.05.039-.15.004-.214-.177-.4-.35-.801-.534-1.199.132-.054.263-.11.391-.171.354.33.662.728.804 1.196.081.278.087.573.058.86.016.044.054.061.096.061a.2.2 0 0 0 .1-.03l.443-.182-.004.004a5.206 5.206 0 0 1-.347 1.696c-.097.265-.22.52-.326.78-.006.057.047.091.098.091a.102.102 0 0 0 .051-.013c.195-.029.39-.067.584-.105-.039.108-.065.221-.109.327-.166.486-.354.965-.534 1.445-.014.057.038.107.09.107a.08.08 0 0 0 .042-.011 5.81 5.81 0 0 1 .716-.116.57.57 0 0 0-.012.066c-.08.447-.167.892-.223 1.342a4.98 4.98 0 0 0-.018.846c.026.713.097 1.429.288 2.118.033.117.064.236.102.351.014.03.045.044.076.044.037 0 .075-.021.083-.062a7.92 7.92 0 0 0 .566-2.05c.05-.41.083-.828.004-1.236-.08-.434-.208-.857-.31-1.285-.018-.05-.026-.104-.043-.153.123.003.246.011.369.027.171.018.34.054.512.069.072-.02.066-.116.03-.166-.24-.577-.55-1.13-.704-1.738L40.33 9.1c.029 0 .057 0 .086.002.11.008.218.03.327.039.076-.034.058-.134.021-.192-.318-.723-.662-1.437-.908-2.19-.023-.058-.04-.124-.074-.176l-.005-.003c.199-.083.397-.166.595-.252.047-.08-.032-.156-.09-.201-.507-.462-1.064-.874-1.683-1.171a6.493 6.493 0 0 0-.716-.3c-.018-.055-.043-.11-.057-.163-.063-.181-.116-.368-.196-.542a.252.252 0 0 0 .052.004l.06-.001h.153c.459 0 .92.015 1.37.118.013.006.03.009.046.009.045 0 .093-.023.083-.074-.087-.273-.21-.534-.3-.807-.039-.112-.078-.225-.128-.332a.113.113 0 0 0-.06-.008c-.42.308-.834.628-1.27.916-.046.023-.105.07-.072.127v.001a.848.848 0 0 0-.158-.012l-.16.002a1.243 1.243 0 0 1-.068-.001h-.035a.077.077 0 0 0 .004-.029c.17-.508.34-1.022.631-1.476.035-.046.01-.127-.046-.137a.065.065 0 0 0-.012-.001zm6.157 0c-.698 0-1.31.513-1.31 1.171V15.75h.853V3.421c0-.322.284-.427.462-.427.187 0 .475.131.475.527v8.103h.852V3.521c0-.66-.653-1.271-1.332-1.271zm4.141 0c-.697 0-1.309.513-1.309 1.171V15.75h.852V3.421c0-.322.284-.427.463-.427.187 0 .475.131.475.527v8.103h.852V3.521c0-.66-.653-1.271-1.333-1.271zm4.122.758l2.85.159c.05.551.024 1.167-.076 1.847a13.32 13.32 0 0 1-2.773-2.006zm3.092-.758c-.159 0-.322.103-.491.308l-3.078-.16c-.728.189-.876.48-.446.875.084-.018.159-.027.224-.027.16 0 .264.055.311.165.067.155.248.358.543.608.295.25 1.094.766 2.396 1.547.154.386.325.58.51.58.088 0 .178-.043.272-.127 1.853.799 3.642 1.357 5.369 1.675l.243-.191-.595-.632c-1.267-.11-2.917-.603-4.95-1.478a5.259 5.259 0 0 1-.035-2.155l3.446.23c.512-.128.55-.393.114-.794l-3.393-.142c-.142-.188-.289-.282-.44-.282zm.799 7.182q1.825 0 3.87.882-2.045.857-3.87.857-1.812 0-3.87-.857 2.058-.882 3.87-.882zm0-.563q-2.253 0-5.18 1.432 2.927 1.421 5.18 1.421 2.254 0 5.18-1.42-2.914-1.433-5.18-1.433zm0 4.591q1.825 0 3.87.882-2.045.857-3.87.857-1.812 0-3.87-.857 2.058-.882 3.87-.882zm0-.564q-2.253 0-5.18 1.433 2.927 1.421 5.18 1.421 2.254 0 5.18-1.42-2.914-1.434-5.18-1.434z"/><path d="M8.22.375c-9.625 0-9.625 17.25 0 17.25m0-17.25h52.992M8.22 17.625h52.992M68.9.375v17.25M61.212.375c9.625 0 9.625 17.25 0 17.25" fill="none" stroke="#000"/></svg>