<svg xmlns="http://www.w3.org/2000/svg" width="56.382" height="18"><path d="M10.599 2.68q-.387 0-.717.308-.33.308-.33.724 0 .387.28.71.28.322.767.322.459 0 .76-.337.3-.337.3-.695 0-.387-.3-.71-.301-.322-.76-.322zm1.275 2.91q.086 0 .1.1 0 .085-.1.085-.086 0-.1-.086.014-.1.1-.1zm0-.044q-.143 0-.143.143 0 .115.143.158.086-.014.172-.086-.043-.215-.172-.215zm-.37-.154q.106 0 .227.01-.129.073-.057.187.071-.114.2-.114.244 0 .244.3-.143.1-.129.187.014.086.043.114-.1.1-.186.516-.058 0-.072-.043.014-.444-.029-.587-.129-.258-.358-.265h-.02q-.215 0-.345.15-.136.158-.093.358.043.201.616.445v.028q-.889-.229-.81-.795.069-.491.769-.491zm-.39-.147q-.558 0-.63.688-.071.688 1.118.917-.2.086-.33.316-.128.229-.143.473.06.018.115.018.117 0 .215-.083.143-.122.344-.609.305-.832.73-.832h.158q-.018-.108-.082-.108-.037 0-.09.037-.032-.065-.126-.065-.07 0-.175.036.201-.215.201-.43l-.025.002q-.094 0-.133-.102-.007.005-.02.005-.07 0-.302-.12-.28-.143-.824-.143zm5.265 1.178q-.083 0-.184.048-.322.15-.222 1.24.817-.732.68-1.061-.093-.227-.274-.227zm-4.755 1.488q-.087 0-.194.071.373.258.344 1.305h.186q.015-.99-.129-1.233-.084-.143-.207-.143zM10.298 5.36q-.502.014-1.103 1.01-.602.996-.602 2.917h.43q.014-1.52 1.318-1.52v1.52h.287V7.15q-.817-.616-.33-1.791zm.69 2.758q-.035 0-.074.008v1.476h-.888V8.126q-.031-.006-.06-.006-.456 0-.456 1.482.157 3.912.544 4.916l-.33.716h4.744l-.988-.43q.487-2.135 1.089-3.146.602-1.01.272-1.24-.082-.057-.171-.057-.266 0-.589.516l-1.977 2.666h-.502l-.114-3.941q0-1.484-.5-1.484zM10.6 2.25q.674.014 1.082.466.408.451.408 1.01 0 .473-.215.745-.172.287-.415.445l.033-.001q.23 0 .511.187.316.215.287.287.041-.033.087-.033.034 0 .07.018.087.043.072.172.416.143.416.889-.183-.092-.266-.092-.02 0-.035.006-.287 0-.774 1.146.1.086.272.33.172.243.172.845v.932h-.358q.014.788.1 3.21l1.992-2.723q.416-.341.658-.341.083 0 .145.04l.76-1.519q-.53-.258-1.161-.3.028-.388.272-.689.516.387 1.003.588-.315-1.448.337-1.734.198-.087.362-.087.38 0 .584.46.294.659-.924 1.49.544.258 1.117.258-.014.401-.286.716-.387-.4-1.018-.602l-.501 1.749q.157.057.2.358.043.301-.537 1.376-.58 1.075-.939 2.637l1.046.587-.071.674H8.95l.501-1.232q-.43-1.892-.444-4.902l-.788-.014q0-2.537.702-3.633.629-.981.959-.981.038 0 .073.014-.817-.43-.86-1.29 0-.616.452-1.032.451-.416 1.053-.43zm14.26.293c.023 0 .049.003.075.01.143.04.184.159.124.358l-1.042 2.696h-.508l1.107-2.852c.056-.141.138-.212.244-.212zm.86.217c.03 0 .06.005.094.015.165.048.195.171.09.37l-.95 2.462h-.507l1.002-2.617c.063-.153.153-.23.271-.23zm-2.571 3.976c-.081 0-.174.014-.278.043v.13a.933.933 0 0 1 .28-.05c.072 0 .137.013.195.037.126.052.293.087.502.104l-.066-.065a27.78 27.78 0 0 1-.455-.17.494.494 0 0 0-.178-.029zm.1.29l.234.078a1.775 1.775 0 0 1-.234.078c.052-.043.052-.095 0-.156zm-.196 0c-.026.052-.017.109.026.17a.807.807 0 0 1-.156-.053c.009-.043.052-.082.13-.117zm.065-.091c-.112 0-.19.043-.234.13l-.117.065-.013.065.117.026c.064.04.14.059.23.059.13 0 .288-.041.473-.124h.287v-.09h-.3c-.182-.088-.33-.131-.443-.131zm2.357-1.08l-.885 1.627c-.058.08-.112.121-.162.121a.109.109 0 0 1-.073-.03l-.286-.182c.017-.061.087-.152.208-.274.122-.121.148-.267.078-.436-.039-.096-.114-.144-.226-.144a.834.834 0 0 0-.32.085c-.278-.166-.523-.25-.735-.25l-.06.003a2.686 2.686 0 0 0-.09-.52zm-2.497.74c.222 0 .512.097.87.288.078-.087.156-.13.234-.13.078 0 .12.039.124.117.004.078-.065.18-.209.306-.143.126-.21.232-.202.319l.04.013a.64.64 0 0 1-.26.449c-.148.109-.348.167-.6.176a.936.936 0 0 1-.049.001c-.13 0-.188-.033-.172-.099a.206.206 0 0 0-.04-.189l.075.002c.243 0 .308-.042.193-.125-.086-.062-.154-.093-.205-.093a.093.093 0 0 0-.062.021c.034-.13-.035-.2-.209-.208.191-.321.339-.604.443-.847h.029zm.935.965l.377.234c.026.4.109.677.248.834a1.596 1.596 0 0 0-.21-.015c-.05 0-.097.003-.142.008a.546.546 0 0 0-.3.15 2.489 2.489 0 0 0-.325-.664c.226-.165.343-.347.352-.547zm-3.892 2.77c.19 0 .367.092.532.277-.312.008-.52.108-.625.3-.086-.218-.195-.34-.325-.365-.13-.026-.061-.085.208-.176a.652.652 0 0 1 .21-.036zm4.4-1.416c.338 0 .55.191.638.573.121.53.138 1.354.052 2.474-.105 1.285-.226 2.348-.365 3.19l.156.234H20.58l.899-.364c-.26-1.276-.586-2.212-.977-2.806-.39-.595-.455-.979-.195-1.152a.443.443 0 0 1 .247-.083c.175 0 .35.127.521.382l1.758 2.5.312-.026c.191-1.944.395-3.394.612-4.349.105-.382.326-.573.664-.573zm.376-6.664c-.25 0-.42.147-.507.44l-1.12 2.917h-.56c.105.347.157.655.157.924-.06.243-.176.486-.345.73-.164.234-.13.351.098.351h.025c-.06.087-.052.139.027.156-.07.035-.079.072-.027.11.053.04.074.125.066.255-.026.382-.128.692-.306.93-.146.197-.28.295-.4.295a.216.216 0 0 1-.076-.014.459.459 0 0 0-.154-.035c-.051 0-.087.018-.106.054-.035.065.01.133.137.202a.324.324 0 0 0 .159.037c.11 0 .249-.04.414-.122.256-.125.488-.514.696-1.165h.365c.113.104.2.256.26.456-.312 1.007-.568 2.482-.768 4.427l-1.758-2.474a1.217 1.217 0 0 0-.364-.365.758.758 0 0 0-.616-.308c-.065 0-.133.007-.205.022v-2.8c0-.381-.134-.577-.403-.585a3.21 3.21 0 0 1 .638-.704c.074-.132.072-.198-.006-.198a.66.66 0 0 0-.242.081 8.5 8.5 0 0 0-.573.495c-.217.226-.34.393-.37.501l-.242.853c.005.14.028.21.068.21.031 0 .074-.043.128-.132.034-.113.082-.256.143-.43a.627.627 0 0 1 .351-.377c.148 0 .222.095.222.286v2.852c-.504.27-.645.451-.423.547.205.088.371.244.498.467.063.43.24.89.53 1.382.308.52.588 1.285.84 2.292l-.99.43.066.507h5.56l-.573-.677c.277-2.7.375-4.425.293-5.176-.083-.75-.272-1.165-.567-1.243-.208-.209-.29-.434-.247-.677l.325-.586c.512.373.769.876.769 1.51v6.849h.286V8.901c0-.755-.308-1.345-.925-1.77l.847-1.524h-.6l.925-2.396c.13-.33.072-.543-.175-.638a.927.927 0 0 0-.333-.069.618.618 0 0 0-.312.082c-.06-.191-.236-.302-.527-.332a.705.705 0 0 0-.073-.004zm4.223 0c-.252 0-.503.02-.746.05-.336.084-.164.469.134.469.02 0 .04-.002.062-.006.63.073 1.404.113 1.88.47.63.687.347 2.115.42 2.794.005.036.007 2.74.007 4.109a4.609 4.609 0 0 0-2.866-.352c-.331.174.057.397.317.397a.34.34 0 0 0 .085-.01c.92.1 1.966.346 2.433 1.201.046.155.017.208-.053.208-.155 0-.51-.257-.71-.257l-.03.002a5.651 5.651 0 0 0-1.185-.126c-.292 0-.582.023-.862.072-.315.208.072.4.329.4a.399.399 0 0 0 .078-.007c.94.113 1.978.367 2.433 1.224.005.953 0 1.582.025 2.458-.011.27.164.404.342.404.176 0 .355-.132.356-.394-.007-.864-.068-1.621.045-2.459.228-.939 1.858-1.083 2.87-1.315.22-.26-.214-.356-.494-.356a.916.916 0 0 0-.112.006 5.09 5.09 0 0 0-.391-.015c-.662 0-1.329.131-1.918.435-.024-.566.533-.892.933-1.12.63-.27 1.324-.297 1.982-.443.235-.204-.135-.375-.39-.375a.435.435 0 0 0-.095.009 5.075 5.075 0 0 0-.485-.024 4.44 4.44 0 0 0-1.961.437c.012-2.138.047-4.208-.014-6.23-.05-.626-.41-1.2-1.016-1.387-.436-.198-.92-.269-1.404-.269zm11.623 0l-.014.001a15.506 15.506 0 0 1-1.122.037c-.08.005-.087.107-.06.165.168.474.314.956.45 1.44h-.02c-.134.003-.27 0-.404.013l-.006.01c-.008-.03-.03-.058-.06-.065a28.706 28.706 0 0 1-1.275-.923c-.01-.002-.021-.005-.032-.005h-.007c-.042.026-.057.084-.08.127-.074.197-.135.399-.217.593-.058.148-.122.294-.166.446.02.042.056.055.096.055.039 0 .08-.012.113-.022.516-.11 1.046-.1 1.57-.107-.052.115-.074.243-.121.36-.022.066-.047.134-.062.202a.092.092 0 0 0-.013 0l-.015.001c-.64.248-1.265.552-1.812.97a6.77 6.77 0 0 0-.749.652c-.004.096.104.127.176.154l.442.182c-.075.103-.094.236-.142.353-.247.726-.596 1.413-.887 2.122.001.058.055.087.108.087a.13.13 0 0 0 .056-.012c.102-.019.205-.028.308-.03-.021.08-.03.165-.065.24-.175.555-.46 1.065-.675 1.604-.01.058.045.095.098.095a.1.1 0 0 0 .044-.01 6.45 6.45 0 0 1 .796-.092c-.03.074-.036.157-.06.234-.128.545-.316 1.082-.34 1.646-.004.367.04.733.099 1.095.1.595.28 1.174.512 1.73.002.051.048.083.094.083a.081.081 0 0 0 .072-.04c.034-.075.045-.16.07-.238.134-.481.23-.974.272-1.472.042-.43.059-.863.056-1.295-.018-.505-.139-.999-.216-1.497-.014-.075-.024-.152-.043-.226a7.034 7.034 0 0 1 .764.127c.08 0 .099-.107.063-.164-.217-.567-.438-1.134-.62-1.714l.026.005c.22.04.44.091.663.104.07-.058.02-.152-.014-.216-.268-.582-.488-1.193-.576-1.83-.028-.173-.027-.35-.057-.523.19.077.378.154.569.228.082-.02.086-.121.07-.19a2.105 2.105 0 0 1 .267-1.198c.178-.318.435-.58.698-.828.104.09.225.156.343.227l-.06.015c-.216.418-.397.852-.591 1.28-.025.06-.054.12-.063.184.033.052.087.063.143.063.035 0 .072-.004.104-.004h.005l.241-.006c-.027.083-.034.176-.061.259-.155.639-.308 1.279-.461 1.919.018.068.087.082.15.082a.648.648 0 0 0 .055-.003l.397-.014c-.037.105-.053.218-.088.323-.172.628-.347 1.257-.515 1.886.019.07.089.085.154.085a677.2 677.2 0 0 1 .691-.021.867.867 0 0 0-.024.103c-.132.577-.335 1.144-.365 1.74a6.87 6.87 0 0 0 .2 1.602c.102.423.247.836.41 1.239.007.046.051.077.094.077.025 0 .05-.01.065-.035.035-.062.042-.137.066-.205a8.29 8.29 0 0 0 .314-1.902 9.57 9.57 0 0 0 .019-1.03c-.036-.492-.147-.974-.226-1.46-.01-.048-.017-.097-.03-.145.222-.007.443-.014.664-.023.08-.06.035-.167.013-.245-.188-.674-.374-1.349-.567-2.021.185-.007.37-.014.555-.023.077-.06.034-.166.01-.243l-.584-1.969.595-.016c.075-.05.039-.15.004-.214-.177-.4-.35-.801-.534-1.199.132-.054.263-.11.391-.171.354.33.662.728.804 1.196.081.278.087.573.058.86.016.044.054.061.096.061a.2.2 0 0 0 .1-.03l.443-.182-.003.004a5.206 5.206 0 0 1-.348 1.696c-.097.265-.22.52-.326.78-.006.057.047.091.098.091a.102.102 0 0 0 .051-.013c.195-.029.39-.067.584-.105-.038.108-.065.221-.109.327-.166.486-.354.965-.534 1.445-.014.057.038.107.09.107a.08.08 0 0 0 .042-.011 5.81 5.81 0 0 1 .716-.116.57.57 0 0 0-.012.066c-.08.447-.167.892-.223 1.342a4.98 4.98 0 0 0-.018.846c.026.713.098 1.429.289 2.118.032.117.063.236.101.351.014.03.045.044.076.044.037 0 .075-.021.083-.062a7.92 7.92 0 0 0 .566-2.05c.05-.41.083-.828.004-1.236-.08-.434-.208-.857-.31-1.285-.018-.05-.026-.104-.043-.153.123.003.246.011.369.027.171.018.34.054.512.069.072-.02.066-.116.03-.166-.24-.577-.55-1.13-.704-1.738l-.008-.032c.029 0 .058 0 .086.002.11.008.218.03.327.039.076-.034.058-.134.022-.192-.318-.723-.663-1.437-.91-2.19-.022-.058-.039-.124-.073-.176L42.7 6.58c.199-.083.398-.166.595-.252.047-.08-.032-.156-.09-.201-.507-.462-1.064-.874-1.683-1.171a6.493 6.493 0 0 0-.716-.3c-.018-.055-.043-.11-.057-.163-.063-.181-.116-.368-.196-.542a.252.252 0 0 0 .052.004l.06-.001h.153c.459 0 .92.015 1.37.118.013.006.03.009.046.009.045 0 .093-.023.084-.074-.088-.273-.211-.534-.3-.807-.04-.112-.08-.225-.129-.332a.113.113 0 0 0-.06-.008c-.42.308-.834.628-1.27.916-.046.023-.105.07-.072.127v.001a.848.848 0 0 0-.158-.012l-.16.002a1.243 1.243 0 0 1-.068-.001h-.035a.077.077 0 0 0 .004-.029c.17-.508.34-1.022.631-1.476.036-.046.01-.127-.046-.137a.065.065 0 0 0-.012-.001zm6.157 0c-.698 0-1.31.513-1.31 1.171V15.75h.853V3.421c0-.322.284-.427.462-.427.187 0 .475.131.475.527v8.103h.852V3.521c0-.66-.653-1.271-1.332-1.271z"/><path d="M8.22.375c-9.625 0-9.625 17.25 0 17.25m0-17.25h39.912M8.22 17.625h39.912M55.82.375v17.25M48.132.375c9.625 0 9.625 17.25 0 17.25" fill="none" stroke="#000"/></svg>