<svg xmlns="http://www.w3.org/2000/svg" width="56.001" height="18"><path d="M9.704 2.523q-.129 0-.21.155-.126.201.19.34.303.152.202.518l-.29 1.249q.302.038.53.303V3.523q0-.795-.215-.921-.116-.08-.207-.08zm.712 2.834v.47l1.034-.108q-.025-.127-.39-.26-.267-.096-.644-.102zm-.453.029q-.456.094-.683.56l.82-.086v-.18q0-.088-.113-.264l-.024-.03zm-1.351.522q.069 0 .201.227-.328-.114-.24-.202.016-.025.039-.025zm2.901.656q.038.076.032.12-.006.044-.07.07.076 0 .14-.039-.013-.075-.102-.151zm-.113-.025q-.114.012-.202.063.05.088.164.151-.05-.063-.044-.126.006-.063.082-.088zm.05-.05q.177 0 .24.264-.114.076-.278.076-.164 0-.277-.19h-.303v-.1l.303.025q.139-.076.315-.076zm3.041-.341q-.757 0 0 1.4.757-1.4 0-1.4zm-5.893-.32q-.049 0-.088.042-.139.164.24.34-.391.594-.404 1.414l.101.012q0-.832.328-1.375l.025.013q-.24.53-.252 1.754l.114.012q.075-1.224.138-1.514l.114-.416q-.191-.282-.316-.282zm2.678.392q-.124 0-.23.035-.252.082-.252.347h-.177q-.037-.24-.151-.24-.114 0-.038.24l.354.555v1.186l.037.013q.05-.089.12-.227.07-.14.095-.366h.378q.215 0 .215-.101 0-.19-.202-.215 0-.1.063-.1l.252-.013q-.075-.177.152-.227 0-.101-.202-.455v-.214l-.038.05q-.164-.075-.252-.088-.101 0-.303.088h-.227V6.4h.227q.177-.114.303-.114.139 0 .29.114 0-.101-.038-.114-.205-.066-.376-.066zm.275-.312l-1.135.121v.106H10.1v-.072l-.908.097q-.013.063-.127.417-.164.492-.138 3.47l1.59.012V7.195q-.089-.126-.228-.353-.138-.228-.132-.486.005-.217.21-.217.039 0 .086.009.202 0 .253.252.012-.202.227-.297.097-.043.252-.043.186 0 .455.062-.013-.126-.089-.214zm2.957 4.069q-.508 0-.61.347h.48q.39-.038.39-.328-.14-.02-.26-.02zm-3.726-1.091v1.438H9.419q.012.782.145 1.88.132 1.098.334 1.861.202.764-.265 1.243h3.723q-.127-.138-.17-.467-.045-.328.283-1.11l.947-2.864q-.008-.418-.225-.418-.137 0-.356.165l-1.287 1.906-.48.605q-.126.089-.224.089-.196 0-.28-.354-.454-1.034-.34-2.536.44-.467-.442-1.438zM9.69 2.25q.17 0 .384.137.34.227.34 1.338v1.372q.35.018.594.073.366.082.599.353.233.271.233.75.05.203.013.38.215.378.215.517 0 .075-.19.075l.038.114q-.025.063-.076.076.038.05.026.113l-.089.038q.076.34-.29.34h-.265q-.025.24-.29.644.013.025.246.316.233.29.46.7.228.41-.1.801-.089 1.275.39 2.36l1.666-2.423q.186-.606.65-.606h.02V7.952h-.897v-.303h.896q-.908-1.754.227-1.754 1.123 0 .227 1.754h.884v.303h-.871v1.766q.707 0 .139.896-1.338 4.013-1.3 4.278.038.278.372.48.335.201.17.378H9.092q-.253-.114 0-.353.668-.795.429-1.527-.24-.732-.417-3.546h-.467v-.833q0-.757.013-1.3-.1-.012-.227-.062l.025-.379-.227-.013q0-.933.404-1.476-.442-.177-.202-.454.093-.113.194-.113.159 0 .336.277.329-.622.732-.806-.169-.095-.404-.166l.353-1.501q.05-.177-.214-.341-.354-.252-.14-.606.16-.301.412-.301zm9.281 0q-.248 0-.27.218l.24-.053q.15 0 .083.158-.173.165-.053.488-.22.475-.847.475l-.076-.002q.03.353-.15.533-.631.36-.631.66.495.234.165.571-.33.338-.33.458.217.068.3.233.375.916.758 1.3l-.03.307q.368 0 .406-.39-.691-.841-.668-1.795.03-.954 1.208-1.877.338-.188.338-.728 0-.556-.443-.556zm4.505 0q-.443 0-.443.556 0 .54.323.728 1.194.923 1.224 1.877.022.954-.683 1.795.052.39.405.39l-.022-.308q.375-.383.758-1.299.09-.165.293-.233 0-.12-.323-.458-.323-.337.165-.57 0-.3-.623-.661-.18-.18-.165-.533l-.075.002q-.614 0-.834-.475.113-.323-.052-.488-.068-.158.082-.158l.24.053q-.022-.218-.27-.218zM21.22 6.365q.882 0 1.768.675.691.586.083 1.344h-3.71q-.607-.758.098-1.344.879-.675 1.761-.675zM18.566 8.64q-1.044 1.216-1.044 1.854.083.368.323.368.315 0 .405-.285 0-.946.406-1.585l-.09-.352zm5.316 0l-.09.352q.405.639.405 1.585.083.285.405.285.233 0 .323-.368 0-.638-1.043-1.854zm-3.289.135q.488 0 .488.518v3.912q-1.532 0-1.734-.984-.203-.984-.023-3.446zm2.508 0q.203 2.462-.008 3.446-.21.984-1.742.984V9.293q0-.518.488-.518zm-1.99-4.182v.27q0 .188-.15.188-.233 0-.556-.27h-.165l.518.975-.165.053q-.27-.353-.54-.728-.043-.02-.075-.02-.082 0-.098.125l.405.706Q20 6.124 20 6.297q-.45 0-.676.353-.653.458-.653 1.014 0 .42.27.96-.187 1.044-.187 2.629 0 1.043.36 1.674.368.63 2.102.63 1.735 0 2.095-.63.368-.63.368-1.674.015-1.585-.173-2.613.27-.556.27-.976 0-.556-.66-1.014-.233-.353-.668-.353 0-.173-.308-.405l.405-.706q0-.124-.077-.124-.03 0-.073.019-.27.375-.54.728l-.166-.053.503-.976h-.15q-.338.27-.578.27-.128 0-.128-.187v-.27zm-2.967 6.621l-.029.001q-.878 1.554-.878 2.448 0 .893.308 1.434.315.54.856.653-.729-.976-.729-1.562 0-.578.135-.946.12 1.029.541 1.45-.188-.827-.173-1.743.008-.923.308-1.374.015-.36-.339-.36zm6.16 0q-.354 0-.34.361.286.45.3 1.374.016.916-.165 1.742.42-.42.541-1.449.135.368.135.946 0 .586-.728 1.562.54-.113.84-.653.309-.54.309-1.434 0-.894-.864-2.448h-.029zm9.119-8.534q.387 0 .717.308.33.308.33.724 0 .387-.28.71-.28.322-.767.322-.458 0-.76-.337-.3-.337-.3-.695 0-.387.3-.71.302-.322.76-.322zm-1.275 2.91q-.086 0-.1.1 0 .085.1.085.086 0 .1-.086-.014-.1-.1-.1zm0-.044q.143 0 .143.143 0 .115-.143.158-.086-.014-.172-.086.043-.215.172-.215zm.37-.154q-.106 0-.227.01.129.073.057.187-.071-.114-.2-.114-.244 0-.244.3.143.1.129.187-.014.086-.043.114.1.1.186.516.058 0 .072-.043-.014-.444.029-.587.129-.258.358-.265h.02q.215 0 .345.15.137.158.094.358-.043.201-.617.445v.028q.889-.229.81-.795-.068-.491-.769-.491zm.39-.147q.558 0 .63.688.071.688-1.118.917.2.086.33.316.129.229.143.473-.06.018-.115.018-.117 0-.215-.083-.143-.122-.344-.609-.305-.832-.73-.832h-.158q.018-.108.082-.108.037 0 .09.037.033-.065.126-.065.07 0 .175.036-.2-.215-.2-.43l.024.002q.095 0 .133-.102.007.005.02.005.07 0 .302-.12.28-.143.824-.143zm-5.265 1.178q.083 0 .184.048.322.15.222 1.24-.817-.732-.68-1.061.093-.227.274-.227zm4.755 1.488q.087 0 .194.071-.373.258-.344 1.305h-.186q-.015-.99.129-1.233.084-.143.207-.143zm1.326-2.551q.502.014 1.104 1.01.602.996.602 2.917H35q-.015-1.52-1.319-1.52v1.52h-.286V7.15q.816-.616.33-1.791zm-.69 2.758q.035 0 .074.008v1.476h.888V8.126q.031-.006.06-.006.456 0 .456 1.482-.157 3.912-.544 4.916l.33.716h-4.744l.989-.43q-.488-2.135-1.09-3.146-.601-1.01-.272-1.24.083-.057.171-.057.266 0 .589.516l1.977 2.666h.502l.115-3.941q0-1.484.498-1.484zm.39-5.868q-.674.014-1.083.466-.408.451-.408 1.01 0 .473.215.745.172.287.415.445l-.032-.001q-.231 0-.512.187-.316.215-.287.287-.04-.033-.086-.033-.035 0-.072.018-.086.043-.071.172-.416.143-.416.889.184-.092.266-.092.02 0 .035.006.287 0 .774 1.146-.1.086-.272.33-.172.243-.172.845v.932h.358q-.014.788-.1 3.21l-1.992-2.723q-.416-.341-.658-.341-.083 0-.145.04l-.76-1.519q.53-.258 1.161-.3-.028-.388-.272-.689-.516.387-1.003.588.315-1.448-.337-1.734-.197-.087-.362-.087-.379 0-.584.46-.294.659.925 1.49-.545.258-1.118.258.014.401.286.716.387-.4 1.018-.602l.502 1.749q-.158.057-.201.358-.043.301.537 1.376.58 1.075.939 2.637l-1.046.587.071.674h6.134l-.501-1.232q.43-1.892.444-4.902l.788-.014q0-2.537-.702-3.633-.628-.981-.958-.981-.04 0-.074.014.817-.43.86-1.29 0-.616-.451-1.032-.452-.416-1.054-.43zm5.16 0l-1.282 1.515h.625l.657-.783.663.783.644-.783.663.783.656-.783.663.783.657-.783.663.783.644-.783.663.783.663-.783.644.783.663-.783.656.783h.625L46.47 2.25l-.663.732-.644-.732-.663.732-.663-.732-.644.732-.663-.732-.657.732-.663-.732-.656.732-.663-.732-.644.732-.663-.732zm-.622 9.775v1.019h2.248v-1.019h-.44c-.129.227-.275.373-.44.44a.633.633 0 0 1-.49 0c-.163-.067-.309-.213-.437-.44zm1.364-3.706v1.688h-.51v2.064h.55v-1.294h.639v-1.77h.789c.14 1.1.523 1.919 1.147 2.454.623.535 1.394.846 2.312.931.917.086 1.52.207 1.807.363.288.156.431.313.431.472h1.12c-.172-.41-.401-.722-.689-.936-.287-.214-.82-.348-1.6-.403-.78-.055-1.404-.158-1.872-.308a2.984 2.984 0 0 1-1.253-.798c-.366-.382-.648-1.203-.844-2.463zm-.742 5.916l-1.282 1.515h.625l.657-.783.663.783.644-.783.663.783.656-.783.663.783.657-.783.663.783.644-.783.663.783.663-.783.644.783.663-.783.656.783h.625l-1.281-1.515-.663.732-.644-.732-.663.732-.663-.732-.644.732-.663-.732-.657.732-.663-.732-.656.732-.663-.732-.644.732-.663-.732zm6.767-7.639c-.34.026-.527.196-.563.51.044.34.232.518.563.536.331-.018.505-.197.523-.537-.026-.313-.2-.483-.523-.51zm.04-1.127c.242 0 .465.044.671.134a1.769 1.769 0 0 1 .912.906c.09.2.135.413.135.637 0 .232-.045.449-.135.65a1.687 1.687 0 0 1-.912.886 1.74 1.74 0 0 1-.67.127 1.79 1.79 0 0 1-.678-.127 1.614 1.614 0 0 1-.543-.356 1.744 1.744 0 0 1-.363-.53 1.584 1.584 0 0 1-.134-.65c0-.224.045-.436.134-.638.09-.2.21-.38.363-.536.152-.157.333-.28.543-.37.21-.089.436-.133.677-.133zm-.026-.456c-.296 0-.573.055-.832.167-.26.112-.483.264-.67.456a2.235 2.235 0 0 0-.45.671c-.112.255-.168.53-.168.825 0 .295.056.57.168.825.111.255.261.476.45.664a2.129 2.129 0 0 0 2.997 0 2.045 2.045 0 0 0 .624-1.489c0-.295-.056-.57-.167-.825A2.174 2.174 0 0 0 46.19 5.18a2.031 2.031 0 0 0-.825-.167z"/><path d="M8.22.375c-9.625 0-9.625 17.25 0 17.25m0-17.25h39.531M8.22 17.625h39.531M55.439.375v17.25M47.751.375c9.625 0 9.625 17.25 0 17.25" fill="none" stroke="#000"/></svg>