<svg xmlns="http://www.w3.org/2000/svg" width="62.249" height="18"><path d="M11.386 8.203c-.51.04-.793.296-.847.767.067.51.35.78.847.806.498-.026.76-.295.787-.806-.04-.47-.303-.726-.787-.767zm.06-1.694c.364 0 .7.068 1.01.202a2.659 2.659 0 0 1 1.371 1.361c.134.303.201.622.201.958 0 .35-.067.676-.202.978a2.567 2.567 0 0 1-2.38 1.523c-.362 0-.702-.064-1.018-.192a2.426 2.426 0 0 1-.816-.534 2.621 2.621 0 0 1-.545-.797 2.38 2.38 0 0 1-.202-.978c0-.336.068-.655.202-.958.134-.302.316-.571.545-.806.228-.236.5-.42.816-.555a2.574 2.574 0 0 1 1.019-.202zm-.04-.685c-.443 0-.86.084-1.25.252-.39.168-.726.396-1.008.685a3.36 3.36 0 0 0-.676 1.009 3.053 3.053 0 0 0-.252 1.24c0 .444.084.857.252 1.24.168.384.393.716.676.999a3.2 3.2 0 0 0 2.258.927c.444 0 .857-.084 1.24-.252a3.36 3.36 0 0 0 1.009-.675c.289-.283.518-.615.686-.999.168-.383.252-.796.252-1.24 0-.444-.084-.857-.252-1.24a3.268 3.268 0 0 0-1.694-1.694 3.053 3.053 0 0 0-1.24-.252zm8.74-3.574c-.09 0-.095.283-.224.701-.146.476-.254 1.472-.591 1.665a.298.298 0 0 1-.153.039c-.1 0-.202-.038-.313-.038a.409.409 0 0 0-.127.02c-.158.05-.242.297-.408.326-.692.12-1.637.075-2.166.123-.34.03.567.698 1.473.698h.039c.188-.005.387-.013.584-.013.33 0 .658.024.928.135.264.109.575.425.572.735l-.11 9.109h1.019l-.052-10.289c-.002-.276.795-.464.9-.702.181-.415.088-2.247-.205-2.493a.016.016 0 0 0-.01-.004c-.132 0-.378 1.92-.766 2.333-.04.043-.118.062-.185.062-.073 0-.133-.022-.121-.062.246-.838.345-2.061-.041-2.329a.077.077 0 0 0-.043-.016zm8.861.273q.128 0 .21.155.126.201-.19.34-.303.152-.202.518l.29 1.249q-.302.038-.53.303V3.523q0-.795.215-.921.116-.08.207-.08zm-.712 2.834v.47l-1.035-.108q.026-.127.392-.26.266-.096.643-.102zm.453.029q.455.094.683.56l-.82-.086v-.18q0-.088.113-.264l.024-.03zm1.35.522q-.068 0-.2.227.328-.114.24-.202-.016-.025-.04-.025zm-2.9.656q-.038.076-.032.12.006.044.07.07-.076 0-.14-.039.013-.075.101-.151zm.113-.025q.114.012.202.063-.05.088-.164.151.05-.063.044-.126-.006-.063-.082-.088zm-.05-.05q-.177 0-.24.264.113.076.277.076.164 0 .278-.19h.303v-.1l-.303.025q-.139-.076-.316-.076zm-3.041-.341q.757 0 0 1.4-.758-1.4 0-1.4zm5.893-.32q.049 0 .088.042.138.164-.24.34.391.594.404 1.414l-.101.012q0-.832-.328-1.375l-.026.013q.24.53.253 1.754l-.114.012q-.076-1.224-.139-1.514l-.113-.416q.19-.282.316-.282zm-2.678.392q.123 0 .23.035.252.082.252.347h.176q.038-.24.152-.24.113 0 .038.24l-.354.555v1.186l-.038.013q-.05-.089-.12-.227-.069-.14-.094-.366h-.379q-.214 0-.214-.101 0-.19.202-.215 0-.1-.063-.1l-.253-.013q.076-.177-.151-.227 0-.101.202-.455v-.214l.038.05q.164-.075.252-.088.1 0 .303.088h.227V6.4h-.227q-.177-.114-.303-.114-.139 0-.29.114 0-.101.038-.114.205-.066.376-.066zm-.275-.312l1.135.121v.106h.316v-.072l.908.097q.013.063.126.417.164.492.14 3.47l-1.59.012V7.195q.088-.126.226-.353.14-.228.133-.486-.005-.217-.21-.217-.04 0-.087.009-.202 0-.252.252-.013-.202-.227-.297-.098-.043-.253-.043-.185 0-.454.062.013-.126.089-.214zm-2.957 4.069q.507 0 .61.347h-.48q-.391-.038-.391-.328.142-.02.261-.02zm3.726-1.091v1.438h1.363q-.013.782-.145 1.88-.133 1.098-.334 1.861-.202.764.265 1.243h-3.723q.126-.138.17-.467.045-.328-.283-1.11l-.947-2.864q.008-.418.225-.418.136 0 .356.165l1.287 1.906.48.605q.125.089.224.089.196 0 .28-.354.454-1.034.34-2.536-.441-.467.442-1.438zM29.02 2.25q-.17 0-.384.137-.34.227-.34 1.338v1.372q-.35.018-.594.073-.366.082-.6.353-.233.271-.233.75-.05.203-.012.38-.215.378-.215.517 0 .075.19.075l-.038.114q.025.063.075.076-.038.05-.025.113l.088.038q-.075.34.29.34h.266q.025.24.29.644-.013.025-.246.316-.234.29-.46.7-.228.41.1.801.088 1.275-.391 2.36l-1.666-2.423q-.185-.606-.65-.606h-.018V7.952h.896v-.303h-.896q.908-1.754-.227-1.754-1.124 0-.228 1.754h-.883v.303h.87v1.766q-.706 0-.138.896 1.337 4.013 1.3 4.278-.038.278-.373.48-.334.201-.17.378h5.022q.252-.114 0-.353-.669-.795-.429-1.527.24-.732.416-3.546h.467v-.833q0-.757-.012-1.3.1-.012.227-.062l-.025-.379.227-.013q0-.933-.404-1.476.442-.177.202-.454-.094-.113-.195-.113-.158 0-.335.277-.329-.622-.733-.806.17-.095.405-.166l-.353-1.501q-.051-.177.214-.341.353-.252.139-.606-.158-.301-.411-.301zm4.28 0c-.698 0-1.31.513-1.31 1.171V15.75h.853V3.421c0-.322.284-.427.462-.427.187 0 .475.131.475.527v8.103h.852V3.521c0-.66-.653-1.271-1.332-1.271zm5.999 5.953c-.511.04-.794.296-.847.767.067.51.35.78.847.806.497-.026.76-.295.786-.806-.04-.47-.302-.726-.786-.767zm.06-1.694c.363 0 .7.068 1.008.202a2.659 2.659 0 0 1 1.371 1.361c.135.303.202.622.202.958 0 .35-.067.676-.201.978a2.567 2.567 0 0 1-2.38 1.523c-.363 0-.702-.064-1.018-.192a2.426 2.426 0 0 1-.817-.534 2.621 2.621 0 0 1-.545-.797 2.38 2.38 0 0 1-.201-.978c0-.336.067-.655.201-.958.135-.302.316-.571.545-.806.228-.236.5-.42.817-.555a2.574 2.574 0 0 1 1.018-.202zm-.04-.685c-.444 0-.86.084-1.25.252-.39.168-.727.396-1.009.685a3.36 3.36 0 0 0-.676 1.009 3.053 3.053 0 0 0-.252 1.24c0 .444.084.857.252 1.24.169.384.394.716.676.999a3.2 3.2 0 0 0 2.259.927c.443 0 .857-.084 1.24-.252a3.36 3.36 0 0 0 1.008-.675c.29-.283.518-.615.686-.999.168-.383.252-.796.252-1.24 0-.444-.084-.857-.252-1.24a3.268 3.268 0 0 0-1.694-1.694 3.053 3.053 0 0 0-1.24-.252zm7.878-3.574q-.2 0-.218.175l.193-.042q.121 0 .067.127-.139.133-.042.392-.177.382-.682.382l-.061-.001q.024.283-.12.428-.508.29-.508.532.398.187.133.459-.266.271-.266.368.175.054.242.187.301.737.61 1.045l-.025.248q.296 0 .326-.314-.555-.677-.537-1.444.024-.767.972-1.51.272-.15.272-.585 0-.447-.356-.447zm3.623 0q-.356 0-.356.447 0 .435.26.586.96.742.984 1.51.018.766-.55 1.443.042.314.326.314l-.018-.248q.302-.308.61-1.045.072-.133.235-.187 0-.097-.26-.368-.259-.272.134-.46 0-.24-.502-.53-.144-.146-.132-.43l-.06.002q-.494 0-.671-.382.09-.26-.042-.392-.055-.127.066-.127l.193.042q-.018-.175-.217-.175zm-1.815 3.31q.71 0 1.422.543.556.47.067 1.08H47.51q-.49-.61.078-1.08.707-.544 1.416-.544zm-2.134 1.829q-.84.978-.84 1.492.067.295.26.295.253 0 .326-.229 0-.76.326-1.274l-.072-.284zm4.275 0l-.072.284q.326.513.326 1.274.066.23.326.23.187 0 .26-.296 0-.514-.84-1.492zm-2.645.109q.393 0 .393.416v3.147q-1.232 0-1.395-.791-.163-.792-.019-2.772zm2.017 0q.163 1.98-.006 2.772-.17.79-1.401.79V7.915q0-.416.392-.416zm-1.6-3.364v.217q0 .151-.121.151-.187 0-.447-.217h-.133l.417.785-.133.042q-.217-.283-.435-.585-.034-.016-.06-.016-.066 0-.079.1l.326.568q-.229.187-.229.326-.362 0-.544.284-.525.368-.525.815 0 .338.217.773-.15.84-.15 2.114 0 .839.29 1.346.295.507 1.69.507t1.685-.507q.296-.507.296-1.346.012-1.275-.139-2.102.217-.447.217-.785 0-.447-.531-.815-.187-.284-.537-.284 0-.139-.248-.326l.326-.568q0-.1-.062-.1-.025 0-.059.016-.217.302-.434.585l-.133-.042.404-.785h-.12q-.272.217-.465.217-.103 0-.103-.15v-.218zM46.53 9.46h-.023q-.706 1.25-.706 1.969 0 .719.247 1.153.254.435.689.526-.586-.785-.586-1.256 0-.465.109-.761.096.827.434 1.165-.15-.664-.138-1.4.006-.743.247-1.106.012-.29-.273-.29zm4.954 0q-.284 0-.273.29.23.363.242 1.105.012.737-.133 1.401.338-.338.435-1.165.109.296.109.76 0 .472-.586 1.257.435-.09.676-.526.248-.434.248-1.153 0-.719-.695-1.969h-.023zm-6.253 4.84l-1.226 1.45h.598l.628-.749.634.749.616-.749.634.749.628-.749.634.749.628-.749.634.749.616-.749.634.749.634-.749.616.749.634-.749.628.749H54l-1.226-1.45-.634.701-.616-.7-.634.7-.634-.7-.616.7-.634-.7-.628.7-.634-.7-.628.7-.634-.7-.616.7-.634-.7z"/><path d="M8.22.375c-9.625 0-9.625 17.25 0 17.25m0-17.25H54M8.22 17.625H54M61.687.375v17.25M54 .375c9.624 0 9.624 17.25 0 17.25" fill="none" stroke="#000"/></svg>