<svg xmlns="http://www.w3.org/2000/svg" width="55.155" height="18"><path d="M11.386 8.203c-.51.04-.793.296-.847.767.067.51.35.78.847.806.498-.026.76-.295.787-.806-.04-.47-.303-.726-.787-.767zm.06-1.694c.364 0 .7.068 1.01.202a2.659 2.659 0 0 1 1.371 1.361c.134.303.201.622.201.958 0 .35-.067.676-.202.978a2.567 2.567 0 0 1-2.38 1.523c-.362 0-.702-.064-1.018-.192a2.426 2.426 0 0 1-.816-.534 2.621 2.621 0 0 1-.545-.797 2.38 2.38 0 0 1-.202-.978c0-.336.068-.655.202-.958.134-.302.316-.571.545-.806.228-.236.5-.42.816-.555a2.574 2.574 0 0 1 1.019-.202zm-.04-.685c-.443 0-.86.084-1.25.252-.39.168-.726.396-1.008.685a3.36 3.36 0 0 0-.676 1.009 3.053 3.053 0 0 0-.252 1.24c0 .444.084.857.252 1.24.168.384.393.716.676.999a3.2 3.2 0 0 0 2.258.927c.444 0 .857-.084 1.24-.252a3.36 3.36 0 0 0 1.009-.675c.289-.283.518-.615.686-.999.168-.383.252-.796.252-1.24 0-.444-.084-.857-.252-1.24a3.268 3.268 0 0 0-1.694-1.694 3.053 3.053 0 0 0-1.24-.252zm8.74-3.574c-.09 0-.095.283-.224.701-.146.476-.254 1.472-.591 1.665a.298.298 0 0 1-.153.039c-.1 0-.202-.038-.313-.038a.409.409 0 0 0-.127.02c-.158.05-.242.297-.408.326-.692.12-1.637.075-2.166.123-.34.03.567.698 1.473.698h.039c.188-.005.387-.013.584-.013.33 0 .658.024.928.135.264.109.575.425.572.735l-.11 9.109h1.019l-.052-10.289c-.002-.276.795-.464.9-.702.181-.415.088-2.247-.205-2.493a.016.016 0 0 0-.01-.004c-.132 0-.378 1.92-.766 2.333-.04.043-.118.062-.185.062-.073 0-.133-.022-.121-.062.246-.838.345-2.061-.041-2.329a.077.077 0 0 0-.043-.016zm7.524.69l.1.001h.05q1.868 0 3.562 1.606l-1.048.847q-.981-.936-2.564-.936-1.584 0-2.565.936l-1.048-.847Q25.83 2.94 27.67 2.94zm.1 2.164q1.761.023 2.898 1.851h-5.82q.892-1.828 2.922-1.85zm0-2.854q-2.766.111-4.66 2.274l1.582 1.338q-.669.892-.825 1.673h7.783q-.157-.78-.826-1.65l1.472-1.338Q30.535 2.36 27.77 2.25zm-3.62 7.987v5.513h.55v-5.513zm3.277 0v5.513h.551v-5.513zm3.278 0v5.513h.551v-5.513zm14.102-7.433q-.27.27-.27.99 0 .733.27 1.003H35.91q.27-.27.27-1.004 0-.719-.27-.989zM34.186 2.25q-.39 0-.375.255-.015.3.375.3h.974q.36.269.36.988 0 .734-.36 1.004h-.96q-.404 0-.404.255 0 .3.39.3H46.53q.375 0 .375-.3 0-.255-.39-.255h-.958q-.36-.27-.36-1.004 0-.719.36-.989h.973q.375 0 .375-.3 0-.254-.375-.254zm.672 4.868q1.03.15 1.077.942v5.717q-.482-.575-1.73-.808l.653-5.851zm-.29-.575l-.772 6.835q1.72.197 2.139 1.228v1.144h.513V8.06q0-1.284-1.88-1.517zm12.029 1.214v1.197h-8.819V7.757zM37.81 6.543v.906h-.34v1.812h9.435V7.45h-.275v-.906h-.308v.906h-.76v-.906h-.308v.906h-.76v-.906h-.308v.906h-.744v-.906h-.324v.906h-.744v-.906h-.308v.906h-.76v-.906h-.308v.906h-.76v-.906h-.308v.906h-.744v-.906h-.308v.906h-.76v-.906zm.818 7.839L37.47 15.75h.564l.593-.707.598.707.582-.707.598.707.593-.707.599.707.593-.707.598.707.582-.707.598.707.599-.707.581.707.599-.707.593.707h.564l-1.157-1.368-.599.661-.581-.661-.599.661-.598-.661-.582.661-.598-.661-.593.661-.599-.661-.593.661-.598-.661-.582.661-.598-.661z"/><path d="M8.22.375c-9.625 0-9.625 17.25 0 17.25m0-17.25h38.685M8.22 17.625h38.685M54.592.375v17.25M46.905.375c9.625 0 9.625 17.25 0 17.25" fill="none" stroke="#000"/></svg>