<svg xmlns="http://www.w3.org/2000/svg" width="208.518" height="18"><path d="M6.174.386c.221 0 .566.052.757.104.832.223-.005.968-.54.968a.513.513 0 0 1-.073-.005c-.353.074.06.199.502.199.272 0 .555-.047.681-.18.072-.077.131-.108.182-.108.185 0 .258.417.406.623.74.245 1.203.913 1.682 1.486 1.377 1.65 2.617 3.405 3.917 5.115-.357-.105-.743-.31-1.097-.48-1.62-.783-3.347-1.401-4.814-2.455-.732-.525-1.712-1.134-1.793-2.056-.061-.702 1.227-1.337 1.134-1.717-.011-.044-.043-.064-.09-.064-.274 0-1.077.688-1.288 1.09-.081.155-.14.217-.182.217-.146 0-.077-.757.014-.93.31-.589-.628-1.325-.1-1.664-.016.088.002.337.312.337.325 0 .305-.4.205-.453a.435.435 0 0 1 .185-.027zm.616 5.477c.254.9.626 1.766 1.065 2.59.217.405 1.13 1.049.485 1.377a.194.194 0 0 1-.052.007c-.257 0-.519-.495-.855-.517a12.843 12.843 0 0 0-.265-1.873c-.103-.505-.36-1.176-.378-1.584zm.705.597c.795.576 1.63 1.093 2.472 1.6.222.497.034 1.222.149 1.805-.538-.363-1.112-.378-1.457-1.066-.385-.766-1.019-1.494-1.164-2.34zm.226 3.6c.134.235.335.383.538.383.16 0 .32-.091.45-.304.186.205.23.926.23 1.325.002.411-.214.446-.465.446l-.155-.002a.93.93 0 0 0-.278.032.453.453 0 0 1-.138.02c-.197 0-.423-.095-.636-.095-.02 0-.04 0-.06.002.001-.52.36-1.225.514-1.808zm1.603-2.968c1.69.766 3.36 1.59 5.054 2.351.648.679 1.239 1.448 1.96 2.049.538.45-.155.358-.474.418-.244.046-.492.08-.738.116-.87-.87-1.745-1.738-2.58-2.641-.909-.982-2.145-1.538-3.222-2.293zm-.512 5.693c1.105 0 2.211.013 3.316.042.556.014 1.197-.023 1.695.164-.658.042-2.304.058-4.042.058a201.337 201.337 0 0 1-5.037-.05c-.51 0-.097-.173.188-.173a.55.55 0 0 1 .076.005c1.267-.03 2.535-.046 3.804-.046zm-4.862.743c.75.01 1.5.02 2.25.045.495.017.989.023 1.483.023 1.398 0 2.796-.05 4.192-.05.188 0 .375.001.562.003-1.161.634-2.421 1.17-3.766 1.214-.152.005-.3.008-.445.008-.76 0-1.443-.08-2.196-.351-.656-.236-1.506-.523-2.08-.892zm6.649 1.558a.144.144 0 0 0-.078.02c-.256.16.368 1.331.895 1.613.04.021.078.03.115.03.192 0 .33-.259.247-.445-.214-.48-.87-1.218-1.18-1.218zm-4.848.055c-.042 0-.105.026-.194.086-.432.29-1.443 1.067-.823 1.496a.22.22 0 0 0 .129.042c.224 0 .442-.354.556-.556.12-.21.574-1.068.332-1.068zm4.06.177c-.274 0 .026 1.476.502 1.79.031.022.07.031.109.031.106 0 .222-.069.242-.173.123-.637-.473-1.61-.846-1.647a.08.08 0 0 0-.008 0zm-3.278.017c-.05 0-.13.062-.244.216-.302.408-1.043 1.256-.436 1.571.04.021.078.03.114.03.254 0 .4-.478.49-.72.081-.222.268-1.097.076-1.097zm2.271.162c-.023 0-.043.012-.06.037-.245.368-.164 1.491.42 1.817a.196.196 0 0 0 .097.026c.172 0 .306-.25.276-.423-.07-.41-.517-1.457-.733-1.457zm-1.329-.011a.1.1 0 0 0-.058.023c-.391.291-1.017 1.466-.379 1.845.035.02.068.03.101.03.191 0 .35-.31.375-.504.04-.334.162-1.394-.039-1.394zm.655-.018a.08.08 0 0 0-.038.01c-.324.174-.62 1.573-.014 1.945a.175.175 0 0 0 .092.028c.164 0 .306-.252.306-.421-.002-.46-.123-1.562-.346-1.562zM6.352 0c-.205 0-.408.02-.598.054-.567.104-1.44.31-1.43.996a.711.711 0 0 1 .192-.028c.55 0 .663.789.553 1.27-.225.98.26 1.965.898 2.707.425 1.269.96 2.595.954 3.928-.003.556.408.592.256 1.158-.136.51-.373 1.566-.883 1.69a2.18 2.18 0 0 1-.182.007c-.323 0-.663-.056-.984-.056-.254 0-.497.036-.71.162-.444.264-.778.46-1.31.46l-.071-.001-.078-.002c-.895 0-1.953.472-2.118 1.411-.244 1.391-.044 2.827-.036 4.233.205.005.412.011.618.011.163 0 .325-.004.487-.016-.076-.844-.133-1.694-.079-2.539.039-.601-.113-1.44.465-1.781a.738.738 0 0 1 .383-.107c.506 0 1.005.499 1.472.712 1.306.596 2.697 1.036 4.147 1.036h.1c1.756-.025 3.375-.751 4.878-1.576a.616.616 0 0 1 .41-.148c.28 0 .562.17.622.463.262 1.292.154 2.632.067 3.94.157.012.315.015.473.015.156 0 .313-.003.47-.003.052 0 .105 0 .158.002.008-.911.089-1.823.047-2.733-.033-.721.107-1.55-.417-2.143-.68-.771-1.763-.76-2.704-.825a1.712 1.712 0 0 0-.117-.004c-.125 0-.257.01-.386.01a.973.973 0 0 1-.439-.08c-.294-.302-.66-.36-1.04-.36-.228 0-.462.021-.689.021a2.75 2.75 0 0 1-.22-.008c-.043-.588-.075-1.177-.107-1.766a.155.155 0 0 1 .111-.045c.294 0 .78.686 1.034.686.076 0 .13-.06.154-.217.094-.642-.155-1.343-.146-2.018h.016c.285 0 .766.368 1.053.617.898.779 1.67 1.717 2.513 2.566.334.38.681.803 1.163.803.13 0 .269-.031.42-.101.48-.223 1.5.065 1.609-.544-.462-.54-.994-1.018-1.47-1.547.58.274 1.144.678 1.747.941a.77.77 0 0 0 .24.078c.18 0-.489-.521-.668-.602-.665-.3.624-.188.098-.605-1.155-.915-2.466-1.648-3.699-2.473-.79-.998-1.506-2.067-2.3-3.068-.66-.774-1.221-1.636-1.941-2.356C8.895 1.783 8.245 1.66 8.2.937 7.858.252 7.09 0 6.352 0zm18.931 0c-.12 0-.128.377-.3.935-.194.635-.337 1.962-.788 2.22a.397.397 0 0 1-.204.052c-.133 0-.269-.05-.417-.05a.545.545 0 0 0-.169.025c-.21.068-.322.397-.544.436-.922.16-2.183.1-2.888.163-.452.04.756.93 1.965.93h.05c.252-.005.517-.017.78-.017.44 0 .877.032 1.237.18.352.146.767.567.762.981L24.621 18h1.358L25.91 4.281c-.002-.368 1.06-.618 1.2-.936.242-.553.118-2.995-.272-3.323a.021.021 0 0 0-.014-.006c-.176 0-.505 2.56-1.022 3.111-.052.056-.156.082-.246.082-.097 0-.178-.03-.162-.082.328-1.118.46-2.749-.055-3.105A.102.102 0 0 0 25.283 0zm5.695 0c-.93 0-1.745.684-1.745 1.562V18h1.136V1.562c0-.43.379-.57.617-.57.25 0 .633.175.633.703v10.804h1.136V1.695c0-.88-.87-1.695-1.777-1.695zm12.894.991q3.212 0 6.81 1.552-3.598 1.509-6.81 1.509-3.19 0-6.81-1.509 3.62-1.552 6.81-1.552zm0-.991q-3.966 0-9.117 2.522 5.151 2.5 9.117 2.5 3.966 0 9.117-2.5Q47.859 0 43.872 0zm6.708 11.43c.941.04 1.457.06 1.68.06h.101l-.121 4.92c-.81-.334-1.306-.668-1.873-1.113l.212-3.868zm-13.73-1.227c-.314.061-.729.253-.678.628v2.744a52.47 52.47 0 0 0-1.418-.061c0 .344.284.81 1.165.81.01.78.152 1.731.293 2.217l.122 1.276c0 .142.243.182.506.182.314 0 .658-.06.658-.06l-.05-1.276c5 .04 14.538.293 15.014.293.243 0 .405-.263.405-.627l.121-5.498-3.007-.03-.243 4.282c-2.177.01-5.943.365-8.504.365-.81 0-1.509-.03-1.984-.132-.102-.111-1.043-1.478-1.64-1.63a2.687 2.687 0 0 0-.355-.04c-.101-.83-.202-1.66-.294-2.48.183-.234.598-.173.71-.487.11-.152.04-.405-.173-.415-.121-.05-.456-.06-.597-.06zM60.396.597c.269.002.505.041.692.109-.031.223-.169.569-.953.773.73-.053 1.206-.113 1.453-.307.088.2.137.427.158.556a.297.297 0 0 0 .206.237c.625.191 1.174 1.112 1.7 1.763.95 1.173 1.772 2.48 2.688 3.733-.423-.207-.845-.415-1.27-.622-1.182-.622-2.394-1.11-3.407-1.877-.588-.49-1.172-.996-1.39-1.641-.076-.497.296-1.074.767-1.279a.297.297 0 1 0-.238-.545 1.957 1.957 0 0 0-.904.817c.01-.152.032-.308.075-.448a.297.297 0 0 0 .013-.104 1.372 1.372 0 0 0-.082-.422c-.041-.109-.085-.206-.158-.459a.297.297 0 0 0-.104-.153c.14-.062.315-.112.527-.125.042-.003.083-.003.125-.004a.258.258 0 1 0 .102-.002zm1.194 5.432c.605.466 1.253.873 1.888 1.28-.005.438.006.879.047 1.321a2.215 2.215 0 0 0-.697-.3c-.392-.636-.82-1.22-1.083-1.842a4.553 4.553 0 0 1-.155-.46zm-.249 1c.273.549.621 1.04.928 1.529-.059.04-.112.08-.154.121l-.027.027a1.713 1.713 0 0 0-.614-.454c.01-.348-.047-.768-.133-1.222zm2.88.047a25.922 25.922 0 0 1 .588.297c.78.38 1.56.772 2.35 1.148.556.67 1.156 1.293 1.734 1.92l-1.043.175-2.563-2.786a.297.297 0 0 0-.04-.036 19.147 19.147 0 0 0-1.025-.718zM61.63 9.085c.058.066.112.14.161.222a.298.298 0 0 0 .43.087c.124-.09.2-.177.265-.244l.077 1.413c-.1-.006-.201-.013-.296-.013-.166 0-.313.022-.398.108-.1-.078-.28-.1-.504-.1-.057 0-.118.002-.18.005l.445-1.478zm-5.419.999c.452.062.686.323.704.783H55.52c0-.46.23-.721.691-.783zm7.861-2.39c.274.182.541.367.798.56l2.402 2.613h-2.456c-.17-.19-.518-.365-.776-.365a.366.366 0 0 0-.192.046 2.987 2.987 0 0 0-.256-.01c-.14 0-.285.007-.433.016l-.083-1.506c.225.115.407.282.625.542a.297.297 0 0 0 .52-.246 9.753 9.753 0 0 1-.149-1.65zm-6.24 3.745l-.266.465h-1.249l-.252-.465zm4.515 0v2.51l-1.726-2.51zM60.404 0a3.878 3.878 0 0 0-.273.01c-.694.044-1.215.325-1.408.768a.298.298 0 0 0 .341.408l.025-.006.03.007.108.029c.054.168.096.269.12.332a.541.541 0 0 1 .042.2 3.112 3.112 0 0 0-.037 1.389c.095.466.384.977.761 1.46a.295.295 0 0 0 .014.108c.183.559.396 1.318.548 2.027.152.708.234 1.387.192 1.684a.3.3 0 0 0 .223.33l.019.005-.527 1.75a1.787 1.787 0 0 0-.259-.018c-.256 0-.51.041-.712.041a.865.865 0 0 1-.184-.016.314.314 0 0 0-.068-.007c-.212 0-.656.13-.787.366h-1.1c-.061-.797-.482-1.235-1.26-1.315-.789.08-1.196.518-1.223 1.315v.572h.531l.545 1.01h1.767l.53-1.01h1.568l2.404 3.493V18h.571v-6.561h4.517v-.41l.099.109a.297.297 0 0 0 .268.092l1.74-.292a.298.298 0 0 0 .173-.492 49.17 49.17 0 0 0-.656-.716l1.656 1.078a.296.296 0 0 0 .412-.087.297.297 0 0 0-.087-.411l-1.345-.876a.292.292 0 0 0 .076-.09.315.315 0 0 0 .02-.237c-.016-.05-.034-.074-.048-.093-.055-.076-.084-.088-.123-.119a2.938 2.938 0 0 0-.131-.094c-.096-.065-.206-.137-.301-.2a4.156 4.156 0 0 1-.216-.156L66.58 6.773l-.008-.005c-.805-1.13-1.568-2.316-2.457-3.414-.433-.535-.937-1.524-1.812-1.894-.048-.262-.157-.68-.483-.997C61.467.119 60.956 0 60.404 0zm14.187 7.458v1.656c-.565 0-.848-.283-.848-.848 0-.539.283-.808.848-.808zM76.686 0c-.463 0-.855.116-1.176.35-.612.443-.919 1.09-.919 1.938v4.584c-.942 0-1.42.465-1.434 1.394 0 .942.478 1.413 1.434 1.413V18h.747V2.732c0-1.023.198-1.68.595-1.969.206-.15.476-.225.839-.225.337 0 .754.065 1.273.195a.65.65 0 0 0 .212.043c.111 0 .188-.048.232-.144.013-.162-.108-.276-.363-.343C77.587.096 77.107 0 76.686 0zm5.237 7.458v1.656c-.566 0-.848-.283-.848-.848 0-.539.282-.808.848-.808zM84.018 0c-.463 0-.855.116-1.176.35-.613.443-.92 1.09-.92 1.938v4.584c-.942 0-1.42.465-1.433 1.394 0 .942.478 1.413 1.434 1.413V18h.746V2.732c0-1.023.199-1.68.596-1.969.206-.15.476-.225.838-.225.337 0 .754.065 1.273.195a.65.65 0 0 0 .213.043c.11 0 .188-.048.232-.144.013-.162-.108-.276-.364-.343C84.92.096 84.44 0 84.017 0zm5.237 7.458v1.656c-.566 0-.849-.283-.849-.848 0-.539.283-.808.849-.808zM91.349 0c-.463 0-.855.116-1.176.35-.612.443-.918 1.09-.918 1.938v4.584c-.943 0-1.42.465-1.434 1.394 0 .942.478 1.413 1.434 1.413V18H90V2.732c0-1.023.198-1.68.596-1.969.205-.15.476-.225.838-.225.337 0 .754.065 1.273.195a.65.65 0 0 0 .212.043c.111 0 .189-.048.232-.144.014-.162-.107-.276-.363-.343C92.25.096 91.77 0 91.349 0zm3.803.22v5.122h.976V.22h-.976m0 6.585v4.878h.976V6.805h-.976m0 6.097v4.878h.976v-4.878h-.976zM101.637.591c.674 0 1.129.1 1.509.529.52.52.62 1.29.571 1.992-.01 1.612-.294 3.21-.766 4.75-.369 1.266-.81 2.51-1.214 3.766h-.196c-.017-.062-1.925-5.289-2.01-8-.015-.79-.129-1.684.412-2.341.334-.459 1.01-.696 1.694-.696zm.416 11.625v.684c0 .124.078.234.194.276.171.062.328.172.49.304h-2.39c.16-.132.318-.242.489-.304a.294.294 0 0 0 .194-.276v-.684zm1.644 2.477c.06.121.07.367.054.538h-4.375a2.059 2.059 0 0 1-.023-.538zm-.465 1.819c-.317.471-.951.9-1.618.9-.721 0-1.422-.417-1.761-.9zM101.668 0c-1.275 0-2.737.735-2.737 2.246-.073.922.019 1.85.115 2.768.29 2.285 1.15 4.436 1.86 6.614h-.018c-.094 0-.446.01-.446.294v.784c-.402.198-.682.5-.954.723h-.876a.294.294 0 0 0-.294.294v.792c0 .157.184.287.341.293.07.133.083.252.101.375l-.33-.01h-.003a.307.307 0 0 0-.3.294v.76c0 .163.132.295.294.295.205 0 .675.01.757.01h.01c.368.843 1.355 1.468 2.426 1.468 1.04 0 1.944-.67 2.284-1.478h.764c.275 0 .294-.192.293-.294v-.761c0-.128.056-.285-.589-.285a1.48 1.48 0 0 0-.016-.368c.283-.017.415-.142.415-.3v-.791a.294.294 0 0 0-.294-.294h-.875c-.273-.222-.553-.525-.955-.723v-.784c0-.16-.128-.29-.287-.293.006-.037 1.84-5.082 1.93-7.732.07-.998.168-2.12-.499-2.956-.417-.573-.854-.941-2.117-.941zm7.362 1.124q2.015.293 2.107 1.842v11.177q-.942-1.124-3.382-1.58l1.276-11.44zM108.465 0l-1.509 13.363q3.362.385 4.182 2.4V18h1.002V2.966q0-2.51-3.675-2.966zm23.671.781q.342 0 .513.184.171.183.171.525t-.159.561q-.158.22-.525.22h-16.532q-.317 0-.5-.22-.184-.22-.184-.561 0-.342.183-.525.184-.184.501-.184zM114.92 0q-.781.513-.781 1.49 0 1.025.781 1.563h17.998q.708-.538.708-1.563 0-.977-.708-1.49zm10.843 3.785l-.415.83.83.22q.635-.928-.415-1.05zm-3.81.025l-.415.83.83.22q.66-.928-.415-1.05zm1.905 0l-.415.83.83.22q.635-.928-.415-1.05zm-9.719 6.87V18h1.225v-7.32zm15.732 2.525l1.551 4.002h-3.772l-1.552-4.002zm-6.135-.794v.794h1.551l1.552 4.002h-3.12V18h9.89v-.793h-1.376l-1.551-4.002h2.944v-.794zM137.267 0c-.335 0-.67.026-.994.066-.447.113-.218.626.18.626a.476.476 0 0 0 .081-.008c.84.097 1.873.15 2.506.626.841.916.464 2.821.561 3.725.007.05.01 3.653.01 5.48-.105.072.003.54-.042 1.648.062.206.023.277-.07.277-.207 0-.68-.342-.947-.342-.014 0-.027 0-.04.003a7.535 7.535 0 0 0-1.58-.169c-.39 0-.776.031-1.149.095-.42.278.096.534.438.534a.532.532 0 0 0 .105-.01c1.252.151 2.637.49 3.243 1.633.007 1.27 0 2.11.034 3.278-.015.36.219.538.456.538.235 0 .473-.176.474-.526-.009-1.15-.09-2.161.06-3.277.305-1.253 2.478-1.445 3.827-1.754.295-.347-.285-.475-.658-.475-.056 0-.107.003-.15.008a6.823 6.823 0 0 0-.522-.02c-.882 0-1.77.175-2.557.58-.032-.755-.019-1.346-.021-2.021.017-2.851.063-5.61-.02-8.308-.065-.834-.545-1.6-1.354-1.849-.58-.264-1.227-.358-1.87-.358zm10.875 0c-.335 0-.67.026-.994.066-.448.113-.218.626.18.626a.476.476 0 0 0 .081-.008c.84.097 1.872.15 2.506.626.841.916.463 2.821.561 3.725.007.05.01 3.653.01 5.48-.105.072.003.54-.042 1.648.061.206.023.277-.071.277-.206 0-.68-.342-.946-.342-.014 0-.028 0-.04.003a7.535 7.535 0 0 0-1.58-.169 6.8 6.8 0 0 0-1.149.095c-.42.278.096.534.438.534a.532.532 0 0 0 .105-.01c1.251.151 2.636.49 3.243 1.633.007 1.27 0 2.11.033 3.278-.014.36.22.538.456.538.235 0 .474-.176.475-.526-.009-1.15-.091-2.161.06-3.277.304-1.253 2.477-1.445 3.827-1.754.294-.347-.285-.475-.659-.475-.055 0-.107.003-.15.008a6.823 6.823 0 0 0-.521-.02c-.882 0-1.771.175-2.557.58-.032-.755-.02-1.346-.021-2.021.016-2.851.062-5.61-.02-8.308-.065-.834-.546-1.6-1.354-1.849-.58-.264-1.227-.358-1.87-.358zm11.288 0l-2.054 2.43h1.002l1.053-1.256 1.063 1.256 1.032-1.256 1.064 1.256 1.052-1.256 1.063 1.256 1.053-1.256 1.063 1.256 1.033-1.256 1.063 1.256 1.063-1.256 1.033 1.256 1.063-1.256 1.053 1.256h1.002L172.076 0l-1.063 1.174L169.98 0l-1.063 1.174L167.854 0l-1.033 1.174L165.758 0l-1.053 1.174L163.642 0l-1.052 1.174L161.526 0l-1.032 1.174L159.43 0zm0 15.57L157.377 18h1.002l1.053-1.255L160.494 18l1.032-1.255L162.59 18l1.052-1.255L164.705 18l1.053-1.255L166.821 18l1.033-1.255L168.917 18l1.063-1.255L171.013 18l1.063-1.255L173.129 18h1.002l-2.055-2.43-1.063 1.175-1.033-1.175-1.063 1.175-1.063-1.175-1.033 1.175-1.063-1.175-1.053 1.175-1.063-1.175-1.052 1.175-1.064-1.175-1.032 1.175-1.063-1.175zM183.68.735c.626 0 1.299.126 1.722.626.679.8.823 1.892.875 2.903.095 1.839.123 3.68.105 5.522h-.451V5.258c-1.185-.04-1.68-.912-1.785-1.593.143-.31.524-.57.65-.949.134-.4-.04-.993-.515-.993h-.025c-.214.01-.396.085-.587.085a.623.623 0 0 1-.336-.097c-.407-.248-.953-.293-1.424-.397.388-.567.984-.558 1.62-.577l.15-.002zm-2.109 1.109c.579.102 1.19.213 1.646.613.085.115.208.19.322.19.1 0 .195-.059.25-.203.077-.108.155-.151.225-.151.214 0 .356.405.187.632-.13.326-.527.519-.668.785.136.532.374 1.043.776 1.428.311.298.687.566 1.127.6-.015 1.903-.005 3.806-.046 5.708a35.537 35.537 0 0 1-.58 5.237c-.045.247.182.4.31.575h-7.73c.561-.213 1.126-.417 1.685-.635.301-.158.162-.526.08-.774-.568-2.006-1.368-3.939-2.28-5.811.138-.183.366-.268.593-.268.13 0 .259.027.372.08.524.622 1.022 1.269 1.536 1.9.703.872 1.398 1.75 2.106 2.616a.336.336 0 0 0 .238.099c.215 0 .425-.2.394-.44.373-2.515.809-5.02 1.098-7.546a2.616 2.616 0 0 0-.719-2.163.306.306 0 0 0-.214-.081c-.245 0-.532.224-.735.224-.084 0-.153-.038-.2-.144-.256-.26.58-.12.194-.349a.414.414 0 0 1-.068.006c-.35 0-.087-.58-.482-.675.065-.182.18-.313.328-.313a.36.36 0 0 1 .22.088c.087.022.176.031.263.031.305 0 .607-.113.884-.232-.317-.316-.43-.384-.642-.384-.22 0-.532.068-.622.14.146-.234.192-.51.152-.783zM183.644 0c-.056 0-.111 0-.166.002-.854.024-1.803.252-2.312.996-.225.326-.395.72-.319 1.123-.204.472-.648.834-.718 1.362-.067.427.578.339.42.752.01.31.354.616.24.815-.199.845-.433 1.739-1.033 2.396-.102.177-.232.228-.374.228-.191 0-.404-.093-.599-.096-.399.234.112.608.418.608.012 0 .024 0 .036-.002.03.003.06.004.09.004.623 0 1.094-.529 1.381-1.035.369-.603.639-1.28.86-1.938.167-.066.335-.129.476-.129.164 0 .292.087.338.354.27.716.013 1.476-.06 2.204-.272 1.857-.544 3.714-.827 5.57-1.03-1.281-2.057-2.566-3.09-3.845-.238-.24-.566-.334-.898-.334-.218 0-.438.04-.636.106-.416.172-.86.606-.71 1.096.91 1.884 1.727 3.82 2.294 5.837-.694.264-1.394.514-2.084.788-.278.163-.143.488-.084.73a.43.43 0 0 0 .493.401h9.133c.127-.075.44-.136.483-.169-.172-.142-.1-.391-.284-.532l-.55-.65c.361-1.996.56-4.022.58-6.05l.225.002c.381 0 .836-.047.748-.544.022-2.122.02-4.25-.14-6.366-.084-1.109-.399-2.302-1.283-3.053C185.126.14 184.374 0 183.644 0zm5.481 5.34v7.32h1.225V5.34zm8.632-4.743c.269.002.505.041.692.109-.031.223-.169.569-.953.773.73-.053 1.206-.113 1.452-.307.09.2.137.427.159.556a.297.297 0 0 0 .206.237c.625.191 1.174 1.112 1.7 1.763.95 1.173 1.771 2.48 2.688 3.733l-1.27-.622c-1.182-.622-2.395-1.11-3.407-1.877-.589-.49-1.172-.996-1.39-1.641-.076-.497.296-1.074.767-1.279a.297.297 0 1 0-.238-.545c-.377.164-.7.458-.904.817.01-.152.032-.308.075-.448a.297.297 0 0 0 .012-.104 1.372 1.372 0 0 0-.082-.422c-.04-.109-.084-.206-.157-.459a.297.297 0 0 0-.105-.153 1.53 1.53 0 0 1 .528-.125c.042-.003.083-.003.124-.004a.258.258 0 1 0 .103-.002zm1.193 5.432c.606.466 1.254.873 1.889 1.28-.005.438.006.879.046 1.321a2.215 2.215 0 0 0-.697-.3c-.39-.636-.82-1.22-1.082-1.842a4.553 4.553 0 0 1-.156-.46zm-.248 1c.273.549.621 1.04.928 1.529-.059.04-.112.08-.154.121l-.028.027a1.713 1.713 0 0 0-.613-.454c.01-.348-.047-.768-.133-1.222zm2.88.047a25.922 25.922 0 0 1 .588.297c.78.38 1.56.772 2.349 1.148.556.67 1.157 1.293 1.735 1.92l-1.044.175-2.562-2.786a.297.297 0 0 0-.04-.036 19.147 19.147 0 0 0-1.026-.718zm-2.592 2.009c.058.066.112.14.162.222a.298.298 0 0 0 .43.087c.124-.09.2-.177.265-.244l.077 1.413c-.1-.006-.201-.013-.296-.013-.167 0-.313.022-.398.108-.1-.078-.28-.1-.504-.1-.058 0-.118.002-.18.005l.444-1.478zm-5.418.999c.451.062.686.323.704.783h-1.395c0-.46.23-.721.69-.783zm7.86-2.39c.274.182.542.367.798.56l2.403 2.613h-2.456c-.171-.19-.519-.365-.776-.365a.366.366 0 0 0-.192.046 2.987 2.987 0 0 0-.256-.01c-.14 0-.286.007-.433.016l-.083-1.506c.224.115.407.282.625.542a.297.297 0 0 0 .52-.246 9.753 9.753 0 0 1-.15-1.65zm-6.24 3.745l-.266.465h-1.248l-.252-.465zm4.516 0v2.51l-1.726-2.51zM197.764 0a3.878 3.878 0 0 0-.272.01c-.694.044-1.215.325-1.408.768a.298.298 0 0 0 .34.408l.025-.006.03.007.109.029c.054.168.095.269.12.332a.541.541 0 0 1 .042.2 3.112 3.112 0 0 0-.037 1.389c.095.466.384.977.761 1.46a.295.295 0 0 0 .014.108c.183.559.396 1.318.548 2.027.152.708.233 1.387.192 1.684a.3.3 0 0 0 .223.33l.019.005-.527 1.75a1.787 1.787 0 0 0-.26-.018c-.256 0-.509.041-.712.041a.865.865 0 0 1-.183-.016.314.314 0 0 0-.068-.007c-.212 0-.657.13-.787.366h-1.1c-.061-.797-.482-1.235-1.261-1.315-.788.08-1.196.518-1.222 1.315v.572h.531l.545 1.01h1.766l.532-1.01h1.567l2.404 3.493V18h.571v-6.561h4.516v-.41l.1.109a.297.297 0 0 0 .268.092l1.74-.292a.298.298 0 0 0 .173-.492 49.17 49.17 0 0 0-.656-.716l1.656 1.078a.296.296 0 0 0 .412-.087.297.297 0 0 0-.087-.411l-1.345-.876a.292.292 0 0 0 .076-.09.315.315 0 0 0 .02-.237.305.305 0 0 0-.048-.093c-.055-.076-.084-.088-.123-.119a2.938 2.938 0 0 0-.132-.094c-.095-.065-.205-.137-.3-.2a4.156 4.156 0 0 1-.217-.156l-2.378-1.672-.008-.005c-.805-1.13-1.568-2.316-2.457-3.414-.433-.535-.938-1.524-1.812-1.894-.048-.262-.157-.68-.484-.997-.353-.344-.863-.463-1.416-.463z"/></svg>