<svg xmlns="http://www.w3.org/2000/svg" width="51.49" height="18"><path d="M11.386 8.203c-.51.04-.793.296-.847.767.067.51.35.78.847.806.498-.026.76-.295.787-.806-.04-.47-.303-.726-.787-.767zm.06-1.694c.364 0 .7.068 1.01.202a2.659 2.659 0 0 1 1.371 1.361c.134.303.201.622.201.958 0 .35-.067.676-.202.978a2.567 2.567 0 0 1-2.38 1.523c-.362 0-.702-.064-1.018-.192a2.426 2.426 0 0 1-.816-.534 2.621 2.621 0 0 1-.545-.797 2.38 2.38 0 0 1-.202-.978c0-.336.068-.655.202-.958.134-.302.316-.571.545-.806.228-.236.5-.42.816-.555a2.574 2.574 0 0 1 1.019-.202zm-.04-.685c-.443 0-.86.084-1.25.252-.39.168-.726.396-1.008.685a3.36 3.36 0 0 0-.676 1.009 3.053 3.053 0 0 0-.252 1.24c0 .444.084.857.252 1.24.168.384.393.716.676.999a3.2 3.2 0 0 0 2.258.927c.444 0 .857-.084 1.24-.252a3.36 3.36 0 0 0 1.009-.675c.289-.283.518-.615.686-.999.168-.383.252-.796.252-1.24 0-.444-.084-.857-.252-1.24a3.268 3.268 0 0 0-1.694-1.694 3.053 3.053 0 0 0-1.24-.252zm6.805-3.574c-.09 0-.179.004-.268.012h-.042c-1.005 0-1.87.969-1.797 1.965-.055.784.108 1.558.151 2.338a.35.35 0 0 0 .326.187.554.554 0 0 0 .455-.245c.237-.33.132-.758.036-1.118-.106-.643-.145-1.359.208-1.936.228-.305.603-.457.977-.457.407 0 .814.18 1.029.541.345.506.252 1.241-.19 1.659-.427.505-1.067.838-1.341 1.464-.174.63-.028 1.288-.087 1.93-.056 2.342-.085 4.684-.13 7.027.122.101.264.12.411.12.087 0 .174-.006.26-.006.07 0 .14.004.206.019.319-.163.293-.573.27-.876-.113-2.457-.03-4.917-.092-7.375.006-.28-.085-.602.211-.762.59-.572 1.217-1.142 1.58-1.894.368-1.09-.457-2.397-1.6-2.536a2.837 2.837 0 0 0-.573-.057zm9.538.293c.024 0 .049.003.075.01.143.04.185.159.124.358l-1.042 2.696h-.508l1.107-2.852c.057-.141.138-.212.244-.212zm.86.217c.03 0 .061.005.094.015.165.048.195.171.091.37l-.95 2.462h-.508l1.003-2.617c.062-.153.152-.23.27-.23zm-2.571 3.976c-.08 0-.173.014-.278.043v.13a.933.933 0 0 1 .28-.05c.073 0 .138.013.196.037.126.052.293.087.501.104l-.065-.065c-.191-.07-.343-.126-.456-.17a.494.494 0 0 0-.178-.029zm.1.29l.234.078a1.728 1.728 0 0 1-.234.078c.052-.043.052-.095 0-.156zm-.195 0c-.026.052-.018.109.026.17a.807.807 0 0 1-.157-.053c.01-.043.053-.082.13-.117zm.065-.091c-.113 0-.191.043-.235.13l-.117.065-.013.065.117.026c.064.04.14.059.23.059.13 0 .288-.041.474-.124h.286v-.09h-.3c-.182-.088-.33-.131-.442-.131zm2.357-1.08l-.886 1.627c-.058.08-.112.121-.162.121a.109.109 0 0 1-.072-.03l-.287-.182c.018-.061.087-.152.209-.274.121-.121.147-.267.078-.436-.04-.096-.115-.144-.226-.144a.834.834 0 0 0-.321.085c-.278-.166-.522-.25-.735-.25l-.06.003a2.686 2.686 0 0 0-.09-.52zm-2.498.74c.222 0 .512.097.87.288.078-.087.156-.13.234-.13.078 0 .12.039.124.117.004.078-.065.18-.208.306-.144.126-.21.232-.202.319l.039.013a.64.64 0 0 1-.26.449c-.148.109-.348.167-.6.176a.936.936 0 0 1-.048.001c-.13 0-.188-.033-.173-.099a.206.206 0 0 0-.039-.189l.075.002c.243 0 .307-.042.192-.125-.085-.062-.154-.093-.205-.093a.093.093 0 0 0-.062.021c.035-.13-.035-.2-.208-.208.19-.321.338-.604.443-.847h.028zm.935.965l.378.234c.026.4.108.677.247.834a1.596 1.596 0 0 0-.21-.015c-.05 0-.097.003-.142.008a.546.546 0 0 0-.299.15 2.489 2.489 0 0 0-.326-.664c.226-.165.343-.347.352-.547zm-3.57-1.112c.086 0 .156.05.21.148.079.148.014.265-.195.352-.208.113-.277.295-.208.547l.3 1.328a.848.848 0 0 0-.547.312V7.482c0-.547.073-.864.221-.95a.404.404 0 0 1 .22-.084zm-.322 3.882c.19 0 .367.092.533.277-.313.008-.521.108-.625.3-.087-.218-.196-.34-.326-.365-.13-.026-.06-.085.209-.176a.652.652 0 0 1 .21-.036zm4.4-1.416c.338 0 .551.191.638.573.121.53.139 1.354.052 2.474a39.963 39.963 0 0 1-.365 3.19l.157.234h-4.323l.898-.364c-.26-1.276-.586-2.212-.976-2.806-.391-.595-.456-.979-.196-1.152a.443.443 0 0 1 .247-.083c.176 0 .35.127.522.382l1.757 2.5.313-.026c.19-1.944.395-3.394.612-4.349.104-.382.325-.573.664-.573zm.376-6.664c-.25 0-.42.147-.506.44l-1.12 2.917h-.56c.104.347.156.655.156.924-.06.243-.176.486-.345.73-.163.234-.13.351.099.351h.025c-.06.087-.052.139.026.156-.07.035-.078.072-.026.11.052.04.074.125.065.255-.026.382-.128.692-.306.93-.146.197-.279.295-.399.295a.216.216 0 0 1-.076-.014.459.459 0 0 0-.155-.035c-.051 0-.086.018-.106.054-.034.065.011.133.137.202a.324.324 0 0 0 .159.037c.11 0 .249-.04.414-.122.256-.125.488-.514.697-1.165h.364c.113.104.2.256.26.456-.312 1.007-.568 2.482-.768 4.427l-1.757-2.474a1.217 1.217 0 0 0-.365-.365c-.118-.166-.308-.25-.57-.25-.067 0-.137.006-.211.016v-.43c0-.06.039-.147.117-.26.139-.191.382-.334.729-.43l-.365-1.55c-.034-.12.04-.242.222-.364.243-.165.29-.369.143-.612-.114-.207-.257-.31-.43-.31a.728.728 0 0 0-.39.14c-.235.157-.352.613-.352 1.368v2.448c-.503.27-.644.451-.423.547.205.088.371.244.498.467.063.43.24.89.53 1.382.309.52.589 1.285.84 2.292l-.99.43.066.507h5.56L28 15.073c.278-2.7.375-4.425.293-5.176-.083-.75-.271-1.165-.566-1.243-.209-.209-.291-.434-.248-.677l.326-.586c.512.373.768.876.768 1.51v6.849h.286V8.901c0-.755-.308-1.345-.924-1.77l.846-1.524h-.599l.925-2.396c.13-.33.071-.543-.176-.638a.927.927 0 0 0-.333-.069.618.618 0 0 0-.312.082c-.06-.191-.236-.302-.527-.332a.705.705 0 0 0-.073-.004zm3.033 4.793V8.36h2.906V7.043h-.57c-.165.293-.355.483-.569.57a.818.818 0 0 1-.635 0c-.209-.087-.397-.277-.563-.57zm1.763-4.793v2.183h-.66v2.67h.712V5.43h.826V3.14h1.02c.182 1.424.676 2.481 1.483 3.174.807.692 1.803 1.093 2.99 1.204 1.186.11 1.965.267 2.337.468.372.202.558.406.558.611h1.447c-.221-.53-.518-.933-.89-1.21-.371-.277-1.062-.45-2.07-.522-1.008-.071-1.815-.203-2.42-.397a3.858 3.858 0 0 1-1.62-1.032c-.474-.495-.838-1.557-1.091-3.186zm-.267 11.678l-1.541 1.822h.751l.79-.942.797.942.775-.942.797.942.79-.942.797.942.79-.942.797.942.774-.942.798.942.797-.942.775.942.797-.942.79.942h.751l-1.54-1.822-.797.88-.775-.88-.797.88-.798-.88-.774.88-.797-.88-.79.88-.797-.88-.79.88-.797-.88-.775.88-.797-.88z"/><path d="M8.22.375c-9.625 0-9.625 17.25 0 17.25m0-17.25h35.02M8.22 17.625h35.02M50.928.375v17.25M43.24.375c9.625 0 9.625 17.25 0 17.25" fill="none" stroke="#000"/></svg>