<svg xmlns="http://www.w3.org/2000/svg" width="269.474" height="18"><path d="M6.286.322q.06 0 .113.039.214.116-.136.564-.37.369-.457.622-.088.253-.185.67-.097.419-.428 1.197l-.447.136H3.132q.233-.506.544-.914.759-.7 1.128-.934.37-.233.593-.398.224-.166.477-.632.233-.35.412-.35zM5.27 3.939l-.311.68q-.454-.045-.84-.045-.775 0-1.28.182-.097-.661-.292-.817zm-2.237 1.42q-.37.02-.389.35.02.389.39.389.369 0 .388-.39-.02-.33-.389-.35zm.837-.33q.836 0 .972.777.136.778-.895 1.07.35.66 0 .836-.123.062-.24.062-.216 0-.411-.208-.302-.32-.535-.914-.233-.593-.7-.593h.33q-.213-.33-.155-.506l.034.002q.166 0 .219-.177.37-.35 1.38-.35zm1.147.057q.292 0 .836 1.255.545 1.254 1.77 2.314t1.974 2.577q.749 1.517 2.927 3.326-3.812-1.809-4.784-2.237-.973-.428-3.15-2.003-1.246-.914-1.246-1.459 0-.427.098-.739V8.1q.992 0 .992-.991 1.342-.661.583-2.023zm-.545 5.971q.37 1.77 1.829 3.91-.139.109-.302.109-.385 0-.904-.616 0-.972-.7-3.403zm.642.622q1.148.914 2.587 1.731v1.848q-.506-.39-1.011-.467-1.381-2.256-1.576-3.112zm.214 3.812q.265.336.546.336.255 0 .524-.277l.097 1.711q-.185-.041-.354-.041-.308 0-.56.138-.34-.113-.597-.113-.096 0-.18.016l.524-1.77zm.603-3.676l5.815 2.937q1.128 1.264 2.159 2.392v.02l-1.459.233-2.898-3.131q-.836-.68-3.617-2.45zM6.202 0h-.037q-.233.01-.486.4-.058.174-.243.388-.185.214-.535.428-.35.214-.505.34-.156.127-.525.458-.312.252-.448.408-.31-.194-.525-.476-.214-.282-.233-.516-.02-.233.048-.37.069-.135.214-.165.04-.008.08-.008.103 0 .202.057.136.078.117.272-.039.175-.253.214-.058-.025-.095-.025-.05 0-.06.045-.04.252.194.272l.05.002q.2 0 .33-.138.145-.156.126-.525Q3.482.652 3.19.613 3.137.606 3.084.606q-.237 0-.468.144-.282.175-.311.544-.03.37.263.749.291.379.641.632-.272.35-.564.875H1.81q.506.545.603 1.536h-.04q-.346 0-.29.331-.545.156-.545 1.03.181-.105.34-.105.044 0 .088.009.233 0 .379.544.146.545.632 1.206v.02q-.117.233-.117.738 0 .506.895 1.459.895 3.073.875 4.493 0 .175.253.213l-.642 2.14q-.052-.004-.106-.004-.272 0-.604.082-.19.046-.388.046-.219 0-.448-.056-.253-.062-.497-.062-.177 0-.349.033-.272.051-.432.051-.08 0-.132-.012-.506.116-.564.758.337-.194.514-.194.089 0 .138.048.145.146.573.146h5.66q.37 0 .583-.156.071-.051.169-.051.194 0 .492.207.02-.622-.66-.797-.386.143-.696.143-.238 0-.433-.085l-.097-1.925q.532.736.93.736.17 0 .315-.134-.137-1.186-.137-2.178l.545.33q.467.215 2.052 2.024 1.52 1.734 1.814 1.734.013 0 .024-.004l1.847-.389q.292-.097.117-.291L13.01 15.51q1.362.875 2.042 1.167-.33-.37-1.108-.934l.389.136q.233-.039.194-.37-3.384-2.45-4.298-4.22-.914-1.77-2.149-2.878-1.235-1.108-1.838-2.49-.37-.874-.758-1.186L7.293.633 6.866.399 5.854 2.597l.098-.447q.116-.467.252-.7.137-.234.273-.331.291-.428.291-.661 0-.234-.175-.35Q6.413 0 6.201 0zm6.662 1.88c-.404 0-.674.234-.67.606.006.404.277.637.67.637s.627-.234.621-.637c-.005-.373-.239-.606-.621-.606zM12.91.536c.266 0 .531.055.798.165.511.211.856.578 1.084 1.076.231.507.215 1.02 0 1.53-.215.506-.583.838-1.084 1.05a1.98 1.98 0 0 1-.778.16c-.275 0-.55-.056-.823-.16-.509-.193-.846-.567-1.075-1.05a1.797 1.797 0 0 1-.16-.774c-.001-.535.233-1.009.59-1.394.176-.19.394-.335.645-.438.27-.11.536-.165.802-.165zM12.847 0c-.703 0-1.256.244-1.752.741-.507.509-.723 1.062-.733 1.776a2.32 2.32 0 0 0 .247 1.108c.133.652.14 1.742-.037 1.742-.308 0-.132-.819-.147-1.074-.025-.435-.282-.805-.587-1.099-.07-.068-.148-.144-.25-.154a2.8 2.8 0 0 0-.294-.02.975.975 0 0 0-.333.051c-.076.027-.079.134-.054.204.026.072.074.148.157.158l.063.003c.101 0 .201-.025.303-.026h.013c.042 0 .09.004.12.035-.068.128-.162.252-.178.402a.393.393 0 0 0 .015.176c.199.55.32 1.813 1.145 1.813.156 0 .23-.032.28-.079.366-.34.372-.916.35-1.393.484.455 1.03.646 1.705.655h.039c.691 0 1.242-.256 1.737-.733.135-.13.249-.262.344-.401.022.472.045.948.218 1.392.137.35.441.604.768.778a.139.139 0 0 0 .056.019c.04 0 .016-.062-.03-.107a1.986 1.986 0 0 1-.484-.734c-.176-.481-.158-1-.147-1.502.007-.307.02-.615.002-.922h-.002c.01-.094.015-.191.016-.292.008-.72-.242-1.268-.74-1.776-.507-.515-1.06-.733-1.777-.74L12.847 0zm8.746 5.76q-.785 0-.91.607v.036q.09.16.375.16.82-.356.82-.66v-.035q0-.072-.285-.107zm2.853-1.105q-.125.695-1.23 1.498l.392.16.535-.196.268.179q2.05.98 5.44 1.034l5.315.054.071-.002q.909 0 .883 1.33-.027 1.383-.936 2.774-.571 0-1.16-.437-.588-.437-.963-1.026-.375-.588-.963-1.533.178 1.872 1.07 2.942-1.088 0-1.935.206-.424.102-.707.102t-.426-.102q-.177-.128-.882-.128-.429 0-1.053.047-.481.037-.88.037-.967 0-1.447-.215-.446-.375-.562-1.311-.116-.936.526-2.595-1.32.945-1.32 2.871v.643q-.66-.678-1.034-1.499-.732-1.819-1.998-1.819-.482 0-1.855.606-.464-.196-.375-.624l.892-1.195q.642-1.088.928-1.213.142-.267 1.39-.267.536.143.536.392 0 .34-.357.678.678-.143.981-.803 0-.16.856-.588zM25.215.86q-.087 0-.198.138-1.355 2.159-2.461 2.997-.428.374-1.16.392-.356 0-1.088-.535Q19.22 2.8 18.792 2.07q-.481-.856-.624-.946-.071 0-.107.179 0 1.016 2.069 3.763-.392.57-.731 1.302-.34.731-.803 1.115-.464.383.09.758 0 .464.766.749.625-.178 1.909-.553.767 0 1.052.642.945 1.427.945 2.979.107 2.069-1.427 3.96-.481.32-.481.891 0 .232.588.232.964 0 .964-.232l-.072-.482q0-.25.375-.374v-.036q0-.339 1.213-3.406.553 0 .874.535.41 1.355.41 2.247 0 .196-.25.838-.303.232-.374.839h1.426l-.107-.446q-.07-.268.197-.464l-.125-.66q-.232-2.515-.232-2.96v-.036q1.409-.34 2.167-.34.758 0 1.168.277.163.11.457.11.446 0 1.193-.253.81-.273 1.242-.273.23 0 .354.077.357.223.357.758 0 1.962-.999 3.336-.32.32-.481.891h1.23q.321-.107.143-.535.036-.463.428-.588 0-1.623 1.427-3.21.999.552 1.017 1.712 0 .445-.179 1.212l-.214.589q-.196.232-.356.874h1.177q.214-.09.267-.196l-.178-.571q-.09-.25.25-.446-.179-.945.231-1.427-.838-1.962-.838-3.085.446-1.837.57-3.443.215 1.124.054 2.693-.16 1.57.535 3.247.137.282.248.282.079 0 .145-.14.178-1.016.071-5.618-.142-.57-.303-.874-.57-.874-.981-.91h-5.761q-4.263 0-6.314-1.212.339-.607.375-.83.035-.223 0-.544-.856.25-1.284.66l-.357-.267q.374-.232 1.195-1.499.82-1.266.963-1.98-.06-.12-.141-.12zM42.768.296c.129.088.12.136.106.189-.017.068-.225.114-.32.114-.026 0-.044-.004-.046-.011 0-.062.102-.222.26-.292zM41.7 1.698c-.133 0-.199.07-.199.212 0 .176.08.264.238.264h.013a.59.59 0 0 0 .463-.211v-.08c0-.061-.515-.185-.515-.185zM43.41.631c.193.157-.159.6-.368 1.05l-.072.155c.364-.23.553-.68.553-.68.088.14-.199.522-.11.635.096.343.49.758-.397 1.602-.115.07-1.435.776-1.541.776-.08 0-.137-.061-.33-.238l.396-.317v-.092l-.013-.013h-.08c-.132 0-.3.083-.502.25a3.687 3.687 0 0 1-.36-.43c.164-.13.23-.22.22-.34.025-.149-.075-.173-.152-.173-.036 0-.067.006-.078.006v.105c-.026.053-.083.097-.171.132-.036 0-.053-.119-.053-.119 0-.061.14-.255.423-.581.775-.951 1.373-1.436 1.884-1.436l.116.009c-.195.123-.106.331-.106.331.206-.18.539-.554.74-.632zm.537.642a.1.1 0 0 1 .004 0c1.339 1.286 1.542 2.16 1.55 5.092l-2.267.035-.032-2.357c0-.159.035-.35.176-.429.95-.734.469-1.848.406-1.972-.023-.282.087-.37.163-.37zM42.806 0a.54.54 0 0 0-.432.193c-.158.171-.209.495-.514.605-.305.208-.508.426-.701.625-.776.846-1.035 1.14-1.044 1.309-.618.504.05.802.252.918.66.767.548.713.83.838.103.027.162.05.214.05.056 0 .105-.027.192-.104.097 0 1.136-.502 1.136-.502.115 0 .163.378.163 1.242-.01.593-.073 1.573-.004 1.573l.004-.001.026.04h3l.013-.014-.04-.872c-.061-1.092.382-3.835-2.157-5.25.03-.177-.113-.37-.292-.37-.09 0-.19.048-.281.172-.016-.213-.108-.435-.365-.452zm7.024.296c.128.088.119.136.105.189-.017.068-.225.114-.32.114-.026 0-.044-.004-.046-.011 0-.062.102-.222.26-.292zm-1.07 1.402c-.132 0-.198.07-.198.212 0 .176.08.264.238.264h.013a.59.59 0 0 0 .463-.211v-.08c0-.061-.515-.185-.515-.185zM50.47.631c.194.157-.158.6-.367 1.05l-.072.155c.364-.23.553-.68.553-.68.088.14-.199.522-.11.635.096.343.49.758-.397 1.602-.115.07-1.435.776-1.541.776-.08 0-.137-.061-.33-.238l.396-.317v-.092l-.013-.013h-.08c-.132 0-.299.083-.502.25a3.687 3.687 0 0 1-.36-.43c.164-.13.23-.22.22-.34.025-.149-.075-.173-.152-.173-.036 0-.066.006-.078.006v.105c-.026.053-.083.097-.171.132-.036 0-.053-.119-.053-.119 0-.061.14-.255.423-.581.775-.951 1.373-1.436 1.884-1.436l.116.009c-.195.123-.105.331-.105.331.205-.18.538-.554.74-.632zm.538.642a.1.1 0 0 1 .004 0c1.339 1.286 1.542 2.16 1.55 5.092l-2.267.035-.032-2.357c0-.159.035-.35.176-.429.95-.734.469-1.848.406-1.972-.023-.282.087-.37.163-.37zM49.868 0a.54.54 0 0 0-.433.193c-.158.171-.209.495-.514.605-.305.208-.508.426-.701.625-.775.846-1.035 1.14-1.044 1.309-.618.504.05.802.252.918.66.767.548.713.83.838.103.027.162.05.214.05.057 0 .105-.027.192-.104.097 0 1.136-.502 1.136-.502.115 0 .163.378.163 1.242-.01.593-.072 1.573-.004 1.573l.004-.001.026.04h3l.013-.014-.04-.872c-.061-1.092.382-3.835-2.157-5.25.03-.177-.112-.37-.292-.37-.09 0-.19.048-.281.172-.016-.213-.108-.435-.365-.452zm-7.401 9.86c.642 0 1.445.33 1.834.719.34.34.384.79.397 1.21h-4.442c.012-.42.057-.87.397-1.21.388-.389 1.173-.718 1.814-.718zm0-.358c-.76 0-1.58.351-2.06.831-.492.493-.548 1.14-.548 1.626v.189h5.217v-.19c0-.484-.037-1.132-.53-1.625-.48-.48-1.318-.831-2.079-.831zm7.565-1.522l-.012.007 2.166 4.149h.816L50.837 7.98zm-1.814.007l-.817.006 2.166 4.155.816-.006-2.165-4.155zm2.22 6.088c.562.024.87.036 1.004.036h.06l-.072 2.94c-.484-.2-.78-.4-1.12-.666l.128-2.31zm-8.202-.732c-.188.036-.436.15-.405.375v1.639a31.347 31.347 0 0 0-.847-.036c0 .205.17.483.696.483.006.466.09 1.035.175 1.325l.072.762c0 .085.146.109.303.109.187 0 .393-.036.393-.036l-.03-.762c2.988.024 8.685.175 8.97.175.145 0 .242-.157.242-.375l.072-3.284-1.796-.018-.145 2.558c-1.3.006-3.55.218-5.081.218-.484 0-.901-.018-1.186-.079-.06-.066-.623-.883-.98-.974a1.569 1.569 0 0 0-.211-.024c-.06-.496-.121-.992-.176-1.482.11-.139.357-.103.424-.29.066-.09.024-.242-.103-.248-.073-.03-.272-.036-.357-.036zM58.307.46q-.11 1.162-.11 2.603 0 1.442.14 2.914-.32-.17-1-.17-.692 0-1.002.17.15-1.472.14-2.914-.01-1.441-.11-2.602zm-.97 5.967q.68.01 1.38.36l-.18.33q-.141-.024-.265-.024-.426 0-.636.295-.12-.53-.3-.65-.18.12-.31.65-.21-.295-.636-.295-.124 0-.265.025l-.18-.33q.72-.35 1.391-.36zm0 .961q.15.12.1.35-.05.23-.1.441-.061-.21-.111-.44t.11-.35zm.91.002q.057 0 .12.008-.68 1.622-1.03 1.622-.341 0-1.052-1.622.064-.008.122-.008.365 0 .469.329.13.37.27.6.15.24.19.24.05 0 .18-.24.14-.23.26-.6.113-.329.472-.329zM55.775 0q.48 3.404-.01 6.137-.89.42-.74.71.11.22.251.22.052 0 .109-.03.87.982 1.431 2.313.22 2.193-.06 7.579 0 1.071.56 1.071h.031q.56 0 .56-1.071-.27-5.386-.06-7.579.551-1.331 1.422-2.312.057.03.109.03.142 0 .252-.22.15-.29-.731-.711-.5-2.733 0-6.137zM66.42 0q-1.948.045-3.225 1.41-1.41 1.546-1.545 3.091 0 .359.403.359h18.722q.403 0 .403-.426 0-.425-.403-.425H62.658q1.12-2.867 3.359-3.18h14.758q.403 0 .403-.426 0-.403-.403-.403zm11.701 11.43c.942.04 1.458.06 1.68.06h.102l-.121 4.92c-.81-.334-1.306-.668-1.873-1.113l.212-3.868zm-13.728-1.226c-.314.061-.729.253-.678.628v2.744a52.47 52.47 0 0 0-1.418-.061c0 .344.284.81 1.164.81.01.78.152 1.731.294 2.217l.122 1.276c0 .142.243.182.506.182.314 0 .658-.06.658-.06l-.05-1.276c5 .04 14.538.293 15.013.293.243 0 .405-.263.405-.627l.122-5.498-3.007-.03-.243 4.282c-2.177.01-5.943.365-8.504.365-.81 0-1.509-.03-1.985-.132-.1-.111-1.042-1.478-1.64-1.63a2.64 2.64 0 0 0-.354-.04c-.101-.83-.203-1.66-.294-2.48.183-.234.598-.173.709-.487.111-.152.04-.405-.172-.415-.122-.05-.456-.06-.597-.06zM94.801.57q.18.212.18 1.048 0 .72-.222 1.228-.498-.508-.519-1.228.01-.836.561-1.048zM93.456.435q.516 0 .625.188-.063.54-.434.794-.211.201 0 .445.37.286.445.878 0 .297-.963.297-.964 0-2.89-.148-.657-.074-1.472-.784-.942-.72-1.651-.857h-.01q-.338 0-.9.646-.572.656-1.101 1.746h-1.038q.095-.233 1.456-1.556Q86.85.792 87.104.792h.012q.71.18 1.186.556.275.217.56.217.21 0 .424-.116 1.757-.667 3.181-.91.607-.104.99-.104zM94.583 0q-.198 0-.48.073-1.938.032-3.864.603-.54.18-1.398.55-.9-.656-1.725-.783h-.01q-.255 0-.874.583-.63.592-1.985 1.958-.783.815-1.069 1.397v.021h1.662v-.508h.519q.582-1.344 1.069-1.852.417-.436.625-.436.034 0 .063.012.752.233 1.217.625.466.392 1.038.73.571.34 1.683.387.667.028 1.639.028.647 0 1.43-.012.247.061.428.061.316 0 .43-.188.37-.91.37-1.63 0-.847-.37-1.461Q94.874 0 94.583 0zm-9.912 5.652l-1.493 1.765h.728l.765-.912.773.912.75-.912.772.912.765-.912.773.912.765-.912.772.912.75-.912.773.912.772-.912.75.912.773-.912.765.912h.728l-1.493-1.765-.773.853-.75-.853-.772.853-.773-.853-.75.853-.772-.853-.765.853-.773-.853-.765.853-.772-.853-.75.853-.773-.853zm-1.037 3.015l-.01.002-.446.098c.064.528.269 1.04.61 1.45.305.372.732.668 1.216.735.165.016.331.022.498.022.171 0 .342-.006.513-.014.63-.032 1.26-.202 1.79-.547.317-.203.593-.465.83-.756a.12.12 0 0 1 .086-.028c.029 0 .06.004.088.004.012 0 .024 0 .036-.003.828-.007 1.657-.023 2.486-.023.47 0 .94.005 1.411.02a.091.091 0 0 1 .02-.003c.042 0-.051.071-.065.096-.342.387-.676.78-1.029 1.157l.716.404c.389-.383.684-.871 1.16-1.159.45-.23.968-.203 1.457-.246l.35-.03V8.88c-2.075.006-4.15.005-6.226.04a8.473 8.473 0 0 1-.233.003c-.974 0-1.941-.158-2.913-.204a7.6 7.6 0 0 0-.282-.006c-.208 0-.416.01-.622.036-.205.05-.29.266-.388.429-.048.085-.1.168-.153.25a.12.12 0 0 0 .054.013c.076 0 .14-.073.21-.1.167-.095.349-.19.544-.19.026 0 .053.001.08.005.772.013 1.538.124 2.306.196-.158.344-.514.533-.852.66a5.472 5.472 0 0 1-1.896.355c-.35-.026-.632-.283-.83-.553-.254-.34-.39-.747-.516-1.147zm2.278 4.243a2.35 2.35 0 0 1 1.838.88h-3.675a2.35 2.35 0 0 1 1.837-.88zM88 14.17c.141.27.233.571.26.89h-4.693c.028-.319.119-.62.26-.89zm.262 1.27c-.023.319-.11.62-.247.89h-4.203a2.343 2.343 0 0 1-.247-.89zm-.487 1.27a2.35 2.35 0 0 1-1.862.91 2.35 2.35 0 0 1-1.86-.91zm-1.862-4.18a2.738 2.738 0 0 0-2.734 2.736A2.738 2.738 0 0 0 85.912 18a2.738 2.738 0 0 0 2.735-2.734 2.738 2.738 0 0 0-2.735-2.735zm6.711 3.078c.671 0 1.511.345 1.917.752.356.355.402.826.415 1.264h-4.644c.013-.438.06-.909.415-1.264.406-.407 1.226-.752 1.897-.752zm0-.375c-.796 0-1.652.368-2.154.87-.515.514-.573 1.192-.573 1.7V18h5.455v-.198c0-.507-.039-1.185-.554-1.7-.502-.501-1.378-.87-2.174-.87zM109.552.864a39.81 39.81 0 0 0 1.186.043h.071l-.085 3.472a5.093 5.093 0 0 1-1.322-.786l.15-2.729zM99.867 0c-.222.043-.515.179-.479.443v1.936a37.019 37.019 0 0 0-1-.043c0 .243.2.571.821.571.008.55.108 1.222.208 1.564l.085.9c0 .1.172.129.357.129.222 0 .465-.043.465-.043l-.036-.9c3.529.029 10.257.207 10.593.207.171 0 .286-.185.286-.443l.085-3.878-2.121-.022-.172 3.022c-1.535.007-4.192.257-6 .257-.571 0-1.064-.021-1.4-.093-.071-.078-.735-1.043-1.157-1.15a1.853 1.853 0 0 0-.25-.028c-.071-.586-.143-1.172-.207-1.75.129-.165.422-.122.5-.343.079-.107.029-.286-.121-.293-.086-.036-.322-.043-.422-.043zm4.521 6.911v5.164h.864V6.911zm7.099 6.976q.312 0 .312.327v2.51h-.95l.311-2.644q.015-.193.327-.193zm.015-.4q-.758 0-.802.43-.312 2.806-.668 2.82l-6.89.253-.712-.03q-.802-.846-1.426-.846l-.46-.03q-1.262.238-1.514.238-.179 0-.179.238 0 .326.505.326.867-.138 1.33-.138.084 0 .155.005.252 0 .416.208-.29.358-1.296.358l-.16-.002q-1.143-.03-2.019-.297-.43 0-.43.505.044.46 3.222.475l1.41-.148 8.048-.045 2.257.03v-3.623q-.015-.728-.787-.728zM130.366.815q-2.527 3.434-7.27 3.527-4.713-.093-7.24-3.527zM114.289 0q2.588 5.177 8.806 5.198 6.25-.021 8.838-5.198zm2.164 7.89l-2.164 2.558h1.055l1.109-1.322 1.12 1.322 1.087-1.322 1.12 1.322 1.108-1.322 1.12 1.322 1.108-1.322 1.12 1.322 1.087-1.322 1.12 1.322 1.12-1.322 1.087 1.322 1.119-1.322 1.109 1.322h1.055L129.77 7.89l-1.12 1.236-1.087-1.236-1.12 1.236-1.119-1.236-1.087 1.236-1.12-1.236-1.109 1.236-1.119-1.236-1.109 1.236-1.12-1.236-1.087 1.236-1.12-1.236zm6.657 6.21q3.109 0 6.592 1.501-3.483 1.46-6.591 1.46-3.087 0-6.59-1.46 3.503-1.501 6.59-1.501zm0-.96q-3.837 0-8.821 2.44Q119.273 18 123.11 18q3.838 0 8.822-2.42-4.964-2.44-8.822-2.44zm12.899-12.016q2.014.293 2.105 1.842v11.177q-.941-1.124-3.381-1.58l1.276-11.44zM135.442 0l-1.509 13.363q3.361.385 4.181 2.4V18h1.003V2.966q0-2.51-3.675-2.966zm13.761.884q-.451 0-.451.49 0 .45.45.45.452 0 .452-.45 0-.49-.451-.49zm.188-.263q1.053.113 1.053.978-.113.902-.865 1.053-.752.15-1.542.32-.474.101-.989.101-.343 0-.704-.045l1.354-.3q1.806-.151 1.806-.377 0-.188-.264-.188-.225 0-.507.094l-.395.132.037.112q.402-.133.654-.133.032 0 .061.002.263.019-1.392.244l-.489-.827q0-.188.15-.226.038.49.245.564.06.022.102.022.105 0 .105-.134.038-.264-.263-.527Q149.052.62 149.39.62zm1.467.564q.865 0 .3 1.824-.563 1.824.208 2.577.77.752 1.598.77l.042.001q.787 0 .86-.696-.207.04-.364.04-.581 0-.463-.548.112-.515.625-.515.18 0 .41.064.883.244.432 1.523t-1.43 1.335q-.067.004-.136.004-.91 0-1.838-.7-.996-.752-.865-2.181.132-1.43.339-2.069.207-.64.282-1.429zM150.508 0q-.509 0-1.192.132-.414 0-2.896 1.43-1.242.413-1.242 1.428v1.091l.94-.677q.818.082 1.451.082.823 0 1.333-.138.226-.061.387-.061.483 0 .384.55-.132.733 0 1.861.132 1.129 1.128 1.843.972.697 2.086.697h.058q1.147-.02 1.824-1.185.677-1.166.358-2.126-.32-.959-1.41-.977h-.027q-1.069 0-1.44 1.523-.94-.64-.433-2.313.508-1.674.075-2.558Q151.597 0 150.51 0zm6.379 11.452c.938.04 1.453.06 1.675.06h.1l-.12 4.904c-.808-.333-1.302-.666-1.867-1.11l.212-3.854zm-13.682-1.221c-.313.06-.726.252-.676.626v2.734c-.605-.03-1.23-.06-1.412-.06 0 .342.282.806 1.16.806.01.777.151 1.726.293 2.21l.12 1.271c0 .142.243.182.505.182.313 0 .656-.06.656-.06l-.05-1.272c4.984.04 14.488.293 14.962.293.243 0 .404-.263.404-.626l.121-5.478-2.997-.03-.242 4.267c-2.169.01-5.922.363-8.475.363-.807 0-1.503-.03-1.978-.13-.1-.112-1.039-1.474-1.634-1.625a2.64 2.64 0 0 0-.353-.04c-.101-.828-.202-1.655-.293-2.473.182-.232.595-.171.706-.484.111-.151.04-.403-.171-.414-.121-.05-.454-.06-.595-.06zM165.3 0q-1.639.038-2.712 1.187-1.187 1.3-1.3 2.599 0 .301.34.301h15.745q.339 0 .339-.358t-.34-.358h-15.236q.941-2.41 2.825-2.674h12.412q.339 0 .339-.358 0-.339-.34-.339zm11.402 6.555c.15 0 .224.542.224.692 0 .15-.075.692-.224.692h-14.366c-.175 0-.262-.542-.262-.692 0-.15.087-.692.262-.692zm-14.815-.786c-.4 0-.599.805-.599 1.478 0 .673.2 1.478.599 1.478h15.264c.374 0 .561-.805.561-1.478 0-.673-.187-1.478-.561-1.478zm14.815 5.423c.15 0 .224.543.224.693 0 .15-.075.692-.224.692h-14.366c-.175 0-.262-.543-.262-.692 0-.15.087-.693.262-.693zm-14.815-.785c-.4 0-.599.804-.599 1.478 0 .673.2 1.477.599 1.477h15.264c.374 0 .561-.804.561-1.477 0-.674-.187-1.478-.561-1.478zm14.815 5.423c.15 0 .224.543.224.692 0 .15-.075.692-.224.692h-14.366c-.175 0-.262-.542-.262-.692 0-.15.087-.692.262-.692zm-14.815-.786c-.4 0-.599.805-.599 1.478 0 .674.2 1.478.599 1.478h15.264c.374 0 .561-.804.561-1.478 0-.673-.187-1.478-.561-1.478zm37.749-14.028c.696 0 1.044.377 1.044 1.13v4.802h-19.936V2.172c0-.77.356-1.156 1.068-1.156.54 0 1.217.606 2.027 1.816.811 1.22 1.626 1.83 2.445 1.83.802 0 1.531-.513 2.186-1.537.655-1.025 1.196-1.647 1.622-1.868a1.43 1.43 0 0 1 .65-.168c.205 0 .406.052.603.156.4.211.933.834 1.596 1.867.656 1.033 1.384 1.55 2.187 1.55.843 0 1.666-.61 2.469-1.83.802-1.21 1.482-1.816 2.039-1.816zM199.611 0c-.86 0-1.695.618-2.505 1.854-.811 1.237-1.47 1.855-1.978 1.855-.483 0-1.134-.618-1.953-1.855C192.355.618 191.545 0 190.743 0c-.918 0-1.77.618-2.555 1.854-.778 1.237-1.413 1.855-1.904 1.855-.5 0-1.155-.618-1.966-1.855C183.508.618 182.672 0 181.812 0c-1.4 0-2.1.724-2.1 2.172v5.792h9.913c1.213.003 1.1.006 1.125.006.02 0 .126-.002 1.05-.006h9.912V2.147c0-1.431-.7-2.147-2.1-2.147zM183.03 15.091c.815 0 1.837.42 2.33.914.433.432.49 1.006.506 1.538h-5.65c.017-.532.073-1.106.506-1.538.494-.494 1.491-.914 2.307-.914zm0-.456c-.969 0-2.01.447-2.62 1.057-.627.626-.698 1.45-.698 2.068V18h6.634v-.24c0-.617-.046-1.442-.673-2.068-.61-.61-1.676-1.057-2.644-1.057zm4.836-2.205V18h.93v-5.57zm6.4.009V18h.93v-5.561zm6.515 0V18h.931v-5.561zm3.705-11.25q-.05 0-.095.015-.18.058-.16.175.018.098.162.098.026 0 .056-.003.196-.021.344-.16-.165-.125-.307-.125zm.091-.108q.383 0 1.181.457.4.207.878.207.231 0 .48-.048.625-.128 1.314-.223.234-.032.454-.032.426 0 .797.122.562.186.934.239.37.053 1.176.095-.52.053-1.017.053-.499 0-1.177-.111-.34-.056-.654-.056t-.603.056q-.578.111-1.315.207-.184.023-.362.023-.534 0-1.01-.214-.464-.317-.963-.317-.22 0-.448.062-.201-.01-.18-.222.116-.287.498-.297h.017zM204.861 0q-.23 0-.428.7-.166-.618-.428-.618-.04 0-.081.014-.318.201.212.774-.424.243-.424.615 0 .37.626.413.193-.05.377-.05.433 0 .815.278.328.239 1.04.239.473 0 1.118-.106.792-.223 1.54-.223.282 0 .56.032.692.08 1.179.08.221 0 .4-.017.902-.02.902-.17-.244-.222-.69-.296-.943-.01-1.723-.329-.39-.159-.955-.159-.566 0-1.308.16-.479.12-.892.12-.565 0-1.006-.227-.456-.276-.965-.456.424-.329.397-.546-.026-.217-.26-.228h-.006zm3.129 3.582a1.76 1.76 0 0 1 1.374.658h-2.747a1.756 1.756 0 0 1 1.373-.658zm1.56.942c.106.202.174.427.194.665h-3.508a1.75 1.75 0 0 1 .195-.665zm.196.949a1.751 1.751 0 0 1-.185.665h-3.142a1.751 1.751 0 0 1-.184-.665zm-.365.949c-.321.414-.825.68-1.39.68-.567 0-1.07-.266-1.392-.68zm-1.39-3.123a2.047 2.047 0 0 0-2.045 2.044c0 1.126.917 2.043 2.044 2.043a2.047 2.047 0 0 0 2.044-2.043 2.047 2.047 0 0 0-2.044-2.044zM205.18 8.75q.337 0 .706.082.631.14 1.076.538-.445.386-1.076.526-.37.082-.707.082-.239 0-.462-.041-.537-.1-.537-.567 0-.48.537-.579.223-.041.462-.041zm.065-.43q-.454 0-.878.091-.655.14-.655.959 0 .806.655.952.42.094.868.094.25 0 .51-.03.726-.081 1.602-.724.169-.084.339-.084.255 0 .515.19 1.543 1.612 2.139 3.658l.456-.175q-.924-2.572-2.151-3.718.165-.067.515-.067.318 0 .788.056.988.117 1.888 2.092l.433-.257q-.608-1.134-1.28-1.83-.474-.49-1.622-.49-.483 0-1.084.087-.152.015-.298.015-.33 0-.638-.073-.876-.643-1.601-.719-.255-.027-.5-.027zm5.877 6.612c.44.019.68.028.785.028h.047l-.057 2.298a3.371 3.371 0 0 1-.874-.52l.1-1.806zm-6.41-.572c-.147.028-.34.118-.317.293v1.281a24.5 24.5 0 0 0-.662-.028c0 .16.133.378.544.378.005.364.07.808.137 1.035l.057.596c0 .066.113.085.236.085.147 0 .307-.028.307-.028l-.023-.596c2.335.019 6.788.137 7.01.137.114 0 .19-.123.19-.293l.056-2.567-1.404-.014-.113 2c-1.017.004-2.775.17-3.971.17-.378 0-.705-.014-.927-.062-.047-.052-.487-.69-.766-.76a1.226 1.226 0 0 0-.165-.02c-.047-.387-.095-.775-.137-1.158.085-.109.279-.08.33-.227.053-.07.02-.189-.08-.194a1.075 1.075 0 0 0-.279-.028zm13.084-10.858q.265 0 .306.326l.448 4.052q.346 2.79.407 5.335 0 1.751-.295 2.78-.295 1.028-.927 1.028-.63 0-.865-1.029-.234-1.028-.214-2.78.04-2.544.387-5.334l.448-4.052q.04-.326.305-.326zM214.722 0q-.855.428-.102.896 2.484 1.446 2.179 3.075l-.469 3.91q-.325 2.789-.468 5.334 0 2.484.468 3.635.469 1.15 1.466 1.15.998 0 1.466-1.15.469-1.15.469-3.635-.143-2.545-.469-5.335l-.427-3.747Q218.183.794 214.722 0zm10.695 3.071c-.27.13-.6.49-.1.55.24-.01.79-.26.69-.49a.221.221 0 0 1-.157.067c-.142 0-.287-.127-.433-.127zm-1.97.09c-.331.08-.501.44-.08.52l.021.002c.242 0 .901-.294.358-.361-.09-.06-.18-.16-.3-.16zm2.63-2.51c.59.69 1.11 1.49 1.21 2.41.101.66.131 1.321.231 1.971-.47-.04-.33-.77-.24-1.12.08-.69-.29-1.33-.55-1.941-.18-.33-.35-.85-.81-.86-.511.09-.841.52-1.171.89-.34-.34-.7-.71-1.17-.85a.236.236 0 0 0-.082-.013c-.105 0-.229.046-.286.046-.049 0-.048-.034.057-.164.064-.224.195-.29.359-.29.238 0 .542.141.8.141a.561.561 0 0 0 .112-.01c.084.004.169.007.253.007.438 0 .877-.067 1.287-.218zm-.16.76c.39.1.48.64.67.96.24.56.53 1.17.34 1.801-.15.3.04.68.02.9-.333.235-.626.73-1.069.73a.631.631 0 0 1-.15-.02c-.441-.09-.661-.51-1.001-.71-.247.238-.392.73-.798.73a.618.618 0 0 1-.183-.03c-.37-.08-.86-.04-.97-.49-.19-.46-.21-.97-.24-1.47a.324.324 0 0 0 .06.006c.203 0 .222-.235.24-.436.078-.293.287-.429.52-.429.158 0 .325.062.47.178.17.19.69.34.58.64-.05.18-.11.371-.17.561l.42.56c.04-.29.47-.53.22-.82-.04-.13-.19-.3-.17-.4.18-.32.42-.6.701-.84a.322.322 0 0 1 .23-.103c.268 0 .537.351.77.382.23-.25-.02-.35-.25-.48a.701.701 0 0 0-.486-.196c-.25 0-.5.13-.654.356-.19.114-.323.494-.49.494-.052 0-.108-.037-.17-.134-.306-.244-.672-.518-1.073-.518a.855.855 0 0 0-.178.018c-.283.059-.538.632-.56.632v-.001c-.01-.47.21-.89.34-1.351a.612.612 0 0 1 .596-.477c.173 0 .348.075.474.237.298.11.516.634.797.634.049 0 .1-.017.154-.054.31-.33.56-.72 1.01-.86zm-1.42 6.943c1.27 1.31 2.44 4.632 2.74 5.993-.49-.4-1.16-.66-1.31-.91-.16-.26-.6-2.792-1.43-5.083zm4.522-2.381c2.4 1.38 6.583 8.174 7.473 9.264-1.5-.95-2.981-1.91-4.592-2.691-2.26-1.11-4.192-2.911-6.033-4.592 1.521-.51 2.612-1.37 3.152-1.981zm-2.491 8.624c.32.19.61.45.96.59-.21.52-.34 1.1-.77 1.51-.081.13-.196.172-.328.172-.228 0-.504-.123-.735-.123-.016 0-.032 0-.048.002.28-.7.7-1.01.92-2.151zm.68-9.365c.06.126.138.167.22.167.108 0 .224-.071.32-.116.24.17 1.07.15.58.51-.31.42-1.967 1.566-3.119 1.768-.497.087.338.873.608 1.153 1.561 1.4 3.092 2.882 4.963 3.892 1.17.66 2.4 1.25 3.531 1.98.54.781 1.18 1.502 1.591 2.362-.41.12-.81.29-1.23.39a2.89 2.89 0 0 1-.703.082c-.661 0-1.325-.197-1.619-.512-.54-.57-1.13-3.001-1.44-3.892-.045-.1-.107-.133-.175-.133-.135 0-.292.132-.37.132a.041.041 0 0 1-.036-.019.391.391 0 0 0-.386-.376c-.175 0-.339.127-.314.396-.06.63-.18 1.26-.48 1.831-.037.097-.114.134-.215.134-.284 0-.761-.293-1.086-.374.13-.77-.92-4.712-4.002-8.014-.107-.116-.577-.611-.536-.611.005 0 .016.006.036.02.158.042.335.07.511.07.338 0 .669-.104.84-.42.026-.077.058-.108.096-.108.138 0 .345.399.564.399a.92.92 0 0 0 .514.155c.29 0 .578-.131.777-.355.19-.17.37-.34.56-.51zM226.168 0a3.72 3.72 0 0 1-1.36.28c-.072 0-.143-.004-.211-.01a.804.804 0 0 1-.143.012c-.337 0-.7-.18-1.025-.18a.622.622 0 0 0-.353.098c-.55.8-1.05 1.69-1.11 2.681-.11 1.901-.06 2.562 1.44 4.122.59 1.341 1.69 5.713 2.021 6.904.36.34-.45 2.2-.79 2.66-.185.256-.673.268-1.197.268h-.172c-.471 0-.948.01-1.243.193-.28.18-.38.85-.22.94.15-.23.45-.54.66-.57-.2.21.5.11.651.16.405.007.814.041 1.225.041.198 0 .397-.008.596-.03.09-.04.186-.102.228-.102.033 0 .033.038-.028.151.283.074.601.111.912.111.7 0 1.364-.187 1.51-.56.3-.551.58-1.131.78-1.732.255.054.576.234.833.234a.38.38 0 0 0 .207-.054c.28-.19.57-1.08.73-1.67.016-.062.099-.092.183-.092.081 0 .163.028.187.082.3.6.8 2.44 1.281 3.211.362.571 1.24.852 2.175.852a4.48 4.48 0 0 0 1.717-.332c.65-.28 1.13-.22.99-.58-.22-.6-.6-1.17-1-1.68.58.36 1.16.73 1.74 1.09.049.174.169.243.292.243.236 0 .483-.256.239-.513-2.271-3.282-5.883-8.875-8.384-10.685-.4-.35-.87-.62-1.39-.75-.17-.44-.12-1.031-.22-1.531-.1-.99-.701-2.632-1.752-3.262zm16.352.696q.927 0 .927 1.222 0 1.075-.927 2.129-.928-1.054-.928-2.129 0-1.222.928-1.222zm0 4.7q.653 0 .653 1.412 0 .8-.653 1.475-.654-.674-.654-1.475 0-1.412.654-1.412zm0 4.257q.653 0 .653 1.413 0 .8-.653 1.475-.654-.674-.654-1.475 0-1.413.654-1.413zm0-9.653q-1.686 0-1.686 1.918-.021 1.201.558 1.886.58.685.517.917-.738.864-.738 2.087 0 1.012.864 2.17-.864.865-.864 2.088 0 1.011.864 2.15.105.273-.59 1.285-.696 1.012-1.433 3.499h.927q.464-1.644.822-2.35.358-.706.759-1.149.421.443.77 1.149.347.706.81 2.35h.95q-.696-2.487-1.424-3.499-.727-1.012-.6-1.286.843-1.138.843-2.15 0-1.222-.801-2.086.8-1.16.8-2.171 0-1.223-.716-2.087-.063-.232.506-.917.57-.685.57-1.886Q244.227 0 242.52 0zm5.54 0l-1.01.63 3.002 4.305V18h1.122V4.575L248.06 0zm14.306 2.085q-.253 0-.334.08-.07.082-.192.082v.09l.142.021q.157.157.417.157.193 0 .443-.086l.253.07.02-.181-.222-.02q-.324-.183-.527-.213zm1.327-1.62q.467 0 1.083.142 1.043.233 1.053 1.316.01 1.073-.607 1.57-.327.271-.595.271-.23 0-.418-.201-.182-.182-.07-.294.293-.09.273-.455.313-.385.313-.658.02-.477-.437-.477h-.038q-.203.021-.345.132-.895-.594-1.577-.594-.073 0-.144.007.294-.516.922-.688.256-.072.587-.072zm2.845 6.803q.394.81 1.549 2.36-.436-.294-2.137-.618l.588-1.742zm-4.198-5.704q.638 0 1.363.551l-.071.203q.085.05.165.05.034 0 .068-.01.162-.425.364-.425.025-.003.046-.003.195 0 .177.246 0 .253-.273.567 0 .28-.137.28-.02 0-.046-.007-.182-.04-.151-.202-.122.455.212 1.154l.496 1.083q.172.375.547.395.375.02.86.111.487.092.264.658-.223.567-.932 2.542l-.475-.223q-.497-1.002-1.722-1.701-.232.223.092.587l-.365.8q-.07.476.365.75.607.273 1.336.273l.638.516-.182 3.34-1.823.406q-1.427-4.566-1.7-4.961-.274-.395-.153-2.258-.05-.637 1.043-.637 1.134 0 1.043-.517l-.142-.415q-.111-.385-.09-.476-.09-.024-.208-.024-.178 0-.42.055-.23.02-.396.02-.333 0-.414-.081-.122-.122-.081-.334l.324-.112q.11-.06.04-.202l-.456-.04q.162-.345-.04-.456l-.057.002q-.216 0-.216-.144.07-.132.283-.486.213-.354.516-.455.137-.044.271-.044.175 0 .347.074.304.121.577.192l.05-.121q-.252-.06-.526-.203-.263-.136-.49-.136-.229 0-.421.136.05-.182.142-.273.175-.045.358-.045zm-3.922 9.562l3.726 2.581-4.161 1.256q.141-2.886-.385-3.837zm6.652 2.43q.425 1.63-.507 2.834-.834.498-1.878.498-.717 0-1.533-.235-.837-.245-1.638-.245-1.119 0-2.17.478.183-.637 2.977-2.085l4.749-1.246zM263.838 0q-.324 0-.651.05-1.134.131-1.66 1.559-.072.385-.345.719-.273.324-.354.719 0 .222.283.232.284.01.071.193-.091.02-.07.09.01.072.07.092-.132.142 0 .192.142.061.101.203-.03.152.05.374.082.233.81.233l.628-.09q-.04.151.051.364-1.822.02-2.268.79-1.528 1.275-2.905 2.703-.274-.567-1.246-1.55-.961-.971-1.123-1.427-.335-.992-1.428-1.883-.243.182 0 .587l-.456.73q-.131.475.254.799.587.354 1.204.75 1.701 3.016 2.49 3.26.045.006.092.006.601 0 1.802-1.07 1.19-1.04 1.412-1.04.078 0 .036.129 0 .658.273 1.124.274.465 1.337 4.232l-3.311-2.47q-.75-.68-1.316-.68-1.59.021-1.407 1.317l.567 4.04q-1.205.293-1.114 1.812-.547.111-1.002.314-.368.159-.743.159-.08 0-.158-.007l-.054-.002q-.413 0-.584.447h16.087q-.41-.804-1.112-.804-.146 0-.305.035-.153.034-.29.034-.676 0-.945-.834-.2-.632-.576-.632-.215 0-.488.207.73-1.408.041-2.957.03-1.68.142-2.996 2.379.749 3.148.749.598-.061.598-.517-.527-2.045-2.43-4.566-.385-.77-1.974-.84-.274-.364-.294-.638.658-.152 1.104-.688.455-.537.445-1.742-.01-1.194-1.043-1.559Q264.567 0 263.838 0z"/></svg>