<svg xmlns="http://www.w3.org/2000/svg" width="58.391" height="18"><path d="M15.469 3.808l-2.736 2.406q.577.89 1.533 1.797.906-2.143 1.203-4.203zm.728-1.187q.528 0 .41.725-.512.248-.43.56.083.314-.065 1.04-.149.725-1.187 3.444.316 1.074-.366 1.074l-.063-.002q-1.846 3.395-4.07 5.917h-.396l.098-1.104q1.78-1.665 3.808-5.39-.593-1.253-1.665-2.193l-3.28 2.95q-.248.112-.416.112-.458 0-.326-.82l3.297-2.818q-.013-.75.625-.75.148 0 .331.04l2.967-2.587q.452-.198.728-.198zm3.353-.078a.286.286 0 0 0-.075.01c-.143.04-.184.159-.123.358l1.041 2.696h.508l-1.107-2.852c-.056-.141-.138-.212-.243-.212zm-.86.217c-.03 0-.06.005-.094.015-.165.048-.195.171-.09.37l.95 2.462h.508L18.96 2.99c-.062-.153-.153-.23-.27-.23zm2.571 3.976c.081 0 .174.014.278.043v.13a.933.933 0 0 0-.28-.05.506.506 0 0 0-.195.037 1.71 1.71 0 0 1-.501.104l.065-.065c.19-.07.343-.126.455-.17a.492.492 0 0 1 .178-.029zm-.1.29l-.234.078c.087.035.165.061.235.078-.053-.043-.053-.095 0-.156zm.196 0c.026.052.017.109-.026.17a.807.807 0 0 0 .156-.053c-.009-.043-.052-.082-.13-.117zm-.065-.091c.113 0 .19.043.234.13l.117.065.013.065-.117.026a.433.433 0 0 1-.23.059 1.21 1.21 0 0 1-.473-.124h-.286v-.09h.299c.182-.088.33-.131.443-.131zm-2.357-1.08l.885 1.627c.058.08.112.121.162.121.025 0 .05-.01.073-.03l.286-.182c-.017-.061-.087-.152-.208-.274-.122-.121-.148-.267-.078-.436.039-.096.114-.144.226-.144.085 0 .192.029.32.085.278-.166.523-.25.735-.25l.06.003c.017-.2.048-.373.091-.52zm2.497.74c-.222 0-.512.097-.87.288-.078-.087-.156-.13-.234-.13-.078 0-.12.039-.124.117-.004.078.066.18.209.306s.21.232.202.319l-.04.013a.64.64 0 0 0 .261.449c.148.109.347.167.599.176l.049.001c.13 0 .188-.033.172-.099a.206.206 0 0 1 .04-.189l-.075.002c-.243 0-.307-.042-.193-.125.086-.062.154-.093.205-.093.025 0 .046.007.062.021-.034-.13.035-.2.209-.208a7.423 7.423 0 0 1-.443-.847h-.029zm-.935.965l-.377.234c-.026.4-.109.677-.248.834a1.595 1.595 0 0 1 .352-.007.546.546 0 0 1 .3.15c.095-.278.203-.5.325-.664-.226-.165-.343-.347-.352-.547zm3.892 2.77c-.19 0-.366.092-.532.277.312.008.52.108.625.3.087-.218.195-.34.325-.365.13-.026.061-.085-.208-.176a.652.652 0 0 0-.21-.036zm-4.4-1.416c-.338 0-.55.191-.637.573-.122.53-.14 1.354-.052 2.474.104 1.285.225 2.348.364 3.19l-.156.234h4.323l-.899-.364c.26-1.276.586-2.212.977-2.806.39-.595.456-.979.195-1.152a.443.443 0 0 0-.246-.083c-.176 0-.35.127-.522.382l-1.758 2.5-.312-.026c-.191-1.944-.395-3.394-.612-4.349-.104-.382-.326-.573-.664-.573zm-.375-6.664c.25 0 .419.147.506.44l1.12 2.917h.56a3.265 3.265 0 0 0-.157.924c.061.243.176.486.345.73.164.234.131.351-.098.351h-.025c.06.087.052.139-.026.156.069.035.078.072.026.11-.052.04-.074.125-.065.255.026.382.128.692.306.93.146.197.279.295.398.295a.216.216 0 0 0 .077-.014.459.459 0 0 1 .154-.035c.052 0 .087.018.106.054.035.065-.01.133-.137.202a.324.324 0 0 1-.158.037.987.987 0 0 1-.414-.122c-.257-.125-.489-.514-.697-1.165h-.365c-.112.104-.2.256-.26.456.312 1.007.569 2.482.768 4.427l1.758-2.474c.095-.148.217-.27.365-.365a.758.758 0 0 1 .615-.308c.065 0 .134.007.205.022v-2.8c0-.381.134-.577.404-.585a3.21 3.21 0 0 0-.638-.704c-.075-.132-.073-.198.005-.198.05 0 .13.027.242.081a8.5 8.5 0 0 1 .573.495c.217.226.34.393.37.501l.242.853c-.005.14-.027.21-.067.21-.032 0-.075-.043-.129-.132a12.31 12.31 0 0 0-.143-.43.629.629 0 0 0-.351-.377c-.148 0-.222.095-.222.286v2.852c.504.27.645.451.424.547a1.053 1.053 0 0 0-.499.467c-.063.43-.24.89-.53 1.382-.308.52-.588 1.285-.84 2.292l.99.43-.065.507h-5.56l.573-.677c-.278-2.7-.376-4.425-.293-5.176.082-.75.27-1.165.566-1.243.208-.209.29-.434.247-.677l-.325-.586a1.774 1.774 0 0 0-.768 1.51v6.849h-.287V8.901c0-.755.308-1.345.925-1.77l-.847-1.524h.6l-.925-2.396c-.13-.33-.072-.543.176-.638a.927.927 0 0 1 .332-.069c.113 0 .217.028.312.082.06-.191.237-.302.527-.332a.705.705 0 0 1 .074-.004zm14.197.43q.387 0 .717.308.33.308.33.724 0 .387-.28.71-.28.322-.767.322-.458 0-.76-.337-.3-.337-.3-.695 0-.387.3-.71.302-.322.76-.322zm-1.275 2.91q-.086 0-.1.1 0 .085.1.085.086 0 .1-.086-.014-.1-.1-.1zm0-.044q.143 0 .143.143 0 .115-.143.158-.086-.014-.172-.086.043-.215.172-.215zm.37-.154q-.106 0-.227.01.129.073.057.187-.071-.114-.2-.114-.244 0-.244.3.143.1.129.187-.014.086-.043.114.1.1.186.516.058 0 .072-.043-.014-.444.029-.587.129-.258.358-.265h.02q.215 0 .345.15.137.158.094.358-.043.201-.617.445v.028q.889-.229.81-.795-.068-.491-.769-.491zm.39-.147q.558 0 .63.688.071.688-1.118.917.2.086.33.316.129.229.143.473-.06.018-.115.018-.117 0-.215-.083-.143-.122-.344-.609-.305-.832-.73-.832h-.158q.018-.108.082-.108.037 0 .09.037.033-.065.126-.065.07 0 .175.036-.2-.215-.2-.43l.024.002q.095 0 .133-.102.007.005.02.005.07 0 .302-.12.28-.143.824-.143zM28.03 6.423q.083 0 .184.048.322.15.222 1.24-.817-.732-.68-1.061.093-.227.274-.227zm4.755 1.488q.087 0 .194.071-.373.258-.344 1.305h-.186q-.015-.99.129-1.233.084-.143.207-.143zm1.326-2.551q.502.014 1.104 1.01.602.996.602 2.917h-.43q-.015-1.52-1.319-1.52v1.52h-.287V7.15q.817-.616.33-1.791zm-.69 2.758q.035 0 .074.008v1.476h.888V8.126q.031-.006.06-.006.456 0 .456 1.482-.157 3.912-.544 4.916l.33.716h-4.744l.989-.43q-.488-2.135-1.09-3.146-.601-1.01-.272-1.24.083-.057.171-.057.266 0 .589.516l1.977 2.666h.502l.115-3.941q0-1.484.498-1.484zm.39-5.868q-.674.014-1.083.466-.408.451-.408 1.01 0 .473.215.745.172.287.415.445l-.032-.001q-.231 0-.512.187-.316.215-.287.287-.04-.033-.086-.033-.035 0-.072.018-.086.043-.071.172-.416.143-.416.889.184-.092.266-.092.02 0 .035.006.287 0 .774 1.146-.1.086-.272.33-.172.243-.172.845v.932h.358q-.014.788-.1 3.21l-1.992-2.723q-.416-.341-.658-.341-.083 0-.145.04l-.76-1.519q.53-.258 1.161-.3-.028-.388-.272-.689-.516.387-1.003.588.315-1.448-.337-1.734-.197-.087-.362-.087-.379 0-.584.46-.294.659.925 1.49-.545.258-1.118.258.014.401.286.716.387-.4 1.018-.602l.502 1.749q-.158.057-.201.358-.043.301.537 1.376.58 1.075.939 2.637l-1.046.587.071.674h6.134l-.501-1.232q.43-1.892.444-4.902l.788-.014q0-2.537-.702-3.633-.628-.981-.958-.981-.04 0-.074.014.817-.43.86-1.29 0-.616-.451-1.032-.452-.416-1.054-.43zm6.62 0h-.008a9.072 9.072 0 0 1-.657.022c-.047.003-.05.063-.035.097a13.26 13.26 0 0 1 .261.842h-.009c-.079.002-.159 0-.236.008l-.004.006c-.005-.018-.017-.034-.036-.038a16.795 16.795 0 0 1-.745-.54.065.065 0 0 0-.019-.004h-.004c-.024.016-.033.05-.047.075-.043.115-.079.233-.126.347-.034.086-.072.172-.098.26.011.025.033.033.057.033a.236.236 0 0 0 .066-.013c.301-.064.612-.058.918-.062-.03.067-.043.142-.071.21-.012.04-.027.079-.036.119h-.017c-.374.145-.74.323-1.06.568a3.96 3.96 0 0 0-.437.38c-.003.057.06.075.102.091l.259.107c-.044.06-.055.138-.083.206-.145.425-.349.827-.52 1.242.001.034.033.05.064.05a1.107 1.107 0 0 1 .213-.025c-.012.047-.017.097-.038.141-.102.325-.269.624-.395.939-.006.034.026.055.057.055a3.773 3.773 0 0 1 .492-.06c-.018.044-.021.092-.035.137-.075.32-.185.634-.199.964-.003.214.023.429.058.64.058.348.163.687.3 1.012 0 .03.028.049.054.049a.047.047 0 0 0 .043-.024c.02-.044.026-.093.04-.139a4.74 4.74 0 0 0 .16-.861 7.34 7.34 0 0 0 .032-.757c-.01-.296-.08-.585-.126-.876-.008-.044-.014-.09-.025-.133a4.115 4.115 0 0 1 .447.075c.047 0 .057-.063.036-.096-.127-.332-.256-.664-.362-1.003l.015.003c.129.023.258.053.388.06.04-.033.011-.088-.008-.126a3.813 3.813 0 0 1-.337-1.07c-.017-.102-.016-.206-.034-.306.111.045.222.09.333.133.049-.011.05-.071.041-.11a1.235 1.235 0 0 1 .156-.702c.104-.186.255-.339.409-.484.06.052.131.09.2.132l-.034.01c-.127.244-.233.498-.346.748-.015.035-.032.07-.037.108.019.03.05.036.083.036l.061-.002h.003l.141-.003c-.016.048-.02.103-.036.15l-.27 1.124c.012.04.051.048.089.048a.38.38 0 0 0 .032-.002l.232-.008c-.021.061-.031.128-.052.189-.1.368-.202.735-.3 1.103.01.041.051.05.09.05.011 0 .023 0 .034-.002l.37-.01a.507.507 0 0 0-.014.06c-.078.338-.196.669-.214 1.018-.002.316.045.63.117.937.06.248.144.49.24.725.004.027.03.045.055.045a.044.044 0 0 0 .038-.02c.02-.037.024-.08.039-.12a4.9 4.9 0 0 0 .183-1.113c.013-.2.02-.402.011-.602-.02-.288-.086-.57-.132-.855-.005-.028-.01-.057-.017-.085l.388-.013c.046-.035.02-.098.008-.143-.11-.395-.22-.79-.332-1.183l.324-.013c.046-.036.02-.097.007-.142l-.342-1.152.348-.01c.044-.029.023-.088.002-.125-.103-.234-.205-.469-.312-.701.077-.032.154-.065.229-.1.206.193.387.426.47.7.047.162.05.334.034.502.01.026.032.036.056.036a.12.12 0 0 0 .059-.017l.259-.107-.002.002c-.013.34-.08.676-.204.993-.057.154-.128.303-.19.456-.004.033.027.053.057.053a.06.06 0 0 0 .03-.007c.114-.017.228-.04.342-.062-.023.064-.039.13-.064.192-.097.284-.207.564-.313.845-.008.033.022.062.053.062a3.399 3.399 0 0 1 .443-.074.334.334 0 0 0-.007.039c-.046.261-.097.522-.13.785-.018.164-.02.33-.01.495.015.417.056.836.168 1.239.02.069.037.138.06.205a.048.048 0 0 0 .044.026c.022 0 .044-.012.049-.036.16-.383.278-.787.33-1.2.03-.239.05-.484.003-.723-.046-.253-.122-.5-.182-.752-.01-.029-.015-.06-.025-.09.073.003.145.007.216.017.1.01.2.031.3.04.042-.012.039-.067.018-.097-.14-.338-.323-.66-.412-1.017l-.005-.019a.41.41 0 0 1 .05.002c.064.004.128.017.191.023.045-.02.034-.08.013-.113-.186-.423-.387-.84-.531-1.28-.014-.035-.023-.073-.043-.104l-.004-.002c.117-.048.233-.097.349-.147.027-.047-.019-.091-.053-.118a4.141 4.141 0 0 0-.985-.685 3.799 3.799 0 0 0-.419-.176c-.01-.032-.025-.063-.033-.095-.037-.106-.068-.215-.115-.317l.03.003.036-.001a3.568 3.568 0 0 1 .917.074c.027 0 .055-.013.05-.043-.051-.16-.123-.312-.176-.472-.023-.065-.046-.132-.075-.194a.066.066 0 0 0-.035-.005c-.246.18-.488.368-.743.536-.027.014-.061.04-.042.074a.496.496 0 0 0-.093-.006l-.093.001a.727.727 0 0 1-.04 0h-.02a.045.045 0 0 0 .002-.018c.1-.297.199-.598.369-.863.02-.027.006-.074-.027-.08l-.007-.001zm3.668.872c-.187.014-.29.108-.31.28.024.188.128.286.31.296.182-.01.278-.108.288-.296-.015-.172-.11-.266-.288-.28zm.022-.62a.916.916 0 0 1 .668.276.974.974 0 0 1 .204.296c.049.11.073.227.073.35a.872.872 0 0 1-.073.359.929.929 0 0 1-.503.487.958.958 0 0 1-.37.07.986.986 0 0 1-.372-.07.889.889 0 0 1-.3-.195.96.96 0 0 1-.199-.292.872.872 0 0 1-.074-.358c0-.124.025-.24.074-.351.05-.111.116-.21.2-.296a.943.943 0 0 1 .672-.277zm-.015-.252a1.145 1.145 0 0 0-.827.343 1.231 1.231 0 0 0-.248.37c-.061.14-.092.292-.092.454 0 .163.03.314.092.454s.144.263.248.366a1.172 1.172 0 0 0 1.902-.366c.062-.14.092-.291.092-.454 0-.162-.03-.314-.092-.454a1.197 1.197 0 0 0-.62-.62 1.118 1.118 0 0 0-.455-.093zm-.026 2.876a1.154 1.154 0 0 0-.115.004c-.374 0-.696.361-.67.732-.02.291.041.58.057.87a.13.13 0 0 0 .122.069.206.206 0 0 0 .169-.091c.088-.123.049-.282.013-.416-.04-.24-.054-.505.078-.72a.45.45 0 0 1 .363-.17.44.44 0 0 1 .383.201.492.492 0 0 1-.071.617c-.159.188-.397.312-.499.545-.065.234-.01.479-.032.718-.02.87-.032 1.742-.048 2.614.045.037.098.044.153.044l.096-.002a.33.33 0 0 1 .077.007c.118-.06.109-.213.1-.326-.042-.914-.011-1.829-.034-2.743.002-.104-.032-.224.079-.284.219-.212.452-.424.587-.704.137-.406-.17-.892-.595-.943a1.055 1.055 0 0 0-.213-.022zm5.193-2.716q.075 0 .123.09.074.118-.111.2-.177.088-.118.302l.17.731q-.177.022-.31.177v-.915q0-.465.125-.54.068-.045.121-.045zm-.416 1.658v.275l-.605-.064q.014-.074.228-.151.156-.057.377-.06zm.265.017q.266.055.4.327l-.48-.05v-.105q0-.052.066-.155l.014-.017zm.79.305q-.04 0-.118.133.192-.067.14-.118-.009-.015-.022-.015zm-1.697.384q-.023.044-.019.07.004.026.04.04-.044 0-.08-.022.007-.044.059-.088zm.066-.015q.066.007.118.037-.03.052-.096.089.03-.037.026-.074t-.048-.052zm-.03-.03q-.103 0-.14.156.067.044.163.044t.162-.11h.177v-.06l-.177.015q-.081-.044-.184-.044zm-1.779-.199q.443 0 0 .82-.443-.82 0-.82zm3.449-.187q.028 0 .05.025.082.096-.14.2.23.346.237.826l-.06.007q0-.487-.191-.804l-.015.007q.14.31.147 1.026l-.066.008q-.044-.717-.081-.886l-.067-.244q.112-.165.186-.165zm-1.567.23q.072 0 .134.02.147.048.147.203h.104q.022-.14.088-.14.067 0 .022.14l-.206.325v.694l-.022.007q-.03-.052-.07-.133-.041-.08-.056-.214h-.221q-.126 0-.126-.059 0-.11.118-.125 0-.06-.037-.06l-.147-.007q.044-.103-.089-.133 0-.059.118-.265V4.7l.022.03q.096-.045.148-.052.06 0 .177.052h.133v-.052h-.133q-.103-.067-.177-.067-.081 0-.17.067 0-.06.022-.067.12-.038.22-.038zm-.162-.183l.665.071v.062h.184V4.48l.532.057q.007.037.074.243.096.288.081 2.03l-.93.008V5.143q.051-.074.133-.207.08-.133.077-.284-.003-.127-.122-.127-.024 0-.051.005-.118 0-.148.148-.007-.118-.133-.174-.057-.025-.147-.025-.11 0-.266.036.007-.073.051-.125zm-1.73 2.38q.298 0 .357.204h-.28q-.229-.022-.229-.192.083-.011.153-.011zm2.18-.638v.842h.798q-.007.457-.085 1.1-.077.642-.195 1.089-.119.446.155.727h-2.178q.074-.081.1-.273.025-.192-.167-.65l-.553-1.676q.004-.244.131-.244.08 0 .208.097l.753 1.114.28.355q.075.051.132.051.115 0 .164-.206.266-.606.2-1.484-.259-.273.258-.842zm.639-3.882q-.1 0-.225.08-.2.133-.2.783v.803q-.204.01-.346.042-.214.048-.35.207-.137.159-.137.44-.03.117-.008.22-.125.222-.125.303 0 .044.11.044l-.022.067q.015.037.045.044-.022.03-.015.067l.052.022q-.045.2.17.2h.154q.015.14.17.376-.007.014-.144.184-.136.17-.27.41-.132.24.06.469.052.745-.229 1.38l-.974-1.417q-.109-.355-.38-.355h-.012V5.586h.524v-.177h-.524q.532-1.026-.133-1.026-.657 0-.132 1.026h-.517v.177h.51v1.033q-.414 0-.082.525.782 2.347.76 2.502-.022.163-.217.28-.196.119-.1.222h2.938q.148-.066 0-.207-.391-.465-.251-.893t.244-2.074h.273v-.487q0-.443-.008-.76.06-.008.133-.038l-.014-.221.132-.008q0-.546-.236-.863.259-.104.118-.266-.054-.066-.114-.066-.092 0-.196.162-.192-.364-.428-.472.099-.055.236-.097l-.206-.878q-.03-.103.125-.2.207-.147.081-.354-.092-.176-.24-.176zm-6.294 9.03a1.17 1.17 0 0 0-.28.035c-.186.045-.39.15-.609.312H37.69v.975h4.408c.22.163.423.267.61.313a1.17 1.17 0 0 0 .556 0c.184-.046.367-.15.551-.313h.17c.176.163.358.267.545.313a1.175 1.175 0 0 0 .562 0 1.66 1.66 0 0 0 .599-.313h4.45v-.975h-4.45a1.66 1.66 0 0 0-.599-.312 1.175 1.175 0 0 0-.562 0c-.187.045-.369.15-.545.312h-.17a1.333 1.333 0 0 0-.55-.312 1.137 1.137 0 0 0-.278-.035zm0 2.801a1.17 1.17 0 0 0-.28.034c-.186.046-.39.15-.609.313H37.69v.975h4.408c.22.162.423.267.61.313a1.17 1.17 0 0 0 .556 0c.184-.046.367-.15.551-.313h.17c.176.162.358.267.545.313a1.175 1.175 0 0 0 .562 0 1.66 1.66 0 0 0 .599-.313h4.45v-.975h-4.45a1.66 1.66 0 0 0-.599-.313 1.175 1.175 0 0 0-.562 0c-.187.046-.369.15-.545.313h-.17a1.333 1.333 0 0 0-.55-.313 1.137 1.137 0 0 0-.278-.034z"/><path d="M8.22.375c-9.625 0-9.625 17.25 0 17.25m0-17.25h41.921M8.22 17.625h41.921M57.829.375v17.25M50.141.375c9.625 0 9.625 17.25 0 17.25" fill="none" stroke="#000"/></svg>