<svg xmlns="http://www.w3.org/2000/svg" width="55.847" height="18"><path d="M14.812 2.68q.387 0 .717.308.33.308.33.724 0 .387-.28.71-.28.322-.767.322-.458 0-.76-.337-.3-.337-.3-.695 0-.387.3-.71.302-.322.76-.322zm-1.275 2.91q-.086 0-.1.1 0 .085.1.085.086 0 .1-.086-.014-.1-.1-.1zm0-.044q.143 0 .143.143 0 .115-.143.158-.086-.014-.172-.086.043-.215.172-.215zm.37-.154q-.106 0-.227.01.13.073.058.187-.072-.114-.201-.114-.244 0-.244.3.144.1.13.187-.015.086-.044.114.1.1.187.516.057 0 .071-.043-.014-.444.029-.587.129-.258.358-.265h.02q.215 0 .346.15.136.158.093.358-.043.201-.617.445v.028q.889-.229.81-.795-.068-.491-.768-.491zm.39-.147q.558 0 .63.688.072.688-1.118.917.2.086.33.316.129.229.143.473-.06.018-.115.018-.117 0-.215-.083-.143-.122-.343-.609-.306-.832-.731-.832h-.158q.018-.108.082-.108.037 0 .09.037.033-.065.126-.065.07 0 .175.036-.2-.215-.2-.43l.024.002q.095 0 .133-.102.007.005.02.005.07 0 .302-.12.28-.143.824-.143zM9.031 6.423q.083 0 .184.048.322.15.222 1.24-.817-.732-.68-1.061.093-.227.274-.227zm4.755 1.488q.087 0 .194.071-.372.258-.344 1.305h-.186q-.014-.99.129-1.233.084-.143.207-.143zm1.326-2.551q.502.014 1.104 1.01.602.996.602 2.917h-.43q-.015-1.52-1.319-1.52v1.52h-.286V7.15q.817-.616.33-1.791zm-.69 2.758q.036 0 .074.008v1.476h.889V8.126q.03-.006.06-.006.456 0 .456 1.482-.158 3.912-.545 4.916l.33.716h-4.744l.989-.43q-.487-2.135-1.09-3.146-.601-1.01-.272-1.24.083-.057.171-.057.266 0 .589.516l1.978 2.666h.501l.115-3.941q0-1.484.499-1.484zm.39-5.868q-.674.014-1.083.466-.408.451-.408 1.01 0 .473.215.745.172.287.415.445l-.032-.001q-.231 0-.512.187-.315.215-.287.287-.04-.033-.086-.033-.035 0-.071.018-.086.043-.072.172-.416.143-.416.889.184-.092.266-.092.021 0 .035.006.287 0 .774 1.146-.1.086-.272.33-.172.243-.172.845v.932h.358q-.014.788-.1 3.21l-1.992-2.723q-.416-.341-.657-.341-.083 0-.146.04L9.81 8.27q.531-.258 1.162-.3-.03-.388-.273-.689-.516.387-1.003.588.315-1.448-.337-1.734-.197-.087-.362-.087-.379 0-.584.46-.293.659.925 1.49-.545.258-1.118.258.014.401.287.716.387-.4 1.017-.602l.502 1.749q-.158.057-.2.358-.044.301.537 1.376.58 1.075.938 2.637l-1.046.587.072.674h6.133l-.501-1.232q.43-1.892.444-4.902l.788-.014q0-2.537-.702-3.633-.628-.981-.958-.981-.039 0-.074.014.817-.43.86-1.29 0-.616-.451-1.032-.452-.416-1.054-.43zm5.668 8.838c.401.153.838.645.965 1.05.128.406.113.879.023 1.344-.09.458-.27.894-.488 1.18-.15.195-.285.307-.413.345h-.12c-.128-.03-.293-.143-.458-.346-.218-.285-.398-.72-.488-1.179-.09-.465-.105-.938.022-1.344.128-.405.606-.931.958-1.046v-.004zm-.424-8.838v.901h-.81v.578h.81l-.112 6.818c-.578.3-.939.81-1.111 1.359a3.576 3.576 0 0 0-.068 1.734 3.49 3.49 0 0 0 .646 1.457c.232.3.54.548.9.623v.022c.023.008.046.008.068.008.03 0 .06-.008.09-.008a.532.532 0 0 0 .105.008c.03 0 .053 0 .083-.008v-.022c.36-.075.668-.323.901-.623a3.49 3.49 0 0 0 .646-1.457 3.576 3.576 0 0 0-.068-1.734 2.228 2.228 0 0 0-1.111-1.337l-.113-6.84h.766l.023-.578h-.856V2.25h-.789zm4.472 1.647q-.09 0-.216.11-.496.668-.535 1.909.153.973.688 2.748-.191 1.431-.287 3.931-.076.84.458 1.088 1.584.42 4.008.42 2.443 0 4.008-.42.553-.248.477-1.088-.095-2.5-.286-3.931.534-1.775.687-2.748-.038-1.241-.534-1.909-.126-.11-.216-.11-.13 0-.185.225.133.381.248.744.153.458.114.859-.038.649-.124 1.059-.086.41-.353.41l-.028.001q-.449 0-.449-1.203 0-.44.115-1.069-.099-.167-.212-.167-.107 0-.227.148-.058.458-.077 1.012-.076.84.401 2.366-.172 2.157-.172 4.313-1.297.21-3.187.267-1.87-.057-3.168-.267 0-2.156-.172-4.313.477-1.527.401-2.366-.019-.554-.076-1.012-.12-.148-.227-.148-.114 0-.212.167.114.63.114 1.069 0 1.203-.449 1.203h-.028q-.267 0-.353-.411-.086-.41-.124-1.06-.038-.4.115-.858.114-.363.248-.744-.057-.225-.185-.225zm11.296 7.08v1.225h2.703v-1.225h-.53c-.154.272-.33.449-.529.53a.76.76 0 0 1-.59 0c-.195-.081-.37-.258-.524-.53zm1.64-4.458v2.03h-.614v2.483h.662V9.476h.768V7.347h.95c.168 1.324.628 2.308 1.378 2.952.75.643 1.677 1.016 2.78 1.12 1.104.102 1.829.248 2.174.435.346.188.519.377.519.569h1.346c-.206-.493-.482-.868-.827-1.126-.346-.257-.988-.42-1.926-.485-.938-.067-1.688-.19-2.25-.37a3.588 3.588 0 0 1-1.507-.96c-.441-.46-.78-1.447-1.015-2.963zm-.893 7.115l-1.541 1.823h.752l.79-.942.797.942.774-.942.797.942.79-.942.797.942.79-.942.797.942.775-.942.797.942.797-.942.775.942.797-.942.79.942h.752l-1.542-1.823-.797.881-.775-.88-.797.88-.797-.88-.775.88-.797-.88-.79.88-.797-.88-.79.88-.797-.88-.774.88-.798-.88zm8.139-9.187c-.409.032-.635.237-.678.613.054.409.28.624.678.646.398-.022.608-.237.63-.646-.033-.376-.243-.58-.63-.613zm.048-1.355c.29 0 .56.054.807.161a2.127 2.127 0 0 1 1.097 1.089c.108.242.161.498.161.767 0 .28-.053.54-.16.782a2.029 2.029 0 0 1-1.098 1.065 2.092 2.092 0 0 1-.807.153c-.29 0-.562-.05-.814-.153a1.94 1.94 0 0 1-.654-.428 2.097 2.097 0 0 1-.435-.637 1.905 1.905 0 0 1-.162-.782c0-.27.054-.525.162-.767.107-.242.252-.457.435-.645s.4-.336.654-.444c.252-.107.524-.161.814-.161zm-.032-.549a2.5 2.5 0 0 0-1 .202 2.494 2.494 0 0 0-.807.549c-.226.23-.406.5-.54.806a2.443 2.443 0 0 0-.202.993c0 .354.067.685.202.992.134.306.314.572.54.798a2.56 2.56 0 0 0 1.807.742c.355 0 .686-.067.992-.201.307-.135.576-.315.807-.54.231-.227.414-.493.549-.8.134-.306.201-.637.201-.991 0-.355-.067-.686-.201-.993a2.615 2.615 0 0 0-1.356-1.355 2.443 2.443 0 0 0-.992-.202z"/><path d="M8.22.375c-9.625 0-9.625 17.25 0 17.25m0-17.25h39.377M8.22 17.625h39.377M55.284.375v17.25M47.597.375c9.625 0 9.625 17.25 0 17.25" fill="none" stroke="#000"/></svg>