<svg xmlns="http://www.w3.org/2000/svg" width="62.528" height="18"><path d="M11.386 8.203c-.51.04-.793.296-.847.767.067.51.35.78.847.806.498-.026.76-.295.787-.806-.04-.47-.303-.726-.787-.767zm.06-1.694c.364 0 .7.068 1.01.202a2.659 2.659 0 0 1 1.371 1.361c.134.303.201.622.201.958 0 .35-.067.676-.202.978a2.567 2.567 0 0 1-2.38 1.523c-.362 0-.702-.064-1.018-.192a2.426 2.426 0 0 1-.816-.534 2.621 2.621 0 0 1-.545-.797 2.38 2.38 0 0 1-.202-.978c0-.336.068-.655.202-.958.134-.302.316-.571.545-.806.228-.236.5-.42.816-.555a2.574 2.574 0 0 1 1.019-.202zm-.04-.685c-.443 0-.86.084-1.25.252-.39.168-.726.396-1.008.685a3.36 3.36 0 0 0-.676 1.009 3.053 3.053 0 0 0-.252 1.24c0 .444.084.857.252 1.24.168.384.393.716.676.999a3.2 3.2 0 0 0 2.258.927c.444 0 .857-.084 1.24-.252a3.36 3.36 0 0 0 1.009-.675c.289-.283.518-.615.686-.999.168-.383.252-.796.252-1.24 0-.444-.084-.857-.252-1.24a3.268 3.268 0 0 0-1.694-1.694 3.053 3.053 0 0 0-1.24-.252zm8.74-3.574c-.09 0-.095.283-.224.701-.146.476-.254 1.472-.591 1.665a.298.298 0 0 1-.153.039c-.1 0-.202-.038-.313-.038a.409.409 0 0 0-.127.02c-.158.05-.242.297-.408.326-.692.12-1.637.075-2.166.123-.34.03.567.698 1.473.698h.039c.188-.005.387-.013.584-.013.33 0 .658.024.928.135.264.109.575.425.572.735l-.11 9.109h1.019l-.052-10.289c-.002-.276.795-.464.9-.702.181-.415.088-2.247-.205-2.493a.016.016 0 0 0-.01-.004c-.132 0-.378 1.92-.766 2.333-.04.043-.118.062-.185.062-.073 0-.133-.022-.121-.062.246-.838.345-2.061-.041-2.329a.077.077 0 0 0-.043-.016zm8.861.273q.128 0 .21.155.126.201-.19.34-.303.152-.202.518l.29 1.249q-.302.038-.53.303V3.523q0-.795.215-.921.116-.08.207-.08zm-.712 2.834v.47l-1.035-.108q.026-.127.392-.26.266-.096.643-.102zm.453.029q.455.094.683.56l-.82-.086v-.18q0-.088.113-.264l.024-.03zm1.35.522q-.068 0-.2.227.328-.114.24-.202-.016-.025-.04-.025zm-2.9.656q-.038.076-.032.12.006.044.07.07-.076 0-.14-.039.013-.075.101-.151zm.113-.025q.114.012.202.063-.05.088-.164.151.05-.063.044-.126-.006-.063-.082-.088zm-.05-.05q-.177 0-.24.264.113.076.277.076.164 0 .278-.19h.303v-.1l-.303.025q-.139-.076-.316-.076zm-3.041-.341q.757 0 0 1.4-.758-1.4 0-1.4zm5.893-.32q.049 0 .088.042.138.164-.24.34.391.594.404 1.414l-.101.012q0-.832-.328-1.375l-.026.013q.24.53.253 1.754l-.114.012q-.076-1.224-.139-1.514l-.113-.416q.19-.282.316-.282zm-2.678.392q.123 0 .23.035.252.082.252.347h.176q.038-.24.152-.24.113 0 .038.24l-.354.555v1.186l-.038.013q-.05-.089-.12-.227-.069-.14-.094-.366h-.379q-.214 0-.214-.101 0-.19.202-.215 0-.1-.063-.1l-.253-.013q.076-.177-.151-.227 0-.101.202-.455v-.214l.038.05q.164-.075.252-.088.1 0 .303.088h.227V6.4h-.227q-.177-.114-.303-.114-.139 0-.29.114 0-.101.038-.114.205-.066.376-.066zm-.275-.312l1.135.121v.106h.316v-.072l.908.097q.013.063.126.417.164.492.14 3.47l-1.59.012V7.195q.088-.126.226-.353.14-.228.133-.486-.005-.217-.21-.217-.04 0-.087.009-.202 0-.252.252-.013-.202-.227-.297-.098-.043-.253-.043-.185 0-.454.062.013-.126.089-.214zm-2.957 4.069q.507 0 .61.347h-.48q-.391-.038-.391-.328.142-.02.261-.02zm3.726-1.091v1.438h1.363q-.013.782-.145 1.88-.133 1.098-.334 1.861-.202.764.265 1.243h-3.723q.126-.138.17-.467.045-.328-.283-1.11l-.947-2.864q.008-.418.225-.418.136 0 .356.165l1.287 1.906.48.605q.125.089.224.089.196 0 .28-.354.454-1.034.34-2.536-.441-.467.442-1.438zM29.02 2.25q-.17 0-.384.137-.34.227-.34 1.338v1.372q-.35.018-.594.073-.366.082-.6.353-.233.271-.233.75-.05.203-.012.38-.215.378-.215.517 0 .075.19.075l-.038.114q.025.063.075.076-.038.05-.025.113l.088.038q-.075.34.29.34h.266q.025.24.29.644-.013.025-.246.316-.234.29-.46.7-.228.41.1.801.088 1.275-.391 2.36l-1.666-2.423q-.185-.606-.65-.606h-.018V7.952h.896v-.303h-.896q.908-1.754-.227-1.754-1.124 0-.228 1.754h-.883v.303h.87v1.766q-.706 0-.138.896 1.337 4.013 1.3 4.278-.038.278-.373.48-.334.201-.17.378h5.022q.252-.114 0-.353-.669-.795-.429-1.527.24-.732.416-3.546h.467v-.833q0-.757-.012-1.3.1-.012.227-.062l-.025-.379.227-.013q0-.933-.404-1.476.442-.177.202-.454-.094-.113-.195-.113-.158 0-.335.277-.329-.622-.733-.806.17-.095.405-.166l-.353-1.501q-.051-.177.214-.341.353-.252.139-.606-.158-.301-.411-.301zm9.139.293c.024 0 .049.003.075.01.143.04.185.159.124.358l-1.042 2.696h-.508l1.107-2.852c.057-.141.138-.212.244-.212zm.86.217c.03 0 .061.005.094.015.165.048.195.171.091.37l-.95 2.462h-.508l1.003-2.617c.062-.153.152-.23.27-.23zm-2.57 3.976c-.082 0-.174.014-.279.043v.13a.933.933 0 0 1 .28-.05c.073 0 .138.013.196.037.126.052.293.087.501.104l-.065-.065a27.78 27.78 0 0 1-.456-.17.494.494 0 0 0-.178-.029zm.099.29l.234.078a1.728 1.728 0 0 1-.234.078c.052-.043.052-.095 0-.156zm-.195 0c-.026.052-.018.109.026.17a.807.807 0 0 1-.156-.053c.008-.043.052-.082.13-.117zm.065-.091c-.113 0-.191.043-.235.13l-.117.065-.013.065.117.026c.064.04.14.059.23.059.13 0 .288-.041.474-.124h.286v-.09h-.3c-.182-.088-.33-.131-.442-.131zm2.357-1.08l-.886 1.627c-.058.08-.112.121-.162.121a.109.109 0 0 1-.072-.03l-.287-.182c.018-.061.087-.152.209-.274.121-.121.147-.267.078-.436-.04-.096-.115-.144-.226-.144a.834.834 0 0 0-.321.085c-.277-.166-.522-.25-.735-.25l-.06.003a2.686 2.686 0 0 0-.09-.52zm-2.498.74c.222 0 .512.097.87.288.078-.087.156-.13.234-.13.079 0 .12.039.124.117.004.078-.065.18-.208.306s-.21.232-.202.319l.039.013a.64.64 0 0 1-.26.449c-.148.109-.348.167-.6.176a.936.936 0 0 1-.048.001c-.13 0-.188-.033-.173-.099a.206.206 0 0 0-.039-.189l.075.002c.243 0 .307-.042.192-.125-.085-.062-.153-.093-.205-.093a.093.093 0 0 0-.062.021c.035-.13-.035-.2-.208-.208.19-.321.338-.604.443-.847h.028zm.935.965l.378.234c.026.4.108.677.247.834a1.596 1.596 0 0 0-.21-.015c-.05 0-.097.003-.141.008a.546.546 0 0 0-.3.15 2.489 2.489 0 0 0-.325-.664c.225-.165.342-.347.351-.547zm-3.891 2.77c.189 0 .366.092.532.277-.313.008-.521.108-.625.3-.087-.218-.196-.34-.326-.365-.13-.026-.06-.085.209-.176a.652.652 0 0 1 .21-.036zm4.399-1.416c.338 0 .551.191.638.573.121.53.139 1.354.052 2.474a39.963 39.963 0 0 1-.365 3.19l.157.234h-4.323l.898-.364c-.26-1.276-.586-2.212-.976-2.806-.391-.595-.456-.979-.196-1.152a.443.443 0 0 1 .247-.083c.176 0 .35.127.522.382l1.757 2.5.313-.026c.19-1.944.395-3.394.612-4.349.104-.382.325-.573.664-.573zm.376-6.664c-.25 0-.42.147-.506.44l-1.12 2.917h-.56c.104.347.156.655.156.924-.06.243-.176.486-.345.73-.163.234-.13.351.099.351h.025c-.06.087-.052.139.026.156-.07.035-.078.072-.026.11.052.04.074.125.065.255-.026.382-.128.692-.306.93-.146.197-.279.295-.399.295a.216.216 0 0 1-.076-.014.459.459 0 0 0-.155-.035c-.051 0-.086.018-.106.054-.034.065.011.133.137.202a.324.324 0 0 0 .159.037c.111 0 .249-.04.414-.122.256-.125.488-.514.697-1.165h.364c.113.104.2.256.26.456-.312 1.007-.568 2.482-.768 4.427l-1.757-2.474a1.217 1.217 0 0 0-.365-.365.758.758 0 0 0-.615-.308.987.987 0 0 0-.205.022v-2.8c0-.381-.135-.577-.404-.585a3.21 3.21 0 0 1 .638-.704c.074-.132.072-.198-.005-.198a.66.66 0 0 0-.242.081 8.5 8.5 0 0 0-.573.495c-.217.226-.341.393-.371.501l-.241.853c.005.14.027.21.067.21.032 0 .074-.043.128-.132.035-.113.083-.256.143-.43a.63.63 0 0 1 .352-.377c.147 0 .221.095.221.286v2.852c-.503.27-.644.451-.423.547.205.088.371.244.498.467.063.43.24.89.53 1.382.309.52.589 1.285.84 2.292l-.99.43.066.507h5.56l-.573-.677c.278-2.7.375-4.425.293-5.176-.082-.75-.271-1.165-.566-1.243-.209-.209-.291-.434-.248-.677l.326-.586c.512.373.768.876.768 1.51v6.849h.286V8.901c0-.755-.308-1.345-.924-1.77l.846-1.524h-.599l.925-2.396c.13-.33.071-.543-.176-.638a.927.927 0 0 0-.333-.069.618.618 0 0 0-.312.082c-.06-.191-.236-.302-.527-.332a.705.705 0 0 0-.073-.004zm6.255.416h-.002c-.075.001-.135.067-.134.148a.14.14 0 0 0 .137.143h.002c.076-.001.136-.068.134-.148l-.136.002.136-.003a.14.14 0 0 0-.137-.142zm.025-.024a.555.555 0 0 1 .313.195l.061.121v.001c.012.14-.04.354-.116.565a.434.434 0 0 0-.066-.205.47.47 0 0 0-.199-.162c-.134-.064-.256-.092-.391-.179a.196.196 0 0 0-.087-.03l-.069-.006a.196.196 0 0 0 .092-.118l-.003.013s.008-.013.028-.029a.713.713 0 0 1 .134-.08 1.028 1.028 0 0 1 .303-.086zm1.005.252a.986.986 0 0 1 .504.346c.157.204.243.488.297.818l-.575-.054a1.955 1.955 0 0 0-.028-.8.681.681 0 0 0-.198-.31zm-.43 2.676c.12.014.238.024.352.029 1.098.05 2.212.533 2.847 1.026.697.54 1.513.971 2.32 1.308a9.79 9.79 0 0 1-1.065.052 5.863 5.863 0 0 1-.201.003c-1.237 0-2.484-.39-3.45-1.16a2.482 2.482 0 0 1-.802-1.258zm-1.084-.468c.03.082.08.161.182.215.147.079.314.136.488.179.1.635.49 1.253.973 1.639 1.043.83 2.373 1.245 3.692 1.245a6.292 6.292 0 0 0 .246-.004 9.17 9.17 0 0 0 1.756-.156v-.005c.388.139.766.257 1.118.355-.582-.04-1.187-.17-1.816-.19a6.468 6.468 0 0 0-.196-.003c-.59 0-1.173.074-1.725.084h-.073c-1.566 0-2.863-.896-4.118-2.107-.29-.28-.508-.838-.527-1.252zm6.798 3.68c.462.03.938.117 1.427.163.14.097.29.173.413.25.096.06.163.118.204.166a.55.55 0 0 1-.06.015 1.295 1.295 0 0 1-.414.004 6.372 6.372 0 0 1-.958-.279 2.888 2.888 0 0 1-.612-.32zM44.38 2.25h-.01c-.15.003-.308.053-.46.124a1.05 1.05 0 0 0-.215.128.53.53 0 0 0-.104.106c-.205.054-.46.076-.723.107-.295.036-.603.083-.87.246-.433.264-.757.761-.905 1.244a.196.196 0 0 0 .352.163c.452-.706.755-.91 1.089-.986a3.56 3.56 0 0 1 .761-.073c.167 0 .34.009.516.025.172.102.324.145.391.177.034.016.04.024.04.024s.006.007.003.052c-.006.102-.153.32-.34.552-.186.232-.408.485-.428.815-.036.567.212 1.263.646 1.682.402.388.815.75 1.246 1.065.091.597.208 1.43.278 2.012-.16.732-.557 1.382-.758 2.102-.061.133-.206.19-.347.19a.533.533 0 0 1-.132-.017c-.204-.03-.41-.06-.617-.06a1.828 1.828 0 0 0-.206.01c-.142 0-.62.19-.548.457.022.06.443.087.891.087.332 0 .678-.014.89-.04a.402.402 0 0 0 .443-.337c.265-.736.578-1.452.84-2.188.003-.634-.168-1.249-.232-1.876.309.191.626.355.956.485.15.3.83 1.262 1.082 1.638l.134 1.912c-.354-.013-.701-.111-1.055-.111-.046 0-.091.001-.137.005-.275 0-.362.538-.154.538.008 0 .016 0 .025-.002.402.004.804.012 1.206.012l.393-.003c.137-.021.216-.183.177-.31l-.157-2.164c-.137-.254-.544-.857-.851-1.307a4.447 4.447 0 0 0 1.103.119c.51-.01 1.017-.065 1.51-.08.209.339.628.537 1.034.693.427.165.848.264 1.024.298a1.64 1.64 0 0 0 .562-.003.681.681 0 0 0 .273-.101.334.334 0 0 0 .118-.134.31.31 0 0 0 .015-.208.695.695 0 0 0-.287-.37l.023-.003c.07-.01.133-.022.193-.042.03-.01.06-.02.094-.043a.22.22 0 0 0 .108-.15.227.227 0 0 0-.055-.197.344.344 0 0 0-.082-.068 1.067 1.067 0 0 0-.172-.086 3.268 3.268 0 0 0-.373-.125c-1.278-.344-2.956-.963-4.187-1.919-.71-.55-1.871-1.054-3.07-1.107-.38-.018-.824-.097-1.087-.237l.012.006c.005 0-.017-.022-.025-.06-.01-.05 0-.112 0-.112.042-.097.146-.211.271-.339.125-.127.27-.267.364-.458.113-.232.241-.516.28-.804a.36.36 0 0 1 .066.104c.037.133.033.649-.024.8a.196.196 0 0 0 .165.265l1.05.098a.197.197 0 0 0 .214-.219c-.054-.454-.14-.9-.41-1.251-.268-.348-.716-.567-1.381-.583a.725.725 0 0 0-.436-.168zm7.844.285c.558 0 1.056.258 1.38.661h-2.76a1.765 1.765 0 0 1 1.38-.661zm1.567.946c.106.203.174.429.195.669h-3.524c.02-.24.089-.466.195-.669zm.197.954a1.76 1.76 0 0 1-.186.668h-3.156a1.76 1.76 0 0 1-.186-.668zm-.366.953a1.765 1.765 0 0 1-1.398.684 1.765 1.765 0 0 1-1.398-.684zM52.224 2.25a2.056 2.056 0 0 0-2.054 2.054c0 1.132.922 2.053 2.054 2.053a2.056 2.056 0 0 0 2.054-2.053 2.056 2.056 0 0 0-2.054-2.054zm-9.522 11.587l-1.618 1.913h.789l.829-.989.837.989.813-.989.837.989.83-.989.836.989.83-.989.837.989.813-.989.837.989.837-.989.813.989.837-.989.83.989h.789l-1.619-1.913-.837.924-.813-.924-.837.924-.837-.924-.813.924-.837-.924-.83.924-.837-.924-.829.924-.837-.924-.813.924-.837-.924z"/><path d="M8.22.375c-9.625 0-9.625 17.25 0 17.25m0-17.25h46.058M8.22 17.625h46.058M61.965.375v17.25M54.278.375c9.625 0 9.625 17.25 0 17.25" fill="none" stroke="#000"/></svg>