<svg xmlns="http://www.w3.org/2000/svg" width="102.974" height="18"><path d="M3.73.474c.693 0 1.247.2 1.634.479.006.053.02.107.009.16-.05.248-.195.477-.396.63-.316.207-.697.267-1.057.356-.09.01-.019.031.031.04.23.04.707.099.971.099l.052-.001c.278-.032.54-.148.766-.311.079-.067.147-.15.205-.236.147.346.227.713.26.917.018.11.096.2.202.233 1.139.349 2.038 1.91 2.88 2.949 1.729 2.137 3.199 4.526 4.892 6.76-.937-.456-1.87-.916-2.81-1.374-1.92-1.01-3.92-1.816-5.604-3.09l-.008-.008c-.97-.808-1.963-1.66-2.339-2.793-.148-.92 1.757-2.577 1.542-2.646a.207.207 0 0 0-.064-.01c-.458 0-1.753 1.128-2.019 2.202-.003-.014-.01-.03-.014-.045-.073-.356-.154-1.256.068-1.98a.29.29 0 0 0 .01-.103 1.968 1.968 0 0 0-.123-.634c-.063-.17-.139-.344-.26-.765-.031-.108-.142-.328-.208-.345.186-.138.375-.28.645-.375a.434.434 0 0 0-.132.314c0 .23.164.415.365.415.2 0 .364-.186.364-.415V.894a.411.411 0 0 0-.255-.39c.053-.007.096-.019.154-.022.081-.006.16-.008.238-.008zm.67 7.763c.065.065.135.124.202.187.214.78.412 1.64.692 2.305.483 1.145 1.216 2.141 1.84 3.154a1.814 1.814 0 0 0-.385.27 6.831 6.831 0 0 0-.199.193 2.61 2.61 0 0 0-1.186-.897c.045-.723-.108-1.712-.34-2.787A34.903 34.903 0 0 0 4.4 8.237zm1.006.908c1.149.945 2.428 1.738 3.676 2.54-.018.91-.018 1.778.084 2.675a3.411 3.411 0 0 0-1.437-.736c-.02 0-.037.012-.057.012-.649-1.063-1.383-2.06-1.837-3.134-.156-.37-.293-.85-.429-1.357zm.407 5.254a2.5 2.5 0 0 1 .44.541.3.3 0 0 0 .257.14.29.29 0 0 0 .17-.053c.215-.156.347-.324.476-.446.047-.045.097-.08.148-.117l.149 2.722c-.213-.014-.435-.035-.637-.035-.264 0-.495.036-.633.172-.169-.134-.497-.164-.89-.164-.102 0-.207.002-.316.004l.836-2.764zM6.97 9.574c1.354.787 2.784 1.414 4.135 2.125a.244.244 0 0 0 .006.003c1.295.631 2.586 1.28 3.894 1.904.984 1.189 2.052 2.295 3.078 3.42l-2.15.362-4.267-4.635a.288.288 0 0 0-.037-.036c-1.499-1.137-3.152-2.082-4.66-3.143zM3.796 0c-.135 0-.273.005-.411.013C2.3.083 1.512.54 1.243 1.157c-.04.093-.146.314-.007.314a2.35 2.35 0 0 1 .341-.028c.418 0 .38.172.47.194.09.282.29.846.303 1.068-.244.86-.153 1.763-.064 2.198.15.732.63 1.584 1.261 2.38a.285.285 0 0 0 0 .166 35.3 35.3 0 0 1 .903 3.336c.251 1.168.393 2.277.317 2.823a.294.294 0 0 0 .221.328c.045.011.084.031.127.045l-.928 3.079a2.847 2.847 0 0 0-.593-.055c-.381 0-.756.05-1.064.05-.125 0-.24-.008-.34-.032a.546.546 0 0 0-.125-.012c-.436 0-1.428.306-1.34.879.15-.128.257-.159.375-.159.11 0 .23.027.405.027h.027c.254-.004.697-.083 1.053-.083.18 0 .338.02.438.08.236-.01.45-.013.649-.013.85 0 1.447.07 2.5.075a89.565 89.565 0 0 0 2.974-.079c.45.003.697.054.922.054h.04c.134-.004.265-.057.48-.057.123 0 .273.017.468.07-.25-.341-.877-.685-1.33-.685a.591.591 0 0 0-.302.071 5.081 5.081 0 0 0-.508-.022c-.22 0-.448.01-.678.02l-.157-2.83c.487.203.857.517 1.281 1.021a.295.295 0 0 0 .513-.246c-.192-1.039-.213-2.019-.202-3.06.54.354 1.072.713 1.576 1.094l4.36 4.738a.29.29 0 0 0 .263.09c.95-.159 1.9-.315 2.849-.474a.294.294 0 0 0 .23-.193.298.298 0 0 0-.06-.297c-.741-.83-1.508-1.631-2.25-2.445 1.269.78 2.875 1.755 3.08 1.755.022 0 .027-.013.012-.04-.094-.163-.9-.755-1.775-1.373.14.058.276.12.415.177l.017.01c.103.035.16.059.27.062a.286.286 0 0 0 .108-.016.317.317 0 0 0 .188-.152.32.32 0 0 0 .023-.238c-.017-.05-.038-.077-.054-.098-.061-.085-.103-.109-.162-.154a4.553 4.553 0 0 0-.205-.149c-.153-.105-.336-.223-.493-.328a4.992 4.992 0 0 1-.328-.233.307.307 0 0 0-.028-.025l-3.892-2.736c-.008-.006-.02-.001-.028-.006-1.333-1.869-2.588-3.825-4.046-5.627C9 4.496 8.145 2.888 6.758 2.352 6.69 1.956 6.54 1.225 6.003.703 5.547.26 4.888.056 4.147.011A5.728 5.728 0 0 0 3.796 0zm20.383 3.383q-.542 0-.628.418v.025q.061.11.258.11.567-.245.567-.455v-.024q0-.05-.197-.074zm1.97-.763q-.086.48-.85 1.034l.271.11.37-.135.184.123q1.416.677 3.755.714l3.67.037.049-.001q.627 0 .61.919-.02.954-.647 1.914-.394 0-.8-.302-.407-.301-.665-.708-.259-.406-.665-1.058.123 1.292.738 2.031-.75 0-1.335.142-.293.07-.488.07-.196 0-.294-.07-.123-.088-.61-.088-.295 0-.726.032-.332.025-.607.025-.668 0-1-.148-.308-.258-.388-.905-.08-.646.363-1.791-.91.652-.91 1.982v.443q-.456-.468-.715-1.034Q24.954 4.7 24.08 4.7q-.332 0-1.28.419-.32-.136-.259-.431l.616-.825q.443-.751.64-.837.099-.185.96-.185.37.099.37.271 0 .234-.246.468.467-.099.677-.554 0-.111.59-.406zm.53-2.62q-.06 0-.136.096-.936 1.49-1.7 2.068-.295.259-.8.27-.246 0-.75-.369-.752-.726-1.047-1.23-.333-.592-.431-.653-.05 0-.074.123 0 .702 1.428 2.598-.27.394-.505.898-.234.505-.554.77-.32.265.062.523 0 .32.53.517.43-.123 1.317-.381.53 0 .726.443.653.985.653 2.056.074 1.428-.985 2.733-.333.222-.333.616 0 .16.407.16.664 0 .664-.16l-.049-.332q0-.173.259-.259v-.025q0-.234.837-2.351.382 0 .603.37.283.935.283 1.55 0 .136-.172.58-.21.16-.258.578h.985l-.074-.308q-.05-.185.135-.32l-.086-.456q-.16-1.736-.16-2.043v-.025q.973-.234 1.496-.234t.806.19q.113.077.316.077.307 0 .823-.175.559-.189.858-.189.159 0 .244.054.246.154.246.523 0 1.354-.69 2.302-.22.222-.332.616h.85q.222-.074.098-.37.025-.32.296-.406 0-1.12.985-2.216.69.382.702 1.182 0 .308-.123.837l-.148.407q-.136.16-.246.603h.812q.148-.062.185-.135l-.123-.394q-.062-.173.172-.308-.123-.653.16-.985-.579-1.354-.579-2.13.308-1.268.394-2.376.148.775.037 1.859-.11 1.083.37 2.24.094.196.17.196.055 0 .1-.097.124-.702.05-3.878-.099-.394-.21-.604-.393-.603-.677-.628H30.52q-2.943 0-4.359-.837.234-.418.259-.572.024-.154 0-.376-.591.173-.887.456l-.246-.185q.258-.16.825-1.034.566-.874.665-1.367Q26.735 0 26.679 0zm6.525 13.464c.65.028 1.007.042 1.16.042h.07l-.084 3.397a4.983 4.983 0 0 1-1.292-.769l.146-2.67zm-9.476-.845c-.217.042-.504.174-.469.433v1.894a36.22 36.22 0 0 0-.978-.042c0 .238.196.56.804.56.007.537.104 1.194.202 1.53l.084.88c0 .098.168.126.35.126.216 0 .454-.042.454-.042l-.035-.88c3.452.027 10.036.202 10.364.202.168 0 .28-.182.28-.433l.084-3.795-2.076-.021-.168 2.956c-1.502.007-4.102.252-5.87.252-.56 0-1.042-.021-1.37-.091-.07-.077-.72-1.02-1.132-1.125a1.813 1.813 0 0 0-.245-.028c-.07-.573-.14-1.146-.203-1.712.126-.161.413-.12.49-.336.077-.105.028-.28-.12-.286-.083-.035-.314-.042-.412-.042zM55.834.512q.398 0 .398.417v3.205H55.02l.398-3.375q.019-.247.417-.247zm.02-.512q-.968 0-1.025.55-.398 3.584-.853 3.603l-8.8.322-.91-.038q-1.024-1.08-1.82-1.08-.285-.02-.588-.038-1.612.303-1.934.303-.228 0-.228.303 0 .418.645.418 1.107-.177 1.698-.177.108 0 .198.006.323 0 .531.265-.37.458-1.655.458l-.203-.002q-1.46-.038-2.58-.38-.55 0-.55.645.058.588 4.116.607l1.801-.19 10.279-.057 2.882.038V.93Q56.84 0 55.853 0zM39.84 7.567l-2.432 2.875h1.185l1.246-1.485 1.258 1.485 1.222-1.485 1.257 1.485 1.246-1.485 1.258 1.485 1.245-1.485 1.258 1.485 1.222-1.485 1.258 1.485 1.257-1.485 1.222 1.485L54.8 8.957l1.246 1.485h1.185L54.8 7.567l-1.258 1.39-1.222-1.39-1.257 1.39-1.258-1.39-1.222 1.39-1.258-1.39-1.245 1.39-1.258-1.39-1.246 1.39-1.257-1.39-1.222 1.39-1.258-1.39zm6.633 5.236q1.98 0 4.35 1.301l-.584.94q-1.296-.748-2.463-1.03-.649-.152-1.274-.152-.544 0-1.07.115-.868.182-2.108 1.259l-.767-.83q1.718-1.603 3.916-1.603zm-1.717 2.059q-.073.127-.137.264-.164.392-.164.84 0 .42.164.793.137.32.347.584-1.487-.283-2.691-.401.748-.466 1.176-1.013.438-.547 1.305-1.067zm3.549-.064q.438.027 1.514.675 1.077.648 2.208 1.076-.812.055-1.806.356-.995.301-2.099.438.183-.192.347-.575.173-.383.173-.803 0-.447-.164-.839-.082-.173-.173-.328zm-1.75-.366q.285 0 .546.101.282.119.492.31.21.201.338.466.127.282.137.593.009.31-.11.593-.118.282-.31.492-.192.2-.484.329-.264.118-.574.127l-.044.001q-.287 0-.55-.11-.282-.11-.483-.31-.21-.192-.328-.466-.128-.273-.146-.574 0-.32.11-.593.109-.274.31-.493.2-.21.465-.337.273-.12.584-.128h.047zm-.172-2.188q-2.648 0-4.674 2.088l.018.019h-.018l1.168 1.295-.137.137q-.803.894-1.688.994l-.018.566q2.007.182 3.95.53.72.127 1.509.127 1.349 0 2.897-.374 2.464-.602 3.13-.72h1.085v-.712h-1.131q-.657-.229-1.724-.83l.848-1.46q-2.855-1.66-5.215-1.66zm16.535-9.173c-.27.13-.6.49-.1.55.24-.01.79-.26.69-.49a.221.221 0 0 1-.158.067c-.141 0-.287-.127-.432-.127zm-1.971.09c-.33.08-.5.44-.08.52l.022.002c.242 0 .9-.294.358-.361-.09-.06-.18-.16-.3-.16zm2.631-2.51c.59.69 1.11 1.49 1.21 2.41.1.66.13 1.321.23 1.971-.47-.04-.33-.77-.24-1.12.08-.69-.29-1.33-.55-1.941-.18-.33-.35-.85-.81-.86-.51.09-.84.52-1.17.89-.34-.34-.7-.71-1.171-.85a.236.236 0 0 0-.081-.013c-.106 0-.23.046-.286.046-.049 0-.048-.034.057-.164.063-.224.195-.29.359-.29.238 0 .542.141.799.141a.561.561 0 0 0 .112-.01c.085.004.17.007.254.007.438 0 .876-.067 1.287-.218zm-.16.76c.39.1.48.64.67.96.24.56.53 1.17.34 1.801-.15.3.04.68.02.9-.333.235-.626.73-1.07.73a.631.631 0 0 1-.15-.02c-.44-.09-.66-.51-1-.71-.247.238-.393.73-.798.73a.618.618 0 0 1-.183-.03c-.37-.08-.86-.04-.97-.49-.19-.46-.21-.97-.24-1.47a.324.324 0 0 0 .06.006c.203 0 .221-.235.24-.436.077-.293.287-.429.52-.429.157 0 .325.062.47.178.17.19.69.34.58.64-.05.18-.11.371-.17.561l.42.56c.04-.29.47-.53.22-.82-.04-.13-.19-.3-.17-.4.18-.32.42-.6.7-.84a.322.322 0 0 1 .23-.103c.268 0 .538.351.771.382.23-.25-.02-.35-.25-.48a.701.701 0 0 0-.487-.196c-.25 0-.5.13-.653.356-.19.114-.323.494-.49.494-.052 0-.108-.037-.17-.134-.306-.244-.672-.518-1.073-.518a.855.855 0 0 0-.178.018c-.283.059-.538.632-.56.632v-.001c-.01-.47.21-.89.34-1.351a.612.612 0 0 1 .596-.477c.172 0 .347.075.474.237.298.11.516.634.796.634.05 0 .1-.017.155-.054.31-.33.56-.72 1.01-.86zm-1.42 6.943c1.27 1.31 2.44 4.632 2.74 5.993-.49-.4-1.16-.66-1.31-.91-.16-.26-.6-2.792-1.43-5.083zm4.521-2.381c2.402 1.38 6.584 8.174 7.474 9.264-1.5-.95-2.981-1.91-4.592-2.691-2.261-1.11-4.192-2.911-6.033-4.592 1.52-.51 2.611-1.37 3.151-1.981zm-2.49 8.624c.32.19.61.45.96.59-.21.52-.34 1.1-.77 1.51-.081.13-.197.172-.328.172-.228 0-.504-.123-.736-.123-.016 0-.032 0-.047.002.28-.7.7-1.01.92-2.151zm.68-9.365c.06.126.138.167.22.167.107 0 .223-.071.32-.116.24.17 1.07.15.58.51-.31.42-1.968 1.566-3.119 1.768-.497.087.338.873.608 1.153 1.56 1.4 3.091 2.882 4.962 3.892 1.17.66 2.401 1.25 3.532 1.98.54.781 1.18 1.502 1.59 2.362-.41.12-.81.29-1.23.39a2.89 2.89 0 0 1-.702.082c-.661 0-1.326-.197-1.619-.512-.54-.57-1.13-3.001-1.44-3.892-.045-.1-.107-.133-.175-.133-.135 0-.292.132-.37.132a.04.04 0 0 1-.036-.019.391.391 0 0 0-.386-.376c-.176 0-.34.127-.314.396-.06.63-.18 1.26-.48 1.831-.037.097-.114.134-.215.134-.284 0-.761-.293-1.086-.374.13-.77-.92-4.712-4.002-8.014-.108-.116-.577-.611-.536-.611.005 0 .016.006.036.02.157.042.335.07.511.07.337 0 .668-.104.84-.42.025-.077.058-.108.096-.108.137 0 .344.399.564.399a.92.92 0 0 0 .513.155c.29 0 .578-.131.777-.355.19-.17.37-.34.56-.51zM63.669 0a3.72 3.72 0 0 1-1.36.28c-.072 0-.143-.004-.212-.01a.804.804 0 0 1-.142.012c-.337 0-.7-.18-1.025-.18a.622.622 0 0 0-.353.098c-.55.8-1.05 1.69-1.11 2.681-.11 1.901-.06 2.562 1.44 4.122.59 1.341 1.69 5.713 2.02 6.904.36.34-.45 2.2-.79 2.66-.185.256-.672.268-1.196.268h-.172c-.471 0-.949.01-1.243.193-.28.18-.38.85-.22.94.15-.23.45-.54.66-.57-.2.21.5.11.65.16.405.007.815.041 1.225.041.199 0 .398-.008.597-.03.09-.04.186-.102.228-.102.033 0 .033.038-.028.151.283.074.601.111.912.111.7 0 1.363-.187 1.509-.56.3-.551.58-1.131.78-1.732.256.054.577.234.834.234a.38.38 0 0 0 .207-.054c.28-.19.57-1.08.73-1.67.015-.062.099-.092.183-.092.08 0 .163.028.187.082.3.6.8 2.44 1.28 3.211.363.571 1.241.852 2.176.852a4.48 4.48 0 0 0 1.717-.332c.65-.28 1.13-.22.99-.58-.22-.6-.6-1.17-1-1.68.58.36 1.16.73 1.74 1.09.048.174.169.243.291.243.237 0 .483-.256.24-.513-2.271-3.282-5.883-8.875-8.384-10.685-.4-.35-.87-.62-1.39-.75-.171-.44-.121-1.031-.221-1.531-.1-.99-.7-2.632-1.75-3.262zM79.16 0c-.336 0-.67.026-.995.066-.447.113-.218.626.18.626a.476.476 0 0 0 .081-.008c.84.097 1.873.15 2.506.626.841.916.464 2.821.561 3.725.007.05.01 3.653.01 5.48a6.145 6.145 0 0 0-2.634-.586 6.04 6.04 0 0 0-1.188.117c-.44.231.077.528.423.528.04 0 .08-.004.114-.013 1.226.133 2.62.461 3.243 1.602.062.206.023.277-.07.277-.207 0-.68-.342-.947-.342-.014 0-.027 0-.04.003a7.535 7.535 0 0 0-1.58-.169c-.39 0-.776.031-1.149.095-.42.278.096.534.438.534a.532.532 0 0 0 .105-.01c1.252.151 2.637.49 3.243 1.633.007 1.27 0 2.11.034 3.278-.015.36.219.538.456.538.235 0 .473-.176.474-.526-.009-1.15-.09-2.161.06-3.277.305-1.253 2.478-1.445 3.827-1.754.295-.347-.285-.475-.658-.475-.056 0-.107.003-.15.008a6.823 6.823 0 0 0-.522-.02c-.882 0-1.77.175-2.557.58-.032-.755.712-1.19 1.244-1.493.84-.361 1.766-.397 2.643-.59.314-.273-.18-.501-.521-.501a.58.58 0 0 0-.125.012 6.767 6.767 0 0 0-.648-.031c-.902 0-1.804.183-2.614.582.017-2.851.063-5.61-.02-8.308-.065-.834-.545-1.6-1.354-1.849C80.45.094 79.803 0 79.16 0zm18.368 1.942h-.016q-.514.01-.592.224l.078.155q.194-.155.417-.165h.008q.232 0 1.205.534v-.156q-.592-.592-1.1-.592zm-.273.408h-.015q-.262.01-.262.262 0 .2.355.2.298 0 .848-.142-.66-.32-.926-.32zm.24-.504q.41 0 .715.184.515.31.65.854h.544q0-.66.242-.67h.008q.235 0 .225.63-.01.641-1.193.641-.078 1.067.524 1.785l-.602.194q-.405-.68-1.037-.68l-.069.001q-.33.059-.524.059-.174 0-.194-.185-.02-.184-.02-.398.156-.019.33-.029.175-.01.33-.048v-.097q-.37-.165-.594-.165-.094 0-.162.029.155-.194.155-.388-.252 0-.485-.039.252-.602.582-1.125-.136-.253-.039-.466.332-.087.614-.087zM99.21.52q.164 0 .34.015 1.64.136 2.339 1.474.698 1.34-.621 3.435-.247.066-.471.066-.57 0-.994-.425-.592-.592-.592-1.27 1.086 0 1.086-1.204 0-.776-.64-.776-.524 0-.601.62-.46-.98-1.293-.98-.188 0-.396.05Q97.851.52 99.21.52zm-6.112 7.621q.485.175.136.66l-.776.097q-.543-.213-.252-.757zm8.344-2.173q.835 1.572.874 4.521h-.68q-.019-2.639-.33-4.482l.136-.039zm-1.96-.33q.564.376 1.173.376.083 0 .166-.007.272 3.745.253 6.947 0 2.328-.99 3.57l1.009.932h-8.266q.99-1.708.378-3.784-.611-2.077-.689-3.144-.078-1.067.514-1.3.133-.052.273-.052.485 0 1.057.624.737.806 2.29 4.648h.446q.29-4.25 1.513-8.596l.873-.214zM90.455 0q-.371 0-.831.148-.873.29-1.106.882-.233.592.039 1.252.388 1.01 1.94 1.378l1.552 3.92q-1.222 0-.388.601-.349.446.466 1.164-.155.37-.126 1.184.029.815.689 3.183.66 2.367-.796 4.288h10.343l-1.378-1.417q.815-1.533.815-4.366v-1.086h1.3q0-3.784-1.222-5.472 1.339-2.174.67-3.784-.67-1.611-2.96-1.844-.221-.022-.427-.022-1.81 0-2.367 1.691-.291-.31-.068-.572.223-.262.145-.592-.058-.194-.223-.31-.11-.078-.22-.078-.055 0-.11.019-.165.058-.29.165-.127.107-.069.204.04.064.147.064.054 0 .125-.016.049-.01.074-.01.087 0-.093.127-.233.165-.117.698.117.534.582.69l.059.27q-.389.758-.563 1.165 0 .233.407.233-.174.175 0 .33-.194.174.02.427l-1.223 2.27-.369-.02q-.523 0-.523.505t.465.505q.35 0 .699-.272.66-.796 1.61-2.212.175-.047.319-.047.507 0 .613.59-.136.582-.495 1.844-.359 1.261-.902 5.53-1.553-3.823-2.503-4.308-.059-1.32-1.475-1.32l-1.708-4.385q-1.572-.446-1.843-1.106-.33-.873.718-1.339.303-.126.547-.126.316 0 .53.213.378.379.591 1.446.187.619.62.619.15 0 .331-.076-.524-1.047-.592-1.62-.067-.572-.65-.98Q90.913 0 90.454 0z"/></svg>