<svg xmlns="http://www.w3.org/2000/svg" width="100.816" height="18"><path d="M6.174.386c.221 0 .566.052.757.104.832.223-.005.968-.54.968a.513.513 0 0 1-.073-.005c-.353.074.06.199.502.199.272 0 .555-.047.681-.18.072-.077.131-.108.182-.108.185 0 .258.417.406.623.74.245 1.203.913 1.682 1.486 1.377 1.65 2.617 3.405 3.917 5.115-.357-.105-.743-.31-1.097-.48-1.62-.783-3.347-1.401-4.814-2.455-.732-.525-1.712-1.134-1.793-2.056-.061-.702 1.227-1.337 1.134-1.717-.011-.044-.043-.064-.09-.064-.274 0-1.077.688-1.288 1.09-.081.155-.14.217-.182.217-.146 0-.077-.757.014-.93.31-.589-.628-1.325-.1-1.664-.016.088.002.337.312.337.325 0 .305-.4.205-.453a.435.435 0 0 1 .185-.027zm.616 5.477c.254.9.626 1.766 1.065 2.59.217.405 1.13 1.049.485 1.377a.194.194 0 0 1-.052.007c-.257 0-.519-.495-.855-.517a12.843 12.843 0 0 0-.265-1.873c-.103-.505-.36-1.176-.378-1.584zm.705.597c.795.576 1.63 1.093 2.472 1.6.222.497.034 1.222.149 1.805-.538-.363-1.112-.378-1.457-1.066-.385-.766-1.019-1.494-1.164-2.34zm.226 3.6c.134.235.335.383.538.383.16 0 .32-.091.45-.304.186.205.23.926.23 1.325.002.411-.214.446-.465.446l-.155-.002a.93.93 0 0 0-.278.032.453.453 0 0 1-.138.02c-.197 0-.423-.095-.636-.095-.02 0-.04 0-.06.002.001-.52.36-1.225.514-1.808zm1.603-2.968c1.69.766 3.36 1.59 5.054 2.351.648.679 1.239 1.448 1.96 2.049.538.45-.155.358-.474.418-.244.046-.492.08-.738.116-.87-.87-1.745-1.738-2.58-2.641-.909-.982-2.145-1.538-3.222-2.293zm-.512 5.693c1.105 0 2.211.013 3.316.042.556.014 1.197-.023 1.695.164-.658.042-2.304.058-4.042.058a201.337 201.337 0 0 1-5.037-.05c-.51 0-.097-.173.188-.173a.55.55 0 0 1 .076.005c1.267-.03 2.535-.046 3.804-.046zm-4.862.743c.75.01 1.5.02 2.25.045.495.017.989.023 1.483.023 1.398 0 2.796-.05 4.192-.05.188 0 .375.001.562.003-1.161.634-2.421 1.17-3.766 1.214-.152.005-.3.008-.445.008-.76 0-1.443-.08-2.196-.351-.656-.236-1.506-.523-2.08-.892zm6.649 1.558a.144.144 0 0 0-.078.02c-.256.16.368 1.331.895 1.613.04.021.078.03.115.03.192 0 .33-.259.247-.445-.214-.48-.87-1.218-1.18-1.218zm-4.848.055c-.042 0-.105.026-.194.086-.432.29-1.443 1.067-.823 1.496a.22.22 0 0 0 .129.042c.224 0 .442-.354.556-.556.12-.21.574-1.068.332-1.068zm4.06.177c-.274 0 .026 1.476.502 1.79.031.022.07.031.109.031.106 0 .222-.069.242-.173.123-.637-.473-1.61-.846-1.647a.08.08 0 0 0-.008 0zm-3.278.017c-.05 0-.13.062-.244.216-.302.408-1.043 1.256-.436 1.571.04.021.078.03.114.03.254 0 .4-.478.49-.72.081-.222.268-1.097.076-1.097zm2.271.162c-.023 0-.043.012-.06.037-.245.368-.164 1.491.42 1.817a.196.196 0 0 0 .097.026c.172 0 .306-.25.276-.423-.07-.41-.517-1.457-.733-1.457zm-1.329-.011a.1.1 0 0 0-.058.023c-.391.291-1.017 1.466-.379 1.845.035.02.068.03.101.03.191 0 .35-.31.375-.504.04-.334.162-1.394-.039-1.394zm.655-.018a.08.08 0 0 0-.038.01c-.324.174-.62 1.573-.014 1.945a.175.175 0 0 0 .092.028c.164 0 .306-.252.306-.421-.002-.46-.123-1.562-.346-1.562zM6.352 0c-.205 0-.408.02-.598.054-.567.104-1.44.31-1.43.996a.711.711 0 0 1 .192-.028c.55 0 .663.789.553 1.27-.225.98.26 1.965.898 2.707.425 1.269.96 2.595.954 3.928-.003.556.408.592.256 1.158-.136.51-.373 1.566-.883 1.69a2.18 2.18 0 0 1-.182.007c-.323 0-.663-.056-.984-.056-.254 0-.497.036-.71.162-.444.264-.778.46-1.31.46l-.071-.001-.078-.002c-.895 0-1.953.472-2.118 1.411-.244 1.391-.044 2.827-.036 4.233.205.005.412.011.618.011.163 0 .325-.004.487-.016-.076-.844-.133-1.694-.079-2.539.039-.601-.113-1.44.465-1.781a.738.738 0 0 1 .383-.107c.506 0 1.005.499 1.472.712 1.306.596 2.697 1.036 4.147 1.036h.1c1.756-.025 3.375-.751 4.878-1.576a.616.616 0 0 1 .41-.148c.28 0 .562.17.622.463.262 1.292.154 2.632.067 3.94.157.012.315.015.473.015.156 0 .313-.003.47-.003.052 0 .105 0 .158.002.008-.911.089-1.823.047-2.733-.033-.721.107-1.55-.417-2.143-.68-.771-1.763-.76-2.704-.825a1.712 1.712 0 0 0-.117-.004c-.125 0-.257.01-.386.01a.973.973 0 0 1-.439-.08c-.294-.302-.66-.36-1.04-.36-.228 0-.462.021-.689.021a2.75 2.75 0 0 1-.22-.008c-.043-.588-.075-1.177-.107-1.766a.155.155 0 0 1 .111-.045c.294 0 .78.686 1.034.686.076 0 .13-.06.154-.217.094-.642-.155-1.343-.146-2.018h.016c.285 0 .766.368 1.053.617.898.779 1.67 1.717 2.513 2.566.334.38.681.803 1.163.803.13 0 .269-.031.42-.101.48-.223 1.5.065 1.609-.544-.462-.54-.994-1.018-1.47-1.547.58.274 1.144.678 1.747.941a.77.77 0 0 0 .24.078c.18 0-.489-.521-.668-.602-.665-.3.624-.188.098-.605-1.155-.915-2.466-1.648-3.699-2.473-.79-.998-1.506-2.067-2.3-3.068-.66-.774-1.221-1.636-1.941-2.356C8.895 1.783 8.245 1.66 8.2.937 7.858.252 7.09 0 6.352 0zm18.931 0c-.12 0-.128.377-.3.935-.194.635-.337 1.962-.788 2.22a.397.397 0 0 1-.204.052c-.133 0-.269-.05-.417-.05a.545.545 0 0 0-.169.025c-.21.068-.322.397-.544.436-.922.16-2.183.1-2.888.163-.452.04.756.93 1.965.93h.05c.252-.005.517-.017.78-.017.44 0 .877.032 1.237.18.352.146.767.567.762.981L24.621 18h1.358L25.91 4.281c-.002-.368 1.06-.618 1.2-.936.242-.553.118-2.995-.272-3.323a.021.021 0 0 0-.014-.006c-.176 0-.505 2.56-1.022 3.111-.052.056-.156.082-.246.082-.097 0-.178-.03-.162-.082.328-1.118.46-2.749-.055-3.105A.102.102 0 0 0 25.283 0zm5.695 0c-.93 0-1.745.684-1.745 1.562V18h1.136V1.562c0-.43.379-.57.617-.57.25 0 .633.175.633.703v10.804h1.136V1.695c0-.88-.87-1.695-1.777-1.695zm5.212 7.458v1.656c-.566 0-.849-.283-.849-.848 0-.539.283-.808.848-.808zM38.283 0c-.463 0-.855.116-1.176.35-.612.443-.919 1.09-.919 1.938v4.584c-.942 0-1.42.465-1.434 1.394 0 .942.478 1.413 1.434 1.413V18h.747V2.732c0-1.023.198-1.68.595-1.969.206-.15.476-.225.839-.225.337 0 .754.065 1.273.195a.65.65 0 0 0 .212.043c.111 0 .188-.048.232-.144.013-.162-.108-.276-.364-.343C39.185.096 38.705 0 38.284 0zm5.237 7.458v1.656c-.565 0-.847-.283-.847-.848 0-.539.282-.808.848-.808zM45.617 0c-.463 0-.855.116-1.176.35-.613.443-.92 1.09-.92 1.938v4.584c-.942 0-1.42.465-1.433 1.394 0 .942.478 1.413 1.434 1.413V18h.746V2.732c0-1.023.199-1.68.596-1.969.206-.15.476-.225.838-.225.337 0 .754.065 1.273.195a.65.65 0 0 0 .212.043c.112 0 .19-.048.233-.144.013-.162-.108-.276-.364-.343C46.517.096 46.037 0 45.615 0zm5.236 7.458v1.656c-.566 0-.849-.283-.849-.848 0-.539.283-.808.849-.808zM52.947 0c-.463 0-.855.116-1.176.35-.612.443-.918 1.09-.918 1.938v4.584c-.943 0-1.42.465-1.434 1.394 0 .942.478 1.413 1.434 1.413V18h.746V2.732c0-1.023.198-1.68.596-1.969.205-.15.476-.225.838-.225.337 0 .754.065 1.273.195a.65.65 0 0 0 .212.043c.111 0 .189-.048.232-.144.014-.162-.107-.276-.363-.343C53.848.096 53.368 0 52.947 0zm7.313.591c.673 0 1.128.1 1.508.529.521.52.621 1.29.572 1.992-.01 1.612-.294 3.21-.766 4.75-.37 1.266-.811 2.51-1.215 3.766h-.195c-.018-.062-1.926-5.289-2.01-8-.016-.79-.13-1.684.411-2.341.335-.459 1.01-.696 1.695-.696zm.416 11.625v.684c0 .124.077.234.194.276.171.062.328.172.49.304h-2.391c.161-.132.318-.242.49-.304a.294.294 0 0 0 .193-.276v-.684zm1.644 2.477c.06.121.07.367.054.538h-4.376a2.059 2.059 0 0 1-.023-.538zm-.465 1.819c-.318.471-.951.9-1.619.9-.72 0-1.422-.417-1.76-.9zM60.29 0c-1.275 0-2.737.735-2.737 2.246-.073.922.019 1.85.114 2.768.29 2.285 1.151 4.436 1.86 6.614h-.017c-.095 0-.446.01-.446.294v.784c-.402.198-.682.5-.955.723h-.876a.294.294 0 0 0-.294.294v.792c0 .157.184.287.342.293.07.133.082.252.1.375l-.329-.01h-.004a.307.307 0 0 0-.299.294v.76c0 .163.132.295.294.295.205 0 .675.01.756.01h.011c.368.843 1.355 1.468 2.425 1.468 1.041 0 1.945-.67 2.284-1.478h.765c.275 0 .293-.192.293-.294v-.761c0-.128.056-.285-.59-.285a1.48 1.48 0 0 0-.016-.368c.284-.017.415-.142.415-.3v-.791a.294.294 0 0 0-.293-.294h-.876c-.273-.222-.552-.525-.955-.723v-.784c0-.16-.128-.29-.287-.293.007-.037 1.84-5.082 1.93-7.732.07-.998.169-2.12-.498-2.956C61.99.368 61.554 0 60.29 0zm7.363 1.124q2.015.293 2.106 1.842v11.177q-.941-1.124-3.381-1.58l1.275-11.44zM67.086 0l-1.508 13.363q3.361.385 4.181 2.4V18h1.002V2.966q0-2.51-3.675-2.966zm13.206.412c.735 0 1.655.377 2.1.823.39.39.441.906.456 1.386h-5.09c.014-.48.065-.997.455-1.386.445-.446 1.344-.823 2.079-.823zm0-.412c-.872 0-1.811.403-2.361.953-.564.564-.628 1.307-.628 1.863v.216h5.978v-.216c0-.556-.043-1.299-.607-1.863-.55-.55-1.51-.953-2.382-.953zm-1.8 7.185l.025 1.418-1.568-.025-.025-1.368 1.568-.025zm.746-.025l4.031.05-.025 1.443-4.03-.05.024-1.443zm5.823.075v1.418l-1.22-.025V7.235zM75.2 9.78c-.74 1.337-1.039 2.41-1.039 2.41-.014.18-.122.274-.224.274-.114 0-.22-.117-.18-.362.199-.534.146-1.15 1.442-2.322zm-.917-5.38a.295.295 0 0 0-.197.07c-.128.111-.154.338-.024.564l.001.001v.001a8.306 8.306 0 0 0 2.098 1.783c-.031.436.056 1.236.027 1.677-1.324-.427-1.842-.678-2.766-1.767l-.004-.004h-.004a.931.931 0 0 0-.234-.032.555.555 0 0 0-.28.065c-.128.076-.185.217-.101.42.082.198.299.458.718.78.415.32 1.028.7 1.904 1.144-.064.052-.288.236-.533.456-.292.262-.615.574-.74.778-.338.554-.588 1.05-.7 1.476-.112.429-.086.786.129 1.055l.003.004.006.001c.001 0 .049.01.123.01.079 0 .188-.01.307-.054.232-.084.497-.293.633-.788a9.67 9.67 0 0 1 .695-1.788c.128-.19.308-.438.456-.63.074-.095.14-.176.187-.23a.523.523 0 0 1 .053-.053h.012c.944.02 1.9.027 2.863.027 1.997 0 4.02-.03 6.018-.03.962 0 1.919.008 2.863.028h.015V9.35c0-.001.013-.182.01-.362a1.592 1.592 0 0 0-.02-.25.313.313 0 0 0-.027-.087.09.09 0 0 0-.021-.028.048.048 0 0 0-.031-.011h-1.9V7.225l1.95.025h.014l.001-.015c.008-.248-.008-.448 0-.696v-.016h-.015c-3.707-.05-7.413-.025-11.12-.075-.441-.167-.816-.51-1.135-.87-.32-.363-.584-.742-.8-.974h-.002a.77.77 0 0 0-.365-.197.402.402 0 0 0-.067-.006zm2.157 9.852q-1.502.035-2.487 1.088-1.088 1.192-1.192 2.384 0 .276.311.276h14.44q.31 0 .31-.328t-.31-.328H73.538q.863-2.211 2.59-2.453H87.51q.311 0 .311-.328 0-.31-.31-.31zM97.371.735c.626 0 1.299.126 1.722.626.679.8.823 1.892.875 2.903.096 1.839.123 3.68.105 5.522h-.45V5.258c-1.186-.04-1.68-.912-1.785-1.593.142-.31.523-.57.65-.949.133-.4-.04-.993-.516-.993h-.025c-.214.01-.396.085-.586.085a.623.623 0 0 1-.337-.097c-.407-.248-.953-.293-1.424-.397.389-.567.984-.558 1.621-.577l.15-.002zm-2.108 1.109c.578.102 1.189.213 1.645.613.085.115.208.19.322.19.1 0 .195-.059.25-.203.078-.108.155-.151.225-.151.214 0 .356.405.187.632-.13.326-.527.519-.668.785.136.532.374 1.043.776 1.428.311.298.687.566 1.127.6-.015 1.903-.005 3.806-.046 5.708a35.537 35.537 0 0 1-.58 5.237c-.045.247.182.4.31.575h-7.73c.561-.213 1.126-.417 1.685-.635.301-.158.162-.526.08-.774-.568-2.006-1.368-3.939-2.28-5.811.139-.183.366-.268.593-.268.13 0 .259.027.372.08.524.622 1.022 1.269 1.537 1.9.703.872 1.397 1.75 2.105 2.616a.336.336 0 0 0 .238.099c.215 0 .425-.2.395-.44.372-2.515.808-5.02 1.097-7.546a2.616 2.616 0 0 0-.718-2.163.306.306 0 0 0-.215-.081c-.245 0-.532.224-.735.224-.084 0-.153-.038-.2-.144-.256-.26.58-.12.194-.349a.414.414 0 0 1-.068.006c-.35 0-.087-.58-.482-.675.065-.182.18-.313.328-.313a.36.36 0 0 1 .22.088c.088.022.176.031.264.031.304 0 .606-.113.883-.232-.317-.316-.43-.384-.642-.384-.22 0-.532.068-.622.14.147-.234.192-.51.153-.783zM97.335 0c-.056 0-.111 0-.166.002-.854.024-1.803.252-2.312.996-.224.326-.395.72-.319 1.123-.204.472-.648.834-.718 1.362-.067.427.578.339.42.752.01.31.354.616.24.815-.199.845-.433 1.739-1.033 2.396-.102.177-.232.228-.374.228-.191 0-.404-.093-.599-.096-.399.234.112.608.418.608.012 0 .025 0 .036-.002.03.003.06.004.09.004.623 0 1.095-.529 1.381-1.035.369-.603.639-1.28.86-1.938.167-.066.335-.129.476-.129.164 0 .292.087.338.354.27.716.014 1.476-.06 2.204-.272 1.857-.544 3.714-.827 5.57-1.03-1.281-2.057-2.566-3.09-3.845-.238-.24-.566-.334-.898-.334-.218 0-.438.04-.636.106-.416.172-.86.606-.71 1.096.91 1.884 1.727 3.82 2.294 5.837-.694.264-1.394.514-2.084.788-.278.163-.143.488-.084.73a.43.43 0 0 0 .493.401h9.133c.127-.075.44-.136.483-.169-.172-.142-.1-.391-.284-.532l-.55-.65c.361-1.996.56-4.022.58-6.05l.225.002c.381 0 .836-.047.748-.544.022-2.122.02-4.25-.14-6.366-.084-1.109-.399-2.302-1.283-3.053C98.817.14 98.065 0 97.335 0z"/></svg>