<svg xmlns="http://www.w3.org/2000/svg" width="57.389" height="18"><path d="M16.122 3.094a.38.38 0 0 0-.007 0c-.118.003-.238.062-.284.175-.062.14-.02.331.12.407.059.033.13.053.2.053.08 0 .158-.026.216-.085a.363.363 0 0 0 .05-.402.312.312 0 0 0-.238-.143.347.347 0 0 0-.057-.005zm.04-.525a.885.885 0 0 1 .814.556.798.798 0 0 1-.01.65.843.843 0 0 1-.517.462.862.862 0 0 1-.28.046.93.93 0 0 1-.436-.109.817.817 0 0 1-.377-.403.81.81 0 0 1 .011-.713.88.88 0 0 1 .794-.49zm-1.223 2.919c-.016.03-.026.073 0 .1a.132.132 0 0 1-.062-.042c.017-.022.039-.051.062-.058zm.193.021l.12.051a.831.831 0 0 1-.147.03c.027-.016.043-.052.027-.08zm.895-.12c.024 0 .038.027.028.05a.417.417 0 0 1-.227.277c-.007 0 .015-.024.021-.032.015-.021.06-.065.022-.087a.024.024 0 0 0-.01-.002c-.013 0-.029.01-.04.01a.014.014 0 0 1-.009-.003c.024-.07.073-.132.117-.192a.312.312 0 0 1 .098-.021zm-.301.354c.018.01.048.036.022.055a.03.03 0 0 1-.024.013c-.013 0-.025-.01-.026-.026-.005-.02.013-.033.028-.042zm.345-.485a.11.11 0 0 0-.012 0c-.16.015-.28.15-.337.293-.01.03-.015.066 0 .096-.06.031-.125.094-.108.168.017.047.067.075.116.075.02 0 .04-.004.058-.014a.936.936 0 0 0 .29-.265c.06-.082.114-.188.083-.291-.011-.04-.05-.062-.09-.062zm-.258-.665c.196.004.393.04.574.115.159.066.296.2.324.374a.8.8 0 0 1-.227.678c-.116.123-.25.227-.396.312a.05.05 0 0 1-.021.007c-.006 0-.008-.004 0-.016.076-.143.198-.257.272-.4.08-.142.141-.32.077-.48-.04-.109-.158-.164-.268-.17a.772.772 0 0 0-.064-.003c-.106 0-.21.02-.313.045-.13-.04-.274-.076-.379-.17a.093.093 0 0 1-.001-.141c.107-.115.27-.15.422-.15zm-1.337 1.67l.001.005a.61.61 0 0 1 .04.236c.008.084.097.124.172.129.04.005.08.007.12.007.068 0 .137-.006.204-.015.013.076.04.166-.004.237-.017.02-.04.026-.065.026-.027 0-.056-.007-.083-.007-.007 0-.015 0-.022.002a1.27 1.27 0 0 0-.487.137l-1.693 1.24c.197-.461.399-.92.6-1.38.266-.09.52-.222.8-.266.068-.027.064-.116.065-.177 0-.047-.002-.095.004-.141l.348-.031zm.638-1.172c.151.025.294.09.438.143.034.015.072.026.105.043a.099.099 0 0 0 .095.067.099.099 0 0 0 .037-.007c.079-.027.143-.092.23-.096h.02c.066 0 .142.018.172.08.03.093-.032.186-.075.266-.07.121-.167.22-.273.308-.09.082-.144.214-.102.334.027.092.105.16.192.196.033.21.16.396.332.515.187.135.394.237.602.333-.259.445-.51.899-.675 1.388a1.612 1.612 0 0 0-.095.514c.08.418.165.837.207 1.26.009.111-.005.236-.081.321-.104.086-.244.105-.372.13-.393.062-.794.058-1.192.06-.484.047-.97.067-1.457.067-.42 0-.84-.015-1.257-.038.07-.172.24-.272.402-.348.357-.157.746-.222 1.13-.276.127-.023.255-.021.383-.026.32-.017.651-.06.933-.218a.755.755 0 0 0 .387-.518c.049-.267-.017-.538-.086-.796-.14-.483-.346-.944-.563-1.398.216-.064.44-.128.623-.264.072-.054.135-.149.1-.242-.024-.044.004-.095-.001-.143.005-.116-.02-.257-.132-.316a.24.24 0 0 0-.123-.028.54.54 0 0 0-.063.002c-.096 0-.205-.038-.236-.137-.015-.02 0-.03.021-.035.053-.027.126-.05.146-.113.002-.051-.058-.075-.097-.093a.626.626 0 0 0-.11-.026c.037-.042.027-.109-.016-.142a.31.31 0 0 0-.067-.046l.148-.23c-.014.026.033.042.05.06a.396.396 0 0 0 .34.073.926.926 0 0 0 .267-.108h.205c-.004-.035.015-.092-.024-.092a.066.066 0 0 0-.019.004l-.027-.001-.078.002a.253.253 0 0 1-.068-.008c-.113-.062-.238-.129-.37-.129l-.038.002a.283.283 0 0 0-.185.113c.031-.046.055-.106.115-.12a.382.382 0 0 1 .117-.018c.109 0 .219.04.318.08.041.01.079.046.12.046a.07.07 0 0 0 .025-.005c.031-.002.052-.04.026-.062-.076-.068-.174-.104-.268-.14a.888.888 0 0 0-.305-.046c.04-.06.09-.138.17-.142zm1.008-2.841h-.008a1.11 1.11 0 0 0-.684.248c-.206.157-.33.368-.416.639-.125.394.025.801.162.953-.053.125-.21.303-.303.303a.056.056 0 0 1-.047-.023c-.029-.05-.01-.111-.007-.166.026-.147.078-.3.034-.449a.916.916 0 0 0-.259-.436c-.076-.048-.171-.048-.259-.057a.41.41 0 0 0-.021 0c-.053 0-.115.011-.133.066-.03.08.027.183.116.187a.328.328 0 0 0 .047.003l.048-.001c.015 0 .031 0 .047.003-.061.074-.11.174-.078.271.045.244.046.51.188.722.08.096.165.134.25.134.205 0 .407-.228.514-.413a.993.993 0 0 0 .225.181.94.94 0 0 0-.274.12 1.766 1.766 0 0 0-.54.58c-.107.24-.274.446-.431.653-.015.058-.043.133 0 .186.018.017.04.02.063.02l.043-.002c.017 0 .032.002.047.008.012.005.045.013.023.025-.021.014-.025.047-.04.057h-.051l-.208-.002c-.117 0-.233.006-.347.039-.259.07-.497.206-.702.379-.458.4-.834.911-1.003 1.501-.08.282-.12.577-.108.87.005.08.077.14.155.146A.428.428 0 0 0 12.22 9c.049 0 .097-.01.14-.036.644-.279 1.297-.54 1.927-.846.052-.026.104-.053.154-.081.197.354.266.763.304 1.163.018.203.025.408.025.612-.217.039-.433.087-.651.12-.603.064-1.208.139-1.794.298-.247.073-.5.154-.706.315-.045.031-.075.078-.116.113-.185.12-.29.326-.375.524-.181.445-.266.921-.338 1.394-.045.277-.119.55-.212.814-.129.348-.308.7-.613.924a1.009 1.009 0 0 1-.522.19l-1.11.42-.113.209a.39.39 0 0 0 .254.117c.015 0 .03-.002.045-.004l1.987-.103c.17-.547.442-1.054.729-1.547.19-.312.373-.632.487-.98.088-.267.14-.548.123-.83.21.809.353 1.634.475 2.46.012.155-.111.277-.229.36-.213.147-.458.236-.702.316-.14.011-.295.03-.398.134a.238.238 0 0 0-.062.178c.553-.022 1.107-.042 1.66-.065.146-.012.308-.071.375-.212a.392.392 0 0 0 .037-.213c-.086-.212-.087-.447-.088-.674 0-.333.046-.664.075-.996.036-.516-.015-1.056-.262-1.518-.03-.036-.024-.05.008-.05l.024.003c.863-.034 1.726-.07 2.59-.102.306-.006.623-.026.905-.154.167-.074.314-.218.344-.404.024-.136-.004-.274-.005-.411-.019-.403-.044-.805-.06-1.208.004-.477.136-.96.418-1.347.003-.004.006-.006.008-.006.014 0 .014.07.025.088l.283 1.2-.447 2.058c-.11.166-.187.352-.225.547-.021.104-.043.21-.017.314.037.178.114.345.131.527 0 .038.009.075.04.1.012.015.033.029.052.029a.033.033 0 0 0 .03-.02c.003-.01.006-.013.01-.013.01 0 .023.017.037.018a.032.032 0 0 0 .01.002c.021 0 .038-.02.044-.036.012.012.029.02.045.02.018 0 .035-.01.041-.03.002-.003.004-.004.007-.004.008 0 .02.01.032.01h.005c.053-.002.059-.07.052-.11-.043-.15-.1-.297-.124-.451a1.435 1.435 0 0 1 .014-.374c.002-.012.008-.03.018-.03.004 0 .008.002.012.007.043.028.017.084.02.126-.008.115-.042.25.033.352.012.016.03.023.048.023.03 0 .061-.019.076-.043.028-.077-.015-.156-.003-.235.002-.14.068-.272.043-.412a.74.74 0 0 0-.117-.296c.408-.538.62-1.204.678-1.872.016-.201.034-.404.007-.605-.053-.512-.157-1.028-.378-1.495a2.15 2.15 0 0 0-1.049-.555c-.095-.078-.188-.201-.154-.33.045-.162.197-.258.327-.347.219-.154.394-.385.43-.655.03-.23-.003-.479-.14-.67a.683.683 0 0 0-.275-.216 1.24 1.24 0 0 0 .393-.258c-.013.223-.023.46.075.664.069.13.177.24.306.31h.008c.041 0 .062-.06.031-.09-.057-.082-.119-.163-.15-.26-.094-.253-.048-.528-.009-.788.024-.146.038-.293.059-.44a1.092 1.092 0 0 0-.133-.79c-.15-.26-.396-.477-.693-.549a1.44 1.44 0 0 0-.344-.047zM8.86 15.69l-.002.024c-.004.022.001.036.02.036.004 0 .008 0 .013-.002l.034.001c.023 0 .033-.004-.007-.026-.018-.013-.041-.017-.058-.033zM20.64 2.25c-.698 0-1.31.513-1.31 1.171V15.75h.853V3.421c0-.322.284-.427.462-.427.187 0 .475.131.475.527v8.103h.852V3.521c0-.66-.653-1.271-1.332-1.271zm4.141 0c-.697 0-1.309.513-1.309 1.171V15.75h.852V3.421c0-.322.284-.427.463-.427.187 0 .475.131.475.527v8.103h.852V3.521c0-.66-.653-1.271-1.333-1.271zm4.951 0c-.09 0-.179.004-.268.012h-.042c-1.005 0-1.87.969-1.797 1.965-.055.784.108 1.558.152 2.338a.35.35 0 0 0 .325.187.554.554 0 0 0 .455-.245c.237-.33.132-.758.036-1.118-.106-.643-.145-1.359.209-1.936.227-.305.602-.457.976-.457.407 0 .814.18 1.03.541.344.506.251 1.241-.191 1.659-.427.505-1.067.838-1.34 1.464-.175.63-.029 1.288-.087 1.93-.056 2.342-.086 4.684-.13 7.027.12.101.263.12.41.12.087 0 .174-.006.26-.006.07 0 .14.004.206.019.319-.163.294-.573.27-.876-.113-2.457-.03-4.917-.092-7.375.007-.28-.084-.602.211-.762.59-.572 1.218-1.142 1.58-1.894.369-1.09-.457-2.397-1.6-2.536a2.837 2.837 0 0 0-.573-.057zm5.843.585c.53 0 .794.21.794.629 0 .42-.26.81-.78 1.169-.12.04-.134.45-.044 1.228l.704 5.005c-.72.21-1.458.589-2.218 1.138V4.348c.26-1.009.775-1.513 1.544-1.513zm-.068-.585c-.583 0-1.028.162-1.333.487-.315.335-.537.847-.667 1.536l-.015 11.477h.794c-.06-1.718.057-2.438.421-2.947.365-.51 1.286-1.064 2.335-1.234-.659-4.125-1.103-6.437-.973-6.577.55-.37.824-.864.824-1.483 0-.84-.434-1.259-1.302-1.259a2.744 2.744 0 0 0-.084 0zm9.689.218c.018 0 .038.003.058.009.105.028.135.116.09.262l-.764 1.977h-.372l.812-2.1c.04-.099.1-.148.176-.148zm.631.16c.023 0 .046.004.071.011.121.035.144.126.067.272l-.697 1.805h-.373l.736-1.929c.045-.106.11-.159.196-.159zm-1.884 2.917a.772.772 0 0 0-.203.031v.086a.66.66 0 0 1 .198-.035c.056 0 .106.01.15.03a.999.999 0 0 0 .368.072l-.048-.048a6.27 6.27 0 0 1-.334-.114.363.363 0 0 0-.13-.022zm.074.203l.172.067a1.355 1.355 0 0 1-.172.057c.038-.038.038-.08 0-.124zm-.144 0c-.019.045-.012.09.02.134a.922.922 0 0 0-.115-.038c.006-.039.038-.07.095-.096zm.048-.062c-.083 0-.14.033-.172.1l-.086.048-.01.048.087.01a.319.319 0 0 0 .179.048.856.856 0 0 0 .336-.087h.21v-.067h-.22a.78.78 0 0 0-.324-.1zm1.729-.807L45 6.082c-.043.065-.083.098-.12.098a.076.076 0 0 1-.051-.021l-.21-.134c.012-.05.063-.12.152-.205.09-.086.109-.191.058-.316-.03-.072-.088-.108-.174-.108a.624.624 0 0 0-.228.056c-.206-.117-.383-.176-.53-.176a.516.516 0 0 0-.062.004 1.761 1.761 0 0 0-.067-.401zm-1.832.563c.163 0 .376.07.638.21.057-.07.115-.105.172-.105.057 0 .088.03.09.086.004.058-.047.133-.152.225s-.154.17-.148.234l.029.019a.47.47 0 0 1-.192.33.773.773 0 0 1-.475.13c-.096 0-.138-.025-.126-.073a.175.175 0 0 0-.029-.148l.092.003c.147 0 .182-.03.104-.09-.06-.045-.108-.067-.145-.067a.069.069 0 0 0-.05.02c.025-.095-.026-.146-.154-.153a5.37 5.37 0 0 0 .325-.62l.021-.001zm.686.707l.277.172c.019.293.076.494.172.602a1.25 1.25 0 0 0-.268.01.522.522 0 0 0-.229.085 1.386 1.386 0 0 0-.21-.468c.166-.127.251-.26.258-.4zm.372.994c.249 0 .405.136.468.41.09.389.102.997.039 1.825a28.957 28.957 0 0 1-.268 2.33l.124.182h-3.18l.659-.268c-.191-.936-.43-1.622-.717-2.058-.286-.436-.334-.718-.143-.845a.328.328 0 0 1 .182-.061c.13 0 .26.093.391.28l1.28 1.834.23-.019c.14-1.426.289-2.49.448-3.19.077-.28.239-.42.487-.42zm.283-4.893c-.187 0-.313.109-.378.327l-.812 2.14h-.42c.076.254.114.48.114.678a1.706 1.706 0 0 1-.253.53c-.12.175-.096.263.073.263a.53.53 0 0 0 .018 0c-.045.063-.038.098.019.104-.05.032-.056.06-.014.086.041.026.055.086.043.182-.02.286-.094.517-.225.692-.107.144-.204.216-.292.216a.159.159 0 0 1-.056-.01.336.336 0 0 0-.114-.026c-.037 0-.063.014-.077.04-.026.048.008.097.1.148a.238.238 0 0 0 .116.027.73.73 0 0 0 .304-.089c.188-.092.358-.377.511-.855h.268a.736.736 0 0 1 .19.334c-.229.733-.416 1.815-.563 3.248l-1.213-1.72a.609.609 0 0 0-.391-.157.625.625 0 0 0-.311.09c-.245.141-.365.295-.358.464.006.169.122.444.348.826.226.382.432.943.616 1.681l-.725.316.047.372h4.079l-.42-.497c.203-1.98.275-3.246.214-3.796-.06-.551-.199-.855-.415-.912-.153-.153-.213-.319-.181-.497l.248-.44c.37.28.554.65.554 1.108v5.034h.22V7.123c-.007-.554-.236-.987-.688-1.299l.62-1.108h-.439l.678-1.767c.096-.242.053-.398-.128-.468a.653.653 0 0 0-.235-.048.444.444 0 0 0-.238.067c-.045-.146-.174-.229-.387-.248a.525.525 0 0 0-.047-.002zm2.284 11.441q-.217.218-.217.8 0 .593.217.81H40.25q.218-.217.218-.81 0-.582-.218-.8zm-8.586-.448q-.315 0-.303.206-.012.242.303.242h.787q.291.218.291.8 0 .593-.29.81h-.776q-.327 0-.327.207 0 .242.315.242h9.98q.302 0 .302-.242 0-.206-.315-.206h-.775q-.29-.218-.29-.811 0-.582.29-.8h.787q.303 0 .303-.242 0-.206-.303-.206z"/><path d="M8.22.375c-9.625 0-9.625 17.25 0 17.25m0-17.25h40.919M8.22 17.625h40.919M56.826.375v17.25M49.139.375c9.625 0 9.625 17.25 0 17.25" fill="none" stroke="#000"/></svg>