<svg xmlns="http://www.w3.org/2000/svg" width="243.679" height="18"><path d="M3.73.474c.693 0 1.247.2 1.634.479.006.053.02.107.009.16-.05.248-.195.477-.396.63-.316.207-.697.267-1.057.356-.09.01-.019.031.031.04.23.04.707.099.971.099l.052-.001c.278-.032.54-.148.766-.311.079-.067.147-.15.205-.236.147.346.227.713.26.917.018.11.096.2.202.233 1.139.349 2.038 1.91 2.88 2.949 1.729 2.137 3.199 4.526 4.892 6.76-.937-.456-1.87-.916-2.81-1.374-1.92-1.01-3.92-1.816-5.604-3.09l-.008-.008c-.97-.808-1.963-1.66-2.339-2.793-.148-.92 1.757-2.577 1.542-2.646a.207.207 0 0 0-.064-.01c-.458 0-1.753 1.128-2.019 2.202-.003-.014-.01-.03-.014-.045-.073-.356-.154-1.256.068-1.98a.29.29 0 0 0 .01-.103 1.968 1.968 0 0 0-.123-.634c-.063-.17-.139-.344-.26-.765-.031-.108-.142-.328-.208-.345.186-.138.375-.28.645-.375a.434.434 0 0 0-.132.314c0 .23.164.415.365.415.2 0 .364-.186.364-.415V.894a.411.411 0 0 0-.255-.39c.053-.007.096-.019.154-.022.081-.006.16-.008.238-.008zm.67 7.763c.065.065.135.124.202.187.214.78.412 1.64.692 2.305.483 1.145 1.216 2.141 1.84 3.154a1.814 1.814 0 0 0-.385.27 6.831 6.831 0 0 0-.199.193 2.61 2.61 0 0 0-1.186-.897c.045-.723-.108-1.712-.34-2.787A34.903 34.903 0 0 0 4.4 8.237zm1.006.908c1.149.945 2.428 1.738 3.676 2.54-.018.91-.018 1.778.084 2.675a3.411 3.411 0 0 0-1.437-.736c-.02 0-.037.012-.057.012-.649-1.063-1.383-2.06-1.837-3.134-.156-.37-.293-.85-.429-1.357zm.407 5.254a2.5 2.5 0 0 1 .44.541.3.3 0 0 0 .257.14.29.29 0 0 0 .17-.053c.215-.156.347-.324.476-.446.047-.045.097-.08.148-.117l.149 2.722c-.213-.014-.435-.035-.637-.035-.264 0-.495.036-.633.172-.169-.134-.497-.164-.89-.164-.102 0-.207.002-.316.004l.836-2.764zM6.97 9.574c1.354.787 2.784 1.414 4.135 2.125a.244.244 0 0 0 .006.003c1.295.631 2.586 1.28 3.894 1.904.984 1.189 2.052 2.295 3.078 3.42l-2.15.362-4.267-4.635a.288.288 0 0 0-.037-.036c-1.499-1.137-3.152-2.082-4.66-3.143zM3.796 0c-.135 0-.273.005-.411.013C2.3.083 1.512.54 1.243 1.157c-.04.093-.146.314-.007.314a2.35 2.35 0 0 1 .341-.028c.418 0 .38.172.47.194.09.282.29.846.303 1.068-.244.86-.153 1.763-.064 2.198.15.732.63 1.584 1.261 2.38a.285.285 0 0 0 0 .166 35.3 35.3 0 0 1 .903 3.336c.251 1.168.393 2.277.317 2.823a.294.294 0 0 0 .221.328c.045.011.084.031.127.045l-.928 3.079a2.847 2.847 0 0 0-.593-.055c-.381 0-.756.05-1.064.05-.125 0-.24-.008-.34-.032a.546.546 0 0 0-.125-.012c-.436 0-1.428.306-1.34.879.15-.128.257-.159.375-.159.11 0 .23.027.405.027h.027c.254-.004.697-.083 1.053-.083.18 0 .338.02.438.08.236-.01.45-.013.649-.013.85 0 1.447.07 2.5.075a89.565 89.565 0 0 0 2.974-.079c.45.003.697.054.922.054h.04c.134-.004.265-.057.48-.057.123 0 .273.017.468.07-.25-.341-.877-.685-1.33-.685a.591.591 0 0 0-.302.071 5.081 5.081 0 0 0-.508-.022c-.22 0-.448.01-.678.02l-.157-2.83c.487.203.857.517 1.281 1.021a.295.295 0 0 0 .513-.246c-.192-1.039-.213-2.019-.202-3.06.54.354 1.072.713 1.576 1.094l4.36 4.738a.29.29 0 0 0 .263.09c.95-.159 1.9-.315 2.849-.474a.294.294 0 0 0 .23-.193.298.298 0 0 0-.06-.297c-.741-.83-1.508-1.631-2.25-2.445 1.269.78 2.875 1.755 3.08 1.755.022 0 .027-.013.012-.04-.094-.163-.9-.755-1.775-1.373.14.058.276.12.415.177l.017.01c.103.035.16.059.27.062a.286.286 0 0 0 .108-.016.317.317 0 0 0 .188-.152.32.32 0 0 0 .023-.238c-.017-.05-.038-.077-.054-.098-.061-.085-.103-.109-.162-.154a4.553 4.553 0 0 0-.205-.149c-.153-.105-.336-.223-.493-.328a4.992 4.992 0 0 1-.328-.233.307.307 0 0 0-.028-.025l-3.892-2.736c-.008-.006-.02-.001-.028-.006-1.333-1.869-2.588-3.825-4.046-5.627C9 4.496 8.145 2.888 6.758 2.352 6.69 1.956 6.54 1.225 6.003.703 5.547.26 4.888.056 4.147.011A5.728 5.728 0 0 0 3.796 0zm20.383 3.383q-.542 0-.628.418v.025q.061.11.258.11.567-.245.567-.455v-.024q0-.05-.197-.074zm1.97-.763q-.086.48-.85 1.034l.271.11.37-.135.184.123q1.416.677 3.755.714l3.67.037.049-.001q.627 0 .61.919-.02.954-.647 1.914-.394 0-.8-.302-.407-.301-.665-.708-.259-.406-.665-1.058.123 1.292.738 2.031-.75 0-1.335.142-.293.07-.488.07-.196 0-.294-.07-.123-.088-.61-.088-.295 0-.726.032-.332.025-.607.025-.668 0-1-.148-.308-.258-.388-.905-.08-.646.363-1.791-.91.652-.91 1.982v.443q-.456-.468-.715-1.034Q24.954 4.7 24.08 4.7q-.332 0-1.28.419-.32-.136-.259-.431l.616-.825q.443-.751.64-.837.099-.185.96-.185.37.099.37.271 0 .234-.246.468.467-.099.677-.554 0-.111.59-.406zm.53-2.62q-.06 0-.136.096-.936 1.49-1.7 2.068-.295.259-.8.27-.246 0-.75-.369-.752-.726-1.047-1.23-.333-.592-.431-.653-.05 0-.074.123 0 .702 1.428 2.598-.27.394-.505.898-.234.505-.554.77-.32.265.062.523 0 .32.53.517.43-.123 1.317-.381.53 0 .726.443.653.985.653 2.056.074 1.428-.985 2.733-.333.222-.333.616 0 .16.407.16.664 0 .664-.16l-.049-.332q0-.173.259-.259v-.025q0-.234.837-2.351.382 0 .603.37.283.935.283 1.55 0 .136-.172.58-.21.16-.258.578h.985l-.074-.308q-.05-.185.135-.32l-.086-.456q-.16-1.736-.16-2.043v-.025q.973-.234 1.496-.234t.806.19q.113.077.316.077.307 0 .823-.175.559-.189.858-.189.159 0 .244.054.246.154.246.523 0 1.354-.69 2.302-.22.222-.332.616h.85q.222-.074.098-.37.025-.32.296-.406 0-1.12.985-2.216.69.382.702 1.182 0 .308-.123.837l-.148.407q-.136.16-.246.603h.812q.148-.062.185-.135l-.123-.394q-.062-.173.172-.308-.123-.653.16-.985-.579-1.354-.579-2.13.308-1.268.394-2.376.148.775.037 1.859-.11 1.083.37 2.24.094.196.17.196.055 0 .1-.097.124-.702.05-3.878-.099-.394-.21-.604-.393-.603-.677-.628H30.52q-2.943 0-4.359-.837.234-.418.259-.572.024-.154 0-.376-.591.173-.887.456l-.246-.185q.258-.16.825-1.034.566-.874.665-1.367Q26.735 0 26.679 0zm6.525 13.464c.65.028 1.007.042 1.16.042h.07l-.084 3.397a4.983 4.983 0 0 1-1.292-.769l.146-2.67zm-9.476-.845c-.217.042-.504.174-.469.433v1.894a36.22 36.22 0 0 0-.978-.042c0 .238.196.56.804.56.007.537.104 1.194.202 1.53l.084.88c0 .098.168.126.35.126.216 0 .454-.042.454-.042l-.035-.88c3.452.027 10.036.202 10.364.202.168 0 .28-.182.28-.433l.084-3.795-2.076-.021-.168 2.956c-1.502.007-4.102.252-5.87.252-.56 0-1.042-.021-1.37-.091-.07-.077-.72-1.02-1.132-1.125a1.813 1.813 0 0 0-.245-.028c-.07-.573-.14-1.146-.203-1.712.126-.161.413-.12.49-.336.077-.105.028-.28-.12-.286-.083-.035-.314-.042-.412-.042zM52.89 2.059V4.09H37.93V2.06zM37.985 0v1.537h-.576v3.075h16.004V1.537h-.467V0h-.521v1.537h-1.29V0h-.522v1.537h-1.29V0H48.8v1.537h-1.263V0h-.549v1.537h-1.262V0h-.522v1.537h-1.29V0h-.522v1.537h-1.29V0h-.522v1.537h-1.263V0h-.521v1.537h-1.29V0zm1.385 6.347l-1.962 2.321h.957L39.37 7.47l1.015 1.2.986-1.2 1.016 1.2 1.006-1.2 1.015 1.2 1.006-1.2 1.015 1.2.986-1.2 1.016 1.2 1.015-1.2.987 1.2 1.015-1.2 1.006 1.2h.957L51.45 6.346 50.434 7.47l-.987-1.122-1.015 1.122-1.016-1.122-.986 1.122-1.015-1.122-1.006 1.122-1.015-1.122-1.006 1.122-1.016-1.122-.986 1.122-1.015-1.122zm6.04 4.583c1.033 0 1.953.478 2.552 1.224h-5.104a3.264 3.264 0 0 1 2.552-1.223zm2.897 1.75c.197.376.324.794.362 1.237H42.15a3.25 3.25 0 0 1 .361-1.236zm.365 1.764c-.032.443-.152.86-.343 1.237H42.49a3.254 3.254 0 0 1-.342-1.237zm-.677 1.764a3.264 3.264 0 0 1-2.585 1.265 3.264 3.264 0 0 1-2.585-1.265zm-2.585-5.804a3.803 3.803 0 0 0-3.798 3.798A3.803 3.803 0 0 0 45.41 18a3.803 3.803 0 0 0 3.798-3.798 3.803 3.803 0 0 0-3.798-3.798zm13.008-6.689q.963 0 1.09 1.287.128 1.287.973 3.821l-4.067-.02q.727-2.514.884-3.801.157-1.287 1.12-1.287zm0 6.64q.511.787.55 1.651-.02.864-.55 1.65-.55-.786-.57-1.65.04-.864.57-1.65zm0-7.308q-1.454 0-1.768 1.62-.314 1.622-1.238 4.863h2.338q-1.71 2.476.649 5.423 2.455-2.947.687-5.423h2.318q-.923-3.241-1.237-4.862-.315-1.621-1.749-1.621zM66.75.599v1.307h-.91V.599zm0 1.606v5.708h-.91V2.205zm0 6.007v1.197h-.91V8.212zm-1.975-.047c.16 0 .334.046.466.068v1.309c-.138.017-.316.066-.478.066-.14 0-.267-.037-.348-.162-.052-.091-.101-.267-.101-.559 0-.291.05-.467.101-.558.08-.126.215-.164.36-.164zm1.975 1.543v6.152h-.91V9.708zm0 6.45v1.243h-.91v-1.242zM65.241 0v7.252L63.83 5.836l-.425.423 1.307 1.31c-.792.078-.974.62-.996 1.318.02.745.188 1.203.996 1.319l-1.307 1.31.425.422 1.412-1.416V18h2.108V0zm23.462 2.574v2.539H70.001v-2.54zM70.07 0v1.922h-.72v3.843h20.005V1.922h-.583V0h-.652v1.922h-1.613V0h-.652v1.922h-1.613V0h-.652v1.922h-1.578V0h-.687v1.922h-1.578V0h-.652v1.922h-1.613V0h-.652v1.922h-1.613V0h-.652v1.922h-1.578V0h-.652v1.922h-1.613V0zm1.733 7.584l-2.454 2.9h1.197l1.257-1.498 1.27 1.499 1.233-1.5 1.269 1.5 1.257-1.5 1.27 1.5 1.256-1.5 1.27 1.5 1.233-1.5 1.269 1.5 1.27-1.5 1.232 1.5 1.27-1.5 1.257 1.5h1.196l-2.454-2.901-1.269 1.402L84.4 7.584l-1.27 1.402-1.268-1.402-1.233 1.402-1.27-1.402-1.257 1.402-1.27-1.402-1.256 1.402-1.27-1.402-1.232 1.402-1.27-1.402zm1.469 5.132v.4H71.16v-.4zm-1.062.787q1.324 0 1.83.674.506.675.506 1.212-.012.837-.7 1.462-.687.624-1.636.624-.962 0-1.649-.624-.687-.625-.687-1.45 0-.549.412-1.224.413-.674 1.924-.674zm-1.649-1.2v.937q-.45.263-.824.85-.375.587-.388 1.3 0 .836.694 1.692.693.856 2.167.918 1.462-.062 2.161-.918.7-.856.7-1.68-.013-.725-.387-1.318-.375-.594-.837-.856v-.924zm9.853.413v.4h-2.111v-.4zm-1.062.787q1.324 0 1.83.674.506.675.506 1.212-.012.837-.7 1.462-.686.624-1.636.624-.962 0-1.649-.624-.687-.625-.687-1.45 0-.549.413-1.224.412-.674 1.923-.674zm-1.649-1.2v.937q-.45.263-.824.85-.375.587-.387 1.3 0 .836.693 1.692t2.167.918q1.462-.062 2.161-.918.7-.856.7-1.68-.012-.725-.387-1.318-.375-.594-.837-.856v-.924zm9.853.413v.4h-2.11v-.4zm-1.061.787q1.324 0 1.83.674.506.675.506 1.212-.013.837-.7 1.462-.687.624-1.636.624-.962 0-1.65-.624-.686-.625-.686-1.45 0-.549.412-1.224.412-.674 1.924-.674zm-1.65-1.2v.937q-.45.263-.824.85-.375.587-.387 1.3 0 .836.693 1.692t2.168.918q1.461-.062 2.16-.918.7-.856.7-1.68-.012-.725-.387-1.318-.375-.594-.837-.856v-.924zm8.633-10.95q-.14 0-.177.146 0 .15.157.15.027 0 .057-.004.214-.03.526-.107-.39-.175-.545-.185h-.018zm-.118-.204q.272.039.797.175.195.39.331.39.156 0 .253-.118.052-.037.089-.037.059 0 .076.096.03.155-.262.486.02.837.408 1.498-.272-.175-.437-.175-.166 0-.263.098 0-.312-.039-.7-.216-.23-.474-.23-.114 0-.236.044-.146.054-.241.054-.165 0-.178-.16-.097-.195-.058-.37-.039-.195-.214-.273l.448-.778zm.904-.779q.477 0 1.022.224t.564 1.06q.02.954.02 1.713v2.646h-.312V3.678q-.525-.68-.544-1.44.272-.389.233-.7-.039-.292-.311-.302h-.041q-.242 0-.368.107-.058-.272-.486-.37-.545-.116-.487-.136.234-.467.71-.467zm.349 3.865q.06 0 .128.008.33.078.311.408.078 1.518-.097 2.841.428 1.09.097 1.966-.214 1.303-.155 3.989l-.02 3.19q.273.78-.039.838h-1.926q.895-.39 1.46-1.11.155-.739.077-1.926-.078-1.187-.613-4.378t.321-5.468q.034-.358.456-.358zM94.31 0q-.804 0-1.03.507-.233.525-.505.875-.253.37-.331.545 0 .078.058.136.175.078.214.214.059.467.088.604.03.136.243.194l-.292 1.031q-.35.117-.136.331.084.084.168.084.13 0 .26-.2l.564-1.246q.05-.068.142-.068.092 0 .228.068l-.058.837h-.02q-.33.467-.33.74-.74 2.218-.429 4.407.312 2.189.604 4.144.292 1.956.214 2.637-.292.837-1.888 1.557-.72.175-.72.603h3.97q.467-.292.058-1.401v-5.624q0-1.109.195-1.342.37-1.051-.117-2.14l.156-.935h.661V3.29q0-1.226-.02-1.751-.019-.525-.262-.944-.243-.418-1.625-.593L94.311 0zm3.968.22v5.122h.976V.22h-.976m0 6.585v4.878h.976V6.805h-.976m0 6.097v4.878h.976v-4.878h-.976zM102.999 0c-.93 0-1.745.684-1.745 1.562V18h1.136V1.562c0-.43.378-.57.616-.57.25 0 .634.175.634.703v10.804h1.136V1.695c0-.88-.87-1.695-1.777-1.695zm12.98.699q1.265.749 1.265 2.247h-2.52q0-1.498 1.255-2.247zm1.265 2.946q-.283 1.002-1.265 1.002t-1.235-1.002zm7.27 1.751v1.195h-17.06V5.396zM115.978 0q-1.934.729-1.934 3.128 0 .912.395 1.519h-7.664v2.642h18.406V4.647h-7.634q.395-.607.395-1.519 0-2.4-1.964-3.128zm-4.836 14.172c1.074 0 2.418.552 3.069 1.202.569.57.643 1.324.664 2.025h-7.435c.021-.701.096-1.456.665-2.025.65-.65 1.963-1.202 3.037-1.202zm0-.601c-1.274 0-2.645.588-3.449 1.392-.824.824-.917 1.909-.917 2.72V18h8.732v-.316c0-.812-.062-1.897-.886-2.721-.803-.804-2.206-1.392-3.48-1.392zm13.128-2.921v6.46h-4.333v-6.46zm-5.224-.911V18h6.136V9.739zM143.259.815q-2.527 3.434-7.27 3.527-4.713-.093-7.24-3.527zM127.182 0q2.588 5.177 8.807 5.198 6.249-.021 8.837-5.198zm8.822 14.1q3.108 0 6.59 1.501-3.482 1.46-6.59 1.46-3.087 0-6.59-1.46 3.503-1.501 6.59-1.501zm0-.96q-3.838 0-8.822 2.44 4.984 2.42 8.822 2.42 3.838 0 8.822-2.42-4.964-2.44-8.822-2.44zM158.236.42a.534.534 0 0 1 .07.005c.157.021.3.11.402.233.2.243.263.64-.098.973a.345.345 0 0 1-.24.086.504.504 0 0 1-.1-.01.83.83 0 0 1-.418-.228c-.215-.212-.338-.546-.029-.89a.634.634 0 0 1 .413-.168zm-6.04.014a.534.534 0 0 1 .07.004c.157.02.3.11.402.233.2.242.263.64-.098.972a.345.345 0 0 1-.24.086.504.504 0 0 1-.1-.01.83.83 0 0 1-.418-.227c-.215-.213-.338-.546-.028-.891a.634.634 0 0 1 .412-.167zm4.064.014a.534.534 0 0 1 .07.004c.158.02.3.11.402.233.2.242.263.64-.098.972a.345.345 0 0 1-.239.086.504.504 0 0 1-.1-.01.83.83 0 0 1-.419-.227c-.214-.213-.338-.546-.028-.891a.634.634 0 0 1 .412-.167zm-2.063.02a.534.534 0 0 1 .07.004c.157.02.3.11.402.233.2.242.262.64-.098.972a.345.345 0 0 1-.24.086.504.504 0 0 1-.1-.01.83.83 0 0 1-.419-.227c-.214-.213-.337-.546-.028-.891a.634.634 0 0 1 .413-.167zm-4.017.136a.534.534 0 0 1 .07.005c.157.02.3.11.402.233.2.242.263.64-.098.972a.345.345 0 0 1-.24.086.504.504 0 0 1-.1-.01.83.83 0 0 1-.418-.228c-.215-.212-.338-.545-.029-.89a.634.634 0 0 1 .413-.168zm5.07.571c.034.238.156.457.33.63.06.058.124.111.192.157h-.89c.247-.24.36-.518.369-.787zm2.035.196c.058.151.152.29.27.407.072.07.152.133.237.185h-.868c.195-.182.31-.386.36-.592zm1.954.048c-.008.183-.018.369-.027.547h-.346a1.221 1.221 0 0 0 .373-.547zm-6.017-.069c.055.178.159.34.294.475.052.051.109.098.168.14l-.847.004a1.196 1.196 0 0 0 .385-.618zm-1.99-.001c.057.164.157.316.284.442.072.07.152.134.237.186-.299.003-.564.006-.784.01.166-.2.249-.422.263-.638zm4.814.984c1.476 0 2.76.003 3.147.005l-.015.31v.085a2300.707 2300.707 0 0 1-8.126.047 2 2 0 0 0-.284-.417c.25-.006.59-.011.99-.015a385.335 385.335 0 0 1 4.288-.015zm3.127.772l-.022 2.229.008.444-.097.173c-.461.01-1.794.042-3.138.08-.831.024-1.666.05-2.301.075a40.12 40.12 0 0 0-.783.036 6.757 6.757 0 0 0-.322.029.521.521 0 0 0-.016.002c-.042-.113-.086-.222-.124-.367l-.004-.013-.005-.013-1.14-2.628h.055c1.355 0 6.926-.04 7.89-.047zm.921 3.259a.187.187 0 0 1-.01.006l.01-.006zm.92-2.007a.368.368 0 0 1 .194.049c.099.058.164.173.134.37-.04.25-.228.589-.663.99l-.008.008-.007.008c-.36.385-.493.528-.563.577a1.07 1.07 0 0 0-.255.03h-.003l-.302.01-.002-.095c.182-.333.437-.767.606-1.082l.011-.02.008-.022c.141-.403.357-.637.566-.747a.618.618 0 0 1 .284-.076zm-1.235 2.651l.804 1.239-.694.296-.12-1.115-.007-.418.017-.002zM159.174 7l.03 2.035.006.438.012-.005.024 1.373-6.352-.092c-.068-1.092-.111-2.445-.179-3.537 2.18-.069 4.293-.142 6.459-.212zm-.938-7a1.06 1.06 0 0 0-.698.278l-.009.008-.008.009c-.138.15-.225.308-.269.465a1.135 1.135 0 0 0-.195-.343 1.059 1.059 0 0 0-.797-.39c-.233 0-.476.085-.697.278l-.01.008-.007.008a1.06 1.06 0 0 0-.304.681 1.12 1.12 0 0 0-.249-.565 1.059 1.059 0 0 0-.796-.39c-.234 0-.477.085-.698.278l-.009.008-.008.008a1.144 1.144 0 0 0-.272.476 1.131 1.131 0 0 0-.218-.414 1.059 1.059 0 0 0-.796-.39c-.233 0-.476.085-.698.278l-.008.008-.008.008a1.082 1.082 0 0 0-.301.637 1.134 1.134 0 0 0-.205-.37 1.059 1.059 0 0 0-.796-.39c-.234 0-.476.085-.698.278l-.008.007-.009.01c-.472.514-.343 1.11.035 1.483l.028.027s.412.36.628.363l.023.014.06.094.042-.027c.263.183.35.335.524.673l.001.003-.002.027h.014l1.204 2.78c.047.17.1.295.15.435l-.043.027.108.17c.037.132.071.295.098.53.077 1.165.121 2.691.199 3.866l.011.17.172.003 6.715.097.192.003-.003-.152h.032l.325-.005.183-.003-.02-.183-.186-1.72 1.18-.504.323-.137-.191-.294-.876-1.347a.46.46 0 0 0 .006-.004l.535-.513.154-.164s.777-.944.837-1.324c.068-.435-.11-.788-.418-.969a.952.952 0 0 0-.49-.128c-.183 0-.374.046-.558.142-.337.177-.649.52-.84 1.05l-.092.169.024-2.472c.028-.604-.234-1.832-.28-1.832-.004 0-.006.008-.007.025 0 0-.119-.328-.23-.462a1.059 1.059 0 0 0-.796-.39zm-2.686 14.143q3.073 0 6.518 1.485-3.445 1.444-6.518 1.444-3.052 0-6.517-1.444 3.465-1.485 6.517-1.485zm0-.948q-3.794 0-8.724 2.413Q151.756 18 155.55 18q3.795 0 8.724-2.392-4.908-2.413-8.724-2.413zM173.823.735c.626 0 1.3.126 1.723.626.678.8.822 1.892.874 2.903.096 1.839.123 3.68.106 5.522h-.452V5.258c-1.184-.04-1.68-.912-1.784-1.593.142-.31.523-.57.65-.949.133-.4-.04-.993-.516-.993h-.025c-.214.01-.396.085-.586.085a.623.623 0 0 1-.337-.097c-.407-.248-.953-.293-1.424-.397.389-.567.984-.558 1.621-.577l.15-.002zm-2.108 1.109c.578.102 1.189.213 1.645.613.085.115.208.19.322.19.1 0 .195-.059.25-.203.078-.108.156-.151.226-.151.213 0 .355.405.186.632-.13.326-.527.519-.667.785.135.532.373 1.043.776 1.428.31.298.686.566 1.126.6-.014 1.903-.005 3.806-.046 5.708a35.537 35.537 0 0 1-.58 5.237c-.045.247.182.4.31.575h-7.73c.562-.213 1.126-.417 1.685-.635.301-.158.162-.526.08-.774-.568-2.006-1.368-3.939-2.28-5.811.139-.183.366-.268.593-.268.13 0 .26.027.372.08.524.622 1.023 1.269 1.537 1.9.703.872 1.398 1.75 2.106 2.616.07.069.154.099.237.099.215 0 .425-.2.395-.44.372-2.515.808-5.02 1.097-7.546a2.616 2.616 0 0 0-.718-2.163.306.306 0 0 0-.215-.081c-.244 0-.532.224-.735.224-.084 0-.153-.038-.2-.144-.255-.26.58-.12.195-.349a.414.414 0 0 1-.069.006c-.35 0-.087-.58-.482-.675.066-.182.18-.313.329-.313a.36.36 0 0 1 .219.088c.088.022.176.031.264.031.304 0 .606-.113.883-.232-.317-.316-.43-.384-.642-.384-.22 0-.532.068-.622.14.147-.234.192-.51.153-.783zM173.787 0c-.056 0-.111 0-.166.002-.854.024-1.803.252-2.311.996-.225.326-.395.72-.32 1.123-.204.472-.648.834-.718 1.362-.066.427.578.339.42.752.01.31.354.616.24.815-.199.845-.433 1.739-1.033 2.396-.102.177-.232.228-.374.228-.191 0-.404-.093-.598-.096-.4.234.11.608.417.608.013 0 .025 0 .037-.002.03.003.06.004.09.004.622 0 1.094-.529 1.38-1.035.369-.603.64-1.28.86-1.938.167-.066.335-.129.476-.129.165 0 .292.087.338.354.27.716.014 1.476-.06 2.204a879.576 879.576 0 0 1-.827 5.57c-1.03-1.281-2.057-2.566-3.09-3.845-.238-.24-.565-.334-.898-.334-.218 0-.438.04-.636.106-.415.172-.86.606-.71 1.096.91 1.884 1.727 3.82 2.294 5.837-.694.264-1.394.514-2.084.788-.278.163-.143.488-.084.73a.43.43 0 0 0 .493.401h9.133c.127-.075.44-.136.484-.169-.173-.142-.101-.391-.285-.532l-.55-.65c.361-1.996.56-4.022.58-6.05l.225.002c.382 0 .836-.047.748-.544.022-2.122.02-4.25-.14-6.366-.084-1.109-.399-2.302-1.283-3.053C175.269.14 174.518 0 173.787 0zm9.167 3.071c-.27.13-.6.49-.1.55.24-.01.79-.26.69-.49a.221.221 0 0 1-.157.067c-.142 0-.287-.127-.433-.127zm-1.97.09c-.33.08-.5.44-.08.52l.021.002c.242 0 .901-.294.358-.361-.09-.06-.18-.16-.3-.16zm2.63-2.51c.59.69 1.111 1.49 1.211 2.41.1.66.13 1.321.23 1.971-.47-.04-.33-.77-.24-1.12.08-.69-.29-1.33-.55-1.941-.18-.33-.35-.85-.81-.86-.51.09-.84.52-1.171.89-.34-.34-.7-.71-1.17-.85a.236.236 0 0 0-.082-.013c-.105 0-.229.046-.285.046-.05 0-.049-.034.056-.164.064-.224.196-.29.359-.29.238 0 .543.141.8.141a.561.561 0 0 0 .112-.01c.084.004.169.007.254.007.437 0 .876-.067 1.287-.218zm-.16.76c.39.1.48.64.67.96.241.56.531 1.17.341 1.801-.15.3.04.68.02.9-.334.235-.627.73-1.07.73a.631.631 0 0 1-.15-.02c-.44-.09-.66-.51-1.001-.71-.246.238-.392.73-.798.73a.618.618 0 0 1-.183-.03c-.37-.08-.86-.04-.97-.49-.19-.46-.21-.97-.24-1.47a.324.324 0 0 0 .061.006c.202 0 .22-.235.24-.436.077-.293.287-.429.52-.429.157 0 .325.062.47.178.17.19.69.34.58.64-.05.18-.11.371-.17.561l.42.56c.04-.29.47-.53.22-.82-.04-.13-.19-.3-.17-.4.18-.32.42-.6.7-.84a.322.322 0 0 1 .23-.103c.268 0 .537.351.77.382.23-.25-.02-.35-.25-.48a.701.701 0 0 0-.486-.196c-.25 0-.5.13-.654.356-.19.114-.322.494-.49.494-.052 0-.108-.037-.17-.134-.306-.244-.672-.518-1.072-.518a.855.855 0 0 0-.179.018c-.283.059-.537.632-.559.632l-.001-.001c-.01-.47.21-.89.34-1.351a.612.612 0 0 1 .596-.477c.173 0 .348.075.475.237.297.11.516.634.796.634.05 0 .1-.017.154-.054.31-.33.56-.72 1.01-.86zm-1.42 6.943c1.27 1.31 2.441 4.632 2.741 5.993-.49-.4-1.16-.66-1.31-.91-.16-.26-.6-2.792-1.431-5.083zm4.522-2.381c2.401 1.38 6.583 8.174 7.474 9.264-1.501-.95-2.982-1.91-4.593-2.691-2.26-1.11-4.192-2.911-6.032-4.592 1.52-.51 2.61-1.37 3.151-1.981zm-2.491 8.624c.32.19.61.45.96.59-.21.52-.34 1.1-.77 1.51-.08.13-.196.172-.328.172-.227 0-.504-.123-.735-.123-.016 0-.032 0-.048.002.28-.7.7-1.01.92-2.151zm.68-9.365c.06.126.138.167.22.167.108 0 .224-.071.32-.116.24.17 1.07.15.58.51-.31.42-1.967 1.566-3.118 1.768-.497.087.337.873.607 1.153 1.561 1.4 3.092 2.882 4.963 3.892 1.17.66 2.401 1.25 3.532 1.98.54.781 1.18 1.502 1.59 2.362-.41.12-.81.29-1.23.39a2.89 2.89 0 0 1-.703.082c-.66 0-1.325-.197-1.618-.512-.54-.57-1.131-3.001-1.441-3.892-.044-.1-.107-.133-.175-.133-.135 0-.291.132-.369.132-.016 0-.028-.006-.036-.019a.391.391 0 0 0-.387-.376c-.175 0-.339.127-.314.396-.06.63-.18 1.26-.48 1.831-.037.097-.114.134-.215.134-.284 0-.76-.293-1.086-.374.13-.77-.92-4.712-4.001-8.014-.108-.116-.578-.611-.537-.611.005 0 .017.006.036.02.158.042.336.07.512.07.337 0 .668-.104.839-.42.026-.077.059-.108.097-.108.137 0 .344.399.563.399a.92.92 0 0 0 .514.155c.29 0 .578-.131.777-.355.19-.17.37-.34.56-.51zM183.705 0c-.315.14-.865.28-1.36.28-.072 0-.142-.004-.211-.01a.804.804 0 0 1-.143.012c-.337 0-.699-.18-1.025-.18a.622.622 0 0 0-.353.098c-.55.8-1.05 1.69-1.11 2.681-.11 1.901-.06 2.562 1.44 4.122.59 1.341 1.691 5.713 2.021 6.904.36.34-.45 2.2-.79 2.66-.185.256-.673.268-1.197.268h-.172c-.471 0-.948.01-1.242.193-.28.18-.38.85-.22.94.15-.23.45-.54.66-.57-.2.21.5.11.65.16.405.007.814.041 1.225.041.198 0 .397-.008.596-.03.09-.04.187-.102.229-.102.032 0 .032.038-.029.151.283.074.602.111.913.111.7 0 1.363-.187 1.508-.56.3-.551.58-1.131.78-1.732.256.054.577.234.835.234a.38.38 0 0 0 .206-.054c.28-.19.57-1.08.73-1.67.016-.062.1-.092.183-.092.081 0 .163.028.188.082.3.6.8 2.44 1.28 3.211.363.571 1.241.852 2.175.852a4.48 4.48 0 0 0 1.717-.332c.65-.28 1.13-.22.99-.58-.22-.6-.6-1.17-1-1.68.58.36 1.16.73 1.741 1.09.048.174.168.243.291.243.237 0 .483-.256.24-.513-2.272-3.282-5.884-8.875-8.385-10.685-.4-.35-.87-.62-1.39-.75-.17-.44-.12-1.031-.22-1.531-.1-.99-.7-2.632-1.751-3.262zm15.782 0l-1.938 2.291h.945l.993-1.184 1.002 1.184.974-1.184 1.002 1.184.993-1.184 1.002 1.184.993-1.184 1.002 1.184.974-1.184 1.002 1.184 1.002-1.184.974 1.184 1.002-1.184.993 1.184h.945L211.41 0l-1.002 1.107L209.433 0l-1.002 1.107L207.43 0l-.974 1.107L205.453 0l-.993 1.107L203.458 0l-.993 1.107L201.463 0l-.974 1.107L199.487 0zm3.009 10.418c1.07 1.201 1.955 2.572 2.743 3.965.166.204-.02.391-.157.586-.52-1.651-1.716-2.925-2.586-4.551zm-1.035-6.064c.09.416-.075.896-.39 1.038l.1.215c.395-.187.773-.748.83-1.251.538.032.685.437.769.907.1.321-.001 1.1.406 1.236 1.202.465 2.121 1.004 2.946 1.818 1.424 1.78 2.912 3.505 4.336 5.287.553.693 1.059 1.329 1.47 1.808-2.163-1.616-4.578-2.852-6.949-4.137-1.26-.684-2.461-1.244-2.461-2.75 0-.811 1.493-1.49 1.432-1.595-.006-.01-.023-.014-.05-.014-.307 0-1.876.582-1.876 1.809 0 .34.091.655.25.949h-.008c-1.72-.912-1.448-2.757-1.38-4.383-.716-.04-1.305-.43-1.984-.593.526-.068 1.052-.156 1.58-.21-.1.02-.19.077-.25.158-.009.173.187.25.378.25.187 0 .369-.073.351-.2a.48.48 0 0 0-.409-.216c.263-.037.612-.093.91-.126zm3.006 10.462c.154.374.234.771.322 1.164.25-.203.493-.411.7-.66-.135.73-.385 1.464-.992 1.464-.367 0-.537-.248-.301-1 .11-.355.199-.693.271-.968zm-.659-3.605c2.454 1.308 4.884 2.627 7.205 4.161.547.443 1.034.937 1.364 1.399-.219.34-.635.457-1.02.482-1.965-.068-2.734-1.962-3.771-3.315l-.565-.686.097.879c.007.158.17.906-.072.906a.18.18 0 0 1-.071-.017l-.993-1.188c-.106.07-.206.15-.316.214-.492-.997-1.213-1.924-1.858-2.835zm-2.118-7.366c-.515 0-1.044.093-1.545.14-.597.291-1.203.069-1.83.297-.452.203-.579.615-.766 1.026.267-.088.51-.125.738-.125.73 0 1.318.368 2.09.564-.001.387-.062.827-.091 1.27-.12 1.2.513 2.253 1.427 3.002.655 1.459 1.56 2.577 2.222 3.715-.079.51-.555 2.44-.79 3.132a8.741 8.741 0 0 1-1.43.121 7.342 7.342 0 0 1-.622-.025c-.372 0-.78.635-1.182.974l8.149.064c-.208-.735-1.656-1.124-2.17-1.124a.718.718 0 0 0-.08.003c.182-.519.409-1.007.473-1.733.228.204.483.424.801.447.39-.03.547-.295.596-.642.882 1.458 1.868 2.649 3.677 2.824.625-.03 1.404-.304 1.572-.968.83-.047.221-.854-.086-1.17-2.256-2.443-4.118-5.23-6.347-7.69-.859-.847-1.828-1.42-3.028-1.895-.09-.22-.12-.531-.177-.875-.064-.375-.264-.988-.63-1.179a2.796 2.796 0 0 0-.97-.153zM216.434.589q1.055.153 1.103.965v5.854q-.493-.589-1.771-.827l.668-5.992zM216.137 0l-.79 7q1.76.201 2.19 1.256v1.172h.525V1.554q0-1.315-1.925-1.554zm7.127.589q1.055.153 1.103.965v5.854q-.493-.589-1.771-.827l.668-5.992zM222.967 0l-.79 7q1.76.201 2.19 1.256v1.172h.525V1.554q0-1.315-1.925-1.554zm-7.62 10.476v3.839h.642v-3.84zm4.412.005v3.834h.642V10.48zm4.491 0v3.834h.642V10.48zm-8.04 6.207q-.054 0-.106.017-.201.065-.177.195.02.11.18.11.028 0 .062-.004.219-.023.385-.177-.185-.14-.344-.14zm.102-.12q.427 0 1.318.51.447.23.98.23.256 0 .534-.053.698-.142 1.466-.249.261-.036.506-.036.476 0 .89.137.627.207 1.04.266.415.06 1.314.107-.58.059-1.136.059-.556 0-1.313-.124-.378-.063-.729-.063-.35 0-.672.063-.645.124-1.467.23-.205.027-.404.027-.595 0-1.127-.24-.517-.352-1.074-.352-.246 0-.5.068-.224-.011-.2-.248.13-.32.555-.331h.02zm.317-1.206q-.256 0-.478.781-.185-.69-.478-.69-.043 0-.09.016-.354.225.237.863-.473.272-.473.686 0 .414.698.462.216-.057.421-.057.483 0 .91.31.365.267 1.158.267.53 0 1.248-.118.884-.249 1.717-.249.316 0 .625.036.773.09 1.316.09.247 0 .447-.02 1.005-.023 1.005-.188-.272-.249-.769-.332-1.053-.011-1.922-.366-.435-.178-1.066-.178t-1.459.178q-.534.134-.994.134-.63 0-1.123-.253-.509-.307-1.076-.508.473-.367.443-.61-.03-.242-.29-.254h-.007zm12.076-9.67c.493 0 .933.228 1.219.584h-2.437a1.558 1.558 0 0 1 1.218-.584zm1.384.836c.094.179.154.378.172.59h-3.112c.019-.212.079-.411.173-.59zm.174.842c-.015.211-.073.41-.164.59h-2.788a1.554 1.554 0 0 1-.163-.59zm-.323.842a1.559 1.559 0 0 1-1.235.604c-.502 0-.948-.237-1.234-.604zm-1.235-2.772c-1 0-1.813.814-1.813 1.814s.814 1.813 1.813 1.813c1 0 1.814-.813 1.814-1.813s-.814-1.814-1.814-1.814z"/><path d="M231.41.44h-.002c-.08.002-.143.072-.142.157.002.085.066.152.145.152h.003c.08-.001.143-.072.142-.157l-.145.003.145-.004a.15.15 0 0 0-.145-.15zm.027-.025a.588.588 0 0 1 .331.207l.065.128v.001c.013.149-.042.376-.123.6a.46.46 0 0 0-.07-.218.497.497 0 0 0-.21-.172c-.143-.068-.272-.097-.416-.19a.208.208 0 0 0-.091-.031c-.024-.003-.049-.004-.073-.006a.208.208 0 0 0 .097-.125l-.004.013c.002 0 .01-.014.03-.03a.756.756 0 0 1 .143-.085 1.09 1.09 0 0 1 .32-.092zm1.065.268c.247.08.411.206.534.366.166.216.257.517.315.867l-.61-.057a2.07 2.07 0 0 0-.03-.849.722.722 0 0 0-.209-.327zm-.455 2.835c.126.015.251.025.372.03 1.163.053 2.344.566 3.017 1.088.739.573 1.603 1.03 2.46 1.386a10.374 10.374 0 0 1-1.13.055 5.044 5.044 0 0 1-.213.004c-1.311 0-2.633-.414-3.656-1.229a2.63 2.63 0 0 1-.85-1.334zm-1.15-.496a.4.4 0 0 0 .193.228c.156.083.333.144.517.19.107.672.52 1.327 1.031 1.736 1.106.881 2.515 1.32 3.913 1.32a6.668 6.668 0 0 0 .26-.004c.623 0 1.243-.045 1.861-.166v-.005c.411.147.812.272 1.185.376-.617-.041-1.258-.18-1.924-.2a6.854 6.854 0 0 0-.208-.004c-.626 0-1.243.078-1.828.089h-.078c-1.659 0-3.033-.95-4.363-2.233-.308-.297-.539-.888-.56-1.327zm7.205 3.9c.49.031.993.124 1.511.172.148.103.308.184.438.266a.951.951 0 0 1 .216.176.583.583 0 0 1-.063.015 1.372 1.372 0 0 1-.44.005 6.752 6.752 0 0 1-1.014-.296 3.06 3.06 0 0 1-.648-.339zM231.44 0a1.237 1.237 0 0 0-.5.131 1.15 1.15 0 0 0-.226.136.56.56 0 0 0-.11.112c-.218.057-.488.08-.766.114-.313.038-.64.088-.923.26-.458.28-.802.807-.959 1.319a.207.207 0 0 0 .374.172c.478-.747.8-.965 1.153-1.044.232-.052.509-.077.807-.077.177 0 .36.008.546.026.183.108.344.153.415.187.036.017.043.026.043.026s.006.007.003.055c-.007.108-.163.34-.36.585-.198.246-.433.514-.455.863-.037.602.226 1.339.686 1.783.426.41.864.795 1.32 1.129.097.632.22 1.514.295 2.131-.17.776-.59 1.466-.804 2.228-.064.142-.218.2-.367.2a.564.564 0 0 1-.14-.017c-.217-.031-.435-.063-.654-.063a1.937 1.937 0 0 0-.219.011c-.15 0-.656.201-.58.484.023.064.47.092.944.092.351 0 .718-.015.943-.043a.426.426 0 0 0 .47-.358c.28-.779.612-1.538.89-2.318.002-.67-.178-1.323-.246-1.987a6.34 6.34 0 0 0 1.013.513c.16.32.88 1.338 1.146 1.736l.142 2.026c-.374-.013-.743-.117-1.118-.117a1.83 1.83 0 0 0-.144.005c-.292 0-.385.57-.164.57.008 0 .017 0 .027-.002.425.004.851.013 1.277.013.14 0 .279 0 .418-.003.145-.023.229-.194.186-.328l-.165-2.294c-.146-.27-.577-.908-.903-1.385a4.712 4.712 0 0 0 1.17.126c.54-.01 1.078-.07 1.6-.084.22.358.665.568 1.095.734.453.175.898.28 1.085.316a1.737 1.737 0 0 0 .595-.003.722.722 0 0 0 .29-.108.354.354 0 0 0 .125-.142.328.328 0 0 0 .016-.22c-.051-.178-.172-.297-.304-.392l.025-.003c.073-.01.14-.024.204-.045a.41.41 0 0 0 .1-.045.233.233 0 0 0 .114-.16.24.24 0 0 0-.058-.208.364.364 0 0 0-.087-.073 1.13 1.13 0 0 0-.183-.09 3.463 3.463 0 0 0-.394-.133c-1.355-.364-3.133-1.02-4.438-2.033-.752-.583-1.983-1.117-3.252-1.174-.404-.018-.874-.102-1.153-.25a.045.045 0 0 0 .013.005c.005 0-.018-.023-.027-.064a.41.41 0 0 1 0-.117c.045-.103.155-.225.288-.36.132-.134.286-.283.385-.485.12-.246.256-.547.297-.852.04.046.066.094.07.11.04.141.035.688-.026.848a.208.208 0 0 0 .175.28l1.114.104a.208.208 0 0 0 .225-.23c-.057-.483-.148-.955-.434-1.327-.283-.369-.758-.601-1.463-.618-.134-.1-.284-.178-.462-.178zm9.188.42c.75 0 1.69.386 2.144.84.398.398.45.925.464 1.415h-5.195c.015-.49.067-1.017.465-1.415.454-.454 1.371-.84 2.122-.84zm0-.42c-.89 0-1.848.411-2.41.973-.576.576-.64 1.334-.64 1.9v.222h6.1v-.221c0-.567-.043-1.325-.618-1.901C242.498.41 241.518 0 240.628 0zm-12.295 12.407V18h.934v-5.593zm6.427.008V18h.935v-5.585zm6.543 0V18h.935v-5.585z"/></svg>