<svg xmlns="http://www.w3.org/2000/svg" width="75.5" height="18"><path d="M3.73.474c.693 0 1.247.2 1.634.479.006.053.02.107.009.16-.05.248-.195.477-.396.63-.316.207-.697.267-1.057.356-.09.01-.019.031.031.04.23.04.707.099.971.099l.052-.001c.278-.032.54-.148.766-.311.079-.067.147-.15.205-.236.147.346.227.713.26.917.018.11.096.2.202.233 1.139.349 2.038 1.91 2.88 2.949 1.729 2.137 3.199 4.526 4.892 6.76-.937-.456-1.87-.916-2.81-1.374-1.92-1.01-3.92-1.816-5.604-3.09l-.008-.008c-.97-.808-1.963-1.66-2.339-2.793-.148-.92 1.757-2.577 1.542-2.646a.207.207 0 0 0-.064-.01c-.458 0-1.753 1.128-2.019 2.202-.003-.014-.01-.03-.014-.045-.073-.356-.154-1.256.068-1.98a.29.29 0 0 0 .01-.103 1.968 1.968 0 0 0-.123-.634c-.063-.17-.139-.344-.26-.765-.031-.108-.142-.328-.208-.345.186-.138.375-.28.645-.375a.434.434 0 0 0-.132.314c0 .23.164.415.365.415.2 0 .364-.186.364-.415V.894a.411.411 0 0 0-.255-.39c.053-.007.096-.019.154-.022.081-.006.16-.008.238-.008zm.67 7.763c.065.065.135.124.202.187.214.78.412 1.64.692 2.305.483 1.145 1.216 2.141 1.84 3.154a1.814 1.814 0 0 0-.385.27 6.831 6.831 0 0 0-.199.193 2.61 2.61 0 0 0-1.186-.897c.045-.723-.108-1.712-.34-2.787A34.903 34.903 0 0 0 4.4 8.237zm1.006.908c1.149.945 2.428 1.738 3.676 2.54-.018.91-.018 1.778.084 2.675a3.411 3.411 0 0 0-1.437-.736c-.02 0-.037.012-.057.012-.649-1.063-1.383-2.06-1.837-3.134-.156-.37-.293-.85-.429-1.357zm.407 5.254a2.5 2.5 0 0 1 .44.541.3.3 0 0 0 .257.14.29.29 0 0 0 .17-.053c.215-.156.347-.324.476-.446.047-.045.097-.08.148-.117l.149 2.722c-.213-.014-.435-.035-.637-.035-.264 0-.495.036-.633.172-.169-.134-.497-.164-.89-.164-.102 0-.207.002-.316.004l.836-2.764zM6.97 9.574c1.354.787 2.784 1.414 4.135 2.125a.244.244 0 0 0 .006.003c1.295.631 2.586 1.28 3.894 1.904.984 1.189 2.052 2.295 3.078 3.42l-2.15.362-4.267-4.635a.288.288 0 0 0-.037-.036c-1.499-1.137-3.152-2.082-4.66-3.143zM3.796 0c-.135 0-.273.005-.411.013C2.3.083 1.512.54 1.243 1.157c-.04.093-.146.314-.007.314a2.35 2.35 0 0 1 .341-.028c.418 0 .38.172.47.194.09.282.29.846.303 1.068-.244.86-.153 1.763-.064 2.198.15.732.63 1.584 1.261 2.38a.285.285 0 0 0 0 .166 35.3 35.3 0 0 1 .903 3.336c.251 1.168.393 2.277.317 2.823a.294.294 0 0 0 .221.328c.045.011.084.031.127.045l-.928 3.079a2.847 2.847 0 0 0-.593-.055c-.381 0-.756.05-1.064.05-.125 0-.24-.008-.34-.032a.546.546 0 0 0-.125-.012c-.436 0-1.428.306-1.34.879.15-.128.257-.159.375-.159.11 0 .23.027.405.027h.027c.254-.004.697-.083 1.053-.083.18 0 .338.02.438.08.236-.01.45-.013.649-.013.85 0 1.447.07 2.5.075a89.565 89.565 0 0 0 2.974-.079c.45.003.697.054.922.054h.04c.134-.004.265-.057.48-.057.123 0 .273.017.468.07-.25-.341-.877-.685-1.33-.685a.591.591 0 0 0-.302.071 5.081 5.081 0 0 0-.508-.022c-.22 0-.448.01-.678.02l-.157-2.83c.487.203.857.517 1.281 1.021a.295.295 0 0 0 .513-.246c-.192-1.039-.213-2.019-.202-3.06.54.354 1.072.713 1.576 1.094l4.36 4.738a.29.29 0 0 0 .263.09c.95-.159 1.9-.315 2.849-.474a.294.294 0 0 0 .23-.193.298.298 0 0 0-.06-.297c-.741-.83-1.508-1.631-2.25-2.445 1.269.78 2.875 1.755 3.08 1.755.022 0 .027-.013.012-.04-.094-.163-.9-.755-1.775-1.373.14.058.276.12.415.177l.017.01c.103.035.16.059.27.062a.286.286 0 0 0 .108-.016.317.317 0 0 0 .188-.152.32.32 0 0 0 .023-.238c-.017-.05-.038-.077-.054-.098-.061-.085-.103-.109-.162-.154a4.553 4.553 0 0 0-.205-.149c-.153-.105-.336-.223-.493-.328a4.992 4.992 0 0 1-.328-.233.307.307 0 0 0-.028-.025l-3.892-2.736c-.008-.006-.02-.001-.028-.006-1.333-1.869-2.588-3.825-4.046-5.627C9 4.496 8.145 2.888 6.758 2.352 6.69 1.956 6.54 1.225 6.003.703 5.547.26 4.888.056 4.147.011A5.728 5.728 0 0 0 3.796 0zm38.446 1.652zm-.004.231zm-17.953-.882v1.362c-.203-.093-.402-.18-.59-.273a1.893 1.893 0 0 0-.541-.151c-.155-.024-.316-.04-.46-.07a.534.534 0 0 1-.23-.082c-.017-.015-.03-.034-.03-.105 0-.072.013-.09.03-.105a.534.534 0 0 1 .23-.083c.144-.03.305-.046.46-.07a1.88 1.88 0 0 0 .541-.151c.188-.093.387-.18.59-.272zm0 1.362zm.692.097zM37.531.9c.134 0 .268 0 .403.004.752.018 1.88.199 2.813.431.461.116.874.243 1.168.369.045.02.086.038.124.057l-.11.044a8.19 8.19 0 0 1-1.167.31c-.938.19-2.07.327-2.828.344a13.58 13.58 0 0 1-.403.005c-1.362 0-2.72-.155-4.078-.313-1.449-.169-2.898-.34-4.354-.34l-.221.001c-1.273.016-2.735.158-3.901.648V.903c1.166.49 2.628.633 3.9.648l.222.002c1.456 0 2.905-.172 4.354-.34 1.358-.158 2.716-.314 4.078-.314zM24.711 0l-.167.096c-.387.222-.793.378-1.154.556a1.214 1.214 0 0 1-.342.088c-.166.026-.338.044-.493.076a1.2 1.2 0 0 0-.534.229.795.795 0 0 0-.28.637c0 .277.105.49.28.637a1.2 1.2 0 0 0 .534.229c.155.032.327.05.493.075.125.02.246.042.342.089.36.178.767.333 1.154.555l.166.096.17-.09c1.121-.603 2.684-.752 4.006-.768l.215-.002c1.428 0 2.851.17 4.273.336 1.385.16 2.77.317 4.16.317.139 0 .277-.001.416-.004.799-.02 1.972-.16 2.95-.36.497-.1.945-.216 1.273-.34.182-.067.332-.14.442-.216a.774.774 0 0 0 .179-.166.494.494 0 0 0 .105-.299.502.502 0 0 0-.101-.295.813.813 0 0 0-.172-.17 2.18 2.18 0 0 0-.439-.238 8.833 8.833 0 0 0-1.272-.404C39.932.418 38.755.23 37.95.212a17.667 17.667 0 0 0-.416-.005c-1.39 0-2.775.157-4.16.318C31.952.69 30.529.86 29.1.86h-.214C27.564.843 26.001.693 24.88.09L24.71 0zm16.696 5.833q.425 0 .425.446v3.42h-1.295l.425-3.603q.02-.263.445-.263zm.02-.546q-1.032 0-1.092.587-.425 3.825-.911 3.845l-9.391.344-.972-.04q-1.093-1.154-1.943-1.154l-.627-.04q-1.72.324-2.064.324-.243 0-.243.323 0 .446.688.446 1.181-.189 1.812-.189.115 0 .212.007.344 0 .566.283-.394.489-1.766.489-.106 0-.217-.003-1.558-.04-2.753-.405-.587 0-.587.688.061.627 4.392.648l1.923-.203 10.97-.06 3.076.04V6.279q-.02-.992-1.072-.992zm-8.975 9.145c.343 0 .55.058.657.119.311.199.163.674.113.971h-1.539c-.037-.304-.205-.767.113-.971.107-.06.313-.119.656-.119zm-8.547 1.795v1.069h-1.46v-1.07zm7.583 0v1.069h-7.231v-1.07zm1.758 0v1.069H31.84v-1.07zm7.061 0v1.069h-6.71v-1.07zm1.888 0v1.069h-1.537v-1.07zm-12.832-2.864l-.497.499 1.665 1.66h-8.79V18h21.158v-2.478h-8.525l1.665-1.66-.498-.499-1.539 1.535c-.092-.93-.73-1.144-1.55-1.17-.876.023-1.413.221-1.55 1.17l-1.539-1.535zM47.075 0L44.9 2.573h1.061l1.115-1.33 1.126 1.33 1.094-1.33 1.126 1.33 1.115-1.33 1.126 1.33 1.115-1.33 1.126 1.33 1.094-1.33 1.125 1.33 1.126-1.33 1.094 1.33 1.126-1.33 1.115 1.33h1.061L60.468 0l-1.126 1.244L58.248 0l-1.126 1.244L55.997 0l-1.094 1.244L53.777 0l-1.115 1.244L51.536 0l-1.115 1.244L49.295 0l-1.094 1.244L47.075 0zm-1.511 4.395l-.015.003-.65.143c.093.77.392 1.516.888 2.114.445.542 1.068.973 1.773 1.072.241.022.483.03.726.03.25 0 .5-.008.749-.019.917-.048 1.835-.295 2.61-.798a5.17 5.17 0 0 0 1.208-1.101.176.176 0 0 1 .126-.041c.042 0 .086.006.128.006a.274.274 0 0 0 .052-.004c1.208-.012 2.416-.034 3.624-.034.686 0 1.372.007 2.057.028a.133.133 0 0 1 .028-.004c.063 0-.074.104-.094.14-.498.564-.985 1.138-1.5 1.687l1.045.59c.566-.56.996-1.271 1.69-1.69.655-.335 1.41-.297 2.124-.36l.511-.044V4.706c-3.025.008-6.05.007-9.076.058a12.85 12.85 0 0 1-.34.005c-1.42 0-2.83-.23-4.247-.298a11.08 11.08 0 0 0-.41-.008c-.303 0-.607.014-.907.052-.3.073-.422.387-.566.625a6.44 6.44 0 0 1-.223.364c.028.014.054.02.08.02.11 0 .204-.108.306-.146.243-.138.508-.278.791-.278.039 0 .078.002.117.008 1.126.019 2.243.18 3.362.286-.23.501-.749.776-1.242.962a7.976 7.976 0 0 1-2.764.518c-.511-.039-.92-.413-1.21-.808-.37-.494-.568-1.088-.751-1.671zm3.321 6.185c1.084 0 2.05.501 2.678 1.284h-5.357a3.425 3.425 0 0 1 2.679-1.283zm3.04 1.837c.208.394.34.833.38 1.298h-6.84c.04-.465.172-.904.379-1.298zm.384 1.851c-.034.465-.16.903-.36 1.298H45.82a3.415 3.415 0 0 1-.36-1.298zm-.711 1.851a3.426 3.426 0 0 1-2.713 1.328 3.426 3.426 0 0 1-2.713-1.328zm-2.713-6.091a3.992 3.992 0 0 0-3.986 3.986A3.991 3.991 0 0 0 48.885 18a3.992 3.992 0 0 0 3.986-3.986 3.992 3.992 0 0 0-3.986-3.986zm9.783 4.486c.979 0 2.203.502 2.795 1.095.519.518.586 1.205.605 1.844h-6.77c.019-.639.086-1.326.605-1.844.592-.593 1.787-1.095 2.765-1.095zm0-.548c-1.16 0-2.408.536-3.14 1.268-.75.75-.835 1.739-.835 2.478V18h7.951v-.288c0-.74-.056-1.727-.806-2.478-.732-.732-2.01-1.268-3.17-1.268zm11.98-12.814l-.098.026q-.068-.013-.127-.013-.058 0-.107.013-.098.032-.117.071-.02.04-.065.072l.032.039.052-.026q.041.018.087.018.116 0 .265-.116l.097-.013-.02-.071zm.475-.931q.351 0 .494.358.156.403.006.69-.125.229-.283.229-.04 0-.081-.015-.11-.039-.065-.11.091-.085.026-.221.065-.209.013-.306-.052-.143-.16-.143-.04 0-.087.02-.085.051-.11.11-.219-.05-.393-.05-.215 0-.362.076.032-.26.247-.416.215-.15.65-.215.055-.007.105-.007zm-3.305 3.278q.807.508 1.373.69l.28.071q-.28.11-1.32.456-.111-.098-.3-.11l-.182-1.016q.084-.026.15-.09zM71.062.822q.055 0 .073.07.04.11-.013.273.04.123-.032.13l-.023.002q-.057 0-.068-.06-.033.07.201.363.228.3.677.735.449.442.494 2.465l-.904.455q-.182-1.203-.845-2.061-.163-.182-.085-.345.085-.156.56-.41.233-.097.064-.234-.162-.136-.208-.293-.11 0-.234.098-.204.102-.288.102-.018 0-.03-.004-.072-.026-.085-.124l.097-.098q.046-.039 0-.071l-.195.045q.033-.169-.084-.182-.041.027-.068.027-.032 0-.043-.04-.026-.084.046-.247.039-.156.123-.24.078-.073.2-.073l.021.001.09.002q.09 0 .177-.009l-.013-.071q-.049.006-.106.006-.057 0-.122-.006-.03-.003-.058-.003-.19 0-.286.153-.013-.098 0-.137.164-.115.394-.115.16 0 .354.056v.085q.029.006.053.006.025 0 .044-.006 0-.208.072-.234.028-.011.05-.011zm1.459 4.27q.377.664.37 1.178-.006.514-.104 1.652l-1.652-.013.378-2.374 1.008-.442zM71.179 0h-.024q-.449.013-.826.234-.416.222-.403.865.032.176-.02.345-.045.163-.032.332.027.07.089.07.024 0 .054-.012.03-.013.048-.013.044 0 .017.078-.026.013-.013.046.008.017.029.017.01 0 .023-.004-.037.091.018.091h.018q.049 0 .055.059.006.071.078.15.028.027.085.027.089 0 .247-.067l.234-.123q.02.058.084.136-.553.17-.806.625-.37.448-.605.93-.56-.163-1.652-.625-.098-.136-.319-.175l-.28-1.503q-.084-.468.222-.832L67.292.5q-.404.345-.274 1.054l.248 1.43-.222.014q-.026.11.111.162-.026.43.221.449l.182.995q-.143.026-.28.046-.012.123.157.162-.057.417.23.417h.017l.026.253.293-.058-.059-.267q.072-.04.143-.065 1.398-.17 1.73-.501.449-.696.657-1.08.455.371.748 1.802h-.035q-.308 0-.277.221.025.183.174.183.041 0 .092-.014l-.442 2.673q-.39 1.737-.566 2.153-.097.332-.325.397-.234.058-.748.351-.286.059-.319.156-.026.098.137.117.034.004.074.004.148 0 .388-.056.122-.026.267-.026.218 0 .487.059.062.012.114.012.332 0 .27-.5-.026-.364.423-1.034t.494-1.587l.208-.208.664-.013.013.318q.182 1.25.195 1.646.084.644-.156.741-.248.091-.742.384-.293.046-.332.143-.032.098.137.124.04.006.09.006.149 0 .378-.058.12-.028.277-.028.241 0 .569.067.076.015.135.015.366 0 .086-.588.02-.611.137-1.268t-.137-1.327l.13-.175.078-1.795q.02-.774-.54-1.73-.026-.352-.084-1.236-.052-.891-.482-1.288-.429-.403-.474-.488.24-.169.318-.442.085-.28-.104-.76Q71.615 0 71.18 0zM67.45 15.54c.69 0 1.553.355 1.97.773.366.366.414.85.428 1.3H65.07c.014-.45.062-.934.427-1.3.418-.418 1.261-.772 1.951-.772zm0-.385c-.82 0-1.7.378-2.216.894-.53.53-.59 1.226-.59 1.748V18h5.61v-.203c0-.522-.04-1.219-.569-1.748-.516-.516-1.417-.894-2.236-.894zm5.93-2.306c-.071 0-.143.006-.215.013-1.034.11-1.769 1.158-1.606 2.172.072.755.54 1.177 1.054 1.594 1.528.936 1.099.592 2.64 1.372l.247-.462c-1.834-.858-2.055-.995-2.627-1.372-.469-.377-.84-.794-.807-1.424-.013-.436.247-.885.54-1.1.234-.175.533-.28.826-.28.221 0 .43.053.611.183.462.228.716.982.378 1.457a.897.897 0 0 1-.716.383.662.662 0 0 1-.39-.123c-.234-.13-.41-.585-.17-.84-.11-.116-.266-.26-.383-.26-.078 0-.136.06-.175.196-.26.624.156 1.333.78 1.502.11.033.221.052.332.052.715 0 1.379-.598 1.379-1.34.065-.865-.625-1.658-1.49-1.71a2.102 2.102 0 0 0-.208-.013z"/></svg>