<svg xmlns="http://www.w3.org/2000/svg" width="69.763" height="18"><path d="M11.386 8.203c-.51.04-.793.296-.847.767.067.51.35.78.847.806.498-.026.76-.295.787-.806-.04-.47-.303-.726-.787-.767zm.06-1.694c.364 0 .7.068 1.01.202a2.659 2.659 0 0 1 1.371 1.361c.134.303.201.622.201.958 0 .35-.067.676-.202.978a2.567 2.567 0 0 1-2.38 1.523c-.362 0-.702-.064-1.018-.192a2.426 2.426 0 0 1-.816-.534 2.621 2.621 0 0 1-.545-.797 2.38 2.38 0 0 1-.202-.978c0-.336.068-.655.202-.958.134-.302.316-.571.545-.806.228-.236.5-.42.816-.555a2.574 2.574 0 0 1 1.019-.202zm-.04-.685c-.443 0-.86.084-1.25.252-.39.168-.726.396-1.008.685a3.36 3.36 0 0 0-.676 1.009 3.053 3.053 0 0 0-.252 1.24c0 .444.084.857.252 1.24.168.384.393.716.676.999a3.2 3.2 0 0 0 2.258.927c.444 0 .857-.084 1.24-.252a3.36 3.36 0 0 0 1.009-.675c.289-.283.518-.615.686-.999.168-.383.252-.796.252-1.24 0-.444-.084-.857-.252-1.24a3.268 3.268 0 0 0-1.694-1.694 3.053 3.053 0 0 0-1.24-.252zm8.74-3.574c-.09 0-.095.283-.224.701-.146.476-.254 1.472-.591 1.665a.298.298 0 0 1-.153.039c-.1 0-.202-.038-.313-.038a.409.409 0 0 0-.127.02c-.158.05-.242.297-.408.326-.692.12-1.637.075-2.166.123-.34.03.567.698 1.473.698h.039c.188-.005.387-.013.584-.013.33 0 .658.024.928.135.264.109.575.425.572.735l-.11 9.109h1.019l-.052-10.289c-.002-.276.795-.464.9-.702.181-.415.088-2.247-.205-2.493a.016.016 0 0 0-.01-.004c-.132 0-.378 1.92-.766 2.333-.04.043-.118.062-.185.062-.073 0-.133-.022-.121-.062.246-.838.345-2.061-.041-2.329a.077.077 0 0 0-.043-.016zm5.046.585c.53 0 .794.21.794.629 0 .42-.26.81-.78 1.169-.12.04-.134.45-.044 1.228l.704 5.005c-.72.21-1.458.589-2.218 1.138V4.348c.26-1.009.775-1.513 1.544-1.513zm-.068-.585c-.583 0-1.028.162-1.333.487-.315.335-.537.847-.667 1.536L23.11 15.75h.794c-.06-1.718.057-2.438.421-2.947.365-.51 1.286-1.064 2.335-1.234-.659-4.125-1.103-6.437-.973-6.577.55-.37.824-.864.824-1.483 0-.84-.434-1.259-1.302-1.259a2.744 2.744 0 0 0-.084 0zm9.204.293c.023 0 .048.003.075.01.143.04.184.159.123.358l-1.041 2.696h-.508l1.107-2.852c.056-.141.138-.212.244-.212zm.86.217c.03 0 .06.005.094.015.165.048.195.171.09.37l-.95 2.462h-.508l1.003-2.617c.063-.153.153-.23.27-.23zm-2.571 3.976c-.081 0-.174.014-.278.043v.13a.933.933 0 0 1 .28-.05c.072 0 .137.013.195.037.126.052.293.087.502.104l-.066-.065a27.78 27.78 0 0 1-.455-.17.494.494 0 0 0-.178-.029zm.1.29l.234.078a1.775 1.775 0 0 1-.234.078c.052-.043.052-.095 0-.156zm-.196 0c-.026.052-.017.109.026.17a.807.807 0 0 1-.156-.053c.009-.043.052-.082.13-.117zm.065-.091c-.112 0-.19.043-.234.13l-.117.065-.013.065.117.026c.064.04.14.059.23.059.13 0 .288-.041.473-.124h.287v-.09h-.3c-.182-.088-.33-.131-.443-.131zm2.357-1.08l-.885 1.627c-.058.08-.112.121-.162.121a.109.109 0 0 1-.073-.03l-.286-.182c.017-.061.087-.152.208-.274.122-.121.148-.267.078-.436-.039-.096-.114-.144-.226-.144a.834.834 0 0 0-.32.085c-.278-.166-.523-.25-.735-.25l-.06.003a2.686 2.686 0 0 0-.091-.52zm-2.497.74c.222 0 .512.097.87.288.078-.087.156-.13.234-.13.078 0 .12.039.124.117.004.078-.066.18-.209.306s-.21.232-.202.319l.04.013a.64.64 0 0 1-.26.449c-.148.109-.348.167-.6.176a.936.936 0 0 1-.049.001c-.13 0-.188-.033-.172-.099a.206.206 0 0 0-.04-.189l.075.002c.243 0 .308-.042.193-.125-.086-.062-.154-.093-.205-.093a.093.093 0 0 0-.062.021c.034-.13-.035-.2-.209-.208.191-.321.339-.604.443-.847h.029zm.935.965l.377.234c.026.4.109.677.248.834a1.596 1.596 0 0 0-.21-.015c-.05 0-.097.003-.142.008a.546.546 0 0 0-.3.15 2.489 2.489 0 0 0-.325-.664c.226-.165.343-.347.352-.547zm-3.892 2.77c.19 0 .367.092.532.277-.312.008-.52.108-.625.3-.087-.218-.195-.34-.325-.365-.13-.026-.061-.085.208-.176a.652.652 0 0 1 .21-.036zm4.4-1.416c.338 0 .55.191.637.573.122.53.14 1.354.053 2.474-.105 1.285-.226 2.348-.365 3.19l.156.234h-4.323l.899-.364c-.26-1.276-.586-2.212-.977-2.806-.39-.595-.456-.979-.195-1.152a.443.443 0 0 1 .247-.083c.175 0 .35.127.521.382l1.758 2.5.312-.026c.191-1.944.395-3.394.612-4.349.105-.382.326-.573.664-.573zm.375-6.664c-.25 0-.419.147-.506.44l-1.12 2.917h-.56c.105.347.157.655.157.924a2.25 2.25 0 0 1-.345.73c-.164.234-.13.351.098.351h.025c-.06.087-.052.139.026.156-.069.035-.078.072-.026.11.053.04.074.125.066.255-.026.382-.128.692-.306.93-.147.197-.28.295-.4.295a.216.216 0 0 1-.076-.014.459.459 0 0 0-.154-.035c-.051 0-.087.018-.106.054-.035.065.01.133.137.202a.324.324 0 0 0 .159.037c.11 0 .248-.04.414-.122.256-.125.488-.514.696-1.165h.365c.113.104.2.256.26.456-.312 1.007-.568 2.482-.768 4.427l-1.758-2.474a1.217 1.217 0 0 0-.364-.365.758.758 0 0 0-.616-.308.995.995 0 0 0-.205.022v-2.8c0-.381-.134-.577-.403-.585a3.21 3.21 0 0 1 .638-.704c.074-.132.072-.198-.006-.198a.66.66 0 0 0-.242.081 8.5 8.5 0 0 0-.573.495c-.217.226-.34.393-.37.501l-.242.853c.005.14.028.21.067.21.032 0 .075-.043.129-.132.034-.113.082-.256.143-.43a.627.627 0 0 1 .351-.377c.148 0 .222.095.222.286v2.852c-.504.27-.645.451-.423.547.205.088.371.244.498.467.063.43.24.89.53 1.382.308.52.588 1.285.84 2.292l-.99.43.066.507h5.56l-.573-.677c.277-2.7.375-4.425.293-5.176-.083-.75-.272-1.165-.567-1.243-.208-.209-.29-.434-.247-.677l.325-.586c.512.373.768.876.768 1.51v6.849h.287V8.901c0-.755-.308-1.345-.925-1.77l.847-1.524h-.6l.925-2.396c.13-.33.072-.543-.175-.638a.927.927 0 0 0-.333-.069.618.618 0 0 0-.312.082c-.06-.191-.237-.302-.527-.332a.705.705 0 0 0-.074-.004zm2.988 8.37v1.316h2.907V10.62h-.57c-.166.293-.356.483-.57.57a.818.818 0 0 1-.635 0c-.208-.087-.396-.277-.562-.57zm1.763-4.794V8.01h-.66v2.67h.712V9.006h.826v-2.29h1.02c.182 1.424.677 2.482 1.483 3.174.807.692 1.804 1.093 2.99 1.204 1.187.11 1.966.267 2.338.469.371.201.557.405.557.61h1.448c-.222-.53-.518-.933-.89-1.21-.372-.276-1.062-.45-2.07-.521-1.009-.072-1.816-.204-2.42-.398a3.858 3.858 0 0 1-1.62-1.032c-.475-.494-.839-1.556-1.092-3.186zM60.808 2.84l.18.075-5.404 12.034c-.091-.06-.605-.312-.773-.507 0-.13.092-.219.36-.576.281-.375.58-.766.24-1.269-.157-.232-.373-.401-.654-.401-.174 0-.374.065-.6.221-.47-.28-.925-.42-1.666-.42-.13-1.141-.275-1.861-.435-2.762h5.36l3.392-6.395zm-.011-.59a1 1 0 0 0-.094.004L57.265 8.38c-.12.2-.245.3-.375.3a.349.349 0 0 1-.045.003c-.505 0-1.936-.922-4.294-2.765-.54-.56-.82-1.12-.84-1.681-.02-.56.147-.88.502-.961.108-.024.204-.036.29-.036.2 0 .344.064.431.194.125.185.118.37-.023.555-.07.093-.133.139-.19.139-.058 0-.11-.046-.155-.139-.09-.185-.185-.278-.285-.278-.19.07-.235.236-.135.496.093.241.263.362.512.362.019 0 .038 0 .058-.002.28-.02.476-.115.586-.285.11-.17.165-.37.165-.6a.88.88 0 0 0-.225-.601c-.15-.17-.368-.278-.653-.323a1.027 1.027 0 0 0-.16-.013c-.232 0-.464.08-.696.238-.285.195-.45.516-.495.961-.045.445.077.936.367 1.471.29.536.814 1.074 1.57 1.614.755.54 1.473 1.056 2.153 1.546.016.064-.019.096-.105.096a.533.533 0 0 1-.075-.006h-3.843c.32 1.832.516 3.128.586 3.888.09-.006.179-.01.268-.01.701 0 1.402.209 2.104.626.15-.2.312-.3.487-.3.176 0 .266.095.27.285-.305.488-.753.961-.908 1.516l1.682 1.081 5.72-13.105c-.182-.263-.421-.395-.717-.395z"/><path d="M8.22.375c-9.625 0-9.625 17.25 0 17.25m0-17.25h53.293M8.22 17.625h53.293M69.2.375v17.25M61.513.375c9.625 0 9.625 17.25 0 17.25" fill="none" stroke="#000"/></svg>