<svg xmlns="http://www.w3.org/2000/svg" width="154.371" height="18"><path d="M8.22.375c-9.625 0-9.625 17.25 0 17.25m0 0" fill="none" stroke="#000"/><path d="M14.442 7.938c-.682.054-1.058.394-1.13 1.022.09.68.466 1.04 1.13 1.075.663-.036 1.012-.394 1.048-1.075-.053-.628-.403-.968-1.048-1.022zm.08-2.259c.484 0 .932.09 1.345.27a3.545 3.545 0 0 1 1.828 1.815c.18.402.27.828.27 1.276 0 .466-.09.901-.27 1.304a3.422 3.422 0 0 1-3.173 2.03c-.484 0-.936-.085-1.358-.255a3.235 3.235 0 0 1-1.089-.712 3.495 3.495 0 0 1-.726-1.063 3.174 3.174 0 0 1-.269-1.304c0-.448.09-.874.27-1.277a3.67 3.67 0 0 1 .725-1.075 3.31 3.31 0 0 1 1.09-.74 3.41 3.41 0 0 1 1.357-.269zm-.054-.914a4.17 4.17 0 0 0-1.667.336c-.52.224-.968.529-1.344.914a4.48 4.48 0 0 0-.9 1.345 4.071 4.071 0 0 0-.337 1.653c0 .592.112 1.143.336 1.654.224.511.524.955.9 1.331a4.267 4.267 0 0 0 3.012 1.237c.592 0 1.143-.112 1.654-.336a4.48 4.48 0 0 0 1.345-.9 4.21 4.21 0 0 0 .914-1.332 4.07 4.07 0 0 0 .336-1.654c0-.591-.112-1.142-.336-1.653a4.358 4.358 0 0 0-2.259-2.26 4.071 4.071 0 0 0-1.654-.336zM26.122 0c-.12 0-.128.377-.3.935-.194.635-.337 1.962-.788 2.22a.397.397 0 0 1-.204.052c-.134 0-.269-.05-.417-.05a.545.545 0 0 0-.169.025c-.21.068-.322.397-.545.436-.921.16-2.182.1-2.887.163-.452.04.756.93 1.965.93h.05c.252-.005.517-.017.78-.017.44 0 .877.032 1.237.18.352.146.767.567.762.981L25.46 18h1.358l-.07-13.719c0-.368 1.062-.618 1.2-.936.243-.553.12-2.995-.272-3.323a.021.021 0 0 0-.013-.006c-.176 0-.505 2.56-1.022 3.111-.052.056-.156.082-.247.082-.096 0-.177-.03-.161-.082.328-1.118.46-2.749-.055-3.105A.102.102 0 0 0 26.122 0zm14.492.92l.133.002h.068q2.49 0 4.749 2.14l-1.398 1.13q-1.308-1.249-3.419-1.249-2.111 0-3.42 1.25l-1.397-1.13Q38.16.92 40.614.92zm.133 2.886q2.349.03 3.865 2.467h-7.76q1.19-2.438 3.895-2.467zm0-3.806q-3.687.149-6.214 3.033l2.111 1.784q-.892 1.189-1.1 2.23H45.92q-.208-1.041-1.1-2.2l1.963-1.785Q44.433.15 40.747 0zm9.36 12.17q.442 0 .442.464v3.556h-1.347l.442-3.746q.021-.273.463-.273zm.021-.568q-1.073 0-1.136.61-.442 3.978-.947 4l-9.765.357-1.01-.042q-1.137-1.2-2.02-1.2l-.653-.042q-1.789.337-2.147.337-.252 0-.252.337 0 .463.715.463 1.229-.196 1.885-.196.12 0 .22.006.357 0 .589.295-.41.508-1.837.508-.11 0-.225-.003-1.62-.042-2.863-.421-.61 0-.61.716.063.652 4.567.673l2-.21 11.406-.064 3.198.043v-5.135q-.02-1.032-1.115-1.032zM62.504 7.92c.296 0 .475.05.567.103.27.171.141.583.098.84h-1.33c-.032-.263-.177-.664.098-.84.092-.053.27-.103.567-.103zm-7.39 1.551v.924h-1.262v-.924zm6.556 0v.924h-6.252v-.924zm1.52 0v.924h-1.216v-.924zm6.105 0v.924h-5.8v-.924zm1.632 0v.924h-1.329v-.924zM59.833 6.996l-.43.43 1.44 1.436h-7.6v2.142h18.292V8.862h-7.37l1.44-1.435-.43-.431-1.331 1.327c-.08-.805-.631-.99-1.34-1.012-.757.02-1.222.191-1.34 1.012l-1.33-1.327zm14.761 4.64v1.633h3.604v-1.633h-.706c-.206.363-.441.598-.706.706-.132.054-.264.081-.395.081s-.262-.027-.392-.08c-.26-.109-.493-.344-.699-.707zm2.186-5.943V8.4h-.818v3.31h.883V9.635h1.024V6.796h1.265c.226 1.765.839 3.077 1.84 3.935 1 .859 2.235 1.356 3.706 1.494 1.472.137 2.438.33 2.899.58.46.25.691.503.691.758h1.795c-.275-.657-.642-1.157-1.103-1.5-.461-.344-1.317-.56-2.568-.648-1.25-.088-2.25-.252-3-.492-.751-.24-1.42-.667-2.009-1.28-.588-.613-1.04-1.93-1.353-3.95zm-1.19 9.486l-2.055 2.43h1.003l1.053-1.256 1.063 1.256 1.032-1.256 1.063 1.256 1.053-1.256 1.063 1.256 1.053-1.256 1.063 1.256 1.033-1.256 1.063 1.256 1.063-1.256 1.033 1.256 1.063-1.256 1.053 1.256h1.002l-2.055-2.43-1.063 1.174-1.033-1.174-1.063 1.174-1.063-1.174-1.033 1.174-1.063-1.174-1.053 1.174-1.063-1.174-1.053 1.174-1.063-1.174-1.032 1.174-1.063-1.174zM86.442 2.93c-.545.043-.846.315-.903.817.071.545.372.832.903.86.53-.028.81-.315.839-.86-.043-.502-.323-.774-.839-.817zm.065-1.807c.387 0 .745.071 1.075.215a2.836 2.836 0 0 1 1.463 1.452c.143.322.215.663.215 1.022 0 .372-.072.72-.215 1.043a2.738 2.738 0 0 1-2.538 1.624 2.87 2.87 0 0 1-1.087-.204 2.588 2.588 0 0 1-.871-.57 2.796 2.796 0 0 1-.58-.85 2.54 2.54 0 0 1-.216-1.043c0-.359.072-.7.215-1.022.144-.323.337-.61.581-.86.244-.252.534-.449.871-.592.337-.144.7-.215 1.087-.215zM86.464.39c-.474 0-.918.09-1.334.27a3.306 3.306 0 0 0-1.076.73 3.585 3.585 0 0 0-.72 1.076c-.18.409-.27.85-.27 1.323s.09.914.27 1.323c.179.409.42.764.72 1.065a3.414 3.414 0 0 0 2.41.99c.473 0 .914-.09 1.322-.27.41-.179.768-.42 1.076-.72.308-.301.552-.656.731-1.065.18-.409.27-.85.27-1.323s-.09-.914-.27-1.323A3.486 3.486 0 0 0 87.786.66a3.257 3.257 0 0 0-1.322-.269zm7.369 1.687l3.649 3.209q-.77 1.187-2.044 2.395-1.209-2.857-1.605-5.604zm-.97-1.582q-.705 0-.546.967.681.33.571.747-.11.418.088 1.385.198.967 1.583 4.593-.421 1.431.488 1.431.04 0 .083-.003 2.462 4.528 5.429 7.89h.527l-.132-1.472q-2.373-2.22-5.077-7.187.792-1.67 2.22-2.923l4.374 3.934q.33.148.555.148.61 0 .434-1.093l-4.396-3.758q.018-.999-.833-.999-.197 0-.442.054L93.833.759q-.603-.264-.97-.264zm14.711.629q2.015.293 2.106 1.842v11.177q-.942-1.124-3.381-1.58l1.275-11.44zM107.007 0L105.5 13.363q3.36.385 4.18 2.4V18h1.003V2.966q0-2.51-3.675-2.966zm23.519 2.373v2.341h-17.243V2.373zM113.346 0v1.772h-.664v3.543h18.445V1.772h-.538V0h-.6v1.772H128.5V0h-.601v1.772h-1.487V0h-.601v1.772h-1.455V0h-.633v1.772h-1.456V0h-.6v1.772h-1.488V0h-.6v1.772h-1.488V0h-.6v1.772h-1.456V0h-.601v1.772h-1.487V0zm1.599 15.325L112.682 18h1.103l1.16-1.382 1.17 1.382 1.137-1.382 1.17 1.382 1.159-1.382L120.75 18l1.16-1.382L123.08 18l1.136-1.382 1.17 1.382 1.17-1.382L127.695 18l1.17-1.382 1.16 1.382h1.103l-2.262-2.675-1.17 1.293-1.137-1.293-1.17 1.293-1.17-1.293-1.138 1.293-1.17-1.293-1.159 1.293-1.17-1.293-1.16 1.293-1.17-1.293-1.136 1.293-1.17-1.293zM140.676.735c.626 0 1.299.126 1.722.626.679.8.823 1.892.875 2.903.095 1.839.123 3.68.105 5.522h-.451V5.258c-1.185-.04-1.68-.912-1.785-1.593.143-.31.524-.57.65-.949.134-.4-.04-.993-.515-.993h-.025c-.214.01-.396.085-.587.085a.623.623 0 0 1-.336-.097c-.407-.248-.953-.293-1.424-.397.388-.567.984-.558 1.62-.577l.15-.002zm-2.109 1.109c.579.102 1.19.213 1.646.613.085.115.208.19.322.19.1 0 .195-.059.25-.203.077-.108.155-.151.225-.151.214 0 .356.405.187.632-.13.326-.527.519-.668.785.136.532.374 1.043.776 1.428.311.298.687.566 1.127.6-.015 1.903-.005 3.806-.046 5.708a35.537 35.537 0 0 1-.58 5.237c-.045.247.182.4.31.575h-7.73c.561-.213 1.126-.417 1.685-.635.301-.158.162-.526.08-.774-.568-2.006-1.368-3.939-2.28-5.811.138-.183.366-.268.593-.268.13 0 .259.027.372.08.524.622 1.022 1.269 1.536 1.9.703.872 1.398 1.75 2.106 2.616a.336.336 0 0 0 .238.099c.215 0 .425-.2.394-.44.373-2.515.809-5.02 1.098-7.546a2.616 2.616 0 0 0-.719-2.163.306.306 0 0 0-.214-.081c-.245 0-.532.224-.735.224-.084 0-.153-.038-.2-.144-.256-.26.58-.12.194-.349a.414.414 0 0 1-.068.006c-.35 0-.087-.58-.482-.675.065-.182.18-.313.328-.313a.36.36 0 0 1 .22.088c.087.022.176.031.263.031.305 0 .607-.113.884-.232-.317-.316-.43-.384-.642-.384-.22 0-.532.068-.622.14.146-.234.192-.51.152-.783zM140.64 0c-.056 0-.111 0-.166.002-.854.024-1.803.252-2.312.996-.225.326-.395.72-.319 1.123-.204.472-.648.834-.718 1.362-.067.427.578.339.42.752.01.31.354.616.24.815-.199.845-.433 1.739-1.033 2.396-.102.177-.232.228-.374.228-.191 0-.404-.093-.599-.096-.399.234.112.608.418.608.012 0 .024 0 .036-.002.03.003.06.004.09.004.623 0 1.094-.529 1.381-1.035.369-.603.639-1.28.86-1.938.167-.066.335-.129.476-.129.164 0 .292.087.338.354.27.716.013 1.476-.06 2.204-.272 1.857-.544 3.714-.827 5.57-1.03-1.281-2.057-2.566-3.09-3.845-.238-.24-.566-.334-.898-.334-.218 0-.438.04-.636.106-.416.172-.86.606-.71 1.096.91 1.884 1.727 3.82 2.294 5.837-.694.264-1.394.514-2.084.788-.278.163-.143.488-.084.73a.43.43 0 0 0 .493.401h9.133c.127-.075.44-.136.483-.169-.172-.142-.1-.391-.284-.532l-.55-.65c.361-1.996.56-4.022.58-6.05l.225.002c.381 0 .836-.047.748-.544.022-2.122.02-4.25-.14-6.366-.084-1.109-.399-2.302-1.283-3.053C142.122.14 141.37 0 140.64 0z"/><path d="M153.808.375v17.25M146.12.375c9.626 0 9.626 17.25 0 17.25" fill="none" stroke="#000"/></svg>