<svg xmlns="http://www.w3.org/2000/svg" width="223.989" height="18"><path d="M6.174.386c.221 0 .566.052.757.104.832.223-.005.968-.54.968a.513.513 0 0 1-.073-.005c-.353.074.06.199.502.199.272 0 .555-.047.681-.18.072-.077.131-.108.182-.108.185 0 .258.417.406.623.74.245 1.203.913 1.682 1.486 1.377 1.65 2.617 3.405 3.917 5.115-.357-.105-.743-.31-1.097-.48-1.62-.783-3.347-1.401-4.814-2.455-.732-.525-1.712-1.134-1.793-2.056-.061-.702 1.227-1.337 1.134-1.717-.011-.044-.043-.064-.09-.064-.274 0-1.077.688-1.288 1.09-.081.155-.14.217-.182.217-.146 0-.077-.757.014-.93.31-.589-.628-1.325-.1-1.664-.016.088.002.337.312.337.325 0 .305-.4.205-.453a.435.435 0 0 1 .185-.027zm.616 5.477c.254.9.626 1.766 1.065 2.59.217.405 1.13 1.049.485 1.377a.194.194 0 0 1-.052.007c-.257 0-.519-.495-.855-.517a12.843 12.843 0 0 0-.265-1.873c-.103-.505-.36-1.176-.378-1.584zm.705.597c.795.576 1.63 1.093 2.472 1.6.222.497.034 1.222.149 1.805-.538-.363-1.112-.378-1.457-1.066-.385-.766-1.019-1.494-1.164-2.34zm.226 3.6c.134.235.335.383.538.383.16 0 .32-.091.45-.304.186.205.23.926.23 1.325.002.411-.214.446-.465.446l-.155-.002a.93.93 0 0 0-.278.032.453.453 0 0 1-.138.02c-.197 0-.423-.095-.636-.095-.02 0-.04 0-.06.002.001-.52.36-1.225.514-1.808zm1.603-2.968c1.69.766 3.36 1.59 5.054 2.351.648.679 1.239 1.448 1.96 2.049.538.45-.155.358-.474.418-.244.046-.492.08-.738.116-.87-.87-1.745-1.738-2.58-2.641-.909-.982-2.145-1.538-3.222-2.293zm-.512 5.693c1.105 0 2.211.013 3.316.042.556.014 1.197-.023 1.695.164-.658.042-2.304.058-4.042.058a201.337 201.337 0 0 1-5.037-.05c-.51 0-.097-.173.188-.173a.55.55 0 0 1 .076.005c1.267-.03 2.535-.046 3.804-.046zm-4.862.743c.75.01 1.5.02 2.25.045.495.017.989.023 1.483.023 1.398 0 2.796-.05 4.192-.05.188 0 .375.001.562.003-1.161.634-2.421 1.17-3.766 1.214-.152.005-.3.008-.445.008-.76 0-1.443-.08-2.196-.351-.656-.236-1.506-.523-2.08-.892zm6.649 1.558a.144.144 0 0 0-.078.02c-.256.16.368 1.331.895 1.613.04.021.078.03.115.03.192 0 .33-.259.247-.445-.214-.48-.87-1.218-1.18-1.218zm-4.848.055c-.042 0-.105.026-.194.086-.432.29-1.443 1.067-.823 1.496a.22.22 0 0 0 .129.042c.224 0 .442-.354.556-.556.12-.21.574-1.068.332-1.068zm4.06.177c-.274 0 .026 1.476.502 1.79.031.022.07.031.109.031.106 0 .222-.069.242-.173.123-.637-.473-1.61-.846-1.647a.08.08 0 0 0-.008 0zm-3.278.017c-.05 0-.13.062-.244.216-.302.408-1.043 1.256-.436 1.571.04.021.078.03.114.03.254 0 .4-.478.49-.72.081-.222.268-1.097.076-1.097zm2.271.162c-.023 0-.043.012-.06.037-.245.368-.164 1.491.42 1.817a.196.196 0 0 0 .097.026c.172 0 .306-.25.276-.423-.07-.41-.517-1.457-.733-1.457zm-1.329-.011a.1.1 0 0 0-.058.023c-.391.291-1.017 1.466-.379 1.845.035.02.068.03.101.03.191 0 .35-.31.375-.504.04-.334.162-1.394-.039-1.394zm.655-.018a.08.08 0 0 0-.038.01c-.324.174-.62 1.573-.014 1.945a.175.175 0 0 0 .092.028c.164 0 .306-.252.306-.421-.002-.46-.123-1.562-.346-1.562zM6.352 0c-.205 0-.408.02-.598.054-.567.104-1.44.31-1.43.996a.711.711 0 0 1 .192-.028c.55 0 .663.789.553 1.27-.225.98.26 1.965.898 2.707.425 1.269.96 2.595.954 3.928-.003.556.408.592.256 1.158-.136.51-.373 1.566-.883 1.69a2.18 2.18 0 0 1-.182.007c-.323 0-.663-.056-.984-.056-.254 0-.497.036-.71.162-.444.264-.778.46-1.31.46l-.071-.001-.078-.002c-.895 0-1.953.472-2.118 1.411-.244 1.391-.044 2.827-.036 4.233.205.005.412.011.618.011.163 0 .325-.004.487-.016-.076-.844-.133-1.694-.079-2.539.039-.601-.113-1.44.465-1.781a.738.738 0 0 1 .383-.107c.506 0 1.005.499 1.472.712 1.306.596 2.697 1.036 4.147 1.036h.1c1.756-.025 3.375-.751 4.878-1.576a.616.616 0 0 1 .41-.148c.28 0 .562.17.622.463.262 1.292.154 2.632.067 3.94.157.012.315.015.473.015.156 0 .313-.003.47-.003.052 0 .105 0 .158.002.008-.911.089-1.823.047-2.733-.033-.721.107-1.55-.417-2.143-.68-.771-1.763-.76-2.704-.825a1.712 1.712 0 0 0-.117-.004c-.125 0-.257.01-.386.01a.973.973 0 0 1-.439-.08c-.294-.302-.66-.36-1.04-.36-.228 0-.462.021-.689.021a2.75 2.75 0 0 1-.22-.008c-.043-.588-.075-1.177-.107-1.766a.155.155 0 0 1 .111-.045c.294 0 .78.686 1.034.686.076 0 .13-.06.154-.217.094-.642-.155-1.343-.146-2.018h.016c.285 0 .766.368 1.053.617.898.779 1.67 1.717 2.513 2.566.334.38.681.803 1.163.803.13 0 .269-.031.42-.101.48-.223 1.5.065 1.609-.544-.462-.54-.994-1.018-1.47-1.547.58.274 1.144.678 1.747.941a.77.77 0 0 0 .24.078c.18 0-.489-.521-.668-.602-.665-.3.624-.188.098-.605-1.155-.915-2.466-1.648-3.699-2.473-.79-.998-1.506-2.067-2.3-3.068-.66-.774-1.221-1.636-1.941-2.356C8.895 1.783 8.245 1.66 8.2.937 7.858.252 7.09 0 6.352 0zm18.931 0c-.12 0-.128.377-.3.935-.194.635-.337 1.962-.788 2.22a.397.397 0 0 1-.204.052c-.133 0-.269-.05-.417-.05a.545.545 0 0 0-.169.025c-.21.068-.322.397-.544.436-.922.16-2.183.1-2.888.163-.452.04.756.93 1.965.93h.05c.252-.005.517-.017.78-.017.44 0 .877.032 1.237.18.352.146.767.567.762.981L24.621 18h1.358L25.91 4.281c-.002-.368 1.06-.618 1.2-.936.242-.553.118-2.995-.272-3.323a.021.021 0 0 0-.014-.006c-.176 0-.505 2.56-1.022 3.111-.052.056-.156.082-.246.082-.097 0-.178-.03-.162-.082.328-1.118.46-2.749-.055-3.105A.102.102 0 0 0 25.283 0zm5.384 7.458v1.656c-.565 0-.848-.283-.848-.848 0-.539.283-.808.848-.808zM32.762 0c-.463 0-.855.116-1.176.35-.613.443-.919 1.09-.919 1.938v4.584c-.942 0-1.42.465-1.434 1.394 0 .942.478 1.413 1.434 1.413V18h.746V2.732c0-1.023.2-1.68.596-1.969.206-.15.476-.225.839-.225.337 0 .753.065 1.273.195a.65.65 0 0 0 .212.043c.11 0 .188-.048.232-.144.013-.162-.108-.276-.364-.343C33.663.096 33.183 0 32.762 0zm10.181.601c1.074 0 2.418.552 3.069 1.202.57.57.643 1.324.664 2.025h-7.435c.021-.7.096-1.455.665-2.025.65-.65 1.963-1.202 3.037-1.202zm0-.601c-1.274 0-2.645.589-3.448 1.392-.825.824-.918 1.91-.918 2.72v.317h8.732v-.316c0-.812-.062-1.897-.886-2.72C45.62.588 44.217 0 42.943 0zm-6.378 12.87V18h.857v-5.13zm5.896.006V18h.858v-5.124zm6.003 0V18h.857v-5.124zM54.831.591c.673 0 1.128.1 1.508.529.521.52.621 1.29.572 1.992-.01 1.612-.294 3.21-.766 4.75-.37 1.266-.811 2.51-1.215 3.766h-.195c-.018-.062-1.926-5.289-2.01-8-.016-.79-.13-1.684.411-2.341.335-.459 1.01-.696 1.695-.696zm.416 11.625v.684c0 .124.078.234.194.276.171.062.328.172.49.304H53.54c.161-.132.318-.242.49-.304a.294.294 0 0 0 .193-.276v-.684zm1.644 2.477c.06.121.07.367.054.538h-4.376a2.059 2.059 0 0 1-.022-.538zm-.465 1.819c-.318.471-.951.9-1.618.9-.722 0-1.423-.417-1.762-.9zM54.862 0c-1.275 0-2.737.735-2.737 2.246-.073.922.019 1.85.114 2.768.29 2.285 1.151 4.436 1.86 6.614h-.017c-.095 0-.446.01-.446.294v.784c-.402.198-.682.5-.955.723h-.876a.294.294 0 0 0-.294.294v.792c0 .157.184.287.342.293.07.133.082.252.1.375l-.329-.01h-.004a.307.307 0 0 0-.299.294v.76c0 .163.132.295.294.295.205 0 .675.01.756.01h.011c.368.843 1.355 1.468 2.426 1.468 1.04 0 1.944-.67 2.284-1.478h.764c.275 0 .293-.192.293-.294v-.761c0-.128.056-.285-.59-.285a1.48 1.48 0 0 0-.016-.368c.284-.017.415-.142.416-.3v-.791a.294.294 0 0 0-.294-.294h-.876c-.272-.222-.552-.525-.954-.723v-.784c0-.16-.129-.29-.288-.293.007-.037 1.84-5.082 1.931-7.732.07-.998.168-2.12-.5-2.956C56.563.368 56.126 0 54.863 0zm7.362 1.124q2.015.293 2.106 1.842v11.177q-.941-1.124-3.381-1.58l1.275-11.44zM61.658 0l-1.509 13.363q3.361.385 4.181 2.4V18h1.002V2.966q0-2.51-3.674-2.966zm15.726 4.373q.075 0 .16.016.485.091.404.546-.074.418-.557.418-.043 0-.09-.004-.484-.202-.363-.626.1-.35.446-.35zm-.23-3.948q.088 0 .198.034.394.121.293.768l-.606 2.728q-.404.121-.566.647-.162.525.323.909-.226-.016-.384-.016-.238 0-.323.036-.042.018-.1.018-.132 0-.344-.099L77.2 1.166q-.465-.202-.354-.515.08-.226.307-.226zm2.169 5.466zm-.11-5.005q.038 0 .08.007.413.071.403.415-.01.343-.576.343l-.323 4.264q-.12.046-.212.046-.11 0-.182-.066-.131-.121-.576-.222.525-.081.596-.627.07-.545-.333-.91l.606-2.667q.164-.583.517-.583zM76.01 7.182q-.209 0-.285.208.044.239.308.239.229 0 .622-.178-.409-.269-.645-.269zm-.264-.256q.828.04 1.414.545.169-.168.303-.168.107 0 .192.108.192.242-.283.727t-.576 1.637q-.1-.202-.202-.455-.087-.217-.67-.217-.093 0-.199.005-.262 0-.262-.465.074.003.137.003.54 0 .277-.154-.172-.1-.285-.1-.08 0-.13.05v-.263l-.323-.162q.182-.344.354-.536.172-.192.253-.555zm1.137-.832q.197 0 .429.044.98.181 1.465 1.06.485.88.303 5.123h-.364l.06-1.859q-.04-.828-.636-.838h-.007q-.59 0-.69 1.606h-.323q.02-2.243.394-2.647.374-.404.515-.819.142-.414-.131-.677-.161-.155-.383-.155-.153 0-.335.074-.464-.343-1.192-.464.262-.448.895-.448zm-3.4 6.43l2.141.323v.1q-1.07.041-2.162.183-.546-.182-.97-.485.687 0 .99-.122zm-2.507-2.749l-2.101 4.183-.85-.566 2.951-3.617zm7.701 6.765q.16 0 .2.187.082.364.728.748h-1.192l-.141-.768q.255-.167.405-.167zm-.498-6.513h.012q.323.031.08 2.739-.08 1.475-.626 3.718l.202.99h-4.971q-.23.02-.426.02-1.043 0-1.12-.545-.091-.647 1.546-1.07l3.031-.87q.425-3.294.849-4.668v1.313h1.071q.04-1.627.352-1.627zM77.142 0q-.534 0-.74.469-.252.576.273.9l-1.536 3.94q-.393-.131-.644-.131-.098 0-.174.02-.055.014-.12.014-.258 0-.678-.226.493.829.996.829h.024q.054-.003.105-.003.427 0 .572.154.162.172.546.212-.384.626-.374.778.01.152-.374.677t-.07.626q.313.101.292.99l-.667 1.476q-.197.181-.388.181-.043 0-.086-.01-.038-.007-.07-.007-.173 0-.223.22.29.243.555.243.42 0 .778-.607l.768-1.313q.038-.003.072-.003.433 0 .433.467-.363 1.01-.586 2.021l-2.445.121q-.465-.282-1.192-.545l-.586-3.213-4.062 5.193q-.283.445-.182.526.101.06.209.06.215 0 .458-.242-.101.161-.132.343-.03.182.091.263.054.036.112.036.073 0 .151-.056.142-.101.243-.243-.182.485.1.687.02.013.042.013.123 0 .363-.376l2.425-4.85.343 1.859q-.045-.01-.077-.01-.094 0-.064.09.04.122.162.162-.031-.004-.058-.004-.256 0-.165.348.101.384.223.485-.303.162.182.283-.647.222-.435.717.182.426.447.426.043 0 .089-.012l.141-.02.06.404.425-.08-.08-.445.444-.141q.664.284 1.762.284.304 0 .643-.022l-.101.647-3.678 1.071q-1.031.525-.89 1.364.142.839 1.051.96h8.73v-.404q-1.192-.707-1.364-1.263-.101-.329-.418-.329-.22 0-.542.157.425-1.92.546-3.435h.627q.363-5.336-.546-6.103.137-.049.299-.049.242 0 .54.11.103.037.215.037.423 0 .967-.543-.54-.15-.823-.15-.1 0-.167.019-.088.023-.164.023-.153 0-.26-.094-.114-.1-.148-.1-.013 0-.014.015l.202-3.856q.626-.02.646-.687.02-.667-.717-.879-.137-.04-.263-.04-.554 0-.9.757l-.605 2.79-.182-.041.646-2.789q0-.99-.747-1.122Q77.263 0 77.142 0zm7.832 1.124q2.015.293 2.106 1.842v11.177q-.942-1.124-3.381-1.58l1.275-11.44zM84.407 0L82.9 13.363q3.36.385 4.18 2.4V18h1.003V2.966q0-2.51-3.675-2.966zm9.203 3.502q.265 0 .305.326l.448 4.052q.346 2.79.408 5.335 0 1.751-.296 2.78-.295 1.028-.926 1.028t-.866-1.029q-.234-1.028-.213-2.78.04-2.544.387-5.334l.447-4.052q.041-.326.306-.326zM90.535 0q-.855.428-.102.896 2.485 1.446 2.18 3.075l-.47 3.91q-.325 2.789-.467 5.334 0 2.484.468 3.635Q92.612 18 93.61 18t1.466-1.15q.468-1.15.468-3.635-.142-2.545-.468-5.335l-.428-3.747Q93.997.794 90.535 0zm9.085 1.124q2.014.293 2.105 1.842v11.177q-.941-1.124-3.38-1.58l1.275-11.44zM99.053 0l-1.509 13.363q3.361.385 4.181 2.4V18h1.003V2.966q0-2.51-3.675-2.966zm7.75 1.124q2.015.293 2.106 1.842v11.177q-.942-1.124-3.382-1.58l1.276-11.44zM106.236 0l-1.508 13.363q3.36.385 4.18 2.4V18h1.003V2.966q0-2.51-3.675-2.966zm10.409.195h.038q.414.017.414.812v1.964q-.325-.244-.747-.244l.358-1.899-.04.001q-.399 0-.399-.325 0-.31.376-.31zm1.106 0q.385 0 .385.325 0 .311-.38.311-.035 0-.075-.003l.357 1.9q-.422 0-.746.243V1.007q0-.795.422-.812h.037zm.704 2.943q.273 0 .598.141.297.13.526.13.115 0 .212-.032-.169.121-.389.121-.16 0-.35-.065-.302-.104-.56-.104-.122 0-.234.023-.35.073-.577.138-.227.065-.487.309-.26-.244-.486-.317-.228-.073-.569-.138-.1-.02-.211-.02-.264 0-.584.11-.192.064-.355.064-.223 0-.391-.121.097.032.212.032.231 0 .534-.13.33-.141.601-.141.102 0 .194.02l.569.121q.227.049.486.292.26-.227.487-.284.228-.056.577-.13.095-.02.197-.02zm-2.25 1.164q-.066 0-.066.08 0 .066.065.066.05 0 .065-.065-.016-.081-.065-.081zm0-.033q.097 0 .097.114 0 .097-.098.113-.065-.016-.113-.064.016-.163.113-.163zm.255-.106q-.074 0-.158.009.097.049.032.13-.048-.081-.13-.081-.178 0-.178.227.097.08.09.138-.009.057-.025.089.065.081.13.39.032 0 .048-.033-.016-.325.017-.438.097-.195.251-.203h.02q.14 0 .232.105.097.114.065.268-.033.154-.422.333v.032q.616-.178.56-.6-.05-.366-.532-.366zm.28-.121q.373 0 .422.52.049.519-.78.697.163.065.244.236.082.17.082.365-.03.008-.06.008-.08 0-.151-.065-.098-.09-.26-.463-.211-.633-.52-.633h-.08q.01-.072.053-.072.025 0 .06.024.027-.045.09-.045.049 0 .12.029-.145-.163-.145-.325.016.003.03.003.07 0 .083-.068.033 0 .22-.105.186-.106.592-.106zm1.184 1.83q.228 0 .488.053-.228.633-.6.86v-.909q.054-.003.112-.003zm-1.752-.24q.032.098.114.276l-.147.926h-.34q0-.763.373-1.201zm-.033 1.283v.065h-.34v-.065zm1.559 0v.065h-.504v-.065zm-.374-2.922q.6.033 1.258.528.657.495.852 2.475h-.195l-.016-.438q-.016-.828-1.485-.828h-.057v1.104h-.487V5.276q.536-.617.13-1.283zm.666 2.792l-.033.243h-.194l.227-.243zm.34-.438l-.146.681h-.113l.016-.292.244-.39zm-1.282-.341v.941q-.21.081-.413.09h-.031q-.185 0-.335-.09l.146-.941q.146.113.333.113.187 0 .3-.113zm2.386 1.055v.081h-.195v-.081zm-1.103.113l-.05.147h-2.19l-.049-.147zm.811.065v.114h-.552v-.114zm-4.106-.08l.535.097-.016.113-.552-.097.033-.114zm4.106.259v.081h-.552v-.081zm-4.139-.097l.52.113-.016.081-.536-.097.032-.097zm3.214.162l-.049.13h-1.996l-.049-.13zm-3.246-.016l.52.097-.033.114-.52-.098.033-.113zm4.171.097l-.016.114h-.536v-.114zm-2.694 1.672l-.065.065v.08l.032.033q.082-.032.082-.178zm1.64-1.445q-.05.211-.13.812l-1.64.892q.049-.422.024-.892-.024-.471-.089-.812zm-.082.974l.032.503-1.541.568q.08-.178.016-.292l1.493-.779zm-1.631.832q.073 0 .073.11 0 .145-.179.21l.049-.308q.032-.012.057-.012zm-2.638.158q.114.097.276.325l-.26.243q-.113-.113-.227-.276l.211-.292zm5.291.633v.34l-.357.033-.032-.373zm-2.759-.227q.146.714.439 1.412h-.682l.243-1.412zm1.753-.698q.065.032.114.292.048.26.048.584l.033 1.234h-1.315q-.308-.73-.487-1.558l1.607-.552zm.503-2.418q-.032 1.509.098 1.752-.114.747-.065 1.607l.08.503q-.129.244-.032.666h-.21q-.017-.487-.05-1.315.017-.503-.178-.957.016-.357.008-.528-.006-.143-.065-.143-.01 0-.024.005.033-.584.438-1.59zm.237 4.416q.02 0 .088.112h-.097v-.09q0-.022.009-.022zm-1.908.436q.194.439.714 1.185h-1.818l.21-1.185zm1.363 0l.016 1.185h-.454q-.52-.714-.73-1.185zm.049 1.283l.016.097h-2.58l.032-.097zm-3.717-1.283l.162 3.182h-.795l.633-3.182zm1.136-4.82q.536 1.006.536 1.623 0 .325-.025.763-.024.438-.349 2.11h-1.542l-.795 4.09h.406v-.357h.276v.357h.243v-.357h.276v.357h.341l-.178-3.766h.892l-.308 1.51h.146q-.179.34-.146.56.032.219-.098 1.022-.13.804-.422 1.599-.146.34-.292.487-.146.146-.552.284-.405.138-.779.17-.263.023-.34.216v-6.919h.016q.357 0 .552-.21.162-.098.551-.504 1.283-1.574 1.591-3.035zm-2.71 10.668zM116.618 0h-.04q-.471.017-.48.488-.007.47.35.535l-.341 1.867q.487 0 1.039.39v.064q-.211-.195-.438-.243-.228-.049-.569-.13-.092-.022-.192-.022-.271 0-.603.16-.323.155-.506.155-.075 0-.127-.025-.178-.09-.26-.106-.022-.006-.04-.006-.067 0-.04.104.13.405.527.43.07.004.136.004.306 0 .513-.094.153-.069.34-.069.12 0 .252.029.341.073.52.122.178.048.227.13-.52 0-.755.162t-.219.21q-.024-.016-.05-.016-.027 0-.055.017-.057.032-.057.113-.292.114-.292.682.139-.084.206-.084.012 0 .021.003.195 0 .422.6-.162.146-.227.471l-.073-.002q-.554 0-.706.473l-.13.73-.357 1.169q-.227.275-.674.973-.446.698-.625.715l-.146-.163-.178-.016V5.779q0-.211.097-.341.47-.211.455-.633 0-.666-.666-.666-.681 0-.681.65 0 .194-.17.324-.171.13-.09.227.034.035.083.035.089 0 .225-.116.211-.178.211-.535 0-.357.422-.357t.422.373q0 .373-.422.568-.162.097-.162.47v4.026q-.008-.008-.039-.008-.03 0-.083.008-.105.016-.13.138-.024.121.073.203-.065.26-.008.486.05.2.156.2.015 0 .03-.005V18h.26v-.032q.102.032.504.032.34 0 .64-.13.138-.06.3-.06.19 0 .415.085.154.057.294.057.235 0 .428-.163-.081-.633.13-1.136.795-1.558.706-2.07-.09-.51.187-1.176h.665q0 .032.146.178.033.455.26.666.454 1.655.487 2.256-.049.568-.942.974-.454.08-.657.08t-.203.374h1.023q.222-.13.556-.13.25 0 .564.073.117.028.205.028.463 0 .135-.75-.08-.34-.016-.747.065-1.639-.17-2.045-.236-.405-.22-.957l.082.032q-.033-.324-.081-1.542h.194q0 .033-.008.065-.008.033.04.065.012.006.023.006.054 0 .108-.136h.065q.016.114.146.155.065.02.13.02t.13-.02q.13-.04.194-.155h.325l-.016-.324h-.293q-.08-.39-.39-.747.147-1.525.066-2.175.113-.73.13-1.412h.405q-.146-2.337-.949-2.897-.803-.56-1.21-.56.114-.08.26-.13.147-.048.496-.121.136-.029.256-.029.188 0 .336.07.2.093.505.093.066 0 .136-.004.398-.025.544-.43.026-.104-.052-.104-.02 0-.046.006-.065.016-.251.114-.056.029-.136.029-.185 0-.497-.16-.33-.167-.605-.167-.099 0-.19.022-.35.081-.577.13-.227.048-.454.243V3.28q.568-.39 1.055-.39l-.341-1.866q.357-.065.349-.535-.008-.471-.479-.487l-.04-.001q-.437 0-.577.342-.14-.342-.576-.342zm7.706.644q-.462 0-.462.35 0 .294.462.294.448 0 .448-.294 0-.35-.448-.35zm.35-.196q1.064 0 1.596.686.266.434.518 1.33-.014.21-.35.28-.336.07-.658.07-1.484-.546-2.297-1.89.056-.476 1.19-.476zm2.534 2.1q.266.197 1.127.715.862.518 2.689 2.149t2.765 1.918q.939.287 2.206.343 1.267.056 1.911.294 0 .197-.406.309-3.515-.407-5.16-.757-1.645-.35-2.43-.595-.783-.245-2.002-.93-1.218-.687-1.946-1.331-.728-.644-.952-1.008-.224-.364.553-.385.777-.021 1.26-.224t.385-.498zm10.74 5.49l.112.111q0 .113-.14.155l-.266-.014q.294-.126.294-.253zm.182.168l.112.14-.21-.014q.084-.07.098-.126zM123.33.994q.952 1.358 2.226 1.905-.162-.009-.305-.009-1.027 0-1.04.443 0 .7 2.388 2.408t5.622 2.212q1.4.182 1.568.547.028.266-1.33.336h-2.254q-.224-.49-.826-.897l.126.35q-2.24-1.288-3.928-2.849-1.687-1.561-1.701-2.71 0-.546-.547-1.372 0-.126-.756-.238v-.028l.756-.098zm10.977 7.38l3.88.686q-.407.168-.568.602-.16.434.035 1.05l-4.019-1.582q.056-.014.266-.12.21-.104.371-.286.162-.182.035-.35zm-6.09-.267q1.512 1.009 1.484 1.317-.224.728-1.093 1.848-.462 0-.875-.098-.222-.053-.463-.053-.206 0-.426.04 1.442-2.045 1.442-2.13 0-.545-.084-.924zM124.66 0q-.742 0-1.114.203-.37.203-.399.54-1.106.153-1.106.223v.28q.028.07.924.336.476.63.476 1.149 0 .98.715 1.932.714.952 3.066 3.122.21 0 .434 1.247l-1.316 2.016q-.168.112-.448.126-.462-.154-1.47-.154-.32.098-.568.098-.175 0-.315-.049-.272-.096-.727-.096-.107 0-.225.005-.476.224-.084.616l7.002.014-.224-.336q.434-.714 1.12-1.96h2.52l5.461 2.114.056-.196q-.588-.588-.49-1.33.21-.602 1.106-.798v-.196l-2.24-.406v-.014l2.1.14q0-.056-.357-.715-.357-.658-1.505-.658-1.876-.056-2.766-.182-.889-.126-3.395-2.422-2.507-2.297-3.585-2.549-.518-2.1-2.646-2.1zm5.888 14.24q2.996 0 6.355 1.447-3.359 1.408-6.355 1.408-2.977 0-6.355-1.408 3.378-1.448 6.355-1.448zm0-.926q-3.7 0-8.507 2.353Q126.848 18 130.548 18q3.7 0 8.506-2.333-4.786-2.353-8.506-2.353zM142.701 0c-.335 0-.67.026-.994.066-.447.113-.218.626.18.626a.476.476 0 0 0 .081-.008c.84.097 1.873.15 2.506.626.841.916.464 2.821.561 3.725.007.05.01 3.653.01 5.48a6.145 6.145 0 0 0-2.634-.586 6.04 6.04 0 0 0-1.188.117c-.44.231.077.528.423.528.04 0 .08-.004.114-.013 1.226.133 2.62.461 3.243 1.602.062.206.023.277-.07.277-.207 0-.68-.342-.947-.342-.014 0-.027 0-.04.003a7.535 7.535 0 0 0-1.58-.169c-.39 0-.776.031-1.149.095-.42.278.096.534.438.534a.532.532 0 0 0 .105-.01c1.252.151 2.636.49 3.243 1.633.007 1.27 0 2.11.034 3.278-.015.36.219.538.456.538.235 0 .473-.176.474-.526-.009-1.15-.09-2.161.06-3.277.305-1.253 2.478-1.445 3.827-1.754.295-.347-.285-.475-.658-.475-.056 0-.107.003-.15.008a6.823 6.823 0 0 0-.522-.02c-.882 0-1.77.175-2.557.58-.032-.755.711-1.19 1.244-1.493.84-.361 1.766-.397 2.643-.59.313-.273-.18-.501-.521-.501a.58.58 0 0 0-.125.012 6.767 6.767 0 0 0-.648-.031c-.902 0-1.804.183-2.614.582.017-2.851.063-5.61-.02-8.308-.065-.834-.545-1.6-1.354-1.849-.58-.264-1.227-.358-1.87-.358zm13.618 7.386c1.074 0 2.418.552 3.069 1.203.569.569.643 1.323.664 2.025h-7.435c.021-.702.096-1.456.665-2.025.65-.65 1.963-1.203 3.037-1.203zm0-.6c-1.274 0-2.645.588-3.449 1.391-.824.825-.917 1.91-.917 2.721v.317h8.732v-.317c0-.812-.062-1.896-.886-2.72-.803-.804-2.206-1.393-3.48-1.393zm8.441-5.662q2.015.293 2.106 1.842v11.177q-.941-1.124-3.381-1.58l1.275-11.44zM164.193 0l-1.508 13.363q3.361.385 4.181 2.4V18h1.002V2.966q0-2.51-3.675-2.966zm7.751 1.124q2.014.293 2.105 1.842v11.177q-.941-1.124-3.38-1.58l1.275-11.44zM171.377 0l-1.509 13.363q3.361.385 4.181 2.4V18h1.003V2.966q0-2.51-3.675-2.966zm9.02.599v1.307h-.91V.599zm0 1.606v5.708h-.91V2.205zm0 6.007v1.197h-.91V8.212zm-1.975-.047c.16 0 .334.046.467.068v1.309c-.139.017-.317.066-.478.066-.14 0-.268-.037-.349-.162-.051-.091-.1-.267-.1-.559 0-.291.049-.467.1-.558.08-.126.215-.164.36-.164zm1.975 1.543v6.152h-.91V9.708zm0 6.45v1.243h-.91v-1.242zM178.89 0v7.252l-1.413-1.416-.424.423 1.306 1.31c-.792.078-.974.62-.996 1.318.02.745.188 1.203.996 1.319l-1.306 1.31.424.422 1.413-1.416V18h2.108V0zm7.383.451c.805 0 1.814.414 2.302.902.427.427.483.993.499 1.52h-5.579c.016-.527.072-1.093.499-1.52.488-.488 1.473-.902 2.279-.902zm0-.451c-.956 0-1.985.442-2.588 1.045-.618.618-.688 1.432-.688 2.041v.237h6.552v-.237c0-.61-.047-1.423-.665-2.041C188.28.442 187.229 0 186.273 0zm-.366 4.824v3.843h.732V4.824h-.732m0 4.941v3.66h.732v-3.66h-.732m0 4.575V18h.732v-3.66h-.732zM197.967.599q.796 0 1.452.396 1.335.775 2.53.775 1.202 0 2.205-.103v2.065q-1.246-.221-1.8-.221h-.014q-.45 0-1.254.103-3.268.45-4.072.45-1.335 0-2.515-.045-2.021-.118-2.22-.213-.192-.089-.192-.51 0-.412.11-.722.111-.31.37-.443 6.313-.28 6.808-.324-.44-.635-1.364-.635-.3 0-.65.067-1.176.231-1.814.231-.134 0-.244-.01-.627-.059-.583-.597.352.047.728.047.787 0 1.677-.21.439-.101.842-.101zm.187-.599q-.32 0-.63.08-1.262.333-2.221.347-.236 0-.848-.118-.288.266-.288.627 0 .362.229.613-2.412.088-2.412.287-.435.553-.435 1.328 0 .767.405 1.047 1.225.391 4.92.391.59 0 1.202-.059 3.423-.509 4.08-.524h.064q.674 0 2.473.28V1.04l-.015.015q-1.542.177-2.515.2l-.1.001q-.927 0-1.907-.518Q199.12 0 198.154 0zm-.034 6.759q2.316 0 4.91 1.118-2.594 1.088-4.91 1.088-2.299 0-4.909-1.088 2.61-1.118 4.91-1.118zm0-.715q-2.858 0-6.571 1.818 3.713 1.802 6.572 1.802 2.858 0 6.572-1.802-3.698-1.818-6.572-1.818zm-2.768 5.623q.167 0 .382.036 2.764.21 5.612.691l-.608 1.906q-2.575-.65-5.214-1.633-.858-.294-.753-.67.078-.33.58-.33zm.08-.561q-.935 0-1.122.765-.21.816.859 1.235 2.784 1.026 5.527 1.738.163.057.272.057.172 0 .21-.14l.796-2.43q.084-.334-.314-.44-3.12-.502-5.989-.774-.125-.011-.24-.011z"/><path d="M202.956 13.263c.678.03 1.05.044 1.211.044h.073l-.087 3.547a5.204 5.204 0 0 1-1.35-.803l.153-2.788zm-9.897-.883c-.226.044-.525.183-.489.453v1.978c-.438-.022-.89-.044-1.021-.044 0 .248.204.584.839.584.007.562.11 1.248.212 1.598l.087.92c0 .102.175.131.365.131.226 0 .474-.044.474-.044l-.036-.92c3.605.03 10.48.212 10.823.212.175 0 .292-.19.292-.452l.088-3.963-2.168-.022-.175 3.087c-1.57.007-4.284.263-6.13.263-.584 0-1.088-.022-1.431-.095-.073-.08-.752-1.066-1.182-1.175a1.893 1.893 0 0 0-.256-.03c-.073-.598-.146-1.196-.211-1.787.131-.168.43-.124.51-.35.08-.11.03-.293-.124-.3-.087-.036-.328-.044-.43-.044zM214.24.259v.943h-.277V.26zm1.647 0v.943h-.278V.26zm.832 0v.943h-.296V.26zm-1.665.018v.944h-.277V.277zm-1.72.389q-1.776 1.24-3.071 1.24-1.277 0-2.238-1.24zm9.23 0q-.954 1.249-2.329 1.249h-.02q-1.387-.01-2.849-1.249zM206.694 0q1.332 2.608 3.644 2.608 1.702 0 3.09-1.073h3.754q1.203 1.073 3.108 1.073 2.276 0 3.7-2.608zm3.604 7.143c.887 0 1.997.456 2.534.993.47.47.531 1.093.549 1.672h-6.14c.017-.58.079-1.202.549-1.672.537-.537 1.621-.993 2.508-.993zm0-.496c-1.052 0-2.184.486-2.848 1.15-.68.68-.757 1.576-.757 2.246v.261h7.21v-.261c0-.67-.05-1.566-.731-2.247-.664-.663-1.822-1.15-2.874-1.15zm5.956-2.387v6.044h1.011V4.26zm3.362 0v6.044h1.011V4.26zm3.362 0v6.044h1.011V4.26zm-16.285 7.696V18h1.011v-6.044zm3.257 0V18h1.011v-6.044zm3.257 0V18h1.011v-6.044zm3.257 0V18h1.011v-6.044zm3.256 0V18h1.012v-6.044zm3.258 0V18h1.011v-6.044z"/></svg>