<svg xmlns="http://www.w3.org/2000/svg" width="59.093" height="18"><path d="M11.386 8.203c-.51.04-.793.296-.847.767.067.51.35.78.847.806.498-.026.76-.295.787-.806-.04-.47-.303-.726-.787-.767zm.06-1.694c.364 0 .7.068 1.01.202a2.659 2.659 0 0 1 1.371 1.361c.134.303.201.622.201.958 0 .35-.067.676-.202.978a2.567 2.567 0 0 1-2.38 1.523c-.362 0-.702-.064-1.018-.192a2.426 2.426 0 0 1-.816-.534 2.621 2.621 0 0 1-.545-.797 2.38 2.38 0 0 1-.202-.978c0-.336.068-.655.202-.958.134-.302.316-.571.545-.806.228-.236.5-.42.816-.555a2.574 2.574 0 0 1 1.019-.202zm-.04-.685c-.443 0-.86.084-1.25.252-.39.168-.726.396-1.008.685a3.36 3.36 0 0 0-.676 1.009 3.053 3.053 0 0 0-.252 1.24c0 .444.084.857.252 1.24.168.384.393.716.676.999a3.2 3.2 0 0 0 2.258.927c.444 0 .857-.084 1.24-.252a3.36 3.36 0 0 0 1.009-.675c.289-.283.518-.615.686-.999.168-.383.252-.796.252-1.24 0-.444-.084-.857-.252-1.24a3.268 3.268 0 0 0-1.694-1.694 3.053 3.053 0 0 0-1.24-.252zm8.74-3.574c-.09 0-.095.283-.224.701-.146.476-.254 1.472-.591 1.665a.298.298 0 0 1-.153.039c-.1 0-.202-.038-.313-.038a.409.409 0 0 0-.127.02c-.158.05-.242.297-.408.326-.692.12-1.637.075-2.166.123-.34.03.567.698 1.473.698h.039c.188-.005.387-.013.584-.013.33 0 .658.024.928.135.264.109.575.425.572.735l-.11 9.109h1.019l-.052-10.289c-.002-.276.795-.464.9-.702.181-.415.088-2.247-.205-2.493a.016.016 0 0 0-.01-.004c-.132 0-.378 1.92-.766 2.333-.04.043-.118.062-.185.062-.073 0-.133-.022-.121-.062.246-.838.345-2.061-.041-2.329a.077.077 0 0 0-.043-.016zm9.764.69l.1.001h.051q1.867 0 3.561 1.606l-1.048.847q-.981-.936-2.564-.936-1.583 0-2.565.936l-1.048-.847Q28.07 2.94 29.91 2.94zm.1 2.164q1.761.023 2.899 1.851h-5.82q.892-1.828 2.92-1.85zm0-2.854q-2.765.111-4.66 2.274l1.583 1.338q-.67.892-.825 1.673h7.782q-.156-.78-.825-1.65l1.471-1.338Q32.775 2.36 30.01 2.25zm-6.9 8.003v5.497h.918v-5.497zm6.317.007v5.49h.918v-5.49zm6.431 0v5.49h.919v-5.49zm3.212.717v1.225h2.704v-1.225h-.53c-.154.272-.33.449-.53.53a.76.76 0 0 1-.59 0c-.194-.081-.37-.258-.524-.53zm1.64-4.458v2.03h-.613v2.483h.662V9.476h.768V7.347h.949c.17 1.324.629 2.308 1.38 2.952.75.643 1.676 1.016 2.78 1.12 1.103.102 1.828.248 2.173.435.346.188.519.377.519.569h1.346c-.206-.493-.482-.868-.828-1.126-.345-.257-.987-.42-1.925-.485-.938-.067-1.688-.19-2.25-.37a3.588 3.588 0 0 1-1.507-.96c-.441-.46-.78-1.447-1.015-2.963zm-.892 7.115l-1.541 1.823h.751l.79-.942.797.942.775-.942.797.942.79-.942.797.942.79-.942.797.942.775-.942.797.942.797-.942.775.942.797-.942.79.942h.751l-1.541-1.823-.797.881-.775-.88-.797.88-.797-.88-.775.88-.797-.88-.79.88-.797-.88-.79.88-.797-.88-.775.88-.797-.88zm8.139-9.187c-.409.032-.635.237-.678.613.054.409.28.624.678.646.398-.022.607-.237.629-.646-.032-.376-.242-.58-.63-.613zm.048-1.355c.29 0 .56.054.807.161a2.127 2.127 0 0 1 1.097 1.089c.107.242.161.498.161.767 0 .28-.054.54-.161.782a2.029 2.029 0 0 1-1.097 1.065 2.092 2.092 0 0 1-.807.153c-.29 0-.562-.05-.815-.153a1.94 1.94 0 0 1-.653-.428 2.097 2.097 0 0 1-.436-.637 1.905 1.905 0 0 1-.16-.782c0-.27.053-.525.16-.767.108-.242.253-.457.436-.645s.4-.336.653-.444c.253-.107.525-.161.815-.161zm-.032-.549a2.5 2.5 0 0 0-1 .202 2.494 2.494 0 0 0-.807.549c-.226.23-.406.5-.54.806a2.443 2.443 0 0 0-.202.993c0 .354.067.685.201.992.135.306.315.572.54.798a2.56 2.56 0 0 0 1.808.742c.355 0 .686-.067.992-.201.307-.135.576-.315.807-.54.231-.227.414-.493.548-.8a2.43 2.43 0 0 0 .202-.991c0-.355-.067-.686-.202-.993a2.615 2.615 0 0 0-1.355-1.355 2.443 2.443 0 0 0-.992-.202z"/><path d="M8.22.375c-9.625 0-9.625 17.25 0 17.25m0-17.25h42.623M8.22 17.625h42.623M58.53.375v17.25M50.843.375c9.625 0 9.625 17.25 0 17.25" fill="none" stroke="#000"/></svg>