<svg xmlns="http://www.w3.org/2000/svg" width="95.273" height="18"><path d="M18.058.568q-.111.037-.111.128t.07.146q.027.022.054.022.04 0 .077-.05.063-.081.021-.163-.041-.083-.11-.083zM2.67.47q-.153 0-.296.282.084.183.264.237.028.01.054.01.131 0 .224-.229 0-.255-.194-.292Q2.695.47 2.669.47zM1.665.787q-.042.128.027.238l-.583.073q-.014-.164.556-.31zm.568.436zm.105-.003q.12 0 .195.033.027.012 0 .012-.052 0-.288-.04.05-.005.093-.005zm2.564 1.252q.035 0 .097.068 1.125 1.223 2.792 2.865Q9.46 7.048 9.667 7.724 8.305 7.468 7.34 6.318q-.966-1.15-1.681-2.236-.716-1.086-.799-1.414-.017-.196.042-.196zm.046-.868q.202 0 .384.096 4.321 4.308 4.946 5.604.584 1.405.764 2.154-.076.11-.182.11-.087 0-.193-.074l-.57-1.515q-.43-1.296-2.104-2.875-1.674-1.579-2.424-2.5-.441-.542-.676-.542-.164 0-.227.268-.108.455-.38.455-.115 0-.26-.081.126-.858.542-1.022.198-.078.38-.078zm.357 6.43q.666 1.405.541 2.83-.125 0-.236.236-.045-.403-.277-.403-.051 0-.112.02.292-1.405.084-2.683zM2.827.346q.066 0 .116.013.25.063.292.237.029.122.058.122.013 0 .025-.022.042-.073.056-.164.305.53.041 1.57t.848 1.24q1.028 3.104 2.209 4.72 1.18 1.615.986 3.038-.449-.438-.993-.438-.113 0-.23.019.042-1.296-.472-2.556t-.945-1.889q-.43-.63-1.16-1.497-.73-.867-.722-1.789.007-.921.194-1.286.188-.365.181-.584-.003-.091-.027-.091-.035 0-.112.182-.132.31-.73.328l-.07.001q-.568 0-1.235-.274l.82.073q.404.11.601.11.162 0 .183-.074.049-.164-.076-.192-.125-.027-.257-.027t-.201.055l.026.052-.29-.052Q1.762.787 1.887.623q.028-.055.097-.055-.028.183.049.274.028.034.056.034.046 0 .09-.098.07-.155-.125-.228.511-.204.773-.204zm15.412.04q.375 0 .555.365.056.055.695.2v.056l-.695.073q-.597 0-.75-.12-.153-.118-.146-.273.007-.155.188-.155.18 0 .25.082t.035.173q-.035.092-.132.147h.028q.18 0 .187-.22.007-.237-.299-.273-.389 0-.291.374.092.357.854.357l.076-.001q.431-.037.765-.128L19.53.97q1.236 1.004 1.16 2.29-.077 1.288-.966 2.136-.889.85-1.584 1.871-1.083 1.734-1.167 2.72-.083.986.376.986.458 0 1.118-.721.66-.721 1.34-.74 1.82.055 1.612 2.209-.667-.93-1.5-.93-.417 0-1.14.474-1.097.766-1.667.766l-.472-.091q-.861-.84-.583-2.482.416-1.187 1.125-4.235.486-1.734.965-2.628.48-.895 1.022-.913.291 0 .944.365.027.01.047.01.094 0 .037-.21-.526-.429-1.226-.429-.225 0-.47.045-.208 0-.506-.146-.3-.146-.3-.694.251-.237.543-.237zM4.666 3.05q1.083 1.825 1.986 3.002.903 1.178 1.702 1.588.799.411 1.48.43.083.145 1.653 4.617l-.097.055-3.738-3.14q.028-.273-1.104-1.962-1.132-1.687-1.994-4.46l.112-.128zM8.5 10.918l2.07 1.66q.07.256-.5.348-.127.02-.233.02-.37 0-.49-.248-.152-.32-.389-.831-.236-.511-.458-.95zm7.071-.785q0 .767.167 1.332.43 1.004 1.153 1.023h.038q.711 0 1.699-.657.938-.625 1.365-.625.034 0 .066.004.416.055.903.566.486.51.514.894.05.311-.043.311-.06 0-.18-.128-.399-1.05-1.024-1.05h-.01q-.633.01-1.557.648-.923.639-2.153.639t-1.368-1.04q-.14-1.04.43-1.917zM5.277 11.192l.208.547q.195-.255.299-.3l.005-.002q.088 0-.304 1.543l-.583.238q-.153-.146.09-.904.243-.757.285-1.122zm14.763 1.14q.461 0 .727.502-.18.384-.847.603-.514 0-1.042-.566.685-.539 1.162-.539zm-1.607.758q.207.265.448.438h-1.883q.692-.095 1.435-.438zm-7.182 1.15q-1.554 2.935-4.48 3.011-2.913-.076-4.467-3.011zm11.239.018q-1.554 2.935-4.48 3.012-2.913-.077-4.48-3.012zM3.066.008q-.084 0-.179.013-.222 0-1.264.42-.834.255-.903.657l.028.62.417-.2q.68.292 1.139.292.458 0 .347.41-.111.411.028 1.37.139.958 1.097 1.934.959.977 1.188 2.556.23 1.578-.41 3.641l.209-.164q.004-.004.007-.004.046 0-.216.816-.277.867-.757.894-.084.005-.16.005-.348 0-.486-.105-.155-.12-.462-.12l-.045.001q-.34.01-.34.302v.182H1.33Q2.93 17.982 6.777 18q3.849-.018 5.446-4.472l-4.279.037q0-.165-.264-.356-.129-.094-.296-.094-.175 0-.391.103-.13.061-.278.061-.337 0-.771-.317.097-.639.236-1.14.139-.503.528-.594.036-.008.073-.008.362 0 .816.811.264-.675.153-1.825l.139.128q1.042 2.3 1.257 2.701.163.305.634.305.15 0 .331-.031.75-.128.737-.475l.639.42.486-.237-1.07-3.048q.264 0 .487-.292-.264-1.096-.82-2.446-.39-.822-.792-1.278Q8.681 4.603 7.5 3.39T5.763 1.518q-.373-.28-.775-.28-.226 0-.461.088-.653.246-.792 1.214-.042-.037.07-.73.11-.694-.05-1.287-.138-.514-.689-.514zM18.286 0q-.252 0-.478.094-.292.11-.347.42-.111.383.097.757.208.374.653.466-.89 1.058-1.514 3.741-.584 2.556-.973 3.779-1.042 1.113-1.035 2.236.007 1.122.424 1.597.301.343.878.438h-3.434q1.597 4.454 5.446 4.472 3.848-.018 5.445-4.472h-2.674q.153-.11.313-.256.156.245.354.245.083 0 .174-.044.347-.219.139-1.004.194-2.245-.459-2.865-.653-.621-1.473-.621-.75 0-1.625.849-.543.526-.743.526-.124 0-.118-.198.014-.52.611-1.761.403-.876 1.75-2.254 1.348-1.378 1.334-2.775-.014-1.396-.597-2.099-.584-.703-1.292-.794-.111-.2-.292-.328-.18-.128-.48-.146Q18.329 0 18.287 0zm10.608 13.588c.848 0 1.909.435 2.422.948.45.45.508 1.045.525 1.598h-5.868c.016-.553.075-1.148.524-1.598.514-.513 1.55-.948 2.397-.948zm0-.475c-1.005 0-2.087.465-2.721 1.099-.65.65-.725 1.506-.725 2.147v.25h6.892v-.25c0-.64-.049-1.497-.699-2.147-.634-.634-1.741-1.099-2.747-1.099z"/><path d="M32.648.673q-.37 0-.37.437 0 .37.37.37.393-.022.393-.414 0-.393-.393-.393zm-1.44.284v.392l-.85.153q.393-.414.85-.545zm.044.523q.502.393.175.59-.502-.175-.742-.459l.567-.13zM32.78.477q1.025 0 1.636.785.61.785.654 2.421 1.592.327 2.115 1.44.085.72-.324.72h-.024q-.437-.023-.687-.24-.092-.08-.138-.08-.082 0-.026.243.087.381.96.927.872.545.141.905-.18.089-.386.089-.62 0-1.457-.82-1.112-1.09-1.177-1.657-.066-.567.458-1.047.311-.286.214-.286-.067 0-.323.133-.633.327-.665.96-.033.632.501 1.385.535.752 2.105 1.908.16.084.363.084.431 0 1.054-.379.916-.556-.916-1.712.676-.174.698-.588.85.283 4.776 5.277 1.047.698 1.07 1.025-.023.306-.328.371-.066.014-.133.014-.247 0-.521-.188-1.222.589-2.367.61l-.119.001q-1.065 0-1.767-.371.72.632.502 1.33-.106.338-.16.338-.059 0-.059-.382 0-.741-1.897-1.417v.828q-.112.47-.178.47-.062 0-.084-.426-.13-.938-.621-2.017-.49-1.08-1.56-2.988-1.068-1.908-1.363-2.748-.294-.84-.272-1.56.022-.72-.295-1.057-.316-.338-.185-.73.13-.393-.393-.742V.935q.567-.458 1.178-.458zm4.144 12.562q1.068.305 1.068.72l-.72 2.682q-.087.48-.588.48h-.872v-.044l1.112-3.402v-.436zM32.858.04h-.079q-.85 0-1.723.699-.501.174-1.025.807.72.654 1.309.807.065.305.414.85.022 1.44.393 2.388.37.949 2.486 5.093 1.047 2.18 1.047 2.682 0 .763-.96 3.424 0 .153-1.308.24-1.963.066-1.963.545 0 .284.261.284h5.802q.545-.436.61-.742.524.218.567.59.074.293.21.293.024 0 .052-.01.174-.066.174-.284-.152-.589-.763-1.134l.698-2.944q2.116-.066 3.686-.676.29.065.533.065.485 0 .775-.261.437-.393-.174-1.222-1.33-1.33-2.53-2.922Q38.886 5.58 37.97 5.1q-.306-.633-.731-1.004-.425-.37-1.538-.916-.021-1.286-.6-2.224Q34.538.04 32.859.04zm10.269.434c.848 0 1.909.436 2.422.95.45.448.508 1.044.525 1.597h-5.868c.016-.553.075-1.149.524-1.598.513-.513 1.55-.949 2.397-.949zm0-.474c-1.005 0-2.087.465-2.722 1.099-.65.65-.724 1.506-.724 2.147v.25h6.892v-.25c0-.64-.049-1.497-.7-2.147C45.24.465 44.134 0 43.128 0zm7.569 1.353q-.14 0-.177.146 0 .15.157.15.026 0 .057-.004.214-.03.525-.107-.389-.175-.545-.185h-.017zm-.119-.204q.273.039.798.175.195.39.33.39.156 0 .254-.118.052-.037.089-.037.058 0 .076.096.03.155-.263.486.02.837.41 1.498-.273-.175-.439-.175-.165 0-.262.098 0-.312-.04-.7-.215-.23-.474-.23-.113 0-.236.044-.146.054-.24.054-.166 0-.178-.16-.097-.195-.058-.37-.04-.195-.214-.273l.447-.778zm.905-.779q.477 0 1.022.224.544.224.564 1.06.02.954.02 1.713v2.646h-.312V3.678q-.525-.68-.545-1.44.273-.389.234-.7-.04-.292-.312-.302h-.04q-.243 0-.368.107-.059-.272-.487-.37-.545-.116-.486-.136.233-.467.71-.467zm.348 3.865q.06 0 .129.008.33.078.311.408.078 1.518-.097 2.841.428 1.09.097 1.966-.214 1.303-.156 3.989l-.019 3.19q.272.78-.039.838H50.13q.895-.39 1.46-1.11.155-.739.077-1.926-.078-1.187-.613-4.378t.321-5.468q.034-.358.455-.358zM51.53 0q-.804 0-1.03.507-.233.525-.506.875-.253.37-.33.545 0 .078.058.136.175.078.214.214.058.467.088.604.029.136.243.194l-.292 1.031q-.35.117-.136.331.084.084.168.084.13 0 .26-.2l.564-1.246q.049-.068.141-.068.093 0 .229.068l-.058.837h-.02q-.33.467-.33.74-.74 2.218-.429 4.407t.603 4.144q.292 1.956.214 2.637-.291.837-1.887 1.557-.72.175-.72.603h3.97q.467-.292.058-1.401v-5.624q0-1.109.194-1.342.37-1.051-.116-2.14l.155-.935h.662V3.29q0-1.226-.02-1.751-.019-.525-.262-.944-.243-.418-1.625-.593L51.53 0zm11.625.669h.147q1.809 0 3.45 1.556l-1.016.82q-.95-.906-2.484-.906t-2.484.907l-1.016-.821Q61.372.669 63.155.669zm.097 2.096q1.707.022 2.808 1.793h-5.638q.864-1.771 2.83-1.793zm0-2.765q-2.679.108-4.515 2.203L60.271 3.5q-.648.864-.8 1.62h7.54q-.151-.756-.8-1.599l1.426-1.296Q65.931.108 63.252 0zm6.801 6.986q.32 0 .32.336v2.584h-.978l.321-2.722q.016-.198.337-.198zm.015-.413q-.78 0-.826.443-.32 2.89-.688 2.905l-7.095.26-.734-.03q-.825-.872-1.467-.872l-.475-.03q-1.3.244-1.56.244-.183 0-.183.245 0 .336.52.336.893-.142 1.37-.142.086 0 .16.005.26 0 .427.214-.298.369-1.334.369l-.164-.002q-1.177-.03-2.08-.306-.443 0-.443.52.046.474 3.318.49l1.453-.154 8.287-.046 2.324.031v-3.73q-.015-.75-.81-.75zm-13.501 6.101V18h.89v-5.326zm6.12.008V18h.89v-5.318zm6.23 0V18h.89v-5.318zM76.388.591c.673 0 1.128.1 1.508.529.522.52.621 1.29.572 1.992-.01 1.612-.294 3.21-.766 4.75-.369 1.266-.811 2.51-1.214 3.766h-.196c-.018-.062-1.926-5.289-2.01-8-.015-.79-.129-1.684.412-2.341.334-.459 1.01-.696 1.694-.696zm.416 11.625v.684c0 .124.078.234.194.276.171.062.328.172.49.304h-2.39a1.7 1.7 0 0 1 .488-.304.294.294 0 0 0 .195-.276v-.684zm1.644 2.477c.06.121.07.367.054.538h-4.375a2.059 2.059 0 0 1-.023-.538zm-.465 1.819c-.317.471-.951.9-1.618.9-.721 0-1.422-.417-1.761-.9zM76.419 0c-1.275 0-2.737.735-2.737 2.246-.073.922.019 1.85.115 2.768.289 2.285 1.15 4.436 1.859 6.614h-.017c-.094 0-.446.01-.446.294v.784c-.402.198-.682.5-.955.723h-.876a.294.294 0 0 0-.294.294v.792c0 .157.184.287.342.293.07.133.083.252.1.375l-.329-.01h-.004a.307.307 0 0 0-.299.294v.76c0 .163.132.295.294.295.205 0 .675.01.757.01h.01c.368.843 1.355 1.468 2.426 1.468 1.04 0 1.944-.67 2.284-1.478h.764c.275 0 .293-.192.293-.294v-.761c0-.128.056-.285-.59-.285a1.48 1.48 0 0 0-.016-.368c.284-.017.416-.142.416-.3v-.791a.294.294 0 0 0-.294-.294h-.876c-.272-.222-.552-.525-.954-.723v-.784c0-.16-.128-.29-.287-.293.006-.037 1.839-5.082 1.93-7.732.07-.998.168-2.12-.5-2.956C78.12.368 77.683 0 76.42 0zm15.339 4.373q.074 0 .16.016.485.091.404.546-.074.418-.557.418-.043 0-.09-.004-.485-.202-.363-.626.1-.35.446-.35zm-.23-3.948q.088 0 .198.034.394.121.293.768l-.606 2.728q-.405.121-.566.647-.162.525.323.909-.226-.016-.385-.016-.237 0-.322.036-.043.018-.1.018-.133 0-.345-.099l1.556-4.284q-.464-.202-.353-.515.08-.226.307-.226zm2.168 5.466zm-.11-5.005q.04 0 .08.007.414.071.404.415-.01.343-.576.343l-.323 4.264q-.12.046-.212.046-.11 0-.182-.066-.132-.121-.576-.222.525-.081.596-.627.07-.545-.333-.91l.606-2.667q.164-.583.517-.583zm-3.203 6.296q-.208 0-.284.208.043.239.308.239.228 0 .622-.178-.409-.269-.646-.269zm-.264-.256q.829.04 1.415.545.168-.168.302-.168.108 0 .193.108.192.242-.283.727t-.576 1.637q-.1-.202-.202-.455-.087-.217-.67-.217-.093 0-.199.005-.263 0-.263-.465.075.003.138.003.539 0 .277-.154-.172-.1-.285-.1-.08 0-.13.05v-.263l-.323-.162q.182-.344.354-.536.171-.192.252-.555zm1.138-.832q.196 0 .428.044.98.181 1.466 1.06.485.88.303 5.123h-.364l.06-1.859q-.04-.828-.636-.838h-.007q-.59 0-.69 1.606h-.323q.02-2.243.394-2.647.373-.404.515-.819.141-.414-.131-.677-.162-.155-.383-.155-.153 0-.335.074-.465-.343-1.192-.464.262-.448.895-.448zm-3.401 6.43l2.142.323v.1q-1.071.041-2.162.183-.546-.182-.97-.485.687 0 .99-.122zm-2.506-2.75l-2.102 4.183-.848-.566 2.95-3.617zm7.7 6.765q.16 0 .202.187.08.364.727.748h-1.192l-.142-.768q.256-.167.406-.167zm-.497-6.513h.012q.323.031.08 2.739-.08 1.475-.626 3.718l.202.99H87.25q-.23.02-.426.02-1.044 0-1.12-.545-.091-.647 1.546-1.07l3.031-.87q.424-3.294.849-4.668v1.313h1.07q.04-1.627.353-1.627zM91.516 0q-.534 0-.74.469-.253.576.273.9l-1.536 3.94q-.393-.131-.644-.131-.098 0-.174.02-.055.014-.12.014-.258 0-.679-.226.494.829.997.829h.024q.054-.003.104-.003.428 0 .573.154.162.172.546.212-.384.626-.374.778.01.152-.374.677t-.07.626q.312.101.292.99l-.667 1.476q-.197.181-.388.181-.044 0-.087-.01-.037-.007-.07-.007-.172 0-.223.22.29.243.555.243.42 0 .78-.607l.767-1.313q.037-.003.072-.003.433 0 .433.467-.364 1.01-.586 2.021l-2.445.121q-.465-.282-1.192-.545l-.586-3.213-4.062 5.193q-.283.445-.182.526.1.06.209.06.215 0 .458-.242-.101.161-.132.343-.03.182.091.263.054.036.112.036.072 0 .15-.056.142-.101.243-.243-.181.485.101.687.02.013.042.013.123 0 .363-.376l2.425-4.85.343 1.859q-.045-.01-.077-.01-.095 0-.064.09.04.122.161.162-.03-.004-.057-.004-.256 0-.165.348.101.384.222.485-.303.162.182.283-.646.222-.434.717.182.426.447.426.043 0 .088-.012l.142-.02.06.404.425-.08-.081-.445.445-.141q.664.284 1.761.284.305 0 .643-.022l-.1.647-3.679 1.071q-1.03.525-.889 1.364.142.839 1.051.96h8.73v-.404q-1.192-.707-1.364-1.263-.101-.329-.419-.329-.219 0-.54.157.424-1.92.545-3.435h.626q.364-5.336-.545-6.103.137-.049.299-.049.242 0 .54.11.103.037.215.037.423 0 .967-.543-.54-.15-.823-.15-.1 0-.168.019-.087.023-.164.023-.152 0-.26-.094-.113-.1-.147-.1-.013 0-.015.015l.202-3.856q.627-.02.647-.687.02-.667-.717-.879-.137-.04-.264-.04-.553 0-.898.757l-.607 2.79-.182-.041.647-2.789q0-.99-.748-1.122Q91.638 0 91.516 0z"/></svg>