<svg xmlns="http://www.w3.org/2000/svg" width="77.773" height="18"><path d="M3.73.474c.693 0 1.247.2 1.634.479.006.053.02.107.009.16-.05.248-.195.477-.396.63-.316.207-.697.267-1.057.356-.09.01-.019.031.031.04.23.04.707.099.971.099l.052-.001c.278-.032.54-.148.766-.311.079-.067.147-.15.205-.236.147.346.227.713.26.917.018.11.096.2.202.233 1.139.349 2.038 1.91 2.88 2.949 1.729 2.137 3.199 4.526 4.892 6.76-.937-.456-1.87-.916-2.81-1.374-1.92-1.01-3.92-1.816-5.604-3.09l-.008-.008c-.97-.808-1.963-1.66-2.339-2.793-.148-.92 1.757-2.577 1.542-2.646a.207.207 0 0 0-.064-.01c-.458 0-1.753 1.128-2.019 2.202-.003-.014-.01-.03-.014-.045-.073-.356-.154-1.256.068-1.98a.29.29 0 0 0 .01-.103 1.968 1.968 0 0 0-.123-.634c-.063-.17-.139-.344-.26-.765-.031-.108-.142-.328-.208-.345.186-.138.375-.28.645-.375a.434.434 0 0 0-.132.314c0 .23.164.415.365.415.2 0 .364-.186.364-.415V.894a.411.411 0 0 0-.255-.39c.053-.007.096-.019.154-.022.081-.006.16-.008.238-.008zm.67 7.763c.065.065.135.124.202.187.214.78.412 1.64.692 2.305.483 1.145 1.216 2.141 1.84 3.154a1.814 1.814 0 0 0-.385.27 6.831 6.831 0 0 0-.199.193 2.61 2.61 0 0 0-1.186-.897c.045-.723-.108-1.712-.34-2.787A34.903 34.903 0 0 0 4.4 8.237zm1.006.908c1.149.945 2.428 1.738 3.676 2.54-.018.91-.018 1.778.084 2.675a3.411 3.411 0 0 0-1.437-.736c-.02 0-.037.012-.057.012-.649-1.063-1.383-2.06-1.837-3.134-.156-.37-.293-.85-.429-1.357zm.407 5.254a2.5 2.5 0 0 1 .44.541.3.3 0 0 0 .257.14.29.29 0 0 0 .17-.053c.215-.156.347-.324.476-.446.047-.045.097-.08.148-.117l.149 2.722c-.213-.014-.435-.035-.637-.035-.264 0-.495.036-.633.172-.169-.134-.497-.164-.89-.164-.102 0-.207.002-.316.004l.836-2.764zM6.97 9.574c1.354.787 2.784 1.414 4.135 2.125a.244.244 0 0 0 .006.003c1.295.631 2.586 1.28 3.894 1.904.984 1.189 2.052 2.295 3.078 3.42l-2.15.362-4.267-4.635a.288.288 0 0 0-.037-.036c-1.499-1.137-3.152-2.082-4.66-3.143zM3.796 0c-.135 0-.273.005-.411.013C2.3.083 1.512.54 1.243 1.157c-.04.093-.146.314-.007.314a2.35 2.35 0 0 1 .341-.028c.418 0 .38.172.47.194.09.282.29.846.303 1.068-.244.86-.153 1.763-.064 2.198.15.732.63 1.584 1.261 2.38a.285.285 0 0 0 0 .166 35.3 35.3 0 0 1 .903 3.336c.251 1.168.393 2.277.317 2.823a.294.294 0 0 0 .221.328c.045.011.084.031.127.045l-.928 3.079a2.847 2.847 0 0 0-.593-.055c-.381 0-.756.05-1.064.05-.125 0-.24-.008-.34-.032a.546.546 0 0 0-.125-.012c-.436 0-1.428.306-1.34.879.15-.128.257-.159.375-.159.11 0 .23.027.405.027h.027c.254-.004.697-.083 1.053-.083.18 0 .338.02.438.08.236-.01.45-.013.649-.013.85 0 1.447.07 2.5.075a89.565 89.565 0 0 0 2.974-.079c.45.003.697.054.922.054h.04c.134-.004.265-.057.48-.057.123 0 .273.017.468.07-.25-.341-.877-.685-1.33-.685a.591.591 0 0 0-.302.071 5.081 5.081 0 0 0-.508-.022c-.22 0-.448.01-.678.02l-.157-2.83c.487.203.857.517 1.281 1.021a.295.295 0 0 0 .513-.246c-.192-1.039-.213-2.019-.202-3.06.54.354 1.072.713 1.576 1.094l4.36 4.738a.29.29 0 0 0 .263.09c.95-.159 1.9-.315 2.849-.474a.294.294 0 0 0 .23-.193.298.298 0 0 0-.06-.297c-.741-.83-1.508-1.631-2.25-2.445 1.269.78 2.875 1.755 3.08 1.755.022 0 .027-.013.012-.04-.094-.163-.9-.755-1.775-1.373.14.058.276.12.415.177l.017.01c.103.035.16.059.27.062a.286.286 0 0 0 .108-.016.317.317 0 0 0 .188-.152.32.32 0 0 0 .023-.238c-.017-.05-.038-.077-.054-.098-.061-.085-.103-.109-.162-.154a4.553 4.553 0 0 0-.205-.149c-.153-.105-.336-.223-.493-.328a4.992 4.992 0 0 1-.328-.233.307.307 0 0 0-.028-.025l-3.892-2.736c-.008-.006-.02-.001-.028-.006-1.333-1.869-2.588-3.825-4.046-5.627C9 4.496 8.145 2.888 6.758 2.352 6.69 1.956 6.54 1.225 6.003.703 5.547.26 4.888.056 4.147.011A5.728 5.728 0 0 0 3.796 0zm13.74 2.229c-.478 0-.799.277-.793.718.007.478.328.755.793.755.466 0 .744-.278.737-.755-.006-.442-.283-.718-.737-.718zm.055-1.594c.315 0 .63.066.946.196.606.25 1.015.685 1.285 1.275.274.601.255 1.21 0 1.813-.255.6-.69.995-1.285 1.247a2.343 2.343 0 0 1-.923.189 2.74 2.74 0 0 1-.975-.19c-.603-.229-1.003-.672-1.274-1.246a2.13 2.13 0 0 1-.19-.916c0-.634.277-1.196.7-1.652.208-.226.467-.398.764-.52.32-.13.636-.196.951-.196zM17.516 0c-.833 0-1.488.289-2.076.878-.602.603-.857 1.26-.869 2.106-.006.49.093.921.292 1.313.158.773.167 2.065-.043 2.065-.366 0-.156-.97-.174-1.274-.03-.515-.335-.954-.696-1.302-.084-.08-.175-.17-.296-.183a3.318 3.318 0 0 0-.349-.023c-.136 0-.27.015-.396.06-.089.033-.092.16-.063.242.03.085.088.175.186.187.025.003.05.004.074.004.12 0 .24-.03.36-.03h.015c.05 0 .107.004.143.04-.081.152-.193.3-.21.478a.465.465 0 0 0 .016.208c.236.652.38 2.15 1.357 2.15.185 0 .274-.04.333-.094.434-.403.44-1.086.414-1.652.574.54 1.221.765 2.021.776h.047c.819 0 1.472-.303 2.06-.868.159-.154.294-.311.406-.476.027.56.054 1.124.26 1.65.161.415.522.717.91.922.03.016.051.023.066.023.048 0 .019-.074-.036-.127a2.354 2.354 0 0 1-.574-.87c-.208-.57-.187-1.184-.174-1.78.008-.364.024-.73.003-1.093h-.003c.012-.112.018-.227.02-.346.01-.853-.287-1.503-.879-2.106-.6-.61-1.255-.869-2.106-.878h-.039zm10.639 4.787q-.407 0-.471.314v.019q.046.083.194.083.425-.185.425-.342v-.018q0-.037-.148-.056zm1.477-.572q-.064.36-.637.775l.203.083.277-.101.139.092q1.062.508 2.816.536l2.752.027h.037q.47 0 .457.688-.014.716-.485 1.436-.295 0-.6-.226t-.499-.53q-.194-.306-.498-.795.092.97.554 1.524-.564 0-1.002.106-.22.053-.366.053-.147 0-.22-.053-.092-.066-.457-.066-.222 0-.545.024-.25.02-.456.02-.5 0-.75-.112-.23-.194-.29-.679-.06-.485.272-1.343-.683.489-.683 1.486v.333q-.342-.351-.536-.776-.378-.942-1.034-.942-.25 0-.96.314-.24-.101-.194-.323l.461-.619q.333-.563.48-.628.074-.138.72-.138.278.074.278.203 0 .175-.185.35.351-.073.508-.415 0-.083.443-.304zm.398-1.965q-.045 0-.102.072-.702 1.117-1.275 1.551-.221.194-.6.203-.184 0-.563-.277-.563-.545-.785-.923-.25-.444-.323-.49-.037 0-.056.093 0 .526 1.072 1.948-.204.296-.379.674-.175.379-.416.577-.24.199.047.393 0 .24.397.388l.988-.287q.397 0 .545.333.489.738.489 1.542.055 1.071-.739 2.05-.25.166-.25.461 0 .12.306.12.498 0 .498-.12l-.037-.249q0-.13.194-.194v-.018q0-.176.628-1.764.286 0 .453.277.212.702.212 1.164 0 .101-.13.434-.156.12-.193.434h.739l-.056-.231q-.037-.139.102-.24l-.065-.342q-.12-1.302-.12-1.533v-.018q.73-.176 1.122-.176.392 0 .605.143.084.057.236.057.231 0 .618-.13.419-.142.643-.142.12 0 .183.04.185.115.185.392 0 1.016-.517 1.727-.166.166-.25.462h.638q.166-.056.074-.277.018-.24.221-.305 0-.84.74-1.662.516.286.525.886 0 .231-.092.628l-.11.305q-.102.12-.185.453h.609q.11-.047.139-.102l-.093-.296q-.046-.129.13-.23-.093-.49.12-.74-.434-1.015-.434-1.597.23-.95.295-1.782.11.582.028 1.395-.083.812.277 1.68.07.146.128.146.04 0 .075-.072.092-.526.037-2.909-.074-.295-.157-.452-.296-.453-.508-.471H32.91q-2.207 0-3.269-.628.176-.314.194-.43.019-.115 0-.281-.443.13-.664.342l-.185-.139q.194-.12.619-.776.424-.655.498-1.025-.031-.062-.073-.062zm4.894 10.098c.487.021.755.032.87.032h.052l-.062 2.547a3.738 3.738 0 0 1-.97-.576l.11-2.003zm-7.108-.634c-.162.031-.377.131-.35.325v1.42c-.315-.015-.64-.031-.735-.031 0 .178.147.42.603.42.005.403.079.896.152 1.147l.063.66c0 .074.126.095.262.095.163 0 .34-.031.34-.031l-.025-.66c2.589.02 7.526.151 7.773.151.126 0 .21-.136.21-.325l.062-2.846-1.556-.016-.126 2.217c-1.127.006-3.077.19-4.403.19-.42 0-.781-.017-1.027-.069-.053-.058-.54-.765-.85-.844a1.36 1.36 0 0 0-.183-.02c-.052-.43-.105-.86-.152-1.285.094-.12.31-.09.367-.252.058-.078.02-.21-.09-.215-.062-.026-.235-.031-.308-.031zm13.025-7.16c-.203.097-.45.367-.075.412.18-.007.593-.195.518-.367a.166.166 0 0 1-.118.05c-.107 0-.216-.095-.325-.095zm-1.478.067c-.248.06-.375.33-.06.39l.016.001c.182 0 .676-.22.269-.27-.068-.046-.135-.12-.225-.12zm1.973-1.883c.443.517.833 1.118.908 1.808.075.495.098.99.173 1.478-.353-.03-.248-.577-.18-.84.06-.518-.218-.998-.413-1.456-.135-.247-.263-.638-.608-.645-.382.067-.63.39-.878.668-.255-.255-.525-.533-.878-.638a.177.177 0 0 0-.06-.01c-.08 0-.172.035-.215.035-.036 0-.036-.026.043-.123.047-.168.146-.218.269-.218.178 0 .407.106.6.106a.42.42 0 0 0 .084-.008 2.801 2.801 0 0 0 1.156-.158zm-.12.57c.293.075.36.48.503.72.18.42.398.878.255 1.351-.112.225.03.51.015.675-.25.176-.47.547-.802.547a.474.474 0 0 1-.113-.014c-.33-.067-.496-.383-.75-.533-.185.178-.295.548-.599.548a.464.464 0 0 1-.137-.022c-.278-.06-.645-.03-.728-.368-.142-.345-.157-.728-.18-1.103a.243.243 0 0 0 .046.005c.152 0 .165-.177.18-.328.057-.22.215-.321.39-.321a.57.57 0 0 1 .352.134c.128.142.518.255.435.48-.037.135-.082.277-.127.42l.315.42c.03-.217.352-.397.165-.615-.03-.098-.143-.225-.128-.3.135-.24.315-.45.526-.63a.241.241 0 0 1 .172-.077c.2 0 .403.263.578.287.172-.188-.015-.263-.188-.36a.526.526 0 0 0-.365-.147.602.602 0 0 0-.49.266c-.143.086-.242.371-.367.371-.04 0-.082-.028-.128-.1-.23-.184-.504-.39-.804-.39a.642.642 0 0 0-.134.014c-.213.044-.403.474-.42.474-.008-.353.157-.669.255-1.014a.459.459 0 0 1 .447-.357c.13 0 .26.055.355.177.224.083.388.475.598.475a.2.2 0 0 0 .115-.04c.233-.247.42-.54.758-.645zm-1.065 5.207c.953.983 1.83 3.475 2.056 4.495-.368-.3-.87-.495-.983-.683-.12-.195-.45-2.093-1.073-3.812zm3.391-1.785c1.801 1.035 4.938 6.13 5.605 6.948-1.125-.713-2.236-1.433-3.444-2.019-1.695-.832-3.144-2.183-4.524-3.444 1.14-.382 1.958-1.028 2.363-1.485zm-1.868 6.468c.24.142.458.337.72.442-.157.39-.255.826-.578 1.133-.06.098-.147.129-.245.129-.171 0-.378-.092-.552-.092a.44.44 0 0 0-.035.001c.21-.525.525-.758.69-1.613zm.51-7.024c.046.094.104.125.165.125.081 0 .168-.053.24-.087.18.127.803.112.436.383-.233.315-1.476 1.174-2.34 1.326-.373.065.254.655.456.865 1.17 1.05 2.319 2.16 3.722 2.918.878.496 1.8.938 2.649 1.486.405.585.885 1.126 1.193 1.771-.308.09-.608.218-.923.293a2.168 2.168 0 0 1-.527.061c-.496 0-.994-.147-1.214-.384-.405-.428-.848-2.251-1.08-2.919-.034-.075-.08-.1-.131-.1-.102 0-.22.099-.277.099a.031.031 0 0 1-.028-.014.293.293 0 0 0-.29-.282c-.131 0-.254.096-.235.297-.045.473-.135.946-.36 1.373-.028.073-.085.101-.161.101-.213 0-.571-.22-.815-.28.098-.579-.69-3.535-3.001-6.011-.08-.088-.433-.459-.402-.459.003 0 .012.005.027.016.118.031.251.052.383.052.253 0 .502-.078.63-.314.02-.06.044-.082.072-.082.103 0 .258.3.423.3a.69.69 0 0 0 .385.115.79.79 0 0 0 .583-.266c.143-.128.278-.255.42-.383zm-.78-3.924c-.236.105-.649.21-1.02.21a2.02 2.02 0 0 1-.158-.007.603.603 0 0 1-.107.009c-.253 0-.525-.136-.77-.136a.466.466 0 0 0-.264.074c-.413.6-.788 1.268-.833 2.011-.082 1.426-.045 1.92 1.08 3.091.444 1.006 1.269 4.285 1.517 5.178.27.255-.338 1.65-.593 1.996-.14.191-.505.2-.898.2h-.129c-.353 0-.711.008-.932.145-.21.135-.285.638-.165.705.113-.172.338-.405.495-.427-.15.157.376.082.488.12.304.005.61.03.919.03.149 0 .298-.006.447-.023.067-.03.14-.075.171-.075.025 0 .025.027-.021.113.212.055.451.083.684.083.525 0 1.023-.14 1.132-.42a8.15 8.15 0 0 0 .585-1.299c.192.04.432.176.626.176a.284.284 0 0 0 .154-.04c.21-.144.428-.811.548-1.254.012-.046.074-.069.137-.069.061 0 .122.021.14.061.226.45.601 1.831.961 2.41.272.427.93.638 1.632.638.44 0 .899-.083 1.287-.249.488-.21.848-.165.743-.435-.165-.45-.45-.878-.75-1.26.435.27.87.547 1.305.817.036.131.126.183.219.183.177 0 .362-.193.179-.385-1.703-2.461-4.412-6.656-6.288-8.014a2.525 2.525 0 0 0-1.043-.563c-.128-.33-.09-.773-.165-1.148-.075-.743-.525-1.973-1.313-2.446zm8.289.459h.1q1.241 0 2.367 1.067l-.697.563q-.652-.622-1.704-.622t-1.704.622l-.697-.563Q48.47 2.71 49.693 2.71zm.066 1.438q1.17.015 1.927 1.23h-3.868q.593-1.215 1.941-1.23zm0-1.897q-1.837.074-3.097 1.512l1.052.889q-.444.592-.548 1.111h5.172q-.104-.519-.549-1.097l.978-.889q-1.17-1.452-3.008-1.526zm9.506.23q.068 0 .128.03.103.052.147.177t0 .198q-.103.117-.206.125h-.03q-.092 0-.205-.037-.088.088-.206.22-.146.191-.396.602-.28.456-.411.647-.309-.177-.514-.177.925-1.145 1.197-1.439.271-.294.396-.33.052-.016.1-.016zm-1.987 2.24q.411.206.5.368.087.161.014.161t-.176.089q-.074-.265-.338-.617zm-.103.427l.646 2.423q-.308 0-.646.235V5.147zm2.063-2.897q-.198 0-.418.194l-1.733 2.071q-.558-.088-.866-.617.205-.25.697-.705.492-.455.404-.602-.042-.088-.144-.088-.252 0-.87.544-.66.47-1.057.763-.205.191-.338.668-.132.478-.396 1-.264.52-.25.814.037.184.121.184.085 0 .217-.184.191-.323.455-.734.265-.411.661-.764.28-.19.529-.235.279.103.426.397v8.106q-.867.235-.896 1.131-.044.338.206 1.043.176.514.66.514-.323-1.219-.323-1.557.03-.675.588-.675.602 0 .631.675 0 .338-.308 1.557.485 0 .646-.514.25-.705.191-1.043.015-.896-.896-1.13V8.421q.455-.323 1.19-.426-.294-1.498-.58-2.056-.253-.494.233-.494.064 0 .141.009-.176-.69-.705-.881V4.5q.032-.003.065-.003.296 0 .64.238.22-.293.5-.778.293-.5.396-.631.103-.133.147-.147.084.03.159.03.187 0 .318-.185.184-.257.007-.499-.176-.242-.396-.272-.026-.003-.052-.003z"/><path d="M23.701.375v17.25m0-17.25h2.625m-2.625 17.25h2.625m0-17.25h33.447m-33.447 17.25h33.447m0-17.25h17.625m-17.625 17.25h17.625M61.535.375v17.25M65.06.375v17.25M66.823.375v17.25M68.585 2.1h8.813m-8.813 3.45h8.813M68.585 2.1v3.45m1.763-1.725h7.05m-8.813 3.45h8.813m-8.813 3.45h8.813m-8.813-3.45v3.45M70.348 9h7.05m-8.813 3.45h8.813m-8.813 3.45h8.813m-8.813-3.45v3.45m1.763-1.725h7.05" fill="none" stroke="#000"/></svg>