<svg xmlns="http://www.w3.org/2000/svg" width="75.163" height="18"><path d="M11.386 8.203c-.51.04-.793.296-.847.767.067.51.35.78.847.806.498-.026.76-.295.787-.806-.04-.47-.303-.726-.787-.767zm.06-1.694c.364 0 .7.068 1.01.202a2.659 2.659 0 0 1 1.371 1.361c.134.303.201.622.201.958 0 .35-.067.676-.202.978a2.567 2.567 0 0 1-2.38 1.523c-.362 0-.702-.064-1.018-.192a2.426 2.426 0 0 1-.816-.534 2.621 2.621 0 0 1-.545-.797 2.38 2.38 0 0 1-.202-.978c0-.336.068-.655.202-.958.134-.302.316-.571.545-.806.228-.236.5-.42.816-.555a2.574 2.574 0 0 1 1.019-.202zm-.04-.685c-.443 0-.86.084-1.25.252-.39.168-.726.396-1.008.685a3.36 3.36 0 0 0-.676 1.009 3.053 3.053 0 0 0-.252 1.24c0 .444.084.857.252 1.24.168.384.393.716.676.999a3.2 3.2 0 0 0 2.258.927c.444 0 .857-.084 1.24-.252a3.36 3.36 0 0 0 1.009-.675c.289-.283.518-.615.686-.999.168-.383.252-.796.252-1.24 0-.444-.084-.857-.252-1.24a3.268 3.268 0 0 0-1.694-1.694 3.053 3.053 0 0 0-1.24-.252zm6.111-3.281a.286.286 0 0 0-.075.01c-.143.04-.184.159-.124.358l1.042 2.696h.508L17.76 2.755c-.057-.141-.138-.212-.244-.212zm-.86.217c-.03 0-.06.005-.094.015-.165.048-.195.171-.09.37l.95 2.462h.507L16.928 2.99c-.063-.153-.153-.23-.271-.23zm2.571 3.976c.081 0 .174.014.278.043v.13a.933.933 0 0 0-.28-.05.506.506 0 0 0-.195.037 1.71 1.71 0 0 1-.502.104l.065-.065c.191-.07.343-.126.456-.17a.485.485 0 0 1 .178-.029zm-.1.29l-.234.078c.087.035.165.061.234.078-.052-.043-.052-.095 0-.156zm.196 0c.026.052.017.109-.026.17a.807.807 0 0 0 .156-.053c-.009-.043-.052-.082-.13-.117zm-.065-.091c.112 0 .19.043.234.13l.117.065.013.065-.117.026a.433.433 0 0 1-.23.059 1.21 1.21 0 0 1-.473-.124h-.287v-.09h.3c.182-.088.33-.131.443-.131zm-2.357-1.08l.885 1.627c.058.08.112.121.162.121.025 0 .05-.01.073-.03l.286-.182c-.017-.061-.087-.152-.208-.274-.122-.121-.148-.267-.078-.436.039-.096.114-.144.225-.144.086 0 .193.029.321.085.278-.166.523-.25.735-.25l.06.003c.017-.2.047-.373.09-.52zm2.497.74c-.222 0-.512.097-.87.288-.078-.087-.156-.13-.234-.13-.078 0-.12.039-.124.117-.004.078.065.18.209.306.143.126.21.232.201.319l-.039.013a.64.64 0 0 0 .26.449c.148.109.348.167.6.176l.049.001c.13 0 .188-.033.172-.099a.206.206 0 0 1 .04-.189l-.075.002c-.243 0-.308-.042-.193-.125.086-.062.154-.093.205-.093.025 0 .045.007.062.021-.035-.13.035-.2.209-.208a7.423 7.423 0 0 1-.443-.847h-.029zm-.935.965l-.377.234c-.026.4-.109.677-.248.834a1.595 1.595 0 0 1 .352-.007.546.546 0 0 1 .3.15c.095-.278.203-.5.325-.664-.226-.165-.343-.347-.352-.547zm3.892 2.77c-.19 0-.367.092-.532.277.312.008.52.108.625.3.086-.218.195-.34.325-.365.13-.026.06-.085-.208-.176a.652.652 0 0 0-.21-.036zm-4.4-1.416c-.338 0-.55.191-.638.573-.121.53-.138 1.354-.052 2.474.105 1.285.226 2.348.365 3.19l-.156.234h4.323l-.899-.364c.26-1.276.586-2.212.977-2.806.39-.595.455-.979.195-1.152a.443.443 0 0 0-.247-.083c-.176 0-.35.127-.521.382l-1.758 2.5-.313-.026c-.19-1.944-.394-3.394-.611-4.349-.105-.382-.326-.573-.665-.573zM17.58 2.25c.25 0 .42.147.507.44l1.12 2.917h.56a3.265 3.265 0 0 0-.157.924c.06.243.176.486.345.73.164.234.13.351-.098.351h-.026c.061.087.053.139-.026.156.07.035.079.072.026.11-.052.04-.073.125-.065.255.026.382.128.692.306.93.146.197.28.295.4.295a.216.216 0 0 0 .076-.014.459.459 0 0 1 .154-.035c.051 0 .087.018.106.054.035.065-.01.133-.137.202a.324.324 0 0 1-.159.037.987.987 0 0 1-.414-.122c-.256-.125-.488-.514-.696-1.165h-.365a.993.993 0 0 0-.26.456c.312 1.007.568 2.482.768 4.427l1.758-2.474c.095-.148.217-.27.364-.365a.758.758 0 0 1 .616-.308c.065 0 .133.007.205.022v-2.8c0-.381.134-.577.403-.585a3.21 3.21 0 0 0-.638-.704c-.074-.132-.072-.198.006-.198.05 0 .13.027.242.081a8.5 8.5 0 0 1 .573.495c.217.226.34.393.37.501l.242.853c-.005.14-.028.21-.068.21-.031 0-.074-.043-.128-.132a12.31 12.31 0 0 0-.143-.43.629.629 0 0 0-.351-.377c-.148 0-.222.095-.222.286v2.852c.504.27.645.451.423.547a1.053 1.053 0 0 0-.498.467c-.063.43-.24.89-.53 1.382-.308.52-.588 1.285-.84 2.292l.99.43-.066.507h-5.56l.573-.677c-.277-2.7-.375-4.425-.293-5.176.083-.75.272-1.165.567-1.243.208-.209.29-.434.247-.677l-.325-.586a1.774 1.774 0 0 0-.769 1.51v6.849h-.286V8.901c0-.755.308-1.345.924-1.77l-.846-1.524h.6L16.16 3.21c-.13-.33-.072-.543.175-.638a.927.927 0 0 1 .333-.069c.113 0 .217.028.312.082.06-.191.236-.302.527-.332a.705.705 0 0 1 .073-.004zm13.956.293q.036 0 .075.01.215.059.124.358l-1.042 2.696h-.507l1.106-2.852q.085-.212.244-.212zm.86.217q.045 0 .094.015.248.071.091.37l-.95 2.462h-.508l1.003-2.617q.093-.23.27-.23zm-2.57 3.976q-.122 0-.278.043v.13q.154-.05.28-.05.108 0 .195.037.189.078.501.104l-.065-.065q-.286-.104-.456-.17-.077-.029-.178-.029zm.1.29l.234.078q-.13.052-.235.078.078-.065 0-.156zm-.196 0q-.04.078.026.17-.104-.027-.156-.053.013-.065.13-.117zm.065-.091q-.17 0-.234.13l-.118.065-.013.065.118.026q.095.059.23.059.195 0 .473-.124h.286v-.09h-.3q-.273-.131-.442-.131zm2.357-1.08l-.886 1.627q-.086.121-.162.121-.037 0-.072-.03l-.287-.182q.027-.092.209-.274.182-.182.078-.436-.059-.144-.226-.144-.128 0-.32.085-.417-.25-.735-.25-.03 0-.06.003-.026-.3-.091-.52zm-5.48-.941q.106 0 .22.016.064 0 .064.058 0 .059-.065.059-.833.117-.833 1.497 0 .73.326 1.25-.235-.182-.443-.182-.196 0-.547.143 0-.3.11-1.302.111-1.002.476-1.302.289-.237.693-.237zm2.982 1.682q.334 0 .87.287.117-.13.235-.13.117 0 .123.117.007.117-.208.306t-.202.319l.04.013q-.04.286-.261.449-.222.163-.6.176l-.048.001q-.196 0-.173-.099.026-.11-.039-.189l.075.002q.365 0 .192-.125-.128-.093-.205-.093-.036 0-.062.021.052-.195-.208-.208.286-.482.443-.847h.028zM26.631 8.47q-.04.196-.091.196-.052 0-.078-.196zm3.958-.911l.378.234q.039.6.247.834-.111-.015-.21-.015-.074 0-.141.008-.157.02-.3.15-.143-.417-.325-.664.338-.248.351-.547zm-4.388.976q.04.013.143.157.105.143.196.143.104 0 .208-.143.104-.144.143-.157l-.351.665-.339-.665zm.339 1.185l.13.365q-.065.026-.13.026t-.13-.026l.13-.365zm.158.609q.283 0 .532.277-.469.013-.625.3-.13-.326-.326-.365-.195-.04.209-.176.107-.036.21-.036zm4.399-1.416q.508 0 .638.573.182.794.052 2.474-.156 1.927-.364 3.19l.156.234h-4.323l.898-.364q-.39-1.914-.976-2.806-.586-.892-.196-1.152.124-.083.247-.083.264 0 .522.382l1.758 2.5.312-.026q.286-2.917.612-4.349.156-.573.664-.573zm.376-6.664q-.375 0-.506.44l-1.12 2.917h-.56q.156.52.156.924-.09.365-.345.73-.245.351.099.351h.025q-.091.13.026.156-.104.052-.026.11.078.06.065.255-.039.573-.306.93-.219.295-.399.295-.039 0-.076-.014-.093-.035-.154-.035-.078 0-.107.054-.052.098.137.202.067.037.16.037.166 0 .413-.122.384-.188.697-1.165h.364q.17.156.26.456-.468 1.51-.767 4.427l-1.758-2.474q-.144-.221-.365-.365-.078-.156-.377-.195-.326-.52-.326-.73 0-.142.163-.474.163-.332.306-.332v-.209q-.09-.08-.175-.08-.027 0-.053.009-.043.012-.084.012-.067 0-.131-.032 0-.195-.091-.495-.339-.755-.339-1.289 0-1.25.612-1.315.26 0 .26-.24 0-.242-.26-.242-.141-.023-.273-.023-.46 0-.794.284-.43.364-.54 1.38-.111 1.016-.098 1.706.56-.287.755-.287.443.117.443.521-.065.032-.131.032-.042 0-.084-.012-.027-.008-.053-.008-.086 0-.175.08v.208q.143 0 .306.332t.163.475q0 .208-.326.73-.52.116-.208.377.312.273.508.65.039.548.5 1.329.463.781.84 2.292l-.989.43.065.507h5.56l-.573-.677q.417-4.05.293-5.176-.124-1.126-.566-1.243-.313-.313-.248-.677l.326-.586q.768.56.768 1.51v6.849h.287V8.901q0-1.133-.925-1.77l.846-1.524h-.599l.925-2.396q.195-.495-.176-.638-.177-.069-.332-.069-.17 0-.312.082-.092-.286-.528-.332-.037-.004-.073-.004zm15.282 5.639q-.301.3-.301 1.104 0 .82.301 1.12h-9.936q.301-.3.301-1.12 0-.803-.3-1.104zm-11.86-.62q-.434 0-.418.285-.016.335.419.335h1.087q.401.3.401 1.104 0 .82-.401 1.12h-1.07q-.452 0-.452.285 0 .334.435.334h13.783q.418 0 .418-.334 0-.285-.435-.285h-1.07q-.402-.3-.402-1.12 0-.803.401-1.104h1.088q.418 0 .418-.335 0-.284-.418-.284zM51.93 2.25c.697 0 1.308.513 1.308 1.171V15.75h-.852V3.421c0-.322-.283-.427-.462-.427-.187 0-.475.131-.475.527v8.103h-.852V3.521c0-.66.653-1.271 1.333-1.271zm7.493 0l-.014.001a15.506 15.506 0 0 1-1.122.037c-.08.005-.087.107-.06.165.169.474.314.956.45 1.44h-.019c-.135.003-.271 0-.404.013l-.007.01c-.008-.03-.029-.058-.06-.065a28.706 28.706 0 0 1-1.275-.923c-.01-.002-.021-.005-.032-.005h-.007c-.042.026-.057.084-.08.127-.073.197-.135.399-.216.593-.058.148-.123.294-.167.446.02.042.056.055.097.055.038 0 .08-.012.113-.022.515-.11 1.045-.1 1.57-.107-.053.115-.075.243-.122.36-.021.066-.047.134-.061.202a.092.092 0 0 0-.013 0l-.016.001c-.64.248-1.265.552-1.811.97a6.77 6.77 0 0 0-.75.652c-.004.096.104.127.176.154l.442.182c-.074.103-.094.236-.141.353-.248.726-.597 1.413-.888 2.122.001.058.055.087.108.087.02 0 .04-.004.056-.012.103-.019.205-.028.309-.03-.022.08-.03.165-.066.24-.174.555-.46 1.065-.675 1.604-.01.058.045.095.098.095a.1.1 0 0 0 .044-.01 6.45 6.45 0 0 1 .797-.092c-.03.074-.037.157-.06.234-.129.545-.317 1.082-.34 1.646-.005.367.04.733.098 1.095.1.595.28 1.174.512 1.73.002.051.049.083.094.083a.081.081 0 0 0 .073-.04c.034-.075.044-.16.07-.238.133-.481.229-.974.271-1.472.042-.43.059-.863.056-1.295-.018-.505-.138-.999-.216-1.497-.014-.075-.023-.152-.043-.226a7.034 7.034 0 0 1 .764.127c.081 0 .099-.107.063-.164-.217-.567-.438-1.134-.62-1.714l.026.005c.22.04.44.091.663.104.07-.058.02-.152-.014-.216-.268-.582-.488-1.193-.575-1.83-.029-.173-.028-.35-.058-.523.19.077.379.154.569.228.083-.02.087-.121.07-.19a2.105 2.105 0 0 1 .267-1.198c.178-.318.436-.58.698-.828.104.09.225.156.343.227l-.06.015c-.215.418-.397.852-.59 1.28-.026.06-.055.12-.063.184.032.052.086.063.142.063.036 0 .072-.004.104-.004h.006l.24-.006c-.027.083-.034.176-.061.259-.155.639-.308 1.279-.46 1.919.018.068.086.082.15.082a.648.648 0 0 0 .054-.003l.397-.014c-.036.105-.053.218-.088.323-.172.628-.347 1.257-.514 1.886.018.07.088.085.154.085a677.2 677.2 0 0 1 .691-.021.867.867 0 0 0-.024.103c-.133.577-.336 1.144-.366 1.74-.002.54.077 1.077.2 1.602.103.423.247.836.411 1.239.006.046.05.077.093.077.025 0 .05-.01.065-.035.035-.062.042-.137.067-.205a8.4 8.4 0 0 0 .314-1.902c.021-.343.033-.687.018-1.03-.036-.492-.147-.974-.226-1.46-.009-.048-.016-.097-.029-.145.221-.007.443-.014.664-.023.078-.06.035-.167.013-.245-.188-.674-.375-1.349-.567-2.021.184-.007.37-.014.554-.023.078-.06.034-.166.01-.243l-.583-1.969.595-.016c.075-.05.038-.15.003-.214-.176-.4-.35-.801-.533-1.199.131-.054.262-.11.39-.171.354.33.662.728.804 1.196.082.278.087.573.059.86.015.044.053.061.095.061a.2.2 0 0 0 .1-.03l.444-.182-.004.004a5.206 5.206 0 0 1-.348 1.696c-.097.265-.22.52-.326.78-.006.057.047.091.099.091a.102.102 0 0 0 .05-.013c.196-.029.39-.067.585-.105-.04.108-.066.221-.11.327-.165.486-.353.965-.534 1.445-.013.057.038.107.091.107a.08.08 0 0 0 .041-.011 5.81 5.81 0 0 1 .717-.116.57.57 0 0 0-.013.066c-.079.447-.166.892-.223 1.342a4.98 4.98 0 0 0-.017.846c.025.713.097 1.429.288 2.118.032.117.063.236.101.351.015.03.045.044.076.044.037 0 .075-.021.084-.062a7.92 7.92 0 0 0 .565-2.05c.05-.41.083-.828.004-1.236-.079-.434-.208-.857-.31-1.285-.018-.05-.026-.104-.043-.153.123.003.246.011.37.027.17.018.34.054.511.069.073-.02.066-.116.03-.166-.239-.577-.55-1.13-.704-1.738l-.008-.032c.03 0 .058 0 .087.002.109.008.217.03.326.039.076-.034.058-.134.022-.192-.318-.723-.663-1.437-.909-2.19-.023-.058-.04-.124-.073-.176l-.006-.003c.199-.083.398-.166.595-.252.047-.08-.031-.156-.09-.201-.506-.462-1.063-.874-1.683-1.171a6.493 6.493 0 0 0-.716-.3c-.018-.055-.043-.11-.056-.163-.063-.181-.117-.368-.197-.542a.252.252 0 0 0 .053.004l.06-.001h.152c.46 0 .921.015 1.37.118.013.006.03.009.046.009.045 0 .093-.023.084-.074-.087-.273-.21-.534-.3-.807-.04-.112-.079-.225-.128-.332a.113.113 0 0 0-.06-.008c-.421.308-.835.628-1.27.916-.047.023-.106.07-.073.127v.001a.848.848 0 0 0-.158-.012l-.16.002a1.243 1.243 0 0 1-.068-.001h-.035a.077.077 0 0 0 .004-.029c.17-.508.34-1.022.631-1.476.036-.046.01-.127-.046-.137a.065.065 0 0 0-.012-.001zm6.157 0c-.697 0-1.309.513-1.309 1.171V15.75h.852V3.421c0-.322.284-.427.462-.427.187 0 .476.131.476.527v8.103h.852V3.521c0-.66-.653-1.271-1.333-1.271z"/><path d="M8.22.375c-9.625 0-9.625 17.25 0 17.25m0-17.25h58.693M8.22 17.625h58.693M74.6.375v17.25M66.913.375c9.625 0 9.625 17.25 0 17.25" fill="none" stroke="#000"/></svg>