<svg xmlns="http://www.w3.org/2000/svg" width="172.625" height="18"><path d="M6.174.386c.221 0 .566.052.757.104.832.223-.005.968-.54.968a.513.513 0 0 1-.073-.005c-.353.074.06.199.502.199.272 0 .555-.047.681-.18.072-.077.131-.108.182-.108.185 0 .258.417.406.623.74.245 1.203.913 1.682 1.486 1.377 1.65 2.617 3.405 3.917 5.115-.357-.105-.743-.31-1.097-.48-1.62-.783-3.347-1.401-4.814-2.455-.732-.525-1.712-1.134-1.793-2.056-.061-.702 1.227-1.337 1.134-1.717-.011-.044-.043-.064-.09-.064-.274 0-1.077.688-1.288 1.09-.081.155-.14.217-.182.217-.146 0-.077-.757.014-.93.31-.589-.628-1.325-.1-1.664-.016.088.002.337.312.337.325 0 .305-.4.205-.453a.435.435 0 0 1 .185-.027zm.616 5.477c.254.9.626 1.766 1.065 2.59.217.405 1.13 1.049.485 1.377a.194.194 0 0 1-.052.007c-.257 0-.519-.495-.855-.517a12.843 12.843 0 0 0-.265-1.873c-.103-.505-.36-1.176-.378-1.584zm.705.597c.795.576 1.63 1.093 2.472 1.6.222.497.034 1.222.149 1.805-.538-.363-1.112-.378-1.457-1.066-.385-.766-1.019-1.494-1.164-2.34zm.226 3.6c.134.235.335.383.538.383.16 0 .32-.091.45-.304.186.205.23.926.23 1.325.002.411-.214.446-.465.446l-.155-.002a.93.93 0 0 0-.278.032.453.453 0 0 1-.138.02c-.197 0-.423-.095-.636-.095-.02 0-.04 0-.06.002.001-.52.36-1.225.514-1.808zm1.603-2.968c1.69.766 3.36 1.59 5.054 2.351.648.679 1.239 1.448 1.96 2.049.538.45-.155.358-.474.418-.244.046-.492.08-.738.116-.87-.87-1.745-1.738-2.58-2.641-.909-.982-2.145-1.538-3.222-2.293zm-.512 5.693c1.105 0 2.211.013 3.316.042.556.014 1.197-.023 1.695.164-.658.042-2.304.058-4.042.058a201.337 201.337 0 0 1-5.037-.05c-.51 0-.097-.173.188-.173a.55.55 0 0 1 .076.005c1.267-.03 2.535-.046 3.804-.046zm-4.862.743c.75.01 1.5.02 2.25.045.495.017.989.023 1.483.023 1.398 0 2.796-.05 4.192-.05.188 0 .375.001.562.003-1.161.634-2.421 1.17-3.766 1.214-.152.005-.3.008-.445.008-.76 0-1.443-.08-2.196-.351-.656-.236-1.506-.523-2.08-.892zm6.649 1.558a.144.144 0 0 0-.078.02c-.256.16.368 1.331.895 1.613.04.021.078.03.115.03.192 0 .33-.259.247-.445-.214-.48-.87-1.218-1.18-1.218zm-4.848.055c-.042 0-.105.026-.194.086-.432.29-1.443 1.067-.823 1.496a.22.22 0 0 0 .129.042c.224 0 .442-.354.556-.556.12-.21.574-1.068.332-1.068zm4.06.177c-.274 0 .026 1.476.502 1.79.031.022.07.031.109.031.106 0 .222-.069.242-.173.123-.637-.473-1.61-.846-1.647a.08.08 0 0 0-.008 0zm-3.278.017c-.05 0-.13.062-.244.216-.302.408-1.043 1.256-.436 1.571.04.021.078.03.114.03.254 0 .4-.478.49-.72.081-.222.268-1.097.076-1.097zm2.271.162c-.023 0-.043.012-.06.037-.245.368-.164 1.491.42 1.817a.196.196 0 0 0 .097.026c.172 0 .306-.25.276-.423-.07-.41-.517-1.457-.733-1.457zm-1.329-.011a.1.1 0 0 0-.058.023c-.391.291-1.017 1.466-.379 1.845.035.02.068.03.101.03.191 0 .35-.31.375-.504.04-.334.162-1.394-.039-1.394zm.655-.018a.08.08 0 0 0-.038.01c-.324.174-.62 1.573-.014 1.945a.175.175 0 0 0 .092.028c.164 0 .306-.252.306-.421-.002-.46-.123-1.562-.346-1.562zM6.352 0c-.205 0-.408.02-.598.054-.567.104-1.44.31-1.43.996a.711.711 0 0 1 .192-.028c.55 0 .663.789.553 1.27-.225.98.26 1.965.898 2.707.425 1.269.96 2.595.954 3.928-.003.556.408.592.256 1.158-.136.51-.373 1.566-.883 1.69a2.18 2.18 0 0 1-.182.007c-.323 0-.663-.056-.984-.056-.254 0-.497.036-.71.162-.444.264-.778.46-1.31.46l-.071-.001-.078-.002c-.895 0-1.953.472-2.118 1.411-.244 1.391-.044 2.827-.036 4.233.205.005.412.011.618.011.163 0 .325-.004.487-.016-.076-.844-.133-1.694-.079-2.539.039-.601-.113-1.44.465-1.781a.738.738 0 0 1 .383-.107c.506 0 1.005.499 1.472.712 1.306.596 2.697 1.036 4.147 1.036h.1c1.756-.025 3.375-.751 4.878-1.576a.616.616 0 0 1 .41-.148c.28 0 .562.17.622.463.262 1.292.154 2.632.067 3.94.157.012.315.015.473.015.156 0 .313-.003.47-.003.052 0 .105 0 .158.002.008-.911.089-1.823.047-2.733-.033-.721.107-1.55-.417-2.143-.68-.771-1.763-.76-2.704-.825a1.712 1.712 0 0 0-.117-.004c-.125 0-.257.01-.386.01a.973.973 0 0 1-.439-.08c-.294-.302-.66-.36-1.04-.36-.228 0-.462.021-.689.021a2.75 2.75 0 0 1-.22-.008c-.043-.588-.075-1.177-.107-1.766a.155.155 0 0 1 .111-.045c.294 0 .78.686 1.034.686.076 0 .13-.06.154-.217.094-.642-.155-1.343-.146-2.018h.016c.285 0 .766.368 1.053.617.898.779 1.67 1.717 2.513 2.566.334.38.681.803 1.163.803.13 0 .269-.031.42-.101.48-.223 1.5.065 1.609-.544-.462-.54-.994-1.018-1.47-1.547.58.274 1.144.678 1.747.941a.77.77 0 0 0 .24.078c.18 0-.489-.521-.668-.602-.665-.3.624-.188.098-.605-1.155-.915-2.466-1.648-3.699-2.473-.79-.998-1.506-2.067-2.3-3.068-.66-.774-1.221-1.636-1.941-2.356C8.895 1.783 8.245 1.66 8.2.937 7.858.252 7.09 0 6.352 0zm22.627.552q.178 0 .37.081.428.182.428 2.885v2.587h-4.855q1.875-2.572 2.573-3.888.698-1.315 1.061-1.54.201-.125.423-.125zM28.772 0h-.078q-.69.015-1.555 1.687-.865 1.671-3.423 4.985h6.628l-.015-3.72Q30.257.465 29.821.225 29.41 0 28.772 0zm-7.139 8.241l-1.755 2.075h.856l.899-1.072.907 1.072.882-1.072.907 1.072.899-1.072.908 1.072.898-1.072.908 1.072.881-1.072.908 1.072.907-1.072.882 1.072.908-1.072.898 1.072h.856L32.428 8.24l-.908 1.003-.882-1.003-.907 1.003-.908-1.003-.881 1.003-.908-1.003-.898 1.003-.908-1.003-.899 1.003-.907-1.003-.882 1.003-.907-1.003zm10.659 4.605a45.73 45.73 0 0 0 1.318.047h.08l-.096 3.86a5.663 5.663 0 0 1-1.469-.874l.167-3.033zm-10.77-.962c-.246.048-.572.2-.532.493v2.152a41.162 41.162 0 0 0-1.112-.047c0 .27.222.635.913.635.008.612.12 1.358.23 1.74l.096 1c0 .111.19.143.397.143.246 0 .516-.048.516-.048l-.04-1c3.924.031 11.406.23 11.779.23.19 0 .318-.207.318-.492l.095-4.313-2.359-.024-.19 3.36c-1.708.008-4.663.286-6.672.286-.635 0-1.183-.024-1.557-.104-.079-.087-.818-1.16-1.286-1.278a2.06 2.06 0 0 0-.278-.032c-.08-.651-.159-1.303-.23-1.946.142-.183.468-.135.555-.381.088-.12.032-.318-.135-.326-.095-.04-.357-.048-.468-.048zM49.433.671q-2.082 2.83-5.992 2.907-3.885-.076-5.967-2.907zM36.182 0q2.133 4.267 7.259 4.284Q48.59 4.267 50.725 0zm13.885 6.564q.215.253.215 1.252 0 .86-.265 1.467-.595-.607-.62-1.467.013-.999.67-1.252zm-1.606-.162q.616 0 .746.225-.075.645-.518.949-.253.24 0 .53.443.342.531 1.05 0 .355-1.15.355-1.152 0-3.453-.177-.784-.089-1.758-.936-1.125-.86-1.973-1.025h-.013q-.402 0-1.074.772-.683.784-1.315 2.086h-1.24q.114-.278 1.74-1.859Q40.57 6.83 40.872 6.83h.013q.848.216 1.417.665.328.259.67.259.25 0 .506-.14 2.099-.796 3.8-1.087.724-.124 1.182-.124zm1.346-.52q-.236 0-.574.088-2.315.038-4.616.72-.645.215-1.67.658-1.074-.784-2.06-.936h-.011q-.306 0-1.046.696-.752.708-2.37 2.34-.937.973-1.278 1.669v.025h1.985v-.607h.62q.696-1.606 1.277-2.213.499-.52.747-.52.041 0 .075.014.898.278 1.455.746.556.468 1.239.873.683.404 2.01.461.797.034 1.958.034.774 0 1.71-.015.294.074.51.074.378 0 .514-.226.443-1.087.443-1.947 0-1.012-.443-1.745-.128-.188-.475-.188zm.26 7.54q.215.253.215 1.252 0 .86-.265 1.467-.595-.607-.62-1.467.013-.999.67-1.252zm-1.606-.162q.616 0 .746.225-.075.645-.518.949-.253.24 0 .531.443.341.531 1.05 0 .354-1.15.354-1.152 0-3.453-.177-.784-.089-1.758-.936-1.125-.86-1.973-1.025h-.013q-.402 0-1.074.772-.683.784-1.315 2.086h-1.24q.114-.278 1.74-1.858 1.586-1.544 1.889-1.544h.013q.848.216 1.417.665.328.259.67.259.25 0 .506-.14 2.099-.796 3.8-1.087.724-.124 1.182-.124zm1.346-.52q-.236 0-.574.088-2.315.038-4.616.72-.645.216-1.67.658-1.074-.784-2.06-.936h-.011q-.306 0-1.046.696-.752.708-2.37 2.34-.937.973-1.278 1.669V18h1.985v-.607h.62q.696-1.606 1.277-2.213.499-.52.747-.52.041 0 .075.014.898.278 1.455.746.556.468 1.239.873.683.404 2.01.461.797.035 1.958.035.774 0 1.71-.016.294.074.51.074.378 0 .514-.225.443-1.088.443-1.948 0-1.012-.443-1.745-.128-.188-.475-.188zM57.129 0l-.02.01 3.624 6.945H62.1L58.475 0zm-3.037.01l-1.367.01 3.624 6.956 1.367-.01L54.092.01zm3.103 9.972c-.111 0-.223.01-.334.02-1.61.172-2.754 1.802-2.5 3.381.11 1.175.84 1.833 1.64 2.48 2.379 1.459 1.71.922 4.11 2.137l.385-.719c-2.855-1.336-3.2-1.549-4.09-2.136-.73-.587-1.306-1.235-1.256-2.217-.02-.679.385-1.377.84-1.711.365-.274.83-.436 1.286-.436.344 0 .668.081.952.284.719.354 1.114 1.529.587 2.268a1.396 1.396 0 0 1-1.114.597 1.03 1.03 0 0 1-.607-.192c-.364-.203-.638-.911-.263-1.306-.172-.183-.415-.405-.598-.405-.121 0-.212.09-.273.303-.405.972.243 2.076 1.215 2.34.172.05.344.08.516.08 1.114 0 2.147-.931 2.147-2.085.1-1.347-.972-2.582-2.319-2.663a3.272 3.272 0 0 0-.324-.02zm11.971-8.607q-.09.169-.203.372l-.192 1.117q0 .587.192 1.095.203.44.508.79-2.043-.373-3.679-.553 1.027-.61 1.614-1.354.598-.745 1.76-1.467zm4.818-.09q.62.045 2.087.936 1.467.88 3.024 1.456-1.14.067-2.482.485-1.354.406-2.844.609.237-.282.474-.801.226-.52.226-1.106 0-.598-.214-1.117-.113-.248-.271-.462zM71.61.765q.39 0 .75.158.383.158.676.43.293.259.474.631.147.372.17.801.022.429-.136.801-.17.373-.429.666-.27.305-.643.474-.372.158-.801.17h-.056q-.387 0-.745-.148-.384-.158-.677-.417-.282-.26-.452-.632-.158-.372-.18-.812 0-.418.158-.79.147-.372.406-.666.27-.304.643-.451.372-.203.79-.214l.052-.001zM71.548 0q-.738 0-1.457.156-1.557.339-3.16 2.02-1.601 1.67-2.809 1.783l-.022.79q2.742.236 5.382.722.987.18 2.077.18 1.825 0 3.937-.508 3.362-.812 4.265-.981h1.489v-.97h-1.534q-1.095-.373-2.934-1.479-1.828-1.105-3.486-1.5Q72.409 0 71.548 0zm1.127 8.157c1.035 0 2.33.532 2.956 1.159.548.548.62 1.275.64 1.95H69.11c.02-.675.092-1.402.64-1.95.627-.627 1.891-1.159 2.926-1.159zm0-.579c-1.227 0-2.548.567-3.322 1.341-.794.794-.884 1.84-.884 2.621v.305h8.412v-.305c0-.782-.06-1.827-.854-2.62-.774-.775-2.125-1.342-3.352-1.342zM64.1 13.772V18h17.15v-4.228H64.1m16.445.704v2.819h-15.74v-2.82h15.74zM86.78 2.631L84.197.03l-.932.832 2.631 2.647L83.25 6.14l.877.882 2.647-2.631 2.631 2.647.883-.877-2.581-2.756L90.304.882 89.427 0l-2.648 2.631zm7.176-.563q.257 0 .587.057 4.247.321 8.622 1.061l-.933 2.928q-3.957-.998-8.01-2.51-1.32-.45-1.159-1.029.12-.507.893-.507zm.123-.862q-1.437 0-1.723 1.176-.322 1.255 1.319 1.898 4.278 1.576 8.493 2.67.25.088.417.088.264 0 .323-.216l1.222-3.732q.129-.515-.482-.676-4.794-.772-9.201-1.19-.193-.018-.368-.018zM93.7 13.38q3.681 0 7.807 1.779-4.126 1.73-7.807 1.73-3.656 0-7.807-1.73 4.151-1.779 7.807-1.779zm0-1.136q-4.545 0-10.45 2.89Q89.155 18 93.7 18q4.546 0 10.45-2.866-5.88-2.89-10.45-2.89zM107.87 1.01l3.795.211c.067.735.033 1.555-.1 2.462-1.417-.783-2.648-1.674-3.695-2.673zM111.988 0c-.211 0-.43.137-.654.41l-4.102-.212c-.969.25-1.166.64-.593 1.166a1.38 1.38 0 0 1 .298-.037c.213 0 .351.073.415.22.09.207.33.477.723.81.392.333 1.457 1.02 3.193 2.062.205.514.432.771.68.771.116 0 .236-.056.362-.168 2.468 1.064 4.852 1.808 7.152 2.232l.325-.255-.793-.843c-1.689-.146-3.887-.802-6.596-1.969a7.007 7.007 0 0 1-.047-2.87l4.592.307c.682-.171.733-.525.152-1.06l-4.52-.188c-.19-.25-.385-.376-.587-.376zm1.065 9.569q2.431 0 5.156 1.175-2.725 1.142-5.156 1.142-2.415 0-5.156-1.142 2.741-1.175 5.156-1.175zm0-.75q-3.002 0-6.902 1.909 3.9 1.892 6.902 1.892 3.002 0 6.902-1.892-3.883-1.91-6.902-1.91zm-5.654 7.284q-.08 0-.153.024-.291.094-.257.282.029.16.26.16.042 0 .09-.006.317-.034.557-.256-.268-.204-.497-.204zm.148-.173q.617 0 1.905.736.646.334 1.417.334.372 0 .773-.078 1.01-.205 2.12-.359.379-.052.733-.052.688 0 1.286.197.907.3 1.506.385.599.086 1.899.154-.839.086-1.643.086t-1.898-.18q-.548-.09-1.055-.09-.506 0-.972.09-.933.18-2.122.334-.297.038-.584.038-.861 0-1.63-.346-.748-.51-1.553-.51-.356 0-.723.1-.325-.018-.29-.36.187-.462.803-.479h.028zm.457-1.745q-.37 0-.69 1.13-.268-.998-.691-.998-.063 0-.13.022-.513.325.342 1.249-.684.393-.684.992t1.009.667q.312-.082.61-.082.697 0 1.314.45.529.385 1.676.385.765 0 1.806-.171 1.277-.36 2.482-.36.458 0 .905.052 1.117.13 1.903.13.357 0 .645-.027 1.454-.035 1.454-.274-.393-.36-1.112-.479-1.522-.017-2.78-.53-.628-.257-1.541-.257-.913 0-2.11.257-.773.195-1.438.195-.912 0-1.624-.366-.736-.445-1.557-.736.684-.53.641-.88-.042-.352-.419-.369h-.01zM125.915 0q-1.617.037-2.677 1.171-1.171 1.283-1.283 2.565 0 .298.335.298h15.54q.335 0 .335-.353 0-.354-.334-.354h-15.04q.93-2.379 2.79-2.64h12.25q.334 0 .334-.352 0-.335-.334-.335zm3.513 6.416q.328 0 .411.388.132.602-.94.979-.226-1.092.263-1.317.149-.05.266-.05zm2.876 4.133v4.666h-.903v-3.631h-7.903v3.631h-.978V10.55zm-1.486 1.6v5.268h-6.755v-5.269zm-1.466-6.455q-.402 0-.81.301-.791.734-.283 2.089l-1.054 1.881h-5.25v5.833h1.543V18h7.903v-2.202h1.487V9.965h-4.723l.828-1.486q1.41-.282 1.618-1.355.056-.865-.659-1.26-.298-.17-.6-.17zm7.796 6.23V18h1.017v-6.076zM148.96.607c1.19 0 2.25.55 2.941 1.41h-5.882c.69-.86 1.75-1.41 2.94-1.41zm3.339 2.017c.227.432.373.914.417 1.425h-7.512a3.75 3.75 0 0 1 .417-1.425zm.42 2.033a3.75 3.75 0 0 1-.395 1.425h-6.729a3.75 3.75 0 0 1-.395-1.425zm-.78 2.032a3.762 3.762 0 0 1-2.98 1.458c-1.212 0-2.29-.57-2.978-1.458zM148.959 0a4.383 4.383 0 0 0-4.376 4.377 4.383 4.383 0 0 0 4.377 4.378 4.383 4.383 0 0 0 4.377-4.378A4.383 4.383 0 0 0 148.96 0zm-7.204 15.583q-.1 0-.195.03-.37.12-.327.36.037.203.331.203.054 0 .116-.007.403-.043.708-.327-.34-.26-.633-.26zm.19-.22q.786 0 2.427.937.823.426 1.805.426.474 0 .985-.1 1.286-.26 2.702-.457.481-.066.932-.066.877 0 1.64.251 1.155.382 1.918.49.763.11 2.42.197-1.068.109-2.093.109-1.024 0-2.42-.229-.697-.114-1.342-.114-.646 0-1.24.114-1.188.229-2.703.425-.378.05-.744.05-1.097 0-2.078-.442-.953-.65-1.978-.65-.453 0-.921.127-.414-.022-.37-.458.24-.588 1.024-.61h.035zm.582-2.224q-.472 0-.88 1.44-.341-1.272-.88-1.272-.081 0-.166.029-.654.414.436 1.59-.872.502-.872 1.265 0 .763 1.286.85.398-.104.777-.104.888 0 1.675.573.674.49 2.136.49.974 0 2.3-.218 1.627-.458 3.163-.458.583 0 1.152.066 1.424.165 2.425.165.455 0 .823-.035 1.852-.043 1.852-.348-.5-.458-1.416-.61-1.94-.022-3.542-.676-.801-.327-1.965-.327-1.163 0-2.689.327-.983.248-1.832.248-1.162 0-2.069-.466-.937-.567-1.983-.937.871-.676.817-1.123-.055-.447-.534-.468h-.014zm23.47-11.599zm.576 1.116c.016 0 .031.011.043.033a.324.324 0 0 1 .027.231.545.545 0 0 1-.073.206c-.01.015-.02.023-.026.023-.012 0-.017-.028-.014-.083.003-.055 0-.082-.011-.082-.005 0-.013.007-.022.022-.01.019-.02.028-.028.028-.012 0-.02-.018-.025-.054a.595.595 0 0 1 .013-.212c.046-.075.085-.112.116-.112zm-.116.562c.071 0 .098.02.08.06-.013.03-.03.045-.051.045a.056.056 0 0 1-.022-.005c-.03-.014-.033-.047-.007-.1zm.116-.72c-.034 0-.07.024-.109.071a.576.576 0 0 0-.106.312c-.013.137.011.214.073.231-.053.089-.073.162-.06.219.01.041.033.062.07.062a.166.166 0 0 0 .05-.009c.066-.022.123-.11.172-.265a.947.947 0 0 0 .053-.39c-.014-.107-.044-.177-.093-.213a.084.084 0 0 0-.05-.017zm.012-.796a.63.63 0 0 1 .568.324c.19.31.203.671.04 1.086-.081.206-.137.308-.167.308s-.035-.107-.012-.32c.044-.425-.022-.71-.199-.855a.297.297 0 0 0-.194-.071c-.148 0-.326.1-.534.303a1.789 1.789 0 0 1-.391.057c-.197 0-.268-.076-.212-.23.084-.229.335-.41.755-.542.126-.04.241-.06.346-.06zm-.697 1.583a.553.553 0 0 1-.225.225c.07-.106.066-.168-.013-.186.079-.017.158-.03.238-.04zm-.37.119c-.016.073.016.11.093.11a.344.344 0 0 0 .052-.004.288.288 0 0 1-.139.041.184.184 0 0 1-.073-.015c0-.07.022-.115.066-.132zm.675-.305l-.212.133a1.326 1.326 0 0 0-.2-.017.468.468 0 0 0-.29.076c-.098.075-.146.188-.146.338.06.016.116.024.169.024a.414.414 0 0 0 .248-.077.922.922 0 0 0 .272-.318l.198-.106-.04-.053zm-1.174-1.507l.463.31c-.269.27-.412.682-.428 1.237.017.185.008.503-.027.954.021.127.055.19.102.19a.073.073 0 0 0 .037-.012.344.344 0 0 1 .166-.06.184.184 0 0 0 .013.153c.017.031.04.047.068.047a.116.116 0 0 0 .051-.014.107.107 0 0 1 .033-.016c.006 0-.002.012-.026.036-.04.04-.014.08.08.12a.317.317 0 0 1 .185.191c.02.06.056.089.106.089a.212.212 0 0 0 .086-.023 2.03 2.03 0 0 0 .344-.211l.066.172-1.298.609c-.459-.756-1.498-1.593-1.761-2.154l1.74-1.618zm-2.174 2.267c.034 0 .07.006.106.018.434.324.91 1.359 1.36 1.818 0 .08-.079.172-.238.278-.264-.491-1.242-1.21-1.55-1.761.037-.22.16-.353.322-.353zm3.755-1.417c.109 0 .17.089.182.266.013.19-.007.37-.06.537-.053.168-.037.307.047.417a.378.378 0 0 0 .35.152l.186.252c.159.194.4.296.722.305.322.009.735.576 1.238 1.702.504 1.125.726 1.766.67 1.92-.04.106-.1.16-.181.16a.289.289 0 0 1-.125-.034c-.145-.07-.503-.34-1.072-.808-.57-.468-.965-.87-1.186-1.205-.22-.336-.084-.594.41-.775.495-.181.588-.43.279-.748a1.484 1.484 0 0 0-.576-.118 1.72 1.72 0 0 0-.748.184c-.092-.264-.204-.395-.337-.395a.312.312 0 0 0-.187.077c-.11.086-.207.13-.29.13-.077 0-.141-.04-.193-.117.097-.123.115-.2.053-.232a.16.16 0 0 0-.072-.015.486.486 0 0 0-.206.062c.023-.117-.019-.176-.126-.176a.375.375 0 0 0-.046.004V3.39c.061-.168.304-.26.728-.279.058-.066 0-.1-.177-.1l-.035.001a.932.932 0 0 0-.53.166c0-.177.036-.28.106-.312.071-.03.3-.072.69-.125.026.02.05.03.074.03.047 0 .088-.04.124-.123.053-.124.141-.192.265-.205a.22.22 0 0 1 .023-.002zm4.402 4.86c.015 0 .03.003.042.012.276.192-.294.572-.39.687-.017.022-.013.028.004.028.028 0 .087-.015.15-.015.043 0 .087.007.125.03.119.024.36.675.548 1.003-.11.061-.203.105-.313.166l-.33-.888c-.109-.293-.206-.15-.284-.302-.152-.303.136-.493.209-.579.066-.033.161-.143.239-.143zm-3.767 1.652c.535 0 .982.013 1.342.039a19.4 19.4 0 0 0-1.603 1.192c-.989-.274-1.528-.605-1.616-.993 0-.142.413-.219 1.238-.232.226-.004.439-.006.639-.006zm3.341-.451c.212.362.287.704.226 1.026-.062.323-.38.517-.954.583-.574.066-1.196.272-1.867.616-.672.344-1.007.57-1.007.675-.025.137.006.206.094.206.066 0 .162-.038.29-.113.487-.22.618-.272.683-.272.056 0 .064.038.201.042.045.097.09.106-.007.221l-1.778 1.016h-.035c-.278 0-.43-.101-.455-.305 0-.097.146-.329.437-.695.292-.367.881-.923 1.769-1.669.887-.746 1.688-1.19 2.403-1.331zM166.193 0l-3.14 2.768c-.432 0-.71.19-.834.57-.397 0-.644.298-.76.705l-.861.737.231.358.847-.714c.142.17.292.273.45.33.545.428.875 1.275 1.577 1.948.138.133.264.204.385.204a.36.36 0 0 0 .224-.085 10.794 10.794 0 0 0 1.761-.967.834.834 0 0 1 .216-.03c.316 0 .613.194.89.58.34.472.715.852 1.126 1.139.41.287.616.532.616.735 0 .159-.097.256-.291.291a19.205 19.205 0 0 0-1.771-.097c-1.255 0-1.892.209-1.911.627-.124.556.437 1.037 1.682 1.444-.724.883-1.09 1.426-1.1 1.629a.947.947 0 0 0 .16.57c.107.104.255.157.443.157.475 0 1.205-.335 2.192-1.005.168.079.25.185.245.317-.004.133-.093.228-.265.285a.916.916 0 0 0-.424.285c-.11.132-.028.199.245.199h.57c.309 0 .446-.345.41-1.033 0-.212.12-.336.358-.371.23-.08.3-.27.212-.57l.463-.026c.212.026.35.13.411.31.062.182.09.407.086.676-.004.27-.075.455-.212.557-.137.101-.205.203-.205.304 0 .102.159.153.477.153.23 0 .366-.025.41-.073a.437.437 0 0 0 .093-.219l.053-.821c-.035-.468.07-.79.318-.967.15-.3.048-.543-.305-.728-.168-.283-.163-.526.013-.729l.504-.304-.65-1.232c.345-.336.372-.61.08-.821a.279.279 0 0 0-.15-.043c-.203 0-.47.191-.803.573-.486-1.334-.888-2.27-1.206-2.808-.318-.539-.808-.821-1.47-.848l-.225-.463c.185-.283.285-.581.298-.894a1.343 1.343 0 0 0-.278-.875.826.826 0 0 0-.703-.347 1.707 1.707 0 0 0-.678.16l-.308-.6.702-.623-.198-.318zm-5.275 16.231q-.074 0-.143.023-.271.087-.24.263.028.148.243.148.04 0 .085-.005.295-.032.518-.239-.25-.19-.463-.19zm.138-.161q.576 0 1.777.686.602.312 1.32.312.347 0 .721-.073.941-.191 1.978-.335.352-.048.682-.048.642 0 1.2.184.845.279 1.403.359.559.08 1.77.143-.78.08-1.53.08t-1.77-.167q-.511-.084-.984-.084-.472 0-.907.084-.869.167-1.978.31-.277.036-.544.036-.803 0-1.52-.323-.698-.475-1.448-.475-.332 0-.674.093-.303-.016-.271-.335.175-.43.75-.447h.025zm.427-1.627q-.346 0-.644 1.053-.25-.93-.645-.93-.059 0-.12.02-.48.304.318 1.165-.638.367-.638.925t.941.622q.291-.076.569-.076.65 0 1.226.42.492.358 1.562.358.714 0 1.683-.16 1.191-.335 2.315-.335.427 0 .843.048 1.042.121 1.775.121.333 0 .602-.025 1.355-.032 1.355-.255-.366-.335-1.036-.447-1.42-.016-2.592-.494-.586-.24-1.437-.24-.852 0-1.968.24-.72.182-1.34.182-.851 0-1.515-.342-.686-.414-1.452-.685.638-.495.599-.822-.04-.327-.391-.343h-.01z"/></svg>