<svg xmlns="http://www.w3.org/2000/svg" width="87.822" height="18"><path d="M10.599 2.68q-.387 0-.717.308-.33.308-.33.724 0 .387.28.71.28.322.767.322.459 0 .76-.337.3-.337.3-.695 0-.387-.3-.71-.301-.322-.76-.322zm1.275 2.91q.086 0 .1.1 0 .085-.1.085-.086 0-.1-.086.014-.1.1-.1zm0-.044q-.143 0-.143.143 0 .115.143.158.086-.014.172-.086-.043-.215-.172-.215zm-.37-.154q.106 0 .227.01-.129.073-.057.187.071-.114.2-.114.244 0 .244.3-.143.1-.129.187.014.086.043.114-.1.1-.186.516-.058 0-.072-.043.014-.444-.029-.587-.129-.258-.358-.265h-.02q-.215 0-.345.15-.136.158-.093.358.043.201.616.445v.028q-.889-.229-.81-.795.069-.491.769-.491zm-.39-.147q-.558 0-.63.688-.071.688 1.118.917-.2.086-.33.316-.128.229-.143.473.06.018.115.018.117 0 .215-.083.143-.122.344-.609.305-.832.73-.832h.158q-.018-.108-.082-.108-.037 0-.09.037-.032-.065-.126-.065-.07 0-.175.036.201-.215.201-.43l-.025.002q-.094 0-.133-.102-.007.005-.02.005-.07 0-.302-.12-.28-.143-.824-.143zm5.265 1.178q-.083 0-.184.048-.322.15-.222 1.24.817-.732.68-1.061-.093-.227-.274-.227zm-4.755 1.488q-.087 0-.194.071.373.258.344 1.305h.186q.015-.99-.129-1.233-.084-.143-.207-.143zM10.298 5.36q-.502.014-1.103 1.01-.602.996-.602 2.917h.43q.014-1.52 1.318-1.52v1.52h.287V7.15q-.817-.616-.33-1.791zm.69 2.758q-.035 0-.074.008v1.476h-.888V8.126q-.031-.006-.06-.006-.456 0-.456 1.482.157 3.912.544 4.916l-.33.716h4.744l-.988-.43q.487-2.135 1.089-3.146.602-1.01.272-1.24-.082-.057-.171-.057-.266 0-.589.516l-1.977 2.666h-.502l-.114-3.941q0-1.484-.5-1.484zM10.6 2.25q.674.014 1.082.466.408.451.408 1.01 0 .473-.215.745-.172.287-.415.445l.033-.001q.23 0 .511.187.316.215.287.287.041-.033.087-.033.034 0 .07.018.087.043.072.172.416.143.416.889-.183-.092-.266-.092-.02 0-.035.006-.287 0-.774 1.146.1.086.272.33.172.243.172.845v.932h-.358q.014.788.1 3.21l1.992-2.723q.416-.341.658-.341.083 0 .145.04l.76-1.519q-.53-.258-1.161-.3.028-.388.272-.689.516.387 1.003.588-.315-1.448.337-1.734.198-.087.362-.087.38 0 .584.46.294.659-.924 1.49.544.258 1.117.258-.014.401-.286.716-.387-.4-1.018-.602l-.501 1.749q.157.057.2.358.043.301-.537 1.376-.58 1.075-.939 2.637l1.046.587-.071.674H8.95l.501-1.232q-.43-1.892-.444-4.902l-.788-.014q0-2.537.702-3.633.629-.981.959-.981.038 0 .073.014-.817-.43-.86-1.29 0-.616.452-1.032.451-.416 1.053-.43zm12.145 0c-.09 0-.096.283-.224.701-.147.476-.254 1.472-.592 1.665a.298.298 0 0 1-.153.039c-.1 0-.202-.038-.313-.038a.409.409 0 0 0-.126.02c-.159.05-.242.297-.409.326-.691.12-1.637.075-2.165.123-.34.03.567.698 1.473.698h.038c.189-.005.387-.013.585-.013.33 0 .658.024.927.135.265.109.576.425.572.735l-.11 9.109h1.02l-.053-10.289c-.001-.276.796-.464.9-.702.182-.415.089-2.247-.204-2.493a.016.016 0 0 0-.01-.004c-.132 0-.379 1.92-.766 2.333-.04.043-.118.062-.186.062-.072 0-.132-.022-.12-.062.246-.838.345-2.061-.042-2.329a.077.077 0 0 0-.042-.016zm8.861.273q.128 0 .209.155.126.201-.19.34-.302.152-.201.518l.29 1.249q-.303.038-.53.303V3.523q0-.795.215-.921.115-.08.207-.08zm-.712 2.834v.47l-1.035-.108q.025-.127.391-.26.267-.096.644-.102zm.453.029q.455.094.682.56l-.82-.086v-.18q0-.088.114-.264l.024-.03zm1.35.522q-.068 0-.2.227.327-.114.239-.202-.016-.025-.039-.025zm-2.901.656q-.038.076-.032.12.007.044.07.07-.076 0-.139-.039.013-.075.101-.151zm.114-.025q.113.012.201.063-.05.088-.164.151.05-.063.045-.126-.007-.063-.082-.088zm-.05-.05q-.178 0-.24.264.113.076.277.076.164 0 .278-.19h.302v-.1l-.302.025q-.14-.076-.316-.076zm-3.042-.341q.757 0 0 1.4-.757-1.4 0-1.4zm5.894-.32q.048 0 .087.042.139.164-.24.34.392.594.404 1.414l-.1.012q0-.832-.329-1.375l-.025.013q.24.53.252 1.754l-.113.012q-.076-1.224-.14-1.514l-.113-.416q.191-.282.317-.282zm-2.679.392q.124 0 .23.035.252.082.252.347h.177q.038-.24.151-.24.114 0 .038.24l-.353.555v1.186l-.038.013q-.05-.089-.12-.227-.07-.14-.095-.366h-.378q-.215 0-.215-.101 0-.19.202-.215 0-.1-.063-.1l-.252-.013q.076-.177-.152-.227 0-.101.202-.455v-.214l.038.05q.164-.075.253-.088.1 0 .302.088h.228V6.4h-.228q-.176-.114-.302-.114-.14 0-.29.114 0-.101.037-.114.205-.066.376-.066zm-.275-.312l1.136.121v.106h.315v-.072l.909.097q.012.063.126.417.164.492.139 3.47l-1.59.012V7.195q.088-.126.227-.353.139-.228.132-.486-.005-.217-.209-.217-.04 0-.087.009-.202 0-.252.252-.013-.202-.228-.297-.097-.043-.252-.043-.186 0-.454.062.012-.126.088-.214zm-2.956 4.069q.507 0 .61.347h-.48q-.392-.038-.392-.328.142-.02.262-.02zm3.726-1.091v1.438h1.363q-.013.782-.145 1.88-.133 1.098-.335 1.861-.202.764.265 1.243h-3.722q.126-.138.17-.467.044-.328-.284-1.11l-.946-2.864q.008-.418.224-.418.137 0 .356.165l1.287 1.906.48.605q.126.089.224.089.196 0 .28-.354.455-1.034.341-2.536-.441-.467.442-1.438zm1.09-6.636q-.17 0-.384.137-.34.227-.34 1.338v1.372q-.35.018-.593.073-.366.082-.6.353-.233.271-.233.75-.05.203-.013.38-.214.378-.214.517 0 .075.19.075l-.039.114q.025.063.076.076-.038.05-.025.113l.088.038q-.076.34.29.34h.265q.025.24.29.644-.012.025-.246.316-.233.29-.46.7t.1.801q.09 1.275-.39 2.36l-1.666-2.423q-.185-.606-.65-.606h-.019V7.952h.896v-.303h-.896q.909-1.754-.227-1.754-1.123 0-.227 1.754h-.883v.303h.87v1.766q-.706 0-.138.896 1.337 4.013 1.3 4.278-.039.278-.373.48-.334.201-.17.378h5.022q.252-.114 0-.353-.67-.795-.43-1.527.24-.732.417-3.546h.467v-.833q0-.757-.013-1.3.101-.012.227-.062l-.025-.379.227-.013q0-.933-.403-1.476.441-.177.201-.454-.093-.113-.194-.113-.158 0-.336.277-.328-.622-.732-.806.17-.095.404-.166l-.353-1.501q-.05-.177.215-.341.353-.252.138-.606-.158-.301-.41-.301zm2.972 8.37v1.316h2.906V10.62h-.57c-.165.293-.355.483-.569.57a.818.818 0 0 1-.635 0c-.21-.087-.397-.277-.563-.57zm1.762-4.794V8.01h-.66v2.67h.713V9.006h.825v-2.29h1.02c.183 1.424.677 2.482 1.484 3.174.806.692 1.803 1.093 2.99 1.204 1.186.11 1.965.267 2.337.469.372.201.557.405.557.61h1.448c-.222-.53-.518-.933-.89-1.21-.372-.276-1.062-.45-2.07-.521-1.009-.072-1.816-.204-2.42-.398a3.858 3.858 0 0 1-1.62-1.032c-.475-.494-.839-1.556-1.092-3.186zM58.145 2.84l.18.075-5.404 12.034c-.091-.06-.605-.312-.773-.507 0-.13.092-.219.36-.576.281-.375.58-.766.24-1.269-.157-.232-.373-.401-.654-.401-.174 0-.374.065-.6.221-.47-.28-.925-.42-1.666-.42-.13-1.141-.275-1.861-.435-2.762h5.36l3.392-6.395zm-.011-.59c-.03 0-.062.001-.094.004L54.602 8.38c-.12.2-.245.3-.375.3a.349.349 0 0 1-.045.003c-.505 0-1.936-.922-4.294-2.765-.54-.56-.82-1.12-.84-1.681-.02-.56.147-.88.503-.961a1.34 1.34 0 0 1 .29-.036c.2 0 .343.064.43.194.125.185.118.37-.022.555-.07.093-.134.139-.192.139-.057 0-.109-.046-.154-.139-.09-.185-.185-.278-.285-.278-.19.07-.235.236-.135.496.093.241.264.362.512.362.019 0 .039 0 .059-.002.28-.02.475-.115.585-.285.11-.17.165-.37.165-.6a.88.88 0 0 0-.225-.601c-.15-.17-.368-.278-.653-.323a1.027 1.027 0 0 0-.16-.013c-.232 0-.464.08-.696.238-.285.195-.45.516-.495.961-.045.445.077.936.368 1.471.29.536.813 1.074 1.568 1.614.756.54 1.474 1.056 2.155 1.546.016.064-.02.096-.106.096a.533.533 0 0 1-.075-.006h-3.843c.32 1.832.516 3.128.586 3.888.09-.006.179-.01.268-.01.702 0 1.403.209 2.104.626.15-.2.313-.3.488-.3s.265.095.27.285c-.306.488-.753.961-.908 1.516l1.681 1.081 5.72-13.105c-.182-.263-.42-.395-.717-.395zm3.773.843q1.511.22 1.58 1.382v8.382q-.707-.843-2.537-1.184l.957-8.58zm-.425-.843L60.35 12.272q2.52.289 3.135 1.8v1.678h.752V4.475q0-1.883-2.756-2.225zm17.639 1.78v1.756H66.189V4.03zM66.236 2.25v1.329h-.498v2.657h13.834V3.58h-.404V2.25h-.45v1.329h-1.116V2.25h-.45v1.329h-1.116V2.25h-.45v1.329h-1.092V2.25h-.475v1.329h-1.091V2.25h-.451v1.329h-1.115V2.25h-.451v1.329h-1.115V2.25h-.451v1.329h-1.092V2.25h-.45v1.329h-1.116V2.25zm1.199 11.494l-1.697 2.006h.828l.869-1.036.878 1.036.852-1.036.878 1.036.87-1.036.877 1.036.87-1.036.877 1.036.852-1.036.878 1.036.878-1.036.852 1.036.878-1.036.87 1.036h.827l-1.697-2.006-.878.97-.852-.97-.878.97-.878-.97-.852.97-.878-.97-.87.97-.877-.97-.87.97-.877-.97-.852.97-.878-.97z"/><path d="M8.22.375c-9.625 0-9.625 17.25 0 17.25m0-17.25h71.352M8.22 17.625h71.352M87.26.375v17.25M79.572.375c9.625 0 9.625 17.25 0 17.25" fill="none" stroke="#000"/></svg>