<svg xmlns="http://www.w3.org/2000/svg" width="203.657" height="18"><path d="M6.174.386c.221 0 .566.052.757.104.832.223-.005.968-.54.968a.513.513 0 0 1-.073-.005c-.353.074.06.199.502.199.272 0 .555-.047.681-.18.072-.077.131-.108.182-.108.185 0 .258.417.406.623.74.245 1.203.913 1.682 1.486 1.377 1.65 2.617 3.405 3.917 5.115-.357-.105-.743-.31-1.097-.48-1.62-.783-3.347-1.401-4.814-2.455-.732-.525-1.712-1.134-1.793-2.056-.061-.702 1.227-1.337 1.134-1.717-.011-.044-.043-.064-.09-.064-.274 0-1.077.688-1.288 1.09-.081.155-.14.217-.182.217-.146 0-.077-.757.014-.93.31-.589-.628-1.325-.1-1.664-.016.088.002.337.312.337.325 0 .305-.4.205-.453a.435.435 0 0 1 .185-.027zm.616 5.477c.254.9.626 1.766 1.065 2.59.217.405 1.13 1.049.485 1.377a.194.194 0 0 1-.052.007c-.257 0-.519-.495-.855-.517a12.843 12.843 0 0 0-.265-1.873c-.103-.505-.36-1.176-.378-1.584zm.705.597c.795.576 1.63 1.093 2.472 1.6.222.497.034 1.222.149 1.805-.538-.363-1.112-.378-1.457-1.066-.385-.766-1.019-1.494-1.164-2.34zm.226 3.6c.134.235.335.383.538.383.16 0 .32-.091.45-.304.186.205.23.926.23 1.325.002.411-.214.446-.465.446l-.155-.002a.93.93 0 0 0-.278.032.453.453 0 0 1-.138.02c-.197 0-.423-.095-.636-.095-.02 0-.04 0-.06.002.001-.52.36-1.225.514-1.808zm1.603-2.968c1.69.766 3.36 1.59 5.054 2.351.648.679 1.239 1.448 1.96 2.049.538.45-.155.358-.474.418-.244.046-.492.08-.738.116-.87-.87-1.745-1.738-2.58-2.641-.909-.982-2.145-1.538-3.222-2.293zm-.512 5.693c1.105 0 2.211.013 3.316.042.556.014 1.197-.023 1.695.164-.658.042-2.304.058-4.042.058a201.337 201.337 0 0 1-5.037-.05c-.51 0-.097-.173.188-.173a.55.55 0 0 1 .076.005c1.267-.03 2.535-.046 3.804-.046zm-4.862.743c.75.01 1.5.02 2.25.045.495.017.989.023 1.483.023 1.398 0 2.796-.05 4.192-.05.188 0 .375.001.562.003-1.161.634-2.421 1.17-3.766 1.214-.152.005-.3.008-.445.008-.76 0-1.443-.08-2.196-.351-.656-.236-1.506-.523-2.08-.892zm6.649 1.558a.144.144 0 0 0-.078.02c-.256.16.368 1.331.895 1.613.04.021.078.03.115.03.192 0 .33-.259.247-.445-.214-.48-.87-1.218-1.18-1.218zm-4.848.055c-.042 0-.105.026-.194.086-.432.29-1.443 1.067-.823 1.496a.22.22 0 0 0 .129.042c.224 0 .442-.354.556-.556.12-.21.574-1.068.332-1.068zm4.06.177c-.274 0 .026 1.476.502 1.79.031.022.07.031.109.031.106 0 .222-.069.242-.173.123-.637-.473-1.61-.846-1.647a.08.08 0 0 0-.008 0zm-3.278.017c-.05 0-.13.062-.244.216-.302.408-1.043 1.256-.436 1.571.04.021.078.03.114.03.254 0 .4-.478.49-.72.081-.222.268-1.097.076-1.097zm2.271.162c-.023 0-.043.012-.06.037-.245.368-.164 1.491.42 1.817a.196.196 0 0 0 .097.026c.172 0 .306-.25.276-.423-.07-.41-.517-1.457-.733-1.457zm-1.329-.011a.1.1 0 0 0-.058.023c-.391.291-1.017 1.466-.379 1.845.035.02.068.03.101.03.191 0 .35-.31.375-.504.04-.334.162-1.394-.039-1.394zm.655-.018a.08.08 0 0 0-.038.01c-.324.174-.62 1.573-.014 1.945a.175.175 0 0 0 .092.028c.164 0 .306-.252.306-.421-.002-.46-.123-1.562-.346-1.562zM6.352 0c-.205 0-.408.02-.598.054-.567.104-1.44.31-1.43.996a.711.711 0 0 1 .192-.028c.55 0 .663.789.553 1.27-.225.98.26 1.965.898 2.707.425 1.269.96 2.595.954 3.928-.003.556.408.592.256 1.158-.136.51-.373 1.566-.883 1.69a2.18 2.18 0 0 1-.182.007c-.323 0-.663-.056-.984-.056-.254 0-.497.036-.71.162-.444.264-.778.46-1.31.46l-.071-.001-.078-.002c-.895 0-1.953.472-2.118 1.411-.244 1.391-.044 2.827-.036 4.233.205.005.412.011.618.011.163 0 .325-.004.487-.016-.076-.844-.133-1.694-.079-2.539.039-.601-.113-1.44.465-1.781a.738.738 0 0 1 .383-.107c.506 0 1.005.499 1.472.712 1.306.596 2.697 1.036 4.147 1.036h.1c1.756-.025 3.375-.751 4.878-1.576a.616.616 0 0 1 .41-.148c.28 0 .562.17.622.463.262 1.292.154 2.632.067 3.94.157.012.315.015.473.015.156 0 .313-.003.47-.003.052 0 .105 0 .158.002.008-.911.089-1.823.047-2.733-.033-.721.107-1.55-.417-2.143-.68-.771-1.763-.76-2.704-.825a1.712 1.712 0 0 0-.117-.004c-.125 0-.257.01-.386.01a.973.973 0 0 1-.439-.08c-.294-.302-.66-.36-1.04-.36-.228 0-.462.021-.689.021a2.75 2.75 0 0 1-.22-.008c-.043-.588-.075-1.177-.107-1.766a.155.155 0 0 1 .111-.045c.294 0 .78.686 1.034.686.076 0 .13-.06.154-.217.094-.642-.155-1.343-.146-2.018h.016c.285 0 .766.368 1.053.617.898.779 1.67 1.717 2.513 2.566.334.38.681.803 1.163.803.13 0 .269-.031.42-.101.48-.223 1.5.065 1.609-.544-.462-.54-.994-1.018-1.47-1.547.58.274 1.144.678 1.747.941a.77.77 0 0 0 .24.078c.18 0-.489-.521-.668-.602-.665-.3.624-.188.098-.605-1.155-.915-2.466-1.648-3.699-2.473-.79-.998-1.506-2.067-2.3-3.068-.66-.774-1.221-1.636-1.941-2.356C8.895 1.783 8.245 1.66 8.2.937 7.858.252 7.09 0 6.352 0zM25.76.911v2.43q-.537-.8-3.22-.8h-1.984V.911zM25.79 0q-1.093.202-3.25.202h-2.662V3.25h2.663q1.407 0 2.014.293.618.294 1.205.84L25.79 18h1.175V0zm11.011.534c.954 0 2.148.49 2.726 1.068.506.505.572 1.176.59 1.798h-6.604c.019-.622.085-1.293.59-1.798.578-.578 1.744-1.068 2.698-1.068zm0-.534c-1.132 0-2.35.523-3.063 1.237-.732.732-.815 1.695-.815 2.416v.281h7.756v-.28c0-.722-.055-1.685-.787-2.417C39.18.523 37.932 0 36.802 0zm0 6.563q2.76 0 5.854 1.334-3.093 1.297-5.854 1.297-2.742 0-5.854-1.297 3.112-1.334 5.854-1.334zm0-.852q-3.409 0-7.836 2.167 4.427 2.15 7.836 2.15 3.409 0 7.837-2.15-4.41-2.167-7.837-2.167zm-.251 6.093l-.019.009 3.22 6.169h1.214l-3.22-6.178zm-2.698.009l-1.214.009L35.857 18l1.214-.009-3.22-6.178zM55.445.879c.282 0 .452.048.54.098.256.163.134.554.092.798h-1.265c-.03-.25-.168-.63.093-.798.088-.05.258-.098.54-.098zm-7.028 1.475v.88h-1.2v-.88zm6.235 0v.88h-5.946v-.88zm1.446 0v.88H54.94v-.88zm5.805 0v.88h-5.516v-.88zm1.552 0v.88h-1.263v-.88zM52.905 0l-.409.41 1.369 1.365h-7.227v2.038h17.396V1.775h-7.009L58.394.41l-.41-.41-1.265 1.262c-.076-.765-.6-.94-1.274-.962-.72.019-1.162.182-1.274.962L52.905 0zm-2.018 5.394q-1.736.04-2.873 1.257-1.257 1.377-1.376 2.753 0 .32.359.32h16.678q.36 0 .36-.38 0-.379-.36-.379h-16.14q.998-2.553 2.993-2.833h13.147q.36 0 .36-.379 0-.359-.36-.359zm-4.249 8.724V18h3.04v-.457h-2.584v-2.968h7.622v2.968h-2.312V18h2.768v-3.882zm13.416-2.38q1.402 0 2.973.677-1.57.659-2.973.659-1.392 0-2.973-.659 1.58-.677 2.973-.677zm0-.433q-1.73 0-3.98 1.1 2.25 1.092 3.98 1.092 1.732 0 3.98-1.091-2.24-1.101-3.98-1.101zm.564 3.095l-.227.132q-1.175 1.44-1.886 2.464-.483.265-.701.421-.218.157-.654.232-.55.038-.55.18v.133q-.006.038.38.038.192 0 .483-.01.31-.082.518-.082.104 0 .183.02.237.063.388.063.152 0 .242-.081.09-.08.137-.498 0-.113.787-.885.786-.773.9-1.17 0-.105.294-.266.104 0 .474.407.72.872.98 1.242.261.37.072.478-.19.11-.38.294-.171.168-.359.168-.02 0-.038-.002-.417.066-.417.218v.095h.976q.271-.146.478-.146.103 0 .19.037.26.109.402.109.218-.029.218-.18 0-.162-.151-.37-.237-.38-.597-1.331-.36-.953-1.204-1.38-.492-.33-.758-.33zM67.63 2.452q-.1 0-.196.03-.372.121-.328.362.037.203.332.203.054 0 .116-.007.405-.043.711-.328-.342-.26-.635-.26zm.19-.221q.789 0 2.435.94.826.428 1.812.428.475 0 .988-.1 1.29-.262 2.712-.459.483-.066.935-.066.88 0 1.646.252 1.159.383 1.924.492.766.11 2.428.197-1.071.11-2.1.11-1.027 0-2.427-.23-.7-.115-1.348-.115-.648 0-1.244.115-1.192.23-2.712.427-.38.049-.747.049-1.101 0-2.085-.443-.956-.652-1.985-.652-.455 0-.924.127-.416-.022-.372-.46.24-.59 1.028-.612h.035zM68.403 0q-.473 0-.883 1.444-.34-1.275-.882-1.275-.081 0-.166.028-.657.416.437 1.597-.875.503-.875 1.268 0 .766 1.29.853.4-.104.78-.104.892 0 1.681.575.676.492 2.143.492.978 0 2.308-.22Q75.869 4.2 77.41 4.2q.585 0 1.157.066 1.428.166 2.433.166.456 0 .825-.035 1.86-.043 1.86-.35-.504-.459-1.422-.612-1.947-.022-3.554-.678-.804-.328-1.971-.328-1.168 0-2.699.328-.987.25-1.838.25-1.166 0-2.077-.469-.94-.568-1.99-.94.875-.678.82-1.126-.055-.449-.536-.47L68.404 0zm1.943 6.685q-1.761.04-2.915 1.276-1.275 1.396-1.397 2.793 0 .324.365.324H83.32q.364 0 .364-.385 0-.384-.364-.384H66.945q1.012-2.591 3.036-2.875h13.34q.363 0 .363-.384 0-.365-.364-.365zm-.468 7.491c.786 0 1.6.226 2.44.678-.465.168-1.278.252-2.44.252-.875 0-1.533-.129-1.975-.387a3.79 3.79 0 0 1 1.975-.543zm11.266.722c.383 0 .77.008 1.142.1.213.063.451.133.582.327.068.08.03.197-.034.266-.25.247-.612.327-.951.365-.246.02-.493.03-.74.03-.886 0-1.771-.118-2.647-.248-.698-.118-1.396-.237-2.1-.307 1.53-.162 3.045-.495 4.589-.533h.16zm-11.266.866c1.162 0 1.975.084 2.44.252-.84.452-1.654.678-2.44.678a3.79 3.79 0 0 1-1.975-.544c.442-.258 1.1-.386 1.975-.386zm0-2.879c-.42.05-.63.271-.63.663-.313.05-.601.128-.865.234-.132-.24-.31-.36-.535-.36a.88.88 0 0 0-.33.072c-.341.25-.42.545-.234.886-.221.107-.638.46-1.25 1.057.62.598 1.036.954 1.25 1.068-.186.342-.107.634.234.876a.9.9 0 0 0 .334.074c.223 0 .4-.118.531-.352.27.1.563.175.876.224 0 .399.206.623.62.673.412-.05.619-.274.619-.673l.662-.117c.115.274.305.41.572.41.08 0 .167-.012.26-.037.363-.206.47-.49.32-.854a10.786 10.786 0 0 1 1.752-.79c.975 0 2.274.12 3.897.358 1.623.239 2.796.357 3.518.357.723 0 1.271-.124 1.645-.373.374-.25.56-.53.56-.844 0-.306-.186-.583-.56-.832-.374-.25-.922-.374-1.645-.374-.722 0-1.895.12-3.518.358-1.623.238-2.922.357-3.897.357a10.263 10.263 0 0 1-1.751-.79h-.011c.157-.37.053-.658-.31-.865a1.013 1.013 0 0 0-.256-.036c-.269 0-.461.14-.576.42l-.662-.117c0-.398-.207-.623-.62-.673zM89.535.53c.947 0 2.133.487 2.706 1.06.502.502.568 1.168.586 1.786H86.27c.019-.618.084-1.284.586-1.786.574-.573 1.732-1.06 2.679-1.06zm0-.53c-1.124 0-2.333.52-3.041 1.228-.727.726-.81 1.683-.81 2.4v.278h7.701v-.279c0-.716-.054-1.673-.78-2.4C91.894.52 90.658 0 89.534 0zm-.54 5.67v6.456h1.08V5.67zm-.809 8.76c.71 0 1.32 1.085 1.802 1.87.274.45.704.895 1.29 1.332-1.283-.437-2.174-.81-2.672-1.116-.497-.307-.834-.624-1.011-.95-.177-.325-.209-.766.167-1.004a.784.784 0 0 1 .424-.132zm.046-.54c-.258 0-.543.083-.832.282-.362.247-.473.64-.419 1.025.135.957.77 1.402 1.465 1.87.438.294 1.058.509 1.807.732.449.134.85.201 1.204.201.236 0 .45-.03.644-.09-.074-.353-.304-.655-.69-.906-.386-.251-.74-.637-1.06-1.158a16.62 16.62 0 0 0-.782-1.179 2.296 2.296 0 0 0-.837-.663 1.124 1.124 0 0 0-.5-.115zM97.13 0c-.93 0-1.745.684-1.745 1.562V18h1.136V1.562c0-.43.379-.57.617-.57.25 0 .634.175.634.703v10.804h1.136V1.695C98.908.815 98.037 0 97.13 0zm6.4.634q-.371 0-.371.438 0 .371.372.371.393-.022.393-.415 0-.394-.393-.394zm-1.442.285v.393l-.853.153q.394-.415.853-.546zm.044.524q.502.394.174.59-.502-.175-.743-.459l.569-.13zm1.53-1.005q1.027 0 1.639.787.612.786.656 2.426 1.595.328 2.12 1.442.085.722-.325.722h-.025q-.437-.022-.688-.24-.092-.08-.138-.08-.082 0-.026.243.087.383.962.93.874.546.142.906-.182.09-.387.09-.622 0-1.46-.822-1.115-1.093-1.18-1.661-.066-.568.458-1.05.312-.285.215-.285-.067 0-.324.133-.634.328-.667.961-.032.634.503 1.388.536.754 2.11 1.913.16.084.364.084.432 0 1.056-.38.918-.556-.918-1.715.678-.175.7-.59.852.284 4.786 5.29 1.05.699 1.072 1.027-.022.306-.328.371-.066.014-.133.014-.248 0-.523-.188-1.224.59-2.372.612h-.12q-1.066 0-1.77-.372.72.634.502 1.333-.106.34-.16.34-.058 0-.058-.383 0-.744-1.902-1.421v.83q-.112.47-.178.47-.063 0-.084-.426-.131-.94-.623-2.022-.492-1.082-1.563-2.994-1.071-1.913-1.366-2.754-.295-.842-.273-1.563.022-.722-.295-1.06-.317-.34-.186-.733.13-.393-.394-.743V.897q.569-.46 1.18-.46zm4.153 12.59q1.07.306 1.07.721l-.72 2.689q-.088.48-.59.48h-.875v-.043l1.115-3.41v-.437zM103.74 0h-.08q-.852 0-1.726.7-.503.175-1.027.809.72.655 1.311.808.066.306.415.853.022 1.443.394 2.393.371.951 2.492 5.104 1.049 2.186 1.049 2.689 0 .765-.962 3.431 0 .153-1.311.24-1.968.066-1.968.547 0 .284.263.284h5.814q.546-.437.612-.743.524.219.568.59.074.295.21.295.025 0 .052-.01.175-.066.175-.285-.153-.59-.765-1.136l.7-2.951q2.12-.066 3.694-.678.291.066.534.066.486 0 .777-.262.437-.394-.175-1.224-1.333-1.334-2.535-2.93-2.47-3.038-3.388-3.518-.306-.634-.732-1.006-.427-.371-1.541-.918-.022-1.29-.601-2.23Q105.423 0 103.74 0zm15.91.696q.928 0 .928 1.222 0 1.075-.927 2.129-.928-1.054-.928-2.129 0-1.222.928-1.222zm0 4.7q.654 0 .654 1.412 0 .8-.653 1.475-.654-.674-.654-1.475 0-1.412.654-1.412zm0 4.257q.654 0 .654 1.413 0 .8-.653 1.475-.654-.674-.654-1.475 0-1.413.654-1.413zm0-9.653q-1.685 0-1.685 1.918-.021 1.201.558 1.886.58.685.517.917-.738.864-.738 2.087 0 1.012.864 2.17-.864.865-.864 2.088 0 1.011.864 2.15.105.273-.59 1.285-.696 1.012-1.433 3.499h.927q.464-1.644.822-2.35.358-.706.759-1.149.421.443.77 1.149.347.706.81 2.35h.95q-.696-2.487-1.424-3.499-.727-1.012-.6-1.286.843-1.138.843-2.15 0-1.222-.801-2.086.8-1.16.8-2.171 0-1.223-.716-2.087-.063-.232.506-.917.57-.685.57-1.886Q121.358 0 119.65 0zm9.265.601c1.074 0 2.418.552 3.069 1.202.569.57.643 1.324.664 2.025h-7.435c.02-.7.095-1.455.664-2.025.651-.65 1.964-1.202 3.038-1.202zm0-.601c-1.274 0-2.645.589-3.449 1.392-.824.824-.917 1.91-.917 2.72v.317h8.732v-.316c0-.812-.062-1.897-.886-2.72C131.59.588 130.189 0 128.915 0zm-2.307 8.792q.537 0 1.415.292 1.505.502 3.118 2.097t1.29 2.957q-.322 1.362-1.254 2.043-.77.563-1.857.563-.23 0-.473-.025-1.397-.143-2.401-2.204-1.004-2.061-.932-3.674.072-1.613.502-1.9.209-.15.592-.15zm-.147-1.244q-.738 0-1.198.318-.968.68-1.075 2.795-.108 2.115 1.219 4.588 1.326 2.473 3.225 2.706.364.045.707.045 1.453 0 2.555-.797 1.362-.986 1.703-2.796.34-1.81-1.452-3.835t-3.871-2.688q-1.054-.336-1.813-.336zm11.264-6.424q2.014.293 2.105 1.842v11.177q-.941-1.124-3.38-1.58l1.275-11.44zM137.158 0l-1.509 13.363q3.361.385 4.181 2.4V18h1.003V2.966q0-2.51-3.675-2.966zm15.012.581q.188 0 .39.086.451.19.451 3.037v2.724h-5.11q1.973-2.709 2.708-4.094.734-1.384 1.117-1.622.212-.13.445-.13zM151.954 0h-.082q-.727.016-1.637 1.776t-3.604 5.249h6.978l-.015-3.918q-.077-2.616-.536-2.869Q152.624 0 151.953 0zm-1.834 9.469q2.566 0 5.442 1.24-2.876 1.206-5.443 1.206-2.55 0-5.443-1.206 2.894-1.24 5.443-1.24zm0-.793q-3.17 0-7.287 2.016 4.117 1.998 7.286 1.998 3.17 0 7.287-1.998-4.1-2.016-7.287-2.016zm0 6.162c.886 0 1.996.456 2.534.993.47.47.531 1.093.548 1.673h-6.14c.017-.58.079-1.203.549-1.673.537-.537 1.621-.993 2.508-.993zm0-.496c-1.053 0-2.185.486-2.85 1.15-.68.68-.757 1.576-.757 2.247V18h7.212v-.261c0-.67-.051-1.567-.732-2.247-.663-.664-1.822-1.15-2.874-1.15zm19.73-13.3c.334 0 .535.057.64.116.303.194.158.658.11.947h-1.5c-.037-.296-.2-.748.11-.947.104-.059.305-.116.64-.116zm-8.334 1.75v1.042h-1.424V2.792zm7.393 0v1.042h-7.05V2.792zm1.715 0v1.042h-1.372V2.792zm6.884 0v1.042h-6.542V2.792zm1.84 0v1.042h-1.497V2.792zM166.839 0l-.485.486 1.623 1.62h-8.57V4.52h20.63V2.105h-8.312l1.623-1.619L172.86 0l-1.5 1.497c-.09-.907-.711-1.117-1.51-1.142-.854.023-1.379.216-1.512 1.142L166.838 0zm-6.309 6.397c-.599 0-1.124.44-1.124 1.007V18h.732V7.404c0-.278.244-.368.397-.368.161 0 .409.113.409.453v6.965h.732V7.489c0-.567-.561-1.092-1.145-1.092zm7.74.377c-.018 2.784-.04 5.567-.058 8.351.041.45.065.904.117 1.353.03.24.187.464.153.71-.05.167-.16.427-.344.427a.257.257 0 0 1-.134-.042c-.299-.115-.584-.305-.912-.305-.019 0-.037 0-.056.002h-.048c-.626 0-1.24.138-1.861.198-.34.049-.677.126-1.021.126h-.044c.62-.14 1.234-.378 1.723-.795.666-.518 1.334-1.033 1.998-1.552.09-.11-.043-5.767-.088-8.453l.576-.02zm.34-.377h-.001c-.329.01-.818.005-1.146.026-.175.05-.144.247-.142.388l.136 8.222c-.727.555-1.447 1.12-2.178 1.67a3.724 3.724 0 0 1-1.359.519c-.213-.002-.429-.113-.641-.113a.492.492 0 0 0-.204.041c-.164.126-.22.47 0 .576.33.177.697.245 1.067.245.234 0 .469-.027.696-.07.527-.09 1.06-.142 1.589-.217.174-.015.355-.039.533-.039.193 0 .382.028.556.123.209.092.44.232.673.232a.52.52 0 0 0 .233-.054c.244-.152.385-.435.445-.71.049-.358-.193-.674-.189-1.03-.027-.389-.072-.777-.089-1.166.02-2.813.128-8.643.02-8.643zm5.816.441q.142 0 .295.065.343.145.343 2.308v2.07h-3.883q1.5-2.059 2.058-3.11.558-1.053.849-1.233.16-.1.338-.1zm-.165-.441h-.063q-.552.012-1.244 1.349t-2.738 3.988h5.302l-.012-2.977q-.058-1.988-.407-2.18-.329-.18-.838-.18zm-1.394 9.201c.674 0 1.518.346 1.926.754.357.357.404.83.417 1.27h-4.666c.013-.44.06-.913.417-1.27.408-.408 1.232-.754 1.906-.754zm0-.377c-.8 0-1.66.369-2.164.873-.517.517-.576 1.198-.576 1.707V18h5.48v-.199c0-.509-.039-1.19-.556-1.707-.504-.504-1.384-.873-2.184-.873zm5.363-7.952q-.09 0-.114.094 0 .097.101.097.017 0 .037-.003.138-.019.339-.069-.251-.113-.351-.12h-.012zm-.076-.132q.175.025.514.113.125.25.213.25.1 0 .163-.074.034-.024.058-.024.037 0 .049.061.019.1-.17.314.013.54.264.966-.176-.113-.282-.113-.107 0-.17.063 0-.201-.025-.452-.139-.148-.305-.148-.074 0-.152.029-.095.034-.156.034-.106 0-.114-.103-.063-.126-.038-.238-.025-.126-.138-.176l.289-.502zm.583-.502q.307 0 .659.145.35.144.363.683.013.615.013 1.104v1.706h-.2V8.768q-.34-.44-.352-.928.176-.251.15-.452-.025-.188-.2-.194h-.027q-.156 0-.237.069-.037-.176-.313-.239-.351-.075-.314-.088.15-.3.458-.3zm.225 2.492q.038 0 .082.005.214.05.201.263.05.978-.063 1.831.276.703.063 1.267-.138.84-.1 2.572l-.013 2.057q.176.502-.025.54h-1.242q.577-.252.941-.716.1-.476.05-1.241-.05-.766-.395-2.823-.345-2.057.207-3.525.022-.23.294-.23zm-.195-2.73q-.518 0-.663.326-.151.339-.327.565-.163.238-.213.35 0 .051.038.089.113.05.138.138.037.3.056.389.019.087.157.125l-.188.665q-.226.075-.088.213.054.054.108.054.084 0 .168-.13l.364-.802q.031-.044.09-.044.06 0 .148.044l-.038.54h-.012q-.213.3-.213.476-.477 1.43-.276 2.841.2 1.411.389 2.672.188 1.26.138 1.7-.189.539-1.217 1.003-.464.113-.464.389h2.559q.3-.188.037-.903v-3.625q0-.715.126-.866.238-.677-.076-1.38l.1-.602h.427V8.517q0-.79-.012-1.129-.013-.339-.17-.608-.156-.27-1.047-.383h-.039zm6.277-5.923c.694 0 1.248.2 1.635.479.007.053.02.107.009.16-.05.248-.195.477-.395.63-.316.207-.698.267-1.057.356-.09.01-.02.031.03.04.23.04.708.099.972.099l.052-.001c.278-.032.54-.148.765-.311.08-.067.147-.15.205-.236.147.346.227.713.26.917.019.11.096.2.202.233 1.139.349 2.038 1.91 2.88 2.949 1.73 2.137 3.199 4.526 4.892 6.76-.937-.456-1.87-.916-2.81-1.374-1.92-1.01-3.92-1.816-5.604-3.09l-.008-.008c-.97-.808-1.962-1.66-2.338-2.793-.149-.92 1.757-2.577 1.542-2.646a.207.207 0 0 0-.064-.01c-.46 0-1.754 1.128-2.02 2.202-.003-.014-.01-.03-.013-.045-.073-.356-.155-1.256.067-1.98a.29.29 0 0 0 .011-.103 1.968 1.968 0 0 0-.123-.634c-.064-.17-.14-.344-.261-.765-.03-.108-.142-.328-.208-.345.186-.138.375-.28.645-.375a.434.434 0 0 0-.131.314c0 .23.163.415.364.415.2 0 .365-.186.365-.415V.894a.411.411 0 0 0-.256-.39c.053-.007.096-.019.155-.022.08-.006.16-.008.237-.008zm.671 7.763c.065.065.135.124.202.187.214.78.412 1.64.692 2.305.483 1.145 1.216 2.141 1.84 3.154a1.814 1.814 0 0 0-.385.27 6.831 6.831 0 0 0-.199.193 2.61 2.61 0 0 0-1.186-.897c.045-.723-.108-1.712-.339-2.787a34.903 34.903 0 0 0-.625-2.425zm1.006.908c1.149.945 2.428 1.738 3.676 2.54-.018.91-.017 1.778.084 2.675a3.411 3.411 0 0 0-1.437-.736c-.02 0-.037.012-.057.012-.648-1.063-1.383-2.06-1.837-3.134-.155-.37-.293-.85-.429-1.357zm.407 5.254a2.5 2.5 0 0 1 .44.541.3.3 0 0 0 .258.14c.06 0 .119-.017.168-.053.216-.156.348-.324.477-.446.048-.045.097-.08.149-.117l.148 2.722c-.213-.014-.435-.035-.637-.035-.264 0-.495.036-.633.172-.169-.134-.497-.164-.89-.164-.102 0-.207.002-.315.004l.835-2.764zm1.158-4.825c1.354.787 2.784 1.414 4.135 2.125a.244.244 0 0 0 .006.003c1.295.631 2.587 1.28 3.894 1.904.984 1.189 2.052 2.295 3.079 3.42l-2.15.362c-1.423-1.546-2.846-3.089-4.268-4.635a.288.288 0 0 0-.036-.036c-1.5-1.137-3.153-2.082-4.66-3.143zM185.11 0c-.135 0-.272.005-.411.013-1.085.07-1.873.526-2.142 1.144-.04.093-.145.314-.007.314a2.35 2.35 0 0 1 .341-.028c.418 0 .38.172.47.194.09.282.29.846.303 1.068-.243.86-.153 1.763-.064 2.198.15.732.63 1.584 1.262 2.38a.285.285 0 0 0 0 .166 35.3 35.3 0 0 1 .902 3.336c.251 1.168.393 2.277.317 2.823a.294.294 0 0 0 .222.328c.044.011.083.031.126.045l-.928 3.079a2.847 2.847 0 0 0-.593-.055c-.381 0-.755.05-1.064.05-.125 0-.24-.008-.34-.032a.546.546 0 0 0-.125-.012c-.436 0-1.428.306-1.34.879.15-.128.257-.159.376-.159.11 0 .23.027.404.027h.027c.254-.004.698-.083 1.054-.083.18 0 .337.02.437.08.236-.01.45-.013.649-.013.85 0 1.447.07 2.5.075a89.565 89.565 0 0 0 2.975-.079c.45.003.696.054.921.054h.04c.134-.004.265-.057.48-.057.123 0 .274.017.468.07-.25-.341-.876-.685-1.33-.685a.591.591 0 0 0-.302.071 5.081 5.081 0 0 0-.508-.022c-.219 0-.447.01-.678.02l-.157-2.83c.487.203.857.517 1.281 1.021a.295.295 0 0 0 .514-.246c-.193-1.039-.214-2.019-.202-3.06.54.354 1.071.713 1.575 1.094l4.36 4.738a.29.29 0 0 0 .264.09c.949-.159 1.899-.315 2.848-.474a.294.294 0 0 0 .23-.193.298.298 0 0 0-.059-.297c-.742-.83-1.508-1.631-2.251-2.445 1.269.78 2.875 1.755 3.08 1.755.023 0 .028-.013.012-.04-.094-.163-.9-.755-1.775-1.373.14.058.276.12.415.177l.017.01c.103.035.16.059.27.062a.286.286 0 0 0 .109-.016.317.317 0 0 0 .188-.152.32.32 0 0 0 .022-.238c-.016-.05-.038-.077-.053-.098-.062-.085-.103-.109-.163-.154a4.553 4.553 0 0 0-.205-.149c-.153-.105-.336-.223-.493-.328a4.992 4.992 0 0 1-.328-.233.307.307 0 0 0-.028-.025c-1.297-.913-2.595-1.824-3.892-2.736-.008-.006-.019-.001-.028-.006-1.333-1.869-2.587-3.825-4.045-5.627-.745-.92-1.6-2.528-2.986-3.064-.067-.396-.218-1.127-.754-1.649-.456-.443-1.116-.647-1.856-.692A5.728 5.728 0 0 0 185.11 0zm17.544.33q.264 0 .452.238.187.236.187.468 0 .253-.143.452-.232.231-.507.231h-7.505q-.264 0-.507-.231-.143-.199-.143-.452.01-.232.198-.468.188-.237.441-.237zM195.17 0q-.507 0-.771.33-.254.331-.254.717.011.386.243.672.275.32.782.32h7.439q.507 0 .782-.32.243-.286.254-.672-.011-.386-.265-.716-.263-.331-.77-.331zm7.494 3.692q.264 0 .452.242.187.243.187.474 0 .243-.143.44-.232.232-.507.232h-7.494q-.275 0-.507-.231-.143-.198-.143-.44 0-.232.187-.475.188-.242.452-.242zm-7.483-.32q-.507 0-.771.32-.254.33-.254.716.011.386.243.672.275.331.793.331h7.428q.518 0 .793-.33.232-.287.243-.673-.011-.386-.254-.716-.264-.32-.771-.32z"/></svg>