<svg xmlns="http://www.w3.org/2000/svg" width="66.579" height="18"><path d="M15.117 4.63c-.511.04-.794.295-.847.766.067.51.35.78.847.807.497-.027.76-.296.786-.807-.04-.47-.302-.726-.786-.766zm.06-1.694c.363 0 .7.067 1.009.201a2.659 2.659 0 0 1 1.371 1.361c.134.303.202.622.202.959 0 .35-.068.675-.202.978a2.567 2.567 0 0 1-2.38 1.523c-.363 0-.702-.065-1.018-.192a2.426 2.426 0 0 1-.817-.535 2.621 2.621 0 0 1-.544-.796 2.38 2.38 0 0 1-.202-.978c0-.337.067-.656.202-.958.134-.303.315-.572.544-.807.229-.235.5-.42.817-.555a2.574 2.574 0 0 1 1.018-.201zm-.04-.686c-.444 0-.86.084-1.25.252-.39.168-.726.397-1.009.686a3.36 3.36 0 0 0-.675 1.008 3.053 3.053 0 0 0-.253 1.24c0 .444.085.857.253 1.24.168.384.393.717.675.999a3.2 3.2 0 0 0 2.259.928c.444 0 .857-.084 1.24-.253a3.36 3.36 0 0 0 1.008-.675c.29-.282.518-.615.686-.998.168-.384.252-.797.252-1.24 0-.444-.084-.858-.252-1.24a3.268 3.268 0 0 0-1.694-1.695 3.053 3.053 0 0 0-1.24-.252zm6.466 11.293V15.3H8.67v-1.756zm-12.885-1.78v1.33H8.22v2.657h13.834v-2.658h-.404v-1.328h-.45v1.328h-1.116v-1.328h-.45v1.328h-1.116v-1.328h-.45v1.328h-1.092v-1.328H16.5v1.328h-1.09v-1.328h-.451v1.328h-1.115v-1.328h-.451v1.328h-1.115v-1.328h-.451v1.328h-1.092v-1.328h-.45v1.328H9.168v-1.328zm20.734-9.24q.128 0 .209.155.126.201-.19.34-.302.152-.201.518l.29 1.249q-.303.038-.53.303V3.523q0-.795.215-.921.115-.08.207-.08zm-.712 2.834v.47l-1.035-.108q.025-.127.391-.26.267-.096.644-.102zm.453.029q.455.094.682.56l-.82-.086v-.18q0-.088.114-.264l.024-.03zm1.35.522q-.068 0-.2.227.327-.114.24-.202-.017-.025-.04-.025zm-2.901.656q-.038.076-.032.12.007.044.07.07-.076 0-.139-.039.013-.075.101-.151zm.114-.025q.113.012.201.063-.05.088-.164.151.05-.063.045-.126-.007-.063-.082-.088zm-.05-.05q-.178 0-.24.264.113.076.277.076.164 0 .278-.19h.302v-.1l-.302.025q-.14-.076-.316-.076zm-3.042-.341q.757 0 0 1.4-.757-1.4 0-1.4zm5.894-.32q.048 0 .087.042.139.164-.24.34.392.594.404 1.414l-.1.012q0-.832-.329-1.375l-.025.013q.24.53.252 1.754l-.113.012q-.076-1.224-.139-1.514l-.114-.416q.191-.282.317-.282zm-2.678.392q.123 0 .229.035.252.082.252.347h.177q.038-.24.151-.24.114 0 .038.24l-.353.555v1.186l-.038.013q-.05-.089-.12-.227-.07-.14-.094-.366h-.379q-.215 0-.215-.101 0-.19.202-.215 0-.1-.063-.1l-.252-.013q.076-.177-.152-.227 0-.101.202-.455v-.214l.038.05q.164-.075.253-.088.1 0 .302.088h.228V6.4h-.228q-.176-.114-.302-.114-.14 0-.29.114 0-.101.037-.114.205-.066.377-.066zm-.276-.312l1.136.121v.106h.315v-.072l.909.097q.012.063.126.417.164.492.139 3.47l-1.59.012V7.195q.088-.126.227-.353.139-.228.132-.486-.005-.217-.209-.217-.04 0-.087.009-.202 0-.252.252-.013-.202-.228-.297-.097-.043-.252-.043-.186 0-.454.062.012-.126.088-.214zm-2.956 4.069q.507 0 .61.347h-.48q-.391-.038-.391-.328.141-.02.26-.02zm3.726-1.091v1.438h1.363q-.013.782-.145 1.88-.133 1.098-.335 1.861-.202.764.265 1.243H25.8q.126-.138.17-.467.044-.328-.284-1.11l-.946-2.864q.008-.418.224-.418.137 0 .356.165l1.287 1.906.48.605q.126.089.224.089.196 0 .28-.354.455-1.034.341-2.536-.441-.467.442-1.438zm1.09-6.636q-.17 0-.383.137-.341.227-.341 1.338v1.372q-.35.018-.593.073-.366.082-.6.353-.233.271-.233.75-.05.203-.013.38-.214.378-.214.517 0 .075.19.075l-.039.114q.025.063.076.076-.038.05-.025.113l.088.038q-.076.34.29.34h.265q.025.24.29.644-.012.025-.246.316-.233.29-.46.7t.1.801q.09 1.275-.39 2.36l-1.666-2.423q-.185-.606-.65-.606h-.019V7.952h.896v-.303h-.896q.909-1.754-.227-1.754-1.123 0-.227 1.754h-.883v.303h.87v1.766q-.706 0-.138.896 1.337 4.013 1.3 4.278-.039.278-.373.48-.334.201-.17.378h5.022q.252-.114 0-.353-.669-.795-.43-1.527.24-.732.417-3.546h.467v-.833q0-.757-.013-1.3.101-.012.228-.062l-.026-.379.227-.013q0-.933-.403-1.476.441-.177.202-.454-.094-.113-.195-.113-.158 0-.335.277-.33-.622-.733-.806.17-.095.404-.166l-.353-1.501q-.05-.177.215-.341.353-.252.138-.606-.158-.301-.41-.301zm3.016 4.793V8.36h2.907V7.043h-.57c-.165.293-.355.483-.569.57a.818.818 0 0 1-.635 0c-.21-.087-.397-.277-.563-.57zm1.764-4.793v2.183h-.66v2.67h.712V5.43h.825V3.14h1.02c.183 1.424.677 2.481 1.484 3.174.807.692 1.803 1.093 2.99 1.204 1.186.11 1.965.267 2.337.468.372.202.558.406.558.611h1.447c-.222-.53-.518-.933-.89-1.21-.372-.277-1.062-.45-2.07-.522-1.009-.071-1.815-.203-2.42-.397a3.858 3.858 0 0 1-1.62-1.032c-.475-.495-.838-1.557-1.091-3.186zm-.267 11.678l-1.542 1.822h.752l.79-.942.797.942.775-.942.797.942.79-.942.797.942.79-.942.797.942.774-.942.798.942.797-.942.774.942.798-.942.79.942h.751l-1.541-1.822-.798.88-.774-.88-.797.88-.798-.88-.774.88-.797-.88-.79.88-.797-.88-.79.88-.797-.88-.775.88-.797-.88zM51.394 2.933v4.845h-3.25V2.933zm-3.918-.683v6.196h4.601V2.25zm2.301 10.629c.805 0 1.813.414 2.301.902.427.426.483.992.499 1.518H47c.016-.526.072-1.092.499-1.518.488-.488 1.472-.902 2.278-.902zm0-.451c-.956 0-1.984.441-2.587 1.044-.618.618-.688 1.432-.688 2.04v.238h6.55v-.237c0-.61-.047-1.423-.665-2.04-.603-.604-1.655-1.045-2.61-1.045zm6.655-9.656q.696 0 .696.917 0 .806-.696 1.596-.695-.79-.695-1.596 0-.917.695-.917zm0 3.525q.49 0 .49 1.059 0 .6-.49 1.107-.49-.506-.49-1.107 0-1.06.49-1.06zm0 3.193q.49 0 .49 1.06 0 .6-.49 1.106-.49-.506-.49-1.107 0-1.059.49-1.059zm0-7.24q-1.264 0-1.264 1.439-.016.9.419 1.414.434.514.387.688-.553.648-.553 1.565 0 .759.648 1.628-.648.648-.648 1.565 0 .759.648 1.613.079.205-.443.964t-1.075 2.624h.696q.347-1.233.616-1.763.269-.53.57-.861.315.332.576.861.261.53.609 1.763h.711q-.521-1.865-1.067-2.624-.545-.759-.45-.964.632-.854.632-1.613 0-.917-.6-1.565.6-.87.6-1.628 0-.917-.538-1.565-.047-.174.38-.688.427-.513.427-1.414 0-1.439-1.28-1.439z"/><path d="M8.22.375c-9.625 0-9.625 17.25 0 17.25m0-17.25h50.11M8.22 17.625h50.11M66.017.375v17.25M58.33.375c9.624 0 9.624 17.25 0 17.25" fill="none" stroke="#000"/></svg>