<svg xmlns="http://www.w3.org/2000/svg" width="81.234" height="18"><path d="M10.745 2.694c-.69 0-1.246.553-1.25 1.244v.007c0 .693.557 1.251 1.25 1.251s1.251-.558 1.251-1.251c0-.693-.558-1.251-1.25-1.251zm1.612 3.591c-.047.077-.114.144-.05.144a.306.306 0 0 0 .07-.012.289.289 0 0 0 .086.025c.053 0-.068-.102-.106-.157zm-1.103-.27c.288 0 .406.414.19.59a.258.258 0 0 1-.186.075.315.315 0 0 1-.31-.265c-.04-.187.098-.4.298-.4a.283.283 0 0 1 .008 0zm-.086-.247c-.033 0-.065 0-.097.002-.243.02-.51.125-.64.342-.053.291-.042.634.187.855.156.193.457.25.518.516.023.129-.053.337.089.337.018 0 .04-.003.066-.01.2-.295.38-.609.629-.866-.125-.132-.262-.339-.106-.502.105-.144.356-.38.032-.397-.14-.232-.424-.277-.678-.277zm-1.352.348c-.437.388-.583.986-.685 1.538-.042.247-.065.498-.09.747.223-.237.528-.463.861-.463a.725.725 0 0 1 .176.021c.202 0 .31.369.339.384l.11-.666c-.43-.149-.624-.611-.686-1.029a2.388 2.388 0 0 1-.025-.532zm.046 2.49a.724.724 0 0 0-.414.237c-.182.733-.117 1.494-.104 2.24-.012.27.03.55.016.826-.004 1.045-.216 2.078-.185 3.124l4.995.012-.643-1.316c.313-.742.702-1.452.999-2.202.128-.344.287-.696.287-1.07-.015-.115-.067-.157-.134-.157-.12 0-.288.136-.368.222-.625.602-1.132 1.314-1.633 2.02a19.472 19.472 0 0 0-1.285 2.096c.026-1.617.107-3.24-.097-4.85-.03-.352-.18-.678-.343-.987l-.018 2.25h-1.03c.01-.815.031-1.632-.043-2.444zm.883-6.356c.934 0 1.695.761 1.695 1.695a1.7 1.7 0 0 1-.751 1.406c.082.026.165.055.245.09.122.057.245.122.303.25.063.101.118.206.243.24.344.252.465.734.379 1.138a.066.066 0 0 1-.036.01c-.103 0-.279-.177-.352-.177a.033.033 0 0 0-.015.003c-.05.233-.217.408-.31.622a3.747 3.747 0 0 1-.626.832c.236.423.433.877.474 1.365.115.845.134 1.7.134 2.553.644-.882 1.305-1.764 2.107-2.51a.886.886 0 0 1 .572-.223.6.6 0 0 1 .403.145c.29.287.247.73.172 1.094-.215.926-.621 1.792-.983 2.666-.05.192-.262.402-.093.585.209.336.504.616.694.962.101.238.088.504.056.754l-6.49-.016c-.083-.846-.084-1.7.005-2.546.042-.746.056-1.492.088-2.239l-.439-.039c.094-1.1.127-2.208.33-3.295.128-.606.277-1.234.653-1.74.18-.215.412-.375.666-.487a1.693 1.693 0 0 1-.819-1.443v-.012a1.697 1.697 0 0 1 1.695-1.683zm9.205.456h.099q1.233 0 2.352 1.061l-.692.56q-.648-.619-1.694-.619-1.046 0-1.694.619l-.692-.56q1.104-1.061 2.32-1.061zm.065 1.43q1.164.014 1.915 1.222h-3.844q.589-1.208 1.929-1.223zm0-1.886q-1.826.074-3.078 1.502l1.045.884q-.441.59-.544 1.105h5.14q-.103-.516-.545-1.09l.972-.884q-1.164-1.443-2.99-1.517zm1.455 4.635q.046 0 .086.02.069.035.098.118.03.084 0 .133-.069.078-.137.083h-.02q-.062 0-.137-.025-.06.06-.138.148-.098.127-.265.402-.186.304-.274.432-.206-.118-.344-.118.618-.765.8-.962.181-.196.265-.22.035-.01.067-.01zm-1.327 1.497q.275.137.334.245.059.108.01.108-.05 0-.118.059-.05-.177-.226-.412zm-.069.284l.432 1.62q-.206 0-.432.156V8.666zm1.378-1.935q-.132 0-.279.13l-1.157 1.384q-.373-.06-.58-.412.138-.167.467-.471.328-.304.27-.403-.029-.059-.097-.059-.168 0-.58.364-.442.313-.707.51-.137.127-.225.446-.089.319-.265.667-.177.349-.167.545.024.122.08.122.057 0 .146-.122.127-.216.304-.49.176-.276.441-.511.187-.128.353-.157.187.069.285.265v5.416q-.579.157-.599.755-.029.226.138.697.118.343.441.343-.216-.814-.216-1.04.02-.451.393-.451.402 0 .422.451 0 .226-.206 1.04.323 0 .431-.343.167-.471.128-.697.01-.598-.599-.755v-3.1q.305-.217.795-.285-.196-1-.387-1.374-.17-.33.156-.33.042 0 .094.007-.118-.462-.471-.59v-.048q.021-.002.043-.002.198 0 .428.159.147-.196.333-.52.197-.334.265-.422.069-.088.098-.098.056.02.106.02.126 0 .213-.123.123-.172.005-.334-.118-.162-.265-.181-.017-.003-.035-.003zm8.174-4.183c.025 0 .051.003.079.01.143.04.184.16.123.359L28.787 5.61h-.508l1.107-2.863c.056-.134.136-.2.24-.2zm.86.217a.35.35 0 0 1 .097.015c.165.048.195.171.091.371l-.95 2.46h-.507l1.002-2.63c.062-.144.15-.216.267-.216zM27.92 6.74c-.08 0-.173.014-.277.042V6.9a.9.9 0 0 1 .27-.047.5.5 0 0 1 .205.041 1.4 1.4 0 0 0 .5.098l-.064-.066a8.543 8.543 0 0 1-.456-.156.494.494 0 0 0-.178-.03zm.1.277l.234.09a1.845 1.845 0 0 1-.234.079c.052-.052.052-.109 0-.17zm-.195 0c-.026.06-.017.121.026.182a1.597 1.597 0 0 0-.156-.052c.008-.052.052-.096.13-.13zm.065-.085c-.113 0-.19.046-.234.137l-.117.065-.013.065.117.013a.43.43 0 0 0 .243.067c.128 0 .281-.04.46-.12h.286v-.09h-.3c-.182-.091-.33-.137-.442-.137zm2.356-1.1l-.885 1.64c-.06.089-.115.133-.166.133a.104.104 0 0 1-.069-.029l-.286-.182c.017-.07.087-.163.208-.28.122-.117.148-.26.078-.43-.04-.098-.119-.147-.235-.147a.85.85 0 0 0-.311.076c-.281-.16-.522-.239-.723-.239a.703.703 0 0 0-.084.005 2.4 2.4 0 0 0-.091-.547zm-2.497.768c.222 0 .512.095.87.286.078-.095.156-.143.234-.143.078 0 .12.04.124.117.004.079-.065.18-.209.306-.143.126-.21.232-.201.32l.039.025a.64.64 0 0 1-.26.45c-.148.108-.348.166-.6.175a.936.936 0 0 1-.048.001c-.13 0-.188-.033-.172-.099a.238.238 0 0 0-.04-.201c.047.002.089.004.125.004.201 0 .249-.04.142-.122-.081-.061-.147-.092-.198-.092a.097.097 0 0 0-.069.027c.035-.13-.034-.2-.208-.208a7.42 7.42 0 0 0 .443-.846h.028zm.935.963l.377.235c.026.399.104.672.235.82a1.704 1.704 0 0 0-.365.013.711.711 0 0 0-.312.117 1.888 1.888 0 0 0-.287-.638c.226-.174.343-.356.352-.547zm.507 1.354c.339 0 .551.186.638.56.122.529.14 1.357.052 2.485-.104 1.285-.225 2.343-.364 3.176l.17.248H25.35l.898-.365c-.26-1.275-.586-2.21-.976-2.805-.39-.594-.456-.978-.195-1.152a.444.444 0 0 1 .248-.082c.177 0 .355.127.533.382l1.744 2.499.312-.026c.19-1.944.395-3.393.612-4.347.104-.382.325-.573.663-.573zm.386-6.667c-.256 0-.427.148-.516.445l-1.106 2.916h-.573c.104.347.157.655.157.924a2.334 2.334 0 0 1-.345.722c-.164.24-.13.359.098.359h.025c-.06.086-.052.134.026.142-.07.044-.076.083-.02.118.057.034.077.117.06.247-.027.39-.129.705-.307.944-.146.195-.278.293-.398.293a.216.216 0 0 1-.077-.014.458.458 0 0 0-.154-.034c-.051 0-.087.018-.106.054-.035.065.01.132.137.202a.324.324 0 0 0 .159.037c.11 0 .248-.04.413-.122.256-.126.489-.514.697-1.165h.364c.113.104.2.256.26.456-.312.998-.568 2.473-.767 4.425l-1.653-2.343a.83.83 0 0 0-.533-.214.851.851 0 0 0-.424.123c-.334.191-.497.401-.488.631.009.23.167.606.475 1.126.308.52.588 1.284.84 2.29l-.99.43.065.508h5.558l-.573-.677c.278-2.698.376-4.423.293-5.173-.082-.751-.271-1.165-.566-1.243-.208-.209-.29-.434-.247-.677l.338-.599c.503.382.755.885.755 1.51v6.859h.3V8.89c-.01-.754-.322-1.344-.938-1.77l.846-1.51h-.598l.924-2.407c.13-.33.071-.542-.176-.638a.89.89 0 0 0-.32-.065.605.605 0 0 0-.324.091c-.061-.2-.237-.312-.527-.338a.715.715 0 0 0-.064-.003zm14.403.575q-.28.28-.28 1.026 0 .762.28 1.042h-9.234q.28-.28.28-1.042 0-.746-.28-1.026zM32.959 2.25q-.405 0-.389.264-.016.311.389.311h1.01q.373.28.373 1.026 0 .762-.373 1.042h-.995q-.42 0-.42.264 0 .311.405.311h12.81q.39 0 .39-.31 0-.265-.405-.265h-.995q-.373-.28-.373-1.042 0-.746.373-1.026h1.01q.39 0 .39-.31 0-.265-.39-.265zm6.396 5.352q2.396 0 5.082 1.158-2.686 1.126-5.082 1.126-2.38 0-5.081-1.126 2.701-1.158 5.081-1.158zm0-.74q-2.958 0-6.802 1.882 3.844 1.865 6.802 1.865 2.96 0 6.802-1.865-3.827-1.882-6.802-1.882zm0 5.881q2.396 0 5.082 1.158-2.686 1.125-5.082 1.125-2.38 0-5.081-1.125 2.701-1.158 5.081-1.158zm0-.74q-2.958 0-6.802 1.882 3.844 1.865 6.802 1.865 2.96 0 6.802-1.865-3.827-1.882-6.802-1.882zM52.342 2.25l-.014.001a15.506 15.506 0 0 1-1.122.037c-.08.005-.087.107-.06.165.169.474.314.956.45 1.44h-.019c-.135.003-.272 0-.405.013l-.006.01c-.008-.03-.03-.058-.06-.065a28.706 28.706 0 0 1-1.275-.923c-.01-.002-.021-.005-.032-.005h-.007c-.042.026-.057.084-.08.127-.074.197-.135.399-.217.593-.058.148-.122.294-.166.446.02.042.056.055.096.055a.42.42 0 0 0 .114-.022c.515-.11 1.045-.1 1.57-.107-.053.115-.075.243-.122.36-.022.066-.047.134-.062.202a.092.092 0 0 0-.012 0l-.016.001c-.64.248-1.265.552-1.812.97a6.77 6.77 0 0 0-.748.652c-.005.096.103.127.175.154l.442.182c-.075.103-.094.236-.141.353-.248.726-.597 1.413-.888 2.122.001.058.055.087.108.087.02 0 .04-.004.056-.012.102-.019.205-.028.308-.03-.021.08-.03.165-.065.24-.175.555-.46 1.065-.675 1.604-.01.058.045.095.098.095a.1.1 0 0 0 .044-.01 6.45 6.45 0 0 1 .796-.092c-.03.074-.036.157-.06.234-.128.545-.316 1.082-.339 1.646-.005.367.04.733.098 1.095.1.595.28 1.174.512 1.73.002.051.049.083.094.083a.081.081 0 0 0 .072-.04c.034-.075.045-.16.07-.238.134-.481.23-.974.272-1.472.042-.43.059-.863.056-1.295-.018-.505-.139-.999-.216-1.497-.014-.075-.024-.152-.043-.226a7.034 7.034 0 0 1 .764.127c.081 0 .099-.107.063-.164-.217-.567-.438-1.134-.62-1.714l.026.005c.22.04.44.091.663.104.07-.058.02-.152-.014-.216-.268-.582-.488-1.193-.576-1.83-.028-.173-.027-.35-.057-.523.19.077.379.154.569.228.082-.02.086-.121.07-.19a2.105 2.105 0 0 1 .267-1.198c.178-.318.435-.58.698-.828.104.09.225.156.343.227l-.06.015c-.215.418-.397.852-.591 1.28-.025.06-.054.12-.063.184.033.052.087.063.143.063.035 0 .072-.004.104-.004h.006l.24-.006c-.027.083-.034.176-.061.259-.155.639-.308 1.279-.461 1.919.018.068.087.082.15.082a.648.648 0 0 0 .055-.003l.397-.014c-.036.105-.053.218-.088.323-.172.628-.347 1.257-.515 1.886.019.07.089.085.154.085a677.2 677.2 0 0 1 .691-.021.867.867 0 0 0-.023.103c-.133.577-.336 1.144-.366 1.74a6.87 6.87 0 0 0 .2 1.602c.102.423.247.836.41 1.239.007.046.051.077.094.077.025 0 .05-.01.065-.035.035-.062.042-.137.066-.205.18-.619.282-1.259.315-1.902.021-.343.033-.687.018-1.03-.036-.492-.147-.974-.226-1.46-.009-.048-.016-.097-.03-.145.222-.007.444-.014.664-.023.08-.06.035-.167.013-.245-.188-.674-.374-1.349-.567-2.021.185-.007.37-.014.555-.023.077-.06.034-.166.01-.243l-.584-1.969.595-.016c.076-.05.039-.15.004-.214-.177-.4-.35-.801-.534-1.199.132-.054.263-.11.391-.171.354.33.662.728.804 1.196.081.278.087.573.058.86.016.044.054.061.096.061a.2.2 0 0 0 .1-.03l.443-.182-.003.004a5.206 5.206 0 0 1-.348 1.696c-.097.265-.22.52-.326.78-.006.057.047.091.098.091a.102.102 0 0 0 .051-.013c.195-.029.39-.067.585-.105-.04.108-.066.221-.11.327-.166.486-.353.965-.534 1.445-.014.057.038.107.09.107a.08.08 0 0 0 .042-.011 5.81 5.81 0 0 1 .716-.116.57.57 0 0 0-.012.066c-.08.447-.167.892-.223 1.342a4.98 4.98 0 0 0-.018.846c.026.713.098 1.429.289 2.118.032.117.063.236.101.351.015.03.045.044.076.044.037 0 .075-.021.084-.062a7.92 7.92 0 0 0 .565-2.05c.05-.41.083-.828.004-1.236-.079-.434-.208-.857-.31-1.285-.018-.05-.026-.104-.043-.153.123.003.246.011.369.027.171.018.34.054.512.069.072-.02.066-.116.03-.166-.24-.577-.55-1.13-.704-1.738l-.008-.032c.029 0 .058 0 .086.002.11.008.218.03.327.039.076-.034.058-.134.022-.192-.318-.723-.663-1.437-.909-2.19-.023-.058-.04-.124-.074-.176L54.4 6.58c.199-.083.398-.166.595-.252.047-.08-.032-.156-.09-.201-.507-.462-1.064-.874-1.683-1.171a6.493 6.493 0 0 0-.716-.3c-.018-.055-.043-.11-.056-.163-.064-.181-.117-.368-.197-.542a.252.252 0 0 0 .052.004l.06-.001h.153c.459 0 .92.015 1.37.118.013.006.03.009.046.009.045 0 .093-.023.084-.074-.088-.273-.21-.534-.3-.807-.04-.112-.079-.225-.129-.332a.113.113 0 0 0-.06-.008c-.42.308-.834.628-1.27.916-.046.023-.105.07-.072.127v.001a.848.848 0 0 0-.158-.012l-.16.002a1.243 1.243 0 0 1-.068-.001h-.035a.077.077 0 0 0 .004-.029c.17-.508.34-1.022.631-1.476.036-.046.01-.127-.046-.137a.065.065 0 0 0-.012-.001zm6.966 0c-.09 0-.179.004-.268.012h-.042c-1.005 0-1.87.969-1.797 1.965-.055.784.108 1.558.151 2.338a.35.35 0 0 0 .326.187.554.554 0 0 0 .455-.245c.237-.33.132-.758.036-1.118-.106-.643-.145-1.359.208-1.936.228-.305.603-.457.977-.457.407 0 .814.18 1.029.541.345.506.252 1.241-.19 1.659-.427.505-1.067.838-1.34 1.464-.175.63-.029 1.288-.088 1.93-.055 2.342-.085 4.684-.13 7.027.122.101.264.12.412.12.086 0 .173-.006.26-.006.07 0 .139.004.205.019.319-.163.293-.573.27-.876-.113-2.457-.03-4.917-.092-7.375.006-.28-.084-.602.211-.762.59-.572 1.217-1.142 1.58-1.894.368-1.09-.457-2.397-1.6-2.536a2.837 2.837 0 0 0-.573-.057zm8.172.683v1.823q-.403-.6-2.415-.6h-1.488V2.933zm.022-.683q-.82.152-2.437.152h-1.997v2.285h1.997q1.055 0 1.51.22.464.22.904.63l.023 10.213h.88V2.25zm3.922.724l.13.372h-.26l.13-.372zm.112.762l-.075.668h-.055l-.075-.668zm1.02 1.392v6.5l-2.227-.019v-6.48l1.095.65 1.133-.65zm0 6.927v3.268H70.33v-3.268zM71.332 2.25q-.167.798-.575 1.244v.186q.371 0 .371 1.485l-1.244-.76V15.75h3.101V4.404l-1.263.761q0-1.485.353-1.485v-.186q-.39-.446-.538-1.244z"/><path d="M8.22.375c-9.625 0-9.625 17.25 0 17.25m0-17.25h64.764M8.22 17.625h64.764M80.672.375v17.25M72.984.375c9.625 0 9.625 17.25 0 17.25" fill="none" stroke="#000"/></svg>