<svg xmlns="http://www.w3.org/2000/svg" width="59.129" height="18"><path d="M15.117 4.63c-.511.04-.794.295-.847.766.067.51.35.78.847.807.497-.027.76-.296.786-.807-.04-.47-.302-.726-.786-.766zm.06-1.694c.363 0 .7.067 1.009.201a2.659 2.659 0 0 1 1.371 1.361c.134.303.202.622.202.959 0 .35-.068.675-.202.978a2.567 2.567 0 0 1-2.38 1.523c-.363 0-.702-.065-1.018-.192a2.426 2.426 0 0 1-.817-.535 2.621 2.621 0 0 1-.544-.796 2.38 2.38 0 0 1-.202-.978c0-.337.067-.656.202-.958.134-.303.315-.572.544-.807.229-.235.5-.42.817-.555a2.574 2.574 0 0 1 1.018-.201zm-.04-.686c-.444 0-.86.084-1.25.252-.39.168-.726.397-1.009.686a3.36 3.36 0 0 0-.675 1.008 3.053 3.053 0 0 0-.253 1.24c0 .444.085.857.253 1.24.168.384.393.717.675.999a3.2 3.2 0 0 0 2.259.928c.444 0 .857-.084 1.24-.253a3.36 3.36 0 0 0 1.008-.675c.29-.282.518-.615.686-.998.168-.384.252-.797.252-1.24 0-.444-.084-.858-.252-1.24a3.268 3.268 0 0 0-1.694-1.695 3.053 3.053 0 0 0-1.24-.252zm6.466 11.293V15.3H8.67v-1.756zm-12.885-1.78v1.33H8.22v2.657h13.834v-2.658h-.404v-1.328h-.45v1.328h-1.116v-1.328h-.45v1.328h-1.116v-1.328h-.45v1.328h-1.092v-1.328H16.5v1.328h-1.09v-1.328h-.451v1.328h-1.115v-1.328h-.451v1.328h-1.115v-1.328h-.451v1.328h-1.092v-1.328h-.45v1.328H9.168v-1.328zm20.734-9.24q.128 0 .209.155.126.201-.19.34-.302.152-.201.518l.29 1.249q-.303.038-.53.303V3.523q0-.795.215-.921.115-.08.207-.08zm-.712 2.834v.47l-1.035-.108q.025-.127.391-.26.267-.096.644-.102zm.453.029q.455.094.682.56l-.82-.086v-.18q0-.088.114-.264l.024-.03zm1.35.522q-.068 0-.2.227.327-.114.24-.202-.017-.025-.04-.025zm-2.901.656q-.038.076-.032.12.007.044.07.07-.076 0-.139-.039.013-.075.101-.151zm.114-.025q.113.012.201.063-.05.088-.164.151.05-.063.045-.126-.007-.063-.082-.088zm-.05-.05q-.178 0-.24.264.113.076.277.076.164 0 .278-.19h.302v-.1l-.302.025q-.14-.076-.316-.076zm-3.042-.341q.757 0 0 1.4-.757-1.4 0-1.4zm5.894-.32q.048 0 .087.042.139.164-.24.34.392.594.404 1.414l-.1.012q0-.832-.329-1.375l-.025.013q.24.53.252 1.754l-.113.012q-.076-1.224-.139-1.514l-.114-.416q.191-.282.317-.282zm-2.678.392q.123 0 .229.035.252.082.252.347h.177q.038-.24.151-.24.114 0 .038.24l-.353.555v1.186l-.038.013q-.05-.089-.12-.227-.07-.14-.094-.366h-.379q-.215 0-.215-.101 0-.19.202-.215 0-.1-.063-.1l-.252-.013q.076-.177-.152-.227 0-.101.202-.455v-.214l.038.05q.164-.075.253-.088.1 0 .302.088h.228V6.4h-.228q-.176-.114-.302-.114-.14 0-.29.114 0-.101.037-.114.205-.066.377-.066zm-.276-.312l1.136.121v.106h.315v-.072l.909.097q.012.063.126.417.164.492.139 3.47l-1.59.012V7.195q.088-.126.227-.353.139-.228.132-.486-.005-.217-.209-.217-.04 0-.087.009-.202 0-.252.252-.013-.202-.228-.297-.097-.043-.252-.043-.186 0-.454.062.012-.126.088-.214zm-2.956 4.069q.507 0 .61.347h-.48q-.391-.038-.391-.328.141-.02.26-.02zm3.726-1.091v1.438h1.363q-.013.782-.145 1.88-.133 1.098-.335 1.861-.202.764.265 1.243H25.8q.126-.138.17-.467.044-.328-.284-1.11l-.946-2.864q.008-.418.224-.418.137 0 .356.165l1.287 1.906.48.605q.126.089.224.089.196 0 .28-.354.455-1.034.341-2.536-.441-.467.442-1.438zm1.09-6.636q-.17 0-.383.137-.341.227-.341 1.338v1.372q-.35.018-.593.073-.366.082-.6.353-.233.271-.233.75-.05.203-.013.38-.214.378-.214.517 0 .075.19.075l-.039.114q.025.063.076.076-.038.05-.025.113l.088.038q-.076.34.29.34h.265q.025.24.29.644-.012.025-.246.316-.233.29-.46.7t.1.801q.09 1.275-.39 2.36l-1.666-2.423q-.185-.606-.65-.606h-.019V7.952h.896v-.303h-.896q.909-1.754-.227-1.754-1.123 0-.227 1.754h-.883v.303h.87v1.766q-.706 0-.138.896 1.337 4.013 1.3 4.278-.039.278-.373.48-.334.201-.17.378h5.022q.252-.114 0-.353-.669-.795-.43-1.527.24-.732.417-3.546h.467v-.833q0-.757-.013-1.3.101-.012.228-.062l-.026-.379.227-.013q0-.933-.403-1.476.441-.177.202-.454-.094-.113-.195-.113-.158 0-.335.277-.33-.622-.733-.806.17-.095.404-.166l-.353-1.501q-.05-.177.215-.341.353-.252.138-.606-.158-.301-.41-.301zm5.291 1.129q-.051 0-.098.021-.04.053 0 .08.04-.024.092-.024.123 0 .318.13h.092v-.053h-.092q-.173-.154-.312-.154zm.014.114q-.073 0-.092.026-.02.027-.02.066 0 .08.092.08.093 0 .238-.066-.145-.106-.218-.106zm.522.278q-.04.013-.04.04 0 .012.04.026.04 0 .04-.027 0-.026-.04-.04zm.16-.424q.131 0 .131.106 0 .093-.033.159t-.125.159q-.093.092-.133.092-.04 0-.052-.02-.014-.02.013-.072l.092-.093.093-.08q.026-.013-.02-.059t-.007-.086q.02-.02.04-.02t.04.02q.04.04.013.093-.026.053-.132.185l.013.013q.119-.132.139-.172.02-.04.02-.119 0-.053-.093-.053-.066 0-.086.027-.02.026-.02.066 0 .053.066.092l-.079.053q-.04-.092-.02-.191.02-.1.14-.1zm.065-.74q.463 0 .774.086.31.086.31.496 0 .396-.27.582-.272.185-.417.29-.238-.145-.317-.41.052-.079.052-.185 0-.185-.198-.185-.159 0-.211.172-.027-.172-.166-.218-.139-.046-.27-.073.264-.555.713-.555zm-1.084 1.441l.172.027v.013l-.106-.013q-.02.003-.034.003-.042 0-.032-.03zm.225.08q0 .013-.185.052-.014.007-.02.007-.007 0-.007-.007 0-.04.04-.04h.066l.106-.012zm-.013-.807q.119 0 .29.053.252.04.265.211.092 0 .092.053-.132.093-.132.185 0 .12.106.12.08 0 .212-.133.079.251.436.476-.013.225.092.423-.1.113-.342.113h-.028q-.264-.007-.35-.086-.086-.08-.126-.278-.04-.08-.106-.08-.119 0-.45.04-.065-.013-.072-.059-.006-.046-.02-.112.159-.053.212-.133-.12-.092-.198-.119v-.053q.132-.026.132-.079-.04-.066-.093-.066-.04.026-.013.04.013.026-.066.033l-.044.002q-.035 0-.035-.009 0-.026.013-.053.185-.277.225-.489zm-1.772 3.226q.185.013.304.013v.067h-.159q-.119-.014-.145-.08zm.119.146l.555.04q.053.026 0 .065l-.555-.04q-.027-.039 0-.065zm0 .119l.595.066q.053.026 0 .053l-.595-.053q-.027-.04 0-.066zm0 .132l.542.053q.04.04-.013.066l-.53-.04q-.026-.053 0-.08zm.013.159l.383.026q.04.04 0 .066l-.383-.013q-.026-.053 0-.08zm.529-.503q.185.027.502.423h.53l-.014.132h-.225q-.298.072-.604.072-.088 0-.176-.005.04-.08-.026-.106.079-.013.105-.053.027-.04-.04-.08.093 0 .107-.079 0-.053-.08-.08.066-.039.046-.085-.02-.046-.125-.073V6.6zm.978.74l-.04.41h-.37q-.37-.33-.621-.33v-.053q.143.021.305.021.242 0 .528-.047zm-1.18.278q.407 0 .704.33h.41v.12h-.29q-.464.1-.715.1-.115 0-.185-.02-.08-.093-.086-.226-.006-.132-.006-.29.086-.014.167-.014zM36.03 5q.398.86-.105 3.068.436.846.066 1.441-.132.939-.08 2.922-.026 2.222-.012 2.314.172.582-.066.622h-1.521q.661-.278 1.071-.807.119-.555-.046-1.62-.166-1.064-.456-3.266-.291-2.201.45-4.634.15.044.297.044.204 0 .403-.084zm-2.39-2.75q-.33.476-.476.615-.146.139-.192.317-.046.179-.536.998.318-.04.688-.687.034-.059.046-.059.007 0 .007.02v3.014h-.33q-.12.04-.093.119.026.066.132.092-.066.053 0 .093-.08.08.013.145-.08.08 0 .146-.053.106.04.198.106.08.238.08v.079q-.073.007-.156.007-.082 0-.175-.007-.079.053-.053.119.027.066.106.119-.053.053-.026.119.026.066 0 .119-.027.053.02.092.046.04.026.086-.02.047.026.08.047.033.047.112 0 .08.185.12v5.79q-.251.066-.265.383-.013.093.08.192.092.099-.066.258-.093.092-.041.092.037 0 .146-.046.265-.113.093-.496.013-.185.212-.185.171 0 .198.185-.132.383.08.49.088.044.122.044.047 0-.01-.084-.1-.146-.033-.252.066-.105.052-.198 0-.317-.264-.383V8.398l.952-.119q.04.437.159 1.481.119 1.045.337 2.48.218 1.434.165 1.923-.225.622-1.415 1.098-.502 0-.502.489h3.015q.357-.212.052-1.018v-4.125q-.013-.807.146-.979.251-.767-.093-1.56.384-2.208 0-3.266-.224-.291-.172-.529-.013-.119.093-.185.595-.265.595-.932 0-.668-.853-.734-.158-.012-.295-.012-.602 0-.796.237-.238.29-.317.595l-.046.205q-.02.086-.126.231-.106.145-.092.185.013.08.119.08 0 .052-.067.066-.013.079.04.105-.053.12.04.146l.013.172q-.013.158-.198.66-.225 0-.225.133 0 .132.132.132.023.004.045.004.218 0 .339-.36l.171-.477q.212-.013.291-.04.027.212.12.358-.358 1.123-.503 1.983H34.1q-.304-.357-.621-.357V3.44q0-.291-.121-.291h-.011q.092-.145.264-.39.172-.245.027-.509zm4.717 4.793V8.36h2.907V7.043h-.57c-.166.293-.356.483-.57.57a.818.818 0 0 1-.635 0c-.208-.087-.396-.277-.562-.57zM40.12 2.25v2.183h-.66v2.67h.712V5.43h.826V3.14h1.02c.182 1.424.677 2.481 1.483 3.174.807.692 1.804 1.093 2.99 1.204 1.187.11 1.966.267 2.337.468.372.202.558.406.558.611h1.448c-.222-.53-.519-.933-.89-1.21-.372-.277-1.062-.45-2.07-.522-1.01-.071-1.816-.203-2.42-.397a3.858 3.858 0 0 1-1.62-1.032c-.475-.495-.839-1.557-1.092-3.186zm-.267 11.678l-1.541 1.822h.752l.79-.942.797.942.774-.942.797.942.79-.942.797.942.79-.942.797.942.775-.942.797.942.797-.942.775.942.797-.942.79.942h.752l-1.542-1.822-.797.88-.775-.88-.797.88-.797-.88-.775.88-.797-.88-.79.88-.797-.88-.79.88-.797-.88-.774.88-.798-.88z"/><path d="M8.22.375c-9.625 0-9.625 17.25 0 17.25m0-17.25h42.659M8.22 17.625h42.659M58.566.375v17.25M50.879.375c9.625 0 9.625 17.25 0 17.25" fill="none" stroke="#000"/></svg>