<svg xmlns="http://www.w3.org/2000/svg" width="68.066" height="18"><path d="M13.298 2.25a10.364 10.364 0 0 1-.76.026c-.053.003-.057.071-.04.11.113.317.21.639.301.962H12.786c-.09.002-.18 0-.27.009l-.004.007c-.006-.02-.02-.04-.04-.044a19.228 19.228 0 0 1-.852-.617l-.022-.003a.03.03 0 0 0-.005 0c-.027.017-.038.056-.053.084-.049.132-.09.267-.145.397-.038.099-.082.197-.111.298.013.028.038.037.065.037a.27.27 0 0 0 .075-.015c.345-.073.7-.067 1.05-.071-.035.076-.05.162-.082.24-.014.045-.03.09-.04.136h-.02c-.428.166-.845.369-1.21.649a4.525 4.525 0 0 0-.501.435c-.003.064.069.085.117.103l.296.122c-.05.069-.063.158-.095.235-.166.486-.399.945-.593 1.42 0 .038.037.057.072.057a1.265 1.265 0 0 1 .243-.029c-.014.054-.02.111-.043.162-.117.37-.307.712-.451 1.072-.007.039.03.063.065.063.01 0 .02-.002.03-.007.175-.029.353-.054.532-.06-.02.049-.025.104-.04.155-.086.365-.212.724-.227 1.101-.003.245.026.49.065.732.067.397.187.784.342 1.156.002.034.033.056.063.056a.054.054 0 0 0 .049-.028c.023-.05.03-.106.047-.158.089-.322.153-.652.181-.985.028-.287.04-.576.037-.865-.012-.338-.092-.667-.144-1-.009-.05-.016-.102-.029-.152a4.702 4.702 0 0 1 .511.085c.054 0 .066-.071.042-.11-.145-.379-.293-.758-.414-1.145l.017.003c.147.027.295.061.444.07.046-.039.013-.102-.01-.144a4.371 4.371 0 0 1-.385-1.224c-.019-.116-.018-.234-.038-.35.126.052.253.104.38.153.055-.013.058-.081.047-.126-.02-.277.039-.56.178-.802.12-.212.292-.387.467-.553.07.06.15.104.23.152l-.04.01c-.145.28-.266.57-.396.856-.017.04-.036.08-.042.122.022.035.058.042.096.042l.07-.003a.25.25 0 0 1 .003 0c.054 0 .107-.002.16-.003-.017.055-.022.117-.04.172-.104.428-.206.855-.308 1.283.012.046.058.055.1.055.013 0 .026 0 .037-.002l.265-.009c-.024.07-.035.146-.059.216-.115.42-.232.84-.344 1.26.013.047.06.057.103.057a452.647 452.647 0 0 1 .462-.014.58.58 0 0 0-.016.07c-.088.385-.224.763-.244 1.162-.002.36.051.72.134 1.07.068.284.164.56.274.83.004.03.034.05.062.05a.05.05 0 0 0 .044-.023c.023-.041.028-.092.044-.137a5.58 5.58 0 0 0 .21-1.271 6.4 6.4 0 0 0 .012-.688c-.023-.33-.098-.652-.15-.976-.007-.033-.012-.066-.02-.097l.444-.016c.052-.04.023-.111.008-.163-.125-.45-.25-.902-.379-1.352.124-.004.247-.009.37-.015.053-.04.023-.11.008-.162l-.39-1.316.397-.011c.05-.033.026-.1.003-.143-.118-.268-.235-.536-.357-.801.088-.037.175-.074.261-.115.236.221.442.487.537.8.055.186.058.383.04.574.01.03.035.041.063.041a.133.133 0 0 0 .067-.02l.297-.121-.003.002a3.48 3.48 0 0 1-.232 1.134c-.065.177-.147.347-.218.521-.004.038.031.061.066.061a.068.068 0 0 0 .034-.009c.13-.019.26-.045.39-.07-.026.073-.044.148-.073.219-.11.325-.236.644-.357.966-.01.038.025.071.06.071.01 0 .02-.002.028-.008.158-.035.318-.062.48-.077a.382.382 0 0 0-.01.044c-.052.299-.11.597-.148.897-.02.188-.024.378-.012.566.017.476.065.955.193 1.415.021.079.042.158.067.235.01.02.03.03.051.03.025 0 .05-.015.056-.042a5.3 5.3 0 0 0 .378-1.37c.034-.274.055-.554.003-.826-.053-.29-.14-.573-.208-.86-.011-.033-.017-.069-.028-.102.082.002.164.008.246.018.115.013.228.036.342.047.049-.014.045-.078.02-.112-.16-.385-.368-.754-.47-1.161l-.005-.022.057.002c.073.005.146.02.218.026.052-.023.04-.09.015-.128-.212-.484-.443-.96-.607-1.464-.015-.039-.027-.083-.05-.118l-.003-.002c.133-.055.266-.111.398-.168.03-.053-.021-.104-.06-.135a4.731 4.731 0 0 0-1.125-.783 4.34 4.34 0 0 0-.479-.2c-.012-.037-.029-.073-.038-.109-.042-.121-.077-.246-.131-.362a.168.168 0 0 0 .035.003l.04-.001h.102a4.076 4.076 0 0 1 .946.085c.03 0 .063-.015.056-.05-.058-.182-.14-.356-.2-.539a2.484 2.484 0 0 0-.086-.222.075.075 0 0 0-.04-.005c-.281.206-.557.42-.85.612-.03.016-.07.047-.047.085a.567.567 0 0 0-.106-.008l-.106.002a.83.83 0 0 1-.046 0h-.023a.051.051 0 0 0 .002-.02c.114-.34.228-.684.422-.987.024-.03.006-.084-.03-.091l-.009-.001zM12.16 12.27a.87.87 0 0 0-.207.026c-.14.034-.29.111-.454.232H8.22v.726h3.28c.162.12.313.198.453.232a.87.87 0 0 0 .413 0 .991.991 0 0 0 .41-.232h.127c.13.12.266.198.406.232a.874.874 0 0 0 .417 0c.14-.034.288-.112.446-.232h3.31v-.726h-3.31a1.235 1.235 0 0 0-.446-.232.874.874 0 0 0-.417 0 .934.934 0 0 0-.406.232h-.127a.991.991 0 0 0-.41-.232.846.846 0 0 0-.205-.026zm0 2.238a.87.87 0 0 0-.207.026c-.14.034-.29.112-.454.233H8.22v.725h3.28c.162.12.313.198.453.232a.87.87 0 0 0 .413 0 .991.991 0 0 0 .41-.232h.127c.13.12.266.198.406.232a.874.874 0 0 0 .417 0c.14-.034.288-.111.446-.232h3.31v-.725h-3.31a1.235 1.235 0 0 0-.446-.233.874.874 0 0 0-.417 0 .934.934 0 0 0-.406.233h-.127a.991.991 0 0 0-.41-.233.846.846 0 0 0-.205-.026zm9.348-11.814c-.69 0-1.247.553-1.251 1.244v.007c0 .693.557 1.251 1.25 1.251.694 0 1.252-.558 1.252-1.251 0-.693-.558-1.251-1.251-1.251zm1.612 3.591c-.048.077-.115.144-.05.144a.306.306 0 0 0 .07-.012.289.289 0 0 0 .086.025c.053 0-.068-.102-.106-.157zm-1.103-.27c.288 0 .406.414.19.59a.258.258 0 0 1-.186.075c-.145 0-.292-.11-.31-.265-.04-.187.098-.4.297-.4a.283.283 0 0 1 .009 0zm-.086-.247c-.033 0-.066 0-.097.002-.243.02-.51.125-.64.342-.053.291-.042.634.187.855.156.193.457.25.518.516.022.129-.053.337.088.337.019 0 .04-.003.066-.01.2-.295.38-.609.63-.866-.125-.132-.263-.339-.107-.502.105-.144.357-.38.032-.397-.14-.232-.424-.277-.677-.277zm-1.353.348c-.436.388-.582.986-.684 1.538-.043.247-.066.498-.09.747.222-.237.528-.463.86-.463a.725.725 0 0 1 .177.021c.202 0 .31.369.338.384l.111-.666c-.43-.149-.625-.611-.686-1.029a2.388 2.388 0 0 1-.026-.532zm.046 2.49a.724.724 0 0 0-.414.237c-.181.733-.117 1.494-.104 2.24-.011.27.03.55.017.826-.005 1.045-.217 2.078-.185 3.124 1.665.003 3.33.009 4.994.012l-.642-1.316c.313-.742.702-1.452.999-2.202.128-.344.287-.696.286-1.07-.014-.115-.067-.157-.134-.157-.12 0-.287.136-.367.222-.626.602-1.133 1.314-1.633 2.02-.465.676-.91 1.367-1.286 2.096.027-1.617.108-3.24-.097-4.85-.03-.352-.179-.678-.342-.987l-.019 2.25h-1.029c.01-.815.03-1.632-.044-2.444zm.884-6.356c.933 0 1.695.761 1.695 1.695 0 .584-.3 1.101-.752 1.406.083.026.166.055.245.09.123.057.246.122.303.25.063.101.119.206.243.24.344.252.466.734.38 1.138a.066.066 0 0 1-.037.01c-.102 0-.278-.177-.351-.177a.033.033 0 0 0-.015.003c-.05.233-.218.408-.31.622a3.747 3.747 0 0 1-.627.832c.237.423.433.877.474 1.365.115.845.134 1.7.135 2.553.643-.882 1.304-1.764 2.106-2.51a.886.886 0 0 1 .572-.223.6.6 0 0 1 .404.145c.29.287.246.73.171 1.094-.214.926-.62 1.792-.983 2.666-.05.192-.262.402-.092.585.208.336.503.616.694.962.1.238.087.504.055.754l-6.489-.016c-.084-.846-.084-1.7.005-2.546.041-.746.056-1.492.088-2.239-.147-.012-.293-.026-.44-.039.094-1.1.128-2.208.331-3.295.127-.606.277-1.234.652-1.74.18-.215.412-.375.666-.487a1.693 1.693 0 0 1-.818-1.443v-.012a1.697 1.697 0 0 1 1.695-1.683zm9.204.456h.099q1.234 0 2.353 1.061l-.693.56q-.648-.619-1.693-.619-1.046 0-1.694.619l-.692-.56q1.104-1.061 2.32-1.061zm.066 1.43q1.163.014 1.914 1.222h-3.844q.59-1.208 1.93-1.223zm0-1.886q-1.827.074-3.079 1.502l1.046.884q-.442.59-.545 1.105h5.14q-.103-.516-.545-1.09l.972-.884q-1.163-1.443-2.99-1.517zm1.455 4.635q.045 0 .085.02.07.035.099.118.029.084 0 .133-.07.078-.138.083h-.02q-.061 0-.137-.025-.059.06-.137.148-.098.127-.265.402-.186.304-.275.432-.206-.118-.343-.118.618-.765.8-.962.181-.196.264-.22.035-.01.067-.01zm-1.327 1.497q.274.137.333.245.06.108.01.108-.049 0-.118.059-.049-.177-.225-.412zm-.069.284l.432 1.62q-.206 0-.432.156V8.666zm1.378-1.935q-.132 0-.28.13l-1.157 1.384q-.373-.06-.579-.412.138-.167.466-.471.329-.304.27-.403-.028-.059-.096-.059-.168 0-.58.364-.442.313-.707.51-.138.127-.226.446t-.265.667q-.176.349-.167.545.025.122.081.122.057 0 .145-.122.128-.216.304-.49.177-.276.442-.511.186-.128.353-.157.186.069.284.265v5.416q-.578.157-.598.755-.03.226.137.697.118.343.442.343-.216-.814-.216-1.04.02-.451.392-.451.403 0 .422.451 0 .226-.206 1.04.324 0 .432-.343.167-.471.128-.697.01-.598-.599-.755v-3.1q.304-.217.795-.285-.196-1-.388-1.374-.169-.33.156-.33.043 0 .094.007-.117-.462-.47-.59v-.048q.021-.002.043-.002.198 0 .427.159.148-.196.334-.52.196-.334.265-.422.069-.088.098-.098.056.02.106.02.125 0 .213-.123.122-.172.005-.334-.118-.162-.265-.181-.017-.003-.035-.003zm8.174-4.183c.025 0 .05.003.078.01.143.04.185.16.124.359L39.55 5.61h-.508l1.106-2.863c.056-.134.137-.2.241-.2zm.86.217a.35.35 0 0 1 .097.015c.165.048.195.171.09.371l-.95 2.46h-.507l1.002-2.63c.062-.144.151-.216.268-.216zM38.682 6.74c-.081 0-.174.014-.278.042V6.9a.9.9 0 0 1 .27-.047c.077 0 .145.014.205.041a1.4 1.4 0 0 0 .501.098l-.065-.066a8.543 8.543 0 0 1-.455-.156.494.494 0 0 0-.178-.03zm.1.277l.234.09a1.957 1.957 0 0 1-.234.079c.052-.052.052-.109 0-.17zm-.196 0c-.026.06-.017.121.026.182a1.597 1.597 0 0 0-.156-.052c.009-.052.052-.096.13-.13zm.066-.085c-.113 0-.191.046-.235.137l-.117.065-.013.065.117.013a.43.43 0 0 0 .244.067c.128 0 .28-.04.46-.12h.285v-.09h-.299c-.182-.091-.33-.137-.442-.137zm2.355-1.1l-.885 1.64c-.059.089-.114.133-.165.133a.104.104 0 0 1-.069-.029l-.286-.182c.017-.07.086-.163.208-.28.121-.117.147-.26.078-.43-.04-.098-.119-.147-.236-.147a.85.85 0 0 0-.31.076c-.282-.16-.523-.239-.724-.239a.703.703 0 0 0-.084.005 2.4 2.4 0 0 0-.09-.547zm-2.496.768c.222 0 .512.095.87.286.077-.095.156-.143.234-.143.078 0 .119.04.123.117.005.079-.065.18-.208.306s-.21.232-.202.32l.04.025a.64.64 0 0 1-.26.45c-.148.108-.348.166-.6.175a.936.936 0 0 1-.049.001c-.13 0-.187-.033-.172-.099a.238.238 0 0 0-.039-.201c.047.002.088.004.125.004.201 0 .248-.04.142-.122-.082-.061-.148-.092-.198-.092a.095.095 0 0 0-.069.027c.035-.13-.035-.2-.208-.208a7.42 7.42 0 0 0 .442-.846h.029zm.934.963l.378.235c.026.399.104.672.234.82a1.704 1.704 0 0 0-.364.013.711.711 0 0 0-.313.117 1.888 1.888 0 0 0-.286-.638c.226-.174.343-.356.351-.547zm.508 1.354c.338 0 .551.186.638.56.121.529.139 1.357.052 2.485-.104 1.285-.226 2.343-.365 3.176l.17.248h-4.334l.898-.365c-.26-1.275-.586-2.21-.977-2.805-.39-.594-.455-.978-.195-1.152a.444.444 0 0 1 .248-.082c.178 0 .355.127.533.382l1.744 2.499.313-.026c.19-1.944.394-3.393.611-4.347.104-.382.326-.573.664-.573zm.385-6.667c-.255 0-.427.148-.515.445l-1.106 2.916h-.573c.104.347.156.655.156.924-.06.234-.176.475-.345.722-.163.24-.13.359.099.359h.025c-.06.086-.052.134.026.142-.07.044-.076.083-.02.118.057.034.076.117.059.247-.026.39-.128.705-.306.944-.146.195-.279.293-.399.293a.216.216 0 0 1-.076-.014.458.458 0 0 0-.154-.034c-.052 0-.087.018-.106.054-.035.065.01.132.136.202a.324.324 0 0 0 .16.037c.11 0 .248-.04.413-.122.256-.126.488-.514.696-1.165h.365c.113.104.2.256.26.456-.312.998-.568 2.473-.768 4.425l-1.653-2.343a.83.83 0 0 0-.533-.214.851.851 0 0 0-.423.123c-.334.191-.497.401-.489.631.01.23.168.606.476 1.126.308.52.587 1.284.84 2.29l-.99.43.065.508h5.558l-.573-.677c.278-2.698.375-4.423.293-5.173-.083-.751-.271-1.165-.566-1.243-.209-.209-.291-.434-.248-.677l.339-.599c.503.382.755.885.755 1.51v6.859h.299V8.89c-.009-.754-.321-1.344-.937-1.77l.846-1.51h-.599l.924-2.407c.13-.33.072-.542-.175-.638a.89.89 0 0 0-.32-.065.605.605 0 0 0-.325.091c-.06-.2-.236-.312-.527-.338a.715.715 0 0 0-.064-.003zm6.882.425q1.375 0 2.916.664-1.541.646-2.916.646-1.366 0-2.917-.646 1.55-.664 2.917-.664zm0-.425q-1.698 0-3.904 1.08Q45.522 4.4 47.22 4.4t3.904-1.07q-2.197-1.08-3.904-1.08zm8.692.425q1.375 0 2.917.664-1.542.646-2.917.646-1.366 0-2.916-.646 1.55-.664 2.916-.664zm0-.425q-1.698 0-3.903 1.08 2.205 1.07 3.903 1.07t3.904-1.07q-2.196-1.08-3.904-1.08zM44.09 8.016l1.828 1.608q-.385.595-1.024 1.201-.606-1.432-.805-2.81zm-.487-.794q-.353 0-.274.485.342.165.287.375-.055.209.044.694t.793 2.302q-.211.718.245.718l.041-.001q1.234 2.27 2.722 3.955h.264l-.066-.738q-1.19-1.113-2.545-3.603.397-.837 1.113-1.465l2.192 1.972q.166.074.279.074.306 0 .217-.548l-2.203-1.884q.009-.5-.418-.5-.099 0-.221.026l-1.984-1.73q-.302-.132-.486-.132zm7.603 0a1.96 1.96 0 0 0-.17.008h-.026c-.635 0-1.182.612-1.135 1.241-.035.495.068.984.096 1.477a.221.221 0 0 0 .206.118.35.35 0 0 0 .287-.155c.15-.209.083-.479.022-.706-.067-.406-.091-.858.132-1.223a.764.764 0 0 1 .617-.289c.257 0 .514.114.65.342.218.32.16.784-.12 1.048-.27.319-.674.53-.847.925-.11.398-.018.813-.055 1.219-.035 1.48-.054 2.96-.082 4.439.077.064.167.076.26.076.054 0 .11-.004.164-.004a.58.58 0 0 1 .13.012c.201-.103.185-.362.17-.553-.071-1.552-.02-3.107-.058-4.66.004-.176-.053-.38.134-.48.372-.362.769-.722.997-1.197.233-.689-.288-1.514-1.01-1.602a1.792 1.792 0 0 0-.362-.036zm5.147.432v1.15q-.254-.378-1.525-.378h-.94v-.772zm.015-.432q-.518.096-1.54.096h-1.261v1.444h1.261q.667 0 .954.139.293.139.571.398l.015 6.451h.556V7.222zm2.462.458l.083.234h-.164l.082-.234zm.071.48l-.047.423h-.035l-.047-.422zm.645.88v4.106l-1.407-.012V9.04l.692.41.715-.41zm0 4.376v2.064H58.14v-2.064zm-.774-6.194q-.106.505-.364.786v.117q.235 0 .235.939l-.786-.481v7.167h1.959V8.583l-.798.48q0-.938.223-.938v-.117q-.246-.281-.34-.786z"/><path d="M8.22.375c-9.625 0-9.625 17.25 0 17.25m0-17.25h51.596M8.22 17.625h51.596M67.504.375v17.25M59.816.375c9.625 0 9.625 17.25 0 17.25" fill="none" stroke="#000"/></svg>