<svg xmlns="http://www.w3.org/2000/svg" width="101.961" height="18"><path d="M18.058.568q-.111.037-.111.128t.07.146q.027.022.054.022.04 0 .077-.05.063-.081.021-.163-.041-.083-.11-.083zM2.67.47q-.153 0-.296.282.084.183.264.237.028.01.054.01.131 0 .224-.229 0-.255-.194-.292Q2.695.47 2.669.47zM1.665.787q-.042.128.027.238l-.583.073q-.014-.164.556-.31zm.568.436zm.105-.003q.12 0 .195.033.027.012 0 .012-.052 0-.288-.04.05-.005.093-.005zm2.564 1.252q.035 0 .097.068 1.125 1.223 2.792 2.865Q9.46 7.048 9.667 7.724 8.305 7.468 7.34 6.318q-.966-1.15-1.681-2.236-.716-1.086-.799-1.414-.017-.196.042-.196zm.046-.868q.202 0 .384.096 4.321 4.308 4.946 5.604.584 1.405.764 2.154-.076.11-.182.11-.087 0-.193-.074l-.57-1.515q-.43-1.296-2.104-2.875-1.674-1.579-2.424-2.5-.441-.542-.676-.542-.164 0-.227.268-.108.455-.38.455-.115 0-.26-.081.126-.858.542-1.022.198-.078.38-.078zm.357 6.43q.666 1.405.541 2.83-.125 0-.236.236-.045-.403-.277-.403-.051 0-.112.02.292-1.405.084-2.683zM2.827.346q.066 0 .116.013.25.063.292.237.029.122.058.122.013 0 .025-.022.042-.073.056-.164.305.53.041 1.57t.848 1.24q1.028 3.104 2.209 4.72 1.18 1.615.986 3.038-.449-.438-.993-.438-.113 0-.23.019.042-1.296-.472-2.556t-.945-1.889q-.43-.63-1.16-1.497-.73-.867-.722-1.789.007-.921.194-1.286.188-.365.181-.584-.003-.091-.027-.091-.035 0-.112.182-.132.31-.73.328l-.07.001q-.568 0-1.235-.274l.82.073q.404.11.601.11.162 0 .183-.074.049-.164-.076-.192-.125-.027-.257-.027t-.201.055l.026.052-.29-.052Q1.762.787 1.887.623q.028-.055.097-.055-.028.183.049.274.028.034.056.034.046 0 .09-.098.07-.155-.125-.228.511-.204.773-.204zm15.412.04q.375 0 .555.365.056.055.695.2v.056l-.695.073q-.597 0-.75-.12-.153-.118-.146-.273.007-.155.188-.155.18 0 .25.082t.035.173q-.035.092-.132.147h.028q.18 0 .187-.22.007-.237-.299-.273-.389 0-.291.374.092.357.854.357l.076-.001q.431-.037.765-.128L19.53.97q1.236 1.004 1.16 2.29-.077 1.288-.966 2.136-.889.85-1.584 1.871-1.083 1.734-1.167 2.72-.083.986.376.986.458 0 1.118-.721.66-.721 1.34-.74 1.82.055 1.612 2.209-.667-.93-1.5-.93-.417 0-1.14.474-1.097.766-1.667.766l-.472-.091q-.861-.84-.583-2.482.416-1.187 1.125-4.235.486-1.734.965-2.628.48-.895 1.022-.913.291 0 .944.365.027.01.047.01.094 0 .037-.21-.526-.429-1.226-.429-.225 0-.47.045-.208 0-.506-.146-.3-.146-.3-.694.251-.237.543-.237zM4.666 3.05q1.083 1.825 1.986 3.002.903 1.178 1.702 1.588.799.411 1.48.43.083.145 1.653 4.617l-.097.055-3.738-3.14q.028-.273-1.104-1.962-1.132-1.687-1.994-4.46l.112-.128zM8.5 10.918l2.07 1.66q.07.256-.5.348-.127.02-.233.02-.37 0-.49-.248-.152-.32-.389-.831-.236-.511-.458-.95zm7.071-.785q0 .767.167 1.332.43 1.004 1.153 1.023h.038q.711 0 1.699-.657.938-.625 1.365-.625.034 0 .066.004.416.055.903.566.486.51.514.894.05.311-.043.311-.06 0-.18-.128-.399-1.05-1.024-1.05h-.01q-.633.01-1.557.648-.923.639-2.153.639t-1.368-1.04q-.14-1.04.43-1.917zM5.277 11.192l.208.547q.195-.255.299-.3l.005-.002q.088 0-.304 1.543l-.583.238q-.153-.146.09-.904.243-.757.285-1.122zm14.763 1.14q.461 0 .727.502-.18.384-.847.603-.514 0-1.042-.566.685-.539 1.162-.539zm-1.607.758q.207.265.448.438h-1.883q.692-.095 1.435-.438zm-7.182 1.15q-1.554 2.935-4.48 3.011-2.913-.076-4.467-3.011zm11.239.018q-1.554 2.935-4.48 3.012-2.913-.077-4.48-3.012zM3.066.008q-.084 0-.179.013-.222 0-1.264.42-.834.255-.903.657l.028.62.417-.2q.68.292 1.139.292.458 0 .347.41-.111.411.028 1.37.139.958 1.097 1.934.959.977 1.188 2.556.23 1.578-.41 3.641l.209-.164q.004-.004.007-.004.046 0-.216.816-.277.867-.757.894-.084.005-.16.005-.348 0-.486-.105-.155-.12-.462-.12l-.045.001q-.34.01-.34.302v.182H1.33Q2.93 17.982 6.777 18q3.849-.018 5.446-4.472l-4.279.037q0-.165-.264-.356-.129-.094-.296-.094-.175 0-.391.103-.13.061-.278.061-.337 0-.771-.317.097-.639.236-1.14.139-.503.528-.594.036-.008.073-.008.362 0 .816.811.264-.675.153-1.825l.139.128q1.042 2.3 1.257 2.701.163.305.634.305.15 0 .331-.031.75-.128.737-.475l.639.42.486-.237-1.07-3.048q.264 0 .487-.292-.264-1.096-.82-2.446-.39-.822-.792-1.278Q8.681 4.603 7.5 3.39T5.763 1.518q-.373-.28-.775-.28-.226 0-.461.088-.653.246-.792 1.214-.042-.037.07-.73.11-.694-.05-1.287-.138-.514-.689-.514zM18.286 0q-.252 0-.478.094-.292.11-.347.42-.111.383.097.757.208.374.653.466-.89 1.058-1.514 3.741-.584 2.556-.973 3.779-1.042 1.113-1.035 2.236.007 1.122.424 1.597.301.343.878.438h-3.434q1.597 4.454 5.446 4.472 3.848-.018 5.445-4.472h-2.674q.153-.11.313-.256.156.245.354.245.083 0 .174-.044.347-.219.139-1.004.194-2.245-.459-2.865-.653-.621-1.473-.621-.75 0-1.625.849-.543.526-.743.526-.124 0-.118-.198.014-.52.611-1.761.403-.876 1.75-2.254 1.348-1.378 1.334-2.775-.014-1.396-.597-2.099-.584-.703-1.292-.794-.111-.2-.292-.328-.18-.128-.48-.146Q18.329 0 18.287 0zm12.567 0c-.12 0-.127.377-.299.935-.195.635-.338 1.962-.788 2.22a.397.397 0 0 1-.204.052c-.134 0-.27-.05-.417-.05a.545.545 0 0 0-.17.025c-.21.068-.322.397-.544.436-.922.16-2.183.1-2.887.163-.453.04.756.93 1.964.93h.051c.251-.005.516-.017.78-.017.44 0 .877.032 1.236.18.352.146.768.567.763.981L30.19 18h1.359l-.07-13.719c-.001-.368 1.061-.618 1.2-.936.243-.553.119-2.995-.272-3.323a.021.021 0 0 0-.014-.006c-.176 0-.504 2.56-1.021 3.111-.053.056-.157.082-.247.082-.097 0-.177-.03-.162-.082.329-1.118.461-2.749-.054-3.105A.102.102 0 0 0 30.853 0zm5.696 0c-.93 0-1.745.684-1.745 1.562V18h1.136V1.562c0-.43.378-.57.616-.57.25 0 .634.175.634.703v10.804h1.136V1.695c0-.88-.87-1.695-1.777-1.695zm7.571.51q.541 0 .541.28 0 .281-.45.291-.45.01-1.221 1.031-.781 1.021-.781 3.014 0 1.992.68 2.953.671.951.951 1.271v.581q-1.05-.75-2.382-1.011-.32-1.111-.39-2.843-.08-1.722.47-3.004.55-1.271 1.341-1.912.791-.65 1.242-.65zm-.28 10.903q.541 0 .901.15-.4.21-.48.57-.07.35-.25.39-.085.026-.168.026t-.163-.025q-.16-.04-.23-.39-.08-.36-.49-.571.37-.15.88-.15zm0 1.461q.37 2.403.35 3.464-.03 1.061-.35 1.061-.3 0-.32-1.06-.02-1.062.32-3.465zM44.14 0q-.75 0-1.661.73-.911.732-1.452 1.933-.55 1.201-.68 2.963-.13 1.772.49 3.744 1.872.37 2.493 1.142l-.09.45q-.17.02-.34.09-.451.1-.541.51 0 .131.09.211.36 0 .53.52.16.511.411.511-.04.43-.23 1.562-.2 1.121-.15 2.683.13.951.83.951.731 0 .861-.951.04-1.562-.15-2.683-.19-1.131-.24-1.562.26 0 .42-.51.16-.52.531-.52.08-.081.08-.211-.08-.41-.64-.51-.26-.07-.451-.09l.11-2.013q-.47-.39-1.041-1.422-.57-1.03-.57-2.552t.64-2.483q.65-.971 1.191-.971.55 0 .55-.771 0-.751-.99-.751zm6.74 0v9.918h.828V.848h8.782v8.184l-3.39.019-.019-5.565h-.867v6.432h5.123V0zm5.023 12.66q1.062 0 1.937.529 1.781 1.033 3.375 1.033 1.604 0 2.942-.138v2.755q-1.663-.295-2.401-.295h-.02q-.6 0-1.672.138-4.359.6-5.431.6-1.781 0-3.355-.06-2.696-.157-2.962-.285-.256-.118-.256-.678 0-.551.148-.965.148-.413.492-.59 8.422-.374 9.081-.433-.587-.847-1.818-.847-.4 0-.868.09-1.568.308-2.419.308-.179 0-.326-.013-.836-.08-.777-.797.47.063.97.063 1.05 0 2.237-.28.586-.135 1.123-.135zm.25-.799q-.426 0-.841.108-1.683.443-2.962.462-.315 0-1.131-.157-.384.354-.384.836t.305.817q-3.217.118-3.217.383-.58.738-.58 1.771 0 1.024.54 1.398 1.634.521 6.563.521.787 0 1.604-.079 4.565-.679 5.44-.698l.087-.001q.9 0 3.298.375v-4.35l-.02.02q-2.056.237-3.355.266-.066.002-.133.002-1.236 0-2.543-.69-1.382-.984-2.67-.984zM86.91.568q.442 0 .442.463v3.557h-1.347l.442-3.746q.02-.274.463-.274zM86.93 0q-1.072 0-1.136.61-.441 3.978-.947 3.999l-9.764.358-1.01-.042q-1.137-1.2-2.021-1.2l-.652-.042q-1.79.337-2.147.337-.252 0-.252.336 0 .463.715.463 1.229-.196 1.885-.196.12 0 .22.007.357 0 .589.295-.41.508-1.837.508-.11 0-.226-.003-1.62-.042-2.862-.421-.61 0-.61.715.063.653 4.567.674l1.999-.21 11.406-.064 3.2.042V1.031Q88.024 0 86.93 0zm-2.762 11.43c.941.04 1.458.06 1.68.06h.102l-.122 4.92c-.81-.334-1.306-.668-1.873-1.113l.213-3.868zM70.44 10.203c-.314.061-.73.253-.679.628v2.744a52.47 52.47 0 0 0-1.417-.061c0 .344.283.81 1.164.81.01.78.152 1.731.294 2.217l.121 1.276c0 .142.243.182.506.182.314 0 .658-.06.658-.06l-.05-1.276c5.001.04 14.538.293 15.014.293.243 0 .405-.263.405-.627l.121-5.498-3.006-.03-.243 4.282c-2.177.01-5.943.365-8.505.365-.81 0-1.508-.03-1.984-.132-.101-.111-1.043-1.478-1.64-1.63a2.64 2.64 0 0 0-.355-.04c-.1-.83-.202-1.66-.293-2.48.182-.234.597-.173.709-.487.11-.152.04-.405-.173-.415-.121-.05-.455-.06-.597-.06zM93.257.448q.566.066 1.357.83.856.817 1.396.935 3.11 1.858 3.663 4.269.17.658.329 1.33l.29 2.332-.606-2.029q-.435-1.462-1.028-2.2-.263-.33-.487-.33-.106 0-.178.152-.073.152.151.429.224.276.238.316-.119.171-.593.197-.475.027-.988.046-.119.005-.214.005-.318 0-.38-.05-.026-.014.363-.152.389-.138.389-.297 0-.052-.422-.395-.33-1.146-.079-1.884-.237 0-.421.58-.185.58-.126 1.001.06.422.073.54-.08.198-.461.211-.33-.132-.58-.527-.25-.395-.448-.738-.197-.342-.408-1.047-.211-.705-.37-1.034-.276-.567-.697-.91-1.028-.526-1.028-.658.553.066.949.092.263-.145.04-.303-.278-.079-.462-.085-.184-.007-.237-.178.342-.29.975-.448zM93.349 0q-.25 0-.573.112-.323.112-.843.389-.52.276-.64.698.106.632 1.582 1.29.434.357.513.884.145.935.712 1.897.553.803 1.093 1.633.145.237 1.173.237h1.554q.883 0 1.147.383.145.5.909 3.175.131.671.329 1.053.188.15.28.15.064 0 .082-.07.046-.172.046-.343-.065-2.622-.434-4.295-.488-2.226-1.193-3.01-.704-.784-1.284-1.324-.58-.54-1.924-1.199-.856-.725-1.39-1.192Q93.956 0 93.35 0zm-3.303 13.208V18h.801v-4.792zm5.507.006V18h.801v-4.786zm5.607 0V18h.8v-4.786z"/></svg>