<svg xmlns="http://www.w3.org/2000/svg" width="71.778" height="18"><path d="M3.73.474c.693 0 1.247.2 1.634.479.006.053.02.107.009.16-.05.248-.195.477-.396.63-.316.207-.697.267-1.057.356-.09.01-.019.031.031.04.23.04.707.099.971.099l.052-.001c.278-.032.54-.148.766-.311.079-.067.147-.15.205-.236.147.346.227.713.26.917.018.11.096.2.202.233 1.139.349 2.038 1.91 2.88 2.949 1.729 2.137 3.199 4.526 4.892 6.76-.937-.456-1.87-.916-2.81-1.374-1.92-1.01-3.92-1.816-5.604-3.09l-.008-.008c-.97-.808-1.963-1.66-2.339-2.793-.148-.92 1.757-2.577 1.542-2.646a.207.207 0 0 0-.064-.01c-.458 0-1.753 1.128-2.019 2.202-.003-.014-.01-.03-.014-.045-.073-.356-.154-1.256.068-1.98a.29.29 0 0 0 .01-.103 1.968 1.968 0 0 0-.123-.634c-.063-.17-.139-.344-.26-.765-.031-.108-.142-.328-.208-.345.186-.138.375-.28.645-.375a.434.434 0 0 0-.132.314c0 .23.164.415.365.415.2 0 .364-.186.364-.415V.894a.411.411 0 0 0-.255-.39c.053-.007.096-.019.154-.022.081-.006.16-.008.238-.008zm.67 7.763c.065.065.135.124.202.187.214.78.412 1.64.692 2.305.483 1.145 1.216 2.141 1.84 3.154a1.814 1.814 0 0 0-.385.27 6.831 6.831 0 0 0-.199.193 2.61 2.61 0 0 0-1.186-.897c.045-.723-.108-1.712-.34-2.787A34.903 34.903 0 0 0 4.4 8.237zm1.006.908c1.149.945 2.428 1.738 3.676 2.54-.018.91-.018 1.778.084 2.675a3.411 3.411 0 0 0-1.437-.736c-.02 0-.037.012-.057.012-.649-1.063-1.383-2.06-1.837-3.134-.156-.37-.293-.85-.429-1.357zm.407 5.254a2.5 2.5 0 0 1 .44.541.3.3 0 0 0 .257.14.29.29 0 0 0 .17-.053c.215-.156.347-.324.476-.446.047-.045.097-.08.148-.117l.149 2.722c-.213-.014-.435-.035-.637-.035-.264 0-.495.036-.633.172-.169-.134-.497-.164-.89-.164-.102 0-.207.002-.316.004l.836-2.764zM6.97 9.574c1.354.787 2.784 1.414 4.135 2.125a.244.244 0 0 0 .006.003c1.295.631 2.586 1.28 3.894 1.904.984 1.189 2.052 2.295 3.078 3.42l-2.15.362-4.267-4.635a.288.288 0 0 0-.037-.036c-1.499-1.137-3.152-2.082-4.66-3.143zM3.796 0c-.135 0-.273.005-.411.013C2.3.083 1.512.54 1.243 1.157c-.04.093-.146.314-.007.314a2.35 2.35 0 0 1 .341-.028c.418 0 .38.172.47.194.09.282.29.846.303 1.068-.244.86-.153 1.763-.064 2.198.15.732.63 1.584 1.261 2.38a.285.285 0 0 0 0 .166 35.3 35.3 0 0 1 .903 3.336c.251 1.168.393 2.277.317 2.823a.294.294 0 0 0 .221.328c.045.011.084.031.127.045l-.928 3.079a2.847 2.847 0 0 0-.593-.055c-.381 0-.756.05-1.064.05-.125 0-.24-.008-.34-.032a.546.546 0 0 0-.125-.012c-.436 0-1.428.306-1.34.879.15-.128.257-.159.375-.159.11 0 .23.027.405.027h.027c.254-.004.697-.083 1.053-.083.18 0 .338.02.438.08.236-.01.45-.013.649-.013.85 0 1.447.07 2.5.075a89.565 89.565 0 0 0 2.974-.079c.45.003.697.054.922.054h.04c.134-.004.265-.057.48-.057.123 0 .273.017.468.07-.25-.341-.877-.685-1.33-.685a.591.591 0 0 0-.302.071 5.081 5.081 0 0 0-.508-.022c-.22 0-.448.01-.678.02l-.157-2.83c.487.203.857.517 1.281 1.021a.295.295 0 0 0 .513-.246c-.192-1.039-.213-2.019-.202-3.06.54.354 1.072.713 1.576 1.094l4.36 4.738a.29.29 0 0 0 .263.09c.95-.159 1.9-.315 2.849-.474a.294.294 0 0 0 .23-.193.298.298 0 0 0-.06-.297c-.741-.83-1.508-1.631-2.25-2.445 1.269.78 2.875 1.755 3.08 1.755.022 0 .027-.013.012-.04-.094-.163-.9-.755-1.775-1.373.14.058.276.12.415.177l.017.01c.103.035.16.059.27.062a.286.286 0 0 0 .108-.016.317.317 0 0 0 .188-.152.32.32 0 0 0 .023-.238c-.017-.05-.038-.077-.054-.098-.061-.085-.103-.109-.162-.154a4.553 4.553 0 0 0-.205-.149c-.153-.105-.336-.223-.493-.328a4.992 4.992 0 0 1-.328-.233.307.307 0 0 0-.028-.025l-3.892-2.736c-.008-.006-.02-.001-.028-.006-1.333-1.869-2.588-3.825-4.046-5.627C9 4.496 8.145 2.888 6.758 2.352 6.69 1.956 6.54 1.225 6.003.703 5.547.26 4.888.056 4.147.011A5.728 5.728 0 0 0 3.796 0zM26.57 4.787q-.407 0-.472.314v.019q.047.083.194.083.425-.185.425-.342v-.018q0-.037-.148-.056zm1.477-.572q-.065.36-.637.775l.203.083.277-.101.138.092q1.062.508 2.817.536l2.752.027h.037q.47 0 .457.688-.014.716-.485 1.436-.296 0-.6-.226-.305-.226-.5-.53-.193-.306-.498-.795.093.97.554 1.524-.563 0-1.002.106-.219.053-.365.053-.147 0-.221-.053-.092-.066-.457-.066-.222 0-.545.024-.249.02-.455.02-.501 0-.75-.112-.23-.194-.29-.679-.06-.485.272-1.343-.684.489-.684 1.486v.333q-.341-.351-.535-.776-.379-.942-1.035-.942-.249 0-.96.314-.24-.101-.194-.323l.462-.619q.332-.563.48-.628.074-.138.72-.138.277.074.277.203 0 .175-.184.35.35-.073.508-.415 0-.083.443-.304zm.398-1.965q-.045 0-.103.072-.701 1.117-1.274 1.551-.222.194-.6.203-.185 0-.563-.277-.564-.545-.785-.923-.25-.444-.324-.49-.037 0-.055.093 0 .526 1.071 1.948-.203.296-.378.674-.176.379-.416.577-.24.199.046.393 0 .24.397.388l.988-.287q.397 0 .545.333.49.738.49 1.542.055 1.071-.74 2.05-.249.166-.249.461 0 .12.305.12.499 0 .499-.12l-.037-.249q0-.13.194-.194v-.018q0-.176.628-1.764.286 0 .452.277.213.702.213 1.164 0 .101-.13.434-.157.12-.194.434h.74l-.056-.231q-.037-.139.101-.24l-.064-.342q-.12-1.302-.12-1.533v-.018q.73-.176 1.122-.176.392 0 .604.143.085.057.237.057.23 0 .618-.13.419-.142.643-.142.119 0 .183.04.185.115.185.392 0 1.016-.517 1.727-.167.166-.25.462h.637q.167-.056.074-.277.019-.24.222-.305 0-.84.739-1.662.517.286.526.886 0 .231-.092.628l-.111.305q-.102.12-.185.453h.61q.11-.047.138-.102l-.092-.296q-.046-.129.13-.23-.093-.49.12-.74-.435-1.015-.435-1.597.231-.95.296-1.782.11.582.027 1.395-.083.812.277 1.68.07.146.129.146.04 0 .074-.072.093-.526.037-2.909-.073-.295-.157-.452-.295-.453-.507-.471h-2.983q-2.207 0-3.269-.628.176-.314.194-.43.018-.115 0-.281-.443.13-.665.342l-.185-.139q.194-.12.62-.776.424-.655.498-1.025-.031-.062-.073-.062zm4.893 10.098c.488.021.755.032.87.032h.053l-.063 2.547a3.738 3.738 0 0 1-.97-.576l.11-2.003zm-7.107-.634c-.163.031-.377.131-.351.325v1.42c-.315-.015-.64-.031-.734-.031 0 .178.147.42.603.42.005.403.078.896.152 1.147l.063.66c0 .074.125.095.262.095.162 0 .34-.031.34-.031l-.026-.66c2.59.02 7.527.151 7.773.151.126 0 .21-.136.21-.325l.063-2.846-1.557-.016-.126 2.217c-1.127.006-3.076.19-4.402.19-.42 0-.781-.017-1.028-.069-.052-.058-.54-.765-.849-.844a1.36 1.36 0 0 0-.183-.02c-.053-.43-.105-.86-.152-1.285.094-.12.309-.09.366-.252.058-.078.021-.21-.089-.215-.063-.026-.235-.031-.309-.031zm16.158-9.191q.128 0 .21.155.125.201-.19.34-.303.152-.202.518l.29 1.249q-.303.038-.53.303V3.523q0-.795.215-.921.115-.08.207-.08zm-.712 2.834v.47l-1.035-.108q.026-.127.391-.26.267-.096.644-.102zm.453.029q.455.094.683.56l-.82-.086v-.18q0-.088.113-.264l.024-.03zm1.35.522q-.068 0-.2.227.328-.114.24-.202-.017-.025-.04-.025zm-2.9.656q-.039.076-.032.12.006.044.069.07-.076 0-.139-.039.013-.075.101-.151zm.113-.025q.113.012.202.063-.05.088-.164.151.05-.063.044-.126-.007-.063-.082-.088zm-.05-.05q-.177 0-.24.264.113.076.277.076.164 0 .278-.19h.303v-.1l-.303.025q-.14-.076-.316-.076zM37.6 6.147q.757 0 0 1.4-.757-1.4 0-1.4zm5.894-.32q.049 0 .087.042.14.164-.24.34.392.594.404 1.414l-.1.012q0-.832-.329-1.375l-.025.013q.24.53.252 1.754l-.113.012q-.076-1.224-.139-1.514l-.113-.416q.19-.282.316-.282zm-2.678.392q.123 0 .23.035.251.082.251.347h.177q.038-.24.152-.24.113 0 .037.24l-.353.555v1.186l-.038.013q-.05-.089-.12-.227-.07-.14-.094-.366h-.379q-.214 0-.214-.101 0-.19.202-.215 0-.1-.064-.1l-.252-.013q.076-.177-.151-.227 0-.101.202-.455v-.214l.037.05q.164-.075.253-.088.1 0 .303.088h.227V6.4h-.227q-.177-.114-.303-.114-.139 0-.29.114 0-.101.037-.114.206-.066.377-.066zm-.276-.312l1.136.121v.106h.315v-.072l.909.097q.013.063.126.417.164.492.139 3.47l-1.59.012V7.195q.088-.126.227-.353.139-.228.133-.486-.006-.217-.21-.217-.04 0-.087.009-.202 0-.252.252-.013-.202-.227-.297-.098-.043-.253-.043-.186 0-.454.062.013-.126.088-.214zm-2.956 4.069q.507 0 .61.347h-.48q-.391-.038-.391-.328.141-.02.26-.02zm3.726-1.091v1.438h1.363q-.013.782-.145 1.88-.133 1.098-.335 1.861-.202.764.265 1.243h-3.722q.126-.138.17-.467.044-.328-.284-1.11l-.946-2.864q.008-.418.225-.418.136 0 .355.165l1.288 1.906.479.605q.126.089.224.089.197 0 .28-.354.455-1.034.341-2.536-.441-.467.442-1.438zm1.09-6.636q-.17 0-.383.137-.341.227-.341 1.338v1.372q-.35.018-.593.073-.366.082-.6.353-.233.271-.233.75-.05.203-.012.38-.215.378-.215.517 0 .075.19.075l-.039.114q.026.063.076.076-.038.05-.025.113l.088.038q-.075.34.29.34h.265q.026.24.29.644-.012.025-.245.316-.234.29-.461.7t.101.801q.088 1.275-.391 2.36l-1.666-2.423q-.185-.606-.65-.606h-.019V7.952h.896v-.303h-.896q.909-1.754-.227-1.754-1.123 0-.227 1.754h-.883v.303h.87v1.766q-.706 0-.138.896 1.337 4.013 1.3 4.278-.038.278-.373.48-.334.201-.17.378h5.022q.252-.114 0-.353-.669-.795-.43-1.527.24-.732.417-3.546h.467v-.833q0-.757-.012-1.3.1-.012.227-.062l-.026-.379.228-.013q0-.933-.404-1.476.441-.177.202-.454-.094-.113-.195-.113-.158 0-.335.277-.329-.622-.733-.806.17-.095.405-.166l-.354-1.501q-.05-.177.215-.341.353-.252.139-.606-.159-.301-.411-.301zm4.13 1.559l2.736 2.406q-.577.89-1.533 1.797-.907-2.143-1.203-4.203zM45.8 2.62q-.528 0-.409.725.511.248.429.56-.083.314.066 1.04.148.725 1.186 3.444-.315 1.074.367 1.074l.062-.002q1.846 3.395 4.071 5.917h.396l-.099-1.104q-1.78-1.665-3.808-5.39.594-1.253 1.665-2.193l3.28 2.95q.249.112.417.112.458 0 .325-.82l-3.296-2.818q.013-.75-.625-.75-.148 0-.332.04L46.53 2.82q-.453-.198-.729-.198z"/><path d="M22.116.375v17.25m0-17.25h2.625m-2.625 17.25h2.625m0-17.25h29.037m-29.037 17.25h29.037m0-17.25h17.625m-17.625 17.25h17.625M55.541.375v17.25M59.066.375v17.25M60.828.375v17.25M62.591 2.1h8.812m-8.812 3.45h8.812M62.591 2.1v3.45m1.762-1.725h7.05m-8.812 3.45h8.812m-8.812 3.45h8.812m-8.812-3.45v3.45M64.353 9h7.05m-8.812 3.45h8.812m-8.812 3.45h8.812m-8.812-3.45v3.45m1.762-1.725h7.05" fill="none" stroke="#000"/></svg>