<svg xmlns="http://www.w3.org/2000/svg" width="84.785" height="18"><path d="M9.777 3.093q1.51.22 1.579 1.382v8.382q-.706-.843-2.536-1.184l.957-8.58zM9.35 2.25L8.22 12.272q2.52.289 3.136 1.8v1.678h.752V4.475q0-1.883-2.757-2.225zm15.587 1.507v1.486H13.99V3.757zM14.03 2.25v1.125h-.421v2.25H25.32v-2.25h-.341V2.25h-.382v1.125h-.944V2.25h-.382v1.125h-.944V2.25h-.382v1.125h-.924V2.25h-.402v1.125h-.924V2.25h-.381v1.125h-.944V2.25h-.382v1.125h-.944V2.25h-.382v1.125h-.924V2.25h-.382v1.125h-.944V2.25zm1.014 4.645l-1.436 1.698h.7l.736-.877.743.877.722-.877.743.877.736-.877.743.877.736-.877.743.877.722-.877.743.877.743-.877.722.877.743-.877.736.877h.7l-1.436-1.698-.743.82-.722-.82-.743.82-.743-.82-.722.82-.743-.82-.736.82-.743-.82-.736.82-.743-.82-.722.82-.743-.82zm.213 3.787l3.08.172a8.506 8.506 0 0 1-.082 1.998c-1.149-.635-2.149-1.358-2.998-2.17zm3.342-.819c-.172 0-.349.111-.53.333l-3.33-.172c-.786.203-.946.519-.481.946.09-.02.171-.03.242-.03.172 0 .285.06.336.179.073.168.269.387.587.657.319.27 1.183.828 2.592 1.673.166.418.35.626.551.626.094 0 .192-.045.294-.137 2.003.864 3.938 1.468 5.805 1.812l.263-.207-.643-.683c-1.37-.119-3.155-.652-5.353-1.599a5.686 5.686 0 0 1-.038-2.33l3.727.25c.553-.139.594-.426.123-.86l-3.669-.153c-.154-.203-.312-.305-.476-.305zm9.573-7.613c-.372 0-1.374 1.42-1.223 1.682.052.089.247.124.54.124 1.113 0 3.64-.507 5.117-.507 4.321 0 4.51 1.496 4.51 2.982 0 .863-.334 1.503-.334 2.404 0 1.307 1.277 4.016 1.48 4.016.203 0-.827-2.686-.827-3.919 0-1.217.452-2.167.452-3.342 0-.843-.39-1.223-.619-1.835.357-.025.96.024.96-.083 0-.109-1.06-.332-1.627-.431-1.32-.232-2.438-.445-3.752-.445-1.398 0-4.51.362-4.51.362.023-.346.031-1.008-.167-1.008zm3.574 11.948c-.086 0-.173.01-.26.032a1.63 1.63 0 0 0-.566.29h-4.1v.907h4.1c.203.151.392.248.566.291a1.088 1.088 0 0 0 .518 0c.17-.043.342-.14.512-.29h.158c.164.15.334.247.508.29a1.093 1.093 0 0 0 .522 0c.174-.043.36-.14.557-.29h4.14v-.908h-4.14a1.545 1.545 0 0 0-.557-.29 1.093 1.093 0 0 0-.522 0 1.17 1.17 0 0 0-.508.29h-.158a1.24 1.24 0 0 0-.512-.29 1.058 1.058 0 0 0-.258-.032zm11.508-8.233h-.015c-.154.002-.255.047-.302.132v.175l-.432.227c-.144.075-.216.144-.216.206l.73-.34c.012.029.061.043.149.043.017 0 .037 0 .057-.002a.7.7 0 0 0 .36-.113V6.21h-.061a.543.543 0 0 0-.264-.077.405.405 0 0 0-.086.01.441.441 0 0 0-.23.11c.052-.112.244-.167.575-.167h.056v-.082a1.556 1.556 0 0 0-.32-.04zm1.113-.115a1.143 1.143 0 0 0-.241.49c-.038.174-.047.58-.026 1.219.473-.268.746-.55.818-.85.072-.298.064-.543-.026-.735l-.164-.03-.186-.052-.175-.042zM44 5.536h.004c.266.002.523.097.744.242.395.231.771.491 1.154.742.26.156.554.262.853.317-.488.026-.987.101-1.423.333-.283.155-.524.404-.624.716-.09.276-.085.572-.09.86.004.539.104 1.095.4 1.552.019.032.049.063.06.094-.046.045-.108.056-.172.056-.043 0-.086-.005-.126-.007-.181-.032-.312-.176-.432-.303a3.969 3.969 0 0 1-.476-.66c-.262-.489-.351-1.05-.393-1.598-.015-.194-.01-.389-.026-.582-.012-.088-.074-.186-.171-.186a.146.146 0 0 0-.006 0c-.13 0-.237.09-.358.126a1.117 1.117 0 0 1-.374.067c-.127.012-.243.08-.37.08l-.032-.002a1.146 1.146 0 0 1-.145-.015c.198-.062.4-.118.584-.218.055-.028.114-.096.078-.16a.096.096 0 0 0-.085-.043.232.232 0 0 0-.106.03c-.137.065-.255.17-.404.207a.968.968 0 0 1-.314.05c-.04-.037-.042-.1-.038-.152.03-.083.131-.095.196-.14.025-.01.05-.035.076-.035.008 0 .017.003.025.01a.2.2 0 0 0 .088.022c.037 0 .071-.013.09-.049.046-.081.002-.188-.078-.23a.17.17 0 0 0-.243.073c-.029.052-.094.063-.138.1-.007.008-.013.012-.018.012-.013 0-.02-.023-.026-.038-.01-.032.043-.026.055-.047.166-.11.34-.208.5-.325.18-.212.437-.334.685-.448.025-.026.006-.07.036-.096.087-.123.24-.17.373-.225a1.95 1.95 0 0 1 .645-.13H44zm6.77 1.575h.01c.624.002 1.262.11 1.808.43.18.104.349.234.472.403-.159-.132-.356-.203-.551-.266.02.06.01.13.044.184.207.125.383.336.391.585.015.337-.147.65-.34.916-.164.23-.345.472-.377.76-.004.052.003.108-.035.148-.087.105-.228.146-.356.171a.857.857 0 0 1-.143.013.547.547 0 0 1-.376-.13c-.088-.09-.147-.206-.233-.3-.227-.277-.507-.532-.857-.638a1.168 1.168 0 0 0-.47-.044l.165.247a.632.632 0 0 1 .17-.024.411.411 0 0 1 .376.205c-.173.005-.343.05-.515.07-.48.07-.961.147-1.44.216-.036-.038-.083-.07-.137-.07a.14.14 0 0 0-.008 0c-.69-.105-1.382-.212-2.081-.217a.09.09 0 0 1-.02.003c-.027 0-.036-.017-.03-.05-.002-.06-.033-.14-.103-.14l-.007.001c-.085.005-.13.089-.152.161-.052.134-.085.296-.212.381a.34.34 0 0 1-.16.038.461.461 0 0 1-.256-.082c-.093-.08-.135-.2-.185-.308-.155-.394-.176-.825-.162-1.244.017-.314.103-.64.321-.876.173-.194.432-.283.68-.338.467-.106.95-.125 1.43-.137h.037c.315 0 .63.021.944.021h.033l.163.001c.598 0 1.197-.03 1.793-.08a6.478 6.478 0 0 1 .369-.01zM46.108 4.41a.953.953 0 0 0-.388.08 1.01 1.01 0 0 1-.408.09 1.01 1.01 0 0 1-.41-.09.702.702 0 0 0-.285-.058c-.216 0-.467.086-.751.258-.29-.172-.543-.258-.761-.258a.705.705 0 0 0-.286.058 1.01 1.01 0 0 1-.41.09 1.01 1.01 0 0 1-.408-.09.953.953 0 0 0-.388-.08c-.172 0-.357.042-.555.125-.242.102-.435.153-.579.153a.383.383 0 0 1-.169-.034 1.649 1.649 0 0 0-.304-.124.158.158 0 0 0-.045-.008c-.052 0-.07.042-.054.127.106.313.315.476.628.49l.146.002c.246 0 .452-.029.617-.087a.847.847 0 0 1 .286-.047c.127 0 .266.024.417.071a1.521 1.521 0 0 0 .793.055.945.945 0 0 1 .18-.018.65.65 0 0 1 .428.15 2.25 2.25 0 0 0-.501.21c-.111.066-.22.17-.231.304a1.428 1.428 0 0 0-.326.176c-.197.135-.369.306-.54.47-.083.06-.18.102-.258.167-.066.043-.123.111-.118.195-.008.108.043.208.058.31a.731.731 0 0 0 .117.385c.09.06.179.122.276.17.029.323.079.663.27.933.047.062.1.124.17.158h.154v-.475l.289.12c.065-.027.087-.105.11-.165.058-.203.027-.42.004-.626-.024-.054.011-.064.06-.065h.005c.024 0 .064-.017.088-.017.012 0 .02.004.022.014.005.724.121 1.465.463 2.11.12.23.275.443.446.637.047.2-.06.389-.154.557-.09.159-.242.275-.312.445-.09.18-.11.39-.227.558-.103.164-.251.293-.396.418-.122.113-.243.235-.309.39-.34.255-.676.537-.884.913-.008.029.02.035.044.035l.026-.002h1.026a1.06 1.06 0 0 0 .261-.32c.046.018.097.03.148.03a.245.245 0 0 0 .2-.089.257.257 0 0 0 .07-.204c.01-.34.118-.69.35-.943.11-.1.249-.167.372-.25.062-.055.105-.129.163-.189a5.13 5.13 0 0 1 .92-.846c.021-.01.047-.035.07-.035.01 0 .018.004.026.013.17.118.3.284.423.448.06.193.138.39.287.534a.719.719 0 0 0 .235.156c.11.252.144.527.158.8-.24.28-.462.578-.651.895h1.168a.726.726 0 0 0 .192-.481h.024c.113 0 .23-.065.261-.178.05-.15-.025-.309-.107-.433-.174-.257-.333-.541-.351-.857-.005-.12.004-.243-.029-.36a.817.817 0 0 0-.254-.43c-.193-.208-.273-.491-.33-.763.259.01.518.024.775.058.346.044.692.102 1.03.18.021.007.055.009.048.04.017.1.086.198.186.224.062.18.117.373.256.509.025.02.053.035.083.049.017-.215.038-.43.099-.637l1.022-.097c-.062.42-.145.85-.364 1.218-.202.33-.472.612-.758.871-.072.101-.135.222-.247.283a.276.276 0 0 0-.146.05c-.17.11-.282.289-.394.454-.062.098-.12.198-.176.3h1.282c.017-.104.03-.21.027-.316a.31.31 0 0 0 .1.016.248.248 0 0 0 .217-.112.632.632 0 0 0 .09-.273c.257-.254.41-.59.627-.874a1.14 1.14 0 0 1 .459-.365.69.69 0 0 0 .329-.472l.017.001c.062 0 .108-.055.15-.092a.436.436 0 0 0 .09.009c.092 0 .187-.031.235-.115a.335.335 0 0 0 .03-.074c.328.21.586.54.68.921.053.172.025.354.032.532v.308a7.003 7.003 0 0 0-.663.906h1.17a.769.769 0 0 0 .19-.49.286.286 0 0 0 .036.002c.103 0 .209-.054.244-.154.06-.15-.008-.314-.086-.443-.042-.067-.023-.151-.035-.226-.02-.343-.022-.688-.022-1.032.005-.12.016-.258-.062-.36-.04-.045-.114-.02-.15-.072-.074-.093-.105-.212-.14-.325-.061-.209-.057-.452.074-.634a2.01 2.01 0 0 0 .241-.372c.082-.164.144-.337.199-.512a3.4 3.4 0 0 1-.106 1.01c-.081.437-.048.885.008 1.323.031.208.071.428.202.598.045.054.118.1.19.1a.154.154 0 0 0 .082-.022c.13-.065.198-.213.194-.354.003-.202-.063-.395-.096-.592a72.03 72.03 0 0 0-.226-1.047c.102-.582.17-1.184.056-1.769-.071-.353-.24-.707-.546-.912a3.783 3.783 0 0 0-.595-.31 3.356 3.356 0 0 0-1.498-.256 25.305 25.305 0 0 1-3.205-.119 3.62 3.62 0 0 1-1.002-.22c-.578-.219-1.083-.583-1.597-.92a1.865 1.865 0 0 0-.653-.259.828.828 0 0 1 .397-.097c.06 0 .123.006.188.017.08.015.163.022.247.022.169 0 .344-.029.525-.087.151-.047.29-.071.418-.071a.83.83 0 0 1 .286.047c.164.058.37.087.617.087.047 0 .095 0 .145-.003.313-.013.526-.176.639-.489.01-.085-.013-.127-.07-.127a.183.183 0 0 0-.05.008 2.007 2.007 0 0 0-.3.124.395.395 0 0 1-.17.034c-.144 0-.337-.051-.577-.153a1.414 1.414 0 0 0-.55-.125zm12.34-1.873v.305h-.772v-.305zm.987.88q-.144.161-.144.556h-2.459q.018-.395-.126-.556zm0 1.13q-.18.162-.144.557h-2.459q.018-.395-.126-.556zm0 1.132q-.144.126-.144.556h-2.459q.036-.395-.126-.556zm-.072 1.13q-.251.45-.233 1.204h-2.172q.036-.754-.234-1.203zm-.233 1.33v.125h-2.172v-.126zm0 .25v.126h-2.172V8.39zm0 .252v.126h-2.172V8.64zm0 .251v.126h-2.172v-.126zm0 .252v4.362q.161.808.574 1.777h-3.303q.323-.718.557-1.777V9.144zM57.407 2.25v.592h-2.011q-.341.288 0 .575h.826q.161.161.143.556h-.97q-.34.288 0 .575h.827q.161.161.143.556h-.97q-.34.288 0 .575h.827q.18.161.143.556h-.97q-.34.27 0 .575h.827q.323.377.287 2.28v4.416q-.126.987-.88 2.244h4.92q-.863-1.436-.952-2.244V9.09q-.09-1.885.305-2.28h.844q.359-.27 0-.575h-.97q-.018-.43.126-.556h.897q.306-.305-.053-.575h-.97q-.018-.395.126-.556h.844q.34-.287 0-.575h-.97q-.018-.395.126-.556h.844q.34-.287 0-.575h-2.011V2.25zm8.254.287v.305h-.772v-.305zm.987.88q-.143.161-.143.556h-2.46q.018-.395-.125-.556zm0 1.13q-.18.162-.143.557h-2.46q.018-.395-.125-.556zm0 1.132q-.143.126-.143.556h-2.46q.036-.395-.125-.556zm-.071 1.13q-.252.45-.234 1.204h-2.172q.036-.754-.233-1.203zm-.234 1.33v.125h-2.172v-.126zm0 .25v.126h-2.172V8.39zm0 .252v.126h-2.172V8.64zm0 .251v.126h-2.172v-.126zm0 .252v4.362q.162.808.575 1.777h-3.304q.324-.718.557-1.777V9.144zM64.62 2.25v.592h-2.01q-.342.288 0 .575h.825q.161.161.144.556h-.97q-.341.288 0 .575h.826q.161.161.144.556h-.97q-.341.288 0 .575h.826q.18.161.144.556h-.97q-.341.27 0 .575h.826q.323.377.287 2.28v4.416q-.126.987-.88 2.244h4.92q-.862-1.436-.952-2.244V9.09q-.09-1.885.305-2.28h.844q.359-.27 0-.575h-.97q-.018-.43.126-.556h.898q.305-.305-.054-.575h-.97q-.018-.395.126-.556h.844q.341-.287 0-.575h-.97q-.018-.395.126-.556h.844q.341-.287 0-.575h-2.01V2.25zm8.473.45c.806 0 1.814.415 2.302.903.427.426.483.992.498 1.518h-5.576c.016-.526.072-1.092.498-1.518.488-.488 1.473-.902 2.278-.902zm0-.45c-.955 0-1.983.441-2.586 1.044-.618.618-.688 1.432-.688 2.04v.238h6.549v-.237c0-.61-.046-1.423-.664-2.04-.603-.604-1.655-1.045-2.61-1.045zm.016 7.272q.609 0 1.24.266l-1.2 1.217-1.234-1.217q.585-.266 1.194-.266zm-2.63 1.592l1.218 1.218-1.218 1.217q-.53-1.264 0-2.435zm5.26.063q.53 1.264 0 2.435l-1.217-1.218 1.217-1.217zm-.952-1.03q.375.171.593.593l-1.654 1.67 1.638 1.639q-.202.406-.608.593l-1.64-1.639-1.607 1.608q-.406-.25-.593-.61l1.608-1.591-1.686-1.686q.172-.406.609-.577l1.67 1.67 1.67-1.67zm-1.639 3.62l1.217 1.218q-.593.266-1.201.266-.609 0-1.233-.266l1.217-1.217zm-.031-4.76q-1.608 0-2.536 1.046-.93 1.046-.93 2.294 0 1.405 1.086 2.396 1.084.991 2.349 1.007 1.53-.016 2.49-1.054.959-1.037.959-2.349l-.016.032q.016-1.187-.944-2.28-.96-1.092-2.458-1.092z"/><path d="M8.22.375c-9.625 0-9.625 17.25 0 17.25m0-17.25h68.315M8.22 17.625h68.315M84.223.375v17.25M76.535.375c9.625 0 9.625 17.25 0 17.25" fill="none" stroke="#000"/></svg>