<svg xmlns="http://www.w3.org/2000/svg" width="65.914" height="18"><path d="M15.808 4.507c-.485.039-.753.281-.804.727.064.485.332.74.804.766.472-.026.72-.28.746-.766-.038-.446-.287-.688-.746-.727zm.057-1.607c.345 0 .663.064.957.192a2.522 2.522 0 0 1 1.3 1.291c.128.287.192.59.192.909 0 .331-.064.64-.191.928a2.435 2.435 0 0 1-2.257 1.444 2.54 2.54 0 0 1-.967-.182c-.3-.12-.558-.29-.775-.507a2.486 2.486 0 0 1-.516-.755 2.259 2.259 0 0 1-.192-.928c0-.319.064-.622.192-.909.127-.287.3-.542.516-.765a2.35 2.35 0 0 1 .775-.526c.3-.128.622-.192.966-.192zm-.038-.65c-.421 0-.816.08-1.186.24-.37.159-.689.375-.957.65a3.188 3.188 0 0 0-.64.956c-.16.364-.24.756-.24 1.177 0 .42.08.813.24 1.176.159.364.372.68.64.947a3.036 3.036 0 0 0 2.143.88c.42 0 .813-.08 1.176-.239.364-.16.683-.373.957-.64.274-.269.491-.584.65-.948.16-.363.24-.755.24-1.176 0-.421-.08-.813-.24-1.177a3.1 3.1 0 0 0-1.607-1.607 2.897 2.897 0 0 0-1.176-.239zM9.97 10.261v5.057l-.648-2.853q-.194-.691-.583-.82v-.066q.389-.13.561-.734l.065-.584zM8.868 9.7v1.016q-.151.519-.648.627v.518q.497.108.648.67l.713 3.22h.886v-5.489q6.073 5.143 10.913 5.446 1.383-.065 1.794-.649.41-.583.173-1.166-.238-.584-.81-.746-.154-.043-.297-.043-.39 0-.698.324-.421.443-.14.918.19.322.45.322.123 0 .263-.073.432-.227.194-.767.042-.006.078-.006.344 0 .247.557-.108.616-1.254.68-4.516-.67-9.854-4.818V9.7zm17.935-7.45q-.247 0-.27.218l.24-.053q.15 0 .083.158-.173.165-.053.488-.22.475-.847.475l-.076-.002q.03.353-.15.533-.631.36-.631.66.496.234.165.571-.33.338-.33.458.218.068.3.233.376.916.758 1.3l-.03.307q.368 0 .406-.39-.69-.841-.668-1.795.03-.954 1.209-1.877.337-.188.337-.728 0-.556-.443-.556zm4.505 0q-.443 0-.443.556 0 .54.323.728 1.194.923 1.224 1.877.023.954-.683 1.795.052.39.405.39l-.022-.308q.375-.383.758-1.299.09-.165.293-.233 0-.12-.323-.458-.323-.337.165-.57 0-.3-.623-.661-.18-.18-.165-.533l-.075.002q-.614 0-.834-.475.113-.323-.052-.488-.068-.158.082-.158l.24.053q-.022-.218-.27-.218zm-2.256 4.115q.882 0 1.768.675.691.586.083 1.344h-3.71q-.607-.758.098-1.344.879-.675 1.761-.675zM26.398 8.64q-1.044 1.216-1.044 1.854.083.368.323.368.315 0 .406-.285 0-.946.405-1.585l-.09-.352zm5.316 0l-.09.352q.405.639.405 1.585.083.285.406.285.232 0 .323-.368 0-.638-1.044-1.854zm-3.289.135q.488 0 .488.518v3.912q-1.531 0-1.734-.984-.203-.984-.023-3.446zm2.508 0q.203 2.462-.008 3.446-.21.984-1.741.984V9.293q0-.518.488-.518zm-1.99-4.182v.27q0 .188-.15.188-.233 0-.556-.27h-.165l.518.975-.165.053q-.27-.353-.54-.728-.043-.02-.075-.02-.082 0-.098.125l.405.706q-.285.232-.285.405-.45 0-.676.353-.653.458-.653 1.014 0 .42.27.96-.187 1.044-.187 2.629 0 1.043.36 1.674.368.63 2.102.63 1.735 0 2.095-.63.368-.63.368-1.674.015-1.585-.173-2.613.27-.556.27-.976 0-.556-.66-1.014-.233-.353-.668-.353 0-.173-.308-.405l.405-.706q0-.124-.077-.124-.03 0-.073.019-.27.375-.54.728l-.166-.053.503-.976h-.15q-.338.27-.578.27-.127 0-.127-.187v-.27zm-2.967 6.621l-.029.001q-.878 1.554-.878 2.448 0 .893.308 1.434.315.54.856.653-.729-.976-.729-1.562 0-.578.136-.946.12 1.029.54 1.45-.188-.827-.172-1.743.007-.923.307-1.374.015-.36-.339-.36zm6.16 0q-.354 0-.34.361.286.45.3 1.374.016.916-.164 1.742.42-.42.54-1.449.135.368.135.946 0 .586-.728 1.562.54-.113.841-.653.308-.54.308-1.434 0-.894-.864-2.448h-.029zm4.766-8.649q-.185 0-.185.216 0 .185.185.185.195-.011.195-.206 0-.195-.195-.195zm-.716.14v.196l-.422.075q.195-.205.422-.27zm.022.26q.25.196.087.293-.25-.086-.369-.227l.282-.065zm.759-.498q.51 0 .813.39.303.39.325 1.203.791.163 1.051.716.042.358-.161.358h-.012q-.217-.011-.342-.12-.045-.04-.068-.04-.04 0-.013.121.043.19.477.461.433.271.07.45-.09.044-.192.044-.308 0-.724-.407-.552-.542-.585-.824-.032-.282.228-.52.154-.142.106-.142-.033 0-.16.066-.315.162-.331.477-.016.314.25.688.265.374 1.045.948.08.042.18.042.215 0 .525-.188.455-.276-.455-.85.336-.087.346-.293.423.14 2.374 2.623.52.346.531.509-.01.152-.162.184-.033.007-.066.007-.123 0-.26-.093-.607.292-1.176.303h-.059q-.529 0-.878-.184.358.314.25.66-.053.17-.08.17-.03 0-.03-.19 0-.37-.942-.705v.412q-.056.233-.088.233-.032 0-.042-.212-.065-.466-.31-1.002-.243-.537-.774-1.485-.531-.949-.678-1.366-.146-.417-.135-.775.01-.357-.146-.525-.158-.168-.092-.364.065-.195-.196-.368v-.184q.282-.228.586-.228zm2.059 6.243q.531.152.531.358L39.2 10.4q-.043.238-.292.238h-.434v-.021l.553-1.691V8.71zm-2.02-6.46h-.04q-.422 0-.856.347-.249.087-.509.401.358.325.65.401.033.152.206.423.011.715.195 1.187.185.471 1.236 2.53.52 1.084.52 1.334 0 .379-.477 1.701 0 .076-.65.12-.975.032-.975.27 0 .141.13.141h2.883q.27-.216.303-.368.26.108.282.293.036.146.104.146.012 0 .026-.006.087-.032.087-.14-.076-.293-.38-.564l.347-1.463q1.052-.033 1.832-.336.144.032.265.032.24 0 .385-.13.217-.195-.086-.607-.662-.66-1.258-1.452-1.224-1.507-1.68-1.745-.151-.314-.363-.499-.211-.184-.764-.455-.01-.64-.298-1.106-.28-.455-1.115-.455zm-2.343 9.906v3.594h.6v-3.594zm4.13.005v3.589h.6v-3.589zm4.204 0v3.589h.6v-3.589zm2.895-1.184v1.225h2.703v-1.225h-.53c-.154.272-.33.449-.53.53a.76.76 0 0 1-.59 0c-.194-.081-.369-.258-.523-.53zm1.64-4.458v2.03h-.614v2.483h.662V9.476h.768V7.347h.949c.17 1.324.629 2.308 1.38 2.952.75.643 1.676 1.016 2.78 1.12 1.103.102 1.828.248 2.173.435.346.188.519.377.519.569h1.346c-.206-.493-.482-.868-.828-1.126-.345-.257-.987-.42-1.925-.485-.938-.067-1.688-.19-2.25-.37a3.588 3.588 0 0 1-1.507-.96c-.441-.46-.78-1.447-1.015-2.963zm-.892 7.115l-1.542 1.823h.752l.79-.942.796.942.775-.942.797.942.79-.942.797.942.79-.942.797.942.775-.942.797.942.797-.942.775.942.797-.942.79.942h.751l-1.541-1.823-.797.881-.775-.88-.797.88-.797-.88-.775.88-.797-.88-.79.88-.797-.88-.79.88-.797-.88-.775.88-.797-.88zm8.138-9.187c-.409.032-.635.237-.678.613.054.409.28.624.678.646.398-.022.608-.237.629-.646-.032-.376-.242-.58-.63-.613zm.048-1.355c.29 0 .56.054.807.161a2.127 2.127 0 0 1 1.097 1.089c.108.242.161.498.161.767 0 .28-.053.54-.161.782a2.029 2.029 0 0 1-1.097 1.065 2.092 2.092 0 0 1-.807.153c-.29 0-.562-.05-.815-.153a1.94 1.94 0 0 1-.653-.428 2.097 2.097 0 0 1-.436-.637 1.905 1.905 0 0 1-.16-.782c0-.27.053-.525.16-.767.108-.242.253-.457.436-.645s.4-.336.653-.444c.253-.107.525-.161.815-.161zm-.032-.549a2.5 2.5 0 0 0-1 .202 2.494 2.494 0 0 0-.807.549c-.226.23-.406.5-.54.806a2.443 2.443 0 0 0-.202.993c0 .354.067.685.202.992.134.306.314.572.54.798a2.56 2.56 0 0 0 1.807.742c.355 0 .686-.067.992-.201.307-.135.576-.315.807-.54.231-.227.414-.493.548-.8a2.43 2.43 0 0 0 .202-.991c0-.355-.067-.686-.202-.993a2.615 2.615 0 0 0-1.355-1.355 2.443 2.443 0 0 0-.992-.202z"/><path d="M8.22.375c-9.625 0-9.625 17.25 0 17.25m0-17.25h49.444M8.22 17.625h49.444M65.352.375v17.25M57.664.375c9.625 0 9.625 17.25 0 17.25" fill="none" stroke="#000"/></svg>