<svg xmlns="http://www.w3.org/2000/svg" width="63.07" height="18"><path d="M15.161 4.63c-.51.04-.793.295-.847.766.067.51.35.78.847.807.497-.027.76-.296.786-.807-.04-.47-.302-.726-.786-.766zm.06-1.694c.363 0 .7.067 1.009.201a2.659 2.659 0 0 1 1.37 1.361c.135.303.202.622.202.959 0 .35-.067.675-.202.978a2.567 2.567 0 0 1-2.38 1.523c-.363 0-.702-.065-1.018-.192a2.426 2.426 0 0 1-.817-.535 2.621 2.621 0 0 1-.544-.796 2.38 2.38 0 0 1-.202-.978c0-.337.067-.656.202-.958.134-.303.316-.572.544-.807.229-.235.501-.42.817-.555a2.574 2.574 0 0 1 1.018-.201zm-.04-.686c-.444 0-.86.084-1.25.252-.39.168-.726.397-1.009.686a3.36 3.36 0 0 0-.675 1.008 3.053 3.053 0 0 0-.252 1.24c0 .444.084.857.252 1.24.168.384.393.717.675.999a3.2 3.2 0 0 0 2.26.928c.443 0 .856-.084 1.24-.253a3.36 3.36 0 0 0 1.008-.675c.289-.282.517-.615.685-.998.168-.384.252-.797.252-1.24 0-.444-.084-.858-.252-1.24a3.268 3.268 0 0 0-1.694-1.695 3.053 3.053 0 0 0-1.24-.252zm6.529 12.374zm-.003.152zm-11.813-.58v.896c-.133-.062-.264-.119-.388-.18a1.246 1.246 0 0 0-.357-.1c-.101-.015-.207-.026-.302-.045a.352.352 0 0 1-.15-.054c-.013-.01-.021-.023-.021-.07 0-.047.008-.06.02-.069a.352.352 0 0 1 .151-.054c.095-.02.2-.03.302-.046.129-.02.253-.048.357-.1.124-.06.255-.118.388-.179zm0 .896zm.455.064zm8.261-1.027c.088 0 .177 0 .265.003.495.011 1.237.13 1.851.283.304.076.575.16.769.243l.082.037-.073.03a5.389 5.389 0 0 1-.768.203c-.617.125-1.362.215-1.86.227l-.266.003c-.896 0-1.79-.102-2.683-.206-.954-.11-1.907-.224-2.865-.224l-.146.001c-.838.01-1.8.104-2.567.427V14.13c.767.323 1.73.416 2.567.426l.146.001c.958 0 1.911-.112 2.865-.223.893-.104 1.787-.206 2.683-.206zm-8.436-.592l-.11.063c-.254.146-.521.249-.76.366a.8.8 0 0 1-.224.058c-.11.017-.222.028-.325.05a.79.79 0 0 0-.35.15.523.523 0 0 0-.185.42c0 .182.069.322.185.419a.79.79 0 0 0 .35.15c.103.021.216.033.325.05a.8.8 0 0 1 .225.058c.238.117.505.22.76.366l.109.063.111-.06c.738-.396 1.767-.495 2.637-.505l.141-.001c.94 0 1.876.112 2.812.22.911.107 1.823.21 2.737.21.091 0 .183-.001.274-.003a12.347 12.347 0 0 0 1.941-.237c.327-.066.622-.142.837-.223.12-.045.22-.093.292-.143a.51.51 0 0 0 .117-.109.325.325 0 0 0 .07-.197.33.33 0 0 0-.067-.194.535.535 0 0 0-.113-.111 1.434 1.434 0 0 0-.289-.158 5.812 5.812 0 0 0-.837-.265c-.647-.162-1.422-.285-1.951-.298a11.625 11.625 0 0 0-.274-.003c-.914 0-1.826.103-2.737.21-.936.108-1.872.22-2.812.22l-.141-.001c-.87-.01-1.899-.109-2.637-.505l-.11-.06zM25.512 2.25q-.248 0-.27.218l.24-.053q.15 0 .082.158-.172.165-.052.488-.22.475-.847.475l-.077-.002q.03.353-.15.533-.63.36-.63.66.495.234.165.571-.33.338-.33.458.217.068.3.233.375.916.758 1.3l-.03.307q.368 0 .405-.39-.69-.841-.668-1.795.03-.954 1.209-1.877.338-.188.338-.728 0-.556-.443-.556zm4.505 0q-.443 0-.443.556 0 .54.323.728 1.194.923 1.224 1.877.022.954-.684 1.795.053.39.406.39l-.023-.308q.376-.383.759-1.299.09-.165.292-.233 0-.12-.322-.458-.323-.337.165-.57 0-.3-.623-.661-.18-.18-.166-.533l-.074.002q-.615 0-.834-.475.112-.323-.053-.488-.067-.158.083-.158l.24.053q-.022-.218-.27-.218zM27.76 6.365q.882 0 1.768.675.69.586.082 1.344h-3.709q-.608-.758.098-1.344.878-.675 1.76-.675zM25.106 8.64q-1.043 1.216-1.043 1.854.082.368.323.368.315 0 .405-.285 0-.946.405-1.585l-.09-.352zm5.316 0l-.09.352q.406.639.406 1.585.082.285.405.285.233 0 .323-.368 0-.638-1.044-1.854zm-3.288.135q.488 0 .488.518v3.912q-1.532 0-1.735-.984-.202-.984-.022-3.446zm2.507 0q.203 2.462-.007 3.446-.21.984-1.742.984V9.293q0-.518.488-.518zm-1.99-4.182v.27q0 .188-.15.188-.232 0-.555-.27h-.165l.518.975-.165.053q-.27-.353-.541-.728-.042-.02-.074-.02-.082 0-.099.125l.406.706q-.286.232-.286.405-.45 0-.675.353-.654.458-.654 1.014 0 .42.27.96-.187 1.044-.187 2.629 0 1.043.36 1.674.368.63 2.103.63 1.734 0 2.095-.63.368-.63.368-1.674.015-1.585-.173-2.613.27-.556.27-.976 0-.556-.66-1.014-.233-.353-.669-.353 0-.173-.308-.405l.406-.706q0-.124-.078-.124-.03 0-.072.019-.27.375-.541.728l-.165-.053.503-.976h-.15q-.338.27-.578.27-.128 0-.128-.187v-.27zm-2.966 6.621l-.03.001q-.878 1.554-.878 2.448 0 .893.308 1.434.316.54.856.653-.728-.976-.728-1.562 0-.578.135-.946.12 1.029.54 1.45-.187-.827-.172-1.743.007-.923.308-1.374.014-.36-.34-.36zm6.159 0q-.354 0-.34.361.286.45.301 1.374.015.916-.165 1.742.42-.42.54-1.449.136.368.136.946 0 .586-.729 1.562.541-.113.841-.653.308-.54.308-1.434 0-.894-.863-2.448h-.03zm8.426-8.691q.128 0 .209.155.126.201-.19.34-.302.152-.202.518l.29 1.249q-.302.038-.53.303V3.523q0-.795.215-.921.116-.08.207-.08zm-.713 2.834v.47l-1.034-.108q.025-.127.391-.26.266-.096.643-.102zm.453.029q.456.094.683.56l-.82-.086v-.18q0-.088.114-.264.01-.015.023-.03zm1.351.522q-.069 0-.201.227.328-.114.24-.202-.016-.025-.039-.025zm-2.901.656q-.038.076-.032.12.006.044.07.07-.076 0-.14-.039.013-.075.102-.151zm.113-.025q.114.012.202.063-.05.088-.164.151.05-.063.044-.126-.006-.063-.082-.088zm-.05-.05q-.177 0-.24.264.114.076.278.076.164 0 .277-.19h.303v-.1l-.303.025q-.139-.076-.315-.076zm-3.041-.341q.757 0 0 1.4-.757-1.4 0-1.4zm5.894-.32q.048 0 .087.042.139.164-.24.34.391.594.404 1.414l-.101.012q0-.832-.328-1.375l-.025.013q.24.53.252 1.754l-.114.012q-.075-1.224-.138-1.514l-.114-.416q.191-.282.317-.282zm-2.679.392q.124 0 .23.035.252.082.252.347h.177q.037-.24.151-.24.114 0 .038.24l-.353.555v1.186l-.038.013q-.05-.089-.12-.227-.07-.14-.095-.366h-.378q-.215 0-.215-.101 0-.19.202-.215 0-.1-.063-.1l-.252-.013q.075-.177-.152-.227 0-.101.202-.455v-.214l.038.05q.164-.075.252-.088.101 0 .303.088h.227V6.4h-.227q-.177-.114-.303-.114-.139 0-.29.114 0-.101.038-.114.205-.066.376-.066zm-.275-.312l1.135.121v.106h.316v-.072l.908.097q.013.063.127.417.164.492.138 3.47l-1.59.012V7.195q.089-.126.228-.353.138-.228.132-.486-.005-.217-.21-.217-.039 0-.086.009-.202 0-.253.252-.012-.202-.227-.297-.097-.043-.252-.043-.186 0-.454.062.012-.126.088-.214zm-2.957 4.069q.508 0 .61.347h-.48q-.39-.038-.39-.328.141-.02.26-.02zm3.727-1.091v1.438h1.362q-.012.782-.145 1.88-.132 1.098-.334 1.861-.202.764.265 1.243h-3.723q.127-.138.17-.467.045-.328-.283-1.11l-.946-2.864q.007-.418.224-.418.137 0 .356.165l1.287 1.906.48.605q.126.089.224.089.196 0 .28-.354.454-1.034.34-2.536-.44-.467.443-1.438zm1.09-6.636q-.17 0-.384.137-.34.227-.34 1.338v1.372q-.35.018-.594.073-.365.082-.599.353-.233.271-.233.75-.05.203-.013.38-.214.378-.214.517 0 .075.189.075l-.038.114q.025.063.076.076-.038.05-.026.113l.089.038q-.076.34.29.34h.265q.025.24.29.644-.012.025-.246.316-.233.29-.46.7-.228.41.1.801.089 1.275-.39 2.36l-1.666-2.423q-.186-.606-.65-.606h-.02V7.952h.897v-.303h-.896q.908-1.754-.227-1.754-1.123 0-.227 1.754h-.884v.303h.871v1.766q-.707 0-.139.896 1.338 4.013 1.3 4.278-.038.278-.372.48-.335.201-.17.378h5.021q.253-.114 0-.353-.668-.795-.429-1.527.24-.732.417-3.546h.467v-.833q0-.757-.013-1.3.101-.012.227-.062l-.025-.379.227-.013q0-.933-.404-1.476.442-.177.202-.454-.093-.113-.194-.113-.159 0-.336.277-.329-.622-.732-.806.17-.095.404-.166l-.353-1.501q-.05-.177.214-.341.354-.252.14-.606-.16-.301-.412-.301zm3.016 4.793V8.36h2.907V7.043h-.57c-.166.293-.356.483-.57.57a.818.818 0 0 1-.635 0c-.208-.087-.396-.277-.562-.57zm1.763-4.793v2.183h-.66v2.67h.712V5.43h.826V3.14h1.02c.182 1.424.677 2.481 1.483 3.174.807.692 1.804 1.093 2.99 1.204 1.187.11 1.966.267 2.338.468.371.202.557.406.557.611h1.448c-.222-.53-.518-.933-.89-1.21-.372-.277-1.062-.45-2.07-.522-1.009-.071-1.816-.203-2.42-.397a3.858 3.858 0 0 1-1.62-1.032c-.475-.495-.839-1.557-1.092-3.186zm-.267 11.678l-1.54 1.822h.75l.79-.942.798.942.774-.942.798.942.79-.942.796.942.79-.942.797.942.775-.942.797.942.798-.942.774.942.797-.942.79.942h.752l-1.542-1.822-.797.88-.774-.88-.798.88-.797-.88-.775.88-.797-.88-.79.88-.797-.88-.79.88-.797-.88-.774.88-.798-.88z"/><path d="M8.22.375c-9.625 0-9.625 17.25 0 17.25m0-17.25h46.6m-46.6 17.25h46.6M62.507.375v17.25M54.82.375c9.625 0 9.625 17.25 0 17.25" fill="none" stroke="#000"/></svg>