<svg xmlns="http://www.w3.org/2000/svg" width="60.056" height="18"><path d="M9.777 3.093q1.51.22 1.579 1.382v8.382q-.706-.843-2.536-1.184l.957-8.58zM9.35 2.25L8.22 12.272q2.52.289 3.136 1.8v1.678h.752V4.475q0-1.883-2.757-2.225zm17.64 1.78v1.756H14.058V4.03zM14.106 2.25v1.329h-.498v2.657H27.44V3.58h-.403V2.25h-.451v1.329h-1.115V2.25h-.451v1.329h-1.115V2.25h-.451v1.329h-1.092V2.25h-.474v1.329h-1.092V2.25h-.45v1.329H19.23V2.25h-.45v1.329h-1.116V2.25h-.45v1.329h-1.092V2.25h-.451v1.329h-1.115V2.25zm1.198 11.494l-1.696 2.006h.827l.87-1.036.877 1.036.853-1.036.877 1.036.87-1.036.877 1.036.87-1.036.877 1.036.853-1.036.877 1.036.878-1.036.853 1.036.877-1.036.87 1.036h.827l-1.697-2.006-.877.97-.853-.97-.878.97-.877-.97-.853.97-.877-.97-.87.97-.877-.97-.87.97-.877-.97-.853.97-.878-.97zm16.402-9.19c-.203.097-.45.367-.075.412.18-.007.593-.195.518-.367a.166.166 0 0 1-.119.05c-.106 0-.215-.095-.324-.095zm-1.478.067c-.248.06-.375.33-.06.39l.016.001c.182 0 .676-.22.269-.27-.068-.046-.135-.12-.225-.12zM32.2 2.738c.443.517.833 1.118.908 1.808.075.495.098.99.173 1.478-.353-.03-.248-.577-.18-.84.06-.518-.218-.998-.413-1.456-.135-.247-.263-.638-.608-.645-.383.067-.63.39-.878.668-.255-.255-.525-.533-.878-.638a.177.177 0 0 0-.06-.01c-.08 0-.172.035-.215.035-.037 0-.036-.026.043-.123.047-.168.146-.218.269-.218.178 0 .407.106.6.106a.42.42 0 0 0 .084-.008 2.801 2.801 0 0 0 1.156-.158zm-.12.57c.293.075.36.48.503.72.18.42.398.878.255 1.351-.113.225.03.51.015.675-.25.176-.47.547-.802.547a.474.474 0 0 1-.113-.014c-.33-.067-.496-.383-.75-.533-.186.178-.295.548-.599.548a.464.464 0 0 1-.137-.022c-.278-.06-.645-.03-.728-.368-.143-.345-.158-.728-.18-1.103a.243.243 0 0 0 .046.005c.152 0 .165-.177.179-.328.058-.22.216-.321.39-.321.118 0 .244.046.353.134.127.142.518.255.435.48-.037.135-.082.277-.127.42l.315.42c.03-.217.352-.397.165-.615-.03-.098-.143-.225-.128-.3.135-.24.315-.45.525-.63a.241.241 0 0 1 .173-.077c.2 0 .403.263.578.287.172-.188-.015-.263-.188-.36a.526.526 0 0 0-.365-.147.602.602 0 0 0-.49.266c-.143.086-.242.371-.367.371-.04 0-.082-.028-.128-.1-.23-.184-.504-.39-.804-.39a.642.642 0 0 0-.134.014c-.213.044-.404.474-.42.474-.008-.353.157-.669.255-1.014a.459.459 0 0 1 .447-.357c.13 0 .26.055.355.177.224.083.387.475.598.475a.2.2 0 0 0 .115-.04c.233-.247.42-.54.758-.645zm-1.065 5.207c.953.983 1.83 3.475 2.056 4.495-.368-.3-.87-.495-.983-.683-.12-.195-.45-2.093-1.073-3.812zm3.391-1.785c1.801 1.035 4.938 6.13 5.605 6.948-1.125-.713-2.236-1.433-3.444-2.019-1.696-.832-3.144-2.183-4.524-3.444 1.14-.382 1.958-1.028 2.363-1.485zm-1.868 6.468c.24.142.458.337.72.442-.157.39-.255.826-.578 1.133-.06.098-.147.129-.245.129-.171 0-.378-.092-.552-.092a.44.44 0 0 0-.035.001c.21-.525.525-.758.69-1.613zm.51-7.024c.046.094.104.125.165.125.08 0 .168-.053.24-.087.18.127.803.112.435.383-.232.315-1.475 1.174-2.339 1.326-.373.065.254.655.456.865 1.17 1.05 2.319 2.16 3.722 2.918.878.496 1.8.938 2.649 1.486.405.585.885 1.126 1.193 1.771-.308.09-.608.218-.923.293a2.168 2.168 0 0 1-.527.061c-.496 0-.994-.147-1.214-.384-.405-.428-.848-2.251-1.08-2.919-.034-.075-.08-.1-.132-.1-.1 0-.218.099-.276.099-.012 0-.022-.004-.028-.014a.293.293 0 0 0-.29-.282c-.131 0-.254.096-.235.297-.045.473-.135.946-.36 1.373-.028.073-.085.101-.161.101-.213 0-.571-.22-.815-.28.098-.579-.69-3.535-3.001-6.011-.08-.088-.433-.459-.402-.459.003 0 .012.005.027.016.118.031.251.052.383.052.253 0 .501-.078.63-.314.02-.06.044-.082.072-.082.103 0 .258.3.423.3a.69.69 0 0 0 .385.115.79.79 0 0 0 .583-.266c.142-.128.278-.255.42-.383zm-.78-3.924a2.79 2.79 0 0 1-1.02.21 2.02 2.02 0 0 1-.158-.007.603.603 0 0 1-.107.009c-.253 0-.525-.136-.77-.136a.466.466 0 0 0-.264.074c-.413.6-.788 1.268-.833 2.011-.082 1.426-.045 1.92 1.08 3.091.443 1.006 1.269 4.285 1.516 5.178.27.255-.337 1.65-.592 1.996-.14.191-.505.2-.898.2h-.129c-.353 0-.711.008-.932.145-.21.135-.285.638-.165.705.113-.172.338-.405.495-.427-.15.157.376.082.488.12.304.005.61.03.919.03.149 0 .298-.006.447-.023.067-.03.14-.075.171-.075.025 0 .025.027-.021.113.212.055.451.083.684.083.525 0 1.023-.14 1.132-.42a8.15 8.15 0 0 0 .585-1.299c.192.04.432.176.625.176a.284.284 0 0 0 .155-.04c.21-.144.428-.811.548-1.254.012-.046.074-.069.137-.069.061 0 .122.021.14.061.226.45.601 1.831.961 2.41.272.427.93.638 1.632.638.44 0 .899-.083 1.287-.249.488-.21.848-.165.743-.435-.165-.45-.45-.878-.75-1.26.435.27.87.547 1.305.817.036.131.126.183.218.183.178 0 .363-.193.18-.385-1.703-2.461-4.412-6.656-6.288-8.014a2.525 2.525 0 0 0-1.043-.563c-.128-.33-.09-.773-.165-1.148-.075-.743-.525-1.973-1.313-2.446zm8.312.42c.75 0 1.69.386 2.145.84.398.399.45.926.465 1.417h-5.2c.015-.49.067-1.018.465-1.416.455-.455 1.373-.84 2.124-.84zm0-.42c-.891 0-1.85.412-2.412.973-.576.577-.641 1.335-.641 1.903v.22h6.105v-.22c0-.568-.043-1.326-.62-1.903-.56-.561-1.542-.973-2.432-.973zm5.787 0c-.251 0-.502.02-.745.05-.336.084-.163.469.134.469.02 0 .04-.002.062-.006.63.073 1.404.113 1.88.47.63.687.347 2.115.42 2.794.005.036.007 2.74.007 4.109a4.609 4.609 0 0 0-2.866-.352c-.331.174.057.397.317.397a.34.34 0 0 0 .085-.01c.92.1 1.966.346 2.433 1.201.046.155.017.208-.053.208-.155 0-.51-.257-.71-.257l-.03.002a5.651 5.651 0 0 0-1.185-.126c-.292 0-.582.023-.862.072-.315.208.072.4.329.4a.399.399 0 0 0 .078-.007c.94.113 1.978.367 2.433 1.224.005.953 0 1.582.025 2.458-.011.27.164.404.342.404.176 0 .355-.132.356-.394-.007-.864-.068-1.621.045-2.459.228-.939 1.858-1.083 2.87-1.315.221-.26-.214-.356-.494-.356a.916.916 0 0 0-.112.006 5.09 5.09 0 0 0-.391-.015c-.662 0-1.329.131-1.918.435-.024-.566.533-.892.933-1.12.63-.27 1.324-.297 1.982-.443.235-.204-.135-.375-.39-.375a.435.435 0 0 0-.095.009 5.075 5.075 0 0 0-.485-.024 4.44 4.44 0 0 0-1.961.437c.012-2.138.047-4.208-.014-6.23-.05-.626-.41-1.2-1.016-1.387-.436-.198-.92-.269-1.404-.269z"/><path d="M8.22.375c-9.625 0-9.625 17.25 0 17.25m0-17.25h43.586M8.22 17.625h43.586M59.494.375v17.25M51.806.375c9.625 0 9.625 17.25 0 17.25" fill="none" stroke="#000"/></svg>