<svg xmlns="http://www.w3.org/2000/svg" width="145.278" height="18"><path d="M9.122 5.53q.106.118 0 .273-.095-.143 0-.273zm11.615 0q.095.13 0 .273-.095-.155 0-.273zm-5.79 3.084q-.617.048-.652.63.047.616.652.664.605-.048.64-.665-.047-.581-.64-.629zM9.062 5.47q-.166.048-.172.214-.006.166.232.202.64 0 1.08.32l.035-.036q-.392-.38-.914-.38.072-.201-.035-.296 1.34.392 1.34 1.614 0 .842-.528 1.868-.527 1.027-.527 1.703 0 .629.486.629.807-.024 1.246-.724-.107 1.103-1.246 1.115-.629 0-.985-.587T8.718 7.63q0-.997.855-1.495l-.155-.154h-.26q-.44 0-.535-.32.095-.19.44-.19zm11.746 0q.344 0 .439.19-.095.32-.534.32h-.26l-.155.155q.854.498.854 1.495 0 2.895-.356 3.482-.356.587-.985.587-1.233 0-1.305-1.115.534.7 1.305.724.487 0 .487-.63 0-.675-.528-1.702-.528-1.026-.528-1.868 0-1.222 1.34-1.614-.106.095-.035.297-.522 0-.914.38l.036.035q.439-.32 1.08-.32.237-.036.231-.202-.006-.166-.172-.214zm-5.802.985q1.365.012 2.07.866.707.854.707 1.934 0 1.187-.754 2.053-.753.866-2.023.866-1.21 0-2.064-.819-.854-.819-.854-2.1 0-1.103.777-1.952.777-.848 2.141-.848zM9.371 5.174q-.38 0-.771.083-.32.095-.38.486 0 .332.629.427-.582.605-.582 1.282 0 1.554.12 3.06.225 1.674 1.648 1.674 1.282 0 1.709-1.317.237.522.712.96 1.055.997 2.527.997 1.649-.012 2.586-1.139.392-.486.546-.854.427 1.353 1.72 1.353 1.424 0 1.65-1.673.118-1.507.118-3.061 0-.677-.581-1.282.616-.095.616-.427-.047-.391-.367-.486-.392-.083-.771-.083-.368 0-1.045.391-.676.392-.676 1.543 0 1.067.398 1.791.397.724.545 1.193.149.468.024.652-.044.065-.143.065-.182 0-.55-.22-.57-.337-.57-1.322 0-1.258-.926-2.367-.925-1.11-2.574-1.121-1.72 0-2.658 1.056-.937 1.056-.937 2.42 0 .878-.57 1.275-.39.272-.57.272-.084 0-.124-.058-.124-.184.024-.652.148-.47.546-1.193.397-.724.397-1.791 0-1.151-.676-1.543-.676-.391-1.044-.391zM27.55 2.933v1.823q-.403-.6-2.415-.6h-1.488V2.933zm.023-.683q-.82.152-2.438.152h-1.997v2.285h1.997q1.056 0 1.511.22.464.22.904.63l.023 10.213h.88V2.25zm3.603.544q.617.19.632.631.118.94.03 1.969-.397 5.743-.412 6.86-.015 1.601.309 2.982h-1.117q.323-1.381.309-2.982-.03-1.117-.441-6.86-.059-1.029.059-1.969 0-.44.631-.631zm.06-.544q-1.03 0-1.205.999-.118 1.116-.06 2.145.412 5.743.442 6.86.014 1.601-.353 3.158-.044.338.294.338h1.66q.323-.015.279-.338-.367-1.557-.353-3.158-.014-1.117.397-6.86.103-1.029-.03-2.145-.044-.999-1.072-.999zm4.631 2.675h-.006c-.293.02-.26.05-.413.088l-.2.345a.89.89 0 0 0 .454.137c.107 0 .22-.022.345-.07.13-.05.301-.06.459-.06.106 0 .206.004.283.004.072 0 .125-.004.145-.02.064-.047-.898-.424-1.067-.424zm1.915-2.215c1.666 0 3.426 1.382 2.75 4.02-.155.602-.327.961-.597 1.078a.297.297 0 0 1-.157.044c-.48 0-1.112-1.037-1.15-1.048-.119-.034.776-.727.638-1.368-.03-.137-.132-.63-.805-.63a1.54 1.54 0 0 0-.132.007c-.286.024-.373.244-.466.244-.053 0-.108-.07-.202-.29-.218-.505-1.774-.7-1.935-.77-.098-.042-.156-.09-.04-.26.473-.69 1.273-1.027 2.096-1.027zM35.5 4.433c.17 0 1.604.375 1.672.407.08.02.326.782.602.823.043.006.084.01.122.01.387 0 .49-.307.635-.307.01 0 .02.001.029.004.611.172-.108.814-.615 1.29-.284.267 1.66 2.04 1.66 2.04l-2.022.045-.563-.796c-.047-.067-.21-.125-.449-.125-.21 0-.481.046-.785.172a1.026 1.026 0 0 1-.385.092c-.485 0-.404-.615-.404-.615a3.355 3.355 0 0 1-.157-.2l.024.001c.28 0 .685-.093.756-.18.09-.044-.11-.224-.24-.224a.112.112 0 0 0-.036.005c-.157-.07-.35-.042-.507-.094.075-.283-.346-.565-.32-.625l.97-1.722a.044.044 0 0 1 .013-.001zm2.208-2.183c-.672 0-1.45.153-2.023.717-.33.324-.376.657-.755 1.43-.274.56-1.103 1.668-1.049 1.836.139.434.504.14.467.826-.03.56.25.182.309.89.017.207-.147.795-.17.844.054.276.302.373.516.383h.005c.242 0 .793-.8.912-.852.086-.037.306-.066.454-.066a.36.36 0 0 1 .132.016c.14.071.556.972.723 1.014l2.499-.025c.154-.001.253-.26.55-.71.582-.887.88-1.956.89-2.817.026-2.054-.963-2.784-2.048-3.271-.066-.03-.675-.215-1.412-.215zm1.175 8.872v4.067h-2.73v-4.067zm-3.29-.574v5.202h3.863v-5.202zm8.617-2.459L42.668 9.91h.752l.79-.941.797.941.775-.941.797.941.79-.941.797.941.79-.941.797.941.774-.941.797.941.798-.941.774.941.798-.941.79.941h.751l-1.541-1.82-.798.88-.774-.88-.798.88-.797-.88-.774.88-.798-.88-.79.88-.797-.88-.79.88-.796-.88-.775.88-.797-.88zm14.081-4.996q1.511.22 1.58 1.382v8.382q-.706-.843-2.536-1.184l.956-8.58zm-.425-.843l-1.131 10.022q2.52.289 3.136 1.8v1.678h.751V4.475q0-1.883-2.756-2.225zm16.03 1.566V5.36H62.52V3.816zM62.561 2.25v1.169h-.439v2.338h12.17V3.42h-.354V2.25h-.397v1.169h-.98V2.25h-.397v1.169h-.982V2.25h-.396v1.169h-.96V2.25h-.418v1.169h-.96V2.25h-.397v1.169h-.981V2.25h-.397v1.169h-.98V2.25h-.397v1.169h-.96V2.25h-.397v1.169h-.982V2.25zm1.054 4.827l-1.493 1.765h.728l.765-.912.772.912.75-.912.773.912.764-.912.773.912.764-.912.772.912.75-.912.773.912.772-.912.75.912.772-.912.765.912h.728L72.8 7.077l-.772.853-.75-.853-.772.853-.772-.853-.75.853-.773-.853-.764.853-.773-.853-.764.853-.773-.853-.75.853-.772-.853zm1.293 5.178c-.45.035-.698.26-.745.674.059.45.307.686.745.71.438-.024.668-.26.692-.71-.036-.414-.266-.639-.692-.674zm.053-1.49c.32 0 .615.059.887.177s.512.28.719.488c.207.207.37.443.488.71.118.266.177.547.177.842 0 .308-.059.595-.177.86a2.258 2.258 0 0 1-2.094 1.34c-.32 0-.618-.056-.896-.168a2.134 2.134 0 0 1-.718-.47 2.306 2.306 0 0 1-.48-.701 2.095 2.095 0 0 1-.177-.86c0-.296.06-.577.178-.844.118-.266.278-.502.479-.71.2-.206.44-.369.718-.487.278-.118.577-.178.896-.178zm-.035-.604c-.39 0-.757.074-1.1.222a2.742 2.742 0 0 0-.887.603 2.96 2.96 0 0 0-.595.887c-.148.337-.222.701-.222 1.091s.074.755.222 1.092c.148.337.346.63.595.878a2.816 2.816 0 0 0 1.987.816c.39 0 .754-.074 1.09-.222.338-.148.634-.346.888-.594.254-.249.455-.541.603-.878.148-.337.222-.701.222-1.092 0-.39-.074-.754-.222-1.09a2.875 2.875 0 0 0-1.49-1.491 2.686 2.686 0 0 0-1.091-.222zm8.559.759v4.83h.808v-4.83zm3.543-8.67c-.251 0-.502.02-.746.05-.335.084-.163.469.135.469.02 0 .04-.002.061-.006.63.073 1.404.113 1.88.47.63.687.347 2.115.42 2.794.006.036.008 2.74.008 4.109a4.609 4.609 0 0 0-2.867-.352c-.33.174.058.397.317.397a.34.34 0 0 0 .086-.01c.92.1 1.965.346 2.432 1.201.047.155.018.208-.053.208-.154 0-.51-.257-.71-.257l-.03.002a5.651 5.651 0 0 0-1.185-.126c-.292 0-.582.023-.861.072-.315.208.072.4.328.4a.399.399 0 0 0 .08-.007c.938.113 1.976.367 2.431 1.224.006.953 0 1.582.026 2.458-.011.27.164.404.342.404.176 0 .354-.132.355-.394-.006-.864-.068-1.621.045-2.459.229-.939 1.859-1.083 2.87-1.315.222-.26-.213-.356-.493-.356a.916.916 0 0 0-.113.006c-.13-.01-.26-.015-.39-.015-.662 0-1.33.131-1.919.435-.024-.566.534-.892.933-1.12.63-.27 1.325-.297 1.983-.443.235-.204-.135-.375-.391-.375a.435.435 0 0 0-.094.009 5.075 5.075 0 0 0-.486-.024c-.677 0-1.353.138-1.96.437.012-2.138.047-4.208-.015-6.23-.049-.626-.41-1.2-1.016-1.387-.435-.198-.92-.269-1.403-.269zM90.8 2.7c.806 0 1.814.415 2.302.903.427.426.483.992.499 1.518h-5.577c.016-.526.072-1.092.499-1.518.488-.488 1.472-.902 2.278-.902zm0-.45c-.955 0-1.983.441-2.586 1.044-.618.618-.688 1.432-.688 2.04v.238h6.55v-.237c0-.61-.047-1.423-.665-2.04-.603-.604-1.655-1.045-2.61-1.045zm-6.833 8.003v5.497h.919v-5.497zm6.317.007v5.49h.919v-5.49zm6.432 0v5.49h.918v-5.49zm6.83-7.327v1.823q-.403-.6-2.415-.6h-1.488V2.933zm.023-.683q-.82.152-2.438.152h-1.997v2.285h1.997q1.056 0 1.511.22.463.22.904.63l.023 10.213h.88V2.25zm3.807.298a.297.297 0 0 0-.078.01c-.143.04-.184.16-.123.359l1.04 2.694h.508l-1.106-2.863c-.056-.134-.136-.2-.24-.2zm-.86.217a.35.35 0 0 0-.096.015c-.165.048-.196.171-.091.371l.95 2.46h.507l-1.002-2.63c-.062-.144-.15-.216-.267-.216zm2.568 3.975c.08 0 .173.014.277.042V6.9a.9.9 0 0 0-.27-.047.494.494 0 0 0-.205.041 1.384 1.384 0 0 1-.501.098l.065-.066c.191-.06.343-.112.456-.156a.48.48 0 0 1 .178-.03zm-.1.277l-.235.09c.087.035.165.061.235.079-.052-.052-.052-.109 0-.17zm.195 0c.026.06.017.121-.026.182.07-.026.121-.044.156-.052-.009-.052-.052-.096-.13-.13zm-.065-.085c.113 0 .19.046.234.137l.117.065.013.065-.117.013a.43.43 0 0 1-.244.067c-.127 0-.28-.04-.459-.12h-.286v-.09h.3c.182-.091.33-.137.442-.137zm-2.356-1.1l.885 1.64c.06.089.114.133.166.133.023 0 .046-.01.068-.029l.287-.182c-.018-.07-.087-.163-.208-.28-.122-.117-.148-.26-.079-.43.04-.098.12-.147.236-.147a.85.85 0 0 1 .311.076c.281-.16.522-.239.723-.239.029 0 .057.002.084.005a2.4 2.4 0 0 1 .091-.547zm2.496.768c-.222 0-.511.095-.869.286-.078-.095-.156-.143-.234-.143-.078 0-.12.04-.124.117-.004.079.065.18.208.306.144.126.21.232.202.32l-.039.025a.64.64 0 0 0 .26.45c.148.108.347.166.6.175l.048.001c.13 0 .188-.033.172-.099a.238.238 0 0 1 .04-.201 2.215 2.215 0 0 1-.126.004c-.2 0-.248-.04-.141-.122.081-.061.147-.092.197-.092.028 0 .051.009.07.027-.035-.13.034-.2.208-.208a7.42 7.42 0 0 1-.443-.846h-.029zm-.934.963l-.378.235c-.026.399-.104.672-.234.82a1.704 1.704 0 0 1 .365.013.711.711 0 0 1 .312.117c.07-.26.165-.473.286-.638-.225-.174-.342-.356-.351-.547zm-.508 1.354c-.338 0-.55.186-.637.56-.122.529-.14 1.357-.052 2.485.104 1.285.225 2.343.364 3.176l-.17.248h4.335l-.898-.365c.26-1.275.586-2.21.976-2.805.39-.594.456-.978.195-1.152a.444.444 0 0 0-.248-.082c-.177 0-.355.127-.533.382l-1.744 2.499-.312-.026c-.191-1.944-.395-3.393-.612-4.347-.104-.382-.325-.573-.664-.573zm-.385-6.667c.255 0 .427.148.515.445l1.107 2.916h.572a3.264 3.264 0 0 0-.156.924c.061.234.176.475.345.722.164.24.13.359-.099.359h-.024c.06.086.052.134-.026.142.069.044.075.083.02.118-.057.034-.077.117-.06.247.027.39.128.705.306.944.146.195.28.293.399.293a.216.216 0 0 0 .076-.014.458.458 0 0 1 .155-.034c.051 0 .086.018.106.054.034.065-.011.132-.137.202a.324.324 0 0 1-.159.037.987.987 0 0 1-.414-.122c-.256-.126-.488-.514-.696-1.165h-.364a.993.993 0 0 0-.26.456c.312.998.568 2.473.767 4.425l1.653-2.343a.83.83 0 0 1 .533-.214c.138 0 .28.04.424.123.334.191.497.401.488.631-.009.23-.167.606-.475 1.126-.308.52-.588 1.284-.84 2.29l.99.43-.066.508h-5.557l.573-.677c-.278-2.698-.376-4.423-.293-5.173.082-.751.27-1.165.566-1.243.208-.209.29-.434.247-.677l-.338-.599c-.504.382-.755.885-.755 1.51v6.859h-.3V8.89c.01-.754.322-1.344.938-1.77l-.846-1.51h.598l-.924-2.407c-.13-.33-.071-.542.176-.638a.89.89 0 0 1 .32-.065c.117 0 .225.03.324.091.06-.2.237-.312.527-.338a.715.715 0 0 1 .064-.003zm11.693.298a.32.32 0 0 1 .078.01c.143.04.184.16.123.359L118.28 5.61h-.508l1.107-2.863c.056-.134.136-.2.24-.2zm.86.217a.35.35 0 0 1 .096.015c.165.048.195.171.091.371l-.95 2.46h-.507l1.002-2.63c.062-.144.15-.216.267-.216zm-2.568 3.975c-.08 0-.173.014-.277.042V6.9a.9.9 0 0 1 .27-.047.5.5 0 0 1 .205.041 1.4 1.4 0 0 0 .5.098l-.064-.066a8.543 8.543 0 0 1-.456-.156.494.494 0 0 0-.178-.03zm.1.277l.234.09a1.845 1.845 0 0 1-.234.079c.052-.052.052-.109 0-.17zm-.195 0c-.026.06-.017.121.026.182a1.597 1.597 0 0 0-.156-.052c.008-.052.052-.096.13-.13zm.065-.085c-.113 0-.191.046-.234.137l-.117.065-.013.065.117.013a.43.43 0 0 0 .243.067c.128 0 .281-.04.46-.12h.286v-.09h-.3c-.182-.091-.33-.137-.442-.137zm2.356-1.1l-.885 1.64c-.06.089-.115.133-.166.133a.104.104 0 0 1-.069-.029l-.286-.182c.017-.07.087-.163.208-.28.122-.117.148-.26.078-.43-.04-.098-.119-.147-.235-.147a.85.85 0 0 0-.311.076c-.281-.16-.522-.239-.723-.239a.703.703 0 0 0-.084.005 2.4 2.4 0 0 0-.091-.547zm-2.497.768c.222 0 .512.095.87.286.078-.095.156-.143.234-.143.078 0 .12.04.124.117.004.079-.065.18-.209.306-.143.126-.21.232-.201.32l.039.025a.64.64 0 0 1-.26.45c-.148.108-.348.166-.6.175a.936.936 0 0 1-.048.001c-.13 0-.188-.033-.172-.099a.238.238 0 0 0-.04-.201c.047.002.089.004.125.004.201 0 .249-.04.142-.122-.081-.061-.147-.092-.198-.092a.097.097 0 0 0-.069.027c.035-.13-.034-.2-.208-.208a7.42 7.42 0 0 0 .443-.846h.028zm.935.963l.377.235c.026.399.104.672.235.82a1.704 1.704 0 0 0-.365.013.711.711 0 0 0-.312.117 1.888 1.888 0 0 0-.287-.638c.226-.174.343-.356.352-.547zm.507 1.354c.339 0 .551.186.638.56.122.529.14 1.357.052 2.485-.104 1.285-.225 2.343-.364 3.176l.17.248h-4.335l.898-.365c-.26-1.275-.586-2.21-.976-2.805-.39-.594-.456-.978-.195-1.152a.444.444 0 0 1 .248-.082c.177 0 .355.127.533.382l1.744 2.499.312-.026c.19-1.944.395-3.393.612-4.347.104-.382.325-.573.663-.573zm.386-6.667c-.256 0-.427.148-.516.445l-1.106 2.916h-.573c.104.347.157.655.157.924a2.334 2.334 0 0 1-.345.722c-.164.24-.13.359.098.359h.025c-.06.086-.052.134.026.142-.07.044-.076.083-.02.118.057.034.077.117.06.247-.027.39-.129.705-.307.944-.146.195-.278.293-.398.293a.216.216 0 0 1-.077-.014.458.458 0 0 0-.154-.034c-.051 0-.087.018-.106.054-.035.065.01.132.137.202a.324.324 0 0 0 .159.037c.11 0 .248-.04.413-.122.256-.126.489-.514.697-1.165h.364c.113.104.2.256.26.456-.312.998-.568 2.473-.767 4.425l-1.653-2.343a.83.83 0 0 0-.533-.214.851.851 0 0 0-.424.123c-.334.191-.497.401-.488.631.009.23.167.606.475 1.126.308.52.588 1.284.84 2.29l-.99.43.065.508h5.558l-.573-.677c.278-2.698.376-4.423.293-5.173-.082-.751-.271-1.165-.566-1.243-.208-.209-.29-.434-.247-.677l.338-.599c.503.382.755.885.755 1.51v6.859h.3V8.89c-.01-.754-.322-1.344-.938-1.77l.846-1.51h-.598l.924-2.407c.13-.33.071-.542-.176-.638a.89.89 0 0 0-.32-.065.605.605 0 0 0-.324.091c-.061-.2-.237-.312-.527-.338a.715.715 0 0 0-.064-.003zm15.561.633q-.308.309-.308 1.13 0 .84.309 1.148h-10.17q.308-.309.308-1.148 0-.821-.308-1.13zm-12.138-.633q-.446 0-.428.291-.018.342.428.342h1.112q.411.309.411 1.13 0 .84-.41 1.148h-1.096q-.463 0-.463.29 0 .343.446.343h14.107q.429 0 .429-.342 0-.291-.446-.291h-1.095q-.411-.309-.411-1.148 0-.821.41-1.13h1.113q.429 0 .429-.342 0-.291-.429-.291zm1.314 6.372c-.129.063-.286.235-.047.263.114-.005.377-.124.33-.234a.106.106 0 0 1-.076.032c-.068 0-.137-.06-.207-.06zm-.94.043c-.158.039-.24.21-.039.249h.01c.116 0 .43-.14.172-.172-.043-.029-.086-.077-.144-.077zm1.256-1.199c.282.33.53.712.578 1.152.047.315.062.63.11.94-.225-.018-.158-.367-.115-.534.038-.33-.139-.636-.263-.927-.086-.158-.167-.406-.387-.41-.243.042-.401.248-.559.424-.162-.162-.334-.339-.558-.406a.113.113 0 0 0-.04-.006c-.05 0-.108.022-.136.022-.023 0-.023-.016.027-.078.03-.107.094-.139.172-.139.113 0 .259.068.381.068a.268.268 0 0 0 .054-.005 1.783 1.783 0 0 0 .736-.1zm-.077.364c.187.047.23.305.32.458.115.268.253.559.163.86-.072.143.019.325.01.43-.16.112-.3.348-.511.348a.301.301 0 0 1-.072-.01c-.21-.042-.316-.243-.478-.338-.118.113-.187.348-.381.348a.295.295 0 0 1-.087-.014c-.177-.038-.411-.019-.464-.234-.09-.22-.1-.463-.114-.702l.029.003c.097 0 .105-.112.114-.208.037-.14.137-.205.249-.205.075 0 .155.03.224.085.081.09.33.163.277.306a8.182 8.182 0 0 1-.081.267l.2.268c.02-.139.225-.253.105-.392-.019-.062-.09-.143-.08-.19.085-.154.2-.288.334-.402a.154.154 0 0 1 .11-.05c.127 0 .256.169.367.184.11-.12-.01-.168-.12-.23a.335.335 0 0 0-.231-.093.383.383 0 0 0-.313.17c-.09.054-.154.236-.233.236-.025 0-.052-.018-.082-.064-.146-.117-.32-.248-.512-.248a.408.408 0 0 0-.085.009c-.135.028-.257.301-.267.301-.005-.225.1-.425.162-.645a.292.292 0 0 1 .284-.228c.083 0 .167.036.227.113.142.053.246.303.38.303a.128.128 0 0 0 .074-.026c.148-.157.267-.344.482-.41zm-.678 3.315c.607.625 1.165 2.211 1.309 2.86-.234-.19-.554-.314-.626-.434-.076-.124-.287-1.333-.683-2.426zm2.159-1.137c1.146.659 3.143 3.902 3.568 4.423-.716-.454-1.423-.912-2.192-1.285-1.08-.53-2.002-1.39-2.88-2.193.725-.243 1.246-.654 1.504-.945zm-1.19 4.117c.153.091.292.215.46.282-.101.248-.163.525-.369.721-.038.062-.093.082-.156.082-.109 0-.24-.059-.351-.059a.28.28 0 0 0-.023.001c.134-.334.335-.482.44-1.027zm.325-4.47c.03.06.066.079.105.079.052 0 .107-.034.153-.056.115.081.512.072.277.244-.148.2-.939.747-1.489.844-.237.042.162.417.29.55.746.67 1.477 1.376 2.37 1.859.559.315 1.146.597 1.686.945.258.373.564.717.76 1.128-.196.057-.387.138-.588.186a1.38 1.38 0 0 1-.336.04c-.315 0-.632-.095-.772-.245-.258-.273-.54-1.433-.688-1.858-.021-.048-.051-.064-.083-.064-.065 0-.14.063-.177.063a.019.019 0 0 1-.017-.01.187.187 0 0 0-.185-.179c-.083 0-.161.061-.15.19-.028.3-.086.601-.229.874-.017.046-.054.064-.102.064-.136 0-.364-.14-.519-.179.062-.368-.44-2.25-1.91-3.826-.052-.056-.276-.292-.256-.292.002 0 .007.003.017.01.075.02.16.033.244.033.16 0 .319-.05.4-.2.013-.037.029-.052.047-.052.065 0 .164.19.269.19.076.051.16.074.245.074a.502.502 0 0 0 .371-.17c.09-.08.177-.162.267-.243zm-.496-2.499a1.77 1.77 0 0 1-.65.133 1.1 1.1 0 0 1-.1-.004.384.384 0 0 1-.068.006c-.161 0-.334-.087-.49-.087a.297.297 0 0 0-.168.048c-.263.382-.502.807-.53 1.28-.053.907-.03 1.223.687 1.968.282.64.808 2.727.965 3.296.172.162-.215 1.05-.377 1.27-.089.122-.321.128-.572.128h-.082c-.225 0-.452.005-.593.092-.134.086-.181.406-.105.449.072-.11.215-.258.315-.272-.095.1.24.052.31.076.194.003.39.02.585.02.095 0 .19-.004.285-.015.043-.019.09-.048.11-.048.015 0 .015.017-.014.072.135.035.287.053.435.053.334 0 .651-.09.72-.268.144-.263.278-.54.373-.827.122.026.276.112.398.112.036 0 .07-.007.099-.026.134-.09.272-.515.349-.797.007-.03.047-.044.087-.044.039 0 .078.013.09.039.143.287.382 1.165.61 1.533.174.273.593.407 1.04.407.28 0 .572-.053.819-.158.31-.134.54-.105.473-.277-.105-.287-.287-.56-.478-.803.277.172.554.349.831.52.023.084.08.117.14.117.112 0 .23-.123.114-.245-1.085-1.567-2.81-4.237-4.003-5.102a1.607 1.607 0 0 0-.664-.358c-.082-.21-.058-.492-.105-.73-.048-.474-.335-1.257-.836-1.558zm12.402 2.978v1.61q-1.725 0-2.687 1.026-.962 1.024-.962 2.52h-1.684q0-2.029 1.417-3.592 1.417-1.564 3.916-1.564zm0 2.06v3.096h-3.2q0-1.224.806-2.16.805-.936 2.394-.936zm.421-2.52q-3.18 0-4.698 1.694-1.527 1.705-1.527 4.382h6.265V9.674h-.04z"/><path d="M8.22.375c-9.625 0-9.625 17.25 0 17.25m0-17.25h128.808M8.22 17.625h128.808m7.687-17.25v17.25M137.028.375c9.625 0 9.625 17.25 0 17.25" fill="none" stroke="#000"/></svg>