<svg xmlns="http://www.w3.org/2000/svg" width="203.63" height="18"><path d="M3.73.474c.693 0 1.247.2 1.634.479.006.053.02.107.009.16-.05.248-.195.477-.396.63-.316.207-.697.267-1.057.356-.09.01-.019.031.031.04.23.04.707.099.971.099l.052-.001c.278-.032.54-.148.766-.311.079-.067.147-.15.205-.236.147.346.227.713.26.917.018.11.096.2.202.233 1.139.349 2.038 1.91 2.88 2.949 1.729 2.137 3.199 4.526 4.892 6.76-.937-.456-1.87-.916-2.81-1.374-1.92-1.01-3.92-1.816-5.604-3.09l-.008-.008c-.97-.808-1.963-1.66-2.339-2.793-.148-.92 1.757-2.577 1.542-2.646a.207.207 0 0 0-.064-.01c-.458 0-1.753 1.128-2.019 2.202-.003-.014-.01-.03-.014-.045-.073-.356-.154-1.256.068-1.98a.29.29 0 0 0 .01-.103 1.968 1.968 0 0 0-.123-.634c-.063-.17-.139-.344-.26-.765-.031-.108-.142-.328-.208-.345.186-.138.375-.28.645-.375a.434.434 0 0 0-.132.314c0 .23.164.415.365.415.2 0 .364-.186.364-.415V.894a.411.411 0 0 0-.255-.39c.053-.007.096-.019.154-.022.081-.006.16-.008.238-.008zm.67 7.763c.065.065.135.124.202.187.214.78.412 1.64.692 2.305.483 1.145 1.216 2.141 1.84 3.154a1.814 1.814 0 0 0-.385.27 6.831 6.831 0 0 0-.199.193 2.61 2.61 0 0 0-1.186-.897c.045-.723-.108-1.712-.34-2.787A34.903 34.903 0 0 0 4.4 8.237zm1.006.908c1.149.945 2.428 1.738 3.676 2.54-.018.91-.018 1.778.084 2.675a3.411 3.411 0 0 0-1.437-.736c-.02 0-.037.012-.057.012-.649-1.063-1.383-2.06-1.837-3.134-.156-.37-.293-.85-.429-1.357zm.407 5.254a2.5 2.5 0 0 1 .44.541.3.3 0 0 0 .257.14.29.29 0 0 0 .17-.053c.215-.156.347-.324.476-.446.047-.045.097-.08.148-.117l.149 2.722c-.213-.014-.435-.035-.637-.035-.264 0-.495.036-.633.172-.169-.134-.497-.164-.89-.164-.102 0-.207.002-.316.004l.836-2.764zM6.97 9.574c1.354.787 2.784 1.414 4.135 2.125a.244.244 0 0 0 .006.003c1.295.631 2.586 1.28 3.894 1.904.984 1.189 2.052 2.295 3.078 3.42l-2.15.362-4.267-4.635a.288.288 0 0 0-.037-.036c-1.499-1.137-3.152-2.082-4.66-3.143zM3.796 0c-.135 0-.273.005-.411.013C2.3.083 1.512.54 1.243 1.157c-.04.093-.146.314-.007.314a2.35 2.35 0 0 1 .341-.028c.418 0 .38.172.47.194.09.282.29.846.303 1.068-.244.86-.153 1.763-.064 2.198.15.732.63 1.584 1.261 2.38a.285.285 0 0 0 0 .166 35.3 35.3 0 0 1 .903 3.336c.251 1.168.393 2.277.317 2.823a.294.294 0 0 0 .221.328c.045.011.084.031.127.045l-.928 3.079a2.847 2.847 0 0 0-.593-.055c-.381 0-.756.05-1.064.05-.125 0-.24-.008-.34-.032a.546.546 0 0 0-.125-.012c-.436 0-1.428.306-1.34.879.15-.128.257-.159.375-.159.11 0 .23.027.405.027h.027c.254-.004.697-.083 1.053-.083.18 0 .338.02.438.08.236-.01.45-.013.649-.013.85 0 1.447.07 2.5.075a89.565 89.565 0 0 0 2.974-.079c.45.003.697.054.922.054h.04c.134-.004.265-.057.48-.057.123 0 .273.017.468.07-.25-.341-.877-.685-1.33-.685a.591.591 0 0 0-.302.071 5.081 5.081 0 0 0-.508-.022c-.22 0-.448.01-.678.02l-.157-2.83c.487.203.857.517 1.281 1.021a.295.295 0 0 0 .513-.246c-.192-1.039-.213-2.019-.202-3.06.54.354 1.072.713 1.576 1.094l4.36 4.738a.29.29 0 0 0 .263.09c.95-.159 1.9-.315 2.849-.474a.294.294 0 0 0 .23-.193.298.298 0 0 0-.06-.297c-.741-.83-1.508-1.631-2.25-2.445 1.269.78 2.875 1.755 3.08 1.755.022 0 .027-.013.012-.04-.094-.163-.9-.755-1.775-1.373.14.058.276.12.415.177l.017.01c.103.035.16.059.27.062a.286.286 0 0 0 .108-.016.317.317 0 0 0 .188-.152.32.32 0 0 0 .023-.238c-.017-.05-.038-.077-.054-.098-.061-.085-.103-.109-.162-.154a4.553 4.553 0 0 0-.205-.149c-.153-.105-.336-.223-.493-.328a4.992 4.992 0 0 1-.328-.233.307.307 0 0 0-.028-.025l-3.892-2.736c-.008-.006-.02-.001-.028-.006-1.333-1.869-2.588-3.825-4.046-5.627C9 4.496 8.145 2.888 6.758 2.352 6.69 1.956 6.54 1.225 6.003.703 5.547.26 4.888.056 4.147.011A5.728 5.728 0 0 0 3.796 0zm21.93 2.024c.025 0 .05.003.075.01.08.022.13.076.146.163.016.086.1.244.252.471a1.391 1.391 0 0 1-.095.004c-.261 0-.432-.083-.515-.248-.092-.184-.1-.3-.024-.35a.295.295 0 0 1 .161-.05zm-.682 1.393c-.293.032-.44.157-.44.374.044.163.148.245.313.245a.678.678 0 0 0 .143-.017c.26-.022.423-.125.488-.31-.173-.195-.341-.292-.504-.292zm2.334-1.193c.75 0 1.447.097 2.092.29.723.217 1.48.325 2.27.325.217 0 .436-.008.658-.024a75.52 75.52 0 0 0 2.587-.228 5.75 5.75 0 0 1 .604-.038c.342 0 .564.05.665.152.152.152.228.456.228.911 0 .293-.103.778-.309 1.456-.206.678-.266 1.175-.179 1.49-.683-.315-1.085-.527-1.204-.635-.911-.37-1.535-.917-1.871-1.644l-.277-.081c.39.976.798 1.551 1.22 1.725-.455.38-1.393.612-2.814.7a32.507 32.507 0 0 1-1.766-.204c-.471-.07-.848-.567-1.13-1.489.043-.77.347-1.448.91-2.034-.455.033-.834.543-1.138 1.53-.271.38-.293.83-.065 1.35-.293-.152-.505-.46-.846-.65-.184-.103-.42-.154-.37-.31.079-.245.165-.375.192-.592.041-.334-.136-.628-.163-.628-.002 0-.003.001-.003.003-.045.107.02.53-.047.703-.066.173-.138.211-.276.433-.37.325-.884.645-1.546.96 0-.176-.123-.264-.37-.264l-.086.003c-.108-.162-.157-.415-.146-.756.01-.342.022-.751.032-1.229.13-.325.45-.634.96-.927.182.289.514.433.997.433.152 0 .319-.014.5-.043a2.66 2.66 0 0 1-.309-.634 9.601 9.601 0 0 1 1-.054zm6.924 3.959c.127.653.124.98-.008.98a.12.12 0 0 1-.049-.012.424.424 0 0 1-.268-.415c0-.195.108-.38.325-.553zm.146.097c.282.26.426.491.432.692.004.181-.04.272-.132.272a.17.17 0 0 1-.031-.004c-.114-.021-.171-.113-.171-.276 0-.163-.033-.39-.098-.684zM24.605 0c.434.727.57 1.334.406 1.822 0 .141-.108.271-.325.39-.217.12-.431.288-.643.505a1.032 1.032 0 0 1-.754.334c-.278 0-.558-.157-.84-.472-.288-.32-.524-.572-.708-.757.31 1.23.806 1.844 1.49 1.844.034 0 .07-.002.105-.005.282 0 .455.228.52.683-.108.39-.146.749-.114 1.074-.054.217.006.347.18.39.219.196.43.293.63.293.068 0 .134-.01.2-.032.018.007.042.01.069.01.217 0 .688-.23 1.41-.693.673.368 1.01.759 1.01 1.171a12.527 12.527 0 0 1-1.562 3.482h.016a1.39 1.39 0 0 0-.407.814h1.204c-.01-.141 0-.26.033-.358.227 0 .276-.109.146-.326.054-.206.165-.545.334-1.017.168-.472.583-1.185 1.244-2.14.38.044.643.413.79 1.107.146.694.03 1.334-.35 1.92a1.39 1.39 0 0 0-.407.814h1.204a.926.926 0 0 1 .032-.358c.228 0 .277-.109.147-.326l.081-2.343c.098-.52.266-.78.505-.78.128-.013.24-.02.337-.02.317 0 .457.069.42.206-.035.126.015.189.149.189a.897.897 0 0 0 .216-.034c.293-.076.52-.176.684-.301.074-.058.14-.086.195-.086.065 0 .116.04.154.118.07.147.193.356.367.627.173.271.094.645-.236 1.123a6.764 6.764 0 0 1-1.066 1.22c-.217.13-.364.385-.44.765h1.351c-.076-.315-.01-.565.195-.749a.446.446 0 0 0 .193.056c.135 0 .206-.116.214-.349.184-.499.423-.911.716-1.236.293-.326.352-.564.179-.716-.174-.152-.244-.429-.212-.83.276.357.655.535 1.14.535.222 0 .466-.037.732-.112.119.174.19.523.211 1.05a2.486 2.486 0 0 1-.423 1.488c-.369.26-.564.548-.586.863h1.204c-.054-.217-.01-.434.13-.651.06.019.11.028.152.028.17 0 .19-.161.06-.484.076-.705.244-1.535.504-2.49-.314-.78-.206-1.849.326-3.205.12.044.149.53.09 1.457-.06.927-.063 1.58-.009 1.96.054.38.073.667.057.863-.016.195.117.574.399 1.139.162-1.313.184-2.444.065-3.393-.12-.949-.139-1.695-.057-2.237.081-.542-.09-.987-.513-1.334-.217-.37-.89-.554-2.017-.554-1.342.266-2.48.4-3.416.4-.668 0-1.232-.069-1.693-.204-1.107-.326-2.023-.488-2.75-.488-.206 0-.466.024-.781.073a.84.84 0 0 1-.129.01c-.263 0-.502-.13-.717-.393-.033-.585-.38-1.035-1.041-1.35zm10.056 13.206c.687.03 1.064.044 1.227.044h.073l-.088 3.59a5.268 5.268 0 0 1-1.367-.812l.155-2.822zm-10.017-.894c-.229.044-.532.185-.495.458v2.002a38.285 38.285 0 0 0-1.034-.045c0 .252.207.591.85.591.007.57.11 1.264.214 1.618l.088.931c0 .103.178.133.37.133.229 0 .48-.044.48-.044l-.037-.931c3.65.03 10.608.214 10.955.214.178 0 .296-.192.296-.458l.088-4.011-2.194-.022-.177 3.124c-1.588.008-4.336.266-6.205.266-.591 0-1.1-.022-1.448-.096-.074-.08-.76-1.078-1.197-1.189a1.916 1.916 0 0 0-.258-.03 171.18 171.18 0 0 1-.215-1.81c.133-.17.436-.125.518-.354.08-.11.03-.295-.126-.303-.089-.037-.332-.044-.436-.044zm19.371-9.139c-.681.054-1.058.394-1.13 1.022.09.68.467 1.04 1.13 1.075.663-.036 1.013-.394 1.049-1.075-.054-.628-.404-.968-1.049-1.022zm.08-2.259c.485 0 .933.09 1.345.27a3.545 3.545 0 0 1 1.828 1.815c.18.402.27.828.27 1.276 0 .466-.09.901-.27 1.305a3.422 3.422 0 0 1-3.173 2.03c-.483 0-.936-.085-1.357-.256a3.235 3.235 0 0 1-1.09-.712 3.495 3.495 0 0 1-.725-1.062 3.174 3.174 0 0 1-.269-1.305c0-.448.09-.874.269-1.277a3.67 3.67 0 0 1 .726-1.075c.305-.314.668-.56 1.089-.74.421-.18.874-.269 1.358-.269zM44.043 0c-.592 0-1.147.112-1.667.336-.52.224-.968.529-1.345.914a4.48 4.48 0 0 0-.9 1.345 4.071 4.071 0 0 0-.336 1.653c0 .592.112 1.143.336 1.654.224.511.524.955.9 1.331a4.267 4.267 0 0 0 3.012 1.237c.592 0 1.143-.112 1.654-.336a4.48 4.48 0 0 0 1.344-.9c.386-.377.69-.82.914-1.332a4.07 4.07 0 0 0 .337-1.654c0-.591-.113-1.142-.337-1.653A4.358 4.358 0 0 0 45.696.336 4.071 4.071 0 0 0 44.042 0zm-.613 10.68V18h1.225v-7.32zm8.403-8.603l3.648 3.209q-.769 1.187-2.043 2.395-1.21-2.857-1.605-5.604zm-.97-1.582q-.705 0-.546.967.681.33.571.747-.11.418.088 1.385.198.967 1.582 4.593-.42 1.431.489 1.431.04 0 .083-.003 2.461 4.528 5.428 7.89h.528l-.132-1.472q-2.374-2.22-5.077-7.187.791-1.67 2.22-2.923l4.373 3.934q.331.148.556.148.61 0 .433-1.093l-4.395-3.758q.018-.999-.833-.999-.198 0-.442.054L51.833.759q-.603-.264-.97-.264zM65.244 0c-.93 0-1.746.684-1.746 1.562V18h1.136V1.562c0-.43.379-.57.617-.57.25 0 .634.175.634.703v10.804h1.136V1.695C67.02.815 66.15 0 65.244 0zm9.182 0c-.12 0-.128.377-.3.935-.195.635-.338 1.962-.788 2.22a.397.397 0 0 1-.204.052c-.134 0-.27-.05-.417-.05a.545.545 0 0 0-.17.025c-.21.068-.322.397-.544.436-.922.16-2.183.1-2.887.163-.453.04.756.93 1.964.93h.051c.251-.005.516-.017.78-.017.44 0 .877.032 1.236.18.353.146.768.567.763.981L73.763 18h1.359l-.07-13.719c-.001-.368 1.061-.618 1.2-.936.243-.553.119-2.995-.272-3.323a.021.021 0 0 0-.014-.006c-.176 0-.504 2.56-1.021 3.111-.053.056-.157.082-.247.082-.096 0-.177-.03-.162-.082.329-1.118.461-2.749-.054-3.105A.102.102 0 0 0 74.426 0zm5.694 0c-.929 0-1.744.684-1.744 1.562V18h1.136V1.562c0-.43.378-.57.616-.57.25 0 .634.175.634.703v10.804h1.136V1.695c0-.88-.87-1.695-1.777-1.695zm12.895.991q3.211 0 6.81 1.552-3.599 1.509-6.81 1.509-3.19 0-6.81-1.509 3.62-1.552 6.81-1.552zm0-.991q-3.966 0-9.117 2.522 5.151 2.5 9.117 2.5 3.965 0 9.117-2.5Q97.002 0 93.015 0zm6.707 11.43c.942.04 1.458.06 1.68.06h.102l-.122 4.92c-.81-.334-1.306-.668-1.873-1.113l.213-3.868zm-13.728-1.226c-.314.061-.73.253-.679.628v2.744a52.47 52.47 0 0 0-1.417-.061c0 .344.283.81 1.164.81.01.78.152 1.731.294 2.217l.121 1.276c0 .142.243.182.507.182.313 0 .658-.06.658-.06l-.051-1.276c5.001.04 14.538.293 15.014.293.243 0 .405-.263.405-.627l.122-5.498-3.007-.03-.243 4.282c-2.177.01-5.943.365-8.505.365-.81 0-1.508-.03-1.984-.132-.101-.111-1.043-1.478-1.64-1.63a2.64 2.64 0 0 0-.354-.04c-.102-.83-.203-1.66-.294-2.48.182-.234.597-.173.709-.487.111-.152.04-.405-.172-.415-.122-.05-.456-.06-.598-.06zm20.213-9.08q2.015.293 2.106 1.842v11.177q-.942-1.124-3.382-1.58l1.276-11.44zM105.64 0l-1.508 13.363q3.36.385 4.18 2.4V18h1.003V2.966q0-2.51-3.675-2.966zm23.519 2.373v2.341h-17.243V2.373zM111.979 0v1.772h-.664v3.543h18.445V1.772h-.538V0h-.601v1.772h-1.487V0h-.601v1.772h-1.487V0h-.601v1.772h-1.456V0h-.632v1.772H120.9V0h-.6v1.772h-1.488V0h-.601v1.772h-1.487V0h-.601v1.772h-1.455V0h-.602v1.772h-1.487V0zm1.598 15.325L111.315 18h1.103l1.16-1.382 1.17 1.382 1.136-1.382 1.17 1.382 1.16-1.382 1.17 1.382 1.159-1.382 1.17 1.382 1.137-1.382L124.02 18l1.17-1.382L126.327 18l1.17-1.382 1.16 1.382h1.103l-2.263-2.675-1.17 1.293-1.137-1.293-1.17 1.293-1.17-1.293-1.137 1.293-1.17-1.293-1.16 1.293-1.17-1.293-1.158 1.293-1.17-1.293-1.137 1.293-1.17-1.293zM146.925.744q.235.276.235 1.368 0 .939-.29 1.602-.65-.663-.677-1.602.014-1.092.732-1.368zM145.17.567q.673 0 .816.246-.083.705-.567 1.036-.276.263 0 .58.484.373.58 1.147 0 .386-1.256.386-1.257 0-3.77-.193-.857-.097-1.92-1.022-1.23-.94-2.155-1.119h-.014q-.44 0-1.174.843-.746.856-1.436 2.278h-1.354q.124-.303 1.9-2.03 1.732-1.686 2.063-1.686l.015.001q.925.235 1.547.725.358.283.73.283.274 0 .554-.151 2.293-.87 4.15-1.188.792-.136 1.29-.136zM146.64 0q-.258 0-.627.095-2.527.041-5.04.787-.705.235-1.824.718-1.174-.856-2.251-1.022h-.012q-.334 0-1.142.76-.821.774-2.59 2.555-1.021 1.064-1.394 1.823v.028h2.168V5.08h.677q.76-1.754 1.395-2.417.545-.568.815-.568.045 0 .083.016.98.303 1.588.814.608.511 1.354.953.745.442 2.196.504.87.038 2.138.038.845 0 1.867-.017.321.08.557.08.412 0 .562-.246.483-1.187.483-2.126 0-1.105-.483-1.906-.14-.206-.52-.206zm-13.444 9.697q-.09 0-.176.027-.335.108-.296.325.034.183.3.183.048 0 .104-.006.364-.04.64-.295-.308-.234-.572-.234zm.17-.2q.71 0 2.192.847.744.385 1.63.385.428 0 .89-.09 1.16-.236 2.44-.413.435-.06.842-.06.792 0 1.48.227 1.044.345 1.733.443.689.099 2.184.177-.964.099-1.89.099-.924 0-2.184-.207-.63-.103-1.213-.103-.583 0-1.12.103-1.072.207-2.44.384-.342.044-.672.044-.99 0-1.876-.398-.86-.587-1.787-.587-.409 0-.831.114-.374-.02-.335-.413.217-.531.925-.551h.032zm.526-2.007q-.425 0-.794 1.3-.308-1.148-.795-1.148-.073 0-.15.026-.59.373.394 1.436-.787.453-.787 1.142 0 .689 1.161.767.36-.094.701-.094.803 0 1.513.518.608.442 1.929.442.88 0 2.077-.196 1.47-.414 2.856-.414.526 0 1.04.06 1.286.148 2.19.148.41 0 .743-.03 1.673-.04 1.673-.316-.453-.413-1.28-.55-1.751-.02-3.198-.61-.723-.296-1.773-.296-1.05 0-2.429.295-.888.224-1.654.224-1.05 0-1.869-.42-.846-.512-1.79-.847.787-.61.737-1.013-.049-.404-.482-.424h-.013zm5.809 7q2.798 0 5.933 1.35-3.135 1.315-5.933 1.315-2.778 0-5.932-1.314 3.154-1.352 5.932-1.352zm0-.864q-3.454 0-7.941 2.196Q136.247 18 139.7 18q3.455 0 7.942-2.178-4.468-2.196-7.942-2.196zM151.377.1c-.924 0-1.734.68-1.734 1.552v16.331h1.129V1.652c0-.428.376-.566.612-.566.248 0 .63.173.63.698v10.733h1.128V1.784c0-.874-.865-1.684-1.765-1.684zm7.983 7.458q.175 0 .363.08.42.178.42 2.831v2.54h-4.764q1.84-2.525 2.525-3.816.685-1.291 1.041-1.513.198-.122.415-.122zm-.203-.542l-.076.001q-.678.014-1.527 1.655-.849 1.64-3.36 4.893h6.506l-.014-3.652q-.072-2.44-.5-2.675-.403-.222-1.029-.222z"/><path d="M164.952 2.66c.007 0-.027.039-.029.088 0 .049.037.088.03.088-.006 0-.03-.014-.118-.059-.025-.013-.043-.018.03-.059.064-.037.083-.059.087-.059zm.177 0c.01 0 .02.01.059.029a.78.78 0 0 1 .147.088c.042.009-.116.046-.177.059a.215.215 0 0 1-.045.005c-.024 0-.038-.005-.043-.005-.016 0 .052-.002.059-.059.006-.05-.026-.118 0-.118zm-.088-.089a.334.334 0 0 0-.236.088l-.117.118.117.088c.08.035.162.06.265.06a.628.628 0 0 0 .206-.03c.08-.025.197-.086.265-.089.12-.004.138-.025 0-.058a1.629 1.629 0 0 1-.294-.118.43.43 0 0 0-.206-.059zm1.1-.002l.018.002c.09 0 .057.118-.06.265-.06.078-.09.117-.117.117-.027 0-.034-.063-.03-.147.01-.169.06-.204.177-.235a.043.043 0 0 1 .012-.002zm-.257.438c.006 0 .01.002.01.005 0 .012-.033.043-.059.06a.019.019 0 0 1-.01.002c-.007 0-.015-.003-.02-.003a.03.03 0 0 1-.029-.03c0-.027.033-.029.06-.029.016 0 .037-.005.048-.005zm.334-.583c-.12 0-.383.24-.383.353 0 .045-.046.13-.088.176-.063.07-.048.09 0 .148.025.03.033.058.059.058.028 0 .081-.02.147-.058.3-.174.495-.677.265-.677zm-.236-.883c.203 0 .402.054.589.147.265.134.41.313.441.589.036.318-.107.614-.412.912-.166.163-.304.235-.353.235-.034 0-.03-.026.03-.117.36-.551.433-.891.235-1.09-.084-.083-.13-.117-.294-.117-.04 0-.092.027-.147.03h-.06c-.346 0-.622-.128-.647-.295-.012-.082.026-.126.206-.206.115-.05.267-.088.412-.088zm-.912.589l.353.147c.195.07.372.146.383.176.005.016.01.03.03.03.026 0 .057-.025.117-.06a.614.614 0 0 1 .265-.087c.119 0 .176.085.176.235 0 .135-.057.253-.323.559-.222.255-.295.58-.06.647.154.044.004.618.413.648.109.008.293.123.47.264.262.209.295.275.295.412 0 .204-.25 1.699-.383 2.295-.111.498-.15.554-.5.677-.17.06-.62.118-.942.118l-.101.001-.046-.001c-.266-.017-.263.04-.5-1.207-.283-1.486-.314-2.069-.147-2.236.04-.039.207-.115.382-.176.176-.062.362-.143.383-.177.06-.094.05-.26-.03-.412-.058-.112-.105-.147-.235-.147-.233 0-.412-.07-.412-.176 0-.05.02-.103.059-.118.107-.041.102-.126-.03-.177-.07-.026-.117-.063-.117-.117 0-.05-.026-.116-.059-.118-.169-.009-.022-.167.088-.353.155-.261.202-.28.383-.294.106 0 .261.082.353.117.179.07.265.089.294.089.015 0 .043-.017.03-.03-.182-.18-.636-.265-.677-.265h-.147l.117-.147.118-.117zm1.236 6.414c.24 0 .421.026.441.059.018.028.043.881.06 1.883l.029 1.795-.795.088c-.728.075-.975.118-1.147.118-.09 0-.175-.018-.265-.03l-.236-.03.03-.176c.008-.103.103-.7.206-1.294.102-.595.19-1.252.206-1.472.047-.683.132-.795.735-.882a5.65 5.65 0 0 1 .736-.06zM159.803.01c-.03 0-.059.026-.059.088a.166.166 0 0 0-.066-.021c-.029 0-.035.026-.022.08a.195.195 0 0 0-.046-.007c-.046 0-.058.03-.042.096a.059.059 0 0 0-.019-.003.106.106 0 0 0-.07.032c-.02.02-.001.066.03.118.166.176.284.289.383.382.098.094.21.28.323.53.01.072.021.107 0 .117a.04.04 0 0 1-.018.005c-.017 0-.04-.011-.07-.034a1.67 1.67 0 0 1-.147-.265.612.612 0 0 0-.147-.235.099.099 0 0 0-.063-.025c-.034 0-.065.022-.084.054-.042.042-.02.089.058.177s.144.234.206.441a.818.818 0 0 0 .177.294c.14.355.284.718.47 1.472.273 1.096.414 1.535.59 1.647.301.195 1.15.375 1.823.412.548.03.807.155.971.412.108.168.403 1.326.471 1.854.039.297-.037.448-.235.53-.245.1-.218.486.03.588.077.032.117.07.117.088 0 .02-.077.122-.177.236-.1.113-.22.268-.264.353-.091.177-.066.185.264.206l.206.029v.206a6.823 6.823 0 0 1-.117.647c-.052.246-.128.65-.177.883-.05.233-.152.816-.206 1.295-.132 1.182-.377 2.867-.5 3.324a2.35 2.35 0 0 1-.206.53c-.114.17-.854.7-1.147.824-.626.265-.69.291-.736.412-.026.068-.016.151 0 .176.013.022.08.03.176.03.285 0 .849-.08 1.354-.206 1.05-.26 1.076-.275 1.06-.853-.009-.283.034-.39.323-1.118.546-1.376.585-1.556.618-2.207.037-.75.042-.732.765-.765.176-.008.326-.03.441-.03l.121-.002c.013 0 .021 0 .026.002.044.015.08.078.06.206a1.89 1.89 0 0 0 .028.56c.194.965.338 2.438.265 2.706-.115.426-.273.55-1.235.971-.65.284-.82.487-.471.53.023.003.07.004.137.004.134 0 .347-.004.598-.004.295 0 .643.005.981.005.169 0 .335-.002.49-.005.298-.007.315-.084.206-.5-.084-.32-.062-.642.089-2.09.115-1.105.121-1.351 0-1.794-.055-.199-.101-.42-.089-.5.013-.08.022-.98 0-2.001-.028-1.359-.066-1.925-.117-2.148-.09-.39-.052-.942.147-1.883.19-.905.23-.986.382-1.148.335-.355.626-.477 1.766-.618 1.435-.177 1.424-.153 1.53-.941.04-.295.069-.862.088-1.265.034-.695.04-.757.177-.971.007-.012-.002-.017 0-.03.001-.013.003-.015 0-.03.083-.086.172-.153.206-.264.062-.208.128-.383.206-.47.077-.089.1-.136.058-.177a.07.07 0 0 0-.061-.037.141.141 0 0 0-.086.037.479.479 0 0 0-.147.206 1.67 1.67 0 0 1-.147.264c-.03.023-.053.034-.07.034a.04.04 0 0 1-.018-.004c-.021-.01-.01-.045 0-.118.114-.249.225-.407.323-.5.099-.093.217-.235.383-.412.031-.052.05-.097.03-.118a.045.045 0 0 0-.034-.012.186.186 0 0 0-.055.012c.018-.07.001-.122-.056-.122-.01 0-.02.002-.032.005.013-.055.007-.08-.022-.08a.166.166 0 0 0-.066.02c0-.061-.028-.087-.06-.087-.03 0-.075.027-.117.058a1.99 1.99 0 0 1-.353.383c-.15.13-.242.25-.294.353-.063.125-.135.265-.177.441-.026.113-.024.275-.03.412-.002.01.003.02 0 .03-.077.441-.036.763-.146 1.265-.08.362-.148.695-.148.765 0 .208-.096.389-.235.441-.202.077-.479.097-1.442.206-.413.047-.69.089-.882.089a.858.858 0 0 1-.471-.118c-.079-.041-.273-.074-.441-.088l-.295-.03c-.148-.153-.241-.306-.147-.47l.383-.295c.382-.354.559-.71.559-1.118 0-.493-.144-.714-.589-.912a1.802 1.802 0 0 0-.706-.147c-.172 0-.343.016-.47.059-.322.106-.62.39-.883.823-.122.2-.298.457-.383.589-.2.311-.234.48-.088.5.08.012.109.024.088.088-.015.048.002.101.03.118.027.017.043.066.029.088-.05.08.083.45.177.5.05.028.454.03.47.118.018.094-.008.12-.294.147-.17.017-.494.066-.706.118-.197.048-.297.088-.412.088-.098 0-.203-.028-.383-.058a10.47 10.47 0 0 0-.735-.089 5.466 5.466 0 0 1-.56-.088l-.205-.059-.324-.647c-.615-1.344-.656-1.47-.588-1.795-.007-.013-.021-.018-.03-.03.001-.186.005-.385-.03-.53-.04-.176-.113-.316-.176-.44a1.18 1.18 0 0 0-.294-.353 1.99 1.99 0 0 1-.353-.383c-.041-.031-.087-.059-.118-.059zm24.201 5.276v.445h-7.657l.247-.445zM176.1 4.57l-1.013 1.877h9.634V4.57zM186.548.716q0 1.038.272 1.915t4.2 1.642q-.791 2.15-4.101 3.792-3.31 1.643-10.548 1.989l-.131.002q-.48 0-.24-.175 4.2-.519 8.202-1.643 4.001-1.124 4.001-3.199 0-1.136-2.816-1.951V.716zM184.721 0l.024 3.78q2.643.592 2.582 1.247-.062.654-.741 1.272-.68.618-3.138 1.433-2.457.815-5.422 1.284-2.964.47-3.013.667.197.766.642.766.664.016 1.304.016 4.287 0 7.49-.72 3.68-.828 5.657-2.804 1.976-1.976 1.63-3.063 0-.148-1.853-.543-1.852-.395-2.186-.902-.333-.506-.407-2.433zm7.157 12.77q.396 0 .396.415v3.191h-1.208l.396-3.361q.02-.246.416-.246zm.019-.51q-.963 0-1.02.547-.396 3.569-.85 3.588l-8.761.32-.907-.037q-1.02-1.076-1.813-1.076l-.585-.038q-1.605.302-1.926.302-.227 0-.227.302 0 .416.642.416 1.103-.176 1.692-.176.107 0 .197.006.32 0 .528.264-.368.456-1.648.456-.098 0-.202-.003-1.454-.037-2.568-.377-.548 0-.548.642.057.585 4.098.604l1.794-.189 10.234-.056 2.87.037v-4.607q-.018-.925-1-.925zM199.264.601c1.074 0 2.418.552 3.069 1.202.569.57.643 1.324.664 2.025h-7.435c.02-.7.095-1.455.664-2.025.65-.65 1.964-1.202 3.038-1.202zm0-.601c-1.275 0-2.645.589-3.449 1.392-.824.824-.917 1.91-.917 2.72v.317h8.732v-.316c0-.812-.062-1.897-.886-2.72C201.94.588 200.538 0 199.264 0zm-2.076 9.713q.483 0 1.273.263 1.355.452 2.807 1.887 1.451 1.436 1.161 2.661-.29 1.226-1.13 1.84-.692.505-1.671.505-.206 0-.425-.022-1.258-.129-2.161-1.984t-.839-3.306q.065-1.452.452-1.71.188-.134.533-.134zm-.132-1.12q-.665 0-1.079.286-.87.613-.967 2.516-.097 1.904 1.096 4.13 1.194 2.225 2.904 2.435.326.04.636.04 1.308 0 2.3-.718 1.225-.887 1.531-2.516.307-1.629-1.306-3.451-1.613-1.823-3.484-2.42-.948-.302-1.631-.302z"/></svg>