<svg xmlns="http://www.w3.org/2000/svg" width="52.065" height="18"><path d="M11.386 8.203c-.51.04-.793.296-.847.767.067.51.35.78.847.806.498-.026.76-.295.787-.806-.04-.47-.303-.726-.787-.767zm.06-1.694c.364 0 .7.068 1.01.202a2.659 2.659 0 0 1 1.371 1.361c.134.303.201.622.201.958 0 .35-.067.676-.202.978a2.567 2.567 0 0 1-2.38 1.523c-.362 0-.702-.064-1.018-.192a2.426 2.426 0 0 1-.816-.534 2.621 2.621 0 0 1-.545-.797 2.38 2.38 0 0 1-.202-.978c0-.336.068-.655.202-.958.134-.302.316-.571.545-.806.228-.236.5-.42.816-.555a2.574 2.574 0 0 1 1.019-.202zm-.04-.685c-.443 0-.86.084-1.25.252-.39.168-.726.396-1.008.685a3.36 3.36 0 0 0-.676 1.009 3.053 3.053 0 0 0-.252 1.24c0 .444.084.857.252 1.24.168.384.393.716.676.999a3.2 3.2 0 0 0 2.258.927c.444 0 .857-.084 1.24-.252a3.36 3.36 0 0 0 1.009-.675c.289-.283.518-.615.686-.999.168-.383.252-.796.252-1.24 0-.444-.084-.857-.252-1.24a3.268 3.268 0 0 0-1.694-1.694 3.053 3.053 0 0 0-1.24-.252zm6.476 5.264c.4.153.837.645.965 1.05.128.406.112.879.022 1.344-.09.458-.27.894-.488 1.18-.15.195-.285.307-.413.345h-.12c-.127-.03-.293-.143-.458-.346-.217-.285-.398-.72-.488-1.179-.09-.465-.105-.938.023-1.344.127-.405.606-.931.957-1.046v-.004zm-.424-8.838v.901h-.811v.578h.81l-.112 6.818c-.578.3-.938.81-1.111 1.359a3.576 3.576 0 0 0-.068 1.734 3.49 3.49 0 0 0 .646 1.457c.233.3.54.548.901.623v.022c.023.008.045.008.068.008.03 0 .06-.008.09-.008a.532.532 0 0 0 .105.008c.03 0 .052 0 .082-.008v-.022c.36-.075.669-.323.901-.623a3.49 3.49 0 0 0 .646-1.457 3.576 3.576 0 0 0-.067-1.734 2.228 2.228 0 0 0-1.112-1.337l-.112-6.84h.766l.022-.578h-.856V2.25h-.788zm4.472 1.647q-.091 0-.217.11-.496.668-.534 1.909.153.973.687 2.748-.19 1.431-.286 3.931-.077.84.458 1.088 1.584.42 4.008.42 2.442 0 4.007-.42.554-.248.478-1.088-.096-2.5-.287-3.931.535-1.775.687-2.748-.038-1.241-.534-1.909-.126-.11-.216-.11-.129 0-.185.225.134.381.248.744.153.458.115.859-.038.649-.124 1.059-.086.41-.353.41l-.028.001q-.45 0-.45-1.203 0-.44.115-1.069-.098-.167-.212-.167-.107 0-.227.148-.057.458-.076 1.012-.077.84.4 2.366-.171 2.157-.171 4.313-1.298.21-3.187.267-1.87-.057-3.169-.267 0-2.156-.171-4.313.477-1.527.4-2.366-.019-.554-.076-1.012-.12-.148-.227-.148-.114 0-.212.167.115.63.115 1.069 0 1.203-.45 1.203h-.027q-.268 0-.354-.411-.085-.41-.124-1.06-.038-.4.115-.858.114-.363.248-.744-.056-.225-.185-.225zM34.55 2.25c-.09 0-.18.004-.268.012h-.042c-1.006 0-1.871.969-1.798 1.965-.054.784.109 1.558.152 2.338a.35.35 0 0 0 .326.187.554.554 0 0 0 .455-.245c.236-.33.132-.758.035-1.118-.106-.643-.145-1.359.209-1.936.228-.305.602-.457.976-.457.408 0 .814.18 1.03.541.344.506.252 1.241-.19 1.659-.428.505-1.068.838-1.341 1.464-.175.63-.028 1.288-.087 1.93-.056 2.342-.085 4.684-.13 7.027.121.101.264.12.411.12.086 0 .174-.006.26-.006.07 0 .14.004.206.019.318-.163.293-.573.27-.876-.113-2.457-.031-4.917-.093-7.375.007-.28-.084-.602.212-.762.59-.572 1.217-1.142 1.58-1.894.368-1.09-.457-2.397-1.6-2.536a2.837 2.837 0 0 0-.573-.057zm8.758.23q.067 0 .127.03.103.052.147.177t0 .198q-.103.117-.206.125h-.03q-.091 0-.205-.037-.088.088-.205.22-.147.191-.397.602-.279.456-.411.647-.308-.177-.514-.177.925-1.145 1.197-1.439.272-.294.396-.33.052-.016.1-.016zM41.32 4.72q.411.206.5.368.088.161.014.161-.073 0-.176.089-.073-.265-.338-.617zm-.103.427l.647 2.423q-.309 0-.647.235V5.147zM43.28 2.25q-.197 0-.418.194L41.13 4.515q-.558-.088-.866-.617.205-.25.697-.705.492-.455.404-.602-.042-.088-.144-.088-.252 0-.87.544-.66.47-1.056.763-.206.191-.338.668-.132.478-.397 1-.264.52-.25.814.037.184.122.184.084 0 .216-.184.191-.323.456-.734.264-.411.66-.764.28-.19.53-.235.278.103.425.397v8.106q-.866.235-.896 1.131-.044.338.206 1.043.176.514.66.514-.322-1.219-.322-1.557.029-.675.587-.675.602 0 .632.675 0 .338-.309 1.557.485 0 .646-.514.25-.705.191-1.043.015-.896-.896-1.13V8.421q.456-.323 1.19-.426-.294-1.498-.58-2.056-.253-.494.233-.494.065 0 .141.009-.176-.69-.705-.881V4.5q.033-.003.066-.003.296 0 .64.238.22-.293.499-.778.293-.5.396-.631.103-.133.147-.147.084.03.159.03.187 0 .318-.185.184-.257.008-.499-.177-.242-.397-.272-.026-.003-.052-.003z"/><path d="M8.22.375c-9.625 0-9.625 17.25 0 17.25m0-17.25h35.595M8.22 17.625h35.595M51.502.375v17.25M43.815.375c9.625 0 9.625 17.25 0 17.25" fill="none" stroke="#000"/></svg>