<svg xmlns="http://www.w3.org/2000/svg" width="59.52" height="18"><path d="M13.899 9.102l.563.501-.563.657q-1.25 1.49-2.173 1.49-.105 0-.205-.02l2.378-2.628zm-2.456-6.414q1.33.047 1.986 1.455.894 2.256 1.684 2.256.027 0 .053-.003h.007q.29 0 2.84-1.306 2.581-1.322 6.399-1.65-1.346 3.066-6.806 5.835l-.907-.83q1.001-.782 2.378-1.932 1.377-1.15 1.048-2.135l-4.928 2.378.125.328 4.443-2.159q.22.736-3.77 3.442l1.47 1.486 1.768-.907q1.408 1.314 1.987 2.339.58 1.025.83 1.494l-1.174-.22h-1.283q-.672.048-.891.29-.17.188-.213.188-.013 0-.014-.016-.008-.07.101-.696-.766-.626-2.401-1.815-1.635-1.189-2.151-2.088-.516-.9-.524-1.932-.008-1.033-.29-1.909-.276-.86-2.153-.86h-.068l-.594.078q.203-.33.406-.33.047 0 .094.017.084.032.154.032.14 0 .23-.126.132-.187.023-.36-.086-.135-.23-.135-.04 0-.083.01-.203.047-.29.25-.085.204-.273.22l-.037.001q-.162 0-.26-.126.422-.564 1.314-.564zm10.544 9.074l1.58.657q-.188.516-.618.993-.43.478-.947.9l-1.079-1.377q.75.235 1.517.282.032-.642-.453-1.455zm-8.385-3.02l.11.141-2.786 3.067q-.135.208.223.208.179 0 .481-.052 1.55-.172 3.051-2.284.532.532 1.126 1.064-3.055 4.38-6.918 4.38H8.86q1.205-3.363 4.74-6.523zm-2.2-6.492q-.894 0-1.414.673-.141.235-.516.5-1.096.501-1.08.783.04.21.201.21.03 0 .065-.007.86-.125 1.596-.234l.735-.126q1.392 0 1.705.54.313.54.383 1.909t.306 1.744Q9.58 11.778 8.22 15.673q.265.077.653.077.874 0 2.374-.39 2.167-.563 4.983-4.27l.86.531-.672.923q-.485.626-1.049.97-.985.329-.985.485 0 .188.172.438.172-.016 1.455-.673 0 .235.172.298l.36-.079q.078-.594.156-.985.642-.673 1.001-.83.36.095.564.423 0 .391-.423 1.001l-1.064.595q-.75.39-.72.61 0 .14.18.195.013.004.03.004.244 0 1.527-.7.094.58.266.58.188 0 .329-.236.156-1.126.485-1.439.313-.298 1.306-.298l.102.001q.203.094 1.627 2.002 1.61-1 2.19-2.737-1.721-.532-2.472-.986-.673-1.189-2.034-2.44 5.1-3.035 5.366-5.773-4.896.516-7.024 1.658t-2.941 1.19q-.422-.016-1.142-1.792t-2.41-1.776h-.04zm19.246 3.56q-.246 0-.397.165-.15.164-.15.37 0 .178.15.35.15.17.384.17.26 0 .404-.157.143-.158.143-.363 0-.22-.17-.377-.172-.157-.364-.157zm0-.123q.247 0 .46.192.211.192.211.466 0 .246-.185.452-.184.205-.5.205-.287 0-.472-.219t-.185-.438q0-.26.185-.459t.486-.199zm0-3.437q-.26 0-.301.534v2.342q.014.274-.15.507-.144.054-.281.054-.137 0-.267-.054l-2.22-.726q-.184-.043-.313-.043-.244 0-.289.152-.082.247.425.452l2.232.713q.26.082.425.328 0 .301-.178.52l-1.37 1.89q-.287.466-.082.603.055.04.121.04.18 0 .44-.3l1.37-1.89q.15-.233.438-.329.274.082.439.329l1.37 1.89q.26.3.432.3.063 0 .115-.04.205-.15-.069-.616l-1.383-1.89q-.178-.22-.164-.507.164-.246.438-.328l2.219-.713q.506-.205.424-.438-.055-.164-.304-.164-.125 0-.298.04l-2.233.727q-.13.048-.263.048-.134 0-.27-.048-.179-.233-.165-.507V2.784q-.041-.534-.288-.534zm-.03 9.31h.138q1.703 0 3.248 1.465l-.956.773q-.895-.854-2.339-.854t-2.338.854l-.956-.773q1.525-1.465 3.203-1.465zm.091 1.973q1.607.02 2.644 1.688h-5.308q.814-1.667 2.664-1.688zm0-2.603q-2.521.102-4.25 2.075l1.444 1.22q-.61.813-.752 1.525h7.097q-.143-.712-.753-1.505l1.342-1.22q-1.606-1.993-4.128-2.095zm7.46-8.68l-1.832 2.165h.894l.938-1.118.947 1.118.92-1.118.948 1.118.938-1.118.948 1.118.938-1.118.947 1.118.92-1.118.948 1.118.947-1.118.92 1.118.948-1.118.938 1.118h.894L49.438 2.25l-.947 1.047-.92-1.047-.948 1.047-.947-1.047-.92 1.047-.948-1.047-.938 1.047-.948-1.047-.938 1.047-.947-1.047-.92 1.047-.948-1.047zm1.626 7.272q.608 0 1.24.266l-1.201 1.217L38.6 9.788q.585-.266 1.194-.266zm-2.63 1.592l1.217 1.218-1.217 1.217q-.531-1.264 0-2.435zm5.26.063q.53 1.264 0 2.435l-1.218-1.218 1.218-1.217zm-.953-1.03q.375.171.594.593l-1.655 1.67 1.639 1.639q-.203.406-.609.593l-1.639-1.639-1.607 1.608q-.406-.25-.593-.61l1.607-1.591-1.685-1.686q.171-.406.608-.577l1.67 1.67 1.67-1.67zm-1.638 3.62l1.217 1.218q-.593.266-1.202.266-.608 0-1.233-.266l1.218-1.217zm-.032-4.76q-1.607 0-2.536 1.046t-.929 2.294q0 1.405 1.085 2.396 1.085.991 2.35 1.007 1.529-.016 2.489-1.054.96-1.037.96-2.349l-.016.032q.016-1.187-.944-2.28-.96-1.092-2.459-1.092zm8.193 3.872c.806 0 1.814.414 2.302.902.427.426.482.992.498 1.518H45.22c.016-.526.071-1.092.498-1.518.488-.488 1.473-.902 2.278-.902zm0-.451c-.955 0-1.984.441-2.586 1.044-.618.618-.688 1.432-.688 2.04v.238h6.549v-.237c0-.61-.047-1.423-.665-2.04-.602-.604-1.654-1.045-2.61-1.045z"/><path d="M8.22.375c-9.625 0-9.625 17.25 0 17.25m0-17.25h43.05M8.22 17.625h43.05M58.957.375v17.25M51.27.375c9.625 0 9.625 17.25 0 17.25" fill="none" stroke="#000"/></svg>