<svg xmlns="http://www.w3.org/2000/svg" width="57.818" height="18"><path d="M9.647 2.548a.297.297 0 0 0-.078.01c-.143.04-.185.16-.124.359l1.041 2.694h.508L9.888 2.748c-.056-.134-.137-.2-.241-.2zm-.86.217a.35.35 0 0 0-.097.015c-.165.048-.195.171-.09.371l.95 2.46h.507L9.055 2.98c-.062-.144-.151-.216-.268-.216zm2.567 3.975c.081 0 .174.014.278.042V6.9a.9.9 0 0 0-.27-.047.494.494 0 0 0-.205.041 1.384 1.384 0 0 1-.501.098l.065-.066c.19-.06.342-.112.455-.156.052-.02.11-.03.178-.03zm-.1.277l-.234.09c.087.035.165.061.234.079-.052-.052-.052-.109 0-.17zm.196 0c.026.06.017.121-.026.182.069-.026.121-.044.156-.052-.009-.052-.052-.096-.13-.13zm-.066-.085c.113 0 .191.046.235.137l.117.065.013.065-.117.013a.43.43 0 0 1-.244.067c-.128 0-.28-.04-.459-.12h-.286v-.09h.299c.182-.091.33-.137.442-.137zm-2.355-1.1l.885 1.64c.059.089.114.133.165.133.024 0 .047-.01.069-.029l.286-.182c-.017-.07-.086-.163-.208-.28-.121-.117-.147-.26-.078-.43.04-.098.12-.147.236-.147a.85.85 0 0 1 .31.076c.282-.16.523-.239.724-.239.029 0 .057.002.084.005a2.4 2.4 0 0 1 .09-.547zm2.496.768c-.222 0-.512.095-.87.286-.077-.095-.156-.143-.234-.143-.078 0-.119.04-.123.117-.005.079.065.18.208.306s.21.232.202.32l-.04.025a.64.64 0 0 0 .261.45c.147.108.347.166.599.175l.049.001c.13 0 .187-.033.172-.099a.238.238 0 0 1 .039-.201 2.215 2.215 0 0 1-.125.004c-.201 0-.248-.04-.142-.122.082-.061.148-.092.198-.092.028 0 .05.009.069.027-.035-.13.035-.2.208-.208a7.42 7.42 0 0 1-.442-.846h-.029zm-.934.963l-.378.235c-.026.399-.104.672-.234.82a1.704 1.704 0 0 1 .364.013.711.711 0 0 1 .313.117c.069-.26.164-.473.286-.638-.226-.174-.343-.356-.351-.547zm-.508 1.354c-.338 0-.551.186-.638.56-.121.529-.139 1.357-.052 2.485.104 1.285.226 2.343.365 3.176l-.17.248h4.335l-.899-.365c.26-1.275.586-2.21.977-2.805.39-.594.455-.978.195-1.152a.444.444 0 0 0-.248-.082c-.178 0-.355.127-.533.382l-1.744 2.499-.313-.026c-.19-1.944-.394-3.393-.611-4.347-.104-.382-.326-.573-.664-.573zM9.698 2.25c.255 0 .427.148.515.445l1.106 2.916h.573a3.264 3.264 0 0 0-.156.924c.06.234.176.475.345.722.163.24.13.359-.099.359h-.025c.06.086.052.134-.026.142.07.044.076.083.02.118-.057.034-.076.117-.059.247.026.39.128.705.306.944.146.195.279.293.399.293a.216.216 0 0 0 .076-.014.458.458 0 0 1 .154-.034c.052 0 .087.018.106.054.035.065-.01.132-.136.202a.324.324 0 0 1-.16.037.987.987 0 0 1-.413-.122c-.256-.126-.488-.514-.696-1.165h-.365a.993.993 0 0 0-.26.456c.312.998.568 2.473.768 4.425l1.653-2.343a.83.83 0 0 1 .533-.214c.138 0 .28.04.423.123.335.191.497.401.489.631-.01.23-.168.606-.476 1.126-.308.52-.587 1.284-.839 2.29l.99.43-.066.508H8.82l.573-.677C9.115 12.375 9.018 10.65 9.1 9.9c.083-.751.271-1.165.566-1.243.209-.209.291-.434.248-.677l-.339-.599c-.503.382-.755.885-.755 1.51v6.859h-.299V8.89c.009-.754.321-1.344.937-1.77l-.846-1.51h.599l-.924-2.407c-.13-.33-.072-.542.176-.638a.89.89 0 0 1 .319-.065c.118 0 .226.03.325.091.06-.2.236-.312.527-.338a.715.715 0 0 1 .064-.003zm11.692.298c.025 0 .05.003.078.01.143.04.185.16.124.359L20.55 5.61h-.508l1.106-2.863c.056-.134.137-.2.241-.2zm.86.217a.35.35 0 0 1 .097.015c.165.048.195.171.09.371l-.95 2.46h-.507l1.002-2.63c.062-.144.151-.216.268-.216zM19.683 6.74c-.081 0-.174.014-.278.042V6.9a.9.9 0 0 1 .271-.047c.076 0 .144.014.204.041a1.4 1.4 0 0 0 .501.098l-.065-.066a8.543 8.543 0 0 1-.455-.156.494.494 0 0 0-.178-.03zm.1.277l.234.09a1.957 1.957 0 0 1-.234.079c.052-.052.052-.109 0-.17zm-.196 0c-.026.06-.017.121.027.182a1.597 1.597 0 0 0-.157-.052c.009-.052.052-.096.13-.13zm.066-.085c-.113 0-.191.046-.235.137l-.117.065-.013.065.117.013a.43.43 0 0 0 .244.067c.128 0 .28-.04.46-.12h.285v-.09h-.299c-.182-.091-.33-.137-.442-.137zm2.355-1.1l-.885 1.64c-.059.089-.114.133-.165.133a.104.104 0 0 1-.069-.029l-.286-.182c.017-.07.086-.163.208-.28.121-.117.147-.26.078-.43-.04-.098-.119-.147-.236-.147a.85.85 0 0 0-.31.076c-.282-.16-.523-.239-.724-.239a.703.703 0 0 0-.084.005 2.4 2.4 0 0 0-.09-.547zm-2.496.768c.222 0 .512.095.87.286.078-.095.156-.143.234-.143.078 0 .119.04.123.117.005.079-.065.18-.208.306s-.21.232-.202.32l.04.025a.64.64 0 0 1-.26.45c-.148.108-.348.166-.6.175a.936.936 0 0 1-.049.001c-.13 0-.187-.033-.172-.099a.238.238 0 0 0-.039-.201c.047.002.088.004.125.004.201 0 .248-.04.142-.122-.082-.061-.147-.092-.198-.092a.095.095 0 0 0-.069.027c.035-.13-.035-.2-.208-.208a7.42 7.42 0 0 0 .442-.846h.029zm.935.963l.377.235c.026.399.104.672.234.82a1.704 1.704 0 0 0-.364.013.711.711 0 0 0-.313.117 1.888 1.888 0 0 0-.286-.638c.226-.174.343-.356.352-.547zm.507 1.354c.339 0 .551.186.638.56.121.529.139 1.357.052 2.485-.104 1.285-.226 2.343-.365 3.176l.17.248h-4.334l.898-.365c-.26-1.275-.586-2.21-.977-2.805-.39-.594-.455-.978-.195-1.152a.444.444 0 0 1 .248-.082c.178 0 .355.127.533.382l1.744 2.499.313-.026c.19-1.944.394-3.393.611-4.347.104-.382.326-.573.664-.573zm.385-6.667c-.255 0-.427.148-.515.445l-1.106 2.916h-.573c.104.347.156.655.156.924-.06.234-.176.475-.345.722-.163.24-.13.359.099.359h.025c-.06.086-.052.134.026.142-.07.044-.076.083-.02.118.057.034.076.117.059.247-.026.39-.128.705-.306.944-.146.195-.279.293-.399.293a.216.216 0 0 1-.076-.014.458.458 0 0 0-.154-.034c-.052 0-.087.018-.106.054-.035.065.01.132.136.202a.324.324 0 0 0 .16.037c.11 0 .248-.04.413-.122.256-.126.488-.514.696-1.165h.365c.113.104.2.256.26.456-.312.998-.568 2.473-.768 4.425l-1.653-2.343a.83.83 0 0 0-.533-.214.851.851 0 0 0-.423.123c-.334.191-.497.401-.488.631.008.23.167.606.475 1.126.308.52.587 1.284.84 2.29l-.99.43.065.508h5.558l-.573-.677c.278-2.698.375-4.423.293-5.173-.083-.751-.271-1.165-.566-1.243-.209-.209-.291-.434-.248-.677l.339-.599c.503.382.755.885.755 1.51v6.859h.299V8.89c-.009-.754-.321-1.344-.937-1.77l.846-1.51h-.599l.924-2.407c.13-.33.072-.542-.175-.638a.89.89 0 0 0-.32-.065.605.605 0 0 0-.325.091c-.06-.2-.236-.312-.527-.338a.715.715 0 0 0-.064-.003zm11.541.432l.132.055-3.963 8.825c-.067-.043-.444-.228-.567-.371 0-.096.067-.16.264-.423.206-.275.426-.56.176-.93-.116-.17-.274-.294-.48-.294-.128 0-.274.047-.44.162-.344-.205-.678-.308-1.221-.308-.096-.837-.202-1.365-.32-2.026h3.93l2.488-4.69zm-.009-.432a.783.783 0 0 0-.069.003l-2.52 4.492c-.089.147-.18.22-.276.22a.256.256 0 0 1-.033.002c-.37 0-1.42-.676-3.149-2.028-.396-.41-.601-.822-.616-1.233-.015-.41.108-.646.369-.704a.978.978 0 0 1 .213-.027c.146 0 .251.048.315.142.092.136.086.272-.016.408-.052.068-.098.101-.14.101-.043 0-.08-.033-.113-.101-.067-.136-.136-.204-.21-.204-.14.051-.172.172-.099.363.068.177.194.266.376.266.014 0 .028 0 .043-.002.205-.014.348-.084.429-.209a.793.793 0 0 0 .121-.44.644.644 0 0 0-.165-.44c-.11-.125-.27-.204-.479-.237a.753.753 0 0 0-.118-.01c-.17 0-.34.059-.51.175-.209.143-.33.378-.363.705-.033.326.057.686.27 1.078.213.393.596.788 1.15 1.184.554.396 1.081.774 1.58 1.134.012.047-.014.07-.077.07a.391.391 0 0 1-.055-.004h-2.818c.235 1.343.378 2.293.43 2.851a2.6 2.6 0 0 1 .196-.007c.514 0 1.028.153 1.543.459.11-.147.229-.22.357-.22.129 0 .195.07.198.209-.224.357-.552.705-.666 1.111l1.233.793 4.195-9.61a.611.611 0 0 0-.526-.29zm.365 11.437q-.219.219-.219.801 0 .595.219.813h-7.208q.218-.218.218-.813 0-.582-.218-.8zm-8.603-.449q-.316 0-.304.207-.012.242.304.242h.788q.291.219.291.801 0 .595-.29.813h-.777q-.328 0-.328.206 0 .243.316.243h9.998q.303 0 .303-.243 0-.206-.315-.206h-.777q-.29-.218-.29-.813 0-.582.29-.8h.789q.303 0 .303-.243 0-.207-.303-.207zM37.99 3.093q1.512.22 1.58 1.382v8.382q-.706-.843-2.536-1.184l.957-8.58zm-.424-.843l-1.132 10.022q2.521.289 3.136 1.8v1.678h.752V4.475q0-1.883-2.756-2.225zm9.387.532V6.55h-2.528V2.782zm-3.048-.532v4.82h3.58V2.25zm5.094 6.556v1.991q-2.134 0-3.323 1.267-1.19 1.268-1.19 3.117h-2.082q0-2.509 1.752-4.442 1.752-1.933 4.843-1.933zm0 2.547v3.828h-3.957q0-1.513.996-2.67.995-1.158 2.96-1.158zm.52-3.116q-3.933 0-5.81 2.095-1.887 2.108-1.887 5.418h7.746V8.237h-.048z"/><path d="M8.22.375c-9.625 0-9.625 17.25 0 17.25m0-17.25h41.348M8.22 17.625h41.348M57.255.375v17.25M49.568.375c9.625 0 9.625 17.25 0 17.25" fill="none" stroke="#000"/></svg>