<svg xmlns="http://www.w3.org/2000/svg" width="64.992" height="18"><path d="M9.777 3.093q1.51.22 1.579 1.382v8.382q-.706-.843-2.536-1.184l.957-8.58zM9.35 2.25L8.22 12.272q2.52.289 3.136 1.8v1.678h.752V4.475q0-1.883-2.757-2.225zm15.587 1.507v1.486H13.99V3.757zM14.03 2.25v1.125h-.421v2.25H25.32v-2.25h-.341V2.25h-.382v1.125h-.944V2.25h-.382v1.125h-.944V2.25h-.382v1.125h-.924V2.25h-.402v1.125h-.924V2.25h-.381v1.125h-.944V2.25h-.382v1.125h-.944V2.25h-.382v1.125h-.924V2.25h-.382v1.125h-.944V2.25zm1.014 4.645l-1.436 1.698h.7l.736-.877.743.877.722-.877.743.877.736-.877.743.877.736-.877.743.877.722-.877.743.877.743-.877.722.877.743-.877.736.877h.7l-1.436-1.698-.743.82-.722-.82-.743.82-.743-.82-.722.82-.743-.82-.736.82-.743-.82-.736.82-.743-.82-.722.82-.743-.82zm.213 3.787l3.08.172a8.506 8.506 0 0 1-.082 1.998c-1.149-.635-2.149-1.358-2.998-2.17zm3.342-.819c-.172 0-.349.111-.53.333l-3.33-.172c-.786.203-.946.519-.481.946.09-.02.171-.03.242-.03.172 0 .285.06.336.179.073.168.269.387.587.657.319.27 1.183.828 2.592 1.673.166.418.35.626.551.626.094 0 .192-.045.294-.137 2.003.864 3.938 1.468 5.805 1.812l.263-.207-.643-.683c-1.37-.119-3.155-.652-5.353-1.599a5.686 5.686 0 0 1-.038-2.33l3.727.25c.553-.139.594-.426.123-.86l-3.669-.153c-.154-.203-.312-.305-.476-.305zm13.899-.761l.563.501-.563.657q-1.25 1.49-2.173 1.49-.105 0-.205-.02l2.378-2.628zm-2.456-6.414q1.33.047 1.987 1.455.893 2.256 1.683 2.256.027 0 .053-.003h.007q.29 0 2.84-1.306 2.582-1.322 6.399-1.65-1.346 3.066-6.805 5.835l-.908-.83q1.001-.782 2.378-1.932 1.377-1.15 1.048-2.135l-4.928 2.378.126.328 4.443-2.159q.219.736-3.77 3.442l1.47 1.486 1.768-.907q1.408 1.314 1.986 2.339.58 1.025.83 1.494l-1.174-.22h-1.283q-.672.048-.891.29-.17.188-.213.188-.012 0-.014-.016-.008-.07.102-.696-.767-.626-2.402-1.815-1.635-1.189-2.15-2.088-.517-.9-.525-1.932-.008-1.033-.29-1.909-.276-.86-2.153-.86h-.068l-.594.078q.203-.33.406-.33.047 0 .094.017.084.032.154.032.14 0 .23-.126.133-.187.023-.36-.086-.135-.23-.135-.04 0-.083.01-.203.047-.29.25-.085.204-.273.22l-.037.001q-.162 0-.26-.126.422-.564 1.314-.564zm10.544 9.074l1.58.657q-.188.516-.618.993-.43.478-.946.9l-1.08-1.377q.751.235 1.518.282.03-.642-.454-1.455zm-8.385-3.02l.11.141-2.785 3.067q-.136.208.222.208.18 0 .482-.052 1.548-.172 3.05-2.284.532.532 1.127 1.064-3.056 4.38-6.919 4.38h-.027q1.204-3.363 4.74-6.523zM30 2.25q-.894 0-1.414.673-.14.235-.516.5-1.095.501-1.08.783.04.21.201.21.03 0 .065-.007.86-.125 1.596-.234l.735-.126q1.393 0 1.705.54.313.54.384 1.909.07 1.369.305 1.744-3.802 3.536-5.163 7.431.265.077.653.077.874 0 2.374-.39 2.167-.563 4.983-4.27l.86.531-.672.923q-.485.626-1.048.97-.986.329-.986.485 0 .188.172.438.172-.016 1.455-.673 0 .235.172.298l.36-.079q.078-.594.156-.985.642-.673 1.001-.83.36.095.564.423 0 .391-.423 1.001l-1.064.595q-.75.39-.72.61 0 .14.18.195.013.004.03.004.244 0 1.527-.7.094.58.266.58.188 0 .329-.236.156-1.126.485-1.439.313-.298 1.307-.298l.1.001q.204.094 1.628 2.002 1.611-1 2.19-2.737-1.72-.532-2.472-.986-.673-1.189-2.034-2.44 5.1-3.035 5.366-5.773-4.896.516-7.024 1.658-2.127 1.142-2.94 1.19-.423-.016-1.143-1.792T30.04 2.25H30zm17.63 2.39q-.165 0-.267.11-.1.11-.1.248 0 .12.1.234.102.115.258.115.174 0 .27-.106.097-.105.097-.243 0-.147-.114-.253-.115-.106-.244-.106zm0-.083q.165 0 .308.128.142.129.142.313 0 .165-.124.303-.124.138-.335.138-.193 0-.317-.147t-.124-.294q0-.175.124-.308t.326-.133zm0-2.307q-.175 0-.202.358V4.18q.009.184-.101.34-.097.037-.189.037t-.179-.037l-1.489-.487q-.124-.029-.21-.029-.164 0-.194.102-.055.166.285.304l1.498.478q.174.055.285.22 0 .202-.12.35l-.919 1.268q-.193.312-.055.404.037.027.081.027.121 0 .296-.202l.919-1.268q.101-.156.294-.22.184.055.294.22l.92 1.268q.174.202.29.202.042 0 .077-.027.138-.101-.046-.414l-.928-1.268q-.12-.147-.11-.34.11-.165.293-.22l1.49-.478q.34-.138.284-.294-.037-.11-.204-.11-.084 0-.2.027l-1.498.487q-.088.032-.177.032-.09 0-.182-.032-.12-.156-.11-.34V2.608q-.028-.358-.193-.358zm6.28 2.095l.062.001h.03q1.144 0 2.18.982l-.641.519q-.6-.573-1.57-.573-.968 0-1.569.573l-.641-.519q1.023-.983 2.15-.983zm.062 1.325q1.078.013 1.774 1.132h-3.562q.546-1.119 1.788-1.132zm0-1.747q-1.692.068-2.852 1.392l.968.819q-.409.545-.504 1.023h4.762q-.095-.478-.505-1.01l.9-.819q-1.077-1.337-2.77-1.405zM46.491 8.22l-1.433 1.693h.7l.733-.875.742.875.72-.875.741.875.734-.875.741.875.735-.875.74.875.72-.875.742.875.741-.875.72.875.742-.875.734.875h.699L55.309 8.22l-.742.82-.72-.82-.74.82-.742-.82-.72.82-.741-.82-.735.82-.74-.82-.735.82-.741-.82-.72.82-.742-.82zm4.42 3.12q.431 0 .879.188l-.851.862-.873-.862q.414-.188.845-.188zm-1.862 1.128l.862.862-.862.862q-.376-.896 0-1.724zm3.724.044q.376.895 0 1.724l-.862-.862.862-.862zm-.674-.73q.265.122.42.42l-1.171 1.183 1.16 1.16q-.144.288-.43.42l-1.161-1.16-1.139 1.138q-.287-.177-.42-.43l1.139-1.128-1.194-1.194q.122-.287.431-.409l1.183 1.183 1.182-1.183zm-1.16 2.564l.862.862q-.42.188-.851.188t-.873-.188l.862-.862zm-.022-3.37q-1.139 0-1.796.74-.658.74-.658 1.625 0 .994.768 1.696t1.664.713q1.083-.011 1.762-.746.68-.735.68-1.663l-.011.022q.011-.84-.669-1.614-.68-.773-1.74-.773z"/><path d="M8.22.375c-9.625 0-9.625 17.25 0 17.25m0-17.25h48.522M8.22 17.625h48.522M64.43.375v17.25M56.742.375c9.625 0 9.625 17.25 0 17.25" fill="none" stroke="#000"/></svg>