<svg xmlns="http://www.w3.org/2000/svg" width="38.467" height="18"><path d="M12.138 6.585v4.845h-3.25V6.585zM8.22 5.902v6.196h4.601V5.902zm8.734-3.209c.505 0 .846.075 1.13.397.392.39.467.968.43 1.494-.007 1.209-.221 2.408-.575 3.562-.277.95-.608 1.883-.91 2.825h-.148c-.013-.046-1.444-3.967-1.507-6-.011-.593-.097-1.263.309-1.756.25-.344.757-.522 1.27-.522zm.312 8.719v.513a.22.22 0 0 0 .145.207c.129.046.246.13.367.228h-1.793c.122-.099.24-.182.367-.228a.22.22 0 0 0 .146-.207v-.513zm1.233 1.857c.045.092.052.276.04.405h-3.281a1.544 1.544 0 0 1-.018-.405zm-.35 1.365c-.237.353-.713.675-1.213.675a1.7 1.7 0 0 1-1.32-.675zM16.978 2.25c-.956 0-2.053.551-2.053 1.684-.055.692.014 1.388.086 2.077.217 1.713.863 3.327 1.395 4.96h-.013c-.07 0-.335.007-.335.22v.589c-.301.148-.511.375-.716.542h-.656a.22.22 0 0 0-.221.22v.594c0 .118.138.215.256.22.053.1.062.189.076.281l-.247-.007h-.003a.23.23 0 0 0-.225.22v.57a.22.22 0 0 0 .22.221c.154 0 .507.008.568.008h.008c.276.632 1.016 1.101 1.82 1.101.78 0 1.457-.503 1.712-1.109h.573c.206 0 .22-.143.22-.22v-.571c0-.096.042-.214-.442-.214a1.11 1.11 0 0 0-.012-.275c.212-.014.311-.107.311-.225v-.594a.22.22 0 0 0-.22-.22h-.657c-.204-.167-.414-.394-.716-.542v-.589a.22.22 0 0 0-.215-.22c.005-.027 1.38-3.81 1.448-5.798.052-.749.126-1.59-.375-2.217-.312-.43-.64-.706-1.587-.706zm5.521.843q1.51.22 1.58 1.382v8.382q-.707-.843-2.537-1.184l.957-8.58zm-.425-.843l-1.132 10.022q2.521.289 3.136 1.8v1.678h.752V4.475q0-1.883-2.756-2.225zm5.812.843q1.511.22 1.58 1.382v8.382q-.707-.843-2.536-1.184l.956-8.58zm-.425-.843L26.33 12.272q2.52.289 3.136 1.8v1.678h.751V4.475q0-1.883-2.756-2.225z"/><path d="M8.22.375c-9.625 0-9.625 17.25 0 17.25m0-17.25h21.997M8.22 17.625h21.997M37.905.375v17.25M30.217.375c9.625 0 9.625 17.25 0 17.25" fill="none" stroke="#000"/></svg>