<svg xmlns="http://www.w3.org/2000/svg" width="129.057" height="18"><path d="M6.174.386c.221 0 .566.052.757.104.832.223-.005.968-.54.968a.513.513 0 0 1-.073-.005c-.353.074.06.199.502.199.272 0 .555-.047.681-.18.072-.077.131-.108.182-.108.185 0 .258.417.406.623.74.245 1.203.913 1.682 1.486 1.377 1.65 2.617 3.405 3.917 5.115-.357-.105-.743-.31-1.097-.48-1.62-.783-3.347-1.401-4.814-2.455-.732-.525-1.712-1.134-1.793-2.056-.061-.702 1.227-1.337 1.134-1.717-.011-.044-.043-.064-.09-.064-.274 0-1.077.688-1.288 1.09-.081.155-.14.217-.182.217-.146 0-.077-.757.014-.93.31-.589-.628-1.325-.1-1.664-.016.088.002.337.312.337.325 0 .305-.4.205-.453a.435.435 0 0 1 .185-.027zm.616 5.477c.254.9.626 1.766 1.065 2.59.217.405 1.13 1.049.485 1.377a.194.194 0 0 1-.052.007c-.257 0-.519-.495-.855-.517a12.843 12.843 0 0 0-.265-1.873c-.103-.505-.36-1.176-.378-1.584zm.705.597c.795.576 1.63 1.093 2.472 1.6.222.497.034 1.222.149 1.805-.538-.363-1.112-.378-1.457-1.066-.385-.766-1.019-1.494-1.164-2.34zm.226 3.6c.134.235.335.383.538.383.16 0 .32-.091.45-.304.186.205.23.926.23 1.325.002.411-.214.446-.465.446l-.155-.002a.93.93 0 0 0-.278.032.453.453 0 0 1-.138.02c-.197 0-.423-.095-.636-.095-.02 0-.04 0-.06.002.001-.52.36-1.225.514-1.808zm1.603-2.968c1.69.766 3.36 1.59 5.054 2.351.648.679 1.239 1.448 1.96 2.049.538.45-.155.358-.474.418-.244.046-.492.08-.738.116-.87-.87-1.745-1.738-2.58-2.641-.909-.982-2.145-1.538-3.222-2.293zm-.512 5.693c1.105 0 2.211.013 3.316.042.556.014 1.197-.023 1.695.164-.658.042-2.304.058-4.042.058a201.337 201.337 0 0 1-5.037-.05c-.51 0-.097-.173.188-.173a.55.55 0 0 1 .076.005c1.267-.03 2.535-.046 3.804-.046zm-4.862.743c.75.01 1.5.02 2.25.045.495.017.989.023 1.483.023 1.398 0 2.796-.05 4.192-.05.188 0 .375.001.562.003-1.161.634-2.421 1.17-3.766 1.214-.152.005-.3.008-.445.008-.76 0-1.443-.08-2.196-.351-.656-.236-1.506-.523-2.08-.892zm6.649 1.558a.144.144 0 0 0-.078.02c-.256.16.368 1.331.895 1.613.04.021.078.03.115.03.192 0 .33-.259.247-.445-.214-.48-.87-1.218-1.18-1.218zm-4.848.055c-.042 0-.105.026-.194.086-.432.29-1.443 1.067-.823 1.496a.22.22 0 0 0 .129.042c.224 0 .442-.354.556-.556.12-.21.574-1.068.332-1.068zm4.06.177c-.274 0 .026 1.476.502 1.79.031.022.07.031.109.031.106 0 .222-.069.242-.173.123-.637-.473-1.61-.846-1.647a.08.08 0 0 0-.008 0zm-3.278.017c-.05 0-.13.062-.244.216-.302.408-1.043 1.256-.436 1.571.04.021.078.03.114.03.254 0 .4-.478.49-.72.081-.222.268-1.097.076-1.097zm2.271.162c-.023 0-.043.012-.06.037-.245.368-.164 1.491.42 1.817a.196.196 0 0 0 .097.026c.172 0 .306-.25.276-.423-.07-.41-.517-1.457-.733-1.457zm-1.329-.011a.1.1 0 0 0-.058.023c-.391.291-1.017 1.466-.379 1.845.035.02.068.03.101.03.191 0 .35-.31.375-.504.04-.334.162-1.394-.039-1.394zm.655-.018a.08.08 0 0 0-.038.01c-.324.174-.62 1.573-.014 1.945a.175.175 0 0 0 .092.028c.164 0 .306-.252.306-.421-.002-.46-.123-1.562-.346-1.562zM6.352 0c-.205 0-.408.02-.598.054-.567.104-1.44.31-1.43.996a.711.711 0 0 1 .192-.028c.55 0 .663.789.553 1.27-.225.98.26 1.965.898 2.707.425 1.269.96 2.595.954 3.928-.003.556.408.592.256 1.158-.136.51-.373 1.566-.883 1.69a2.18 2.18 0 0 1-.182.007c-.323 0-.663-.056-.984-.056-.254 0-.497.036-.71.162-.444.264-.778.46-1.31.46l-.071-.001-.078-.002c-.895 0-1.953.472-2.118 1.411-.244 1.391-.044 2.827-.036 4.233.205.005.412.011.618.011.163 0 .325-.004.487-.016-.076-.844-.133-1.694-.079-2.539.039-.601-.113-1.44.465-1.781a.738.738 0 0 1 .383-.107c.506 0 1.005.499 1.472.712 1.306.596 2.697 1.036 4.147 1.036h.1c1.756-.025 3.375-.751 4.878-1.576a.616.616 0 0 1 .41-.148c.28 0 .562.17.622.463.262 1.292.154 2.632.067 3.94.157.012.315.015.473.015.156 0 .313-.003.47-.003.052 0 .105 0 .158.002.008-.911.089-1.823.047-2.733-.033-.721.107-1.55-.417-2.143-.68-.771-1.763-.76-2.704-.825a1.712 1.712 0 0 0-.117-.004c-.125 0-.257.01-.386.01a.973.973 0 0 1-.439-.08c-.294-.302-.66-.36-1.04-.36-.228 0-.462.021-.689.021a2.75 2.75 0 0 1-.22-.008c-.043-.588-.075-1.177-.107-1.766a.155.155 0 0 1 .111-.045c.294 0 .78.686 1.034.686.076 0 .13-.06.154-.217.094-.642-.155-1.343-.146-2.018h.016c.285 0 .766.368 1.053.617.898.779 1.67 1.717 2.513 2.566.334.38.681.803 1.163.803.13 0 .269-.031.42-.101.48-.223 1.5.065 1.609-.544-.462-.54-.994-1.018-1.47-1.547.58.274 1.144.678 1.747.941a.77.77 0 0 0 .24.078c.18 0-.489-.521-.668-.602-.665-.3.624-.188.098-.605-1.155-.915-2.466-1.648-3.699-2.473-.79-.998-1.506-2.067-2.3-3.068-.66-.774-1.221-1.636-1.941-2.356C8.895 1.783 8.245 1.66 8.2.937 7.858.252 7.09 0 6.352 0zm16.831.46q-.11 1.162-.11 2.603 0 1.442.14 2.914-.32-.17-1.001-.17-.69 0-1.001.17.15-1.472.14-2.914-.01-1.441-.11-2.602zm-.971 5.967q.68.01 1.381.36l-.18.33q-.141-.024-.265-.024-.426 0-.636.295-.12-.53-.3-.65-.18.12-.31.65-.21-.295-.636-.295-.124 0-.265.025l-.18-.33q.72-.35 1.39-.36zm0 .961q.15.12.1.35-.05.23-.1.441-.06-.21-.11-.44t.11-.35zm.912.002q.056 0 .119.008-.68 1.622-1.031 1.622-.34 0-1.051-1.622.064-.008.122-.008.365 0 .468.329.13.37.27.6.15.24.19.24.051 0 .181-.24.14-.23.26-.6.113-.329.472-.329zM20.65 0q.48 3.404-.01 6.137-.89.42-.74.71.11.22.251.22.052 0 .109-.03.87.982 1.431 2.313.22 2.193-.06 7.579 0 1.071.56 1.071h.031q.56 0 .56-1.071-.27-5.386-.06-7.579.551-1.331 1.422-2.312.056.03.109.03.142 0 .251-.22.15-.29-.73-.711-.5-2.733 0-6.137zm9.475.366c.16.109.148.168.131.234-.021.084-.279.14-.396.14-.033 0-.054-.004-.057-.013 0-.076.126-.274.322-.361zM28.803 2.1c-.164 0-.245.087-.245.262 0 .218.098.327.294.327h.016c.23 0 .42-.088.572-.262V2.33c0-.076-.637-.229-.637-.229zM30.919.78c.238.194-.197.74-.455 1.299l-.09.192c.45-.286.685-.841.685-.841.109.173-.246.644-.137.784.12.425.608.939-.49 1.983-.143.087-1.776.96-1.907.96-.098 0-.169-.076-.409-.294l.49-.393v-.114l-.016-.016h-.098c-.163 0-.37.103-.62.31a4.562 4.562 0 0 1-.447-.533c.203-.16.285-.27.273-.42.03-.185-.094-.214-.189-.214-.044 0-.082.007-.096.007v.13c-.032.066-.103.12-.212.164-.044 0-.065-.147-.065-.147 0-.077.174-.316.523-.72.959-1.177 1.699-1.776 2.331-1.776l.143.01c-.241.153-.13.41-.13.41.254-.223.666-.685.916-.781zm.665.794h.004c1.656 1.59 1.908 2.672 1.917 6.299l-2.804.044L30.661 5c0-.196.044-.432.218-.53 1.176-.908.58-2.286.503-2.44-.03-.349.107-.456.202-.456zM30.172 0c-.098 0-.315 0-.535.239-.195.211-.258.612-.636.748-.377.258-.628.527-.867.774-.96 1.046-1.28 1.41-1.291 1.618-.765.624.06.993.311 1.137.817.948.678.88 1.028 1.036.127.033.2.062.264.062.07 0 .13-.033.238-.129.12 0 1.405-.62 1.405-.62.142 0 .201.467.201 1.535-.013.734-.09 1.947-.004 1.947a.01.01 0 0 0 .004-.002l.033.05h3.71l.017-.017-.049-1.079c-.076-1.351.472-4.744-2.669-6.495.037-.219-.139-.458-.361-.458-.112 0-.235.06-.348.213-.02-.264-.133-.538-.451-.559zm-.047 9.971c.16.11.148.169.131.234-.021.084-.279.141-.396.141-.033 0-.054-.004-.057-.014 0-.076.126-.274.322-.36zm-1.322 1.736c-.164 0-.245.087-.245.261 0 .218.098.327.294.327h.016c.23 0 .42-.087.572-.262v-.098c0-.076-.637-.228-.637-.228zm2.116-1.32c.238.193-.197.74-.455 1.298l-.09.192c.45-.285.685-.84.685-.84.109.173-.246.644-.137.784.12.425.608.938-.49 1.982-.143.088-1.776.96-1.907.96-.098 0-.169-.076-.409-.294l.49-.392v-.115l-.016-.016h-.098c-.163 0-.37.104-.62.31a4.562 4.562 0 0 1-.447-.532c.203-.16.285-.271.273-.42.03-.185-.094-.214-.189-.214-.044 0-.082.006-.096.006v.13c-.032.066-.103.12-.212.164-.044 0-.065-.147-.065-.147 0-.076.174-.316.523-.72.959-1.176 1.699-1.776 2.331-1.776l.143.011c-.241.153-.13.41-.13.41.254-.224.666-.686.916-.782zm.665.793h.004c1.656 1.59 1.908 2.672 1.917 6.3l-2.804.044-.04-2.917c0-.197.044-.432.218-.53 1.176-.909.58-2.287.503-2.44-.03-.35.107-.457.202-.457zm-1.412-1.575c-.098 0-.315 0-.535.24-.195.21-.258.611-.636.748-.377.258-.628.526-.867.773-.96 1.046-1.28 1.411-1.291 1.619-.765.623.06.992.311 1.136.817.948.678.881 1.028 1.036.127.034.2.062.264.062.07 0 .13-.033.238-.128.12 0 1.405-.621 1.405-.621.142 0 .201.468.201 1.536-.013.734-.09 1.946-.004 1.946a.01.01 0 0 0 .004-.001l.033.049h3.71l.017-.016-.049-1.08c-.076-1.35.472-4.743-2.669-6.494.037-.22-.139-.459-.361-.459-.112 0-.235.06-.348.213-.02-.263-.133-.538-.451-.559zM38.558.696q.928 0 .928 1.222 0 1.075-.928 2.129-.927-1.054-.927-2.129 0-1.222.927-1.222zm0 4.7q.654 0 .654 1.412 0 .8-.654 1.475-.653-.674-.653-1.475 0-1.412.653-1.412zm0 4.257q.654 0 .654 1.413 0 .8-.654 1.475-.653-.674-.653-1.475 0-1.413.653-1.413zm0-9.653q-1.686 0-1.686 1.918-.02 1.201.559 1.886.58.685.516.917-.738.864-.738 2.087 0 1.012.865 2.17-.865.865-.865 2.088 0 1.011.865 2.15.105.273-.59 1.285-.696 1.012-1.434 3.499h.928q.463-1.644.822-2.35.358-.706.758-1.149.422.443.77 1.149.347.706.811 2.35h.949q-.696-2.487-1.423-3.499-.727-1.012-.6-1.286.842-1.138.842-2.15 0-1.222-.8-2.086.8-1.16.8-2.171 0-1.223-.716-2.087-.064-.232.506-.917.569-.685.569-1.886Q40.266 0 38.558 0zm10.228 1.792l-.152.04q-.106-.02-.197-.02-.091 0-.167.02-.152.051-.183.112-.03.061-.1.112l.05.06.08-.04q.064.029.136.029.18 0 .411-.181l.152-.02-.03-.112zm.74-1.449q.547 0 .768.559.243.627.01 1.073-.194.356-.44.356-.062 0-.126-.022-.173-.061-.102-.172.142-.132.04-.345.102-.324.021-.475-.081-.223-.25-.223-.061 0-.135.03-.131.081-.172.172-.34-.077-.61-.077-.335 0-.564.118.05-.405.385-.648.334-.233 1.012-.334.085-.012.163-.012zm-5.144 5.104q1.256.79 2.136 1.073l.436.111q-.436.172-2.055.709-.173-.152-.466-.172l-.284-1.58q.132-.04.233-.141zm5.048-4.168q.086 0 .115.108.06.173-.02.426.06.192-.05.202-.02.003-.036.003-.09 0-.106-.094-.051.111.313.567.355.466 1.053 1.144.699.688.77 3.837l-1.408.708q-.283-1.873-1.316-3.209-.253-.283-.131-.536.131-.243.87-.638.365-.152.102-.365-.253-.212-.324-.455-.172 0-.365.152-.318.159-.449.159-.027 0-.047-.007-.111-.041-.131-.193l.151-.152q.071-.06 0-.111l-.303.07q.05-.262-.132-.283-.064.041-.105.041-.05 0-.067-.06-.04-.132.07-.386.062-.243.193-.374.122-.112.312-.112h.032q.071.004.141.004.14 0 .275-.014l-.02-.111q-.077.01-.165.01-.089 0-.19-.01-.047-.005-.09-.005-.297 0-.447.238-.02-.152 0-.213.256-.178.614-.178.25 0 .55.087v.132q.046.01.084.01.038 0 .068-.01 0-.324.112-.365.043-.017.077-.017zm2.271 6.648q.588 1.033.577 1.833-.01.8-.161 2.57l-2.572-.02.587-3.694 1.57-.689zM49.613 0h-.037q-.699.02-1.286.365-.648.344-.628 1.346.05.274-.03.537-.071.253-.05.516.043.109.138.109.038 0 .084-.018.047-.02.075-.02.07 0 .026.122-.04.02-.02.07.013.027.045.027.016 0 .036-.006-.057.142.028.142h.012l.016-.001q.076 0 .086.092.01.11.121.232.044.044.133.044.138 0 .383-.104l.365-.193q.03.091.131.213-.86.263-1.255.972-.577.698-.941 1.447-.87-.253-2.572-.971-.152-.213-.496-.274l-.435-2.338q-.132-.73.344-1.296L43.562.78q-.627.537-.425 1.64l.385 2.227-.344.02q-.041.173.172.254-.04.668.344.698l.283 1.549q-.222.04-.435.07-.02.193.243.254-.089.648.357.648h.028l.04.395.456-.092-.091-.415q.11-.06.222-.1 2.177-.264 2.693-.78.699-1.084 1.023-1.68.708.576 1.164 2.803h-.055q-.48 0-.431.345.04.285.271.285.065 0 .144-.022l-.688 4.16q-.608 2.703-.881 3.351-.152.517-.506.618-.365.091-1.165.547-.445.09-.496.243-.04.151.213.182.052.006.115.006.23 0 .604-.087.19-.04.416-.04.339 0 .758.09.096.02.178.02.516 0 .42-.779-.041-.567.657-1.61.699-1.042.77-2.47l.324-.324 1.032-.02.02.496q.284 1.944.304 2.561.132 1.003-.243 1.155-.384.141-1.154.597-.455.07-.516.223-.05.151.212.192.064.01.14.01.233 0 .59-.091.186-.044.43-.044.375 0 .885.105.119.024.211.024.57 0 .134-.915.03-.952.212-1.974.182-1.023-.212-2.065l.202-.274.122-2.794q.03-1.205-.84-2.693-.041-.546-.132-1.923-.081-1.387-.75-2.005-.668-.627-.738-.759.374-.263.496-.688.131-.436-.162-1.185Q50.292 0 49.613 0zm12.261.496c.972 0 1.838.449 2.402 1.15h-4.803a3.071 3.071 0 0 1 2.401-1.15zm2.727 1.647c.185.353.304.746.34 1.163h-6.133a3.07 3.07 0 0 1 .34-1.163zm.343 1.66c-.03.416-.143.81-.322 1.163h-5.495a3.062 3.062 0 0 1-.322-1.164zm-.637 1.659a3.072 3.072 0 0 1-2.433 1.19 3.07 3.07 0 0 1-2.432-1.19zM61.874 0A3.579 3.579 0 0 0 58.3 3.574a3.579 3.579 0 0 0 3.574 3.574 3.579 3.579 0 0 0 3.575-3.574A3.58 3.58 0 0 0 61.874 0zm-5.882 10.777q-.082 0-.16.025-.302.097-.266.293.03.166.27.166.044 0 .094-.006.33-.035.579-.267-.278-.211-.517-.211zm.154-.18q.642 0 1.982.765.672.348 1.474.348.387 0 .804-.08 1.05-.214 2.207-.375.393-.054.761-.054.716 0 1.34.206.942.311 1.565.4.623.09 1.976.16-.872.09-1.709.09-.836 0-1.975-.188-.57-.093-1.097-.093t-1.012.093q-.97.187-2.207.347-.31.04-.608.04-.896 0-1.697-.36-.777-.53-1.615-.53-.37 0-.752.103-.338-.018-.302-.374.196-.48.836-.498h.03zm.476-1.816q-.385 0-.718 1.175-.279-1.037-.72-1.037-.065 0-.135.023-.533.338.356 1.299-.711.41-.711 1.032 0 .623 1.05.694.324-.085.634-.085.725 0 1.368.468.55.4 1.743.4.796 0 1.878-.178 1.33-.374 2.583-.374.476 0 .941.054 1.162.135 1.98.135.371 0 .672-.028 1.513-.036 1.513-.285-.41-.374-1.157-.498-1.584-.018-2.892-.552-.654-.267-1.604-.267-.95 0-2.196.267-.803.203-1.496.203-.949 0-1.69-.381-.765-.463-1.619-.765.712-.552.667-.917-.044-.365-.436-.382h-.011zm5.253 6.093c.877 0 1.974.45 2.505.982.465.465.526 1.08.543 1.653h-6.07c.016-.572.077-1.188.542-1.653.53-.531 1.603-.982 2.48-.982zm0-.49c-1.04 0-2.16.48-2.816 1.136-.673.673-.75 1.559-.75 2.222V18h7.13v-.258c0-.663-.05-1.55-.723-2.222-.656-.656-1.801-1.137-2.841-1.137zM73.471.44q.223 0 .434.137.545.357.573 1.182.015.433-.041.433-.052 0-.161-.356-.231-.748-.644-.846-.046-.011-.09-.011-.358 0-.644.696-.42.34-.61.34-.147 0-.16-.2-.027-.462.602-1.028.386-.348.741-.348zm.095 1.16q.023 0 .052.026.105.09.147.252.042.16.014.272-.012.047-.026.047-.02 0-.044-.089-.025-.094-.046-.094-.013 0-.024.038-.013.046-.033.046-.024 0-.058-.06-.063-.111-.063-.265.02-.172.081-.172zm.197.688q.044 0 .044.044 0 .07-.07.07t-.042-.098q.042-.016.068-.016zm-.23-.866q-.094 0-.152.155-.063.168.014.399.076.23.216.23-.042.154.021.238.033.044.081.044.044 0 .101-.037.119-.077.084-.385-.035-.307-.14-.468-.105-.16-.21-.175h-.016zm-.3.98l-.111.154q-.378.168-.497.378t.007.461l.07-.014q.098-.378.49-.77l.126-.18-.084-.029zm-1.272.294q.266.601.518 1.412.105.14.18.14.044 0 .078-.049.091-.133.175-.133.014.098.077.133.029.016.053.016.029 0 .052-.023.024-.036.04-.036.022 0 .03.064.014.112.119.112t.265.091q.058.033.114.033.098 0 .187-.103.14-.16.336-.524l.181-.196q.364.182.392.293-.056.518 0 1.05.084.685.392 1.02.195.546.321.98-1.3-.574-2.95-.938 0-.433-.378-.81-.238-.728-.546-1.497-.083-.951.364-1.035zm.685 3.902q1.609.727 2.741 1.007-.554-.058-1.333-.058-.556 0-1.226.03-.028-.644-.182-.98zm.938-5.28q.143 0 .258.224.16.315.224.664.063.35.321.497.093.052.186.052.168 0 .339-.171.301-.099.637-.099.473 0 1.013.197 1.818 1.426 3.944 1.874 1.524.447 1.23 1.342-.013.546-.922 1.637-.784.923-.923 1.734-.203.193-.432.193-.103 0-.212-.04-.321-.013-.391-.153.084-.91.937-2.448.363-.405-.336-.839-.881-.657-2.42-.88l-1.468-.057q-.391-.196-.447-.615.042-.755-.028-.937-.182-.098-.595-.168-.055-.01-.107-.01-.333 0-.508.388-.141.311-.313.311-.075 0-.155-.06.061-.284-.03-.284-.012 0-.026.005-.126.042-.28.196-.062-.1-.144-.1-.102 0-.234.155l-.251-.783q.028-.363.685-.74.037-.081-.015-.081-.065 0-.272.13-.37.23-.51.537-.084-.377 0-.503t.727-.503q.022.005.042.005.127 0 .133-.236.007-.273.223-.399.062-.036.12-.036zM73.558 0q-.33 0-.68.227-.595.385-.959 1.056-.154.392-.14.728-.965.895-.643 1.692.308.937.42 1.244l.153.602q-.35.224-.251.58.097.357.503.44l.07.532q-.308.028-.364.406-.056.377.462.629.266.503.196.881.123.247.28.247.129 0 .28-.163.055-.462.083-.937.723.196 1.496.196.825 0 1.707-.224.447-.154.251-.657-.154-1.077-.461-1.944l1.035.07q1.944.251 2.21 1.007 0 .098-.49 1.097-.49 1-.49 1.63-.028.447.588.727.545.238 1.734.573l2.028.546q.405.223.81.755.48.793.878.793.044 0 .088-.01.014-.07-.028-.392-.042-.321-.329-.594-.287-.273-.328-.734-.143-.578-.548-.578-.193 0-.445.13-1.37-.909-2.28-1.132l.643.028h.174q2.307 0 2.442.363.35.476.433.727.196.434.601.546.028-.21-.014-.546-.195-.447-.307-1.342-.062-.399-.49-.399-.246 0-.615.133-.126 0-.462-.098-1.256-.463-2-.463-.042 0-.083.002Q81.96 7.1 82.31 5.66q.028-1.021-1.468-1.44-.812-.239-1.315-.42-1.23-.42-2.867-1.525-.503-.279-1.003-.279-.402 0-.801.181.084-.713-.112-1.244-.21-.56-.741-.825Q73.786 0 73.558 0zm-1.269 16.125q-.078 0-.152.024-.287.093-.253.279.028.157.257.157.041 0 .09-.005.312-.034.549-.254-.264-.2-.491-.2zm.146-.17q.61 0 1.883.726.639.331 1.4.331.368 0 .764-.077.997-.203 2.096-.355.373-.052.723-.052.68 0 1.272.196.896.296 1.488.38.591.085 1.876.152-.828.085-1.623.085-.794 0-1.876-.178-.541-.089-1.042-.089-.5 0-.961.09-.922.177-2.097.329-.293.038-.577.038-.851 0-1.612-.342-.738-.505-1.534-.505-.352 0-.714.099-.321-.017-.288-.355.186-.457.795-.474h.027zm.452-1.725q-.365 0-.682 1.116-.265-.986-.683-.986-.063 0-.128.022-.508.322.338 1.234-.676.39-.676.98 0 .593.997.66.308-.08.602-.08.69 0 1.3.444.522.38 1.656.38.756 0 1.784-.17 1.262-.354 2.454-.354.451 0 .893.05 1.104.129 1.88.129.354 0 .639-.027 1.437-.034 1.437-.27-.389-.355-1.099-.474-1.504-.017-2.747-.524-.621-.253-1.524-.253-.902 0-2.085.253-.763.193-1.421.193-.902 0-1.605-.362-.727-.44-1.539-.727.677-.524.634-.87-.042-.347-.414-.364h-.01zM92.103 0c-.12 0-.128.377-.3.935-.194.635-.337 1.962-.788 2.22a.397.397 0 0 1-.204.052c-.134 0-.269-.05-.417-.05a.545.545 0 0 0-.169.025c-.211.068-.322.397-.545.436-.921.16-2.182.1-2.887.163-.453.04.756.93 1.965.93h.05c.252-.005.516-.017.78-.017.44 0 .877.032 1.236.18.353.146.768.567.763.981L91.441 18h1.358l-.07-13.719c-.001-.368 1.062-.618 1.2-.936.243-.553.12-2.995-.272-3.323a.021.021 0 0 0-.013-.006c-.176 0-.505 2.56-1.022 3.111-.053.056-.157.082-.247.082-.096 0-.177-.03-.161-.082.328-1.118.46-2.749-.055-3.105A.102.102 0 0 0 92.103 0zm9.287.401q.4 0 .311.387l-.921 3.76h-.773l.922-3.745q.074-.402.46-.402zm1.188 0q.372 0 .298.387l-.892 3.76h-.773l.892-3.745q.089-.402.475-.402zm1.279 0q.416 0 .312.387l-.907 3.76h-.773l.892-3.745q.104-.402.476-.402zm1.248 0q.342 0 .298.387l-.907 3.76h-.773l.907-3.745q.074-.402.475-.402zm1.249 0q.357 0 .312.387l-.921 3.76h-.773l.906-3.745q.12-.402.476-.402zm-.535 4.608q.371 0 .371.312 0 .313-.356.313h-5.916q-.372 0-.372-.313 0-.312.372-.312zm-6.957.625q-1.248 1.947-1.605 3.864-.029.64-.385.64h-.016q-.372-.015-.238-.655.624-2.616 2.244-3.85zm8.012 0q1.62 1.233 2.245 3.85.133.639-.238.653h-.017q-.355 0-.384-.639-.357-1.917-1.606-3.864zM103.797 0q-1.71 0-2.868.149-.461.06-.565.654l-.862 3.641q-.12.342-.55.565-2.423 1.71-2.899 4.727.074.944.791.944h.012q.728-.008.862-.93.713-2.749 1.308-3.626h.713V6.6h1.13v-.476h3.984V6.6h1.13v-.476h.713q.61.877 1.323 3.627.133.921.862.929h.011q.718 0 .792-.944-.476-3.017-2.899-4.727h.015q-.431-.238-.446-.386l.862-3.82q.074-.58-.49-.67Q105.358 0 103.797 0z"/><path d="M102.741 7.244a2.58 2.58 0 0 0-.233.014c-1.123.12-1.921 1.257-1.745 2.359.078.82.586 1.278 1.145 1.73 1.66 1.018 1.193.643 2.867 1.49l.269-.5c-1.992-.933-2.232-1.081-2.854-1.491-.509-.41-.911-.862-.876-1.547-.014-.473.269-.96.586-1.194.255-.19.58-.303.897-.303.24 0 .467.056.664.197.502.248.777 1.067.41 1.583a.974.974 0 0 1-.777.416.719.719 0 0 1-.424-.134c-.254-.141-.445-.636-.183-.911-.12-.127-.29-.283-.417-.283-.085 0-.148.064-.19.212-.283.678.169 1.448.847 1.632.12.035.24.056.36.056.777 0 1.498-.65 1.498-1.455.07-.939-.679-1.8-1.618-1.857a2.283 2.283 0 0 0-.226-.014zm-5.456 8.883q-.078 0-.151.024-.287.092-.253.278.028.157.256.157.042 0 .09-.005.312-.034.549-.253-.264-.201-.49-.201zm.147-.171q.61 0 1.88.727.639.33 1.4.33.367 0 .763-.077.996-.203 2.094-.355.373-.051.723-.051.68 0 1.27.195.895.295 1.487.38.59.084 1.874.152-.827.084-1.621.084t-1.875-.177q-.54-.089-1.04-.089-.501 0-.961.089-.92.177-2.095.33-.293.037-.577.037-.85 0-1.61-.342-.738-.503-1.533-.503-.351 0-.713.098-.321-.017-.288-.355.186-.456.794-.473h.028zm.451-1.723q-.365 0-.681 1.115-.265-.984-.683-.984-.062 0-.128.021-.507.321.338 1.233-.676.389-.676.98t.997.659q.308-.081.601-.081.689 0 1.299.444.522.38 1.655.38.755 0 1.782-.169 1.261-.355 2.451-.355.452 0 .893.051 1.103.128 1.88.128.352 0 .637-.027 1.436-.033 1.436-.27-.389-.355-1.098-.473-1.504-.017-2.745-.523-.62-.254-1.522-.254t-2.084.254q-.763.192-1.42.192-.9 0-1.603-.361-.727-.44-1.537-.727.675-.523.633-.87-.042-.346-.414-.363h-.01zM121.47 3.168c.313.019.455.18.426.483-.417.398-1.203.711-2.36.939a5.622 5.622 0 0 1 1.934-1.422zm-1.21-.939h-.07v.555a1.68 1.68 0 0 1 .363-.043.95.95 0 0 1 .476.114c-1.308.768-1.948 1.422-1.92 1.962.027.19.164.286.41.286.195 0 .46-.06.792-.18.754-.27 1.325-.547 1.713-.831h.526c0-1.242-.763-1.863-2.29-1.863zm-.795-.085l1.337.071.179-.003c.705 0 1.288.157 1.747.472.498.342.976.894 1.436 1.657.46.763 1.107 1.476 1.94 2.14l-4.45 2.943a3.327 3.327 0 0 1-.554-1.849c0-.663-.654-1.403-1.962-2.218-.881 0-2 .062-3.355.185-.17-.019-.256-.066-.256-.142l.853-.071a.459.459 0 0 0 .178.043.219.219 0 0 0 .135-.043c.076-.057.092-.11.05-.156-.027-.03-.07-.045-.128-.045a.55.55 0 0 0-.121.016 4.322 4.322 0 0 1-.752.066c-.267 0-.4-.065-.4-.194 0-.133.062-.246.185-.341.1.056.188.084.262.084a.232.232 0 0 0 .136-.041c.095-.067.166-.252.213-.555.389-.35.678-.573.868-.668.417-.152.72-.341.91-.569-.067.152-.062.29.014.412l-1.237.81.07.086 1.28-.782c.436 0 .645-.118.626-.355 0-.228-.128-.351-.384-.37a2.6 2.6 0 0 0 .44-.057c.153-.35.399-.526.74-.526zM115.503 0a3.76 3.76 0 0 0-1.305.253c-.565.209-1.004.313-1.32.313a.832.832 0 0 1-.351-.064 4.153 4.153 0 0 0-.611-.249.343.343 0 0 0-.102-.018c-.106 0-.148.082-.126.246.228.654.709.993 1.443 1.016.105.004.207.005.305.005.588 0 1.053-.06 1.394-.182.181-.065.392-.097.631-.097.288 0 .618.046.99.14.341.084.667.127.976.127.309 0 .602-.043.88-.128a1.43 1.43 0 0 1 .42-.069c.23 0 .433.072.608.215-.214.009-.38.065-.495.167l-.398.483c-.399.152-.621.261-.669.327a1.807 1.807 0 0 1-.611.441c-.275.057-.82.44-1.635 1.152-.417.237-.626.559-.626.967-.06.22.01.331.21.331a.675.675 0 0 0 .075-.004c0 .35.19.535.568.554-.14.39-.31 1.092.472 1.416.17-.435.355-.981.221-1.4.683-.028 1.033-.092 1.241-.158.028.862.156 1.346.384 1.45.284-.256.355-.74.213-1.45.266.01.455.052.569.128 1.043.692 1.564 1.374 1.564 2.047s.294 1.564.881 2.673l5.9-4.038c-1.08-.929-1.874-1.765-2.38-2.51-.508-.743-.937-1.288-1.288-1.634-.343-.339-1.031-.639-2.064-.9a.93.93 0 0 1 .653-.257c.13 0 .269.023.416.07.275.084.562.127.862.127.3 0 .612-.043.937-.128.354-.093.67-.14.948-.14.232 0 .437.033.616.098.337.121.803.182 1.398.182.099 0 .202-.001.308-.005.744-.023 1.225-.362 1.443-1.016.03-.164-.01-.246-.121-.246a.377.377 0 0 0-.107.018 4.973 4.973 0 0 0-.604.249.852.852 0 0 1-.355.064c-.317 0-.758-.104-1.322-.313a3.724 3.724 0 0 0-1.29-.253c-.322 0-.626.054-.914.16a2.71 2.71 0 0 1-.948.184 2.17 2.17 0 0 1-.858-.176 1.438 1.438 0 0 0-.571-.113c-.444 0-.957.175-1.54.525-.583-.35-1.097-.525-1.54-.525-.206 0-.396.038-.571.113a2.192 2.192 0 0 1-.871.176 2.95 2.95 0 0 1-.985-.183 2.82 2.82 0 0 0-.948-.161zm-2.328 12.212V18h.967v-5.788zm6.652.007V18h.967v-5.78zm6.772 0V18h.967v-5.78z"/><path d="M113.646 9l-1.962 1.963v.707l2.493-2.493.177-.177zm3 0l-4.962 4.963v.707l5.493-5.493.177-.177zm3 0l-7.962 7.963v.707l8.493-8.493.177-.177zm3 0l-8.823 8.823-.177.177h.708l8.823-8.823.177-.177zm3 0l-8.823 8.823-.177.177h.708l8.823-8.823.177-.177zm3 0l-8.823 8.823-.177.177h.708l8.703-8.704V9zm.411 2.59l-6.234 6.233-.177.177h.708l5.703-5.704v-.707zm0 3l-3.234 3.233-.177.177h.708l2.703-2.704v-.707zm0 3l-.234.233-.177.177h.411v-.41z"/></svg>