<svg xmlns="http://www.w3.org/2000/svg" width="77.333" height="18"><path d="M9.777 3.093q1.51.22 1.579 1.382v8.382q-.706-.843-2.536-1.184l.957-8.58zM9.35 2.25L8.22 12.272q2.52.289 3.136 1.8v1.678h.752V4.475q0-1.883-2.757-2.225zm15.587 1.507v1.486H13.99V3.757zM14.03 2.25v1.125h-.421v2.25H25.32v-2.25h-.341V2.25h-.382v1.125h-.944V2.25h-.382v1.125h-.944V2.25h-.382v1.125h-.924V2.25h-.402v1.125h-.924V2.25h-.381v1.125h-.944V2.25h-.382v1.125h-.944V2.25h-.382v1.125h-.924V2.25h-.382v1.125h-.944V2.25zm1.014 4.645l-1.436 1.698h.7l.736-.877.743.877.722-.877.743.877.736-.877.743.877.736-.877.743.877.722-.877.743.877.743-.877.722.877.743-.877.736.877h.7l-1.436-1.698-.743.82-.722-.82-.743.82-.743-.82-.722.82-.743-.82-.736.82-.743-.82-.736.82-.743-.82-.722.82-.743-.82zm.213 3.787l3.08.172a8.506 8.506 0 0 1-.082 1.998c-1.149-.635-2.149-1.358-2.998-2.17zm3.342-.819c-.172 0-.349.111-.53.333l-3.33-.172c-.786.203-.946.519-.481.946.09-.02.171-.03.242-.03.172 0 .285.06.336.179.073.168.269.387.587.657.319.27 1.183.828 2.592 1.673.166.418.35.626.551.626.094 0 .192-.045.294-.137 2.003.864 3.938 1.468 5.805 1.812l.263-.207-.643-.683c-1.37-.119-3.155-.652-5.353-1.599a5.686 5.686 0 0 1-.038-2.33l3.727.25c.553-.139.594-.426.123-.86l-3.669-.153c-.154-.203-.312-.305-.476-.305zm10.376-6.069q.26.152.306.611-.199.168-.306.505-.122-.337-.32-.505.045-.459.32-.611zm4.496 0q.275.152.32.611-.198.168-.32.505-.107-.337-.306-.505.046-.459.306-.611zm4.51 0q.26.168.306.626-.199.153-.306.49-.122-.337-.32-.49.045-.458.32-.626zm-8.043.81q-.29.382-.351.818-.061.436-.612.543-.566-.107-.627-.543-.06-.436-.351-.818.565 0 .703.428.122.413.275.413.138 0 .275-.413.138-.428.688-.428zm4.511 0q-.29.382-.351.818-.062.436-.627.543-.55-.107-.612-.543-.061-.436-.352-.818.55 0 .688.428.138.413.276.413.153 0 .275-.413.137-.428.703-.428zm4.496 0q-.29.397-.352.826-.061.428-.612.55-.565-.122-.627-.55-.06-.429-.351-.826.566 0 .703.443.122.398.275.398.138 0 .276-.398.137-.443.688-.443zm-7.799 2.951l.268.88q.16.527-.268.771-.428-.244-.267-.772l.267-.879zm4.526 0q.092.352.26.88.169.527-.26.771-.428-.244-.267-.772l.267-.879zm2.783 5.382q1.025 0 1.025.444 0 .443-1.01.459h-9.969q-.994 0-.994-.46 0-.443.994-.443zm-9.48-9.495q-.443 0-.611.902-.143-.04-.269-.04-.251 0-.435.162-.183.138.015.29.322.169.398.727.076.558.627.726v6.01h-.184q-1.697 0-1.697 1.162 0 1.177 1.682 1.177h9.97q1.682 0 1.697-1.177 0-1.162-1.713-1.162h-.198V6.225q.55-.184.627-.734.076-.55.382-.734.214-.153.015-.275-.18-.17-.443-.17-.115 0-.245.032-.183-.887-.612-.887-.443 0-.627.887-.13-.033-.245-.033-.262 0-.443.17-.183.123.016.276.32.183.39.734.068.55.634.734h.015v5.994h-1.773V9.466q.52-.504.351-1.032-.168-.527-.252-.871-.084-.344-.375-.344-.29 0-.382.344-.092.344-.252.871-.16.528.375 1.032v2.753l-1.667-.016V6.21q.55-.168.627-.726.076-.558.397-.726.2-.153.016-.29-.184-.164-.435-.164-.126 0-.269.041-.168-.902-.611-.902-.429 0-.612.902-.143-.04-.268-.04-.252 0-.435.162-.184.138.03.29.306.169.382.727.077.558.627.726v5.994l-1.773.016V9.466q.52-.504.359-1.032-.16-.527-.252-.871t-.383-.344q-.275 0-.374.344-.1.344-.26.871-.16.528.374 1.032v2.753h-1.65v-6.01q.565-.168.641-.726.077-.558.383-.726.214-.153.03-.29-.183-.164-.435-.164-.125 0-.268.041-.184-.902-.612-.902zm14.849.352q.26.152.306.611-.199.168-.306.505-.122-.337-.321-.505.046-.459.32-.611zm4.495 0q.276.152.322.611-.2.168-.322.505-.107-.337-.305-.505.045-.459.305-.611zm4.511 0q.26.168.306.626-.199.153-.306.49-.122-.337-.32-.49.045-.458.32-.626zm-8.043.81q-.29.382-.351.818-.062.436-.612.543-.566-.107-.627-.543-.061-.436-.352-.818.566 0 .704.428.122.413.275.413.138 0 .275-.413.138-.428.688-.428zm4.511 0q-.29.382-.352.818-.06.436-.627.543-.55-.107-.611-.543-.061-.436-.352-.818.55 0 .688.428.138.413.275.413.153 0 .276-.413.137-.428.703-.428zm4.495 0q-.29.397-.351.826-.061.428-.612.55-.566-.122-.627-.55-.06-.429-.351-.826.565 0 .703.443.122.398.275.398.138 0 .275-.398.138-.443.688-.443zm-7.798 2.951l.268.88q.16.527-.268.771-.428-.244-.267-.772l.267-.879zm4.526 0q.092.352.26.88.168.527-.26.771-.428-.244-.267-.772l.267-.879zm2.783 5.382q1.025 0 1.025.444 0 .443-1.01.459h-9.97q-.993 0-.993-.46 0-.443.994-.443zm-9.48-9.495q-.443 0-.612.902-.142-.04-.268-.04-.252 0-.435.162-.184.138.015.29.321.169.398.727.076.558.627.726v6.01h-.184q-1.697 0-1.697 1.162 0 1.177 1.682 1.177h9.97q1.681 0 1.697-1.177 0-1.162-1.713-1.162h-.199V6.225q.55-.184.627-.734.077-.55.383-.734.214-.153.015-.275-.181-.17-.443-.17-.115 0-.245.032-.184-.887-.612-.887-.443 0-.627.887-.13-.033-.245-.033-.262 0-.443.17-.183.123.015.276.322.183.39.734.07.55.635.734h.015v5.994h-1.773V9.466q.52-.504.351-1.032-.168-.527-.252-.871-.084-.344-.375-.344-.29 0-.382.344-.092.344-.252.871-.16.528.374 1.032v2.753l-1.666-.016V6.21q.55-.168.627-.726.076-.558.397-.726.199-.153.015-.29-.183-.164-.435-.164-.125 0-.268.041-.168-.902-.612-.902-.428 0-.611.902-.143-.04-.269-.04-.251 0-.435.162-.183.138.031.29.306.169.382.727.077.558.627.726v5.994l-1.774.016V9.466q.52-.504.36-1.032-.16-.527-.253-.871-.091-.344-.382-.344-.275 0-.374.344-.1.344-.26.871-.16.528.374 1.032v2.753h-1.651v-6.01q.566-.168.642-.726.077-.558.382-.726.214-.153.03-.29-.183-.164-.434-.164-.126 0-.268.041-.184-.902-.612-.902zM58.058 2.25l-1.541 1.822h.751l.79-.941.797.941.775-.941.797.941.79-.941.797.941.79-.941.797.941.775-.941.797.941.797-.941.775.941.797-.941.79.941h.751L67.542 2.25l-.797.88-.775-.88-.797.88-.797-.88-.775.88-.797-.88-.79.88-.797-.88-.79.88-.797-.88-.775.88-.797-.88zm6.605 7.649q.17 0 .353.077.41.174.41 2.759v2.473h-4.64q1.792-2.46 2.459-3.717.667-1.258 1.014-1.473.192-.12.404-.12zm-.197-.528h-.075q-.66.015-1.487 1.613-.827 1.598-3.272 4.766h6.336l-.014-3.557q-.07-2.377-.486-2.606-.393-.216-1.002-.216z"/><path d="M8.22.375c-9.625 0-9.625 17.25 0 17.25m0-17.25h60.863M8.22 17.625h60.863M76.77.375v17.25M69.083.375c9.625 0 9.625 17.25 0 17.25" fill="none" stroke="#000"/></svg>