<svg xmlns="http://www.w3.org/2000/svg" width="169.943" height="18"><path d="M6.174.386c.221 0 .566.052.757.104.832.223-.005.968-.54.968a.513.513 0 0 1-.073-.005c-.353.074.06.199.502.199.272 0 .555-.047.681-.18.072-.077.131-.108.182-.108.185 0 .258.417.406.623.74.245 1.203.913 1.682 1.486 1.377 1.65 2.617 3.405 3.917 5.115-.357-.105-.743-.31-1.097-.48-1.62-.783-3.347-1.401-4.814-2.455-.732-.525-1.712-1.134-1.793-2.056-.061-.702 1.227-1.337 1.134-1.717-.011-.044-.043-.064-.09-.064-.274 0-1.077.688-1.288 1.09-.081.155-.14.217-.182.217-.146 0-.077-.757.014-.93.31-.589-.628-1.325-.1-1.664-.016.088.002.337.312.337.325 0 .305-.4.205-.453a.435.435 0 0 1 .185-.027zm.616 5.477c.254.9.626 1.766 1.065 2.59.217.405 1.13 1.049.485 1.377a.194.194 0 0 1-.052.007c-.257 0-.519-.495-.855-.517a12.843 12.843 0 0 0-.265-1.873c-.103-.505-.36-1.176-.378-1.584zm.705.597c.795.576 1.63 1.093 2.472 1.6.222.497.034 1.222.149 1.805-.538-.363-1.112-.378-1.457-1.066-.385-.766-1.019-1.494-1.164-2.34zm.226 3.6c.134.235.335.383.538.383.16 0 .32-.091.45-.304.186.205.23.926.23 1.325.002.411-.214.446-.465.446l-.155-.002a.93.93 0 0 0-.278.032.453.453 0 0 1-.138.02c-.197 0-.423-.095-.636-.095-.02 0-.04 0-.06.002.001-.52.36-1.225.514-1.808zm1.603-2.968c1.69.766 3.36 1.59 5.054 2.351.648.679 1.239 1.448 1.96 2.049.538.45-.155.358-.474.418-.244.046-.492.08-.738.116-.87-.87-1.745-1.738-2.58-2.641-.909-.982-2.145-1.538-3.222-2.293zm-.512 5.693c1.105 0 2.211.013 3.316.042.556.014 1.197-.023 1.695.164-.658.042-2.304.058-4.042.058a201.337 201.337 0 0 1-5.037-.05c-.51 0-.097-.173.188-.173a.55.55 0 0 1 .076.005c1.267-.03 2.535-.046 3.804-.046zm-4.862.743c.75.01 1.5.02 2.25.045.495.017.989.023 1.483.023 1.398 0 2.796-.05 4.192-.05.188 0 .375.001.562.003-1.161.634-2.421 1.17-3.766 1.214-.152.005-.3.008-.445.008-.76 0-1.443-.08-2.196-.351-.656-.236-1.506-.523-2.08-.892zm6.649 1.558a.144.144 0 0 0-.078.02c-.256.16.368 1.331.895 1.613.04.021.078.03.115.03.192 0 .33-.259.247-.445-.214-.48-.87-1.218-1.18-1.218zm-4.848.055c-.042 0-.105.026-.194.086-.432.29-1.443 1.067-.823 1.496a.22.22 0 0 0 .129.042c.224 0 .442-.354.556-.556.12-.21.574-1.068.332-1.068zm4.06.177c-.274 0 .026 1.476.502 1.79.031.022.07.031.109.031.106 0 .222-.069.242-.173.123-.637-.473-1.61-.846-1.647a.08.08 0 0 0-.008 0zm-3.278.017c-.05 0-.13.062-.244.216-.302.408-1.043 1.256-.436 1.571.04.021.078.03.114.03.254 0 .4-.478.49-.72.081-.222.268-1.097.076-1.097zm2.271.162c-.023 0-.043.012-.06.037-.245.368-.164 1.491.42 1.817a.196.196 0 0 0 .097.026c.172 0 .306-.25.276-.423-.07-.41-.517-1.457-.733-1.457zm-1.329-.011a.1.1 0 0 0-.058.023c-.391.291-1.017 1.466-.379 1.845.035.02.068.03.101.03.191 0 .35-.31.375-.504.04-.334.162-1.394-.039-1.394zm.655-.018a.08.08 0 0 0-.038.01c-.324.174-.62 1.573-.014 1.945a.175.175 0 0 0 .092.028c.164 0 .306-.252.306-.421-.002-.46-.123-1.562-.346-1.562zM6.352 0c-.205 0-.408.02-.598.054-.567.104-1.44.31-1.43.996a.711.711 0 0 1 .192-.028c.55 0 .663.789.553 1.27-.225.98.26 1.965.898 2.707.425 1.269.96 2.595.954 3.928-.003.556.408.592.256 1.158-.136.51-.373 1.566-.883 1.69a2.18 2.18 0 0 1-.182.007c-.323 0-.663-.056-.984-.056-.254 0-.497.036-.71.162-.444.264-.778.46-1.31.46l-.071-.001-.078-.002c-.895 0-1.953.472-2.118 1.411-.244 1.391-.044 2.827-.036 4.233.205.005.412.011.618.011.163 0 .325-.004.487-.016-.076-.844-.133-1.694-.079-2.539.039-.601-.113-1.44.465-1.781a.738.738 0 0 1 .383-.107c.506 0 1.005.499 1.472.712 1.306.596 2.697 1.036 4.147 1.036h.1c1.756-.025 3.375-.751 4.878-1.576a.616.616 0 0 1 .41-.148c.28 0 .562.17.622.463.262 1.292.154 2.632.067 3.94.157.012.315.015.473.015.156 0 .313-.003.47-.003.052 0 .105 0 .158.002.008-.911.089-1.823.047-2.733-.033-.721.107-1.55-.417-2.143-.68-.771-1.763-.76-2.704-.825a1.712 1.712 0 0 0-.117-.004c-.125 0-.257.01-.386.01a.973.973 0 0 1-.439-.08c-.294-.302-.66-.36-1.04-.36-.228 0-.462.021-.689.021a2.75 2.75 0 0 1-.22-.008c-.043-.588-.075-1.177-.107-1.766a.155.155 0 0 1 .111-.045c.294 0 .78.686 1.034.686.076 0 .13-.06.154-.217.094-.642-.155-1.343-.146-2.018h.016c.285 0 .766.368 1.053.617.898.779 1.67 1.717 2.513 2.566.334.38.681.803 1.163.803.13 0 .269-.031.42-.101.48-.223 1.5.065 1.609-.544-.462-.54-.994-1.018-1.47-1.547.58.274 1.144.678 1.747.941a.77.77 0 0 0 .24.078c.18 0-.489-.521-.668-.602-.665-.3.624-.188.098-.605-1.155-.915-2.466-1.648-3.699-2.473-.79-.998-1.506-2.067-2.3-3.068-.66-.774-1.221-1.636-1.941-2.356C8.895 1.783 8.245 1.66 8.2.937 7.858.252 7.09 0 6.352 0zm16.831.46q-.11 1.162-.11 2.603 0 1.442.14 2.914-.32-.17-1.001-.17-.69 0-1.001.17.15-1.472.14-2.914-.01-1.441-.11-2.602zm-.971 5.967q.68.01 1.381.36l-.18.33q-.141-.024-.265-.024-.426 0-.636.295-.12-.53-.3-.65-.18.12-.31.65-.21-.295-.636-.295-.124 0-.265.025l-.18-.33q.72-.35 1.39-.36zm0 .961q.15.12.1.35-.05.23-.1.441-.06-.21-.11-.44t.11-.35zm.912.002q.056 0 .119.008-.68 1.622-1.031 1.622-.34 0-1.051-1.622.064-.008.122-.008.365 0 .468.329.13.37.27.6.15.24.19.24.051 0 .181-.24.14-.23.26-.6.113-.329.472-.329zM20.65 0q.48 3.404-.01 6.137-.89.42-.74.71.11.22.251.22.052 0 .109-.03.87.982 1.431 2.313.22 2.193-.06 7.579 0 1.071.56 1.071h.031q.56 0 .56-1.071-.27-5.386-.06-7.579.551-1.331 1.422-2.312.056.03.109.03.142 0 .251-.22.15-.29-.73-.711-.5-2.733 0-6.137zm9.475.366c.16.109.148.168.131.234-.021.084-.279.14-.396.14-.033 0-.054-.004-.057-.013 0-.076.126-.274.322-.361zM28.803 2.1c-.164 0-.245.087-.245.262 0 .218.098.327.294.327h.016c.23 0 .42-.088.572-.262V2.33c0-.076-.637-.229-.637-.229zM30.919.78c.238.194-.197.74-.455 1.299l-.09.192c.45-.286.685-.841.685-.841.109.173-.246.644-.137.784.12.425.608.939-.49 1.983-.143.087-1.776.96-1.907.96-.098 0-.169-.076-.409-.294l.49-.393v-.114l-.016-.016h-.098c-.163 0-.37.103-.62.31a4.562 4.562 0 0 1-.447-.533c.203-.16.285-.27.273-.42.03-.185-.094-.214-.189-.214-.044 0-.082.007-.096.007v.13c-.032.066-.103.12-.212.164-.044 0-.065-.147-.065-.147 0-.077.174-.316.523-.72.959-1.177 1.699-1.776 2.331-1.776l.143.01c-.241.153-.13.41-.13.41.254-.223.666-.685.916-.781zm.665.794h.004c1.656 1.59 1.908 2.672 1.917 6.299l-2.804.044L30.661 5c0-.196.044-.432.218-.53 1.176-.908.58-2.286.503-2.44-.03-.349.107-.456.202-.456zM30.172 0c-.098 0-.315 0-.535.239-.195.211-.258.612-.636.748-.377.258-.628.527-.867.774-.96 1.046-1.28 1.41-1.291 1.618-.765.624.06.993.311 1.137.817.948.678.88 1.028 1.036.127.033.2.062.264.062.07 0 .13-.033.238-.129.12 0 1.405-.62 1.405-.62.142 0 .201.467.201 1.535-.013.734-.09 1.947-.004 1.947a.01.01 0 0 0 .004-.002l.033.05h3.71l.017-.017-.049-1.079c-.076-1.351.472-4.744-2.669-6.495.037-.219-.139-.458-.361-.458-.112 0-.235.06-.348.213-.02-.264-.133-.538-.451-.559zm-.047 9.971c.16.11.148.169.131.234-.021.084-.279.141-.396.141-.033 0-.054-.004-.057-.014 0-.076.126-.274.322-.36zm-1.322 1.736c-.164 0-.245.087-.245.261 0 .218.098.327.294.327h.016c.23 0 .42-.087.572-.262v-.098c0-.076-.637-.228-.637-.228zm2.116-1.32c.238.193-.197.74-.455 1.298l-.09.192c.45-.285.685-.84.685-.84.109.173-.246.644-.137.784.12.425.608.938-.49 1.982-.143.088-1.776.96-1.907.96-.098 0-.169-.076-.409-.294l.49-.392v-.115l-.016-.016h-.098c-.163 0-.37.104-.62.31a4.562 4.562 0 0 1-.447-.532c.203-.16.285-.271.273-.42.03-.185-.094-.214-.189-.214-.044 0-.082.006-.096.006v.13c-.032.066-.103.12-.212.164-.044 0-.065-.147-.065-.147 0-.076.174-.316.523-.72.959-1.176 1.699-1.776 2.331-1.776l.143.011c-.241.153-.13.41-.13.41.254-.224.666-.686.916-.782zm.665.793h.004c1.656 1.59 1.908 2.672 1.917 6.3l-2.804.044-.04-2.917c0-.197.044-.432.218-.53 1.176-.909.58-2.287.503-2.44-.03-.35.107-.457.202-.457zm-1.412-1.575c-.098 0-.315 0-.535.24-.195.21-.258.611-.636.748-.377.258-.628.526-.867.773-.96 1.046-1.28 1.411-1.291 1.619-.765.623.06.992.311 1.136.817.948.678.881 1.028 1.036.127.034.2.062.264.062.07 0 .13-.033.238-.128.12 0 1.405-.621 1.405-.621.142 0 .201.468.201 1.536-.013.734-.09 1.946-.004 1.946a.01.01 0 0 0 .004-.001l.033.049h3.71l.017-.016-.049-1.08c-.076-1.35.472-4.743-2.669-6.494.037-.22-.139-.459-.361-.459-.112 0-.235.06-.348.213-.02-.263-.133-.538-.451-.559zM37.68.452q.604 0 .604.795 0 .699-.603 1.384-.603-.685-.603-1.384 0-.795.603-.795zm0 3.056q.425 0 .425.918 0 .52-.424.959-.425-.439-.425-.96 0-.917.425-.917zm0 2.767q.425 0 .425.918 0 .52-.424.96-.425-.44-.425-.96 0-.918.425-.918zm0-6.275q-1.095 0-1.095 1.247-.014.78.363 1.226.376.445.335.596-.48.562-.48 1.357 0 .657.563 1.41-.562.563-.562 1.357 0 .658.562 1.398.068.178-.384.835-.452.658-.932 2.275h.603q.301-1.069.534-1.528.233-.459.494-.747.274.288.5.747.226.46.527 1.528h.617q-.452-1.617-.925-2.275-.473-.657-.39-.835.548-.74.548-1.398 0-.794-.521-1.356.52-.754.52-1.411 0-.795-.465-1.357-.041-.15.329-.596.37-.445.37-1.226Q38.79 0 37.68 0zm7.555 1.165l-.098.026q-.07-.013-.129-.013t-.108.013q-.1.033-.119.073-.02.04-.066.072l.033.04.053-.027q.041.02.088.02.117 0 .267-.118l.099-.013-.02-.073zm.481-.942q.356 0 .5.363.158.408.006.698-.126.231-.286.231-.04 0-.082-.014-.112-.04-.066-.112.092-.086.026-.224.066-.21.013-.31-.052-.144-.162-.144-.04 0-.088.02-.085.052-.111.112-.221-.05-.397-.05-.218 0-.367.076.033-.263.25-.421.217-.152.658-.217.055-.008.106-.008zm-3.343 3.318q.816.513 1.388.697l.283.073q-.283.112-1.336.46-.112-.098-.302-.111l-.185-1.027q.086-.026.152-.092zM45.654.83q.056 0 .075.07.04.113-.013.277.04.125-.033.132l-.023.002q-.058 0-.07-.061-.032.072.205.368.23.303.684.744.454.447.5 2.494l-.915.46Q45.88 4.1 45.21 3.232q-.165-.184-.086-.348.086-.158.566-.415.237-.099.066-.237-.164-.138-.21-.296-.112 0-.237.099-.207.103-.292.103-.018 0-.03-.004-.073-.027-.086-.126l.098-.098q.046-.04 0-.073l-.197.046q.033-.17-.086-.184-.041.027-.068.027-.033 0-.044-.04-.026-.086.047-.25.039-.158.125-.244.079-.072.202-.072h.021l.092.002q.09 0 .178-.009l-.013-.072q-.05.007-.107.007-.058 0-.123-.007-.03-.003-.06-.003-.192 0-.29.154-.012-.098 0-.138.167-.116.4-.116.163 0 .358.057v.086q.03.006.054.006.025 0 .044-.006 0-.211.073-.237.028-.012.05-.012zm1.476 4.322q.382.671.376 1.191-.007.52-.106 1.672l-1.671-.013.381-2.402 1.02-.448zM45.773 0h-.024q-.455.014-.836.237-.421.224-.408.875.033.178-.02.35-.046.164-.033.335.028.07.09.07.025 0 .055-.01.03-.014.049-.014.045 0 .017.079-.027.013-.013.046.008.018.029.018.01 0 .023-.005-.037.093.019.093h.008l.01-.001q.05 0 .055.06.007.072.08.15.028.03.086.03.09 0 .249-.069l.237-.125q.02.06.085.139-.559.17-.816.631-.375.454-.612.941-.566-.164-1.671-.631-.099-.139-.323-.178l-.283-1.52q-.085-.474.224-.843l-.21-.15q-.408.348-.277 1.065l.25 1.448-.224.013q-.026.112.112.165-.026.434.224.454l.184 1.007q-.144.026-.283.046-.013.125.158.164-.057.422.233.422h.017l.027.256.296-.06-.06-.27q.073-.039.145-.065 1.415-.171 1.75-.507.455-.704.666-1.092.46.375.756 1.823h-.035q-.312 0-.28.224.025.185.176.185.042 0 .093-.014l-.447 2.704q-.395 1.757-.573 2.179-.098.335-.329.401-.237.06-.757.355-.29.06-.322.158-.026.099.138.119.034.004.075.004.15 0 .392-.057.124-.026.271-.026.22 0 .493.059.062.013.115.013.336 0 .273-.507-.026-.368.428-1.046t.5-1.606l.21-.21.672-.013.013.322q.184 1.264.197 1.665.086.652-.158.75-.25.092-.75.389-.296.046-.335.144-.033.099.138.125.04.007.091.007.15 0 .383-.06.121-.028.28-.028.243 0 .575.068.077.016.137.016.37 0 .087-.595.02-.619.138-1.283.118-.665-.138-1.343l.131-.177.08-1.817q.02-.783-.547-1.75-.026-.355-.085-1.25-.053-.902-.487-1.303-.435-.408-.48-.494.243-.171.322-.447.085-.283-.106-.77Q46.214 0 45.773 0zm.453 13.775c.605.026.937.039 1.08.039h.066l-.078 3.164a4.667 4.667 0 0 1-1.205-.716l.137-2.487zm-8.828-.788c-.202.04-.469.163-.436.404v1.764c-.391-.02-.795-.04-.912-.04 0 .222.182.522.749.522.006.501.098 1.113.189 1.426l.078.82c0 .091.156.117.325.117.202 0 .424-.04.424-.04l-.033-.82c3.216.027 9.349.19 9.655.19.156 0 .26-.17.26-.404l.078-3.535-1.933-.02-.156 2.754c-1.4.007-3.822.234-5.47.234-.52 0-.97-.02-1.275-.084-.065-.072-.67-.95-1.055-1.048a1.689 1.689 0 0 0-.228-.026c-.065-.534-.13-1.068-.189-1.596.118-.15.385-.11.456-.312.072-.098.026-.26-.11-.267-.079-.032-.293-.039-.385-.039zM57.323.259v.943h-.278V.26zm1.646 0v.943h-.277V.26zm.833 0v.943h-.296V.26zm-1.665.018v.944h-.278V.277zm-1.72.389q-1.776 1.24-3.071 1.24-1.277 0-2.239-1.24zm9.23 0q-.955 1.249-2.329 1.249h-.02q-1.387-.01-2.849-1.249zM49.775 0q1.332 2.608 3.645 2.608 1.702 0 3.089-1.073h3.755q1.203 1.073 3.108 1.073 2.275 0 3.7-2.608zm0 4.26v6.044h1.012V4.26zm3.257 0v6.044h1.012V4.26zm3.258 0v6.044h1.01V4.26zm3.256 0v6.044h1.012V4.26zm3.257 0v6.044h1.012V4.26zm3.257 0v6.044h1.012V4.26zM53.38 14.839c.888 0 1.998.455 2.535.993.47.47.531 1.093.548 1.672h-6.139c.017-.58.079-1.202.549-1.672.537-.538 1.62-.993 2.508-.993zm0-.497c-1.051 0-2.184.487-2.847 1.15-.68.68-.758 1.576-.758 2.247V18h7.21v-.261c0-.67-.05-1.567-.73-2.247-.664-.663-1.822-1.15-2.874-1.15zm5.956-2.386V18h1.012v-6.044zm3.362 0V18h1.012v-6.044zm3.362 0V18h1.012v-6.044zm5.687-9.004q-.541 0-.541.41 0 .345.541.345.525 0 .525-.345 0-.41-.525-.41zm.41-.23q1.248 0 1.872.804.312.509.607 1.56-.016.246-.41.328-.394.082-.772.082-1.74-.64-2.692-2.216.066-.558 1.396-.558zm2.971 2.462q.312.23 1.322.837T79.6 8.54q2.142 1.912 3.242 2.248 1.1.337 2.585.402 1.485.066 2.24.345 0 .23-.476.361-4.12-.476-6.048-.886-1.929-.41-2.848-.698-.919-.287-2.347-1.091-1.428-.805-2.281-1.56-.854-.755-1.116-1.181-.263-.427.648-.452.91-.024 1.477-.262.566-.238.451-.583zm12.59 6.434l.131.131q0 .132-.164.18l-.312-.016q.345-.147.345-.295zm.213.197l.131.164-.246-.016q.099-.082.115-.148zm-17.35-8.453q1.117 1.592 2.61 2.232-.19-.01-.357-.01-1.204 0-1.218.519 0 .82 2.798 2.823 2.799 2.003 6.59 2.593 1.642.214 1.839.64.033.312-1.56.395h-2.642q-.263-.575-.968-1.05l.147.41q-2.626-1.51-4.604-3.34-1.978-1.83-1.994-3.177 0-.64-.64-1.608 0-.148-.886-.28v-.032l.886-.115zm12.87 8.65l4.546.804q-.476.197-.665.706-.189.509.041 1.231l-4.71-1.855q.065-.016.311-.14.246-.122.435-.336.189-.213.041-.41zm-7.14-.312q1.772 1.182 1.74 1.543-.264.853-1.281 2.167-.542 0-1.026-.115-.26-.062-.543-.062-.242 0-.5.045 1.691-2.396 1.691-2.495 0-.64-.098-1.083zm-4.17-9.503q-.87 0-1.305.238-.435.238-.468.631-1.296.181-1.296.263v.328q.033.082 1.083.394.558.739.558 1.346 0 1.15.837 2.265.837 1.116 3.595 3.66.246 0 .509 1.461l-1.543 2.364q-.197.131-.525.148-.542-.18-1.724-.18-.375.114-.665.114-.206 0-.369-.057-.319-.113-.853-.113-.125 0-.263.006-.558.262-.099.722l8.207.016-.262-.393q.508-.838 1.313-2.298h2.954l6.402 2.478.065-.23q-.69-.69-.574-1.559.246-.706 1.296-.936v-.23l-2.626-.475v-.017l2.462.164q0-.065-.418-.837-.419-.771-1.765-.771-2.2-.066-3.241-.214-1.043-.147-3.98-2.84-2.939-2.691-4.203-2.986-.607-2.462-3.102-2.462zM93.191 0l-2.177 2.573h1.062l1.115-1.33 1.126 1.33 1.094-1.33 1.125 1.33 1.116-1.33 1.125 1.33 1.116-1.33 1.125 1.33 1.094-1.33 1.126 1.33 1.126-1.33 1.094 1.33 1.125-1.33 1.116 1.33h1.061L106.583 0l-1.125 1.244L104.364 0l-1.126 1.244L102.112 0l-1.094 1.244L99.893 0l-1.116 1.244L97.652 0l-1.116 1.244L95.411 0l-1.094 1.244L93.19 0zM91.68 4.395l-.016.003-.65.143c.093.77.392 1.516.889 2.114.445.542 1.068.973 1.773 1.072.24.022.483.03.725.03.25 0 .5-.008.75-.019.917-.048 1.834-.295 2.61-.798a5.17 5.17 0 0 0 1.207-1.101c.036-.033.08-.041.127-.041.042 0 .086.006.128.006a.274.274 0 0 0 .052-.004c1.208-.012 2.416-.034 3.624-.034.686 0 1.371.007 2.057.028a.133.133 0 0 1 .028-.004c.062 0-.074.104-.094.14-.498.564-.985 1.138-1.5 1.687l1.044.59c.567-.56.997-1.271 1.691-1.69.655-.335 1.41-.297 2.124-.36l.511-.044V4.706c-3.025.008-6.051.007-9.076.058-.114.003-.227.005-.34.005-1.42 0-2.83-.23-4.247-.298a11.08 11.08 0 0 0-.41-.008c-.304 0-.607.014-.907.052-.3.073-.422.387-.566.625a6.44 6.44 0 0 1-.223.364c.027.014.054.02.08.02.109 0 .204-.108.306-.146.242-.138.507-.278.791-.278.039 0 .077.002.117.008 1.126.019 2.242.18 3.362.286-.23.501-.75.776-1.243.962a7.976 7.976 0 0 1-2.763.518c-.511-.039-.92-.413-1.21-.808-.37-.494-.568-1.088-.752-1.671zM95 10.58a3.43 3.43 0 0 1 2.68 1.284h-5.358A3.425 3.425 0 0 1 95 10.581zm3.042 1.837c.206.394.339.833.379 1.298h-6.84c.04-.465.172-.904.379-1.298zm.382 1.851a3.4 3.4 0 0 1-.36 1.298h-6.127a3.415 3.415 0 0 1-.36-1.298zm-.71 1.851A3.426 3.426 0 0 1 95 17.447a3.426 3.426 0 0 1-2.712-1.328zM95 10.028a3.992 3.992 0 0 0-3.986 3.986A3.991 3.991 0 0 0 95 18a3.992 3.992 0 0 0 3.987-3.986A3.992 3.992 0 0 0 95 10.028zm9.784 4.486c.978 0 2.202.502 2.795 1.095.518.518.586 1.205.605 1.844h-6.77c.018-.639.086-1.326.604-1.844.593-.593 1.788-1.095 2.766-1.095zm0-.548c-1.16 0-2.409.536-3.14 1.268-.75.75-.836 1.739-.836 2.478V18h7.952v-.288c0-.74-.056-1.727-.807-2.478-.731-.732-2.009-1.268-3.169-1.268zM116.548 0v7.13h1.194V0zm3.142 0v7.13h1.193V0zm3.142 0v7.13h1.193V0z"/><path d="M126.805 4.917c.917.04 1.42.06 1.637.06h.099l-.118 4.792c-.79-.325-1.273-.65-1.825-1.084l.207-3.768zm-13.373-1.193c-.306.06-.71.246-.66.611v2.673c-.592-.03-1.204-.06-1.381-.06 0 .336.276.79 1.134.79.01.76.148 1.686.286 2.16l.118 1.242c0 .138.237.178.493.178.306 0 .641-.06.641-.06l-.05-1.242c4.873.04 14.163.286 14.627.286.236 0 .394-.256.394-.611l.118-5.356-2.929-.03-.236 4.173c-2.12.01-5.79.355-8.285.355-.789 0-1.47-.03-1.933-.129-.098-.108-1.015-1.44-1.597-1.587-.04-.01-.178-.03-.345-.04-.1-.809-.198-1.617-.286-2.416.177-.227.581-.168.69-.474.108-.147.04-.394-.168-.404-.118-.05-.444-.06-.582-.06zm1.975 9.542q-1.898.044-3.142 1.374-1.374 1.506-1.505 3.011 0 .349.393.349h18.237q.393 0 .393-.414 0-.415-.393-.415h-17.648q1.09-2.792 3.272-3.098h14.376q.393 0 .393-.414 0-.393-.393-.393zM148.616.858c.164 0 .246.592.246.756 0 .163-.082.756-.246.756h-15.69c-.19 0-.285-.593-.285-.756 0-.164.095-.756.286-.756zM132.436 0c-.435 0-.653.878-.653 1.614 0 .735.218 1.614.654 1.614h16.67c.408 0 .613-.879.613-1.614 0-.736-.205-1.614-.613-1.614zm16.18 6.82c.164 0 .246.592.246.755 0 .164-.082.756-.246.756h-15.69c-.19 0-.285-.592-.285-.756 0-.163.095-.756.286-.756zm-16.18-.859c-.435 0-.653.879-.653 1.614 0 .736.218 1.614.654 1.614h16.67c.408 0 .613-.878.613-1.614 0-.735-.205-1.614-.613-1.614zm15.222 6.679q.77 0 .77.633 0 .565-.787.565l-13.933-.018q-.753 0-.753-.58 0-.6.77-.6zm-14.204-.717q-1.217 0-1.217 1.316 0 1.317 1.248 1.317h14.532q1.146 0 1.146-1.248 0-1.385-1.118-1.385h-14.591zm7.28 3.163q-.256 0-.427.162-.171.162-.171.385 0 .222.17.376.172.154.428.154.257 0 .436-.154.18-.154.18-.376 0-.223-.18-.385t-.436-.162zm-1.949.017q-.256 0-.427.154-.171.153-.171.376 0 .222.17.384.172.163.428.163.257 0 .428-.163.17-.162.17-.384 0-.223-.17-.376-.171-.154-.428-.154zm3.915 0q-.256 0-.427.154-.171.153-.171.376 0 .222.17.384.172.163.428.163.257 0 .436-.163.18-.162.18-.384 0-.223-.18-.376-.18-.154-.436-.154zm-6.493.497q.23 0 .27.101.034.171-.513.462-2.88 1.128-3.006 1.128h-.003q-.024.01-.042.01-.043 0-.043-.061l-.342-.804q-.068-.085.034-.12.069-.034 3.231-.666.254-.05.414-.05zm9.08.01q.163 0 .422.057 3.18.632 3.231.667.103.034.035.12l-.325.803q-.013.06-.06.06-.018 0-.043-.009h-.003q-.109 0-3.006-1.128-.53-.29-.513-.462.04-.109.263-.109zm-8.828-.523q-.148 0-.324.033-1.3.222-4.223.803-.205.086-.085.36l.547 1.47q.091.243.29.243.025 0 .052-.004 2.718-1.06 3.898-1.573.77-.308.564-.889-.175-.443-.719-.443zm8.61.006q-.566 0-.745.454-.205.581.565.89 1.18.512 3.897 1.555.038.008.073.008.183 0 .27-.23l.546-1.47q.12-.291-.085-.36-2.906-.58-4.223-.82-.16-.027-.297-.027zM168.324.841q-2.61 3.547-7.509 3.643-4.867-.096-7.477-3.643zM151.72 0q2.673 5.347 9.095 5.368 6.455-.021 9.128-5.368zm0 10.67V18h1.225v-7.33zm8.423.01V18h1.225v-7.32zm8.575 0V18h1.225v-7.32z"/></svg>