<svg xmlns="http://www.w3.org/2000/svg" width="37.558" height="18"><path d="M11.386 8.203c-.51.04-.793.296-.847.767.067.51.35.78.847.806.498-.026.76-.295.787-.806-.04-.47-.303-.726-.787-.767zm.06-1.694c.364 0 .7.068 1.01.202a2.659 2.659 0 0 1 1.371 1.361c.134.303.201.622.201.958 0 .35-.067.676-.202.978a2.567 2.567 0 0 1-2.38 1.523c-.362 0-.702-.064-1.018-.192a2.426 2.426 0 0 1-.816-.534 2.621 2.621 0 0 1-.545-.797 2.38 2.38 0 0 1-.202-.978c0-.336.068-.655.202-.958.134-.302.316-.571.545-.806.228-.236.5-.42.816-.555a2.574 2.574 0 0 1 1.019-.202zm-.04-.685c-.443 0-.86.084-1.25.252-.39.168-.726.396-1.008.685a3.36 3.36 0 0 0-.676 1.009 3.053 3.053 0 0 0-.252 1.24c0 .444.084.857.252 1.24.168.384.393.716.676.999a3.2 3.2 0 0 0 2.258.927c.444 0 .857-.084 1.24-.252a3.36 3.36 0 0 0 1.009-.675c.289-.283.518-.615.686-.999.168-.383.252-.796.252-1.24 0-.444-.084-.857-.252-1.24a3.268 3.268 0 0 0-1.694-1.694 3.053 3.053 0 0 0-1.24-.252zm7.165-3.229q-.082.871-.082 1.953 0 1.08.105 2.184-.24-.127-.75-.127-.519 0-.752.127.113-1.103.105-2.184-.007-1.082-.082-1.953zm-.728 4.475q.51.008 1.036.27l-.135.248q-.106-.018-.199-.018-.32 0-.477.221-.09-.398-.225-.488-.135.09-.233.488-.157-.221-.477-.221-.092 0-.198.018l-.136-.247q.541-.263 1.044-.27zm0 .721q.113.09.075.263-.037.173-.075.33-.045-.157-.082-.33-.038-.173.082-.263zm.684.001q.042 0 .09.007-.511 1.216-.774 1.216-.255 0-.788-1.216.048-.007.091-.007.274 0 .352.247.097.278.202.45.113.18.143.18.038 0 .135-.18.105-.172.195-.45.085-.247.354-.247zM16.672 2.25q.36 2.553-.008 4.603-.668.315-.555.533.082.164.189.164.039 0 .081-.022.653.736 1.074 1.735.165 1.644-.045 5.684 0 .803.42.803h.023q.42 0 .42-.803-.203-4.04-.045-5.684.413-.999 1.066-1.735.043.022.082.022.106 0 .189-.164.112-.218-.549-.533-.375-2.05 0-4.603zm6.276 0q-.248 0-.27.218l.24-.053q.15 0 .083.158-.173.165-.053.488-.22.475-.847.475l-.076-.002q.03.353-.15.533-.631.36-.631.66.495.234.165.571-.33.338-.33.458.217.068.3.233.375.916.758 1.3l-.03.307q.368 0 .406-.39-.691-.841-.669-1.795.03-.954 1.21-1.877.337-.188.337-.728 0-.556-.443-.556zm4.505 0q-.443 0-.443.556 0 .54.323.728 1.194.923 1.224 1.877.022.954-.683 1.795.052.39.405.39l-.022-.308q.375-.383.758-1.299.09-.165.293-.233 0-.12-.323-.458-.323-.337.165-.57 0-.3-.623-.661-.18-.18-.165-.533l-.075.002q-.614 0-.834-.475.113-.323-.052-.488-.068-.158.082-.158l.24.053q-.022-.218-.27-.218zm-2.256 4.115q.882 0 1.768.675.69.586.083 1.344h-3.71q-.608-.758.098-1.344.879-.675 1.76-.675zM22.543 8.64q-1.044 1.216-1.044 1.854.083.368.323.368.315 0 .405-.285 0-.946.406-1.585l-.09-.352zm5.316 0l-.09.352q.405.639.405 1.585.083.285.405.285.233 0 .323-.368 0-.638-1.043-1.854zm-3.289.135q.488 0 .488.518v3.912q-1.532 0-1.734-.984-.203-.984-.023-3.446zm2.508 0q.202 2.462-.008 3.446-.21.984-1.742.984V9.293q0-.518.488-.518zm-1.99-4.182v.27q0 .188-.15.188-.233 0-.556-.27h-.165l.518.975-.165.053q-.27-.353-.54-.728-.043-.02-.075-.02-.082 0-.098.125l.405.706q-.285.232-.285.405-.45 0-.676.353-.653.458-.653 1.014 0 .42.27.96-.188 1.044-.188 2.629 0 1.043.36 1.674.369.63 2.103.63 1.735 0 2.095-.63.368-.63.368-1.674.015-1.585-.173-2.613.27-.556.27-.976 0-.556-.66-1.014-.233-.353-.668-.353 0-.173-.308-.405l.405-.706q0-.124-.077-.124-.03 0-.073.019-.27.375-.54.728l-.166-.053.503-.976h-.15q-.338.27-.578.27-.128 0-.128-.187v-.27zm-2.967 6.621l-.029.001q-.878 1.554-.878 2.448 0 .893.308 1.434.315.54.856.653-.729-.976-.729-1.562 0-.578.135-.946.12 1.029.541 1.45-.188-.827-.173-1.743.008-.923.308-1.374.015-.36-.339-.36zm6.16 0q-.354 0-.34.361.286.45.3 1.374.016.916-.165 1.742.42-.42.541-1.449.135.368.135.946 0 .586-.728 1.562.54-.113.84-.653.309-.54.309-1.434 0-.894-.864-2.448h-.029z"/><path d="M8.22.375c-9.625 0-9.625 17.25 0 17.25m0-17.25h21.088M8.22 17.625h21.088M36.995.375v17.25M29.308.375c9.625 0 9.625 17.25 0 17.25" fill="none" stroke="#000"/></svg>