<svg xmlns="http://www.w3.org/2000/svg" width="130.957" height="18"><path d="M18.058.568q-.111.037-.111.128t.07.146q.027.022.054.022.04 0 .077-.05.063-.081.021-.163-.041-.083-.11-.083zM2.67.47q-.153 0-.296.282.084.183.264.237.028.01.054.01.131 0 .224-.229 0-.255-.194-.292Q2.695.47 2.669.47zM1.665.787q-.042.128.027.238l-.583.073q-.014-.164.556-.31zm.568.436zm.105-.003q.12 0 .195.033.027.012 0 .012-.052 0-.288-.04.05-.005.093-.005zm2.564 1.252q.035 0 .097.068 1.125 1.223 2.792 2.865Q9.46 7.048 9.667 7.724 8.305 7.468 7.34 6.318q-.966-1.15-1.681-2.236-.716-1.086-.799-1.414-.017-.196.042-.196zm.046-.868q.202 0 .384.096 4.321 4.308 4.946 5.604.584 1.405.764 2.154-.076.11-.182.11-.087 0-.193-.074l-.57-1.515q-.43-1.296-2.104-2.875-1.674-1.579-2.424-2.5-.441-.542-.676-.542-.164 0-.227.268-.108.455-.38.455-.115 0-.26-.081.126-.858.542-1.022.198-.078.38-.078zm.357 6.43q.666 1.405.541 2.83-.125 0-.236.236-.045-.403-.277-.403-.051 0-.112.02.292-1.405.084-2.683zM2.827.346q.066 0 .116.013.25.063.292.237.029.122.058.122.013 0 .025-.022.042-.073.056-.164.305.53.041 1.57t.848 1.24q1.028 3.104 2.209 4.72 1.18 1.615.986 3.038-.449-.438-.993-.438-.113 0-.23.019.042-1.296-.472-2.556t-.945-1.889q-.43-.63-1.16-1.497-.73-.867-.722-1.789.007-.921.194-1.286.188-.365.181-.584-.003-.091-.027-.091-.035 0-.112.182-.132.31-.73.328l-.07.001q-.568 0-1.235-.274l.82.073q.404.11.601.11.162 0 .183-.074.049-.164-.076-.192-.125-.027-.257-.027t-.201.055l.026.052-.29-.052Q1.762.787 1.887.623q.028-.055.097-.055-.028.183.049.274.028.034.056.034.046 0 .09-.098.07-.155-.125-.228.511-.204.773-.204zm15.412.04q.375 0 .555.365.056.055.695.2v.056l-.695.073q-.597 0-.75-.12-.153-.118-.146-.273.007-.155.188-.155.18 0 .25.082t.035.173q-.035.092-.132.147h.028q.18 0 .187-.22.007-.237-.299-.273-.389 0-.291.374.092.357.854.357l.076-.001q.431-.037.765-.128L19.53.97q1.236 1.004 1.16 2.29-.077 1.288-.966 2.136-.889.85-1.584 1.871-1.083 1.734-1.167 2.72-.083.986.376.986.458 0 1.118-.721.66-.721 1.34-.74 1.82.055 1.612 2.209-.667-.93-1.5-.93-.417 0-1.14.474-1.097.766-1.667.766l-.472-.091q-.861-.84-.583-2.482.416-1.187 1.125-4.235.486-1.734.965-2.628.48-.895 1.022-.913.291 0 .944.365.027.01.047.01.094 0 .037-.21-.526-.429-1.226-.429-.225 0-.47.045-.208 0-.506-.146-.3-.146-.3-.694.251-.237.543-.237zM4.666 3.05q1.083 1.825 1.986 3.002.903 1.178 1.702 1.588.799.411 1.48.43.083.145 1.653 4.617l-.097.055-3.738-3.14q.028-.273-1.104-1.962-1.132-1.687-1.994-4.46l.112-.128zM8.5 10.918l2.07 1.66q.07.256-.5.348-.127.02-.233.02-.37 0-.49-.248-.152-.32-.389-.831-.236-.511-.458-.95zm7.071-.785q0 .767.167 1.332.43 1.004 1.153 1.023h.038q.711 0 1.699-.657.938-.625 1.365-.625.034 0 .066.004.416.055.903.566.486.51.514.894.05.311-.043.311-.06 0-.18-.128-.399-1.05-1.024-1.05h-.01q-.633.01-1.557.648-.923.639-2.153.639t-1.368-1.04q-.14-1.04.43-1.917zM5.277 11.192l.208.547q.195-.255.299-.3l.005-.002q.088 0-.304 1.543l-.583.238q-.153-.146.09-.904.243-.757.285-1.122zm14.763 1.14q.461 0 .727.502-.18.384-.847.603-.514 0-1.042-.566.685-.539 1.162-.539zm-1.607.758q.207.265.448.438h-1.883q.692-.095 1.435-.438zm-7.182 1.15q-1.554 2.935-4.48 3.011-2.913-.076-4.467-3.011zm11.239.018q-1.554 2.935-4.48 3.012-2.913-.077-4.48-3.012zM3.066.008q-.084 0-.179.013-.222 0-1.264.42-.834.255-.903.657l.028.62.417-.2q.68.292 1.139.292.458 0 .347.41-.111.411.028 1.37.139.958 1.097 1.934.959.977 1.188 2.556.23 1.578-.41 3.641l.209-.164q.004-.004.007-.004.046 0-.216.816-.277.867-.757.894-.084.005-.16.005-.348 0-.486-.105-.155-.12-.462-.12l-.045.001q-.34.01-.34.302v.182H1.33Q2.93 17.982 6.777 18q3.849-.018 5.446-4.472l-4.279.037q0-.165-.264-.356-.129-.094-.296-.094-.175 0-.391.103-.13.061-.278.061-.337 0-.771-.317.097-.639.236-1.14.139-.503.528-.594.036-.008.073-.008.362 0 .816.811.264-.675.153-1.825l.139.128q1.042 2.3 1.257 2.701.163.305.634.305.15 0 .331-.031.75-.128.737-.475l.639.42.486-.237-1.07-3.048q.264 0 .487-.292-.264-1.096-.82-2.446-.39-.822-.792-1.278Q8.681 4.603 7.5 3.39T5.763 1.518q-.373-.28-.775-.28-.226 0-.461.088-.653.246-.792 1.214-.042-.037.07-.73.11-.694-.05-1.287-.138-.514-.689-.514zM18.286 0q-.252 0-.478.094-.292.11-.347.42-.111.383.097.757.208.374.653.466-.89 1.058-1.514 3.741-.584 2.556-.973 3.779-1.042 1.113-1.035 2.236.007 1.122.424 1.597.301.343.878.438h-3.434q1.597 4.454 5.446 4.472 3.848-.018 5.445-4.472h-2.674q.153-.11.313-.256.156.245.354.245.083 0 .174-.044.347-.219.139-1.004.194-2.245-.459-2.865-.653-.621-1.473-.621-.75 0-1.625.849-.543.526-.743.526-.124 0-.118-.198.014-.52.611-1.761.403-.876 1.75-2.254 1.348-1.378 1.334-2.775-.014-1.396-.597-2.099-.584-.703-1.292-.794-.111-.2-.292-.328-.18-.128-.48-.146Q18.329 0 18.287 0z"/><path d="M2.646 0L.72 1.926v.708L3.177.177 3.354 0zm3 0L.72 4.926v.708L6.177.177 6.354 0zm3 0L.72 7.926v.708L9.177.177 9.354 0zm3 0L.72 10.926v.708L12.084.269V0zm.438 2.562L.72 13.926v.708L12.084 3.269v-.707zm0 3L.72 16.926v.708L12.084 6.269v-.707zm0 3l-9.26 9.261-.178.177h.708l8.73-8.73v-.708zm0 3l-6.26 6.261-.178.177h.708l5.73-5.73v-.708zm0 3l-3.26 3.261-.178.177h.708l2.73-2.73v-.708zm0 3l-.26.261-.178.177h.438v-.438zM29.489 1.053l-.651 10.992h-.326L27.88 1.053zm-1.617 11.512q.225 0 .487.016v4.442q.02.268-.21.268-.364 0-1.015-1.32-.651-1.322-.651-2.797 0-.61 1.389-.61zm1.563 0q1.413 0 1.413.629 0 1.455-.65 2.776-.652 1.321-1.015 1.321-.23 0-.23-.268v-4.442q.258-.016.482-.016zM25.448 0v1.053h1.513l1.073 10.302q.093.671-.068.671h-.009q-.464-.206-.873-.206-.622 0-1.118.474-.518.632.057 2.374.574 1.743 1.082 2.537.507.795 1.56.795 1.226 0 1.657-.795.43-.794 1.044-2.527.612-1.733 0-2.384-.618-.458-1.235-.458-.417 0-.834.209-.095 0 0-.69l1.054-10.302h1.512V0zm16.818.692V5.6h-3.292V.692zM38.296 0v6.277h4.663V0zm-4.433 7.797v3.336h13.529V7.797H33.863m12.973.556v2.223H34.42V8.353h12.416zm-10.291 6.299l-1.961-1.978-.709.633 2 2.011-2.012 2 .667.67 2.011-2 2 2.012.67-.666-1.961-2.094 1.973-1.917-.666-.67-2.012 1.999zm8.169 0l-1.961-1.978-.709.633 2 2.011-2.012 2 .666.67 2.012-2 2 2.012.67-.666-1.961-2.094 1.973-1.917-.667-.67-2.011 1.999zM52.902.591c.673 0 1.128.1 1.508.529.521.52.62 1.29.572 1.992-.01 1.612-.295 3.21-.766 4.75-.37 1.266-.812 2.51-1.215 3.766h-.196c-.017-.062-1.925-5.289-2.01-8-.015-.79-.128-1.684.412-2.341.334-.459 1.01-.696 1.695-.696zm.416 11.625v.684c0 .124.077.234.194.276.17.062.328.172.49.304H51.61c.161-.132.318-.242.489-.304a.294.294 0 0 0 .194-.276v-.684zm1.644 2.477c.06.121.069.367.054.538H50.64a2.059 2.059 0 0 1-.023-.538zm-.466 1.819c-.317.471-.95.9-1.618.9-.72 0-1.422-.417-1.76-.9zM52.932 0c-1.274 0-2.737.735-2.737 2.246-.073.922.02 1.85.115 2.768.29 2.285 1.15 4.436 1.86 6.614h-.017c-.095 0-.447.01-.447.294v.784c-.402.198-.682.5-.954.723h-.876a.294.294 0 0 0-.294.294v.792c0 .157.184.287.341.293.071.133.083.252.101.375l-.33-.01h-.003a.307.307 0 0 0-.3.294v.76c0 .163.132.295.294.295.205 0 .675.01.757.01h.011c.368.843 1.355 1.468 2.425 1.468 1.04 0 1.944-.67 2.284-1.478h.764c.275 0 .294-.192.294-.294v-.761c0-.128.055-.285-.59-.285a1.48 1.48 0 0 0-.016-.368c.283-.017.415-.142.415-.3v-.791a.294.294 0 0 0-.293-.294h-.876c-.273-.222-.553-.525-.955-.723v-.784c0-.16-.128-.29-.287-.293.007-.037 1.84-5.082 1.93-7.732.07-.998.168-2.12-.499-2.956C54.633.368 54.195 0 52.932 0zm6.793 1.19q.333 0 .877.182.934.311 1.934 1.3 1 .99.8 1.834-.2.844-.778 1.266-.477.35-1.152.35-.142 0-.292-.016-.867-.09-1.49-1.367-.622-1.278-.577-2.278.044-1 .31-1.178.13-.092.368-.092zm-.09-.77q-.459 0-.744.197-.6.422-.666 1.733-.067 1.311.755 2.845.822 1.533 2 1.677.225.028.438.028.901 0 1.584-.494.845-.611 1.056-1.734.211-1.122-.9-2.377-1.111-1.256-2.4-1.667-.653-.209-1.124-.209zm.789 9.28v4.612h.772V9.7zM69.198.966v16.212h-7.077v-.782h3.58V6.788h2.201V.966zM67.141.082v5.986H64.94v9.69h-3.662v2.16h8.681V.082zM78.417 0c-.113 0-.227.014-.34.042-.229.056-.477.183-.744.381H71.96v1.189h5.374c.267.198.515.325.743.38a1.426 1.426 0 0 0 .678 0c.224-.055.448-.182.672-.38h.207c.215.198.437.325.665.38a1.432 1.432 0 0 0 .685 0c.228-.055.471-.182.73-.38h5.425V.423h-5.425c-.259-.198-.502-.325-.73-.381a1.432 1.432 0 0 0-.685 0 1.53 1.53 0 0 0-.665.381h-.207c-.224-.198-.448-.325-.672-.381A1.387 1.387 0 0 0 78.417 0zm1.132 4.238q1.033.612 1.033 1.836h-2.058q0-1.224 1.025-1.836zm1.033 2.406q-.231.819-1.033.819-.802 0-1.009-.819zm5.936 1.43v.976h-13.93v-.976zm-6.97-4.406q-1.578.595-1.578 2.554 0 .745.322 1.24h-6.258V9.62h15.03V7.463H80.83q.323-.496.323-1.24 0-1.96-1.604-2.555zm-4.023 11.206c.877 0 1.975.45 2.506.982.465.464.525 1.08.543 1.653h-6.072c.017-.572.078-1.189.543-1.653.53-.532 1.603-.982 2.48-.982zm0-.491c-1.04 0-2.16.48-2.816 1.137-.673.673-.75 1.559-.75 2.222V18h7.131v-.258c0-.663-.05-1.55-.723-2.222-.656-.656-1.802-1.137-2.842-1.137zm10.869-2.385v5.274h-3.538v-5.274zm-4.266-.744V18h5.01v-6.746zm11.376-8.527c1.074 0 2.419.551 3.07 1.202.568.569.643 1.324.664 2.025h-7.435c.02-.701.095-1.456.664-2.025.65-.65 1.963-1.202 3.037-1.202zm0-.602c-1.274 0-2.645.59-3.448 1.393-.824.824-.918 1.909-.918 2.72v.317h8.732v-.317c0-.811-.061-1.896-.886-2.72-.803-.804-2.206-1.393-3.48-1.393zm-4.366 6.43v7.32h1.225v-7.32zm3.754 0v7.32h1.225v-7.32zm3.753 0v7.32h1.225v-7.32zm9.107-7.644v2.43q-.536-.8-3.22-.8h-1.983V.911zm.03-.911q-1.093.202-3.25.202H99.87V3.25h2.663q1.407 0 2.014.293.618.294 1.205.84l.03 13.617h1.175V0zm4.864 0l-1.69 1.69v.707l2.22-2.22.178-.177zm3 0l-4.69 4.69v.707l5.22-5.22.178-.177zm3 0l-7.69 7.69v.707l8.22-8.22.178-.177zm3 0l-10.69 10.69v.707l11.22-11.22.178-.177zm3 0l-13.69 13.69v.707l14.22-14.22.178-.177zm3 0l-16.69 16.69v.707l17.22-17.22.178-.177zm3 0l-17.823 17.823-.177.177h.708L129.177.177l.177-.177zm2.31.69l-17.133 17.133-.177.177h.708l16.603-16.603V.69zm0 3l-14.133 14.133-.177.177h.708l13.603-13.603V3.69zm0 3l-11.133 11.133-.177.177h.708l10.603-10.603V6.69zm0 3l-8.133 8.133-.177.177h.708l7.603-7.603V9.69zm0 3l-5.133 5.133-.177.177h.708l4.603-4.603v-.707zm0 3l-2.133 2.133-.177.177h.708l1.603-1.603v-.707z"/></svg>