<svg xmlns="http://www.w3.org/2000/svg" width="110.398" height="18"><path d="M8.22.375c-9.625 0-9.625 17.25 0 17.25m0 0" fill="none" stroke="#000"/><path d="M14.442 7.938c-.682.054-1.058.394-1.13 1.022.09.68.466 1.04 1.13 1.075.663-.036 1.012-.394 1.048-1.075-.053-.628-.403-.968-1.048-1.022zm.08-2.259c.484 0 .932.09 1.345.27a3.545 3.545 0 0 1 1.828 1.815c.18.402.27.828.27 1.276 0 .466-.09.901-.27 1.304a3.422 3.422 0 0 1-3.173 2.03c-.484 0-.936-.085-1.358-.255a3.235 3.235 0 0 1-1.089-.712 3.495 3.495 0 0 1-.726-1.063 3.174 3.174 0 0 1-.269-1.304c0-.448.09-.874.27-1.277a3.67 3.67 0 0 1 .725-1.075 3.31 3.31 0 0 1 1.09-.74 3.41 3.41 0 0 1 1.357-.269zm-.054-.914a4.17 4.17 0 0 0-1.667.336c-.52.224-.968.529-1.344.914a4.48 4.48 0 0 0-.9 1.345 4.071 4.071 0 0 0-.337 1.653c0 .592.112 1.143.336 1.654.224.511.524.955.9 1.331a4.267 4.267 0 0 0 3.012 1.237c.592 0 1.143-.112 1.654-.336a4.48 4.48 0 0 0 1.345-.9 4.21 4.21 0 0 0 .914-1.332 4.07 4.07 0 0 0 .336-1.654c0-.591-.112-1.142-.336-1.653a4.358 4.358 0 0 0-2.259-2.26 4.071 4.071 0 0 0-1.654-.336zM26.122 0c-.12 0-.128.377-.3.935-.194.635-.337 1.962-.788 2.22a.397.397 0 0 1-.204.052c-.134 0-.269-.05-.417-.05a.545.545 0 0 0-.169.025c-.21.068-.322.397-.545.436-.921.16-2.182.1-2.887.163-.452.04.756.93 1.965.93h.05c.252-.005.517-.017.78-.017.44 0 .877.032 1.237.18.352.146.767.567.762.981L25.46 18h1.358l-.07-13.719c0-.368 1.062-.618 1.2-.936.243-.553.12-2.995-.272-3.323a.021.021 0 0 0-.013-.006c-.176 0-.505 2.56-1.022 3.111-.052.056-.156.082-.247.082-.096 0-.177-.03-.161-.082.328-1.118.46-2.749-.055-3.105A.102.102 0 0 0 26.122 0zm6.727.78c.706 0 1.059.28 1.059.839 0 .56-.347 1.078-1.04 1.558-.159.053-.179.6-.059 1.638l.939 6.672c-.959.28-1.945.786-2.957 1.519V2.797C31.138 1.452 31.823.78 32.85.78zm-.09-.78c-.778 0-1.37.217-1.778.65-.42.446-.716 1.129-.889 2.047L30.072 18h1.059c-.08-2.29.075-3.25.561-3.93.487-.679 1.715-1.418 3.114-1.645-.88-5.5-1.47-8.582-1.298-8.769.733-.492 1.099-1.152 1.099-1.977C34.607.559 34.028 0 32.87 0a3.659 3.659 0 0 0-.111 0z"/><path d="M44.493.375v17.25M36.806.375c9.625 0 9.625 17.25 0 17.25" fill="none" stroke="#000"/><path d="M52.463.597c.269.002.505.041.692.109-.031.223-.169.569-.953.773.73-.053 1.206-.113 1.452-.307.09.2.137.427.159.556a.297.297 0 0 0 .206.237c.625.191 1.173 1.112 1.7 1.763.95 1.173 1.771 2.48 2.688 3.733l-1.27-.622c-1.182-.622-2.395-1.11-3.407-1.877-.589-.49-1.172-.996-1.39-1.641-.076-.497.296-1.074.767-1.279a.297.297 0 1 0-.238-.545c-.377.164-.7.458-.904.817.01-.152.032-.308.075-.448a.297.297 0 0 0 .012-.104 1.372 1.372 0 0 0-.082-.422c-.04-.109-.084-.206-.157-.459a.297.297 0 0 0-.105-.153c.14-.062.316-.112.527-.125.043-.003.084-.003.125-.004a.258.258 0 1 0 .103-.002zm1.193 5.432c.606.466 1.253.873 1.889 1.28-.005.438.005.879.046 1.321a2.215 2.215 0 0 0-.697-.3c-.39-.636-.82-1.22-1.082-1.842a4.553 4.553 0 0 1-.156-.46zm-.248 1c.273.549.621 1.04.928 1.529-.059.04-.112.08-.154.121-.012.01-.018.017-.028.027a1.713 1.713 0 0 0-.613-.454c.01-.348-.047-.768-.133-1.222zm2.88.047a25.922 25.922 0 0 1 .588.297c.78.38 1.56.772 2.349 1.148.556.67 1.157 1.293 1.735 1.92l-1.044.175-2.562-2.786a.297.297 0 0 0-.04-.036 19.147 19.147 0 0 0-1.026-.718zm-2.592 2.009c.058.066.112.14.162.222a.298.298 0 0 0 .43.087c.124-.09.2-.177.265-.244l.077 1.413c-.1-.006-.201-.013-.296-.013-.167 0-.313.022-.398.108-.1-.078-.28-.1-.504-.1-.058 0-.118.002-.18.005l.444-1.478zm-5.418.999c.451.062.686.323.704.783h-1.395c0-.46.23-.721.69-.783zm7.86-2.39c.274.182.542.367.798.56l2.403 2.613h-2.456c-.171-.19-.519-.365-.776-.365a.366.366 0 0 0-.192.046 2.987 2.987 0 0 0-.256-.01c-.14 0-.286.007-.434.016l-.082-1.506c.224.115.407.282.625.542a.297.297 0 0 0 .52-.246 9.753 9.753 0 0 1-.15-1.65zm-6.24 3.745l-.266.465h-1.248l-.252-.465zm4.516 0v2.51l-1.727-2.51zM52.47 0a3.878 3.878 0 0 0-.272.01c-.695.044-1.215.325-1.408.768a.298.298 0 0 0 .34.408l.025-.006.03.007.108.029c.055.168.096.269.12.332a.541.541 0 0 1 .042.2 3.112 3.112 0 0 0-.036 1.389c.095.466.384.977.761 1.46a.295.295 0 0 0 .014.108c.183.559.396 1.318.548 2.027.152.708.233 1.387.192 1.684a.3.3 0 0 0 .223.33l.019.005-.527 1.75a1.787 1.787 0 0 0-.26-.018c-.256 0-.509.041-.712.041a.865.865 0 0 1-.183-.016.314.314 0 0 0-.068-.007c-.212 0-.657.13-.787.366h-1.1c-.061-.797-.482-1.235-1.261-1.315-.788.08-1.196.518-1.222 1.315v.572h.531l.545 1.01h1.766l.531-1.01h1.568l2.404 3.493V18h.571v-6.561h4.516v-.41l.1.109a.297.297 0 0 0 .268.092l1.74-.292a.298.298 0 0 0 .173-.492 49.17 49.17 0 0 0-.657-.716l1.657 1.078a.296.296 0 0 0 .412-.087.297.297 0 0 0-.088-.411l-1.344-.876a.292.292 0 0 0 .076-.09.315.315 0 0 0 .02-.237.305.305 0 0 0-.048-.093c-.055-.076-.084-.088-.124-.119a2.938 2.938 0 0 0-.13-.094c-.096-.065-.206-.137-.301-.2a4.156 4.156 0 0 1-.217-.156l-2.378-1.672-.008-.005c-.805-1.13-1.568-2.316-2.457-3.414-.433-.535-.938-1.524-1.812-1.894-.048-.262-.157-.68-.484-.997C53.533.119 53.023 0 52.47 0zm13.813 11.636v1.633h3.604v-1.633h-.706c-.206.363-.441.598-.706.706a1.038 1.038 0 0 1-.395.081 1.03 1.03 0 0 1-.392-.08c-.26-.109-.493-.344-.699-.707zm2.186-5.943V8.4h-.818v3.31h.883V9.635h1.024V6.796h1.265c.226 1.765.839 3.077 1.839 3.935 1 .859 2.236 1.356 3.707 1.494 1.471.137 2.437.33 2.898.58.461.25.692.503.692.758h1.795c-.275-.657-.643-1.157-1.104-1.5-.46-.344-1.316-.56-2.567-.648-1.25-.088-2.25-.252-3.001-.492-.75-.24-1.42-.667-2.008-1.28-.589-.613-1.04-1.93-1.354-3.95zm-1.189 9.486l-2.056 2.43h1.002l1.053-1.256 1.063 1.256 1.033-1.256 1.063 1.256 1.053-1.256 1.063 1.256 1.053-1.256 1.063 1.256 1.033-1.256 1.063 1.256 1.063-1.256 1.032 1.256 1.063-1.256 1.053 1.256h1.003l-2.056-2.43-1.063 1.174-1.032-1.174-1.063 1.174-1.063-1.174-1.033 1.174-1.063-1.174-1.053 1.174-1.063-1.174-1.053 1.174-1.063-1.174-1.033 1.174-1.063-1.174zM78.13 2.93c-.544.043-.845.315-.903.817.072.545.373.832.904.86.53-.028.81-.315.839-.86-.043-.502-.323-.774-.84-.817zm.065-1.807c.388 0 .746.071 1.076.215a2.836 2.836 0 0 1 1.463 1.452c.143.322.215.663.215 1.022 0 .372-.072.72-.215 1.043a2.738 2.738 0 0 1-2.538 1.624 2.87 2.87 0 0 1-1.087-.204 2.588 2.588 0 0 1-.871-.57 2.796 2.796 0 0 1-.581-.85 2.54 2.54 0 0 1-.215-1.043c0-.359.072-.7.215-1.022.143-.323.337-.61.58-.86.245-.252.535-.449.872-.592.337-.144.7-.215 1.086-.215zM78.152.39c-.473 0-.918.09-1.333.27a3.306 3.306 0 0 0-1.076.73 3.585 3.585 0 0 0-.72 1.076c-.18.409-.27.85-.27 1.323s.09.914.27 1.323c.179.409.419.764.72 1.065a3.414 3.414 0 0 0 2.41.99c.473 0 .914-.09 1.322-.27.409-.179.767-.42 1.076-.72.308-.301.552-.656.731-1.065.18-.409.27-.85.27-1.323s-.09-.914-.27-1.323A3.486 3.486 0 0 0 79.475.66a3.257 3.257 0 0 0-1.323-.269z"/><path d="M91.667.375v17.25M83.98.375c9.625 0 9.625 17.25 0 17.25" fill="none" stroke="#000"/><path d="M99.637.597c.269.002.505.041.692.109-.031.223-.169.569-.953.773.73-.053 1.206-.113 1.452-.307.09.2.137.427.158.556a.297.297 0 0 0 .207.237c.624.191 1.173 1.112 1.7 1.763.95 1.173 1.771 2.48 2.688 3.733l-1.27-.622c-1.182-.622-2.395-1.11-3.407-1.877-.589-.49-1.172-.996-1.39-1.641-.076-.497.296-1.074.767-1.279a.297.297 0 1 0-.238-.545c-.377.164-.7.458-.904.817.01-.152.032-.308.075-.448a.297.297 0 0 0 .012-.104 1.372 1.372 0 0 0-.082-.422c-.04-.109-.085-.206-.157-.459a.297.297 0 0 0-.105-.153c.14-.062.316-.112.527-.125.043-.003.084-.003.125-.004a.258.258 0 1 0 .103-.002zm1.193 5.432c.606.466 1.253.873 1.888 1.28a13 13 0 0 0 .047 1.321 2.215 2.215 0 0 0-.697-.3c-.39-.636-.82-1.22-1.082-1.842a4.553 4.553 0 0 1-.156-.46zm-.248 1c.273.549.62 1.04.928 1.529-.059.04-.112.08-.155.121l-.027.027a1.713 1.713 0 0 0-.613-.454c.009-.348-.047-.768-.133-1.222zm2.88.047a25.922 25.922 0 0 1 .588.297c.78.38 1.56.772 2.349 1.148.556.67 1.157 1.293 1.735 1.92l-1.044.175-2.562-2.786a.297.297 0 0 0-.04-.036 19.147 19.147 0 0 0-1.026-.718zm-2.592 2.009c.058.066.112.14.162.222a.298.298 0 0 0 .429.087c.125-.09.2-.177.266-.244l.077 1.413c-.1-.006-.201-.013-.296-.013-.167 0-.314.022-.398.108-.1-.078-.28-.1-.504-.1-.058 0-.118.002-.18.005l.444-1.478zm-5.418.999c.451.062.686.323.703.783h-1.394c0-.46.23-.721.69-.783zm7.86-2.39c.274.182.542.367.798.56l2.403 2.613h-2.456c-.171-.19-.519-.365-.776-.365a.366.366 0 0 0-.192.046 2.987 2.987 0 0 0-.256-.01c-.14 0-.286.007-.434.016l-.082-1.506c.224.115.407.282.625.542a.297.297 0 0 0 .52-.246 9.753 9.753 0 0 1-.15-1.65zm-6.24 3.745l-.266.465h-1.248l-.253-.465zm4.516 0v2.51l-1.727-2.51zM99.644 0a3.878 3.878 0 0 0-.272.01c-.695.044-1.215.325-1.408.768a.298.298 0 0 0 .34.408l.025-.006.03.007.108.029c.055.168.096.269.12.332a.541.541 0 0 1 .042.2 3.112 3.112 0 0 0-.036 1.389c.095.466.383.977.76 1.46a.295.295 0 0 0 .015.108c.183.559.396 1.318.548 2.027.152.708.233 1.387.192 1.684a.298.298 0 0 0 .223.33l.019.005-.527 1.75a1.787 1.787 0 0 0-.26-.018c-.256 0-.509.041-.712.041a.865.865 0 0 1-.183-.016.314.314 0 0 0-.068-.007c-.212 0-.657.13-.787.366h-1.1c-.062-.797-.482-1.235-1.261-1.315-.788.08-1.196.518-1.222 1.315v.572h.53l.545 1.01h1.767l.531-1.01h1.568l2.404 3.493V18h.57v-6.561h4.517v-.41l.1.109a.297.297 0 0 0 .268.092l1.74-.292a.298.298 0 0 0 .172-.492 49.17 49.17 0 0 0-.656-.716l1.657 1.078a.296.296 0 0 0 .411-.087.297.297 0 0 0-.087-.411l-1.344-.876a.292.292 0 0 0 .076-.09.315.315 0 0 0 .02-.237.305.305 0 0 0-.048-.093c-.056-.076-.084-.088-.124-.119a2.938 2.938 0 0 0-.13-.094c-.096-.065-.207-.137-.301-.2a4.156 4.156 0 0 1-.217-.156l-2.378-1.672-.008-.005c-.806-1.13-1.568-2.316-2.457-3.414-.433-.535-.938-1.524-1.812-1.894-.048-.262-.157-.68-.484-.997-.353-.344-.863-.463-1.416-.463z"/></svg>