<svg xmlns="http://www.w3.org/2000/svg" width="189.744" height="18"><path d="M18.058.568q-.111.037-.111.128t.07.146q.027.022.054.022.04 0 .077-.05.063-.081.021-.163-.041-.083-.11-.083zM2.67.47q-.153 0-.296.282.084.183.264.237.028.01.054.01.131 0 .224-.229 0-.255-.194-.292Q2.695.47 2.669.47zM1.665.787q-.042.128.027.238l-.583.073q-.014-.164.556-.31zm.568.436zm.105-.003q.12 0 .195.033.027.012 0 .012-.052 0-.288-.04.05-.005.093-.005zm2.564 1.252q.035 0 .097.068 1.125 1.223 2.792 2.865Q9.46 7.048 9.667 7.724 8.305 7.468 7.34 6.318q-.966-1.15-1.681-2.236-.716-1.086-.799-1.414-.017-.196.042-.196zm.046-.868q.202 0 .384.096 4.321 4.308 4.946 5.604.584 1.405.764 2.154-.076.11-.182.11-.087 0-.193-.074l-.57-1.515q-.43-1.296-2.104-2.875-1.674-1.579-2.424-2.5-.441-.542-.676-.542-.164 0-.227.268-.108.455-.38.455-.115 0-.26-.081.126-.858.542-1.022.198-.078.38-.078zm.357 6.43q.666 1.405.541 2.83-.125 0-.236.236-.045-.403-.277-.403-.051 0-.112.02.292-1.405.084-2.683zM2.827.346q.066 0 .116.013.25.063.292.237.029.122.058.122.013 0 .025-.022.042-.073.056-.164.305.53.041 1.57t.848 1.24q1.028 3.104 2.209 4.72 1.18 1.615.986 3.038-.449-.438-.993-.438-.113 0-.23.019.042-1.296-.472-2.556t-.945-1.889q-.43-.63-1.16-1.497-.73-.867-.722-1.789.007-.921.194-1.286.188-.365.181-.584-.003-.091-.027-.091-.035 0-.112.182-.132.31-.73.328l-.07.001q-.568 0-1.235-.274l.82.073q.404.11.601.11.162 0 .183-.074.049-.164-.076-.192-.125-.027-.257-.027t-.201.055l.026.052-.29-.052Q1.762.787 1.887.623q.028-.055.097-.055-.028.183.049.274.028.034.056.034.046 0 .09-.098.07-.155-.125-.228.511-.204.773-.204zm15.412.04q.375 0 .555.365.056.055.695.2v.056l-.695.073q-.597 0-.75-.12-.153-.118-.146-.273.007-.155.188-.155.18 0 .25.082t.035.173q-.035.092-.132.147h.028q.18 0 .187-.22.007-.237-.299-.273-.389 0-.291.374.092.357.854.357l.076-.001q.431-.037.765-.128L19.53.97q1.236 1.004 1.16 2.29-.077 1.288-.966 2.136-.889.85-1.584 1.871-1.083 1.734-1.167 2.72-.083.986.376.986.458 0 1.118-.721.66-.721 1.34-.74 1.82.055 1.612 2.209-.667-.93-1.5-.93-.417 0-1.14.474-1.097.766-1.667.766l-.472-.091q-.861-.84-.583-2.482.416-1.187 1.125-4.235.486-1.734.965-2.628.48-.895 1.022-.913.291 0 .944.365.027.01.047.01.094 0 .037-.21-.526-.429-1.226-.429-.225 0-.47.045-.208 0-.506-.146-.3-.146-.3-.694.251-.237.543-.237zM4.666 3.05q1.083 1.825 1.986 3.002.903 1.178 1.702 1.588.799.411 1.48.43.083.145 1.653 4.617l-.097.055-3.738-3.14q.028-.273-1.104-1.962-1.132-1.687-1.994-4.46l.112-.128zM8.5 10.918l2.07 1.66q.07.256-.5.348-.127.02-.233.02-.37 0-.49-.248-.152-.32-.389-.831-.236-.511-.458-.95zm7.071-.785q0 .767.167 1.332.43 1.004 1.153 1.023h.038q.711 0 1.699-.657.938-.625 1.365-.625.034 0 .066.004.416.055.903.566.486.51.514.894.05.311-.043.311-.06 0-.18-.128-.399-1.05-1.024-1.05h-.01q-.633.01-1.557.648-.923.639-2.153.639t-1.368-1.04q-.14-1.04.43-1.917zM5.277 11.192l.208.547q.195-.255.299-.3l.005-.002q.088 0-.304 1.543l-.583.238q-.153-.146.09-.904.243-.757.285-1.122zm14.763 1.14q.461 0 .727.502-.18.384-.847.603-.514 0-1.042-.566.685-.539 1.162-.539zm-1.607.758q.207.265.448.438h-1.883q.692-.095 1.435-.438zm-7.182 1.15q-1.554 2.935-4.48 3.011-2.913-.076-4.467-3.011zm11.239.018q-1.554 2.935-4.48 3.012-2.913-.077-4.48-3.012zM3.066.008q-.084 0-.179.013-.222 0-1.264.42-.834.255-.903.657l.028.62.417-.2q.68.292 1.139.292.458 0 .347.41-.111.411.028 1.37.139.958 1.097 1.934.959.977 1.188 2.556.23 1.578-.41 3.641l.209-.164q.004-.004.007-.004.046 0-.216.816-.277.867-.757.894-.084.005-.16.005-.348 0-.486-.105-.155-.12-.462-.12l-.045.001q-.34.01-.34.302v.182H1.33Q2.93 17.982 6.777 18q3.849-.018 5.446-4.472l-4.279.037q0-.165-.264-.356-.129-.094-.296-.094-.175 0-.391.103-.13.061-.278.061-.337 0-.771-.317.097-.639.236-1.14.139-.503.528-.594.036-.008.073-.008.362 0 .816.811.264-.675.153-1.825l.139.128q1.042 2.3 1.257 2.701.163.305.634.305.15 0 .331-.031.75-.128.737-.475l.639.42.486-.237-1.07-3.048q.264 0 .487-.292-.264-1.096-.82-2.446-.39-.822-.792-1.278Q8.681 4.603 7.5 3.39T5.763 1.518q-.373-.28-.775-.28-.226 0-.461.088-.653.246-.792 1.214-.042-.037.07-.73.11-.694-.05-1.287-.138-.514-.689-.514zM18.286 0q-.252 0-.478.094-.292.11-.347.42-.111.383.097.757.208.374.653.466-.89 1.058-1.514 3.741-.584 2.556-.973 3.779-1.042 1.113-1.035 2.236.007 1.122.424 1.597.301.343.878.438h-3.434q1.597 4.454 5.446 4.472 3.848-.018 5.445-4.472h-2.674q.153-.11.313-.256.156.245.354.245.083 0 .174-.044.347-.219.139-1.004.194-2.245-.459-2.865-.653-.621-1.473-.621-.75 0-1.625.849-.543.526-.743.526-.124 0-.118-.198.014-.52.611-1.761.403-.876 1.75-2.254 1.348-1.378 1.334-2.775-.014-1.396-.597-2.099-.584-.703-1.292-.794-.111-.2-.292-.328-.18-.128-.48-.146Q18.329 0 18.287 0zm15.767.723h.158q1.956 0 3.73 1.682l-1.098.887q-1.027-.98-2.685-.98-1.658 0-2.686.98l-1.097-.887Q32.125.723 34.053.723zm.105 2.266q1.844.023 3.035 1.938H31.1q.934-1.915 3.059-1.938zm0-2.989q-2.896.117-4.88 2.382l1.657 1.4q-.7.935-.864 1.752h8.15q-.164-.817-.864-1.728l1.54-1.4Q37.054.115 34.158 0zm7.351 7.551q.347 0 .347.364v2.793h-1.058l.347-2.942q.017-.215.364-.215zm.016-.446q-.843 0-.892.48-.347 3.123-.744 3.14l-7.669.28-.793-.033q-.893-.942-1.587-.942l-.513-.033q-1.404.265-1.685.265-.199 0-.199.264 0 .364.562.364.965-.154 1.48-.154.094 0 .173.005.281 0 .463.231-.322.4-1.443.4-.086 0-.177-.003-1.273-.033-2.248-.33-.48 0-.48.562.05.512 3.588.528l1.57-.165 8.958-.05 2.512.034V7.915q-.016-.81-.876-.81zM29.669 13.7q-1.724.04-2.853 1.249-1.249 1.367-1.368 2.734 0 .317.357.317H42.37q.357 0 .357-.376 0-.377-.357-.377H26.34q.99-2.536 2.972-2.814H42.37q.357 0 .357-.376 0-.357-.357-.357zM58.887.553q.096 0 .178.07.347.33-.44 1.336-.806.916-.98 1.52-.174.604-.393 1.566-.22.961-1.099 3.122H51.96q.567-1.19 1.74-2.481 1.171-1.291 1.995-1.84.824-.55 1.3-.962.476-.412 1.062-1.492.498-.839.83-.839zm1.935.125l.11.054-5.218 12.196-4.743-.019-.64-3.955h6.591l3.9-8.276zm-.293 13.019q-2.485 3.363-7.14 3.46-4.639-.097-7.124-3.46zM60.584 0L57.82 5.402q.33-1.813.687-2.371.357-.559.668-.815.66-.843.605-1.264-.055-.421-.476-.696-.295-.2-.595-.2-.11 0-.22.026-.412.101-.943 1.053-.128.403-.54.916-.412.513-1.694 1.29-1.282.779-2.875 2.665-1.52-1.099-2.207-1.94-.686-.843-.75-1.447-.064-.605.164-.944.23-.338.623-.43.12-.028.234-.028.265 0 .508.147.348.21.33.687-.11.494-.642.586-.162-.062-.268-.062-.147 0-.19.117-.11.348.376.375.05.003.1.003.426 0 .779-.213.394-.238.357-1.246-.311-.787-1.062-.888-.192-.025-.372-.025-.522 0-.937.218-.559.293-.65 1.3-.092 1.007.677 2.014.77 1.007 2.417 2.27-.311.44-.97 1.667h-1.465l.714 4.742h-5.475q2.545 5.073 8.68 5.091 6.115-.018 8.66-5.09l-5.53.018L61.702.568 60.584 0zm6.993.591c.674 0 1.128.1 1.509.529.52.52.62 1.29.571 1.992-.01 1.612-.294 3.21-.766 4.75-.369 1.266-.81 2.51-1.214 3.766h-.196c-.017-.062-1.925-5.289-2.01-8-.015-.79-.129-1.684.412-2.341.334-.459 1.01-.696 1.694-.696zm.416 11.625v.684c0 .124.078.234.194.276.171.062.328.172.49.304h-2.39c.16-.132.318-.242.489-.304a.294.294 0 0 0 .194-.276v-.684zm1.644 2.477c.06.121.07.367.054.538h-4.375a2.059 2.059 0 0 1-.023-.538zm-.465 1.819c-.317.471-.951.9-1.618.9-.721 0-1.422-.417-1.761-.9zM67.608 0c-1.275 0-2.737.735-2.737 2.246-.073.922.019 1.85.115 2.768.29 2.285 1.15 4.436 1.86 6.614h-.018c-.094 0-.446.01-.446.294v.784c-.402.198-.682.5-.954.723h-.876a.294.294 0 0 0-.294.294v.792c0 .157.183.287.34.293.072.133.084.252.102.375l-.33-.01h-.004a.307.307 0 0 0-.298.294v.76c0 .163.13.295.293.295.205 0 .675.01.757.01h.01c.368.843 1.355 1.468 2.426 1.468 1.04 0 1.944-.67 2.284-1.478h.764c.275 0 .294-.192.293-.294v-.761c0-.128.056-.285-.589-.285a1.48 1.48 0 0 0-.016-.368c.283-.017.415-.142.415-.3v-.791a.294.294 0 0 0-.294-.294h-.876c-.272-.222-.552-.525-.954-.723v-.784c0-.16-.128-.29-.287-.293.006-.037 1.839-5.082 1.93-7.732.07-.998.168-2.12-.5-2.956C69.309.368 68.872 0 67.609 0zm7.362 1.124q2.015.293 2.107 1.842v11.177q-.942-1.124-3.382-1.58l1.276-11.44zM74.405 0l-1.509 13.363q3.361.385 4.182 2.4V18h1.002V2.966q0-2.51-3.675-2.966zm8.656.549c.688 0 1.237.199 1.621.474.006.054.02.107.008.159a1.057 1.057 0 0 1-.391.625c-.314.205-.691.264-1.048.353-.09.01-.019.03.03.039.228.04.702.098.963.098h.052c.275-.032.535-.147.758-.31.079-.065.146-.147.203-.233.147.343.226.707.259.909a.29.29 0 0 0 .2.23c1.128.347 2.02 1.894 2.854 2.924 1.714 2.118 3.171 4.487 4.85 6.7-.93-.451-1.855-.908-2.785-1.361-1.904-1.002-3.887-1.8-5.555-3.063l-.009-.008c-.961-.8-1.945-1.645-2.318-2.768-.147-.912 1.742-2.554 1.529-2.623a.206.206 0 0 0-.063-.01c-.455 0-1.739 1.118-2.002 2.183-.003-.014-.01-.03-.014-.045-.072-.353-.153-1.245.067-1.962a.288.288 0 0 0 .011-.103 1.95 1.95 0 0 0-.122-.628c-.063-.168-.138-.34-.259-.758-.03-.107-.14-.325-.205-.342.184-.137.37-.279.639-.372a.43.43 0 0 0-.13.31c0 .228.161.412.36.412.2 0 .362-.184.362-.411V.965a.407.407 0 0 0-.253-.386c.052-.008.094-.019.153-.023.08-.005.159-.007.235-.007zm.665 7.694c.065.065.134.123.2.186.212.773.409 1.627.687 2.285.478 1.135 1.204 2.122 1.823 3.126a1.798 1.798 0 0 0-.381.267c-.08.076-.134.127-.197.192a2.588 2.588 0 0 0-1.176-.89c.045-.716-.107-1.696-.336-2.762a34.596 34.596 0 0 0-.62-2.404zm.998.9c1.138.938 2.406 1.724 3.643 2.518-.018.902-.017 1.763.083 2.652a3.381 3.381 0 0 0-1.424-.73c-.02 0-.037.013-.057.013-.642-1.055-1.37-2.042-1.82-3.107-.154-.366-.29-.843-.425-1.345zm.403 5.209c.162.151.31.326.436.536a.297.297 0 0 0 .255.14.28.28 0 0 0 .167-.054c.214-.155.345-.32.473-.442a1.32 1.32 0 0 1 .147-.117l.147 2.699c-.21-.014-.43-.035-.631-.035-.262 0-.491.036-.627.171-.168-.133-.493-.163-.883-.163-.1 0-.205.002-.312.005l.828-2.74zm1.147-4.783c1.343.78 2.76 1.402 4.1 2.106a.242.242 0 0 0 .005.003c1.284.626 2.564 1.27 3.86 1.887.976 1.179 2.034 2.275 3.052 3.39l-2.132.359c-1.41-1.532-2.82-3.061-4.23-4.594a.286.286 0 0 0-.036-.036c-1.486-1.127-3.125-2.064-4.619-3.115zM83.127.079c-.134 0-.27.005-.407.013-1.075.07-1.856.522-2.123 1.134-.04.092-.144.31-.007.31a2.33 2.33 0 0 1 .338-.028c.414 0 .377.172.467.193.089.28.286.84.3 1.06-.242.852-.152 1.747-.064 2.178.148.726.625 1.57 1.25 2.36a.282.282 0 0 0 0 .163c.299.914.646 2.15.895 3.307.249 1.158.39 2.257.314 2.799a.292.292 0 0 0 .22.325c.043.01.083.03.125.044l-.92 3.052a2.822 2.822 0 0 0-.587-.055c-.378 0-.75.05-1.055.05-.124 0-.238-.008-.337-.031a.54.54 0 0 0-.124-.012c-.432 0-1.416.303-1.33.87.15-.126.257-.156.374-.156.109 0 .227.026.4.026h.027c.253-.004.692-.082 1.045-.082.178 0 .334.02.434.079.234-.01.445-.013.642-.013.843 0 1.435.07 2.478.074a88.777 88.777 0 0 0 2.949-.078c.446.003.69.054.914.054h.04c.132-.005.262-.057.475-.057.122 0 .27.017.464.07-.248-.339-.869-.68-1.319-.68a.586.586 0 0 0-.299.071 5.036 5.036 0 0 0-.504-.022c-.217 0-.443.01-.671.02l-.156-2.804c.483.2.85.511 1.27 1.011a.293.293 0 0 0 .509-.244c-.191-1.03-.212-2-.2-3.032.534.35 1.061.706 1.561 1.084l4.322 4.696a.287.287 0 0 0 .26.089c.942-.158 1.883-.312 2.824-.47a.291.291 0 0 0 .228-.191.296.296 0 0 0-.058-.295c-.736-.823-1.495-1.616-2.232-2.423 1.258.774 2.85 1.74 3.053 1.74.023 0 .028-.013.013-.04-.094-.161-.893-.749-1.76-1.361.138.057.273.119.412.175l.016.011c.103.034.16.057.267.061a.283.283 0 0 0 .109-.017.314.314 0 0 0 .186-.15.316.316 0 0 0 .022-.236c-.016-.05-.038-.076-.053-.097-.06-.084-.102-.107-.161-.153a4.513 4.513 0 0 0-.203-.147c-.152-.104-.333-.221-.489-.325a4.948 4.948 0 0 1-.325-.231.304.304 0 0 0-.028-.025l-3.857-2.712c-.008-.006-.02-.001-.028-.006-1.322-1.852-2.565-3.792-4.01-5.577-.738-.912-1.585-2.507-2.96-3.038-.066-.392-.216-1.117-.747-1.634-.452-.44-1.106-.641-1.84-.686a5.678 5.678 0 0 0-.349-.01zm11.806 1.017q.3 0 .792.164.843.28 1.747 1.174.903.893.722 1.656-.18.763-.702 1.144-.432.315-1.04.315-.129 0-.265-.014-.783-.08-1.345-1.234-.562-1.154-.522-2.058.04-.903.281-1.064.117-.083.332-.083zm-.082-.697q-.414 0-.671.178-.542.382-.602 1.566-.06 1.184.682 2.57.743 1.384 1.807 1.515.203.024.395.024.814 0 1.431-.446.763-.552.953-1.566.191-1.013-.812-2.147Q97.03.959 95.866.587 95.276.4 94.85.4zm1.602 7.431v3.954h.662V7.83zM108.926.893v16.36h-7.142v-.79h3.612V6.769h2.222V.893zM106.85 0v6.042h-2.222v9.778h-3.695V18h8.76V0zm9.578.601c1.074 0 2.419.552 3.07 1.202.568.57.643 1.324.664 2.025h-7.435c.02-.7.095-1.455.664-2.025.65-.65 1.963-1.202 3.037-1.202zm0-.601c-1.274 0-2.645.589-3.448 1.392-.824.824-.918 1.91-.918 2.72v.317h8.732v-.316c0-.812-.061-1.897-.885-2.72C119.105.588 117.703 0 116.429 0zm-2.306 8.792q.537 0 1.415.292 1.505.502 3.118 2.097t1.29 2.957q-.322 1.362-1.254 2.043-.77.563-1.858.563-.229 0-.472-.025-1.398-.143-2.401-2.204-1.004-2.061-.932-3.674.072-1.613.502-1.9.209-.15.592-.15zm-.147-1.244q-.738 0-1.198.318-.968.68-1.075 2.795-.108 2.115 1.218 4.588t3.226 2.706q.363.045.707.045 1.453 0 2.555-.797 1.362-.986 1.702-2.796.34-1.81-1.451-3.835-1.792-2.025-3.871-2.688-1.054-.336-1.813-.336zM124.908 0c-.93 0-1.745.684-1.745 1.562V18h1.136V1.562c0-.43.379-.57.616-.57.25 0 .634.175.634.703v10.804h1.136V1.695c0-.88-.87-1.695-1.777-1.695zm12.98.699q1.266.749 1.266 2.247h-2.521q0-1.498 1.255-2.247zm1.266 2.946q-.284 1.002-1.266 1.002t-1.235-1.002zm7.269 1.751v1.195h-17.06V5.396zM137.888 0q-1.934.729-1.934 3.128 0 .912.395 1.519h-7.664v2.642h18.406V4.647h-7.634q.395-.607.395-1.519 0-2.4-1.964-3.128zm-4.837 14.172c1.074 0 2.419.552 3.07 1.202.568.57.643 1.324.664 2.025h-7.435c.02-.701.095-1.456.664-2.025.65-.65 1.963-1.202 3.037-1.202zm0-.601c-1.274 0-2.645.588-3.448 1.392-.824.824-.918 1.909-.918 2.72V18h8.732v-.316c0-.812-.061-1.897-.886-2.721-.803-.804-2.206-1.392-3.48-1.392zm13.129-2.921v6.46h-4.333v-6.46zm-5.224-.911V18h6.135V9.739zm14.249-3.793c.87 0 1.96.447 2.486.974.461.46.522 1.072.538 1.64h-6.022c.017-.568.077-1.18.538-1.64.527-.527 1.59-.974 2.46-.974zm0-.487c-1.032 0-2.142.477-2.793 1.128-.667.667-.743 1.546-.743 2.203v.257h7.073V8.79c0-.657-.05-1.536-.718-2.203-.65-.651-1.786-1.128-2.819-1.128zm-6.114 7.361v4.617h.772V12.82zm5.307.006v4.611h.771v-4.611zm5.402 0v4.611h.772v-4.611zM163.537.992v2.405q-.531-.792-3.187-.792h-1.965V.992zm.03-.902q-1.082.2-3.217.2h-2.636v3.017h2.636q1.393 0 1.995.29.61.291 1.192.833l.03 13.48h1.163V.09zm6.849 2.981c-.27.13-.6.49-.1.55.24-.01.79-.26.69-.49a.221.221 0 0 1-.157.067c-.142 0-.287-.127-.433-.127zm-1.97.09c-.33.08-.5.44-.08.52l.021.002c.242 0 .901-.294.358-.361-.09-.06-.18-.16-.3-.16zm2.63-2.51c.59.69 1.111 1.49 1.211 2.41.1.66.13 1.321.23 1.971-.47-.04-.33-.77-.24-1.12.08-.69-.29-1.33-.55-1.941-.18-.33-.35-.85-.81-.86-.51.09-.84.52-1.171.89-.34-.34-.7-.71-1.17-.85a.236.236 0 0 0-.082-.013c-.105 0-.229.046-.285.046-.05 0-.049-.034.056-.164.064-.224.196-.29.359-.29.238 0 .543.141.8.141a.561.561 0 0 0 .112-.01c.084.004.169.007.254.007.437 0 .876-.067 1.287-.218zm-.16.76c.39.1.48.64.67.96.24.56.531 1.17.341 1.801-.15.3.04.68.02.9-.334.235-.627.73-1.07.73a.631.631 0 0 1-.15-.02c-.44-.09-.66-.51-1.001-.71-.246.238-.392.73-.798.73a.618.618 0 0 1-.183-.03c-.37-.08-.86-.04-.97-.49-.19-.46-.21-.97-.24-1.47a.324.324 0 0 0 .06.006c.203 0 .222-.235.24-.436.078-.293.288-.429.52-.429.158 0 .325.062.47.178.17.19.69.34.58.64-.05.18-.11.371-.17.561l.42.56c.04-.29.471-.53.221-.82-.04-.13-.19-.3-.17-.4.18-.32.42-.6.7-.84a.322.322 0 0 1 .23-.103c.268 0 .537.351.77.382.23-.25-.02-.35-.25-.48a.701.701 0 0 0-.486-.196c-.25 0-.5.13-.654.356-.19.114-.322.494-.49.494-.052 0-.108-.037-.17-.134-.306-.244-.672-.518-1.072-.518a.855.855 0 0 0-.179.018c-.283.059-.537.632-.559.632l-.001-.001c-.01-.47.21-.89.34-1.351a.612.612 0 0 1 .596-.477c.173 0 .348.075.475.237.297.11.516.634.796.634.049 0 .1-.017.154-.054.31-.33.56-.72 1.01-.86zm-1.42 6.943c1.27 1.31 2.441 4.632 2.741 5.993-.49-.4-1.16-.66-1.31-.91-.16-.26-.6-2.792-1.431-5.083zm4.522-2.381c2.401 1.38 6.583 8.174 7.473 9.264-1.5-.95-2.98-1.91-4.592-2.691-2.26-1.11-4.192-2.911-6.033-4.592 1.521-.51 2.612-1.37 3.152-1.981zm-2.491 8.624c.32.19.61.45.96.59-.21.52-.34 1.1-.77 1.51-.08.13-.196.172-.328.172-.228 0-.504-.123-.735-.123-.016 0-.032 0-.048.002.28-.7.7-1.01.92-2.151zm.68-9.365c.06.126.138.167.22.167.108 0 .224-.071.32-.116.24.17 1.07.15.58.51-.31.42-1.967 1.566-3.118 1.768-.498.087.337.873.607 1.153 1.561 1.4 3.092 2.882 4.963 3.892 1.17.66 2.4 1.25 3.531 1.98.54.781 1.181 1.502 1.591 2.362-.41.12-.81.29-1.23.39a2.89 2.89 0 0 1-.703.082c-.66 0-1.325-.197-1.618-.512-.54-.57-1.131-3.001-1.441-3.892-.044-.1-.107-.133-.175-.133-.135 0-.292.132-.369.132-.016 0-.028-.006-.036-.019a.391.391 0 0 0-.387-.376c-.175 0-.339.127-.314.396-.06.63-.18 1.26-.48 1.831-.037.097-.114.134-.215.134-.284 0-.761-.293-1.086-.374.13-.77-.92-4.712-4.002-8.014-.107-.116-.577-.611-.536-.611.005 0 .017.006.036.02.158.042.336.07.512.07.337 0 .668-.104.839-.42.026-.077.059-.108.097-.108.137 0 .344.399.563.399a.92.92 0 0 0 .514.155c.29 0 .578-.131.777-.355.19-.17.37-.34.56-.51zM171.167 0c-.315.14-.865.28-1.36.28-.072 0-.142-.004-.211-.01a.804.804 0 0 1-.143.012c-.337 0-.7-.18-1.025-.18a.622.622 0 0 0-.353.098c-.55.8-1.05 1.69-1.11 2.681-.11 1.901-.06 2.562 1.44 4.122.59 1.341 1.691 5.713 2.021 6.904.36.34-.45 2.2-.79 2.66-.185.256-.673.268-1.197.268h-.172c-.471 0-.948.01-1.242.193-.28.18-.38.85-.22.94.15-.23.45-.54.66-.57-.2.21.5.11.65.16.405.007.814.041 1.225.041.198 0 .397-.008.596-.03.09-.04.186-.102.229-.102.032 0 .032.038-.029.151.283.074.602.111.913.111.7 0 1.363-.187 1.508-.56.3-.551.58-1.131.78-1.732.256.054.577.234.835.234a.38.38 0 0 0 .206-.054c.28-.19.57-1.08.73-1.67.016-.062.099-.092.183-.092.081 0 .163.028.188.082.3.6.8 2.44 1.28 3.211.362.571 1.24.852 2.175.852a4.48 4.48 0 0 0 1.717-.332c.65-.28 1.13-.22.99-.58-.22-.6-.6-1.17-1-1.68.58.36 1.16.73 1.74 1.09.049.174.17.243.292.243.237 0 .483-.256.24-.513-2.272-3.282-5.884-8.875-8.385-10.685-.4-.35-.87-.62-1.39-.75-.17-.44-.12-1.031-.22-1.531-.1-.99-.7-2.632-1.751-3.262zm16.621.78c.706 0 1.058.28 1.058.839 0 .56-.346 1.078-1.038 1.558-.16.053-.18.6-.06 1.638l.939 6.672c-.96.28-1.945.786-2.957 1.519V2.797c.346-1.345 1.032-2.017 2.058-2.017zm-.09-.78c-.778 0-1.37.217-1.778.65-.42.446-.716 1.129-.89 2.047L185.01 18h1.06c-.08-2.29.075-3.25.561-3.93.486-.679 1.715-1.418 3.113-1.645-.879-5.5-1.47-8.582-1.297-8.769.732-.492 1.099-1.152 1.099-1.977 0-1.12-.58-1.679-1.737-1.679a3.659 3.659 0 0 0-.111 0z"/></svg>