<svg xmlns="http://www.w3.org/2000/svg" width="123.998" height="18"><path d="M18.058.568q-.111.037-.111.128t.07.146q.027.022.054.022.04 0 .077-.05.063-.081.021-.163-.041-.083-.11-.083zM2.67.47q-.153 0-.296.282.084.183.264.237.028.01.054.01.131 0 .224-.229 0-.255-.194-.292Q2.695.47 2.669.47zM1.665.787q-.042.128.027.238l-.583.073q-.014-.164.556-.31zm.568.436zm.105-.003q.12 0 .195.033.027.012 0 .012-.052 0-.288-.04.05-.005.093-.005zm2.564 1.252q.035 0 .097.068 1.125 1.223 2.792 2.865Q9.46 7.048 9.667 7.724 8.305 7.468 7.34 6.318q-.966-1.15-1.681-2.236-.716-1.086-.799-1.414-.017-.196.042-.196zm.046-.868q.202 0 .384.096 4.321 4.308 4.946 5.604.584 1.405.764 2.154-.076.11-.182.11-.087 0-.193-.074l-.57-1.515q-.43-1.296-2.104-2.875-1.674-1.579-2.424-2.5-.441-.542-.676-.542-.164 0-.227.268-.108.455-.38.455-.115 0-.26-.081.126-.858.542-1.022.198-.078.38-.078zm.357 6.43q.666 1.405.541 2.83-.125 0-.236.236-.045-.403-.277-.403-.051 0-.112.02.292-1.405.084-2.683zM2.827.346q.066 0 .116.013.25.063.292.237.029.122.058.122.013 0 .025-.022.042-.073.056-.164.305.53.041 1.57t.848 1.24q1.028 3.104 2.209 4.72 1.18 1.615.986 3.038-.449-.438-.993-.438-.113 0-.23.019.042-1.296-.472-2.556t-.945-1.889q-.43-.63-1.16-1.497-.73-.867-.722-1.789.007-.921.194-1.286.188-.365.181-.584-.003-.091-.027-.091-.035 0-.112.182-.132.31-.73.328l-.07.001q-.568 0-1.235-.274l.82.073q.404.11.601.11.162 0 .183-.074.049-.164-.076-.192-.125-.027-.257-.027t-.201.055l.026.052-.29-.052Q1.762.787 1.887.623q.028-.055.097-.055-.028.183.049.274.028.034.056.034.046 0 .09-.098.07-.155-.125-.228.511-.204.773-.204zm15.412.04q.375 0 .555.365.056.055.695.2v.056l-.695.073q-.597 0-.75-.12-.153-.118-.146-.273.007-.155.188-.155.18 0 .25.082t.035.173q-.035.092-.132.147h.028q.18 0 .187-.22.007-.237-.299-.273-.389 0-.291.374.092.357.854.357l.076-.001q.431-.037.765-.128L19.53.97q1.236 1.004 1.16 2.29-.077 1.288-.966 2.136-.889.85-1.584 1.871-1.083 1.734-1.167 2.72-.083.986.376.986.458 0 1.118-.721.66-.721 1.34-.74 1.82.055 1.612 2.209-.667-.93-1.5-.93-.417 0-1.14.474-1.097.766-1.667.766l-.472-.091q-.861-.84-.583-2.482.416-1.187 1.125-4.235.486-1.734.965-2.628.48-.895 1.022-.913.291 0 .944.365.027.01.047.01.094 0 .037-.21-.526-.429-1.226-.429-.225 0-.47.045-.208 0-.506-.146-.3-.146-.3-.694.251-.237.543-.237zM4.666 3.05q1.083 1.825 1.986 3.002.903 1.178 1.702 1.588.799.411 1.48.43.083.145 1.653 4.617l-.097.055-3.738-3.14q.028-.273-1.104-1.962-1.132-1.687-1.994-4.46l.112-.128zM8.5 10.918l2.07 1.66q.07.256-.5.348-.127.02-.233.02-.37 0-.49-.248-.152-.32-.389-.831-.236-.511-.458-.95zm7.071-.785q0 .767.167 1.332.43 1.004 1.153 1.023h.038q.711 0 1.699-.657.938-.625 1.365-.625.034 0 .066.004.416.055.903.566.486.51.514.894.05.311-.043.311-.06 0-.18-.128-.399-1.05-1.024-1.05h-.01q-.633.01-1.557.648-.923.639-2.153.639t-1.368-1.04q-.14-1.04.43-1.917zM5.277 11.192l.208.547q.195-.255.299-.3l.005-.002q.088 0-.304 1.543l-.583.238q-.153-.146.09-.904.243-.757.285-1.122zm14.763 1.14q.461 0 .727.502-.18.384-.847.603-.514 0-1.042-.566.685-.539 1.162-.539zm-1.607.758q.207.265.448.438h-1.883q.692-.095 1.435-.438zm-7.182 1.15q-1.554 2.935-4.48 3.011-2.913-.076-4.467-3.011zm11.239.018q-1.554 2.935-4.48 3.012-2.913-.077-4.48-3.012zM3.066.008q-.084 0-.179.013-.222 0-1.264.42-.834.255-.903.657l.028.62.417-.2q.68.292 1.139.292.458 0 .347.41-.111.411.028 1.37.139.958 1.097 1.934.959.977 1.188 2.556.23 1.578-.41 3.641l.209-.164q.004-.004.007-.004.046 0-.216.816-.277.867-.757.894-.084.005-.16.005-.348 0-.486-.105-.155-.12-.462-.12l-.045.001q-.34.01-.34.302v.182H1.33Q2.93 17.982 6.777 18q3.849-.018 5.446-4.472l-4.279.037q0-.165-.264-.356-.129-.094-.296-.094-.175 0-.391.103-.13.061-.278.061-.337 0-.771-.317.097-.639.236-1.14.139-.503.528-.594.036-.008.073-.008.362 0 .816.811.264-.675.153-1.825l.139.128q1.042 2.3 1.257 2.701.163.305.634.305.15 0 .331-.031.75-.128.737-.475l.639.42.486-.237-1.07-3.048q.264 0 .487-.292-.264-1.096-.82-2.446-.39-.822-.792-1.278Q8.681 4.603 7.5 3.39T5.763 1.518q-.373-.28-.775-.28-.226 0-.461.088-.653.246-.792 1.214-.042-.037.07-.73.11-.694-.05-1.287-.138-.514-.689-.514zM18.286 0q-.252 0-.478.094-.292.11-.347.42-.111.383.097.757.208.374.653.466-.89 1.058-1.514 3.741-.584 2.556-.973 3.779-1.042 1.113-1.035 2.236.007 1.122.424 1.597.301.343.878.438h-3.434q1.597 4.454 5.446 4.472 3.848-.018 5.445-4.472h-2.674q.153-.11.313-.256.156.245.354.245.083 0 .174-.044.347-.219.139-1.004.194-2.245-.459-2.865-.653-.621-1.473-.621-.75 0-1.625.849-.543.526-.743.526-.124 0-.118-.198.014-.52.611-1.761.403-.876 1.75-2.254 1.348-1.378 1.334-2.775-.014-1.396-.597-2.099-.584-.703-1.292-.794-.111-.2-.292-.328-.18-.128-.48-.146Q18.329 0 18.287 0zm11.203 1.053l-.651 10.992h-.326L27.88 1.053zm-1.617 11.512q.225 0 .487.016v4.442q.02.268-.21.268-.364 0-1.015-1.32-.651-1.322-.651-2.797 0-.61 1.389-.61zm1.563 0q1.413 0 1.413.629 0 1.455-.65 2.776-.652 1.321-1.015 1.321-.23 0-.23-.268v-4.442q.258-.016.482-.016zM25.448 0v1.053h1.513l1.073 10.302q.093.671-.068.671h-.009q-.464-.206-.873-.206-.622 0-1.118.474-.518.632.057 2.374.574 1.743 1.082 2.537.507.795 1.56.795 1.226 0 1.657-.795.43-.794 1.044-2.527.612-1.733 0-2.384-.618-.458-1.235-.458-.417 0-.834.209-.095 0 0-.69l1.054-10.302h1.512V0zM37.31 2.31c-.203.097-.451.368-.075.413.18-.007.594-.195.52-.368a.166.166 0 0 1-.12.05c-.106 0-.215-.095-.325-.095zm-1.482.067c-.248.06-.376.331-.06.391l.016.001c.182 0 .678-.22.27-.271-.068-.046-.136-.12-.226-.12zM37.807.49c.444.52.835 1.12.91 1.813.075.497.098.993.173 1.482-.354-.03-.248-.58-.18-.843.06-.519-.219-1-.414-1.459-.136-.248-.264-.64-.61-.647-.383.068-.632.391-.88.67-.256-.256-.526-.535-.88-.64a.177.177 0 0 0-.061-.01c-.08 0-.172.036-.215.036-.037 0-.036-.026.043-.124.048-.168.147-.218.27-.218.178 0 .408.106.6.106a.39.39 0 0 0 .085-.008A2.808 2.808 0 0 0 37.807.49zm-.12.572c.293.075.36.481.503.722.18.421.4.88.256 1.354-.113.226.03.512.015.677-.25.176-.471.548-.804.548a.475.475 0 0 1-.114-.014c-.33-.067-.496-.383-.752-.534-.185.179-.295.55-.6.55a.465.465 0 0 1-.137-.023c-.278-.06-.647-.03-.73-.369-.143-.346-.158-.73-.18-1.106a.244.244 0 0 0 .045.005c.153 0 .166-.177.18-.328.059-.22.216-.323.392-.323.118 0 .244.047.353.135.128.143.52.255.436.481a9.4 9.4 0 0 1-.128.421l.316.422c.03-.218.354-.399.166-.617-.03-.098-.143-.226-.128-.301a2.36 2.36 0 0 1 .527-.632.242.242 0 0 1 .172-.077c.202 0 .405.264.58.288.173-.188-.015-.264-.188-.361a.527.527 0 0 0-.366-.148.604.604 0 0 0-.492.268c-.143.086-.242.371-.368.371-.04 0-.081-.028-.128-.1-.23-.184-.505-.39-.806-.39a.643.643 0 0 0-.135.014c-.212.044-.404.474-.42.474-.008-.354.157-.67.255-1.016a.46.46 0 0 1 .448-.359c.13 0 .262.056.357.178.224.084.388.477.599.477a.201.201 0 0 0 .116-.04c.233-.249.42-.542.76-.647zm-1.069 5.22c.955.986 1.836 3.484 2.061 4.507-.368-.3-.872-.497-.985-.685-.12-.195-.452-2.099-1.076-3.821zm3.4-1.79c1.806 1.038 4.95 6.147 5.62 6.967-1.128-.715-2.242-1.437-3.453-2.024-1.7-.835-3.152-2.19-4.536-3.453 1.143-.384 1.963-1.03 2.37-1.49zm-1.873 6.485c.241.143.46.339.722.444-.158.391-.255.827-.579 1.136-.06.098-.147.129-.246.129-.171 0-.38-.093-.553-.093-.012 0-.024 0-.036.002.21-.527.527-.76.692-1.618zm.512-7.041c.045.094.104.125.165.125.081 0 .168-.054.241-.088.18.128.805.113.436.384-.233.316-1.48 1.177-2.345 1.33-.374.065.254.656.457.867 1.174 1.053 2.325 2.166 3.732 2.926.88.497 1.805.94 2.655 1.49.406.586.888 1.128 1.196 1.775-.308.09-.61.218-.925.293a2.173 2.173 0 0 1-.528.062c-.497 0-.997-.148-1.217-.385-.407-.429-.85-2.257-1.084-2.927-.033-.075-.08-.1-.13-.1-.103 0-.22.1-.279.1a.032.032 0 0 1-.027-.015.294.294 0 0 0-.29-.283c-.133 0-.255.096-.237.298-.045.474-.135.948-.36 1.377-.028.073-.086.101-.162.101-.214 0-.573-.22-.817-.281.098-.58-.692-3.544-3.009-6.026-.08-.088-.434-.46-.403-.46.003 0 .012.005.027.016.119.03.252.052.384.052.254 0 .503-.078.632-.316.02-.058.044-.081.072-.081.103 0 .26.3.424.3.12.08.253.116.386.116a.791.791 0 0 0 .585-.267c.142-.128.278-.256.42-.383zM37.874 0c-.236.105-.65.21-1.022.21-.054 0-.107-.002-.159-.007a.604.604 0 0 1-.107.01c-.253 0-.526-.137-.77-.137a.468.468 0 0 0-.266.074c-.414.602-.79 1.272-.835 2.017-.083 1.429-.045 1.926 1.083 3.1.444 1.007 1.271 4.295 1.52 5.19.27.256-.339 1.655-.595 2.001-.139.192-.506.201-.9.201h-.129c-.354 0-.713.008-.934.145-.21.136-.286.64-.166.707.113-.173.339-.406.497-.428-.15.157.376.082.489.12.304.005.612.03.92.03.15 0 .3-.005.45-.023.067-.03.14-.076.171-.076.025 0 .025.028-.021.114.213.056.452.083.686.083.526 0 1.025-.14 1.134-.422a8.1 8.1 0 0 0 .587-1.301c.192.04.433.176.627.176a.29.29 0 0 0 .155-.04c.21-.144.43-.813.55-1.257.011-.046.074-.069.137-.069.06 0 .122.021.14.062.227.45.603 1.835.964 2.414.272.43.933.641 1.635.641a3.36 3.36 0 0 0 1.291-.25c.49-.21.85-.165.745-.436-.166-.451-.451-.88-.752-1.264.436.271.872.55 1.309.82.036.132.126.184.219.184.178 0 .363-.194.18-.387-1.708-2.467-4.424-6.673-6.305-8.034a2.532 2.532 0 0 0-1.046-.564c-.127-.331-.09-.775-.165-1.152-.075-.744-.527-1.978-1.317-2.452zm2.871 15.708c.22 0 .353.037.421.076.2.128.105.433.073.624h-.989c-.023-.195-.131-.493.073-.624.069-.039.201-.076.422-.076zm-5.491 1.153v.686h-.938v-.686zm4.871 0v.686H35.48v-.686zm1.13 0v.686h-.904v-.686zm4.536 0v.686h-4.31v-.686zm1.212 0v.686h-.987v-.686zm-8.243-1.84l-.32.32 1.07 1.067h-5.647V18h13.593v-1.592h-5.477l1.07-1.066-.32-.32-.989.985c-.06-.597-.469-.735-.995-.752-.563.015-.909.143-.996.752l-.989-.986zM58.54.678v4.805h-3.224V.678zM54.652 0v6.146h4.564V0zm-5.196 7.634v3.688h14.959V7.634h-14.96m14.345.614v2.46H50.07v-2.46H63.8zm-11.096 6.904c.799 0 1.799.41 2.283.894.423.424.479.985.494 1.507H49.95c.015-.522.07-1.083.494-1.507.484-.484 1.46-.894 2.26-.894zm0-.447c-.948 0-1.968.438-2.566 1.035-.613.613-.682 1.42-.682 2.025V18h6.496v-.235c0-.604-.046-1.412-.659-2.025-.598-.597-1.641-1.035-2.59-1.035zm8.012-1.895l-.015.008 2.697 5.167h1.017l-2.697-5.175zm-2.26.008l-1.016.007L60.136 18l1.017-.008-2.696-5.174zM77.1.74c.511 1.067-.616 1.473-1.433 5.02-.212 3.452-2.294 7.859-3.216 9.311-.451 1.01-.976 1.7-1.574 2.072a1.004 1.004 0 0 1-.13.01c-.257 0-.497-.114-.634-.467.335-.41.597-1.263.613-1.553.038-.667-.299-.8-.638-.8-.226 0-.454.059-.572.059-.032 0-.056-.005-.07-.016-.842-.705-1.942-1.18-2.035-1.499.25-2.198 2.13-4.697 4.374-7.075C77.193 1.998 75.577 1.448 77.1.74zM76.937 0c-.444 0-.878.192-1.005.508-.175.436-.9 1.905-2.582 3.23-2.658 1.518-5.569 5.374-6.278 7.329-.34.938-.644 1.826-.657 2.77.066.039 1.784.674 2.283 1.646.045.088.097.123.153.123.213 0 .497-.49.784-.49.03 0 .058.004.087.015.808.305-.473 1.528-.48 1.648-.046.859 1.19 1.035 1.416 1.181.093.027.18.04.26.04.212 0 .33-.23.617-.438 2.016-1.46 4.253-8.037 4.598-9.206.319-1.115.374-2.56.48-3.143.495-2.21 1.364-3.533 1.414-3.756C78.264.413 77.59 0 76.937 0zm15.91.786l.24.1-7.204 16.045c-.123-.079-.808-.415-1.031-.676 0-.173.123-.291.48-.767.375-.5.774-1.02.32-1.691-.21-.31-.498-.536-.872-.536-.233 0-.499.087-.8.295-.627-.373-1.234-.56-2.221-.56-.174-1.521-.367-2.482-.58-3.683h7.145L92.847.786zM92.832 0c-.04 0-.082.002-.125.006l-4.583 8.166c-.16.267-.327.4-.5.4a.465.465 0 0 1-.06.004c-.674 0-2.582-1.229-5.725-3.686-.721-.748-1.095-1.495-1.121-2.242-.027-.748.197-1.175.67-1.281.143-.033.272-.049.387-.049.266 0 .458.087.574.259.167.247.157.494-.03.74-.093.124-.178.186-.255.186-.077 0-.145-.062-.205-.186-.12-.246-.247-.37-.38-.37-.254.094-.314.314-.18.66.123.323.35.484.682.484l.078-.003c.373-.027.634-.153.78-.38a1.44 1.44 0 0 0 .22-.8c0-.308-.1-.575-.3-.801-.2-.227-.49-.37-.87-.43a1.37 1.37 0 0 0-.214-.018c-.31 0-.618.106-.927.317-.38.26-.6.688-.66 1.281-.06.594.103 1.248.49 1.962s1.084 1.431 2.091 2.152c1.008.72 1.965 1.408 2.873 2.061.02.086-.026.128-.141.128a.711.711 0 0 1-.1-.008h-5.124c.427 2.442.687 4.17.78 5.185.12-.01.24-.014.359-.014.935 0 1.87.278 2.804.834.2-.267.417-.4.651-.4.233 0 .354.127.36.38-.407.65-1.004 1.282-1.21 2.022L86.161 18 93.788.526c-.242-.35-.56-.526-.956-.526zm6.466.591c.673 0 1.128.1 1.508.529.521.52.621 1.29.572 1.992-.01 1.612-.294 3.21-.766 4.75-.37 1.266-.811 2.51-1.215 3.766h-.196c-.017-.062-1.925-5.289-2.01-8-.015-.79-.128-1.684.412-2.341.335-.459 1.01-.696 1.695-.696zm.416 11.625v.684c0 .124.077.234.194.276.171.062.328.172.49.304h-2.391c.161-.132.318-.242.49-.304a.294.294 0 0 0 .193-.276v-.684zm1.644 2.477c.06.121.07.367.054.538h-4.376a2.059 2.059 0 0 1-.023-.538zm-.465 1.819c-.318.471-.952.9-1.619.9-.72 0-1.422-.417-1.76-.9zM99.329 0c-1.275 0-2.737.735-2.737 2.246-.073.922.018 1.85.114 2.768.29 2.285 1.151 4.436 1.86 6.614h-.017c-.095 0-.446.01-.446.294v.784c-.402.198-.682.5-.955.723h-.876a.294.294 0 0 0-.294.294v.792c0 .157.184.287.341.293.071.133.083.252.101.375l-.329-.01h-.004a.307.307 0 0 0-.299.294v.76c0 .163.131.295.294.295.204 0 .674.01.756.01h.011c.368.843 1.355 1.468 2.425 1.468 1.041 0 1.944-.67 2.284-1.478h.764c.275 0 .294-.192.294-.294v-.761c0-.128.055-.285-.59-.285a1.48 1.48 0 0 0-.016-.368c.284-.017.415-.142.415-.3v-.791a.294.294 0 0 0-.293-.294h-.876c-.273-.222-.552-.525-.955-.723v-.784c0-.16-.128-.29-.287-.293.007-.037 1.84-5.082 1.93-7.732.07-.998.169-2.12-.499-2.956C101.03.368 100.591 0 99.33 0zm13.28.893v16.36h-7.142v-.79h3.613V6.769h2.221V.893zM110.533 0v6.042h-2.222v9.778h-3.695V18h8.761V0zm7.055 1.133q.488 0 1.288.266 1.37.457 2.839 1.909Q123.183 4.76 122.889 6q-.293 1.24-1.142 1.86-.7.512-1.691.512-.208 0-.43-.023-1.272-.13-2.186-2.006-.914-1.877-.848-3.345.065-1.468.456-1.73.19-.135.54-.135zM117.454 0q-.672 0-1.09.29-.882.62-.98 2.545-.098 1.925 1.11 4.176 1.207 2.252 2.936 2.464.331.04.644.04 1.323 0 2.326-.725 1.24-.898 1.55-2.545.31-1.648-1.322-3.492Q120.997.91 119.104.306q-.96-.306-1.65-.306zm1.676 11.336V18h1.115v-6.664z"/></svg>