<svg xmlns="http://www.w3.org/2000/svg" width="52.517" height="18"><path d="M11.386 8.203c-.51.04-.793.296-.847.767.067.51.35.78.847.806.498-.026.76-.295.787-.806-.04-.47-.303-.726-.787-.767zm.06-1.694c.364 0 .7.068 1.01.202a2.659 2.659 0 0 1 1.371 1.361c.134.303.201.622.201.958 0 .35-.067.676-.202.978a2.567 2.567 0 0 1-2.38 1.523c-.362 0-.702-.064-1.018-.192a2.426 2.426 0 0 1-.816-.534 2.621 2.621 0 0 1-.545-.797 2.38 2.38 0 0 1-.202-.978c0-.336.068-.655.202-.958.134-.302.316-.571.545-.806.228-.236.5-.42.816-.555a2.574 2.574 0 0 1 1.019-.202zm-.04-.685c-.443 0-.86.084-1.25.252-.39.168-.726.396-1.008.685a3.36 3.36 0 0 0-.676 1.009 3.053 3.053 0 0 0-.252 1.24c0 .444.084.857.252 1.24.168.384.393.716.676.999a3.2 3.2 0 0 0 2.258.927c.444 0 .857-.084 1.24-.252a3.36 3.36 0 0 0 1.009-.675c.289-.283.518-.615.686-.999.168-.383.252-.796.252-1.24 0-.444-.084-.857-.252-1.24a3.268 3.268 0 0 0-1.694-1.694 3.053 3.053 0 0 0-1.24-.252zm6.805-3.574c-.09 0-.179.004-.268.012h-.042c-1.005 0-1.87.969-1.797 1.965-.055.784.108 1.558.151 2.338a.35.35 0 0 0 .326.187.554.554 0 0 0 .455-.245c.237-.33.132-.758.036-1.118-.106-.643-.145-1.359.208-1.936.228-.305.603-.457.977-.457.407 0 .814.18 1.029.541.345.506.252 1.241-.19 1.659-.427.505-1.067.838-1.341 1.464-.174.63-.028 1.288-.087 1.93-.056 2.342-.085 4.684-.13 7.027.122.101.264.12.411.12.087 0 .174-.006.26-.006.07 0 .14.004.206.019.319-.163.293-.573.27-.876-.113-2.457-.03-4.917-.092-7.375.006-.28-.085-.602.211-.762.59-.572 1.217-1.142 1.58-1.894.368-1.09-.457-2.397-1.6-2.536a2.837 2.837 0 0 0-.573-.057zm5.629 0q-.247 0-.27.218l.24-.053q.15 0 .083.158-.173.165-.052.488-.22.475-.848.475l-.076-.002q.03.353-.15.533-.63.36-.63.66.495.234.164.571-.33.338-.33.458.218.068.3.233.376.916.759 1.3l-.03.307q.367 0 .405-.39-.69-.841-.668-1.795.03-.954 1.209-1.877.338-.188.338-.728 0-.556-.443-.556zm4.506 0q-.443 0-.443.556 0 .54.322.728 1.194.923 1.224 1.877.023.954-.683 1.795.053.39.405.39l-.022-.308q.375-.383.758-1.299.09-.165.293-.233 0-.12-.323-.458-.323-.337.165-.57 0-.3-.623-.661-.18-.18-.165-.533l-.075.002q-.614 0-.833-.475.112-.323-.053-.488-.068-.158.083-.158l.24.053q-.023-.218-.27-.218zm-2.257 4.115q.882 0 1.768.675.691.586.083 1.344h-3.71q-.607-.758.099-1.344.878-.675 1.76-.675zM23.435 8.64q-1.044 1.216-1.044 1.854.083.368.323.368.316 0 .406-.285 0-.946.405-1.585l-.09-.352zm5.316 0l-.09.352q.405.639.405 1.585.083.285.406.285.233 0 .323-.368 0-.638-1.044-1.854zm-3.289.135q.488 0 .488.518v3.912q-1.531 0-1.734-.984-.203-.984-.023-3.446zm2.508 0q.203 2.462-.007 3.446-.21.984-1.742.984V9.293q0-.518.488-.518zm-1.99-4.182v.27q0 .188-.15.188-.233 0-.555-.27h-.166l.518.975-.165.053q-.27-.353-.54-.728-.043-.02-.075-.02-.082 0-.098.125l.405.706q-.285.232-.285.405-.45 0-.676.353-.653.458-.653 1.014 0 .42.27.96-.187 1.044-.187 2.629 0 1.043.36 1.674.368.63 2.103.63 1.734 0 2.094-.63.368-.63.368-1.674.015-1.585-.172-2.613.27-.556.27-.976 0-.556-.66-1.014-.234-.353-.67-.353 0-.173-.307-.405l.405-.706q0-.124-.077-.124-.03 0-.073.019-.27.375-.54.728l-.165-.053.503-.976h-.15q-.338.27-.579.27-.127 0-.127-.187v-.27zm-2.967 6.621l-.028.001q-.879 1.554-.879 2.448 0 .893.308 1.434.315.54.856.653-.728-.976-.728-1.562 0-.578.135-.946.12 1.029.54 1.45-.187-.827-.172-1.743.007-.923.307-1.374.015-.36-.339-.36zm6.16 0q-.354 0-.34.361.286.45.3 1.374.016.916-.164 1.742.42-.42.54-1.449.135.368.135.946 0 .586-.728 1.562.54-.113.841-.653.308-.54.308-1.434 0-.894-.864-2.448h-.028zm3.321-.237v1.225h2.703v-1.225h-.53c-.154.272-.33.449-.529.53a.76.76 0 0 1-.59 0c-.195-.081-.37-.258-.524-.53zm1.64-4.458v2.03h-.614v2.483h.662V9.476h.768V7.347h.95c.168 1.324.628 2.308 1.378 2.952.75.643 1.678 1.016 2.78 1.12 1.104.102 1.829.248 2.175.435.345.188.518.377.518.569h1.346c-.206-.493-.482-.868-.827-1.126-.346-.257-.988-.42-1.926-.485-.937-.067-1.688-.19-2.25-.37a3.588 3.588 0 0 1-1.507-.96c-.441-.46-.78-1.447-1.015-2.963zm-.893 7.115l-1.54 1.823h.75l.79-.942.798.942.774-.942.798.942.79-.942.797.942.79-.942.796.942.775-.942.797.942.798-.942.774.942.797-.942.79.942h.752l-1.542-1.823-.797.881-.774-.88-.798.88-.797-.88-.775.88-.797-.88-.79.88-.797-.88-.79.88-.797-.88-.774.88-.798-.88zm8.139-9.187c-.409.032-.634.237-.678.613.054.409.28.624.678.646.398-.022.608-.237.63-.646-.033-.376-.243-.58-.63-.613zm.049-1.355c.29 0 .559.054.806.161a2.127 2.127 0 0 1 1.097 1.089c.108.242.162.498.162.767 0 .28-.054.54-.162.782a2.029 2.029 0 0 1-1.097 1.065 2.092 2.092 0 0 1-.806.153c-.29 0-.562-.05-.815-.153a1.94 1.94 0 0 1-.654-.428 2.097 2.097 0 0 1-.435-.637 1.905 1.905 0 0 1-.162-.782c0-.27.054-.525.162-.767.107-.242.253-.457.435-.645.183-.188.401-.336.654-.444.253-.107.524-.161.815-.161zm-.033-.549a2.5 2.5 0 0 0-1 .202c-.312.135-.58.317-.807.549-.226.23-.406.5-.54.806a2.443 2.443 0 0 0-.202.993c0 .354.067.685.202.992.134.306.314.572.54.798a2.56 2.56 0 0 0 1.807.742c.355 0 .686-.067.992-.201.307-.135.576-.315.807-.54.231-.227.414-.493.549-.8.134-.306.201-.637.201-.991 0-.355-.067-.686-.201-.993a2.615 2.615 0 0 0-1.356-1.355 2.443 2.443 0 0 0-.992-.202z"/><path d="M8.22.375c-9.625 0-9.625 17.25 0 17.25m0-17.25h36.047M8.22 17.625h36.047M51.954.375v17.25M44.267.375c9.625 0 9.625 17.25 0 17.25" fill="none" stroke="#000"/></svg>