<svg xmlns="http://www.w3.org/2000/svg" width="79.132" height="18"><path d="M3.73.474c.693 0 1.247.2 1.634.479.006.053.02.107.009.16-.05.248-.195.477-.396.63-.316.207-.697.267-1.057.356-.09.01-.019.031.031.04.23.04.707.099.971.099l.052-.001c.278-.032.54-.148.766-.311.079-.067.147-.15.205-.236.147.346.227.713.26.917.018.11.096.2.202.233 1.139.349 2.038 1.91 2.88 2.949 1.729 2.137 3.199 4.526 4.892 6.76-.937-.456-1.87-.916-2.81-1.374-1.92-1.01-3.92-1.816-5.604-3.09l-.008-.008c-.97-.808-1.963-1.66-2.339-2.793-.148-.92 1.757-2.577 1.542-2.646a.207.207 0 0 0-.064-.01c-.458 0-1.753 1.128-2.019 2.202-.003-.014-.01-.03-.014-.045-.073-.356-.154-1.256.068-1.98a.29.29 0 0 0 .01-.103 1.968 1.968 0 0 0-.123-.634c-.063-.17-.139-.344-.26-.765-.031-.108-.142-.328-.208-.345.186-.138.375-.28.645-.375a.434.434 0 0 0-.132.314c0 .23.164.415.365.415.2 0 .364-.186.364-.415V.894a.411.411 0 0 0-.255-.39c.053-.007.096-.019.154-.022.081-.006.16-.008.238-.008zm.67 7.763c.065.065.135.124.202.187.214.78.412 1.64.692 2.305.483 1.145 1.216 2.141 1.84 3.154a1.814 1.814 0 0 0-.385.27 6.831 6.831 0 0 0-.199.193 2.61 2.61 0 0 0-1.186-.897c.045-.723-.108-1.712-.34-2.787A34.903 34.903 0 0 0 4.4 8.237zm1.006.908c1.149.945 2.428 1.738 3.676 2.54-.018.91-.018 1.778.084 2.675a3.411 3.411 0 0 0-1.437-.736c-.02 0-.037.012-.057.012-.649-1.063-1.383-2.06-1.837-3.134-.156-.37-.293-.85-.429-1.357zm.407 5.254a2.5 2.5 0 0 1 .44.541.3.3 0 0 0 .257.14.29.29 0 0 0 .17-.053c.215-.156.347-.324.476-.446.047-.045.097-.08.148-.117l.149 2.722c-.213-.014-.435-.035-.637-.035-.264 0-.495.036-.633.172-.169-.134-.497-.164-.89-.164-.102 0-.207.002-.316.004l.836-2.764zM6.97 9.574c1.354.787 2.784 1.414 4.135 2.125a.244.244 0 0 0 .006.003c1.295.631 2.586 1.28 3.894 1.904.984 1.189 2.052 2.295 3.078 3.42l-2.15.362-4.267-4.635a.288.288 0 0 0-.037-.036c-1.499-1.137-3.152-2.082-4.66-3.143zM3.796 0c-.135 0-.273.005-.411.013C2.3.083 1.512.54 1.243 1.157c-.04.093-.146.314-.007.314a2.35 2.35 0 0 1 .341-.028c.418 0 .38.172.47.194.09.282.29.846.303 1.068-.244.86-.153 1.763-.064 2.198.15.732.63 1.584 1.261 2.38a.285.285 0 0 0 0 .166 35.3 35.3 0 0 1 .903 3.336c.251 1.168.393 2.277.317 2.823a.294.294 0 0 0 .221.328c.045.011.084.031.127.045l-.928 3.079a2.847 2.847 0 0 0-.593-.055c-.381 0-.756.05-1.064.05-.125 0-.24-.008-.34-.032a.546.546 0 0 0-.125-.012c-.436 0-1.428.306-1.34.879.15-.128.257-.159.375-.159.11 0 .23.027.405.027h.027c.254-.004.697-.083 1.053-.083.18 0 .338.02.438.08.236-.01.45-.013.649-.013.85 0 1.447.07 2.5.075a89.565 89.565 0 0 0 2.974-.079c.45.003.697.054.922.054h.04c.134-.004.265-.057.48-.057.123 0 .273.017.468.07-.25-.341-.877-.685-1.33-.685a.591.591 0 0 0-.302.071 5.081 5.081 0 0 0-.508-.022c-.22 0-.448.01-.678.02l-.157-2.83c.487.203.857.517 1.281 1.021a.295.295 0 0 0 .513-.246c-.192-1.039-.213-2.019-.202-3.06.54.354 1.072.713 1.576 1.094l4.36 4.738a.29.29 0 0 0 .263.09c.95-.159 1.9-.315 2.849-.474a.294.294 0 0 0 .23-.193.298.298 0 0 0-.06-.297c-.741-.83-1.508-1.631-2.25-2.445 1.269.78 2.875 1.755 3.08 1.755.022 0 .027-.013.012-.04-.094-.163-.9-.755-1.775-1.373.14.058.276.12.415.177l.017.01c.103.035.16.059.27.062a.286.286 0 0 0 .108-.016.317.317 0 0 0 .188-.152.32.32 0 0 0 .023-.238c-.017-.05-.038-.077-.054-.098-.061-.085-.103-.109-.162-.154a4.553 4.553 0 0 0-.205-.149c-.153-.105-.336-.223-.493-.328a4.992 4.992 0 0 1-.328-.233.307.307 0 0 0-.028-.025l-3.892-2.736c-.008-.006-.02-.001-.028-.006-1.333-1.869-2.588-3.825-4.046-5.627C9 4.496 8.145 2.888 6.758 2.352 6.69 1.956 6.54 1.225 6.003.703 5.547.26 4.888.056 4.147.011A5.728 5.728 0 0 0 3.796 0zM26.57 4.787q-.407 0-.472.314v.019q.047.083.194.083.425-.185.425-.342v-.018q0-.037-.148-.056zm1.477-.572q-.065.36-.637.775l.203.083.277-.101.138.092q1.062.508 2.817.536l2.752.027h.037q.47 0 .457.688-.014.716-.485 1.436-.296 0-.6-.226-.305-.226-.5-.53-.193-.306-.498-.795.093.97.554 1.524-.563 0-1.002.106-.219.053-.365.053-.147 0-.221-.053-.092-.066-.457-.066-.222 0-.545.024-.249.02-.455.02-.501 0-.75-.112-.23-.194-.29-.679-.06-.485.272-1.343-.684.489-.684 1.486v.333q-.341-.351-.535-.776-.379-.942-1.035-.942-.249 0-.96.314-.24-.101-.194-.323l.462-.619q.332-.563.48-.628.074-.138.72-.138.277.074.277.203 0 .175-.184.35.35-.073.508-.415 0-.083.443-.304zm.398-1.965q-.045 0-.103.072-.701 1.117-1.274 1.551-.222.194-.6.203-.185 0-.563-.277-.564-.545-.785-.923-.25-.444-.324-.49-.037 0-.055.093 0 .526 1.071 1.948-.203.296-.378.674-.176.379-.416.577-.24.199.046.393 0 .24.397.388l.988-.287q.397 0 .545.333.49.738.49 1.542.055 1.071-.74 2.05-.249.166-.249.461 0 .12.305.12.499 0 .499-.12l-.037-.249q0-.13.194-.194v-.018q0-.176.628-1.764.286 0 .452.277.213.702.213 1.164 0 .101-.13.434-.157.12-.194.434h.74l-.056-.231q-.037-.139.101-.24l-.064-.342q-.12-1.302-.12-1.533v-.018q.73-.176 1.122-.176.392 0 .604.143.085.057.237.057.23 0 .618-.13.419-.142.643-.142.119 0 .183.04.185.115.185.392 0 1.016-.517 1.727-.167.166-.25.462h.637q.167-.056.074-.277.019-.24.222-.305 0-.84.739-1.662.517.286.526.886 0 .231-.092.628l-.111.305q-.102.12-.185.453h.61q.11-.047.138-.102l-.092-.296q-.046-.129.13-.23-.093-.49.12-.74-.435-1.015-.435-1.597.231-.95.296-1.782.11.582.027 1.395-.083.812.277 1.68.07.146.129.146.04 0 .074-.072.093-.526.037-2.909-.073-.295-.157-.452-.295-.453-.507-.471h-2.983q-2.207 0-3.269-.628.176-.314.194-.43.018-.115 0-.281-.443.13-.665.342l-.185-.139q.194-.12.62-.776.424-.655.498-1.025-.031-.062-.073-.062zm4.893 10.098c.488.021.755.032.87.032h.053l-.063 2.547a3.738 3.738 0 0 1-.97-.576l.11-2.003zm-7.107-.634c-.163.031-.377.131-.351.325v1.42c-.315-.015-.64-.031-.734-.031 0 .178.147.42.603.42.005.403.078.896.152 1.147l.063.66c0 .074.125.095.262.095.162 0 .34-.031.34-.031l-.026-.66c2.59.02 7.527.151 7.773.151.126 0 .21-.136.21-.325l.063-2.846-1.557-.016-.126 2.217c-1.127.006-3.076.19-4.402.19-.42 0-.781-.017-1.028-.069-.052-.058-.54-.765-.849-.844a1.36 1.36 0 0 0-.183-.02c-.053-.43-.105-.86-.152-1.285.094-.12.309-.09.366-.252.058-.078.021-.21-.089-.215-.063-.026-.235-.031-.309-.031zm17.934-9.35c.138 0 .218.112.24.336-.097.138-.251.208-.464.208l-.208.943-.32.112c.21-.949.448-1.423.71-1.423a.22.22 0 0 1 .01 0c.085 0 .138.058.16.176l.031-.016c0-.128-.064-.197-.192-.208-.138 0-.271.101-.4.304-.17.309-.34.826-.511 1.551h-.08l.176-.768c.245-.81.528-1.215.848-1.215zm-1.106 2.164a.765.765 0 0 1 .074.003c.176.016.354.082.536.2l-.976-.08a.56.56 0 0 1 .366-.123zm1.096-.016h.006a.023.023 0 0 1 .011.011c.016.024.034.036.054.036a.087.087 0 0 0 .05-.02c.019-.014.034-.02.045-.02.015 0 .024.012.027.036.006.043-.02.085-.08.128a.564.564 0 0 1-.28.08c.08-.167.135-.251.167-.251zm-.103.299l.16.016v.048a2.91 2.91 0 0 0-.223.048c0-.075.02-.112.063-.112zm-1.663-.032c.448.021.95.069 1.504.144v.112c-.725-.096-1.243-.144-1.552-.144 0-.022.016-.059.048-.112zm.084.287c-.1 0-.166.032-.196.097v.128a.348.348 0 0 1 .256-.103c.026 0 .052.002.08.007.139.02.288.048.448.08l-.096-.08a1.534 1.534 0 0 0-.492-.129zm-.002.184a.28.28 0 0 0-.018 0c-.085.006-.138.051-.16.137a.19.19 0 0 0 .175.104c.088 0 .2-.045.337-.137a.81.81 0 0 0-.334-.104zm1.562-.265c.02 0 .043.006.067.018.182.256.31.554.384.895a.634.634 0 0 1-.272-.08 4.33 4.33 0 0 0-.271-.783c.026-.034.057-.05.092-.05zm.227 1.041l.208.032.032.112c-.16 0-.24-.048-.24-.144zm-.911-.895l.432.048c.117.18.237.538.36 1.071.122.533.205.992.247 1.376h-.223a.965.965 0 0 0 .007-.536c-.047-.176-.178-.275-.391-.296a.51.51 0 0 0-.051-.003c-.192 0-.362.113-.51.339-.031-.565.011-1.232.129-2zm-1.088-.128c.363 0 .667.021.912.064-.054.394-.096.695-.128.903a3.92 3.92 0 0 0-.04.68 9.28 9.28 0 0 1-.024.832l.304-.16-.864.991v-.32c-.33-.213-.336-.511-.016-.895l.016-.24.496-.128c-.02-.365-.121-.547-.305-.547a.313.313 0 0 0-.047.003.664.664 0 0 1-.098.008c-.149 0-.225-.066-.23-.2-.005-.16-.05-.242-.136-.248-.085-.005-.093-.066-.024-.183.07-.118.118-.195.144-.232.027-.038.04-.147.04-.328zm-.245 2.28c-.167.309-.091.61.23.902v.416l-1.456.112c-.49-.15-.783-.225-.88-.225a.12.12 0 0 0-.016.001c-.074.01-.128.059-.16.144-.127.01-.309.09-.543.24.032-.117.08-.235.144-.352a.696.696 0 0 0-.184-.024.889.889 0 0 0-.2.024c.064.117.117.235.16.352a3.667 3.667 0 0 1-.192.005c-.121 0-.228-.007-.32-.021v-.053l.002-.3c.085-.032.18-.085.286-.159h2.079a3.85 3.85 0 0 0 1.05-1.062zm-2.282 1.462a.579.579 0 0 0 .032.336c-.004.006-.012.009-.025.009-.054 0-.19-.056-.406-.169l.4-.176zm4.255-1.2c-.171 1.376-.198 2.17-.08 2.384.11.835-.07 1.253-.536 1.253a.894.894 0 0 1-.104-.006l-2.783.034-.032 3.133-1.215-.464c.032-.63.096-1.413.191-2.351-.042-.459.107-.725.448-.8.267-.106.613-.2 1.04-.28a18.73 18.73 0 0 1 1.775-.216l-.158-1.168c.075-.022.175-.107.302-.255l1.152-1.263zm-4.878 1.44c-.043.15-.096.272-.16.368.07.01.136.016.2.016s.125-.005.184-.016a1.062 1.062 0 0 1-.144-.368c.244.154.427.231.549.231.021 0 .04-.002.058-.007 0 .064.094.098.28.104a.73.73 0 0 0 .021 0c.181 0 .38-.067.595-.2.176.027.398.04.668.04.269 0 .585-.013.947-.04l.096.847c-.575.054-1.077.12-1.503.2-.427.08-.816.19-1.168.328-.469.15-.655.501-.56 1.056-.095.746-.16 1.588-.191 2.527.01.309-.117.597-.384.863V9.017a3.5 3.5 0 0 1 .512-.032zm5.085 2.607v1.52h-1.663v2.318h-1.727v-3.838zm.016 1.84v1.998h-1.375v-1.999zm-4.99.639l.4.16c-.106.192-.138.426-.096.703l.152.344c.06.134.003.21-.168.232h-1.759c.49-.139.821-.298.992-.48.32-.192.48-.511.48-.96zm4.84-11.821h-.003c-.43.003-.789.697-1.078 2.081-.15 0-.304.05-.464.152-.16.101-.288.28-.384.536l-.016.256c-.149.234-.229.38-.24.44-.01.058.054.098.192.12 0 .17.022.306.064.407.033.077.096.116.19.116a.45.45 0 0 0 .098-.012.323.323 0 0 1 .089-.013c.104 0 .18.063.231.189l-.624.128a.842.842 0 0 0-.511.256c-.278.266-.566.565-.864.895-.597.043-1.194.091-1.791.145l-.344-.126.023-2.961c0-.13.376-.22.425-.332.086-.197.042-1.062-.096-1.179a.008.008 0 0 0-.005-.002c-.062 0-.179.908-.362 1.104-.019.02-.056.029-.088.029-.034 0-.063-.01-.057-.03.116-.396.163-.974-.02-1.1a.036.036 0 0 0-.02-.008c-.042 0-.045.133-.106.331-.069.225-.12.696-.28.787a.14.14 0 0 1-.071.019c-.048 0-.096-.018-.148-.018-.02 0-.04.002-.06.009-.075.024-.115.14-.193.154-.327.057-.775.036-1.024.058-.16.015.268.33.696.33a.86.86 0 0 0 .018 0c.09-.002.183-.006.277-.006.156 0 .31.012.438.064.125.052.27.201.27.348l.01 2.257c-.194.014-.29.102-.29.264 0 .165.047.375.143.631h.152l.005 1.155h.003v5.37l-.56.24c-.288.064-.41.203-.368.416h2.191c.246-.021.382-.088.408-.2a.659.659 0 0 0-.048-.392 1.404 1.404 0 0 1-.096-.472c-.005-.165.014-.285.056-.36l.624.235v1.189h4.062v-5.582c.038-.1.072-.151.104-.151s.062.05.088.151v1.44h.288v-1.455c.01-.299-.112-.451-.368-.456h-.013c-.247 0-.387.152-.419.456a3.482 3.482 0 0 1-.088-.952c.016-.304.062-.728.136-1.272h.4c-.074-.629-.17-1.14-.288-1.535h.288l-.048-.272h.112c-.128-.554-.293-.943-.496-1.167.086-.01.102-.075.048-.192.14-.075.198-.152.176-.232-.014-.052-.043-.078-.089-.078a.22.22 0 0 0-.087.022c-.033-.04-.066-.06-.099-.06-.07 0-.139.094-.205.284-.117-.16-.335-.277-.655-.352l.064-.176.511-.144.209-1.055c.223-.011.351-.096.383-.256-.01-.31-.133-.464-.368-.464a.41.41 0 0 0-.038-.002zM58.79 7.888q-.3.3-.3 1.104 0 .82.3 1.12h-9.935q.3-.3.3-1.12 0-.803-.3-1.104zm-11.86-.62q-.434 0-.417.285-.017.335.418.335h1.087q.402.3.402 1.104 0 .82-.402 1.12h-1.07q-.452 0-.452.285 0 .334.435.334h13.783q.418 0 .418-.334 0-.285-.435-.285h-1.07q-.402-.3-.402-1.12 0-.803.402-1.104h1.087q.418 0 .418-.335 0-.284-.418-.284z"/><path d="M22.116.375v17.25m0-17.25h2.625m-2.625 17.25h2.625m0-17.25h36.391m-36.391 17.25h36.391m0-17.25h17.625m-17.625 17.25h17.625M62.895.375v17.25M66.42.375v17.25M68.182.375v17.25M69.945 2.1h8.812m-8.812 3.45h8.812M69.945 2.1v3.45m1.762-1.725h7.05m-8.812 3.45h8.812m-8.812 3.45h8.812m-8.812-3.45v3.45M71.707 9h7.05m-8.812 3.45h8.812m-8.812 3.45h8.812m-8.812-3.45v3.45m1.762-1.725h7.05" fill="none" stroke="#000"/></svg>