<svg xmlns="http://www.w3.org/2000/svg" width="162.934" height="18"><path d="M18.058.568q-.111.037-.111.128t.07.146q.027.022.054.022.04 0 .077-.05.063-.081.021-.163-.041-.083-.11-.083zM2.67.47q-.153 0-.296.282.084.183.264.237.028.01.054.01.131 0 .224-.229 0-.255-.194-.292Q2.695.47 2.669.47zM1.665.787q-.042.128.027.238l-.583.073q-.014-.164.556-.31zm.568.436zm.105-.003q.12 0 .195.033.027.012 0 .012-.052 0-.288-.04.05-.005.093-.005zm2.564 1.252q.035 0 .097.068 1.125 1.223 2.792 2.865Q9.46 7.048 9.667 7.724 8.305 7.468 7.34 6.318q-.966-1.15-1.681-2.236-.716-1.086-.799-1.414-.017-.196.042-.196zm.046-.868q.202 0 .384.096 4.321 4.308 4.946 5.604.584 1.405.764 2.154-.076.11-.182.11-.087 0-.193-.074l-.57-1.515q-.43-1.296-2.104-2.875-1.674-1.579-2.424-2.5-.441-.542-.676-.542-.164 0-.227.268-.108.455-.38.455-.115 0-.26-.081.126-.858.542-1.022.198-.078.38-.078zm.357 6.43q.666 1.405.541 2.83-.125 0-.236.236-.045-.403-.277-.403-.051 0-.112.02.292-1.405.084-2.683zM2.827.346q.066 0 .116.013.25.063.292.237.029.122.058.122.013 0 .025-.022.042-.073.056-.164.305.53.041 1.57t.848 1.24q1.028 3.104 2.209 4.72 1.18 1.615.986 3.038-.449-.438-.993-.438-.113 0-.23.019.042-1.296-.472-2.556t-.945-1.889q-.43-.63-1.16-1.497-.73-.867-.722-1.789.007-.921.194-1.286.188-.365.181-.584-.003-.091-.027-.091-.035 0-.112.182-.132.31-.73.328l-.07.001q-.568 0-1.235-.274l.82.073q.404.11.601.11.162 0 .183-.074.049-.164-.076-.192-.125-.027-.257-.027t-.201.055l.026.052-.29-.052Q1.762.787 1.887.623q.028-.055.097-.055-.028.183.049.274.028.034.056.034.046 0 .09-.098.07-.155-.125-.228.511-.204.773-.204zm15.412.04q.375 0 .555.365.056.055.695.2v.056l-.695.073q-.597 0-.75-.12-.153-.118-.146-.273.007-.155.188-.155.18 0 .25.082t.035.173q-.035.092-.132.147h.028q.18 0 .187-.22.007-.237-.299-.273-.389 0-.291.374.092.357.854.357l.076-.001q.431-.037.765-.128L19.53.97q1.236 1.004 1.16 2.29-.077 1.288-.966 2.136-.889.85-1.584 1.871-1.083 1.734-1.167 2.72-.083.986.376.986.458 0 1.118-.721.66-.721 1.34-.74 1.82.055 1.612 2.209-.667-.93-1.5-.93-.417 0-1.14.474-1.097.766-1.667.766l-.472-.091q-.861-.84-.583-2.482.416-1.187 1.125-4.235.486-1.734.965-2.628.48-.895 1.022-.913.291 0 .944.365.027.01.047.01.094 0 .037-.21-.526-.429-1.226-.429-.225 0-.47.045-.208 0-.506-.146-.3-.146-.3-.694.251-.237.543-.237zM4.666 3.05q1.083 1.825 1.986 3.002.903 1.178 1.702 1.588.799.411 1.48.43.083.145 1.653 4.617l-.097.055-3.738-3.14q.028-.273-1.104-1.962-1.132-1.687-1.994-4.46l.112-.128zM8.5 10.918l2.07 1.66q.07.256-.5.348-.127.02-.233.02-.37 0-.49-.248-.152-.32-.389-.831-.236-.511-.458-.95zm7.071-.785q0 .767.167 1.332.43 1.004 1.153 1.023h.038q.711 0 1.699-.657.938-.625 1.365-.625.034 0 .066.004.416.055.903.566.486.51.514.894.05.311-.043.311-.06 0-.18-.128-.399-1.05-1.024-1.05h-.01q-.633.01-1.557.648-.923.639-2.153.639t-1.368-1.04q-.14-1.04.43-1.917zM5.277 11.192l.208.547q.195-.255.299-.3l.005-.002q.088 0-.304 1.543l-.583.238q-.153-.146.09-.904.243-.757.285-1.122zm14.763 1.14q.461 0 .727.502-.18.384-.847.603-.514 0-1.042-.566.685-.539 1.162-.539zm-1.607.758q.207.265.448.438h-1.883q.692-.095 1.435-.438zm-7.182 1.15q-1.554 2.935-4.48 3.011-2.913-.076-4.467-3.011zm11.239.018q-1.554 2.935-4.48 3.012-2.913-.077-4.48-3.012zM3.066.008q-.084 0-.179.013-.222 0-1.264.42-.834.255-.903.657l.028.62.417-.2q.68.292 1.139.292.458 0 .347.41-.111.411.028 1.37.139.958 1.097 1.934.959.977 1.188 2.556.23 1.578-.41 3.641l.209-.164q.004-.004.007-.004.046 0-.216.816-.277.867-.757.894-.084.005-.16.005-.348 0-.486-.105-.155-.12-.462-.12l-.045.001q-.34.01-.34.302v.182H1.33Q2.93 17.982 6.777 18q3.849-.018 5.446-4.472l-4.279.037q0-.165-.264-.356-.129-.094-.296-.094-.175 0-.391.103-.13.061-.278.061-.337 0-.771-.317.097-.639.236-1.14.139-.503.528-.594.036-.008.073-.008.362 0 .816.811.264-.675.153-1.825l.139.128q1.042 2.3 1.257 2.701.163.305.634.305.15 0 .331-.031.75-.128.737-.475l.639.42.486-.237-1.07-3.048q.264 0 .487-.292-.264-1.096-.82-2.446-.39-.822-.792-1.278Q8.681 4.603 7.5 3.39T5.763 1.518q-.373-.28-.775-.28-.226 0-.461.088-.653.246-.792 1.214-.042-.037.07-.73.11-.694-.05-1.287-.138-.514-.689-.514zM18.286 0q-.252 0-.478.094-.292.11-.347.42-.111.383.097.757.208.374.653.466-.89 1.058-1.514 3.741-.584 2.556-.973 3.779-1.042 1.113-1.035 2.236.007 1.122.424 1.597.301.343.878.438h-3.434q1.597 4.454 5.446 4.472 3.848-.018 5.445-4.472h-2.674q.153-.11.313-.256.156.245.354.245.083 0 .174-.044.347-.219.139-1.004.194-2.245-.459-2.865-.653-.621-1.473-.621-.75 0-1.625.849-.543.526-.743.526-.124 0-.118-.198.014-.52.611-1.761.403-.876 1.75-2.254 1.348-1.378 1.334-2.775-.014-1.396-.597-2.099-.584-.703-1.292-.794-.111-.2-.292-.328-.18-.128-.48-.146Q18.329 0 18.287 0zm11.203 1.053l-.651 10.992h-.326L27.88 1.053zm-1.617 11.512q.225 0 .487.016v4.442q.02.268-.21.268-.364 0-1.015-1.32-.651-1.322-.651-2.797 0-.61 1.389-.61zm1.563 0q1.413 0 1.413.629 0 1.455-.65 2.776-.652 1.321-1.015 1.321-.23 0-.23-.268v-4.442q.258-.016.482-.016zM25.448 0v1.053h1.513l1.073 10.302q.093.671-.068.671h-.009q-.464-.206-.873-.206-.622 0-1.118.474-.518.632.057 2.374.574 1.743 1.082 2.537.507.795 1.56.795 1.226 0 1.657-.795.43-.794 1.044-2.527.612-1.733 0-2.384-.618-.458-1.235-.458-.417 0-.834.209-.095 0 0-.69l1.054-10.302h1.512V0zm16.818.692V5.6h-3.292V.692zM38.296 0v6.277h4.663V0zm-4.433 7.797v3.336h13.529V7.797H33.863m12.973.556v2.223H34.42V8.353h12.416zm-10.291 6.299l-1.961-1.978-.709.633 2 2.011-2.012 2 .667.67 2.011-2 2 2.012.67-.666-1.961-2.094 1.973-1.917-.666-.67-2.012 1.999zm8.169 0l-1.961-1.978-.709.633 2 2.011-2.012 2 .666.67 2.012-2 2 2.012.67-.666-1.961-2.094 1.973-1.917-.667-.67-2.011 1.999zM52.902.591c.673 0 1.128.1 1.508.529.521.52.62 1.29.572 1.992-.01 1.612-.295 3.21-.766 4.75-.37 1.266-.812 2.51-1.215 3.766h-.196c-.017-.062-1.925-5.289-2.01-8-.015-.79-.128-1.684.412-2.341.334-.459 1.01-.696 1.695-.696zm.416 11.625v.684c0 .124.077.234.194.276.17.062.328.172.49.304H51.61c.161-.132.318-.242.489-.304a.294.294 0 0 0 .194-.276v-.684zm1.644 2.477c.06.121.069.367.054.538H50.64a2.059 2.059 0 0 1-.023-.538zm-.466 1.819c-.317.471-.95.9-1.618.9-.72 0-1.422-.417-1.76-.9zM52.932 0c-1.274 0-2.737.735-2.737 2.246-.073.922.02 1.85.115 2.768.29 2.285 1.15 4.436 1.86 6.614h-.017c-.095 0-.447.01-.447.294v.784c-.402.198-.682.5-.954.723h-.876a.294.294 0 0 0-.294.294v.792c0 .157.184.287.341.293.071.133.083.252.101.375l-.33-.01h-.003a.307.307 0 0 0-.3.294v.76c0 .163.132.295.294.295.205 0 .675.01.757.01h.011c.368.843 1.355 1.468 2.425 1.468 1.04 0 1.944-.67 2.284-1.478h.764c.275 0 .294-.192.294-.294v-.761c0-.128.055-.285-.59-.285a1.48 1.48 0 0 0-.016-.368c.283-.017.415-.142.415-.3v-.791a.294.294 0 0 0-.293-.294h-.876c-.273-.222-.553-.525-.955-.723v-.784c0-.16-.128-.29-.287-.293.007-.037 1.84-5.082 1.93-7.732.07-.998.168-2.12-.499-2.956C54.633.368 54.195 0 52.932 0zm7.498 1.133q.489 0 1.288.266 1.37.457 2.84 1.909Q66.024 4.76 65.731 6q-.294 1.24-1.142 1.86-.701.512-1.691.512-.209 0-.43-.023-1.273-.13-2.186-2.006-.914-1.877-.849-3.345.065-1.468.457-1.73.19-.135.54-.135zM60.296 0q-.672 0-1.09.29-.881.62-.98 2.545-.097 1.925 1.11 4.176 1.208 2.252 2.937 2.464.33.04.643.04 1.323 0 2.326-.725 1.24-.898 1.55-2.545.31-1.648-1.321-3.492Q63.839.91 61.947.306 60.987 0 60.297 0zm1.676 11.336V18h1.116v-6.664zM76.833.893v16.36h-7.142v-.79h3.613V6.769h2.221V.893zM74.757 0v6.042h-2.221v9.778H68.84V18h8.762V0zm9.579.601c1.074 0 2.419.552 3.069 1.202.57.57.644 1.324.664 2.025h-7.435c.021-.7.096-1.455.665-2.025.65-.65 1.963-1.202 3.037-1.202zm0-.601c-1.274 0-2.645.589-3.448 1.392-.825.824-.918 1.91-.918 2.72v.317h8.732v-.316c0-.812-.062-1.897-.886-2.72C87.013.588 85.61 0 84.336 0zM82.03 8.792q.536 0 1.415.292 1.505.502 3.118 2.097t1.29 2.957q-.322 1.362-1.254 2.043-.77.563-1.858.563-.229 0-.472-.025-1.398-.143-2.402-2.204-1.003-2.061-.931-3.674.071-1.613.501-1.9.21-.15.593-.15zm-.147-1.244q-.739 0-1.198.318-.968.68-1.076 2.795-.107 2.115 1.219 4.588t3.226 2.706q.363.045.707.045 1.453 0 2.555-.797 1.362-.986 1.702-2.796.34-1.81-1.452-3.835t-3.87-2.688q-1.054-.336-1.813-.336zM92.816 0c-.93 0-1.745.684-1.745 1.562V18h1.136V1.562c0-.43.378-.57.616-.57.25 0 .634.175.634.703v10.804h1.136V1.695c0-.88-.87-1.695-1.777-1.695zm12.98.699q1.265.749 1.265 2.247h-2.52q0-1.498 1.255-2.247zm1.265 2.946q-.283 1.002-1.265 1.002t-1.235-1.002zm7.27 1.751v1.195H97.27V5.396zM105.795 0q-1.934.729-1.934 3.128 0 .912.395 1.519h-7.664v2.642h18.406V4.647h-7.634q.395-.607.395-1.519 0-2.4-1.964-3.128zm-4.836 14.172c1.074 0 2.418.552 3.069 1.202.569.57.643 1.324.664 2.025h-7.435c.021-.701.096-1.456.665-2.025.65-.65 1.963-1.202 3.037-1.202zm0-.601c-1.274 0-2.645.588-3.449 1.392-.824.824-.917 1.909-.917 2.72V18h8.732v-.316c0-.812-.062-1.897-.886-2.721-.803-.804-2.206-1.392-3.48-1.392zm13.128-2.921v6.46h-4.333v-6.46zm-5.224-.911V18H115V9.739zM119.51 9v6h1.004V9z"/><path d="M122.88.911v2.43q-.536-.8-3.219-.8h-1.984V.911zm.03-.911q-1.092.202-3.249.202H117V3.25h2.662q1.407 0 2.015.293.617.294 1.205.84L122.91 18h1.174V0zm5.687 9v6h1.004V9z"/><path d="M131.967.911v2.43q-.536-.8-3.22-.8h-1.983V.911zm.03-.911q-1.093.202-3.25.202h-2.662V3.25h2.663q1.407 0 2.014.293.618.294 1.205.84l.03 13.617h1.175V0zm5.686 9v6h1.005V9z"/><path d="M141.054.911v2.43q-.537-.8-3.22-.8h-1.984V.911zm.03-.911q-1.093.202-3.25.202h-2.662V3.25h2.662q1.408 0 2.015.293.618.294 1.205.84l.03 13.617h1.175V0zm7.736 0q-1.863.043-3.084 1.35-1.349 1.477-1.477 2.955 0 .342.385.342h17.905q.385 0 .385-.406 0-.407-.385-.407h-17.327q1.071-2.742 3.213-3.042h14.114q.385 0 .385-.406 0-.386-.385-.386zm.955 8.057q-.098.185-.221.406l-.209 1.216q0 .639.209 1.192.221.48.553.86-2.224-.405-4.005-.602 1.118-.664 1.756-1.474.652-.811 1.917-1.598zm5.247-.098q.675.05 2.273 1.02 1.597.958 3.292 1.585-1.24.073-2.703.528-1.474.442-3.096.664.258-.308.516-.873.246-.565.246-1.204 0-.651-.234-1.216-.122-.27-.294-.504zm-2.585-.566q.424 0 .815.173.418.172.738.467.319.282.516.688.16.405.184.872.024.467-.148.872-.184.406-.466.725-.295.332-.7.516-.406.172-.873.185h-.06q-.423 0-.813-.16-.417-.172-.737-.455-.307-.282-.491-.688-.172-.405-.197-.884 0-.455.172-.86.16-.406.443-.725.294-.332.7-.492.405-.22.86-.233l.057-.001zm-.068-.833q-.804 0-1.586.17-1.696.369-3.44 2.2-1.745 1.818-3.06 1.94l-.024.861q2.985.258 5.86.786 1.075.198 2.262.198 1.987 0 4.287-.554 3.661-.885 4.644-1.069h1.622v-1.057h-1.67q-1.193-.405-3.195-1.61-1.99-1.203-3.797-1.633-.966-.232-1.903-.232zM144.259 18h18.675v-3.372h-14.007L144.26 18m17.637-2.336v1.298l-14.413.065 1.444-1.363h12.97z"/></svg>