<svg xmlns="http://www.w3.org/2000/svg" width="167.947" height="18"><path d="M3.345 0H.72v18h3v-.75H1.095v.375h.375V.375h-.375V.75H3.72V0h-.375zM8.73.474c.693 0 1.247.2 1.634.479.006.053.02.107.009.16-.05.248-.195.477-.396.63-.316.207-.697.267-1.057.356-.09.01-.019.031.031.04.23.04.707.099.971.099l.052-.001c.278-.032.54-.148.766-.311.079-.067.147-.15.205-.236.147.346.227.713.26.917.018.11.096.2.202.233 1.139.349 2.038 1.91 2.88 2.949 1.729 2.137 3.199 4.526 4.892 6.76-.937-.456-1.87-.916-2.81-1.374-1.92-1.01-3.92-1.816-5.604-3.09l-.008-.008c-.97-.808-1.963-1.66-2.339-2.793-.148-.92 1.757-2.577 1.542-2.646a.207.207 0 0 0-.064-.01c-.458 0-1.753 1.128-2.019 2.202-.003-.014-.01-.03-.014-.045-.073-.356-.154-1.256.068-1.98a.29.29 0 0 0 .01-.103 1.968 1.968 0 0 0-.123-.634c-.063-.17-.139-.344-.26-.765-.031-.108-.142-.328-.208-.345.186-.138.375-.28.645-.375a.434.434 0 0 0-.132.314c0 .23.164.415.365.415.2 0 .364-.186.364-.415V.894a.411.411 0 0 0-.255-.39c.053-.007.096-.019.154-.022.081-.006.16-.008.238-.008zm.67 7.763c.065.065.135.124.202.187.214.78.412 1.64.692 2.305.483 1.145 1.216 2.141 1.84 3.154a1.814 1.814 0 0 0-.385.27 6.831 6.831 0 0 0-.199.193 2.61 2.61 0 0 0-1.186-.897c.045-.723-.108-1.712-.34-2.787A34.903 34.903 0 0 0 9.4 8.237zm1.006.908c1.149.945 2.428 1.738 3.676 2.54-.018.91-.018 1.778.084 2.675a3.411 3.411 0 0 0-1.437-.736c-.02 0-.037.012-.057.012-.649-1.063-1.383-2.06-1.837-3.134-.156-.37-.293-.85-.429-1.357zm.407 5.254a2.5 2.5 0 0 1 .44.541.3.3 0 0 0 .257.14.29.29 0 0 0 .17-.053c.215-.156.347-.324.476-.446.047-.045.097-.08.148-.117l.149 2.722c-.213-.014-.435-.035-.637-.035-.264 0-.495.036-.633.172-.169-.134-.497-.164-.89-.164-.102 0-.207.002-.316.004l.836-2.764zm1.158-4.825c1.354.787 2.784 1.414 4.135 2.125a.244.244 0 0 0 .006.003c1.295.631 2.586 1.28 3.894 1.904.984 1.189 2.052 2.295 3.078 3.42l-2.15.362-4.267-4.635a.288.288 0 0 0-.037-.036c-1.499-1.137-3.152-2.082-4.66-3.143zM8.796 0c-.135 0-.273.005-.411.013C7.3.083 6.512.54 6.243 1.157c-.04.093-.146.314-.007.314a2.35 2.35 0 0 1 .341-.028c.418 0 .38.172.47.194.09.282.29.846.303 1.068-.244.86-.153 1.763-.064 2.198.15.732.63 1.584 1.261 2.38a.285.285 0 0 0 0 .166 35.3 35.3 0 0 1 .903 3.336c.251 1.168.393 2.277.317 2.823a.294.294 0 0 0 .221.328c.045.011.084.031.127.045l-.928 3.079a2.847 2.847 0 0 0-.593-.055c-.381 0-.756.05-1.064.05-.125 0-.24-.008-.34-.032a.546.546 0 0 0-.125-.012c-.436 0-1.428.306-1.34.879.15-.128.257-.159.375-.159.11 0 .23.027.405.027h.027c.254-.004.697-.083 1.053-.083.18 0 .338.02.438.08.236-.01.45-.013.649-.013.85 0 1.447.07 2.5.075a89.565 89.565 0 0 0 2.974-.079c.45.003.697.054.922.054h.04c.134-.004.265-.057.48-.057.123 0 .273.017.468.07-.25-.341-.877-.685-1.33-.685a.591.591 0 0 0-.302.071 5.081 5.081 0 0 0-.508-.022c-.22 0-.448.01-.678.02l-.157-2.83c.487.203.857.517 1.281 1.021a.295.295 0 0 0 .513-.246c-.192-1.039-.213-2.019-.202-3.06.54.354 1.072.713 1.576 1.094l4.36 4.738a.29.29 0 0 0 .263.09c.95-.159 1.9-.315 2.849-.474a.294.294 0 0 0 .23-.193.298.298 0 0 0-.06-.297c-.741-.83-1.508-1.631-2.25-2.445 1.269.78 2.875 1.755 3.08 1.755.022 0 .027-.013.012-.04-.094-.163-.9-.755-1.775-1.373.14.058.276.12.415.177l.017.01c.103.035.16.059.27.062a.286.286 0 0 0 .108-.016.317.317 0 0 0 .188-.152.32.32 0 0 0 .023-.238c-.017-.05-.038-.077-.054-.098-.061-.085-.103-.109-.162-.154a4.553 4.553 0 0 0-.205-.149c-.153-.105-.336-.223-.493-.328a4.992 4.992 0 0 1-.328-.233.307.307 0 0 0-.028-.025l-3.892-2.736c-.008-.006-.02-.001-.028-.006-1.333-1.869-2.588-3.825-4.046-5.627-.744-.92-1.598-2.528-2.985-3.064-.067-.396-.218-1.127-.755-1.649C10.547.26 9.888.056 9.147.011A5.728 5.728 0 0 0 8.796 0z"/><path d="M5.72 0v.634l.457-.457L6.354 0zm2.926 0L5.72 2.926v.708L9.177.177 9.354 0zm3 0L5.72 5.926v.708L12.177.177 12.354 0zm3 0L5.72 8.926v.708L15.177.177 15.354 0zm3 0L5.72 11.926v.708L18.177.177 18.354 0zm3 0L5.72 14.926v.708L21.177.177 21.354 0zm3 0L5.823 17.823l-.103.103V18h.634L24.177.177 24.354 0zm1.095 1.905L8.823 17.823 8.646 18h.708L24.74 2.613v-.708zm0 3L11.823 17.823l-.177.177h.708L24.74 5.613v-.708zm0 3l-9.918 9.918-.177.177h.708l9.387-9.387v-.708zm0 3l-6.918 6.918-.177.177h.708l6.387-6.387v-.708zm0 3l-3.918 3.918-.177.177h.708l3.387-3.387v-.708zm0 3l-.918.918-.177.177h.708l.387-.387v-.708z"/><path d="M26.646 0l-1.905 1.905v.708L26.785.569V0zm.139 2.862L24.74 4.905v.708l2.044-2.044v-.707zm0 3L24.74 7.905v.708l2.044-2.044v-.707zm0 3l-2.044 2.043v.708l2.044-2.044v-.707zm0 3l-2.044 2.043v.708l2.044-2.044v-.707zm0 3l-2.044 2.043v.708l2.044-2.044v-.707z"/><path d="M29.179 3.383q-.542 0-.628.418v.025q.061.11.258.11.567-.245.567-.455v-.024q0-.05-.197-.074zm1.97-.763q-.086.48-.85 1.034l.271.11.37-.135.184.123q1.416.677 3.755.714l3.67.037.049-.001q.627 0 .61.919-.02.954-.647 1.914-.394 0-.8-.302-.407-.301-.665-.708-.259-.406-.665-1.058.123 1.292.738 2.031-.75 0-1.335.142-.293.07-.488.07-.196 0-.294-.07-.123-.088-.61-.088-.295 0-.726.032-.332.025-.607.025-.668 0-1-.148-.308-.258-.388-.905-.08-.646.363-1.791-.91.652-.91 1.982v.443q-.456-.468-.715-1.034Q29.954 4.7 29.08 4.7q-.332 0-1.28.419-.32-.136-.259-.431l.616-.825q.443-.751.64-.837.099-.185.96-.185.37.099.37.271 0 .234-.246.468.467-.099.677-.554 0-.111.59-.406zm.53-2.62q-.06 0-.136.096-.936 1.49-1.7 2.068-.295.259-.8.27-.246 0-.75-.369-.752-.726-1.047-1.23-.333-.592-.431-.653-.05 0-.074.123 0 .702 1.428 2.598-.27.394-.505.898-.234.505-.554.77-.32.265.062.523 0 .32.53.517.43-.123 1.317-.381.53 0 .726.443.653.985.653 2.056.074 1.428-.985 2.733-.333.222-.333.616 0 .16.407.16.664 0 .664-.16l-.049-.332q0-.173.259-.259v-.025q0-.234.837-2.351.382 0 .603.37.283.935.283 1.55 0 .136-.172.58-.21.16-.258.578h.985l-.074-.308q-.05-.185.135-.32l-.086-.456q-.16-1.736-.16-2.043v-.025q.973-.234 1.496-.234t.806.19q.113.077.316.077.307 0 .823-.175.559-.189.858-.189.159 0 .244.054.246.154.246.523 0 1.354-.69 2.302-.22.222-.332.616h.85q.222-.074.098-.37.025-.32.296-.406 0-1.12.985-2.216.69.382.702 1.182 0 .308-.123.837l-.148.407q-.136.16-.246.603h.812q.148-.062.185-.135l-.123-.394q-.062-.173.172-.308-.123-.653.16-.985-.579-1.354-.579-2.13.308-1.268.394-2.376.148.775.037 1.859-.11 1.083.37 2.24.094.196.17.196.055 0 .1-.097.124-.702.05-3.878-.099-.394-.21-.604-.393-.603-.677-.628H35.52q-2.943 0-4.359-.837.234-.418.259-.572.024-.154 0-.376-.591.173-.887.456l-.246-.185q.258-.16.825-1.034.566-.874.665-1.367Q31.735 0 31.679 0zm6.525 13.464c.65.028 1.007.042 1.16.042h.07l-.084 3.397a4.983 4.983 0 0 1-1.292-.769l.146-2.67zm-9.476-.845c-.217.042-.504.174-.469.433v1.894a36.22 36.22 0 0 0-.978-.042c0 .238.196.56.804.56.007.537.104 1.194.202 1.53l.084.88c0 .098.168.126.35.126.216 0 .454-.042.454-.042l-.035-.88c3.452.027 10.036.202 10.364.202.168 0 .28-.182.28-.433l.084-3.795-2.076-.021-.168 2.956c-1.502.007-4.102.252-5.87.252-.56 0-1.042-.021-1.37-.091-.07-.077-.72-1.02-1.132-1.125a1.813 1.813 0 0 0-.245-.028c-.07-.573-.14-1.146-.203-1.712.126-.161.413-.12.49-.336.077-.105.028-.28-.12-.286-.083-.035-.314-.042-.412-.042z"/><path d="M26.741 0v.613l.436-.436.177-.177zm2.905 0l-2.905 2.905v.708L30.177.177 30.354 0zm3 0l-5.905 5.905v.708L33.177.177 33.354 0zm3 0l-8.905 8.905v.708L36.177.177 36.354 0zm3 0L26.741 11.905v.708L39.177.177 39.354 0zm1.762 1.239L26.74 14.905v.708L40.408 1.946v-.707zm0 3L26.823 17.823l-.082.082V18h.613L40.408 4.946v-.707zm0 3L29.823 17.823l-.177.177h.708L40.408 7.946v-.707zm0 3l-7.585 7.584-.177.177h.708l7.054-7.054v-.707zm0 3l-4.585 4.584-.177.177h.708l4.054-4.054v-.707zm0 3l-1.585 1.584-.177.177h.708l1.054-1.054v-.707zM41.646 0l-1.238 1.239v.707l1.769-1.77.177-.176zm1.659 1.342l-2.897 2.897v.707l2.897-2.897v-.707zm0 3l-2.897 2.897v.707l2.897-2.897v-.707zm0 3l-2.897 2.897v.707l2.897-2.897v-.707zm0 3l-2.897 2.897v.707l2.897-2.897v-.707zm0 3l-2.897 2.897v.707l2.897-2.897v-.707zm0 3l-1.482 1.481-.177.177h.708l.95-.951v-.707z"/><path d="M42.783.75h2.25V.375h-.375v17.25h.375v-.375h-2.625V18h3V0h-3v.75h.375zM55.272.364q.17 0 .278.206.169.27-.252.454-.404.202-.27.69l.388 1.666q-.404.05-.707.403V1.697q0-1.06.286-1.228.155-.105.277-.105zm-.95 3.779v.626l-1.38-.144q.034-.169.522-.345.356-.129.858-.137zm.604.038q.607.125.91.747l-1.093-.115v-.239q0-.118.151-.353l.032-.04zm1.801.696q-.091 0-.268.303.437-.152.32-.27-.021-.033-.052-.033zm-3.868.875q-.05.1-.042.16.008.059.092.092-.1 0-.185-.05.017-.101.135-.202zm.151-.034q.151.017.27.084-.068.118-.22.202.068-.084.06-.168-.009-.084-.11-.118zm-.067-.067q-.236 0-.32.353.151.101.37.101t.37-.252h.404v-.135l-.404.034q-.185-.101-.42-.101zm-4.055-.454q1.01 0 0 1.867-1.01-1.867 0-1.867zm7.858-.427q.065 0 .117.057.185.218-.32.454.522.79.538 1.884l-.134.017q0-1.11-.438-1.834l-.033.017q.32.707.336 2.339l-.151.016q-.101-1.632-.185-2.019l-.152-.555q.255-.376.422-.376zm-3.57.524q.164 0 .305.046.337.11.337.462h.235q.05-.32.202-.32.151 0 .05.32l-.47.74v1.582l-.051.017q-.067-.118-.16-.303-.092-.185-.126-.488h-.505q-.286 0-.286-.134 0-.253.27-.286 0-.135-.085-.135l-.336-.017q.1-.235-.202-.303 0-.134.27-.605v-.286l.05.067q.218-.101.336-.118.135 0 .404.118h.303v-.118h-.303q-.236-.151-.404-.151-.185 0-.387.151 0-.134.05-.151.274-.088.502-.088zm-.368-.417l1.514.162v.14h.42v-.095l1.212.13q.017.084.169.555.218.656.185 4.626l-2.12.017V6.593q.117-.168.303-.471.185-.303.176-.648-.007-.288-.279-.288-.053 0-.116.01-.27 0-.337.337-.016-.269-.302-.395-.13-.058-.337-.058-.248 0-.606.083.017-.168.118-.286zm-3.942 5.425q.677 0 .813.464h-.64q-.521-.05-.521-.438.189-.026.348-.026zm4.968-1.454v1.918h1.817q-.016 1.043-.193 2.506-.177 1.464-.446 2.482-.27 1.018.353 1.657h-4.963q.168-.185.227-.622.06-.438-.378-1.48l-1.262-3.82q.01-.558.3-.558.181 0 .474.222l1.716 2.54.64.808q.168.117.298.117.262 0 .374-.47.606-1.38.455-3.382-.59-.623.588-1.918zM55.29 0q-.228 0-.512.183-.455.303-.455 1.783v1.83q-.466.024-.79.097-.488.11-.8.47-.31.363-.31 1.002-.068.27-.018.505-.286.504-.286.69 0 .1.253.1l-.05.152q.033.084.1.1-.05.068-.033.152l.117.05q-.1.455.387.455h.354q.033.32.387.858-.017.034-.329.42-.31.388-.614.934-.302.547.135 1.069.118 1.699-.522 3.146l-2.22-3.23q-.248-.808-.867-.808h-.025V7.603h1.194v-.404h-1.194q1.211-2.339-.303-2.339-1.497 0-.303 2.339h-1.177v.404h1.16v2.355q-.942 0-.185 1.195 1.784 5.35 1.733 5.703-.05.37-.496.64-.446.268-.227.504h6.696q.336-.151 0-.471-.892-1.06-.572-2.036.32-.976.555-4.727h.623v-1.11q0-1.01-.017-1.734.134-.017.303-.084l-.034-.505.303-.016q0-1.245-.539-1.969.59-.235.27-.606-.125-.15-.26-.15-.211 0-.447.37-.438-.83-.977-1.075.226-.127.54-.221l-.472-2.002q-.067-.236.286-.455.472-.336.185-.807Q55.626 0 55.29 0zm5.502 2.077l3.649 3.209q-.77 1.187-2.044 2.395-1.209-2.857-1.605-5.604zm-.97-1.582q-.705 0-.546.967.681.33.571.747-.11.418.088 1.385.198.967 1.583 4.593-.421 1.431.488 1.431.04 0 .083-.003 2.462 4.528 5.428 7.89h.528l-.132-1.472q-2.373-2.22-5.077-7.187.791-1.67 2.22-2.923l4.374 3.934q.33.148.555.148.61 0 .433-1.093l-4.395-3.758q.018-.999-.833-.999-.197 0-.442.054L60.792.759q-.603-.264-.97-.264zM74.203 0c-.93 0-1.745.684-1.745 1.562V18h1.136V1.562c0-.43.378-.57.616-.57.25 0 .634.175.634.703v10.804h1.136V1.695C75.98.815 75.11 0 74.203 0zm12.634.744l.108.001H87q2.013 0 3.838 1.73l-1.13.914q-1.057-1.01-2.763-1.01-1.707 0-2.765 1.01l-1.13-.913Q84.854.744 86.838.744zm.108 2.333q1.898.024 3.124 1.995h-6.273q.961-1.971 3.149-1.995zm0-3.077q-2.98.12-5.024 2.452l1.707 1.442q-.721.961-.89 1.802h8.389q-.168-.84-.89-1.778l1.587-1.442Q89.925.12 86.944 0zm7.566 7.773q.358 0 .358.374v2.875h-1.09l.358-3.028q.017-.221.374-.221zm.017-.46q-.867 0-.918.494-.358 3.215-.766 3.232l-7.894.29-.817-.035q-.918-.97-1.633-.97l-.527-.033q-1.446.272-1.736.272-.204 0-.204.272 0 .374.579.374.993-.158 1.523-.158.097 0 .178.005.29 0 .476.238-.331.411-1.485.411l-.182-.002q-1.31-.034-2.314-.34-.493 0-.493.578.05.527 3.692.544l1.616-.17 9.221-.05 2.586.033V8.147q-.017-.834-.902-.834zM86.984 15c.288 0 .462.05.552.1.261.168.137.568.094.817h-1.293c-.03-.255-.172-.645.095-.816.09-.051.263-.1.552-.1zm-7.185 1.51v.898h-1.227v-.899zm6.374 0v.898h-6.079v-.899zm1.478 0v.898H86.47v-.899zm5.936 0v.898h-5.64v-.899zm1.586 0v.898h-1.291v-.899zm-10.786-2.408l-.418.42 1.4 1.395h-7.39V18h17.786v-2.083H88.6l1.4-1.396-.419-.419-1.293 1.29c-.078-.782-.614-.961-1.303-.983-.736.02-1.188.186-1.303.984l-1.294-1.29zM99.412 0c-.335 0-.67.026-.994.066-.448.113-.218.626.18.626a.476.476 0 0 0 .081-.008c.84.097 1.872.15 2.506.626.841.916.463 2.821.561 3.725.007.05.01 3.653.01 5.48a6.145 6.145 0 0 0-2.635-.586 6.04 6.04 0 0 0-1.187.117c-.441.231.076.528.422.528a.46.46 0 0 0 .115-.013c1.226.133 2.62.461 3.243 1.602.061.206.023.277-.071.277-.206 0-.68-.342-.946-.342-.014 0-.028 0-.04.003a7.535 7.535 0 0 0-1.58-.169c-.39 0-.777.031-1.15.095-.42.278.097.534.439.534a.532.532 0 0 0 .105-.01c1.251.151 2.636.49 3.243 1.633.007 1.27 0 2.11.033 3.278-.014.36.22.538.456.538.235 0 .473-.176.475-.526-.009-1.15-.091-2.161.06-3.277.304-1.253 2.477-1.445 3.827-1.754.294-.347-.285-.475-.659-.475-.055 0-.107.003-.15.008a6.823 6.823 0 0 0-.521-.02c-.882 0-1.771.175-2.557.58-.032-.755.711-1.19 1.244-1.493.84-.361 1.765-.397 2.643-.59.313-.273-.18-.501-.521-.501a.58.58 0 0 0-.125.012 6.767 6.767 0 0 0-.648-.031c-.903 0-1.805.183-2.614.582.016-2.851.062-5.61-.02-8.308-.065-.834-.546-1.6-1.354-1.849-.58-.264-1.227-.358-1.87-.358zm11.875.634q-.372 0-.372.438 0 .371.372.371.393-.022.393-.415 0-.394-.393-.394zm-1.443.285v.393l-.852.153q.393-.415.852-.546zm.044.524q.502.394.175.59-.503-.175-.744-.459l.569-.13zm1.53-1.005q1.027 0 1.64.787.611.786.655 2.426 1.595.328 2.12 1.442.085.722-.325.722h-.025q-.437-.022-.688-.24-.092-.08-.138-.08-.082 0-.026.243.087.383.962.93.874.546.142.906-.182.09-.387.09-.622 0-1.46-.822-1.115-1.093-1.18-1.661-.066-.568.458-1.05.312-.285.215-.285-.067 0-.324.133-.634.328-.667.961-.032.634.503 1.388.536.754 2.11 1.913.16.084.364.084.432 0 1.056-.38.918-.556-.918-1.715.678-.175.7-.59.852.284 4.787 5.29 1.049.699 1.07 1.027-.021.306-.327.371-.066.014-.133.014-.248 0-.523-.188-1.224.59-2.372.612h-.12q-1.066 0-1.77-.372.721.634.502 1.333-.106.34-.16.34-.058 0-.058-.383 0-.744-1.902-1.421v.83q-.112.47-.178.47-.063 0-.084-.426-.131-.94-.623-2.022-.492-1.082-1.563-2.994-1.07-1.913-1.366-2.754-.295-.842-.273-1.563.022-.722-.295-1.06-.317-.34-.186-.733.131-.393-.394-.743V.897q.569-.46 1.18-.46zm4.153 12.59q1.07.306 1.07.721l-.72 2.689q-.088.48-.59.48h-.875v-.043l1.115-3.41v-.437zM111.497 0h-.08q-.852 0-1.726.7-.503.175-1.027.809.721.655 1.311.808.066.306.415.853.022 1.443.394 2.393.371.951 2.492 5.104 1.049 2.186 1.049 2.689 0 .765-.962 3.431 0 .153-1.311.24-1.968.066-1.968.547 0 .284.263.284h5.814q.546-.437.612-.743.525.219.568.59.074.295.21.295.025 0 .053-.01.174-.066.174-.285-.153-.59-.765-1.136l.7-2.951q2.12-.066 3.694-.678.291.066.534.066.486 0 .777-.262.438-.394-.175-1.224-1.333-1.334-2.535-2.93-2.47-3.038-3.388-3.518-.306-.634-.732-1.006-.426-.371-1.541-.918-.022-1.29-.601-2.23Q113.18 0 111.496 0zm17.623 3.173c-.68.054-1.057.394-1.129 1.022.09.68.466 1.04 1.13 1.075.663-.036 1.012-.394 1.048-1.075-.054-.628-.403-.968-1.049-1.022zm.081-2.259c.484 0 .932.09 1.344.27a3.545 3.545 0 0 1 1.828 1.815c.18.402.27.828.27 1.276 0 .466-.09.901-.27 1.305a3.422 3.422 0 0 1-3.173 2.03c-.483 0-.936-.085-1.357-.256a3.235 3.235 0 0 1-1.089-.712 3.495 3.495 0 0 1-.726-1.062 3.174 3.174 0 0 1-.269-1.305c0-.448.09-.874.269-1.277a3.67 3.67 0 0 1 .726-1.075 3.31 3.31 0 0 1 1.09-.74 3.41 3.41 0 0 1 1.357-.269zM129.147 0a4.17 4.17 0 0 0-1.667.336c-.52.224-.968.529-1.344.914a4.48 4.48 0 0 0-.901 1.345 4.071 4.071 0 0 0-.336 1.653c0 .592.112 1.143.336 1.654.224.511.524.955.9 1.331a4.267 4.267 0 0 0 3.012 1.237c.592 0 1.143-.112 1.654-.336a4.48 4.48 0 0 0 1.344-.9c.386-.377.69-.82.915-1.332a4.07 4.07 0 0 0 .336-1.654c0-.591-.112-1.142-.336-1.653A4.358 4.358 0 0 0 130.8.336 4.071 4.071 0 0 0 129.148 0zm-.612 10.68V18h1.225v-7.32zm14.41-9.945c.626 0 1.298.126 1.722.626.678.8.822 1.892.875 2.903.095 1.839.123 3.68.105 5.522h-.451V5.258c-1.185-.04-1.68-.912-1.785-1.593.143-.31.524-.57.65-.949.133-.4-.04-.993-.516-.993h-.024c-.214.01-.396.085-.587.085a.623.623 0 0 1-.336-.097c-.408-.248-.953-.293-1.424-.397.388-.567.983-.558 1.62-.577l.15-.002zm-2.109 1.109c.579.102 1.189.213 1.646.613.084.115.207.19.321.19.101 0 .196-.059.251-.203.077-.108.155-.151.225-.151.213 0 .355.405.187.632-.131.326-.528.519-.668.785.135.532.373 1.043.776 1.428.31.298.687.566 1.126.6-.014 1.903-.004 3.806-.046 5.708a35.537 35.537 0 0 1-.58 5.237c-.044.247.182.4.311.575h-7.73c.56-.213 1.125-.417 1.684-.635.302-.158.162-.526.08-.774-.568-2.006-1.368-3.939-2.279-5.811.138-.183.365-.268.592-.268.13 0 .26.027.372.08.524.622 1.023 1.269 1.537 1.9.703.872 1.398 1.75 2.106 2.616.07.069.155.099.238.099.214 0 .425-.2.394-.44.373-2.515.808-5.02 1.098-7.546a2.616 2.616 0 0 0-.719-2.163.306.306 0 0 0-.215-.081c-.244 0-.531.224-.735.224-.083 0-.153-.038-.2-.144-.255-.26.58-.12.195-.349a.414.414 0 0 1-.068.006c-.351 0-.088-.58-.483-.675.066-.182.181-.313.329-.313a.36.36 0 0 1 .22.088c.087.022.175.031.263.031.304 0 .606-.113.883-.232-.316-.316-.43-.384-.642-.384-.22 0-.532.068-.622.14.147-.234.192-.51.153-.783zM142.908 0c-.055 0-.11 0-.166.002-.853.024-1.803.252-2.311.996-.225.326-.395.72-.32 1.123-.204.472-.648.834-.717 1.362-.067.427.578.339.42.752.01.31.353.616.24.815-.2.845-.434 1.739-1.033 2.396-.102.177-.232.228-.374.228-.192 0-.405-.093-.599-.096-.399.234.111.608.417.608.013 0 .025 0 .037-.002.03.003.06.004.09.004.623 0 1.094-.529 1.38-1.035.37-.603.64-1.28.86-1.938.168-.066.336-.129.476-.129.165 0 .292.087.338.354.271.716.014 1.476-.06 2.204a879.576 879.576 0 0 1-.827 5.57c-1.03-1.281-2.057-2.566-3.09-3.845-.237-.24-.565-.334-.897-.334-.218 0-.439.04-.636.106-.416.172-.86.606-.711 1.096.91 1.884 1.728 3.82 2.294 5.837-.693.264-1.394.514-2.083.788-.279.163-.143.488-.084.73a.43.43 0 0 0 .493.401h9.133c.126-.075.44-.136.483-.169-.172-.142-.1-.391-.284-.532l-.55-.65c.36-1.996.56-4.022.58-6.05l.225.002c.381 0 .836-.047.747-.544.023-2.122.02-4.25-.14-6.366-.084-1.109-.398-2.302-1.283-3.053C144.39.14 143.64 0 142.908 0zm15.26 1.063q3.445 0 7.305 1.665-3.86 1.618-7.305 1.618-3.421 0-7.305-1.618 3.884-1.665 7.305-1.665zm0-1.063q-4.254 0-9.779 2.705 5.525 2.681 9.779 2.681t9.779-2.681Q162.445 0 158.168 0zm-8.788 7.164c-.201 0-.403.016-.598.04-.27.068-.13.377.108.377a.287.287 0 0 0 .05-.005c.505.058 1.127.09 1.508.377.506.552.279 1.698.338 2.242.004.03.006 2.2.006 3.299a3.7 3.7 0 0 0-2.301-.282c-.266.139.046.318.254.318a.273.273 0 0 0 .07-.008c.737.08 1.577.277 1.951.964.037.124.014.167-.042.167-.124 0-.41-.206-.57-.206-.008 0-.016 0-.024.002a4.536 4.536 0 0 0-.951-.102c-.235 0-.467.019-.692.058-.253.167.058.32.264.32a.32.32 0 0 0 .063-.005c.754.09 1.587.295 1.952.983.005.764 0 1.27.02 1.973-.008.216.133.324.275.324.142 0 .285-.106.286-.317-.005-.692-.055-1.3.036-1.973.183-.753 1.491-.87 2.304-1.055.177-.209-.172-.286-.397-.286a.736.736 0 0 0-.09.005 4.108 4.108 0 0 0-.314-.012c-.53 0-1.066.105-1.54.349-.019-.455.429-.716.75-.899.505-.217 1.062-.239 1.59-.356.19-.163-.108-.301-.313-.301a.349.349 0 0 0-.075.007 4.073 4.073 0 0 0-.39-.018c-.543 0-1.086.11-1.574.35.01-1.716.038-3.377-.011-5.001-.04-.502-.33-.963-.816-1.113-.35-.159-.738-.216-1.126-.216zm17.766.623c.119 0 .178.43.178.549 0 .118-.06.548-.178.548H155.76c-.139 0-.208-.43-.208-.548 0-.12.07-.549.208-.549zm-11.742-.623c-.316 0-.474.638-.474 1.172 0 .533.158 1.17.474 1.17h12.098c.296 0 .445-.637.445-1.17 0-.534-.149-1.172-.445-1.172zm11.742 4.564c.119 0 .178.43.178.548 0 .119-.06.549-.178.549H155.76c-.139 0-.208-.43-.208-.549 0-.118.07-.548.208-.548zm-11.742-.623c-.316 0-.474.637-.474 1.171s.158 1.171.474 1.171h12.098c.296 0 .445-.637.445-1.17 0-.535-.149-1.172-.445-1.172zm.363 4.377q.13 0 .297.029 2.151.163 4.368.538l-.473 1.483q-2.004-.505-4.058-1.271-.668-.229-.587-.522.061-.257.453-.257zm.062-.436q-.728 0-.873.595-.163.636.668.962 2.168.798 4.303 1.353.127.044.211.044.134 0 .164-.11l.62-1.89q.064-.261-.245-.342-2.429-.392-4.662-.604-.097-.008-.186-.008zm6.953.436q.13 0 .297.029 2.152.163 4.368.538l-.472 1.483q-2.005-.505-4.059-1.271-.668-.229-.587-.522.062-.257.453-.257zm.062-.436q-.728 0-.873.595-.163.636.668.962 2.168.798 4.303 1.353.127.044.212.044.133 0 .163-.11l.62-1.89q.064-.261-.245-.342-2.429-.392-4.662-.604-.097-.008-.186-.008z"/></svg>