<svg xmlns="http://www.w3.org/2000/svg" width="56.884" height="18"><path d="M11.386 8.203c-.51.04-.793.296-.847.767.067.51.35.78.847.806.498-.026.76-.295.787-.806-.04-.47-.303-.726-.787-.767zm.06-1.694c.364 0 .7.068 1.01.202a2.659 2.659 0 0 1 1.371 1.361c.134.303.201.622.201.958 0 .35-.067.676-.202.978a2.567 2.567 0 0 1-2.38 1.523c-.362 0-.702-.064-1.018-.192a2.426 2.426 0 0 1-.816-.534 2.621 2.621 0 0 1-.545-.797 2.38 2.38 0 0 1-.202-.978c0-.336.068-.655.202-.958.134-.302.316-.571.545-.806.228-.236.5-.42.816-.555a2.574 2.574 0 0 1 1.019-.202zm-.04-.685c-.443 0-.86.084-1.25.252-.39.168-.726.396-1.008.685a3.36 3.36 0 0 0-.676 1.009 3.053 3.053 0 0 0-.252 1.24c0 .444.084.857.252 1.24.168.384.393.716.676.999a3.2 3.2 0 0 0 2.258.927c.444 0 .857-.084 1.24-.252a3.36 3.36 0 0 0 1.009-.675c.289-.283.518-.615.686-.999.168-.383.252-.796.252-1.24 0-.444-.084-.857-.252-1.24a3.268 3.268 0 0 0-1.694-1.694 3.053 3.053 0 0 0-1.24-.252zm12.701-3.019c.383.8-.462 1.105-1.075 3.765-.159 2.59-1.72 5.894-2.412 6.983-.338.758-.732 1.276-1.18 1.554a.753.753 0 0 1-.097.007c-.194 0-.374-.085-.476-.35.25-.307.447-.947.46-1.164.028-.5-.225-.6-.48-.6-.169 0-.34.044-.428.044-.024 0-.042-.004-.052-.012-.633-.528-1.458-.885-1.527-1.124.188-1.649 1.597-3.523 3.28-5.306 4.056-2.853 2.845-3.266 3.987-3.797zm-.122-.555c-.334 0-.659.144-.754.38-.132.328-.675 1.43-1.936 2.423-1.994 1.14-4.177 4.03-4.71 5.497-.254.704-.482 1.37-.492 2.077.05.03 1.338.506 1.712 1.235.034.066.073.092.115.092.16 0 .372-.368.588-.368.022 0 .043.004.065.012.606.23-.354 1.147-.36 1.236-.034.644.893.777 1.062.886.07.02.135.03.195.03.16 0 .248-.173.463-.329 1.512-1.094 3.19-6.027 3.448-6.904.24-.836.281-1.92.36-2.358.371-1.657 1.023-2.649 1.061-2.816.178-.783-.329-1.093-.817-1.093zm4.223 0q-.248 0-.27.218l.24-.053q.15 0 .082.158-.172.165-.052.488-.22.475-.847.475l-.077-.002q.03.353-.15.533-.63.36-.63.66.495.234.164.571-.33.338-.33.458.218.068.3.233.376.916.759 1.3l-.03.307q.368 0 .405-.39-.69-.841-.668-1.795.03-.954 1.209-1.877.338-.188.338-.728 0-.556-.443-.556zm4.505 0q-.443 0-.443.556 0 .54.323.728 1.193.923 1.223 1.877.023.954-.683 1.795.053.39.406.39l-.023-.308q.375-.383.758-1.299.09-.165.293-.233 0-.12-.323-.458-.322-.337.166-.57 0-.3-.624-.661-.18-.18-.165-.533l-.075.002q-.614 0-.833-.475.112-.323-.053-.488-.067-.158.083-.158l.24.053q-.023-.218-.27-.218zm-2.257 4.115q.883 0 1.769.675.69.586.082 1.344h-3.709q-.608-.758.098-1.344.878-.675 1.76-.675zM27.802 8.64q-1.043 1.216-1.043 1.854.082.368.322.368.316 0 .406-.285 0-.946.405-1.585l-.09-.352zm5.316 0l-.09.352q.405.639.405 1.585.083.285.406.285.233 0 .323-.368 0-.638-1.044-1.854zm-3.289.135q.489 0 .489.518v3.912q-1.532 0-1.735-.984-.203-.984-.022-3.446zm2.508 0q.203 2.462-.007 3.446-.21.984-1.742.984V9.293q0-.518.488-.518zm-1.99-4.182v.27q0 .188-.15.188-.232 0-.555-.27h-.165l.518.975-.166.053q-.27-.353-.54-.728-.042-.02-.075-.02-.082 0-.098.125l.406.706q-.286.232-.286.405-.45 0-.675.353-.654.458-.654 1.014 0 .42.27.96-.187 1.044-.187 2.629 0 1.043.36 1.674.368.63 2.103.63 1.734 0 2.094-.63.368-.63.368-1.674.015-1.585-.172-2.613.27-.556.27-.976 0-.556-.66-1.014-.233-.353-.669-.353 0-.173-.308-.405l.406-.706q0-.124-.078-.124-.03 0-.073.019-.27.375-.54.728l-.165-.053.503-.976h-.15q-.338.27-.579.27-.127 0-.127-.187v-.27zm-2.966 6.621l-.03.001q-.878 1.554-.878 2.448 0 .893.308 1.434.315.54.856.653-.728-.976-.728-1.562 0-.578.135-.946.12 1.029.54 1.45-.187-.827-.172-1.743.007-.923.308-1.374.014-.36-.34-.36zm6.159 0q-.354 0-.34.361.286.45.301 1.374.015.916-.165 1.742.42-.42.54-1.449.136.368.136.946 0 .586-.729 1.562.54-.113.841-.653.308-.54.308-1.434 0-.894-.863-2.448h-.03zm3.321-.237v1.225h2.704v-1.225h-.53c-.154.272-.331.449-.53.53a.76.76 0 0 1-.59 0c-.195-.081-.37-.258-.524-.53zm1.64-4.458v2.03h-.614v2.483h.663V9.476h.767V7.347h.95c.169 1.324.628 2.308 1.379 2.952.75.643 1.677 1.016 2.78 1.12 1.103.102 1.828.248 2.174.435.345.188.518.377.518.569h1.346c-.206-.493-.481-.868-.827-1.126-.346-.257-.988-.42-1.925-.485-.938-.067-1.689-.19-2.251-.37a3.588 3.588 0 0 1-1.506-.96c-.442-.46-.78-1.447-1.016-2.963zm-.892 7.115l-1.542 1.823h.752l.79-.942.797.942.774-.942.798.942.79-.942.797.942.79-.942.797.942.774-.942.797.942.798-.942.774.942.797-.942.79.942h.752l-1.542-1.823-.797.881-.774-.88-.798.88-.797-.88-.774.88-.798-.88-.79.88-.797-.88-.79.88-.797-.88-.774.88-.797-.88zm8.138-9.187c-.408.032-.634.237-.677.613.053.409.28.624.677.646.398-.022.608-.237.63-.646-.033-.376-.243-.58-.63-.613zm.049-1.355c.29 0 .559.054.806.161A2.127 2.127 0 0 1 47.7 4.342c.108.242.162.498.162.767 0 .28-.054.54-.162.782a2.029 2.029 0 0 1-1.097 1.065 2.092 2.092 0 0 1-.806.153c-.29 0-.562-.05-.815-.153a1.94 1.94 0 0 1-.653-.428 2.097 2.097 0 0 1-.436-.637 1.905 1.905 0 0 1-.161-.782c0-.27.053-.525.16-.767.108-.242.254-.457.437-.645.182-.188.4-.336.653-.444.253-.107.524-.161.815-.161zm-.033-.549a2.5 2.5 0 0 0-1 .202c-.312.135-.58.317-.807.549-.225.23-.406.5-.54.806a2.443 2.443 0 0 0-.202.993c0 .354.068.685.202.992.134.306.315.572.54.798a2.56 2.56 0 0 0 1.807.742c.355 0 .686-.067.993-.201.306-.135.575-.315.806-.54.232-.227.414-.493.549-.8.134-.306.201-.637.201-.991 0-.355-.067-.686-.201-.993a2.615 2.615 0 0 0-1.355-1.355 2.443 2.443 0 0 0-.993-.202z"/><path d="M8.22.375c-9.625 0-9.625 17.25 0 17.25m0-17.25h40.414M8.22 17.625h40.414M56.321.375v17.25M48.634.375c9.625 0 9.625 17.25 0 17.25" fill="none" stroke="#000"/></svg>