<svg xmlns="http://www.w3.org/2000/svg" width="82.208" height="18"><path d="M9.777 3.093q1.51.22 1.579 1.382v8.382q-.706-.843-2.536-1.184l.957-8.58zM9.35 2.25L8.22 12.272q2.52.289 3.136 1.8v1.678h.752V4.475q0-1.883-2.757-2.225zm18.417 1.883V5.99H14.085V4.133zM14.135 2.25v1.406h-.527v2.812h14.636V3.656h-.427V2.25h-.477v1.406h-1.18V2.25h-.477v1.406h-1.18V2.25h-.477v1.406h-1.155V2.25h-.502v1.406h-1.155V2.25h-.477v1.406h-1.18V2.25h-.477v1.406H17.9V2.25h-.477v1.406H16.27V2.25h-.477v1.406h-1.18V2.25zm1.268 6.066l-1.795 2.123h.875l.92-1.097.928 1.097.902-1.097.929 1.097.92-1.097.928 1.097.92-1.097.929 1.097.902-1.097.928 1.097.929-1.097.902 1.097.928-1.097.92 1.097h.876l-1.796-2.123-.928 1.026-.902-1.026-.929 1.026-.928-1.026-.902 1.026-.929-1.026-.92 1.026-.928-1.026-.92 1.026-.929-1.026-.902 1.026-.928-1.026zm10.499 4.59q-.301.302-.301 1.104 0 .82.3 1.121h-9.935q.301-.301.301-1.12 0-.803-.301-1.105zm-11.86-.618q-.434 0-.418.284-.016.334.418.334h1.088q.401.302.401 1.104 0 .82-.401 1.121h-1.07q-.452 0-.452.284 0 .335.434.335h13.783q.419 0 .419-.335 0-.284-.435-.284h-1.07q-.402-.301-.402-1.12 0-.803.401-1.105h1.087q.419 0 .419-.334 0-.284-.419-.284zm21.476-3.041q.474 0 .474.359-.007.374-.482.374-.474 0-1.416-.374.95-.359 1.424-.359zm-2.515 1.869q.553.299.837 1.943.134 1.286-.837 1.286-.987 0-.853-1.286.284-1.644.853-1.943zm3.47-8.866q-.921 0-1.736.352-.987.426-1.443 1.42-.456.994-.59 2.983v2.033q-.72-.213-1.823-.213-.525 0-1.137.048v.688q.494-.053.928-.053 1.27 0 2.017.457h-.015q-.673 1.15-.935 1.868-.261.718-.321 1.45-.015.912.336 1.383.352.471 1.249.471.882 0 1.233-.47.351-.472.336-1.384-.06-.732-.321-1.45-.262-.717-.74-1.704 1.251.476 2.02.476 1.112 0 1.209-1-.097-.993-1.203-.993-.774 0-2.041.485V7.064q.09-3.064 1.323-3.692 1.006-.512 1.952-.512.214 0 .425.026 1.144.142 1.824 1.248.68 1.107.777 3.454.097 2.347.127 4.619.329 2.183 1.48 3.543l.523-.463q-1.106-1.42-1.345-3.05-.075-1.226-.105-3.648t-.463-3.782q-.434-1.36-1.219-1.906-.784-.546-1.928-.635-.199-.016-.393-.016zm13.706 1.843q.297 0 .372.35.119.545-.85.885-.204-.986.238-1.19.134-.045.24-.045zm2.599 3.734v4.216h-.816V8.762h-7.14v3.281h-.885V7.827zm-1.343 1.445v4.76H45.33v-4.76zM50.11 3.441q-.364 0-.733.272-.714.663-.255 1.887l-.952 1.7h-4.744v5.27h1.394v1.99h7.14v-1.99h1.344V7.3h-4.267l.748-1.343q1.275-.255 1.462-1.224.05-.782-.595-1.14-.27-.152-.542-.152zm6.252-.348q1.51.22 1.579 1.382v8.382q-.706-.843-2.536-1.184l.957-8.58zm-.426-.843l-1.131 10.022q2.52.289 3.136 1.8v1.678h.752V4.475q0-1.883-2.757-2.225zm11.139.748q2.424 0 5.142 1.172-2.718 1.139-5.142 1.139-2.408 0-5.141-1.139 2.733-1.172 5.141-1.172zm0-.748q-2.994 0-6.882 1.904Q64.08 6.04 67.075 6.04q2.994 0 6.883-1.887-3.873-1.904-6.883-1.904zm6.126 6.794c.23.327.286.73.306 1.12-.009.183.005.382-.07.554-.216-.214-.197-.709-.202-.986 0-.273-.01-.497-.034-.688zM60.92 8.736l11.209.013c-1.638 1.552-3.28 2.31-5.754 2.31-2.485 0-3.989-.74-5.455-2.323zm-.503-.45a.225.225 0 0 0-.171.371c1.628 1.9 3.356 2.853 6.129 2.853 2.698 0 4.541-.915 6.319-2.682.061.17.092.436.092.904.01.52.007 1.383.69 1.443.48-.099.48-.612.483-1.012 0-.49-.12-.936-.321-1.275-.2-.338-.498-.59-.857-.59l-12.364-.013zm1.463 5.468l-1.687 1.996h.823l.865-1.031.873 1.031.849-1.031.873 1.031.865-1.031.873 1.031.865-1.031.874 1.031.848-1.031.873 1.031.874-1.031.848 1.031.873-1.031.865 1.031h.824l-1.689-1.996-.873.965-.848-.965-.874.965-.873-.965-.848.965-.874-.965-.865.965-.873-.965-.865.965-.873-.965-.849.965-.873-.965z"/><path d="M8.22.375c-9.625 0-9.625 17.25 0 17.25m0-17.25h65.738M8.22 17.625h65.738M81.645.375v17.25M73.958.375c9.625 0 9.625 17.25 0 17.25" fill="none" stroke="#000"/></svg>