<svg xmlns="http://www.w3.org/2000/svg" width="260.793" height="18"><path d="M18.058.568q-.111.037-.111.128t.07.146q.027.022.054.022.04 0 .077-.05.063-.081.021-.163-.041-.083-.11-.083zM2.67.47q-.153 0-.296.282.084.183.264.237.028.01.054.01.131 0 .224-.229 0-.255-.194-.292Q2.695.47 2.669.47zM1.665.787q-.042.128.027.238l-.583.073q-.014-.164.556-.31zm.568.436zm.105-.003q.12 0 .195.033.027.012 0 .012-.052 0-.288-.04.05-.005.093-.005zm2.564 1.252q.035 0 .097.068 1.125 1.223 2.792 2.865Q9.46 7.048 9.667 7.724 8.305 7.468 7.34 6.318q-.966-1.15-1.681-2.236-.716-1.086-.799-1.414-.017-.196.042-.196zm.046-.868q.202 0 .384.096 4.321 4.308 4.946 5.604.584 1.405.764 2.154-.076.11-.182.11-.087 0-.193-.074l-.57-1.515q-.43-1.296-2.104-2.875-1.674-1.579-2.424-2.5-.441-.542-.676-.542-.164 0-.227.268-.108.455-.38.455-.115 0-.26-.081.126-.858.542-1.022.198-.078.38-.078zm.357 6.43q.666 1.405.541 2.83-.125 0-.236.236-.045-.403-.277-.403-.051 0-.112.02.292-1.405.084-2.683zM2.827.346q.066 0 .116.013.25.063.292.237.029.122.058.122.013 0 .025-.022.042-.073.056-.164.305.53.041 1.57t.848 1.24q1.028 3.104 2.209 4.72 1.18 1.615.986 3.038-.449-.438-.993-.438-.113 0-.23.019.042-1.296-.472-2.556t-.945-1.889q-.43-.63-1.16-1.497-.73-.867-.722-1.789.007-.921.194-1.286.188-.365.181-.584-.003-.091-.027-.091-.035 0-.112.182-.132.31-.73.328l-.07.001q-.568 0-1.235-.274l.82.073q.404.11.601.11.162 0 .183-.074.049-.164-.076-.192-.125-.027-.257-.027t-.201.055l.026.052-.29-.052Q1.762.787 1.887.623q.028-.055.097-.055-.028.183.049.274.028.034.056.034.046 0 .09-.098.07-.155-.125-.228.511-.204.773-.204zm15.412.04q.375 0 .555.365.056.055.695.2v.056l-.695.073q-.597 0-.75-.12-.153-.118-.146-.273.007-.155.188-.155.18 0 .25.082t.035.173q-.035.092-.132.147h.028q.18 0 .187-.22.007-.237-.299-.273-.389 0-.291.374.092.357.854.357l.076-.001q.431-.037.765-.128L19.53.97q1.236 1.004 1.16 2.29-.077 1.288-.966 2.136-.889.85-1.584 1.871-1.083 1.734-1.167 2.72-.083.986.376.986.458 0 1.118-.721.66-.721 1.34-.74 1.82.055 1.612 2.209-.667-.93-1.5-.93-.417 0-1.14.474-1.097.766-1.667.766l-.472-.091q-.861-.84-.583-2.482.416-1.187 1.125-4.235.486-1.734.965-2.628.48-.895 1.022-.913.291 0 .944.365.027.01.047.01.094 0 .037-.21-.526-.429-1.226-.429-.225 0-.47.045-.208 0-.506-.146-.3-.146-.3-.694.251-.237.543-.237zM4.666 3.05q1.083 1.825 1.986 3.002.903 1.178 1.702 1.588.799.411 1.48.43.083.145 1.653 4.617l-.097.055-3.738-3.14q.028-.273-1.104-1.962-1.132-1.687-1.994-4.46l.112-.128zM8.5 10.918l2.07 1.66q.07.256-.5.348-.127.02-.233.02-.37 0-.49-.248-.152-.32-.389-.831-.236-.511-.458-.95zm7.071-.785q0 .767.167 1.332.43 1.004 1.153 1.023h.038q.711 0 1.699-.657.938-.625 1.365-.625.034 0 .066.004.416.055.903.566.486.51.514.894.05.311-.043.311-.06 0-.18-.128-.399-1.05-1.024-1.05h-.01q-.633.01-1.557.648-.923.639-2.153.639t-1.368-1.04q-.14-1.04.43-1.917zM5.277 11.192l.208.547q.195-.255.299-.3l.005-.002q.088 0-.304 1.543l-.583.238q-.153-.146.09-.904.243-.757.285-1.122zm14.763 1.14q.461 0 .727.502-.18.384-.847.603-.514 0-1.042-.566.685-.539 1.162-.539zm-1.607.758q.207.265.448.438h-1.883q.692-.095 1.435-.438zm-7.182 1.15q-1.554 2.935-4.48 3.011-2.913-.076-4.467-3.011zm11.239.018q-1.554 2.935-4.48 3.012-2.913-.077-4.48-3.012zM3.066.008q-.084 0-.179.013-.222 0-1.264.42-.834.255-.903.657l.028.62.417-.2q.68.292 1.139.292.458 0 .347.41-.111.411.028 1.37.139.958 1.097 1.934.959.977 1.188 2.556.23 1.578-.41 3.641l.209-.164q.004-.004.007-.004.046 0-.216.816-.277.867-.757.894-.084.005-.16.005-.348 0-.486-.105-.155-.12-.462-.12l-.045.001q-.34.01-.34.302v.182H1.33Q2.93 17.982 6.777 18q3.849-.018 5.446-4.472l-4.279.037q0-.165-.264-.356-.129-.094-.296-.094-.175 0-.391.103-.13.061-.278.061-.337 0-.771-.317.097-.639.236-1.14.139-.503.528-.594.036-.008.073-.008.362 0 .816.811.264-.675.153-1.825l.139.128q1.042 2.3 1.257 2.701.163.305.634.305.15 0 .331-.031.75-.128.737-.475l.639.42.486-.237-1.07-3.048q.264 0 .487-.292-.264-1.096-.82-2.446-.39-.822-.792-1.278Q8.681 4.603 7.5 3.39T5.763 1.518q-.373-.28-.775-.28-.226 0-.461.088-.653.246-.792 1.214-.042-.037.07-.73.11-.694-.05-1.287-.138-.514-.689-.514zM18.286 0q-.252 0-.478.094-.292.11-.347.42-.111.383.097.757.208.374.653.466-.89 1.058-1.514 3.741-.584 2.556-.973 3.779-1.042 1.113-1.035 2.236.007 1.122.424 1.597.301.343.878.438h-3.434q1.597 4.454 5.446 4.472 3.848-.018 5.445-4.472h-2.674q.153-.11.313-.256.156.245.354.245.083 0 .174-.044.347-.219.139-1.004.194-2.245-.459-2.865-.653-.621-1.473-.621-.75 0-1.625.849-.543.526-.743.526-.124 0-.118-.198.014-.52.611-1.761.403-.876 1.75-2.254 1.348-1.378 1.334-2.775-.014-1.396-.597-2.099-.584-.703-1.292-.794-.111-.2-.292-.328-.18-.128-.48-.146Q18.329 0 18.287 0zm11.203 1.053l-.651 10.992h-.326L27.88 1.053zm-1.617 11.512q.225 0 .487.016v4.442q.02.268-.21.268-.364 0-1.015-1.32-.651-1.322-.651-2.797 0-.61 1.389-.61zm1.563 0q1.413 0 1.413.629 0 1.455-.65 2.776-.652 1.321-1.015 1.321-.23 0-.23-.268v-4.442q.258-.016.482-.016zM25.448 0v1.053h1.513l1.073 10.302q.093.671-.068.671h-.009q-.464-.206-.873-.206-.622 0-1.118.474-.518.632.057 2.374.574 1.743 1.082 2.537.507.795 1.56.795 1.226 0 1.657-.795.43-.794 1.044-2.527.612-1.733 0-2.384-.618-.458-1.235-.458-.417 0-.834.209-.095 0 0-.69l1.054-10.302h1.512V0zm19.474.911v6.46h-4.333V.91zM39.698 0v8.261h6.135V0zm-5.835 13.61V18h17.805v-4.39H33.863m17.073.731v2.927h-16.34v-2.927h16.34zM57.115.475c.848 0 1.91.435 2.423.949.45.45.508 1.045.525 1.599h-5.87c.016-.554.074-1.15.524-1.6.513-.513 1.55-.948 2.398-.948zm0-.475c-1.006 0-2.089.465-2.723 1.1-.65.65-.724 1.506-.724 2.147v.25h6.894v-.25c0-.64-.048-1.497-.7-2.148C59.229.465 58.122 0 57.116 0zm8.474.475c.848 0 1.91.435 2.423.949.45.45.508 1.045.524 1.599h-5.87c.017-.554.075-1.15.525-1.6.513-.513 1.55-.948 2.398-.948zm0-.475c-1.006 0-2.089.465-2.723 1.1-.65.65-.725 1.506-.725 2.147v.25h6.895v-.25c0-.64-.049-1.497-.7-2.148C67.703.465 66.596 0 65.59 0zm-4.235 7.154l-2.038-2.055-.736.657 2.077 2.09-2.09 2.078.693.697 2.09-2.078 2.077 2.09.697-.692-2.038-2.176 2.05-1.992-.692-.697-2.09 2.078zm-7.197 5.058V18h.968v-5.788zm6.651.008V18h.968v-5.78zm6.771 0V18h.967v-5.78zM74.546.591c.673 0 1.128.1 1.508.529.521.52.621 1.29.572 1.992-.01 1.612-.295 3.21-.766 4.75-.37 1.266-.811 2.51-1.215 3.766h-.196c-.017-.062-1.925-5.289-2.01-8-.015-.79-.128-1.684.412-2.341.335-.459 1.01-.696 1.695-.696zm.416 11.625v.684c0 .124.077.234.194.276.17.062.328.172.49.304h-2.391c.161-.132.318-.242.49-.304a.294.294 0 0 0 .193-.276v-.684zm1.644 2.477c.06.121.07.367.054.538h-4.376a2.059 2.059 0 0 1-.023-.538zm-.466 1.819c-.317.471-.95.9-1.618.9-.72 0-1.422-.417-1.76-.9zM74.576 0c-1.274 0-2.736.735-2.736 2.246-.073.922.018 1.85.114 2.768.29 2.285 1.151 4.436 1.86 6.614h-.017c-.095 0-.446.01-.446.294v.784c-.403.198-.682.5-.955.723h-.876a.294.294 0 0 0-.294.294v.792c0 .157.184.287.341.293.071.133.083.252.101.375l-.329-.01h-.004a.307.307 0 0 0-.299.294v.76c0 .163.131.295.294.295.204 0 .674.01.756.01h.011c.368.843 1.355 1.468 2.425 1.468 1.04 0 1.944-.67 2.284-1.478h.764c.275 0 .294-.192.294-.294v-.761c0-.128.055-.285-.59-.285a1.48 1.48 0 0 0-.016-.368c.283-.017.415-.142.415-.3v-.791a.294.294 0 0 0-.293-.294h-.876c-.273-.222-.552-.525-.955-.723v-.784c0-.16-.128-.29-.287-.293.007-.037 1.84-5.082 1.93-7.732.07-.998.169-2.12-.499-2.956C76.277.368 75.84 0 74.576 0zm14.907 8.704c.337 0 .752.06 1.245.18 1.041.253 1.941.612 2.701 1.076a33.73 33.73 0 0 1 2.554 1.752c-.908.459-1.95.689-3.13.689-.265 0-.537-.012-.817-.035-1.519-.127-2.824-.574-3.914-1.34-1.09-.767-1.361-1.238-.812-1.414.548-.176.995-.404 1.34-.686.181-.148.459-.222.833-.222zm7.26 3.176l.864.19c0 .225-.204.408-.612.549-.232.016-.474.024-.726.024-.42 0-.867-.022-1.342-.066.915-.113 1.52-.345 1.815-.697zm1.329.317l.527.105c.056.17-.14.338-.59.507l-.613-.042c.436-.197.662-.387.676-.57zm.801.211l.36.084c-.085.24-.338.36-.76.36.239-.156.372-.303.4-.444zm.591.211c.338.098.563.26.676.485l-.95-.21c.183-.085.274-.177.274-.275zm-2.194 1.245c1.055.127 1.85.422 2.384.886l-2.616-.612c.028-.154.105-.246.232-.274zM85.052.401c.66 0 1.16.183 1.498.549.338.365.443 1.248.316 2.648-.126 1.4-.168 2.35-.126 2.849.042.5.172.868.39 1.108.218.239.482.474.792.706.309.233.154.44-.465.623s-.963.454-1.034.812c-.07.36.018.69.264.992.246.303.834.71 1.762 1.224.929.514 1.748.84 2.458.981.71.141 2.888.211 6.532.211 1.125.211 1.87.493 2.236.844L97.27 13.4a.943.943 0 0 0-.528.4c0 .366-.795.577-2.384.634-.24 0-.401-.33-.486-.992l-.253.211c.127.535.162 1.006.106 1.414a1.582 1.582 0 0 0-1.034-.95c-.788-.14-1.492-.27-2.11-.39-.62-.12-1.246-.376-1.879-.77-.562-.436-1.466-.908-2.711-1.414-1.245-.507-1.868-1.26-1.868-2.258 0-.999.334-1.825 1.003-2.48.668-.654 1.002-1.438 1.002-2.352 0-.45-.056-.876-.169-1.277-.102-.363-.405-.544-.91-.544a2.39 2.39 0 0 0-.166.006l-1.773.232a1.71 1.71 0 0 1 .254-.507c.14-.436.295-.689.464-.76.024.087.119.13.284.13.023 0 .048 0 .074-.003.282-.014.444-.154.486-.422-.028-.267-.19-.408-.486-.422-.253.014-.393.155-.422.422-.225.211-.4.458-.527.739a.273.273 0 0 1-.12.03.277.277 0 0 1-.197-.093 4.81 4.81 0 0 1 .739-1.045c.324-.359.788-.538 1.393-.538zm4.79 13.758l.675.17-.76 1.097.085-1.267zm1.308.233c.563 0 1.038.06 1.425.179.386.12.626.573.717 1.361.09.774-.027 1.161-.352 1.161h-2.043a1.842 1.842 0 0 0-.136-.005c-.346 0-.73.093-1.151.279.112-.985.626-1.977 1.54-2.975zM85.052 0c-.957 0-1.745.535-2.364 1.604-.21.351-.837.703-1.878 1.055-.717.21-1.027.506-.928.886l.02.253c1.337-.126 2.456-.288 3.356-.485l1.646-.295a.89.89 0 0 1 .025 0c.49 0 .731.414.724 1.245-.007.844-.362 1.6-1.066 2.268-.703.668-1.062 1.635-1.076 2.902 0 1.027.49 1.762 1.467 2.205.978.443 1.924.918 2.838 1.424.914.507 1.435.9 1.562 1.182-.07 1.491-.254 2.455-.55 2.89-.491 0-1.35-.07-2.574-.21-.38.056-.64.18-.78.37-.141.189-.113.397.084.622.094-.136.184-.204.27-.204.03 0 .06.008.089.024.112.064.394.095.844.095h2.068a1.5 1.5 0 0 1 .288-.03c.236 0 .436.067.598.199a.988.988 0 0 0 .507-.169c.62.018 1.14.027 1.558.027.558 0 .935-.016 1.132-.048.345-.056.658-.105.94-.148l.717.232.024.001c.16 0 .18-.14.06-.423-.619-.337-.76-1.188-.422-2.553.119.003.234.004.345.004 1.113 0 1.842-.128 2.187-.384 1.407.253 2.554.5 3.44.739l.148-.253c-.366-.408-.64-.669-.823-.781l.928.19c.15.056.254.084.312.084.116 0 .047-.112-.206-.337-.057-.155-.465-.458-1.224-.908l1.287.253c.14-.9-.837-1.54-2.933-1.92a7.14 7.14 0 0 1-2.976-1.477c-1.167-1.027-2.933-1.78-5.296-2.258-1.252-.084-1.949-.468-2.09-1.15-.14-.682-.136-1.77.011-3.26.148-1.491-.06-2.462-.622-2.912C86.297.183 85.74 0 85.052 0z"/><path d="M91.816 0v7.2h1.204V0zm18.997.893v16.36h-7.142v-.79h3.613V6.769h2.221V.893zM108.737 0v6.042h-2.221v9.778h-3.696V18h8.761V0zm9.579.601c1.074 0 2.418.552 3.069 1.202.569.57.643 1.324.664 2.025h-7.435c.021-.7.096-1.455.665-2.025.65-.65 1.963-1.202 3.037-1.202zm0-.601c-1.274 0-2.645.589-3.449 1.392-.824.824-.917 1.91-.917 2.72v.317h8.732v-.316c0-.812-.062-1.897-.886-2.72C120.993.588 119.59 0 118.316 0zm-2.306 8.792q.536 0 1.414.292 1.506.502 3.119 2.097 1.613 1.595 1.29 2.957-.323 1.362-1.254 2.043-.77.563-1.858.563-.23 0-.472-.025-1.398-.143-2.402-2.204-1.003-2.061-.932-3.674.072-1.613.502-1.9.21-.15.593-.15zm-.147-1.244q-.739 0-1.198.318-.968.68-1.076 2.795-.107 2.115 1.219 4.588t3.226 2.706q.363.045.706.045 1.454 0 2.555-.797 1.362-.986 1.703-2.796.34-1.81-1.452-3.835t-3.87-2.688q-1.054-.336-1.813-.336zM129.495.577q.147 0 .158.367l-.805 2.278-.895-.391 1.414-2.203q.073-.05.128-.05zm6.6.059q.052 0 .12.045l1.414 2.203-.887.406-.812-2.293q.017-.361.165-.361zm-8.33 2.48l.226.083-2.188 3.519q-.131.234-.245.234-.036 0-.07-.024-.143-.09.022-.323l2.255-3.488zm10.052.053l2.256 3.481q.165.256.022.338-.03.018-.063.018-.115 0-.245-.236l-2.188-3.503.218-.098zm-9.698.098l.225.09-1.736 3.714q-.103.234-.24.234-.044 0-.091-.023-.188-.09-.06-.376l1.902-3.639zm9.345.068l1.902 3.623q.135.301-.06.384-.042.018-.081.018-.142 0-.243-.236l-1.736-3.707.218-.082zm-8.94.105l.204.098-1.33 3.871q-.11.313-.251.313-.036 0-.073-.02-.196-.09-.06-.443l1.51-3.82zm8.534.068l1.518 3.804q.136.353-.06.443-.038.018-.074.018-.148 0-.256-.296l-1.331-3.887.203-.082zm-4.255 3.398q1.578.15 1.6 1.616.069 1.33-1.615 1.616-1.602-.255-1.617-1.616.098-1.519 1.632-1.616zM129.668 0q-.206 0-.467.087L125.18 6.47q-.308.571.113.744.119.05.225.05.268 0 .452-.328-.218.458.165.631.11.051.208.051.249 0 .416-.329-.218.474.248.722.128.067.239.067.287 0 .46-.45l2.233-6.398 2.188 5.067q-1.496.571-1.646 2.225.067 1.36 1.075 1.932h-.955v.64h4.375v-.64h-.962q1.045-.519 1.06-1.932.015-1.654-1.601-2.225l2.172-5.015 2.24 6.413q.166.433.45.433.115 0 .25-.072.459-.24.24-.7.173.33.42.33.096 0 .205-.051.39-.173.172-.647.18.343.45.343.103 0 .22-.05.42-.172.12-.744L136.389.155q-.266-.094-.475-.094-.466 0-.653.462l-2.458 5.774-2.474-5.842Q130.141 0 129.67 0zm2.943 13.284q.938 0 1.711.467 1.573.912 2.98.912 1.417 0 2.599-.121v2.433q-1.469-.261-2.12-.261h-.018q-.53 0-1.477.122-3.85.53-4.797.53-1.572 0-2.963-.052-2.38-.14-2.615-.252-.226-.105-.226-.6 0-.487.13-.852.13-.364.435-.52 7.438-.331 8.02-.383-.518-.748-1.606-.748-.353 0-.766.079-1.386.272-2.136.272-.159 0-.289-.012-.738-.07-.686-.703.415.056.857.056.928 0 1.976-.248.517-.12.991-.12zm.221-.706q-.376 0-.743.095-1.486.392-2.616.409-.278 0-.999-.14-.339.314-.339.74 0 .425.27.72-2.842.105-2.842.34-.512.651-.512 1.564 0 .903.478 1.233 1.442.461 5.795.461.695 0 1.417-.07 4.031-.6 4.805-.616l.076-.001q.794 0 2.913.33v-3.84l-.017.017q-1.817.209-2.964.235-.058.002-.117.002-1.092 0-2.246-.61-1.221-.869-2.359-.869zM144.692 0l-2.157 2.55h1.052l1.105-1.317 1.116 1.318 1.084-1.318 1.116 1.318 1.106-1.318 1.116 1.318 1.105-1.318 1.116 1.318 1.084-1.318 1.116 1.318 1.116-1.318 1.084 1.318 1.116-1.318 1.105 1.318h1.052L157.967 0l-1.116 1.233L155.767 0l-1.116 1.233L153.535 0l-1.084 1.233L151.335 0l-1.105 1.233L149.114 0l-1.106 1.233L146.892 0l-1.084 1.233L144.692 0zm-.567 15.583q-.1 0-.195.03-.37.12-.327.36.037.203.331.203.054 0 .116-.007.403-.043.708-.327-.34-.26-.633-.26zm.189-.22q.787 0 2.427.937.824.426 1.805.426.474 0 .985-.1 1.286-.26 2.703-.457.481-.066.932-.066.877 0 1.64.251 1.155.382 1.918.49.763.11 2.42.197-1.069.109-2.093.109-1.025 0-2.42-.229-.697-.114-1.343-.114-.645 0-1.24.114-1.187.229-2.702.425-.379.05-.744.05-1.098 0-2.078-.442-.953-.65-1.979-.65-.453 0-.92.127-.414-.022-.37-.458.239-.588 1.024-.61h.035zm.583-2.224q-.472 0-.88 1.44-.341-1.272-.88-1.272-.081 0-.166.029-.654.414.436 1.59-.872.502-.872 1.265 0 .763 1.286.85.397-.104.777-.104.888 0 1.675.573.673.49 2.135.49.975 0 2.3-.218 1.628-.458 3.164-.458.582 0 1.152.066 1.423.165 2.425.165.455 0 .822-.035 1.853-.043 1.853-.348-.501-.458-1.417-.61-1.94-.022-3.541-.676-.801-.327-1.965-.327-1.163 0-2.689.327-.984.248-1.832.248-1.162 0-2.07-.466-.937-.567-1.983-.937.872-.676.818-1.123-.055-.447-.534-.468h-.014zM176.284.553q.096 0 .178.07.348.33-.44 1.336-.805.916-.98 1.52-.173.604-.393 1.566-.22.961-1.099 3.122h-4.193q.568-1.19 1.74-2.481 1.172-1.291 1.996-1.84.824-.55 1.3-.962.476-.412 1.062-1.492.497-.839.83-.839zm1.936.125l.11.054-5.22 12.196-4.742-.019-.64-3.955h6.591l3.9-8.276zm-.293 13.019q-2.486 3.363-7.142 3.46-4.637-.097-7.123-3.46zM177.982 0l-2.765 5.402q.33-1.813.686-2.371.357-.559.669-.815.659-.843.604-1.264-.055-.421-.476-.696-.295-.2-.595-.2-.11 0-.22.026-.412.101-.943 1.053-.128.403-.54.916-.412.513-1.694 1.29-1.282.779-2.875 2.665-1.52-1.099-2.206-1.94-.687-.843-.751-1.447-.064-.605.165-.944.229-.338.622-.43.12-.028.235-.028.264 0 .507.147.348.21.33.687-.11.494-.641.586-.162-.062-.27-.062-.146 0-.188.117-.11.348.375.375.05.003.1.003.426 0 .78-.213.393-.238.356-1.246-.311-.787-1.062-.888-.192-.025-.371-.025-.523 0-.938.218-.559.293-.65 1.3-.092 1.007.677 2.014.77 1.007 2.417 2.27-.31.44-.97 1.667h-1.465l.714 4.742h-5.475q2.545 5.073 8.68 5.091 6.116-.018 8.66-5.09l-5.53.018L179.1.568 177.982 0zm7.169 3.071c-.27.13-.6.49-.1.55.24-.01.79-.26.69-.49a.221.221 0 0 1-.157.067c-.142 0-.287-.127-.433-.127zm-1.97.09c-.33.08-.501.44-.08.52l.021.002c.242 0 .901-.294.358-.361-.09-.06-.18-.16-.3-.16zm2.63-2.51c.59.69 1.111 1.49 1.211 2.41.1.66.13 1.321.23 1.971-.47-.04-.33-.77-.24-1.12.08-.69-.29-1.33-.55-1.941-.18-.33-.35-.85-.81-.86-.51.09-.841.52-1.171.89-.34-.34-.7-.71-1.17-.85a.236.236 0 0 0-.082-.013c-.105 0-.229.046-.285.046-.05 0-.049-.034.056-.164.064-.224.196-.29.359-.29.238 0 .543.141.8.141a.561.561 0 0 0 .112-.01c.084.004.169.007.254.007.437 0 .876-.067 1.286-.218zm-.16.76c.39.1.48.64.67.96.24.56.531 1.17.34 1.801-.15.3.04.68.02.9-.333.235-.626.73-1.069.73a.631.631 0 0 1-.15-.02c-.44-.09-.661-.51-1.001-.71-.246.238-.392.73-.798.73a.618.618 0 0 1-.183-.03c-.37-.08-.86-.04-.97-.49-.19-.46-.21-.97-.24-1.47a.324.324 0 0 0 .06.006c.203 0 .222-.235.24-.436.078-.293.287-.429.52-.429.158 0 .325.062.47.178.17.19.69.34.58.64-.05.18-.11.371-.17.561l.42.56c.04-.29.471-.53.22-.82-.04-.13-.19-.3-.17-.4.18-.32.421-.6.701-.84a.322.322 0 0 1 .23-.103c.268 0 .537.351.77.382.23-.25-.02-.35-.25-.48a.701.701 0 0 0-.486-.196c-.25 0-.5.13-.654.356-.19.114-.322.494-.49.494-.052 0-.108-.037-.17-.134-.306-.244-.672-.518-1.072-.518a.855.855 0 0 0-.179.018c-.283.059-.538.632-.559.632l-.001-.001c-.01-.47.21-.89.34-1.351a.612.612 0 0 1 .596-.477c.173 0 .348.075.474.237.298.11.517.634.797.634.049 0 .1-.017.154-.054.31-.33.56-.72 1.01-.86zm-1.42 6.943c1.27 1.31 2.44 4.632 2.741 5.993-.49-.4-1.16-.66-1.31-.91-.16-.26-.6-2.792-1.431-5.083zm4.522-2.381c2.401 1.38 6.583 8.174 7.473 9.264-1.5-.95-2.981-1.91-4.592-2.691-2.26-1.11-4.192-2.911-6.033-4.592 1.521-.51 2.612-1.37 3.152-1.981zm-2.491 8.624c.32.19.61.45.96.59-.21.52-.34 1.1-.77 1.51-.081.13-.196.172-.328.172-.228 0-.504-.123-.735-.123-.016 0-.032 0-.048.002.28-.7.7-1.01.92-2.151zm.68-9.365c.06.126.138.167.22.167.108 0 .224-.071.32-.116.24.17 1.07.15.58.51-.31.42-1.967 1.566-3.118 1.768-.498.087.337.873.607 1.153 1.561 1.4 3.092 2.882 4.963 3.892 1.17.66 2.4 1.25 3.531 1.98.54.781 1.18 1.502 1.591 2.362-.41.12-.81.29-1.23.39a2.89 2.89 0 0 1-.703.082c-.66 0-1.325-.197-1.619-.512-.54-.57-1.13-3.001-1.44-3.892-.044-.1-.107-.133-.175-.133-.135 0-.292.132-.369.132a.042.042 0 0 1-.037-.019.391.391 0 0 0-.386-.376c-.175 0-.339.127-.314.396-.06.63-.18 1.26-.48 1.831-.037.097-.114.134-.215.134-.284 0-.761-.293-1.086-.374.13-.77-.92-4.712-4.002-8.014-.107-.116-.577-.611-.536-.611.005 0 .017.006.036.02.158.042.336.07.511.07.338 0 .669-.104.84-.42.026-.077.058-.108.096-.108.138 0 .345.399.564.399a.92.92 0 0 0 .514.155c.29 0 .578-.131.777-.355.19-.17.37-.34.56-.51zM185.902 0a3.72 3.72 0 0 1-1.36.28c-.072 0-.143-.004-.211-.01a.804.804 0 0 1-.143.012c-.337 0-.7-.18-1.025-.18a.622.622 0 0 0-.353.098c-.55.8-1.05 1.69-1.11 2.681-.11 1.901-.06 2.562 1.44 4.122.59 1.341 1.691 5.713 2.021 6.904.36.34-.45 2.2-.79 2.66-.185.256-.673.268-1.197.268h-.172c-.471 0-.948.01-1.242.193-.28.18-.38.85-.22.94.15-.23.45-.54.66-.57-.2.21.5.11.65.16.405.007.814.041 1.225.041.198 0 .397-.008.596-.03.09-.04.186-.102.229-.102.032 0 .032.038-.029.151.283.074.601.111.913.111.7 0 1.363-.187 1.508-.56.3-.551.58-1.131.78-1.732.256.054.577.234.835.234a.38.38 0 0 0 .206-.054c.28-.19.57-1.08.73-1.67.016-.062.099-.092.183-.092.081 0 .163.028.188.082.3.6.8 2.44 1.28 3.211.362.571 1.24.852 2.175.852a4.48 4.48 0 0 0 1.717-.332c.65-.28 1.13-.22.99-.58-.22-.6-.6-1.17-1-1.68.58.36 1.16.73 1.74 1.09.049.174.169.243.292.243.237 0 .483-.256.24-.513-2.272-3.282-5.884-8.875-8.385-10.685-.4-.35-.87-.62-1.39-.75-.17-.44-.12-1.031-.22-1.531-.1-.99-.701-2.632-1.751-3.262zm23.104.924c.297 0 .475.05.568.103.269.172.14.583.097.84h-1.33c-.032-.263-.177-.664.098-.84.092-.053.27-.103.567-.103zm-7.39 1.552V3.4h-1.261v-.924zm6.557 0V3.4h-6.252v-.924zm1.52 0V3.4h-1.217v-.924zm6.104 0V3.4h-5.8v-.924zm1.632 0V3.4H216.1v-.924zM206.336 0l-.43.431 1.439 1.436h-7.6v2.142h18.293V1.867h-7.37l1.44-1.436-.431-.431-1.33 1.327c-.08-.804-.632-.989-1.34-1.012-.758.02-1.223.192-1.34 1.012L206.335 0zm2.341 12.428q1.108 0 2.021.553 1.858 1.077 3.521 1.077 1.673 0 3.07-.143v2.874q-1.735-.308-2.505-.308h-.02q-.627 0-1.746.144-4.547.626-5.666.626-1.858 0-3.5-.062-2.813-.164-3.09-.298-.267-.123-.267-.708 0-.575.154-1.006.154-.43.513-.616 8.787-.39 9.475-.451-.612-.884-1.898-.884-.417 0-.905.093-1.636.322-2.523.322-.187 0-.34-.014-.873-.082-.811-.831.49.066 1.012.066 1.096 0 2.334-.292.61-.142 1.171-.142zm.262-.833q-.445 0-.879.113-1.755.462-3.09.482-.328 0-1.18-.164-.4.37-.4.872 0 .503.318.852-3.357.124-3.357.4-.605.77-.605 1.848 0 1.068.564 1.458 1.704.544 6.847.544.821 0 1.673-.082 4.763-.708 5.677-.729h.09q.938 0 3.44.39v-4.537l-.02.02q-2.145.247-3.5.278l-.14.002q-1.289 0-2.652-.72-1.443-1.027-2.786-1.027zM224.111 0v8.164h.682V.698h7.229v6.737l-2.79.016-.016-4.582h-.713v5.295h4.216V0zm-2.018 15.57L220.038 18h1.002l1.053-1.255L223.156 18l1.033-1.255L225.252 18l1.052-1.255L227.368 18l1.052-1.255L229.483 18l1.033-1.255L231.58 18l1.063-1.255L233.675 18l1.063-1.255L235.79 18h1.002l-2.055-2.43-1.063 1.175-1.033-1.175-1.063 1.175-1.063-1.175-1.033 1.175-1.063-1.175-1.052 1.175-1.064-1.175-1.052 1.175-1.063-1.175-1.033 1.175-1.063-1.175zM239.646 0l-.853.853v.707l1.384-1.383.177-.177zm3 0l-3.853 3.853v.707l4.384-4.383.177-.177zm3 0l-6.853 6.853v.707l7.384-7.383.177-.177zm3 0l-9.853 9.853v.707L249.177.177l.177-.177zm3 0l-12.853 12.853v.707L252.177.177l.177-.177zm3 0l-15.853 15.853v.707L255.177.177l.177-.177zm3 0l-17.823 17.823-.177.177h.708L258.177.177l.177-.177zm3 0l-17.823 17.823-.177.177h.708L260.794.56V0zm.147 2.853l-14.97 14.97-.177.177h.708l14.44-14.44v-.707zm0 3l-11.97 11.97-.177.177h.708l11.44-11.44v-.707zm0 3l-8.97 8.97-.177.177h.708l8.44-8.44v-.707zm0 3l-5.97 5.97-.177.177h.708l5.44-5.44v-.707zm0 3l-2.97 2.97-.177.177h.708l2.44-2.44v-.707z"/></svg>