<svg xmlns="http://www.w3.org/2000/svg" width="82.875" height="18"><path d="M9.777 3.093q1.51.22 1.579 1.382v8.382q-.706-.843-2.536-1.184l.957-8.58zM9.35 2.25L8.22 12.272q2.52.289 3.136 1.8v1.678h.752V4.475q0-1.883-2.757-2.225zm18.417 1.883V5.99H14.085V4.133zM14.135 2.25v1.406h-.527v2.812h14.636V3.656h-.427V2.25h-.477v1.406h-1.18V2.25h-.477v1.406h-1.18V2.25h-.477v1.406h-1.155V2.25h-.502v1.406h-1.155V2.25h-.477v1.406h-1.18V2.25h-.477v1.406H17.9V2.25h-.477v1.406H16.27V2.25h-.477v1.406h-1.18V2.25zm1.268 6.066l-1.795 2.123h.875l.92-1.097.928 1.097.902-1.097.929 1.097.92-1.097.928 1.097.92-1.097.929 1.097.902-1.097.928 1.097.929-1.097.902 1.097.928-1.097.92 1.097h.876l-1.796-2.123-.928 1.026-.902-1.026-.929 1.026-.928-1.026-.902 1.026-.929-1.026-.92 1.026-.928-1.026-.92 1.026-.929-1.026-.902 1.026-.928-1.026zm10.499 4.59q-.301.302-.301 1.104 0 .82.3 1.121h-9.935q.301-.301.301-1.12 0-.803-.301-1.105zm-11.86-.618q-.434 0-.418.284-.016.334.418.334h1.088q.401.302.401 1.104 0 .82-.401 1.121h-1.07q-.452 0-.452.284 0 .335.434.335h13.783q.419 0 .419-.335 0-.284-.435-.284h-1.07q-.402-.301-.402-1.12 0-.803.401-1.105h1.087q.419 0 .419-.334 0-.284-.419-.284zm19.91-9.45q.618 0 .875.558h-1.735q.256-.558.86-.558zm-.347 1.312v1.222h-1.81q-.302-1.222-.106-1.222zm2.624 0q.196 0-.105 1.222h-1.81V4.15zm-.241 1.87q-.332 1.63-.588 3.372-.257 1.742-.204 3.13.053 1.387.294 2.519h-3.062q.242-1.132.295-2.52.052-1.387-.204-3.13-.257-1.741-.588-3.37zm-2.036-3.77q-1.131 0-1.644 1.146H30.03q-.286 0-.286.377t.286.377h.407q.347 0 .377.166.634 2.746.845 3.922.407 2.247.407 3.77 0 1.51-.256 2.376-.256.868-.256.988-.015.378.194.378h4.422q.21 0 .195-.378 0-.12-.256-.988-.257-.867-.257-2.375 0-1.524.408-3.771.21-1.176.844-3.922.03-.166.347-.166h.437q.287 0 .287-.377t-.287-.377h-2.277q-.513-1.146-1.66-1.146zm7.381.85q.366 0 .966.2 1.028.342 2.13 1.43 1.1 1.09.88 2.02-.22.93-.856 1.395-.526.384-1.269.384-.156 0-.322-.017-.955-.098-1.64-1.505-.685-1.407-.636-2.509.049-1.1.343-1.297.142-.102.404-.102zm-.1-.85q-.505 0-.818.217-.661.465-.735 1.91-.073 1.443.832 3.132.906 1.688 2.203 1.847.248.03.483.03.992 0 1.744-.544.93-.673 1.162-1.909.233-1.235-.99-2.618-1.224-1.383-2.644-1.836-.72-.229-1.237-.229zm1.257 8.502v4.998h.836v-4.998zm8.151-4.866q.247 0 .247.187-.004.194-.25.194-.247 0-.737-.194.493-.187.74-.187zm-1.307.971q.287.156.435 1.01.07.668-.435.668-.513 0-.443-.668.148-.854.443-1.01zm1.804-4.607q-.48 0-.903.183-.513.221-.75.738-.236.517-.306 1.55v1.056q-.374-.11-.947-.11-.273 0-.592.025v.357q.258-.027.483-.027.66 0 1.048.237h-.008q-.35.598-.485.971-.136.373-.167.754-.008.473.174.718.183.245.649.245.458 0 .64-.245.184-.245.176-.718-.031-.381-.167-.754t-.385-.886q.65.248 1.05.248.578 0 .628-.52-.05-.516-.625-.516-.402 0-1.06.252V4.752q.046-1.593.687-1.919.523-.266 1.014-.266.112 0 .221.014.594.073.948.648.353.575.404 1.795.05 1.22.066 2.4.17 1.134.769 1.841l.272-.24q-.575-.738-.7-1.585-.038-.637-.054-1.896-.015-1.258-.24-1.965-.226-.707-.634-.99-.407-.284-1.002-.33-.103-.009-.204-.009zm.6 8.121q.152 0 .19.18.062.28-.436.455-.105-.507.122-.612.07-.023.124-.023zm1.335 1.92v2.166h-.419v-1.686h-3.67v1.686h-.454V12.29zm-.69.742v2.446h-3.136v-2.446zm-.68-2.997q-.187 0-.377.14-.367.34-.131.97l-.49.873h-2.437v2.709h.717v1.022h3.669v-1.022h.69v-2.709h-2.193l.385-.69q.655-.13.751-.629.026-.402-.306-.585-.138-.079-.278-.079zm5.325-6.943q1.511.22 1.58 1.382v8.382q-.706-.843-2.536-1.184l.956-8.58zm-.425-.843l-1.131 10.022q2.52.289 3.136 1.8v1.678h.751V4.475q0-1.883-2.756-2.225zm11.139.748q2.424 0 5.142 1.172-2.718 1.139-5.142 1.139-2.408 0-5.142-1.139 2.734-1.172 5.142-1.172zm0-.748q-2.994 0-6.883 1.904 3.89 1.887 6.883 1.887 2.994 0 6.883-1.887-3.873-1.904-6.883-1.904zm6.126 6.794c.23.327.286.73.306 1.12-.009.183.005.382-.071.554-.215-.214-.196-.709-.201-.986 0-.273-.01-.497-.034-.688zm-12.282-.308l11.209.013c-1.638 1.552-3.28 2.31-5.755 2.31-2.485 0-3.988-.74-5.454-2.323zm-.503-.45a.225.225 0 0 0-.171.371c1.628 1.9 3.356 2.853 6.128 2.853 2.699 0 4.542-.915 6.32-2.682.061.17.091.436.091.904.011.52.007 1.383.69 1.443.48-.099.48-.612.484-1.012 0-.49-.12-.936-.321-1.275-.2-.338-.498-.59-.857-.59l-12.364-.013zm1.465 5.468l-1.689 1.996h.824l.865-1.031.873 1.031.849-1.031.873 1.031.865-1.031.873 1.031.865-1.031.873 1.031.849-1.031.873 1.031.873-1.031.849 1.031.873-1.031.865 1.031h.824l-1.689-1.996-.873.965-.849-.965-.873.965-.873-.965-.849.965-.873-.965-.865.965-.873-.965-.865.965-.873-.965-.849.965-.873-.965z"/><path d="M8.22.375c-9.625 0-9.625 17.25 0 17.25m0-17.25h66.405M8.22 17.625h66.405M82.312.375v17.25M74.625.375c9.625 0 9.625 17.25 0 17.25" fill="none" stroke="#000"/></svg>