<svg xmlns="http://www.w3.org/2000/svg" width="160.725" height="18"><path d="M18.058.568q-.111.037-.111.128t.07.146q.027.022.054.022.04 0 .077-.05.063-.081.021-.163-.041-.083-.11-.083zM2.67.47q-.153 0-.296.282.084.183.264.237.028.01.054.01.131 0 .224-.229 0-.255-.194-.292Q2.695.47 2.669.47zM1.665.787q-.042.128.027.238l-.583.073q-.014-.164.556-.31zm.568.436zm.105-.003q.12 0 .195.033.027.012 0 .012-.052 0-.288-.04.05-.005.093-.005zm2.564 1.252q.035 0 .097.068 1.125 1.223 2.792 2.865Q9.46 7.048 9.667 7.724 8.305 7.468 7.34 6.318q-.966-1.15-1.681-2.236-.716-1.086-.799-1.414-.017-.196.042-.196zm.046-.868q.202 0 .384.096 4.321 4.308 4.946 5.604.584 1.405.764 2.154-.076.11-.182.11-.087 0-.193-.074l-.57-1.515q-.43-1.296-2.104-2.875-1.674-1.579-2.424-2.5-.441-.542-.676-.542-.164 0-.227.268-.108.455-.38.455-.115 0-.26-.081.126-.858.542-1.022.198-.078.38-.078zm.357 6.43q.666 1.405.541 2.83-.125 0-.236.236-.045-.403-.277-.403-.051 0-.112.02.292-1.405.084-2.683zM2.827.346q.066 0 .116.013.25.063.292.237.029.122.058.122.013 0 .025-.022.042-.073.056-.164.305.53.041 1.57t.848 1.24q1.028 3.104 2.209 4.72 1.18 1.615.986 3.038-.449-.438-.993-.438-.113 0-.23.019.042-1.296-.472-2.556t-.945-1.889q-.43-.63-1.16-1.497-.73-.867-.722-1.789.007-.921.194-1.286.188-.365.181-.584-.003-.091-.027-.091-.035 0-.112.182-.132.31-.73.328l-.07.001q-.568 0-1.235-.274l.82.073q.404.11.601.11.162 0 .183-.074.049-.164-.076-.192-.125-.027-.257-.027t-.201.055l.026.052-.29-.052Q1.762.787 1.887.623q.028-.055.097-.055-.028.183.049.274.028.034.056.034.046 0 .09-.098.07-.155-.125-.228.511-.204.773-.204zm15.412.04q.375 0 .555.365.056.055.695.2v.056l-.695.073q-.597 0-.75-.12-.153-.118-.146-.273.007-.155.188-.155.18 0 .25.082t.035.173q-.035.092-.132.147h.028q.18 0 .187-.22.007-.237-.299-.273-.389 0-.291.374.092.357.854.357l.076-.001q.431-.037.765-.128L19.53.97q1.236 1.004 1.16 2.29-.077 1.288-.966 2.136-.889.85-1.584 1.871-1.083 1.734-1.167 2.72-.083.986.376.986.458 0 1.118-.721.66-.721 1.34-.74 1.82.055 1.612 2.209-.667-.93-1.5-.93-.417 0-1.14.474-1.097.766-1.667.766l-.472-.091q-.861-.84-.583-2.482.416-1.187 1.125-4.235.486-1.734.965-2.628.48-.895 1.022-.913.291 0 .944.365.027.01.047.01.094 0 .037-.21-.526-.429-1.226-.429-.225 0-.47.045-.208 0-.506-.146-.3-.146-.3-.694.251-.237.543-.237zM4.666 3.05q1.083 1.825 1.986 3.002.903 1.178 1.702 1.588.799.411 1.48.43.083.145 1.653 4.617l-.097.055-3.738-3.14q.028-.273-1.104-1.962-1.132-1.687-1.994-4.46l.112-.128zM8.5 10.918l2.07 1.66q.07.256-.5.348-.127.02-.233.02-.37 0-.49-.248-.152-.32-.389-.831-.236-.511-.458-.95zm7.071-.785q0 .767.167 1.332.43 1.004 1.153 1.023h.038q.711 0 1.699-.657.938-.625 1.365-.625.034 0 .066.004.416.055.903.566.486.51.514.894.05.311-.043.311-.06 0-.18-.128-.399-1.05-1.024-1.05h-.01q-.633.01-1.557.648-.923.639-2.153.639t-1.368-1.04q-.14-1.04.43-1.917zM5.277 11.192l.208.547q.195-.255.299-.3l.005-.002q.088 0-.304 1.543l-.583.238q-.153-.146.09-.904.243-.757.285-1.122zm14.763 1.14q.461 0 .727.502-.18.384-.847.603-.514 0-1.042-.566.685-.539 1.162-.539zm-1.607.758q.207.265.448.438h-1.883q.692-.095 1.435-.438zm-7.182 1.15q-1.554 2.935-4.48 3.011-2.913-.076-4.467-3.011zm11.239.018q-1.554 2.935-4.48 3.012-2.913-.077-4.48-3.012zM3.066.008q-.084 0-.179.013-.222 0-1.264.42-.834.255-.903.657l.028.62.417-.2q.68.292 1.139.292.458 0 .347.41-.111.411.028 1.37.139.958 1.097 1.934.959.977 1.188 2.556.23 1.578-.41 3.641l.209-.164q.004-.004.007-.004.046 0-.216.816-.277.867-.757.894-.084.005-.16.005-.348 0-.486-.105-.155-.12-.462-.12l-.045.001q-.34.01-.34.302v.182H1.33Q2.93 17.982 6.777 18q3.849-.018 5.446-4.472l-4.279.037q0-.165-.264-.356-.129-.094-.296-.094-.175 0-.391.103-.13.061-.278.061-.337 0-.771-.317.097-.639.236-1.14.139-.503.528-.594.036-.008.073-.008.362 0 .816.811.264-.675.153-1.825l.139.128q1.042 2.3 1.257 2.701.163.305.634.305.15 0 .331-.031.75-.128.737-.475l.639.42.486-.237-1.07-3.048q.264 0 .487-.292-.264-1.096-.82-2.446-.39-.822-.792-1.278Q8.681 4.603 7.5 3.39T5.763 1.518q-.373-.28-.775-.28-.226 0-.461.088-.653.246-.792 1.214-.042-.037.07-.73.11-.694-.05-1.287-.138-.514-.689-.514zM18.286 0q-.252 0-.478.094-.292.11-.347.42-.111.383.097.757.208.374.653.466-.89 1.058-1.514 3.741-.584 2.556-.973 3.779-1.042 1.113-1.035 2.236.007 1.122.424 1.597.301.343.878.438h-3.434q1.597 4.454 5.446 4.472 3.848-.018 5.445-4.472h-2.674q.153-.11.313-.256.156.245.354.245.083 0 .174-.044.347-.219.139-1.004.194-2.245-.459-2.865-.653-.621-1.473-.621-.75 0-1.625.849-.543.526-.743.526-.124 0-.118-.198.014-.52.611-1.761.403-.876 1.75-2.254 1.348-1.378 1.334-2.775-.014-1.396-.597-2.099-.584-.703-1.292-.794-.111-.2-.292-.328-.18-.128-.48-.146Q18.329 0 18.287 0zm11.203 1.053l-.651 10.992h-.326L27.88 1.053zm-1.617 11.512q.225 0 .487.016v4.442q.02.268-.21.268-.364 0-1.015-1.32-.651-1.322-.651-2.797 0-.61 1.389-.61zm1.563 0q1.413 0 1.413.629 0 1.455-.65 2.776-.652 1.321-1.015 1.321-.23 0-.23-.268v-4.442q.258-.016.482-.016zM25.448 0v1.053h1.513l1.073 10.302q.093.671-.068.671h-.009q-.464-.206-.873-.206-.622 0-1.118.474-.518.632.057 2.374.574 1.743 1.082 2.537.507.795 1.56.795 1.226 0 1.657-.795.43-.794 1.044-2.527.612-1.733 0-2.384-.618-.458-1.235-.458-.417 0-.834.209-.095 0 0-.69l1.054-10.302h1.512V0zM41.04 2.072L39.007.022l-.734.656 2.072 2.084-2.084 2.072.69.695 2.085-2.072 2.071 2.084.695-.69-2.032-2.17L43.815.695 43.124 0 41.04 2.072zm-7.177 5.044v3.538h14.35V7.116h-14.35m13.76.59v2.358h-13.17V7.705h13.17zm-13.76 4.523V18h.965v-5.771zm6.633.008V18h.964v-5.763zm6.752 0V18h.964v-5.763zM53.722.591c.673 0 1.128.1 1.508.529.521.52.621 1.29.572 1.992-.01 1.612-.295 3.21-.766 4.75-.37 1.266-.811 2.51-1.215 3.766h-.196c-.017-.062-1.925-5.289-2.01-8-.015-.79-.128-1.684.412-2.341.335-.459 1.01-.696 1.695-.696zm.416 11.625v.684c0 .124.077.234.194.276.17.062.328.172.49.304H52.43c.161-.132.318-.242.49-.304a.294.294 0 0 0 .193-.276v-.684zm1.644 2.477c.06.121.07.367.054.538H51.46a2.059 2.059 0 0 1-.023-.538zm-.466 1.819c-.317.471-.95.9-1.618.9-.72 0-1.422-.417-1.76-.9zM53.752 0c-1.274 0-2.736.735-2.736 2.246-.073.922.018 1.85.114 2.768.29 2.285 1.151 4.436 1.86 6.614h-.017c-.095 0-.446.01-.446.294v.784c-.403.198-.682.5-.955.723h-.876a.294.294 0 0 0-.294.294v.792c0 .157.184.287.341.293.071.133.083.252.101.375l-.329-.01h-.004a.307.307 0 0 0-.299.294v.76c0 .163.131.295.294.295.204 0 .674.01.756.01h.011c.368.843 1.355 1.468 2.425 1.468 1.04 0 1.944-.67 2.284-1.478h.764c.275 0 .294-.192.294-.294v-.761c0-.128.055-.285-.59-.285a1.48 1.48 0 0 0-.016-.368c.283-.017.415-.142.415-.3v-.791a.294.294 0 0 0-.293-.294h-.876c-.273-.222-.552-.525-.955-.723v-.784c0-.16-.128-.29-.287-.293.007-.037 1.84-5.082 1.93-7.732.07-.998.169-2.12-.499-2.956C55.453.368 55.015 0 53.752 0zm7.498 1.133q.489 0 1.288.266 1.37.457 2.84 1.909Q66.845 4.76 66.551 6q-.294 1.24-1.142 1.86-.701.512-1.691.512-.209 0-.43-.023-1.273-.13-2.186-2.006-.914-1.877-.849-3.345.066-1.468.457-1.73.19-.135.54-.135zM61.117 0q-.673 0-1.091.29-.881.62-.979 2.545-.098 1.925 1.11 4.176 1.207 2.252 2.936 2.464.33.04.643.04 1.324 0 2.326-.725 1.24-.898 1.55-2.545.31-1.648-1.321-3.492Q64.659.91 62.767.306 61.807 0 61.117 0zm1.676 11.336V18h1.115v-6.664zM75.567.66v12.089h-5.278v-.583h2.67V5.001H74.6V.66zM74.033 0v4.464H72.39v7.226h-2.73v1.611h6.474V0zm-1.135 15.202c.784 0 1.767.403 2.242.879.416.416.47.967.486 1.48h-5.434c.016-.513.07-1.064.486-1.48.475-.476 1.435-.879 2.22-.879zm0-.439c-.932 0-1.934.43-2.52 1.017-.603.603-.671 1.395-.671 1.989V18h6.381v-.231c0-.594-.045-1.386-.647-1.989-.587-.587-1.612-1.017-2.543-1.017zM82.579.577q.147 0 .158.367l-.805 2.278-.895-.391L82.451.628q.073-.05.128-.05zm6.6.059q.052 0 .12.045l1.414 2.203-.887.406-.812-2.293q.017-.361.165-.361zm-8.33 2.48l.226.083-2.188 3.519q-.131.234-.245.234-.036 0-.07-.024-.143-.09.022-.323l2.255-3.488zm10.052.053l2.256 3.481q.165.256.022.338-.03.018-.063.018-.115 0-.245-.236l-2.188-3.503.218-.098zm-9.698.098l.225.09-1.736 3.714q-.103.234-.24.234-.044 0-.091-.023-.188-.09-.06-.376l1.902-3.639zm9.345.068l1.902 3.623q.135.301-.06.384-.042.018-.081.018-.142 0-.243-.236L90.33 3.417l.218-.082zm-8.94.105l.204.098-1.33 3.871q-.11.313-.251.313-.036 0-.073-.02-.196-.09-.06-.443l1.51-3.82zm8.534.068l1.518 3.804q.136.353-.06.443-.038.018-.074.018-.148 0-.257-.296L89.94 3.59l.203-.082zm-4.255 3.398q1.578.15 1.6 1.616.069 1.33-1.615 1.616-1.602-.255-1.617-1.616.098-1.519 1.632-1.616zM82.752 0q-.206 0-.467.087L78.263 6.47q-.308.571.113.744.119.05.225.05.268 0 .452-.328-.218.458.165.631.11.051.208.051.249 0 .416-.329-.218.474.248.722.128.067.238.067.288 0 .461-.45l2.233-6.398 2.188 5.067q-1.496.571-1.647 2.225.068 1.36 1.076 1.932h-.955v.64h4.375v-.64h-.962q1.045-.519 1.06-1.932.015-1.654-1.601-2.225l2.172-5.015 2.24 6.413q.166.433.45.433.115 0 .25-.072.459-.24.24-.7.173.33.42.33.096 0 .205-.051.39-.173.172-.647.18.343.45.343.103 0 .22-.05.42-.172.12-.744L89.473.155Q89.207.06 88.998.06q-.466 0-.653.462l-2.458 5.774L83.413.455Q83.225 0 82.753 0zm2.943 13.284q.938 0 1.711.467 1.573.912 2.98.912 1.417 0 2.599-.121v2.433q-1.469-.261-2.12-.261h-.018q-.53 0-1.477.122-3.85.53-4.797.53-1.572 0-2.963-.052-2.38-.14-2.615-.252-.226-.105-.226-.6 0-.487.13-.852.13-.364.435-.52 7.438-.331 8.02-.383-.518-.748-1.606-.748-.353 0-.766.079-1.386.272-2.136.272-.159 0-.289-.012-.738-.07-.686-.703.415.056.857.056.928 0 1.976-.248.517-.12.991-.12zm.221-.706q-.376 0-.743.095-1.486.392-2.616.409-.278 0-.999-.14-.339.314-.339.74 0 .425.27.72-2.842.105-2.842.34-.512.651-.512 1.564 0 .903.478 1.233 1.442.461 5.795.461.695 0 1.417-.07 4.031-.6 4.805-.616l.076-.001q.794 0 2.913.33v-3.84l-.017.017q-1.817.209-2.964.235-.058.002-.117.002-1.092 0-2.246-.61-1.221-.869-2.359-.869zM97.776 0L95.62 2.55h1.052l1.105-1.317 1.116 1.318 1.084-1.318 1.116 1.318 1.106-1.318 1.115 1.318 1.106-1.318 1.116 1.318 1.084-1.318 1.116 1.318 1.116-1.318 1.084 1.318 1.116-1.318 1.105 1.318h1.052L111.051 0l-1.116 1.233L108.85 0l-1.116 1.233L106.619 0l-1.084 1.233L104.419 0l-1.106 1.233L102.198 0l-1.106 1.233L99.976 0l-1.084 1.233L97.776 0zm-.566 15.583q-.101 0-.196.03-.37.12-.327.36.037.203.331.203.054 0 .116-.007.403-.043.708-.327-.34-.26-.633-.26zm.188-.22q.786 0 2.427.937.824.426 1.805.426.474 0 .985-.1 1.286-.26 2.703-.457.481-.066.932-.066.877 0 1.64.251 1.155.382 1.918.49.763.11 2.42.197-1.069.109-2.093.109-1.025 0-2.42-.229-.697-.114-1.343-.114-.645 0-1.24.114-1.187.229-2.702.425-.379.05-.744.05-1.098 0-2.078-.442-.953-.65-1.979-.65-.453 0-.92.127-.414-.022-.37-.458.239-.588 1.024-.61h.035zm.583-2.224q-.472 0-.88 1.44-.341-1.272-.88-1.272-.081 0-.166.029-.654.414.436 1.59-.872.502-.872 1.265 0 .763 1.286.85.397-.104.777-.104.888 0 1.675.573.673.49 2.135.49.975 0 2.3-.218 1.628-.458 3.164-.458.582 0 1.152.066 1.423.165 2.425.165.455 0 .822-.035 1.853-.043 1.853-.348-.501-.458-1.417-.61-1.94-.022-3.541-.676-.801-.327-1.965-.327-1.163 0-2.689.327-.984.248-1.832.248-1.162 0-2.07-.466-.937-.567-1.983-.937.872-.676.818-1.123-.055-.447-.534-.468h-.014zM118.513.46q-.11 1.162-.11 2.603 0 1.442.14 2.914-.32-.17-1.001-.17-.69 0-1.001.17.15-1.472.14-2.914-.01-1.441-.11-2.602zm-.971 5.967q.68.01 1.381.36l-.18.33q-.141-.024-.265-.024-.426 0-.636.295-.12-.53-.3-.65-.18.12-.31.65-.21-.295-.636-.295-.124 0-.265.025l-.18-.33q.72-.35 1.39-.36zm0 .961q.15.12.1.35-.05.23-.1.441-.06-.21-.11-.44t.11-.35zm.912.002q.056 0 .119.008-.68 1.622-1.031 1.622-.34 0-1.051-1.622.064-.008.122-.008.365 0 .468.329.13.37.27.6.15.24.19.24.05 0 .181-.24.14-.23.26-.6.113-.329.472-.329zM115.98 0q.48 3.404-.01 6.137-.89.42-.74.71.11.22.251.22.052 0 .109-.03.87.982 1.431 2.313.22 2.193-.06 7.579 0 1.071.56 1.071h.031q.56 0 .56-1.071-.27-5.386-.06-7.579.551-1.331 1.422-2.312.056.03.109.03.142 0 .251-.22.15-.29-.73-.711-.5-2.733 0-6.137zm20.036.553q.096 0 .178.07.348.33-.44 1.336-.806.916-.98 1.52-.173.604-.393 1.566-.22.961-1.099 3.122h-4.193q.567-1.19 1.74-2.481 1.171-1.291 1.995-1.84.824-.55 1.3-.962.477-.412 1.062-1.492.498-.839.83-.839zm1.935.125l.11.054-5.218 12.196-4.743-.019-.64-3.955h6.591l3.9-8.276zm-.292 13.019q-2.486 3.363-7.142 3.46-4.638-.097-7.123-3.46zM137.713 0l-2.765 5.402q.33-1.813.687-2.371.357-.559.668-.815.66-.843.605-1.264-.055-.421-.476-.696-.295-.2-.595-.2-.11 0-.22.026-.412.101-.943 1.053-.128.403-.54.916-.412.513-1.694 1.29-1.282.779-2.875 2.665-1.52-1.099-2.207-1.94-.686-.843-.75-1.447-.064-.605.164-.944.23-.338.623-.43.12-.028.234-.028.265 0 .508.147.348.21.33.687-.11.494-.642.586-.162-.062-.268-.062-.147 0-.19.117-.11.348.376.375.05.003.1.003.426 0 .779-.213.394-.238.357-1.246-.311-.787-1.062-.888-.192-.025-.372-.025-.522 0-.937.218-.559.293-.65 1.3-.092 1.007.677 2.014.77 1.007 2.417 2.27-.311.44-.97 1.667h-1.465l.714 4.742h-5.475q2.545 5.073 8.68 5.091 6.115-.018 8.66-5.09l-5.53.018L138.83.568 137.713 0zm8.254 0q-1.949.045-3.225 1.41-1.411 1.546-1.545 3.091 0 .359.403.359h18.722q.403 0 .403-.426 0-.425-.403-.425h-18.118q1.12-2.867 3.36-3.18h14.758q.403 0 .403-.426 0-.403-.403-.403zm4.993 11.41q1.266.748 1.266 2.247h-2.52q0-1.499 1.255-2.248zm1.266 2.945q-.283 1.003-1.265 1.003t-1.236-1.003zm7.27 1.752V17.3h-17.06v-1.194zm-8.535-5.396q-1.934.729-1.934 3.128 0 .911.395 1.519h-7.664V18h18.406v-2.642h-7.634q.395-.608.395-1.519 0-2.4-1.964-3.128z"/></svg>