<svg xmlns="http://www.w3.org/2000/svg" width="48.976" height="18"><path d="M11.386 8.203c-.51.04-.793.296-.847.767.067.51.35.78.847.806.498-.026.76-.295.787-.806-.04-.47-.303-.726-.787-.767zm.06-1.694c.364 0 .7.068 1.01.202a2.659 2.659 0 0 1 1.371 1.361c.134.303.201.622.201.958 0 .35-.067.676-.202.978a2.567 2.567 0 0 1-2.38 1.523c-.362 0-.702-.064-1.018-.192a2.426 2.426 0 0 1-.816-.534 2.621 2.621 0 0 1-.545-.797 2.38 2.38 0 0 1-.202-.978c0-.336.068-.655.202-.958.134-.302.316-.571.545-.806.228-.236.5-.42.816-.555a2.574 2.574 0 0 1 1.019-.202zm-.04-.685c-.443 0-.86.084-1.25.252-.39.168-.726.396-1.008.685a3.36 3.36 0 0 0-.676 1.009 3.053 3.053 0 0 0-.252 1.24c0 .444.084.857.252 1.24.168.384.393.716.676.999a3.2 3.2 0 0 0 2.258.927c.444 0 .857-.084 1.24-.252a3.36 3.36 0 0 0 1.009-.675c.289-.283.518-.615.686-.999.168-.383.252-.796.252-1.24 0-.444-.084-.857-.252-1.24a3.268 3.268 0 0 0-1.694-1.694 3.053 3.053 0 0 0-1.24-.252zm8.74-3.574c-.09 0-.095.283-.224.701-.146.476-.254 1.472-.591 1.665a.298.298 0 0 1-.153.039c-.1 0-.202-.038-.313-.038a.409.409 0 0 0-.127.02c-.158.05-.242.297-.408.326-.692.12-1.637.075-2.166.123-.34.03.567.698 1.473.698h.039c.188-.005.387-.013.584-.013.33 0 .658.024.928.135.264.109.575.425.572.735l-.11 9.109h1.019l-.052-10.289c-.002-.276.795-.464.9-.702.181-.415.088-2.247-.205-2.493a.016.016 0 0 0-.01-.004c-.132 0-.378 1.92-.766 2.333-.04.043-.118.062-.185.062-.073 0-.133-.022-.121-.062.246-.838.345-2.061-.041-2.329a.077.077 0 0 0-.043-.016zm5.046.585c.53 0 .794.21.794.629 0 .42-.26.81-.78 1.169-.12.04-.134.45-.044 1.228l.704 5.005c-.72.21-1.458.589-2.218 1.138V4.348c.26-1.009.775-1.513 1.544-1.513zm-.068-.585c-.583 0-1.028.162-1.333.487-.315.335-.537.847-.667 1.536L23.11 15.75h.794c-.06-1.718.057-2.438.421-2.947.365-.51 1.286-1.064 2.335-1.234-.659-4.125-1.103-6.437-.973-6.577.55-.37.824-.864.824-1.483 0-.84-.434-1.259-1.302-1.259a2.744 2.744 0 0 0-.084 0zm3.829 8.727v1.225h2.704v-1.225h-.53c-.154.272-.331.449-.53.53a.76.76 0 0 1-.59 0c-.195-.081-.37-.258-.524-.53zm1.64-4.458v2.03h-.613v2.483h.662V9.476h.768V7.347h.948c.17 1.324.63 2.308 1.38 2.952.75.643 1.677 1.016 2.78 1.12 1.104.102 1.828.248 2.174.435.346.188.518.377.518.569h1.347c-.206-.493-.482-.868-.828-1.126-.346-.257-.988-.42-1.925-.485-.938-.067-1.689-.19-2.251-.37a3.588 3.588 0 0 1-1.506-.96c-.442-.46-.78-1.447-1.016-2.963zm-.893 7.115l-1.54 1.823h.751l.79-.942.797.942.774-.942.798.942.79-.942.797.942.79-.942.797.942.774-.942.797.942.798-.942.774.942.798-.942.79.942h.75l-1.54-1.823-.798.881-.774-.88-.798.88-.797-.88-.774.88-.798-.88-.79.88-.797-.88-.79.88-.797-.88-.774.88-.797-.88zm8.14-9.187c-.41.032-.635.237-.678.613.053.409.28.624.677.646.398-.022.608-.237.63-.646-.033-.376-.242-.58-.63-.613zm.048-1.355c.29 0 .559.054.806.161a2.127 2.127 0 0 1 1.097 1.089c.108.242.162.498.162.767 0 .28-.054.54-.162.782a2.029 2.029 0 0 1-1.097 1.065 2.092 2.092 0 0 1-.806.153c-.29 0-.562-.05-.815-.153a1.94 1.94 0 0 1-.653-.428 2.097 2.097 0 0 1-.436-.637 1.905 1.905 0 0 1-.161-.782c0-.27.053-.525.161-.767.108-.242.253-.457.436-.645.182-.188.4-.336.653-.444.253-.107.524-.161.815-.161zm-.033-.549a2.5 2.5 0 0 0-1 .202c-.312.135-.58.317-.807.549-.225.23-.406.5-.54.806a2.443 2.443 0 0 0-.202.993c0 .354.068.685.202.992.134.306.315.572.54.798a2.56 2.56 0 0 0 1.807.742c.355 0 .686-.067.993-.201.306-.135.575-.315.806-.54.232-.227.414-.493.549-.8.134-.306.202-.637.202-.991 0-.355-.068-.686-.202-.993a2.615 2.615 0 0 0-1.355-1.355 2.443 2.443 0 0 0-.993-.202z"/><path d="M8.22.375c-9.625 0-9.625 17.25 0 17.25m0-17.25h32.506M8.22 17.625h32.506M48.413.375v17.25M40.726.375c9.625 0 9.625 17.25 0 17.25" fill="none" stroke="#000"/></svg>