<svg xmlns="http://www.w3.org/2000/svg" width="113.972" height="18"><path d="M3.38 0v6.024h4.717v-.709H4.088V.71h11.827v4.606h-3.588v.709h4.296V0zm15.327 16.498zm-.004.203zm-15.751-.774v1.195c-.178-.081-.352-.158-.517-.239a1.661 1.661 0 0 0-.476-.133c-.135-.02-.276-.035-.403-.06a.469.469 0 0 1-.201-.073c-.016-.013-.028-.03-.028-.092 0-.063.012-.08.028-.093a.469.469 0 0 1 .2-.072c.128-.026.269-.04.404-.061a1.71 1.71 0 0 0 .476-.133c.165-.081.34-.158.517-.239zm0 1.195zm.607.086zm11.015-1.37c.117 0 .235.001.353.004.66.016 1.65.174 2.468.379.405.1.767.212 1.025.323.04.017.076.034.11.05-.03.013-.063.025-.097.038-.258.097-.62.19-1.025.272-.823.167-1.816.287-2.481.303-.118.003-.236.004-.353.004-1.196 0-2.387-.136-3.578-.275-1.272-.148-2.543-.298-3.82-.298l-.194.001c-1.117.014-2.4.138-3.423.569V15.84c1.023.43 2.306.555 3.423.569l.194.001c1.277 0 2.548-.15 3.82-.298 1.191-.139 2.382-.275 3.578-.275zM3.325 15.05l-.146.084c-.34.195-.696.332-1.012.488-.084.041-.19.06-.3.078-.146.022-.296.038-.433.066a1.053 1.053 0 0 0-.468.2.697.697 0 0 0-.246.56c0 .242.092.43.246.558.124.103.287.164.468.201.137.028.287.044.432.066.11.017.217.037.3.078.317.156.673.293 1.013.488l.146.084.149-.08c.984-.528 2.355-.66 3.515-.674h.188c1.254 0 2.502.149 3.749.294 1.216.14 2.43.278 3.65.278.122 0 .243-.001.365-.004.701-.016 1.73-.14 2.588-.315.436-.088.83-.19 1.117-.298.16-.06.292-.124.388-.19a.68.68 0 0 0 .157-.146.433.433 0 0 0 .092-.262.44.44 0 0 0-.089-.26.714.714 0 0 0-.15-.148 1.913 1.913 0 0 0-.385-.21 7.75 7.75 0 0 0-1.116-.354c-.863-.215-1.896-.38-2.602-.396a15.5 15.5 0 0 0-.365-.004c-1.22 0-2.434.137-3.65.278-1.247.146-2.495.295-3.749.295l-.188-.001c-1.16-.015-2.531-.146-3.515-.674l-.149-.08zM26.69.597c.269.002.505.041.692.109-.031.223-.169.569-.953.773.73-.053 1.206-.113 1.453-.307.088.2.137.427.158.556a.297.297 0 0 0 .206.237c.625.191 1.174 1.112 1.7 1.763.95 1.173 1.772 2.48 2.688 3.733-.423-.207-.845-.415-1.27-.622-1.182-.622-2.394-1.11-3.407-1.877-.588-.49-1.172-.996-1.39-1.641-.076-.497.296-1.074.767-1.279a.297.297 0 1 0-.238-.545 1.957 1.957 0 0 0-.904.817c.01-.152.032-.308.075-.448a.297.297 0 0 0 .013-.104 1.372 1.372 0 0 0-.082-.422c-.041-.109-.085-.206-.158-.459a.297.297 0 0 0-.104-.153c.14-.062.315-.112.527-.125.042-.003.083-.003.125-.004a.258.258 0 1 0 .102-.002zm1.194 5.432c.605.466 1.253.873 1.888 1.28-.005.438.006.879.047 1.321a2.215 2.215 0 0 0-.697-.3c-.392-.636-.82-1.22-1.083-1.842a4.553 4.553 0 0 1-.155-.46zm-.249 1c.273.549.621 1.04.928 1.529-.059.04-.112.08-.154.121l-.027.027a1.713 1.713 0 0 0-.614-.454c.01-.348-.047-.768-.133-1.222zm2.88.047a25.922 25.922 0 0 1 .588.297c.78.38 1.56.772 2.35 1.148.556.67 1.156 1.293 1.734 1.92l-1.043.175L31.58 7.83a.297.297 0 0 0-.04-.036 19.147 19.147 0 0 0-1.025-.718zm-2.591 2.009c.058.066.112.14.161.222a.298.298 0 0 0 .43.087c.124-.09.2-.177.265-.244l.077 1.413c-.1-.006-.201-.013-.296-.013-.166 0-.313.022-.398.108-.1-.078-.28-.1-.504-.1-.057 0-.118.002-.18.005l.445-1.478zm-5.419.999c.452.062.686.323.704.783h-1.395c0-.46.23-.721.691-.783zm7.861-2.39c.274.182.541.367.798.56l2.402 2.613H31.11c-.17-.19-.518-.365-.776-.365a.366.366 0 0 0-.192.046 2.987 2.987 0 0 0-.256-.01c-.14 0-.285.007-.433.016l-.083-1.506c.225.115.407.282.625.542a.297.297 0 0 0 .52-.246 9.753 9.753 0 0 1-.149-1.65zm-6.24 3.745l-.266.465h-1.25l-.252-.465zm4.515 0v2.51l-1.726-2.51zM26.698 0a3.878 3.878 0 0 0-.273.01c-.694.044-1.215.325-1.408.768a.298.298 0 0 0 .341.408l.025-.006.03.007.108.029c.054.168.096.269.12.332a.541.541 0 0 1 .042.2 3.112 3.112 0 0 0-.037 1.389c.095.466.384.977.761 1.46a.295.295 0 0 0 .014.108c.183.559.396 1.318.548 2.027.152.708.234 1.387.192 1.684a.3.3 0 0 0 .223.33l.019.005-.527 1.75a1.787 1.787 0 0 0-.259-.018c-.256 0-.51.041-.712.041a.865.865 0 0 1-.184-.016.314.314 0 0 0-.068-.007c-.212 0-.656.13-.787.366h-1.1c-.061-.797-.482-1.235-1.26-1.315-.789.08-1.196.518-1.223 1.315v.572h.531l.545 1.01h1.767l.53-1.01h1.568l2.404 3.493V18h.571v-6.561h4.517v-.41l.099.109a.297.297 0 0 0 .268.092l1.74-.292a.298.298 0 0 0 .173-.492 49.17 49.17 0 0 0-.656-.716l1.656 1.078a.296.296 0 0 0 .412-.087.297.297 0 0 0-.087-.411l-1.345-.876a.292.292 0 0 0 .076-.09.315.315 0 0 0 .02-.237c-.016-.05-.034-.074-.048-.093-.055-.076-.084-.088-.123-.119a2.938 2.938 0 0 0-.131-.094c-.096-.065-.206-.137-.301-.2a4.156 4.156 0 0 1-.216-.156l-2.379-1.672-.008-.005c-.805-1.13-1.568-2.316-2.457-3.414-.433-.535-.937-1.524-1.812-1.894-.048-.262-.157-.68-.483-.997C27.76.119 27.25 0 26.698 0zm15.628 2.058q.347.204.408.816-.265.224-.408.672-.163-.448-.428-.672.061-.612.428-.816zm5.994 0q.367.204.428.816-.265.224-.428.672-.143-.448-.408-.672.061-.612.408-.816zm6.014 0q.347.224.408.836-.265.204-.408.652-.163-.448-.428-.652.061-.612.428-.836zM43.61 3.138q-.387.51-.468 1.091-.082.581-.816.724-.754-.143-.836-.724-.081-.58-.469-1.09.755 0 .938.57.163.55.367.55.184 0 .367-.55.184-.57.917-.57zm6.015 0q-.388.51-.47 1.091-.08.581-.835.724-.734-.143-.816-.724-.081-.58-.468-1.09.734 0 .917.57.184.55.367.55.204 0 .367-.55.183-.57.938-.57zm5.994 0q-.388.53-.47 1.101-.08.571-.815.734-.754-.163-.836-.734-.081-.57-.468-1.1.754 0 .937.59.163.53.367.53.184 0 .367-.53.184-.59.918-.59zM45.22 7.074l.357 1.173q.214.703-.357 1.03-.57-.327-.357-1.03l.357-1.173zm6.035 0q.122.47.346 1.173.225.703-.346 1.03-.571-.327-.357-1.03l.357-1.173zm3.71 7.177q1.366 0 1.366.591t-1.345.612H41.694q-1.325 0-1.325-.612 0-.591 1.325-.591zM42.326 1.59q-.591 0-.815 1.202-.19-.054-.358-.054-.336 0-.58.217-.245.184.02.387.428.225.53.969.102.744.836.968v8.013h-.245q-2.263 0-2.263 1.549 0 1.57 2.243 1.57h13.293q2.242 0 2.263-1.57 0-1.55-2.284-1.55h-.265V5.3q.734-.245.836-.979.102-.734.51-.979.285-.203.02-.367-.24-.226-.59-.226-.153 0-.327.043-.245-1.183-.816-1.183-.59 0-.836 1.183-.173-.043-.326-.043-.35 0-.591.226-.245.164.02.367.429.245.52.979.092.734.846.979h.02v7.992h-2.364v-3.67q.693-.673.469-1.376-.225-.704-.337-1.162-.112-.46-.5-.46-.387 0-.509.46-.122.458-.336 1.162-.214.703.5 1.376v3.67l-2.223-.02V5.278q.734-.224.836-.968.102-.744.53-.969.265-.203.02-.387-.244-.217-.58-.217-.167 0-.357.054-.225-1.203-.816-1.203-.57 0-.816 1.203-.19-.054-.357-.054-.336 0-.58.217-.245.184.04.387.408.225.51.969.102.744.836.968v7.992l-2.365.02V9.62q.693-.672.48-1.375-.215-.704-.337-1.162-.123-.46-.51-.46-.367 0-.5.46-.132.458-.346 1.162-.214.703.5 1.376v3.67h-2.202V5.279q.754-.224.856-.968.102-.744.51-.969.285-.203.04-.387-.244-.217-.58-.217-.167 0-.357.054-.245-1.203-.816-1.203zm19.798.468q.347.204.408.816-.265.224-.408.672-.163-.448-.428-.672.061-.612.428-.816zm5.994 0q.367.204.429.816-.266.224-.429.672-.142-.448-.407-.672.06-.612.407-.816zm6.015 0q.346.224.407.836-.265.204-.407.652-.163-.448-.428-.652.06-.612.428-.836zm-10.724 1.08q-.388.51-.47 1.091-.08.581-.815.724-.754-.143-.835-.724-.082-.58-.47-1.09.755 0 .938.57.164.55.367.55.184 0 .367-.55.184-.57.918-.57zm6.014 0q-.387.51-.469 1.091-.081.581-.836.724-.734-.143-.815-.724-.082-.58-.469-1.09.734 0 .917.57.184.55.367.55.204 0 .367-.55.184-.57.938-.57zm5.994 0q-.387.53-.469 1.101-.081.571-.815.734-.755-.163-.836-.734-.082-.57-.47-1.1.755 0 .939.59.163.53.367.53.183 0 .367-.53.183-.59.917-.59zM65.02 7.074l.357 1.173q.214.703-.357 1.03-.57-.327-.356-1.03l.356-1.173zm6.035 0q.123.47.347 1.173.224.703-.347 1.03-.57-.327-.357-1.03l.357-1.173zm3.71 7.177q1.367 0 1.367.591t-1.346.612H61.492q-1.325 0-1.325-.612 0-.591 1.325-.591zM62.125 1.59q-.59 0-.815 1.202-.19-.054-.358-.054-.335 0-.58.217-.245.184.02.387.429.225.53.969.102.744.836.968v8.013h-.244q-2.263 0-2.263 1.549 0 1.57 2.242 1.57h13.293q2.243 0 2.263-1.57 0-1.55-2.283-1.55H74.5V5.3q.734-.245.836-.979.102-.734.51-.979.285-.203.02-.367-.241-.226-.591-.226-.153 0-.327.043-.244-1.183-.815-1.183-.592 0-.836 1.183-.174-.043-.327-.043-.35 0-.59.226-.245.164.02.367.428.245.52.979.091.734.846.979h.02v7.992h-2.365v-3.67q.693-.673.47-1.376-.225-.704-.337-1.162-.112-.46-.5-.46-.387 0-.51.46-.122.458-.336 1.162-.214.703.5 1.376v3.67l-2.223-.02V5.278q.734-.224.836-.968.102-.744.53-.969.265-.203.02-.387-.244-.217-.58-.217-.167 0-.357.054-.224-1.203-.816-1.203-.57 0-.815 1.203-.19-.054-.358-.054-.335 0-.58.217-.245.184.04.387.409.225.51.969.102.744.836.968v7.992l-2.365.02V9.62q.694-.672.48-1.375-.215-.704-.337-1.162-.122-.46-.51-.46-.367 0-.499.46-.133.458-.347 1.162-.214.703.5 1.376v3.67H62.47V5.279q.754-.224.856-.968.102-.744.51-.969.285-.203.04-.387-.244-.217-.58-.217-.167 0-.357.054-.245-1.203-.816-1.203zM81.103 0l-2.055 2.43h1.002l1.053-1.256 1.063 1.256L83.2 1.174l1.063 1.256 1.053-1.256 1.063 1.256 1.053-1.256 1.063 1.256 1.033-1.256L90.59 2.43l1.063-1.256 1.032 1.256 1.063-1.256 1.053 1.256h1.003L93.748 0l-1.063 1.174L91.653 0 90.59 1.174 89.527 0l-1.033 1.174L87.431 0l-1.053 1.174L85.315 0l-1.053 1.174L83.2 0l-1.033 1.174L81.103 0zm8.807 10.198q.227 0 .471.104.547.231.547 3.677v3.298h-6.189q2.39-3.279 3.28-4.956.89-1.677 1.352-1.964.257-.159.539-.159zm-.263-.703h-.1q-.88.02-1.982 2.15-1.103 2.13-4.363 6.355h8.448l-.018-4.743q-.093-3.168-.649-3.474-.524-.288-1.336-.288zM103.21.597c.27.002.506.041.693.109-.031.223-.169.569-.953.773.73-.053 1.206-.113 1.452-.307.09.2.137.427.159.556a.297.297 0 0 0 .206.237c.624.191 1.173 1.112 1.7 1.763.95 1.173 1.771 2.48 2.688 3.733l-1.27-.622c-1.182-.622-2.395-1.11-3.407-1.877-.589-.49-1.172-.996-1.39-1.641-.076-.497.296-1.074.767-1.279a.297.297 0 1 0-.238-.545c-.377.164-.7.458-.904.817.01-.152.032-.308.075-.448a.297.297 0 0 0 .012-.104 1.372 1.372 0 0 0-.082-.422c-.04-.109-.085-.206-.157-.459a.297.297 0 0 0-.105-.153c.14-.062.316-.112.527-.125.043-.003.084-.003.125-.004a.258.258 0 1 0 .103-.002zm1.194 5.432c.606.466 1.253.873 1.888 1.28a13 13 0 0 0 .047 1.321 2.215 2.215 0 0 0-.697-.3c-.39-.636-.82-1.22-1.082-1.842a4.553 4.553 0 0 1-.156-.46zm-.248 1c.273.549.62 1.04.928 1.529-.059.04-.112.08-.155.121l-.027.027a1.713 1.713 0 0 0-.613-.454c.01-.348-.047-.768-.133-1.222zm2.88.047a25.922 25.922 0 0 1 .588.297c.78.38 1.56.772 2.349 1.148.556.67 1.157 1.293 1.735 1.92l-1.044.175-2.562-2.786a.297.297 0 0 0-.04-.036 19.147 19.147 0 0 0-1.026-.718zm-2.592 2.009c.058.066.112.14.162.222a.298.298 0 0 0 .43.087c.124-.09.2-.177.265-.244l.077 1.413c-.1-.006-.201-.013-.296-.013-.167 0-.314.022-.398.108-.1-.078-.28-.1-.504-.1-.058 0-.118.002-.18.005l.444-1.478zm-5.418.999c.451.062.686.323.704.783h-1.395c0-.46.23-.721.69-.783zm7.86-2.39c.274.182.542.367.798.56l2.403 2.613h-2.456c-.171-.19-.519-.365-.776-.365a.366.366 0 0 0-.192.046 2.987 2.987 0 0 0-.256-.01c-.14 0-.286.007-.434.016l-.082-1.506c.224.115.407.282.625.542a.297.297 0 0 0 .52-.246 9.753 9.753 0 0 1-.15-1.65zm-6.24 3.745l-.266.465h-1.248l-.252-.465zm4.516 0v2.51l-1.727-2.51zM103.218 0a3.878 3.878 0 0 0-.272.01c-.695.044-1.215.325-1.408.768a.298.298 0 0 0 .34.408l.025-.006.03.007.108.029c.055.168.096.269.12.332a.541.541 0 0 1 .042.2 3.112 3.112 0 0 0-.036 1.389c.095.466.384.977.761 1.46a.295.295 0 0 0 .014.108c.183.559.396 1.318.548 2.027.152.708.233 1.387.192 1.684a.298.298 0 0 0 .223.33l.019.005-.527 1.75a1.787 1.787 0 0 0-.26-.018c-.256 0-.509.041-.712.041a.865.865 0 0 1-.183-.016.314.314 0 0 0-.068-.007c-.212 0-.657.13-.787.366h-1.1c-.062-.797-.482-1.235-1.261-1.315-.788.08-1.196.518-1.222 1.315v.572h.53l.546 1.01h1.766l.531-1.01h1.568l2.404 3.493V18h.571v-6.561h4.516v-.41l.1.109a.297.297 0 0 0 .268.092l1.74-.292a.298.298 0 0 0 .172-.492 49.17 49.17 0 0 0-.656-.716l1.657 1.078a.296.296 0 0 0 .411-.087.297.297 0 0 0-.087-.411l-1.344-.876a.292.292 0 0 0 .076-.09.315.315 0 0 0 .02-.237.305.305 0 0 0-.048-.093c-.055-.076-.084-.088-.124-.119a2.938 2.938 0 0 0-.13-.094c-.096-.065-.207-.137-.301-.2a4.156 4.156 0 0 1-.217-.156l-2.378-1.672-.008-.005c-.806-1.13-1.568-2.316-2.457-3.414-.433-.535-.938-1.524-1.812-1.894-.048-.262-.157-.68-.484-.997-.353-.344-.863-.463-1.416-.463z"/></svg>