<svg xmlns="http://www.w3.org/2000/svg" width="122.844" height="18"><path d="M2.646 0L.72 1.926v.708L3.177.177 3.354 0zm3 0L.72 4.926v.708L6.177.177 6.354 0zm3 0L.72 7.926v.708L9.177.177 9.354 0zm3 0L.72 10.926v.708l11-11V0zm.074 2.926l-11 11v.708l11-11v-.708zm0 3l-11 11v.708l11-11v-.708zm0 3l-8.897 8.897-.177.177h.708l8.366-8.366v-.708zm0 3l-5.897 5.897-.177.177h.708l5.366-5.366v-.708zm0 3l-2.897 2.897-.177.177h.708l2.366-2.366v-.708zM11.72 0v.634l.457-.457.177-.177zm2 .926l-2 2v.708l2-2V.926zm0 3l-2 2v.708l2-2v-.708zm0 3l-2 2v.708l2-2v-.708zm0 3l-2 2v.708l2-2v-.708zm0 3l-2 2v.708l2-2v-.708zm0 3l-1.897 1.897-.103.103V18h.634l1.366-1.366v-.708zM14.646 0l-.926.926v.708L15.177.177 15.354 0zm3 0L13.72 3.926v.708L18.177.177 18.354 0zm3 0L13.72 6.926v.708L21.177.177 21.354 0zm3 0L13.72 9.926v.708L24.177.177 24.354 0zm3 0L13.72 12.926v.708L27.177.177 27.354 0zm3 0L13.72 15.926v.708L30.177.177 30.354 0zm3 0L14.823 17.823l-.177.177h.708L33.177.177 33.354 0zm3 0L17.823 17.823l-.177.177h.708L35.72.634V0zm.074 2.926L20.823 17.823l-.177.177h.708L35.72 3.634v-.708zm0 3L23.823 17.823l-.177.177h.708L35.72 6.634v-.708zm0 3l-8.897 8.897-.177.177h.708l8.366-8.366v-.708zm0 3l-5.897 5.897-.177.177h.708l5.366-5.366v-.708zm0 3l-2.897 2.897-.177.177h.708l2.366-2.366v-.708zM35.72 0v.634l.457-.457.177-.177zm2 .926l-2 2v.708l2-2V.926zm0 3l-2 2v.708l2-2v-.708zm0 3l-2 2v.708l2-2v-.708zm0 3l-2 2v.708l2-2v-.708zm0 3l-2 2v.708l2-2v-.708zm0 3l-1.897 1.897-.103.103V18h.634l1.366-1.366v-.708z"/><path d="M41.406 3.071c-.27.13-.6.49-.1.55.24-.01.79-.26.69-.49a.221.221 0 0 1-.157.067c-.142 0-.287-.127-.433-.127zm-1.97.09c-.33.08-.5.44-.08.52l.021.002c.242 0 .901-.294.358-.361-.09-.06-.18-.16-.3-.16zm2.63-2.51c.59.69 1.111 1.49 1.211 2.41.1.66.13 1.321.23 1.971-.47-.04-.33-.77-.24-1.12.08-.69-.29-1.33-.55-1.941-.18-.33-.35-.85-.81-.86-.51.09-.84.52-1.171.89-.34-.34-.7-.71-1.17-.85a.236.236 0 0 0-.082-.013c-.105 0-.229.046-.285.046-.05 0-.049-.034.056-.164.064-.224.196-.29.359-.29.238 0 .543.141.8.141a.561.561 0 0 0 .112-.01c.084.004.169.007.254.007.437 0 .876-.067 1.287-.218zm-.16.76c.39.1.48.64.67.96.24.56.531 1.17.341 1.801-.15.3.04.68.02.9-.334.235-.627.73-1.07.73a.631.631 0 0 1-.15-.02c-.44-.09-.66-.51-1.001-.71-.246.238-.392.73-.798.73a.618.618 0 0 1-.183-.03c-.37-.08-.86-.04-.97-.49-.19-.46-.21-.97-.24-1.47a.324.324 0 0 0 .061.006c.202 0 .22-.235.24-.436.077-.293.287-.429.52-.429.157 0 .325.062.47.178.17.19.69.34.58.64-.05.18-.11.371-.17.561l.42.56c.04-.29.47-.53.22-.82-.04-.13-.19-.3-.17-.4.18-.32.42-.6.7-.84a.322.322 0 0 1 .23-.103c.268 0 .537.351.77.382.23-.25-.02-.35-.25-.48a.701.701 0 0 0-.486-.196c-.25 0-.5.13-.654.356-.19.114-.322.494-.49.494-.052 0-.108-.037-.17-.134-.306-.244-.672-.518-1.072-.518a.855.855 0 0 0-.179.018c-.283.059-.537.632-.559.632l-.001-.001c-.01-.47.21-.89.34-1.351a.612.612 0 0 1 .596-.477c.173 0 .348.075.475.237.297.11.516.634.796.634.05 0 .1-.017.154-.054.31-.33.56-.72 1.01-.86zm-1.42 6.943c1.27 1.31 2.441 4.632 2.741 5.993-.49-.4-1.16-.66-1.31-.91-.16-.26-.6-2.792-1.431-5.083zm4.522-2.381c2.401 1.38 6.583 8.174 7.474 9.264-1.501-.95-2.982-1.91-4.593-2.691-2.26-1.11-4.192-2.911-6.033-4.592 1.521-.51 2.612-1.37 3.152-1.981zm-2.491 8.624c.32.19.61.45.96.59-.21.52-.34 1.1-.77 1.51-.08.13-.196.172-.328.172-.227 0-.504-.123-.735-.123-.016 0-.032 0-.048.002.28-.7.7-1.01.92-2.151zm.68-9.365c.06.126.138.167.22.167.108 0 .224-.071.32-.116.24.17 1.07.15.58.51-.31.42-1.967 1.566-3.118 1.768-.497.087.337.873.607 1.153 1.561 1.4 3.092 2.882 4.963 3.892 1.17.66 2.401 1.25 3.532 1.98.54.781 1.18 1.502 1.59 2.362-.41.12-.81.29-1.23.39a2.89 2.89 0 0 1-.703.082c-.66 0-1.325-.197-1.618-.512-.54-.57-1.131-3.001-1.441-3.892-.044-.1-.107-.133-.175-.133-.135 0-.291.132-.369.132-.016 0-.028-.006-.036-.019a.391.391 0 0 0-.387-.376c-.175 0-.339.127-.314.396-.06.63-.18 1.26-.48 1.831-.037.097-.114.134-.215.134-.284 0-.76-.293-1.086-.374.13-.77-.92-4.712-4.001-8.014-.108-.116-.578-.611-.537-.611.005 0 .017.006.036.02.158.042.336.07.512.07.337 0 .668-.104.839-.42.026-.077.059-.108.097-.108.137 0 .344.399.563.399a.92.92 0 0 0 .514.155c.29 0 .578-.131.777-.355.19-.17.37-.34.56-.51zM42.157 0c-.315.14-.865.28-1.36.28-.072 0-.142-.004-.211-.01a.804.804 0 0 1-.143.012c-.337 0-.699-.18-1.025-.18a.622.622 0 0 0-.353.098c-.55.8-1.05 1.69-1.11 2.681-.11 1.901-.06 2.562 1.44 4.122.59 1.341 1.691 5.713 2.021 6.904.36.34-.45 2.2-.79 2.66-.185.256-.673.268-1.197.268h-.172c-.471 0-.948.01-1.242.193-.28.18-.38.85-.22.94.15-.23.45-.54.66-.57-.2.21.5.11.65.16.405.007.814.041 1.225.041.198 0 .397-.008.596-.03.09-.04.187-.102.229-.102.032 0 .032.038-.029.151.283.074.602.111.913.111.7 0 1.363-.187 1.508-.56.3-.551.58-1.131.78-1.732.256.054.577.234.835.234a.38.38 0 0 0 .206-.054c.28-.19.57-1.08.73-1.67.016-.062.1-.092.183-.092.081 0 .163.028.188.082.3.6.8 2.44 1.28 3.211.363.571 1.241.852 2.175.852a4.48 4.48 0 0 0 1.717-.332c.65-.28 1.13-.22.99-.58-.22-.6-.6-1.17-1-1.68.58.36 1.16.73 1.741 1.09.048.174.168.243.291.243.237 0 .483-.256.24-.513-2.272-3.282-5.884-8.875-8.385-10.685-.4-.35-.87-.62-1.39-.75-.17-.44-.12-1.031-.22-1.531-.1-.99-.7-2.632-1.751-3.262zm15.491 0c-.335 0-.67.026-.995.066-.447.113-.217.626.18.626a.476.476 0 0 0 .082-.008c.84.097 1.872.15 2.506.626.84.916.463 2.821.561 3.725.007.05.01 3.653.01 5.48a6.145 6.145 0 0 0-2.635-.586 6.04 6.04 0 0 0-1.188.117c-.44.231.077.528.423.528.041 0 .08-.004.115-.013 1.226.133 2.62.461 3.243 1.602.061.206.023.277-.071.277-.206 0-.68-.342-.946-.342-.014 0-.028 0-.04.003a7.535 7.535 0 0 0-1.581-.169c-.39 0-.776.031-1.148.095-.42.278.095.534.438.534a.532.532 0 0 0 .105-.01c1.251.151 2.636.49 3.243 1.633.007 1.27 0 2.11.033 3.278-.014.36.22.538.456.538.235 0 .473-.176.475-.526-.009-1.15-.091-2.161.06-3.277.304-1.253 2.477-1.445 3.827-1.754.294-.347-.285-.475-.659-.475-.056 0-.107.003-.15.008a6.823 6.823 0 0 0-.521-.02c-.882 0-1.771.175-2.557.58-.032-.755.711-1.19 1.244-1.493.84-.361 1.765-.397 2.643-.59.313-.273-.18-.501-.521-.501a.58.58 0 0 0-.125.012 6.767 6.767 0 0 0-.648-.031c-.903 0-1.805.183-2.615.582.017-2.851.063-5.61-.019-8.308-.065-.834-.546-1.6-1.354-1.849C58.939.094 58.292 0 57.648 0zm16.8.735c.626 0 1.3.126 1.723.626.678.8.822 1.892.875 2.903.095 1.839.122 3.68.105 5.522h-.452V5.258c-1.184-.04-1.679-.912-1.784-1.593.143-.31.523-.57.65-.949.133-.4-.04-.993-.516-.993h-.024c-.215.01-.397.085-.587.085a.623.623 0 0 1-.337-.097c-.407-.248-.953-.293-1.423-.397.388-.567.983-.558 1.62-.577l.15-.002zM72.34 1.844c.578.102 1.189.213 1.645.613.085.115.208.19.322.19.101 0 .195-.059.25-.203.078-.108.156-.151.226-.151.213 0 .355.405.186.632-.13.326-.527.519-.667.785.135.532.373 1.043.776 1.428.31.298.686.566 1.126.6-.014 1.903-.005 3.806-.046 5.708a35.537 35.537 0 0 1-.58 5.237c-.044.247.182.4.311.575h-7.73c.56-.213 1.125-.417 1.684-.635.301-.158.162-.526.08-.774-.568-2.006-1.368-3.939-2.28-5.811.139-.183.366-.268.593-.268.13 0 .26.027.372.08.524.622 1.023 1.269 1.537 1.9.703.872 1.398 1.75 2.106 2.616.07.069.154.099.237.099.215 0 .425-.2.395-.44.373-2.515.808-5.02 1.098-7.546a2.616 2.616 0 0 0-.72-2.163.306.306 0 0 0-.214-.081c-.244 0-.531.224-.735.224-.083 0-.153-.038-.2-.144-.255-.26.58-.12.195-.349a.414.414 0 0 1-.068.006c-.351 0-.088-.58-.483-.675.066-.182.18-.313.329-.313a.36.36 0 0 1 .22.088c.087.022.175.031.263.031.304 0 .606-.113.883-.232-.316-.316-.43-.384-.642-.384-.22 0-.532.068-.622.14.147-.234.192-.51.153-.783zM74.412 0c-.055 0-.11 0-.166.002-.853.024-1.803.252-2.311.996-.225.326-.395.72-.32 1.123-.204.472-.648.834-.718 1.362-.066.427.578.339.42.752.01.31.354.616.24.815-.198.845-.433 1.739-1.033 2.396-.101.177-.232.228-.373.228-.192 0-.405-.093-.6-.096-.398.234.112.608.418.608.013 0 .025 0 .037-.002.03.003.06.004.09.004.623 0 1.094-.529 1.38-1.035.37-.603.64-1.28.86-1.938.168-.066.335-.129.476-.129.165 0 .292.087.338.354.271.716.014 1.476-.06 2.204a879.576 879.576 0 0 1-.827 5.57c-1.03-1.281-2.057-2.566-3.09-3.845-.238-.24-.565-.334-.898-.334-.218 0-.438.04-.636.106-.415.172-.859.606-.71 1.096.91 1.884 1.728 3.82 2.294 5.837-.694.264-1.394.514-2.083.788-.279.163-.143.488-.084.73a.43.43 0 0 0 .492.401h9.133c.127-.075.44-.136.484-.169-.173-.142-.1-.391-.285-.532l-.549-.65c.36-1.996.56-4.022.579-6.05l.226.002c.38 0 .835-.047.747-.544.022-2.122.02-4.25-.14-6.366-.084-1.109-.399-2.302-1.283-3.053C75.894.14 75.143 0 74.412 0zm7.226 0c-.93 0-1.745.684-1.745 1.562V18h1.136V1.562c0-.43.379-.57.617-.57.25 0 .633.175.633.703v10.804h1.136V1.695c0-.88-.87-1.695-1.777-1.695zm10.673.75q2.429 0 5.151 1.174-2.722 1.14-5.151 1.14-2.413 0-5.151-1.14Q89.898.75 92.31.75zm0-.75q-3 0-6.896 1.907 3.896 1.891 6.896 1.891t6.896-1.89Q95.327 0 92.31 0zm1.649 6.024v4.937h-3.313V6.024zm-3.994-.697v6.315h4.69V5.327zM92.15 13.8q.835 0 1.523.416 1.4.812 2.655.812 1.261 0 2.314-.108v2.167q-1.308-.232-1.889-.232h-.015q-.472 0-1.316.108-3.428.472-4.272.472-1.4 0-2.639-.046-2.12-.124-2.33-.225-.2-.093-.2-.534 0-.433.115-.758.116-.325.387-.465 6.625-.294 7.144-.34-.462-.666-1.43-.666-.315 0-.683.07-1.234.243-1.903.243-.14 0-.256-.01-.658-.063-.612-.628.37.05.763.05.827 0 1.76-.22.46-.107.883-.107zm.196-.629q-.335 0-.662.085-1.323.348-2.33.364-.247 0-.89-.124-.301.278-.301.658 0 .379.24.642-2.531.093-2.531.302-.457.58-.457 1.393 0 .805.426 1.099 1.285.41 5.162.41.62 0 1.262-.062 3.59-.534 4.28-.55h.067q.708 0 2.595.295v-3.421l-.016.015q-1.617.186-2.639.21l-.105.001q-.972 0-2-.543-1.087-.774-2.1-.774zm12.531-9.721l2.612 13.655h-5.225l2.613-13.655zm0-3.45l-3.67 18h7.4l-3.73-18zm8.164.59c.221 0 .264.037.296.071.032.034.07.13.132.293.098.26.084.974.021 1.452a3.263 3.263 0 0 0-.24.243c-.083.095-.144.204-.206.31-.007-.01-.01-.022-.018-.033a2.606 2.606 0 0 0-.508-.539c-.042-.452-.003-1.172.096-1.433.061-.163.1-.259.132-.293.032-.034.075-.07.295-.07zm1.354 1.976c-.048.032-.096.07-.135.092-.216.115-.32.231-.468.381-.264.27-.265.628-.265 1.003a9.3 9.3 0 0 0-.16-.424c.101-.22.215-.448.33-.579.21-.24.509-.41.698-.473zm-3.061-.194a.93.93 0 0 1 .418.172c.045.03.128.101.194.154.227.182.509.43.585.548.267.413.405.955.621 1.5.045.114.075.267.108.42-.01.004-.015.01-.025.015a.961.961 0 0 1-.378.07c-.284 0-.404-.043-.508-.19-.081-.116-.163-.353-.163-.65 0-.273.082-.675-.061-1.06-.106-.285-.226-.548-.551-.825-.096-.082-.169-.115-.24-.154zM112.9 8.42c.05 1.11.187 2.797.317 4.36.134 1.62.255 3.106.255 3.473 0 .406-.046.734-.135.913-.09.18-.164.243-.437.243s-.348-.063-.437-.243c-.09-.179-.135-.507-.135-.913 0-.367.12-1.854.255-3.474.13-1.562.266-3.249.317-4.359zm.14-8.42c-.312 0-.565.089-.723.255-.158.167-.204.346-.258.49-.124.328-.173.78-.172 1.212-.225-.117-.447-.194-.668-.194a.657.657 0 0 0-.412.117.547.547 0 0 0-.086.754.779.779 0 0 0 .197.175c.127.083.239.14.27.166.258.22.279.304.382.581.05.136.024.51.024.856 0 .395.093.738.271.99a.97.97 0 0 0 .455.345c.005 1.057.03 1.707-.003 2.5-.044 1.079-.188 2.867-.323 4.486-.134 1.62-.258 3.038-.258 3.52 0 .442.03.84.197 1.175.167.335.526.572.966.572.44 0 .8-.237.966-.572.167-.335.197-.733.197-1.175 0-.482-.124-1.9-.259-3.52-.134-1.62-.279-3.407-.323-4.485-.033-.802-.007-1.452-.003-2.529h.003a.96.96 0 0 0 .508-.55c.127-.369.126-.686.126-1.068 0-.367.07-.62.098-.65.16-.162.174-.192.327-.273a2.2 2.2 0 0 0 .375-.252c.06-.051.115-.104.166-.17a.434.434 0 0 0 .11-.292c0-.072.002-.253-.14-.387-.144-.135-.314-.154-.527-.154-.138 0-.271.033-.4.08.035-.432.039-.888-.101-1.259-.054-.143-.1-.322-.259-.489-.158-.166-.41-.255-.723-.255zm6.978.72c.67.051 1.245.203 1.726.456-.632.746-1.208 1.764-1.726 3.054-.531-1.29-1.113-2.308-1.745-3.054.493-.24 1.075-.392 1.745-.455zm0 4.894c.392 3.655.6 6.616.626 7.704-.026 1.846-.234 3.072-.626 3.68-.405-.608-.613-1.834-.626-3.68.013-1.1.221-4.062.626-7.704zm0-5.614c-1.29 0-2.232.392-2.826 1.176.898.746 1.618 1.903 2.162 3.47 0 .709-.142 2.634-.427 4.594-.284 1.96-.35 4.134-.199 6.524.326 1.49.716 2.236 1.171 2.236.04 0 .079-.006.119-.017.04.011.08.017.118.017.455 0 .846-.745 1.172-2.236.139-2.39.066-4.564-.219-6.524-.284-1.96-.426-3.885-.426-4.593.556-1.568 1.283-2.725 2.18-3.471C122.238.392 121.296 0 120.019 0z"/></svg>