<svg xmlns="http://www.w3.org/2000/svg" width="122.66" height="18"><path d="M9.704 2.523q-.129 0-.21.155-.126.201.19.34.303.152.202.518l-.29 1.249q.302.038.53.303V3.523q0-.795-.215-.921-.116-.08-.207-.08zm.712 2.834v.47l1.034-.108q-.025-.127-.39-.26-.267-.096-.644-.102zm-.453.029q-.456.094-.683.56l.82-.086v-.18q0-.088-.113-.264l-.024-.03zm-1.351.522q.069 0 .201.227-.328-.114-.24-.202.016-.025.039-.025zm2.901.656q.038.076.032.12-.006.044-.07.07.076 0 .14-.039-.013-.075-.102-.151zm-.113-.025q-.114.012-.202.063.05.088.164.151-.05-.063-.044-.126.006-.063.082-.088zm.05-.05q.177 0 .24.264-.114.076-.278.076-.164 0-.277-.19h-.303v-.1l.303.025q.139-.076.315-.076zm3.041-.341q-.757 0 0 1.4.757-1.4 0-1.4zm-5.893-.32q-.049 0-.088.042-.139.164.24.34-.391.594-.404 1.414l.101.012q0-.832.328-1.375l.025.013q-.24.53-.252 1.754l.114.012q.075-1.224.138-1.514l.114-.416q-.191-.282-.316-.282zm2.678.392q-.124 0-.23.035-.252.082-.252.347h-.177q-.037-.24-.151-.24-.114 0-.038.24l.354.555v1.186l.037.013q.05-.089.12-.227.07-.14.095-.366h.378q.215 0 .215-.101 0-.19-.202-.215 0-.1.063-.1l.252-.013q-.075-.177.152-.227 0-.101-.202-.455v-.214l-.038.05q-.164-.075-.252-.088-.101 0-.303.088h-.227V6.4h.227q.177-.114.303-.114.139 0 .29.114 0-.101-.038-.114-.205-.066-.376-.066zm.275-.312l-1.135.121v.106H10.1v-.072l-.908.097q-.013.063-.127.417-.164.492-.138 3.47l1.59.012V7.195q-.089-.126-.228-.353-.138-.228-.132-.486.005-.217.21-.217.039 0 .086.009.202 0 .253.252.012-.202.227-.297.097-.043.252-.043.186 0 .455.062-.013-.126-.089-.214zm2.957 4.069q-.508 0-.61.347h.48q.39-.038.39-.328-.14-.02-.26-.02zm-3.726-1.091v1.438H9.419q.012.782.145 1.88.132 1.098.334 1.861.202.764-.265 1.243h3.723q-.127-.138-.17-.467-.045-.328.283-1.11l.947-2.864q-.008-.418-.225-.418-.137 0-.356.165l-1.287 1.906-.48.605q-.126.089-.224.089-.196 0-.28-.354-.454-1.034-.34-2.536.44-.467-.442-1.438zM9.69 2.25q.17 0 .384.137.34.227.34 1.338v1.372q.35.018.594.073.366.082.599.353.233.271.233.75.05.203.013.38.215.378.215.517 0 .075-.19.075l.038.114q-.025.063-.076.076.038.05.026.113l-.089.038q.076.34-.29.34h-.265q-.025.24-.29.644.013.025.246.316.233.29.46.7.228.41-.1.801-.089 1.275.39 2.36l1.666-2.423q.186-.606.65-.606h.02V7.952h-.897v-.303h.896q-.908-1.754.227-1.754 1.123 0 .227 1.754h.884v.303h-.871v1.766q.707 0 .139.896-1.338 4.013-1.3 4.278.038.278.372.48.335.201.17.378H9.092q-.253-.114 0-.353.668-.795.429-1.527-.24-.732-.417-3.546h-.467v-.833q0-.757.013-1.3-.1-.012-.227-.062l.025-.379-.227-.013q0-.933.404-1.476-.442-.177-.202-.454.093-.113.194-.113.159 0 .336.277.329-.622.732-.806-.169-.095-.404-.166l.353-1.501q.05-.177-.214-.341-.354-.252-.14-.606.16-.301.412-.301zm10.578 5.953c-.511.04-.793.296-.847.767.067.51.35.78.847.806.497-.026.76-.295.786-.806-.04-.47-.302-.726-.786-.767zm.06-1.694c.363 0 .7.068 1.009.202a2.659 2.659 0 0 1 1.371 1.361c.135.303.202.622.202.958 0 .35-.067.676-.202.978a2.567 2.567 0 0 1-2.38 1.523c-.363 0-.702-.064-1.018-.192a2.426 2.426 0 0 1-.817-.534 2.621 2.621 0 0 1-.544-.797 2.38 2.38 0 0 1-.202-.978c0-.336.067-.655.202-.958.134-.302.316-.571.544-.806a2.48 2.48 0 0 1 .817-.555 2.574 2.574 0 0 1 1.018-.202zm-.04-.685c-.444 0-.86.084-1.25.252-.39.168-.726.396-1.009.685a3.36 3.36 0 0 0-.675 1.009 3.053 3.053 0 0 0-.252 1.24c0 .444.084.857.252 1.24.168.384.393.716.675.999a3.2 3.2 0 0 0 2.259.927c.444 0 .857-.084 1.24-.252a3.36 3.36 0 0 0 1.009-.675c.289-.283.517-.615.685-.999.168-.383.252-.796.252-1.24 0-.444-.084-.857-.252-1.24a3.268 3.268 0 0 0-1.694-1.694 3.053 3.053 0 0 0-1.24-.252zm10.855-3.281c.024 0 .049.003.075.01.143.04.184.159.124.358L30.3 5.607h-.508L30.9 2.755c.057-.141.138-.212.244-.212zm.86.217c.03 0 .06.005.094.015.165.048.195.171.09.37l-.95 2.462h-.507l1.002-2.617c.063-.153.153-.23.271-.23zm-2.571 3.976c-.081 0-.174.014-.278.043v.13a.933.933 0 0 1 .28-.05c.072 0 .137.013.195.037.126.052.293.087.502.104l-.065-.065a27.78 27.78 0 0 1-.456-.17.494.494 0 0 0-.178-.029zm.1.29l.234.078a1.775 1.775 0 0 1-.234.078c.052-.043.052-.095 0-.156zm-.196 0c-.026.052-.017.109.026.17a.807.807 0 0 1-.156-.053c.009-.043.052-.082.13-.117zm.065-.091c-.112 0-.19.043-.234.13l-.117.065-.013.065.117.026c.064.04.14.059.23.059.13 0 .288-.041.473-.124h.287v-.09h-.3c-.182-.088-.33-.131-.443-.131zm2.357-1.08l-.885 1.627c-.058.08-.112.121-.162.121a.109.109 0 0 1-.073-.03l-.286-.182c.017-.061.087-.152.208-.274.122-.121.148-.267.078-.436-.039-.096-.114-.144-.225-.144a.834.834 0 0 0-.321.085c-.278-.166-.523-.25-.735-.25l-.06.003a2.686 2.686 0 0 0-.09-.52zm-2.497.74c.222 0 .512.097.87.288.078-.087.156-.13.234-.13.078 0 .12.039.124.117.004.078-.065.18-.209.306-.143.126-.21.232-.201.319l.039.013a.64.64 0 0 1-.26.449c-.148.109-.348.167-.6.176a.936.936 0 0 1-.049.001c-.13 0-.188-.033-.172-.099a.206.206 0 0 0-.04-.189l.075.002c.244 0 .308-.042.193-.125-.085-.062-.154-.093-.205-.093a.093.093 0 0 0-.062.021c.035-.13-.035-.2-.208-.208.19-.321.338-.604.442-.847h.029zm.935.965l.377.234c.026.4.109.677.248.834a1.596 1.596 0 0 0-.21-.015c-.05 0-.097.003-.142.008a.546.546 0 0 0-.3.15 2.489 2.489 0 0 0-.325-.664c.226-.165.343-.347.352-.547zm-3.892 2.77c.19 0 .367.092.532.277-.312.008-.52.108-.625.3-.086-.218-.195-.34-.325-.365-.13-.026-.06-.085.208-.176a.652.652 0 0 1 .21-.036zm4.4-1.416c.338 0 .55.191.638.573.121.53.138 1.354.052 2.474a39.963 39.963 0 0 1-.365 3.19l.156.234h-4.323l.899-.364c-.26-1.276-.586-2.212-.977-2.806-.39-.595-.455-.979-.195-1.152a.443.443 0 0 1 .247-.083c.176 0 .35.127.521.382l1.758 2.5.313-.026c.19-1.944.394-3.394.612-4.349.104-.382.325-.573.664-.573zm.376-6.664c-.25 0-.42.147-.507.44l-1.12 2.917h-.56c.105.347.157.655.157.924-.06.243-.176.486-.345.73-.164.234-.13.351.098.351h.026c-.061.087-.053.139.026.156-.07.035-.079.072-.026.11.052.04.073.125.065.255-.026.382-.128.692-.306.93-.146.197-.28.295-.4.295a.216.216 0 0 1-.076-.014.459.459 0 0 0-.154-.035c-.051 0-.087.018-.106.054-.035.065.01.133.137.202a.324.324 0 0 0 .159.037c.11 0 .249-.04.414-.122.256-.125.488-.514.696-1.165h.365c.113.104.2.256.26.456-.312 1.007-.568 2.482-.768 4.427l-1.758-2.474a1.217 1.217 0 0 0-.364-.365.758.758 0 0 0-.616-.308c-.065 0-.133.007-.205.022v-2.8c0-.381-.134-.577-.403-.585a3.21 3.21 0 0 1 .638-.704c.074-.132.072-.198-.006-.198a.66.66 0 0 0-.242.081 8.5 8.5 0 0 0-.573.495c-.217.226-.34.393-.37.501l-.242.853c.005.14.028.21.068.21.031 0 .074-.043.128-.132.034-.113.082-.256.143-.43a.626.626 0 0 1 .352-.377c.147 0 .22.095.22.286v2.852c-.503.27-.644.451-.422.547.205.088.371.244.498.467.063.43.24.89.53 1.382.308.52.588 1.285.84 2.292l-.99.43.066.507h5.56l-.573-.677c.277-2.7.375-4.425.293-5.176-.083-.75-.272-1.165-.567-1.243-.208-.209-.29-.434-.247-.677l.325-.586c.513.373.769.876.769 1.51v6.849h.286V8.901c0-.755-.308-1.345-.924-1.77l.846-1.524h-.599L32.5 3.21c.13-.33.072-.543-.175-.638a.927.927 0 0 0-.333-.069.618.618 0 0 0-.312.082c-.06-.191-.236-.302-.527-.332a.705.705 0 0 0-.073-.004zm2.987 8.37v1.316h2.907V10.62h-.57c-.166.293-.355.483-.569.57a.818.818 0 0 1-.635 0c-.21-.087-.397-.277-.563-.57zm1.763-4.794V8.01h-.66v2.67h.713V9.006h.825v-2.29h1.02c.182 1.424.677 2.482 1.484 3.174.806.692 1.803 1.093 2.99 1.204 1.186.11 1.965.267 2.337.469.371.201.557.405.557.61h1.448c-.222-.53-.518-.933-.89-1.21-.372-.276-1.062-.45-2.07-.521-1.009-.072-1.816-.204-2.42-.398a3.858 3.858 0 0 1-1.62-1.032c-.475-.494-.839-1.556-1.092-3.186zM49.6 3.093q1.511.22 1.58 1.382v8.382q-.707-.843-2.536-1.184l.956-8.58zm-.425-.843l-1.131 10.022q2.52.289 3.136 1.8v1.678h.751V4.475q0-1.883-2.756-2.225zm17.639 1.78v1.756H53.882V4.03zM53.93 2.25v1.329h-.499v2.657h13.834V3.58h-.403V2.25h-.451v1.329h-1.115V2.25h-.451v1.329h-1.116V2.25h-.45v1.329h-1.092V2.25h-.475v1.329h-1.091V2.25h-.45v1.329h-1.116V2.25h-.45v1.329h-1.116V2.25h-.451v1.329h-1.092V2.25h-.45v1.329H54.38V2.25zm1.198 11.494l-1.697 2.006h.828l.87-1.036.877 1.036.852-1.036.878 1.036.87-1.036.877 1.036.87-1.036.877 1.036.853-1.036.877 1.036.878-1.036.852 1.036.878-1.036.87 1.036h.827l-1.697-2.006-.878.97-.852-.97-.878.97-.877-.97-.853.97-.878-.97-.869.97-.878-.97-.869.97-.878-.97-.852.97-.878-.97zM72.973 2.838q.619 0 .875.558h-1.735q.257-.558.86-.558zm-.347 1.312v1.222h-1.81q-.301-1.222-.105-1.222zm2.625 0q.196 0-.106 1.222h-1.81V4.15zm-.242 1.87q-.331 1.63-.588 3.372-.256 1.742-.203 3.13.052 1.387.294 2.519H71.45q.241-1.132.294-2.52.053-1.387-.204-3.13-.256-1.741-.588-3.37zm-2.036-3.77q-1.131 0-1.644 1.146h-2.277q-.287 0-.287.377t.287.377h.407q.347 0 .377.166.633 2.746.845 3.922.407 2.247.407 3.77 0 1.51-.257 2.376-.256.868-.256.988-.015.378.195.378h4.422q.209 0 .194-.378 0-.12-.256-.988-.256-.867-.256-2.375 0-1.524.407-3.771.211-1.176.845-3.922.03-.166.346-.166h.438q.286 0 .286-.377t-.286-.377h-2.278Q74.12 2.25 72.973 2.25zm9.274.45c.806 0 1.814.415 2.302.903.427.426.483.992.498 1.518h-5.576c.016-.526.072-1.092.499-1.518.487-.488 1.472-.902 2.277-.902zm0-.45c-.955 0-1.983.441-2.586 1.044-.618.618-.688 1.432-.688 2.04v.238h6.549v-.237c0-.61-.046-1.423-.664-2.04-.603-.604-1.655-1.045-2.61-1.045zm-1.729 6.594q.402 0 1.06.22 1.13.376 2.34 1.572 1.21 1.196.967 2.218-.242 1.021-.94 1.532-.578.422-1.394.422-.172 0-.354-.019-1.048-.107-1.801-1.653-.753-1.546-.699-2.755.054-1.21.376-1.425.157-.112.445-.112zm-.11-.933q-.555 0-.9.238-.725.511-.806 2.097-.08 1.586.914 3.441.995 1.855 2.42 2.03.272.033.53.033 1.09 0 1.916-.598 1.021-.74 1.277-2.097.255-1.357-1.089-2.876-1.344-1.519-2.903-2.016-.79-.252-1.36-.252zm11.099-5.073q.618 0 .874.558h-1.734q.256-.558.86-.558zM91.16 4.15v1.222h-1.81q-.302-1.222-.106-1.222zm2.624 0q.196 0-.105 1.222h-1.81V4.15zm-.241 1.87q-.332 1.63-.588 3.372-.257 1.742-.204 3.13.053 1.387.294 2.519h-3.062q.242-1.132.294-2.52.053-1.387-.203-3.13-.257-1.741-.589-3.37zm-2.036-3.77q-1.132 0-1.644 1.146h-2.278q-.287 0-.287.377t.287.377h.407q.347 0 .377.166.634 2.746.845 3.922.407 2.247.407 3.77 0 1.51-.256 2.376-.257.868-.257.988-.014.378.195.378h4.422q.21 0 .195-.378 0-.12-.256-.988-.257-.867-.257-2.375 0-1.524.407-3.771.212-1.176.845-3.922.03-.166.347-.166h.437q.287 0 .287-.377t-.287-.377h-2.277q-.513-1.146-1.66-1.146zm21.991 4.753q.366 0 .366.375v2.88h-1.107l.358-3.034q.017-.221.383-.221zm-13.643.852l1.022 2.113h-.647l-.375-.954-.375.954h-.17q0 .546.562.546h.971q.426.05.034.153-.293.076-.596.076-.173 0-.35-.025-.485-.068-1.235-.375l1.159-2.488zm0-1.5l-1.637 3.698q-.153-.085-.409-.29l-.58.717q.87.647 2.131 1.005.564.16 1.29.16.9 0 2.05-.245l11.71.136V7.378q0-.836-.886-.836-.887 0-.938.478-.358 3.238-.767 3.238l-9.34.204q-.596-.255-1.005-.409l-1.62-3.698z"/><path d="M8.22.375c-9.625 0-9.625 17.25 0 17.25m0-17.25h106.19M8.22 17.625h106.19m7.687-17.25v17.25M114.41.375c9.625 0 9.625 17.25 0 17.25" fill="none" stroke="#000"/></svg>