<svg xmlns="http://www.w3.org/2000/svg" width="64.659" height="18"><path d="M15.161 4.63c-.51.04-.793.295-.847.766.067.51.35.78.847.807.497-.027.76-.296.786-.807-.04-.47-.302-.726-.786-.766zm.06-1.694c.363 0 .7.067 1.009.201a2.659 2.659 0 0 1 1.37 1.361c.135.303.202.622.202.959 0 .35-.067.675-.202.978a2.567 2.567 0 0 1-2.38 1.523c-.363 0-.702-.065-1.018-.192a2.426 2.426 0 0 1-.817-.535 2.621 2.621 0 0 1-.544-.796 2.38 2.38 0 0 1-.202-.978c0-.337.067-.656.202-.958.134-.303.316-.572.544-.807.229-.235.501-.42.817-.555a2.574 2.574 0 0 1 1.018-.201zm-.04-.686c-.444 0-.86.084-1.25.252-.39.168-.726.397-1.009.686a3.36 3.36 0 0 0-.675 1.008 3.053 3.053 0 0 0-.252 1.24c0 .444.084.857.252 1.24.168.384.393.717.675.999a3.2 3.2 0 0 0 2.26.928c.443 0 .856-.084 1.24-.253a3.36 3.36 0 0 0 1.008-.675c.289-.282.517-.615.685-.998.168-.384.252-.797.252-1.24 0-.444-.084-.858-.252-1.24a3.268 3.268 0 0 0-1.694-1.695 3.053 3.053 0 0 0-1.24-.252zm6.529 12.374zm-.003.152zm-11.813-.58v.896c-.133-.062-.264-.119-.388-.18a1.246 1.246 0 0 0-.357-.1c-.101-.015-.207-.026-.302-.045a.352.352 0 0 1-.15-.054c-.013-.01-.021-.023-.021-.07 0-.047.008-.06.02-.069a.352.352 0 0 1 .151-.054c.095-.02.2-.03.302-.046.129-.02.253-.048.357-.1.124-.06.255-.118.388-.179zm0 .896zm.455.064zm8.261-1.027c.088 0 .177 0 .265.003.495.011 1.237.13 1.851.283.304.076.575.16.769.243l.082.037-.073.03a5.389 5.389 0 0 1-.768.203c-.617.125-1.362.215-1.86.227l-.266.003c-.896 0-1.79-.102-2.683-.206-.954-.11-1.907-.224-2.865-.224l-.146.001c-.838.01-1.8.104-2.567.427V14.13c.767.323 1.73.416 2.567.426l.146.001c.958 0 1.911-.112 2.865-.223.893-.104 1.787-.206 2.683-.206zm-8.436-.592l-.11.063c-.254.146-.521.249-.76.366a.8.8 0 0 1-.224.058c-.11.017-.222.028-.325.05a.79.79 0 0 0-.35.15.523.523 0 0 0-.185.42c0 .182.069.322.185.419a.79.79 0 0 0 .35.15c.103.021.216.033.325.05a.8.8 0 0 1 .225.058c.238.117.505.22.76.366l.109.063.111-.06c.738-.396 1.767-.495 2.637-.505l.141-.001c.94 0 1.876.112 2.812.22.911.107 1.823.21 2.737.21.091 0 .183-.001.274-.003a12.347 12.347 0 0 0 1.941-.237c.327-.066.622-.142.837-.223.12-.045.22-.093.292-.143a.51.51 0 0 0 .117-.109.325.325 0 0 0 .07-.197.33.33 0 0 0-.067-.194.535.535 0 0 0-.113-.111 1.434 1.434 0 0 0-.289-.158 5.812 5.812 0 0 0-.837-.265c-.647-.162-1.422-.285-1.951-.298a11.625 11.625 0 0 0-.274-.003c-.914 0-1.826.103-2.737.21-.936.108-1.872.22-2.812.22l-.141-.001c-.87-.01-1.899-.109-2.637-.505l-.11-.06zM25.512 2.25q-.248 0-.27.218l.24-.053q.15 0 .082.158-.172.165-.052.488-.22.475-.847.475l-.077-.002q.03.353-.15.533-.63.36-.63.66.495.234.165.571-.33.338-.33.458.217.068.3.233.375.916.758 1.3l-.03.307q.368 0 .405-.39-.69-.841-.668-1.795.03-.954 1.209-1.877.338-.188.338-.728 0-.556-.443-.556zm4.505 0q-.443 0-.443.556 0 .54.323.728 1.194.923 1.224 1.877.022.954-.684 1.795.053.39.406.39l-.023-.308q.376-.383.759-1.299.09-.165.292-.233 0-.12-.322-.458-.323-.337.165-.57 0-.3-.623-.661-.18-.18-.166-.533l-.074.002q-.615 0-.834-.475.112-.323-.053-.488-.067-.158.083-.158l.24.053q-.022-.218-.27-.218zM27.76 6.365q.882 0 1.768.675.69.586.082 1.344h-3.709q-.608-.758.098-1.344.878-.675 1.76-.675zM25.106 8.64q-1.043 1.216-1.043 1.854.082.368.323.368.315 0 .405-.285 0-.946.405-1.585l-.09-.352zm5.316 0l-.09.352q.406.639.406 1.585.082.285.405.285.233 0 .323-.368 0-.638-1.044-1.854zm-3.288.135q.488 0 .488.518v3.912q-1.532 0-1.735-.984-.202-.984-.022-3.446zm2.507 0q.203 2.462-.007 3.446-.21.984-1.742.984V9.293q0-.518.488-.518zm-1.99-4.182v.27q0 .188-.15.188-.232 0-.555-.27h-.165l.518.975-.165.053q-.27-.353-.541-.728-.042-.02-.074-.02-.082 0-.099.125l.406.706q-.286.232-.286.405-.45 0-.675.353-.654.458-.654 1.014 0 .42.27.96-.187 1.044-.187 2.629 0 1.043.36 1.674.368.63 2.103.63 1.734 0 2.095-.63.368-.63.368-1.674.015-1.585-.173-2.613.27-.556.27-.976 0-.556-.66-1.014-.233-.353-.669-.353 0-.173-.308-.405l.406-.706q0-.124-.078-.124-.03 0-.072.019-.27.375-.541.728l-.165-.053.503-.976h-.15q-.338.27-.578.27-.128 0-.128-.187v-.27zm-2.966 6.621l-.03.001q-.878 1.554-.878 2.448 0 .893.308 1.434.316.54.856.653-.728-.976-.728-1.562 0-.578.135-.946.12 1.029.54 1.45-.187-.827-.172-1.743.007-.923.308-1.374.014-.36-.34-.36zm6.159 0q-.354 0-.34.361.286.45.301 1.374.015.916-.165 1.742.42-.42.54-1.449.136.368.136.946 0 .586-.729 1.562.541-.113.841-.653.308-.54.308-1.434 0-.894-.863-2.448h-.03zm9.12-8.534q.387 0 .716.308.33.308.33.724 0 .387-.28.71-.279.322-.766.322-.459 0-.76-.337-.3-.337-.3-.695 0-.387.3-.71.301-.322.76-.322zm-1.276 2.91q-.086 0-.1.1 0 .085.1.085.086 0 .1-.086-.014-.1-.1-.1zm0-.044q.144 0 .144.143 0 .115-.144.158-.086-.014-.172-.086.043-.215.172-.215zm.37-.154q-.105 0-.226.01.129.073.057.187-.072-.114-.2-.114-.244 0-.244.3.143.1.129.187-.015.086-.043.114.1.1.186.516.057 0 .072-.043-.015-.444.028-.587.13-.258.359-.265h.02q.215 0 .345.15.136.158.093.358-.043.201-.616.445v.028q.888-.229.81-.795-.069-.491-.77-.491zm.39-.147q.559 0 .63.688.072.688-1.117.917.2.086.33.316.128.229.143.473-.06.018-.115.018-.118 0-.215-.083-.143-.122-.344-.609-.305-.832-.731-.832h-.158q.019-.108.082-.108.038 0 .09.037.033-.065.127-.065.07 0 .174.036-.2-.215-.2-.43l.024.002q.095 0 .133-.102.008.005.021.005.069 0 .302-.12.28-.143.824-.143zm-5.264 1.178q.082 0 .183.048.323.15.223 1.24-.817-.732-.681-1.061.093-.227.275-.227zm4.755 1.488q.087 0 .194.071-.373.258-.344 1.305h-.187q-.014-.99.13-1.233.083-.143.207-.143zm1.326-2.551q.501.014 1.103 1.01t.602 2.917h-.43q-.014-1.52-1.318-1.52v1.52h-.287V7.15q.817-.616.33-1.791zm-.691 2.758q.036 0 .074.008v1.476h.889V8.126q.03-.006.06-.006.456 0 .456 1.482-.158 3.912-.545 4.916l.33.716h-4.744l.99-.43q-.488-2.135-1.09-3.146-.602-1.01-.272-1.24.082-.057.17-.057.267 0 .59.516l1.977 2.666h.502l.114-3.941q0-1.484.499-1.484zm.39-5.868q-.674.014-1.082.466-.409.451-.409 1.01 0 .473.215.745.172.287.416.445l-.033-.001q-.23 0-.512.187-.315.215-.286.287-.041-.033-.087-.033-.034 0-.071.018-.086.043-.072.172-.415.143-.415.889.183-.092.266-.092.02 0 .035.006.286 0 .774 1.146-.1.086-.273.33-.172.243-.172.845v.932h.359q-.015.788-.1 3.21l-1.993-2.723q-.416-.341-.657-.341-.083 0-.145.04l-.76-1.519q.53-.258 1.161-.3-.029-.388-.272-.689-.516.387-1.003.588.315-1.448-.337-1.734-.198-.087-.363-.087-.378 0-.583.46-.294.659.924 1.49-.544.258-1.118.258.015.401.287.716.387-.4 1.018-.602l.501 1.749q-.158.057-.2.358-.043.301.537 1.376.58 1.075.939 2.637l-1.047.587.072.674h6.134l-.502-1.232q.43-1.892.445-4.902l.788-.014q0-2.537-.702-3.633-.629-.981-.959-.981-.039 0-.073.014.817-.43.86-1.29 0-.616-.452-1.032-.451-.416-1.053-.43zm4.673 8.727v1.225h2.703v-1.225h-.53c-.154.272-.33.449-.53.53a.76.76 0 0 1-.59 0c-.194-.081-.37-.258-.524-.53zm1.64-4.458v2.03h-.614v2.483h.662V9.476h.768V7.347h.949c.17 1.324.629 2.308 1.38 2.952.75.643 1.676 1.016 2.78 1.12 1.103.102 1.828.248 2.173.435.346.188.519.377.519.569h1.346c-.206-.493-.482-.868-.828-1.126-.345-.257-.987-.42-1.925-.485-.938-.067-1.688-.19-2.25-.37a3.588 3.588 0 0 1-1.507-.96c-.441-.46-.78-1.447-1.015-2.963zm-.893 7.115l-1.541 1.823h.751l.79-.942.797.942.775-.942.797.942.79-.942.797.942.79-.942.797.942.775-.942.797.942.797-.942.775.942.797-.942.79.942h.751l-1.541-1.823-.797.881-.775-.88-.797.88-.797-.88-.775.88-.797-.88-.79.88-.797-.88-.79.88-.797-.88-.775.88-.797-.88zm8.139-9.187c-.409.032-.635.237-.678.613.054.409.28.624.678.646.398-.022.607-.237.629-.646-.032-.376-.242-.58-.63-.613zm.048-1.355c.29 0 .56.054.807.161a2.127 2.127 0 0 1 1.097 1.089c.107.242.161.498.161.767 0 .28-.054.54-.161.782a2.029 2.029 0 0 1-1.097 1.065 2.092 2.092 0 0 1-.807.153c-.29 0-.562-.05-.815-.153a1.94 1.94 0 0 1-.653-.428 2.097 2.097 0 0 1-.436-.637 1.905 1.905 0 0 1-.16-.782c0-.27.053-.525.16-.767.108-.242.253-.457.436-.645s.4-.336.653-.444c.253-.107.525-.161.815-.161zm-.032-.549a2.5 2.5 0 0 0-1 .202 2.494 2.494 0 0 0-.807.549c-.226.23-.406.5-.54.806a2.443 2.443 0 0 0-.202.993c0 .354.067.685.201.992.135.306.315.572.54.798a2.56 2.56 0 0 0 1.808.742c.355 0 .686-.067.992-.201.307-.135.576-.315.807-.54.231-.227.414-.493.548-.8a2.43 2.43 0 0 0 .202-.991c0-.355-.067-.686-.202-.993a2.615 2.615 0 0 0-1.355-1.355 2.443 2.443 0 0 0-.992-.202z"/><path d="M8.22.375c-9.625 0-9.625 17.25 0 17.25m0-17.25h48.19M8.22 17.625h48.19M64.097.375v17.25M56.41.375c9.624 0 9.624 17.25 0 17.25" fill="none" stroke="#000"/></svg>