<svg xmlns="http://www.w3.org/2000/svg" width="52.504" height="18"><path d="M10.376 3.794q.26.152.306.611-.199.168-.306.505-.122-.337-.321-.505.046-.459.321-.611zm4.495 0q.276.152.322.611-.2.168-.322.505-.107-.337-.305-.505.046-.459.305-.611zm4.511 0q.26.168.306.626-.199.153-.306.49-.122-.337-.32-.49.045-.458.32-.626zm-8.043.81q-.29.382-.351.818-.062.436-.612.543-.566-.107-.627-.543-.061-.436-.352-.818.566 0 .704.428.122.413.275.413.138 0 .275-.413.138-.428.688-.428zm4.511 0q-.29.382-.352.818-.06.436-.627.543-.55-.107-.611-.543-.061-.436-.352-.818.55 0 .688.428.138.413.275.413.153 0 .276-.413.137-.428.703-.428zm4.496 0q-.291.397-.352.826-.061.428-.612.55-.566-.122-.627-.55-.06-.429-.351-.826.565 0 .703.443.122.398.275.398.138 0 .275-.398.138-.443.689-.443zm-7.799 2.951l.268.88q.16.527-.268.771-.428-.244-.267-.772l.267-.879zm4.526 0q.092.352.26.88.168.527-.26.771-.428-.244-.267-.772l.267-.879zm2.783 5.382q1.025 0 1.025.444 0 .443-1.01.459H9.903q-.994 0-.994-.46 0-.443.994-.443zm-9.48-9.495q-.443 0-.612.902-.142-.04-.268-.04-.252 0-.435.162-.183.138.015.29.321.169.398.727.076.558.627.726v6.01h-.184q-1.697 0-1.697 1.162 0 1.177 1.682 1.177h9.97q1.681 0 1.697-1.177 0-1.162-1.713-1.162h-.199V6.225q.55-.184.627-.734.077-.55.383-.734.214-.153.015-.275-.18-.17-.443-.17-.115 0-.245.032-.184-.887-.612-.887-.443 0-.627.887-.13-.033-.245-.033-.262 0-.443.17-.183.123.016.276.32.183.39.734.068.55.634.734h.015v5.994H17.35V9.466q.52-.504.351-1.032-.168-.527-.252-.871-.084-.344-.375-.344-.29 0-.382.344-.092.344-.252.871-.16.528.374 1.032v2.753l-1.666-.016V6.21q.55-.168.627-.726.076-.558.397-.726.199-.153.015-.29-.183-.164-.434-.164-.126 0-.269.041-.168-.902-.612-.902-.428 0-.611.902-.143-.04-.269-.04-.251 0-.435.162-.183.138.031.29.306.169.382.727.077.558.627.726v5.994l-1.773.016V9.466q.52-.504.359-1.032-.16-.527-.252-.871t-.383-.344q-.275 0-.374.344-.1.344-.26.871-.16.528.374 1.032v2.753h-1.651v-6.01q.566-.168.642-.726.077-.558.382-.726.214-.153.031-.29-.183-.164-.435-.164-.126 0-.268.041-.184-.902-.612-.902zm14.849.352q.26.152.306.611-.2.168-.306.505-.123-.337-.321-.505.046-.459.32-.611zm4.495 0q.275.152.321.611-.198.168-.32.505-.108-.337-.307-.505.046-.459.306-.611zm4.511 0q.26.168.306.626-.199.153-.306.49-.122-.337-.321-.49.046-.458.321-.626zm-8.043.81q-.29.382-.352.818-.06.436-.611.543-.566-.107-.627-.543-.061-.436-.352-.818.566 0 .704.428.122.413.275.413.137 0 .275-.413.138-.428.688-.428zm4.51 0q-.29.382-.35.818-.062.436-.628.543-.55-.107-.611-.543-.062-.436-.352-.818.55 0 .688.428.138.413.275.413.153 0 .275-.413.138-.428.704-.428zm4.496 0q-.29.397-.351.826-.062.428-.612.55-.566-.122-.627-.55-.061-.429-.352-.826.566 0 .704.443.122.398.275.398.138 0 .275-.398.138-.443.688-.443zm-7.798 2.951l.268.88q.16.527-.268.771-.428-.244-.268-.772l.268-.879zm4.526 0q.092.352.26.88.168.527-.26.771-.428-.244-.267-.772l.267-.879zm2.783 5.382q1.024 0 1.024.444 0 .443-1.009.459h-9.97q-.993 0-.993-.46 0-.443.994-.443zm-9.48-9.495q-.444 0-.612.902-.143-.04-.268-.04-.252 0-.435.162-.184.138.015.29.321.169.398.727.076.558.627.726v6.01h-.184q-1.697 0-1.697 1.162 0 1.177 1.682 1.177h9.97q1.681 0 1.697-1.177 0-1.162-1.713-1.162h-.199V6.225q.55-.184.627-.734.077-.55.382-.734.214-.153.016-.275-.181-.17-.443-.17-.115 0-.245.032-.184-.887-.612-.887-.443 0-.627.887-.13-.033-.245-.033-.262 0-.443.17-.183.123.015.276.321.183.39.734.069.55.635.734h.015v5.994h-1.774V9.466q.52-.504.352-1.032-.168-.527-.252-.871-.084-.344-.375-.344-.29 0-.382.344-.092.344-.252.871-.161.528.374 1.032v2.753l-1.667-.016V6.21q.55-.168.627-.726.077-.558.398-.726.199-.153.015-.29-.183-.164-.435-.164-.125 0-.268.041-.168-.902-.612-.902-.428 0-.611.902-.143-.04-.269-.04-.251 0-.435.162-.183.138.03.29.307.169.383.727.077.558.627.726v5.994l-1.774.016V9.466q.52-.504.36-1.032-.16-.527-.253-.871-.091-.344-.382-.344-.275 0-.375.344-.099.344-.26.871-.16.528.375 1.032v2.753h-1.651v-6.01q.565-.168.642-.726.076-.558.382-.726.214-.153.03-.29-.183-.164-.434-.164-.126 0-.269.041-.183-.902-.611-.902zm17.724 2.896q.17 0 .353.078.41.173.41 2.758v2.474h-4.641q1.793-2.46 2.46-3.718.667-1.257 1.014-1.473.192-.119.404-.119zm-.197-.528l-.075.001q-.66.014-1.487 1.612-.827 1.598-3.272 4.767h6.336l-.014-3.558q-.07-2.376-.486-2.605-.393-.217-1.002-.217z"/><path d="M8.22.375c-9.625 0-9.625 17.25 0 17.25m0-17.25h36.034M8.22 17.625h36.034M51.942.375v17.25M44.254.375c9.625 0 9.625 17.25 0 17.25" fill="none" stroke="#000"/></svg>