<svg xmlns="http://www.w3.org/2000/svg" width="44.143" height="18"><path d="M3.73.474c.693 0 1.247.2 1.634.479.006.053.02.107.009.16-.05.248-.195.477-.396.63-.316.207-.697.267-1.057.356-.09.01-.019.031.031.04.23.04.707.099.971.099l.052-.001c.278-.032.54-.148.766-.311.079-.067.147-.15.205-.236.147.346.227.713.26.917.018.11.096.2.202.233 1.139.349 2.038 1.91 2.88 2.949 1.729 2.137 3.199 4.526 4.892 6.76-.937-.456-1.87-.916-2.81-1.374-1.92-1.01-3.92-1.816-5.604-3.09l-.008-.008c-.97-.808-1.963-1.66-2.339-2.793-.148-.92 1.757-2.577 1.542-2.646a.207.207 0 0 0-.064-.01c-.458 0-1.753 1.128-2.019 2.202-.003-.014-.01-.03-.014-.045-.073-.356-.154-1.256.068-1.98a.29.29 0 0 0 .01-.103 1.968 1.968 0 0 0-.123-.634c-.063-.17-.139-.344-.26-.765-.031-.108-.142-.328-.208-.345.186-.138.375-.28.645-.375a.434.434 0 0 0-.132.314c0 .23.164.415.365.415.2 0 .364-.186.364-.415V.894a.411.411 0 0 0-.255-.39c.053-.007.096-.019.154-.022.081-.006.16-.008.238-.008zm.67 7.763c.065.065.135.124.202.187.214.78.412 1.64.692 2.305.483 1.145 1.216 2.141 1.84 3.154a1.814 1.814 0 0 0-.385.27 6.831 6.831 0 0 0-.199.193 2.61 2.61 0 0 0-1.186-.897c.045-.723-.108-1.712-.34-2.787A34.903 34.903 0 0 0 4.4 8.237zm1.006.908c1.149.945 2.428 1.738 3.676 2.54-.018.91-.018 1.778.084 2.675a3.411 3.411 0 0 0-1.437-.736c-.02 0-.037.012-.057.012-.649-1.063-1.383-2.06-1.837-3.134-.156-.37-.293-.85-.429-1.357zm.407 5.254a2.5 2.5 0 0 1 .44.541.3.3 0 0 0 .257.14.29.29 0 0 0 .17-.053c.215-.156.347-.324.476-.446.047-.045.097-.08.148-.117l.149 2.722c-.213-.014-.435-.035-.637-.035-.264 0-.495.036-.633.172-.169-.134-.497-.164-.89-.164-.102 0-.207.002-.316.004l.836-2.764zM6.97 9.574c1.354.787 2.784 1.414 4.135 2.125a.244.244 0 0 0 .006.003c1.295.631 2.586 1.28 3.894 1.904.984 1.189 2.052 2.295 3.078 3.42l-2.15.362-4.267-4.635a.288.288 0 0 0-.037-.036c-1.499-1.137-3.152-2.082-4.66-3.143zM3.796 0c-.135 0-.273.005-.411.013C2.3.083 1.512.54 1.243 1.157c-.04.093-.146.314-.007.314a2.35 2.35 0 0 1 .341-.028c.418 0 .38.172.47.194.09.282.29.846.303 1.068-.244.86-.153 1.763-.064 2.198.15.732.63 1.584 1.261 2.38a.285.285 0 0 0 0 .166 35.3 35.3 0 0 1 .903 3.336c.251 1.168.393 2.277.317 2.823a.294.294 0 0 0 .221.328c.045.011.084.031.127.045l-.928 3.079a2.847 2.847 0 0 0-.593-.055c-.381 0-.756.05-1.064.05-.125 0-.24-.008-.34-.032a.546.546 0 0 0-.125-.012c-.436 0-1.428.306-1.34.879.15-.128.257-.159.375-.159.11 0 .23.027.405.027h.027c.254-.004.697-.083 1.053-.083.18 0 .338.02.438.08.236-.01.45-.013.649-.013.85 0 1.447.07 2.5.075a89.565 89.565 0 0 0 2.974-.079c.45.003.697.054.922.054h.04c.134-.004.265-.057.48-.057.123 0 .273.017.468.07-.25-.341-.877-.685-1.33-.685a.591.591 0 0 0-.302.071 5.081 5.081 0 0 0-.508-.022c-.22 0-.448.01-.678.02l-.157-2.83c.487.203.857.517 1.281 1.021a.295.295 0 0 0 .513-.246c-.192-1.039-.213-2.019-.202-3.06.54.354 1.072.713 1.576 1.094l4.36 4.738a.29.29 0 0 0 .263.09c.95-.159 1.9-.315 2.849-.474a.294.294 0 0 0 .23-.193.298.298 0 0 0-.06-.297c-.741-.83-1.508-1.631-2.25-2.445 1.269.78 2.875 1.755 3.08 1.755.022 0 .027-.013.012-.04-.094-.163-.9-.755-1.775-1.373.14.058.276.12.415.177l.017.01c.103.035.16.059.27.062a.286.286 0 0 0 .108-.016.317.317 0 0 0 .188-.152.32.32 0 0 0 .023-.238c-.017-.05-.038-.077-.054-.098-.061-.085-.103-.109-.162-.154a4.553 4.553 0 0 0-.205-.149c-.153-.105-.336-.223-.493-.328a4.992 4.992 0 0 1-.328-.233.307.307 0 0 0-.028-.025l-3.892-2.736c-.008-.006-.02-.001-.028-.006-1.333-1.869-2.588-3.825-4.046-5.627C9 4.496 8.145 2.888 6.758 2.352 6.69 1.956 6.54 1.225 6.003.703 5.547.26 4.888.056 4.147.011A5.728 5.728 0 0 0 3.796 0zm23.35 0c-.12 0-.128.377-.3.935-.194.635-.337 1.962-.788 2.22a.397.397 0 0 1-.204.052c-.134 0-.269-.05-.417-.05a.545.545 0 0 0-.169.025c-.21.068-.322.397-.545.436-.921.16-2.182.1-2.887.163-.452.04.756.93 1.965.93h.05c.252-.005.517-.017.78-.017.44 0 .877.032 1.237.18.352.146.767.567.762.981L26.484 18h1.358l-.069-13.719c-.002-.368 1.06-.618 1.2-.936.242-.553.118-2.995-.273-3.323a.021.021 0 0 0-.013-.006c-.176 0-.505 2.56-1.022 3.111-.052.056-.156.082-.247.082-.096 0-.177-.03-.161-.082.328-1.118.46-2.749-.055-3.105A.102.102 0 0 0 27.146 0zm5.695 0c-.93 0-1.745.684-1.745 1.562V18h1.136V1.562c0-.43.379-.57.616-.57.25 0 .634.175.634.703v10.804h1.136V1.695c0-.88-.87-1.695-1.777-1.695zm7.377.366c.159.109.147.168.13.234-.02.084-.279.14-.395.14-.033 0-.055-.004-.057-.013 0-.076.126-.274.322-.361zM38.895 2.1c-.163 0-.245.087-.245.262 0 .218.098.327.294.327h.017a.73.73 0 0 0 .572-.262V2.33c0-.076-.638-.229-.638-.229zM41.011.78c.239.194-.196.74-.454 1.299l-.09.192c.45-.286.684-.841.684-.841.11.173-.246.644-.137.784.12.425.608.939-.49 1.983-.143.087-1.776.96-1.906.96-.099 0-.17-.076-.41-.294l.491-.393v-.114l-.016-.016h-.098c-.164 0-.37.103-.621.31a4.562 4.562 0 0 1-.446-.533c.203-.16.284-.27.272-.42.03-.185-.093-.214-.188-.214-.044 0-.082.007-.096.007v.13c-.033.066-.104.12-.213.164-.043 0-.065-.147-.065-.147 0-.077.174-.316.523-.72.96-1.177 1.7-1.776 2.331-1.776l.144.01c-.242.153-.13.41-.13.41.253-.223.665-.685.915-.781zm.665.794h.005c1.656 1.59 1.907 2.672 1.917 6.299l-2.805.044L40.754 5c0-.196.043-.432.217-.53 1.176-.908.58-2.286.503-2.44-.029-.349.107-.456.202-.456zM40.264 0c-.098 0-.315 0-.534.239-.195.211-.258.612-.636.748-.378.258-.628.527-.868.774-.959 1.046-1.28 1.41-1.29 1.618-.765.624.06.993.31 1.137.818.948.678.88 1.029 1.036.126.033.199.062.264.062.07 0 .13-.033.237-.129.12 0 1.405-.62 1.405-.62.142 0 .202.467.202 1.535-.013.734-.09 1.947-.005 1.947a.01.01 0 0 0 .005-.002l.033.05h3.71l.017-.017-.05-1.079c-.076-1.351.472-4.744-2.668-6.495.036-.219-.14-.458-.362-.458-.111 0-.234.06-.348.213-.02-.264-.133-.538-.45-.559zm-.046 9.971c.159.11.147.169.13.234-.02.084-.279.141-.395.141-.033 0-.055-.004-.057-.014 0-.076.126-.274.322-.36zm-1.323 1.736c-.163 0-.245.087-.245.261 0 .218.098.327.294.327h.017c.229 0 .42-.087.572-.262v-.098c0-.076-.638-.228-.638-.228zm2.116-1.32c.239.193-.196.74-.454 1.298l-.09.192c.45-.285.684-.84.684-.84.11.173-.246.644-.137.784.12.425.608.938-.49 1.982-.143.088-1.776.96-1.906.96-.099 0-.17-.076-.41-.294l.491-.392v-.115l-.016-.016h-.098c-.164 0-.37.104-.621.31a4.562 4.562 0 0 1-.446-.532c.203-.16.284-.271.272-.42.03-.185-.093-.214-.188-.214-.044 0-.082.006-.096.006v.13c-.033.066-.104.12-.213.164-.043 0-.065-.147-.065-.147 0-.076.174-.316.523-.72.96-1.176 1.7-1.776 2.331-1.776l.144.011c-.242.153-.13.41-.13.41.253-.224.665-.686.915-.782zm.665.793h.005c1.656 1.59 1.907 2.672 1.917 6.3l-2.805.044-.039-2.917c0-.197.043-.432.217-.53 1.176-.909.58-2.287.503-2.44-.029-.35.107-.457.202-.457zm-1.412-1.575c-.098 0-.315 0-.534.24-.195.21-.258.611-.636.748-.378.258-.628.526-.868.773-.959 1.046-1.28 1.411-1.29 1.619-.765.623.06.992.31 1.136.818.948.678.881 1.029 1.036.126.034.199.062.264.062.07 0 .13-.033.237-.128.12 0 1.405-.621 1.405-.621.142 0 .202.468.202 1.536-.013.734-.09 1.946-.005 1.946a.01.01 0 0 0 .005-.001l.033.049h3.71l.017-.016-.05-1.08c-.076-1.35.472-4.743-2.668-6.494.036-.22-.14-.459-.362-.459-.111 0-.234.06-.348.213-.02-.263-.133-.538-.45-.559z"/></svg>