<svg xmlns="http://www.w3.org/2000/svg" width="40.121" height="18"><path d="M10.09 2.25q-.248 0-.27.218l.24-.053q.15 0 .082.158-.173.165-.052.488-.22.475-.848.475l-.076-.002q.03.353-.15.533-.63.36-.63.66.495.234.164.571-.33.338-.33.458.218.068.3.233.376.916.759 1.3l-.03.307q.368 0 .405-.39-.69-.841-.668-1.795.03-.954 1.209-1.877.338-.188.338-.728 0-.556-.443-.556zm4.505 0q-.443 0-.443.556 0 .54.322.728 1.194.923 1.224 1.877.023.954-.683 1.795.053.39.406.39l-.023-.308q.375-.383.758-1.299.09-.165.293-.233 0-.12-.323-.458-.323-.337.165-.57 0-.3-.623-.661-.18-.18-.165-.533l-.075.002q-.614 0-.833-.475.112-.323-.053-.488-.068-.158.083-.158l.24.053q-.023-.218-.27-.218zm-2.257 4.115q.883 0 1.769.675.69.586.082 1.344H10.48q-.608-.758.098-1.344.878-.675 1.76-.675zM9.684 8.64Q8.64 9.856 8.64 10.494q.083.368.323.368.316 0 .406-.285 0-.946.405-1.585l-.09-.352zm5.316 0l-.09.352q.405.639.405 1.585.083.285.406.285.233 0 .323-.368 0-.638-1.044-1.854zm-3.289.135q.488 0 .488.518v3.912q-1.531 0-1.734-.984-.203-.984-.023-3.446zm2.508 0q.203 2.462-.007 3.446-.21.984-1.742.984V9.293q0-.518.488-.518zm-1.99-4.182v.27q0 .188-.15.188-.232 0-.555-.27h-.166l.519.975-.166.053q-.27-.353-.54-.728-.042-.02-.075-.02-.082 0-.098.125l.406.706q-.286.232-.286.405-.45 0-.676.353-.653.458-.653 1.014 0 .42.27.96-.187 1.044-.187 2.629 0 1.043.36 1.674.368.63 2.103.63 1.734 0 2.094-.63.368-.63.368-1.674.015-1.585-.172-2.613.27-.556.27-.976 0-.556-.66-1.014-.234-.353-.67-.353 0-.173-.307-.405l.406-.706q0-.124-.078-.124-.03 0-.073.019-.27.375-.54.728l-.165-.053.503-.976h-.15q-.338.27-.579.27-.127 0-.127-.187v-.27zm-2.967 6.621l-.028.001q-.879 1.554-.879 2.448 0 .893.308 1.434.315.54.856.653-.728-.976-.728-1.562 0-.578.135-.946.12 1.029.54 1.45-.187-.827-.172-1.743.007-.923.308-1.374.014-.36-.34-.36zm6.16 0q-.354 0-.34.361.286.45.301 1.374.015.916-.165 1.742.42-.42.54-1.449.136.368.136.946 0 .586-.729 1.562.54-.113.841-.653.308-.54.308-1.434 0-.894-.863-2.448h-.03zM31.44 3.337zm-.003.152zm-11.814-.58v.896c-.133-.061-.264-.119-.388-.18a1.246 1.246 0 0 0-.356-.1c-.102-.015-.208-.025-.303-.045a.352.352 0 0 1-.15-.054c-.012-.01-.021-.022-.021-.07 0-.046.009-.059.02-.069a.352.352 0 0 1 .151-.054c.095-.02.2-.03.303-.046.128-.02.252-.048.356-.1.124-.06.255-.117.388-.179zm0 .896zm.456.064zm8.26-1.027c.089 0 .177 0 .265.003.495.012 1.238.13 1.851.284.304.075.575.16.769.242.03.013.057.025.082.038-.022.01-.047.019-.072.029a5.389 5.389 0 0 1-.769.203c-.617.125-1.362.216-1.86.227-.089.002-.177.003-.266.003-.896 0-1.79-.102-2.683-.206-.954-.11-1.907-.223-2.865-.223h-.146c-.837.01-1.8.104-2.566.427V2.844c.766.323 1.729.416 2.566.427h.146c.958 0 1.911-.112 2.865-.223.894-.104 1.787-.206 2.683-.206zm-8.436-.592l-.11.063c-.254.147-.521.249-.759.366a.8.8 0 0 1-.225.058c-.11.017-.222.029-.325.05a.79.79 0 0 0-.35.15.523.523 0 0 0-.185.42c0 .182.07.322.185.419a.79.79 0 0 0 .35.15c.103.022.216.033.325.05a.8.8 0 0 1 .225.058c.238.117.505.22.76.366l.109.063.112-.06c.737-.396 1.766-.494 2.636-.505h.141c.94 0 1.876.111 2.812.22.911.106 1.823.209 2.737.209.092 0 .183-.001.274-.003a12.347 12.347 0 0 0 1.941-.236c.327-.067.622-.143.838-.224.12-.045.218-.093.291-.143a.51.51 0 0 0 .117-.109.325.325 0 0 0 .07-.196.33.33 0 0 0-.067-.195.535.535 0 0 0-.113-.111 1.434 1.434 0 0 0-.289-.158 5.812 5.812 0 0 0-.837-.265c-.647-.162-1.422-.285-1.951-.298a11.625 11.625 0 0 0-.274-.003c-.914 0-1.826.103-2.737.21-.936.108-1.872.22-2.812.22h-.141c-.87-.011-1.899-.11-2.636-.506l-.112-.06zm-1.827 8.003v5.497h.92v-5.497zm6.318.007v5.49h.919v-5.49zm6.431 0v5.49h.92v-5.49z"/><path d="M8.22.375c-9.625 0-9.625 17.25 0 17.25m0-17.25h23.651M8.22 17.625h23.651M39.559.375v17.25M31.871.375c9.625 0 9.625 17.25 0 17.25" fill="none" stroke="#000"/></svg>