<svg xmlns="http://www.w3.org/2000/svg" width="73.364" height="18"><path d="M9.777 3.093q1.51.22 1.579 1.382v8.382q-.706-.843-2.536-1.184l.957-8.58zM9.35 2.25L8.22 12.272q2.52.289 3.136 1.8v1.678h.752V4.475q0-1.883-2.757-2.225zm15.587 1.507v1.486H13.99V3.757zM14.03 2.25v1.125h-.421v2.25H25.32v-2.25h-.341V2.25h-.382v1.125h-.944V2.25h-.382v1.125h-.944V2.25h-.382v1.125h-.924V2.25h-.402v1.125h-.924V2.25h-.381v1.125h-.944V2.25h-.382v1.125h-.944V2.25h-.382v1.125h-.924V2.25h-.382v1.125h-.944V2.25zm1.014 4.645l-1.436 1.698h.7l.736-.877.743.877.722-.877.743.877.736-.877.743.877.736-.877.743.877.722-.877.743.877.743-.877.722.877.743-.877.736.877h.7l-1.436-1.698-.743.82-.722-.82-.743.82-.743-.82-.722.82-.743-.82-.736.82-.743-.82-.736.82-.743-.82-.722.82-.743-.82zm.213 3.787l3.08.172a8.506 8.506 0 0 1-.082 1.998c-1.149-.635-2.149-1.358-2.998-2.17zm3.342-.819c-.172 0-.349.111-.53.333l-3.33-.172c-.786.203-.946.519-.481.946.09-.02.171-.03.242-.03.172 0 .285.06.336.179.073.168.269.387.587.657.319.27 1.183.828 2.592 1.673.166.418.35.626.551.626.094 0 .192-.045.294-.137 2.003.864 3.938 1.468 5.805 1.812l.263-.207-.643-.683c-1.37-.119-3.155-.652-5.353-1.599a5.686 5.686 0 0 1-.038-2.33l3.727.25c.553-.139.594-.426.123-.86l-3.669-.153c-.154-.203-.312-.305-.476-.305zm13.994-.616q.475 0 .475.359-.007.374-.482.374t-1.417-.374q.95-.359 1.424-.359zm-2.515 1.869q.553.299.837 1.943.135 1.286-.837 1.286-.987 0-.852-1.286.284-1.644.852-1.943zM33.55 2.25q-.923 0-1.738.352-.986.426-1.442 1.42-.456.994-.59 2.983v2.033q-.72-.213-1.823-.213-.525 0-1.138.048v.688q.495-.053.929-.053 1.27 0 2.016.457h-.015q-.672 1.15-.934 1.868-.262.718-.321 1.45-.015.912.336 1.383.351.471 1.248.471.882 0 1.233-.47.352-.472.337-1.384-.06-.732-.322-1.45-.261-.717-.74-1.704 1.252.476 2.02.476 1.112 0 1.21-1-.097-.993-1.204-.993-.773 0-2.04.485V7.064q.09-3.064 1.323-3.692 1.005-.512 1.951-.512.215 0 .425.026 1.144.142 1.824 1.248.68 1.107.778 3.454.097 2.347.127 4.619.329 2.183 1.48 3.543l.523-.463q-1.106-1.42-1.345-3.05-.075-1.226-.105-3.648t-.464-3.782q-.433-1.36-1.218-1.906-.785-.546-1.928-.635-.2-.016-.393-.016zm13.705 1.843q.296 0 .371.35.12.545-.85.885-.204-.986.238-1.19.135-.045.24-.045zm2.599 3.734v4.216h-.816V8.762h-7.14v3.281h-.885V7.827zM48.51 9.272v4.76h-6.103v-4.76zm-1.324-5.831q-.363 0-.733.272-.714.663-.255 1.887l-.952 1.7h-4.743v5.27h1.394v1.99h7.14v-1.99h1.344V7.3h-4.268l.748-1.343q1.275-.255 1.462-1.224.051-.782-.595-1.14-.27-.152-.542-.152zm11.311-.471q2.331 0 4.943 1.126-2.612 1.095-4.943 1.095-2.315 0-4.943-1.095 2.628-1.126 4.943-1.126zm0-.72q-2.878 0-6.616 1.83 3.738 1.815 6.616 1.815 2.879 0 6.617-1.815-3.723-1.83-6.617-1.83zm5.442 6.275q-1.895 2.575-5.453 2.645-3.535-.07-5.43-2.645zM51.88 7.914q1.941 3.882 6.605 3.898 4.687-.016 6.628-3.898zm1.624 5.916l-1.623 1.92h.791l.832-.992.84.992.815-.992.84.992.831-.992.84.992.831-.992.84.992.816-.992.84.992.839-.992.815.992.84-.992.832.992h.791l-1.623-1.92-.84.928-.815-.927-.84.927-.84-.927-.815.927-.84-.927-.831.927-.84-.927-.831.927-.84-.927-.816.927-.84-.927z"/><path d="M8.22.375c-9.625 0-9.625 17.25 0 17.25m0-17.25h56.894M8.22 17.625h56.894M72.802.375v17.25M65.114.375c9.625 0 9.625 17.25 0 17.25" fill="none" stroke="#000"/></svg>