<svg xmlns="http://www.w3.org/2000/svg" width="63.281" height="18"><path d="M15.161 4.63c-.51.04-.793.295-.847.766.067.51.35.78.847.807.497-.027.76-.296.786-.807-.04-.47-.302-.726-.786-.766zm.06-1.694c.363 0 .7.067 1.009.201a2.659 2.659 0 0 1 1.37 1.361c.135.303.202.622.202.959 0 .35-.067.675-.202.978a2.567 2.567 0 0 1-2.38 1.523c-.363 0-.702-.065-1.018-.192a2.426 2.426 0 0 1-.817-.535 2.621 2.621 0 0 1-.544-.796 2.38 2.38 0 0 1-.202-.978c0-.337.067-.656.202-.958.134-.303.316-.572.544-.807.229-.235.501-.42.817-.555a2.574 2.574 0 0 1 1.018-.201zm-.04-.686c-.444 0-.86.084-1.25.252-.39.168-.726.397-1.009.686a3.36 3.36 0 0 0-.675 1.008 3.053 3.053 0 0 0-.252 1.24c0 .444.084.857.252 1.24.168.384.393.717.675.999a3.2 3.2 0 0 0 2.26.928c.443 0 .856-.084 1.24-.253a3.36 3.36 0 0 0 1.008-.675c.289-.282.517-.615.685-.998.168-.384.252-.797.252-1.24 0-.444-.084-.858-.252-1.24a3.268 3.268 0 0 0-1.694-1.695 3.053 3.053 0 0 0-1.24-.252zm6.529 12.374zm-.003.152zm-11.813-.58v.896c-.133-.062-.264-.119-.388-.18a1.246 1.246 0 0 0-.357-.1c-.101-.015-.207-.026-.302-.045a.352.352 0 0 1-.15-.054c-.013-.01-.021-.023-.021-.07 0-.047.008-.06.02-.069a.352.352 0 0 1 .151-.054c.095-.02.2-.03.302-.046.129-.02.253-.048.357-.1.124-.06.255-.118.388-.179zm0 .896zm.455.064zm8.261-1.027c.088 0 .177 0 .265.003.495.011 1.237.13 1.851.283.304.076.575.16.769.243l.082.037-.073.03a5.389 5.389 0 0 1-.768.203c-.617.125-1.362.215-1.86.227l-.266.003c-.896 0-1.79-.102-2.683-.206-.954-.11-1.907-.224-2.865-.224l-.146.001c-.838.01-1.8.104-2.567.427V14.13c.767.323 1.73.416 2.567.426l.146.001c.958 0 1.911-.112 2.865-.223.893-.104 1.787-.206 2.683-.206zm-8.436-.592l-.11.063c-.254.146-.521.249-.76.366a.8.8 0 0 1-.224.058c-.11.017-.222.028-.325.05a.79.79 0 0 0-.35.15.523.523 0 0 0-.185.42c0 .182.069.322.185.419a.79.79 0 0 0 .35.15c.103.021.216.033.325.05a.8.8 0 0 1 .225.058c.238.117.505.22.76.366l.109.063.111-.06c.738-.396 1.767-.495 2.637-.505l.141-.001c.94 0 1.876.112 2.812.22.911.107 1.823.21 2.737.21.091 0 .183-.001.274-.003a12.347 12.347 0 0 0 1.941-.237c.327-.066.622-.142.837-.223.12-.045.22-.093.292-.143a.51.51 0 0 0 .117-.109.325.325 0 0 0 .07-.197.33.33 0 0 0-.067-.194.535.535 0 0 0-.113-.111 1.434 1.434 0 0 0-.289-.158 5.812 5.812 0 0 0-.837-.265c-.647-.162-1.422-.285-1.951-.298a11.625 11.625 0 0 0-.274-.003c-.914 0-1.826.103-2.737.21-.936.108-1.872.22-2.812.22l-.141-.001c-.87-.01-1.899-.109-2.637-.505l-.11-.06zM25.512 2.25q-.248 0-.27.218l.24-.053q.15 0 .082.158-.172.165-.052.488-.22.475-.847.475l-.077-.002q.03.353-.15.533-.63.36-.63.66.495.234.165.571-.33.338-.33.458.217.068.3.233.375.916.758 1.3l-.03.307q.368 0 .405-.39-.69-.841-.668-1.795.03-.954 1.209-1.877.338-.188.338-.728 0-.556-.443-.556zm4.505 0q-.443 0-.443.556 0 .54.323.728 1.194.923 1.224 1.877.022.954-.684 1.795.053.39.406.39l-.023-.308q.376-.383.759-1.299.09-.165.292-.233 0-.12-.322-.458-.323-.337.165-.57 0-.3-.623-.661-.18-.18-.166-.533l-.074.002q-.615 0-.834-.475.112-.323-.053-.488-.067-.158.083-.158l.24.053q-.022-.218-.27-.218zM27.76 6.365q.882 0 1.768.675.69.586.082 1.344h-3.709q-.608-.758.098-1.344.878-.675 1.76-.675zM25.106 8.64q-1.043 1.216-1.043 1.854.082.368.323.368.315 0 .405-.285 0-.946.405-1.585l-.09-.352zm5.316 0l-.09.352q.406.639.406 1.585.082.285.405.285.233 0 .323-.368 0-.638-1.044-1.854zm-3.288.135q.488 0 .488.518v3.912q-1.532 0-1.735-.984-.202-.984-.022-3.446zm2.507 0q.203 2.462-.007 3.446-.21.984-1.742.984V9.293q0-.518.488-.518zm-1.99-4.182v.27q0 .188-.15.188-.232 0-.555-.27h-.165l.518.975-.165.053q-.27-.353-.541-.728-.042-.02-.074-.02-.082 0-.099.125l.406.706q-.286.232-.286.405-.45 0-.675.353-.654.458-.654 1.014 0 .42.27.96-.187 1.044-.187 2.629 0 1.043.36 1.674.368.63 2.103.63 1.734 0 2.095-.63.368-.63.368-1.674.015-1.585-.173-2.613.27-.556.27-.976 0-.556-.66-1.014-.233-.353-.669-.353 0-.173-.308-.405l.406-.706q0-.124-.078-.124-.03 0-.072.019-.27.375-.541.728l-.165-.053.503-.976h-.15q-.338.27-.578.27-.128 0-.128-.187v-.27zm-2.966 6.621l-.03.001q-.878 1.554-.878 2.448 0 .893.308 1.434.316.54.856.653-.728-.976-.728-1.562 0-.578.135-.946.12 1.029.54 1.45-.187-.827-.172-1.743.007-.923.308-1.374.014-.36-.34-.36zm6.159 0q-.354 0-.34.361.286.45.301 1.374.015.916-.165 1.742.42-.42.54-1.449.136.368.136.946 0 .586-.729 1.562.541-.113.841-.653.308-.54.308-1.434 0-.894-.863-2.448h-.03zm8.696-8.671c.024 0 .049.003.075.01.143.04.184.159.124.358l-1.042 2.696h-.508l1.107-2.852c.057-.141.138-.212.244-.212zm.86.217c.03 0 .06.005.094.015.165.048.195.171.09.37l-.95 2.462h-.507l1.002-2.617c.063-.153.153-.23.271-.23zm-2.571 3.976c-.081 0-.174.014-.278.043v.13a.933.933 0 0 1 .28-.05c.072 0 .137.013.195.037.126.052.293.087.502.104l-.065-.065a27.78 27.78 0 0 1-.456-.17.494.494 0 0 0-.178-.029zm.1.29l.234.078a1.775 1.775 0 0 1-.234.078c.052-.043.052-.095 0-.156zm-.196 0c-.026.052-.017.109.026.17a.807.807 0 0 1-.156-.053c.009-.043.052-.082.13-.117zm.065-.091c-.112 0-.19.043-.234.13l-.117.065-.013.065.117.026c.064.04.14.059.23.059.13 0 .288-.041.473-.124h.287v-.09h-.3c-.182-.088-.33-.131-.443-.131zm2.357-1.08l-.885 1.627c-.058.08-.112.121-.162.121a.109.109 0 0 1-.073-.03l-.286-.182c.017-.061.087-.152.208-.274.122-.121.148-.267.078-.436-.039-.096-.114-.144-.225-.144a.834.834 0 0 0-.321.085c-.278-.166-.523-.25-.735-.25l-.06.003a2.686 2.686 0 0 0-.09-.52zm-2.497.74c.222 0 .512.097.87.288.078-.087.156-.13.234-.13.078 0 .12.039.124.117.004.078-.065.18-.209.306-.143.126-.21.232-.201.319l.039.013a.64.64 0 0 1-.26.449c-.148.109-.348.167-.6.176a.936.936 0 0 1-.049.001c-.13 0-.188-.033-.172-.099a.206.206 0 0 0-.04-.189l.075.002c.243 0 .308-.042.193-.125-.086-.062-.154-.093-.205-.093a.093.093 0 0 0-.062.021c.035-.13-.035-.2-.209-.208.191-.321.339-.604.443-.847h.029zm.935.965l.377.234c.026.4.109.677.248.834a1.596 1.596 0 0 0-.21-.015c-.05 0-.097.003-.142.008a.546.546 0 0 0-.3.15 2.489 2.489 0 0 0-.325-.664c.226-.165.343-.347.352-.547zM34.7 10.33c.19 0 .367.092.532.277-.312.008-.52.108-.625.3-.086-.218-.195-.34-.325-.365-.13-.026-.06-.085.208-.176a.652.652 0 0 1 .21-.036zm4.4-1.416c.338 0 .55.191.638.573.121.53.138 1.354.052 2.474-.105 1.285-.226 2.348-.365 3.19l.156.234H35.26l.899-.364c-.26-1.276-.586-2.212-.977-2.806-.39-.595-.455-.979-.195-1.152a.443.443 0 0 1 .247-.083c.176 0 .35.127.521.382l1.758 2.5.313-.026c.19-1.944.394-3.394.611-4.349.105-.382.326-.573.665-.573zm.376-6.664c-.25 0-.42.147-.507.44l-1.12 2.917h-.56c.105.347.157.655.157.924-.06.243-.176.486-.345.73-.164.234-.13.351.098.351h.026c-.061.087-.053.139.026.156-.07.035-.079.072-.026.11.052.04.073.125.065.255-.026.382-.128.692-.306.93-.146.197-.28.295-.4.295a.216.216 0 0 1-.076-.014.459.459 0 0 0-.154-.035c-.051 0-.087.018-.106.054-.035.065.01.133.137.202a.324.324 0 0 0 .159.037c.11 0 .249-.04.414-.122.256-.125.488-.514.696-1.165h.365c.113.104.2.256.26.456-.312 1.007-.568 2.482-.768 4.427l-1.758-2.474a1.217 1.217 0 0 0-.364-.365.758.758 0 0 0-.616-.308c-.065 0-.133.007-.205.022v-2.8c0-.381-.134-.577-.403-.585a3.21 3.21 0 0 1 .638-.704c.074-.132.072-.198-.006-.198a.66.66 0 0 0-.242.081 8.5 8.5 0 0 0-.573.495c-.217.226-.34.393-.37.501l-.242.853c.005.14.028.21.068.21.031 0 .074-.043.128-.132.034-.113.082-.256.143-.43a.627.627 0 0 1 .351-.377c.148 0 .222.095.222.286v2.852c-.504.27-.645.451-.423.547.205.088.371.244.498.467.063.43.24.89.53 1.382.308.52.588 1.285.84 2.292l-.99.43.066.507h5.56l-.573-.677c.277-2.7.375-4.425.293-5.176-.083-.75-.272-1.165-.567-1.243-.208-.209-.29-.434-.247-.677l.325-.586c.512.373.769.876.769 1.51v6.849h.286V8.901c0-.755-.308-1.345-.924-1.77l.846-1.524h-.6l.925-2.396c.13-.33.072-.543-.175-.638a.927.927 0 0 0-.333-.069.618.618 0 0 0-.312.082c-.06-.191-.236-.302-.527-.332a.705.705 0 0 0-.073-.004zm3.034 4.793V8.36h2.906V7.043h-.57c-.166.293-.355.483-.569.57a.818.818 0 0 1-.635 0c-.21-.087-.397-.277-.563-.57zm1.762-4.793v2.183h-.66v2.67h.713V5.43h.825V3.14h1.02c.183 1.424.677 2.481 1.484 3.174.806.692 1.803 1.093 2.99 1.204 1.186.11 1.965.267 2.337.468.371.202.557.406.557.611h1.448c-.222-.53-.518-.933-.89-1.21-.372-.277-1.062-.45-2.07-.522-1.009-.071-1.816-.203-2.42-.397a3.858 3.858 0 0 1-1.62-1.032c-.475-.495-.839-1.557-1.092-3.186zm-.266 11.678l-1.542 1.822h.752l.79-.942.797.942.774-.942.798.942.79-.942.797.942.79-.942.797.942.774-.942.797.942.798-.942.774.942.797-.942.79.942h.752l-1.542-1.822-.797.88-.774-.88-.798.88-.797-.88-.774.88-.798-.88-.79.88-.797-.88-.79.88-.797-.88-.774.88-.797-.88z"/><path d="M8.22.375c-9.625 0-9.625 17.25 0 17.25m0-17.25h46.81M8.22 17.625h46.81M62.718.375v17.25M55.03.375c9.626 0 9.626 17.25 0 17.25" fill="none" stroke="#000"/></svg>