<svg xmlns="http://www.w3.org/2000/svg" width="90.79" height="18"><path d="M13.994 9.247q.475 0 .475.359-.008.374-.482.374-.475 0-1.417-.374.95-.359 1.424-.359zm-2.515 1.869q.553.299.837 1.943.135 1.286-.837 1.286-.987 0-.852-1.286.284-1.644.852-1.943zM14.95 2.25q-.922 0-1.737.352-.987.426-1.443 1.42-.455.994-.59 2.983v2.033q-.719-.213-1.822-.213-.526 0-1.138.048v.688q.495-.053.928-.053 1.27 0 2.017.457h-.015q-.673 1.15-.934 1.868-.262.718-.322 1.45-.015.912.337 1.383.351.471 1.248.471.882 0 1.233-.47.352-.472.337-1.384-.06-.732-.322-1.45-.261-.717-.74-1.704 1.252.476 2.02.476 1.112 0 1.21-1-.097-.993-1.204-.993-.774 0-2.04.485V7.064Q12.061 4 13.294 3.372q1.006-.512 1.952-.512.214 0 .425.026 1.144.142 1.824 1.248.68 1.107.778 3.454.097 2.347.127 4.619.328 2.183 1.48 3.543l.523-.463q-1.106-1.42-1.346-3.05-.074-1.226-.104-3.648t-.464-3.782q-.433-1.36-1.218-1.906-.785-.546-1.929-.635-.198-.016-.393-.016zm13.705 1.843q.297 0 .372.35.12.545-.85.885-.204-.986.238-1.19.134-.045.24-.045zm2.6 3.734v4.216h-.817V8.762h-7.14v3.281h-.884V7.827zM29.91 9.272v4.76h-6.103v-4.76zm-1.324-5.831q-.364 0-.733.272-.714.663-.255 1.887l-.952 1.7h-4.743v5.27h1.394v1.99h7.14v-1.99h1.343V7.3h-4.267l.748-1.343q1.275-.255 1.462-1.224.051-.782-.595-1.14-.27-.152-.542-.152zm6.252-.348q1.51.22 1.58 1.382v8.382q-.707-.843-2.537-1.184l.957-8.58zm-.425-.843L33.28 12.272q2.521.289 3.136 1.8v1.678h.752V4.475q0-1.883-2.756-2.225zm11.139.748q2.424 0 5.141 1.172-2.717 1.139-5.141 1.139-2.409 0-5.142-1.139 2.733-1.172 5.142-1.172zm0-.748q-2.994 0-6.883 1.904 3.889 1.887 6.883 1.887 2.993 0 6.882-1.887-3.872-1.904-6.882-1.904zm6.126 6.794c.23.327.286.73.305 1.12-.008.183.006.382-.07.554-.216-.214-.197-.709-.201-.986 0-.273-.01-.497-.034-.688zm-12.283-.308l11.21.013c-1.638 1.552-3.28 2.31-5.755 2.31-2.485 0-3.989-.74-5.455-2.323zm-.503-.45a.225.225 0 0 0-.17.371c1.627 1.9 3.356 2.853 6.128 2.853 2.698 0 4.542-.915 6.32-2.682.06.17.09.436.09.904.012.52.008 1.383.691 1.443.48-.099.48-.612.483-1.012 0-.49-.12-.936-.32-1.275-.201-.338-.498-.59-.858-.59l-12.364-.013zm1.465 5.468L38.67 15.75h.823l.865-1.031.874 1.031.848-1.031.873 1.031.865-1.031.874 1.031.865-1.031.873 1.031.848-1.031.874 1.031.873-1.031.848 1.031.874-1.031.865 1.031h.823l-1.688-1.996-.874.965-.848-.965-.873.965-.874-.965-.848.965-.873-.965-.865.965-.874-.965-.865.965-.873-.965-.848.965-.874-.965z"/><path d="M8.22.375c-9.625 0-9.625 17.25 0 17.25m0-17.25h44.214M8.22 17.625h44.214M60.122.375v17.25M52.434.375c9.625 0 9.625 17.25 0 17.25" fill="none" stroke="#000"/><path d="M67.648 12.143q.168 0 .349.077.404.171.404 2.721v2.44h-4.579q1.769-2.426 2.427-3.667.658-1.24 1-1.453.19-.118.4-.118zm-.194-.52h-.074q-.651.014-1.467 1.59-.816 1.577-3.229 4.703h6.252l-.014-3.51q-.068-2.344-.48-2.57-.387-.214-.988-.214zM72.419.986V3.39q-.531-.792-3.187-.792h-1.965V.986zm.03-.902q-1.083.2-3.217.2h-2.636v3.017h2.636q1.393 0 1.994.29.612.291 1.193.833l.03 13.48h1.163V.084zM78.436 0c-.12 0-.238.005-.357.016l-.056-.001c-1.34 0-2.495 1.293-2.397 2.622-.072 1.044.145 2.077.202 3.116a.47.47 0 0 0 .435.25.737.737 0 0 0 .606-.327c.316-.44.176-1.01.048-1.491-.141-.857-.193-1.812.278-2.581.303-.407.803-.61 1.302-.61.543 0 1.085.241 1.372.722.46.674.336 1.655-.254 2.212-.569.673-1.422 1.117-1.787 1.951-.232.841-.037 1.718-.115 2.574-.075 3.123-.114 6.246-.173 9.37.16.135.35.16.547.16.115 0 .232-.009.347-.009.093 0 .186.006.274.026.425-.218.391-.764.36-1.168-.15-3.276-.041-6.556-.123-9.833.009-.374-.112-.803.282-1.016.786-.763 1.623-1.523 2.106-2.525.491-1.455-.609-3.197-2.132-3.382A3.782 3.782 0 0 0 78.436 0zm11.677.307q.09 0 .17.04.137.069.196.235.059.167 0 .265-.137.156-.274.166l-.04.001q-.122 0-.274-.05-.117.118-.274.294-.196.254-.528.803-.372.607-.549.861-.41-.235-.685-.235Q89.089 1.16 89.451.768q.362-.391.529-.44.069-.02.133-.02zm-2.65 2.987q.549.274.666.49.118.215.02.215-.098 0-.235.118-.098-.353-.45-.823zm-.137.568l.862 3.231q-.411 0-.862.313V3.862zM90.076 0q-.263 0-.557.26l-2.31 2.76q-.744-.117-1.156-.822.275-.333.93-.94.657-.607.54-.803-.057-.118-.193-.118-.336 0-1.159.725-.881.627-1.41 1.018-.274.255-.45.891-.177.637-.529 1.332-.352.695-.333 1.087.05.244.162.244t.289-.244q.254-.431.607-.98.352-.548.88-1.018.373-.254.706-.313.372.137.568.529v10.809q-1.156.313-1.195 1.507-.059.45.274 1.39.235.686.881.686-.43-1.625-.43-2.076.039-.9.783-.9.803 0 .842.9 0 .45-.411 2.076.646 0 .861-.685.333-.94.255-1.39.02-1.195-1.195-1.508V8.229q.607-.431 1.586-.568-.391-1.997-.773-2.741-.338-.658.311-.658.086 0 .188.011-.235-.92-.94-1.175v-.097q.043-.004.087-.004.395 0 .853.317.294-.392.666-1.038.392-.666.529-.842.137-.176.196-.196.111.04.211.04.25 0 .425-.245.245-.343.01-.666t-.529-.362Q90.111 0 90.076 0z"/></svg>