<svg xmlns="http://www.w3.org/2000/svg" width="60.984" height="18"><path d="M9.777 3.093q1.51.22 1.579 1.382v8.382q-.706-.843-2.536-1.184l.957-8.58zM9.35 2.25L8.22 12.272q2.52.289 3.136 1.8v1.678h.752V4.475q0-1.883-2.757-2.225zm17.64 1.78v1.756H14.058V4.03zM14.106 2.25v1.329h-.498v2.657H27.44V3.58h-.403V2.25h-.451v1.329h-1.115V2.25h-.451v1.329h-1.115V2.25h-.451v1.329h-1.092V2.25h-.474v1.329h-1.092V2.25h-.45v1.329H19.23V2.25h-.45v1.329h-1.116V2.25h-.45v1.329h-1.092V2.25h-.451v1.329h-1.115V2.25zm1.198 11.494l-1.696 2.006h.827l.87-1.036.877 1.036.853-1.036.877 1.036.87-1.036.877 1.036.87-1.036.877 1.036.853-1.036.877 1.036.878-1.036.853 1.036.877-1.036.87 1.036h.827l-1.697-2.006-.877.97-.853-.97-.878.97-.877-.97-.853.97-.877-.97-.87.97-.877-.97-.87.97-.877-.97-.853.97-.878-.97zM35.707 2.986q2.383 0 5.054 1.151-2.671 1.12-5.054 1.12-2.367 0-5.054-1.12 2.687-1.151 5.054-1.151zm0-.736q-2.943 0-6.766 1.871 3.823 1.856 6.766 1.856t6.765-1.856Q38.666 2.25 35.707 2.25zm-.159 9.379q.82 0 1.495.408 1.374.797 2.605.797 1.237 0 2.27-.106v2.126q-1.283-.228-1.853-.228h-.015q-.463 0-1.29.107-3.365.463-4.192.463-1.375 0-2.59-.046-2.08-.121-2.285-.22-.197-.091-.197-.524 0-.425.113-.744.114-.319.38-.456 6.5-.288 7.009-.334-.453-.653-1.404-.653-.308 0-.67.069-1.21.238-1.866.238-.138 0-.252-.01-.645-.061-.6-.616.363.05.749.05.811 0 1.727-.217.451-.104.866-.104zm.193-.617q-.328 0-.65.083-1.298.342-2.285.357-.243 0-.873-.121-.296.273-.296.645t.235.63q-2.483.092-2.483.297-.448.57-.448 1.366 0 .79.418 1.079 1.26.402 5.064.402.608 0 1.238-.06 3.523-.525 4.2-.54h.066q.694 0 2.545.289v-3.356l-.015.015q-1.587.182-2.59.205l-.102.001q-.954 0-1.963-.533-1.067-.759-2.06-.759zm9.089-6.237q.22 0 .46.222.387.357.613.758.226.401.226.678-.263-.014-.67-.233-.41-.219-.766-.613-.358-.393-.124-.729.127-.083.262-.083zm6.14 1.673q.306.175.48.51.176.335.205.707.03.372-.131.751-.336-.248-.503-.583-.168-.335-.183-.707-.014-.372.132-.678zm-3.441 1.735q.743 1.137 1.108 1.895.364.759.27 1.852-.095 1.094-1.378 1.21-1.284-.102-1.378-1.203-.095-1.1.27-1.859.364-.758 1.108-1.895zm-2.736-3.921q-.276 0-.56.261-.335.365-.24.714.094.35.35.657.255.306.605.554.35.248 1.006.495.568.16.991.773 0 .263-.692 1.32-.693 1.057-.795 2.26-.102 1.203.518 1.83.605.612 1.51.612h.085q.905 0 1.503-.612.613-.627.518-1.83-.095-1.203-.788-2.26-.692-1.057-.736-1.582.744-1.283 1.611-1.706.218-.106.363-.106.433 0 .22.944-.284 1.261 1.014 2.617.364.642.656 1.838l.073.568q.146.064.275.064.26 0 .454-.253l-.233-.54q-.35-1.18-.365-1.91.204-1.516-.022-2.1-.226-.583-.89-1.29-.49-.524-1.13-.524-.224 0-.466.065-.933.248-2.1 2.07-.685-.408-.889-.947-.233-.657-.481-1.007-.248-.35-.554-.605-.306-.255-.656-.35-.077-.02-.155-.02z"/><path d="M8.22.375c-9.625 0-9.625 17.25 0 17.25m0-17.25h44.514M8.22 17.625h44.514M60.421.375v17.25M52.734.375c9.625 0 9.625 17.25 0 17.25" fill="none" stroke="#000"/></svg>