<svg xmlns="http://www.w3.org/2000/svg" width="53.423" height="18"><path d="M9.777 3.093q1.51.22 1.579 1.382v8.382q-.706-.843-2.536-1.184l.957-8.58zM9.35 2.25L8.22 12.272q2.52.289 3.136 1.8v1.678h.752V4.475q0-1.883-2.757-2.225zm18.417 1.883V5.99H14.085V4.133zM14.135 2.25v1.406h-.527v2.812h14.636V3.656h-.427V2.25h-.477v1.406h-1.18V2.25h-.477v1.406h-1.18V2.25h-.477v1.406h-1.155V2.25h-.502v1.406h-1.155V2.25h-.477v1.406h-1.18V2.25h-.477v1.406H17.9V2.25h-.477v1.406H16.27V2.25h-.477v1.406h-1.18V2.25zm1.268 6.066l-1.795 2.123h.875l.92-1.097.928 1.097.902-1.097.929 1.097.92-1.097.928 1.097.92-1.097.929 1.097.902-1.097.928 1.097.929-1.097.902 1.097.928-1.097.92 1.097h.876l-1.796-2.123-.928 1.026-.902-1.026-.929 1.026-.928-1.026-.902 1.026-.929-1.026-.92 1.026-.928-1.026-.92 1.026-.929-1.026-.902 1.026-.928-1.026zm10.499 4.59q-.301.302-.301 1.104 0 .82.3 1.121h-9.935q.301-.301.301-1.12 0-.803-.301-1.105zm-11.86-.618q-.434 0-.418.284-.016.334.418.334h1.088q.401.302.401 1.104 0 .82-.401 1.121h-1.07q-.452 0-.452.284 0 .335.434.335h13.783q.419 0 .419-.335 0-.284-.435-.284h-1.07q-.402-.301-.402-1.12 0-.803.401-1.105h1.087q.419 0 .419-.334 0-.284-.419-.284zM30.97 2.45q.148.087.174.348-.113.096-.174.287-.07-.191-.183-.287.026-.261.183-.348zm2.557 0q.157.087.183.348-.113.096-.183.287-.06-.191-.174-.287.026-.261.174-.348zm2.566 0q.148.096.174.357-.113.087-.174.278-.07-.191-.183-.278.026-.261.183-.357zm-4.575.461q-.165.217-.2.465-.035.248-.348.31-.322-.062-.357-.31-.034-.248-.2-.465.322 0 .4.244.07.234.157.234.078 0 .157-.234.078-.244.39-.244zm2.566 0q-.165.217-.2.465-.035.248-.357.31-.313-.062-.348-.31-.035-.248-.2-.465.313 0 .392.244.078.234.156.234.087 0 .157-.234.078-.244.4-.244zm2.557 0q-.165.226-.2.47-.035.243-.348.313-.322-.07-.357-.313-.034-.244-.2-.47.322 0 .4.252.07.226.157.226.078 0 .157-.226.078-.252.391-.252zM32.205 4.59l.152.5q.092.3-.152.44-.243-.14-.152-.44l.152-.5zm2.575 0q.052.2.148.5.095.3-.148.44-.244-.14-.153-.44l.153-.5zm1.583 3.061q.582 0 .582.253 0 .252-.574.26h-5.67q-.566 0-.566-.26 0-.253.565-.253zM30.97 2.25q-.252 0-.348.513-.081-.023-.153-.023-.143 0-.247.093-.104.078.009.165.182.096.226.413.043.318.356.413v3.419h-.104q-.965 0-.965.66 0 .67.956.67h5.671q.957 0 .966-.67 0-.66-.974-.66h-.113v-3.41q.313-.104.356-.417.044-.314.218-.418.121-.087.008-.157-.102-.096-.252-.096-.065 0-.139.018-.104-.504-.348-.504-.252 0-.357.504-.074-.018-.139-.018-.15 0-.252.096-.104.07.009.157.182.104.222.418.039.313.36.417h.01v3.41h-1.01V5.677q.296-.287.2-.587-.095-.3-.143-.496-.048-.196-.213-.196-.166 0-.218.196-.052.196-.143.496-.092.3.213.587v1.566l-.948-.01V3.825q.313-.095.356-.413.044-.317.226-.413.114-.087.01-.165-.105-.093-.248-.093-.072 0-.153.023-.096-.513-.348-.513-.243 0-.348.513-.08-.023-.152-.023-.143 0-.248.093-.104.078.018.165.173.096.217.413.043.318.357.413v3.41l-1.01.009V5.677q.296-.287.205-.587t-.143-.496q-.053-.196-.218-.196-.156 0-.213.196-.057.196-.148.496t.213.587v1.566h-.94V3.824q.323-.095.366-.413.044-.317.218-.413.121-.087.017-.165-.104-.093-.247-.093-.072 0-.153.023-.104-.513-.348-.513zm0 7.377q.148.087.174.348-.113.095-.174.287-.07-.192-.183-.287.026-.261.183-.348zm2.557 0q.157.087.183.348-.113.095-.183.287-.06-.192-.174-.287.026-.261.174-.348zm2.566 0q.148.095.174.356-.113.087-.174.279-.07-.192-.183-.279.026-.26.183-.356zm-4.575.46q-.165.218-.2.466-.035.248-.348.309-.322-.061-.357-.309-.034-.248-.2-.465.322 0 .4.243.07.235.157.235.078 0 .157-.235.078-.243.39-.243zm2.566 0q-.165.218-.2.466-.035.248-.357.309-.313-.061-.348-.309-.035-.248-.2-.465.313 0 .392.243.078.235.156.235.087 0 .157-.235.078-.243.4-.243zm2.557 0q-.165.227-.2.47-.035.244-.348.313-.322-.07-.357-.313-.034-.243-.2-.47.322 0 .4.253.07.226.157.226.078 0 .157-.226.078-.252.391-.252zm-4.436 1.68l.152.5q.092.3-.152.439-.243-.14-.152-.44l.152-.5zm2.575 0q.052.2.148.5.095.3-.148.439-.244-.14-.153-.44l.153-.5zm1.583 3.061q.582 0 .582.252 0 .253-.574.261h-5.67q-.566 0-.566-.26 0-.253.565-.253zM30.97 9.427q-.252 0-.348.513-.081-.023-.153-.023-.143 0-.247.092-.104.079.009.166.182.095.226.413.043.317.356.413v3.418h-.104q-.965 0-.965.661 0 .67.956.67h5.671q.957 0 .966-.67 0-.66-.974-.66h-.113v-3.41q.313-.105.356-.418.044-.313.218-.417.121-.087.008-.157-.102-.097-.252-.097-.065 0-.139.019-.104-.505-.348-.505-.252 0-.357.505-.074-.019-.139-.019-.15 0-.252.097-.104.07.009.157.182.104.222.417.039.313.36.418h.01v3.41h-1.01v-1.566q.296-.287.2-.588-.095-.3-.143-.495-.048-.196-.213-.196-.166 0-.218.196-.052.195-.143.495-.092.3.213.588v1.565l-.948-.008V11q.313-.096.356-.413.044-.318.226-.413.114-.087.01-.166-.105-.092-.248-.092-.072 0-.153.023-.096-.513-.348-.513-.243 0-.348.513-.08-.023-.152-.023-.143 0-.248.092-.104.079.018.166.173.095.217.413.043.317.357.413v3.41l-1.01.008v-1.565q.296-.287.205-.588-.091-.3-.143-.495-.053-.196-.218-.196-.156 0-.213.196-.057.195-.148.495t.213.588v1.565h-.94V11q.323-.096.366-.413.044-.318.218-.413.121-.087.017-.166-.104-.092-.247-.092-.072 0-.153.023-.104-.513-.348-.513zm12.898-3.089q.17 0 .354.078.41.173.41 2.758v2.474H39.99q1.793-2.46 2.46-3.718.667-1.257 1.014-1.473.192-.119.404-.119zm-.197-.528l-.075.001q-.66.014-1.487 1.612-.826 1.598-3.272 4.767h6.336l-.014-3.558q-.069-2.376-.486-2.605-.393-.217-1.002-.217z"/><path d="M8.22.375c-9.625 0-9.625 17.25 0 17.25m0-17.25h36.953M8.22 17.625h36.953M52.86.375v17.25M45.173.375c9.625 0 9.625 17.25 0 17.25" fill="none" stroke="#000"/></svg>