<svg xmlns="http://www.w3.org/2000/svg" width="72.374" height="18"><path d="M9.777 3.093q1.51.22 1.579 1.382v8.382q-.706-.843-2.536-1.184l.957-8.58zM9.35 2.25L8.22 12.272q2.52.289 3.136 1.8v1.678h.752V4.475q0-1.883-2.757-2.225zm18.417 1.883V5.99H14.085V4.133zM14.135 2.25v1.406h-.527v2.812h14.636V3.656h-.427V2.25h-.477v1.406h-1.18V2.25h-.477v1.406h-1.18V2.25h-.477v1.406h-1.155V2.25h-.502v1.406h-1.155V2.25h-.477v1.406h-1.18V2.25h-.477v1.406H17.9V2.25h-.477v1.406H16.27V2.25h-.477v1.406h-1.18V2.25zm1.268 6.066l-1.795 2.123h.875l.92-1.097.928 1.097.902-1.097.929 1.097.92-1.097.928 1.097.92-1.097.929 1.097.902-1.097.928 1.097.929-1.097.902 1.097.928-1.097.92 1.097h.876l-1.796-2.123-.928 1.026-.902-1.026-.929 1.026-.928-1.026-.902 1.026-.929-1.026-.92 1.026-.928-1.026-.92 1.026-.929-1.026-.902 1.026-.928-1.026zm10.499 4.59q-.301.302-.301 1.104 0 .82.3 1.121h-9.935q.301-.301.301-1.12 0-.803-.301-1.105zm-11.86-.618q-.434 0-.418.284-.016.334.418.334h1.088q.401.302.401 1.104 0 .82-.401 1.121h-1.07q-.452 0-.452.284 0 .335.434.335h13.783q.419 0 .419-.335 0-.284-.435-.284h-1.07q-.402-.301-.402-1.12 0-.803.401-1.105h1.087q.419 0 .419-.334 0-.284-.419-.284zm25.242-9.355v4.845h-3.25V2.933zm-3.918-.683v6.196h4.602V2.25zm9.384 9.218q.337 0 .337.346v2.657h-1.021l.33-2.799q.015-.204.353-.204zm-12.585.786l.943 1.95h-.597l-.346-.881-.346.88h-.157q0 .503.518.503h.896q.394.048.032.142-.27.07-.55.07-.16 0-.323-.023-.448-.063-1.14-.346l1.07-2.295zm0-1.384l-1.51 3.412q-.141-.079-.377-.267l-.534.66q.801.597 1.965.927.52.148 1.19.148.83 0 1.891-.226l10.8.126v-3.836q0-.77-.817-.77t-.865.44q-.33 2.987-.707 2.987l-8.615.188q-.55-.236-.928-.377l-1.493-3.412zm19.134-8.032q.618 0 .875.558h-1.735q.256-.558.86-.558zm-.347 1.312v1.222h-1.81q-.302-1.222-.106-1.222zm2.624 0q.196 0-.105 1.222h-1.81V4.15zm-.241 1.87q-.332 1.63-.588 3.372-.257 1.742-.204 3.13.053 1.387.294 2.519h-3.062q.242-1.132.294-2.52.053-1.387-.203-3.13-.257-1.741-.588-3.37zm-2.036-3.77q-1.131 0-1.644 1.146h-2.278q-.286 0-.286.377t.286.377h.407q.347 0 .377.166.634 2.746.845 3.922.407 2.247.407 3.77 0 1.51-.256 2.376-.256.868-.256.988-.015.378.194.378h4.422q.21 0 .195-.378 0-.12-.256-.988-.257-.867-.257-2.375 0-1.524.407-3.771.212-1.176.845-3.922.03-.166.347-.166h.437q.287 0 .287-.377t-.287-.377h-2.277q-.513-1.146-1.66-1.146zm9.274.45c.806 0 1.814.415 2.302.903.427.426.482.992.498 1.518h-5.576c.015-.526.071-1.092.498-1.518.488-.488 1.473-.902 2.278-.902zm0-.45c-.956 0-1.984.441-2.586 1.044-.618.618-.689 1.432-.689 2.04v.238h6.55v-.237c0-.61-.047-1.423-.665-2.04-.602-.604-1.654-1.045-2.61-1.045zm-1.73 6.594q.403 0 1.061.22 1.13.376 2.34 1.572 1.209 1.196.967 2.218-.242 1.021-.941 1.532-.577.422-1.393.422-.172 0-.354-.019-1.049-.107-1.801-1.653-.753-1.546-.7-2.755.054-1.21.377-1.425.157-.112.444-.112zm-.11-.933q-.554 0-.899.238-.725.511-.806 2.097-.08 1.586.914 3.441.995 1.855 2.42 2.03.272.033.53.033 1.09 0 1.916-.598 1.021-.74 1.276-2.097.256-1.357-1.088-2.876t-2.904-2.016q-.79-.252-1.359-.252z"/><path d="M8.22.375c-9.625 0-9.625 17.25 0 17.25m0-17.25h55.904M8.22 17.625h55.904M71.812.375v17.25M64.124.375c9.625 0 9.625 17.25 0 17.25" fill="none" stroke="#000"/></svg>