<svg xmlns="http://www.w3.org/2000/svg" width="67.477" height="18"><path d="M9.777 3.093q1.51.22 1.579 1.382v8.382q-.706-.843-2.536-1.184l.957-8.58zM9.35 2.25L8.22 12.272q2.52.289 3.136 1.8v1.678h.752V4.475q0-1.883-2.757-2.225zm18.417 1.883V5.99H14.085V4.133zM14.135 2.25v1.406h-.527v2.812h14.636V3.656h-.427V2.25h-.477v1.406h-1.18V2.25h-.477v1.406h-1.18V2.25h-.477v1.406h-1.155V2.25h-.502v1.406h-1.155V2.25h-.477v1.406h-1.18V2.25h-.477v1.406H17.9V2.25h-.477v1.406H16.27V2.25h-.477v1.406h-1.18V2.25zm1.268 6.066l-1.795 2.123h.875l.92-1.097.928 1.097.902-1.097.929 1.097.92-1.097.928 1.097.92-1.097.929 1.097.902-1.097.928 1.097.929-1.097.902 1.097.928-1.097.92 1.097h.876l-1.796-2.123-.928 1.026-.902-1.026-.929 1.026-.928-1.026-.902 1.026-.929-1.026-.92 1.026-.928-1.026-.92 1.026-.929-1.026-.902 1.026-.928-1.026zm10.499 4.59q-.301.302-.301 1.104 0 .82.3 1.121h-9.935q.301-.301.301-1.12 0-.803-.301-1.105zm-11.86-.618q-.434 0-.418.284-.016.334.418.334h1.088q.401.302.401 1.104 0 .82-.401 1.121h-1.07q-.452 0-.452.284 0 .335.434.335h13.783q.419 0 .419-.335 0-.284-.435-.284h-1.07q-.402-.301-.402-1.12 0-.803.401-1.105h1.087q.419 0 .419-.334 0-.284-.419-.284zM31.3 3.093q1.511.22 1.58 1.382v8.382q-.707-.843-2.537-1.184l.957-8.58zm-.425-.843l-1.131 10.022q2.52.289 3.135 1.8v1.678h.752V4.475q0-1.883-2.756-2.225zm17.639 1.78v1.756H35.582V4.03zM35.629 2.25v1.329h-.498v2.657h13.834V3.58h-.404V2.25h-.45v1.329h-1.116V2.25h-.45v1.329h-1.116V2.25h-.45v1.329h-1.092V2.25h-.475v1.329h-1.091V2.25h-.451v1.329h-1.115V2.25h-.451v1.329h-1.115V2.25h-.451v1.329h-1.092V2.25h-.45v1.329H36.08V2.25zm1.199 11.494L35.13 15.75h.828l.869-1.036.878 1.036.852-1.036.878 1.036.87-1.036.877 1.036.87-1.036.877 1.036.852-1.036.878 1.036.878-1.036.852 1.036.878-1.036.87 1.036h.827l-1.697-2.006-.878.97-.852-.97-.878.97-.878-.97-.852.97-.878-.97-.87.97-.877-.97-.87.97-.877-.97-.852.97-.878-.97zm14.495-8.969q.22 0 .46.222.386.357.612.758.226.401.226.678-.262-.014-.67-.233-.409-.219-.766-.613-.357-.393-.124-.729.128-.083.262-.083zm6.14 1.673q.305.175.48.51t.205.707q.029.372-.132.751-.335-.248-.503-.583-.167-.335-.182-.707-.015-.372.131-.678zM54.02 8.183q.744 1.137 1.108 1.895.365.759.27 1.852-.095 1.094-1.378 1.21-1.283-.102-1.378-1.203-.094-1.1.27-1.859.365-.758 1.108-1.895zm-2.736-3.921q-.275 0-.56.261-.334.365-.24.714.095.35.35.657.255.306.605.554.35.248 1.006.495.57.16.992.773 0 .263-.693 1.32-.692 1.057-.794 2.26-.102 1.203.517 1.83.606.612 1.51.612h.087q.905 0 1.504-.612.612-.627.517-1.83-.094-1.203-.787-2.26-.693-1.057-.736-1.582.743-1.283 1.61-1.706.219-.106.364-.106.433 0 .22.944-.284 1.261 1.013 2.617.365.642.657 1.838l.073.568q.145.064.275.064.26 0 .454-.253l-.234-.54q-.35-1.18-.364-1.91.204-1.516-.022-2.1-.226-.583-.89-1.29-.49-.524-1.13-.524-.224 0-.466.065-.933.248-2.1 2.07-.685-.408-.89-.947-.233-.657-.48-1.007-.248-.35-.554-.605-.307-.255-.657-.35-.077-.02-.155-.02z"/><path d="M8.22.375c-9.625 0-9.625 17.25 0 17.25m0-17.25h51.007M8.22 17.625h51.007M66.914.375v17.25M59.227.375c9.625 0 9.625 17.25 0 17.25" fill="none" stroke="#000"/></svg>