<svg xmlns="http://www.w3.org/2000/svg" width="34.909" height="18"><path d="M11.386 8.203c-.51.04-.793.296-.847.767.067.51.35.78.847.806.498-.026.76-.295.787-.806-.04-.47-.303-.726-.787-.767zm.06-1.694c.364 0 .7.068 1.01.202a2.659 2.659 0 0 1 1.371 1.361c.134.303.201.622.201.958 0 .35-.067.676-.202.978a2.567 2.567 0 0 1-2.38 1.523c-.362 0-.702-.064-1.018-.192a2.426 2.426 0 0 1-.816-.534 2.621 2.621 0 0 1-.545-.797 2.38 2.38 0 0 1-.202-.978c0-.336.068-.655.202-.958.134-.302.316-.571.545-.806.228-.236.5-.42.816-.555a2.574 2.574 0 0 1 1.019-.202zm-.04-.685c-.443 0-.86.084-1.25.252-.39.168-.726.396-1.008.685a3.36 3.36 0 0 0-.676 1.009 3.053 3.053 0 0 0-.252 1.24c0 .444.084.857.252 1.24.168.384.393.716.676.999a3.2 3.2 0 0 0 2.258.927c.444 0 .857-.084 1.24-.252a3.36 3.36 0 0 0 1.009-.675c.289-.283.518-.615.686-.999.168-.383.252-.796.252-1.24 0-.444-.084-.857-.252-1.24a3.268 3.268 0 0 0-1.694-1.694 3.053 3.053 0 0 0-1.24-.252zm8.74-3.574c-.09 0-.095.283-.224.701-.146.476-.254 1.472-.591 1.665a.298.298 0 0 1-.153.039c-.1 0-.202-.038-.313-.038a.409.409 0 0 0-.127.02c-.158.05-.242.297-.408.326-.692.12-1.637.075-2.166.123-.34.03.567.698 1.473.698h.039c.188-.005.387-.013.584-.013.33 0 .658.024.928.135.264.109.575.425.572.735l-.11 9.109h1.019l-.052-10.289c-.002-.276.795-.464.9-.702.181-.415.088-2.247-.205-2.493a.016.016 0 0 0-.01-.004c-.132 0-.378 1.92-.766 2.333-.04.043-.118.062-.185.062-.073 0-.133-.022-.121-.062.246-.838.345-2.061-.041-2.329a.077.077 0 0 0-.043-.016zm5.046.585c.53 0 .794.21.794.629 0 .42-.26.81-.78 1.169-.12.04-.134.45-.044 1.228l.704 5.005c-.72.21-1.458.589-2.218 1.138V4.348c.26-1.009.775-1.513 1.544-1.513zm-.068-.585c-.583 0-1.028.162-1.333.487-.315.335-.537.847-.667 1.536L23.11 15.75h.794c-.06-1.718.057-2.438.421-2.947.365-.51 1.286-1.064 2.335-1.234-.659-4.125-1.103-6.437-.973-6.577.55-.37.824-.864.824-1.483 0-.84-.434-1.259-1.302-1.259a2.744 2.744 0 0 0-.084 0z"/><path d="M8.22.375c-9.625 0-9.625 17.25 0 17.25m0-17.25h18.44M8.22 17.625h18.44M34.347.375v17.25M26.66.375c9.624 0 9.624 17.25 0 17.25" fill="none" stroke="#000"/></svg>