<svg xmlns="http://www.w3.org/2000/svg" width="77.306" height="18"><path d="M9.777 3.093q1.51.22 1.579 1.382v8.382q-.706-.843-2.536-1.184l.957-8.58zM9.35 2.25L8.22 12.272q2.52.289 3.136 1.8v1.678h.752V4.475q0-1.883-2.757-2.225zm15.587 1.507v1.486H13.99V3.757zM14.03 2.25v1.125h-.421v2.25H25.32v-2.25h-.341V2.25h-.382v1.125h-.944V2.25h-.382v1.125h-.944V2.25h-.382v1.125h-.924V2.25h-.402v1.125h-.924V2.25h-.381v1.125h-.944V2.25h-.382v1.125h-.944V2.25h-.382v1.125h-.924V2.25h-.382v1.125h-.944V2.25zm1.014 4.645l-1.436 1.698h.7l.736-.877.743.877.722-.877.743.877.736-.877.743.877.736-.877.743.877.722-.877.743.877.743-.877.722.877.743-.877.736.877h.7l-1.436-1.698-.743.82-.722-.82-.743.82-.743-.82-.722.82-.743-.82-.736.82-.743-.82-.736.82-.743-.82-.722.82-.743-.82zm.213 3.787l3.08.172a8.506 8.506 0 0 1-.082 1.998c-1.149-.635-2.149-1.358-2.998-2.17zm3.342-.819c-.172 0-.349.111-.53.333l-3.33-.172c-.786.203-.946.519-.481.946.09-.02.171-.03.242-.03.172 0 .285.06.336.179.073.168.269.387.587.657.319.27 1.183.828 2.592 1.673.166.418.35.626.551.626.094 0 .192-.045.294-.137 2.003.864 3.938 1.468 5.805 1.812l.263-.207-.643-.683c-1.37-.119-3.155-.652-5.353-1.599a5.686 5.686 0 0 1-.038-2.33l3.727.25c.553-.139.594-.426.123-.86l-3.669-.153c-.154-.203-.312-.305-.476-.305zm9.677-6.867q.322 0 .849.176.903.301 1.871 1.258.968.957.774 1.774-.193.818-.753 1.226-.461.338-1.114.338-.138 0-.283-.015-.84-.086-1.441-1.323-.602-1.236-.56-2.204.044-.968.302-1.14.125-.09.355-.09zm-.088-.746q-.443 0-.719.19-.58.41-.645 1.678-.065 1.27.731 2.753.796 1.484 1.936 1.624.217.026.424.026.872 0 1.533-.478.817-.591 1.021-1.677.204-1.086-.87-2.301-1.076-1.215-2.323-1.613-.633-.202-1.088-.202zm1.012 8.01v5.49h.92v-5.49zm10.796-7.34v12.27h-5.357v-.592h2.71V7.326h1.666V2.92zm-1.558-.67v4.531h-1.666v7.334h-2.771v1.635h6.57V2.25zm6.634 3.636q.247 0 .247.187-.004.194-.25.194-.247 0-.737-.194.494-.187.74-.187zm-1.307.971q.288.156.435 1.01.07.668-.435.668-.513 0-.443-.668.148-.854.443-1.01zM45.57 2.25q-.479 0-.903.183-.512.221-.75.738-.236.517-.306 1.55v1.056q-.374-.11-.947-.11-.273 0-.591.025v.357q.257-.027.482-.027.66 0 1.048.237h-.008q-.35.598-.485.971-.136.373-.167.754-.008.473.175.718.182.245.648.245.459 0 .641-.245.183-.245.175-.718-.031-.381-.167-.754t-.385-.886q.65.248 1.05.248.578 0 .628-.52-.05-.516-.625-.516-.402 0-1.06.252V4.752q.046-1.593.687-1.919.523-.266 1.014-.266.112 0 .221.014.595.073.948.648.354.575.404 1.795.05 1.22.066 2.4.171 1.134.77 1.841l.271-.24q-.575-.738-.7-1.585-.038-.637-.053-1.896-.016-1.258-.241-1.965-.226-.707-.633-.99-.408-.284-1.003-.33-.103-.009-.204-.009zm.599 8.121q.152 0 .191.18.061.28-.437.455-.105-.507.123-.612.068-.023.123-.023zm1.336 1.92v2.166h-.42v-1.686h-3.67v1.686h-.454V12.29zm-.69.742v2.446h-3.137v-2.446zm-.681-2.997q-.187 0-.377.14-.367.34-.13.97l-.49.873h-2.438v2.709h.717v1.022h3.67v-1.022h.69v-2.709h-2.194l.385-.69q.655-.13.751-.629.026-.402-.306-.585-.138-.079-.278-.079zm5.326-6.943q1.51.22 1.579 1.382v8.382q-.706-.843-2.536-1.184l.957-8.58zm-.426-.843l-1.13 10.022q2.52.289 3.135 1.8v1.678h.752V4.475q0-1.883-2.757-2.225zm11.139.748q2.425 0 5.142 1.172-2.717 1.139-5.142 1.139-2.408 0-5.141-1.139 2.733-1.172 5.141-1.172zm0-.748q-2.994 0-6.882 1.904 3.888 1.887 6.882 1.887 2.994 0 6.883-1.887-3.873-1.904-6.883-1.904zM68.3 9.044c.23.327.286.73.305 1.12-.009.183.005.382-.07.554-.216-.214-.197-.709-.202-.986 0-.273-.009-.497-.034-.688zm-12.283-.308l11.209.013c-1.638 1.552-3.28 2.31-5.754 2.31-2.485 0-3.989-.74-5.455-2.323zm-.503-.45a.225.225 0 0 0-.171.371c1.628 1.9 3.356 2.853 6.129 2.853 2.698 0 4.541-.915 6.319-2.682.061.17.092.436.092.904.01.52.007 1.383.69 1.443.48-.099.48-.612.483-1.012 0-.49-.12-.936-.321-1.275-.2-.338-.498-.59-.857-.59l-12.364-.013zm1.465 5.468l-1.688 1.996h.823l.865-1.031.873 1.031.849-1.031.873 1.031.865-1.031.873 1.031.865-1.031.874 1.031.848-1.031.873 1.031.874-1.031.848 1.031.873-1.031.865 1.031h.824l-1.689-1.996-.873.965-.848-.965-.874.965-.873-.965-.848.965-.874-.965-.865.965-.873-.965-.865.965-.873-.965-.849.965-.873-.965z"/><path d="M8.22.375c-9.625 0-9.625 17.25 0 17.25m0-17.25h60.836M8.22 17.625h60.836M76.743.375v17.25M69.056.375c9.625 0 9.625 17.25 0 17.25" fill="none" stroke="#000"/></svg>