<svg xmlns="http://www.w3.org/2000/svg" width="39.579" height="18"><path d="M3.01.474c.693 0 1.247.2 1.634.479.006.053.02.107.009.16-.05.248-.195.477-.396.63-.316.207-.697.267-1.057.356-.09.01-.019.031.031.04.23.04.707.099.971.099l.052-.001c.278-.032.54-.148.766-.311.079-.067.147-.15.205-.236.147.346.227.713.26.917.018.11.096.2.202.233 1.139.349 2.038 1.91 2.88 2.949 1.729 2.137 3.199 4.526 4.892 6.76-.937-.456-1.87-.916-2.81-1.374-1.92-1.01-3.92-1.816-5.604-3.09l-.008-.008c-.97-.808-1.963-1.66-2.339-2.793-.148-.92 1.757-2.577 1.542-2.646a.207.207 0 0 0-.064-.01c-.458 0-1.753 1.128-2.019 2.202-.003-.014-.01-.03-.014-.045-.073-.356-.154-1.256.068-1.98a.29.29 0 0 0 .01-.103 1.968 1.968 0 0 0-.123-.634c-.063-.17-.139-.344-.26-.765-.031-.108-.142-.328-.208-.345.186-.138.375-.28.645-.375a.434.434 0 0 0-.132.314c0 .23.164.415.365.415.2 0 .364-.186.364-.415V.894a.411.411 0 0 0-.255-.39c.053-.007.096-.019.154-.022.081-.006.16-.008.238-.008zm.67 7.763c.065.065.135.124.202.187.214.78.412 1.64.692 2.305.483 1.145 1.216 2.141 1.84 3.154a1.814 1.814 0 0 0-.385.27 6.831 6.831 0 0 0-.199.193 2.61 2.61 0 0 0-1.186-.897c.045-.723-.108-1.712-.34-2.787a34.903 34.903 0 0 0-.624-2.425zm1.006.908c1.149.945 2.428 1.738 3.676 2.54-.018.91-.018 1.778.084 2.675a3.411 3.411 0 0 0-1.437-.736c-.02 0-.037.012-.057.012-.649-1.063-1.383-2.06-1.837-3.134-.156-.37-.293-.85-.429-1.357zm.407 5.254a2.5 2.5 0 0 1 .44.541.3.3 0 0 0 .257.14.29.29 0 0 0 .17-.053c.215-.156.347-.324.476-.446.047-.045.097-.08.148-.117l.149 2.722c-.213-.014-.435-.035-.637-.035-.264 0-.495.036-.633.172-.169-.134-.497-.164-.89-.164-.102 0-.207.002-.316.004l.836-2.764zM6.25 9.574c1.354.787 2.784 1.414 4.135 2.125a.244.244 0 0 0 .006.003c1.295.631 2.586 1.28 3.894 1.904.984 1.189 2.052 2.295 3.078 3.42l-2.15.362-4.267-4.635a.288.288 0 0 0-.037-.036c-1.499-1.137-3.152-2.082-4.66-3.143zM3.076 0c-.135 0-.273.005-.411.013C1.58.083.792.54.523 1.157c-.04.093-.146.314-.007.314a2.35 2.35 0 0 1 .341-.028c.418 0 .38.172.47.194.09.282.29.846.303 1.068-.244.86-.153 1.763-.064 2.198.15.732.63 1.584 1.261 2.38a.285.285 0 0 0 0 .166 35.3 35.3 0 0 1 .903 3.336c.251 1.168.393 2.277.317 2.823a.294.294 0 0 0 .221.328c.045.011.084.031.127.045l-.928 3.079a2.847 2.847 0 0 0-.593-.055c-.381 0-.756.05-1.064.05-.125 0-.24-.008-.34-.032a.546.546 0 0 0-.125-.012c-.436 0-1.428.306-1.34.879.15-.128.257-.159.375-.159.11 0 .23.027.405.027h.027c.254-.004.697-.083 1.053-.083.18 0 .338.02.438.08.236-.01.45-.013.649-.013.85 0 1.447.07 2.5.075a89.565 89.565 0 0 0 2.974-.079c.45.003.697.054.922.054h.04c.134-.004.265-.057.48-.057.123 0 .273.017.468.07-.25-.341-.877-.685-1.33-.685a.591.591 0 0 0-.302.071 5.081 5.081 0 0 0-.508-.022c-.22 0-.448.01-.678.02l-.157-2.83c.487.203.857.517 1.281 1.021a.295.295 0 0 0 .513-.246c-.192-1.039-.213-2.019-.202-3.06.54.354 1.072.713 1.576 1.094l4.36 4.738a.29.29 0 0 0 .263.09c.95-.159 1.9-.315 2.849-.474a.294.294 0 0 0 .23-.193.298.298 0 0 0-.06-.297c-.741-.83-1.508-1.631-2.25-2.445 1.269.78 2.875 1.755 3.08 1.755.022 0 .027-.013.012-.04-.094-.163-.9-.755-1.775-1.373.14.058.276.12.415.177l.017.01c.103.035.16.059.27.062a.286.286 0 0 0 .108-.016.317.317 0 0 0 .188-.152.32.32 0 0 0 .023-.238c-.017-.05-.038-.077-.054-.098-.061-.085-.103-.109-.162-.154a4.553 4.553 0 0 0-.205-.149c-.153-.105-.336-.223-.493-.328a4.992 4.992 0 0 1-.328-.233.307.307 0 0 0-.028-.025l-3.892-2.736c-.008-.006-.02-.001-.028-.006-1.333-1.869-2.588-3.825-4.046-5.627-.744-.92-1.598-2.528-2.985-3.064-.067-.396-.218-1.127-.755-1.649C4.827.26 4.168.056 3.427.011A5.728 5.728 0 0 0 3.076 0zm35.956.547V4.86H27.754V.547zM23.815 0v.547h3.392V1.62h-4.354v.547h4.354V3.24h-5.265v.546h5.265V4.86H21.02v.546h18.558V0zm1.248 13.98c.826 0 1.681.237 2.564.712-.488.177-1.342.265-2.564.265-.92 0-1.612-.135-2.077-.406a3.984 3.984 0 0 1 2.077-.572zm11.845.758c.402 0 .809.009 1.2.106.224.066.475.14.612.344.072.083.032.207-.035.28-.263.26-.645.343-1 .383a9.412 9.412 0 0 1-.778.03c-.932 0-1.863-.123-2.783-.259-.734-.124-1.469-.25-2.21-.323 1.61-.17 3.203-.52 4.826-.56h.168zm-11.845.91c1.222 0 2.076.089 2.564.266-.883.475-1.738.713-2.564.713-.745 0-1.438-.19-2.077-.572.465-.27 1.157-.406 2.077-.406zm0-3.026c-.442.053-.663.285-.663.697a4.15 4.15 0 0 0-.909.247c-.14-.254-.327-.38-.563-.38a.925.925 0 0 0-.346.076c-.36.262-.442.573-.247.932-.232.113-.67.483-1.314 1.112.651.628 1.089 1.002 1.314 1.122-.195.36-.113.666.247.92a.938.938 0 0 0 .35.079c.234 0 .42-.124.559-.37.284.105.591.183.92.236 0 .419.218.655.652.707.434-.052.65-.288.65-.707l.697-.124c.12.288.321.432.602.432.084 0 .175-.013.273-.039.382-.217.494-.516.337-.898a11.34 11.34 0 0 1 1.841-.83c1.026 0 2.392.125 4.098.376 1.707.25 2.94.375 3.7.375.759 0 1.335-.13 1.728-.393.393-.262.59-.557.59-.886 0-.322-.197-.614-.59-.876-.393-.262-.969-.393-1.729-.393-.76 0-1.992.126-3.699.376-1.706.251-3.072.376-4.098.376a10.79 10.79 0 0 1-1.84-.83h-.012c.165-.39.056-.693-.326-.91a1.065 1.065 0 0 0-.27-.038c-.282 0-.484.147-.605.442l-.696-.123c0-.42-.217-.655-.651-.708z"/></svg>