<svg xmlns="http://www.w3.org/2000/svg" width="66.777" height="18"><path d="M3.73.474c.693 0 1.247.2 1.634.479.006.053.02.107.009.16-.05.248-.195.477-.396.63-.316.207-.697.267-1.057.356-.09.01-.019.031.031.04.23.04.707.099.971.099l.052-.001c.278-.032.54-.148.766-.311.079-.067.147-.15.205-.236.147.346.227.713.26.917.018.11.096.2.202.233 1.139.349 2.038 1.91 2.88 2.949 1.729 2.137 3.199 4.526 4.892 6.76-.937-.456-1.87-.916-2.81-1.374-1.92-1.01-3.92-1.816-5.604-3.09l-.008-.008c-.97-.808-1.963-1.66-2.339-2.793-.148-.92 1.757-2.577 1.542-2.646a.207.207 0 0 0-.064-.01c-.458 0-1.753 1.128-2.019 2.202-.003-.014-.01-.03-.014-.045-.073-.356-.154-1.256.068-1.98a.29.29 0 0 0 .01-.103 1.968 1.968 0 0 0-.123-.634c-.063-.17-.139-.344-.26-.765-.031-.108-.142-.328-.208-.345.186-.138.375-.28.645-.375a.434.434 0 0 0-.132.314c0 .23.164.415.365.415.2 0 .364-.186.364-.415V.894a.411.411 0 0 0-.255-.39c.053-.007.096-.019.154-.022.081-.006.16-.008.238-.008zm.67 7.763c.065.065.135.124.202.187.214.78.412 1.64.692 2.305.483 1.145 1.216 2.141 1.84 3.154a1.814 1.814 0 0 0-.385.27 6.831 6.831 0 0 0-.199.193 2.61 2.61 0 0 0-1.186-.897c.045-.723-.108-1.712-.34-2.787A34.903 34.903 0 0 0 4.4 8.237zm1.006.908c1.149.945 2.428 1.738 3.676 2.54-.018.91-.018 1.778.084 2.675a3.411 3.411 0 0 0-1.437-.736c-.02 0-.037.012-.057.012-.649-1.063-1.383-2.06-1.837-3.134-.156-.37-.293-.85-.429-1.357zm.407 5.254a2.5 2.5 0 0 1 .44.541.3.3 0 0 0 .257.14.29.29 0 0 0 .17-.053c.215-.156.347-.324.476-.446.047-.045.097-.08.148-.117l.149 2.722c-.213-.014-.435-.035-.637-.035-.264 0-.495.036-.633.172-.169-.134-.497-.164-.89-.164-.102 0-.207.002-.316.004l.836-2.764zM6.97 9.574c1.354.787 2.784 1.414 4.135 2.125a.244.244 0 0 0 .006.003c1.295.631 2.586 1.28 3.894 1.904.984 1.189 2.052 2.295 3.078 3.42l-2.15.362-4.267-4.635a.288.288 0 0 0-.037-.036c-1.499-1.137-3.152-2.082-4.66-3.143zM3.796 0c-.135 0-.273.005-.411.013C2.3.083 1.512.54 1.243 1.157c-.04.093-.146.314-.007.314a2.35 2.35 0 0 1 .341-.028c.418 0 .38.172.47.194.09.282.29.846.303 1.068-.244.86-.153 1.763-.064 2.198.15.732.63 1.584 1.261 2.38a.285.285 0 0 0 0 .166 35.3 35.3 0 0 1 .903 3.336c.251 1.168.393 2.277.317 2.823a.294.294 0 0 0 .221.328c.045.011.084.031.127.045l-.928 3.079a2.847 2.847 0 0 0-.593-.055c-.381 0-.756.05-1.064.05-.125 0-.24-.008-.34-.032a.546.546 0 0 0-.125-.012c-.436 0-1.428.306-1.34.879.15-.128.257-.159.375-.159.11 0 .23.027.405.027h.027c.254-.004.697-.083 1.053-.083.18 0 .338.02.438.08.236-.01.45-.013.649-.013.85 0 1.447.07 2.5.075a89.565 89.565 0 0 0 2.974-.079c.45.003.697.054.922.054h.04c.134-.004.265-.057.48-.057.123 0 .273.017.468.07-.25-.341-.877-.685-1.33-.685a.591.591 0 0 0-.302.071 5.081 5.081 0 0 0-.508-.022c-.22 0-.448.01-.678.02l-.157-2.83c.487.203.857.517 1.281 1.021a.295.295 0 0 0 .513-.246c-.192-1.039-.213-2.019-.202-3.06.54.354 1.072.713 1.576 1.094l4.36 4.738a.29.29 0 0 0 .263.09c.95-.159 1.9-.315 2.849-.474a.294.294 0 0 0 .23-.193.298.298 0 0 0-.06-.297c-.741-.83-1.508-1.631-2.25-2.445 1.269.78 2.875 1.755 3.08 1.755.022 0 .027-.013.012-.04-.094-.163-.9-.755-1.775-1.373.14.058.276.12.415.177l.017.01c.103.035.16.059.27.062a.286.286 0 0 0 .108-.016.317.317 0 0 0 .188-.152.32.32 0 0 0 .023-.238c-.017-.05-.038-.077-.054-.098-.061-.085-.103-.109-.162-.154a4.553 4.553 0 0 0-.205-.149c-.153-.105-.336-.223-.493-.328a4.992 4.992 0 0 1-.328-.233.307.307 0 0 0-.028-.025l-3.892-2.736c-.008-.006-.02-.001-.028-.006-1.333-1.869-2.588-3.825-4.046-5.627C9 4.496 8.145 2.888 6.758 2.352 6.69 1.956 6.54 1.225 6.003.703 5.547.26 4.888.056 4.147.011A5.728 5.728 0 0 0 3.796 0zm24.016 2.575c1.186 0 2.193.886 2.548 1.763l-1.08.159c-.271-.537-.816-.838-1.54-.838h-.017c-.699.004-1.246.36-1.441.838l-1.064-.242c.46-.985 1.527-1.674 2.58-1.68h.014zm-.019 1.952c.436 0 .658.274.658.799 0 .475-.222.985-.658 1.55-.436-.565-.657-1.075-.657-1.55 0-.525.221-.799.657-.799zm0 3.71c.359.527.475 1.398 0 2.277-.308-.683-.41-1.522 0-2.277zm0-5.987c-.664 0-1.271.2-1.831.587-.56.386-.973 1.003-1.221 1.855l1.432.094c-.03.158-.047.332-.047.54 0 .644.357 1.37 1.08 2.183-.287.555-.504 1.04-.493 1.69-.024.983.237 1.31.564 2.231l-1.902 4.32h.986l1.432-3.569 1.409 3.569h1.01l-1.902-4.32c.327-.921.55-1.222.54-2.23.01-.651-.196-1.136-.493-1.69.733-.813 1.103-1.54 1.103-2.184 0-.208-.03-.382-.07-.54l1.432-.094c-.248-.852-.633-1.469-1.198-1.855-.564-.386-1.177-.587-1.83-.587zm7.803 5.54c.806 0 1.814.414 2.302.902.427.426.483.992.498 1.518H32.82c.016-.526.072-1.092.498-1.518.488-.488 1.473-.902 2.278-.902zm0-.451c-.955 0-1.983.441-2.586 1.044-.618.618-.688 1.432-.688 2.04v.238h6.549v-.237c0-.61-.046-1.423-.664-2.04-.603-.604-1.655-1.045-2.61-1.045zm5.932-3.531l2.736 2.406q-.577.89-1.533 1.797-.906-2.143-1.203-4.203zM40.8 2.62q-.528 0-.41.725.512.248.43.56-.083.314.065 1.04.148.725 1.187 3.444-.316 1.074.366 1.074l.062-.002q1.847 3.395 4.072 5.917h.395l-.099-1.104q-1.78-1.665-3.807-5.39.593-1.253 1.665-2.193l3.28 2.95q.248.112.416.112.458 0 .326-.82L45.45 6.116q.013-.75-.625-.75-.148 0-.331.04L41.528 2.82q-.453-.198-.728-.198z"/><path d="M22.116.375v17.25m0-17.25h2.625m-2.625 17.25h2.625m0-17.25h24.036m-24.036 17.25h24.036m0-17.25h17.625m-17.625 17.25h17.625M50.54.375v17.25M54.064.375v17.25M55.827.375v17.25M57.59 2.1h8.812M57.59 5.55h8.812M57.59 2.1v3.45m1.762-1.725h7.05m-8.812 3.45h8.812m-8.812 3.45h8.812m-8.812-3.45v3.45M59.352 9h7.05m-8.812 3.45h8.812M57.59 15.9h8.812m-8.812-3.45v3.45m1.762-1.725h7.05" fill="none" stroke="#000"/></svg>