<svg xmlns="http://www.w3.org/2000/svg" width="62.345" height="18"><path d="M9.777 3.093q1.51.22 1.579 1.382v8.382q-.706-.843-2.536-1.184l.957-8.58zM9.35 2.25L8.22 12.272q2.52.289 3.136 1.8v1.678h.752V4.475q0-1.883-2.757-2.225zm18.417 1.883V5.99H14.085V4.133zM14.135 2.25v1.406h-.527v2.812h14.636V3.656h-.427V2.25h-.477v1.406h-1.18V2.25h-.477v1.406h-1.18V2.25h-.477v1.406h-1.155V2.25h-.502v1.406h-1.155V2.25h-.477v1.406h-1.18V2.25h-.477v1.406H17.9V2.25h-.477v1.406H16.27V2.25h-.477v1.406h-1.18V2.25zm1.268 6.066l-1.795 2.123h.875l.92-1.097.928 1.097.902-1.097.929 1.097.92-1.097.928 1.097.92-1.097.929 1.097.902-1.097.928 1.097.929-1.097.902 1.097.928-1.097.92 1.097h.876l-1.796-2.123-.928 1.026-.902-1.026-.929 1.026-.928-1.026-.902 1.026-.929-1.026-.92 1.026-.928-1.026-.92 1.026-.929-1.026-.902 1.026-.928-1.026zm10.499 4.59q-.301.302-.301 1.104 0 .82.3 1.121h-9.935q.301-.301.301-1.12 0-.803-.301-1.105zm-11.86-.618q-.434 0-.418.284-.016.334.418.334h1.088q.401.302.401 1.104 0 .82-.401 1.121h-1.07q-.452 0-.452.284 0 .335.434.335h13.783q.419 0 .419-.335 0-.284-.435-.284h-1.07q-.402-.301-.402-1.12 0-.803.401-1.105h1.087q.419 0 .419-.334 0-.284-.419-.284zm19.62-5.703v4.845h-3.25V6.585zm-3.918-.683v6.196h4.601V5.902zm9.838-2.988q2.725.331 0 5.047-2.724-4.716 0-5.047zm0-.664q-3.772.262-.524 6.06h-3.213v.821h3.179v6.619h1.082V9.096h3.214V8.31h-3.214q3.249-5.815-.524-6.06zm6.794.843q1.511.22 1.58 1.382v8.382q-.707-.843-2.536-1.184l.956-8.58zm-.425-.843L44.82 12.272q2.52.289 3.136 1.8v1.678h.751V4.475q0-1.883-2.756-2.225zm5.813.843q1.51.22 1.58 1.382v8.382q-.707-.843-2.537-1.184l.957-8.58zm-.425-.843l-1.132 10.022q2.521.289 3.136 1.8v1.678h.752V4.475q0-1.883-2.756-2.225z"/><path d="M8.22.375c-9.625 0-9.625 17.25 0 17.25m0-17.25h45.875M8.22 17.625h45.875M61.782.375v17.25M54.095.375c9.625 0 9.625 17.25 0 17.25" fill="none" stroke="#000"/></svg>