<svg xmlns="http://www.w3.org/2000/svg" width="61.317" height="18"><path d="M3.73.474c.693 0 1.247.2 1.634.479.006.053.02.107.009.16-.05.248-.195.477-.396.63-.316.207-.697.267-1.057.356-.09.01-.019.031.031.04.23.04.707.099.971.099l.052-.001c.278-.032.54-.148.766-.311.079-.067.147-.15.205-.236.147.346.227.713.26.917.018.11.096.2.202.233 1.139.349 2.038 1.91 2.88 2.949 1.729 2.137 3.199 4.526 4.892 6.76-.937-.456-1.87-.916-2.81-1.374-1.92-1.01-3.92-1.816-5.604-3.09l-.008-.008c-.97-.808-1.963-1.66-2.339-2.793-.148-.92 1.757-2.577 1.542-2.646a.207.207 0 0 0-.064-.01c-.458 0-1.753 1.128-2.019 2.202-.003-.014-.01-.03-.014-.045-.073-.356-.154-1.256.068-1.98a.29.29 0 0 0 .01-.103 1.968 1.968 0 0 0-.123-.634c-.063-.17-.139-.344-.26-.765-.031-.108-.142-.328-.208-.345.186-.138.375-.28.645-.375a.434.434 0 0 0-.132.314c0 .23.164.415.365.415.2 0 .364-.186.364-.415V.894a.411.411 0 0 0-.255-.39c.053-.007.096-.019.154-.022.081-.006.16-.008.238-.008zm.67 7.763c.065.065.135.124.202.187.214.78.412 1.64.692 2.305.483 1.145 1.216 2.141 1.84 3.154a1.814 1.814 0 0 0-.385.27 6.831 6.831 0 0 0-.199.193 2.61 2.61 0 0 0-1.186-.897c.045-.723-.108-1.712-.34-2.787A34.903 34.903 0 0 0 4.4 8.237zm1.006.908c1.149.945 2.428 1.738 3.676 2.54-.018.91-.018 1.778.084 2.675a3.411 3.411 0 0 0-1.437-.736c-.02 0-.037.012-.057.012-.649-1.063-1.383-2.06-1.837-3.134-.156-.37-.293-.85-.429-1.357zm.407 5.254a2.5 2.5 0 0 1 .44.541.3.3 0 0 0 .257.14.29.29 0 0 0 .17-.053c.215-.156.347-.324.476-.446.047-.045.097-.08.148-.117l.149 2.722c-.213-.014-.435-.035-.637-.035-.264 0-.495.036-.633.172-.169-.134-.497-.164-.89-.164-.102 0-.207.002-.316.004l.836-2.764zM6.97 9.574c1.354.787 2.784 1.414 4.135 2.125a.244.244 0 0 0 .006.003c1.295.631 2.586 1.28 3.894 1.904.984 1.189 2.052 2.295 3.078 3.42l-2.15.362-4.267-4.635a.288.288 0 0 0-.037-.036c-1.499-1.137-3.152-2.082-4.66-3.143zM3.796 0c-.135 0-.273.005-.411.013C2.3.083 1.512.54 1.243 1.157c-.04.093-.146.314-.007.314a2.35 2.35 0 0 1 .341-.028c.418 0 .38.172.47.194.09.282.29.846.303 1.068-.244.86-.153 1.763-.064 2.198.15.732.63 1.584 1.261 2.38a.285.285 0 0 0 0 .166 35.3 35.3 0 0 1 .903 3.336c.251 1.168.393 2.277.317 2.823a.294.294 0 0 0 .221.328c.045.011.084.031.127.045l-.928 3.079a2.847 2.847 0 0 0-.593-.055c-.381 0-.756.05-1.064.05-.125 0-.24-.008-.34-.032a.546.546 0 0 0-.125-.012c-.436 0-1.428.306-1.34.879.15-.128.257-.159.375-.159.11 0 .23.027.405.027h.027c.254-.004.697-.083 1.053-.083.18 0 .338.02.438.08.236-.01.45-.013.649-.013.85 0 1.447.07 2.5.075a89.565 89.565 0 0 0 2.974-.079c.45.003.697.054.922.054h.04c.134-.004.265-.057.48-.057.123 0 .273.017.468.07-.25-.341-.877-.685-1.33-.685a.591.591 0 0 0-.302.071 5.081 5.081 0 0 0-.508-.022c-.22 0-.448.01-.678.02l-.157-2.83c.487.203.857.517 1.281 1.021a.295.295 0 0 0 .513-.246c-.192-1.039-.213-2.019-.202-3.06.54.354 1.072.713 1.576 1.094l4.36 4.738a.29.29 0 0 0 .263.09c.95-.159 1.9-.315 2.849-.474a.294.294 0 0 0 .23-.193.298.298 0 0 0-.06-.297c-.741-.83-1.508-1.631-2.25-2.445 1.269.78 2.875 1.755 3.08 1.755.022 0 .027-.013.012-.04-.094-.163-.9-.755-1.775-1.373.14.058.276.12.415.177l.017.01c.103.035.16.059.27.062a.286.286 0 0 0 .108-.016.317.317 0 0 0 .188-.152.32.32 0 0 0 .023-.238c-.017-.05-.038-.077-.054-.098-.061-.085-.103-.109-.162-.154a4.553 4.553 0 0 0-.205-.149c-.153-.105-.336-.223-.493-.328a4.992 4.992 0 0 1-.328-.233.307.307 0 0 0-.028-.025l-3.892-2.736c-.008-.006-.02-.001-.028-.006-1.333-1.869-2.588-3.825-4.046-5.627C9 4.496 8.145 2.888 6.758 2.352 6.69 1.956 6.54 1.225 6.003.703 5.547.26 4.888.056 4.147.011A5.728 5.728 0 0 0 3.796 0zm21.477 5.76q-.785 0-.91.607v.036q.09.16.374.16.82-.356.82-.66v-.035q0-.072-.284-.107zm2.853-1.105q-.125.695-1.23 1.498l.392.16.535-.196.268.179q2.05.98 5.44 1.034l5.315.054.071-.002q.909 0 .883 1.33-.027 1.383-.937 2.774-.57 0-1.159-.437-.588-.437-.963-1.026-.375-.588-.963-1.533.178 1.872 1.07 2.942-1.088 0-1.935.206-.424.102-.707.102t-.426-.102q-.177-.128-.882-.128-.429 0-1.053.047-.481.037-.88.037-.967 0-1.448-.215-.445-.375-.561-1.311-.116-.936.526-2.595-1.32.945-1.32 2.871v.643q-.66-.678-1.035-1.499-.73-1.819-1.997-1.819-.482 0-1.855.606-.464-.196-.375-.624l.892-1.195q.642-1.088.928-1.213.142-.267 1.39-.267.536.143.536.392 0 .34-.357.678.678-.143.981-.803 0-.16.856-.588zM28.895.86q-.087 0-.198.138-1.356 2.159-2.461 2.997-.428.374-1.16.392-.356 0-1.088-.535Q22.9 2.8 22.472 2.07q-.481-.856-.624-.946-.071 0-.107.179 0 1.016 2.069 3.763-.392.57-.731 1.302-.34.731-.803 1.115-.464.383.09.758 0 .464.766.749.624-.178 1.909-.553.767 0 1.052.642.945 1.427.945 2.979.107 2.069-1.427 3.96-.481.32-.481.891 0 .232.588.232.964 0 .964-.232l-.072-.482q0-.25.375-.374v-.036q0-.339 1.213-3.406.552 0 .874.535.41 1.355.41 2.247 0 .196-.25.838-.303.232-.374.839h1.426l-.107-.446q-.071-.268.197-.464l-.125-.66q-.232-2.515-.232-2.96v-.036q1.409-.34 2.167-.34.758 0 1.168.277.163.11.457.11.446 0 1.193-.253.81-.273 1.242-.273.23 0 .354.077.357.223.357.758 0 1.962-.999 3.336-.32.32-.481.891h1.23q.321-.107.143-.535.036-.463.428-.588 0-1.623 1.427-3.21.999.552 1.017 1.712 0 .445-.179 1.212l-.214.589q-.196.232-.357.874h1.178q.214-.09.267-.196l-.178-.571q-.09-.25.25-.446-.179-.945.231-1.427-.838-1.962-.838-3.085.446-1.837.57-3.443.215 1.124.054 2.693-.16 1.57.535 3.247.136.282.248.282.078 0 .145-.14.178-1.016.071-5.618-.143-.57-.303-.874-.57-.874-.981-.91h-5.761q-4.263 0-6.314-1.212.339-.607.375-.83.035-.223 0-.544-.856.25-1.285.66l-.356-.267q.374-.232 1.195-1.499.82-1.266.963-1.98-.06-.12-.141-.12zM60.223.85c.162 0 .243.588.243.75 0 .162-.08.749-.243.749h-15.55c-.19 0-.284-.587-.284-.75 0-.161.095-.749.284-.749zM44.187 0c-.432 0-.648.87-.648 1.6 0 .729.216 1.6.648 1.6h16.522c.405 0 .608-.871.608-1.6 0-.73-.203-1.6-.608-1.6zm16.036 7.394c.162 0 .243.587.243.75 0 .161-.08.748-.243.748h-15.55c-.19 0-.284-.587-.284-.749 0-.162.095-.75.284-.75zm-16.036-.85c-.432 0-.648.87-.648 1.6 0 .728.216 1.599.648 1.599h16.522c.405 0 .608-.87.608-1.6 0-.729-.203-1.6-.608-1.6zm.959 9.013q-.101 0-.197.03-.375.122-.33.364.037.205.334.205.054 0 .117-.007.407-.044.716-.33-.344-.262-.64-.262zm.19-.223q.796 0 2.455.948.832.43 1.824.43.479 0 .995-.1 1.3-.264 2.732-.463.486-.067.942-.067.887 0 1.658.255 1.167.385 1.938.495.771.11 2.445.199-1.079.11-2.114.11-1.036 0-2.446-.231-.705-.116-1.357-.116-.653 0-1.253.116-1.2.23-2.732.43-.383.049-.752.049-1.11 0-2.1-.446-.963-.657-2-.657-.458 0-.93.128-.42-.022-.375-.463.242-.595 1.035-.617h.036zm.59-2.247q-.477 0-.89 1.454-.344-1.284-.89-1.284-.08 0-.167.029-.66.418.441 1.608-.881.506-.881 1.278 0 .77 1.3.859.401-.106.785-.106.898 0 1.693.58.68.495 2.158.495.986 0 2.325-.22 1.645-.463 3.197-.463.59 0 1.165.066 1.439.167 2.45.167.46 0 .832-.035 1.873-.044 1.873-.352-.507-.463-1.432-.617-1.96-.022-3.58-.683-.81-.33-1.985-.33-1.176 0-2.718.33-.995.251-1.852.251-1.175 0-2.092-.471-.947-.573-2.004-.947.88-.683.826-1.135-.055-.452-.54-.474h-.014z"/></svg>