<svg xmlns="http://www.w3.org/2000/svg" width="62.144" height="18"><path d="M11.386 8.203c-.51.04-.793.296-.847.767.067.51.35.78.847.806.498-.026.76-.295.787-.806-.04-.47-.303-.726-.787-.767zm.06-1.694c.364 0 .7.068 1.01.202a2.659 2.659 0 0 1 1.371 1.361c.134.303.201.622.201.958 0 .35-.067.676-.202.978a2.567 2.567 0 0 1-2.38 1.523c-.362 0-.702-.064-1.018-.192a2.426 2.426 0 0 1-.816-.534 2.621 2.621 0 0 1-.545-.797 2.38 2.38 0 0 1-.202-.978c0-.336.068-.655.202-.958.134-.302.316-.571.545-.806.228-.236.5-.42.816-.555a2.574 2.574 0 0 1 1.019-.202zm-.04-.685c-.443 0-.86.084-1.25.252-.39.168-.726.396-1.008.685a3.36 3.36 0 0 0-.676 1.009 3.053 3.053 0 0 0-.252 1.24c0 .444.084.857.252 1.24.168.384.393.716.676.999a3.2 3.2 0 0 0 2.258.927c.444 0 .857-.084 1.24-.252a3.36 3.36 0 0 0 1.009-.675c.289-.283.518-.615.686-.999.168-.383.252-.796.252-1.24 0-.444-.084-.857-.252-1.24a3.268 3.268 0 0 0-1.694-1.694 3.053 3.053 0 0 0-1.24-.252zm6.476 5.264c.4.153.837.645.965 1.05.128.406.112.879.022 1.344-.09.458-.27.894-.488 1.18-.15.195-.285.307-.413.345h-.12c-.127-.03-.293-.143-.458-.346-.217-.285-.398-.72-.488-1.179-.09-.465-.105-.938.023-1.344.127-.405.606-.931.957-1.046v-.004zm-.424-8.838v.901h-.811v.578h.81l-.112 6.818c-.578.3-.938.81-1.111 1.359a3.576 3.576 0 0 0-.068 1.734 3.49 3.49 0 0 0 .646 1.457c.233.3.54.548.901.623v.022c.023.008.045.008.068.008.03 0 .06-.008.09-.008a.532.532 0 0 0 .105.008c.03 0 .052 0 .082-.008v-.022c.36-.075.669-.323.901-.623a3.49 3.49 0 0 0 .646-1.457 3.576 3.576 0 0 0-.067-1.734 2.228 2.228 0 0 0-1.112-1.337l-.112-6.84h.766l.022-.578h-.856V2.25h-.788zm11.612.431c.77 0 1.735.396 2.201.863.409.408.462.95.477 1.452h-5.334c.015-.503.069-1.044.477-1.452.467-.467 1.408-.863 2.179-.863zm0-.431c-.914 0-1.898.422-2.474.999-.591.59-.658 1.37-.658 1.952v.226h6.264v-.226c0-.583-.044-1.361-.635-1.952-.577-.577-1.583-.999-2.497-.999zm-1.886 7.53l.026 1.485-1.643-.026-.026-1.434 1.643-.026zm.782-.027l4.224.052-.026 1.513-4.224-.053.026-1.512zm6.101.078v1.487l-1.278-.026v-1.46zM23.734 12.5c-.774 1.401-1.087 2.526-1.087 2.526-.015.189-.128.287-.235.287-.12 0-.232-.123-.19-.38.21-.558.154-1.204 1.512-2.433zm-.96-5.637a.31.31 0 0 0-.206.073c-.134.117-.162.354-.025.591v.002h.002a8.715 8.715 0 0 0 2.197 1.869c-.032.456.059 1.295.028 1.757-1.387-.448-1.93-.71-2.898-1.852l-.004-.003-.005-.002a.976.976 0 0 0-.244-.032.582.582 0 0 0-.294.068c-.134.08-.193.228-.106.44.086.207.314.48.753.817.434.335 1.076.734 1.995 1.2-.067.054-.301.247-.559.477-.306.274-.644.601-.775.815-.355.58-.616 1.101-.733 1.547-.118.449-.09.823.134 1.105l.004.005h.006a.945.945 0 0 0 .45-.046c.244-.088.521-.307.664-.825.282-1.026.713-1.846.728-1.873.134-.2.323-.46.478-.66.077-.1.146-.186.196-.241a.548.548 0 0 1 .056-.057h.012c.99.022 1.992.03 3 .03 2.093 0 4.214-.032 6.306-.032 1.009 0 2.011.007 3 .029h.016l.001-.015c0-.001.013-.19.01-.38a1.668 1.668 0 0 0-.021-.262.328.328 0 0 0-.028-.09.094.094 0 0 0-.022-.03.05.05 0 0 0-.033-.011h-1.992V9.82c.673.01 1.371.018 2.044.026h.016v-.015c.009-.26-.009-.47 0-.73v-.017h-.016c-3.884-.052-7.768-.026-11.652-.078-.462-.175-.855-.536-1.189-.913-.336-.38-.613-.776-.84-1.019v-.001a.808.808 0 0 0-.384-.206.421.421 0 0 0-.07-.006zm18.933 1.8c.883 0 1.67.407 2.181 1.045h-4.362a2.79 2.79 0 0 1 2.181-1.045zm2.476 1.495c.169.32.277.678.31 1.057h-5.571a2.78 2.78 0 0 1 .309-1.057zm.312 1.508c-.027.378-.13.735-.293 1.056h-4.99a2.781 2.781 0 0 1-.293-1.056zm-.579 1.507a2.79 2.79 0 0 1-2.209 1.08 2.79 2.79 0 0 1-2.21-1.08zm-2.209-4.96a3.25 3.25 0 0 0-3.246 3.245 3.25 3.25 0 0 0 3.246 3.246 3.25 3.25 0 0 0 3.246-3.246 3.25 3.25 0 0 0-3.246-3.246z"/><path d="M45.185 2.726q-.279 0-.279.328 0 .278.279.278.295-.016.295-.311t-.295-.295zm-1.082.213v.295l-.64.115q.295-.312.64-.41zm.033.393q.377.295.13.443-.376-.131-.557-.344l.427-.099zm1.147-.754q.77 0 1.23.59.459.59.491 1.82 1.197.246 1.59 1.082.064.542-.243.542l-.019-.001q-.328-.016-.516-.18-.069-.06-.104-.06-.06 0-.02.183.067.287.722.696.656.41.107.68-.136.068-.29.068-.467 0-1.095-.616-.837-.82-.886-1.246-.049-.427.345-.787.234-.215.16-.215-.05 0-.242.1-.476.246-.5.721-.025.476.377 1.041.401.566 1.582 1.435.12.063.273.063.324 0 .792-.285.689-.418-.688-1.286.508-.132.524-.443.64.213 3.59 3.967.787.525.804.77-.017.23-.246.28-.05.01-.1.01-.186 0-.392-.142-.918.443-1.779.46h-.09q-.8 0-1.328-.28.541.476.377 1-.08.255-.12.255-.044 0-.044-.287 0-.558-1.426-1.066v.623q-.084.353-.133.353-.048 0-.064-.32-.098-.705-.467-1.517-.369-.811-1.172-2.245-.803-1.435-1.025-2.066-.22-.631-.204-1.172.016-.541-.222-.795-.237-.254-.14-.55.1-.295-.294-.557v-.278q.426-.345.885-.345zm3.115 9.443q.803.23.803.54l-.54 2.017q-.066.361-.443.361h-.656v-.033l.836-2.557v-.328zM45.342 2.25h-.059q-.64 0-1.295.525-.377.131-.77.607.54.491.983.606.05.23.312.64.016 1.081.295 1.795.278.713 1.869 3.827.786 1.64.786 2.017 0 .574-.72 2.574 0 .114-.985.18-1.475.05-1.475.41 0 .213.197.213h4.36q.41-.328.46-.558.393.164.426.443.055.221.157.221.019 0 .04-.008.13-.049.13-.213-.114-.443-.573-.852l.524-2.213q1.59-.05 2.77-.509.22.05.402.05.364 0 .583-.197.327-.295-.132-.918-1-1-1.901-2.197-1.853-2.279-2.541-2.64-.23-.475-.55-.753-.32-.28-1.155-.689-.017-.967-.451-1.672-.425-.689-1.687-.689z"/><path d="M8.22.375c-9.625 0-9.625 17.25 0 17.25m0-17.25h45.674M8.22 17.625h45.674M61.581.375v17.25M53.894.375c9.625 0 9.625 17.25 0 17.25" fill="none" stroke="#000"/></svg>