<svg xmlns="http://www.w3.org/2000/svg" width="59.404" height="18"><path d="M10.376 3.794q.26.152.306.611-.199.168-.306.505-.122-.337-.321-.505.046-.459.321-.611zm4.495 0q.276.152.322.611-.2.168-.322.505-.107-.337-.305-.505.046-.459.305-.611zm4.511 0q.26.168.306.626-.199.153-.306.49-.122-.337-.32-.49.045-.458.32-.626zm-8.043.81q-.29.382-.351.818-.062.436-.612.543-.566-.107-.627-.543-.061-.436-.352-.818.566 0 .704.428.122.413.275.413.138 0 .275-.413.138-.428.688-.428zm4.511 0q-.29.382-.352.818-.06.436-.627.543-.55-.107-.611-.543-.061-.436-.352-.818.55 0 .688.428.138.413.275.413.153 0 .276-.413.137-.428.703-.428zm4.496 0q-.291.397-.352.826-.061.428-.612.55-.566-.122-.627-.55-.06-.429-.351-.826.565 0 .703.443.122.398.275.398.138 0 .275-.398.138-.443.689-.443zm-7.799 2.951l.268.88q.16.527-.268.771-.428-.244-.267-.772l.267-.879zm4.526 0q.092.352.26.88.168.527-.26.771-.428-.244-.267-.772l.267-.879zm2.783 5.382q1.025 0 1.025.444 0 .443-1.01.459H9.903q-.994 0-.994-.46 0-.443.994-.443zm-9.48-9.495q-.443 0-.612.902-.142-.04-.268-.04-.252 0-.435.162-.183.138.015.29.321.169.398.727.076.558.627.726v6.01h-.184q-1.697 0-1.697 1.162 0 1.177 1.682 1.177h9.97q1.681 0 1.697-1.177 0-1.162-1.713-1.162h-.199V6.225q.55-.184.627-.734.077-.55.383-.734.214-.153.015-.275-.18-.17-.443-.17-.115 0-.245.032-.184-.887-.612-.887-.443 0-.627.887-.13-.033-.245-.033-.262 0-.443.17-.183.123.016.276.32.183.39.734.068.55.634.734h.015v5.994H17.35V9.466q.52-.504.351-1.032-.168-.527-.252-.871-.084-.344-.375-.344-.29 0-.382.344-.092.344-.252.871-.16.528.374 1.032v2.753l-1.666-.016V6.21q.55-.168.627-.726.076-.558.397-.726.199-.153.015-.29-.183-.164-.434-.164-.126 0-.269.041-.168-.902-.612-.902-.428 0-.611.902-.143-.04-.269-.04-.251 0-.435.162-.183.138.031.29.306.169.382.727.077.558.627.726v5.994l-1.773.016V9.466q.52-.504.359-1.032-.16-.527-.252-.871t-.383-.344q-.275 0-.374.344-.1.344-.26.871-.16.528.374 1.032v2.753h-1.651v-6.01q.566-.168.642-.726.077-.558.382-.726.214-.153.031-.29-.183-.164-.435-.164-.126 0-.268.041-.184-.902-.612-.902zm16.046 2.523h-.015c-.154.002-.255.047-.302.132v.175l-.432.227c-.144.075-.217.144-.217.206l.731-.34c.012.029.061.043.149.043.017 0 .036 0 .057-.002a.7.7 0 0 0 .36-.113V6.21h-.061a.543.543 0 0 0-.264-.077.405.405 0 0 0-.086.01.441.441 0 0 0-.23.11c.052-.112.244-.167.575-.167h.056v-.082a1.556 1.556 0 0 0-.32-.04zm1.113-.115a1.143 1.143 0 0 0-.241.49c-.038.174-.047.58-.026 1.219.473-.268.746-.55.818-.85.072-.298.063-.543-.026-.735l-.164-.03-.186-.052-.175-.042zm-.367-.314h.004c.266.002.523.097.744.242.395.231.77.491 1.153.742.261.156.554.262.854.317-.488.026-.988.101-1.423.333-.284.155-.524.404-.625.716-.09.276-.084.572-.09.86.004.539.105 1.095.401 1.552.019.032.048.063.06.094-.047.045-.109.056-.172.056-.043 0-.087-.005-.126-.007-.181-.032-.312-.176-.432-.303a3.969 3.969 0 0 1-.477-.66c-.262-.489-.35-1.05-.392-1.598-.015-.194-.01-.389-.026-.582-.013-.088-.074-.186-.171-.186a.146.146 0 0 0-.006 0c-.13 0-.237.09-.358.126a1.117 1.117 0 0 1-.374.067c-.127.012-.243.08-.37.08l-.032-.002a1.146 1.146 0 0 1-.145-.015c.198-.062.4-.118.583-.218.056-.028.115-.096.078-.16a.095.095 0 0 0-.084-.043.232.232 0 0 0-.106.03c-.137.065-.255.17-.404.207a.968.968 0 0 1-.314.05c-.04-.037-.042-.1-.038-.152.03-.083.131-.095.196-.14.024-.01.05-.035.076-.035.008 0 .017.003.025.01a.2.2 0 0 0 .088.022c.036 0 .071-.013.09-.049.046-.081.002-.188-.078-.23a.17.17 0 0 0-.243.073c-.029.052-.094.063-.138.1-.008.008-.013.012-.019.012-.012 0-.02-.023-.025-.038-.01-.032.043-.026.054-.047.167-.11.341-.208.502-.325.179-.212.436-.334.683-.448.026-.026.007-.07.037-.096.087-.123.24-.17.373-.225.206-.074.423-.129.645-.13h.022zm6.77 1.575h.009c.625.002 1.263.11 1.808.43.181.104.35.234.473.403-.16-.132-.357-.203-.551-.266.02.06.01.13.044.184.206.125.383.336.391.585.015.337-.147.65-.34.916-.164.23-.346.472-.377.76-.004.052.003.108-.035.148-.087.105-.228.146-.356.171a.857.857 0 0 1-.143.013.547.547 0 0 1-.376-.13c-.088-.09-.147-.206-.233-.3-.227-.277-.507-.532-.857-.638a1.168 1.168 0 0 0-.47-.044l.164.247a.632.632 0 0 1 .171-.024.411.411 0 0 1 .376.205c-.173.005-.343.05-.515.07-.48.07-.961.147-1.44.216-.036-.038-.083-.07-.137-.07a.14.14 0 0 0-.008 0c-.69-.105-1.382-.212-2.081-.217a.09.09 0 0 1-.021.003c-.026 0-.035-.017-.03-.05 0-.06-.033-.14-.102-.14l-.007.001c-.085.005-.13.089-.152.161-.053.134-.085.296-.212.381a.34.34 0 0 1-.16.038.461.461 0 0 1-.256-.082c-.093-.08-.135-.2-.185-.308-.155-.394-.176-.825-.163-1.244.018-.314.104-.64.322-.876.173-.194.432-.283.68-.338.467-.106.95-.125 1.43-.137h.037c.315 0 .629.021.944.021h.032l.164.001c.598 0 1.197-.03 1.793-.08a6.478 6.478 0 0 1 .369-.01zM29.276 4.41a.953.953 0 0 0-.388.08 1.01 1.01 0 0 1-.409.09 1.01 1.01 0 0 1-.408-.09.702.702 0 0 0-.286-.058c-.217 0-.467.086-.752.258-.288-.172-.542-.258-.76-.258a.705.705 0 0 0-.287.058 1.01 1.01 0 0 1-.409.09 1.01 1.01 0 0 1-.408-.09.953.953 0 0 0-.388-.08c-.172 0-.357.042-.555.125-.242.102-.435.153-.579.153a.383.383 0 0 1-.169-.034 1.649 1.649 0 0 0-.304-.124.158.158 0 0 0-.045-.008c-.053 0-.07.042-.055.127.107.313.316.476.629.49l.145.002c.247 0 .453-.029.618-.087a.847.847 0 0 1 .285-.047c.128 0 .267.024.418.071.172.055.342.083.508.083.096 0 .19-.01.284-.028a.945.945 0 0 1 .181-.018.65.65 0 0 1 .428.15 2.25 2.25 0 0 0-.502.21c-.11.066-.218.17-.23.304a1.428 1.428 0 0 0-.326.176c-.197.135-.369.306-.54.47-.083.06-.18.102-.258.167-.066.043-.123.111-.119.195-.008.108.044.208.059.31a.73.73 0 0 0 .116.385c.09.06.18.122.277.17.029.323.079.663.27.933.047.062.1.124.17.158h.154v-.475l.288.12c.066-.027.088-.105.11-.165.06-.203.028-.42.005-.626-.024-.054.011-.064.06-.065h.005c.024 0 .064-.017.088-.017.011 0 .02.004.022.014.005.724.12 1.465.463 2.11.12.23.274.443.446.637.047.2-.06.389-.154.557-.09.159-.242.275-.313.445-.089.18-.11.39-.226.558-.103.164-.251.293-.396.418-.122.113-.243.235-.31.39-.34.255-.675.537-.883.913-.008.029.02.035.044.035l.025-.002h1.027a1.06 1.06 0 0 0 .261-.32c.046.018.097.03.148.03a.245.245 0 0 0 .2-.089.257.257 0 0 0 .07-.204c.01-.34.118-.69.35-.943.11-.1.248-.167.372-.25.062-.055.105-.129.163-.189a5.13 5.13 0 0 1 .92-.846c.021-.01.047-.035.07-.035.009 0 .018.004.026.013.17.118.3.284.423.448.06.193.138.39.287.534a.719.719 0 0 0 .235.156c.11.252.144.527.157.8-.24.28-.46.578-.65.895h1.168a.726.726 0 0 0 .192-.481h.024c.113 0 .229-.065.261-.178.05-.15-.025-.309-.107-.433-.174-.257-.333-.541-.352-.857-.005-.12.005-.243-.028-.36a.817.817 0 0 0-.255-.43c-.193-.208-.272-.491-.329-.763.258.01.518.024.775.058.345.044.691.102 1.03.18.021.007.055.009.048.04.017.1.086.198.186.224.062.18.117.373.256.509.024.02.053.035.082.049.018-.215.04-.43.1-.637l1.022-.097c-.062.42-.145.85-.364 1.218-.203.33-.473.612-.758.871-.072.101-.135.222-.247.283a.276.276 0 0 0-.146.05c-.17.11-.282.289-.394.454-.062.098-.12.198-.176.3h1.282c.017-.104.03-.21.027-.316a.31.31 0 0 0 .099.016.248.248 0 0 0 .218-.112.632.632 0 0 0 .09-.273c.256-.254.41-.59.627-.874a1.14 1.14 0 0 1 .458-.365.69.69 0 0 0 .33-.472l.016.001c.063 0 .109-.055.15-.092.03.006.06.009.09.009.093 0 .188-.031.235-.115a.335.335 0 0 0 .031-.074c.328.21.586.54.68.921.052.172.025.354.031.532v.308a7.003 7.003 0 0 0-.662.906h1.17a.769.769 0 0 0 .19-.49.286.286 0 0 0 .036.002c.103 0 .209-.054.244-.154.06-.15-.008-.314-.087-.443-.041-.067-.022-.151-.034-.226a18.68 18.68 0 0 1-.023-1.032c.006-.12.017-.258-.061-.36-.04-.045-.114-.02-.15-.072-.074-.093-.105-.212-.14-.325-.061-.209-.057-.452.074-.634a2.01 2.01 0 0 0 .24-.372 3.46 3.46 0 0 0 .2-.512 3.4 3.4 0 0 1-.107 1.01c-.08.437-.047.885.009 1.323.031.208.07.428.202.598.045.054.118.1.19.1a.154.154 0 0 0 .081-.022.382.382 0 0 0 .195-.354c.003-.202-.063-.395-.096-.592-.073-.35-.149-.699-.226-1.047.102-.582.17-1.184.056-1.769-.071-.353-.24-.707-.546-.912a3.783 3.783 0 0 0-.595-.31 3.356 3.356 0 0 0-1.498-.256 25.305 25.305 0 0 1-3.205-.119 3.62 3.62 0 0 1-1.002-.22c-.578-.219-1.083-.583-1.597-.92a1.865 1.865 0 0 0-.653-.259.828.828 0 0 1 .397-.097c.06 0 .123.006.188.017.08.015.163.022.247.022.169 0 .344-.029.525-.087.151-.047.29-.071.418-.071.102 0 .198.015.285.047.165.058.37.087.618.087.047 0 .095 0 .145-.003.313-.013.526-.176.639-.489.01-.085-.013-.127-.07-.127a.183.183 0 0 0-.05.008 2.007 2.007 0 0 0-.3.124.395.395 0 0 1-.17.034c-.145 0-.337-.051-.577-.153a1.414 1.414 0 0 0-.55-.125zM50.37 2.86c.116 0 .174.422.174.538 0 .116-.058.538-.175.538H39.207c-.136 0-.203-.422-.203-.538 0-.116.067-.538.203-.538zm-11.512-.61c-.31 0-.465.625-.465 1.148 0 .523.155 1.148.465 1.148h11.86c.291 0 .436-.625.436-1.148 0-.523-.145-1.148-.436-1.148zm1.967 3.732q-.086 0-.207.105-.475.64-.511 1.827.146.931.657 2.63-.182 1.37-.274 3.763-.073.804.439 1.041 1.516.402 3.836.402 2.338 0 3.835-.402.53-.237.457-1.041-.091-2.393-.274-3.763.512-1.699.658-2.63-.037-1.187-.512-1.827-.12-.105-.206-.105-.124 0-.177.215.128.365.237.712.146.439.11.822-.037.621-.119 1.014-.082.393-.338.393h-.027q-.43 0-.43-1.151 0-.42.11-1.023-.094-.16-.203-.16-.102 0-.217.142-.055.438-.073.968-.073.804.383 2.265-.164 2.064-.164 4.128-1.242.2-3.05.256-1.79-.055-3.033-.256 0-2.064-.164-4.128.457-1.461.384-2.265-.019-.53-.073-.968-.116-.142-.218-.142-.108 0-.203.16.11.603.11 1.023 0 1.152-.43 1.152l-.027-.001q-.255 0-.337-.393-.083-.393-.12-1.014-.036-.383.11-.822.11-.347.238-.712-.054-.215-.177-.215z"/><path d="M8.22.375c-9.625 0-9.625 17.25 0 17.25m0-17.25h42.934M8.22 17.625h42.934M58.842.375v17.25M51.154.375c9.625 0 9.625 17.25 0 17.25" fill="none" stroke="#000"/></svg>