<svg xmlns="http://www.w3.org/2000/svg" width="82.473" height="18"><path d="M18.058.568q-.111.037-.111.128t.07.146q.027.022.054.022.04 0 .077-.05.063-.081.021-.163-.041-.083-.11-.083zM2.67.47q-.153 0-.296.282.084.183.264.237.028.01.054.01.131 0 .224-.229 0-.255-.194-.292Q2.695.47 2.669.47zM1.665.787q-.042.128.027.238l-.583.073q-.014-.164.556-.31zm.568.436zm.105-.003q.12 0 .195.033.027.012 0 .012-.052 0-.288-.04.05-.005.093-.005zm2.564 1.252q.035 0 .097.068 1.125 1.223 2.792 2.865Q9.46 7.048 9.667 7.724 8.305 7.468 7.34 6.318q-.966-1.15-1.681-2.236-.716-1.086-.799-1.414-.017-.196.042-.196zm.046-.868q.202 0 .384.096 4.321 4.308 4.946 5.604.584 1.405.764 2.154-.076.11-.182.11-.087 0-.193-.074l-.57-1.515q-.43-1.296-2.104-2.875-1.674-1.579-2.424-2.5-.441-.542-.676-.542-.164 0-.227.268-.108.455-.38.455-.115 0-.26-.081.126-.858.542-1.022.198-.078.38-.078zm.357 6.43q.666 1.405.541 2.83-.125 0-.236.236-.045-.403-.277-.403-.051 0-.112.02.292-1.405.084-2.683zM2.827.346q.066 0 .116.013.25.063.292.237.029.122.058.122.013 0 .025-.022.042-.073.056-.164.305.53.041 1.57t.848 1.24q1.028 3.104 2.209 4.72 1.18 1.615.986 3.038-.449-.438-.993-.438-.113 0-.23.019.042-1.296-.472-2.556t-.945-1.889q-.43-.63-1.16-1.497-.73-.867-.722-1.789.007-.921.194-1.286.188-.365.181-.584-.003-.091-.027-.091-.035 0-.112.182-.132.31-.73.328l-.07.001q-.568 0-1.235-.274l.82.073q.404.11.601.11.162 0 .183-.074.049-.164-.076-.192-.125-.027-.257-.027t-.201.055l.026.052-.29-.052Q1.762.787 1.887.623q.028-.055.097-.055-.028.183.049.274.028.034.056.034.046 0 .09-.098.07-.155-.125-.228.511-.204.773-.204zm15.412.04q.375 0 .555.365.056.055.695.2v.056l-.695.073q-.597 0-.75-.12-.153-.118-.146-.273.007-.155.188-.155.18 0 .25.082t.035.173q-.035.092-.132.147h.028q.18 0 .187-.22.007-.237-.299-.273-.389 0-.291.374.092.357.854.357l.076-.001q.431-.037.765-.128L19.53.97q1.236 1.004 1.16 2.29-.077 1.288-.966 2.136-.889.85-1.584 1.871-1.083 1.734-1.167 2.72-.083.986.376.986.458 0 1.118-.721.66-.721 1.34-.74 1.82.055 1.612 2.209-.667-.93-1.5-.93-.417 0-1.14.474-1.097.766-1.667.766l-.472-.091q-.861-.84-.583-2.482.416-1.187 1.125-4.235.486-1.734.965-2.628.48-.895 1.022-.913.291 0 .944.365.027.01.047.01.094 0 .037-.21-.526-.429-1.226-.429-.225 0-.47.045-.208 0-.506-.146-.3-.146-.3-.694.251-.237.543-.237zM4.666 3.05q1.083 1.825 1.986 3.002.903 1.178 1.702 1.588.799.411 1.48.43.083.145 1.653 4.617l-.097.055-3.738-3.14q.028-.273-1.104-1.962-1.132-1.687-1.994-4.46l.112-.128zM8.5 10.918l2.07 1.66q.07.256-.5.348-.127.02-.233.02-.37 0-.49-.248-.152-.32-.389-.831-.236-.511-.458-.95zm7.071-.785q0 .767.167 1.332.43 1.004 1.153 1.023h.038q.711 0 1.699-.657.938-.625 1.365-.625.034 0 .066.004.416.055.903.566.486.51.514.894.05.311-.043.311-.06 0-.18-.128-.399-1.05-1.024-1.05h-.01q-.633.01-1.557.648-.923.639-2.153.639t-1.368-1.04q-.14-1.04.43-1.917zM5.277 11.192l.208.547q.195-.255.299-.3l.005-.002q.088 0-.304 1.543l-.583.238q-.153-.146.09-.904.243-.757.285-1.122zm14.763 1.14q.461 0 .727.502-.18.384-.847.603-.514 0-1.042-.566.685-.539 1.162-.539zm-1.607.758q.207.265.448.438h-1.883q.692-.095 1.435-.438zm-7.182 1.15q-1.554 2.935-4.48 3.011-2.913-.076-4.467-3.011zm11.239.018q-1.554 2.935-4.48 3.012-2.913-.077-4.48-3.012zM3.066.008q-.084 0-.179.013-.222 0-1.264.42-.834.255-.903.657l.028.62.417-.2q.68.292 1.139.292.458 0 .347.41-.111.411.028 1.37.139.958 1.097 1.934.959.977 1.188 2.556.23 1.578-.41 3.641l.209-.164q.004-.004.007-.004.046 0-.216.816-.277.867-.757.894-.084.005-.16.005-.348 0-.486-.105-.155-.12-.462-.12l-.045.001q-.34.01-.34.302v.182H1.33Q2.93 17.982 6.777 18q3.849-.018 5.446-4.472l-4.279.037q0-.165-.264-.356-.129-.094-.296-.094-.175 0-.391.103-.13.061-.278.061-.337 0-.771-.317.097-.639.236-1.14.139-.503.528-.594.036-.008.073-.008.362 0 .816.811.264-.675.153-1.825l.139.128q1.042 2.3 1.257 2.701.163.305.634.305.15 0 .331-.031.75-.128.737-.475l.639.42.486-.237-1.07-3.048q.264 0 .487-.292-.264-1.096-.82-2.446-.39-.822-.792-1.278Q8.681 4.603 7.5 3.39T5.763 1.518q-.373-.28-.775-.28-.226 0-.461.088-.653.246-.792 1.214-.042-.037.07-.73.11-.694-.05-1.287-.138-.514-.689-.514zM18.286 0q-.252 0-.478.094-.292.11-.347.42-.111.383.097.757.208.374.653.466-.89 1.058-1.514 3.741-.584 2.556-.973 3.779-1.042 1.113-1.035 2.236.007 1.122.424 1.597.301.343.878.438h-3.434q1.597 4.454 5.446 4.472 3.848-.018 5.445-4.472h-2.674q.153-.11.313-.256.156.245.354.245.083 0 .174-.044.347-.219.139-1.004.194-2.245-.459-2.865-.653-.621-1.473-.621-.75 0-1.625.849-.543.526-.743.526-.124 0-.118-.198.014-.52.611-1.761.403-.876 1.75-2.254 1.348-1.378 1.334-2.775-.014-1.396-.597-2.099-.584-.703-1.292-.794-.111-.2-.292-.328-.18-.128-.48-.146Q18.329 0 18.287 0zm11.459.383V.79h-1.03V.383zm1.317 1.173q-.192.215-.192.742h-3.28q.025-.527-.167-.742zm0 1.508q-.24.215-.192.742h-3.28q.025-.527-.167-.742zm0 1.508q-.192.167-.192.742h-3.28q.049-.527-.167-.742zm-.096 1.508q-.335.598-.311 1.604h-2.897q.048-1.006-.31-1.604zm-.311 1.771v.168h-2.897V7.85zm0 .335v.168h-2.897v-.168zm0 .335v.168h-2.897V8.52zm0 .335v.168h-2.897v-.168zm0 .335v5.817q.215 1.077.766 2.37h-4.405q.431-.958.742-2.37V9.191zM28.357 0v.79h-2.681q-.455.383 0 .766h1.101q.215.215.191.742h-1.292q-.455.383 0 .766h1.101q.215.215.191.742h-1.292q-.455.383 0 .766h1.101q.24.215.191.742h-1.292q-.455.359 0 .766h1.101q.43.502.383 3.04v5.888q-.168 1.316-1.173 2.992h6.559q-1.15-1.915-1.269-2.992V9.12q-.12-2.514.407-3.04h1.125q.479-.36 0-.766h-1.293q-.024-.575.168-.742h1.197q.407-.407-.072-.766h-1.293q-.024-.527.168-.742h1.125q.455-.383 0-.766h-1.293q-.024-.527.168-.742h1.125q.455-.383 0-.766h-2.681V0zm17.251.92q.067 0 .133.002h.068q2.49 0 4.749 2.14l-1.398 1.13q-1.308-1.249-3.419-1.249-2.11 0-3.42 1.25l-1.397-1.13Q43.154.92 45.608.92zm.133 2.886q2.349.03 3.865 2.467h-7.76q1.19-2.438 3.895-2.467zm0-3.806q-3.687.149-6.214 3.033l2.111 1.784q-.892 1.189-1.1 2.23h10.376q-.208-1.041-1.1-2.2l1.963-1.785Q49.427.15 45.74 0zm9.36 12.17q.442 0 .442.464v3.556h-1.347l.442-3.746q.021-.273.463-.273zm.021-.568q-1.073 0-1.136.61-.442 3.978-.947 4l-9.765.357-1.01-.042q-1.137-1.2-2.02-1.2l-.653-.042q-1.789.337-2.147.337-.252 0-.252.337 0 .463.715.463 1.229-.196 1.885-.196.12 0 .22.006.358 0 .589.295-.41.508-1.837.508-.11 0-.225-.003-1.62-.042-2.863-.421-.61 0-.61.716.063.652 4.567.673l2-.21 11.406-.064 3.199.043v-5.135q-.022-1.032-1.116-1.032zM60.863 0h-2.625v18h3v-.75h-2.625v.375h.375V.375h-.375V.75h2.625V0h-.375zm4.997.634q-.371 0-.371.438 0 .371.371.371.394-.022.394-.415 0-.394-.394-.394zM64.418.92v.393l-.853.153q.394-.415.853-.546zm.044.524q.502.394.174.59-.502-.175-.743-.459l.569-.13zm1.53-1.005q1.027 0 1.639.787.612.786.656 2.426 1.595.328 2.12 1.442.085.722-.325.722h-.025q-.437-.022-.688-.24-.092-.08-.138-.08-.082 0-.026.243.087.383.962.93.874.546.142.906-.182.09-.387.09-.622 0-1.46-.822-1.115-1.093-1.18-1.661-.066-.568.458-1.05.312-.285.215-.285-.067 0-.324.133-.634.328-.667.961-.032.634.503 1.388.536.754 2.11 1.913.16.084.364.084.432 0 1.056-.38.918-.556-.918-1.715.678-.175.7-.59.852.284 4.786 5.29 1.05.699 1.071 1.027-.021.306-.327.371-.066.014-.134.014-.247 0-.522-.188-1.224.59-2.372.612h-.12q-1.066 0-1.77-.372.72.634.502 1.333-.106.34-.16.34-.058 0-.058-.383 0-.744-1.902-1.421v.83q-.112.47-.178.47-.063 0-.084-.426-.131-.94-.623-2.022-.492-1.082-1.563-2.994-1.071-1.913-1.366-2.754-.295-.842-.273-1.563.021-.722-.295-1.06-.317-.34-.186-.733.13-.393-.394-.743V.897q.569-.46 1.18-.46zm4.153 12.59q1.07.306 1.07.721l-.72 2.689q-.088.48-.59.48h-.875v-.043l1.115-3.41v-.437zM66.07 0h-.08q-.852 0-1.726.7-.503.175-1.027.809.72.655 1.311.808.066.306.415.853.022 1.443.394 2.393.371.951 2.492 5.104 1.049 2.186 1.049 2.689 0 .765-.962 3.431 0 .153-1.311.24-1.968.066-1.968.547 0 .284.263.284h5.814q.546-.437.612-.743.524.219.568.59.074.295.21.295.025 0 .052-.01.175-.066.175-.285-.153-.59-.765-1.136l.7-2.951q2.12-.066 3.694-.678.291.066.534.066.486 0 .777-.262.437-.394-.175-1.224-1.333-1.334-2.535-2.93-2.47-3.038-3.388-3.518-.306-.634-.732-1.006-.427-.371-1.541-.918-.022-1.29-.602-2.23Q67.753 0 66.071 0z"/><path d="M65.646 0l-2.408 2.409v.707l2.939-2.94.177-.176zm3 0l-5.408 5.409v.707l5.939-5.94.177-.176zm3 0l-8.408 8.409v.707l8.939-8.94.177-.176zm3 0L63.238 11.409v.707L75.177.176 75.354 0zm2.827.174L63.238 14.409v.707L77.473.881V.174zm0 3L63.238 17.409V18h.116L77.473 3.881v-.707zm0 3l-11.65 11.65-.177.176h.708L77.473 6.881v-.707zm0 3l-8.65 8.65-.177.176h.708l8.119-8.119v-.707zm0 3l-5.65 5.65-.177.176h.708l5.119-5.119v-.707zm0 3l-2.65 2.65-.177.176h.708l2.119-2.119v-.707zM77.646 0l-.173.174V.88l.704-.704.177-.177zm1.85 1.151l-2.023 2.023v.707l2.022-2.023v-.707zm0 3l-2.023 2.023v.707l2.022-2.023v-.707zm0 3l-2.023 2.023v.707l2.022-2.023v-.707zm0 3l-2.023 2.023v.707l2.022-2.023v-.707zm0 3l-2.023 2.023v.707l2.022-2.023v-.707zm0 3l-1.673 1.672-.177.177h.708l1.141-1.142v-.707z"/><path d="M79.848.75h2.25V.375h-.375v17.25h.375v-.375h-2.625V18h3V0h-3v.75h.375z"/></svg>