<svg xmlns="http://www.w3.org/2000/svg" width="172.799" height="18"><path d="M6.174.386c.221 0 .566.052.757.104.832.223-.005.968-.54.968a.513.513 0 0 1-.073-.005c-.353.074.06.199.502.199.272 0 .555-.047.681-.18.072-.077.131-.108.182-.108.185 0 .258.417.406.623.74.245 1.203.913 1.682 1.486 1.377 1.65 2.617 3.405 3.917 5.115-.357-.105-.743-.31-1.097-.48-1.62-.783-3.347-1.401-4.814-2.455-.732-.525-1.712-1.134-1.793-2.056-.061-.702 1.227-1.337 1.134-1.717-.011-.044-.043-.064-.09-.064-.274 0-1.077.688-1.288 1.09-.081.155-.14.217-.182.217-.146 0-.077-.757.014-.93.31-.589-.628-1.325-.1-1.664-.016.088.002.337.312.337.325 0 .305-.4.205-.453a.435.435 0 0 1 .185-.027zm.616 5.477c.254.9.626 1.766 1.065 2.59.217.405 1.13 1.049.485 1.377a.194.194 0 0 1-.052.007c-.257 0-.519-.495-.855-.517a12.843 12.843 0 0 0-.265-1.873c-.103-.505-.36-1.176-.378-1.584zm.705.597c.795.576 1.63 1.093 2.472 1.6.222.497.034 1.222.149 1.805-.538-.363-1.112-.378-1.457-1.066-.385-.766-1.019-1.494-1.164-2.34zm.226 3.6c.134.235.335.383.538.383.16 0 .32-.091.45-.304.186.205.23.926.23 1.325.002.411-.214.446-.465.446l-.155-.002a.93.93 0 0 0-.278.032.453.453 0 0 1-.138.02c-.197 0-.423-.095-.636-.095-.02 0-.04 0-.06.002.001-.52.36-1.225.514-1.808zm1.603-2.968c1.69.766 3.36 1.59 5.054 2.351.648.679 1.239 1.448 1.96 2.049.538.45-.155.358-.474.418-.244.046-.492.08-.738.116-.87-.87-1.745-1.738-2.58-2.641-.909-.982-2.145-1.538-3.222-2.293zm-.512 5.693c1.105 0 2.211.013 3.316.042.556.014 1.197-.023 1.695.164-.658.042-2.304.058-4.042.058a201.337 201.337 0 0 1-5.037-.05c-.51 0-.097-.173.188-.173a.55.55 0 0 1 .076.005c1.267-.03 2.535-.046 3.804-.046zm-4.862.743c.75.01 1.5.02 2.25.045.495.017.989.023 1.483.023 1.398 0 2.796-.05 4.192-.05.188 0 .375.001.562.003-1.161.634-2.421 1.17-3.766 1.214-.152.005-.3.008-.445.008-.76 0-1.443-.08-2.196-.351-.656-.236-1.506-.523-2.08-.892zm6.649 1.558a.144.144 0 0 0-.078.02c-.256.16.368 1.331.895 1.613.04.021.078.03.115.03.192 0 .33-.259.247-.445-.214-.48-.87-1.218-1.18-1.218zm-4.848.055c-.042 0-.105.026-.194.086-.432.29-1.443 1.067-.823 1.496a.22.22 0 0 0 .129.042c.224 0 .442-.354.556-.556.12-.21.574-1.068.332-1.068zm4.06.177c-.274 0 .026 1.476.502 1.79.031.022.07.031.109.031.106 0 .222-.069.242-.173.123-.637-.473-1.61-.846-1.647a.08.08 0 0 0-.008 0zm-3.278.017c-.05 0-.13.062-.244.216-.302.408-1.043 1.256-.436 1.571.04.021.078.03.114.03.254 0 .4-.478.49-.72.081-.222.268-1.097.076-1.097zm2.271.162c-.023 0-.043.012-.06.037-.245.368-.164 1.491.42 1.817a.196.196 0 0 0 .097.026c.172 0 .306-.25.276-.423-.07-.41-.517-1.457-.733-1.457zm-1.329-.011a.1.1 0 0 0-.058.023c-.391.291-1.017 1.466-.379 1.845.035.02.068.03.101.03.191 0 .35-.31.375-.504.04-.334.162-1.394-.039-1.394zm.655-.018a.08.08 0 0 0-.038.01c-.324.174-.62 1.573-.014 1.945a.175.175 0 0 0 .092.028c.164 0 .306-.252.306-.421-.002-.46-.123-1.562-.346-1.562zM6.352 0c-.205 0-.408.02-.598.054-.567.104-1.44.31-1.43.996a.711.711 0 0 1 .192-.028c.55 0 .663.789.553 1.27-.225.98.26 1.965.898 2.707.425 1.269.96 2.595.954 3.928-.003.556.408.592.256 1.158-.136.51-.373 1.566-.883 1.69a2.18 2.18 0 0 1-.182.007c-.323 0-.663-.056-.984-.056-.254 0-.497.036-.71.162-.444.264-.778.46-1.31.46l-.071-.001-.078-.002c-.895 0-1.953.472-2.118 1.411-.244 1.391-.044 2.827-.036 4.233.205.005.412.011.618.011.163 0 .325-.004.487-.016-.076-.844-.133-1.694-.079-2.539.039-.601-.113-1.44.465-1.781a.738.738 0 0 1 .383-.107c.506 0 1.005.499 1.472.712 1.306.596 2.697 1.036 4.147 1.036h.1c1.756-.025 3.375-.751 4.878-1.576a.616.616 0 0 1 .41-.148c.28 0 .562.17.622.463.262 1.292.154 2.632.067 3.94.157.012.315.015.473.015.156 0 .313-.003.47-.003.052 0 .105 0 .158.002.008-.911.089-1.823.047-2.733-.033-.721.107-1.55-.417-2.143-.68-.771-1.763-.76-2.704-.825a1.712 1.712 0 0 0-.117-.004c-.125 0-.257.01-.386.01a.973.973 0 0 1-.439-.08c-.294-.302-.66-.36-1.04-.36-.228 0-.462.021-.689.021a2.75 2.75 0 0 1-.22-.008c-.043-.588-.075-1.177-.107-1.766a.155.155 0 0 1 .111-.045c.294 0 .78.686 1.034.686.076 0 .13-.06.154-.217.094-.642-.155-1.343-.146-2.018h.016c.285 0 .766.368 1.053.617.898.779 1.67 1.717 2.513 2.566.334.38.681.803 1.163.803.13 0 .269-.031.42-.101.48-.223 1.5.065 1.609-.544-.462-.54-.994-1.018-1.47-1.547.58.274 1.144.678 1.747.941a.77.77 0 0 0 .24.078c.18 0-.489-.521-.668-.602-.665-.3.624-.188.098-.605-1.155-.915-2.466-1.648-3.699-2.473-.79-.998-1.506-2.067-2.3-3.068-.66-.774-1.221-1.636-1.941-2.356C8.895 1.783 8.245 1.66 8.2.937 7.858.252 7.09 0 6.352 0zM20.89 1.421q.983 1.02 1.43 2.323.446 1.303-.401 1.53-.123.034-.233.034-.651 0-.87-1.154-.255-1.348.073-2.733zm14.148-.391q.123 0 .2.09.282.338-.839 1.795-1.12 1.458-2.396 2.88-1.275 1.42-2.605 1.694-1.33.273-5.612.747l-1.658.437q-.437-.674-.328-1.348.53-.234.91-.234.598 0 .821.58 4.35-1.243 6.296-1.243.108 0 .209.004 3.06-3.826 3.99-4.737.678-.665 1.012-.665zM35.3 0h-.018q-.802.018-1.813 1.03-1.011 1.01-3.726 4.6-1.549.164-5.94 1.33-.391-.702-.973-.702-.068 0-.138.01l-.091-.383q1.348-1.293.164-3.27Q21.644.74 20.816.74q-.046 0-.09.006-.802.346-.848 2.651-.045 2.305 1.831 2.742l.11.401q-.62.164-.738.82-.119.656.154 1.376.219.574.924.574.178 0 .388-.037l.182.674.893-.255-.2-.765.492-.128q4.245-.328 6.923-.929 5.23-4.7 5.239-6.295Q36.085 0 35.3 0zm-7.362 12.547l.118.002h.061q2.216 0 4.226 1.905L31.1 15.46q-1.164-1.112-3.043-1.112-1.879 0-3.043 1.112l-1.244-1.006q1.984-1.907 4.169-1.907zm.118 2.569q2.09.026 3.44 2.196H24.59q1.058-2.17 3.466-2.196zm0-3.388q-3.281.133-5.53 2.7l1.878 1.587q-.793 1.059-.979 1.985h9.236q-.186-.926-.98-1.958l1.747-1.588q-2.09-2.593-5.372-2.726zM41.38.46q-.11 1.162-.11 2.603 0 1.442.14 2.914-.32-.17-1-.17-.691 0-1.002.17.15-1.472.14-2.914-.01-1.441-.11-2.602zm-.97 5.967q.68.01 1.381.36l-.18.33q-.142-.024-.265-.024-.427 0-.636.295-.12-.53-.3-.65-.18.12-.31.65-.21-.295-.637-.295-.123 0-.265.025l-.18-.33q.72-.35 1.391-.36zm0 .961q.15.12.1.35-.05.23-.1.441-.06-.21-.11-.44t.11-.35zm.911.002q.057 0 .12.008-.681 1.622-1.032 1.622-.34 0-1.05-1.622.063-.008.121-.008.365 0 .469.329.13.37.27.6.15.24.19.24.05 0 .18-.24.14-.23.26-.6.113-.329.472-.329zM38.848 0q.48 3.404-.01 6.137-.891.42-.741.71.11.22.252.22.052 0 .108-.03.871.982 1.432 2.313.22 2.193-.06 7.579 0 1.071.56 1.071h.03q.561 0 .561-1.071-.27-5.386-.06-7.579.55-1.331 1.422-2.312.056.03.108.03.142 0 .252-.22.15-.29-.73-.711-.501-2.733 0-6.137zm11.82 2.672c.263.18.243.279.216.387-.035.139-.46.232-.654.232-.054 0-.09-.007-.094-.023 0-.126.208-.452.532-.596zm-2.184 2.866c-.27 0-.405.144-.405.432 0 .36.162.54.486.54h.027c.378 0 .693-.144.945-.432v-.162c0-.126-1.053-.378-1.053-.378zm3.494-2.18c.395.32-.324 1.223-.75 2.145l-.148.317c.743-.472 1.13-1.389 1.13-1.389.18.286-.406 1.065-.226 1.296.198.702 1.004 1.55-.81 3.274-.236.144-2.933 1.585-3.149 1.585-.162 0-.279-.125-.675-.485l.81-.648v-.19l-.027-.026h-.162c-.27 0-.612.17-1.026.513a7.534 7.534 0 0 1-.736-.88c.335-.266.47-.448.45-.695.05-.304-.154-.353-.312-.353-.072 0-.135.01-.158.01v.217c-.054.108-.17.198-.35.27-.073 0-.109-.243-.109-.243 0-.126.288-.522.864-1.188 1.584-1.944 2.807-2.934 3.85-2.934l.237.018c-.399.252-.215.676-.215.676.42-.369 1.1-1.132 1.512-1.29zm1.099 1.31h.008c2.734 2.627 3.15 4.413 3.166 10.404l-4.632.073-.065-4.818c0-.323.07-.712.359-.874 1.942-1.5.958-3.777.83-4.03-.048-.576.177-.754.334-.754zm-2.332-2.6c-.162 0-.52 0-.883.394-.322.35-.426 1.011-1.05 1.237-.624.425-1.038.87-1.433 1.277-1.584 1.728-2.114 2.33-2.132 2.673-1.263 1.03.1 1.64.514 1.877 1.35 1.566 1.12 1.455 1.698 1.71.21.056.33.103.436.103.115 0 .214-.054.392-.212.198 0 2.321-1.025 2.321-1.025.234 0 .333.772.333 2.536-.022 1.213-.148 3.215-.008 3.215.002 0 .005 0 .008-.002l.054.081h6.128l.027-.027-.08-1.782c-.127-2.232.778-7.835-4.409-10.727.061-.361-.23-.757-.597-.757-.184 0-.387.1-.574.352-.033-.436-.22-.89-.745-.923zm14.35.604c.263.18.243.279.216.387-.035.139-.46.232-.654.232-.054 0-.09-.007-.094-.023 0-.126.208-.452.532-.596zm-2.184 2.866c-.27 0-.405.144-.405.432 0 .36.162.54.486.54h.027c.378 0 .693-.144.945-.432v-.162c0-.126-1.053-.378-1.053-.378zm3.494-2.18c.395.32-.324 1.223-.75 2.145l-.148.317c.743-.472 1.13-1.389 1.13-1.389.18.286-.406 1.065-.226 1.296.198.702 1.004 1.55-.81 3.274-.236.144-2.933 1.585-3.149 1.585-.162 0-.279-.125-.675-.485l.81-.648v-.19l-.027-.026h-.162c-.27 0-.612.17-1.026.513a7.534 7.534 0 0 1-.736-.88c.335-.266.47-.448.45-.695.05-.304-.154-.353-.312-.353-.072 0-.135.01-.158.01v.217c-.054.108-.17.198-.35.27-.073 0-.109-.243-.109-.243 0-.126.288-.522.864-1.188 1.584-1.944 2.807-2.934 3.85-2.934l.237.018c-.399.252-.215.676-.215.676.42-.369 1.1-1.132 1.512-1.29zm1.099 1.31h.008c2.734 2.627 3.15 4.413 3.166 10.404l-4.632.073-.065-4.818c0-.323.07-.712.359-.874 1.942-1.5.958-3.777.83-4.03-.048-.576.177-.754.334-.754zm-2.332-2.6c-.162 0-.52 0-.883.394-.322.35-.426 1.011-1.05 1.237-.624.425-1.038.87-1.433 1.277-1.584 1.728-2.114 2.33-2.132 2.673-1.263 1.03.1 1.64.514 1.877 1.35 1.566 1.12 1.455 1.698 1.71.21.056.33.103.436.103.115 0 .214-.054.392-.212.198 0 2.321-1.025 2.321-1.025.234 0 .333.772.333 2.536-.022 1.213-.148 3.215-.008 3.215.002 0 .005 0 .008-.002l.054.081h6.128l.027-.027-.08-1.782c-.127-2.232.778-7.835-4.409-10.727.061-.361-.23-.757-.597-.757-.184 0-.387.1-.574.352-.033-.436-.22-.89-.745-.923zM78.56.885q3.633.442 0 6.73-3.632-6.288 0-6.73zm0-.885q-5.03.35-.698 8.08h-4.285v1.095h4.238V18h1.444V9.128h4.285V8.08h-4.285Q83.59.326 78.561 0zm13.892 3.02q-.229.228 0 .42l-.65-.245.65-.176zm3.51-.018l.633.193-.632.246q.228-.193 0-.44zm-3.072-.018l.527.387-.562.105q.211-.193.035-.492zm2.634-.017q-.176.316.035.509l-.562-.105.527-.404zm.073-.144q-.183 0-.293.056-.377.193-.518.562.316.174.706.174.63 0 1.454-.455-.898-.337-1.349-.337zm-2.772.002q-.454 0-1.374.352.823.45 1.45.45.404 0 .727-.186-.14-.369-.518-.562-.107-.054-.285-.054zm-2.801-.838q-.103 0-.232.12-.36.333.588 1.913l.176-.123-.281-.684.017-.562-.228-.035q.07.088.079.386.009.298.307.843l-.052.052q-.123-.228-.387-.816-.263-.588-.096-.816.064-.088.129-.088.105 0 .213.228l.053-.035q-.102-.383-.286-.383zm8.364 0q-.189 0-.301.383l.052.035q.109-.228.217-.228.067 0 .135.088.175.228-.088.816-.264.588-.404.816l-.053-.052q.299-.545.308-.843.008-.298.079-.386l-.211.035.017.562-.28.684.158.123q.965-1.58.605-1.913-.129-.12-.234-.12zm-8.252-.243q.15 0 .2.213.097.413.07.685-.019.196.195.196.083 0 .2-.03-.456.51-.035.931.106.58-.193.597h-.01q-.297 0-.78-1-.491-1.019-.017-1.405.229-.187.37-.187zm8.142 0q.141 0 .37.187.475.386-.026 1.404-.492 1.001-.78 1.001h-.01q-.29-.017-.184-.597.404-.421-.035-.93.112.03.192.03.207 0 .194-.197-.018-.272.079-.685.05-.213.2-.213zm-2.687.368q-.109 0-.208.021-.614.132-.825.57-.193.597-.184 1.326.009.728.404.86t.272.272q-.068.078-.163.078-.076 0-.17-.051-.081-.044-.153-.044-.116 0-.208.114-.074.092-.151.092t-.156-.092q-.098-.114-.212-.114-.07 0-.148.044-.09.05-.167.05-.094 0-.166-.077-.132-.14.263-.272t.404-.851q.009-.72-.167-1.334-.176-.44-.764-.571-.093-.02-.198-.02-.562 0-1.478.59l-.035.264q.863-.537 1.5-.537.424 0 .747.238.368 1.37-.053 2.002-.72.175-.491.579.134.238.373.238.165 0 .381-.115.185.228.365.228t.355-.228q.223.115.394.115.244 0 .379-.238.228-.404-.51-.58-.333-.631-.035-2 .336-.25.77-.25.634 0 1.477.53l-.052-.263q-.825-.574-1.39-.574zm-.93 3.8q.197 0 .494.11-.502.167-1.018.167-.46 0-.93-.132.34-.138.554-.138.14 0 .227.059.11.074.217.074t.213-.074q.092-.065.243-.065zm-1.455.285q.5.184 1.032.184.53 0 1.093-.184-.58.386-1.124.413l-.061.001q-.509 0-.94-.414zm.597-.51q-.421.089-.948.387.474.58.93.685.19.043.39.043.285 0 .594-.087.526-.15.772-.658-.562-.281-.93-.352l-.404.158-.404-.175zm1.738-4.318q.773.738 1.861 1.405.193.509.088.667-.105.158-.21.93-.545 1.23-1.01 2.02-.465.79-.966 1.114-.218.141-.454.141-.306 0-.643-.238-.404.277-.705.277-.158 0-.287-.075-.377-.22-1-.965-.624-.746-1.098-2.274-.105-.772-.202-.921-.096-.15.08-.676 1.544-.685 1.86-1.37.656.273 1.307.273.692 0 1.38-.308zm-1.334 6.39q.46.32.82.32.094 0 .18-.021l.352 2.3H92.82l.386-2.3q.088.022.182.022.36 0 .82-.32zm0-7.759q-2.791 0-3.546 2.493.07-.755-.369-.974-.106-.054-.215-.054-.34 0-.706.519-.483.684.746 2.44.224.483.457.483h.008q.237-.01.325-.237.491 2.071 1.966 3.072l-.492 2.95h3.582l-.422-2.95q1.124-1.036 1.966-3.072.088.228.325.237h.009q.232 0 .456-.483 1.23-1.756.738-2.44-.372-.519-.71-.519-.108 0-.212.054-.43.219-.342.974Q96.998 0 94.207 0zm7.12 13.697q-2.48 3.372-7.137 3.463-4.627-.091-7.107-3.463zm-15.783-.8Q88.084 17.98 94.19 18q6.135-.02 8.676-5.103zm28.515-10.812q-.253 0-.334.08-.071.082-.192.082v.09l.141.021q.157.157.418.157.193 0 .443-.086l.253.07.02-.181-.223-.02q-.324-.183-.526-.213zm1.326-1.62q.467 0 1.084.142 1.042.233 1.052 1.316.01 1.073-.607 1.57-.327.271-.595.271-.23 0-.417-.201-.183-.182-.071-.294.293-.09.273-.455.314-.385.314-.658.02-.477-.438-.477h-.038q-.202.021-.344.132-.896-.594-1.577-.594-.073 0-.144.007.293-.516.921-.688.256-.072.587-.072zm2.845 6.803q.395.81 1.55 2.36-.436-.294-2.137-.618l.587-1.742zm-4.198-5.704q.639 0 1.363.551l-.07.203q.085.05.165.05.034 0 .067-.01.162-.425.365-.425.024-.003.046-.003.195 0 .177.246 0 .253-.274.567 0 .28-.136.28-.021 0-.046-.007-.182-.04-.152-.202-.121.455.213 1.154l.496 1.083q.172.375.546.395.375.02.861.111.486.092.263.658-.222.567-.931 2.542l-.476-.223q-.496-1.002-1.721-1.701-.233.223.091.587l-.364.8q-.071.476.364.75.607.273 1.336.273l.638.516-.182 3.34-1.822.406q-1.428-4.566-1.701-4.961-.274-.395-.152-2.258-.05-.637 1.043-.637 1.134 0 1.043-.517l-.142-.415q-.112-.385-.091-.476-.09-.024-.208-.024-.177 0-.42.055-.23.02-.396.02-.333 0-.414-.081-.121-.122-.081-.334l.324-.112q.111-.06.04-.202l-.455-.04q.162-.345-.04-.456l-.058.002q-.216 0-.216-.144.07-.132.284-.486.212-.354.516-.455.136-.044.27-.044.176 0 .347.074.304.121.578.192l.05-.121q-.253-.06-.526-.203-.264-.136-.491-.136-.228 0-.42.136.05-.182.141-.273.176-.045.358-.045zm-3.921 9.562l3.725 2.581-4.16 1.256q.14-2.886-.386-3.837zm6.651 2.43q.425 1.63-.506 2.834-.834.498-1.879.498-.717 0-1.533-.235-.836-.245-1.638-.245-1.118 0-2.169.478.183-.637 2.977-2.085l4.748-1.246zM115.53 0q-.324 0-.651.05-1.134.131-1.66 1.559-.071.385-.345.719-.273.324-.354.719 0 .222.284.232.283.01.07.193-.09.02-.07.09.01.072.07.092-.131.142 0 .192.142.061.102.203-.03.152.05.374.081.233.81.233l.628-.09q-.04.151.05.364-1.822.02-2.267.79-1.529 1.275-2.906 2.703-.273-.567-1.245-1.55-.962-.971-1.124-1.427-.334-.992-1.427-1.883-.243.182 0 .587l-.456.73q-.132.475.253.799.587.354 1.205.75 1.7 3.016 2.49 3.26.044.006.092.006.6 0 1.802-1.07 1.19-1.04 1.411-1.04.079 0 .036.129 0 .658.274 1.124.273.465 1.336 4.232l-3.31-2.47q-.75-.68-1.317-.68-1.59.021-1.407 1.317l.567 4.04q-1.205.293-1.114 1.812-.546.111-1.002.314-.368.159-.743.159-.079 0-.158-.007l-.054-.002q-.412 0-.584.447h16.088q-.411-.804-1.113-.804-.146 0-.305.035-.153.034-.29.034-.675 0-.945-.834-.2-.632-.576-.632-.215 0-.487.207.729-1.408.04-2.957.03-1.68.142-2.996 2.38.749 3.149.749.597-.061.597-.517-.526-2.045-2.43-4.566-.384-.77-1.974-.84-.273-.364-.293-.638.658-.152 1.103-.688.456-.537.446-1.742-.01-1.194-1.043-1.559Q116.26 0 115.53 0zm9.1 0l-1.464 1.73h.714l.75-.894.756.894.735-.894.757.894.75-.894.757.894.75-.894.756.894.735-.894.757.894.757-.894.735.894.757-.894.75.894h.713L133.632 0l-.757.836L132.14 0l-.757.836-.757-.836-.735.836-.757-.836-.75.836-.756-.836-.75.836-.757-.836-.735.836L124.63 0zm2.99 7.48l.043.006c.525.068 1.049.176 1.533.395a9.17 9.17 0 0 0 1.069.334c-.604.103-1.21.202-1.798.372-.236.055-.473.104-.71.156.16-.179.275-.415.248-.66-.026-.248-.19-.459-.385-.603zm-1.35-.038c.002 0 .001.002-.005.008-.206.245-.306.592-.213.904a.924.924 0 0 0 .362.485c-.466-.06-.925-.172-1.393-.23a2.932 2.932 0 0 0-.186-.005c-.145 0-.291.007-.437.008.171-.103.302-.258.43-.408.385-.387.895-.63 1.42-.758.006 0 .017-.004.021-.004zm.606-.58a3.552 3.552 0 0 0-.051 0 3.367 3.367 0 0 0-2.573 1.324c-.175.177-.421.251-.655.315-.057.012-.112.036-.17.04a.196.196 0 0 0-.028-.002c-.127 0-.23.125-.233.248a.19.19 0 0 0 .15.197.903.903 0 0 0 .176.016c.125 0 .251-.018.377-.018.03 0 .06 0 .089.003h.105c.58 0 1.162.064 1.718.23.36.088.733.148 1.104.148.21 0 .419-.019.625-.062.414-.098.828-.202 1.238-.316.854-.232 1.711-.47 2.594-.558.13-.015.26-.02.388-.036.108-.03.157-.156.132-.258-.014-.092-.092-.177-.187-.177h-.018a.883.883 0 0 1-.087.005c-.078 0-.156-.008-.234-.012-.76-.054-1.494-.286-2.2-.56-.571-.223-1.159-.419-1.77-.495a4.049 4.049 0 0 0-.49-.032zm3.629-3.484c.193.046.36.066.562.07a5.943 5.943 0 0 0-.327 2.32c.737.346 1.474.457 2.225.457.534 0 1.075-.056 1.63-.122-.825 2.558-2.646 4.383-4.623 5.61-.912.566-2.689 1.06-4.15 1.3l-.082.013c.115-.023.231-.047.35-.075 1.154-.27 2.38-.659 3.102-1.015 1.732-.855 3.196-2.807 3.535-4.421a.875.875 0 0 0-.196-.758c-.172-.201-.422-.344-.712-.447a3.946 3.946 0 0 0-1.292-.2c-.15 0-.3.006-.448.02.276-.942.458-1.826.426-2.752zm-.387-.485c.138 1.252-.17 2.478-.539 3.665a4.435 4.435 0 0 1 2.121.087c.252.089.448.21.562.343a.483.483 0 0 1 .117.454c-.307 1.464-1.736 3.383-3.344 4.176-.67.33-1.891.722-3.027.988a14.21 14.21 0 0 1-1.775.275c-.315.059-1.027-.026-1.034.418.071.214.387.24.637.24l.209-.002a12.47 12.47 0 0 0 1.834-.174c1.492-.244 3.275-.725 4.28-1.349 2.39-1.49 4.15-3.63 4.936-6.353a8.67 8.67 0 0 1-1.824.202 7.221 7.221 0 0 1-2.189-.333c-.033-.86.198-1.653.495-2.448-.11.012-.216.017-.318.017-.394 0-.74-.08-1.141-.206zm-5.873 13.467q-.069 0-.133.021-.251.082-.222.244.025.138.225.138.036 0 .079-.005.273-.03.48-.221-.231-.176-.43-.176zm.128-.149q.533 0 1.646.636.558.29 1.224.29.322 0 .668-.068.872-.178 1.833-.31.327-.046.632-.046.595 0 1.113.17.783.26 1.3.334.518.073 1.641.133-.724.073-1.419.073-.695 0-1.64-.155-.474-.077-.912-.077-.438 0-.84.077-.806.155-1.833.289-.257.033-.505.033-.745 0-1.41-.3-.646-.44-1.341-.44-.308 0-.625.086-.28-.015-.251-.31.163-.4.695-.415h.024zm.395-1.508q-.32 0-.597.976-.231-.862-.597-.862-.055 0-.112.02-.444.28.295 1.079-.59.34-.59.857 0 .517.871.577.27-.071.527-.071.603 0 1.136.388.457.333 1.449.333.66 0 1.56-.148 1.103-.31 2.145-.31.395 0 .781.044.966.112 1.645.112.308 0 .558-.023 1.256-.03 1.256-.237-.34-.31-.96-.414-1.316-.014-2.403-.458-.543-.222-1.332-.222t-1.824.222q-.667.168-1.242.168-.788 0-1.404-.316-.635-.384-1.345-.635.592-.459.555-.762-.037-.303-.363-.317h-.01zM140.605.591c.673 0 1.128.1 1.508.529.522.52.621 1.29.572 1.992-.01 1.612-.294 3.21-.766 4.75-.369 1.266-.811 2.51-1.214 3.766h-.196c-.018-.062-1.925-5.289-2.01-8-.015-.79-.129-1.684.412-2.341.334-.459 1.01-.696 1.694-.696zm.416 11.625v.684c0 .124.078.234.194.276.171.062.328.172.49.304h-2.39a1.7 1.7 0 0 1 .488-.304.294.294 0 0 0 .195-.276v-.684zm1.644 2.477c.06.121.07.367.054.538h-4.375a2.059 2.059 0 0 1-.023-.538zm-.465 1.819c-.317.471-.951.9-1.618.9-.721 0-1.422-.417-1.761-.9zM140.636 0c-1.275 0-2.737.735-2.737 2.246-.073.922.019 1.85.115 2.768.289 2.285 1.15 4.436 1.859 6.614h-.017c-.094 0-.446.01-.446.294v.784c-.402.198-.682.5-.955.723h-.875a.294.294 0 0 0-.295.294v.792c0 .157.184.287.342.293.07.133.083.252.1.375l-.329-.01h-.004a.307.307 0 0 0-.299.294v.76c0 .163.132.295.294.295.205 0 .675.01.757.01h.01c.368.843 1.355 1.468 2.426 1.468 1.04 0 1.944-.67 2.284-1.478h.764c.275 0 .293-.192.293-.294v-.761c0-.128.056-.285-.59-.285a1.48 1.48 0 0 0-.016-.368c.284-.017.416-.142.416-.3v-.791a.294.294 0 0 0-.294-.294h-.876c-.272-.222-.552-.525-.954-.723v-.784c0-.16-.128-.29-.287-.293.006-.037 1.839-5.082 1.93-7.732.07-.998.168-2.12-.5-2.956C142.337.368 141.9 0 140.637 0zm12.331.672q1.526 0 2.697 1.13 1.17 1.13 1.17 2.677 0 1.628-1.14 2.707-1.14 1.08-2.727 1.08-1.588 0-2.708-1.11t-1.1-2.677q.021-1.588 1.14-2.697 1.12-1.11 2.668-1.11zm5.74 3.298q.428 0 .631.407v6.575h-12.763V4.377q.224-.387.63-.387.774 0 1.09 1.262.315 1.262 1.527 2.464 1.19 1.18 3.06 1.18h.064q1.954 0 3.166-1.2 1.21-1.202 1.526-2.464.316-1.262 1.07-1.262zM152.87 0q-1.555 0-2.854 1.1-1.384 1.18-1.527 2.768-.366-.55-1.282-.55-.815 0-1.283.672v7.614h14.067V3.97q-.448-.652-1.262-.652-.876 0-1.263.51-.02-1.446-1.547-2.708Q154.534 0 152.926 0h-.057zm.086 14.191c1.069 0 2.406.55 3.054 1.197.566.566.64 1.316.66 2.014h-7.396c.02-.698.095-1.448.66-2.014.648-.648 1.954-1.197 3.022-1.197zm0-.598c-1.267 0-2.631.586-3.43 1.385-.82.82-.913 1.9-.913 2.707V18h8.687v-.315c0-.807-.061-1.887-.881-2.707-.8-.799-2.195-1.385-3.463-1.385zm14.811-11.058q-.166 0-.292.073-.23.133-.23.254.332-.11.588-.11.192 0 .342.062.35.144.93.193l-.145-.121q-.532-.193-.894-.302-.163-.049-.299-.049zm.227.52l.41.169q-.217.097-.434.12.169-.12.024-.289zm-.362 0q-.097.169.024.314-.17-.048-.29-.097.048-.12.266-.217zm.099-.163q-.308 0-.437.235l-.218.145v.121l.194.024q.177.108.43.108.368 0 .897-.229l.508.073.024-.193-.556-.024q-.519-.26-.842-.26zm1.523-1.838q.563 0 1.166.214.882.314 1.304 1.244.423.93-.12 1.98-.398.767-.782.767-.141 0-.28-.103-.52-.387-.52-.942.483-.435.604-.845.12-.41-.013-.749-.132-.338-.507-.398-.064-.01-.129-.01-.311 0-.631.24-.604-.339-1.594-.58.194-.628.99-.773.252-.045.512-.045zm-1.84 1.204q.942.17 1.932.676l.193-.048q.204-.188.356-.188.083 0 .151.055.193.157.097.471-.097.314-.749.845.218 1.28 1.207 1.738-.302.688-.93.688-.276 0-.615-.132-.072-.894-.628-1.4.821-.435.894-1.57h-.12q-.122 1.014-.737 1.328-.616.314-1.002.362-.109.018-.187.018-.236 0-.2-.163.049-.217-.072-.362.126.007.225.007.542 0 .246-.224-.24-.183-.385-.183-.065 0-.11.038.096-.362-.386-.362.555-.894.82-1.594zm4.008 4.008q.7 1.256.894 2.704l-.483.097q-.049-1.4-.41-2.8zm-.53.048q.53 1.135.53 4.733 0 3.597-.7 5.987l.604.483h-8.475v-.048l2.294-.773q-.821-3.621-1.835-5.311t-.447-2.077q.142-.096.292-.096.45 0 .976.869l3.356 4.49h.434q.46-5.552 1.039-7.701.405.164.75.164.724 0 1.181-.72zM167.11 0q-.047 0-.095.013-.181.048-.326.133-.145.084-.096.193.04.089.2.089.036 0 .077-.005.033-.003.056-.003.137 0-.08.124-.253.145-.181.724.072.58.435.749-.194.797-.664 1.473-.455.652.205.652h.048q-.169.24.048.29-.193.12-.048.216.145.097.097.46-.29 1.713-.773 2.377-.396.545-.736.545-.074 0-.145-.026-.177-.064-.292-.064-.144 0-.191.1-.085.182.253.363.118.063.283.063.308 0 .78-.22.724-.338 1.593-2.921l.41-.121q.508.386.628 1.207-.724 2.487-1.11 7.364l-3.284-4.612q-.604-.526-1.064-.526-.257 0-.469.164-.591.459-.676.785-.084.326.893 2.137.978 1.81 1.678 4.635l-2.245.773.12.869h9.924l-1.062-1.183q.627-2.028.627-7.219l.87-.12q0-2.005-1.256-3.96 1.183-1.835.676-3.055-.507-1.219-1.436-1.569-.817-.308-1.69-.308-.12 0-.242.006-1.002.049-1.557 1.063-.218-.338.06-.604.278-.266.109-.628.048-.193-.109-.326Q167.24 0 167.111 0z"/></svg>