<svg xmlns="http://www.w3.org/2000/svg" width="127.134" height="18"><path d="M3.73.474c.693 0 1.247.2 1.634.479.006.053.02.107.009.16-.05.248-.195.477-.396.63-.316.207-.697.267-1.057.356-.09.01-.019.031.031.04.23.04.707.099.971.099l.052-.001c.278-.032.54-.148.766-.311.079-.067.147-.15.205-.236.147.346.227.713.26.917.018.11.096.2.202.233 1.139.349 2.038 1.91 2.88 2.949 1.729 2.137 3.199 4.526 4.892 6.76-.937-.456-1.87-.916-2.81-1.374-1.92-1.01-3.92-1.816-5.604-3.09l-.008-.008c-.97-.808-1.963-1.66-2.339-2.793-.148-.92 1.757-2.577 1.542-2.646a.207.207 0 0 0-.064-.01c-.458 0-1.753 1.128-2.019 2.202-.003-.014-.01-.03-.014-.045-.073-.356-.154-1.256.068-1.98a.29.29 0 0 0 .01-.103 1.968 1.968 0 0 0-.123-.634c-.063-.17-.139-.344-.26-.765-.031-.108-.142-.328-.208-.345.186-.138.375-.28.645-.375a.434.434 0 0 0-.132.314c0 .23.164.415.365.415.2 0 .364-.186.364-.415V.894a.411.411 0 0 0-.255-.39c.053-.007.096-.019.154-.022.081-.006.16-.008.238-.008zm.67 7.763c.065.065.135.124.202.187.214.78.412 1.64.692 2.305.483 1.145 1.216 2.141 1.84 3.154a1.814 1.814 0 0 0-.385.27 6.831 6.831 0 0 0-.199.193 2.61 2.61 0 0 0-1.186-.897c.045-.723-.108-1.712-.34-2.787A34.903 34.903 0 0 0 4.4 8.237zm1.006.908c1.149.945 2.428 1.738 3.676 2.54-.018.91-.018 1.778.084 2.675a3.411 3.411 0 0 0-1.437-.736c-.02 0-.037.012-.057.012-.649-1.063-1.383-2.06-1.837-3.134-.156-.37-.293-.85-.429-1.357zm.407 5.254a2.5 2.5 0 0 1 .44.541.3.3 0 0 0 .257.14.29.29 0 0 0 .17-.053c.215-.156.347-.324.476-.446.047-.045.097-.08.148-.117l.149 2.722c-.213-.014-.435-.035-.637-.035-.264 0-.495.036-.633.172-.169-.134-.497-.164-.89-.164-.102 0-.207.002-.316.004l.836-2.764zM6.97 9.574c1.354.787 2.784 1.414 4.135 2.125a.244.244 0 0 0 .006.003c1.295.631 2.586 1.28 3.894 1.904.984 1.189 2.052 2.295 3.078 3.42l-2.15.362-4.267-4.635a.288.288 0 0 0-.037-.036c-1.499-1.137-3.152-2.082-4.66-3.143zM3.796 0c-.135 0-.273.005-.411.013C2.3.083 1.512.54 1.243 1.157c-.04.093-.146.314-.007.314a2.35 2.35 0 0 1 .341-.028c.418 0 .38.172.47.194.09.282.29.846.303 1.068-.244.86-.153 1.763-.064 2.198.15.732.63 1.584 1.261 2.38a.285.285 0 0 0 0 .166 35.3 35.3 0 0 1 .903 3.336c.251 1.168.393 2.277.317 2.823a.294.294 0 0 0 .221.328c.045.011.084.031.127.045l-.928 3.079a2.847 2.847 0 0 0-.593-.055c-.381 0-.756.05-1.064.05-.125 0-.24-.008-.34-.032a.546.546 0 0 0-.125-.012c-.436 0-1.428.306-1.34.879.15-.128.257-.159.375-.159.11 0 .23.027.405.027h.027c.254-.004.697-.083 1.053-.083.18 0 .338.02.438.08.236-.01.45-.013.649-.013.85 0 1.447.07 2.5.075a89.565 89.565 0 0 0 2.974-.079c.45.003.697.054.922.054h.04c.134-.004.265-.057.48-.057.123 0 .273.017.468.07-.25-.341-.877-.685-1.33-.685a.591.591 0 0 0-.302.071 5.081 5.081 0 0 0-.508-.022c-.22 0-.448.01-.678.02l-.157-2.83c.487.203.857.517 1.281 1.021a.295.295 0 0 0 .513-.246c-.192-1.039-.213-2.019-.202-3.06.54.354 1.072.713 1.576 1.094l4.36 4.738a.29.29 0 0 0 .263.09c.95-.159 1.9-.315 2.849-.474a.294.294 0 0 0 .23-.193.298.298 0 0 0-.06-.297c-.741-.83-1.508-1.631-2.25-2.445 1.269.78 2.875 1.755 3.08 1.755.022 0 .027-.013.012-.04-.094-.163-.9-.755-1.775-1.373.14.058.276.12.415.177l.017.01c.103.035.16.059.27.062a.286.286 0 0 0 .108-.016.317.317 0 0 0 .188-.152.32.32 0 0 0 .023-.238c-.017-.05-.038-.077-.054-.098-.061-.085-.103-.109-.162-.154a4.553 4.553 0 0 0-.205-.149c-.153-.105-.336-.223-.493-.328a4.992 4.992 0 0 1-.328-.233.307.307 0 0 0-.028-.025l-3.892-2.736c-.008-.006-.02-.001-.028-.006-1.333-1.869-2.588-3.825-4.046-5.627C9 4.496 8.145 2.888 6.758 2.352 6.69 1.956 6.54 1.225 6.003.703 5.547.26 4.888.056 4.147.011A5.728 5.728 0 0 0 3.796 0zm20.383 3.383q-.542 0-.628.418v.025q.061.11.258.11.567-.245.567-.455v-.024q0-.05-.197-.074zm1.97-.763q-.086.48-.85 1.034l.271.11.37-.135.184.123q1.416.677 3.755.714l3.67.037.049-.001q.627 0 .61.919-.02.954-.647 1.914-.394 0-.8-.302-.407-.301-.665-.708-.259-.406-.665-1.058.123 1.292.738 2.031-.75 0-1.335.142-.293.07-.488.07-.196 0-.294-.07-.123-.088-.61-.088-.295 0-.726.032-.332.025-.607.025-.668 0-1-.148-.308-.258-.388-.905-.08-.646.363-1.791-.91.652-.91 1.982v.443q-.456-.468-.715-1.034Q24.954 4.7 24.08 4.7q-.332 0-1.28.419-.32-.136-.259-.431l.616-.825q.443-.751.64-.837.099-.185.96-.185.37.099.37.271 0 .234-.246.468.467-.099.677-.554 0-.111.59-.406zm.53-2.62q-.06 0-.136.096-.936 1.49-1.7 2.068-.295.259-.8.27-.246 0-.75-.369-.752-.726-1.047-1.23-.333-.592-.431-.653-.05 0-.074.123 0 .702 1.428 2.598-.27.394-.505.898-.234.505-.554.77-.32.265.062.523 0 .32.53.517.43-.123 1.317-.381.53 0 .726.443.653.985.653 2.056.074 1.428-.985 2.733-.333.222-.333.616 0 .16.407.16.664 0 .664-.16l-.049-.332q0-.173.259-.259v-.025q0-.234.837-2.351.382 0 .603.37.283.935.283 1.55 0 .136-.172.58-.21.16-.258.578h.985l-.074-.308q-.05-.185.135-.32l-.086-.456q-.16-1.736-.16-2.043v-.025q.973-.234 1.496-.234t.806.19q.113.077.316.077.307 0 .823-.175.559-.189.858-.189.159 0 .244.054.246.154.246.523 0 1.354-.69 2.302-.22.222-.332.616h.85q.222-.074.098-.37.025-.32.296-.406 0-1.12.985-2.216.69.382.702 1.182 0 .308-.123.837l-.148.407q-.136.16-.246.603h.812q.148-.062.185-.135l-.123-.394q-.062-.173.172-.308-.123-.653.16-.985-.579-1.354-.579-2.13.308-1.268.394-2.376.148.775.037 1.859-.11 1.083.37 2.24.094.196.17.196.055 0 .1-.097.124-.702.05-3.878-.099-.394-.21-.604-.393-.603-.677-.628H30.52q-2.943 0-4.359-.837.234-.418.259-.572.024-.154 0-.376-.591.173-.887.456l-.246-.185q.258-.16.825-1.034.566-.874.665-1.367Q26.735 0 26.679 0zm6.525 13.464c.65.028 1.007.042 1.16.042h.07l-.084 3.397a4.983 4.983 0 0 1-1.292-.769l.146-2.67zm-9.476-.845c-.217.042-.504.174-.469.433v1.894a36.22 36.22 0 0 0-.978-.042c0 .238.196.56.804.56.007.537.104 1.194.202 1.53l.084.88c0 .098.168.126.35.126.216 0 .454-.042.454-.042l-.035-.88c3.452.027 10.036.202 10.364.202.168 0 .28-.182.28-.433l.084-3.795-2.076-.021-.168 2.956c-1.502.007-4.102.252-5.87.252-.56 0-1.042-.021-1.37-.091-.07-.077-.72-1.02-1.132-1.125a1.813 1.813 0 0 0-.245-.028c-.07-.573-.14-1.146-.203-1.712.126-.161.413-.12.49-.336.077-.105.028-.28-.12-.286-.083-.035-.314-.042-.412-.042zM47.95.92l.132.002h.069q2.49 0 4.748 2.14l-1.397 1.13q-1.309-1.249-3.42-1.249-2.11 0-3.419 1.25l-1.397-1.13Q45.495.92 47.95.92zm.132 2.886q2.35.03 3.866 2.467h-7.76q1.189-2.438 3.894-2.467zm0-3.806q-3.686.149-6.214 3.033l2.111 1.784q-.892 1.189-1.1 2.23h10.377q-.208-1.041-1.1-2.2l1.962-1.785Q51.769.15 48.082 0zm9.36 12.17q.442 0 .442.464v3.556h-1.347l.442-3.746q.021-.273.463-.273zm.021-.568q-1.073 0-1.136.61-.442 3.978-.947 4l-9.765.357-1.01-.042q-1.137-1.2-2.02-1.2l-.653-.042q-1.789.337-2.146.337-.253 0-.253.337 0 .463.716.463 1.228-.196 1.884-.196.12 0 .22.006.358 0 .59.295-.411.508-1.838.508-.11 0-.225-.003-1.62-.042-2.862-.421-.61 0-.61.716.063.652 4.566.673l2-.21 11.406-.064 3.199.043v-5.135q-.021-1.032-1.116-1.032zm6.802-8.531c-.27.13-.6.49-.1.55.24-.01.79-.26.69-.49a.221.221 0 0 1-.157.067c-.142 0-.287-.127-.433-.127zm-1.97.09c-.331.08-.501.44-.08.52l.021.002c.242 0 .901-.294.358-.361-.09-.06-.18-.16-.3-.16zm2.63-2.51c.59.69 1.111 1.49 1.211 2.41.1.66.13 1.321.23 1.971-.47-.04-.33-.77-.24-1.12.08-.69-.29-1.33-.55-1.941-.18-.33-.35-.85-.81-.86-.51.09-.841.52-1.171.89-.34-.34-.7-.71-1.17-.85a.236.236 0 0 0-.082-.013c-.105 0-.229.046-.285.046-.05 0-.049-.034.056-.164.064-.224.196-.29.359-.29.238 0 .543.141.8.141a.561.561 0 0 0 .112-.01c.084.004.169.007.254.007.437 0 .876-.067 1.286-.218zm-.16.76c.39.1.48.64.67.96.24.56.53 1.17.34 1.801-.15.3.04.68.02.9-.333.235-.626.73-1.069.73a.631.631 0 0 1-.15-.02c-.44-.09-.661-.51-1.001-.71-.246.238-.392.73-.798.73a.618.618 0 0 1-.183-.03c-.37-.08-.86-.04-.97-.49-.19-.46-.21-.97-.24-1.47a.324.324 0 0 0 .06.006c.203 0 .222-.235.24-.436.078-.293.287-.429.52-.429.158 0 .325.062.47.178.17.19.69.34.58.64-.05.18-.11.371-.17.561l.42.56c.04-.29.471-.53.22-.82-.04-.13-.19-.3-.17-.4.18-.32.421-.6.701-.84a.322.322 0 0 1 .23-.103c.268 0 .537.351.77.382.23-.25-.02-.35-.25-.48a.701.701 0 0 0-.486-.196c-.25 0-.5.13-.654.356-.19.114-.322.494-.49.494-.052 0-.108-.037-.17-.134-.306-.244-.672-.518-1.072-.518a.855.855 0 0 0-.179.018c-.283.059-.538.632-.56.632v-.001c-.01-.47.21-.89.34-1.351a.612.612 0 0 1 .596-.477c.173 0 .348.075.474.237.298.11.516.634.797.634.049 0 .1-.017.154-.054.31-.33.56-.72 1.01-.86zm-1.42 6.943c1.27 1.31 2.44 4.632 2.741 5.993-.49-.4-1.16-.66-1.31-.91-.16-.26-.6-2.792-1.431-5.083zm4.522-2.381c2.401 1.38 6.583 8.174 7.473 9.264-1.5-.95-2.981-1.91-4.592-2.691-2.26-1.11-4.192-2.911-6.033-4.592 1.521-.51 2.612-1.37 3.152-1.981zm-2.491 8.624c.32.19.61.45.96.59-.21.52-.34 1.1-.77 1.51-.081.13-.196.172-.328.172-.228 0-.504-.123-.735-.123-.016 0-.032 0-.048.002.28-.7.7-1.01.92-2.151zm.68-9.365c.06.126.138.167.22.167.108 0 .224-.071.32-.116.24.17 1.07.15.58.51-.31.42-1.967 1.566-3.119 1.768-.497.087.338.873.608 1.153 1.561 1.4 3.092 2.882 4.963 3.892 1.17.66 2.4 1.25 3.531 1.98.54.781 1.18 1.502 1.591 2.362-.41.12-.81.29-1.23.39a2.89 2.89 0 0 1-.703.082c-.661 0-1.325-.197-1.619-.512-.54-.57-1.13-3.001-1.44-3.892-.044-.1-.107-.133-.175-.133-.135 0-.292.132-.369.132a.042.042 0 0 1-.037-.019.391.391 0 0 0-.386-.376c-.175 0-.339.127-.314.396-.06.63-.18 1.26-.48 1.831-.037.097-.114.134-.215.134-.284 0-.761-.293-1.086-.374.13-.77-.92-4.712-4.002-8.014-.107-.116-.577-.611-.536-.611.005 0 .016.006.036.02.158.042.335.07.511.07.338 0 .669-.104.84-.42.026-.077.058-.108.096-.108.138 0 .345.399.564.399a.92.92 0 0 0 .514.155c.29 0 .578-.131.777-.355.19-.17.37-.34.56-.51zM65.016 0a3.72 3.72 0 0 1-1.36.28c-.072 0-.143-.004-.211-.01a.804.804 0 0 1-.143.012c-.337 0-.7-.18-1.025-.18a.622.622 0 0 0-.353.098c-.55.8-1.05 1.69-1.11 2.681-.11 1.901-.06 2.562 1.44 4.122.59 1.341 1.691 5.713 2.021 6.904.36.34-.45 2.2-.79 2.66-.185.256-.673.268-1.197.268h-.172c-.471 0-.948.01-1.242.193-.28.18-.38.85-.22.94.15-.23.45-.54.66-.57-.2.21.5.11.65.16.405.007.814.041 1.225.041.198 0 .397-.008.596-.03.09-.04.186-.102.228-.102.033 0 .033.038-.028.151.283.074.601.111.913.111.7 0 1.363-.187 1.508-.56.3-.551.58-1.131.78-1.732.256.054.577.234.835.234a.38.38 0 0 0 .206-.054c.28-.19.57-1.08.73-1.67.016-.062.099-.092.183-.092.081 0 .163.028.188.082.3.6.8 2.44 1.28 3.211.362.571 1.24.852 2.175.852a4.48 4.48 0 0 0 1.717-.332c.65-.28 1.13-.22.99-.58-.22-.6-.6-1.17-1-1.68.58.36 1.16.73 1.74 1.09.049.174.169.243.292.243.237 0 .483-.256.24-.513-2.272-3.282-5.884-8.875-8.385-10.685-.4-.35-.87-.62-1.39-.75-.17-.44-.12-1.031-.22-1.531-.1-.99-.701-2.632-1.752-3.262zm15.899 0L78.86 2.43h1.002l1.053-1.256 1.063 1.256 1.033-1.256 1.063 1.256 1.053-1.256L86.19 2.43l1.053-1.256 1.063 1.256 1.032-1.256 1.063 1.256 1.063-1.256 1.033 1.256 1.063-1.256 1.053 1.256h1.002L93.56 0l-1.063 1.174L91.464 0l-1.063 1.174L89.338 0l-1.032 1.174L87.243 0 86.19 1.174 85.127 0l-1.053 1.174L83.01 0l-1.033 1.174L80.915 0zm8.479 10.65v6.46h-4.333v-6.46zm-5.224-.911V18h6.135V9.739zm15.247-8.393l-1.781 2.116h.87l.911-1.093.912 1.093.92-1.093.922 1.093.911-1.114.922 1.114.92-1.093.912 1.093.911-1.114.922 1.114.91-1.093.922 1.093.911-1.093.922 1.093h.87l-1.792-2.116-.911 1.023-.921-1.023-.911 1.023-.922-1.023-.91 1.023-.912-1.023-.921 1.023-.922-1.023-.91 1.023-.922-1.023-.921 1.023-.912-1.023zm0 6.652l-1.781 2.095h.87l.911-1.073.912 1.073.92-1.073.922 1.073.911-1.093.922 1.093.92-1.073.912 1.073.911-1.093.922 1.093.91-1.073.922 1.073.911-1.073.922 1.073h.87l-1.792-2.095-.911 1.022-.921-1.022-.911 1.022-.922-1.022-.91 1.022-.912-1.022-.921 1.022-.922-1.022-.91 1.022-.922-1.022-.921 1.022-.912-1.022zm-.01 6.56l-1.792 2.096h.87l.922-1.073.922 1.073.9-1.073.922 1.073.921-1.094.921 1.094.922-1.073.9 1.073.922-1.094.921 1.094.901-1.073.922 1.073.921-1.073.921 1.073h.871l-1.792-2.096-.921 1.023-.922-1.023-.9 1.023-.922-1.023-.921 1.023-.901-1.023-.922 1.023-.92-1.023-.922 1.023-.921-1.023-.901 1.023-.922-1.023zM126.426.709v4.508h-11.513V.71zM114.204 0v5.926h12.93V0zm6.486 9.696q.812 0 1.655.354l-1.603 1.624-1.644-1.624q.78-.354 1.592-.354zm-3.507 2.123l1.624 1.623-1.624 1.624q-.707-1.686 0-3.247zm7.014.083q.707 1.686 0 3.247l-1.624-1.623 1.624-1.624zm-1.27-1.373q.5.229.791.79l-2.206 2.227 2.185 2.186q-.27.54-.811.79l-2.186-2.185-2.143 2.144q-.541-.333-.79-.812l2.143-2.123-2.248-2.247q.229-.541.812-.77l2.226 2.227 2.227-2.227zm-2.185 4.828l1.623 1.623q-.79.354-1.602.354t-1.644-.354l1.623-1.623zM120.7 9.01q-2.143 0-3.381 1.394-1.239 1.394-1.239 3.06 0 1.872 1.447 3.194 1.446 1.321 3.132 1.342 2.04-.02 3.32-1.405 1.28-1.384 1.28-3.132l-.022.042q.021-1.582-1.259-3.039-1.28-1.456-3.278-1.456z"/></svg>