<svg xmlns="http://www.w3.org/2000/svg" width="119.906" height="18"><path d="M18.058.568q-.111.037-.111.128t.07.146q.027.022.054.022.04 0 .077-.05.063-.081.021-.163-.041-.083-.11-.083zM2.67.47q-.153 0-.296.282.084.183.264.237.028.01.054.01.131 0 .224-.229 0-.255-.194-.292Q2.695.47 2.669.47zM1.665.787q-.042.128.027.238l-.583.073q-.014-.164.556-.31zm.568.436zm.105-.003q.12 0 .195.033.027.012 0 .012-.052 0-.288-.04.05-.005.093-.005zm2.564 1.252q.035 0 .097.068 1.125 1.223 2.792 2.865Q9.46 7.048 9.667 7.724 8.305 7.468 7.34 6.318q-.966-1.15-1.681-2.236-.716-1.086-.799-1.414-.017-.196.042-.196zm.046-.868q.202 0 .384.096 4.321 4.308 4.946 5.604.584 1.405.764 2.154-.076.11-.182.11-.087 0-.193-.074l-.57-1.515q-.43-1.296-2.104-2.875-1.674-1.579-2.424-2.5-.441-.542-.676-.542-.164 0-.227.268-.108.455-.38.455-.115 0-.26-.081.126-.858.542-1.022.198-.078.38-.078zm.357 6.43q.666 1.405.541 2.83-.125 0-.236.236-.045-.403-.277-.403-.051 0-.112.02.292-1.405.084-2.683zM2.827.346q.066 0 .116.013.25.063.292.237.029.122.058.122.013 0 .025-.022.042-.073.056-.164.305.53.041 1.57t.848 1.24q1.028 3.104 2.209 4.72 1.18 1.615.986 3.038-.449-.438-.993-.438-.113 0-.23.019.042-1.296-.472-2.556t-.945-1.889q-.43-.63-1.16-1.497-.73-.867-.722-1.789.007-.921.194-1.286.188-.365.181-.584-.003-.091-.027-.091-.035 0-.112.182-.132.31-.73.328l-.07.001q-.568 0-1.235-.274l.82.073q.404.11.601.11.162 0 .183-.074.049-.164-.076-.192-.125-.027-.257-.027t-.201.055l.026.052-.29-.052Q1.762.787 1.887.623q.028-.055.097-.055-.028.183.049.274.028.034.056.034.046 0 .09-.098.07-.155-.125-.228.511-.204.773-.204zm15.412.04q.375 0 .555.365.056.055.695.2v.056l-.695.073q-.597 0-.75-.12-.153-.118-.146-.273.007-.155.188-.155.18 0 .25.082t.035.173q-.035.092-.132.147h.028q.18 0 .187-.22.007-.237-.299-.273-.389 0-.291.374.092.357.854.357l.076-.001q.431-.037.765-.128L19.53.97q1.236 1.004 1.16 2.29-.077 1.288-.966 2.136-.889.85-1.584 1.871-1.083 1.734-1.167 2.72-.083.986.376.986.458 0 1.118-.721.66-.721 1.34-.74 1.82.055 1.612 2.209-.667-.93-1.5-.93-.417 0-1.14.474-1.097.766-1.667.766l-.472-.091q-.861-.84-.583-2.482.416-1.187 1.125-4.235.486-1.734.965-2.628.48-.895 1.022-.913.291 0 .944.365.027.01.047.01.094 0 .037-.21-.526-.429-1.226-.429-.225 0-.47.045-.208 0-.506-.146-.3-.146-.3-.694.251-.237.543-.237zM4.666 3.05q1.083 1.825 1.986 3.002.903 1.178 1.702 1.588.799.411 1.48.43.083.145 1.653 4.617l-.097.055-3.738-3.14q.028-.273-1.104-1.962-1.132-1.687-1.994-4.46l.112-.128zM8.5 10.918l2.07 1.66q.07.256-.5.348-.127.02-.233.02-.37 0-.49-.248-.152-.32-.389-.831-.236-.511-.458-.95zm7.071-.785q0 .767.167 1.332.43 1.004 1.153 1.023h.038q.711 0 1.699-.657.938-.625 1.365-.625.034 0 .066.004.416.055.903.566.486.51.514.894.05.311-.043.311-.06 0-.18-.128-.399-1.05-1.024-1.05h-.01q-.633.01-1.557.648-.923.639-2.153.639t-1.368-1.04q-.14-1.04.43-1.917zM5.277 11.192l.208.547q.195-.255.299-.3l.005-.002q.088 0-.304 1.543l-.583.238q-.153-.146.09-.904.243-.757.285-1.122zm14.763 1.14q.461 0 .727.502-.18.384-.847.603-.514 0-1.042-.566.685-.539 1.162-.539zm-1.607.758q.207.265.448.438h-1.883q.692-.095 1.435-.438zm-7.182 1.15q-1.554 2.935-4.48 3.011-2.913-.076-4.467-3.011zm11.239.018q-1.554 2.935-4.48 3.012-2.913-.077-4.48-3.012zM3.066.008q-.084 0-.179.013-.222 0-1.264.42-.834.255-.903.657l.028.62.417-.2q.68.292 1.139.292.458 0 .347.41-.111.411.028 1.37.139.958 1.097 1.934.959.977 1.188 2.556.23 1.578-.41 3.641l.209-.164q.004-.004.007-.004.046 0-.216.816-.277.867-.757.894-.084.005-.16.005-.348 0-.486-.105-.155-.12-.462-.12l-.045.001q-.34.01-.34.302v.182H1.33Q2.93 17.982 6.777 18q3.849-.018 5.446-4.472l-4.279.037q0-.165-.264-.356-.129-.094-.296-.094-.175 0-.391.103-.13.061-.278.061-.337 0-.771-.317.097-.639.236-1.14.139-.503.528-.594.036-.008.073-.008.362 0 .816.811.264-.675.153-1.825l.139.128q1.042 2.3 1.257 2.701.163.305.634.305.15 0 .331-.031.75-.128.737-.475l.639.42.486-.237-1.07-3.048q.264 0 .487-.292-.264-1.096-.82-2.446-.39-.822-.792-1.278Q8.681 4.603 7.5 3.39T5.763 1.518q-.373-.28-.775-.28-.226 0-.461.088-.653.246-.792 1.214-.042-.037.07-.73.11-.694-.05-1.287-.138-.514-.689-.514zM18.286 0q-.252 0-.478.094-.292.11-.347.42-.111.383.097.757.208.374.653.466-.89 1.058-1.514 3.741-.584 2.556-.973 3.779-1.042 1.113-1.035 2.236.007 1.122.424 1.597.301.343.878.438h-3.434q1.597 4.454 5.446 4.472 3.848-.018 5.445-4.472h-2.674q.153-.11.313-.256.156.245.354.245.083 0 .174-.044.347-.219.139-1.004.194-2.245-.459-2.865-.653-.621-1.473-.621-.75 0-1.625.849-.543.526-.743.526-.124 0-.118-.198.014-.52.611-1.761.403-.876 1.75-2.254 1.348-1.378 1.334-2.775-.014-1.396-.597-2.099-.584-.703-1.292-.794-.111-.2-.292-.328-.18-.128-.48-.146Q18.329 0 18.287 0zm16.782 8.704c.337 0 .752.06 1.245.18 1.04.253 1.941.612 2.7 1.076a33.53 33.53 0 0 1 2.554 1.752c-.907.459-1.95.689-3.13.689-.265 0-.537-.012-.816-.035-1.52-.127-2.824-.574-3.914-1.34-1.09-.767-1.361-1.238-.813-1.414.549-.176.996-.404 1.34-.686.182-.148.46-.222.834-.222zm7.259 3.176l.865.19c0 .225-.204.408-.612.549-.232.016-.474.024-.726.024-.42 0-.867-.022-1.342-.066.914-.113 1.52-.345 1.815-.697zm1.33.317l.527.105c.056.17-.14.338-.591.507l-.612-.042c.436-.197.661-.387.675-.57zm.801.211l.359.084c-.085.24-.338.36-.76.36.24-.156.373-.303.401-.444zm.591.211c.338.098.563.26.675.485l-.95-.21c.184-.085.275-.177.275-.275zm-2.195 1.245c1.055.127 1.85.422 2.385.886l-2.617-.612c.028-.154.106-.246.232-.274zM30.636.401c.661 0 1.16.183 1.499.549.337.365.443 1.248.316 2.648-.127 1.4-.169 2.35-.127 2.849.043.5.173.868.39 1.108.219.239.483.474.792.706.31.233.155.44-.464.623-.62.183-.964.454-1.034.812-.07.36.018.69.264.992.246.303.833.71 1.762 1.224.928.514 1.748.84 2.458.981.71.141 2.888.211 6.531.211 1.126.211 1.871.493 2.237.844l-2.406-.548a.943.943 0 0 0-.527.4c0 .366-.795.577-2.385.634-.239 0-.4-.33-.485-.992l-.253.211c.126.535.161 1.006.105 1.414a1.582 1.582 0 0 0-1.034-.95c-.788-.14-1.491-.27-2.11-.39-.619-.12-1.245-.376-1.878-.77-.563-.436-1.467-.908-2.712-1.414-1.245-.507-1.867-1.26-1.867-2.258 0-.999.334-1.825 1.002-2.48.668-.654 1.002-1.438 1.002-2.352 0-.45-.056-.876-.168-1.277-.102-.363-.406-.544-.91-.544a2.39 2.39 0 0 0-.167.006l-1.772.232a1.71 1.71 0 0 1 .253-.507c.14-.436.296-.689.464-.76.025.087.12.13.284.13.024 0 .049 0 .075-.003.281-.014.443-.154.485-.422-.028-.267-.19-.408-.485-.422-.253.014-.394.155-.422.422-.225.211-.4.458-.527.739a.273.273 0 0 1-.12.03.276.276 0 0 1-.197-.093c.169-.338.415-.686.739-1.045.323-.359.787-.538 1.392-.538zm4.79 13.758l.676.17-.76 1.097.084-1.267zm1.309.233c.562 0 1.037.06 1.424.179.387.12.626.573.718 1.361.09.774-.028 1.161-.352 1.161h-2.043a1.842 1.842 0 0 0-.137-.005c-.345 0-.729.093-1.15.279.112-.985.625-1.977 1.54-2.975zM30.636 0c-.956 0-1.744.535-2.363 1.604-.211.351-.837.703-1.878 1.055-.718.21-1.027.506-.929.886l.021.253c1.337-.126 2.455-.288 3.356-.485l1.646-.295a.89.89 0 0 1 .024 0c.49 0 .732.414.725 1.245-.007.844-.363 1.6-1.066 2.268-.703.668-1.062 1.635-1.076 2.902 0 1.027.489 1.762 1.466 2.205a39.78 39.78 0 0 1 2.839 1.424c.914.507 1.435.9 1.561 1.182-.07 1.491-.253 2.455-.548 2.89-.493 0-1.351-.07-2.575-.21-.38.056-.64.18-.78.37-.141.189-.113.397.084.622.094-.136.184-.204.27-.204.03 0 .06.008.088.024.113.064.394.095.845.095h2.068c.101-.02.197-.03.288-.03A.92.92 0 0 1 35.3 18a.988.988 0 0 0 .506-.169c.621.018 1.14.027 1.559.027.558 0 .935-.016 1.132-.048.344-.056.657-.105.939-.148l.717.232.024.001c.161 0 .182-.14.06-.423-.618-.337-.759-1.188-.421-2.553.119.003.234.004.345.004 1.113 0 1.842-.128 2.187-.384 1.407.253 2.553.5 3.44.739l.147-.253c-.366-.408-.64-.669-.823-.781l.929.19c.15.056.254.084.312.084.115 0 .046-.112-.207-.337-.056-.155-.464-.458-1.224-.908l1.288.253c.14-.9-.837-1.54-2.934-1.92a7.14 7.14 0 0 1-2.975-1.477c-1.168-1.027-2.933-1.78-5.297-2.258-1.252-.084-1.948-.468-2.089-1.15-.14-.682-.137-1.77.01-3.26.149-1.491-.059-2.462-.622-2.912C31.881.183 31.326 0 30.636 0z"/><path d="M37.4 0v7.2h1.205V0zm13.483 0l-2.478 2.93h1.208l1.27-1.514 1.281 1.514 1.245-1.514 1.282 1.514 1.27-1.514 1.281 1.514 1.27-1.514 1.281 1.514 1.245-1.514L62.32 2.93l1.282-1.514 1.245 1.514 1.281-1.514 1.27 1.514h1.208L66.128 0l-1.281 1.416L63.602 0 62.32 1.416 61.038 0l-1.245 1.416L58.512 0l-1.27 1.416L55.96 0l-1.269 1.416L53.409 0l-1.245 1.416L50.883 0zm1.887 14.172c1.075 0 2.42.552 3.07 1.202.569.57.643 1.324.664 2.025H49.07c.021-.701.095-1.456.665-2.025.65-.65 1.963-1.202 3.037-1.202zm0-.601c-1.273 0-2.644.588-3.448 1.392-.824.824-.917 1.909-.917 2.72V18h8.732v-.316c0-.812-.062-1.897-.886-2.721-.803-.804-2.206-1.392-3.48-1.392zm8.795-4.779q.537 0 1.415.292 1.505.502 3.118 2.097t1.29 2.957q-.322 1.362-1.254 2.043-.77.563-1.858.563-.229 0-.472-.025-1.398-.143-2.401-2.204-1.004-2.061-.932-3.674.072-1.613.502-1.9.209-.15.592-.15zm-.147-1.244q-.738 0-1.198.318-.968.68-1.075 2.795-.108 2.115 1.218 4.588 1.327 2.473 3.226 2.706.363.045.707.045 1.453 0 2.555-.797 1.362-.986 1.702-2.796.34-1.81-1.451-3.835-1.792-2.025-3.871-2.688-1.054-.336-1.813-.336zm10.344 9.577v-.14q0-.25.063-.438.062-.156.172-.297.093-.094.32-.297.227-.203.297-.328.07-.125.07-.266 0-.25-.203-.445t-.484-.195q-.282 0-.469.18-.188.18-.25.554l-.453-.062q.062-.5.367-.766t.79-.266q.53 0 .843.29.312.289.312.695 0 .234-.109.43-.11.195-.438.476-.203.188-.273.281-.07.094-.102.211-.03.117-.03.383h-.423zm-.03.875v-.5h.5v.5h-.5zm2.811-.875v-.14q0-.25.063-.438.062-.156.172-.297.093-.094.32-.297.226-.203.297-.328.07-.125.07-.266 0-.25-.203-.445t-.484-.195q-.282 0-.47.18-.187.18-.25.554l-.452-.062q.062-.5.367-.766t.789-.266q.531 0 .844.29.312.289.312.695 0 .234-.11.43-.109.195-.437.476-.203.188-.273.281-.07.094-.102.211-.031.117-.031.383h-.422zm-.031.875v-.5h.5v.5h-.5zm4.859-18c-.641 0-1.203.472-1.203 1.077v11.339h.783V1.077c0-.297.261-.393.425-.393.172 0 .438.12.438.485V8.62h.783V1.17c0-.606-.6-1.169-1.226-1.169zm10.267.404c-.02 2.978-.045 5.957-.063 8.935.043.483.068.967.125 1.448.032.258.2.497.164.76-.055.178-.172.457-.37.457a.275.275 0 0 1-.143-.045c-.319-.123-.623-.326-.975-.326-.02 0-.04 0-.06.002h-.052c-.669 0-1.327.147-1.99.212-.364.052-.725.134-1.093.134h-.047c.664-.15 1.32-.404 1.844-.85.712-.554 1.427-1.105 2.137-1.66.097-.12-.045-6.172-.094-9.046l.617-.021zM89.999 0c-.351.012-.875.006-1.226.028-.187.055-.154.264-.152.415l.146 8.798c-.778.594-1.549 1.198-2.33 1.786a3.985 3.985 0 0 1-1.455.556c-.228-.002-.459-.12-.686-.12a.527.527 0 0 0-.218.044c-.175.134-.236.503-.001.616.353.19.747.262 1.143.262.25 0 .5-.03.744-.075.564-.096 1.134-.152 1.7-.232.187-.017.38-.042.57-.042.207 0 .41.03.596.131.223.1.47.249.72.249a.556.556 0 0 0 .25-.058c.26-.163.411-.466.475-.76.053-.382-.206-.721-.202-1.102-.03-.416-.077-.831-.095-1.247.02-3.01.137-9.249.021-9.249zm-5.917 14.31q.734 0 1.339.366 1.23.714 2.331.714 1.108 0 2.033-.095v1.903q-1.149-.204-1.659-.204h-.013q-.415 0-1.156.095-3.011.415-3.752.415-1.23 0-2.318-.041-1.863-.109-2.046-.197-.177-.082-.177-.47 0-.38.102-.665.102-.286.34-.408 5.819-.259 6.274-.3-.405-.584-1.256-.584-.277 0-.6.061-1.084.214-1.671.214-.124 0-.225-.01-.578-.054-.537-.55.324.043.67.043.726 0 1.546-.193.404-.094.775-.094zm.173-.551q-.294 0-.581.074-1.163.306-2.046.32-.218 0-.782-.11-.265.245-.265.579 0 .333.21.564-2.222.081-2.222.265-.401.51-.401 1.223 0 .707.374.966 1.128.36 4.534.36.543 0 1.108-.054 3.154-.47 3.759-.483h.06q.62 0 2.278.258v-3.004l-.014.013q-1.42.163-2.318.184l-.092.001q-.854 0-1.756-.477-.956-.68-1.846-.68zM95.951 3.45l2.613 13.655h-5.225L95.95 3.45zm0-3.45l-3.67 18h7.401l-3.73-18zm22.834.872c.166 0 .25.602.25.768 0 .166-.084.768-.25.768h-15.94c-.194 0-.29-.602-.29-.768 0-.166.096-.768.29-.768zM102.347 0c-.443 0-.665.892-.665 1.64 0 .747.222 1.64.665 1.64h16.936c.415 0 .623-.893.623-1.64 0-.748-.208-1.64-.623-1.64zm16.438 6.207c.166 0 .25.602.25.768 0 .166-.084.768-.25.768h-15.94c-.194 0-.29-.602-.29-.768 0-.166.096-.768.29-.768zm-16.438-.872c-.443 0-.665.893-.665 1.64 0 .747.222 1.64.665 1.64h16.936c.415 0 .623-.893.623-1.64 0-.747-.208-1.64-.623-1.64zm-.665 5.335V18h1.225v-7.33zm8.424.01V18h1.225v-7.32zm8.575 0V18h1.225v-7.32z"/></svg>