<svg xmlns="http://www.w3.org/2000/svg" width="58.5" height="18"><path d="M15.434 8.778c.253 0 .564.045.934.135.78.19 1.456.459 2.026.807.57.348 1.208.786 1.915 1.314-.68.344-1.463.516-2.347.516-.2 0-.403-.008-.613-.026-1.14-.095-2.118-.43-2.935-1.005-.818-.575-1.021-.928-.61-1.06.412-.132.747-.303 1.005-.514.136-.111.345-.167.625-.167zm5.445 2.382l.649.143c0 .169-.153.306-.46.411a8.012 8.012 0 0 1-.544.018c-.315 0-.65-.016-1.006-.05.685-.084 1.14-.258 1.36-.522zm.997.238l.395.079c.043.126-.105.253-.443.38l-.459-.032c.327-.148.496-.29.507-.427zm.601.158l.27.063c-.064.18-.254.27-.57.27.179-.117.28-.228.3-.333zm.443.158c.254.074.422.195.507.364l-.712-.158c.137-.063.205-.132.205-.206zm-1.646.934c.792.095 1.388.317 1.789.665l-1.963-.46c.021-.115.08-.184.174-.205zM12.111 2.551c.496 0 .87.137 1.124.411.253.275.332.937.237 1.986-.095 1.05-.127 1.762-.095 2.137s.13.652.293.83c.163.18.361.357.593.531.232.174.116.33-.348.467-.464.137-.723.34-.775.61a.867.867 0 0 0 .197.743c.185.227.626.533 1.322.918.696.385 1.31.63 1.844.736.533.105 2.165.158 4.898.158.844.159 1.403.37 1.678.633l-1.805-.411a.707.707 0 0 0-.395.3c0 .275-.596.433-1.789.475-.179 0-.3-.248-.364-.744l-.19.159c.095.4.122.754.08 1.06a1.186 1.186 0 0 0-.776-.712 122.69 122.69 0 0 1-1.583-.293 4.173 4.173 0 0 1-1.408-.578c-.422-.327-1.1-.68-2.034-1.06-.934-.38-1.4-.944-1.4-1.693 0-.75.25-1.37.751-1.86s.752-1.079.752-1.765c0-.337-.042-.656-.127-.957-.076-.272-.304-.408-.682-.408-.04 0-.082.001-.125.004l-1.33.174c.043-.137.106-.263.19-.38.106-.327.222-.516.349-.57.018.065.09.098.213.098.017 0 .036 0 .056-.002.211-.01.332-.116.364-.317-.021-.2-.142-.306-.364-.316-.19.01-.295.116-.317.316-.168.159-.3.343-.395.554a.2.2 0 0 1-.09.023c-.051 0-.1-.023-.148-.07.127-.254.312-.515.554-.784.243-.269.591-.403 1.045-.403zm3.592 10.319l.507.126-.57.823.063-.95zm.982.174c.422 0 .778.045 1.068.134.29.09.47.43.538 1.021.067.58-.02.87-.264.87h-1.533a1.382 1.382 0 0 0-.101-.003c-.26 0-.547.07-.864.21.085-.74.47-1.483 1.156-2.232zM12.11 2.25c-.718 0-1.308.4-1.773 1.203-.158.264-.628.527-1.408.791-.538.158-.77.38-.697.665l.016.19c1.003-.095 1.841-.217 2.517-.364L12 4.513h.019c.367 0 .548.311.543.934-.005.633-.272 1.2-.8 1.701-.527.501-.796 1.227-.806 2.176 0 .77.366 1.322 1.1 1.654a29.97 29.97 0 0 1 2.128 1.069c.686.38 1.076.675 1.171.886-.052 1.118-.19 1.841-.411 2.168-.37 0-1.013-.053-1.931-.158-.285.042-.48.134-.586.277-.105.142-.084.298.064.467.07-.102.138-.153.203-.153.022 0 .044.006.066.018.084.048.295.071.633.071h1.55c.077-.014.15-.022.217-.022a.69.69 0 0 1 .449.149.74.74 0 0 0 .38-.127c.465.014.855.02 1.168.02.419 0 .702-.011.85-.035.258-.043.492-.08.703-.111l.539.174h.018c.12 0 .136-.105.045-.317-.464-.253-.57-.891-.317-1.915l.26.003c.834 0 1.38-.096 1.64-.288a32.02 32.02 0 0 1 2.58.554l.11-.19c-.274-.306-.48-.5-.617-.585l.696.142c.113.043.19.064.234.064.087 0 .035-.085-.155-.254-.042-.116-.348-.343-.918-.68l.966.19c.105-.675-.628-1.156-2.2-1.44a5.356 5.356 0 0 1-2.232-1.108c-.875-.77-2.2-1.335-3.972-1.694-.94-.063-1.461-.35-1.567-.862-.105-.512-.103-1.327.008-2.445.11-1.119-.045-1.847-.467-2.185-.316-.274-.733-.411-1.25-.411z"/><path d="M19.875 4.273c-.434.034-.674.251-.72.651.057.435.297.663.72.686.423-.023.646-.251.669-.686-.035-.4-.257-.617-.669-.651zm.052-1.44c.308 0 .594.057.857.171a2.26 2.26 0 0 1 1.166 1.157c.114.258.17.529.17.815 0 .297-.056.574-.17.831a2.155 2.155 0 0 1-1.166 1.132 2.223 2.223 0 0 1-.857.162c-.309 0-.598-.054-.866-.162-.269-.109-.5-.26-.694-.455a2.228 2.228 0 0 1-.463-.677 2.024 2.024 0 0 1-.172-.831c0-.286.057-.557.172-.815a2.34 2.34 0 0 1 .463-.685c.194-.2.425-.357.694-.472a2.19 2.19 0 0 1 .866-.171zm-.035-.583c-.377 0-.731.071-1.063.214a2.65 2.65 0 0 0-.857.583 2.87 2.87 0 0 0-.574.857 2.596 2.596 0 0 0-.214 1.055c0 .377.071.728.214 1.054.143.326.334.608.574.848a2.72 2.72 0 0 0 1.92.789c.377 0 .729-.071 1.055-.214.325-.143.611-.335.857-.575.245-.24.44-.522.583-.848a2.61 2.61 0 0 0 .214-1.054c0-.378-.072-.729-.214-1.055a2.778 2.778 0 0 0-1.44-1.44 2.596 2.596 0 0 0-1.055-.214zm7.095 0l-1.55 1.832h.756l.794-.946.802.946.779-.946.801.946.794-.946.802.946.794-.946.802.946.779-.946.801.946.802-.946.779.946.802-.946.794.946h.756l-1.55-1.832-.802.886-.779-.886-.802.886-.801-.886-.78.886-.8-.886-.795.886-.802-.886-.794.886-.801-.886-.78.886-.8-.886zm.704 6.237q-.5 0-.58.387v.023q.057.102.239.102.523-.227.523-.421v-.023q0-.045-.182-.068zm1.822-.706q-.08.444-.786.956l.25.103.342-.125.171.113q1.31.627 3.472.66l3.393.035.045-.001q.58 0 .564.849-.017.882-.598 1.77-.364 0-.74-.279t-.615-.654q-.239-.376-.614-.98.113 1.196.683 1.88-.695 0-1.236.13-.27.065-.45.065-.181 0-.273-.065-.113-.081-.562-.081-.274 0-.673.03-.307.023-.561.023-.618 0-.924-.137-.285-.24-.359-.837-.074-.597.336-1.656-.843.603-.843 1.833v.41q-.42-.433-.66-.957-.467-1.161-1.275-1.161-.307 0-1.184.387-.296-.125-.239-.398l.57-.763q.41-.695.591-.774.091-.171.888-.171.342.091.342.25 0 .217-.228.433.433-.091.626-.512 0-.103.547-.376zm.49-2.422q-.055 0-.126.088-.865 1.378-1.571 1.913-.273.239-.74.25-.228 0-.694-.341-.695-.672-.968-1.139-.307-.546-.399-.603-.045 0-.068.114 0 .649 1.32 2.402-.25.364-.466.831-.216.467-.512.711-.296.245.057.484 0 .296.49.478.398-.113 1.217-.352.49 0 .672.41.603.91.603 1.9.069 1.321-.91 2.528-.308.205-.308.569 0 .148.376.148.615 0 .615-.148l-.046-.307q0-.16.24-.24v-.022q0-.216.773-2.175.353 0 .558.342.262.865.262 1.434 0 .126-.16.535-.193.148-.239.535h.911l-.068-.284q-.046-.17.125-.296l-.08-.421q-.148-1.606-.148-1.89v-.023q.9-.216 1.384-.216.483 0 .745.176.104.07.292.07.285 0 .761-.16.517-.175.793-.175.147 0 .226.049.228.142.228.484 0 1.252-.638 2.129-.205.205-.307.569h.785q.205-.068.092-.342.022-.296.273-.375 0-1.036.91-2.05.638.353.65 1.093 0 .285-.114.775l-.137.375q-.125.148-.228.558h.752q.136-.057.17-.125l-.113-.365q-.057-.159.159-.284-.114-.603.148-.91-.535-1.253-.535-1.97.284-1.173.364-2.197.137.717.034 1.719-.102 1.001.342 2.071.087.18.158.18.05 0 .092-.088.114-.65.046-3.586-.091-.365-.194-.558-.364-.558-.626-.58h-3.677q-2.72 0-4.03-.775.216-.387.24-.53.022-.142 0-.347-.547.16-.82.422l-.228-.171q.239-.148.763-.956.523-.809.614-1.264-.038-.077-.09-.077zM41.54 2.726q-.278 0-.278.328 0 .278.279.278.295-.016.295-.311t-.295-.295zm-1.081.213v.295l-.64.115q.296-.312.64-.41zm.033.393q.377.295.13.443-.376-.131-.557-.344l.427-.099zm1.147-.754q.77 0 1.23.59.459.59.492 1.82 1.196.246 1.59 1.082.063.542-.244.542l-.019-.001q-.327-.016-.516-.18-.069-.06-.104-.06-.06 0-.019.183.066.287.721.696.656.41.107.68-.136.068-.29.068-.467 0-1.095-.616-.836-.82-.886-1.246-.049-.427.345-.787.234-.215.16-.215-.05 0-.242.1-.476.246-.5.721-.025.476.377 1.041.401.566 1.582 1.435.12.063.273.063.324 0 .792-.285.689-.418-.688-1.286.508-.132.524-.443.64.213 3.59 3.967.787.525.804.77-.017.23-.246.28-.05.01-.1.01-.186 0-.392-.142-.918.443-1.779.46h-.09q-.8 0-1.328-.28.541.476.377 1-.08.255-.12.255-.044 0-.044-.287 0-.558-1.426-1.066v.623q-.084.353-.133.353-.047 0-.063-.32-.099-.705-.468-1.517-.369-.811-1.172-2.245-.803-1.435-1.024-2.066-.222-.631-.205-1.172.016-.541-.222-.795-.237-.254-.139-.55.098-.295-.295-.557v-.278q.426-.345.885-.345zm3.115 9.443q.803.23.803.54l-.54 2.017q-.066.361-.443.361h-.656v-.033l.836-2.557v-.328zM41.698 2.25h-.059q-.64 0-1.295.525-.377.131-.77.607.54.491.983.606.05.23.312.64.016 1.081.295 1.795.278.713 1.869 3.827.787 1.64.787 2.017 0 .574-.722 2.574 0 .114-.983.18-1.476.05-1.476.41 0 .213.197.213h4.36q.41-.328.46-.558.393.164.426.443.055.221.157.221.019 0 .04-.008.13-.049.13-.213-.114-.443-.573-.852l.525-2.213q1.59-.05 2.77-.509.219.05.4.05.365 0 .584-.197.328-.295-.132-.918-1-1-1.901-2.197-1.853-2.279-2.541-2.64-.23-.475-.55-.753-.319-.28-1.155-.689-.016-.967-.45-1.672-.425-.689-1.688-.689z"/><path d="M8.22.375c-9.625 0-9.625 17.25 0 17.25m0-17.25h42.03M8.22 17.625h42.03M57.937.375v17.25M50.25.375c9.625 0 9.625 17.25 0 17.25" fill="none" stroke="#000"/></svg>