<svg xmlns="http://www.w3.org/2000/svg" width="53.03" height="18"><path d="M6.286.322q.06 0 .113.039.214.116-.136.564-.37.369-.457.622-.088.253-.185.67-.097.419-.428 1.197l-.447.136H3.132q.233-.506.544-.914.759-.7 1.128-.934.37-.233.593-.398.224-.166.477-.632.233-.35.412-.35zM5.27 3.939l-.311.68q-.454-.045-.84-.045-.775 0-1.28.182-.097-.661-.292-.817zm-2.237 1.42q-.37.02-.389.35.02.389.39.389.369 0 .388-.39-.02-.33-.389-.35zm.837-.33q.836 0 .972.777.136.778-.895 1.07.35.66 0 .836-.123.062-.24.062-.216 0-.411-.208-.302-.32-.535-.914-.233-.593-.7-.593h.33q-.213-.33-.155-.506l.034.002q.166 0 .219-.177.37-.35 1.38-.35zm1.147.057q.292 0 .836 1.255.545 1.254 1.77 2.314t1.974 2.577q.749 1.517 2.927 3.326-3.812-1.809-4.784-2.237-.973-.428-3.15-2.003-1.246-.914-1.246-1.459 0-.427.098-.739V8.1q.992 0 .992-.991 1.342-.661.583-2.023zm-.545 5.971q.37 1.77 1.829 3.91-.139.109-.302.109-.385 0-.904-.616 0-.972-.7-3.403zm.642.622q1.148.914 2.587 1.731v1.848q-.506-.39-1.011-.467-1.381-2.256-1.576-3.112zm.214 3.812q.265.336.546.336.255 0 .524-.277l.097 1.711q-.185-.041-.354-.041-.308 0-.56.138-.34-.113-.597-.113-.096 0-.18.016l.524-1.77zm.603-3.676l5.815 2.937q1.128 1.264 2.159 2.392v.02l-1.459.233-2.898-3.131q-.836-.68-3.617-2.45zM6.202 0h-.037q-.233.01-.486.4-.058.174-.243.388-.185.214-.535.428-.35.214-.505.34-.156.127-.525.458-.312.252-.448.408-.31-.194-.525-.476-.214-.282-.233-.516-.02-.233.048-.37.069-.135.214-.165.04-.008.08-.008.103 0 .202.057.136.078.117.272-.039.175-.253.214-.058-.025-.095-.025-.05 0-.06.045-.04.252.194.272l.05.002q.2 0 .33-.138.145-.156.126-.525Q3.482.652 3.19.613 3.137.606 3.084.606q-.237 0-.468.144-.282.175-.311.544-.03.37.263.749.291.379.641.632-.272.35-.564.875H1.81q.506.545.603 1.536h-.04q-.346 0-.29.331-.545.156-.545 1.03.181-.105.34-.105.044 0 .088.009.233 0 .379.544.146.545.632 1.206v.02q-.117.233-.117.738 0 .506.895 1.459.895 3.073.875 4.493 0 .175.253.213l-.642 2.14q-.052-.004-.106-.004-.272 0-.604.082-.19.046-.388.046-.219 0-.448-.056-.253-.062-.497-.062-.177 0-.349.033-.272.051-.432.051-.08 0-.132-.012-.506.116-.564.758.337-.194.514-.194.089 0 .138.048.145.146.573.146h5.66q.37 0 .583-.156.071-.051.169-.051.194 0 .492.207.02-.622-.66-.797-.386.143-.696.143-.238 0-.433-.085l-.097-1.925q.532.736.93.736.17 0 .315-.134-.137-1.186-.137-2.178l.545.33q.467.215 2.052 2.024 1.52 1.734 1.814 1.734.013 0 .024-.004l1.847-.389q.292-.097.117-.291L13.01 15.51q1.362.875 2.042 1.167-.33-.37-1.108-.934l.389.136q.233-.039.194-.37-3.384-2.45-4.298-4.22-.914-1.77-2.149-2.878-1.235-1.108-1.838-2.49-.37-.874-.758-1.186L7.293.633 6.866.399 5.854 2.597l.098-.447q.116-.467.252-.7.137-.234.273-.331.291-.428.291-.661 0-.234-.175-.35Q6.413 0 6.201 0zm16.922 2.575c1.186 0 2.193.886 2.549 1.763l-1.081.159c-.27-.537-.816-.838-1.54-.838h-.017c-.699.004-1.246.36-1.441.838l-1.064-.242c.46-.985 1.527-1.674 2.58-1.68h.014zm-.019 1.952c.436 0 .658.274.658.799 0 .475-.222.985-.658 1.55-.435-.565-.657-1.075-.657-1.55 0-.525.222-.799.657-.799zm0 3.71c.36.527.476 1.398 0 2.277-.308-.683-.41-1.522 0-2.277zm0-5.987c-.663 0-1.271.2-1.83.587-.56.386-.974 1.003-1.222 1.855l1.432.094c-.03.158-.047.332-.047.54 0 .644.357 1.37 1.08 2.183-.287.555-.504 1.04-.493 1.69-.023.983.237 1.31.564 2.231l-1.902 4.32h.986l1.432-3.569 1.41 3.569h1.009l-1.902-4.32c.327-.921.551-1.222.54-2.23.011-.651-.196-1.136-.493-1.69.733-.813 1.103-1.54 1.103-2.184 0-.208-.03-.382-.07-.54l1.432-.094c-.247-.852-.633-1.469-1.197-1.855-.565-.386-1.178-.587-1.832-.587zM32.6 5.796l-.334.759q.714.144 1.017 1.435l1.155-.296v.721l-1.124.32q.007 1.062-.205 1.996-.22.934-.995 1.208-.387.132-.778.132t-.786-.132q-.79-.274-1.002-1.208-.22-.934-.198-1.997l-1.124-.319v-.721l1.147.296q.304-1.29 1.025-1.435l-.35-.76zm-3.083-.532q-.273 0-.038.532l.205.463q-.607.387-.759 1.07l-1.29-.387v1.921l1.214.35q0 1.093.311 2.186.32 1.094 2.164 1.337 1.846-.243 2.172-1.337.319-1.093.319-2.186l1.215-.35v-1.92l-1.306.387q-.152-.684-.76-1.071l.206-.463q.243-.532-.038-.532z"/><path d="M17.428.375v17.25m0-17.25h2.625m-2.625 17.25h2.625m0-17.25H35.03m-14.977 17.25H35.03m0-17.25h17.625M35.03 17.625h17.625M36.792.375v17.25M40.317.375v17.25M42.08.375v17.25M43.842 2.1h8.813m-8.813 3.45h8.813M43.842 2.1v3.45m1.763-1.725h7.05m-8.813 3.45h8.813m-8.813 3.45h8.813m-8.813-3.45v3.45M45.605 9h7.05m-8.813 3.45h8.813m-8.813 3.45h8.813m-8.813-3.45v3.45m1.763-1.725h7.05" fill="none" stroke="#000"/></svg>