<svg xmlns="http://www.w3.org/2000/svg" width="36.825" height="18"><path d="M11.386 8.203c-.51.04-.793.296-.847.767.067.51.35.78.847.806.498-.026.76-.295.787-.806-.04-.47-.303-.726-.787-.767zm.06-1.694c.364 0 .7.068 1.01.202a2.659 2.659 0 0 1 1.371 1.361c.134.303.201.622.201.958 0 .35-.067.676-.202.978a2.567 2.567 0 0 1-2.38 1.523c-.362 0-.702-.064-1.018-.192a2.426 2.426 0 0 1-.816-.534 2.621 2.621 0 0 1-.545-.797 2.38 2.38 0 0 1-.202-.978c0-.336.068-.655.202-.958.134-.302.316-.571.545-.806.228-.236.5-.42.816-.555a2.574 2.574 0 0 1 1.019-.202zm-.04-.685c-.443 0-.86.084-1.25.252-.39.168-.726.396-1.008.685a3.36 3.36 0 0 0-.676 1.009 3.053 3.053 0 0 0-.252 1.24c0 .444.084.857.252 1.24.168.384.393.716.676.999a3.2 3.2 0 0 0 2.258.927c.444 0 .857-.084 1.24-.252a3.36 3.36 0 0 0 1.009-.675c.289-.283.518-.615.686-.999.168-.383.252-.796.252-1.24 0-.444-.084-.857-.252-1.24a3.268 3.268 0 0 0-1.694-1.694 3.053 3.053 0 0 0-1.24-.252zm6.476 5.264c.4.153.837.645.965 1.05.128.406.112.879.022 1.344-.09.458-.27.894-.488 1.18-.15.195-.285.307-.413.345h-.12c-.127-.03-.293-.143-.458-.346-.217-.285-.398-.72-.488-1.179-.09-.465-.105-.938.023-1.344.127-.405.606-.931.957-1.046v-.004zm-.424-8.838v.901h-.811v.578h.81l-.112 6.818c-.578.3-.938.81-1.111 1.359a3.576 3.576 0 0 0-.068 1.734 3.49 3.49 0 0 0 .646 1.457c.233.3.54.548.901.623v.022c.023.008.045.008.068.008.03 0 .06-.008.09-.008a.532.532 0 0 0 .105.008c.03 0 .052 0 .082-.008v-.022c.36-.075.669-.323.901-.623a3.49 3.49 0 0 0 .646-1.457 3.576 3.576 0 0 0-.067-1.734 2.228 2.228 0 0 0-1.112-1.337l-.112-6.84h.766l.022-.578h-.856V2.25h-.788zm8.687 3.546l-.334.759q.713.144 1.017 1.435l1.154-.296v.721l-1.123.32q.007 1.062-.205 1.996-.22.934-.995 1.208-.387.132-.778.132-.392 0-.786-.132-.79-.274-1.003-1.208-.22-.934-.197-1.997l-1.124-.319v-.721l1.147.296q.303-1.29 1.025-1.435l-.35-.76zm-3.083-.532q-.273 0-.038.532l.205.463q-.607.387-.76 1.07l-1.29-.387v1.921l1.215.35q0 1.093.311 2.186.319 1.094 2.164 1.337 1.845-.243 2.172-1.337.319-1.093.319-2.186l1.215-.35v-1.92l-1.306.387q-.152-.684-.76-1.071l.205-.463q.243-.532-.038-.532z"/><path d="M8.22.375c-9.625 0-9.625 17.25 0 17.25m0-17.25h20.355M8.22 17.625h20.355M36.262.375v17.25M28.575.375c9.625 0 9.625 17.25 0 17.25" fill="none" stroke="#000"/></svg>