<svg xmlns="http://www.w3.org/2000/svg" width="68.685" height="18"><path d="M14.132 7.584q.93 0 1.868.325 1.886.653 3.4 2.326-1.82-1.343-3.553-1.788-.866-.223-1.733-.223-.867 0-1.733.223-1.734.445-3.552 1.788 1.587-1.66 3.436-2.32.929-.33 1.867-.33zm-.018-.498q-2.136.048-3.717 1.135-1.58 1.086-1.983 1.867-.366.61-.043.77.098.047.196.047.227 0 .457-.255.623-.66 2.856-1.483 1.117-.412 2.234-.412t2.234.412q2.233.824 2.856 1.495.244.252.468.252.1 0 .197-.05.311-.165-.055-.776-.403-.781-1.983-1.867-1.581-1.087-3.717-1.135zM26.196 2.25l-.014.001a15.506 15.506 0 0 1-1.122.037c-.08.005-.087.107-.06.165.168.474.313.956.45 1.44h-.02c-.134.003-.271 0-.404.013l-.007.01c-.008-.03-.028-.058-.06-.065a28.706 28.706 0 0 1-1.275-.923c-.01-.002-.02-.005-.031-.005h-.008c-.041.026-.057.084-.08.127-.073.197-.134.399-.216.593-.058.148-.123.294-.167.446.02.042.057.055.097.055.039 0 .08-.012.113-.022.515-.11 1.046-.1 1.57-.107-.052.115-.074.243-.122.36-.02.066-.046.134-.06.202a.092.092 0 0 0-.014 0l-.016.001c-.64.248-1.264.552-1.81.97a6.77 6.77 0 0 0-.75.652c-.005.096.104.127.176.154l.442.182c-.075.103-.094.236-.142.353-.248.726-.596 1.413-.887 2.122 0 .058.055.087.108.087.02 0 .039-.004.055-.012.103-.019.206-.028.31-.03-.022.08-.03.165-.067.24-.174.555-.459 1.065-.674 1.604-.01.058.045.095.097.095a.1.1 0 0 0 .045-.01 6.45 6.45 0 0 1 .796-.092c-.03.074-.036.157-.06.234-.129.545-.317 1.082-.34 1.646-.004.367.04.733.099 1.095.1.595.28 1.174.511 1.73.003.051.05.083.095.083a.081.081 0 0 0 .072-.04c.034-.075.045-.16.07-.238.134-.481.23-.974.272-1.472.042-.43.058-.863.055-1.295-.017-.505-.138-.999-.216-1.497-.013-.075-.023-.152-.042-.226a7.034 7.034 0 0 1 .764.127c.08 0 .099-.107.062-.164-.216-.567-.437-1.134-.62-1.714l.027.005c.22.04.44.091.663.104.07-.058.02-.152-.014-.216-.269-.582-.489-1.193-.576-1.83-.028-.173-.028-.35-.058-.523.19.077.38.154.57.228.082-.02.086-.121.07-.19a2.105 2.105 0 0 1 .266-1.198c.179-.318.436-.58.699-.828.104.09.225.156.342.227l-.059.015c-.216.418-.398.852-.591 1.28-.025.06-.054.12-.063.184.032.052.086.063.143.063.035 0 .071-.004.104-.004h.005l.241-.006c-.027.083-.034.176-.062.259-.154.639-.308 1.279-.46 1.919.018.068.086.082.15.082a.648.648 0 0 0 .055-.003l.397-.014c-.037.105-.053.218-.089.323-.171.628-.346 1.257-.514 1.886.019.07.088.085.154.085a677.2 677.2 0 0 1 .691-.021.867.867 0 0 0-.024.103c-.132.577-.335 1.144-.366 1.74-.002.54.078 1.077.201 1.602.102.423.246.836.41 1.239.007.046.051.077.094.077.025 0 .049-.01.065-.035.035-.062.041-.137.066-.205a8.29 8.29 0 0 0 .314-1.902c.022-.343.034-.687.018-1.03-.035-.492-.147-.974-.225-1.46-.01-.048-.017-.097-.03-.145.222-.007.443-.014.664-.023.079-.06.035-.167.013-.245-.188-.674-.374-1.349-.567-2.021.185-.007.37-.014.554-.023.078-.06.034-.166.011-.243l-.584-1.969.595-.016c.075-.05.039-.15.004-.214-.177-.4-.351-.801-.534-1.199.132-.054.263-.11.391-.171.353.33.662.728.804 1.196.081.278.087.573.058.86.016.044.054.061.095.061a.2.2 0 0 0 .101-.03l.443-.182-.004.004a5.206 5.206 0 0 1-.347 1.696c-.098.265-.22.52-.326.78-.006.057.047.091.098.091a.102.102 0 0 0 .05-.013c.196-.029.39-.067.585-.105-.039.108-.066.221-.109.327-.166.486-.354.965-.535 1.445-.013.057.038.107.091.107a.08.08 0 0 0 .042-.011 5.81 5.81 0 0 1 .716-.116.57.57 0 0 0-.012.066c-.08.447-.167.892-.223 1.342a4.98 4.98 0 0 0-.018.846c.026.713.097 1.429.288 2.118.033.117.064.236.102.351a.08.08 0 0 0 .075.044c.038 0 .075-.021.084-.062a7.92 7.92 0 0 0 .566-2.05c.05-.41.082-.828.004-1.236-.08-.434-.208-.857-.311-1.285-.017-.05-.026-.104-.043-.153.124.003.247.011.37.027.17.018.34.054.511.069.073-.02.067-.116.031-.166-.24-.577-.551-1.13-.704-1.738l-.008-.032c.029 0 .057 0 .086.002.11.008.218.03.326.039.077-.034.058-.134.022-.192-.318-.723-.662-1.437-.908-2.19-.023-.058-.04-.124-.074-.176l-.006-.003c.2-.083.398-.166.596-.252.046-.08-.032-.156-.09-.201-.507-.462-1.064-.874-1.683-1.171a6.493 6.493 0 0 0-.716-.3c-.018-.055-.043-.11-.057-.163-.063-.181-.116-.368-.196-.542a.252.252 0 0 0 .052.004l.06-.001h.153c.459 0 .92.015 1.37.118a.111.111 0 0 0 .046.009c.045 0 .093-.023.083-.074-.087-.273-.21-.534-.3-.807-.039-.112-.078-.225-.128-.332a.113.113 0 0 0-.06-.008c-.42.308-.834.628-1.27.916-.046.023-.105.07-.073.127v.001a.848.848 0 0 0-.157-.012l-.16.002a1.243 1.243 0 0 1-.068-.001h-.035a.077.077 0 0 0 .004-.029c.17-.508.34-1.022.63-1.476.036-.046.01-.127-.045-.137a.065.065 0 0 0-.012-.001zm12.062 6.528c.253 0 .564.045.934.135.78.19 1.456.459 2.025.807.57.348 1.209.786 1.915 1.314-.68.344-1.462.516-2.347.516-.199 0-.403-.008-.612-.026-1.14-.095-2.118-.43-2.936-1.005-.818-.575-1.02-.928-.61-1.06.412-.132.747-.303 1.006-.514.136-.111.344-.167.625-.167zm5.444 2.382l.65.143c0 .169-.154.306-.46.411a8.012 8.012 0 0 1-.544.018c-.315 0-.65-.016-1.007-.05.686-.084 1.14-.258 1.361-.522zm.997.238l.396.079c.042.126-.106.253-.443.38l-.46-.032c.328-.148.497-.29.507-.427zm.602.158l.269.063c-.064.18-.253.27-.57.27.18-.117.28-.228.3-.333zm.443.158c.253.074.422.195.506.364l-.712-.158c.137-.063.206-.132.206-.206zm-1.646.934c.791.095 1.387.317 1.788.665l-1.962-.46c.02-.115.079-.184.174-.205zM34.934 2.551c.496 0 .87.137 1.124.411.253.275.332.937.237 1.986-.095 1.05-.126 1.762-.095 2.137.032.375.13.652.293.83.164.18.362.357.594.531.232.174.116.33-.348.467-.465.137-.723.34-.776.61a.867.867 0 0 0 .198.743c.185.227.625.533 1.321.918.697.385 1.311.63 1.844.736.533.105 2.166.158 4.898.158.845.159 1.404.37 1.678.633l-1.804-.411a.707.707 0 0 0-.396.3c0 .275-.596.433-1.788.475-.18 0-.3-.248-.364-.744l-.19.159c.095.4.121.754.079 1.06a1.186 1.186 0 0 0-.775-.712c-.591-.106-1.119-.203-1.583-.293a4.173 4.173 0 0 1-1.409-.578c-.422-.327-1.1-.68-2.033-1.06-.934-.38-1.401-.944-1.401-1.693 0-.75.25-1.37.752-1.86.5-.49.751-1.079.751-1.765 0-.337-.042-.656-.126-.957-.077-.272-.304-.408-.683-.408-.04 0-.081.001-.124.004l-1.33.174c.042-.137.106-.263.19-.38.106-.327.222-.516.348-.57.019.065.09.098.213.098.018 0 .037 0 .056-.002.211-.01.333-.116.364-.317-.02-.2-.142-.306-.364-.316-.19.01-.295.116-.316.316-.169.159-.3.343-.396.554a.2.2 0 0 1-.09.023.207.207 0 0 1-.147-.07c.126-.254.311-.515.554-.784.242-.269.59-.403 1.044-.403zm3.593 10.319l.506.126-.57.823.064-.95zm.981.174c.422 0 .778.045 1.068.134.29.09.47.43.539 1.021.067.58-.021.87-.264.87h-1.533a1.382 1.382 0 0 0-.102-.003c-.259 0-.547.07-.863.21.084-.74.47-1.483 1.155-2.232zM34.934 2.25c-.717 0-1.308.4-1.772 1.203-.159.264-.628.527-1.409.791-.538.158-.77.38-.696.665l.016.19c1.002-.095 1.84-.217 2.516-.364l1.235-.222h.018c.367 0 .549.311.543.934-.005.633-.271 1.2-.799 1.701-.527.501-.796 1.227-.807 2.176 0 .77.367 1.322 1.1 1.654.733.333 1.443.689 2.129 1.069.685.38 1.076.675 1.17.886-.052 1.118-.19 1.841-.41 2.168-.37 0-1.014-.053-1.932-.158-.284.042-.48.134-.585.277-.106.142-.085.298.063.467.07-.102.138-.153.203-.153.022 0 .045.006.066.018.085.048.296.071.633.071h1.551a1.21 1.21 0 0 1 .217-.022c.177 0 .326.05.448.149a.74.74 0 0 0 .38-.127c.466.014.855.02 1.169.02.418 0 .701-.011.849-.035.258-.043.493-.08.704-.111l.538.174h.018c.12 0 .136-.105.045-.317-.464-.253-.57-.891-.316-1.915l.259.003c.834 0 1.381-.096 1.64-.288a32.02 32.02 0 0 1 2.58.554l.11-.19c-.274-.306-.48-.5-.617-.585l.697.142c.112.043.19.064.234.064.086 0 .035-.085-.155-.254-.042-.116-.348-.343-.918-.68l.965.19c.106-.675-.628-1.156-2.2-1.44a5.356 5.356 0 0 1-2.231-1.108c-.876-.77-2.2-1.335-3.973-1.694-.939-.063-1.46-.35-1.566-.862-.106-.512-.103-1.327.007-2.445.111-1.119-.044-1.847-.466-2.185-.317-.274-.734-.411-1.25-.411zm22.241 5.777q.888.183.888.973t-.888.917h-5.669q-.874-.127-.874-.917t.874-.973zm-8.63-1.396q-.155 0-.268.296-.07.592.162 1.156.233.564.84.917-.607.338-.84.91-.233.57-.162 1.163.113.296.268.296.127 0 .24-.17 0-1.607 1.382-1.917.2 1.104 1.377 1.104.071 0 .146-.004h5.302q.075.004.147.004 1.19 0 1.39-1.104 1.382.31 1.382 1.918.113.17.24.17.14 0 .267-.297.07-.592-.162-1.163-.232-.572-.853-.91.62-.353.853-.917.233-.564.148-1.156-.113-.296-.254-.296-.126 0-.24.17 0 1.607-1.381 1.917-.21-1.157-1.506-1.157h-5.365q-1.282 0-1.491 1.157-1.382-.31-1.382-1.918-.113-.17-.24-.17z"/><path d="M8.22.375c-9.625 0-9.625 17.25 0 17.25m0-17.25h52.215M8.22 17.625h52.215M68.122.375v17.25M60.435.375c9.625 0 9.625 17.25 0 17.25" fill="none" stroke="#000"/></svg>