<svg xmlns="http://www.w3.org/2000/svg" width="50.437" height="18"><path d="M18.058.568q-.111.037-.111.128t.07.146q.027.022.054.022.04 0 .077-.05.063-.081.021-.163-.041-.083-.11-.083zM2.67.47q-.153 0-.296.282.084.183.264.237.028.01.054.01.131 0 .224-.229 0-.255-.194-.292Q2.695.47 2.669.47zM1.665.787q-.042.128.027.238l-.583.073q-.014-.164.556-.31zm.568.436zm.105-.003q.12 0 .195.033.027.012 0 .012-.052 0-.288-.04.05-.005.093-.005zm2.564 1.252q.035 0 .097.068 1.125 1.223 2.792 2.865Q9.46 7.048 9.667 7.724 8.305 7.468 7.34 6.318q-.966-1.15-1.681-2.236-.716-1.086-.799-1.414-.017-.196.042-.196zm.046-.868q.202 0 .384.096 4.321 4.308 4.946 5.604.584 1.405.764 2.154-.076.11-.182.11-.087 0-.193-.074l-.57-1.515q-.43-1.296-2.104-2.875-1.674-1.579-2.424-2.5-.441-.542-.676-.542-.164 0-.227.268-.108.455-.38.455-.115 0-.26-.081.126-.858.542-1.022.198-.078.38-.078zm.357 6.43q.666 1.405.541 2.83-.125 0-.236.236-.045-.403-.277-.403-.051 0-.112.02.292-1.405.084-2.683zM2.827.346q.066 0 .116.013.25.063.292.237.029.122.058.122.013 0 .025-.022.042-.073.056-.164.305.53.041 1.57t.848 1.24q1.028 3.104 2.209 4.72 1.18 1.615.986 3.038-.449-.438-.993-.438-.113 0-.23.019.042-1.296-.472-2.556t-.945-1.889q-.43-.63-1.16-1.497-.73-.867-.722-1.789.007-.921.194-1.286.188-.365.181-.584-.003-.091-.027-.091-.035 0-.112.182-.132.31-.73.328l-.07.001q-.568 0-1.235-.274l.82.073q.404.11.601.11.162 0 .183-.074.049-.164-.076-.192-.125-.027-.257-.027t-.201.055l.026.052-.29-.052Q1.762.787 1.887.623q.028-.055.097-.055-.028.183.049.274.028.034.056.034.046 0 .09-.098.07-.155-.125-.228.511-.204.773-.204zm15.412.04q.375 0 .555.365.056.055.695.2v.056l-.695.073q-.597 0-.75-.12-.153-.118-.146-.273.007-.155.188-.155.18 0 .25.082t.035.173q-.035.092-.132.147h.028q.18 0 .187-.22.007-.237-.299-.273-.389 0-.291.374.092.357.854.357l.076-.001q.431-.037.765-.128L19.53.97q1.236 1.004 1.16 2.29-.077 1.288-.966 2.136-.889.85-1.584 1.871-1.083 1.734-1.167 2.72-.083.986.376.986.458 0 1.118-.721.66-.721 1.34-.74 1.82.055 1.612 2.209-.667-.93-1.5-.93-.417 0-1.14.474-1.097.766-1.667.766l-.472-.091q-.861-.84-.583-2.482.416-1.187 1.125-4.235.486-1.734.965-2.628.48-.895 1.022-.913.291 0 .944.365.027.01.047.01.094 0 .037-.21-.526-.429-1.226-.429-.225 0-.47.045-.208 0-.506-.146-.3-.146-.3-.694.251-.237.543-.237zM4.666 3.05q1.083 1.825 1.986 3.002.903 1.178 1.702 1.588.799.411 1.48.43.083.145 1.653 4.617l-.097.055-3.738-3.14q.028-.273-1.104-1.962-1.132-1.687-1.994-4.46l.112-.128zM8.5 10.918l2.07 1.66q.07.256-.5.348-.127.02-.233.02-.37 0-.49-.248-.152-.32-.389-.831-.236-.511-.458-.95zm7.071-.785q0 .767.167 1.332.43 1.004 1.153 1.023h.038q.711 0 1.699-.657.938-.625 1.365-.625.034 0 .066.004.416.055.903.566.486.51.514.894.05.311-.043.311-.06 0-.18-.128-.399-1.05-1.024-1.05h-.01q-.633.01-1.557.648-.923.639-2.153.639t-1.368-1.04q-.14-1.04.43-1.917zM5.277 11.192l.208.547q.195-.255.299-.3l.005-.002q.088 0-.304 1.543l-.583.238q-.153-.146.09-.904.243-.757.285-1.122zm14.763 1.14q.461 0 .727.502-.18.384-.847.603-.514 0-1.042-.566.685-.539 1.162-.539zm-1.607.758q.207.265.448.438h-1.883q.692-.095 1.435-.438zm-7.182 1.15q-1.554 2.935-4.48 3.011-2.913-.076-4.467-3.011zm11.239.018q-1.554 2.935-4.48 3.012-2.913-.077-4.48-3.012zM3.066.008q-.084 0-.179.013-.222 0-1.264.42-.834.255-.903.657l.028.62.417-.2q.68.292 1.139.292.458 0 .347.41-.111.411.028 1.37.139.958 1.097 1.934.959.977 1.188 2.556.23 1.578-.41 3.641l.209-.164q.004-.004.007-.004.046 0-.216.816-.277.867-.757.894-.084.005-.16.005-.348 0-.486-.105-.155-.12-.462-.12l-.045.001q-.34.01-.34.302v.182H1.33Q2.93 17.982 6.777 18q3.849-.018 5.446-4.472l-4.279.037q0-.165-.264-.356-.129-.094-.296-.094-.175 0-.391.103-.13.061-.278.061-.337 0-.771-.317.097-.639.236-1.14.139-.503.528-.594.036-.008.073-.008.362 0 .816.811.264-.675.153-1.825l.139.128q1.042 2.3 1.257 2.701.163.305.634.305.15 0 .331-.031.75-.128.737-.475l.639.42.486-.237-1.07-3.048q.264 0 .487-.292-.264-1.096-.82-2.446-.39-.822-.792-1.278Q8.681 4.603 7.5 3.39T5.763 1.518q-.373-.28-.775-.28-.226 0-.461.088-.653.246-.792 1.214-.042-.037.07-.73.11-.694-.05-1.287-.138-.514-.689-.514zM18.286 0q-.252 0-.478.094-.292.11-.347.42-.111.383.097.757.208.374.653.466-.89 1.058-1.514 3.741-.584 2.556-.973 3.779-1.042 1.113-1.035 2.236.007 1.122.424 1.597.301.343.878.438h-3.434q1.597 4.454 5.446 4.472 3.848-.018 5.445-4.472h-2.674q.153-.11.313-.256.156.245.354.245.083 0 .174-.044.347-.219.139-1.004.194-2.245-.459-2.865-.653-.621-1.473-.621-.75 0-1.625.849-.543.526-.743.526-.124 0-.118-.198.014-.52.611-1.761.403-.876 1.75-2.254 1.348-1.378 1.334-2.775-.014-1.396-.597-2.099-.584-.703-1.292-.794-.111-.2-.292-.328-.18-.128-.48-.146Q18.329 0 18.287 0zm12.567 0c-.12 0-.127.377-.299.935-.195.635-.338 1.962-.788 2.22a.397.397 0 0 1-.204.052c-.134 0-.27-.05-.417-.05a.545.545 0 0 0-.17.025c-.21.068-.322.397-.544.436-.922.16-2.183.1-2.887.163-.453.04.756.93 1.964.93h.051c.251-.005.516-.017.78-.017.44 0 .877.032 1.236.18.352.146.768.567.763.981L30.19 18h1.359l-.07-13.719c-.001-.368 1.061-.618 1.2-.936.243-.553.119-2.995-.272-3.323a.021.021 0 0 0-.014-.006c-.176 0-.504 2.56-1.021 3.111-.053.056-.157.082-.247.082-.097 0-.177-.03-.162-.082.329-1.118.461-2.749-.054-3.105A.102.102 0 0 0 30.853 0zm5.669 0c-.93 0-1.746.684-1.746 1.562V18h1.136V1.562c0-.43.379-.57.617-.57.25 0 .634.175.634.703v10.804h1.136V1.695c0-.88-.871-1.695-1.777-1.695zm8.846.551q1.785 0 3.786.863-2 .839-3.786.839-1.774 0-3.787-.839 2.013-.863 3.787-.863zm0-.551q-2.205 0-5.07 1.402 2.865 1.39 5.07 1.39t5.069-1.39Q47.585 0 45.367 0zm4.492 6.053c.152 0 .23.085.23.245v1.848h-.707l.23-1.934c.008-.103.093-.16.246-.16zm-8.303-2.34c-.38.01-.742.218-1.01.477a.962.962 0 0 0-.116 1.14c.238.517.818.727 1.343.81.242.456.48.914.722 1.37h-.404a.048.048 0 0 0-.011 0h-.018c-.061 0-.081.045-.058.145.027.118.126.23.303.332 0 .406.03.683.101.823.086.15.33.217.722.217l.159-.015c.071.183.167.354.245.535.068.084 0 .256.13.288.147-.052.301-.149.448-.216.149-.032.046-.182-.029-.246a2.872 2.872 0 0 1-.23-.39l.808-.057 5.775.043V6.3c0-.358-.184-.535-.563-.535-.38 0-.578.106-.592.318-.136 1.168-.233 1.74-.361 1.89a8.336 8.336 0 0 0-.969-.045c-.18 0-.358.003-.533.003-.938.015-1.866.172-2.8.245-.2 0-.344-.076-.448-.115-.104-.04-.264-.15-.462-.347-.139-.138-.36-.222-.679-.23-.338-.598-.677-1.192-1.01-1.791-.289-.063-.599-.107-.867-.246-.307-.12-.494-.505-.332-.808.104-.173.267-.336.433-.404a.372.372 0 0 1 .163-.037c.188 0 .371.133.473.253.148.323.226.683.447.967.057.06.163.094.264.094.126 0 .246-.052.256-.166-.205-.284-.35-.612-.477-.938-.106-.355-.447-.662-.823-.693zm3.528 7.044v3.373h.565v-3.373zm4.637 4.557q.204 0 .204.213v1.639h-.62l.203-1.726q.01-.126.213-.126zm.01-.262q-.495 0-.524.281-.204 1.833-.436 1.843l-4.5.165-.466-.02q-.523-.553-.93-.553l-.301-.019q-.825.155-.99.155-.116 0-.116.155 0 .214.33.214.566-.09.868-.09.055 0 .102.002.164 0 .271.136-.189.234-.846.234l-.104-.001q-.747-.02-1.32-.194-.28 0-.28.33.029.3 2.104.31l.921-.097 5.257-.03 1.474.02v-2.366q-.01-.475-.514-.475z"/></svg>