<svg xmlns="http://www.w3.org/2000/svg" width="54.189" height="18"><path d="M12.138 6.585v4.845h-3.25V6.585zM8.22 5.902v6.196h4.601V5.902zm7.41-3.652c-.697 0-1.309.513-1.309 1.171V15.75h.852V3.421c0-.322.284-.427.463-.427.187 0 .475.131.475.527v8.103h.852V3.521c0-.66-.653-1.271-1.333-1.271zm5.598 2.304c-.203.097-.45.367-.075.412.18-.007.593-.195.517-.367a.166.166 0 0 1-.118.05c-.106 0-.215-.095-.324-.095zm-1.478.067c-.248.06-.376.33-.06.39l.016.001c.181 0 .676-.22.269-.27-.068-.046-.135-.12-.225-.12zm1.973-1.883c.443.517.833 1.118.908 1.808.075.495.097.99.173 1.478-.353-.03-.248-.577-.18-.84.06-.518-.218-.998-.413-1.456-.135-.247-.263-.638-.608-.645-.383.067-.63.39-.878.668-.255-.255-.525-.533-.878-.638a.177.177 0 0 0-.06-.01c-.08 0-.172.035-.215.035-.037 0-.036-.026.043-.123.047-.168.146-.218.269-.218.178 0 .407.106.6.106a.42.42 0 0 0 .083-.008 2.801 2.801 0 0 0 1.156-.158zm-.12.57c.293.075.36.48.503.72.18.42.397.878.255 1.351-.113.225.03.51.015.675-.25.176-.47.547-.802.547a.474.474 0 0 1-.114-.014c-.33-.067-.495-.383-.75-.533-.185.178-.294.548-.598.548a.464.464 0 0 1-.137-.022c-.278-.06-.646-.03-.728-.368-.143-.345-.158-.728-.18-1.103a.243.243 0 0 0 .046.005c.151 0 .165-.177.179-.328.058-.22.215-.321.39-.321.118 0 .244.046.353.134.127.142.517.255.435.48-.038.135-.083.277-.128.42l.316.42c.03-.217.352-.397.165-.615-.03-.098-.143-.225-.128-.3.135-.24.315-.45.525-.63a.241.241 0 0 1 .172-.077c.201 0 .404.263.579.287.172-.188-.015-.263-.188-.36a.526.526 0 0 0-.365-.147.602.602 0 0 0-.49.266c-.143.086-.242.371-.367.371-.04 0-.082-.028-.129-.1-.229-.184-.503-.39-.804-.39a.642.642 0 0 0-.134.014c-.212.044-.403.474-.419.474-.008-.353.157-.669.254-1.014a.459.459 0 0 1 .447-.357c.13 0 .261.055.356.177.224.083.387.475.597.475a.2.2 0 0 0 .116-.04c.233-.247.42-.54.758-.645zm-1.066 5.207c.953.983 1.831 3.475 2.056 4.495-.367-.3-.87-.495-.983-.683-.12-.195-.45-2.093-1.073-3.812zM23.93 6.73c1.8 1.035 4.937 6.13 5.605 6.948-1.125-.713-2.236-1.433-3.444-2.019-1.696-.832-3.144-2.183-4.525-3.444 1.141-.382 1.959-1.028 2.364-1.485zm-1.868 6.468c.24.142.457.337.72.442-.158.39-.255.826-.578 1.133-.06.098-.147.129-.246.129-.17 0-.378-.092-.551-.092a.44.44 0 0 0-.036.001c.21-.525.526-.758.69-1.613zm.51-7.024c.045.094.103.125.165.125.08 0 .168-.053.24-.087.18.127.803.112.435.383-.232.315-1.475 1.174-2.339 1.326-.373.065.253.655.456.865 1.17 1.05 2.319 2.16 3.722 2.918.878.496 1.8.938 2.648 1.486.406.585.886 1.126 1.194 1.771-.308.09-.608.218-.923.293a2.168 2.168 0 0 1-.527.061c-.496 0-.994-.147-1.214-.384-.405-.428-.848-2.251-1.08-2.919-.034-.075-.08-.1-.132-.1-.101 0-.219.099-.277.099a.03.03 0 0 1-.027-.014.293.293 0 0 0-.29-.282c-.131 0-.254.096-.235.297-.045.473-.135.946-.36 1.373-.028.073-.086.101-.161.101-.214 0-.571-.22-.815-.28.098-.579-.69-3.535-3.001-6.011-.081-.088-.433-.459-.402-.459.003 0 .012.005.027.016.118.031.251.052.383.052.253 0 .501-.078.63-.314.019-.06.044-.082.072-.082.103 0 .258.3.423.3a.69.69 0 0 0 .385.115.79.79 0 0 0 .583-.266c.142-.128.277-.255.42-.383zm-.78-3.924a2.79 2.79 0 0 1-1.02.21c-.054 0-.107-.003-.159-.007a.603.603 0 0 1-.106.009c-.253 0-.525-.136-.77-.136a.466.466 0 0 0-.264.074c-.413.6-.788 1.268-.833 2.011-.082 1.426-.045 1.92 1.08 3.091.443 1.006 1.269 4.285 1.516 5.178.27.255-.337 1.65-.593 1.996-.138.191-.504.2-.897.2h-.129c-.353 0-.711.008-.932.145-.21.135-.285.638-.165.705.113-.172.338-.405.495-.427-.15.157.375.082.488.12.303.005.61.03.918.03.15 0 .298-.006.448-.023.067-.03.14-.075.171-.075.025 0 .025.027-.021.113.212.055.45.083.684.083.525 0 1.022-.14 1.132-.42a8.15 8.15 0 0 0 .585-1.299c.191.04.432.176.625.176a.284.284 0 0 0 .155-.04c.21-.144.428-.811.548-1.254.011-.046.074-.069.137-.069.06 0 .122.021.14.061.226.45.6 1.831.961 2.41.272.427.93.638 1.631.638.442 0 .9-.083 1.288-.249.488-.21.848-.165.743-.435-.165-.45-.45-.878-.75-1.26.435.27.87.547 1.305.817.036.131.126.183.218.183.178 0 .362-.193.18-.385-1.704-2.461-4.412-6.656-6.288-8.014a2.525 2.525 0 0 0-1.043-.563c-.128-.33-.09-.773-.165-1.148-.075-.743-.526-1.973-1.313-2.446zm11.418.496l.095.003c.423.03.886.192 1.389.483-.503.312-.966.48-1.389.506a1.34 1.34 0 0 1-.08.002c-.368 0-.548-.17-.538-.508-.01-.324.165-.486.522-.486zm0 3.003c.03 0 .062 0 .095.003.423.03.886.191 1.389.483-.503.312-.966.48-1.389.506a1.34 1.34 0 0 1-.08.002c-.368 0-.548-.17-.538-.508-.01-.324.165-.486.522-.486zm-.056-3.499c-.028 0-.056 0-.082.002-.539.02-.838.347-.898.98.08.674.366 1.012.86 1.012h.022c.508-.01 1.22-.192 2.136-.544h8.721c.714.06 1.074.392 1.079.996.005.604-.355.97-1.079 1.101h-8.721c-.832-.363-1.511-.544-2.038-.544l-.082.001c-.539.02-.838.347-.898.981.08.674.366 1.011.86 1.011h.022c.508-.01 1.22-.191 2.136-.543h8.332c1.026 0 1.731-.321 2.117-.966.397-.664.397-1.328 0-1.992-.38-.635-1.07-.952-2.072-.952-.046 0-.092 0-.139.002h-8.238c-.832-.363-1.511-.545-2.038-.545zm12.028 11.035c.23.326.287.73.306 1.119-.008.183.006.382-.07.555-.216-.215-.197-.71-.202-.987 0-.273-.009-.497-.034-.687zM32.9 12.977l11.209.012c-1.638 1.552-3.28 2.31-5.754 2.31-2.485 0-3.989-.74-5.455-2.322zm-.503-.452a.225.225 0 0 0-.171.372c1.628 1.9 3.356 2.853 6.129 2.853 2.698 0 4.541-.915 6.32-2.682.06.17.09.436.09.904.012.52.008 1.383.69 1.443.481-.098.48-.612.484-1.011 0-.492-.12-.937-.32-1.276-.202-.338-.498-.59-.858-.59l-12.364-.013z"/><path d="M8.22.375c-9.625 0-9.625 17.25 0 17.25m0-17.25h37.719M8.22 17.625h37.719M53.626.375v17.25M45.939.375c9.625 0 9.625 17.25 0 17.25" fill="none" stroke="#000"/></svg>