<svg xmlns="http://www.w3.org/2000/svg" width="102.922" height="18"><path d="M18.058.568q-.111.037-.111.128t.07.146q.027.022.054.022.04 0 .077-.05.063-.081.021-.163-.041-.083-.11-.083zM2.67.47q-.153 0-.296.282.084.183.264.237.028.01.054.01.131 0 .224-.229 0-.255-.194-.292Q2.695.47 2.669.47zM1.665.787q-.042.128.027.238l-.583.073q-.014-.164.556-.31zm.568.436zm.105-.003q.12 0 .195.033.027.012 0 .012-.052 0-.288-.04.05-.005.093-.005zm2.564 1.252q.035 0 .097.068 1.125 1.223 2.792 2.865Q9.46 7.048 9.667 7.724 8.305 7.468 7.34 6.318q-.966-1.15-1.681-2.236-.716-1.086-.799-1.414-.017-.196.042-.196zm.046-.868q.202 0 .384.096 4.321 4.308 4.946 5.604.584 1.405.764 2.154-.076.11-.182.11-.087 0-.193-.074l-.57-1.515q-.43-1.296-2.104-2.875-1.674-1.579-2.424-2.5-.441-.542-.676-.542-.164 0-.227.268-.108.455-.38.455-.115 0-.26-.081.126-.858.542-1.022.198-.078.38-.078zm.357 6.43q.666 1.405.541 2.83-.125 0-.236.236-.045-.403-.277-.403-.051 0-.112.02.292-1.405.084-2.683zM2.827.346q.066 0 .116.013.25.063.292.237.029.122.058.122.013 0 .025-.022.042-.073.056-.164.305.53.041 1.57t.848 1.24q1.028 3.104 2.209 4.72 1.18 1.615.986 3.038-.449-.438-.993-.438-.113 0-.23.019.042-1.296-.472-2.556t-.945-1.889q-.43-.63-1.16-1.497-.73-.867-.722-1.789.007-.921.194-1.286.188-.365.181-.584-.003-.091-.027-.091-.035 0-.112.182-.132.31-.73.328l-.07.001q-.568 0-1.235-.274l.82.073q.404.11.601.11.162 0 .183-.074.049-.164-.076-.192-.125-.027-.257-.027t-.201.055l.026.052-.29-.052Q1.762.787 1.887.623q.028-.055.097-.055-.028.183.049.274.028.034.056.034.046 0 .09-.098.07-.155-.125-.228.511-.204.773-.204zm15.412.04q.375 0 .555.365.056.055.695.2v.056l-.695.073q-.597 0-.75-.12-.153-.118-.146-.273.007-.155.188-.155.18 0 .25.082t.035.173q-.035.092-.132.147h.028q.18 0 .187-.22.007-.237-.299-.273-.389 0-.291.374.092.357.854.357l.076-.001q.431-.037.765-.128L19.53.97q1.236 1.004 1.16 2.29-.077 1.288-.966 2.136-.889.85-1.584 1.871-1.083 1.734-1.167 2.72-.083.986.376.986.458 0 1.118-.721.66-.721 1.34-.74 1.82.055 1.612 2.209-.667-.93-1.5-.93-.417 0-1.14.474-1.097.766-1.667.766l-.472-.091q-.861-.84-.583-2.482.416-1.187 1.125-4.235.486-1.734.965-2.628.48-.895 1.022-.913.291 0 .944.365.027.01.047.01.094 0 .037-.21-.526-.429-1.226-.429-.225 0-.47.045-.208 0-.506-.146-.3-.146-.3-.694.251-.237.543-.237zM4.666 3.05q1.083 1.825 1.986 3.002.903 1.178 1.702 1.588.799.411 1.48.43.083.145 1.653 4.617l-.097.055-3.738-3.14q.028-.273-1.104-1.962-1.132-1.687-1.994-4.46l.112-.128zM8.5 10.918l2.07 1.66q.07.256-.5.348-.127.02-.233.02-.37 0-.49-.248-.152-.32-.389-.831-.236-.511-.458-.95zm7.071-.785q0 .767.167 1.332.43 1.004 1.153 1.023h.038q.711 0 1.699-.657.938-.625 1.365-.625.034 0 .066.004.416.055.903.566.486.51.514.894.05.311-.043.311-.06 0-.18-.128-.399-1.05-1.024-1.05h-.01q-.633.01-1.557.648-.923.639-2.153.639t-1.368-1.04q-.14-1.04.43-1.917zM5.277 11.192l.208.547q.195-.255.299-.3l.005-.002q.088 0-.304 1.543l-.583.238q-.153-.146.09-.904.243-.757.285-1.122zm14.763 1.14q.461 0 .727.502-.18.384-.847.603-.514 0-1.042-.566.685-.539 1.162-.539zm-1.607.758q.207.265.448.438h-1.883q.692-.095 1.435-.438zm-7.182 1.15q-1.554 2.935-4.48 3.011-2.913-.076-4.467-3.011zm11.239.018q-1.554 2.935-4.48 3.012-2.913-.077-4.48-3.012zM3.066.008q-.084 0-.179.013-.222 0-1.264.42-.834.255-.903.657l.028.62.417-.2q.68.292 1.139.292.458 0 .347.41-.111.411.028 1.37.139.958 1.097 1.934.959.977 1.188 2.556.23 1.578-.41 3.641l.209-.164q.004-.004.007-.004.046 0-.216.816-.277.867-.757.894-.084.005-.16.005-.348 0-.486-.105-.155-.12-.462-.12l-.045.001q-.34.01-.34.302v.182H1.33Q2.93 17.982 6.777 18q3.849-.018 5.446-4.472l-4.279.037q0-.165-.264-.356-.129-.094-.296-.094-.175 0-.391.103-.13.061-.278.061-.337 0-.771-.317.097-.639.236-1.14.139-.503.528-.594.036-.008.073-.008.362 0 .816.811.264-.675.153-1.825l.139.128q1.042 2.3 1.257 2.701.163.305.634.305.15 0 .331-.031.75-.128.737-.475l.639.42.486-.237-1.07-3.048q.264 0 .487-.292-.264-1.096-.82-2.446-.39-.822-.792-1.278Q8.681 4.603 7.5 3.39T5.763 1.518q-.373-.28-.775-.28-.226 0-.461.088-.653.246-.792 1.214-.042-.037.07-.73.11-.694-.05-1.287-.138-.514-.689-.514zM18.286 0q-.252 0-.478.094-.292.11-.347.42-.111.383.097.757.208.374.653.466-.89 1.058-1.514 3.741-.584 2.556-.973 3.779-1.042 1.113-1.035 2.236.007 1.122.424 1.597.301.343.878.438h-3.434q1.597 4.454 5.446 4.472 3.848-.018 5.445-4.472h-2.674q.153-.11.313-.256.156.245.354.245.083 0 .174-.044.347-.219.139-1.004.194-2.245-.459-2.865-.653-.621-1.473-.621-.75 0-1.625.849-.543.526-.743.526-.124 0-.118-.198.014-.52.611-1.761.403-.876 1.75-2.254 1.348-1.378 1.334-2.775-.014-1.396-.597-2.099-.584-.703-1.292-.794-.111-.2-.292-.328-.18-.128-.48-.146Q18.329 0 18.287 0zm16.782 8.704c.337 0 .752.06 1.245.18 1.04.253 1.941.612 2.7 1.076a33.53 33.53 0 0 1 2.554 1.752c-.907.459-1.95.689-3.13.689-.265 0-.537-.012-.816-.035-1.52-.127-2.824-.574-3.914-1.34-1.09-.767-1.361-1.238-.813-1.414.549-.176.996-.404 1.34-.686.182-.148.46-.222.834-.222zm7.259 3.176l.865.19c0 .225-.204.408-.612.549-.232.016-.474.024-.726.024-.42 0-.867-.022-1.342-.066.914-.113 1.52-.345 1.815-.697zm1.33.317l.527.105c.056.17-.14.338-.591.507l-.612-.042c.436-.197.661-.387.675-.57zm.801.211l.359.084c-.085.24-.338.36-.76.36.24-.156.373-.303.401-.444zm.591.211c.338.098.563.26.675.485l-.95-.21c.184-.085.275-.177.275-.275zm-2.195 1.245c1.055.127 1.85.422 2.385.886l-2.617-.612c.028-.154.106-.246.232-.274zM30.636.401c.661 0 1.16.183 1.499.549.337.365.443 1.248.316 2.648-.127 1.4-.169 2.35-.127 2.849.043.5.173.868.39 1.108.219.239.483.474.792.706.31.233.155.44-.464.623-.62.183-.964.454-1.034.812-.07.36.018.69.264.992.246.303.833.71 1.762 1.224.928.514 1.748.84 2.458.981.71.141 2.888.211 6.531.211 1.126.211 1.871.493 2.237.844l-2.406-.548a.943.943 0 0 0-.527.4c0 .366-.795.577-2.385.634-.239 0-.4-.33-.485-.992l-.253.211c.126.535.161 1.006.105 1.414a1.582 1.582 0 0 0-1.034-.95c-.788-.14-1.491-.27-2.11-.39-.619-.12-1.245-.376-1.878-.77-.563-.436-1.467-.908-2.712-1.414-1.245-.507-1.867-1.26-1.867-2.258 0-.999.334-1.825 1.002-2.48.668-.654 1.002-1.438 1.002-2.352 0-.45-.056-.876-.168-1.277-.102-.363-.406-.544-.91-.544a2.39 2.39 0 0 0-.167.006l-1.772.232a1.71 1.71 0 0 1 .253-.507c.14-.436.296-.689.464-.76.025.087.12.13.284.13.024 0 .049 0 .075-.003.281-.014.443-.154.485-.422-.028-.267-.19-.408-.485-.422-.253.014-.394.155-.422.422-.225.211-.4.458-.527.739a.273.273 0 0 1-.12.03.276.276 0 0 1-.197-.093c.169-.338.415-.686.739-1.045.323-.359.787-.538 1.392-.538zm4.79 13.758l.676.17-.76 1.097.084-1.267zm1.309.233c.562 0 1.037.06 1.424.179.387.12.626.573.718 1.361.09.774-.028 1.161-.352 1.161h-2.043a1.842 1.842 0 0 0-.137-.005c-.345 0-.729.093-1.15.279.112-.985.625-1.977 1.54-2.975zM30.636 0c-.956 0-1.744.535-2.363 1.604-.211.351-.837.703-1.878 1.055-.718.21-1.027.506-.929.886l.021.253c1.337-.126 2.455-.288 3.356-.485l1.646-.295a.89.89 0 0 1 .024 0c.49 0 .732.414.725 1.245-.007.844-.363 1.6-1.066 2.268-.703.668-1.062 1.635-1.076 2.902 0 1.027.489 1.762 1.466 2.205a39.78 39.78 0 0 1 2.839 1.424c.914.507 1.435.9 1.561 1.182-.07 1.491-.253 2.455-.548 2.89-.493 0-1.351-.07-2.575-.21-.38.056-.64.18-.78.37-.141.189-.113.397.084.622.094-.136.184-.204.27-.204.03 0 .06.008.088.024.113.064.394.095.845.095h2.068c.101-.02.197-.03.288-.03A.92.92 0 0 1 35.3 18a.988.988 0 0 0 .506-.169c.621.018 1.14.027 1.559.027.558 0 .935-.016 1.132-.048.344-.056.657-.105.939-.148l.717.232.024.001c.161 0 .182-.14.06-.423-.618-.337-.759-1.188-.421-2.553.119.003.234.004.345.004 1.113 0 1.842-.128 2.187-.384 1.407.253 2.553.5 3.44.739l.147-.253c-.366-.408-.64-.669-.823-.781l.929.19c.15.056.254.084.312.084.115 0 .046-.112-.207-.337-.056-.155-.464-.458-1.224-.908l1.288.253c.14-.9-.837-1.54-2.934-1.92a7.14 7.14 0 0 1-2.975-1.477c-1.168-1.027-2.933-1.78-5.297-2.258-1.252-.084-1.948-.468-2.089-1.15-.14-.682-.137-1.77.01-3.26.149-1.491-.059-2.462-.622-2.912C31.881.183 31.326 0 30.636 0z"/><path d="M37.4 0v7.2h1.205V0zm14.507 3.506c.779 0 1.258.431 1.44 1.293v8.381c-.182.876-.661 1.314-1.44 1.314-.778 0-1.23-.438-1.355-1.314V4.8c.125-.862.577-1.293 1.355-1.293zM49.248 0c-.134 0-.27.008-.405.024-.292.111-.438.243-.438.396 0 .125.083.244.25.355 1.585 0 2.53.68 2.835 2.043-1.153.209-1.695.96-1.626 2.252v7.84c-.07 1.306.473 2.063 1.626 2.272-.305 1.362-1.25 2.043-2.835 2.043-.167.111-.25.23-.25.355 0 .139.146.27.438.396a3.457 3.457 0 0 0 1.72-.24c.563-.23 1.01-.65 1.344-1.261.348.611.8 1.032 1.356 1.261a3.24 3.24 0 0 0 1.71.219c.291-.111.437-.236.437-.375 0-.125-.083-.244-.25-.355-1.585 0-2.53-.68-2.836-2.043 1.154-.209 1.724-.966 1.71-2.273V5.07c.014-1.292-.556-2.042-1.71-2.25C52.63 1.455 53.575.774 55.16.774c.167-.111.25-.23.25-.355 0-.153-.146-.285-.438-.396a3.393 3.393 0 0 0-1.71.24c-.555.23-1.007.643-1.355 1.24-.333-.597-.781-1.01-1.344-1.24A3.457 3.457 0 0 0 49.248 0zm12.528.601c1.074 0 2.419.552 3.07 1.202.568.57.643 1.324.664 2.025h-7.435c.02-.7.095-1.455.664-2.025.65-.65 1.963-1.202 3.037-1.202zm0-.601c-1.274 0-2.645.589-3.448 1.392-.824.824-.918 1.91-.918 2.72v.317h8.732v-.316c0-.812-.061-1.897-.886-2.72C64.453.588 63.05 0 61.776 0zm0 14.172c1.074 0 2.419.552 3.07 1.202.568.57.643 1.324.664 2.025h-7.435c.02-.701.095-1.456.664-2.025.65-.65 1.963-1.202 3.037-1.202zm0-.601c-1.274 0-2.645.588-3.448 1.392-.824.824-.918 1.909-.918 2.72V18h8.732v-.316c0-.812-.061-1.897-.886-2.721-.803-.804-2.206-1.392-3.48-1.392zM69.887 0c-.93 0-1.745.684-1.745 1.562V18h1.136V1.562c0-.43.379-.57.617-.57.25 0 .634.175.634.703v10.804h1.135V1.695c0-.88-.87-1.695-1.777-1.695zm12.061.585c-.03 4.318-.064 8.637-.09 12.955.062.7.099 1.402.18 2.1.048.372.29.72.238 1.101-.08.258-.249.662-.535.662a.4.4 0 0 1-.208-.066c-.463-.178-.904-.472-1.414-.472-.029 0-.057 0-.086.002h-.076c-.97 0-1.924.214-2.886.308-.527.075-1.05.195-1.584.195h-.068c.963-.218 1.914-.586 2.673-1.234 1.033-.802 2.069-1.6 3.1-2.406.14-.172-.067-8.948-.137-13.114l.893-.03zM82.473 0c-.51.017-1.27.009-1.778.041-.271.079-.224.383-.22.601l.21 12.755c-1.127.862-2.244 1.737-3.377 2.59-.635.413-1.368.67-2.109.806-.33-.004-.665-.175-.995-.175a.763.763 0 0 0-.316.064c-.254.195-.342.73-.001.894.512.274 1.082.379 1.656.379.363 0 .727-.042 1.079-.109.818-.139 1.644-.22 2.466-.336.27-.024.55-.06.827-.06.298 0 .592.042.862.19.324.143.682.36 1.044.36a.8.8 0 0 0 .362-.084c.378-.236.597-.675.69-1.1.075-.556-.3-1.047-.293-1.599-.043-.603-.112-1.205-.139-1.809.031-4.364.2-13.408.032-13.408zM93.69.822q1.093 0 1.994.544 1.832 1.063 3.472 1.063 1.65 0 3.027-.142v2.835q-1.71-.304-2.47-.304h-.02q-.618 0-1.721.142-4.485.618-5.589.618-1.832 0-3.452-.061-2.774-.162-3.048-.294-.263-.121-.263-.698 0-.567.152-.992.152-.426.506-.608 8.667-.384 9.345-.445-.604-.872-1.871-.872-.412 0-.893.092-1.614.318-2.489.318-.184 0-.336-.014-.86-.081-.8-.82.484.065.999.065 1.081 0 2.302-.288.602-.14 1.155-.14zM93.948 0q-.438 0-.866.11-1.731.456-3.048.477-.324 0-1.164-.162-.395.364-.395.86t.314.84q-3.31.122-3.31.395-.598.76-.598 1.823 0 1.053.557 1.437 1.68.537 6.753.537.81 0 1.65-.081 4.698-.699 5.599-.719h.088q.926 0 3.394.385V1.427l-.02.02q-2.116.243-3.452.273-.069.003-.137.003-1.272 0-2.617-.711Q95.274 0 93.948 0zm7.865 9.775c.164 0 .246.596.246.76 0 .165-.082.76-.246.76H86.032c-.192 0-.288-.595-.288-.76 0-.164.096-.76.288-.76zm-16.274-.863c-.439 0-.658.883-.658 1.623s.22 1.623.658 1.623h16.767c.411 0 .616-.883.616-1.623s-.205-1.623-.616-1.623zm16.274 6.704c.164 0 .246.596.246.76 0 .165-.082.761-.246.761H86.032c-.192 0-.288-.596-.288-.76 0-.165.096-.76.288-.76zm-16.274-.863c-.439 0-.658.884-.658 1.624 0 .74.22 1.623.658 1.623h16.767c.411 0 .616-.884.616-1.623 0-.74-.205-1.624-.616-1.624z"/></svg>