<svg xmlns="http://www.w3.org/2000/svg" width="41.213" height="18"><path d="M9.761 2.25L8.22 4.072h.752l.79-.941.797.941.774-.941.797.941.79-.941.797.941.79-.941.797.941.775-.941.797.941.797-.941.775.941.797-.941.79.941h.752L19.245 2.25l-.797.88-.775-.88-.797.88-.797-.88-.775.88-.797-.88-.79.88-.797-.88-.79.88-.797-.88-.774.88-.798-.88zm6.605 7.649q.17 0 .354.077.41.174.41 2.759v2.473h-4.642q1.793-2.46 2.46-3.717.667-1.258 1.014-1.473.193-.12.404-.12zm-.197-.528h-.075q-.66.015-1.486 1.613-.827 1.598-3.273 4.766h6.337l-.014-3.557q-.07-2.377-.487-2.606-.393-.216-1.002-.216zm8.085-6.645q-.279 0-.279.328 0 .278.279.278.295-.016.295-.311t-.295-.295zm-1.082.213v.295l-.64.115q.296-.312.64-.41zm.033.393q.377.295.13.443-.376-.131-.557-.344l.427-.099zm1.147-.754q.77 0 1.23.59.459.59.492 1.82 1.196.246 1.59 1.082.063.542-.244.542l-.02-.002q-.327-.016-.516-.18-.069-.06-.104-.06-.06 0-.019.183.066.287.721.696.656.41.107.68-.136.068-.29.068-.467 0-1.095-.616-.836-.82-.886-1.246-.049-.427.345-.787.234-.215.16-.215-.05 0-.242.1-.476.246-.5.721-.025.476.377 1.041.401.566 1.582 1.435.12.063.273.063.324 0 .792-.285.689-.418-.688-1.286.508-.132.524-.443.64.213 3.59 3.967.787.525.804.77-.017.23-.246.28-.05.01-.1.01-.186 0-.392-.142-.918.443-1.779.46h-.09q-.8 0-1.328-.28.541.476.377 1-.079.255-.12.255-.043 0-.043-.287 0-.558-1.427-1.066v.623q-.084.353-.133.353-.047 0-.063-.32-.099-.705-.468-1.517-.369-.811-1.172-2.245-.803-1.435-1.024-2.066-.222-.631-.205-1.172.016-.541-.222-.795-.237-.254-.139-.55.098-.295-.295-.557v-.278q.426-.345.885-.345zm3.115 9.443q.803.23.803.54l-.54 2.017q-.066.361-.443.361h-.656v-.033l.836-2.557v-.328zM24.411 2.25h-.059q-.64 0-1.295.525-.377.131-.77.607.54.491.983.606.05.23.312.64.016 1.081.295 1.795.278.713 1.869 3.827.787 1.64.787 2.017 0 .574-.722 2.574 0 .114-.983.18-1.476.05-1.476.41 0 .213.197.213h4.36q.41-.328.46-.558.393.164.426.443.055.221.157.221.019 0 .04-.008.13-.049.13-.213-.114-.443-.573-.852l.525-2.213q1.59-.05 2.77-.509.219.05.4.05.365 0 .584-.197.328-.295-.131-.918-1-1-1.902-2.197-1.853-2.279-2.541-2.64-.23-.475-.55-.753-.319-.28-1.155-.689-.016-.967-.45-1.672-.425-.689-1.688-.689z"/><path d="M8.22.375c-9.625 0-9.625 17.25 0 17.25m0-17.25h24.743M8.22 17.625h24.743M40.65.375v17.25M32.963.375c9.625 0 9.625 17.25 0 17.25" fill="none" stroke="#000"/></svg>