<svg xmlns="http://www.w3.org/2000/svg" width="54.395" height="18"><path d="M11.386 8.203c-.51.04-.793.296-.847.767.067.51.35.78.847.806.498-.026.76-.295.787-.806-.04-.47-.303-.726-.787-.767zm.06-1.694c.364 0 .7.068 1.01.202a2.659 2.659 0 0 1 1.371 1.361c.134.303.201.622.201.958 0 .35-.067.676-.202.978a2.567 2.567 0 0 1-2.38 1.523c-.362 0-.702-.064-1.018-.192a2.426 2.426 0 0 1-.816-.534 2.621 2.621 0 0 1-.545-.797 2.38 2.38 0 0 1-.202-.978c0-.336.068-.655.202-.958.134-.302.316-.571.545-.806.228-.236.5-.42.816-.555a2.574 2.574 0 0 1 1.019-.202zm-.04-.685c-.443 0-.86.084-1.25.252-.39.168-.726.396-1.008.685a3.36 3.36 0 0 0-.676 1.009 3.053 3.053 0 0 0-.252 1.24c0 .444.084.857.252 1.24.168.384.393.716.676.999a3.2 3.2 0 0 0 2.258.927c.444 0 .857-.084 1.24-.252a3.36 3.36 0 0 0 1.009-.675c.289-.283.518-.615.686-.999.168-.383.252-.796.252-1.24 0-.444-.084-.857-.252-1.24a3.268 3.268 0 0 0-1.694-1.694 3.053 3.053 0 0 0-1.24-.252zm6.568-3.052q.695 0 .695.917 0 .806-.695 1.596-.696-.79-.696-1.596 0-.917.696-.917zm0 3.525q.49 0 .49 1.059 0 .6-.49 1.107-.49-.506-.49-1.107 0-1.06.49-1.06zm0 3.193q.49 0 .49 1.06 0 .6-.49 1.106-.49-.506-.49-1.107 0-1.059.49-1.059zm0-7.24q-1.265 0-1.265 1.439-.016.9.42 1.414.434.514.386.688-.553.648-.553 1.565 0 .759.648 1.628-.648.648-.648 1.565 0 .759.648 1.613.08.205-.442.964t-1.075 2.624h.695q.348-1.233.617-1.763.269-.53.569-.861.316.332.577.861.26.53.608 1.763h.712q-.522-1.865-1.067-2.624-.546-.759-.45-.964.632-.854.632-1.613 0-.917-.601-1.565.6-.87.6-1.628 0-.917-.537-1.565-.047-.174.38-.688.426-.513.426-1.414 0-1.439-1.28-1.439zm18.423.426q.331 0 .331.347v2.668h-1.01l.332-2.81q.016-.205.347-.205zm.016-.426q-.805 0-.853.458-.331 2.983-.71 2.999l-7.323.268-.758-.032q-.852-.9-1.515-.9l-.49-.03q-1.341.252-1.61.252-.189 0-.189.252 0 .347.537.347.921-.146 1.413-.146.09 0 .165.004.268 0 .442.221-.308.381-1.378.381l-.169-.002q-1.215-.031-2.146-.315-.458 0-.458.536.047.49 3.425.505l1.5-.158 8.554-.047 2.4.032V3.023q-.016-.773-.837-.773zm-.016 9.128q.331 0 .331.347v2.668h-1.01l.332-2.81q.016-.205.347-.205zm.016-.426q-.805 0-.853.457-.331 2.984-.71 3l-7.323.268-.758-.032q-.852-.9-1.515-.9l-.49-.031q-1.341.252-1.61.252-.189 0-.189.253 0 .347.537.347.921-.147 1.413-.147.09 0 .165.005.268 0 .442.221-.308.381-1.378.381l-.169-.002q-1.215-.032-2.146-.316-.458 0-.458.537.047.49 3.425.505l1.5-.158 8.554-.047 2.4.031v-3.85q-.016-.774-.837-.774zm7.302-5.156l-.334.759q.714.144 1.018 1.435l1.154-.296v.721l-1.124.32q.008 1.062-.205 1.996-.22.934-.995 1.208-.387.132-.778.132t-.786-.132q-.79-.274-1.002-1.208-.22-.934-.198-1.997l-1.123-.319v-.721l1.146.296q.304-1.29 1.025-1.435l-.349-.76zm-3.083-.532q-.273 0-.038.532l.205.463q-.607.387-.759 1.07l-1.29-.387v1.921l1.214.35q0 1.093.312 2.186.318 1.094 2.164 1.337 1.845-.243 2.171-1.337.32-1.093.32-2.186l1.214-.35v-1.92l-1.306.387q-.152-.684-.76-1.071l.206-.463q.243-.532-.038-.532z"/><path d="M8.22.375c-9.625 0-9.625 17.25 0 17.25m0-17.25h37.925M8.22 17.625h37.925M53.833.375v17.25M46.145.375c9.625 0 9.625 17.25 0 17.25" fill="none" stroke="#000"/></svg>