<svg xmlns="http://www.w3.org/2000/svg" width="53.515" height="18"><path d="M6.286.322q.06 0 .113.039.214.116-.136.564-.37.369-.457.622-.088.253-.185.67-.097.419-.428 1.197l-.447.136H3.132q.233-.506.544-.914.759-.7 1.128-.934.37-.233.593-.398.224-.166.477-.632.233-.35.412-.35zM5.27 3.939l-.311.68q-.454-.045-.84-.045-.775 0-1.28.182-.097-.661-.292-.817zm-2.237 1.42q-.37.02-.389.35.02.389.39.389.369 0 .388-.39-.02-.33-.389-.35zm.837-.33q.836 0 .972.777.136.778-.895 1.07.35.66 0 .836-.123.062-.24.062-.216 0-.411-.208-.302-.32-.535-.914-.233-.593-.7-.593h.33q-.213-.33-.155-.506l.034.002q.166 0 .219-.177.37-.35 1.38-.35zm1.147.057q.292 0 .836 1.255.545 1.254 1.77 2.314t1.974 2.577q.749 1.517 2.927 3.326-3.812-1.809-4.784-2.237-.973-.428-3.15-2.003-1.246-.914-1.246-1.459 0-.427.098-.739V8.1q.992 0 .992-.991 1.342-.661.583-2.023zm-.545 5.971q.37 1.77 1.829 3.91-.139.109-.302.109-.385 0-.904-.616 0-.972-.7-3.403zm.642.622q1.148.914 2.587 1.731v1.848q-.506-.39-1.011-.467-1.381-2.256-1.576-3.112zm.214 3.812q.265.336.546.336.255 0 .524-.277l.097 1.711q-.185-.041-.354-.041-.308 0-.56.138-.34-.113-.597-.113-.096 0-.18.016l.524-1.77zm.603-3.676l5.815 2.937q1.128 1.264 2.159 2.392v.02l-1.459.233-2.898-3.131q-.836-.68-3.617-2.45zM6.202 0h-.037q-.233.01-.486.4-.058.174-.243.388-.185.214-.535.428-.35.214-.505.34-.156.127-.525.458-.312.252-.448.408-.31-.194-.525-.476-.214-.282-.233-.516-.02-.233.048-.37.069-.135.214-.165.04-.008.08-.008.103 0 .202.057.136.078.117.272-.039.175-.253.214-.058-.025-.095-.025-.05 0-.06.045-.04.252.194.272l.05.002q.2 0 .33-.138.145-.156.126-.525Q3.482.652 3.19.613 3.137.606 3.084.606q-.237 0-.468.144-.282.175-.311.544-.03.37.263.749.291.379.641.632-.272.35-.564.875H1.81q.506.545.603 1.536h-.04q-.346 0-.29.331-.545.156-.545 1.03.181-.105.34-.105.044 0 .088.009.233 0 .379.544.146.545.632 1.206v.02q-.117.233-.117.738 0 .506.895 1.459.895 3.073.875 4.493 0 .175.253.213l-.642 2.14q-.052-.004-.106-.004-.272 0-.604.082-.19.046-.388.046-.219 0-.448-.056-.253-.062-.497-.062-.177 0-.349.033-.272.051-.432.051-.08 0-.132-.012-.506.116-.564.758.337-.194.514-.194.089 0 .138.048.145.146.573.146h5.66q.37 0 .583-.156.071-.051.169-.051.194 0 .492.207.02-.622-.66-.797-.386.143-.696.143-.238 0-.433-.085l-.097-1.925q.532.736.93.736.17 0 .315-.134-.137-1.186-.137-2.178l.545.33q.467.215 2.052 2.024 1.52 1.734 1.814 1.734.013 0 .024-.004l1.847-.389q.292-.097.117-.291L13.01 15.51q1.362.875 2.042 1.167-.33-.37-1.108-.934l.389.136q.233-.039.194-.37-3.384-2.45-4.298-4.22-.914-1.77-2.149-2.878-1.235-1.108-1.838-2.49-.37-.874-.758-1.186L7.293.633 6.866.399 5.854 2.597l.098-.447q.116-.467.252-.7.137-.234.273-.331.291-.428.291-.661 0-.234-.175-.35Q6.413 0 6.201 0zm28.809 4.24v1.962H20.557V4.239zm-14.4-1.99v1.485h-.558v2.97h15.462v-2.97h-.45V2.25h-.505v1.485h-1.246V2.25h-.504v1.485h-1.247V2.25h-.504v1.485h-1.22V2.25h-.53v1.485h-1.22V2.25h-.504v1.485H26.34V2.25h-.504v1.485h-1.247V2.25h-.504v1.485h-1.22V2.25h-.503v1.485h-1.247V2.25zm2.725 7.39a2.82 2.82 0 0 1 2.206 1.057H21.13a2.82 2.82 0 0 1 2.206-1.057zm2.505 1.512c.17.324.28.686.312 1.07H20.52a2.82 2.82 0 0 1 .313-1.07zm.315 1.525a2.813 2.813 0 0 1-.296 1.068h-5.047a2.813 2.813 0 0 1-.297-1.068zm-.585 1.524a2.822 2.822 0 0 1-2.235 1.093c-.91 0-1.717-.427-2.234-1.093zm-2.235-5.017a3.287 3.287 0 0 0-3.283 3.283 3.287 3.287 0 0 0 3.283 3.283 3.287 3.287 0 0 0 3.283-3.283 3.288 3.288 0 0 0-3.283-3.283zm9.749-.374l-.334.76q.714.143 1.017 1.434l1.155-.296v.722l-1.124.318q.007 1.063-.205 1.997-.22.934-.995 1.208-.387.133-.778.133t-.786-.133q-.79-.274-1.002-1.208-.22-.934-.198-1.997l-1.124-.318v-.722l1.147.296q.304-1.29 1.025-1.435l-.35-.76zm-3.083-.532q-.273 0-.038.532l.205.463q-.607.387-.759 1.07l-1.29-.387v1.922l1.214.349q0 1.093.311 2.187.32 1.093 2.164 1.336 1.846-.243 2.172-1.336.319-1.094.319-2.187l1.215-.35v-1.92l-1.306.387q-.152-.684-.76-1.07l.206-.464q.243-.532-.038-.532z"/><path d="M17.428.375v17.25m0-17.25h2.625m-2.625 17.25h2.625m0-17.25h15.462m-15.462 17.25h15.462m0-17.25H53.14m-17.625 17.25H53.14M37.277.375v17.25M40.802.375v17.25M42.565.375v17.25M44.327 2.1h8.813m-8.813 3.45h8.813M44.327 2.1v3.45m1.763-1.725h7.05m-8.813 3.45h8.813m-8.813 3.45h8.813m-8.813-3.45v3.45M46.09 9h7.05m-8.813 3.45h8.813m-8.813 3.45h8.813m-8.813-3.45v3.45m1.763-1.725h7.05" fill="none" stroke="#000"/></svg>