<svg xmlns="http://www.w3.org/2000/svg" width="52.513" height="18"><path d="M14.115 7.42c-.511.04-.793.296-.847.766.067.511.35.78.847.807.497-.027.76-.296.786-.807-.04-.47-.302-.726-.786-.766zm.06-1.694c.363 0 .7.067 1.009.201a2.659 2.659 0 0 1 1.371 1.361c.134.303.202.623.202.959 0 .35-.068.675-.202.978a2.567 2.567 0 0 1-2.38 1.523c-.363 0-.702-.064-1.018-.192a2.426 2.426 0 0 1-.817-.535 2.621 2.621 0 0 1-.544-.796 2.38 2.38 0 0 1-.202-.978c0-.336.067-.656.202-.958.134-.303.316-.572.544-.807.229-.235.5-.42.817-.555a2.574 2.574 0 0 1 1.018-.201zM8.83 9.81c1.212.895 2.396 1.49 3.552 1.788a6.938 6.938 0 0 0 1.733.223 6.96 6.96 0 0 0 1.733-.223c1.156-.297 2.34-.893 3.552-1.788-1.009 1.115-2.142 1.89-3.4 2.325a5.68 5.68 0 0 1-1.867.325c-.626 0-1.248-.11-1.867-.331-1.233-.44-2.378-1.213-3.436-2.32zm5.306-4.77c-.444 0-.86.083-1.25.251-.39.168-.726.397-1.009.686a3.36 3.36 0 0 0-.675 1.008 3.053 3.053 0 0 0-.252 1.24c0 .444.084.858.252 1.24.168.384.393.717.675.999a3.2 3.2 0 0 0 1.127.724 6.773 6.773 0 0 1-1.123-.31c-1.489-.55-2.44-1.044-2.856-1.483-.153-.17-.306-.256-.457-.256a.442.442 0 0 0-.196.048c-.216.106-.201.362.043.77.268.52.93 1.143 1.983 1.867 1.054.724 2.293 1.102 3.717 1.135 1.424-.033 2.663-.411 3.717-1.135 1.053-.724 1.715-1.347 1.983-1.868.244-.407.263-.665.055-.775a.417.417 0 0 0-.197-.051c-.15 0-.305.084-.468.253-.415.447-1.367.945-2.856 1.495a6.8 6.8 0 0 1-1.058.298 3.36 3.36 0 0 0 1.094-.712c.289-.282.517-.615.685-.998.168-.383.252-.797.252-1.24 0-.444-.084-.858-.252-1.24a3.268 3.268 0 0 0-1.694-1.695 3.053 3.053 0 0 0-1.24-.252zm12.06-2.79l-.014.001a15.506 15.506 0 0 1-1.122.037c-.08.005-.087.107-.06.165.168.474.313.956.45 1.44h-.02c-.134.003-.271 0-.404.013l-.007.01c-.008-.03-.028-.058-.06-.065a28.706 28.706 0 0 1-1.275-.923c-.01-.002-.02-.005-.031-.005h-.008c-.041.026-.057.084-.08.127-.073.197-.134.399-.216.593-.058.148-.123.294-.167.446.02.042.057.055.097.055.039 0 .08-.012.113-.022.515-.11 1.046-.1 1.57-.107-.052.115-.074.243-.122.36-.02.066-.046.134-.06.202a.092.092 0 0 0-.014 0l-.016.001c-.64.248-1.264.552-1.81.97a6.77 6.77 0 0 0-.75.652c-.005.096.104.127.176.154l.442.182c-.075.103-.094.236-.142.353-.248.726-.596 1.413-.887 2.122 0 .058.055.087.108.087.02 0 .039-.004.055-.012.103-.019.206-.028.31-.03-.022.08-.03.165-.067.24-.174.555-.459 1.065-.674 1.604-.01.058.045.095.097.095a.1.1 0 0 0 .045-.01 6.45 6.45 0 0 1 .796-.092c-.03.074-.036.157-.06.234-.129.545-.317 1.082-.34 1.646-.004.367.04.733.099 1.095.1.595.28 1.174.511 1.73.003.051.05.083.095.083a.081.081 0 0 0 .072-.04c.034-.075.045-.16.07-.238.134-.481.23-.974.272-1.472.042-.43.058-.863.055-1.295-.017-.505-.138-.999-.216-1.497-.013-.075-.023-.152-.042-.226a7.034 7.034 0 0 1 .764.127c.08 0 .099-.107.062-.164-.216-.567-.437-1.134-.62-1.714l.027.005c.22.04.44.091.663.104.07-.058.02-.152-.014-.216-.269-.582-.489-1.193-.576-1.83-.028-.173-.028-.35-.058-.523.19.077.38.154.57.228.082-.02.086-.121.07-.19a2.105 2.105 0 0 1 .266-1.198c.179-.318.436-.58.699-.828.104.09.225.156.342.227l-.059.015c-.216.418-.398.852-.591 1.28-.025.06-.054.12-.063.184.032.052.086.063.143.063.035 0 .071-.004.104-.004h.005l.241-.006c-.027.083-.034.176-.062.259-.154.639-.308 1.279-.46 1.919.018.068.086.082.15.082a.648.648 0 0 0 .055-.003l.397-.014c-.037.105-.053.218-.089.323-.171.628-.346 1.257-.514 1.886.019.07.088.085.154.085a677.2 677.2 0 0 1 .691-.021.867.867 0 0 0-.024.103c-.132.577-.335 1.144-.366 1.74-.002.54.078 1.077.201 1.602.102.423.246.836.41 1.239.007.046.051.077.094.077.025 0 .049-.01.065-.035.035-.062.041-.137.066-.205a8.29 8.29 0 0 0 .314-1.902c.022-.343.034-.687.018-1.03-.035-.492-.147-.974-.225-1.46-.01-.048-.017-.097-.03-.145.222-.007.443-.014.664-.023.079-.06.035-.167.013-.245-.188-.674-.374-1.349-.567-2.021.185-.007.37-.014.554-.023.078-.06.034-.166.011-.243l-.584-1.969.595-.016c.075-.05.039-.15.004-.214-.177-.4-.351-.801-.534-1.199.132-.054.263-.11.391-.171.353.33.662.728.804 1.196.081.278.087.573.058.86.016.044.054.061.095.061a.2.2 0 0 0 .101-.03l.443-.182-.004.004a5.206 5.206 0 0 1-.347 1.696c-.098.265-.22.52-.326.78-.006.057.047.091.098.091a.102.102 0 0 0 .05-.013c.196-.029.39-.067.585-.105-.039.108-.066.221-.109.327-.166.486-.354.965-.535 1.445-.013.057.038.107.091.107a.08.08 0 0 0 .042-.011 5.81 5.81 0 0 1 .716-.116.57.57 0 0 0-.012.066c-.08.447-.167.892-.223 1.342a4.98 4.98 0 0 0-.018.846c.026.713.097 1.429.288 2.118.033.117.064.236.102.351a.08.08 0 0 0 .075.044c.038 0 .075-.021.084-.062a7.92 7.92 0 0 0 .566-2.05c.05-.41.082-.828.004-1.236-.08-.434-.208-.857-.311-1.285-.017-.05-.026-.104-.043-.153.124.003.247.011.37.027.17.018.34.054.511.069.073-.02.067-.116.031-.166-.24-.577-.551-1.13-.704-1.738l-.008-.032c.029 0 .057 0 .086.002.11.008.218.03.326.039.077-.034.058-.134.022-.192-.318-.723-.662-1.437-.908-2.19-.023-.058-.04-.124-.074-.176l-.006-.003c.2-.083.398-.166.596-.252.046-.08-.032-.156-.09-.201-.507-.462-1.064-.874-1.683-1.171a6.493 6.493 0 0 0-.716-.3c-.018-.055-.043-.11-.057-.163-.063-.181-.116-.368-.196-.542a.252.252 0 0 0 .052.004l.06-.001h.153c.459 0 .92.015 1.37.118a.111.111 0 0 0 .046.009c.045 0 .093-.023.083-.074-.087-.273-.21-.534-.3-.807-.039-.112-.078-.225-.128-.332a.113.113 0 0 0-.06-.008c-.42.308-.834.628-1.27.916-.046.023-.105.07-.073.127v.001a.848.848 0 0 0-.157-.012l-.16.002a1.243 1.243 0 0 1-.068-.001h-.035a.077.077 0 0 0 .004-.029c.17-.508.34-1.022.63-1.476.036-.046.01-.127-.045-.137a.065.065 0 0 0-.012-.001zm6.505.85q.367 0 .966.2 1.028.342 2.13 1.43 1.1 1.09.88 2.02-.22.93-.856 1.395-.526.384-1.268.384-.157 0-.323-.017-.954-.098-1.64-1.505-.685-1.407-.636-2.509.05-1.1.343-1.297.143-.102.404-.102zm-.1-.85q-.504 0-.818.217-.66.465-.734 1.91-.074 1.443.832 3.132.905 1.688 2.202 1.847.248.03.483.03.992 0 1.744-.544.93-.673 1.163-1.909.232-1.235-.991-2.618-1.224-1.383-2.643-1.836-.72-.229-1.238-.229zm1.257 8.502v4.998h.836v-4.998zm7.778-5.872c.584 0 .943.323 1.079.97v6.285c-.136.657-.495.985-1.08.985-.583 0-.922-.328-1.015-.985V5.85c.093-.646.432-.97 1.016-.97zM39.64 2.25c-.1 0-.202.006-.304.018-.219.084-.328.183-.328.297 0 .094.062.183.188.266 1.188 0 1.897.51 2.126 1.533-.865.156-1.272.719-1.22 1.688v5.88c-.052.98.355 1.548 1.22 1.704-.23 1.022-.938 1.533-2.126 1.533-.126.083-.188.172-.188.266 0 .104.11.203.328.297a2.571 2.571 0 0 0 1.29-.18c.423-.172.759-.487 1.009-.946.26.459.6.774 1.016.946a2.43 2.43 0 0 0 1.283.164c.219-.083.328-.177.328-.281 0-.094-.063-.183-.188-.266-1.188 0-1.897-.51-2.126-1.533.865-.156 1.292-.724 1.282-1.704v-5.88c.01-.97-.417-1.532-1.282-1.688.229-1.022.938-1.533 2.126-1.533.125-.083.188-.172.188-.266 0-.114-.11-.213-.328-.297a2.545 2.545 0 0 0-1.282.18c-.418.172-.756.482-1.017.93-.25-.448-.586-.758-1.009-.93a2.592 2.592 0 0 0-.986-.198z"/><path d="M8.22.375c-9.625 0-9.625 17.25 0 17.25m0-17.25h36.043M8.22 17.625h36.043M51.95.375v17.25M44.263.375c9.625 0 9.625 17.25 0 17.25" fill="none" stroke="#000"/></svg>