<svg xmlns="http://www.w3.org/2000/svg" width="72.939" height="18"><path d="M21.229 8.147c.23.327.286.73.306 1.119-.01.184.005.383-.071.555-.216-.214-.197-.71-.201-.987 0-.273-.01-.497-.034-.687zM8.946 7.839l11.21.012c-1.638 1.552-3.28 2.31-5.755 2.31-2.485 0-3.989-.74-5.455-2.322zm-.503-.451a.225.225 0 0 0-.17.372c1.627 1.9 3.356 2.852 6.128 2.852 2.698 0 4.542-.914 6.32-2.681.06.169.091.435.091.903.011.52.007 1.383.69 1.444.48-.1.48-.612.483-1.012 0-.491-.12-.937-.32-1.275-.201-.339-.498-.59-.858-.59L8.443 7.387zM26.25 4.554c-.203.097-.45.367-.075.412.18-.007.593-.195.518-.367a.166.166 0 0 1-.119.05c-.106 0-.215-.095-.324-.095zm-1.478.067c-.248.06-.376.33-.06.39l.016.001c.181 0 .676-.22.269-.27-.068-.046-.135-.12-.225-.12zm1.973-1.883c.443.517.833 1.118.908 1.808.075.495.098.99.173 1.478-.353-.03-.248-.577-.18-.84.06-.518-.218-.998-.413-1.456-.135-.247-.263-.638-.608-.645-.383.067-.63.39-.878.668-.255-.255-.525-.533-.878-.638a.177.177 0 0 0-.06-.01c-.08 0-.172.035-.215.035-.037 0-.036-.026.043-.123.047-.168.146-.218.269-.218.178 0 .407.106.6.106a.42.42 0 0 0 .084-.008 2.801 2.801 0 0 0 1.156-.158zm-.12.57c.293.075.36.48.503.72.18.42.397.878.255 1.351-.113.225.03.51.015.675-.25.176-.47.547-.802.547a.474.474 0 0 1-.114-.014c-.33-.067-.495-.383-.75-.533-.185.178-.294.548-.598.548a.464.464 0 0 1-.137-.022c-.278-.06-.646-.03-.728-.368-.143-.345-.158-.728-.18-1.103a.243.243 0 0 0 .046.005c.151 0 .165-.177.179-.328.058-.22.216-.321.39-.321.118 0 .244.046.353.134.127.142.518.255.435.48-.038.135-.083.277-.128.42l.316.42c.03-.217.352-.397.165-.615-.03-.098-.143-.225-.128-.3.135-.24.315-.45.525-.63a.241.241 0 0 1 .172-.077c.202 0 .404.263.579.287.172-.188-.015-.263-.188-.36a.526.526 0 0 0-.365-.147.602.602 0 0 0-.49.266c-.143.086-.242.371-.367.371-.04 0-.082-.028-.129-.1-.229-.184-.503-.39-.804-.39a.642.642 0 0 0-.133.014c-.213.044-.404.474-.42.474-.008-.353.157-.669.254-1.014a.459.459 0 0 1 .447-.357c.13 0 .261.055.356.177.224.083.387.475.597.475a.2.2 0 0 0 .116-.04c.233-.247.42-.54.758-.645zm-1.066 5.207c.953.983 1.831 3.475 2.056 4.495-.367-.3-.87-.495-.982-.683-.12-.195-.45-2.093-1.074-3.812zm3.392-1.785c1.801 1.035 4.937 6.13 5.605 6.948-1.125-.713-2.236-1.433-3.444-2.019-1.696-.832-3.144-2.183-4.525-3.444 1.141-.382 1.959-1.028 2.364-1.485zm-1.868 6.468c.24.142.457.337.72.442-.158.39-.255.826-.578 1.133-.06.098-.147.129-.246.129-.17 0-.378-.092-.551-.092a.44.44 0 0 0-.036.001c.21-.525.526-.758.69-1.613zm.51-7.024c.045.094.103.125.165.125.08 0 .168-.053.24-.087.18.127.803.112.435.383-.232.315-1.475 1.174-2.339 1.326-.373.065.253.655.456.865 1.17 1.05 2.319 2.16 3.722 2.918.878.496 1.8.938 2.648 1.486.406.585.886 1.126 1.194 1.771-.308.09-.608.218-.923.293a2.168 2.168 0 0 1-.527.061c-.496 0-.994-.147-1.214-.384-.405-.428-.848-2.251-1.08-2.919-.034-.075-.08-.1-.132-.1-.101 0-.218.099-.277.099a.03.03 0 0 1-.027-.014.293.293 0 0 0-.29-.282c-.131 0-.254.096-.235.297-.045.473-.135.946-.36 1.373-.028.073-.086.101-.161.101-.214 0-.571-.22-.815-.28.098-.579-.69-3.535-3.001-6.011-.081-.088-.433-.459-.402-.459.003 0 .012.005.027.016.118.031.251.052.383.052.253 0 .501-.078.63-.314.02-.06.044-.082.072-.082.103 0 .258.3.423.3a.69.69 0 0 0 .385.115.79.79 0 0 0 .583-.266c.142-.128.277-.255.42-.383zm-.78-3.924a2.79 2.79 0 0 1-1.02.21 2.02 2.02 0 0 1-.158-.007.603.603 0 0 1-.107.009c-.253 0-.525-.136-.77-.136a.466.466 0 0 0-.264.074c-.413.6-.788 1.268-.833 2.011-.082 1.426-.045 1.92 1.08 3.091.443 1.006 1.269 4.285 1.516 5.178.27.255-.337 1.65-.592 1.996-.14.191-.505.2-.898.2h-.129c-.353 0-.711.008-.932.145-.21.135-.285.638-.165.705.113-.172.338-.405.495-.427-.15.157.375.082.488.12.304.005.61.03.918.03.15 0 .299-.006.448-.023.067-.03.14-.075.171-.075.025 0 .025.027-.021.113.212.055.45.083.684.083.525 0 1.022-.14 1.132-.42a8.15 8.15 0 0 0 .585-1.299c.191.04.432.176.625.176a.284.284 0 0 0 .155-.04c.21-.144.428-.811.548-1.254.011-.046.074-.069.137-.069.06 0 .122.021.14.061.226.45.6 1.831.961 2.41.272.427.93.638 1.631.638.442 0 .9-.083 1.288-.249.488-.21.848-.165.743-.435-.165-.45-.45-.878-.75-1.26.435.27.87.547 1.305.817.036.131.126.183.218.183.178 0 .363-.193.18-.385-1.704-2.461-4.412-6.656-6.288-8.014a2.525 2.525 0 0 0-1.043-.563c-.128-.33-.09-.773-.165-1.148-.075-.743-.526-1.973-1.313-2.446zm16.596.439c-.023 3.239-.048 6.477-.069 9.716.048.525.075 1.051.136 1.574.036.28.218.54.178.827-.06.193-.186.496-.4.496a.3.3 0 0 1-.157-.049c-.347-.134-.678-.355-1.06-.355a.707.707 0 0 0-.065.003h-.057c-.727 0-1.443.16-2.165.23-.394.057-.787.147-1.187.147h-.051c.722-.164 1.435-.44 2.004-.926.775-.602 1.552-1.2 2.325-1.805.105-.129-.05-6.71-.102-9.835l.67-.023zm.393-.439c-.383.013-.952.007-1.333.03-.204.06-.168.288-.165.452l.158 9.566c-.846.646-1.684 1.302-2.534 1.942a4.332 4.332 0 0 1-1.581.604c-.248-.002-.5-.13-.747-.13a.573.573 0 0 0-.236.048c-.191.146-.257.547-.002.67.385.206.812.284 1.243.284.272 0 .545-.031.809-.081.613-.105 1.233-.166 1.85-.253.202-.017.412-.045.62-.045.223 0 .444.032.646.143.243.107.512.27.783.27.09 0 .181-.018.272-.063.283-.177.447-.507.517-.826.057-.416-.225-.784-.22-1.198-.032-.453-.083-.904-.103-1.357.022-3.273.149-10.056.023-10.056zm3.363.843q1.51.22 1.58 1.382v8.382q-.707-.843-2.537-1.184l.957-8.58zm-.425-.843l-1.132 10.022q2.521.289 3.136 1.8v1.678h.752V4.475q0-1.883-2.756-2.225zm5.286.493c.03 0 .062.001.096.004.42.03.88.19 1.38.48-.5.31-.96.478-1.38.503a1.333 1.333 0 0 1-.08.002c-.366 0-.545-.168-.536-.505-.009-.322.164-.484.52-.484zm0 2.987c.03 0 .062.001.096.004.42.03.88.19 1.38.48-.5.31-.96.478-1.38.503a1.334 1.334 0 0 1-.08.002c-.366 0-.545-.168-.536-.505-.009-.322.164-.484.52-.484zm-.055-3.48c-.028 0-.055 0-.082.002-.535.02-.833.345-.893.975.079.67.364 1.006.856 1.006h.022c.505-.01 1.213-.19 2.124-.54h8.676c.71.06 1.068.39 1.073.99.005.6-.353.966-1.073 1.096h-8.676c-.827-.361-1.503-.542-2.027-.542-.028 0-.055 0-.082.002-.535.02-.833.345-.893.975.079.67.364 1.006.856 1.006h.022c.505-.01 1.213-.19 2.124-.54h8.289c1.02 0 1.722-.32 2.105-.961.396-.66.396-1.321 0-1.982-.378-.631-1.065-.947-2.06-.947-.046 0-.092 0-.139.002h-8.195c-.827-.361-1.503-.542-2.027-.542zm5.871 10.629c.806 0 1.814.414 2.302.902.427.426.483.992.498 1.518h-5.576c.016-.526.072-1.092.498-1.518.488-.488 1.473-.902 2.278-.902zm0-.451c-.955 0-1.983.441-2.586 1.044-.618.618-.688 1.432-.688 2.04v.238h6.549v-.237c0-.61-.046-1.423-.665-2.04-.602-.604-1.654-1.045-2.61-1.045z"/><path d="M8.22.375c-9.625 0-9.625 17.25 0 17.25m0-17.25h56.469M8.22 17.625h56.469M72.376.375v17.25M64.689.375c9.625 0 9.625 17.25 0 17.25" fill="none" stroke="#000"/></svg>