<svg xmlns="http://www.w3.org/2000/svg" width="94.748" height="18"><path d="M9.777 3.093q1.51.22 1.579 1.382v8.382q-.706-.843-2.536-1.184l.957-8.58zM9.35 2.25L8.22 12.272q2.52.289 3.136 1.8v1.678h.752V4.475q0-1.883-2.757-2.225zm17.64 1.78v1.756H14.058V4.03zM14.106 2.25v1.329h-.498v2.657H27.44V3.58h-.403V2.25h-.451v1.329h-1.115V2.25h-.451v1.329h-1.115V2.25h-.451v1.329h-1.092V2.25h-.474v1.329h-1.092V2.25h-.45v1.329H19.23V2.25h-.45v1.329h-1.116V2.25h-.45v1.329h-1.092V2.25h-.451v1.329h-1.115V2.25zm1.198 11.494l-1.696 2.006h.827l.87-1.036.877 1.036.853-1.036.877 1.036.87-1.036.877 1.036.87-1.036.877 1.036.853-1.036.877 1.036.878-1.036.853 1.036.877-1.036.87 1.036h.827l-1.697-2.006-.877.97-.853-.97-.878.97-.877-.97-.853.97-.877-.97-.87.97-.877-.97-.87.97-.877-.97-.853.97-.878-.97zm13.637-9.809v7.136h3.686V6.443h-.624l-.014 4.004-2.438-.014V4.545h6.318v6.526h.595V3.935z"/><path d="M39.088 2.689c-.023 3.239-.048 6.477-.068 9.716.047.525.074 1.051.135 1.574.036.28.218.54.178.827-.059.193-.186.496-.4.496a.3.3 0 0 1-.156-.049c-.348-.134-.679-.355-1.062-.355l-.064.003h-.057c-.727 0-1.442.16-2.165.23-.394.057-.787.147-1.187.147h-.051c.722-.164 1.435-.44 2.004-.926.775-.602 1.552-1.2 2.325-1.805.105-.129-.05-6.71-.102-9.835l.67-.023zm.393-.439c-.382.013-.952.007-1.333.03-.204.06-.168.288-.165.452l.158 9.566c-.846.646-1.684 1.302-2.534 1.942a4.332 4.332 0 0 1-1.581.604c-.248-.002-.5-.13-.747-.13a.573.573 0 0 0-.236.048c-.191.146-.257.547-.002.67.385.206.812.284 1.243.284.272 0 .545-.031.809-.081.614-.105 1.233-.166 1.85-.253.202-.017.412-.045.62-.045.224 0 .444.032.646.143.243.107.512.27.783.27.09 0 .181-.018.272-.063.283-.177.447-.507.517-.826.057-.416-.224-.784-.22-1.198-.032-.453-.083-.904-.103-1.357.023-3.273.149-10.056.023-10.056zm5.248.45c.806 0 1.814.415 2.302.903.427.426.482.992.498 1.518h-5.576c.015-.526.071-1.092.498-1.518.488-.488 1.472-.902 2.278-.902zm0-.45c-.956 0-1.984.441-2.586 1.044-.618.618-.689 1.432-.689 2.04v.238h6.55v-.237c0-.61-.047-1.423-.665-2.04-.602-.604-1.654-1.045-2.61-1.045zm.016 7.272q.608 0 1.24.266l-1.201 1.217-1.233-1.217q.585-.266 1.194-.266zm-2.63 1.592l1.217 1.218-1.217 1.217q-.531-1.264 0-2.435zm5.26.063q.53 1.264 0 2.435l-1.218-1.218 1.218-1.217zm-.953-1.03q.375.171.594.593l-1.655 1.67L47 14.049q-.203.406-.609.593l-1.639-1.639-1.607 1.608q-.406-.25-.593-.61l1.607-1.591-1.685-1.686q.171-.406.608-.577l1.67 1.67 1.67-1.67zm-1.638 3.62L46 14.986q-.593.266-1.202.266-.608 0-1.233-.266l1.218-1.217zm-.032-4.76q-1.607 0-2.536 1.046t-.929 2.294q0 1.405 1.085 2.396 1.085.991 2.35 1.007 1.529-.016 2.489-1.054.96-1.037.96-2.349l-.016.032q.016-1.187-.944-2.28-.96-1.092-2.459-1.092zm8.972-6.757c-.09 0-.096.283-.224.701-.146.476-.254 1.472-.592 1.665a.298.298 0 0 1-.152.039c-.1 0-.202-.038-.313-.038a.409.409 0 0 0-.127.02c-.158.05-.242.297-.409.326-.69.12-1.637.075-2.165.123-.34.03.567.698 1.473.698h.039c.188-.005.387-.013.584-.013.33 0 .658.024.927.135.265.109.576.425.573.735l-.11 9.109h1.018l-.051-10.289c-.002-.276.795-.464.9-.702.181-.415.088-2.247-.205-2.493a.016.016 0 0 0-.01-.004c-.132 0-.379 1.92-.766 2.333-.04.043-.118.062-.185.062-.073 0-.133-.022-.122-.062.247-.838.346-2.061-.04-2.329a.077.077 0 0 0-.043-.016zm9.801.744q2.408 0 5.108 1.163-2.7 1.132-5.108 1.132-2.393 0-5.108-1.132 2.715-1.163 5.108-1.163zm0-.744q-2.975 0-6.838 1.891 3.863 1.875 6.838 1.875 2.974 0 6.837-1.875-3.847-1.891-6.837-1.891zm5.03 8.572c.706.03 1.093.046 1.26.046h.076l-.09 3.69a5.414 5.414 0 0 1-1.405-.835l.159-2.9zm-10.296-.919c-.236.046-.547.19-.509.471v2.058a39.352 39.352 0 0 0-1.063-.046c0 .258.213.608.873.608.008.584.114 1.298.22 1.663l.091.956c0 .107.183.137.38.137.236 0 .494-.046.494-.046l-.038-.956c3.75.03 10.903.22 11.26.22.183 0 .304-.198.304-.47l.091-4.124-2.255-.023-.182 3.212c-1.633.008-4.457.274-6.378.274-.608 0-1.132-.023-1.489-.1-.076-.083-.782-1.108-1.23-1.222a1.97 1.97 0 0 0-.266-.03c-.075-.623-.151-1.245-.22-1.86.137-.175.448-.13.532-.365.083-.114.03-.304-.13-.311-.09-.038-.341-.046-.447-.046zm27.577-6.967q.217.254.217 1.26 0 .865-.267 1.476-.599-.61-.624-1.476.013-1.006.674-1.26zm-1.617-.163q.62 0 .752.226-.076.65-.522.955-.254.242 0 .534.446.344.535 1.057 0 .356-1.158.356-1.159 0-3.475-.178-.789-.09-1.769-.942-1.133-.865-1.985-1.03h-.013q-.406 0-1.082.776-.687.789-1.324 2.1h-1.247q.115-.28 1.75-1.871 1.597-1.554 1.902-1.554l.014.001q.852.216 1.425.668.33.261.674.261.251 0 .51-.14 2.112-.802 3.824-1.094.73-.125 1.19-.125zm1.355-.523q-.238 0-.578.088-2.329.038-4.645.725-.649.216-1.68.662-1.082-.79-2.074-.942h-.011q-.308 0-1.052.7-.757.713-2.386 2.355-.942.98-1.286 1.68v.025h1.998v-.611h.624q.7-1.616 1.285-2.227.502-.524.752-.524.041 0 .076.015.903.28 1.463.75.56.472 1.247.879.688.407 2.024.464.802.035 1.97.035.78 0 1.72-.016.297.074.514.074.38 0 .518-.226.445-1.095.445-1.96 0-1.018-.445-1.757-.129-.189-.479-.189zm-1.418 10.656q-.3.302-.3 1.104 0 .82.3 1.121h-9.935q.3-.301.3-1.12 0-.803-.3-1.105zm-11.859-.618q-.435 0-.418.284-.017.334.418.334h1.087q.402.302.402 1.104 0 .82-.402 1.121h-1.07q-.452 0-.452.284 0 .335.435.335H86.08q.418 0 .418-.335 0-.284-.435-.284h-1.07q-.402-.301-.402-1.12 0-.803.402-1.105h1.087q.418 0 .418-.334 0-.284-.418-.284z"/><path d="M8.22.375c-9.625 0-9.625 17.25 0 17.25m0-17.25h78.278M8.22 17.625h78.278M94.186.375v17.25M86.498.375c9.625 0 9.625 17.25 0 17.25" fill="none" stroke="#000"/></svg>