<svg xmlns="http://www.w3.org/2000/svg" width="56.829" height="18"><path d="M20.733 2.888c.122 0 .183.44.183.562 0 .121-.061.562-.183.562H9.07c-.141 0-.212-.44-.212-.562 0-.122.07-.562.212-.562zM8.706 2.25c-.324 0-.486.653-.486 1.2 0 .546.162 1.2.486 1.2h12.392c.304 0 .456-.654.456-1.2 0-.547-.152-1.2-.456-1.2zm6.181 10.553q2.348 0 4.98 1.135-2.632 1.103-4.98 1.103-2.333 0-4.98-1.103 2.647-1.135 4.98-1.135zm0-.725q-2.9 0-6.667 1.844 3.767 1.828 6.667 1.828t6.667-1.828q-3.752-1.844-6.667-1.844zM25.02 2.726q-.278 0-.278.328 0 .278.279.278.295-.016.295-.311t-.295-.295zm-1.081.213v.295l-.64.115q.296-.312.64-.41zm.033.393q.377.295.13.443-.376-.131-.557-.344l.427-.099zm1.147-.754q.77 0 1.23.59.459.59.491 1.82 1.197.246 1.59 1.082.064.542-.243.542l-.019-.001q-.328-.016-.516-.18-.069-.06-.104-.06-.06 0-.019.183.066.287.721.696.656.41.107.68-.136.068-.29.068-.467 0-1.095-.616-.836-.82-.886-1.246-.049-.427.345-.787.234-.215.16-.215-.05 0-.242.1-.476.246-.5.721-.025.476.377 1.041.401.566 1.582 1.435.12.063.273.063.324 0 .792-.285.689-.418-.688-1.286.508-.132.524-.443.64.213 3.59 3.967.787.525.804.77-.017.23-.246.28-.05.01-.1.01-.186 0-.392-.142-.918.443-1.779.46h-.09q-.8 0-1.328-.28.541.476.377 1-.08.255-.12.255-.044 0-.044-.287 0-.558-1.426-1.066v.623q-.084.353-.133.353-.048 0-.064-.32-.098-.705-.467-1.517-.369-.811-1.172-2.245-.803-1.435-1.024-2.066-.222-.631-.205-1.172.016-.541-.222-.795-.237-.254-.14-.55.1-.295-.294-.557v-.278q.426-.345.885-.345zm3.115 9.443q.803.23.803.54l-.54 2.017q-.066.361-.443.361h-.656v-.033l.836-2.557v-.328zM25.178 2.25h-.059q-.64 0-1.295.525-.377.131-.77.607.54.491.983.606.05.23.312.64.016 1.081.295 1.795.278.713 1.869 3.827.786 1.64.786 2.017 0 .574-.72 2.574 0 .114-.984.18-1.476.05-1.476.41 0 .213.197.213h4.36q.41-.328.46-.558.393.164.426.443.055.221.157.221.019 0 .04-.008.13-.049.13-.213-.114-.443-.573-.852l.524-2.213q1.59-.05 2.771-.509.219.05.4.05.365 0 .584-.197.327-.295-.132-.918-1-1-1.901-2.197-1.853-2.279-2.541-2.64-.23-.475-.55-.753-.32-.28-1.155-.689-.017-.967-.451-1.672-.425-.689-1.687-.689zm12.208 1.544q.26.152.306.611-.2.168-.306.505-.123-.337-.321-.505.046-.459.32-.611zm4.495 0q.275.152.321.611-.198.168-.32.505-.108-.337-.307-.505.046-.459.306-.611zm4.511 0q.26.168.306.626-.199.153-.306.49-.122-.337-.321-.49.046-.458.321-.626zm-8.043.81q-.29.382-.352.818-.06.436-.611.543-.566-.107-.627-.543-.061-.436-.352-.818.566 0 .704.428.122.413.275.413.137 0 .275-.413.138-.428.688-.428zm4.51 0q-.29.382-.35.818-.062.436-.628.543-.55-.107-.611-.543-.062-.436-.352-.818.55 0 .688.428.138.413.275.413.153 0 .275-.413.138-.428.704-.428zm4.496 0q-.29.397-.351.826-.062.428-.612.55-.566-.122-.627-.55-.061-.429-.352-.826.566 0 .704.443.122.398.275.398.138 0 .275-.398.138-.443.688-.443zm-7.798 2.951l.268.88q.16.527-.268.771-.428-.244-.268-.772l.268-.879zm4.526 0q.092.352.26.88.168.527-.26.771-.428-.244-.267-.772l.267-.879zm2.783 5.382q1.025 0 1.025.444 0 .443-1.01.459h-9.97q-.993 0-.993-.46 0-.443.994-.443zm-9.48-9.495q-.444 0-.612.902-.143-.04-.268-.04-.252 0-.435.162-.184.138.015.29.321.169.398.727.076.558.627.726v6.01h-.184q-1.697 0-1.697 1.162 0 1.177 1.682 1.177h9.97q1.681 0 1.697-1.177 0-1.162-1.713-1.162h-.199V6.225q.55-.184.627-.734.077-.55.382-.734.215-.153.016-.275-.181-.17-.443-.17-.115 0-.245.032-.184-.887-.612-.887-.443 0-.627.887-.13-.033-.245-.033-.262 0-.443.17-.183.123.015.276.321.183.39.734.069.55.635.734h.015v5.994h-1.774V9.466q.52-.504.352-1.032-.168-.527-.252-.871-.084-.344-.375-.344-.29 0-.382.344-.092.344-.252.871-.161.528.374 1.032v2.753l-1.667-.016V6.21q.551-.168.627-.726.077-.558.398-.726.199-.153.015-.29-.183-.164-.435-.164-.125 0-.268.041-.168-.902-.612-.902-.428 0-.611.902-.143-.04-.269-.04-.251 0-.435.162-.183.138.03.29.307.169.383.727.077.558.627.726v5.994l-1.774.016V9.466q.52-.504.36-1.032-.16-.527-.253-.871-.091-.344-.382-.344-.275 0-.375.344-.099.344-.26.871-.16.528.375 1.032v2.753h-1.651v-6.01q.565-.168.642-.726.076-.558.382-.726.214-.153.03-.29-.183-.164-.434-.164-.126 0-.269.041-.183-.902-.611-.902z"/><path d="M8.22.375c-9.625 0-9.625 17.25 0 17.25m0-17.25h40.359M8.22 17.625h40.359M56.266.375v17.25M48.579.375c9.625 0 9.625 17.25 0 17.25" fill="none" stroke="#000"/></svg>