<svg xmlns="http://www.w3.org/2000/svg" width="50.148" height="18"><path d="M11.386 8.203c-.51.04-.793.296-.847.767.067.51.35.78.847.806.498-.026.76-.295.787-.806-.04-.47-.303-.726-.787-.767zm.06-1.694c.364 0 .7.068 1.01.202a2.659 2.659 0 0 1 1.371 1.361c.134.303.201.622.201.958 0 .35-.067.676-.202.978a2.567 2.567 0 0 1-2.38 1.523c-.362 0-.702-.064-1.018-.192a2.426 2.426 0 0 1-.816-.534 2.621 2.621 0 0 1-.545-.797 2.38 2.38 0 0 1-.202-.978c0-.336.068-.655.202-.958.134-.302.316-.571.545-.806.228-.236.5-.42.816-.555a2.574 2.574 0 0 1 1.019-.202zm-.04-.685c-.443 0-.86.084-1.25.252-.39.168-.726.396-1.008.685a3.36 3.36 0 0 0-.676 1.009 3.053 3.053 0 0 0-.252 1.24c0 .444.084.857.252 1.24.168.384.393.716.676.999a3.2 3.2 0 0 0 2.258.927c.444 0 .857-.084 1.24-.252a3.36 3.36 0 0 0 1.009-.675c.289-.283.518-.615.686-.999.168-.383.252-.796.252-1.24 0-.444-.084-.857-.252-1.24a3.268 3.268 0 0 0-1.694-1.694 3.053 3.053 0 0 0-1.24-.252zm9.372-3.574l-.014.001a15.506 15.506 0 0 1-1.122.037c-.08.005-.087.107-.06.165.168.474.313.956.45 1.44h-.02c-.134.003-.271 0-.404.013l-.007.01c-.008-.03-.029-.058-.06-.065a28.706 28.706 0 0 1-1.275-.923c-.01-.002-.02-.005-.032-.005h-.007c-.041.026-.057.084-.08.127-.073.197-.135.399-.216.593-.058.148-.123.294-.167.446.02.042.056.055.097.055.038 0 .08-.012.113-.022.515-.11 1.046-.1 1.57-.107-.052.115-.075.243-.122.36-.021.066-.046.134-.061.202a.092.092 0 0 0-.013 0l-.016.001c-.64.248-1.265.552-1.811.97a6.77 6.77 0 0 0-.749.652c-.005.096.104.127.176.154l.442.182c-.075.103-.094.236-.142.353-.248.726-.597 1.413-.888 2.122.002.058.056.087.109.087.02 0 .039-.004.055-.012.103-.019.206-.028.309-.03-.022.08-.03.165-.066.24-.174.555-.46 1.065-.674 1.604-.01.058.044.095.097.095a.1.1 0 0 0 .045-.01 6.45 6.45 0 0 1 .796-.092c-.03.074-.037.157-.06.234-.129.545-.317 1.082-.34 1.646-.004.367.04.733.098 1.095.1.595.28 1.174.512 1.73.002.051.05.083.095.083a.081.081 0 0 0 .072-.04c.034-.075.044-.16.07-.238.134-.481.23-.974.272-1.472.041-.43.058-.863.055-1.295-.018-.505-.138-.999-.216-1.497-.013-.075-.023-.152-.043-.226a7.034 7.034 0 0 1 .765.127c.08 0 .098-.107.062-.164-.217-.567-.438-1.134-.62-1.714l.026.005c.22.04.441.091.664.104.07-.058.02-.152-.014-.216-.269-.582-.489-1.193-.576-1.83-.028-.173-.028-.35-.058-.523.19.077.38.154.57.228.082-.02.086-.121.07-.19a2.105 2.105 0 0 1 .266-1.198c.178-.318.436-.58.698-.828.105.09.226.156.343.227l-.059.015c-.216.418-.398.852-.592 1.28-.024.06-.053.12-.062.184.032.052.086.063.143.063.035 0 .071-.004.104-.004h.005l.24-.006c-.026.083-.034.176-.06.259-.155.639-.309 1.279-.462 1.919.019.068.087.082.151.082a.648.648 0 0 0 .055-.003l.397-.014c-.037.105-.053.218-.089.323-.172.628-.346 1.257-.514 1.886.018.07.088.085.154.085a677.2 677.2 0 0 1 .691-.021.867.867 0 0 0-.024.103c-.132.577-.335 1.144-.366 1.74-.002.54.078 1.077.201 1.602.102.423.246.836.41 1.239.007.046.051.077.094.077.024 0 .049-.01.065-.035.035-.062.041-.137.066-.205a8.4 8.4 0 0 0 .314-1.902c.021-.343.034-.687.018-1.03-.035-.492-.147-.974-.225-1.46-.01-.048-.017-.097-.03-.145.222-.007.443-.014.664-.023.079-.06.035-.167.013-.245-.188-.674-.375-1.349-.567-2.021.185-.007.37-.014.554-.023.078-.06.034-.166.01-.243l-.583-1.969.595-.016c.075-.05.038-.15.003-.214-.176-.4-.35-.801-.533-1.199.132-.054.263-.11.39-.171.354.33.663.728.804 1.196.082.278.087.573.059.86.015.044.054.061.095.061a.2.2 0 0 0 .1-.03l.444-.182-.004.004a5.206 5.206 0 0 1-.348 1.696c-.097.265-.219.52-.325.78-.006.057.046.091.098.091a.102.102 0 0 0 .05-.013c.196-.029.39-.067.585-.105-.039.108-.066.221-.11.327-.165.486-.353.965-.534 1.445-.013.057.038.107.091.107a.08.08 0 0 0 .042-.011 5.81 5.81 0 0 1 .716-.116.57.57 0 0 0-.012.066c-.08.447-.167.892-.223 1.342a4.88 4.88 0 0 0-.018.846c.025.713.097 1.429.288 2.118.032.117.063.236.102.351a.08.08 0 0 0 .075.044c.038 0 .075-.021.084-.062a7.92 7.92 0 0 0 .565-2.05c.05-.41.083-.828.005-1.236-.08-.434-.208-.857-.311-1.285-.017-.05-.026-.104-.043-.153.124.003.247.011.37.027.17.018.34.054.511.069.073-.02.067-.116.031-.166-.24-.577-.551-1.13-.705-1.738l-.007-.032c.028 0 .057 0 .086.002.11.008.218.03.326.039.077-.034.058-.134.022-.192-.318-.723-.662-1.437-.908-2.19-.023-.058-.04-.124-.074-.176l-.006-.003c.2-.083.398-.166.596-.252.046-.08-.032-.156-.09-.201-.507-.462-1.064-.874-1.683-1.171a6.493 6.493 0 0 0-.716-.3c-.018-.055-.044-.11-.057-.163-.063-.181-.116-.368-.196-.542a.252.252 0 0 0 .052.004l.06-.001h.152c.46 0 .921.015 1.37.118.014.006.03.009.046.009.046 0 .093-.023.084-.074-.087-.273-.21-.534-.3-.807-.04-.112-.078-.225-.128-.332a.113.113 0 0 0-.06-.008c-.421.308-.834.628-1.27.916-.046.023-.105.07-.073.127v.001a.848.848 0 0 0-.157-.012l-.16.002a1.243 1.243 0 0 1-.068-.001H20.2a.077.077 0 0 0 .004-.029c.17-.508.34-1.022.63-1.476.036-.046.01-.127-.046-.137a.065.065 0 0 0-.011-.001zm6.815.476q-.28 0-.28.328 0 .278.28.278.295-.016.295-.311t-.295-.295zm-1.082.213v.295l-.64.115q.295-.312.64-.41zm.032.393q.377.295.131.443-.377-.131-.557-.344l.426-.099zm1.148-.754q.77 0 1.23.59.458.59.491 1.82 1.197.246 1.59 1.082.064.542-.244.542l-.018-.001q-.328-.016-.516-.18-.069-.06-.104-.06-.061 0-.02.183.066.287.722.696.656.41.107.68-.137.068-.29.068-.467 0-1.096-.616-.836-.82-.885-1.246-.05-.427.344-.787.234-.215.161-.215-.05 0-.243.1-.475.246-.5.721-.024.476.377 1.041.402.566 1.582 1.435.121.063.274.063.324 0 .792-.285.689-.418-.689-1.286.509-.132.525-.443.64.213 3.59 3.967.787.525.804.77-.017.23-.246.28-.05.01-.1.01-.186 0-.392-.142-.918.443-1.779.46h-.09q-.8 0-1.328-.28.541.476.377 1-.08.255-.12.255-.044 0-.044-.287 0-.558-1.426-1.066v.623q-.084.353-.134.353-.047 0-.063-.32-.098-.705-.467-1.517-.369-.811-1.172-2.245-.803-1.435-1.025-2.066-.221-.631-.205-1.172.017-.541-.22-.795-.239-.254-.14-.55.098-.295-.295-.557v-.278q.426-.345.885-.345zm3.115 9.443q.803.23.803.54l-.541 2.017q-.066.361-.443.361h-.655v-.033l.836-2.557v-.328zM27.75 2.25h-.06q-.638 0-1.294.525-.377.131-.77.607.54.491.983.606.05.23.311.64.017 1.081.295 1.795.28.713 1.87 3.827.786 1.64.786 2.017 0 .574-.721 2.574 0 .114-.984.18-1.475.05-1.475.41 0 .213.197.213h4.36q.41-.328.46-.558.393.164.426.443.055.221.156.221.02 0 .04-.008.131-.049.131-.213-.114-.443-.573-.852l.524-2.213q1.59-.05 2.77-.509.22.05.401.05.365 0 .583-.197.328-.295-.13-.918-1-1-1.902-2.197-1.853-2.279-2.541-2.64-.23-.475-.55-.753-.32-.28-1.155-.689-.017-.967-.451-1.672-.425-.689-1.687-.689zm12.697 2.627q.199 0 .23.244l.335 3.04q.26 2.091.306 4 0 1.314-.222 2.085-.221.771-.694.771-.474 0-.65-.771-.175-.771-.16-2.085.03-1.909.29-4l.336-3.04q.03-.244.23-.244zM38.141 2.25q-.641.32-.076.672 1.863 1.084 1.634 2.306l-.351 2.932q-.244 2.092-.351 4.001 0 1.863.35 2.726.352.863 1.1.863.749 0 1.1-.863.351-.863.351-2.726-.107-1.909-.351-4l-.32-2.81q-.49-2.505-3.086-3.101z"/><path d="M8.22.375c-9.625 0-9.625 17.25 0 17.25m0-17.25h33.678M8.22 17.625h33.678M49.586.375v17.25M41.898.375c9.625 0 9.625 17.25 0 17.25" fill="none" stroke="#000"/></svg>