<svg xmlns="http://www.w3.org/2000/svg" width="61.146" height="18"><path d="M14.365 2.698v.489H12.95v-.49zm-1.861.926v.01h2.308v-.008c.12.056.25.168.361.324.165.23.275.54.276.768.004.528-.227.934-.524 1.183-.28.236-.81.379-1.224.379-.425 0-1.024-.085-1.311-.291-.286-.205-.62-.8-.622-1.335 0-.257.1-.537.282-.74a.954.954 0 0 1 .454-.29zm0-1.374v.916a1.43 1.43 0 0 0-.788.45 1.56 1.56 0 0 0-.395 1.04c.002.684.34 1.343.78 1.676-.218 2-.464 3.996-.783 5.982-.107.635-.218 1.27-.39 1.89-.041.132-.081.271-.172.376-.143.148-.33.244-.512.334a4.582 4.582 0 0 1-1.207.347 1.014 1.014 0 0 1-.13.008c-.118 0-.236-.018-.35-.045-.049-.009-.102-.02-.153-.02a.226.226 0 0 0-.12.03c-.086.064-.08.199-.013.274.09.117.25.137.388.15.062.005.123.007.185.007.264 0 .528-.04.793-.04.06 0 .121.002.182.007.399.019.798.032 1.197.057.098.01.202.03.303.03a.504.504 0 0 0 .227-.047c.1-.063.108-.195.13-.301.064-.355.066-.724.199-1.064.273-.905.465-1.833.664-2.757.278-1.345.517-2.7.668-4.064.025-.258.047-.517.053-.777.156.014.306.018.441.018.093 0 .19-.004.288-.014.457 2.196.932 4.393 1.229 6.618.054.456.108.917.082 1.377a5.69 5.69 0 0 1-1.474.618.679.679 0 0 1-.088.005c-.13 0-.261-.031-.392-.031a.682.682 0 0 0-.086.005c-.13.037-.213.21-.13.326.078.107.222.119.345.119h.019c.259-.004.516-.033.775-.033l.073.001c.28-.005.562-.02.844-.02.168 0 .337.005.505.02.105.014.215.031.324.031a.67.67 0 0 0 .289-.057c.122-.074.152-.232.144-.366-.004-.294-.116-.577-.107-.872-.079-1.541-.297-3.07-.537-4.593a69.753 69.753 0 0 0-.659-3.563l.068-.054a1.96 1.96 0 0 0 .684-1.529c-.003-.354-.145-.724-.36-1.025-.183-.256-.428-.477-.725-.536V2.25zm8.09 2.627q.199 0 .23.244l.335 3.04q.26 2.091.306 4 0 1.314-.222 2.085-.221.771-.695.771-.473 0-.649-.771-.175-.771-.16-2.085.03-1.909.29-4l.336-3.04q.03-.244.23-.244zM18.288 2.25q-.641.32-.076.672 1.863 1.084 1.634 2.306l-.351 2.932q-.245 2.092-.352 4.001 0 1.863.352 2.726.351.863 1.1.863.748 0 1.099-.863t.351-2.726q-.107-1.909-.351-4l-.32-2.81q-.49-2.505-3.086-3.101zm10.026 3.975q.216 0 .299.216-.106-.042-.182-.042-.16 0-.183.191-.032.34-.183.34h-.008q-.157-.008-.223-.14 0-.1.248-.332.116-.233.232-.233zm.238.297q.061 0 .061.085-.03.334-.256.334-.02 0-.043-.003v-.033l.067-.149q.015-.233.133-.233h.016l.022-.001zm-1.477.188q-.15 0-.278.087-.157.108-.091.374h.066q.017-.166.1-.274.083-.108.273-.108.191 0 .191-.05l-.19-.024q-.036-.005-.07-.005zm-.004.146q-.2 0-.2.281v.1q.017.003.031.003.056 0 .07-.053.281-.066.414-.232-.116-.1-.315-.1zm-.299.43q-.083.117-.016.29.066.175.829.241l.116-.05q-.962-.066-.862-.447l-.067-.033zm1.078-.795q-.215.149-.166.381.034.1.2.166.149.066.115.348.034.614-.514.945-.083-.199-.323-.215l-.044-.002q-.206 0-.296.143-.07.11-.165.11-.04 0-.084-.02-.027.008-.05.008-.15 0-.165-.272.166-.017.232-.067t.249-.116q-.081-.092-.166-.092-.037 0-.075.018-.124.058-.257.09-.282-.049-.215-.281-.166-.183-.116-.315.364-.232.605-.44.24-.207.539-.248.298-.042.696-.141zm.979-.15q.43.034.912.49.48.456.563.937-.895 1.31-2.537 2.089-.066-.697.232-1.393.548-.497.481-.837-.066-.34.216-.456.63-.116.133-.83zm6.083 2.801l.052.002q.746.133 1.36.671.613.54.878 1.335.05.083-.364.083-1.741-.73-2.206-1.476-.205-.615.28-.615zm-4.425-.827q1.033.99 2.634.99.275 0 .566-.028.03-.01.057-.01.242 0 .242.805-1.642.73-2.587.796-.28.02-.568.02-.684 0-1.414-.11-.157-.025-.292-.025-.752 0-.794.746-.696-.83-.497-1.128 1.641-.73 2.653-2.056zM28.467 5.9l-.078.001q-.754.025-.804.307-.299.116-.556.19-.257.075-.48.274-.224.2-.498.357-.274.157-.323.273-.083.183.149.398 0 .183.166.299.033 0 .074.282.042.281.307.414.332-.05.431-.19.085-.12.217-.12.024 0 .049.003.165.025.248.274-.066.249-.19.879-.125.63 0 .928.124.299-.44.672-.43.285-1.178.285-.233 0-.497-.028-.575-.16-.925-.16-.376 0-.492.185-.224.356.041.622h.647q1.488.053 2.52.053 2.488 0 2.33-.31-.18-.353.293-.353.116 0 .27.021.245.033.536.033.65 0 1.538-.166 1.285-.24 1.674-.447.25-.133.54-.133.164 0 .34.041.488.117.588.415-.216.398-.753.398-.245 0-.557-.083-.522-.14-.857-.14-.303 0-.453.115-.315.24-.033.572H37.7q.547-.497.232-1.152-.315-.655-1.061-1.244-.746-.588-1.642-1.07.234-.204.452-.204.276 0 .527.329.262.345.445.345.129 0 .218-.17-.591-1.058-1.233-1.058-.043 0-.085.004-.689.075-1.252.771-.683.172-1.272.172-1.286 0-2.128-.818-.464-1.178-1.11-1.634-.614-.432-1.324-.432zm13.236-2.106q.26.152.306.611-.199.168-.306.505-.122-.337-.321-.505.046-.459.321-.611zm4.496 0q.275.152.32.611-.198.168-.32.505-.107-.337-.306-.505.046-.459.306-.611zm4.51 0q.26.168.306.626-.199.153-.306.49-.122-.337-.32-.49.045-.458.32-.626zm-8.043.81q-.29.382-.351.818-.061.436-.612.543-.566-.107-.627-.543-.061-.436-.351-.818.565 0 .703.428.122.413.275.413.138 0 .275-.413.138-.428.688-.428zm4.511 0q-.29.382-.351.818-.062.436-.627.543-.55-.107-.612-.543-.061-.436-.352-.818.55 0 .688.428.138.413.276.413.152 0 .275-.413.137-.428.703-.428zm4.496 0q-.29.397-.352.826-.061.428-.612.55-.565-.122-.627-.55-.06-.429-.351-.826.565 0 .703.443.122.398.275.398.138 0 .276-.398.137-.443.688-.443zm-7.799 2.951l.268.88q.16.527-.268.771-.428-.244-.267-.772l.267-.879zm4.526 0q.092.352.26.88.169.527-.26.771-.428-.244-.267-.772l.267-.879zm2.783 5.382q1.025 0 1.025.444 0 .443-1.01.459H41.23q-.994 0-.994-.46 0-.443.994-.443zm-9.48-9.495q-.443 0-.612.902-.142-.04-.268-.04-.251 0-.435.162-.183.138.015.29.322.169.398.727.076.558.627.726v6.01h-.184q-1.697 0-1.697 1.162 0 1.177 1.682 1.177h9.97q1.682 0 1.697-1.177 0-1.162-1.713-1.162h-.198V6.225q.55-.184.626-.734.077-.55.383-.734.214-.153.015-.275-.18-.17-.443-.17-.115 0-.245.032-.184-.887-.612-.887-.443 0-.627.887-.13-.033-.245-.033-.262 0-.443.17-.183.123.016.276.32.183.39.734.068.55.634.734h.015v5.994h-1.773V9.466q.52-.504.351-1.032-.168-.527-.252-.871-.084-.344-.375-.344-.29 0-.382.344-.092.344-.252.871-.16.528.375 1.032v2.753l-1.667-.016V6.21q.55-.168.627-.726.076-.558.397-.726.2-.153.016-.29-.184-.164-.435-.164-.126 0-.269.041-.168-.902-.611-.902-.429 0-.612.902-.143-.04-.268-.04-.252 0-.435.162-.184.138.03.29.306.169.382.727.077.558.627.726v5.994l-1.773.016V9.466q.52-.504.359-1.032-.16-.527-.252-.871t-.383-.344q-.275 0-.374.344-.1.344-.26.871-.16.528.374 1.032v2.753h-1.65v-6.01q.565-.168.641-.726.077-.558.383-.726.214-.153.03-.29-.183-.164-.435-.164-.126 0-.268.041-.184-.902-.612-.902z"/><path d="M8.22.375c-9.625 0-9.625 17.25 0 17.25m0-17.25h44.676M8.22 17.625h44.676M60.583.375v17.25M52.896.375c9.625 0 9.625 17.25 0 17.25" fill="none" stroke="#000"/></svg>