<svg xmlns="http://www.w3.org/2000/svg" width="75.254" height="18"><path d="M14.365 2.698v.489H12.95v-.49zm-1.861.926v.01h2.308v-.008c.12.056.25.168.361.324.165.23.275.54.276.768.004.528-.227.934-.524 1.183-.28.236-.81.379-1.224.379-.425 0-1.024-.085-1.311-.291-.286-.205-.62-.8-.622-1.335 0-.257.1-.537.282-.74a.954.954 0 0 1 .454-.29zm0-1.374v.916a1.43 1.43 0 0 0-.788.45 1.56 1.56 0 0 0-.395 1.04c.002.684.34 1.343.78 1.676-.218 2-.464 3.996-.783 5.982-.107.635-.218 1.27-.39 1.89-.041.132-.081.271-.172.376-.143.148-.33.244-.512.334a4.582 4.582 0 0 1-1.207.347 1.014 1.014 0 0 1-.13.008c-.118 0-.236-.018-.35-.045-.049-.009-.102-.02-.153-.02a.226.226 0 0 0-.12.03c-.086.064-.08.199-.013.274.09.117.25.137.388.15.062.005.123.007.185.007.264 0 .528-.04.793-.04.06 0 .121.002.182.007.399.019.798.032 1.197.057.098.01.202.03.303.03a.504.504 0 0 0 .227-.047c.1-.063.108-.195.13-.301.064-.355.066-.724.199-1.064.273-.905.465-1.833.664-2.757.278-1.345.517-2.7.668-4.064.025-.258.047-.517.053-.777.156.014.306.018.441.018.093 0 .19-.004.288-.014.457 2.196.932 4.393 1.229 6.618.054.456.108.917.082 1.377a5.69 5.69 0 0 1-1.474.618.679.679 0 0 1-.088.005c-.13 0-.261-.031-.392-.031a.682.682 0 0 0-.086.005c-.13.037-.213.21-.13.326.078.107.222.119.345.119h.019c.259-.004.516-.033.775-.033l.073.001c.28-.005.562-.02.844-.02.168 0 .337.005.505.02.105.014.215.031.324.031a.67.67 0 0 0 .289-.057c.122-.074.152-.232.144-.366-.004-.294-.116-.577-.107-.872-.079-1.541-.297-3.07-.537-4.593a69.753 69.753 0 0 0-.659-3.563l.068-.054a1.96 1.96 0 0 0 .684-1.529c-.003-.354-.145-.724-.36-1.025-.183-.256-.428-.477-.725-.536V2.25zm8.09 2.627q.199 0 .23.244l.335 3.04q.26 2.091.306 4 0 1.314-.222 2.085-.221.771-.695.771-.473 0-.649-.771-.175-.771-.16-2.085.03-1.909.29-4l.336-3.04q.03-.244.23-.244zM18.288 2.25q-.641.32-.076.672 1.863 1.084 1.634 2.306l-.351 2.932q-.245 2.092-.352 4.001 0 1.863.352 2.726.351.863 1.1.863.748 0 1.099-.863t.351-2.726q-.107-1.909-.351-4l-.32-2.81q-.49-2.505-3.086-3.101zm7.62.708q.609 0 .764.326v7.825h-.014q-1.104-1.245-1.74-1.585l.99-6.566zm4.104.015q.594 0 .764.325v7.825h-.029q-1.09-1.245-1.726-1.585l.99-6.565zm4.089 0q.608 0 .778.325v7.825h-.028q-1.104-1.245-1.74-1.585l.99-6.565zm-8.633-.723h-.098l-1.174 7.698v.043q2.207 1.486 2.207 2.476v2.406h-1.188v-1.387h-.878v1.387h-.792v.877h12.608v-.877h-.68V3.128q-.301-.864-1.813-.864l-.097.001-1.16 7.698v.042q2.193 1.486 2.193 2.476v2.392l-1.174-.014v-1.444h-.878v1.458H31.37V3.128q-.302-.864-1.813-.864l-.097.001-1.16 7.698v.042q2.207 1.486 2.207 2.476v2.392h-1.175v-1.415h-.877v1.4h-1.188V3.115q-.288-.864-1.8-.864zm16.954 3.975q.216 0 .299.216-.106-.042-.182-.042-.16 0-.183.191-.033.34-.184.34h-.007q-.157-.008-.224-.14 0-.1.249-.332.116-.233.232-.233zm.238.297q.06 0 .06.085-.03.334-.255.334-.02 0-.043-.003v-.033l.066-.149q.016-.233.134-.233h.016l.022-.001zm-1.477.188q-.15 0-.278.087-.158.108-.091.374h.066q.017-.166.1-.274.082-.108.273-.108.19 0 .19-.05l-.19-.024q-.036-.005-.07-.005zm-.004.146q-.2 0-.2.281v.1q.017.003.031.003.056 0 .069-.053.282-.066.415-.232-.117-.1-.315-.1zm-.299.43q-.083.117-.017.29.067.175.83.241l.116-.05q-.962-.066-.863-.447l-.066-.033zm1.078-.795q-.216.149-.166.381.033.1.199.166.15.066.116.348.033.614-.514.945-.083-.199-.323-.215l-.045-.002q-.205 0-.295.143-.07.11-.165.11-.04 0-.084-.02-.027.008-.05.008-.151 0-.166-.272.166-.017.233-.067.066-.05.248-.116-.08-.092-.165-.092-.037 0-.075.018-.124.058-.257.09-.282-.049-.216-.281-.165-.183-.116-.315.365-.232.606-.44.24-.207.538-.248.299-.042.697-.141zm.978-.15q.431.034.912.49.481.456.564.937-.895 1.31-2.537 2.089-.066-.697.232-1.393.547-.497.481-.837-.066-.34.216-.456.63-.116.132-.83zm6.084 2.801l.052.002q.746.133 1.36.671.613.54.878 1.335.05.083-.365.083-1.74-.73-2.205-1.476-.205-.615.28-.615zm-4.426-.827q1.034.99 2.635.99.275 0 .566-.028.03-.01.056-.01.242 0 .242.805-1.641.73-2.587.796-.28.02-.568.02-.684 0-1.413-.11-.158-.025-.292-.025-.752 0-.794.746-.697-.83-.498-1.128 1.642-.73 2.653-2.056zM42.574 5.9l-.077.001q-.755.025-.804.307-.299.116-.556.19-.257.075-.48.274-.225.2-.498.357-.274.157-.324.273-.083.183.15.398 0 .183.165.299.034 0 .075.282.041.281.307.414.331-.05.43-.19.086-.12.218-.12.023 0 .048.003.166.025.249.274-.066.249-.19.879-.125.63 0 .928.124.299-.44.672-.43.285-1.178.285-.233 0-.497-.028-.575-.16-.925-.16-.377 0-.493.185-.224.356.042.622h.646q1.489.053 2.521.053 2.488 0 2.33-.31-.18-.353.292-.353.116 0 .272.021.243.033.535.033.65 0 1.537-.166 1.285-.24 1.675-.447.25-.133.54-.133.163 0 .339.041.49.117.589.415-.217.398-.753.398-.245 0-.557-.083-.522-.14-.857-.14-.304 0-.453.115-.315.24-.034.572h5.39q.547-.497.232-1.152-.315-.655-1.061-1.244-.747-.588-1.642-1.07.234-.204.452-.204.276 0 .526.329.263.345.446.345.128 0 .218-.17-.591-1.058-1.234-1.058-.042 0-.085.004-.688.075-1.252.771-.682.172-1.272.172-1.286 0-2.127-.818-.464-1.178-1.111-1.634-.613-.432-1.323-.432zM55.81 3.794q.26.152.307.611-.2.168-.306.505-.123-.337-.321-.505.046-.459.32-.611zm4.496 0q.275.152.321.611-.198.168-.32.505-.108-.337-.307-.505.046-.459.306-.611zm4.511 0q.26.168.306.626-.199.153-.306.49-.122-.337-.321-.49.046-.458.321-.626zm-8.043.81q-.29.382-.352.818-.06.436-.611.543-.566-.107-.627-.543-.061-.436-.352-.818.566 0 .704.428.122.413.275.413.137 0 .275-.413.138-.428.688-.428zm4.51 0q-.29.382-.35.818-.062.436-.628.543-.55-.107-.611-.543-.062-.436-.352-.818.55 0 .688.428.138.413.275.413.153 0 .275-.413.138-.428.704-.428zm4.496 0q-.29.397-.351.826-.062.428-.612.55-.566-.122-.627-.55-.061-.429-.352-.826.566 0 .704.443.122.398.275.398.138 0 .275-.398.138-.443.688-.443zm-7.798 2.951l.268.88q.16.527-.268.771-.428-.244-.268-.772l.268-.879zm4.526 0q.092.352.26.88.168.527-.26.771-.428-.244-.267-.772l.267-.879zm2.783 5.382q1.025 0 1.025.444 0 .443-1.01.459h-9.97q-.993 0-.993-.46 0-.443.994-.443zm-9.48-9.495q-.444 0-.612.902-.143-.04-.268-.04-.252 0-.435.162-.184.138.015.29.321.169.398.727.076.558.627.726v6.01h-.184q-1.697 0-1.697 1.162 0 1.177 1.682 1.177h9.97q1.681 0 1.697-1.177 0-1.162-1.713-1.162h-.199V6.225q.55-.184.627-.734.077-.55.382-.734.215-.153.016-.275-.181-.17-.443-.17-.115 0-.245.032-.184-.887-.612-.887-.443 0-.627.887-.13-.033-.245-.033-.262 0-.443.17-.183.123.015.276.321.183.39.734.069.55.635.734h.015v5.994h-1.774V9.466q.52-.504.352-1.032-.168-.527-.252-.871-.084-.344-.375-.344-.29 0-.382.344-.092.344-.252.871-.161.528.374 1.032v2.753l-1.667-.016V6.21q.551-.168.627-.726.077-.558.398-.726.199-.153.015-.29-.183-.164-.435-.164-.125 0-.268.041-.168-.902-.612-.902-.428 0-.611.902-.143-.04-.269-.04-.251 0-.435.162-.183.138.03.29.307.169.383.727.077.558.627.726v5.994l-1.774.016V9.466q.52-.504.36-1.032-.16-.527-.253-.871-.091-.344-.382-.344-.275 0-.375.344-.099.344-.26.871-.16.528.375 1.032v2.753h-1.651v-6.01q.565-.168.642-.726.076-.558.382-.726.214-.153.03-.29-.183-.164-.434-.164-.126 0-.269.041-.183-.902-.611-.902z"/><path d="M8.22.375c-9.625 0-9.625 17.25 0 17.25m0-17.25h58.784M8.22 17.625h58.784M74.691.375v17.25M67.004.375c9.625 0 9.625 17.25 0 17.25" fill="none" stroke="#000"/></svg>