<svg xmlns="http://www.w3.org/2000/svg" width="84.014" height="18"><path d="M12.938 8.519c1.02 1.145 1.864 2.453 2.617 3.781.158.195-.02.374-.15.559-.496-1.575-1.637-2.79-2.467-4.34zm-.987-5.783c.085.396-.071.854-.372.989l.096.205c.376-.178.737-.713.79-1.193.514.03.654.417.735.865.096.307-.002 1.05.386 1.179 1.147.444 2.024.957 2.81 1.734 1.359 1.698 2.778 3.342 4.136 5.042a69.07 69.07 0 0 0 1.401 1.725c-2.062-1.542-4.366-2.72-6.626-3.946-1.202-.652-2.348-1.186-2.348-2.623 0-.773 1.424-1.42 1.366-1.521-.005-.01-.022-.013-.048-.013-.292 0-1.789.555-1.789 1.725 0 .324.087.625.238.905h-.007c-1.641-.87-1.38-2.63-1.317-4.18-.682-.038-1.244-.41-1.892-.565.503-.065 1.003-.15 1.507-.201a.4.4 0 0 0-.238.15c-.009.166.178.239.36.239.179 0 .352-.07.335-.19a.457.457 0 0 0-.39-.206c.25-.036.584-.09.867-.12zm2.867 9.977c.147.357.224.736.307 1.11.239-.193.47-.392.667-.628-.128.694-.366 1.395-.945 1.395-.35 0-.512-.237-.288-.954.106-.338.19-.66.26-.923zm-.628-3.438c2.34 1.247 4.658 2.506 6.872 3.969.52.422.985.893 1.3 1.334-.209.324-.606.435-.973.46-1.874-.066-2.607-1.872-3.597-3.162l-.538-.654.093.838c.006.15.16.864-.07.864a.17.17 0 0 1-.067-.016l-.947-1.134c-.101.067-.197.143-.301.205-.47-.95-1.157-1.836-1.772-2.704zM12.17 2.25c-.492 0-.996.088-1.474.133-.57.278-1.147.066-1.745.283-.431.194-.552.587-.731.98.254-.085.486-.12.704-.12.697 0 1.257.351 1.993.538-.001.37-.059.788-.087 1.21-.114 1.145.49 2.15 1.361 2.865.625 1.39 1.489 2.457 2.12 3.542-.076.488-.53 2.327-.753 2.988a8.341 8.341 0 0 1-1.365.115 7.003 7.003 0 0 1-.593-.024c-.355 0-.744.606-1.127.93l7.772.06c-.198-.7-1.58-1.072-2.07-1.072a.685.685 0 0 0-.075.003c.173-.495.389-.96.45-1.653.217.195.46.404.764.426.371-.028.522-.281.569-.612.84 1.39 1.781 2.526 3.506 2.693.596-.029 1.339-.29 1.5-.923.79-.044.21-.815-.083-1.116-2.151-2.33-3.927-4.988-6.053-7.334-.819-.808-1.743-1.354-2.888-1.807-.085-.21-.113-.507-.169-.835-.06-.357-.251-.942-.6-1.124a2.667 2.667 0 0 0-.926-.146zm17.387.325q.215 0 .298.215-.106-.042-.181-.042-.16 0-.183.191-.033.34-.184.34H29.3q-.158-.008-.224-.14 0-.1.249-.332.116-.232.232-.232zm.237.296q.061 0 .061.085-.03.334-.256.334l-.042-.002v-.033l.066-.15q.016-.233.133-.233l.016.001.022-.002zm-1.477.188q-.15 0-.277.088-.158.108-.092.373h.067q.016-.166.1-.274.082-.108.273-.108.19 0 .19-.05l-.19-.024q-.036-.005-.07-.005zm-.004.146q-.199 0-.199.282v.1l.03.002q.056 0 .07-.053.282-.066.414-.232-.116-.1-.315-.1zm-.298.43q-.083.117-.017.291t.83.24l.115-.05q-.961-.066-.862-.447l-.066-.033zm1.078-.795q-.216.15-.166.381.033.1.199.166.149.066.116.348.033.614-.514.946-.083-.2-.324-.216l-.044-.002q-.206 0-.296.143-.07.11-.164.11-.04 0-.084-.019-.027.007-.051.007-.15 0-.165-.272.166-.017.232-.066.067-.05.249-.117-.08-.092-.165-.092-.038 0-.075.018-.125.058-.257.091-.282-.05-.216-.282-.166-.182-.116-.315.365-.232.605-.44.24-.207.54-.248.298-.042.696-.141zm.978-.15q.431.034.912.49.48.456.564.937-.896 1.31-2.537 2.09-.067-.697.232-1.394.547-.497.48-.837-.066-.34.216-.456.63-.116.133-.83zm6.084 2.801l.051.002q.746.133 1.36.672.614.539.879 1.335.05.082-.365.082-1.741-.73-2.205-1.475-.205-.616.28-.616zm-4.426-.827q1.033.99 2.635.99.274 0 .565-.028.03-.01.057-.01.242 0 .242.806-1.642.73-2.587.796-.28.02-.568.02-.684 0-1.413-.112-.158-.024-.293-.024-.751 0-.794.746-.696-.83-.497-1.128 1.642-.73 2.653-2.056zM29.71 2.25l-.078.001q-.754.025-.804.307-.298.116-.555.19-.257.075-.481.274-.224.2-.498.357-.273.157-.323.273-.083.183.15.398 0 .183.165.299.033 0 .075.282.041.282.306.414.332-.05.432-.19.084-.12.217-.12.023 0 .048.004.166.024.249.273-.067.249-.191.88-.124.63 0 .928.124.298-.44.671-.43.285-1.178.285-.233 0-.496-.028-.576-.16-.926-.16-.376 0-.492.185-.224.357.041.622h.647q1.489.053 2.521.053 2.488 0 2.33-.31-.18-.353.292-.353.116 0 .271.021.244.034.535.034.65 0 1.538-.166 1.285-.24 1.675-.448.25-.133.54-.133.163 0 .339.042.489.116.588.414-.216.399-.752.399-.246 0-.558-.084-.522-.139-.857-.139-.303 0-.453.114-.315.24-.033.573h5.39q.546-.498.231-1.153-.315-.655-1.06-1.244-.747-.588-1.642-1.07.234-.204.451-.204.277 0 .527.33.263.345.445.345.13 0 .218-.172-.59-1.057-1.233-1.057-.042 0-.085.004-.688.075-1.252.771-.683.172-1.272.172-1.286 0-2.127-.818-.465-1.178-1.111-1.634-.614-.432-1.324-.432zm-3.831 8.759c.032 0 .066 0 .1.003.446.032.933.202 1.463.51-.53.328-1.017.505-1.462.532a1.412 1.412 0 0 1-.084.002c-.389 0-.578-.178-.568-.535-.01-.341.174-.512.55-.512zm0 3.163c.032 0 .066.001.1.004.446.032.933.201 1.463.509-.53.328-1.017.506-1.462.532a1.412 1.412 0 0 1-.084.003c-.389 0-.578-.179-.568-.535-.01-.342.174-.513.55-.513zm-.06-3.686c-.029 0-.057 0-.086.002-.567.021-.882.365-.946 1.033.084.71.386 1.065.907 1.065h.023c.536-.01 1.285-.201 2.25-.572h9.188c.753.064 1.132.413 1.137 1.05.005.635-.374 1.022-1.137 1.16h-9.188c-.876-.383-1.592-.574-2.147-.574l-.087.001c-.567.022-.882.366-.946 1.034.084.71.386 1.065.907 1.065h.023c.536-.01 1.285-.202 2.25-.573h8.68l.099.001c1.08 0 1.823-.339 2.23-1.018.418-.7.418-1.399 0-2.098-.4-.67-1.129-1.004-2.184-1.004-.047 0-.096 0-.145.002h-8.68c-.876-.382-1.592-.574-2.147-.574zm17.424-7.629q.624 0 .993.233l-1.068.698 1.053.712q-.427.3-1.167.3-1.581-.072-1.581-.998 0-.811 1.566-.94.105-.005.204-.005zm.224 11.298q.954 0 1.139 1.097h-2.293q.214-1.097 1.154-1.097zM43.173 2.25h-.041q-1.09.015-1.702.356-.612.342-.64 1.182.028.855.633 1.196.605.342 1.702.413v7.832l-1.268-1.196-.398.399 1.41 1.296q-1.14.555-1.14 2.022h3.46q.015-1.467-1.124-2.022l1.41-1.31-.4-.413-1.267 1.239V5.397q.413-.07 1.453-.797l-1.04-.812 1.04-.811q-1.02-.727-2.088-.727zm8.855.504l1.917 2.713h-6.467V2.754zm1.917 0l1.917 2.713h-1.267l-1.901-2.713zm6.466 0v2.713h-3.9l-1.916-2.713zM46.975 2.25v3.704h13.94V2.25zm5.93 11.631a1.31 1.31 0 0 0-.313.039c-.21.051-.437.168-.682.35h-4.935v1.091h4.935c.245.182.473.299.682.35a1.31 1.31 0 0 0 .623 0c.206-.051.411-.168.617-.35h.19c.198.182.401.299.61.35a1.316 1.316 0 0 0 .63 0c.21-.051.433-.168.67-.35h4.983V14.27h-4.983c-.237-.182-.46-.299-.67-.35a1.316 1.316 0 0 0-.63 0 1.402 1.402 0 0 0-.61.35h-.19a1.492 1.492 0 0 0-.617-.35 1.274 1.274 0 0 0-.31-.039zM64.571 3.794q.26.152.306.611-.199.168-.306.505-.122-.337-.321-.505.046-.459.321-.611zm4.495 0q.276.152.322.611-.2.168-.322.505-.107-.337-.305-.505.046-.459.305-.611zm4.511 0q.26.168.306.626-.199.153-.306.49-.122-.337-.32-.49.045-.458.32-.626zm-8.043.81q-.29.382-.351.818-.062.436-.612.543-.566-.107-.627-.543-.061-.436-.352-.818.566 0 .704.428.122.413.275.413.138 0 .275-.413.138-.428.688-.428zm4.511 0q-.29.382-.352.818-.06.436-.627.543-.55-.107-.611-.543-.061-.436-.352-.818.55 0 .688.428.138.413.275.413.153 0 .276-.413.137-.428.703-.428zm4.496 0q-.291.397-.352.826-.061.428-.612.55-.566-.122-.627-.55-.06-.429-.351-.826.565 0 .703.443.122.398.275.398.138 0 .275-.398.138-.443.689-.443zm-7.799 2.951l.268.88q.16.527-.268.771-.428-.244-.267-.772l.267-.879zm4.526 0q.092.352.26.88.168.527-.26.771-.428-.244-.267-.772l.267-.879zm2.783 5.382q1.025 0 1.025.444 0 .443-1.01.459h-9.969q-.994 0-.994-.46 0-.443.994-.443zm-9.48-9.495q-.443 0-.612.902-.142-.04-.268-.04-.252 0-.435.162-.183.138.015.29.321.169.398.727.076.558.627.726v6.01h-.184q-1.697 0-1.697 1.162 0 1.177 1.682 1.177h9.97q1.682 0 1.697-1.177 0-1.162-1.713-1.162h-.199V6.225q.55-.184.627-.734.077-.55.383-.734.214-.153.015-.275-.18-.17-.443-.17-.115 0-.245.032-.184-.887-.612-.887-.443 0-.627.887-.13-.033-.245-.033-.262 0-.443.17-.183.123.016.276.32.183.39.734.068.55.634.734h.015v5.994h-1.773V9.466q.52-.504.351-1.032-.168-.527-.252-.871-.084-.344-.375-.344-.29 0-.382.344-.092.344-.252.871-.16.528.374 1.032v2.753l-1.666-.016V6.21q.55-.168.627-.726.076-.558.397-.726.199-.153.015-.29-.183-.164-.434-.164-.126 0-.269.041-.168-.902-.612-.902-.428 0-.611.902-.143-.04-.269-.04-.251 0-.435.162-.183.138.031.29.306.169.382.727.077.558.627.726v5.994l-1.773.016V9.466q.52-.504.359-1.032-.16-.527-.252-.871t-.383-.344q-.275 0-.374.344-.1.344-.26.871-.16.528.374 1.032v2.753h-1.651v-6.01q.566-.168.642-.726.077-.558.382-.726.214-.153.031-.29-.183-.164-.435-.164-.126 0-.268.041-.184-.902-.612-.902z"/><path d="M8.22.375c-9.625 0-9.625 17.25 0 17.25m0-17.25h67.544M8.22 17.625h67.544M83.451.375v17.25M75.764.375c9.625 0 9.625 17.25 0 17.25" fill="none" stroke="#000"/></svg>