<svg xmlns="http://www.w3.org/2000/svg" width="68.772" height="18"><path d="M21.83 2.944c.132 0 .198.479.198.61 0 .133-.066.612-.198.612H9.145c-.154 0-.231-.479-.231-.611s.077-.611.231-.611zM8.75 2.25c-.353 0-.529.71-.529 1.305 0 .594.176 1.305.529 1.305h13.478c.33 0 .495-.71.495-1.305s-.165-1.305-.495-1.305zm4.24 7.626q.215 0 .298.216-.106-.043-.182-.043-.16 0-.183.192-.032.34-.183.34h-.008q-.157-.008-.223-.141 0-.1.248-.332.116-.232.232-.232zm.237.296q.06 0 .06.086-.03.334-.255.334-.02 0-.043-.003v-.033l.067-.15q.015-.232.133-.232h.016l.022-.002zm-1.477.189q-.15 0-.278.087-.157.108-.091.373h.066q.017-.165.1-.273.083-.108.273-.108.191 0 .191-.05l-.19-.025q-.036-.004-.071-.004zm-.004.145q-.2 0-.2.282v.1q.017.003.031.003.056 0 .07-.053.281-.066.414-.232-.116-.1-.315-.1zm-.299.431q-.083.117-.016.29.066.175.829.241l.116-.05q-.962-.066-.862-.447l-.067-.034zm1.078-.795q-.215.149-.166.38.033.1.2.167.149.066.115.348.034.613-.514.945-.083-.199-.323-.215l-.045-.002q-.205 0-.295.142-.07.111-.165.111-.04 0-.084-.02-.027.007-.05.007-.15 0-.165-.272.166-.016.232-.066t.249-.116q-.081-.092-.166-.092-.037 0-.075.017-.124.058-.257.092-.282-.05-.215-.282-.166-.183-.116-.315.364-.233.605-.44.24-.207.539-.249.298-.041.696-.14zm.978-.15q.432.033.912.49.481.455.564.936-.895 1.31-2.537 2.09-.066-.697.232-1.393.548-.498.481-.838-.066-.34.216-.456.63-.116.132-.829zm6.084 2.801l.052.002q.746.132 1.36.671.613.54.878 1.335.05.083-.364.083-1.742-.73-2.206-1.476-.205-.615.28-.615zm-4.425-.827q1.033.99 2.634.99.275 0 .566-.029.03-.01.057-.01.241 0 .241.806-1.641.73-2.586.796-.28.02-.568.02-.685 0-1.414-.111-.157-.024-.292-.024-.752 0-.794.745-.696-.829-.497-1.127 1.641-.73 2.653-2.056zm-2.02-2.414h-.078q-.754.026-.804.308-.299.116-.556.19-.257.075-.48.274-.224.199-.498.356-.274.158-.323.274-.083.182.149.398 0 .182.166.298.033 0 .074.282.042.282.307.415.332-.05.431-.19.085-.12.217-.12.024 0 .049.003.165.025.248.274-.066.248-.19.879-.125.63 0 .928.124.299-.44.672-.43.284-1.178.284-.233 0-.497-.027-.575-.16-.925-.16-.376 0-.492.185-.224.356.041.621h.647q1.488.054 2.52.054 2.488 0 2.33-.31-.18-.353.293-.353.116 0 .27.02.245.034.536.034.65 0 1.538-.166 1.285-.24 1.674-.448.25-.132.54-.132.164 0 .34.041.488.116.588.415-.216.398-.753.398-.245 0-.557-.083-.522-.14-.857-.14-.303 0-.453.115-.315.24-.033.572h5.389q.547-.497.232-1.152-.315-.655-1.061-1.244t-1.642-1.07q.234-.204.452-.204.276 0 .526.329.263.345.446.345.129 0 .218-.171-.591-1.058-1.233-1.058-.043 0-.086.005-.688.075-1.251.771-.683.172-1.273.172-1.285 0-2.127-.819-.464-1.177-1.11-1.633-.614-.432-1.324-.432zm12.637-6.459q1.51.22 1.579 1.382v8.382q-.706-.843-2.536-1.184l.957-8.58zm-.426-.843l-1.13 10.022q2.52.289 3.135 1.8v1.678h.752V4.475q0-1.883-2.757-2.225zm5.813.843q1.511.22 1.58 1.382v8.382q-.707-.843-2.537-1.184l.957-8.58zm-.425-.843L29.61 12.272q2.52.289 3.135 1.8v1.678h.752V4.475q0-1.883-2.756-2.225zm6.223.476q-.278 0-.278.328 0 .278.278.278.295-.016.295-.311t-.295-.295zm-1.082.213v.295l-.639.115q.295-.312.64-.41zm.033.393q.377.295.131.443-.377-.131-.557-.344l.426-.099zm1.148-.754q.77 0 1.23.59.458.59.491 1.82 1.197.246 1.59 1.082.064.542-.244.542l-.018-.001q-.328-.016-.517-.18-.068-.06-.103-.06-.061 0-.02.183.066.287.722.696.656.41.106.68-.136.068-.29.068-.466 0-1.095-.616-.836-.82-.885-1.246-.05-.427.344-.787.234-.215.16-.215-.05 0-.242.1-.475.246-.5.721-.024.476.377 1.041.402.566 1.582 1.435.12.063.273.063.325 0 .793-.285.688-.418-.689-1.286.508-.132.525-.443.64.213 3.59 3.967.787.525.803.77-.016.23-.246.28-.049.01-.1.01-.185 0-.391-.142-.918.443-1.78.46h-.089q-.8 0-1.328-.28.54.476.377 1-.08.255-.12.255-.044 0-.044-.287 0-.558-1.426-1.066v.623q-.084.353-.134.353-.047 0-.063-.32-.098-.705-.467-1.517-.369-.811-1.172-2.245-.804-1.435-1.025-2.066-.221-.631-.205-1.172.017-.541-.221-.795t-.14-.55q.099-.295-.295-.557v-.278q.427-.345.886-.345zm3.114 9.443q.804.23.804.54l-.541 2.017q-.066.361-.443.361h-.656v-.033l.836-2.557v-.328zM37.122 2.25h-.06q-.639 0-1.294.525-.377.131-.77.607.54.491.983.606.049.23.311.64.017 1.081.295 1.795.279.713 1.87 3.827.786 1.64.786 2.017 0 .574-.721 2.574 0 .114-.984.18-1.475.05-1.475.41 0 .213.196.213h4.361q.41-.328.46-.558.393.164.425.443.056.221.157.221.02 0 .04-.008.131-.049.131-.213-.115-.443-.574-.852l.525-2.213q1.59-.05 2.77-.509.22.05.401.05.365 0 .583-.197.328-.295-.131-.918-1-1-1.902-2.197-1.852-2.279-2.54-2.64-.23-.475-.55-.753-.32-.28-1.156-.689-.016-.967-.45-1.672-.425-.689-1.687-.689zM49.33 3.794q.26.152.305.611-.199.168-.306.505-.122-.337-.32-.505.045-.459.32-.611zm4.495 0q.275.152.32.611-.198.168-.32.505-.107-.337-.306-.505.046-.459.306-.611zm4.51 0q.26.168.306.626-.198.153-.305.49-.123-.337-.322-.49.046-.458.322-.626zm-8.042.81q-.29.382-.352.818-.061.436-.612.543-.565-.107-.627-.543-.06-.436-.351-.818.566 0 .703.428.122.413.275.413.138 0 .276-.413.137-.428.688-.428zm4.51 0q-.29.382-.351.818-.061.436-.627.543-.55-.107-.612-.543-.061-.436-.351-.818.55 0 .688.428.137.413.275.413.153 0 .275-.413.138-.428.703-.428zm4.496 0q-.29.397-.352.826-.061.428-.611.55-.566-.122-.627-.55-.062-.429-.352-.826.566 0 .703.443.123.398.276.398.137 0 .275-.398.137-.443.688-.443zM51.5 7.555l.267.88q.16.527-.267.771-.429-.244-.268-.772l.268-.879zm4.526 0q.091.352.26.88.168.527-.26.771-.428-.244-.268-.772l.268-.879zm2.783 5.382q1.024 0 1.024.444 0 .443-1.01.459h-9.969q-.994 0-.994-.46 0-.443.994-.443zm-9.48-9.495q-.444 0-.612.902-.143-.04-.269-.04-.251 0-.435.162-.183.138.016.29.32.169.397.727.077.558.627.726v6.01h-.183q-1.698 0-1.698 1.162 0 1.177 1.682 1.177h9.97q1.682 0 1.697-1.177 0-1.162-1.712-1.162h-.2V6.225q.551-.184.628-.734.076-.55.382-.734.214-.153.015-.275-.18-.17-.443-.17-.114 0-.245.032-.183-.887-.611-.887-.444 0-.627.887-.13-.033-.245-.033-.263 0-.443.17-.184.123.015.276.321.183.39.734.069.55.634.734h.016v5.994h-1.774V9.466q.52-.504.352-1.032-.169-.527-.253-.871-.084-.344-.374-.344t-.383.344q-.091.344-.252.871-.16.528.375 1.032v2.753l-1.667-.016V6.21q.55-.168.627-.726.076-.558.398-.726.198-.153.015-.29-.184-.164-.435-.164-.126 0-.269.041-.168-.902-.611-.902-.428 0-.612.902-.143-.04-.268-.04-.252 0-.435.162-.184.138.03.29.306.169.383.727.076.558.627.726v5.994l-1.774.016V9.466q.52-.504.36-1.032-.161-.527-.253-.871t-.382-.344q-.276 0-.375.344-.1.344-.26.871-.16.528.375 1.032v2.753h-1.652v-6.01q.566-.168.643-.726.076-.558.382-.726.214-.153.03-.29-.183-.164-.435-.164-.125 0-.268.041-.184-.902-.612-.902z"/><path d="M8.22.375c-9.625 0-9.625 17.25 0 17.25m0-17.25h52.302M8.22 17.625h52.302M68.21.375v17.25M60.522.375c9.625 0 9.625 17.25 0 17.25" fill="none" stroke="#000"/></svg>