<svg xmlns="http://www.w3.org/2000/svg" width="68.137" height="18"><path d="M3.73.474c.693 0 1.247.2 1.634.479.006.053.02.107.009.16-.05.248-.195.477-.396.63-.316.207-.697.267-1.057.356-.09.01-.019.031.031.04.23.04.707.099.971.099l.052-.001c.278-.032.54-.148.766-.311.079-.067.147-.15.205-.236.147.346.227.713.26.917.018.11.096.2.202.233 1.139.349 2.038 1.91 2.88 2.949 1.729 2.137 3.199 4.526 4.892 6.76-.937-.456-1.87-.916-2.81-1.374-1.92-1.01-3.92-1.816-5.604-3.09l-.008-.008c-.97-.808-1.963-1.66-2.339-2.793-.148-.92 1.757-2.577 1.542-2.646a.207.207 0 0 0-.064-.01c-.458 0-1.753 1.128-2.019 2.202-.003-.014-.01-.03-.014-.045-.073-.356-.154-1.256.068-1.98a.29.29 0 0 0 .01-.103 1.968 1.968 0 0 0-.123-.634c-.063-.17-.139-.344-.26-.765-.031-.108-.142-.328-.208-.345.186-.138.375-.28.645-.375a.434.434 0 0 0-.132.314c0 .23.164.415.365.415.2 0 .364-.186.364-.415V.894a.411.411 0 0 0-.255-.39c.053-.007.096-.019.154-.022.081-.006.16-.008.238-.008zm.67 7.763c.065.065.135.124.202.187.214.78.412 1.64.692 2.305.483 1.145 1.216 2.141 1.84 3.154a1.814 1.814 0 0 0-.385.27 6.831 6.831 0 0 0-.199.193 2.61 2.61 0 0 0-1.186-.897c.045-.723-.108-1.712-.34-2.787A34.903 34.903 0 0 0 4.4 8.237zm1.006.908c1.149.945 2.428 1.738 3.676 2.54-.018.91-.018 1.778.084 2.675a3.411 3.411 0 0 0-1.437-.736c-.02 0-.037.012-.057.012-.649-1.063-1.383-2.06-1.837-3.134-.156-.37-.293-.85-.429-1.357zm.407 5.254a2.5 2.5 0 0 1 .44.541.3.3 0 0 0 .257.14.29.29 0 0 0 .17-.053c.215-.156.347-.324.476-.446.047-.045.097-.08.148-.117l.149 2.722c-.213-.014-.435-.035-.637-.035-.264 0-.495.036-.633.172-.169-.134-.497-.164-.89-.164-.102 0-.207.002-.316.004l.836-2.764zM6.97 9.574c1.354.787 2.784 1.414 4.135 2.125a.244.244 0 0 0 .006.003c1.295.631 2.586 1.28 3.894 1.904.984 1.189 2.052 2.295 3.078 3.42l-2.15.362-4.267-4.635a.288.288 0 0 0-.037-.036c-1.499-1.137-3.152-2.082-4.66-3.143zM3.796 0c-.135 0-.273.005-.411.013C2.3.083 1.512.54 1.243 1.157c-.04.093-.146.314-.007.314a2.35 2.35 0 0 1 .341-.028c.418 0 .38.172.47.194.09.282.29.846.303 1.068-.244.86-.153 1.763-.064 2.198.15.732.63 1.584 1.261 2.38a.285.285 0 0 0 0 .166 35.3 35.3 0 0 1 .903 3.336c.251 1.168.393 2.277.317 2.823a.294.294 0 0 0 .221.328c.045.011.084.031.127.045l-.928 3.079a2.847 2.847 0 0 0-.593-.055c-.381 0-.756.05-1.064.05-.125 0-.24-.008-.34-.032a.546.546 0 0 0-.125-.012c-.436 0-1.428.306-1.34.879.15-.128.257-.159.375-.159.11 0 .23.027.405.027h.027c.254-.004.697-.083 1.053-.083.18 0 .338.02.438.08.236-.01.45-.013.649-.013.85 0 1.447.07 2.5.075a89.565 89.565 0 0 0 2.974-.079c.45.003.697.054.922.054h.04c.134-.004.265-.057.48-.057.123 0 .273.017.468.07-.25-.341-.877-.685-1.33-.685a.591.591 0 0 0-.302.071 5.081 5.081 0 0 0-.508-.022c-.22 0-.448.01-.678.02l-.157-2.83c.487.203.857.517 1.281 1.021a.295.295 0 0 0 .513-.246c-.192-1.039-.213-2.019-.202-3.06.54.354 1.072.713 1.576 1.094l4.36 4.738a.29.29 0 0 0 .263.09c.95-.159 1.9-.315 2.849-.474a.294.294 0 0 0 .23-.193.298.298 0 0 0-.06-.297c-.741-.83-1.508-1.631-2.25-2.445 1.269.78 2.875 1.755 3.08 1.755.022 0 .027-.013.012-.04-.094-.163-.9-.755-1.775-1.373.14.058.276.12.415.177l.017.01c.103.035.16.059.27.062a.286.286 0 0 0 .108-.016.317.317 0 0 0 .188-.152.32.32 0 0 0 .023-.238c-.017-.05-.038-.077-.054-.098-.061-.085-.103-.109-.162-.154a4.553 4.553 0 0 0-.205-.149c-.153-.105-.336-.223-.493-.328a4.992 4.992 0 0 1-.328-.233.307.307 0 0 0-.028-.025l-3.892-2.736c-.008-.006-.02-.001-.028-.006-1.333-1.869-2.588-3.825-4.046-5.627C9 4.496 8.145 2.888 6.758 2.352 6.69 1.956 6.54 1.225 6.003.703 5.547.26 4.888.056 4.147.011A5.728 5.728 0 0 0 3.796 0zm36.933 3.538zm-.003.18zM26.725 3.03v1.063c-.158-.073-.313-.14-.46-.213a1.477 1.477 0 0 0-.422-.118c-.12-.019-.246-.03-.359-.054a.417.417 0 0 1-.179-.065c-.013-.011-.024-.026-.024-.081 0-.056.01-.071.024-.082a.417.417 0 0 1 .179-.065c.113-.023.238-.035.359-.054a1.49 1.49 0 0 0 .422-.118c.147-.072.302-.14.46-.213zm0 1.063zm.54.076zm9.79-1.218c.105 0 .21.002.314.004.587.014 1.466.155 2.194.336.36.09.681.19.91.288.036.015.068.03.098.044a2.1 2.1 0 0 1-.086.034 6.34 6.34 0 0 1-.91.242 14.18 14.18 0 0 1-2.206.269c-.105.002-.21.004-.314.004-1.063 0-2.121-.121-3.18-.245-1.13-.131-2.26-.265-3.396-.265l-.172.001c-.993.012-2.133.123-3.042.506V2.954c.909.383 2.049.494 3.042.506h.172c1.136 0 2.266-.133 3.396-.264 1.059-.124 2.117-.245 3.18-.245zm-9.998-.701l-.13.075c-.302.173-.619.295-.9.433a.949.949 0 0 1-.267.07c-.13.02-.263.033-.385.058a.936.936 0 0 0-.415.179.62.62 0 0 0-.219.497.62.62 0 0 0 .219.496c.11.092.255.146.415.179.122.025.256.039.385.059a.949.949 0 0 1 .267.069c.281.138.598.26.9.433l.13.075.132-.071c.874-.47 2.093-.586 3.124-.599h.168c1.114 0 2.223.132 3.332.26 1.08.126 2.16.249 3.244.249.108 0 .216-.002.324-.004a14.633 14.633 0 0 0 2.301-.28c.388-.079.737-.17.993-.265.142-.053.26-.11.345-.17a.604.604 0 0 0 .14-.129.385.385 0 0 0 .081-.233c0-.08-.027-.16-.079-.23a.634.634 0 0 0-.134-.132 1.7 1.7 0 0 0-.342-.186 6.888 6.888 0 0 0-.992-.315c-.767-.192-1.685-.338-2.313-.353a13.778 13.778 0 0 0-.324-.004c-1.084 0-2.164.123-3.244.248-1.109.13-2.218.262-3.332.262l-.168-.001c-1.03-.013-2.25-.13-3.124-.599l-.132-.071zm13.021 9.128q.331 0 .331.347v2.668H39.4l.332-2.81q.015-.205.347-.205zm.016-.426q-.805 0-.853.457-.331 2.984-.71 3l-7.324.268-.757-.032q-.853-.9-1.515-.9l-.49-.031q-1.341.252-1.61.252-.19 0-.19.253 0 .347.538.347.921-.147 1.413-.147.09 0 .165.005.268 0 .442.221-.308.381-1.378.381l-.169-.002q-1.215-.032-2.147-.316-.457 0-.457.537.047.49 3.425.505l1.5-.158 8.554-.047 2.4.031v-3.85q-.017-.774-.837-.774zm7.613-5.156l-.334.759q.714.144 1.017 1.435l1.154-.296v.721l-1.123.32q.007 1.062-.205 1.996-.22.934-.995 1.208-.387.132-.778.132t-.786-.132q-.79-.274-1.003-1.208-.22-.934-.197-1.997l-1.124-.319v-.721l1.147.296q.304-1.29 1.025-1.435l-.35-.76zm-3.083-.532q-.273 0-.038.532l.205.463q-.607.387-.76 1.07l-1.29-.387v1.921l1.215.35q0 1.093.311 2.186.32 1.094 2.164 1.337 1.845-.243 2.172-1.337.319-1.093.319-2.186l1.215-.35v-1.92l-1.306.387q-.152-.684-.76-1.071l.205-.463q.243-.532-.038-.532z"/><path d="M22.116.375v17.25m0-17.25h2.625m-2.625 17.25h2.625m0-17.25h25.396m-25.396 17.25h25.396m0-17.25h17.625m-17.625 17.25h17.625M51.9.375v17.25M55.424.375v17.25M57.187.375v17.25M58.95 2.1h8.812M58.95 5.55h8.812M58.95 2.1v3.45m1.762-1.725h7.05m-8.812 3.45h8.812m-8.812 3.45h8.812m-8.812-3.45v3.45M60.712 9h7.05m-8.812 3.45h8.812M58.95 15.9h8.812m-8.812-3.45v3.45m1.762-1.725h7.05" fill="none" stroke="#000"/></svg>