<svg xmlns="http://www.w3.org/2000/svg" width="77.612" height="18"><path d="M3.73.474c.693 0 1.247.2 1.634.479.006.053.02.107.009.16-.05.248-.195.477-.396.63-.316.207-.697.267-1.057.356-.09.01-.019.031.031.04.23.04.707.099.971.099l.052-.001c.278-.032.54-.148.766-.311.079-.067.147-.15.205-.236.147.346.227.713.26.917.018.11.096.2.202.233 1.139.349 2.038 1.91 2.88 2.949 1.729 2.137 3.199 4.526 4.892 6.76-.937-.456-1.87-.916-2.81-1.374-1.92-1.01-3.92-1.816-5.604-3.09l-.008-.008c-.97-.808-1.963-1.66-2.339-2.793-.148-.92 1.757-2.577 1.542-2.646a.207.207 0 0 0-.064-.01c-.458 0-1.753 1.128-2.019 2.202-.003-.014-.01-.03-.014-.045-.073-.356-.154-1.256.068-1.98a.29.29 0 0 0 .01-.103 1.968 1.968 0 0 0-.123-.634c-.063-.17-.139-.344-.26-.765-.031-.108-.142-.328-.208-.345.186-.138.375-.28.645-.375a.434.434 0 0 0-.132.314c0 .23.164.415.365.415.2 0 .364-.186.364-.415V.894a.411.411 0 0 0-.255-.39c.053-.007.096-.019.154-.022.081-.006.16-.008.238-.008zm.67 7.763c.065.065.135.124.202.187.214.78.412 1.64.692 2.305.483 1.145 1.216 2.141 1.84 3.154a1.814 1.814 0 0 0-.385.27 6.831 6.831 0 0 0-.199.193 2.61 2.61 0 0 0-1.186-.897c.045-.723-.108-1.712-.34-2.787A34.903 34.903 0 0 0 4.4 8.237zm1.006.908c1.149.945 2.428 1.738 3.676 2.54-.018.91-.018 1.778.084 2.675a3.411 3.411 0 0 0-1.437-.736c-.02 0-.037.012-.057.012-.649-1.063-1.383-2.06-1.837-3.134-.156-.37-.293-.85-.429-1.357zm.407 5.254a2.5 2.5 0 0 1 .44.541.3.3 0 0 0 .257.14.29.29 0 0 0 .17-.053c.215-.156.347-.324.476-.446.047-.045.097-.08.148-.117l.149 2.722c-.213-.014-.435-.035-.637-.035-.264 0-.495.036-.633.172-.169-.134-.497-.164-.89-.164-.102 0-.207.002-.316.004l.836-2.764zM6.97 9.574c1.354.787 2.784 1.414 4.135 2.125a.244.244 0 0 0 .006.003c1.295.631 2.586 1.28 3.894 1.904.984 1.189 2.052 2.295 3.078 3.42l-2.15.362-4.267-4.635a.288.288 0 0 0-.037-.036c-1.499-1.137-3.152-2.082-4.66-3.143zM3.796 0c-.135 0-.273.005-.411.013C2.3.083 1.512.54 1.243 1.157c-.04.093-.146.314-.007.314a2.35 2.35 0 0 1 .341-.028c.418 0 .38.172.47.194.09.282.29.846.303 1.068-.244.86-.153 1.763-.064 2.198.15.732.63 1.584 1.261 2.38a.285.285 0 0 0 0 .166 35.3 35.3 0 0 1 .903 3.336c.251 1.168.393 2.277.317 2.823a.294.294 0 0 0 .221.328c.045.011.084.031.127.045l-.928 3.079a2.847 2.847 0 0 0-.593-.055c-.381 0-.756.05-1.064.05-.125 0-.24-.008-.34-.032a.546.546 0 0 0-.125-.012c-.436 0-1.428.306-1.34.879.15-.128.257-.159.375-.159.11 0 .23.027.405.027h.027c.254-.004.697-.083 1.053-.083.18 0 .338.02.438.08.236-.01.45-.013.649-.013.85 0 1.447.07 2.5.075a89.565 89.565 0 0 0 2.974-.079c.45.003.697.054.922.054h.04c.134-.004.265-.057.48-.057.123 0 .273.017.468.07-.25-.341-.877-.685-1.33-.685a.591.591 0 0 0-.302.071 5.081 5.081 0 0 0-.508-.022c-.22 0-.448.01-.678.02l-.157-2.83c.487.203.857.517 1.281 1.021a.295.295 0 0 0 .513-.246c-.192-1.039-.213-2.019-.202-3.06.54.354 1.072.713 1.576 1.094l4.36 4.738a.29.29 0 0 0 .263.09c.95-.159 1.9-.315 2.849-.474a.294.294 0 0 0 .23-.193.298.298 0 0 0-.06-.297c-.741-.83-1.508-1.631-2.25-2.445 1.269.78 2.875 1.755 3.08 1.755.022 0 .027-.013.012-.04-.094-.163-.9-.755-1.775-1.373.14.058.276.12.415.177l.017.01c.103.035.16.059.27.062a.286.286 0 0 0 .108-.016.317.317 0 0 0 .188-.152.32.32 0 0 0 .023-.238c-.017-.05-.038-.077-.054-.098-.061-.085-.103-.109-.162-.154a4.553 4.553 0 0 0-.205-.149c-.153-.105-.336-.223-.493-.328a4.992 4.992 0 0 1-.328-.233.307.307 0 0 0-.028-.025l-3.892-2.736c-.008-.006-.02-.001-.028-.006-1.333-1.869-2.588-3.825-4.046-5.627C9 4.496 8.145 2.888 6.758 2.352 6.69 1.956 6.54 1.225 6.003.703 5.547.26 4.888.056 4.147.011A5.728 5.728 0 0 0 3.796 0zm36.933 3.538zm-.003.18zM26.725 3.03v1.063c-.158-.073-.313-.14-.46-.213a1.477 1.477 0 0 0-.422-.118c-.12-.019-.246-.03-.359-.054a.417.417 0 0 1-.179-.065c-.013-.011-.024-.026-.024-.081 0-.056.01-.071.024-.082a.417.417 0 0 1 .179-.065c.113-.023.238-.035.359-.054a1.49 1.49 0 0 0 .422-.118c.147-.072.302-.14.46-.213zm0 1.063zm.54.076zm9.79-1.218c.105 0 .21.002.314.004.587.014 1.466.155 2.194.336.36.09.681.19.91.288.036.015.068.03.098.044a2.1 2.1 0 0 1-.086.034 6.34 6.34 0 0 1-.91.242 14.18 14.18 0 0 1-2.206.269c-.105.002-.21.004-.314.004-1.063 0-2.121-.121-3.18-.245-1.13-.131-2.26-.265-3.396-.265l-.172.001c-.993.012-2.133.123-3.042.506V2.954c.909.383 2.049.494 3.042.506h.172c1.136 0 2.266-.133 3.396-.264 1.059-.124 2.117-.245 3.18-.245zm-9.998-.701l-.13.075c-.302.173-.619.295-.9.433a.949.949 0 0 1-.267.07c-.13.02-.263.033-.385.058a.936.936 0 0 0-.415.179.62.62 0 0 0-.219.497.62.62 0 0 0 .219.496c.11.092.255.146.415.179.122.025.256.039.385.059a.949.949 0 0 1 .267.069c.281.138.598.26.9.433l.13.075.132-.071c.874-.47 2.093-.586 3.124-.599h.168c1.114 0 2.223.132 3.332.26 1.08.126 2.16.249 3.244.249.108 0 .216-.002.324-.004a14.633 14.633 0 0 0 2.301-.28c.388-.079.737-.17.993-.265.142-.053.26-.11.345-.17a.604.604 0 0 0 .14-.129.385.385 0 0 0 .081-.233c0-.08-.027-.16-.079-.23a.634.634 0 0 0-.134-.132 1.7 1.7 0 0 0-.342-.186 6.888 6.888 0 0 0-.992-.315c-.767-.192-1.685-.338-2.313-.353a13.778 13.778 0 0 0-.324-.004c-1.084 0-2.164.123-3.244.248-1.109.13-2.218.262-3.332.262l-.168-.001c-1.03-.013-2.25-.13-3.124-.599l-.132-.071zm1.337 5.352c.16.111.15.172.132.238-.021.086-.283.143-.401.143-.034 0-.056-.004-.058-.014 0-.077.128-.278.327-.367zm-1.342 1.761c-.166 0-.25.089-.25.266 0 .221.1.332.3.332h.016a.74.74 0 0 0 .58-.266v-.1c0-.077-.646-.232-.646-.232zm2.147-1.34c.242.197-.2.753-.462 1.319l-.09.195c.456-.29.694-.854.694-.854.11.176-.25.654-.139.797.122.43.617.952-.498 2.011-.144.089-1.802.974-1.934.974-.1 0-.172-.077-.415-.298l.498-.398v-.116l-.017-.017h-.1c-.165 0-.375.105-.63.315a4.63 4.63 0 0 1-.452-.54c.206-.163.289-.276.276-.427.031-.187-.095-.217-.191-.217-.045 0-.083.006-.097.006v.133c-.033.067-.105.122-.216.166-.044 0-.066-.15-.066-.15 0-.077.177-.32.53-.73C26.865 9 27.616 8.39 28.257 8.39l.146.011c-.245.155-.133.416-.133.416.258-.227.676-.696.93-.793zm.675.806h.004c1.68 1.614 1.936 2.712 1.946 6.393l-2.846.044-.04-2.96c0-.199.043-.438.22-.537 1.194-.922.59-2.32.51-2.477-.029-.353.11-.463.206-.463zM28.44 7.231c-.1 0-.32 0-.543.242-.198.215-.261.622-.645.76-.383.262-.637.535-.88.785-.973 1.062-1.299 1.432-1.31 1.643-.776.633.061 1.007.316 1.153.829.962.687.894 1.043 1.051.128.034.202.063.268.063.07 0 .131-.033.24-.13.122 0 1.427-.63 1.427-.63.144 0 .204.474.204 1.558-.013.745-.09 1.976-.005 1.976.002 0 .004 0 .005-.002l.033.05h3.766l.017-.017-.05-1.094c-.078-1.372.478-4.815-2.709-6.591.038-.223-.14-.466-.367-.466-.113 0-.237.061-.353.216-.02-.267-.135-.546-.457-.567zm8.818.371c.161.111.15.172.133.238-.022.086-.283.143-.402.143-.033 0-.055-.004-.058-.014 0-.077.128-.278.327-.367zm-1.342 1.761c-.166 0-.249.089-.249.266 0 .221.1.332.299.332h.016a.74.74 0 0 0 .581-.266v-.1c0-.077-.647-.232-.647-.232zm2.147-1.34c.242.197-.199.753-.461 1.319l-.091.195c.457-.29.694-.854.694-.854.11.176-.25.654-.139.797.122.43.617.952-.497 2.011-.145.089-1.802.974-1.935.974-.1 0-.171-.077-.415-.298l.498-.398v-.116l-.017-.017h-.099c-.166 0-.376.105-.63.315a4.63 4.63 0 0 1-.453-.54c.206-.163.29-.276.277-.427.03-.187-.095-.217-.192-.217-.044 0-.083.006-.097.006v.133c-.033.067-.105.122-.216.166-.044 0-.066-.15-.066-.15 0-.077.177-.32.531-.73C35.728 9 36.479 8.39 37.121 8.39l.145.011c-.245.155-.132.416-.132.416.257-.227.675-.696.93-.793zm.675.806h.005c1.68 1.614 1.936 2.712 1.945 6.393l-2.846.044-.04-2.96c0-.199.044-.438.22-.537 1.194-.922.59-2.32.511-2.477-.03-.353.109-.463.205-.463zm-1.433-1.598c-.1 0-.32 0-.542.242-.198.215-.262.622-.646.76-.383.262-.637.535-.88.785-.973 1.062-1.299 1.432-1.31 1.643-.776.633.062 1.007.316 1.153.83.962.688.894 1.043 1.051.129.034.203.063.268.063.07 0 .132-.033.241-.13.122 0 1.426-.63 1.426-.63.144 0 .205.474.205 1.558-.014.745-.091 1.976-.005 1.976.001 0 .003 0 .005-.002l.033.05h3.765l.017-.017-.05-1.094c-.077-1.372.479-4.815-2.708-6.591.037-.223-.141-.466-.367-.466-.113 0-.238.061-.353.216-.02-.267-.135-.546-.458-.567zm7.842-4.544q-.278.703-.504 1.498-.205-.113-.404-.113-.199 0-.39.113-.08-.795-.478-1.498zm-.914 1.816q.357.04.357.357-.026.332-.357.371-.332-.04-.371-.357.04-.332.37-.371zm.543.927q.517 1.232.49 2.968 0 1.736-.676 3.87-.182.344-.365.344-.175 0-.35-.318-.544-2.173-.583-3.843-.04-1.789.45-3.02.12.29.49.317.358-.026.544-.318zm-1.71-3.18q-.45 0-.278.437.464.703.636 2.054-.676 1.471-.676 3.724.04 1.828.849 4.478-.385.53-.49.875-.04.385.245.385.106 0 .258-.054.331-.291.623-.795.079 1.034 1.96 2.293.195.103.341.103.172 0 .276-.143.192-.265-.391-.716-1.643-1.1-1.577-1.948.901-2.067.914-4.545.04-2.345-.662-3.67.159-1.338.556-2.04.252-.438-.119-.438zm10.079 0c-.083 0-.168.01-.252.031a1.59 1.59 0 0 0-.551.283h-3.985v.88h3.985c.198.148.382.242.55.283a1.057 1.057 0 0 0 .504 0c.166-.041.332-.135.498-.282h.153c.16.147.324.241.493.282a1.062 1.062 0 0 0 .508 0c.17-.041.35-.135.541-.282h4.023v-.881h-4.023a1.501 1.501 0 0 0-.541-.283 1.062 1.062 0 0 0-.508 0 1.142 1.142 0 0 0-.493.283h-.153a1.205 1.205 0 0 0-.498-.283 1.028 1.028 0 0 0-.25-.031zm-1.625 3.4v3.911h-2.623v-3.91zm-3.162-.55v5h3.715V5.099zm7.974-.069c-3.293 1.15-1.758 5.776 1.33 4.982 3.06-.788 2.449-5.642-1.33-4.982m.147.422c3.28-.476 3.415 3.493 1.034 4.125-2.328.619-3.924-3.106-1.034-4.125m.72.698c.655-.448-.536-.295 0-.011v.011m-1.202.262c.743-.24-.208-.48 0-.044v.044m1.812-.43v.443l.442-.148-.442-.296m-2.162 1.251c.547-.481-.36-.536-.066-.055l.066.055m1.719-.512l-.148.443.443-.295-.295-.148m-.637.217l-.044-.01c-.404-.296-.841 1.07.044.01m1.825-.24c-.58.338.098.425.153.425l-.153-.426m-1.78.91l.149.148.295-.443-.443.295m1.014-.287l-.284.011c.338.525.458.48.284-.011m-2.23.918c.536-.448-.262-.382-.25-.295l.25.295m.613-.546l.133.184c.435-.13.206-.48-.133-.184m2.08.506l.147.148.296-.444-.444.296m-.8.007c-.46-.229-.558-.163-.285.208l.284-.208m-1.561.435l.148.444.295-.444h-.443m1.965-.282l-.272.328c.064.131.666.087.272-.328m-.931.43l-.148.443h.443l-.295-.443zm-8.455 2.524v4.438h.741v-4.438zm5.1.006v4.432h.742v-4.432zm5.192 0v4.432h.742v-4.432z"/><path d="M22.116.375v17.25m0-17.25h2.625m-2.625 17.25h2.625m0-17.25h34.871m-34.871 17.25h34.871m0-17.25h17.625m-17.625 17.25h17.625M61.374.375v17.25M64.9.375v17.25M66.662.375v17.25M68.424 2.1h8.813m-8.813 3.45h8.813M68.424 2.1v3.45m1.763-1.725h7.05m-8.813 3.45h8.813m-8.813 3.45h8.813m-8.813-3.45v3.45M70.187 9h7.05m-8.813 3.45h8.813m-8.813 3.45h8.813m-8.813-3.45v3.45m1.763-1.725h7.05" fill="none" stroke="#000"/></svg>