<svg xmlns="http://www.w3.org/2000/svg" width="39.805" height="18"><path d="M8.22 5.173v7.654h.64v-7h6.776v6.316l-2.616.015-.014-4.295h-.67v4.964h3.954V5.173zM30.799 3.01c.23.326.286.73.306 1.118-.01.184.005.383-.071.555-.216-.214-.197-.709-.201-.986 0-.273-.01-.497-.034-.688zM18.516 2.7l11.21.012c-1.638 1.553-3.28 2.311-5.755 2.311-2.485 0-3.989-.74-5.455-2.323zm-.503-.451a.225.225 0 0 0-.17.372c1.627 1.9 3.356 2.853 6.128 2.853 2.698 0 4.542-.915 6.32-2.682.06.17.091.436.091.904.011.52.007 1.383.69 1.443.48-.099.48-.612.483-1.012 0-.49-.12-.936-.32-1.275-.201-.338-.498-.59-.858-.59L18.013 2.25zm6.66 10.458q2.424 0 5.141 1.172-2.717 1.139-5.141 1.139-2.409 0-5.142-1.14 2.733-1.17 5.142-1.17zm0-.748q-2.994 0-6.883 1.904 3.889 1.887 6.883 1.887 2.993 0 6.882-1.887-3.872-1.904-6.882-1.904z"/><path d="M8.22.375c-9.625 0-9.625 17.25 0 17.25m0-17.25h23.335M8.22 17.625h23.335M39.243.375v17.25M31.555.375c9.625 0 9.625 17.25 0 17.25" fill="none" stroke="#000"/></svg>