<svg xmlns="http://www.w3.org/2000/svg" width="72.214" height="18"><path d="M3.73.474c.693 0 1.247.2 1.634.479.006.053.02.107.009.16-.05.248-.195.477-.396.63-.316.207-.697.267-1.057.356-.09.01-.019.031.031.04.23.04.707.099.971.099l.052-.001c.278-.032.54-.148.766-.311.079-.067.147-.15.205-.236.147.346.227.713.26.917.018.11.096.2.202.233 1.139.349 2.038 1.91 2.88 2.949 1.729 2.137 3.199 4.526 4.892 6.76-.937-.456-1.87-.916-2.81-1.374-1.92-1.01-3.92-1.816-5.604-3.09l-.008-.008c-.97-.808-1.963-1.66-2.339-2.793-.148-.92 1.757-2.577 1.542-2.646a.207.207 0 0 0-.064-.01c-.458 0-1.753 1.128-2.019 2.202-.003-.014-.01-.03-.014-.045-.073-.356-.154-1.256.068-1.98a.29.29 0 0 0 .01-.103 1.968 1.968 0 0 0-.123-.634c-.063-.17-.139-.344-.26-.765-.031-.108-.142-.328-.208-.345.186-.138.375-.28.645-.375a.434.434 0 0 0-.132.314c0 .23.164.415.365.415.2 0 .364-.186.364-.415V.894a.411.411 0 0 0-.255-.39c.053-.007.096-.019.154-.022.081-.006.16-.008.238-.008zm.67 7.763c.065.065.135.124.202.187.214.78.412 1.64.692 2.305.483 1.145 1.216 2.141 1.84 3.154a1.814 1.814 0 0 0-.385.27 6.831 6.831 0 0 0-.199.193 2.61 2.61 0 0 0-1.186-.897c.045-.723-.108-1.712-.34-2.787A34.903 34.903 0 0 0 4.4 8.237zm1.006.908c1.149.945 2.428 1.738 3.676 2.54-.018.91-.018 1.778.084 2.675a3.411 3.411 0 0 0-1.437-.736c-.02 0-.037.012-.057.012-.649-1.063-1.383-2.06-1.837-3.134-.156-.37-.293-.85-.429-1.357zm.407 5.254a2.5 2.5 0 0 1 .44.541.3.3 0 0 0 .257.14.29.29 0 0 0 .17-.053c.215-.156.347-.324.476-.446.047-.045.097-.08.148-.117l.149 2.722c-.213-.014-.435-.035-.637-.035-.264 0-.495.036-.633.172-.169-.134-.497-.164-.89-.164-.102 0-.207.002-.316.004l.836-2.764zM6.97 9.574c1.354.787 2.784 1.414 4.135 2.125a.244.244 0 0 0 .006.003c1.295.631 2.586 1.28 3.894 1.904.984 1.189 2.052 2.295 3.078 3.42l-2.15.362-4.267-4.635a.288.288 0 0 0-.037-.036c-1.499-1.137-3.152-2.082-4.66-3.143zM3.796 0c-.135 0-.273.005-.411.013C2.3.083 1.512.54 1.243 1.157c-.04.093-.146.314-.007.314a2.35 2.35 0 0 1 .341-.028c.418 0 .38.172.47.194.09.282.29.846.303 1.068-.244.86-.153 1.763-.064 2.198.15.732.63 1.584 1.261 2.38a.285.285 0 0 0 0 .166 35.3 35.3 0 0 1 .903 3.336c.251 1.168.393 2.277.317 2.823a.294.294 0 0 0 .221.328c.045.011.084.031.127.045l-.928 3.079a2.847 2.847 0 0 0-.593-.055c-.381 0-.756.05-1.064.05-.125 0-.24-.008-.34-.032a.546.546 0 0 0-.125-.012c-.436 0-1.428.306-1.34.879.15-.128.257-.159.375-.159.11 0 .23.027.405.027h.027c.254-.004.697-.083 1.053-.083.18 0 .338.02.438.08.236-.01.45-.013.649-.013.85 0 1.447.07 2.5.075a89.565 89.565 0 0 0 2.974-.079c.45.003.697.054.922.054h.04c.134-.004.265-.057.48-.057.123 0 .273.017.468.07-.25-.341-.877-.685-1.33-.685a.591.591 0 0 0-.302.071 5.081 5.081 0 0 0-.508-.022c-.22 0-.448.01-.678.02l-.157-2.83c.487.203.857.517 1.281 1.021a.295.295 0 0 0 .513-.246c-.192-1.039-.213-2.019-.202-3.06.54.354 1.072.713 1.576 1.094l4.36 4.738a.29.29 0 0 0 .263.09c.95-.159 1.9-.315 2.849-.474a.294.294 0 0 0 .23-.193.298.298 0 0 0-.06-.297c-.741-.83-1.508-1.631-2.25-2.445 1.269.78 2.875 1.755 3.08 1.755.022 0 .027-.013.012-.04-.094-.163-.9-.755-1.775-1.373.14.058.276.12.415.177l.017.01c.103.035.16.059.27.062a.286.286 0 0 0 .108-.016.317.317 0 0 0 .188-.152.32.32 0 0 0 .023-.238c-.017-.05-.038-.077-.054-.098-.061-.085-.103-.109-.162-.154a4.553 4.553 0 0 0-.205-.149c-.153-.105-.336-.223-.493-.328a4.992 4.992 0 0 1-.328-.233.307.307 0 0 0-.028-.025l-3.892-2.736c-.008-.006-.02-.001-.028-.006-1.333-1.869-2.588-3.825-4.046-5.627C9 4.496 8.145 2.888 6.758 2.352 6.69 1.956 6.54 1.225 6.003.703 5.547.26 4.888.056 4.147.011A5.728 5.728 0 0 0 3.796 0zm19.376.589c.06 0 .077.012.09.027a.455.455 0 0 1 .07.195c.025.122.038.26.059.39.025.167.062.327.128.462.08.16.153.329.232.501h-1.159c.08-.172.153-.341.232-.501a1.61 1.61 0 0 0 .129-.461c.02-.132.034-.269.059-.391a.455.455 0 0 1 .07-.195c.013-.015.029-.027.09-.027zm.662 2.164c-.417.992-.538 2.236-.551 3.319-.016 1.302.137 2.597.288 3.892.147 1.27.292 2.538.262 3.812-.015.64-.169 1.6-.367 2.393a6.939 6.939 0 0 1-.313.994 2.318 2.318 0 0 1-.049.106 2.29 2.29 0 0 1-.037-.094c-.094-.25-.184-.6-.263-.993-.162-.798-.279-1.761-.294-2.406-.03-1.274.115-2.543.263-3.812.15-1.295.304-2.59.288-3.892-.014-1.083-.134-2.327-.552-3.319zm-.73 14.516zm-.104.169zm.197.003zM23.172 0a.676.676 0 0 0-.542.239c-.1.12-.16.278-.195.453-.027.133-.042.278-.064.42-.017.106-.036.21-.076.29-.15.308-.283.653-.472.982l-.082.142.077.144c.513.954.64 2.284.654 3.409.015 1.277-.137 2.547-.285 3.817-.15 1.297-.296 2.592-.266 3.894.016.68.137 1.677.306 2.51.085.422.184.804.289 1.082.058.155.12.283.185.377.043.063.09.113.14.152a.42.42 0 0 0 .255.089c.087 0 .174-.03.25-.086a.692.692 0 0 0 .145-.146c.07-.093.137-.22.203-.373.12-.279.238-.66.344-1.083.209-.836.368-1.838.384-2.522.03-1.302-.115-2.597-.266-3.894-.148-1.27-.3-2.54-.284-3.817.014-1.125.14-2.455.653-3.409l.077-.144-.081-.142c-.19-.329-.322-.674-.473-.981a1.035 1.035 0 0 1-.075-.291c-.022-.142-.037-.287-.064-.42a1.021 1.021 0 0 0-.195-.453.676.676 0 0 0-.542-.239zm5.864.59c.22 0 .263.037.295.071.032.034.07.13.133.293.098.26.083.974.021 1.452a3.263 3.263 0 0 0-.24.243c-.084.095-.144.204-.206.31-.007-.01-.011-.022-.018-.033a2.606 2.606 0 0 0-.508-.539c-.042-.452-.004-1.172.095-1.433.062-.163.1-.259.133-.293.032-.034.074-.07.295-.07zm1.354 1.976c-.048.032-.096.07-.136.092-.216.115-.32.231-.467.381-.265.27-.265.628-.265 1.003a12.47 12.47 0 0 0-.16-.424c.1-.22.215-.448.33-.579.21-.24.508-.41.698-.473zm-3.062-.194a.93.93 0 0 1 .419.172c.045.03.128.101.194.154.226.182.508.43.584.548.268.413.406.955.622 1.5.044.114.074.267.107.42-.009.004-.014.01-.024.015a.961.961 0 0 1-.379.07c-.284 0-.403-.043-.507-.19-.082-.116-.163-.353-.163-.65 0-.273.082-.675-.062-1.06-.106-.285-.226-.548-.55-.825-.097-.082-.17-.115-.24-.154zm1.566 6.048c.05 1.11.187 2.797.317 4.36.135 1.62.256 3.106.256 3.473 0 .406-.047.734-.136.913-.089.18-.163.243-.437.243-.273 0-.347-.063-.436-.243-.09-.179-.136-.507-.136-.913 0-.367.12-1.854.256-3.474.13-1.562.266-3.249.316-4.359zM29.036 0c-.312 0-.565.089-.723.255-.158.167-.204.346-.258.49-.125.328-.173.78-.173 1.212-.224-.117-.446-.194-.667-.194a.657.657 0 0 0-.413.117.547.547 0 0 0-.086.754.779.779 0 0 0 .197.175c.128.083.24.14.27.166.259.22.28.304.382.581.051.136.025.51.025.856 0 .395.093.738.27.99a.97.97 0 0 0 .456.345c.004 1.057.03 1.707-.003 2.5-.044 1.079-.188 2.867-.323 4.486-.135 1.62-.259 3.038-.259 3.52 0 .442.03.84.197 1.175.167.335.526.572.966.572.44 0 .8-.237.966-.572.167-.335.197-.733.197-1.175 0-.482-.123-1.9-.258-3.52s-.28-3.407-.323-4.485c-.033-.802-.007-1.452-.003-2.529h.002a.96.96 0 0 0 .508-.55c.128-.369.127-.686.127-1.068 0-.367.07-.62.098-.65.16-.162.174-.192.326-.273.12-.064.255-.15.375-.252a1.12 1.12 0 0 0 .167-.17.434.434 0 0 0 .11-.292c0-.072.002-.253-.141-.387-.143-.135-.313-.154-.526-.154-.139 0-.272.033-.4.08.034-.432.038-.888-.102-1.259-.054-.143-.1-.322-.258-.489C29.6.09 29.349 0 29.036 0zm10.772 4.728l-.446 1.012q.952.192 1.357 1.913l1.539-.394v.961l-1.499.426q.01 1.417-.273 2.662-.294 1.246-1.326 1.61-.517.177-1.038.177-.522 0-1.048-.177-1.053-.364-1.336-1.61-.294-1.245-.264-2.662l-1.498-.426v-.96l1.529.394q.405-1.72 1.366-1.913l-.465-1.012zm-4.11-.71q-.365 0-.052.71l.274.617q-.81.517-1.013 1.428l-1.72-.517v2.562l1.62.465q0 1.458.414 2.916.425 1.458 2.886 1.782 2.46-.324 2.895-1.782.425-1.458.425-2.916l1.62-.465V6.256l-1.741.517q-.203-.911-1.013-1.428l.274-.617q.324-.71-.05-.71zM47.873.72c.67.051 1.246.203 1.726.456-.632.746-1.207 1.764-1.726 3.054-.53-1.29-1.112-2.308-1.745-3.054.494-.24 1.075-.392 1.745-.455zm0 4.894c.392 3.655.601 6.616.626 7.704-.025 1.846-.234 3.072-.626 3.68-.404-.608-.613-1.834-.626-3.68.013-1.1.222-4.062.626-7.704zm0-5.614c-1.29 0-2.231.392-2.826 1.176.898.746 1.619 1.903 2.162 3.47 0 .709-.142 2.634-.426 4.594-.285 1.96-.351 4.134-.2 6.524.327 1.49.717 2.236 1.172 2.236a.443.443 0 0 0 .118-.017.45.45 0 0 0 .119.017c.455 0 .845-.745 1.171-2.236.14-2.39.066-4.564-.218-6.524-.285-1.96-.427-3.885-.427-4.593.557-1.568 1.284-2.725 2.181-3.471C50.092.392 49.15 0 47.873 0zm21.219.825q-.402.402-.402 1.472 0 1.093.402 1.494H55.844q.402-.401.402-1.494 0-1.07-.402-1.472zM53.279 0q-.58 0-.557.38-.023.445.557.445h1.45q.535.402.535 1.472 0 1.093-.535 1.494h-1.427q-.603 0-.603.38 0 .446.58.446h18.378q.557 0 .557-.446 0-.38-.58-.38h-1.427q-.535-.401-.535-1.494 0-1.07.535-1.472h1.45q.557 0 .557-.446 0-.379-.557-.379zm17.735 8.73c.178 0 .267.645.267.822 0 .178-.09.823-.267.823h-17.07c-.207 0-.311-.645-.311-.823 0-.177.104-.822.311-.822zM53.41 7.797c-.474 0-.712.955-.712 1.755 0 .8.238 1.756.712 1.756h18.136c.445 0 .667-.955.667-1.756 0-.8-.222-1.755-.667-1.755zm17.604 7.625c.178 0 .267.644.267.822 0 .178-.09.822-.267.822h-17.07c-.207 0-.311-.644-.311-.822 0-.178.104-.822.311-.822zm-17.603-.934c-.474 0-.712.956-.712 1.756S52.937 18 53.411 18h18.136c.445 0 .667-.956.667-1.756s-.222-1.756-.667-1.756z"/></svg>