<svg xmlns="http://www.w3.org/2000/svg" width="44.782" height="18"><path d="M11.386 8.203c-.51.04-.793.296-.847.767.067.51.35.78.847.806.498-.026.76-.295.787-.806-.04-.47-.303-.726-.787-.767zm.06-1.694c.364 0 .7.068 1.01.202a2.659 2.659 0 0 1 1.371 1.361c.134.303.201.622.201.958 0 .35-.067.676-.202.978a2.567 2.567 0 0 1-2.38 1.523c-.362 0-.702-.064-1.018-.192a2.426 2.426 0 0 1-.816-.534 2.621 2.621 0 0 1-.545-.797 2.38 2.38 0 0 1-.202-.978c0-.336.068-.655.202-.958.134-.302.316-.571.545-.806.228-.236.5-.42.816-.555a2.574 2.574 0 0 1 1.019-.202zm-.04-.685c-.443 0-.86.084-1.25.252-.39.168-.726.396-1.008.685a3.36 3.36 0 0 0-.676 1.009 3.053 3.053 0 0 0-.252 1.24c0 .444.084.857.252 1.24.168.384.393.716.676.999a3.2 3.2 0 0 0 2.258.927c.444 0 .857-.084 1.24-.252a3.36 3.36 0 0 0 1.009-.675c.289-.283.518-.615.686-.999.168-.383.252-.796.252-1.24 0-.444-.084-.857-.252-1.24a3.268 3.268 0 0 0-1.694-1.694 3.053 3.053 0 0 0-1.24-.252zm4.687-1.196h13.17V2.25h-9.878l-3.292 2.378M28.53 2.981v.915l-10.164.046 1.018-.96h9.146zm-5.852 9.898c.805 0 1.814.414 2.302.902.426.426.482.992.498 1.518h-5.576c.015-.526.071-1.092.498-1.518.488-.488 1.472-.902 2.278-.902zm0-.451c-.956 0-1.984.441-2.587 1.044-.618.618-.688 1.432-.688 2.04v.238h6.55v-.237c0-.61-.047-1.423-.665-2.04-.603-.604-1.655-1.045-2.61-1.045zm9.335-6.948q.126 0 .26.121.37.53.45 1.591-.176.788-.867 1.398-.482-.353-.482-1.237 0-.884.305-1.64.159-.233.334-.233zm3.524 3.463q.561 0 .561.531-.031.547-.457.547h-.025q.048-.547-.113-1.077h.034zm-1.239-3.47q.032.37-.209 1.109-.112.61-.08 1.253.048.209.257.41.209.2.546.634.225.402.225.949 0 .385-.417 2.458-.065.466-.241.466h-1.447q-.16 0-.24-.45-.419-2.089-.419-2.458 0-.563.225-.965.338-.433.547-.634.209-.201.257-.394.032-.659-.08-1.27-.241-.755-.21-1.108zm-2.764-.756q-.771 1.125-.771 2.475t.578 2.41l.772 2.829q.225.852.466.852h2.153q.257 0 .466-.852.418-1.495.498-1.848.82-.37.836-1.109 0-.37-.145-.627-.144-.257-.618-.337-.474-.08-.603-.225-.45-.498-.578-1.093.08-1.06.594-1.72.466 0 .466-.385 0-.37-.45-.37z"/><path d="M8.22.375c-9.625 0-9.625 17.25 0 17.25m0-17.25h28.312M8.22 17.625h28.312M44.22.375v17.25M36.532.375c9.625 0 9.625 17.25 0 17.25" fill="none" stroke="#000"/></svg>