<svg xmlns="http://www.w3.org/2000/svg" width="58.529" height="18"><path d="M11.386 8.203c-.51.04-.793.296-.847.767.067.51.35.78.847.806.498-.026.76-.295.787-.806-.04-.47-.303-.726-.787-.767zm.06-1.694c.364 0 .7.068 1.01.202a2.659 2.659 0 0 1 1.371 1.361c.134.303.201.622.201.958 0 .35-.067.676-.202.978a2.567 2.567 0 0 1-2.38 1.523c-.362 0-.702-.064-1.018-.192a2.426 2.426 0 0 1-.816-.534 2.621 2.621 0 0 1-.545-.797 2.38 2.38 0 0 1-.202-.978c0-.336.068-.655.202-.958.134-.302.316-.571.545-.806.228-.236.5-.42.816-.555a2.574 2.574 0 0 1 1.019-.202zm-.04-.685c-.443 0-.86.084-1.25.252-.39.168-.726.396-1.008.685a3.36 3.36 0 0 0-.676 1.009 3.053 3.053 0 0 0-.252 1.24c0 .444.084.857.252 1.24.168.384.393.716.676.999a3.2 3.2 0 0 0 2.258.927c.444 0 .857-.084 1.24-.252a3.36 3.36 0 0 0 1.009-.675c.289-.283.518-.615.686-.999.168-.383.252-.796.252-1.24 0-.444-.084-.857-.252-1.24a3.268 3.268 0 0 0-1.694-1.694 3.053 3.053 0 0 0-1.24-.252zm5.937-.344q.126 0 .26.121.37.53.45 1.591-.177.788-.868 1.398-.482-.353-.482-1.237 0-.884.306-1.64.159-.233.334-.233zm3.524 3.463q.56 0 .56.531-.03.547-.457.547h-.024q.048-.547-.113-1.077h.034zm-1.239-3.47q.032.37-.209 1.109-.112.61-.08 1.253.048.209.257.41.209.2.546.634.225.402.225.949 0 .385-.418 2.458-.064.466-.24.466h-1.447q-.16 0-.24-.45-.419-2.089-.419-2.458 0-.563.225-.965.338-.433.547-.634.209-.201.257-.394.032-.659-.08-1.27-.242-.755-.21-1.108zm-2.764-.756q-.771 1.125-.771 2.475t.578 2.41l.772 2.829q.225.852.466.852h2.153q.257 0 .466-.852.418-1.495.498-1.848.82-.37.836-1.109 0-.37-.145-.627t-.619-.337q-.474-.08-.602-.225-.45-.498-.579-1.093.08-1.06.595-1.72.466 0 .466-.385 0-.37-.45-.37zm8.27-1.919v11.578l-1.194-1.78V2.798zm-1.772-.548v10.512l1.99 2.988c.044-.015.082-.015.12-.015.052 0 .09.007.12.007.015 0 .03 0 .037-.015V2.25zm12.631.293a.865.865 0 0 1-.156.54c-.116.176-.369.265-.759.265v-.019c.354-.036.591-.13.713-.283a.885.885 0 0 0 .202-.503zm-4.885.548c.305 0 .543.08.714.238l-.183.092c-.113-.165-.256-.247-.43-.247a.613.613 0 0 0-.1.009 5.41 5.41 0 0 1-.589.042c-.111 0-.196-.008-.253-.024.402-.073.683-.11.841-.11zm-2.853-.567c.012.025.058.11.137.256.08.147.265.22.558.22.305 0 .597.061.878.183.28.122.476.183.585.183l.695-.073c.183 0 .318.067.403.2l-.128.056a.822.822 0 0 0-.447-.132c-.106 0-.216.02-.33.059-.287.097-.498.146-.632.146-.11 0-.262-.061-.457-.183-.134-.183-.33-.274-.585-.274-.33 0-.543-.122-.64-.366h-.037l-.019.018c0 .122.129.25.385.384.463.037.695.086.695.147h-.458c-.231 0-.408-.074-.53-.22-.122-.146-.159-.348-.11-.604zm7.664.019c0 .341-.189.54-.567.594-.378.055-.686.15-.923.284-.18.101-.344.152-.489.152a.567.567 0 0 1-.133-.015 3.216 3.216 0 0 0-.723-.064c-.268 0-.537.134-.805.402h-.018c.305-.353.591-.53.86-.53.414 0 .762-.08 1.042-.238.215-.121.4-.182.558-.182a.53.53 0 0 1 .137.017 2.027 2.027 0 0 0 .595.064c.213-.006.363-.167.448-.484zm-4.847 1.445c-.17.036-.256.116-.256.238 0 .048.036.073.11.073.207-.037.31-.098.31-.183-.036-.086-.091-.128-.164-.128zm1.116.073v.348h-.019v-.33l.019-.018zm.128-.037v.385h-.055V4.06l.055-.037zm-.256.092v.33h-.019c-.353.145-.61.228-.768.246a.698.698 0 0 1-.08.005c-.118 0-.207-.035-.267-.106 0-.036.158-.115.475-.237.207-.159.427-.238.659-.238zm.713-1.061c.17 0 .384.055.64.165v.036c-.463 0-.783.089-.96.265-.177.177-.29.296-.338.357l.073.092c-.33.012-.61.103-.842.274-.378.11-.567.232-.567.366 0 .146.153.22.457.22.135 0 .296-.043.485-.129a1.58 1.58 0 0 1 .503-.146c.025.293-.036.445-.183.457-.28.232-.42.464-.42.695a.424.424 0 0 1-.103.014c-.14 0-.24-.087-.3-.26-.073-.214-.25-.32-.53-.32h-1.08v-.019l.293-.201c.012-.049-.006-.073-.055-.073l-.31.2a.175.175 0 0 1-.056-.127c0-.037.025-.055.074-.055h.164c.037 0 .058-.021.064-.064.006-.043-.003-.064-.027-.064h-.201a.164.164 0 0 1 .11-.092c.377-.329.67-.512.877-.548.122-.171.269-.257.44-.257h.073a.51.51 0 0 0-.44.293c-.012.037-.003.055.028.055h.082c.11-.159.232-.244.366-.256.256-.024.384-.043.384-.055.012-.037 0-.06-.036-.073l-.22.018v-.018a.453.453 0 0 0 .165-.092c.158-.012.366-.103.622-.274.292-.256.549-.384.768-.384zm-1.267 2.972c.046 0 .084.034.115.101l-.275 1.848h-.31l.31-1.848c.061-.067.115-.1.16-.1zm1.596-2.186c.415 0 .805.305 1.171.915.366.61.549 1.354.549 2.232v.988h-.823l-.128-.988c0-.354-.214-.53-.64-.53-.427 0-.64.182-.64.548l-.202.97h-.713l.274-2.378c.012-.147.116-.3.31-.458.172 0 .257-.134.257-.402v-.714a.982.982 0 0 1 .585-.183zm.128 2.946c.208 0 .311.073.311.22l.147 1.28c.048 1.45-.256 3.713-.915 6.786l.384.238h-5.012l1.043-.457-1.427-3.878c-.084-.527-.001-.79.247-.79.114 0 .263.056.448.168l2.36 3.164.402-.22c.134-2.353.33-4.024.586-5.011h.878l.22-1.28c0-.147.109-.22.328-.22zm2.763-4.537c-.098 0-.165.067-.202.201-.077.265-.18.398-.307.398a.199.199 0 0 1-.04-.004 10.472 10.472 0 0 1-.558-.138.704.704 0 0 0-.185-.024c-.178 0-.372.063-.583.189a.94.94 0 0 1-.48.15.698.698 0 0 1-.316-.077 1.571 1.571 0 0 0-.64-.146c-.208 0-.452.116-.732.347-.22-.195-.5-.292-.842-.292-.146 0-.487.048-1.024.146a2.552 2.552 0 0 0-1.11-.218c-.289 0-.464-.086-.527-.258-.063-.171-.14-.257-.229-.257l-.018.001c-.11.025-.165.183-.165.476 0 .183.061.363.183.54.122.176.342.265.659.265h.494c.231.183.426.274.585.274a.831.831 0 0 0 .07.003c.128 0 .273-.028.433-.085.19-.067.345-.1.467-.1.121 0 .225.011.31.036l-.073.018a1.603 1.603 0 0 0-.154-.008c-.293 0-.491.094-.596.283-.244.073-.5.237-.768.493-.17.074-.256.183-.256.33a.227.227 0 0 0-.073.164c0 .061.049.122.146.183 0 .073.024.116.073.128l-.073.293h.622l-.073-.238c.121-.007.23-.011.327-.011.372 0 .568.055.588.167.024.14.121.265.292.375-.134.158-.201.366-.201.622l-.293 1.81h.622c-.17.866-.36 2.33-.567 4.39h-.018l-1.94-2.615c-.202-.276-.445-.415-.727-.415-.14 0-.291.035-.452.104-.482.207-.625.598-.43 1.17.085.171.537 1.41 1.354 3.714h-.019l-1.17.512.073.604h6.805l-.933-.97c.475-2.268.768-4.432.878-6.493h.951v-1.3c0-.585-.1-1.185-.302-1.801-.2-.616-.533-1.076-.997-1.381.269 0 .458-.043.567-.128.11-.086.3-.153.567-.201.125.015.24.022.342.022.309 0 .518-.068.628-.205.17-.256.256-.482.256-.677 0-.244-.073-.366-.22-.366zm1.764 4.793V8.36h2.907V7.043h-.57c-.166.293-.355.483-.569.57a.818.818 0 0 1-.635 0c-.21-.087-.397-.277-.563-.57zM39.52 2.25v2.183h-.66v2.67h.712V5.43h.826V3.14h1.02c.182 1.424.677 2.481 1.484 3.174.806.692 1.803 1.093 2.99 1.204 1.186.11 1.965.267 2.337.468.371.202.557.406.557.611h1.448c-.222-.53-.518-.933-.89-1.21-.372-.277-1.062-.45-2.07-.522-1.009-.071-1.816-.203-2.42-.397a3.858 3.858 0 0 1-1.62-1.032c-.475-.495-.839-1.557-1.092-3.186zm-.266 11.678l-1.542 1.822h.752l.79-.942.797.942.774-.942.798.942.79-.942.797.942.79-.942.796.942.775-.942.797.942.798-.942.774.942.797-.942.79.942h.752l-1.542-1.822-.797.88-.774-.88-.798.88-.797-.88-.775.88-.797-.88-.79.88-.797-.88-.79.88-.797-.88-.774.88-.797-.88z"/><path d="M8.22.375c-9.625 0-9.625 17.25 0 17.25m0-17.25h42.059M8.22 17.625h42.059M57.966.375v17.25M50.279.375c9.625 0 9.625 17.25 0 17.25" fill="none" stroke="#000"/></svg>