<svg xmlns="http://www.w3.org/2000/svg" width="65.663" height="18"><path d="M8.22 5.173v7.654h.64v-7h6.776v6.316l-2.616.015-.014-4.295h-.67v4.964h3.954V5.173zm13.097 3.508l.711 1.66q-.355.119-.711.119t-.711-.119l.711-1.66zm0-1.304l-1.556 3.409q.726.326 1.556.326.83 0 1.556-.326l-1.556-3.409zm2.104-1.096q.119 2.445.697 4.623-.712.8-2.801.8-2.09 0-2.8-.8.577-2.178.696-4.623zm-5.098-.652q-.355 0-.355.326t.355.326q.09.074.282.163-.118 2.163-.815 4.86 1.304 1.067 3.527 1.067t3.527-1.067q-.697-2.697-.815-4.86.193-.09.281-.163.356 0 .356-.326t-.356-.326zm12.739 2.89c1.02 1.145 1.864 2.453 2.617 3.781.158.195-.02.374-.15.559-.496-1.575-1.638-2.79-2.467-4.34zm-.987-5.783c.085.396-.071.854-.372.989l.096.205c.376-.178.737-.713.79-1.193.514.03.654.417.734.865.097.307 0 1.05.387 1.179 1.147.444 2.024.957 2.81 1.734 1.359 1.698 2.778 3.342 4.135 5.042.528.662 1.01 1.268 1.402 1.725-2.062-1.542-4.366-2.72-6.626-3.946-1.202-.652-2.348-1.186-2.348-2.623 0-.773 1.424-1.42 1.366-1.521-.006-.01-.022-.013-.048-.013-.292 0-1.789.555-1.789 1.725 0 .324.087.625.238.905h-.007c-1.641-.87-1.38-2.63-1.317-4.18-.682-.038-1.244-.41-1.892-.565.503-.065 1.003-.15 1.507-.201a.4.4 0 0 0-.238.15c-.009.166.178.239.36.239.179 0 .352-.07.335-.19a.457.457 0 0 0-.39-.206c.25-.036.584-.09.867-.12zm2.867 9.977c.147.357.223.736.307 1.11.239-.193.47-.392.667-.628-.128.694-.367 1.395-.945 1.395-.35 0-.512-.237-.288-.954.106-.338.19-.66.26-.923zm-.628-3.438c2.34 1.247 4.658 2.506 6.871 3.969.522.422.986.893 1.3 1.334-.208.324-.605.435-.972.46-1.874-.066-2.607-1.872-3.597-3.162l-.538-.654.093.838c.006.15.16.864-.07.864a.17.17 0 0 1-.067-.016l-.947-1.134c-.101.067-.197.143-.301.205-.47-.95-1.157-1.836-1.772-2.704zm-2.02-7.025c-.492 0-.996.088-1.474.133-.57.278-1.147.066-1.745.283-.431.194-.552.587-.731.98.254-.085.486-.12.704-.12.696 0 1.257.351 1.993.538-.001.37-.06.788-.087 1.21-.114 1.145.49 2.15 1.361 2.865.625 1.39 1.489 2.457 2.12 3.542-.076.488-.53 2.327-.753 2.988a8.341 8.341 0 0 1-1.365.115 7.003 7.003 0 0 1-.593-.024c-.355 0-.744.606-1.127.93l7.772.06c-.199-.7-1.58-1.072-2.07-1.072a.685.685 0 0 0-.076.003c.174-.495.39-.96.451-1.653.217.195.46.404.764.426.371-.028.522-.281.569-.612.84 1.39 1.781 2.526 3.506 2.693.596-.029 1.339-.29 1.5-.923.79-.044.21-.815-.083-1.116-2.151-2.33-3.927-4.988-6.053-7.334-.819-.808-1.743-1.354-2.888-1.807-.086-.21-.113-.507-.169-.835-.06-.357-.251-.942-.6-1.124a2.667 2.667 0 0 0-.926-.146zM47.68 6.225q.216 0 .3.216-.107-.042-.182-.042-.161 0-.184.191-.032.34-.183.34h-.007q-.158-.008-.224-.14 0-.1.249-.332.116-.233.232-.233zm.238.297q.061 0 .061.085-.03.334-.256.334-.02 0-.042-.003v-.033l.066-.149q.016-.233.133-.233h.016l.022-.001zm-1.477.188q-.15 0-.278.087-.157.108-.09.374h.066q.016-.166.1-.274.082-.108.273-.108.19 0 .19-.05l-.19-.024q-.036-.005-.07-.005zm-.004.146q-.199 0-.199.281v.1q.017.003.03.003.056 0 .07-.053.281-.066.414-.232-.116-.1-.315-.1zm-.298.43q-.083.117-.017.29.066.175.83.241l.115-.05q-.962-.066-.862-.447l-.066-.033zm1.077-.795q-.215.149-.165.381.033.1.199.166.149.066.116.348.033.614-.514.945-.083-.199-.324-.215l-.044-.002q-.206 0-.296.143-.07.11-.164.11-.04 0-.084-.02-.028.008-.051.008-.15 0-.165-.272.166-.017.232-.067.067-.05.249-.116-.08-.092-.166-.092-.037 0-.075.018-.124.058-.257.09-.281-.049-.215-.281-.166-.183-.116-.315.365-.232.605-.44.24-.207.539-.248.298-.042.696-.141zm.979-.15q.43.034.912.49.48.456.564.937-.896 1.31-2.537 2.089-.067-.697.232-1.393.547-.497.48-.837-.066-.34.216-.456.63-.116.133-.83zm6.084 2.801l.051.002q.746.133 1.36.671.613.54.879 1.335.05.083-.365.083-1.741-.73-2.205-1.476-.206-.615.28-.615zm-4.426-.827q1.033.99 2.635.99.274 0 .565-.028.03-.01.057-.01.242 0 .242.805-1.642.73-2.587.796-.28.02-.568.02-.684 0-1.414-.11-.157-.025-.292-.025-.751 0-.794.746-.696-.83-.497-1.128 1.641-.73 2.653-2.056zM47.833 5.9l-.078.001q-.754.025-.804.307-.298.116-.555.19-.257.075-.481.274-.224.2-.498.357-.273.157-.323.273-.083.183.15.398 0 .183.165.299.033 0 .075.282.041.281.306.414.332-.05.432-.19.084-.12.217-.12.023 0 .048.003.166.025.249.274-.067.249-.191.879-.125.63 0 .928.124.299-.44.672-.43.285-1.178.285-.233 0-.496-.028-.576-.16-.926-.16-.376 0-.492.185-.224.356.041.622h.647q1.488.053 2.521.053 2.487 0 2.33-.31-.18-.353.292-.353.116 0 .271.021.244.033.535.033.65 0 1.538-.166 1.285-.24 1.675-.447.25-.133.54-.133.163 0 .338.041.49.117.59.415-.217.398-.753.398-.246 0-.558-.083-.522-.14-.857-.14-.303 0-.453.115-.315.24-.033.572h5.39q.546-.497.231-1.152-.315-.655-1.06-1.244-.747-.588-1.643-1.07.234-.204.452-.204.277 0 .527.329.263.345.445.345.129 0 .218-.17-.59-1.058-1.233-1.058-.042 0-.085.004-.688.075-1.252.771-.683.172-1.272.172-1.286 0-2.127-.818-.465-1.178-1.111-1.634-.614-.432-1.324-.432z"/><path d="M8.22.375c-9.625 0-9.625 17.25 0 17.25m0-17.25h49.193M8.22 17.625h49.193M65.1.375v17.25M57.413.375c9.625 0 9.625 17.25 0 17.25" fill="none" stroke="#000"/></svg>