<svg xmlns="http://www.w3.org/2000/svg" width="52.532" height="18"><path d="M9.928 2.25L8.22 4.269h.833l.875-1.043.883 1.043.858-1.043.883 1.043.875-1.043.883 1.043.875-1.043.884 1.043.858-1.043.883 1.043.883-1.043.858 1.043.884-1.043.874 1.043h.833L20.435 2.25l-.884.976-.858-.976-.883.976-.883-.976-.858.976-.884-.976-.875.976-.883-.976-.875.976-.883-.976-.858.976-.883-.976zm-.449 6.663q-.08 0-.155.024-.293.095-.259.285.03.16.263.16.042 0 .091-.005.32-.034.56-.258-.269-.206-.5-.206zm.15-.174q.622 0 1.92.742.652.337 1.43.337.374 0 .779-.078 1.018-.207 2.14-.363.38-.052.737-.052.694 0 1.298.2.914.301 1.518.387.604.086 1.915.155-.845.087-1.656.087-.811 0-1.915-.181-.552-.091-1.063-.091-.511 0-.982.09-.94.182-2.139.337-.3.039-.59.039-.868 0-1.644-.35-.754-.514-1.566-.514-.358 0-.728.1-.328-.017-.294-.362.19-.466.811-.483h.028zm.46-1.76q-.373 0-.696 1.139-.27-1.006-.697-1.006-.064 0-.131.023-.518.327.345 1.26-.69.396-.69 1 0 .603 1.018.672.315-.082.615-.082.703 0 1.326.453.533.389 1.69.389.772 0 1.82-.173 1.289-.363 2.504-.363.462 0 .912.053 1.127.13 1.92.13.36 0 .65-.027 1.467-.034 1.467-.276-.397-.362-1.121-.483-1.536-.017-2.804-.535-.634-.259-1.554-.259-.921 0-2.129.26-.779.196-1.45.196-.92 0-1.638-.37-.742-.448-1.57-.741.69-.535.647-.889-.043-.353-.423-.37h-.01zm11.621 7.645zm-.003.152zm-11.813-.58v.896c-.133-.062-.264-.119-.388-.18a1.246 1.246 0 0 0-.357-.1c-.101-.015-.207-.026-.302-.045a.352.352 0 0 1-.15-.054c-.012-.01-.021-.023-.021-.07 0-.047.009-.06.02-.069a.352.352 0 0 1 .151-.054c.095-.02.2-.03.302-.046.129-.02.253-.048.357-.1.124-.06.255-.118.388-.179zm0 .896zm.455.064zm8.261-1.027c.088 0 .177 0 .265.003.495.011 1.237.13 1.851.283.304.076.575.16.769.243l.082.037-.073.03a5.389 5.389 0 0 1-.768.203c-.617.125-1.362.215-1.86.227l-.266.003c-.896 0-1.79-.102-2.683-.206-.954-.11-1.907-.224-2.865-.224l-.146.001c-.838.01-1.8.104-2.567.427V14.13c.767.323 1.73.416 2.567.426l.146.001c.958 0 1.911-.112 2.865-.223.893-.104 1.787-.206 2.683-.206zm-8.436-.592l-.11.063c-.254.146-.521.249-.76.366a.8.8 0 0 1-.224.058c-.11.017-.222.028-.325.05a.79.79 0 0 0-.35.15.523.523 0 0 0-.185.42c0 .182.069.322.185.419a.79.79 0 0 0 .35.15c.103.021.216.033.325.05a.8.8 0 0 1 .225.058c.238.117.505.22.76.366l.109.063.111-.06c.738-.396 1.767-.495 2.637-.505l.141-.001c.94 0 1.876.112 2.812.22.911.107 1.823.21 2.737.21.091 0 .183-.001.274-.003a12.347 12.347 0 0 0 1.941-.237c.327-.066.622-.142.837-.223.12-.045.22-.093.292-.143a.51.51 0 0 0 .117-.109.325.325 0 0 0 .07-.197.33.33 0 0 0-.067-.194.535.535 0 0 0-.113-.111 1.434 1.434 0 0 0-.289-.158 5.812 5.812 0 0 0-.837-.265c-.647-.162-1.422-.285-1.951-.298a11.625 11.625 0 0 0-.274-.003c-.914 0-1.826.103-2.737.21-.936.108-1.872.22-2.812.22l-.141-.001c-.87-.01-1.899-.109-2.637-.505l-.11-.06zm15.618-7.544c-.084 0-.167.008-.25.015-1.208.13-2.066 1.352-1.876 2.536.083.881.63 1.375 1.23 1.86 1.784 1.094 1.283.692 3.083 1.603l.288-.54c-2.141-1.002-2.4-1.161-3.067-1.601-.547-.44-.98-.927-.942-1.663-.015-.509.289-1.033.63-1.284a1.64 1.64 0 0 1 .965-.326c.258 0 .5.06.713.213.54.265.836 1.146.44 1.7a1.047 1.047 0 0 1-.835.448.773.773 0 0 1-.455-.144c-.273-.152-.478-.683-.198-.98-.129-.136-.31-.303-.448-.303-.09 0-.159.068-.205.228-.303.729.183 1.556.912 1.754.129.038.258.06.387.06.835 0 1.61-.698 1.61-1.564.076-1.01-.73-1.936-1.74-1.997a2.454 2.454 0 0 0-.242-.015zM37.025 3.04q2.556 0 5.421 1.235-2.865 1.2-5.421 1.2-2.54 0-5.422-1.2 2.882-1.236 5.422-1.236zm0-.79q-3.157 0-7.258 2.007 4.1 1.99 7.258 1.99 3.157 0 7.257-1.99Q40.2 2.25 37.025 2.25zm-6.517 5.76q.19 0 .397.192.334.309.53.655.194.346.194.585-.226-.012-.579-.201-.352-.189-.66-.529-.31-.34-.108-.63.11-.071.226-.071zm5.301 1.445q.264.15.416.44.15.29.176.611.025.321-.114.648-.29-.214-.434-.503-.145-.29-.157-.61-.013-.322.113-.586zm-2.971 1.498q.642.982.957 1.637.314.654.233 1.599-.082.944-1.19 1.045-1.108-.089-1.19-1.04-.082-.95.233-1.604.315-.655.957-1.637zm-2.362-3.386q-.238 0-.483.226-.29.315-.208.617.082.302.302.566.22.265.523.479.302.214.868.428.491.138.856.667 0 .227-.598 1.14-.598.912-.686 1.95-.088 1.04.447 1.58.523.53 1.304.53h.073q.782 0 1.298-.53.53-.54.447-1.58-.081-1.038-.68-1.95-.598-.913-.635-1.366.642-1.108 1.39-1.473.189-.092.314-.092.374 0 .19.815-.245 1.09.875 2.26.315.554.567 1.587l.063.49q.126.055.238.055.224 0 .391-.218l-.201-.466q-.302-1.02-.315-1.65.177-1.308-.019-1.812-.195-.504-.768-1.114-.424-.452-.976-.452-.193 0-.402.055-.806.214-1.813 1.788-.592-.353-.768-.818-.202-.567-.416-.87-.214-.301-.478-.522-.264-.22-.566-.302-.067-.018-.134-.018zm10.979 5.703c.695 0 1.566.358 1.987.78.369.368.417.857.43 1.31h-4.814c.013-.453.062-.942.43-1.31.421-.422 1.271-.78 1.967-.78zm0-.388c-.825 0-1.713.38-2.233.901-.534.534-.594 1.236-.594 1.762v.205h5.654v-.205c0-.526-.04-1.228-.573-1.762-.52-.52-1.429-.901-2.254-.901z"/><path d="M8.22.375c-9.625 0-9.625 17.25 0 17.25m0-17.25h36.062M8.22 17.625h36.062M51.97.375v17.25M44.282.375c9.625 0 9.625 17.25 0 17.25" fill="none" stroke="#000"/></svg>