<svg xmlns="http://www.w3.org/2000/svg" width="60.045" height="18"><path d="M20.088 6.995c.706.03 1.093.046 1.26.046h.076l-.09 3.69a5.414 5.414 0 0 1-1.405-.835l.16-2.9zM9.792 6.077c-.236.045-.547.19-.509.47v2.058A39.352 39.352 0 0 0 8.22 8.56c0 .258.213.607.873.607.008.585.114 1.298.22 1.663l.092.957c0 .106.182.136.38.136.235 0 .493-.045.493-.045l-.038-.957c3.75.03 10.904.22 11.26.22.183 0 .304-.197.304-.47l.091-4.124-2.255-.022-.182 3.212c-1.633.007-4.457.273-6.378.273-.608 0-1.132-.023-1.489-.099-.076-.083-.782-1.108-1.23-1.222a1.97 1.97 0 0 0-.265-.03c-.076-.623-.152-1.246-.22-1.861.136-.175.447-.13.53-.364.084-.114.031-.304-.128-.312-.091-.038-.342-.045-.448-.045zm15.86-3.472c.52 0 .936.15 1.226.36.005.04.015.08.007.12a.8.8 0 0 1-.297.472c-.237.155-.523.2-.793.268-.067.006-.014.023.024.029a5.534 5.534 0 0 0 .767.074 1.22 1.22 0 0 0 .574-.234c.06-.05.11-.112.154-.177.11.26.17.535.195.688a.22.22 0 0 0 .152.175c.853.261 1.528 1.432 2.16 2.212 1.296 1.602 2.399 3.394 3.668 5.07-.702-.342-1.402-.688-2.107-1.03-1.44-.759-2.94-1.363-4.203-2.318l-.006-.006c-.728-.606-1.472-1.245-1.754-2.095-.111-.69 1.318-1.933 1.157-1.985a.156.156 0 0 0-.048-.007c-.345 0-1.316.846-1.515 1.652-.002-.011-.008-.024-.01-.034-.055-.267-.116-.942.05-1.485a.218.218 0 0 0 .009-.077 1.476 1.476 0 0 0-.093-.476c-.048-.127-.104-.258-.196-.574-.023-.08-.106-.246-.155-.258.14-.104.28-.211.484-.282a.326.326 0 0 0-.1.235c0 .173.123.312.274.312.15 0 .273-.14.273-.312V2.92a.308.308 0 0 0-.19-.292c.039-.005.07-.014.115-.017.06-.004.12-.006.178-.006zm.503 5.822c.049.05.101.094.151.141.161.585.31 1.23.52 1.729.362.859.911 1.606 1.38 2.365a1.36 1.36 0 0 0-.289.202 5.123 5.123 0 0 0-.15.145 1.958 1.958 0 0 0-.889-.673c.034-.542-.08-1.283-.254-2.09a26.177 26.177 0 0 0-.469-1.819zm.755.682c.861.709 1.82 1.304 2.757 1.905-.014.682-.013 1.333.063 2.006a2.558 2.558 0 0 0-1.078-.552c-.015 0-.028.01-.043.01-.486-.798-1.037-1.545-1.377-2.352a8.347 8.347 0 0 1-.322-1.017zm.305 3.94c.123.115.234.247.33.406a.225.225 0 0 0 .193.106c.045 0 .09-.014.127-.04.161-.118.26-.244.357-.335a1 1 0 0 1 .111-.088l.112 2.041c-.16-.01-.326-.026-.478-.026-.198 0-.371.027-.475.13-.126-.101-.372-.124-.668-.124-.075 0-.155.001-.236.004l.627-2.074zm.868-3.619c1.016.59 2.088 1.061 3.102 1.594l.004.002c.971.474 1.94.961 2.92 1.428.739.892 1.54 1.721 2.31 2.566l-1.613.27c-1.067-1.159-2.134-2.315-3.2-3.475a.216.216 0 0 0-.028-.027c-1.124-.853-2.364-1.562-3.495-2.358zm-2.381-7.18a4.59 4.59 0 0 0-.308.01c-.814.053-1.405.395-1.607.858-.03.07-.109.235-.005.235a1.763 1.763 0 0 1 .256-.021c.313 0 .285.129.353.146.067.211.217.635.227.8-.183.646-.115 1.323-.048 1.65.112.548.472 1.187.946 1.784a.214.214 0 0 0 0 .125 26.3 26.3 0 0 1 .677 2.502c.188.875.294 1.707.237 2.117a.22.22 0 0 0 .167.246c.033.009.062.024.094.034l-.696 2.309a2.135 2.135 0 0 0-.444-.041c-.286 0-.567.037-.798.037a1.11 1.11 0 0 1-.255-.024.41.41 0 0 0-.094-.009c-.327 0-1.071.23-1.006.66.114-.096.194-.12.282-.12.083 0 .173.02.304.02h.02c.19-.003.523-.062.79-.062.135 0 .253.015.329.06.177-.007.336-.01.486-.01.637 0 1.085.053 1.875.057.591-.006 1.648-.03 2.231-.06.337.003.522.041.691.041h.03c.1-.003.199-.043.36-.043.092 0 .205.013.35.053-.186-.256-.656-.514-.997-.514a.443.443 0 0 0-.226.054 3.81 3.81 0 0 0-.381-.017c-.164 0-.335.007-.508.015l-.118-2.122c.365.152.642.387.96.765a.222.222 0 0 0 .386-.185c-.145-.779-.16-1.513-.152-2.294.405.265.804.534 1.182.82l3.27 3.554a.217.217 0 0 0 .197.067c.712-.12 1.425-.236 2.137-.355a.22.22 0 0 0 .172-.145.224.224 0 0 0-.044-.223c-.556-.623-1.131-1.223-1.688-1.834.952.586 2.156 1.316 2.31 1.316.017 0 .02-.009.009-.029-.07-.122-.675-.567-1.331-1.03.104.043.206.09.311.132l.013.009c.077.025.12.043.202.046a.214.214 0 0 0 .082-.013.238.238 0 0 0 .14-.113.24.24 0 0 0 .017-.18c-.012-.037-.028-.057-.04-.073-.046-.063-.077-.08-.122-.115a3.415 3.415 0 0 0-.153-.112c-.115-.078-.253-.167-.37-.246a3.744 3.744 0 0 1-.267-.193l-2.919-2.053c-.006-.004-.014 0-.02-.004-1.001-1.401-1.942-2.869-3.035-4.22-.558-.69-1.2-1.896-2.24-2.298-.05-.297-.163-.846-.565-1.237-.342-.332-.837-.485-1.392-.519a4.296 4.296 0 0 0-.264-.008zm9.545.413q.488 0 .994.212l-.963.975-.987-.975q.469-.212.956-.212zm-2.106 1.275l.975.974-.975.976q-.425-1.013 0-1.95zm4.212.05q.425 1.012 0 1.95l-.975-.975.975-.975zm-.762-.825q.3.137.475.475l-1.325 1.337 1.312 1.313q-.162.325-.487.475L35.253 5.45l-1.287 1.288q-.325-.2-.475-.488l1.287-1.275-1.35-1.35q.138-.325.488-.462L35.253 4.5l1.338-1.337zm-1.313 2.9l.975.974q-.475.213-.962.213-.488 0-.988-.213l.975-.974zm-.025-3.813q-1.287 0-2.03.837-.745.838-.745 1.838 0 1.125.87 1.919.868.793 1.88.806 1.225-.013 1.994-.844.769-.831.769-1.881l-.013.025q.013-.95-.756-1.825t-1.969-.875zm10.404 1.077v.013c.513 0 .93.044 1.249.133-.337.576-.753 1.01-1.25 1.302-.504-.292-.92-.726-1.249-1.302.32-.097.736-.146 1.25-.146zm0 2.033v.013c.177 1.019.287 1.75.332 2.193.035.3.053.81.053 1.528 0 .478-.018.917-.053 1.315a5.015 5.015 0 0 1-.332 1.17v-.014c-.16-.38-.27-.77-.333-1.169-.035-.39-.053-.824-.053-1.302 0-.718.013-1.227.04-1.528a45.95 45.95 0 0 1 .346-2.206zM43.876 3.5l.359.239c.274.514.629.934 1.063 1.262-.301 1.683-.434 3.047-.399 4.093 0 1.267.164 2.25.492 2.95.07.07.16.106.266.106v.013h-4.585V4.47c.275-.293 1.21-.616 2.804-.97zm3.548.013c1.594.345 2.533.669 2.817.97v7.68h-4.584a.34.34 0 0 0 .265-.12c.32-.7.483-1.682.492-2.95.035-1.045-.102-2.409-.412-4.092a3.839 3.839 0 0 0 1.063-1.249l.359-.24zm-1.508-.883c.66 0 1.484.115 2.471.345 1.12.261 2.022.565 2.704.91v8.278h-.505V4.177a11.616 11.616 0 0 0-2.597-.923 10.563 10.563 0 0 0-2.332-.26l-.014-.013h-.097c-.682 0-1.422.089-2.221.266a12.28 12.28 0 0 0-2.598.917v8h-.518v-8.28c.69-.345 1.594-.649 2.71-.91.983-.23 1.805-.345 2.465-.345.09 0 .176.002.26.006h.013c.083-.004.17-.006.26-.006zm-.308 10.438l.988.809-.988.924-.988-.924.988-.809zm0-.307l-1.296 1.116 1.296 1.231 1.309-1.231-1.309-1.116zm5.004-.026c-1.162 1.572-2.832 2.38-5.01 2.425-2.161-.045-3.823-.853-4.985-2.425zM45.56 2.25c-.679 0-1.473.089-2.382.266-.952.186-2.061.527-3.328 1.024v8.623h-.359v.532h.336c1.216 2.029 3.143 3.047 5.781 3.055 2.647-.008 4.578-1.026 5.795-3.055h.392v-.532h-.345V3.54c-1.258-.488-2.363-.827-3.315-1.017-.872-.174-1.637-.261-2.297-.261-.061 0-.122 0-.181.002V2.25l-.097-.001z"/><path d="M8.22.375c-9.625 0-9.625 17.25 0 17.25m0-17.25h43.575M8.22 17.625h43.575M59.483.375v17.25M51.795.375c9.625 0 9.625 17.25 0 17.25" fill="none" stroke="#000"/></svg>