<svg xmlns="http://www.w3.org/2000/svg" width="70.103" height="18"><path d="M6.286.322q.06 0 .113.039.214.116-.136.564-.37.369-.457.622-.088.253-.185.67-.097.419-.428 1.197l-.447.136H3.132q.233-.506.544-.914.759-.7 1.128-.934.37-.233.593-.398.224-.166.477-.632.233-.35.412-.35zM5.27 3.939l-.311.68q-.454-.045-.84-.045-.775 0-1.28.182-.097-.661-.292-.817zm-2.237 1.42q-.37.02-.389.35.02.389.39.389.369 0 .388-.39-.02-.33-.389-.35zm.837-.33q.836 0 .972.777.136.778-.895 1.07.35.66 0 .836-.123.062-.24.062-.216 0-.411-.208-.302-.32-.535-.914-.233-.593-.7-.593h.33q-.213-.33-.155-.506l.034.002q.166 0 .219-.177.37-.35 1.38-.35zm1.147.057q.292 0 .836 1.255.545 1.254 1.77 2.314t1.974 2.577q.749 1.517 2.927 3.326-3.812-1.809-4.784-2.237-.973-.428-3.15-2.003-1.246-.914-1.246-1.459 0-.427.098-.739V8.1q.992 0 .992-.991 1.342-.661.583-2.023zm-.545 5.971q.37 1.77 1.829 3.91-.139.109-.302.109-.385 0-.904-.616 0-.972-.7-3.403zm.642.622q1.148.914 2.587 1.731v1.848q-.506-.39-1.011-.467-1.381-2.256-1.576-3.112zm.214 3.812q.265.336.546.336.255 0 .524-.277l.097 1.711q-.185-.041-.354-.041-.308 0-.56.138-.34-.113-.597-.113-.096 0-.18.016l.524-1.77zm.603-3.676l5.815 2.937q1.128 1.264 2.159 2.392v.02l-1.459.233-2.898-3.131q-.836-.68-3.617-2.45zM6.202 0h-.037q-.233.01-.486.4-.058.174-.243.388-.185.214-.535.428-.35.214-.505.34-.156.127-.525.458-.312.252-.448.408-.31-.194-.525-.476-.214-.282-.233-.516-.02-.233.048-.37.069-.135.214-.165.04-.008.08-.008.103 0 .202.057.136.078.117.272-.039.175-.253.214-.058-.025-.095-.025-.05 0-.06.045-.04.252.194.272l.05.002q.2 0 .33-.138.145-.156.126-.525Q3.482.652 3.19.613 3.137.606 3.084.606q-.237 0-.468.144-.282.175-.311.544-.03.37.263.749.291.379.641.632-.272.35-.564.875H1.81q.506.545.603 1.536h-.04q-.346 0-.29.331-.545.156-.545 1.03.181-.105.34-.105.044 0 .088.009.233 0 .379.544.146.545.632 1.206v.02q-.117.233-.117.738 0 .506.895 1.459.895 3.073.875 4.493 0 .175.253.213l-.642 2.14q-.052-.004-.106-.004-.272 0-.604.082-.19.046-.388.046-.219 0-.448-.056-.253-.062-.497-.062-.177 0-.349.033-.272.051-.432.051-.08 0-.132-.012-.506.116-.564.758.337-.194.514-.194.089 0 .138.048.145.146.573.146h5.66q.37 0 .583-.156.071-.051.169-.051.194 0 .492.207.02-.622-.66-.797-.386.143-.696.143-.238 0-.433-.085l-.097-1.925q.532.736.93.736.17 0 .315-.134-.137-1.186-.137-2.178l.545.33q.467.215 2.052 2.024 1.52 1.734 1.814 1.734.013 0 .024-.004l1.847-.389q.292-.097.117-.291L13.01 15.51q1.362.875 2.042 1.167-.33-.37-1.108-.934l.389.136q.233-.039.194-.37-3.384-2.45-4.298-4.22-.914-1.77-2.149-2.878-1.235-1.108-1.838-2.49-.37-.874-.758-1.186L7.293.633 6.866.399 5.854 2.597l.098-.447q.116-.467.252-.7.137-.234.273-.331.291-.428.291-.661 0-.234-.175-.35Q6.413 0 6.201 0zm6.662 1.88c-.404 0-.674.234-.67.606.006.404.277.637.67.637s.627-.234.621-.637c-.005-.373-.239-.606-.621-.606zM12.91.536c.266 0 .531.055.798.165.511.211.856.578 1.084 1.076.231.507.215 1.02 0 1.53-.215.506-.583.838-1.084 1.05a1.98 1.98 0 0 1-.778.16c-.275 0-.55-.056-.823-.16-.509-.193-.846-.567-1.075-1.05a1.797 1.797 0 0 1-.16-.774c-.001-.535.233-1.009.59-1.394.176-.19.394-.335.645-.438.27-.11.536-.165.802-.165zM12.847 0c-.703 0-1.256.244-1.752.741-.507.509-.723 1.062-.733 1.776a2.32 2.32 0 0 0 .247 1.108c.133.652.14 1.742-.037 1.742-.308 0-.132-.819-.147-1.074-.025-.435-.282-.805-.587-1.099-.07-.068-.148-.144-.25-.154a2.8 2.8 0 0 0-.294-.02.975.975 0 0 0-.333.051c-.076.027-.079.134-.054.204.026.072.074.148.157.158l.063.003c.101 0 .201-.025.303-.026h.013c.042 0 .09.004.12.035-.068.128-.162.252-.178.402a.393.393 0 0 0 .015.176c.199.55.32 1.813 1.145 1.813.156 0 .23-.032.28-.079.366-.34.372-.916.35-1.393.484.455 1.03.646 1.705.655h.039c.691 0 1.242-.256 1.737-.733.135-.13.249-.262.344-.401.022.472.045.948.218 1.392.137.35.441.604.768.778a.139.139 0 0 0 .056.019c.04 0 .016-.062-.03-.107a1.986 1.986 0 0 1-.484-.734c-.176-.481-.158-1-.147-1.502.007-.307.02-.615.002-.922h-.002c.01-.094.015-.191.016-.292.008-.72-.242-1.268-.74-1.776-.507-.515-1.06-.733-1.777-.74L12.847 0zm9.243 2.742c.03 0 .061.001.094.004.42.03.88.19 1.378.48-.499.309-.958.476-1.378.5a1.33 1.33 0 0 1-.079.003c-.366 0-.544-.168-.535-.504-.009-.322.164-.483.52-.483zm0 2.98c.03 0 .061.002.094.004.42.03.88.19 1.378.48-.499.31-.958.476-1.378.501a1.33 1.33 0 0 1-.079.003c-.366 0-.544-.168-.535-.504-.009-.322.164-.483.52-.483zm-.056-3.472l-.082.001c-.534.02-.831.345-.89.974.078.67.363 1.004.854 1.004h.021c.505-.01 1.211-.19 2.12-.54h8.657c.709.06 1.066.39 1.07.989.006.599-.351.963-1.07 1.093h-8.657c-.826-.36-1.5-.54-2.023-.54l-.082.001c-.534.02-.831.345-.89.974.078.669.363 1.003.854 1.003h.021c.505-.01 1.211-.19 2.12-.539h8.271c1.018 0 1.718-.319 2.1-.959.395-.659.395-1.318 0-1.977-.376-.63-1.062-.945-2.056-.945-.045 0-.091 0-.137.002h-8.178c-.826-.36-1.5-.541-2.023-.541zm10.591 7.107l.422.092a6.139 6.139 0 0 0-.476 1.782c.247.696 1.082.798 1.532 1.34-.884.762-2.815 1.611-4.636 2.141 1.312-.434 2.678-1.112 3.379-1.86.28-.356.023-.728-.21-1.025-.193-.243-.384-.503-.44-.642.24-.606.376-1.186.429-1.828zm-.498-.65c.001.843-.158 1.571-.454 2.361-.074.59.52.926.76 1.406-.73.77-2.7 1.691-4.175 2.029-.977.18-1.967.23-2.96.23-1.03 0-2.064-.054-3.09-.078a1.11 1.11 0 0 1-.1.004c-.123 0-.266-.014-.406-.014-.226 0-.442.036-.553.22-.156.483.576.536.886.586.463.078 1.104.154 1.817.21.57.06 1.141.089 1.71.089 3.19 0 6.309-.935 8.94-2.821a.474.474 0 0 0 .154-.344.555.555 0 0 0-.11-.308c-.382-.466-.949-.767-1.43-1.127.08-.739.372-1.418.698-2.077l-1.687-.367zm11.578-5.601v5.49h.918v-5.49zm7.545 7.416q.332 0 .332.347v2.668h-1.01l.332-2.81q.015-.205.347-.205zm.017-.426q-.805 0-.853.458-.331 2.983-.71 2.998l-7.324.269-.757-.032q-.853-.9-1.516-.9l-.489-.031q-1.341.252-1.61.252-.19 0-.19.253 0 .347.537.347.922-.147 1.414-.147.09 0 .165.005.268 0 .442.221-.308.381-1.378.381l-.169-.002q-1.215-.032-2.147-.316-.457 0-.457.537.047.49 3.425.505l1.5-.158 8.554-.047 2.4.031v-3.85q-.017-.774-.837-.774z"/><path d="M18.436.375v17.25m0-17.25h2.625m-2.625 17.25h2.625m0-17.25h31.042m-31.042 17.25h31.042m0-17.25h17.625m-17.625 17.25h17.625M53.866.375v17.25M57.39.375v17.25M59.153.375v17.25M60.916 2.1h8.812m-8.812 3.45h8.812M60.916 2.1v3.45m1.762-1.725h7.05m-8.812 3.45h8.812m-8.812 3.45h8.812m-8.812-3.45v3.45M62.678 9h7.05m-8.812 3.45h8.812m-8.812 3.45h8.812m-8.812-3.45v3.45m1.762-1.725h7.05" fill="none" stroke="#000"/></svg>