<svg xmlns="http://www.w3.org/2000/svg" width="55.057" height="18"><path d="M11.386 8.203c-.51.04-.793.296-.847.767.067.51.35.78.847.806.498-.026.76-.295.787-.806-.04-.47-.303-.726-.787-.767zm.06-1.694c.364 0 .7.068 1.01.202a2.659 2.659 0 0 1 1.371 1.361c.134.303.201.622.201.958 0 .35-.067.676-.202.978a2.567 2.567 0 0 1-2.38 1.523c-.362 0-.702-.064-1.018-.192a2.426 2.426 0 0 1-.816-.534 2.621 2.621 0 0 1-.545-.797 2.38 2.38 0 0 1-.202-.978c0-.336.068-.655.202-.958.134-.302.316-.571.545-.806.228-.236.5-.42.816-.555a2.574 2.574 0 0 1 1.019-.202zm-.04-.685c-.443 0-.86.084-1.25.252-.39.168-.726.396-1.008.685a3.36 3.36 0 0 0-.676 1.009 3.053 3.053 0 0 0-.252 1.24c0 .444.084.857.252 1.24.168.384.393.716.676.999a3.2 3.2 0 0 0 2.258.927c.444 0 .857-.084 1.24-.252a3.36 3.36 0 0 0 1.009-.675c.289-.283.518-.615.686-.999.168-.383.252-.796.252-1.24 0-.444-.084-.857-.252-1.24a3.268 3.268 0 0 0-1.694-1.694 3.053 3.053 0 0 0-1.24-.252zm8.447-2.554q-.067.126-.15.277l-.143.829q0 .436.143.812.15.327.376.587-1.516-.277-2.73-.41.762-.453 1.198-1.006.444-.552 1.306-1.088zm3.577-.067q.46.034 1.549.696 1.089.653 2.245 1.08-.846.05-1.843.36-1.005.302-2.11.452.175-.209.351-.594.168-.385.168-.821 0-.444-.16-.83-.083-.183-.2-.343zm-1.763-.385q.29 0 .556.117.285.118.503.319.218.192.352.469.109.276.125.594.017.319-.1.595-.126.276-.318.494-.201.226-.478.352-.276.117-.594.126h-.042q-.287 0-.553-.11-.285-.117-.503-.31-.209-.192-.335-.468-.117-.277-.134-.603 0-.31.118-.586.109-.277.301-.495.201-.226.478-.335.276-.15.586-.159h.038zm-.046-.568q-.548 0-1.081.116-1.156.251-2.345 1.5-1.19 1.239-2.086 1.322l-.016.587q2.035.176 3.995.536.733.134 1.541.134 1.355 0 2.923-.377 2.496-.603 3.166-.729h1.105v-.72h-1.139q-.812-.276-2.177-1.097-1.357-.821-2.588-1.114-.659-.158-1.298-.158zm1.296 9.57v.337h-5.812l.188-.338zm-6-.544L16.15 12.7h7.312v-1.425zm7.931-2.925q0 .788.206 1.453.207.666 3.187 1.247-.6 1.63-3.112 2.878-2.512 1.246-8.005 1.509l-.1.002q-.365 0-.181-.133 3.187-.394 6.224-1.247 3.037-.853 3.037-2.428 0-.862-2.137-1.481v-1.8zm-1.387-.544l.018 2.869q2.007.45 1.96.947-.047.496-.563.965-.515.469-2.38 1.088-1.866.618-4.116.974-2.25.357-2.287.507.15.58.487.58.504.013.99.013 3.254 0 5.684-.546 2.794-.629 4.294-2.128 1.5-1.5 1.237-2.325 0-.113-1.406-.413t-1.66-.684q-.252-.384-.308-1.847zM38.565 2.7c.805 0 1.812.414 2.3.901.426.427.482.992.498 1.517h-5.571c.015-.525.071-1.09.498-1.517.487-.487 1.47-.9 2.275-.9zm0-.45c-.954 0-1.982.441-2.584 1.043-.617.618-.687 1.43-.687 2.039v.237h6.543v-.237c0-.609-.047-1.421-.664-2.039-.602-.602-1.653-1.043-2.608-1.043zm7.08 5.243q.332 0 .332.347v2.665h-1.01l.331-2.807q.016-.205.347-.205zm.016-.426q-.804 0-.851.458-.331 2.98-.71 2.996l-7.317.268-.756-.032q-.852-.899-1.514-.899l-.49-.031q-1.34.252-1.607.252-.19 0-.19.252 0 .347.536.347.921-.146 1.413-.146.09 0 .164.004.268 0 .442.221-.308.38-1.377.38l-.168-.001q-1.215-.032-2.145-.316-.457 0-.457.536.047.49 3.421.505l1.498-.158 8.547-.047 2.397.032V7.84q-.016-.773-.836-.773zM32.345 13.36l-2.022 2.39h.986l1.036-1.235 1.046 1.235 1.016-1.235 1.046 1.235 1.036-1.235 1.045 1.235 1.036-1.235 1.046 1.235 1.016-1.235 1.046 1.235 1.046-1.235 1.016 1.235 1.045-1.235 1.036 1.235h.986l-2.022-2.39-1.045 1.155-1.016-1.155-1.046 1.155-1.046-1.155-1.016 1.155-1.046-1.155-1.036 1.155-1.045-1.155-1.036 1.155-1.046-1.155-1.016 1.155-1.046-1.155z"/><path d="M8.22.375c-9.625 0-9.625 17.25 0 17.25m0-17.25h38.587M8.22 17.625h38.587M54.495.375v17.25M46.807.375c9.625 0 9.625 17.25 0 17.25" fill="none" stroke="#000"/></svg>