<svg xmlns="http://www.w3.org/2000/svg" width="42.416" height="18"><path d="M9.6 2.25L8.22 3.882h.673l.707-.843.714.843.694-.843.714.843.707-.843.714.843.707-.843.714.843.694-.843.714.843.714-.843.693.843.714-.843.708.843h.673l-1.38-1.632-.715.789-.693-.789-.714.789-.714-.789-.694.789-.714-.789-.707.789-.714-.789-.707.789-.714-.789-.694.789L9.6 2.25zm1.148 3.138c.687 0 1.3.317 1.699.814H9.049a2.172 2.172 0 0 1 1.699-.814zm1.928 1.165c.131.25.216.527.241.823H8.579a2.17 2.17 0 0 1 .24-.823zm.243 1.173a2.166 2.166 0 0 1-.228.823H8.805a2.166 2.166 0 0 1-.228-.823zM12.47 8.9a2.173 2.173 0 0 1-1.721.842c-.7 0-1.323-.33-1.72-.842zm-1.721-3.863A2.531 2.531 0 0 0 8.22 7.565a2.531 2.531 0 0 0 2.528 2.528 2.531 2.531 0 0 0 2.528-2.528 2.531 2.531 0 0 0-2.528-2.528zm6.203 2.845c.62 0 1.397.319 1.773.694.328.329.371.765.383 1.17h-4.293c.012-.405.055-.841.383-1.17.376-.375 1.134-.694 1.754-.694zm0-.347c-.735 0-1.527.34-1.991.804-.476.476-.53 1.102-.53 1.571v.183h5.043V9.91c0-.469-.036-1.095-.512-1.571-.464-.464-1.274-.804-2.01-.804zm.768 4.42c.544.024.842.035.971.035h.059l-.07 2.842a4.17 4.17 0 0 1-1.082-.643l.122-2.234zm-7.928-.707c-.181.035-.42.146-.392.362v1.585c-.35-.018-.713-.035-.818-.035 0 .199.164.468.672.468.006.45.088 1 .17 1.28l.07.737c0 .082.14.105.292.105.182 0 .38-.035.38-.035l-.029-.737c2.888.024 8.396.17 8.671.17.14 0 .234-.152.234-.363l.07-3.175-1.737-.017-.14 2.473c-1.257.006-3.432.21-4.911.21-.468 0-.871-.017-1.146-.075-.059-.065-.602-.854-.947-.942a1.517 1.517 0 0 0-.205-.023c-.058-.48-.117-.959-.17-1.433.106-.134.345-.099.41-.28.064-.088.023-.234-.1-.24-.07-.03-.263-.035-.345-.035zM32.994 2.86q-1.89 2.567-5.436 2.636-3.523-.07-5.412-2.637zm-12.02-.61q1.935 3.87 6.584 3.886 4.672-.016 6.608-3.886zm1.192 11.687q-.075 0-.146.023-.278.09-.245.27.027.152.248.152.04 0 .087-.005.302-.033.531-.245-.255-.195-.475-.195zm.142-.165q.59 0 1.82.703.618.32 1.354.32.356 0 .74-.075.964-.196 2.026-.343.361-.05.7-.05.657 0 1.23.189.865.286 1.438.368.572.081 1.814.147-.8.081-1.57.081-.767 0-1.814-.171-.523-.086-1.007-.086-.484 0-.93.086-.89.171-2.027.319-.284.036-.558.036-.823 0-1.559-.33-.714-.488-1.483-.488-.34 0-.69.095-.311-.016-.279-.343.18-.442.769-.458h.026zm.437-1.668q-.354 0-.66 1.08-.256-.953-.66-.953-.06 0-.124.02-.49.311.327 1.194-.654.376-.654.948t.964.638q.299-.078.583-.078.666 0 1.256.43.505.367 1.602.367.731 0 1.725-.163 1.22-.344 2.373-.344.436 0 .864.05 1.067.123 1.818.123.341 0 .617-.026 1.39-.032 1.39-.261-.376-.343-1.063-.458-1.455-.016-2.656-.507-.6-.245-1.473-.245-.873 0-2.017.245-.738.187-1.374.187-.872 0-1.552-.35-.703-.425-1.488-.703.654-.507.613-.842-.04-.335-.4-.351h-.01z"/><path d="M8.22.375c-9.625 0-9.625 17.25 0 17.25m0-17.25h25.946M8.22 17.625h25.946M41.853.375v17.25M34.166.375c9.625 0 9.625 17.25 0 17.25" fill="none" stroke="#000"/></svg>