<svg xmlns="http://www.w3.org/2000/svg" width="66.916" height="18"><path d="M14.365 2.698v.489H12.95v-.49zm-1.861.926v.01h2.308v-.008c.12.056.25.168.361.324.165.23.275.54.276.768.004.528-.227.934-.524 1.183-.28.236-.81.379-1.224.379-.425 0-1.024-.085-1.311-.291-.286-.205-.62-.8-.622-1.335 0-.257.1-.537.282-.74a.954.954 0 0 1 .454-.29zm0-1.374v.916a1.43 1.43 0 0 0-.788.45 1.56 1.56 0 0 0-.395 1.04c.002.684.34 1.343.78 1.676-.218 2-.464 3.996-.783 5.982-.107.635-.218 1.27-.39 1.89-.041.132-.081.271-.172.376-.143.148-.33.244-.512.334a4.582 4.582 0 0 1-1.207.347 1.014 1.014 0 0 1-.13.008c-.118 0-.236-.018-.35-.045-.049-.009-.102-.02-.153-.02a.226.226 0 0 0-.12.03c-.086.064-.08.199-.013.274.09.117.25.137.388.15.062.005.123.007.185.007.264 0 .528-.04.793-.04.06 0 .121.002.182.007.399.019.798.032 1.197.057.098.01.202.03.303.03a.504.504 0 0 0 .227-.047c.1-.063.108-.195.13-.301.064-.355.066-.724.199-1.064.273-.905.465-1.833.664-2.757.278-1.345.517-2.7.668-4.064.025-.258.047-.517.053-.777.156.014.306.018.441.018.093 0 .19-.004.288-.014.457 2.196.932 4.393 1.229 6.618.054.456.108.917.082 1.377a5.69 5.69 0 0 1-1.474.618.679.679 0 0 1-.088.005c-.13 0-.261-.031-.392-.031a.682.682 0 0 0-.086.005c-.13.037-.213.21-.13.326.078.107.222.119.345.119h.019c.259-.004.516-.033.775-.033l.073.001c.28-.005.562-.02.844-.02.168 0 .337.005.505.02.105.014.215.031.324.031a.67.67 0 0 0 .289-.057c.122-.074.152-.232.144-.366-.004-.294-.116-.577-.107-.872-.079-1.541-.297-3.07-.537-4.593a69.753 69.753 0 0 0-.659-3.563l.068-.054a1.96 1.96 0 0 0 .684-1.529c-.003-.354-.145-.724-.36-1.025-.183-.256-.428-.477-.725-.536V2.25zm6.475.493c.03 0 .062.001.095.004.42.03.88.19 1.381.48-.5.31-.96.478-1.38.503a1.333 1.333 0 0 1-.08.002c-.367 0-.546-.168-.536-.505-.01-.322.164-.484.52-.484zm0 2.987c.03 0 .062.001.095.004.42.03.88.19 1.381.48-.5.31-.96.478-1.38.503a1.334 1.334 0 0 1-.08.002c-.367 0-.546-.168-.536-.505-.01-.322.164-.484.52-.484zm-.056-3.48c-.028 0-.055 0-.081.002-.536.02-.834.345-.894.975.08.67.365 1.006.857 1.006h.022c.505-.01 1.213-.19 2.123-.54h8.676c.71.06 1.069.39 1.074.99.005.6-.353.966-1.074 1.096H20.95c-.827-.361-1.502-.542-2.027-.542-.028 0-.055 0-.081.002-.536.02-.834.345-.894.975.08.67.365 1.006.857 1.006h.022c.505-.01 1.213-.19 2.123-.54h8.29c1.02 0 1.721-.32 2.105-.961.395-.66.395-1.321 0-1.982-.378-.631-1.065-.947-2.061-.947-.046 0-.091 0-.138.002H20.95c-.827-.361-1.502-.542-2.027-.542zm5.872 10.473q2.412 0 5.115 1.166-2.703 1.133-5.115 1.133-2.396 0-5.115-1.133 2.72-1.166 5.115-1.166zm0-.744q-2.978 0-6.847 1.893 3.869 1.878 6.847 1.878t6.846-1.878q-3.852-1.893-6.846-1.893zm10.314-9.253q-.28 0-.28.328 0 .278.28.278.295-.016.295-.311t-.295-.295zm-1.082.213v.295l-.64.115q.295-.312.64-.41zm.032.393q.377.295.132.443-.377-.131-.558-.344l.426-.099zm1.148-.754q.77 0 1.23.59.459.59.491 1.82 1.197.246 1.59 1.082.064.542-.243.542l-.019-.001q-.328-.016-.516-.18-.069-.06-.104-.06-.06 0-.02.183.066.287.722.696.656.41.107.68-.137.068-.29.068-.467 0-1.096-.616-.836-.82-.885-1.246-.049-.427.344-.787.234-.215.161-.215-.05 0-.243.1-.475.246-.5.721-.024.476.378 1.041.401.566 1.582 1.435.12.063.273.063.324 0 .792-.285.689-.418-.688-1.286.508-.132.524-.443.64.213 3.59 3.967.787.525.804.77-.017.23-.246.28-.05.01-.1.01-.186 0-.392-.142-.918.443-1.779.46h-.09q-.8 0-1.328-.28.541.476.377 1-.08.255-.12.255-.044 0-.044-.287 0-.558-1.426-1.066v.623q-.084.353-.133.353-.048 0-.064-.32-.098-.705-.467-1.517-.369-.811-1.172-2.245-.803-1.435-1.025-2.066-.22-.631-.205-1.172.017-.541-.22-.795-.239-.254-.14-.55.098-.295-.295-.557v-.278q.426-.345.885-.345zm3.115 9.443q.803.23.803.54l-.541 2.017q-.066.361-.443.361h-.655v-.033l.836-2.557v-.328zM35.266 2.25h-.059q-.64 0-1.295.525-.377.131-.77.607.54.491.983.606.05.23.311.64.017 1.081.296 1.795.278.713 1.868 3.827.787 1.64.787 2.017 0 .574-.721 2.574 0 .114-.984.18-1.475.05-1.475.41 0 .213.197.213h4.36q.41-.328.46-.558.393.164.426.443.055.221.157.221.019 0 .04-.008.13-.049.13-.213-.114-.443-.573-.852l.524-2.213q1.59-.05 2.77-.509.22.05.402.05.364 0 .582-.197.328-.295-.13-.918-1-1-1.902-2.197-1.853-2.279-2.541-2.64-.23-.475-.55-.753-.32-.28-1.155-.689-.017-.967-.451-1.672-.425-.689-1.687-.689zm12.208 1.544q.26.152.305.611-.198.168-.305.505-.123-.337-.321-.505.045-.459.32-.611zm4.495 0q.275.152.321.611-.199.168-.32.505-.108-.337-.307-.505.046-.459.306-.611zm4.51 0q.26.168.307.626-.2.153-.306.49-.122-.337-.321-.49.046-.458.32-.626zm-8.042.81q-.29.382-.352.818-.06.436-.611.543-.566-.107-.627-.543-.061-.436-.352-.818.566 0 .703.428.123.413.276.413.137 0 .275-.413.138-.428.688-.428zm4.51 0q-.29.382-.35.818-.062.436-.628.543-.55-.107-.611-.543-.062-.436-.352-.818.55 0 .688.428.138.413.275.413.153 0 .275-.413.138-.428.704-.428zm4.496 0q-.29.397-.351.826-.062.428-.612.55-.566-.122-.627-.55-.061-.429-.352-.826.566 0 .704.443.122.398.275.398.138 0 .275-.398.138-.443.688-.443zm-7.798 2.951l.268.88q.16.527-.268.771-.428-.244-.268-.772l.268-.879zm4.526 0q.092.352.26.88.168.527-.26.771-.428-.244-.268-.772l.268-.879zm2.783 5.382q1.024 0 1.024.444 0 .443-1.009.459H47q-.993 0-.993-.46 0-.443.994-.443zm-9.48-9.495q-.444 0-.612.902-.143-.04-.268-.04-.252 0-.435.162-.184.138.015.29.321.169.398.727.076.558.626.726v6.01h-.183q-1.697 0-1.697 1.162 0 1.177 1.682 1.177h9.97q1.681 0 1.696-1.177 0-1.162-1.712-1.162h-.199V6.225q.55-.184.627-.734.076-.55.382-.734.214-.153.016-.275-.181-.17-.443-.17-.115 0-.245.032-.184-.887-.612-.887-.444 0-.627.887-.13-.033-.245-.033-.262 0-.443.17-.184.123.015.276.321.183.39.734.069.55.635.734h.015v5.994h-1.774V9.466q.52-.504.352-1.032-.168-.527-.252-.871-.084-.344-.375-.344-.29 0-.382.344-.092.344-.253.871-.16.528.375 1.032v2.753l-1.667-.016V6.21q.55-.168.627-.726.077-.558.398-.726.199-.153.015-.29-.183-.164-.435-.164-.126 0-.268.041-.168-.902-.612-.902-.428 0-.611.902-.143-.04-.269-.04-.251 0-.435.162-.183.138.03.29.307.169.383.727.076.558.627.726v5.994l-1.774.016V9.466q.52-.504.36-1.032-.161-.527-.253-.871t-.382-.344q-.275 0-.375.344-.1.344-.26.871-.16.528.375 1.032v2.753h-1.651v-6.01q.565-.168.642-.726.076-.558.382-.726.214-.153.03-.29-.183-.164-.434-.164-.126 0-.269.041-.183-.902-.611-.902z"/><path d="M8.22.375c-9.625 0-9.625 17.25 0 17.25m0-17.25h50.446M8.22 17.625h50.446M66.354.375v17.25M58.666.375c9.625 0 9.625 17.25 0 17.25" fill="none" stroke="#000"/></svg>