<svg xmlns="http://www.w3.org/2000/svg" width="66.69" height="18"><path d="M10.745 2.694c-.69 0-1.246.553-1.25 1.244v.007c0 .693.557 1.251 1.25 1.251s1.251-.558 1.251-1.251c0-.693-.558-1.251-1.25-1.251zm1.612 3.591c-.047.077-.114.144-.05.144a.306.306 0 0 0 .07-.012.289.289 0 0 0 .086.025c.053 0-.068-.102-.106-.157zm-1.103-.27c.288 0 .406.414.19.59a.258.258 0 0 1-.186.075.315.315 0 0 1-.31-.265c-.04-.187.098-.4.298-.4a.283.283 0 0 1 .008 0zm-.086-.247c-.033 0-.065 0-.097.002-.243.02-.51.125-.64.342-.053.291-.042.634.187.855.156.193.457.25.518.516.023.129-.053.337.089.337.018 0 .04-.003.066-.01.2-.295.38-.609.629-.866-.125-.132-.262-.339-.106-.502.105-.144.356-.38.032-.397-.14-.232-.424-.277-.678-.277zm-1.352.348c-.437.388-.583.986-.685 1.538-.042.247-.065.498-.09.747.223-.237.528-.463.861-.463a.725.725 0 0 1 .176.021c.202 0 .31.369.339.384l.11-.666c-.43-.149-.624-.611-.686-1.029a2.388 2.388 0 0 1-.025-.532zm.046 2.49a.724.724 0 0 0-.414.237c-.182.733-.117 1.494-.104 2.24-.012.27.03.55.016.826-.004 1.045-.216 2.078-.185 3.124l4.995.012-.643-1.316c.313-.742.702-1.452.999-2.202.128-.344.287-.696.287-1.07-.015-.115-.067-.157-.134-.157-.12 0-.288.136-.368.222-.625.602-1.132 1.314-1.633 2.02a19.472 19.472 0 0 0-1.285 2.096c.026-1.617.107-3.24-.097-4.85-.03-.352-.18-.678-.343-.987l-.018 2.25h-1.03c.01-.815.031-1.632-.043-2.444zm.883-6.356c.934 0 1.695.761 1.695 1.695a1.7 1.7 0 0 1-.751 1.406c.082.026.165.055.245.09.122.057.245.122.303.25.063.101.118.206.243.24.344.252.465.734.379 1.138a.066.066 0 0 1-.036.01c-.103 0-.279-.177-.352-.177a.033.033 0 0 0-.015.003c-.05.233-.217.408-.31.622a3.747 3.747 0 0 1-.626.832c.236.423.433.877.474 1.365.115.845.134 1.7.134 2.553.644-.882 1.305-1.764 2.107-2.51a.886.886 0 0 1 .572-.223.6.6 0 0 1 .403.145c.29.287.247.73.172 1.094-.215.926-.621 1.792-.983 2.666-.05.192-.262.402-.093.585.209.336.504.616.694.962.101.238.088.504.056.754l-6.49-.016c-.083-.846-.084-1.7.005-2.546.042-.746.056-1.492.088-2.239l-.439-.039c.094-1.1.127-2.208.33-3.295.128-.606.277-1.234.653-1.74.18-.215.412-.375.666-.487a1.693 1.693 0 0 1-.819-1.443v-.012a1.697 1.697 0 0 1 1.695-1.683zm11.313.298a.31.31 0 0 1 .078.01c.144.04.185.16.124.359L21.22 5.61h-.508l1.107-2.863c.056-.134.136-.2.24-.2zm.86.217a.35.35 0 0 1 .097.015c.165.048.195.171.091.371l-.95 2.46h-.508l1.003-2.63c.061-.144.15-.216.267-.216zM20.35 6.74c-.08 0-.173.014-.278.042V6.9a.9.9 0 0 1 .271-.047.5.5 0 0 1 .205.041c.125.056.292.089.5.098l-.064-.066a8.543 8.543 0 0 1-.456-.156.494.494 0 0 0-.178-.03zm.1.277l.234.09a1.957 1.957 0 0 1-.234.079c.052-.052.052-.109 0-.17zm-.195 0c-.026.06-.018.121.026.182a1.597 1.597 0 0 0-.156-.052c.008-.052.052-.096.13-.13zm.065-.085c-.113 0-.191.046-.234.137l-.118.065-.013.065.117.013a.43.43 0 0 0 .244.067c.128 0 .28-.04.46-.12h.286v-.09h-.3c-.182-.091-.33-.137-.442-.137zm2.356-1.1l-.885 1.64c-.06.089-.115.133-.166.133a.104.104 0 0 1-.069-.029l-.286-.182c.017-.07.087-.163.208-.28.122-.117.148-.26.078-.43-.04-.098-.119-.147-.236-.147a.85.85 0 0 0-.31.076c-.281-.16-.522-.239-.724-.239a.703.703 0 0 0-.083.005 2.4 2.4 0 0 0-.091-.547zM20.18 6.6c.222 0 .512.095.87.286.078-.095.156-.143.234-.143.078 0 .12.04.124.117.004.079-.065.18-.209.306-.143.126-.21.232-.201.32l.039.025a.64.64 0 0 1-.26.45c-.148.108-.348.166-.6.175a.936.936 0 0 1-.048.001c-.13 0-.188-.033-.173-.099a.238.238 0 0 0-.039-.201c.047.002.089.004.125.004.201 0 .249-.04.142-.122-.081-.061-.147-.092-.198-.092a.097.097 0 0 0-.069.027c.035-.13-.034-.2-.208-.208a7.42 7.42 0 0 0 .443-.846h.028zm.935.963l.377.235c.026.399.104.672.234.82a1.704 1.704 0 0 0-.364.013.711.711 0 0 0-.312.117 1.888 1.888 0 0 0-.287-.638c.226-.174.343-.356.352-.547zm.507 1.354c.339 0 .551.186.638.56.122.529.139 1.357.052 2.485-.104 1.285-.225 2.343-.364 3.176l.169.248h-4.334l.898-.365c-.26-1.275-.586-2.21-.976-2.805-.39-.594-.456-.978-.196-1.152a.444.444 0 0 1 .248-.082c.178 0 .356.127.533.382l1.744 2.499.313-.026c.19-1.944.395-3.393.612-4.347.104-.382.325-.573.663-.573zm.386-6.667c-.256 0-.428.148-.516.445l-1.106 2.916h-.573c.104.347.156.655.156.924a2.29 2.29 0 0 1-.345.722c-.163.24-.13.359.1.359h.024c-.06.086-.052.134.026.142-.07.044-.076.083-.02.118.057.034.077.117.06.247-.027.39-.129.705-.307.944-.146.195-.279.293-.398.293a.216.216 0 0 1-.077-.014.458.458 0 0 0-.154-.034c-.051 0-.087.018-.106.054-.035.065.01.132.137.202a.324.324 0 0 0 .158.037c.111 0 .25-.04.414-.122.256-.126.488-.514.697-1.165h.364c.113.104.2.256.26.456-.312.998-.568 2.473-.768 4.425l-1.653-2.343a.83.83 0 0 0-.532-.214.851.851 0 0 0-.424.123c-.334.191-.497.401-.488.631.008.23.167.606.475 1.126.308.52.588 1.284.84 2.29l-.99.43.065.508h5.558l-.573-.677c.278-2.698.375-4.423.293-5.173-.082-.751-.271-1.165-.566-1.243-.208-.209-.29-.434-.247-.677l.338-.599c.503.382.755.885.755 1.51v6.859h.3V8.89c-.01-.754-.322-1.344-.938-1.77l.846-1.51h-.599l.924-2.407c.13-.33.072-.542-.175-.638a.89.89 0 0 0-.32-.065.605.605 0 0 0-.325.091c-.06-.2-.236-.312-.527-.338a.715.715 0 0 0-.063-.003zm7.834 1.505c-.02.029-.005.08.023.118-.047-.01-.098-.038-.117-.047 0-.029.037-.052.094-.07zm.117 0l.14.07c-.056.01-.093.038-.14.048.038-.02.028-.07 0-.118zm-.077-.051a.159.159 0 0 0-.04.004.303.303 0 0 0-.094.047l-.094.07.023.095.024-.024a.652.652 0 0 0 .469-.023h.164v-.07h-.164a.563.563 0 0 0-.288-.1zm.966-.066h.002c.02.002.05.019.047.047a.334.334 0 0 1-.07.164.456.456 0 0 1-.117.118.059.059 0 0 1-.025.01c-.01 0-.002-.018.025-.057.026-.04.034-.056.024-.056a.07.07 0 0 0-.024.009.06.06 0 0 1-.027.007c-.02 0-.03-.02-.02-.054a.348.348 0 0 1 .094-.141c.04-.023.07-.047.09-.047zm-.232.352c.038.019.047.051.023.07-.012.01-.021.015-.029.015-.007 0-.013-.005-.018-.015-.01-.019-.005-.051.024-.07zm.249-.434a.183.183 0 0 0-.062.012c-.066.023-.116.078-.164.164-.047.085-.066.15-.047.188-.057.028-.089.055-.094.093-.004.038.037.075.094.094a.088.088 0 0 0 .028.005c.052 0 .112-.042.183-.122a.732.732 0 0 0 .165-.235.17.17 0 0 0-.024-.164.1.1 0 0 0-.08-.035zm-1.19.668a.04.04 0 0 0-.014.004h.004a.028.028 0 0 0 .012-.003h-.002zm-.091-.07c-.029 0-.043.014-.047.024a.053.053 0 0 0 0 .047.096.096 0 0 1 .051-.018c.015 0 .03.005.042.018.006.005.011.007.016.007.005 0 .01-.002.015-.004-.008-.002-.015-.011-.03-.027l-.047-.047zm.135.017c-.005 0-.012.008-.016.008l-.002-.001c.005.014-.005.037-.024.047.01 0 .014.024.021.024l.003-.001c.024-.014.028-.037.023-.07 0-.005-.002-.007-.005-.007zm.92-1.237c.13 0 .28.014.446.047.332.067.493.227.493.493 0 .275-.102.5-.282.68-.129.13-.22.197-.285.197a.086.086 0 0 1-.067-.033c-.076-.085-.04-.204.118-.375.156-.17.17-.332.07-.47a.244.244 0 0 0-.21-.104.734.734 0 0 0-.33.105c-.114-.076-.315-.112-.61-.14.029-.162.144-.286.329-.353a.966.966 0 0 1 .328-.047zm-1.044 1.43l.012.001c.033.005.065.024.117.024l-.164.023c-.019 0-.005-.009 0-.023.004-.012.011-.025.035-.025zm.2.048c0 .02-.033.033-.07.047-.039.014-.066.014-.095.024l-.03.002c-.006 0-.012 0-.016-.002-.015-.005-.005-.005.023-.024l.188-.047zm.086-.94c.26 0 .489.055.664.143 0 .06.008.092.03.092.018 0 .046-.023.088-.069.072-.08.149-.126.225-.126.019 0 .038.003.056.009.095.028.128.101.07.234a1.064 1.064 0 0 1-.234.352c-.1.095-.113.182-.047.258.067.076.08.136.07.165.162.484.341.772.517.891.175.119.184.467.047 1.056a39.223 39.223 0 0 0-.305 1.407l-1.22.165a7.421 7.421 0 0 0-.141-.915c-.08-.38-.173-.738-.235-1.056-.061-.318-.015-.53.118-.633a.715.715 0 0 1 .492-.141h.011c.192 0 .27-.124.247-.352-.019-.186-.095-.276-.234-.276a.461.461 0 0 0-.118.018.544.544 0 0 1-.137.02c-.116 0-.166-.063-.144-.184.133-.076.183-.131.14-.165-.027-.021-.07-.029-.127-.029-.031 0-.067.003-.107.006a.183.183 0 0 0-.07-.117c-.026-.018-.055-.01-.094-.024.076-.228.163-.398.258-.493a.386.386 0 0 1 .305-.023c.114.033.224.06.328.07v-.07a.757.757 0 0 1-.281-.07.435.435 0 0 0-.168-.036.385.385 0 0 0-.16.036c.037-.057.065-.103.093-.141l.063-.001zm5.502 2.747c.153 0 .235.084.235.258V8.47h-.704l.234-2.088c.008-.11.082-.164.235-.164zm-4.298 2.04c.072.12.142.232.188.353l-1.455.07.047-.235 1.22-.187zm.282 1.08a1.748 1.748 0 0 1-.094.47l.07 1.454h-2.135l.446-1.9 1.713-.024zm4.525-7.089a.054.054 0 0 0-.021.004c-.083.035-.162.206-.258.516-.094.304-.174.459-.24.459-.023 0-.045-.02-.065-.06.019-.105.06-.22.117-.352.057-.133.039-.22-.047-.258-.114.266-.238.459-.352.563-.114.104-.15.214-.117.352a.672.672 0 0 1 0 .375c-.057.162-.199.405-.446.704-.246.299-.49.625-.727.985-.74-.095-1.19-.205-1.337-.305-.147-.1-.368-.14-.657-.14-.29 0-.51-.175-.68-.517.265-.113.44-.232.563-.375.123-.142.187-.395.187-.727 0-.351-.155-.576-.492-.68a2.047 2.047 0 0 0-.61-.092c-.146 0-.295.015-.446.045-.366.07-.613.369-.727.891a3.308 3.308 0 0 0-.258.446c-.048.123-.034.178.023.188a.309.309 0 0 1 .14.07c-.047.028-.06.047-.046.07.014.024.032.038.07.047a.14.14 0 0 1 .037-.009c.014 0 .002.013-.037.033-.057.028-.047.051 0 .07.048.019.061.083.07.188.01.104.065.154.165.164a1.73 1.73 0 0 0 .399-.023c.076.104.048.173-.094.21-.437 0-.79.055-1.056.188-.588.086-1.176.187-1.736.282-.237-.36-.48-.687-.727-.986-.247-.299-.389-.542-.446-.703-.038-.105-.033-.21 0-.352.033-.143-.027-.271-.14-.376-.115-.104-.215-.297-.33-.563-.085.038-.103.126-.046.258.057.133.098.248.117.352-.02.04-.042.06-.065.06-.066 0-.145-.155-.24-.459-.107-.345-.208-.51-.3-.51a.088.088 0 0 0-.052.018c.076.237.108.467.118.68.01.214.193.466.516.75.218.798.608 1.587 1.196 2.394.184.045.38.067.587.067.272 0 .563-.038.868-.114.233-.058.417-.085.55-.085.175 0 .265.046.27.132.105.342.192.704.282 1.103.09.398.127.756.118 1.079l-.094.399h-.235l-.366-.047c-.393-.45-.734-.68-1.032-.68-.11-.009-.228-.016-.352-.024-.611.126-.995.187-1.126.187-.087 0-.117.085-.117.212 0 .181.12.258.375.258.423-.081.746-.121.972-.121.039 0 .074.001.107.003.131 0 .232.054.305.165-.141.19-.45.283-.937.283-.038 0-.078 0-.118-.002a5.171 5.171 0 0 1-1.479-.234c-.218 0-.328.13-.328.398.03.245.812.368 2.37.376l1.032-.118h.765l-.54 2.253c-.161.389-.212.751-.164 1.102-.237.731-.403 1.273-.47 1.619-.066.347-.176.567-.351.657-.176.09-.433.2-.775.352-.36.076-.576.154-.61.234-.033.081.041.15.188.165.05.004.148.006.298.006.299 0 .8-.006 1.509-.006.152-.143.202-.33.164-.563-.038-.233.118-.627.47-1.197.35-.57.474-1.06.351-1.478-.01-.152.055-.307.188-.493.133-.185.243-.322.328-.398h.868c.029.133.106.339.258.633.124 1.092.216 1.812.258 2.135.043.323-.026.547-.187.68-.162.133-.41.215-.751.282-.36.076-.553.154-.587.234-.033.081.036.15.188.165.05.004.15.006.3.006.299 0 .798-.006 1.507-.006.151-.143.202-.33.14-.563a1.583 1.583 0 0 1-.047-.68c.038-.21.112-.54.188-1.01s.007-.882-.211-1.243l-.164-2.44c.052-.148.083-.305.094-.469h2.632l1.665.023V6.477c0-.387-.208-.587-.586-.587s-.572.123-.587.352c-.16 1.492-.325 2.244-.492 2.252l-2.703.118a3.925 3.925 0 0 0-.234-.634c.075-.398.14-.756.187-1.079.048-.323.163-.62.305-.915.022-.06.083-.09.188-.09.129 0 .322.046.586.137.278.096.566.143.859.143.212 0 .427-.025.643-.073.588-.816.978-1.628 1.196-2.416.323-.285.502-.514.516-.727.015-.214.051-.443.118-.68a.135.135 0 0 0-.073-.028zm6.213.496l-.312.709q.667.135.95 1.34l1.078-.277v.674l-1.05.297q.008.993-.19 1.865-.206.871-.93 1.127-.36.124-.726.124-.365 0-.734-.124-.737-.256-.935-1.127-.206-.872-.185-1.865l-1.049-.297v-.674l1.07.277q.284-1.205.958-1.34l-.326-.709zm-2.878-.496q-.255 0-.035.496l.191.433q-.567.361-.709.999l-1.205-.361V5.61l1.135.326q0 1.02.29 2.041.298 1.021 2.02 1.248 1.723-.227 2.028-1.248.297-1.02.297-2.041l1.134-.326V3.817l-1.219.361q-.141-.638-.709-1l.192-.432q.227-.496-.036-.496zm1.266 8.375v5.125h.857v-5.125zm5.426-3.582V8.36h2.906V7.043h-.57c-.165.293-.355.483-.569.57a.818.818 0 0 1-.635 0c-.209-.087-.397-.277-.563-.57zm1.763-4.793v2.183h-.66v2.67h.712V5.43h.826V3.14h1.02c.182 1.424.676 2.481 1.483 3.174.807.692 1.803 1.093 2.99 1.204 1.186.11 1.965.267 2.337.468.372.202.558.406.558.611h1.447c-.221-.53-.518-.933-.89-1.21-.372-.277-1.062-.45-2.07-.522-1.009-.071-1.815-.203-2.42-.397a3.858 3.858 0 0 1-1.62-1.032c-.474-.495-.838-1.557-1.091-3.186zm-.267 11.678l-1.542 1.822h.752l.79-.942.797.942.775-.942.797.942.79-.942.797.942.79-.942.797.942.774-.942.798.942.797-.942.774.942.798-.942.79.942h.751l-1.54-1.822-.798.88-.774-.88-.797.88-.798-.88-.774.88-.797-.88-.79.88-.797-.88-.79.88-.797-.88-.775.88-.797-.88z"/><path d="M8.22.375c-9.625 0-9.625 17.25 0 17.25m0-17.25h50.22M8.22 17.625h50.22M66.128.375v17.25M58.44.375c9.625 0 9.625 17.25 0 17.25" fill="none" stroke="#000"/></svg>