<svg xmlns="http://www.w3.org/2000/svg" width="67.369" height="18"><path d="M6.286.322q.06 0 .113.039.214.116-.136.564-.37.369-.457.622-.088.253-.185.67-.097.419-.428 1.197l-.447.136H3.132q.233-.506.544-.914.759-.7 1.128-.934.37-.233.593-.398.224-.166.477-.632.233-.35.412-.35zM5.27 3.939l-.311.68q-.454-.045-.84-.045-.775 0-1.28.182-.097-.661-.292-.817zm-2.237 1.42q-.37.02-.389.35.02.389.39.389.369 0 .388-.39-.02-.33-.389-.35zm.837-.33q.836 0 .972.777.136.778-.895 1.07.35.66 0 .836-.123.062-.24.062-.216 0-.411-.208-.302-.32-.535-.914-.233-.593-.7-.593h.33q-.213-.33-.155-.506l.034.002q.166 0 .219-.177.37-.35 1.38-.35zm1.147.057q.292 0 .836 1.255.545 1.254 1.77 2.314t1.974 2.577q.749 1.517 2.927 3.326-3.812-1.809-4.784-2.237-.973-.428-3.15-2.003-1.246-.914-1.246-1.459 0-.427.098-.739V8.1q.992 0 .992-.991 1.342-.661.583-2.023zm-.545 5.971q.37 1.77 1.829 3.91-.139.109-.302.109-.385 0-.904-.616 0-.972-.7-3.403zm.642.622q1.148.914 2.587 1.731v1.848q-.506-.39-1.011-.467-1.381-2.256-1.576-3.112zm.214 3.812q.265.336.546.336.255 0 .524-.277l.097 1.711q-.185-.041-.354-.041-.308 0-.56.138-.34-.113-.597-.113-.096 0-.18.016l.524-1.77zm.603-3.676l5.815 2.937q1.128 1.264 2.159 2.392v.02l-1.459.233-2.898-3.131q-.836-.68-3.617-2.45zM6.202 0h-.037q-.233.01-.486.4-.058.174-.243.388-.185.214-.535.428-.35.214-.505.34-.156.127-.525.458-.312.252-.448.408-.31-.194-.525-.476-.214-.282-.233-.516-.02-.233.048-.37.069-.135.214-.165.04-.008.08-.008.103 0 .202.057.136.078.117.272-.039.175-.253.214-.058-.025-.095-.025-.05 0-.06.045-.04.252.194.272l.05.002q.2 0 .33-.138.145-.156.126-.525Q3.482.652 3.19.613 3.137.606 3.084.606q-.237 0-.468.144-.282.175-.311.544-.03.37.263.749.291.379.641.632-.272.35-.564.875H1.81q.506.545.603 1.536h-.04q-.346 0-.29.331-.545.156-.545 1.03.181-.105.34-.105.044 0 .088.009.233 0 .379.544.146.545.632 1.206v.02q-.117.233-.117.738 0 .506.895 1.459.895 3.073.875 4.493 0 .175.253.213l-.642 2.14q-.052-.004-.106-.004-.272 0-.604.082-.19.046-.388.046-.219 0-.448-.056-.253-.062-.497-.062-.177 0-.349.033-.272.051-.432.051-.08 0-.132-.012-.506.116-.564.758.337-.194.514-.194.089 0 .138.048.145.146.573.146h5.66q.37 0 .583-.156.071-.051.169-.051.194 0 .492.207.02-.622-.66-.797-.386.143-.696.143-.238 0-.433-.085l-.097-1.925q.532.736.93.736.17 0 .315-.134-.137-1.186-.137-2.178l.545.33q.467.215 2.052 2.024 1.52 1.734 1.814 1.734.013 0 .024-.004l1.847-.389q.292-.097.117-.291L13.01 15.51q1.362.875 2.042 1.167-.33-.37-1.108-.934l.389.136q.233-.039.194-.37-3.384-2.45-4.298-4.22-.914-1.77-2.149-2.878-1.235-1.108-1.838-2.49-.37-.874-.758-1.186L7.293.633 6.866.399 5.854 2.597l.098-.447q.116-.467.252-.7.137-.234.273-.331.291-.428.291-.661 0-.234-.175-.35Q6.413 0 6.201 0zm6.662 1.88c-.404 0-.674.234-.67.606.006.404.277.637.67.637s.627-.234.621-.637c-.005-.373-.239-.606-.621-.606zM12.91.536c.266 0 .531.055.798.165.511.211.856.578 1.084 1.076.231.507.215 1.02 0 1.53-.215.506-.583.838-1.084 1.05a1.98 1.98 0 0 1-.778.16c-.275 0-.55-.056-.823-.16-.509-.193-.846-.567-1.075-1.05a1.797 1.797 0 0 1-.16-.774c-.001-.535.233-1.009.59-1.394.176-.19.394-.335.645-.438.27-.11.536-.165.802-.165zM12.847 0c-.703 0-1.256.244-1.752.741-.507.509-.723 1.062-.733 1.776a2.32 2.32 0 0 0 .247 1.108c.133.652.14 1.742-.037 1.742-.308 0-.132-.819-.147-1.074-.025-.435-.282-.805-.587-1.099-.07-.068-.148-.144-.25-.154a2.8 2.8 0 0 0-.294-.02.975.975 0 0 0-.333.051c-.076.027-.079.134-.054.204.026.072.074.148.157.158l.063.003c.101 0 .201-.025.303-.026h.013c.042 0 .09.004.12.035-.068.128-.162.252-.178.402a.393.393 0 0 0 .015.176c.199.55.32 1.813 1.145 1.813.156 0 .23-.032.28-.079.366-.34.372-.916.35-1.393.484.455 1.03.646 1.705.655h.039c.691 0 1.242-.256 1.737-.733.135-.13.249-.262.344-.401.022.472.045.948.218 1.392.137.35.441.604.768.778a.139.139 0 0 0 .056.019c.04 0 .016-.062-.03-.107a1.986 1.986 0 0 1-.484-.734c-.176-.481-.158-1-.147-1.502.007-.307.02-.615.002-.922h-.002c.01-.094.015-.191.016-.292.008-.72-.242-1.268-.74-1.776-.507-.515-1.06-.733-1.777-.74L12.847 0zM22.89 4.787q-.407 0-.471.314v.019q.046.083.193.083.425-.185.425-.342v-.018q0-.037-.148-.056zm1.477-.572q-.065.36-.637.775l.203.083.277-.101.138.092q1.062.508 2.817.536l2.752.027h.037q.47 0 .457.688-.014.716-.485 1.436-.296 0-.6-.226-.305-.226-.499-.53-.194-.306-.499-.795.093.97.554 1.524-.563 0-1.002.106-.219.053-.365.053-.147 0-.22-.053-.093-.066-.458-.066-.222 0-.545.024-.249.02-.455.02-.501 0-.75-.112-.23-.194-.29-.679-.06-.485.272-1.343-.684.489-.684 1.486v.333q-.341-.351-.535-.776-.379-.942-1.034-.942-.25 0-.96.314-.24-.101-.195-.323l.462-.619q.332-.563.48-.628.074-.138.72-.138.277.074.277.203 0 .175-.184.35.35-.073.508-.415 0-.083.443-.304zm.398-1.965q-.045 0-.103.072-.701 1.117-1.274 1.551-.222.194-.6.203-.185 0-.563-.277-.564-.545-.785-.923-.25-.444-.324-.49-.036 0-.055.093 0 .526 1.071 1.948-.203.296-.378.674-.176.379-.416.577-.24.199.046.393 0 .24.397.388.324-.093.988-.287.397 0 .545.333.49.738.49 1.542.055 1.071-.74 2.05-.248.166-.248.461 0 .12.304.12.499 0 .499-.12l-.037-.249q0-.13.194-.194v-.018q0-.176.628-1.764.286 0 .452.277.213.702.213 1.164 0 .101-.13.434-.157.12-.193.434h.738l-.055-.231q-.037-.139.101-.24l-.064-.342q-.12-1.302-.12-1.533v-.018q.73-.176 1.122-.176.392 0 .605.143.084.057.236.057.231 0 .618-.13.419-.142.643-.142.119 0 .183.04.185.115.185.392 0 1.016-.517 1.727-.167.166-.25.462h.638q.166-.056.073-.277.019-.24.222-.305 0-.84.739-1.662.517.286.526.886 0 .231-.092.628l-.111.305q-.102.12-.185.453h.61q.11-.047.138-.102l-.092-.296q-.046-.129.13-.23-.093-.49.12-.74-.435-1.015-.435-1.597.231-.95.296-1.782.11.582.027 1.395-.083.812.277 1.68.07.146.129.146.04 0 .075-.072.092-.526.037-2.909-.074-.295-.157-.452-.296-.453-.508-.471h-2.983q-2.207 0-3.269-.628.176-.314.194-.43.019-.115 0-.281-.443.13-.665.342l-.184-.139q.193-.12.618-.776.425-.655.499-1.025-.031-.062-.073-.062zm4.894 10.098c.487.021.754.032.87.032h.052l-.063 2.547a3.738 3.738 0 0 1-.97-.576l.11-2.003zm-7.108-.634c-.162.031-.377.131-.351.325v1.42c-.315-.015-.64-.031-.734-.031 0 .178.147.42.603.42.005.403.078.896.152 1.147l.063.66c0 .074.125.095.262.095.162 0 .34-.031.34-.031l-.026-.66c2.59.02 7.527.151 7.774.151.125 0 .21-.136.21-.325l.062-2.846-1.557-.016-.125 2.217c-1.127.006-3.077.19-4.403.19-.42 0-.781-.017-1.028-.069-.052-.058-.54-.765-.849-.844a1.36 1.36 0 0 0-.183-.02c-.053-.43-.105-.86-.152-1.285.094-.12.309-.09.367-.252.057-.078.02-.21-.09-.215-.062-.026-.235-.031-.309-.031zm15.42-9.191q.124 0 .205.155.126.201-.177.34-.315.152-.214.518l.303 1.249q-.316.038-.53.303V3.536q0-.795.214-.934.11-.08.2-.08zm-.703 2.834v.47l-1.035-.108q.025-.127.385-.26.265-.097.65-.102zm.441.028q.465.091.694.56l-.82-.085v-.18q0-.088.101-.264l.025-.031zm1.36.527q-.073 0-.199.223.316-.114.24-.202-.018-.02-.04-.02zm-2.937.008l1.136.116v.108q-.019 0-.038.004-.215 0-.253.252-.025-.202-.233-.297-.095-.043-.248-.043-.184 0-.452.062.012-.126.088-.202zm.139.631q.126 0 .214.05-.05.09-.164.152.05-.063.044-.126-.006-.063-.094-.076zm-.101.013q-.038.076-.032.12.007.044.07.082-.076 0-.152-.038.013-.088.114-.164zm.063-.063q-.19 0-.24.265.101.063.265.063.177 0 .278-.19h.315v-.1l-.315.025q-.126-.063-.303-.063zm2.84-.667q.055 0 .1.049.139.151-.24.328.391.593.404 1.413l-.101.012q0-.82-.34-1.375l-.026.025q.252.53.252 1.754h-.1q-.089-1.224-.152-1.514l-.113-.416q.186-.276.317-.276zm-2.666.386q.124 0 .23.035.252.082.252.347h.164q.038-.227.151-.227.114 0 .051.227l-.353.555v1.186l-.038.013q-.063-.089-.126-.221-.063-.133-.101-.36l-.379-.012q-.202 0-.202-.101 0-.19.19-.215 0-.1-.064-.1l-.252-.013q.076-.164-.151-.227 0-.101.214-.455v-.214l.038.063q.151-.088.252-.088t.29.075h.228V6.4h-.227q-.164-.114-.29-.114-.14 0-.29.114 0-.101.037-.114.205-.066.376-.066zm1.176-.151l.896.091q.025.063.139.43.164.479.126 3.457l-1.59.012V7.195q.088-.126.227-.353.139-.228.133-.48-.005-.186-.158-.214h.227v-.08zm-.681 2.817v1.45h1.35q-.013.77-.145 1.868-.133 1.098-.335 1.861-.202.764.278 1.243h-3.735q.139-.138.183-.467.044-.328-.297-1.097l-.946-2.865q-.063-.265.158-.41.073-.048.146-.048.146 0 .289.193l1.274 1.906.493.605q.126.089.223.089.193 0 .269-.354.454-1.034.34-2.523-.441-.48.455-1.451zm1.084-6.636q-.17 0-.378.137-.34.227-.34 1.338v1.371q-.36.019-.606.074-.366.082-.593.353-.227.271-.227.75-.063.203-.026.38-.201.378-.201.517 0 .075.176.075l-.025.114q.013.063.076.076-.05.05-.026.113l.089.038q-.089.34.29.34h.252q.026.24.29.657-.012.012-.24.309-.226.297-.453.7-.228.404.088.795.088 1.287-.391 2.36l-1.653-2.423h-.013q-.214-.283-.528-.283-.148 0-.317.062-.53.196-.391.663 1.312 3.874 1.274 4.139-.038.265-.372.466-.335.202-.17.379h5.009q.252-.114 0-.353-.656-.795-.423-1.527.234-.732.41-3.533h.467v-.833q.013-.77 0-1.312.088-.013.215-.063l-.013-.379.227-.013q0-.933-.404-1.476.442-.164.19-.454-.093-.107-.191-.107-.156 0-.327.27-.339-.624-.742-.807.169-.094.402-.164l-.354-1.501q-.038-.177.227-.341.354-.24.14-.606-.167-.301-.418-.301zm4.134 1.558l2.736 2.406q-.577.89-1.533 1.797-.906-2.143-1.203-4.203zm-.728-1.187q-.528 0-.41.725.512.248.43.56-.083.314.065 1.04.149.725 1.187 3.444-.316 1.074.367 1.074l.062-.002q1.846 3.395 4.07 5.917h.397l-.1-1.104q-1.78-1.665-3.807-5.39.593-1.253 1.665-2.193l3.28 2.95q.248.112.416.112.458 0 .326-.82l-3.297-2.818q.013-.75-.625-.75-.148 0-.33.04L42.12 2.82q-.452-.198-.728-.198z"/><path d="M18.436.375v17.25m0-17.25h2.625m-2.625 17.25h2.625m0-17.25H49.37m-28.309 17.25H49.37m0-17.25h17.624M49.37 17.625h17.624M51.132.375v17.25M54.657.375v17.25M56.42.375v17.25M58.182 2.1h8.812m-8.812 3.45h8.812M58.182 2.1v3.45m1.762-1.725h7.05m-8.812 3.45h8.812m-8.812 3.45h8.812m-8.812-3.45v3.45M59.944 9h7.05m-8.812 3.45h8.812m-8.812 3.45h8.812m-8.812-3.45v3.45m1.762-1.725h7.05" fill="none" stroke="#000"/></svg>