<svg xmlns="http://www.w3.org/2000/svg" width="55.708" height="18"><path d="M15.469 3.808l-2.736 2.406q.577.89 1.533 1.797.906-2.143 1.203-4.203zm.728-1.187q.528 0 .41.725-.512.248-.43.56.083.314-.065 1.04-.149.725-1.187 3.444.316 1.074-.366 1.074l-.063-.002q-1.846 3.395-4.07 5.917h-.396l.098-1.104q1.78-1.665 3.808-5.39-.593-1.253-1.665-2.193l-3.28 2.95q-.248.112-.416.112-.458 0-.326-.82l3.297-2.818q-.013-.75.625-.75.148 0 .331.04l2.967-2.587q.452-.198.728-.198zm3.356-.073a.297.297 0 0 0-.078.01c-.143.04-.185.16-.124.359l1.041 2.694h.508l-1.106-2.863c-.056-.134-.137-.2-.241-.2zm-.86.217a.35.35 0 0 0-.097.015c-.165.048-.195.171-.09.371l.95 2.46h.507L18.96 2.98c-.062-.144-.151-.216-.268-.216zM21.26 6.74c.081 0 .174.014.278.042V6.9a.9.9 0 0 0-.271-.047.494.494 0 0 0-.204.041 1.384 1.384 0 0 1-.501.098l.065-.066c.19-.06.342-.112.455-.156.051-.02.11-.03.178-.03zm-.1.277l-.234.09c.087.035.165.061.234.079-.052-.052-.052-.109 0-.17zm.196 0c.026.06.017.121-.027.182.07-.026.122-.044.157-.052-.009-.052-.052-.096-.13-.13zm-.066-.085c.113 0 .191.046.235.137l.117.065.013.065-.117.013a.43.43 0 0 1-.244.067c-.128 0-.28-.04-.46-.12h-.285v-.09h.299c.182-.091.33-.137.442-.137zm-2.355-1.1l.885 1.64c.059.089.114.133.165.133.024 0 .047-.01.069-.029l.286-.182c-.017-.07-.086-.163-.208-.28-.121-.117-.147-.26-.078-.43.04-.098.119-.147.236-.147a.85.85 0 0 1 .31.076c.282-.16.523-.239.724-.239.029 0 .056.002.084.005a2.4 2.4 0 0 1 .09-.547zm2.496.768c-.222 0-.512.095-.87.286-.078-.095-.156-.143-.234-.143-.078 0-.119.04-.123.117-.005.079.065.18.208.306s.21.232.202.32l-.04.025a.64.64 0 0 0 .26.45c.148.108.348.166.6.175l.049.001c.13 0 .187-.033.172-.099a.238.238 0 0 1 .039-.201 2.215 2.215 0 0 1-.125.004c-.201 0-.248-.04-.142-.122.082-.061.147-.092.198-.092.028 0 .05.009.069.027-.035-.13.035-.2.208-.208a7.42 7.42 0 0 1-.442-.846h-.029zm-.935.963l-.377.235c-.026.399-.104.672-.234.82a1.704 1.704 0 0 1 .364.013.711.711 0 0 1 .313.117c.069-.26.164-.473.286-.638-.226-.174-.343-.356-.352-.547zm-.507 1.354c-.339 0-.551.186-.638.56-.121.529-.139 1.357-.052 2.485.104 1.285.226 2.343.365 3.176l-.17.248h4.334l-.898-.365c.26-1.275.586-2.21.977-2.805.39-.594.455-.978.195-1.152a.444.444 0 0 0-.248-.082c-.178 0-.355.127-.533.382l-1.744 2.499-.313-.026c-.19-1.944-.394-3.393-.611-4.347-.104-.382-.326-.573-.664-.573zm-.385-6.667c.255 0 .427.148.515.445l1.106 2.916h.573a3.264 3.264 0 0 0-.156.924c.06.234.176.475.345.722.163.24.13.359-.099.359h-.025c.06.086.052.134-.026.142.07.044.076.083.02.118-.057.034-.076.117-.059.247.026.39.128.705.306.944.146.195.279.293.399.293a.216.216 0 0 0 .076-.014.458.458 0 0 1 .154-.034c.052 0 .087.018.106.054.035.065-.01.132-.136.202a.324.324 0 0 1-.16.037.987.987 0 0 1-.413-.122c-.256-.126-.488-.514-.696-1.165h-.365a.993.993 0 0 0-.26.456c.312.998.568 2.473.768 4.425l1.653-2.343a.83.83 0 0 1 .533-.214c.138 0 .28.04.423.123.334.191.497.401.488.631-.008.23-.167.606-.475 1.126-.308.52-.587 1.284-.84 2.29l.99.43-.065.508h-5.558l.573-.677c-.278-2.698-.375-4.423-.293-5.173.083-.751.271-1.165.566-1.243.209-.209.291-.434.248-.677l-.339-.599c-.503.382-.755.885-.755 1.51v6.859h-.299V8.89c.009-.754.321-1.344.937-1.77l-.846-1.51h.599l-.924-2.407c-.13-.33-.072-.542.175-.638a.89.89 0 0 1 .32-.065c.118 0 .226.03.325.091.06-.2.236-.312.527-.338a.715.715 0 0 1 .064-.003zm11.262.444c.69 0 1.247.553 1.251 1.244v.007c0 .693-.558 1.251-1.251 1.251a1.248 1.248 0 0 1-1.251-1.251c0-.693.558-1.251 1.251-1.251zm-1.612 3.591c.048.077.115.144.05.144a.306.306 0 0 1-.07-.012.289.289 0 0 1-.086.025c-.053 0 .068-.102.106-.157zm1.103-.27c-.288 0-.406.414-.19.59a.258.258 0 0 0 .186.075c.145 0 .292-.11.31-.265.04-.187-.098-.4-.297-.4a.283.283 0 0 0-.009 0zm.086-.247c.033 0 .065 0 .097.002.243.02.51.125.64.342.053.291.042.634-.187.855-.156.193-.457.25-.518.516-.022.129.053.337-.088.337a.243.243 0 0 1-.067-.01c-.2-.295-.38-.609-.629-.866.125-.132.262-.339.107-.502-.106-.144-.357-.38-.033-.397.14-.232.425-.277.678-.277zm1.353.348c.436.388.582.986.684 1.538.043.247.066.498.09.747-.222-.237-.528-.463-.861-.463a.725.725 0 0 0-.176.021c-.202 0-.31.369-.339.384l-.11-.666c.43-.149.625-.611.686-1.029.028-.175.037-.354.026-.532zm-.047 2.49a.724.724 0 0 1 .414.237c.182.733.118 1.494.104 2.24.012.27-.03.55-.016.826.005 1.045.217 2.078.185 3.124l-4.995.012.643-1.316c-.313-.742-.702-1.452-.999-2.202-.128-.344-.287-.696-.287-1.07.015-.115.068-.157.134-.157.12 0 .288.136.368.222.626.602 1.133 1.314 1.633 2.02.465.676.91 1.367 1.286 2.096-.027-1.617-.108-3.24.097-4.85.029-.352.179-.678.342-.987l.018 2.25h1.03c-.01-.815-.03-1.632.043-2.444zm-.883-6.356c-.933 0-1.695.761-1.695 1.695 0 .584.3 1.101.752 1.406a2.27 2.27 0 0 0-.246.09c-.122.057-.245.122-.302.25-.063.101-.119.206-.243.24-.345.252-.466.734-.38 1.138.011.007.023.01.036.01.103 0 .279-.177.352-.177.006 0 .01 0 .015.003.05.233.218.408.31.622.168.306.38.585.626.832-.236.423-.432.877-.474 1.365-.115.845-.134 1.7-.134 2.553-.643-.882-1.305-1.764-2.106-2.51a.886.886 0 0 0-.573-.223.6.6 0 0 0-.403.145c-.29.287-.247.73-.171 1.094.214.926.62 1.792.982 2.666.05.192.263.402.093.585-.209.336-.503.616-.694.962-.101.238-.087.504-.055.754l6.488-.016c.085-.846.085-1.7-.004-2.546-.042-.746-.056-1.492-.088-2.239l.44-.039c-.094-1.1-.128-2.208-.331-3.295-.128-.606-.277-1.234-.653-1.74a1.804 1.804 0 0 0-.666-.487c.488-.298.82-.831.82-1.443v-.012a1.697 1.697 0 0 0-1.696-1.683zm4.07 4.793V8.36h2.907V7.043h-.57c-.166.293-.355.483-.569.57a.818.818 0 0 1-.635 0c-.21-.087-.397-.277-.563-.57zM36.7 2.25v2.183h-.66v2.67h.713V5.43h.825V3.14h1.02c.183 1.424.677 2.481 1.484 3.174.806.692 1.803 1.093 2.99 1.204 1.186.11 1.965.267 2.337.468.371.202.557.406.557.611h1.448c-.222-.53-.518-.933-.89-1.21-.372-.277-1.062-.45-2.07-.522-1.009-.071-1.816-.203-2.42-.397a3.858 3.858 0 0 1-1.62-1.032c-.475-.495-.839-1.557-1.092-3.186zm-.267 11.678L34.89 15.75h.752l.79-.942.797.942.774-.942.798.942.79-.942.797.942.79-.942.797.942.774-.942.797.942.798-.942.774.942.797-.942.79.942h.752l-1.542-1.822-.797.88-.774-.88-.798.88-.797-.88-.774.88-.798-.88-.79.88-.797-.88-.79.88-.797-.88-.774.88-.797-.88z"/><path d="M8.22.375c-9.625 0-9.625 17.25 0 17.25m0-17.25h39.238M8.22 17.625h39.238M55.145.375v17.25M47.458.375c9.625 0 9.625 17.25 0 17.25" fill="none" stroke="#000"/></svg>