<svg xmlns="http://www.w3.org/2000/svg" width="54.14" height="18"><path d="M13.191 2.851v4.26h-2.858v-4.26zM9.745 2.25V7.7h4.047V2.25zM8.22 9.019v6.731h.562V9.594h5.96v5.555l-2.3.013-.013-3.778h-.588v4.366h3.476V9.019zm13.367-2.794q.215 0 .298.216-.106-.042-.181-.042-.16 0-.183.191-.033.34-.184.34h-.007q-.158-.008-.224-.14 0-.1.249-.332.116-.233.232-.233zm.237.297q.061 0 .061.085-.03.334-.256.334-.02 0-.042-.003v-.033l.066-.149q.016-.233.133-.233h.016l.022-.001zm-1.477.188q-.15 0-.277.087-.158.108-.092.374h.067q.016-.166.1-.274.082-.108.273-.108.19 0 .19-.05l-.19-.024q-.036-.005-.07-.005zm-.004.146q-.199 0-.199.281v.1q.017.003.03.003.056 0 .07-.053.282-.066.414-.232-.116-.1-.315-.1zm-.298.43q-.083.117-.017.29.066.175.83.241l.115-.05q-.961-.066-.862-.447l-.066-.033zm1.078-.795q-.216.149-.166.381.033.1.199.166.149.066.116.348.033.614-.514.945-.083-.199-.324-.215l-.044-.002q-.205 0-.296.143-.07.11-.164.11-.04 0-.084-.02-.027.008-.051.008-.15 0-.165-.272.166-.017.232-.067.067-.05.25-.116-.082-.092-.166-.092-.038 0-.075.018-.125.058-.257.09-.282-.049-.216-.281-.166-.183-.116-.315.365-.232.605-.44.24-.207.54-.248.298-.042.696-.141zm.978-.15q.431.034.912.49.48.456.564.937-.896 1.31-2.537 2.089-.067-.697.232-1.393.547-.497.48-.837-.066-.34.216-.456.63-.116.133-.83zm6.084 2.801l.051.002q.746.133 1.36.671.614.54.879 1.335.05.083-.365.083-1.741-.73-2.205-1.476-.205-.615.28-.615zm-4.426-.827q1.033.99 2.635.99.274 0 .565-.028.03-.01.057-.01.242 0 .242.805-1.642.73-2.587.796-.28.02-.568.02-.684 0-1.413-.11-.158-.025-.293-.025-.751 0-.794.746-.696-.83-.497-1.128 1.642-.73 2.653-2.056zM21.74 5.9l-.078.001q-.754.025-.804.307-.298.116-.555.19-.257.075-.481.274-.224.2-.498.357-.273.157-.323.273-.083.183.15.398 0 .183.165.299.033 0 .075.282.041.281.307.414.331-.05.43-.19.085-.12.218-.12.023 0 .048.003.166.025.249.274-.067.249-.191.879t0 .928q.124.299-.44.672-.43.285-1.178.285-.233 0-.496-.028-.576-.16-.926-.16-.376 0-.492.185-.224.356.041.622h.647q1.489.053 2.521.053 2.488 0 2.33-.31-.18-.353.292-.353.116 0 .271.021.244.033.535.033.65 0 1.538-.166 1.285-.24 1.675-.447.25-.133.54-.133.163 0 .339.041.489.117.588.415-.216.398-.752.398-.246 0-.558-.083-.522-.14-.856-.14-.304 0-.454.115-.315.24-.033.572h5.39q.547-.497.231-1.152-.315-.655-1.06-1.244-.747-.588-1.642-1.07.234-.204.451-.204.277 0 .527.329.263.345.445.345.13 0 .218-.17-.59-1.058-1.233-1.058-.042 0-.085.004-.688.075-1.252.771-.683.172-1.272.172-1.286 0-2.127-.818-.465-1.178-1.111-1.634Q22.45 5.9 21.74 5.9zm14.11 2.646v3.747h-2.514V8.546zm-3.03-.528v4.792h3.558V8.018zm6.257-5.396q-.218 0-.218.257 0 .218.218.218.231-.013.231-.244 0-.23-.23-.23zm-.846.167v.23l-.5.09q.23-.243.5-.32zm.026.308q.294.23.102.346-.295-.103-.436-.27l.334-.076zm.897-.59q.603 0 .962.461.359.462.385 1.424.936.192 1.243.846.05.424-.19.424h-.015q-.256-.014-.404-.142-.053-.046-.08-.046-.048 0-.016.142.051.225.564.545.513.321.084.533-.107.052-.227.052-.365 0-.857-.482-.654-.641-.692-.975-.039-.333.269-.615.183-.168.126-.168-.04 0-.19.078-.372.192-.391.564-.02.372.295.815.314.442 1.237 1.122.095.049.214.049.253 0 .62-.222.538-.327-.539-1.007.398-.103.41-.346.5.166 2.809 3.103.615.41.628.603-.013.18-.192.218-.039.008-.078.008-.146 0-.307-.111-.718.346-1.391.359h-.07q-.626 0-1.04-.218.424.372.295.782-.062.2-.094.2-.034 0-.034-.225 0-.436-1.115-.834v.487q-.066.276-.105.276-.037 0-.05-.25-.076-.551-.365-1.186-.288-.635-.917-1.757-.628-1.122-.801-1.616-.173-.493-.16-.916.012-.424-.173-.622-.186-.2-.11-.43.077-.23-.23-.436v-.218q.333-.27.692-.27zm2.437 7.386q.628.18.628.423l-.423 1.577q-.052.282-.346.282h-.513v-.025l.654-2v-.257zM39.2 2.25h-.047q-.5 0-1.013.41-.295.103-.603.475.424.385.77.475.038.18.243.5.013.846.231 1.404.218.558 1.462 2.994.616 1.282.616 1.577 0 .45-.565 2.014 0 .09-.769.14-1.154.039-1.154.321 0 .167.154.167h3.41q.321-.257.36-.436.308.128.333.346.043.173.123.173.015 0 .031-.006.103-.039.103-.167-.09-.346-.45-.667l.411-1.73q1.244-.04 2.167-.398.171.038.314.038.285 0 .456-.154.256-.23-.103-.718-.782-.782-1.487-1.718-1.45-1.783-1.988-2.065-.18-.372-.43-.59-.25-.218-.903-.538-.013-.757-.353-1.308-.332-.539-1.32-.539zm-.82 11.748c-.097 0-.195.012-.294.036-.196.048-.41.158-.64.328H32.82v1.024h4.627c.23.17.443.28.64.328a1.228 1.228 0 0 0 .583 0c.193-.048.386-.158.579-.328h.178c.185.17.376.28.573.328a1.233 1.233 0 0 0 .59 0c.196-.048.405-.158.628-.328h4.672v-1.024h-4.672a1.743 1.743 0 0 0-.629-.328 1.233 1.233 0 0 0-.59 0 1.317 1.317 0 0 0-.572.328h-.178a1.399 1.399 0 0 0-.579-.328 1.194 1.194 0 0 0-.29-.036z"/><path d="M8.22.375c-9.625 0-9.625 17.25 0 17.25m0-17.25h37.67M8.22 17.625h37.67M53.577.375v17.25M45.89.375c9.625 0 9.625 17.25 0 17.25" fill="none" stroke="#000"/></svg>