<svg xmlns="http://www.w3.org/2000/svg" width="56.059" height="18"><path d="M9.777 3.093q1.51.22 1.579 1.382v8.382q-.706-.843-2.536-1.184l.957-8.58zM9.35 2.25L8.22 12.272q2.52.289 3.136 1.8v1.678h.752V4.475q0-1.883-2.757-2.225zm8.686.301q.2 0 .277.2-.099-.039-.169-.039-.149 0-.17.178-.03.316-.17.316h-.007q-.146-.008-.208-.131 0-.092.231-.308.108-.216.216-.216zm.22.275q.057 0 .057.08-.028.31-.238.31-.019 0-.04-.003v-.03l.062-.139q.015-.216.124-.216h.015l.02-.002zm-1.37.175q-.14 0-.259.082-.146.1-.085.346h.062q.015-.154.092-.254t.254-.1q.178 0 .178-.046l-.178-.023Q16.917 3 16.885 3zm-.005.135q-.185 0-.185.262v.093q.016.003.029.003.051 0 .064-.05.262-.061.385-.215-.108-.093-.293-.093zm-.277.4q-.077.109-.015.27.061.162.77.223l.107-.046q-.893-.061-.8-.415l-.062-.031zm1-.738q-.2.138-.153.354.03.092.185.154.138.061.107.323.031.57-.477.878-.077-.185-.3-.2l-.041-.002q-.191 0-.275.132-.065.103-.153.103-.037 0-.078-.018-.025.006-.047.006-.14 0-.153-.252.154-.016.216-.062.061-.046.23-.108-.074-.085-.153-.085-.034 0-.07.016-.115.054-.238.085-.262-.046-.2-.262-.154-.17-.108-.292.339-.216.562-.408.223-.193.5-.231.277-.039.647-.131zm.91-.139q.4.031.846.454.446.424.523.87-.831 1.217-2.355 1.94-.062-.646.215-1.293.508-.462.447-.778-.062-.315.2-.423.585-.108.123-.77zm5.648 2.6l.048.002q.693.123 1.262.624.57.5.816 1.24.047.076-.338.076-1.617-.677-2.048-1.37-.19-.571.26-.571zm-4.11-.768q.96.92 2.447.92.255 0 .525-.027.028-.009.053-.009.224 0 .224.748-1.524.678-2.401.74-.26.018-.528.018-.635 0-1.312-.103-.147-.023-.272-.023-.698 0-.737.692-.646-.77-.462-1.046 1.525-.678 2.464-1.91zM18.178 2.25l-.072.001q-.7.023-.747.285-.277.108-.515.177-.239.07-.447.254-.208.185-.462.331-.254.146-.3.254-.077.17.139.37 0 .17.154.277.03 0 .069.262.038.261.285.384.308-.046.4-.177.079-.11.202-.11.021 0 .044.003.154.023.231.254-.061.23-.177.816-.115.585 0 .862.116.277-.408.623-.399.265-1.094.265-.216 0-.46-.026-.535-.148-.86-.148-.35 0-.457.171-.208.331.038.578h.6q1.383.05 2.341.05 2.31 0 2.163-.29-.167-.327.272-.327.108 0 .252.02.226.03.497.03.603 0 1.427-.153 1.193-.223 1.555-.416.232-.123.502-.123.151 0 .314.038.454.108.547.385-.2.37-.699.37-.228 0-.517-.077-.485-.13-.796-.13-.282 0-.42.107-.293.223-.032.53h5.004q.508-.461.216-1.07-.293-.607-.986-1.154-.692-.546-1.524-.993.217-.19.42-.19.256 0 .489.306.243.32.413.32.12 0 .202-.159-.548-.982-1.145-.982-.039 0-.079.005-.639.069-1.162.715-.634.16-1.181.16-1.194 0-1.975-.76-.431-1.093-1.032-1.517-.57-.401-1.229-.401zm8.155 7.89c.225.32.28.715.299 1.095-.009.18.005.375-.07.543-.21-.21-.192-.694-.196-.965 0-.267-.01-.486-.033-.672zm-12.015-.3l10.965.011c-1.602 1.519-3.209 2.26-5.63 2.26-2.43 0-3.9-.723-5.335-2.272zm-.492-.442a.22.22 0 0 0-.167.364c1.592 1.859 3.283 2.79 5.995 2.79 2.64 0 4.442-.894 6.181-2.623.06.166.09.426.09.884.01.51.007 1.353.675 1.412.47-.097.47-.599.473-.99 0-.48-.118-.916-.314-1.247-.196-.331-.487-.578-.839-.578l-12.094-.012zm5.51 4.547c-.1 0-.201.013-.302.037-.203.05-.422.163-.66.338h-4.766v1.055h4.767c.237.175.456.288.659.338a1.265 1.265 0 0 0 .601 0c.199-.05.398-.163.596-.338h.184c.19.175.387.288.59.338a1.27 1.27 0 0 0 .607 0c.203-.05.418-.163.648-.338h4.813V14.32H22.26a1.796 1.796 0 0 0-.648-.338 1.27 1.27 0 0 0-.607 0c-.203.05-.4.163-.59.338h-.184a1.441 1.441 0 0 0-.596-.338 1.23 1.23 0 0 0-.3-.037zM30.13 3.093q1.51.22 1.578 1.382v8.382q-.706-.843-2.536-1.184l.957-8.58zm-.426-.843l-1.131 10.022q2.52.289 3.135 1.8v1.678h.752V4.475q0-1.883-2.756-2.225zm11.018.63q.839 0 1.53.419 1.407.816 2.666.816 1.267 0 2.324-.11v2.177q-1.314-.233-1.896-.233h-.016q-.474 0-1.321.109-3.443.474-4.29.474-1.407 0-2.65-.047-2.13-.124-2.34-.225-.202-.094-.202-.537 0-.435.117-.761.117-.327.389-.466 6.652-.296 7.173-.342-.464-.67-1.437-.67-.315 0-.685.071-1.239.244-1.91.244-.142 0-.258-.01-.66-.063-.614-.63.37.05.766.05.83 0 1.767-.221.463-.107.887-.107zm.198-.63q-.336 0-.665.085-1.329.35-2.34.365-.248 0-.893-.124-.303.28-.303.66 0 .381.241.646-2.541.093-2.541.303-.459.583-.459 1.399 0 .808.428 1.103 1.29.412 5.183.412.622 0 1.267-.062 3.606-.536 4.298-.552h.068q.71 0 2.605.295V3.345l-.015.016q-1.625.186-2.65.21l-.106.001q-.976 0-2.008-.545-1.092-.777-2.11-.777zm-.035 7.092q2.439 0 5.173 1.179-2.734 1.146-5.173 1.146-2.423 0-5.173-1.146 2.75-1.179 5.173-1.179zm0-.753q-3.012 0-6.925 1.916 3.913 1.898 6.925 1.898t6.924-1.898q-3.896-1.916-6.924-1.916zm-1.033 5.305c-.103 0-.207.012-.311.038-.208.051-.434.167-.678.348H33.96v1.084h4.903c.244.18.47.297.678.348a1.301 1.301 0 0 0 .619 0c.204-.051.408-.167.613-.348h.188c.197.18.399.297.607.348a1.307 1.307 0 0 0 .625 0c.208-.051.43-.167.666-.348h4.95V14.28h-4.95c-.236-.181-.458-.297-.666-.348a1.307 1.307 0 0 0-.625 0c-.208.051-.41.167-.607.348h-.188a1.482 1.482 0 0 0-.613-.348 1.265 1.265 0 0 0-.308-.038z"/><path d="M8.22.375c-9.625 0-9.625 17.25 0 17.25m0-17.25h39.59M8.22 17.625h39.59M55.497.375v17.25M47.81.375c9.624 0 9.624 17.25 0 17.25" fill="none" stroke="#000"/></svg>