<svg xmlns="http://www.w3.org/2000/svg" width="67.284" height="18"><path d="M12.138 6.585v4.845h-3.25V6.585zM8.22 5.902v6.196h4.601V5.902zm7.658-2.809q1.51.22 1.58 1.382v8.382q-.707-.843-2.537-1.184l.957-8.58zm-.425-.843L14.32 12.272q2.521.289 3.136 1.8v1.678h.752V4.475q0-1.883-2.756-2.225zm5.812.843q1.511.22 1.58 1.382v8.382q-.706-.843-2.536-1.184l.956-8.58zm-.425-.843l-1.13 10.022q2.52.289 3.136 1.8v1.678h.751V4.475q0-1.883-2.756-2.225zm9.026.325q.215 0 .298.215-.106-.042-.181-.042-.16 0-.183.191-.033.34-.184.34h-.007q-.158-.008-.224-.14 0-.1.249-.332.116-.232.232-.232zm.237.296q.061 0 .061.085-.03.334-.256.334l-.042-.002v-.033l.066-.15q.016-.233.133-.233l.016.001.022-.002zm-1.477.188q-.15 0-.277.088-.158.108-.092.373h.067q.016-.166.1-.274.082-.108.273-.108.19 0 .19-.05l-.19-.024q-.036-.005-.07-.005zm-.004.146q-.199 0-.199.282v.1l.03.002q.056 0 .07-.053.282-.066.414-.232-.116-.1-.315-.1zm-.298.43q-.083.117-.017.291t.83.24l.115-.05q-.961-.066-.862-.447l-.066-.033zm1.078-.795q-.216.15-.166.381.033.1.199.166.149.066.116.348.033.614-.514.946-.083-.2-.324-.216l-.044-.002q-.205 0-.296.143-.07.11-.164.11-.04 0-.084-.019-.027.007-.051.007-.15 0-.165-.272.166-.017.232-.066.067-.05.25-.117-.082-.092-.166-.092-.038 0-.075.018-.125.058-.257.091-.282-.05-.216-.282-.166-.182-.116-.315.365-.232.605-.44.24-.207.54-.248.298-.042.696-.141zm.978-.15q.431.034.912.49.48.456.564.937-.896 1.31-2.537 2.09-.067-.697.232-1.394.547-.497.48-.837-.066-.34.216-.456.63-.116.133-.83zm6.084 2.801l.051.002q.746.133 1.36.672.614.539.879 1.335.05.082-.365.082-1.741-.73-2.205-1.475-.205-.616.28-.616zm-4.426-.827q1.033.99 2.635.99.274 0 .565-.028.03-.01.057-.01.242 0 .242.806-1.642.73-2.587.796-.28.02-.568.02-.684 0-1.413-.112-.158-.024-.293-.024-.751 0-.794.746-.696-.83-.497-1.128 1.642-.73 2.653-2.056zm-2.02-2.414l-.077.001q-.755.025-.805.307-.298.116-.555.19-.257.075-.481.274-.224.2-.498.357-.273.157-.323.273-.083.183.15.398 0 .183.165.299.033 0 .075.282.041.282.307.414.331-.05.43-.19.085-.12.218-.12.023 0 .048.004.166.024.249.273-.067.249-.191.88-.124.63 0 .928.124.298-.44.671-.43.285-1.178.285-.233 0-.496-.028-.576-.16-.926-.16-.376 0-.492.185-.224.357.041.622h.647q1.489.053 2.521.053 2.488 0 2.33-.31-.18-.353.292-.353.116 0 .271.021.244.034.535.034.65 0 1.538-.166 1.285-.24 1.675-.448.25-.133.54-.133.163 0 .339.042.489.116.588.414-.216.399-.752.399-.246 0-.558-.084-.522-.139-.856-.139-.304 0-.454.114-.315.24-.033.573h5.39q.547-.498.231-1.153-.315-.655-1.06-1.244-.747-.588-1.642-1.07.234-.204.451-.204.277 0 .527.33.263.345.445.345.13 0 .218-.172-.59-1.057-1.233-1.057-.042 0-.085.004-.688.075-1.252.771-.683.172-1.272.172-1.286 0-2.127-.818-.465-1.178-1.111-1.634-.614-.432-1.324-.432zm-.638 9.883q-.076.143-.171.315l-.163.945q0 .496.163.925.171.372.429.668-1.727-.315-3.11-.468.868-.515 1.364-1.144.506-.63 1.488-1.24zm4.074-.076q.525.038 1.765.792 1.24.744 2.557 1.23-.963.058-2.099.41-1.145.344-2.404.516.2-.238.4-.677.191-.44.191-.935 0-.506-.18-.945-.096-.21-.23-.391zm-2.007-.44q.33 0 .633.135.325.133.573.362.248.22.4.534.125.315.144.678.019.362-.115.677-.143.315-.362.563-.23.258-.544.4-.315.134-.678.144h-.047q-.327 0-.63-.124-.324-.134-.572-.353-.239-.22-.382-.534-.134-.315-.153-.687 0-.353.134-.668.124-.315.343-.563.23-.258.544-.382.315-.171.668-.18l.044-.002zm-.053-.646q-.624 0-1.231.132-1.317.286-2.672 1.708-1.355 1.412-2.375 1.507l-.02.668q2.319.2 4.551.61.835.154 1.757.154 1.543 0 3.329-.43 2.843-.687 3.606-.83h1.26v-.82H38.3q-.925-.315-2.48-1.25-1.546-.935-2.949-1.27-.75-.18-1.478-.18zm13.512-8.057v4.708h-3.158V2.914zm-3.807-.664v6.021h4.471V2.25zm3.807 8.143V15.1h-3.158v-4.708zm-3.807-.664v6.021h4.471V9.729zm9.718-2.502c.81.91 1.48 1.948 2.077 3.003.126.155-.016.297-.12.444-.393-1.25-1.299-2.215-1.957-3.447zm-.784-4.591c.067.314-.057.678-.296.785l.077.163c.298-.142.585-.566.627-.947.408.024.52.33.583.687.076.243-.001.833.307.935.91.353 1.607.76 2.232 1.377 1.078 1.348 2.205 2.654 3.283 4.004.419.525.802 1.007 1.113 1.37-1.637-1.224-3.467-2.16-5.262-3.133-.954-.519-1.864-.942-1.864-2.084 0-.613 1.131-1.127 1.084-1.207-.004-.007-.017-.01-.037-.01-.232 0-1.42.44-1.42 1.37 0 .257.068.496.188.718h-.006c-1.303-.69-1.096-2.088-1.045-3.32-.542-.03-.988-.325-1.502-.448.399-.052.796-.118 1.196-.16a.317.317 0 0 0-.19.12c-.006.132.143.19.287.19.142 0 .28-.056.266-.151a.363.363 0 0 0-.31-.164c.2-.029.464-.07.689-.095zm2.276 7.922c.117.284.178.584.244.882.19-.154.374-.312.53-.5-.102.552-.291 1.108-.75 1.108-.279 0-.408-.188-.23-.757.085-.268.152-.525.206-.733zm-.499-2.73c1.859.99 3.699 1.99 5.457 3.151.414.336.782.71 1.032 1.06-.165.257-.48.345-.772.365-1.488-.052-2.07-1.486-2.856-2.511l-.428-.52.074.666c.005.12.128.687-.055.687a.136.136 0 0 1-.054-.013l-.752-.9c-.08.053-.156.113-.239.162-.373-.755-.919-1.457-1.407-2.147zM50.206 2.25c-.39 0-.79.07-1.17.105-.452.221-.91.053-1.385.225-.343.154-.439.466-.58.778a1.75 1.75 0 0 1 .558-.095c.553 0 .998.279 1.583.427-.001.293-.047.626-.07.962-.09.908.39 1.706 1.081 2.274.496 1.104 1.182 1.951 1.683 2.813-.06.387-.42 1.847-.597 2.372-.348.058-.72.091-1.085.091a5.56 5.56 0 0 1-.47-.019c-.282 0-.591.481-.895.738l6.171.048c-.157-.556-1.254-.851-1.643-.851a.544.544 0 0 0-.06.003c.137-.394.309-.763.358-1.313.172.154.365.321.606.338.295-.022.414-.223.452-.486.667 1.105 1.414 2.006 2.784 2.139.473-.023 1.063-.23 1.19-.733.628-.035.168-.647-.065-.887-1.709-1.849-3.119-3.96-4.807-5.823-.65-.641-1.384-1.075-2.293-1.435-.067-.166-.09-.402-.134-.662-.048-.284-.2-.749-.476-.893a2.117 2.117 0 0 0-.736-.116zm1.954 11.896c-.09 0-.179.011-.269.033-.18.045-.375.145-.585.3H47.07v.938h4.236c.21.156.405.256.585.3a1.124 1.124 0 0 0 .535 0 1.28 1.28 0 0 0 .53-.3h.162c.17.156.345.256.525.3a1.129 1.129 0 0 0 .54 0c.18-.044.37-.144.575-.3h4.276v-.937h-4.276a1.596 1.596 0 0 0-.576-.3 1.129 1.129 0 0 0-.54 0c-.18.044-.354.144-.524.3h-.163a1.28 1.28 0 0 0-.53-.3 1.093 1.093 0 0 0-.265-.034z"/><path d="M8.22.375c-9.625 0-9.625 17.25 0 17.25m0-17.25h50.814M8.22 17.625h50.814M66.721.375v17.25M59.034.375c9.625 0 9.625 17.25 0 17.25" fill="none" stroke="#000"/></svg>