<svg xmlns="http://www.w3.org/2000/svg" width="245.4" height="18"><path d="M6.174.386c.221 0 .566.052.757.104.832.223-.005.968-.54.968a.513.513 0 0 1-.073-.005c-.353.074.06.199.502.199.272 0 .555-.047.681-.18.072-.077.131-.108.182-.108.185 0 .258.417.406.623.74.245 1.203.913 1.682 1.486 1.377 1.65 2.617 3.405 3.917 5.115-.357-.105-.743-.31-1.097-.48-1.62-.783-3.347-1.401-4.814-2.455-.732-.525-1.712-1.134-1.793-2.056-.061-.702 1.227-1.337 1.134-1.717-.011-.044-.043-.064-.09-.064-.274 0-1.077.688-1.288 1.09-.081.155-.14.217-.182.217-.146 0-.077-.757.014-.93.31-.589-.628-1.325-.1-1.664-.016.088.002.337.312.337.325 0 .305-.4.205-.453a.435.435 0 0 1 .185-.027zm.616 5.477c.254.9.626 1.766 1.065 2.59.217.405 1.13 1.049.485 1.377a.194.194 0 0 1-.052.007c-.257 0-.519-.495-.855-.517a12.843 12.843 0 0 0-.265-1.873c-.103-.505-.36-1.176-.378-1.584zm.705.597c.795.576 1.63 1.093 2.472 1.6.222.497.034 1.222.149 1.805-.538-.363-1.112-.378-1.457-1.066-.385-.766-1.019-1.494-1.164-2.34zm.226 3.6c.134.235.335.383.538.383.16 0 .32-.091.45-.304.186.205.23.926.23 1.325.002.411-.214.446-.465.446l-.155-.002a.93.93 0 0 0-.278.032.453.453 0 0 1-.138.02c-.197 0-.423-.095-.636-.095-.02 0-.04 0-.06.002.001-.52.36-1.225.514-1.808zm1.603-2.968c1.69.766 3.36 1.59 5.054 2.351.648.679 1.239 1.448 1.96 2.049.538.45-.155.358-.474.418-.244.046-.492.08-.738.116-.87-.87-1.745-1.738-2.58-2.641-.909-.982-2.145-1.538-3.222-2.293zm-.512 5.693c1.105 0 2.211.013 3.316.042.556.014 1.197-.023 1.695.164-.658.042-2.304.058-4.042.058a201.337 201.337 0 0 1-5.037-.05c-.51 0-.097-.173.188-.173a.55.55 0 0 1 .076.005c1.267-.03 2.535-.046 3.804-.046zm-4.862.743c.75.01 1.5.02 2.25.045.495.017.989.023 1.483.023 1.398 0 2.796-.05 4.192-.05.188 0 .375.001.562.003-1.161.634-2.421 1.17-3.766 1.214-.152.005-.3.008-.445.008-.76 0-1.443-.08-2.196-.351-.656-.236-1.506-.523-2.08-.892zm6.649 1.558a.144.144 0 0 0-.078.02c-.256.16.368 1.331.895 1.613.04.021.078.03.115.03.192 0 .33-.259.247-.445-.214-.48-.87-1.218-1.18-1.218zm-4.848.055c-.042 0-.105.026-.194.086-.432.29-1.443 1.067-.823 1.496a.22.22 0 0 0 .129.042c.224 0 .442-.354.556-.556.12-.21.574-1.068.332-1.068zm4.06.177c-.274 0 .026 1.476.502 1.79.031.022.07.031.109.031.106 0 .222-.069.242-.173.123-.637-.473-1.61-.846-1.647a.08.08 0 0 0-.008 0zm-3.278.017c-.05 0-.13.062-.244.216-.302.408-1.043 1.256-.436 1.571.04.021.078.03.114.03.254 0 .4-.478.49-.72.081-.222.268-1.097.076-1.097zm2.271.162c-.023 0-.043.012-.06.037-.245.368-.164 1.491.42 1.817a.196.196 0 0 0 .097.026c.172 0 .306-.25.276-.423-.07-.41-.517-1.457-.733-1.457zm-1.329-.011a.1.1 0 0 0-.058.023c-.391.291-1.017 1.466-.379 1.845.035.02.068.03.101.03.191 0 .35-.31.375-.504.04-.334.162-1.394-.039-1.394zm.655-.018a.08.08 0 0 0-.038.01c-.324.174-.62 1.573-.014 1.945a.175.175 0 0 0 .092.028c.164 0 .306-.252.306-.421-.002-.46-.123-1.562-.346-1.562zM6.352 0c-.205 0-.408.02-.598.054-.567.104-1.44.31-1.43.996a.711.711 0 0 1 .192-.028c.55 0 .663.789.553 1.27-.225.98.26 1.965.898 2.707.425 1.269.96 2.595.954 3.928-.003.556.408.592.256 1.158-.136.51-.373 1.566-.883 1.69a2.18 2.18 0 0 1-.182.007c-.323 0-.663-.056-.984-.056-.254 0-.497.036-.71.162-.444.264-.778.46-1.31.46l-.071-.001-.078-.002c-.895 0-1.953.472-2.118 1.411-.244 1.391-.044 2.827-.036 4.233.205.005.412.011.618.011.163 0 .325-.004.487-.016-.076-.844-.133-1.694-.079-2.539.039-.601-.113-1.44.465-1.781a.738.738 0 0 1 .383-.107c.506 0 1.005.499 1.472.712 1.306.596 2.697 1.036 4.147 1.036h.1c1.756-.025 3.375-.751 4.878-1.576a.616.616 0 0 1 .41-.148c.28 0 .562.17.622.463.262 1.292.154 2.632.067 3.94.157.012.315.015.473.015.156 0 .313-.003.47-.003.052 0 .105 0 .158.002.008-.911.089-1.823.047-2.733-.033-.721.107-1.55-.417-2.143-.68-.771-1.763-.76-2.704-.825a1.712 1.712 0 0 0-.117-.004c-.125 0-.257.01-.386.01a.973.973 0 0 1-.439-.08c-.294-.302-.66-.36-1.04-.36-.228 0-.462.021-.689.021a2.75 2.75 0 0 1-.22-.008c-.043-.588-.075-1.177-.107-1.766a.155.155 0 0 1 .111-.045c.294 0 .78.686 1.034.686.076 0 .13-.06.154-.217.094-.642-.155-1.343-.146-2.018h.016c.285 0 .766.368 1.053.617.898.779 1.67 1.717 2.513 2.566.334.38.681.803 1.163.803.13 0 .269-.031.42-.101.48-.223 1.5.065 1.609-.544-.462-.54-.994-1.018-1.47-1.547.58.274 1.144.678 1.747.941a.77.77 0 0 0 .24.078c.18 0-.489-.521-.668-.602-.665-.3.624-.188.098-.605-1.155-.915-2.466-1.648-3.699-2.473-.79-.998-1.506-2.067-2.3-3.068-.66-.774-1.221-1.636-1.941-2.356C8.895 1.783 8.245 1.66 8.2.937 7.858.252 7.09 0 6.352 0zm19.801 0c-.11 0-.22.014-.331.04-.222.055-.463.179-.722.371h-5.222v1.155H25.1c.26.192.5.316.722.37a1.386 1.386 0 0 0 .659 0c.217-.054.435-.178.652-.37h.201c.21.192.425.316.647.37a1.392 1.392 0 0 0 .665 0c.222-.054.458-.178.709-.37h5.272V.41h-5.272c-.251-.192-.487-.316-.71-.37a1.392 1.392 0 0 0-.664 0 1.487 1.487 0 0 0-.647.37h-.2a1.579 1.579 0 0 0-.653-.37 1.347 1.347 0 0 0-.328-.04zm1.196 4.166c.152 0 .225.097.249.274.345 3.76.578 6.394.674 7.913.105 1.51.065 2.442-.096 2.811-.16.362-.418.546-.827.546-.41 0-.7-.184-.86-.546-.16-.37-.193-1.301-.096-2.811.096-1.519.329-4.154.674-7.913.025-.177.121-.274.282-.274zm0-.602c-.514 0-.796.297-.828.876-.321 3.27-.522 5.59-.659 7.254-.915-.338-1.863-.579-2.811-.828-1.037-.337-1.76-1.414-1.502-2.506.184-.828.923-1.454 1.743-1.454.128 0 .257.016.385.048.756.185 1.302.972 1.085 1.735-.129.45-.546.796-.996.796a.822.822 0 0 1-.715-.394.562.562 0 0 1-.024-.506.396.396 0 0 1 .2-.177c.065.056.137.08.21.08.24 0 .481-.249.32-.506a.73.73 0 0 0-.754-.096.91.91 0 0 0-.474.474c-.153.337-.113.69.048.98a1.355 1.355 0 0 0 1.197.707c.707 0 1.341-.53 1.542-1.213.305-1.077-.45-2.145-1.486-2.41a2.463 2.463 0 0 0-.538-.064 2.31 2.31 0 0 0-1.069.265 2.478 2.478 0 0 0-1.229 1.606c-.321 1.414.603 2.756 1.936 3.166.948.265 1.936.586 2.884.907-.008.065-.024.185-.024.25-.12 1.638-.048 2.674.225 3.108.273.434.731.659 1.334.659.602 0 1.036-.225 1.301-.659.241-.393.321-1.357.25-2.763.77.056 3.333 1.542 4.28 2.763l.395-.578c-1.8-1.711-3.632-2.458-4.7-2.731-.112-1.655-.362-4.226-.723-7.913-.048-.579-.305-.876-.803-.876zm2.434 11.873c.12 0 .177.065.177.201v1.888h-5.246v-1.888c0-.136.056-.2.168-.2.137 0 .29.28.506.827.21.546.868.827 1.96.827 1.085 0 1.744-.28 1.953-.827.209-.546.353-.828.482-.828zm-4.973-.45c-.394 0-.578.21-.578.651V18h6.201v-2.362c0-.442-.2-.65-.602-.65-.394 0-.69.28-.9.851-.225.57-.747.852-1.582.852-.852 0-1.398-.282-1.607-.852-.225-.57-.538-.852-.932-.852zM41.603 0q-1.455 0-3.257.402-.755.194-.686.617.062.422.347.422 2.127-.596 3.59-.596 1.461 0 3.706.97 2.253.97 3.923.97v-.762q-1.67 0-3.923-1.011Q43.058 0 41.603 0zm-1.026 2.924q-.041.09-.076.174-.125.27-.125.582 0 .305.125.575.09.215.229.38-.028-.013-.056-.013-.582-.125-1.51-.554.242 0 .769-.659.243-.298.644-.485zm2.64.118q.97.34 2.197 1.026-1.31.402-2.397.568.145-.166.228-.381.125-.27.125-.575 0-.312-.125-.582l-.027-.056zm-1.503-.333q.346.014.776.104l.11.111q.146.132.243.32.09.193.097.415.007.222-.069.416-.083.194-.222.34-.145.152-.332.228-.132.07-.27.083-.16.014-.312.014-.132-.028-.243-.07-.2-.076-.346-.221-.146-.139-.236-.326-.09-.194-.09-.409-.014-.228.07-.422.082-.194.214-.34.139-.139.326-.215.131-.028.284-.028zm.007-.623q-1.504 0-2.155.797-.659.797-.929.914h-.963v.645h.977q.513.215.998.395.485.173.485.755l-.402-.014v.645q.347.228.347.887v2.37h.783V5.412q4.635 5.066 7.366 5.066.998-.084.998-1.088 0-.693-.7-.742-.742 0-.742.742 0 .47.444.47.215 0 .221-.235.007-.235-.221-.235 0-.27.284-.27.242 0 .242.27 0 .56-.512.56-2.343 0-6.493-4.6 1.552 0 4.38-1.012l3.097.173V3.77l-3.098.014q-2.682-1.698-4.407-1.698zM39.615 15.38c.735 0 1.656.377 2.1.823.39.39.441.906.456 1.386h-5.09c.015-.48.066-.997.455-1.386.446-.446 1.344-.823 2.08-.823zm0-.412c-.872 0-1.81.403-2.36.953-.564.564-.628 1.307-.628 1.862V18h5.977v-.217c0-.555-.043-1.298-.607-1.862-.55-.55-1.51-.953-2.382-.953zm7.513-2.651q.555 0 1.132.242l-1.097 1.11-1.125-1.11q.534-.242 1.09-.242zm-2.4 1.452l1.11 1.112-1.11 1.11q-.485-1.153 0-2.222zm4.8.057q.484 1.154 0 2.223l-1.111-1.112 1.11-1.11zm-.869-.94q.342.157.541.542l-1.51 1.524 1.496 1.495q-.185.37-.555.542l-1.496-1.496-1.467 1.467q-.37-.228-.542-.555l1.468-1.453-1.539-1.539q.157-.37.556-.527l1.524 1.524 1.524-1.524zm-1.496 3.305l1.111 1.111q-.54.242-1.096.242t-1.126-.242l1.111-1.111zm-.028-4.344q-1.467 0-2.315.954-.847.954-.847 2.094 0 1.282.99 2.186.99.905 2.143.919 1.396-.014 2.272-.961.876-.948.876-2.144l-.014.028q.014-1.082-.862-2.08-.876-.996-2.243-.996zM59.987 0c-.136 0-.272.017-.408.05-.274.067-.57.22-.89.457h-6.435V1.93h6.435c.32.237.616.389.89.456a1.707 1.707 0 0 0 .812 0c.268-.067.536-.22.804-.456h.247c.258.237.524.389.797.456a1.715 1.715 0 0 0 .82 0c.273-.067.565-.22.874-.456h6.497V.507h-6.497c-.31-.238-.6-.39-.874-.457a1.715 1.715 0 0 0-.82 0c-.273.067-.539.22-.797.457h-.247c-.268-.238-.536-.39-.804-.457a1.66 1.66 0 0 0-.404-.05zM55.47 13.966c-.52.04-.806.3-.86.778.068.519.354.792.86.82.504-.028.77-.301.798-.82-.041-.478-.307-.737-.799-.778zm.06-1.72c.37 0 .71.068 1.025.205a2.7 2.7 0 0 1 1.392 1.382c.137.307.205.631.205.972 0 .355-.068.686-.205.994a2.606 2.606 0 0 1-2.416 1.546c-.369 0-.714-.065-1.034-.195a2.468 2.468 0 0 1-.83-.542 2.661 2.661 0 0 1-.553-.81 2.417 2.417 0 0 1-.204-.993c0-.34.068-.665.204-.972.137-.307.321-.58.553-.82a2.6 2.6 0 0 1 1.864-.767zm-.04-.696a3.187 3.187 0 0 0-2.294.952 3.412 3.412 0 0 0-.686 1.024 3.1 3.1 0 0 0-.256 1.259c0 .45.086.87.256 1.26.171.388.4.726.686 1.013A3.25 3.25 0 0 0 55.49 18a3.1 3.1 0 0 0 1.26-.256c.388-.17.73-.4 1.023-.686.294-.287.526-.625.696-1.014a3.1 3.1 0 0 0 .256-1.259 3.1 3.1 0 0 0-.256-1.26 3.319 3.319 0 0 0-1.72-1.72 3.1 3.1 0 0 0-1.26-.255zm5.768-4.157c-.126 0-.435.149-.145.15.048 0 .152.015.23.015.092 0 .146-.02.018-.109-.03-.021-.059-.055-.098-.056h-.005zm4.323-2.864v.618a3.9 3.9 0 0 1 .112-.002c.192 0 .39.025.522.184.353.392.469.945.475 1.457.005.476-.52 1.692-1.231 1.692a2.183 2.183 0 0 0-.089-.001c-.097 0-.195.005-.292.005-.092 0-.183-.005-.272-.022-.366-.164-.826-.92-.826-1.557 0-1.034.408-1.53.832-1.717a.678.678 0 0 1 .26-.04l.124.002h.045v-.619zm-4.274 2.764h.01c.224.052.4.24.633.305.196.055.517.127.45.413-.09.382-.346.752-.266 1.152.05.25.33.272.554.272h.108a87.793 87.793 0 0 0 1.872-.039l-.005.354c-.658.042-1.283.091-1.725.091-.183 0-.334-.008-.444-.03-.295-.056-.506-.42-.48-.721.034-.4.35-.773.232-1.177-.053-.18-.21-.22-.38-.22-.122 0-.252.02-.355.026-.111.006-.22.022-.327.022a.577.577 0 0 1-.41-.144c-.25-.22.433-.304.533-.304zm3.864 1.822l.23 4.722-.334-.017.104-4.705zm-.114 5.146l.357.018.01.357-.376.016.01-.391zm1.315-4.9h.028c1.521.002 2.433.172 3.042.996 1.017 1.376.67 2.752.416 4.489.071-1.025.41-2.64-.643-4.034-.445-.59-1.2-.837-1.894-1.012-.317-.08-.742-.108-1.21-.108a14.4 14.4 0 0 0-.392.006l-.01-.329c.233-.005.454-.008.663-.008zm-.935 5.715l.008.276-.412.017.006-.275.398-.018zm.021.717l.012.408-.456.036.01-.427.434-.017zm.025.849l.026.88h-.524l.019-.842.48-.038zM64.8 4.089v.642c-.582.14-1.265.893-1.265 2.1 0 .955.63 1.867 1.141 2.05l-.002.144a30.1 30.1 0 0 1-1.242.034c-.338 0-.659-.012-.951-.043.117-.416.34-.778.288-1.212-.041-.342-.416-.47-.7-.548-.266-.073-.447-.323-.728-.323h-.023a2.08 2.08 0 0 0-.933.28c-.293.17-.057.501.141.647.183.134.389.26.62.26a.63.63 0 0 0 .135-.014c.118-.026.325-.075.467-.075.083 0 .144.017.15.065.052.398-.373.881-.201 1.342.14.377.462.72.891.75.19.014.378.02.566.02.502 0 1.002-.04 1.503-.084l-.122 7.838h1.428l-.233-7.917a11.924 11.924 0 0 1 .482-.015c1.897 0 2.851.99 3.069 1.606.21.596.362 1.22.309 1.856-.064.763-.177 1.534-.114 2.298.055.674.29 1.327.45 1.981.037.153.145.229.246.229.11 0 .213-.091.206-.274-.033-.842-.227-1.562-.205-2.338.02-.668.19-1.31.23-1.98.045-.777.261-3.392-1.857-4.153-.6-.216-1.359-.277-2.164-.279h-.034c-.214 0-.431.005-.65.01l-.002-.075c.794-.213 1.447-1.367 1.447-2.072 0-1.429-.602-1.984-1.122-2.123v-.627zM79.538.523h.007c.532.002.744.299.77.672.053.74-.158.71-.83.959a5.63 5.63 0 0 0-.03 1.019c.027.526.13 1.298.305 2.315.209 1.091.336 1.895.382 2.41-.899.283-1.53.614-2.047.999-.05-3.106-.066-5.093-.046-5.96.02-.869.093-1.456.323-1.805.272-.415.73-.572 1.062-.606l.104-.003zM79.557 0a3.716 3.716 0 0 0-.138.002c-1.156.08-1.66.44-1.99 1.836l-.02 10.316h-4.98V18h3.366v-.706h-2.643v-4.417h9.606v4.417h-2.644V18h3.367v-5.846h-5.146l-.048-2.368c.586-.68 1.482-1.124 2.498-1.328a36.647 36.647 0 0 0-.437-2.93c-.224-1.204-.345-1.984-.364-2.34-.019-.358-.017-.512-.004-.616.658-.022.938-.738.88-1.418C80.801.5 80.66 0 79.556 0zm13.032.523h.007c.532.002.744.299.77.672.053.74-.158.71-.83.959a5.63 5.63 0 0 0-.03 1.019c.027.526.13 1.298.305 2.315.209 1.091.336 1.895.382 2.41-.899.283-1.53.614-2.047.999-.05-3.106-.066-5.093-.046-5.96.02-.869.093-1.456.323-1.805.272-.415.73-.572 1.062-.606l.104-.003zM92.608 0a3.716 3.716 0 0 0-.138.002c-1.156.08-1.66.44-1.99 1.836l-.02 10.316h-4.98V18h3.366v-.706h-2.643v-4.417h9.606v4.417h-2.644V18h3.366v-5.846h-5.145l-.048-2.368c.586-.68 1.482-1.124 2.498-1.328a36.647 36.647 0 0 0-.437-2.93c-.224-1.204-.345-1.984-.364-2.34-.019-.358-.017-.512-.004-.616.658-.022.938-.738.879-1.418C93.853.5 93.71 0 92.608 0zm13.032.523h.007c.532.002.744.299.77.672.053.74-.158.71-.83.959a5.63 5.63 0 0 0-.03 1.019c.027.526.13 1.298.305 2.315.209 1.091.336 1.895.382 2.41-.899.283-1.53.614-2.047.999-.05-3.106-.066-5.093-.046-5.96.02-.869.093-1.456.323-1.805.272-.415.73-.572 1.062-.606l.104-.003zm.019-.523a3.716 3.716 0 0 0-.138.002c-1.156.08-1.66.44-1.99 1.836l-.02 10.316h-4.98V18h3.366v-.706h-2.643v-4.417h9.606v4.417h-2.644V18h3.366v-5.846h-5.146l-.047-2.368c.586-.68 1.482-1.124 2.498-1.328a36.647 36.647 0 0 0-.437-2.93c-.224-1.204-.345-1.984-.364-2.34-.019-.358-.017-.512-.004-.616.658-.022.938-.738.879-1.418C106.904.5 106.761 0 105.659 0zm12.548 0c-.116 0-.233.014-.35.043-.234.057-.488.188-.762.391h-5.513v1.22h5.513c.274.202.528.333.762.39a1.463 1.463 0 0 0 .696 0c.23-.057.46-.188.69-.39h.211c.221.202.448.333.683.39a1.47 1.47 0 0 0 .702 0c.234-.057.484-.188.749-.39h5.565V.433h-5.565c-.265-.203-.515-.334-.75-.39a1.47 1.47 0 0 0-.701 0 1.57 1.57 0 0 0-.683.39h-.212c-.23-.203-.46-.334-.689-.39a1.422 1.422 0 0 0-.346-.044zm-4.043 6.065q.194 0 .223.239l.328 2.965q.253 2.041.298 3.904 0 1.28-.186 2.033-.186.753-.648.753t-.663-.753q-.201-.752-.186-2.033.03-1.863.283-3.904l.327-2.965q.03-.239.224-.239zm-2.25-2.562q-.626.313-.074.655 1.817 1.058 1.594 2.25l-.343 2.86q-.238 2.042-.343 3.905 0 1.817.343 2.66.343.84 1.073.84t1.073-.84q.342-.843.342-2.66-.104-1.863-.342-3.904l-.313-2.742q-.477-2.443-3.01-3.024zm.02 12.872q-.256 0-.303.359.313 1.102 2.548 1.266 2.235-.164 2.473-1.266 0-.353-.231-.353-.14 0-.365.129-.447.507-1.877.745-1.43-.238-1.878-.76-.218-.12-.367-.12zm5.723-12.872v5.129h.428V3.94h4.542v4.232l-1.753.01-.01-2.878h-.448v3.327h2.649v-5.13zm9.039 1.435v3.246h-2.178V4.938zm-2.626-.458v4.152h3.083V4.48zm-1.524 5.554c1.022 0 2.01.285 2.965.856-.265.2-.515.445-.75.733-1.121-.413-1.89-.638-2.748-.638-.654 0-1.36.131-2.311.409-.24.068-.45.103-.625.103-.367 0-.594-.15-.682-.448-.1-.353.018-.577.353-.67a.697.697 0 0 1 .182-.027c.248 0 .42.168.516.503 1.065-.547 2.099-.821 3.1-.821zm.167-.397c-.962 0-1.974.22-3.038.662-.083-.278-.279-.417-.587-.417-.129 0-.277.024-.446.073-.67.188-.915.603-.733 1.244.145.51.504.764 1.076.764.242 0 .522-.046.84-.137a6.156 6.156 0 0 1 2.028-.35c1.554 0 3.13.609 4.726 1.825l.38-.557-1.633-.962c.223-.265.556-.58.997-.945-1.111-.8-2.314-1.2-3.61-1.2zm-2.689 4.669V18h.37v-3.694zm2.197 0V18h.37v-3.694zm2.196 0V18h.37v-3.694zm8.83-13.805q.105 0 .229.046.314.117.233.404-.08.287-.359.341-.052.01-.106.01-.232 0-.495-.19.018-.322.215-.502.12-.109.283-.109zm3.899 3.555q1.543.09 4.235 1.66 2.692 1.57 3.877 2.485-1.4-.502-2.495-.502-3.302 0-4.702-.817-1.4-.816-1.4-1.175 0-.359.162-.359 1.346 0 1.471-.646l-.323-.108q-.262.332-.959.332h-.054q-.71 0-.71.745 0 .736 1.526 1.57 1.525.835 3.733.835 1.328 0 2.109.386.78.385 1.103.69l-1.077.18q-.233-.485-2.53-.485-1.364 0-1.992-.771h-.341q.951.825.933 1.498-.009.339-.054.339t-.125-.33q-.162-.664-1.867-1.023-.033.53-.115.53-.097 0-.261-.727-.18-.503-1.76-1.49-1.578-.987-1.614-1.283-.036-.296 1.014-.915 1.05-.62 2.216-.62zm-6.949 3.993q.17 0 .345.152.323.27-.108.682-.467.449-.054 1.005l1.346 1.992q-.52.252-.736.826l-1.023-2.692q-.502-1.328-.215-1.687.217-.278.445-.278zm7.792.87q.808.234 1.113.862.538 1.453.556 2.638.018 1.184-.879 1.274-1.49 0-1.49.538h-1.686q2.189-4.02 2.386-5.312zm5.618 6.048v2.046l-2.046-2.046zM133.575 0q-.61 0-1.167.395-.43.484-.7.628-1.866 1.22-2.279 2.44 0 .376.157.376.068 0 .166-.07.844-1.49 2.315-1.92.429.115.749.115.176 0 .319-.035.247-.06.437-.06.12 0 .218.024.251.063-.063.736t-.574 1.651q-.26.978.206 1.499.808.771 3.23 2.35.395.377.342.683-.018 1.49-.835 3.257-.755 1.635-1.64 1.635-.073 0-.146-.011-1.274 0-1.435.538h-1.256q-.306-.771-.18-1.238.126-.467.951-1.023l-1.58-2.297q-.196-.27.162-.718.467-.628-.125-1.095-.349-.294-.678-.294-.432 0-.83.51-.466.574.234 2.44l1.435 3.715h-.735v.736h10.39l2.944 3.015V18l.717-.018v-3.75h-4.127q-.018-.45.134-.692.153-.242.054-.547-.098-.305-.143-1.355-.045-1.05-.135-2.414h2.207q.341 0 1.328.593l1.939-.341q-.575-.826-1.956-1.346.25.036 1.686.556.45-.036.341-.538-.197-.306-.771-.772-5.69-3.715-7.753-3.715-1.561 0-2.414.574-.164.111-.261.111-.406 0 .369-1.941Q135.782 0 133.575 0zm15.527.589c.061 0 .077.012.09.027a.455.455 0 0 1 .07.195c.025.122.039.26.059.39.026.167.062.327.129.462.079.16.153.329.232.501h-1.16c.08-.172.154-.341.232-.501a1.61 1.61 0 0 0 .13-.461c.02-.132.033-.269.058-.391a.455.455 0 0 1 .07-.195c.013-.015.03-.027.09-.027zm.663 2.164c-.418.992-.538 2.236-.552 3.319-.016 1.302.138 2.597.288 3.892.148 1.27.293 2.538.263 3.812-.015.64-.169 1.6-.367 2.393a6.939 6.939 0 0 1-.314.994 2.318 2.318 0 0 1-.048.106 2.29 2.29 0 0 1-.037-.094c-.094-.25-.184-.6-.264-.993-.162-.798-.278-1.761-.293-2.406-.03-1.274.114-2.543.262-3.812.15-1.295.304-2.59.288-3.892-.013-1.083-.134-2.327-.551-3.319zm-.73 14.516zm-.104.169zm.197.003zM149.102 0a.676.676 0 0 0-.542.239c-.1.12-.159.278-.195.453-.027.133-.042.278-.064.42-.016.106-.035.21-.075.29-.151.308-.284.653-.473.982l-.082.142.078.144c.512.954.64 2.284.653 3.409.016 1.277-.136 2.547-.284 3.817-.15 1.297-.297 2.592-.266 3.894.016.68.136 1.677.305 2.51.086.422.185.804.29 1.082.057.155.12.283.184.377.043.063.09.113.14.152a.42.42 0 0 0 .255.089c.088 0 .174-.03.251-.086a.692.692 0 0 0 .144-.146c.07-.093.138-.22.204-.373a7.4 7.4 0 0 0 .343-1.083c.21-.836.369-1.838.385-2.522.03-1.302-.116-2.597-.267-3.894-.147-1.27-.3-2.54-.284-3.817.014-1.125.141-2.455.653-3.409l.078-.144-.082-.142c-.189-.329-.321-.674-.473-.981a1.035 1.035 0 0 1-.075-.291c-.022-.142-.037-.287-.064-.42a1.021 1.021 0 0 0-.195-.453.676.676 0 0 0-.542-.239zm4.862.589c.06 0 .077.012.09.027a.455.455 0 0 1 .07.195c.025.122.038.26.058.39.026.167.063.327.13.462.078.16.152.329.231.501h-1.159c.08-.172.153-.341.232-.501a1.61 1.61 0 0 0 .129-.461c.02-.132.034-.269.059-.391a.455.455 0 0 1 .07-.195c.013-.015.029-.027.09-.027zm.662 2.164c-.417.992-.538 2.236-.551 3.319-.016 1.302.137 2.597.288 3.892.147 1.27.292 2.538.262 3.812-.015.64-.169 1.6-.367 2.393a6.939 6.939 0 0 1-.313.994 2.318 2.318 0 0 1-.049.106 2.29 2.29 0 0 1-.037-.094c-.094-.25-.184-.6-.263-.993-.162-.798-.279-1.761-.294-2.406-.03-1.274.115-2.543.263-3.812.15-1.295.304-2.59.288-3.892-.014-1.083-.134-2.327-.552-3.319zm-.73 14.516zm-.104.169zm.197.003zM153.964 0a.676.676 0 0 0-.542.239c-.1.12-.16.278-.195.453-.027.133-.042.278-.064.42-.017.106-.036.21-.076.29-.15.308-.283.653-.472.982l-.082.142.077.144c.513.954.64 2.284.654 3.409.015 1.277-.137 2.547-.285 3.817-.15 1.297-.296 2.592-.266 3.894.016.68.137 1.677.306 2.51.085.422.184.804.289 1.082.058.155.12.283.184.377a.67.67 0 0 0 .141.152.42.42 0 0 0 .254.089c.088 0 .175-.03.252-.086a.692.692 0 0 0 .144-.146 1.91 1.91 0 0 0 .203-.373c.12-.279.238-.66.344-1.083.209-.836.368-1.838.384-2.522.03-1.302-.115-2.597-.266-3.894-.148-1.27-.3-2.54-.284-3.817.013-1.125.14-2.455.653-3.409l.077-.144-.081-.142c-.19-.329-.322-.674-.473-.981a1.035 1.035 0 0 1-.075-.291c-.022-.142-.037-.287-.064-.42a1.021 1.021 0 0 0-.195-.453.676.676 0 0 0-.542-.239zm6.94.591c.673 0 1.128.1 1.508.529.522.52.621 1.29.572 1.992-.01 1.612-.294 3.21-.766 4.75-.369 1.266-.811 2.51-1.214 3.766h-.196c-.018-.062-1.926-5.289-2.01-8-.015-.79-.129-1.684.412-2.341.334-.459 1.01-.696 1.694-.696zm.416 11.625v.684c0 .124.078.234.194.276.171.062.328.172.49.304h-2.39a1.7 1.7 0 0 1 .488-.304.294.294 0 0 0 .195-.276v-.684zm1.644 2.477c.06.121.07.367.054.538h-4.375a2.059 2.059 0 0 1-.023-.538zm-.465 1.819c-.318.471-.951.9-1.618.9-.721 0-1.422-.417-1.761-.9zM160.935 0c-1.275 0-2.737.735-2.737 2.246-.073.922.019 1.85.115 2.768.289 2.285 1.15 4.436 1.859 6.614h-.017c-.094 0-.446.01-.446.294v.784c-.402.198-.682.5-.955.723h-.876a.294.294 0 0 0-.294.294v.792c0 .157.184.287.342.293.07.133.083.252.1.375l-.329-.01h-.004a.307.307 0 0 0-.299.294v.76c0 .163.132.295.294.295.205 0 .675.01.757.01h.01c.368.843 1.355 1.468 2.426 1.468 1.04 0 1.944-.67 2.284-1.478h.764c.275 0 .293-.192.293-.294v-.761c0-.128.056-.285-.59-.285a1.48 1.48 0 0 0-.016-.368c.284-.017.416-.142.416-.3v-.791a.294.294 0 0 0-.294-.294h-.876c-.272-.222-.552-.525-.954-.723v-.784c0-.16-.128-.29-.287-.293.006-.037 1.839-5.082 1.93-7.732.07-.998.168-2.12-.5-2.956-.416-.573-.853-.941-2.116-.941zm17.587.623q-1.933 2.627-5.562 2.698-3.606-.07-5.539-2.698zM166.222 0q1.98 3.96 6.738 3.976 4.78-.016 6.76-3.976zm5.147 12.642q.21 0 .21.178v.518q0 .162-.275.162-.324 0-.324.55v1.101h-2.088q0-1.02.453-1.02.47 0 .81-.186.34-.186.534-.745.194-.558.68-.558zm-.358-6.789q.284 0 .463.07.737.292.737 1.49v7.738h-.842v-1.1q0-.227.275-.227.324 0 .324-.195v-1.003q0-.292-.712-.292-.761 0-.94.745-.177.745-1.027.745-.85 0-.85 1.327h-.21V6.539q1.898-.686 2.782-.686zm3.514 6.789q.47 0 .672.55.203.55.534.745.332.194.802.194.47 0 .47 1.02h-2.089v-1.1q0-.551-.34-.551-.259 0-.259-.162v-.534q0-.162.21-.162zm.407-6.789q.884 0 2.782.686v8.612h-.259q0-1.327-.85-1.327t-1.035-.753q-.187-.753-.931-.753-.712 0-.712.308v1.003q0 .195.323.195.275 0 .275.226v1.101h-.793V7.413q0-1.198.737-1.49.179-.07.463-.07zm-1.96 10.075l.68.615-.68.631-.697-.63.696-.616zm4.403-.34q-1.552 1.891-4.412 1.942-2.972-.05-4.605-1.942h4.613l-1.068.955 1.068.971 1.069-.97-1.069-.956zM166.293 5.365q-.03 0-.048.017-.105.105.26.477.364.373 1.092.615v8.66Q169.054 18 172.955 18q3.804 0 5.39-2.865v-8.66q.73-.243 1.093-.616.365-.372.26-.477-.018-.017-.048-.017-.159 0-.681.454-.31.269-.854.269-.552 0-1.347-.277-1.032-.36-1.83-.36-.42 0-.777.1-1.028.292-1.028 1.862v7.738h-.323V7.413q0-1.57-1.028-1.861-.356-.101-.778-.101-.797 0-1.829.36-.795.277-1.347.277-.545 0-.854-.27-.522-.453-.68-.453zM181.72.22v5.122h.976V.22h-.975m0 6.585v4.878h.975V6.805h-.975m0 6.097v4.878h.975v-4.878h-.975zM191.219.911v6.46h-4.333V.91zM185.995 0v8.261h6.135V0zm3.067 14.172c1.074 0 2.419.552 3.07 1.202.568.57.643 1.324.663 2.025h-7.434c.02-.701.095-1.456.664-2.025.65-.65 1.963-1.202 3.037-1.202zm0-.601c-1.274 0-2.645.588-3.448 1.392-.824.824-.918 1.909-.918 2.72V18h8.732v-.316c0-.812-.062-1.897-.886-2.721-.803-.804-2.206-1.392-3.48-1.392zM197.936.696q.928 0 .928 1.222 0 1.075-.928 2.129-.927-1.054-.927-2.129 0-1.222.927-1.222zm0 4.7q.654 0 .654 1.412 0 .8-.654 1.475-.653-.674-.653-1.475 0-1.412.653-1.412zm0 4.257q.654 0 .654 1.413 0 .8-.654 1.475-.653-.674-.653-1.475 0-1.413.653-1.413zm0-9.653q-1.686 0-1.686 1.918-.02 1.201.559 1.886.58.685.516.917-.737.864-.737 2.087 0 1.012.864 2.17-.864.865-.864 2.088 0 1.011.864 2.15.105.273-.59 1.285-.696 1.012-1.434 3.499h.928q.463-1.644.822-2.35.358-.706.758-1.149.422.443.77 1.149.348.706.811 2.35h.949q-.696-2.487-1.423-3.499-.727-1.012-.6-1.286.842-1.138.842-2.15 0-1.222-.8-2.086.8-1.16.8-2.171 0-1.223-.716-2.087-.063-.232.506-.917t.569-1.886q0-1.918-1.708-1.918zm11.805 2.7q.046 0 .099.01.3.057.25.338-.046.257-.345.257l-.055-.002q-.3-.124-.224-.386.061-.216.275-.216zM209.6.263q.054 0 .122.021.244.075.181.475l-.374 1.684q-.25.075-.35.4-.1.324.2.561-.14-.01-.237-.01-.147 0-.2.023-.026.01-.061.01-.082 0-.213-.06l.96-2.646q-.286-.125-.218-.318.05-.14.19-.14zm1.34 3.376zm-.069-3.09q.024 0 .05.004.255.043.249.256-.006.212-.356.212l-.2 2.633q-.073.028-.13.028-.068 0-.113-.04-.08-.076-.355-.138.324-.05.368-.387.043-.337-.206-.561l.374-1.648q.101-.36.32-.36zm-1.978 3.887q-.128 0-.175.129.027.147.19.147.14 0 .384-.11-.252-.166-.399-.166zm-.163-.158q.512.025.874.337.104-.104.187-.104.066 0 .119.066.118.15-.175.45-.293.299-.356 1.01-.062-.124-.125-.28-.053-.135-.413-.135-.058 0-.123.004-.162 0-.162-.287h.085q.332 0 .17-.094-.106-.062-.175-.062-.05 0-.08.03v-.161l-.2-.1q.112-.212.218-.331.106-.119.156-.343zm.703-.514q.121 0 .264.027.606.112.905.655.3.543.187 3.164h-.224l.037-1.148q-.025-.512-.393-.518h-.004q-.364 0-.426.992h-.2q.012-1.385.243-1.635.231-.25.318-.505.088-.256-.08-.418-.1-.096-.237-.096-.094 0-.207.046-.287-.212-.736-.287.162-.277.553-.277zm-2.1 3.97l1.322.2v.063q-.661.025-1.335.112-.337-.112-.599-.3.424 0 .612-.074zm-1.548-1.697l-1.298 2.584-.524-.35 1.822-2.234zm4.756 4.178q.098 0 .124.115.05.225.449.462h-.736l-.088-.474q.158-.103.25-.103zm-.308-4.022h.007q.2.02.05 1.691-.05.911-.387 2.297l.125.611h-3.07q-.142.012-.263.012-.644 0-.691-.336-.057-.4.954-.662l1.872-.536q.262-2.035.524-2.883v.811h.662q.024-1.005.217-1.005zM209.592 0q-.33 0-.457.29-.156.355.168.555l-.948 2.433q-.243-.08-.398-.08-.06 0-.108.012-.033.009-.073.009-.16 0-.42-.14.305.512.616.512h.015l.064-.002q.264 0 .354.095.1.106.337.131-.237.387-.231.48.006.094-.231.419-.237.324-.044.386.194.063.181.612l-.412.91q-.122.113-.24.113-.026 0-.053-.006-.023-.005-.043-.005-.106 0-.138.136.18.15.343.15.26 0 .48-.375l.475-.81q.023-.003.045-.003.267 0 .267.29-.225.623-.362 1.247l-1.51.075q-.287-.175-.736-.337l-.362-1.984-2.508 3.207q-.175.275-.113.325.063.037.13.037.132 0 .282-.15-.062.1-.081.212-.019.113.056.163.033.022.07.022.044 0 .092-.035.088-.062.15-.15-.112.3.063.425.011.007.025.007.076 0 .224-.232l1.498-2.995.212 1.148q-.028-.006-.048-.006-.058 0-.04.056.025.075.1.1-.019-.003-.035-.003-.158 0-.102.215.062.237.137.3-.187.1.113.174-.4.138-.269.443.113.263.276.263.027 0 .055-.007l.087-.012.038.25.262-.05-.05-.275.275-.088q.41.176 1.087.176.189 0 .398-.013l-.063.399-2.271.661q-.637.325-.55.843.088.518.65.592h5.39v-.25q-.735-.436-.842-.78-.062-.202-.258-.202-.135 0-.334.097.262-1.186.337-2.122H211q.224-3.294-.337-3.768.084-.03.184-.03.15 0 .333.067.064.024.134.024.261 0 .597-.336-.333-.092-.509-.092-.06 0-.103.01-.054.015-.101.015-.094 0-.161-.058-.07-.06-.09-.06-.009 0-.01.008l.125-2.381q.387-.013.4-.425.012-.411-.444-.542-.084-.025-.162-.025-.342 0-.555.468l-.375 1.722-.112-.025.4-1.722q0-.612-.462-.693-.086-.015-.161-.015zm-5.916 13.125l2.963.165a8.183 8.183 0 0 1-.078 1.922 13.798 13.798 0 0 1-2.885-2.087zm3.215-.788c-.165 0-.335.107-.51.32l-3.202-.165c-.757.196-.911.499-.464.91.088-.02.165-.029.233-.029.166 0 .274.057.324.172.07.161.258.372.564.632.307.26 1.138.797 2.493 1.61.16.401.337.602.53.602.091 0 .186-.044.283-.132 1.927.831 3.789 1.412 5.584 1.743l.254-.199-.62-.658c-1.317-.114-3.034-.626-5.149-1.537a5.47 5.47 0 0 1-.036-2.241l3.585.24c.532-.134.572-.41.119-.827l-3.53-.148c-.148-.195-.3-.293-.458-.293zM220.37.261q.26 0 .26.375v2.416q-.074-.007-.144-.007-.276 0-.46.105l.344-2.514q-.278-.032-.253-.204.024-.17.253-.17zm1.142 0q.261 0 .277.171.017.172-.277.204l.359 2.514q-.17-.105-.444-.105-.068 0-.144.007V.636q0-.375.229-.375zm-1.367 4.026q-.133 0-.15.168.032.106.146.106.114 0 .31-.106.212-.033 0-.049-.194-.12-.306-.12zm.73-.746q.555 0 .963.547.408.547.743 1.24.334.694.481 1.526h-.147q-.146-.62-.408-.849-.26-.228-.979-.277-.13 0-.13.114v.62h-.294V4.977q.294-.163.204-.587-.056-.263-.258-.263-.125 0-.305.1-.261-.212-.604-.212.18-.474.735-.474zm-.636.653q.229 0 .506.326.152-.133.238-.133.061 0 .088.068.066.163-.057.261-.122.098-.171.261V6.74h.783v-.653q.522 0 .694.229.171.228-.278.49-.448.26-.807 2.545l-.686.196q-.457-2.17-.808-2.546-.35-.375-.138-.555.212-.18.832-.359.245-.163.171-.596-.064-.375-.466-.375-.06 0-.13.008-.179-.196-.228-.424l.294-.506zm1.028 5.549q.36.44.245 3.378h-1.485l.636-3.085.604-.293zM220.337 0q-.424 0-.498.367-.073.367.27.465l-.425 2.285q-.232-.077-.4-.077-.117 0-.204.036-.08.034-.198.034-.193 0-.487-.091l-.065.065q.199.384.472.384.04 0 .083-.008.124-.025.22-.025.156 0 .237.065.08.066.255.066.107 0 .25-.025h.31q-.277.212-.326.522l-.375.62q-.017.082.13.131-.065.082.147.424.016.18-.049.36-.212.212-.032.277.042.015.079.015.12 0 .182-.162l.13-.408h.025q.301 0 .285.392h.017q-1.192.375-1.388.946-.293.816-.783 2.138-.604.506-1.746 1.191-.414-.1-.59-.1-.026 0-.046.002V4.93h-.457v4.895q-.62 0-.229.375 0 .376.229.718v6.855h.457v-6.838l.636-.506q1.338-.44 1.852-.816.514-.375.71-.906.196-.53.392-1.395.375.343.783 2.35-.359.18-.049.457l-.277.555.277.065-.587 2.742q-.196.505-.18.88-.196 1.208-.571 2.726-.033.327-1.338.588-.408 0-.245.326h2.007q.212-.196.098-.8.93-1.909.816-2.594.082-.425.408-.882h.343q-.016.343.212.8l.571 2.546q-.016.343-1.338.604-.408 0-.245.326h2.007q.408-.065.18-.8-.016-2.382-.408-2.888v-.832h.016q.115-3.46-.293-3.884.26-2.09.603-2.465 0 .719.115 1.747 0 .603.081 1.811-.13.457-.163.661-.033.204-.033.35.017.131.123.335.106.204.155.368.016.065.065.065.008.004.015.004.022 0 .034-.037.036.03.06.03.029 0 .038-.046.03.018.052.018.036 0 .046-.05.022.01.043.01.011 0 .022-.003.033-.008.033-.073-.114-.261-.18-.4-.065-.139-.049-.449 0-.065.025-.065.024 0 .073.049.017.082.017.22 0 .139.04.204.028.044.066.044.019 0 .04-.011.066-.033.025-.155-.04-.122-.016-.36.024-.236-.172-.48.065-.245.172-.857.106-.612-.09-1.249.065-.832.032-1.664h.474q-.017-1.045-.637-2.163-.62-1.117-1.028-1.444h.18q.163.036.28.036.152 0 .226-.06.08-.066.236-.066.096 0 .22.025.041.008.08.008.275 0 .475-.4l-.065-.065q-.305.105-.499.105-.106 0-.178-.032-.09-.039-.188-.039-.124 0-.261.064l-.375-2.285q.342-.098.26-.465-.08-.367-.489-.367-.457 0-.57.49v2.562h-.099V.49q-.114-.49-.571-.49zm11.238 2.938c-.63 0-1.053.366-1.045.946.008.632.431.996 1.045.996.615 0 .98-.365.972-.996-.008-.581-.374-.946-.972-.946zm.072-2.1c.416 0 .83.085 1.248.258.799.33 1.338.903 1.693 1.68.362.793.336 1.596 0 2.39-.335.793-.91 1.312-1.693 1.644-.401.17-.809.249-1.217.249a3.6 3.6 0 0 1-1.285-.25c-.795-.301-1.323-.886-1.68-1.642a2.808 2.808 0 0 1-.25-1.208c-.002-.836.364-1.577.921-2.178a2.802 2.802 0 0 1 1.009-.685 3.293 3.293 0 0 1 1.254-.259zM231.55 0h-.001c-1.098 0-1.961.38-2.736 1.158-.794.795-1.13 1.66-1.146 2.776a3.626 3.626 0 0 0 .385 1.73c.209 1.02.22 2.723-.057 2.723-.482 0-.206-1.28-.23-1.679-.04-.679-.44-1.258-.916-1.716-.111-.107-.232-.225-.39-.242a4.374 4.374 0 0 0-.46-.03c-.18 0-.357.02-.522.08-.118.042-.123.208-.084.317.04.113.116.232.245.247a.825.825 0 0 0 .098.006c.16 0 .316-.04.475-.041h.02c.066 0 .14.006.188.055-.108.2-.255.394-.278.629a.613.613 0 0 0 .022.274c.311.86.5 2.833 1.79 2.833.243 0 .36-.05.438-.123.572-.531.58-1.431.546-2.178.756.712 1.61 1.01 2.664 1.024h.062c1.08 0 1.94-.4 2.715-1.145.21-.202.388-.41.536-.627.035.738.071 1.481.342 2.175.213.548.689.945 1.2 1.216.04.02.068.03.087.03.064 0 .025-.097-.047-.167a3.103 3.103 0 0 1-.757-1.147c-.274-.752-.246-1.562-.229-2.347.01-.48.031-.961.003-1.441h-.003a5.14 5.14 0 0 0 .025-.456c.013-1.125-.378-1.982-1.157-2.776C233.586.353 232.72.012 231.6 0h-.051zm-1.137 11.318V18h1.118v-6.682zM242.082.591c.673 0 1.128.1 1.508.529.521.52.62 1.29.572 1.992-.01 1.612-.295 3.21-.766 4.75-.37 1.266-.812 2.51-1.215 3.766h-.196c-.017-.062-1.925-5.289-2.01-8-.015-.79-.129-1.684.412-2.341.334-.459 1.01-.696 1.695-.696zm.416 11.625v.684c0 .124.077.234.194.276.17.062.328.172.489.304h-2.39c.161-.132.318-.242.489-.304a.294.294 0 0 0 .194-.276v-.684zm1.644 2.477c.06.121.069.367.054.538h-4.376a2.059 2.059 0 0 1-.023-.538zm-.466 1.819c-.317.471-.95.9-1.618.9-.72 0-1.422-.417-1.76-.9zM242.112 0c-1.275 0-2.737.735-2.737 2.246-.073.922.02 1.85.115 2.768.29 2.285 1.15 4.436 1.86 6.614h-.017c-.095 0-.447.01-.447.294v.784c-.402.198-.682.5-.954.723h-.876a.294.294 0 0 0-.294.294v.792c0 .157.184.287.341.293.071.133.083.252.101.375l-.33-.01h-.003a.307.307 0 0 0-.3.294v.76c0 .163.132.295.294.295.205 0 .675.01.757.01h.011c.368.843 1.355 1.468 2.425 1.468 1.04 0 1.944-.67 2.284-1.478h.764c.275 0 .294-.192.294-.294v-.761c0-.128.055-.285-.59-.285a1.48 1.48 0 0 0-.016-.368c.283-.017.415-.142.415-.3v-.791a.294.294 0 0 0-.293-.294h-.876c-.273-.222-.553-.525-.955-.723v-.784c0-.16-.128-.29-.287-.293.007-.037 1.84-5.082 1.93-7.732.07-.998.168-2.12-.499-2.956-.416-.573-.854-.941-2.117-.941z"/></svg>