<svg xmlns="http://www.w3.org/2000/svg" width="187.535" height="18"><path d="M10.474 5.036q.723 0 .818.965.096.966.73 2.866l-3.05-.014Q9.516 6.967 9.634 6q.117-.965.84-.965zm0 4.98q.384.59.413 1.238-.015.649-.413 1.238-.412-.59-.427-1.238.03-.648.427-1.237zm0-5.48q-1.09 0-1.326 1.215-.235 1.216-.928 3.647h1.753q-1.281 1.856.487 4.067 1.842-2.21.515-4.067h1.74q-.693-2.431-.93-3.647-.235-1.216-1.31-1.216zm8.152-1.603v1.823q-.403-.6-2.415-.6h-1.488V2.933zm.022-.683q-.82.152-2.437.152h-1.997v2.285h1.997q1.056 0 1.511.22.463.22.904.63l.022 10.213h.881V2.25zm7.974 4.652h5.01q1.6 0 1.344 1.43-.064.533-.768 1.216l-7.401-1.941q.767-.705 1.815-.705zm-4.215-.247q.042 0 .097.034.234.15.554.608.32.459.981.65 8.52 2.22 9.007 2.22h.015q.508-.458.72-.458.056 0 .09.03.171.15-.117.523-.287.373.14 1.184-.02.22-.17.22-.026 0-.055-.007-.202-.043-.608-.81-.341-.342-4.372-1.365-4.031-1.024-4.863-1.13-.408-.07-.689-.07-.32 0-.473.09-.288.171-.63.203l-.036.002q-.288 0-.006-.514.298-.544.288-1.034-.009-.376.127-.376zm2.021 2.359h.016l7.359 1.835q-.399.857-1.394.857-.07 0-.142-.004-1.501-.273-2.395-.273-.224 0-.41.017-.337.03-.85.03-.9 0-2.338-.094-.725-.192-.49-1.29.23-1.078.644-1.078zm-2.146-3.295q-.658 0-.685.81-.032.971-.384 1.643t-.032 1.098q.16.107.368.107t.464-.107q.872-.303 1.39-.303.065 0 .124.005-.469.746-.469 2.047.15.875 1.088.939.853.137 1.675.137.452 0 .895-.041.32-.03.707-.03 1.13 0 2.844.254.063.003.125.003 1.233 0 1.944-1.22l.299.086q.597 1.003 1.173 1.045.832-.213.341-1.173 0-.576.17-.832.342-.64.129-.927-.109-.147-.362-.147-.243 0-.62.136-.234.064-.575.341.576-.917.66-1.514.065-1.621-1.919-1.77h-5.695q-.853.02-1.77 1.066-.618-.384-1.6-1.621-.154-.032-.285-.032zm18.159-2.786v1.823q-.402-.6-2.414-.6h-1.489V2.933zm.023-.683q-.82.152-2.437.152H36.03v2.285h1.997q1.055 0 1.51.22.464.22.904.63l.023 10.213h.88V2.25zm5.932.45c.805 0 1.813.415 2.301.903.427.426.483.992.499 1.518h-5.577c.016-.526.072-1.092.499-1.518.488-.488 1.472-.902 2.278-.902zm0-.45c-.956 0-1.984.441-2.587 1.044-.618.618-.688 1.432-.688 2.04v.238h6.55v-.237c0-.61-.047-1.423-.665-2.04-.603-.604-1.655-1.045-2.61-1.045zm-1.73 6.594q.402 0 1.06.22 1.13.376 2.34 1.572 1.21 1.196.967 2.218-.242 1.021-.94 1.532-.578.422-1.394.422-.172 0-.354-.019-1.048-.107-1.801-1.653-.753-1.546-.699-2.755.054-1.21.376-1.425.157-.112.445-.112zm-.11-.933q-.554 0-.9.238-.725.511-.806 2.097-.08 1.586.914 3.441.995 1.855 2.42 2.03.272.033.53.033 1.09 0 1.916-.598 1.022-.74 1.277-2.097.255-1.357-1.089-2.876-1.344-1.519-2.903-2.016-.79-.252-1.36-.252zm10.129 2.142c.797 0 1.794.41 2.276.892.422.422.477.982.493 1.502h-5.515c.016-.52.071-1.08.493-1.502.483-.483 1.456-.892 2.253-.892zm0-.446c-.945 0-1.962.437-2.558 1.033-.611.611-.68 1.416-.68 2.018v.235h6.476v-.235c0-.602-.046-1.407-.657-2.018-.596-.596-1.636-1.033-2.581-1.033z"/><path d="M56.647 2.708q-.203 0-.385.267.115.186.344.244.038.01.073.01.167 0 .286-.225-.015-.259-.244-.287-.038-.009-.074-.009zm-1.303.31q-.043.129.043.244l-.76.071q0-.172.717-.315zm4.187 1.65q.047 0 .13.07 1.447 1.205 3.598 2.818 2.15 1.613 2.409 2.258-1.75-.244-2.997-1.37-1.247-1.125-2.165-2.193-.917-1.068-1.032-1.398-.018-.186.057-.186zm.05-.846q.26 0 .495.1 5.577 4.229 6.38 5.49.76 1.391.99 2.123-.093.1-.225.1-.11 0-.248-.072l-.746-1.49q-.56-1.263-2.717-2.811-2.158-1.549-3.126-2.452-.57-.532-.871-.532-.21 0-.29.26-.135.44-.484.44-.15 0-.34-.082.172-.831.702-.996.249-.078.48-.078zm.466 6.308q.86 1.376.703 2.781-.172 0-.316.23-.059-.39-.352-.39-.062 0-.135.017.373-1.391.1-2.638zm-3.203-7.55q.089 0 .157.014.322.064.38.236.039.118.075.118.016 0 .032-.024.05-.08.079-.165.387.516.043 1.541-.344 1.025 1.09 1.226 1.333 3.054 2.86 4.638 1.527 1.585 1.269 2.975-.587-.422-1.27-.422-.15 0-.307.021.043-1.276-.624-2.51-.667-1.232-1.219-1.856-.552-.624-1.484-1.477-.932-.853-.932-1.756t.251-1.262q.251-.358.23-.573-.01-.089-.041-.089-.046 0-.139.182-.157.308-.932.322l-.077.001q-.743 0-1.614-.259l1.046.058q.528.11.783.11.21 0 .235-.074.058-.165-.1-.194-.126-.023-.262-.023l-.068.001q-.172.008-.244.05l.015.058q.057-.003.108-.003.18 0 .286.039.035.013 0 .013-.098 0-.767-.106-.23-.373-.072-.53.043-.044.144-.058-.043.186.05.272.034.032.069.032.06 0 .124-.096.1-.15-.157-.237.646-.193.983-.193zm2.386 2.674q1.377 1.792 2.545 2.939 1.169 1.147 2.208 1.556 1.04.408 1.9.423.115.129 2.15 4.53l-.128.058-4.818-3.083q.029-.272-1.427-1.928-1.455-1.656-2.573-4.38l.143-.115zm4.932 7.7l2.667 1.648q.1.258-.638.337-.148.016-.273.016-.504 0-.659-.253l-.494-.81q-.302-.494-.603-.939zm-4.158.286l.287.545q.244-.258.38-.301l.007-.002q.115 0-.387 1.507l-.774.244q-.187-.158.122-.896.308-.739.365-1.097zM57.128 2.25q-.092 0-.192.008-.301 0-1.635.416-1.09.258-1.175.66l.043.602.53-.187q.89.287 1.477.287.588 0 .445.401-.144.402.035 1.334.18.932 1.413 1.9 1.233.967 1.534 2.516.3 1.548-.516 3.57l.258-.158q.005-.003.009-.003.054 0-.282.8-.358.852-.967.874-.092.003-.175.003-.47 0-.664-.104-.217-.115-.613-.115h-.047q-.43.008-.444.295v.387q.133-.205.244-.205.045 0 .086.033 0 .186 1.648.186h4.46q.186-.15.397-.15.212 0 .448.15.215-.186-.1-.473-.178-.162-.47-.162-.225 0-.52.097-.22.073-.454.073-.486 0-1.036-.31.143-.63.315-1.125.172-.494.674-.58.045-.008.091-.008.47 0 1.07.796.33-.674.172-1.792l.187.129Q64.722 14.66 65 15.047q.21.29.81.29.2 0 .445-.031.975-.13.946-.46l.817.417.617-.23-1.362-2.997q.33 0 .616-.286-.344-1.076-1.06-2.41-.488-.802-1.019-1.246-1.405-1.32-2.932-2.517-1.527-1.197-2.244-1.842-.481-.287-1.005-.287-.287 0-.586.086-.846.244-1.018 1.204-.058-.028.086-.716.143-.689-.065-1.262-.185-.51-.919-.51zm18.297 0c-.512 0-.96.376-.96.86v9.048h.624V3.11c0-.237.209-.314.34-.314.137 0 .349.096.349.387v5.946h.625V3.183c0-.484-.48-.933-.978-.933zm3.611 11.441q-.218.218-.218.8 0 .593.218.811h-7.193q.218-.218.218-.811 0-.582-.218-.8zm-8.585-.448q-.315 0-.303.206-.012.242.303.242h.787q.29.218.29.8 0 .593-.29.811h-.775q-.327 0-.327.206 0 .242.315.242h9.977q.303 0 .303-.242 0-.206-.315-.206h-.775q-.29-.218-.29-.811 0-.582.29-.8h.787q.303 0 .303-.242 0-.206-.303-.206zM85.272 2.896v1.712c-.923-.008-1.704-.128-2.568-.496V3.4c.864-.368 1.645-.488 2.568-.503zm.766 0c.938.007 1.72.112 2.583.465v.789c-.864.345-1.645.458-2.576.458l-.007-1.712zm-.773-.646l.007.293c-.908.015-1.712.127-2.568.473v-.668h-.473V5.05h.473v-.556c.864.338 1.667.458 2.568.466l.023 10.789h.765l-.015-10.79c.909 0 1.72-.105 2.576-.427v.525h.473v-2.71h-.473v.63c-.864-.33-1.667-.428-2.583-.435V2.25zm9.47.435v.422h-2.229v-.422zm-1.121.831q1.398 0 1.932.712t.534 1.28q-.013.883-.739 1.542-.725.66-1.727.66-1.016 0-1.741-.66-.725-.659-.725-1.53 0-.58.435-1.292.435-.712 2.03-.712zM91.873 2.25v.99q-.475.276-.87.896-.396.62-.41 1.371 0 .884.733 1.787.732.904 2.288.97 1.543-.066 2.281-.97.739-.903.739-1.773-.013-.765-.409-1.392-.396-.626-.884-.903V2.25zm9.535 3.143c.806 0 1.814.413 2.302.901.427.427.483.993.498 1.519h-5.576c.016-.526.072-1.092.499-1.519.487-.488 1.472-.901 2.277-.901zm0-.451c-.955 0-1.983.441-2.586 1.044-.618.618-.688 1.432-.688 2.04v.238h6.549v-.238c0-.608-.046-1.422-.664-2.04-.603-.603-1.655-1.044-2.61-1.044zm1.261 5.88c.706.03 1.093.046 1.26.046h.076l-.09 3.69a5.414 5.414 0 0 1-1.406-.835l.16-2.9zm-10.296-.919c-.236.046-.547.19-.51.471v2.058a39.352 39.352 0 0 0-1.062-.046c0 .258.212.608.873.608.008.584.114 1.298.22 1.663l.091.956c0 .107.183.137.38.137.235 0 .494-.046.494-.046l-.038-.956c3.75.03 10.903.22 11.26.22.182 0 .304-.198.304-.47l.091-4.124-2.255-.023-.182 3.212c-1.633.008-4.458.274-6.379.274-.607 0-1.131-.023-1.488-.1-.076-.083-.782-1.108-1.23-1.222a1.97 1.97 0 0 0-.266-.03c-.076-.623-.152-1.245-.22-1.86.137-.175.448-.13.532-.365.083-.114.03-.304-.13-.311-.09-.038-.341-.046-.447-.046zm18.702-6.97v4.845h-3.25V2.933zm-3.918-.683v6.196h4.601V2.25zm2.301 10.629c.805 0 1.813.414 2.301.902.427.426.483.992.498 1.518h-5.576c.016-.526.072-1.092.499-1.518.487-.488 1.472-.902 2.278-.902zm0-.451c-.956 0-1.984.441-2.587 1.044-.618.618-.688 1.432-.688 2.04v.238h6.55v-.237c0-.61-.047-1.423-.665-2.04-.603-.604-1.655-1.045-2.61-1.045zm6.655-9.656q.696 0 .696.917 0 .806-.696 1.596-.695-.79-.695-1.596 0-.917.695-.917zm0 3.525q.49 0 .49 1.059 0 .6-.49 1.107-.49-.506-.49-1.107 0-1.06.49-1.06zm0 3.193q.49 0 .49 1.06 0 .6-.49 1.106-.49-.506-.49-1.107 0-1.059.49-1.059zm0-7.24q-1.264 0-1.264 1.439-.016.9.418 1.414.435.514.388.688-.553.648-.553 1.565 0 .759.648 1.628-.648.648-.648 1.565 0 .759.648 1.613.079.205-.443.964t-1.075 2.624h.696q.347-1.233.616-1.763.269-.53.57-.861.315.332.576.861.261.53.609 1.763h.711q-.521-1.865-1.067-2.624-.545-.759-.45-.964.632-.854.632-1.613 0-.917-.6-1.565.6-.87.6-1.628 0-.917-.538-1.565-.047-.174.38-.688.427-.513.427-1.414 0-1.439-1.28-1.439zm3.442 4.793V8.36h2.907V7.043h-.57c-.166.293-.355.483-.569.57a.818.818 0 0 1-.635 0c-.21-.087-.397-.277-.563-.57zm1.763-4.793v2.183h-.66v2.67h.712V5.43h.826V3.14h1.02c.182 1.424.677 2.481 1.484 3.174.806.692 1.803 1.093 2.99 1.204 1.186.11 1.965.267 2.337.468.371.202.557.406.557.611h1.448c-.222-.53-.518-.933-.89-1.21-.372-.277-1.062-.45-2.07-.522-1.009-.071-1.816-.203-2.42-.397a3.858 3.858 0 0 1-1.62-1.032c-.475-.495-.839-1.557-1.092-3.186zm-.266 11.678l-1.542 1.822h.752l.79-.942.797.942.774-.942.798.942.79-.942.797.942.79-.942.797.942.774-.942.797.942.798-.942.774.942.797-.942.79.942h.752l-1.542-1.822-.797.88-.774-.88-.798.88-.797-.88-.774.88-.798-.88-.79.88-.797-.88-.79.88-.797-.88-.774.88-.797-.88zm16.415-10.622l-.156.286-.147.857q0 .451.147.84.156.339.39.607-1.568-.285-2.825-.424.789-.468 1.24-1.04.459-.572 1.351-1.126zm3.7-.07q.477.035 1.603.72 1.126.675 2.322 1.117-.875.052-1.906.373-1.04.312-2.184.468.182-.217.364-.615.174-.399.174-.85 0-.459-.165-.857-.087-.19-.208-.356zm-1.823-.399q.3 0 .575.122.295.121.52.33.225.199.364.485.113.286.13.615.017.33-.104.615-.13.286-.33.511-.207.234-.493.364-.286.121-.615.13h-.043q-.297 0-.572-.113-.295-.12-.52-.32-.217-.2-.347-.485-.121-.286-.139-.624 0-.32.122-.607.112-.286.312-.51.208-.235.494-.348.286-.155.606-.164h.04zm-.048-.587q-.566 0-1.118.12-1.196.26-2.426 1.55-1.23 1.283-2.158 1.37l-.017.606q2.105.182 4.133.555.758.14 1.595.14 1.401 0 3.023-.391 2.582-.624 3.275-.754h1.144V4.7h-1.178q-.84-.286-2.253-1.135-1.404-.85-2.678-1.153-.68-.163-1.342-.163zm-5.719 13.5h13.17v-2.378h-9.878l-3.292 2.378m12.438-1.647v.915l-10.164.046 1.018-.961h9.146zm3.657-11.56a.286.286 0 0 0-.076.01c-.143.04-.184.159-.123.358l1.041 2.696h.508l-1.107-2.852c-.056-.141-.138-.212-.243-.212zm-.86.217a.329.329 0 0 0-.095.015c-.164.048-.195.171-.09.37l.95 2.462h.508l-1.003-2.617c-.062-.153-.153-.23-.27-.23zm2.57 3.976c.081 0 .174.014.278.043v.13a.933.933 0 0 0-.28-.05.506.506 0 0 0-.195.037 1.71 1.71 0 0 1-.501.104l.065-.065c.19-.07.343-.126.455-.17a.494.494 0 0 1 .179-.029zm-.1.29l-.234.078c.087.035.165.061.235.078-.052-.043-.052-.095 0-.156zm.196 0c.026.052.017.109-.026.17a.807.807 0 0 0 .156-.053c-.009-.043-.052-.082-.13-.117zm-.065-.091c.113 0 .19.043.234.13l.117.065.013.065-.117.026a.433.433 0 0 1-.23.059 1.21 1.21 0 0 1-.473-.124h-.286v-.09h.3c.181-.088.329-.131.442-.131zm-2.357-1.08l.885 1.627c.058.08.112.121.162.121a.11.11 0 0 0 .073-.03l.286-.182c-.017-.061-.087-.152-.208-.274-.122-.121-.148-.267-.078-.436.04-.096.114-.144.226-.144.085 0 .192.029.32.085.278-.166.523-.25.735-.25l.06.003c.017-.2.048-.373.091-.52zm2.497.74c-.222 0-.512.097-.87.288-.077-.087-.156-.13-.234-.13-.078 0-.12.039-.123.117-.005.078.065.18.208.306s.21.232.202.319l-.04.013a.64.64 0 0 0 .261.449c.148.109.347.167.599.176l.05.001c.13 0 .187-.033.171-.099a.206.206 0 0 1 .04-.189l-.075.002c-.243 0-.307-.042-.192-.125.085-.062.153-.093.205-.093a.09.09 0 0 1 .061.021c-.034-.13.035-.2.209-.208a7.423 7.423 0 0 1-.443-.847h-.029zm-.934.965l-.378.234c-.026.4-.109.677-.247.834a1.571 1.571 0 0 1 .351-.007.546.546 0 0 1 .3.15c.095-.278.204-.5.325-.664-.226-.165-.343-.347-.351-.547zm3.891 2.77c-.189 0-.366.092-.532.277.312.008.52.108.625.3.087-.218.195-.34.325-.365.13-.026.061-.085-.208-.176a.652.652 0 0 0-.21-.036zm-4.4-1.416c-.338 0-.55.191-.637.573-.122.53-.14 1.354-.052 2.474.104 1.285.225 2.348.364 3.19l-.156.234h4.323l-.899-.364c.26-1.276.586-2.212.977-2.806.39-.595.456-.979.195-1.152a.443.443 0 0 0-.246-.083c-.176 0-.35.127-.522.382l-1.758 2.5-.312-.026c-.191-1.944-.395-3.394-.612-4.349-.104-.382-.326-.573-.664-.573zm-.375-6.664c.25 0 .419.147.506.44l1.12 2.917h.56a3.265 3.265 0 0 0-.157.924c.061.243.176.486.345.73.164.234.131.351-.098.351h-.025c.06.087.052.139-.026.156.07.035.078.072.026.11-.052.04-.074.125-.065.255.026.382.128.692.306.93.146.197.279.295.398.295a.216.216 0 0 0 .077-.014.459.459 0 0 1 .154-.035c.052 0 .087.018.106.054.035.065-.01.133-.136.202a.324.324 0 0 1-.16.037.987.987 0 0 1-.413-.122c-.256-.125-.489-.514-.697-1.165h-.365c-.112.104-.2.256-.26.456.313 1.007.569 2.482.768 4.427l1.758-2.474a1.21 1.21 0 0 1 .365-.365.758.758 0 0 1 .615-.308c.065 0 .134.007.205.022v-2.8c0-.381.135-.577.404-.585a3.21 3.21 0 0 0-.638-.704c-.075-.132-.073-.198.005-.198.05 0 .13.027.242.081a8.5 8.5 0 0 1 .573.495c.217.226.34.393.371.501l.24.853c-.004.14-.026.21-.066.21-.032 0-.075-.043-.128-.132a12.31 12.31 0 0 0-.144-.43.629.629 0 0 0-.351-.377c-.148 0-.222.095-.222.286v2.852c.504.27.645.451.424.547a1.053 1.053 0 0 0-.499.467c-.062.43-.24.89-.53 1.382-.308.52-.588 1.285-.84 2.292l.99.43-.065.507h-5.56l.573-.677c-.278-2.7-.376-4.425-.293-5.176.082-.75.27-1.165.566-1.243.208-.209.29-.434.247-.677l-.325-.586a1.774 1.774 0 0 0-.768 1.51v6.849h-.287V8.901c0-.755.308-1.345.925-1.77l-.847-1.524h.6l-.925-2.396c-.13-.33-.072-.543.176-.638a.927.927 0 0 1 .332-.069c.113 0 .217.028.312.082.06-.191.237-.302.528-.332a.705.705 0 0 1 .073-.004zm12.97.428q.377 0 .711.3.334.3.334.728 0 .377-.283.703-.282.325-.78.325-.445 0-.736-.334t-.291-.694q0-.394.291-.71.291-.318.754-.318zm-1.164 3.276q-.168 0-.224.168.037.185.255.185.184 0 .5-.134-.339-.22-.53-.22zm-.207-.21q.651.052 1.114.446.145-.145.255-.145.084 0 .148.085.145.197-.232.583-.377.385-.462 1.293-.069-.342-.146-.54-.068-.174-.391-.174-.042 0-.089.003l-.034.001q-.369 0-.385-.54l-.257-.137q.137-.274.274-.429.137-.154.205-.445zm.82-.648q.163 0 .363.04.788.163 1.147.635.36.47.403 1.336.043.865-.009 2.938h-.257l-.034-1.456q-.068-.685-.54-.703h-.012q-.46 0-.544 1.285h-.24q0-1.799.3-2.107.3-.308.42-.642t-.112-.54q-.139-.123-.311-.123-.116 0-.246.054-.377-.274-.96-.36.154-.357.633-.357zm1.085 3.243l.014.001q.206.043.154 2.647-.051 2.604-.565 4.112l.377.223h-4.711l.976-.411q-.497-2.176-1.113-3.204-.617-1.028-.275-1.26.085-.057.177-.057.276 0 .612.529l2.004 2.707h.497q.12-3.495.754-5.174v1.045h.84q.065-1.158.26-1.158zm-.534-6.089q-.668.017-1.08.463-.41.445-.41.993 0 .48.222.754-.062.25-.175.25l-.022-.002q-.128-.025-.145-.162-.018-.137 0-.48.051-.514-.309-.651-.103-.02-.184-.02-.135 0-.21.054-.12.069-.085.172.057.07.161.07l.044-.002q-.051.274.069.6.12.29.257.582.156.252.37.252.092 0 .195-.046-.188.085-.36.685.017.12-.282.548-.3.429-.06.506.24.077.222.59l-.53 1.354q-.149.148-.292.148-.039 0-.077-.01-.034-.01-.063-.01-.127 0-.168.18.231.193.44.193.331 0 .605-.484l.633-1.216q.032-.004.06-.004.335 0 .335.552-.754 1.388-.891 4.763l-2.056-2.758q-.36-.294-.684-.294-.186 0-.361.097-.48.265-.531.582-.052.317.54 1.413.59 1.097 1.019 2.793l-1.114.463.069.582h6.373l-.805-.874q.48-2.175.394-4.471h.616V6.773q-.068-.6-.29-1.054-.224-.454-.772-.694.377-.17.531-.428.223.428 1.405 1.148.069-.137-.171-.48-.309-.24-.617-.53-.274-.24-.36-.635.069-.205.034-.394 0-.617-.445-1.028-.445-.41-1.045-.428zm6.598.345q-.083.871-.083 1.953 0 1.08.105 2.184-.24-.127-.75-.127-.519 0-.751.127.112-1.103.105-2.184-.008-1.082-.083-1.953zm-.729 4.475q.511.008 1.037.27l-.136.248q-.106-.018-.198-.018-.32 0-.477.221-.09-.398-.226-.488-.135.09-.232.488-.158-.221-.477-.221-.093 0-.2.018l-.134-.247q.54-.263 1.043-.27zm0 .721q.113.09.075.263-.037.173-.075.33-.045-.157-.082-.33-.038-.173.082-.263zm.684.001q.043 0 .09.007-.51 1.216-.774 1.216-.255 0-.788-1.216.048-.007.091-.007.274 0 .352.247.098.278.203.45.112.18.142.18.038 0 .136-.18.105-.172.195-.45.084-.247.353-.247zm-1.855-5.542q.36 2.553-.007 4.603-.669.315-.556.533.082.164.189.164.039 0 .081-.022.654.736 1.074 1.735.165 1.644-.045 5.684 0 .803.42.803h.023q.42 0 .42-.803-.202-4.04-.045-5.684.413-.999 1.067-1.735.042.022.08.022.107 0 .19-.164.112-.218-.548-.533-.376-2.05 0-4.603zm8.144.664q2.725.331 0 5.047-2.724-4.716 0-5.047zm0-.664q-3.772.262-.524 6.06h-3.213v.821h3.178v6.619h1.083V9.096h3.214V8.31h-3.214q3.249-5.815-.524-6.06z"/><path d="M8.22.375c-9.625 0-9.625 17.25 0 17.25m0-17.25h171.065M8.22 17.625h171.065m7.687-17.25v17.25M179.285.375c9.625 0 9.625 17.25 0 17.25" fill="none" stroke="#000"/></svg>