<svg xmlns="http://www.w3.org/2000/svg" width="67.766" height="18"><path d="M13.112 2.933v4.845h-3.25V2.933zM9.194 2.25v6.196h4.601V2.25zm2.301 10.629c.805 0 1.813.414 2.301.902.427.426.483.992.499 1.518H8.718c.016-.526.072-1.092.499-1.518.487-.488 1.472-.902 2.278-.902zm0-.451c-.956 0-1.984.441-2.587 1.044-.618.618-.688 1.432-.688 2.04v.238h6.55v-.237c0-.61-.047-1.423-.665-2.04-.603-.604-1.655-1.045-2.61-1.045zm10.548-3.181q.475 0 .475.359-.008.374-.482.374-.475 0-1.417-.374.95-.359 1.424-.359zm-2.515 1.869q.553.299.837 1.943.135 1.286-.837 1.286-.987 0-.852-1.286.284-1.644.852-1.943zM23 2.25q-.922 0-1.737.352-.986.426-1.442 1.42-.456.994-.59 2.983v2.033q-.72-.213-1.823-.213-.525 0-1.138.048v.688q.495-.053.928-.053 1.27 0 2.017.457H19.2q-.673 1.15-.934 1.868-.262.718-.322 1.45-.015.912.337 1.383.351.471 1.248.471.882 0 1.233-.47.352-.472.337-1.384-.06-.732-.322-1.45-.261-.717-.74-1.704 1.252.476 2.02.476 1.112 0 1.21-1-.097-.993-1.204-.993-.773 0-2.04.485V7.064q.09-3.064 1.322-3.692 1.006-.512 1.952-.512.214 0 .425.026 1.144.142 1.824 1.248.68 1.107.778 3.454.097 2.347.127 4.619.329 2.183 1.48 3.543l.523-.463q-1.106-1.42-1.346-3.05-.074-1.226-.104-3.648t-.464-3.782q-.433-1.36-1.218-1.906-.785-.546-1.929-.635-.198-.016-.393-.016zm11.794.325q.216 0 .299.215-.106-.042-.182-.042-.16 0-.183.191-.032.34-.184.34h-.007q-.157-.008-.224-.14 0-.1.25-.332.115-.232.231-.232zm.238.296q.06 0 .06.085-.03.334-.255.334l-.043-.002v-.033l.067-.15q.015-.233.133-.233l.016.001.022-.002zm-1.477.188q-.15 0-.278.088-.158.108-.091.373h.066q.017-.166.1-.274.083-.108.273-.108t.19-.05l-.19-.024q-.036-.005-.07-.005zm-.004.146q-.2 0-.2.282v.1l.031.002q.056 0 .07-.053.281-.066.414-.232-.116-.1-.315-.1zm-.299.43q-.083.117-.016.291.066.174.829.24l.116-.05q-.962-.066-.863-.447l-.066-.033zm1.078-.795q-.216.15-.166.381.033.1.2.166.148.066.115.348.033.614-.514.946-.083-.2-.323-.216l-.045-.002q-.205 0-.295.143-.07.11-.165.11-.04 0-.084-.019-.027.007-.05.007-.151 0-.165-.272.165-.017.232-.066.066-.05.248-.117-.08-.092-.165-.092-.037 0-.075.018-.124.058-.257.091-.282-.05-.216-.282-.165-.182-.116-.315.365-.232.606-.44.24-.207.539-.248.298-.042.696-.141zm.978-.15q.431.034.912.49.481.456.564.937-.895 1.31-2.537 2.09-.066-.697.232-1.394.547-.497.481-.837-.066-.34.216-.456.63-.116.132-.83zm6.084 2.801l.052.002q.746.133 1.36.672.613.539.878 1.335.05.082-.365.082-1.74-.73-2.205-1.475-.205-.616.28-.616zm-4.425-.827q1.033.99 2.634.99.275 0 .566-.028.03-.01.057-.01.241 0 .241.806-1.641.73-2.586.796-.28.02-.569.02-.684 0-1.413-.112-.158-.024-.292-.024-.752 0-.794.746-.697-.83-.498-1.128 1.642-.73 2.654-2.056zm-2.02-2.414l-.078.001q-.755.025-.804.307-.299.116-.556.19-.257.075-.48.274-.225.2-.498.357-.274.157-.324.273-.082.183.15.398 0 .183.166.299.033 0 .074.282.042.282.307.414.332-.05.431-.19.085-.12.217-.12.023 0 .048.004.166.024.25.273-.067.249-.192.88-.124.63 0 .928.125.298-.439.671-.43.285-1.178.285-.233 0-.497-.028-.575-.16-.925-.16-.377 0-.493.185-.223.357.042.622h.647q1.488.053 2.52.053 2.488 0 2.33-.31-.18-.353.293-.353.115 0 .27.021.244.034.536.034.65 0 1.537-.166 1.285-.24 1.675-.448.25-.133.54-.133.163 0 .339.042.49.116.589.414-.217.399-.753.399-.245 0-.557-.084-.522-.139-.857-.139-.304 0-.453.114-.315.24-.033.573h5.389q.547-.498.232-1.153-.315-.655-1.061-1.244-.747-.588-1.642-1.07.234-.204.452-.204.276 0 .526.33.263.345.446.345.129 0 .218-.172-.591-1.057-1.233-1.057-.043 0-.086.004-.688.075-1.252.771-.682.172-1.272.172-1.286 0-2.127-.818-.464-1.178-1.11-1.634-.614-.432-1.324-.432zm-1.417 9.855q-1.46.034-2.418 1.058-1.058 1.16-1.16 2.318 0 .269.303.269h14.042q.302 0 .302-.32 0-.318-.302-.318H30.709q.84-2.15 2.52-2.385h11.068q.302 0 .302-.32 0-.302-.302-.302zm14.125-9.012q1.511.22 1.58 1.382v8.382q-.706-.843-2.536-1.184l.956-8.58zm-.425-.843L46.1 12.272q2.52.289 3.136 1.8v1.678h.751V4.475q0-1.883-2.756-2.225zm5.813.843q1.51.22 1.58 1.382v8.382q-.707-.843-2.537-1.184l.957-8.58zm-.425-.843l-1.132 10.022q2.521.289 3.136 1.8v1.678h.752V4.475q0-1.883-2.756-2.225zm5.565 0c-.698 0-1.31.513-1.31 1.171V15.75h.853V3.421c0-.322.284-.427.462-.427.187 0 .476.131.476.527v8.103h.852V3.521c0-.66-.653-1.271-1.333-1.271z"/><path d="M8.22.375c-9.625 0-9.625 17.25 0 17.25m0-17.25h51.296M8.22 17.625h51.296M67.203.375v17.25M59.516.375c9.625 0 9.625 17.25 0 17.25" fill="none" stroke="#000"/></svg>