<svg xmlns="http://www.w3.org/2000/svg" width="108.543" height="18"><path d="M18.058.568q-.111.037-.111.128t.07.146q.027.022.054.022.04 0 .077-.05.063-.081.021-.163-.041-.083-.11-.083zM2.67.47q-.153 0-.296.282.084.183.264.237.028.01.054.01.131 0 .224-.229 0-.255-.194-.292Q2.695.47 2.669.47zM1.665.787q-.042.128.027.238l-.583.073q-.014-.164.556-.31zm.568.436zm.105-.003q.12 0 .195.033.027.012 0 .012-.052 0-.288-.04.05-.005.093-.005zm2.564 1.252q.035 0 .097.068 1.125 1.223 2.792 2.865Q9.46 7.048 9.667 7.724 8.305 7.468 7.34 6.318q-.966-1.15-1.681-2.236-.716-1.086-.799-1.414-.017-.196.042-.196zm.046-.868q.202 0 .384.096 4.321 4.308 4.946 5.604.584 1.405.764 2.154-.076.11-.182.11-.087 0-.193-.074l-.57-1.515q-.43-1.296-2.104-2.875-1.674-1.579-2.424-2.5-.441-.542-.676-.542-.164 0-.227.268-.108.455-.38.455-.115 0-.26-.081.126-.858.542-1.022.198-.078.38-.078zm.357 6.43q.666 1.405.541 2.83-.125 0-.236.236-.045-.403-.277-.403-.051 0-.112.02.292-1.405.084-2.683zM2.827.346q.066 0 .116.013.25.063.292.237.029.122.058.122.013 0 .025-.022.042-.073.056-.164.305.53.041 1.57t.848 1.24q1.028 3.104 2.209 4.72 1.18 1.615.986 3.038-.449-.438-.993-.438-.113 0-.23.019.042-1.296-.472-2.556t-.945-1.889q-.43-.63-1.16-1.497-.73-.867-.722-1.789.007-.921.194-1.286.188-.365.181-.584-.003-.091-.027-.091-.035 0-.112.182-.132.31-.73.328l-.07.001q-.568 0-1.235-.274l.82.073q.404.11.601.11.162 0 .183-.074.049-.164-.076-.192-.125-.027-.257-.027t-.201.055l.026.052-.29-.052Q1.762.787 1.887.623q.028-.055.097-.055-.028.183.049.274.028.034.056.034.046 0 .09-.098.07-.155-.125-.228.511-.204.773-.204zm15.412.04q.375 0 .555.365.056.055.695.2v.056l-.695.073q-.597 0-.75-.12-.153-.118-.146-.273.007-.155.188-.155.18 0 .25.082t.035.173q-.035.092-.132.147h.028q.18 0 .187-.22.007-.237-.299-.273-.389 0-.291.374.092.357.854.357l.076-.001q.431-.037.765-.128L19.53.97q1.236 1.004 1.16 2.29-.077 1.288-.966 2.136-.889.85-1.584 1.871-1.083 1.734-1.167 2.72-.083.986.376.986.458 0 1.118-.721.66-.721 1.34-.74 1.82.055 1.612 2.209-.667-.93-1.5-.93-.417 0-1.14.474-1.097.766-1.667.766l-.472-.091q-.861-.84-.583-2.482.416-1.187 1.125-4.235.486-1.734.965-2.628.48-.895 1.022-.913.291 0 .944.365.027.01.047.01.094 0 .037-.21-.526-.429-1.226-.429-.225 0-.47.045-.208 0-.506-.146-.3-.146-.3-.694.251-.237.543-.237zM4.666 3.05q1.083 1.825 1.986 3.002.903 1.178 1.702 1.588.799.411 1.48.43.083.145 1.653 4.617l-.097.055-3.738-3.14q.028-.273-1.104-1.962-1.132-1.687-1.994-4.46l.112-.128zM8.5 10.918l2.07 1.66q.07.256-.5.348-.127.02-.233.02-.37 0-.49-.248-.152-.32-.389-.831-.236-.511-.458-.95zm7.071-.785q0 .767.167 1.332.43 1.004 1.153 1.023h.038q.711 0 1.699-.657.938-.625 1.365-.625.034 0 .066.004.416.055.903.566.486.51.514.894.05.311-.043.311-.06 0-.18-.128-.399-1.05-1.024-1.05h-.01q-.633.01-1.557.648-.923.639-2.153.639t-1.368-1.04q-.14-1.04.43-1.917zM5.277 11.192l.208.547q.195-.255.299-.3l.005-.002q.088 0-.304 1.543l-.583.238q-.153-.146.09-.904.243-.757.285-1.122zm14.763 1.14q.461 0 .727.502-.18.384-.847.603-.514 0-1.042-.566.685-.539 1.162-.539zm-1.607.758q.207.265.448.438h-1.883q.692-.095 1.435-.438zm-7.182 1.15q-1.554 2.935-4.48 3.011-2.913-.076-4.467-3.011zm11.239.018q-1.554 2.935-4.48 3.012-2.913-.077-4.48-3.012zM3.066.008q-.084 0-.179.013-.222 0-1.264.42-.834.255-.903.657l.028.62.417-.2q.68.292 1.139.292.458 0 .347.41-.111.411.028 1.37.139.958 1.097 1.934.959.977 1.188 2.556.23 1.578-.41 3.641l.209-.164q.004-.004.007-.004.046 0-.216.816-.277.867-.757.894-.084.005-.16.005-.348 0-.486-.105-.155-.12-.462-.12l-.045.001q-.34.01-.34.302v.182H1.33Q2.93 17.982 6.777 18q3.849-.018 5.446-4.472l-4.279.037q0-.165-.264-.356-.129-.094-.296-.094-.175 0-.391.103-.13.061-.278.061-.337 0-.771-.317.097-.639.236-1.14.139-.503.528-.594.036-.008.073-.008.362 0 .816.811.264-.675.153-1.825l.139.128q1.042 2.3 1.257 2.701.163.305.634.305.15 0 .331-.031.75-.128.737-.475l.639.42.486-.237-1.07-3.048q.264 0 .487-.292-.264-1.096-.82-2.446-.39-.822-.792-1.278Q8.681 4.603 7.5 3.39T5.763 1.518q-.373-.28-.775-.28-.226 0-.461.088-.653.246-.792 1.214-.042-.037.07-.73.11-.694-.05-1.287-.138-.514-.689-.514zM18.286 0q-.252 0-.478.094-.292.11-.347.42-.111.383.097.757.208.374.653.466-.89 1.058-1.514 3.741-.584 2.556-.973 3.779-1.042 1.113-1.035 2.236.007 1.122.424 1.597.301.343.878.438h-3.434q1.597 4.454 5.446 4.472 3.848-.018 5.445-4.472h-2.674q.153-.11.313-.256.156.245.354.245.083 0 .174-.044.347-.219.139-1.004.194-2.245-.459-2.865-.653-.621-1.473-.621-.75 0-1.625.849-.543.526-.743.526-.124 0-.118-.198.014-.52.611-1.761.403-.876 1.75-2.254 1.348-1.378 1.334-2.775-.014-1.396-.597-2.099-.584-.703-1.292-.794-.111-.2-.292-.328-.18-.128-.48-.146Q18.329 0 18.287 0zm11.003 0q-1.569.036-2.596 1.136-1.136 1.244-1.245 2.488 0 .289.325.289h15.074q.324 0 .324-.343t-.324-.343H26.26q.9-2.307 2.704-2.56h11.883q.324 0 .324-.342 0-.325-.324-.325zm-3.841 8.308h15.723V5.47H29.38l-3.93 2.84m14.848-1.967v1.092l-12.134.055 1.216-1.147h10.918zM28.847 15.02c.835 0 1.882.43 2.388.936.443.443.5 1.03.517 1.576h-5.786c.016-.546.074-1.133.517-1.576.506-.506 1.528-.935 2.364-.935zm0-.467c-.992 0-2.06.458-2.684 1.083-.642.642-.715 1.486-.715 2.118V18h6.797v-.246c0-.632-.048-1.476-.69-2.118-.625-.625-1.717-1.083-2.708-1.083zm6.844-3.72q.418 0 1.101.228 1.172.39 2.427 1.632 1.255 1.241 1.004 2.301-.25 1.06-.976 1.59-.6.438-1.446.438-.178 0-.367-.02-1.088-.11-1.87-1.715-.78-1.604-.725-2.859.056-1.255.391-1.479.163-.116.461-.116zm-.114-.968q-.575 0-.933.248-.753.53-.837 2.175-.083 1.646.949 3.571 1.032 1.925 2.51 2.106.283.035.55.035 1.132 0 1.989-.62 1.06-.768 1.325-2.176.265-1.41-1.13-2.985-1.395-1.576-3.013-2.092-.82-.262-1.41-.262zM44.948 0c.93 0 1.745.684 1.745 1.562V18h-1.136V1.562c0-.43-.378-.57-.616-.57-.25 0-.634.175-.634.703v10.804h-1.136V1.695c0-.88.87-1.695 1.777-1.695zM58.25.803l.117.001h.06q2.171 0 4.141 1.867l-1.219.986q-1.14-1.09-2.982-1.09-1.842 0-2.983 1.09l-1.219-.986Q56.11.803 58.251.803zm.117 2.517q2.049.026 3.371 2.152H54.97q1.037-2.126 3.398-2.152zm0-3.32q-3.216.13-5.42 2.645l1.84 1.557q-.778 1.037-.96 1.945h9.052q-.181-.908-.96-1.92l1.713-1.556Q61.582.13 58.367 0zm8.165 8.387q.385 0 .385.404v3.103h-1.175l.386-3.268q.018-.239.404-.239zm.018-.496q-.936 0-.991.533-.386 3.47-.826 3.488l-8.519.312-.88-.037q-.992-1.046-1.763-1.046-.276-.019-.57-.037-1.56.294-1.872.294-.22 0-.22.294 0 .403.624.403 1.072-.17 1.644-.17.104 0 .192.005.312 0 .514.257-.358.443-1.603.443l-.196-.002q-1.414-.037-2.497-.367-.532 0-.532.624.055.569 3.983.587l1.744-.183 9.95-.055 2.791.036V8.791q-.018-.9-.973-.9zm-15.503 7.326L48.693 18h1.148l1.206-1.438L52.265 18l1.183-1.438L54.665 18l1.206-1.438L57.09 18l1.206-1.438L59.512 18l1.183-1.438L61.913 18l1.217-1.438L64.313 18l1.217-1.438L66.736 18h1.148l-2.354-2.783-1.217 1.345-1.183-1.345-1.217 1.345-1.218-1.345-1.183 1.345-1.217-1.345-1.206 1.345-1.218-1.345-1.206 1.345-1.217-1.345-1.183 1.345-1.218-1.345zM71.531 0c-.335 0-.67.026-.994.066-.447.113-.218.626.18.626a.476.476 0 0 0 .082-.008c.839.097 1.872.15 2.506.626.84.916.463 2.821.56 3.725.008.05.01 3.653.01 5.48a6.145 6.145 0 0 0-2.634-.586 6.04 6.04 0 0 0-1.188.117c-.44.231.077.528.423.528.04 0 .08-.004.114-.013 1.226.133 2.62.461 3.243 1.602.062.206.023.277-.07.277-.207 0-.68-.342-.947-.342-.014 0-.027 0-.04.003a7.535 7.535 0 0 0-1.58-.169c-.39 0-.776.031-1.149.095-.42.278.096.534.438.534a.532.532 0 0 0 .105-.01c1.252.151 2.637.49 3.243 1.633.007 1.27 0 2.11.034 3.278-.015.36.219.538.456.538.235 0 .473-.176.474-.526-.008-1.15-.09-2.161.06-3.277.305-1.253 2.478-1.445 3.827-1.754.295-.347-.285-.475-.658-.475-.056 0-.107.003-.15.008a6.823 6.823 0 0 0-.522-.02c-.882 0-1.77.175-2.557.58-.032-.755.712-1.19 1.244-1.493.84-.361 1.766-.397 2.643-.59.314-.273-.18-.501-.521-.501a.58.58 0 0 0-.125.012 6.767 6.767 0 0 0-.648-.031c-.902 0-1.804.183-2.614.582.017-2.851.063-5.61-.019-8.308-.066-.834-.546-1.6-1.354-1.849C72.822.094 72.176 0 71.53 0zm11.875.634q-.372 0-.372.438 0 .371.372.371.393-.022.393-.415 0-.394-.393-.394zM81.963.92v.393l-.852.153q.393-.415.852-.546zm.044.524q.503.394.175.59-.503-.175-.743-.459l.568-.13zm1.53-1.005q1.027 0 1.64.787.612.786.655 2.426 1.596.328 2.12 1.442.085.722-.325.722h-.024q-.437-.022-.689-.24-.091-.08-.138-.08-.081 0-.026.243.088.383.962.93.874.546.142.906-.182.09-.387.09-.622 0-1.46-.822-1.115-1.093-1.18-1.661-.066-.568.459-1.05.312-.285.214-.285-.067 0-.324.133-.633.328-.666.961-.033.634.503 1.388.535.754 2.109 1.913.16.084.364.084.432 0 1.057-.38.918-.556-.918-1.715.677-.175.699-.59.852.284 4.787 5.29 1.05.699 1.071 1.027-.022.306-.328.371-.065.014-.133.014-.248 0-.523-.188-1.224.59-2.371.612h-.12q-1.067 0-1.77-.372.72.634.502 1.333-.106.34-.16.34-.059 0-.059-.383 0-.744-1.901-1.421v.83q-.112.47-.178.47-.063 0-.085-.426-.13-.94-.623-2.022-.491-1.082-1.563-2.994-1.07-1.913-1.366-2.754-.295-.842-.273-1.563.022-.722-.295-1.06-.317-.34-.186-.733.131-.393-.393-.743V.897q.568-.46 1.18-.46zm4.153 12.59q1.071.306 1.071.721l-.721 2.689q-.088.48-.59.48h-.875v-.043l1.115-3.41v-.437zM83.616 0h-.079q-.852 0-1.727.7-.502.175-1.027.809.721.655 1.312.808.065.306.415.853.022 1.443.393 2.393.372.951 2.492 5.104 1.05 2.186 1.05 2.689 0 .765-.963 3.431 0 .153-1.311.24-1.967.066-1.967.547 0 .284.262.284h5.814q.547-.437.612-.743.525.219.569.59.073.295.209.295.025 0 .053-.01.175-.066.175-.285-.153-.59-.765-1.136l.7-2.951q2.12-.066 3.693-.678.292.066.535.066.485 0 .777-.262.437-.394-.175-1.224-1.333-1.334-2.536-2.93-2.47-3.038-3.388-3.518-.306-.634-.732-1.006-.426-.371-1.54-.918-.023-1.29-.602-2.23Q85.299 0 83.616 0zm19.164.394c.704 0 1.585.361 2.012.788.372.373.421.867.435 1.326h-4.872c.014-.459.063-.953.436-1.326.426-.427 1.286-.788 1.99-.788zm0-.394c-.834 0-1.733.386-2.259.912-.54.54-.601 1.251-.601 1.783v.207h5.721v-.207c0-.532-.04-1.243-.58-1.783-.526-.526-1.445-.912-2.28-.912zm-4.72 5.814q-.066 0-.128.02-.243.078-.214.236.024.133.217.133.035 0 .076-.005.264-.028.464-.214-.223-.17-.415-.17zm.124-.145q.515 0 1.59.615.54.28 1.183.28.31 0 .645-.066.843-.171 1.771-.3.316-.044.611-.044.575 0 1.075.166.756.25 1.256.32.5.072 1.586.13-.7.07-1.371.07-.672 0-1.586-.15-.457-.074-.88-.074t-.812.075q-.778.15-1.771.278-.248.032-.488.032-.719 0-1.361-.289-.624-.426-1.297-.426-.297 0-.603.084-.271-.015-.243-.3.157-.386.672-.4h.023zm.382-1.456q-.31 0-.577.943-.223-.833-.577-.833-.053 0-.108.019-.429.27.285 1.042-.57.329-.57.828 0 .5.842.557.26-.068.509-.068.582 0 1.097.375.442.322 1.4.322.638 0 1.507-.143 1.066-.3 2.073-.3.381 0 .754.043.933.108 1.59.108.297 0 .538-.022 1.214-.029 1.214-.229-.328-.3-.928-.4-1.271-.014-2.32-.443-.526-.214-1.288-.214t-1.762.214q-.645.163-1.2.163-.762 0-1.356-.305-.614-.372-1.3-.614.571-.443.536-.736-.036-.293-.35-.307h-.01zm3.814 4.495v4.797h.802V8.708zm-4.32 7.708q-.066 0-.128.02-.243.079-.214.236.024.133.217.133.035 0 .076-.005.264-.028.464-.214-.223-.17-.415-.17zm.124-.144q.515 0 1.59.614.54.28 1.183.28.31 0 .645-.066.843-.171 1.771-.3.316-.043.611-.043.575 0 1.075.165.756.25 1.256.321.5.071 1.586.129-.7.071-1.371.071-.672 0-1.586-.15-.457-.075-.88-.075t-.812.075q-.778.15-1.771.279-.248.032-.488.032-.719 0-1.361-.29-.624-.425-1.297-.425-.297 0-.603.083-.271-.015-.243-.3.157-.386.672-.4h.023zm.382-1.457q-.31 0-.577.943-.223-.833-.577-.833-.053 0-.108.019-.429.271.285 1.042-.57.329-.57.829 0 .5.842.557.26-.069.509-.069.582 0 1.097.376.442.321 1.4.321.638 0 1.507-.143 1.066-.3 2.073-.3.381 0 .754.043.933.108 1.59.108.297 0 .538-.022 1.214-.029 1.214-.229-.328-.3-.928-.4-1.271-.014-2.32-.442-.526-.215-1.288-.215t-1.762.215q-.645.162-1.2.162-.762 0-1.356-.305-.614-.371-1.3-.614.571-.443.536-.736-.036-.293-.35-.307h-.01z"/></svg>