<svg xmlns="http://www.w3.org/2000/svg" width="251.463" height="18"><path d="M13.234 2.432l4.255 4.7-1.307.75-2.948-5.45zm-9.733-1.28q.806 0 1.557.418v.027q0 .529-.5.835-.862.222-.862.278l.917.083h.14q.472-.083.862-.5.222 1 .361 1.056.473.056 1.335.974L9.619 7.27q2.42 3.476 3.615 5.089v.028q-3.281-1.586-3.81-1.891-2.085-.918-3.948-2.225-1.947-1.53-2.225-2.698 0-.445.445-1.084l1-1.335-.11-.028q-.418.139-.974.667-.75.807-.862 1.363h-.028l-.083-.89q0-.417.167-1.001v-.14Q2.389 1.57 2.25 1.57l.556-.306-.084.25q0 .278.223.417h.139q.25 0 .306-.361v-.084q0-.111-.195-.306l.306-.028zm.667 7.287q.14 0 .306.64.278 1.723 2.225 4.588-.306.139-.528.39-.779-.807-1.085-.807h-.028l.028-.223q0-1.335-.918-4.588zm.946.834q1.557 1.224 3.393 2.308v.779L8.562 14v.028l.028.028h-.028q-.667-.528-1.334-.64l-1.28-2.002q-.556-1-.834-2.113v-.028zm.362 4.894q.5.612.64.612l.11-.028.612-.528.14 2.447v.056l-.613-.056q-.5.056-.5.167-.223-.083-.89-.167l-.084.056h-.194l.75-2.559zM6.81 9.774l1.057.584q6.035 3.003 6.118 3.003 1.502 1.724 2.893 3.198v.028l-1.947.334-2.086-2.253-1.78-1.974q-1.14-.89-4.255-2.893v-.027zM3.84.495q-.85 0-1.563.407-.139.028-.5.25-.64.501-.64.863v.027l.028.028.361-.028.223.028q.222 0 .5 1.168-.166.473-.166 1.057v.028q0 1.64 1.223 3.114 1.196 4.089 1.196 5.618l-.028.39q0 .222.334.278l-.834 2.864-.39-.028-1.251.028-.5-.028q-1.113.278-1.113.723v.111q.195-.139.306-.139l.361.028 1.085-.055h.223l.222.055h.445l.25-.028.167.028 2.03.056 2.837-.084.834.056.445-.056.417.056v-.028q-.306-.417-1.196-.612 0 .056-.611.056h-.807l-.139-2.559v-.027l.612.306q.64.723.779.723.166 0 .278-.195v-.028q-.195-1.585-.195-2.892v-.056l.75.473q.613.306 1.948 1.863 2.92 3.17 2.975 3.17l2.197-.333q.807-.056.807-.417l-.028-.167-2.058-2.197q1.863 1.168 2.753 1.557h.084q-.529-.528-1.558-1.251l.5.195q.307-.084.307-.279v-.083l-.028-.139-4.811-3.393Q10.676 7.687 9.23 5.88q-.417-.612-.529-.695l2.948-2.781q.223-.223.584-.306.39.139.5.473l3.255 6.174q.27.368.54.368.035 0 .071-.007.306-.222.112-.918.5.376.735.376.078 0 .127-.042.25-.083-.056-.862.453.359.714.359.123 0 .204-.08.167-.223-.028-.585L12.428.707l-4.172 3.81Q7.2 3.155 6.45 2.932q-.084 0-.278-.778-.334-.723-.64-.89Q4.947.54 4.001.499q-.08-.004-.16-.004zm19.18.201q.927 0 .927 1.222 0 1.075-.927 2.129-.928-1.054-.928-2.129 0-1.222.928-1.222zm0 4.7q.653 0 .653 1.412 0 .8-.653 1.475-.654-.674-.654-1.475 0-1.412.654-1.412zm0 4.257q.653 0 .653 1.413 0 .8-.653 1.475-.654-.674-.654-1.475 0-1.413.654-1.413zm0-9.653q-1.687 0-1.687 1.918-.02 1.201.559 1.886.58.685.516.917-.737.864-.737 2.087 0 1.012.864 2.17-.864.865-.864 2.088 0 1.011.864 2.15.105.273-.59 1.285-.696 1.012-1.434 3.499h.928q.464-1.644.822-2.35.358-.706.759-1.149.421.443.769 1.149.348.706.811 2.35h.949q-.696-2.487-1.423-3.499-.727-1.012-.6-1.286.843-1.138.843-2.15 0-1.222-.801-2.086.8-1.16.8-2.171 0-1.223-.716-2.087-.063-.232.506-.917t.569-1.886Q24.727 0 23.02 0zm9.646.678q.5 0 .392 1.051-.089.785-.392 1.944-.303-1.159-.374-1.944-.125-1.051.374-1.051zM28.957 4.71q.14 0 .304.014.802.089 1.96.392-1.158.303-1.96.392-.186.02-.339.02-.713 0-.713-.412 0-.406.748-.406zm7.462.03q.704 0 .704.394 0 .411-.713.411-.153 0-.339-.019-.784-.089-1.96-.392 1.176-.303 1.96-.374.192-.02.348-.02zm-3.735-.177q.535.036.588.571-.035.588-.624.588-.5-.053-.535-.588.054-.553.57-.57zm-.018 2.033q.303 1.159.374 1.961.125 1.052-.374 1.052-.5 0-.392-1.052.089-.802.392-1.961zm0-6.597q-.5 0-.731.339-.232.339-.24.865-.01.525.169 1.239.178.713.178 1.034 0 .481-.196.82-.339.214-.838.214-.321 0-1.034-.178-.713-.179-1.222-.179-.508 0-.855.232-.348.232-.348.731 0 .5.33.74t.856.24q.526 0 1.239-.178.713-.178 1.052-.178.481 0 .82.232.196.339.196.838 0 .32-.178 1.034-.179.713-.17 1.23.01.517.241.865.232.348.731.348.5 0 .731-.339.232-.339.24-.865.01-.526-.169-1.239-.178-.713-.178-1.052 0-.481.196-.82.357-.214.838-.214.321 0 1.034.178.68.17 1.18.17h.05q.518-.01.865-.241.348-.232.348-.731 0-.481-.339-.722-.339-.24-.865-.24t-1.239.177q-.713.179-1.052.179-.463 0-.802-.214-.214-.357-.214-.838 0-.321.178-1.034.179-.714.17-1.23-.01-.518-.241-.865Q33.165 0 32.666 0zm1.16 12.275v.433h-2.288v-.433zm-1.151.853q1.435 0 1.983.73.548.732.548 1.314-.013.907-.758 1.584-.744.676-1.773.676-1.042 0-1.787-.676-.744-.677-.744-1.57 0-.596.446-1.327.447-.731 2.085-.731zm-1.787-1.3v1.016q-.487.284-.893.92-.406.636-.42 1.408 0 .907.751 1.834.752.927 2.349.995 1.584-.068 2.342-.995t.758-1.82q-.014-.786-.42-1.429-.406-.643-.907-.927v-1.002zM50.444 1.728a.066.066 0 0 1 .021.003c-.079.127-.047.198.095.214.174-.048.205-.119.095-.214l.332.143a1.343 1.343 0 0 1-.427.07.377.377 0 0 1-.054.005.253.253 0 0 1-.207-.099c.054-.081.103-.122.145-.122zm.113-.117c-.015 0-.03 0-.045.002-.158.016-.284.118-.379.308.143.128.288.192.436.192.017 0 .034 0 .05-.003a1.32 1.32 0 0 0 .533-.19h.308v-.094h-.308c-.243-.143-.441-.215-.594-.215h-.001zm1.582-.034c.063 0 .09.032.08.095a.54.54 0 0 1-.142.284.713.713 0 0 1-.226.178.119.119 0 0 1-.041.013c-.025 0-.01-.032.041-.096.056-.068.068-.102.036-.102a.122.122 0 0 0-.036.007.124.124 0 0 1-.037.008c-.036 0-.035-.034.002-.102.047-.087.102-.17.166-.25a.501.501 0 0 1 .157-.035zm-.465.557c.079.048.095.091.047.13-.021.018-.04.027-.057.027-.02 0-.037-.013-.05-.038-.023-.048-.003-.087.06-.119zm.544-.72a.403.403 0 0 0-.118.021.633.633 0 0 0-.331.273c-.095.142-.12.245-.072.308-.094.047-.154.107-.177.178-.024.07.008.126.094.165a.136.136 0 0 0 .057.012c.083 0 .19-.063.323-.19.165-.157.272-.296.32-.414.047-.119.055-.213.023-.284-.02-.045-.058-.068-.115-.069h-.004zm-.398-1.1c.172 0 .369.027.588.078.57.135.857.427.865.877.008.45-.221.853-.687 1.209-.21.16-.338.24-.384.24-.057 0 .008-.12.194-.359.34-.434.459-.79.356-1.066-.068-.183-.237-.274-.508-.274-.14 0-.306.024-.5.073-.631-.174-.82-.368-.568-.58.15-.128.356-.193.617-.197h.027zm-2.108 2.647a.249.249 0 0 0 .018.074.802.802 0 0 1 .048.296c0 .119.075.19.225.213.064.01.136.016.214.016.102 0 .217-.01.343-.027.074.31.034.464-.12.464l-.034-.003a.787.787 0 0 0-.102-.006c-.186 0-.456.054-.787.208l-2.76 2.019c.382-.892.716-1.652.987-2.273.43-.144.842-.357 1.256-.419.166-.025.087-.324.12-.51.042-.001.374-.034.592-.052zm.99-1.858h.012c.103.008.391.107.865.297.026.07.07.104.129.104a.35.35 0 0 0 .179-.069.529.529 0 0 1 .289-.095c.058 0 .116.012.173.036.15.063.17.205.06.427-.111.22-.257.406-.439.556-.182.15-.26.312-.237.486.023.174.13.3.32.38.047.284.178.52.39.71.214.19.581.403 1.103.64-.822 1.39-1.232 2.394-1.232 3.01 0 0 .043.213.098.51.087.469.205 1.147.233 1.528a.755.755 0 0 1-.094.45c-.146.24-.898.357-2.249.357l-.263-.001c-.714.072-1.494.108-2.341.108-.636 0-1.309-.02-2.02-.06.174-.522 1.082-.878 2.725-1.067 1.628 0 2.441-.482 2.441-1.446 0-.664-.355-1.73-1.066-3.2.916-.252 1.295-.528 1.137-.829.064-.442-.047-.679-.331-.71a1.13 1.13 0 0 1-.113.005c-.247 0-.39-.096-.432-.29.237-.095.323-.174.26-.237s-.174-.103-.332-.118c.111-.111.071-.214-.118-.309l.427-.663a.46.46 0 0 1 .284-.084c.179 0 .408.068.687.202.158-.015.115-.083-.13-.201a1.46 1.46 0 0 0-.723-.154c.106-.182.209-.273.308-.273zM52.014 0a2.8 2.8 0 0 0-.518.049c-.514.095-.976.466-1.386 1.114-.095.237-.324.584-.688 1.042-.06.198-.04.297.06.297h.012a.638.638 0 0 1 .045-.002c.087 0 .15.02.191.06-.052.04-.08.082-.084.127l-.586-.001c-.446.016-.942.215-1.436.598-1.242 1.067-1.84 2.32-1.824 3.738 0 .192.109.277.311.277.033 0 .07-.003.108-.007.915-.399 2.789-1.164 3.426-1.527.357.61.536 1.565.536 2.863l-.996.19c-2.401.236-3.791.615-4.17 1.137-.522.3-.909 1.35-1.162 3.152-.379 1.895-1.09 2.883-2.133 2.962l-1.753.663-.166.308c.126.11.245.166.355.166l3.223-.166c.222-.727.66-1.63 1.316-2.713.655-1.082.912-2.042.77-2.88.3 1.075.576 2.465.83 4.171.047.411-.451.783-1.494 1.114-.474.032-.71.182-.71.45l2.44-.094c.537 0 .806-.214.806-.64-.174-.38-.194-1.153-.06-2.323.135-1.169-.011-2.117-.438-2.843l4.171-.166c1.359 0 2.038-.348 2.038-1.043l-.118-2.322c0-.885.237-1.644.71-2.275l.498 2.109-.71 3.27a2.35 2.35 0 0 0-.297.628c-.055.198-.09.375-.107.533 0 .127.036.296.107.51.071.213.115.415.13.604a.268.268 0 0 0 .095.095.04.04 0 0 0 .018.005c.023 0 .04-.026.053-.076.036.036.065.054.088.054.028 0 .046-.026.054-.078.036.036.066.054.089.054.027 0 .045-.026.054-.077.025.025.05.037.076.037.006 0 .012 0 .019-.002.031-.008.047-.051.047-.13a14.632 14.632 0 0 1-.178-.605c-.04-.15-.043-.375-.012-.675.016-.08.032-.118.048-.118.031 0 .063.023.095.07 0 .08-.008.19-.024.332a.603.603 0 0 0 .035.332c.025.05.054.074.088.074.02 0 .043-.009.066-.026.048-.016.06-.087.036-.214-.024-.126-.008-.308.047-.545.056-.237-.004-.49-.177-.758.726-.964 1.098-2.18 1.113-3.65-.079-1.042-.284-1.92-.616-2.63a3.38 3.38 0 0 0-1.658-.877c-.411-.347-.348-.7.189-1.055.537-.355.794-.813.77-1.374-.024-.56-.264-.932-.723-1.114A2.525 2.525 0 0 0 52.014 0zm-11.21 17.97c0 .01.002.02 0 .03h.061c-.017-.013-.044-.017-.06-.03zM60.033 2.277q-.172.172 0 .318l-.49-.185.49-.133zm2.648-.013l.476.146-.476.185q.172-.146 0-.331zm-2.317-.013l.397.29-.424.08q.16-.145.027-.37zm1.986-.014q-.133.239.026.384l-.424-.08.398-.304zm.055-.108q-.138 0-.22.042-.285.146-.391.424.238.131.532.131.475 0 1.096-.343-.677-.254-1.017-.254zm-2.09.001q-.343 0-1.037.266.62.339 1.094.339.304 0 .548-.14-.106-.278-.39-.424-.081-.04-.216-.04zm-2.114-.63q-.078 0-.175.09-.271.251.444 1.443l.132-.093-.212-.516.013-.424-.172-.026q.053.066.06.29.006.226.232.636l-.04.04q-.093-.172-.291-.616-.199-.443-.073-.615.048-.066.097-.066.08 0 .16.172l.04-.027q-.076-.288-.215-.288zm6.308 0q-.143 0-.227.288l.04.027q.081-.172.163-.172.05 0 .101.066.132.172-.066.615-.199.444-.305.616l-.04-.04q.226-.41.232-.635.007-.225.06-.291L64.308 2l.013.424-.212.516.12.093q.728-1.192.456-1.443-.097-.09-.176-.09zm-6.224-.184q.114 0 .151.161.073.311.053.516-.014.148.147.148.063 0 .151-.022-.344.384-.026.702.08.437-.146.45h-.007q-.224 0-.589-.755-.37-.767-.013-1.059.173-.14.28-.14zm6.141 0q.106 0 .28.141.357.292-.02 1.06-.372.754-.589.754h-.007q-.219-.013-.14-.45.305-.318-.026-.702.085.022.145.022.156 0 .146-.148-.013-.205.06-.516.038-.16.151-.16zm-2.027.278q-.082 0-.156.016-.464.099-.622.43-.146.45-.14 1 .007.549.305.648.298.1.205.205-.05.059-.122.059-.058 0-.13-.039-.06-.033-.114-.033-.087 0-.157.086-.056.07-.114.07t-.117-.07q-.074-.086-.16-.086-.054 0-.112.033-.068.039-.126.039-.07 0-.125-.059-.1-.106.198-.205.298-.1.305-.642.006-.543-.126-1.006-.132-.331-.576-.43-.07-.016-.15-.016-.423 0-1.114.446l-.027.198q.652-.405 1.131-.405.32 0 .564.18.278 1.033-.04 1.51-.543.132-.37.436.1.18.28.18.126 0 .289-.087.139.172.274.172.136 0 .269-.172.168.087.296.087.185 0 .286-.18.172-.304-.384-.436-.251-.477-.026-1.51.253-.188.58-.188.478 0 1.114.4l-.04-.198q-.621-.433-1.048-.433zm-.7 2.866q.148 0 .372.082-.379.126-.768.126-.347 0-.702-.1.256-.104.418-.104.106 0 .171.045.083.056.164.056t.16-.056q.07-.05.184-.05zm-1.098.214q.377.14.778.14.4 0 .824-.14-.437.292-.847.312h-.047q-.383 0-.708-.312zm.45-.384q-.318.067-.715.292.358.437.702.516.142.033.294.033.215 0 .447-.066.398-.113.583-.497-.424-.211-.702-.264l-.304.119-.305-.133zm1.31-3.256q.583.556 1.404 1.059.146.384.066.503-.079.119-.158.702-.41.926-.762 1.522-.35.596-.728.84-.164.107-.342.107-.231 0-.485-.18-.305.21-.532.21-.119 0-.216-.057-.285-.165-.755-.728-.47-.563-.827-1.714-.08-.583-.153-.696-.072-.112.06-.51 1.165-.516 1.403-1.032.495.206.986.206.522 0 1.04-.232zm-1.005 4.819q.346.241.618.241.07 0 .136-.016l.265 1.734H60.31l.291-1.734q.066.016.137.016.271 0 .618-.241zm0-5.852q-2.105 0-2.675 1.88.053-.57-.278-.735-.08-.04-.162-.04-.257 0-.533.391-.364.516.563 1.84.17.364.345.364h.006q.179-.006.245-.178.37 1.562 1.483 2.316l-.371 2.225h2.7l-.317-2.225q.847-.78 1.483-2.316.066.172.245.178h.006q.175 0 .344-.364.927-1.324.556-1.84-.28-.391-.534-.391-.082 0-.16.04-.325.166-.259.735Q63.462 0 61.357 0zM59.37 12.775a.11.11 0 0 0-.008 0c-.35.024-.311.058-.494.105l-.24.413c.182.105.355.164.544.164.128 0 .263-.026.414-.084.156-.06.36-.073.549-.073.127 0 .247.006.34.006.086 0 .149-.005.173-.023.076-.057-1.075-.508-1.278-.508zm2.293-2.654c1.996 0 4.104 1.656 3.293 4.816-.185.72-.391 1.15-.714 1.29a.356.356 0 0 1-.189.052c-.574 0-1.331-1.24-1.377-1.254-.142-.04.93-.871.765-1.639-.035-.164-.158-.753-.964-.753-.05 0-.103.002-.159.007-.342.03-.446.293-.558.293-.063 0-.129-.085-.242-.347-.26-.606-2.124-.84-2.316-.922-.119-.051-.188-.11-.049-.313.566-.826 1.525-1.23 2.51-1.23zm-2.733 2.064c.204 0 1.922.45 2.003.488.096.023.39.936.72.985a.998.998 0 0 0 .147.012c.463 0 .587-.367.76-.367a.14.14 0 0 1 .035.004c.732.207-.13.976-.737 1.546-.34.319 1.99 2.442 1.99 2.442l-2.423.055-.675-.954c-.056-.08-.25-.15-.536-.15-.253 0-.578.055-.941.206-.188.078-.34.11-.461.11-.58 0-.484-.736-.484-.736a4.018 4.018 0 0 1-.188-.239h.028c.335 0 .821-.11.906-.214.109-.054-.131-.27-.287-.27a.134.134 0 0 0-.043.007c-.189-.084-.419-.051-.608-.113.09-.339-.414-.676-.382-.749l1.16-2.061a.052.052 0 0 1 .016-.002zm2.645-2.614c-.805 0-1.737.184-2.423.858-.395.388-.45.787-.904 1.713-.328.67-1.32 1.997-1.256 2.199.166.52.603.168.559.99-.037.67.3.218.37 1.064.02.249-.176.954-.203 1.012.064.33.361.446.617.458h.006c.29 0 .95-.957 1.093-1.02.103-.045.366-.079.543-.079.074 0 .132.006.159.02.167.085.666 1.163.865 1.214l2.993-.03c.185-.002.303-.312.657-.851.699-1.062 1.055-2.343 1.068-3.373.03-2.46-1.154-3.335-2.453-3.918-.08-.036-.808-.257-1.691-.257zM75.263.259v.943h-.277V.259zm1.646 0v.943h-.278V.259zm.832 0v.943h-.296V.259zm-1.665.018v.943H75.8V.277zm-1.72.389q-1.774 1.238-3.069 1.238-1.275 0-2.237-1.238zm9.228 0q-.955 1.248-2.329 1.248h-.02q-1.387-.01-2.847-1.248zM67.719 0q1.331 2.607 3.642 2.607 1.702 0 3.088-1.072h3.754q1.202 1.072 3.106 1.072 2.275 0 3.698-2.607zm0 4.258v6.041h1.01V4.258zm3.255 0v6.041h1.011V4.258zm3.256 0v6.041h1.01V4.258zm3.255 0v6.041h1.011V4.258zm3.255 0v6.041h1.012V4.258zm3.256 0v6.041h1.011V4.258zM68.842 11.95V18h1.012v-6.05zm6.953.008V18h1.01v-6.042zm7.078 0V18h1.01v-6.042zm13.753-3.254c.337 0 .752.06 1.245.18 1.042.253 1.942.612 2.702 1.076a33.73 33.73 0 0 1 2.553 1.752c-.907.459-1.95.689-3.13.689-.265 0-.537-.012-.816-.035-1.52-.127-2.824-.574-3.915-1.34-1.09-.767-1.36-1.238-.812-1.414.549-.176.995-.404 1.34-.686.181-.148.46-.222.833-.222zm7.26 3.176l.865.19c0 .225-.204.408-.612.549-.232.016-.474.024-.726.024-.42 0-.867-.022-1.342-.066.914-.113 1.52-.345 1.815-.697zm1.329.317l.528.105c.056.17-.141.338-.591.507l-.612-.042c.436-.197.66-.387.675-.57zm.802.211l.359.084c-.085.24-.338.36-.76.36.24-.156.373-.303.4-.444zm.59.211c.338.098.563.26.676.485l-.95-.21c.183-.085.275-.177.275-.275zm-2.194 1.245c1.055.127 1.85.422 2.385.886l-2.617-.612c.028-.154.105-.246.232-.274zM92.195.401c.661 0 1.16.183 1.498.549.338.365.443 1.248.317 2.648-.127 1.4-.169 2.35-.127 2.849.042.5.173.868.39 1.108.219.239.482.474.792.706.31.233.155.44-.464.623-.62.183-.964.454-1.034.812-.07.36.017.69.263.992.247.303.834.71 1.762 1.224.929.514 1.748.84 2.459.981.71.141 2.887.211 6.53.211 1.126.211 1.872.493 2.238.844l-2.406-.548a.943.943 0 0 0-.527.4c0 .366-.795.577-2.385.634-.24 0-.4-.33-.485-.992l-.254.211c.127.535.162 1.006.106 1.414a1.582 1.582 0 0 0-1.034-.95c-.788-.14-1.491-.27-2.11-.39-.62-.12-1.245-.376-1.878-.77-.563-.436-1.467-.908-2.712-1.414-1.245-.507-1.867-1.26-1.867-2.258 0-.999.334-1.825 1.002-2.48.668-.654 1.002-1.438 1.002-2.352 0-.45-.056-.876-.169-1.277-.101-.363-.405-.544-.91-.544a2.39 2.39 0 0 0-.166.006l-1.772.232a1.71 1.71 0 0 1 .253-.507c.14-.436.295-.689.464-.76.025.087.12.13.284.13.024 0 .048 0 .075-.003.281-.014.443-.154.485-.422-.028-.267-.19-.408-.485-.422-.253.014-.394.155-.422.422a2.306 2.306 0 0 0-.528.739c-.04.02-.08.03-.12.03a.274.274 0 0 1-.196-.093c.169-.338.415-.686.738-1.045.324-.359.788-.538 1.393-.538zm4.79 13.758l.675.17-.76 1.097.085-1.267zm1.309.233c.562 0 1.037.06 1.424.179.387.12.626.573.717 1.361.09.774-.027 1.161-.351 1.161H98.04a1.842 1.842 0 0 0-.136-.005c-.345 0-.729.093-1.15.279.112-.985.625-1.977 1.54-2.975zM92.195 0c-.957 0-1.744.535-2.363 1.604-.211.351-.837.703-1.878 1.055-.718.21-1.027.506-.929.886l.021.253c1.337-.126 2.455-.288 3.355-.485l1.646-.295a.89.89 0 0 1 .025 0c.49 0 .731.414.724 1.245-.007.844-.362 1.6-1.065 2.268-.704.668-1.062 1.635-1.076 2.902 0 1.027.488 1.762 1.466 2.205.978.443 1.924.918 2.838 1.424.915.507 1.435.9 1.562 1.182-.07 1.491-.253 2.455-.549 2.89-.492 0-1.35-.07-2.574-.21-.38.056-.64.18-.78.37-.142.189-.113.397.083.622.095-.136.185-.204.271-.204.03 0 .06.008.088.024.113.064.394.095.844.095h2.068c.102-.02.198-.03.289-.03a.92.92 0 0 1 .598.199.988.988 0 0 0 .506-.169c.621.018 1.14.027 1.559.027.557 0 .935-.016 1.132-.048.344-.056.657-.105.939-.148l.717.232.024.001c.161 0 .181-.14.06-.423-.619-.337-.76-1.188-.422-2.553.12.003.234.004.346.004 1.112 0 1.841-.128 2.187-.384 1.406.253 2.553.5 3.44.739l.147-.253c-.366-.408-.64-.669-.823-.781l.928.19c.15.056.255.084.312.084.116 0 .047-.112-.206-.337-.056-.155-.464-.458-1.224-.908l1.287.253c.141-.9-.837-1.54-2.933-1.92a7.14 7.14 0 0 1-2.975-1.477c-1.168-1.027-2.933-1.78-5.297-2.258-1.252-.084-1.948-.468-2.089-1.15-.14-.682-.137-1.77.01-3.26.148-1.491-.06-2.462-.622-2.912C93.44.183 92.884 0 92.195 0z"/><path d="M98.959 0v7.2h1.205V0zm18.998.893v16.36h-7.142v-.79h3.612V6.769h2.222V.893zM115.88 0v6.042h-2.221v9.778h-3.695V18h8.76V0zm10.727.911v2.43q-.537-.8-3.22-.8h-1.984V.911zm.03-.911q-1.093.202-3.25.202h-2.662V3.25h2.662q1.407 0 2.015.293.617.294 1.205.84l.03 13.617h1.174V0zm10.789 1.59q-.26 0-.407.147v.159q.177-.167.46-.167.194 0 .437.079h.141v-.106l-.14-.018q-.282-.094-.49-.094zm.033.323q.14 0 .281.07-.088.036-.299.106.053-.053.053-.105 0-.036-.035-.07zm-.176.018q-.018.017-.018.07 0 .053.07.088-.021.005-.048.005-.079 0-.198-.04.106-.106.194-.123zm.14-.141q-.351.018-.422.3l.018.07.105-.018q.08.04.169.04.03 0 .06-.005.141 0 .563-.193l.159.017v-.088h-.141q-.387-.105-.51-.123zm.01-.387q.146 0 .387.07.36.106.36.458h.247q.035-.317.193-.335.159 0 .07.317l-.457.81.053 1.425h-.053q-.281-.123-.422-.686h-.475l-.05.002q-.214 0-.214-.143 0-.264.228-.299 0-.123-.088-.14l-.316.017q.088-.211-.194-.282 0-.123.229-.58-.018-.335.035-.493l.343-.124q.05-.017.123-.017zm1.162-1.077q1.164 0 1.662.83.528.88.634 3.116l.07 2.252-2.217.07-.159-3.854q.106-.158.3-.484.193-.325.167-.686-.022-.29-.276-.29-.062 0-.138.017-.3 0-.352.352-.035-.264-.334-.387-.162-.066-.394-.066-.2 0-.451.048.07-.862 1.346-.915.072-.003.142-.003zm-.291 4.456L138.392 7l2.094-.07q-.528 2.287-.475 5.93-.166 1.361-1.317 1.361-.07 0-.144-.005-1.373-.088-2.842-.475-.39-.103-.807-.103-1.158 0-2.529.79-.065.032-.129.032-.178 0-.346-.253-.229-.343.58-.818 1.62-.757 4.348-1.584.423-1.268.836-1.954.414-.686.308-1.76-.58-.44-.669-.862.581-.564.053-1.426l-.035-.74q.405-.263.986-.281zM138.545 0q-.084 0-.171.004-1.531.061-1.672 1.54-.035.281 0 .51-.229.475-.229.669.018.088.247.088l-.053.14q.035.053.105.071-.035.088 0 .194h.088q-.085.475.372.475h.033l.317-.018q.035.194.132.343.097.15.326.361-.704.07-.968.405-.916 1.144-2.06 3.133-.862.792-1.258 1.373-.396.58-1.452 1.109-.335-.07-.792-.124-.13-.023-.29-.023-.08 0-.168.006-.193.053-.51.22t-.616.202q-.106.053-.115.115-.008.061.062.096-.035.036-.018.088.018.053.07.053-.034.053-.008.097.026.044.08.044-.054.035-.018.106.023.047.078.047.027 0 .062-.012l.616-.308q.23-.115.74-.132.105 0 .114.044.009.044-.08.061-.06.01-.158.01-.096 0-.228-.01-.194.018-.308.08-.115.061-.044.167.016.04.072.04.067 0 .192-.058.21 0 .598.035.039.004.077.004.345 0 .662-.285l.74-.352q1.53-.81 2.464-1.971 1.122-1.304 1.455-1.942-.413.882.445 1.572.088.915-.308 1.549-.396.633-.783 1.601-2.024.51-4.277 1.584-1.76.933-.44 2.025h5.298q-1.056 0-1.54.475T134.942 18h.669q0-1.742.334-2.024.335-.282 1.021-.282V18h.669v-2.306q.704 0 1.03.29.325.291.325 2.016h.669q0-2.024-.475-2.49-.476-.467-1.55-.467l3.08-.017q.282.008.5.008.654 0 .733-.079h.282q.017-.3-.3-.37-.035-.158-.457-.158-.88-.51-.722-.898.158-.281.22-.598.062-.317-.431-.37-.106-3.379.422-5.65l.405-.017-.053-1.25q.458 1.338 1.303 2.253.493 1.162 2.235 2.887.194.545.44.783t.387.343q.076.199.153.199.011 0 .023-.005.088-.053.035-.167-.052-.115-.193-.256-.141-.123-.159-.299-.052-.053-.035-.079.006-.009.02-.009.027 0 .086.035.317.317.413.546.097.229.29.616.067.055.105.055.023 0 .037-.02.03-.047.007-.066.022.013.041.013.022 0 .04-.017.035-.035.035-.07.006.005.014.005.018 0 .047-.023.044-.035-.008-.053.123-.018.132-.07.008-.053-.027-.159-.176-.193-.308-.528-.132-.334-.255-.457-.158-.176-.3-.247-.334-.264-.58-.387l-.035-.018q-.915-1.97-1.76-2.939-.67-1.408-1.55-2.693-.298-.563-.686-.563-.07-2.27-.712-3.291Q139.942 0 138.545 0zM150.7 0l-1.94 2.292h.946l.993-1.184 1.003 1.184.975-1.184 1.002 1.184.994-1.184 1.003 1.184.993-1.184 1.003 1.184.974-1.184 1.003 1.184 1.003-1.184.974 1.184 1.003-1.184.993 1.184h.946L162.628 0l-1.002 1.108L160.652 0l-1.003 1.108L158.646 0l-.974 1.108L156.669 0l-.993 1.108L154.673 0l-.994 1.108L152.677 0l-.975 1.108L150.7 0zm4.345 4.55v12.862h-5.615v-.62h2.84V9.17h1.747V4.55zm-1.632-.703v4.75h-1.747v7.689h-2.905V18h6.888V3.847zm7.473.468c.835 0 1.88.429 2.386.935.443.442.5 1.029.517 1.574h-5.781c.016-.545.074-1.132.516-1.574.506-.506 1.527-.935 2.362-.935zm0-.468c-.99 0-2.057.458-2.682 1.083-.64.64-.713 1.484-.713 2.116v.246h6.79v-.246c0-.632-.048-1.475-.689-2.116-.625-.625-1.715-1.083-2.706-1.083zm-1.793 6.993q.417 0 1.1.227 1.17.39 2.424 1.63 1.255 1.241 1.004 2.3-.251 1.06-.976 1.589-.598.437-1.444.437-.178 0-.367-.02-1.087-.11-1.868-1.713-.78-1.603-.724-2.857.055-1.254.39-1.477.162-.116.46-.116zm-.115-.968q-.574 0-.931.248-.753.53-.837 2.174-.083 1.644.948 3.567 1.031 1.923 2.508 2.104.283.035.55.035 1.13 0 1.987-.62 1.059-.766 1.324-2.174.264-1.407-1.13-2.982-1.393-1.575-3.01-2.09-.819-.262-1.409-.262zm16.522-8.65q.14 0 .262.19.15.23.143.515-.006.286-.193.336-.029.008-.057.008-.142 0-.266-.207-.15-.249-.143-.516.006-.267.193-.317.03-.009.06-.009zm-6.95 0q.139 0 .261.183.15.224.137.516-.013.292-.187.342-.03.009-.058.009-.141 0-.265-.202-.15-.242-.143-.516.006-.273.193-.323.031-.009.062-.009zm2.348.008q.133 0 .25.181.15.23.144.516-.007.286-.193.336-.03.009-.059.009-.142 0-.27-.202-.156-.242-.144-.51.013-.267.2-.317.036-.013.072-.013zm2.289-.008q.14 0 .262.19.15.23.143.522-.006.292-.193.33-.03.008-.058.008-.141 0-.265-.202-.15-.242-.143-.51.006-.267.193-.329.03-.009.06-.009zm-3.207 6.6l.41 1.492h-2.2q.397-1.493 1.79-1.493zm2.338 0l.41 1.492h-1.691l-.41-1.493zm.621 0l1.691.012.41 1.48h-1.678l-.423-1.493zm4.004.012l.41 1.48h-1.69l-.41-1.48zM168.537 0l-.72.199.372.721q-.26.075-.26.541t.23.833q.23.367.428.43l1.244 4.55q-1.692 0-2.189 2.04v.572H178l-.012-.572H178l-.41-1.493h.398v-.534h-.547v.012l-1.33-4.737q.148-.162.155-.597.006-.436-.23-.827-.199-.33-.424-.33-.043 0-.086.013l-.05-.821-.709.199.386.734q-.274.062-.274.528t.224.833q.224.367.423.43l1.28 4.563h-1.703l-1.293-4.725q.137-.15.143-.585.006-.435-.23-.827-.204-.338-.436-.338-.037 0-.074.009l-.05-.821-.709.199.386.734q-.274.074-.274.534t.23.827q.23.367.43.442l1.268 4.55h-1.704l-1.293-4.712q.137-.162.143-.597.006-.435-.23-.833-.194-.326-.413-.326-.048 0-.097.015L170.863 0l-.71.199.374.734q-.261.074-.261.534t.224.827q.223.367.422.43l1.269 4.563h-1.704l-1.305-4.725q.136-.162.143-.597.006-.436-.237-.827-.203-.33-.42-.33-.042 0-.083.013L168.537 0zm-.435 11.308l-1.534 1.813h.748l.786-.937.793.937.771-.937.794.937.785-.937.794.937.786-.937.793.937.771-.937.794.937.793-.937.771.937.794-.937.786.937h.748l-1.534-1.813-.794.876-.77-.876-.794.876-.794-.876-.77.876-.794-.876-.786.876-.794-.876-.785.876-.794-.876-.77.876-.794-.876zm-.404 4.973q-.071 0-.139.022-.263.085-.232.256.026.144.236.144.038 0 .082-.005.286-.03.503-.232-.242-.185-.45-.185zm.135-.157q.559 0 1.726.667.585.303 1.283.303.337 0 .7-.07.915-.186 1.922-.326.342-.047.663-.047.624 0 1.166.179.822.271 1.364.349.542.077 1.72.14-.76.077-1.488.077t-1.72-.163q-.496-.082-.955-.082-.46 0-.881.082-.845.163-1.922.302-.27.035-.53.035-.78 0-1.477-.314-.677-.462-1.407-.462-.322 0-.655.09-.294-.015-.263-.325.17-.419.728-.434h.026zm.414-1.58q-.335 0-.626 1.023-.242-.904-.626-.904-.057 0-.117.02-.465.295.31 1.132-.62.356-.62.899 0 .542.914.604.283-.074.552-.074.632 0 1.192.407.478.349 1.518.349.693 0 1.635-.155 1.158-.326 2.25-.326.414 0 .82.047 1.011.117 1.723.117.324 0 .585-.024 1.318-.031 1.318-.248-.357-.325-1.008-.434-1.379-.015-2.518-.48-.57-.233-1.397-.233-.827 0-1.912.233-.7.176-1.303.176-.826 0-1.471-.331-.667-.403-1.41-.667.62-.48.58-.798-.038-.318-.38-.333h-.01zM182.722 0c-.336 0-.67.026-.995.066-.447.113-.217.626.18.626a.476.476 0 0 0 .082-.008c.839.097 1.872.15 2.506.626.84.916.463 2.821.56 3.725.008.05.01 3.653.01 5.48a6.145 6.145 0 0 0-2.634-.586 6.04 6.04 0 0 0-1.188.117c-.44.231.077.528.423.528.041 0 .08-.004.114-.013 1.227.133 2.62.461 3.243 1.602.062.206.024.277-.07.277-.207 0-.68-.342-.947-.342-.014 0-.027 0-.04.003a7.535 7.535 0 0 0-1.58-.169c-.39 0-.776.031-1.148.095-.421.278.095.534.437.534a.532.532 0 0 0 .105-.01c1.252.151 2.637.49 3.243 1.633.007 1.27 0 2.11.034 3.278-.015.36.22.538.456.538.235 0 .473-.176.474-.526-.008-1.15-.09-2.161.06-3.277.305-1.253 2.478-1.445 3.828-1.754.294-.347-.285-.475-.659-.475-.056 0-.107.003-.15.008a6.823 6.823 0 0 0-.521-.02c-.883 0-1.772.175-2.558.58-.032-.755.712-1.19 1.244-1.493.84-.361 1.766-.397 2.644-.59.313-.273-.18-.501-.522-.501a.58.58 0 0 0-.125.012 6.767 6.767 0 0 0-.647-.031c-.903 0-1.805.183-2.615.582.017-2.851.063-5.61-.019-8.308-.065-.834-.546-1.6-1.354-1.849-.58-.264-1.227-.358-1.871-.358zm11.327 1.124q2.014.293 2.105 1.842v11.177q-.941-1.124-3.38-1.58l1.275-11.44zM193.482 0l-1.509 13.363q3.361.385 4.181 2.4V18h1.003V2.966q0-2.51-3.675-2.966zm7.75 1.124q2.015.293 2.106 1.842v11.177q-.942-1.124-3.382-1.58l1.276-11.44zM200.665 0l-1.508 13.363q3.36.385 4.18 2.4V18h1.003V2.966q0-2.51-3.675-2.966zm10.041.601c1.074 0 2.418.552 3.069 1.202.57.57.644 1.324.664 2.025h-7.435c.021-.7.096-1.455.665-2.025.65-.65 1.963-1.202 3.037-1.202zm0-.601c-1.274 0-2.645.589-3.448 1.392-.825.824-.918 1.91-.918 2.72v.317h8.732v-.316c0-.812-.062-1.897-.886-2.72C213.383.588 211.98 0 210.706 0zm.047 10.864q1.415.096 2.202.996.788.9.756 2.025 0 1.158-.772 2.042-.771.884-2.057.884-1.511 0-2.33-.933-.82-.932-.82-1.993 0-1.253.9-2.121.9-.868 2.121-.9zm0-1.125q-.868 0-1.623.321-.756.322-1.334.884-.579.563-.9 1.334-.322.772-.322 1.64.065 1.221.53 2.009.467.787 1.094 1.253.626.466 1.366.643.74.177 1.35.177.9 0 1.607-.338.707-.337 1.238-.9.53-.562.803-1.301.274-.74.274-1.511.032-.868-.306-1.64-.337-.771-.884-1.334-.546-.562-1.302-.9-.755-.337-1.59-.337zm14.59-6.668c-.27.13-.6.49-.1.55.24-.01.79-.26.69-.49a.221.221 0 0 1-.157.067c-.142 0-.287-.127-.433-.127zm-1.97.09c-.33.08-.5.44-.08.52l.021.002c.242 0 .901-.294.358-.361-.09-.06-.18-.16-.3-.16zm2.63-2.51c.59.69 1.111 1.49 1.211 2.41.1.66.13 1.321.23 1.971-.47-.04-.33-.77-.24-1.12.08-.69-.29-1.33-.55-1.941-.18-.33-.35-.85-.81-.86-.51.09-.84.52-1.171.89-.34-.34-.7-.71-1.17-.85a.236.236 0 0 0-.082-.013c-.105 0-.229.046-.285.046-.05 0-.049-.034.056-.164.064-.224.196-.29.359-.29.238 0 .543.141.8.141a.561.561 0 0 0 .112-.01c.084.004.169.007.254.007.437 0 .876-.067 1.287-.218zm-.16.76c.39.1.48.64.67.96.24.56.531 1.17.341 1.801-.15.3.04.68.02.9-.334.235-.627.73-1.07.73a.631.631 0 0 1-.15-.02c-.44-.09-.66-.51-1.001-.71-.246.238-.392.73-.798.73a.618.618 0 0 1-.183-.03c-.37-.08-.86-.04-.97-.49-.19-.46-.21-.97-.24-1.47a.324.324 0 0 0 .061.006c.202 0 .22-.235.239-.436.078-.293.288-.429.52-.429.158 0 .326.062.47.178.17.19.69.34.58.64-.05.18-.11.371-.17.561l.42.56c.04-.29.471-.53.221-.82-.04-.13-.19-.3-.17-.4.18-.32.42-.6.7-.84a.322.322 0 0 1 .23-.103c.268 0 .537.351.77.382.23-.25-.02-.35-.25-.48a.701.701 0 0 0-.486-.196c-.25 0-.5.13-.654.356-.19.114-.322.494-.49.494-.052 0-.108-.037-.17-.134-.306-.244-.672-.518-1.072-.518a.855.855 0 0 0-.179.018c-.283.059-.537.632-.559.632l-.001-.001c-.01-.47.21-.89.34-1.351a.612.612 0 0 1 .596-.477c.173 0 .348.075.475.237.297.11.516.634.796.634.05 0 .1-.017.154-.054.31-.33.56-.72 1.01-.86zm10.317 3.426c.247 0 .37.13.37.388v2.987h-1.13l.37-3.146c.013-.153.142-.23.39-.23zm-7.215 1.136c.707.406 1.568 1.283 2.455 2.344l-5.05.145-.557-.508c1.521-.51 2.612-1.37 3.152-1.981zm-1.81-.74c.06.125.137.166.22.166.107 0 .223-.071.32-.116.24.17 1.07.15.58.51-.31.42-1.968 1.566-3.12 1.768-.394.07.05.578.385.925l-.223.006c-.44-.638-.947-1.28-1.524-1.899-.108-.116-.578-.611-.537-.611.005 0 .017.006.036.02.158.042.336.07.512.07.337 0 .668-.104.839-.42.026-.077.059-.108.097-.108.137 0 .344.399.563.399a.92.92 0 0 0 .514.155c.29 0 .578-.131.777-.355.19-.17.37-.34.56-.51zm-2.712 3.121c.048.05.097.104.145.16l-.088.002-.057-.162zm.86 1.19c.907 1.558 1.65 3.758 1.881 4.803-.49-.4-1.16-.66-1.31-.91-.133-.216-.458-1.988-1.037-3.891l.466-.002zm7.07-.032c1.81 2.36 3.53 5.07 4.066 5.725-1.501-.95-2.982-1.91-4.593-2.691-1.557-.765-2.958-1.857-4.28-3.012l4.807-.022zm-5.9 5.085c.321.19.611.45.961.59-.21.52-.34 1.1-.77 1.51-.08.13-.196.172-.328.172-.228 0-.504-.123-.735-.123-.016 0-.032 0-.048.002.28-.7.7-1.01.92-2.151zm.202-5.06c1.258 1.137 2.544 2.255 4.05 3.069 1.171.66 2.402 1.25 3.532 1.98.54.781 1.181 1.502 1.591 2.362-.41.12-.81.29-1.23.39a2.89 2.89 0 0 1-.703.082c-.66 0-1.325-.197-1.618-.512-.54-.57-1.131-3.001-1.441-3.892-.044-.1-.107-.133-.175-.133-.135 0-.291.132-.369.132-.016 0-.028-.006-.036-.019a.391.391 0 0 0-.387-.376c-.175 0-.339.127-.314.396-.06.63-.18 1.26-.48 1.831-.037.097-.114.134-.215.134-.284 0-.761-.293-1.086-.374.093-.547-.41-2.689-1.809-5.067l.69-.002zM226.094 0c-.315.14-.865.28-1.36.28-.072 0-.142-.004-.211-.01a.804.804 0 0 1-.143.012c-.337 0-.699-.18-1.025-.18a.622.622 0 0 0-.353.098c-.55.8-1.05 1.69-1.11 2.681-.11 1.901-.06 2.562 1.44 4.122.152.344.336.887.533 1.524l-.748-.032c-.636-.671-1.202-1.007-1.697-1.007l-.548-.036c-1.001.189-1.602.283-1.802.283-.142 0-.213.094-.213.283 0 .26.2.389.601.389.688-.11 1.216-.165 1.584-.165.066 0 .128.002.184.006.2 0 .365.082.495.247-.23.285-.744.427-1.543.427-.062 0-.125 0-.19-.002-.907-.024-1.708-.142-2.403-.354-.342 0-.513.2-.513.6.036.366 1.314.555 3.836.566l1.679-.176 1.582-.007c.487 1.693.981 3.626 1.184 4.358.36.34-.45 2.2-.79 2.66-.185.256-.673.268-1.197.268h-.172c-.471 0-.948.01-1.242.193-.28.18-.38.85-.22.94.15-.23.45-.54.66-.57-.2.21.5.11.65.16.405.007.814.041 1.225.041.198 0 .397-.008.596-.03.09-.04.186-.102.229-.102.032 0 .032.038-.029.151.283.074.602.111.913.111.7 0 1.363-.187 1.508-.56.3-.551.58-1.131.78-1.732.256.054.577.234.835.234a.38.38 0 0 0 .206-.054c.28-.19.57-1.08.73-1.67.016-.062.1-.092.183-.092.081 0 .163.028.188.082.3.6.8 2.44 1.28 3.211.363.571 1.241.852 2.175.852a4.48 4.48 0 0 0 1.717-.332c.65-.28 1.13-.22.99-.58-.22-.6-.6-1.17-1-1.68.58.36 1.16.73 1.74 1.09.049.174.17.243.292.243.237 0 .483-.256.24-.513-1.292-1.866-3.017-4.48-4.725-6.72l1.313-.005 2.686.035V5.225c-.012-.577-.324-.866-.937-.866-.6 0-.919.171-.954.513-.248 2.227-.513 3.346-.795 3.358l-2.268.065c-.963-1.177-1.892-2.164-2.705-2.752-.4-.35-.87-.62-1.39-.75-.17-.44-.12-1.031-.22-1.531-.1-.99-.7-2.632-1.751-3.262zM245.7.394c.704 0 1.585.361 2.011.788.373.373.422.867.436 1.326h-4.872c.014-.459.062-.953.435-1.326.427-.427 1.287-.788 1.99-.788zm0-.394c-.834 0-1.733.386-2.26.912-.54.54-.6 1.251-.6 1.783v.207h5.721v-.207c0-.532-.04-1.243-.58-1.783C247.454.386 246.535 0 245.7 0zm-4.72 5.814q-.066 0-.128.02-.243.078-.214.236.024.133.217.133.035 0 .075-.005.265-.028.465-.214-.224-.17-.415-.17zm.124-.145q.515 0 1.59.615.54.28 1.183.28.31 0 .645-.066.843-.171 1.771-.3.315-.044.611-.044.575 0 1.074.166.757.25 1.257.32.5.072 1.585.13-.7.07-1.37.07-.672 0-1.586-.15-.457-.074-.88-.074t-.812.075q-.779.15-1.771.278-.248.032-.488.032-.719 0-1.362-.289-.624-.426-1.296-.426-.297 0-.603.084-.271-.015-.243-.3.157-.386.671-.4h.024zm.381-1.456q-.309 0-.576.943-.224-.833-.577-.833-.053 0-.108.019-.429.27.285 1.042-.571.329-.571.828 0 .5.843.557.26-.068.508-.068.583 0 1.098.375.441.322 1.4.322.638 0 1.506-.143 1.067-.3 2.073-.3.382 0 .755.043.933.108 1.589.108.298 0 .54-.022 1.213-.029 1.213-.229-.328-.3-.928-.4-1.271-.014-2.32-.443-.526-.214-1.288-.214t-1.762.214q-.645.163-1.2.163-.762 0-1.356-.305-.615-.372-1.3-.614.571-.443.535-.736-.035-.293-.35-.307h-.009zm3.815 4.495v4.797h.802V8.708zm-4.32 7.708q-.066 0-.128.02-.243.079-.214.236.024.133.217.133.035 0 .075-.005.265-.028.465-.214-.224-.17-.415-.17zm.124-.144q.515 0 1.59.614.54.28 1.183.28.31 0 .645-.066.843-.171 1.771-.3.315-.043.611-.043.575 0 1.074.165.757.25 1.257.321.5.071 1.585.129-.7.071-1.37.071-.672 0-1.586-.15-.457-.075-.88-.075t-.812.075q-.779.15-1.771.279-.248.032-.488.032-.719 0-1.362-.29-.624-.425-1.296-.425-.297 0-.603.083-.271-.015-.243-.3.157-.386.671-.4h.024zm.381-1.457q-.309 0-.576.943-.224-.833-.577-.833-.053 0-.108.019-.429.271.285 1.042-.571.329-.571.829 0 .5.843.557.26-.069.508-.069.583 0 1.098.376.441.321 1.4.321.638 0 1.506-.143 1.067-.3 2.073-.3.382 0 .755.043.933.108 1.589.108.298 0 .54-.022 1.213-.029 1.213-.229-.328-.3-.928-.4-1.271-.014-2.32-.442-.526-.215-1.288-.215t-1.762.215q-.645.162-1.2.162-.762 0-1.356-.305-.615-.371-1.3-.614.571-.443.535-.736-.035-.293-.35-.307h-.009z"/></svg>