<svg xmlns="http://www.w3.org/2000/svg" width="135.808" height="18"><path d="M9.124 2.933v1.823q.402-.6 2.414-.6h1.488V2.933zM9.1 2.25q.82.152 2.437.152h1.997v2.285h-1.997q-1.055 0-1.51.22-.464.22-.904.63L9.1 15.75h-.88V2.25zm12.108 2.4q-.678.055-.714.696.036.696.714.75.678-.054.733-.75-.074-.641-.733-.696zm.018-1.814q1.228.018 1.869.779.64.76.696 1.73-.019 1.026-.724 1.814t-1.84.806q-1.081 0-1.85-.733-.77-.732-.752-1.886 0-.99.696-1.75t1.905-.76zm0-.586q-1.52 0-2.363.943-.842.944-.842 2.171 0 1.358.883 2.232l-3.869 7.476.714.367 3.786-7.348q.605.368 1.325.442h-.055v7.217h.806V8.533h-.041q.77-.075 1.346-.446l3.787 7.352.715-.367-3.894-7.523.02-.024q.833-1.007.833-2.161-.018-1.117-.843-2.107-.824-.989-2.308-1.007zm12.103.683v1.823q-.402-.6-2.415-.6h-1.488V2.933zm.023-.683q-.82.152-2.438.152h-1.996v2.285h1.996q1.056 0 1.511.22.464.22.904.63l.023 10.213h.88V2.25zm7.973 4.652h5.011q1.6 0 1.343 1.43-.064.533-.768 1.216l-7.4-1.941q.766-.705 1.814-.705zm-4.214-.247q.041 0 .096.034.235.15.554.608.32.459.982.65 8.52 2.22 9.006 2.22h.016q.508-.458.72-.458.055 0 .09.03.17.15-.117.523-.288.373.138 1.184-.018.22-.17.22-.025 0-.053-.007-.203-.043-.608-.81-.342-.342-4.373-1.365-4.03-1.024-4.863-1.13-.408-.07-.688-.07-.32 0-.474.09-.288.171-.63.203l-.035.002q-.289 0-.007-.514.299-.544.288-1.034-.008-.376.128-.376zm2.02 2.359h.017l7.358 1.835q-.399.857-1.394.857-.07 0-.141-.004-1.502-.273-2.396-.273-.224 0-.41.017-.337.03-.85.03-.9 0-2.338-.094-.725-.192-.49-1.29.23-1.078.645-1.078zm-2.145-3.295q-.659 0-.686.81-.032.971-.383 1.643-.352.672-.032 1.098.16.107.367.107.208 0 .464-.107.872-.303 1.39-.303.065 0 .125.005-.47.746-.47 2.047.15.875 1.088.939.853.137 1.675.137.453 0 .895-.041.32-.03.708-.03 1.13 0 2.844.254.063.003.124.003 1.233 0 1.944-1.22l.3.086q.596 1.003 1.172 1.045.832-.213.341-1.173 0-.576.171-.832.341-.64.128-.927-.109-.147-.361-.147-.243 0-.62.136-.235.064-.576.341.576-.917.661-1.514.064-1.621-1.92-1.77h-5.694q-.853.02-1.77 1.066-.619-.384-1.6-1.621-.155-.032-.285-.032zm18.639-2.786v4.845h-3.25V2.933zm-3.918-.683v6.196h4.601V2.25zm2.301 10.629c.805 0 1.813.414 2.301.902.427.426.483.992.498 1.518h-5.576c.016-.526.072-1.092.499-1.518.487-.488 1.472-.902 2.278-.902zm0-.451c-.956 0-1.984.441-2.587 1.044-.618.618-.688 1.432-.688 2.04v.238h6.55v-.237c0-.61-.047-1.423-.665-2.04-.603-.604-1.655-1.045-2.61-1.045zm6.655-9.656q.696 0 .696.917 0 .806-.696 1.596-.695-.79-.695-1.596 0-.917.695-.917zm0 3.525q.49 0 .49 1.059 0 .6-.49 1.107-.49-.506-.49-1.107 0-1.06.49-1.06zm0 3.193q.49 0 .49 1.06 0 .6-.49 1.106-.49-.506-.49-1.107 0-1.059.49-1.059zm0-7.24q-1.264 0-1.264 1.439-.016.9.418 1.414.435.514.388.688-.554.648-.554 1.565 0 .759.649 1.628-.649.648-.649 1.565 0 .759.649 1.613.079.205-.443.964t-1.075 2.624h.696q.347-1.233.616-1.763.269-.53.57-.861.315.332.576.861.261.53.609 1.763h.711q-.522-1.865-1.067-2.624-.545-.759-.45-.964.632-.854.632-1.613 0-.917-.6-1.565.6-.87.6-1.628 0-.917-.538-1.565-.047-.174.38-.688.427-.513.427-1.414 0-1.439-1.28-1.439zm6.519 0q-.18 0-.197.158l.175-.038q.109 0 .06.114-.126.12-.038.355-.16.345-.616.345l-.055-.001q.022.256-.11.387-.457.261-.457.48.36.169.12.414-.24.245-.24.333.158.049.218.169.273.665.55.943l-.021.224q.267 0 .294-.284-.501-.61-.485-1.303.022-.693.878-1.363.245-.137.245-.53 0-.403-.321-.403zm3.272 0q-.322 0-.322.404 0 .392.234.529.868.67.89 1.363.016.692-.497 1.303.038.284.295.284l-.017-.224q.273-.278.551-.943.065-.12.213-.17 0-.087-.235-.332-.234-.245.12-.414 0-.219-.452-.48-.131-.131-.12-.387h-.055q-.446 0-.605-.344.082-.235-.038-.355-.05-.114.06-.114l.174.038q-.016-.158-.196-.158zm-1.639 2.988q.64 0 1.284.491.502.426.06.976h-2.694q-.441-.55.071-.976.638-.49 1.279-.49zm-1.928 1.653q-.758.883-.758 1.347.06.267.235.267.229 0 .294-.207 0-.687.295-1.15l-.066-.257zm3.861 0l-.065.256q.294.464.294 1.15.06.208.295.208.169 0 .234-.267 0-.464-.758-1.347zm-2.388.098q.354 0 .354.376v2.841q-1.112 0-1.26-.714-.147-.714-.016-2.503zm1.821 0q.147 1.789-.005 2.503-.153.714-1.266.714v-2.84q0-.377.355-.377zm-1.445-3.038v.197q0 .136-.11.136-.168 0-.403-.196h-.12l.377.709-.12.038q-.197-.256-.393-.53-.03-.013-.054-.013-.06 0-.071.09l.294.513q-.207.169-.207.294-.327 0-.49.257-.475.332-.475.736 0 .305.196.698-.136.758-.136 1.909 0 .758.261 1.216.268.458 1.527.458 1.26 0 1.522-.458.267-.458.267-1.216.01-1.151-.125-1.898.196-.404.196-.71 0-.403-.48-.735-.17-.257-.485-.257 0-.125-.224-.294l.295-.513q0-.09-.057-.09-.022 0-.053.014-.196.273-.392.529l-.12-.038.365-.71h-.109q-.245.197-.42.197-.092 0-.092-.136V3.95zm-2.155 4.81h-.02q-.639 1.13-.639 1.778 0 .649.224 1.042.229.392.621.474-.529-.709-.529-1.134 0-.42.098-.687.088.747.393 1.052-.136-.6-.125-1.265.005-.67.223-.998.01-.262-.246-.262zm4.473 0q-.256 0-.246.262.207.327.218.998.011.665-.12 1.265.306-.305.393-1.052.098.267.098.687 0 .425-.529 1.134.393-.082.611-.474.224-.393.224-1.042t-.628-1.778h-.02zm-2.242 4.889q1.674 0 3.55.808-1.876.786-3.55.786-1.662 0-3.55-.786 1.888-.809 3.55-.809zm0-.518q-2.067 0-4.752 1.315 2.685 1.303 4.752 1.303 2.067 0 4.752-1.303-2.673-1.315-4.752-1.315zm11.694-9.01q-.094 0-.18.039-.062.078 0 .125.073-.041.166-.041.226 0 .57.245h.173v-.094h-.172q-.308-.274-.557-.274zm-.015.217q-.091 0-.117.033-.032.04-.032.118 0 .125.165.125.164 0 .446-.094-.298-.172-.423-.18l-.039-.002zm.995.495q-.063 0-.063.063 0 .047.047.047.063 0 .078-.047-.015-.063-.062-.063zm.266-.767q.25 0 .25.172 0 .157-.062.282-.063.125-.22.297-.187.157-.242.165l-.022.001q-.04 0-.072-.025-.04-.03.023-.125l.157-.172.188-.141q.031-.031-.047-.11-.079-.078-.016-.156.035-.044.075-.044.031 0 .066.028.078.063.031.172-.047.11-.25.345l.031.015q.22-.234.259-.313.039-.078.039-.203 0-.126-.188-.126-.094 0-.133.055-.04.055-.04.149 0 .063.094.172l-.11.079q-.077-.188-.038-.353.039-.164.227-.164zm.14-1.347q.83 0 1.379.164.548.165.548.885t-.485 1.057q-.486.337-.737.54-.422-.281-.579-.751.11-.157.11-.345 0-.313-.376-.329-.266 0-.345.298h-.047q-.031-.298-.282-.376-.25-.078-.516-.14.516-1.003 1.33-1.003zm-1.957 2.6l.313.062h-.203q-.126 0-.11-.062zm.376.14q0 .032-.313.11-.01.005-.018.005-.014 0-.014-.02 0-.063.063-.063h.11l.172-.031zm0-1.44q.204 0 .532.078.455.094.47.376.157 0 .157.11-.235.172-.235.36 0 .172.204.172.14 0 .36-.22.156.47.564.8.062.438.219.783-.313.407-.642.407h-.051q-.335 0-.474-.196-.149-.211-.227-.65-.014-.111-.114-.111l-.027.001q-.22 0-.799.063-.125-.047-.14-.117-.016-.07-.048-.18.298-.11.408-.251-.235-.172-.376-.22v-.093q.235-.047.235-.126-.047-.125-.126-.125-.094.016-.062.063.062.062-.102.07l-.06.002q-.105 0-.105-.025 0-.047.032-.094.344-.501.407-.877zm2.6 2.553l.078 1.096q-.524.31-1.015.31-.479 0-.927-.295l.298-.548q.333.12.606.12.65 0 .96-.683zm-6.07 2.673q.335 0 .62.318-.564.015-.752.344-.172-.376-.423-.391-.25-.016.258-.212.154-.059.298-.059zm6.085-1.107q-.015 1.581-.18 3.508-.164 1.926-.524 3.414l.47.25h-5.184l1.065-.438q-.47-2.302-1.175-3.375-.705-1.073-.235-1.386.15-.1.297-.1.317 0 .627.46l2.114 3.007h.533q-.204-3.978.172-5.293.495.255.98.255.526 0 1.04-.302zM76.818 2.25q-.25.61-.61.963t-.517.736q-.157.384-.627 1.418.082.033.156.033.34 0 .534-.707.234-.36.368-.407.008-.003.017-.003.12 0 .178.614v4.087q-.908.627-.516.729.363.094.605.479.11.78.64 1.674.556.94 1.01 2.756l-1.206.517.094.611h6.687l-.799-.971q.47-3.477.47-5.23.079-1.755-.062-3.305l-.11-.016q.14-.313.298-.313.172 0 .172.125l-.079 2.85h.69l-.141-2.88q-.063-.282-.267-.439-.097-.074-.217-.074-.132 0-.292.09-.305.172-.477.564l-.141-.423q.172-.125.454-.345 1.034-.485 1.026-1.644-.008-1.16-1.488-1.284-.292-.025-.543-.025-1.02 0-1.36.408-.423.51-.626 1.026-.032.235-.07.376-.04.14-.228.415-.188.274-.157.352.016.11.204.11 0 .11-.125.141 0 .14.062.188-.078.22.063.266l.063.298q-.032.297-.36 1.206-.423 0-.423.235 0 .234.25.234.029.003.056.003.413 0 .633-.66l.298-.846q.376-.031.532-.078.079.376.204.626-.376.486-.58 1.057-.203.572-.29 1.3-.085.728-.07 3.594l-2.114-2.99q-.188-.267-.454-.424-.297-.37-.691-.37-.105 0-.217.026l-.016-.032V4.865q-.031-1.018-.266-1.221.172-.36.43-.752.259-.391-.055-.642zm8.938 4.793V8.36h2.906V7.043h-.57c-.165.293-.355.483-.569.57a.818.818 0 0 1-.635 0c-.209-.087-.397-.277-.563-.57zm1.763-4.793v2.183h-.66v2.67h.712V5.43h.826V3.14h1.02c.182 1.424.676 2.481 1.483 3.174.807.692 1.803 1.093 2.99 1.204 1.186.11 1.965.267 2.337.468.372.202.558.406.558.611h1.447c-.221-.53-.518-.933-.89-1.21-.371-.277-1.062-.45-2.07-.522-1.008-.071-1.815-.203-2.42-.397a3.858 3.858 0 0 1-1.62-1.032c-.474-.495-.838-1.557-1.091-3.186zm-.267 11.678l-1.541 1.822h.751l.79-.942.797.942.775-.942.797.942.79-.942.797.942.79-.942.797.942.774-.942.798.942.797-.942.775.942.797-.942.79.942h.751l-1.541-1.822-.797.88-.775-.88-.797.88-.798-.88-.774.88-.797-.88-.79.88-.797-.88-.79.88-.797-.88-.775.88-.797-.88zm15.05-11.234c-.69 0-1.246.553-1.25 1.244v.007c0 .693.557 1.251 1.25 1.251.694 0 1.251-.558 1.251-1.251 0-.693-.557-1.251-1.25-1.251zm1.612 3.591c-.047.077-.114.144-.05.144a.306.306 0 0 0 .071-.012.289.289 0 0 0 .085.025c.053 0-.068-.102-.106-.157zm-1.103-.27c.288 0 .406.414.19.59a.258.258 0 0 1-.185.075c-.145 0-.292-.11-.31-.265-.041-.187.097-.4.297-.4a.283.283 0 0 1 .008 0zm-.085-.247c-.033 0-.066 0-.098.002-.243.02-.51.125-.64.342-.053.291-.042.634.187.855.156.193.458.25.518.516.023.129-.053.337.089.337.018 0 .04-.003.066-.01.2-.295.38-.609.63-.866-.125-.132-.263-.339-.107-.502.105-.144.356-.38.032-.397-.14-.232-.424-.277-.677-.277zm-1.353.348c-.436.388-.583.986-.685 1.538-.042.247-.065.498-.09.747.223-.237.528-.463.862-.463a.725.725 0 0 1 .175.021c.203 0 .31.369.339.384l.111-.666c-.43-.149-.625-.611-.687-1.029a2.388 2.388 0 0 1-.025-.532zm.046 2.49a.724.724 0 0 0-.414.237c-.181.733-.117 1.494-.104 2.24-.011.27.03.55.016.826-.004 1.045-.216 2.078-.185 3.124 1.666.003 3.33.009 4.995.012l-.643-1.316c.313-.742.703-1.452 1-2.202.127-.344.287-.696.286-1.07-.015-.115-.067-.157-.134-.157-.12 0-.288.136-.368.222-.625.602-1.132 1.314-1.632 2.02-.465.676-.91 1.367-1.286 2.096.026-1.617.107-3.24-.097-4.85-.03-.352-.18-.678-.342-.987l-.019 2.25h-1.029c.009-.815.03-1.632-.044-2.444zm.883-6.356c.934 0 1.695.761 1.695 1.695a1.7 1.7 0 0 1-.751 1.406c.083.026.166.055.245.09.123.057.245.122.303.25.063.101.118.206.243.24.344.252.466.734.379 1.138a.066.066 0 0 1-.036.01c-.103 0-.278-.177-.352-.177a.033.033 0 0 0-.014.003c-.051.233-.218.408-.31.622a3.747 3.747 0 0 1-.627.832c.236.423.433.877.474 1.365.115.845.134 1.7.134 2.553.644-.882 1.305-1.764 2.107-2.51a.886.886 0 0 1 .572-.223.6.6 0 0 1 .404.145c.289.287.246.73.17 1.094-.214.926-.62 1.792-.982 2.666-.05.192-.262.402-.092.585.208.336.503.616.693.962.102.238.088.504.056.754l-6.489-.016c-.084-.846-.084-1.7.005-2.546.041-.746.056-1.492.088-2.239-.147-.012-.293-.026-.44-.039.094-1.1.127-2.208.33-3.295.128-.606.278-1.234.653-1.74.18-.215.412-.375.666-.487a1.693 1.693 0 0 1-.819-1.443v-.012a1.697 1.697 0 0 1 1.695-1.683zm11.313.298c.025 0 .051.003.079.01.143.04.184.16.123.359l-1.04 2.694h-.509l1.107-2.863c.056-.134.136-.2.24-.2zm.86.217a.35.35 0 0 1 .097.015c.165.048.195.171.091.371l-.95 2.46h-.507l1.002-2.63c.062-.144.15-.216.267-.216zm-2.567 3.975c-.08 0-.173.014-.277.042V6.9a.9.9 0 0 1 .27-.047.5.5 0 0 1 .205.041 1.4 1.4 0 0 0 .5.098l-.064-.066a8.543 8.543 0 0 1-.456-.156.494.494 0 0 0-.178-.03zm.1.277l.234.09a1.845 1.845 0 0 1-.234.079c.052-.052.052-.109 0-.17zm-.195 0c-.026.06-.017.121.026.182a1.597 1.597 0 0 0-.156-.052c.008-.052.052-.096.13-.13zm.065-.085c-.113 0-.19.046-.234.137l-.117.065-.013.065.117.013a.43.43 0 0 0 .244.067c.127 0 .28-.04.459-.12h.286v-.09h-.3c-.182-.091-.33-.137-.442-.137zm2.356-1.1l-.885 1.64c-.06.089-.115.133-.166.133a.104.104 0 0 1-.069-.029l-.286-.182c.017-.07.087-.163.208-.28.122-.117.148-.26.078-.43-.04-.098-.119-.147-.235-.147a.85.85 0 0 0-.311.076c-.281-.16-.522-.239-.723-.239a.703.703 0 0 0-.084.005 2.4 2.4 0 0 0-.091-.547zm-2.497.768c.222 0 .512.095.87.286.078-.095.156-.143.234-.143.078 0 .12.04.124.117.004.079-.065.18-.208.306-.144.126-.21.232-.202.32l.039.025a.64.64 0 0 1-.26.45c-.148.108-.348.166-.6.175a.936.936 0 0 1-.048.001c-.13 0-.188-.033-.172-.099a.238.238 0 0 0-.04-.201c.047.002.089.004.125.004.202 0 .249-.04.142-.122-.081-.061-.147-.092-.198-.092a.093.093 0 0 0-.068.027c.034-.13-.035-.2-.209-.208a7.42 7.42 0 0 0 .443-.846h.028zm.935.963l.377.235c.026.399.105.672.235.82a1.704 1.704 0 0 0-.365.013.711.711 0 0 0-.312.117 1.888 1.888 0 0 0-.286-.638c.225-.174.342-.356.351-.547zm.508 1.354c.338 0 .55.186.637.56.122.529.14 1.357.052 2.485-.104 1.285-.225 2.343-.364 3.176l.17.248h-4.335l.898-.365c-.26-1.275-.586-2.21-.976-2.805-.39-.594-.456-.978-.195-1.152a.444.444 0 0 1 .248-.082c.177 0 .355.127.533.382l1.744 2.499.312-.026c.19-1.944.395-3.393.612-4.347.104-.382.325-.573.664-.573zm.385-6.667c-.255 0-.427.148-.516.445l-1.106 2.916h-.573c.105.347.157.655.157.924a2.334 2.334 0 0 1-.345.722c-.164.24-.13.359.098.359h.025c-.06.086-.052.134.026.142-.07.044-.076.083-.02.118.057.034.077.117.06.247-.027.39-.129.705-.306.944-.146.195-.28.293-.4.293a.216.216 0 0 1-.076-.014.458.458 0 0 0-.154-.034c-.051 0-.087.018-.106.054-.035.065.011.132.137.202a.324.324 0 0 0 .159.037c.11 0 .249-.04.414-.122.255-.126.488-.514.696-1.165h.364c.113.104.2.256.26.456-.312.998-.568 2.473-.767 4.425l-1.653-2.343a.83.83 0 0 0-.533-.214.851.851 0 0 0-.424.123c-.334.191-.497.401-.488.631.009.23.167.606.475 1.126.308.52.588 1.284.84 2.29l-.99.43.065.508h5.558l-.573-.677c.278-2.698.376-4.423.293-5.173-.082-.751-.27-1.165-.566-1.243-.208-.209-.29-.434-.247-.677l.338-.599c.503.382.755.885.755 1.51v6.859h.3V8.89c-.01-.754-.322-1.344-.938-1.77l.846-1.51h-.598l.924-2.407c.13-.33.071-.542-.176-.638a.89.89 0 0 0-.32-.065.605.605 0 0 0-.324.091c-.061-.2-.237-.312-.527-.338a.715.715 0 0 0-.064-.003zm6.231.883l-.13.24-.123.717q0 .376.123.703.13.282.326.507-1.312-.24-2.362-.355.659-.392 1.036-.87.384-.478 1.13-.942zm3.095-.058q.398.029 1.34.602.943.565 1.943.934-.732.044-1.595.312-.87.26-1.826.391.152-.18.305-.514.144-.334.144-.71 0-.384-.137-.718-.073-.16-.174-.297zm-1.525-.334q.25 0 .481.102.247.102.435.276.189.166.304.405.095.24.11.515.014.275-.088.514-.108.24-.275.428-.174.196-.413.304-.24.102-.515.11h-.035q-.25 0-.48-.095-.246-.102-.434-.268-.181-.167-.29-.406-.101-.24-.116-.522 0-.268.102-.507.094-.24.26-.428.174-.195.413-.29.24-.13.508-.137h.033zm-.04-.491q-.474 0-.935.1-1 .218-2.03 1.298-1.029 1.072-1.804 1.145l-.014.507q1.76.152 3.456.464.634.116 1.334.116 1.172 0 2.529-.326 2.16-.522 2.74-.631h.956V4.3h-.986q-.703-.24-1.884-.95-1.174-.71-2.24-.963-.569-.137-1.122-.137zm-4.783 6.71h11.015V6.97h-8.262l-2.753 1.99m10.403-1.378v.766l-8.502.038.852-.804h7.65zm-8.023 6.081c.586 0 1.319.3 1.674.655.31.31.35.722.362 1.104h-4.054c.011-.382.052-.794.362-1.104.355-.355 1.07-.655 1.656-.655zm0-.328c-.695 0-1.442.32-1.88.759-.45.45-.5 1.04-.5 1.483v.173h4.761v-.173c0-.442-.034-1.034-.483-1.483-.438-.438-1.203-.76-1.898-.76zm4.796-2.606q.292 0 .771.16.82.273 1.7 1.143t.704 1.612q-.176.743-.684 1.114-.42.307-1.013.307-.125 0-.257-.014-.763-.078-1.31-1.202-.547-1.123-.508-2.003.039-.88.274-1.036.114-.081.323-.081zm-.08-.679q-.403 0-.654.174-.528.371-.586 1.524-.059 1.154.664 2.502.723 1.349 1.76 1.476.197.024.385.024.792 0 1.393-.435.743-.537.928-1.524.186-.987-.791-2.091-.978-1.105-2.111-1.466-.575-.184-.989-.184z"/><path d="M8.22.375c-9.625 0-9.625 17.25 0 17.25m0-17.25h119.338M8.22 17.625h119.338m7.687-17.25v17.25M127.558.375c9.625 0 9.625 17.25 0 17.25" fill="none" stroke="#000"/></svg>