<svg xmlns="http://www.w3.org/2000/svg" width="77.631" height="18"><path d="M16.603 2.933v4.845h-3.25V2.933zm-3.918-.683v6.196h4.601V2.25zm2.142 9.379q.82 0 1.495.408 1.374.797 2.604.797 1.238 0 2.27-.106v2.126q-1.283-.228-1.852-.228h-.015q-.463 0-1.291.107-3.364.463-4.191.463-1.375 0-2.59-.046-2.08-.121-2.285-.22-.198-.091-.198-.524 0-.425.114-.744t.38-.456q6.5-.288 7.008-.334-.453-.653-1.403-.653-.309 0-.67.069-1.21.238-1.866.238-.139 0-.252-.01-.646-.061-.6-.616.363.05.749.05.81 0 1.726-.217.452-.104.867-.104zm.193-.617q-.329 0-.65.083-1.298.342-2.285.357-.243 0-.873-.121-.296.273-.296.645t.235.63q-2.483.092-2.483.297-.448.57-.448 1.366 0 .79.418 1.079 1.26.402 5.064.402.608 0 1.238-.06 3.523-.525 4.199-.54h.066q.695 0 2.546.289v-3.356l-.015.015q-1.587.182-2.59.205l-.102.001q-.954 0-1.963-.533-1.067-.759-2.06-.759zm12.95-2.493c1.019 1.145 1.863 2.453 2.616 3.781.158.195-.02.374-.15.559-.496-1.575-1.637-2.79-2.467-4.34zm-.988-5.783c.085.396-.071.854-.372.989l.096.205c.376-.178.737-.713.79-1.193.514.03.654.417.734.865.097.307 0 1.05.387 1.179 1.147.444 2.024.957 2.81 1.734 1.359 1.698 2.778 3.342 4.136 5.042a69.07 69.07 0 0 0 1.401 1.725c-2.062-1.542-4.366-2.72-6.626-3.946-1.202-.652-2.348-1.186-2.348-2.623 0-.773 1.424-1.42 1.366-1.521-.005-.01-.022-.013-.048-.013-.292 0-1.789.555-1.789 1.725 0 .324.087.625.238.905h-.007c-1.641-.87-1.38-2.63-1.317-4.18-.682-.038-1.244-.41-1.892-.565.503-.065 1.003-.15 1.507-.201a.4.4 0 0 0-.238.15c-.009.166.178.239.36.239.179 0 .352-.07.335-.19a.457.457 0 0 0-.39-.206c.25-.036.584-.09.867-.12zm2.867 9.977c.147.357.224.736.307 1.11.239-.193.47-.392.667-.628-.128.694-.366 1.395-.945 1.395-.35 0-.512-.237-.288-.954.106-.338.19-.66.26-.923zm-.628-3.438c2.34 1.247 4.658 2.506 6.871 3.969.522.422.986.893 1.301 1.334-.209.324-.606.435-.973.46-1.874-.066-2.607-1.872-3.597-3.162l-.538-.654.093.838c.006.15.16.864-.07.864a.17.17 0 0 1-.067-.016l-.947-1.134c-.101.067-.197.143-.301.205-.47-.95-1.157-1.836-1.772-2.704zM27.2 2.25c-.492 0-.996.088-1.474.133-.57.278-1.147.066-1.745.283-.431.194-.552.587-.731.98.254-.085.486-.12.704-.12.696 0 1.257.351 1.993.538-.001.37-.06.788-.087 1.21-.114 1.145.49 2.15 1.361 2.865.625 1.39 1.489 2.457 2.12 3.542-.076.488-.53 2.327-.753 2.988a8.341 8.341 0 0 1-1.365.115 7.003 7.003 0 0 1-.593-.024c-.355 0-.744.606-1.127.93l7.772.06c-.198-.7-1.58-1.072-2.07-1.072a.685.685 0 0 0-.075.003c.173-.495.389-.96.45-1.653.217.195.46.404.764.426.371-.028.522-.281.569-.612.84 1.39 1.781 2.526 3.506 2.693.596-.029 1.339-.29 1.5-.923.79-.044.21-.815-.083-1.116-2.151-2.33-3.927-4.988-6.053-7.334-.819-.808-1.743-1.354-2.888-1.807-.085-.21-.113-.507-.169-.835-.06-.357-.251-.942-.6-1.124a2.667 2.667 0 0 0-.926-.146zm17.46.325q.215 0 .298.215-.106-.042-.181-.042-.161 0-.184.191-.032.34-.183.34h-.007q-.158-.008-.224-.14 0-.1.249-.332.116-.232.232-.232zm.237.296q.061 0 .061.085-.03.334-.256.334l-.042-.002v-.033l.066-.15q.016-.233.133-.233l.016.001.022-.002zm-1.477.188q-.15 0-.278.088-.157.108-.09.373h.066q.016-.166.1-.274.082-.108.273-.108.19 0 .19-.05l-.19-.024q-.036-.005-.07-.005zm-.004.146q-.199 0-.199.282v.1l.03.002q.056 0 .07-.053.282-.066.414-.232-.116-.1-.315-.1zm-.298.43q-.083.117-.017.291t.83.24l.115-.05q-.962-.066-.862-.447l-.066-.033zm1.077-.795q-.215.15-.165.381.033.1.199.166.149.066.116.348.033.614-.514.946-.083-.2-.324-.216l-.044-.002q-.206 0-.296.143-.07.11-.164.11-.04 0-.084-.019-.027.007-.051.007-.15 0-.165-.272.166-.017.232-.066.067-.05.249-.117-.08-.092-.166-.092-.037 0-.074.018-.125.058-.258.091-.281-.05-.215-.282-.166-.182-.116-.315.365-.232.605-.44.24-.207.539-.248.298-.042.696-.141zm.979-.15q.43.034.912.49.48.456.564.937-.896 1.31-2.537 2.09-.067-.697.232-1.394.547-.497.48-.837-.066-.34.216-.456.63-.116.133-.83zm6.084 2.801l.051.002q.746.133 1.36.672.613.539.879 1.335.05.082-.365.082-1.741-.73-2.205-1.475-.206-.616.28-.616zm-4.426-.827q1.033.99 2.635.99.274 0 .565-.028.03-.01.057-.01.242 0 .242.806-1.642.73-2.587.796-.28.02-.568.02-.684 0-1.414-.112-.157-.024-.292-.024-.751 0-.794.746-.696-.83-.497-1.128 1.641-.73 2.653-2.056zm-2.02-2.414l-.078.001q-.754.025-.804.307-.298.116-.555.19-.257.075-.481.274-.224.2-.498.357-.273.157-.323.273-.083.183.15.398 0 .183.165.299.033 0 .075.282.041.282.306.414.332-.05.432-.19.084-.12.217-.12.023 0 .048.004.166.024.249.273-.067.249-.191.88-.124.63 0 .928.124.298-.44.671-.43.285-1.178.285-.233 0-.496-.028-.576-.16-.926-.16-.376 0-.492.185-.224.357.041.622h.647q1.488.053 2.521.053 2.488 0 2.33-.31-.18-.353.292-.353.116 0 .271.021.244.034.535.034.65 0 1.538-.166 1.285-.24 1.675-.448.25-.133.54-.133.163 0 .338.042.49.116.59.414-.217.399-.753.399-.246 0-.558-.084-.522-.139-.857-.139-.303 0-.453.114-.315.24-.033.573h5.39q.546-.498.231-1.153-.315-.655-1.06-1.244-.747-.588-1.643-1.07.234-.204.452-.204.277 0 .527.33.263.345.445.345.129 0 .218-.172-.59-1.057-1.233-1.057-.042 0-.085.004-.688.075-1.252.771-.683.172-1.272.172-1.286 0-2.127-.818-.465-1.178-1.111-1.634-.614-.432-1.324-.432zm-1.416 9.855q-1.461.034-2.419 1.058-1.058 1.16-1.159 2.318 0 .269.303.269h14.041q.302 0 .302-.32 0-.318-.302-.318H40.574q.84-2.15 2.52-2.385h11.068q.302 0 .302-.32 0-.302-.302-.302zM57.52 3.093q1.512.22 1.58 1.382v8.382q-.706-.843-2.536-1.184l.957-8.58zm-.424-.843l-1.132 10.022q2.521.289 3.136 1.8v1.678h.752V4.475q0-1.883-2.756-2.225zm5.812.843q1.511.22 1.58 1.382v8.382q-.706-.843-2.536-1.184l.956-8.58zm-.425-.843l-1.131 10.022q2.52.289 3.136 1.8v1.678h.751V4.475q0-1.883-2.756-2.225zm5.565 0c-.697 0-1.309.513-1.309 1.171V15.75h.852V3.421c0-.322.284-.427.463-.427.187 0 .475.131.475.527v8.103h.852V3.521c0-.66-.653-1.271-1.333-1.271z"/><path d="M8.22.375c-9.625 0-9.625 17.25 0 17.25m0-17.25h61.161M8.22 17.625h61.161M77.069.375v17.25M69.381.375c9.625 0 9.625 17.25 0 17.25" fill="none" stroke="#000"/></svg>