<svg xmlns="http://www.w3.org/2000/svg" width="131.664" height="18"><path d="M18.058.568q-.111.037-.111.128t.07.146q.027.022.054.022.04 0 .077-.05.063-.081.021-.163-.041-.083-.11-.083zM2.67.47q-.153 0-.296.282.084.183.264.237.028.01.054.01.131 0 .224-.229 0-.255-.194-.292Q2.695.47 2.669.47zM1.665.787q-.042.128.027.238l-.583.073q-.014-.164.556-.31zm.568.436zm.105-.003q.12 0 .195.033.027.012 0 .012-.052 0-.288-.04.05-.005.093-.005zm2.564 1.252q.035 0 .097.068 1.125 1.223 2.792 2.865Q9.46 7.048 9.667 7.724 8.305 7.468 7.34 6.318q-.966-1.15-1.681-2.236-.716-1.086-.799-1.414-.017-.196.042-.196zm.046-.868q.202 0 .384.096 4.321 4.308 4.946 5.604.584 1.405.764 2.154-.076.11-.182.11-.087 0-.193-.074l-.57-1.515q-.43-1.296-2.104-2.875-1.674-1.579-2.424-2.5-.441-.542-.676-.542-.164 0-.227.268-.108.455-.38.455-.115 0-.26-.081.126-.858.542-1.022.198-.078.38-.078zm.357 6.43q.666 1.405.541 2.83-.125 0-.236.236-.045-.403-.277-.403-.051 0-.112.02.292-1.405.084-2.683zM2.827.346q.066 0 .116.013.25.063.292.237.029.122.058.122.013 0 .025-.022.042-.073.056-.164.305.53.041 1.57t.848 1.24q1.028 3.104 2.209 4.72 1.18 1.615.986 3.038-.449-.438-.993-.438-.113 0-.23.019.042-1.296-.472-2.556t-.945-1.889q-.43-.63-1.16-1.497-.73-.867-.722-1.789.007-.921.194-1.286.188-.365.181-.584-.003-.091-.027-.091-.035 0-.112.182-.132.31-.73.328l-.07.001q-.568 0-1.235-.274l.82.073q.404.11.601.11.162 0 .183-.074.049-.164-.076-.192-.125-.027-.257-.027t-.201.055l.026.052-.29-.052Q1.762.787 1.887.623q.028-.055.097-.055-.028.183.049.274.028.034.056.034.046 0 .09-.098.07-.155-.125-.228.511-.204.773-.204zm15.412.04q.375 0 .555.365.056.055.695.2v.056l-.695.073q-.597 0-.75-.12-.153-.118-.146-.273.007-.155.188-.155.18 0 .25.082t.035.173q-.035.092-.132.147h.028q.18 0 .187-.22.007-.237-.299-.273-.389 0-.291.374.092.357.854.357l.076-.001q.431-.037.765-.128L19.53.97q1.236 1.004 1.16 2.29-.077 1.288-.966 2.136-.889.85-1.584 1.871-1.083 1.734-1.167 2.72-.083.986.376.986.458 0 1.118-.721.66-.721 1.34-.74 1.82.055 1.612 2.209-.667-.93-1.5-.93-.417 0-1.14.474-1.097.766-1.667.766l-.472-.091q-.861-.84-.583-2.482.416-1.187 1.125-4.235.486-1.734.965-2.628.48-.895 1.022-.913.291 0 .944.365.027.01.047.01.094 0 .037-.21-.526-.429-1.226-.429-.225 0-.47.045-.208 0-.506-.146-.3-.146-.3-.694.251-.237.543-.237zM4.666 3.05q1.083 1.825 1.986 3.002.903 1.178 1.702 1.588.799.411 1.48.43.083.145 1.653 4.617l-.097.055-3.738-3.14q.028-.273-1.104-1.962-1.132-1.687-1.994-4.46l.112-.128zM8.5 10.918l2.07 1.66q.07.256-.5.348-.127.02-.233.02-.37 0-.49-.248-.152-.32-.389-.831-.236-.511-.458-.95zm7.071-.785q0 .767.167 1.332.43 1.004 1.153 1.023h.038q.711 0 1.699-.657.938-.625 1.365-.625.034 0 .066.004.416.055.903.566.486.51.514.894.05.311-.043.311-.06 0-.18-.128-.399-1.05-1.024-1.05h-.01q-.633.01-1.557.648-.923.639-2.153.639t-1.368-1.04q-.14-1.04.43-1.917zM5.277 11.192l.208.547q.195-.255.299-.3l.005-.002q.088 0-.304 1.543l-.583.238q-.153-.146.09-.904.243-.757.285-1.122zm14.763 1.14q.461 0 .727.502-.18.384-.847.603-.514 0-1.042-.566.685-.539 1.162-.539zm-1.607.758q.207.265.448.438h-1.883q.692-.095 1.435-.438zm-7.182 1.15q-1.554 2.935-4.48 3.011-2.913-.076-4.467-3.011zm11.239.018q-1.554 2.935-4.48 3.012-2.913-.077-4.48-3.012zM3.066.008q-.084 0-.179.013-.222 0-1.264.42-.834.255-.903.657l.028.62.417-.2q.68.292 1.139.292.458 0 .347.41-.111.411.028 1.37.139.958 1.097 1.934.959.977 1.188 2.556.23 1.578-.41 3.641l.209-.164q.004-.004.007-.004.046 0-.216.816-.277.867-.757.894-.084.005-.16.005-.348 0-.486-.105-.155-.12-.462-.12l-.045.001q-.34.01-.34.302v.182H1.33Q2.93 17.982 6.777 18q3.849-.018 5.446-4.472l-4.279.037q0-.165-.264-.356-.129-.094-.296-.094-.175 0-.391.103-.13.061-.278.061-.337 0-.771-.317.097-.639.236-1.14.139-.503.528-.594.036-.008.073-.008.362 0 .816.811.264-.675.153-1.825l.139.128q1.042 2.3 1.257 2.701.163.305.634.305.15 0 .331-.031.75-.128.737-.475l.639.42.486-.237-1.07-3.048q.264 0 .487-.292-.264-1.096-.82-2.446-.39-.822-.792-1.278Q8.681 4.603 7.5 3.39T5.763 1.518q-.373-.28-.775-.28-.226 0-.461.088-.653.246-.792 1.214-.042-.037.07-.73.11-.694-.05-1.287-.138-.514-.689-.514zM18.286 0q-.252 0-.478.094-.292.11-.347.42-.111.383.097.757.208.374.653.466-.89 1.058-1.514 3.741-.584 2.556-.973 3.779-1.042 1.113-1.035 2.236.007 1.122.424 1.597.301.343.878.438h-3.434q1.597 4.454 5.446 4.472 3.848-.018 5.445-4.472h-2.674q.153-.11.313-.256.156.245.354.245.083 0 .174-.044.347-.219.139-1.004.194-2.245-.459-2.865-.653-.621-1.473-.621-.75 0-1.625.849-.543.526-.743.526-.124 0-.118-.198.014-.52.611-1.761.403-.876 1.75-2.254 1.348-1.378 1.334-2.775-.014-1.396-.597-2.099-.584-.703-1.292-.794-.111-.2-.292-.328-.18-.128-.48-.146Q18.329 0 18.287 0zm12.416.551q.178 0 .37.081.427.181.427 2.88v2.583h-4.846q1.872-2.568 2.568-3.881Q29.918.9 30.281.676q.2-.125.421-.125zM30.496 0h-.078q-.689.015-1.552 1.684-.864 1.669-3.418 4.977h6.617l-.014-3.715q-.073-2.48-.508-2.72Q31.133 0 30.496 0zm7.46.836v.44h-2.328v-.44zm-1.171.867q1.46 0 2.017.744.558.744.558 1.336-.014.923-.771 1.611-.757.689-1.804.689-1.06 0-1.818-.689-.757-.688-.757-1.597 0-.606.454-1.35.455-.744 2.121-.744zM34.967.381v1.033q-.496.29-.909.937-.413.647-.427 1.432 0 .923.765 1.866.764.943 2.389 1.012 1.611-.069 2.382-1.012.772-.943.772-1.852-.014-.8-.427-1.453-.413-.654-.923-.944V.381zm-7.741 7.846l-1.778 2.102h.867l.91-1.086.92 1.086.893-1.086.92 1.086.91-1.086.92 1.086.91-1.086.92 1.086.892-1.086.92 1.086.919-1.086.893 1.086.92-1.086.91 1.086h.867L38.16 8.227l-.92 1.016-.892-1.016-.92 1.016-.919-1.016-.893 1.016-.92-1.016-.91 1.016-.919-1.016-.91 1.016-.92-1.016-.893 1.016-.92-1.016zm10.72 4.627c.738.032 1.142.048 1.316.048h.08l-.095 3.853a5.654 5.654 0 0 1-1.467-.872l.166-3.029zm-10.751-.96c-.246.048-.57.2-.531.492v2.15a41.092 41.092 0 0 0-1.11-.048c0 .27.222.634.911.634.008.61.12 1.356.23 1.736l.096 1c0 .11.19.142.396.142.246 0 .515-.048.515-.048l-.04-.999c3.918.032 11.386.23 11.76.23.19 0 .316-.206.316-.491l.095-4.306-2.354-.023-.19 3.354c-1.705.007-4.655.285-6.66.285-.635 0-1.182-.024-1.555-.103-.08-.087-.817-1.158-1.284-1.277a2.057 2.057 0 0 0-.278-.031c-.08-.65-.158-1.3-.23-1.943.143-.182.468-.135.555-.38.087-.12.032-.318-.135-.326-.095-.04-.356-.047-.467-.047zM45.993.861v2.282c-1.231-.01-2.272-.17-3.424-.66v-.951c1.152-.49 2.193-.651 3.424-.671zm1.021 0c1.252.01 2.293.15 3.444.62v1.052c-1.151.46-2.192.61-3.434.61l-.01-2.282zM45.983 0l.01.39c-1.211.02-2.282.17-3.424.631v-.89h-.63v3.603h.63v-.74c1.152.45 2.223.61 3.424.62L46.023 18h1.021l-.02-14.386c1.212 0 2.293-.14 3.434-.57v.7h.63V.13h-.63v.841c-1.151-.44-2.222-.57-3.444-.58V0zM58.95.58v.563h-2.972V.58zm-1.495 1.108q1.864 0 2.576.95t.712 1.705q-.018 1.178-.985 2.058-.967.879-2.303.879-1.354 0-2.321-.88-.967-.879-.967-2.04 0-.773.58-1.722.58-.95 2.708-.95zM55.134 0v1.319q-.633.37-1.16 1.196-.528.826-.546 1.828 0 1.178.976 2.383.976 1.204 3.05 1.292 2.058-.088 3.043-1.292.985-1.205.985-2.365-.018-1.02-.546-1.855-.527-.836-1.178-1.205V0zm2.321 14.172c1.074 0 2.418.552 3.069 1.202.569.57.643 1.324.664 2.025h-7.435c.021-.701.095-1.456.664-2.025.651-.65 1.964-1.202 3.038-1.202zm0-.601c-1.274 0-2.645.588-3.449 1.392-.824.824-.917 1.909-.917 2.72V18h8.732v-.316c0-.812-.062-1.897-.886-2.721-.804-.804-2.206-1.392-3.48-1.392zM63.82.22v5.122h.976V.22h-.975m0 6.585v4.878h.975V6.805h-.975m0 6.097v4.878h.975v-4.878h-.975zM72.678.911v2.43q-.536-.8-3.22-.8h-1.984V.911zm.03-.911q-1.093.202-3.25.202h-2.662V3.25h2.663q1.407 0 2.014.293.618.294 1.205.84L72.708 18h1.175V0zm8.144 1.34l-.02 15.402h-3.63V1.34zM75.882 0v2.186h.66v4.66h-.66V10h.66v5.876h-.66v2.103h2.372v-.66h1.484V18h2.433v-2.103h-.66V10h.66V6.845h-.66v-4.66h.66V0h-2.433v.68h-1.484V0zm11.295 3.715q.963 0 1.09 1.287.129 1.287.973 3.821l-4.067-.02q.727-2.514.885-3.801.157-1.287 1.12-1.287zm0 6.64q.511.787.55 1.651-.02.864-.55 1.65-.55-.786-.57-1.65.04-.864.57-1.65zm0-7.308q-1.453 0-1.768 1.62-.314 1.622-1.238 4.863h2.338q-1.709 2.476.649 5.423 2.456-2.947.687-5.423h2.319q-.924-3.241-1.238-4.862-.314-1.621-1.749-1.621zM94.224 0l-2.06 2.436h1.005l1.055-1.259 1.066 1.26 1.036-1.26 1.065 1.26 1.056-1.26 1.066 1.26 1.055-1.26 1.066 1.26 1.036-1.26 1.065 1.26 1.066-1.26 1.036 1.26 1.065-1.26 1.056 1.26h1.005L106.903 0l-1.066 1.177L104.8 0l-1.066 1.177L102.67 0l-1.036 1.177L100.568 0l-1.055 1.177L98.447 0l-1.056 1.177L96.326 0 95.29 1.177 94.224 0zm13.706 5.13c.153 0 .23.554.23.708 0 .153-.077.707-.23.707H93.235c-.178 0-.268-.554-.268-.707 0-.154.09-.708.268-.708zm-15.154-.804c-.408 0-.612.823-.612 1.512 0 .688.204 1.511.612 1.511h15.613c.383 0 .574-.823.574-1.511 0-.69-.191-1.512-.574-1.512zm1.527 6.132l4.584.256c.08.887.04 1.878-.121 2.973-1.71-.945-3.198-2.021-4.463-3.229zm4.974-1.219c-.255 0-.519.165-.79.495l-4.954-.256c-1.17.303-1.409.772-.716 1.408a1.66 1.66 0 0 1 .36-.044c.257 0 .424.088.5.266.108.25.4.575.874.978.474.402 1.76 1.232 3.856 2.49.248.621.522.932.821.932.14 0 .286-.068.438-.204 2.98 1.286 5.86 2.184 8.638 2.696l.392-.308-.957-1.017c-2.04-.177-4.695-.97-7.967-2.379a8.463 8.463 0 0 1-.056-3.467l5.546.371c.824-.207.885-.633.184-1.28l-5.46-.227c-.23-.303-.465-.454-.71-.454zm22.036-8.113q3.646 0 7.732 1.761Q124.96 4.6 121.313 4.6q-3.621 0-7.732-1.713 4.11-1.761 7.732-1.761zm0-1.126q-4.502 0-10.35 2.863 5.848 2.838 10.35 2.838t10.35-2.838Q125.84 0 121.314 0zm-6.317 10.735q.71 0 1.448.31l-1.402 1.42-1.439-1.42q.683-.31 1.393-.31zm-3.068 1.857l1.42 1.42-1.42 1.42q-.62-1.474 0-2.84zm6.136.073q.62 1.475 0 2.84l-1.42-1.42 1.42-1.42zm-1.11-1.202q.436.2.691.692l-1.93 1.948 1.912 1.912q-.237.474-.71.692l-1.912-1.912-1.875 1.876q-.474-.292-.692-.71l1.875-1.858-1.966-1.966q.2-.473.71-.674l1.948 1.949 1.948-1.949zm-1.912 4.225l1.42 1.42q-.692.31-1.402.31t-1.439-.31l1.42-1.42zm-.037-5.554q-1.875 0-2.959 1.22-1.083 1.22-1.083 2.677 0 1.638 1.265 2.795 1.266 1.156 2.74 1.174 1.785-.018 2.905-1.229 1.12-1.21 1.12-2.74l-.019.036q.019-1.384-1.101-2.658-1.12-1.275-2.868-1.275zm16.657-2.551h-.948v9.468h-3.919l.02-9.183v-.27h-.717l-5.087.01h-.268v10.38h.986V8.555l4.1-.009-.02 9.183-.001.27h5.856v-.27l-.001-9.608v-.539z"/></svg>