<svg xmlns="http://www.w3.org/2000/svg" width="128.632" height="18"><path d="M9.124 2.933v1.823q.402-.6 2.414-.6h1.488V2.933zM9.1 2.25q.82.152 2.437.152h1.997v2.285h-1.997q-1.055 0-1.51.22-.464.22-.904.63L9.1 15.75h-.88V2.25zm12.108 2.4q-.678.055-.714.696.036.696.714.75.678-.054.733-.75-.074-.641-.733-.696zm.018-1.814q1.228.018 1.869.779.64.76.696 1.73-.019 1.026-.724 1.814t-1.84.806q-1.081 0-1.85-.733-.77-.732-.752-1.886 0-.99.696-1.75t1.905-.76zm0-.586q-1.52 0-2.363.943-.842.944-.842 2.171 0 1.358.883 2.232l-3.869 7.476.714.367 3.786-7.348q.605.368 1.325.442h-.055v7.217h.806V8.533h-.041q.77-.075 1.346-.446l3.787 7.352.715-.367-3.894-7.523.02-.024q.833-1.007.833-2.161-.018-1.117-.843-2.107-.824-.989-2.308-1.007zm12.103.683v1.823q-.402-.6-2.415-.6h-1.488V2.933zm.023-.683q-.82.152-2.438.152h-1.996v2.285h1.996q1.056 0 1.511.22.464.22.904.63l.023 10.213h.88V2.25zm7.973 4.652h5.011q1.6 0 1.343 1.43-.064.533-.768 1.216l-7.4-1.941q.766-.705 1.814-.705zm-4.214-.247q.041 0 .096.034.235.15.554.608.32.459.982.65 8.52 2.22 9.006 2.22h.016q.508-.458.72-.458.055 0 .09.03.17.15-.117.523-.288.373.138 1.184-.018.22-.17.22-.025 0-.053-.007-.203-.043-.608-.81-.342-.342-4.373-1.365-4.03-1.024-4.863-1.13-.408-.07-.688-.07-.32 0-.474.09-.288.171-.63.203l-.035.002q-.289 0-.007-.514.299-.544.288-1.034-.008-.376.128-.376zm2.02 2.359h.017l7.358 1.835q-.399.857-1.394.857-.07 0-.141-.004-1.502-.273-2.396-.273-.224 0-.41.017-.337.03-.85.03-.9 0-2.338-.094-.725-.192-.49-1.29.23-1.078.645-1.078zm-2.145-3.295q-.659 0-.686.81-.032.971-.383 1.643-.352.672-.032 1.098.16.107.367.107.208 0 .464-.107.872-.303 1.39-.303.065 0 .125.005-.47.746-.47 2.047.15.875 1.088.939.853.137 1.675.137.453 0 .895-.041.32-.03.708-.03 1.13 0 2.844.254.063.003.124.003 1.233 0 1.944-1.22l.3.086q.596 1.003 1.172 1.045.832-.213.341-1.173 0-.576.171-.832.341-.64.128-.927-.109-.147-.361-.147-.243 0-.62.136-.235.064-.576.341.576-.917.661-1.514.064-1.621-1.92-1.77h-5.694q-.853.02-1.77 1.066-.619-.384-1.6-1.621-.155-.032-.285-.032zm18.639-2.786v4.845h-3.25V2.933zm-3.918-.683v6.196h4.601V2.25zm2.301 10.629c.805 0 1.813.414 2.301.902.427.426.483.992.498 1.518h-5.576c.016-.526.072-1.092.499-1.518.487-.488 1.472-.902 2.278-.902zm0-.451c-.956 0-1.984.441-2.587 1.044-.618.618-.688 1.432-.688 2.04v.238h6.55v-.237c0-.61-.047-1.423-.665-2.04-.603-.604-1.655-1.045-2.61-1.045zm6.655-9.656q.696 0 .696.917 0 .806-.696 1.596-.695-.79-.695-1.596 0-.917.695-.917zm0 3.525q.49 0 .49 1.059 0 .6-.49 1.107-.49-.506-.49-1.107 0-1.06.49-1.06zm0 3.193q.49 0 .49 1.06 0 .6-.49 1.106-.49-.506-.49-1.107 0-1.059.49-1.059zm0-7.24q-1.264 0-1.264 1.439-.016.9.418 1.414.435.514.388.688-.554.648-.554 1.565 0 .759.649 1.628-.649.648-.649 1.565 0 .759.649 1.613.079.205-.443.964t-1.075 2.624h.696q.347-1.233.616-1.763.269-.53.57-.861.315.332.576.861.261.53.609 1.763h.711q-.522-1.865-1.067-2.624-.545-.759-.45-.964.632-.854.632-1.613 0-.917-.6-1.565.6-.87.6-1.628 0-.917-.538-1.565-.047-.174.38-.688.427-.513.427-1.414 0-1.439-1.28-1.439zm4.757 0l-1.36 1.607h.663l.696-.83.703.83.683-.83.703.83.696-.83.703.83.697-.83.703.83.682-.83.703.83.703-.83.683.83.703-.83.697.83h.662L73.781 2.25l-.703.777-.683-.777-.703.777-.703-.777-.682.777-.703-.777-.697.777-.703-.777-.696.777-.703-.777-.683.777-.703-.777zM64.1 9.406v1.16h2.563v-1.16h-.502c-.147.258-.314.425-.502.502a.721.721 0 0 1-.56 0c-.185-.077-.35-.244-.497-.502zm1.554-4.227v1.925h-.581v2.354h.627V7.983h.728v-2.02h.9c.16 1.256.596 2.189 1.308 2.8.711.61 1.59.963 2.636 1.061 1.046.098 1.733.235 2.06.413.328.178.492.358.492.539h1.277c-.196-.467-.457-.823-.785-1.067s-.936-.398-1.825-.46c-.89-.063-1.6-.18-2.134-.35a3.402 3.402 0 0 1-1.428-.91c-.419-.437-.74-1.373-.963-2.81zm1.679 7.808q-.058.109-.131.24l-.124.722q0 .379.124.707.131.284.328.51-1.32-.24-2.376-.357.663-.394 1.042-.875.386-.48 1.137-.947zm3.113-.059q.4.03 1.348.605.948.569 1.954.94-.736.044-1.604.314-.874.263-1.837.394.153-.182.306-.518.146-.335.146-.714 0-.386-.138-.722-.073-.16-.175-.299zm-1.534-.335q.252 0 .484.102.248.102.437.277.19.168.307.408.094.24.109.518.015.277-.087.517-.11.241-.277.43-.175.197-.416.307-.24.102-.518.109h-.035q-.25 0-.482-.095-.248-.102-.437-.27-.183-.167-.292-.408-.102-.24-.117-.525 0-.27.102-.51.095-.24.263-.43.175-.197.415-.291.24-.132.51-.139h.034zm-.04-.495q-.477 0-.941.101-1.006.22-2.041 1.305-1.035 1.08-1.815 1.152l-.015.51q1.772.153 3.477.467.638.117 1.342.117 1.179 0 2.544-.329 2.172-.524 2.755-.634h.962v-.627h-.991q-.707-.24-1.895-.955-1.181-.714-2.253-.97-.573-.137-1.13-.137zm7.768-7.47h13.17V2.25h-9.877L76.64 4.628m12.438-1.647v.915l-10.164.046 1.019-.96h9.145zM78.256 13.84l-1.616 1.91h.788l.828-.987.835.987.812-.987.836.987.827-.987.836.987.827-.987.836.987.812-.987.835.987.836-.987.812.987.835-.987.828.987h.788l-1.616-1.91-.835.923-.812-.923-.836.923-.835-.923-.812.923-.836-.923-.827.923-.836-.923-.827.923-.836-.923-.812.923-.835-.923zM93.69 2.68q-.387 0-.717.308-.33.308-.33.724 0 .387.28.71.28.322.766.322.46 0 .76-.337.301-.337.301-.695 0-.387-.3-.71-.302-.322-.76-.322zm1.275 2.91q.086 0 .1.1 0 .085-.1.085-.086 0-.1-.086.014-.1.1-.1zm0-.044q-.143 0-.143.143 0 .115.143.158.086-.014.172-.086-.043-.215-.172-.215zm-.37-.154q.106 0 .227.01-.13.073-.058.187.072-.114.201-.114.244 0 .244.3-.144.1-.13.187.015.086.044.114-.1.1-.187.516-.057 0-.071-.043.014-.444-.029-.587-.129-.258-.358-.265h-.02q-.216 0-.346.15-.136.158-.093.358.043.201.616.445v.028q-.888-.229-.81-.795.07-.491.77-.491zm-.39-.147q-.558 0-.63.688-.072.688 1.118.917-.201.086-.33.316-.129.229-.143.473.06.018.115.018.117 0 .214-.083.144-.122.344-.609.305-.832.731-.832h.158q-.018-.108-.082-.108-.037 0-.09.037-.033-.065-.126-.065-.07 0-.175.036.2-.215.2-.43l-.024.002q-.095 0-.133-.102-.007.005-.021.005-.069 0-.302-.12-.279-.143-.824-.143zm5.265 1.178q-.083 0-.184.048-.323.15-.222 1.24.817-.732.68-1.061-.093-.227-.274-.227zm-4.755 1.488q-.088 0-.194.071.372.258.344 1.305h.186q.014-.99-.129-1.233-.084-.143-.207-.143zM93.389 5.36q-.502.014-1.104 1.01-.602.996-.602 2.917h.43q.014-1.52 1.319-1.52v1.52h.286V7.15q-.817-.616-.33-1.791zm.69 2.758q-.036 0-.074.008v1.476h-.889V8.126q-.03-.006-.06-.006-.456 0-.456 1.482.158 3.912.545 4.916l-.33.716h4.744l-.989-.43q.487-2.135 1.09-3.146.601-1.01.272-1.24-.083-.057-.172-.057-.266 0-.588.516l-1.978 2.666h-.501l-.115-3.941q0-1.484-.499-1.484zm-.39-5.868q.674.014 1.083.466.408.451.408 1.01 0 .473-.215.745-.172.287-.416.445l.033-.001q.231 0 .512.187.315.215.287.287.04-.033.086-.033.034 0 .071.018.086.043.072.172.415.143.415.889-.183-.092-.266-.092-.02 0-.034.006-.287 0-.774 1.146.1.086.272.33.172.243.172.845v.932h-.358q.014.788.1 3.21l1.992-2.723q.416-.341.657-.341.083 0 .146.04l.76-1.519q-.531-.258-1.162-.3.029-.388.273-.689.515.387 1.003.588-.316-1.448.337-1.734.197-.087.362-.087.379 0 .583.46.294.659-.924 1.49.545.258 1.118.258-.014.401-.287.716-.387-.4-1.017-.602l-.502 1.749q.158.057.2.358.044.301-.537 1.376-.58 1.075-.938 2.637l1.046.587-.072.674h-6.134l.502-1.232q-.43-1.892-.444-4.902l-.788-.014q0-2.537.702-3.633.628-.981.958-.981.039 0 .074.014-.817-.43-.86-1.29 0-.616.451-1.032.452-.416 1.053-.43zm14.261.293c.024 0 .049.003.075.01.144.04.185.159.124.358l-1.042 2.696h-.507l1.106-2.852c.057-.141.138-.212.244-.212zm.86.217c.03 0 .061.005.094.015.165.048.196.171.091.37l-.95 2.462h-.508l1.003-2.617c.062-.153.152-.23.27-.23zm-2.57 3.976c-.082 0-.174.014-.278.043v.13a.933.933 0 0 1 .28-.05c.072 0 .137.013.195.037.126.052.293.087.501.104l-.065-.065a27.78 27.78 0 0 1-.456-.17.494.494 0 0 0-.178-.029zm.1.29l.234.078a1.737 1.737 0 0 1-.235.078c.052-.043.052-.095 0-.156zm-.196 0c-.026.052-.018.109.026.17a.807.807 0 0 1-.156-.053c.008-.043.052-.082.13-.117zm.065-.091c-.113 0-.191.043-.234.13l-.118.065-.013.065.118.026a.42.42 0 0 0 .23.059c.13 0 .287-.041.473-.124h.286v-.09h-.3c-.182-.088-.33-.131-.442-.131zm2.357-1.08l-.886 1.627c-.058.08-.112.121-.162.121a.109.109 0 0 1-.072-.03l-.287-.182c.018-.061.087-.152.209-.274.121-.121.147-.267.078-.436-.04-.096-.115-.144-.226-.144a.834.834 0 0 0-.321.085c-.277-.166-.522-.25-.734-.25l-.06.003a2.686 2.686 0 0 0-.091-.52zm-2.498.74c.222 0 .512.097.87.288.078-.087.156-.13.234-.13.079 0 .12.039.124.117.005.078-.065.18-.208.306s-.21.232-.202.319l.04.013a.64.64 0 0 1-.261.449c-.148.109-.348.167-.6.176a.936.936 0 0 1-.048.001c-.13 0-.188-.033-.173-.099a.206.206 0 0 0-.039-.189l.075.002c.243 0 .307-.042.192-.125-.085-.062-.153-.093-.205-.093a.093.093 0 0 0-.062.021c.035-.13-.034-.2-.208-.208.19-.321.338-.604.443-.847h.028zm.935.965l.378.234c.026.4.108.677.247.834a1.596 1.596 0 0 0-.21-.015c-.05 0-.097.003-.141.008a.546.546 0 0 0-.3.15 2.489 2.489 0 0 0-.325-.664c.225-.165.343-.347.351-.547zm-3.891 2.77c.189 0 .366.092.532.277-.313.008-.521.108-.625.3-.087-.218-.195-.34-.326-.365-.13-.026-.06-.085.209-.176a.652.652 0 0 1 .21-.036zm4.399-1.416c.339 0 .551.191.638.573.122.53.139 1.354.052 2.474a40.496 40.496 0 0 1-.364 3.19l.156.234h-4.323l.898-.364c-.26-1.276-.586-2.212-.976-2.806-.39-.595-.456-.979-.196-1.152a.443.443 0 0 1 .247-.083c.176 0 .35.127.522.382l1.757 2.5.313-.026c.19-1.944.395-3.394.612-4.349.104-.382.325-.573.664-.573zm.376-6.664c-.25 0-.419.147-.506.44l-1.12 2.917h-.56c.104.347.156.655.156.924-.06.243-.175.486-.345.73-.163.234-.13.351.099.351h.025c-.06.087-.052.139.026.156-.07.035-.078.072-.026.11.052.04.074.125.065.255-.026.382-.128.692-.306.93-.146.197-.279.295-.399.295a.216.216 0 0 1-.076-.014.459.459 0 0 0-.154-.035c-.052 0-.087.018-.107.054-.034.065.011.133.137.202a.324.324 0 0 0 .16.037c.11 0 .248-.04.413-.122.256-.125.488-.514.697-1.165h.364c.113.104.2.256.26.456-.312 1.007-.568 2.482-.768 4.427l-1.757-2.474a1.217 1.217 0 0 0-.365-.365.758.758 0 0 0-.615-.308.987.987 0 0 0-.205.022v-2.8c0-.381-.135-.577-.404-.585a3.21 3.21 0 0 1 .638-.704c.074-.132.072-.198-.005-.198a.66.66 0 0 0-.242.081 8.5 8.5 0 0 0-.573.495c-.217.226-.34.393-.371.501l-.241.853c.005.14.027.21.067.21.032 0 .074-.043.128-.132.035-.113.083-.256.143-.43a.63.63 0 0 1 .352-.377c.148 0 .221.095.221.286v2.852c-.503.27-.644.451-.423.547.205.088.372.244.498.467.063.43.24.89.53 1.382.309.52.589 1.285.84 2.292l-.989.43.065.507h5.56l-.573-.677c.278-2.7.376-4.425.293-5.176-.082-.75-.271-1.165-.566-1.243-.209-.209-.291-.434-.248-.677l.326-.586c.512.373.768.876.768 1.51v6.849h.286V8.901c0-.755-.308-1.345-.924-1.77l.846-1.524h-.599l.925-2.396c.13-.33.071-.543-.176-.638a.927.927 0 0 0-.333-.069.618.618 0 0 0-.311.082c-.061-.191-.237-.302-.528-.332a.705.705 0 0 0-.073-.004zm7.741.517q1.675 0 3.551.809-1.876.787-3.55.787-1.664 0-3.552-.787 1.888-.81 3.551-.81zm0-.517q-2.067 0-4.753 1.315 2.686 1.303 4.753 1.303 2.068 0 4.754-1.303-2.675-1.315-4.754-1.315zm-3.388 4.075q.506 0 .506.666 0 .585-.505 1.16-.505-.575-.505-1.16 0-.666.505-.666zm0 2.56q.357 0 .357.77 0 .435-.356.803-.356-.368-.356-.804 0-.77.356-.77zm0 2.319q.357 0 .357.769 0 .436-.356.804-.356-.368-.356-.804 0-.77.356-.77zm0-5.258q-.918 0-.918 1.045-.011.654.305 1.027.315.373.28.5-.4.47-.4 1.136 0 .551.47 1.183-.47.47-.47 1.136 0 .551.47 1.171.057.15-.322.7-.378.551-.78 1.906h.505q.252-.895.448-1.28.195-.385.413-.626.23.241.419.626.19.385.442 1.28h.516q-.378-1.355-.774-1.906-.397-.55-.328-.7.46-.62.46-1.171 0-.666-.437-1.136.437-.632.437-1.183 0-.666-.39-1.136-.035-.127.275-.5.31-.373.31-1.027 0-1.045-.93-1.045zm6.764.379q.505 0 .505.666 0 .585-.505 1.16-.505-.575-.505-1.16 0-.666.505-.666zm0 2.56q.356 0 .356.77 0 .435-.356.803-.356-.368-.356-.804 0-.77.356-.77zm0 2.319q.356 0 .356.769 0 .436-.356.804-.356-.368-.356-.804 0-.77.356-.77zm0-5.258q-.918 0-.918 1.045-.012.654.304 1.027.316.373.281.5-.402.47-.402 1.136 0 .551.471 1.183-.47.47-.47 1.136 0 .551.47 1.171.058.15-.321.7-.38.551-.781 1.906h.505q.253-.895.448-1.28t.413-.626q.23.241.42.626.189.385.441 1.28h.517q-.38-1.355-.775-1.906-.396-.55-.327-.7.459-.62.459-1.171 0-.666-.436-1.136.436-.632.436-1.183 0-.666-.39-1.136-.035-.127.275-.5.31-.373.31-1.027 0-1.045-.93-1.045z"/><path d="M8.22.375c-9.625 0-9.625 17.25 0 17.25m0-17.25h112.162M8.22 17.625h112.162M128.07.375v17.25M120.382.375c9.625 0 9.625 17.25 0 17.25" fill="none" stroke="#000"/></svg>