<svg xmlns="http://www.w3.org/2000/svg" width="185.251" height="18"><path d="M18.058.568q-.111.037-.111.128t.07.146q.027.022.054.022.04 0 .077-.05.063-.081.021-.163-.041-.083-.11-.083zM2.67.47q-.153 0-.296.282.084.183.264.237.028.01.054.01.131 0 .224-.229 0-.255-.194-.292Q2.695.47 2.669.47zM1.665.787q-.042.128.027.238l-.583.073q-.014-.164.556-.31zm.568.436zm.105-.003q.12 0 .195.033.027.012 0 .012-.052 0-.288-.04.05-.005.093-.005zm2.564 1.252q.035 0 .097.068 1.125 1.223 2.792 2.865Q9.46 7.048 9.667 7.724 8.305 7.468 7.34 6.318q-.966-1.15-1.681-2.236-.716-1.086-.799-1.414-.017-.196.042-.196zm.046-.868q.202 0 .384.096 4.321 4.308 4.946 5.604.584 1.405.764 2.154-.076.11-.182.11-.087 0-.193-.074l-.57-1.515q-.43-1.296-2.104-2.875-1.674-1.579-2.424-2.5-.441-.542-.676-.542-.164 0-.227.268-.108.455-.38.455-.115 0-.26-.081.126-.858.542-1.022.198-.078.38-.078zm.357 6.43q.666 1.405.541 2.83-.125 0-.236.236-.045-.403-.277-.403-.051 0-.112.02.292-1.405.084-2.683zM2.827.346q.066 0 .116.013.25.063.292.237.029.122.058.122.013 0 .025-.022.042-.073.056-.164.305.53.041 1.57t.848 1.24q1.028 3.104 2.209 4.72 1.18 1.615.986 3.038-.449-.438-.993-.438-.113 0-.23.019.042-1.296-.472-2.556t-.945-1.889q-.43-.63-1.16-1.497-.73-.867-.722-1.789.007-.921.194-1.286.188-.365.181-.584-.003-.091-.027-.091-.035 0-.112.182-.132.31-.73.328l-.07.001q-.568 0-1.235-.274l.82.073q.404.11.601.11.162 0 .183-.074.049-.164-.076-.192-.125-.027-.257-.027t-.201.055l.026.052-.29-.052Q1.762.787 1.887.623q.028-.055.097-.055-.028.183.049.274.028.034.056.034.046 0 .09-.098.07-.155-.125-.228.511-.204.773-.204zm15.412.04q.375 0 .555.365.056.055.695.2v.056l-.695.073q-.597 0-.75-.12-.153-.118-.146-.273.007-.155.188-.155.18 0 .25.082t.035.173q-.035.092-.132.147h.028q.18 0 .187-.22.007-.237-.299-.273-.389 0-.291.374.092.357.854.357l.076-.001q.431-.037.765-.128L19.53.97q1.236 1.004 1.16 2.29-.077 1.288-.966 2.136-.889.85-1.584 1.871-1.083 1.734-1.167 2.72-.083.986.376.986.458 0 1.118-.721.66-.721 1.34-.74 1.82.055 1.612 2.209-.667-.93-1.5-.93-.417 0-1.14.474-1.097.766-1.667.766l-.472-.091q-.861-.84-.583-2.482.416-1.187 1.125-4.235.486-1.734.965-2.628.48-.895 1.022-.913.291 0 .944.365.027.01.047.01.094 0 .037-.21-.526-.429-1.226-.429-.225 0-.47.045-.208 0-.506-.146-.3-.146-.3-.694.251-.237.543-.237zM4.666 3.05q1.083 1.825 1.986 3.002.903 1.178 1.702 1.588.799.411 1.48.43.083.145 1.653 4.617l-.097.055-3.738-3.14q.028-.273-1.104-1.962-1.132-1.687-1.994-4.46l.112-.128zM8.5 10.918l2.07 1.66q.07.256-.5.348-.127.02-.233.02-.37 0-.49-.248-.152-.32-.389-.831-.236-.511-.458-.95zm7.071-.785q0 .767.167 1.332.43 1.004 1.153 1.023h.038q.711 0 1.699-.657.938-.625 1.365-.625.034 0 .066.004.416.055.903.566.486.51.514.894.05.311-.043.311-.06 0-.18-.128-.399-1.05-1.024-1.05h-.01q-.633.01-1.557.648-.923.639-2.153.639t-1.368-1.04q-.14-1.04.43-1.917zM5.277 11.192l.208.547q.195-.255.299-.3l.005-.002q.088 0-.304 1.543l-.583.238q-.153-.146.09-.904.243-.757.285-1.122zm14.763 1.14q.461 0 .727.502-.18.384-.847.603-.514 0-1.042-.566.685-.539 1.162-.539zm-1.607.758q.207.265.448.438h-1.883q.692-.095 1.435-.438zm-7.182 1.15q-1.554 2.935-4.48 3.011-2.913-.076-4.467-3.011zm11.239.018q-1.554 2.935-4.48 3.012-2.913-.077-4.48-3.012zM3.066.008q-.084 0-.179.013-.222 0-1.264.42-.834.255-.903.657l.028.62.417-.2q.68.292 1.139.292.458 0 .347.41-.111.411.028 1.37.139.958 1.097 1.934.959.977 1.188 2.556.23 1.578-.41 3.641l.209-.164q.004-.004.007-.004.046 0-.216.816-.277.867-.757.894-.084.005-.16.005-.348 0-.486-.105-.155-.12-.462-.12l-.045.001q-.34.01-.34.302v.182H1.33Q2.93 17.982 6.777 18q3.849-.018 5.446-4.472l-4.279.037q0-.165-.264-.356-.129-.094-.296-.094-.175 0-.391.103-.13.061-.278.061-.337 0-.771-.317.097-.639.236-1.14.139-.503.528-.594.036-.008.073-.008.362 0 .816.811.264-.675.153-1.825l.139.128q1.042 2.3 1.257 2.701.163.305.634.305.15 0 .331-.031.75-.128.737-.475l.639.42.486-.237-1.07-3.048q.264 0 .487-.292-.264-1.096-.82-2.446-.39-.822-.792-1.278Q8.681 4.603 7.5 3.39T5.763 1.518q-.373-.28-.775-.28-.226 0-.461.088-.653.246-.792 1.214-.042-.037.07-.73.11-.694-.05-1.287-.138-.514-.689-.514zM18.286 0q-.252 0-.478.094-.292.11-.347.42-.111.383.097.757.208.374.653.466-.89 1.058-1.514 3.741-.584 2.556-.973 3.779-1.042 1.113-1.035 2.236.007 1.122.424 1.597.301.343.878.438h-3.434q1.597 4.454 5.446 4.472 3.848-.018 5.445-4.472h-2.674q.153-.11.313-.256.156.245.354.245.083 0 .174-.044.347-.219.139-1.004.194-2.245-.459-2.865-.653-.621-1.473-.621-.75 0-1.625.849-.543.526-.743.526-.124 0-.118-.198.014-.52.611-1.761.403-.876 1.75-2.254 1.348-1.378 1.334-2.775-.014-1.396-.597-2.099-.584-.703-1.292-.794-.111-.2-.292-.328-.18-.128-.48-.146Q18.329 0 18.287 0zm9.444.644q-.461 0-.461.35 0 .294.462.294.448 0 .448-.294 0-.35-.448-.35zm.351-.196q1.064 0 1.596.686.266.434.518 1.33-.014.21-.35.28-.336.07-.658.07-1.484-.546-2.296-1.89.056-.476 1.19-.476zm2.534 2.1q.266.197 1.128.715.86.518 2.688 2.149 1.827 1.631 2.766 1.918.938.287 2.205.343 1.267.056 1.911.294 0 .197-.406.309-3.514-.407-5.16-.757-1.645-.35-2.43-.595-.783-.245-2.001-.93-1.219-.687-1.947-1.331-.728-.644-.952-1.008-.224-.364.553-.385.777-.021 1.26-.224t.385-.498zm10.74 5.49l.112.111q0 .113-.14.155l-.266-.014q.294-.126.294-.253zm.182.168l.112.14-.21-.014q.084-.07.098-.126zM26.737.994q.952 1.358 2.226 1.905-.162-.009-.305-.009-1.027 0-1.04.443 0 .7 2.388 2.408t5.622 2.212q1.4.182 1.569.547.028.266-1.33.336h-2.255q-.224-.49-.826-.897l.126.35q-2.24-1.288-3.928-2.849-1.687-1.561-1.701-2.71 0-.546-.546-1.372 0-.126-.756-.238v-.028l.756-.098zm10.978 7.38l3.878.686q-.406.168-.567.602-.16.434.035 1.05L37.043 9.13q.056-.014.266-.12.21-.104.37-.286.162-.182.036-.35zm-6.091-.267q1.512 1.009 1.484 1.317-.224.728-1.092 1.848-.462 0-.875-.098-.223-.053-.464-.053-.206 0-.426.04 1.443-2.045 1.443-2.13 0-.545-.084-.924zM28.067 0q-.742 0-1.113.203t-.4.54q-1.106.153-1.106.223v.28q.029.07.925.336.476.63.476 1.149 0 .98.714 1.932t3.066 3.122q.21 0 .435 1.247l-1.317 2.016q-.168.112-.448.126-.462-.154-1.47-.154-.32.098-.567.098-.176 0-.315-.049-.272-.096-.728-.096-.107 0-.224.005-.476.224-.084.616l7 .014-.223-.336q.434-.714 1.12-1.96h2.52l5.462 2.114.056-.196q-.589-.588-.49-1.33.21-.602 1.106-.798v-.196l-2.24-.406v-.014l2.1.14q0-.056-.357-.715-.358-.658-1.506-.658-1.876-.056-2.765-.182-.89-.126-3.396-2.422-2.506-2.297-3.585-2.549Q30.195 0 28.067 0zm5.888 14.24q2.996 0 6.355 1.447-3.359 1.408-6.355 1.408-2.976 0-6.355-1.408 3.379-1.448 6.355-1.448zm0-.926q-3.7 0-8.507 2.353Q30.255 18 33.955 18q3.7 0 8.507-2.333-4.787-2.353-8.507-2.353zM48.011.36c.157.108.146.167.13.232-.022.083-.276.139-.391.139-.032 0-.054-.005-.056-.014 0-.075.124-.27.317-.356zm-1.304 1.712c-.16 0-.241.086-.241.258 0 .215.096.323.29.323h.016a.719.719 0 0 0 .564-.258v-.097c0-.075-.629-.226-.629-.226zM48.794.77c.235.191-.194.73-.448 1.281l-.089.19c.444-.282.675-.83.675-.83.108.17-.242.636-.135.774.118.42.6.925-.484 1.955-.14.086-1.75.946-1.88.946-.096 0-.166-.074-.403-.29l.484-.386v-.113l-.016-.016H46.4c-.161 0-.365.102-.613.306a4.499 4.499 0 0 1-.44-.526c.201-.158.281-.267.27-.414.03-.182-.093-.21-.187-.21-.043 0-.08.005-.094.005v.13c-.032.064-.102.118-.21.16-.043 0-.064-.144-.064-.144 0-.076.172-.312.516-.71.946-1.16 1.676-1.752 2.3-1.752l.14.011c-.238.15-.128.404-.128.404.25-.22.656-.676.903-.77zm.656.783h.005c1.632 1.569 1.88 2.635 1.89 6.212l-2.766.044-.039-2.877c0-.193.043-.425.215-.522 1.16-.896.572-2.255.496-2.407-.03-.344.105-.45.199-.45zM48.057 0c-.096 0-.31 0-.527.235-.192.21-.254.604-.627.739-.372.254-.62.52-.856.762-.945 1.032-1.262 1.392-1.273 1.597-.754.615.06.979.307 1.12.806.936.669.87 1.014 1.022.125.033.197.061.26.061.07 0 .129-.032.235-.126.118 0 1.386-.612 1.386-.612.14 0 .198.46.198 1.514-.012.724-.088 1.92-.004 1.92a.01.01 0 0 0 .004-.001l.033.048h3.66l.015-.016-.048-1.064c-.075-1.333.465-4.679-2.632-6.406.036-.216-.138-.452-.357-.452-.11 0-.23.06-.343.21-.02-.26-.131-.53-.445-.551zm8.57.36c.156.108.145.167.129.232-.022.083-.276.139-.39.139-.033 0-.055-.005-.057-.014 0-.075.124-.27.318-.356zm-1.305 1.712c-.16 0-.241.086-.241.258 0 .215.096.323.29.323h.016a.719.719 0 0 0 .564-.258v-.097c0-.075-.629-.226-.629-.226zM57.41.77c.235.191-.194.73-.448 1.281l-.089.19c.444-.282.675-.83.675-.83.108.17-.242.636-.135.774.118.42.6.925-.483 1.955-.141.086-1.752.946-1.88.946-.097 0-.167-.074-.404-.29l.484-.386v-.113l-.016-.016h-.097c-.161 0-.365.102-.613.306a4.499 4.499 0 0 1-.44-.526c.201-.158.282-.267.27-.414.03-.182-.093-.21-.187-.21-.043 0-.08.005-.094.005v.13c-.032.064-.102.118-.21.16-.043 0-.064-.144-.064-.144 0-.076.172-.312.516-.71.946-1.16 1.676-1.752 2.3-1.752l.14.011c-.238.15-.128.404-.128.404.25-.22.656-.676.903-.77zm.656.783h.005c1.633 1.569 1.88 2.635 1.89 6.212l-2.766.044-.039-2.877c0-.193.043-.425.215-.522 1.16-.896.572-2.255.496-2.407-.029-.344.105-.45.199-.45zM56.672 0c-.096 0-.31 0-.527.235-.192.21-.254.604-.627.739-.372.254-.62.52-.855.762-.946 1.032-1.263 1.392-1.273 1.597-.755.615.06.979.306 1.12.806.936.669.87 1.014 1.022.125.033.197.061.26.061.07 0 .129-.032.235-.126.118 0 1.386-.612 1.386-.612.14 0 .198.46.198 1.514-.012.724-.088 1.92-.004 1.92a.01.01 0 0 0 .004-.001l.033.048h3.66l.015-.016-.048-1.064c-.075-1.333.465-4.679-2.632-6.406.036-.216-.137-.452-.357-.452-.11 0-.23.06-.343.21-.02-.26-.131-.53-.445-.551zm-4.179 11.655L50.61 9.758l-.68.607 1.918 1.93-1.929 1.917.64.643 1.929-1.918 1.918 1.93.643-.64-1.881-2.008 1.893-1.839-.64-.643-1.93 1.918z"/><path d="M57.369 13.21c.686.03 1.062.045 1.225.045h.073l-.088 3.586a5.262 5.262 0 0 1-1.365-.811l.155-2.82zm-10.007-.892c-.229.044-.531.184-.495.457v2a38.32 38.32 0 0 0-1.033-.044c0 .25.207.59.849.59.007.568.11 1.262.214 1.616l.088.93c0 .103.178.133.37.133.228 0 .48-.044.48-.044l-.038-.93c3.646.03 10.597.214 10.944.214.177 0 .295-.192.295-.458l.089-4.007-2.192-.022-.177 3.122c-1.587.007-4.332.265-6.199.265-.59 0-1.1-.022-1.446-.096-.074-.08-.76-1.077-1.196-1.188a1.914 1.914 0 0 0-.258-.03c-.074-.604-.148-1.21-.214-1.807.133-.17.435-.126.517-.354.08-.111.03-.296-.126-.303-.088-.037-.332-.044-.435-.044zM64.243 0c-.93 0-1.746.684-1.746 1.562V18h1.136V1.562c0-.43.379-.57.617-.57.25 0 .634.175.634.703v10.804h1.136V1.695C66.02.815 65.15 0 64.243 0zm6.982 3.182q.24 0 .277.296l.407 3.681q.315 2.535.37 4.847 0 1.591-.231 2.525-.231.935-.805.935-.573 0-.823-.935-.25-.934-.231-2.525.037-2.312.351-4.847l.407-3.681q.037-.296.278-.296zM68.43 0q-.777.388-.092.814 2.257 1.313 1.98 2.793l-.426 3.552q-.296 2.535-.426 4.847 0 2.257.426 3.302.425 1.046 1.332 1.046.906 0 1.332-1.046.425-1.045.425-3.302-.13-2.312-.425-4.847l-.389-3.404Q71.576.721 68.431 0zm.026 15.982q-.319 0-.377.446.388 1.369 3.163 1.572 2.775-.203 3.071-1.572 0-.438-.287-.438-.174 0-.453.16-.555.629-2.33.925-1.777-.296-2.332-.943-.271-.15-.455-.15zM79.14.72c.67.051 1.246.203 1.726.456-.632.746-1.207 1.764-1.726 3.054-.53-1.29-1.112-2.308-1.745-3.054.493-.24 1.075-.392 1.745-.455zm0 4.894c.392 3.655.6 6.616.626 7.704-.025 1.846-.234 3.072-.626 3.68-.404-.608-.613-1.834-.626-3.68.013-1.1.222-4.062.626-7.704zm0-5.614c-1.29 0-2.232.392-2.826 1.176.898.746 1.619 1.903 2.162 3.47 0 .709-.142 2.634-.426 4.594-.285 1.96-.351 4.134-.2 6.524.327 1.49.717 2.236 1.172 2.236a.443.443 0 0 0 .118-.017.45.45 0 0 0 .119.017c.455 0 .845-.745 1.171-2.236.14-2.39.066-4.564-.218-6.524-.285-1.96-.427-3.885-.427-4.593.557-1.568 1.284-2.725 2.181-3.471C81.36.392 80.417 0 79.14 0zm7.26.59c.22 0 .263.037.295.071.032.034.07.13.132.293.099.26.084.974.022 1.452a3.263 3.263 0 0 0-.24.243c-.084.095-.144.204-.206.31-.007-.01-.011-.022-.019-.033a2.606 2.606 0 0 0-.507-.539c-.042-.452-.004-1.172.095-1.433.062-.163.1-.259.132-.293.033-.034.075-.07.296-.07zm1.353 1.976c-.048.032-.095.07-.135.092-.216.115-.32.231-.468.381-.264.27-.264.628-.264 1.003a12.47 12.47 0 0 0-.16-.424c.1-.22.215-.448.33-.579.21-.24.508-.41.697-.473zm-3.06-.194a.93.93 0 0 1 .418.172c.045.03.128.101.194.154.226.182.508.43.584.548.268.413.405.955.622 1.5.044.114.074.267.107.42-.01.004-.014.01-.024.015a.961.961 0 0 1-.379.07c-.284 0-.403-.043-.507-.19-.082-.116-.163-.353-.163-.65 0-.273.082-.675-.062-1.06-.106-.285-.226-.548-.55-.825-.097-.082-.17-.115-.24-.154zm1.565 6.048c.05 1.11.187 2.797.317 4.36.135 1.62.255 3.106.255 3.473 0 .406-.046.734-.135.913-.089.18-.163.243-.437.243-.273 0-.347-.063-.437-.243-.089-.179-.135-.507-.135-.913 0-.367.12-1.854.255-3.474.13-1.562.267-3.249.317-4.359zM86.4 0c-.313 0-.565.089-.723.255-.158.167-.204.346-.259.49-.124.328-.173.78-.172 1.212-.224-.117-.446-.194-.667-.194a.657.657 0 0 0-.413.117.547.547 0 0 0-.086.754.779.779 0 0 0 .197.175c.128.083.24.14.27.166.258.22.279.304.382.581.05.136.025.51.025.856 0 .395.093.738.27.99a.97.97 0 0 0 .456.345c.004 1.057.03 1.707-.003 2.5-.044 1.079-.188 2.867-.323 4.486-.135 1.62-.259 3.038-.259 3.52 0 .442.03.84.197 1.175.167.335.526.572.966.572.44 0 .8-.237.966-.572.167-.335.197-.733.197-1.175 0-.482-.124-1.9-.258-3.52-.135-1.62-.28-3.407-.323-4.485-.033-.802-.007-1.452-.003-2.529h.002a.96.96 0 0 0 .508-.55c.128-.369.126-.686.126-1.068 0-.367.07-.62.099-.65.16-.162.174-.192.326-.273.12-.064.255-.15.375-.252.06-.051.115-.104.166-.17a.434.434 0 0 0 .111-.292c0-.072.001-.253-.141-.387-.143-.135-.314-.154-.526-.154-.139 0-.272.033-.4.08.034-.432.038-.888-.102-1.259-.054-.143-.1-.322-.258-.489C86.965.09 86.713 0 86.4 0zm5.895 0c-.93 0-1.745.684-1.745 1.562V18h1.136V1.562c0-.43.379-.57.617-.57.25 0 .633.175.633.703v10.804h1.136V1.695c0-.88-.87-1.695-1.777-1.695zm6.163 11.783c.534.205 1.116.861 1.287 1.402.17.54.15 1.171.03 1.792-.12.61-.36 1.191-.651 1.571-.2.26-.38.41-.55.46h-.161c-.17-.04-.39-.19-.61-.46-.291-.38-.531-.96-.651-1.571-.12-.621-.14-1.252.03-1.792.17-.541.808-1.243 1.276-1.395v-.007zM97.892 0v1.201h-1.08v.771h1.08l-.15 9.09c-.77.4-1.251 1.081-1.481 1.812-.23.751-.24 1.562-.09 2.313.15.75.45 1.411.86 1.942.31.4.721.73 1.202.831v.03c.03.01.06.01.09.01.04 0 .08-.01.12-.01.05.01.1.01.14.01.04 0 .07 0 .11-.01v-.03c.48-.1.891-.43 1.202-.831.41-.53.71-1.191.86-1.942.15-.751.14-1.562-.09-2.313a2.97 2.97 0 0 0-1.481-1.782l-.15-9.12h1.02l.03-.77h-1.14V0h-1.052zm19.883.675q.723 0 .723.595 0 .53-.74.53l-13.095-.016q-.707 0-.707-.547 0-.562.723-.562zM104.425 0q-1.144 0-1.144 1.237 0 1.238 1.173 1.238h13.658q1.077 0 1.077-1.173 0-1.302-1.051-1.302h-13.714zm6.842 2.973q-.241 0-.402.153-.16.152-.16.361t.16.354q.16.144.402.144.24 0 .41-.144.168-.145.168-.354t-.168-.361q-.17-.153-.41-.153zm-1.832.016q-.24 0-.402.145-.16.144-.16.353t.16.362q.161.152.402.152.241 0 .402-.152.16-.153.16-.362t-.16-.353q-.16-.145-.402-.145zm3.68 0q-.241 0-.402.145-.16.144-.16.353t.16.362q.16.152.402.152.24 0 .41-.152.168-.153.168-.362t-.168-.353q-.17-.145-.41-.145zm-6.103.468q.216 0 .254.094.032.161-.482.434-2.707 1.06-2.825 1.06h-.003q-.023.01-.04.01-.04 0-.04-.058l-.322-.755q-.064-.08.032-.112.064-.032 3.037-.627.238-.046.39-.046zm8.535.008q.152 0 .396.054 2.989.595 3.037.627.096.032.032.112l-.305.756q-.012.057-.056.057-.018 0-.04-.01l-.003.001q-.103 0-2.826-1.06-.498-.274-.482-.435.037-.102.247-.102zm-8.298-.491q-.14 0-.304.031-1.222.209-3.97.755-.192.08-.08.338l.514 1.382q.086.228.273.228.024 0 .049-.004 2.555-.996 3.663-1.478.724-.289.53-.835-.163-.417-.675-.417zm8.093.006q-.533 0-.7.427-.194.546.53.835 1.108.482 3.663 1.462.036.008.068.008.172 0 .253-.216l.515-1.382q.112-.273-.08-.338-2.732-.546-3.97-.771-.15-.025-.28-.025zm-8.285 6.376v.224l.017 7.62-3.402-.007V9.367h-.818v8.612h.223l4.22.008h.596v-.223l-.017-7.62h3.252V18h.787V9.356zm9.454-1.692c.75 0 1.687.385 2.141.839.397.397.449.923.463 1.412h-5.186c.015-.49.067-1.015.464-1.412.454-.454 1.37-.839 2.118-.839zm0-.42c-.888 0-1.845.411-2.405.972-.575.574-.64 1.331-.64 1.897v.221h6.09v-.22c0-.567-.042-1.324-.617-1.898-.56-.56-1.539-.971-2.428-.971zm.015 4.964q.566 0 1.154.247l-1.118 1.132-1.147-1.132q.545-.247 1.11-.247zm-2.446 1.48l1.132 1.133-1.132 1.132q-.494-1.175 0-2.264zm4.892.059q.493 1.176 0 2.264l-1.132-1.132 1.132-1.132zm-.886-.958q.349.16.552.551l-1.539 1.554 1.524 1.524q-.188.377-.566.551l-1.524-1.524-1.495 1.495q-.377-.232-.552-.566l1.496-1.48-1.568-1.568q.16-.377.566-.537l1.553 1.553 1.553-1.553zm-1.524 3.367l1.132 1.133q-.551.246-1.117.246t-1.147-.246l1.132-1.133zm-.029-4.427q-1.495 0-2.359.973-.863.972-.863 2.134 0 1.306 1.009 2.228 1.008.921 2.184.936 1.423-.015 2.315-.98.893-.965.893-2.184l-.014.029q.014-1.104-.879-2.12-.892-1.016-2.286-1.016zm8.185-8.014q.963 0 1.09 1.287.128 1.287.973 3.821l-4.067-.02q.727-2.514.884-3.801.157-1.287 1.12-1.287zm0 6.64q.51.787.55 1.651-.02.864-.55 1.65-.55-.786-.57-1.65.04-.864.57-1.65zm0-7.308q-1.454 0-1.768 1.62-.314 1.622-1.238 4.863h2.338q-1.71 2.476.648 5.423 2.456-2.947.688-5.423h2.318q-.923-3.241-1.237-4.862-.315-1.621-1.749-1.621zM135.885.662l-.415.945q.888.18 1.266 1.786l1.437-.369v.898l-1.4.397q.01 1.323-.254 2.486-.274 1.162-1.238 1.502-.482.166-.97.166-.486 0-.977-.166-.983-.34-1.248-1.502-.274-1.163-.246-2.486l-1.398-.397v-.898l1.427.369q.378-1.607 1.276-1.786l-.435-.945zM132.048 0q-.34 0-.047.662l.255.576q-.756.482-.945 1.333l-1.607-.482v2.39l1.513.436q0 1.36.387 2.721.397 1.361 2.694 1.664 2.296-.303 2.703-1.664.397-1.36.397-2.721l1.512-.435V2.089l-1.626.482q-.189-.85-.945-1.333l.255-.576q.303-.662-.047-.662zm1.687 11.167V18h1.144v-6.833zM149.732.607c1.19 0 2.25.55 2.941 1.41h-5.882a3.76 3.76 0 0 1 2.941-1.41zm3.34 2.017c.226.432.372.914.416 1.425h-7.512a3.75 3.75 0 0 1 .417-1.425zm.42 2.033a3.75 3.75 0 0 1-.395 1.425h-6.73a3.75 3.75 0 0 1-.395-1.425zm-.78 2.032a3.762 3.762 0 0 1-2.98 1.458c-1.212 0-2.29-.57-2.98-1.458zM149.731 0a4.383 4.383 0 0 0-4.377 4.377 4.383 4.383 0 0 0 4.377 4.378 4.383 4.383 0 0 0 4.377-4.378A4.383 4.383 0 0 0 149.732 0zm.001 14.1q3.108 0 6.59 1.501-3.482 1.46-6.59 1.46-3.087 0-6.59-1.46 3.503-1.501 6.59-1.501zm0-.96q-3.838 0-8.822 2.44 4.984 2.42 8.822 2.42 3.838 0 8.822-2.42-4.963-2.44-8.822-2.44zM166.28.887v2.365q-.522-.778-3.133-.778h-1.932V.887zm.03-.887q-1.064.197-3.163.197h-2.593v2.967h2.593q1.37 0 1.96.285.602.286 1.174.819l.03 13.255h1.142V0zm-5.756 10.874V18h1.193v-7.126zM175.18.887v2.365q-.523-.778-3.134-.778h-1.932V.887zm.03-.887q-1.065.197-3.164.197h-2.593v2.967h2.593q1.37 0 1.96.285.602.286 1.174.819l.03 13.255h1.142V0zm-5.757 10.874V18h1.193v-7.126zM184.079.887v2.365q-.523-.778-3.135-.778h-1.931V.887zm.03-.887q-1.065.197-3.165.197h-2.592v2.967h2.592q1.37 0 1.962.285.601.286 1.173.819l.03 13.255h1.142V0zm-5.757 10.874V18h1.193v-7.126z"/></svg>