<svg xmlns="http://www.w3.org/2000/svg" width="205.026" height="18"><path d="M18.058.568q-.111.037-.111.128t.07.146q.027.022.054.022.04 0 .077-.05.063-.081.021-.163-.041-.083-.11-.083zM2.67.47q-.153 0-.296.282.084.183.264.237.028.01.054.01.131 0 .224-.229 0-.255-.194-.292Q2.695.47 2.669.47zM1.665.787q-.042.128.027.238l-.583.073q-.014-.164.556-.31zm.568.436zm.105-.003q.12 0 .195.033.027.012 0 .012-.052 0-.288-.04.05-.005.093-.005zm2.564 1.252q.035 0 .097.068 1.125 1.223 2.792 2.865Q9.46 7.048 9.667 7.724 8.305 7.468 7.34 6.318q-.966-1.15-1.681-2.236-.716-1.086-.799-1.414-.017-.196.042-.196zm.046-.868q.202 0 .384.096 4.321 4.308 4.946 5.604.584 1.405.764 2.154-.076.11-.182.11-.087 0-.193-.074l-.57-1.515q-.43-1.296-2.104-2.875-1.674-1.579-2.424-2.5-.441-.542-.676-.542-.164 0-.227.268-.108.455-.38.455-.115 0-.26-.081.126-.858.542-1.022.198-.078.38-.078zm.357 6.43q.666 1.405.541 2.83-.125 0-.236.236-.045-.403-.277-.403-.051 0-.112.02.292-1.405.084-2.683zM2.827.346q.066 0 .116.013.25.063.292.237.029.122.058.122.013 0 .025-.022.042-.073.056-.164.305.53.041 1.57t.848 1.24q1.028 3.104 2.209 4.72 1.18 1.615.986 3.038-.449-.438-.993-.438-.113 0-.23.019.042-1.296-.472-2.556t-.945-1.889q-.43-.63-1.16-1.497-.73-.867-.722-1.789.007-.921.194-1.286.188-.365.181-.584-.003-.091-.027-.091-.035 0-.112.182-.132.31-.73.328l-.07.001q-.568 0-1.235-.274l.82.073q.404.11.601.11.162 0 .183-.074.049-.164-.076-.192-.125-.027-.257-.027t-.201.055l.026.052-.29-.052Q1.762.787 1.887.623q.028-.055.097-.055-.028.183.049.274.028.034.056.034.046 0 .09-.098.07-.155-.125-.228.511-.204.773-.204zm15.412.04q.375 0 .555.365.056.055.695.2v.056l-.695.073q-.597 0-.75-.12-.153-.118-.146-.273.007-.155.188-.155.18 0 .25.082t.035.173q-.035.092-.132.147h.028q.18 0 .187-.22.007-.237-.299-.273-.389 0-.291.374.092.357.854.357l.076-.001q.431-.037.765-.128L19.53.97q1.236 1.004 1.16 2.29-.077 1.288-.966 2.136-.889.85-1.584 1.871-1.083 1.734-1.167 2.72-.083.986.376.986.458 0 1.118-.721.66-.721 1.34-.74 1.82.055 1.612 2.209-.667-.93-1.5-.93-.417 0-1.14.474-1.097.766-1.667.766l-.472-.091q-.861-.84-.583-2.482.416-1.187 1.125-4.235.486-1.734.965-2.628.48-.895 1.022-.913.291 0 .944.365.027.01.047.01.094 0 .037-.21-.526-.429-1.226-.429-.225 0-.47.045-.208 0-.506-.146-.3-.146-.3-.694.251-.237.543-.237zM4.666 3.05q1.083 1.825 1.986 3.002.903 1.178 1.702 1.588.799.411 1.48.43.083.145 1.653 4.617l-.097.055-3.738-3.14q.028-.273-1.104-1.962-1.132-1.687-1.994-4.46l.112-.128zM8.5 10.918l2.07 1.66q.07.256-.5.348-.127.02-.233.02-.37 0-.49-.248-.152-.32-.389-.831-.236-.511-.458-.95zm7.071-.785q0 .767.167 1.332.43 1.004 1.153 1.023h.038q.711 0 1.699-.657.938-.625 1.365-.625.034 0 .066.004.416.055.903.566.486.51.514.894.05.311-.043.311-.06 0-.18-.128-.399-1.05-1.024-1.05h-.01q-.633.01-1.557.648-.923.639-2.153.639t-1.368-1.04q-.14-1.04.43-1.917zM5.277 11.192l.208.547q.195-.255.299-.3l.005-.002q.088 0-.304 1.543l-.583.238q-.153-.146.09-.904.243-.757.285-1.122zm14.763 1.14q.461 0 .727.502-.18.384-.847.603-.514 0-1.042-.566.685-.539 1.162-.539zm-1.607.758q.207.265.448.438h-1.883q.692-.095 1.435-.438zm-7.182 1.15q-1.554 2.935-4.48 3.011-2.913-.076-4.467-3.011zm11.239.018q-1.554 2.935-4.48 3.012-2.913-.077-4.48-3.012zM3.066.008q-.084 0-.179.013-.222 0-1.264.42-.834.255-.903.657l.028.62.417-.2q.68.292 1.139.292.458 0 .347.41-.111.411.028 1.37.139.958 1.097 1.934.959.977 1.188 2.556.23 1.578-.41 3.641l.209-.164q.004-.004.007-.004.046 0-.216.816-.277.867-.757.894-.084.005-.16.005-.348 0-.486-.105-.155-.12-.462-.12l-.045.001q-.34.01-.34.302v.182H1.33Q2.93 17.982 6.777 18q3.849-.018 5.446-4.472l-4.279.037q0-.165-.264-.356-.129-.094-.296-.094-.175 0-.391.103-.13.061-.278.061-.337 0-.771-.317.097-.639.236-1.14.139-.503.528-.594.036-.008.073-.008.362 0 .816.811.264-.675.153-1.825l.139.128q1.042 2.3 1.257 2.701.163.305.634.305.15 0 .331-.031.75-.128.737-.475l.639.42.486-.237-1.07-3.048q.264 0 .487-.292-.264-1.096-.82-2.446-.39-.822-.792-1.278Q8.681 4.603 7.5 3.39T5.763 1.518q-.373-.28-.775-.28-.226 0-.461.088-.653.246-.792 1.214-.042-.037.07-.73.11-.694-.05-1.287-.138-.514-.689-.514zM18.286 0q-.252 0-.478.094-.292.11-.347.42-.111.383.097.757.208.374.653.466-.89 1.058-1.514 3.741-.584 2.556-.973 3.779-1.042 1.113-1.035 2.236.007 1.122.424 1.597.301.343.878.438h-3.434q1.597 4.454 5.446 4.472 3.848-.018 5.445-4.472h-2.674q.153-.11.313-.256.156.245.354.245.083 0 .174-.044.347-.219.139-1.004.194-2.245-.459-2.865-.653-.621-1.473-.621-.75 0-1.625.849-.543.526-.743.526-.124 0-.118-.198.014-.52.611-1.761.403-.876 1.75-2.254 1.348-1.378 1.334-2.775-.014-1.396-.597-2.099-.584-.703-1.292-.794-.111-.2-.292-.328-.18-.128-.48-.146Q18.329 0 18.287 0zm9.444.644q-.461 0-.461.35 0 .294.462.294.448 0 .448-.294 0-.35-.448-.35zm.351-.196q1.064 0 1.596.686.266.434.518 1.33-.014.21-.35.28-.336.07-.658.07-1.484-.546-2.296-1.89.056-.476 1.19-.476zm2.534 2.1q.266.197 1.128.715.86.518 2.688 2.149 1.827 1.631 2.766 1.918.938.287 2.205.343 1.267.056 1.911.294 0 .197-.406.309-3.514-.407-5.16-.757-1.645-.35-2.43-.595-.783-.245-2.001-.93-1.219-.687-1.947-1.331-.728-.644-.952-1.008-.224-.364.553-.385.777-.021 1.26-.224t.385-.498zm10.74 5.49l.112.111q0 .113-.14.155l-.266-.014q.294-.126.294-.253zm.182.168l.112.14-.21-.014q.084-.07.098-.126zM26.737.994q.952 1.358 2.226 1.905-.162-.009-.305-.009-1.027 0-1.04.443 0 .7 2.388 2.408t5.622 2.212q1.4.182 1.569.547.028.266-1.33.336h-2.255q-.224-.49-.826-.897l.126.35q-2.24-1.288-3.928-2.849-1.687-1.561-1.701-2.71 0-.546-.546-1.372 0-.126-.756-.238v-.028l.756-.098zm10.978 7.38l3.878.686q-.406.168-.567.602-.16.434.035 1.05L37.043 9.13q.056-.014.266-.12.21-.104.37-.286.162-.182.036-.35zm-6.091-.267q1.512 1.009 1.484 1.317-.224.728-1.092 1.848-.462 0-.875-.098-.223-.053-.464-.053-.206 0-.426.04 1.443-2.045 1.443-2.13 0-.545-.084-.924zM28.067 0q-.742 0-1.113.203t-.4.54q-1.106.153-1.106.223v.28q.029.07.925.336.476.63.476 1.149 0 .98.714 1.932t3.066 3.122q.21 0 .435 1.247l-1.317 2.016q-.168.112-.448.126-.462-.154-1.47-.154-.32.098-.567.098-.176 0-.315-.049-.272-.096-.728-.096-.107 0-.224.005-.476.224-.084.616l7 .014-.223-.336q.434-.714 1.12-1.96h2.52l5.462 2.114.056-.196q-.589-.588-.49-1.33.21-.602 1.106-.798v-.196l-2.24-.406v-.014l2.1.14q0-.056-.357-.715-.358-.658-1.506-.658-1.876-.056-2.765-.182-.89-.126-3.396-2.422-2.506-2.297-3.585-2.549Q30.195 0 28.067 0zm5.888 14.24q2.996 0 6.355 1.447-3.359 1.408-6.355 1.408-2.976 0-6.355-1.408 3.379-1.448 6.355-1.448zm0-.926q-3.7 0-8.507 2.353Q30.255 18 33.955 18q3.7 0 8.507-2.333-4.787-2.353-8.507-2.353zM47.365.295c.128.088.119.136.106.189-.018.068-.225.114-.32.114-.026 0-.044-.004-.045-.012 0-.061.1-.22.26-.291zm-1.067 1.4c-.131 0-.197.07-.197.21 0 .177.079.265.237.265h.013c.185 0 .339-.07.462-.211v-.08c0-.061-.515-.184-.515-.184zM48.005.63c.193.156-.158.598-.367 1.048l-.072.154c.363-.23.552-.678.552-.678.088.14-.198.52-.11.633.096.343.49.757-.396 1.6-.115.07-1.432.773-1.538.773-.079 0-.136-.06-.33-.237l.396-.316v-.092l-.013-.014h-.08c-.13 0-.298.084-.5.25a3.68 3.68 0 0 1-.36-.429c.164-.13.23-.219.22-.339.025-.149-.075-.172-.152-.172-.036 0-.066.005-.077.005v.105c-.027.053-.084.097-.172.132-.035 0-.053-.119-.053-.119 0-.061.141-.255.422-.58.774-.95 1.371-1.433 1.881-1.433l.116.009c-.195.123-.106.33-.106.33.205-.18.537-.553.74-.63zm.537.64a.1.1 0 0 1 .003 0c1.336 1.283 1.54 2.156 1.547 5.082l-2.262.035-.032-2.353c0-.158.034-.348.175-.427.949-.733.468-1.845.406-1.969-.024-.28.086-.368.163-.368zM47.402 0c-.079 0-.253 0-.43.192-.158.171-.209.494-.514.605-.304.207-.506.424-.7.623-.773.844-1.032 1.138-1.04 1.306-.617.503.048.8.25.917.66.765.547.71.83.835.102.027.16.05.213.05.056 0 .104-.026.191-.103.097 0 1.134-.5 1.134-.5.114 0 .162.376.162 1.238-.01.592-.072 1.57-.004 1.57h.004l.027.039h2.993l.013-.014-.04-.87c-.06-1.09.381-3.827-2.152-5.24.03-.176-.113-.369-.292-.369-.09 0-.189.049-.28.172-.016-.213-.108-.434-.364-.451zm7.01.295c.128.088.119.136.105.189-.017.068-.225.114-.32.114-.026 0-.043-.004-.045-.012 0-.061.101-.22.26-.291zm-1.067 1.4c-.132 0-.198.07-.198.21 0 .177.08.265.238.265h.013c.184 0 .338-.07.461-.211v-.08c0-.061-.514-.184-.514-.184zM55.052.63c.192.156-.159.598-.367 1.048l-.072.154c.363-.23.552-.678.552-.678.088.14-.199.52-.11.633.096.343.49.757-.396 1.6-.115.07-1.433.773-1.538.773-.08 0-.136-.06-.33-.237l.396-.316v-.092l-.013-.014h-.08c-.131 0-.298.084-.5.25a3.68 3.68 0 0 1-.36-.429c.164-.13.23-.219.22-.339.024-.149-.076-.172-.153-.172-.035 0-.066.005-.077.005v.105c-.026.053-.083.097-.171.132-.035 0-.053-.119-.053-.119 0-.061.14-.255.422-.58.774-.95 1.37-1.433 1.88-1.433l.116.009c-.195.123-.105.33-.105.33.205-.18.537-.553.739-.63zm.536.64a.1.1 0 0 1 .004 0c1.336 1.283 1.539 2.156 1.546 5.082l-2.262.035-.032-2.353c0-.158.035-.348.176-.427.948-.733.468-1.845.405-1.969-.023-.28.087-.368.163-.368zM54.45 0c-.079 0-.254 0-.43.192-.158.171-.21.494-.514.605-.305.207-.507.424-.7.623-.773.844-1.032 1.138-1.041 1.306-.617.503.049.8.25.917.66.765.548.71.83.835.102.027.161.05.213.05.056 0 .105-.026.192-.103.096 0 1.133-.5 1.133-.5.115 0 .163.376.163 1.238-.01.592-.072 1.57-.004 1.57h.004l.026.039h2.994l.013-.014-.04-.87c-.061-1.09.38-3.827-2.153-5.24.03-.176-.112-.369-.291-.369-.09 0-.19.049-.281.172-.016-.213-.107-.434-.364-.451zm-3.429 9.533L49.482 7.98l-.556.496 1.57 1.579-1.579 1.568.523.527 1.578-1.57 1.569 1.579.526-.523-1.539-1.643 1.548-1.504-.523-.526-1.578 1.569zm3.998 4.55c.56.024.869.036 1.002.036h.06l-.073 2.933a4.304 4.304 0 0 1-1.116-.664l.127-2.305zm-8.185-.73c-.187.036-.435.15-.405.374v1.635a31.282 31.282 0 0 0-.845-.036c0 .205.17.483.695.483.006.465.09 1.032.175 1.322l.072.76c0 .085.145.109.302.109.187 0 .392-.036.392-.036l-.03-.76c2.982.023 8.668.174 8.951.174.145 0 .242-.157.242-.374l.072-3.277-1.793-.019-.144 2.554c-1.298.006-3.544.217-5.07.217-.483 0-.9-.018-1.184-.079-.06-.066-.621-.88-.977-.971a1.566 1.566 0 0 0-.212-.024c-.06-.495-.12-.99-.175-1.48.109-.138.356-.102.423-.289.066-.09.024-.241-.103-.247-.072-.03-.272-.037-.356-.037zM67.076 1.201v5.106l-2.443-.06V1.2zm4.085.05v5.056l-2.423.01V1.251zM67.126 7.92v8.64h-2.493V7.95l2.493-.03zm4.035 0v8.64l-2.383.02V7.92zM60.559 0l-.02 1.151 2.433.01-.01 5.116c-2.483.04-3.404.04-3.384 1.281v6.508h1.451V7.939h1.933l.02 8.69h-2.603l.01 1.371h15.026l-.01-1.412h-2.642v-8.63h1.952v6.138l1.441.02V7.578c-.02-1.12-.57-1.241-2.573-1.241h-.82l.01-5.166h2.592V0zM85.23.705l2.684 3.798H78.86V.705zm2.684 0l2.684 3.798h-1.775L86.163.705zm9.052 0v3.798h-5.459L88.823.705zM78.156 0v5.186h19.515V0zm16.393 14.209q-.402.401-.402 1.472 0 1.092.402 1.494H81.3q.401-.402.401-1.494 0-1.071-.401-1.472zm-15.813-.826q-.58 0-.557.38-.023.446.557.446h1.45q.535.401.535 1.472 0 1.092-.535 1.494h-1.428q-.602 0-.602.379 0 .446.58.446h18.377q.558 0 .558-.446 0-.38-.58-.38h-1.427q-.535-.4-.535-1.493 0-1.071.535-1.472h1.45q.557 0 .557-.446 0-.38-.558-.38zM102.18.696q.927 0 .927 1.222 0 1.075-.928 2.129-.927-1.054-.927-2.129 0-1.222.927-1.222zm0 4.7q.653 0 .653 1.412 0 .8-.654 1.475-.653-.674-.653-1.475 0-1.412.653-1.412zm0 4.257q.653 0 .653 1.413 0 .8-.654 1.475-.653-.674-.653-1.475 0-1.413.653-1.413zm0-9.653q-1.687 0-1.687 1.918-.021 1.201.559 1.886.58.685.516.917-.738.864-.738 2.087 0 1.012.864 2.17-.864.865-.864 2.088 0 1.011.864 2.15.106.273-.59 1.285-.695 1.012-1.433 3.499h.927q.464-1.644.822-2.35.359-.706.76-1.149.42.443.769 1.149.347.706.811 2.35h.949q-.696-2.487-1.423-3.499-.727-1.012-.6-1.286.842-1.138.842-2.15 0-1.222-.8-2.086.8-1.16.8-2.171 0-1.223-.716-2.087-.064-.232.505-.917.57-.685.57-1.886 0-1.918-1.708-1.918zm8.75 7.938c-.681.054-1.058.394-1.13 1.022.09.68.467 1.04 1.13 1.075.663-.036 1.013-.394 1.049-1.075-.054-.628-.404-.968-1.049-1.022zm.08-2.259c.485 0 .933.09 1.345.27a3.545 3.545 0 0 1 1.828 1.815c.18.402.27.828.27 1.276 0 .466-.09.901-.27 1.304a3.422 3.422 0 0 1-3.173 2.03c-.483 0-.936-.085-1.357-.255a3.235 3.235 0 0 1-1.09-.712 3.495 3.495 0 0 1-.725-1.063 3.174 3.174 0 0 1-.269-1.304c0-.448.09-.874.269-1.277a3.67 3.67 0 0 1 .726-1.075c.305-.314.668-.56 1.089-.74.421-.18.874-.269 1.358-.269zm-.053-.914c-.592 0-1.147.112-1.667.336-.52.224-.968.529-1.345.914a4.48 4.48 0 0 0-.9 1.345 4.071 4.071 0 0 0-.336 1.653c0 .592.112 1.143.336 1.654.224.511.524.955.9 1.331a4.267 4.267 0 0 0 3.012 1.237c.592 0 1.143-.112 1.654-.336a4.48 4.48 0 0 0 1.344-.9c.386-.377.69-.821.914-1.332a4.07 4.07 0 0 0 .336-1.654c0-.591-.112-1.142-.336-1.653a4.358 4.358 0 0 0-2.258-2.259 4.071 4.071 0 0 0-1.654-.336zm8.757-4.069q.927 0 .927 1.222 0 1.075-.927 2.129-.928-1.054-.928-2.129 0-1.222.928-1.222zm0 4.7q.653 0 .653 1.412 0 .8-.653 1.475-.654-.674-.654-1.475 0-1.412.654-1.412zm0 4.257q.653 0 .653 1.413 0 .8-.653 1.475-.654-.674-.654-1.475 0-1.413.654-1.413zm0-9.653q-1.686 0-1.686 1.918-.022 1.201.558 1.886.58.685.516.917-.737.864-.737 2.087 0 1.012.864 2.17-.864.865-.864 2.088 0 1.011.864 2.15.105.273-.59 1.285-.696 1.012-1.434 3.499h.928q.464-1.644.822-2.35.358-.706.759-1.149.421.443.769 1.149.348.706.811 2.35h.949q-.696-2.487-1.423-3.499-.727-1.012-.6-1.286.843-1.138.843-2.15 0-1.222-.801-2.086.8-1.16.8-2.171 0-1.223-.716-2.087-.063-.232.506-.917t.569-1.886q0-1.918-1.707-1.918zm6.274 0c-.93 0-1.745.684-1.745 1.562V18h1.136V1.562c0-.43.378-.57.616-.57.25 0 .634.175.634.703v10.804h1.136V1.695c0-.88-.87-1.695-1.777-1.695zm6.982 3.182q.24 0 .278.296l.407 3.681q.314 2.535.37 4.847 0 1.591-.232 2.525-.23.935-.804.935-.574 0-.823-.935-.25-.934-.232-2.525.037-2.312.352-4.847l.407-3.681q.037-.296.277-.296zM130.177 0q-.777.388-.093.814 2.257 1.313 1.98 2.793l-.426 3.552q-.296 2.535-.425 4.847 0 2.257.425 3.302.426 1.046 1.332 1.046.907 0 1.332-1.046.426-1.045.426-3.302-.13-2.312-.426-4.847l-.388-3.404Q133.322.721 130.177 0zm.025 15.982q-.318 0-.377.446.389 1.369 3.164 1.572 2.775-.203 3.07-1.572 0-.438-.287-.438-.173 0-.452.16-.555.629-2.331.925-1.776-.296-2.331-.943-.272-.15-.456-.15zM138.06 0v8.975h.75V.767h7.946v7.407l-3.067.017-.018-5.037h-.784v5.821h4.636V0zm6.628 11.536v5.68h-3.811v-5.68zm-4.595-.802V18h5.396v-7.266zM158.914.79c2.034 0 4 .568 5.9 1.705a8.739 8.739 0 0 0-1.493 1.458c-2.23-.822-3.76-1.27-5.467-1.27-1.3 0-2.704.26-4.599.813-.479.137-.893.205-1.244.205-.73 0-1.182-.297-1.356-.89-.199-.703.035-1.148.703-1.335.128-.035.249-.053.362-.053.493 0 .835.334 1.026 1.001 2.12-1.089 4.176-1.634 6.168-1.634zm.334-.79c-1.914 0-3.93.44-6.046 1.318-.165-.554-.554-.83-1.168-.83a3.25 3.25 0 0 0-.887.144c-1.335.375-1.821 1.2-1.458 2.477.288 1.013 1.001 1.52 2.14 1.52.481 0 1.039-.091 1.672-.272a12.248 12.248 0 0 1 4.036-.696c3.091 0 6.226 1.21 9.403 3.63l.755-1.107-3.25-1.915c.445-.527 1.107-1.154 1.985-1.88C164.22.796 161.825 0 159.248 0zm-9.725 10.67V18h1.225v-7.33zm8.423.01V18h1.225v-7.32zm8.575 0V18h1.225v-7.32zM173.256.591c.673 0 1.128.1 1.508.529.522.52.621 1.29.572 1.992-.01 1.612-.294 3.21-.766 4.75-.369 1.266-.811 2.51-1.214 3.766h-.196c-.017-.062-1.925-5.289-2.01-8-.015-.79-.129-1.684.412-2.341.334-.459 1.01-.696 1.694-.696zm.416 11.625v.684c0 .124.078.234.194.276.171.062.328.172.49.304h-2.39a1.69 1.69 0 0 1 .489-.304.294.294 0 0 0 .194-.276v-.684zm1.644 2.477c.06.121.07.367.054.538h-4.375a2.059 2.059 0 0 1-.023-.538zm-.465 1.819c-.317.471-.951.9-1.618.9-.721 0-1.422-.417-1.761-.9zM173.287 0c-1.275 0-2.737.735-2.737 2.246-.073.922.019 1.85.115 2.768.289 2.285 1.15 4.436 1.859 6.614h-.017c-.094 0-.446.01-.446.294v.784c-.402.198-.682.5-.955.723h-.875a.294.294 0 0 0-.295.294v.792c0 .157.184.287.342.293.07.133.083.252.1.375l-.329-.01h-.004a.307.307 0 0 0-.299.294v.76c0 .163.132.295.294.295.205 0 .675.01.757.01h.01c.368.843 1.355 1.468 2.426 1.468 1.04 0 1.944-.67 2.284-1.478h.764c.275 0 .293-.192.293-.294v-.761c0-.128.056-.285-.59-.285a1.48 1.48 0 0 0-.016-.368c.284-.017.416-.142.416-.3v-.791a.294.294 0 0 0-.294-.294h-.876c-.272-.222-.552-.525-.954-.723v-.784c0-.16-.128-.29-.287-.293.006-.037 1.839-5.082 1.93-7.732.07-.998.168-2.12-.5-2.956-.416-.573-.853-.941-2.116-.941zm9.612.498q.102 0 .22.04.314.108.224.395-.09.287-.367.35-.056.013-.114.013-.23 0-.488-.201.018-.305.225-.485.129-.112.3-.112zm3.872 3.558q1.561.09 4.244 1.66 2.683 1.57 3.886 2.485-1.418-.502-2.495-.502-3.32 0-4.72-.817-1.4-.816-1.39-1.184.009-.368.152-.368 1.346 0 1.49-.628l-.341-.108q-.262.315-.957.315h-.056q-.71 0-.71.744 0 .754 1.525 1.588 1.526.835 3.751.835 1.31 0 2.1.386.79.385 1.112.673l-1.076.197q-.252-.485-2.549-.485-1.364 0-1.974-.771h-.359q.97.807.951 1.49-.009.345-.057.345-.047 0-.131-.328-.17-.664-1.857-1.023-.041.525-.124.525-.097 0-.253-.74-.198-.503-1.777-1.49-1.58-.987-1.615-1.274-.036-.287 1.014-.906 1.05-.62 2.216-.62zm-7.164 3.993q.169 0 .345.152.34.27-.108.682-.449.449-.054 1.005l1.346 1.992q-.502.252-.736.826l-1.005-2.692q-.52-1.328-.233-1.687.216-.278.445-.278zm8.026.87q.807.234 1.094.844.539 1.471.557 2.656.018 1.184-.88 1.274-1.49 0-1.471.538h-1.687q2.171-4.02 2.387-5.312zm-6.174 6.048l-2.046 2.064v-2.064zM183.218 0q-.628 0-1.167.395-.448.484-.718.628-1.866 1.202-2.279 2.423 0 .384.165.384.066 0 .158-.061.844-1.49 2.333-1.938.417.115.737.115.176 0 .322-.035.252-.06.441-.06.12 0 .214.024.242.063-.063.745-.305.682-.574 1.651-.27.97.198 1.508.825.753 3.23 2.333.395.377.359.7-.036 1.471-.844 3.248-.747 1.644-1.648 1.644-.073 0-.146-.011-1.275 0-1.436.538h-1.454l-.25-.628q-.073-.143.017-.502.18-.575.987-1.13l-1.58-2.298q-.197-.287.162-.718.467-.628-.125-1.095-.349-.294-.678-.294-.432 0-.83.51-.448.574.251 2.44l1.418 3.715-1.74.018V18h.735l2.943-3.033h10.391v-.736h-2.925q-.018-.448.135-.7.152-.25.053-.556-.098-.305-.143-1.355-.045-1.05-.135-2.396h2.228q.349 0 1.308.593l1.938-.341q-.574-.826-1.938-1.364.233.054 1.669.556.466-.018.34-.52-.179-.323-.753-.772-5.707-3.733-7.77-3.733-1.562 0-2.415.574-.164.111-.261.111-.404 0 .378-1.932Q185.426 0 183.218 0zm15.516.589c.06 0 .077.012.09.027a.455.455 0 0 1 .07.195c.025.122.039.26.059.39.026.167.062.327.129.462.079.16.153.329.232.501h-1.16c.08-.172.154-.341.232-.501a1.61 1.61 0 0 0 .13-.461c.02-.132.033-.269.058-.391a.455.455 0 0 1 .07-.195c.013-.015.03-.027.09-.027zm.662 2.164c-.417.992-.538 2.236-.55 3.319-.017 1.302.137 2.597.287 3.892.148 1.27.293 2.538.263 3.812-.015.64-.17 1.6-.367 2.393a6.939 6.939 0 0 1-.314.994 2.318 2.318 0 0 1-.048.106 2.29 2.29 0 0 1-.037-.094c-.094-.25-.184-.6-.264-.993-.162-.798-.278-1.761-.294-2.406-.03-1.274.115-2.543.263-3.812.15-1.295.304-2.59.288-3.892-.013-1.083-.134-2.327-.551-3.319zm-.73 14.516zm-.103.169zm.197.003zM198.734 0a.676.676 0 0 0-.542.239c-.1.12-.159.278-.195.453-.027.133-.042.278-.064.42-.016.106-.035.21-.075.29-.151.308-.284.653-.473.982l-.082.142.078.144c.512.954.64 2.284.653 3.409.016 1.277-.136 2.547-.284 3.817-.15 1.297-.297 2.592-.266 3.894.016.68.136 1.677.305 2.51.086.422.185.804.289 1.082.058.155.12.283.185.377.043.063.09.113.14.152a.42.42 0 0 0 .255.089c.088 0 .174-.03.251-.086a.692.692 0 0 0 .144-.146c.07-.093.138-.22.204-.373a7.4 7.4 0 0 0 .343-1.083c.21-.836.369-1.838.385-2.522.03-1.302-.116-2.597-.267-3.894-.147-1.27-.3-2.54-.284-3.817.014-1.125.141-2.455.653-3.409l.078-.144-.082-.142c-.189-.329-.321-.674-.473-.981a1.035 1.035 0 0 1-.075-.291c-.022-.142-.037-.287-.064-.42a1.021 1.021 0 0 0-.195-.453.676.676 0 0 0-.542-.239zm4.862.589c.06 0 .076.012.09.027a.455.455 0 0 1 .07.195c.025.122.038.26.058.39.026.167.063.327.13.462.078.16.152.329.231.501h-1.159c.08-.172.153-.341.232-.501a1.61 1.61 0 0 0 .129-.461c.02-.132.034-.269.059-.391a.455.455 0 0 1 .07-.195c.013-.015.029-.027.09-.027zm.662 2.164c-.417.992-.538 2.236-.551 3.319-.016 1.302.137 2.597.288 3.892.147 1.27.292 2.538.262 3.812-.015.64-.169 1.6-.367 2.393a6.939 6.939 0 0 1-.313.994 2.318 2.318 0 0 1-.049.106 2.29 2.29 0 0 1-.037-.094c-.094-.25-.184-.6-.263-.993-.162-.798-.279-1.761-.294-2.406-.03-1.274.115-2.543.262-3.812.151-1.295.304-2.59.289-3.892-.014-1.083-.134-2.327-.552-3.319zm-.73 14.516zm-.104.169zm.197.003zM203.596 0a.676.676 0 0 0-.542.239c-.1.12-.16.278-.195.453-.027.133-.042.278-.064.42-.017.106-.036.21-.076.29-.15.308-.283.653-.472.982l-.082.142.077.144c.513.954.64 2.284.654 3.409.015 1.277-.137 2.547-.285 3.817-.15 1.297-.297 2.592-.266 3.894.016.68.137 1.677.305 2.51.086.422.185.804.29 1.082.058.155.12.283.184.377a.67.67 0 0 0 .141.152.42.42 0 0 0 .254.089c.088 0 .175-.03.252-.086a.692.692 0 0 0 .144-.146 1.91 1.91 0 0 0 .203-.373c.12-.279.238-.66.344-1.083.209-.836.368-1.838.384-2.522.03-1.302-.115-2.597-.266-3.894-.148-1.27-.3-2.54-.284-3.817.013-1.125.14-2.455.653-3.409l.077-.144-.081-.142c-.19-.329-.322-.674-.473-.981a1.035 1.035 0 0 1-.075-.291c-.022-.142-.037-.287-.065-.42a1.021 1.021 0 0 0-.194-.453.676.676 0 0 0-.542-.239z"/></svg>