<svg xmlns="http://www.w3.org/2000/svg" width="205.33" height="18"><path d="M3.73.474c.693 0 1.247.2 1.634.479.006.053.02.107.009.16-.05.248-.195.477-.396.63-.316.207-.697.267-1.057.356-.09.01-.019.031.031.04.23.04.707.099.971.099l.052-.001c.278-.032.54-.148.766-.311.079-.067.147-.15.205-.236.147.346.227.713.26.917.018.11.096.2.202.233 1.139.349 2.038 1.91 2.88 2.949 1.729 2.137 3.199 4.526 4.892 6.76-.937-.456-1.87-.916-2.81-1.374-1.92-1.01-3.92-1.816-5.604-3.09l-.008-.008c-.97-.808-1.963-1.66-2.339-2.793-.148-.92 1.757-2.577 1.542-2.646a.207.207 0 0 0-.064-.01c-.458 0-1.753 1.128-2.019 2.202-.003-.014-.01-.03-.014-.045-.073-.356-.154-1.256.068-1.98a.29.29 0 0 0 .01-.103 1.968 1.968 0 0 0-.123-.634c-.063-.17-.139-.344-.26-.765-.031-.108-.142-.328-.208-.345.186-.138.375-.28.645-.375a.434.434 0 0 0-.132.314c0 .23.164.415.365.415.2 0 .364-.186.364-.415V.894a.411.411 0 0 0-.255-.39c.053-.007.096-.019.154-.022.081-.006.16-.008.238-.008zm.67 7.763c.065.065.135.124.202.187.214.78.412 1.64.692 2.305.483 1.145 1.216 2.141 1.84 3.154a1.814 1.814 0 0 0-.385.27 6.831 6.831 0 0 0-.199.193 2.61 2.61 0 0 0-1.186-.897c.045-.723-.108-1.712-.34-2.787A34.903 34.903 0 0 0 4.4 8.237zm1.006.908c1.149.945 2.428 1.738 3.676 2.54-.018.91-.018 1.778.084 2.675a3.411 3.411 0 0 0-1.437-.736c-.02 0-.037.012-.057.012-.649-1.063-1.383-2.06-1.837-3.134-.156-.37-.293-.85-.429-1.357zm.407 5.254a2.5 2.5 0 0 1 .44.541.3.3 0 0 0 .257.14.29.29 0 0 0 .17-.053c.215-.156.347-.324.476-.446.047-.045.097-.08.148-.117l.149 2.722c-.213-.014-.435-.035-.637-.035-.264 0-.495.036-.633.172-.169-.134-.497-.164-.89-.164-.102 0-.207.002-.316.004l.836-2.764zM6.97 9.574c1.354.787 2.784 1.414 4.135 2.125a.244.244 0 0 0 .006.003c1.295.631 2.586 1.28 3.894 1.904.984 1.189 2.052 2.295 3.078 3.42l-2.15.362-4.267-4.635a.288.288 0 0 0-.037-.036c-1.499-1.137-3.152-2.082-4.66-3.143zM3.796 0c-.135 0-.273.005-.411.013C2.3.083 1.512.54 1.243 1.157c-.04.093-.146.314-.007.314a2.35 2.35 0 0 1 .341-.028c.418 0 .38.172.47.194.09.282.29.846.303 1.068-.244.86-.153 1.763-.064 2.198.15.732.63 1.584 1.261 2.38a.285.285 0 0 0 0 .166 35.3 35.3 0 0 1 .903 3.336c.251 1.168.393 2.277.317 2.823a.294.294 0 0 0 .221.328c.045.011.084.031.127.045l-.928 3.079a2.847 2.847 0 0 0-.593-.055c-.381 0-.756.05-1.064.05-.125 0-.24-.008-.34-.032a.546.546 0 0 0-.125-.012c-.436 0-1.428.306-1.34.879.15-.128.257-.159.375-.159.11 0 .23.027.405.027h.027c.254-.004.697-.083 1.053-.083.18 0 .338.02.438.08.236-.01.45-.013.649-.013.85 0 1.447.07 2.5.075a89.565 89.565 0 0 0 2.974-.079c.45.003.697.054.922.054h.04c.134-.004.265-.057.48-.057.123 0 .273.017.468.07-.25-.341-.877-.685-1.33-.685a.591.591 0 0 0-.302.071 5.081 5.081 0 0 0-.508-.022c-.22 0-.448.01-.678.02l-.157-2.83c.487.203.857.517 1.281 1.021a.295.295 0 0 0 .513-.246c-.192-1.039-.213-2.019-.202-3.06.54.354 1.072.713 1.576 1.094l4.36 4.738a.29.29 0 0 0 .263.09c.95-.159 1.9-.315 2.849-.474a.294.294 0 0 0 .23-.193.298.298 0 0 0-.06-.297c-.741-.83-1.508-1.631-2.25-2.445 1.269.78 2.875 1.755 3.08 1.755.022 0 .027-.013.012-.04-.094-.163-.9-.755-1.775-1.373.14.058.276.12.415.177l.017.01c.103.035.16.059.27.062a.286.286 0 0 0 .108-.016.317.317 0 0 0 .188-.152.32.32 0 0 0 .023-.238c-.017-.05-.038-.077-.054-.098-.061-.085-.103-.109-.162-.154a4.553 4.553 0 0 0-.205-.149c-.153-.105-.336-.223-.493-.328a4.992 4.992 0 0 1-.328-.233.307.307 0 0 0-.028-.025l-3.892-2.736c-.008-.006-.02-.001-.028-.006-1.333-1.869-2.588-3.825-4.046-5.627C9 4.496 8.145 2.888 6.758 2.352 6.69 1.956 6.54 1.225 6.003.703 5.547.26 4.888.056 4.147.011A5.728 5.728 0 0 0 3.796 0zm13.74 2.229c-.478 0-.799.277-.793.718.007.478.328.755.793.755.466 0 .744-.278.737-.755-.006-.442-.283-.718-.737-.718zm.055-1.594c.315 0 .63.066.946.196.606.25 1.015.685 1.285 1.275.274.601.255 1.21 0 1.813-.255.6-.69.995-1.285 1.247a2.343 2.343 0 0 1-.923.189 2.74 2.74 0 0 1-.975-.19c-.603-.229-1.003-.672-1.274-1.246a2.13 2.13 0 0 1-.19-.916c0-.634.277-1.196.7-1.652.208-.226.467-.398.764-.52.32-.13.636-.196.951-.196zM17.516 0c-.833 0-1.488.289-2.076.878-.602.603-.857 1.26-.869 2.106-.006.49.093.921.292 1.313.158.773.167 2.065-.043 2.065-.366 0-.156-.97-.174-1.274-.03-.515-.335-.954-.696-1.302-.084-.08-.175-.17-.296-.183a3.318 3.318 0 0 0-.349-.023c-.136 0-.27.015-.396.06-.089.033-.092.16-.063.242.03.085.088.175.186.187.025.003.05.004.074.004.12 0 .24-.03.36-.03h.015c.05 0 .107.004.143.04-.081.152-.193.3-.21.478a.465.465 0 0 0 .016.208c.236.652.38 2.15 1.357 2.15.185 0 .274-.04.333-.094.434-.403.44-1.086.414-1.652.574.54 1.221.765 2.021.776h.047c.819 0 1.472-.303 2.06-.868.159-.154.294-.311.406-.476.027.56.054 1.124.26 1.65.161.415.522.717.91.922.03.016.051.023.066.023.048 0 .019-.074-.036-.127a2.354 2.354 0 0 1-.574-.87c-.208-.57-.187-1.184-.174-1.78.008-.364.024-.73.003-1.093h-.003c.012-.112.018-.227.02-.346.01-.853-.287-1.503-.879-2.106-.6-.61-1.255-.869-2.106-.878h-.039zm8.319.696q.927 0 .927 1.222 0 1.075-.927 2.129-.928-1.054-.928-2.129 0-1.222.928-1.222zm0 4.7q.653 0 .653 1.412 0 .8-.653 1.475-.654-.674-.654-1.475 0-1.412.654-1.412zm0 4.257q.653 0 .653 1.413 0 .8-.653 1.475-.654-.674-.654-1.475 0-1.413.654-1.413zm0-9.653q-1.687 0-1.687 1.918-.02 1.201.559 1.886.58.685.516.917-.737.864-.737 2.087 0 1.012.864 2.17-.864.865-.864 2.088 0 1.011.864 2.15.105.273-.59 1.285-.696 1.012-1.434 3.499h.928q.464-1.644.822-2.35.358-.706.759-1.149.421.443.769 1.149.348.706.811 2.35h.949q-.696-2.487-1.423-3.499-.727-1.012-.6-1.286.843-1.138.843-2.15 0-1.222-.801-2.086.8-1.16.8-2.171 0-1.223-.716-2.087-.063-.232.506-.917t.569-1.886Q27.542 0 25.835 0zm21.874 1.012c.307.436.381.974.408 1.492-.012.245.007.51-.095.74-.287-.285-.262-.945-.268-1.315a7.27 7.27 0 0 0-.045-.917zM31.332.602l14.945.016c-2.183 2.07-4.372 3.08-7.672 3.08-3.313 0-5.318-.986-7.273-3.096zM30.662 0a.3.3 0 0 0-.229.496C32.605 3.03 34.91 4.3 38.605 4.3c3.598 0 6.056-1.22 8.426-3.576.082.226.122.581.122 1.205.015.694.01 1.844.92 1.925.64-.132.64-.817.644-1.35 0-.655-.16-1.249-.427-1.7-.268-.451-.664-.787-1.143-.787L30.662 0zm10.373 10.562v.563h-2.971v-.563zm-1.494 1.108q1.864 0 2.576.95.712.949.712 1.705-.018 1.178-.985 2.057-.967.88-2.303.88-1.354 0-2.321-.88-.968-.879-.968-2.04 0-.773.58-1.723.581-.95 2.709-.95zM37.22 9.982V11.3q-.633.37-1.161 1.196-.528.827-.545 1.829 0 1.178.976 2.383.976 1.204 3.05 1.292 2.058-.088 3.043-1.292.984-1.205.984-2.365-.017-1.02-.545-1.856-.527-.835-1.178-1.204V9.982zM63.381.911v2.623q-.57-.801-3.263-.801h-1.602V.911zm6.958 0v2.623q-.57-.801-3.263-.801h-1.602V.911zm-13.915 0v2.643q-.57-.821-3.264-.821h-1.602V.911zM63.38 0q-1.1.18-3.263.18h-2.443v3.264h2.413q1.421 0 2.042.3.63.29 1.041.841v6.477q.02 3.835-.34 6.908h1.572q0-3.073-.11-6.908V0zm6.958 0q-1.101.18-3.263.18h-2.443v3.264h2.413q1.421 0 2.042.3.63.29 1.04.841v6.477q.021 3.835-.11 6.908h1.553q-.21-3.073-.32-6.908V0zM56.424 0q-1.102.21-3.264.21h-2.443v3.254h2.423q1.412 0 2.032.3.631.3 1.041.841v6.457q.02 3.855-.34 6.938l1.572-.03q0-3.053-.11-6.908V0zm21.185.887q-.453 0-.453.49 0 .454.453.454t.453-.453q0-.49-.453-.49zm.188-.264q1.057.113 1.057.981-.113.906-.868 1.057-.755.15-1.547.32-.476.103-.992.103-.344 0-.706-.046l1.358-.302q1.812-.15 1.812-.377 0-.189-.264-.189-.227 0-.51.095l-.396.132.037.113q.403-.134.657-.134.031 0 .06.002.265.019-1.396.245l-.49-.83q0-.189.15-.226.038.49.246.566.06.021.101.021.106 0 .106-.135.038-.264-.264-.528 1.51-.868 1.85-.868zm1.472.566q.868 0 .302 1.83-.566 1.83.208 2.586.774.755 1.604.773h.042q.79 0 .864-.698-.21.04-.367.04-.583 0-.464-.55.112-.516.627-.516.18 0 .411.064.887.245.434 1.528t-1.434 1.34q-.068.004-.137.004-.914 0-1.844-.702-1-.755-.868-2.189.132-1.434.34-2.076.207-.641.282-1.434zM78.92 0q-.511 0-1.197.132-.415 0-2.906 1.435-1.245.415-1.245 1.434v1.094l.943-.68q.82.083 1.455.083.826 0 1.338-.139.226-.061.388-.061.485 0 .386.552-.133.736 0 1.868.132 1.132 1.132 1.85.974.698 2.092.698h.059q1.151-.02 1.83-1.19.68-1.17.359-2.132-.32-.962-1.415-.981h-.027q-1.072 0-1.445 1.529-.944-.642-.434-2.322.51-1.679.075-2.566Q80.012 0 78.92 0zm-5.046 10.65V18h.735v-7.35zm4.37 0V18h.735v-7.35zm4.37 0V18h.736v-7.35zm5.931-7.934q-.205.205 0 .38l-.584-.222.584-.158zm3.158-.016l.569.174-.569.221q.206-.174 0-.395zm-2.763-.016l.474.348-.506.095q.19-.174.032-.443zm2.369-.015q-.158.284.031.458l-.505-.095.474-.363zm.066-.13q-.165 0-.264.05-.34.174-.466.506.284.157.635.157.567 0 1.308-.41-.808-.303-1.213-.303zm-2.494.002q-.408 0-1.236.317.74.404 1.305.404.363 0 .653-.167-.126-.332-.466-.505-.095-.05-.256-.05zm-2.52-.754q-.092 0-.208.108-.324.3.529 1.721l.158-.11-.253-.616.016-.506-.205-.031q.063.079.07.347.009.269.277.758l-.047.048q-.11-.206-.348-.735-.237-.529-.087-.734.058-.078.116-.078.095 0 .192.204l.048-.031q-.091-.345-.257-.345zm7.524 0q-.17 0-.27.345l.047.031q.097-.204.195-.204.06 0 .12.078.158.205-.079.734-.236.53-.363.735l-.047-.048q.268-.49.276-.758.008-.268.071-.347l-.19.031.017.506-.253.616.142.11q.869-1.421.545-1.721-.116-.108-.211-.108zm-7.423-.218q.136 0 .18.192.087.37.064.616-.017.176.175.176.074 0 .18-.026-.41.458-.032.837.095.52-.173.536h-.01q-.266 0-.701-.9-.442-.916-.016-1.263.206-.168.333-.168zm7.325 0q.126 0 .332.168.427.347-.023 1.263-.443.9-.702.9h-.009q-.26-.015-.166-.536.364-.38-.031-.837.101.026.173.026.186 0 .174-.176-.016-.245.071-.616.045-.192.18-.192zm-2.418.33q-.098 0-.187.02-.552.118-.742.513-.174.537-.166 1.192.008.655.364.774.355.118.244.245-.06.07-.146.07-.069 0-.154-.047-.072-.039-.137-.039-.104 0-.186.102-.068.083-.137.083t-.14-.083q-.088-.102-.19-.102-.064 0-.133.04-.082.045-.15.045-.085 0-.15-.07-.119-.126.236-.244.356-.119.364-.766.007-.647-.15-1.2-.158-.395-.687-.513-.084-.02-.179-.02-.505 0-1.33.533l-.031.237q.777-.484 1.35-.484.38 0 .671.215.332 1.232-.047 1.8-.648.158-.442.522.12.214.335.214.15 0 .344-.104.166.205.327.205.162 0 .32-.205.201.104.354.104.22 0 .341-.214.205-.364-.458-.522-.3-.568-.032-1.8.303-.225.693-.225.57 0 1.329.478l-.048-.237q-.741-.516-1.25-.516zm-.836 3.42q.177 0 .444.097-.451.15-.916.15-.413 0-.837-.118.306-.124.499-.124.126 0 .204.053.099.067.195.067.097 0 .192-.067.082-.059.219-.059zm-1.309.255q.45.166.928.166.478 0 .983-.166-.521.348-1.01.371l-.056.002q-.457 0-.845-.373zm.537-.458q-.379.08-.853.348.427.52.837.616.17.039.351.039.256 0 .534-.079.473-.134.694-.592-.505-.253-.836-.316l-.364.142-.363-.158zm1.563-3.884q.695.663 1.674 1.263.174.458.08.6-.095.142-.19.837-.49 1.105-.908 1.816-.419.71-.869 1.003-.196.127-.408.127-.275 0-.579-.214-.363.249-.634.249-.142 0-.258-.068-.34-.197-.9-.868t-.987-2.045q-.095-.695-.181-.83-.087-.133.07-.607 1.39-.616 1.674-1.232.59.245 1.176.245.622 0 1.24-.276zm-1.2 5.748q.414.288.738.288.084 0 .162-.02l.316 2.069h-2.463l.347-2.069q.079.02.163.02.324 0 .737-.288zm0-6.98q-2.51 0-3.19 2.242.064-.679-.331-.876-.096-.048-.194-.048-.306 0-.635.466-.434.616.671 2.195.202.435.411.435h.007q.214-.008.293-.214.442 1.864 1.768 2.764l-.442 2.653h3.221l-.379-2.653q1.011-.932 1.77-2.764.078.206.291.214h.008q.209 0 .41-.435 1.106-1.579.664-2.195-.335-.466-.638-.466-.097 0-.191.048-.387.197-.308.876Q92.635 0 90.124 0zm-.552 11.416V18h1.101v-6.584zm8.786-8.703q-.112 0-.217.034-.412.133-.363.4.04.224.368.224.059 0 .128-.007.448-.048.786-.363-.378-.288-.702-.288zm.21-.245q.873 0 2.694 1.041.914.473 2.004.473.527 0 1.094-.11 1.427-.29 3-.508.535-.074 1.035-.074.974 0 1.82.28 1.283.423 2.13.544.847.121 2.686.218-1.186.12-2.323.12t-2.686-.253q-.774-.127-1.491-.127-.717 0-1.376.127-1.32.254-3 .472-.421.054-.827.054-1.219 0-2.308-.49-1.057-.722-2.196-.722-.503 0-1.022.141-.46-.024-.411-.508.266-.653 1.137-.677l.04-.001zM99.213 0q-.523 0-.976 1.597-.38-1.41-.978-1.41-.09 0-.184.031-.726.46.484 1.767-.968.556-.968 1.403t1.428.944q.441-.116.862-.116.987 0 1.86.636.748.545 2.371.545 1.082 0 2.553-.242 1.807-.51 3.513-.51.647 0 1.279.074 1.58.183 2.692.183.505 0 .913-.038 2.057-.048 2.057-.387-.556-.508-1.573-.678-2.153-.024-3.932-.75-.89-.363-2.18-.363-1.292 0-2.986.363-1.093.276-2.034.276-1.29 0-2.298-.518-1.04-.629-2.202-1.04.968-.75.908-1.246-.06-.496-.593-.52L99.214 0zm2.149 13.14q-1.948.045-3.225 1.411-1.41 1.545-1.545 3.09 0 .359.403.359h18.722q.403 0 .403-.425 0-.426-.403-.426H97.6q1.12-2.866 3.359-3.18h14.758q.403 0 .403-.426 0-.403-.403-.403zm27.808-9.372q.197 0 .37.266.21.323.2.725-.008.403-.27.473-.041.011-.081.011-.2 0-.374-.291-.21-.35-.201-.726.008-.376.27-.446.044-.012.087-.012zm-9.773 0q.195 0 .367.257.21.315.192.726-.017.41-.262.48-.042.012-.082.012-.199 0-.373-.283-.21-.34-.2-.725.008-.385.27-.455.045-.013.088-.013zm3.302.011q.187 0 .352.255.21.323.202.725-.01.403-.271.473-.042.011-.083.011-.2 0-.38-.283-.22-.34-.202-.717.018-.375.28-.445.052-.019.102-.019zm3.219-.011q.196 0 .369.266.21.323.2.734-.008.411-.27.464-.042.011-.083.011-.198 0-.372-.283-.21-.34-.201-.717.009-.375.271-.463.043-.012.086-.012zm-4.51 9.28l.577 2.099h-3.095q.56-2.099 2.518-2.099zm3.287 0l.577 2.099h-2.378l-.577-2.099zm.875 0l2.378.018.577 2.08h-2.36l-.595-2.098zm5.63.018l.578 2.08h-2.379l-.577-2.08zM119.38 2.049l-1.015.28.525 1.014q-.368.105-.368.76 0 .656.324 1.172.323.516.603.604l1.749 6.4q-2.378 0-3.078 2.868v.804h14.567l-.018-.804h.018l-.577-2.099h.56v-.752h-.77v.018l-1.871-6.663q.21-.227.218-.84.01-.611-.323-1.162-.28-.463-.595-.463-.06 0-.122.017l-.07-1.154-.997.28.542 1.031q-.384.088-.384.744 0 .655.314 1.171.315.516.595.604l1.801 6.417h-2.396l-1.818-6.645q.192-.21.2-.822.01-.612-.323-1.163-.286-.475-.612-.475-.052 0-.105.012l-.07-1.154-.996.28.542 1.031q-.385.105-.385.752t.324 1.163q.323.516.603.621l1.784 6.4h-2.396l-1.82-6.626q.193-.228.201-.84.009-.612-.323-1.171-.273-.46-.58-.46-.068 0-.137.022l-.053-1.171-.996.28.524 1.031q-.367.105-.367.752t.315 1.163q.314.516.594.604l1.784 6.417h-2.396l-1.836-6.645q.192-.227.201-.84.009-.611-.332-1.162-.287-.463-.592-.463-.058 0-.116.017l-.053-1.154zm21.847-.932zm2.854-.7l-.452 1.566h-1.722l-.382-1.566zm-3.09 3.698q.016 0 .03.007-.14.174.104.243.26-.087.087-.243.191.052.365.156-.226.087-.452.087l-.04.002q-.178 0-.256-.14.098-.112.162-.112zm.13-.143q-.025 0-.048.002-.261.026-.418.322.222.237.472.237.025 0 .05-.003.278-.026.574-.217h.348v-.104h-.348q-.38-.237-.63-.237zm1.716-.031q.09 0 .08.094-.018.156-.149.313-.13.156-.243.209-.028.013-.043.013-.042 0 .043-.118.085-.117.042-.117-.014 0-.042.013-.031.014-.048.014-.046 0 .004-.101.07-.14.192-.278.104-.042.164-.042zm-.512.633q.122.07.043.139-.037.033-.064.033-.03 0-.049-.042-.035-.078.07-.13zm.577-.817q-.047 0-.108.017-.191.052-.356.296-.165.243-.096.365-.156.07-.182.191-.027.122.113.183.027.012.058.012.131 0 .342-.204.26-.252.347-.46.087-.21.027-.322-.042-.078-.145-.078zm-.428-1.24q.279 0 .633.083.922.217.948.991.026.774-.73 1.366-.339.264-.418.264-.098 0 .2-.404.54-.73.383-1.2-.103-.309-.538-.309-.226 0-.54.083-1.044-.313-.635-.66.251-.215.697-.215zm-1.164-1.085l.25.95h.104q-.56.31-1.044 1.079-.156.4-.747 1.182-.087.33.078.33.165 0 .252.07-.087.07-.087.166 0 .095.087.095.104 0 .035.079-.07.078-.026.208.043.13.052.34.009.208.252.234.104.011.231.011.17 0 .378-.02.156.383-.305.461-.197.034-.466.034-.36 0-.847-.06-1.165-.591-2.174-1.687.818-.608 1.383-1.165.565-.556 1.54-.782h.015q.498 0 1.08-1.114-.011-.203-.041-.411zm-.02 1.96q.165 0 .948.347.028.111.112.111.074 0 .192-.085.156-.113.315-.113.098 0 .198.044.261.113.07.495-.192.383-.487.635-.296.252-.252.54.043.286.339.425-.018.54.165.905t.722.565q.539.2.678.687l-.522.782q-.66 2.418-.678 4.696l-1.809.278v-1.06q-.104-2.835-.434-3.583-.33-.748-.835-1.235 0-.522.748-.687.747-.165.826-.791.07-.564-.345-.564-.047 0-.099.007-.083.011-.155.011-.378 0-.436-.306.4-.192.287-.296-.113-.104-.374-.122.191-.208-.104-.348l.452-.747q.115-.095.3-.095.293 0 .76.234.244-.052-.147-.244-.331-.162-.681-.162-.064 0-.128.006.209-.33.374-.33zm-3.947 8.277q.215 0 .634.331 1.009.678 2.713 1.86l-2.991 1.097-.522-2.47q-.17-.818.166-.818zm5.764 2.366q.21 1.93-.382 2.417-2.464.169-3.898.169-1.825 0-1.98-.273-.14-.626 2.226-1.313 2.365-.687 4.034-1zM140.933 0l.294 1.117q-.042-.04-.117-.04-.202 0-.646.28l-.661.66-2.504 1.757q-1.009.66-1.148 1.27 1.513 1.878 2.348 2.234.834.357 1.374 1.296.921.643.852 4.556-2.452-1.687-3.27-2.156-1.026 0-1.026.748l.644 3.148q-.122.365-.261.59-.8.731-.383 1.357-1.53.192-1.687.592-.15.383.107.383h.024q.287-.018 1.452-.192 2.47-.14 4.226-.14 1.496 0 2.765.14 1.044.4 1.565.4.54 0 1.044-.104.226-.313-.583-.487-.809-.174-1.035-.74-.158-.394-.426-.394-.116 0-.252.073.296-1.165.052-2.557-.156-1.652.522-4.4.057-.213.131-.213.108 0 .252.448.243.757.365 3.052.156 1.67-.122 2.765-.26.435-.313.766-.052.33.313.748.644-.14.8-.67.157-.53.078-.757-.078-.226-.113-.539.105-.834.296-1.591t0-2.165q-.296-2.365-.87-3.67-.382-.487-1.478-.922-.504-.208-.382-.99.73-.436 1.095-1.01.365-.573.287-1.278-.074-.666-.755-.982h.138l.73-2.383zm8.272 0c-.249 0-.496.019-.736.049-.331.084-.161.463.133.463.02 0 .04-.002.06-.005.621.071 1.386.11 1.855.463.622.678.343 2.088.415 2.757.005.036.008 2.704.008 4.055a4.548 4.548 0 0 0-2.83-.347c-.326.172.057.392.313.392.03 0 .06-.003.085-.01.907.098 1.94.341 2.4 1.185.046.153.017.206-.052.206-.153 0-.503-.254-.7-.254-.01 0-.02 0-.03.002a5.577 5.577 0 0 0-1.17-.125 5.01 5.01 0 0 0-.85.071c-.311.206.071.395.324.395a.394.394 0 0 0 .078-.007c.926.112 1.951.363 2.4 1.208.005.94 0 1.562.025 2.426-.01.266.162.399.338.399.174 0 .35-.13.35-.39-.006-.851-.066-1.6.045-2.425.226-.927 1.834-1.07 2.833-1.299.218-.256-.211-.351-.488-.351a.904.904 0 0 0-.11.006 5.05 5.05 0 0 0-.387-.015c-.652 0-1.31.13-1.892.43-.024-.56.526-.88.92-1.105.622-.268 1.307-.294 1.957-.438.232-.2-.133-.37-.386-.37a.429.429 0 0 0-.092.009 5.008 5.008 0 0 0-.48-.023c-.668 0-1.335.136-1.935.43.012-2.11.047-4.152-.014-6.148-.049-.618-.404-1.184-1.002-1.369-.43-.195-.91-.265-1.385-.265zm2.074 15.215c.781 0 1.76.401 2.232.875.414.414.469.963.484 1.473h-5.41c.016-.51.07-1.06.484-1.473.473-.474 1.428-.875 2.21-.875zm0-.437c-.927 0-1.924.428-2.509 1.012-.6.6-.667 1.39-.667 1.98V18h6.352v-.23c0-.59-.045-1.38-.644-1.98-.585-.584-1.605-1.012-2.532-1.012zm7.368-13.654q2.015.293 2.106 1.842v11.177q-.941-1.124-3.381-1.58l1.275-11.44zM158.08 0l-1.508 13.363q3.361.385 4.181 2.4V18h1.002V2.966q0-2.51-3.675-2.966zm7.75 1.124q2.015.293 2.106 1.842v11.177q-.941-1.124-3.38-1.58l1.275-11.44zM165.265 0l-1.509 13.363q3.361.385 4.181 2.4V18h1.003V2.966q0-2.51-3.675-2.966zm13.945 3.071c-.27.13-.6.49-.1.55.24-.01.79-.26.69-.49a.221.221 0 0 1-.158.067c-.141 0-.287-.127-.432-.127zm-1.971.09c-.33.08-.5.44-.08.52l.022.002c.242 0 .9-.294.358-.361-.09-.06-.18-.16-.3-.16zm2.631-2.51c.59.69 1.11 1.49 1.21 2.41.1.66.13 1.321.23 1.971-.47-.04-.33-.77-.24-1.12.08-.69-.29-1.33-.55-1.941-.18-.33-.35-.85-.81-.86-.51.09-.84.52-1.17.89-.34-.34-.7-.71-1.171-.85a.236.236 0 0 0-.081-.013c-.106 0-.23.046-.286.046-.049 0-.048-.034.057-.164.063-.224.195-.29.359-.29.238 0 .542.141.799.141a.561.561 0 0 0 .112-.01c.085.004.17.007.254.007.438 0 .876-.067 1.287-.218zm-.16.76c.39.1.48.64.67.96.24.56.53 1.17.34 1.801-.15.3.04.68.02.9-.333.235-.626.73-1.07.73a.631.631 0 0 1-.15-.02c-.44-.09-.66-.51-1-.71-.247.238-.393.73-.798.73a.618.618 0 0 1-.183-.03c-.37-.08-.86-.04-.97-.49-.19-.46-.21-.97-.24-1.47a.324.324 0 0 0 .06.006c.203 0 .221-.235.24-.436.077-.293.287-.429.52-.429.157 0 .325.062.47.178.17.19.69.34.58.64-.05.18-.11.371-.17.561l.42.56c.04-.29.47-.53.22-.82-.04-.13-.19-.3-.17-.4.18-.32.42-.6.7-.84a.322.322 0 0 1 .23-.103c.268 0 .538.351.771.382.23-.25-.02-.35-.25-.48a.701.701 0 0 0-.487-.196c-.25 0-.5.13-.653.356-.19.114-.323.494-.49.494-.052 0-.108-.037-.17-.134-.306-.244-.672-.518-1.073-.518a.855.855 0 0 0-.178.018c-.283.059-.538.632-.56.632v-.001c-.01-.47.21-.89.34-1.351a.612.612 0 0 1 .596-.477c.172 0 .347.075.474.237.298.11.516.634.796.634.05 0 .1-.017.155-.054.31-.33.56-.72 1.01-.86zm10.316 3.426c.248 0 .371.13.371.388v2.987h-1.13l.37-3.146c.012-.153.142-.23.39-.23zm-7.215 1.136c.708.406 1.569 1.283 2.455 2.344l-5.05.145-.556-.508c1.52-.51 2.611-1.37 3.151-1.981zm-1.81-.74c.06.125.138.166.22.166.107 0 .223-.071.32-.116.24.17 1.07.15.58.51-.31.42-1.968 1.566-3.119 1.768-.394.07.05.578.385.925l-.224.006a16.55 16.55 0 0 0-1.524-1.899c-.108-.116-.577-.611-.536-.611.005 0 .016.006.036.02.157.042.335.07.511.07.337 0 .668-.104.84-.42.025-.077.058-.108.096-.108.137 0 .344.399.564.399a.92.92 0 0 0 .513.155c.29 0 .578-.131.777-.355.19-.17.37-.34.56-.51zm-2.712 3.121c.049.05.097.104.145.16l-.087.002-.058-.162zm.86 1.19c.908 1.558 1.651 3.758 1.882 4.803-.49-.4-1.16-.66-1.311-.91-.133-.216-.457-1.988-1.036-3.891l.465-.002zm7.07-.032c1.81 2.36 3.531 5.07 4.066 5.725-1.5-.95-2.981-1.91-4.592-2.691-1.558-.765-2.958-1.857-4.28-3.012l4.806-.022zm-5.899 5.085c.32.19.61.45.96.59-.21.52-.34 1.1-.77 1.51-.08.13-.196.172-.327.172-.228 0-.504-.123-.736-.123-.016 0-.032 0-.047.002.28-.7.7-1.01.92-2.151zm.201-5.06c1.259 1.137 2.545 2.255 4.051 3.069 1.17.66 2.401 1.25 3.532 1.98.54.781 1.18 1.502 1.59 2.362-.41.12-.81.29-1.23.39a2.89 2.89 0 0 1-.702.082c-.661 0-1.326-.197-1.619-.512-.54-.57-1.13-3.001-1.44-3.892-.045-.1-.107-.133-.175-.133-.135 0-.292.132-.37.132a.04.04 0 0 1-.036-.019.391.391 0 0 0-.386-.376c-.176 0-.34.127-.314.396-.06.63-.18 1.26-.48 1.831-.037.097-.114.134-.215.134-.284 0-.761-.293-1.086-.374.092-.547-.41-2.689-1.81-5.067l.69-.002zM179.961 0a3.72 3.72 0 0 1-1.36.28c-.072 0-.143-.004-.212-.01a.804.804 0 0 1-.142.012c-.337 0-.7-.18-1.025-.18a.622.622 0 0 0-.353.098c-.55.8-1.05 1.69-1.11 2.681-.11 1.901-.06 2.562 1.44 4.122.151.344.336.887.532 1.524l-.747-.032c-.637-.671-1.202-1.007-1.697-1.007l-.548-.036c-1.002.189-1.603.283-1.803.283-.141 0-.212.094-.212.283 0 .26.2.389.6.389.689-.11 1.217-.165 1.584-.165.067 0 .128.002.185.006a.6.6 0 0 1 .494.247c-.23.285-.744.427-1.543.427-.061 0-.124 0-.189-.002-.907-.024-1.708-.142-2.404-.354-.341 0-.512.2-.512.6.035.366 1.314.555 3.835.566l1.68-.176 1.581-.007c.488 1.693.982 3.626 1.185 4.358.36.34-.45 2.2-.79 2.66-.186.256-.673.268-1.197.268h-.172c-.471 0-.949.01-1.243.193-.28.18-.38.85-.22.94.15-.23.45-.54.66-.57-.2.21.5.11.65.16.405.007.815.041 1.225.041.199 0 .398-.008.597-.03.09-.04.186-.102.228-.102.033 0 .033.038-.028.151.283.074.601.111.912.111.7 0 1.363-.187 1.509-.56.3-.551.58-1.131.78-1.732.256.054.577.234.834.234a.38.38 0 0 0 .207-.054c.28-.19.57-1.08.73-1.67.015-.062.099-.092.183-.092.08 0 .163.028.187.082.3.6.8 2.44 1.28 3.211.363.571 1.241.852 2.176.852a4.48 4.48 0 0 0 1.717-.332c.65-.28 1.13-.22.99-.58-.22-.6-.6-1.17-1-1.68.58.36 1.16.73 1.74 1.09.048.174.169.243.291.243.237 0 .483-.256.24-.513-1.292-1.866-3.016-4.48-4.724-6.72l1.312-.005 2.687.035V5.225c-.012-.577-.325-.866-.937-.866-.601 0-.92.171-.955.513-.247 2.227-.512 3.346-.795 3.358l-2.268.065c-.963-1.177-1.892-2.164-2.704-2.752-.4-.35-.87-.62-1.39-.75-.171-.44-.121-1.031-.221-1.531-.1-.99-.7-2.632-1.75-3.262zm19.606.394c.704 0 1.585.361 2.01.788.374.373.423.867.436 1.326h-4.871c.013-.459.062-.953.435-1.326.426-.427 1.286-.788 1.99-.788zm0-.394c-.835 0-1.733.386-2.26.912-.54.54-.6 1.251-.6 1.783v.207h5.72v-.207c0-.532-.04-1.243-.58-1.783-.526-.526-1.445-.912-2.28-.912zm-4.721 5.814q-.065 0-.128.02-.242.078-.214.236.024.133.217.133.035 0 .076-.005.264-.028.464-.214-.223-.17-.415-.17zm.124-.145q.516 0 1.59.615.54.28 1.183.28.311 0 .646-.066.842-.171 1.77-.3.316-.044.611-.044.575 0 1.075.166.757.25 1.257.32.5.072 1.585.13-.7.07-1.371.07t-1.585-.15q-.457-.074-.88-.074-.424 0-.813.075-.778.15-1.77.278-.249.032-.488.032-.72 0-1.362-.289-.624-.426-1.296-.426-.297 0-.604.084-.27-.015-.242-.3.157-.386.67-.4h.024zm.382-1.456q-.31 0-.576.943-.224-.833-.578-.833-.052 0-.108.019-.428.27.286 1.042-.572.329-.572.828 0 .5.843.557.26-.068.509-.068.582 0 1.098.375.441.322 1.399.322.639 0 1.507-.143 1.066-.3 2.073-.3.382 0 .755.043.932.108 1.589.108.298 0 .539-.022 1.214-.029 1.214-.229-.329-.3-.929-.4-1.27-.014-2.32-.443-.525-.214-1.288-.214-.762 0-1.762.214-.644.163-1.2.163-.761 0-1.356-.305-.614-.372-1.3-.614.572-.443.536-.736-.036-.293-.35-.307h-.01zm3.814 4.495v4.797h.802V8.708zm-4.32 7.708q-.065 0-.128.02-.242.079-.214.236.024.133.217.133.035 0 .076-.005.264-.028.464-.214-.223-.17-.415-.17zm.124-.144q.516 0 1.59.614.54.28 1.183.28.311 0 .646-.066.842-.171 1.77-.3.316-.043.611-.043.575 0 1.075.165.757.25 1.257.321.5.071 1.585.129-.7.071-1.371.071t-1.585-.15q-.457-.075-.88-.075-.424 0-.813.075-.778.15-1.77.279-.249.032-.488.032-.72 0-1.362-.29-.624-.425-1.296-.425-.297 0-.604.083-.27-.015-.242-.3.157-.386.67-.4h.024zm.382-1.457q-.31 0-.576.943-.224-.833-.578-.833-.052 0-.108.019-.428.271.286 1.042-.572.329-.572.829 0 .5.843.557.26-.069.509-.069.582 0 1.098.376.441.321 1.399.321.639 0 1.507-.143 1.066-.3 2.073-.3.382 0 .755.043.932.108 1.589.108.298 0 .539-.022 1.214-.029 1.214-.229-.329-.3-.929-.4-1.27-.014-2.32-.442-.525-.215-1.288-.215-.762 0-1.762.215-.644.162-1.2.162-.761 0-1.356-.305-.614-.371-1.3-.614.572-.443.536-.736-.036-.293-.35-.307h-.01z"/></svg>