<svg xmlns="http://www.w3.org/2000/svg" width="132.937" height="18"><path d="M13.112 2.933v4.845h-3.25V2.933zM9.194 2.25v6.196h4.601V2.25zm2.301 10.629c.805 0 1.813.414 2.301.902.427.426.483.992.499 1.518H8.718c.016-.526.072-1.092.499-1.518.487-.488 1.472-.902 2.278-.902zm0-.451c-.956 0-1.984.441-2.587 1.044-.618.618-.688 1.432-.688 2.04v.238h6.55v-.237c0-.61-.047-1.423-.665-2.04-.603-.604-1.655-1.045-2.61-1.045zm10.548-3.181q.475 0 .475.359-.008.374-.482.374-.475 0-1.417-.374.95-.359 1.424-.359zm-2.515 1.869q.553.299.837 1.943.135 1.286-.837 1.286-.987 0-.852-1.286.284-1.644.852-1.943zM23 2.25q-.922 0-1.737.352-.986.426-1.442 1.42-.456.994-.59 2.983v2.033q-.72-.213-1.823-.213-.525 0-1.138.048v.688q.495-.053.928-.053 1.27 0 2.017.457H19.2q-.673 1.15-.934 1.868-.262.718-.322 1.45-.015.912.337 1.383.351.471 1.248.471.882 0 1.233-.47.352-.472.337-1.384-.06-.732-.322-1.45-.261-.717-.74-1.704 1.252.476 2.02.476 1.112 0 1.21-1-.097-.993-1.204-.993-.773 0-2.04.485V7.064q.09-3.064 1.322-3.692 1.006-.512 1.952-.512.214 0 .425.026 1.144.142 1.824 1.248.68 1.107.778 3.454.097 2.347.127 4.619.329 2.183 1.48 3.543l.523-.463q-1.106-1.42-1.346-3.05-.074-1.226-.104-3.648t-.464-3.782q-.433-1.36-1.218-1.906-.785-.546-1.929-.635-.198-.016-.393-.016zm11.794.325q.216 0 .299.215-.106-.042-.182-.042-.16 0-.183.191-.032.34-.184.34h-.007q-.157-.008-.224-.14 0-.1.25-.332.115-.232.231-.232zm.238.296q.06 0 .06.085-.03.334-.255.334l-.043-.002v-.033l.067-.15q.015-.233.133-.233l.016.001.022-.002zm-1.477.188q-.15 0-.278.088-.158.108-.091.373h.066q.017-.166.1-.274.083-.108.273-.108t.19-.05l-.19-.024q-.036-.005-.07-.005zm-.004.146q-.2 0-.2.282v.1l.031.002q.056 0 .07-.053.281-.066.414-.232-.116-.1-.315-.1zm-.299.43q-.083.117-.016.291.066.174.829.24l.116-.05q-.962-.066-.863-.447l-.066-.033zm1.078-.795q-.216.15-.166.381.033.1.2.166.148.066.115.348.033.614-.514.946-.083-.2-.323-.216l-.045-.002q-.205 0-.295.143-.07.11-.165.11-.04 0-.084-.019-.027.007-.05.007-.151 0-.165-.272.165-.017.232-.066.066-.05.248-.117-.08-.092-.165-.092-.037 0-.075.018-.124.058-.257.091-.282-.05-.216-.282-.165-.182-.116-.315.365-.232.606-.44.24-.207.539-.248.298-.042.696-.141zm.978-.15q.431.034.912.49.481.456.564.937-.895 1.31-2.537 2.09-.066-.697.232-1.394.547-.497.481-.837-.066-.34.216-.456.63-.116.132-.83zm6.084 2.801l.052.002q.746.133 1.36.672.613.539.878 1.335.05.082-.365.082-1.74-.73-2.205-1.475-.205-.616.28-.616zm-4.425-.827q1.033.99 2.634.99.275 0 .566-.028.03-.01.057-.01.241 0 .241.806-1.641.73-2.586.796-.28.02-.569.02-.684 0-1.413-.112-.158-.024-.292-.024-.752 0-.794.746-.697-.83-.498-1.128 1.642-.73 2.654-2.056zm-2.02-2.414l-.078.001q-.755.025-.804.307-.299.116-.556.19-.257.075-.48.274-.225.2-.498.357-.274.157-.324.273-.082.183.15.398 0 .183.166.299.033 0 .074.282.042.282.307.414.332-.05.431-.19.085-.12.217-.12.023 0 .048.004.166.024.25.273-.067.249-.192.88-.124.63 0 .928.125.298-.439.671-.43.285-1.178.285-.233 0-.497-.028-.575-.16-.925-.16-.377 0-.493.185-.223.357.042.622h.647q1.488.053 2.52.053 2.488 0 2.33-.31-.18-.353.293-.353.115 0 .27.021.244.034.536.034.65 0 1.537-.166 1.285-.24 1.675-.448.25-.133.54-.133.163 0 .339.042.49.116.589.414-.217.399-.753.399-.245 0-.557-.084-.522-.139-.857-.139-.304 0-.453.114-.315.24-.033.573h5.389q.547-.498.232-1.153-.315-.655-1.061-1.244-.747-.588-1.642-1.07.234-.204.452-.204.276 0 .526.33.263.345.446.345.129 0 .218-.172-.591-1.057-1.233-1.057-.043 0-.086.004-.688.075-1.252.771-.682.172-1.272.172-1.286 0-2.127-.818-.464-1.178-1.11-1.634-.614-.432-1.324-.432zm-1.417 9.855q-1.46.034-2.418 1.058-1.058 1.16-1.16 2.318 0 .269.303.269h14.042q.302 0 .302-.32 0-.318-.302-.318H30.709q.84-2.15 2.52-2.385h11.068q.302 0 .302-.32 0-.302-.302-.302zm14.125-9.012q1.511.22 1.58 1.382v8.382q-.706-.843-2.536-1.184l.956-8.58zm-.425-.843L46.1 12.272q2.52.289 3.136 1.8v1.678h.751V4.475q0-1.883-2.756-2.225zm5.813.843q1.51.22 1.58 1.382v8.382q-.707-.843-2.537-1.184l.957-8.58zm-.425-.843l-1.132 10.022q2.521.289 3.136 1.8v1.678h.752V4.475q0-1.883-2.756-2.225zm5.565 0c-.698 0-1.31.513-1.31 1.171V15.75h.853V3.421c0-.322.284-.427.462-.427.187 0 .476.131.476.527v8.103h.852V3.521c0-.66-.653-1.271-1.333-1.271zm3.999.531c-.146 0-.503.172-.168.174.055 0 .176.016.265.016.107 0 .169-.023.021-.125-.035-.024-.068-.063-.113-.065h-.005zm.056-.115h.012c.259.06.462.277.73.352.226.063.597.147.52.478-.103.44-.4.868-.307 1.33.058.288.38.314.64.314l.124-.001c1.7-.014 3.05-.085 4.133-.085 1.776 0 2.834.192 3.542 1.15 1.175 1.589.773 3.178.48 5.184.082-1.184.475-3.048-.742-4.659-.514-.68-1.385-.966-2.187-1.168-.368-.093-.86-.125-1.402-.125-1.253 0-2.775.173-3.66.173-.211 0-.386-.01-.512-.034-.341-.066-.585-.486-.555-.834.04-.463.404-.892.268-1.359-.061-.207-.242-.254-.44-.254-.14 0-.29.024-.408.03-.129.007-.255.025-.378.025a.667.667 0 0 1-.473-.166c-.289-.254.5-.351.615-.351zm.039-.416h-.027a2.402 2.402 0 0 0-1.076.323c-.34.197-.067.58.162.748.212.155.449.3.715.3a.727.727 0 0 0 .157-.017c.135-.03.375-.086.539-.086.096 0 .166.02.173.075.06.46-.43 1.018-.232 1.55.162.436.533.831 1.03.867.217.016.434.022.65.022 1.144 0 2.281-.185 3.425-.204l.108-.001c2.191 0 3.293 1.144 3.544 1.855.244.688.42 1.41.358 2.142-.074.882-.204 1.771-.132 2.654.064.778.334 1.533.519 2.288.043.176.168.264.285.264.128 0 .246-.105.238-.316-.039-.972-.263-1.803-.237-2.7.022-.772.22-1.514.265-2.287.053-.897.302-3.917-2.144-4.796-.703-.253-1.596-.321-2.543-.321-1.12 0-2.315.096-3.361.096-.391 0-.762-.014-1.1-.05.135-.48.393-.9.333-1.4-.047-.395-.48-.543-.809-.633-.307-.084-.515-.373-.84-.373zm3.246 10.688q.559 0 1.02.279.937.544 1.776.544.845 0 1.55-.073v1.45q-.876-.155-1.265-.155h-.01q-.316 0-.88.073-2.295.316-2.86.316-.938 0-1.766-.031-1.42-.083-1.56-.15-.134-.063-.134-.358 0-.29.077-.508.078-.217.26-.31 4.434-.197 4.78-.228-.308-.446-.957-.446-.21 0-.457.047-.825.162-1.273.162-.094 0-.172-.007-.44-.041-.409-.42.247.034.51.034.554 0 1.179-.147.308-.072.59-.072zm.132-.42q-.225 0-.444.057-.885.233-1.559.243-.166 0-.596-.083-.202.187-.202.44 0 .254.161.43-1.694.063-1.694.202-.305.389-.305.933 0 .539.284.735.86.275 3.456.275.414 0 .844-.041 2.403-.358 2.865-.368h.045q.474 0 1.736.197v-2.29l-.01.01q-1.083.125-1.766.14l-.07.001q-.651 0-1.34-.363-.727-.518-1.405-.518zM76.264 2.25c-.078 0-.155.007-.232.014-1.119.12-1.914 1.252-1.738 2.35.077.816.584 1.273 1.14 1.723 1.653 1.013 1.188.64 2.856 1.484l.267-.5c-1.984-.928-2.223-1.075-2.842-1.483-.506-.408-.907-.859-.872-1.541-.014-.471.267-.957.584-1.189.253-.19.576-.302.893-.302.24 0 .464.056.661.197.5.246.774 1.062.408 1.575a.97.97 0 0 1-.774.415.716.716 0 0 1-.422-.133c-.253-.14-.443-.633-.183-.908-.12-.126-.288-.281-.415-.281-.084 0-.147.063-.19.211-.28.675.17 1.442.845 1.625.12.035.239.056.358.056.774 0 1.492-.647 1.492-1.449.07-.935-.676-1.794-1.611-1.85a2.273 2.273 0 0 0-.225-.014zm7.196 2.911c.746 0 1.68.384 2.132.836.396.395.447.92.462 1.407h-5.166c.014-.488.066-1.012.462-1.407.452-.452 1.364-.836 2.11-.836zm0-.417c-.885 0-1.838.409-2.396.967-.573.572-.638 1.326-.638 1.89v.22h6.067v-.22c0-.564-.042-1.318-.615-1.89-.558-.558-1.533-.967-2.418-.967zM75.771 9.21l-1.499 1.773h.731l.768-.916.776.916.753-.916.775.916.768-.916.776.916.768-.916.775.916.753-.916.776.916.775-.916.753.916.775-.916.768.916h.731l-1.499-1.772-.775.856-.753-.856-.775.856-.776-.856-.753.856-.775-.856-.768.856-.776-.856-.768.856-.775-.856-.753.856-.776-.856zm-.394 4.86q-.07 0-.135.022-.258.083-.228.25.026.14.23.14.038 0 .08-.004.281-.03.493-.227-.237-.18-.44-.18zm.131-.153q.547 0 1.687.652.572.296 1.254.296.33 0 .685-.07.893-.18 1.877-.317.335-.046.648-.046.61 0 1.14.175.802.265 1.332.34.53.076 1.681.137-.742.075-1.454.075T82.678 15q-.485-.08-.934-.08-.449 0-.861.08-.826.16-1.878.296-.263.034-.517.034-.763 0-1.444-.307-.662-.452-1.375-.452-.315 0-.64.089-.287-.016-.257-.318.167-.41.712-.424h.024zm.405-1.544q-.327 0-.61 1-.238-.883-.613-.883-.056 0-.115.02-.454.287.303 1.105-.606.348-.606.878t.894.59q.276-.072.54-.072.617 0 1.164.398.467.341 1.483.341.678 0 1.598-.151 1.131-.319 2.198-.319.405 0 .8.046.99.114 1.685.114.317 0 .572-.023 1.287-.03 1.287-.242-.348-.318-.984-.424-1.348-.016-2.46-.47-.557-.227-1.366-.227-.808 0-1.868.227-.684.173-1.273.173-.807 0-1.438-.324-.65-.394-1.378-.652.606-.469.568-.78-.038-.31-.371-.325h-.01zm17.112-6.035q.17 0 .353.078.41.173.41 2.758v2.474h-4.641q1.792-2.46 2.46-3.718.666-1.257 1.014-1.473.192-.119.404-.119zm-.198-.528l-.074.001q-.66.014-1.487 1.612-.827 1.598-3.273 4.767h6.337l-.014-3.558q-.07-2.376-.486-2.605-.393-.217-1.003-.217zm4.56-2.717q1.51.22 1.579 1.382v8.382q-.706-.843-2.536-1.184l.957-8.58zm-.426-.843L95.83 12.272q2.52.289 3.136 1.8v1.678h.752V4.475q0-1.883-2.757-2.225zm5.813.843q1.511.22 1.58 1.382v8.382q-.707-.843-2.537-1.184l.957-8.58zm-.425-.843l-1.131 10.022q2.52.289 3.135 1.8v1.678h.752V4.475q0-1.883-2.756-2.225zm5.565 0c-.697 0-1.309.513-1.309 1.171V15.75h.852V3.421c0-.322.284-.427.462-.427.187 0 .476.131.476.527v8.103h.852V3.521c0-.66-.653-1.271-1.333-1.271zm9.803.758q2.455 0 5.207 1.186-2.752 1.154-5.207 1.154-2.439 0-5.207-1.154 2.768-1.186 5.207-1.186zm0-.758q-3.032 0-6.97 1.928 3.938 1.911 6.97 1.911 3.032 0 6.97-1.911-3.922-1.928-6.97-1.928zm-1.04 11.631a1.31 1.31 0 0 0-.313.039c-.21.051-.437.168-.682.35h-4.935v1.091h4.935c.245.182.473.299.682.35a1.31 1.31 0 0 0 .623 0 1.48 1.48 0 0 0 .617-.35h.19a1.4 1.4 0 0 0 .611.35 1.316 1.316 0 0 0 .629 0c.21-.051.433-.168.67-.35h4.983V14.27h-4.983c-.237-.182-.46-.299-.67-.35a1.316 1.316 0 0 0-.629 0 1.4 1.4 0 0 0-.611.35h-.19a1.492 1.492 0 0 0-.617-.35 1.274 1.274 0 0 0-.31-.039z"/><path d="M8.22.375c-9.625 0-9.625 17.25 0 17.25m0-17.25h116.467M8.22 17.625h116.467m7.688-17.25v17.25M124.687.375c9.625 0 9.625 17.25 0 17.25" fill="none" stroke="#000"/></svg>