<svg xmlns="http://www.w3.org/2000/svg" width="254.379" height="18"><path d="M6.174.386c.221 0 .566.052.757.104.832.223-.005.968-.54.968a.513.513 0 0 1-.073-.005c-.353.074.06.199.502.199.272 0 .555-.047.681-.18.072-.077.131-.108.182-.108.185 0 .258.417.406.623.74.245 1.203.913 1.682 1.486 1.377 1.65 2.617 3.405 3.917 5.115-.357-.105-.743-.31-1.097-.48-1.62-.783-3.347-1.401-4.814-2.455-.732-.525-1.712-1.134-1.793-2.056-.061-.702 1.227-1.337 1.134-1.717-.011-.044-.043-.064-.09-.064-.274 0-1.077.688-1.288 1.09-.081.155-.14.217-.182.217-.146 0-.077-.757.014-.93.31-.589-.628-1.325-.1-1.664-.016.088.002.337.312.337.325 0 .305-.4.205-.453a.435.435 0 0 1 .185-.027zm.616 5.477c.254.9.626 1.766 1.065 2.59.217.405 1.13 1.049.485 1.377a.194.194 0 0 1-.052.007c-.257 0-.519-.495-.855-.517a12.843 12.843 0 0 0-.265-1.873c-.103-.505-.36-1.176-.378-1.584zm.705.597c.795.576 1.63 1.093 2.472 1.6.222.497.034 1.222.149 1.805-.538-.363-1.112-.378-1.457-1.066-.385-.766-1.019-1.494-1.164-2.34zm.226 3.6c.134.235.335.383.538.383.16 0 .32-.091.45-.304.186.205.23.926.23 1.325.002.411-.214.446-.465.446l-.155-.002a.93.93 0 0 0-.278.032.453.453 0 0 1-.138.02c-.197 0-.423-.095-.636-.095-.02 0-.04 0-.06.002.001-.52.36-1.225.514-1.808zm1.603-2.968c1.69.766 3.36 1.59 5.054 2.351.648.679 1.239 1.448 1.96 2.049.538.45-.155.358-.474.418-.244.046-.492.08-.738.116-.87-.87-1.745-1.738-2.58-2.641-.909-.982-2.145-1.538-3.222-2.293zm-.512 5.693c1.105 0 2.211.013 3.316.042.556.014 1.197-.023 1.695.164-.658.042-2.304.058-4.042.058a201.337 201.337 0 0 1-5.037-.05c-.51 0-.097-.173.188-.173a.55.55 0 0 1 .076.005c1.267-.03 2.535-.046 3.804-.046zm-4.862.743c.75.01 1.5.02 2.25.045.495.017.989.023 1.483.023 1.398 0 2.796-.05 4.192-.05.188 0 .375.001.562.003-1.161.634-2.421 1.17-3.766 1.214-.152.005-.3.008-.445.008-.76 0-1.443-.08-2.196-.351-.656-.236-1.506-.523-2.08-.892zm6.649 1.558a.144.144 0 0 0-.078.02c-.256.16.368 1.331.895 1.613.04.021.078.03.115.03.192 0 .33-.259.247-.445-.214-.48-.87-1.218-1.18-1.218zm-4.848.055c-.042 0-.105.026-.194.086-.432.29-1.443 1.067-.823 1.496a.22.22 0 0 0 .129.042c.224 0 .442-.354.556-.556.12-.21.574-1.068.332-1.068zm4.06.177c-.274 0 .026 1.476.502 1.79.031.022.07.031.109.031.106 0 .222-.069.242-.173.123-.637-.473-1.61-.846-1.647a.08.08 0 0 0-.008 0zm-3.278.017c-.05 0-.13.062-.244.216-.302.408-1.043 1.256-.436 1.571.04.021.078.03.114.03.254 0 .4-.478.49-.72.081-.222.268-1.097.076-1.097zm2.271.162c-.023 0-.043.012-.06.037-.245.368-.164 1.491.42 1.817a.196.196 0 0 0 .097.026c.172 0 .306-.25.276-.423-.07-.41-.517-1.457-.733-1.457zm-1.329-.011a.1.1 0 0 0-.058.023c-.391.291-1.017 1.466-.379 1.845.035.02.068.03.101.03.191 0 .35-.31.375-.504.04-.334.162-1.394-.039-1.394zm.655-.018a.08.08 0 0 0-.038.01c-.324.174-.62 1.573-.014 1.945a.175.175 0 0 0 .092.028c.164 0 .306-.252.306-.421-.002-.46-.123-1.562-.346-1.562zM6.352 0c-.205 0-.408.02-.598.054-.567.104-1.44.31-1.43.996a.711.711 0 0 1 .192-.028c.55 0 .663.789.553 1.27-.225.98.26 1.965.898 2.707.425 1.269.96 2.595.954 3.928-.003.556.408.592.256 1.158-.136.51-.373 1.566-.883 1.69a2.18 2.18 0 0 1-.182.007c-.323 0-.663-.056-.984-.056-.254 0-.497.036-.71.162-.444.264-.778.46-1.31.46l-.071-.001-.078-.002c-.895 0-1.953.472-2.118 1.411-.244 1.391-.044 2.827-.036 4.233.205.005.412.011.618.011.163 0 .325-.004.487-.016-.076-.844-.133-1.694-.079-2.539.039-.601-.113-1.44.465-1.781a.738.738 0 0 1 .383-.107c.506 0 1.005.499 1.472.712 1.306.596 2.697 1.036 4.147 1.036h.1c1.756-.025 3.375-.751 4.878-1.576a.616.616 0 0 1 .41-.148c.28 0 .562.17.622.463.262 1.292.154 2.632.067 3.94.157.012.315.015.473.015.156 0 .313-.003.47-.003.052 0 .105 0 .158.002.008-.911.089-1.823.047-2.733-.033-.721.107-1.55-.417-2.143-.68-.771-1.763-.76-2.704-.825a1.712 1.712 0 0 0-.117-.004c-.125 0-.257.01-.386.01a.973.973 0 0 1-.439-.08c-.294-.302-.66-.36-1.04-.36-.228 0-.462.021-.689.021a2.75 2.75 0 0 1-.22-.008c-.043-.588-.075-1.177-.107-1.766a.155.155 0 0 1 .111-.045c.294 0 .78.686 1.034.686.076 0 .13-.06.154-.217.094-.642-.155-1.343-.146-2.018h.016c.285 0 .766.368 1.053.617.898.779 1.67 1.717 2.513 2.566.334.38.681.803 1.163.803.13 0 .269-.031.42-.101.48-.223 1.5.065 1.609-.544-.462-.54-.994-1.018-1.47-1.547.58.274 1.144.678 1.747.941a.77.77 0 0 0 .24.078c.18 0-.489-.521-.668-.602-.665-.3.624-.188.098-.605-1.155-.915-2.466-1.648-3.699-2.473-.79-.998-1.506-2.067-2.3-3.068-.66-.774-1.221-1.636-1.941-2.356C8.895 1.783 8.245 1.66 8.2.937 7.858.252 7.09 0 6.352 0zm12.702 2.697c-.58.046-.9.335-.96.869.076.579.396.884.96.914.564-.03.86-.335.891-.914-.045-.534-.343-.823-.891-.869zm.068-1.92c.412 0 .793.076 1.143.229a3.014 3.014 0 0 1 1.554 1.543c.153.342.23.704.23 1.085 0 .396-.077.766-.23 1.109a2.91 2.91 0 0 1-2.697 1.726 3.05 3.05 0 0 1-1.154-.218 2.75 2.75 0 0 1-.926-.605 2.97 2.97 0 0 1-.617-.903 2.698 2.698 0 0 1-.228-1.109c0-.38.076-.743.228-1.085a3.12 3.12 0 0 1 .617-.915c.26-.266.568-.476.926-.628a2.917 2.917 0 0 1 1.154-.229zM19.077 0c-.503 0-.976.095-1.417.286-.442.19-.823.45-1.143.777-.32.327-.576.708-.766 1.143a3.46 3.46 0 0 0-.286 1.405c0 .503.095.972.286 1.406.19.434.446.812.766 1.132a3.627 3.627 0 0 0 2.56 1.051 3.46 3.46 0 0 0 1.405-.286c.435-.19.816-.445 1.143-.765.328-.32.587-.698.777-1.132a3.46 3.46 0 0 0 .286-1.406 3.46 3.46 0 0 0-.286-1.405 3.704 3.704 0 0 0-1.92-1.92A3.46 3.46 0 0 0 19.077 0zm7.042.589c.06 0 .077.012.09.027a.455.455 0 0 1 .07.195c.025.122.038.26.059.39.025.167.062.327.129.462.078.16.152.329.231.501H25.54c.08-.172.153-.341.232-.501a1.61 1.61 0 0 0 .129-.461c.02-.132.034-.269.059-.391a.455.455 0 0 1 .07-.195c.013-.015.029-.027.09-.027zm.662 2.164c-.417.992-.538 2.236-.551 3.319-.016 1.302.137 2.597.288 3.892.148 1.27.292 2.538.262 3.812-.015.64-.168 1.6-.367 2.393a6.939 6.939 0 0 1-.313.994 2.318 2.318 0 0 1-.049.106 2.29 2.29 0 0 1-.037-.094c-.093-.25-.184-.6-.263-.993-.162-.798-.279-1.761-.294-2.406-.03-1.274.115-2.543.263-3.812.15-1.295.304-2.59.288-3.892-.014-1.083-.134-2.327-.552-3.319zm-.73 14.516zm-.103.169zm.196.003zM26.12 0a.676.676 0 0 0-.542.239c-.1.12-.16.278-.195.453-.027.133-.042.278-.064.42-.017.106-.035.21-.075.29-.152.308-.284.653-.473.982l-.082.142.078.144c.512.954.639 2.284.653 3.409.015 1.277-.137 2.547-.284 3.817-.151 1.297-.297 2.592-.267 3.894.016.68.137 1.677.306 2.51.085.422.184.804.289 1.082.058.155.12.283.185.377.043.063.09.113.14.152a.42.42 0 0 0 .255.089c.087 0 .174-.03.251-.086a.692.692 0 0 0 .144-.146c.07-.093.137-.22.203-.373.12-.279.238-.66.344-1.083.209-.836.368-1.838.384-2.522.03-1.302-.115-2.597-.266-3.894-.148-1.27-.3-2.54-.284-3.817.014-1.125.14-2.455.653-3.409l.078-.144-.082-.142c-.19-.329-.322-.674-.473-.981a1.035 1.035 0 0 1-.075-.291c-.022-.142-.037-.287-.064-.42A1.021 1.021 0 0 0 26.66.24a.676.676 0 0 0-.541-.24zm9.61.662l-.415.945q.888.18 1.266 1.786l1.437-.369v.898l-1.4.397q.01 1.323-.254 2.486-.274 1.162-1.238 1.502-.482.166-.97.166-.486 0-.977-.166-.983-.34-1.248-1.502-.274-1.163-.246-2.486l-1.398-.397v-.898l1.427.369q.378-1.607 1.276-1.786l-.435-.945zM31.894 0q-.34 0-.047.662l.255.576q-.756.482-.945 1.333l-1.606-.482v2.39l1.512.436q0 1.36.387 2.721.397 1.361 2.694 1.664 2.296-.303 2.703-1.664.397-1.36.397-2.721l1.512-.435V2.089l-1.626.482q-.189-.85-.945-1.333l.255-.576Q36.742 0 36.392 0zm1.686 11.167V18h1.144v-6.833zm7.175-4.637v4.475h.749V6.53zM46.323.557v1.486q-.328-.49-1.969-.49h-1.213V.558zM46.34 0q-.668.124-1.987.124h-1.627v1.863h1.627q.86 0 1.232.18.378.179.737.513l.018 8.325h.718V0zm1.942 6.53v4.475h.75V6.53zM53.85.557v1.486q-.328-.49-1.968-.49h-1.213V.558zM53.87 0q-.669.124-1.987.124h-1.628v1.863h1.628q.86 0 1.232.18.377.179.736.513l.019 8.325h.718V0zm1.94 6.53v4.475h.748V6.53zM61.377.557v1.486q-.328-.49-1.968-.49h-1.213V.558zM61.396 0q-.669.124-1.987.124h-1.628v1.863h1.628q.86 0 1.232.18.377.179.736.513l.019 8.325h.718V0zm-2.7 13.85q-.439.44-.439 1.611 0 1.196.44 1.636h-14.5q.44-.44.44-1.636 0-1.171-.44-1.61zm-17.306-.903q-.635 0-.61.415-.025.488.61.488h1.586q.586.44.586 1.611 0 1.196-.586 1.636h-1.562q-.66 0-.66.415 0 .488.636.488h20.114q.61 0 .61-.488 0-.415-.635-.415h-1.562q-.586-.44-.586-1.636 0-1.171.586-1.61h1.587q.61 0 .61-.489 0-.415-.61-.415zM69.115.76c1.261 0 2.66.265 4.198.796 1.538.53 2.637.795 3.297.795h.619v1.856H75.62c-.86 0-1.882-.33-3.067-.99-1.184-.66-2.324-.99-3.42-.99-.519 0-1.084.089-1.697.265a4.6 4.6 0 0 0-1.697.92c.2-.625.018-1.25-.548-1.874.578 0 1.243-.13 1.998-.389.754-.26 1.396-.389 1.926-.389zm.955 2.068c1.013.236 1.87.575 2.572 1.017.7.441 1.299.662 1.794.662-1.131.165-1.971.333-2.52.504a5.756 5.756 0 0 1-1.723.257c.307-.213.46-.63.46-1.255 0-.472-.194-.867-.583-1.185zm-1.91 0c-.376.318-.565.707-.565 1.167 0 .636.206 1.096.619 1.379-.648-.071-1.134-.21-1.459-.416-.324-.206-.798-.374-1.422-.504 1.284-1.084 2.227-1.626 2.828-1.626zm9.069 3.977v1.079c-.024-.071-.242-.36-.654-.867.33-.058.548-.13.654-.212zm0-1.856v1.397c-.083.082-.345.168-.787.256-.442.088-.442.365 0 .83.442.466.704.876.787 1.23v.494c-.106-.106-.3-.159-.584-.159-.6 0-.901.3-.901.902l.353.141c0-.424.189-.642.566-.654.377 0 .566.2.566.601 0 .519-.313.778-.937.778-.542 0-2.593-1.12-6.152-3.359l-2.792-1.75c.2.083.568.142 1.104.177a21.35 21.35 0 0 0 1.644.044c.56-.006 1.464-.162 2.714-.468 1.249-.306 2.191-.46 2.828-.46zM69.115 0c-.53 0-1.214.127-2.05.38a9.1 9.1 0 0 1-2.652.38v.778c.825.66.973 1.502.442 2.528-.33.353-.545.627-.645.821-.1.195-.124.313-.07.354a.092.092 0 0 0 .058.018c.057 0 .138-.035.242-.106.147-.1.41-.15.786-.15.378 0 .69.1.937.3-.094.813-.324 1.255-.69 1.326-.364.07-.559.173-.582.309-.024.135.094.33.353.583.26.254.469.82.628 1.697.159.878.291 1.411.397 1.6.108.082.196.123.264.123.119 0 .178-.124.178-.37V6.027c5.48 3.464 8.673 5.196 9.58 5.196.908 0 1.362-.4 1.362-1.202V1.573H76.61c-.66 0-1.762-.262-3.305-.786C71.76.262 70.365 0 69.115 0zm-2.309 15.64c.662 0 1.49.34 1.892.741.35.351.396.816.41 1.248h-4.584c.012-.432.058-.897.41-1.248.4-.401 1.21-.741 1.872-.741zm0-.37c-.786 0-1.631.362-2.126.858-.508.508-.566 1.176-.566 1.677V18h5.383v-.195c0-.5-.038-1.17-.546-1.677-.495-.496-1.36-.859-2.145-.859zm8.031-2.39q.5 0 1.02.219l-.988 1-1.014-1q.481-.218.982-.218zm-2.162 1.31l1 1-1 1.001q-.436-1.04 0-2.002zm4.324.05q.436 1.04 0 2.002l-1.001-1 1-1.001zm-.783-.846q.308.141.487.488l-1.36 1.372 1.348 1.348q-.167.333-.5.487l-1.348-1.347-1.321 1.321q-.334-.205-.488-.5l1.322-1.309-1.386-1.385q.141-.334.5-.475l1.373 1.373 1.373-1.373zm-1.347 2.977l1 1q-.487.218-.987.218t-1.014-.218l1-1zm-.026-3.914q-1.321 0-2.085.86-.763.86-.763 1.886 0 1.155.892 1.97.891.814 1.93.827 1.258-.013 2.047-.866.789-.853.789-1.93l-.013.025q.013-.975-.776-1.873-.79-.899-2.02-.899zm6.885-11.333q2.015.293 2.106 1.842v11.177q-.942-1.124-3.381-1.58l1.275-11.44zM81.161 0l-1.508 13.363q3.361.385 4.181 2.4V18h1.002V2.966q0-2.51-3.675-2.966zm9.203 3.502q.265 0 .305.326l.448 4.052q.347 2.79.408 5.335 0 1.751-.296 2.78-.295 1.028-.926 1.028t-.865-1.029q-.235-1.028-.214-2.78.04-2.544.387-5.334l.448-4.052q.04-.326.305-.326zM87.289 0q-.855.428-.101.896 2.484 1.446 2.178 3.075l-.468 3.91q-.326 2.789-.468 5.334 0 2.484.468 3.635.468 1.15 1.466 1.15t1.466-1.15q.468-1.15.468-3.635-.142-2.545-.468-5.335l-.428-3.747Q90.751.794 87.29 0zm9.085 1.124q2.014.293 2.106 1.842v11.177q-.942-1.124-3.382-1.58l1.276-11.44zM95.807 0l-1.509 13.363q3.362.385 4.182 2.4V18h1.002V2.966q0-2.51-3.675-2.966zm7.75 1.124q2.015.293 2.106 1.842v11.177q-.942-1.124-3.381-1.58l1.275-11.44zM102.99 0l-1.508 13.363q3.36.385 4.18 2.4V18h1.003V2.966q0-2.51-3.675-2.966zm11.697.261q.261 0 .261.375v2.416q-.075-.007-.144-.007-.277 0-.46.105l.343-2.514q-.278-.032-.253-.204.024-.17.253-.17zm1.142 0q.261 0 .278.171.016.172-.278.204l.36 2.514q-.17-.105-.445-.105-.068 0-.143.007V.636q0-.375.228-.375zm-1.367 4.026q-.133 0-.15.168.032.106.146.106.115 0 .31-.106.213-.033 0-.049-.193-.12-.306-.12zm.73-.746q.556 0 .964.547.408.547.742 1.24.335.694.482 1.526h-.147q-.147-.62-.408-.849-.261-.228-.98-.277-.13 0-.13.114v.62h-.294V4.977q.294-.163.204-.587-.055-.263-.258-.263-.124 0-.305.1-.26-.212-.604-.212.18-.474.735-.474zm-.636.653q.229 0 .506.326.153-.133.238-.133.061 0 .089.068.065.163-.058.261-.122.098-.17.261V6.74h.782v-.653q.523 0 .694.229.171.228-.277.49-.45.26-.808 2.545l-.686.196q-.457-2.17-.807-2.546-.351-.375-.14-.555.213-.18.833-.359.245-.163.172-.596-.064-.375-.467-.375-.06 0-.13.008-.179-.196-.228-.424l.294-.506zm1.028 5.549q.245.31.262 1.73h-1.16l.295-1.437.603-.293zm.93-2.612q0 .719.115 1.747 0 .603.081 1.811-.277.555-.244.783h-.245q-.033-1.583-.31-1.876.26-2.09.604-2.465zm-.668 4.668q.016.473-.017 1.322h-1.485l.278-1.322zm-3.786-.017l.456 3.705h-.848l.392-3.705zM114.654 0q-.424 0-.497.367-.074.367.269.465L114 3.117q-.232-.077-.4-.077-.117 0-.203.036-.08.034-.199.034-.193 0-.487-.091l-.065.065q.199.384.472.384.04 0 .083-.008.124-.025.22-.025.156 0 .237.065.08.066.255.066.108 0 .25-.025h.31q-.277.212-.326.522l-.375.62q-.016.082.13.131-.065.082.147.424.017.18-.049.36-.212.212-.032.277.042.015.079.015.12 0 .182-.162l.13-.408h.025q.301 0 .286.392h.016q-1.191.375-1.387.946-.294.816-.784 2.138-.603.506-1.746 1.191-.414-.1-.59-.1-.026 0-.046.002l-.016-.016v-3.46q-.05-.734.375-1.158.424-.425.587-.8.164-.375-.098-.832-.26-.457-.897-.457-.424 0-.661.27-.237.268-.35.71-.148.374-.36.521-.13.196.065.245.196-.049.351-.237.155-.187.351-.644.196-.457.604-.473.49 0 .62.457.065.473-.49.97-.554.498-.538 1.428V9.84h-.05q-.554 0-.179.36 0 .375.229.717V18h.457v-7.066l.636-.506q1.338-.44 1.853-.816.514-.375.71-.906.195-.53.391-1.395.375.343.783 2.35-.359.18-.049.457l-.277.555.277.065-.163.734h-2.546l-.44 4.227q-.098.62.245.62.212 0 .212-.261 0-.277.065-.277t.065.277q0 .261.196.261t.196-.261q0-.277.065-.277.082 0 .082.277 0 .261.18.261.342 0 .277-.62l-.49-3.9h1.828l-.36 1.68q-.195.506-.179.882-.195 1.207-.57 2.725-.033.327-1.339.588-.408 0-.245.326h2.008q.212-.196.097-.8.93-1.909.816-2.594.082-.425.408-.882h.343q-.016.343.212.8l.571 2.546q-.016.343-1.338.604-.408 0-.245.326h2.008q.408-.065.18-.8-.017-2.382-.409-2.888v-.832h.017l.032-1.077-.016-.604h.294q.06.22.237.22.058 0 .13-.024.285-.098.318-.196h1.338v-.327h-1.305q.032-.31-.164-.555.066-.244.172-.856.106-.612-.09-1.249.065-.832.033-1.664h.473q-.016-1.045-.636-2.163-.62-1.117-1.029-1.444h.18q.163.036.28.036.152 0 .226-.06.08-.066.237-.066.095 0 .22.025.04.008.08.008.275 0 .475-.4l-.066-.065q-.305.105-.498.105-.107 0-.179-.032-.09-.039-.187-.039-.125 0-.262.064l-.375-2.285q.343-.098.261-.465-.082-.367-.49-.367-.456 0-.57.49v2.562h-.099V.49q-.114-.49-.57-.49zm8.709 0c-.12 0-.239.005-.358.016l-.056-.001c-1.34 0-2.494 1.293-2.396 2.622-.073 1.044.145 2.077.202 3.116.092.175.258.25.435.25a.739.739 0 0 0 .606-.327c.315-.44.176-1.01.048-1.491-.142-.857-.194-1.812.278-2.581.303-.407.803-.61 1.302-.61.543 0 1.085.241 1.372.722.46.674.336 1.655-.254 2.212-.569.673-1.423 1.117-1.787 1.951-.233.841-.038 1.718-.116 2.574-.075 3.123-.114 6.246-.173 9.37.161.135.351.16.548.16.115 0 .232-.009.347-.009.093 0 .185.006.274.026.425-.218.39-.764.36-1.168-.151-3.276-.042-6.556-.124-9.833.01-.374-.112-.803.283-1.016.785-.763 1.622-1.523 2.105-2.525.492-1.455-.608-3.197-2.132-3.382a3.782 3.782 0 0 0-.764-.076zm9.7.601c1.074 0 2.419.552 3.07 1.202.568.57.643 1.324.664 2.025h-7.435c.02-.7.095-1.455.664-2.025.65-.65 1.963-1.202 3.037-1.202zm0-.601c-1.274 0-2.645.589-3.448 1.392-.824.824-.918 1.91-.918 2.72v.317h8.732v-.316c0-.812-.061-1.897-.886-2.72C135.74.588 134.337 0 133.063 0zm-.283 11.024l-.02.01 3.624 6.946h1.367l-3.625-6.956zm-3.037.01l-1.367.01L132 18l1.367-.01-3.624-6.955zM141.218 1.1q-.347.02-.347.155t.337.135q.338 0 .406-.077.067-.077-.396-.213zm7.587-.328q.985 0 1.68.31-.54.598-.753 1.428-.502 1.274-.927 1.274-.405 0-.907-1.274-.213-.83-.753-1.429.695-.309 1.66-.309zm-7.614.121q.515 0 .934.42 1.062.29 1.062.656 0 .367-.222 1.178-.222.81.222 1.1.267.174 1.791.174 1.016 0 2.592-.077 1.023-.05 1.883-.05 2.451 0 3.58.407 1.525.55 2.191 2.471.666 1.921-.183 5.454.521-4.44-.734-6.033t-3.426-1.767q-.782-.062-1.903-.062-1.993 0-5.057.198-1.41-.078-1.42-.83-.009-.753.339-1.796.116-.637-1.757-.695-.599-.097-.599-.386.02-.309.599-.357.055-.005.108-.005zm7.73 4.532q.502 5.83.521 7.471-.058 3.939-.637 3.939-.56 0-.637-3.939.02-1.64.54-7.471zM148.805 0q-1.177 0-2.066.386-.888.386-.888.985.908 0 1.168.772.261.772.744 1.583-1.989 0-2.993.097-.243.023-.439.023-.922 0-.787-.525.164-.637.232-1.39.068-.753-1.13-1.062-.116-.516-1.155-.516-.168 0-.36.014-1.38.096-1.38.85 0 .578.984.926.645.227 1.025.227.2 0 .327-.063.07-.036.117-.036.192 0-.05.615-.299.763-.25 1.37.048.61.463.986.415.376 1.843.376 2.356-.174 3.842-.193-.058.965-.424 3.64-.367 2.673-.136 6.515.383 2.259 1.298 2.259h.015q.927 0 1.313-2.26.232-3.841-.135-6.525-.367-2.683-.425-3.648 3.09.115 4.209 1.689 1.12 1.573.782 4.43-.338 2.858.183 4.499.406 1.95.676 1.95.094.026.168.026.307 0 .276-.451-.444-3.63-.087-5.396t.347-3.388q-.01-1.622-1.013-3.32-1.004-1.7-5.251-1.719.482-.81.753-1.583.27-.772 1.177-.772 0-.599-.888-.985T148.805 0zm11.049.735q-.037 0-.072.012-.247.144-.185.31.04.123.237.164.037.008.07.008.141 0 .208-.142.082-.175-.062-.278-.103-.074-.196-.074zm.17-.12q-.114 0-.273.05-.464.144-.216.546.116.189.442.189.367 0 1-.24.578-.228 1.01-.475l-.102-.02-.949.37q-.74.253-1.029.253-.041 0-.073-.005-.258-.041-.289-.237-.03-.196.155-.3.103-.056.196-.056.075 0 .144.036.154.083.165.196.01.114-.072.237.267-.082.175-.36-.061-.184-.283-.184zm.21-.132q.344 0 .6.202.494-.09.95-.09.686 0 1.286.203 1 .34 1.32 1.773.319 1.433-.599 2.845-.917 1.412-1.535 2.834-1.052 2.474-1.052 3.525 0 1.04.637 1.04h.013q.649-.01 1.587-.494t2.01-.505q2.267 0 2.143 1.938-.845-1.01-1.968-1.02h-.035q-1.108 0-2.305.638-.87.465-1.71.465-.332 0-.66-.073-1.155-.258-1.01-2.422.062-1.237.113-3.875.052-2.639.474-4.143.423-1.505 1.185-1.773.241-.084.699-.084.327 0 .765.043.227-.021.041-.248-.39-.1-.795-.1-.837 0-1.74.43-.257.073-.652.073h-.1q-.464-.011-.67-.609.02-.35.618-.515.208-.058.39-.058zm5.395 13.796q.643 0 1.017.547-.247.412-1.195.639-.701 0-1.443-.598.955-.588 1.621-.588zm-6.26-2.38q0 .824.228 1.442.597 1.093 1.607 1.114h.061q.996 0 2.516-.65 1.018-.435 1.797-.435.42 0 .77.126 1 .36 1.185 1.422.185 1.062.721 2.134-.845-.845-1.062-1.958-.216-1.114-1.205-1.248-.16-.021-.326-.021-.872 0-1.962.588-1.28.691-2.97.691h-.05q-1.721-.01-1.917-1.134-.196-1.123.608-2.071zM160.513 0q-.239 0-.544.087-.433.124-.763.35-.371.269-.35.62-.021.473.412.772.34.234.805.234.128 0 .267-.017-.866 1.566-.918 4.761-.051 3.195-.154 4.39-1.155.97-1.155 2.258t.598 1.721q.598.433 1.917.433 1.299 0 2.742-.495.845.825 2.082.825.762 0 1.319-.598.35 1.731 2.082 2.659-.763-2.824-.742-3.463.185-2.103-.711-2.72-.868-.6-1.88-.6l-.068.001q-1.134 0-2.299.567-.628.306-.959.306-.283 0-.35-.223-.144-.485.423-1.99.567-1.504 1.896-3.74 1.33-2.237.845-3.845-.484-1.608-1.628-1.938-.678-.195-1.309-.195-.433 0-.845.092-.227-.185-.526-.237-.088-.015-.187-.015zm12.081.735q-.037 0-.073.012-.247.144-.185.31.041.123.237.164.037.008.07.008.142 0 .208-.142.083-.175-.062-.278-.103-.074-.195-.074zm.17-.12q-.115 0-.273.05-.464.144-.217.546.116.189.442.189.367 0 1.001-.24.577-.228 1.01-.475l-.103-.02-.948.37q-.74.253-1.03.253-.04 0-.073-.005-.258-.041-.289-.237-.03-.196.155-.3.103-.056.197-.056.074 0 .143.036.155.083.165.196.01.114-.072.237.268-.082.175-.36-.061-.184-.283-.184zm.21-.132q.343 0 .599.202.494-.09.951-.09.685 0 1.285.203 1 .34 1.32 1.773.319 1.433-.598 2.845-.918 1.412-1.536 2.834-1.051 2.474-1.051 3.525 0 1.04.637 1.04h.012q.65-.01 1.587-.494.938-.484 2.01-.505 2.267 0 2.144 1.938-.845-1.01-1.969-1.02h-.035q-1.107 0-2.304.638-.871.465-1.71.465-.333 0-.66-.073-1.155-.258-1.01-2.422.061-1.237.113-3.875.051-2.639.474-4.143.422-1.505 1.185-1.773.24-.084.698-.084.327 0 .765.043.227-.021.042-.248-.39-.1-.795-.1-.838 0-1.74.43-.257.073-.652.073h-.101q-.464-.011-.67-.609.02-.35.618-.515.208-.058.391-.058zm5.395 13.796q.642 0 1.017.547-.248.412-1.196.639-.7 0-1.443-.598.955-.588 1.622-.588zm-6.26-2.38q0 .824.227 1.442.598 1.093 1.608 1.114h.06q.997 0 2.516-.65 1.019-.435 1.797-.435.42 0 .77.126 1 .36 1.185 1.422.185 1.062.721 2.134-.845-.845-1.061-1.958-.217-1.114-1.206-1.248-.159-.021-.326-.021-.872 0-1.962.588-1.28.691-2.97.691h-.05q-1.721-.01-1.917-1.134-.196-1.123.608-2.071zM173.251 0q-.238 0-.544.087-.433.124-.763.35-.37.269-.35.62-.02.473.412.772.34.234.805.234.129 0 .267-.017-.866 1.566-.917 4.761-.052 3.195-.155 4.39-1.154.97-1.154 2.258t.598 1.721q.597.433 1.917.433 1.298 0 2.741-.495.845.825 2.082.825.763 0 1.32-.598.35 1.731 2.081 2.659-.762-2.824-.742-3.463.186-2.103-.711-2.72-.868-.6-1.88-.6l-.068.001q-1.134 0-2.298.567-.628.306-.96.306-.283 0-.35-.223-.144-.485.423-1.99.567-1.504 1.897-3.74 1.33-2.237.845-3.845-.485-1.608-1.629-1.938-.677-.195-1.308-.195-.434 0-.846.092-.226-.185-.525-.237Q173.35 0 173.25 0zm15.75 3.33c.359 0 .982.245 1.867.727.52.284 1.17.422 1.954.422.548 0 1.161-.067 1.843-.2.791-.155 1.501-.23 2.133-.23.689 0 1.284.09 1.79.261.968.33 1.942.475 2.91.475h.032v.095l-1.297.031-3.417-.348c-2.343.366-3.754.57-4.208.57-.43 0-.954-.177-1.582-.506-.627-.33-1.194-.507-1.708-.507l-1.013.095c-.131-.049-.19-.145-.19-.316 0-.293.3-.484.886-.57zm.93-1.9c-.327 0-.617.445-.898 1.33-.249-.783-.558-1.166-.931-1.166a.62.62 0 0 0-.176.027c-.443.244-.369.675.253 1.297-.526.134-.791.478-.791 1.076.012.573.433.886 1.234.886.8 0 1.482.144 2.056.443a3.707 3.707 0 0 0 1.74.443c.592 0 1.237-.088 1.93-.222 1.327-.293 2.367-.411 3.132-.411l3.132.221c1.662-.049 2.5-.21 2.5-.443-.167-.207-.561-.398-1.17-.57-.85 0-1.64-.096-2.405-.316-1.064-.402-1.925-.6-2.595-.6-2.318.34-3.667.506-4.05.506-.382 0-.955-.165-1.708-.507-.753-.341-1.224-.545-1.392-.57.514-.402.764-.712.728-.98-.036-.268-.235-.425-.57-.443h-.02zM192.66 0c-1.228 0-2.146.002-2.678.007-1.597.017-3.067.657-4.398 1.899-1.33 1.242-1.993 3.125-1.993 5.631h19.57V6.81h-18.684c0-2.03.644-3.558 1.93-4.556 1.286-.998 2.607-1.508 3.955-1.519.449-.004 1.297-.005 2.468-.005 2.343 0 5.98.005 10.314.005V.007C198.81.007 195.115 0 192.66 0zm-7.3 15.31q-.111 0-.217.035-.412.133-.364.4.042.225.369.225.06 0 .129-.007.448-.049.788-.364-.38-.289-.705-.289zm.21-.245q.876 0 2.702 1.043.915.475 2.008.475.527 0 1.096-.11 1.43-.292 3.007-.51.535-.074 1.037-.074.975 0 1.824.28 1.285.424 2.134.546.849.121 2.692.218-1.188.121-2.328.121t-2.692-.254q-.776-.128-1.494-.128-.719 0-1.38.128-1.321.254-3.007.472-.42.055-.828.055-1.22 0-2.312-.491-1.06-.723-2.2-.723-.505 0-1.025.141-.461-.024-.413-.51.267-.654 1.14-.678h.04zm.649-2.473q-.525 0-.979 1.6-.38-1.413-.98-1.413-.09 0-.184.031-.727.461.485 1.77-.97.558-.97 1.407t1.431.946q.442-.116.864-.116.989 0 1.864.637.75.546 2.376.546 1.085 0 2.56-.243 1.81-.51 3.519-.51.648 0 1.282.074 1.583.183 2.697.183.507 0 .916-.038 2.061-.048 2.061-.388-.558-.509-1.576-.679-2.158-.024-3.94-.751-.892-.364-2.186-.364-1.295 0-2.992.364-1.095.276-2.038.276-1.294 0-2.303-.519-1.043-.63-2.207-1.043.97-.751.91-1.248-.061-.498-.595-.522h-.015zm30.554-12c.113 0 .169.409.169.521 0 .113-.056.522-.17.522H205.95c-.131 0-.197-.409-.197-.522 0-.112.066-.521.197-.521zM205.613 0c-.301 0-.452.606-.452 1.113 0 .508.15 1.114.451 1.114h11.5c.28 0 .422-.606.422-1.114 0-.507-.141-1.113-.423-1.113zm5.442 3.47l.001.199.015 6.788-3.031-.006V3.478h-.73v7.674h.2l3.76.007h.53v-.2l-.015-6.788h2.898v6.999h.7v-7.7zm-3.181 12.151c.668 0 1.503.343 1.908.747.353.354.4.823.412 1.258h-4.62c.013-.435.06-.904.413-1.258.404-.404 1.22-.747 1.887-.747zm0-.374c-.791 0-1.643.366-2.143.866-.512.512-.57 1.186-.57 1.69V18h5.427v-.197c0-.504-.039-1.178-.55-1.69-.5-.5-1.372-.866-2.164-.866zm6.821-2.407q.505 0 1.028.22l-.996 1.008-1.021-1.008q.485-.22.99-.22zm-2.179 1.319l1.009 1.009-1.009 1.009q-.44-1.048 0-2.018zm4.358.052q.44 1.047 0 2.017l-1.008-1.009 1.008-1.008zm-.789-.854q.31.142.492.492l-1.371 1.383 1.358 1.358q-.168.337-.504.492l-1.358-1.358-1.332 1.332q-.337-.207-.492-.504l1.332-1.32-1.397-1.396q.143-.337.505-.479l1.384 1.384 1.383-1.384zm-1.358 3l1.01 1.01q-.492.22-.997.22-.504 0-1.021-.22l1.008-1.01zm-.025-3.944q-1.332 0-2.102.867-.77.866-.77 1.9 0 1.165.9 1.986.898.821 1.946.834 1.267-.013 2.062-.873.796-.86.796-1.946l-.013.026q.013-.983-.783-1.889-.795-.905-2.036-.905zM223.051 0q-1.436.033-2.378 1.04-1.04 1.14-1.14 2.28 0 .263.298.263h13.805q.298 0 .298-.313 0-.314-.298-.314h-13.36q.827-2.114 2.478-2.345h10.882q.298 0 .298-.314 0-.297-.298-.297zm3.683 5.573q.933.553.933 1.658h-1.859q0-1.105.926-1.658zm.933 2.173q-.21.739-.933.739-.724 0-.911-.74zm5.36 1.291v.881h-12.58v-.88zm-6.293-3.979q-1.426.538-1.426 2.307 0 .672.291 1.12h-5.651v1.948h13.572V8.485h-5.63q.292-.448.292-1.12 0-1.77-1.448-2.307zm-3.981 10.119c.792 0 1.784.407 2.263.887.42.42.475.976.49 1.493h-5.482c.015-.517.07-1.074.49-1.493.48-.48 1.447-.887 2.24-.887zm0-.443c-.94 0-1.95.434-2.543 1.026-.607.608-.676 1.408-.676 2.007V18h6.439v-.233c0-.599-.046-1.399-.653-2.007-.593-.592-1.627-1.026-2.567-1.026zm10.509-2.154v4.763h-3.195V12.58zm-3.852-.672V18h4.524v-6.092zm24.367-9.535v2.341h-17.242V2.373zM236.598 0v1.772h-.664v3.543h18.445V1.772h-.538V0h-.601v1.772h-1.487V0h-.601v1.772h-1.487V0h-.602v1.772h-1.455V0h-.633v1.772h-1.455V0h-.601v1.772h-1.487V0h-.601v1.772h-1.487V0h-.601v1.772h-1.456V0h-.6v1.772h-1.488V0zm1.598 7.772l-2.262 2.674h1.103l1.16-1.382 1.17 1.382 1.136-1.382 1.17 1.382 1.16-1.382 1.17 1.382 1.159-1.382 1.17 1.382 1.137-1.382 1.17 1.382 1.17-1.382 1.137 1.382 1.17-1.382 1.16 1.382h1.103l-2.263-2.674-1.17 1.292-1.137-1.292-1.17 1.292-1.17-1.292-1.137 1.292-1.17-1.292-1.16 1.292-1.17-1.292-1.159 1.292-1.17-1.292-1.137 1.292-1.17-1.292zm-.595 7.693q-.105 0-.205.032-.388.126-.342.377.038.213.347.213.056 0 .121-.007.423-.046.743-.343-.357-.272-.664-.272zm.198-.231q.825 0 2.546.983.863.447 1.893.447.497 0 1.032-.104 1.349-.274 2.835-.48.504-.07.977-.07.92 0 1.72.264 1.211.4 2.011.515.8.114 2.537.205-1.12.115-2.194.115-1.074 0-2.537-.24-.732-.12-1.409-.12t-1.3.12q-1.245.24-2.834.445-.397.052-.78.052-1.151 0-2.18-.463-.998-.682-2.074-.682-.475 0-.966.133-.434-.023-.388-.48.251-.617 1.074-.64h.037zm.611-2.331q-.494 0-.922 1.509-.358-1.333-.924-1.333-.084 0-.173.03-.686.434.457 1.668-.914.526-.914 1.326t1.348.891q.417-.109.815-.109.931 0 1.756.6.707.515 2.24.515 1.022 0 2.412-.229 1.707-.48 3.317-.48.611 0 1.208.069 1.493.173 2.543.173.477 0 .863-.036 1.943-.046 1.943-.366-.526-.48-1.486-.64-2.034-.022-3.714-.708-.84-.343-2.06-.343-1.22 0-2.82.343-1.032.26-1.921.26-1.219 0-2.17-.489-.983-.594-2.08-.982.914-.709.857-1.178-.057-.468-.56-.49l-.015-.001z"/></svg>