<svg xmlns="http://www.w3.org/2000/svg" width="118.789" height="18"><path d="M12.138 6.585v4.845h-3.25V6.585zM8.22 5.902v6.196h4.601V5.902zm10.513-2.969v1.823q-.403-.6-2.415-.6H14.83V2.933zm.023-.683q-.82.152-2.438.152h-1.997v2.285h1.997q1.056 0 1.511.22.463.22.904.63l.023 10.213h.88V2.25zm8.027 1.135h4.806q1.534 0 1.288 1.37-.061.512-.736 1.167L25.042 4.06q.736-.675 1.741-.675zm-4.042-.238q.04 0 .092.034.225.143.532.583.307.44.94.624 8.173 2.128 8.64 2.128h.014q.488-.44.691-.44.053 0 .087.03.163.143-.113.501t.133 1.135q-.017.21-.163.21-.024 0-.052-.005-.194-.04-.583-.777-.327-.328-4.194-1.31-3.866-.982-4.664-1.084-.391-.067-.66-.067-.307 0-.455.088-.276.163-.603.194l-.035.002q-.277 0-.006-.493.286-.522.276-.992-.008-.36.123-.36zm1.938 2.263h.015l7.058 1.76q-.382.822-1.337.822-.066 0-.136-.004-1.44-.262-2.297-.262-.215 0-.393.016-.323.03-.816.03-.862 0-2.242-.09-.696-.185-.47-1.239.22-1.033.618-1.033zm-2.058-3.16q-.632 0-.658.777-.03.93-.368 1.575-.337.645-.03 1.054.153.102.352.102.2 0 .445-.102.837-.291 1.334-.291.062 0 .119.004-.45.716-.45 1.964.143.84 1.043.9.818.132 1.607.132.434 0 .858-.04.306-.028.679-.028 1.083 0 2.727.243.06.003.12.003 1.183 0 1.865-1.169l.286.082q.573.962 1.125 1.002.798-.204.328-1.125 0-.552.163-.797.328-.614.123-.89-.104-.141-.347-.141-.233 0-.594.13-.225.062-.552.328.552-.88.634-1.453.061-1.555-1.841-1.698h-5.463q-.818.02-1.697 1.023-.594-.368-1.535-1.555-.148-.03-.273-.03zm2.487 8.15v.404h-2.137V10.4zm-1.075.796q1.34 0 1.853.683.512.683.512 1.227-.012.848-.708 1.48-.696.633-1.657.633-.974 0-1.67-.633-.695-.632-.695-1.467 0-.557.417-1.24.418-.683 1.948-.683zm-1.67-1.214v.949q-.455.265-.834.86-.38.594-.393 1.315 0 .848.702 1.714.702.867 2.195.93 1.48-.063 2.188-.93.709-.866.709-1.701-.013-.734-.392-1.335-.38-.6-.848-.866v-.936zm9.147 3.014c.772 0 1.739.397 2.207.865.41.41.463.952.478 1.457h-5.349c.015-.505.069-1.048.478-1.457.468-.468 1.413-.865 2.185-.865zm0-.432c-.917 0-1.904.423-2.482 1.001-.592.593-.66 1.373-.66 1.957v.228h6.282v-.228c0-.584-.045-1.364-.637-1.957-.578-.578-1.587-1.001-2.504-1.001zM44.074 3.4c.186 1.01.728 1.476 1.413 1.476.435 0 .927-.188 1.422-.543-.018.807.197 4.033-2.586 4.033H44.3a3.88 3.88 0 0 1-.343.016c-2.694 0-2.646-3.079-2.698-4.06.445.55.868.757 1.246.757.905 0 1.544-1.188 1.569-1.68zm-3.57-1.15c-.054 2.167-.437 5.302 1.699 6.534.23.256.89.381 1.64.381 1.098 0 2.386-.268 2.79-.786 1.356-.94 1.14-4.016.996-6.111h-.828c-.026 1.033-.592 1.716-1.171 1.716-.497 0-1.003-.502-1.186-1.716H43.6c-.042 1.113-.66 1.906-1.253 1.906-.494 0-.972-.55-1.087-1.924zm10.672 9.128q.332 0 .332.347v2.668h-1.01l.33-2.81q.017-.205.348-.205zm.016-.426q-.805 0-.852.457-.332 2.984-.71 3l-7.324.268-.758-.032q-.852-.9-1.515-.9l-.49-.031q-1.341.252-1.61.252-.189 0-.189.253 0 .347.537.347.921-.147 1.413-.147.09 0 .165.005.268 0 .442.221-.308.381-1.378.381l-.169-.002q-1.215-.032-2.146-.316-.458 0-.458.537.047.49 3.425.505l1.5-.158 8.554-.047 2.4.031v-3.85q-.016-.774-.837-.774zm7.228-8.019v4.845h-3.25V2.933zm-3.918-.683v6.196h4.602V2.25zm2.301 10.629c.805 0 1.814.414 2.302.902.426.426.482.992.498 1.518h-5.576c.015-.526.071-1.092.498-1.518.488-.488 1.472-.902 2.278-.902zm0-.451c-.956 0-1.984.441-2.586 1.044-.619.618-.689 1.432-.689 2.04v.238h6.55v-.237c0-.61-.047-1.423-.665-2.04-.603-.604-1.654-1.045-2.61-1.045zm6.656-9.656q.695 0 .695.917 0 .806-.695 1.596-.696-.79-.696-1.596 0-.917.696-.917zm0 3.525q.49 0 .49 1.059 0 .6-.49 1.107-.49-.506-.49-1.107 0-1.06.49-1.06zm0 3.193q.49 0 .49 1.06 0 .6-.49 1.106-.49-.506-.49-1.107 0-1.059.49-1.059zm0-7.24q-1.265 0-1.265 1.439-.016.9.419 1.414.435.514.387.688-.553.648-.553 1.565 0 .759.648 1.628-.648.648-.648 1.565 0 .759.648 1.613.08.205-.443.964-.521.759-1.075 2.624h.696q.348-1.233.617-1.763.268-.53.569-.861.316.332.577.861.26.53.608 1.763h.712q-.522-1.865-1.067-2.624-.546-.759-.451-.964.632-.854.632-1.613 0-.917-.6-1.565.6-.87.6-1.628 0-.917-.537-1.565-.048-.174.38-.688.426-.513.426-1.414 0-1.439-1.28-1.439zM66.9 7.043V8.36h2.907V7.043h-.57c-.165.293-.355.483-.569.57a.818.818 0 0 1-.635 0c-.209-.087-.397-.277-.563-.57zm1.764-4.793v2.183h-.66v2.67h.712V5.43h.826V3.14h1.02c.182 1.424.676 2.481 1.483 3.174.807.692 1.803 1.093 2.99 1.204 1.186.11 1.965.267 2.337.468.372.202.558.406.558.611h1.447c-.221-.53-.518-.933-.89-1.21-.371-.277-1.062-.45-2.07-.522-1.008-.071-1.815-.203-2.42-.397a3.858 3.858 0 0 1-1.62-1.032c-.474-.495-.838-1.557-1.091-3.186zm-.267 11.678l-1.541 1.822h.751l.79-.942.797.942.775-.942.797.942.79-.942.797.942.79-.942.797.942.774-.942.798.942.797-.942.775.942.797-.942.79.942h.751l-1.541-1.822-.797.88-.775-.88-.797.88-.798-.88-.774.88-.797-.88-.79.88-.797-.88-.79.88-.797-.88-.775.88-.797-.88zM85.246 3.423q-.077.145-.174.318l-.163.953q0 .501.163.934.174.376.434.674-1.743-.317-3.14-.471.877-.52 1.378-1.156.51-.635 1.502-1.252zm4.111-.077q.53.039 1.782.8 1.251.75 2.58 1.242-.972.057-2.118.414-1.156.346-2.427.52.202-.241.405-.684.192-.443.192-.944 0-.51-.183-.953-.096-.212-.23-.395zm-2.026-.443q.333 0 .64.135.327.135.577.366.25.221.405.54.125.317.144.683.02.366-.115.684-.145.317-.366.568-.231.26-.55.404-.317.135-.683.144l-.047.001q-.33 0-.636-.126-.328-.134-.578-.356-.24-.221-.385-.54-.135-.317-.154-.692 0-.357.134-.674.126-.318.347-.569.231-.26.549-.385.318-.173.674-.183h.044zm-.053-.653q-.63 0-1.243.133-1.329.29-2.696 1.724-1.367 1.425-2.398 1.521l-.019.674q2.34.203 4.593.617.843.154 1.773.154 1.557 0 3.36-.434 2.869-.693 3.64-.837h1.27v-.828h-1.31q-.933-.318-2.503-1.262-1.56-.944-2.975-1.28-.757-.182-1.492-.182zm5.938 10.656q-.3.302-.3 1.104 0 .82.3 1.121h-9.935q.3-.301.3-1.12 0-.803-.3-1.105zm-11.859-.618q-.435 0-.418.284-.017.334.418.334h1.087q.402.302.402 1.104 0 .82-.402 1.121h-1.07q-.452 0-.452.284 0 .335.435.335H95.14q.418 0 .418-.335 0-.284-.435-.284h-1.07q-.402-.301-.402-1.12 0-.803.402-1.105h1.087q.418 0 .418-.334 0-.284-.418-.284zm16.79-9.814a.218.218 0 0 0-.057.008c-.11.03-.141.121-.095.274l.796 2.06h.389l-.846-2.18c-.044-.108-.106-.162-.187-.162zm-.657.166a.258.258 0 0 0-.072.011c-.126.037-.15.131-.07.284l.727 1.881h.388l-.766-2c-.048-.117-.117-.176-.207-.176zm1.965 3.04c.062 0 .133.01.212.032v.1a.713.713 0 0 0-.214-.038.387.387 0 0 0-.149.027 1.29 1.29 0 0 1-.383.08l.05-.05c.146-.053.262-.096.348-.13a.378.378 0 0 1 .136-.022zm-.076.22l-.18.06c.067.027.127.047.18.06-.04-.033-.04-.073 0-.12zm.149 0c.02.04.013.084-.02.13a.617.617 0 0 0 .12-.04c-.007-.033-.04-.063-.1-.09zm-.05-.069c.087 0 .146.033.18.1l.089.05.01.05-.09.02a.33.33 0 0 1-.175.044c-.1 0-.22-.032-.362-.095h-.22v-.07h.23a.849.849 0 0 1 .338-.099zm-1.801-.826l.677 1.244c.044.062.085.093.123.093.02 0 .038-.008.056-.023l.219-.14c-.014-.046-.067-.116-.16-.208-.092-.093-.112-.204-.06-.334.03-.073.088-.11.173-.11.066 0 .148.022.246.065.212-.127.399-.19.561-.19l.046.001a1.98 1.98 0 0 1 .07-.398zm1.909.567c-.17 0-.392.073-.665.22-.06-.067-.12-.1-.18-.1-.059 0-.09.03-.094.09-.003.06.05.137.16.233.109.097.16.178.154.244l-.03.01a.49.49 0 0 0 .199.344.806.806 0 0 0 .495.135c.1 0 .144-.025.132-.076a.157.157 0 0 1 .03-.144h-.057c-.186 0-.235-.031-.147-.095.065-.047.117-.07.156-.07a.07.07 0 0 1 .048.016c-.027-.1.026-.153.16-.16a5.674 5.674 0 0 1-.34-.647h-.021zm3.121.276a.304.304 0 0 0-.143.043c-.146.08-.17.368-.07.866.345-.372.48-.629.403-.772-.049-.091-.112-.137-.19-.137zm-3.836.461l-.289.18c-.02.304-.082.517-.189.636a1.22 1.22 0 0 1 .27-.005c.079.01.155.048.228.115.073-.213.156-.382.249-.508-.173-.126-.262-.265-.269-.418zm2.975 2.117c-.145 0-.28.07-.407.212.239.007.398.083.478.229.066-.166.15-.259.249-.279.1-.02.046-.064-.16-.134a.499.499 0 0 0-.16-.028zm-3.363-1.082c-.259 0-.421.146-.488.438-.093.405-.106 1.035-.04 1.891.08.982.173 1.795.28 2.439l-.12.179h3.304l-.687-.279c.2-.975.448-1.69.747-2.145.298-.454.348-.748.15-.88a.338.338 0 0 0-.19-.064c-.134 0-.267.098-.398.292l-1.344 1.911-.239-.02c-.146-1.486-.302-2.594-.467-3.324-.08-.292-.25-.438-.508-.438zm-.288-5.094c.192 0 .32.112.387.336l.856 2.23h.428c-.08.265-.119.501-.119.707.046.185.134.371.264.557.125.18.1.27-.075.27l-.02-.001c.047.066.04.106-.02.12.053.026.06.054.02.084-.04.03-.056.094-.05.194.02.292.098.53.234.712.112.15.214.224.305.224a.17.17 0 0 0 .059-.01.35.35 0 0 1 .118-.027c.039 0 .066.014.08.041.027.05-.008.102-.104.155a.248.248 0 0 1-.121.028.755.755 0 0 1-.317-.093c-.196-.096-.373-.393-.532-.89h-.279a.767.767 0 0 0-.199.348c.239.77.435 1.897.587 3.384l1.344-1.891a.93.93 0 0 1 .279-.28c.11-.19.244-.287.401-.287.05 0 .102.01.156.03l.388-1.026a2.176 2.176 0 0 0-.816-.13.8.8 0 0 1 .15-.497c.251.16.494.275.726.348-.206-.657-.164-1.065.124-1.224a.591.591 0 0 1 .282-.084c.158 0 .29.094.395.283.163.292-.021.654-.552 1.085a1.729 1.729 0 0 0 .796.11.777.777 0 0 1-.15.517 1.732 1.732 0 0 0-.746-.348l-.259 1.045c.352.126.443.245.274.358a1.191 1.191 0 0 0-.38.417c-.049.328-.184.68-.406 1.056-.236.398-.45.982-.642 1.752l.756.328-.05.389h-4.25l.438-.518c-.212-2.064-.287-3.382-.224-3.956.063-.574.208-.891.433-.951.16-.16.223-.332.19-.518l-.25-.447c-.39.285-.587.67-.587 1.154v5.236h-.219V7.334c0-.577.236-1.028.707-1.353l-.647-1.165h.458l-.707-1.831c-.1-.253-.054-.415.135-.488a.708.708 0 0 1 .254-.052c.086 0 .166.02.238.062.047-.146.181-.23.404-.254a.539.539 0 0 1 .055-.003zm10.639.33q.297 0 .555.23.258.23.258.56 0 .296-.22.543-.22.247-.593.247-.351 0-.576-.258-.225-.258-.225-.532 0-.297.225-.544.225-.247.576-.247zm-1.097 2.206q-.066.011-.077.077 0 .066.077.077.076-.011.076-.077t-.076-.077zm0-.022q.11 0 .11.099t-.11.12q-.066-.01-.132-.054.033-.165.132-.165zm.283-.118q-.081 0-.174.008.11.055.044.143-.055-.088-.153-.088-.187 0-.187.23.11.067.104.132-.005.066-.038.1.077.065.153.383.044 0 .044-.032 0-.33.022-.44.1-.208.275-.214h.015q.165 0 .27.116.11.12.072.274-.039.154-.478.34v.033q.68-.175.62-.609-.052-.376-.589-.376zm.298-.123q.429 0 .483.526.055.527-.856.703.154.077.253.253.098.175.11.362-.046.014-.088.014-.089 0-.16-.064-.104-.093-.269-.477-.237-.637-.57-.637h-.111q.022-.083.069-.083.027 0 .063.028.032-.05.103-.05.053 0 .128.028-.154-.164-.154-.318l.021.001q.08 0 .1-.078l.008.001q.044 0 .24-.1.213-.11.63-.11zm-.381 2.043q.064 0 .14.053-.286.198-.264 1h-.131q-.022-.747.093-.94.068-.113.162-.113zm1.007-1.956q.395.022.856.785.462.763.462 2.223h-.34q-.012-1.152-1-1.152v1.163l-.23-.01V5.993q.625-.472.252-1.384zm-3.7 3.546q.385 0 .472.11-.395.055-.592.351-.187-.164-.225-.312-.039-.149.345-.149zm3.177-1.431q.025 0 .051.004v1.142h.68V6.729q.021-.003.04-.003.356 0 .356 1.145-.12 2.986-.406 3.765l.241.55h-3.623l.747-.341q-.505-1.658-1.12-2.975-.022-.154.187-.297.053-.036.11-.036.166 0 .362.31l1.526 2.043h.373l.088-3.02q0-1.145.388-1.145zm.413-4.475q-.516.011-.829.357-.312.346-.312.774 0 .362.164.57.132.22.33.33-.538.066-.665.187-.126.12-.104.175-.026-.032-.061-.032-.025 0-.054.016-.071.038-.06.137-.319.11-.319.68.144-.08.207-.08.014 0 .024.004.23 0 .603.89-.076.054-.214.24-.137.187-.137.648v.725l.275-.011q0 .615-.077 2.459l-1.526-2.086q-.23-.307-.736-.307v-1.56q.011-.405-.153-.515-.418-.275-.418-.593 0-.44.418-.44.329 0 .395.286t.175.44q.09.112.16.112.032 0 .06-.025.088-.077.033-.159-.055-.082-.154-.203 0-.68-.67-.692-.68 0-.68.681 0 .44.45.747.12.142.11.35v1.57q-.428 0-.55.17-.12.171.473.753.757 1.57 1.032 2.755l-.802.45.055.517h4.7l-.385-.934q.33-1.449.34-3.754l.604-.011q.066-2.624-1.208-3.513.626-.33.659-.988 0-.472-.346-.79-.346-.319-.807-.33zM98.712 13.795l-1.654 1.955h.807l.847-1.01.855 1.01.83-1.01.856 1.01.847-1.01.856 1.01.847-1.01.855 1.01.83-1.01.856 1.01.855-1.01.831 1.01.855-1.01.848 1.01h.806l-1.654-1.955-.855.945-.83-.945-.856.945-.855-.945-.831.945-.855-.945-.847.945-.856-.945-.847.945-.855-.945-.83.945-.856-.945z"/><path d="M8.22.375c-9.625 0-9.625 17.25 0 17.25m0-17.25h102.319M8.22 17.625h102.319m7.687-17.25v17.25M110.539.375c9.625 0 9.625 17.25 0 17.25" fill="none" stroke="#000"/></svg>