<svg xmlns="http://www.w3.org/2000/svg" width="88.426" height="18"><path d="M2.25.46l.011.001q.147.011.101.18-.032.12-.19.12-.063 0-.147-.019.087-.281.225-.281zM5.153.339l.18.022-.248 1.17q-.495 2.34-.81 3.037-.517-.27-1.001-.303-.112-.008-.222-.008-.366 0-.712.087l-.068-1.036h1.08q.173.013.319.013.63 0 .739-.237.135-.293.248-.788L5.153.338zM2.97 4.77q.653 0 1.26.338v.022q0 .428-.405.675-.697.18-.697.225l.742.068h.113q.382-.068.697-.405.18.81.293.855.382.045 1.08.787L7.92 9.72q1.958 2.813 2.925 4.118v.022q-2.655-1.282-3.082-1.53-1.688-.742-3.195-1.8-1.575-1.237-1.8-2.182 0-.36.36-.878l.81-1.08-.09-.022q-.338.112-.788.54-.608.652-.698 1.102H2.34l-.068-.72q0-.337.136-.81v-.112q-.338-1.26-.45-1.26l.45-.248-.068.203q0 .225.18.337h.113q.202 0 .247-.292V5.04q0-.09-.157-.247l.247-.023zm.54 5.895q.113 0 .248.518.225 1.395 1.8 3.712-.248.113-.428.315-.63-.652-.877-.652H4.23l.023-.18q0-1.08-.743-3.713zm.765.675q1.26.99 2.745 1.868v.63l.045 1.327v.023l.023.022h-.023q-.54-.427-1.08-.517l-1.035-1.62q-.45-.81-.675-1.71v-.023zm.293 3.96q.405.495.517.495l.09-.022.495-.428.113 1.98v.045l-.496-.045q-.404.045-.404.135-.18-.067-.72-.135l-.068.045h-.157l.607-2.07zm1.08-3.555l.855.473q4.882 2.43 4.95 2.43 1.215 1.395 2.34 2.587v.023l-1.575.27-1.688-1.823-1.44-1.597q-.922-.72-3.442-2.34v-.023zM4.928 0l-.563 2.205q-.135.383-.27.495-.99-.517-1.957-1.643.427-.067.472-.382.045-.315-.214-.439-.083-.04-.161-.04-.163 0-.3.175-.202.259-.101.608t.708.922q.608.574 1.373 1.047L1.8 2.79l.18 1.777q-.113.023-.405.203-.517.405-.517.697v.023l.022.023.292-.023.18.023q.18 0 .405.945-.134.382-.134.855v.022q0 1.328.99 2.52.967 3.308.967 4.545l-.022.315q0 .18.27.225l-.676 2.318-.315-.023-1.012.023-.405-.023q-.9.225-.9.585v.09q.157-.112.247-.112l.293.022.878-.045h.18l.18.045h.36l.202-.022.135.022 1.642.045 2.296-.067.675.045.36-.045.337.045v-.023q-.248-.337-.967-.495 0 .045-.495.045H6.39l-.112-2.07v-.022l.495.247q.517.585.63.585.135 0 .225-.157v-.023q-.158-1.282-.158-2.34v-.045l.608.383q.495.247 1.575 1.507Q12.015 18 12.06 18l1.778-.27q.652-.045.652-.337l-.022-.135-1.665-1.778q1.507.945 2.227 1.26h.068q-.428-.427-1.26-1.012l.405.157q.247-.067.247-.225v-.067l-.022-.113-3.893-2.745q-1.8-2.677-2.97-4.14-1.485-2.16-2.25-2.385-.068 0-.225-.63-.27-.585-.518-.72.675-2.205 1.036-4.837L4.928 0zm7.002 2.684c-.577.046-.895.334-.956.865.076.576.395.88.956.91.56-.03.857-.334.887-.91-.046-.53-.341-.82-.887-.865zm.068-1.91c.41 0 .789.075 1.137.227a3 3 0 0 1 1.547 1.536c.152.34.228.701.228 1.08 0 .394-.076.762-.228 1.103a2.895 2.895 0 0 1-2.684 1.718c-.41 0-.793-.072-1.149-.216a2.737 2.737 0 0 1-.921-.603 2.957 2.957 0 0 1-.614-.899 2.686 2.686 0 0 1-.228-1.103c0-.379.076-.74.228-1.08.151-.342.356-.645.614-.91.258-.266.565-.474.921-.626.356-.152.74-.228 1.149-.228zM11.952 0c-.5 0-.97.095-1.41.284-.44.19-.819.448-1.137.774a3.79 3.79 0 0 0-.763 1.137c-.19.433-.284.899-.284 1.4 0 .5.095.966.284 1.398.19.433.444.808.763 1.127a3.61 3.61 0 0 0 2.547 1.046c.5 0 .967-.095 1.4-.284a3.79 3.79 0 0 0 1.137-.762 3.55 3.55 0 0 0 .773-1.127c.19-.432.285-.898.285-1.399 0-.5-.095-.966-.285-1.399a3.687 3.687 0 0 0-1.91-1.91 3.444 3.444 0 0 0-1.4-.285zm8.103.696q.927 0 .927 1.222 0 1.075-.927 2.129-.927-1.054-.927-2.129 0-1.222.927-1.222zm0 4.7q.653 0 .653 1.412 0 .8-.653 1.475-.653-.674-.653-1.475 0-1.412.653-1.412zm0 4.257q.653 0 .653 1.413 0 .8-.653 1.475-.653-.674-.653-1.475 0-1.413.653-1.413zm0-9.653q-1.686 0-1.686 1.918-.021 1.201.558 1.886.58.685.517.917-.738.864-.738 2.087 0 1.012.864 2.17-.864.865-.864 2.088 0 1.011.864 2.15.106.273-.59 1.285-.695 1.012-1.433 3.499h.927q.464-1.644.822-2.35.359-.706.759-1.149.422.443.77 1.149.347.706.81 2.35h.95q-.696-2.487-1.423-3.499-.728-1.012-.601-1.286.843-1.138.843-2.15 0-1.222-.801-2.086.8-1.16.8-2.171 0-1.223-.716-2.087-.063-.232.506-.917.57-.685.57-1.886Q21.762 0 20.054 0zm13.504.392a2.854 2.854 0 0 1-1.963.747c-.295 0-.604-.039-.928-.115A3.776 3.776 0 0 0 29.8.922c-.865 0-1.736.303-2.61.91.709-.643 1.255-.991 1.639-1.046a9.39 9.39 0 0 1 1.213-.058 32.779 32.779 0 0 1 .873.011c.815 0 1.697-.116 2.644-.347zm-3.93.91c.342 0 .721.047 1.14.141a9.454 9.454 0 0 0 2.34.238c.178-.006.328-.009.45-.009.39 0 .5.03.332.09-.222.08-.664.13-1.327.15-.663.021-1.228.188-1.695.501-.319.213-.692.32-1.119.32-.2 0-.41-.023-.633-.07-.701-.146-1.172-.306-1.414-.481.183-.326.536-.576 1.057-.751.255-.086.545-.129.87-.129zm-3.26 1.794zm.64-.539c-.107 0-.557.158-.748.387a.532.532 0 0 0-.116.351c-.015.08.013.184.097.323.08.06.166.088.248.088.183 0 .34-.135.324-.33-.018-.209-.103-.314-.263-.314a.536.536 0 0 0-.182.034c.01-.034.016-.064.03-.085.157-.214.502-.336.61-.418.033-.024.029-.036 0-.036zm-1.095 1.745zm1.087-1.936c.168 0 .318.074.451.222.259.288.374.578.345.87-.03.292-.115.53-.257.713a5.081 5.081 0 0 0-.452-.022c-.416 0-.724.066-.924.197l-.114-.02c.034-.06.1-.18.128-.242a.453.453 0 0 0 .049 0l.181-.04c.054-.012-.382-.224-.387-.224l.005.003.03.185a.084.084 0 0 0 .007.024c-.05.089-.12.212-.149.27l-.1-.018c.133-.492.18-.834.143-1.026-.037-.192.138-.424.526-.695.188-.131.36-.197.518-.197zm1.234 1.016c.015 0 .033.021.056.063 1.077.902 1.952 1.353 2.623 1.353.093 0 .182-.009.267-.026.497-.1.924-.15 1.282-.15.148 0 .284.008.408.025.425.058.707.302.844.732.138.43.167.698.088.807-.08.108-.403.181-.97.219a7.091 7.091 0 0 1-1.746-.113 2.83 2.83 0 0 0-.51-.057c-.273 0-.426.073-.46.22-.02.089-.077.133-.172.133-.14 0-.365-.099-.672-.296-.513-.33-.886-.694-1.12-1.095-.233-.4-.286-.7-.156-.9.129-.2.194-.424.194-.67 0-.163.014-.245.044-.245zm6.216 1.292c.397 0 .809.189 1.235.567.55.488.836.884.857 1.189.021.304-.12.492-.425.563a.846.846 0 0 1-.193.022c-.25 0-.515-.107-.796-.322-.354-.271-.613-.56-.775-.864-.163-.304-.245-.673-.245-1.107a1.25 1.25 0 0 1 .342-.048zM33.684 0c-.039 0-.08.001-.125.004-1.03.267-2.149.4-3.354.4a16.782 16.782 0 0 1-.593-.007c-1.314 0-2.326.528-3.036 1.584-.508.334-.821.601-.938.801-.117.2-.138.48-.063.839a4.77 4.77 0 0 0-.145.446l-.846.4.35-.01.456-.21a1.31 1.31 0 0 0-.02.157l-.72.478.327-.043.405-.267c.015.062.044.106.087.131.13.076.31.114.54.114.06 0 .125-.002.192-.008.173-.142.434-.213.782-.213.12 0 .252.009.394.026.176.842.843 1.606 2.002 2.29a34.852 34.852 0 0 0-2.055-.082c-.502 0-.823.027-.96.082-.276.108-.417.313-.426.613A2.624 2.624 0 0 0 27.29 7.5h3.892c.05-.167-.141-.45-.575-.851a5.57 5.57 0 0 0 1.472.183c.635 0 1.333-.086 2.094-.258l.676.3c-.248.1-.564.15-.946.15-.157 0-.326-.008-.506-.025a2.17 2.17 0 0 0-.204-.01c-.503 0-.84.2-1.01.598.334.053.633.079.899.079.286 0 .533-.03.74-.091a17.46 17.46 0 0 1 1.474-.076c.26 0 .482.01.666.032.226.026.463.065.677.065.23 0 .432-.045.562-.196.564-.656.533-.69.548-1.046.023-.565-.036-1.245-.394-1.245a.461.461 0 0 0-.227.072c-.411.238-.02.497-.046 1.151 0 0-.058-.853-.894-1.41-.667-.444-1.49-.709-2.515-.726a26.89 26.89 0 0 0-.437-.003c-.8 0-1.384.04-1.753.122a1.969 1.969 0 0 1-1.29-.15c-.425-.196-1.075-.64-1.951-1.333.531.208 1.031.312 1.5.312.475 0 .917-.106 1.328-.318.817-.421 1.587-.642 2.308-.663.722-.021 1.141-.232 1.258-.632-.609-.1-1.23-.159-1.864-.175.592-.225 1-.515 1.226-.87.206-.324.101-.486-.313-.486zM26.2 9.068l-1.616 1.91h.788l.827-.987.836.986.811-.986.836.986.827-.986.836.986.827-.986.836.986.811-.986.836.986.835-.986.812.986.835-.986.827.986h.788l-1.615-1.91-.835.924-.812-.923-.835.923-.836-.923-.811.923-.836-.923-.827.923-.836-.923-.827.923-.836-.923-.811.923-.836-.923zm2.255 3.718v.394h-2.083v-.394zm-1.048.777q1.307 0 1.806.665.499.666.499 1.196-.012.826-.69 1.442-.678.616-1.615.616-.95 0-1.627-.616-.678-.616-.678-1.43 0-.542.407-1.208.407-.665 1.898-.665zm-1.627-1.184v.925q-.444.259-.814.838-.37.58-.382 1.282 0 .826.684 1.67t2.139.906q1.442-.062 2.132-.906.69-.844.69-1.658-.012-.715-.381-1.3-.37-.586-.826-.845v-.912zm9.658.001a2.62 2.62 0 0 0-.234.013c-1.128.121-1.93 1.264-1.753 2.37.078.824.59 1.285 1.15 1.74 1.668 1.022 1.2.645 2.881 1.497l.27-.504C35.751 16.56 35.51 16.41 34.885 16c-.511-.412-.916-.866-.88-1.555-.014-.475.27-.965.589-1.199.255-.192.582-.305.901-.305.242 0 .469.057.667.199.504.248.781 1.071.412 1.59a.979.979 0 0 1-.78.418.722.722 0 0 1-.426-.135c-.256-.142-.448-.639-.185-.915-.12-.128-.291-.284-.419-.284-.085 0-.149.064-.191.213-.284.681.17 1.455.851 1.64a1.3 1.3 0 0 0 .362.056c.78 0 1.505-.653 1.505-1.462.07-.944-.682-1.81-1.625-1.867a2.294 2.294 0 0 0-.228-.014zM50.395 1.728a.066.066 0 0 1 .021.003c-.079.127-.047.198.095.214.174-.048.205-.119.095-.214l.332.143a1.343 1.343 0 0 1-.427.07.377.377 0 0 1-.053.005.253.253 0 0 1-.208-.099c.054-.081.103-.122.145-.122zm.113-.117c-.015 0-.03 0-.044.002-.158.016-.285.118-.38.308.143.128.288.192.437.192.016 0 .033 0 .05-.003a1.32 1.32 0 0 0 .532-.19h.309v-.094h-.309c-.243-.143-.44-.215-.594-.215h-.001zm1.582-.034c.063 0 .09.032.08.095a.54.54 0 0 1-.142.284.713.713 0 0 1-.225.178.119.119 0 0 1-.042.013c-.025 0-.01-.032.042-.096.055-.068.067-.102.035-.102a.122.122 0 0 0-.035.007.124.124 0 0 1-.038.008c-.036 0-.035-.034.002-.102.047-.087.103-.17.166-.25a.501.501 0 0 1 .157-.035zm-.465.557c.079.048.095.091.047.13-.021.018-.04.027-.057.027-.02 0-.036-.013-.05-.038-.023-.048-.003-.087.06-.119zm.544-.72a.403.403 0 0 0-.118.021.633.633 0 0 0-.331.273c-.095.142-.119.245-.072.308-.094.047-.153.107-.177.178-.024.07.008.126.095.165a.136.136 0 0 0 .057.012c.082 0 .189-.063.322-.19.166-.157.272-.296.32-.414.047-.119.055-.213.023-.284-.02-.045-.058-.068-.114-.069h-.005zm-.398-1.1c.172 0 .369.027.588.078.57.135.857.427.865.877.008.45-.22.853-.687 1.209-.21.16-.338.24-.384.24-.057 0 .008-.12.195-.359.34-.434.458-.79.355-1.066-.068-.183-.237-.274-.508-.274-.14 0-.306.024-.5.073-.631-.174-.82-.368-.568-.58.15-.128.356-.193.617-.197h.027zm-2.108 2.647a.249.249 0 0 0 .019.074.802.802 0 0 1 .047.296c0 .119.075.19.225.213.065.01.136.016.214.016.103 0 .217-.01.343-.027.074.31.034.464-.12.464l-.034-.003a.787.787 0 0 0-.101-.006c-.186 0-.457.054-.788.208l-2.76 2.019c.382-.892.716-1.652.987-2.273.43-.144.842-.357 1.257-.419.165-.025.087-.324.119-.51.042-.001.374-.034.592-.052zm.99-1.858h.012c.103.008.391.107.865.297.026.07.07.104.129.104a.35.35 0 0 0 .179-.069.529.529 0 0 1 .289-.095c.058 0 .116.012.173.036.15.063.17.205.06.427-.111.22-.257.406-.439.556-.182.15-.26.312-.237.486.024.174.13.3.32.38.047.284.178.52.391.71.213.19.58.403 1.102.64-.822 1.39-1.232 2.394-1.232 3.01 0 0 .043.213.098.51.088.469.206 1.147.233 1.528a.755.755 0 0 1-.094.45c-.146.24-.898.357-2.249.357l-.263-.001c-.713.072-1.494.108-2.34.108-.636 0-1.31-.02-2.02-.06.173-.522 1.082-.878 2.725-1.067 1.627 0 2.44-.482 2.44-1.446 0-.664-.355-1.73-1.066-3.2.916-.252 1.295-.528 1.137-.829.064-.442-.047-.679-.331-.71a1.13 1.13 0 0 1-.112.005c-.248 0-.392-.096-.433-.29.237-.095.323-.174.26-.237s-.173-.103-.331-.118c.11-.111.07-.214-.12-.309l.428-.663a.46.46 0 0 1 .284-.084c.18 0 .408.068.687.202.158-.015.115-.083-.13-.201a1.46 1.46 0 0 0-.723-.154c.106-.182.209-.273.308-.273zM51.965 0a2.8 2.8 0 0 0-.518.049c-.513.095-.976.466-1.386 1.114-.095.237-.324.584-.688 1.042-.06.198-.04.297.06.297h.012a.638.638 0 0 1 .045-.002c.087 0 .151.02.192.06-.053.04-.081.082-.084.127l-.587-.001c-.446.016-.942.215-1.435.598-1.243 1.067-1.841 2.32-1.825 3.738 0 .192.109.277.311.277.033 0 .07-.003.108-.007.915-.399 2.789-1.164 3.426-1.527.357.61.536 1.565.536 2.863l-.995.19c-2.402.236-3.792.615-4.171 1.137-.522.3-.909 1.35-1.162 3.152-.379 1.895-1.09 2.883-2.132 2.962l-1.754.663-.166.308c.126.11.245.166.356.166l3.223-.166c.22-.727.659-1.63 1.315-2.713.655-1.082.912-2.042.77-2.88.3 1.075.577 2.465.83 4.171.047.411-.451.783-1.494 1.114-.474.032-.71.182-.71.45l2.44-.094c.537 0 .806-.214.806-.64-.174-.38-.194-1.153-.06-2.323.135-1.169-.011-2.117-.438-2.843l4.171-.166c1.359 0 2.038-.348 2.038-1.043l-.118-2.322c0-.885.237-1.644.71-2.275l.498 2.109-.71 3.27a2.35 2.35 0 0 0-.297.628c-.055.198-.09.375-.107.533 0 .127.036.296.107.51.071.213.115.415.13.604a.268.268 0 0 0 .095.095.04.04 0 0 0 .019.005c.022 0 .04-.026.052-.076.036.036.066.054.088.054.028 0 .046-.026.055-.078.035.036.065.054.088.054.027 0 .045-.026.054-.077.025.025.05.037.076.037.006 0 .012 0 .019-.002.031-.008.047-.051.047-.13a14.632 14.632 0 0 1-.178-.605c-.04-.15-.043-.375-.011-.675.015-.08.031-.118.047-.118.032 0 .063.023.095.07 0 .08-.008.19-.024.332a.603.603 0 0 0 .035.332c.025.05.054.074.088.074.02 0 .043-.009.066-.026.048-.016.06-.087.036-.214-.024-.126-.008-.308.048-.545.055-.237-.005-.49-.178-.758.726-.964 1.098-2.18 1.114-3.65-.08-1.042-.285-1.92-.617-2.63a3.38 3.38 0 0 0-1.658-.877c-.411-.347-.348-.7.19-1.055.536-.355.793-.813.77-1.374-.024-.56-.265-.932-.723-1.114a2.525 2.525 0 0 0-.94-.179zm-11.21 17.97c0 .01.002.02 0 .03h.061c-.017-.013-.044-.017-.06-.03zm18.573-6.187c.534.205 1.117.861 1.287 1.402.17.54.15 1.171.03 1.792-.12.61-.36 1.191-.65 1.571-.201.26-.381.41-.552.46h-.16c-.17-.04-.39-.19-.61-.46-.29-.38-.531-.96-.651-1.571-.12-.621-.14-1.252.03-1.792.17-.541.808-1.243 1.276-1.395v-.007zM58.763 0v1.201h-1.081v.771h1.08l-.15 9.09c-.77.4-1.25 1.081-1.481 1.812-.23.751-.24 1.562-.09 2.313.15.75.45 1.411.86 1.942.311.4.722.73 1.202.831v.03c.03.01.06.01.09.01.04 0 .08-.01.12-.01.05.01.1.01.14.01.04 0 .07 0 .11-.01v-.03c.481-.1.892-.43 1.202-.831.41-.53.71-1.191.86-1.942.151-.751.141-1.562-.09-2.313a2.97 2.97 0 0 0-1.48-1.782l-.151-9.12h1.021l.03-.77h-1.141V0h-1.051zm8.169.583q-.371.936-.671 1.996-.274-.15-.54-.15-.264 0-.52.15-.107-1.06-.637-1.996zm-1.22 2.42q.478.054.478.478-.036.441-.477.494-.442-.053-.495-.477.053-.441.495-.494zm.725 1.237q.69 1.643.654 3.958 0 2.314-.901 5.159-.243.46-.487.46-.233 0-.467-.425-.725-2.897-.778-5.124-.053-2.385.601-4.028.16.389.654.424.477-.035.724-.424zM64.158 0q-.6 0-.371.583.618.936.848 2.739-.901 1.96-.901 4.964.053 2.438 1.13 5.972-.512.707-.653 1.166-.051.514.327.514.142 0 .344-.072.442-.39.83-1.06.107 1.378 2.616 3.056.26.138.454.138.229 0 .367-.191.256-.353-.521-.954-2.19-1.466-2.102-2.597 1.2-2.756 1.219-6.06.053-3.127-.884-4.894.212-1.785.742-2.721Q67.94 0 67.444 0zm9.036 1.29l4.851.271c.085.939.043 1.988-.128 3.146-1.81-1-3.384-2.139-4.723-3.417zM78.458 0c-.27 0-.549.175-.836.524L72.38.254c-1.239.32-1.492.816-.759 1.489.143-.031.27-.047.38-.047.273 0 .45.094.531.282.115.264.423.609.925 1.034.501.426 1.862 1.304 4.08 2.636.263.657.553.986.87.986.148 0 .302-.072.462-.216 3.155 1.36 6.202 2.312 9.143 2.853l.414-.325-1.013-1.077c-2.158-.187-4.969-1.026-8.43-2.517a8.956 8.956 0 0 1-.06-3.67l5.87.393c.87-.218.935-.67.193-1.354L79.208.48c-.242-.32-.492-.48-.75-.48zm1.362 14.172c1.074 0 2.418.552 3.068 1.202.57.57.644 1.324.665 2.025h-7.435c.02-.701.095-1.456.664-2.025.65-.65 1.964-1.202 3.038-1.202zm0-.601c-1.275 0-2.646.588-3.449 1.392-.824.824-.918 1.909-.918 2.72V18h8.733v-.316c0-.812-.062-1.897-.886-2.721-.804-.804-2.206-1.392-3.48-1.392z"/></svg>