<svg xmlns="http://www.w3.org/2000/svg" width="57.907" height="18"><path d="M13.234 2.432l4.255 4.7-1.307.75-2.948-5.45zm-9.733-1.28q.806 0 1.557.418v.027q0 .529-.5.835-.862.222-.862.278l.917.083h.14q.472-.083.862-.5.222 1 .361 1.056.473.056 1.335.974L9.619 7.27q2.42 3.476 3.615 5.089v.028q-3.281-1.586-3.81-1.891-2.085-.918-3.948-2.225-1.947-1.53-2.225-2.698 0-.445.445-1.084l1-1.335-.11-.028q-.418.139-.974.667-.75.807-.862 1.363h-.028l-.083-.89q0-.417.167-1.001v-.14Q2.389 1.57 2.25 1.57l.556-.306-.084.25q0 .278.223.417h.139q.25 0 .306-.361v-.084q0-.111-.195-.306l.306-.028zm.667 7.287q.14 0 .306.64.278 1.723 2.225 4.588-.306.139-.528.39-.779-.807-1.085-.807h-.028l.028-.223q0-1.335-.918-4.588zm.946.834q1.557 1.224 3.393 2.308v.779L8.562 14v.028l.028.028h-.028q-.667-.528-1.334-.64l-1.28-2.002q-.556-1-.834-2.113v-.028zm.362 4.894q.5.612.64.612l.11-.028.612-.528.14 2.447v.056l-.613-.056q-.5.056-.5.167-.223-.083-.89-.167l-.084.056h-.194l.75-2.559zM6.81 9.774l1.057.584q6.035 3.003 6.118 3.003 1.502 1.724 2.893 3.198v.028l-1.947.334-2.086-2.253-1.78-1.974q-1.14-.89-4.255-2.893v-.027zM3.84.495q-.85 0-1.563.407-.139.028-.5.25-.64.501-.64.863v.027l.028.028.361-.028.223.028q.222 0 .5 1.168-.166.473-.166 1.057v.028q0 1.64 1.223 3.114 1.196 4.089 1.196 5.618l-.028.39q0 .222.334.278l-.834 2.864-.39-.028-1.251.028-.5-.028q-1.113.278-1.113.723v.111q.195-.139.306-.139l.361.028 1.085-.055h.223l.222.055h.445l.25-.028.167.028 2.03.056 2.837-.084.834.056.445-.056.417.056v-.028q-.306-.417-1.196-.612 0 .056-.611.056h-.807l-.139-2.559v-.027l.612.306q.64.723.779.723.166 0 .278-.195v-.028q-.195-1.585-.195-2.892v-.056l.75.473q.613.306 1.948 1.863 2.92 3.17 2.975 3.17l2.197-.333q.807-.056.807-.417l-.028-.167-2.058-2.197q1.863 1.168 2.753 1.557h.084q-.529-.528-1.558-1.251l.5.195q.307-.084.307-.279v-.083l-.028-.139-4.811-3.393Q10.676 7.687 9.23 5.88q-.417-.612-.529-.695l2.948-2.781q.223-.223.584-.306.39.139.5.473l3.255 6.174q.27.368.54.368.035 0 .071-.007.306-.222.112-.918.5.376.735.376.078 0 .127-.042.25-.083-.056-.862.453.359.714.359.123 0 .204-.08.167-.223-.028-.585L12.428.707l-4.172 3.81Q7.2 3.155 6.45 2.932q-.084 0-.278-.778-.334-.723-.64-.89Q4.947.54 4.001.499q-.08-.004-.16-.004zm19.18.201q.927 0 .927 1.222 0 1.075-.927 2.129-.928-1.054-.928-2.129 0-1.222.928-1.222zm0 4.7q.653 0 .653 1.412 0 .8-.653 1.475-.654-.674-.654-1.475 0-1.412.654-1.412zm0 4.257q.653 0 .653 1.413 0 .8-.653 1.475-.654-.674-.654-1.475 0-1.413.654-1.413zm0-9.653q-1.687 0-1.687 1.918-.02 1.201.559 1.886.58.685.516.917-.737.864-.737 2.087 0 1.012.864 2.17-.864.865-.864 2.088 0 1.011.864 2.15.105.273-.59 1.285-.696 1.012-1.434 3.499h.928q.464-1.644.822-2.35.358-.706.759-1.149.421.443.769 1.149.348.706.811 2.35h.949q-.696-2.487-1.423-3.499-.727-1.012-.6-1.286.843-1.138.843-2.15 0-1.222-.801-2.086.8-1.16.8-2.171 0-1.223-.716-2.087-.063-.232.506-.917t.569-1.886Q24.727 0 23.02 0zm13.504.392a2.854 2.854 0 0 1-1.964.747c-.294 0-.603-.039-.927-.115a3.776 3.776 0 0 0-.868-.102c-.866 0-1.736.303-2.61.91.708-.643 1.255-.991 1.638-1.046a9.417 9.417 0 0 1 1.214-.058 32.862 32.862 0 0 1 .872.011c.816 0 1.697-.116 2.645-.347zm-3.93.91c.341 0 .72.047 1.139.141a9.454 9.454 0 0 0 2.34.238c.178-.006.329-.009.451-.009.389 0 .5.03.331.09-.22.08-.663.13-1.326.15-.663.021-1.229.188-1.696.501-.318.213-.691.32-1.118.32-.2 0-.41-.023-.634-.07-.7-.146-1.172-.306-1.414-.481.184-.326.536-.576 1.058-.751.254-.086.544-.129.87-.129zm-3.26 1.794zm.64-.539c-.108 0-.557.158-.748.387a.532.532 0 0 0-.117.351c-.014.08.014.184.098.323.079.06.166.088.248.088.183 0 .34-.135.324-.33-.018-.209-.103-.314-.264-.314a.536.536 0 0 0-.182.034c.01-.034.016-.064.031-.085.156-.214.502-.336.61-.418.032-.024.028-.036 0-.036zm-1.095 1.745zm1.087-1.936c.168 0 .318.074.451.222.259.288.373.578.344.87-.03.292-.115.53-.256.713a5.081 5.081 0 0 0-.452-.022c-.417 0-.725.066-.925.197l-.113-.02c.034-.06.099-.18.128-.242a.453.453 0 0 0 .048 0l.182-.04c.053-.012-.383-.224-.387-.224l.004.003.03.185a.084.084 0 0 0 .008.024c-.05.089-.12.212-.15.27l-.1-.018c.133-.492.181-.834.144-1.026-.038-.192.137-.424.525-.695.188-.131.361-.197.52-.197zM31.2 3.382c.015 0 .034.021.056.063 1.078.902 1.952 1.353 2.624 1.353.093 0 .182-.009.267-.026.496-.1.924-.15 1.282-.15.147 0 .283.008.407.025.426.058.707.302.845.732s.167.698.088.807c-.08.108-.403.181-.97.219a7.091 7.091 0 0 1-1.746-.113 2.83 2.83 0 0 0-.51-.057c-.273 0-.426.073-.46.22-.02.089-.077.133-.172.133-.141 0-.365-.099-.672-.296-.513-.33-.887-.694-1.12-1.095-.234-.4-.286-.7-.157-.9.13-.2.194-.424.194-.67 0-.163.015-.245.044-.245zm6.217 1.292c.397 0 .808.189 1.235.567.55.488.836.884.857 1.189.02.304-.121.492-.425.563a.846.846 0 0 1-.193.022c-.25 0-.515-.107-.796-.322-.355-.271-.613-.56-.776-.864-.163-.304-.244-.673-.244-1.107a1.25 1.25 0 0 1 .342-.048zM36.649 0c-.04 0-.081.001-.125.004-1.031.267-2.15.4-3.355.4a16.782 16.782 0 0 1-.592-.007c-1.314 0-2.326.528-3.036 1.584-.509.334-.822.601-.938.801-.117.2-.138.48-.063.839a4.77 4.77 0 0 0-.145.446l-.846.4.349-.01.456-.21a1.31 1.31 0 0 0-.02.157l-.719.478.327-.043.404-.267c.016.062.045.106.088.131.129.076.309.114.54.114.06 0 .124-.002.192-.008.173-.142.434-.213.781-.213.121 0 .253.009.395.026.175.842.842 1.606 2.002 2.29a34.852 34.852 0 0 0-2.055-.082c-.503 0-.823.027-.96.082-.276.108-.418.313-.426.613a2.624 2.624 0 0 0 1.351-.025h3.892c.05-.167-.142-.45-.576-.851a5.57 5.57 0 0 0 1.472.183 9.56 9.56 0 0 0 2.095-.258l.675.3c-.248.1-.563.15-.945.15-.157 0-.326-.008-.506-.025a2.17 2.17 0 0 0-.204-.01c-.504 0-.84.2-1.01.598.333.053.633.079.899.079.286 0 .533-.03.74-.091a17.46 17.46 0 0 1 1.473-.076c.26 0 .483.01.667.032.225.026.463.065.676.065.23 0 .433-.045.563-.196.564-.656.533-.69.547-1.046.023-.565-.036-1.245-.394-1.245a.461.461 0 0 0-.226.072c-.412.238-.02.497-.046 1.151 0 0-.058-.853-.895-1.41-.666-.444-1.489-.709-2.515-.726a26.89 26.89 0 0 0-.436-.003c-.8 0-1.384.04-1.754.122a1.969 1.969 0 0 1-1.289-.15c-.425-.196-1.076-.64-1.952-1.333.532.208 1.032.312 1.501.312.474 0 .917-.106 1.327-.318.818-.421 1.587-.642 2.31-.663.72-.021 1.14-.232 1.257-.632-.61-.1-1.23-.159-1.865-.175.592-.225 1.001-.515 1.226-.87.206-.324.102-.486-.312-.486zm-7.485 9.068l-1.615 1.91h.788l.827-.987.835.986.812-.986.835.986.828-.986.835.986.828-.986.835.986.812-.986.835.986.836-.986.811.986.836-.986.827.986h.788l-1.615-1.91-.836.924-.811-.923-.836.923-.835-.923-.812.923-.835-.923-.828.923-.835-.923-.828.923-.835-.923-.812.923-.835-.923zm2.256 3.718v.394h-2.084v-.394zm-1.048.777q1.306 0 1.805.665.5.666.5 1.196-.013.826-.69 1.442-.679.616-1.615.616-.95 0-1.627-.616-.678-.616-.678-1.43 0-.542.406-1.208.407-.665 1.899-.665zm-1.627-1.184v.925q-.444.259-.814.838-.37.58-.382 1.282 0 .826.684 1.67t2.139.906q1.442-.062 2.132-.906.69-.844.69-1.658-.012-.715-.382-1.3-.37-.586-.826-.845v-.912zm9.658.001a2.62 2.62 0 0 0-.234.013c-1.129.121-1.93 1.264-1.753 2.37.078.824.589 1.285 1.15 1.74 1.667 1.022 1.199.645 2.881 1.497l.27-.504C38.715 16.56 38.474 16.41 37.85 16c-.511-.412-.916-.866-.88-1.555-.015-.475.27-.965.589-1.199.255-.192.582-.305.9-.305.242 0 .47.057.668.199.504.248.78 1.071.412 1.59a.979.979 0 0 1-.781.418.722.722 0 0 1-.426-.135c-.255-.142-.447-.639-.184-.915-.121-.128-.291-.284-.42-.284-.084 0-.148.064-.19.213-.285.681.17 1.455.85 1.64.122.035.242.056.363.056.78 0 1.504-.653 1.504-1.462.071-.944-.68-1.81-1.625-1.867a2.294 2.294 0 0 0-.227-.014zM53.36 1.728a.066.066 0 0 1 .02.003c-.078.127-.047.198.096.214.173-.048.205-.119.094-.214l.332.143a1.343 1.343 0 0 1-.426.07.377.377 0 0 1-.054.005.253.253 0 0 1-.207-.099c.054-.081.102-.122.145-.122zm.113-.117c-.016 0-.03 0-.045.002-.158.016-.284.118-.379.308.142.128.288.192.436.192.017 0 .033 0 .05-.003a1.32 1.32 0 0 0 .533-.19h.308v-.094h-.308c-.243-.143-.441-.215-.594-.215h-.001zm1.582-.034c.063 0 .09.032.08.095a.54.54 0 0 1-.143.284.713.713 0 0 1-.225.178.119.119 0 0 1-.042.013c-.024 0-.01-.032.042-.096.056-.068.068-.102.036-.102a.122.122 0 0 0-.036.007.124.124 0 0 1-.037.008c-.036 0-.036-.034.002-.102.047-.087.102-.17.165-.25a.501.501 0 0 1 .158-.035zm-.465.557c.079.048.094.091.047.13-.022.018-.04.027-.057.027-.02 0-.037-.013-.05-.038-.023-.048-.004-.087.06-.119zm.543-.72a.403.403 0 0 0-.117.021.633.633 0 0 0-.332.273c-.094.142-.118.245-.07.308-.096.047-.155.107-.179.178-.023.07.008.126.095.165a.136.136 0 0 0 .057.012c.082 0 .19-.063.322-.19.166-.157.273-.296.32-.414.048-.119.055-.213.024-.284-.02-.045-.058-.068-.115-.069h-.005zm-.398-1.1c.173 0 .37.027.59.078.568.135.856.427.864.877.008.45-.221.853-.687 1.209-.21.16-.338.24-.385.24-.057 0 .008-.12.195-.359.34-.434.458-.79.356-1.066-.068-.183-.238-.274-.509-.274-.14 0-.305.024-.499.073-.631-.174-.82-.368-.568-.58.15-.128.356-.193.617-.197h.026zm-2.107 2.647a.249.249 0 0 0 .018.074.802.802 0 0 1 .048.296c0 .119.075.19.225.213.064.01.135.016.213.016.103 0 .218-.01.344-.027.073.31.033.464-.12.464l-.034-.003a.787.787 0 0 0-.102-.006c-.186 0-.456.054-.787.208l-2.76 2.019c.382-.892.716-1.652.987-2.273.43-.144.842-.357 1.256-.419.165-.025.087-.324.12-.51.042-.001.374-.034.592-.052zm.99-1.858h.012c.102.008.39.107.865.297.026.07.069.104.129.104a.35.35 0 0 0 .179-.069.529.529 0 0 1 .289-.095c.058 0 .116.012.173.036.15.063.17.205.06.427a1.71 1.71 0 0 1-.44.556c-.18.15-.26.312-.236.486.023.174.13.3.32.38.047.284.177.52.39.71.214.19.581.403 1.103.64-.822 1.39-1.233 2.394-1.233 3.01 0 0 .043.213.099.51.087.469.205 1.147.233 1.528a.755.755 0 0 1-.095.45c-.145.24-.897.357-2.248.357l-.264-.001c-.713.072-1.493.108-2.34.108-.636 0-1.309-.02-2.02-.06.174-.522 1.082-.878 2.725-1.067 1.627 0 2.44-.482 2.44-1.446 0-.664-.354-1.73-1.065-3.2.916-.252 1.295-.528 1.137-.829.063-.442-.047-.679-.332-.71a1.13 1.13 0 0 1-.112.005c-.247 0-.391-.096-.433-.29.237-.095.324-.174.26-.237-.062-.063-.173-.103-.33-.118.11-.111.07-.214-.12-.309l.427-.663a.46.46 0 0 1 .284-.084c.18 0 .409.068.688.202.158-.015.114-.083-.13-.201a1.46 1.46 0 0 0-.723-.154c.106-.182.209-.273.307-.273zM54.93 0a2.8 2.8 0 0 0-.518.049c-.514.095-.976.466-1.387 1.114-.094.237-.324.584-.687 1.042-.06.198-.04.297.06.297h.011a.638.638 0 0 1 .046-.002c.087 0 .15.02.191.06-.052.04-.08.082-.084.127l-.586-.001c-.446.016-.942.215-1.436.598-1.242 1.067-1.84 2.32-1.824 3.738 0 .192.109.277.31.277.034 0 .07-.003.108-.007.916-.399 2.79-1.164 3.426-1.527.358.61.537 1.565.537 2.863l-.996.19c-2.401.236-3.792.615-4.17 1.137-.522.3-.91 1.35-1.162 3.152-.38 1.895-1.09 2.883-2.133 2.962l-1.753.663-.166.308c.126.11.245.166.355.166l3.223-.166c.221-.727.66-1.63 1.315-2.713.656-1.082.913-2.042.77-2.88.3 1.075.577 2.465.83 4.171.047.411-.45.783-1.493 1.114-.474.032-.711.182-.711.45l2.44-.094c.538 0 .807-.214.807-.64-.174-.38-.194-1.153-.06-2.323.135-1.169-.011-2.117-.438-2.843l4.17-.166c1.36 0 2.039-.348 2.039-1.043l-.119-2.322c0-.885.237-1.644.711-2.275l.498 2.109-.711 3.27a2.35 2.35 0 0 0-.296.628 3.136 3.136 0 0 0-.107.533c0 .127.036.296.107.51.07.213.115.415.13.604a.268.268 0 0 0 .095.095.04.04 0 0 0 .018.005c.023 0 .04-.026.053-.076.036.036.065.054.088.054.027 0 .046-.026.054-.078.036.036.066.054.088.054.028 0 .046-.026.055-.077.025.025.05.037.075.037.007 0 .013 0 .02-.002.031-.008.047-.051.047-.13a14.632 14.632 0 0 1-.178-.605c-.04-.15-.043-.375-.012-.675.016-.08.032-.118.048-.118.031 0 .063.023.094.07 0 .08-.008.19-.023.332a.603.603 0 0 0 .035.332c.025.05.054.074.088.074.02 0 .042-.009.066-.026.047-.016.06-.087.036-.214-.024-.126-.008-.308.047-.545.055-.237-.004-.49-.178-.758.727-.964 1.098-2.18 1.114-3.65-.079-1.042-.284-1.92-.616-2.63a3.38 3.38 0 0 0-1.659-.877c-.41-.347-.347-.7.19-1.055.537-.355.794-.813.77-1.374-.024-.56-.265-.932-.723-1.114A2.525 2.525 0 0 0 54.93 0zM43.72 17.97V18h.06c-.017-.013-.043-.017-.06-.03z"/></svg>