<svg xmlns="http://www.w3.org/2000/svg" width="182.784" height="18"><path d="M13.112 2.933v4.845h-3.25V2.933zM9.194 2.25v6.196h4.601V2.25zm2.301 10.629c.805 0 1.813.414 2.301.902.427.426.483.992.499 1.518H8.718c.016-.526.072-1.092.499-1.518.487-.488 1.472-.902 2.278-.902zm0-.451c-.956 0-1.984.441-2.587 1.044-.618.618-.688 1.432-.688 2.04v.238h6.55v-.237c0-.61-.047-1.423-.665-2.04-.603-.604-1.655-1.045-2.61-1.045zm10.548-3.181q.475 0 .475.359-.008.374-.482.374-.475 0-1.417-.374.95-.359 1.424-.359zm-2.515 1.869q.553.299.837 1.943.135 1.286-.837 1.286-.987 0-.852-1.286.284-1.644.852-1.943zM23 2.25q-.922 0-1.737.352-.986.426-1.442 1.42-.456.994-.59 2.983v2.033q-.72-.213-1.823-.213-.525 0-1.138.048v.688q.495-.053.928-.053 1.27 0 2.017.457H19.2q-.673 1.15-.934 1.868-.262.718-.322 1.45-.015.912.337 1.383.351.471 1.248.471.882 0 1.233-.47.352-.472.337-1.384-.06-.732-.322-1.45-.261-.717-.74-1.704 1.252.476 2.02.476 1.112 0 1.21-1-.097-.993-1.204-.993-.773 0-2.04.485V7.064q.09-3.064 1.322-3.692 1.006-.512 1.952-.512.214 0 .425.026 1.144.142 1.824 1.248.68 1.107.778 3.454.097 2.347.127 4.619.329 2.183 1.48 3.543l.523-.463q-1.106-1.42-1.346-3.05-.074-1.226-.104-3.648t-.464-3.782q-.433-1.36-1.218-1.906-.785-.546-1.929-.635-.198-.016-.393-.016zm11.794.325q.216 0 .299.215-.106-.042-.182-.042-.16 0-.183.191-.032.34-.184.34h-.007q-.157-.008-.224-.14 0-.1.25-.332.115-.232.231-.232zm.238.296q.06 0 .06.085-.03.334-.255.334l-.043-.002v-.033l.067-.15q.015-.233.133-.233l.016.001.022-.002zm-1.477.188q-.15 0-.278.088-.158.108-.091.373h.066q.017-.166.1-.274.083-.108.273-.108t.19-.05l-.19-.024q-.036-.005-.07-.005zm-.004.146q-.2 0-.2.282v.1l.031.002q.056 0 .07-.053.281-.066.414-.232-.116-.1-.315-.1zm-.299.43q-.083.117-.016.291.066.174.829.24l.116-.05q-.962-.066-.863-.447l-.066-.033zm1.078-.795q-.216.15-.166.381.033.1.2.166.148.066.115.348.033.614-.514.946-.083-.2-.323-.216l-.045-.002q-.205 0-.295.143-.07.11-.165.11-.04 0-.084-.019-.027.007-.05.007-.151 0-.165-.272.165-.017.232-.066.066-.05.248-.117-.08-.092-.165-.092-.037 0-.075.018-.124.058-.257.091-.282-.05-.216-.282-.165-.182-.116-.315.365-.232.606-.44.24-.207.539-.248.298-.042.696-.141zm.978-.15q.431.034.912.49.481.456.564.937-.895 1.31-2.537 2.09-.066-.697.232-1.394.547-.497.481-.837-.066-.34.216-.456.63-.116.132-.83zm6.084 2.801l.052.002q.746.133 1.36.672.613.539.878 1.335.05.082-.365.082-1.74-.73-2.205-1.475-.205-.616.28-.616zm-4.425-.827q1.033.99 2.634.99.275 0 .566-.028.03-.01.057-.01.241 0 .241.806-1.641.73-2.586.796-.28.02-.569.02-.684 0-1.413-.112-.158-.024-.292-.024-.752 0-.794.746-.697-.83-.498-1.128 1.642-.73 2.654-2.056zm-2.02-2.414l-.078.001q-.755.025-.804.307-.299.116-.556.19-.257.075-.48.274-.225.2-.498.357-.274.157-.324.273-.082.183.15.398 0 .183.166.299.033 0 .074.282.042.282.307.414.332-.05.431-.19.085-.12.217-.12.023 0 .048.004.166.024.25.273-.067.249-.192.88-.124.63 0 .928.125.298-.439.671-.43.285-1.178.285-.233 0-.497-.028-.575-.16-.925-.16-.377 0-.493.185-.223.357.042.622h.647q1.488.053 2.52.053 2.488 0 2.33-.31-.18-.353.293-.353.115 0 .27.021.244.034.536.034.65 0 1.537-.166 1.285-.24 1.675-.448.25-.133.54-.133.163 0 .339.042.49.116.589.414-.217.399-.753.399-.245 0-.557-.084-.522-.139-.857-.139-.304 0-.453.114-.315.24-.033.573h5.389q.547-.498.232-1.153-.315-.655-1.061-1.244-.747-.588-1.642-1.07.234-.204.452-.204.276 0 .526.33.263.345.446.345.129 0 .218-.172-.591-1.057-1.233-1.057-.043 0-.086.004-.688.075-1.252.771-.682.172-1.272.172-1.286 0-2.127-.818-.464-1.178-1.11-1.634-.614-.432-1.324-.432zm-1.417 9.855q-1.46.034-2.418 1.058-1.058 1.16-1.16 2.318 0 .269.303.269h14.042q.302 0 .302-.32 0-.318-.302-.318H30.709q.84-2.15 2.52-2.385h11.068q.302 0 .302-.32 0-.302-.302-.302zm14.125-9.012q1.511.22 1.58 1.382v8.382q-.706-.843-2.536-1.184l.956-8.58zm-.425-.843L46.1 12.272q2.52.289 3.136 1.8v1.678h.751V4.475q0-1.883-2.756-2.225zm5.813.843q1.51.22 1.58 1.382v8.382q-.707-.843-2.537-1.184l.957-8.58zm-.425-.843l-1.132 10.022q2.521.289 3.136 1.8v1.678h.752V4.475q0-1.883-2.756-2.225zm5.565 0c-.698 0-1.31.513-1.31 1.171V15.75h.853V3.421c0-.322.284-.427.462-.427.187 0 .476.131.476.527v8.103h.852V3.521c0-.66-.653-1.271-1.333-1.271zm3.999.531c-.146 0-.503.172-.168.174.055 0 .176.016.265.016.107 0 .169-.023.021-.125-.035-.024-.068-.063-.113-.065h-.005zm.056-.115h.012c.259.06.462.277.73.352.226.063.597.147.52.478-.103.44-.4.868-.307 1.33.058.288.38.314.64.314l.124-.001c1.7-.014 3.05-.085 4.133-.085 1.776 0 2.834.192 3.542 1.15 1.175 1.589.773 3.178.48 5.184.082-1.184.475-3.048-.742-4.659-.514-.68-1.385-.966-2.187-1.168-.368-.093-.86-.125-1.402-.125-1.253 0-2.775.173-3.66.173-.211 0-.386-.01-.512-.034-.341-.066-.585-.486-.555-.834.04-.463.404-.892.268-1.359-.061-.207-.242-.254-.44-.254-.14 0-.29.024-.408.03-.129.007-.255.025-.378.025a.667.667 0 0 1-.473-.166c-.289-.254.5-.351.615-.351zm.039-.416h-.027a2.402 2.402 0 0 0-1.076.323c-.34.197-.067.58.162.748.212.155.449.3.715.3a.727.727 0 0 0 .157-.017c.135-.03.375-.086.539-.086.096 0 .166.02.173.075.06.46-.43 1.018-.232 1.55.162.436.533.831 1.03.867.217.016.434.022.65.022 1.144 0 2.281-.185 3.425-.204l.108-.001c2.191 0 3.293 1.144 3.544 1.855.244.688.42 1.41.358 2.142-.074.882-.204 1.771-.132 2.654.064.778.334 1.533.519 2.288.043.176.168.264.285.264.128 0 .246-.105.238-.316-.039-.972-.263-1.803-.237-2.7.022-.772.22-1.514.265-2.287.053-.897.302-3.917-2.144-4.796-.703-.253-1.596-.321-2.543-.321-1.12 0-2.315.096-3.361.096-.391 0-.762-.014-1.1-.05.135-.48.393-.9.333-1.4-.047-.395-.48-.543-.809-.633-.307-.084-.515-.373-.84-.373z"/><path d="M65.631 8.075c.595 0 1.34.306 1.701.666.316.316.357.734.368 1.123h-4.12c.01-.39.052-.807.367-1.123.361-.36 1.089-.666 1.684-.666zm0-.334c-.706 0-1.466.327-1.912.772-.456.457-.508 1.058-.508 1.508v.176h4.84v-.176c0-.45-.034-1.051-.49-1.508-.446-.445-1.224-.772-1.93-.772zm-.121 3.564a2.05 2.05 0 0 0-.185.012c-.892.095-1.526.998-1.386 1.874.062.65.466 1.016.91 1.375 1.318.808.948.51 2.278 1.184l.213-.398c-1.582-.741-1.773-.86-2.267-1.185-.404-.325-.724-.684-.696-1.229a1.217 1.217 0 0 1 .466-.948c.202-.152.46-.241.712-.241.191 0 .37.045.528.157.398.196.617.847.326 1.257a.774.774 0 0 1-.618.331.571.571 0 0 1-.337-.107c-.202-.112-.353-.505-.145-.724-.096-.1-.23-.224-.332-.224-.067 0-.117.05-.151.168-.225.54.135 1.15.673 1.297.096.028.191.045.287.045.617 0 1.19-.517 1.19-1.156.055-.747-.54-1.432-1.286-1.476a1.814 1.814 0 0 0-.18-.012zm12.903-8.62v.422h-2.228v-.422zm-1.12.831q1.397 0 1.931.712.535.712.535 1.28-.014.883-.739 1.542-.725.66-1.728.66-1.015 0-1.74-.66-.726-.659-.726-1.53 0-.58.435-1.292.436-.712 2.031-.712zM75.551 2.25v.99q-.475.276-.87.896-.396.62-.41 1.371 0 .884.732 1.787.732.904 2.288.97 1.543-.066 2.282-.97.738-.903.738-1.773-.013-.765-.408-1.392-.396-.626-.884-.903V2.25zm9.157 2.978c.603 0 1.123.922 1.532 1.59.233.383.6.76 1.097 1.133-1.091-.372-1.848-.689-2.272-.95-.423-.26-.71-.53-.86-.806-.15-.277-.177-.652.143-.855a.666.666 0 0 1 .36-.112zm.04-.46c-.22 0-.462.071-.709.24-.307.21-.402.545-.356.872.115.814.654 1.192 1.246 1.59.372.25.9.433 1.536.623.382.114.724.17 1.025.17.2 0 .383-.025.547-.075-.063-.3-.259-.558-.587-.771-.328-.214-.629-.542-.902-.985a13.695 13.695 0 0 0-.664-1.003 1.952 1.952 0 0 0-.712-.563.956.956 0 0 0-.425-.098zm2.533 8.517c.23.326.286.73.306 1.119-.009.183.005.382-.071.555-.215-.215-.196-.71-.201-.987 0-.273-.01-.497-.034-.687zm-12.282-.308l11.209.012c-1.638 1.552-3.28 2.31-5.755 2.31-2.485 0-3.988-.74-5.454-2.322zm-.503-.452a.225.225 0 0 0-.171.372c1.628 1.9 3.356 2.853 6.128 2.853 2.699 0 4.542-.915 6.32-2.682.061.17.091.436.091.904.011.52.007 1.383.69 1.443.48-.098.48-.612.483-1.011 0-.492-.12-.937-.32-1.276-.2-.338-.498-.59-.857-.59l-12.364-.013zm16.598-9.432q1.511.22 1.58 1.382v8.382q-.707-.843-2.537-1.184l.957-8.58zm-.425-.843l-1.132 10.022q2.521.289 3.136 1.8v1.678h.752V4.475q0-1.883-2.756-2.225zm5.812.843q1.511.22 1.58 1.382v8.382q-.706-.843-2.536-1.184l.956-8.58zm-.425-.843l-1.131 10.022q2.52.289 3.136 1.8v1.678h.751V4.475q0-1.883-2.756-2.225zm10.187 0a1.31 1.31 0 0 0-.313.039c-.21.051-.437.168-.682.35h-4.936V3.73h4.936c.245.182.473.299.682.35a1.31 1.31 0 0 0 .623 0c.206-.051.411-.168.617-.35h.19c.198.182.401.299.61.35a1.316 1.316 0 0 0 .63 0c.21-.051.433-.168.67-.35h4.983V2.64h-4.983c-.237-.182-.46-.299-.67-.35a1.316 1.316 0 0 0-.63 0 1.402 1.402 0 0 0-.61.35h-.19a1.492 1.492 0 0 0-.617-.35 1.274 1.274 0 0 0-.31-.039zm1.04 5.588q2.455 0 5.207 1.187-2.752 1.153-5.207 1.153-2.439 0-5.207-1.153 2.768-1.187 5.207-1.187zm0-.758q-3.032 0-6.97 1.928 3.938 1.912 6.97 1.912 3.032 0 6.97-1.912-3.922-1.928-6.97-1.928zm-1.04 6.801a1.31 1.31 0 0 0-.313.039c-.21.051-.437.168-.682.35h-4.936v1.091h4.936c.245.182.473.299.682.35a1.31 1.31 0 0 0 .623 0c.206-.051.411-.168.617-.35h.19c.198.182.401.299.61.35a1.316 1.316 0 0 0 .63 0c.21-.051.433-.168.67-.35h4.983V14.27h-4.983c-.237-.182-.46-.299-.67-.35a1.316 1.316 0 0 0-.63 0 1.402 1.402 0 0 0-.61.35h-.19a1.492 1.492 0 0 0-.617-.35 1.274 1.274 0 0 0-.31-.039zM119.49 2.914q2.725.331 0 5.047-2.724-4.716 0-5.047zm0-.664q-3.772.262-.524 6.06h-3.213v.821h3.179v6.619h1.082V9.096h3.214V8.31h-3.214q3.249-5.815-.524-6.06zm6.404.531c-.145 0-.503.172-.168.174.055 0 .176.016.265.016.107 0 .17-.023.022-.125-.036-.024-.068-.063-.114-.065h-.005zm.056-.115h.012c.259.06.462.277.73.352.227.063.598.147.52.478-.103.44-.4.868-.307 1.33.058.288.38.314.64.314l.124-.001c1.7-.014 3.05-.085 4.133-.085 1.776 0 2.834.192 3.543 1.15 1.174 1.589.772 3.178.48 5.184.082-1.184.474-3.048-.742-4.659-.515-.68-1.386-.966-2.188-1.168-.368-.093-.86-.125-1.402-.125-1.253 0-2.775.173-3.66.173-.211 0-.386-.01-.512-.034-.341-.066-.585-.486-.555-.834.04-.463.405-.892.268-1.359-.06-.207-.242-.254-.439-.254-.14 0-.29.024-.41.03-.128.007-.254.025-.377.025a.667.667 0 0 1-.473-.166c-.289-.254.5-.351.615-.351zm.04-.416h-.028a2.402 2.402 0 0 0-1.076.323c-.34.197-.067.58.163.748.21.155.448.3.714.3a.727.727 0 0 0 .157-.017c.136-.03.375-.086.539-.086.096 0 .166.02.174.075.06.46-.43 1.018-.233 1.55.162.436.534.831 1.03.867.217.016.434.022.65.022 1.144 0 2.282-.185 3.425-.204l.109-.001c2.19 0 3.293 1.144 3.544 1.855.243.688.418 1.41.357 2.142-.074.882-.204 1.771-.132 2.654.064.778.334 1.533.52 2.288.042.176.167.264.284.264.128 0 .246-.105.238-.316-.039-.972-.262-1.803-.237-2.7.022-.772.22-1.514.265-2.287.053-.897.303-3.917-2.143-4.796-.704-.253-1.597-.321-2.544-.321-1.12 0-2.315.096-3.36.096-.392 0-.762-.014-1.1-.05.134-.48.392-.9.332-1.4-.047-.395-.48-.543-.809-.633-.307-.084-.515-.373-.84-.373zm3.353 8.813c.558 0 1.256.286 1.594.624.295.295.334.687.345 1.051h-3.86c.01-.364.049-.756.344-1.051.338-.338 1.02-.624 1.577-.624zm0-.312c-.661 0-1.373.305-1.79.722-.428.428-.477.992-.477 1.413v.164h4.534v-.164c0-.421-.032-.985-.46-1.413-.417-.417-1.145-.722-1.807-.722zm4.048 3.779c.084 0 .126.305.126.39 0 .084-.042.388-.126.388h-8.074c-.099 0-.148-.304-.148-.389 0-.084.05-.389.148-.389zm-8.327-.441c-.224 0-.336.452-.336.83 0 .379.112.831.336.831h8.58c.21 0 .315-.452.315-.83 0-.38-.105-.831-.316-.831zm17.812-11.156v4.845h-3.25V2.933zm-3.918-.683v6.196h4.602V2.25zm2.302 10.629c.805 0 1.813.414 2.3.902.428.426.483.992.5 1.518h-5.577c.016-.526.071-1.092.498-1.518.488-.488 1.473-.902 2.278-.902zm0-.451c-.956 0-1.985.441-2.587 1.044-.618.618-.688 1.432-.688 2.04v.238h6.549v-.237c0-.61-.047-1.423-.665-2.04-.602-.604-1.654-1.045-2.61-1.045zm6.655-9.656q.695 0 .695.917 0 .806-.695 1.596-.696-.79-.696-1.596 0-.917.696-.917zm0 3.525q.49 0 .49 1.059 0 .6-.49 1.107-.49-.506-.49-1.107 0-1.06.49-1.06zm0 3.193q.49 0 .49 1.06 0 .6-.49 1.106-.49-.506-.49-1.107 0-1.059.49-1.059zm0-7.24q-1.265 0-1.265 1.439-.016.9.42 1.414.434.514.386.688-.553.648-.553 1.565 0 .759.648 1.628-.648.648-.648 1.565 0 .759.648 1.613.08.205-.442.964t-1.075 2.624h.695q.348-1.233.617-1.763.268-.53.569-.861.316.332.577.861.26.53.608 1.763h.712q-.522-1.865-1.067-2.624-.546-.759-.45-.964.632-.854.632-1.613 0-.917-.601-1.565.6-.87.6-1.628 0-.917-.537-1.565-.047-.174.38-.688.426-.513.426-1.414 0-1.439-1.28-1.439zm9.392.67v12.27h-5.357v-.592h2.71V7.326h1.666V2.92zm-1.558-.67v4.531h-1.666v7.334h-2.771v1.635h6.57V2.25zm6.908 4.968c.806 0 1.814.414 2.302.902.427.427.483.993.498 1.518h-5.576c.016-.525.071-1.091.498-1.518.488-.488 1.473-.902 2.278-.902zm0-.45c-.955 0-1.984.44-2.586 1.043-.618.618-.688 1.432-.688 2.041v.237h6.549v-.237c0-.609-.047-1.423-.665-2.04-.602-.603-1.654-1.045-2.61-1.045zm6.596-3.585q.402 0 1.061.22 1.13.376 2.339 1.572 1.21 1.196.968 2.218-.242 1.021-.941 1.532-.578.422-1.394.422-.171 0-.354-.019-1.048-.107-1.8-1.653-.753-1.545-.7-2.755.054-1.21.377-1.425.156-.112.444-.112zm-.11-.933q-.554 0-.899.239-.726.51-.806 2.096-.081 1.586.914 3.441.994 1.855 2.419 2.03.272.033.53.033 1.09 0 1.916-.598 1.022-.739 1.277-2.096.256-1.358-1.089-2.877-1.344-1.519-2.903-2.016-.79-.252-1.36-.252zm2.967 10.556q-.312.312-.312 1.143 0 .849.312 1.16h-10.286q.312-.311.312-1.16 0-.83-.312-1.143zm-12.277-.64q-.45 0-.433.294-.017.346.433.346h1.125q.416.312.416 1.143 0 .849-.416 1.16h-1.108q-.467 0-.467.295 0 .346.45.346H174.1q.433 0 .433-.346 0-.295-.45-.295h-1.109q-.415-.311-.415-1.16 0-.83.415-1.143h1.126q.433 0 .433-.346 0-.294-.433-.294z"/><path d="M8.22.375c-9.625 0-9.625 17.25 0 17.25m0-17.25h166.314M8.22 17.625h166.314m7.687-17.25v17.25M174.534.375c9.625 0 9.625 17.25 0 17.25" fill="none" stroke="#000"/></svg>