<svg xmlns="http://www.w3.org/2000/svg" width="116.576" height="18"><path d="M13.112 2.933v4.845h-3.25V2.933zM9.194 2.25v6.196h4.601V2.25zm2.301 10.629c.805 0 1.813.414 2.301.902.427.426.483.992.499 1.518H8.718c.016-.526.072-1.092.499-1.518.487-.488 1.472-.902 2.278-.902zm0-.451c-.956 0-1.984.441-2.587 1.044-.618.618-.688 1.432-.688 2.04v.238h6.55v-.237c0-.61-.047-1.423-.665-2.04-.603-.604-1.655-1.045-2.61-1.045zm10.548-3.181q.475 0 .475.359-.008.374-.482.374-.475 0-1.417-.374.95-.359 1.424-.359zm-2.515 1.869q.553.299.837 1.943.135 1.286-.837 1.286-.987 0-.852-1.286.284-1.644.852-1.943zM23 2.25q-.922 0-1.737.352-.986.426-1.442 1.42-.456.994-.59 2.983v2.033q-.72-.213-1.823-.213-.525 0-1.138.048v.688q.495-.053.928-.053 1.27 0 2.017.457H19.2q-.673 1.15-.934 1.868-.262.718-.322 1.45-.015.912.337 1.383.351.471 1.248.471.882 0 1.233-.47.352-.472.337-1.384-.06-.732-.322-1.45-.261-.717-.74-1.704 1.252.476 2.02.476 1.112 0 1.21-1-.097-.993-1.204-.993-.773 0-2.04.485V7.064q.09-3.064 1.322-3.692 1.006-.512 1.952-.512.214 0 .425.026 1.144.142 1.824 1.248.68 1.107.778 3.454.097 2.347.127 4.619.329 2.183 1.48 3.543l.523-.463q-1.106-1.42-1.346-3.05-.074-1.226-.104-3.648t-.464-3.782q-.433-1.36-1.218-1.906-.785-.546-1.929-.635-.198-.016-.393-.016zm11.794.325q.216 0 .299.215-.106-.042-.182-.042-.16 0-.183.191-.032.34-.184.34h-.007q-.157-.008-.224-.14 0-.1.25-.332.115-.232.231-.232zm.238.296q.06 0 .06.085-.03.334-.255.334l-.043-.002v-.033l.067-.15q.015-.233.133-.233l.016.001.022-.002zm-1.477.188q-.15 0-.278.088-.158.108-.091.373h.066q.017-.166.1-.274.083-.108.273-.108t.19-.05l-.19-.024q-.036-.005-.07-.005zm-.004.146q-.2 0-.2.282v.1l.031.002q.056 0 .07-.053.281-.066.414-.232-.116-.1-.315-.1zm-.299.43q-.083.117-.016.291.066.174.829.24l.116-.05q-.962-.066-.863-.447l-.066-.033zm1.078-.795q-.216.15-.166.381.033.1.2.166.148.066.115.348.033.614-.514.946-.083-.2-.323-.216l-.045-.002q-.205 0-.295.143-.07.11-.165.11-.04 0-.084-.019-.027.007-.05.007-.151 0-.165-.272.165-.017.232-.066.066-.05.248-.117-.08-.092-.165-.092-.037 0-.075.018-.124.058-.257.091-.282-.05-.216-.282-.165-.182-.116-.315.365-.232.606-.44.24-.207.539-.248.298-.042.696-.141zm.978-.15q.431.034.912.49.481.456.564.937-.895 1.31-2.537 2.09-.066-.697.232-1.394.547-.497.481-.837-.066-.34.216-.456.63-.116.132-.83zm6.084 2.801l.052.002q.746.133 1.36.672.613.539.878 1.335.05.082-.365.082-1.74-.73-2.205-1.475-.205-.616.28-.616zm-4.425-.827q1.033.99 2.634.99.275 0 .566-.028.03-.01.057-.01.241 0 .241.806-1.641.73-2.586.796-.28.02-.569.02-.684 0-1.413-.112-.158-.024-.292-.024-.752 0-.794.746-.697-.83-.498-1.128 1.642-.73 2.654-2.056zm-2.02-2.414l-.078.001q-.755.025-.804.307-.299.116-.556.19-.257.075-.48.274-.225.2-.498.357-.274.157-.324.273-.082.183.15.398 0 .183.166.299.033 0 .074.282.042.282.307.414.332-.05.431-.19.085-.12.217-.12.023 0 .048.004.166.024.25.273-.067.249-.192.88-.124.63 0 .928.125.298-.439.671-.43.285-1.178.285-.233 0-.497-.028-.575-.16-.925-.16-.377 0-.493.185-.223.357.042.622h.647q1.488.053 2.52.053 2.488 0 2.33-.31-.18-.353.293-.353.115 0 .27.021.244.034.536.034.65 0 1.537-.166 1.285-.24 1.675-.448.25-.133.54-.133.163 0 .339.042.49.116.589.414-.217.399-.753.399-.245 0-.557-.084-.522-.139-.857-.139-.304 0-.453.114-.315.24-.033.573h5.389q.547-.498.232-1.153-.315-.655-1.061-1.244-.747-.588-1.642-1.07.234-.204.452-.204.276 0 .526.33.263.345.446.345.129 0 .218-.172-.591-1.057-1.233-1.057-.043 0-.086.004-.688.075-1.252.771-.682.172-1.272.172-1.286 0-2.127-.818-.464-1.178-1.11-1.634-.614-.432-1.324-.432zm-1.417 9.855q-1.46.034-2.418 1.058-1.058 1.16-1.16 2.318 0 .269.303.269h14.042q.302 0 .302-.32 0-.318-.302-.318H30.709q.84-2.15 2.52-2.385h11.068q.302 0 .302-.32 0-.302-.302-.302zm14.125-9.012q1.511.22 1.58 1.382v8.382q-.706-.843-2.536-1.184l.956-8.58zm-.425-.843L46.1 12.272q2.52.289 3.136 1.8v1.678h.751V4.475q0-1.883-2.756-2.225zm5.813.843q1.51.22 1.58 1.382v8.382q-.707-.843-2.537-1.184l.957-8.58zm-.425-.843l-1.132 10.022q2.521.289 3.136 1.8v1.678h.752V4.475q0-1.883-2.756-2.225zm5.565 0c-.698 0-1.31.513-1.31 1.171V15.75h.853V3.421c0-.322.284-.427.462-.427.187 0 .476.131.476.527v8.103h.852V3.521c0-.66-.653-1.271-1.333-1.271zm6.57.664q2.724.331 0 5.047-2.725-4.716 0-5.047zm0-.664q-3.772.262-.524 6.06h-3.213v.821h3.178v6.619h1.083V9.096h3.213V8.31h-3.213q3.248-5.815-.524-6.06zm6.404.531c-.146 0-.503.172-.168.174.055 0 .175.016.265.016.107 0 .169-.023.021-.125-.036-.024-.068-.063-.113-.065h-.005zm.056-.115h.012c.258.06.462.277.73.352.226.063.597.147.52.478-.104.44-.4.868-.307 1.33.058.288.38.314.64.314l.124-.001c1.7-.014 3.05-.085 4.133-.085 1.776 0 2.834.192 3.542 1.15 1.174 1.589.773 3.178.48 5.184.082-1.184.475-3.048-.742-4.659-.514-.68-1.385-.966-2.187-1.168-.368-.093-.86-.125-1.402-.125-1.253 0-2.775.173-3.66.173-.211 0-.386-.01-.512-.034-.342-.066-.585-.486-.555-.834.04-.463.404-.892.267-1.359-.06-.207-.241-.254-.438-.254-.141 0-.29.024-.41.03-.128.007-.254.025-.378.025a.667.667 0 0 1-.472-.166c-.29-.254.5-.351.615-.351zm.039-.416h-.027a2.402 2.402 0 0 0-1.077.323c-.339.197-.066.58.163.748.211.155.449.3.715.3a.727.727 0 0 0 .157-.017c.135-.03.375-.086.539-.086.096 0 .166.02.173.075.06.46-.43 1.018-.232 1.55.162.436.533.831 1.03.867.217.016.434.022.65.022 1.144 0 2.281-.185 3.425-.204l.108-.001c2.191 0 3.293 1.144 3.544 1.855.244.688.419 1.41.357 2.142-.074.882-.203 1.771-.131 2.654.064.778.334 1.533.519 2.288.043.176.168.264.285.264.127 0 .246-.105.237-.316-.038-.972-.262-1.803-.236-2.7.022-.772.22-1.514.265-2.287.053-.897.302-3.917-2.144-4.796-.704-.253-1.597-.321-2.543-.321-1.12 0-2.315.096-3.361.096-.392 0-.762-.014-1.1-.05.135-.48.393-.9.333-1.4-.048-.395-.48-.543-.809-.633-.307-.084-.515-.373-.84-.373zm3.354 8.813c.557 0 1.255.286 1.593.624.296.295.334.687.345 1.051h-3.86c.01-.364.05-.756.345-1.051.337-.338 1.02-.624 1.577-.624zm0-.312c-.662 0-1.374.305-1.79.722-.429.428-.477.992-.477 1.413v.164h4.534v-.164c0-.421-.032-.985-.46-1.413-.417-.417-1.146-.722-1.807-.722zm4.048 3.779c.084 0 .126.305.126.39 0 .084-.042.388-.126.388h-8.075c-.098 0-.147-.304-.147-.389 0-.084.049-.389.147-.389zm-8.327-.441c-.225 0-.337.452-.337.83 0 .379.112.831.337.831h8.579c.21 0 .315-.452.315-.83 0-.38-.105-.831-.315-.831zM89.242 2.92v12.27h-5.356v-.592h2.709V7.326h1.666V2.92zm-1.557-.67v4.531h-1.666v7.334h-2.772v1.635h6.571V2.25zm7.184.45c.806 0 1.814.415 2.302.903.427.426.482.992.498 1.518h-5.576c.015-.526.071-1.092.498-1.518.488-.488 1.473-.902 2.278-.902zm0-.45c-.956 0-1.984.441-2.586 1.044-.618.618-.689 1.432-.689 2.04v.238h6.55v-.237c0-.61-.047-1.423-.665-2.04-.602-.604-1.654-1.045-2.61-1.045zM93.14 8.844q.402 0 1.06.22 1.13.376 2.34 1.572 1.209 1.196.967 2.218-.242 1.021-.941 1.532-.577.422-1.393.422-.172 0-.354-.019-1.049-.107-1.801-1.653-.753-1.546-.7-2.755.054-1.21.377-1.425.157-.112.444-.112zm-.111-.933q-.554 0-.899.238-.725.511-.806 2.097-.08 1.586.914 3.441.995 1.855 2.42 2.03.272.033.53.033 1.09 0 1.916-.598 1.021-.74 1.276-2.097.256-1.357-1.088-2.876t-2.904-2.016q-.79-.252-1.359-.252zm8.048-4.103l2.736 2.406q-.577.89-1.533 1.797-.906-2.143-1.203-4.203zm-.728-1.187q-.528 0-.41.725.512.248.43.56-.083.314.065 1.04.149.725 1.187 3.444-.316 1.074.366 1.074l.062-.002q1.847 3.395 4.072 5.917h.395l-.098-1.104q-1.78-1.665-3.808-5.39.593-1.253 1.665-2.193l3.28 2.95q.248.112.416.112.458 0 .326-.82L105 6.116q.013-.75-.625-.75-.148 0-.331.04l-2.967-2.587q-.452-.198-.728-.198z"/><path d="M8.22.375c-9.625 0-9.625 17.25 0 17.25m0-17.25h100.106M8.22 17.625h100.106m7.687-17.25v17.25M108.326.375c9.625 0 9.625 17.25 0 17.25" fill="none" stroke="#000"/></svg>