<svg xmlns="http://www.w3.org/2000/svg" width="196.025" height="18"><path d="M6.286.322q.06 0 .113.039.214.116-.136.564-.37.369-.457.622-.088.253-.185.67-.097.419-.428 1.197l-.447.136H3.132q.233-.506.544-.914.759-.7 1.128-.934.37-.233.593-.398.224-.166.477-.632.233-.35.412-.35zM5.27 3.939l-.311.68q-.454-.045-.84-.045-.775 0-1.28.182-.097-.661-.292-.817zm-2.237 1.42q-.37.02-.389.35.02.389.39.389.369 0 .388-.39-.02-.33-.389-.35zm.837-.33q.836 0 .972.777.136.778-.895 1.07.35.66 0 .836-.123.062-.24.062-.216 0-.411-.208-.302-.32-.535-.914-.233-.593-.7-.593h.33q-.213-.33-.155-.506l.034.002q.166 0 .219-.177.37-.35 1.38-.35zm1.147.057q.292 0 .836 1.255.545 1.254 1.77 2.314t1.974 2.577q.749 1.517 2.927 3.326-3.812-1.809-4.784-2.237-.973-.428-3.15-2.003-1.246-.914-1.246-1.459 0-.427.098-.739V8.1q.992 0 .992-.991 1.342-.661.583-2.023zm-.545 5.971q.37 1.77 1.829 3.91-.139.109-.302.109-.385 0-.904-.616 0-.972-.7-3.403zm.642.622q1.148.914 2.587 1.731v1.848q-.506-.39-1.011-.467-1.381-2.256-1.576-3.112zm.214 3.812q.265.336.546.336.255 0 .524-.277l.097 1.711q-.185-.041-.354-.041-.308 0-.56.138-.34-.113-.597-.113-.096 0-.18.016l.524-1.77zm.603-3.676l5.815 2.937q1.128 1.264 2.159 2.392v.02l-1.459.233-2.898-3.131q-.836-.68-3.617-2.45zM6.202 0h-.037q-.233.01-.486.4-.058.174-.243.388-.185.214-.535.428-.35.214-.505.34-.156.127-.525.458-.312.252-.448.408-.31-.194-.525-.476-.214-.282-.233-.516-.02-.233.048-.37.069-.135.214-.165.04-.008.08-.008.103 0 .202.057.136.078.117.272-.039.175-.253.214-.058-.025-.095-.025-.05 0-.06.045-.04.252.194.272l.05.002q.2 0 .33-.138.145-.156.126-.525Q3.482.652 3.19.613 3.137.606 3.084.606q-.237 0-.468.144-.282.175-.311.544-.03.37.263.749.291.379.641.632-.272.35-.564.875H1.81q.506.545.603 1.536h-.04q-.346 0-.29.331-.545.156-.545 1.03.181-.105.34-.105.044 0 .088.009.233 0 .379.544.146.545.632 1.206v.02q-.117.233-.117.738 0 .506.895 1.459.895 3.073.875 4.493 0 .175.253.213l-.642 2.14q-.052-.004-.106-.004-.272 0-.604.082-.19.046-.388.046-.219 0-.448-.056-.253-.062-.497-.062-.177 0-.349.033-.272.051-.432.051-.08 0-.132-.012-.506.116-.564.758.337-.194.514-.194.089 0 .138.048.145.146.573.146h5.66q.37 0 .583-.156.071-.051.169-.051.194 0 .492.207.02-.622-.66-.797-.386.143-.696.143-.238 0-.433-.085l-.097-1.925q.532.736.93.736.17 0 .315-.134-.137-1.186-.137-2.178l.545.33q.467.215 2.052 2.024 1.52 1.734 1.814 1.734.013 0 .024-.004l1.847-.389q.292-.097.117-.291L13.01 15.51q1.362.875 2.042 1.167-.33-.37-1.108-.934l.389.136q.233-.039.194-.37-3.384-2.45-4.298-4.22-.914-1.77-2.149-2.878-1.235-1.108-1.838-2.49-.37-.874-.758-1.186L7.293.633 6.866.399 5.854 2.597l.098-.447q.116-.467.252-.7.137-.234.273-.331.291-.428.291-.661 0-.234-.175-.35Q6.413 0 6.201 0zm6.662 1.88c-.404 0-.674.234-.67.606.006.404.277.637.67.637s.627-.234.621-.637c-.005-.373-.239-.606-.621-.606zM12.91.536c.266 0 .531.055.798.165.511.211.856.578 1.084 1.076.231.507.215 1.02 0 1.53-.215.506-.583.838-1.084 1.05a1.98 1.98 0 0 1-.778.16c-.275 0-.55-.056-.823-.16-.509-.193-.846-.567-1.075-1.05a1.797 1.797 0 0 1-.16-.774c-.001-.535.233-1.009.59-1.394.176-.19.394-.335.645-.438.27-.11.536-.165.802-.165zM12.847 0c-.703 0-1.256.244-1.752.741-.507.509-.723 1.062-.733 1.776a2.32 2.32 0 0 0 .247 1.108c.133.652.14 1.742-.037 1.742-.308 0-.132-.819-.147-1.074-.025-.435-.282-.805-.587-1.099-.07-.068-.148-.144-.25-.154a2.8 2.8 0 0 0-.294-.02.975.975 0 0 0-.333.051c-.076.027-.079.134-.054.204.026.072.074.148.157.158l.063.003c.101 0 .201-.025.303-.026h.013c.042 0 .09.004.12.035-.068.128-.162.252-.178.402a.393.393 0 0 0 .015.176c.199.55.32 1.813 1.145 1.813.156 0 .23-.032.28-.079.366-.34.372-.916.35-1.393.484.455 1.03.646 1.705.655h.039c.691 0 1.242-.256 1.737-.733.135-.13.249-.262.344-.401.022.472.045.948.218 1.392.137.35.441.604.768.778a.139.139 0 0 0 .056.019c.04 0 .016-.062-.03-.107a1.986 1.986 0 0 1-.484-.734c-.176-.481-.158-1-.147-1.502.007-.307.02-.615.002-.922h-.002c.01-.094.015-.191.016-.292.008-.72-.242-1.268-.74-1.776-.507-.515-1.06-.733-1.777-.74L12.847 0zm11.767 5.034c.966 0 1.574.525 1.83 1.598h-3.66c.244-1.073.852-1.598 1.83-1.598zm0-.423c-1.4 0-2.176.834-2.36 2.486h4.745c-.185-1.652-.984-2.486-2.385-2.486zm5.258-1.789c0 .519.054.996.19 1.449.126.453 1.187.864 3.19 1.252C32.86 6.608 31.84 7.58 30.14 8.42c-1.687.84-4.375 1.353-8.06 1.526h-.077c-.262 0-.322-.053-.203-.149a39.986 39.986 0 0 0 6.26-1.252c2.027-.578 3.04-1.383 3.04-2.42 0-.578-.703-1.08-2.128-1.49V2.822zm-1.43-.572l.023 2.891c1.342.304 2.003.626 1.98.96-.03.334-.203.65-.555.954-.352.31-1.157.691-2.402 1.109-1.252.423-2.641.739-4.156.977-1.502.245-2.259.4-2.27.49.089.399.25.62.488.62.322.005.632.011.942.011 2.188 0 4.12-.197 5.759-.566 1.872-.423 3.308-1.12 4.322-2.128 1.007-1.002 1.43-1.783 1.252-2.337 0-.084-.483-.227-1.425-.43-.942-.202-1.485-.429-1.658-.68-.178-.25-.292-.875-.321-1.871zm-1.34 9.19v4.31h.72v-4.31zM48.09 2.604q.276 0 .276.288v2.213h-.838l.275-2.331q.013-.17.288-.17zm.014-.354q-.668 0-.707.38-.275 2.475-.59 2.489l-6.077.222-.63-.026q-.706-.747-1.257-.747l-.406-.026q-1.113.21-1.336.21-.157 0-.157.21 0 .287.446.287.764-.121 1.173-.121.074 0 .136.004.223 0 .367.183-.255.316-1.143.316l-.14-.002Q36.774 5.603 36 5.367q-.38 0-.38.446.04.406 2.843.419l1.244-.131 7.1-.04 1.99.027V2.892q-.013-.642-.694-.642zm-1.72 5.99c.586.024.908.037 1.046.037h.063l-.075 3.062a4.493 4.493 0 0 1-1.166-.693l.132-2.407zm-8.544-.763c-.195.037-.454.157-.422.39v1.708a32.657 32.657 0 0 0-.882-.038c0 .214.176.504.724.504a6.1 6.1 0 0 0 .183 1.38l.075.794c0 .088.152.114.316.114.195 0 .41-.038.41-.038l-.032-.794c3.112.025 9.048.183 9.344.183.151 0 .252-.164.252-.391l.076-3.422-1.872-.019-.15 2.666c-1.356.006-3.7.227-5.294.227-.504 0-.939-.02-1.235-.082-.063-.07-.649-.92-1.02-1.015a1.634 1.634 0 0 0-.221-.025c-.063-.517-.126-1.033-.183-1.544.114-.145.372-.107.441-.302.07-.095.025-.252-.107-.259-.075-.031-.283-.037-.372-.037zm10.791 7.165zm-.003.15zM37.01 14.22v.881c-.131-.06-.26-.116-.382-.176a1.225 1.225 0 0 0-.35-.098c-.1-.015-.204-.026-.298-.045a.346.346 0 0 1-.148-.053c-.012-.01-.02-.022-.02-.068 0-.047.008-.059.02-.068a.346.346 0 0 1 .148-.054c.094-.02.198-.03.298-.045.126-.02.248-.047.35-.098.122-.06.25-.116.382-.176zm0 .881zm.448.063zm8.124-1.01c.087 0 .174.001.26.003.488.012 1.218.129 1.821.28.299.074.566.156.756.238l.08.037a.784.784 0 0 1-.07.028 5.3 5.3 0 0 1-.756.2c-.607.124-1.34.212-1.83.224l-.26.003c-.883 0-1.761-.1-2.64-.203-.938-.109-1.875-.22-2.818-.22l-.143.001c-.824.01-1.77.102-2.524.42v-1.008c.754.317 1.7.41 2.524.42h.143c.943 0 1.88-.11 2.818-.22.879-.102 1.757-.203 2.64-.203zm-8.297-.582l-.108.062c-.25.144-.513.245-.747.36a.788.788 0 0 1-.22.057c-.108.017-.22.028-.32.05a.777.777 0 0 0-.345.147.514.514 0 0 0-.182.413c0 .179.068.317.182.412a.78.78 0 0 0 .345.148c.1.02.212.032.32.049.08.012.159.027.22.057.234.115.497.216.747.36l.108.062.11-.059c.725-.39 1.737-.486 2.593-.497h.139c.924 0 1.845.11 2.765.216.896.105 1.793.206 2.692.206l.27-.003a12.143 12.143 0 0 0 1.908-.232 5.73 5.73 0 0 0 .824-.22c.118-.044.215-.092.287-.14a.501.501 0 0 0 .115-.108.32.32 0 0 0 .068-.193.325.325 0 0 0-.065-.192.526.526 0 0 0-.112-.11 1.41 1.41 0 0 0-.283-.154 5.716 5.716 0 0 0-.824-.261c-.636-.159-1.398-.28-1.919-.293l-.269-.003c-.9 0-1.796.102-2.692.206-.92.107-1.841.217-2.765.217h-.14c-.855-.011-1.867-.108-2.592-.498l-.11-.059zM53.244 2.523c.119.082.11.126.098.175-.016.063-.208.105-.296.105-.024 0-.04-.003-.042-.01 0-.057.094-.205.24-.27zm-.987 1.296c-.122 0-.183.065-.183.196 0 .162.073.244.22.244h.012c.17 0 .313-.065.427-.196V3.99c0-.057-.476-.17-.476-.17zm1.58-.986c.178.145-.147.554-.34.97l-.067.144c.337-.213.512-.628.512-.628.08.129-.184.481-.103.586.09.317.454.7-.366 1.48-.106.065-1.326.717-1.424.717-.073 0-.126-.057-.305-.22l.366-.292v-.086l-.012-.012h-.073c-.122 0-.277.077-.464.232a3.407 3.407 0 0 1-.333-.398c.151-.12.212-.203.203-.314.023-.138-.07-.16-.14-.16-.033 0-.062.005-.072.005v.098c-.025.049-.077.09-.159.122-.032 0-.049-.11-.049-.11 0-.057.13-.236.391-.537.716-.88 1.27-1.327 1.741-1.327l.107.008c-.18.114-.097.306-.097.306.19-.167.497-.512.684-.584zm.497.593h.003c1.237 1.188 1.425 1.996 1.432 4.705l-2.095.033-.03-2.179c0-.146.033-.322.163-.395.878-.679.434-1.708.376-1.823-.022-.26.08-.34.15-.34zM53.279 2.25a.5.5 0 0 0-.4.178c-.145.158-.192.458-.474.56-.282.192-.47.393-.648.577-.716.781-.956 1.054-.964 1.209-.571.466.045.741.232.849.61.708.506.658.768.773.095.025.149.047.197.047.052 0 .097-.025.178-.096.09 0 1.05-.464 1.05-.464.105 0 .15.35.15 1.147-.01.549-.067 1.454-.004 1.454h.004l.024.036h2.772l.012-.012-.037-.806c-.057-1.01.352-3.544-1.993-4.851.027-.164-.104-.343-.27-.343-.083 0-.175.045-.26.16-.015-.198-.1-.403-.337-.418zm5.397 4.277L57.51 5.35l-.422.377 1.19 1.197-1.197 1.19.397.399 1.197-1.19 1.19 1.197.399-.397-1.167-1.246 1.174-1.14-.397-.4-1.197 1.19zm5.187-4.004c.119.082.11.126.098.175-.016.063-.209.105-.296.105-.024 0-.04-.003-.042-.01 0-.057.093-.205.24-.27zm-.988 1.296c-.122 0-.183.065-.183.196 0 .162.073.244.22.244h.012a.54.54 0 0 0 .427-.196V3.99c0-.057-.476-.17-.476-.17zm1.58-.986c.179.145-.146.554-.339.97l-.067.144c.336-.213.511-.628.511-.628.082.129-.183.481-.102.586.09.317.454.7-.366 1.48-.107.065-1.327.717-1.424.717-.073 0-.126-.057-.305-.22l.366-.292v-.086l-.012-.012h-.074c-.122 0-.276.077-.464.232a3.407 3.407 0 0 1-.333-.398c.152-.12.213-.203.204-.314.023-.138-.07-.16-.141-.16-.033 0-.061.005-.071.005v.098c-.025.049-.078.09-.16.122-.032 0-.048-.11-.048-.11 0-.057.13-.236.39-.537.717-.88 1.27-1.327 1.742-1.327l.107.008c-.18.114-.097.306-.097.306.19-.167.497-.512.684-.584zm.497.593h.004c1.236 1.188 1.424 1.996 1.432 4.705l-2.095.033-.03-2.179c0-.146.033-.322.163-.395.878-.679.433-1.708.375-1.823-.021-.26.08-.34.151-.34zM63.898 2.25c-.074 0-.236 0-.4.178-.145.158-.192.458-.475.56-.282.192-.469.393-.647.577-.717.781-.956 1.054-.964 1.209-.572.466.045.741.232.849.61.708.506.658.768.773.094.025.149.047.197.047.052 0 .097-.025.177-.096.09 0 1.05-.464 1.05-.464.106 0 .15.35.15 1.147-.01.549-.067 1.454-.003 1.454h.003l.025.036h2.771l.012-.012-.036-.806c-.057-1.01.352-3.544-1.994-4.851.028-.164-.104-.343-.27-.343-.083 0-.175.045-.26.16-.014-.198-.099-.403-.336-.418zm-.272 8.65c.695.03 1.076.045 1.24.045h.075l-.09 3.632a5.329 5.329 0 0 1-1.382-.822l.157-2.855zm-10.133-.904c-.232.045-.538.187-.5.463v2.025a38.729 38.729 0 0 0-1.047-.044c0 .254.21.597.86.597.007.576.111 1.278.216 1.637l.09.941c0 .105.18.135.373.135.232 0 .486-.045.486-.045l-.037-.941c3.691.03 10.73.216 11.082.216.18 0 .299-.194.299-.463l.09-4.058-2.22-.022-.18 3.16c-1.606.008-4.386.27-6.276.27-.598 0-1.114-.023-1.465-.097-.075-.082-.77-1.091-1.21-1.203a1.938 1.938 0 0 0-.262-.03 161.82 161.82 0 0 1-.217-1.831c.135-.172.44-.127.523-.359.082-.112.03-.299-.127-.306-.09-.038-.336-.045-.44-.045zm16.683-7.224q.695 0 .695.917 0 .806-.695 1.596-.696-.79-.696-1.596 0-.917.696-.917zm0 3.525q.49 0 .49 1.059 0 .6-.49 1.107-.49-.506-.49-1.107 0-1.06.49-1.06zm0 3.193q.49 0 .49 1.06 0 .6-.49 1.106-.49-.506-.49-1.107 0-1.059.49-1.059zm0-7.24q-1.265 0-1.265 1.439-.016.9.419 1.414.435.514.387.688-.553.648-.553 1.565 0 .759.648 1.628-.648.648-.648 1.565 0 .759.648 1.613.079.205-.443.964-.521.759-1.075 2.624h.696q.348-1.233.617-1.763.268-.53.569-.861.316.332.577.861.26.53.608 1.763h.712q-.522-1.865-1.067-2.624-.546-.759-.451-.964.632-.854.632-1.613 0-.917-.6-1.565.6-.87.6-1.628 0-.917-.537-1.565-.048-.174.38-.688.426-.513.426-1.414 0-1.439-1.28-1.439zm12.999.42a3.054 3.054 0 0 1-2.101.798 4.33 4.33 0 0 1-.992-.122 4.04 4.04 0 0 0-.93-.11c-.925 0-1.856.325-2.792.973.759-.687 1.343-1.06 1.754-1.118.296-.042.73-.062 1.298-.062.219 0 .458.003.717.009.072.002.144.002.217.002.872 0 1.815-.123 2.829-.37zm-4.204.974c.365 0 .77.05 1.218.15a10.115 10.115 0 0 0 2.504.255c.19-.007.351-.01.483-.01.415 0 .533.032.353.097-.236.084-.71.138-1.419.16-.71.023-1.314.201-1.814.536a2.1 2.1 0 0 1-1.196.342c-.214 0-.44-.025-.678-.074-.75-.157-1.254-.328-1.513-.516.196-.348.573-.616 1.131-.803.273-.092.583-.137.93-.137zm-3.49 1.918zm.686-.576c-.115 0-.596.169-.8.414a.569.569 0 0 0-.125.376c-.015.084.014.196.104.345a.434.434 0 0 0 .266.094c.196 0 .364-.145.346-.352-.019-.224-.11-.337-.282-.337a.574.574 0 0 0-.194.036c.01-.035.017-.068.033-.09.167-.23.537-.36.652-.448.035-.026.03-.038 0-.038zm-1.172 1.867zM76.16 4.78c.179 0 .34.08.482.238.277.308.4.618.368.93-.03.313-.122.568-.274.764a5.436 5.436 0 0 0-.484-.024c-.445 0-.775.07-.989.211l-.12-.021c.035-.064.105-.193.136-.26a.485.485 0 0 0 .052.002l.194-.045c.057-.013-.41-.239-.414-.239l.005.003.032.198a.09.09 0 0 0 .008.026 8.718 8.718 0 0 0-.16.289l-.108-.02c.143-.526.194-.892.154-1.097-.04-.206.148-.453.563-.744.2-.14.386-.21.555-.21zm1.32 1.088c.015 0 .035.022.06.067 1.152.965 2.088 1.447 2.806 1.447.1 0 .195-.01.286-.027a7.067 7.067 0 0 1 1.371-.162c.158 0 .304.01.436.028.455.062.757.323.904.783.147.46.178.747.094.863-.085.116-.43.195-1.038.235a7.587 7.587 0 0 1-1.868-.12 3.027 3.027 0 0 0-.546-.062c-.292 0-.456.079-.491.235-.022.095-.083.143-.184.143-.152 0-.391-.106-.72-.317-.549-.352-.948-.743-1.198-1.171-.25-.429-.306-.75-.167-.964.138-.214.207-.453.207-.717 0-.174.016-.261.047-.261zm6.65 1.382c.425 0 .865.202 1.322.607.589.522.894.946.917 1.271.022.326-.13.527-.455.603a.906.906 0 0 1-.207.024c-.267 0-.55-.115-.851-.345-.38-.29-.656-.598-.83-.924-.174-.326-.261-.72-.261-1.185.12-.034.242-.051.366-.051zm-.82-5.001a2.13 2.13 0 0 0-.134.005c-1.103.285-2.3.428-3.59.428a16 16 0 0 1-.487-.007 5.373 5.373 0 0 0-.146-.002c-1.406 0-2.489.566-3.248 1.696-.544.357-.88.643-1.004.857-.125.214-.147.513-.067.897-.067.18-.119.339-.155.478l-.905.427.373-.01.488-.225a1.402 1.402 0 0 0-.02.167l-.77.513.349-.046.433-.286c.016.066.047.113.093.14.138.081.331.122.578.122.065 0 .133-.003.205-.008.186-.153.465-.229.837-.229.13 0 .27.01.422.028.187.901.901 1.718 2.142 2.45a37.289 37.289 0 0 0-2.199-.087c-.538 0-.88.029-1.028.087-.294.116-.446.335-.455.656.228.054.454.08.678.08.259 0 .515-.035.768-.107h4.164c.053-.178-.152-.482-.616-.91a5.96 5.96 0 0 0 1.575.196c.68 0 1.427-.092 2.24-.277l.724.322c-.266.107-.603.16-1.012.16-.168 0-.349-.008-.541-.026a2.321 2.321 0 0 0-.219-.011c-.538 0-.898.213-1.08.64.357.056.677.084.961.084.307 0 .57-.033.793-.098a18.68 18.68 0 0 1 1.576-.08c.279 0 .516.01.713.034.241.028.495.069.724.069.245 0 .462-.048.602-.21.603-.701.57-.737.585-1.118.025-.605-.038-1.333-.421-1.333-.07 0-.15.024-.242.078-.44.254-.022.53-.05 1.231 0 0-.062-.913-.957-1.509-.713-.475-1.593-.758-2.69-.776a28.77 28.77 0 0 0-.468-.004c-.855 0-1.48.043-1.876.13a2.106 2.106 0 0 1-1.379-.16c-.455-.21-1.151-.685-2.088-1.426.568.222 1.103.333 1.605.333.508 0 .98-.113 1.42-.34.875-.45 1.698-.687 2.47-.709.773-.022 1.221-.248 1.346-.676a14.662 14.662 0 0 0-1.995-.187c.634-.241 1.071-.552 1.312-.93.22-.348.109-.521-.334-.521zM75.3 13.707l-1.727 2.043h.842l.886-1.056.893 1.056.869-1.056.894 1.056.885-1.056.894 1.056.885-1.056.894 1.056.868-1.056.894 1.056.894-1.056.868 1.056.894-1.056.885 1.056h.843l-1.728-2.043-.894.987-.868-.987-.894.987-.894-.987-.868.987-.894-.987-.885.987-.894-.987-.885.987-.894-.987-.869.987-.893-.987zM93.294 2.684v.421h-2.225v-.42zm-1.12.83q1.396 0 1.929.71.533.71.533 1.277-.013.882-.737 1.54t-1.724.658q-1.014 0-1.737-.658-.724-.658-.724-1.527 0-.58.434-1.29.434-.71 2.027-.71zM90.439 2.25v.987q-.474.276-.869.895t-.408 1.369q0 .882.73 1.783.73.902 2.284.968 1.54-.066 2.277-.968.737-.901.737-1.77-.013-.763-.408-1.389-.395-.625-.882-.901V2.25zm1.573 7.498c-.083 0-.166.008-.25.016-1.205.128-2.06 1.348-1.871 2.53.083.88.629 1.372 1.227 1.857 1.78 1.091 1.28.69 3.077 1.599l.288-.538c-2.137-1-2.395-1.16-3.062-1.599-.545-.44-.977-.924-.94-1.66-.015-.507.289-1.03.63-1.28a1.63 1.63 0 0 1 .962-.326c.258 0 .5.06.712.212.538.266.834 1.145.44 1.698a1.045 1.045 0 0 1-.834.447.771.771 0 0 1-.454-.144c-.273-.152-.478-.682-.197-.978-.13-.136-.311-.303-.448-.303-.09 0-.159.068-.204.227-.303.728.182 1.554.91 1.75.128.039.257.062.386.062.833 0 1.606-.698 1.606-1.561.076-1.008-.727-1.933-1.735-1.993a2.449 2.449 0 0 0-.243-.016zm12.659-6.202a.05.05 0 0 1 .016.003c-.06.094-.036.148.071.16.13-.036.154-.09.071-.16l.249.106a1.007 1.007 0 0 1-.32.054.283.283 0 0 1-.04.003.19.19 0 0 1-.156-.074c.041-.061.077-.092.11-.092zm.085-.088c-.012 0-.023 0-.034.002-.118.011-.213.089-.284.23a.489.489 0 0 0 .364.143.99.99 0 0 0 .4-.142h.231V3.62h-.23c-.183-.108-.332-.162-.446-.162h-.001zm1.186-.025c.048 0 .068.023.06.071a.406.406 0 0 1-.106.213.535.535 0 0 1-.17.134.089.089 0 0 1-.03.01c-.019 0-.008-.025.03-.073.043-.05.052-.076.028-.076a.092.092 0 0 0-.027.005.093.093 0 0 1-.029.006c-.026 0-.026-.026.002-.077.036-.065.077-.127.124-.186a.376.376 0 0 1 .118-.027zm-.349.418c.06.035.072.068.036.097-.016.014-.03.02-.043.02-.015 0-.027-.01-.037-.029-.018-.035-.003-.065.044-.088zm.408-.54a.302.302 0 0 0-.088.015.475.475 0 0 0-.248.205c-.072.106-.09.183-.054.23-.071.036-.115.08-.133.134-.018.054.006.095.071.124a.102.102 0 0 0 .043.01c.061 0 .142-.048.241-.143a.973.973 0 0 0 .24-.31c.036-.09.042-.16.018-.214-.015-.033-.044-.05-.086-.051H106zm-.298-.825c.13 0 .277.02.441.058.427.101.643.32.649.658.006.338-.166.64-.515.906-.158.12-.254.18-.289.18-.042 0 .006-.09.146-.269.255-.325.344-.592.267-.8-.05-.136-.178-.205-.381-.205-.105 0-.23.018-.374.055-.474-.13-.616-.276-.427-.436.113-.095.267-.144.463-.147h.02zm-1.58 1.985a.187.187 0 0 0 .013.055c.024.06.036.133.036.222 0 .09.056.142.168.16a.992.992 0 0 0 .16.012c.078 0 .164-.007.258-.02.055.232.025.348-.09.348l-.026-.002a.59.59 0 0 0-.076-.005c-.14 0-.342.04-.59.156l-2.07 1.514c.287-.669.537-1.239.74-1.705.323-.107.632-.267.942-.314.124-.018.066-.243.09-.383.032 0 .28-.025.444-.038zm.741-1.394h.01c.077.007.293.08.648.223.02.052.052.078.097.078a.263.263 0 0 0 .134-.052.397.397 0 0 1 .217-.071c.044 0 .087.009.13.027.112.047.127.154.044.32a1.271 1.271 0 0 1-.328.417c-.137.113-.196.234-.178.365.017.13.098.225.24.284a.889.889 0 0 0 .293.534c.16.142.435.302.826.48-.616 1.042-.924 1.795-.924 2.257 0 0 .033.16.074.382.066.352.154.86.175 1.146a.566.566 0 0 1-.071.338c-.11.18-.673.268-1.686.268l-.198-.001c-.535.054-1.12.08-1.755.08-.477 0-.982-.014-1.515-.045.13-.391.811-.658 2.044-.8 1.22 0 1.83-.361 1.83-1.084 0-.498-.266-1.297-.8-2.4.688-.189.972-.396.854-.621.047-.332-.036-.51-.25-.534a.848.848 0 0 1-.083.005c-.186 0-.294-.073-.325-.218.178-.071.243-.13.195-.178-.047-.047-.13-.077-.248-.089.083-.082.053-.16-.09-.23l.32-.498a.345.345 0 0 1 .214-.063c.134 0 .306.05.515.152.119-.012.086-.063-.097-.152a1.095 1.095 0 0 0-.543-.115c.08-.137.157-.205.231-.205zm.985-.827a2.14 2.14 0 0 0-.389.037c-.385.07-.732.35-1.04.835-.07.178-.243.438-.515.782-.046.148-.03.222.044.222h.01a.478.478 0 0 1 .033-.001c.066 0 .113.015.144.046-.04.03-.06.06-.063.095l-.44-.002c-.334.012-.706.162-1.077.449-.931.8-1.38 1.74-1.368 2.804 0 .143.082.207.233.207a.693.693 0 0 0 .081-.005c.687-.3 2.092-.873 2.57-1.146.268.459.402 1.175.402 2.148l-.747.142c-1.8.178-2.844.462-3.128.853-.391.225-.681 1.013-.871 2.364-.284 1.422-.818 2.162-1.6 2.222l-1.315.497-.124.231c.095.083.184.125.266.125l2.418-.125c.166-.545.494-1.223.986-2.035.492-.811.684-1.531.578-2.16.225.806.432 1.85.622 3.129.035.308-.338.586-1.12.835-.355.024-.533.137-.533.338l1.83-.071c.403 0 .605-.16.605-.48-.13-.285-.145-.865-.045-1.742.101-.877-.009-1.588-.328-2.133l3.128-.124c1.019 0 1.528-.26 1.528-.782l-.089-1.742c0-.663.178-1.232.534-1.706l.373 1.582-.533 2.452a1.776 1.776 0 0 0-.223.471 2.382 2.382 0 0 0-.08.4c0 .095.027.222.08.382.054.16.086.311.098.454a.202.202 0 0 0 .071.07.03.03 0 0 0 .014.004c.017 0 .03-.019.04-.057.026.027.048.04.066.04.02 0 .034-.019.04-.057.027.027.05.04.066.04.021 0 .035-.02.041-.058.019.019.038.028.057.028l.014-.001c.024-.006.036-.039.036-.098-.06-.19-.104-.34-.134-.453-.03-.113-.032-.282-.009-.507.012-.06.024-.089.036-.089.024 0 .047.018.071.053 0 .06-.006.143-.018.25a.452.452 0 0 0 .027.248c.018.037.04.056.066.056a.085.085 0 0 0 .05-.02c.035-.012.044-.066.026-.16-.018-.095-.006-.231.036-.41.041-.177-.003-.366-.134-.568.545-.723.824-1.635.836-2.737-.06-.782-.214-1.44-.462-1.973a2.535 2.535 0 0 0-1.245-.657c-.308-.261-.26-.525.143-.791.402-.267.595-.61.577-1.031-.018-.42-.198-.7-.542-.836a1.894 1.894 0 0 0-.704-.134zm-8.407 13.478v.022h.044c-.012-.01-.032-.013-.044-.022zm13.928-4.64c.401.153.838.645.966 1.05.127.406.112.879.022 1.344-.09.458-.27.894-.488 1.18-.15.195-.285.307-.413.345h-.12c-.127-.03-.293-.143-.458-.346-.218-.285-.398-.72-.488-1.179-.09-.465-.105-.938.023-1.344.127-.405.606-.931.957-1.046v-.004zm-.423-8.838v.901h-.811v.578h.81l-.112 6.818c-.578.3-.938.81-1.111 1.359a3.576 3.576 0 0 0-.068 1.734 3.49 3.49 0 0 0 .646 1.457c.233.3.54.548.901.623v.022c.023.008.045.008.068.008.03 0 .06-.008.09-.008a.532.532 0 0 0 .105.008c.03 0 .052 0 .082-.008v-.022c.36-.075.669-.323.901-.623a3.49 3.49 0 0 0 .646-1.457 3.576 3.576 0 0 0-.067-1.734 2.228 2.228 0 0 0-1.112-1.337l-.112-6.84h.766l.022-.578h-.856V2.25h-.788zm6.127.437q-.279.703-.504 1.498-.205-.113-.404-.113-.199 0-.39.113-.08-.795-.478-1.498zm-.915 1.816q.358.04.358.357-.026.332-.358.371-.33-.04-.37-.357.04-.332.37-.371zm.544.927q.516 1.232.49 2.968 0 1.736-.676 3.87-.182.344-.365.344-.175 0-.35-.318-.544-2.173-.583-3.843-.04-1.789.45-3.02.12.29.49.317.358-.026.544-.318zm-1.71-3.18q-.45 0-.278.437.464.703.636 2.054-.676 1.471-.676 3.724.04 1.828.848 4.478-.384.53-.49.875-.039.385.245.385.107 0 .259-.054.33-.291.622-.795.08 1.034 1.961 2.293.195.103.341.103.172 0 .276-.143.192-.265-.391-.716-1.643-1.1-1.577-1.948.9-2.067.914-4.545.04-2.345-.662-3.67.159-1.338.556-2.04.252-.438-.12-.438zm7.621.968l3.639.203c.064.704.031 1.49-.097 2.36-1.357-.75-2.538-1.605-3.542-2.563zm3.948-.968c-.202 0-.411.131-.627.393l-3.931-.203c-.93.24-1.119.613-.57 1.117.108-.023.203-.035.286-.035.204 0 .337.07.398.211.086.198.317.457.693.776.376.32 1.397.978 3.061 1.977.197.493.414.74.652.74.111 0 .227-.054.347-.162 2.366 1.02 4.651 1.733 6.856 2.14l.311-.245-.76-.807c-1.618-.14-3.726-.77-6.323-1.888a6.717 6.717 0 0 1-.044-2.752l4.402.294c.653-.163.702-.502.145-1.015l-4.333-.181c-.182-.24-.37-.36-.563-.36zm-3.003 10.629c.805 0 1.814.414 2.301.902.427.426.483.992.499 1.518h-5.576c.015-.526.071-1.092.498-1.518.488-.488 1.472-.902 2.278-.902zm0-.451c-.956 0-1.984.441-2.587 1.044-.618.618-.688 1.432-.688 2.04v.238h6.55v-.237c0-.61-.047-1.423-.665-2.04-.603-.604-1.655-1.045-2.61-1.045zm8.049.451c.805 0 1.814.414 2.302.902.426.426.482.992.498 1.518h-5.576c.015-.526.071-1.092.498-1.518.488-.488 1.472-.902 2.278-.902zm0-.451c-.956 0-1.984.441-2.587 1.044-.618.618-.688 1.432-.688 2.04v.238h6.55v-.237c0-.61-.047-1.423-.665-2.04-.603-.604-1.655-1.045-2.61-1.045zm9.6-10.11l-.105.002c-.108.005-.224.01-.33.024-.197.05-.093.285.083.285a.205.205 0 0 0 .035-.003c.371.042.824.048 1.104.258.372.405.192 1.244.235 1.644.003.021.023 1.635.023 2.442a2.74 2.74 0 0 0-1.69-.211c-.196.103.033.24.186.24a.192.192 0 0 0 .048-.005c.542.058 1.158.2 1.433.704.027.092.01.124-.033.124-.092 0-.301-.149-.419-.149-.006 0-.012 0-.018.002a3.247 3.247 0 0 0-1.221-.023c-.183.12.05.216.204.216.02 0 .038-.002.054-.005.554.066 1.165.223 1.433.728.003.561-.015.94 0 1.456-.007.157.098.235.204.235.108 0 .218-.08.219-.235-.004-.51-.044-.963.023-1.456.135-.554 1.094-.639 1.69-.775.132-.155-.125-.215-.29-.215a.503.503 0 0 0-.061.003 2.785 2.785 0 0 0-.213-.008 2.52 2.52 0 0 0-1.15.267c-.014-.334.305-.524.54-.658.372-.16.787-.196 1.175-.282.134-.116-.064-.194-.213-.194a.322.322 0 0 0-.069.006c-.1-.01-.202-.014-.304-.014-.397 0-.799.076-1.152.25.007-1.261.036-2.472 0-3.664-.029-.369-.23-.712-.587-.822a2.004 2.004 0 0 0-.834-.167zm-2.477-.068c-.055 0-.112.027-.188.094-.3.404-.47.988-.493 1.738.092.588.31 1.416.634 2.489-.116.866-.2 2.058-.259 3.57-.046.507.077.836.4.986.958.254 2.174.376 3.64.376 1.477 0 2.693-.122 3.64-.376.334-.15.469-.479.422-.986-.057-1.512-.142-2.704-.258-3.57.323-1.073.542-1.9.634-2.49-.023-.75-.193-1.333-.493-1.737a.345.345 0 0 0-.211-.094c-.078 0-.107.076-.141.211.08.231.142.462.211.681.092.277.117.533.094.775-.023.393-.042.715-.094.963s-.144.376-.305.376h-.047c-.272 0-.4-.376-.4-1.104 0-.265.025-.582.095-.963-.06-.1-.12-.164-.188-.164-.065 0-.139.051-.212.14-.034.278-.059.582-.07.917-.046.508.087 1.213.376 2.137a49.507 49.507 0 0 0-.165 3.922c-.785.127-1.746.2-2.888.234-1.131-.034-2.08-.107-2.865-.234 0-1.305-.06-2.618-.165-3.922.289-.924.422-1.63.376-2.137-.011-.335-.06-.64-.094-.916-.073-.09-.123-.141-.188-.141-.068 0-.128.063-.188.164.07.381.094.698.094.963 0 .728-.127 1.104-.399 1.104h-.047c-.161 0-.253-.128-.305-.376a6.732 6.732 0 0 1-.118-.963c-.023-.242.025-.498.118-.775.07-.219.13-.45.211-.68-.034-.136-.086-.212-.164-.212zm2.912 10.098c-.352 1.448-.728 2.325-1.15 2.63-.218.157-.409.235-.573.235a.472.472 0 0 1-.39-.211c-.216-.29.485-1.174 2.113-2.654zm-5.26-.822v.846l4.602-.024c-1.894 1.644-2.587 2.67-2.066 3.053.318.234.658.349 1.015.349.227 0 .46-.046.699-.138.614-.234 1.135-1.307 1.573-3.24v3.358h.517v-3.382h5.777v-.822zm16.096-8.931q-.083.871-.083 1.953 0 1.08.105 2.184-.24-.127-.75-.127-.519 0-.751.127.112-1.103.105-2.184-.008-1.082-.083-1.953zm-.729 4.475q.511.008 1.037.27l-.136.248q-.106-.018-.198-.018-.32 0-.477.221-.09-.398-.226-.488-.135.09-.232.488-.157-.221-.477-.221-.093 0-.199.018l-.135-.247q.54-.263 1.043-.27zm0 .721q.113.09.076.263-.038.173-.076.33-.045-.157-.082-.33-.038-.173.082-.263zm.684.001q.043 0 .09.007-.51 1.216-.774 1.216-.255 0-.788-1.216.048-.007.091-.007.274 0 .352.247.098.278.203.45.112.18.142.18.038 0 .136-.18.105-.172.195-.45.084-.247.353-.247zM150.58 2.25q.36 2.553-.007 4.603-.669.315-.556.533.082.164.189.164.04 0 .081-.022.654.736 1.074 1.735.165 1.644-.045 5.684 0 .803.42.803h.023q.42 0 .42-.803-.202-4.04-.045-5.684.413-.999 1.067-1.735.042.022.08.022.107 0 .19-.164.113-.218-.548-.533-.376-2.05 0-4.603zm8.858 1.223a2.77 2.77 0 0 0-1.88.73c-.065.057-.002.246-.002.32 0 .047.024.066.066.066.127 0 .41-.187.601-.36.252-.226.644-.327 1.122-.327.55 0 1.216.134 1.913.362.293.097.727.15 1.105.15.444 0 .812-.073.789-.238-.014-.096-.065-.111-.216-.111-.068 0-.158.003-.274.003a6.13 6.13 0 0 1-.356-.01c-.398-.024-1.726-.397-2.13-.495a3.144 3.144 0 0 0-.738-.09zm.938 1.305c.07 0 .218.04.507.127 1.359.41.943.308.062.57-.056.017-.406.092-.465.106-.15.038-.221.061-.246.061-.055 0 .115-.115.15-.45.026-.252-.151-.414-.008-.414zm-.716-.03c.11 0 .216.023.263.08.147.18.17.528-.046.703a.458.458 0 0 1-.283.117c-.114 0-.223-.061-.317-.194-.075-.107-.187-.529.13-.662a.692.692 0 0 1 .253-.045zm-.861.176c.046 0 .026.114-.01.414.054.285.24.419.15.419-.046 0-.164-.035-.409-.104-.403-.113-.515-.167-.086-.476.206-.148.31-.253.355-.253zm1.135-.471c-.638 0-1.41.11-2.021.722-.185.185-.497.446-.443.478.547.32 1.229.412 1.814.412.669 0 1.21-.12 1.278-.157.195-.106.837-.265 1.245-.372.399-.104.618-.048.984-.242.259-.137.291-.172.291-.3 0-.157-.096-.245-.23-.245a.46.46 0 0 0-.247.084.76.76 0 0 1-.436.121c-.247 0-.573-.08-1.042-.246-.47-.166-.886-.255-1.193-.255zm3.265-1.747c.219 0 .308.612.308 2.075 0 1.262-.184 2.048-.208 2.195-.116.705-.5 2.938-3.01 3.723-.036.012-1.409.215-2.06.215h-1.184v-.38c0-.305-.048-.429-.25-.636-.25-.256-.251-.258-.07-.354a.328.328 0 0 1 .159-.046c.09 0 .195.043.375.142.2.109.432.163.641.163.284 0 .524-.1.579-.299.22-.791-.25-1.198-.5-1.225a.674.674 0 0 0-.072-.005c-.234 0-.23.155.023.354.176.138.321.686-.039.686a.81.81 0 0 1-.341-.102c-.224-.111-.467-.21-.685-.21-.232 0-.433.112-.549.439-.043.123-.158.175-.293.175-.227 0-.513-.15-.608-.358-.074-.164.845-2.015.902-2.085.117-.142.369-.823.378-1.02.004-.07.018-.477.033-.905.015-.442.117-.81.129-.9.075-.605.595-1.463.706-1.554.072-.06.927-.076 1.947-.076.995 0 2.146.014 2.886.014.425 0 .714-.004.76-.019a.14.14 0 0 1 .043-.007zm.442-.456l-5.937.036c-.882.005-1.483 2.49-1.433 3.269.07 1.069-1.371 2.931-1.285 3.489.07.451-.022.48.297.786.278.268.39.197.696.32.377.15.578.137.553.441-.008.108.003.663.003.663h1.44c1.357 0 2.177-.126 2.328-.174 3.201-1.015 3.3-3.935 3.31-3.968.195-.705.332-2.933.131-4.206l-.103-.656zm-4.227 10.823c.751 0 1.691.386 2.146.84.398.399.45.926.464 1.417h-5.198c.014-.49.066-1.018.464-1.416.455-.455 1.373-.84 2.124-.84zm0-.42c-.89 0-1.85.411-2.411.973-.577.577-.642 1.335-.642 1.903v.221h6.106v-.221c0-.568-.043-1.326-.62-1.903-.561-.562-1.542-.973-2.433-.973zm11.925-7.103q-.229 0-.369.152-.14.153-.14.343 0 .165.14.324.14.158.356.158.241 0 .374-.146.134-.146.134-.336 0-.203-.16-.349-.158-.146-.335-.146zm0-.114q.228 0 .425.178.196.177.196.431 0 .229-.17.419-.172.19-.464.19-.267 0-.438-.203-.171-.203-.171-.406 0-.241.17-.425.172-.184.452-.184zm0-3.186q-.242 0-.28.495v2.17q.013.254-.14.47-.133.05-.26.05-.126 0-.247-.05l-2.056-.673q-.172-.04-.291-.04-.226 0-.268.142-.076.228.394.419l2.069.66q.24.076.393.304 0 .28-.165.483l-1.27 1.751q-.266.432-.075.559.05.037.112.037.167 0 .408-.278l1.27-1.752q.139-.216.406-.305.253.077.406.305l1.269 1.752q.241.278.401.278.059 0 .107-.037.19-.14-.064-.571l-1.282-1.752q-.165-.203-.152-.47.152-.228.406-.304l2.056-.66q.47-.19.394-.406-.051-.153-.282-.153-.116 0-.277.038l-2.069.673q-.12.044-.244.044t-.25-.044q-.166-.216-.153-.47v-2.17q-.038-.495-.266-.495zm-5.997 8.045v5.455h4.272v-.642h-3.63v-4.171h10.71v4.171h-3.25v.642h3.891v-5.455zm13.493-8.045v6.454h5.054v-.76h-4.295V3.01h12.671v4.936h-3.844v.76h4.604V2.25zm7.095 10.629c.805 0 1.814.414 2.302.902.426.426.482.992.498 1.518h-5.576c.015-.526.071-1.092.498-1.518.488-.488 1.472-.902 2.278-.902zm0-.451c-.956 0-1.984.441-2.587 1.044-.618.618-.688 1.432-.688 2.04v.238h6.55v-.237c0-.61-.047-1.423-.665-2.04-.603-.604-1.655-1.045-2.61-1.045z"/><path d="M18.436.375v17.25m0-17.25h2.625m-2.625 17.25h2.625m0-17.25h171.964M21.061 17.625h171.964M195.65.375v17.25m0-17.25h-2.625m2.625 17.25h-2.625" fill="none" stroke="#000"/></svg>