<svg xmlns="http://www.w3.org/2000/svg" width="85.404" height="18"><path d="M15.027 2.25c-.083 0-.167.008-.25.015-1.208.13-2.066 1.352-1.876 2.536.084.881.63 1.375 1.23 1.86 1.785 1.094 1.284.692 3.083 1.603l.289-.54c-2.142-1.002-2.4-1.161-3.068-1.602-.547-.44-.98-.926-.941-1.662-.016-.51.288-1.033.63-1.284a1.64 1.64 0 0 1 .964-.326c.258 0 .501.06.714.212.539.266.835 1.147.44 1.701a1.047 1.047 0 0 1-.835.448.773.773 0 0 1-.456-.144c-.273-.152-.478-.683-.197-.98-.13-.136-.311-.303-.448-.303-.091 0-.16.068-.205.228-.304.729.182 1.556.911 1.754.13.038.258.06.387.06.836 0 1.61-.698 1.61-1.564.076-1.01-.729-1.936-1.739-1.997a2.454 2.454 0 0 0-.243-.015zm-.877 11.631a1.31 1.31 0 0 0-.312.039c-.21.051-.437.168-.682.35H8.22v1.091h4.936c.245.182.472.299.682.35a1.31 1.31 0 0 0 .623 0c.205-.051.41-.168.617-.35h.19c.197.182.4.299.61.35a1.316 1.316 0 0 0 .63 0c.209-.051.432-.168.67-.35h4.983V14.27h-4.983c-.238-.182-.461-.299-.67-.35a1.316 1.316 0 0 0-.63 0 1.39 1.39 0 0 0-.61.35h-.19a1.492 1.492 0 0 0-.617-.35 1.274 1.274 0 0 0-.31-.039zM27.579 2.933v4.845h-3.25V2.933zM23.66 2.25v6.196h4.6V2.25zm10.213.964l-.015.008 2.718 5.209H37.6l-2.718-5.217zm-2.278.008l-1.025.008 2.718 5.216 1.025-.008-2.718-5.216zm-2.004 10.659a1.31 1.31 0 0 0-.313.039c-.21.051-.437.168-.682.35h-4.935v1.091h4.935c.245.182.473.299.682.35a1.31 1.31 0 0 0 .623 0c.206-.051.411-.168.617-.35h.19c.198.182.401.299.61.35a1.316 1.316 0 0 0 .63 0c.21-.051.433-.168.67-.35h4.983V14.27h-4.983c-.237-.182-.46-.299-.67-.35a1.316 1.316 0 0 0-.63 0 1.402 1.402 0 0 0-.61.35h-.19a1.492 1.492 0 0 0-.617-.35 1.274 1.274 0 0 0-.31-.039zM40.658 3.093q1.51.22 1.579 1.382v8.382q-.706-.843-2.536-1.184l.957-8.58zm-.426-.843l-1.131 10.022q2.52.289 3.136 1.8v1.678h.752V4.475q0-1.883-2.757-2.225zm5.813.843q1.511.22 1.58 1.382v8.382q-.707-.843-2.537-1.184l.957-8.58zm-.425-.843l-1.131 10.022q2.52.289 3.135 1.8v1.678h.752V4.475q0-1.883-2.756-2.225zm5.984 0l-1.728 2.043h.843l.885-1.055.894 1.055.868-1.055.894 1.055.886-1.055.894 1.055.885-1.055.894 1.055.868-1.055.894 1.055.894-1.055.868 1.055.894-1.055.885 1.055h.843L62.237 2.25l-.894.988-.868-.988-.894.988-.894-.988-.868.988-.894-.988-.885.988-.894-.988-.886.988-.894-.988-.868.988-.894-.988zm4.266 3.82c-.105 0-.21.013-.316.04-.212.051-.442.17-.69.353h-4.988v1.103h4.988c.248.184.478.302.69.354a1.324 1.324 0 0 0 .63 0c.207-.052.415-.17.623-.354h.192c.2.184.405.302.617.354a1.33 1.33 0 0 0 .636 0c.211-.052.437-.17.677-.354h5.036V6.463H58.93c-.24-.184-.466-.302-.677-.354a1.33 1.33 0 0 0-.636 0 1.42 1.42 0 0 0-.617.354h-.192a1.508 1.508 0 0 0-.624-.354 1.287 1.287 0 0 0-.313-.039zm-1.853 4.101v.422h-2.229v-.422zm-1.12.831q1.397 0 1.931.712.534.713.534 1.28-.013.883-.738 1.543-.726.66-1.728.66-1.015 0-1.74-.66-.726-.66-.726-1.53 0-.58.435-1.293.435-.712 2.031-.712zm-1.742-1.266v.99q-.474.276-.87.896t-.409 1.372q0 .883.732 1.787.732.903 2.288.969 1.543-.066 2.282-.97.738-.903.738-1.773-.013-.765-.409-1.391-.395-.627-.883-.904v-.976zm9.535 3.143c.806 0 1.815.414 2.302.902.427.426.483.992.499 1.518h-5.577c.016-.526.072-1.092.499-1.518.488-.488 1.472-.902 2.278-.902zm0-.451c-.955 0-1.983.441-2.586 1.044-.618.618-.688 1.432-.688 2.04v.238h6.55v-.237c0-.61-.047-1.423-.665-2.04-.603-.604-1.655-1.045-2.61-1.045zm10.62-9.796c.749 0 1.416.346 1.851.888h-3.703a2.368 2.368 0 0 1 1.851-.888zm2.102 1.27c.142.272.234.575.262.897h-4.729a2.36 2.36 0 0 1 .263-.897zm.264 1.28a2.36 2.36 0 0 1-.248.896h-4.236a2.361 2.361 0 0 1-.25-.897zm-.491 1.279a2.368 2.368 0 0 1-1.876.918 2.37 2.37 0 0 1-1.875-.918zM71.309 2.25a2.76 2.76 0 0 0-2.755 2.756A2.759 2.759 0 0 0 71.31 7.76a2.76 2.76 0 0 0 2.756-2.755 2.76 2.76 0 0 0-2.756-2.756zm-3.725 9.056l-.753 3.395-.715-.332 1.468-3.063zm9.13-2.286c-.015 0-.03 0-.045.002a1.24 1.24 0 0 0-.37.115c-.774.98-1.35 2.194-1.722 3.637-.43.072-1.442.515-3.025 1.327a.705.705 0 0 1-.247.039 2.25 2.25 0 0 1-.659-.128 1.002 1.002 0 0 0-.308-.042c-.084 0-.172.006-.266.016l-.332.102-2.144-3.496-2.13 4.275.293.102.14-.294.128.051-.14.358.204.076.14-.332.153.077-.128.344.23.09.115-.345.179.09-.077.344.243.115.855-3.93 1.595 2.577-.37.102-.383.115c.01.106.03.183.076.243.048.059.132.094.243.102.11.008.162.034.178.09.07.239.157.45.256.612.078.127.17.19.274.19a.295.295 0 0 0 .083-.012c.149-.046.301-.086.447-.14l.15.225c.016.023.043.033.074.033.109 0 .272-.119.22-.2l-.138-.211c.301-.13.59-.292.88-.447.988-.144 1.857-.366 2.59-.663.735-.297 1.24-.615 1.52-.957.078-.045.421-.632 1.02-1.749.6-1.116.776-1.881.536-2.31a.36.36 0 0 0-.115-.127.407.407 0 0 0-.224-.066z"/><path d="M8.22.375c-9.625 0-9.625 17.25 0 17.25m0-17.25h68.934M8.22 17.625h68.934M84.841.375v17.25M77.154.375c9.625 0 9.625 17.25 0 17.25" fill="none" stroke="#000"/></svg>