<svg xmlns="http://www.w3.org/2000/svg" width="254.299" height="18"><path d="M3.73.474c.693 0 1.247.2 1.634.479.006.053.02.107.009.16-.05.248-.195.477-.396.63-.316.207-.697.267-1.057.356-.09.01-.019.031.031.04.23.04.707.099.971.099l.052-.001c.278-.032.54-.148.766-.311.079-.067.147-.15.205-.236.147.346.227.713.26.917.018.11.096.2.202.233 1.139.349 2.038 1.91 2.88 2.949 1.729 2.137 3.199 4.526 4.892 6.76-.937-.456-1.87-.916-2.81-1.374-1.92-1.01-3.92-1.816-5.604-3.09l-.008-.008c-.97-.808-1.963-1.66-2.339-2.793-.148-.92 1.757-2.577 1.542-2.646a.207.207 0 0 0-.064-.01c-.458 0-1.753 1.128-2.019 2.202-.003-.014-.01-.03-.014-.045-.073-.356-.154-1.256.068-1.98a.29.29 0 0 0 .01-.103 1.968 1.968 0 0 0-.123-.634c-.063-.17-.139-.344-.26-.765-.031-.108-.142-.328-.208-.345.186-.138.375-.28.645-.375a.434.434 0 0 0-.132.314c0 .23.164.415.365.415.2 0 .364-.186.364-.415V.894a.411.411 0 0 0-.255-.39c.053-.007.096-.019.154-.022.081-.006.16-.008.238-.008zm.67 7.763c.065.065.135.124.202.187.214.78.412 1.64.692 2.305.483 1.145 1.216 2.141 1.84 3.154a1.814 1.814 0 0 0-.385.27 6.831 6.831 0 0 0-.199.193 2.61 2.61 0 0 0-1.186-.897c.045-.723-.108-1.712-.34-2.787A34.903 34.903 0 0 0 4.4 8.237zm1.006.908c1.149.945 2.428 1.738 3.676 2.54-.018.91-.018 1.778.084 2.675a3.411 3.411 0 0 0-1.437-.736c-.02 0-.037.012-.057.012-.649-1.063-1.383-2.06-1.837-3.134-.156-.37-.293-.85-.429-1.357zm.407 5.254a2.5 2.5 0 0 1 .44.541.3.3 0 0 0 .257.14.29.29 0 0 0 .17-.053c.215-.156.347-.324.476-.446.047-.045.097-.08.148-.117l.149 2.722c-.213-.014-.435-.035-.637-.035-.264 0-.495.036-.633.172-.169-.134-.497-.164-.89-.164-.102 0-.207.002-.316.004l.836-2.764zM6.97 9.574c1.354.787 2.784 1.414 4.135 2.125a.244.244 0 0 0 .006.003c1.295.631 2.586 1.28 3.894 1.904.984 1.189 2.052 2.295 3.078 3.42l-2.15.362-4.267-4.635a.288.288 0 0 0-.037-.036c-1.499-1.137-3.152-2.082-4.66-3.143zM3.796 0c-.135 0-.273.005-.411.013C2.3.083 1.512.54 1.243 1.157c-.04.093-.146.314-.007.314a2.35 2.35 0 0 1 .341-.028c.418 0 .38.172.47.194.09.282.29.846.303 1.068-.244.86-.153 1.763-.064 2.198.15.732.63 1.584 1.261 2.38a.285.285 0 0 0 0 .166 35.3 35.3 0 0 1 .903 3.336c.251 1.168.393 2.277.317 2.823a.294.294 0 0 0 .221.328c.045.011.084.031.127.045l-.928 3.079a2.847 2.847 0 0 0-.593-.055c-.381 0-.756.05-1.064.05-.125 0-.24-.008-.34-.032a.546.546 0 0 0-.125-.012c-.436 0-1.428.306-1.34.879.15-.128.257-.159.375-.159.11 0 .23.027.405.027h.027c.254-.004.697-.083 1.053-.083.18 0 .338.02.438.08.236-.01.45-.013.649-.013.85 0 1.447.07 2.5.075a89.565 89.565 0 0 0 2.974-.079c.45.003.697.054.922.054h.04c.134-.004.265-.057.48-.057.123 0 .273.017.468.07-.25-.341-.877-.685-1.33-.685a.591.591 0 0 0-.302.071 5.081 5.081 0 0 0-.508-.022c-.22 0-.448.01-.678.02l-.157-2.83c.487.203.857.517 1.281 1.021a.295.295 0 0 0 .513-.246c-.192-1.039-.213-2.019-.202-3.06.54.354 1.072.713 1.576 1.094l4.36 4.738a.29.29 0 0 0 .263.09c.95-.159 1.9-.315 2.849-.474a.294.294 0 0 0 .23-.193.298.298 0 0 0-.06-.297c-.741-.83-1.508-1.631-2.25-2.445 1.269.78 2.875 1.755 3.08 1.755.022 0 .027-.013.012-.04-.094-.163-.9-.755-1.775-1.373.14.058.276.12.415.177l.017.01c.103.035.16.059.27.062a.286.286 0 0 0 .108-.016.317.317 0 0 0 .188-.152.32.32 0 0 0 .023-.238c-.017-.05-.038-.077-.054-.098-.061-.085-.103-.109-.162-.154a4.553 4.553 0 0 0-.205-.149c-.153-.105-.336-.223-.493-.328a4.992 4.992 0 0 1-.328-.233.307.307 0 0 0-.028-.025l-3.892-2.736c-.008-.006-.02-.001-.028-.006-1.333-1.869-2.588-3.825-4.046-5.627C9 4.496 8.145 2.888 6.758 2.352 6.69 1.956 6.54 1.225 6.003.703 5.547.26 4.888.056 4.147.011A5.728 5.728 0 0 0 3.796 0zm13.74 2.229c-.478 0-.799.277-.793.718.007.478.328.755.793.755.466 0 .744-.278.737-.755-.006-.442-.283-.718-.737-.718zm.055-1.594c.315 0 .63.066.946.196.606.25 1.015.685 1.285 1.275.274.601.255 1.21 0 1.813-.255.6-.69.995-1.285 1.247a2.343 2.343 0 0 1-.923.189 2.74 2.74 0 0 1-.975-.19c-.603-.229-1.003-.672-1.274-1.246a2.13 2.13 0 0 1-.19-.916c0-.634.277-1.196.7-1.652.208-.226.467-.398.764-.52.32-.13.636-.196.951-.196zM17.516 0c-.833 0-1.488.289-2.076.878-.602.603-.857 1.26-.869 2.106-.006.49.093.921.292 1.313.158.773.167 2.065-.043 2.065-.366 0-.156-.97-.174-1.274-.03-.515-.335-.954-.696-1.302-.084-.08-.175-.17-.296-.183a3.318 3.318 0 0 0-.349-.023c-.136 0-.27.015-.396.06-.089.033-.092.16-.063.242.03.085.088.175.186.187.025.003.05.004.074.004.12 0 .24-.03.36-.03h.015c.05 0 .107.004.143.04-.081.152-.193.3-.21.478a.465.465 0 0 0 .016.208c.236.652.38 2.15 1.357 2.15.185 0 .274-.04.333-.094.434-.403.44-1.086.414-1.652.574.54 1.221.765 2.021.776h.047c.819 0 1.472-.303 2.06-.868.159-.154.294-.311.406-.476.027.56.054 1.124.26 1.65.161.415.522.717.91.922.03.016.051.023.066.023.048 0 .019-.074-.036-.127a2.354 2.354 0 0 1-.574-.87c-.208-.57-.187-1.184-.174-1.78.008-.364.024-.73.003-1.093h-.003c.012-.112.018-.227.02-.346.01-.853-.287-1.503-.879-2.106-.6-.61-1.255-.869-2.106-.878h-.039zm10.746 3.868c1.342 0 2.187.728 2.543 2.219H25.72c.34-1.49 1.184-2.22 2.542-2.22zm0-.588c-1.946 0-3.023 1.159-3.28 3.453h6.593c-.257-2.294-1.366-3.453-3.313-3.453zM35.567.795c0 .72.074 1.383.265 2.012.174.63 1.648 1.201 4.43 1.74-.546 1.507-1.962 2.857-4.323 4.025-2.343 1.167-6.078 1.88-11.196 2.12h-.108c-.364 0-.447-.075-.282-.207a55.46 55.46 0 0 0 8.696-1.74c2.816-.803 4.224-1.92 4.224-3.362 0-.803-.977-1.499-2.957-2.07V.795zM33.579 0l.033 4.017c1.864.422 2.783.87 2.75 1.333-.042.464-.282.903-.77 1.325-.489.43-1.607.96-3.338 1.54-1.74.588-3.669 1.027-5.772 1.359-2.087.34-3.139.555-3.156.679.125.555.348.861.68.861.447.008.877.017 1.308.017 3.04 0 5.723-.274 8-.787 2.6-.588 4.596-1.557 6.004-2.957 1.4-1.391 1.988-2.476 1.74-3.246 0-.116-.671-.315-1.98-.596-1.308-.282-2.062-.597-2.302-.945-.249-.347-.406-1.217-.447-2.6zm6.37 13.231q.361 0 .361.38v2.909h-1.102l.362-3.065q.017-.224.379-.224zm.017-.464q-.878 0-.93.499-.361 3.254-.775 3.27l-7.987.293-.827-.034q-.93-.981-1.652-.981-.259-.018-.534-.035-1.463.276-1.756.276-.206 0-.206.275 0 .379.585.379 1.005-.16 1.542-.16.097 0 .18.005.292 0 .481.24-.335.417-1.502.417-.09 0-.185-.003-1.325-.034-2.341-.344-.5 0-.5.585.052.534 3.736.551l1.636-.172 9.33-.052 2.617.035v-4.2q-.017-.844-.912-.844zM45.394.644q-.462 0-.462.35 0 .294.462.294.448 0 .448-.294 0-.35-.448-.35zm.35-.196q1.064 0 1.596.686.266.434.518 1.33-.014.21-.35.28-.336.07-.658.07-1.484-.546-2.296-1.89.056-.476 1.19-.476zm2.534 2.1q.267.197 1.128.715.86.518 2.688 2.149 1.828 1.631 2.766 1.918.938.287 2.205.343 1.267.056 1.911.294 0 .197-.406.309-3.514-.407-5.16-.757-1.645-.35-2.429-.595-.784-.245-2.002-.93-1.219-.687-1.947-1.331-.728-.644-.952-1.008-.224-.364.553-.385.777-.021 1.26-.224t.385-.498zm10.74 5.49l.112.111q0 .113-.14.155l-.266-.014q.294-.126.294-.253zm.182.168l.113.14-.21-.014q.083-.07.097-.126zM44.4.994q.952 1.358 2.226 1.905-.162-.009-.305-.009-1.027 0-1.04.443 0 .7 2.388 2.408t5.622 2.212q1.4.182 1.569.547.028.266-1.33.336h-2.255q-.224-.49-.826-.897l.126.35q-2.24-1.288-3.928-2.849-1.687-1.561-1.701-2.71 0-.546-.546-1.372 0-.126-.756-.238v-.028L44.4.994zm10.978 7.38l3.878.686q-.406.168-.567.602-.16.434.035 1.05L54.706 9.13q.056-.014.266-.12.21-.104.37-.286.162-.182.036-.35zm-6.091-.267q1.512 1.009 1.484 1.317-.224.728-1.092 1.848-.462 0-.875-.098-.223-.053-.464-.053-.206 0-.426.04 1.443-2.045 1.443-2.13 0-.545-.084-.924zM45.73 0q-.742 0-1.113.203t-.4.54q-1.105.153-1.105.223v.28q.028.07.924.336.476.63.476 1.149 0 .98.714 1.932t3.066 3.122q.21 0 .435 1.247l-1.317 2.016q-.168.112-.448.126-.462-.154-1.47-.154-.32.098-.567.098-.176 0-.315-.049-.272-.096-.728-.096-.107 0-.224.005-.476.224-.084.616l7 .014-.223-.336q.434-.714 1.12-1.96h2.52l5.462 2.114.056-.196q-.589-.588-.49-1.33.21-.602 1.106-.798v-.196l-2.24-.406v-.014l2.1.14q0-.056-.357-.715-.357-.658-1.506-.658-1.876-.056-2.765-.182-.89-.126-3.396-2.422-2.506-2.297-3.585-2.549Q47.858 0 45.73 0zm5.888 14.24q2.996 0 6.355 1.447-3.359 1.408-6.355 1.408-2.976 0-6.355-1.408 3.379-1.448 6.355-1.448zm0-.926q-3.7 0-8.506 2.353Q47.918 18 51.618 18t8.507-2.333q-4.787-2.353-8.507-2.353zM65.028.295c.128.088.119.136.106.189-.018.068-.225.114-.32.114-.026 0-.044-.004-.045-.012 0-.061.1-.22.26-.291zm-1.067 1.4c-.131 0-.197.07-.197.21 0 .177.079.265.237.265h.013c.185 0 .339-.07.462-.211v-.08c0-.061-.515-.184-.515-.184zM65.668.63c.193.156-.158.598-.366 1.048l-.073.154c.363-.23.552-.678.552-.678.088.14-.198.52-.11.633.096.343.49.757-.396 1.6-.115.07-1.432.773-1.538.773-.079 0-.136-.06-.33-.237l.396-.316v-.092L63.79 3.5h-.08c-.13 0-.298.084-.5.25a3.68 3.68 0 0 1-.36-.429c.164-.13.23-.219.22-.339.025-.149-.075-.172-.152-.172-.036 0-.066.005-.077.005v.105c-.027.053-.084.097-.172.132-.035 0-.053-.119-.053-.119 0-.061.141-.255.422-.58.774-.95 1.371-1.433 1.881-1.433l.116.009c-.195.123-.106.33-.106.33.205-.18.537-.553.74-.63zm.537.64a.1.1 0 0 1 .004 0c1.335 1.283 1.538 2.156 1.546 5.082l-2.262.035-.032-2.353c0-.158.035-.348.175-.427.949-.733.468-1.845.406-1.969-.024-.28.086-.368.163-.368zM65.065 0c-.078 0-.253 0-.43.192-.158.171-.209.494-.514.605-.304.207-.506.424-.7.623-.773.844-1.032 1.138-1.04 1.306-.617.503.048.8.25.917.66.765.547.71.83.835.102.027.16.05.213.05.056 0 .104-.026.191-.103.097 0 1.134-.5 1.134-.5.114 0 .162.376.162 1.238-.01.592-.072 1.57-.003 1.57h.003l.027.039h2.993l.013-.014-.04-.87c-.06-1.09.381-3.827-2.152-5.24.03-.176-.113-.369-.292-.369-.09 0-.189.049-.28.172-.016-.213-.108-.434-.364-.451zm7.01.295c.128.088.119.136.105.189-.017.068-.225.114-.32.114-.026 0-.043-.004-.045-.012 0-.061.101-.22.26-.291zm-1.067 1.4c-.132 0-.198.07-.198.21 0 .177.08.265.238.265h.013c.184 0 .338-.07.461-.211v-.08c0-.061-.514-.184-.514-.184zM72.715.63c.192.156-.159.598-.367 1.048l-.072.154c.363-.23.552-.678.552-.678.088.14-.199.52-.11.633.096.343.49.757-.396 1.6-.115.07-1.433.773-1.538.773-.08 0-.136-.06-.33-.237l.396-.316v-.092l-.013-.014h-.08c-.131 0-.298.084-.5.25a3.68 3.68 0 0 1-.36-.429c.164-.13.23-.219.22-.339.024-.149-.076-.172-.153-.172-.035 0-.066.005-.077.005v.105c-.026.053-.083.097-.171.132-.035 0-.053-.119-.053-.119 0-.061.14-.255.422-.58.774-.95 1.37-1.433 1.88-1.433l.116.009c-.195.123-.105.33-.105.33.205-.18.537-.553.739-.63zm.536.64a.1.1 0 0 1 .004 0c1.336 1.283 1.539 2.156 1.546 5.082l-2.262.035-.032-2.353c0-.158.035-.348.176-.427.948-.733.468-1.845.405-1.969-.023-.28.087-.368.163-.368zM72.112 0c-.079 0-.254 0-.43.192-.158.171-.21.494-.514.605-.305.207-.507.424-.7.623-.773.844-1.032 1.138-1.041 1.306-.617.503.049.8.251.917.66.765.547.71.83.835.101.027.16.05.212.05.056 0 .105-.026.192-.103.097 0 1.133-.5 1.133-.5.115 0 .163.376.163 1.238-.01.592-.072 1.57-.004 1.57h.004l.026.039h2.994l.013-.014-.04-.87c-.061-1.09.38-3.827-2.153-5.24.03-.176-.112-.369-.291-.369-.09 0-.19.049-.281.172-.016-.213-.107-.434-.364-.451zm-3.428 9.533L67.145 7.98l-.556.496 1.57 1.579-1.579 1.568.523.527 1.578-1.57 1.569 1.579.526-.523-1.539-1.643 1.548-1.504-.522-.526-1.579 1.569zm3.998 4.55c.56.024.869.036 1.002.036h.06l-.073 2.933a4.304 4.304 0 0 1-1.116-.664l.127-2.305zm-8.185-.73c-.187.036-.435.15-.405.374v1.635a31.282 31.282 0 0 0-.845-.036c0 .205.17.483.695.483.006.465.09 1.032.175 1.322l.072.76c0 .085.145.109.302.109.187 0 .392-.036.392-.036l-.03-.76c2.982.023 8.668.174 8.951.174.145 0 .242-.157.242-.374l.072-3.277-1.793-.019-.144 2.554c-1.298.006-3.543.217-5.07.217-.483 0-.9-.018-1.184-.079-.06-.066-.621-.88-.977-.971a1.566 1.566 0 0 0-.212-.024c-.06-.495-.12-.99-.175-1.48.109-.138.356-.102.423-.289.066-.09.024-.241-.103-.247-.072-.03-.271-.037-.356-.037zM79.75.696q.926 0 .926 1.222 0 1.075-.927 2.129-.927-1.054-.927-2.129 0-1.222.927-1.222zm0 4.7q.652 0 .652 1.412 0 .8-.653 1.475-.653-.674-.653-1.475 0-1.412.653-1.412zm0 4.257q.652 0 .652 1.413 0 .8-.653 1.475-.653-.674-.653-1.475 0-1.413.653-1.413zm0-9.653q-1.687 0-1.687 1.918-.021 1.201.558 1.886.58.685.517.917-.738.864-.738 2.087 0 1.012.864 2.17-.864.865-.864 2.088 0 1.011.864 2.15.106.273-.59 1.285-.695 1.012-1.433 3.499h.927q.464-1.644.822-2.35.359-.706.76-1.149.42.443.768 1.149.348.706.812 2.35h.948q-.695-2.487-1.422-3.499-.728-1.012-.601-1.286.843-1.138.843-2.15 0-1.222-.8-2.086.8-1.16.8-2.171 0-1.223-.717-2.087-.063-.232.506-.917.57-.685.57-1.886Q81.456 0 79.748 0zm13.503.392a2.854 2.854 0 0 1-1.963.747c-.295 0-.604-.039-.928-.115a3.776 3.776 0 0 0-.868-.102c-.865 0-1.735.303-2.61.91.709-.643 1.255-.991 1.639-1.046a9.4 9.4 0 0 1 1.213-.058 32.779 32.779 0 0 1 .873.011c.815 0 1.697-.116 2.644-.347zm-3.929.91c.34 0 .72.047 1.139.141a9.454 9.454 0 0 0 2.34.238c.178-.006.328-.009.45-.009.39 0 .5.03.332.09-.221.08-.664.13-1.327.15-.663.021-1.228.188-1.695.501-.319.213-.692.32-1.119.32-.2 0-.41-.023-.633-.07-.701-.146-1.172-.306-1.414-.481.183-.326.536-.576 1.057-.751.255-.086.545-.129.87-.129zm-3.261 1.794zm.64-.539c-.107 0-.557.158-.748.387a.532.532 0 0 0-.116.351c-.015.08.013.184.097.323.08.06.166.088.248.088.183 0 .34-.135.324-.33-.018-.209-.102-.314-.263-.314a.536.536 0 0 0-.182.034c.01-.034.016-.064.03-.085.157-.214.502-.336.61-.418.033-.024.029-.036 0-.036zm-1.095 1.745zm1.088-1.936c.167 0 .317.074.45.222.26.288.374.578.345.87-.03.292-.115.53-.257.713a5.081 5.081 0 0 0-.452-.022c-.416 0-.724.066-.924.197l-.113-.02c.033-.06.098-.18.127-.242a.453.453 0 0 0 .049 0l.181-.04c.054-.012-.382-.224-.387-.224l.005.003.03.185a.084.084 0 0 0 .007.024c-.05.089-.12.212-.149.27l-.1-.018c.133-.492.18-.834.143-1.026-.037-.192.138-.424.526-.695.188-.131.36-.197.519-.197zm1.233 1.016c.015 0 .033.021.056.063 1.077.902 1.952 1.353 2.624 1.353.092 0 .181-.009.266-.026.497-.1.924-.15 1.282-.15.148 0 .284.008.408.025.425.058.707.302.844.732.138.43.167.698.088.807-.08.108-.402.181-.97.219a7.091 7.091 0 0 1-1.746-.113 2.83 2.83 0 0 0-.51-.057c-.273 0-.426.073-.46.22-.02.089-.077.133-.171.133-.142 0-.366-.099-.673-.296-.513-.33-.886-.694-1.12-1.095-.233-.4-.285-.7-.156-.9.13-.2.194-.424.194-.67 0-.163.014-.245.044-.245zm6.217 1.292c.396 0 .808.189 1.234.567.55.488.837.884.857 1.189.021.304-.12.492-.425.563a.846.846 0 0 1-.193.022c-.25 0-.515-.107-.796-.322-.354-.271-.613-.56-.775-.864-.163-.304-.244-.673-.244-1.107.112-.032.226-.048.342-.048zM93.378 0c-.039 0-.08.001-.125.004-1.03.267-2.149.4-3.354.4a16.782 16.782 0 0 1-.593-.007c-1.314 0-2.326.528-3.035 1.584-.51.334-.822.601-.939.801-.117.2-.138.48-.063.839a4.77 4.77 0 0 0-.145.446l-.846.4.35-.01.456-.21a1.31 1.31 0 0 0-.02.157l-.72.478.327-.043.405-.267c.015.062.044.106.087.131.13.076.31.114.54.114.061 0 .125-.002.192-.008.173-.142.434-.213.782-.213.12 0 .252.009.394.026.176.842.843 1.606 2.003 2.29a34.852 34.852 0 0 0-2.056-.082c-.502 0-.823.027-.96.082-.275.108-.417.313-.426.613a2.624 2.624 0 0 0 1.351-.025h3.892c.05-.167-.141-.45-.575-.851a5.57 5.57 0 0 0 1.472.183c.635 0 1.333-.086 2.094-.258l.676.3c-.248.1-.563.15-.946.15-.157 0-.326-.008-.506-.025a2.17 2.17 0 0 0-.204-.01c-.503 0-.84.2-1.01.598.334.053.633.079.9.079.285 0 .532-.03.74-.091a17.46 17.46 0 0 1 1.473-.076c.26 0 .483.01.667.032.225.026.462.065.676.065.23 0 .432-.045.562-.196.565-.656.533-.69.548-1.046.023-.565-.036-1.245-.394-1.245a.461.461 0 0 0-.227.072c-.411.238-.02.497-.046 1.151 0 0-.057-.853-.894-1.41-.667-.444-1.49-.709-2.515-.726a26.89 26.89 0 0 0-.437-.003c-.8 0-1.384.04-1.753.122a1.969 1.969 0 0 1-1.29-.15c-.425-.196-1.075-.64-1.951-1.333.531.208 1.031.312 1.5.312.475 0 .917-.106 1.328-.318.817-.421 1.587-.642 2.309-.663.721-.021 1.14-.232 1.257-.632-.609-.1-1.23-.159-1.864-.175.592-.225 1-.515 1.226-.87.206-.324.102-.486-.313-.486zm-7.484 9.068l-1.616 1.91h.788l.828-.987.835.986.811-.986.836.986.827-.986.836.986.827-.986.836.986.811-.986.836.986.835-.986.812.986.835-.986.827.986h.788l-1.615-1.91-.835.924-.812-.923-.835.923-.836-.923-.811.923-.836-.923-.827.923-.836-.923-.827.923-.836-.923-.811.923-.835-.923zm2.255 3.718v.394h-2.083v-.394zm-1.048.777q1.307 0 1.806.665.5.666.5 1.196-.013.826-.691 1.442-.678.616-1.615.616-.949 0-1.627-.616t-.678-1.43q0-.542.407-1.208.407-.665 1.898-.665zm-1.627-1.184v.925q-.444.259-.814.838-.37.58-.382 1.282 0 .826.684 1.67.685.844 2.14.906 1.441-.062 2.132-.906.69-.844.69-1.658-.013-.715-.382-1.3-.37-.586-.826-.845v-.912zm9.659.001c-.078 0-.157.006-.235.013-1.128.121-1.93 1.264-1.753 2.37.078.824.59 1.285 1.15 1.74 1.668 1.022 1.2.645 2.881 1.497l.27-.504C95.445 16.56 95.204 16.41 94.58 16c-.511-.412-.915-.866-.88-1.555-.014-.475.27-.965.589-1.199a1.53 1.53 0 0 1 .901-.305c.242 0 .469.057.667.199.504.248.781 1.071.412 1.59a.979.979 0 0 1-.78.418.722.722 0 0 1-.426-.135c-.256-.142-.448-.639-.185-.915-.12-.128-.29-.284-.419-.284-.085 0-.149.064-.191.213-.284.681.17 1.455.851 1.64.121.035.242.056.362.056.781 0 1.505-.653 1.505-1.462.07-.944-.681-1.81-1.625-1.867a2.294 2.294 0 0 0-.227-.014zM110.09 1.728a.066.066 0 0 1 .02.003c-.079.127-.047.198.095.214.174-.048.205-.119.095-.214l.332.143a1.343 1.343 0 0 1-.427.07.377.377 0 0 1-.053.005.253.253 0 0 1-.208-.099c.054-.081.103-.122.145-.122zm.112-.117c-.015 0-.03 0-.044.002-.158.016-.285.118-.38.308.143.128.288.192.437.192.016 0 .033 0 .05-.003a1.32 1.32 0 0 0 .532-.19h.309v-.094h-.309c-.243-.143-.44-.215-.593-.215h-.002zm1.582-.034c.063 0 .09.032.08.095a.54.54 0 0 1-.142.284.713.713 0 0 1-.225.178.119.119 0 0 1-.042.013c-.024 0-.01-.032.042-.096.055-.068.067-.102.036-.102a.122.122 0 0 0-.036.007.124.124 0 0 1-.038.008c-.036 0-.035-.034.002-.102.048-.087.103-.17.166-.25a.501.501 0 0 1 .157-.035zm-.465.557c.079.048.095.091.047.13-.021.018-.04.027-.057.027-.02 0-.036-.013-.05-.038-.023-.048-.003-.087.06-.119zm.544-.72a.403.403 0 0 0-.118.021.633.633 0 0 0-.331.273c-.095.142-.119.245-.071.308-.095.047-.154.107-.178.178-.024.07.008.126.095.165a.136.136 0 0 0 .057.012c.082 0 .19-.063.322-.19.166-.157.272-.296.32-.414.047-.119.055-.213.023-.284-.02-.045-.058-.068-.114-.069h-.005zm-.398-1.1c.172 0 .369.027.589.078.568.135.857.427.864.877.008.45-.22.853-.687 1.209-.21.16-.338.24-.384.24-.057 0 .008-.12.195-.359.34-.434.458-.79.355-1.066-.068-.183-.237-.274-.508-.274-.14 0-.306.024-.5.073-.631-.174-.82-.368-.568-.58.15-.128.356-.193.618-.197h.026zm-2.108 2.647a.249.249 0 0 0 .019.074.802.802 0 0 1 .047.296c0 .119.075.19.225.213.065.01.136.016.214.016.103 0 .217-.01.343-.027.074.31.034.464-.12.464l-.034-.003a.787.787 0 0 0-.101-.006c-.186 0-.457.054-.788.208l-2.76 2.019c.382-.892.716-1.652.987-2.273.43-.144.842-.357 1.257-.419.165-.025.087-.324.12-.51.042-.001.373-.034.591-.052zm.99-1.858h.013c.102.008.39.107.864.297.026.07.07.104.129.104a.35.35 0 0 0 .18-.069.529.529 0 0 1 .288-.095c.058 0 .116.012.173.036.15.063.17.205.06.427-.111.22-.257.406-.439.556-.181.15-.26.312-.237.486.024.174.13.3.32.38.047.284.178.52.391.71.213.19.58.403 1.102.64-.821 1.39-1.232 2.394-1.232 3.01 0 0 .043.213.098.51.088.469.206 1.147.234 1.528a.755.755 0 0 1-.095.45c-.146.24-.898.357-2.248.357l-.264-.001c-.713.072-1.494.108-2.34.108-.636 0-1.31-.02-2.02-.06.173-.522 1.082-.878 2.725-1.067 1.627 0 2.44-.482 2.44-1.446 0-.664-.355-1.73-1.066-3.2.916-.252 1.296-.528 1.138-.829.063-.442-.048-.679-.332-.71a1.13 1.13 0 0 1-.112.005c-.247 0-.392-.096-.433-.29.237-.095.324-.174.26-.237-.063-.063-.173-.103-.331-.118.11-.111.07-.214-.119-.309l.427-.663a.46.46 0 0 1 .284-.084c.18 0 .408.068.687.202.158-.015.115-.083-.13-.201a1.46 1.46 0 0 0-.723-.154c.106-.182.209-.273.308-.273zM111.66 0c-.17 0-.343.016-.519.049-.513.095-.975.466-1.386 1.114-.095.237-.324.584-.687 1.042-.061.198-.041.297.059.297h.012a.638.638 0 0 1 .045-.002c.087 0 .151.02.192.06-.053.04-.081.082-.084.127l-.586-.001c-.446.016-.943.215-1.436.598-1.243 1.067-1.84 2.32-1.825 3.738 0 .192.109.277.311.277.034 0 .07-.003.108-.007.915-.399 2.79-1.164 3.426-1.527.357.61.536 1.565.536 2.863l-.995.19c-2.402.236-3.792.615-4.171 1.137-.522.3-.909 1.35-1.162 3.152-.379 1.895-1.09 2.883-2.132 2.962l-1.754.663-.166.308c.127.11.245.166.356.166l3.223-.166c.22-.727.66-1.63 1.315-2.713.655-1.082.912-2.042.77-2.88.3 1.075.577 2.465.83 4.171.047.411-.45.783-1.494 1.114-.474.032-.71.182-.71.45l2.44-.094c.537 0 .806-.214.806-.64-.174-.38-.193-1.153-.06-2.323.135-1.169-.011-2.117-.438-2.843l4.171-.166c1.359 0 2.038-.348 2.038-1.043l-.118-2.322c0-.885.237-1.644.71-2.275l.499 2.109-.712 3.27a2.35 2.35 0 0 0-.296.628c-.055.198-.09.375-.106.533 0 .127.035.296.106.51.071.213.115.415.13.604a.268.268 0 0 0 .096.095.04.04 0 0 0 .018.005c.022 0 .04-.026.052-.076.036.036.066.054.089.054.027 0 .045-.026.054-.078.036.036.065.054.088.054.027 0 .045-.026.054-.077.025.025.05.037.076.037.006 0 .012 0 .019-.002.031-.008.047-.051.047-.13a14.632 14.632 0 0 1-.178-.605c-.04-.15-.043-.375-.011-.675.015-.08.031-.118.047-.118.032 0 .063.023.095.07 0 .08-.008.19-.024.332a.603.603 0 0 0 .035.332c.025.05.054.074.088.074.02 0 .043-.009.067-.026.047-.016.059-.087.035-.214-.023-.126-.008-.308.048-.545.055-.237-.004-.49-.178-.758.726-.964 1.098-2.18 1.114-3.65-.08-1.042-.285-1.92-.617-2.63a3.38 3.38 0 0 0-1.658-.877c-.411-.347-.348-.7.19-1.055.536-.355.793-.813.77-1.374-.024-.56-.265-.932-.723-1.114a2.525 2.525 0 0 0-.94-.179zm-11.21 17.97V18h.06c-.017-.013-.044-.017-.06-.03zm18.572-6.187c.534.205 1.117.861 1.287 1.402.17.54.15 1.171.03 1.792-.12.61-.36 1.191-.65 1.571-.201.26-.381.41-.551.46h-.16c-.17-.04-.391-.19-.611-.46-.29-.38-.53-.96-.651-1.571-.12-.621-.14-1.252.03-1.792.17-.541.808-1.243 1.276-1.395v-.007zM118.457 0v1.201h-1.081v.771h1.08l-.15 9.09c-.77.4-1.25 1.081-1.481 1.812-.23.751-.24 1.562-.09 2.313.15.75.45 1.411.86 1.942.311.4.722.73 1.202.831v.03c.03.01.06.01.09.01.04 0 .08-.01.12-.01.05.01.1.01.14.01.04 0 .07 0 .11-.01v-.03c.481-.1.892-.43 1.202-.831.41-.53.71-1.191.861-1.942.15-.751.14-1.562-.09-2.313a2.97 2.97 0 0 0-1.482-1.782l-.15-9.12h1.021l.03-.77h-1.141V0h-1.051zm8.169.583q-.371.936-.671 1.996-.274-.15-.54-.15-.264 0-.52.15-.106-1.06-.636-1.996zm-1.22 2.42q.478.054.478.478-.035.441-.477.494-.442-.053-.495-.477.053-.441.495-.494zm.725 1.237q.69 1.643.654 3.958 0 2.314-.901 5.159-.243.46-.487.46-.233 0-.467-.425-.725-2.897-.778-5.124-.053-2.385.601-4.028.16.389.654.424.477-.035.724-.424zM123.852 0q-.6 0-.37.583.617.936.847 2.739-.9 1.96-.9 4.964.052 2.438 1.13 5.972-.513.707-.654 1.166-.051.514.327.514.142 0 .345-.072.441-.39.83-1.06.106 1.378 2.615 3.056.26.138.454.138.229 0 .367-.191.256-.353-.52-.954-2.192-1.466-2.103-2.597 1.201-2.756 1.219-6.06.053-3.127-.884-4.894.212-1.785.742-2.721.336-.583-.159-.583zm9.753 1.174l4.416.247c.077.854.038 1.809-.117 2.863-1.648-.91-3.08-1.947-4.299-3.11zM138.396 0c-.246 0-.499.159-.76.477L132.863.23c-1.127.291-1.357.743-.69 1.355.13-.028.245-.042.346-.042.248 0 .41.085.483.256.104.24.384.554.841.942.457.387 1.695 1.187 3.715 2.398.238.599.502.898.79.898.136 0 .276-.065.422-.196 2.871 1.238 5.645 2.104 8.32 2.596l.378-.296-.922-.98c-1.964-.17-4.522-.933-7.674-2.29a8.151 8.151 0 0 1-.054-3.34l5.342.357c.794-.2.852-.61.177-1.233l-5.259-.22c-.22-.29-.448-.436-.683-.436zm-3.516 14.516c.978 0 2.202.502 2.794 1.094.518.518.585 1.205.604 1.843h-6.767c.02-.638.087-1.325.605-1.843.592-.592 1.787-1.094 2.765-1.094zm0-.547c-1.16 0-2.407.535-3.138 1.267-.75.75-.835 1.737-.835 2.476V18h7.947v-.288c0-.739-.056-1.726-.806-2.476-.731-.732-2.008-1.267-3.167-1.267zm11.9-3.069q.207 0 .43.093.497.211.497 3.348v3.001h-5.633q2.176-2.984 2.985-4.51.81-1.527 1.231-1.788.233-.145.49-.145zm-.24-.641h-.09q-.8.018-1.804 1.957-1.003 1.94-3.971 5.784h7.69l-.018-4.317q-.084-2.884-.59-3.162-.477-.262-1.216-.262zM153.189 0c-.12 0-.239.005-.357.016l-.057-.001c-1.34 0-2.494 1.293-2.396 2.622-.073 1.044.145 2.077.202 3.116.092.175.258.25.435.25a.739.739 0 0 0 .606-.327c.315-.44.176-1.01.048-1.491-.142-.857-.194-1.812.278-2.581.303-.407.803-.61 1.302-.61.543 0 1.085.241 1.372.722.46.674.336 1.655-.254 2.212-.569.673-1.422 1.117-1.787 1.951-.233.841-.038 1.718-.116 2.574-.074 3.123-.114 6.246-.173 9.37.162.135.351.16.548.16.115 0 .232-.009.347-.009.093 0 .185.006.274.026.425-.218.39-.764.36-1.168-.151-3.276-.041-6.556-.123-9.833.008-.374-.113-.803.282-1.016.785-.763 1.622-1.523 2.106-2.525.491-1.455-.61-3.197-2.132-3.382a3.782 3.782 0 0 0-.765-.076zm7.837 0c-.119 0-.238.005-.357.016l-.056-.001c-1.34 0-2.495 1.293-2.397 2.622-.072 1.044.145 2.077.203 3.116.091.175.258.25.434.25a.739.739 0 0 0 .607-.327c.315-.44.176-1.01.047-1.491-.141-.857-.193-1.812.278-2.581.304-.407.803-.61 1.302-.61.543 0 1.086.241 1.372.722.46.674.337 1.655-.253 2.212-.57.673-1.423 1.117-1.788 1.951-.232.841-.037 1.718-.115 2.574-.075 3.123-.114 6.246-.173 9.37.161.135.35.16.548.16.114 0 .231-.009.346-.009.094 0 .186.006.274.026.425-.218.391-.764.36-1.168-.15-3.276-.04-6.556-.123-9.833.009-.374-.112-.803.282-1.016.786-.763 1.623-1.523 2.106-2.525.492-1.455-.609-3.197-2.132-3.382a3.782 3.782 0 0 0-.765-.076zm5.014.22v5.122h.975V.22h-.976m0 6.585v4.878h.976V6.805h-.976m0 6.097v4.878h.976v-4.878h-.976zm3.036-6.512v1.757h3.876V6.39h-.76c-.221.39-.474.643-.759.76a1.12 1.12 0 0 1-.425.086 1.09 1.09 0 0 1-.421-.087c-.28-.116-.53-.369-.752-.76zm2.35-6.39v2.91h-.879v3.56h.95V4.24h1.1V1.185h1.36c.243 1.899.902 3.31 1.978 4.232 1.076.923 2.405 1.458 3.986 1.606 1.582.147 2.621.356 3.117.624.495.27.743.541.743.815h1.93c-.295-.706-.69-1.244-1.186-1.613-.496-.37-1.416-.601-2.76-.696-1.345-.095-2.42-.272-3.228-.53-.806-.259-1.526-.717-2.159-1.377-.633-.659-1.118-2.075-1.455-4.247zm-.355 15.57L169.015 18h1.002l1.053-1.255L172.133 18l1.033-1.255L174.229 18l1.053-1.255L176.345 18l1.053-1.255L178.46 18l1.032-1.255L180.556 18l1.063-1.255L182.652 18l1.063-1.255L184.768 18h1.002l-2.055-2.43-1.063 1.175-1.033-1.175-1.063 1.175-1.063-1.175-1.032 1.175-1.063-1.175-1.053 1.175-1.063-1.175-1.053 1.175-1.063-1.175-1.033 1.175-1.063-1.175zM194.293.911v6.46h-4.333V.91zM189.069 0v8.261h6.135V0zm3.067 14.172c1.074 0 2.419.552 3.07 1.202.568.57.643 1.324.664 2.025h-7.435c.02-.701.095-1.456.664-2.025.65-.65 1.963-1.202 3.037-1.202zm0-.601c-1.274 0-2.645.588-3.448 1.392-.824.824-.918 1.909-.918 2.72V18h8.732v-.316c0-.812-.061-1.897-.885-2.721-.804-.804-2.206-1.392-3.48-1.392zM201.01.696q.928 0 .928 1.222 0 1.075-.927 2.129-.928-1.054-.928-2.129 0-1.222.928-1.222zm0 4.7q.654 0 .654 1.412 0 .8-.653 1.475-.654-.674-.654-1.475 0-1.412.654-1.412zm0 4.257q.654 0 .654 1.413 0 .8-.653 1.475-.654-.674-.654-1.475 0-1.413.654-1.413zm0-9.653q-1.686 0-1.686 1.918-.02 1.201.559 1.886.58.685.516.917-.737.864-.737 2.087 0 1.012.864 2.17-.864.865-.864 2.088 0 1.011.864 2.15.105.273-.59 1.285-.696 1.012-1.434 3.499h.928q.464-1.644.822-2.35.358-.706.759-1.149.421.443.769 1.149.348.706.811 2.35h.949q-.696-2.487-1.423-3.499-.727-1.012-.6-1.286.843-1.138.843-2.15 0-1.222-.801-2.086.8-1.16.8-2.171 0-1.223-.716-2.087-.063-.232.506-.917t.569-1.886Q202.718 0 201.01 0zm14.582 4.373q.074 0 .16.016.485.091.404.546-.074.418-.558.418-.043 0-.089-.004-.485-.202-.364-.626.1-.35.447-.35zm-.23-3.948q.088 0 .198.034.394.121.293.768l-.607 2.728q-.404.121-.565.647-.162.525.323.909-.226-.016-.385-.016-.238 0-.322.036-.043.018-.1.018-.133 0-.345-.099l1.556-4.284q-.465-.202-.354-.515.08-.226.308-.226zm2.168 5.466zm-.11-5.005q.039 0 .08.007.414.071.404.415-.01.343-.576.343l-.323 4.264q-.12.046-.212.046-.11 0-.183-.066-.13-.121-.575-.222.525-.081.596-.627.07-.545-.334-.91l.606-2.667q.164-.583.517-.583zm-3.203 6.296q-.209 0-.284.208.043.239.308.239.228 0 .621-.178-.408-.269-.645-.269zm-.264-.256q.829.04 1.415.545.168-.168.302-.168.107 0 .193.108.192.242-.283.727t-.576 1.637q-.101-.202-.202-.455-.087-.217-.67-.217-.093 0-.2.005-.262 0-.262-.465.075.003.138.003.539 0 .276-.154-.171-.1-.284-.1-.08 0-.13.05v-.263l-.323-.162q.182-.344.353-.536.172-.192.253-.555zm1.138-.832q.196 0 .428.044.98.181 1.465 1.06.485.88.303 5.123h-.363l.06-1.859q-.04-.828-.636-.838h-.008q-.589 0-.69 1.606h-.323q.02-2.243.394-2.647.374-.404.516-.819.141-.414-.132-.677-.161-.155-.382-.155-.153 0-.335.074-.465-.343-1.192-.464.262-.448.895-.448zm-3.401 6.43l2.142.323v.1q-1.071.041-2.163.183-.545-.182-.97-.485.688 0 .99-.122zm-2.506-2.749l-2.102 4.183-.849-.566 2.95-3.617zm7.7 6.765q.16 0 .201.187.081.364.728.748h-1.192l-.142-.768q.255-.167.406-.167zm-.497-6.513h.011q.324.031.081 2.739-.08 1.475-.626 3.718l.202.99h-4.972q-.23.02-.425.02-1.044 0-1.12-.545-.092-.647 1.545-1.07l3.032-.87q.424-3.294.848-4.668v1.313h1.072q.04-1.627.352-1.627zM215.349 0q-.533 0-.74.469-.252.576.274.9l-1.536 3.94q-.393-.131-.645-.131-.097 0-.174.02-.054.014-.119.014-.259 0-.679-.226.494.829.997.829h.024q.054-.003.104-.003.428 0 .573.154.161.172.545.212-.384.626-.374.778.01.152-.373.677-.384.525-.071.626.313.101.293.99l-.667 1.476q-.198.181-.389.181-.043 0-.086-.01-.037-.007-.07-.007-.172 0-.223.22.29.243.555.243.42 0 .779-.607l.768-1.313q.037-.003.072-.003.433 0 .433.467-.364 1.01-.586 2.021l-2.445.121q-.465-.282-1.193-.545l-.586-3.213-4.062 5.193q-.283.445-.182.526.101.06.21.06.215 0 .457-.242-.1.161-.131.343-.03.182.09.263.055.036.113.036.072 0 .15-.056.142-.101.243-.243-.182.485.101.687.019.013.041.013.124 0 .363-.376l2.425-4.85.344 1.859q-.046-.01-.077-.01-.095 0-.065.09.04.122.162.162-.03-.004-.058-.004-.256 0-.164.348.1.384.222.485-.303.162.182.283-.647.222-.434.717.182.426.446.426.044 0 .089-.012l.142-.02.06.404.425-.08-.081-.445.444-.141q.665.284 1.762.284.305 0 .643-.022l-.1.647-3.679 1.071q-1.03.525-.89 1.364.142.839 1.052.96h8.73v-.404q-1.192-.707-1.364-1.263-.102-.329-.419-.329-.22 0-.541.157.424-1.92.546-3.435h.626q.364-5.336-.546-6.103.138-.049.3-.049.242 0 .539.11.104.037.216.037.423 0 .966-.543-.539-.15-.823-.15-.099 0-.167.019-.088.023-.164.023-.153 0-.26-.094-.114-.1-.147-.1-.013 0-.015.015l.202-3.856q.627-.02.647-.687.02-.667-.718-.879-.137-.04-.263-.04-.553 0-.899.757l-.606 2.79-.182-.041.647-2.789q0-.99-.748-1.122-.139-.024-.26-.024zm8.343.272v.263H222.3V.272zm-.7.518q.873 0 1.206.445.334.445.334.799-.009.552-.461.963-.453.412-1.08.412-.633 0-1.086-.412-.453-.411-.453-.955 0-.362.272-.807.272-.445 1.268-.445zM221.905 0v.618q-.296.172-.544.56-.247.387-.255.856 0 .552.457 1.116.457.564 1.429.605.963-.041 1.424-.605.462-.564.462-1.108-.009-.477-.256-.869-.247-.39-.551-.564V0zm6.495.272v.263h-1.392V.272zm-.7.518q.873 0 1.206.445.333.445.333.799-.008.552-.46.963-.454.412-1.08.412-.633 0-1.086-.412-.453-.411-.453-.955 0-.362.272-.807.271-.445 1.268-.445zM226.613 0v.618q-.297.172-.544.56-.247.387-.255.856 0 .552.457 1.116.457.564 1.429.605.963-.041 1.424-.605.461-.564.461-1.108-.008-.477-.255-.869-.247-.39-.552-.564V0zm6.494.272v.263h-1.391V.272zm-.7.518q.873 0 1.207.445.333.445.333.799-.008.552-.46.963-.454.412-1.08.412-.634 0-1.086-.412-.453-.411-.453-.955 0-.362.271-.807.272-.445 1.269-.445zM231.322 0v.618q-.297.172-.544.56-.247.387-.255.856 0 .552.457 1.116.457.564 1.429.605.963-.041 1.424-.605.461-.564.461-1.108-.008-.477-.255-.869-.247-.39-.552-.564V0zm2.428 5.614V7.95l-1.44-.88h-9.221l-1.454.88V5.614zm-12.644-.66v4.053l1.983-1.278h9.222l1.982 1.278V4.954zm11.077 5.809q-.271.271-.271.995 0 .738.271 1.01h-8.952q.271-.272.271-1.01 0-.724-.27-.995zm-10.685-.558q-.392 0-.377.257-.015.301.377.301h.98q.361.271.361.995 0 .738-.361 1.01h-.965q-.407 0-.407.256 0 .301.392.301h12.418q.377 0 .377-.301 0-.257-.392-.257h-.964q-.362-.27-.362-1.01 0-.723.362-.994h.98q.376 0 .376-.301 0-.257-.377-.257zm1.352 5.618l-1.275-1.285-.461.411 1.3 1.308-1.308 1.3.433.435 1.308-1.3 1.3 1.308.435-.433-1.274-1.361 1.282-1.246-.433-.436-1.308 1.3zm7.086.251q1.535 0 3.255.741-1.72.721-3.255.721-1.525 0-3.256-.72 1.731-.742 3.256-.742zm0-.474q-1.896 0-4.358 1.205Q228.04 18 229.936 18q1.895 0 4.357-1.195-2.452-1.205-4.357-1.205zM245.296.492c.88 0 1.98.452 2.512.984.466.466.527 1.083.544 1.657h-6.086c.018-.574.078-1.191.544-1.657.533-.532 1.607-.984 2.486-.984zm0-.492c-1.043 0-2.165.482-2.822 1.14-.675.674-.751 1.562-.751 2.226v.26h7.147v-.26c0-.664-.051-1.552-.726-2.227C247.487.482 246.34 0 245.296 0zm-7.375 7.763q-.103 0-.2.032-.38.123-.335.368.038.208.34.208.054 0 .118-.007.413-.045.725-.335-.349-.266-.648-.266zm.193-.225q.806 0 2.485.96.843.436 1.848.436.485 0 1.008-.102 1.317-.267 2.767-.468.493-.068.954-.068.898 0 1.679.257 1.182.39 1.963.502.781.112 2.477.201-1.093.112-2.142.112t-2.477-.234q-.714-.118-1.375-.118-.66 0-1.269.118-1.216.234-2.766.435-.388.05-.762.05-1.124 0-2.128-.452-.975-.665-2.025-.665-.464 0-.942.13-.424-.023-.38-.469.246-.602 1.05-.625h.035zm.597-2.276q-.483 0-.9 1.473-.35-1.3-.902-1.3-.083 0-.17.028-.669.424.447 1.629-.893.513-.893 1.294t1.317.87q.407-.106.795-.106.91 0 1.715.586.69.502 2.186.502.998 0 2.354-.223 1.666-.47 3.239-.47.596 0 1.179.068 1.457.169 2.482.169.466 0 .843-.035 1.896-.044 1.896-.357-.513-.468-1.45-.625-1.986-.022-3.626-.691-.82-.335-2.01-.335-1.192 0-2.754.335-1.007.254-1.875.254-1.19 0-2.118-.477-.96-.58-2.03-.96.892-.691.836-1.149-.056-.457-.547-.48h-.014zm.792 9.595q-.206 0-.333.138-.126.138-.126.31 0 .149.126.292.127.144.322.144.218 0 .338-.132.12-.132.12-.304 0-.184-.143-.316t-.304-.132zm0-.103q.207 0 .384.16.178.161.178.39 0 .207-.155.38-.155.171-.418.171-.241 0-.396-.183-.155-.184-.155-.367 0-.218.155-.384.155-.167.407-.167zm0-2.88q-.218 0-.252.448v1.962q.011.23-.126.424-.12.046-.236.046-.114 0-.223-.046l-1.859-.608q-.154-.035-.263-.035-.204 0-.241.127-.07.207.355.379l1.87.596q.218.069.356.275 0 .253-.15.436l-1.147 1.583q-.24.39-.068.505.046.034.101.034.15 0 .369-.252l1.147-1.583q.126-.195.367-.275.23.069.367.275l1.147 1.583q.219.252.363.252.053 0 .096-.034.172-.126-.057-.516l-1.159-1.583q-.149-.184-.137-.425.137-.206.367-.275l1.858-.596q.424-.172.356-.367-.046-.138-.255-.138-.105 0-.25.034l-1.87.608q-.109.04-.22.04-.113 0-.227-.04-.15-.195-.138-.424v-1.962q-.034-.447-.24-.447zm4.356 1.926V18h.702v-4.2zm4.826.007V18h.701v-4.193zm4.912 0V18h.702v-4.193z"/></svg>