<svg xmlns="http://www.w3.org/2000/svg" width="219.987" height="18"><path d="M3.73.474c.693 0 1.247.2 1.634.479.006.053.02.107.009.16-.05.248-.195.477-.396.63-.316.207-.697.267-1.057.356-.09.01-.019.031.031.04.23.04.707.099.971.099l.052-.001c.278-.032.54-.148.766-.311.079-.067.147-.15.205-.236.147.346.227.713.26.917.018.11.096.2.202.233 1.139.349 2.038 1.91 2.88 2.949 1.729 2.137 3.199 4.526 4.892 6.76-.937-.456-1.87-.916-2.81-1.374-1.92-1.01-3.92-1.816-5.604-3.09l-.008-.008c-.97-.808-1.963-1.66-2.339-2.793-.148-.92 1.757-2.577 1.542-2.646a.207.207 0 0 0-.064-.01c-.458 0-1.753 1.128-2.019 2.202-.003-.014-.01-.03-.014-.045-.073-.356-.154-1.256.068-1.98a.29.29 0 0 0 .01-.103 1.968 1.968 0 0 0-.123-.634c-.063-.17-.139-.344-.26-.765-.031-.108-.142-.328-.208-.345.186-.138.375-.28.645-.375a.434.434 0 0 0-.132.314c0 .23.164.415.365.415.2 0 .364-.186.364-.415V.894a.411.411 0 0 0-.255-.39c.053-.007.096-.019.154-.022.081-.006.16-.008.238-.008zm.67 7.763c.065.065.135.124.202.187.214.78.412 1.64.692 2.305.483 1.145 1.216 2.141 1.84 3.154a1.814 1.814 0 0 0-.385.27 6.831 6.831 0 0 0-.199.193 2.61 2.61 0 0 0-1.186-.897c.045-.723-.108-1.712-.34-2.787A34.903 34.903 0 0 0 4.4 8.237zm1.006.908c1.149.945 2.428 1.738 3.676 2.54-.018.91-.018 1.778.084 2.675a3.411 3.411 0 0 0-1.437-.736c-.02 0-.037.012-.057.012-.649-1.063-1.383-2.06-1.837-3.134-.156-.37-.293-.85-.429-1.357zm.407 5.254a2.5 2.5 0 0 1 .44.541.3.3 0 0 0 .257.14.29.29 0 0 0 .17-.053c.215-.156.347-.324.476-.446.047-.045.097-.08.148-.117l.149 2.722c-.213-.014-.435-.035-.637-.035-.264 0-.495.036-.633.172-.169-.134-.497-.164-.89-.164-.102 0-.207.002-.316.004l.836-2.764zM6.97 9.574c1.354.787 2.784 1.414 4.135 2.125a.244.244 0 0 0 .006.003c1.295.631 2.586 1.28 3.894 1.904.984 1.189 2.052 2.295 3.078 3.42l-2.15.362-4.267-4.635a.288.288 0 0 0-.037-.036c-1.499-1.137-3.152-2.082-4.66-3.143zM3.796 0c-.135 0-.273.005-.411.013C2.3.083 1.512.54 1.243 1.157c-.04.093-.146.314-.007.314a2.35 2.35 0 0 1 .341-.028c.418 0 .38.172.47.194.09.282.29.846.303 1.068-.244.86-.153 1.763-.064 2.198.15.732.63 1.584 1.261 2.38a.285.285 0 0 0 0 .166 35.3 35.3 0 0 1 .903 3.336c.251 1.168.393 2.277.317 2.823a.294.294 0 0 0 .221.328c.045.011.084.031.127.045l-.928 3.079a2.847 2.847 0 0 0-.593-.055c-.381 0-.756.05-1.064.05-.125 0-.24-.008-.34-.032a.546.546 0 0 0-.125-.012c-.436 0-1.428.306-1.34.879.15-.128.257-.159.375-.159.11 0 .23.027.405.027h.027c.254-.004.697-.083 1.053-.083.18 0 .338.02.438.08.236-.01.45-.013.649-.013.85 0 1.447.07 2.5.075a89.565 89.565 0 0 0 2.974-.079c.45.003.697.054.922.054h.04c.134-.004.265-.057.48-.057.123 0 .273.017.468.07-.25-.341-.877-.685-1.33-.685a.591.591 0 0 0-.302.071 5.081 5.081 0 0 0-.508-.022c-.22 0-.448.01-.678.02l-.157-2.83c.487.203.857.517 1.281 1.021a.295.295 0 0 0 .513-.246c-.192-1.039-.213-2.019-.202-3.06.54.354 1.072.713 1.576 1.094l4.36 4.738a.29.29 0 0 0 .263.09c.95-.159 1.9-.315 2.849-.474a.294.294 0 0 0 .23-.193.298.298 0 0 0-.06-.297c-.741-.83-1.508-1.631-2.25-2.445 1.269.78 2.875 1.755 3.08 1.755.022 0 .027-.013.012-.04-.094-.163-.9-.755-1.775-1.373.14.058.276.12.415.177l.017.01c.103.035.16.059.27.062a.286.286 0 0 0 .108-.016.317.317 0 0 0 .188-.152.32.32 0 0 0 .023-.238c-.017-.05-.038-.077-.054-.098-.061-.085-.103-.109-.162-.154a4.553 4.553 0 0 0-.205-.149c-.153-.105-.336-.223-.493-.328a4.992 4.992 0 0 1-.328-.233.307.307 0 0 0-.028-.025l-3.892-2.736c-.008-.006-.02-.001-.028-.006-1.333-1.869-2.588-3.825-4.046-5.627C9 4.496 8.145 2.888 6.758 2.352 6.69 1.956 6.54 1.225 6.003.703 5.547.26 4.888.056 4.147.011A5.728 5.728 0 0 0 3.796 0zm24.973.656q.872 0 1.59.434 1.462.848 2.77.848 1.317 0 2.416-.113v2.262q-1.365-.243-1.971-.243h-.016q-.493 0-1.373.113-3.578.493-4.459.493-1.462 0-2.754-.048-2.213-.13-2.431-.235-.21-.097-.21-.557 0-.452.12-.792.122-.339.405-.484 6.914-.307 7.455-.356-.482-.695-1.493-.695-.328 0-.712.073-1.288.254-1.986.254-.147 0-.268-.011-.686-.065-.638-.654.386.052.797.052.862 0 1.836-.23.48-.111.922-.111zM28.975 0q-.35 0-.692.088-1.38.364-2.43.38-.26 0-.93-.13-.315.292-.315.687 0 .396.25.67-2.64.098-2.64.316-.477.605-.477 1.454 0 .84.444 1.147 1.341.428 5.388.428.646 0 1.316-.065 3.748-.557 4.467-.573l.07-.001q.74 0 2.708.307v-3.57l-.016.017q-1.688.193-2.754.218l-.11.001q-1.014 0-2.087-.567Q30.032 0 28.975 0zm2.815 6.917l.369.08a5.367 5.367 0 0 0-.416 1.558c.216.609.946.698 1.34 1.172-.774.666-2.462 1.408-4.054 1.872 1.148-.38 2.341-.972 2.954-1.626.245-.312.02-.637-.183-.897-.169-.212-.336-.44-.385-.561.21-.53.329-1.037.375-1.598zm-.435-.569c0 .738-.139 1.374-.397 2.065-.065.516.455.81.665 1.229-.639.674-2.362 1.479-3.65 1.774-.855.157-1.72.201-2.588.201-.901 0-1.805-.048-2.701-.068a.971.971 0 0 1-.087.003c-.108 0-.234-.012-.356-.012-.197 0-.386.031-.483.193-.136.421.503.468.775.512.404.067.964.134 1.588.183.499.052.998.078 1.495.078 2.789 0 5.515-.818 7.814-2.466a.414.414 0 0 0 .136-.3.485.485 0 0 0-.097-.27c-.333-.408-.829-.671-1.25-.985.07-.646.325-1.24.61-1.816l-1.474-.32zm3.978 1.369v4.789h.801v-4.79zm-.213 6.469q.289 0 .289.303v2.327h-.881l.289-2.45q.014-.18.303-.18zm.014-.372q-.703 0-.744.4-.29 2.602-.62 2.616l-6.388.234-.661-.028q-.744-.785-1.322-.785l-.427-.027q-1.17.22-1.404.22-.165 0-.165.22 0 .303.468.303.804-.128 1.233-.128.078 0 .144.004.234 0 .385.193-.268.333-1.202.333l-.147-.002q-1.06-.028-1.873-.276-.399 0-.399.468.041.427 2.988.441l1.308-.138 7.462-.041 2.093.028v-3.36q-.013-.675-.73-.675zm8.699-12.022l-.152.04q-.107-.02-.198-.02-.09 0-.167.02-.152.051-.182.112-.03.061-.101.112l.05.06.081-.04q.064.029.136.029.18 0 .411-.181l.152-.02-.03-.112zm.74-1.449q.547 0 .768.559.243.627.01 1.073-.194.356-.44.356-.062 0-.127-.022-.172-.061-.101-.172.142-.132.04-.345.102-.324.02-.475-.08-.223-.249-.223-.062 0-.135.03-.132.081-.172.172-.34-.077-.61-.077-.335 0-.564.118.05-.405.384-.648.334-.233 1.013-.334.084-.012.163-.012zm-5.144 5.104q1.255.79 2.136 1.073l.435.111q-.435.172-2.055.709-.172-.152-.465-.172l-.284-1.58q.132-.04.233-.141zm5.048-4.168q.086 0 .115.108.06.173-.02.426.06.192-.051.202-.019.003-.035.003-.09 0-.107-.094-.05.111.314.567.354.466 1.053 1.144.698.688.77 3.837l-1.408.708q-.283-1.873-1.316-3.209-.253-.283-.131-.536.131-.243.87-.638.365-.152.101-.365-.253-.212-.324-.455-.172 0-.364.152-.318.159-.45.159-.027 0-.046-.007-.111-.041-.132-.193l.152-.152q.071-.06 0-.111l-.304.07q.051-.262-.131-.283-.064.041-.105.041-.05 0-.067-.06-.04-.132.07-.386.061-.243.193-.374.121-.112.312-.112h.032q.071.004.14.004.14 0 .275-.014l-.02-.111q-.076.01-.165.01-.088 0-.19-.01-.046-.005-.09-.005-.296 0-.446.238-.02-.152 0-.213.256-.178.614-.178.25 0 .55.087v.132q.046.01.084.01.038 0 .068-.01 0-.324.112-.365.043-.017.077-.017zm2.271 6.648q.587 1.033.577 1.833-.01.8-.162 2.57l-2.571-.02.587-3.694 1.57-.689zM44.66 0h-.038q-.698.02-1.285.365-.648.344-.628 1.346.05.274-.03.537-.071.253-.051.516.043.109.138.109.038 0 .085-.018.047-.02.075-.02.069 0 .026.122-.04.02-.02.07.013.027.045.027.015 0 .036-.006-.057.142.028.142h.012l.016-.001q.076 0 .085.092.01.11.122.232.044.044.133.044.137 0 .383-.104l.365-.193q.03.091.131.213-.86.263-1.255.972-.577.698-.942 1.447-.87-.253-2.57-.971-.153-.213-.497-.274l-.435-2.338q-.132-.73.344-1.296L38.609.78q-.628.537-.425 1.64l.384 2.227-.344.02q-.04.173.172.254-.04.668.345.698l.283 1.549q-.223.04-.435.07-.02.193.243.254-.089.648.357.648h.027l.04.395.456-.092-.09-.415q.11-.06.222-.1 2.177-.264 2.693-.78.698-1.084 1.022-1.68.709.576 1.164 2.803h-.054q-.48 0-.431.345.04.285.271.285.064 0 .144-.022l-.689 4.16q-.607 2.703-.88 3.351-.152.517-.507.618-.364.091-1.164.547-.445.09-.496.243-.04.151.213.182.052.006.114.006.23 0 .604-.087.19-.04.417-.04.339 0 .758.09.096.02.177.02.516 0 .42-.779-.04-.567.658-1.61.699-1.042.77-2.47l.323-.324 1.033-.02.02.496q.284 1.944.304 2.561.132 1.003-.243 1.155-.385.141-1.154.597-.456.07-.516.223-.051.151.212.192.063.01.14.01.232 0 .59-.091.186-.044.43-.044.375 0 .885.105.119.024.21.024.57 0 .134-.915.03-.952.213-1.974.182-1.023-.213-2.065l.203-.274.121-2.794q.03-1.205-.84-2.693-.04-.546-.132-1.923-.08-1.387-.749-2.005-.668-.627-.739-.759.375-.263.496-.688.132-.436-.162-1.185Q45.338 0 44.66 0zm22.784.903c.618 0 .928.335.928 1.004v4.267H50.657V1.93c0-.685.317-1.027.95-1.027.48 0 1.08.538 1.8 1.614.721 1.083 1.445 1.625 2.173 1.625.713 0 1.36-.455 1.942-1.366.583-.91 1.063-1.463 1.441-1.659.197-.1.39-.15.579-.15.181 0 .36.047.534.139.357.188.83.741 1.42 1.66.582.917 1.23 1.376 1.942 1.376.75 0 1.481-.542 2.194-1.625C66.345 1.44 66.95.903 67.444.903zM67.422 0c-.764 0-1.506.55-2.227 1.648-.72 1.098-1.306 1.648-1.757 1.648-.43 0-1.008-.55-1.735-1.648C60.975.549 60.255 0 59.542 0c-.815 0-1.572.55-2.27 1.648-.692 1.098-1.256 1.648-1.692 1.648-.444 0-1.026-.55-1.747-1.648C53.113.549 52.371 0 51.607 0c-1.245 0-1.867.643-1.867 1.93v5.146h8.808c1.078.003.978.006 1 .006.018 0 .112-.002.932-.006h8.808V1.907C69.288.636 68.666 0 67.422 0zM50.403 10.67V18h1.225v-7.33zm8.423.01V18h1.225v-7.32zm8.575 0V18h1.225v-7.32zM73.57.644q-.461 0-.461.35 0 .294.462.294.448 0 .448-.294 0-.35-.448-.35zm.351-.196q1.064 0 1.596.686.266.434.518 1.33-.014.21-.35.28-.336.07-.658.07-1.484-.546-2.296-1.89.056-.476 1.19-.476zm2.534 2.1q.266.197 1.128.715.86.518 2.688 2.149 1.827 1.631 2.766 1.918.938.287 2.205.343 1.267.056 1.911.294 0 .197-.406.309-3.514-.407-5.16-.757-1.645-.35-2.43-.595-.783-.245-2.001-.93-1.219-.687-1.947-1.331-.728-.644-.952-1.008-.224-.364.553-.385.777-.021 1.26-.224t.385-.498zm10.74 5.49l.112.111q0 .113-.14.155l-.266-.014q.294-.126.294-.253zm.182.168l.112.14-.21-.014q.084-.07.098-.126zM72.577.994q.952 1.358 2.226 1.905-.162-.009-.305-.009-1.027 0-1.04.443 0 .7 2.388 2.408t5.622 2.212q1.4.182 1.569.547.028.266-1.33.336h-2.255q-.224-.49-.826-.897l.126.35q-2.24-1.288-3.928-2.849-1.687-1.561-1.701-2.71 0-.546-.546-1.372 0-.126-.756-.238v-.028l.756-.098zm10.978 7.38l3.878.686q-.406.168-.567.602-.16.434.035 1.05L82.883 9.13q.056-.014.266-.12.21-.104.37-.286.162-.182.036-.35zm-6.091-.267q1.512 1.009 1.484 1.317-.224.728-1.092 1.848-.462 0-.875-.098-.223-.053-.464-.053-.206 0-.426.04 1.443-2.045 1.443-2.13 0-.545-.084-.924zM73.907 0q-.742 0-1.113.203t-.4.54q-1.106.153-1.106.223v.28q.028.07.925.336.476.63.476 1.149 0 .98.714 1.932t3.066 3.122q.21 0 .435 1.247l-1.317 2.016q-.168.112-.448.126-.462-.154-1.47-.154-.32.098-.567.098-.176 0-.315-.049-.272-.096-.728-.096-.107 0-.224.005-.477.224-.084.616l7 .014-.223-.336q.434-.714 1.12-1.96h2.52l5.461 2.114.056-.196q-.588-.588-.49-1.33.21-.602 1.107-.798v-.196l-2.24-.406v-.014l2.1.14q0-.056-.357-.715-.358-.658-1.506-.658-1.876-.056-2.765-.182-.89-.126-3.396-2.422-2.506-2.297-3.585-2.549Q76.035 0 73.907 0zm5.888 14.24q2.996 0 6.355 1.447-3.359 1.408-6.355 1.408-2.976 0-6.355-1.408 3.379-1.448 6.355-1.448zm0-.926q-3.7 0-8.507 2.353Q76.095 18 79.795 18q3.7 0 8.507-2.333-4.787-2.353-8.507-2.353zM92.818 0l-2.516 2.975h1.227l1.289-1.537 1.301 1.537 1.265-1.537 1.301 1.537 1.29-1.537 1.3 1.537 1.29-1.537 1.301 1.537 1.265-1.537 1.301 1.537 1.302-1.537 1.264 1.537 1.301-1.537 1.29 1.537h1.227L108.299 0l-1.301 1.438L105.734 0l-1.302 1.438L103.131 0l-1.265 1.438L100.565 0l-1.29 1.438L97.976 0l-1.29 1.438L95.384 0l-1.265 1.438L92.818 0zM91.07 4.84l-.017.004c-.25.056-.5.11-.751.165.107.889.453 1.753 1.027 2.443.514.627 1.234 1.125 2.05 1.24.278.026.558.035.838.035.289 0 .578-.01.866-.022 1.06-.056 2.121-.342 3.017-.923a5.976 5.976 0 0 0 1.396-1.273.207.207 0 0 1 .146-.048c.049 0 .1.008.148.008a.292.292 0 0 0 .06-.005c1.397-.013 2.794-.04 4.19-.04.793 0 1.585.01 2.378.033a.154.154 0 0 1 .032-.004c.072 0-.085.12-.109.161-.575.652-1.138 1.316-1.733 1.95l1.207.682c.655-.647 1.152-1.469 1.955-1.954.757-.387 1.63-.342 2.454-.415l.592-.051V5.199c-3.498.01-6.996.01-10.493.068-.13.003-.262.005-.393.005-1.642 0-3.27-.266-4.91-.344-.157-.006-.315-.01-.473-.01-.35 0-.702.017-1.049.06-.345.085-.488.448-.654.723a8.096 8.096 0 0 1-.258.421.201.201 0 0 0 .092.023c.127 0 .237-.124.354-.168.28-.16.587-.322.915-.322.045 0 .09.003.135.01 1.302.021 2.592.208 3.887.33-.266.579-.866.897-1.437 1.112-1.015.395-2.107.581-3.194.598-.591-.044-1.064-.476-1.398-.933-.43-.571-.657-1.258-.87-1.932zm2.676 6.749a2.96 2.96 0 0 1 2.315 1.109h-4.63a2.96 2.96 0 0 1 2.315-1.11zm2.628 1.587c.179.34.293.72.328 1.121H90.79a2.95 2.95 0 0 1 .327-1.121zm.33 1.6c-.028.4-.137.78-.31 1.12h-5.295a2.951 2.951 0 0 1-.311-1.12zm-.613 1.599a2.96 2.96 0 0 1-2.345 1.147 2.96 2.96 0 0 1-2.344-1.147zm-2.345-5.264a3.45 3.45 0 0 0-3.444 3.444A3.449 3.449 0 0 0 93.746 18a3.45 3.45 0 0 0 3.445-3.445 3.45 3.45 0 0 0-3.445-3.444zm12.028.607l-.397.232q-2.05 2.512-3.29 4.298-.843.463-1.223.735-.38.273-1.14.405-.96.066-.96.314v.232q-.01.066.662.066.336 0 .843-.017.54-.143.904-.143.182 0 .32.036.413.107.677.107.265 0 .422-.14.157-.14.24-.868 0-.198 1.371-1.545 1.372-1.348 1.57-2.042 0-.182.513-.463.182 0 .827.711 1.256 1.52 1.71 2.165.455.645.125.835-.331.19-.662.513-.3.292-.627.292-.033 0-.067-.003-.727.116-.727.38v.165h1.702q.474-.253.834-.253.18 0 .332.063.454.19.702.19.38-.05.38-.314 0-.28-.264-.644-.413-.662-1.041-2.323-.629-1.661-2.1-2.405-.86-.579-1.322-.579zm12.809-10.372q-2.126 0-4.759.587-1.103.284-1.002.901.091.618.506.618 3.108-.87 5.245-.87 2.136 0 5.416 1.417 3.29 1.417 5.73 1.417V4.302q-2.44 0-5.73-1.478-3.28-1.478-5.406-1.478zm-1.499 4.273q-.06.131-.111.253-.182.394-.182.85 0 .446.182.84.132.314.334.557-.04-.02-.081-.02-.85-.182-2.207-.81.354 0 1.124-.962.354-.435.941-.708zm3.858.172q1.417.496 3.209 1.498-1.914.587-3.503.83.213-.243.334-.557.182-.394.182-.84 0-.456-.182-.85l-.04-.081zm-2.197-.486q.506.02 1.134.152l.162.162q.212.192.354.465.131.284.142.608.01.324-.102.607-.121.284-.324.496-.212.223-.486.334-.192.102-.394.122-.233.02-.456.02-.192-.04-.354-.101-.294-.112-.507-.324-.212-.203-.344-.476-.131-.283-.131-.597-.02-.334.1-.618.122-.283.315-.496.202-.202.476-.314.192-.04.415-.04zm.01-.911q-2.197 0-3.149 1.164-.962 1.164-1.356 1.336h-1.408v.942h1.428q.749.314 1.458.577.708.253.708 1.103l-.587-.02v.942q.506.334.506 1.296v3.462h1.144V9.253q6.773 7.4 10.762 7.4 1.458-.12 1.458-1.589 0-1.012-1.022-1.083-1.084 0-1.084 1.083 0 .689.648.689.314 0 .324-.344.01-.345-.324-.345 0-.394.415-.394.355 0 .355.394 0 .82-.75.82-3.421 0-9.486-6.722 2.268 0 6.399-1.478l4.525.253V6.854l-4.525.02q-3.918-2.48-6.44-2.48zM134.544 0c-.12 0-.239.005-.358.016l-.056-.001c-1.34 0-2.494 1.293-2.396 2.622-.073 1.044.145 2.077.202 3.116.092.175.258.25.435.25a.739.739 0 0 0 .606-.327c.315-.44.176-1.01.048-1.491-.142-.857-.194-1.812.278-2.581.303-.407.803-.61 1.302-.61.543 0 1.085.241 1.372.722.46.674.336 1.655-.254 2.212-.569.673-1.423 1.117-1.787 1.951-.233.841-.038 1.718-.116 2.574-.074 3.123-.114 6.246-.173 9.37.161.135.351.16.548.16.115 0 .232-.009.347-.009.093 0 .185.006.274.026.425-.218.39-.764.36-1.168-.151-3.276-.041-6.556-.123-9.833.008-.374-.113-.803.282-1.016.785-.763 1.622-1.523 2.105-2.525.492-1.455-.608-3.197-2.131-3.382a3.782 3.782 0 0 0-.765-.076zm7.837 0c-.119 0-.238.005-.357.016l-.056-.001c-1.34 0-2.495 1.293-2.397 2.622-.072 1.044.145 2.077.203 3.116.091.175.258.25.434.25a.739.739 0 0 0 .607-.327c.315-.44.176-1.01.047-1.491-.141-.857-.193-1.812.278-2.581.304-.407.803-.61 1.302-.61.543 0 1.086.241 1.372.722.46.674.337 1.655-.253 2.212-.57.673-1.423 1.117-1.788 1.951-.232.841-.037 1.718-.115 2.574-.075 3.123-.114 6.246-.173 9.37.161.135.35.16.547.16.115 0 .232-.009.347-.009.094 0 .186.006.274.026.425-.218.391-.764.36-1.168-.15-3.276-.04-6.556-.123-9.833.009-.374-.112-.803.282-1.016.786-.763 1.623-1.523 2.106-2.525.492-1.455-.609-3.197-2.132-3.382a3.782 3.782 0 0 0-.765-.076zm7.838 0c-.12 0-.239.005-.357.016l-.056-.001c-1.34 0-2.495 1.293-2.397 2.622-.073 1.044.145 2.077.202 3.116.092.175.258.25.435.25a.737.737 0 0 0 .606-.327c.315-.44.176-1.01.048-1.491-.142-.857-.194-1.812.278-2.581.303-.407.803-.61 1.302-.61.543 0 1.085.241 1.372.722.46.674.336 1.655-.254 2.212-.569.673-1.422 1.117-1.787 1.951-.233.841-.038 1.718-.116 2.574-.074 3.123-.113 6.246-.172 9.37.16.135.35.16.547.16.115 0 .232-.009.347-.009.093 0 .185.006.274.026.425-.218.391-.764.36-1.168-.15-3.276-.041-6.556-.123-9.833.009-.374-.113-.803.282-1.016.785-.763 1.623-1.523 2.106-2.525.491-1.455-.609-3.197-2.132-3.382a3.782 3.782 0 0 0-.765-.076zm5.073 6.39v1.757h3.876V6.39h-.76c-.221.39-.474.643-.759.76a1.12 1.12 0 0 1-.425.086 1.09 1.09 0 0 1-.421-.087c-.28-.116-.53-.369-.752-.76zm2.35-6.39v2.91h-.879v3.56h.95V4.24h1.1V1.185h1.36c.243 1.899.903 3.31 1.978 4.232 1.076.923 2.405 1.458 3.987 1.606 1.582.147 2.62.356 3.116.624.496.27.743.541.743.815h1.93c-.295-.706-.69-1.244-1.186-1.613-.496-.37-1.416-.601-2.76-.696-1.345-.095-2.42-.272-3.228-.53-.806-.259-1.526-.717-2.159-1.377-.633-.659-1.118-2.075-1.455-4.247zm-.355 15.57L155.232 18h1.002l1.053-1.255L158.35 18l1.033-1.255L160.446 18l1.053-1.255L162.562 18l1.053-1.255L164.678 18l1.032-1.255L166.774 18l1.063-1.255L168.869 18l1.063-1.255L170.985 18h1.002l-2.055-2.43-1.063 1.175-1.032-1.175-1.063 1.175-1.064-1.175-1.032 1.175-1.063-1.175-1.053 1.175-1.063-1.175-1.053 1.175-1.063-1.175-1.033 1.175-1.063-1.175zM178.301.453v.44h-2.322v-.44zm-1.168.866q1.456 0 2.013.742.556.741.556 1.332-.014.92-.77 1.607-.755.687-1.799.687-1.057 0-1.813-.687-.756-.686-.756-1.593 0-.605.454-1.346.453-.742 2.115-.742zM175.32 0v1.03q-.495.289-.907.934-.412.646-.426 1.43 0 .92.763 1.86.762.942 2.383 1.01 1.608-.068 2.377-1.01.77-.94.77-1.847-.015-.797-.427-1.45-.412-.652-.92-.94V0zm10.835.453v.44h-2.321v-.44zm-1.168.866q1.457 0 2.013.742.556.741.556 1.332-.013.92-.769 1.607-.755.687-1.8.687-1.057 0-1.813-.687-.755-.686-.755-1.593 0-.605.453-1.346.453-.742 2.115-.742zM183.174 0v1.03q-.494.289-.907.934-.412.646-.425 1.43 0 .92.762 1.86.762.942 2.383 1.01 1.608-.068 2.377-1.01.77-.94.77-1.847-.014-.797-.427-1.45-.412-.652-.92-.94V0zm10.836.453v.44h-2.322v-.44zm-1.168.866q1.456 0 2.012.742.557.741.557 1.332-.014.92-.77 1.607-.755.687-1.8.687-1.057 0-1.813-.687-.755-.686-.755-1.593 0-.605.453-1.346.453-.742 2.116-.742zM191.028 0v1.03q-.494.289-.906.934-.412.646-.426 1.43 0 .92.762 1.86.763.942 2.384 1.01 1.607-.068 2.376-1.01.77-.94.77-1.847-.014-.797-.426-1.45-.412-.652-.92-.94V0zm4.053 12.34v3.896l-2.4-1.47h-15.386l-2.426 1.47v-3.895zm-21.094-1.102V18l3.308-2.131h15.385L195.987 18v-6.762zM216.467.93q-.452.453-.452 1.66 0 1.232.452 1.684h-14.934q.452-.452.452-1.684 0-1.207-.452-1.66zM198.641 0q-.654 0-.628.427-.026.503.628.503h1.634q.604.453.604 1.66 0 1.232-.604 1.684h-1.609q-.679 0-.679.428 0 .503.654.503h20.718q.628 0 .628-.503 0-.428-.653-.428h-1.61q-.603-.452-.603-1.684 0-1.207.604-1.66h1.634q.628 0 .628-.503 0-.427-.628-.427zm2.255 14.369l-2.127-2.145-.769.686 2.169 2.182-2.182 2.168.723.727 2.181-2.168L203.06 18l.727-.723-2.127-2.27 2.14-2.08-.723-.726-2.181 2.168zm11.822.417q2.56 0 5.43 1.238-2.87 1.203-5.43 1.203-2.544 0-5.431-1.203 2.887-1.238 5.43-1.238zm0-.79q-3.163 0-7.27 2.01Q209.555 18 212.718 18q3.162 0 7.27-1.994-4.09-2.01-7.27-2.01z"/></svg>