<svg xmlns="http://www.w3.org/2000/svg" width="328.695" height="18"><path d="M13.234 2.432l4.255 4.7-1.307.75-2.948-5.45zm-9.733-1.28q.806 0 1.557.418v.027q0 .529-.5.835-.862.222-.862.278l.917.083h.14q.472-.083.862-.5.222 1 .361 1.056.473.056 1.335.974L9.619 7.27q2.42 3.476 3.615 5.089v.028q-3.281-1.586-3.81-1.891-2.085-.918-3.948-2.225-1.947-1.53-2.225-2.698 0-.445.445-1.084l1-1.335-.11-.028q-.418.139-.974.667-.75.807-.862 1.363h-.028l-.083-.89q0-.417.167-1.001v-.14Q2.389 1.57 2.25 1.57l.556-.306-.084.25q0 .278.223.417h.139q.25 0 .306-.361v-.084q0-.111-.195-.306l.306-.028zm.667 7.287q.14 0 .306.64.278 1.723 2.225 4.588-.306.139-.528.39-.779-.807-1.085-.807h-.028l.028-.223q0-1.335-.918-4.588zm.946.834q1.557 1.224 3.393 2.308v.779L8.562 14v.028l.028.028h-.028q-.667-.528-1.334-.64l-1.28-2.002q-.556-1-.834-2.113v-.028zm.362 4.894q.5.612.64.612l.11-.028.612-.528.14 2.447v.056l-.613-.056q-.5.056-.5.167-.223-.083-.89-.167l-.084.056h-.194l.75-2.559zM6.81 9.774l1.057.584q6.035 3.003 6.118 3.003 1.502 1.724 2.893 3.198v.028l-1.947.334-2.086-2.253-1.78-1.974q-1.14-.89-4.255-2.893v-.027zM3.84.495q-.85 0-1.563.407-.139.028-.5.25-.64.501-.64.863v.027l.028.028.361-.028.223.028q.222 0 .5 1.168-.166.473-.166 1.057v.028q0 1.64 1.223 3.114 1.196 4.089 1.196 5.618l-.028.39q0 .222.334.278l-.834 2.864-.39-.028-1.251.028-.5-.028q-1.113.278-1.113.723v.111q.195-.139.306-.139l.361.028 1.085-.055h.223l.222.055h.445l.25-.028.167.028 2.03.056 2.837-.084.834.056.445-.056.417.056v-.028q-.306-.417-1.196-.612 0 .056-.611.056h-.807l-.139-2.559v-.027l.612.306q.64.723.779.723.166 0 .278-.195v-.028q-.195-1.585-.195-2.892v-.056l.75.473q.613.306 1.948 1.863 2.92 3.17 2.975 3.17l2.197-.333q.807-.056.807-.417l-.028-.167-2.058-2.197q1.863 1.168 2.753 1.557h.084q-.529-.528-1.558-1.251l.5.195q.307-.084.307-.279v-.083l-.028-.139-4.811-3.393Q10.676 7.687 9.23 5.88q-.417-.612-.529-.695l2.948-2.781q.223-.223.584-.306.39.139.5.473l3.255 6.174q.27.368.54.368.035 0 .071-.007.306-.222.112-.918.5.376.735.376.078 0 .127-.042.25-.083-.056-.862.453.359.714.359.123 0 .204-.08.167-.223-.028-.585L12.428.707l-4.172 3.81Q7.2 3.155 6.45 2.932q-.084 0-.278-.778-.334-.723-.64-.89Q4.947.54 4.001.499q-.08-.004-.16-.004zm18.042.161c.04 0 .083.002.127.005.56.04 1.172.253 1.837.64-.665.412-1.278.635-1.837.668a1.774 1.774 0 0 1-.105.003c-.488 0-.726-.224-.714-.672-.012-.43.219-.644.692-.644zm0 3.974c.04 0 .083.002.127.005.56.04 1.172.253 1.837.64-.665.412-1.278.635-1.837.668a1.774 1.774 0 0 1-.105.003c-.488 0-.726-.224-.714-.672-.012-.429.219-.644.692-.644zM21.808 0c-.037 0-.073 0-.108.002-.713.027-1.109.46-1.189 1.298.105.892.485 1.338 1.14 1.338h.029c.672-.013 1.614-.253 2.826-.719h11.542c.946.08 1.422.52 1.428 1.318.007.799-.469 1.285-1.428 1.458H24.506c-1.1-.48-2-.72-2.698-.72l-.108.001c-.713.027-1.109.46-1.189 1.298.105.892.485 1.339 1.14 1.339h.029c.672-.014 1.614-.254 2.826-.72h10.903l.125.001c1.357 0 2.29-.426 2.801-1.279.526-.879.526-1.757 0-2.636-.503-.84-1.417-1.26-2.742-1.26-.06 0-.122 0-.184.002H24.506c-1.1-.48-2-.721-2.698-.721zM35.93 9.476l.562.123a8.185 8.185 0 0 0-.634 2.376c.329.928 1.443 1.063 2.043 1.786-1.18 1.016-3.754 2.149-6.182 2.855 1.75-.578 3.57-1.482 4.505-2.48.373-.475.031-.971-.28-1.367-.256-.324-.511-.67-.586-.856.32-.807.501-1.581.572-2.437zm-.664-.868c.001 1.126-.211 2.096-.606 3.15-.098.787.694 1.234 1.015 1.873-.974 1.029-3.602 2.256-5.568 2.706-1.303.24-2.623.308-3.947.308-1.374 0-2.752-.074-4.119-.105a1.481 1.481 0 0 1-.133.005c-.164 0-.356-.018-.543-.018-.3 0-.588.047-.736.294-.208.643.767.714 1.181.78a28.89 28.89 0 0 0 2.422.28c.761.08 1.522.119 2.28.119 4.254 0 8.412-1.247 11.92-3.762a.63.63 0 0 0 .206-.458.74.74 0 0 0-.147-.41c-.51-.622-1.265-1.024-1.906-1.503.107-.985.495-1.892.93-2.77l-2.249-.489zM50.703 0v7.32h1.225V0zm10.061 12.17q.442 0 .442.464v3.556H59.86l.442-3.746q.021-.273.463-.273zm.021-.568q-1.073 0-1.136.61-.442 3.978-.947 4l-9.765.357-1.01-.042q-1.137-1.2-2.02-1.2l-.653-.042q-1.789.337-2.146.337-.253 0-.253.337 0 .463.716.463 1.228-.196 1.884-.196.12 0 .22.006.358 0 .59.295-.411.508-1.838.508-.11 0-.225-.003-1.62-.042-2.862-.421-.61 0-.61.716.063.652 4.566.673l2-.21 11.406-.064 3.199.043v-5.135q-.021-1.032-1.116-1.032zM73.705.377V.78h-2.388V.377zm.252.855c-.313.299-.478.648-.478 1.056h-1.986c0-.408-.154-.757-.452-1.056zm0 1.508c-.313.312-.478.65-.478 1.03h-1.986c0-.38-.154-.718-.452-1.03zm0 1.483c-.313.313-.478.663-.478 1.056h-1.986c0-.393-.154-.743-.452-1.056zm-.076 1.484c-.38.475-.578 1.044-.578 1.71l.955 6.083c-.274.137-.54.279-.779.402-.497.198-.746.297-1.004.297-.257 0-.524-.099-1.057-.297-.21-.107-.442-.21-.68-.327l.956-6.159c0-.665-.198-1.234-.578-1.71zm-7.894.704c.487 1.592.8 2.843.956 3.72.155.878.482 1.67 1.005 2.363.524.693 1.235 1.181 2.112 1.484.858.415 1.596.816 2.313 1.382v.83h-.805c-.014-.546-.465-.968-1.357-1.307-.892-.34-1.664-.9-2.313-1.66-.649-.759-1.062-1.708-1.232-2.865a73.7 73.7 0 0 0-.679-3.947zm12.922 0a74.018 74.018 0 0 0-.679 3.947c-.17 1.157-.583 2.106-1.231 2.865-.65.76-1.421 1.32-2.313 1.66-.892.339-1.343.761-1.358 1.307h-.78l.026-.83a6.874 6.874 0 0 1 1.232-.905c1.212-.456 2.24-1.03 3.142-1.96.524-.694.851-1.486 1.006-2.364.155-.877.469-2.128.955-3.72zm-5.556 10.433v.578h-1.81v-.578zM70.764 0v.78h-1.483v.452h.93c.557.299.83.648.83 1.056h-1.76v.452h.93c.557.312.83.65.83 1.03h-1.76v.453h.93c.557.313.83.663.83 1.056h-1.785v.428h1.181c.475.475.704 1.044.704 1.71l-.905 5.882-.628-.302c-1.188-.568-1.962-1.81-2.338-3.72-.376-1.91-.81-3.167-1.333-3.771-.523-.605-1.173-1.311-1.91-2.137H63.9c1.239 1.666 1.908 3.247 2.011 4.751.103 1.504.264 2.703.478 3.595.213.892.685 1.685 1.407 2.363.723.679 1.437 1.13 2.137 1.358.511.166.83.388 1.006.78h-.025c-.012 1.417-.016.423 0 1.784h3.042c.006-1.42 0-.42 0-1.785.176-.391.494-.613 1.005-.78.7-.228 1.415-.678 2.137-1.357.723-.678 1.194-1.47 1.408-2.363.214-.892.374-2.09.478-3.595.103-1.504.772-3.085 2.01-4.751h-.125c-.737.826-1.362 1.532-1.885 2.137-.524.604-.982 1.86-1.358 3.77-.376 1.91-1.15 3.153-2.338 3.721-.196.094-.345.162-.528.252l-.905-5.833c0-.665.229-1.234.704-1.71h1.081V5.28h-1.684c0-.393.261-.743.804-1.056h.955v-.452h-1.76c0-.38.262-.719.805-1.03h.98v-.453h-1.784c0-.408.261-.757.804-1.056h.955V.779h-1.483V0zm24.05.39c.016.244-.053.484-.208.72-.154.236-.492.353-1.012.353V1.44c.472-.049.789-.175.951-.378a1.18 1.18 0 0 0 .269-.67zm-6.513.732c.407 0 .724.106.952.317l-.244.122c-.15-.22-.342-.329-.573-.329a.817.817 0 0 0-.135.012 7.246 7.246 0 0 1-.784.056c-.148 0-.26-.01-.338-.032.537-.097.911-.146 1.122-.146zM84.497.366l.182.341c.106.195.354.293.744.293.407 0 .797.081 1.171.244.374.163.634.244.78.244l.927-.098c.244 0 .423.09.537.269l-.17.073a1.096 1.096 0 0 0-.596-.176c-.141 0-.288.026-.441.078-.382.13-.663.195-.842.195-.146 0-.35-.081-.61-.244-.178-.244-.439-.365-.78-.365-.439 0-.724-.163-.854-.488h-.048l-.025.024c0 .163.17.333.512.512.618.05.927.114.927.195h-.61c-.308 0-.544-.097-.707-.292-.162-.195-.211-.464-.146-.805zm10.22.024c0 .456-.253.72-.757.793-.504.073-.915.2-1.232.378-.24.136-.457.204-.651.204a.755.755 0 0 1-.178-.021c-.236-.057-.557-.085-.963-.085-.358 0-.716.178-1.074.536h-.024c.407-.471.789-.707 1.146-.707.553 0 1.017-.106 1.39-.317.287-.162.535-.243.744-.243.065 0 .126.008.183.023a2.703 2.703 0 0 0 .793.086c.285-.009.484-.224.598-.647zm-6.464 1.927c-.228.049-.342.155-.342.317 0 .065.049.098.147.098.276-.05.414-.13.414-.244-.049-.114-.122-.17-.22-.17zm1.487.098v.463h-.024v-.439l.024-.024zm.171-.05v.513h-.073v-.463l.073-.05zm-.341.123v.439h-.025c-.471.195-.813.305-1.024.33a.931.931 0 0 1-.107.006c-.157 0-.276-.047-.356-.141 0-.049.21-.155.634-.317.276-.212.569-.317.878-.317zm.951-1.415c.228 0 .512.073.854.22v.048c-.618 0-1.045.118-1.28.354a7.607 7.607 0 0 0-.452.476l.097.122c-.439.016-.813.138-1.121.366-.505.146-.757.308-.757.487 0 .195.204.293.61.293.179 0 .394-.057.647-.17a2.09 2.09 0 0 1 .67-.196c.033.39-.049.594-.244.61-.374.309-.56.618-.56.927a.565.565 0 0 1-.137.018c-.188 0-.32-.116-.4-.348-.098-.284-.334-.426-.708-.426h-1.439v-.025l.39-.268c.017-.065-.007-.098-.072-.098l-.415.269a.234.234 0 0 1-.073-.171c0-.049.032-.073.097-.073h.22c.049 0 .077-.029.085-.086.008-.056-.004-.085-.036-.085h-.269a.218.218 0 0 1 .147-.122c.504-.439.894-.683 1.17-.732.163-.227.358-.341.586-.341h.097c-.26.016-.455.146-.585.39-.016.049-.004.073.036.073h.11c.147-.211.31-.325.488-.341.342-.033.512-.057.512-.073.017-.049 0-.082-.049-.098l-.292.025v-.025a.604.604 0 0 0 .22-.122c.21-.016.487-.138.829-.366.39-.341.731-.512 1.024-.512zm-1.69 3.964c.062 0 .113.044.153.134l-.365 2.463h-.415l.415-2.463c.08-.09.152-.134.213-.134zm2.129-2.915c.553 0 1.073.406 1.561 1.22.488.812.732 1.804.732 2.975v1.317h-1.098l-.17-1.317c0-.471-.285-.707-.854-.707-.57 0-.854.244-.854.731l-.268 1.293h-.951l.365-3.17c.017-.196.155-.399.415-.61.228 0 .341-.18.341-.537v-.951a1.31 1.31 0 0 1 .781-.244zm.17 3.927c.277 0 .415.097.415.292l.195 1.708c.066 1.935-.341 4.951-1.219 9.049l.512.317H84.35l1.39-.61-1.902-5.17c-.111-.702-.002-1.053.33-1.053.152 0 .35.074.597.223l3.146 4.22.537-.293c.179-3.139.439-5.366.78-6.683H90.4l.293-1.708c0-.195.146-.292.439-.292zM94.815 0c-.13 0-.22.09-.269.268-.103.354-.24.53-.409.53a.265.265 0 0 1-.054-.005 14.296 14.296 0 0 1-.744-.183.938.938 0 0 0-.246-.032c-.237 0-.497.084-.778.251-.223.133-.436.2-.64.2a.931.931 0 0 1-.421-.102A2.095 2.095 0 0 0 90.4.732c-.276 0-.602.154-.976.463-.292-.26-.666-.39-1.122-.39-.195 0-.65.065-1.365.195-.468-.196-.905-.294-1.31-.294l-.093.001a2.09 2.09 0 0 1-.079.002c-.384 0-.617-.114-.701-.343-.084-.229-.186-.343-.305-.343l-.025.001c-.146.033-.22.244-.22.635 0 .243.082.483.245.719.162.236.455.354.878.354h.658c.31.244.57.366.78.366.03.002.062.003.093.003.172 0 .365-.038.579-.113.252-.09.459-.134.622-.134.162 0 .3.016.414.048l-.097.025a2.138 2.138 0 0 0-.206-.01c-.39 0-.655.125-.794.376-.326.097-.667.317-1.025.658-.227.098-.341.244-.341.44a.303.303 0 0 0-.098.219c0 .081.065.162.195.244 0 .097.033.154.098.17l-.098.39h.83l-.098-.316a7.06 7.06 0 0 1 .436-.016c.497 0 .758.075.784.223.032.187.162.354.39.5-.18.211-.269.488-.269.83l-.39 2.414h.83c-.228 1.154-.48 3.105-.757 5.853h-.024l-2.585-3.487c-.271-.369-.595-.553-.97-.553a1.53 1.53 0 0 0-.604.138c-.642.276-.833.797-.573 1.561.114.228.716 1.878 1.805 4.951h-.024l-1.561.683.097.805h9.074l-1.244-1.293c.634-3.024 1.024-5.91 1.17-8.658h1.269V6.317c0-.78-.134-1.581-.403-2.402-.268-.822-.711-1.435-1.329-1.842.358 0 .61-.057.756-.17.146-.114.398-.204.756-.269.167.02.319.03.456.03.412 0 .69-.09.837-.274.228-.341.341-.642.341-.902 0-.325-.097-.488-.292-.488zm15.064.786l.24.1-7.205 16.045c-.122-.079-.808-.415-1.031-.676 0-.173.123-.291.48-.767.375-.5.774-1.02.32-1.691-.21-.31-.498-.536-.872-.536-.233 0-.499.087-.8.295-.627-.373-1.234-.56-2.221-.56-.174-1.521-.367-2.482-.58-3.683h7.145l4.524-8.527zM109.864 0a1.36 1.36 0 0 0-.126.006l-4.583 8.166c-.16.267-.327.4-.5.4a.465.465 0 0 1-.06.004c-.674 0-2.582-1.229-5.725-3.686-.72-.748-1.094-1.495-1.121-2.242-.027-.748.197-1.175.67-1.281.143-.033.272-.049.387-.049.266 0 .458.087.574.259.167.247.157.494-.03.74-.093.124-.178.186-.255.186-.077 0-.145-.062-.205-.186-.12-.246-.247-.37-.38-.37-.254.094-.314.314-.18.66.123.323.35.484.682.484l.078-.003c.374-.027.634-.153.78-.38a1.44 1.44 0 0 0 .22-.8c0-.308-.1-.575-.3-.801-.2-.227-.49-.37-.87-.43a1.37 1.37 0 0 0-.214-.018c-.31 0-.618.106-.927.317-.38.26-.6.688-.66 1.281-.06.594.103 1.248.49 1.962S98.693 5.65 99.7 6.371c1.008.72 1.965 1.408 2.873 2.061.021.086-.026.128-.141.128a.711.711 0 0 1-.1-.008h-5.124c.427 2.442.688 4.17.781 5.185a4.3 4.3 0 0 1 .358-.014c.935 0 1.87.278 2.805.834.2-.267.417-.4.65-.4.234 0 .354.127.36.38-.407.65-1.004 1.282-1.21 2.022l2.24 1.441L110.82.526c-.242-.35-.56-.526-.955-.526zm4.37.738q.22 0 .503.048 3.636.276 7.382.91l-.799 2.506q-3.388-.854-6.859-2.149-1.13-.385-.991-.881.103-.434.764-.434zm.105-.738q-1.23 0-1.475 1.007-.276 1.074 1.129 1.625 3.664 1.35 7.272 2.286.214.075.358.075.225 0 .276-.185l1.046-3.195q.11-.441-.413-.579-4.104-.66-7.878-1.019-.165-.015-.315-.015zm11.751.738q.22 0 .503.048 3.636.276 7.382.91l-.799 2.506q-3.388-.854-6.859-2.149-1.129-.385-.991-.881.103-.434.764-.434zm.106-.738q-1.23 0-1.476 1.007-.276 1.074 1.13 1.625 3.663 1.35 7.271 2.286.215.075.358.075.225 0 .276-.185l1.047-3.195q.11-.441-.414-.579-4.104-.66-7.878-1.019-.164-.015-.314-.015zm-6.648 13.03q.257 0 .587.057 4.247.321 8.622 1.061l-.933 2.928q-3.957-.997-8.01-2.51-1.32-.45-1.159-1.029.12-.507.893-.507zm.123-.862q-1.437 0-1.723 1.176-.322 1.255 1.319 1.898 4.278 1.577 8.493 2.67.25.088.417.088.264 0 .323-.216l1.222-3.732q.129-.515-.482-.676-4.794-.772-9.201-1.19-.193-.018-.368-.018zM145.792.675q.798 0 1.626.347l-1.575 1.595-1.615-1.595q.767-.347 1.564-.347zm-3.445 2.085l1.595 1.595-1.595 1.595q-.695-1.656 0-3.19zm6.89.082q.696 1.656 0 3.19l-1.594-1.595 1.595-1.595zm-1.247-1.35q.491.226.777.778L146.6 4.457l2.147 2.147q-.266.532-.798.777l-2.147-2.147-2.106 2.107q-.531-.328-.777-.798l2.107-2.086-2.209-2.208q.225-.531.798-.756l2.187 2.187 2.188-2.187zm-2.147 4.744l1.595 1.595q-.777.348-1.574.348-.798 0-1.615-.348l1.594-1.595zM145.803 0q-2.107 0-3.323 1.37-1.217 1.37-1.217 3.006 0 1.84 1.421 3.138 1.421 1.299 3.078 1.32 2.003-.021 3.26-1.381 1.258-1.36 1.258-3.077l-.02.04q.02-1.553-1.237-2.985Q147.765 0 145.803 0zm-8.983 10.798V18h1.203v-7.202zm8.275.01V18h1.204v-7.192zm8.426 0V18h1.203v-7.192zM158.47 0c-.93 0-1.746.684-1.746 1.562V18h1.136V1.562c0-.43.379-.57.617-.57.25 0 .634.175.634.703v10.804h1.136V1.695c0-.88-.871-1.695-1.777-1.695zm17.995.777c.316.06.636.09.957.093-.446 1.015-.669 2.136-.574 3.245a9.797 9.797 0 0 0 3.885.756 19.5 19.5 0 0 0 1.787-.095c-1.039 2.441-2.586 4.029-4.671 5.588l-.454-.585c.834-.938 1.95-2.342 1.903-3.612-.05-1.33-1.745-1.587-3.126-1.587-.159 0-.314.003-.461.009.455-1.218.81-2.5.754-3.812zm-7.81 7.581c1.343 1.528 2.455 3.271 3.447 5.042.208.26-.026.498-.198.745-.653-2.1-2.157-3.719-3.25-5.787zm-1.3-7.71c.112.528-.095 1.138-.49 1.318l.126.274c.495-.238.97-.951 1.041-1.591.676.04.861.556.967 1.154.127.408-.002 1.4.51 1.571 1.51.592 2.665 1.277 3.702 2.312 1.789 2.264 3.658 4.457 5.447 6.724.695.882 1.33 1.69 1.846 2.3-2.716-2.056-5.752-3.628-8.73-5.262-1.582-.87-3.092-1.582-3.092-3.498 0-1.03 1.877-1.894 1.8-2.028-.008-.012-.03-.017-.063-.017-.386 0-2.357.74-2.357 2.3 0 .432.114.833.313 1.207h-.009c-2.162-1.16-1.819-3.506-1.735-5.574-.899-.05-1.639-.547-2.492-.753.662-.087 1.321-.199 1.985-.268a.526.526 0 0 0-.314.2c-.011.221.235.318.475.318.235 0 .463-.092.441-.252a.6.6 0 0 0-.514-.276c.33-.047.77-.119 1.143-.16zm3.776 13.303c.194.476.294.98.404 1.48.315-.257.62-.523.879-.838-.168.926-.483 1.86-1.245 1.86-.46 0-.675-.315-.379-1.271.14-.451.25-.882.341-1.231zm-.828-4.584c3.084 1.662 6.137 3.34 9.053 5.292.687.563 1.298 1.191 1.713 1.778-.275.432-.798.58-1.282.613-2.468-.087-3.434-2.495-4.738-4.216l-.709-.872.122 1.117c.009.202.212 1.153-.091 1.153a.223.223 0 0 1-.09-.021l-1.246-1.512c-.134.09-.26.19-.397.273-.619-1.268-1.525-2.447-2.335-3.605zM167.643 0h-.046c-.633.005-1.281.12-1.896.177-.75.37-1.511.088-2.298.378-.569.258-.728.782-.964 1.305.335-.112.64-.158.928-.158.917 0 1.656.467 2.625.716-.001.493-.078 1.052-.114 1.615-.15 1.526.644 2.865 1.793 3.818.822 1.855 1.96 3.277 2.792 4.724a9.46 9.46 0 0 1-.079.414c-2.081.566-4.168.878-6.311 1.066-.506.07-1.75-.086-1.826.527-.048.38.52.457 1.058.457.334 0 .655-.03.812-.035 2.01-.064 4.006-.343 5.975-.736-.21.866-.46 1.81-.62 2.29a10.86 10.86 0 0 1-1.8.154 9.115 9.115 0 0 1-.78-.032c-.467 0-.98.808-1.484 1.24l10.237.08c-.26-.934-2.08-1.43-2.727-1.43a.891.891 0 0 0-.099.005c.228-.66.513-1.281.594-2.204.286.259.606.539 1.006.568.49-.037.687-.375.75-.816 1.107 1.854 2.346 3.368 4.618 3.591.785-.039 1.764-.386 1.976-1.231 1.041-.06.278-1.087-.109-1.489-1.219-1.335-2.346-2.752-3.458-4.182 2.497-1.832 4.301-4.013 5.42-6.884-.852.188-1.702.272-2.55.272-1.194 0-2.383-.167-3.567-.447-.052-1.216.387-2.358.9-3.436a5.44 5.44 0 0 1-.561.028c-.712 0-1.418-.13-2.11-.297l.003.03c.24 1.79-.333 3.51-.975 5.153.348-.037.786-.067 1.24-.067 1.122 0 2.345.185 2.577.916.297.94-.765 2.28-1.573 3.19-1.073-1.382-2.157-2.754-3.32-4.054-1.079-1.077-2.297-1.805-3.805-2.41-.112-.278-.149-.676-.222-1.112-.08-.477-.33-1.257-.79-1.5a3.474 3.474 0 0 0-1.22-.194zm22.444 0c-.112 0-.223.01-.335.02-1.61.172-2.753 1.802-2.5 3.382.111 1.174.84 1.832 1.64 2.48 2.379 1.458 1.71.921 4.11 2.136l.385-.718c-2.855-1.337-3.2-1.55-4.09-2.137-.73-.587-1.306-1.235-1.256-2.217-.02-.678.385-1.377.84-1.71.365-.274.83-.436 1.286-.436.345 0 .669.08.952.283.719.355 1.114 1.529.587 2.268a1.396 1.396 0 0 1-1.113.597 1.03 1.03 0 0 1-.608-.192c-.364-.202-.638-.911-.263-1.306-.172-.182-.415-.405-.597-.405-.122 0-.213.091-.274.304-.405.972.243 2.075 1.215 2.338.172.051.344.081.517.081 1.113 0 2.146-.93 2.146-2.085.101-1.347-.972-2.582-2.319-2.663a3.272 3.272 0 0 0-.323-.02zm-.067 11.024l-.02.01 3.624 6.946h1.367l-3.624-6.956zm-3.037.01l-1.367.01L189.241 18l1.366-.01-3.624-6.955zM201.243 0q-.156 0-.405.083-.667.51-1.629 1.57-.785.589-1.04 1.217-.059.177-.353.775-.295.6-.825 2.483.022.571.18.571.123 0 .33-.355.158-.49.452-1.344.294-.854.942-1.423.373-.295.628-.393.59 0 .59.785v9.697q.038.55-.295.883-.648.471-.884 1.295-.137.746.118 2.042.157.114.397.114.09 0 .192-.016-.177-.707-.177-1.237-.098-1.08.59-1.57.176-.137.45-.137.315 0 .472.098.667.51.569 1.61 0 .53-.177 1.216.125.026.231.026.214 0 .358-.104.255-1.296.138-2.022-.216-.844-.844-1.315-.393-.334-.354-.883V3.969q-.02-1.55-1.119-1.61.295-.49 1.12-1.314.372-.197.588-.687.08-.358-.243-.358zm7.15 0q-1.74.04-2.882 1.26-1.26 1.382-1.38 2.763 0 .32.36.32h16.73q.36 0 .36-.38t-.36-.38h-16.19q1-2.562 3.002-2.843h13.188q.36 0 .36-.38 0-.36-.36-.36zm-1.921 6.754q-.474 0-.474.359 0 .301.474.301.46 0 .46-.301 0-.36-.46-.36zm.359-.201q1.091 0 1.637.703.273.446.532 1.365-.015.215-.36.287-.344.072-.675.072-1.522-.56-2.355-1.94.057-.487 1.22-.487zm2.6 2.154q.272.201 1.156.733.883.531 2.757 2.204 1.875 1.674 2.837 1.968.962.295 2.262.352 1.3.057 1.96.302 0 .2-.416.316-3.605-.417-5.292-.776-1.688-.36-2.492-.61-.805-.252-2.054-.956-1.25-.703-1.997-1.364-.747-.66-.977-1.034-.23-.374.568-.395.797-.022 1.292-.23.496-.208.395-.51zm11.016 5.63l.115.115q0 .115-.144.158l-.273-.014q.302-.13.302-.259zm.187.173l.115.143-.216-.014q.086-.072.1-.13zm-15.182-7.397q.977 1.393 2.284 1.953-.167-.009-.313-.009-1.054 0-1.066.454 0 .719 2.449 2.47 2.449 1.753 5.766 2.27 1.437.187 1.61.56.028.273-1.365.345h-2.313q-.23-.503-.847-.92l.129.36q-2.298-1.321-4.029-2.923-1.73-1.601-1.745-2.78 0-.56-.56-1.407 0-.13-.776-.244v-.029l.776-.1zm11.26 7.57l3.98.703q-.417.172-.583.618-.165.445.036 1.077l-4.122-1.623q.058-.015.273-.122.215-.108.38-.295.166-.187.037-.359zm-6.247-.274q1.55 1.034 1.522 1.35-.23.747-1.12 1.896-.474 0-.898-.1-.228-.054-.475-.054-.212 0-.437.04 1.48-2.098 1.48-2.184 0-.56-.087-.948zm-3.649-8.316q-.76 0-1.142.208-.38.208-.409.553-1.135.158-1.135.23v.287q.03.072.948.345.489.646.489 1.178 0 1.005.732 1.982.733.977 3.146 3.203.215 0 .445 1.278l-1.35 2.068q-.172.115-.46.13-.474-.158-1.508-.158-.328.1-.582.1-.18 0-.323-.05-.279-.099-.746-.099-.11 0-.23.006-.489.23-.087.632l7.182.014-.23-.345q.445-.732 1.15-2.01h2.585l5.601 2.168.058-.2q-.604-.604-.503-1.365.215-.618 1.135-.819v-.201l-2.298-.417v-.014l2.154.144q0-.058-.366-.733-.366-.675-1.544-.675-1.925-.057-2.837-.187-.912-.129-3.483-2.484-2.571-2.356-3.677-2.615-.531-2.154-2.715-2.154zm18.964-3.046q-.303.227-.18.473.09.178.243.178.059 0 .127-.026.246-.095.218-.341-.028-.247-.407-.284zm6.464.019q-.303.227-.18.473.09.178.243.178.058 0 .127-.026.246-.095.227-.341-.019-.247-.417-.284zm6.388 0q-.303.227-.17.473.096.178.246.178.058 0 .123-.026.237-.095.218-.35-.018-.257-.417-.275zm-13.8.322l.058.265-.778.303.72-.568zm12.872 0l.038.265-.778.303.74-.568zm-6.388.019l.037.246-.777.322.74-.568zm6.444.379l.076.17-.834.095.758-.265zm-12.851 0l.056.151-.834.114.778-.265zm6.463.019l.076.151-.853.114.777-.265zm-5.07-1.19q.163 0 .398.043.37.066.521.862.114.626-.464 1.782-.578 1.157-.446 1.934.025.324.379.324.183 0 .455-.087.262-.085.578-.085.643 0 1.507.35 1.29.521 3.014 2h-4.72q-.568-.114-1.317-.54-.749-.427-.597-1.668.152-1.242.445-2.228.294-.985-.881-1.44l-.095-.493q.266-.607 1.062-.74.069-.013.161-.013zm6.515.01q.15 0 .356.042.36.076.512.872.114.626-.464 1.782-.579 1.157-.446 1.934.025.324.379.324.183 0 .455-.087.262-.085.579-.085.645 0 1.516.35 1.298.521 2.89 1.98l-4.568-.018v.019q-.606-.114-1.355-.53-.749-.418-.597-1.66.151-1.241.445-2.236.294-.995-.881-1.431l-.095-.493q.265-.607 1.08-.74.082-.024.194-.024zm6.34-.008q.167 0 .414.05.37.076.502.872.133.626-.455 1.782-.587 1.157-.455 1.934.025.311.378.311.184 0 .456-.084.256-.079.563-.079.65 0 1.532.354 1.298.521 2.853 1.962l-4.588.019q-.53-.095-1.118-.436-.929-.512-.777-1.763.151-1.251.445-2.237.294-.985-.881-1.421l-.076-.493q.265-.607 1.062-.758.063-.013.146-.013zm6.982 7.86q.72 0 .74 2.294.018 2.293-.74 2.293h-20.984q-.645 0-.635-2.284.01-2.284.635-2.303zm-19.698-8.28q-.168 0-.357.034-.834.152-1.194.816-.55.075-1.308 1.061 0 .358.345.358.075 0 .166-.017.342-.063.683-.063.17 0 .341.016.512.047.55.654-.398 1.327-.607 2.73 0 1.383.664 1.952h-.588q-1.365 0-1.384 3.033.02 3.033 1.384 3.033h21.022q1.478 0 1.478-3.033t-1.478-3.033h-.512v-.019q-.853-1.08-2.53-2.095-1.13-.682-2.297-.682-.567 0-1.144.161-.133-.72.426-1.839.56-1.118.427-1.8-.21-1.25-1.226-1.25-.172 0-.366.036-.834.152-1.194.797-.531.094-1.308 1.061 0 .377.357.377.074 0 .164-.017.347-.063.69-.063.172 0 .343.016.512.047.55.635-.417 1.327-.607 2.748v.626q-.512-.38-1.706-1.1-.709-.427-1.612-.427-.618 0-1.326.2-.133-.72.426-1.839.56-1.118.427-1.781-.211-1.268-1.23-1.268-.17 0-.362.035-.834.152-1.195.816-.55.075-1.307 1.061 0 .358.345.358.075 0 .166-.017.342-.063.687-.063.173 0 .346.016.522.047.54.635-.397 1.327-.606 2.748 0 .399.057.74-.493-.417-1.327-.93-1.139-.69-2.312-.69-.565 0-1.138.16-.133-.72.427-1.839.559-1.118.445-1.781-.227-1.268-1.235-1.268zm26.572 2.963h.004c.14 0 .267.054.353.17.184.248.025.57-.244.795-.166.139-.374.241-.552.241a.333.333 0 0 1-.28-.134c-.185-.248-.02-.662.25-.887a.753.753 0 0 1 .469-.186zM264.808.68c1.92.015 4.21.491 6.87 1.428-1.92.091-3.295.37-4.127.84-2.826 1.54-4.64 2.311-5.44 2.311-.816 0-1.225-.324-1.225-.974 0-.71.431-1.444 1.293-2.2l-.363-.294c-.167 0-.4.143-.703.43-.74.832-1.024 1.633-.85 2.404.174.77.767 1.156 1.78 1.156 1.027 0 2.138-.352 3.332-1.054a10.448 10.448 0 0 1 3.876-1.35c1.572.031 2.358.16 2.358.386l-.884.544.907.25c0 .136-1.032.502-3.095 1.1-2.063.596-3.706.895-4.93.895-.998 0-1.821-.129-2.471-.386-.417-.165-.805-.247-1.162-.247-.2 0-.391.026-.572.077a1.08 1.08 0 0 1-.278.046c-.282 0-.353-.208-.21-.624.181-.529.484-1.235.907-2.12.423-.884 1.031-1.541 1.825-1.972.793-.43 1.847-.646 3.162-.646zm-.022-.68c-1.799 0-3.148.393-4.047 1.179-.9.786-1.583 1.798-2.052 3.038-.468 1.239-.978 1.983-1.53 2.233-.164.074-.349.11-.555.11-.487 0-1.092-.206-1.814-.62.029-1.031-.404-1.547-1.297-1.547-.05 0-.101.002-.154.005-1.3.09-1.896.733-1.79 1.927v.612a9.343 9.343 0 0 0-1.588 3.276c-.302 1.171-.393 2.286-.272 3.344.03.317.155.529.375.634.054.027.103.04.145.04.126 0 .195-.119.206-.357-.121-2.146.695-4.285 2.448-6.415l1.156-.205c.978.421 1.87.632 2.678.632.09 0 .18-.003.27-.008.876-.053 1.775-.457 2.697-1.213 1.375.378 2.365.854 2.97 1.428.604.575 1.08 1.164 1.428 1.768-1.511 4.565-2.818 7.036-3.922 7.413l-1.45-.18c-.696.12-1.006.407-.93.86a.6.6 0 0 1 .386-.156c.06 0 .12.01.18.032.058.02.121.03.19.03.171 0 .38-.06.627-.177l.861.272 2.426-.16.088-.001c.288 0 .5.069.637.206a.554.554 0 0 0 .16-.363c-.137-.257-.56-.46-1.27-.612.136-.71.43-1.534.884-2.47.453-.938 1.186-2.547 2.199-4.83-.771-1.027-1.141-1.806-1.111-2.335.278-.054.557-.081.838-.081.42 0 .844.061 1.27.184.71.204 1.186.578 1.428 1.122.227.272.915 2.977 2.063 8.115-.226.4-.63.6-1.21.6-.077 0-.157-.003-.24-.01-.333 0-.666-.03-.998-.09-.333 0-.499.248-.499.747l.68-.136c.75.105 1.331.157 1.741.157.243 0 .425-.018.549-.055a3.17 3.17 0 0 1 .884-.147c.131.051.257.077.376.077.127 0 .247-.03.36-.088a.415.415 0 0 1 .19-.052c.135 0 .25.089.343.267.121-.499-.347-.824-1.405-.975-.076-.09-.378-1.401-.907-3.933-.529-2.531-.786-4.296-.77-5.294l-1.542-1.133c.8-.166 1.991-.525 3.57-1.077 1.58-.551 2.415-.963 2.506-1.235l-1.157-.182 1.02-.635c-.876-.468-1.98-.717-3.31-.748a8.554 8.554 0 0 1 3.446.204c-.06-.498-.34-.906-.838-1.224C270.06.59 267.52 0 264.786 0zm19.255.696q3.356.02 4.502.654H276.43V.696zM275.735 0v2.046h6.936q1.452.348 2.148 1.647.696 1.3 1.238 3.345.542 2.046 1.033 2.62.36.305.638.305.336 0 .549-.449.061-.798-.542-1.135-.604-.338-.543-.768-.102-1.698-.716-2.69-.614-.993-1.923-2.875h1.064q1.453.348 2.148 1.647.696 1.3 1.248 3.345.553 2.046 1.023 2.62.361.305.638.305.336 0 .55-.449.06-.798-.533-1.135-.593-.338-.552-.768-.103-1.698-.716-2.69-.614-.993-1.924-2.875h1.167q1.452.348 2.148 1.647.696 1.3 1.238 3.345.542 2.046 1.033 2.62.36.305.638.305.336 0 .549-.449.061-.798-.543-1.135-.603-.338-.542-.768-.102-1.698-.716-2.69-.614-.993-1.923-2.875-.512-.86-1.535-1.37Q287.07 0 284.041 0zm4.277 13.14q-1.949.045-3.225 1.411-1.411 1.545-1.545 3.09 0 .359.403.359h18.722q.403 0 .403-.425 0-.426-.403-.426h-18.118q1.12-2.866 3.36-3.18h14.758q.403 0 .403-.426 0-.403-.403-.403zM301.457.77q3.322.154 3.85 1.122l-1.914 11.993h-1.342q-.572-1.672-.121-2.42.45-.749.055-1.442-.396-.693 0-1.474t.01-1.441q-.384-.66 0-1.332.386-.67.045-1.309-.341-.638 0-.913.34-.275.33-.638-.011-.363-.121-.561-.506-.969-1.585-.969-.902 0-1.452.638l.154.287q.64.4 1.099.4.045 0 .09-.004.436-.126.664-.126.449 0 .084.489-.55.737-.187 1.397.363.66-.044 1.32-.408.66 0 1.32.407.66.01 1.442-.396.781.012 1.474.407.693 0 1.43-.408.738.319 2.432h-1.87l-1.937-11.993q.528-.968 3.85-1.122zm1.782 13.951q-.308 2.355-1.782 2.53-1.475-.175-1.783-2.53zM301.457 0q-2.245 0-3.466.605t-1.221 1.067q0 .33 1.089 7.097 1.09 6.766 1.397 7.537.506 1.694 2.2 1.694 1.695 0 2.201-1.694.308-.77 1.397-7.537 1.09-6.767 1.09-7.097 0-.462-1.222-1.067Q303.702 0 301.457 0zm11.373.77q3.323.154 3.852 1.122l-1.915 11.993h-1.342q-.572-1.672-.121-2.42.45-.749.055-1.442-.396-.693 0-1.474t.01-1.441q-.384-.66 0-1.332.386-.67.045-1.309-.341-.638 0-.913.34-.275.33-.638-.011-.363-.121-.561-.506-.969-1.584-.969-.903 0-1.453.638l.154.287q.64.4 1.099.4.046 0 .09-.004.437-.126.664-.126.449 0 .084.489-.55.737-.187 1.397.363.66-.044 1.32t0 1.32q.407.66.01 1.442-.395.781.012 1.474.407.693 0 1.43-.407.738.319 2.432h-1.87L308.98 1.892q.528-.968 3.85-1.122zm1.783 13.951q-.308 2.355-1.782 2.53-1.475-.175-1.783-2.53zM312.831 0q-2.245 0-3.466.605t-1.221 1.067q0 .33 1.089 7.097 1.09 6.766 1.397 7.537.506 1.694 2.2 1.694 1.695 0 2.201-1.694.308-.77 1.398-7.537 1.089-6.767 1.089-7.097 0-.462-1.221-1.067Q315.075 0 312.83 0zm11.276.601c1.074 0 2.418.552 3.068 1.202.57.57.644 1.324.665 2.025h-7.435c.02-.7.095-1.455.664-2.025.65-.65 1.964-1.202 3.038-1.202zm0-.601c-1.275 0-2.646.589-3.449 1.392-.824.824-.917 1.91-.917 2.72v.317h8.732v-.316c0-.812-.062-1.897-.886-2.72C326.783.588 325.38 0 324.107 0zm.02 9.696q.812 0 1.655.354l-1.603 1.624-1.644-1.624q.78-.354 1.592-.354zm-3.506 2.123l1.623 1.623-1.623 1.624q-.708-1.686 0-3.247zm7.013.083q.708 1.686 0 3.247l-1.623-1.623 1.623-1.624zm-1.27-1.373q.5.229.791.79l-2.206 2.227 2.186 2.186q-.271.54-.812.79l-2.185-2.185-2.144 2.144q-.54-.333-.79-.812l2.143-2.123-2.248-2.247q.23-.541.812-.77l2.227 2.227 2.227-2.227zm-2.185 4.828l1.624 1.623q-.791.354-1.603.354-.811 0-1.644-.354l1.623-1.623zm-.041-6.347q-2.144 0-3.382 1.394t-1.238 3.06q0 1.872 1.446 3.194 1.446 1.321 3.132 1.342 2.04-.02 3.32-1.405 1.28-1.384 1.28-3.132l-.021.042q.02-1.582-1.26-3.039-1.28-1.456-3.277-1.456z"/></svg>