<svg xmlns="http://www.w3.org/2000/svg" width="40.607" height="18"><path d="M17.856 2.812c.17.242.212.541.226.83-.006.135.004.283-.052.41-.16-.158-.145-.525-.149-.73 0-.203-.007-.369-.025-.51zm-9.098-.228l8.303.01c-1.213 1.149-2.43 1.71-4.263 1.71-1.84 0-2.954-.547-4.04-1.72zm-.373-.334a.167.167 0 0 0-.126.276c1.206 1.407 2.486 2.113 4.54 2.113 1.998 0 3.364-.678 4.68-1.987.046.126.068.323.068.67.008.385.005 1.024.511 1.069.356-.073.356-.454.358-.75a1.87 1.87 0 0 0-.237-.944c-.149-.25-.369-.438-.635-.438L8.386 2.25zm.988 4.124q1.12.163 1.17 1.024v6.21q-.523-.625-1.879-.878l.709-6.356zm-.315-.624l-.838 7.424q1.867.214 2.323 1.333v1.243h.557V7.398q0-1.395-2.042-1.648zm7.632.624q1.119.163 1.17 1.024v6.21q-.524-.625-1.88-.878l.71-6.356zm-.315-.624l-.839 7.424q1.868.214 2.323 1.333v1.243h.557V7.398q0-1.395-2.041-1.648zm8.834-3.5c-.093 0-.186.011-.28.034-.186.046-.39.15-.608.313h-4.405v.974h4.405c.219.162.422.266.609.312a1.169 1.169 0 0 0 .556 0c.183-.046.367-.15.55-.312h.17c.176.162.358.266.545.312a1.174 1.174 0 0 0 .56 0 1.66 1.66 0 0 0 .6-.312h4.446v-.974H27.91a1.66 1.66 0 0 0-.598-.313 1.174 1.174 0 0 0-.561 0c-.187.046-.369.15-.546.313h-.169a1.332 1.332 0 0 0-.55-.313 1.137 1.137 0 0 0-.277-.034zm-4.243 3.257c-.233 0-.37.092-.41.277 0 .113.092.17.277.17.258 0 .386-.081.386-.242 0-.12-.084-.19-.253-.205zm.205-.085c.402 0 .738.201 1.008.604.226.039.174.34-.03.34a.334.334 0 0 1-.193-.075h-.785c-.595 0-.893-.14-.893-.422-.008-.29.29-.439.893-.447zm-.241-.35c-.66.073-.998.342-1.014.809 0 .25.107.442.32.579.19.122.64.183 1.35.183.083 0 .17 0 .26-.002.186.29.188.732.007 1.327-.181.596-.272 1.312-.272 2.148 0 .764.246 1.42.737 1.967.49.547 1.03.82 1.616.82 1.432-.04 2-.866 1.525-2.648-.472-1.772-.368-2.673.718-2.673h.018c1.033.01 1.168.887.61 2.66-.559 1.771.066 2.674 1.242 2.674h.007c1.147-.004 1.685-.765 1.226-2.317-.458-1.553-.381-2.329.507-2.329s.983.776.561 2.329c-.422 1.552-.203 2.329.658 2.329v-.012c.233 0 .683-.181 1.351-.543a.557.557 0 0 0-.52-.308.897.897 0 0 0-.101.006l-.73.084c-.306 0-.217-.754.15-2.292.338-1.414-.23-2.293-1.363-2.293-1.11 0-1.752.768-1.31 2.305.443 1.536.304 2.305-.416 2.305s-.933-.883-.406-2.65c.527-1.765-.101-2.648-1.486-2.648-1.247 0-2.036 1.042-1.633 2.577.454 1.728.44 2.576-.608 2.576-.386 0-.722-.17-1.007-.507-.286-.338-.575-.808-.575-1.412 0-1.078.199-1.97.303-2.679.105-.708.037-1.279-.205-1.713-.241-.435-.748-.652-1.52-.652zm4.279 9.01c-.093 0-.186.012-.28.035a1.76 1.76 0 0 0-.608.312h-4.405v.974h4.405c.219.163.422.267.609.313a1.169 1.169 0 0 0 .556 0c.183-.046.367-.15.55-.313h.17c.176.163.358.267.545.313a1.174 1.174 0 0 0 .56 0 1.66 1.66 0 0 0 .6-.313h4.446v-.974H27.91a1.66 1.66 0 0 0-.598-.312 1.174 1.174 0 0 0-.561 0c-.187.046-.369.15-.546.312h-.169a1.332 1.332 0 0 0-.55-.312 1.137 1.137 0 0 0-.277-.035z"/><path d="M8.22.375c-9.625 0-9.625 17.25 0 17.25m0-17.25h24.137M8.22 17.625h24.137M40.045.375v17.25M32.357.375c9.625 0 9.625 17.25 0 17.25" fill="none" stroke="#000"/></svg>