<svg xmlns="http://www.w3.org/2000/svg" width="100.719" height="18"><path d="M9.999 2.25L8.22 4.353h.867L10 3.266l.92 1.087.894-1.087.92 1.087.911-1.087.92 1.087.911-1.087.92 1.087.894-1.087.92 1.087.92-1.087.894 1.087.92-1.087.912 1.087h.867l-1.78-2.103-.92 1.016-.894-1.016-.92 1.016-.92-1.016-.894 1.016-.92-1.016-.91 1.016-.921-1.016-.911 1.016-.92-1.016-.894 1.016-.92-1.016zm2.991 3.975q.215 0 .298.216-.106-.042-.182-.042-.16 0-.183.191-.032.34-.183.34h-.008q-.157-.008-.223-.14 0-.1.248-.332.116-.233.232-.233zm.237.297q.06 0 .06.085-.03.334-.255.334-.02 0-.043-.003v-.033l.067-.149q.015-.233.133-.233h.016l.022-.001zm-1.477.188q-.15 0-.278.087-.157.108-.091.374h.066q.017-.166.1-.274.083-.108.273-.108.191 0 .191-.05l-.19-.024q-.036-.005-.071-.005zm-.004.146q-.2 0-.2.281v.1q.017.003.031.003.056 0 .07-.053.281-.066.414-.232-.116-.1-.315-.1zm-.299.43q-.083.117-.016.29.066.175.829.241l.116-.05q-.962-.066-.862-.447l-.067-.033zm1.078-.795q-.215.149-.166.381.033.1.2.166.149.066.115.348.034.614-.514.945-.083-.199-.323-.215l-.045-.002q-.205 0-.295.143-.07.11-.165.11-.04 0-.084-.02-.027.008-.05.008-.15 0-.165-.272.166-.017.232-.067t.249-.116q-.081-.092-.166-.092-.037 0-.075.018-.124.058-.257.09-.282-.049-.215-.281-.166-.183-.116-.315.364-.232.605-.44.24-.207.539-.248.298-.042.696-.141zm.978-.15q.432.034.912.49.481.456.564.937-.895 1.31-2.537 2.089-.066-.697.232-1.393.548-.497.481-.837-.066-.34.216-.456.63-.116.132-.83zm6.084 2.801l.052.002q.746.133 1.36.671.613.54.878 1.335.05.083-.364.083-1.742-.73-2.206-1.476-.205-.615.28-.615zm-4.425-.827q1.033.99 2.634.99.275 0 .566-.028.03-.01.057-.01.241 0 .241.805-1.641.73-2.586.796-.28.02-.568.02-.685 0-1.414-.11-.157-.025-.292-.025-.752 0-.794.746-.696-.83-.497-1.128 1.641-.73 2.653-2.056zM13.142 5.9l-.078.001q-.754.025-.804.307-.299.116-.556.19-.257.075-.48.274-.224.2-.498.357-.274.157-.323.273-.083.183.149.398 0 .183.166.299.033 0 .074.282.042.281.307.414.332-.05.431-.19.085-.12.217-.12.024 0 .049.003.165.025.248.274-.066.249-.19.879-.125.63 0 .928.124.299-.44.672-.43.285-1.178.285-.233 0-.497-.028-.575-.16-.925-.16-.376 0-.492.185-.224.356.041.622h.647q1.488.053 2.52.053 2.488 0 2.33-.31-.18-.353.293-.353.116 0 .27.021.245.033.536.033.65 0 1.538-.166 1.285-.24 1.674-.447.25-.133.54-.133.164 0 .34.041.488.117.588.415-.216.398-.753.398-.245 0-.557-.083-.522-.14-.857-.14-.303 0-.453.115-.315.24-.033.572h5.389q.547-.497.232-1.152-.315-.655-1.061-1.244-.746-.588-1.642-1.07.234-.204.452-.204.276 0 .526.329.263.345.446.345.129 0 .218-.17-.591-1.058-1.233-1.058-.043 0-.086.004-.688.075-1.251.771-.683.172-1.273.172-1.285 0-2.127-.818-.464-1.178-1.11-1.634-.614-.432-1.324-.432zm-3.143 7.747L8.22 15.75h.867L10 14.663l.92 1.087.894-1.087.92 1.087.911-1.087.92 1.087.911-1.087.92 1.087.894-1.087.92 1.087.92-1.087.894 1.087.92-1.087.912 1.087h.867l-1.779-2.103-.92 1.016-.894-1.016-.92 1.016-.92-1.016-.894 1.016-.92-1.016-.91 1.016-.921-1.016-.911 1.016-.92-1.016-.894 1.016-.92-1.016zM35.178 2.89c.194.275.24.615.257.942-.007.155.005.322-.06.467-.18-.18-.165-.597-.169-.83 0-.23-.007-.42-.028-.58zm-10.344-.26l9.44.01c-1.38 1.307-2.762 1.946-4.846 1.946-2.093 0-3.36-.623-4.594-1.956zm-.424-.38a.19.19 0 0 0-.144.313c1.371 1.6 2.827 2.403 5.162 2.403 2.272 0 3.825-.77 5.322-2.259.051.143.077.367.077.761.01.439.006 1.165.581 1.216.405-.083.404-.516.407-.852 0-.414-.101-.789-.27-1.074-.17-.285-.42-.497-.722-.497L24.41 2.25zm5.609 4.61q2.041 0 4.33.986-2.289.96-4.33.96-2.029 0-4.33-.96 2.301-.987 4.33-.987zm0-.63q-2.522 0-5.797 1.602 3.275 1.59 5.797 1.59 2.52 0 5.796-1.59-3.261-1.603-5.796-1.603zm-3.987 4.455c-.07 0-.14.007-.21.013-1.017.109-1.74 1.138-1.58 2.136.07.742.53 1.157 1.036 1.567 1.503.92 1.08.582 2.596 1.349l.243-.454c-1.803-.844-2.02-.978-2.583-1.35-.46-.37-.825-.78-.793-1.4-.013-.428.243-.87.53-1.08a1.38 1.38 0 0 1 .813-.276c.217 0 .422.052.6.18.455.223.704.965.372 1.432a.882.882 0 0 1-.704.377.65.65 0 0 1-.384-.121c-.23-.128-.402-.576-.166-.825-.109-.115-.262-.256-.377-.256-.077 0-.134.058-.173.192-.256.614.154 1.31.768 1.477.108.032.217.051.326.051.703 0 1.355-.588 1.355-1.317.064-.85-.613-1.63-1.464-1.682a2.067 2.067 0 0 0-.205-.013zm7.025 2.647c.679 0 1.528.348 1.939.76.36.359.406.835.42 1.278h-4.697c.013-.443.06-.92.42-1.279.41-.41 1.24-.76 1.918-.76zm0-.38c-.805 0-1.67.372-2.178.88-.52.52-.58 1.205-.58 1.718v.2h5.516v-.2c0-.513-.04-1.198-.56-1.718-.507-.508-1.393-.88-2.198-.88zM43.246 2.25a1.31 1.31 0 0 0-.313.039c-.21.051-.437.168-.683.35h-4.935V3.73h4.935c.246.182.473.299.683.35a1.31 1.31 0 0 0 .623 0 1.49 1.49 0 0 0 .616-.35h.19c.198.182.402.299.611.35a1.316 1.316 0 0 0 .63 0c.209-.051.432-.168.67-.35h4.982V2.64h-4.983c-.237-.182-.46-.299-.67-.35a1.316 1.316 0 0 0-.629 0 1.39 1.39 0 0 0-.61.35h-.19a1.492 1.492 0 0 0-.617-.35 1.274 1.274 0 0 0-.31-.039zm7.244 5.886c.233.33.29.74.31 1.133-.01.186.004.388-.073.562-.218-.217-.198-.718-.203-.999 0-.276-.01-.503-.035-.696zm-12.44-.312l11.352.012c-1.658 1.572-3.321 2.34-5.827 2.34-2.517 0-4.04-.749-5.525-2.352zm-.509-.457a.228.228 0 0 0-.173.377c1.649 1.925 3.4 2.889 6.207 2.889 2.733 0 4.6-.926 6.4-2.716.062.171.092.441.092.915.012.527.008 1.4.7 1.462.486-.1.485-.62.488-1.025 0-.497-.121-.948-.324-1.291-.204-.343-.504-.598-.868-.598L37.54 7.367zm5.705 6.514a1.31 1.31 0 0 0-.313.039c-.21.051-.437.168-.683.35h-4.935v1.091h4.935c.246.182.473.299.683.35a1.31 1.31 0 0 0 .623 0 1.49 1.49 0 0 0 .616-.35h.19c.198.182.402.299.611.35a1.316 1.316 0 0 0 .63 0c.209-.051.432-.168.67-.35h4.982V14.27h-4.983c-.237-.182-.46-.299-.67-.35a1.316 1.316 0 0 0-.629 0 1.39 1.39 0 0 0-.61.35h-.19a1.492 1.492 0 0 0-.617-.35 1.274 1.274 0 0 0-.31-.039zM54.312 3.093q1.511.22 1.58 1.382v8.382q-.707-.843-2.537-1.184l.957-8.58zm-.425-.843l-1.132 10.022q2.521.289 3.136 1.8v1.678h.752V4.475q0-1.883-2.756-2.225zm5.813.843q1.51.22 1.579 1.382v8.382q-.706-.843-2.536-1.184l.957-8.58zm-.426-.843l-1.131 10.022q2.52.289 3.136 1.8v1.678h.751V4.475q0-1.883-2.756-2.225zm12.132.856q2.774 0 5.883 1.34-3.11 1.304-5.883 1.304-2.756 0-5.883-1.303 3.127-1.34 5.883-1.34zm0-.856q-3.426 0-7.876 2.178 4.45 2.16 7.876 2.16 3.425 0 7.875-2.16Q74.85 2.25 71.406 2.25zm-1.175 5.77a1.48 1.48 0 0 0-.353.043c-.237.058-.494.19-.771.396H63.53v1.233h5.577c.277.205.534.337.77.395a1.48 1.48 0 0 0 .704 0c.233-.058.465-.19.697-.395h.215c.223.205.453.337.69.395a1.486 1.486 0 0 0 .71 0c.237-.058.49-.19.758-.395h5.63V8.459h-5.63c-.268-.206-.52-.338-.757-.396a1.486 1.486 0 0 0-.71 0c-.238.058-.468.19-.691.396h-.215c-.232-.206-.464-.338-.697-.396a1.439 1.439 0 0 0-.35-.043zm-3.817 3.846v.294h-1.552v-.294zm-.78.578q.973 0 1.345.496.371.496.371.89-.009.616-.514 1.075-.505.46-1.203.46-.707 0-1.212-.46-.505-.459-.505-1.065 0-.404.303-.9t1.414-.496zm-1.213-.881v.688q-.33.193-.606.625-.275.431-.285.955 0 .615.51 1.244.51.63 1.593.675 1.075-.046 1.589-.675t.514-1.235q-.009-.533-.285-.969-.275-.436-.615-.629v-.68zm6.639 2.187c.561 0 1.263.289 1.603.629.297.297.336.69.347 1.057h-3.882c.01-.366.05-.76.346-1.057.34-.34 1.026-.628 1.587-.628zm0-.313c-.665 0-1.38.307-1.8.727-.43.43-.48.997-.48 1.42v.166h4.56v-.165c0-.424-.032-.99-.462-1.421-.42-.42-1.152-.727-1.817-.727zm5.625-1.33l-.01.006 1.892 3.626h.714l-1.893-3.632zm-1.586.006l-.714.005 1.893 3.632.713-.005-1.892-3.632zM82.9 4.536l-.754 3.395-.714-.332 1.467-3.063zm9.129-2.286c-.015 0-.03 0-.044.002-.106.01-.23.052-.37.115-.774.98-1.35 2.194-1.723 3.637-.429.072-1.441.515-3.024 1.327a.705.705 0 0 1-.248.039 2.25 2.25 0 0 1-.658-.128 1.002 1.002 0 0 0-.308-.042 2.54 2.54 0 0 0-.267.016l-.331.102-2.144-3.496-2.131 4.275.293.102.14-.294.128.051-.14.358.204.076.14-.332.154.077-.128.345.23.089.114-.345.18.09-.077.344.242.115.855-3.93 1.595 2.577-.37.102-.383.115c.01.106.03.183.077.243s.131.094.242.102c.111.008.163.034.179.09.07.239.156.451.255.612.079.127.17.191.274.191a.295.295 0 0 0 .083-.013c.15-.046.301-.086.447-.14l.15.225c.016.023.043.033.075.033.108 0 .271-.119.219-.2l-.138-.211c.302-.13.59-.292.88-.447.989-.144 1.857-.366 2.591-.663.734-.297 1.24-.615 1.519-.957.079-.045.422-.632 1.02-1.749.6-1.116.776-1.881.537-2.31a.36.36 0 0 0-.115-.127.407.407 0 0 0-.224-.066zm-5.404 8.371c.75 0 1.417.346 1.852.888h-3.703a2.368 2.368 0 0 1 1.85-.888zm2.102 1.27c.143.272.235.575.262.897h-4.728a2.36 2.36 0 0 1 .262-.897zm.265 1.28a2.36 2.36 0 0 1-.249.896h-4.236a2.361 2.361 0 0 1-.249-.897zM88.5 14.45a2.368 2.368 0 0 1-1.875.918 2.37 2.37 0 0 1-1.875-.918zm-1.875-4.211a2.76 2.76 0 0 0-2.755 2.756 2.759 2.759 0 0 0 2.755 2.755 2.76 2.76 0 0 0 2.756-2.755 2.76 2.76 0 0 0-2.756-2.756z"/><path d="M8.22.375c-9.625 0-9.625 17.25 0 17.25m0-17.25h84.25M8.22 17.625h84.25m7.687-17.25v17.25M92.47.375c9.624 0 9.624 17.25 0 17.25" fill="none" stroke="#000"/></svg>