<svg xmlns="http://www.w3.org/2000/svg" width="163.705" height="18"><path d="M11.77 9.372q.12 0 .249.055.289.123.289 1.946v1.745H9.034q1.264-1.735 1.735-2.623.47-.887.715-1.039.136-.084.285-.084zM11.63 9h-.053q-.465.01-1.048 1.138-.584 1.127-2.309 3.362h4.47l-.01-2.51q-.049-1.676-.343-1.837Q12.06 9 11.63 9z"/><path d="M14.171 8.519c1.02 1.145 1.864 2.453 2.617 3.781.158.195-.02.374-.15.559-.496-1.575-1.638-2.79-2.467-4.34zm-.987-5.783c.085.396-.071.854-.372.989l.096.205c.376-.178.737-.713.79-1.193.514.03.654.417.734.865.097.307-.001 1.05.387 1.179 1.147.444 2.024.957 2.81 1.734 1.359 1.698 2.778 3.342 4.135 5.042.528.662 1.01 1.268 1.402 1.725-2.062-1.542-4.366-2.72-6.626-3.946-1.202-.652-2.348-1.186-2.348-2.623 0-.773 1.424-1.42 1.366-1.521-.006-.01-.022-.013-.048-.013-.292 0-1.789.555-1.789 1.725 0 .324.087.625.238.905h-.007c-1.641-.87-1.38-2.63-1.317-4.18-.682-.038-1.244-.41-1.892-.565.503-.065 1.003-.15 1.507-.201a.4.4 0 0 0-.239.15c-.008.166.18.239.362.239.178 0 .351-.07.334-.19a.457.457 0 0 0-.39-.206c.25-.036.584-.09.867-.12zm2.867 9.977c.147.357.223.736.307 1.11.239-.193.47-.392.667-.628-.128.694-.367 1.395-.945 1.395-.35 0-.512-.237-.288-.954.106-.338.19-.66.26-.923zm-.628-3.438c2.34 1.247 4.658 2.506 6.871 3.969.522.422.986.893 1.3 1.334-.208.324-.605.435-.972.46-1.874-.066-2.607-1.872-3.597-3.162l-.538-.654.093.838c.006.15.16.864-.07.864a.17.17 0 0 1-.067-.016l-.947-1.134c-.101.067-.197.143-.301.205-.47-.95-1.157-1.836-1.772-2.704zm-2.02-7.025c-.492 0-.996.088-1.474.133-.57.278-1.147.066-1.745.283-.431.194-.552.587-.731.98.254-.085.486-.12.704-.12.696 0 1.257.351 1.993.538-.001.37-.06.788-.087 1.21-.114 1.145.49 2.15 1.361 2.865.625 1.39 1.489 2.457 2.12 3.542-.076.488-.53 2.327-.753 2.988a8.341 8.341 0 0 1-1.365.115 7.003 7.003 0 0 1-.593-.024c-.355 0-.745.606-1.127.93l7.772.06c-.199-.7-1.58-1.072-2.07-1.072a.685.685 0 0 0-.076.003c.174-.495.39-.96.451-1.653.217.195.46.404.764.426.371-.028.522-.281.569-.612.84 1.39 1.781 2.526 3.506 2.693.596-.029 1.339-.29 1.5-.923.79-.044.21-.815-.083-1.116-2.151-2.33-3.927-4.988-6.053-7.334-.819-.808-1.743-1.354-2.888-1.807-.086-.21-.113-.507-.169-.835-.06-.357-.251-.942-.6-1.124a2.667 2.667 0 0 0-.926-.146zm14.174.843q1.51.22 1.58 1.382v8.382q-.707-.843-2.537-1.184l.957-8.58zm-.425-.843L26.02 12.272q2.521.289 3.136 1.8v1.678h.752V4.475q0-1.883-2.756-2.225zm5.812.843q1.511.22 1.58 1.382v8.382q-.706-.843-2.536-1.184l.956-8.58zm-.425-.843l-1.131 10.022q2.52.289 3.136 1.8v1.678h.751V4.475q0-1.883-2.756-2.225zm5.565 0c-.697 0-1.309.513-1.309 1.171V15.75h.852V3.421c0-.322.284-.427.463-.427.187 0 .475.131.475.527v8.103h.852V3.521c0-.66-.653-1.271-1.333-1.271zm4.984 7.062q.655 0 1.195.717.717 1.122.738 2.276-.312.842-1.091.914-.967-.083-.967-1.122l.468-1.476q-.066-.546-.516-.546-.046 0-.097.006-.187 0-.499.343h-1.091q.353-1.06 1.86-1.112zM43.101 9h-.013q-.997.042-1.538.42-.54.38-.613 1.004v.27h1.548l.385-.343q.25 0 .25.385-.385.945-.468 1.434.114 1.33 1.257 1.33.25 0 .722-.182.473-.182.712-.982 0-.51-.166-1.112Q44.422 9 43.101 9z"/><path d="M46.825 8.519c1.02 1.145 1.864 2.453 2.616 3.781.158.195-.02.374-.15.559-.496-1.575-1.637-2.79-2.466-4.34zm-.987-5.783c.085.396-.072.854-.373.989l.096.205c.376-.178.737-.713.791-1.193.513.03.653.417.734.865.096.307-.002 1.05.387 1.179 1.147.444 2.023.957 2.81 1.734 1.358 1.698 2.777 3.342 4.135 5.042.527.662 1.01 1.268 1.402 1.725-2.062-1.542-4.367-2.72-6.627-3.946-1.201-.652-2.348-1.186-2.348-2.623 0-.773 1.425-1.42 1.366-1.521-.005-.01-.022-.013-.048-.013-.292 0-1.788.555-1.788 1.725 0 .324.086.625.237.905h-.007c-1.641-.87-1.38-2.63-1.317-4.18-.682-.038-1.244-.41-1.892-.565.503-.065 1.004-.15 1.507-.201a.4.4 0 0 0-.238.15c-.008.166.179.239.361.239.178 0 .351-.07.335-.19a.457.457 0 0 0-.39-.206c.25-.036.583-.09.867-.12zm2.867 9.977c.147.357.223.736.306 1.11.24-.193.47-.392.667-.628-.128.694-.366 1.395-.945 1.395-.35 0-.512-.237-.287-.954.105-.338.19-.66.259-.923zm-.629-3.438c2.34 1.247 4.658 2.506 6.872 3.969.521.422.986.893 1.3 1.334-.208.324-.605.435-.973.46-1.873-.066-2.607-1.872-3.596-3.162l-.539-.654.093.838c.006.15.161.864-.07.864a.17.17 0 0 1-.067-.016l-.947-1.134c-.101.067-.196.143-.3.205-.47-.95-1.158-1.836-1.773-2.704zm-2.02-7.025c-.492 0-.996.088-1.474.133-.57.278-1.147.066-1.744.283-.432.194-.553.587-.732.98a2.2 2.2 0 0 1 .704-.12c.697 0 1.257.351 1.993.538 0 .37-.059.788-.086 1.21-.114 1.145.489 2.15 1.36 2.865.625 1.39 1.489 2.457 2.12 3.542-.075.488-.529 2.327-.753 2.988a8.341 8.341 0 0 1-1.365.115 7.003 7.003 0 0 1-.593-.024c-.354 0-.744.606-1.126.93l7.771.06c-.198-.7-1.58-1.072-2.07-1.072a.685.685 0 0 0-.075.003c.173-.495.389-.96.45-1.653.217.195.46.404.764.426.371-.028.522-.281.57-.612.84 1.39 1.78 2.526 3.505 2.693.596-.029 1.34-.29 1.5-.923.79-.044.21-.815-.083-1.116-2.151-2.33-3.927-4.988-6.053-7.334-.819-.808-1.743-1.354-2.888-1.807-.085-.21-.113-.507-.169-.835-.06-.357-.25-.942-.6-1.124a2.667 2.667 0 0 0-.926-.146zm14.174.843q1.511.22 1.58 1.382v8.382q-.707-.843-2.537-1.184l.957-8.58zm-.425-.843l-1.131 10.022q2.52.289 3.135 1.8v1.678h.752V4.475q0-1.883-2.756-2.225zm5.813.843q1.51.22 1.579 1.382v8.382q-.706-.843-2.536-1.184l.957-8.58zm-.426-.843l-1.13 10.022q2.52.289 3.135 1.8v1.678h.752V4.475q0-1.883-2.757-2.225zm5.566 0c-.698 0-1.31.513-1.31 1.171V15.75h.853V3.421c0-.322.284-.427.462-.427.187 0 .475.131.475.527v8.103h.852V3.521c0-.66-.653-1.271-1.332-1.271zm8.571.507q1.065 0 1.943 1.166 1.166 1.825 1.2 3.701-.507 1.369-1.774 1.487-1.572-.135-1.572-1.825l.76-2.4q-.107-.888-.838-.888-.076 0-.158.01-.305 0-.812.557h-1.774q.575-1.723 3.025-1.808zm.02-.507h-.02q-1.622.068-2.501.685-.879.616-.997 1.63v.44h2.518l.625-.558q.406 0 .406.625-.626 1.538-.76 2.332.185 2.164 2.044 2.164.406 0 1.175-.296.768-.296 1.157-1.597 0-.828-.27-1.808-1.228-3.617-3.377-3.617zm-1.929 8.783q.174 0 .24.173-.085-.034-.146-.034-.129 0-.147.154-.026.273-.147.273h-.006q-.126-.007-.18-.113 0-.08.2-.267.093-.186.187-.186zm.191.238q.05 0 .05.068-.025.269-.206.269-.017 0-.034-.003v-.026l.053-.12q.012-.187.107-.187h.013l.017-.001zm-1.186.151q-.12 0-.223.07-.126.087-.073.3h.053q.013-.133.08-.22.067-.086.22-.086t.153-.04l-.153-.02q-.029-.004-.057-.004zm-.003.117q-.16 0-.16.226v.08q.013.003.024.003.045 0 .056-.043.226-.053.333-.186-.093-.08-.253-.08zm-.24.346q-.067.093-.013.233.053.14.666.193l.093-.04q-.773-.053-.693-.36l-.053-.026zm.866-.64q-.173.12-.134.307.027.08.16.133.12.054.094.28.026.493-.413.76-.067-.16-.26-.174l-.036-.001q-.165 0-.237.114-.056.09-.132.09-.032 0-.068-.017-.022.006-.04.006-.121 0-.133-.219.133-.013.187-.053.053-.04.2-.093-.066-.074-.134-.074-.03 0-.06.014-.1.047-.206.073-.227-.04-.173-.226-.133-.147-.094-.253.293-.187.487-.353.193-.167.432-.2.24-.033.56-.113zm.785-.119q.347.027.733.393t.453.752q-.72 1.052-2.038 1.678-.053-.56.187-1.118.439-.4.386-.673-.054-.273.173-.366.506-.093.106-.666zm4.886 2.25h.042q.599.107 1.091.54.493.433.706 1.072.04.067-.293.067-1.398-.586-1.77-1.186-.165-.494.224-.494zm-3.554-.665q.83.796 2.116.796.22 0 .454-.024.024-.008.046-.008.194 0 .194.647-1.319.586-2.078.64-.224.015-.456.015-.55 0-1.135-.089-.126-.019-.235-.019-.603 0-.637.599-.56-.666-.4-.906 1.319-.586 2.131-1.651zm-1.622-1.939l-.063.001q-.605.02-.645.247-.24.093-.447.153-.206.06-.386.22-.18.16-.4.286-.219.126-.259.22-.066.146.12.32 0 .146.133.239.027 0 .06.226.033.227.246.333.267-.04.347-.153.068-.096.174-.096.019 0 .039.003.133.02.2.22-.054.2-.154.705-.1.506 0 .746t-.353.54q-.345.228-.946.228-.187 0-.399-.022-.462-.129-.743-.129-.302 0-.395.149-.18.286.033.499h.52q1.195.043 2.024.043 1.998 0 1.87-.25-.144-.283.236-.283.093 0 .217.017.196.027.43.027.522 0 1.235-.133 1.032-.193 1.345-.36.2-.107.434-.107.13 0 .272.034.393.093.473.333-.174.32-.605.32-.197 0-.447-.067-.42-.112-.689-.112-.243 0-.364.092-.253.193-.026.46h4.328q.44-.4.186-.926-.253-.526-.852-.999-.6-.473-1.318-.859.187-.164.362-.164.222 0 .423.264.211.277.358.277.103 0 .175-.137-.475-.85-.99-.85-.034 0-.069.004-.552.06-1.005.62-.548.138-1.022.138-1.032 0-1.708-.658-.373-.945-.892-1.312-.493-.347-1.063-.347zM93.756 2.25a1.55 1.55 0 0 0-.37.046c-.248.06-.517.199-.808.414h-5.841v1.292h5.841c.29.215.56.353.808.414a1.55 1.55 0 0 0 .737 0c.243-.06.487-.199.73-.414h.225c.234.215.475.353.723.414a1.557 1.557 0 0 0 .744 0c.248-.06.513-.199.794-.414h5.898V2.71h-5.898c-.281-.215-.546-.354-.794-.414a1.557 1.557 0 0 0-.744 0c-.248.06-.49.199-.723.414h-.225c-.243-.215-.487-.354-.73-.414a1.507 1.507 0 0 0-.367-.046zm-3.981 7.585q.925 0 1.688 1.013 1.013 1.585 1.042 3.214-.44 1.189-1.541 1.292-1.365-.118-1.365-1.585l.66-2.085q-.093-.771-.728-.771-.066 0-.138.008-.264 0-.704.484h-1.541q.499-1.497 2.627-1.57zm.017-.44h-.017q-1.41.058-2.172.594-.764.536-.866 1.416v.382h2.187l.543-.484q.352 0 .352.543-.543 1.335-.66 2.025.16 1.879 1.775 1.879.353 0 1.02-.257.668-.257 1.006-1.387 0-.72-.235-1.57-1.066-3.142-2.933-3.142zm8.829 4.315q1.626 0 3.448.785-1.822.764-3.448.764-1.614 0-3.447-.764 1.833-.785 3.447-.785zm0-.502q-2.007 0-4.615 1.276 2.608 1.266 4.615 1.266 2.008 0 4.616-1.266-2.597-1.276-4.616-1.276zm7.534-10.958a.376.376 0 0 0-.354.231l-1.034 1.796c-.12.245.106.514.347.514.06 0 .12-.017.176-.054l.86-1.393.756 1.287v10.747c-.017.222.186.372.382.372a.325.325 0 0 0 .279-.145l.073-10.973.756-1.288c.254.435.5.876.76 1.307a.337.337 0 0 0 .278.136c.16 0 .321-.096.36-.264a.367.367 0 0 0 .015-.09c-.014-.212-.828-1.552-1.12-2.042a.34.34 0 0 0-.283-.14.376.376 0 0 0-.353.228l-.78 1.328-.836-1.418a.34.34 0 0 0-.282-.139zm9.295 4.178v.422h-2.23v-.422zm-1.121.831q1.398 0 1.932.712t.534 1.28q-.013.883-.739 1.543-.725.659-1.727.659-1.016 0-1.741-.66-.725-.659-.725-1.53 0-.58.435-1.292.435-.712 2.03-.712zm-1.741-1.266v.99q-.475.276-.87.896-.396.62-.41 1.372 0 .883.733 1.787.732.903 2.288.969 1.543-.066 2.281-.97.739-.903.739-1.773-.013-.765-.409-1.392-.396-.626-.884-.903v-.976zm7.817-2.9q1.511.22 1.58 1.382v8.382q-.707-.843-2.536-1.184l.956-8.58zm-.425-.843l-1.131 10.022q2.52.289 3.136 1.8v1.678h.751V4.475q0-1.883-2.756-2.225zm5.813.843q1.51.22 1.58 1.382v8.382q-.707-.843-2.537-1.184l.957-8.58zm-.425-.843l-1.132 10.022q2.521.289 3.136 1.8v1.678h.752V4.475q0-1.883-2.756-2.225zm8.65.46q.149 0 .309.069.358.151.358 2.409v2.16h-4.054q1.566-2.148 2.148-3.246.583-1.099.886-1.287.168-.104.353-.104zm-.172-.46h-.065q-.577.013-1.299 1.409-.722 1.395-2.858 4.162h5.534l-.012-3.107q-.06-2.075-.425-2.275-.343-.189-.875-.189zm-1.551 8.967c2.267 2.63.816 4.08 0 4.08s-1.904-1.36 0-4.08zm.907-2.086l-.907 1.36-.816-1.269-.634.272.997 1.45c-2.267 3.083-.59 4.806.453 4.806 1.315 0 2.992-1.813.454-4.805l1.088-1.542-.635-.272zm7.193-6.217q2.725.331 0 5.047-2.724-4.716 0-5.047zm0-.664q-3.772.262-.523 6.06h-3.214v.821h3.179v6.619h1.082V9.096h3.214V8.31h-3.214q3.249-5.815-.524-6.06zm6.439.418c-.114 0-.395.136-.132.137.043 0 .139.013.209.013.084 0 .133-.018.017-.099-.028-.019-.054-.05-.09-.05h-.004zm.045-.09h.01c.203.047.363.218.574.277.178.05.47.115.41.376-.082.347-.316.683-.243 1.046.046.228.3.248.505.248l.097-.001c1.338-.01 2.4-.067 3.253-.067 1.399 0 2.232.152 2.79.906.924 1.25.607 2.501.377 4.08.065-.931.374-2.4-.584-3.667-.405-.535-1.09-.76-1.722-.92-.29-.072-.677-.098-1.104-.098-.986 0-2.184.136-2.882.136a2.29 2.29 0 0 1-.402-.027c-.269-.051-.46-.382-.437-.656.032-.364.318-.702.21-1.07-.047-.163-.19-.2-.345-.2-.11 0-.228.02-.322.024-.101.005-.2.02-.297.02a.525.525 0 0 1-.373-.13c-.227-.201.394-.278.485-.278zm.03-.328h-.02a1.89 1.89 0 0 0-.848.254c-.267.155-.053.456.128.589.166.122.353.237.562.237.04 0 .082-.005.124-.014.107-.023.295-.068.424-.068.076 0 .131.015.137.06.047.362-.339.8-.183 1.22.128.342.42.654.81.682.171.012.342.017.513.017.9 0 1.795-.145 2.696-.16l.085-.001c1.725 0 2.592.9 2.79 1.46.191.542.33 1.11.281 1.686-.058.695-.16 1.395-.103 2.09.05.612.263 1.206.408 1.8.034.14.132.209.224.209.101 0 .194-.083.187-.249-.03-.765-.206-1.42-.186-2.126.018-.607.173-1.191.209-1.8.041-.706.238-3.083-1.688-3.775-.554-.2-1.257-.253-2.002-.253-.881 0-1.822.075-2.646.075-.308 0-.6-.01-.865-.04.106-.377.309-.707.261-1.1-.037-.312-.377-.428-.636-.5-.242-.065-.406-.293-.662-.293zm2.641 8.512c.593 0 1.336.305 1.695.665.315.314.356.731.367 1.118h-4.107c.011-.387.052-.804.367-1.118.36-.36 1.084-.665 1.678-.665zm0-.332c-.704 0-1.462.326-1.906.77-.455.455-.506 1.054-.506 1.503v.175h4.824v-.175c0-.449-.034-1.048-.49-1.504-.443-.443-1.218-.769-1.922-.769zm5.3 4.022c.09 0 .135.325.135.414 0 .09-.045.414-.134.414h-8.592c-.104 0-.156-.324-.156-.414 0-.09.052-.414.156-.414zm-8.86-.47c-.238 0-.357.482-.357.884 0 .403.12.884.358.884h9.128c.224 0 .336-.481.336-.884 0-.402-.112-.884-.336-.884z"/><path d="M8.22.375c-9.625 0-9.625 17.25 0 17.25m0-17.25h147.235M8.22 17.625h147.235m7.687-17.25v17.25M155.455.375c9.625 0 9.625 17.25 0 17.25" fill="none" stroke="#000"/></svg>