<svg xmlns="http://www.w3.org/2000/svg" width="95.246" height="18"><path d="M3.73.474c.693 0 1.247.2 1.634.479.006.053.02.107.009.16-.05.248-.195.477-.396.63-.316.207-.697.267-1.057.356-.09.01-.019.031.031.04.23.04.707.099.971.099l.052-.001c.278-.032.54-.148.766-.311.079-.067.147-.15.205-.236.147.346.227.713.26.917.018.11.096.2.202.233 1.139.349 2.038 1.91 2.88 2.949 1.729 2.137 3.199 4.526 4.892 6.76-.937-.456-1.87-.916-2.81-1.374-1.92-1.01-3.92-1.816-5.604-3.09l-.008-.008c-.97-.808-1.963-1.66-2.339-2.793-.148-.92 1.757-2.577 1.542-2.646a.207.207 0 0 0-.064-.01c-.458 0-1.753 1.128-2.019 2.202-.003-.014-.01-.03-.014-.045-.073-.356-.154-1.256.068-1.98a.29.29 0 0 0 .01-.103 1.968 1.968 0 0 0-.123-.634c-.063-.17-.139-.344-.26-.765-.031-.108-.142-.328-.208-.345.186-.138.375-.28.645-.375a.434.434 0 0 0-.132.314c0 .23.164.415.365.415.2 0 .364-.186.364-.415V.894a.411.411 0 0 0-.255-.39c.053-.007.096-.019.154-.022.081-.006.16-.008.238-.008zm.67 7.763c.065.065.135.124.202.187.214.78.412 1.64.692 2.305.483 1.145 1.216 2.141 1.84 3.154a1.814 1.814 0 0 0-.385.27 6.831 6.831 0 0 0-.199.193 2.61 2.61 0 0 0-1.186-.897c.045-.723-.108-1.712-.34-2.787A34.903 34.903 0 0 0 4.4 8.237zm1.006.908c1.149.945 2.428 1.738 3.676 2.54-.018.91-.018 1.778.084 2.675a3.411 3.411 0 0 0-1.437-.736c-.02 0-.037.012-.057.012-.649-1.063-1.383-2.06-1.837-3.134-.156-.37-.293-.85-.429-1.357zm.407 5.254a2.5 2.5 0 0 1 .44.541.3.3 0 0 0 .257.14.29.29 0 0 0 .17-.053c.215-.156.347-.324.476-.446.047-.045.097-.08.148-.117l.149 2.722c-.213-.014-.435-.035-.637-.035-.264 0-.495.036-.633.172-.169-.134-.497-.164-.89-.164-.102 0-.207.002-.316.004l.836-2.764zM6.97 9.574c1.354.787 2.784 1.414 4.135 2.125a.244.244 0 0 0 .006.003c1.295.631 2.586 1.28 3.894 1.904.984 1.189 2.052 2.295 3.078 3.42l-2.15.362-4.267-4.635a.288.288 0 0 0-.037-.036c-1.499-1.137-3.152-2.082-4.66-3.143zM3.796 0c-.135 0-.273.005-.411.013C2.3.083 1.512.54 1.243 1.157c-.04.093-.146.314-.007.314a2.35 2.35 0 0 1 .341-.028c.418 0 .38.172.47.194.09.282.29.846.303 1.068-.244.86-.153 1.763-.064 2.198.15.732.63 1.584 1.261 2.38a.285.285 0 0 0 0 .166 35.3 35.3 0 0 1 .903 3.336c.251 1.168.393 2.277.317 2.823a.294.294 0 0 0 .221.328c.045.011.084.031.127.045l-.928 3.079a2.847 2.847 0 0 0-.593-.055c-.381 0-.756.05-1.064.05-.125 0-.24-.008-.34-.032a.546.546 0 0 0-.125-.012c-.436 0-1.428.306-1.34.879.15-.128.257-.159.375-.159.11 0 .23.027.405.027h.027c.254-.004.697-.083 1.053-.083.18 0 .338.02.438.08.236-.01.45-.013.649-.013.85 0 1.447.07 2.5.075a89.565 89.565 0 0 0 2.974-.079c.45.003.697.054.922.054h.04c.134-.004.265-.057.48-.057.123 0 .273.017.468.07-.25-.341-.877-.685-1.33-.685a.591.591 0 0 0-.302.071 5.081 5.081 0 0 0-.508-.022c-.22 0-.448.01-.678.02l-.157-2.83c.487.203.857.517 1.281 1.021a.295.295 0 0 0 .513-.246c-.192-1.039-.213-2.019-.202-3.06.54.354 1.072.713 1.576 1.094l4.36 4.738a.29.29 0 0 0 .263.09c.95-.159 1.9-.315 2.849-.474a.294.294 0 0 0 .23-.193.298.298 0 0 0-.06-.297c-.741-.83-1.508-1.631-2.25-2.445 1.269.78 2.875 1.755 3.08 1.755.022 0 .027-.013.012-.04-.094-.163-.9-.755-1.775-1.373.14.058.276.12.415.177l.017.01c.103.035.16.059.27.062a.286.286 0 0 0 .108-.016.317.317 0 0 0 .188-.152.32.32 0 0 0 .023-.238c-.017-.05-.038-.077-.054-.098-.061-.085-.103-.109-.162-.154a4.553 4.553 0 0 0-.205-.149c-.153-.105-.336-.223-.493-.328a4.992 4.992 0 0 1-.328-.233.307.307 0 0 0-.028-.025l-3.892-2.736c-.008-.006-.02-.001-.028-.006-1.333-1.869-2.588-3.825-4.046-5.627C9 4.496 8.145 2.888 6.758 2.352 6.69 1.956 6.54 1.225 6.003.703 5.547.26 4.888.056 4.147.011A5.728 5.728 0 0 0 3.796 0zm20.383 3.383q-.542 0-.628.418v.025q.061.11.258.11.567-.245.567-.455v-.024q0-.05-.197-.074zm1.97-.763q-.086.48-.85 1.034l.271.11.37-.135.184.123q1.416.677 3.755.714l3.67.037.049-.001q.627 0 .61.919-.02.954-.647 1.914-.394 0-.8-.302-.407-.301-.665-.708-.259-.406-.665-1.058.123 1.292.738 2.031-.75 0-1.335.142-.293.07-.488.07-.196 0-.294-.07-.123-.088-.61-.088-.295 0-.726.032-.332.025-.607.025-.668 0-1-.148-.308-.258-.388-.905-.08-.646.363-1.791-.91.652-.91 1.982v.443q-.456-.468-.715-1.034Q24.954 4.7 24.08 4.7q-.332 0-1.28.419-.32-.136-.259-.431l.616-.825q.443-.751.64-.837.099-.185.96-.185.37.099.37.271 0 .234-.246.468.467-.099.677-.554 0-.111.59-.406zm.53-2.62q-.06 0-.136.096-.936 1.49-1.7 2.068-.295.259-.8.27-.246 0-.75-.369-.752-.726-1.047-1.23-.333-.592-.431-.653-.05 0-.074.123 0 .702 1.428 2.598-.27.394-.505.898-.234.505-.554.77-.32.265.062.523 0 .32.53.517.43-.123 1.317-.381.53 0 .726.443.653.985.653 2.056.074 1.428-.985 2.733-.333.222-.333.616 0 .16.407.16.664 0 .664-.16l-.049-.332q0-.173.259-.259v-.025q0-.234.837-2.351.382 0 .603.37.283.935.283 1.55 0 .136-.172.58-.21.16-.258.578h.985l-.074-.308q-.05-.185.135-.32l-.086-.456q-.16-1.736-.16-2.043v-.025q.973-.234 1.496-.234t.806.19q.113.077.316.077.307 0 .823-.175.559-.189.858-.189.159 0 .244.054.246.154.246.523 0 1.354-.69 2.302-.22.222-.332.616h.85q.222-.074.098-.37.025-.32.296-.406 0-1.12.985-2.216.69.382.702 1.182 0 .308-.123.837l-.148.407q-.136.16-.246.603h.812q.148-.062.185-.135l-.123-.394q-.062-.173.172-.308-.123-.653.16-.985-.579-1.354-.579-2.13.308-1.268.394-2.376.148.775.037 1.859-.11 1.083.37 2.24.094.196.17.196.055 0 .1-.097.124-.702.05-3.878-.099-.394-.21-.604-.393-.603-.677-.628H30.52q-2.943 0-4.359-.837.234-.418.259-.572.024-.154 0-.376-.591.173-.887.456l-.246-.185q.258-.16.825-1.034.566-.874.665-1.367Q26.735 0 26.679 0zm6.525 13.464c.65.028 1.007.042 1.16.042h.07l-.084 3.397a4.983 4.983 0 0 1-1.292-.769l.146-2.67zm-9.476-.845c-.217.042-.504.174-.469.433v1.894a36.22 36.22 0 0 0-.978-.042c0 .238.196.56.804.56.007.537.104 1.194.202 1.53l.084.88c0 .098.168.126.35.126.216 0 .454-.042.454-.042l-.035-.88c3.452.027 10.036.202 10.364.202.168 0 .28-.182.28-.433l.084-3.795-2.076-.021-.168 2.956c-1.502.007-4.102.252-5.87.252-.56 0-1.042-.021-1.37-.091-.07-.077-.72-1.02-1.132-1.125a1.813 1.813 0 0 0-.245-.028c-.07-.573-.14-1.146-.203-1.712.126-.161.413-.12.49-.336.077-.105.028-.28-.12-.286-.083-.035-.314-.042-.412-.042zM41.704.383V.79h-1.03V.383zm1.317 1.173q-.192.215-.192.742h-3.28q.025-.527-.167-.742zm0 1.508q-.24.215-.192.742h-3.28q.025-.527-.167-.742zm0 1.508q-.192.167-.192.742h-3.28q.049-.527-.167-.742zm-.096 1.508q-.335.598-.311 1.604h-2.897q.048-1.006-.31-1.604zm-.311 1.771v.168h-2.897V7.85zm0 .335v.168h-2.897v-.168zm0 .335v.168h-2.897V8.52zm0 .335v.168h-2.897v-.168zm0 .335v5.817q.215 1.077.766 2.37h-4.405q.431-.958.742-2.37V9.191zM40.316 0v.79h-2.681q-.455.383 0 .766h1.101q.215.215.191.742h-1.292q-.455.383 0 .766h1.101q.215.215.191.742h-1.292q-.455.383 0 .766h1.101q.24.215.191.742h-1.292q-.455.359 0 .766h1.101q.43.502.383 3.04v5.888q-.168 1.316-1.173 2.992h6.559q-1.15-1.915-1.269-2.992V9.12q-.12-2.514.407-3.04h1.125q.479-.36 0-.766h-1.293q-.024-.575.168-.742h1.197q.407-.407-.072-.766h-1.293q-.024-.527.168-.742h1.125q.455-.383 0-.766h-1.293q-.024-.527.168-.742h1.125q.455-.383 0-.766h-2.681V0zm14.94 3.2q-.904.073-.953.928.05.928.953 1 .904-.072.977-1-.098-.855-.977-.929zM55.28.781q1.637.024 2.491 1.038.855 1.013.929 2.308-.025 1.367-.965 2.417-.94 1.05-2.455 1.075-1.44 0-2.466-.977-1.026-.977-1.002-2.515 0-1.32.928-2.333.928-1.013 2.54-1.013zm0-.782q-2.027 0-3.15 1.258-1.124 1.258-1.124 2.894 0 1.811 1.178 2.977l-5.159 9.967.953.489 5.047-9.797q.807.491 1.767.59h-.073V18h1.074V8.377h-.055q1.028-.099 1.795-.594l5.05 9.802.952-.489-5.191-10.03.026-.032q1.11-1.344 1.11-2.882-.024-1.49-1.123-2.809Q57.258.024 55.28 0zM68.312.78c.706 0 1.059.28 1.059.839 0 .56-.346 1.078-1.039 1.558-.16.053-.18.6-.06 1.638l.94 6.672c-.96.28-1.945.786-2.957 1.519V2.797C66.6 1.452 67.287.78 68.312.78zm-.09-.78c-.778 0-1.37.217-1.778.65-.42.446-.716 1.129-.889 2.047L65.535 18h1.06c-.08-2.29.075-3.25.56-3.93.487-.679 1.716-1.418 3.114-1.645-.879-5.5-1.47-8.582-1.298-8.769.733-.492 1.1-1.152 1.1-1.977C70.07.559 69.49 0 68.332 0a3.659 3.659 0 0 0-.11 0zm4.047 5.34v7.32h1.225V5.34zM85.38.607q1.377 0 2.433 1.02 1.057 1.019 1.057 2.415 0 1.47-1.029 2.443-1.029.974-2.462.974-1.433 0-2.443-1.001t-.992-2.416q.018-1.433 1.029-2.434Q83.983.607 85.379.607zm5.18 2.976q.386 0 .57.367v5.934H79.61V3.95q.203-.349.57-.349.698 0 .983 1.139.285 1.139 1.378 2.223 1.075 1.066 2.763 1.066h.057q1.764 0 2.857-1.084 1.093-1.084 1.377-2.223.285-1.14.965-1.14zM85.29 0q-1.403 0-2.575.992-1.25 1.066-1.378 2.499-.331-.496-1.158-.496-.734 0-1.157.606v6.87h12.694V3.584q-.404-.588-1.139-.588-.79 0-1.139.46-.018-1.305-1.396-2.444Q86.793 0 85.343 0h-.053zm-6.888 15.45c.716 0 1.611.367 2.045.8.379.38.428.883.442 1.35h-4.952c.013-.467.063-.97.442-1.35.433-.433 1.308-.8 2.023-.8zm0-.4c-.848 0-1.762.392-2.297.927-.549.549-.611 1.271-.611 1.812V18h5.817v-.21c0-.542-.041-1.264-.59-1.813-.536-.535-1.47-.928-2.319-.928zm4.241-2.783V18h4.49v-.674h-3.815v-4.384h11.254v4.384h-3.414V18h4.088v-5.733z"/></svg>