<svg xmlns="http://www.w3.org/2000/svg" width="65.171" height="18"><path d="M21.229 8.147c.23.327.286.73.306 1.119-.01.184.005.383-.071.555-.216-.214-.197-.71-.201-.987 0-.273-.01-.497-.034-.687zM8.946 7.839l11.21.012c-1.638 1.552-3.28 2.31-5.755 2.31-2.485 0-3.989-.74-5.455-2.322zm-.503-.451a.225.225 0 0 0-.17.372c1.627 1.9 3.356 2.852 6.128 2.852 2.698 0 4.542-.914 6.32-2.681.06.169.091.435.091.903.011.52.007 1.383.69 1.444.48-.1.48-.612.483-1.012 0-.491-.12-.937-.32-1.275-.201-.339-.498-.59-.858-.59L8.443 7.387zm16.599-4.295q1.51.22 1.579 1.382v8.382q-.706-.843-2.536-1.184l.957-8.58zm-.426-.843l-1.13 10.022q2.52.289 3.135 1.8v1.678h.752V4.475q0-1.883-2.757-2.225zm5.814.843q1.51.22 1.578 1.382v8.382q-.706-.843-2.536-1.184l.957-8.58zm-.426-.843l-1.131 10.022q2.52.289 3.135 1.8v1.678h.752V4.475q0-1.883-2.756-2.225zm10.186 0a1.31 1.31 0 0 0-.312.039c-.21.051-.437.168-.682.35H34.26V3.73h4.936c.245.182.472.299.682.35a1.31 1.31 0 0 0 .623 0c.205-.051.411-.168.617-.35h.19c.197.182.4.299.61.35a1.316 1.316 0 0 0 .63 0c.209-.051.432-.168.67-.35H48.2V2.64h-4.983c-.238-.182-.461-.299-.67-.35a1.316 1.316 0 0 0-.63 0 1.39 1.39 0 0 0-.61.35h-.19a1.492 1.492 0 0 0-.617-.35 1.274 1.274 0 0 0-.31-.039zm1.04 5.588q2.456 0 5.207 1.187-2.751 1.153-5.207 1.153-2.438 0-5.207-1.153 2.769-1.187 5.207-1.187zm0-.758q-3.032 0-6.97 1.928 3.938 1.912 6.97 1.912 3.032 0 6.97-1.912-3.92-1.928-6.97-1.928zm-1.04 6.801a1.31 1.31 0 0 0-.312.039c-.21.051-.437.168-.682.35H34.26v1.091h4.936c.245.182.472.299.682.35a1.31 1.31 0 0 0 .623 0c.205-.051.411-.168.617-.35h.19c.197.182.4.299.61.35a1.316 1.316 0 0 0 .63 0c.209-.051.432-.168.67-.35H48.2V14.27h-4.983c-.238-.182-.461-.299-.67-.35a1.316 1.316 0 0 0-.63 0 1.39 1.39 0 0 0-.61.35h-.19a1.492 1.492 0 0 0-.617-.35 1.274 1.274 0 0 0-.31-.039zM54.7 2.837V7h-2.792V2.837zm-3.366-.587v5.323h3.953V2.25zm1.976 9.966q-.231 0-.373.155-.142.154-.142.348 0 .168.142.329t.36.161q.246 0 .381-.148.136-.149.136-.342 0-.207-.161-.355-.162-.148-.342-.148zm0-.116q.233 0 .433.18.2.18.2.439 0 .232-.174.426-.174.193-.471.193-.271 0-.445-.206-.174-.207-.174-.413 0-.245.174-.432t.458-.187zm0-3.239q-.244 0-.283.504v2.206q.013.258-.142.477-.135.052-.264.052-.13 0-.252-.052l-2.09-.684q-.174-.04-.296-.04-.23 0-.272.143-.077.233.4.426l2.103.671q.245.077.4.31 0 .284-.168.49l-1.29 1.78q-.27.439-.077.568.052.038.114.038.17 0 .415-.283l1.29-1.78q.142-.22.413-.31.258.077.413.31l1.29 1.78q.245.283.408.283.06 0 .108-.038.193-.142-.065-.58l-1.303-1.781q-.168-.206-.155-.477.155-.233.413-.31l2.09-.67q.478-.194.4-.414-.051-.154-.287-.154-.117 0-.28.038l-2.103.684q-.123.045-.249.045t-.255-.045q-.167-.22-.154-.477V9.365q-.039-.504-.271-.504z"/><path d="M8.22.375c-9.625 0-9.625 17.25 0 17.25m0-17.25h48.7m-48.7 17.25h48.7M64.608.375v17.25M56.92.375c9.626 0 9.626 17.25 0 17.25" fill="none" stroke="#000"/></svg>