<svg xmlns="http://www.w3.org/2000/svg" width="89.058" height="18"><path d="M15.027 2.25c-.083 0-.167.008-.25.015-1.208.13-2.066 1.352-1.876 2.536.084.881.63 1.375 1.23 1.86 1.785 1.094 1.284.692 3.083 1.603l.289-.54c-2.142-1.002-2.4-1.161-3.068-1.602-.547-.44-.98-.926-.941-1.662-.016-.51.288-1.033.63-1.284a1.64 1.64 0 0 1 .964-.326c.258 0 .501.06.714.212.539.266.835 1.147.44 1.701a1.047 1.047 0 0 1-.835.448.773.773 0 0 1-.456-.144c-.273-.152-.478-.683-.197-.98-.13-.136-.311-.303-.448-.303-.091 0-.16.068-.205.228-.304.729.182 1.556.911 1.754.13.038.258.06.387.06.836 0 1.61-.698 1.61-1.564.076-1.01-.729-1.936-1.739-1.997a2.454 2.454 0 0 0-.243-.015zm-.877 11.631a1.31 1.31 0 0 0-.312.039c-.21.051-.437.168-.682.35H8.22v1.091h4.936c.245.182.472.299.682.35a1.31 1.31 0 0 0 .623 0c.205-.051.41-.168.617-.35h.19c.197.182.4.299.61.35a1.316 1.316 0 0 0 .63 0c.209-.051.432-.168.67-.35h4.983V14.27h-4.983c-.238-.182-.461-.299-.67-.35a1.316 1.316 0 0 0-.63 0 1.39 1.39 0 0 0-.61.35h-.19a1.492 1.492 0 0 0-.617-.35 1.274 1.274 0 0 0-.31-.039zM27.588 2.682v3.064h-2.055V2.682zm-2.477-.432v3.918h2.91V2.25zm1.449 5.227q.567 0 .567.643 0 .63-.566 1.023-.567-.394-.567-1.023 0-.643.567-.643zm2.536 2.04v2.132h-1.11v3.74h-2.842v-3.74h-1.123V9.517zm-2.535-2.4q-.917 0-.917 1.003 0 .63.446 1.023h-2.43v2.867h1.12v3.74h3.572v-3.74h1.118V9.143h-2.43q.447-.394.447-1.023 0-1.003-.926-1.003zm5.966-4.024q1.511.22 1.58 1.382v8.382q-.707-.843-2.537-1.184l.957-8.58zm-.425-.843L30.97 12.272q2.521.289 3.136 1.8v1.678h.752V4.475q0-1.883-2.756-2.225zm13.835.59l.18.075-5.403 12.034c-.092-.06-.606-.312-.774-.507 0-.13.093-.219.36-.576.282-.375.581-.766.24-1.269-.157-.232-.373-.401-.654-.401-.174 0-.373.065-.6.221-.47-.28-.925-.42-1.665-.42-.13-1.141-.276-1.861-.436-2.762h5.36l3.392-6.395zm-.011-.59c-.03 0-.062.001-.094.004L42.394 8.38c-.12.2-.245.3-.375.3a.349.349 0 0 1-.045.003c-.505 0-1.936-.922-4.293-2.765-.54-.56-.821-1.12-.841-1.681-.02-.56.148-.88.503-.961a1.34 1.34 0 0 1 .29-.036c.2 0 .343.064.43.194.125.185.118.37-.022.555-.07.093-.134.139-.192.139-.057 0-.108-.046-.153-.139-.09-.185-.186-.278-.286-.278-.19.07-.235.236-.135.496.093.241.264.362.512.362.02 0 .039 0 .059-.002.28-.02.475-.115.585-.285.11-.17.165-.37.165-.6a.88.88 0 0 0-.225-.601c-.15-.17-.368-.278-.653-.323a1.027 1.027 0 0 0-.16-.013c-.232 0-.464.08-.696.238-.285.195-.45.516-.495.961-.045.445.078.936.368 1.471.29.536.813 1.074 1.569 1.614.755.54 1.473 1.056 2.154 1.546.016.064-.02.096-.106.096a.533.533 0 0 1-.074-.006h-3.843c.32 1.832.515 3.128.585 3.888.09-.006.18-.01.269-.01.7 0 1.402.209 2.103.626.15-.2.313-.3.488-.3s.265.095.27.285c-.305.488-.753.961-.908 1.516l1.681 1.081 5.72-13.105c-.182-.263-.42-.395-.717-.395zm3.774.843q1.51.22 1.579 1.382v8.382q-.707-.843-2.536-1.184l.956-8.58zm-.426-.843l-1.131 10.022q2.52.289 3.136 1.8v1.678h.751V4.475q0-1.883-2.756-2.225zm10.25 0c-.105 0-.21.013-.316.039-.212.052-.442.17-.69.354H53.53v1.103h4.988c.248.184.478.302.69.354a1.324 1.324 0 0 0 .63 0c.207-.052.415-.17.623-.354h.192c.2.184.405.302.617.354a1.33 1.33 0 0 0 .636 0c.212-.052.437-.17.677-.354h5.036V2.643h-5.036c-.24-.184-.465-.302-.677-.354a1.33 1.33 0 0 0-.636 0 1.42 1.42 0 0 0-.617.354h-.192a1.508 1.508 0 0 0-.624-.354 1.287 1.287 0 0 0-.313-.039zm-1.853 7.921v.422h-2.228v-.422zm-1.12.831q1.397 0 1.931.712.534.713.534 1.28-.013.883-.738 1.543-.725.66-1.728.66-1.015 0-1.74-.66-.726-.66-.726-1.53 0-.58.435-1.293.436-.712 2.031-.712zm-1.742-1.266v.99q-.474.276-.87.896t-.409 1.372q0 .883.732 1.787.732.903 2.288.969 1.543-.066 2.282-.97.738-.903.738-1.773-.013-.765-.408-1.391-.396-.627-.884-.904v-.976zm9.536 3.143c.805 0 1.814.414 2.302.902.426.426.482.992.498 1.518h-5.576c.015-.526.071-1.092.498-1.518.488-.488 1.472-.902 2.278-.902zm0-.451c-.956 0-1.984.441-2.586 1.044-.619.618-.689 1.432-.689 2.04v.238h6.55v-.237c0-.61-.047-1.423-.665-2.04-.603-.604-1.654-1.045-2.61-1.045zm10.619-9.796c.749 0 1.417.346 1.851.888h-3.703a2.368 2.368 0 0 1 1.852-.888zm2.102 1.27c.143.272.234.575.262.897H72.6a2.36 2.36 0 0 1 .263-.897zm.264 1.28a2.36 2.36 0 0 1-.248.896h-4.236a2.361 2.361 0 0 1-.249-.897zm-.49 1.279a2.368 2.368 0 0 1-1.876.918 2.37 2.37 0 0 1-1.876-.918zM74.963 2.25a2.76 2.76 0 0 0-2.756 2.756 2.759 2.759 0 0 0 2.756 2.755 2.76 2.76 0 0 0 2.755-2.755 2.76 2.76 0 0 0-2.755-2.756zm-3.725 9.056l-.753 3.395-.715-.332 1.468-3.063zm9.13-2.286c-.015 0-.03 0-.044.002-.106.01-.23.052-.37.115-.775.98-1.35 2.194-1.723 3.637-.429.072-1.442.515-3.025 1.327a.705.705 0 0 1-.247.039 2.25 2.25 0 0 1-.659-.128 1.002 1.002 0 0 0-.307-.042c-.085 0-.173.006-.267.016l-.332.102-2.143-3.496-2.132 4.275.294.102.14-.294.128.051-.14.358.204.076.14-.332.153.077-.127.344.23.09.114-.345.179.09-.077.344.243.115.855-3.93 1.595 2.577-.37.102-.383.115c.01.106.03.183.077.243.047.059.131.094.242.102.11.008.162.034.179.09.07.239.156.45.255.612.078.127.17.19.274.19a.295.295 0 0 0 .083-.012c.15-.046.301-.086.447-.14l.15.225c.016.023.043.033.074.033.109 0 .272-.119.22-.2l-.138-.211c.302-.13.59-.292.88-.447.988-.144 1.857-.366 2.591-.663.734-.297 1.24-.615 1.519-.957.079-.045.422-.632 1.02-1.749.6-1.116.776-1.881.536-2.31a.36.36 0 0 0-.114-.127.407.407 0 0 0-.225-.066z"/><path d="M8.22.375c-9.625 0-9.625 17.25 0 17.25m0-17.25h72.588M8.22 17.625h72.588M88.496.375v17.25M80.808.375c9.625 0 9.625 17.25 0 17.25" fill="none" stroke="#000"/></svg>