<svg xmlns="http://www.w3.org/2000/svg" width="80.12" height="18"><path d="M13.251 6.338q.17 0 .354.078.41.173.41 2.758v2.474H9.373q1.793-2.46 2.46-3.718.667-1.257 1.014-1.473.193-.119.404-.119zm-.197-.528l-.075.001q-.66.014-1.487 1.612-.826 1.598-3.272 4.767h6.337l-.014-3.558q-.07-2.376-.487-2.605-.393-.217-1.002-.217zm4.559-2.717q1.511.22 1.58 1.382v8.382q-.707-.843-2.537-1.184l.957-8.58zm-.425-.843l-1.131 10.022q2.52.289 3.135 1.8v1.678h.752V4.475q0-1.883-2.756-2.225zM23 3.093q1.512.22 1.58 1.382v8.382q-.706-.843-2.536-1.184L23 3.093zm-.425-.843l-1.13 10.022q2.52.289 3.135 1.8v1.678h.752V4.475q0-1.883-2.757-2.225zm10.818 0c-.115 0-.23.014-.346.043-.232.057-.484.186-.755.387h-5.46v1.207h5.46c.271.202.523.33.755.388a1.449 1.449 0 0 0 .689 0c.227-.057.455-.186.682-.388h.21c.22.202.444.33.676.388a1.455 1.455 0 0 0 .696 0c.232-.057.48-.186.742-.388h5.512V2.68h-5.512c-.263-.201-.51-.33-.742-.387a1.455 1.455 0 0 0-.696 0 1.554 1.554 0 0 0-.676.387h-.21a1.653 1.653 0 0 0-.682-.387 1.409 1.409 0 0 0-.343-.043zm-5.651 7.507c.19.406.319.647 1.018.868 2.034.156 2.854.42 3.33.58.342.088.985.504 1.006 1.007-.029.51-.555.903-1.032.999-.43.12-2.437.183-3.288.4-.657.202-.666.61-1.078.914-.961-.655.088-1.577.43-1.77a1.98 1.98 0 0 1 1.005-.254 7.2 7.2 0 0 1 .64.04c1.187-.009 1.154-.62-.052-.674h-.01c-.245 0-.444.01-.615.01-.371 0-.614-.049-.926-.359-.319-.21-.918-.9-.428-1.761zm.353-1.216c-.078 0-.177.017-.3.053-.366.355-.718.948-.906 1.513-.046.276.004.748.227 1.163.29.253.562.605.875.891-.313.283-.491.363-.778.642-.319.44-.425.707-.368 1.286-.006.43.439 1.063.815 1.405.224.18.385.256.497.256.247 0 .25-.37.14-.78.1-.585.394-.82.958-.938.568-.083 4.365.156 4.398-1.803-.01-1.797-3.646-1.957-4.355-2-.733-.17-.776-.229-1-.608-.032-.427.289-1.08-.203-1.08zm8.879.303q.402 0 1.06.22 1.13.376 2.34 1.572 1.21 1.196.967 2.218-.242 1.021-.94 1.532-.578.422-1.394.422-.172 0-.354-.019-1.048-.107-1.801-1.653-.753-1.546-.699-2.755.054-1.21.376-1.425.157-.112.445-.112zm-.11-.933q-.554 0-.9.238-.725.511-.806 2.097-.08 1.586.914 3.441.995 1.855 2.42 2.03.272.033.53.033 1.09 0 1.916-.598 1.022-.74 1.277-2.097.255-1.357-1.089-2.876-1.344-1.519-2.903-2.016-.79-.252-1.36-.252zm11.609-5.189q.152 0 .316.07.367.155.367 2.468v2.213h-4.153q1.604-2.2 2.2-3.326.598-1.125.909-1.318.172-.107.36-.107zm-.177-.472h-.066q-.59.013-1.33 1.443-.74 1.43-2.929 4.265h5.67l-.013-3.183q-.062-2.126-.435-2.332-.351-.193-.897-.193zm-3.727 8.137c.17.364.285.58.911.777 1.82.14 2.553.377 2.98.52.305.078.881.45.9.9-.026.457-.497.808-.924.894-.385.107-2.18.164-2.942.357-.588.182-.596.547-.965.819-.86-.586.08-1.411.385-1.583a1.77 1.77 0 0 1 .9-.228c.168 0 .352.015.573.035 1.061-.007 1.032-.554-.047-.603h-.009c-.22 0-.397.01-.55.01-.332 0-.55-.044-.83-.322-.284-.188-.82-.806-.382-1.576zm.316-1.087a.983.983 0 0 0-.27.047c-.326.318-.64.848-.81 1.354-.04.247.005.67.204 1.04.259.227.502.542.783.798-.28.253-.44.324-.696.574-.285.394-.38.632-.33 1.15-.005.386.393.952.73 1.258.2.162.345.229.444.229.222 0 .224-.33.126-.699.09-.522.353-.732.857-.838.508-.075 3.906.14 3.935-1.613-.01-1.608-3.262-1.752-3.897-1.79-.656-.152-.694-.205-.894-.544-.029-.382.258-.966-.182-.966zm7.891-7.05a.376.376 0 0 0-.354.231l-1.034 1.796c-.12.245.106.514.347.514.06 0 .12-.017.176-.054l.86-1.393.756 1.287v10.747c-.017.222.186.372.382.372a.325.325 0 0 0 .279-.145l.073-10.973.756-1.288c.254.435.5.876.76 1.307a.337.337 0 0 0 .278.136c.16 0 .321-.096.36-.264a.367.367 0 0 0 .015-.09c-.014-.212-.828-1.552-1.12-2.042a.34.34 0 0 0-.283-.14.376.376 0 0 0-.353.228l-.78 1.328-.836-1.418a.34.34 0 0 0-.282-.139zm9.294.8v.422h-2.228V3.05zm-1.12.831q1.398 0 1.932.712.534.713.534 1.28-.013.883-.739 1.543-.725.66-1.727.66-1.016 0-1.741-.66-.725-.66-.725-1.53 0-.58.435-1.293.435-.712 2.03-.712zm-1.741-1.266v.99q-.475.276-.87.896-.396.62-.41 1.372 0 .883.733 1.787.732.903 2.288.969 1.543-.066 2.281-.97.739-.903.739-1.773-.013-.765-.41-1.391-.395-.627-.883-.904v-.976zm11.356.163q.17 0 .353.077.41.174.41 2.759v2.473h-4.641q1.793-2.46 2.46-3.717.667-1.258 1.014-1.473.192-.12.404-.12zm-.197-.528h-.075q-.66.015-1.487 1.613-.827 1.598-3.272 4.766h6.336l-.014-3.557q-.07-2.377-.486-2.606-.393-.216-1.002-.216zM63.86 13.881a1.31 1.31 0 0 0-.313.039c-.21.051-.437.168-.682.35H57.93v1.091h4.935c.245.182.473.299.682.35a1.31 1.31 0 0 0 .623 0 1.48 1.48 0 0 0 .617-.35h.19a1.4 1.4 0 0 0 .611.35 1.316 1.316 0 0 0 .629 0c.21-.051.433-.168.67-.35h4.983V14.27h-4.983c-.237-.182-.46-.299-.67-.35a1.316 1.316 0 0 0-.629 0 1.4 1.4 0 0 0-.611.35h-.19a1.492 1.492 0 0 0-.617-.35 1.274 1.274 0 0 0-.31-.039z"/><path d="M8.22.375c-9.625 0-9.625 17.25 0 17.25m0-17.25h63.65M8.22 17.625h63.65M79.558.375v17.25M71.87.375c9.625 0 9.625 17.25 0 17.25" fill="none" stroke="#000"/></svg>