<svg xmlns="http://www.w3.org/2000/svg" width="58.239" height="18"><path d="M9.673 2.25L8.22 3.968h.709l.744-.888.752.888.73-.888.752.888.745-.888.751.888.745-.888.752.888.73-.888.752.888.751-.888.73.888.752-.888.745.888h.709L18.615 2.25l-.751.83-.73-.83-.752.83-.752-.83-.73.83-.752-.83-.745.83-.751-.83-.745.83-.752-.83-.73.83-.752-.83zm2.257 7.813c.802.901 1.466 1.93 2.058 2.974.124.153-.016.294-.118.44-.39-1.239-1.288-2.194-1.94-3.414zm-.776-4.547c.067.312-.056.672-.293.778l.076.161c.296-.14.58-.56.622-.938.403.024.514.328.577.68.075.241-.001.826.304.927.902.35 1.591.753 2.21 1.363 1.068 1.336 2.184 2.63 3.252 3.966.414.52.794.997 1.102 1.356-1.622-1.212-3.434-2.14-5.211-3.103-.945-.513-1.846-.933-1.846-2.063 0-.607 1.12-1.117 1.074-1.196-.004-.007-.017-.01-.038-.01-.23 0-1.407.436-1.407 1.357 0 .255.069.491.187.712h-.005c-1.29-.685-1.086-2.068-1.036-3.288-.536-.03-.978-.322-1.487-.444.395-.051.789-.117 1.185-.158a.314.314 0 0 0-.188.118c-.006.13.14.188.284.188.14 0 .276-.055.263-.15a.36.36 0 0 0-.307-.162c.197-.028.46-.07.682-.094zm2.255 7.846c.115.28.175.578.24.873.189-.152.371-.308.525-.495-.1.547-.288 1.098-.743 1.098-.275 0-.402-.186-.226-.75.083-.266.15-.52.204-.726zm-.494-2.704c1.84.98 3.663 1.97 5.403 3.121.41.333.776.703 1.023 1.05-.164.254-.476.342-.765.361-1.474-.051-2.05-1.472-2.829-2.487l-.423-.514.073.659c.005.119.127.68-.054.68a.134.134 0 0 1-.054-.013l-.744-.891c-.08.052-.155.112-.237.16-.37-.747-.91-1.443-1.393-2.126zm-1.589-5.524c-.387 0-.783.07-1.159.104-.448.22-.902.052-1.372.223-.34.152-.434.461-.575.77.2-.066.382-.093.554-.093.547 0 .988.275 1.567.422-.001.29-.047.62-.068.952-.09.9.384 1.69 1.07 2.253.49 1.093 1.17 1.932 1.666 2.785-.059.384-.415 1.83-.591 2.35a6.56 6.56 0 0 1-1.074.09 5.507 5.507 0 0 1-.466-.019c-.279 0-.585.477-.886.731l6.111.048c-.156-.551-1.242-.843-1.627-.843a.538.538 0 0 0-.06.003c.137-.39.306-.756.355-1.3.17.152.362.318.6.335.292-.022.41-.222.448-.482.66 1.094 1.4 1.987 2.757 2.118.469-.023 1.053-.228 1.18-.726.62-.035.165-.64-.066-.878-1.692-1.831-3.088-3.922-4.76-5.767-.644-.635-1.37-1.064-2.271-1.42-.067-.165-.09-.4-.133-.657-.047-.281-.197-.741-.471-.884a2.097 2.097 0 0 0-.729-.115zm15.012 1.091q.216 0 .299.216-.107-.042-.182-.042-.16 0-.183.191-.033.34-.184.34h-.007q-.157-.008-.224-.14 0-.1.249-.332.116-.233.232-.233zm.238.297q.06 0 .06.085-.03.334-.255.334-.02 0-.043-.003v-.033l.066-.149q.016-.233.133-.233h.017l.022-.001zm-1.477.188q-.15 0-.278.087-.158.108-.091.374h.066q.017-.166.1-.274.082-.108.273-.108.19 0 .19-.05l-.19-.024q-.036-.005-.07-.005zm-.005.146q-.199 0-.199.281v.1q.017.003.03.003.057 0 .07-.053.282-.066.414-.232-.116-.1-.315-.1zm-.298.43q-.083.117-.017.29.067.175.83.241l.116-.05q-.962-.066-.863-.447l-.066-.033zm1.078-.795q-.216.149-.166.381.033.1.199.166.15.066.116.348.033.614-.514.945-.083-.199-.323-.215l-.045-.002q-.205 0-.295.143-.07.11-.165.11-.04 0-.084-.02-.027.008-.05.008-.151 0-.166-.272.166-.017.233-.067.066-.05.248-.116-.08-.092-.165-.092-.037 0-.075.018-.125.058-.257.09-.282-.049-.216-.281-.166-.183-.116-.315.365-.232.605-.44.24-.207.54-.248.298-.042.696-.141zm.978-.15q.431.034.912.49.481.456.564.937-.896 1.31-2.537 2.089-.066-.697.232-1.393.547-.497.48-.837-.065-.34.216-.456.63-.116.133-.83zm6.084 2.801l.051.002q.747.133 1.36.671.614.54.88 1.335.049.083-.366.083-1.74-.73-2.205-1.476-.205-.615.28-.615zm-4.426-.827q1.034.99 2.635.99.274 0 .566-.028.03-.01.056-.01.242 0 .242.805-1.642.73-2.587.796-.28.02-.568.02-.684 0-1.413-.11-.158-.025-.292-.025-.752 0-.794.746-.697-.83-.498-1.128 1.642-.73 2.653-2.056zM26.49 5.9l-.077.001q-.755.025-.805.307-.298.116-.555.19-.257.075-.48.274-.225.2-.498.357-.274.157-.324.273-.083.183.15.398 0 .183.165.299.033 0 .075.282.041.281.307.414.331-.05.43-.19.085-.12.218-.12.023 0 .048.003.166.025.249.274-.066.249-.19.879-.125.63 0 .928.124.299-.44.672-.43.285-1.179.285-.232 0-.496-.028-.575-.16-.925-.16-.377 0-.493.185-.224.356.042.622h.646q1.489.053 2.521.053 2.488 0 2.33-.31-.18-.353.292-.353.116 0 .271.021.244.033.536.033.65 0 1.537-.166 1.285-.24 1.675-.447.25-.133.54-.133.163 0 .339.041.489.117.588.415-.216.398-.752.398-.245 0-.558-.083-.521-.14-.856-.14-.304 0-.454.115-.315.24-.033.572h5.39q.547-.497.232-1.152-.315-.655-1.062-1.244-.746-.588-1.641-1.07.234-.204.452-.204.276 0 .526.329.263.345.446.345.128 0 .217-.17-.59-1.058-1.233-1.058-.042 0-.085.004-.688.075-1.252.771-.683.172-1.272.172-1.286 0-2.127-.818-.464-1.178-1.111-1.634-.613-.432-1.324-.432zm12.637-2.807q1.511.22 1.58 1.382v8.382q-.707-.843-2.536-1.184l.956-8.58zm-.425-.843l-1.131 10.022q2.52.289 3.136 1.8v1.678h.751V4.475q0-1.883-2.756-2.225zm8.893.435v.422h-2.229v-.422zm-1.121.831q1.398 0 1.932.712t.534 1.28q-.013.883-.739 1.542-.725.66-1.727.66-1.016 0-1.741-.66-.725-.659-.725-1.53 0-.58.435-1.292.435-.712 2.03-.712zM44.733 2.25v.99q-.475.276-.87.896-.396.62-.41 1.371 0 .884.733 1.787.732.904 2.288.97 1.543-.066 2.281-.97.739-.903.739-1.773-.013-.765-.409-1.392-.396-.626-.884-.903V2.25zm1.528 8.268l-.015.008 2.718 5.209h1.025l-2.718-5.217zm-2.278.008l-1.025.008 2.719 5.216 1.025-.008-2.719-5.216z"/><path d="M8.22.375c-9.625 0-9.625 17.25 0 17.25m0-17.25h41.77M8.22 17.625h41.77M57.677.375v17.25M49.99.375c9.624 0 9.624 17.25 0 17.25" fill="none" stroke="#000"/></svg>