<svg xmlns="http://www.w3.org/2000/svg" width="54.48" height="18"><path d="M12.938 8.519c1.02 1.145 1.864 2.453 2.617 3.781.158.195-.02.374-.15.559-.496-1.575-1.637-2.79-2.467-4.34zm-.987-5.783c.085.396-.071.854-.372.989l.096.205c.376-.178.737-.713.79-1.193.514.03.654.417.735.865.096.307-.002 1.05.386 1.179 1.147.444 2.024.957 2.81 1.734 1.359 1.698 2.778 3.342 4.136 5.042a69.07 69.07 0 0 0 1.401 1.725c-2.062-1.542-4.366-2.72-6.626-3.946-1.202-.652-2.348-1.186-2.348-2.623 0-.773 1.424-1.42 1.366-1.521-.005-.01-.022-.013-.048-.013-.292 0-1.789.555-1.789 1.725 0 .324.087.625.238.905h-.007c-1.641-.87-1.38-2.63-1.317-4.18-.682-.038-1.244-.41-1.892-.565.503-.065 1.003-.15 1.507-.201a.4.4 0 0 0-.238.15c-.009.166.178.239.36.239.179 0 .352-.07.335-.19a.457.457 0 0 0-.39-.206c.25-.036.584-.09.867-.12zm2.867 9.977c.147.357.224.736.307 1.11.239-.193.47-.392.667-.628-.128.694-.366 1.395-.945 1.395-.35 0-.512-.237-.288-.954.106-.338.19-.66.26-.923zm-.628-3.438c2.34 1.247 4.658 2.506 6.872 3.969.52.422.985.893 1.3 1.334-.209.324-.606.435-.973.46-1.874-.066-2.607-1.872-3.597-3.162l-.538-.654.093.838c.006.15.16.864-.07.864a.17.17 0 0 1-.067-.016l-.947-1.134c-.101.067-.197.143-.301.205-.47-.95-1.157-1.836-1.772-2.704zM12.17 2.25c-.492 0-.996.088-1.474.133-.57.278-1.147.066-1.745.283-.431.194-.552.587-.731.98.254-.085.486-.12.704-.12.697 0 1.257.351 1.993.538-.001.37-.059.788-.087 1.21-.114 1.145.49 2.15 1.361 2.865.625 1.39 1.489 2.457 2.12 3.542-.076.488-.53 2.327-.753 2.988a8.341 8.341 0 0 1-1.365.115 7.003 7.003 0 0 1-.593-.024c-.355 0-.744.606-1.127.93l7.772.06c-.198-.7-1.58-1.072-2.07-1.072a.685.685 0 0 0-.075.003c.173-.495.389-.96.45-1.653.217.195.46.404.764.426.371-.028.522-.281.569-.612.84 1.39 1.781 2.526 3.506 2.693.596-.029 1.339-.29 1.5-.923.79-.044.21-.815-.083-1.116-2.151-2.33-3.927-4.988-6.053-7.334-.819-.808-1.743-1.354-2.888-1.807-.085-.21-.113-.507-.169-.835-.06-.357-.251-.942-.6-1.124a2.667 2.667 0 0 0-.926-.146zm9.163 0c-.075 0-.15.007-.225.014-1.084.116-1.855 1.213-1.684 2.277.075.79.566 1.234 1.104 1.67 1.603.982 1.153.62 2.769 1.439l.259-.484c-1.923-.9-2.155-1.043-2.755-1.439-.49-.395-.88-.832-.845-1.493-.014-.457.259-.927.566-1.152.245-.184.559-.293.866-.293.231 0 .45.054.64.19.485.24.75 1.03.396 1.528a.94.94 0 0 1-.75.402.694.694 0 0 1-.41-.13c-.245-.136-.429-.613-.176-.879-.116-.123-.28-.273-.403-.273-.082 0-.143.062-.184.205-.273.654.164 1.398.818 1.575.116.034.232.054.348.054.75 0 1.446-.627 1.446-1.404.068-.907-.655-1.739-1.562-1.793a2.204 2.204 0 0 0-.218-.014zm6.997.45c.806 0 1.814.415 2.302.903.427.426.483.992.498 1.518h-5.576c.016-.526.072-1.092.498-1.518.488-.488 1.473-.902 2.278-.902zm0-.45c-.955 0-1.984.441-2.586 1.044-.618.618-.688 1.432-.688 2.04v.238h6.549v-.237c0-.61-.046-1.423-.665-2.04-.602-.604-1.654-1.045-2.61-1.045zm1.863 7.649q.17 0 .354.077.41.174.41 2.759v2.473h-4.642q1.793-2.46 2.46-3.717.667-1.258 1.014-1.473.193-.12.404-.12zm-.197-.528h-.075q-.66.015-1.486 1.613-.827 1.598-3.273 4.766h6.337l-.014-3.557q-.07-2.377-.487-2.606-.393-.216-1.002-.216zm9.671-6.407q2.312 0 4.903 1.117-2.59 1.086-4.903 1.086-2.296 0-4.902-1.086 2.606-1.117 4.902-1.117zm0-.714q-2.854 0-6.562 1.815 3.708 1.8 6.562 1.8 2.855 0 6.563-1.8-3.692-1.815-6.563-1.815zm0 5.55c.8 0 1.8.41 2.283.894.424.423.479.985.495 1.506h-5.531c.015-.521.07-1.083.494-1.506.484-.484 1.46-.894 2.26-.894zm0-.447c-.947 0-1.967.437-2.565 1.035-.613.613-.682 1.42-.682 2.024v.235h6.495v-.235c0-.604-.046-1.41-.659-2.024-.597-.598-1.64-1.035-2.589-1.035zm0 5.496q2.312 0 4.903 1.117-2.59 1.086-4.903 1.086-2.296 0-4.902-1.086 2.606-1.117 4.902-1.117zm0-.714q-2.854 0-6.562 1.815 3.708 1.8 6.562 1.8 2.855 0 6.563-1.8-3.692-1.815-6.563-1.815z"/><path d="M8.22.375c-9.625 0-9.625 17.25 0 17.25m0-17.25h38.01M8.22 17.625h38.01M53.918.375v17.25M46.23.375c9.625 0 9.625 17.25 0 17.25" fill="none" stroke="#000"/></svg>