<svg xmlns="http://www.w3.org/2000/svg" width="114.297" height="18"><path d="M12.755 2.813q.886 0 .886 1.006 0 .984-.886 1.6-.886-.616-.886-1.6 0-1.006.886-1.006zm3.964 3.191v3.334h-1.734v5.849H10.54v-5.85H8.783V6.005zM12.755 2.25q-1.434 0-1.434 1.57 0 .983.698 1.599H8.22V9.9h1.75v5.849h5.586V9.901h1.75V5.419h-3.8q.698-.616.698-1.6 0-1.569-1.449-1.569zm10.745.32q.213 0 .295.212-.105-.042-.18-.042-.157 0-.18.189-.031.335-.18.335h-.007q-.155-.009-.22-.14 0-.097.244-.326.114-.228.229-.228zm.235.291q.06 0 .06.084-.03.33-.252.33-.02 0-.042-.003v-.033l.065-.147q.015-.23.131-.23l.016.001.022-.002zm-1.454.186q-.148 0-.274.086-.155.106-.09.367h.065q.017-.163.098-.27.082-.105.27-.105t.188-.05l-.188-.024q-.035-.004-.07-.004zm-.005.143q-.196 0-.196.278v.097q.017.004.03.004.055 0 .068-.053.278-.065.408-.228-.114-.098-.31-.098zm-.294.424q-.081.115-.016.286.065.172.816.237l.115-.05q-.947-.064-.85-.44l-.065-.033zm1.062-.783q-.213.147-.164.375.033.098.196.164.147.065.115.342.032.604-.507.93-.081-.195-.318-.211l-.044-.002q-.202 0-.29.14-.07.11-.163.11-.039 0-.082-.02-.027.007-.05.007-.149 0-.163-.268.164-.016.229-.065.065-.05.245-.115-.08-.09-.163-.09-.037 0-.074.017-.122.057-.253.09-.278-.05-.212-.278-.164-.18-.115-.31.36-.228.596-.433.237-.204.53-.244.295-.041.687-.14zm.963-.147q.424.033.898.481.473.45.555.923-.882 1.29-2.498 2.057-.065-.686.229-1.371.538-.49.473-.825-.065-.335.212-.449.62-.114.13-.816zm5.99 2.757l.05.002q.735.13 1.339.661.604.53.865 1.314.05.082-.359.082-1.714-.718-2.171-1.453-.202-.606.275-.606zm-4.358-.814q1.018.975 2.594.975.27 0 .557-.029.03-.01.056-.01.238 0 .238.794-1.616.718-2.547.784-.275.02-.56.02-.673 0-1.39-.11-.156-.024-.288-.024-.74 0-.782.734-.686-.816-.49-1.11 1.616-.718 2.612-2.024zM23.651 2.25l-.077.001q-.743.025-.792.302-.293.115-.547.188-.253.073-.473.27-.22.195-.49.35-.27.155-.318.27-.082.18.147.392 0 .18.163.293.033 0 .074.278.04.278.302.408.326-.049.424-.188.083-.118.214-.118.023 0 .047.004.164.025.245.27-.065.244-.188.865-.122.62 0 .914.123.294-.432.661-.424.28-1.16.28-.23 0-.49-.027-.566-.157-.91-.157-.37 0-.485.182-.22.35.04.612h.638q1.465.053 2.482.053 2.449 0 2.293-.306-.177-.348.288-.348.114 0 .267.021.24.033.527.033.64 0 1.514-.163 1.265-.237 1.648-.441.246-.13.533-.13.16 0 .333.04.481.114.58.408-.214.392-.742.392-.241 0-.549-.082-.513-.137-.843-.137-.299 0-.446.113-.31.237-.033.563h5.306q.539-.49.228-1.134-.31-.645-1.044-1.225-.735-.58-1.617-1.053.23-.201.445-.201.272 0 .519.324.258.34.438.34.127 0 .215-.169-.582-1.041-1.214-1.041-.042 0-.084.004-.678.074-1.233.76-.672.169-1.252.169-1.266 0-2.095-.806-.457-1.16-1.093-1.608-.604-.426-1.303-.426zm-2.73 7.58a2.73 2.73 0 0 0-.246.014c-1.189.127-2.034 1.33-1.847 2.497.082.867.62 1.353 1.211 1.832 1.757 1.076 1.264.68 3.035 1.577l.284-.53c-2.108-.988-2.362-1.145-3.02-1.578-.538-.434-.964-.912-.927-1.637-.015-.501.284-1.017.62-1.264.27-.202.614-.321.95-.321.254 0 .494.06.703.21.53.26.822 1.128.433 1.674-.179.261-.5.44-.822.44a.76.76 0 0 1-.448-.141c-.27-.15-.471-.673-.195-.965-.127-.134-.306-.299-.44-.299-.09 0-.158.068-.203.225-.299.717.18 1.532.897 1.727.128.037.255.06.382.06.822 0 1.585-.688 1.585-1.54.074-.995-.718-1.907-1.712-1.967a2.416 2.416 0 0 0-.24-.015zm9.725 0a2.73 2.73 0 0 0-.247.014c-1.189.127-2.033 1.33-1.846 2.497.082.867.62 1.353 1.21 1.832 1.757 1.076 1.264.68 3.036 1.577l.284-.53c-2.108-.988-2.363-1.145-3.02-1.578-.539-.434-.965-.912-.927-1.637-.015-.501.284-1.017.62-1.264.27-.202.613-.321.95-.321.254 0 .493.06.702.21.531.26.823 1.128.434 1.674-.18.261-.501.44-.823.44a.76.76 0 0 1-.448-.141c-.27-.15-.471-.673-.194-.965-.128-.134-.307-.299-.442-.299-.09 0-.156.068-.201.225-.3.717.18 1.532.897 1.727.127.037.254.06.381.06.822 0 1.585-.688 1.585-1.54.075-.995-.718-1.907-1.712-1.967a2.416 2.416 0 0 0-.24-.015zM41.2 5.303l.71 1.66q-.355.118-.71.118-.356 0-.712-.119l.712-1.66zm0-1.304l-1.557 3.408q.727.326 1.557.326t1.556-.326L41.2 4zm2.104-1.097q.118 2.445.696 4.624-.711.8-2.8.8-2.09 0-2.801-.8.578-2.179.696-4.624zm-5.098-.652q-.356 0-.356.326t.356.326q.089.074.282.163-.119 2.164-.815 4.86 1.304 1.068 3.527 1.068 2.222 0 3.526-1.067-.696-2.697-.815-4.86.193-.09.282-.164.356 0 .356-.326t-.356-.326zM41.2 12.825q2.33 0 4.943 1.126-2.613 1.095-4.943 1.095-2.316 0-4.944-1.095 2.628-1.126 4.944-1.126zm0-.72q-2.879 0-6.617 1.83Q38.32 15.75 41.2 15.75q2.878 0 6.616-1.815-3.723-1.83-6.616-1.83zm14.329-9.416c-.022 3.239-.048 6.477-.068 9.716.047.525.075 1.051.136 1.574.035.28.218.54.178.827-.06.193-.187.496-.401.496a.3.3 0 0 1-.156-.049c-.347-.134-.678-.355-1.061-.355a.685.685 0 0 0-.064.003h-.057c-.728 0-1.443.16-2.165.23-.395.057-.788.147-1.188.147h-.05c.722-.164 1.435-.44 2.004-.926.774-.602 1.551-1.2 2.324-1.805.105-.129-.05-6.71-.102-9.835l.67-.023zm.393-.439c-.382.013-.952.007-1.333.03-.203.06-.168.288-.165.452l.158 9.566c-.845.646-1.683 1.302-2.533 1.942a4.332 4.332 0 0 1-1.582.604c-.248-.002-.499-.13-.746-.13a.573.573 0 0 0-.237.048c-.19.146-.256.547-.001.67.384.206.812.284 1.242.284.272 0 .545-.031.81-.081.613-.105 1.233-.166 1.849-.253.202-.017.413-.045.62-.045.224 0 .444.032.647.143.243.107.511.27.782.27a.6.6 0 0 0 .272-.063c.284-.177.448-.507.517-.826.057-.416-.224-.784-.22-1.198-.031-.453-.083-.904-.103-1.357.023-3.273.15-10.056.023-10.056zm3.116 0c-.698 0-1.31.513-1.31 1.171V15.75h.853V3.421c0-.322.284-.427.462-.427.187 0 .475.131.475.527v8.103h.852V3.521c0-.66-.653-1.271-1.332-1.271zm7.551 6.269c1.02 1.145 1.864 2.453 2.616 3.781.158.195-.02.374-.15.559-.496-1.575-1.637-2.79-2.466-4.34zm-.987-5.783c.085.396-.072.854-.373.989l.097.205c.375-.178.736-.713.79-1.193.513.03.654.417.734.865.096.307-.001 1.05.387 1.179 1.147.444 2.023.957 2.81 1.734 1.358 1.698 2.777 3.342 4.135 5.042.528.662 1.01 1.268 1.402 1.725-2.062-1.542-4.366-2.72-6.627-3.946-1.201-.652-2.347-1.186-2.347-2.623 0-.773 1.424-1.42 1.365-1.521-.005-.01-.021-.013-.047-.013-.293 0-1.79.555-1.79 1.725 0 .324.087.625.238.905h-.007c-1.64-.87-1.38-2.63-1.317-4.18-.682-.038-1.244-.41-1.891-.565.502-.065 1.003-.15 1.507-.201a.4.4 0 0 0-.239.15c-.008.166.179.239.361.239.178 0 .352-.07.335-.19a.457.457 0 0 0-.39-.206c.25-.036.584-.09.867-.12zm2.867 9.977c.147.357.223.736.306 1.11.24-.193.471-.392.667-.628-.127.694-.366 1.395-.944 1.395-.35 0-.513-.237-.288-.954.106-.338.19-.66.259-.923zm-.629-3.438c2.34 1.247 4.658 2.506 6.872 3.969.521.422.986.893 1.3 1.334-.208.324-.605.435-.972.46-1.874-.066-2.607-1.872-3.597-3.162l-.539-.654.093.838c.007.15.161.864-.07.864a.17.17 0 0 1-.067-.016l-.947-1.134c-.1.067-.196.143-.3.205-.47-.95-1.158-1.836-1.773-2.704zM65.82 2.25c-.492 0-.996.088-1.474.133-.57.278-1.147.066-1.744.283-.432.194-.553.587-.732.98.255-.085.486-.12.705-.12.696 0 1.257.351 1.993.538-.002.37-.06.788-.087 1.21-.114 1.145.489 2.15 1.36 2.865.625 1.39 1.49 2.457 2.12 3.542-.075.488-.529 2.327-.752 2.988a8.341 8.341 0 0 1-1.366.115 7.003 7.003 0 0 1-.592-.024c-.355 0-.745.606-1.127.93l7.771.06c-.198-.7-1.579-1.072-2.07-1.072a.685.685 0 0 0-.075.003c.173-.495.39-.96.45-1.653.218.195.46.404.764.426.372-.028.522-.281.57-.612.84 1.39 1.78 2.526 3.506 2.693.596-.029 1.338-.29 1.5-.923.79-.044.21-.815-.083-1.116-2.152-2.33-3.928-4.988-6.054-7.334-.818-.808-1.743-1.354-2.888-1.807-.085-.21-.113-.507-.168-.835-.06-.357-.252-.942-.6-1.124a2.667 2.667 0 0 0-.927-.146zm9.163 0c-.075 0-.15.007-.225.014-1.084.116-1.854 1.213-1.684 2.277.075.79.566 1.234 1.105 1.67 1.602.982 1.152.62 2.768 1.439l.26-.484c-1.924-.9-2.155-1.043-2.755-1.439-.491-.395-.88-.832-.846-1.493-.013-.457.26-.927.566-1.152.246-.184.56-.293.866-.293.232 0 .45.054.64.19.485.24.75 1.03.396 1.528a.94.94 0 0 1-.75.402.694.694 0 0 1-.409-.13c-.245-.136-.43-.613-.177-.879-.116-.123-.28-.273-.402-.273-.082 0-.143.062-.184.205-.273.654.163 1.398.818 1.575.116.034.232.054.348.054.75 0 1.445-.627 1.445-1.404.068-.907-.655-1.739-1.561-1.793a2.204 2.204 0 0 0-.219-.014zm10.33.616q.82 0 1.495.409 1.374.797 2.604.797 1.238 0 2.27-.106v2.126q-1.282-.228-1.852-.228h-.015q-.463 0-1.29.106-3.365.463-4.192.463-1.375 0-2.59-.045-2.08-.122-2.285-.22-.198-.092-.198-.524 0-.426.114-.744.114-.32.38-.456 6.5-.289 7.008-.334-.452-.654-1.403-.654-.308 0-.67.07-1.21.238-1.866.238-.138 0-.252-.011-.645-.06-.6-.615.363.049.749.049.811 0 1.727-.216.451-.105.866-.105zm.193-.616q-.328 0-.65.083-1.298.342-2.285.357-.243 0-.873-.122-.296.274-.296.646t.235.63q-2.483.091-2.483.296-.448.57-.448 1.367 0 .79.418 1.078 1.26.403 5.064.403.608 0 1.238-.061 3.523-.524 4.2-.54h.066q.694 0 2.545.29V3.32l-.015.015q-1.587.183-2.59.205-.05.002-.102.002-.954 0-1.963-.533-1.067-.759-2.06-.759zm-3.273 9.81l.711 1.66q-.355.118-.71.118-.357 0-.712-.118l.711-1.66zm0-1.304l-1.556 3.408q.726.326 1.556.326.83 0 1.556-.326l-1.556-3.408zm2.104-1.097q.119 2.445.697 4.624-.711.8-2.8.8-2.09 0-2.802-.8.578-2.179.697-4.624zm-5.097-.652q-.356 0-.356.326t.356.326q.089.074.281.163-.118 2.164-.815 4.861 1.304 1.067 3.527 1.067t3.527-1.067q-.696-2.697-.815-4.86.193-.09.282-.164.355 0 .355-.326t-.355-.326zm10.522.729c-.084 0-.167.008-.25.015-1.208.13-2.066 1.352-1.876 2.537.083.88.63 1.374 1.23 1.86 1.784 1.093 1.283.69 3.083 1.602l.288-.54c-2.141-1.001-2.4-1.16-3.067-1.601-.547-.44-.98-.927-.942-1.663-.015-.509.289-1.033.63-1.283a1.64 1.64 0 0 1 .965-.327c.258 0 .5.06.713.213.54.265.836 1.146.44 1.7a1.047 1.047 0 0 1-.835.449.773.773 0 0 1-.455-.145c-.274-.152-.479-.683-.198-.98-.129-.136-.31-.303-.448-.303-.09 0-.159.068-.205.228-.303.729.183 1.556.912 1.754.129.038.258.06.387.06.835 0 1.61-.698 1.61-1.564.076-1.01-.73-1.936-1.74-1.997a2.454 2.454 0 0 0-.242-.015zm10.13-6.816q2.168 0 4.598 1.047-2.43 1.019-4.598 1.019-2.153 0-4.598-1.019 2.445-1.048 4.598-1.048zm0-.67q-2.677 0-6.155 1.702 3.478 1.688 6.155 1.688t6.155-1.688q-3.463-1.702-6.155-1.702zM96.41 8.792c.658 0 1.48.337 1.879.736.348.348.394.81.407 1.24h-4.552c.013-.43.058-.892.407-1.24.398-.399 1.202-.736 1.86-.736zm0-.368c-.78 0-1.62.36-2.111.852-.505.504-.562 1.169-.562 1.666v.193h5.346v-.193c0-.497-.038-1.162-.542-1.666-.492-.492-1.35-.852-2.13-.852zm6.594-1.559l-.013.006 2.22 4.252h.836l-2.219-4.258zm-1.86.006l-.837.006 2.22 4.258.836-.006-2.219-4.258zm-1.252 6.158q2.168 0 4.598 1.048-2.43 1.018-4.598 1.018-2.153 0-4.598-1.018 2.445-1.048 4.598-1.048zm0-.67q-2.677 0-6.155 1.703 3.478 1.688 6.155 1.688t6.155-1.688q-3.463-1.702-6.155-1.702z"/><path d="M8.22.375c-9.625 0-9.625 17.25 0 17.25m0-17.25h97.827M8.22 17.625h97.827m7.687-17.25v17.25M106.047.375c9.625 0 9.625 17.25 0 17.25" fill="none" stroke="#000"/></svg>