<svg xmlns="http://www.w3.org/2000/svg" width="76.74" height="18"><path d="M9.25 7.008c.03 0 .063.001.096.004.42.03.88.19 1.38.48-.5.31-.96.478-1.38.503a1.333 1.333 0 0 1-.08.002c-.366 0-.545-.168-.536-.505-.009-.322.164-.484.52-.484zm0 2.987c.03 0 .063.001.096.004.42.03.88.19 1.38.48-.5.31-.96.478-1.38.503a1.334 1.334 0 0 1-.08.002c-.366 0-.545-.168-.536-.505-.009-.322.164-.484.52-.484zm-.055-3.48l-.082.001c-.535.02-.833.346-.893.976.079.67.364 1.006.856 1.006h.022c.505-.01 1.213-.19 2.124-.54h8.676c.71.06 1.068.39 1.073.99.005.6-.353.966-1.073 1.096h-8.676c-.827-.361-1.503-.542-2.027-.542l-.082.001c-.535.02-.833.346-.893.976.079.67.364 1.006.856 1.006h.022c.505-.01 1.213-.19 2.124-.54h8.289c1.02 0 1.722-.32 2.106-.961.395-.66.395-1.321 0-1.982-.379-.631-1.066-.947-2.062-.947-.045 0-.09 0-.137.002h-8.196c-.827-.361-1.503-.542-2.027-.542zM24.97 3.093q1.51.22 1.579 1.382v8.382q-.706-.843-2.536-1.184l.956-8.58zm-.426-.843l-1.131 10.022q2.52.289 3.136 1.8v1.678h.751V4.475q0-1.883-2.756-2.225zm5.813.843q1.511.22 1.58 1.382v8.382q-.707-.843-2.537-1.184l.957-8.58zm-.425-.843L28.8 12.272q2.521.289 3.136 1.8v1.678h.752V4.475q0-1.883-2.756-2.225zm10.468.439c-.021 3.239-.047 6.477-.067 9.716.047.525.074 1.051.135 1.574.036.28.218.54.178.827-.059.193-.186.496-.4.496a.3.3 0 0 1-.156-.049c-.348-.134-.679-.355-1.061-.355a.707.707 0 0 0-.065.003h-.056c-.728 0-1.443.16-2.165.23-.395.057-.788.147-1.188.147h-.051c.722-.164 1.436-.44 2.005-.926.774-.602 1.551-1.2 2.324-1.805.105-.129-.05-6.71-.102-9.835l.67-.023zm.394-.439c-.382.013-.952.007-1.333.03-.204.06-.168.288-.165.452l.158 9.566c-.846.646-1.684 1.302-2.534 1.942a4.332 4.332 0 0 1-1.581.604c-.248-.002-.5-.13-.746-.13a.573.573 0 0 0-.237.048c-.19.146-.257.547-.001.67.384.206.811.284 1.242.284.272 0 .545-.031.81-.081.613-.105 1.232-.166 1.848-.253.203-.017.413-.045.62-.045.225 0 .445.032.647.143.244.107.512.27.783.27.09 0 .181-.018.272-.063.284-.177.448-.507.517-.826.057-.416-.224-.784-.22-1.198-.032-.453-.083-.904-.103-1.357.023-3.273.149-10.056.023-10.056zm8.423 5.647q2.331 0 4.943 1.126-2.612 1.095-4.943 1.095-2.315 0-4.943-1.095 2.628-1.126 4.943-1.126zm0-.72q-2.878 0-6.616 1.83 3.738 1.815 6.616 1.815 2.879 0 6.617-1.814-3.723-1.83-6.617-1.83zm9.363-4.252q1.209.176 1.264 1.105v6.709q-.565-.675-2.03-.948l.766-6.866zm-.34-.675l-.906 8.021q2.018.231 2.51 1.44v1.343h.601V4.03q0-1.507-2.206-1.78zm8.385.675q1.209.176 1.264 1.105v6.709q-.565-.675-2.03-.948l.766-6.866zm-.34-.675l-.906 8.021q2.018.231 2.51 1.44v1.343h.601V4.03q0-1.507-2.205-1.78zM62.08 14.255c-.083 0-.166.01-.25.03-.168.042-.35.135-.546.28h-3.95v.874h3.95c.196.146.378.239.546.28a1.048 1.048 0 0 0 .498 0c.165-.041.33-.134.494-.28h.152c.158.146.321.239.489.28a1.053 1.053 0 0 0 .503 0 1.48 1.48 0 0 0 .537-.28h3.987v-.873h-3.987a1.488 1.488 0 0 0-.537-.28 1.053 1.053 0 0 0-.503 0 1.12 1.12 0 0 0-.49.28h-.151a1.194 1.194 0 0 0-.494-.28 1.02 1.02 0 0 0-.248-.031z"/><path d="M8.22.375c-9.625 0-9.625 17.25 0 17.25m0-17.25h60.27M8.22 17.625h60.27M76.178.375v17.25M68.49.375c9.625 0 9.625 17.25 0 17.25" fill="none" stroke="#000"/></svg>