<svg xmlns="http://www.w3.org/2000/svg" width="78.136" height="18"><path d="M12.938 8.519c1.02 1.145 1.864 2.453 2.617 3.781.158.195-.02.374-.15.559-.496-1.575-1.637-2.79-2.467-4.34zm-.987-5.783c.085.396-.071.854-.372.989l.096.205c.376-.178.737-.713.79-1.193.514.03.654.417.735.865.096.307-.002 1.05.386 1.179 1.147.444 2.024.957 2.81 1.734 1.359 1.698 2.778 3.342 4.136 5.042a69.07 69.07 0 0 0 1.401 1.725c-2.062-1.542-4.366-2.72-6.626-3.946-1.202-.652-2.348-1.186-2.348-2.623 0-.773 1.424-1.42 1.366-1.521-.005-.01-.022-.013-.048-.013-.292 0-1.789.555-1.789 1.725 0 .324.087.625.238.905h-.007c-1.641-.87-1.38-2.63-1.317-4.18-.682-.038-1.244-.41-1.892-.565.503-.065 1.003-.15 1.507-.201a.4.4 0 0 0-.238.15c-.009.166.178.239.36.239.179 0 .352-.07.335-.19a.457.457 0 0 0-.39-.206c.25-.036.584-.09.867-.12zm2.867 9.977c.147.357.224.736.307 1.11.239-.193.47-.392.667-.628-.128.694-.366 1.395-.945 1.395-.35 0-.512-.237-.288-.954.106-.338.19-.66.26-.923zm-.628-3.438c2.34 1.247 4.658 2.506 6.872 3.969.52.422.985.893 1.3 1.334-.209.324-.606.435-.973.46-1.874-.066-2.607-1.872-3.597-3.162l-.538-.654.093.838c.006.15.16.864-.07.864a.17.17 0 0 1-.067-.016l-.947-1.134c-.101.067-.197.143-.301.205-.47-.95-1.157-1.836-1.772-2.704zM12.17 2.25c-.492 0-.996.088-1.474.133-.57.278-1.147.066-1.745.283-.431.194-.552.587-.731.98.254-.085.486-.12.704-.12.697 0 1.257.351 1.993.538-.001.37-.059.788-.087 1.21-.114 1.145.49 2.15 1.361 2.865.625 1.39 1.489 2.457 2.12 3.542-.076.488-.53 2.327-.753 2.988a8.341 8.341 0 0 1-1.365.115 7.003 7.003 0 0 1-.593-.024c-.355 0-.744.606-1.127.93l7.772.06c-.198-.7-1.58-1.072-2.07-1.072a.685.685 0 0 0-.075.003c.173-.495.389-.96.45-1.653.217.195.46.404.764.426.371-.028.522-.281.569-.612.84 1.39 1.781 2.526 3.506 2.693.596-.029 1.339-.29 1.5-.923.79-.044.21-.815-.083-1.116-2.151-2.33-3.927-4.988-6.053-7.334-.819-.808-1.743-1.354-2.888-1.807-.085-.21-.113-.507-.169-.835-.06-.357-.251-.942-.6-1.124a2.667 2.667 0 0 0-.926-.146zm9.163 0c-.075 0-.15.007-.225.014-1.084.116-1.855 1.213-1.684 2.277.075.79.566 1.234 1.104 1.67 1.603.982 1.153.62 2.769 1.439l.259-.484c-1.923-.9-2.155-1.043-2.755-1.439-.49-.395-.88-.832-.845-1.493-.014-.457.259-.927.566-1.152.245-.184.559-.293.866-.293.231 0 .45.054.64.19.485.24.75 1.03.396 1.528a.94.94 0 0 1-.75.402.694.694 0 0 1-.41-.13c-.245-.136-.429-.613-.176-.879-.116-.123-.28-.273-.403-.273-.082 0-.143.062-.184.205-.273.654.164 1.398.818 1.575.116.034.232.054.348.054.75 0 1.446-.627 1.446-1.404.068-.907-.655-1.739-1.562-1.793a2.204 2.204 0 0 0-.218-.014zm7.25 3.053l.711 1.66q-.356.118-.711.118-.356 0-.712-.119l.712-1.66zm0-1.304l-1.556 3.408q.726.326 1.556.326.83 0 1.556-.326L28.583 4zm2.104-1.097q.119 2.445.697 4.624-.712.8-2.801.8-2.09 0-2.801-.8.578-2.179.696-4.624zm-5.098-.652q-.355 0-.355.326t.355.326q.09.074.282.163-.119 2.164-.815 4.86 1.304 1.068 3.527 1.068t3.527-1.067q-.697-2.697-.815-4.86.192-.09.281-.164.356 0 .356-.326t-.356-.326zm11.295 3.872c.806 0 1.814.413 2.302.901.427.427.483.993.498 1.519h-5.576c.016-.526.071-1.092.498-1.519.488-.488 1.473-.901 2.278-.901zm0-.451c-.955 0-1.984.441-2.586 1.044-.618.618-.688 1.432-.688 2.04v.238h6.549v-.238c0-.608-.047-1.422-.665-2.04-.602-.603-1.654-1.044-2.61-1.044zm-4.277 6.741q2.66 0 5.642 1.285-2.982 1.25-5.642 1.25-2.642 0-5.641-1.25 3-1.285 5.641-1.285zm0-.822q-3.285 0-7.551 2.09 4.266 2.07 7.551 2.07t7.552-2.07q-4.25-2.09-7.552-2.09zM48.74 2.91q.878 0 1.602.438 1.473.855 2.791.855 1.327 0 2.434-.114v2.278q-1.376-.244-1.986-.244h-.016q-.497 0-1.384.114-3.605.497-4.492.497-1.473 0-2.775-.05-2.23-.13-2.45-.235-.211-.098-.211-.562 0-.456.122-.797.122-.342.407-.489 6.966-.309 7.511-.358-.485-.7-1.504-.7-.33 0-.717.074-1.298.255-2.001.255-.148 0-.27-.011-.692-.065-.643-.66.389.053.803.053.869 0 1.85-.231.484-.113.929-.113zm.207-.66q-.353 0-.696.089-1.392.366-2.45.383-.26 0-.936-.13-.317.292-.317.691 0 .399.252.675-2.661.098-2.661.318-.48.61-.48 1.465 0 .846.447 1.155 1.351.432 5.428.432.651 0 1.327-.065 3.776-.562 4.5-.578l.072-.001q.744 0 2.728.31V3.397l-.016.016q-1.701.196-2.776.22l-.11.002q-1.022 0-2.103-.572-1.144-.813-2.209-.813zm-2.519 7.626q.216 0 .299.216-.107-.043-.182-.043-.16 0-.183.192-.033.34-.184.34h-.007q-.157-.008-.224-.141 0-.1.249-.332.116-.232.232-.232zm.238.296q.06 0 .06.086-.03.334-.255.334-.02 0-.043-.003v-.033l.066-.15q.016-.232.134-.232h.016l.022-.002zm-1.477.189q-.15 0-.278.087-.158.108-.091.373h.066q.017-.165.1-.273.082-.108.273-.108.19 0 .19-.05l-.19-.025q-.036-.004-.07-.004zm-.005.145q-.198 0-.198.282v.1q.016.003.03.003.056 0 .069-.053.282-.066.415-.232-.117-.1-.316-.1zm-.298.431q-.083.117-.017.29.067.175.83.241l.116-.05q-.962-.066-.863-.447l-.066-.034zm1.078-.795q-.216.149-.166.38.033.1.199.167.15.066.116.348.033.613-.514.945-.083-.199-.323-.215l-.045-.002q-.205 0-.295.142-.07.111-.165.111-.04 0-.084-.02-.027.007-.05.007-.151 0-.166-.272.166-.016.233-.066.066-.05.248-.116-.08-.092-.165-.092-.037 0-.075.017-.124.058-.257.092-.282-.05-.216-.282-.166-.183-.116-.315.365-.233.605-.44t.54-.249q.298-.041.696-.14zm.978-.15q.431.033.912.49.481.455.564.936-.895 1.31-2.537 2.09-.066-.697.232-1.393.547-.498.481-.838-.066-.34.216-.456.63-.116.132-.829zm6.084 2.801l.052.002q.746.132 1.36.671.613.54.878 1.335.05.083-.365.083-1.74-.73-2.205-1.476-.205-.615.28-.615zm-4.426-.827q1.034.99 2.635.99.275 0 .566-.029.03-.01.056-.01.242 0 .242.806-1.641.73-2.587.796-.28.02-.568.02-.684 0-1.413-.111-.158-.024-.292-.024-.752 0-.794.745-.697-.829-.498-1.127 1.642-.73 2.653-2.056zm-2.02-2.414h-.077q-.755.026-.804.308-.299.116-.556.19-.257.075-.48.274-.225.199-.498.356-.274.158-.324.274-.083.182.15.398 0 .182.165.298.034 0 .075.282.041.282.307.415.331-.05.43-.19.085-.12.218-.12.023 0 .048.003.166.025.249.274-.066.248-.19.879-.125.63 0 .928.124.299-.44.672-.43.284-1.178.284-.233 0-.497-.027-.575-.16-.925-.16-.377 0-.493.185-.224.356.042.621h.646q1.489.054 2.521.054 2.488 0 2.33-.31-.18-.353.292-.353.116 0 .271.02.244.034.536.034.65 0 1.537-.166 1.285-.24 1.675-.448.25-.132.54-.132.163 0 .339.041.49.116.589.415-.217.398-.753.398-.245 0-.557-.083-.522-.14-.857-.14-.304 0-.453.115-.315.24-.034.572h5.39q.547-.497.232-1.152-.315-.655-1.062-1.244-.746-.589-1.641-1.07.234-.204.452-.204.276 0 .526.329.263.345.446.345.128 0 .217-.171-.59-1.058-1.233-1.058-.042 0-.085.005-.688.075-1.252.771-.682.172-1.272.172-1.286 0-2.127-.819-.464-1.177-1.111-1.633-.613-.432-1.323-.432zm17.975-5.738q-.19 0-.25.06-.053.061-.144.061v.068l.106.016q.118.117.313.117.145 0 .332-.064l.19.053.015-.137-.167-.015q-.243-.137-.395-.16zm.995-1.216q.35 0 .813.107.782.175.79.987.007.805-.456 1.177-.245.204-.446.204-.173 0-.314-.15-.136-.137-.053-.221.22-.068.205-.342.236-.288.236-.493.014-.358-.329-.358h-.028q-.152.016-.258.1-.672-.446-1.183-.446-.055 0-.108.005.22-.387.69-.516.193-.054.44-.054zm2.134 5.103q.296.608 1.161 1.77-.326-.22-1.602-.464l.44-1.306zm-3.149-4.278q.48 0 1.023.413l-.054.152q.064.037.124.037.026 0 .051-.006.122-.32.273-.32l.035-.002q.146 0 .133.185 0 .19-.205.425 0 .21-.103.21-.016 0-.034-.005-.137-.03-.114-.152-.091.342.16.866l.371.812q.13.281.41.297.281.015.646.083.364.068.197.494-.167.425-.698 1.905l-.357-.167q-.372-.751-1.29-1.275-.176.167.067.44l-.273.6q-.053.357.273.562.456.205 1.003.205l.478.387-.137 2.506-1.366.304q-1.071-3.425-1.276-3.721-.205-.296-.114-1.693-.038-.479.782-.479.85 0 .782-.387l-.106-.311q-.084-.289-.068-.357-.067-.018-.156-.018-.133 0-.315.04-.172.016-.297.016-.25 0-.31-.06-.092-.092-.061-.251l.243-.084q.083-.045.03-.152l-.342-.03q.122-.258-.03-.342l-.043.002q-.162 0-.162-.108.053-.099.213-.365.159-.265.387-.341.102-.033.203-.033.131 0 .26.055.228.092.433.145l.038-.091q-.19-.046-.395-.152-.198-.103-.368-.103-.171 0-.315.103.037-.137.106-.205.131-.034.268-.034zm-2.941 7.171l2.794 1.937-3.12.941q.106-2.164-.289-2.878zm4.989 1.823q.319 1.222-.38 2.126-.626.373-1.409.373-.538 0-1.15-.176-.627-.184-1.228-.184-.84 0-1.627.359.137-.479 2.233-1.564l3.56-.934zM65.659 2.25q-.243 0-.489.037-.85.1-1.245 1.17-.053.288-.258.539-.205.243-.266.539 0 .167.213.175.212.007.053.144-.068.015-.053.068.007.053.053.069-.099.106 0 .144.106.045.076.152-.023.114.038.28.06.175.607.175l.471-.068q-.03.114.038.273-1.367.015-1.7.593-1.147.956-2.18 2.027-.205-.425-.934-1.162-.721-.729-.843-1.07-.25-.745-1.07-1.413-.183.137 0 .44l-.342.547q-.099.357.19.6.44.266.903.562 1.276 2.263 1.868 2.445.033.005.069.005.45 0 1.351-.802.893-.78 1.059-.78.059 0 .027.096 0 .494.205.843.205.35 1.002 3.174L62.02 10.2q-.562-.508-.987-.508-1.192.015-1.055.987l.425 3.03q-.904.22-.835 1.359-.41.083-.752.235-.276.12-.557.12-.06 0-.119-.006l-.04-.001q-.31 0-.438.335h12.065q-.308-.603-.834-.603-.11 0-.229.026-.115.025-.217.025-.507 0-.71-.625-.149-.473-.43-.473-.162 0-.366.154.546-1.055.03-2.217.023-1.26.106-2.248 1.785.562 2.362.562.448-.045.448-.387-.395-1.534-1.823-3.424-.288-.578-1.48-.63-.205-.274-.22-.48.493-.113.827-.515.342-.403.334-1.306-.007-.896-.782-1.17-.536-.189-1.083-.189z"/><path d="M8.22.375c-9.625 0-9.625 17.25 0 17.25m0-17.25h61.666M8.22 17.625h61.666M77.573.375v17.25M69.886.375c9.625 0 9.625 17.25 0 17.25" fill="none" stroke="#000"/></svg>