<svg xmlns="http://www.w3.org/2000/svg" width="95.197" height="18"><path d="M9.909 2.25L8.22 4.247h.824l.865-1.032.873 1.032.849-1.032.874 1.032.865-1.032.873 1.032.865-1.032.874 1.032.849-1.032.873 1.032.874-1.032.848 1.032.874-1.032.865 1.032h.824l-1.69-1.997-.873.965-.848-.965-.874.965-.873-.965-.849.965-.874-.965-.865.965-.873-.965-.865.965-.874-.965-.849.965-.873-.965zm1.894 8.009c.774.87 1.416 1.863 1.987 2.871.12.148-.015.284-.114.425-.377-1.196-1.243-2.119-1.873-3.296zm-.75-4.392c.065.301-.054.649-.282.751l.073.156c.285-.135.56-.541.6-.906.39.023.496.317.557.657.073.233 0 .798.294.895.871.337 1.537.727 2.134 1.317 1.031 1.29 2.11 2.538 3.14 3.83.4.501.767.962 1.065 1.309-1.566-1.17-3.316-2.066-5.032-2.996-.913-.496-1.783-.901-1.783-1.993 0-.587 1.081-1.078 1.037-1.155-.004-.006-.017-.01-.036-.01-.222 0-1.359.422-1.359 1.31 0 .247.066.475.18.688h-.005c-1.246-.66-1.048-1.997-1-3.175-.518-.028-.944-.311-1.436-.429.381-.05.762-.113 1.144-.152a.303.303 0 0 0-.181.114c-.006.126.136.181.274.181.135 0 .267-.053.254-.144a.347.347 0 0 0-.296-.157c.19-.027.444-.067.658-.09zm2.178 7.577c.111.271.17.558.232.843.182-.147.358-.298.507-.478-.097.528-.278 1.06-.717 1.06-.266 0-.39-.18-.219-.724.08-.257.144-.502.197-.701zm-.478-2.61c1.778.946 3.538 1.902 5.219 3.013.396.32.748.678.987 1.013-.158.246-.46.33-.739.35-1.422-.05-1.98-1.422-2.73-2.402l-.41-.497.07.637c.006.114.123.656-.052.656a.13.13 0 0 1-.051-.012l-.72-.861c-.076.05-.149.108-.228.155-.357-.722-.879-1.393-1.346-2.053zM11.22 5.497c-.373 0-.756.067-1.119.101-.432.211-.87.05-1.325.215-.327.147-.42.446-.555.744a1.68 1.68 0 0 1 .535-.09c.529 0 .954.266 1.513.408 0 .28-.045.599-.066.92-.086.868.372 1.631 1.034 2.174.474 1.056 1.13 1.866 1.61 2.69-.058.37-.403 1.767-.572 2.269a6.334 6.334 0 0 1-1.037.087 5.318 5.318 0 0 1-.45-.018c-.27 0-.566.46-.856.706l5.902.046c-.15-.532-1.2-.814-1.572-.814a.52.52 0 0 0-.057.002c.131-.376.295-.73.342-1.255.165.148.35.307.58.324.282-.022.396-.214.432-.465.638 1.056 1.352 1.918 2.662 2.045.453-.022 1.017-.22 1.14-.701.6-.034.16-.619-.064-.848-1.633-1.768-2.982-3.787-4.596-5.569-.622-.613-1.324-1.028-2.193-1.372-.065-.16-.086-.385-.128-.634-.046-.271-.191-.716-.456-.854a2.025 2.025 0 0 0-.704-.11zm7.97.001l-.01.006 2.04 3.91h.769l-2.04-3.916zm-1.709.006l-.769.006 2.04 3.915.77-.006-2.04-3.915zm10.777.721q.216 0 .299.216-.107-.042-.182-.042-.16 0-.183.191-.033.34-.184.34h-.007q-.157-.008-.224-.14 0-.1.249-.332.116-.233.232-.233zm.238.297q.06 0 .06.085-.03.334-.255.334-.02 0-.043-.003v-.033l.066-.149q.016-.233.134-.233h.016l.022-.001zm-1.477.188q-.15 0-.278.087-.158.108-.091.374h.066q.017-.166.1-.274.082-.108.273-.108.19 0 .19-.05l-.19-.024q-.036-.005-.07-.005zm-.005.146q-.199 0-.199.281v.1q.017.003.031.003.056 0 .069-.053.282-.066.414-.232-.116-.1-.315-.1zm-.298.43q-.083.117-.017.29.067.175.83.241l.116-.05q-.962-.066-.863-.447l-.066-.033zm1.078-.795q-.216.149-.166.381.033.1.199.166.15.066.116.348.033.614-.514.945-.083-.199-.323-.215l-.045-.002q-.205 0-.295.143-.07.11-.165.11-.04 0-.084-.02-.027.008-.05.008-.151 0-.166-.272.166-.017.233-.067.066-.05.248-.116-.08-.092-.165-.092-.037 0-.075.018-.125.058-.257.09-.282-.049-.216-.281-.166-.183-.116-.315.365-.232.605-.44.24-.207.54-.248.298-.042.696-.141zm.978-.15q.431.034.912.49.481.456.564.937-.895 1.31-2.537 2.089-.066-.697.232-1.393.547-.497.48-.837-.065-.34.216-.456.63-.116.133-.83zm6.084 2.801l.052.002q.746.133 1.36.671.613.54.878 1.335.05.083-.365.083-1.74-.73-2.205-1.476-.205-.615.28-.615zm-4.426-.827q1.034.99 2.635.99.274 0 .566-.028.03-.01.056-.01.242 0 .242.805-1.641.73-2.587.796-.28.02-.568.02-.684 0-1.413-.11-.158-.025-.292-.025-.752 0-.794.746-.697-.83-.498-1.128 1.642-.73 2.653-2.056zM28.41 5.9l-.077.001q-.755.025-.805.307-.298.116-.555.19-.257.075-.48.274-.225.2-.498.357-.274.157-.324.273-.083.183.15.398 0 .183.165.299.034 0 .075.282.041.281.307.414.331-.05.43-.19.085-.12.218-.12.023 0 .048.003.166.025.249.274-.066.249-.19.879-.125.63 0 .928.124.299-.44.672-.43.285-1.179.285-.232 0-.496-.028-.575-.16-.925-.16-.377 0-.493.185-.224.356.042.622h.646q1.489.053 2.521.053 2.488 0 2.33-.31-.18-.353.292-.353.116 0 .271.021.244.033.536.033.65 0 1.537-.166 1.285-.24 1.675-.447.25-.133.54-.133.163 0 .339.041.489.117.589.415-.217.398-.753.398-.245 0-.557-.083-.522-.14-.857-.14-.304 0-.453.115-.316.24-.034.572h5.39q.547-.497.232-1.152-.315-.655-1.062-1.244-.746-.588-1.641-1.07.234-.204.452-.204.276 0 .526.329.263.345.446.345.128 0 .217-.17-.59-1.058-1.233-1.058-.042 0-.085.004-.688.075-1.252.771-.682.172-1.272.172-1.286 0-2.127-.818-.464-1.178-1.111-1.634-.613-.432-1.324-.432zm12.637-2.807q1.511.22 1.58 1.382v8.382q-.707-.843-2.536-1.184l.956-8.58zm-.425-.843l-1.131 10.022q2.52.289 3.136 1.8v1.678h.751V4.475q0-1.883-2.756-2.225zm5.813.843q1.51.22 1.58 1.382v8.382q-.707-.843-2.537-1.184l.957-8.58zm-.425-.843l-1.132 10.022q2.521.289 3.136 1.8v1.678h.752V4.475q0-1.883-2.756-2.225zm10.873 3.053l.71 1.66q-.355.118-.71.118-.356 0-.712-.119l.712-1.66zm0-1.304l-1.556 3.408q.726.326 1.556.326.83 0 1.556-.326L56.883 4zm2.104-1.097q.118 2.445.696 4.624-.711.8-2.8.8-2.09 0-2.801-.8.578-2.179.696-4.624zm-5.098-.652q-.356 0-.356.326t.356.326q.089.074.282.163-.119 2.164-.815 4.86 1.304 1.068 3.527 1.068 2.222 0 3.526-1.067-.696-2.697-.815-4.86.193-.09.282-.164.356 0 .356-.326t-.356-.326zm2.994 10.575q2.33 0 4.943 1.126-2.613 1.095-4.943 1.095-2.316 0-4.943-1.095 2.627-1.126 4.943-1.126zm0-.72q-2.879 0-6.617 1.83 3.738 1.815 6.617 1.815 2.878 0 6.616-1.815-3.723-1.83-6.616-1.83zM68.302 2.25l-.015.008 2.718 5.208h1.026L69.312 2.25zm-2.278.008L65 2.265l2.719 5.217 1.025-.008-2.719-5.216zm2.491 10.621c.805 0 1.814.414 2.302.902.426.426.482.992.498 1.518h-5.576c.015-.526.071-1.092.498-1.518.488-.488 1.472-.902 2.278-.902zm0-.451c-.956 0-1.984.441-2.586 1.044-.619.618-.689 1.432-.689 2.04v.238h6.55v-.237c0-.61-.047-1.423-.665-2.04-.603-.604-1.654-1.045-2.61-1.045zm6.572-9.335q1.511.22 1.58 1.382v8.382q-.707-.843-2.537-1.184l.957-8.58zm-.425-.843L73.53 12.272q2.52.289 3.135 1.8v1.678h.752V4.475q0-1.883-2.756-2.225zm5.813.843q1.51.22 1.579 1.382v8.382q-.706-.843-2.536-1.184l.957-8.58zm-.426-.843l-1.13 10.022q2.52.289 3.135 1.8v1.678h.752V4.475q0-1.883-2.757-2.225zm5.565 0c-.697 0-1.308.513-1.308 1.171V15.75h.852V3.421c0-.322.283-.427.462-.427.187 0 .475.131.475.527v8.103h.852V3.521c0-.66-.653-1.271-1.333-1.271z"/><path d="M8.22.375c-9.625 0-9.625 17.25 0 17.25m0-17.25h78.727M8.22 17.625h78.727M94.635.375v17.25M86.947.375c9.625 0 9.625 17.25 0 17.25" fill="none" stroke="#000"/></svg>