<svg xmlns="http://www.w3.org/2000/svg" width="89.49" height="18"><path d="M21.71 3.337zm-.003.152zM9.894 2.91v.896c-.133-.061-.264-.119-.388-.18a1.246 1.246 0 0 0-.357-.1c-.101-.015-.207-.025-.302-.045a.352.352 0 0 1-.15-.054c-.013-.01-.021-.022-.021-.07 0-.046.008-.059.02-.069a.352.352 0 0 1 .151-.054c.095-.02.2-.03.302-.046.129-.02.253-.048.357-.1.124-.06.255-.117.388-.179zm0 .896zm.455.064zm8.261-1.027c.088 0 .177 0 .265.003.495.012 1.237.13 1.851.284.304.075.575.16.769.242.03.013.057.025.082.038-.022.01-.047.019-.073.029a5.389 5.389 0 0 1-.768.203c-.617.125-1.362.216-1.86.227l-.266.003c-.896 0-1.79-.102-2.683-.206-.954-.11-1.907-.223-2.865-.223h-.146c-.838.01-1.8.104-2.567.427V2.844c.767.323 1.73.416 2.567.427h.146c.958 0 1.911-.112 2.865-.223.893-.104 1.787-.206 2.683-.206zm-8.436-.592l-.11.063c-.254.147-.521.249-.76.366a.8.8 0 0 1-.224.058c-.11.017-.222.029-.325.05a.79.79 0 0 0-.35.15.523.523 0 0 0-.185.42c0 .182.069.322.185.419a.79.79 0 0 0 .35.15c.103.022.216.033.325.05a.8.8 0 0 1 .225.058c.238.117.505.22.76.366l.109.063.111-.06c.738-.396 1.767-.494 2.637-.505h.141c.94 0 1.876.111 2.812.22.911.106 1.823.209 2.737.209.091 0 .183-.001.274-.003a12.347 12.347 0 0 0 1.941-.236c.327-.067.622-.143.837-.224.12-.045.22-.093.292-.143a.51.51 0 0 0 .117-.109.325.325 0 0 0 .07-.196.33.33 0 0 0-.067-.195.535.535 0 0 0-.113-.111 1.434 1.434 0 0 0-.289-.158 5.812 5.812 0 0 0-.837-.265c-.647-.162-1.422-.285-1.951-.298a11.625 11.625 0 0 0-.274-.003c-.914 0-1.826.103-2.737.21-.936.108-1.872.22-2.812.22h-.141c-.87-.011-1.899-.11-2.637-.506l-.11-.06zm10.368 9.339q.597 0 .597.491 0 .438-.61.438l-10.815-.013q-.584 0-.584-.451 0-.465.597-.465zm-11.025-.557q-.944 0-.944 1.022 0 1.021.968 1.021h11.28q.889 0 .889-.968 0-1.075-.868-1.075H9.517zm5.65 2.455q-.198 0-.33.126-.134.126-.134.298 0 .173.133.292.133.12.332.12t.338-.12q.14-.119.14-.292 0-.172-.14-.298t-.338-.126zm-1.512.013q-.199 0-.332.12-.132.119-.132.291 0 .173.132.299.133.126.332.126.2 0 .332-.126.133-.126.133-.299 0-.172-.133-.291-.133-.12-.332-.12zm3.039 0q-.2 0-.332.12-.133.119-.133.291 0 .173.133.299t.332.126q.199 0 .338-.126.14-.126.14-.299 0-.172-.14-.291-.139-.12-.338-.12zm-5.04.386q.178 0 .21.079.026.132-.398.358-2.236.876-2.334.876H9.13q-.019.007-.032.007-.034 0-.034-.047l-.266-.624q-.053-.066.027-.093.053-.026 2.508-.517.197-.039.321-.039zm7.048.007q.126 0 .327.045 2.469.491 2.508.518.08.026.027.092l-.252.624q-.01.047-.046.047-.015 0-.034-.007h-.002q-.084 0-2.333-.876-.412-.225-.398-.358.03-.085.203-.085zm-6.852-.405q-.115 0-.252.025-1.008.173-3.277.624-.16.066-.067.279l.425 1.14q.07.19.225.19.02 0 .04-.003 2.11-.823 3.026-1.221.597-.239.438-.69-.136-.344-.558-.344zm6.683.005q-.44 0-.578.352-.16.451.437.69.916.398 3.026 1.208.03.006.056.006.142 0 .21-.179l.424-1.141q.093-.226-.066-.279-2.256-.45-3.278-.637-.124-.02-.23-.02zm9.687-9.076c-.466 0-.778.27-.772.698.006.466.318.735.772.735.453 0 .723-.27.716-.735-.006-.429-.275-.698-.716-.698zm.052-1.55c.307 0 .613.063.921.19.59.244.987.667 1.25 1.24.267.586.248 1.178 0 1.764-.248.585-.672.968-1.25 1.213a2.282 2.282 0 0 1-.898.184 2.67 2.67 0 0 1-.948-.184c-.587-.223-.976-.654-1.24-1.213a2.072 2.072 0 0 1-.184-.89c-.001-.618.268-1.164.68-1.608.203-.22.454-.387.744-.505.31-.127.618-.191.925-.191zM28.2 2.25c-.811 0-1.448.281-2.02.854-.585.587-.834 1.225-.845 2.049-.006.476.09.896.284 1.277.154.752.163 2.01-.042 2.01-.356 0-.152-.945-.17-1.24-.03-.501-.325-.928-.676-1.267-.082-.079-.17-.165-.288-.178a3.228 3.228 0 0 0-.34-.022c-.131 0-.263.014-.384.058-.087.032-.09.155-.062.235.03.083.085.171.18.182a.608.608 0 0 0 .073.005c.117 0 .233-.03.35-.03h.015c.049 0 .104.004.139.04-.08.147-.188.29-.205.464a.453.453 0 0 0 .016.202c.23.634.369 2.091 1.32 2.091.18 0 .266-.038.324-.09.422-.393.428-1.057.403-1.608.558.525 1.188.745 1.966.756h.045c.797 0 1.432-.296 2.004-.846.155-.149.286-.302.396-.462.025.545.052 1.093.252 1.605.157.404.508.697.885.897.03.016.05.022.065.022.047 0 .018-.072-.035-.123a2.29 2.29 0 0 1-.559-.846c-.202-.555-.182-1.153-.169-1.733.008-.354.023-.709.003-1.063h-.003c.011-.108.017-.22.019-.336.01-.83-.28-1.463-.854-2.049-.584-.594-1.222-.845-2.05-.854H28.2zm7.122 2.073v4.931h.825v-4.93zm.438 7.255zm-.003.136zm-10.611-.521v.805c-.12-.055-.238-.106-.349-.161a1.119 1.119 0 0 0-.32-.09c-.091-.014-.186-.023-.272-.04a.316.316 0 0 1-.135-.05c-.01-.008-.019-.02-.019-.062 0-.042.008-.053.019-.062a.316.316 0 0 1 .135-.049c.086-.017.18-.027.272-.04.115-.018.227-.044.32-.09.111-.055.23-.106.349-.161zm0 .805zm.409.057zm7.42-.922c.079 0 .158 0 .238.003.444.01 1.111.117 1.662.255.273.068.517.143.69.217l.074.034-.065.026a4.84 4.84 0 0 1-.69.183c-.554.112-1.223.193-1.671.204l-.238.003c-.806 0-1.608-.092-2.41-.185-.857-.1-1.713-.201-2.574-.201h-.13c-.753.01-1.617.094-2.306.383v-.92c.689.29 1.553.374 2.305.383l.131.001c.86 0 1.717-.101 2.573-.201.803-.093 1.605-.185 2.41-.185zm-7.578-.532l-.098.057c-.229.132-.469.223-.682.329a.72.72 0 0 1-.202.052c-.099.015-.2.026-.292.044a.71.71 0 0 0-.315.136.47.47 0 0 0-.166.376c0 .164.062.29.166.377a.71.71 0 0 0 .315.135c.092.02.193.03.292.045a.72.72 0 0 1 .202.052c.213.105.453.197.682.329l.098.056.1-.054c.663-.356 1.587-.444 2.368-.453l.127-.001c.845 0 1.685.1 2.526.198.818.095 1.637.188 2.459.188l.245-.003a11.09 11.09 0 0 0 1.744-.212c.293-.06.558-.128.752-.2.108-.041.197-.084.262-.13a.458.458 0 0 0 .105-.097.292.292 0 0 0 .062-.177c0-.06-.02-.12-.06-.174a.48.48 0 0 0-.101-.1 1.288 1.288 0 0 0-.26-.142 5.22 5.22 0 0 0-.751-.238c-.581-.145-1.277-.256-1.753-.267a10.442 10.442 0 0 0-.245-.003c-.822 0-1.64.092-2.46.188-.84.097-1.68.198-2.525.198l-.127-.001c-.78-.01-1.705-.098-2.368-.454l-.1-.054zm-.221 3.336l-1.534 1.813h.748l.786-.937.793.937.771-.937.794.937.785-.937.794.937.786-.937.793.937.77-.937.794.937.793-.937.771.937.793-.937.786.937h.748l-1.534-1.813-.793.876-.77-.876-.794.876-.793-.876-.771.876-.793-.876-.786.876-.794-.876-.785.876-.794-.876-.77.876-.794-.876zM41 5.965h-.014c-.155.002-.255.047-.303.132v.175l-.432.227c-.144.075-.216.144-.216.206l.73-.34c.012.029.062.043.15.043.017 0 .036 0 .056-.002a.7.7 0 0 0 .36-.113V6.21h-.061a.543.543 0 0 0-.263-.077.405.405 0 0 0-.087.01.441.441 0 0 0-.23.11c.053-.112.244-.167.575-.167h.056v-.082a1.556 1.556 0 0 0-.32-.04zm1.114-.115a1.145 1.145 0 0 0-.242.49c-.038.174-.046.58-.026 1.219.473-.268.746-.55.818-.85.072-.298.064-.543-.025-.735l-.165-.03-.185-.052-.175-.042zm-.368-.314h.004c.266.002.524.097.744.242.395.231.771.491 1.154.742.26.156.554.262.854.317-.488.026-.988.101-1.423.333-.284.155-.525.404-.625.716-.09.276-.085.572-.09.86.004.539.104 1.095.4 1.552.019.032.049.063.06.094-.046.045-.108.056-.172.056-.043 0-.086-.005-.126-.007-.18-.032-.311-.176-.431-.303a3.969 3.969 0 0 1-.477-.66c-.262-.489-.35-1.05-.392-1.598-.016-.194-.01-.389-.027-.582-.012-.088-.073-.186-.171-.186a.146.146 0 0 0-.006 0c-.13 0-.237.09-.358.126a1.117 1.117 0 0 1-.374.067c-.126.012-.242.08-.37.08l-.032-.002a1.146 1.146 0 0 1-.145-.015c.198-.062.401-.118.584-.218.055-.028.115-.096.078-.16a.096.096 0 0 0-.085-.043.232.232 0 0 0-.106.03c-.136.065-.255.17-.404.207a.968.968 0 0 1-.314.05c-.04-.037-.042-.1-.038-.152.03-.083.132-.095.196-.14.025-.01.05-.035.076-.035a.04.04 0 0 1 .026.01.2.2 0 0 0 .087.022c.037 0 .071-.013.09-.049.047-.081.002-.188-.077-.23a.17.17 0 0 0-.243.073c-.03.052-.095.063-.139.1-.007.008-.013.012-.018.012-.013 0-.02-.023-.026-.038-.01-.032.044-.026.055-.047.166-.11.34-.208.501-.325.179-.212.436-.334.684-.448.026-.026.007-.07.036-.096.088-.123.24-.17.373-.225.207-.074.424-.129.645-.13h.022zm6.77 1.575h.01c.625.002 1.263.11 1.808.43.18.104.35.234.472.403-.159-.132-.356-.203-.551-.266.02.06.011.13.045.184.206.125.382.336.39.585.015.337-.146.65-.34.916-.164.23-.345.472-.377.76-.004.052.003.108-.035.148-.087.105-.227.146-.356.171a.857.857 0 0 1-.143.013.547.547 0 0 1-.376-.13c-.088-.09-.147-.206-.233-.3-.226-.277-.507-.532-.856-.638a1.168 1.168 0 0 0-.47-.044l.164.247a.632.632 0 0 1 .17-.024.411.411 0 0 1 .377.205c-.174.005-.343.05-.515.07-.48.07-.962.147-1.441.216-.036-.038-.083-.07-.136-.07a.14.14 0 0 0-.009 0c-.69-.105-1.382-.212-2.081-.217a.09.09 0 0 1-.02.003c-.026 0-.035-.017-.03-.05-.001-.06-.033-.14-.102-.14l-.008.001c-.084.005-.13.089-.152.161-.052.134-.085.296-.212.381a.34.34 0 0 1-.16.038.461.461 0 0 1-.256-.082c-.093-.08-.134-.2-.185-.308-.154-.394-.176-.825-.162-1.244.018-.314.103-.64.321-.876.173-.194.432-.283.68-.338.468-.106.95-.125 1.43-.137h.037c.315 0 .63.021.944.021h.033l.163.001c.599 0 1.197-.03 1.793-.08a6.478 6.478 0 0 1 .369-.01zM43.854 4.41a.953.953 0 0 0-.387.08 1.01 1.01 0 0 1-.41.09 1.01 1.01 0 0 1-.408-.09.702.702 0 0 0-.285-.058c-.217 0-.468.086-.752.258-.289-.172-.542-.258-.76-.258a.705.705 0 0 0-.287.058 1.01 1.01 0 0 1-.41.09 1.01 1.01 0 0 1-.408-.09.953.953 0 0 0-.388-.08c-.172 0-.357.042-.554.125-.243.102-.436.153-.58.153a.383.383 0 0 1-.168-.034 1.649 1.649 0 0 0-.305-.124.158.158 0 0 0-.045-.008c-.052 0-.07.042-.054.127.106.313.316.476.628.49l.146.002c.247 0 .452-.029.617-.087a.847.847 0 0 1 .286-.047c.127 0 .266.024.417.071.173.055.342.083.508.083.096 0 .191-.01.285-.028a.945.945 0 0 1 .18-.018c.165 0 .308.05.428.15a2.25 2.25 0 0 0-.501.21c-.111.066-.219.17-.23.304a1.428 1.428 0 0 0-.327.176c-.197.135-.368.306-.54.47-.083.06-.179.102-.258.167-.066.043-.123.111-.118.195-.008.108.043.208.058.31.007.231.138.525.393.555l1.057-.12h.005c.025 0 .064-.017.089-.017.01 0 .019.004.021.014.005.724.121 1.465.463 2.11.12.23.275.443.447.637.046.2-.06.389-.155.557-.09.159-.242.275-.312.445-.09.18-.11.39-.227.558-.103.164-.25.293-.396.418-.122.113-.243.235-.309.39-.34.255-.676.537-.883.913-.009.029.019.035.043.035l.026-.002h1.026a1.06 1.06 0 0 0 .262-.32c.045.018.097.03.147.03a.245.245 0 0 0 .2-.089.257.257 0 0 0 .07-.204c.01-.34.119-.69.35-.943.11-.1.249-.167.372-.25.062-.055.105-.129.164-.189a5.13 5.13 0 0 1 .92-.846c.02-.01.046-.035.07-.035.008 0 .017.004.025.013.17.118.3.284.423.448.06.193.139.39.287.534a.719.719 0 0 0 .236.156c.11.252.143.527.157.8-.24.28-.461.578-.651.895h1.169a.726.726 0 0 0 .191-.481h.024c.114 0 .23-.065.262-.178.049-.15-.026-.309-.108-.433-.174-.257-.333-.541-.351-.857-.005-.12.005-.243-.028-.36a.817.817 0 0 0-.255-.43c-.193-.208-.273-.491-.33-.763.259.01.519.024.776.058.345.044.69.102 1.03.18.02.007.055.009.047.04.017.1.087.198.187.224.061.18.117.373.255.509.025.02.054.035.083.049.017-.215.039-.43.099-.637l1.022-.097c-.062.42-.145.85-.364 1.218-.202.33-.472.612-.758.871-.072.101-.135.222-.247.283a.276.276 0 0 0-.146.05c-.17.11-.282.289-.393.454-.063.098-.12.198-.177.3h1.282c.017-.104.03-.21.027-.316a.31.31 0 0 0 .1.016.248.248 0 0 0 .218-.112.632.632 0 0 0 .09-.273c.256-.254.409-.59.627-.874a1.14 1.14 0 0 1 .458-.365.69.69 0 0 0 .33-.472l.016.001c.062 0 .108-.055.15-.092a.443.443 0 0 0 .09.009c.092 0 .187-.031.235-.115a.335.335 0 0 0 .03-.074c.328.21.587.54.68.921.053.172.025.354.032.532v.308a7.003 7.003 0 0 0-.662.906h1.17a.769.769 0 0 0 .19-.49.286.286 0 0 0 .035.002c.103 0 .21-.054.244-.154.06-.15-.007-.314-.086-.443-.042-.067-.023-.151-.035-.226-.02-.343-.021-.688-.022-1.032.005-.12.016-.258-.062-.36-.04-.045-.114-.02-.15-.072-.074-.093-.105-.212-.14-.325-.06-.209-.057-.452.074-.634a2.01 2.01 0 0 0 .241-.372c.082-.164.144-.337.2-.512.01.34-.018.682-.107 1.01-.08.437-.047.885.008 1.323.031.208.071.428.202.598.045.054.118.1.19.1a.154.154 0 0 0 .082-.022c.13-.065.198-.213.195-.354.003-.202-.064-.395-.096-.592-.073-.35-.15-.699-.227-1.047.102-.582.17-1.184.056-1.769-.07-.353-.24-.707-.546-.912a3.783 3.783 0 0 0-.594-.31 3.356 3.356 0 0 0-1.499-.256 25.305 25.305 0 0 1-3.205-.119 3.62 3.62 0 0 1-1.001-.22c-.579-.219-1.084-.583-1.598-.92a1.865 1.865 0 0 0-.652-.259.828.828 0 0 1 .397-.097c.06 0 .123.006.187.017.08.015.163.022.248.022.168 0 .343-.029.525-.087.15-.047.29-.071.417-.071a.83.83 0 0 1 .286.047c.165.058.37.087.617.087.047 0 .096 0 .146-.003.312-.013.525-.176.638-.489.01-.085-.013-.127-.07-.127a.183.183 0 0 0-.05.008 2.007 2.007 0 0 0-.299.124.395.395 0 0 1-.17.034c-.145 0-.338-.051-.578-.153a1.414 1.414 0 0 0-.55-.125zm10.967-2.16l-1.85 2.187h.903l.947-1.13.957 1.13.93-1.13.956 1.13.948-1.13.957 1.13.947-1.13.957 1.13.93-1.13.956 1.13.957-1.13.93 1.13.956-1.13.948 1.13h.902l-1.85-2.187-.957 1.057-.929-1.057-.957 1.057-.957-1.057-.929 1.057-.957-1.057-.947 1.057-.957-1.057-.948 1.057-.957-1.057-.929 1.057-.957-1.057zm1.425 10.629c.806 0 1.814.414 2.302.902.427.426.482.992.498 1.518H53.47c.016-.526.071-1.092.498-1.518.488-.488 1.473-.902 2.278-.902zm0-.451c-.955 0-1.984.441-2.586 1.044-.618.618-.688 1.432-.688 2.04v.238h6.549v-.237c0-.61-.047-1.423-.665-2.04-.602-.604-1.654-1.045-2.61-1.045zm8.078-1.91l-.016.008 2.719 5.209h1.025l-2.718-5.217zm-2.278.008l-1.025.008 2.718 5.216 1.025-.008-2.718-5.216zm13.35-7.894c.75 0 1.417.346 1.852.888h-3.703a2.368 2.368 0 0 1 1.851-.888zm2.102 1.27c.143.272.235.575.263.897h-4.73a2.36 2.36 0 0 1 .263-.897zm.265 1.28a2.36 2.36 0 0 1-.249.896h-4.236a2.361 2.361 0 0 1-.249-.897zm-.491 1.279a2.368 2.368 0 0 1-1.876.918 2.37 2.37 0 0 1-1.875-.918zM75.396 2.25a2.76 2.76 0 0 0-2.755 2.756 2.759 2.759 0 0 0 2.755 2.755 2.76 2.76 0 0 0 2.756-2.755 2.76 2.76 0 0 0-2.756-2.756zm-3.726 9.056l-.753 3.395-.714-.332 1.467-3.063zM80.8 9.02c-.014 0-.03 0-.044.002-.106.01-.23.052-.37.115-.774.98-1.35 2.194-1.723 3.637-.429.072-1.441.515-3.024 1.327a.705.705 0 0 1-.247.039 2.25 2.25 0 0 1-.66-.128 1.002 1.002 0 0 0-.307-.042c-.084 0-.173.006-.266.016l-.332.102-2.144-3.496-2.131 4.275.293.102.14-.294.128.051-.14.358.204.076.14-.332.154.077-.128.344.23.09.115-.345.178.09-.076.344.242.115.855-3.93 1.595 2.577-.37.102-.383.115c.01.106.03.183.077.243.047.059.132.094.242.102.111.008.163.034.18.09.07.239.156.45.254.612.079.127.17.19.274.19a.295.295 0 0 0 .084-.012c.149-.046.3-.086.446-.14l.15.225c.016.023.043.033.075.033.108 0 .272-.119.22-.2l-.139-.211c.302-.13.591-.292.881-.447.988-.144 1.856-.366 2.59-.663.734-.297 1.24-.615 1.519-.957.079-.045.422-.632 1.02-1.749.6-1.116.777-1.881.537-2.31a.36.36 0 0 0-.115-.127.407.407 0 0 0-.224-.066z"/><path d="M8.22.375c-9.625 0-9.625 17.25 0 17.25m0-17.25h73.02M8.22 17.625h73.02M88.928.375v17.25M81.24.375c9.625 0 9.625 17.25 0 17.25" fill="none" stroke="#000"/></svg>