<svg xmlns="http://www.w3.org/2000/svg" width="106.807" height="18"><path d="M13.197 2.73q.219 0 .274.26.088.4-.627.651-.15-.727.176-.877.099-.033.177-.033zm1.916 2.753v3.108h-.602V6.173H9.248V8.59h-.652V5.483zm-.99 1.066v3.509h-4.5v-3.51zm-.976-4.299q-.268 0-.54.2-.527.49-.189 1.392l-.701 1.253H8.22V8.98h1.028v1.466h5.263V8.98h.99V5.095h-3.145l.551-.99q.94-.188 1.078-.903.038-.576-.439-.84-.198-.112-.4-.112zm1.083 9.694l-1.005 3.414h-2.729l-1.004-3.414zm-5.262-.392l1.235 4.198h3.316l1.234-4.198zm10.001-8.826q-.28 0-.28.328 0 .278.28.278.295-.016.295-.311t-.295-.295zm-1.082.213v.295l-.64.115q.295-.312.64-.41zm.032.393q.377.295.132.443-.377-.131-.558-.344l.426-.099zm1.148-.754q.77 0 1.23.59.459.59.491 1.82 1.197.246 1.59 1.082.064.542-.243.542l-.019-.001q-.328-.016-.516-.18-.069-.06-.104-.06-.06 0-.02.183.066.287.722.696.656.41.107.68-.137.068-.29.068-.467 0-1.096-.616-.836-.82-.885-1.246-.049-.427.344-.787.234-.215.161-.215-.05 0-.243.1-.475.246-.5.721-.024.476.378 1.041.401.566 1.582 1.435.12.063.273.063.324 0 .792-.285.689-.418-.688-1.286.508-.132.524-.443.64.213 3.59 3.967.787.525.804.77-.017.23-.246.28-.05.01-.1.01-.186 0-.392-.142-.918.443-1.779.46h-.09q-.8 0-1.328-.28.541.476.377 1-.08.255-.12.255-.044 0-.044-.287 0-.558-1.426-1.066v.623q-.084.353-.133.353-.048 0-.064-.32-.098-.705-.467-1.517-.369-.811-1.172-2.245-.803-1.435-1.025-2.066-.22-.631-.205-1.172.017-.541-.22-.795-.239-.254-.14-.55.098-.295-.295-.557v-.278q.426-.345.885-.345zm3.115 9.443q.803.23.803.54l-.541 2.017q-.066.361-.443.361h-.655v-.033l.836-2.557v-.328zM19.126 2.25h-.059q-.64 0-1.295.525-.377.131-.77.607.54.491.983.606.05.23.311.64.017 1.081.296 1.795.278.713 1.868 3.827.787 1.64.787 2.017 0 .574-.721 2.574 0 .114-.984.18-1.475.05-1.475.41 0 .213.197.213h4.36q.41-.328.46-.558.393.164.426.443.055.221.157.221.019 0 .04-.008.13-.049.13-.213-.114-.443-.573-.852l.524-2.213q1.59-.05 2.77-.509.22.05.402.05.364 0 .582-.197.328-.295-.13-.918-1-1-1.902-2.197-1.853-2.279-2.541-2.64-.23-.475-.55-.753-.32-.28-1.155-.689-.017-.967-.451-1.672-.425-.689-1.687-.689zm14.821 3.975q.216 0 .299.216-.107-.042-.182-.042-.16 0-.183.191-.033.34-.184.34h-.007q-.157-.008-.224-.14 0-.1.249-.332.116-.233.232-.233zm.238.297q.06 0 .06.085-.03.334-.255.334-.02 0-.043-.003v-.033l.066-.149q.016-.233.134-.233h.016l.022-.001zm-1.477.188q-.15 0-.278.087-.158.108-.091.374h.066q.017-.166.1-.274.082-.108.273-.108.19 0 .19-.05l-.19-.024q-.036-.005-.07-.005zm-.005.146q-.199 0-.199.281v.1q.017.003.031.003.056 0 .069-.053.282-.066.414-.232-.116-.1-.315-.1zm-.298.43q-.083.117-.017.29.067.175.83.241l.116-.05q-.962-.066-.863-.447l-.066-.033zm1.078-.795q-.216.149-.166.381.033.1.199.166.15.066.116.348.033.614-.514.945-.083-.199-.323-.215l-.045-.002q-.205 0-.295.143-.07.11-.165.11-.04 0-.084-.02-.027.008-.05.008-.151 0-.166-.272.166-.017.233-.067.066-.05.248-.116-.08-.092-.165-.092-.037 0-.075.018-.125.058-.257.09-.282-.049-.216-.281-.166-.183-.116-.315.365-.232.605-.44.24-.207.54-.248.298-.042.696-.141zm.978-.15q.431.034.912.49.481.456.564.937-.896 1.31-2.537 2.089-.066-.697.232-1.393.547-.497.48-.837-.065-.34.216-.456.63-.116.133-.83zm6.084 2.801l.051.002q.747.133 1.36.671.614.54.88 1.335.049.083-.366.083-1.74-.73-2.205-1.476-.205-.615.28-.615zm-4.426-.827q1.034.99 2.635.99.274 0 .566-.028.03-.01.056-.01.242 0 .242.805-1.641.73-2.587.796-.28.02-.568.02-.684 0-1.413-.11-.158-.025-.292-.025-.752 0-.794.746-.697-.83-.498-1.128 1.642-.73 2.653-2.056zM34.1 5.9l-.077.001q-.755.025-.805.307-.298.116-.555.19-.257.075-.48.274-.225.2-.498.357-.274.157-.324.273-.083.183.15.398 0 .183.165.299.034 0 .075.282.041.281.307.414.331-.05.43-.19.085-.12.218-.12.023 0 .048.003.166.025.249.274-.066.249-.19.879-.125.63 0 .928.124.299-.44.672-.43.285-1.179.285-.232 0-.496-.028-.575-.16-.925-.16-.377 0-.493.185-.224.356.042.622h.646q1.489.053 2.521.053 2.488 0 2.33-.31-.18-.353.292-.353.116 0 .271.021.244.033.536.033.65 0 1.537-.166 1.285-.24 1.675-.447.25-.133.54-.133.163 0 .339.041.489.117.588.415-.216.398-.752.398-.245 0-.557-.083-.522-.14-.857-.14-.304 0-.453.115-.316.24-.034.572h5.39q.547-.497.232-1.152-.315-.655-1.062-1.244-.746-.588-1.641-1.07.234-.204.452-.204.276 0 .526.329.263.345.446.345.128 0 .217-.17-.59-1.058-1.233-1.058-.042 0-.085.004-.688.075-1.252.771-.682.172-1.272.172-1.286 0-2.127-.818-.464-1.178-1.111-1.634Q34.811 5.9 34.1 5.9zm12.636-2.807q1.511.22 1.58 1.382v8.382q-.707-.843-2.536-1.184l.956-8.58zm-.425-.843L45.18 12.272q2.52.289 3.136 1.8v1.678h.751V4.475q0-1.883-2.756-2.225zm7.609 3.715h-.014c-.155.002-.255.047-.303.132v.175l-.432.227c-.144.075-.216.144-.216.206l.73-.34c.012.029.062.043.15.043.017 0 .036 0 .057-.002a.7.7 0 0 0 .36-.113V6.21h-.062a.543.543 0 0 0-.263-.077.405.405 0 0 0-.087.01.441.441 0 0 0-.23.11c.053-.112.244-.167.575-.167h.056v-.082a1.556 1.556 0 0 0-.32-.04zm1.114-.115a1.145 1.145 0 0 0-.242.49c-.038.174-.046.58-.026 1.219.474-.268.746-.55.818-.85.072-.298.064-.543-.025-.735l-.165-.03-.185-.052-.175-.042zm-.368-.314h.004c.266.002.524.097.744.242.395.231.771.491 1.154.742.26.156.554.262.854.317-.488.026-.988.101-1.423.333-.284.155-.525.404-.625.716-.09.276-.085.572-.09.86.004.539.105 1.095.4 1.552.019.032.049.063.06.094-.046.045-.108.056-.171.056-.044 0-.087-.005-.127-.007-.18-.032-.311-.176-.431-.303a3.969 3.969 0 0 1-.477-.66c-.262-.489-.35-1.05-.392-1.598-.016-.194-.01-.389-.026-.582-.013-.088-.074-.186-.172-.186a.146.146 0 0 0-.006 0c-.13 0-.237.09-.358.126a1.117 1.117 0 0 1-.374.067c-.126.012-.242.08-.37.08l-.031-.002a1.146 1.146 0 0 1-.146-.015c.198-.062.401-.118.584-.218.055-.028.115-.096.078-.16a.096.096 0 0 0-.085-.043.232.232 0 0 0-.106.03c-.136.065-.255.17-.404.207a.968.968 0 0 1-.313.05c-.04-.037-.043-.1-.039-.152.03-.083.132-.095.196-.14.025-.01.05-.035.076-.035a.04.04 0 0 1 .026.01.2.2 0 0 0 .087.022c.037 0 .071-.013.09-.049.047-.081.002-.188-.077-.23a.17.17 0 0 0-.243.073c-.03.052-.095.063-.139.1-.007.008-.013.012-.018.012-.013 0-.02-.023-.026-.038-.01-.032.044-.026.055-.047.166-.11.34-.208.501-.325.179-.212.436-.334.684-.448.026-.026.007-.07.036-.096.088-.123.24-.17.373-.225.207-.074.424-.129.645-.13h.022zm6.77 1.575h.01c.625.002 1.263.11 1.808.43.18.104.35.234.472.403-.159-.132-.356-.203-.55-.266.02.06.01.13.044.184.206.125.382.336.39.585.015.337-.146.65-.34.916-.164.23-.345.472-.377.76-.004.052.003.108-.034.148-.088.105-.228.146-.357.171a.857.857 0 0 1-.143.013.547.547 0 0 1-.376-.13c-.087-.09-.146-.206-.233-.3-.226-.277-.507-.532-.856-.638a1.168 1.168 0 0 0-.47-.044l.164.247a.632.632 0 0 1 .17-.024.411.411 0 0 1 .377.205c-.174.005-.343.05-.515.07-.48.07-.962.147-1.441.216-.036-.038-.083-.07-.136-.07a.14.14 0 0 0-.009 0c-.69-.105-1.382-.212-2.081-.217a.09.09 0 0 1-.02.003c-.026 0-.035-.017-.03-.05-.001-.06-.033-.14-.102-.14l-.007.001c-.085.005-.13.089-.153.161-.052.134-.085.296-.212.381a.34.34 0 0 1-.16.038.461.461 0 0 1-.256-.082c-.093-.08-.134-.2-.185-.308-.154-.394-.176-.825-.162-1.244.018-.314.103-.64.321-.876.173-.194.432-.283.68-.338.468-.106.95-.125 1.43-.137h.037c.315 0 .63.021.944.021h.033l.163.001c.599 0 1.197-.03 1.793-.08a6.478 6.478 0 0 1 .369-.01zM56.774 4.41a.953.953 0 0 0-.387.08 1.01 1.01 0 0 1-.409.09 1.01 1.01 0 0 1-.409-.09.702.702 0 0 0-.285-.058c-.217 0-.468.086-.752.258-.289-.172-.542-.258-.76-.258a.705.705 0 0 0-.287.058 1.01 1.01 0 0 1-.409.09 1.01 1.01 0 0 1-.409-.09.953.953 0 0 0-.388-.08c-.172 0-.357.042-.554.125-.243.102-.436.153-.58.153a.383.383 0 0 1-.168-.034 1.649 1.649 0 0 0-.305-.124.158.158 0 0 0-.045-.008c-.052 0-.07.042-.054.127.106.313.316.476.628.49l.146.002c.247 0 .452-.029.617-.087a.847.847 0 0 1 .286-.047c.127 0 .266.024.417.071.173.055.342.083.509.083.095 0 .19-.01.284-.028a.945.945 0 0 1 .18-.018c.165 0 .308.05.428.15a2.25 2.25 0 0 0-.501.21c-.111.066-.219.17-.23.304a1.428 1.428 0 0 0-.327.176c-.197.135-.368.306-.54.47-.083.06-.179.102-.258.167-.066.043-.123.111-.118.195-.008.108.043.208.058.31.007.231.138.525.393.555l1.057-.12h.005c.025 0 .064-.017.089-.017.01 0 .019.004.021.014.006.724.121 1.465.463 2.11.12.23.275.443.447.637.046.2-.06.389-.155.557-.09.159-.242.275-.312.445-.09.18-.11.39-.226.558-.104.164-.252.293-.397.418-.122.113-.243.235-.309.39-.34.255-.676.537-.883.913-.008.029.019.035.043.035l.026-.002h1.026a1.06 1.06 0 0 0 .262-.32c.045.018.097.03.147.03a.245.245 0 0 0 .2-.089.257.257 0 0 0 .07-.204c.01-.34.119-.69.35-.943.11-.1.249-.167.372-.25.062-.055.105-.129.164-.189a5.13 5.13 0 0 1 .92-.846c.02-.01.046-.035.07-.035.008 0 .017.004.025.013.17.118.3.284.423.448.06.193.139.39.287.534a.719.719 0 0 0 .236.156c.11.252.143.527.157.8-.24.28-.461.578-.651.895h1.169a.726.726 0 0 0 .191-.481h.024c.114 0 .23-.065.262-.178.049-.15-.026-.309-.108-.433-.174-.257-.332-.541-.351-.857-.005-.12.005-.243-.028-.36a.817.817 0 0 0-.255-.43c-.193-.208-.273-.491-.33-.763.259.01.519.024.776.058.345.044.69.102 1.03.18.02.007.055.009.047.04.017.1.087.198.187.224.061.18.117.373.255.509.025.02.054.035.083.049.017-.215.039-.43.099-.637l1.022-.097c-.061.42-.145.85-.364 1.218-.202.33-.472.612-.758.871-.072.101-.135.222-.247.283a.276.276 0 0 0-.146.05c-.17.11-.282.289-.393.454-.063.098-.12.198-.177.3h1.282c.017-.104.03-.21.028-.316a.31.31 0 0 0 .098.016.248.248 0 0 0 .219-.112.632.632 0 0 0 .09-.273c.256-.254.409-.59.627-.874a1.14 1.14 0 0 1 .458-.365.69.69 0 0 0 .33-.472l.016.001c.062 0 .108-.055.15-.092a.443.443 0 0 0 .09.009c.092 0 .187-.031.235-.115a.335.335 0 0 0 .03-.074c.329.21.587.54.68.921.053.172.025.354.032.532v.308a7.003 7.003 0 0 0-.662.906h1.17a.769.769 0 0 0 .19-.49.286.286 0 0 0 .035.002c.103 0 .21-.054.244-.154.06-.15-.007-.314-.086-.443-.042-.067-.023-.151-.035-.226-.02-.343-.021-.688-.022-1.032.005-.12.016-.258-.062-.36-.04-.045-.114-.02-.15-.072-.074-.093-.105-.212-.14-.325-.06-.209-.057-.452.074-.634a2.01 2.01 0 0 0 .241-.372c.082-.164.144-.337.2-.512.01.34-.018.682-.107 1.01-.08.437-.047.885.008 1.323.032.208.071.428.202.598.045.054.118.1.19.1a.154.154 0 0 0 .082-.022c.13-.065.198-.213.195-.354.003-.202-.064-.395-.096-.592-.073-.35-.15-.699-.227-1.047.102-.582.17-1.184.056-1.769-.07-.353-.24-.707-.546-.912a3.783 3.783 0 0 0-.594-.31 3.356 3.356 0 0 0-1.498-.256 25.305 25.305 0 0 1-3.205-.119 3.62 3.62 0 0 1-1.002-.22c-.578-.219-1.084-.583-1.598-.92a1.865 1.865 0 0 0-.652-.259.828.828 0 0 1 .397-.097c.06 0 .123.006.187.017.08.015.163.022.248.022.168 0 .343-.029.525-.087.15-.047.29-.071.417-.071a.83.83 0 0 1 .286.047c.165.058.37.087.617.087.047 0 .096 0 .146-.003.312-.013.525-.176.638-.489.01-.085-.013-.127-.07-.127a.183.183 0 0 0-.05.008 2.007 2.007 0 0 0-.299.124.395.395 0 0 1-.17.034c-.145 0-.337-.051-.578-.153a1.414 1.414 0 0 0-.55-.125zm10.674-1.317q1.511.22 1.58 1.382v8.382q-.707-.843-2.537-1.184l.957-8.58zm-.425-.843l-1.131 10.022q2.52.289 3.135 1.8v1.678h.752V4.475q0-1.883-2.756-2.225zm8.397.435v.422h-2.229v-.422zm-1.12.831q1.397 0 1.931.712t.534 1.28q-.013.883-.738 1.542-.726.66-1.728.66-1.015 0-1.74-.66-.726-.659-.726-1.53 0-.58.435-1.292.435-.712 2.031-.712zM72.557 2.25v.99q-.474.276-.87.896t-.409 1.371q0 .884.732 1.787.732.904 2.288.97 1.543-.066 2.282-.97.738-.903.738-1.773-.013-.765-.409-1.392-.395-.626-.883-.903V2.25zm9.537 3.143c.805 0 1.814.413 2.301.901.427.427.483.993.499 1.519h-5.576c.015-.526.071-1.092.498-1.519.488-.488 1.472-.901 2.278-.901zm0-.451c-.956 0-1.984.441-2.587 1.044-.618.618-.688 1.432-.688 2.04v.238h6.55v-.238c0-.608-.047-1.422-.665-2.04-.603-.603-1.655-1.044-2.61-1.044zm-3.983 5.576l-.015.008 2.718 5.209h1.025l-2.718-5.217zm-2.278.008l-1.025.008 2.718 5.216 1.026-.008-2.719-5.216zm16.88-7.894c.749 0 1.416.346 1.851.888h-3.703a2.368 2.368 0 0 1 1.852-.888zm2.102 1.27c.143.272.234.575.262.897h-4.729a2.36 2.36 0 0 1 .263-.897zm.264 1.28a2.36 2.36 0 0 1-.248.896h-4.236a2.361 2.361 0 0 1-.25-.897zm-.491 1.279a2.368 2.368 0 0 1-1.875.918 2.37 2.37 0 0 1-1.876-.918zM92.713 2.25a2.76 2.76 0 0 0-2.756 2.756 2.759 2.759 0 0 0 2.756 2.755 2.76 2.76 0 0 0 2.755-2.755 2.76 2.76 0 0 0-2.755-2.756zm-3.726 9.056l-.753 3.395-.715-.332 1.468-3.063zm9.13-2.286c-.015 0-.03 0-.045.002a1.24 1.24 0 0 0-.37.115c-.774.98-1.35 2.194-1.722 3.637-.43.072-1.442.515-3.025 1.327a.705.705 0 0 1-.247.039 2.25 2.25 0 0 1-.659-.128 1.002 1.002 0 0 0-.308-.042c-.084 0-.172.006-.266.016l-.332.102L89 10.592l-2.13 4.275.293.102.14-.294.128.051-.14.358.204.076.14-.332.153.077-.127.344.23.09.114-.345.179.09-.077.344.243.115.855-3.93L90.8 14.19l-.37.102-.383.115c.01.106.03.183.076.243.048.059.132.094.243.102.11.008.162.034.179.09.07.239.156.45.255.612.078.127.17.19.274.19a.295.295 0 0 0 .083-.012c.149-.046.301-.086.447-.14l.15.225c.016.023.043.033.074.033.109 0 .272-.119.22-.2l-.138-.211c.301-.13.59-.292.88-.447.988-.144 1.857-.366 2.59-.663.735-.297 1.24-.615 1.52-.957.078-.045.421-.632 1.02-1.749.6-1.116.776-1.881.536-2.31a.36.36 0 0 0-.115-.127.407.407 0 0 0-.224-.066z"/><path d="M8.22.375c-9.625 0-9.625 17.25 0 17.25m0-17.25h90.337M8.22 17.625h90.337m7.687-17.25v17.25M98.557.375c9.625 0 9.625 17.25 0 17.25" fill="none" stroke="#000"/></svg>