<svg xmlns="http://www.w3.org/2000/svg" width="154.875" height="18"><path d="M16.012 2.684l-1.111 3.779H11.88l-1.112-3.78zM10.19 2.25l1.366 4.646h3.67l1.367-4.646zm-.702 5.87L8.22 9.62h.619l.65-.775.655.775.638-.775.656.775.65-.775.656.775.65-.775.655.775.638-.775.656.775.656-.775.637.775.656-.775.65.775h.618l-1.268-1.5-.656.725L16 8.12l-.656.725-.656-.725-.638.725-.656-.725-.65.725-.655-.725-.65.725-.656-.725-.638.725-.656-.725zm1.404 5.287c.657 0 1.48.338 1.878.736.348.348.393.81.406 1.24h-4.55c.013-.43.059-.892.407-1.24.398-.398 1.201-.736 1.859-.736zm0-.367c-.78 0-1.619.36-2.11.851-.505.505-.562 1.169-.562 1.665v.194h5.343v-.194c0-.496-.038-1.16-.542-1.665-.491-.491-1.35-.851-2.13-.851zm5.648-2.197c-.067 0-.135.007-.204.013-.985.105-1.685 1.103-1.53 2.069.068.719.514 1.121 1.004 1.518 1.456.892 1.047.564 2.515 1.307l.235-.44c-1.747-.818-1.957-.948-2.502-1.307-.446-.36-.8-.756-.769-1.357-.012-.415.236-.842.515-1.047.223-.167.508-.266.786-.266.211 0 .41.05.583.173.44.217.681.936.36 1.388a.854.854 0 0 1-.682.366.63.63 0 0 1-.372-.118c-.223-.124-.39-.558-.161-.8-.105-.11-.254-.247-.366-.247-.074 0-.13.056-.167.186-.248.594.149 1.27.743 1.43.106.032.211.05.316.05.682 0 1.314-.57 1.314-1.276.062-.824-.595-1.58-1.419-1.63a2.002 2.002 0 0 0-.198-.012zm9.665-8.145v.489h-1.413v-.49zm-1.86.926v.01h2.308v-.008a.98.98 0 0 1 .36.324c.165.23.275.54.277.768.004.528-.228.934-.524 1.183-.281.236-.81.379-1.224.379-.426 0-1.024-.085-1.312-.291-.285-.205-.62-.8-.621-1.335-.001-.257.1-.537.281-.74a.954.954 0 0 1 .454-.29zm0-1.374v.916a1.43 1.43 0 0 0-.789.45c-.26.291-.396.669-.395 1.04.002.684.34 1.343.78 1.676-.217 2-.463 3.996-.783 5.982-.106.635-.217 1.27-.39 1.89-.04.132-.08.271-.171.376-.143.148-.331.244-.513.334a4.582 4.582 0 0 1-1.206.347 1.014 1.014 0 0 1-.13.008 1.52 1.52 0 0 1-.35-.045c-.05-.009-.102-.02-.154-.02a.226.226 0 0 0-.12.03c-.085.064-.08.199-.013.274.091.117.25.137.389.15.061.005.123.007.184.007.265 0 .529-.04.793-.04.061 0 .122.002.183.007.398.019.798.032 1.196.057.098.01.202.03.304.03a.504.504 0 0 0 .226-.047c.1-.063.109-.195.13-.301.065-.355.067-.724.2-1.064.272-.905.465-1.833.663-2.757.278-1.345.517-2.7.668-4.064.026-.258.047-.517.054-.777.155.014.305.018.44.018.094 0 .19-.004.288-.014.457 2.196.933 4.393 1.229 6.618.054.456.108.917.083 1.377a5.69 5.69 0 0 1-1.475.618.679.679 0 0 1-.087.005c-.131 0-.262-.031-.393-.031a.682.682 0 0 0-.085.005c-.13.037-.214.21-.13.326.078.107.221.119.345.119h.018c.259-.004.517-.033.775-.033l.073.001c.281-.005.563-.02.844-.02.169 0 .337.005.506.02.105.014.215.031.323.031.1 0 .198-.014.29-.057.122-.074.151-.232.144-.366-.005-.294-.116-.577-.108-.872-.078-1.541-.297-3.07-.536-4.593a69.753 69.753 0 0 0-.66-3.563l.068-.054a1.96 1.96 0 0 0 .684-1.529c-.002-.354-.144-.724-.36-1.025-.182-.256-.427-.477-.724-.536V2.25zm7 .843q1.511.22 1.58 1.382v8.382q-.706-.843-2.536-1.184l.956-8.58zm-.425-.843l-1.13 10.022q2.52.289 3.136 1.8v1.678h.751V4.475q0-1.883-2.756-2.225zm5.813.843q1.51.22 1.58 1.382v8.382q-.707-.843-2.537-1.184l.957-8.58zm-.425-.843l-1.132 10.022q2.521.289 3.136 1.8v1.678h.752V4.475q0-1.883-2.756-2.225zm5.966 0l-1.71 2.022h.834l.876-1.045.884 1.045.86-1.045.884 1.045.876-1.045.884 1.045.876-1.045.885 1.045.859-1.045.884 1.045.885-1.045.86 1.045.884-1.045.876 1.045h.833l-1.71-2.022-.884.977-.86-.977-.884.977-.884-.977-.86.977-.884-.977-.876.977-.884-.977-.876.977-.885-.977-.859.977-.884-.977zm4.221 11.631a1.31 1.31 0 0 0-.313.039c-.21.051-.437.168-.683.35h-4.935v1.091h4.935c.246.182.473.299.683.35a1.31 1.31 0 0 0 .623 0 1.49 1.49 0 0 0 .616-.35h.19c.198.182.402.299.611.35a1.316 1.316 0 0 0 .63 0c.209-.051.432-.168.67-.35h4.982V14.27h-4.983c-.237-.182-.46-.299-.67-.35a1.316 1.316 0 0 0-.629 0 1.39 1.39 0 0 0-.61.35h-.19a1.492 1.492 0 0 0-.617-.35 1.274 1.274 0 0 0-.31-.039zM57.313 2.25c-.697 0-1.309.513-1.309 1.171V15.75h.852V3.421c0-.322.284-.427.463-.427.187 0 .475.131.475.527v8.103h.852V3.521c0-.66-.653-1.271-1.333-1.271zm9.046.439c-.022 3.239-.048 6.477-.068 9.716.047.525.074 1.051.135 1.574.036.28.218.54.179.827-.06.193-.187.496-.401.496a.3.3 0 0 1-.156-.049c-.348-.134-.679-.355-1.061-.355a.67.67 0 0 0-.064.003h-.057c-.728 0-1.443.16-2.165.23-.395.057-.788.147-1.188.147h-.05c.721-.164 1.435-.44 2.004-.926.774-.602 1.551-1.2 2.324-1.805.105-.129-.05-6.71-.102-9.835l.67-.023zm.393-.439c-.382.013-.952.007-1.333.03-.204.06-.168.288-.165.452l.158 9.566c-.845.646-1.683 1.302-2.534 1.942a4.332 4.332 0 0 1-1.58.604c-.25-.002-.5-.13-.747-.13a.573.573 0 0 0-.237.048c-.19.146-.257.547-.001.67.384.206.812.284 1.242.284.272 0 .545-.031.81-.081.613-.105 1.232-.166 1.848-.253.203-.017.414-.045.62-.045.225 0 .445.032.647.143.244.107.512.27.783.27a.6.6 0 0 0 .272-.063c.284-.177.448-.507.517-.826.057-.416-.224-.784-.22-1.198-.032-.453-.083-.904-.103-1.357.023-3.273.15-10.056.023-10.056zm3.115 0c-.697 0-1.308.513-1.308 1.171V15.75h.852V3.421c0-.322.283-.427.462-.427.187 0 .475.131.475.527v8.103h.852V3.521c0-.66-.653-1.271-1.333-1.271zm6.384.45c.806 0 1.814.415 2.302.903.427.426.483.992.498 1.518h-5.576c.016-.526.071-1.092.498-1.518.488-.488 1.473-.902 2.278-.902zm0-.45c-.955 0-1.984.441-2.586 1.044-.618.618-.688 1.432-.688 2.04v.238h6.549v-.237c0-.61-.047-1.423-.665-2.04-.602-.604-1.654-1.045-2.61-1.045zm-1.73 6.594q.403 0 1.061.22 1.13.376 2.34 1.572 1.209 1.196.967 2.218-.242 1.021-.94 1.532-.578.422-1.394.422-.172 0-.354-.019-1.049-.107-1.801-1.653-.753-1.546-.7-2.755.055-1.21.377-1.425.157-.112.444-.112zm-.11-.933q-.554 0-.898.238-.726.511-.807 2.097-.08 1.586.914 3.441.995 1.855 2.42 2.03.272.033.53.033 1.09 0 1.916-.598 1.021-.74 1.277-2.097.255-1.357-1.09-2.876-1.343-1.519-2.902-2.016-.79-.252-1.36-.252zm11.165-5.343l-.816 2.773h-2.217l-.816-2.773zm-4.274-.318l1.003 3.41h2.693l1.003-3.41zm2.252 4.308c-.05 0-.1.004-.15.009-.723.077-1.237.809-1.123 1.518.05.528.377.823.737 1.114 1.068.655.768.414 1.845.96l.173-.323c-1.282-.6-1.437-.696-1.837-.96-.327-.263-.586-.554-.563-.995a.987.987 0 0 1 .377-.769.982.982 0 0 1 .577-.195c.155 0 .3.036.428.127.323.16.5.687.263 1.019a.627.627 0 0 1-.5.268.463.463 0 0 1-.272-.087c-.164-.09-.287-.409-.119-.586-.077-.082-.186-.182-.268-.182-.054 0-.095.041-.123.136-.181.437.11.932.546 1.05a.822.822 0 0 0 .232.037c.5 0 .964-.418.964-.937A1.132 1.132 0 0 0 83.7 6.567a1.47 1.47 0 0 0-.146-.01zm-.938 5.057q.24 0 .635.132.676.225 1.4.941.725.716.58 1.328-.145.611-.563.917-.346.253-.835.253-.102 0-.212-.011-.627-.065-1.078-.99-.45-.926-.418-1.65.032-.724.225-.853.094-.067.266-.067zm-.066-.559q-.332 0-.538.143-.435.306-.483 1.256-.048.95.547 2.06.596 1.11 1.449 1.215.163.02.317.02.653 0 1.147-.358.612-.443.765-1.255.153-.813-.652-1.723-.805-.909-1.738-1.207-.473-.15-.814-.15zm11.164-8.367c-.023 3.239-.048 6.477-.068 9.716.047.525.074 1.051.135 1.574.036.28.218.54.178.827-.059.193-.186.496-.4.496a.3.3 0 0 1-.156-.049c-.348-.134-.679-.355-1.062-.355l-.064.003h-.056c-.728 0-1.443.16-2.165.23-.395.057-.788.147-1.188.147h-.051c.722-.164 1.436-.44 2.005-.926.774-.602 1.551-1.2 2.324-1.805.105-.129-.05-6.71-.102-9.835l.67-.023zm.393-.439c-.382.013-.952.007-1.333.03-.204.06-.168.288-.165.452l.158 9.566c-.846.646-1.684 1.302-2.534 1.942a4.332 4.332 0 0 1-1.581.604c-.248-.002-.5-.13-.747-.13a.573.573 0 0 0-.236.048c-.19.146-.257.547-.001.67.384.206.811.284 1.242.284.272 0 .545-.031.81-.081.613-.105 1.232-.166 1.848-.253.203-.017.413-.045.62-.045.225 0 .445.032.647.143.243.107.512.27.783.27.09 0 .181-.018.272-.063.284-.177.447-.507.517-.826.057-.416-.224-.784-.22-1.198-.032-.453-.083-.904-.103-1.357.023-3.273.149-10.056.023-10.056zm3.773.476q-.278 0-.278.328 0 .278.279.278.295-.016.295-.311t-.295-.295zm-1.081.213v.295l-.64.115q.295-.312.64-.41zm.033.393q.377.295.13.443-.376-.131-.557-.344l.427-.099zm1.147-.754q.77 0 1.23.59.459.59.491 1.82 1.197.246 1.59 1.082.064.542-.243.542l-.019-.001q-.328-.016-.516-.18-.069-.06-.104-.06-.06 0-.02.183.066.287.722.696.656.41.107.68-.136.068-.29.068-.467 0-1.095-.616-.837-.82-.886-1.246-.049-.427.345-.787.233-.215.16-.215-.05 0-.242.1-.476.246-.5.721-.025.476.377 1.041.401.566 1.582 1.435.12.063.273.063.324 0 .792-.285.689-.418-.688-1.286.508-.132.524-.443.64.213 3.59 3.967.787.525.804.77-.017.23-.246.28-.05.01-.1.01-.186 0-.392-.142-.918.443-1.779.46h-.09q-.8 0-1.328-.28.541.476.377 1-.08.255-.12.255-.044 0-.044-.287 0-.558-1.426-1.066v.623q-.084.353-.133.353-.048 0-.064-.32-.098-.705-.467-1.517-.369-.811-1.172-2.245-.803-1.435-1.025-2.066-.22-.631-.204-1.172.016-.541-.222-.795-.237-.254-.14-.55.1-.295-.294-.557v-.278q.426-.345.885-.345zm3.115 9.443q.803.23.803.54l-.54 2.017q-.066.361-.443.361h-.656v-.033l.836-2.557v-.328zM98.038 2.25h-.059q-.64 0-1.295.525-.377.131-.77.607.54.491.983.606.05.23.312.64.016 1.081.295 1.795.278.713 1.869 3.827.786 1.64.786 2.017 0 .574-.72 2.574 0 .114-.985.18-1.475.05-1.475.41 0 .213.197.213h4.36q.41-.328.46-.558.393.164.426.443.055.221.157.221.019 0 .04-.008.13-.049.13-.213-.114-.443-.573-.852l.524-2.213q1.59-.05 2.77-.509.22.05.402.05.364 0 .583-.197.327-.295-.132-.918-1-1-1.901-2.197-1.853-2.279-2.541-2.64-.23-.475-.55-.753-.32-.28-1.155-.689-.017-.967-.451-1.672-.425-.689-1.687-.689zm11.361 0c-.698 0-1.31.513-1.31 1.171V15.75h.853V3.421c0-.322.284-.427.462-.427.187 0 .475.131.475.527v8.103h.852V3.521c0-.66-.653-1.271-1.332-1.271zm4.387 0l-1.555 1.838h.759l.796-.95.804.95.781-.95.804.95.797-.95.804.95.796-.95.804.95.781-.95.805.95.804-.95.78.95.805-.95.796.95h.758l-1.554-1.838-.804.888-.781-.888-.804.888-.805-.888-.78.888-.805-.888-.796.888-.804-.888-.797.888-.804-.888-.781.888-.804-.888zm1.72 10.629c.805 0 1.814.414 2.302.902.426.426.482.992.498 1.518h-5.576c.015-.526.071-1.092.498-1.518.488-.488 1.472-.902 2.278-.902zm0-.451c-.956 0-1.984.441-2.586 1.044-.619.618-.689 1.432-.689 2.04v.238h6.55v-.237c0-.61-.047-1.423-.665-2.04-.603-.604-1.654-1.045-2.61-1.045zm6.924-2.692c-.084 0-.167.008-.25.015-1.208.13-2.066 1.352-1.876 2.537.083.88.63 1.374 1.23 1.86 1.784 1.093 1.283.69 3.083 1.602l.288-.54c-2.14-1.001-2.4-1.16-3.067-1.601-.547-.44-.98-.927-.942-1.663-.015-.509.289-1.033.63-1.283a1.64 1.64 0 0 1 .965-.327c.258 0 .5.06.714.213.539.265.835 1.146.44 1.7a1.047 1.047 0 0 1-.835.449.773.773 0 0 1-.456-.145c-.273-.152-.478-.683-.197-.98-.13-.136-.312-.303-.448-.303-.091 0-.16.068-.205.228-.304.729.182 1.556.91 1.754.13.038.259.06.388.06.835 0 1.61-.698 1.61-1.564.076-1.01-.73-1.936-1.739-1.997a2.454 2.454 0 0 0-.243-.015zm9.82-7.104c.749 0 1.416.346 1.851.888h-3.703a2.368 2.368 0 0 1 1.852-.888zm2.102 1.27c.143.272.234.575.262.897h-4.729a2.36 2.36 0 0 1 .263-.897zm.264 1.28a2.36 2.36 0 0 1-.248.896h-4.236a2.361 2.361 0 0 1-.25-.897zm-.49 1.279a2.368 2.368 0 0 1-1.876.918 2.37 2.37 0 0 1-1.876-.918zM132.25 2.25a2.76 2.76 0 0 0-2.756 2.756 2.759 2.759 0 0 0 2.756 2.755 2.76 2.76 0 0 0 2.755-2.755 2.76 2.76 0 0 0-2.755-2.756zm-3.726 9.056l-.753 3.395-.715-.332 1.468-3.063zm9.13-2.286c-.015 0-.03 0-.044.002-.106.01-.23.052-.37.115-.775.98-1.35 2.194-1.723 3.637-.43.072-1.442.515-3.025 1.327a.705.705 0 0 1-.247.039 2.25 2.25 0 0 1-.659-.128 1.002 1.002 0 0 0-.308-.042c-.084 0-.172.006-.266.016l-.332.102-2.144-3.496-2.13 4.275.293.102.14-.294.128.051-.14.358.204.076.14-.332.153.077-.127.344.23.09.114-.345.179.09-.077.344.243.115.855-3.93 1.595 2.577-.37.102-.383.115c.01.106.03.183.076.243.048.059.132.094.243.102.11.008.162.034.179.09.07.239.156.45.255.612.078.127.17.19.274.19a.295.295 0 0 0 .083-.012c.149-.046.301-.086.447-.14l.15.225c.016.023.043.033.074.033.109 0 .272-.119.22-.2l-.138-.211c.301-.13.59-.292.88-.447.988-.144 1.857-.366 2.591-.663.734-.297 1.24-.615 1.519-.957.078-.045.421-.632 1.02-1.749.6-1.116.776-1.881.536-2.31a.36.36 0 0 0-.114-.127.407.407 0 0 0-.225-.066zm5.293-6.77c-.084 0-.167.008-.25.015-1.208.13-2.066 1.352-1.876 2.536.083.881.63 1.375 1.23 1.86 1.784 1.094 1.283.692 3.082 1.603l.289-.54c-2.141-1.002-2.4-1.161-3.068-1.602-.546-.44-.98-.926-.941-1.662-.015-.51.288-1.033.63-1.284a1.64 1.64 0 0 1 .964-.326c.259 0 .502.06.714.212.54.266.835 1.147.44 1.701a1.047 1.047 0 0 1-.835.448.773.773 0 0 1-.455-.144c-.274-.152-.479-.683-.198-.98-.129-.136-.311-.303-.448-.303-.09 0-.16.068-.205.228-.303.729.183 1.556.911 1.754.13.038.259.06.388.06.835 0 1.61-.698 1.61-1.564.075-1.01-.73-1.936-1.74-1.997a2.454 2.454 0 0 0-.242-.015zm-.05 8.268l-.015.008 2.718 5.209h1.025l-2.718-5.217zm-2.278.008l-1.025.008 2.718 5.216 1.025-.008-2.718-5.216z"/><path d="M8.22.375c-9.625 0-9.625 17.25 0 17.25m0-17.25h138.405M8.22 17.625h138.405m7.688-17.25v17.25M146.625.375c9.625 0 9.625 17.25 0 17.25" fill="none" stroke="#000"/></svg>