<svg xmlns="http://www.w3.org/2000/svg" width="70.698" height="18"><path d="M10.464 2.686l.053.079c-.631.111-1.142.172-1.512.172h-.072c-.159 0-.255-.084-.317-.251zm8.805.013c-.062.167-.172.25-.33.25l-.072.001c-.368 0-.868-.06-1.499-.172l.053-.08zm-6.746-.013c.125 0 .271.024.423.079a1.308 1.308 0 0 0-.145.264c-.033.08-.051.163-.066.25h-1.4c-.237 0-.457-.197-.66-.593zm4.687.013c-.203.396-.423.594-.66.594h-1.4c-.006-.039-.004-.083-.013-.119a1.492 1.492 0 0 0-.132-.304c-.018-.033-.044-.06-.066-.092a1.27 1.27 0 0 1 .423-.08zm-6.667.145l.053.106a5.344 5.344 0 0 1-1.523.444c-.135 0-.248-.098-.338-.286l1.808-.264zm6.799.013l1.808.264c-.09.188-.203.286-.338.286a5.424 5.424 0 0 1-1.537-.444l.067-.106zm-6.693.198l.092.106c-.413.268-.756.484-1.043.633a.663.663 0 0 1-.272.067c-.165 0-.303-.085-.414-.251l1.637-.555zm6.574 0l1.65.568c-.108.162-.242.242-.402.242a.693.693 0 0 1-.284-.07c-.286-.15-.63-.353-1.043-.62l.079-.12zm-6.416.185l.132.119a5.856 5.856 0 0 1-.897.792.457.457 0 0 1-.292.108.706.706 0 0 1-.395-.148l1.452-.87zm6.258.013l1.452.872a.706.706 0 0 1-.395.147.457.457 0 0 1-.292-.108 5.713 5.713 0 0 1-.884-.792l.119-.119zm-6.033.159l.145.052c-.132.269-.374.55-.713.859-.059.068-.169.105-.33.105-.056 0-.117-.004-.185-.013l1.083-1.003zm5.821.013l1.083 1.003c-.068.01-.13.014-.185.014-.161 0-.271-.038-.33-.106-.339-.308-.58-.59-.713-.858l.145-.053zm-5.386.053c-.04.092-.132.268-.29.554-.158.286-.374.436-.634.436.4-.462.652-.792.766-.99zm.264 0a3.935 3.935 0 0 1-.264.66c-.107.218-.25.33-.448.33.118-.159.312-.489.58-.99zm.264 0a4.17 4.17 0 0 1-.171.686c-.073.205-.203.304-.383.304.114-.216.26-.541.422-.99zm.29 0a5.22 5.22 0 0 1-.131.686c-.053.205-.159.304-.317.304.167-.541.273-.867.304-.99zm.291 0a3.784 3.784 0 0 1-.105.686c-.053.205-.146.304-.29.304.127-.41.202-.735.237-.99zm.132 0v.052c0 .106.019.197.04.29.01.07.014.137.04.212-.045.29-.124.436-.265.436.102-.4.146-.726.159-.99zm2.482 0c.013.264.07.603.172 1.003-.141 0-.234-.145-.278-.436.022-.066.042-.136.053-.198.003-.014-.002-.025 0-.04.02-.09.04-.191.04-.29v-.04zm.277 0c.035.255.11.594.238 1.003-.145 0-.238-.1-.29-.304a3.939 3.939 0 0 1-.106-.7zm.277 0c.031.123.124.462.29 1.003-.158 0-.263-.1-.316-.304a5.558 5.558 0 0 1-.119-.7zm.278 0c.162.449.294.787.409 1.003-.18 0-.31-.1-.383-.304a4.342 4.342 0 0 1-.172-.7zm.132 0l.132.013c.268.502.462.832.58.99-.197 0-.354-.112-.461-.33a4.008 4.008 0 0 1-.251-.673zm.264 0l.145.013c.114.198.378.528.779.99-.26 0-.475-.15-.634-.436a7.165 7.165 0 0 1-.29-.567zm-2.469-.95a.96.96 0 0 1 .251.039.86.86 0 0 1 .422.25c.058.062.102.128.146.199a1.01 1.01 0 0 1 .145.502.932.932 0 0 1-.08.382 1.156 1.156 0 0 1-.21.317.954.954 0 0 1-.673.29.96.96 0 0 1-.687-.29 1.065 1.065 0 0 1-.212-.317.961.961 0 0 1-.066-.383c0-.136.016-.262.066-.383a1.05 1.05 0 0 1 .212-.316.88.88 0 0 1 .303-.212 1 1 0 0 1 .383-.079zm0-.278a1.19 1.19 0 0 0-.488.092 1.278 1.278 0 0 0-.264.159 1.925 1.925 0 0 0-.753-.159H8.22c0 .506.209 1.03.634 1.585.424.554.941.844 1.557.844h1.624c.578 0 .977-.075 1.215-.198.066.045.136.086.21.12.15.065.313.092.49.092.158 0 .31-.027.461-.093.07-.03.136-.065.198-.105.234.13.647.184 1.241.184h1.61c.617 0 1.134-.277 1.558-.831.425-.555.647-1.078.647-1.584h-4.224c-.248 0-.499.051-.753.158a1.118 1.118 0 0 0-.132-.092 1.518 1.518 0 0 0-.29-.132 1.044 1.044 0 0 0-.317-.04zm-.105 5.001c.135.986.278 1.998.38 2.987.07.7.114 1.356.148 1.88.033.525.05.922.033 1.106-.038.387-.14.61-.248.727a.414.414 0 0 1-.313.132.397.397 0 0 1-.314-.132c-.11-.116-.227-.34-.264-.727-.018-.184 0-.58.033-1.105a54.62 54.62 0 0 1 .165-1.881c.101-.99.244-2 .38-2.987zm-.013-1.423a.158.158 0 0 0-.037.004.158.158 0 0 0-.05.033.158.158 0 0 0-.032.033.158.158 0 0 0-.033.066c-.003.014.002.035 0 .05a86.495 86.495 0 0 0-.528 4.19 54.46 54.46 0 0 0-.166 1.882c-.034.53-.055.937-.033 1.171.042.434.174.727.347.908a.76.76 0 0 0 .545.248.767.767 0 0 0 .544-.248c.168-.18.288-.474.33-.908.023-.234.018-.64-.016-1.171a53.189 53.189 0 0 0-.165-1.881 85.828 85.828 0 0 0-.545-4.191c-.002-.015.002-.036 0-.05a.158.158 0 0 0-.082-.115.158.158 0 0 0-.079-.021zm-1.489 7.99c.034.019.087.02.115.05a.812.812 0 0 1 .165.314c.043.136.083.3.116.445.033.145.061.279.132.396.048.08.12.131.198.182.078.05.166.09.264.132.132.055.272.075.413.099h-1.403v-1.617zm3.201 0v1.618h-1.402c.14-.024.28-.044.412-.1.098-.04.203-.081.28-.131a.537.537 0 0 0 .182-.182c.07-.117.1-.25.132-.396a5.78 5.78 0 0 1 .116-.445.812.812 0 0 1 .165-.314c.028-.03.081-.031.115-.05zm-3.39-.38l-.026.001a.158.158 0 0 0-.05.033.158.158 0 0 0-.049.099v2.03a.158.158 0 0 0 0 .033.158.158 0 0 0 .149.115h3.531a.159.159 0 0 0 .033 0 .158.158 0 0 0 .116-.148v-2.013a.158.158 0 0 0-.017-.066.158.158 0 0 0-.033-.05.158.158 0 0 0-.099-.033.695.695 0 0 0-.511.215 1.162 1.162 0 0 0-.248.445c-.05.16-.067.307-.099.446a1.39 1.39 0 0 1-.099.313.552.552 0 0 1-.099.083c-.056.036-.131.064-.214.099a1.476 1.476 0 0 1-.495.115c-.129 0-.329-.046-.495-.115-.084-.035-.159-.063-.215-.1a.552.552 0 0 1-.099-.082c-.03-.049-.051-.175-.083-.313a5.37 5.37 0 0 0-.115-.446 1.162 1.162 0 0 0-.248-.445.695.695 0 0 0-.511-.215.158.158 0 0 0-.025-.002zm13.589-9.02c-.465 0-.777.27-.771.698.006.466.318.735.771.735.454 0 .723-.27.717-.735-.006-.429-.276-.698-.717-.698zm.053-1.55c.307 0 .613.063.921.19.59.244.987.667 1.25 1.24.267.586.248 1.178 0 1.764-.248.585-.672.968-1.25 1.213a2.282 2.282 0 0 1-.898.184c-.317 0-.635-.065-.948-.184-.587-.223-.976-.654-1.24-1.213a2.072 2.072 0 0 1-.184-.89c-.002-.618.268-1.164.68-1.608.203-.22.454-.387.744-.505.31-.127.618-.191.925-.191zm-.072-.618h-.001c-.81 0-1.447.281-2.019.854-.585.587-.834 1.225-.845 2.049-.006.476.09.896.284 1.277.154.752.162 2.01-.042 2.01-.356 0-.152-.945-.17-1.24-.03-.501-.325-.928-.676-1.267-.082-.079-.171-.165-.288-.178a3.228 3.228 0 0 0-.34-.022c-.132 0-.263.014-.385.058-.087.032-.09.155-.061.235.03.083.085.171.18.182a.608.608 0 0 0 .073.005c.117 0 .233-.03.35-.03h.014c.05 0 .105.004.14.04-.08.147-.188.29-.206.464a.453.453 0 0 0 .017.202c.23.634.369 2.091 1.32 2.091.18 0 .266-.038.324-.09.422-.393.428-1.057.403-1.608.558.525 1.188.745 1.966.756h.045c.797 0 1.432-.296 2.003-.846a3 3 0 0 0 .397-.462c.025.545.052 1.093.251 1.605.158.404.509.697.886.897.03.016.05.022.065.022.047 0 .018-.072-.036-.123a2.29 2.29 0 0 1-.558-.846c-.202-.555-.182-1.153-.169-1.733.008-.354.023-.709.002-1.063h-.002c.011-.108.017-.22.019-.336.01-.83-.28-1.463-.855-2.049-.583-.594-1.221-.845-2.048-.854h-.038zm7.122 2.073v4.931h.825v-4.93zm.437 7.255zm-.003.136zm-10.61-.521v.805c-.12-.055-.238-.106-.349-.161a1.119 1.119 0 0 0-.32-.09c-.091-.014-.186-.023-.272-.04a.316.316 0 0 1-.135-.05c-.01-.008-.019-.02-.019-.062 0-.042.008-.053.019-.062a.316.316 0 0 1 .135-.049c.086-.017.18-.027.272-.04.115-.018.226-.044.32-.09.111-.055.229-.106.349-.161zm0 .805zm.409.057zm7.42-.922c.079 0 .158 0 .238.003.444.01 1.11.117 1.662.255.273.068.517.143.69.217l.074.034-.065.026a4.84 4.84 0 0 1-.69.183c-.554.112-1.224.193-1.671.204l-.238.003c-.806 0-1.608-.092-2.41-.185-.857-.1-1.714-.201-2.574-.201h-.13c-.753.01-1.617.094-2.306.383v-.92c.689.29 1.553.374 2.305.383l.13.001c.861 0 1.718-.101 2.574-.201.803-.093 1.605-.185 2.41-.185zM22.92 10.6l-.098.057c-.23.132-.469.223-.682.329a.72.72 0 0 1-.203.052c-.098.015-.199.026-.291.044a.71.71 0 0 0-.315.136.47.47 0 0 0-.166.376c0 .164.062.29.166.377a.71.71 0 0 0 .315.135c.092.02.193.03.291.045a.72.72 0 0 1 .203.052c.213.105.453.197.682.329l.098.056.1-.054c.663-.356 1.587-.444 2.368-.453l.127-.001c.844 0 1.685.1 2.525.198.82.095 1.638.188 2.46.188l.245-.003a11.09 11.09 0 0 0 1.744-.212c.293-.06.558-.128.752-.2.108-.041.196-.084.262-.13a.458.458 0 0 0 .105-.097.292.292 0 0 0 .062-.177c0-.06-.02-.12-.06-.174a.48.48 0 0 0-.101-.1 1.288 1.288 0 0 0-.26-.142 5.22 5.22 0 0 0-.751-.238c-.582-.145-1.278-.256-1.753-.267a10.442 10.442 0 0 0-.246-.003c-.821 0-1.64.092-2.459.188-.84.097-1.68.198-2.525.198l-.127-.001c-.781-.01-1.705-.098-2.368-.454l-.1-.054zm-.221 3.337l-1.534 1.813h.748l.786-.937.793.937.771-.937.793.937.786-.937.794.937.785-.937.794.937.77-.937.794.937.793-.937.77.937.794-.937.786.937h.748l-1.534-1.813-.793.876-.77-.876-.794.876-.794-.876-.77.876-.794-.876-.785.876-.794-.876-.786.876-.793-.876-.77.876-.794-.876zM41.164 2.25c-.105 0-.21.013-.316.039-.212.052-.442.17-.69.354H35.17v1.103h4.988c.248.184.478.302.69.354a1.324 1.324 0 0 0 .63 0c.207-.052.415-.17.623-.354h.192c.2.184.405.302.617.354a1.33 1.33 0 0 0 .636 0c.211-.052.437-.17.677-.354h5.036V2.643h-5.036c-.24-.184-.466-.302-.677-.354a1.33 1.33 0 0 0-.636 0 1.42 1.42 0 0 0-.617.354H42.1a1.508 1.508 0 0 0-.624-.354 1.287 1.287 0 0 0-.313-.039zm-1.853 7.921v.422h-2.229v-.422zm-1.12.831q1.397 0 1.931.712.534.713.534 1.28-.013.883-.738 1.543-.726.66-1.728.66-1.015 0-1.74-.66-.726-.66-.726-1.53 0-.58.435-1.293.435-.712 2.031-.712zm-1.742-1.266v.99q-.474.276-.87.896t-.409 1.372q0 .883.732 1.787.732.903 2.288.969 1.543-.066 2.282-.97.738-.903.738-1.773-.013-.765-.409-1.391-.395-.627-.883-.904v-.976zm9.536 3.143c.805 0 1.813.414 2.301.902.427.426.483.992.499 1.518h-5.577c.016-.526.072-1.092.499-1.518.488-.488 1.472-.902 2.278-.902zm0-.451c-.956 0-1.984.441-2.587 1.044-.618.618-.688 1.432-.688 2.04v.238h6.55v-.237c0-.61-.047-1.423-.665-2.04-.603-.604-1.655-1.045-2.61-1.045zm10.618-9.796c.75 0 1.417.346 1.852.888h-3.703a2.368 2.368 0 0 1 1.851-.888zm2.103 1.27c.142.272.234.575.262.897h-4.729a2.36 2.36 0 0 1 .263-.897zm.264 1.28a2.36 2.36 0 0 1-.248.896h-4.236a2.361 2.361 0 0 1-.25-.897zm-.49 1.278a2.368 2.368 0 0 1-1.876.918 2.37 2.37 0 0 1-1.875-.918zm-1.877-4.21a2.76 2.76 0 0 0-2.755 2.756 2.759 2.759 0 0 0 2.755 2.755 2.76 2.76 0 0 0 2.756-2.755 2.76 2.76 0 0 0-2.756-2.756zm-3.725 9.056l-.753 3.395-.715-.332 1.468-3.063zm9.13-2.286c-.015 0-.03 0-.045.002a1.24 1.24 0 0 0-.37.115c-.774.98-1.35 2.194-1.722 3.637-.43.072-1.442.515-3.025 1.327a.705.705 0 0 1-.247.039 2.25 2.25 0 0 1-.659-.128 1.002 1.002 0 0 0-.308-.042c-.084 0-.173.006-.266.016l-.332.102-2.144-3.496-2.13 4.275.293.102.14-.294.128.051-.14.358.204.076.14-.332.153.077-.128.344.23.09.115-.345.179.09-.077.344.243.115.855-3.93 1.595 2.577-.37.102-.383.115c.01.106.03.183.076.243.048.059.132.094.243.102.11.008.162.034.178.09.07.239.157.45.256.612.078.127.17.19.274.19a.295.295 0 0 0 .083-.012c.149-.046.301-.086.447-.14l.15.225c.016.023.043.033.074.033.109 0 .272-.119.22-.2l-.138-.211c.301-.13.59-.292.88-.447.988-.144 1.857-.366 2.59-.663.735-.297 1.24-.615 1.52-.957.078-.045.421-.632 1.02-1.749.6-1.116.776-1.881.536-2.31a.36.36 0 0 0-.115-.127.407.407 0 0 0-.224-.066z"/><path d="M8.22.375c-9.625 0-9.625 17.25 0 17.25m0-17.25h54.228M8.22 17.625h54.228M70.135.375v17.25M62.448.375c9.625 0 9.625 17.25 0 17.25" fill="none" stroke="#000"/></svg>