<svg xmlns="http://www.w3.org/2000/svg" width="108.471" height="18"><path d="M13.261 3.31q1.73 0 3.203.623l-.287.534q-1.423-.514-3.311-.514-.959 0-1.977.86l-.484-.406Q11.532 3.31 13.26 3.31zm-1.215 1.295q-.188.326-.188.712 0 .425.296.741l-1.7-.277v-.099q1.166-.988 1.592-1.077zm2.342-.109q1.275.188 2.066.613v.02q-.79.583-2.135.939.277-.386.277-.761 0-.396-.208-.81zm-1.166-.118q.464 0 .692.192.227.193.227.757-.01.75-.92.75-.938-.01-.938-.76 0-.554.232-.747.232-.192.707-.192zm.079-1.483q-2.106 0-3.549 1.552l.751.672q-.247.227-.622.287-.168 0-.173.425-.005.425.143.425.189-.005.364-.005.967 0 1.544.138.682.163 1.453.163 1.621 0 3.153-.9.9-.217 1.602-.217h.306v-.652q-.83 0-1.68-.178v-.02l.464-.8q-1.65-.89-3.756-.89zm3.885-.218q1.63.02 1.987.811.267.484.267 1.275v.01q0 .79-.267 1.275-.356.791-1.987.81h-6.277q-1.641-.019-1.987-.81-.277-.484-.277-1.275v-.01q0-.79.277-1.275.346-.79 1.987-.81zm-6.31-.427q-1.42 0-2.033.595-.632.612-.623 1.923-.009 1.311.623 1.923.614.595 2.033.595l.181-.002h5.98l.181.002q1.42 0 2.034-.595.631-.612.622-1.923.01-1.31-.632-1.923-.605-.595-2.024-.595l-.18.002h-5.981l-.18-.002zm8.282 6.802c.106 0 .159.385.159.492 0 .106-.053.49-.16.49H8.964c-.124 0-.185-.384-.185-.49 0-.107.061-.492.185-.492zM8.645 8.495c-.283 0-.425.57-.425 1.049 0 .477.142 1.048.425 1.048h10.831c.266 0 .398-.57.398-1.048 0-.478-.132-1.049-.398-1.049zm9.89 3.773q.5 0 .5.41 0 .367-.511.367l-9.053-.01q-.49 0-.49-.378 0-.39.5-.39zm-9.23-.467q-.79 0-.79.856 0 .855.811.855h9.442q.745 0 .745-.811 0-.9-.727-.9h-9.48zm4.731 2.055q-.166 0-.278.106-.11.105-.11.25 0 .144.11.244.112.1.278.1.167 0 .283-.1.117-.1.117-.244 0-.145-.117-.25-.116-.106-.283-.106zm-1.266.011q-.167 0-.278.1-.111.1-.111.245 0 .144.111.25.111.105.278.105.166 0 .277-.105.112-.106.112-.25 0-.145-.112-.245-.11-.1-.277-.1zm2.544 0q-.167 0-.278.1-.111.1-.111.245 0 .144.11.25.112.105.279.105.166 0 .283-.105.117-.106.117-.25 0-.145-.117-.245t-.283-.1zm-4.22.324q.15 0 .176.065.022.111-.333.3-1.872.733-1.953.733h-.002q-.016.007-.027.007-.029 0-.029-.04l-.222-.522q-.044-.056.022-.078.045-.022 2.1-.433.164-.032.269-.032zm5.901.006q.105 0 .274.037 2.066.411 2.1.433.066.022.021.078l-.21.522q-.009.04-.04.04-.011 0-.027-.007h-.002q-.07 0-1.953-.733-.345-.189-.334-.3.026-.07.171-.07zm-5.736-.34q-.097 0-.211.022-.844.144-2.744.522-.133.055-.055.233l.355.955q.06.158.189.158l.033-.002q1.767-.689 2.533-1.022.5-.2.367-.578-.114-.288-.467-.288zm5.594.004q-.368 0-.484.295-.133.378.366.578.767.333 2.533 1.01.025.006.047.006.12 0 .175-.15l.356-.955q.078-.189-.056-.233-1.888-.378-2.743-.533-.105-.018-.194-.018zM22.264 2.25c-.181 0-.362.014-.537.036-.242.06-.118.338.097.338.014 0 .03-.002.044-.004.453.052 1.011.08 1.354.338.454.495.25 1.523.303 2.012.004.026.005 1.973.005 2.96a3.32 3.32 0 0 0-2.064-.254c-.239.125.041.286.228.286a.245.245 0 0 0 .062-.008c.662.072 1.415.25 1.751.866.034.111.013.15-.038.15-.111 0-.367-.186-.511-.186-.008 0-.015 0-.022.002a4.07 4.07 0 0 0-.853-.091c-.21 0-.42.017-.62.051-.228.15.051.289.236.289.02 0 .04-.002.057-.006.676.082 1.424.265 1.751.882.004.686 0 1.14.018 1.77-.007.195.119.291.247.291.127 0 .255-.095.256-.284-.005-.621-.049-1.167.032-1.77.165-.676 1.339-.78 2.068-.947.159-.187-.154-.257-.356-.257a.66.66 0 0 0-.081.005 3.686 3.686 0 0 0-.282-.011c-.476 0-.956.094-1.381.313-.017-.408.384-.642.672-.806.454-.195.954-.215 1.428-.32.169-.146-.098-.27-.282-.27a.313.313 0 0 0-.067.007 3.655 3.655 0 0 0-.35-.017 3.2 3.2 0 0 0-1.412.314c.009-1.54.034-3.03-.01-4.487-.036-.45-.296-.864-.732-.998a2.436 2.436 0 0 0-1.01-.194zm7.91.308v.299h-1.578v-.299zm-.794.588q.99 0 1.368.504.378.504.378.906-.01.625-.523 1.092-.513.467-1.223.467-.718 0-1.232-.467-.513-.467-.513-1.083 0-.41.308-.915.308-.504 1.437-.504zm-1.232-.896v.7q-.336.196-.616.635-.28.439-.29.97 0 .626.519 1.266.518.64 1.62.686 1.092-.047 1.614-.686.523-.64.523-1.256-.01-.541-.29-.985-.28-.443-.625-.64v-.69zm2.026 5.774v.298h-1.578v-.298zm-.794.588q.99 0 1.368.504.378.504.378.905-.01.626-.523 1.093-.513.466-1.223.466-.718 0-1.232-.466-.513-.467-.513-1.083 0-.411.308-.915t1.437-.504zm-1.232-.897v.7q-.336.197-.616.635-.28.44-.29.971 0 .626.519 1.265.518.64 1.62.686 1.092-.046 1.614-.686.523-.64.523-1.255-.01-.542-.29-.985-.28-.444-.625-.64v-.69zM33.47 2.25c-.181 0-.362.014-.538.036-.241.06-.117.338.098.338a.342.342 0 0 0 .044-.004c.453.052 1.011.08 1.353.338.455.495.25 1.523.303 2.012.004.026.006 1.973.006 2.96a3.32 3.32 0 0 0-2.065-.254c-.238.125.042.286.228.286a.245.245 0 0 0 .062-.008c.663.072 1.416.25 1.752.866.033.111.012.15-.038.15-.112 0-.367-.186-.511-.186-.008 0-.015 0-.022.002a4.07 4.07 0 0 0-.854-.091c-.21 0-.419.017-.62.051-.227.15.052.289.237.289.02 0 .039-.002.056-.006.676.082 1.424.265 1.752.882.004.686 0 1.14.018 1.77-.008.195.118.291.246.291.127 0 .256-.095.257-.284-.005-.621-.05-1.167.032-1.77.164-.676 1.338-.78 2.067-.947.16-.187-.154-.257-.356-.257a.66.66 0 0 0-.08.005 3.686 3.686 0 0 0-.282-.011c-.477 0-.957.094-1.381.313-.018-.408.384-.642.671-.806.454-.195.954-.215 1.428-.32.17-.146-.097-.27-.281-.27a.313.313 0 0 0-.068.007 3.655 3.655 0 0 0-.35-.017 3.2 3.2 0 0 0-1.412.314c.01-1.54.034-3.03-.01-4.487-.036-.45-.295-.864-.732-.998a2.436 2.436 0 0 0-1.01-.194zM23.339 13.428l-1.965 2.322h.958l1.007-1.2 1.015 1.2.987-1.2 1.016 1.2 1.006-1.2 1.016 1.2 1.006-1.2 1.016 1.2.987-1.2 1.016 1.2 1.016-1.2.987 1.2 1.015-1.2 1.007 1.2h.957l-1.964-2.322-1.015 1.122-.987-1.122-1.016 1.122-1.016-1.122-.987 1.122-1.016-1.122-1.006 1.122-1.016-1.122-1.006 1.122-1.016-1.122-.987 1.122-1.015-1.122zM49.517 2.376q.066 0 .14.033.14.062.186.17.046.109-.016.232-.046.124-.155.186.016-.217-.108-.356-.186.031-.325.186-.03-.108.015-.248.047-.124.155-.178.05-.025.108-.025zm0 .389l.032.186q-.031.077-.155.123-.047-.123-.016-.2l.14-.109zm-1.562.585q.363 0 .448.514-.139.155-.472.51-.333.357-.68.875-.349.518-.41.998l-.434-.17q.185-.464.797-1.16.611-.697.766-1.069l-.034.001q-.25 0-.322-.217-.016-.217.279-.279.032-.003.062-.003zm-.813 3.256q-.075 0-.147.028-.047.062-.016.108.065-.03.143-.03.198 0 .476.2h.155v-.077h-.155q-.24-.229-.456-.229zm.008.167q-.093 0-.124.031t-.016.093q-.015.093.124.093.025.003.055.003.119 0 .317-.05-.248-.154-.356-.17zm.789.418q-.046 0-.062.062.016.031.062.031.03 0 .03-.046 0-.047-.03-.047zm.202-.605l.03.002q.217 0 .201.139-.015.14-.07.232-.054.093-.177.248-.155.108-.21.116l-.024.002q-.035 0-.053-.018-.023-.023.024-.1L48 7.052l.14-.093q.046-.03-.009-.108-.054-.078-.015-.124.02-.023.046-.023.027 0 .062.023.07.046.039.14-.046.092-.232.278h.03q.186-.17.233-.232.015-.062.015-.17 0-.093-.139-.109-.077.016-.108.062t-.031.093q-.016.077.062.155L48 7.006q-.062-.155-.023-.294.034-.126.163-.126zm1.86-2.436q.173 0 .306.163.17.247.015.387-.07.037-.14.037-.131 0-.262-.13-.155.402-.17 1.323-.016.92-.186 1.37l-.557.093q.387-.635.487-1.254.101-.62.093-1.099-.007-.48-.007-.696.234-.194.422-.194zM46.64 7.547l.263.062h-.186q-.093-.03-.077-.062zm2.307-4.715q.028 0 .06.01.233.109.31.45.202-.146.387-.146.07 0 .14.021.139.078.046.217-.129-.086-.224-.086-.112 0-.178.117-.14.248-.124 1.57.015 1.324-.325 1.959-.34.634-.457.673l-.011.002q-.106 0-.136-.69.047-.094.047-.264 0-.155-.225-.201-.061-.013-.116-.013-.146 0-.247.09-.248-.154-.805-.247.139-.836 1.037-1.803.897-.968.96-1.246.046-.232-.264-.279.024-.134.125-.134zM46.7 7.682q.013 0 .033.005l.077.015.14-.015q0 .03-.264.061-.046 0-.015-.03-.012-.035.029-.035zm.28-1.172q.17.016.496.093.325.078.325.31.123 0 .123.077-.185.14-.185.279-.016.154.14.154.107 0 .324-.154.093.557.209.774.116.216-.58.294-.155-.109-.17-.225-.016-.116-.155-.116-.14 0-.62.093-.123-.077-.123-.232.216-.093.31-.201-.186-.14-.295-.186v-.093q.186-.015.186-.093-.031-.093-.093-.093-.077.016-.046.078.046.03-.078.046-.124-.015-.139-.03 0-.047.015-.094.294-.371.356-.68zm-5.045.62l-1.64 3.838-.82-.403 2.46-3.436zm6.36 1.435q.145 0 .303.066.518.216.394 2.267-.123 2.05-.557 4.202l.356.217h-4.674l.975-.403-1.315-3.621q-.129-.717.216-.717.154 0 .403.144l2.228 2.925.372-.186q.17-3.11.712-4.55.258-.344.588-.344zm1.21-6.315q-.082 0-.149.035-.147.078-.224.248-.047.108-.047.186-.058-.035-.172-.035-.039 0-.083.004-.178.015-.178.386.053-.01.096-.01.143 0 .167.119-.015.108-.186.31l-.185.216q-.135-.523-.571-.523-.067 0-.141.012-.45.109-.387.48 0 .17.263.263-.109.217-.72.898-.611.68-.859 1.3l.712.278q-.015.155-.054.256-.039.1-.201.325-.163.224-.132.286 0 .093.155.109 0 .092-.093.092-.03.109.047.17-.078.17.03.217l.031.232q-.015.233-.325.96l-.046-.001q-.294 0-.294.187 0 .171.158.171l.028-.001q.037.006.072.006.32 0 .516-.501l.263-.681q.14.007.255.007.116 0 .21-.007l.108.216q-.82 1.533-1.006 4.411l-1.935-2.553q-.251-.32-.502-.32-.09 0-.18.041l-1.732-3.885-3.189 4.489q-.216.356-.093.433.08.042.164.042.197 0 .425-.228-.078.124-.093.271-.016.147.108.21.045.031.094.031.07 0 .146-.063.131-.108.209-.217-.124.403.17.558.015.008.032.008.104 0 .278-.333l1.61-3.777q.069-.195.133-.195.093 0 .176.412l1.145 2.46q-.464.217-.248.93.078.293 1.239 3.513h-.016l-1.099.464.078.588 6.33-.015-.867-.898q.51-2.801.542-5.402-.186-.727-.604-1.238l-.217-.294q.109-.062.202-.232l.866-.124q.232-.603.232-1.524t.078-1.153q.106.04.192.04.115 0 .195-.071.278-.232.03-.62-.19-.272-.457-.272-.186 0-.409.133.015-.51.077-.588.042-.025.085-.025.086 0 .178.103.248-.248.047-.465-.062-.061-.124-.077.062-.077.108-.17.062-.155-.007-.317-.07-.163-.24-.24-.118-.051-.216-.051zm5.985 1.555h-.016c-.154.003-.255.047-.302.133v.175l-.432.227c-.144.075-.216.144-.216.205l.73-.34c.012.03.061.044.149.044l.057-.002a.7.7 0 0 0 .36-.113V4.05h-.061a.543.543 0 0 0-.264-.076.405.405 0 0 0-.086.01.441.441 0 0 0-.23.11c.052-.112.244-.168.575-.168h.056v-.081a1.556 1.556 0 0 0-.32-.04zm1.112-.114a1.145 1.145 0 0 0-.241.489c-.038.175-.047.581-.026 1.22.473-.268.746-.551.818-.85.072-.298.063-.543-.026-.735l-.164-.031-.186-.052-.175-.04zm-.367-.314h.004c.266.002.523.096.744.241.395.232.77.492 1.153.743.261.156.554.261.854.317-.488.026-.988.101-1.423.333-.284.154-.524.403-.625.716-.09.276-.084.572-.09.86.004.538.105 1.095.401 1.552.019.031.048.063.06.094-.047.045-.109.056-.172.056-.043 0-.087-.005-.126-.008-.181-.031-.312-.175-.432-.302a3.969 3.969 0 0 1-.477-.66c-.261-.49-.35-1.05-.392-1.598-.015-.194-.01-.389-.026-.582-.013-.088-.074-.186-.171-.186a.146.146 0 0 0-.006 0c-.13 0-.237.09-.358.126a1.117 1.117 0 0 1-.374.067c-.127.012-.243.08-.37.08l-.032-.002a1.146 1.146 0 0 1-.145-.015c.198-.062.4-.118.583-.218.056-.028.115-.096.078-.16a.095.095 0 0 0-.084-.043.232.232 0 0 0-.106.03c-.137.065-.255.17-.404.207a.968.968 0 0 1-.314.05c-.04-.037-.042-.1-.038-.152.03-.083.131-.095.196-.14.024-.01.05-.035.076-.035.008 0 .017.003.025.01a.2.2 0 0 0 .088.022c.036 0 .071-.013.09-.049.046-.082.002-.188-.078-.23a.17.17 0 0 0-.243.073c-.029.052-.094.062-.138.099-.008.009-.013.013-.018.013-.013 0-.02-.023-.026-.039-.01-.032.043-.025.054-.046.167-.11.341-.208.502-.326.179-.211.436-.333.683-.447.026-.027.007-.07.037-.096.087-.123.24-.171.373-.225a1.95 1.95 0 0 1 .645-.13h.022zm6.77 1.575h.01c.624.002 1.262.11 1.807.429.181.105.35.234.473.404-.16-.132-.357-.203-.551-.266.02.06.01.13.044.184.206.125.383.336.391.585.015.337-.147.65-.34.916-.164.23-.346.471-.377.76-.004.052.003.108-.035.148-.087.105-.228.146-.356.171a.857.857 0 0 1-.143.012.547.547 0 0 1-.376-.128c-.088-.092-.147-.208-.233-.3-.227-.279-.507-.533-.857-.64a1.168 1.168 0 0 0-.47-.043l.165.246a.632.632 0 0 1 .17-.024.411.411 0 0 1 .376.206c-.173.005-.343.05-.515.069-.48.072-.961.148-1.44.217-.036-.038-.083-.07-.137-.07a.14.14 0 0 0-.008 0c-.69-.105-1.382-.212-2.081-.217a.09.09 0 0 1-.021.003c-.026 0-.035-.017-.03-.05 0-.06-.033-.14-.102-.14h-.007c-.085.006-.13.09-.152.162-.053.134-.085.296-.212.38a.34.34 0 0 1-.16.039.461.461 0 0 1-.256-.082c-.093-.08-.135-.2-.185-.308-.155-.394-.176-.825-.162-1.244.017-.314.103-.64.321-.877.173-.194.432-.282.68-.337.467-.107.95-.125 1.43-.137h.037c.315 0 .629.021.944.021h.196c.598 0 1.197-.028 1.793-.079a6.478 6.478 0 0 1 .369-.01zM58.343 2.25a.953.953 0 0 0-.388.08 1.01 1.01 0 0 1-.408.09 1.01 1.01 0 0 1-.41-.09.702.702 0 0 0-.285-.058c-.217 0-.467.086-.751.257-.29-.171-.543-.257-.761-.257a.705.705 0 0 0-.287.058 1.01 1.01 0 0 1-.408.09 1.01 1.01 0 0 1-.41-.09.953.953 0 0 0-.387-.08c-.172 0-.357.042-.555.125-.242.102-.435.153-.579.153a.383.383 0 0 1-.169-.034 1.649 1.649 0 0 0-.304-.124.158.158 0 0 0-.045-.008c-.053 0-.07.042-.055.127.107.313.316.476.629.49l.145.002c.247 0 .453-.029.618-.088a.847.847 0 0 1 .285-.046c.128 0 .267.023.418.071.173.055.342.082.508.082.096 0 .19-.009.284-.027a.945.945 0 0 1 .181-.018.65.65 0 0 1 .428.15 2.25 2.25 0 0 0-.502.21c-.11.066-.218.17-.23.304a1.428 1.428 0 0 0-.326.176c-.197.134-.369.305-.54.469-.083.061-.18.103-.258.168-.066.043-.123.111-.119.195-.008.107.044.207.059.31.007.231.138.524.393.554l1.057-.119h.005c.024 0 .064-.017.088-.017.011 0 .02.003.022.014.005.724.12 1.465.463 2.11.12.23.274.443.446.636.047.2-.06.39-.154.558-.09.158-.242.275-.313.444-.089.181-.11.391-.226.558-.103.165-.251.294-.396.419-.122.113-.243.235-.31.39-.34.254-.675.536-.883.912-.008.03.02.036.044.036l.026-.002h1.026a1.06 1.06 0 0 0 .261-.32.41.41 0 0 0 .148.029.245.245 0 0 0 .2-.088.257.257 0 0 0 .07-.204c.01-.34.118-.69.35-.943.11-.101.248-.167.372-.25.062-.055.105-.13.163-.189a5.13 5.13 0 0 1 .92-.847c.021-.009.047-.034.07-.034.01 0 .018.004.026.013.17.118.3.284.423.448.06.193.138.39.287.533a.719.719 0 0 0 .235.157c.11.251.144.527.157.8-.24.28-.46.578-.65.895h1.168a.726.726 0 0 0 .192-.482l.024.001c.113 0 .229-.066.261-.178.05-.15-.025-.309-.107-.434-.174-.257-.333-.54-.352-.856-.004-.12.005-.243-.028-.36a.817.817 0 0 0-.255-.43c-.193-.208-.272-.491-.329-.763.259.01.518.024.775.058.345.044.691.102 1.03.18.021.006.055.009.048.04.017.1.086.198.186.224.062.18.117.373.256.509a.42.42 0 0 0 .082.048c.018-.214.04-.43.1-.636l1.022-.098c-.062.42-.145.85-.364 1.219-.203.33-.473.612-.758.87-.072.102-.135.223-.247.283a.276.276 0 0 0-.146.051c-.17.11-.282.289-.394.454-.062.098-.12.198-.176.3h1.282c.017-.105.03-.21.027-.316a.31.31 0 0 0 .099.016.248.248 0 0 0 .218-.113.632.632 0 0 0 .09-.272c.257-.254.41-.59.627-.874a1.14 1.14 0 0 1 .458-.365.69.69 0 0 0 .33-.472l.016.001c.063 0 .11-.055.15-.093.03.006.06.01.09.01.093 0 .188-.031.235-.115a.335.335 0 0 0 .031-.074c.328.21.586.54.68.921.053.172.025.354.031.531v.309a7.003 7.003 0 0 0-.662.906h1.17a.769.769 0 0 0 .19-.49.286.286 0 0 0 .036.002c.103 0 .209-.054.244-.154.06-.15-.008-.314-.087-.443-.041-.067-.022-.151-.034-.226-.02-.344-.022-.688-.023-1.032.006-.12.017-.258-.061-.36-.04-.045-.114-.02-.15-.073-.074-.093-.105-.212-.14-.324-.061-.209-.057-.452.074-.634a2.01 2.01 0 0 0 .24-.372c.083-.164.145-.337.2-.512.012.34-.017.682-.107 1.01-.08.436-.047.885.009 1.322.031.208.07.429.202.599.045.054.118.1.19.1a.154.154 0 0 0 .081-.022c.13-.065.199-.213.195-.355.003-.201-.063-.394-.096-.591-.073-.35-.149-.7-.226-1.048.102-.58.17-1.183.056-1.768-.071-.353-.24-.707-.546-.912a3.783 3.783 0 0 0-.595-.31 3.356 3.356 0 0 0-1.498-.257 25.305 25.305 0 0 1-3.205-.119 3.62 3.62 0 0 1-1.002-.218c-.578-.22-1.083-.584-1.597-.922a1.865 1.865 0 0 0-.653-.258.828.828 0 0 1 .397-.097c.06 0 .123.006.188.017.08.014.163.022.247.022.169 0 .344-.03.525-.087.151-.048.29-.071.418-.071.103 0 .198.015.285.046.165.059.37.088.618.088.047 0 .095 0 .145-.003.313-.013.526-.176.639-.489.01-.085-.013-.127-.07-.127a.183.183 0 0 0-.05.008 2.007 2.007 0 0 0-.3.124.395.395 0 0 1-.17.034c-.145 0-.337-.051-.577-.153a1.414 1.414 0 0 0-.55-.125zm-.335 11.631a1.31 1.31 0 0 0-.313.039c-.21.051-.437.168-.682.35h-4.935v1.091h4.935c.245.182.473.299.682.35a1.31 1.31 0 0 0 .623 0 1.48 1.48 0 0 0 .617-.35h.19c.198.182.402.299.611.35a1.316 1.316 0 0 0 .629 0c.21-.051.433-.168.67-.35h4.983V14.27h-4.983c-.237-.182-.46-.299-.67-.35a1.316 1.316 0 0 0-.629 0 1.39 1.39 0 0 0-.61.35h-.19a1.492 1.492 0 0 0-.618-.35 1.274 1.274 0 0 0-.31-.039zm12.156-9.004q.199 0 .23.244l.335 3.04q.26 2.091.306 4 0 1.314-.222 2.085-.221.771-.695.771-.473 0-.649-.771-.175-.771-.16-2.085.03-1.909.29-4l.336-3.04q.03-.244.23-.244zM67.858 2.25q-.641.32-.076.672 1.863 1.084 1.634 2.306l-.351 2.932q-.245 2.092-.352 4.001 0 1.863.352 2.726.35.863 1.1.863.747 0 1.099-.863.35-.863.35-2.726-.106-1.909-.35-4l-.321-2.81q-.489-2.505-3.085-3.101zm6.566 0c-.698 0-1.31.513-1.31 1.171V15.75h.853V3.421c0-.322.284-.427.462-.427.187 0 .476.131.476.527v8.103h.852V3.521c0-.66-.653-1.271-1.333-1.271zm9.97.85l-1.362 4.632h-3.703L77.967 3.1zm-7.137-.531l1.675 5.695h4.498l1.675-5.695zm11.497-.319c-.083 0-.167.008-.25.015-1.208.13-2.066 1.352-1.876 2.536.084.881.63 1.375 1.23 1.86 1.784 1.094 1.283.692 3.083 1.603l.288-.54c-2.14-1.002-2.399-1.161-3.067-1.602-.547-.44-.98-.926-.942-1.662-.015-.51.289-1.033.63-1.284a1.64 1.64 0 0 1 .965-.326c.258 0 .501.06.714.212.539.266.835 1.147.44 1.701a1.047 1.047 0 0 1-.835.448.773.773 0 0 1-.456-.144c-.273-.152-.478-.683-.197-.98-.13-.136-.312-.303-.448-.303-.091 0-.16.068-.205.228-.304.729.182 1.556.91 1.754.13.038.259.06.388.06.835 0 1.61-.698 1.61-1.564.076-1.01-.73-1.936-1.739-1.997a2.454 2.454 0 0 0-.243-.015zm-5.553 11.627c-.104 0-.209.013-.314.039-.21.051-.438.168-.683.35h-4.947v1.095h4.947c.245.182.473.299.683.35a1.313 1.313 0 0 0 .625 0 1.49 1.49 0 0 0 .618-.35h.19c.198.182.403.299.613.35a1.319 1.319 0 0 0 .63 0c.21-.051.434-.168.672-.35h4.994v-1.095h-4.994c-.238-.182-.462-.299-.672-.35a1.319 1.319 0 0 0-.63 0c-.21.051-.415.168-.613.35h-.19a1.496 1.496 0 0 0-.618-.35 1.276 1.276 0 0 0-.311-.039zM93.639 2.8c.189.308.495.498.69.694.21.21.416.397.425.9l.028 1.441-.411-.014-.034-1.332c-.016-.638-.166-.773-.698-1.688zm2.059 3.446l-.523 1.206c-.059.188-.188.282-.386.282h-.354c-.204 0-.335-.097-.394-.29l-.523-1.198zM93.1 2.25c-.118 0 .263.783.48 1.105.329.485.447.846.446 1.146l-.002 1.334h-1.027c-.179 0-.268.046-.268.137 0 .091.1.223.298.394.123.102.367.598.732 1.488.06.135.14.202.242.202h1.214c.097 0 .177-.067.242-.202.364-.89.608-1.386.732-1.488.193-.182.292-.314.297-.394 0-.091-.089-.137-.267-.137h-.03l-1.021-.014c-.138-.973.016-1.223-.172-1.761-.1-.284-.035-.443-.639-.95-.449-.383-1.14-.86-1.257-.86zm5.612 2.139a1.57 1.57 0 0 0-.153.009c-.736.079-1.26.824-1.144 1.546.051.537.385.838.75 1.135 1.088.666.783.421 1.88.977l.176-.33c-1.306-.61-1.463-.707-1.87-.976-.334-.269-.598-.565-.575-1.014-.009-.31.176-.63.385-.782a1 1 0 0 1 .588-.2.73.73 0 0 1 .435.13c.329.162.51.7.269 1.037a.638.638 0 0 1-.51.273.471.471 0 0 1-.278-.088c-.166-.092-.291-.416-.12-.597-.079-.083-.19-.185-.273-.185-.056 0-.097.042-.125.139-.185.444.111.949.555 1.07a.837.837 0 0 0 .237.036c.509 0 .981-.426.981-.953a1.153 1.153 0 0 0-1.06-1.218 1.496 1.496 0 0 0-.148-.01zM97.58 9.368q.182 0 .227.214.073.332-.518.539-.124-.601.145-.726.082-.027.147-.027zm1.585 2.277v2.57h-.497v-2h-4.354v2h-.54v-2.57zm-.819.881v2.903h-3.721v-2.903zM97.54 8.97q-.222 0-.447.166-.435.404-.155 1.15l-.581 1.037h-2.892v3.214h.85v1.213h4.354v-1.213h.819v-3.214h-2.602l.456-.818q.777-.156.891-.747.031-.477-.362-.694-.165-.094-.331-.094z"/><path d="M8.22.375c-9.625 0-9.625 17.25 0 17.25m0-17.25h92.001M8.22 17.625h92.001m7.688-17.25v17.25M100.221.375c9.625 0 9.625 17.25 0 17.25" fill="none" stroke="#000"/></svg>