<svg xmlns="http://www.w3.org/2000/svg" width="87.8" height="18"><path d="M9.777 3.093q1.51.22 1.579 1.382v8.382q-.706-.843-2.536-1.184l.957-8.58zM9.35 2.25L8.22 12.272q2.52.289 3.136 1.8v1.678h.752V4.475q0-1.883-2.757-2.225zm7.668.45c.805 0 1.814.415 2.302.903.426.426.482.992.498 1.518h-5.576c.015-.526.071-1.092.498-1.518.488-.488 1.472-.902 2.278-.902zm0-.45c-.956 0-1.984.441-2.586 1.044-.619.618-.689 1.432-.689 2.04v.238h6.55v-.237c0-.61-.047-1.423-.665-2.04-.602-.604-1.654-1.045-2.61-1.045zm-2.5 7.507c.19.406.319.647 1.018.868 2.034.156 2.854.42 3.33.58.342.088.985.504 1.006 1.007-.029.51-.555.903-1.032.999-.43.12-2.437.183-3.288.4-.657.202-.666.61-1.078.914-.961-.655.088-1.577.43-1.77a1.98 1.98 0 0 1 1.005-.254 7.2 7.2 0 0 1 .64.04c1.187-.009 1.154-.62-.052-.674h-.01c-.245 0-.444.01-.615.01-.371 0-.614-.049-.926-.359-.319-.21-.918-.9-.428-1.761zm.353-1.216c-.079 0-.177.017-.3.053-.366.355-.718.948-.906 1.513-.046.276.004.748.227 1.163.29.253.562.605.875.891-.313.283-.492.363-.778.642-.319.44-.425.707-.368 1.286-.006.43.439 1.063.815 1.405.224.18.385.256.497.256.247 0 .25-.37.14-.78.1-.585.394-.82.958-.938.568-.083 4.365.156 4.397-1.803-.01-1.797-3.645-1.957-4.354-2-.733-.17-.776-.229-1-.608-.032-.427.289-1.08-.203-1.08zm8.614-5.448q1.51.22 1.58 1.382v8.382q-.707-.843-2.537-1.184l.957-8.58zm-.425-.843l-1.132 10.022q2.521.289 3.136 1.8v1.678h.752V4.475q0-1.883-2.756-2.225zm13.835.59l.18.075-5.403 12.034c-.092-.06-.606-.312-.774-.507 0-.13.093-.219.36-.576.282-.375.581-.766.24-1.269-.157-.232-.373-.401-.654-.401-.174 0-.373.065-.6.221-.47-.28-.925-.42-1.665-.42-.13-1.141-.276-1.861-.436-2.762h5.36l3.392-6.395zm-.011-.59c-.03 0-.062.001-.094.004L33.352 8.38c-.12.2-.245.3-.375.3a.349.349 0 0 1-.045.003c-.505 0-1.936-.922-4.293-2.765-.54-.56-.821-1.12-.841-1.681-.02-.56.147-.88.503-.961a1.34 1.34 0 0 1 .29-.036c.2 0 .343.064.43.194.125.185.118.37-.022.555-.07.093-.134.139-.192.139-.057 0-.108-.046-.153-.139-.09-.185-.186-.278-.286-.278-.19.07-.235.236-.135.496.093.241.264.362.512.362.02 0 .039 0 .059-.002.28-.02.475-.115.585-.285.11-.17.165-.37.165-.6a.88.88 0 0 0-.225-.601c-.15-.17-.368-.278-.653-.323a1.027 1.027 0 0 0-.16-.013c-.232 0-.464.08-.696.238-.285.195-.45.516-.495.961-.045.445.078.936.368 1.471.29.536.813 1.074 1.569 1.614.755.54 1.473 1.056 2.154 1.546.016.064-.02.096-.106.096a.533.533 0 0 1-.074-.006h-3.843c.32 1.832.515 3.128.585 3.888.09-.006.179-.01.269-.01.7 0 1.402.209 2.103.626.15-.2.313-.3.488-.3s.265.095.27.285c-.305.488-.753.961-.908 1.516l1.681 1.081 5.72-13.105c-.182-.263-.42-.395-.717-.395zm3.773.843q1.511.22 1.58 1.382v8.382q-.707-.843-2.536-1.184l.956-8.58zm-.425-.843l-1.131 10.022q2.52.289 3.136 1.8v1.678h.751V4.475q0-1.883-2.756-2.225zm7.61 3.715h-.015c-.155.002-.255.047-.303.132v.175l-.432.227c-.144.075-.216.144-.216.206l.73-.34c.012.029.062.043.15.043.017 0 .036 0 .056-.002a.7.7 0 0 0 .36-.113V6.21h-.061a.543.543 0 0 0-.263-.077.405.405 0 0 0-.087.01.441.441 0 0 0-.23.11c.053-.112.244-.167.575-.167h.056v-.082a1.556 1.556 0 0 0-.32-.04zm1.113-.115a1.145 1.145 0 0 0-.242.49c-.038.174-.046.58-.026 1.219.474-.268.746-.55.818-.85.072-.298.064-.543-.025-.735l-.165-.03-.185-.052-.175-.042zm-.368-.314h.004c.266.002.524.097.744.242.395.231.771.491 1.154.742.26.156.554.262.854.317-.488.026-.988.101-1.423.333-.284.155-.525.404-.625.716-.09.276-.085.572-.09.86.004.539.105 1.095.4 1.552.019.032.049.063.06.094-.046.045-.108.056-.172.056-.043 0-.086-.005-.126-.007-.18-.032-.311-.176-.431-.303a3.969 3.969 0 0 1-.477-.66c-.262-.489-.35-1.05-.392-1.598-.016-.194-.01-.389-.026-.582-.013-.088-.074-.186-.172-.186a.146.146 0 0 0-.006 0c-.13 0-.237.09-.358.126a1.117 1.117 0 0 1-.374.067c-.126.012-.242.08-.37.08l-.031-.002a1.146 1.146 0 0 1-.146-.015c.198-.062.401-.118.584-.218.055-.028.115-.096.078-.16a.096.096 0 0 0-.085-.043.232.232 0 0 0-.106.03c-.136.065-.255.17-.404.207a.968.968 0 0 1-.313.05c-.04-.037-.043-.1-.039-.152.03-.083.132-.095.196-.14.025-.01.05-.035.076-.035a.04.04 0 0 1 .026.01.2.2 0 0 0 .087.022c.037 0 .071-.013.09-.049.047-.081.002-.188-.077-.23a.17.17 0 0 0-.243.073c-.03.052-.095.063-.139.1-.007.008-.013.012-.018.012-.013 0-.02-.023-.026-.038-.01-.032.044-.026.055-.047.166-.11.34-.208.501-.325.179-.212.436-.334.684-.448.026-.026.007-.07.036-.096.088-.123.24-.17.373-.225.207-.074.424-.129.645-.13h.022zm6.77 1.575h.01c.625.002 1.263.11 1.808.43.18.104.35.234.472.403-.159-.132-.356-.203-.551-.266.02.06.011.13.045.184.206.125.382.336.39.585.015.337-.146.65-.34.916-.164.23-.345.472-.377.76-.004.052.003.108-.035.148-.087.105-.227.146-.356.171a.857.857 0 0 1-.143.013.547.547 0 0 1-.376-.13c-.087-.09-.147-.206-.233-.3-.226-.277-.507-.532-.856-.638a1.168 1.168 0 0 0-.47-.044l.164.247a.632.632 0 0 1 .17-.024.411.411 0 0 1 .377.205c-.174.005-.343.05-.515.07-.48.07-.962.147-1.441.216-.036-.038-.083-.07-.136-.07a.14.14 0 0 0-.009 0c-.69-.105-1.382-.212-2.081-.217a.09.09 0 0 1-.02.003c-.026 0-.035-.017-.03-.05-.001-.06-.033-.14-.102-.14l-.008.001c-.084.005-.13.089-.152.161-.052.134-.085.296-.212.381a.34.34 0 0 1-.16.038.461.461 0 0 1-.256-.082c-.093-.08-.134-.2-.185-.308-.154-.394-.176-.825-.162-1.244.018-.314.103-.64.321-.876.173-.194.432-.283.68-.338.468-.106.95-.125 1.43-.137h.037c.315 0 .63.021.944.021h.033l.163.001c.599 0 1.197-.03 1.793-.08a6.478 6.478 0 0 1 .369-.01zM50.695 4.41a.953.953 0 0 0-.387.08 1.01 1.01 0 0 1-.41.09 1.01 1.01 0 0 1-.408-.09.702.702 0 0 0-.285-.058c-.217 0-.468.086-.752.258-.289-.172-.542-.258-.76-.258a.705.705 0 0 0-.287.058 1.01 1.01 0 0 1-.41.09 1.01 1.01 0 0 1-.408-.09.953.953 0 0 0-.388-.08c-.172 0-.357.042-.554.125-.243.102-.436.153-.58.153a.383.383 0 0 1-.168-.034 1.649 1.649 0 0 0-.305-.124.158.158 0 0 0-.045-.008c-.052 0-.07.042-.054.127.106.313.316.476.628.49l.146.002c.247 0 .452-.029.617-.087a.847.847 0 0 1 .286-.047c.127 0 .266.024.417.071.173.055.342.083.509.083.095 0 .19-.01.284-.028a.945.945 0 0 1 .18-.018c.165 0 .308.05.428.15a2.25 2.25 0 0 0-.501.21c-.111.066-.219.17-.23.304a1.428 1.428 0 0 0-.327.176c-.197.135-.368.306-.54.47-.083.06-.179.102-.258.167-.066.043-.123.111-.118.195-.008.108.043.208.058.31.007.231.138.525.393.555l1.057-.12h.005c.025 0 .064-.017.089-.017.01 0 .019.004.021.014.006.724.121 1.465.463 2.11.12.23.275.443.447.637.046.2-.06.389-.155.557-.09.159-.242.275-.312.445-.09.18-.11.39-.227.558-.103.164-.25.293-.396.418-.122.113-.243.235-.309.39-.34.255-.676.537-.883.913-.008.029.019.035.043.035l.026-.002h1.026a1.06 1.06 0 0 0 .262-.32c.045.018.097.03.147.03a.245.245 0 0 0 .2-.089.257.257 0 0 0 .07-.204c.01-.34.119-.69.35-.943.11-.1.249-.167.372-.25.062-.055.105-.129.164-.189a5.13 5.13 0 0 1 .92-.846c.02-.01.046-.035.07-.035.008 0 .017.004.025.013.17.118.3.284.423.448.06.193.139.39.287.534a.719.719 0 0 0 .236.156c.11.252.143.527.157.8-.24.28-.461.578-.651.895h1.169a.726.726 0 0 0 .191-.481h.024c.114 0 .23-.065.262-.178.049-.15-.026-.309-.108-.433-.174-.257-.332-.541-.351-.857-.005-.12.005-.243-.028-.36a.817.817 0 0 0-.255-.43c-.193-.208-.273-.491-.33-.763.259.01.519.024.776.058.345.044.69.102 1.03.18.02.007.055.009.047.04.017.1.087.198.187.224.061.18.117.373.255.509.025.02.054.035.083.049.017-.215.039-.43.099-.637l1.022-.097c-.062.42-.145.85-.364 1.218-.202.33-.472.612-.758.871-.072.101-.135.222-.247.283a.276.276 0 0 0-.146.05c-.17.11-.282.289-.393.454-.063.098-.12.198-.177.3h1.282c.017-.104.03-.21.028-.316a.31.31 0 0 0 .098.016.248.248 0 0 0 .219-.112.632.632 0 0 0 .09-.273c.256-.254.409-.59.627-.874a1.14 1.14 0 0 1 .458-.365.69.69 0 0 0 .33-.472l.016.001c.062 0 .108-.055.15-.092a.443.443 0 0 0 .09.009c.092 0 .187-.031.235-.115a.335.335 0 0 0 .03-.074c.328.21.587.54.68.921.053.172.025.354.032.532v.308a7.003 7.003 0 0 0-.662.906h1.17a.769.769 0 0 0 .19-.49.286.286 0 0 0 .035.002c.103 0 .21-.054.244-.154.06-.15-.007-.314-.086-.443-.042-.067-.023-.151-.035-.226-.02-.343-.021-.688-.022-1.032.005-.12.016-.258-.062-.36-.04-.045-.114-.02-.15-.072-.074-.093-.105-.212-.14-.325-.06-.209-.057-.452.074-.634a2.01 2.01 0 0 0 .241-.372c.082-.164.144-.337.2-.512.01.34-.018.682-.107 1.01-.08.437-.047.885.008 1.323.032.208.071.428.202.598.045.054.118.1.19.1a.154.154 0 0 0 .082-.022c.13-.065.198-.213.195-.354.003-.202-.064-.395-.096-.592-.073-.35-.15-.699-.227-1.047.102-.582.17-1.184.056-1.769-.07-.353-.24-.707-.546-.912a3.783 3.783 0 0 0-.594-.31 3.356 3.356 0 0 0-1.498-.256 25.305 25.305 0 0 1-3.205-.119 3.62 3.62 0 0 1-1.002-.22c-.578-.219-1.084-.583-1.598-.92a1.865 1.865 0 0 0-.652-.259.828.828 0 0 1 .397-.097c.06 0 .123.006.187.017.08.015.163.022.248.022.168 0 .343-.029.525-.087.15-.047.29-.071.417-.071a.83.83 0 0 1 .286.047c.165.058.37.087.617.087.047 0 .096 0 .146-.003.312-.013.525-.176.638-.489.01-.085-.013-.127-.07-.127a.183.183 0 0 0-.05.008 2.007 2.007 0 0 0-.299.124.395.395 0 0 1-.17.034c-.145 0-.338-.051-.578-.153a1.414 1.414 0 0 0-.55-.125zm13.513-1.725v.422H61.98v-.422zm-1.12.831q1.397 0 1.931.712t.534 1.28q-.013.883-.738 1.542-.726.66-1.728.66-1.015 0-1.74-.66-.726-.659-.726-1.53 0-.58.435-1.292.435-.712 2.031-.712zM61.345 2.25v.99q-.474.276-.87.896t-.409 1.371q0 .884.732 1.787.732.904 2.288.97 1.543-.066 2.282-.97.738-.903.738-1.773-.013-.765-.409-1.392-.395-.626-.883-.903V2.25zm1.742 10.629c.806 0 1.814.414 2.302.902.427.426.482.992.498 1.518h-5.576c.016-.526.071-1.092.498-1.518.488-.488 1.473-.902 2.278-.902zm0-.451c-.955 0-1.984.441-2.586 1.044-.618.618-.688 1.432-.688 2.04v.238h6.549v-.237c0-.61-.047-1.423-.665-2.04-.602-.604-1.654-1.045-2.61-1.045zm10.619-9.796c.75 0 1.417.346 1.851.888h-3.703a2.368 2.368 0 0 1 1.852-.888zm2.102 1.27c.143.272.235.575.262.897h-4.728a2.36 2.36 0 0 1 .262-.897zm.265 1.28a2.36 2.36 0 0 1-.25.896h-4.235a2.361 2.361 0 0 1-.249-.897zM75.58 6.46a2.368 2.368 0 0 1-1.875.918c-.763 0-1.442-.36-1.875-.918zm-1.874-4.21a2.76 2.76 0 0 0-2.756 2.756 2.759 2.759 0 0 0 2.756 2.755 2.76 2.76 0 0 0 2.755-2.755 2.76 2.76 0 0 0-2.755-2.756zm-3.726 9.056l-.753 3.395-.715-.332 1.468-3.063zm9.13-2.286c-.015 0-.03 0-.044.002-.106.01-.23.052-.37.115-.775.98-1.35 2.194-1.723 3.637-.429.072-1.442.515-3.024 1.327a.705.705 0 0 1-.248.039 2.25 2.25 0 0 1-.658-.128 1.002 1.002 0 0 0-.308-.042 2.54 2.54 0 0 0-.267.016l-.331.102-2.144-3.496-2.131 4.275.293.102.14-.294.128.051-.14.358.204.076.14-.332.153.077-.127.344.23.09.114-.345.179.09-.077.344.243.115.855-3.93 1.595 2.577-.37.102-.383.115c.01.106.03.183.077.243.047.059.131.094.242.102.111.008.163.034.179.09.07.239.156.45.255.612.079.127.17.19.274.19a.295.295 0 0 0 .083-.012c.15-.046.301-.086.447-.14l.15.225c.016.023.043.033.074.033.11 0 .272-.119.22-.2l-.138-.211c.302-.13.59-.292.88-.447.988-.144 1.857-.366 2.591-.663.734-.297 1.24-.615 1.519-.957.079-.045.422-.632 1.02-1.749.6-1.116.776-1.881.537-2.31a.36.36 0 0 0-.115-.127.407.407 0 0 0-.224-.066z"/><path d="M8.22.375c-9.625 0-9.625 17.25 0 17.25m0-17.25h71.33M8.22 17.625h71.33M87.238.375v17.25M79.55.375c9.625 0 9.625 17.25 0 17.25" fill="none" stroke="#000"/></svg>