<svg xmlns="http://www.w3.org/2000/svg" width="160.095" height="18"><path d="M14.393 2.986L13.215 6.99h-3.202L8.834 2.986zm-6.173-.46L9.669 7.45h3.89l1.449-4.925zm9.944-.276c-.072 0-.145.007-.217.013-1.044.112-1.786 1.17-1.622 2.194.072.761.545 1.188 1.064 1.609 1.543.945 1.11.597 2.666 1.385l.25-.466c-1.852-.867-2.075-1.005-2.653-1.386-.473-.38-.847-.801-.815-1.438-.013-.44.25-.893.545-1.11.237-.177.539-.282.835-.282.223 0 .433.052.617.184.466.23.722.991.38 1.47a.905.905 0 0 1-.722.388.668.668 0 0 1-.394-.125c-.236-.13-.413-.59-.17-.847-.112-.118-.27-.262-.388-.262-.079 0-.138.059-.177.197-.263.63.157 1.346.788 1.517.111.032.223.052.335.052.722 0 1.392-.604 1.392-1.353.066-.873-.63-1.674-1.504-1.727a2.122 2.122 0 0 0-.21-.013zm-3.902 6.888c.697 0 1.57.358 1.991.78.37.37.418.859.431 1.314h-4.823c.014-.455.062-.945.431-1.314.422-.422 1.274-.78 1.97-.78zm0-.39c-.826 0-1.715.382-2.237.903-.534.535-.595 1.239-.595 1.765v.206h5.665v-.206c0-.526-.04-1.23-.575-1.765-.521-.52-1.431-.903-2.258-.903zm5.378 4.838c.203.286.252.64.27.982-.008.161.004.336-.063.487-.189-.188-.172-.622-.176-.866 0-.24-.009-.436-.03-.603zm-10.782-.27l9.84.01c-1.437 1.362-2.879 2.028-5.051 2.028-2.182 0-3.502-.65-4.79-2.039zm-.442-.397a.198.198 0 0 0-.15.327c1.43 1.668 2.947 2.504 5.38 2.504 2.37 0 3.988-.803 5.549-2.354.053.148.08.382.08.793.01.457.006 1.214.606 1.267.421-.087.421-.537.424-.888a2.22 2.22 0 0 0-.282-1.12c-.176-.297-.437-.518-.752-.518l-10.855-.01zm19.951-9.955q2.312 0 4.903 1.117-2.59 1.086-4.903 1.086-2.296 0-4.902-1.086 2.606-1.117 4.902-1.117zm0-.714q-2.854 0-6.562 1.815 3.708 1.8 6.562 1.8 2.855 0 6.563-1.8-3.692-1.815-6.563-1.815zm0 5.55c.8 0 1.8.41 2.283.894.424.423.479.985.495 1.506h-5.531c.015-.521.07-1.083.494-1.506.484-.484 1.46-.894 2.26-.894zm0-.447c-.947 0-1.967.437-2.565 1.035-.613.613-.682 1.42-.682 2.024v.235h6.495v-.235c0-.604-.046-1.41-.659-2.024-.597-.598-1.64-1.035-2.589-1.035zm0 5.496q2.312 0 4.903 1.117-2.59 1.086-4.903 1.086-2.296 0-4.902-1.086 2.606-1.117 4.902-1.117zm0-.714q-2.854 0-6.562 1.815 3.708 1.8 6.562 1.8 2.855 0 6.563-1.8-3.692-1.815-6.563-1.815zm19.745-9.203c.207.293.257.656.274 1.005-.007.165.005.343-.063.498-.194-.192-.177-.637-.18-.886 0-.245-.01-.446-.031-.617zm-11.03-.277l10.066.011c-1.47 1.394-2.945 2.075-5.167 2.075-2.232 0-3.582-.664-4.899-2.086zm-.451-.405a.202.202 0 0 0-.154.334c1.462 1.707 3.014 2.562 5.504 2.562 2.423 0 4.078-.822 5.674-2.408.055.152.083.39.083.811.01.467.006 1.242.62 1.296.43-.088.43-.55.433-.908 0-.441-.108-.841-.288-1.145-.18-.304-.447-.53-.77-.53L36.631 2.25zm5.058 4.134c-.092 0-.185.011-.278.034a1.743 1.743 0 0 0-.605.31H36.43v.968h4.376c.218.162.42.265.605.31a1.161 1.161 0 0 0 .553 0c.182-.045.364-.148.547-.31h.168c.175.162.356.265.542.31a1.166 1.166 0 0 0 .557 0c.186-.045.384-.148.595-.31h4.418v-.968h-4.418a1.649 1.649 0 0 0-.595-.31 1.166 1.166 0 0 0-.557 0 1.246 1.246 0 0 0-.542.31h-.168a1.323 1.323 0 0 0-.547-.31 1.13 1.13 0 0 0-.275-.034zm-2.645 6.086c-.422.034-.655.245-.7.633.056.422.289.644.7.666.41-.022.627-.244.649-.666-.033-.388-.25-.6-.65-.632zm.05-1.398c.3 0 .577.056.832.167a2.195 2.195 0 0 1 1.132 1.124c.11.25.166.513.166.79 0 .289-.055.558-.166.807a2.093 2.093 0 0 1-1.132 1.1 2.159 2.159 0 0 1-.832.157c-.3 0-.58-.052-.841-.158a2.003 2.003 0 0 1-.674-.441 2.164 2.164 0 0 1-.45-.658 1.965 1.965 0 0 1-.166-.807c0-.277.055-.54.166-.79a2.28 2.28 0 0 1 .45-.667 2.12 2.12 0 0 1 1.514-.624zm-.034-.566a2.593 2.593 0 0 0-1.864.774 2.774 2.774 0 0 0-.558.833 2.52 2.52 0 0 0-.208 1.023c0 .367.07.708.208 1.024.139.317.325.591.558.824a2.642 2.642 0 0 0 1.864.766c.367 0 .708-.07 1.024-.208.316-.139.594-.325.832-.558a2.57 2.57 0 0 0 .566-.824 2.52 2.52 0 0 0 .209-1.024c0-.366-.07-.707-.209-1.023a2.698 2.698 0 0 0-1.398-1.399 2.52 2.52 0 0 0-1.024-.208zm5.372-.456q.332 0 .876.18.932.311 1.93 1.299.999.987.8 1.83-.2.843-.777 1.265-.477.348-1.15.348-.142 0-.293-.015-.865-.089-1.486-1.365-.622-1.276-.577-2.274.044-.999.31-1.176.13-.093.367-.093zm-.091-.771q-.457 0-.742.197-.599.422-.665 1.73-.067 1.31.754 2.841.821 1.531 1.997 1.675.225.028.438.028.9 0 1.581-.494.844-.61 1.054-1.73.211-1.121-.898-2.375-1.11-1.253-2.397-1.664-.652-.208-1.122-.208zM62.212 2.85q-.291.292-.291 1.07 0 .795.291 1.087h-9.634q.292-.292.292-1.086 0-.779-.292-1.07zm-11.5-.6q-.421 0-.405.276-.016.324.406.324h1.054q.39.292.39 1.07 0 .795-.39 1.087h-1.038q-.438 0-.438.276 0 .324.422.324h13.365q.405 0 .405-.324 0-.276-.421-.276h-1.039q-.389-.292-.389-1.086 0-.779.39-1.07h1.054q.405 0 .405-.325 0-.276-.405-.276zm6.675 5.584q2.5 0 5.301 1.208-2.801 1.174-5.3 1.174-2.484 0-5.302-1.174 2.818-1.208 5.301-1.208zm0-.772q-3.087 0-7.096 1.963 4.01 1.946 7.096 1.946 3.087 0 7.096-1.946-3.992-1.963-7.096-1.963zm6.316 6.146c.238.337.295.753.316 1.154-.01.19.005.394-.073.572-.222-.22-.203-.731-.208-1.017 0-.282-.01-.513-.035-.709zm-12.663-.317l11.557.012c-1.689 1.6-3.382 2.382-5.933 2.382-2.562 0-4.113-.762-5.624-2.394zm-.519-.466a.232.232 0 0 0-.176.384c1.679 1.96 3.46 2.941 6.319 2.941 2.782 0 4.682-.943 6.515-2.765.063.175.095.45.095.932.011.536.007 1.426.711 1.488.495-.102.495-.631.498-1.043 0-.507-.124-.966-.33-1.315-.207-.349-.513-.609-.884-.609l-12.748-.013z"/><path d="M8.22.375c-9.625 0-9.625 17.25 0 17.25m0-17.25h56.263M8.22 17.625h56.263M72.17.375v17.25M64.483.375c9.625 0 9.625 17.25 0 17.25" fill="none" stroke="#000"/><path d="M77.372 11.566v-.984h-.968v-.406h.968v-.969h.422v.969h.969v.406h-.969v.984h-.422zm17.842-7.802l-1.008 3.428h-2.74l-1.009-3.428zm-5.283-.394l1.24 4.215h3.33L95.74 3.37zm8.51-.236c-.062 0-.124.006-.185.012-.894.095-1.529 1-1.389 1.877.062.652.467 1.017.91 1.377 1.322.809.95.51 2.282 1.185l.214-.399c-1.585-.742-1.776-.86-2.27-1.185-.405-.326-.725-.686-.697-1.231a1.22 1.22 0 0 1 .466-.95c.203-.152.461-.242.714-.242.191 0 .37.045.528.158.4.196.618.848.326 1.259a.775.775 0 0 1-.618.331.572.572 0 0 1-.337-.107c-.203-.112-.354-.505-.146-.725-.096-.1-.23-.224-.332-.224-.067 0-.118.05-.152.168-.224.54.135 1.152.675 1.298.095.029.19.045.286.045.619 0 1.192-.517 1.192-1.157.056-.748-.54-1.433-1.287-1.478a1.816 1.816 0 0 0-.18-.012zm3.616.016c.141.3.236.479.754.642 1.505.115 2.111.312 2.464.43.253.065.73.372.744.745-.02.378-.41.668-.763.74-.319.087-1.804.135-2.434.295-.486.15-.493.452-.798.677-.711-.485.066-1.168.318-1.31.275-.144.487-.189.745-.189.139 0 .29.013.473.03.879-.006.855-.458-.038-.499h-.007c-.182 0-.33.008-.456.008-.274 0-.454-.036-.686-.266-.235-.156-.678-.667-.316-1.303zm.261-.9a.813.813 0 0 0-.222.04c-.27.262-.531.7-.67 1.119-.034.204.003.554.168.86.214.188.415.449.648.66-.232.21-.364.268-.576.475-.236.326-.315.523-.273.952-.005.319.325.786.603 1.04.166.134.286.19.368.19.183 0 .185-.274.104-.579.074-.432.292-.606.709-.693.42-.062 3.23.115 3.254-1.334-.007-1.33-2.698-1.45-3.222-1.481-.543-.126-.575-.17-.74-.45-.024-.316.213-.799-.151-.799zm-4.137 9.853q2.907 0 6.164 1.404-3.257 1.365-6.164 1.365-2.886 0-6.163-1.365 3.277-1.404 6.163-1.404zm0-.897q-3.588 0-8.25 2.282 4.662 2.262 8.25 2.262 3.59 0 8.25-2.262-4.641-2.282-8.25-2.282zm11.307-8.113q1.511.22 1.58 1.382v8.382q-.707-.843-2.537-1.184l.957-8.58zm-.425-.843l-1.132 10.022q2.521.289 3.136 1.8v1.678h.752V4.475q0-1.883-2.756-2.225zm5.813.843q1.51.22 1.579 1.382v8.382q-.706-.843-2.536-1.184l.957-8.58zm-.426-.843l-1.131 10.022q2.52.289 3.136 1.8v1.678h.752V4.475q0-1.883-2.757-2.225zm11.132.82l-1.312 4.46h-3.567l-1.312-4.462zm-6.875-.513l1.613 5.486h4.333l1.613-5.486zm12.993.113v.406h-2.147v-.407zm-1.08.8q1.347 0 1.862.686.514.686.514 1.232-.012.851-.711 1.486t-1.664.635q-.979 0-1.677-.635-.7-.635-.7-1.473 0-.56.42-1.245.42-.686 1.957-.686zm-1.676-1.22v.953q-.458.267-.839.864-.38.597-.394 1.32 0 .852.705 1.722.706.87 2.205.934 1.486-.064 2.197-.934.712-.87.712-1.708-.013-.737-.394-1.34-.381-.604-.851-.87V2.25zm3.674 7.947c.135 0 .203.49.203.625s-.068.624-.203.624h-12.966c-.158 0-.236-.49-.236-.624 0-.135.078-.625.236-.625zm-13.371-.709c-.36 0-.54.726-.54 1.334 0 .607.18 1.333.54 1.333h13.776c.338 0 .507-.726.507-1.333 0-.608-.17-1.334-.507-1.334zm1.278 4.112l-1.818 2.15h.886l.932-1.11.94 1.11.914-1.11.94 1.11.932-1.11.94 1.11.932-1.11.94 1.11.914-1.11.94 1.11.94-1.11.914 1.11.94-1.11.932 1.11h.887l-1.818-2.15-.94 1.04-.914-1.04-.94 1.04-.941-1.04-.914 1.04-.94-1.04-.932 1.04-.94-1.04-.932 1.04-.94-1.04-.914 1.04-.94-1.04zm16.061-10.507q1.511.22 1.58 1.382v8.382q-.707-.843-2.536-1.184l.956-8.58zm-.425-.843l-1.131 10.022q2.52.289 3.136 1.8v1.678h.751V4.475q0-1.883-2.756-2.225zm8.397 4.178v.422h-2.228v-.422zm-1.12.831q1.397 0 1.931.712.535.712.535 1.28-.014.883-.739 1.543-.725.659-1.728.659-1.015 0-1.74-.66-.726-.659-.726-1.53 0-.58.435-1.292.436-.712 2.031-.712zm-1.741-1.266v.99q-.475.276-.87.896-.397.62-.41 1.372 0 .883.732 1.787.732.903 2.288.969 1.543-.066 2.282-.97.738-.903.738-1.773-.013-.765-.408-1.392-.396-.626-.884-.903v-.976zm7.817-2.9q1.51.22 1.58 1.382v8.382q-.707-.843-2.537-1.184l.957-8.58zm-.425-.843l-1.132 10.022q2.521.289 3.136 1.8v1.678h.752V4.475q0-1.883-2.756-2.225z"/><path d="M89.931.375c-9.625 0-9.625 17.25 0 17.25m0-17.25h61.914m-61.914 17.25h61.914m7.687-17.25v17.25M151.845.375c9.625 0 9.625 17.25 0 17.25" fill="none" stroke="#000"/></svg>