<svg xmlns="http://www.w3.org/2000/svg" width="231.392" height="18"><path d="M11.798 2.25q-1.462.034-2.42 1.058-1.057 1.16-1.158 2.318 0 .269.302.269h14.042q.302 0 .302-.32 0-.319-.302-.319H8.976q.84-2.15 2.52-2.385h11.068q.302 0 .302-.319 0-.302-.302-.302zm3.745 10.263q2.58 0 5.47 1.246-2.89 1.212-5.47 1.212-2.562 0-5.47-1.212 2.908-1.246 5.47-1.246zm0-.797q-3.185 0-7.323 2.026 4.138 2.008 7.323 2.008 3.185 0 7.323-2.008-4.12-2.026-7.323-2.026z"/><path d="M9.396 2.25L8.22 3.426v.708l1.707-1.707.177-.177zm3 0L8.22 6.426v.708l4.707-4.707.177-.177zm3 0L8.22 9.426v.708l7.707-7.707.177-.177zm3 0L8.22 12.426v.708L18.927 2.427l.177-.177zm3 0L8.22 15.426v.324h.384L21.927 2.427l.177-.177zm1.47 1.53L11.073 15.573l-.177.177h.708L22.866 4.488V3.78zm0 3l-8.793 8.793-.177.177h.708l8.262-8.262V6.78zm0 3l-5.793 5.793-.177.177h.708l5.262-5.262V9.78zm0 3l-2.793 2.793-.177.177h.708l2.262-2.262v-.708zm1.5-10.5l-1.5 1.5v.708l1.5-1.5V2.28zm0 3l-1.5 1.5v.708l1.5-1.5V5.28zm0 3l-1.5 1.5v.708l1.5-1.5V8.28zm0 3l-1.5 1.5v.708l1.5-1.5v-.708zm0 3l-1.293 1.293-.177.177h.708l.762-.762v-.708zm5.031-11.502q.17 0 .354.077.41.174.41 2.759v2.473h-4.642q1.793-2.46 2.46-3.717.667-1.258 1.014-1.473.193-.12.404-.12zM29.2 2.25h-.075q-.66.015-1.487 1.613-.826 1.598-3.272 4.766h6.337l-.014-3.557q-.07-2.377-.487-2.606-.393-.216-1.002-.216zm6.631.365c-.083 0-.167.008-.25.015-1.208.13-2.066 1.352-1.876 2.537.084.88.63 1.374 1.23 1.86 1.785 1.093 1.283.69 3.083 1.602l.289-.54c-2.142-1.001-2.4-1.16-3.068-1.601-.547-.44-.98-.927-.942-1.663-.015-.509.289-1.033.63-1.283a1.64 1.64 0 0 1 .965-.327c.258 0 .501.06.714.213.539.265.835 1.146.44 1.7a1.047 1.047 0 0 1-.835.449.773.773 0 0 1-.456-.145c-.273-.152-.478-.683-.197-.98-.13-.136-.312-.303-.448-.303-.091 0-.16.068-.205.228-.304.729.182 1.556.911 1.754.129.038.258.06.387.06.835 0 1.61-.698 1.61-1.564.076-1.01-.729-1.936-1.739-1.997a2.454 2.454 0 0 0-.243-.015zm-5.534 11.266a1.31 1.31 0 0 0-.313.039c-.21.051-.437.168-.682.35h-4.936v1.091h4.936c.245.182.472.299.682.35a1.31 1.31 0 0 0 .623 0c.205-.051.41-.168.617-.35h.19c.197.182.4.299.61.35a1.316 1.316 0 0 0 .63 0c.209-.051.432-.168.67-.35h4.983V14.27h-4.983c-.238-.182-.461-.299-.67-.35a1.316 1.316 0 0 0-.63 0 1.39 1.39 0 0 0-.61.35h-.19a1.492 1.492 0 0 0-.617-.35 1.274 1.274 0 0 0-.31-.039z"/><path d="M24.396 2.25l-.03.03v.708l.56-.561.178-.177zm3 0l-3.03 3.03v.708l3.56-3.561.178-.177zm3 0l-6.03 6.03v.708l6.56-6.561.178-.177zm3 0l-9.03 9.03v.708l9.56-9.561.178-.177zm3 0l-12.03 12.03v.708l12.56-12.561.178-.177zm1.91 1.09L26.074 15.573l-.177.177h.708L38.307 4.047V3.34zm0 3l-9.233 9.233-.177.177h.708l8.703-8.703V6.34zm0 3l-6.233 6.233-.177.177h.708l5.703-5.703V9.34zm0 3l-3.233 3.233-.177.177h.708l2.703-2.703v-.707zm0 3l-.233.233-.177.177h.41v-.41z"/><path d="M8.22.375c-9.625 0-9.625 17.25 0 17.25m0-17.25h30.087M8.22 17.625h30.087M45.994.375v17.25M38.307.375c9.625 0 9.625 17.25 0 17.25" fill="none" stroke="#000"/><path d="M2.646 0L.72 1.926v.708L3.177.177 3.354 0zm3 0L.72 4.926v.708L6.177.177 6.354 0zm3 0L.72 7.926v.708L9.177.177 9.354 0zm3 0L.72 10.926v.708L12.177.177 12.354 0zm3 0L.72 13.926v.708L15.177.177 15.354 0zm3 0L.72 16.926v.708L18.177.177 18.354 0zm3 0L2.823 17.823 2.646 18h.708L21.177.177 21.354 0zm3 0L5.823 17.823 5.646 18h.708L24.177.177 24.354 0zm3 0L8.823 17.823 8.646 18h.708L27.177.177 27.354 0zm3 0L11.823 17.823l-.177.177h.708L30.177.177 30.354 0zm3 0L14.823 17.823l-.177.177h.708L33.177.177 33.354 0zm3 0L17.823 17.823l-.177.177h.708L36.177.177 36.354 0zm3 0L20.823 17.823l-.177.177h.708L39.177.177 39.354 0zm3 0L23.823 17.823l-.177.177h.708L42.177.177 42.354 0zm3 0L26.823 17.823l-.177.177h.708L45.177.177 45.354 0zm1.91 1.09L29.824 17.823l-.177.177h.708L46.557 1.797V1.09zm0 3L32.824 17.823l-.177.177h.708L46.557 4.797V4.09zm0 3L35.824 17.823l-.177.177h.708L46.557 7.797V7.09zm0 3l-7.733 7.733-.177.177h.708l7.203-7.203v-.707zm0 3l-4.733 4.733-.177.177h.708l4.203-4.203v-.707zm0 3l-1.733 1.733-.177.177h.708l1.203-1.203v-.707z"/><path d="M47.646 0l-1.09 1.09v.707l1.62-1.62.178-.177zm1.577 1.423L46.557 4.09v.707l2.666-2.667v-.707zm0 3L46.557 7.09v.707l2.666-2.667v-.707zm0 3l-2.666 2.667v.707l2.666-2.667v-.707zm0 3l-2.666 2.667v.707l2.666-2.667v-.707zm0 3l-2.666 2.667v.707l2.666-2.667v-.707zm0 3l-1.4 1.4-.177.177h.708l.87-.87v-.707zM63.194 3.1l-1.362 4.632h-3.703L56.767 3.1zm-7.137-.531l1.675 5.695h4.497l1.675-5.695zm11.497-.319c-.083 0-.167.008-.25.015-1.208.13-2.066 1.352-1.876 2.536.083.881.63 1.375 1.23 1.86 1.784 1.094 1.283.692 3.083 1.603l.288-.54c-2.14-1.002-2.399-1.161-3.067-1.602-.547-.44-.98-.926-.942-1.662-.015-.51.289-1.033.63-1.284a1.64 1.64 0 0 1 .965-.326c.258 0 .5.06.714.212.539.266.835 1.147.44 1.701a1.047 1.047 0 0 1-.835.448.773.773 0 0 1-.456-.144c-.273-.152-.478-.683-.197-.98-.13-.136-.312-.303-.448-.303-.091 0-.16.068-.205.228-.304.729.182 1.556.91 1.754.13.038.259.06.388.06.835 0 1.61-.698 1.61-1.564.076-1.01-.73-1.936-1.739-1.997a2.454 2.454 0 0 0-.243-.015zm-4.511 10.411q2.46 0 5.22 1.19-2.76 1.156-5.22 1.156-2.444 0-5.22-1.156 2.776-1.19 5.22-1.19zm0-.76q-3.04 0-6.986 1.933 3.947 1.916 6.986 1.916 3.039 0 6.986-1.916-3.93-1.932-6.986-1.932zm9.402-6.086c-.198 0-.317.083-.357.25 0 .094.08.142.238.142.23 0 .345-.067.345-.202 0-.119-.075-.182-.226-.19zm.179-.072c.349 0 .632.167.85.5.218.333.29.795.214 1.385-.075.591-.154.924-.238 1-.009.008-.017.013-.024.013-.054 0-.03-.26.072-.78.115-.587.05-1.031-.196-1.333h-.666c-.524 0-.786-.127-.786-.38 0-.27.258-.405.774-.405zm-.202-.321c-.58.063-.877.305-.893.726 0 .23.094.406.28.529.175.115.6.173 1.276.173h.133c.159.261.159.664 0 1.207-.158.543-.237 1.195-.237 1.956 0 .698.214 1.3.642 1.803.428.503.837.755 1.225.755.857 0 1.285-.54 1.285-1.618l-.214-2.438c0-.413.138-.619.416-.619.277 0 .416.206.416.619L76.55 11c0 1.039.293 1.558.88 1.558.595 0 .892-.52.892-1.558l-.202-2.486c0-.413.139-.619.416-.619.278 0 .417.206.417.619L78.75 11c0 1.039.293 1.558.88 1.558.595 0 .892-.52.892-1.558l-.214-2.486c0-.413.143-.619.428-.619.278 0 .416.206.416.619L80.938 11c0 .968.259 1.485.776 1.55.067.018.14.027.217.027.143-.008.424-.179.844-.512-.07-.194-.178-.29-.326-.29a.385.385 0 0 0-.066.005c-.183.032-.326.148-.452.333a.087.087 0 0 1-.076.042c-.076 0-.175-.084-.247-.164-.139-.153-.206-.485-.206-.991l.214-2.486c0-.722-.293-1.083-.88-1.083-.595 0-.892.361-.892 1.083L80.058 11c0 .73-.143 1.094-.428 1.094-.278 0-.417-.365-.417-1.094l.203-2.486c0-.722-.294-1.083-.88-1.083-.587 0-.88.361-.88 1.083L77.857 11c0 .721-.14 1.082-.42 1.082a.33.33 0 0 1-.009 0c-.277 0-.416-.36-.416-1.082l.202-2.486c0-.722-.293-1.083-.88-1.083-.658 0-.987.361-.987 1.083l.202 2.438c0 .5-.234.75-.702.75-.222 0-.456-.145-.702-.435-.246-.289-.369-.707-.369-1.255 0-.983.046-1.798.137-2.444.092-.646.034-1.166-.172-1.558-.206-.393-.646-.589-1.32-.589zm13.41-2.329q1.51.22 1.58 1.382v8.382q-.707-.843-2.537-1.184l.957-8.58zm-.425-.843l-1.132 10.022q2.521.289 3.136 1.8v1.678h.752V4.475q0-1.883-2.756-2.225zm5.813.843q1.51.22 1.579 1.382v8.382q-.706-.843-2.536-1.184l.956-8.58zm-.426-.843l-1.131 10.022q2.52.289 3.136 1.8v1.678h.751V4.475q0-1.883-2.756-2.225z"/><path d="M56.057.375c-9.625 0-9.625 17.25 0 17.25m0-17.25H93.55m-37.493 17.25H93.55m7.688-17.25v17.25M93.55.375c9.625 0 9.625 17.25 0 17.25" fill="none" stroke="#000"/><path d="M126.637 2.676q.332 0 .332.347v2.668h-1.01l.331-2.81q.016-.205.347-.205zm.016-.426q-.805 0-.852.458-.332 2.983-.71 2.999l-7.324.268-.758-.032q-.852-.9-1.515-.9l-.49-.03q-1.341.252-1.61.252-.189 0-.189.252 0 .347.537.347.921-.146 1.414-.146.089 0 .164.004.269 0 .442.221-.308.381-1.377.381l-.17-.002q-1.215-.031-2.146-.315-.458 0-.458.536.047.49 3.425.505l1.5-.158 8.554-.047 2.4.032V3.023q-.016-.773-.837-.773zm-3.271 8.97q1.204.249 1.204 1.32 0 1.07-1.204 1.241H115.7q-1.185-.172-1.185-1.242t1.185-1.319zm-11.696-1.892q-.21 0-.364.402-.095.802.22 1.567.316.764 1.137 1.242-.821.459-1.137 1.233-.315.774-.22 1.577.153.401.364.401.172 0 .324-.23 0-2.178 1.873-2.599.27 1.497 1.867 1.497.097 0 .198-.006h7.186q.102.006.2.006 1.613 0 1.883-1.497 1.873.42 1.873 2.6.153.229.325.229.191 0 .363-.401.096-.803-.22-1.577-.315-.774-1.156-1.233.841-.478 1.156-1.242.316-.765.201-1.567-.153-.402-.344-.402-.172 0-.325.23 0 2.178-1.873 2.599-.283-1.568-2.04-1.568h-7.271q-1.74 0-2.023 1.568-1.873-.42-1.873-2.6-.152-.229-.324-.229zm29.521-2.068q.577 0 .577.474 0 .423-.59.423l-10.45-.013q-.564 0-.564-.436 0-.448.577-.448zm-10.653-.54q-.913 0-.913.988t.936.988h10.899q.86 0 .86-.936 0-1.039-.84-1.039h-10.941zm5.46 2.373q-.193 0-.32.122-.129.122-.129.289 0 .166.128.282.128.115.32.115.193 0 .328-.115.134-.116.134-.282 0-.167-.134-.289-.135-.122-.327-.122zm-1.462.013q-.192 0-.32.115-.129.116-.129.283 0 .166.128.288.129.122.321.122t.32-.122q.129-.122.129-.288 0-.167-.128-.283-.129-.115-.321-.115zm2.936 0q-.192 0-.32.115-.128.116-.128.283 0 .166.128.288.128.122.32.122.193 0 .327-.122.135-.122.135-.288 0-.167-.135-.283-.134-.115-.327-.115zm-4.87.373q.173 0 .203.076.026.128-.385.346-2.16.846-2.254.846h-.002q-.019.008-.032.008-.032 0-.032-.046l-.257-.603q-.051-.064.026-.09.051-.025 2.423-.5.19-.037.31-.037zm6.811.007q.122 0 .316.043 2.385.475 2.423.5.077.026.026.09l-.244.603q-.009.045-.044.045-.014 0-.033-.007h-.002q-.081 0-2.254-.846-.398-.218-.385-.346.03-.082.197-.082zm-6.621-.392q-.112 0-.243.025-.975.167-3.168.602-.153.065-.064.27l.41 1.102q.07.183.219.183.018 0 .038-.003 2.039-.795 2.924-1.18.577-.23.423-.666-.131-.333-.54-.333zm6.457.005q-.424 0-.559.34-.153.436.424.667.884.385 2.923 1.167.028.006.054.006.138 0 .202-.173l.41-1.102q.09-.218-.063-.27-2.18-.436-3.167-.615-.12-.02-.224-.02zm6.545-6.006q1.51.22 1.579 1.382v8.382q-.707-.843-2.536-1.184l.956-8.58zm-.426-.843l-1.131 10.022q2.52.289 3.136 1.8v1.678h.751V4.475q0-1.883-2.756-2.225zm8.397 4.178v.422h-2.228v-.422zm-1.12.831q1.397 0 1.931.712.535.712.535 1.28-.014.883-.739 1.543-.725.659-1.728.659-1.015 0-1.74-.66-.726-.659-.726-1.53 0-.58.435-1.292.436-.712 2.031-.712zm-1.741-1.266v.99q-.475.276-.87.896-.397.62-.41 1.372 0 .883.732 1.787.732.903 2.288.969 1.543-.066 2.282-.97.738-.903.738-1.773-.013-.765-.408-1.392-.396-.626-.884-.903v-.976zm7.817-2.9q1.51.22 1.58 1.382v8.382q-.707-.843-2.537-1.184l.957-8.58zm-.425-.843l-1.132 10.022q2.521.289 3.136 1.8v1.678h.752V4.475q0-1.883-2.756-2.225zm5.966 0l-1.71 2.022h.834l.876-1.045.884 1.045.86-1.045.884 1.045.876-1.045.884 1.045.876-1.045.885 1.045.859-1.045.884 1.045.885-1.045.86 1.045.884-1.045.876 1.045h.833l-1.71-2.022-.884.977-.86-.977-.884.977-.884-.977-.86.977-.884-.977-.876.977-.884-.977-.876.977-.885-.977-.859.977-.884-.977zm4.221 11.631a1.31 1.31 0 0 0-.313.039c-.21.051-.437.168-.683.35h-4.935v1.091h4.935c.246.182.473.299.683.35a1.31 1.31 0 0 0 .623 0 1.49 1.49 0 0 0 .616-.35h.19c.198.182.402.299.611.35a1.316 1.316 0 0 0 .63 0c.209-.051.432-.168.67-.35h4.982V14.27h-4.983c-.237-.182-.46-.299-.67-.35a1.316 1.316 0 0 0-.629 0 1.39 1.39 0 0 0-.61.35h-.19a1.492 1.492 0 0 0-.617-.35 1.274 1.274 0 0 0-.31-.039z"/><path d="M111.3.375c-9.625 0-9.625 17.25 0 17.25m0-17.25h65.208M111.3 17.625h65.208m7.688-17.25v17.25M176.508.375c9.625 0 9.625 17.25 0 17.25" fill="none" stroke="#000"/><path d="M198.908 2.25c-.081 0-.163.01-.245.03-.164.04-.343.132-.535.275h-3.87v.855h3.87c.192.143.37.235.535.275a1.027 1.027 0 0 0 .488 0 1.17 1.17 0 0 0 .484-.275h.149c.155.143.315.235.479.275a1.031 1.031 0 0 0 .493 0c.164-.04.34-.132.526-.275h3.906v-.855h-3.906a1.458 1.458 0 0 0-.526-.275 1.031 1.031 0 0 0-.493 0c-.164.04-.324.132-.48.275h-.148a1.17 1.17 0 0 0-.484-.275.998.998 0 0 0-.243-.03zm.849 2.972c.26.01.399.125.419.375-.02.261-.159.4-.42.42-.25-.02-.399-.159-.419-.42.02-.25.169-.365.42-.375zm0-.33c-.472.02-.72.256-.75.727.03.472.278.709.75.729.471-.02.708-.257.728-.729-.02-.471-.257-.708-.728-.728zm-1.148 2.581c.26.01.4.125.42.376-.02.26-.16.421-.42.441-.251-.02-.4-.18-.42-.441.02-.251.169-.366.42-.376zm2.273 0c.261.01.4.147.42.398-.02.26-.159.399-.42.419-.25-.02-.4-.158-.42-.42.02-.25.17-.387.42-.397zm-2.273-.33c-.472.02-.72.256-.75.728.03.471.278.73.75.75.471-.02.708-.279.728-.75-.02-.472-.257-.709-.728-.729zm2.273 0c-.471.02-.72.256-.75.728.03.471.279.73.75.75.472-.02.708-.279.728-.75-.02-.472-.256-.709-.728-.729zm-3.42 2.538c.26.01.398.146.419.397-.02.26-.159.4-.42.42-.25-.02-.377-.16-.397-.42.02-.251.146-.387.397-.397zm2.272 0c.261.01.4.146.42.397-.02.26-.159.4-.42.42-.25-.02-.377-.16-.397-.42.02-.251.147-.387.397-.397zm2.252 0c.26.01.421.124.441.375-.02.26-.18.421-.441.441-.251-.02-.378-.18-.398-.441.02-.251.147-.365.398-.375zm-4.525-.332c-.471.02-.72.257-.75.729.03.471.279.73.75.75.472-.02.708-.279.729-.75-.02-.472-.257-.708-.729-.729zm2.273 0c-.471.02-.72.28-.75.75.03.472.279.71.75.73.472-.02.73-.258.75-.73-.02-.47-.278-.73-.75-.75zm2.252 0c-.472.02-.72.257-.75.729.03.471.278.73.75.75.471-.02.73-.279.75-.75-.02-.472-.279-.708-.75-.729zm-.044 2.097l-1.192 3.752h-2.075l-1.17-3.752zm-5.253-.618l1.5 4.922h3.024l1.545-4.922zm14.201-4.673q-.27 0-.435.18-.165.18-.165.405 0 .195.165.383t.42.188q.286 0 .444-.173.157-.173.157-.398 0-.24-.187-.413-.188-.172-.398-.172zm0-.136q.271 0 .504.21.233.21.233.511 0 .27-.203.496-.203.225-.548.225-.316 0-.518-.24-.203-.24-.203-.48 0-.286.203-.504.202-.218.533-.218zm0-3.769q-.285 0-.33.586v2.568q.015.3-.165.555-.158.06-.308.06t-.293-.06l-2.432-.796q-.203-.046-.345-.046-.267 0-.316.167-.09.27.465.495l2.448.781q.286.09.466.36 0 .33-.195.571l-1.502 2.072q-.316.511-.09.661.06.045.132.045.198 0 .483-.33l1.502-2.072q.165-.256.48-.36.301.09.481.36l1.502 2.072q.286.33.475.33.07 0 .126-.045.225-.165-.075-.676l-1.517-2.072q-.195-.24-.18-.556.18-.27.48-.36l2.433-.78q.556-.226.466-.481-.06-.18-.334-.18-.137 0-.327.044l-2.448.796q-.143.053-.29.053-.146 0-.296-.053-.195-.255-.18-.555V2.836q-.045-.586-.315-.586zm8.978 5.147c.805 0 1.813.414 2.301.902.427.427.483.993.498 1.519h-5.576c.016-.526.072-1.092.499-1.519.487-.488 1.472-.902 2.278-.902zm0-.45c-.956 0-1.984.441-2.587 1.044-.618.618-.688 1.431-.688 2.04v.238h6.549v-.238c0-.609-.046-1.422-.664-2.04-.603-.603-1.655-1.044-2.61-1.044zm-6.18 6.598a1.58 1.58 0 0 0-.37.045c-.247.06-.515.198-.804.413h-5.826v1.288h5.826c.29.215.557.353.805.413a1.546 1.546 0 0 0 .735 0c.243-.06.485-.198.728-.413h.224c.234.215.474.353.721.413a1.553 1.553 0 0 0 .743 0c.247-.06.51-.198.79-.413h5.882v-1.288h-5.881c-.28-.215-.544-.352-.791-.413a1.553 1.553 0 0 0-.743 0c-.247.06-.487.198-.72.413h-.225c-.243-.215-.485-.352-.728-.413a1.503 1.503 0 0 0-.366-.045z"/><path d="M194.258.375c-9.625 0-9.625 17.25 0 17.25m0-17.25h28.884m-28.884 17.25h28.884M230.83.375v17.25M223.142.375c9.625 0 9.625 17.25 0 17.25" fill="none" stroke="#000"/></svg>