<svg xmlns="http://www.w3.org/2000/svg" width="147.008" height="18"><path d="M6.286.322q.06 0 .113.039.214.116-.136.564-.37.369-.457.622-.088.253-.185.67-.097.419-.428 1.197l-.447.136H3.132q.233-.506.544-.914.759-.7 1.128-.934.37-.233.593-.398.224-.166.477-.632.233-.35.412-.35zM5.27 3.939l-.311.68q-.454-.045-.84-.045-.775 0-1.28.182-.097-.661-.292-.817zm-2.237 1.42q-.37.02-.389.35.02.389.39.389.369 0 .388-.39-.02-.33-.389-.35zm.837-.33q.836 0 .972.777.136.778-.895 1.07.35.66 0 .836-.123.062-.24.062-.216 0-.411-.208-.302-.32-.535-.914-.233-.593-.7-.593h.33q-.213-.33-.155-.506l.034.002q.166 0 .219-.177.37-.35 1.38-.35zm1.147.057q.292 0 .836 1.255.545 1.254 1.77 2.314t1.974 2.577q.749 1.517 2.927 3.326-3.812-1.809-4.784-2.237-.973-.428-3.15-2.003-1.246-.914-1.246-1.459 0-.427.098-.739V8.1q.992 0 .992-.991 1.342-.661.583-2.023zm-.545 5.971q.37 1.77 1.829 3.91-.139.109-.302.109-.385 0-.904-.616 0-.972-.7-3.403zm.642.622q1.148.914 2.587 1.731v1.848q-.506-.39-1.011-.467-1.381-2.256-1.576-3.112zm.214 3.812q.265.336.546.336.255 0 .524-.277l.097 1.711q-.185-.041-.354-.041-.308 0-.56.138-.34-.113-.597-.113-.096 0-.18.016l.524-1.77zm.603-3.676l5.815 2.937q1.128 1.264 2.159 2.392v.02l-1.459.233-2.898-3.131q-.836-.68-3.617-2.45zM6.202 0h-.037q-.233.01-.486.4-.058.174-.243.388-.185.214-.535.428-.35.214-.505.34-.156.127-.525.458-.312.252-.448.408-.31-.194-.525-.476-.214-.282-.233-.516-.02-.233.048-.37.069-.135.214-.165.04-.008.08-.008.103 0 .202.057.136.078.117.272-.039.175-.253.214-.058-.025-.095-.025-.05 0-.06.045-.04.252.194.272l.05.002q.2 0 .33-.138.145-.156.126-.525Q3.482.652 3.19.613 3.137.606 3.084.606q-.237 0-.468.144-.282.175-.311.544-.03.37.263.749.291.379.641.632-.272.35-.564.875H1.81q.506.545.603 1.536h-.04q-.346 0-.29.331-.545.156-.545 1.03.181-.105.34-.105.044 0 .088.009.233 0 .379.544.146.545.632 1.206v.02q-.117.233-.117.738 0 .506.895 1.459.895 3.073.875 4.493 0 .175.253.213l-.642 2.14q-.052-.004-.106-.004-.272 0-.604.082-.19.046-.388.046-.219 0-.448-.056-.253-.062-.497-.062-.177 0-.349.033-.272.051-.432.051-.08 0-.132-.012-.506.116-.564.758.337-.194.514-.194.089 0 .138.048.145.146.573.146h5.66q.37 0 .583-.156.071-.051.169-.051.194 0 .492.207.02-.622-.66-.797-.386.143-.696.143-.238 0-.433-.085l-.097-1.925q.532.736.93.736.17 0 .315-.134-.137-1.186-.137-2.178l.545.33q.467.215 2.052 2.024 1.52 1.734 1.814 1.734.013 0 .024-.004l1.847-.389q.292-.097.117-.291L13.01 15.51q1.362.875 2.042 1.167-.33-.37-1.108-.934l.389.136q.233-.039.194-.37-3.384-2.45-4.298-4.22-.914-1.77-2.149-2.878-1.235-1.108-1.838-2.49-.37-.874-.758-1.186L7.293.633 6.866.399 5.854 2.597l.098-.447q.116-.467.252-.7.137-.234.273-.331.291-.428.291-.661 0-.234-.175-.35Q6.413 0 6.201 0zm13.359.696q.928 0 .928 1.222 0 1.075-.928 2.129-.927-1.054-.927-2.129 0-1.222.927-1.222zm0 4.7q.654 0 .654 1.412 0 .8-.654 1.475-.653-.674-.653-1.475 0-1.412.653-1.412zm0 4.257q.654 0 .654 1.413 0 .8-.654 1.475-.653-.674-.653-1.475 0-1.413.653-1.413zm0-9.653q-1.686 0-1.686 1.918-.02 1.201.559 1.886.58.685.516.917-.737.864-.737 2.087 0 1.012.864 2.17-.864.865-.864 2.088 0 1.011.864 2.15.105.273-.59 1.285-.696 1.012-1.434 3.499h.928q.463-1.644.822-2.35.358-.706.758-1.149.422.443.77 1.149.348.706.811 2.35h.949q-.696-2.487-1.423-3.499-.727-1.012-.6-1.286.842-1.138.842-2.15 0-1.222-.8-2.086.8-1.16.8-2.171 0-1.223-.716-2.087-.063-.232.506-.917t.569-1.886Q21.269 0 19.56 0zm15.528.48a3.498 3.498 0 0 1-2.406.915c-.36 0-.74-.046-1.137-.14a4.628 4.628 0 0 0-1.064-.125c-1.06 0-2.126.371-3.199 1.114.87-.787 1.539-1.214 2.01-1.28.339-.048.835-.072 1.486-.072.25 0 .524.003.821.01.082.002.165.003.248.003 1 0 2.08-.141 3.24-.424zm-4.815 1.116c.417 0 .883.058 1.395.173.882.198 1.728.297 2.538.297.11 0 .22-.002.33-.006.218-.007.402-.01.553-.01.476 0 .611.036.405.11-.27.097-.813.158-1.625.184-.813.025-1.506.23-2.078.613-.39.262-.847.392-1.37.392-.245 0-.504-.028-.777-.085-.859-.18-1.436-.376-1.733-.59.225-.4.657-.706 1.296-.92a3.34 3.34 0 0 1 1.066-.158zm-3.996 2.198zm.784-.66c-.131 0-.682.193-.916.474a.652.652 0 0 0-.143.43c-.018.097.016.225.12.395a.497.497 0 0 0 .303.108c.225 0 .418-.165.397-.403-.021-.257-.126-.385-.322-.385a.657.657 0 0 0-.223.04c.011-.04.019-.077.038-.103.19-.262.614-.412.747-.512.04-.03.034-.044-.001-.044zM25.72 5.272zm1.333-2.373c.205 0 .39.091.552.273.317.353.458.708.422 1.066-.036.357-.14.649-.314.874a6.227 6.227 0 0 0-.554-.027c-.51 0-.888.08-1.133.241l-.138-.024c.041-.073.12-.221.156-.297a.555.555 0 0 0 .06 0l.222-.05c.065-.015-.469-.273-.475-.273l.006.003.037.226c.001.01.004.02.009.03-.061.109-.147.26-.183.33l-.123-.021c.163-.603.222-1.023.176-1.258-.046-.235.169-.519.644-.85.23-.162.443-.243.636-.243zm1.511 1.246c.018 0 .041.026.069.077 1.32 1.105 2.392 1.657 3.215 1.657.114 0 .223-.01.327-.031.608-.123 1.132-.185 1.571-.185.18 0 .347.01.5.031.52.072.866.37 1.034.897.17.527.205.857.108.99-.097.132-.494.222-1.189.268a7.944 7.944 0 0 1-.524.017 8.69 8.69 0 0 1-1.615-.155 3.467 3.467 0 0 0-.626-.07c-.334 0-.522.09-.562.27-.025.108-.095.162-.211.162-.173 0-.448-.12-.824-.362-.63-.404-1.087-.851-1.373-1.342-.286-.49-.35-.859-.191-1.104a1.48 1.48 0 0 0 .237-.82c0-.2.018-.3.054-.3zm7.618 1.583c.486 0 .99.231 1.514.695.674.598 1.024 1.083 1.05 1.457.026.373-.148.603-.521.69a1.037 1.037 0 0 1-.236.027c-.306 0-.631-.132-.976-.395-.434-.333-.751-.685-.95-1.059-.2-.373-.3-.825-.3-1.357a1.53 1.53 0 0 1 .42-.058zM35.242 0c-.048 0-.099.002-.153.005-1.263.327-2.634.491-4.11.491-.185 0-.372-.003-.56-.008a6.154 6.154 0 0 0-.167-.002c-1.61 0-2.85.647-3.72 1.942-.624.409-1.007.736-1.15.982-.143.245-.169.587-.077 1.027a5.844 5.844 0 0 0-.178.547l-1.036.49.427-.012.56-.258c-.013.07-.02.135-.024.192l-.882.587.4-.052.496-.328c.019.076.055.13.107.16.158.094.379.14.662.14.074 0 .153-.003.235-.01.212-.174.532-.261.958-.261.148 0 .31.01.483.032.215 1.032 1.033 1.968 2.454 2.806a42.71 42.71 0 0 0-2.519-.1c-.616 0-1.008.033-1.177.1-.337.133-.51.383-.521.751a3.215 3.215 0 0 0 1.656-.03h4.77c.06-.205-.175-.552-.706-1.043.547.15 1.148.224 1.804.224.778 0 1.634-.105 2.566-.316l.828.368c-.304.123-.69.185-1.158.185-.193 0-.4-.01-.62-.032a2.659 2.659 0 0 0-.25-.012c-.617 0-1.03.244-1.238.733.408.064.776.096 1.101.096.35 0 .653-.037.908-.111a21.396 21.396 0 0 1 1.805-.093c.32 0 .591.013.817.039.276.032.567.079.828.079.282 0 .53-.054.69-.24.691-.803.653-.844.67-1.281.03-.692-.043-1.526-.482-1.526a.565.565 0 0 0-.277.089c-.505.29-.025.608-.057 1.41 0 0-.07-1.045-1.096-1.728-.817-.544-1.825-.87-3.082-.89a32.953 32.953 0 0 0-.535-.004c-.98 0-1.696.05-2.149.15a2.413 2.413 0 0 1-.522.058c-.355 0-.707-.08-1.057-.242-.522-.24-1.319-.785-2.392-1.633.65.254 1.264.381 1.839.381a3.5 3.5 0 0 0 1.626-.389c1.002-.516 1.945-.787 2.83-.813.884-.025 1.397-.283 1.54-.774a16.794 16.794 0 0 0-2.284-.215c.725-.276 1.226-.63 1.502-1.065.253-.397.125-.596-.383-.596zm-6.408 11.61v.484H26.28v-.484zm-1.284.952q1.601 0 2.213.816.612.815.612 1.465-.016 1.012-.846 1.767-.831.756-1.98.756-1.162 0-1.993-.756-.83-.755-.83-1.752 0-.665.498-1.48.498-.816 2.326-.816zm-1.994-1.45v1.133q-.544.317-.997 1.027-.453.71-.468 1.571 0 1.012.838 2.047.838 1.034 2.62 1.11 1.768-.076 2.614-1.11.846-1.035.846-2.032-.015-.876-.468-1.593-.453-.718-1.012-1.035v-1.118zm11.836 0c-.096 0-.191.009-.287.017-1.383.148-2.366 1.548-2.148 2.905.096 1.009.722 1.574 1.409 2.13 2.044 1.253 1.47.792 3.53 1.836l.331-.617c-2.452-1.148-2.748-1.331-3.513-1.836-.627-.504-1.122-1.06-1.079-1.904-.017-.583.33-1.183.722-1.47a1.878 1.878 0 0 1 1.105-.374c.295 0 .574.07.817.244.618.304.957 1.313.505 1.948a1.2 1.2 0 0 1-.957.513.885.885 0 0 1-.522-.165c-.313-.174-.548-.783-.226-1.122-.148-.157-.357-.348-.513-.348-.105 0-.183.078-.235.26-.348.836.209 1.784 1.044 2.01.147.043.295.07.443.07.957 0 1.844-.8 1.844-1.792.087-1.157-.835-2.218-1.992-2.288a2.81 2.81 0 0 0-.278-.017zM52.87 1.728a.066.066 0 0 1 .021.003c-.079.127-.047.198.095.214.174-.048.205-.119.095-.214l.332.143a1.343 1.343 0 0 1-.427.07.377.377 0 0 1-.053.005.253.253 0 0 1-.208-.099c.055-.081.103-.122.146-.122zm.113-.117c-.015 0-.03 0-.044.002-.158.016-.285.118-.38.308.143.128.288.192.437.192.016 0 .033 0 .05-.003a1.32 1.32 0 0 0 .533-.19h.308v-.094h-.308c-.244-.143-.442-.215-.594-.215h-.002zm1.582-.034c.063 0 .09.032.08.095a.54.54 0 0 1-.142.284.713.713 0 0 1-.225.178.119.119 0 0 1-.042.013c-.024 0-.01-.032.042-.096.056-.068.068-.102.036-.102a.122.122 0 0 0-.036.007.124.124 0 0 1-.038.008c-.036 0-.035-.034.002-.102.048-.087.103-.17.166-.25a.501.501 0 0 1 .157-.035zm-.465.557c.08.048.095.091.047.13-.021.018-.04.027-.057.027-.02 0-.036-.013-.05-.038-.023-.048-.003-.087.06-.119zm.544-.72a.403.403 0 0 0-.117.021.633.633 0 0 0-.332.273c-.095.142-.119.245-.071.308-.095.047-.154.107-.178.178-.024.07.008.126.095.165a.136.136 0 0 0 .057.012c.082 0 .19-.063.322-.19.166-.157.272-.296.32-.414.047-.119.055-.213.023-.284-.02-.045-.058-.068-.114-.069h-.005zm-.398-1.1c.173 0 .369.027.589.078.568.135.857.427.864.877.008.45-.22.853-.687 1.209-.21.16-.338.24-.384.24-.057 0 .008-.12.195-.359.34-.434.458-.79.355-1.066-.068-.183-.237-.274-.508-.274-.14 0-.306.024-.499.073-.632-.174-.821-.368-.569-.58.15-.128.356-.193.618-.197h.026zm-2.108 2.647a.249.249 0 0 0 .019.074.802.802 0 0 1 .047.296c0 .119.075.19.225.213.065.01.136.016.214.016.103 0 .217-.01.343-.027.074.31.034.464-.12.464l-.034-.003a.787.787 0 0 0-.101-.006c-.186 0-.457.054-.788.208l-2.76 2.019c.383-.892.716-1.652.987-2.273.43-.144.842-.357 1.257-.419.165-.025.087-.324.12-.51.042-.001.373-.034.591-.052zm.99-1.858h.013c.102.008.39.107.864.297.026.07.07.104.13.104a.35.35 0 0 0 .178-.069.529.529 0 0 1 .29-.095c.057 0 .115.012.172.036.15.063.17.205.06.427-.11.22-.257.406-.439.556-.181.15-.26.312-.237.486.024.174.13.3.32.38.048.284.178.52.391.71.213.19.58.403 1.102.64-.821 1.39-1.232 2.394-1.232 3.01 0 0 .043.213.098.51.088.469.206 1.147.234 1.528a.755.755 0 0 1-.095.45c-.146.24-.898.357-2.248.357l-.264-.001c-.713.072-1.493.108-2.34.108-.636 0-1.31-.02-2.02-.06.173-.522 1.082-.878 2.725-1.067 1.627 0 2.44-.482 2.44-1.446 0-.664-.355-1.73-1.066-3.2.916-.252 1.296-.528 1.138-.829.063-.442-.048-.679-.332-.71a1.13 1.13 0 0 1-.112.005c-.247 0-.392-.096-.433-.29.237-.095.324-.174.26-.237-.063-.063-.173-.103-.331-.118.11-.111.07-.214-.119-.309l.427-.663a.46.46 0 0 1 .284-.084c.18 0 .408.068.687.202.158-.015.115-.083-.13-.201a1.46 1.46 0 0 0-.723-.154c.106-.182.21-.273.308-.273zM54.441 0c-.17 0-.343.016-.519.049-.513.095-.975.466-1.386 1.114-.095.237-.324.584-.687 1.042-.061.198-.041.297.059.297h.012a.638.638 0 0 1 .045-.002c.087 0 .151.02.192.06-.053.04-.08.082-.084.127l-.586-.001c-.446.016-.942.215-1.436.598-1.243 1.067-1.84 2.32-1.825 3.738 0 .192.11.277.311.277.034 0 .07-.003.108-.007.915-.399 2.79-1.164 3.426-1.527.357.61.536 1.565.536 2.863l-.995.19c-2.402.236-3.792.615-4.171 1.137-.522.3-.909 1.35-1.161 3.152-.38 1.895-1.09 2.883-2.133 2.962l-1.754.663-.166.308c.127.11.245.166.356.166l3.223-.166c.22-.727.66-1.63 1.315-2.713.655-1.082.912-2.042.77-2.88.3 1.075.577 2.465.83 4.171.047.411-.45.783-1.494 1.114-.473.032-.71.182-.71.45l2.44-.094c.538 0 .806-.214.806-.64-.174-.38-.193-1.153-.06-2.323.135-1.169-.01-2.117-.437-2.843l4.17-.166c1.36 0 2.038-.348 2.038-1.043l-.118-2.322c0-.885.237-1.644.71-2.275l.499 2.109-.711 3.27a2.35 2.35 0 0 0-.297.628c-.055.198-.09.375-.106.533 0 .127.035.296.106.51.071.213.115.415.13.604a.268.268 0 0 0 .096.095.04.04 0 0 0 .018.005c.022 0 .04-.026.053-.076.035.036.065.054.088.054.027 0 .045-.026.054-.078.036.036.065.054.088.054.027 0 .046-.026.054-.077.025.025.05.037.076.037.006 0 .013 0 .019-.002.031-.008.047-.051.047-.13a14.632 14.632 0 0 1-.178-.605c-.04-.15-.043-.375-.011-.675.016-.08.031-.118.047-.118.032 0 .063.023.095.07 0 .08-.008.19-.024.332a.603.603 0 0 0 .036.332c.024.05.054.074.087.074.02 0 .043-.009.067-.026.047-.016.059-.087.035-.214-.023-.126-.008-.308.048-.545.055-.237-.004-.49-.178-.758.727-.964 1.098-2.18 1.114-3.65-.08-1.042-.285-1.92-.617-2.63a3.38 3.38 0 0 0-1.658-.877c-.411-.347-.348-.7.19-1.055.536-.355.793-.813.77-1.374-.024-.56-.265-.932-.723-1.114A2.525 2.525 0 0 0 54.44 0zM43.23 17.97V18h.06c-.017-.013-.043-.017-.06-.03zM63.119.389v.377h-1.992V.39zm-1.002.743q1.25 0 1.727.636.477.637.477 1.143-.011.79-.66 1.38-.648.589-1.544.589-.908 0-1.556-.59-.648-.589-.648-1.367 0-.518.389-1.155.389-.636 1.815-.636zM60.561 0v.884q-.424.248-.778.802-.353.554-.365 1.225 0 .79.654 1.598.654.807 2.045.866 1.38-.059 2.04-.866.66-.808.66-1.586-.012-.683-.366-1.243t-.79-.808V0zm8.523 2.809c.72 0 1.621.37 2.057.806.382.381.431.887.445 1.357h-4.984c.014-.47.064-.976.446-1.357.436-.436 1.316-.806 2.036-.806zm0-.403c-.854 0-1.773.394-2.312.933-.552.552-.615 1.28-.615 1.824v.212h5.854v-.212c0-.544-.042-1.272-.594-1.824-.539-.539-1.479-.933-2.333-.933zM65.716 8.48l-1.73-1.745-.625.558 1.763 1.775-1.774 1.763.588.592 1.774-1.764 1.764 1.775.592-.588-1.73-1.848 1.74-1.69-.588-.592-1.774 1.764zm4.494 5.115c.632.028.978.041 1.127.041h.068l-.082 3.298a4.84 4.84 0 0 1-1.255-.746l.142-2.593zm-9.202-.82c-.21.04-.489.169-.455.42v1.84a34.097 34.097 0 0 0-.95-.042c0 .231.19.543.78.543.007.523.102 1.161.197 1.487l.081.855c0 .095.163.122.34.122.21 0 .441-.04.441-.04l-.034-.856c3.353.027 9.746.197 10.065.197.163 0 .271-.176.271-.42l.082-3.686-2.016-.02-.163 2.87c-1.459.007-3.984.245-5.7.245-.544 0-1.012-.02-1.33-.088-.069-.075-.7-.991-1.1-1.093a1.76 1.76 0 0 0-.238-.027c-.068-.557-.136-1.113-.197-1.663.122-.156.4-.115.475-.326.075-.102.027-.271-.115-.278-.081-.034-.305-.04-.4-.04zm14.308-9.477q.057 0 .12.004.787.056 1.705.6-.937.581-1.715.628-.05.003-.098.003-.679 0-.661-.631-.018-.604.65-.604zm.003 3.73q.056 0 .116.005.788.056 1.706.618-.937.563-1.715.61-.052.003-.1.003-.677 0-.66-.613-.017-.623.653-.623zm-.072-4.346l-.102.001q-1.003.038-1.134 1.219.167 1.265 1.092 1.265h.014q.937-.009 2.643-.684h10.854q1.33.113 1.34 1.247.01 1.134-1.34 1.359H77.779q-1.568-.667-2.555-.667l-.08.001q-1.002.028-1.133 1.228.167 1.247 1.092 1.247h.014q.937-.01 2.643-.666h4.518q-2.325 3.093-3.9 5.437-.768.6-1.293.73-.225.132-1.48.226-1.088.075-1.088.375l.019.018q0 .207 2.38.282.281-.113.713-.113.693.094.88.094h.02q.393 0 .58-.225.188 0 .282-.881 0-.225 1.453-1.865 1.452-1.64 1.659-2.428 0-.206.806-.3.206 0 1.284 1.265 1.078 1.266 2.203 3.122 0 .075-.282.112-.674.45-1.106.506-1.443.244-1.443.544v.037q0 .113 1.65.15l1.237-.112 1.293.112q.431-.056.431-.356 0-.318-.3-.73-.6-.75-1.218-1.97-1.331-2.774-2.643-3.392-.544-.619-.825-.656h4.484q1.957 0 2.686-1.21.74-1.227 0-2.465-.708-1.183-2.574-1.183l-.172.002H77.78q-1.55-.676-2.532-.676zm27.003-.051L99.669.03l-.933.832 2.632 2.647L98.72 6.14l.877.882 2.647-2.631 2.631 2.647.882-.877-2.58-2.756 2.596-2.523-.877-.882-2.647 2.631zm6.705 8.799c.941.04 1.458.06 1.68.06h.102l-.122 4.92c-.81-.334-1.306-.668-1.873-1.113l.213-3.868zm-13.729-1.226c-.314.061-.729.253-.678.628v2.744a52.47 52.47 0 0 0-1.417-.061c0 .344.283.81 1.164.81.01.78.152 1.731.294 2.217l.121 1.276c0 .142.243.182.506.182.314 0 .658-.06.658-.06l-.05-1.276c5.001.04 14.538.293 15.014.293.243 0 .405-.263.405-.627l.121-5.498-3.007-.03-.243 4.282c-2.176.01-5.942.365-8.504.365-.81 0-1.508-.03-1.984-.132-.101-.111-1.043-1.478-1.64-1.63-.04-.01-.183-.03-.355-.04-.1-.83-.202-1.66-.293-2.48.182-.234.597-.173.708-.487.112-.152.04-.405-.172-.415-.121-.05-.455-.06-.597-.06zM115.256 0a.501.501 0 0 0-.473.308l-1.378 2.395c-.16.327.142.685.463.685a.42.42 0 0 0 .235-.072l1.146-1.857 1.008 1.716v14.33c-.023.295.248.495.51.495a.433.433 0 0 0 .37-.193l.098-14.631 1.008-1.717c.34.58.666 1.168 1.013 1.743.09.124.23.18.371.18.213 0 .429-.128.481-.35a.49.49 0 0 0 .019-.12c-.018-.284-1.104-2.07-1.493-2.724a.453.453 0 0 0-.377-.188.5.5 0 0 0-.471.305l-1.04 1.77-1.115-1.89a.452.452 0 0 0-.375-.185zm10.176.46q-.11 1.162-.11 2.603 0 1.442.14 2.914-.32-.17-1.001-.17-.69 0-1.001.17.15-1.472.14-2.914-.01-1.441-.11-2.602zm-.971 5.967q.68.01 1.381.36l-.18.33q-.141-.024-.265-.024-.426 0-.636.295-.12-.53-.3-.65-.18.12-.31.65-.21-.295-.636-.295-.124 0-.265.025l-.18-.33q.72-.35 1.39-.36zm0 .961q.15.12.1.35-.05.23-.1.441-.06-.21-.11-.44t.11-.35zm.912.002q.056 0 .119.008-.68 1.622-1.031 1.622-.34 0-1.051-1.622.064-.008.121-.008.366 0 .47.329.13.37.27.6.15.24.19.24.05 0 .18-.24.14-.23.26-.6.113-.329.472-.329zM122.899 0q.48 3.404-.01 6.137-.89.42-.74.71.11.22.251.22.052 0 .109-.03.87.982 1.431 2.313.22 2.193-.06 7.579 0 1.071.56 1.071h.031q.56 0 .56-1.071-.27-5.386-.06-7.579.551-1.331 1.422-2.312.056.03.108.03.143 0 .252-.22.15-.29-.73-.711-.501-2.733 0-6.137zm14.995 2.631L135.314.03l-.933.832 2.63 2.647-2.646 2.632.877.882 2.647-2.631 2.631 2.647.883-.877-2.581-2.756 2.597-2.523L140.54 0l-2.647 2.631zm6.705 8.799c.941.04 1.458.06 1.68.06h.102l-.122 4.92c-.81-.334-1.306-.668-1.873-1.113l.213-3.868zm-13.728-1.226c-.314.061-.73.253-.679.628v2.744a52.47 52.47 0 0 0-1.417-.061c0 .344.283.81 1.164.81.01.78.152 1.731.294 2.217l.121 1.276c0 .142.243.182.506.182.314 0 .658-.06.658-.06l-.05-1.276c5.001.04 14.538.293 15.014.293.243 0 .405-.263.405-.627l.121-5.498-3.006-.03-.243 4.282c-2.177.01-5.943.365-8.505.365-.81 0-1.508-.03-1.984-.132-.101-.111-1.043-1.478-1.64-1.63a2.64 2.64 0 0 0-.355-.04c-.1-.83-.202-1.66-.293-2.48.182-.234.597-.173.709-.487.11-.152.04-.405-.173-.415-.121-.05-.455-.06-.597-.06z"/></svg>