<svg xmlns="http://www.w3.org/2000/svg" width="216.828" height="18"><path d="M13.234 2.432l4.255 4.7-1.307.75-2.948-5.45zm-9.733-1.28q.806 0 1.557.418v.027q0 .529-.5.835-.862.222-.862.278l.917.083h.14q.472-.083.862-.5.222 1 .361 1.056.473.056 1.335.974L9.619 7.27q2.42 3.476 3.615 5.089v.028q-3.281-1.586-3.81-1.891-2.085-.918-3.948-2.225-1.947-1.53-2.225-2.698 0-.445.445-1.084l1-1.335-.11-.028q-.418.139-.974.667-.75.807-.862 1.363h-.028l-.083-.89q0-.417.167-1.001v-.14Q2.389 1.57 2.25 1.57l.556-.306-.084.25q0 .278.223.417h.139q.25 0 .306-.361v-.084q0-.111-.195-.306l.306-.028zm.667 7.287q.14 0 .306.64.278 1.723 2.225 4.588-.306.139-.528.39-.779-.807-1.085-.807h-.028l.028-.223q0-1.335-.918-4.588zm.946.834q1.557 1.224 3.393 2.308v.779L8.562 14v.028l.028.028h-.028q-.667-.528-1.334-.64l-1.28-2.002q-.556-1-.834-2.113v-.028zm.362 4.894q.5.612.64.612l.11-.028.612-.528.14 2.447v.056l-.613-.056q-.5.056-.5.167-.223-.083-.89-.167l-.084.056h-.194l.75-2.559zM6.81 9.774l1.057.584q6.035 3.003 6.118 3.003 1.502 1.724 2.893 3.198v.028l-1.947.334-2.086-2.253-1.78-1.974q-1.14-.89-4.255-2.893v-.027zM3.84.495q-.85 0-1.563.407-.139.028-.5.25-.64.501-.64.863v.027l.028.028.361-.028.223.028q.222 0 .5 1.168-.166.473-.166 1.057v.028q0 1.64 1.223 3.114 1.196 4.089 1.196 5.618l-.028.39q0 .222.334.278l-.834 2.864-.39-.028-1.251.028-.5-.028q-1.113.278-1.113.723v.111q.195-.139.306-.139l.361.028 1.085-.055h.223l.222.055h.445l.25-.028.167.028 2.03.056 2.837-.084.834.056.445-.056.417.056v-.028q-.306-.417-1.196-.612 0 .056-.611.056h-.807l-.139-2.559v-.027l.612.306q.64.723.779.723.166 0 .278-.195v-.028q-.195-1.585-.195-2.892v-.056l.75.473q.613.306 1.948 1.863 2.92 3.17 2.975 3.17l2.197-.333q.807-.056.807-.417l-.028-.167-2.058-2.197q1.863 1.168 2.753 1.557h.084q-.529-.528-1.558-1.251l.5.195q.307-.084.307-.279v-.083l-.028-.139-4.811-3.393Q10.676 7.687 9.23 5.88q-.417-.612-.529-.695l2.948-2.781q.223-.223.584-.306.39.139.5.473l3.255 6.174q.27.368.54.368.035 0 .071-.007.306-.222.112-.918.5.376.735.376.078 0 .127-.042.25-.083-.056-.862.453.359.714.359.123 0 .204-.08.167-.223-.028-.585L12.428.707l-4.172 3.81Q7.2 3.155 6.45 2.932q-.084 0-.278-.778-.334-.723-.64-.89Q4.947.54 4.001.499q-.08-.004-.16-.004zM22.286 0l-1.775 2.098h.866l.91-1.084.917 1.084.892-1.084.918 1.084.91-1.084.917 1.084.91-1.084.918 1.084.892-1.084.918 1.084.918-1.084.891 1.084.919-1.084.909 1.084h.865L33.207 0l-.919 1.014L31.397 0l-.918 1.014L29.56 0l-.892 1.014L27.75 0l-.91 1.014L25.923 0l-.909 1.014L24.096 0l-.892 1.014L22.286 0zm-.466 5.69q-.083 0-.161.026-.305.098-.269.296.03.167.273.167.044 0 .095-.006.331-.036.582-.269-.28-.213-.52-.213zm.155-.18q.647 0 1.997.77.677.351 1.485.351.39 0 .81-.081 1.058-.216 2.224-.377.395-.055.766-.055.722 0 1.35.208.95.313 1.577.403.628.09 1.99.161-.878.09-1.72.09-.844 0-1.991-.188-.574-.094-1.105-.094t-1.02.094q-.977.188-2.223.35-.312.04-.613.04-.902 0-1.71-.363-.783-.535-1.627-.535-.372 0-.757.104-.34-.018-.305-.376.197-.484.843-.502h.029zm.48-1.83q-.389 0-.724 1.184-.281-1.045-.725-1.045-.066 0-.136.023-.538.34.359 1.31-.718.411-.718 1.039 0 .628 1.058.7.327-.086.64-.086.73 0 1.378.47.554.404 1.756.404.802 0 1.892-.179 1.34-.377 2.603-.377.48 0 .948.054 1.17.136 1.994.136.375 0 .677-.028 1.524-.036 1.524-.287-.412-.377-1.165-.502-1.596-.018-2.914-.556-.659-.269-1.616-.269-.957 0-2.212.269-.81.204-1.507.204-.956 0-1.703-.383-.77-.466-1.631-.771.717-.556.672-.924-.045-.367-.44-.385h-.01zm5.291 6.368q2.549 0 5.405 1.232-2.856 1.197-5.405 1.197-2.531 0-5.404-1.197 2.873-1.232 5.404-1.232zm0-.787q-3.147 0-7.235 2.002 4.088 1.984 7.235 1.984 3.148 0 7.235-1.984-4.07-2.002-7.235-2.002zm.091 6.299c.235 0 .376.04.449.081.213.136.111.461.077.664h-1.052c-.025-.207-.14-.524.077-.664.073-.041.214-.081.449-.081zm-5.845 1.227v.731h-.999v-.73zm5.186 0v.731h-4.946v-.73zm1.202 0v.731h-.962v-.73zm4.829 0v.731H28.62v-.73zm1.29 0v.731h-1.05v-.73zm-8.775-1.958l-.34.34 1.139 1.136H20.51V18h14.47v-1.695h-5.83l1.139-1.135-.34-.341-1.053 1.05c-.063-.637-.5-.783-1.06-.801-.599.016-.967.151-1.06.8l-1.053-1.05zM38.225 2.255a.187.187 0 0 0-.07.013c-.145.102-.203.203-.174.305.03.087.105.141.229.163a.32.32 0 0 0 .055.005c.094 0 .163-.049.206-.146.05-.116.029-.207-.066-.272a.324.324 0 0 0-.18-.068zm.2-.105c-.066 0-.14.01-.226.032-.406.115-.515.3-.326.554.09.121.254.182.49.182.258 0 .601-.071 1.031-.215.42-.174.754-.326 1-.456l-.065-.044-.956.37c-.502.167-.855.25-1.062.25a.47.47 0 0 1-.112-.011c-.174-.044-.276-.123-.305-.24-.029-.115.04-.21.207-.282a.666.666 0 0 1 .26-.064.3.3 0 0 1 .142.032c.102.05.145.116.13.195a.399.399 0 0 1-.152.229c.218-.058.298-.174.24-.348-.041-.123-.14-.184-.297-.184zm.224-.16a.9.9 0 0 1 .593.213 5.984 5.984 0 0 1 1.044-.097c.48 0 .922.069 1.326.206.681.232 1.141.855 1.38 1.87.24 1.014.098 2.065-.424 3.152-.521 1.087-1.134 2.489-1.837 4.206-.702 1.718-1.054 2.99-1.054 3.816 0 .826.942 1.239 2.826 1.239 1.507 0 2.261-1.5 2.261-4.5 0-2.232.674-3.348 2.022-3.348 1.362 0 2.043 1.116 2.043 3.348.044.97.134 1.992.272 3.065.138 1.072.649 1.862 1.533 2.37-1.305-.276-2.011-1.004-2.12-2.185a68.769 68.769 0 0 1-.228-3.25c0-1.971-.5-2.964-1.5-2.979-.986.015-1.478 1.008-1.478 2.979 0 3.478-.935 5.217-2.805 5.217h-.084c-2.495 0-3.753-.637-3.775-1.913-.021-1.29-.036-3.196-.043-5.717-.007-2.522.134-4.185.424-4.99.29-.804.623-1.279 1-1.424.342-.131.835-.197 1.477-.197.064 0 .13 0 .197.002.145-.015.16-.102.043-.261a3.335 3.335 0 0 0-.838-.106c-.589 0-1.2.151-1.836.454-.18.051-.409.077-.687.077l-.106-.001c-.326-.007-.562-.221-.707-.641.189-.261.42-.442.696-.544.136-.04.264-.06.385-.06zm.238-.51c-.18 0-.396.027-.645.082-.362.08-.66.206-.891.38-.26.174-.384.392-.37.653-.014.318.163.587.533.804.292.172.581.257.869.257.076 0 .153-.006.229-.018-.609 1.087-.884 2.978-.826 5.674.058 2.696.058 4.493 0 5.391-.058.899.13 1.663.565 2.294.435.63 1.819.946 4.152.946 2.247 0 3.37-1.95 3.37-5.848.014-1.667.319-2.5.913-2.5.609 0 .913.833.913 2.5.029.985.141 2.206.337 3.663.196 1.456 1.315 2.185 3.359 2.185-.13-.305-.428-.649-.892-1.033-.463-.384-.757-1.04-.88-1.967-.123-.928-.2-1.877-.228-2.848 0-2.566-.87-3.848-2.61-3.848-1.738 0-2.608 1.282-2.608 3.848-.029 2.55-.587 3.826-1.674 3.826l-.124.001c-.692 0-1.216-.116-1.571-.349-.377-.246-.377-.964 0-2.152.376-1.189 1.058-2.768 2.043-4.74.58-1.246.913-2.166 1-2.76l.065-1.283c-.435-1.681-1.072-2.627-1.913-2.837-.46-.115-.9-.172-1.321-.172-.348 0-.683.039-1.005.118a1.182 1.182 0 0 0-.565-.25 1.374 1.374 0 0 0-.225-.017zM53.348.96v2.405q-.531-.792-3.187-.792h-1.965V.96zm.03-.903q-1.083.2-3.217.2h-2.637v3.018h2.637q1.393 0 1.994.29.611.291 1.193.832l.03 13.481h1.163V.058zm20.464.726q.839 0 .839.69 0 .614-.858.614l-15.185-.019q-.82 0-.82-.633 0-.652.839-.652zM58.362 0q-1.326 0-1.326 1.435t1.36 1.435h15.837q1.249 0 1.249-1.36 0-1.51-1.219-1.51H58.362zm7.934 3.447q-.28 0-.466.177t-.186.42q0 .242.186.41.187.167.466.167.28 0 .475-.168.196-.167.196-.41 0-.242-.196-.419t-.475-.177zm-2.124.019q-.28 0-.466.168-.186.167-.186.41 0 .242.186.419t.466.177q.28 0 .466-.177t.186-.42q0-.242-.186-.41-.187-.167-.466-.167zm4.267 0q-.28 0-.466.168-.186.167-.186.41 0 .242.186.419t.466.177q.28 0 .475-.177.195-.177.195-.42 0-.242-.195-.41-.196-.167-.475-.167zm-7.076.542q.25 0 .294.11.037.186-.56.503-3.139 1.23-3.275 1.23h-.004q-.026.01-.045.01-.048 0-.048-.066l-.373-.876q-.074-.093.038-.13.074-.038 3.521-.727.276-.054.452-.054zm9.896.01q.177 0 .459.063 3.466.69 3.521.726.112.038.038.13l-.354.877q-.014.066-.065.066-.02 0-.047-.01h-.003q-.119 0-3.276-1.23-.578-.317-.56-.503.044-.12.287-.12zm-9.622-.57q-.161 0-.353.036-1.416.243-4.602.876-.224.093-.093.391l.596 1.603q.1.265.316.265.027 0 .056-.004Q60.52 5.459 61.806 4.9q.838-.336.614-.97-.19-.482-.783-.482zm9.384.007q-.617 0-.812.495-.224.634.615.97 1.285.558 4.248 1.695.041.009.078.009.2 0 .294-.252l.597-1.602q.13-.317-.093-.391-3.168-.634-4.603-.895-.174-.029-.324-.029zm3.223 8.366c.619 0 .928.335.928 1.005v4.266H57.457v-4.244c0-.685.317-1.027.95-1.027.48 0 1.08.538 1.8 1.614.721 1.084 1.445 1.625 2.173 1.625.713 0 1.36-.455 1.943-1.365.582-.91 1.062-1.464 1.44-1.66.197-.1.39-.149.579-.149.182 0 .36.046.535.138.356.188.83.741 1.419 1.66.582.917 1.23 1.376 1.942 1.376.75 0 1.481-.541 2.194-1.625.713-1.076 1.317-1.614 1.812-1.614zm-.022-.903c-.764 0-1.506.55-2.226 1.648-.72 1.099-1.306 1.648-1.758 1.648-.429 0-1.007-.55-1.735-1.648-.728-1.098-1.448-1.648-2.161-1.648-.815 0-1.572.55-2.27 1.648-.692 1.099-1.256 1.648-1.692 1.648-.444 0-1.026-.55-1.746-1.648-.72-1.098-1.463-1.648-2.227-1.648-1.244 0-1.866.644-1.866 1.93v5.147h8.808c1.077.003.977.005 1 .005l.932-.005h8.808v-5.17c0-1.271-.622-1.907-1.867-1.907zM80.597.696q.927 0 .927 1.222 0 1.075-.927 2.129-.927-1.054-.927-2.129 0-1.222.927-1.222zm0 4.7q.653 0 .653 1.412 0 .8-.653 1.475-.653-.674-.653-1.475 0-1.412.653-1.412zm0 4.257q.653 0 .653 1.413 0 .8-.653 1.475-.653-.674-.653-1.475 0-1.413.653-1.413zm0-9.653Q78.91 0 78.91 1.918q-.021 1.201.558 1.886.58.685.517.917-.738.864-.738 2.087 0 1.012.864 2.17-.864.865-.864 2.088 0 1.011.864 2.15.106.273-.59 1.285T78.089 18h.927q.464-1.644.822-2.35.358-.706.759-1.149.421.443.77 1.149.347.706.81 2.35h.95q-.696-2.487-1.424-3.499-.727-1.012-.6-1.286.843-1.138.843-2.15 0-1.222-.801-2.086.8-1.16.8-2.171 0-1.223-.716-2.087-.063-.232.506-.917.57-.685.57-1.886Q82.304 0 80.596 0zM94.1.392a2.854 2.854 0 0 1-1.963.747c-.294 0-.603-.039-.927-.115a3.776 3.776 0 0 0-.868-.102c-.866 0-1.736.303-2.61.91.709-.643 1.255-.991 1.639-1.046a9.39 9.39 0 0 1 1.213-.058 32.779 32.779 0 0 1 .873.011c.815 0 1.697-.116 2.644-.347zm-3.928.91c.34 0 .72.047 1.138.141a9.454 9.454 0 0 0 2.34.238c.179-.006.329-.009.452-.009.388 0 .498.03.33.09-.22.08-.663.13-1.326.15-.663.021-1.228.188-1.696.501a1.96 1.96 0 0 1-1.118.32c-.2 0-.41-.023-.633-.07-.701-.146-1.172-.306-1.414-.481.183-.326.536-.576 1.057-.751.255-.086.545-.129.87-.129zM86.91 3.096zm.64-.539c-.107 0-.557.158-.748.387a.532.532 0 0 0-.117.351c-.014.08.014.184.098.323.079.06.166.088.248.088.183 0 .34-.135.324-.33-.018-.209-.103-.314-.263-.314a.536.536 0 0 0-.182.034c.01-.034.015-.064.03-.085.157-.214.502-.336.61-.418.033-.024.029-.036 0-.036zm-1.095 1.745zm1.087-1.936c.168 0 .318.074.451.222.259.288.374.578.344.87-.029.292-.114.53-.256.713a5.081 5.081 0 0 0-.452-.022c-.416 0-.724.066-.925.197l-.113-.02c.034-.06.1-.18.128-.242a.453.453 0 0 0 .049 0l.181-.04c.054-.012-.382-.224-.387-.224l.005.003.03.185a.084.084 0 0 0 .007.024c-.05.089-.12.212-.149.27l-.1-.018c.133-.492.18-.834.143-1.026-.038-.192.138-.424.526-.695.188-.131.36-.197.518-.197zm1.234 1.016c.015 0 .033.021.056.063 1.077.902 1.952 1.353 2.623 1.353.093 0 .182-.009.267-.026.497-.1.924-.15 1.282-.15.148 0 .284.008.408.025.425.058.707.302.844.732.138.43.167.698.088.807-.08.108-.403.181-.97.219a7.091 7.091 0 0 1-1.746-.113 2.83 2.83 0 0 0-.51-.057c-.273 0-.426.073-.46.22-.02.089-.077.133-.172.133-.14 0-.365-.099-.672-.296-.513-.33-.886-.694-1.12-1.095-.234-.4-.286-.7-.156-.9.129-.2.194-.424.194-.67 0-.163.014-.245.044-.245zm6.216 1.292c.397 0 .808.189 1.235.567.55.488.836.884.857 1.189.021.304-.12.492-.425.563a.846.846 0 0 1-.193.022c-.25 0-.515-.107-.796-.322-.354-.271-.613-.56-.776-.864-.162-.304-.244-.673-.244-1.107a1.25 1.25 0 0 1 .342-.048zM94.226 0c-.039 0-.08.001-.125.004-1.03.267-2.149.4-3.354.4a16.782 16.782 0 0 1-.593-.007c-1.314 0-2.326.528-3.036 1.584-.508.334-.821.601-.938.801-.117.2-.138.48-.063.839a4.77 4.77 0 0 0-.145.446l-.846.4.35-.01.456-.21a1.31 1.31 0 0 0-.02.157l-.72.478.327-.043.405-.267c.015.062.044.106.087.131.129.076.31.114.54.114.06 0 .125-.002.192-.008.173-.142.434-.213.782-.213.12 0 .252.009.394.026.175.842.843 1.606 2.002 2.29a34.852 34.852 0 0 0-2.055-.082c-.503 0-.823.027-.96.082-.276.108-.417.313-.426.613a2.624 2.624 0 0 0 1.351-.025h3.892c.05-.167-.142-.45-.575-.851a5.57 5.57 0 0 0 1.472.183c.635 0 1.333-.086 2.094-.258l.676.3c-.248.1-.564.15-.946.15-.157 0-.326-.008-.506-.025a2.17 2.17 0 0 0-.204-.01c-.503 0-.84.2-1.01.598.334.053.633.079.899.079.286 0 .533-.03.74-.091a17.46 17.46 0 0 1 1.474-.076c.26 0 .482.01.666.032.225.026.463.065.677.065.23 0 .432-.045.562-.196.564-.656.533-.69.548-1.046.023-.565-.036-1.245-.394-1.245a.461.461 0 0 0-.227.072c-.411.238-.02.497-.046 1.151 0 0-.058-.853-.894-1.41-.667-.444-1.49-.709-2.516-.726a26.89 26.89 0 0 0-.436-.003c-.8 0-1.384.04-1.753.122a1.969 1.969 0 0 1-1.29-.15c-.425-.196-1.075-.64-1.951-1.333.53.208 1.031.312 1.5.312.474 0 .917-.106 1.328-.318.817-.421 1.587-.642 2.308-.663.722-.021 1.141-.232 1.258-.632-.609-.1-1.23-.159-1.865-.175.593-.225 1.002-.515 1.227-.87.206-.324.101-.486-.313-.486zm-7.485 9.068l-1.615 1.91h.788l.827-.987.836.986.811-.986.836.986.827-.986.836.986.827-.986.835.986.812-.986.835.986.836-.986.811.986.836-.986.827.986h.788l-1.615-1.91-.836.924-.811-.923-.836.923-.835-.923-.812.923-.835-.923-.827.923-.836-.923-.827.923-.836-.923-.811.923-.836-.923zm2.256 3.718v.394h-2.083v-.394zm-1.048.777q1.307 0 1.806.665.499.666.499 1.196-.012.826-.69 1.442-.678.616-1.615.616-.95 0-1.627-.616-.678-.616-.678-1.43 0-.542.407-1.208.406-.665 1.898-.665zm-1.627-1.184v.925q-.444.259-.814.838-.37.58-.382 1.282 0 .826.684 1.67t2.14.906q1.442-.062 2.132-.906.69-.844.69-1.658-.012-.715-.381-1.3-.37-.586-.826-.845v-.912zm9.658.001a2.62 2.62 0 0 0-.234.013c-1.128.121-1.93 1.264-1.753 2.37.078.824.59 1.285 1.15 1.74 1.668 1.022 1.2.645 2.881 1.497l.27-.504c-2.001-.937-2.243-1.086-2.867-1.497-.511-.412-.916-.866-.88-1.555-.014-.475.27-.965.589-1.199.255-.192.582-.305.901-.305.241 0 .469.057.667.199.504.248.781 1.071.412 1.59a.979.979 0 0 1-.78.418.722.722 0 0 1-.427-.135c-.255-.142-.447-.639-.184-.915-.12-.128-.291-.284-.419-.284-.085 0-.149.064-.191.213-.284.681.17 1.455.851 1.64a1.3 1.3 0 0 0 .362.056c.78 0 1.505-.653 1.505-1.462.07-.944-.682-1.81-1.625-1.867a2.294 2.294 0 0 0-.228-.014zm14.405-10.742a.063.063 0 0 1 .02.004c-.075.12-.045.187.09.202.164-.045.194-.113.09-.202l.314.134c-.135.045-.27.068-.405.068a.358.358 0 0 1-.05.004.24.24 0 0 1-.197-.094c.051-.077.097-.116.138-.116zm.106-.11l-.042.001c-.15.015-.27.112-.359.292.135.122.273.182.413.182.016 0 .032 0 .048-.002.157-.015.325-.075.505-.18h.292v-.09h-.292c-.23-.135-.418-.203-.563-.204h-.002zm1.5-.033c.06 0 .085.03.076.09a.513.513 0 0 1-.135.27.676.676 0 0 1-.213.169.113.113 0 0 1-.04.011c-.023 0-.01-.03.04-.09.053-.065.064-.097.034-.097a.116.116 0 0 0-.034.007.118.118 0 0 1-.036.007c-.034 0-.033-.032.002-.097a1.64 1.64 0 0 1 .157-.236.475.475 0 0 1 .15-.034zm-.44.529c.074.044.09.086.044.123-.02.017-.038.025-.054.025-.019 0-.035-.012-.047-.036-.022-.045-.003-.083.056-.112zm.515-.683a.382.382 0 0 0-.111.02.6.6 0 0 0-.315.258c-.09.135-.112.232-.067.292-.09.045-.146.101-.169.169-.022.067.008.12.09.157a.129.129 0 0 0 .054.011c.078 0 .18-.06.306-.18.157-.15.258-.28.303-.393.045-.112.052-.202.022-.27-.018-.042-.055-.063-.108-.064h-.005zm-.377-1.043c.163 0 .35.025.558.074.54.127.812.404.82.831.007.427-.21.81-.652 1.146-.199.152-.32.228-.364.228-.054 0 .007-.114.185-.34.322-.412.434-.749.337-1.011-.065-.173-.225-.26-.482-.26-.133 0-.29.023-.473.069-.6-.165-.78-.348-.54-.55.143-.12.338-.183.586-.187h.025zm-1.998 2.51a.236.236 0 0 0 .017.07.76.76 0 0 1 .045.28c0 .112.071.18.213.202.062.01.13.015.203.015.097 0 .206-.009.325-.026.07.294.032.44-.113.44-.01 0-.021 0-.033-.002a.746.746 0 0 0-.096-.006c-.176 0-.432.051-.746.197l-2.617 1.914c.362-.845.679-1.566.936-2.155.407-.136.798-.338 1.19-.397.158-.024.083-.307.114-.484.04 0 .355-.031.562-.049zm.938-1.762h.012c.097.008.37.101.82.281.024.066.065.1.122.1a.333.333 0 0 0 .17-.066.502.502 0 0 1 .273-.09.42.42 0 0 1 .165.033c.142.06.16.195.056.405-.105.21-.243.386-.416.528-.172.142-.247.296-.225.46.023.165.124.285.304.36.045.27.168.494.37.674.203.18.551.382 1.045.607-.779 1.318-1.168 2.269-1.168 2.853 0 0 .04.202.093.484.083.444.195 1.087.221 1.448a.716.716 0 0 1-.09.427c-.138.227-.85.339-2.13.339-.082 0-.165 0-.25-.002-.677.069-1.417.103-2.22.103-.602 0-1.24-.02-1.915-.058.165-.494 1.026-.831 2.584-1.011 1.543 0 2.314-.457 2.314-1.37 0-.63-.337-1.64-1.011-3.034.869-.24 1.228-.501 1.078-.786.06-.42-.044-.644-.314-.674a1.072 1.072 0 0 1-.107.006c-.234 0-.37-.092-.41-.276.225-.09.307-.165.247-.224-.06-.06-.165-.098-.314-.113.104-.104.067-.202-.113-.292l.405-.629a.435.435 0 0 1 .27-.079c.17 0 .386.064.65.192.15-.015.11-.08-.123-.191a1.384 1.384 0 0 0-.685-.147c.1-.172.198-.258.292-.258zM111.873 0c-.16 0-.324.016-.491.046-.487.09-.925.442-1.315 1.056-.09.225-.307.554-.651.989-.058.187-.039.281.056.281h.011a.605.605 0 0 1 .043-.002c.083 0 .144.02.182.058-.05.037-.076.077-.08.12l-.555-.002c-.423.015-.893.205-1.362.567-1.178 1.012-1.745 2.2-1.73 3.545 0 .181.104.262.295.262a.876.876 0 0 0 .102-.007c.868-.378 2.645-1.103 3.249-1.448.339.58.508 1.485.508 2.715l-.944.18c-2.276.224-3.595.583-3.954 1.078-.494.284-.861 1.28-1.101 2.988-.36 1.798-1.034 2.734-2.022 2.808l-1.663.63-.157.292c.12.104.232.157.337.157l3.056-.157c.21-.69.625-1.547 1.246-2.573.622-1.026.866-1.936.73-2.73.285 1.019.547 2.337.787 3.955.045.389-.427.741-1.415 1.056-.45.03-.674.172-.674.427l2.314-.09c.509 0 .764-.203.764-.607-.165-.36-.184-1.093-.057-2.202.128-1.108-.01-2.007-.415-2.696l3.954-.157c1.288 0 1.932-.33 1.932-.989l-.112-2.202c0-.838.225-1.558.674-2.157l.472 2-.674 3.1a2.22 2.22 0 0 0-.281.596 3.012 3.012 0 0 0-.101.506c0 .12.034.28.101.482.067.203.109.394.124.573.03.045.06.075.09.09a.038.038 0 0 0 .017.005c.021 0 .038-.024.05-.072.034.034.062.051.083.051.026 0 .043-.025.052-.074.034.035.062.052.083.052.026 0 .044-.025.052-.074.024.024.048.036.071.036.007 0 .013 0 .019-.002.03-.008.044-.049.044-.124-.074-.24-.13-.43-.168-.573-.038-.142-.041-.356-.011-.64.015-.075.03-.112.045-.112.03 0 .06.022.09.067 0 .075-.008.18-.023.315a.572.572 0 0 0 .034.314c.023.047.05.07.083.07.02 0 .04-.008.063-.025.045-.015.056-.082.034-.202-.023-.12-.008-.292.044-.517.053-.225-.003-.464-.168-.719.689-.914 1.04-2.067 1.056-3.46-.075-.989-.27-1.82-.584-2.494a3.205 3.205 0 0 0-1.573-.831c-.39-.33-.33-.663.18-1 .509-.337.752-.771.73-1.303-.023-.532-.251-.884-.685-1.056a2.394 2.394 0 0 0-.89-.17zm-10.627 17.037c-.002.009 0 .02 0 .028h.056c-.016-.012-.04-.016-.056-.028z"/><path d="M110.056 13.309c.162 0 .328.05.472.128.33.179.65.52.96 1.024.312.504.688 1.406 1.13 2.706-.442-.594-.891-1.03-1.348-1.307-.949-.582-2.33-1.35-1.759-2.253a.617.617 0 0 1 .545-.298zm-.086-.507a.998.998 0 0 0-.855.437c-.342.5-.348.987-.169 1.35.179.362.403.645.671.847.268.202.666.466 1.194.791.527.325.918.683 1.172 1.074.254.39.56.624.918.699.151-.49.113-1.114-.113-1.872s-.443-1.386-.741-1.83c-.474-.704-.925-1.346-1.893-1.482a1.318 1.318 0 0 0-.184-.014zM121.688.455c.245.151.387.433.428.846-.176.138-.32.358-.428.661-.095-.303-.231-.523-.408-.66.041-.414.177-.696.408-.847zm1.305 1.094c-.258.358-.418.73-.48 1.116-.06.385-.335.633-.825.743-.49-.11-.761-.358-.815-.743a2.492 2.492 0 0 0-.47-1.116c.49 0 .796.2.918.6.123.357.245.536.367.536.136 0 .258-.179.367-.537.122-.399.435-.599.938-.599zm-4.77 1.983c.271.07.481.296.631.682-.136.193-.217.447-.245.764-.163-.261-.353-.44-.57-.537-.068-.4-.007-.702.183-.909zm6.911 0c.19.193.258.496.204.91-.217.082-.415.26-.591.536-.014-.317-.089-.571-.225-.764.136-.386.34-.613.612-.682zm-1.53.703c.476.124.728.399.755.826.014.372.082.571.204.599a.166.166 0 0 0 .048.007c.128 0 .281-.14.462-.42a.745.745 0 0 1 .673-.388c.112 0 .235.02.367.057a2.52 2.52 0 0 0-.744.95c-.146.333-.44.5-.884.5-.035 0-.07-.002-.106-.004-.448-.234-.648-.544-.6-.93a2.424 2.424 0 0 0-.174-1.197zm-3.853.02c-.15.4-.204.796-.163 1.188.041.393-.163.699-.612.92-.05.004-.1.006-.148.006-.42 0-.696-.164-.83-.492a2.258 2.258 0 0 0-.734-.94 1.36 1.36 0 0 1 .376-.059c.287 0 .508.123.664.369.187.291.34.437.459.437l.03-.003c.136-.042.21-.248.224-.62.014-.413.258-.682.734-.806zm1.917 8.37h.022c.352.003.71.082 1.075.238l-1.047 1.046-1.065-1.065a2.5 2.5 0 0 1 1.015-.22zm-2.261 1.37l1.055 1.056-1.046 1.046c-.304-.723-.308-1.424-.01-2.102zm4.537.047c.311.73.314 1.43.01 2.103l-1.056-1.056 1.046-1.047zm-.808-.884c.209.095.38.266.514.513l-1.437 1.437 1.408 1.427a1.12 1.12 0 0 1-.514.514l-1.417-1.418-1.38 1.38a1.172 1.172 0 0 1-.504-.524l1.37-1.37-1.456-1.455a.86.86 0 0 1 .533-.495l1.437 1.437 1.446-1.446zm-1.427 3.139l1.056 1.037a2.489 2.489 0 0 1-1.046.235 2.7 2.7 0 0 1-1.057-.226l1.047-1.046zM121.689 0c-.381 0-.653.4-.816 1.198a1.34 1.34 0 0 0-.329-.044.88.88 0 0 0-.61.23c-.162.11-.149.234.041.372.272.165.442.496.51.991.068.496.354.827.856.992V12.2a3.279 3.279 0 0 0-.421.062l-1.495-5.673c.435-.276.618-.665.55-1.167-.068-.503.014-.865.245-1.085.15-.18.123-.31-.081-.393a.836.836 0 0 0-.368-.086c-.176 0-.36.057-.55.169-.32-.648-.644-.971-.974-.971a.527.527 0 0 0-.147.02c-.367.097-.524.559-.47 1.385-.393 0-.679.137-.856.413-.136.151-.095.275.123.372.312.082.564.354.754.816.19.461.544.706 1.06.733l.02-.02 1.532 5.717c-.286.144-.54.34-.761.588-.54.603-.809 1.266-.809 1.989 0 .799.313 1.485.937 2.06.625.573 1.302.864 2.031.87.876-.013 1.59-.317 2.14-.913.553-.596.828-1.269.828-2.017l-.01.01c.007-.68-.265-1.333-.817-1.96a2.779 2.779 0 0 0-.71-.587l1.553-5.757c.516-.028.87-.272 1.06-.734.19-.461.442-.733.754-.816.218-.082.259-.206.123-.372-.163-.261-.442-.392-.836-.392.04-.826-.123-1.295-.49-1.405a.496.496 0 0 0-.126-.016c-.325 0-.65.329-.975.987a1.085 1.085 0 0 0-.56-.179.794.794 0 0 0-.378.096c-.19.07-.217.2-.081.393.23.22.313.578.245 1.074-.068.496.122.888.57 1.178l-1.511 5.682a2.832 2.832 0 0 0-.385-.067V3.739c.49-.165.768-.496.836-.992.068-.495.245-.826.53-.991.177-.138.184-.262.02-.372a.88.88 0 0 0-.609-.23 1.34 1.34 0 0 0-.328.044C122.354.4 122.082 0 121.688 0zm12.741.563c.688 0 1.25.112 1.689.338-.476.325-.757.719-.845 1.182-.087.462-.215.719-.384.769-.17.05-.316.081-.441.094a2.229 2.229 0 0 1-.45-.094c-.163-.05-.291-.307-.385-.77-.094-.462-.372-.856-.835-1.181.425-.226.976-.338 1.651-.338zm-2.684 3.498a2.361 2.361 0 0 1 .358.03c-.3.412-.423.828-.366 1.247.056.419.022.675-.103.77a2.273 2.273 0 0 1-.338.215 2.718 2.718 0 0 1-.43.047c-.155 0-.337-.178-.546-.535-.213-.363-.569-.619-1.07-.77.3-.312.739-.568 1.314-.768.435-.158.828-.236 1.18-.236zm5.37.027c.357 0 .762.082 1.217.246.588.2 1.031.457 1.332.77-.5.137-.857.39-1.07.76-.209.362-.39.543-.545.543h-.008a1.708 1.708 0 0 1-.422-.065 1.282 1.282 0 0 1-.357-.197c-.125-.094-.156-.35-.093-.77.062-.419-.057-.84-.357-1.266a2.07 2.07 0 0 1 .303-.021zm-2.706 8.79h.02c.336.002.678.078 1.025.226l-.997.997-1.015-1.015c.316-.14.639-.209.967-.209zm-2.155 1.305l1.006 1.006-.997.998c-.29-.69-.293-1.358-.01-2.004zm4.325.045c.296.695.299 1.363.009 2.004l-1.007-1.006.998-.998zm-.77-.843c.199.09.362.254.489.49l-1.37 1.369 1.342 1.36a1.068 1.068 0 0 1-.49.49l-1.35-1.352-1.315 1.315c-.23-.133-.39-.3-.48-.499l1.305-1.305-1.387-1.388a.819.819 0 0 1 .508-.471l1.369 1.369 1.378-1.378zm-1.36 2.992l1.005.988a2.37 2.37 0 0 1-.996.225c-.33 0-.666-.072-1.007-.216l.997-.997zM134.43 0c-.337 0-.816.066-1.435.197-.62.131-.929.39-.929.779 0 .162.056.294.169.394.425 0 .732.36.92 1.079.187.719.525 1.078 1.012 1.078v8.94c-.15.01-.296.03-.435.058l-2.004-5.79c.388-.15.554-.556.498-1.219-.057-.663.103-1.057.478-1.182a.488.488 0 0 0 0-.375c-.094-.28-.343-.42-.747-.42-.082 0-.171.005-.266.017-.563.068-.988.153-1.276.253-.3.112-.691.312-1.173.6-.481.288-.666.6-.553.938a.46.46 0 0 0 .244.282.649.649 0 0 1 .206-.035c.305 0 .609.227.91.682.29.438.595.658.913.658a.757.757 0 0 0 .26-.048l-.019.019 1.997 5.786c-.326.142-.61.349-.854.621-.514.575-.771 1.206-.771 1.895 0 .762.298 1.416.893 1.963.595.547 1.24.824 1.936.83.834-.012 1.514-.302 2.04-.87.526-.569.788-1.21.788-1.923l-.008.01c.006-.647-.254-1.27-.78-1.868a2.616 2.616 0 0 0-.758-.604l2.009-5.803-.019-.019c.09.032.18.048.267.048.324 0 .63-.219.915-.657.296-.455.597-.682.901-.682.069 0 .137.011.206.034a.403.403 0 0 0 .244-.3c.125-.325-.056-.635-.544-.929-.488-.294-.882-.49-1.182-.59-.275-.1-.697-.185-1.267-.254a2.32 2.32 0 0 0-.277-.018c-.404 0-.652.134-.745.402a.48.48 0 0 0 .019.395c.362.125.516.519.46 1.182-.057.662.109 1.063.497 1.2l-2.011 5.79a2.71 2.71 0 0 0-.429-.072V3.527c.476 0 .807-.36.995-1.078.187-.72.494-1.08.919-1.08.113-.1.17-.23.17-.393 0-.388-.314-.648-.94-.78C135.25.067 134.769 0 134.43 0zm9.707 0a.501.501 0 0 0-.473.308l-1.378 2.395c-.16.327.142.685.463.685a.42.42 0 0 0 .235-.072l1.146-1.857 1.008 1.716v14.33c-.022.295.248.495.51.495a.433.433 0 0 0 .371-.193l.097-14.631 1.008-1.717c.34.58.666 1.168 1.013 1.743.09.124.23.18.371.18.213 0 .429-.128.481-.35a.49.49 0 0 0 .02-.12c-.02-.284-1.105-2.07-1.493-2.724a.453.453 0 0 0-.378-.188.5.5 0 0 0-.471.305l-1.04 1.77-1.115-1.89a.452.452 0 0 0-.375-.185zm9.045 2.08q.94.152 1.147 1.19.208 1.038-.71 3.07.983 2.6-.262 4.5.655 2.163-.219 4.435.066 1.223-.153 1.234h-.004q-.216 0-.367-1.081-1.245-2.622-.087-4.741-1.027-2.447.153-4.37-.896-2.01-.841-3.014.054-1.005 1.343-1.223zM153.13 0q-.235 0-.45.55-.153.525.109.918-3.037.72-.896 4.762-1.398 2.098-.11 4.457-1.506 1.922.241 4.806.197 1.092.448 1.442.251.35.885.765.445.3.624.3.172 0 .097-.279-.612-1.42-.48-2.25 1.375-2.512.48-4.784 1.332-2.228.175-4.391 2.206-3.583-.678-4.828.175-.612-.043-1.092Q153.324 0 153.13 0z"/><path d="M159.383 2.08q.94.152 1.147 1.19.207 1.038-.71 3.07.983 2.6-.262 4.5.655 2.163-.219 4.435.066 1.223-.153 1.234h-.004q-.216 0-.367-1.081-1.245-2.622-.088-4.741-1.026-2.447.153-4.37-.895-2.01-.84-3.014.054-1.005 1.343-1.223zM159.33 0q-.235 0-.45.55-.154.525.109.918-3.037.72-.896 4.762-1.398 2.098-.11 4.457-1.507 1.922.241 4.806.197 1.092.448 1.442.251.35.885.765.445.3.623.3.173 0 .098-.279-.612-1.42-.481-2.25 1.376-2.512.48-4.784 1.333-2.228.175-4.391 2.207-3.583-.677-4.828.175-.612-.044-1.092Q159.524 0 159.33 0zm8.477.47l-.296.673q.632.128.901 1.27l1.022-.261v.638l-.995.283q.007.941-.181 1.768-.195.827-.881 1.07-.343.117-.69.117-.346 0-.695-.118-.7-.242-.888-1.069-.195-.827-.175-1.768l-.995-.283v-.638l1.015.262q.27-1.143.908-1.27l-.31-.673zm-2.73-.47q-.242 0-.033.47l.181.41q-.538.344-.672.949l-1.143-.343v1.701l1.075.31q0 .968.276 1.936.283.968 1.916 1.183 1.634-.215 1.924-1.183.282-.968.282-1.937l1.076-.309V1.486l-1.157.343q-.134-.605-.672-.948l.181-.41q.216-.471-.033-.471zm1.2 7.945v4.861h.814V7.945zm-.229 6.566c.12 0 .244.037.351.095.246.134.484.387.715.762.231.375.511 1.046.84 2.012-.329-.441-.663-.765-1.003-.972-.705-.432-1.732-1.004-1.308-1.675.1-.16.25-.222.405-.222zm-.064-.377a.742.742 0 0 0-.635.325c-.255.373-.26.734-.126 1.004.133.27.3.48.499.63.2.15.495.347.888.588.392.242.682.508.872.799.189.29.416.464.683.52.112-.364.084-.828-.085-1.392-.168-.564-.33-1.031-.551-1.36-.352-.525-.688-1.002-1.408-1.104a.98.98 0 0 0-.137-.01zm9.32-13.535v1.307h-.909V.599zm0 1.606v5.708h-.909V2.205zm0 6.007v1.197h-.909V8.212zm-1.975-.047c.16 0 .334.046.467.068v1.309c-.139.017-.317.066-.478.066-.14 0-.268-.037-.349-.162-.051-.091-.1-.267-.1-.559 0-.291.049-.467.1-.558.08-.126.215-.164.36-.164zm1.975 1.543v6.152h-.909V9.708zm0 6.45v1.243h-.909v-1.242zM173.796 0v7.252l-1.413-1.416-.424.423 1.306 1.31c-.792.078-.973.62-.996 1.318.02.745.188 1.203.996 1.319l-1.306 1.31.424.422 1.413-1.416V18h2.108V0zm4.916.267l.051.002q.342.025.74.26-.406.253-.744.273l-.042.001q-.295 0-.287-.274-.008-.262.282-.262zm0 1.619l.051.002q.342.024.74.268-.406.244-.744.264l-.043.002q-.294 0-.286-.266-.008-.27.283-.27zM178.683 0h-.045q-.435.017-.492.53.073.548.474.548h.006q.407-.004 1.147-.296h4.709q.577.048.581.54.005.493-.581.59h-4.701q-.68-.29-1.108-.29l-.035.001q-.435.013-.492.533.073.541.474.541h.006q.407-.004 1.147-.289h1.96q-1.009 1.342-1.692 2.359-.333.26-.56.317-.099.057-.643.098-.472.032-.472.162l.008.008q0 .09 1.033.122.122-.048.309-.048.3.04.382.04h.008q.171 0 .252-.097.082 0 .122-.383 0-.097.63-.809.631-.711.72-1.053 0-.09.35-.13.09 0 .557.549.468.549.956 1.354 0 .032-.122.049-.293.195-.48.22-.626.105-.626.235v.016q0 .05.716.066l.536-.05.562.05q.187-.025.187-.155 0-.138-.13-.317-.26-.326-.53-.854-.577-1.204-1.146-1.472-.236-.269-.358-.285h1.946q.849 0 1.165-.525.321-.532 0-1.069-.307-.513-1.117-.513h-4.515Q179.108 0 178.682 0zm3.177 7.492l-1.12-1.13-.404.362 1.141 1.148-1.148 1.142.38.383 1.149-1.142 1.141 1.149.383-.38-1.12-1.196 1.127-1.095-.38-.383-1.149 1.142zm2.909 3.311c.409.017.633.026.73.026h.043l-.053 2.135a3.132 3.132 0 0 1-.812-.483l.092-1.678zm-5.956-.532c-.136.027-.316.11-.294.273v1.19a22.764 22.764 0 0 0-.615-.026c0 .149.123.351.505.351.004.338.066.751.127.962l.053.553c0 .062.105.08.22.08.136 0 .285-.027.285-.027l-.022-.553c2.17.017 6.308.127 6.514.127.105 0 .176-.114.176-.272l.052-2.385-1.304-.014-.106 1.858c-.944.005-2.578.159-3.69.159-.35 0-.654-.014-.86-.057-.044-.049-.453-.642-.712-.708a1.14 1.14 0 0 0-.153-.017c-.044-.36-.088-.72-.128-1.076.08-.101.26-.075.308-.211.048-.066.017-.176-.075-.18a.999.999 0 0 0-.26-.027zm1.487 4.502v.244h-1.29v-.244zm-.65.48q.81 0 1.118.413.31.412.31.74-.008.51-.428.892t-1 .382q-.587 0-1.006-.382-.42-.381-.42-.885 0-.335.252-.747t1.175-.412zm-1.006-.732v.572q-.275.16-.504.52-.229.358-.236.793 0 .51.423 1.033.423.523 1.324.561.892-.038 1.32-.56.427-.523.427-1.027-.008-.442-.237-.805-.229-.362-.51-.522v-.565zm5.744 1.199c.079 0 .16.025.23.063.16.087.315.253.466.498.151.245.334.683.55 1.314-.216-.288-.434-.5-.656-.635-.46-.282-1.132-.656-.854-1.094a.3.3 0 0 1 .264-.145zm-.042-.245a.485.485 0 0 0-.415.212c-.166.243-.169.48-.082.656.087.176.196.313.326.411a7.7 7.7 0 0 0 .58.385c.256.158.446.331.57.521.123.19.272.303.446.34.073-.238.055-.541-.055-.91-.11-.368-.216-.673-.36-.888-.23-.342-.45-.654-.92-.72a.64.64 0 0 0-.09-.007zM189.32 0v3.653h.366V0zm2.173 0v3.653h.365V0zm2.171 0v3.653h.366V0zm2.172 0v3.653h.365V0zm-8.022 4.978v3.653h.366V4.978zm2.172 0v3.653h.365V4.978zm6.464-.043v.28h-1.477v-.28zm-.743.55q.926 0 1.28.472t.354.848q-.009.585-.49 1.022-.48.437-1.144.437-.673 0-1.154-.437-.48-.437-.48-1.014 0-.384.288-.856t1.346-.472zm-1.154-.839v.656q-.314.183-.576.594-.262.41-.271.909 0 .585.485 1.184.485.598 1.516.642 1.022-.044 1.511-.642.49-.599.49-1.176-.01-.506-.271-.921-.262-.415-.586-.599v-.647zm2.276 5.435q-1.417 1.926-4.077 1.978-2.642-.052-4.059-1.978zm-9.015-.456q1.452 2.902 4.938 2.914 3.504-.012 4.956-2.914zm2.17 6.473c.534 0 1.202.274 1.525.597.283.283.32.658.33 1.006h-3.694c.01-.348.047-.723.33-1.006.323-.323.975-.597 1.509-.597zm0-.299c-.633 0-1.314.293-1.714.692-.41.41-.456.948-.456 1.352V18h4.34v-.157c0-.404-.031-.943-.44-1.352-.4-.4-1.097-.692-1.73-.692zm5.454-1.925q.403 0 .822.176l-.796.806-.817-.806q.388-.176.79-.176zm-1.743 1.055l.807.806-.807.807q-.351-.838 0-1.613zm3.485.041q.352.838 0 1.613l-.806-.806.806-.807zm-.63-.682q.248.113.392.393l-1.096 1.106 1.086 1.086q-.134.269-.403.393l-1.086-1.086-1.065 1.065q-.269-.165-.393-.403l1.065-1.055-1.117-1.117q.114-.269.403-.382l1.107 1.106 1.106-1.106zm-1.086 2.399l.806.806q-.393.176-.796.176t-.817-.176l.807-.806zm-.021-3.154q-1.065 0-1.68.693-.616.692-.616 1.52 0 .93.719 1.587.719.657 1.556.667 1.014-.01 1.65-.698.636-.688.636-1.556l-.01.02q.01-.786-.626-1.51-.636-.723-1.629-.723zM202.532 0c-.12 0-.238.005-.357.016l-.056-.001c-1.34 0-2.495 1.293-2.397 2.622-.072 1.044.145 2.077.203 3.116.091.175.258.25.434.25a.74.74 0 0 0 .607-.327c.315-.44.176-1.01.047-1.491-.141-.857-.193-1.812.278-2.581.304-.407.803-.61 1.302-.61.543 0 1.085.241 1.372.722.46.674.336 1.655-.254 2.212-.568.673-1.422 1.117-1.787 1.951-.232.841-.037 1.718-.115 2.574-.075 3.123-.114 6.246-.173 9.37.16.135.35.16.547.16.115 0 .232-.009.347-.009.094 0 .186.006.274.026.425-.218.391-.764.36-1.168-.15-3.276-.041-6.556-.123-9.833.009-.374-.112-.803.282-1.016.786-.763 1.623-1.523 2.106-2.525.491-1.455-.609-3.197-2.132-3.382a3.782 3.782 0 0 0-.765-.076zm8.428.358q.116 0 .24.053.278.118.278 1.872v1.679h-3.15q1.217-1.67 1.67-2.523.452-.854.688-1 .13-.08.274-.08zM210.826 0h-.05q-.448.01-1.01 1.095-.56 1.084-2.22 3.235h4.3l-.01-2.415q-.046-1.613-.33-1.768-.266-.147-.68-.147zm4.207 2.087L213.72.762l-.474.424 1.34 1.347-1.348 1.34.446.449 1.348-1.34 1.34 1.348.448-.447-1.314-1.402 1.323-1.285-.447-.449-1.348 1.34zm.567 3.885c.48.02.743.03.856.03h.052l-.062 2.505a3.675 3.675 0 0 1-.953-.567l.108-1.968zm-6.988-.624c-.16.031-.371.129-.345.32v1.396c-.31-.015-.629-.03-.722-.03 0 .175.145.412.593.412.005.397.077.881.15 1.128l.061.65c0 .072.124.093.258.093.16 0 .335-.031.335-.031l-.026-.65c2.546.02 7.401.15 7.644.15.123 0 .206-.134.206-.32l.062-2.798-1.531-.016-.124 2.18c-1.108.005-3.025.186-4.33.186-.412 0-.767-.016-1.01-.067-.05-.057-.53-.753-.834-.83a1.337 1.337 0 0 0-.18-.02c-.052-.423-.104-.846-.15-1.263.093-.119.304-.088.36-.248.057-.077.021-.206-.087-.211-.062-.026-.232-.031-.304-.031zm4.335 5.282v.287h-1.513v-.287zm-.76.564q.948 0 1.31.483.363.484.363.869-.009.6-.5 1.047-.493.448-1.174.448-.689 0-1.181-.448-.493-.447-.493-1.038 0-.394.296-.878.295-.483 1.378-.483zm-1.182-.86v.672q-.322.188-.591.609-.269.42-.278.93 0 .6.497 1.214.497.613 1.553.658 1.048-.045 1.549-.658.501-.613.501-1.204-.009-.52-.277-.945-.269-.425-.6-.613v-.662zm-2.621 6.39q-.053 0-.103.017-.195.063-.172.19.02.106.175.106.028 0 .06-.003.213-.023.374-.173-.18-.137-.334-.137zm.1-.116q.415 0 1.281.495.435.225.953.225.25 0 .52-.053.678-.138 1.426-.241.254-.035.492-.035.462 0 .865.133.61.2 1.012.258.403.058 1.277.104-.564.057-1.104.057-.54 0-1.277-.12-.368-.06-.709-.06-.34 0-.654.06-.627.12-1.426.224-.2.026-.393.026-.58 0-1.097-.233-.502-.343-1.044-.343-.239 0-.486.067-.218-.012-.195-.242.126-.31.54-.322h.02zm.308-1.173q-.25 0-.465.76-.18-.671-.464-.671-.043 0-.088.015-.345.218.23.84-.46.264-.46.666 0 .403.679.449.21-.055.41-.055.469 0 .884.302.355.259 1.127.259.514 0 1.214-.115.859-.242 1.67-.242.307 0 .607.035.751.087 1.28.087.24 0 .434-.018.978-.023.978-.184-.265-.242-.748-.322-1.024-.012-1.87-.357-.422-.172-1.036-.172-.614 0-1.419.172-.52.131-.967.131-.613 0-1.092-.246-.494-.299-1.047-.494.46-.357.432-.593-.029-.235-.282-.247h-.007z"/></svg>