<svg xmlns="http://www.w3.org/2000/svg" width="96.077" height="18"><path d="M12.938 8.519c1.02 1.145 1.864 2.453 2.617 3.781.158.195-.02.374-.15.559-.496-1.575-1.637-2.79-2.467-4.34zm-.987-5.783c.085.396-.071.854-.372.989l.096.205c.376-.178.737-.713.79-1.193.514.03.654.417.735.865.096.307-.002 1.05.386 1.179 1.147.444 2.024.957 2.81 1.734 1.359 1.698 2.778 3.342 4.136 5.042a69.07 69.07 0 0 0 1.401 1.725c-2.062-1.542-4.366-2.72-6.626-3.946-1.202-.652-2.348-1.186-2.348-2.623 0-.773 1.424-1.42 1.366-1.521-.005-.01-.022-.013-.048-.013-.292 0-1.789.555-1.789 1.725 0 .324.087.625.238.905h-.007c-1.641-.87-1.38-2.63-1.317-4.18-.682-.038-1.244-.41-1.892-.565.503-.065 1.003-.15 1.507-.201a.4.4 0 0 0-.238.15c-.009.166.178.239.36.239.179 0 .352-.07.335-.19a.457.457 0 0 0-.39-.206c.25-.036.584-.09.867-.12zm2.867 9.977c.147.357.224.736.307 1.11.239-.193.47-.392.667-.628-.128.694-.366 1.395-.945 1.395-.35 0-.512-.237-.288-.954.106-.338.19-.66.26-.923zm-.628-3.438c2.34 1.247 4.658 2.506 6.872 3.969.52.422.985.893 1.3 1.334-.209.324-.606.435-.973.46-1.874-.066-2.607-1.872-3.597-3.162l-.538-.654.093.838c.006.15.16.864-.07.864a.17.17 0 0 1-.067-.016l-.947-1.134c-.101.067-.197.143-.301.205-.47-.95-1.157-1.836-1.772-2.704zM12.17 2.25c-.492 0-.996.088-1.474.133-.57.278-1.147.066-1.745.283-.431.194-.552.587-.731.98.254-.085.486-.12.704-.12.697 0 1.257.351 1.993.538-.001.37-.059.788-.087 1.21-.114 1.145.49 2.15 1.361 2.865.625 1.39 1.489 2.457 2.12 3.542-.076.488-.53 2.327-.753 2.988a8.341 8.341 0 0 1-1.365.115 7.003 7.003 0 0 1-.593-.024c-.355 0-.744.606-1.127.93l7.772.06c-.198-.7-1.58-1.072-2.07-1.072a.685.685 0 0 0-.075.003c.173-.495.389-.96.45-1.653.217.195.46.404.764.426.371-.028.522-.281.569-.612.84 1.39 1.781 2.526 3.506 2.693.596-.029 1.339-.29 1.5-.923.79-.044.21-.815-.083-1.116-2.151-2.33-3.927-4.988-6.053-7.334-.819-.808-1.743-1.354-2.888-1.807-.085-.21-.113-.507-.169-.835-.06-.357-.251-.942-.6-1.124a2.667 2.667 0 0 0-.926-.146zm10.469.446c.796 0 1.792.408 2.275.89.421.422.477.982.492 1.501h-5.51c.015-.52.07-1.079.492-1.5.482-.483 1.455-.891 2.25-.891zm0-.446c-.944 0-1.96.436-2.556 1.032-.61.61-.68 1.415-.68 2.016v.235h6.472v-.235c0-.601-.046-1.405-.657-2.016-.595-.596-1.635-1.032-2.58-1.032zm9.505 3.975q.216 0 .299.216-.106-.042-.182-.042-.16 0-.183.191-.032.34-.183.34h-.008q-.157-.008-.224-.14 0-.1.25-.332.115-.233.231-.233zm.238.297q.06 0 .06.085-.03.334-.255.334-.02 0-.043-.003v-.033l.067-.149q.015-.233.133-.233h.016l.022-.001zm-1.477.188q-.15 0-.278.087-.157.108-.091.374h.066q.017-.166.1-.274.083-.108.273-.108.191 0 .191-.05l-.19-.024q-.036-.005-.071-.005zm-.004.146q-.2 0-.2.281v.1q.017.003.031.003.056 0 .07-.053.281-.066.414-.232-.116-.1-.315-.1zm-.299.43q-.083.117-.016.29.066.175.829.241l.116-.05q-.962-.066-.862-.447l-.067-.033zm1.078-.795q-.215.149-.166.381.033.1.2.166.148.066.115.348.033.614-.514.945-.083-.199-.323-.215l-.045-.002q-.205 0-.295.143-.07.11-.165.11-.04 0-.084-.02-.027.008-.05.008-.151 0-.165-.272.166-.017.232-.067t.249-.116q-.081-.092-.166-.092-.037 0-.075.018-.124.058-.257.09-.282-.049-.215-.281-.166-.183-.117-.315.365-.232.606-.44.24-.207.539-.248.298-.042.696-.141zm.978-.15q.432.034.912.49.481.456.564.937-.895 1.31-2.537 2.089-.066-.697.232-1.393.548-.497.481-.837-.066-.34.216-.456.63-.116.132-.83zm6.084 2.801l.052.002q.746.133 1.36.671.613.54.878 1.335.05.083-.364.083-1.742-.73-2.206-1.476-.205-.615.28-.615zm-4.425-.827q1.033.99 2.634.99.275 0 .566-.028.03-.01.057-.01.241 0 .241.805-1.641.73-2.586.796-.28.02-.568.02-.685 0-1.414-.11-.157-.025-.292-.025-.752 0-.794.746-.696-.83-.498-1.128 1.642-.73 2.654-2.056zM32.297 5.9l-.078.001q-.754.025-.804.307-.299.116-.556.19-.257.075-.48.274-.224.2-.498.357-.274.157-.323.273-.083.183.149.398 0 .183.166.299.033 0 .074.282.042.281.307.414.332-.05.431-.19.085-.12.217-.12.024 0 .048.003.166.025.25.274-.067.249-.191.879-.125.63 0 .928.124.299-.44.672-.43.285-1.178.285-.233 0-.497-.028-.575-.16-.925-.16-.376 0-.492.185-.224.356.041.622h.647q1.488.053 2.52.053 2.488 0 2.33-.31-.18-.353.293-.353.116 0 .27.021.245.033.536.033.65 0 1.537-.166 1.286-.24 1.675-.447.25-.133.54-.133.164 0 .34.041.488.117.588.415-.216.398-.753.398-.245 0-.557-.083-.522-.14-.857-.14-.303 0-.453.115-.315.24-.033.572h5.389q.547-.497.232-1.152-.315-.655-1.061-1.244-.746-.588-1.642-1.07.234-.204.452-.204.276 0 .526.329.263.345.446.345.129 0 .218-.17-.591-1.058-1.233-1.058-.043 0-.086.004-.688.075-1.251.771-.683.172-1.273.172-1.285 0-2.127-.818-.464-1.178-1.11-1.634-.614-.432-1.324-.432zm12.637-2.807q1.51.22 1.579 1.382v8.382q-.706-.843-2.536-1.184l.957-8.58zm-.426-.843l-1.131 10.022q2.52.289 3.136 1.8v1.678h.752V4.475q0-1.883-2.757-2.225zm13.836.59l.18.075-5.404 12.034c-.091-.06-.605-.312-.773-.507 0-.13.092-.219.36-.576.281-.375.58-.766.24-1.269-.158-.232-.374-.401-.654-.401-.175 0-.374.065-.6.221-.47-.28-.925-.42-1.666-.42-.13-1.141-.275-1.861-.435-2.762h5.359l3.393-6.395zm-.012-.59a.992.992 0 0 0-.093.004L54.8 8.38c-.12.2-.245.3-.375.3a.349.349 0 0 1-.045.003c-.505 0-1.936-.922-4.294-2.765-.54-.56-.82-1.12-.84-1.681-.02-.56.147-.88.502-.961.108-.024.204-.036.29-.036.2 0 .344.064.43.194.126.185.119.37-.022.555-.07.093-.133.139-.191.139-.058 0-.109-.046-.154-.139-.09-.185-.185-.278-.285-.278-.19.07-.235.236-.135.496.093.241.263.362.512.362.019 0 .038 0 .058-.002.28-.02.476-.115.586-.285.11-.17.165-.37.165-.6a.88.88 0 0 0-.225-.601c-.15-.17-.368-.278-.653-.323a1.027 1.027 0 0 0-.16-.013c-.233 0-.464.08-.696.238-.285.195-.45.516-.495.961-.045.445.077.936.367 1.471.29.536.814 1.074 1.57 1.614.755.54 1.473 1.056 2.153 1.546.016.064-.019.096-.105.096a.533.533 0 0 1-.075-.006H48.84c.32 1.832.516 3.128.586 3.888.09-.006.179-.01.268-.01.701 0 1.402.209 2.103.626.15-.2.313-.3.488-.3.176 0 .266.095.27.285-.305.488-.753.961-.908 1.516l1.682 1.081 5.72-13.105c-.182-.263-.421-.395-.718-.395zm8.211 0c-.105 0-.21.013-.316.039-.212.052-.442.17-.69.354H60.55v1.103h4.988c.248.184.478.302.69.354a1.324 1.324 0 0 0 .63 0c.207-.052.415-.17.623-.354h.192c.2.184.406.302.617.354a1.33 1.33 0 0 0 .636 0c.212-.052.438-.17.677-.354h5.036V2.643h-5.036c-.24-.184-.465-.302-.677-.354a1.33 1.33 0 0 0-.636 0 1.42 1.42 0 0 0-.617.354h-.192a1.508 1.508 0 0 0-.624-.354 1.287 1.287 0 0 0-.313-.039zm-1.853 7.921v.422h-2.228v-.422zm-1.12.831q1.397 0 1.931.712.535.713.535 1.28-.014.883-.739 1.543-.725.66-1.728.66-1.015 0-1.74-.66-.726-.66-.726-1.53 0-.58.435-1.293.436-.712 2.031-.712zm-1.741-1.266v.99q-.475.276-.87.896-.397.62-.41 1.372 0 .883.732 1.787.732.903 2.288.969 1.543-.066 2.282-.97.738-.903.738-1.773-.013-.765-.408-1.391-.396-.627-.884-.904v-.976zm9.535 3.143c.805 0 1.814.414 2.302.902.426.426.482.992.498 1.518h-5.576c.015-.526.071-1.092.498-1.518.488-.488 1.472-.902 2.278-.902zm0-.451c-.956 0-1.984.441-2.586 1.044-.619.618-.689 1.432-.689 2.04v.238h6.55v-.237c0-.61-.047-1.423-.665-2.04-.603-.604-1.654-1.045-2.61-1.045zm10.619-9.796c.749 0 1.417.346 1.851.888h-3.703a2.368 2.368 0 0 1 1.852-.888zm2.102 1.27c.143.272.234.575.262.897h-4.729a2.36 2.36 0 0 1 .263-.897zm.264 1.28a2.36 2.36 0 0 1-.248.896h-4.236a2.361 2.361 0 0 1-.249-.897zm-.49 1.279a2.368 2.368 0 0 1-1.876.918 2.37 2.37 0 0 1-1.876-.918zM81.982 2.25a2.76 2.76 0 0 0-2.756 2.756 2.759 2.759 0 0 0 2.756 2.755 2.76 2.76 0 0 0 2.755-2.755 2.76 2.76 0 0 0-2.755-2.756zm-3.725 9.056l-.753 3.395-.715-.332 1.468-3.063zm9.13-2.286c-.015 0-.03 0-.044.002-.106.01-.23.052-.37.115-.775.98-1.35 2.194-1.723 3.637-.429.072-1.442.515-3.025 1.327a.705.705 0 0 1-.247.039 2.25 2.25 0 0 1-.659-.128 1.002 1.002 0 0 0-.307-.042c-.085 0-.173.006-.267.016l-.332.102-2.143-3.496-2.132 4.275.294.102.14-.294.128.051-.14.358.204.076.14-.332.153.077-.127.344.23.09.114-.345.179.09-.077.344.243.115.855-3.93 1.595 2.577-.37.102-.383.115c.01.106.03.183.077.243.047.059.131.094.242.102.11.008.163.034.179.09.07.239.156.45.255.612.078.127.17.19.274.19a.295.295 0 0 0 .083-.012c.15-.046.301-.086.447-.14l.15.225c.016.023.043.033.074.033.109 0 .272-.119.22-.2l-.138-.211c.302-.13.59-.292.88-.447.988-.144 1.857-.366 2.591-.663.734-.297 1.24-.615 1.519-.957.079-.045.422-.632 1.02-1.749.6-1.116.776-1.881.536-2.31a.36.36 0 0 0-.114-.127.407.407 0 0 0-.225-.066z"/><path d="M8.22.375c-9.625 0-9.625 17.25 0 17.25m0-17.25h79.607M8.22 17.625h79.607M95.515.375v17.25M87.827.375c9.625 0 9.625 17.25 0 17.25" fill="none" stroke="#000"/></svg>