<svg xmlns="http://www.w3.org/2000/svg" width="62.665" height="18"><path d="M10.09 2.25q-.248 0-.27.218l.24-.053q.15 0 .082.158-.173.165-.052.488-.22.475-.848.475l-.076-.002q.03.353-.15.533-.63.36-.63.66.495.234.164.571-.33.338-.33.458.218.068.3.233.376.916.759 1.3l-.03.307q.368 0 .405-.39-.69-.841-.668-1.795.03-.954 1.209-1.877.338-.188.338-.728 0-.556-.443-.556zm4.505 0q-.443 0-.443.556 0 .54.322.728 1.194.923 1.224 1.877.023.954-.683 1.795.053.39.406.39l-.023-.308q.375-.383.758-1.299.09-.165.293-.233 0-.12-.323-.458-.323-.337.165-.57 0-.3-.623-.661-.18-.18-.165-.533l-.075.002q-.614 0-.833-.475.112-.323-.053-.488-.068-.158.083-.158l.24.053q-.023-.218-.27-.218zm-2.257 4.115q.883 0 1.769.675.69.586.082 1.344H10.48q-.608-.758.098-1.344.878-.675 1.76-.675zM9.684 8.64Q8.64 9.856 8.64 10.494q.083.368.323.368.316 0 .406-.285 0-.946.405-1.585l-.09-.352zm5.316 0l-.09.352q.405.639.405 1.585.083.285.406.285.233 0 .323-.368 0-.638-1.044-1.854zm-3.289.135q.488 0 .488.518v3.912q-1.531 0-1.734-.984-.203-.984-.023-3.446zm2.508 0q.203 2.462-.007 3.446-.21.984-1.742.984V9.293q0-.518.488-.518zm-1.99-4.182v.27q0 .188-.15.188-.232 0-.555-.27h-.166l.519.975-.166.053q-.27-.353-.54-.728-.042-.02-.075-.02-.082 0-.098.125l.406.706q-.286.232-.286.405-.45 0-.676.353-.653.458-.653 1.014 0 .42.27.96-.187 1.044-.187 2.629 0 1.043.36 1.674.368.63 2.103.63 1.734 0 2.094-.63.368-.63.368-1.674.015-1.585-.172-2.613.27-.556.27-.976 0-.556-.66-1.014-.234-.353-.67-.353 0-.173-.307-.405l.406-.706q0-.124-.078-.124-.03 0-.073.019-.27.375-.54.728l-.165-.053.503-.976h-.15q-.338.27-.579.27-.127 0-.127-.187v-.27zm-2.967 6.621l-.028.001q-.879 1.554-.879 2.448 0 .893.308 1.434.315.54.856.653-.728-.976-.728-1.562 0-.578.135-.946.12 1.029.54 1.45-.187-.827-.172-1.743.007-.923.308-1.374.014-.36-.34-.36zm6.16 0q-.354 0-.34.361.286.45.301 1.374.015.916-.165 1.742.42-.42.54-1.449.136.368.136.946 0 .586-.729 1.562.54-.113.841-.653.308-.54.308-1.434 0-.894-.863-2.448h-.03zm14.821-3.326q-.3.3-.3 1.104 0 .82.3 1.12h-9.935q.3-.3.3-1.12 0-.803-.3-1.104zm-11.859-.62q-.435 0-.418.285-.017.335.418.335h1.087q.402.3.402 1.104 0 .82-.402 1.12h-1.07q-.452 0-.452.285 0 .334.435.334h13.783q.418 0 .418-.334 0-.285-.435-.285h-1.07q-.402-.3-.402-1.12 0-.803.402-1.104h1.087q.418 0 .418-.335 0-.284-.418-.284zm18.472 4.536l.288 3.237h-.576l.288-3.237zm.022-7.382l1.862 10.619h-1.197l-.576-4.656h-.2l-.576 4.656H34.95l1.928-10.619zm-.11-2.172l-2.683 13.5h5.542l-2.66-13.5zm10.574 1.01a.039.039 0 0 1 .012.001c-.046.074-.027.115.056.125.101-.028.12-.07.055-.125l.194.083a.784.784 0 0 1-.25.042.22.22 0 0 1-.03.002c-.05 0-.09-.02-.122-.058.032-.047.06-.07.085-.07zm.066-.07a.26.26 0 0 0-.026.002c-.092.009-.166.069-.221.18a.38.38 0 0 0 .283.11.77.77 0 0 0 .312-.11h.18v-.056h-.18c-.143-.083-.258-.125-.347-.125h-.001zm.924-.02c.036 0 .052.02.046.056a.316.316 0 0 1-.083.166.416.416 0 0 1-.131.104.07.07 0 0 1-.024.008c-.015 0-.007-.019.024-.056.032-.04.04-.06.02-.06a.071.071 0 0 0-.02.004.073.073 0 0 1-.022.005c-.021 0-.02-.02.001-.06a.99.99 0 0 1 .097-.145.293.293 0 0 1 .092-.021zm-.272.326c.046.028.055.053.028.076-.013.01-.024.016-.034.016-.011 0-.021-.007-.029-.023-.013-.027-.002-.05.035-.069zm.318-.42a.235.235 0 0 0-.069.012.37.37 0 0 0-.194.16c-.055.082-.069.142-.041.18-.055.027-.09.061-.104.103-.014.041.005.074.055.097a.08.08 0 0 0 .034.007c.048 0 .11-.037.188-.111a.758.758 0 0 0 .187-.242c.027-.07.032-.125.013-.166-.011-.026-.033-.04-.067-.04h-.002zm-.233-.642c.101 0 .216.015.344.045.332.079.5.25.505.512.005.263-.13.498-.401.706-.123.093-.197.14-.225.14-.033 0 .005-.07.114-.21.198-.253.268-.46.208-.622-.04-.107-.139-.16-.297-.16a1.23 1.23 0 0 0-.291.042c-.37-.101-.48-.214-.332-.339a.556.556 0 0 1 .375-.114zm-1.23 1.545c0 .013.004.027.01.043a.469.469 0 0 1 .028.173c0 .07.044.11.131.125.038.006.08.009.125.009a1.5 1.5 0 0 0 .2-.016c.044.18.02.27-.07.27h-.02a.46.46 0 0 0-.059-.004c-.108 0-.266.031-.46.121l-1.61 1.18c.223-.522.418-.966.576-1.328.251-.084.492-.208.734-.245.097-.014.05-.19.07-.298.025 0 .218-.02.346-.03zm.577-1.085h.008c.06.005.228.063.505.173.015.041.04.061.075.061a.205.205 0 0 0 .105-.04.309.309 0 0 1 .168-.056c.034 0 .068.007.101.021.088.037.1.12.035.25a.99.99 0 0 1-.256.325c-.106.087-.152.182-.138.283.013.102.076.176.186.222a.692.692 0 0 0 .229.415c.124.11.339.235.643.374-.48.812-.72 1.397-.72 1.757 0 0 .026.124.058.298.051.274.12.67.136.892a.44.44 0 0 1-.055.263c-.085.14-.524.209-1.313.209l-.154-.001c-.416.042-.872.063-1.367.063-.37 0-.764-.012-1.179-.036.102-.304.632-.512 1.591-.622.95 0 1.426-.282 1.426-.845 0-.387-.208-1.01-.623-1.868.535-.147.756-.309.664-.484.037-.258-.027-.397-.193-.415a.66.66 0 0 1-.066.003c-.144 0-.229-.056-.253-.17.139-.054.19-.1.152-.138-.037-.037-.101-.06-.193-.069.064-.064.041-.124-.07-.18l.25-.387a.269.269 0 0 1 .166-.049.98.98 0 0 1 .4.118c.093-.01.068-.048-.075-.118a.852.852 0 0 0-.422-.09c.062-.106.122-.159.18-.159zm.767-.644c-.1 0-.2.01-.303.029-.3.055-.57.272-.81.65-.055.138-.188.341-.4.609-.036.115-.025.173.034.173h.007l.027-.001c.05 0 .088.012.111.035-.03.023-.047.048-.049.074h-.342c-.26.009-.55.125-.838.349-.726.623-1.075 1.355-1.066 2.183 0 .112.064.161.182.161a.54.54 0 0 0 .063-.004c.534-.233 1.628-.68 2-.892.209.357.313.914.313 1.672l-.58.11c-1.403.139-2.215.36-2.436.665-.305.175-.531.789-.679 1.84-.221 1.108-.636 1.684-1.245 1.73l-1.024.388-.097.18c.074.064.143.096.208.096l1.882-.096c.129-.425.385-.953.768-1.585.382-.632.532-1.192.45-1.681.175.627.336 1.439.484 2.435.027.24-.263.457-.872.65-.277.02-.415.107-.415.264l1.425-.056c.314 0 .47-.124.47-.373-.1-.222-.112-.674-.034-1.357.078-.682-.007-1.236-.256-1.66l2.436-.097c.793 0 1.19-.203 1.19-.609l-.07-1.356c0-.517.139-.96.416-1.329l.29 1.232-.415 1.91c-.083.129-.14.251-.173.366-.032.116-.053.22-.062.312 0 .074.02.173.062.297.042.125.067.243.076.353a.157.157 0 0 0 .056.056.024.024 0 0 0 .01.002c.013 0 .024-.014.031-.044.021.021.038.032.051.032.016 0 .027-.016.032-.046.021.021.038.032.052.032.016 0 .026-.015.031-.046.015.015.03.023.044.023.004 0 .008 0 .012-.002.018-.004.027-.03.027-.076a8.544 8.544 0 0 1-.104-.353 1.182 1.182 0 0 1-.006-.394c.009-.046.018-.07.027-.07.019 0 .037.014.056.042 0 .046-.005.11-.014.194a.352.352 0 0 0 .02.194c.015.028.032.043.052.043a.066.066 0 0 0 .038-.016c.028-.009.035-.05.021-.124a.83.83 0 0 1 .028-.319c.032-.138-.003-.285-.104-.442.424-.563.641-1.274.65-2.132-.046-.608-.166-1.12-.36-1.536a1.974 1.974 0 0 0-.968-.512c-.24-.202-.203-.408.11-.615.314-.208.464-.475.45-.803-.013-.327-.154-.544-.422-.65a1.475 1.475 0 0 0-.548-.105zm-6.546 10.493v.018a.4.4 0 0 0 .01 0h.017a.4.4 0 0 1 .008 0c-.01-.008-.025-.01-.035-.018zM53.982 7.52q0 .806-.281 1.62-.566 1.633-2.015 2.944 1.164-1.575 1.55-3.077.193-.75.193-1.502 0-.75-.193-1.501-.386-1.502-1.55-3.077 1.439 1.374 2.01 2.976.286.805.286 1.618zm.433-.015q-.043-1.85-.984-3.22-.94-1.369-1.618-1.718-.528-.317-.666-.037-.041.085-.041.17 0 .197.22.396.572.54 1.286 2.474.357.968.357 1.935 0 .968-.357 1.936-.714 1.935-1.296 2.474-.218.211-.218.405 0 .088.044.171.143.27.671-.047.677-.35 1.618-1.719.941-1.369.984-3.22zm-7.635 6.464c-.099 0-.198.012-.298.037-.2.049-.417.16-.65.333h-4.705v1.04h4.704c.234.174.45.285.65.334a1.248 1.248 0 0 0 .594 0c.196-.049.392-.16.588-.333h.181c.189.173.383.284.583.333a1.254 1.254 0 0 0 .6 0c.199-.049.412-.16.638-.333h4.75v-1.04h-4.75a1.772 1.772 0 0 0-.639-.334 1.254 1.254 0 0 0-.6 0c-.2.049-.393.16-.582.333h-.18a1.422 1.422 0 0 0-.589-.333 1.214 1.214 0 0 0-.295-.037z"/><path d="M8.22.375c-9.625 0-9.625 17.25 0 17.25m0-17.25h46.195M8.22 17.625h46.195M62.102.375v17.25M54.415.375c9.625 0 9.625 17.25 0 17.25" fill="none" stroke="#000"/></svg>