<svg xmlns="http://www.w3.org/2000/svg" width="181.849" height="18"><path d="M14.827 2.866q.82 0 1.495.409 1.374.797 2.604.797 1.238 0 2.27-.106v2.126q-1.283-.228-1.852-.228h-.015q-.463 0-1.291.106-3.364.463-4.191.463-1.375 0-2.59-.045-2.08-.122-2.285-.22-.198-.092-.198-.524 0-.426.114-.744.114-.32.38-.456 6.5-.289 7.008-.334-.453-.654-1.403-.654-.309 0-.67.07-1.21.238-1.866.238-.139 0-.252-.011-.646-.06-.6-.615.363.049.749.049.81 0 1.726-.216.452-.105.867-.105zm.193-.616q-.329 0-.65.083-1.298.342-2.285.357-.243 0-.873-.122-.296.274-.296.646t.235.63q-2.483.091-2.483.296-.448.57-.448 1.367 0 .79.418 1.078 1.26.403 5.064.403.608 0 1.238-.061 3.523-.524 4.199-.54h.066q.695 0 2.546.29V3.32l-.015.015q-1.587.183-2.59.205-.05.002-.102.002-.954 0-1.963-.533-1.067-.759-2.06-.759zm-.035 10.51q2.384 0 5.055 1.15-2.671 1.12-5.055 1.12-2.367 0-5.054-1.12 2.687-1.15 5.054-1.15zm0-.737q-2.942 0-6.765 1.872 3.823 1.855 6.765 1.855 2.943 0 6.766-1.855-3.807-1.872-6.766-1.872zm9.822-8.93q1.511.22 1.58 1.382v8.382q-.706-.843-2.536-1.184l.956-8.58zm-.425-.843l-1.131 10.022q2.52.289 3.136 1.8v1.678h.751V4.475q0-1.883-2.756-2.225zm5.813.843q1.511.22 1.58 1.382v8.382q-.707-.843-2.537-1.184l.957-8.58zm-.425-.843l-1.132 10.022q2.521.289 3.136 1.8v1.678h.752V4.475q0-1.883-2.756-2.225zm5.966 0l-1.71 2.022h.834l.876-1.045.884 1.045.86-1.045.884 1.045.876-1.045.884 1.045L41 3.227l.885 1.045.86-1.045.884 1.045.884-1.045.86 1.045.884-1.045.876 1.045h.833l-1.71-2.022-.884.977-.859-.977-.884.977-.885-.977-.86.977L41 2.25l-.876.977-.884-.977-.876.977-.884-.977-.86.977-.884-.977zm4.221 11.631a1.31 1.31 0 0 0-.313.039c-.21.051-.437.168-.682.35h-4.936v1.091h4.936c.245.182.472.299.682.35a1.31 1.31 0 0 0 .623 0c.205-.051.41-.168.617-.35h.19c.197.182.4.299.61.35a1.316 1.316 0 0 0 .63 0c.209-.051.432-.168.67-.35h4.982V14.27h-4.982c-.238-.182-.461-.299-.67-.35a1.316 1.316 0 0 0-.63 0 1.39 1.39 0 0 0-.61.35h-.19a1.492 1.492 0 0 0-.617-.35 1.274 1.274 0 0 0-.31-.039zM56.545 2.686l.133.055-3.993 8.892c-.068-.044-.448-.23-.571-.374 0-.097.068-.162.265-.426.208-.277.43-.565.178-.937-.116-.172-.276-.297-.483-.297-.13 0-.277.048-.443.164-.348-.207-.684-.31-1.232-.31-.096-.844-.203-1.376-.321-2.042h3.96l2.507-4.725zm-.009-.436a.789.789 0 0 0-.069.003l-2.54 4.526c-.089.148-.181.222-.277.222a.258.258 0 0 1-.034.002c-.373 0-1.43-.681-3.172-2.043-.4-.414-.607-.829-.621-1.243-.015-.414.109-.65.371-.71a.985.985 0 0 1 .215-.026c.147 0 .253.047.318.143.092.137.087.274-.017.41-.052.069-.099.103-.141.103-.043 0-.08-.034-.114-.103-.067-.136-.137-.205-.21-.205-.141.052-.175.174-.1.366.068.179.194.268.377.268.015 0 .029 0 .044-.002.207-.014.351-.085.432-.21a.799.799 0 0 0 .122-.444.65.65 0 0 0-.166-.444c-.11-.126-.272-.205-.482-.238a.759.759 0 0 0-.119-.01.905.905 0 0 0-.514.176c-.21.144-.333.381-.366.71-.033.33.057.691.272 1.087.214.396.6.793 1.16 1.193.557.399 1.088.78 1.59 1.142.013.047-.013.071-.077.071a.394.394 0 0 1-.055-.004h-2.84c.237 1.353.38 2.31.433 2.873a2.62 2.62 0 0 1 .198-.008c.518 0 1.036.154 1.554.462.111-.147.231-.221.36-.221.13 0 .197.07.2.21-.225.36-.556.71-.67 1.12l1.242.8 4.226-9.684a.616.616 0 0 0-.53-.292zm-3.27 11.401c.59 0 1.326.303 1.683.66.312.311.352.725.364 1.11h-4.076c.011-.385.052-.799.364-1.11.357-.357 1.077-.66 1.665-.66zm0-.33c-.698 0-1.45.324-1.89.764-.452.452-.503 1.046-.503 1.492v.173h4.787v-.173c0-.446-.034-1.04-.486-1.492-.44-.44-1.21-.763-1.908-.763zM59.692 2.58q.916 0 .916 1.232v3.92h-.645v-3.92q0-.699-.27-.699-.414 0-.414-.285 0-.248.413-.248zm.999 5.564q.766 0 .766 1.096-.318-.317-.534-.317-.158 0-.262.167-.083.646-.398.646t-.383-.646q-.104-.167-.266-.167-.222 0-.552.317 0-1.096.765-1.096zm-.999-5.894q-.758 0-.758.578 0 .57.548.57.128 0 .128.414v3.92q-1.044 0-1.044 2.222.067.122.151.122.088 0 .194-.13.218-.255.601-.458.15.548.436.548l-.068 5.294q0 .42.383.42.375 0 .398-.42l-.083-5.294q.278 0 .443-.548.368.203.593.458.115.13.204.13.087 0 .15-.122 0-2.223-1.014-2.223v-3.92q0-1.561-1.262-1.561zm8.494 6.269c1.02 1.145 1.864 2.453 2.616 3.781.158.195-.02.374-.15.559-.496-1.575-1.637-2.79-2.466-4.34zm-.987-5.783c.085.396-.072.854-.373.989l.096.205c.376-.178.737-.713.791-1.193.513.03.654.417.734.865.096.307-.001 1.05.387 1.179 1.147.444 2.023.957 2.81 1.734 1.358 1.698 2.777 3.342 4.135 5.042.528.662 1.01 1.268 1.402 1.725-2.062-1.542-4.366-2.72-6.627-3.946-1.201-.652-2.347-1.186-2.347-2.623 0-.773 1.424-1.42 1.365-1.521-.005-.01-.022-.013-.047-.013-.293 0-1.79.555-1.79 1.725 0 .324.087.625.238.905h-.007c-1.641-.87-1.38-2.63-1.317-4.18-.682-.038-1.244-.41-1.891-.565.502-.065 1.003-.15 1.506-.201a.4.4 0 0 0-.238.15c-.008.166.179.239.361.239.178 0 .352-.07.335-.19a.457.457 0 0 0-.39-.206c.25-.036.584-.09.867-.12zm2.867 9.977c.147.357.223.736.306 1.11.24-.193.471-.392.667-.628-.128.694-.366 1.395-.945 1.395-.35 0-.512-.237-.287-.954.106-.338.19-.66.259-.923zm-.629-3.438c2.34 1.247 4.658 2.506 6.872 3.969.521.422.986.893 1.3 1.334-.208.324-.605.435-.973.46-1.873-.066-2.607-1.872-3.596-3.162l-.539-.654.093.838c.007.15.161.864-.07.864a.17.17 0 0 1-.067-.016l-.947-1.134c-.1.067-.196.143-.3.205-.47-.95-1.158-1.836-1.773-2.704zm-2.02-7.025c-.492 0-.996.088-1.474.133-.57.278-1.147.066-1.744.283-.432.194-.553.587-.732.98.255-.085.486-.12.705-.12.696 0 1.256.351 1.993.538-.002.37-.06.788-.087 1.21-.114 1.145.489 2.15 1.36 2.865.625 1.39 1.49 2.457 2.12 3.542-.075.488-.529 2.327-.753 2.988a8.341 8.341 0 0 1-1.365.115 7.003 7.003 0 0 1-.592-.024c-.355 0-.745.606-1.127.93l7.771.06c-.198-.7-1.579-1.072-2.07-1.072a.685.685 0 0 0-.075.003c.173-.495.39-.96.45-1.653.218.195.46.404.764.426.372-.028.522-.281.57-.612.84 1.39 1.78 2.526 3.505 2.693.597-.029 1.34-.29 1.5-.923.79-.044.21-.815-.082-1.116-2.152-2.33-3.928-4.988-6.054-7.334-.819-.808-1.743-1.354-2.888-1.807-.085-.21-.113-.507-.168-.835-.06-.357-.252-.942-.6-1.124a2.667 2.667 0 0 0-.927-.146zm7.641.254a.061.061 0 0 0-.023.005c-.047.033-.066.066-.057.1.01.028.035.046.075.053a.105.105 0 0 0 .018.002c.031 0 .054-.016.068-.048.016-.038.01-.068-.022-.09a.106.106 0 0 0-.059-.022zm.066-.034a.31.31 0 0 0-.074.01c-.134.038-.17.099-.107.182.03.04.083.06.16.06.085 0 .198-.024.339-.07.138-.058.247-.108.328-.15l-.022-.015-.313.122c-.165.054-.28.082-.349.082a.154.154 0 0 1-.036-.004c-.058-.014-.09-.04-.1-.078-.01-.038.013-.07.067-.093a.219.219 0 0 1 .086-.021c.017 0 .033.003.046.01.034.017.048.038.043.064a.13.13 0 0 1-.05.075c.072-.019.098-.057.079-.114-.014-.04-.046-.06-.097-.06zm.073-.052c.074 0 .139.023.195.07.12-.022.234-.033.342-.033.158 0 .303.023.435.068.223.076.374.28.453.613.078.333.032.678-.14 1.034-.17.357-.371.817-.602 1.38-.23.563-.346.98-.346 1.251 0 .271.31.407.927.407.495 0 .742-.492.742-1.476 0-.732.221-1.098.663-1.098.447 0 .67.366.67 1.098.015.318.044.653.09 1.005.045.352.212.611.502.778-.428-.09-.66-.33-.695-.717-.036-.388-.06-.743-.075-1.066 0-.647-.164-.972-.492-.977-.323.005-.485.33-.485.977 0 1.14-.306 1.711-.92 1.711h-.027c-.819 0-1.231-.209-1.238-.627-.007-.423-.012-1.049-.015-1.876-.002-.827.044-1.372.14-1.636.095-.264.204-.42.328-.467.112-.043.273-.065.484-.065h.065c.047-.004.052-.033.014-.085a1.094 1.094 0 0 0-.275-.035c-.193 0-.394.05-.602.15a.838.838 0 0 1-.26.024c-.107-.002-.185-.072-.232-.21a.486.486 0 0 1 .228-.179.445.445 0 0 1 .126-.02zm.078-.168a.997.997 0 0 0-.211.027.75.75 0 0 0-.293.125c-.085.057-.126.128-.12.214-.006.104.053.192.174.264a.559.559 0 0 0 .36.078c-.2.356-.29.977-.27 1.861.018.884.018 1.474 0 1.769-.02.294.042.545.184.752.143.207.597.31 1.362.31.737 0 1.106-.64 1.106-1.918.004-.547.104-.82.3-.82.199 0 .299.273.299.82.01.323.046.724.11 1.201.064.478.432.717 1.102.717-.043-.1-.14-.213-.292-.339-.153-.126-.249-.34-.29-.645a9.17 9.17 0 0 1-.074-.934c0-.842-.285-1.262-.856-1.262-.57 0-.856.42-.856 1.262-.009.836-.192 1.255-.549 1.255h-.04c-.227 0-.399-.038-.516-.114-.123-.081-.123-.316 0-.706.124-.39.347-.908.67-1.555.19-.409.3-.71.329-.905l.02-.421c-.142-.551-.35-.862-.627-.93a1.787 1.787 0 0 0-.433-.057 1.38 1.38 0 0 0-.33.039.388.388 0 0 0-.259-.088zm11.534 0a1.31 1.31 0 0 0-.313.039c-.21.051-.437.168-.683.35h-4.935V3.73h4.935c.246.182.473.299.683.35a1.31 1.31 0 0 0 .623 0 1.49 1.49 0 0 0 .616-.35h.19c.198.182.402.299.611.35a1.316 1.316 0 0 0 .63 0c.209-.051.432-.168.67-.35h4.982V2.64h-4.983c-.237-.182-.46-.299-.67-.35a1.316 1.316 0 0 0-.629 0 1.39 1.39 0 0 0-.61.35h-.19a1.492 1.492 0 0 0-.617-.35 1.274 1.274 0 0 0-.31-.039zm-3.782 7.486c-.083 0-.167.008-.25.015-1.207.13-2.065 1.352-1.876 2.537.084.88.63 1.374 1.23 1.86 1.785 1.093 1.284.69 3.083 1.602l.289-.54c-2.141-1.001-2.4-1.16-3.068-1.601-.546-.44-.98-.927-.941-1.663-.016-.509.288-1.033.63-1.283a1.64 1.64 0 0 1 .964-.327c.258 0 .501.06.714.213.54.265.835 1.146.44 1.7a1.047 1.047 0 0 1-.835.449.773.773 0 0 1-.455-.145c-.274-.152-.479-.683-.198-.98-.129-.136-.311-.303-.448-.303-.091 0-.16.068-.205.228-.304.729.182 1.556.911 1.754.13.038.258.06.388.06.835 0 1.61-.698 1.61-1.564.075-1.01-.73-1.936-1.74-1.997a2.454 2.454 0 0 0-.243-.015zm8.517 3.143c.805 0 1.814.414 2.302.902.426.426.482.992.498 1.518h-5.576c.015-.526.071-1.092.498-1.518.488-.488 1.472-.902 2.278-.902zm0-.451c-.956 0-1.984.441-2.587 1.044-.618.618-.688 1.432-.688 2.04v.238h6.55v-.237c0-.61-.047-1.423-.665-2.04-.603-.604-1.655-1.045-2.61-1.045zM96.8 2.55a.072.072 0 0 0-.028.005c-.056.04-.078.078-.067.118.011.033.04.054.088.063a.124.124 0 0 0 .022.002c.036 0 .063-.02.079-.057.02-.045.011-.08-.025-.105a.125.125 0 0 0-.07-.026zm.076-.041a.365.365 0 0 0-.087.012c-.157.045-.199.117-.126.215.035.047.098.07.19.07.1 0 .232-.028.398-.083.163-.067.291-.126.387-.177l-.026-.016-.37.143c-.193.064-.33.096-.41.096a.182.182 0 0 1-.043-.004c-.067-.017-.106-.048-.118-.092-.01-.045.016-.082.08-.11a.258.258 0 0 1 .1-.024c.021 0 .04.004.056.012.039.02.056.044.05.075a.154.154 0 0 1-.059.089c.084-.023.115-.068.093-.135-.016-.047-.054-.071-.115-.071zm.087-.062a.35.35 0 0 1 .23.083c.14-.025.275-.038.403-.038.185 0 .356.027.512.08.264.09.441.33.534.722.092.392.038.799-.164 1.219-.202.42-.438.962-.71 1.626-.272.664-.408 1.155-.408 1.475 0 .319.365.478 1.093.478.582 0 .874-.58.874-1.739 0-.863.26-1.294.781-1.294.527 0 .79.431.79 1.294.017.375.052.77.105 1.185.053.414.25.72.593.916-.505-.107-.778-.388-.82-.845a26.582 26.582 0 0 1-.088-1.256c0-.762-.193-1.146-.58-1.151-.38.005-.571.39-.571 1.151 0 1.345-.362 2.017-1.084 2.017h-.033c-.964 0-1.45-.247-1.459-.74-.008-.498-.014-1.235-.017-2.21-.002-.974.052-1.617.164-1.928.112-.311.241-.495.387-.55.132-.052.323-.077.57-.077h.077c.056-.005.062-.038.017-.1a1.29 1.29 0 0 0-.324-.041c-.228 0-.464.058-.71.175a.987.987 0 0 1-.307.03c-.126-.003-.217-.086-.273-.248.073-.1.163-.17.27-.21a.524.524 0 0 1 .148-.024zm.092-.197c-.07 0-.153.01-.25.032a.884.884 0 0 0-.344.147c-.1.067-.148.151-.143.252-.005.123.063.227.206.31.113.067.225.1.336.1a.56.56 0 0 0 .089-.007c-.236.42-.342 1.151-.32 2.193.023 1.042.023 1.737 0 2.084-.022.348.05.643.219.887.168.244.703.365 1.605.365.868 0 1.302-.753 1.302-2.26.006-.644.124-.966.353-.966.235 0 .353.322.353.966.011.381.055.853.13 1.416.076.563.509.844 1.299.844-.05-.117-.166-.25-.345-.399-.18-.148-.293-.402-.34-.76a10.806 10.806 0 0 1-.088-1.101c0-.992-.337-1.487-1.009-1.487-.672 0-1.008.495-1.008 1.487-.011.986-.227 1.479-.647 1.479h-.048c-.268 0-.47-.045-.608-.134-.145-.096-.145-.373 0-.832.146-.46.41-1.07.79-1.832.224-.482.353-.838.387-1.067l.025-.496c-.168-.65-.415-1.016-.74-1.097a2.105 2.105 0 0 0-.51-.066c-.135 0-.264.015-.389.045a.457.457 0 0 0-.305-.103zM96.8 9.686a.072.072 0 0 0-.028.005c-.056.04-.078.079-.067.118.011.034.04.055.088.063a.124.124 0 0 0 .022.002c.036 0 .063-.019.079-.057.02-.044.011-.08-.025-.105a.125.125 0 0 0-.07-.026zm.076-.04a.365.365 0 0 0-.087.012c-.157.045-.199.116-.126.214.035.047.098.07.19.07.1 0 .232-.027.398-.083.163-.067.291-.126.387-.176l-.026-.017-.37.143c-.193.065-.33.097-.41.097a.182.182 0 0 1-.043-.005c-.067-.016-.106-.047-.118-.092-.01-.045.016-.081.08-.11a.258.258 0 0 1 .1-.024c.021 0 .04.004.056.012.039.02.056.045.05.076a.154.154 0 0 1-.059.088c.084-.022.115-.067.093-.134-.016-.048-.054-.072-.115-.072zm.087-.062c.087 0 .164.027.23.082.14-.025.275-.037.403-.037.185 0 .356.026.512.08.264.089.441.33.534.722.092.392.038.798-.164 1.218-.202.42-.438.962-.71 1.626-.272.664-.408 1.156-.408 1.475 0 .32.365.479 1.093.479.582 0 .874-.58.874-1.74 0-.862.26-1.293.781-1.293.527 0 .79.43.79 1.294.017.375.052.77.105 1.184.053.415.25.72.593.916-.505-.106-.778-.388-.82-.844a26.582 26.582 0 0 1-.088-1.256c0-.762-.193-1.146-.58-1.152-.38.006-.571.39-.571 1.152 0 1.344-.362 2.016-1.084 2.016h-.033c-.964 0-1.45-.246-1.459-.74a182.71 182.71 0 0 1-.017-2.21c-.002-.974.052-1.617.164-1.928.112-.31.241-.494.387-.55.132-.051.323-.076.57-.076h.077c.056-.005.062-.039.017-.1a1.29 1.29 0 0 0-.324-.042 1.65 1.65 0 0 0-.71.176.987.987 0 0 1-.307.03c-.126-.003-.217-.086-.273-.249.073-.1.163-.17.27-.21a.524.524 0 0 1 .148-.023zm.092-.197c-.07 0-.153.01-.25.031a.884.884 0 0 0-.344.147c-.1.068-.148.152-.143.252-.005.124.063.227.206.311.113.067.225.1.336.1a.56.56 0 0 0 .089-.007c-.236.42-.342 1.151-.32 2.193.023 1.042.023 1.737 0 2.084-.022.347.05.643.219.886.168.244.703.366 1.605.366.868 0 1.302-.753 1.302-2.26.006-.645.124-.967.353-.967.235 0 .353.322.353.967.011.38.055.852.13 1.415.076.563.509.845 1.299.845-.05-.118-.166-.25-.345-.4-.18-.148-.293-.401-.34-.76a10.806 10.806 0 0 1-.088-1.1c0-.992-.337-1.488-1.009-1.488-.672 0-1.008.496-1.008 1.488-.011.986-.227 1.479-.647 1.479h-.048c-.268 0-.47-.045-.608-.135-.145-.095-.145-.372 0-.832.146-.46.41-1.07.79-1.832.224-.481.353-.837.387-1.067l.025-.496c-.168-.65-.415-1.015-.74-1.096a2.105 2.105 0 0 0-.51-.067c-.135 0-.264.015-.389.046a.457.457 0 0 0-.305-.103zm7.753-7.137a.376.376 0 0 0-.354.231l-1.034 1.796c-.12.245.106.514.347.514.06 0 .12-.017.177-.054l.86-1.393.755 1.287v10.747c-.017.222.186.372.383.372a.325.325 0 0 0 .278-.145l.073-10.973.756-1.288c.254.435.5.876.76 1.307a.337.337 0 0 0 .278.136c.16 0 .321-.096.36-.264a.367.367 0 0 0 .015-.09c-.014-.212-.828-1.552-1.12-2.042a.34.34 0 0 0-.283-.14.376.376 0 0 0-.353.228l-.78 1.328-.836-1.418a.34.34 0 0 0-.282-.139zm14.732.59l.181.075-5.404 12.034c-.091-.06-.605-.312-.773-.507 0-.13.092-.219.36-.576.281-.375.58-.766.24-1.269-.157-.232-.373-.401-.654-.401-.174 0-.374.065-.6.221-.47-.28-.925-.42-1.666-.42-.13-1.141-.275-1.861-.435-2.762h5.36l3.392-6.395zm-.01-.59a1 1 0 0 0-.094.004l-3.438 6.125c-.12.2-.245.3-.375.3a.349.349 0 0 1-.045.003c-.505 0-1.936-.922-4.294-2.765-.54-.56-.82-1.12-.84-1.681-.02-.56.147-.88.503-.961a1.34 1.34 0 0 1 .29-.036c.2 0 .343.064.43.194.125.185.118.37-.022.555-.07.093-.134.139-.192.139-.057 0-.109-.046-.154-.139-.09-.185-.185-.278-.285-.278-.19.07-.235.236-.135.496.093.241.263.362.512.362.019 0 .038 0 .058-.002.28-.02.476-.115.586-.285.11-.17.165-.37.165-.6a.88.88 0 0 0-.225-.601c-.15-.17-.368-.278-.653-.323a1.027 1.027 0 0 0-.16-.013c-.232 0-.464.08-.696.238-.285.195-.45.516-.495.961-.045.445.077.936.368 1.471.29.536.813 1.074 1.568 1.614.756.54 1.474 1.056 2.155 1.546.016.064-.02.096-.106.096a.533.533 0 0 1-.075-.006h-3.843c.32 1.832.516 3.128.586 3.888.09-.006.179-.01.268-.01.701 0 1.403.209 2.104.626.15-.2.312-.3.488-.3.175 0 .265.095.27.285-.306.488-.754.961-.908 1.516l1.68 1.081 5.72-13.105c-.181-.263-.42-.395-.716-.395zm3.773.843q1.51.22 1.58 1.382v8.382q-.707-.843-2.537-1.184l.957-8.58zm-.425-.843l-1.132 10.022q2.521.289 3.136 1.8v1.678h.752V4.475q0-1.883-2.756-2.225zm5.812.843q1.511.22 1.58 1.382v8.382q-.706-.843-2.536-1.184l.956-8.58zm-.425-.843l-1.131 10.022q2.52.289 3.136 1.8v1.678h.751V4.475q0-1.883-2.756-2.225zm8.906.453q.147 0 .304.067.352.149.352 2.369v2.124h-3.986q1.54-2.112 2.112-3.192.573-1.08.871-1.265.166-.103.347-.103zm-.17-.453h-.063q-.567.013-1.277 1.385-.71 1.373-2.81 4.094h5.441l-.012-3.056q-.06-2.04-.417-2.237-.338-.186-.861-.186zm-2.915 7.568q.345 0 .911.189.97.323 2.009 1.35 1.039 1.028.83 1.905-.207.878-.807 1.316-.496.363-1.197.363-.147 0-.304-.016-.9-.093-1.547-1.42-.646-1.328-.6-2.367.046-1.039.323-1.223.135-.097.382-.097zm-.095-.8q-.476 0-.772.204-.623.439-.692 1.8-.07 1.363.785 2.956.854 1.593 2.077 1.743.234.029.456.029.936 0 1.645-.514.878-.634 1.097-1.8.22-1.166-.935-2.47-1.154-1.305-2.493-1.732-.68-.217-1.168-.217zm7.983-6.768l-1.853 2.19h.904l.949-1.131.958 1.131.93-1.131.959 1.131.949-1.131.958 1.131.95-1.131.957 1.131.931-1.131.958 1.131.959-1.131.93 1.131.959-1.131.949 1.131h.903l-1.852-2.19-.959 1.059-.93-1.059-.959 1.059-.958-1.059-.93 1.059-.959-1.059-.949 1.059-.958-1.059-.95 1.059-.957-1.059-.931 1.059-.958-1.059zm1.422 10.629c.805 0 1.813.414 2.301.902.427.426.483.992.499 1.518h-5.577c.016-.526.072-1.092.499-1.518.488-.488 1.472-.902 2.278-.902zm0-.451c-.956 0-1.984.441-2.587 1.044-.618.618-.688 1.432-.688 2.04v.238h6.55v-.237c0-.61-.047-1.423-.665-2.04-.603-.604-1.655-1.045-2.61-1.045zm8.301-.368l.711 1.66q-.355.118-.71.118-.357 0-.712-.118l.711-1.66zm0-1.304l-1.556 3.408q.726.326 1.556.326.83 0 1.556-.326l-1.556-3.408zm2.104-1.097q.119 2.445.697 4.624-.711.8-2.8.8-2.09 0-2.802-.8.578-2.179.697-4.624zm-5.097-.652q-.356 0-.356.326t.356.326q.089.074.281.163-.118 2.164-.815 4.861 1.304 1.067 3.527 1.067t3.527-1.067q-.696-2.697-.815-4.86.193-.09.282-.164.355 0 .355-.326t-.355-.326zm9.576-5.914q1.512.22 1.58 1.382v8.382q-.706-.843-2.536-1.184l.957-8.58zm-.425-.843l-1.13 10.022q2.52.289 3.135 1.8v1.678h.752V4.475q0-1.883-2.757-2.225zm5.813.843q1.511.22 1.58 1.382v8.382q-.707-.843-2.537-1.184l.957-8.58zm-.425-.843l-1.131 10.022q2.52.289 3.135 1.8v1.678H166V4.475q0-1.883-2.756-2.225zm5.82.801q.346 0 .912.189.97.323 2.008 1.35 1.04 1.028.831 1.905-.207.878-.808 1.316-.496.363-1.196.363-.148 0-.304-.016-.9-.093-1.547-1.42-.647-1.328-.6-2.367.046-1.039.323-1.223.134-.097.381-.097zm-.094-.801q-.476 0-.772.205-.624.439-.693 1.8-.07 1.363.785 2.956.854 1.593 2.078 1.743.234.029.455.029.936 0 1.646-.514.877-.635 1.097-1.8.22-1.166-.935-2.47-1.155-1.305-2.494-1.733-.679-.216-1.167-.216zm3.18 8.474q.146 0 .304.067.352.15.352 2.37v2.124h-3.987q1.54-2.113 2.113-3.193t.871-1.265q.165-.103.347-.103zm-.17-.453h-.064q-.566.013-1.277 1.385-.71 1.373-2.81 4.094h5.442l-.012-3.055q-.06-2.041-.418-2.238-.337-.186-.86-.186z"/><path d="M8.22.375c-9.625 0-9.625 17.25 0 17.25m0-17.25h165.379M8.22 17.625h165.379m7.687-17.25v17.25M173.599.375c9.625 0 9.625 17.25 0 17.25" fill="none" stroke="#000"/></svg>