<svg xmlns="http://www.w3.org/2000/svg" width="92.968" height="18"><path d="M20.733 2.888c.122 0 .183.44.183.562 0 .121-.061.562-.183.562H9.07c-.141 0-.212-.44-.212-.562 0-.122.07-.562.212-.562zM8.706 2.25c-.324 0-.486.653-.486 1.2 0 .546.162 1.2.486 1.2h12.392c.304 0 .456-.654.456-1.2 0-.547-.152-1.2-.456-1.2zm1.474 6.737c-.199 0-.317.083-.357.25 0 .094.08.142.238.142.23 0 .345-.067.345-.202 0-.119-.076-.182-.226-.19zm.178-.072c.35 0 .633.167.85.5.219.333.29.795.215 1.385-.076.591-.155.924-.238 1-.01.008-.018.013-.025.013-.054 0-.03-.26.072-.78.115-.587.05-1.031-.196-1.333h-.666c-.523 0-.785-.127-.785-.38 0-.27.258-.405.773-.405zm-.202-.321c-.579.063-.876.305-.892.726 0 .23.093.406.28.529.174.115.6.173 1.275.173h.134c.158.261.158.664 0 1.207-.159.543-.238 1.195-.238 1.956 0 .698.214 1.3.642 1.803.429.503.837.755 1.225.755.857 0 1.285-.54 1.285-1.618l-.214-2.438c0-.413.139-.619.416-.619.278 0 .417.206.417.619l-.203 2.486c0 1.039.294 1.558.88 1.558.595 0 .893-.52.893-1.558l-.203-2.486c0-.413.14-.619.417-.619.277 0 .416.206.416.619l-.202 2.486c0 1.039.293 1.558.88 1.558.595 0 .892-.52.892-1.558l-.214-2.486c0-.413.143-.619.428-.619.278 0 .417.206.417.619l-.214 2.486c0 .968.258 1.485.775 1.55.068.018.14.027.217.027.143-.008.424-.179.845-.512-.07-.194-.179-.291-.327-.291a.385.385 0 0 0-.066.006c-.182.032-.325.148-.452.333a.087.087 0 0 1-.075.042c-.077 0-.176-.084-.247-.164-.14-.153-.206-.485-.206-.991l.214-2.486c0-.722-.294-1.083-.88-1.083-.595 0-.893.361-.893 1.083l.214 2.486c0 .73-.142 1.094-.428 1.094-.277 0-.416-.365-.416-1.094l.202-2.486c0-.722-.293-1.083-.88-1.083s-.88.361-.88 1.083l.202 2.486c0 .721-.14 1.082-.42 1.082a.33.33 0 0 1-.008 0c-.278 0-.417-.36-.417-1.082l.203-2.486c0-.722-.294-1.083-.88-1.083-.659 0-.988.361-.988 1.083l.202 2.438c0 .5-.234.75-.702.75-.222 0-.456-.145-.701-.435-.246-.289-.37-.707-.37-1.255 0-.983.047-1.798.138-2.444.091-.646.033-1.166-.173-1.558-.206-.393-.646-.589-1.32-.589zm20.016-5.921q1.3 0 2.57.174 1.546.211 3.184.746-.066.093-1.93 1.183-1.38-1.037-2.828-1.21-.921-.108-1.692-.108-.444 0-.839.036-1.077.1-1.823.357l.403-.938q.8-.199 2.385-.232.286-.008.57-.008zm-4.799 3.108q.066 0 .112.046.047.053.047.112 0 .086-.047.132-.046.047-.112.047t-.112-.047q-.053-.046-.053-.132 0-.06.053-.112.046-.046.112-.046zm0-.08q-.1 0-.165.073-.066.073-.066.165 0 .1.066.172.066.073.165.073.1 0 .172-.073.073-.073.073-.172 0-.092-.073-.165-.073-.073-.172-.073zm0-.033q.112 0 .192.08.086.079.086.191 0 .132-.086.212-.08.086-.192.086t-.205-.086q-.086-.08-.086-.212 0-.112.086-.191.093-.08.205-.08zm0-.132q-.165 0-.284.126-.126.119-.126.277 0 .165.126.284.119.126.284.126.159 0 .284-.126.12-.119.12-.284 0-.158-.12-.277-.125-.126-.284-.126zm3.483 1.183q.826 0 1.671.344-.535.356-1.348.356-.594 0-1.605-.244v-.31q.634-.146 1.282-.146zm0-.304q-.774 0-1.62.211v.793q1.051.271 1.943.271 1.005 0 2.042-.581-.092-.08-.608-.39-.508-.304-1.757-.304zm8.478-1.705q.766.925.766 1.883 0 .952-.555 1.732-.469-.37-.746-.535-.271-.16-.892-.338.376-.422.376-.892 0-.456-.601-.99.892-.259 1.652-.86zm-7.765-.78q1.56.02 2.32.232.76.211 1.678.905.919.7 1.725.7.555.437.555.807 0 .376-.344.76-1.196.152-2.233.859-1.024.7-2.24.7-1.216 0-2.465-.436l-.212.337v.02q-.257 0-1.328-.198-.747-.212-.938-.357.079 0 .257-.08.76-.323.76-1.374h-.238q0 .529-.297.885-.29.377-.859.377-1.764-.29-2.108-.7.423-.093.41-.179.013-.145-.086-.178-.093-.013-.416-.37.079-.066.178-.113.37.423.568.503.192.079.192.191 0 .091-.126.091-.03 0-.066-.005-.036-.006-.066-.006-.132 0-.132.118 0 .146.423.285.423.138 1.07.138.972 0 .972-.859 0-.211-.066-.568l-.126.033q.06.271.06.482 0 .76-.84.76-.7 0-1.037-.112-.344-.112-.29-.178.067.01.12.01.216 0 .216-.169 0-.198-.244-.317-.238-.12-.536-.463.7-.456 1.302-1.037.595-.582 1.507-1.031.905-.443 2.98-.463zm5.208 3.939q1.196 1.282 1.394 1.837-1.983-.443-2.967-.945 1.328-.892 1.573-.892zM28.73 8.992q1.163.337 2.108.337.08.066.615.793-.681-.145-1.117-.324-.668-.224-1.606-.806zm1.15-6.742l-.284.002q-1.566.026-2.703.25l-.582 1.481q-.746.29-1.387.912-.641.628-1.368 1.196-.502.225-.502.483 0 .257.211.456-.1.211-.1.337 0 .343.682.654.7.29 1.718.416.376.29.879.47.713.21 1.962.422 1.005.588 1.99.925.62.192 1.77.403L31.32 9.33q.404 0 1.507-.37.86.436 2.062.78 1.196.324 1.731.324 0-.324-.178-.68-.179-.378-1.295-1.593 1.394 0 2.51 1.182.847-1.308.847-2.365 0-1.07-.972-2.531-1.249.99-1.996 1.183-.97 0-1.182-.238 2.075-1.302 2.286-1.507-.357-.31-1.328-.601-.978-.278-2.564-.483-1.442-.18-2.867-.18zm-6.227 10.114q-.11 0-.11.075 0 .082.11.103h.034q.083 0 .124-.062.075-.075-.13-.116zm2.132.226q-.144 0-.26.082l.04.11q.035-.103.234-.103.096 0 .24.027.164.042.226.055l.013-.075q-.15-.02-.37-.076-.061-.02-.123-.02zm.007.199q-.02.054.02.089l-.096-.035h-.006q.027-.02.082-.054zm-1.72-.22q-.035.179.075.316-.192-.042-.268-.076.048-.137.192-.24zm1.816.192q0 .062.02.124h-.02q-.02-.062-.02-.124zm.096.02q.075.056.144.062-.11.035-.151.042.075-.048.007-.103zm-.083-.06q-.02 0-.034.006-.082 0-.274.096v.041q.171.075.308.075h.035q.144-.006.342-.075v-.041q-.274-.103-.377-.103zm-1.46.04q0 .103.09.247-.13-.075-.234-.09.048-.095.144-.157zm.377.103q-.02.09.048.09h.028q0 .075.034.15-.15-.034-.26-.075.068-.117.15-.165zm.432.11q.041.04.028.178l-.192-.062q.089-.061.164-.116zm-1.61-.651q.027 0 .054.006.185.041.562.158.274.082.789.082.198 0 .425-.013.15-.042.288-.042h.082q.178.021.308.103.041.028.103.028.096 0 .247-.055.123-.041.288-.041.192 0 .432.055.459.102.815.404 1.96 0 3.05.233 1.098.233 2.126.658 1.035.425 2.262.672 1.227.247 2.392.46-.856.075-1.57.075-1.412 0-2.227-.309-.624-.247-1.248-.247-.576 0-1.145.213v.007q-.178-.206-.301-.206-.048 0-.083.028-.137.102-.212.287-.542-.28-.535-.637.007-.357.905-.487-.137-.014-.26-.014-.967 0-.967.665-.267.302-2.22.316-.028.363-.152.363-.082 0-.199-.15-.507-.343-.507-.782.158-.233.521-.233.22 0 .521.082-.13-.165-.5-.343-.096-.048-.199-.048-.322 0-.768.398-.377 0-.514-.213.213-.075.123-.13-.404-.096-.856-.171-.658-.096-1.05-.37-.712-.151-.692-.227.57.13.693.151.13.02.336.096.198.076.507.15.302.076.946.131.13.007.089.062-.048.055.075.096.035.014.069.014.062 0 .09-.055.088-.185-.234-.233-.315-.048-.507-.09-.192-.04-.35-.24-.096-.11-.185-.11-.062 0-.123.056-.062.061-.11.061-.062 0-.096-.089-.034-.096-.09-.096-.04 0-.095.041-.048.042-.09.042-.06 0-.088-.096-.041-.117-.13-.117-.035 0-.076.014-.062.027-.096.027-.055 0-.062-.055-.006-.089-.089-.144-.027-.02-.061-.02-.062 0-.144.075-.117.103-.192.22-.35-.007-.281-.254.055-.212.205-.212zm-.09-.261q-.253.014-.35.432-.061.487.398.59.624.191.912.349.288.165 1.426.48.336.356.815.356h.083q.055.453.35.645.205.144-.103.144-.13 0-.364-.028-.397-.048-.74-.048-.302 0-.555.035-.549 0-.22.733.048-.22.124-.22.082 0 .198.22.083-.213.165-.213.09 0 .178.213.09-.26.247-.26.082 0 .178.061.124.082.439.082.445 0 1.261-.15.213-.09.254-.514 1.83 0 2.056-.151.062.061.26.178.193.116-.39.185-.617-.164-.973-.164-.11 0-.192.013-.405 0-.213.72.055-.15.13-.15.083 0 .192.15.076-.192.165-.192.082 0 .178.192.09-.22.411-.22.227 0 .57.103.198.062.37.062.541 0 .809-.59.102.103.26.103.158 0 .37-.102.165-.083.453-.083.466 0 1.247.2 1.11.28 2.153.28.15 0 .308-.007 1.18-.048 1.83-.26.268-.26-.04-.624-.604-.089-2.133-.377-1.521-.288-2.975-.925-1.453-.638-2.934-.672-1.48-.041-2.05-.069-.527-.26-1-.342-.192-.035-.33-.035-.191 0-.26.069-.075.068-.164.068-.055 0-.117-.027-.157-.069-.41-.103h-.083q-.206 0-.357.13-.685-.034-1.261-.102-.308-.165-.548-.165zm19.807-6.097h-.015c-.154.002-.255.047-.302.132v.175l-.433.227c-.144.075-.216.144-.216.206l.731-.34c.012.029.06.043.148.043.018 0 .037 0 .058-.002a.7.7 0 0 0 .36-.113V6.21h-.062a.543.543 0 0 0-.263-.077.405.405 0 0 0-.087.01.441.441 0 0 0-.23.11c.053-.112.245-.167.575-.167h.057v-.082a1.556 1.556 0 0 0-.32-.04zm1.113-.115a1.156 1.156 0 0 0-.242.49c-.037.174-.046.58-.026 1.219.474-.268.747-.55.819-.85.072-.298.063-.543-.026-.735l-.165-.03-.185-.052-.175-.042zm-.367-.314h.003c.267.002.524.097.745.242.394.231.77.491 1.153.742.261.156.554.262.854.317-.488.026-.988.101-1.423.333-.284.155-.525.404-.625.716-.09.276-.084.572-.09.86.004.539.105 1.095.401 1.552.018.032.048.063.06.094-.047.045-.109.056-.172.056-.043 0-.087-.005-.127-.007-.18-.032-.31-.176-.431-.303a3.969 3.969 0 0 1-.477-.66c-.262-.489-.35-1.05-.392-1.598-.015-.194-.01-.389-.026-.582-.013-.088-.074-.186-.172-.186a.146.146 0 0 0-.005 0c-.13 0-.238.09-.359.126a1.117 1.117 0 0 1-.373.067c-.127.012-.243.08-.37.08l-.032-.002a1.146 1.146 0 0 1-.146-.015c.199-.062.401-.118.584-.218.056-.028.115-.096.078-.16a.095.095 0 0 0-.085-.043.232.232 0 0 0-.105.03c-.137.065-.256.17-.404.207a.968.968 0 0 1-.314.05c-.04-.037-.042-.1-.038-.152.029-.083.131-.095.195-.14.025-.01.05-.035.077-.035.008 0 .017.003.025.01a.2.2 0 0 0 .087.022c.037 0 .072-.013.09-.049.047-.081.002-.188-.077-.23a.17.17 0 0 0-.243.073c-.029.052-.095.063-.139.1-.007.008-.013.012-.018.012-.012 0-.02-.023-.026-.038-.009-.032.044-.026.055-.047.166-.11.341-.208.501-.325.18-.212.436-.334.684-.448.026-.026.007-.07.037-.096.087-.123.24-.17.373-.225.206-.074.423-.129.645-.13h.022zm6.77 1.575h.009c.625.002 1.263.11 1.808.43.181.104.35.234.472.403-.158-.132-.356-.203-.55-.266.02.06.01.13.044.184.206.125.383.336.391.585.015.337-.147.65-.34.916-.164.23-.346.472-.377.76-.004.052.002.108-.035.148-.087.105-.228.146-.356.171a.857.857 0 0 1-.143.013.547.547 0 0 1-.376-.13c-.088-.09-.147-.206-.234-.3-.226-.277-.507-.532-.856-.638a1.168 1.168 0 0 0-.47-.044l.164.247a.632.632 0 0 1 .171-.024.411.411 0 0 1 .376.205c-.174.005-.343.05-.515.07-.48.07-.962.147-1.44.216-.037-.038-.083-.07-.137-.07a.14.14 0 0 0-.008 0c-.69-.105-1.383-.212-2.082-.217a.09.09 0 0 1-.02.003c-.026 0-.035-.017-.03-.05-.001-.06-.033-.14-.102-.14l-.007.001c-.085.005-.13.089-.152.161-.053.134-.085.296-.212.381a.34.34 0 0 1-.16.038.461.461 0 0 1-.257-.082c-.093-.08-.134-.2-.185-.308-.154-.394-.175-.825-.162-1.244.018-.314.103-.64.322-.876.172-.194.431-.283.679-.338.468-.106.951-.125 1.43-.137h.038c.314 0 .629.021.944.021h.032l.164.001c.598 0 1.196-.03 1.793-.08a6.478 6.478 0 0 1 .368-.01zM46.21 4.41a.953.953 0 0 0-.387.08 1.01 1.01 0 0 1-.409.09 1.01 1.01 0 0 1-.409-.09.702.702 0 0 0-.285-.058c-.217 0-.467.086-.752.258-.289-.172-.542-.258-.76-.258a.705.705 0 0 0-.287.058 1.01 1.01 0 0 1-.409.09 1.01 1.01 0 0 1-.409-.09.953.953 0 0 0-.388-.08c-.172 0-.356.042-.554.125-.243.102-.436.153-.58.153a.383.383 0 0 1-.168-.034 1.649 1.649 0 0 0-.304-.124.158.158 0 0 0-.046-.008c-.052 0-.07.042-.054.127.107.313.316.476.629.49l.145.002c.247 0 .453-.029.617-.087a.847.847 0 0 1 .286-.047c.128 0 .267.024.417.071.173.055.343.083.509.083.096 0 .19-.01.284-.028a.945.945 0 0 1 .18-.018c.166 0 .308.05.428.15a2.25 2.25 0 0 0-.5.21c-.112.066-.22.17-.231.304a1.428 1.428 0 0 0-.327.176c-.197.135-.368.306-.54.47-.082.06-.178.102-.257.167-.066.043-.124.111-.119.195-.008.108.043.208.058.31.008.231.139.525.394.555l1.056-.12h.005c.025 0 .064-.017.089-.017.011 0 .02.004.022.014.005.724.12 1.465.462 2.11.12.23.275.443.447.637.047.2-.06.389-.154.557-.09.159-.242.275-.313.445-.089.18-.11.39-.226.558-.103.164-.251.293-.397.418-.122.113-.242.235-.308.39-.341.255-.676.537-.884.913-.008.029.019.035.044.035l.025-.002h1.027a1.06 1.06 0 0 0 .261-.32c.045.018.097.03.148.03a.245.245 0 0 0 .2-.089.257.257 0 0 0 .069-.204c.01-.34.119-.69.35-.943.11-.1.25-.167.372-.25.063-.055.105-.129.164-.189a5.13 5.13 0 0 1 .92-.846c.02-.01.046-.035.07-.035.009 0 .017.004.026.013.17.118.3.284.422.448.061.193.139.39.288.534a.719.719 0 0 0 .235.156c.11.252.144.527.157.8-.24.28-.461.578-.65.895h1.168a.726.726 0 0 0 .191-.481h.025c.113 0 .229-.065.26-.178.05-.15-.024-.309-.107-.433-.173-.257-.332-.541-.35-.857-.006-.12.004-.243-.029-.36a.817.817 0 0 0-.255-.43c-.193-.208-.273-.491-.33-.763.26.01.519.024.776.058.345.044.691.102 1.03.18.02.007.055.009.048.04.017.1.086.198.186.224.062.18.117.373.256.509.024.02.053.035.082.049.017-.215.04-.43.1-.637l1.022-.097c-.062.42-.145.85-.365 1.218-.202.33-.472.612-.757.871-.072.101-.135.222-.247.283a.276.276 0 0 0-.147.05c-.17.11-.281.289-.393.454-.062.098-.12.198-.176.3h1.282c.017-.104.03-.21.027-.316a.31.31 0 0 0 .099.016.248.248 0 0 0 .218-.112.632.632 0 0 0 .09-.273c.256-.254.41-.59.627-.874a1.14 1.14 0 0 1 .458-.365.69.69 0 0 0 .33-.472l.016.001c.062 0 .109-.055.15-.092a.45.45 0 0 0 .09.009c.093 0 .187-.031.235-.115a.335.335 0 0 0 .031-.074c.328.21.586.54.68.921.052.172.025.354.031.532v.308a7.003 7.003 0 0 0-.662.906h1.17a.769.769 0 0 0 .19-.49.286.286 0 0 0 .036.002c.102 0 .208-.054.244-.154.06-.15-.008-.314-.087-.443-.041-.067-.023-.151-.034-.226a18.68 18.68 0 0 1-.023-1.032c.006-.12.016-.258-.061-.36-.04-.045-.114-.02-.15-.072-.075-.093-.106-.212-.14-.325-.061-.209-.057-.452.074-.634a2.01 2.01 0 0 0 .24-.372c.082-.164.144-.337.2-.512a3.4 3.4 0 0 1-.107 1.01c-.08.437-.047.885.009 1.323.03.208.07.428.202.598.045.054.118.1.19.1a.154.154 0 0 0 .081-.022.382.382 0 0 0 .195-.354c.003-.202-.064-.395-.096-.592-.073-.35-.149-.699-.226-1.047.102-.582.17-1.184.056-1.769-.071-.353-.24-.707-.547-.912a3.783 3.783 0 0 0-.594-.31 3.356 3.356 0 0 0-1.498-.256 25.305 25.305 0 0 1-3.205-.119 3.62 3.62 0 0 1-1.002-.22c-.578-.219-1.083-.583-1.598-.92a1.865 1.865 0 0 0-.652-.259.828.828 0 0 1 .397-.097c.06 0 .123.006.187.017.081.015.164.022.248.022.168 0 .343-.029.525-.087.15-.047.29-.071.417-.071.103 0 .199.015.286.047.165.058.37.087.617.087.047 0 .096 0 .146-.003.313-.013.525-.176.638-.489.011-.085-.012-.127-.07-.127a.183.183 0 0 0-.05.008 2.007 2.007 0 0 0-.298.124.395.395 0 0 1-.171.034c-.145 0-.337-.051-.577-.153a1.414 1.414 0 0 0-.55-.125zm9.609-1.838q-.117 0-.117.08 0 .088.117.11h.037q.087 0 .131-.065.08-.081-.139-.125zm2.277.242q-.154 0-.279.088l.044.117q.037-.11.25-.11.102 0 .256.03l.241.058.015-.08q-.161-.023-.396-.081-.065-.022-.131-.022zm.007.212q-.022.059.022.095l-.103-.036h-.007q.03-.022.088-.059zm-1.838-.234q-.036.19.081.336-.205-.043-.286-.08.052-.146.205-.256zm1.94.205q0 .066.022.131h-.022q-.021-.065-.021-.131zm.103.022q.08.058.154.066-.117.036-.161.043.08-.05.007-.11zm-.088-.066q-.022 0-.036.007-.088 0-.293.103v.044q.183.08.33.08h.036q.153-.007.366-.08v-.044q-.293-.11-.403-.11zm-1.56.044q0 .11.096.263-.14-.08-.249-.095.051-.102.154-.168zm.403.11q-.022.095.052.095h.029q0 .08.037.16-.161-.036-.279-.08.074-.124.161-.175zm.462.117q.044.044.029.19l-.205-.066.176-.124zm-1.72-.696q.029 0 .058.008.197.043.6.168.293.088.842.088.212 0 .454-.015.161-.044.307-.044h.088q.19.022.33.11.044.03.11.03.102 0 .263-.06.132-.043.308-.043.205 0 .46.058.491.11.872.432 2.094 0 3.258.25 1.171.248 2.27.702 1.105.454 2.415.717 1.31.264 2.555.49-.915.081-1.677.081-1.508 0-2.379-.329-.666-.264-1.332-.264-.615 0-1.223.227v.008q-.19-.22-.322-.22-.051 0-.088.03-.146.11-.227.307-.578-.3-.57-.681.007-.38.966-.52-.147-.014-.279-.014-1.032 0-1.032.71-.285.322-2.372.336-.029.388-.16.388-.089 0-.213-.16-.542-.367-.542-.835.169-.25.557-.25.234 0 .556.089-.14-.176-.534-.366-.103-.051-.213-.051-.344 0-.82.424-.402 0-.549-.227.227-.08.132-.139-.432-.102-.915-.183-.703-.102-1.12-.395-.762-.161-.74-.242.608.14.74.161.139.022.359.103.212.08.541.16.322.081 1.01.14.14.007.096.066-.052.058.08.102.037.015.073.015.066 0 .096-.059.095-.197-.25-.249-.336-.05-.541-.095-.205-.044-.373-.256-.103-.117-.198-.117-.066 0-.132.058-.066.066-.117.066-.066 0-.102-.095-.037-.102-.096-.102-.044 0-.102.044-.051.043-.095.043-.066 0-.095-.102-.044-.124-.14-.124-.036 0-.08.014-.066.03-.103.03-.058 0-.065-.06-.008-.094-.096-.153-.029-.022-.065-.022-.066 0-.154.08-.125.11-.205.235-.374-.007-.3-.27.058-.228.22-.228zm-.096-.278q-.27.015-.373.461-.066.52.424.63.667.205.974.373.307.176 1.523.513.358.38.87.38h.089q.058.483.373.688.22.154-.11.154-.139 0-.388-.03-.424-.05-.79-.05-.322 0-.593.036-.586 0-.235.784.052-.235.132-.235.088 0 .212.235.088-.227.176-.227.095 0 .19.227.096-.279.264-.279.088 0 .19.066.132.088.469.088.476 0 1.347-.16.227-.096.27-.55 1.956 0 2.197-.161.066.066.278.19.205.125-.417.198-.659-.176-1.04-.176-.117 0-.205.015-.431 0-.226.769.058-.161.139-.161.087 0 .205.16.08-.204.175-.204.088 0 .19.205.096-.235.44-.235.241 0 .608.11.212.066.395.066.578 0 .864-.63.11.11.278.11.168 0 .395-.11.176-.087.483-.087.498 0 1.333.212 1.186.3 2.299.3.16 0 .329-.007 1.26-.052 1.955-.278.285-.279-.044-.667-.645-.095-2.277-.402-1.625-.308-3.177-.989-1.552-.68-3.134-.717-1.58-.044-2.189-.073-.563-.278-1.068-.366-.205-.037-.352-.037-.205 0-.278.073-.08.074-.176.074-.058 0-.124-.03-.169-.073-.44-.11h-.087q-.22 0-.38.14-.733-.037-1.348-.11-.33-.176-.586-.176zm2.893 10.629c.806 0 1.814.414 2.302.902.427.426.483.992.498 1.518h-5.576c.016-.526.072-1.092.499-1.518.487-.488 1.472-.902 2.277-.902zm0-.451c-.955 0-1.983.441-2.586 1.044-.618.618-.688 1.432-.688 2.04v.238h6.549v-.237c0-.61-.046-1.423-.664-2.04-.603-.604-1.655-1.045-2.61-1.045zm9.199-1.91l-.015.008 2.718 5.209h1.025l-2.718-5.217zm-2.278.008l-1.025.008 2.718 5.216 1.026-.008-2.719-5.216zm13.351-7.894c.749 0 1.416.346 1.851.888h-3.703a2.368 2.368 0 0 1 1.852-.888zm2.102 1.27c.143.272.234.575.262.897h-4.729a2.36 2.36 0 0 1 .263-.897zm.264 1.28a2.36 2.36 0 0 1-.248.896h-4.236a2.361 2.361 0 0 1-.249-.897zm-.49 1.279a2.368 2.368 0 0 1-1.876.918 2.37 2.37 0 0 1-1.876-.918zM78.873 2.25a2.76 2.76 0 0 0-2.756 2.756 2.759 2.759 0 0 0 2.756 2.755 2.76 2.76 0 0 0 2.755-2.755 2.76 2.76 0 0 0-2.755-2.756zm-3.725 9.056l-.753 3.395-.715-.332 1.468-3.063zm9.13-2.286c-.015 0-.03 0-.044.002-.106.01-.23.052-.37.115-.775.98-1.35 2.194-1.723 3.637-.43.072-1.442.515-3.025 1.327a.705.705 0 0 1-.247.039 2.25 2.25 0 0 1-.659-.128 1.002 1.002 0 0 0-.308-.042c-.084 0-.172.006-.266.016l-.332.102-2.144-3.496-2.13 4.275.293.102.14-.294.128.051-.14.358.204.076.14-.332.153.077-.127.344.23.09.114-.345.179.09-.077.344.243.115.855-3.93 1.595 2.577-.37.102-.383.115c.01.106.03.183.076.243.048.059.132.094.243.102.11.008.162.034.179.09.07.239.156.45.255.612.078.127.17.19.274.19a.295.295 0 0 0 .083-.012c.149-.046.301-.086.447-.14l.15.225c.016.023.043.033.074.033.109 0 .272-.119.22-.2l-.138-.211c.301-.13.59-.292.88-.447.988-.144 1.857-.366 2.591-.663.734-.297 1.24-.615 1.519-.957.079-.045.421-.632 1.02-1.749.6-1.116.776-1.881.536-2.31a.36.36 0 0 0-.114-.127.407.407 0 0 0-.225-.066z"/><path d="M8.22.375c-9.625 0-9.625 17.25 0 17.25m0-17.25h76.498M8.22 17.625h76.498M92.405.375v17.25M84.718.375c9.625 0 9.625 17.25 0 17.25" fill="none" stroke="#000"/></svg>