<svg xmlns="http://www.w3.org/2000/svg" width="100.875" height="18"><path d="M10.09 2.25q-.248 0-.27.218l.24-.053q.15 0 .082.158-.173.165-.052.488-.22.475-.848.475l-.076-.002q.03.353-.15.533-.63.36-.63.66.495.234.164.571-.33.338-.33.458.218.068.3.233.376.916.759 1.3l-.03.307q.368 0 .405-.39-.69-.841-.668-1.795.03-.954 1.209-1.877.338-.188.338-.728 0-.556-.443-.556zm4.505 0q-.443 0-.443.556 0 .54.322.728 1.194.923 1.224 1.877.023.954-.683 1.795.053.39.406.39l-.023-.308q.375-.383.758-1.299.09-.165.293-.233 0-.12-.323-.458-.323-.337.165-.57 0-.3-.623-.661-.18-.18-.165-.533l-.075.002q-.614 0-.833-.475.112-.323-.053-.488-.068-.158.083-.158l.24.053q-.023-.218-.27-.218zm-2.257 4.115q.883 0 1.769.675.69.586.082 1.344H10.48q-.608-.758.098-1.344.878-.675 1.76-.675zM9.684 8.64Q8.64 9.856 8.64 10.494q.083.368.323.368.316 0 .406-.285 0-.946.405-1.585l-.09-.352zm5.316 0l-.09.352q.405.639.405 1.585.083.285.406.285.233 0 .323-.368 0-.638-1.044-1.854zm-3.289.135q.488 0 .488.518v3.912q-1.531 0-1.734-.984-.203-.984-.023-3.446zm2.508 0q.203 2.462-.007 3.446-.21.984-1.742.984V9.293q0-.518.488-.518zm-1.99-4.182v.27q0 .188-.15.188-.232 0-.555-.27h-.166l.519.975-.166.053q-.27-.353-.54-.728-.042-.02-.075-.02-.082 0-.098.125l.406.706q-.286.232-.286.405-.45 0-.676.353-.653.458-.653 1.014 0 .42.27.96-.187 1.044-.187 2.629 0 1.043.36 1.674.368.63 2.103.63 1.734 0 2.094-.63.368-.63.368-1.674.015-1.585-.172-2.613.27-.556.27-.976 0-.556-.66-1.014-.234-.353-.67-.353 0-.173-.307-.405l.406-.706q0-.124-.078-.124-.03 0-.073.019-.27.375-.54.728l-.165-.053.503-.976h-.15q-.338.27-.579.27-.127 0-.127-.187v-.27zm-2.967 6.621l-.028.001q-.879 1.554-.879 2.448 0 .893.308 1.434.315.54.856.653-.728-.976-.728-1.562 0-.578.135-.946.12 1.029.54 1.45-.187-.827-.172-1.743.007-.923.308-1.374.014-.36-.34-.36zm6.16 0q-.354 0-.34.361.286.45.301 1.374.015.916-.165 1.742.42-.42.54-1.449.136.368.136.946 0 .586-.729 1.562.54-.113.841-.653.308-.54.308-1.434 0-.894-.863-2.448h-.03zm7.297-4.989q.215 0 .298.216-.106-.042-.182-.042-.16 0-.183.191-.032.34-.183.34h-.007q-.158-.008-.224-.14 0-.1.248-.332.116-.233.233-.233zm.237.297q.061 0 .061.085-.03.334-.256.334-.02 0-.042-.003v-.033l.066-.149q.015-.233.133-.233h.016l.022-.001zm-1.477.188q-.15 0-.278.087-.157.108-.09.374h.065q.017-.166.1-.274.083-.108.274-.108.19 0 .19-.05l-.19-.024q-.036-.005-.07-.005zm-.004.146q-.2 0-.2.281v.1q.018.003.031.003.056 0 .07-.053.281-.066.414-.232-.116-.1-.315-.1zm-.299.43q-.082.117-.016.29.066.175.829.241l.116-.05q-.962-.066-.862-.447l-.067-.033zm1.078-.795q-.215.149-.166.381.034.1.2.166.149.066.116.348.033.614-.515.945-.082-.199-.323-.215l-.044-.002q-.206 0-.296.143-.07.11-.164.11-.04 0-.085-.02-.027.008-.05.008-.15 0-.165-.272.166-.017.232-.067t.249-.116q-.081-.092-.166-.092-.037 0-.075.018-.124.058-.257.09-.282-.049-.215-.281-.166-.183-.116-.315.364-.232.605-.44.24-.207.539-.248.298-.042.696-.141zm.979-.15q.43.034.912.49.48.456.563.937-.895 1.31-2.537 2.089-.066-.697.233-1.393.547-.497.48-.837-.066-.34.216-.456.63-.116.133-.83zm6.083 2.801l.052.002q.746.133 1.36.671.613.54.879 1.335.05.083-.365.083-1.741-.73-2.206-1.476-.205-.615.28-.615zm-4.425-.827q1.033.99 2.634.99.275 0 .566-.028.03-.01.057-.01.242 0 .242.805-1.642.73-2.587.796-.28.02-.568.02-.684 0-1.414-.11-.157-.025-.292-.025-.752 0-.794.746-.696-.83-.497-1.128 1.641-.73 2.653-2.056zM22.87 5.9l-.078.001q-.754.025-.804.307-.299.116-.556.19-.257.075-.48.274-.224.2-.498.357-.273.157-.323.273-.083.183.149.398 0 .183.166.299.033 0 .074.282.042.281.307.414.332-.05.431-.19.085-.12.217-.12.024 0 .049.003.165.025.248.274-.066.249-.19.879-.125.63 0 .928.124.299-.44.672-.43.285-1.178.285-.233 0-.497-.028-.575-.16-.925-.16-.376 0-.492.185-.224.356.041.622h.647q1.488.053 2.52.053 2.488 0 2.33-.31-.18-.353.293-.353.116 0 .27.021.245.033.536.033.65 0 1.538-.166 1.285-.24 1.674-.447.25-.133.54-.133.164 0 .34.041.488.117.588.415-.216.398-.753.398-.245 0-.557-.083-.522-.14-.857-.14-.303 0-.453.115-.315.24-.033.572h5.389q.547-.497.232-1.152-.315-.655-1.061-1.244-.746-.588-1.642-1.07.234-.204.452-.204.276 0 .527.329.262.345.445.345.129 0 .218-.17-.591-1.058-1.233-1.058-.043 0-.085.004-.689.075-1.252.771-.683.172-1.272.172-1.286 0-2.128-.818-.464-1.178-1.11-1.634Q23.58 5.9 22.87 5.9zm12.268-3.007q1.153.168 1.205 1.054v6.393q-.539-.643-1.934-.904l.73-6.543zm-.324-.643l-.863 7.644q1.923.22 2.392 1.372v1.28h.573v-8.6q0-1.435-2.102-1.696zm5.766 6.306l-.012.006 2.073 3.973h.781L41.35 8.556zm-1.738.006l-.782.006 2.073 3.978.782-.006-2.073-3.978zm6.911-5.669q1.153.168 1.205 1.054v6.393q-.539-.643-1.934-.904l.73-6.543zm-.324-.643l-.863 7.644q1.923.22 2.392 1.372v1.28h.573v-8.6q0-1.435-2.102-1.696zm-9.812 11.53l-1.666 1.97h.813l.853-1.017.861 1.017.837-1.017.862 1.017.853-1.017.862 1.017.853-1.017.862 1.017.837-1.017.861 1.017.862-1.017.837 1.017.862-1.017.853 1.017h.812l-1.665-1.97-.862.953-.837-.952-.862.952-.861-.952-.837.952-.862-.952-.853.952-.862-.952-.853.952-.862-.952-.837.952-.861-.952zm16.768-7.815h-.015c-.155.002-.255.047-.303.132v.175l-.432.227c-.144.075-.216.144-.216.206l.73-.34c.012.029.062.043.15.043.017 0 .036 0 .057-.002a.7.7 0 0 0 .36-.113V6.21h-.062a.543.543 0 0 0-.263-.077.405.405 0 0 0-.087.01.441.441 0 0 0-.23.11c.053-.112.244-.167.575-.167h.057v-.082a1.556 1.556 0 0 0-.321-.04zm1.113-.115a1.145 1.145 0 0 0-.242.49c-.038.174-.046.58-.026 1.219.474-.268.746-.55.818-.85.072-.298.064-.543-.025-.735l-.165-.03-.185-.052-.175-.042zm-.368-.314h.004c.266.002.524.097.744.242.395.231.771.491 1.154.742.26.156.554.262.854.317-.488.026-.988.101-1.423.333-.284.155-.525.404-.625.716-.09.276-.085.572-.09.86.004.539.105 1.095.401 1.552.018.032.048.063.06.094-.047.045-.11.056-.172.056-.043 0-.087-.005-.127-.007-.18-.032-.311-.176-.431-.303a3.969 3.969 0 0 1-.477-.66c-.262-.489-.35-1.05-.392-1.598-.016-.194-.01-.389-.026-.582-.013-.088-.074-.186-.172-.186a.146.146 0 0 0-.005 0c-.131 0-.238.09-.359.126a1.117 1.117 0 0 1-.373.067c-.127.012-.243.08-.371.08l-.031-.002a1.146 1.146 0 0 1-.146-.015c.198-.062.401-.118.584-.218.055-.028.115-.096.078-.16a.095.095 0 0 0-.085-.043.232.232 0 0 0-.106.03c-.136.065-.255.17-.404.207a.968.968 0 0 1-.313.05c-.04-.037-.043-.1-.039-.152.03-.083.132-.095.196-.14.025-.01.05-.035.076-.035a.04.04 0 0 1 .026.01.2.2 0 0 0 .087.022c.037 0 .071-.013.09-.049.047-.081.002-.188-.077-.23a.17.17 0 0 0-.243.073c-.03.052-.095.063-.139.1-.007.008-.013.012-.018.012-.013 0-.02-.023-.026-.038-.01-.032.044-.026.055-.047.166-.11.34-.208.501-.325.179-.212.436-.334.684-.448.026-.026.007-.07.037-.096.087-.123.239-.17.373-.225.206-.074.423-.129.644-.13h.022zm6.77 1.575h.01c.625.002 1.263.11 1.808.43.18.104.35.234.472.403-.159-.132-.356-.203-.55-.266.02.06.01.13.044.184.206.125.382.336.39.585.015.337-.146.65-.34.916-.164.23-.345.472-.377.76-.004.052.003.108-.034.148-.088.105-.228.146-.357.171a.857.857 0 0 1-.143.013.547.547 0 0 1-.376-.13c-.087-.09-.146-.206-.233-.3-.226-.277-.507-.532-.856-.638a1.168 1.168 0 0 0-.47-.044l.164.247a.632.632 0 0 1 .17-.024.411.411 0 0 1 .377.205c-.174.005-.343.05-.515.07-.48.07-.962.147-1.441.216-.036-.038-.083-.07-.136-.07a.14.14 0 0 0-.009 0c-.69-.105-1.382-.212-2.081-.217a.09.09 0 0 1-.02.003c-.026 0-.035-.017-.03-.05-.001-.06-.033-.14-.102-.14l-.007.001c-.085.005-.13.089-.153.161-.052.134-.085.296-.212.381a.34.34 0 0 1-.16.038.461.461 0 0 1-.256-.082c-.093-.08-.134-.2-.185-.308-.154-.394-.176-.825-.162-1.244.018-.314.103-.64.321-.876.173-.194.432-.283.68-.338.468-.106.95-.125 1.43-.137h.037c.315 0 .63.021.944.021h.033l.163.001c.599 0 1.197-.03 1.793-.08a6.478 6.478 0 0 1 .369-.01zM55.238 4.41a.953.953 0 0 0-.387.08 1.01 1.01 0 0 1-.409.09 1.01 1.01 0 0 1-.409-.09.702.702 0 0 0-.285-.058c-.217 0-.468.086-.752.258-.289-.172-.542-.258-.76-.258a.705.705 0 0 0-.287.058 1.01 1.01 0 0 1-.409.09 1.01 1.01 0 0 1-.409-.09.953.953 0 0 0-.388-.08c-.172 0-.357.042-.554.125-.243.102-.436.153-.58.153a.383.383 0 0 1-.168-.034 1.649 1.649 0 0 0-.304-.124.158.158 0 0 0-.046-.008c-.052 0-.07.042-.054.127.106.313.316.476.628.49l.146.002c.247 0 .452-.029.617-.087a.847.847 0 0 1 .286-.047c.127 0 .266.024.417.071.173.055.342.083.509.083.095 0 .19-.01.284-.028a.945.945 0 0 1 .18-.018c.165 0 .308.05.428.15a2.25 2.25 0 0 0-.501.21c-.111.066-.219.17-.23.304a1.428 1.428 0 0 0-.327.176c-.197.135-.368.306-.54.47-.082.06-.179.102-.258.167-.066.043-.123.111-.118.195-.008.108.043.208.058.31.007.231.138.525.393.555l1.057-.12h.005c.025 0 .064-.017.089-.017.01 0 .02.004.021.014.006.724.121 1.465.463 2.11.12.23.275.443.447.637.046.2-.06.389-.155.557-.09.159-.241.275-.312.445-.09.18-.11.39-.226.558-.104.164-.252.293-.397.418-.122.113-.243.235-.309.39-.34.255-.675.537-.883.913-.008.029.019.035.044.035l.025-.002h1.026a1.06 1.06 0 0 0 .262-.32c.045.018.097.03.147.03a.245.245 0 0 0 .2-.089.257.257 0 0 0 .07-.204c.01-.34.119-.69.35-.943.11-.1.249-.167.372-.25.062-.055.105-.129.164-.189a5.13 5.13 0 0 1 .92-.846c.02-.01.046-.035.07-.035.009 0 .017.004.025.013.17.118.3.284.423.448.06.193.139.39.287.534a.719.719 0 0 0 .236.156c.11.252.143.527.157.8-.24.28-.461.578-.651.895h1.169a.726.726 0 0 0 .191-.481h.024c.114 0 .23-.065.262-.178.05-.15-.026-.309-.108-.433-.174-.257-.332-.541-.351-.857-.005-.12.005-.243-.028-.36a.817.817 0 0 0-.255-.43c-.193-.208-.273-.491-.33-.763.259.01.519.024.776.058.345.044.69.102 1.03.18.02.007.055.009.047.04.017.1.087.198.187.224.061.18.117.373.256.509.024.02.053.035.082.049.017-.215.039-.43.099-.637l1.023-.097c-.062.42-.146.85-.365 1.218-.202.33-.472.612-.758.871-.072.101-.134.222-.247.283a.276.276 0 0 0-.146.05c-.17.11-.282.289-.393.454-.063.098-.12.198-.177.3h1.283c.016-.104.029-.21.027-.316a.31.31 0 0 0 .098.016.248.248 0 0 0 .219-.112.632.632 0 0 0 .09-.273c.256-.254.409-.59.627-.874a1.14 1.14 0 0 1 .458-.365.69.69 0 0 0 .33-.472l.016.001c.062 0 .109-.055.15-.092a.443.443 0 0 0 .09.009c.092 0 .187-.031.235-.115a.335.335 0 0 0 .031-.074c.328.21.586.54.68.921.052.172.024.354.03.532v.308a7.003 7.003 0 0 0-.661.906h1.17a.769.769 0 0 0 .19-.49.286.286 0 0 0 .035.002c.103 0 .21-.054.244-.154.06-.15-.007-.314-.086-.443-.042-.067-.023-.151-.035-.226-.02-.343-.021-.688-.022-1.032.005-.12.016-.258-.062-.36-.04-.045-.114-.02-.15-.072-.074-.093-.105-.212-.14-.325-.06-.209-.057-.452.075-.634a2.01 2.01 0 0 0 .24-.372c.082-.164.144-.337.2-.512.011.34-.018.682-.107 1.01-.08.437-.047.885.008 1.323.032.208.071.428.202.598.045.054.118.1.19.1a.154.154 0 0 0 .082-.022c.13-.065.198-.213.195-.354.003-.202-.064-.395-.096-.592-.073-.35-.15-.699-.227-1.047.102-.582.17-1.184.056-1.769-.07-.353-.24-.707-.546-.912a3.783 3.783 0 0 0-.594-.31 3.356 3.356 0 0 0-1.498-.256 25.305 25.305 0 0 1-3.205-.119 3.62 3.62 0 0 1-1.002-.22c-.578-.219-1.084-.583-1.598-.92a1.865 1.865 0 0 0-.652-.259.828.828 0 0 1 .397-.097c.06 0 .123.006.187.017.08.015.164.022.248.022.168 0 .343-.029.525-.087.15-.047.29-.071.417-.071a.83.83 0 0 1 .286.047c.165.058.37.087.617.087.047 0 .096 0 .146-.003.312-.013.525-.176.638-.489.01-.085-.013-.127-.07-.127a.183.183 0 0 0-.05.008 2.007 2.007 0 0 0-.299.124.395.395 0 0 1-.17.034c-.145 0-.337-.051-.578-.153a1.414 1.414 0 0 0-.55-.125zm10.967-2.16l-1.85 2.187h.903l.947-1.13.957 1.13.93-1.13.956 1.13.948-1.13.957 1.13.947-1.13.957 1.13.93-1.13.956 1.13.957-1.13.93 1.13.956-1.13.948 1.13h.902l-1.85-2.187-.957 1.057L75.7 2.25l-.957 1.057-.956-1.057-.93 1.057L71.9 2.25l-.947 1.057-.957-1.057-.948 1.057-.956-1.057-.93 1.057-.957-1.057zm1.425 10.629c.806 0 1.814.414 2.302.902.427.426.483.992.498 1.518h-5.576c.016-.526.071-1.092.498-1.518.488-.488 1.473-.902 2.278-.902zm0-.451c-.955 0-1.984.441-2.586 1.044-.618.618-.688 1.432-.688 2.04v.238h6.549v-.237c0-.61-.047-1.423-.665-2.04-.602-.604-1.654-1.045-2.61-1.045zm8.078-1.91l-.015.008 2.718 5.209h1.025l-2.718-5.217zm-2.278.008l-1.025.008 2.718 5.216 1.025-.008-2.718-5.216zm13.35-7.894c.75 0 1.417.346 1.852.888h-3.703a2.368 2.368 0 0 1 1.851-.888zm2.102 1.27c.143.272.235.575.263.897h-4.73a2.36 2.36 0 0 1 .263-.897zm.265 1.28a2.36 2.36 0 0 1-.249.896h-4.236a2.361 2.361 0 0 1-.248-.897zm-.491 1.279a2.368 2.368 0 0 1-1.876.918 2.37 2.37 0 0 1-1.875-.918zM86.78 2.25a2.76 2.76 0 0 0-2.755 2.756A2.759 2.759 0 0 0 86.78 7.76a2.76 2.76 0 0 0 2.756-2.755A2.76 2.76 0 0 0 86.78 2.25zm-3.726 9.056l-.753 3.395-.714-.332 1.467-3.063zm9.13-2.286c-.014 0-.029 0-.044.002-.106.01-.23.052-.37.115-.774.98-1.35 2.194-1.723 3.637-.428.072-1.441.515-3.024 1.327a.705.705 0 0 1-.247.039 2.25 2.25 0 0 1-.66-.128 1.002 1.002 0 0 0-.307-.042c-.084 0-.173.006-.266.016l-.332.102-2.144-3.496-2.131 4.275.293.102.14-.294.128.051-.14.358.204.076.14-.332.154.077-.128.344.23.09.115-.345.178.09-.076.344.242.115.855-3.93 1.595 2.577-.37.102-.383.115c.01.106.03.183.077.243.047.059.132.094.242.102.111.008.163.034.18.09.07.239.156.45.254.612.079.127.17.19.274.19a.295.295 0 0 0 .084-.012c.149-.046.3-.086.446-.14l.15.225c.017.023.043.033.075.033.108 0 .272-.119.22-.2l-.138-.211c.301-.13.59-.292.88-.447.988-.144 1.857-.366 2.59-.663.735-.297 1.24-.615 1.52-.957.078-.045.421-.632 1.02-1.749.599-1.116.776-1.881.536-2.31a.36.36 0 0 0-.115-.127.407.407 0 0 0-.224-.066z"/><path d="M8.22.375c-9.625 0-9.625 17.25 0 17.25m0-17.25h84.405M8.22 17.625h84.405m7.687-17.25v17.25M92.625.375c9.625 0 9.625 17.25 0 17.25" fill="none" stroke="#000"/></svg>