<svg xmlns="http://www.w3.org/2000/svg" width="121.511" height="18"><path d="M12.938 8.519c1.02 1.145 1.864 2.453 2.617 3.781.158.195-.02.374-.15.559-.496-1.575-1.637-2.79-2.467-4.34zm-.987-5.783c.085.396-.071.854-.372.989l.096.205c.376-.178.737-.713.79-1.193.514.03.654.417.735.865.096.307-.002 1.05.386 1.179 1.147.444 2.024.957 2.81 1.734 1.359 1.698 2.778 3.342 4.136 5.042a69.07 69.07 0 0 0 1.401 1.725c-2.062-1.542-4.366-2.72-6.626-3.946-1.202-.652-2.348-1.186-2.348-2.623 0-.773 1.424-1.42 1.366-1.521-.005-.01-.022-.013-.048-.013-.292 0-1.789.555-1.789 1.725 0 .324.087.625.238.905h-.007c-1.641-.87-1.38-2.63-1.317-4.18-.682-.038-1.244-.41-1.892-.565.503-.065 1.003-.15 1.507-.201a.4.4 0 0 0-.238.15c-.009.166.178.239.36.239.179 0 .352-.07.335-.19a.457.457 0 0 0-.39-.206c.25-.036.584-.09.867-.12zm2.867 9.977c.147.357.224.736.307 1.11.239-.193.47-.392.667-.628-.128.694-.366 1.395-.945 1.395-.35 0-.512-.237-.288-.954.106-.338.19-.66.26-.923zm-.628-3.438c2.34 1.247 4.658 2.506 6.872 3.969.52.422.985.893 1.3 1.334-.209.324-.606.435-.973.46-1.874-.066-2.607-1.872-3.597-3.162l-.538-.654.093.838c.006.15.16.864-.07.864a.17.17 0 0 1-.067-.016l-.947-1.134c-.101.067-.197.143-.301.205-.47-.95-1.157-1.836-1.772-2.704zM12.17 2.25c-.492 0-.996.088-1.474.133-.57.278-1.147.066-1.745.283-.431.194-.552.587-.731.98.254-.085.486-.12.704-.12.697 0 1.257.351 1.993.538-.001.37-.059.788-.087 1.21-.114 1.145.49 2.15 1.361 2.865.625 1.39 1.489 2.457 2.12 3.542-.076.488-.53 2.327-.753 2.988a8.341 8.341 0 0 1-1.365.115 7.003 7.003 0 0 1-.593-.024c-.355 0-.744.606-1.127.93l7.772.06c-.198-.7-1.58-1.072-2.07-1.072a.685.685 0 0 0-.075.003c.173-.495.389-.96.45-1.653.217.195.46.404.764.426.371-.028.522-.281.569-.612.84 1.39 1.781 2.526 3.506 2.693.596-.029 1.339-.29 1.5-.923.79-.044.21-.815-.083-1.116-2.151-2.33-3.927-4.988-6.053-7.334-.819-.808-1.743-1.354-2.888-1.807-.085-.21-.113-.507-.169-.835-.06-.357-.251-.942-.6-1.124a2.667 2.667 0 0 0-.926-.146zm9.163 0c-.075 0-.15.007-.225.014-1.084.116-1.855 1.213-1.684 2.277.075.79.566 1.234 1.104 1.67 1.603.982 1.153.62 2.769 1.439l.259-.484c-1.923-.9-2.155-1.043-2.755-1.439-.49-.395-.88-.832-.845-1.493-.014-.457.259-.927.566-1.152.245-.184.559-.293.866-.293.231 0 .45.054.64.19.485.24.75 1.03.396 1.528a.94.94 0 0 1-.75.402.694.694 0 0 1-.41-.13c-.245-.136-.429-.613-.176-.879-.116-.123-.28-.273-.403-.273-.082 0-.143.062-.184.205-.273.654.164 1.398.818 1.575.116.034.232.054.348.054.75 0 1.446-.627 1.446-1.404.068-.907-.655-1.739-1.562-1.793a2.204 2.204 0 0 0-.218-.014zm10.34.72q2.33 0 4.943 1.126-2.613 1.095-4.943 1.095-2.316 0-4.944-1.095 2.628-1.126 4.944-1.126zm0-.72q-2.879 0-6.617 1.83 3.738 1.815 6.617 1.815 2.878 0 6.616-1.815-3.723-1.83-6.616-1.83zm0 10.575q2.33 0 4.943 1.126-2.613 1.095-4.943 1.095-2.316 0-4.944-1.095 2.628-1.126 4.944-1.126zm0-.72q-2.879 0-6.617 1.83 3.738 1.815 6.617 1.815 2.878 0 6.616-1.815-3.723-1.83-6.616-1.83zm9.673-9.012q1.51.22 1.58 1.382v8.382q-.707-.843-2.537-1.184l.957-8.58zm-.425-.843l-1.132 10.022q2.521.289 3.136 1.8v1.678h.752V4.475q0-1.883-2.756-2.225zm5.812.843q1.511.22 1.58 1.382v8.382q-.706-.843-2.536-1.184l.956-8.58zm-.425-.843l-1.131 10.022q2.52.289 3.136 1.8v1.678h.751V4.475q0-1.883-2.756-2.225zm11.394.532L56.34 7.413h-3.703l-1.362-4.631zm-7.138-.532l1.675 5.695h4.498l1.675-5.695zm5.046 7.921v.422h-2.23v-.422zm-1.122.831q1.398 0 1.932.712.534.713.534 1.28-.013.883-.738 1.543-.725.66-1.728.66-1.015 0-1.74-.66-.726-.66-.726-1.53 0-.58.435-1.293.436-.712 2.031-.712zm-1.74-1.266v.99q-.475.276-.87.896-.397.62-.41 1.372 0 .883.732 1.787.732.903 2.288.969 1.543-.066 2.282-.97.738-.903.738-1.773-.013-.765-.408-1.391-.396-.627-.884-.904v-.976zm9.034-7.486q-.248 0-.27.218l.24-.053q.15 0 .082.158-.172.165-.052.488-.22.475-.847.475l-.077-.002q.03.353-.15.533-.63.36-.63.66.495.234.165.571-.33.338-.33.458.217.068.3.233.375.916.758 1.3l-.03.307q.368 0 .405-.39-.69-.841-.668-1.795.03-.954 1.209-1.877.338-.188.338-.728 0-.556-.443-.556zm4.505 0q-.443 0-.443.556 0 .54.323.728 1.194.923 1.224 1.877.022.954-.684 1.795.053.39.406.39l-.023-.308q.376-.383.759-1.299.09-.165.292-.233 0-.12-.322-.458-.323-.337.165-.57 0-.3-.623-.661-.18-.18-.166-.533l-.074.002q-.614 0-.834-.475.113-.323-.053-.488-.067-.158.083-.158l.24.053q-.022-.218-.27-.218zM64.03 6.365q.882 0 1.768.675.69.586.082 1.344h-3.709q-.608-.758.098-1.344.878-.675 1.76-.675zM61.376 8.64q-1.043 1.216-1.043 1.854.082.368.323.368.315 0 .405-.285 0-.946.406-1.585l-.09-.352zm5.316 0l-.09.352q.406.639.406 1.585.082.285.405.285.233 0 .323-.368 0-.638-1.044-1.854zm-3.288.135q.488 0 .488.518v3.912q-1.532 0-1.735-.984-.202-.984-.022-3.446zm2.507 0q.203 2.462-.007 3.446-.21.984-1.742.984V9.293q0-.518.488-.518zm-1.99-4.182v.27q0 .188-.15.188-.232 0-.555-.27h-.165l.518.975-.165.053q-.27-.353-.54-.728-.043-.02-.075-.02-.082 0-.099.125l.406.706q-.285.232-.285.405-.451 0-.676.353-.653.458-.653 1.014 0 .42.27.96-.188 1.044-.188 2.629 0 1.043.36 1.674.368.63 2.103.63 1.734 0 2.095-.63.368-.63.368-1.674.015-1.585-.173-2.613.27-.556.27-.976 0-.556-.66-1.014-.233-.353-.669-.353 0-.173-.308-.405l.406-.706q0-.124-.078-.124-.03 0-.072.019-.27.375-.54.728l-.166-.053.503-.976h-.15q-.338.27-.578.27-.128 0-.128-.187v-.27zm-2.966 6.621l-.03.001q-.878 1.554-.878 2.448 0 .893.308 1.434.316.54.856.653-.728-.976-.728-1.562 0-.578.135-.946.12 1.029.54 1.45-.187-.827-.172-1.743.008-.923.308-1.374.014-.36-.34-.36zm6.159 0q-.354 0-.34.361.286.45.301 1.374.015.916-.165 1.742.42-.42.54-1.449.136.368.136.946 0 .586-.728 1.562.54-.113.84-.653.308-.54.308-1.434 0-.894-.863-2.448h-.029zM79.22 2.84l.18.075-5.403 12.034c-.092-.06-.606-.312-.773-.507 0-.13.092-.219.36-.576.281-.375.58-.766.24-1.269-.158-.232-.374-.401-.654-.401-.175 0-.374.065-.6.221-.47-.28-.925-.42-1.666-.42-.13-1.141-.275-1.861-.435-2.762h5.359L79.22 2.84zm-.01-.59a.985.985 0 0 0-.094.004L75.678 8.38c-.12.2-.245.3-.376.3a.349.349 0 0 1-.045.003c-.504 0-1.935-.922-4.293-2.765-.54-.56-.82-1.12-.84-1.681-.02-.56.147-.88.502-.961.108-.024.204-.036.29-.036.2 0 .344.064.43.194.126.185.118.37-.022.555-.07.093-.134.139-.191.139-.058 0-.109-.046-.154-.139-.09-.185-.185-.278-.285-.278-.19.07-.235.236-.135.496.093.241.263.362.511.362.02 0 .04 0 .06-.002.28-.02.475-.115.585-.285.11-.17.165-.37.165-.6a.88.88 0 0 0-.225-.601c-.15-.17-.368-.278-.653-.323a1.027 1.027 0 0 0-.16-.013c-.233 0-.464.08-.696.238-.285.195-.45.516-.496.961-.045.445.078.936.368 1.471.29.536.813 1.074 1.569 1.614s1.474 1.056 2.154 1.546c.016.064-.019.096-.105.096a.533.533 0 0 1-.075-.006h-3.843c.32 1.832.515 3.128.586 3.888a4 4 0 0 1 .268-.01c.701 0 1.402.209 2.103.626.15-.2.313-.3.488-.3s.265.095.27.285c-.305.488-.753.961-.908 1.516l1.682 1.081 5.72-13.105c-.182-.263-.421-.395-.718-.395zm3.773.843q1.51.22 1.579 1.382v8.382q-.706-.843-2.536-1.184l.957-8.58zm-.425-.843l-1.132 10.022q2.521.289 3.136 1.8v1.678h.752V4.475q0-1.883-2.756-2.225zm5.812.843q1.511.22 1.58 1.382v8.382q-.707-.843-2.536-1.184l.956-8.58zm-.425-.843l-1.131 10.022q2.52.289 3.136 1.8v1.678h.751V4.475q0-1.883-2.756-2.225zm13.835.59l.18.075-5.403 12.034c-.092-.06-.606-.312-.773-.507 0-.13.092-.219.36-.576.28-.375.58-.766.24-1.269-.158-.232-.374-.401-.654-.401-.175 0-.374.065-.6.221-.47-.28-.926-.42-1.666-.42-.13-1.141-.275-1.861-.436-2.762h5.36l3.392-6.395zm-.01-.59c-.032 0-.063.001-.095.004L98.238 8.38c-.12.2-.246.3-.376.3a.349.349 0 0 1-.045.003c-.505 0-1.936-.922-4.293-2.765-.54-.56-.82-1.12-.84-1.681-.02-.56.147-.88.502-.961a1.34 1.34 0 0 1 .29-.036c.2 0 .343.064.43.194.126.185.118.37-.022.555-.07.093-.134.139-.191.139-.058 0-.11-.046-.154-.139-.09-.185-.185-.278-.285-.278-.19.07-.236.236-.136.496.093.241.264.362.512.362.02 0 .039 0 .059-.002.28-.02.475-.115.585-.285.11-.17.166-.37.166-.6a.881.881 0 0 0-.226-.601c-.15-.17-.367-.278-.653-.323a1.027 1.027 0 0 0-.16-.013c-.232 0-.464.08-.695.238-.286.195-.45.516-.496.961-.045.445.078.936.368 1.471.29.536.813 1.074 1.569 1.614.755.54 1.473 1.056 2.154 1.546.016.064-.02.096-.106.096a.533.533 0 0 1-.074-.006h-3.843c.32 1.832.515 3.128.585 3.888.09-.006.18-.01.269-.01.7 0 1.402.209 2.103.626.15-.2.313-.3.488-.3s.265.095.27.285c-.305.488-.753.961-.908 1.516l1.681 1.081 5.72-13.105c-.181-.263-.42-.395-.717-.395zm3.772.843q1.511.22 1.58 1.382v8.382q-.706-.843-2.536-1.184l.956-8.58zm-.425-.843l-1.131 10.022q2.52.289 3.136 1.8v1.678h.751V4.475q0-1.883-2.756-2.225zm5.813.843q1.511.22 1.58 1.382v8.382q-.707-.843-2.537-1.184l.957-8.58zm-.425-.843l-1.132 10.022q2.521.289 3.136 1.8v1.678h.752V4.475q0-1.883-2.756-2.225z"/><path d="M8.22.375c-9.625 0-9.625 17.25 0 17.25m0-17.25h105.041M8.22 17.625h105.041m7.687-17.25v17.25M113.261.375c9.625 0 9.625 17.25 0 17.25" fill="none" stroke="#000"/></svg>