<svg xmlns="http://www.w3.org/2000/svg" width="104.856" height="18"><path d="M21.229 3.01c.23.326.286.73.306 1.118-.01.184.005.383-.071.555-.216-.214-.197-.709-.201-.986 0-.273-.01-.497-.034-.688zM8.946 2.7l11.21.012c-1.638 1.553-3.28 2.311-5.755 2.311-2.485 0-3.989-.74-5.455-2.323zm-.503-.451a.225.225 0 0 0-.17.372c1.627 1.9 3.356 2.853 6.128 2.853 2.698 0 4.542-.915 6.32-2.682.06.17.091.436.091.904.011.52.007 1.383.69 1.443.48-.099.48-.612.483-1.012 0-.49-.12-.936-.32-1.275-.201-.338-.498-.59-.858-.59L8.443 2.25zm6.66 10.458q2.424 0 5.141 1.172-2.717 1.139-5.141 1.139-2.409 0-5.142-1.14 2.733-1.17 5.142-1.17zm0-.748q-2.994 0-6.883 1.904 3.889 1.887 6.883 1.887 2.993 0 6.882-1.887-3.872-1.904-6.882-1.904zm11.96-9.709q-1.462.034-2.419 1.058-1.058 1.16-1.159 2.318 0 .269.302.269H37.83q.302 0 .302-.32 0-.319-.302-.319H24.24q.84-2.15 2.52-2.385h11.068q.302 0 .302-.319 0-.302-.302-.302zm-1.781 11.376l-1.797 2.124h.876l.92-1.097.93 1.097.902-1.097.93 1.097.92-1.097.93 1.097.92-1.097.929 1.097.902-1.097.93 1.097.929-1.097.902 1.097.93-1.097.92 1.097h.876l-1.796-2.124-.93 1.027-.902-1.027-.93 1.027-.929-1.027-.902 1.027-.93-1.027-.92 1.027-.929-1.027-.92 1.027-.93-1.027-.902 1.027-.93-1.027zM41.188 3.093q1.51.22 1.579 1.382v8.382q-.706-.843-2.536-1.184l.957-8.58zm-.426-.843l-1.13 10.022q2.52.289 3.135 1.8v1.678h.752V4.475q0-1.883-2.757-2.225zm5.813.843q1.511.22 1.58 1.382v8.382q-.707-.843-2.537-1.184l.957-8.58zm-.425-.843l-1.131 10.022q2.52.289 3.135 1.8v1.678h.752V4.475q0-1.883-2.756-2.225zm9.394.528q.17 0 .353.077.41.174.41 2.759v2.473h-4.641q1.792-2.46 2.46-3.717.666-1.258 1.014-1.473.192-.12.404-.12zm-.198-.528h-.074q-.66.015-1.487 1.613-.827 1.598-3.273 4.766h6.337l-.014-3.557q-.07-2.377-.486-2.606-.393-.216-1.003-.216zM53.68 12.879c.806 0 1.814.414 2.302.902.427.426.483.992.499 1.518h-5.577c.016-.526.072-1.092.499-1.518.488-.488 1.472-.902 2.278-.902zm0-.451c-.955 0-1.983.441-2.586 1.044-.618.618-.688 1.432-.688 2.04v.238h6.55v-.237c0-.61-.047-1.423-.665-2.04-.603-.604-1.655-1.045-2.61-1.045zm14.411-9.616c.17.242.212.541.227.83-.007.135.004.283-.053.41-.16-.158-.145-.525-.149-.73 0-.203-.007-.369-.025-.51zm-9.098-.228l8.303.01c-1.213 1.149-2.43 1.71-4.262 1.71-1.841 0-2.955-.547-4.04-1.72zm-.372-.334a.167.167 0 0 0-.127.276c1.206 1.407 2.486 2.113 4.54 2.113 1.999 0 3.364-.678 4.68-1.987.046.126.068.323.068.67.009.385.006 1.024.512 1.069.355-.073.355-.454.357-.75a1.87 1.87 0 0 0-.237-.944c-.149-.25-.369-.438-.635-.438L58.62 2.25zm.987 4.124q1.12.163 1.17 1.024v6.21q-.523-.625-1.878-.878l.708-6.356zm-.315-.624l-.838 7.424q1.868.214 2.323 1.333v1.243h.557V7.398q0-1.395-2.042-1.648zm7.632.624q1.119.163 1.17 1.024v6.21q-.523-.625-1.879-.878l.709-6.356zm-.315-.624l-.838 7.424q1.867.214 2.323 1.333v1.243h.556V7.398q0-1.395-2.041-1.648zm8.43-2.987q.166 0 .344.075.398.169.398 2.68v2.404h-4.51q1.742-2.39 2.39-3.612.648-1.222.986-1.431.187-.116.392-.116zm-.191-.513h-.073q-.641.014-1.445 1.567-.803 1.553-3.18 4.632h6.158l-.014-3.457q-.067-2.31-.472-2.532-.382-.21-.974-.21zm-1.777 7.656c-.081 0-.162.008-.244.015-1.173.125-2.007 1.313-1.822 2.464.081.856.612 1.336 1.195 1.808 1.734 1.063 1.247.672 2.996 1.557l.28-.524c-2.08-.974-2.331-1.129-2.98-1.557-.532-.428-.953-.9-.916-1.616-.014-.494.28-1.003.613-1.247.265-.199.605-.317.937-.317.25 0 .487.06.693.207.524.258.812 1.114.428 1.653a1.017 1.017 0 0 1-.811.435.75.75 0 0 1-.443-.14c-.266-.148-.465-.664-.192-.952-.125-.133-.302-.295-.435-.295-.089 0-.155.066-.2.221-.294.708.178 1.513.886 1.704.126.037.25.06.376.06.812 0 1.565-.68 1.565-1.52.073-.982-.709-1.882-1.69-1.941a2.385 2.385 0 0 0-.236-.015zm8.474-6.992q2.725.331 0 5.047-2.724-4.716 0-5.047zm0-.664q-3.772.262-.524 6.06H77.81v.821h3.178v6.619h1.083V9.096h3.214V8.31H82.07q3.249-5.815-.524-6.06zm6.439.418c-.114 0-.396.136-.132.137.043 0 .138.013.209.013.084 0 .133-.018.016-.099-.028-.019-.053-.05-.089-.05h-.004zm.044-.09h.01c.203.047.364.218.575.277.178.05.47.115.409.376-.082.347-.315.683-.242 1.046.046.228.3.248.504.248l.098-.001c1.338-.01 2.4-.067 3.253-.067 1.398 0 2.231.152 2.789.906.924 1.25.608 2.501.378 4.08.064-.931.373-2.4-.585-3.667-.404-.535-1.09-.76-1.721-.92-.29-.072-.677-.098-1.104-.098-.986 0-2.185.136-2.882.136a2.29 2.29 0 0 1-.403-.027c-.268-.051-.46-.382-.436-.656.031-.364.318-.702.21-1.07-.047-.163-.19-.2-.345-.2-.111 0-.228.02-.322.024-.101.005-.2.02-.298.02a.525.525 0 0 1-.372-.13c-.227-.201.393-.278.484-.278zm.031-.328h-.021a1.89 1.89 0 0 0-.848.254c-.267.155-.052.456.129.589.166.122.353.237.562.237.04 0 .082-.005.124-.014.106-.023.295-.068.424-.068.076 0 .13.015.136.06.048.362-.338.8-.182 1.22.127.342.42.654.81.682.171.012.342.017.513.017.9 0 1.795-.145 2.695-.16l.086-.001c1.724 0 2.592.9 2.79 1.46.191.542.33 1.11.28 1.686-.057.695-.16 1.395-.103 2.09.05.612.263 1.206.409 1.8.034.14.132.209.224.209.1 0 .194-.083.187-.249-.03-.765-.206-1.42-.186-2.126.017-.607.173-1.191.209-1.8.041-.706.238-3.083-1.688-3.775-.554-.2-1.257-.253-2.002-.253-.882 0-1.823.075-2.646.075-.308 0-.6-.01-.866-.04.106-.377.31-.707.262-1.1-.037-.312-.378-.428-.637-.5-.241-.065-.405-.293-.66-.293zm2.64 8.512c.594 0 1.337.305 1.696.665.314.314.355.731.367 1.118h-4.108c.012-.387.053-.804.367-1.118.36-.36 1.085-.665 1.678-.665zm0-.332c-.704 0-1.461.326-1.905.77-.455.455-.507 1.054-.507 1.503v.175h4.825v-.175c0-.449-.035-1.048-.49-1.504-.444-.443-1.219-.769-1.923-.769zm5.302 4.022c.09 0 .134.325.134.414 0 .09-.045.414-.134.414H87.41c-.104 0-.157-.324-.157-.414 0-.09.053-.414.157-.414zm-8.86-.47c-.24 0-.358.482-.358.884 0 .403.119.884.358.884h9.128c.224 0 .336-.481.336-.884 0-.402-.112-.884-.336-.884z"/><path d="M8.22.375c-9.625 0-9.625 17.25 0 17.25m0-17.25h88.386M8.22 17.625h88.386m7.687-17.25v17.25M96.606.375c9.625 0 9.625 17.25 0 17.25" fill="none" stroke="#000"/></svg>