<svg xmlns="http://www.w3.org/2000/svg" width="91.871" height="18"><path d="M11.447 7.804l.076.114c-.907.16-1.642.248-2.174.248l-.104-.001c-.228 0-.367-.12-.456-.36zm12.662.02c-.089.24-.247.36-.475.36h-.104c-.53 0-1.248-.087-2.155-.247l.076-.114zm-9.7-.02c.178 0 .389.035.607.114a1.88 1.88 0 0 0-.209.38 1.771 1.771 0 0 0-.095.36H12.7c-.342 0-.658-.284-.95-.854zm6.738.02c-.29.569-.607.853-.949.853h-2.012c-.009-.055-.006-.118-.019-.17a2.146 2.146 0 0 0-.19-.437c-.027-.048-.064-.088-.095-.133.218-.079.429-.114.608-.114zm-9.586.208l.076.152c-.74.329-1.43.538-2.088.626a.445.445 0 0 1-.103.013c-.194 0-.356-.141-.486-.411l2.601-.38zm9.776.019l2.6.38c-.129.27-.29.41-.485.41a.445.445 0 0 1-.103-.012c-.658-.088-1.366-.297-2.107-.626l.095-.152zm-9.624.285l.133.151c-.595.386-1.089.697-1.5.912a.953.953 0 0 1-.392.095c-.237 0-.436-.122-.595-.361l2.354-.797zm9.453 0l2.373.816c-.156.233-.348.347-.578.347a.996.996 0 0 1-.409-.1 18.947 18.947 0 0 1-1.5-.893l.114-.17zm-9.225.265l.19.171c-.336.38-.779.76-1.291 1.14a.658.658 0 0 1-.42.155c-.176 0-.365-.072-.567-.213l2.088-1.253zm8.997.02l2.089 1.252c-.203.14-.392.213-.569.213a.658.658 0 0 1-.419-.156 8.215 8.215 0 0 1-1.271-1.139l.17-.17zm-8.675.227l.21.076c-.19.386-.539.791-1.026 1.234-.085.099-.243.152-.475.152-.08 0-.168-.006-.265-.02l1.556-1.442zm8.372.02l1.556 1.442c-.097.013-.185.02-.265.02-.232 0-.39-.054-.475-.153-.487-.443-.835-.848-1.025-1.234l.209-.076zm-7.745.075c-.057.133-.19.386-.418.797-.228.412-.538.627-.911.627.576-.665.936-1.14 1.101-1.424zm.38 0a5.658 5.658 0 0 1-.38.95c-.155.312-.36.474-.646.474.171-.228.45-.703.836-1.424zm.38 0a5.995 5.995 0 0 1-.248.987c-.104.294-.29.437-.55.437.164-.31.373-.779.607-1.424zm.417 0a7.507 7.507 0 0 1-.19.987c-.076.294-.228.437-.456.437.24-.779.393-1.247.437-1.424zm.417 0a5.44 5.44 0 0 1-.152.987c-.075.294-.208.437-.417.437a9.085 9.085 0 0 0 .342-1.424zm.19 0v.076c0 .152.027.283.057.418.016.1.02.195.057.303-.063.418-.177.627-.38.627a7.3 7.3 0 0 0 .228-1.424zm3.569 0c.019.38.101.867.247 1.443-.203 0-.336-.21-.399-.627.032-.095.06-.196.076-.284.004-.02-.003-.037 0-.057.029-.132.057-.277.057-.418v-.057zm.399 0c.05.367.158.854.341 1.443-.209 0-.341-.143-.417-.437a5.664 5.664 0 0 1-.152-1.006zm.398 0c.045.177.177.664.418 1.443-.228 0-.38-.143-.456-.437a7.993 7.993 0 0 1-.17-1.006zm.399 0c.234.645.424 1.133.588 1.443-.26 0-.446-.143-.55-.437a6.243 6.243 0 0 1-.247-1.006zm.19 0l.19.019c.385.721.664 1.196.835 1.424-.285 0-.51-.162-.665-.475a5.763 5.763 0 0 1-.36-.968zm.38 0l.208.019c.165.285.544.76 1.12 1.424-.373 0-.683-.215-.911-.627-.228-.411-.36-.683-.418-.816zm-3.55-1.367c.12 0 .246.026.36.057a1.236 1.236 0 0 1 .607.36c.083.09.146.184.21.286.063.1.117.212.151.341a1.34 1.34 0 0 1-.057.93c-.076.171-.18.323-.303.456a1.372 1.372 0 0 1-.968.418c-.197 0-.383-.041-.551-.114a1.308 1.308 0 0 1-.437-.304 1.53 1.53 0 0 1-.303-.455A1.382 1.382 0 0 1 15.073 9c0-.196.022-.376.095-.55.072-.175.177-.323.303-.456a1.28 1.28 0 0 1 .437-.304 1.43 1.43 0 0 1 .55-.114zm0-.398c-.254 0-.488.038-.703.133-.136.06-.263.138-.38.227a2.769 2.769 0 0 0-1.081-.227H8.22c0 .727.3 1.48.911 2.277.61.798 1.354 1.215 2.24 1.215h2.335c.831 0 1.405-.107 1.746-.284.095.064.197.123.304.17.215.095.45.133.703.133.227 0 .446-.038.664-.133a1.84 1.84 0 0 0 .285-.151c.336.187.93.265 1.784.265h2.316c.886 0 1.63-.398 2.24-1.196.61-.797.93-1.55.93-2.277h-6.074c-.357 0-.718.074-1.082.227a1.608 1.608 0 0 0-.19-.133 2.184 2.184 0 0 0-.418-.19 1.5 1.5 0 0 0-.455-.056zM29.3 2.25q-.18 0-.197.158l.175-.038q.109 0 .06.114-.126.12-.038.355-.16.345-.616.345l-.055-.001q.022.256-.11.387-.457.261-.457.48.36.169.12.414-.24.245-.24.333.158.049.218.169.273.665.55.943l-.021.224q.267 0 .294-.284-.501-.61-.485-1.303.022-.693.878-1.363.245-.137.245-.53 0-.403-.321-.403zm3.272 0q-.322 0-.322.404 0 .392.234.529.868.67.89 1.363.016.692-.497 1.303.038.284.295.284l-.017-.224q.273-.278.551-.943.065-.12.213-.17 0-.087-.235-.332-.234-.245.12-.414 0-.219-.452-.48-.131-.131-.12-.387h-.055q-.446 0-.605-.344.081-.235-.038-.355-.05-.114.06-.114l.174.038q-.016-.158-.196-.158zm-1.639 2.988q.64 0 1.284.491.502.426.06.976h-2.694q-.441-.55.071-.976.638-.49 1.279-.49zm-1.928 1.653q-.758.883-.758 1.347.06.267.235.267.229 0 .294-.207 0-.687.295-1.15l-.066-.257zm3.861 0l-.065.256q.294.464.294 1.15.06.208.295.208.169 0 .234-.267 0-.464-.758-1.347zm-2.388.098q.354 0 .354.376v2.841q-1.112 0-1.26-.714-.147-.714-.016-2.503zm1.821 0q.147 1.789-.005 2.503-.153.714-1.266.714v-2.84q0-.377.355-.377zm-1.445-3.038v.197q0 .136-.11.136-.168 0-.403-.196h-.12l.377.709-.12.038q-.197-.256-.393-.53-.03-.013-.054-.013-.06 0-.071.09l.294.513q-.207.169-.207.294-.327 0-.491.257-.474.332-.474.736 0 .305.196.698-.136.758-.136 1.909 0 .758.261 1.216.268.458 1.527.458 1.26 0 1.522-.458.267-.458.267-1.216.01-1.151-.125-1.898.196-.404.196-.71 0-.403-.48-.735-.17-.257-.485-.257 0-.125-.224-.294l.294-.513q0-.09-.056-.09-.022 0-.053.014-.196.273-.392.529l-.12-.038.365-.71h-.109q-.245.197-.42.197-.093 0-.093-.136V3.95zm-2.155 4.81h-.021q-.638 1.13-.638 1.778 0 .649.224 1.042.229.392.621.474-.529-.709-.529-1.134 0-.42.098-.687.088.747.393 1.052-.136-.6-.125-1.265.005-.67.223-.998.01-.262-.246-.262zm4.473 0q-.256 0-.246.262.207.327.218.998.011.665-.12 1.265.306-.305.393-1.052.098.267.098.687 0 .425-.529 1.134.393-.082.61-.474.225-.393.225-1.042t-.628-1.778h-.02zM30.93 13.65q1.674 0 3.55.808-1.876.786-3.55.786-1.662 0-3.55-.786 1.888-.809 3.55-.809zm0-.518q-2.067 0-4.752 1.315 2.685 1.303 4.752 1.303 2.067 0 4.752-1.303-2.673-1.315-4.752-1.315zm7.809-10.039q1.51.22 1.58 1.382v8.382q-.707-.843-2.537-1.184l.957-8.58zm-.425-.843l-1.132 10.022q2.521.289 3.136 1.8v1.678h.752V4.475q0-1.883-2.756-2.225zm5.812.843q1.511.22 1.58 1.382v8.382q-.706-.843-2.536-1.184l.956-8.58zm-.425-.843L42.57 12.272q2.52.289 3.136 1.8v1.678h.751V4.475q0-1.883-2.756-2.225zm13.836.59l.18.075-5.404 12.034c-.092-.06-.606-.312-.773-.507 0-.13.092-.219.36-.576.281-.375.58-.766.24-1.269-.158-.232-.374-.401-.654-.401-.175 0-.374.065-.6.221-.47-.28-.925-.42-1.666-.42-.13-1.141-.275-1.861-.435-2.762h5.359l3.393-6.395zm-.012-.59c-.03 0-.062.001-.094.004L53.994 8.38c-.12.2-.245.3-.376.3a.349.349 0 0 1-.045.003c-.504 0-1.936-.922-4.293-2.765-.54-.56-.82-1.12-.84-1.681-.02-.56.147-.88.502-.961a1.34 1.34 0 0 1 .29-.036c.2 0 .343.064.43.194.126.185.118.37-.022.555-.07.093-.134.139-.191.139-.058 0-.109-.046-.154-.139-.09-.185-.185-.278-.285-.278-.19.07-.235.236-.135.496.093.241.263.362.511.362.02 0 .04 0 .06-.002.28-.02.474-.115.585-.285.11-.17.165-.37.165-.6a.88.88 0 0 0-.225-.601c-.15-.17-.368-.278-.653-.323a1.027 1.027 0 0 0-.16-.013c-.233 0-.464.08-.696.238-.285.195-.45.516-.496.961-.045.445.078.936.368 1.471.29.536.813 1.074 1.569 1.614s1.474 1.056 2.154 1.546c.016.064-.019.096-.105.096a.533.533 0 0 1-.075-.006h-3.843c.32 1.832.515 3.128.585 3.888.09-.006.18-.01.269-.01.701 0 1.402.209 2.103.626.15-.2.313-.3.488-.3s.265.095.27.285c-.305.488-.753.961-.908 1.516l1.682 1.081 5.72-13.105c-.182-.263-.421-.395-.718-.395zm3.526 0c-.697 0-1.309.513-1.309 1.171V15.75h.852V3.421c0-.322.284-.427.462-.427.188 0 .476.131.476.527v8.103h.852V3.521c0-.66-.653-1.271-1.333-1.271zm7.229.435v.422h-2.23v-.422zm-1.122.831q1.398 0 1.932.712t.534 1.28q-.013.883-.738 1.542-.725.66-1.728.66-1.015 0-1.74-.66-.726-.659-.726-1.53 0-.58.435-1.292.436-.712 2.031-.712zm-1.74-1.266v.99q-.475.276-.87.896-.397.62-.41 1.371 0 .884.732 1.787.732.904 2.288.97 1.543-.066 2.282-.97.738-.903.738-1.773-.013-.765-.408-1.392-.396-.626-.884-.903V2.25zm1.74 10.629c.806 0 1.814.414 2.302.902.427.426.483.992.498 1.518h-5.576c.016-.526.072-1.092.498-1.518.488-.488 1.473-.902 2.278-.902zm0-.451c-.955 0-1.984.441-2.586 1.044-.618.618-.688 1.432-.688 2.04v.238h6.549v-.237c0-.61-.046-1.423-.665-2.04-.602-.604-1.654-1.045-2.61-1.045zm10.619-9.796c.75 0 1.417.346 1.852.888h-3.703a2.368 2.368 0 0 1 1.851-.888zm2.102 1.27c.143.272.235.575.262.897h-4.728a2.36 2.36 0 0 1 .262-.897zm.265 1.28a2.36 2.36 0 0 1-.249.896H75.66a2.361 2.361 0 0 1-.249-.897zm-.491 1.279a2.368 2.368 0 0 1-1.876.918 2.37 2.37 0 0 1-1.875-.918zM77.777 2.25a2.76 2.76 0 0 0-2.755 2.756 2.759 2.759 0 0 0 2.755 2.755 2.76 2.76 0 0 0 2.756-2.755 2.76 2.76 0 0 0-2.756-2.756zm-3.726 9.056l-.753 3.395-.714-.332 1.467-3.063zm9.13-2.286c-.015 0-.03 0-.044.002-.106.01-.23.052-.37.115-.774.98-1.35 2.194-1.723 3.637-.429.072-1.441.515-3.024 1.327a.705.705 0 0 1-.247.039 2.25 2.25 0 0 1-.66-.128 1.002 1.002 0 0 0-.307-.042c-.084 0-.173.006-.266.016l-.332.102-2.144-3.496-2.131 4.275.293.102.14-.294.128.051-.14.358.204.076.14-.332.154.077-.128.344.23.09.115-.345.178.09-.076.344.242.115.855-3.93 1.595 2.577-.37.102-.383.115c.01.106.03.183.077.243.047.059.132.094.242.102.111.008.163.034.179.09.07.239.157.45.255.612.079.127.17.19.274.19a.295.295 0 0 0 .084-.012c.148-.046.3-.086.446-.14l.15.225c.016.023.043.033.075.033.108 0 .272-.119.22-.2l-.139-.211c.302-.13.591-.292.88-.447.989-.144 1.857-.366 2.591-.663.734-.297 1.24-.615 1.519-.957.079-.045.422-.632 1.02-1.749.6-1.116.776-1.881.537-2.31a.36.36 0 0 0-.115-.127.407.407 0 0 0-.224-.066z"/><path d="M8.22.375c-9.625 0-9.625 17.25 0 17.25m0-17.25h75.401M8.22 17.625h75.401M91.309.375v17.25M83.621.375c9.625 0 9.625 17.25 0 17.25" fill="none" stroke="#000"/></svg>