<svg xmlns="http://www.w3.org/2000/svg" width="74.236" height="18"><path d="M13.905 2.689q1.556 0 3.418 1.023l-.459.738q-1.018-.588-1.936-.81-.51-.119-1-.119-.428 0-.842.09-.68.144-1.656.99l-.602-.653q1.35-1.259 3.077-1.259zm-1.35 1.618q-.057.1-.107.208-.129.308-.129.66 0 .329.13.623.107.25.272.459-1.169-.223-2.115-.316.588-.365.925-.795.344-.43 1.025-.84zm2.79-.05q.343.021 1.19.53.845.51 1.734.846-.638.043-1.42.28-.78.236-1.648.344.143-.15.272-.452.136-.301.136-.63 0-.352-.129-.66-.064-.137-.136-.258zm-1.376-.288q.224 0 .429.08.222.093.387.243.165.158.265.366.1.222.108.466.007.244-.086.466-.093.222-.244.387-.15.158-.38.258-.208.093-.451.1l-.035.001q-.225 0-.431-.087-.223-.086-.38-.243-.165-.15-.258-.366-.1-.215-.115-.451 0-.251.086-.466.086-.215.244-.388.157-.164.365-.265.215-.093.46-.1h.036zm-.135-1.719q-2.08 0-3.673 1.641l.015.014h-.015l.918 1.018-.108.108q-.63.702-1.326.781l-.014.445q1.577.143 3.104.415.566.1 1.186.1 1.06 0 2.276-.293 1.936-.473 2.46-.566h.852v-.56h-.889q-.516-.179-1.355-.652l.667-1.147Q15.69 2.25 13.834 2.25zm5.626 6.448q.545 0 .545.447 0 .4-.557.4l-9.865-.012q-.533 0-.533-.412 0-.423.545-.423zM9.403 8.189q-.861 0-.861.932t.883.932h10.29q.81 0 .81-.883 0-.981-.79-.981H9.402zm5.155 2.24q-.182 0-.303.115-.12.115-.12.272 0 .157.12.266.121.11.303.11t.309-.11q.127-.109.127-.266 0-.157-.127-.272-.127-.115-.31-.115zm-1.38.012q-.182 0-.303.109-.12.109-.12.266 0 .157.12.272.121.115.303.115t.303-.115q.12-.115.12-.272 0-.157-.12-.266-.121-.11-.303-.11zm2.772 0q-.182 0-.303.109-.12.109-.12.266 0 .157.12.272.121.115.303.115t.309-.115q.127-.115.127-.272 0-.157-.127-.266-.127-.11-.309-.11zm-4.597.352q.162 0 .19.071.025.121-.362.327-2.04.8-2.129.8H9.05q-.017.006-.03.006-.03 0-.03-.043l-.242-.57q-.049-.06.024-.084.048-.024 2.288-.472.179-.035.293-.035zm6.43.006q.114 0 .298.041 2.251.448 2.287.472.073.024.025.085l-.23.569q-.01.043-.042.043-.014 0-.031-.007h-.002q-.077 0-2.129-.799-.375-.205-.363-.327.028-.077.186-.077zm-6.252-.37q-.105 0-.23.024-.92.157-2.99.569-.145.06-.06.254l.388 1.041q.064.172.205.172.018 0 .037-.003 1.924-.75 2.76-1.113.544-.218.4-.63-.125-.314-.51-.314zm6.097.005q-.401 0-.528.321-.145.412.4.63.835.363 2.76 1.101.026.006.05.006.13 0 .192-.163l.387-1.04q.085-.207-.06-.255-2.058-.412-2.99-.581-.114-.02-.211-.02zm-7.85 3.474L8.22 15.75h.76l.798-.952.806.952.782-.952.806.952.798-.952.806.952.798-.952.806.952.782-.952.806.952.806-.952.783.952.805-.952.798.952h.76l-1.558-1.842-.805.89-.783-.89-.806.89-.806-.89-.782.89-.806-.89-.798.89-.806-.89-.798.89-.806-.89-.782.89-.806-.89zM23.977 3.093q1.51.22 1.579 1.382v8.382q-.706-.843-2.536-1.184l.957-8.58zm-.426-.843l-1.13 10.022q2.52.289 3.135 1.8v1.678h.752V4.475q0-1.883-2.757-2.225zm8.389.434v.421h-2.224v-.42zm-1.118.83q1.395 0 1.928.71.533.71.533 1.277-.013.882-.737 1.54t-1.724.658q-1.014 0-1.738-.658t-.724-1.527q0-.58.435-1.29.434-.71 2.027-.71zM29.084 2.25v.987q-.474.276-.868.895-.395.619-.408 1.369 0 .882.73 1.783.73.902 2.284.968 1.54-.066 2.276-.968.737-.901.737-1.77-.013-.763-.408-1.389-.394-.625-.881-.901V2.25zm2.856 7.933v.421h-2.224v-.421zm-1.118.829q1.395 0 1.928.71.533.711.533 1.277-.013.882-.737 1.54t-1.724.658q-1.014 0-1.738-.658t-.724-1.527q0-.579.435-1.29.434-.71 2.027-.71zm-1.738-1.264v.988q-.474.276-.868.895-.395.618-.408 1.368 0 .882.73 1.784.73.901 2.284.967 1.54-.066 2.276-.967.737-.902.737-1.77-.013-.764-.408-1.389-.394-.625-.881-.902v-.974zm7.808-6.655q1.51.22 1.58 1.382v8.382q-.707-.843-2.537-1.184l.957-8.58zm-.425-.843l-1.132 10.022q2.521.289 3.136 1.8v1.678h.752V4.475q0-1.883-2.756-2.225zm10.187 0a1.31 1.31 0 0 0-.313.039c-.21.051-.437.168-.682.35h-4.936V3.73h4.936c.245.182.472.299.682.35a1.31 1.31 0 0 0 .623 0c.205-.051.41-.168.617-.35h.19c.197.182.4.299.61.35a1.316 1.316 0 0 0 .63 0c.209-.051.432-.168.67-.35h4.982V2.64H49.68c-.237-.182-.46-.299-.67-.35a1.316 1.316 0 0 0-.629 0 1.39 1.39 0 0 0-.61.35h-.19a1.492 1.492 0 0 0-.617-.35 1.274 1.274 0 0 0-.31-.039zm-5.787 11.61q0 .25.22.273l-.053-.243q0-.152.16-.084.167.175.493.053.48.222.48.857l-.002.077q.357-.03.54.152.364.638.668.638.235-.501.577-.167.342.334.463.334.068-.22.235-.304.927-.38 1.314-.767l.311.03q0-.371-.395-.41-.85.7-1.814.677-.965-.03-1.899-1.223-.19-.342-.736-.342-.562 0-.562.448zm0-4.557q0 .448.562.448.547 0 .736-.326.934-1.207 1.899-1.238.964-.023 1.814.691.395-.053.395-.41l-.311.023q-.387-.38-1.314-.767-.167-.091-.235-.296-.121 0-.463.326-.342.327-.577-.167-.304 0-.668.63-.183.183-.54.168l.002.075q0 .621-.48.843-.326-.113-.493.054-.16.068-.16-.084l.053-.243q-.22.023-.22.273zm4.161 2.282q0-.892.683-1.788.593-.699 1.36-.084v3.751q-.767.616-1.36-.098-.683-.889-.683-1.78zm2.3 2.684q1.23 1.056 1.876 1.056.372-.084.372-.327 0-.319-.288-.41-.957 0-1.602-.41l-.357.091zm0-5.376l.358.092q.645-.41 1.602-.41.288-.084.288-.41 0-.236-.372-.327-.645 0-1.875 1.055zm.137 3.326q0-.493.524-.493h3.956q0 1.549-.994 1.754-.995.205-3.486.022zm0-2.536q2.491-.205 3.486.008.994.212.994 1.761H47.99q-.524 0-.524-.493zm-4.229 2.012h.273q.19 0 .19.152 0 .236-.273.562v.167l.987-.524.053.167q-.357.274-.736.547-.02.043-.02.075 0 .083.126.1l.714-.41q.235.288.41.288 0 .456.357.683.463.661 1.025.661.425 0 .972-.273 1.055.19 2.657.19 1.056 0 1.693-.365.638-.372.638-2.126t-.638-2.119q-.637-.372-1.693-.372-1.602-.015-2.642.175Q46.767 9 46.342 9q-.562 0-1.025.668-.357.235-.357.676-.175 0-.41.311l-.714-.41q-.126 0-.126.078 0 .031.02.074.38.273.736.547l-.053.167-.987-.51v.153q.273.341.273.584 0 .13-.19.13h-.273zm6.697 3v.03q1.572.888 2.476.888.903 0 1.45-.311.547-.319.66-.866-.987.737-1.579.737-.585 0-.957-.137 1.04-.121 1.466-.546-.835.19-1.762.174-.934-.007-1.39-.311-.364-.015-.364.343zm0-6.228q0 .357.365.343.455-.289 1.39-.304.926-.015 1.76.167-.424-.425-1.465-.547.372-.136.957-.136.592 0 1.58.736-.114-.546-.661-.85-.547-.311-1.45-.311-.904 0-2.476.873v.029zm7.432-5.799c-.114 0-.396.136-.132.137.043 0 .138.013.209.013.084 0 .133-.018.016-.099-.028-.019-.053-.05-.089-.05h-.004zm.044-.09h.01c.203.047.364.218.575.277.178.05.47.115.409.376-.082.347-.315.683-.242 1.046.046.228.3.248.504.248l.097-.001c1.339-.01 2.401-.067 3.254-.067 1.398 0 2.231.152 2.789.906.924 1.25.608 2.501.378 4.08.064-.931.373-2.4-.585-3.667-.404-.535-1.09-.76-1.721-.92-.29-.072-.677-.098-1.104-.098-.987 0-2.185.136-2.882.136a2.29 2.29 0 0 1-.403-.027c-.268-.051-.46-.382-.436-.656.031-.364.318-.702.21-1.07-.048-.163-.19-.2-.345-.2-.111 0-.229.02-.322.024-.101.005-.2.02-.298.02a.525.525 0 0 1-.372-.13c-.227-.201.393-.278.484-.278zm.031-.328h-.021a1.89 1.89 0 0 0-.848.254c-.267.155-.052.456.128.589.167.122.354.237.563.237.04 0 .081-.005.124-.014.106-.023.295-.068.424-.068.076 0 .13.015.136.06.048.362-.338.8-.183 1.22.128.342.42.654.811.682.171.012.342.017.512.017.9 0 1.796-.145 2.696-.16l.086-.001c1.724 0 2.592.9 2.79 1.46.191.542.33 1.11.28 1.686-.058.695-.16 1.395-.103 2.09.05.612.263 1.206.409 1.8.034.14.132.209.224.209.1 0 .194-.083.187-.249-.03-.765-.206-1.42-.186-2.126.017-.607.173-1.191.209-1.8.041-.706.238-3.083-1.688-3.775-.554-.2-1.257-.253-2.002-.253-.882 0-1.823.075-2.646.075-.308 0-.6-.01-.866-.04.106-.377.31-.707.262-1.1-.037-.312-.378-.428-.637-.5-.241-.065-.405-.293-.661-.293zm2.64 8.512c.594 0 1.336.305 1.696.665.314.314.355.731.367 1.118h-4.108c.012-.387.053-.804.367-1.118.36-.36 1.085-.665 1.678-.665zm0-.332c-.704 0-1.461.326-1.905.77-.455.455-.507 1.054-.507 1.503v.175h4.824v-.175c0-.449-.034-1.048-.489-1.504-.444-.443-1.219-.769-1.923-.769zm5.301 4.022c.09 0 .135.325.135.414 0 .09-.045.414-.135.414H56.79c-.104 0-.157-.324-.157-.414 0-.09.053-.414.157-.414zm-8.86-.47c-.238 0-.358.482-.358.884 0 .403.12.884.358.884h9.129c.224 0 .336-.481.336-.884 0-.402-.112-.884-.336-.884z"/><path d="M8.22.375c-9.625 0-9.625 17.25 0 17.25m0-17.25h57.766M8.22 17.625h57.766M73.673.375v17.25M65.986.375c9.625 0 9.625 17.25 0 17.25" fill="none" stroke="#000"/></svg>