<svg xmlns="http://www.w3.org/2000/svg" width="79.711" height="18"><path d="M11.157 6.786c-.05.437-.228.786-.534 1.167a.962.962 0 0 1-.194.021c-.18 0-.338-.107-.576-.23-.318-.166-.408-.259-.361-.49.046-.231.137-.31.361-.357.092-.019.378-.022.576-.022h.2c.192 0 .345-.053.528-.09zm.4.19c.663.138 1.315.268 2.076.3.693.028 3.406.042 3.906.046.749.006 1.356.067 1.821.183.466.115.761.349 1.098.82.338.471.531 1.03.581 1.767.048.711-.036.922-.453.922h-.046c-.452-.023-.615-.087-.7-.496-.084-.41-.112-.863-.084-1.363.028-.5-.216-.829-.522-.898a10.552 10.552 0 0 0-1.17-.178c-.475-.05-4.306-.106-4.745-.106-.789 0-1.727.032-1.773.032-.321 0-.386-.04-.274-.212.128-.197.223-.43.286-.816zm7.686 1.801c.162 0 .142.004.095.34-.047.338-.033.773.042 1.307.056.4-.129.614-.336.614a.32.32 0 0 1-.1-.017c-.32-.105-.475-.326-.341-.81.134-.484.315-.79.64-1.434zm-7.874-2.442c-.04 0-.087.055-.138.074a.836.836 0 0 1-.306.044l-.19-.002c-.032 0-.724 0-.979.02-.368.028-.6.274-.693.586h-.024a.815.815 0 0 0-.547.22c-.175.153-.266.486-.272.998v3.38l.408.01v-3.24c-.03-.444.011-.734.127-.871.106-.126.14-.19.241-.19l.03.002c-.02.15.09.358.327.564.281.244.589.4.923.468.172.036.317.129.41.129a.095.095 0 0 0 .05-.012c.282-.165.728-.152 1.764-.155.044 0 2.155.039 3.231.039 1.118 0 2.195.01 3.231.18-.356.282-.706 1.022-.794 1.625-.073.49-.017.824.289 1.05a.892.892 0 0 0 .54.163c.222 0 .479-.06.77-.183.244.168.483.252.716.252.114 0 .227-.02.338-.06.34-.121.536-.438.586-.95.05-.512-.07-1.112-.36-1.798-.291-.687-.692-1.205-1.204-1.432-.499-.222-1.19-.333-2.072-.333a247.7 247.7 0 0 1-3.089-.028c-1.092-.025-1.868-.069-2.327-.131-.459-.063-.717-.098-.773-.226-.04-.091-.11-.193-.213-.193zm13.105-3.242q1.511.22 1.58 1.382v8.382q-.707-.843-2.537-1.184l.957-8.58zm-.425-.843l-1.131 10.022q2.52.289 3.135 1.8v1.678h.752V4.475q0-1.883-2.756-2.225zm8.848 1.795c.031 0 .062.001.093.004.137.01.27.048.387.068.707.257.888.684.842 1.366l.273 1.525h-2.14c.09-.513.11-.773.228-.979.12-.21.21-.38.273-.5l-.113-.092c-.051.08-.202.249-.456.478-.106-.06-.178-.112-.25-.136-.334 0-.583-.028-.706-.069a8.736 8.736 0 0 1-.687.063c-.053 0-.082-.005-.087-.017v-.023c.153-.034.278-.05.386-.05.032 0 .063.002.092.005.03.002.056.004.08.004.079 0 .125-.016.125-.05.01-.083-.03-.125-.115-.125a.43.43 0 0 0-.09.011c-.068.045-.254.069-.546.069-.047 0-.066-.02-.069-.069-.002-.048.034-.127.114-.227.033.014.064.02.09.02.096 0 .15-.087.16-.248l.251-.182c.072-.064.179-.139.342-.205.162-.066.278-.114.341-.182-.017.064.01.111.068.16l-.296.136c-.24.113-.36.191-.364.228l.046.045.387-.182c.211-.1.317-.16.364-.16.17 0 .273-.045.273-.182 0-.084-.092-.162-.228-.182.09 0 .172-.061.274-.182.05-.084.178-.114.364-.114.082-.013.187-.026.294-.026zM28.488 2.25h-.006c-.214.01-.211.366-.113.524.228.632.576.819.956.956.193.07.388.09.592.09.184 0 .368-.021.546-.045.137.03.273.062.41.091l.044.001h.092c.365 0 .688-.071 1.048-.114.074.037.118.11.182.159-.048.021-.09.034-.114.068-.064.089-.217.17-.433.25-.144.134-.28.244-.432.297-.076 0-.303.156-.683.478-.262.157-.387.358-.387.592.05.072.07.09.09.09v.069c0 .137.108.205.32.205l-.16.66h.501l.046-.66.341-.023a1.554 1.554 0 0 0 .448.045c.141 0 .289.055.44.16-.106.306-.152.65-.228 1.161h1.07v6.056c-.525.233-.792.515-.797.865-.004.35.032.689.114 1.024.083.336.343.501.615.501a6.238 6.238 0 0 1-.137-1.298c.005-.384.177-.569.547-.569.36 0 .56.185.569.57.01.383-.05.81-.137 1.297.224 0 .467-.165.57-.5.101-.336.146-.67.136-1.025-.01-.355-.301-.642-.865-.865V7.304h1.184l-.342-1.821c.023-.97-.347-1.355-1.001-1.594.062-.048.132-.1.204-.136.36.043.683.113 1.048.113l.092.001h.044l.41-.092c.178.024.34.046.524.046.204 0 .421-.021.614-.091.38-.137.705-.324.934-.956.1-.16.09-.52-.133-.52a.285.285 0 0 0-.095.019c-.346.545-.691.726-1.116.728-.47-.088-.94-.19-1.411-.273a4.845 4.845 0 0 0-.797-.068c-.468 0-.686.174-.956.41-.27-.236-.465-.41-.933-.41-.268 0-.551.026-.797.068-.471.084-.942.185-1.412.273-.424-.002-.769-.183-1.115-.728a.484.484 0 0 0-.13-.023zm12.012.843q1.512.22 1.58 1.382v8.382q-.706-.843-2.536-1.184l.957-8.58zm-.424-.843l-1.132 10.022q2.521.289 3.136 1.8v1.678h.752V4.475q0-1.883-2.756-2.225zm5.966 0l-1.71 2.022h.834l.876-1.045.884 1.045.86-1.045.884 1.045.876-1.045.884 1.045.876-1.045.885 1.045.859-1.045.884 1.045.885-1.045.859 1.045.884-1.045.876 1.045h.834l-1.71-2.022-.884.977-.86-.977-.884.977-.884-.977-.86.977-.884-.977-.876.977-.884-.977-.876.977-.885-.977-.859.977-.884-.977zm4.22 11.631a1.31 1.31 0 0 0-.312.039c-.21.051-.437.168-.683.35h-4.935v1.091h4.935c.246.182.473.299.683.35a1.31 1.31 0 0 0 .622 0 1.48 1.48 0 0 0 .617-.35h.19c.198.182.402.299.611.35a1.316 1.316 0 0 0 .629 0c.21-.051.433-.168.67-.35h4.983V14.27H53.29c-.237-.182-.46-.299-.67-.35a1.316 1.316 0 0 0-.629 0 1.39 1.39 0 0 0-.61.35h-.19a1.492 1.492 0 0 0-.618-.35 1.274 1.274 0 0 0-.31-.039zM65.616 2.632c.75 0 1.417.346 1.852.888h-3.703a2.368 2.368 0 0 1 1.851-.888zm2.103 1.27c.143.272.234.575.262.897h-4.729a2.36 2.36 0 0 1 .263-.897zm.264 1.28a2.36 2.36 0 0 1-.248.896h-4.236a2.361 2.361 0 0 1-.25-.897zm-.491 1.279a2.368 2.368 0 0 1-1.876.918c-.763 0-1.44-.36-1.875-.918zM65.616 2.25a2.76 2.76 0 0 0-2.755 2.756 2.759 2.759 0 0 0 2.755 2.755 2.76 2.76 0 0 0 2.756-2.755 2.76 2.76 0 0 0-2.756-2.756zm-3.726 9.056l-.752 3.395-.715-.332 1.468-3.063zm9.13-2.286c-.014 0-.029 0-.044.002a1.24 1.24 0 0 0-.37.115c-.774.98-1.35 2.194-1.722 3.637-.43.072-1.442.515-3.025 1.327a.705.705 0 0 1-.247.039 2.25 2.25 0 0 1-.659-.128 1.002 1.002 0 0 0-.308-.042c-.084 0-.172.006-.266.016l-.332.102-2.144-3.496-2.13 4.275.293.102.14-.294.128.051-.14.358.204.076.14-.332.153.077-.128.344.23.09.115-.345.179.09-.077.344.243.115.855-3.93 1.595 2.577-.37.102-.383.115c.01.106.03.183.076.243.048.059.132.094.243.102.11.008.162.034.178.09.07.239.157.45.256.612.078.127.17.19.274.19a.295.295 0 0 0 .083-.012c.149-.046.301-.086.447-.14l.15.225c.016.023.043.033.074.033.109 0 .272-.119.22-.2l-.138-.211c.301-.13.59-.292.88-.447.988-.144 1.857-.366 2.59-.663.735-.297 1.24-.615 1.52-.957.078-.045.421-.632 1.02-1.749.6-1.116.776-1.881.536-2.31a.36.36 0 0 0-.115-.127.407.407 0 0 0-.224-.066z"/><path d="M8.22.375c-9.625 0-9.625 17.25 0 17.25m0-17.25h63.24M8.22 17.625h63.24M79.148.375v17.25M71.46.375c9.626 0 9.626 17.25 0 17.25" fill="none" stroke="#000"/></svg>