<svg xmlns="http://www.w3.org/2000/svg" width="93.701" height="18"><path d="M14.837 2.7c.805 0 1.814.415 2.301.903.427.426.483.992.499 1.518H12.06c.015-.526.071-1.092.498-1.518.488-.488 1.472-.902 2.278-.902zm0-.45c-.956 0-1.984.441-2.587 1.044-.618.618-.688 1.432-.688 2.04v.238h6.55v-.237c0-.61-.047-1.423-.665-2.04-.603-.604-1.655-1.045-2.61-1.045zm0 10.575q2.33 0 4.943 1.126-2.612 1.095-4.943 1.095-2.315 0-4.943-1.095 2.628-1.126 4.943-1.126zm0-.72q-2.878 0-6.617 1.83 3.739 1.815 6.617 1.815t6.617-1.815q-3.723-1.83-6.617-1.83zm9.673-9.012q1.511.22 1.58 1.382v8.382q-.707-.843-2.537-1.184l.957-8.58zm-.425-.843l-1.131 10.022q2.52.289 3.135 1.8v1.678h.752V4.475q0-1.883-2.756-2.225zm5.813.843q1.51.22 1.579 1.382v8.382q-.706-.843-2.536-1.184l.957-8.58zm-.426-.843l-1.13 10.022q2.52.289 3.135 1.8v1.678h.752V4.475q0-1.883-2.757-2.225zm8.883.378v.367h-1.937v-.367zm-.974.722q1.215 0 1.68.62.464.618.464 1.111-.012.768-.642 1.341t-1.502.573q-.883 0-1.513-.573-.63-.573-.63-1.33 0-.504.378-1.123t1.765-.619zm-1.513-1.1v.86q-.413.24-.757.78-.343.538-.355 1.191 0 .768.636 1.553.636.786 1.989.843 1.341-.057 1.983-.843.642-.785.642-1.541-.012-.665-.355-1.21-.344-.544-.768-.785V2.25zm1.513 9.924q-.235 0-.378.157-.144.157-.144.352 0 .17.144.333.143.163.365.163.248 0 .385-.15t.137-.346q0-.209-.163-.359t-.346-.15zm0-.117q.235 0 .437.183.203.182.203.443 0 .235-.177.431-.176.196-.476.196-.274 0-.45-.209-.177-.209-.177-.418 0-.248.177-.437.176-.19.463-.19zm0-3.276q-.248 0-.287.509v2.232q.013.26-.144.483-.137.052-.267.052t-.255-.052l-2.114-.692q-.177-.04-.3-.04-.232 0-.275.144-.078.235.405.431l2.128.679q.248.078.404.313 0 .287-.17.496l-1.305 1.801q-.274.444-.078.574.052.039.115.039.172 0 .42-.287l1.305-1.8q.144-.223.418-.314.261.078.418.313l1.305 1.801q.248.287.413.287.06 0 .109-.039.196-.143-.065-.587l-1.319-1.801q-.17-.209-.156-.483.156-.235.418-.313l2.114-.679q.483-.196.405-.418-.053-.156-.29-.156-.12 0-.285.039l-2.127.692q-.124.045-.251.045-.128 0-.258-.045-.17-.222-.157-.483V9.29q-.039-.51-.274-.51zM52.17 2.812c.17.242.211.541.226.83-.007.135.004.283-.053.41-.16-.158-.145-.525-.149-.73a3.92 3.92 0 0 0-.025-.51zm-9.099-.228l8.303.01c-1.213 1.149-2.43 1.71-4.262 1.71-1.84 0-2.955-.547-4.04-1.72zM42.7 2.25a.167.167 0 0 0-.127.276c1.206 1.407 2.486 2.113 4.54 2.113 1.999 0 3.364-.678 4.68-1.987.046.126.069.323.069.67.008.385.005 1.024.51 1.069.357-.073.356-.454.359-.75 0-.364-.09-.694-.238-.944-.149-.25-.368-.438-.635-.438L42.7 2.25zm.986 4.124q1.12.163 1.17 1.024v6.21q-.523-.625-1.878-.878l.708-6.356zm-.314-.624l-.839 7.424q1.868.214 2.323 1.333v1.243h.557V7.398q0-1.395-2.041-1.648zm7.631.624q1.12.163 1.17 1.024v6.21q-.523-.625-1.879-.878l.709-6.356zm-.315-.624l-.838 7.424q1.867.214 2.323 1.333v1.243h.557V7.398q0-1.395-2.042-1.648zm6.933-.349q-.218 0-.351.146-.134.145-.134.327 0 .157.134.309.133.151.34.151.23 0 .357-.139.127-.14.127-.321 0-.194-.152-.333-.151-.14-.32-.14zm0-.109q.218 0 .406.17.188.17.188.412 0 .218-.164.4-.163.182-.442.182-.254 0-.418-.194-.164-.194-.164-.388 0-.23.164-.406.164-.176.43-.176zm0-3.042q-.23 0-.266.473v2.072q.012.243-.134.449-.127.048-.248.048t-.237-.048L54.773 4.6q-.164-.037-.278-.037-.216 0-.255.134-.073.218.375.4l1.976.63q.23.073.376.291 0 .267-.158.46l-1.212 1.673q-.254.413-.073.534.05.035.108.035.159 0 .39-.266l1.211-1.672q.134-.206.388-.291.243.073.388.29l1.212 1.673q.23.266.383.266.056 0 .102-.035.182-.134-.06-.546L58.42 6.468q-.157-.194-.145-.449.145-.218.388-.29l1.963-.63q.448-.183.376-.389-.049-.145-.27-.145-.11 0-.264.036l-1.975.643q-.115.042-.233.042-.119 0-.24-.042-.157-.206-.145-.449V2.723q-.037-.473-.255-.473zm-2.018 8.663c.155.328.258.522.822.7 1.641.126 2.303.34 2.688.47.275.07.795.406.811.812-.023.412-.447.728-.833.806-.347.096-1.966.148-2.653.322-.53.164-.537.493-.87.738-.776-.528.071-1.272.347-1.427.3-.158.53-.206.811-.206.152 0 .318.014.517.032.957-.007.931-.5-.042-.544h-.008c-.198 0-.359.008-.497.008-.3 0-.495-.04-.747-.29-.257-.17-.74-.726-.346-1.421zm.285-.98a.887.887 0 0 0-.242.042c-.295.286-.579.765-.731 1.22-.037.224.003.604.184.94.233.203.453.488.706.718-.253.229-.397.293-.628.519-.258.355-.344.57-.297 1.037-.006.348.354.858.657 1.134.181.146.311.207.402.207.199 0 .2-.298.113-.63.08-.471.318-.661.772-.756.459-.068 3.524.125 3.55-1.455-.008-1.451-2.943-1.58-3.515-1.615-.591-.137-.626-.184-.807-.49-.026-.345.233-.872-.164-.872zm7.957-7.683c.698 0 1.31.513 1.31 1.171V15.75h-.853V3.421c0-.322-.284-.427-.462-.427-.187 0-.475.131-.475.527v8.103h-.852V3.521c0-.66.653-1.271 1.332-1.271zm6.547.664q2.724.331 0 5.047-2.725-4.716 0-5.047zm0-.664q-3.773.262-.524 6.06h-3.214v.821h3.179v6.619h1.083V9.096h3.213V8.31h-3.213q3.248-5.815-.524-6.06zm6.438.418c-.114 0-.395.136-.131.137.043 0 .138.013.208.013.084 0 .133-.018.017-.099-.028-.019-.053-.05-.09-.05h-.003zm.045-.09h.01c.203.047.363.218.574.277.178.05.47.115.41.376-.082.347-.316.683-.242 1.046.045.228.3.248.504.248l.097-.001c1.338-.01 2.401-.067 3.254-.067 1.398 0 2.23.152 2.788.906.925 1.25.608 2.501.378 4.08.065-.931.374-2.4-.584-3.667-.405-.535-1.09-.76-1.722-.92-.29-.072-.677-.098-1.104-.098-.986 0-2.184.136-2.881.136a2.29 2.29 0 0 1-.403-.027c-.269-.051-.46-.382-.437-.656.032-.364.319-.702.211-1.07-.048-.163-.19-.2-.346-.2-.11 0-.228.02-.322.024-.1.005-.2.02-.297.02a.525.525 0 0 1-.372-.13c-.228-.201.393-.278.484-.278zm.03-.328h-.02a1.89 1.89 0 0 0-.848.254c-.267.155-.053.456.128.589.166.122.353.237.563.237.04 0 .081-.005.123-.014.107-.023.295-.068.424-.068.076 0 .131.015.137.06.047.362-.339.8-.183 1.22.128.342.42.654.81.682.172.012.342.017.513.017.9 0 1.796-.145 2.696-.16l.085-.001c1.725 0 2.592.9 2.79 1.46.192.542.33 1.11.281 1.686-.058.695-.16 1.395-.103 2.09.05.612.263 1.206.408 1.8.034.14.132.209.225.209.1 0 .193-.083.187-.249-.03-.765-.207-1.42-.186-2.126.017-.607.172-1.191.208-1.8.042-.706.238-3.083-1.687-3.775-.555-.2-1.257-.253-2.003-.253-.881 0-1.822.075-2.646.075-.308 0-.6-.01-.865-.04.106-.377.309-.707.262-1.1-.038-.312-.378-.428-.637-.5-.242-.065-.406-.293-.661-.293zm2.641 8.512c.593 0 1.336.305 1.695.665.315.314.356.731.367 1.118h-4.107c.011-.387.052-.804.367-1.118.36-.36 1.085-.665 1.678-.665zm0-.332c-.704 0-1.461.326-1.905.77-.456.455-.507 1.054-.507 1.503v.175h4.824v-.175c0-.449-.034-1.048-.49-1.504-.443-.443-1.218-.769-1.922-.769zm5.301 4.022c.09 0 .134.325.134.414 0 .09-.044.414-.134.414h-8.591c-.105 0-.157-.324-.157-.414 0-.09.052-.414.157-.414zm-8.86-.47c-.239 0-.358.482-.358.884 0 .403.12.884.358.884h9.129c.223 0 .335-.481.335-.884 0-.402-.112-.884-.335-.884z"/><path d="M8.22.375c-9.625 0-9.625 17.25 0 17.25m0-17.25h77.231M8.22 17.625h77.231M93.139.375v17.25M85.451.375c9.625 0 9.625 17.25 0 17.25" fill="none" stroke="#000"/></svg>