<svg xmlns="http://www.w3.org/2000/svg" width="99.889" height="18"><path d="M11.332 2.25c-.084 0-.167.008-.25.015-1.208.13-2.066 1.352-1.876 2.536.083.881.63 1.375 1.23 1.86 1.784 1.094 1.283.692 3.082 1.603l.289-.54c-2.141-1.002-2.4-1.161-3.068-1.602-.546-.44-.98-.926-.941-1.662-.015-.51.288-1.033.63-1.284a1.64 1.64 0 0 1 .964-.326c.259 0 .502.06.714.212.54.266.835 1.147.44 1.701a1.047 1.047 0 0 1-.835.448.773.773 0 0 1-.455-.144c-.274-.152-.479-.683-.198-.98-.129-.136-.311-.303-.448-.303-.09 0-.16.068-.205.228-.303.729.183 1.556.911 1.754.13.038.259.06.388.06.835 0 1.61-.698 1.61-1.564.075-1.01-.73-1.936-1.74-1.997a2.454 2.454 0 0 0-.242-.015zm.163 10.629c.805 0 1.813.414 2.301.902.427.426.483.992.499 1.518H8.718c.016-.526.072-1.092.499-1.518.487-.488 1.472-.902 2.278-.902zm0-.451c-.956 0-1.984.441-2.587 1.044-.618.618-.688 1.432-.688 2.04v.238h6.55v-.237c0-.61-.047-1.423-.665-2.04-.603-.604-1.655-1.045-2.61-1.045zm6.924-6.435c-.084 0-.167.008-.25.015-1.208.13-2.066 1.352-1.876 2.536.083.881.63 1.375 1.23 1.86 1.784 1.094 1.283.692 3.082 1.603l.289-.54c-2.141-1.002-2.4-1.161-3.068-1.601-.546-.44-.98-.927-.941-1.663-.015-.509.288-1.033.63-1.284a1.64 1.64 0 0 1 .964-.326c.259 0 .502.06.714.213.54.265.835 1.146.44 1.7a1.047 1.047 0 0 1-.835.448.773.773 0 0 1-.455-.144c-.274-.152-.479-.683-.198-.98-.129-.136-.311-.303-.448-.303-.09 0-.16.068-.205.228-.303.729.183 1.556.911 1.754.13.038.259.06.388.06.835 0 1.61-.698 1.61-1.564.075-1.01-.73-1.936-1.74-1.997a2.454 2.454 0 0 0-.242-.015zm8.693 2.526c1.02 1.145 1.864 2.453 2.617 3.781.158.195-.02.374-.15.559-.496-1.575-1.637-2.79-2.467-4.34zm-.987-5.783c.085.396-.071.854-.372.989l.096.205c.376-.178.737-.713.79-1.193.514.03.654.417.735.865.096.307-.002 1.05.386 1.179 1.147.444 2.024.957 2.81 1.734 1.359 1.698 2.778 3.342 4.136 5.042a69.07 69.07 0 0 0 1.401 1.725c-2.062-1.542-4.366-2.72-6.626-3.946-1.202-.652-2.348-1.186-2.348-2.623 0-.773 1.424-1.42 1.366-1.521-.005-.01-.022-.013-.048-.013-.292 0-1.789.555-1.789 1.725 0 .324.087.625.238.905h-.007c-1.641-.87-1.38-2.63-1.317-4.18-.682-.038-1.244-.41-1.892-.565.503-.065 1.003-.15 1.507-.201a.4.4 0 0 0-.238.15c-.009.166.178.239.36.239.179 0 .352-.07.335-.19a.457.457 0 0 0-.39-.206c.25-.036.584-.09.867-.12zm2.867 9.977c.147.357.224.736.307 1.11.239-.193.47-.392.667-.628-.128.694-.366 1.395-.945 1.395-.35 0-.512-.237-.288-.954.106-.338.19-.66.26-.923zm-.628-3.438c2.34 1.247 4.658 2.506 6.872 3.969.52.422.985.893 1.3 1.334-.209.324-.606.435-.973.46-1.874-.066-2.607-1.872-3.597-3.162l-.538-.654.093.838c.006.15.16.864-.07.864a.17.17 0 0 1-.067-.016l-.947-1.134c-.101.067-.197.143-.301.205-.47-.95-1.157-1.836-1.772-2.704zm-2.02-7.025c-.492 0-.996.088-1.474.133-.57.278-1.147.066-1.745.283-.431.194-.552.587-.731.98.254-.085.486-.12.704-.12.697 0 1.257.351 1.993.538-.001.37-.059.788-.087 1.21-.114 1.145.49 2.15 1.361 2.865.625 1.39 1.489 2.457 2.12 3.542-.076.488-.53 2.327-.753 2.988a8.341 8.341 0 0 1-1.365.115 7.003 7.003 0 0 1-.593-.024c-.355 0-.744.606-1.127.93l7.772.06c-.198-.7-1.58-1.072-2.07-1.072a.685.685 0 0 0-.075.003c.173-.495.389-.96.45-1.653.217.195.46.404.764.426.371-.028.522-.281.569-.612.84 1.39 1.781 2.526 3.506 2.693.596-.029 1.339-.29 1.5-.923.79-.044.21-.815-.083-1.116-2.151-2.33-3.927-4.988-6.053-7.334-.819-.808-1.743-1.354-2.888-1.807-.085-.21-.113-.507-.169-.835-.06-.357-.251-.942-.6-1.124a2.667 2.667 0 0 0-.926-.146zm8.526 1.29l.261.61q-.13.043-.26.043-.131 0-.261-.044l.26-.608zm0-.478l-.57 1.25q.266.12.57.12.305 0 .571-.12l-.57-1.25zm.772-.402q.044.897.256 1.696-.261.293-1.028.293-.766 0-1.027-.293.212-.799.256-1.696zm-1.87-.24q-.13 0-.13.12t.13.12q.033.027.104.06-.044.793-.3 1.783.48.391 1.294.391.816 0 1.294-.391-.255-.99-.299-1.783.07-.033.103-.06.13 0 .13-.12t-.13-.12zm3.276.276c.07.149.117.237.374.318.746.057 1.046.155 1.221.213.125.032.361.185.369.37-.01.187-.203.33-.379.366-.158.043-.893.067-1.206.146-.24.075-.244.224-.395.336-.353-.24.032-.579.158-.65a.726.726 0 0 1 .369-.093c.068 0 .144.007.234.015.435-.003.424-.227-.019-.247h-.003c-.09 0-.163.004-.226.004-.136 0-.225-.018-.34-.132-.117-.077-.336-.33-.157-.646zm.13-.446a.403.403 0 0 0-.11.02 1.48 1.48 0 0 0-.333.554.73.73 0 0 0 .084.427c.106.093.206.222.32.327-.114.103-.18.133-.285.235-.117.162-.156.26-.135.472-.002.158.161.39.3.515.081.066.14.094.181.094.091 0 .092-.135.052-.286.037-.215.144-.3.351-.344.208-.03 1.601.057 1.613-.661-.003-.66-1.337-.718-1.597-.734-.269-.062-.285-.084-.367-.223-.012-.157.106-.396-.074-.396zm-2.4 4.347c.295 0 .665.152.844.33.157.157.177.365.183.558H33.76c.005-.193.026-.4.182-.557.18-.18.54-.331.836-.331zm0-.165c-.35 0-.728.161-.949.382-.226.227-.252.526-.252.749v.087h2.402v-.087c0-.223-.017-.522-.244-.749a1.446 1.446 0 0 0-.957-.382zm3.53-.988a.968.968 0 0 0-.092.006c-.443.047-.757.496-.688.93.031.323.232.504.452.682.654.401.47.254 1.13.588l.106-.198c-.785-.367-.88-.426-1.125-.587-.2-.162-.36-.34-.345-.61a.605.605 0 0 1 .23-.471.609.609 0 0 1 .354-.12c.095 0 .184.023.262.078.198.098.307.42.162.624a.384.384 0 0 1-.307.164.283.283 0 0 1-.167-.053c-.1-.055-.175-.25-.072-.359-.047-.05-.114-.111-.164-.111-.034 0-.059.025-.076.083-.111.268.067.571.335.644a.503.503 0 0 0 .142.022c.306 0 .59-.256.59-.574a.694.694 0 0 0-.638-.732.9.9 0 0 0-.089-.006zm7.561-2.634q1.815 0 3.849.877-2.034.853-3.85.853-1.802 0-3.849-.853 2.047-.877 3.85-.877zm0-.56q-2.242 0-5.153 1.425 2.911 1.413 5.153 1.413 2.24 0 5.152-1.413Q48.122 2.25 45.87 2.25zm4.586 4.343c.172.245.214.547.229.838-.007.138.004.287-.053.416-.161-.16-.147-.531-.15-.739 0-.204-.008-.372-.026-.515zm-9.195-.23l8.391.009c-1.226 1.162-2.455 1.73-4.308 1.73-1.86 0-2.986-.554-4.083-1.74zm-.377-.338a.169.169 0 0 0-.128.279c1.22 1.422 2.513 2.135 4.588 2.135 2.02 0 3.4-.685 4.731-2.008.046.127.069.327.069.677.008.39.005 1.035.516 1.08.36-.073.36-.458.362-.757 0-.368-.09-.701-.24-.954-.15-.254-.372-.442-.642-.442l-9.256-.01zm.614 3.751q.173 0 .455.094.485.162 1.004.675.518.513.415.951-.104.438-.404.657-.248.181-.598.181-.073 0-.151-.008-.45-.046-.773-.709-.323-.663-.3-1.182.023-.519.162-.61.067-.049.19-.049zm-.047-.4q-.238 0-.385.102-.312.22-.346.9-.035.68.392 1.476.426.795 1.037.87.117.014.228.014.467 0 .822-.256.438-.317.547-.9.11-.582-.467-1.233-.576-.652-1.245-.865-.339-.108-.583-.108zm3.346.792c.082.174.137.277.437.372.872.067 1.224.18 1.428.25.147.037.423.215.432.43-.012.22-.238.388-.443.43-.185.05-1.045.078-1.41.17-.282.088-.286.263-.463.393-.412-.28.038-.676.185-.759a.85.85 0 0 1 .431-.11c.08 0 .169.008.275.018.508-.004.495-.266-.023-.29h-.004c-.105 0-.19.005-.264.005-.16 0-.263-.02-.397-.154-.137-.09-.394-.386-.184-.755zm.152-.522a.471.471 0 0 0-.13.023 1.73 1.73 0 0 0-.388.649c-.02.118.002.32.098.499.124.108.24.26.375.382-.134.121-.21.156-.334.275-.136.19-.182.303-.157.552-.003.185.188.456.35.603.095.077.164.11.212.11.106 0 .107-.159.06-.335.044-.251.17-.352.411-.402.244-.036 1.873.066 1.886-.774-.004-.77-1.563-.84-1.867-.858-.315-.073-.333-.098-.43-.26-.013-.184.125-.464-.086-.464zm3.808.13q.173 0 .455.094.484.162 1.003.675.52.513.415.951-.103.438-.403.657-.248.181-.598.181-.073 0-.152-.008-.45-.046-.772-.709-.323-.663-.3-1.182.023-.519.161-.61.068-.049.191-.049zm-.047-.4q-.238 0-.386.102-.311.22-.346.9-.034.68.392 1.476.427.795 1.038.87.117.014.228.014.467 0 .821-.256.439-.317.548-.9.11-.582-.467-1.233-.576-.652-1.245-.865-.34-.108-.583-.108zm-2.84 4.581c.503 0 1.132.258 1.437.563.267.267.302.62.311.948h-3.482c.01-.328.044-.681.31-.948.306-.305.92-.563 1.424-.563zm0-.282c-.597 0-1.24.276-1.616.652-.386.386-.43.895-.43 1.275v.148h4.09v-.148c0-.38-.028-.889-.414-1.275-.377-.376-1.034-.652-1.63-.652zm7.572-10.927q.893.13.934.817V8.52q-.418-.498-1.5-.7l.566-5.072zm-.251-.498l-.669 5.924q1.49.17 1.854 1.064v.992h.444V3.565q0-1.113-1.63-1.315zm6.909.498q.893.13.933.817V8.52q-.417-.498-1.499-.7l.566-5.072zm-.252-.498l-.668 5.924q1.49.17 1.853 1.064v.992h.444V3.565q0-1.113-1.629-1.315zm-5.39 11.803c.476 0 1.072.245 1.36.533.252.252.285.587.295.898h-3.296c.009-.311.042-.646.294-.898.289-.288.87-.533 1.347-.533zm0-.267c-.565 0-1.173.261-1.53.618-.364.365-.406.846-.406 1.206v.14h3.871v-.14c0-.36-.027-.841-.393-1.206-.356-.357-.978-.618-1.542-.618zm3.898-2.118q.238 0 .627.13.668.222 1.383.93.715.706.572 1.31-.143.604-.556.906-.342.25-.824.25-.101 0-.21-.012-.619-.063-1.064-.977-.445-.914-.413-1.629.032-.715.223-.842.092-.066.262-.066zm-.065-.552q-.327 0-.531.141-.43.302-.477 1.24-.048.937.54 2.034.588 1.096 1.43 1.2.161.019.314.019.644 0 1.132-.353.604-.437.755-1.24.151-.802-.643-1.7-.795-.898-1.716-1.192-.468-.149-.804-.149zm11.376-8.368c-.425 1.447-.85 2.894-1.277 4.341h-3.47l-1.277-4.34zm-6.69-.498l1.57 5.338h4.216l1.57-5.338zm1.334 7.883c.18.38.3.606.955.814 1.906.145 2.675.394 3.121.544.32.082.924.471.943.943-.027.479-.52.846-.967.936-.404.112-2.284.172-3.082.375-.616.19-.624.572-1.01.857-.901-.614.082-1.478.402-1.658a1.85 1.85 0 0 1 .943-.24c.176 0 .369.017.6.038 1.112-.008 1.082-.58-.049-.632h-.01c-.23 0-.416.01-.576.01-.348 0-.575-.046-.868-.337-.298-.197-.86-.844-.401-1.65zm.332-1.14a1.03 1.03 0 0 0-.282.05c-.343.332-.672.889-.849 1.418-.043.259.004.701.214 1.09.27.237.526.567.82.835-.294.265-.461.34-.73.602-.298.413-.398.662-.344 1.205-.007.404.41.996.763 1.317.21.17.362.24.466.24.232 0 .234-.346.132-.732.094-.547.369-.767.897-.878.532-.078 4.092.146 4.122-1.69-.01-1.684-3.417-1.834-4.082-1.875-.687-.16-.727-.214-.937-.57-.03-.4.271-1.012-.19-1.012zM73.14 2.25c-.696 0-1.308.513-1.308 1.171V15.75h.852V3.421c0-.322.284-.427.462-.427.188 0 .476.131.476.527v8.103h.852V3.521c0-.66-.653-1.271-1.333-1.271zm7.846.373c-.32 1.084-.638 2.168-.957 3.253h-2.6l-.957-3.253zm-5.012-.373l1.176 3.999h3.158l1.176-3.999zm2.756 5.369c.565 0 1.273.29 1.615.633.3.3.34.697.35 1.066H76.78c.01-.369.05-.766.35-1.066.342-.343 1.033-.633 1.6-.633zm0-.317c-.672 0-1.394.31-1.817.733-.434.434-.483 1.006-.483 1.433v.167h4.598v-.167c0-.427-.032-.999-.466-1.433-.423-.423-1.162-.733-1.833-.733zm-1.757 4.24c.135.285.224.454.715.61 1.428.109 2.004.295 2.339.407.24.062.692.353.706.707-.02.358-.39.633-.725.701-.302.084-1.71.129-2.308.28-.462.143-.468.43-.758.643-.674-.46.063-1.108.302-1.242.26-.138.462-.18.706-.18.132 0 .277.012.45.028.833-.005.81-.434-.036-.473h-.008c-.172 0-.312.008-.432.008-.26 0-.43-.035-.65-.253-.224-.148-.644-.632-.3-1.236zm.248-.854a.771.771 0 0 0-.21.037c-.257.25-.504.666-.637 1.063-.032.193.004.525.16.816.203.178.394.425.615.626-.22.198-.346.254-.547.45-.224.31-.298.497-.258.904-.005.302.308.746.572.986.157.127.27.18.35.18.173 0 .174-.26.098-.548.07-.41.276-.575.672-.658.399-.059 3.065.11 3.088-1.266-.007-1.262-2.56-1.375-3.058-1.405-.515-.12-.545-.16-.702-.427-.022-.3.203-.758-.143-.758zm6.684-7.94q.893.13.933.817V8.52q-.417-.498-1.499-.7l.566-5.072zm-.252-.498l-.669 5.924q1.49.17 1.854 1.064v.992h.444V3.565q0-1.113-1.629-1.315zm6.608.498q.893.13.934.817V8.52q-.418-.498-1.5-.7l.566-5.072zm-.251-.498l-.669 5.924q1.49.17 1.854 1.064v.992h.444V3.565q0-1.113-1.63-1.315zm-4.578 10.203v.25h-1.317v-.25zm-.662.49q.826 0 1.142.422.315.42.315.756-.008.522-.436.912-.429.39-1.021.39-.6 0-1.03-.39-.428-.39-.428-.904 0-.343.257-.764t1.2-.421zm-1.03-.748v.585q-.28.164-.514.53-.234.367-.242.81 0 .523.433 1.057.433.534 1.353.573.912-.039 1.348-.573.437-.534.437-1.048-.008-.452-.242-.823-.234-.37-.522-.534v-.577zm4.778-.527q.238 0 .627.13.667.222 1.382.93.715.706.572 1.31-.143.604-.556.906-.341.25-.823.25-.102 0-.21-.012-.62-.063-1.064-.977-.445-.914-.413-1.629.031-.715.222-.842.093-.066.263-.066zm-.066-.552q-.327 0-.53.141-.43.302-.477 1.24-.048.937.54 2.034.588 1.096 1.43 1.2.16.019.313.019.645 0 1.133-.353.604-.437.755-1.24.15-.802-.644-1.7-.794-.898-1.716-1.192-.467-.149-.804-.149z"/><path d="M8.22.375c-9.625 0-9.625 17.25 0 17.25m0-17.25h83.419M8.22 17.625h83.419M99.326.375v17.25M91.639.375c9.625 0 9.625 17.25 0 17.25" fill="none" stroke="#000"/></svg>