<svg xmlns="http://www.w3.org/2000/svg" width="113.337" height="18"><path d="M15.358 2.782l-1.363 4.631h-3.702L8.93 2.782zM8.22 2.25l1.675 5.695h4.498l1.675-5.695zm5.045 7.921v.422h-2.229v-.422zm-1.121.831q1.398 0 1.932.712.534.713.534 1.28-.013.883-.738 1.543-.726.66-1.728.66-1.015 0-1.74-.66-.726-.66-.726-1.53 0-.58.435-1.293.435-.712 2.031-.712zm-1.74-1.266v.99q-.476.276-.871.896-.396.62-.41 1.372 0 .883.733 1.787.732.903 2.288.969 1.543-.066 2.282-.97.738-.903.738-1.773-.013-.765-.409-1.391-.395-.627-.883-.904v-.976zm11.318-5.523q-.091.076.03.167-.121-.015-.228-.106.107-.03.198-.061zm.106.015q.03 0 .092.076-.061.076-.168.076.137-.03.076-.152zm-.963-.187q.034 0 .096.035.076.076.091.152.012.059-.012.059-.008 0-.018-.006-.01-.005-.017-.005-.02 0 .01.059.029.058.008.058-.006 0-.016-.005-.046-.023-.114-.114-.069-.092-.069-.183 0-.05.04-.05zm.902.115q-.13 0-.334.102l-.168-.03-.015.06.183.016q.137.122.289.145.024.003.047.003.127 0 .242-.102-.06-.168-.198-.19-.022-.004-.046-.004zm-.669.255q.076.03.046.068-.016.02-.033.02t-.036-.02q-.038-.038.023-.068zm-.26-.475q-.044 0-.067.041-.038.068-.008.183.03.114.16.258.112.125.184.125.011 0 .021-.003.076-.023.061-.091-.015-.069-.091-.114.046-.061-.023-.198-.068-.137-.167-.183-.04-.018-.07-.018zm.174-.635q.329 0 .482.159.197.205-.366.312-.185-.06-.315-.06-.201 0-.27.143-.115.236.129.647.131.222.085.222-.039 0-.207-.161-.365-.35-.304-.769.06-.418.555-.479.113-.014.21-.014zm.71.531q.076 0 .167.183-.053-.008-.107-.008-.15 0-.311.061-.22.084-.114.114.232-.08.384-.08.137 0 .21.065l.212.426q-.183.061-.091.183-.034-.004-.063-.004-.103 0-.15.042-.061.053.121.144-.023.166-.369.166-.099 0-.224-.013l-.03.426q.213.258.35 1.247-.016 1.857-.168 2.222h-1.11q-.26-2.633.426-3.546.03-.243-.03-.44.166-.046.205-.191.038-.145-.107-.297t-.22-.365q-.077-.213.068-.259.041-.013.08-.013.1 0 .186.082.059.055.1.055.044 0 .067-.063.427-.137.518-.137zm-.091 5.493q.045.168.045 2.663l-1.658-.091.41-2.572zm1.46-7.075q-.289.32-.335.943.077.38.26.868-.123.913-.031 1.734-.426-.091-.944-.122-.182-.09-.471-.167l.015-.213q.23.054.364.054h.031q.137-.008.153-.115.015-.106.06-.182.046-.076-.007-.114-.038-.028-.018-.028.008 0 .026.005.045 0 .06-.061 0-.046-.045-.091.04-.02.091-.02.025 0 .053.004l.012.002q.068 0 .026-.169-.274-.456-.32-.67-.304-.608-.73-.745-.219-.07-.436-.07-.205 0-.408.062-.418.13-.502.495-.084.365.076.692.16.327.48.57.075.381-.031.579-.837 1.05-.38 3.515-.153.7-.594 2.936-.137.624-.076.99-.076.669-.38 1.825-.229.38-.974.533-.274.03-.472.198-.167.228.03.243.022.002.059.002.29 0 1.493-.109l.042.002q.483 0 .293-.701.685-1.537.624-1.97-.06-.435.137-.648h.913q.046.26.122.533.106.533.304 2.039-.06.213-.533.426-.486.106-.715.259-.066.186.193.186.037 0 .081-.004.35-.03 1.202-.076.472-.03.259-.806.167-1.598-.03-1.963-.168-.35-.092-.64-.015-2.297.008-2.616.023-.32-.16-.67.35-1.4.167-2.617.374.05.815.05.368 0 .783-.035.101.022.177.022.197 0 .219-.143.38-1.126.502-2.222l.03-.456q.076-.305.137-.594.06-.304-.091-.395-.137.334-.274.837l-.137-.35q.015-.335.053-.518.038-.182-.114-.228-.243.38-.274.73.03.305.29.99-.29.669-.625 1.688-.03-1.08-.167-2.1.152-.44.198-.623.076-.305-.091-.396-.137.32-.29.624l-.09-.335q.136-.578 0-.654zm4.367 0l-1.237 1.462h.603l.634-.755.64.755.621-.755.64.755.634-.755.64.755.633-.755.64.755.622-.755.64.755.64-.755.62.755.64-.755.634.755h.604L35.069 2.25l-.64.707-.622-.707-.64.707-.64-.707-.62.707-.64-.707-.634.707-.64-.707-.634.707-.64-.707-.621.707-.64-.707zm.012 3.342q1.213.177 1.268 1.11v6.726q-.567-.676-2.035-.95l.767-6.886zm-.34-.676l-.909 8.043q2.023.232 2.517 1.444v1.347h.603V6.701q0-1.51-2.212-1.785zm7.305.676q1.213.177 1.267 1.11v6.726q-.566-.676-2.035-.95l.768-6.886zm-.341-.676l-.908 8.043q2.023.232 2.516 1.444v1.347h.604V6.701q0-1.51-2.212-1.785zM47.385 2.84l.18.075-5.404 12.034c-.091-.06-.605-.312-.773-.507 0-.13.092-.219.36-.576.281-.375.58-.766.24-1.269-.157-.232-.373-.401-.654-.401-.174 0-.374.065-.6.221-.47-.28-.925-.42-1.666-.42-.13-1.141-.275-1.861-.435-2.762h5.36l3.392-6.395zm-.011-.59a1 1 0 0 0-.094.004L43.842 8.38c-.12.2-.245.3-.375.3a.349.349 0 0 1-.045.003c-.505 0-1.936-.922-4.294-2.765-.54-.56-.82-1.12-.84-1.681-.02-.56.147-.88.502-.961.108-.024.204-.036.29-.036.2 0 .344.064.431.194.125.185.118.37-.023.555-.07.093-.133.139-.19.139-.058 0-.11-.046-.155-.139-.09-.185-.185-.278-.285-.278-.19.07-.235.236-.135.496.093.241.263.362.512.362.019 0 .038 0 .058-.002.28-.02.476-.115.586-.285.11-.17.165-.37.165-.6a.88.88 0 0 0-.225-.601c-.15-.17-.368-.278-.653-.323a1.027 1.027 0 0 0-.16-.013c-.232 0-.464.08-.696.238-.285.195-.45.516-.495.961-.045.445.077.936.367 1.471.29.536.814 1.074 1.57 1.614.755.54 1.473 1.056 2.153 1.546.016.064-.019.096-.105.096a.533.533 0 0 1-.075-.006h-3.843c.32 1.832.516 3.128.586 3.888.09-.006.179-.01.268-.01.701 0 1.402.209 2.104.626.15-.2.312-.3.487-.3.176 0 .266.095.27.285-.305.488-.753.961-.908 1.516l1.682 1.081 5.72-13.105c-.182-.263-.421-.395-.717-.395zm3.526 0c-.698 0-1.31.513-1.31 1.171V15.75h.852V3.421c0-.322.284-.427.463-.427.187 0 .475.131.475.527v8.103h.852V3.521c0-.66-.653-1.271-1.333-1.271zm4.682 0l-1.85 2.187h.902l.948-1.13.956 1.13.93-1.13.957 1.13.947-1.13.957 1.13.948-1.13.956 1.13.93-1.13.957 1.13.956-1.13.93 1.13.957-1.13.947 1.13h.902l-1.85-2.187-.956 1.057-.93-1.057-.956 1.057-.957-1.057-.93 1.057-.956-1.057-.948 1.057-.957-1.057-.947 1.057-.957-1.057-.93 1.057-.956-1.057zm1.425 10.629c.805 0 1.813.414 2.301.902.427.426.483.992.498 1.518H54.23c.016-.526.072-1.092.499-1.518.487-.488 1.472-.902 2.278-.902zm0-.451c-.956 0-1.984.441-2.587 1.044-.618.618-.688 1.432-.688 2.04v.238h6.549v-.237c0-.61-.046-1.423-.664-2.04-.603-.604-1.655-1.045-2.61-1.045zm8.077-1.91l-.015.008 2.718 5.209h1.025l-2.718-5.217zm-2.278.008l-1.025.008 2.718 5.216 1.025-.008-2.718-5.216zm13.35-7.894c.75 0 1.417.346 1.852.888h-3.703a2.368 2.368 0 0 1 1.851-.888zm2.103 1.27c.143.272.234.575.262.897h-4.729a2.36 2.36 0 0 1 .263-.897zm.264 1.28a2.36 2.36 0 0 1-.248.896h-4.236a2.361 2.361 0 0 1-.25-.897zm-.491 1.279a2.368 2.368 0 0 1-1.876.918c-.763 0-1.44-.36-1.875-.918zM76.156 2.25a2.76 2.76 0 0 0-2.755 2.756 2.759 2.759 0 0 0 2.755 2.755 2.76 2.76 0 0 0 2.756-2.755 2.76 2.76 0 0 0-2.756-2.756zm-3.726 9.056l-.752 3.395-.715-.332 1.468-3.063zm9.13-2.286c-.014 0-.029 0-.044.002a1.24 1.24 0 0 0-.37.115c-.774.98-1.35 2.194-1.722 3.637-.43.072-1.442.515-3.025 1.327a.705.705 0 0 1-.247.039 2.25 2.25 0 0 1-.659-.128 1.002 1.002 0 0 0-.308-.042c-.084 0-.172.006-.266.016l-.332.102-2.144-3.496-2.13 4.275.293.102.14-.294.128.051-.14.358.204.076.14-.332.153.077-.128.344.23.09.115-.345.179.09-.077.344.243.115.855-3.93 1.595 2.577-.37.102-.383.115c.01.106.03.183.076.243.048.059.132.094.243.102.11.008.162.034.178.09.07.239.157.45.256.612.078.127.17.19.274.19a.295.295 0 0 0 .083-.012c.149-.046.301-.086.447-.14l.15.225c.016.023.043.033.074.033.109 0 .272-.119.22-.2l-.138-.211c.301-.13.59-.292.88-.447.988-.144 1.857-.366 2.59-.663.735-.297 1.24-.615 1.52-.957.078-.045.421-.632 1.02-1.749.6-1.116.776-1.881.536-2.31a.36.36 0 0 0-.115-.127.407.407 0 0 0-.224-.066zm3.497-5.927q1.511.22 1.58 1.382v8.382q-.706-.843-2.536-1.184l.956-8.58zm-.425-.843l-1.131 10.022q2.52.289 3.136 1.8v1.678h.751V4.475q0-1.883-2.756-2.225zm5.708 0c-.057 0-.113.005-.17.01-.815.087-1.394.913-1.266 1.713.057.594.426.928.83 1.256 1.206.738.867.466 2.082 1.082l.195-.364c-1.446-.677-1.62-.785-2.071-1.082-.37-.298-.661-.626-.636-1.123-.01-.344.195-.697.426-.867.184-.138.42-.22.65-.22.175 0 .34.041.483.144.364.179.564.774.297 1.148a.707.707 0 0 1-.564.303.522.522 0 0 1-.307-.098c-.185-.102-.323-.461-.134-.661-.087-.093-.21-.205-.302-.205-.062 0-.108.046-.139.153-.205.493.123 1.052.616 1.185a.927.927 0 0 0 .261.04c.564 0 1.087-.47 1.087-1.055a1.277 1.277 0 0 0-1.174-1.349 1.657 1.657 0 0 0-.164-.01zm-1.452 5.073v3.707h.62V7.323zm2.502 0v3.707h.621V7.323zm-1.25 4.72v3.707h.62v-3.707zm8.296-9.793c-.087 0-.173.01-.26.032a1.66 1.66 0 0 0-.567.29h-4.098v.907h4.098c.204.151.393.248.567.29a1.087 1.087 0 0 0 .517 0 1.23 1.23 0 0 0 .512-.29h.158c.164.151.333.248.507.29a1.092 1.092 0 0 0 .522 0c.174-.042.36-.139.557-.29h4.138v-.906h-4.138a1.544 1.544 0 0 0-.557-.291 1.092 1.092 0 0 0-.522 0c-.174.043-.343.14-.507.29h-.158a1.239 1.239 0 0 0-.512-.29 1.057 1.057 0 0 0-.257-.032zM94.75 5.797c.257.418.674.677.94.944.286.287.565.541.578 1.226l.038 1.962-.56-.02-.045-1.813c-.022-.869-.226-1.053-.952-2.3zm2.804 4.691l-.712 1.643c-.08.256-.256.384-.526.384h-.482c-.278 0-.457-.132-.537-.395l-.712-1.632zm-3.539-5.44c-.16 0 .359 1.065.655 1.503.447.661.608 1.153.607 1.561l-.003 1.817h-1.399c-.243 0-.364.062-.364.187 0 .124.135.303.406.536.168.14.5.815.996 2.027.08.183.19.274.33.274h1.653c.132 0 .241-.091.329-.274.497-1.212.829-1.888.997-2.027.263-.248.398-.427.405-.536 0-.125-.121-.187-.364-.187h-.041l-1.39-.02c-.188-1.323.021-1.665-.235-2.398-.134-.385-.047-.602-.87-1.293-.61-.521-1.551-1.17-1.712-1.17zm9.016 2.912c-.07 0-.139.006-.208.012-1.002.107-1.715 1.122-1.557 2.106.07.731.523 1.141 1.021 1.545 1.482.907 1.066.573 2.56 1.33l.24-.448c-1.778-.832-1.993-.964-2.548-1.33-.454-.366-.813-.77-.781-1.38-.013-.423.24-.858.523-1.066.227-.17.517-.271.8-.271.215 0 .417.05.593.176.448.22.694.952.366 1.412a.87.87 0 0 1-.694.372.642.642 0 0 1-.378-.12c-.227-.126-.397-.567-.164-.813-.107-.113-.258-.252-.372-.252-.075 0-.132.057-.17.19-.252.604.151 1.292.757 1.456.107.031.214.05.321.05.694 0 1.337-.58 1.337-1.299.063-.838-.606-1.608-1.444-1.658a2.038 2.038 0 0 0-.202-.013zm-4.595 6.238c-.087 0-.173.011-.26.032-.174.043-.363.14-.567.291h-4.098v.906h4.098c.204.151.393.248.567.291a1.087 1.087 0 0 0 .517 0c.17-.043.342-.14.512-.29h.158c.164.15.333.247.507.29a1.092 1.092 0 0 0 .522 0c.174-.043.36-.14.557-.29h4.138v-.907h-4.138a1.544 1.544 0 0 0-.557-.29 1.092 1.092 0 0 0-.522 0 1.157 1.157 0 0 0-.507.29h-.158a1.239 1.239 0 0 0-.512-.29 1.057 1.057 0 0 0-.257-.033z"/><path d="M8.22.375c-9.625 0-9.625 17.25 0 17.25m0-17.25h96.867M8.22 17.625h96.867m7.687-17.25v17.25M105.087.375c9.625 0 9.625 17.25 0 17.25" fill="none" stroke="#000"/></svg>