<svg xmlns="http://www.w3.org/2000/svg" width="146.088" height="18"><path d="M10.112 2.25L8.22 4.487h.923l.969-1.156.978 1.156.95-1.156.98 1.156.968-1.156.979 1.156.97-1.156.978 1.156.95-1.156.979 1.156.978-1.156.95 1.156.98-1.156.968 1.156h.923L21.75 2.25l-.978 1.081-.95-1.081-.98 1.081-.978-1.081-.95 1.081-.979-1.081-.97 1.081-.978-1.081-.969 1.081-.978-1.081-.95 1.081-.98-1.081zm-.071 6.594q.403 0 1.061.22 1.13.376 2.339 1.572 1.21 1.196.968 2.218-.242 1.021-.941 1.532-.578.422-1.393.422-.172 0-.354-.019-1.049-.107-1.802-1.653-.752-1.546-.698-2.755.053-1.21.376-1.425.157-.112.444-.112zm-.11-.933q-.554 0-.899.238-.725.511-.806 2.097-.08 1.586.914 3.441.995 1.855 2.42 2.03.272.033.53.033 1.09 0 1.916-.598 1.021-.74 1.276-2.097.256-1.357-1.088-2.876T11.29 8.163q-.79-.252-1.36-.252zm7.801 1.846c.191.406.32.647 1.018.868 2.034.156 2.854.42 3.33.58.342.088.986.504 1.006 1.007-.028.51-.554.903-1.032.999-.43.12-2.437.183-3.288.4-.657.202-.666.61-1.078.914-.961-.655.088-1.577.43-1.77a1.98 1.98 0 0 1 1.006-.254 7.2 7.2 0 0 1 .64.04c1.186-.009 1.154-.62-.052-.674h-.01c-.246 0-.445.01-.616.01-.37 0-.614-.049-.926-.359-.318-.21-.917-.9-.428-1.761zm.353-1.216c-.078 0-.177.017-.3.053-.366.355-.717.948-.906 1.513-.046.276.005.748.228 1.163.289.253.561.605.875.891-.314.283-.492.363-.778.642-.32.44-.426.707-.368 1.286-.007.43.438 1.063.814 1.405.224.18.386.256.497.256.248 0 .25-.37.14-.78.101-.585.395-.82.958-.938.568-.083 4.366.156 4.398-1.803-.01-1.797-3.646-1.957-4.355-2-.733-.17-.776-.229-1-.608-.032-.427.29-1.08-.203-1.08zM31.76 2.7c.805 0 1.813.415 2.301.903.427.426.483.992.499 1.518h-5.577c.016-.526.072-1.092.499-1.518.488-.488 1.472-.902 2.278-.902zm0-.45c-.956 0-1.984.441-2.587 1.044-.618.618-.688 1.432-.688 2.04v.238h6.55v-.237c0-.61-.047-1.423-.665-2.04-.603-.604-1.655-1.045-2.61-1.045zm0 10.575q2.33 0 4.943 1.126-2.613 1.095-4.943 1.095-2.315 0-4.943-1.095 2.628-1.126 4.943-1.126zm0-.72q-2.879 0-6.617 1.83 3.738 1.815 6.617 1.815 2.878 0 6.616-1.815-3.722-1.83-6.616-1.83zm9.673-9.012q1.51.22 1.58 1.382v8.382q-.707-.843-2.537-1.184l.957-8.58zm-.425-.843l-1.132 10.022q2.521.289 3.136 1.8v1.678h.752V4.475q0-1.883-2.756-2.225zm5.812.843q1.511.22 1.58 1.382v8.382q-.706-.843-2.536-1.184l.956-8.58zm-.425-.843l-1.131 10.022q2.52.289 3.136 1.8v1.678h.751V4.475q0-1.883-2.756-2.225zm8.883.378v.367h-1.937v-.367zm-.974.722q1.215 0 1.68.62.463.618.463 1.111-.011.768-.642 1.341-.63.573-1.501.573-.883 0-1.513-.573-.63-.573-.63-1.33 0-.504.378-1.123t1.765-.619zm-1.513-1.1v.86q-.413.24-.757.78-.344.538-.355 1.191 0 .768.636 1.553.636.786 1.989.843 1.341-.057 1.983-.843.642-.785.642-1.541-.012-.665-.356-1.21-.343-.544-.768-.785V2.25zm1.513 9.924q-.235 0-.379.157-.143.157-.143.352 0 .17.143.333.144.163.366.163.248 0 .385-.15t.137-.346q0-.209-.163-.359t-.346-.15zm0-.117q.235 0 .437.183.202.182.202.443 0 .235-.176.431t-.476.196q-.274 0-.45-.209-.177-.209-.177-.418 0-.248.177-.437.176-.19.463-.19zm0-3.276q-.248 0-.287.509v2.232q.013.26-.144.483-.137.052-.267.052t-.255-.052l-2.114-.692q-.177-.04-.3-.04-.232 0-.275.144-.078.235.405.431l2.127.679q.248.078.405.313 0 .287-.17.496l-1.305 1.801q-.274.444-.078.574.052.039.115.039.172 0 .42-.287l1.305-1.8q.144-.223.418-.314.261.078.418.313l1.305 1.801q.248.287.413.287.06 0 .109-.039.196-.143-.065-.587l-1.319-1.801q-.17-.209-.156-.483.156-.235.417-.313l2.115-.679q.483-.196.405-.418-.053-.156-.29-.156-.12 0-.285.039l-2.127.692q-.124.045-.252.045-.127 0-.257-.045-.17-.222-.157-.483V9.29q-.04-.51-.274-.51zM66.291 2.25c-.12 0-.24.015-.36.044-.242.06-.504.194-.787.404h-5.688v1.258h5.688c.283.21.545.344.787.403a1.51 1.51 0 0 0 .717 0c.237-.06.474-.194.711-.403h.22c.227.21.462.344.703.403a1.516 1.516 0 0 0 .725 0c.242-.06.5-.194.773-.403h5.742V2.698H69.78c-.274-.21-.531-.344-.773-.404a1.516 1.516 0 0 0-.725 0 1.62 1.62 0 0 0-.704.404h-.219c-.237-.21-.474-.344-.71-.404a1.468 1.468 0 0 0-.358-.044zm-5.344 4.882c.31.503.813.815 1.134 1.137.344.346.68.652.696 1.477l.045 2.363-.674-.024-.055-2.184c-.026-1.046-.272-1.268-1.146-2.77zm3.378 5.65l-.858 1.978c-.097.308-.308.462-.633.462h-.58c-.335 0-.55-.158-.647-.475l-.858-1.966zm-4.262-6.553c-.193 0 .432 1.284.789 1.811.538.797.732 1.389.731 1.88l-.004 2.189h-1.634l-.05-.001c-.293 0-.439.075-.439.225 0 .15.163.365.489.646.202.167.602.981 1.2 2.441.097.22.229.33.396.33h1.992c.158 0 .29-.11.396-.33.598-1.46.998-2.274 1.2-2.44.317-.3.48-.515.489-.647 0-.15-.146-.225-.438-.225h-.05l-1.675-.023c-.226-1.595.026-2.006-.282-2.889-.162-.464-.056-.725-1.047-1.557-.736-.627-1.87-1.41-2.063-1.41zm11.257 5.407q-.27 0-.436.18-.165.18-.165.406 0 .195.165.383.166.187.421.187.285 0 .443-.172.158-.173.158-.398 0-.24-.188-.413t-.398-.173zm0-.135q.27 0 .503.21.233.21.233.51 0 .271-.203.496-.203.225-.548.225-.315 0-.518-.24t-.203-.48q0-.286.203-.503.203-.218.533-.218zm0-3.77q-.285 0-.33.586v2.568q.015.3-.166.556-.157.06-.307.06t-.293-.06l-2.433-.796q-.203-.047-.344-.047-.268 0-.317.167-.09.27.466.496l2.448.78q.285.09.465.36 0 .331-.195.572l-1.502 2.072q-.315.51-.09.66.06.045.133.045.197 0 .483-.33l1.501-2.072q.166-.255.481-.36.3.09.48.36l1.502 2.072q.286.33.475.33.07 0 .126-.044.225-.166-.075-.676l-1.517-2.073q-.195-.24-.18-.555.18-.27.48-.36l2.433-.781q.556-.226.466-.481-.06-.18-.334-.18-.137 0-.327.045l-2.448.796q-.142.052-.289.052-.146 0-.296-.052-.196-.256-.18-.556V8.317q-.046-.586-.316-.586zM83.993 2.7c.805 0 1.813.415 2.301.903.427.426.483.992.499 1.518h-5.577c.016-.526.072-1.092.499-1.518.487-.488 1.472-.902 2.278-.902zm0-.45c-.956 0-1.984.441-2.587 1.044-.618.618-.688 1.432-.688 2.04v.238h6.55v-.237c0-.61-.047-1.423-.665-2.04C86 2.69 84.948 2.25 83.993 2.25zm-1.04 11.631a1.31 1.31 0 0 0-.313.039c-.21.051-.437.168-.682.35h-4.936v1.091h4.936c.245.182.472.299.682.35a1.31 1.31 0 0 0 .623 0c.206-.051.411-.168.617-.35h.19c.197.182.401.299.61.35a1.316 1.316 0 0 0 .63 0c.21-.051.433-.168.67-.35h4.983V14.27H85.98c-.237-.182-.46-.299-.67-.35a1.316 1.316 0 0 0-.63 0 1.396 1.396 0 0 0-.61.35h-.19a1.492 1.492 0 0 0-.617-.35 1.274 1.274 0 0 0-.31-.039zM96.2 2.914q2.725.331 0 5.047-2.724-4.716 0-5.047zm0-.664q-3.772.262-.524 6.06h-3.213v.821h3.178v6.619h1.083V9.096h3.214V8.31h-3.214q3.248-5.815-.524-6.06zm6.439.418c-.114 0-.396.136-.132.137.043 0 .138.013.209.013.084 0 .133-.018.016-.099-.028-.019-.053-.05-.089-.05h-.004zm.044-.09h.01c.203.047.364.218.575.277.178.05.47.115.409.376-.082.347-.315.683-.242 1.046.046.228.3.248.504.248l.097-.001c1.339-.01 2.402-.067 3.254-.067 1.398 0 2.231.152 2.789.906.924 1.25.608 2.501.378 4.08.064-.931.373-2.4-.585-3.667-.404-.535-1.09-.76-1.721-.92-.29-.072-.677-.098-1.104-.098-.986 0-2.185.136-2.882.136a2.29 2.29 0 0 1-.403-.027c-.268-.051-.46-.382-.436-.656.031-.364.318-.702.21-1.07-.047-.163-.19-.2-.345-.2-.111 0-.228.02-.322.024-.101.005-.2.02-.298.02a.525.525 0 0 1-.372-.13c-.227-.201.393-.278.484-.278zm.031-.328h-.021a1.89 1.89 0 0 0-.848.254c-.267.155-.052.456.128.589.167.122.354.237.563.237.04 0 .082-.005.124-.014.106-.023.295-.068.424-.068.076 0 .13.015.136.06.048.362-.338.8-.182 1.22.127.342.42.654.81.682.171.012.342.017.513.017.9 0 1.795-.145 2.695-.16l.086-.001c1.724 0 2.592.9 2.79 1.46.191.542.33 1.11.28 1.686-.058.695-.16 1.395-.103 2.09.05.612.263 1.206.409 1.8.034.14.132.209.224.209.1 0 .194-.083.187-.249-.03-.765-.206-1.42-.186-2.126.017-.607.173-1.191.209-1.8.041-.706.238-3.083-1.688-3.775-.554-.2-1.257-.253-2.002-.253-.882 0-1.823.075-2.646.075-.308 0-.6-.01-.866-.04.106-.377.31-.707.262-1.1-.037-.312-.378-.428-.637-.5-.241-.065-.405-.293-.66-.293zm2.64 8.512c.594 0 1.336.305 1.696.665.314.314.355.731.367 1.118h-4.108c.012-.387.053-.804.367-1.118.36-.36 1.085-.665 1.678-.665zm0-.332c-.704 0-1.461.326-1.905.77-.455.455-.507 1.054-.507 1.503v.175h4.825v-.175c0-.449-.035-1.048-.49-1.504-.444-.443-1.219-.769-1.923-.769zm5.302 4.022c.089 0 .134.325.134.414 0 .09-.045.414-.134.414h-8.592c-.104 0-.157-.324-.157-.414 0-.09.053-.414.157-.414zm-8.86-.47c-.24 0-.358.482-.358.884 0 .403.119.884.358.884h9.128c.224 0 .336-.481.336-.884 0-.402-.112-.884-.336-.884zM118.754 2.92v12.27h-5.356v-.592h2.71V7.326h1.665V2.92zm-1.557-.67v4.531h-1.666v7.334h-2.771v1.635h6.57V2.25zm7.185.45c.805 0 1.813.415 2.301.903.427.426.483.992.498 1.518h-5.576c.016-.526.072-1.092.499-1.518.487-.488 1.472-.902 2.278-.902zm0-.45c-.956 0-1.984.441-2.587 1.044-.618.618-.688 1.432-.688 2.04v.238h6.55v-.237c0-.61-.047-1.423-.665-2.04-.603-.604-1.655-1.045-2.61-1.045zm-1.73 6.594q.402 0 1.06.22 1.13.376 2.34 1.572 1.21 1.196.967 2.218-.242 1.021-.94 1.532-.578.422-1.394.422-.172 0-.354-.019-1.048-.107-1.801-1.653-.753-1.546-.699-2.755.054-1.21.376-1.425.157-.112.445-.112zm-.11-.933q-.554 0-.9.238-.725.511-.806 2.097-.08 1.586.914 3.441.995 1.855 2.42 2.03.272.033.53.033 1.09 0 1.916-.598 1.022-.74 1.277-2.097.255-1.357-1.089-2.876-1.344-1.519-2.903-2.016-.79-.252-1.36-.252zm8.048-4.103l2.736 2.406q-.577.89-1.533 1.797-.907-2.143-1.204-4.203zm-.729-1.187q-.528 0-.409.725.511.248.429.56-.083.314.066 1.04.148.725 1.186 3.444-.315 1.074.367 1.074l.062-.002q1.846 3.395 4.071 5.917h.396l-.099-1.104q-1.78-1.665-3.808-5.39.594-1.253 1.665-2.193l3.28 2.95q.248.112.417.112.458 0 .325-.82l-3.297-2.818q.014-.75-.624-.75-.148 0-.332.04L130.59 2.82q-.452-.198-.728-.198z"/><path d="M8.22.375c-9.625 0-9.625 17.25 0 17.25m0-17.25h129.618M8.22 17.625h129.618m7.688-17.25v17.25M137.838.375c9.625 0 9.625 17.25 0 17.25" fill="none" stroke="#000"/></svg>