<svg xmlns="http://www.w3.org/2000/svg" width="78.453" height="18"><path d="M11.155 2.753c-.047.47-.239.91-.574 1.32a1.01 1.01 0 0 1-.204.022c-.184 0-.337-.066-.592-.199-.343-.178-.487-.393-.434-.645.054-.252.202-.401.444-.448a2.82 2.82 0 0 1 .378-.015c.247 0 .524.008.576.008.137 0 .263-.015.406-.043zM19.798 4.8c.168 0 .208.09.158.456-.05.366-.036.837.045 1.41.07.5-.274.646-.336.646h-.004c-.433-.071-.672-.256-.53-.776.14-.52.422-.982.667-1.736zm-8.17-1.842c.712.148 1.381.284 2.2.318.746.03 3.662.046 4.197.05.803.007 1.456.072 1.96.197.503.124.872.328 1.235.832.363.503.57 1.151.62 1.944.048.766-.094.96-.542 1.09h-.001c-.031 0-.648-.16-.734-.594-.087-.44-.227-.964-.196-1.498.03-.534-.184-.948-.513-1.022-.33-.074-.75-.14-1.26-.197-.51-.057-1.657-.092-3.44-.106-.549-.004-1.036-.006-1.462-.006-.959 0-2.13.042-2.2.042-.255 0-.282-.008-.176-.177.134-.215.239-.463.312-.873zm-.21-.708c-.05 0-.11.104-.179.13a.999.999 0 0 1-.36.05l-.177-.002h-.025c-.139 0-.785 0-1.024.017-.393.027-.64.256-.74.595-.102.339 0 .64.301.901.303.262.635.432.998.51.19.04.337.06.443.06.097 0 .16-.017.187-.05.057-.071.644-.11 1.763-.117a645.97 645.97 0 0 1 3.476-.01c1.199 0 2.356.091 3.47.272-.382.699-.651 1.305-.806 1.819-.154.514-.065.892.267 1.133.16.117.351.175.573.175.241 0 .519-.069.833-.205.264.187.523.28.778.28.121 0 .241-.02.36-.063.37-.131.581-.474.635-1.028a3.986 3.986 0 0 0-.295-1.971c-.312-.736-.82-1.245-1.374-1.49-.54-.238-1.3-.302-2.247-.302-.026 0-2.358-.01-3.323-.035-1.179-.03-2.015-.077-2.509-.141-.493-.064-.677-.21-.735-.348-.037-.09-.194-.18-.29-.18zm.38 9.855q-1.462.034-2.42 1.058-1.057 1.16-1.158 2.318 0 .269.302.269h14.042q.302 0 .302-.32 0-.318-.302-.318H8.976q.84-2.15 2.52-2.385h11.068q.302 0 .302-.32 0-.302-.302-.302zm14.125-9.012q1.51.22 1.579 1.382v8.382q-.706-.843-2.536-1.184l.957-8.58zm-.426-.843l-1.131 10.022q2.52.289 3.136 1.8v1.678h.752V4.475q0-1.883-2.757-2.225zm7.531.45c.806 0 1.814.415 2.302.903.427.426.482.992.498 1.518h-5.576c.015-.526.071-1.092.498-1.518.488-.488 1.473-.902 2.278-.902zm0-.45c-.956 0-1.984.441-2.586 1.044-.618.618-.688 1.432-.688 2.04v.238h6.549v-.237c0-.61-.047-1.423-.665-2.04-.602-.604-1.654-1.045-2.61-1.045zm1.121 7.921v.422H31.92v-.422zm-1.121.831q1.398 0 1.932.712.534.713.534 1.28-.013.883-.738 1.543-.726.66-1.728.66-1.015 0-1.74-.66-.726-.66-.726-1.53 0-.58.435-1.293.435-.712 2.031-.712zm-1.74-1.266v.99q-.476.276-.871.896-.396.62-.409 1.372 0 .883.732 1.787.732.903 2.288.969 1.543-.066 2.282-.97.738-.903.738-1.773-.013-.765-.409-1.391-.395-.627-.883-.904v-.976zm8.072-6.643q1.51.22 1.578 1.382v8.382q-.706-.843-2.536-1.184l.957-8.58zm-.426-.843l-1.131 10.022q2.52.289 3.135 1.8v1.678h.752V4.475q0-1.883-2.756-2.225zm7.61 3.715h-.015c-.155.002-.256.047-.303.132v.175l-.432.227c-.144.075-.216.144-.216.206l.73-.34c.012.029.061.043.149.043.018 0 .037 0 .057-.002a.7.7 0 0 0 .36-.113V6.21h-.061a.543.543 0 0 0-.263-.077.405.405 0 0 0-.087.01.441.441 0 0 0-.23.11c.052-.112.244-.167.575-.167h.056v-.082a1.556 1.556 0 0 0-.32-.04zm1.113-.115a1.145 1.145 0 0 0-.242.49c-.038.174-.047.58-.026 1.219.473-.268.746-.55.818-.85.072-.298.064-.543-.025-.735l-.165-.03-.185-.052-.175-.042zm-.368-.314h.004c.266.002.523.097.744.242.395.231.771.491 1.154.742.26.156.554.262.853.317-.487.026-.987.101-1.423.333-.283.155-.524.404-.624.716-.09.276-.085.572-.09.86.004.539.104 1.095.4 1.552.019.032.049.063.06.094-.046.045-.108.056-.172.056-.043 0-.086-.005-.126-.007-.18-.032-.311-.176-.432-.303a3.969 3.969 0 0 1-.476-.66c-.262-.489-.35-1.05-.393-1.598-.015-.194-.01-.389-.026-.582-.012-.088-.073-.186-.171-.186a.146.146 0 0 0-.006 0c-.13 0-.237.09-.358.126a1.117 1.117 0 0 1-.374.067c-.127.012-.243.08-.37.08l-.032-.002a1.146 1.146 0 0 1-.145-.015c.198-.062.401-.118.584-.218.055-.028.115-.096.078-.16a.096.096 0 0 0-.085-.043.232.232 0 0 0-.106.03c-.136.065-.255.17-.404.207a.968.968 0 0 1-.314.05c-.04-.037-.042-.1-.038-.152.03-.083.131-.095.196-.14.025-.01.05-.035.076-.035a.04.04 0 0 1 .026.01.2.2 0 0 0 .087.022c.037 0 .071-.013.09-.049.047-.081.002-.188-.078-.23a.17.17 0 0 0-.243.073c-.029.052-.094.063-.138.1-.007.008-.013.012-.018.012-.013 0-.02-.023-.026-.038-.01-.032.043-.026.055-.047.166-.11.34-.208.5-.325.18-.212.437-.334.685-.448.026-.026.006-.07.036-.096.087-.123.24-.17.373-.225.207-.074.424-.129.645-.13h.022zm6.77 1.575h.01c.625.002 1.263.11 1.808.43.18.104.349.234.472.403-.159-.132-.356-.203-.551-.266.02.06.011.13.045.184.206.125.382.336.39.585.015.337-.146.65-.34.916-.164.23-.345.472-.377.76-.004.052.003.108-.035.148-.087.105-.227.146-.356.171a.857.857 0 0 1-.143.013.547.547 0 0 1-.376-.13c-.088-.09-.147-.206-.233-.3-.227-.277-.507-.532-.857-.638a1.168 1.168 0 0 0-.47-.044l.165.247a.632.632 0 0 1 .17-.024.411.411 0 0 1 .376.205c-.173.005-.342.05-.514.07-.48.07-.962.147-1.441.216-.036-.038-.083-.07-.137-.07a.14.14 0 0 0-.008 0c-.69-.105-1.382-.212-2.081-.217a.09.09 0 0 1-.02.003c-.026 0-.036-.017-.03-.05-.002-.06-.033-.14-.102-.14l-.008.001c-.085.005-.13.089-.152.161-.052.134-.085.296-.212.381a.34.34 0 0 1-.16.038.461.461 0 0 1-.256-.082c-.093-.08-.135-.2-.185-.308-.155-.394-.176-.825-.162-1.244.018-.314.103-.64.321-.876.173-.194.432-.283.68-.338.467-.106.95-.125 1.43-.137h.037c.315 0 .63.021.944.021h.033l.163.001c.599 0 1.197-.03 1.793-.08a6.478 6.478 0 0 1 .369-.01zM49.397 4.41a.953.953 0 0 0-.387.08 1.01 1.01 0 0 1-.41.09 1.01 1.01 0 0 1-.408-.09.702.702 0 0 0-.285-.058c-.217 0-.468.086-.752.258-.289-.172-.543-.258-.76-.258a.705.705 0 0 0-.287.058 1.01 1.01 0 0 1-.41.09 1.01 1.01 0 0 1-.408-.09.953.953 0 0 0-.388-.08c-.172 0-.357.042-.555.125-.242.102-.435.153-.579.153a.383.383 0 0 1-.168-.034 1.649 1.649 0 0 0-.305-.124.158.158 0 0 0-.045-.008c-.052 0-.07.042-.054.127.106.313.316.476.628.49l.146.002c.246 0 .452-.029.617-.087a.847.847 0 0 1 .286-.047c.127 0 .266.024.417.071.173.055.342.083.508.083.096 0 .191-.01.285-.028a.945.945 0 0 1 .18-.018c.165 0 .308.05.428.15a2.25 2.25 0 0 0-.501.21c-.111.066-.219.17-.23.304a1.428 1.428 0 0 0-.327.176c-.197.135-.368.306-.54.47-.083.06-.179.102-.258.167-.066.043-.123.111-.118.195-.008.108.043.208.058.31a.731.731 0 0 0 .117.385c.09.06.179.122.276.17.03.323.079.663.27.933a.513.513 0 0 0 .17.158h.155v-.475l.288.12c.065-.027.087-.105.11-.165.058-.203.027-.42.004-.626-.024-.054.012-.064.06-.065h.005c.025 0 .064-.017.089-.017.01 0 .019.004.021.014.005.724.121 1.465.463 2.11.12.23.275.443.446.637.047.2-.06.389-.154.557-.09.159-.242.275-.312.445-.09.18-.11.39-.227.558-.103.164-.251.293-.396.418-.122.113-.243.235-.309.39-.34.255-.676.537-.884.913-.008.029.02.035.044.035l.026-.002h1.026a1.06 1.06 0 0 0 .262-.32c.045.018.096.03.147.03a.245.245 0 0 0 .2-.089.257.257 0 0 0 .07-.204c.01-.34.119-.69.35-.943.11-.1.249-.167.372-.25.062-.055.105-.129.163-.189a5.13 5.13 0 0 1 .92-.846c.021-.01.047-.035.07-.035.01 0 .018.004.026.013.17.118.3.284.423.448.06.193.138.39.287.534a.719.719 0 0 0 .236.156c.11.252.143.527.157.8-.24.28-.462.578-.651.895h1.168a.726.726 0 0 0 .192-.481h.024c.113 0 .23-.065.261-.178.05-.15-.025-.309-.107-.433-.174-.257-.333-.541-.351-.857-.005-.12.005-.243-.029-.36a.817.817 0 0 0-.254-.43c-.193-.208-.273-.491-.33-.763.259.01.518.024.776.058.345.044.69.102 1.03.18.02.007.055.009.047.04.017.1.086.198.187.224.061.18.117.373.255.509.025.02.054.035.083.049.017-.215.039-.43.099-.637l1.022-.097c-.062.42-.145.85-.364 1.218-.202.33-.472.612-.758.871-.072.101-.135.222-.247.283a.276.276 0 0 0-.146.05c-.17.11-.282.289-.393.454-.063.098-.12.198-.177.3h1.282c.017-.104.03-.21.027-.316a.31.31 0 0 0 .1.016.248.248 0 0 0 .217-.112.632.632 0 0 0 .09-.273c.257-.254.41-.59.627-.874a1.14 1.14 0 0 1 .459-.365.69.69 0 0 0 .329-.472l.017.001c.062 0 .108-.055.15-.092a.443.443 0 0 0 .09.009c.092 0 .187-.031.235-.115a.335.335 0 0 0 .03-.074c.328.21.587.54.68.921.053.172.025.354.032.532v.308a7.003 7.003 0 0 0-.663.906h1.17a.769.769 0 0 0 .191-.49.286.286 0 0 0 .035.002c.103 0 .209-.054.244-.154.06-.15-.008-.314-.086-.443-.042-.067-.023-.151-.035-.226-.02-.343-.021-.688-.022-1.032.005-.12.016-.258-.062-.36-.04-.045-.114-.02-.15-.072-.074-.093-.105-.212-.14-.325-.06-.209-.057-.452.074-.634a2.01 2.01 0 0 0 .241-.372c.082-.164.144-.337.199-.512a3.4 3.4 0 0 1-.106 1.01c-.081.437-.047.885.008 1.323.031.208.071.428.202.598.045.054.118.1.19.1a.154.154 0 0 0 .082-.022c.13-.065.198-.213.194-.354.004-.202-.063-.395-.095-.592-.074-.35-.15-.699-.227-1.047.102-.582.17-1.184.056-1.769-.07-.353-.24-.707-.546-.912a3.783 3.783 0 0 0-.594-.31 3.356 3.356 0 0 0-1.499-.256 25.305 25.305 0 0 1-3.205-.119 3.62 3.62 0 0 1-1.001-.22c-.579-.219-1.084-.583-1.598-.92a1.865 1.865 0 0 0-.652-.259.828.828 0 0 1 .397-.097c.06 0 .122.006.187.017.08.015.163.022.248.022.168 0 .343-.029.525-.087.15-.047.29-.071.417-.071a.83.83 0 0 1 .286.047c.164.058.37.087.617.087.047 0 .096 0 .146-.003.312-.013.525-.176.638-.489.01-.085-.013-.127-.07-.127a.183.183 0 0 0-.05.008 2.007 2.007 0 0 0-.299.124.395.395 0 0 1-.17.034c-.145 0-.338-.051-.578-.153a1.414 1.414 0 0 0-.55-.125zm14.962-1.778c.749 0 1.417.346 1.851.888h-3.703a2.368 2.368 0 0 1 1.852-.888zm2.102 1.27c.143.272.234.575.262.897h-4.729a2.36 2.36 0 0 1 .263-.897zm.264 1.28a2.36 2.36 0 0 1-.248.896H62.24a2.361 2.361 0 0 1-.249-.897zm-.49 1.279a2.368 2.368 0 0 1-1.876.918 2.37 2.37 0 0 1-1.876-.918zM64.358 2.25a2.76 2.76 0 0 0-2.756 2.756A2.759 2.759 0 0 0 64.36 7.76a2.76 2.76 0 0 0 2.755-2.755A2.76 2.76 0 0 0 64.36 2.25zm-3.725 9.056l-.753 3.395-.715-.332 1.468-3.063zm9.13-2.286c-.015 0-.03 0-.044.002-.106.01-.23.052-.37.115-.775.98-1.35 2.194-1.723 3.637-.429.072-1.442.515-3.025 1.327a.705.705 0 0 1-.247.039 2.25 2.25 0 0 1-.659-.128 1.002 1.002 0 0 0-.307-.042c-.085 0-.173.006-.267.016l-.332.102-2.143-3.496-2.132 4.275.294.102.14-.294.128.051-.14.358.204.076.14-.332.153.077-.127.344.23.09.114-.345.179.09-.077.344.243.115.855-3.93 1.595 2.577-.37.102-.383.115c.01.106.03.183.077.243.047.059.131.094.242.102.11.008.163.034.179.09.07.239.156.45.255.612.078.127.17.19.274.19a.295.295 0 0 0 .083-.012c.15-.046.301-.086.447-.14l.15.225c.016.023.043.033.074.033.109 0 .272-.119.22-.2l-.138-.211c.302-.13.59-.292.88-.447.988-.144 1.857-.366 2.591-.663.734-.297 1.24-.615 1.519-.957.079-.045.422-.632 1.02-1.749.6-1.116.776-1.881.536-2.31a.36.36 0 0 0-.114-.127.407.407 0 0 0-.225-.066z"/><path d="M8.22.375c-9.625 0-9.625 17.25 0 17.25m0-17.25h61.983M8.22 17.625h61.983M77.89.375v17.25M70.203.375c9.625 0 9.625 17.25 0 17.25" fill="none" stroke="#000"/></svg>