<svg xmlns="http://www.w3.org/2000/svg" width="102.329" height="18"><path d="M14.574 2.69l-1.128 3.835h-3.065L9.253 2.69zm-5.91-.44l1.387 4.715h3.724l1.387-4.715zm3.162 6.48q1.098 0 2.004 1.201 1.202 1.882 1.237 3.816-.523 1.41-1.83 1.533-1.62-.14-1.62-1.882l.784-2.474q-.11-.915-.865-.915-.078 0-.163.01-.313 0-.836.574h-1.83q.593-1.777 3.12-1.864zm.02-.524h-.02q-1.672.07-2.578.706-.906.636-1.028 1.681v.453h2.596l.644-.575q.418 0 .418.645-.644 1.585-.783 2.404.191 2.23 2.108 2.23.418 0 1.21-.305.793-.305 1.194-1.646 0-.854-.28-1.864-1.265-3.729-3.48-3.729zm9.291-5.956q-1.646.038-2.725 1.192-1.192 1.306-1.305 2.611 0 .303.34.303h15.82q.34 0 .34-.36 0-.359-.34-.359h-15.31q.946-2.422 2.838-2.687h12.47q.34 0 .34-.36 0-.34-.34-.34zm11.303 9.218q.337 0 .337.346v2.657h-1.022l.33-2.799q.016-.204.354-.204zm-12.586.786l.943 1.95H20.2l-.346-.881-.346.88h-.157q0 .503.519.503h.896q.393.048.031.142-.27.07-.55.07-.16 0-.322-.023-.448-.063-1.14-.346l1.07-2.295zm0-1.384l-1.509 3.412q-.142-.079-.377-.267l-.535.66q.802.597 1.965.927.52.148 1.19.148.83 0 1.892-.226l10.8.126v-3.836q0-.77-.817-.77-.818 0-.865.44-.33 2.987-.707 2.987l-8.616.188q-.55-.236-.927-.377l-1.494-3.412zm18.232-8.62c-.074 0-.147.007-.22.013-1.062.114-1.817 1.189-1.65 2.23.074.775.554 1.209 1.082 1.636 1.569.962 1.128.608 2.71 1.409l.254-.474c-1.882-.881-2.11-1.022-2.697-1.409-.48-.387-.861-.814-.828-1.462-.013-.447.254-.908.554-1.128.24-.18.548-.288.848-.288.227 0 .44.054.628.187.474.234.734 1.009.387 1.496a.92.92 0 0 1-.734.394.68.68 0 0 1-.401-.127c-.24-.133-.42-.6-.174-.861-.113-.12-.273-.267-.393-.267-.08 0-.14.06-.18.2-.268.64.16 1.369.8 1.542.114.034.227.054.34.054.735 0 1.416-.615 1.416-1.376.067-.888-.64-1.702-1.529-1.756a2.158 2.158 0 0 0-.213-.013zm-1.378 7.427q.354 0 .933.193.993.331 2.056 1.383 1.064 1.052.851 1.95-.212.898-.827 1.348-.508.37-1.225.37-.151 0-.311-.016-.922-.094-1.584-1.454-.662-1.359-.615-2.422.048-1.064.331-1.253.138-.099.391-.099zm-.097-.82q-.487 0-.79.21-.638.449-.71 1.843-.07 1.395.804 3.026.875 1.631 2.128 1.785.24.029.466.029.958 0 1.685-.526.898-.65 1.123-1.843.224-1.194-.958-2.53-1.182-1.335-2.553-1.772-.694-.222-1.195-.222zM49.99 2.782c-.455 1.543-.91 3.087-1.363 4.631h-3.703l-1.362-4.631zm-7.14-.532l1.675 5.695h4.498L50.7 2.25zm5.046 7.921v.422h-2.228v-.422zm-1.12.831q1.397 0 1.931.712.535.713.535 1.28-.014.883-.739 1.543-.725.66-1.728.66-1.015 0-1.74-.66-.726-.66-.726-1.53 0-.58.435-1.293.436-.712 2.031-.712zm-1.741-1.266v.99q-.475.276-.87.896-.396.62-.41 1.372 0 .883.732 1.787.732.903 2.288.969 1.543-.066 2.282-.97.738-.903.738-1.773-.013-.765-.408-1.391-.396-.627-.884-.904v-.976zM66.803 2.91q.708 0 .708.583 0 .519-.724.519L53.97 3.996q-.692 0-.692-.535 0-.55.708-.55zm-13.066-.66q-1.12 0-1.12 1.211t1.148 1.211h13.368q1.054 0 1.054-1.148 0-1.274-1.028-1.274H53.737zm6.697 2.91q-.236 0-.394.15-.157.148-.157.353 0 .204.157.346.158.141.394.141.236 0 .4-.141.166-.142.166-.346 0-.205-.165-.354-.165-.15-.401-.15zm-1.793.015q-.236 0-.393.142-.158.141-.158.346 0 .204.158.354.157.15.393.15.236 0 .393-.15.157-.15.157-.354 0-.205-.157-.346-.157-.142-.393-.142zm3.601 0q-.236 0-.393.142-.157.141-.157.346 0 .204.157.354t.393.15q.236 0 .401-.15.165-.15.165-.354 0-.205-.165-.346-.165-.142-.4-.142zm-5.972.458q.21 0 .248.093.031.157-.472.424-2.65 1.039-2.765 1.039h-.003q-.023.008-.039.008-.04 0-.04-.056l-.314-.739q-.063-.079.031-.11.063-.031 2.973-.613.233-.046.38-.046zm8.353.008q.149 0 .387.053 2.925.582 2.973.614.094.031.031.11l-.299.739q-.011.056-.054.056-.018 0-.04-.009h-.003q-.1 0-2.765-1.038-.488-.267-.472-.424.037-.1.242-.1zm-8.122-.48q-.136 0-.298.03-1.195.205-3.884.74-.19.078-.08.33l.504 1.352q.084.224.267.224.023 0 .048-.004 2.5-.975 3.585-1.447.708-.283.52-.817-.161-.408-.662-.408zm7.921.006q-.521 0-.686.417-.188.535.52.818 1.084.472 3.585 1.431.035.008.066.008.17 0 .249-.212l.503-1.353q.11-.267-.079-.33-2.673-.535-3.884-.755-.148-.024-.274-.024zm-9.132 6.42v.315h-1.664v-.315zm-.837.62q1.043 0 1.442.532.398.531.398.954-.01.66-.55 1.152-.542.492-1.29.492-.758 0-1.299-.492-.541-.492-.541-1.142 0-.433.324-.964.325-.532 1.516-.532zm-1.299-.945v.739q-.354.206-.65.669-.295.462-.305 1.023 0 .66.547 1.334.546.674 1.707.723 1.151-.05 1.703-.723.55-.674.55-1.324-.01-.57-.304-1.038-.296-.468-.66-.674v-.729zm7.136.584l-.01.006 2.028 3.887h.765l-2.029-3.893zm-1.7.006l-.764.005 2.028 3.893.765-.006-2.028-3.892zm8.692-.265v.315H65.62v-.315zm-.836.62q1.043 0 1.441.532.4.531.4.954-.01.66-.552 1.152-.541.492-1.29.492-.757 0-1.298-.492-.542-.492-.542-1.142 0-.433.325-.964.325-.532 1.516-.532zm-1.3-.945v.739q-.354.206-.649.669-.295.462-.305 1.023 0 .66.546 1.334t1.708.723q1.151-.05 1.702-.723.551-.674.551-1.324-.01-.57-.305-1.038-.295-.468-.659-.674v-.729zm6.362-9.012c-.697 0-1.309.513-1.309 1.171V15.75h.852V3.421c0-.322.284-.427.463-.427.187 0 .475.131.475.527v8.103h.852V3.521c0-.66-.653-1.271-1.333-1.271zm7.229.435v.422h-2.23v-.422zm-1.121.831q1.397 0 1.932.712.534.712.534 1.28-.013.883-.739 1.542-.725.66-1.727.66-1.016 0-1.741-.66-.726-.659-.726-1.53 0-.58.436-1.292.435-.712 2.03-.712zM75.875 2.25v.99q-.475.276-.87.896-.396.62-.41 1.371 0 .884.732 1.787.732.904 2.289.97 1.543-.066 2.281-.97.739-.903.739-1.773-.014-.765-.41-1.392-.395-.626-.883-.903V2.25zm1.741 10.629c.805 0 1.813.414 2.301.902.427.426.483.992.499 1.518h-5.577c.016-.526.072-1.092.499-1.518.487-.488 1.472-.902 2.278-.902zm0-.451c-.956 0-1.984.441-2.587 1.044-.618.618-.688 1.432-.688 2.04v.238h6.55v-.237c0-.61-.047-1.423-.665-2.04-.603-.604-1.655-1.045-2.61-1.045zm10.618-9.796c.75 0 1.417.346 1.852.888h-3.703a2.368 2.368 0 0 1 1.851-.888zm2.102 1.27c.143.272.235.575.263.897H85.87a2.36 2.36 0 0 1 .262-.897zm.265 1.28a2.36 2.36 0 0 1-.249.896h-4.236a2.361 2.361 0 0 1-.248-.897zM90.11 6.46a2.368 2.368 0 0 1-1.876.918 2.37 2.37 0 0 1-1.875-.918zm-1.876-4.21a2.76 2.76 0 0 0-2.755 2.756 2.759 2.759 0 0 0 2.755 2.755 2.76 2.76 0 0 0 2.756-2.755 2.76 2.76 0 0 0-2.756-2.756zm-3.726 9.056l-.752 3.395-.715-.332 1.467-3.063zm9.13-2.286c-.014 0-.029 0-.044.002-.106.01-.23.052-.37.115-.774.98-1.35 2.194-1.723 3.637-.428.072-1.441.515-3.024 1.327a.705.705 0 0 1-.247.039 2.25 2.25 0 0 1-.659-.128 1.002 1.002 0 0 0-.308-.042c-.084 0-.173.006-.266.016l-.332.102-2.144-3.496-2.13 4.275.293.102.14-.294.128.051-.14.358.203.076.14-.332.154.077-.128.344.23.09.115-.345.178.09-.076.344.242.115.855-3.93 1.595 2.577-.37.102-.382.115a.438.438 0 0 0 .076.243c.047.059.132.094.243.102.11.008.162.034.178.09.07.239.157.45.255.612.079.127.17.19.275.19a.295.295 0 0 0 .083-.012c.149-.046.3-.086.446-.14l.15.225c.017.023.044.033.075.033.109 0 .272-.119.22-.2l-.138-.211c.301-.13.59-.292.88-.447.988-.144 1.857-.366 2.59-.663.735-.297 1.24-.615 1.52-.957.078-.045.421-.632 1.02-1.749.6-1.116.776-1.881.536-2.31a.36.36 0 0 0-.115-.127.407.407 0 0 0-.224-.066z"/><path d="M8.22.375c-9.625 0-9.625 17.25 0 17.25m0-17.25h85.859M8.22 17.625h85.859m7.687-17.25v17.25M94.079.375c9.625 0 9.625 17.25 0 17.25" fill="none" stroke="#000"/></svg>