<svg xmlns="http://www.w3.org/2000/svg" width="91.771" height="18"><path d="M15.358 2.782l-1.363 4.631h-3.702L8.93 2.782zM8.22 2.25l1.675 5.695h4.498l1.675-5.695zm5.045 7.921v.422h-2.229v-.422zm-1.121.831q1.398 0 1.932.712.534.713.534 1.28-.013.883-.738 1.543-.726.66-1.728.66-1.015 0-1.74-.66-.726-.66-.726-1.53 0-.58.435-1.293.435-.712 2.031-.712zm-1.74-1.266v.99q-.476.276-.871.896-.396.62-.41 1.372 0 .883.733 1.787.732.903 2.288.969 1.543-.066 2.282-.97.738-.903.738-1.773-.013-.765-.409-1.391-.395-.627-.883-.904v-.976zm20.662-6.9q.257 0 .385.137.128.138.128.394 0 .257-.119.421-.12.165-.394.165h-12.4q-.237 0-.375-.165-.137-.164-.137-.42 0-.257.137-.395.138-.137.376-.137zM18.154 2.25q-.586.385-.586 1.117 0 .77.586 1.172h13.498q.531-.403.531-1.172 0-.732-.53-1.117zm8.132 2.839l-.311.623.622.164q.476-.696-.311-.787zm-2.857.018l-.312.623.623.165q.495-.696-.311-.788zm1.428 0l-.311.623.623.165q.476-.696-.312-.788zM19.36 13.63l-1.792 2.12h.874l.919-1.095.927 1.095.9-1.095.928 1.095.918-1.095.928 1.095.918-1.095.927 1.095.901-1.095.927 1.095.928-1.095.9 1.095.928-1.095.918 1.095h.874l-1.792-2.12-.928 1.025-.9-1.024-.928 1.024-.927-1.024-.9 1.024-.928-1.024-.918 1.024-.928-1.024-.918 1.024-.927-1.024-.901 1.024-.927-1.024zM35.24 3.093q1.51.22 1.58 1.382v8.382q-.707-.843-2.537-1.184l.957-8.58zm-.425-.843l-1.132 10.022q2.521.289 3.136 1.8v1.678h.752V4.475q0-1.883-2.756-2.225zm13.835.59l.18.075-5.404 12.034c-.091-.06-.605-.312-.773-.507 0-.13.093-.219.36-.576.281-.375.581-.766.24-1.269-.157-.232-.373-.401-.654-.401-.174 0-.373.065-.6.221-.47-.28-.925-.42-1.665-.42-.13-1.141-.276-1.861-.436-2.762h5.36L48.65 2.84zm-.011-.59c-.03 0-.062.001-.094.004L45.107 8.38c-.12.2-.245.3-.375.3a.349.349 0 0 1-.045.003c-.505 0-1.936-.922-4.293-2.765-.54-.56-.821-1.12-.841-1.681-.02-.56.147-.88.503-.961a1.34 1.34 0 0 1 .29-.036c.2 0 .343.064.43.194.125.185.118.37-.022.555-.07.093-.134.139-.192.139-.057 0-.108-.046-.153-.139-.09-.185-.186-.278-.286-.278-.19.07-.235.236-.135.496.093.241.264.362.512.362.02 0 .039 0 .059-.002.28-.02.475-.115.585-.285.11-.17.165-.37.165-.6a.88.88 0 0 0-.225-.601c-.15-.17-.368-.278-.653-.323a1.027 1.027 0 0 0-.16-.013c-.232 0-.464.08-.696.238-.285.195-.45.516-.495.961-.045.445.078.936.368 1.471.29.536.813 1.074 1.569 1.614.755.54 1.473 1.056 2.154 1.546.016.064-.02.096-.106.096a.533.533 0 0 1-.074-.006h-3.843c.32 1.832.515 3.128.585 3.888.09-.006.179-.01.268-.01.702 0 1.403.209 2.104.626.15-.2.313-.3.488-.3s.265.095.27.285c-.305.488-.753.961-.908 1.516l1.681 1.081 5.72-13.105c-.182-.263-.42-.395-.717-.395zm3.773.843q1.511.22 1.58 1.382v8.382q-.707-.843-2.537-1.184l.957-8.58zm-.425-.843l-1.131 10.022q2.52.289 3.135 1.8v1.678h.752V4.475q0-1.883-2.756-2.225zm10.25 0c-.105 0-.21.013-.316.039-.212.052-.442.17-.69.354h-4.988v1.103h4.988c.248.184.478.302.69.354a1.324 1.324 0 0 0 .63 0c.207-.052.415-.17.623-.354h.192c.2.184.405.302.617.354a1.33 1.33 0 0 0 .636 0c.212-.052.437-.17.677-.354h5.036V2.643h-5.036c-.24-.184-.465-.302-.677-.354a1.33 1.33 0 0 0-.636 0 1.42 1.42 0 0 0-.617.354h-.192a1.508 1.508 0 0 0-.624-.354 1.287 1.287 0 0 0-.313-.039zm-1.853 7.921v.422h-2.229v-.422zm-1.12.831q1.397 0 1.931.712.534.713.534 1.28-.013.883-.738 1.543-.725.66-1.728.66-1.015 0-1.74-.66-.726-.66-.726-1.53 0-.58.435-1.293.435-.712 2.031-.712zm-1.742-1.266v.99q-.474.276-.87.896t-.409 1.372q0 .883.732 1.787.732.903 2.288.969 1.543-.066 2.282-.97.738-.903.738-1.773-.013-.765-.409-1.391-.395-.627-.883-.904v-.976zm9.536 3.143c.805 0 1.814.414 2.302.902.426.426.482.992.498 1.518h-5.576c.015-.526.071-1.092.498-1.518.488-.488 1.472-.902 2.278-.902zm0-.451c-.956 0-1.984.441-2.587 1.044-.618.618-.688 1.432-.688 2.04v.238h6.55v-.237c0-.61-.047-1.423-.665-2.04-.603-.604-1.655-1.045-2.61-1.045zm10.619-9.796c.749 0 1.416.346 1.851.888h-3.703a2.368 2.368 0 0 1 1.852-.888zm2.102 1.27c.143.272.234.575.262.897h-4.729a2.36 2.36 0 0 1 .263-.897zm.264 1.28a2.36 2.36 0 0 1-.248.896h-4.236a2.361 2.361 0 0 1-.249-.897zm-.49 1.279a2.368 2.368 0 0 1-1.876.918 2.37 2.37 0 0 1-1.876-.918zM77.676 2.25a2.76 2.76 0 0 0-2.756 2.756 2.759 2.759 0 0 0 2.756 2.755 2.76 2.76 0 0 0 2.755-2.755 2.76 2.76 0 0 0-2.755-2.756zm-3.726 9.056l-.752 3.395-.715-.332 1.468-3.063zm9.13-2.286c-.014 0-.029 0-.043.002-.106.01-.23.052-.37.115-.775.98-1.35 2.194-1.723 3.637-.43.072-1.442.515-3.025 1.327a.705.705 0 0 1-.247.039 2.25 2.25 0 0 1-.659-.128 1.002 1.002 0 0 0-.308-.042c-.084 0-.172.006-.266.016l-.332.102-2.144-3.496-2.13 4.275.293.102.14-.294.128.051-.14.358.204.076.14-.332.153.077-.127.344.23.09.114-.345.179.09-.077.344.243.115.855-3.93 1.595 2.577-.37.102-.383.115c.01.106.03.183.076.243.048.059.132.094.243.102.11.008.162.034.179.09.07.239.156.45.255.612.078.127.17.19.274.19a.295.295 0 0 0 .083-.012c.149-.046.301-.086.447-.14l.15.225c.016.023.043.033.074.033.109 0 .272-.119.22-.2l-.138-.211c.301-.13.59-.292.88-.447.988-.144 1.857-.366 2.591-.663.734-.297 1.24-.615 1.519-.957.079-.045.421-.632 1.02-1.749.6-1.116.776-1.881.536-2.31a.36.36 0 0 0-.114-.127.407.407 0 0 0-.225-.066z"/><path d="M8.22.375c-9.625 0-9.625 17.25 0 17.25m0-17.25h75.301M8.22 17.625h75.301M91.208.375v17.25M83.521.375c9.625 0 9.625 17.25 0 17.25" fill="none" stroke="#000"/></svg>