<svg xmlns="http://www.w3.org/2000/svg" width="99.893" height="18"><path d="M10.112 2.25L8.22 4.487h.923l.969-1.156.978 1.156.95-1.156.98 1.156.968-1.156.979 1.156.97-1.156.978 1.156.95-1.156.979 1.156.978-1.156.95 1.156.98-1.156.968 1.156h.923L21.75 2.25l-.978 1.081-.95-1.081-.98 1.081-.978-1.081-.95 1.081-.979-1.081-.97 1.081-.978-1.081-.969 1.081-.978-1.081-.95 1.081-.98-1.081zm-.071 6.594q.403 0 1.061.22 1.13.376 2.339 1.572 1.21 1.196.968 2.218-.242 1.021-.941 1.532-.578.422-1.393.422-.172 0-.354-.019-1.049-.107-1.802-1.653-.752-1.546-.698-2.755.053-1.21.376-1.425.157-.112.444-.112zm-.11-.933q-.554 0-.899.238-.725.511-.806 2.097-.08 1.586.914 3.441.995 1.855 2.42 2.03.272.033.53.033 1.09 0 1.916-.598 1.021-.74 1.276-2.097.256-1.357-1.088-2.876T11.29 8.163q-.79-.252-1.36-.252zm7.801 1.846c.191.406.32.647 1.018.868 2.034.156 2.854.42 3.33.58.342.088.986.504 1.006 1.007-.028.51-.554.903-1.032.999-.43.12-2.437.183-3.288.4-.657.202-.666.61-1.078.914-.961-.655.088-1.577.43-1.77a1.98 1.98 0 0 1 1.006-.254 7.2 7.2 0 0 1 .64.04c1.186-.009 1.154-.62-.052-.674h-.01c-.246 0-.445.01-.616.01-.37 0-.614-.049-.926-.359-.318-.21-.917-.9-.428-1.761zm.353-1.216c-.078 0-.177.017-.3.053-.366.355-.717.948-.906 1.513-.046.276.005.748.228 1.163.289.253.561.605.875.891-.314.283-.492.363-.778.642-.32.44-.426.707-.368 1.286-.007.43.438 1.063.814 1.405.224.18.386.256.497.256.248 0 .25-.37.14-.78.101-.585.395-.82.958-.938.568-.083 4.366.156 4.398-1.803-.01-1.797-3.646-1.957-4.355-2-.733-.17-.776-.229-1-.608-.032-.427.29-1.08-.203-1.08zM31.76 2.7c.805 0 1.813.415 2.301.903.427.426.483.992.499 1.518h-5.577c.016-.526.072-1.092.499-1.518.488-.488 1.472-.902 2.278-.902zm0-.45c-.956 0-1.984.441-2.587 1.044-.618.618-.688 1.432-.688 2.04v.238h6.55v-.237c0-.61-.047-1.423-.665-2.04-.603-.604-1.655-1.045-2.61-1.045zm0 10.575q2.33 0 4.943 1.126-2.613 1.095-4.943 1.095-2.315 0-4.943-1.095 2.628-1.126 4.943-1.126zm0-.72q-2.879 0-6.617 1.83 3.738 1.815 6.617 1.815 2.878 0 6.616-1.815-3.722-1.83-6.616-1.83zm9.673-9.012q1.51.22 1.58 1.382v8.382q-.707-.843-2.537-1.184l.957-8.58zm-.425-.843l-1.132 10.022q2.521.289 3.136 1.8v1.678h.752V4.475q0-1.883-2.756-2.225zm5.812.843q1.511.22 1.58 1.382v8.382q-.706-.843-2.536-1.184l.956-8.58zm-.425-.843l-1.131 10.022q2.52.289 3.136 1.8v1.678h.751V4.475q0-1.883-2.756-2.225zm6.884 2.63c.583 0 .943.323 1.078.97v6.285c-.135.657-.495.985-1.078.985-.584 0-.923-.328-1.017-.985V5.85c.094-.646.433-.97 1.017-.97zm-1.995-2.63c-.1 0-.202.006-.304.018-.22.084-.329.183-.329.297 0 .094.063.183.188.266 1.189 0 1.897.51 2.127 1.533-.865.156-1.272.719-1.22 1.688v5.88c-.052.98.355 1.548 1.22 1.704-.23 1.022-.938 1.533-2.127 1.533-.125.083-.188.172-.188.266 0 .104.11.203.329.297a2.571 2.571 0 0 0 1.29-.18c.422-.172.758-.487 1.009-.946.26.459.599.774 1.016.946a2.43 2.43 0 0 0 1.282.164c.22-.083.329-.177.329-.281 0-.094-.063-.183-.188-.266-1.189 0-1.897-.51-2.127-1.533.866-.156 1.293-.724 1.283-1.704v-5.88c.01-.97-.417-1.532-1.283-1.688.23-1.022.938-1.533 2.127-1.533.125-.083.188-.172.188-.266 0-.114-.11-.213-.329-.297a2.545 2.545 0 0 0-1.282.18c-.417.172-.756.482-1.016.93-.25-.448-.587-.758-1.01-.93a2.592 2.592 0 0 0-.985-.198zm12.052 5.816a1.31 1.31 0 0 0-.313.038c-.21.052-.437.168-.682.35h-4.935v1.092h4.935c.245.182.473.298.682.35a1.31 1.31 0 0 0 .623 0c.206-.052.411-.168.617-.35h.19c.198.182.401.298.61.35a1.316 1.316 0 0 0 .63 0 1.86 1.86 0 0 0 .67-.35h4.983V8.454h-4.983a1.86 1.86 0 0 0-.67-.35 1.316 1.316 0 0 0-.63 0 1.412 1.412 0 0 0-.61.35h-.19a1.492 1.492 0 0 0-.617-.35 1.274 1.274 0 0 0-.31-.038zm13.247-5.152q2.725.331 0 5.047-2.724-4.716 0-5.047zm0-.664q-3.772.262-.523 6.06h-3.214v.821h3.179v6.619h1.082V9.096h3.214V8.31h-3.214q3.249-5.815-.524-6.06zm6.439.418c-.114 0-.395.136-.132.137.043 0 .139.013.209.013.084 0 .133-.018.017-.099-.028-.019-.054-.05-.09-.05h-.004zm.045-.09h.01c.203.047.363.218.574.277.178.05.47.115.41.376-.082.347-.316.683-.243 1.046.046.228.3.248.505.248l.097-.001c1.338-.01 2.4-.067 3.253-.067 1.398 0 2.232.152 2.79.906.924 1.25.607 2.501.377 4.08.065-.931.374-2.4-.584-3.667-.405-.535-1.09-.76-1.722-.92-.29-.072-.677-.098-1.104-.098-.986 0-2.184.136-2.882.136a2.29 2.29 0 0 1-.402-.027c-.269-.051-.46-.382-.437-.656.031-.364.318-.702.21-1.07-.047-.163-.19-.2-.345-.2-.11 0-.228.02-.322.024-.101.005-.2.02-.297.02a.525.525 0 0 1-.373-.13c-.227-.201.394-.278.485-.278zm.03-.328h-.02a1.89 1.89 0 0 0-.848.254c-.267.155-.053.456.128.589.166.122.353.237.562.237.04 0 .082-.005.124-.014.107-.023.295-.068.424-.068.076 0 .131.015.137.06.047.362-.339.8-.183 1.22.127.342.42.654.81.682.171.012.342.017.513.017.9 0 1.795-.145 2.696-.16l.085-.001c1.725 0 2.592.9 2.79 1.46.191.542.33 1.11.281 1.686-.058.695-.16 1.395-.103 2.09.05.612.263 1.206.408 1.8.034.14.132.209.224.209.101 0 .194-.083.187-.249-.03-.765-.206-1.42-.186-2.126.018-.607.173-1.191.209-1.8.041-.706.238-3.083-1.688-3.775-.554-.2-1.257-.253-2.002-.253-.881 0-1.822.075-2.646.075-.308 0-.6-.01-.865-.04.106-.377.309-.707.261-1.1-.037-.312-.377-.428-.636-.5-.242-.065-.406-.293-.662-.293zm2.641 8.512c.593 0 1.336.305 1.695.665.315.314.356.731.367 1.118h-4.107c.011-.387.052-.804.367-1.118.359-.36 1.084-.665 1.678-.665zm0-.332c-.704 0-1.462.326-1.906.77-.455.455-.507 1.054-.507 1.503v.175h4.825v-.175c0-.449-.034-1.048-.49-1.504-.443-.443-1.218-.769-1.922-.769zm5.301 4.022c.09 0 .134.325.134.414 0 .09-.045.414-.134.414h-8.592c-.104 0-.156-.324-.156-.414 0-.09.052-.414.156-.414zm-8.86-.47c-.239 0-.358.482-.358.884 0 .403.12.884.358.884h9.128c.224 0 .336-.481.336-.884 0-.402-.112-.884-.336-.884z"/><path d="M8.22.375c-9.625 0-9.625 17.25 0 17.25m0-17.25h83.423M8.22 17.625h83.423M99.33.375v17.25M91.643.375c9.625 0 9.625 17.25 0 17.25" fill="none" stroke="#000"/></svg>