<svg xmlns="http://www.w3.org/2000/svg" width="97.391" height="18"><path d="M9.93 2.25L8.22 4.272h.834l.876-1.045.884 1.045.86-1.045.884 1.045.876-1.045.884 1.045.876-1.045.885 1.045.86-1.045.884 1.045.884-1.045.86 1.045.884-1.045.876 1.045h.834L20.45 2.25l-.885.977-.859-.977-.884.977-.885-.977-.86.977-.884-.977-.876.977-.884-.977-.876.977-.884-.977-.86.977-.884-.977zm5.26 5.616c.806 0 1.814.414 2.302.902.427.427.483.993.498 1.519h-5.576c.016-.526.071-1.092.498-1.519.488-.488 1.473-.902 2.278-.902zm0-.45c-.955 0-1.984.44-2.586 1.044-.618.618-.688 1.431-.688 2.04v.237h6.549V10.5c0-.609-.047-1.422-.665-2.04-.602-.603-1.654-1.045-2.61-1.045zm-1.04 6.465a1.31 1.31 0 0 0-.312.039c-.21.051-.437.168-.682.35H8.22v1.091h4.936c.245.182.472.299.682.35a1.31 1.31 0 0 0 .623 0c.205-.051.41-.168.617-.35h.19c.197.182.4.299.61.35a1.316 1.316 0 0 0 .63 0c.209-.051.432-.168.67-.35h4.983V14.27h-4.983c-.238-.182-.461-.299-.67-.35a1.316 1.316 0 0 0-.63 0 1.39 1.39 0 0 0-.61.35h-.19a1.492 1.492 0 0 0-.617-.35 1.274 1.274 0 0 0-.31-.039zM25.217 3.093q1.511.22 1.58 1.382v8.382q-.707-.843-2.537-1.184l.957-8.58zm-.425-.843L23.66 12.272q2.52.289 3.135 1.8v1.678h.752V4.475q0-1.883-2.756-2.225zm5.813.843q1.51.22 1.579 1.382v8.382q-.706-.843-2.536-1.184l.957-8.58zm-.426-.843l-1.131 10.022q2.52.289 3.136 1.8v1.678h.752V4.475q0-1.883-2.757-2.225zm10.835.45c.805 0 1.813.415 2.301.903.427.426.483.992.499 1.518h-5.577c.016-.526.072-1.092.499-1.518.488-.488 1.472-.902 2.278-.902zm0-.45c-.956 0-1.984.441-2.587 1.044-.618.618-.688 1.432-.688 2.04v.238h6.55v-.237c0-.61-.047-1.423-.665-2.04-.603-.604-1.655-1.045-2.61-1.045zm-4.429 7.486c-.083 0-.167.008-.25.015-1.208.13-2.066 1.352-1.876 2.537.084.88.63 1.374 1.23 1.86 1.784 1.093 1.283.69 3.083 1.602l.288-.54c-2.14-1.001-2.399-1.16-3.067-1.601-.547-.44-.98-.927-.942-1.663-.015-.509.289-1.033.63-1.283a1.64 1.64 0 0 1 .965-.327c.258 0 .501.06.714.213.539.265.835 1.146.44 1.7a1.047 1.047 0 0 1-.835.449.773.773 0 0 1-.456-.145c-.273-.152-.478-.683-.197-.98-.13-.136-.312-.303-.448-.303-.091 0-.16.068-.205.228-.304.729.182 1.556.91 1.754.13.038.26.06.388.06.835 0 1.61-.698 1.61-1.564.076-1.01-.729-1.936-1.739-1.997a2.454 2.454 0 0 0-.243-.015zm7.278.782l-.015.008 2.719 5.209h1.025l-2.719-5.217zm-2.277.008l-1.026.008 2.719 5.216 1.025-.008-2.718-5.216zM62.475 4.03v1.756H49.543V4.03zM49.59 2.25v1.329h-.498v2.657h13.833V3.58h-.403V2.25h-.45v1.329h-1.116V2.25h-.45v1.329H59.39V2.25h-.451v1.329h-1.091V2.25h-.475v1.329h-1.092V2.25h-.45v1.329h-1.116V2.25h-.45v1.329h-1.116V2.25h-.45v1.329h-1.092V2.25h-.45v1.329H50.04V2.25zm1.199 11.494l-1.697 2.006h.827l.87-1.036.877 1.036.853-1.036.877 1.036.87-1.036.877 1.036.87-1.036.877 1.036.853-1.036.878 1.036.877-1.036.853 1.036.878-1.036.869 1.036h.827l-1.696-2.006-.878.97-.853-.97-.877.97-.878-.97-.853.97-.877-.97-.87.97-.877-.97-.87.97-.877-.97-.853.97-.877-.97zM65.982 3.093q1.51.22 1.58 1.382v8.382q-.707-.843-2.537-1.184l.957-8.58zm-.425-.843l-1.132 10.022q2.521.289 3.136 1.8v1.678h.752V4.475q0-1.883-2.756-2.225zm5.813.843q1.51.22 1.579 1.382v8.382q-.706-.843-2.536-1.184l.956-8.58zm-.426-.843l-1.131 10.022q2.52.289 3.136 1.8v1.678h.751V4.475q0-1.883-2.756-2.225zm5.966 0L75.2 4.272h.834l.876-1.045.885 1.045.859-1.045.884 1.045.876-1.045.885 1.045.876-1.045.884 1.045.86-1.045.884 1.045.884-1.045.86 1.045.884-1.045.876 1.045h.834l-1.71-2.022-.884.977-.86-.977-.884.977-.884-.977-.86.977-.884-.977-.876.977-.885-.977-.876.977-.884-.977-.86.977-.884-.977zm4.221 11.631a1.31 1.31 0 0 0-.313.039c-.21.051-.437.168-.682.35H75.2v1.091h4.936c.245.182.473.299.682.35a1.31 1.31 0 0 0 .623 0c.206-.051.411-.168.617-.35h.19c.198.182.401.299.61.35a1.316 1.316 0 0 0 .63 0c.21-.051.433-.168.67-.35h4.983V14.27h-4.983c-.237-.182-.46-.299-.67-.35a1.316 1.316 0 0 0-.63 0 1.402 1.402 0 0 0-.61.35h-.19a1.492 1.492 0 0 0-.617-.35 1.274 1.274 0 0 0-.31-.039z"/><path d="M8.22.375c-9.625 0-9.625 17.25 0 17.25m0-17.25h80.921M8.22 17.625h80.921M96.828.375v17.25M89.141.375c9.625 0 9.625 17.25 0 17.25" fill="none" stroke="#000"/></svg>