<svg xmlns="http://www.w3.org/2000/svg" width="90.637" height="18"><path d="M16.514 2.933v4.845h-3.25V2.933zm-3.918-.683v6.196h4.601V2.25zM8.22 12.458v3.292h13.353v-3.292H8.22m12.804.548V15.2H8.77v-2.195h12.255zm3.606-9.913q1.51.22 1.579 1.382v8.382q-.706-.843-2.536-1.184l.957-8.58zm-.425-.843l-1.132 10.022q2.521.289 3.136 1.8v1.678h.752V4.475q0-1.883-2.756-2.225zm5.812.843q1.511.22 1.58 1.382v8.382q-.707-.843-2.536-1.184l.956-8.58zm-.425-.843l-1.131 10.022q2.52.289 3.136 1.8v1.678h.751V4.475q0-1.883-2.756-2.225zm8.89.315q.21 0 .29.21-.103-.041-.176-.041-.156 0-.178.186-.032.33-.178.33h-.007q-.154-.008-.218-.137 0-.096.242-.322.112-.226.225-.226zm.231.288q.06 0 .06.083-.03.325-.25.325-.02 0-.04-.003v-.032l.064-.145q.015-.227.129-.227l.016.001.021-.002zm-1.435.183q-.146 0-.27.085-.153.105-.089.363h.065q.016-.161.097-.266.08-.105.265-.105.186 0 .186-.048l-.186-.024q-.034-.005-.068-.005zm-.004.142q-.193 0-.193.274v.096q.016.003.03.003.053 0 .066-.051.274-.065.403-.226-.113-.096-.306-.096zm-.29.419q-.08.112-.016.281.064.17.805.234l.113-.048q-.934-.065-.838-.435l-.064-.032zm1.047-.774q-.21.145-.161.37.032.097.193.162.145.064.113.338.032.596-.5.919-.08-.194-.314-.21l-.043-.001q-.2 0-.287.138-.068.108-.16.108-.038 0-.081-.02-.027.007-.05.007-.146 0-.16-.264.161-.016.226-.065.064-.048.241-.112-.078-.09-.16-.09-.037 0-.073.017-.121.057-.25.089-.274-.049-.21-.274-.16-.177-.112-.306.354-.226.588-.427.233-.202.523-.242.29-.04.677-.137zm.95-.145q.42.032.887.475.467.444.548.91-.87 1.274-2.465 2.03-.065-.676.225-1.353.532-.483.467-.813-.064-.33.21-.443.612-.113.129-.806zM44.894 5.4l.05.002q.725.129 1.321.653.596.523.854 1.296.048.081-.355.081-1.691-.709-2.142-1.434-.2-.598.272-.598zm-4.3-.804q1.004.963 2.56.963.266 0 .55-.028.028-.01.054-.01.235 0 .235.783-1.595.71-2.513.774-.272.019-.552.019-.665 0-1.373-.108-.153-.023-.284-.023-.73 0-.772.724-.676-.806-.483-1.096 1.595-.709 2.578-1.998zM38.63 2.25l-.075.001q-.733.024-.782.298-.29.113-.54.186-.25.072-.467.265-.217.194-.483.347-.266.153-.314.266-.08.177.145.386 0 .178.161.29.032 0 .072.274.04.274.299.403.322-.048.418-.185.083-.117.211-.117.023 0 .047.004.161.024.242.266-.065.241-.185.854-.121.612 0 .902.12.29-.427.652-.418.277-1.145.277-.226 0-.483-.027-.559-.155-.899-.155-.365 0-.478.18-.218.346.04.603h.629q1.446.052 2.449.052 2.417 0 2.263-.301-.175-.343.285-.343.112 0 .263.02.237.033.52.033.632 0 1.494-.161 1.248-.234 1.627-.435.243-.13.525-.13.158 0 .329.041.475.113.572.403-.21.387-.731.387-.239 0-.542-.081-.507-.135-.832-.135-.295 0-.44.11-.307.234-.033.557h5.236q.532-.484.226-1.12-.306-.637-1.031-1.208-.725-.572-1.595-1.04.227-.199.439-.199.268 0 .511.32.255.336.433.336.125 0 .212-.167-.575-1.027-1.198-1.027-.042 0-.083.004-.669.073-1.217.75-.663.167-1.236.167-1.249 0-2.066-.796-.452-1.144-1.08-1.587-.596-.42-1.286-.42zm-.975 8.144V15.1h-3.158v-4.707zm-3.807-.664v6.02h4.471V9.73zm13.427.664V15.1h-3.158v-4.707zm-3.807-.664v6.02h4.47V9.73zm10.689-1.211c1.02 1.145 1.864 2.453 2.616 3.781.159.195-.02.374-.15.559-.496-1.575-1.637-2.79-2.466-4.34zm-.987-5.783c.085.396-.072.854-.372.989l.096.205c.375-.178.737-.713.79-1.193.514.03.654.417.734.865.096.307-.001 1.05.387 1.179 1.147.444 2.024.957 2.81 1.734 1.358 1.698 2.777 3.342 4.135 5.042.528.662 1.01 1.268 1.402 1.725-2.062-1.542-4.366-2.72-6.627-3.946-1.201-.652-2.347-1.186-2.347-2.623 0-.773 1.424-1.42 1.365-1.521-.005-.01-.021-.013-.047-.013-.293 0-1.79.555-1.79 1.725 0 .324.088.625.238.905h-.006c-1.642-.87-1.381-2.63-1.318-4.18-.682-.038-1.243-.41-1.891-.565.502-.065 1.003-.15 1.507-.201a.4.4 0 0 0-.239.15c-.008.166.179.239.361.239.178 0 .352-.07.335-.19a.457.457 0 0 0-.39-.206c.25-.036.584-.09.867-.12zm2.867 9.977c.147.357.223.736.306 1.11.24-.193.471-.392.667-.628-.127.694-.366 1.395-.944 1.395-.35 0-.513-.237-.288-.954.106-.338.19-.66.259-.923zm-.629-3.438c2.341 1.247 4.659 2.506 6.872 3.969.521.422.986.893 1.3 1.334-.208.324-.605.435-.972.46-1.874-.066-2.607-1.872-3.597-3.162l-.538-.654.092.838c.007.15.161.864-.069.864a.17.17 0 0 1-.068-.016l-.946-1.134c-.102.067-.197.143-.302.205-.47-.95-1.157-1.836-1.772-2.704zm-2.02-7.025c-.491 0-.995.088-1.473.133-.57.278-1.147.066-1.745.283-.432.194-.553.587-.731.98.254-.085.486-.12.704-.12.696 0 1.257.351 1.993.538-.002.37-.06.788-.087 1.21-.114 1.145.489 2.15 1.36 2.865.625 1.39 1.49 2.457 2.12 3.542-.075.488-.529 2.327-.752 2.988a8.341 8.341 0 0 1-1.366.115 7.003 7.003 0 0 1-.592-.024c-.355 0-.745.606-1.127.93l7.771.06c-.198-.7-1.579-1.072-2.07-1.072a.685.685 0 0 0-.075.003c.173-.495.39-.96.45-1.653.218.195.461.404.765.426.37-.028.521-.281.568-.612.841 1.39 1.782 2.526 3.507 2.693.596-.029 1.339-.29 1.5-.923.79-.044.21-.815-.083-1.116-2.152-2.33-3.928-4.988-6.054-7.334-.818-.808-1.743-1.354-2.888-1.807-.085-.21-.113-.507-.168-.835-.06-.357-.251-.942-.6-1.124a2.667 2.667 0 0 0-.927-.146zm14.428 5.349c2.595 3.01.934 4.671 0 4.671s-2.18-1.557 0-4.671zm1.038-2.388l-1.038 1.557-.934-1.453-.727.311 1.142 1.661c-2.595 3.53-.675 5.502.519 5.502 1.505 0 3.426-2.076.52-5.502l1.245-1.765-.727-.311zM72.7 2.25l-1.355 1.601h.66l.695-.827.7.827.68-.827.701.827.694-.827.7.827.695-.827.7.827.68-.827.701.827.7-.827.681.827.7-.827.695.827h.66L81.033 2.25l-.7.774-.681-.774-.7.774-.701-.774-.68.774-.701-.774-.694.774-.7-.774-.695.774-.7-.774-.68.774-.701-.774zm1.064 2.7l-.011.005 1.99 3.814h.75l-1.99-3.82zm-1.668.005l-.75.006 1.99 3.82.75-.006-1.99-3.82zm7.894 1.723c.59 0 1.328.303 1.685.66.312.313.353.727.365 1.112h-4.083c.011-.385.052-.8.365-1.112.357-.357 1.078-.66 1.668-.66zm0-.33c-.7 0-1.453.323-1.894.764-.453.453-.504 1.049-.504 1.495v.173h4.795v-.173c0-.446-.034-1.042-.486-1.495-.441-.44-1.212-.764-1.911-.764zm-6.374 5.525l-.657 2.962-.624-.29 1.28-2.672zM81.58 9.88c-.012 0-.025 0-.038.002-.092.009-.2.044-.323.1-.675.856-1.177 1.914-1.503 3.173-.374.062-1.257.45-2.638 1.157a.615.615 0 0 1-.216.034c-.154 0-.347-.038-.574-.112a.874.874 0 0 0-.27-.036c-.072 0-.15.006-.231.014l-.29.09-1.87-3.051-1.86 3.73.257.088.122-.256.111.045-.122.312.178.066.123-.289.133.067-.111.3.2.078.1-.3.156.078-.066.3.211.1.746-3.428 1.392 2.248-.323.09-.334.1a.38.38 0 0 0 .066.211c.042.052.115.082.212.09.097.006.142.03.156.077.061.21.136.394.223.534.068.112.148.167.239.167a.257.257 0 0 0 .072-.01c.13-.04.263-.076.39-.123l.131.196c.014.02.037.029.065.029.095 0 .237-.104.191-.174l-.12-.185c.263-.113.515-.255.768-.39.862-.125 1.62-.32 2.26-.578.64-.26 1.082-.537 1.325-.835.069-.04.368-.551.89-1.525.523-.974.677-1.642.468-2.015a.314.314 0 0 0-.1-.112.355.355 0 0 0-.196-.057z"/><path d="M8.22.375c-9.625 0-9.625 17.25 0 17.25m0-17.25h74.167M8.22 17.625h74.167M90.075.375v17.25M82.387.375c9.625 0 9.625 17.25 0 17.25" fill="none" stroke="#000"/></svg>