<svg xmlns="http://www.w3.org/2000/svg" width="139.146" height="18"><path d="M21.229 3.01c.23.326.286.73.306 1.118-.01.184.005.383-.071.555-.216-.214-.197-.709-.201-.986 0-.273-.01-.497-.034-.688zM8.946 2.7l11.21.012c-1.638 1.553-3.28 2.311-5.755 2.311-2.485 0-3.989-.74-5.455-2.323zm-.503-.451a.225.225 0 0 0-.17.372c1.627 1.9 3.356 2.853 6.128 2.853 2.698 0 4.542-.915 6.32-2.682.06.17.091.436.091.904.011.52.007 1.383.69 1.443.48-.099.48-.612.483-1.012 0-.49-.12-.936-.32-1.275-.201-.338-.498-.59-.858-.59L8.443 2.25zm6.497 7.487c-.084 0-.167.008-.25.015-1.208.13-2.066 1.352-1.876 2.537.083.88.63 1.374 1.23 1.86 1.784 1.093 1.283.69 3.082 1.602l.289-.54c-2.141-1.001-2.4-1.16-3.068-1.601-.546-.44-.98-.927-.941-1.663-.015-.509.288-1.033.63-1.283a1.64 1.64 0 0 1 .964-.327c.259 0 .502.06.714.213.54.265.835 1.146.44 1.7a1.047 1.047 0 0 1-.835.449.773.773 0 0 1-.455-.145c-.274-.152-.479-.683-.198-.98-.129-.136-.311-.303-.448-.303-.09 0-.16.068-.205.228-.303.729.183 1.556.911 1.754.13.038.259.06.388.06.835 0 1.61-.698 1.61-1.564.075-1.01-.73-1.936-1.74-1.997a2.454 2.454 0 0 0-.242-.015zM29.416 2.25a1.31 1.31 0 0 0-.313.039c-.21.051-.437.168-.682.35h-4.936V3.73h4.936c.245.182.472.299.682.35a1.31 1.31 0 0 0 .623 0c.205-.051.411-.168.617-.35h.19c.197.182.4.299.61.35a1.316 1.316 0 0 0 .63 0c.209-.051.432-.168.67-.35h4.983V2.64h-4.983c-.238-.182-.461-.299-.67-.35a1.316 1.316 0 0 0-.63 0 1.39 1.39 0 0 0-.61.35h-.19a1.492 1.492 0 0 0-.617-.35 1.274 1.274 0 0 0-.31-.039zm1.039 5.588q2.456 0 5.207 1.187-2.751 1.153-5.207 1.153-2.438 0-5.207-1.153 2.769-1.187 5.207-1.187zm0-.758q-3.032 0-6.97 1.928 3.938 1.912 6.97 1.912 3.032 0 6.97-1.912-3.921-1.928-6.97-1.928zm-1.039 6.801a1.31 1.31 0 0 0-.313.039c-.21.051-.437.168-.682.35h-4.936v1.091h4.936c.245.182.472.299.682.35a1.31 1.31 0 0 0 .623 0c.205-.051.411-.168.617-.35h.19c.197.182.4.299.61.35a1.316 1.316 0 0 0 .63 0c.209-.051.432-.168.67-.35h4.983V14.27h-4.983c-.238-.182-.461-.299-.67-.35a1.316 1.316 0 0 0-.63 0 1.39 1.39 0 0 0-.61.35h-.19a1.492 1.492 0 0 0-.617-.35 1.274 1.274 0 0 0-.31-.039zM40.482 3.093q1.511.22 1.58 1.382v8.382q-.707-.843-2.537-1.184l.957-8.58zm-.425-.843l-1.131 10.022q2.52.289 3.135 1.8v1.678h.752V4.475q0-1.883-2.756-2.225zm5.813.843q1.51.22 1.579 1.382v8.382q-.706-.843-2.536-1.184l.957-8.58zm-.426-.843l-1.13 10.022q2.52.289 3.135 1.8v1.678h.752V4.475q0-1.883-2.757-2.225zM50.2 8.982q0-.93.325-1.868.653-1.886 2.325-3.4-1.343 1.82-1.788 3.553-.223.866-.223 1.733 0 .867.223 1.733.445 1.733 1.788 3.552-1.66-1.587-2.32-3.436-.33-.929-.33-1.867zM49.7 9q.05 2.136 1.136 3.717 1.086 1.58 1.867 1.983.61.366.77.043.047-.098.047-.196 0-.227-.255-.457-.66-.623-1.483-2.856Q51.37 10.117 51.37 9t.412-2.234q.824-2.233 1.495-2.856.253-.244.253-.468 0-.1-.052-.197-.164-.311-.775.055-.78.403-1.867 1.983Q49.749 6.864 49.7 9z"/><path d="M8.22.375c-9.625 0-9.625 17.25 0 17.25m0-17.25h45.31M8.22 17.625h45.31M61.217.375v17.25M53.53.375c9.625 0 9.625 17.25 0 17.25" fill="none" stroke="#000"/><path d="M65.03 11.566v-.984h-.97v-.406h.97v-.969h.421v.969h.97v.406h-.97v.984h-.421zM77.618 2.25a.376.376 0 0 0-.354.231L76.23 4.277c-.12.245.106.514.347.514.06 0 .12-.017.176-.054l.86-1.393.756 1.287v10.747c-.017.222.186.372.382.372a.325.325 0 0 0 .279-.145l.073-10.973.756-1.288c.254.435.5.876.76 1.307a.337.337 0 0 0 .278.136c.16 0 .321-.096.36-.264a.367.367 0 0 0 .015-.09c-.014-.212-.828-1.552-1.12-2.042a.34.34 0 0 0-.283-.14.376.376 0 0 0-.353.228l-.78 1.328-.836-1.418a.34.34 0 0 0-.282-.139zm6.71.843q1.511.22 1.58 1.382v8.382q-.707-.843-2.537-1.184l.957-8.58zm-.425-.843l-1.131 10.022q2.52.289 3.135 1.8v1.678h.752V4.475q0-1.883-2.756-2.225zm7.957 4.029q0-.62.216-1.244.435-1.256 1.548-2.265-.894 1.212-1.19 2.366-.15.578-.15 1.155 0 .577.15 1.154.296 1.155 1.19 2.366-1.105-1.057-1.544-2.288-.22-.62-.22-1.244zm-.333.012q.032 1.423.756 2.476.723 1.052 1.244 1.32.406.245.512.03.032-.066.032-.131 0-.152-.17-.305-.44-.414-.988-1.902-.274-.744-.274-1.488t.274-1.488q.549-1.488.996-1.903.168-.162.168-.311 0-.067-.034-.132-.11-.207-.516.037-.52.268-1.244 1.321t-.756 2.476zm5.408 5.552c.155.22.193.493.206.755-.006.124.003.258-.048.374-.145-.144-.132-.478-.136-.665 0-.185-.006-.336-.022-.464zm-8.286-.208l7.561.008c-1.104 1.047-2.212 1.56-3.881 1.56-1.677 0-2.691-.5-3.68-1.568zm-.34-.304a.152.152 0 0 0-.115.25c1.099 1.283 2.265 1.925 4.135 1.925 1.82 0 3.063-.617 4.263-1.809.041.114.061.294.061.61.008.35.005.933.466.973.324-.066.324-.413.326-.682 0-.332-.081-.632-.217-.86-.135-.229-.335-.399-.578-.399l-8.34-.008zm3.801 3.174a.872.872 0 0 0-.209.026 1.31 1.31 0 0 0-.454.233h-3.288v.727h3.288c.163.121.314.2.454.233a.872.872 0 0 0 .415 0 .994.994 0 0 0 .41-.233h.127a.936.936 0 0 0 .407.233.876.876 0 0 0 .42 0 1.24 1.24 0 0 0 .446-.233h3.319v-.727h-3.32a1.238 1.238 0 0 0-.446-.233.876.876 0 0 0-.419 0 .936.936 0 0 0-.407.233h-.126a.994.994 0 0 0-.411-.233.848.848 0 0 0-.207-.026zm8.391-11.412q1.511.22 1.58 1.382v8.382q-.706-.843-2.536-1.184l.956-8.58zm-.425-.843l-1.131 10.022q2.52.289 3.136 1.8v1.678h.751V4.475q0-1.883-2.756-2.225zm5.813.843q1.51.22 1.58 1.382v8.382q-.707-.843-2.537-1.184l.957-8.58zm-.425-.843l-1.132 10.022q2.521.289 3.136 1.8v1.678h.752V4.475q0-1.883-2.756-2.225zm5.675 0a.376.376 0 0 0-.355.231l-1.034 1.796c-.12.245.107.514.347.514.06 0 .12-.017.177-.054l.86-1.393.755 1.287v10.747c-.017.222.186.372.383.372a.325.325 0 0 0 .278-.145l.073-10.973.756-1.288c.254.435.5.876.76 1.307a.337.337 0 0 0 .278.136c.16 0 .322-.096.36-.264a.367.367 0 0 0 .015-.09c-.014-.212-.828-1.552-1.12-2.042a.34.34 0 0 0-.283-.14.376.376 0 0 0-.353.228l-.78 1.328-.836-1.418a.34.34 0 0 0-.281-.139zm6.709.843q1.511.22 1.58 1.382v8.382q-.706-.843-2.536-1.184l.956-8.58zm-.425-.843l-1.131 10.022q2.52.289 3.136 1.8v1.678h.751V4.475q0-1.883-2.756-2.225zm5.813.843q1.511.22 1.58 1.382v8.382q-.707-.843-2.537-1.184l.957-8.58zm-.425-.843l-1.132 10.022q2.521.289 3.136 1.8v1.678h.752V4.475q0-1.883-2.756-2.225zm4.755 6.732q0-.93.325-1.868.653-1.886 2.325-3.4-1.343 1.82-1.788 3.553-.223.866-.223 1.733 0 .867.223 1.733.445 1.733 1.788 3.552-1.66-1.587-2.319-3.436-.331-.929-.331-1.867zm-.499.018q.049 2.136 1.135 3.717 1.086 1.58 1.868 1.983.61.366.769.043.048-.098.048-.196 0-.227-.256-.457-.659-.623-1.483-2.856-.412-1.117-.412-2.234t.412-2.234q.824-2.233 1.495-2.856.253-.244.253-.468 0-.1-.051-.197-.165-.311-.775.055-.782.403-1.868 1.983-1.086 1.581-1.135 3.717z"/><path d="M76.2.375c-9.626 0-9.626 17.25 0 17.25m0-17.25h54.696M76.2 17.625h54.696m7.687-17.25v17.25M130.896.375c9.625 0 9.625 17.25 0 17.25" fill="none" stroke="#000"/></svg>