<svg xmlns="http://www.w3.org/2000/svg" width="146.162" height="18"><path d="M13.109 2.763q.166 0 .343.075.399.169.399 2.68v2.404H9.34q1.742-2.39 2.39-3.612.648-1.222.986-1.431.186-.116.392-.116zm-.192-.513h-.072q-.642.014-1.445 1.567T8.22 8.45h6.157l-.013-3.457q-.068-2.31-.473-2.532-.382-.21-.974-.21zM11.14 9.906c-.08 0-.162.008-.243.015-1.173.125-2.007 1.313-1.823 2.464.082.856.613 1.336 1.196 1.808 1.734 1.063 1.247.672 2.995 1.557l.28-.524c-2.08-.974-2.33-1.129-2.98-1.557-.531-.428-.952-.9-.915-1.616-.015-.494.28-1.003.612-1.247.266-.199.605-.317.937-.317.251 0 .487.06.694.207.524.258.812 1.114.428 1.653a1.017 1.017 0 0 1-.812.435.75.75 0 0 1-.442-.14c-.266-.148-.465-.664-.192-.952-.126-.133-.303-.295-.436-.295-.088 0-.154.066-.199.221-.295.708.177 1.513.886 1.704.125.037.25.06.376.06.812 0 1.564-.68 1.564-1.52.074-.982-.708-1.882-1.69-1.941a2.385 2.385 0 0 0-.236-.015zm6.294-6.813q1.51.22 1.58 1.382v8.382q-.707-.843-2.537-1.184l.957-8.58zm-.425-.843l-1.132 10.022q2.521.289 3.136 1.8v1.678h.752V4.475q0-1.883-2.756-2.225zm5.812.843q1.511.22 1.58 1.382v8.382q-.706-.843-2.536-1.184l.956-8.58zm-.425-.843l-1.131 10.022q2.52.289 3.136 1.8v1.678h.751V4.475q0-1.883-2.756-2.225zm5.565 0c-.697 0-1.309.513-1.309 1.171V15.75h.852V3.421c0-.322.284-.427.463-.427.187 0 .475.131.475.527v8.103h.852V3.521c0-.66-.653-1.271-1.333-1.271zm17.059.395q.307 0 .307.322v2.475h-.937l.308-2.606q.015-.19.322-.19zm.015-.395q-.747 0-.791.425-.307 2.767-.659 2.781l-6.793.25-.703-.03q-.79-.835-1.405-.835l-.454-.029q-1.244.234-1.493.234-.176 0-.176.235 0 .322.498.322.855-.137 1.311-.137.083 0 .153.005.249 0 .41.205-.286.353-1.278.353l-.157-.002q-1.127-.03-1.991-.293-.425 0-.425.498.044.454 3.177.469l1.391-.147 7.935-.044 2.226.03V2.967q-.015-.717-.776-.717zm-6.589 6.674q2.696 0 5.717 1.303-3.021 1.266-5.717 1.266-2.677 0-5.716-1.266 3.039-1.303 5.716-1.303zm0-.832q-3.328 0-7.652 2.117 4.324 2.098 7.652 2.098 3.33 0 7.653-2.098-4.306-2.117-7.653-2.117zm-1.141 5.607c-.114 0-.228.014-.343.042-.23.056-.48.184-.75.384h-5.418v1.198h5.419c.269.2.518.328.749.385a1.438 1.438 0 0 0 .683 0c.226-.057.452-.185.678-.385h.208c.217.2.44.328.67.385a1.444 1.444 0 0 0 .691 0c.23-.057.476-.185.736-.385h5.47v-1.198h-5.47c-.26-.2-.506-.328-.736-.384a1.444 1.444 0 0 0-.69 0c-.23.056-.454.184-.67.384h-.21c-.225-.2-.45-.328-.677-.384a1.398 1.398 0 0 0-.34-.042z"/><path d="M8.22.375c-9.625 0-9.625 17.25 0 17.25m0-17.25h37.879M8.22 17.625h37.879M53.786.375v17.25M46.099.375c9.625 0 9.625 17.25 0 17.25" fill="none" stroke="#000"/><path d="M57.599 11.566v-.984h-.969v-.406h.969v-.969h.422v.969h.968v.406h-.968v.984h-.422zm12.726-8.473q1.511.22 1.58 1.382v8.382q-.707-.843-2.536-1.184l.956-8.58zM69.9 2.25l-1.131 10.022q2.52.289 3.136 1.8v1.678h.751V4.475q0-1.883-2.756-2.225zm6.373 0a2.73 2.73 0 0 0-.247.015c-1.189.127-2.034 1.33-1.847 2.497.083.867.62 1.353 1.211 1.831 1.757 1.077 1.264.68 3.036 1.578l.284-.531c-2.109-.987-2.363-1.144-3.02-1.577-.539-.434-.965-.912-.928-1.638-.014-.5.285-1.016.62-1.263.27-.202.614-.321.95-.321.255 0 .494.06.703.209.53.262.822 1.129.434 1.674-.18.262-.501.441-.823.441a.76.76 0 0 1-.448-.142c-.27-.15-.471-.672-.195-.964-.127-.134-.306-.299-.44-.299-.09 0-.158.067-.202.224-.3.718.179 1.533.897 1.727.127.038.254.06.38.06.823 0 1.586-.688 1.586-1.54.074-.994-.718-1.906-1.712-1.966a2.416 2.416 0 0 0-.24-.015zm8.49.77l-.015.007 2.677 5.129h1.009L85.758 3.02zm-2.242.007l-1.01.008 2.677 5.136 1.009-.008-2.676-5.136zm-3.669 6.94q.212 0 .294.212-.105-.041-.18-.041-.157 0-.18.188-.031.335-.18.335h-.007q-.155-.008-.22-.139 0-.098.244-.326.115-.229.229-.229zm.234.292q.06 0 .06.084-.03.329-.252.329-.02 0-.042-.003v-.033l.065-.146q.015-.23.131-.23h.016l.022-.001zm-1.454.185q-.148 0-.274.086-.155.106-.09.368h.066q.016-.164.098-.27.081-.106.269-.106t.188-.049l-.188-.024q-.035-.005-.07-.005zm-.005.143q-.195 0-.195.278v.098q.016.003.03.003.054 0 .067-.052.278-.065.409-.229-.115-.098-.31-.098zm-.293.425q-.082.114-.017.286.066.171.817.236l.114-.049q-.947-.065-.85-.44l-.064-.033zm1.06-.784q-.211.147-.163.376.033.098.196.163.147.065.115.343.032.604-.506.93-.082-.195-.319-.212l-.044-.001q-.202 0-.29.14-.07.11-.163.11-.039 0-.082-.02-.027.006-.05.006-.148 0-.163-.267.164-.017.229-.066t.245-.114q-.08-.09-.163-.09-.037 0-.074.016-.122.058-.253.09-.277-.049-.212-.277-.163-.18-.114-.31.359-.229.595-.433.237-.204.531-.245.294-.04.686-.139zm.964-.147q.424.033.898.482.473.449.555.922-.882 1.29-2.498 2.057-.065-.685.229-1.371.538-.49.473-.824-.065-.335.212-.45.62-.114.13-.816zm5.99 2.758l.05.001q.735.131 1.339.662.604.53.865 1.314.05.081-.359.081-1.714-.718-2.171-1.453-.202-.605.276-.605zm-4.358-.815q1.018.976 2.594.976.27 0 .557-.029.03-.01.056-.01.238 0 .238.794-1.616.718-2.547.783-.275.02-.559.02-.673 0-1.392-.11-.155-.023-.287-.023-.74 0-.782.734-.685-.817-.49-1.11 1.617-.719 2.612-2.025zm-1.988-2.377l-.077.002q-.742.024-.791.302-.294.114-.547.188-.253.073-.474.269-.22.196-.49.35-.269.156-.318.27-.082.18.147.392 0 .18.163.294.033 0 .074.277.04.278.302.409.326-.05.424-.188.083-.118.214-.118.023 0 .047.004.164.024.245.269-.065.245-.187.865-.123.62 0 .914.122.294-.433.662-.423.28-1.16.28-.23 0-.489-.027-.566-.158-.911-.158-.37 0-.485.182-.22.351.041.612h.637q1.465.053 2.482.053 2.449 0 2.293-.306-.177-.347.288-.347.114 0 .267.02.24.034.527.034.64 0 1.514-.164 1.265-.237 1.649-.44.245-.131.532-.131.16 0 .333.04.481.115.58.409-.214.392-.742.392-.241 0-.548-.082-.514-.137-.844-.137-.299 0-.446.112-.31.237-.033.564h5.306q.539-.49.229-1.135-.31-.645-1.045-1.224-.735-.58-1.616-1.053.23-.202.444-.202.272 0 .519.324.258.34.438.34.127 0 .215-.169-.582-1.04-1.214-1.04-.042 0-.084.004-.678.073-1.233.759-.672.17-1.252.17-1.266 0-2.094-.807-.457-1.159-1.094-1.608-.604-.426-1.303-.426zm17.902-6.639q2.455 0 5.207 1.186-2.752 1.154-5.207 1.154-2.439 0-5.207-1.154 2.768-1.186 5.207-1.186zm0-.758q-3.032 0-6.97 1.928 3.938 1.911 6.97 1.911 3.032 0 6.97-1.911-3.921-1.928-6.97-1.928zm-1.039 11.631a1.31 1.31 0 0 0-.313.039c-.21.051-.437.168-.683.35h-4.935v1.091h4.935c.246.182.473.299.683.35a1.31 1.31 0 0 0 .622 0 1.48 1.48 0 0 0 .617-.35h.19c.198.182.402.299.611.35a1.316 1.316 0 0 0 .63 0c.209-.051.432-.168.67-.35h4.982V14.27h-4.983c-.237-.182-.46-.299-.67-.35a1.316 1.316 0 0 0-.629 0 1.39 1.39 0 0 0-.61.35h-.19a1.492 1.492 0 0 0-.618-.35 1.274 1.274 0 0 0-.31-.039zm15.713-9.327c-.203.097-.45.367-.075.412.18-.007.592-.195.517-.367a.166.166 0 0 1-.118.05c-.106 0-.215-.095-.324-.095zm-1.478.067c-.248.06-.376.33-.06.39l.016.001c.181 0 .676-.22.269-.27-.068-.046-.135-.12-.225-.12zm1.973-1.883c.443.517.833 1.118.908 1.808.075.495.097.99.172 1.478-.352-.03-.247-.577-.18-.84.06-.518-.217-.998-.412-1.456-.135-.247-.263-.638-.608-.645-.383.067-.63.39-.878.668-.255-.255-.525-.533-.878-.638a.177.177 0 0 0-.06-.01c-.08 0-.172.035-.215.035-.037 0-.036-.026.042-.123.048-.168.147-.218.27-.218.178 0 .407.106.599.106a.42.42 0 0 0 .084-.008 2.801 2.801 0 0 0 1.156-.158zm-.12.57c.293.075.36.48.503.72.18.42.397.878.255 1.351-.113.225.03.51.015.675-.25.176-.47.547-.802.547a.474.474 0 0 1-.114-.014c-.33-.067-.495-.383-.75-.533-.185.178-.294.548-.598.548a.464.464 0 0 1-.137-.022c-.278-.06-.646-.03-.728-.368-.143-.345-.158-.728-.18-1.103a.243.243 0 0 0 .045.005c.152 0 .166-.177.18-.328.058-.22.215-.321.39-.321.118 0 .244.046.353.134.127.142.517.255.435.48-.038.135-.083.277-.128.42l.315.42c.03-.217.353-.397.166-.615-.03-.098-.143-.225-.128-.3.135-.24.315-.45.525-.63a.241.241 0 0 1 .172-.077c.201 0 .404.263.579.287.172-.188-.015-.263-.188-.36a.526.526 0 0 0-.365-.147.602.602 0 0 0-.49.266c-.143.086-.242.371-.367.371-.04 0-.082-.028-.129-.1-.229-.184-.503-.39-.804-.39a.642.642 0 0 0-.134.014c-.212.044-.403.474-.419.474-.008-.353.157-.669.254-1.014a.459.459 0 0 1 .447-.357c.13 0 .261.055.356.177.224.083.387.475.597.475a.2.2 0 0 0 .116-.04c.233-.247.42-.54.758-.645zm7.737 2.57c.186 0 .278.097.278.291v2.24h-.848l.278-2.36c.01-.114.106-.171.292-.171zm-5.411.852c.53.305 1.176.962 1.841 1.758l-3.787.109-.418-.382c1.14-.382 1.959-1.028 2.364-1.485zm-1.358-.556c.045.094.103.125.165.125.08 0 .168-.053.24-.087.18.127.803.112.435.383-.232.315-1.476 1.174-2.339 1.326-.296.052.037.433.288.693l-.167.005a12.4 12.4 0 0 0-1.143-1.424c-.081-.088-.433-.459-.402-.459.003 0 .012.005.026.016.119.031.252.052.384.052.253 0 .501-.078.63-.314.019-.06.043-.082.072-.082.103 0 .258.3.423.3a.69.69 0 0 0 .385.115.79.79 0 0 0 .583-.266c.142-.128.277-.255.42-.383zm-2.034 2.341c.037.038.073.078.11.12l-.066.002-.044-.122zm.645.893c.681 1.169 1.239 2.819 1.411 3.602-.367-.3-.87-.495-.983-.683-.099-.161-.343-1.49-.777-2.918l.35-.001zm5.303-.024c1.357 1.77 2.648 3.803 3.05 4.294-1.126-.713-2.237-1.433-3.445-2.019-1.168-.573-2.219-1.392-3.21-2.259l3.605-.016zm-4.424 3.814c.24.142.457.337.72.442-.158.39-.255.826-.578 1.133-.06.098-.147.129-.246.129-.17 0-.378-.092-.551-.092a.44.44 0 0 0-.036.001c.21-.525.526-.758.69-1.613zm.15-3.795c.944.852 1.909 1.691 3.039 2.301.878.496 1.8.938 2.648 1.486.406.585.886 1.126 1.193 1.771-.307.09-.607.218-.922.293a2.168 2.168 0 0 1-.527.061c-.496 0-.994-.147-1.214-.384-.406-.428-.848-2.251-1.08-2.919-.034-.075-.08-.1-.132-.1-.101 0-.219.099-.277.099a.03.03 0 0 1-.027-.014.293.293 0 0 0-.29-.282c-.131 0-.254.096-.235.297-.045.473-.135.946-.36 1.373-.028.073-.086.101-.162.101-.213 0-.57-.22-.814-.28.07-.41-.307-2.017-1.357-3.8l.517-.003zm-.42-7.153a2.79 2.79 0 0 1-1.02.21c-.054 0-.107-.003-.159-.007a.603.603 0 0 1-.107.009c-.252 0-.524-.136-.768-.136a.466.466 0 0 0-.265.074c-.413.6-.788 1.268-.833 2.011-.083 1.426-.045 1.92 1.08 3.091.114.258.252.665.4 1.143l-.56-.024c-.478-.503-.902-.755-1.274-.755-.132-.01-.27-.018-.41-.027-.752.142-1.202.212-1.352.212-.107 0-.16.071-.16.212 0 .195.15.292.451.292.516-.082.912-.123 1.187-.123.05 0 .097.001.139.004.15 0 .274.062.371.185-.172.214-.558.32-1.157.32l-.142-.001c-.68-.018-1.282-.106-1.803-.266-.256 0-.385.15-.385.451.027.274.986.415 2.877.424l1.26-.132 1.186-.006c.365 1.27.736 2.72.888 3.269.27.255-.337 1.65-.593 1.996-.138.191-.504.2-.897.2h-.129c-.353 0-.711.008-.932.145-.21.135-.285.638-.165.705.112-.172.338-.405.495-.427-.15.157.375.082.488.12.303.005.61.03.918.03.15 0 .298-.006.448-.023.067-.03.14-.075.171-.075.025 0 .025.027-.021.113.212.055.45.083.684.083.525 0 1.022-.14 1.131-.42.226-.414.436-.849.586-1.299.191.04.432.176.625.176a.284.284 0 0 0 .155-.04c.21-.144.428-.811.548-1.254.011-.046.074-.069.137-.069.06 0 .122.021.14.061.226.45.6 1.831.961 2.41.272.427.93.638 1.631.638.442 0 .9-.083 1.288-.249.488-.21.848-.165.743-.435-.165-.45-.45-.878-.75-1.26.435.27.87.547 1.305.817.036.131.126.183.218.183.178 0 .362-.193.18-.385-.969-1.4-2.262-3.36-3.543-5.04l.984-.004 2.015.026V6.17c-.009-.433-.243-.65-.703-.65-.45 0-.689.129-.716.385-.185 1.67-.384 2.51-.596 2.519l-1.701.048c-.722-.883-1.42-1.623-2.028-2.064a2.525 2.525 0 0 0-1.043-.563c-.128-.33-.09-.773-.165-1.148-.075-.743-.526-1.973-1.314-2.446zm17.52.85L128.3 7.732h-3.703L123.234 3.1zm-7.137-.531l1.675 5.695h4.498l1.675-5.695zm13.489.116v.422h-2.23v-.422zm-1.121.831q1.398 0 1.932.712t.534 1.28q-.013.883-.739 1.542-.725.66-1.727.66-1.016 0-1.741-.66-.725-.659-.725-1.53 0-.58.435-1.292.435-.712 2.03-.712zM133.15 2.25v.99q-.475.276-.87.896-.396.62-.41 1.371 0 .884.733 1.787.732.904 2.288.97 1.543-.066 2.281-.97.739-.903.739-1.773-.013-.765-.409-1.392-.396-.626-.884-.903V2.25zm-4.08 11.437c-.114 0-.23.015-.345.043-.232.057-.483.185-.753.386h-5.448v1.205h5.448c.27.2.521.33.753.386a1.446 1.446 0 0 0 .687 0c.227-.056.454-.185.681-.386h.21c.218.2.443.33.674.386a1.452 1.452 0 0 0 .694 0c.232-.056.478-.185.74-.386h5.5v-1.205h-5.5c-.262-.2-.508-.33-.74-.386a1.452 1.452 0 0 0-.694 0 1.55 1.55 0 0 0-.674.386h-.21c-.227-.2-.454-.33-.68-.386a1.406 1.406 0 0 0-.343-.043z"/><path d="M68.769.375c-9.625 0-9.625 17.25 0 17.25m0-17.25h69.143m-69.143 17.25h69.143M145.6.375v17.25M137.912.375c9.625 0 9.625 17.25 0 17.25" fill="none" stroke="#000"/></svg>