<svg xmlns="http://www.w3.org/2000/svg" width="85.174" height="18"><path d="M9.913 5.503q.689 2.255.908 3.497.219 1.242.96 2.224.741.98 1.984 1.409 1.242.428 2.265 1.388 1.002-.96 2.244-1.388 1.242-.428 1.984-1.41.74-.98.96-2.223.22-1.242.908-3.497-.417 2.067-.657 3.706-.24 1.639-1.16 2.714-.918 1.075-2.181 1.555t-1.284 1.253h-1.65q-.02-.772-1.283-1.253-1.263-.48-2.182-1.555T10.57 9.209q-.24-1.64-.657-3.706zM7.95 2.622Q9.704 4.98 9.85 7.11q.146 2.13.449 3.392.303 1.263 1.326 2.224 1.023.96 2.014 1.284.992.323 1.096 1.367h2.568q.105-1.044 1.096-1.367.992-.324 2.015-1.284 1.023-.96 1.326-2.224.303-1.263.449-3.392.146-2.13 1.9-4.49h-.126q-1.043 1.17-1.785 2.026-.74.856-1.273 3.56-.533 2.703-2.213 3.507-1.681.804-2.662 1.347-1.002-.543-2.683-1.347-1.68-.804-2.213-3.507-.532-2.704-1.274-3.56-.74-.856-1.785-2.025zm22.51.215l-.404.822h-.522l-.417-.822zm8.087 0l-.417.822h-.522l-.417-.822zm-.274 1.617q-.365 1.005 0 1.996h-8.882q.313-1.004 0-1.996zm-4.2 2.779l.418.821h-1.344l.418-.821zm2.335-4.983l.678 1.396-.013.013H30.54l.704-1.383h-2.896l.692 1.383h-1.5v.795h.926q.352.992 0 1.996h-.926v.796h5.53l-.678 1.382h2.896l-.705-1.382h5.557V6.45h-.913q-.43-.991 0-1.996h.913V3.66H38.6l.705-1.409zm-8.331 11.319c.612 0 1.378.314 1.748.685.325.324.367.754.379 1.153h-4.237c.012-.4.055-.83.379-1.153.37-.371 1.119-.685 1.73-.685zm0-.343c-.726 0-1.508.335-1.965.793-.47.47-.523 1.088-.523 1.55v.181h4.976v-.18c0-.463-.036-1.081-.505-1.55-.458-.459-1.257-.794-1.983-.794zm3.627-1.653v4.177h.698v-4.177zm4.8.006v4.171h.698v-4.171zm4.887 0v4.171h.698v-4.171zm4.962-7.025c-.202.097-.45.367-.075.412.18-.007.593-.195.518-.367a.166.166 0 0 1-.118.05c-.106 0-.215-.095-.325-.095zm-1.478.067c-.247.06-.375.33-.06.39l.017.001c.181 0 .675-.22.268-.27-.067-.046-.135-.12-.225-.12zm1.974-1.883c.442.517.833 1.118.908 1.808.075.495.097.99.172 1.478-.353-.03-.247-.577-.18-.84.06-.518-.218-.998-.413-1.456-.135-.247-.262-.638-.607-.645-.383.067-.63.39-.878.668-.255-.255-.526-.533-.878-.638a.177.177 0 0 0-.061-.01c-.08 0-.172.035-.214.035-.037 0-.037-.026.042-.123.048-.168.147-.218.27-.218.178 0 .406.106.599.106a.42.42 0 0 0 .084-.008 2.801 2.801 0 0 0 1.156-.158zm-.12.57c.292.075.36.48.502.72.18.42.398.878.255 1.351-.112.225.03.51.015.675-.25.176-.47.547-.802.547a.474.474 0 0 1-.113-.014c-.33-.067-.495-.383-.75-.533-.185.178-.294.548-.599.548a.464.464 0 0 1-.137-.022c-.277-.06-.645-.03-.728-.368-.142-.345-.157-.728-.18-1.103a.243.243 0 0 0 .046.005c.152 0 .166-.177.18-.328.058-.22.215-.321.39-.321.118 0 .244.046.352.134.128.142.518.255.436.48-.038.135-.083.277-.128.42l.315.42c.03-.217.353-.397.165-.615-.03-.098-.142-.225-.127-.3.135-.24.315-.45.525-.63a.241.241 0 0 1 .172-.077c.201 0 .403.263.578.287.173-.188-.015-.263-.187-.36a.526.526 0 0 0-.365-.147.602.602 0 0 0-.49.266c-.143.086-.243.371-.368.371-.04 0-.081-.028-.128-.1-.229-.184-.504-.39-.804-.39a.642.642 0 0 0-.134.014c-.212.044-.403.474-.42.474-.008-.353.157-.669.255-1.014a.459.459 0 0 1 .447-.357c.13 0 .26.055.356.177.223.083.387.475.597.475a.2.2 0 0 0 .116-.04c.232-.247.42-.54.758-.645zm-1.066 5.207c.953.983 1.83 3.475 2.056 4.495-.368-.3-.87-.495-.983-.683-.12-.195-.45-2.093-1.073-3.812zm3.392-1.785c1.8 1.035 4.937 6.13 5.605 6.948-1.126-.713-2.236-1.433-3.444-2.019-1.696-.832-3.144-2.183-4.525-3.444 1.14-.382 1.958-1.028 2.364-1.485zm-1.869 6.468c.24.142.458.337.72.442-.157.39-.254.826-.577 1.133-.06.098-.147.129-.246.129-.17 0-.378-.092-.551-.092a.44.44 0 0 0-.036.001c.21-.525.525-.758.69-1.613zm.51-7.024c.046.094.104.125.166.125.08 0 .167-.053.24-.087.18.127.803.112.435.383-.233.315-1.476 1.174-2.34 1.326-.372.065.254.655.457.865 1.17 1.05 2.318 2.16 3.721 2.918.878.496 1.801.938 2.65 1.486.404.585.884 1.126 1.192 1.771-.308.09-.608.218-.923.293a2.168 2.168 0 0 1-.527.061c-.495 0-.994-.147-1.214-.384-.405-.428-.848-2.251-1.08-2.919-.033-.075-.08-.1-.131-.1-.101 0-.219.099-.277.099-.012 0-.021-.004-.027-.014a.293.293 0 0 0-.29-.282c-.132 0-.254.096-.236.297-.045.473-.135.946-.36 1.373-.027.073-.085.101-.16.101-.214 0-.572-.22-.815-.28.097-.579-.69-3.535-3.002-6.011-.08-.088-.433-.459-.402-.459.004 0 .012.005.027.016.118.031.252.052.384.052.253 0 .5-.078.63-.314.019-.06.043-.082.072-.082.103 0 .258.3.422.3a.69.69 0 0 0 .386.115.79.79 0 0 0 .582-.266c.143-.128.278-.255.42-.383zm-.78-3.924c-.236.105-.649.21-1.02.21-.053 0-.106-.003-.158-.007a.603.603 0 0 1-.107.009c-.253 0-.524-.136-.769-.136a.466.466 0 0 0-.264.074c-.413.6-.788 1.268-.833 2.011-.083 1.426-.045 1.92 1.08 3.091.443 1.006 1.268 4.285 1.516 5.178.27.255-.338 1.65-.593 1.996-.139.191-.504.2-.897.2h-.13c-.353 0-.71.008-.931.145-.21.135-.285.638-.165.705.112-.172.337-.405.495-.427-.15.157.375.082.488.12.303.005.61.03.918.03.149 0 .298-.006.447-.023.068-.03.14-.075.172-.075.024 0 .024.027-.022.113.213.055.451.083.685.083.525 0 1.022-.14 1.131-.42a8.15 8.15 0 0 0 .585-1.299c.192.04.433.176.626.176a.284.284 0 0 0 .155-.04c.21-.144.428-.811.548-1.254.011-.046.073-.069.137-.069.06 0 .122.021.14.061.225.45.6 1.831.96 2.41.272.427.931.638 1.632.638.441 0 .9-.083 1.288-.249.487-.21.847-.165.742-.435-.165-.45-.45-.878-.75-1.26.435.27.87.547 1.306.817.036.131.126.183.218.183.177 0 .362-.193.18-.385-1.704-2.461-4.413-6.656-6.289-8.014a2.525 2.525 0 0 0-1.043-.563c-.127-.33-.09-.773-.165-1.148-.075-.743-.525-1.973-1.313-2.446zm11.352 1.6q-.045.33-.015.653h-.466v-.654zm3.544 0v.653h-.443q.022-.323-.03-.654zm-2.005-.88q.593 0 .834 1.014.232 1.022-.473 3.267h-.736q-.691-2.245-.488-3.267.202-1.013.863-1.013zm1.096 4.513l-.015.203h-2.162l-.03-.203zm-.03.436l-.03.203h-2.072l-.03-.203zm-.037.428l-.03.187h-1.99l-.03-.187zm-.045.435l-.03.188h-1.907l-.023-.188zm-.045.42l-.03.203h-1.832l-.015-.202zm-.939-6.952q-1.314.113-1.486 1.284h-.849v1.299h.78q.053 1.179.489 2.418h-.39l.232 2.395h.3q-.202 2.267-1.584 6.104h.969q.991-3.837 1.306-6.104h.466q.315 2.267 1.209 6.104h.983q-1.299-3.837-1.516-6.104h.308l.225-2.395h-.39q.45-1.24.51-2.418h.758v-1.3h-.833q-.188-1.17-1.487-1.283zm10.062 0v5.49h.919V2.25zm-4.944 11.687q-.075 0-.146.023-.278.09-.246.27.028.152.249.152.04 0 .086-.005.303-.033.532-.245-.256-.195-.475-.195zm.142-.165q.59 0 1.82.703.618.32 1.354.32.355 0 .739-.075.964-.196 2.027-.343.36-.05.699-.05.657 0 1.23.189.866.286 1.438.368.572.081 1.815.147-.801.081-1.57.081-.768 0-1.814-.171-.523-.086-1.008-.086-.484 0-.93.086-.89.171-2.026.319-.284.036-.559.036-.823 0-1.558-.33-.714-.488-1.484-.488-.34 0-.69.095-.31-.016-.278-.343.18-.442.768-.458h.027zm.437-1.668q-.354 0-.66 1.08-.256-.953-.66-.953-.061 0-.125.02-.49.311.327 1.194-.654.376-.654.948t.965.638q.298-.078.582-.078.667 0 1.257.43.505.367 1.602.367.73 0 1.724-.163 1.221-.344 2.373-.344.437 0 .864.05 1.068.123 1.819.123.34 0 .617-.026 1.39-.032 1.39-.261-.377-.343-1.063-.458-1.455-.016-2.657-.507-.6-.245-1.473-.245-.872 0-2.017.245-.738.187-1.374.187-.871 0-1.552-.35-.703-.425-1.487-.703.654-.507.613-.842-.041-.335-.4-.351h-.011z"/><path d="M7.95.375c-9.625 0-9.625 17.25 0 17.25m0-17.25h68.974M7.95 17.625h68.974M84.612.375v17.25M76.924.375c9.625 0 9.625 17.25 0 17.25" fill="none" stroke="#000"/></svg>