<svg xmlns="http://www.w3.org/2000/svg" width="65.242" height="18"><path d="M11.116 8.203c-.51.04-.793.296-.847.767.067.51.35.78.847.806.498-.026.76-.295.787-.806-.04-.47-.303-.726-.787-.767zm.06-1.694c.364 0 .7.068 1.01.202a2.659 2.659 0 0 1 1.371 1.361c.134.303.201.622.201.958 0 .35-.067.676-.202.978a2.567 2.567 0 0 1-2.38 1.523c-.362 0-.702-.064-1.018-.192a2.426 2.426 0 0 1-.816-.534 2.621 2.621 0 0 1-.545-.797 2.38 2.38 0 0 1-.202-.978c0-.336.068-.655.202-.958.134-.302.316-.571.545-.806.228-.236.5-.42.816-.555a2.574 2.574 0 0 1 1.019-.202zm-.04-.685c-.443 0-.86.084-1.25.252-.39.168-.726.396-1.008.685a3.36 3.36 0 0 0-.676 1.009 3.053 3.053 0 0 0-.252 1.24c0 .444.084.857.252 1.24.168.384.393.716.676.999a3.2 3.2 0 0 0 2.258.927c.444 0 .857-.084 1.24-.252a3.36 3.36 0 0 0 1.009-.675c.289-.283.518-.615.686-.999.168-.383.252-.796.252-1.24 0-.444-.084-.857-.252-1.24a3.268 3.268 0 0 0-1.694-1.694 3.053 3.053 0 0 0-1.24-.252zm7.165-3.229q-.082.871-.082 1.953 0 1.08.105 2.184-.24-.127-.75-.127-.519 0-.752.127.113-1.103.105-2.184-.007-1.082-.082-1.953zm-.728 4.475q.51.008 1.036.27l-.135.248q-.106-.018-.199-.018-.32 0-.477.221-.09-.398-.225-.488-.135.09-.233.488-.157-.221-.477-.221-.092 0-.198.018l-.136-.247q.541-.263 1.044-.27zm0 .721q.113.09.075.263-.037.173-.075.33-.045-.157-.082-.33-.038-.173.082-.263zm.684.001q.042 0 .09.007-.511 1.216-.774 1.216-.255 0-.788-1.216.048-.007.091-.007.274 0 .352.247.097.278.202.45.113.18.143.18.038 0 .135-.18.105-.172.195-.45.085-.247.354-.247zM16.402 2.25q.36 2.553-.008 4.603-.668.315-.555.533.082.164.189.164.039 0 .081-.022.653.736 1.074 1.735.165 1.644-.045 5.684 0 .803.42.803h.023q.42 0 .42-.803-.203-4.04-.045-5.684.413-.999 1.066-1.735.043.022.082.022.106 0 .189-.164.112-.218-.549-.533-.375-2.05 0-4.603zm6.196 8.838c.4.153.837.645.965 1.05.127.406.112.879.022 1.344-.09.458-.27.894-.488 1.18-.15.195-.285.307-.413.345h-.12c-.128-.03-.293-.143-.458-.346-.218-.285-.398-.72-.488-1.179-.09-.465-.105-.938.023-1.344.127-.405.605-.931.957-1.046v-.004zm-.424-8.838v.901h-.811v.578h.81l-.112 6.818c-.578.3-.938.81-1.111 1.359a3.576 3.576 0 0 0-.068 1.734 3.49 3.49 0 0 0 .646 1.457c.233.3.54.548.901.623v.022c.022.008.045.008.068.008.03 0 .06-.008.09-.008a.532.532 0 0 0 .105.008c.03 0 .052 0 .082-.008v-.022c.36-.075.669-.323.901-.623a3.49 3.49 0 0 0 .646-1.457 3.576 3.576 0 0 0-.068-1.734 2.228 2.228 0 0 0-1.11-1.337l-.113-6.84h.765l.023-.578h-.856V2.25h-.788zm11.627.69l.1.001h.051q1.867 0 3.561 1.606l-1.048.847q-.98-.936-2.564-.936-1.583 0-2.565.936l-1.048-.847Q31.96 2.94 33.801 2.94zm.1 2.164q1.761.023 2.899 1.851h-5.82q.892-1.828 2.92-1.85zm0-2.854q-2.765.111-4.66 2.274l1.583 1.338q-.67.892-.825 1.673h7.782q-.156-.78-.825-1.65l1.472-1.338Q36.666 2.36 33.9 2.25zm7.019 9.128q.332 0 .332.347v2.668h-1.01l.332-2.81q.015-.205.347-.205zm.017-.426q-.805 0-.853.457-.331 2.984-.71 3l-7.324.268-.757-.032q-.853-.9-1.515-.9l-.49-.031q-1.341.252-1.61.252-.19 0-.19.253 0 .347.538.347.921-.147 1.413-.147.09 0 .165.005.268 0 .442.221-.308.381-1.378.381l-.169-.002q-1.215-.032-2.147-.316-.457 0-.457.537.047.49 3.425.505l1.5-.158 8.554-.047 2.4.031v-3.85q-.017-.774-.837-.774zm9.282-8.009c.222 0 .356.038.425.077.202.13.106.437.073.63h-.997c-.024-.197-.133-.497.073-.63.07-.04.203-.077.426-.077zm-5.542 1.164V4.8h-.947v-.693zm4.916 0V4.8h-4.689v-.693zm1.14 0V4.8h-.912v-.693zm4.579 0V4.8h-4.35v-.693zm1.224 0V4.8h-.997v-.693zm-8.32-1.857l-.323.323 1.08 1.077h-5.7v1.607h13.72V3.65h-5.528l1.08-1.077-.324-.323-.998.995c-.06-.603-.473-.741-1.004-.759-.568.016-.917.144-1.005.76l-.998-.996zm-4.917 8.003v5.497h.919v-5.497zm6.317.007v5.49h.92v-5.49zm6.432 0v5.49h.918v-5.49z"/><path d="M7.95.375c-9.625 0-9.625 17.25 0 17.25m0-17.25h49.042M7.95 17.625h49.042M64.68.375v17.25M56.992.375c9.625 0 9.625 17.25 0 17.25" fill="none" stroke="#000"/></svg>