<svg xmlns="http://www.w3.org/2000/svg" width="54.821" height="18"><path d="M10.477 2.605c.52 0 .936.15 1.226.36.005.04.015.08.006.12a.8.8 0 0 1-.296.472c-.237.155-.523.2-.793.268-.068.006-.014.023.023.029a5.534 5.534 0 0 0 .768.074 1.22 1.22 0 0 0 .574-.234.81.81 0 0 0 .153-.177c.111.26.171.535.196.688a.22.22 0 0 0 .151.175c.854.261 1.529 1.432 2.16 2.212 1.297 1.602 2.4 3.394 3.67 5.07-.703-.342-1.404-.688-2.108-1.03-1.44-.759-2.94-1.363-4.203-2.318l-.006-.006c-.728-.606-1.472-1.245-1.754-2.095-.112-.69 1.317-1.933 1.156-1.985a.156.156 0 0 0-.048-.007c-.344 0-1.315.846-1.514 1.652-.002-.011-.008-.024-.01-.034-.055-.267-.117-.942.05-1.485a.218.218 0 0 0 .008-.077 1.476 1.476 0 0 0-.092-.476c-.048-.127-.105-.258-.196-.574-.023-.08-.106-.246-.155-.258.14-.104.28-.211.483-.282a.326.326 0 0 0-.099.235c0 .173.123.312.274.312.15 0 .273-.14.273-.312V2.92a.308.308 0 0 0-.191-.292c.04-.005.071-.014.115-.017a2.72 2.72 0 0 1 .179-.006zm.503 5.822c.049.05.101.094.151.141.16.585.31 1.23.52 1.729.362.859.911 1.606 1.379 2.365a1.36 1.36 0 0 0-.288.202 5.123 5.123 0 0 0-.15.145 1.958 1.958 0 0 0-.889-.673c.034-.542-.081-1.283-.254-2.09a26.177 26.177 0 0 0-.47-1.819zm.755.682c.86.709 1.82 1.304 2.756 1.905-.013.682-.013 1.333.063 2.006a2.558 2.558 0 0 0-1.078-.552c-.014 0-.027.01-.042.01-.487-.798-1.038-1.545-1.378-2.352a8.347 8.347 0 0 1-.321-1.017zm.305 3.94c.122.115.234.247.33.406a.225.225 0 0 0 .193.106.22.22 0 0 0 .126-.04c.162-.118.261-.244.358-.335a1 1 0 0 1 .111-.088l.112 2.041c-.16-.01-.326-.026-.478-.026-.198 0-.372.027-.475.13-.126-.101-.373-.124-.668-.124a6.37 6.37 0 0 0-.236.004l.627-2.074zm.868-3.619c1.016.59 2.088 1.061 3.102 1.594l.004.002c.971.474 1.94.961 2.92 1.428.738.892 1.54 1.721 2.31 2.566l-1.614.27c-1.066-1.159-2.134-2.315-3.2-3.475a.216.216 0 0 0-.027-.027c-1.125-.853-2.365-1.562-3.495-2.358zm-2.381-7.18c-.102 0-.204.003-.308.01-.814.053-1.405.395-1.607.858-.03.07-.109.235-.005.235a1.763 1.763 0 0 1 .256-.021c.313 0 .285.129.353.146.067.211.216.635.227.8-.183.646-.115 1.323-.049 1.65.113.548.473 1.187.947 1.784a.214.214 0 0 0 0 .125c.225.691.488 1.626.677 2.502.188.875.294 1.707.237 2.117a.22.22 0 0 0 .166.246c.033.009.063.024.095.034l-.696 2.309a2.135 2.135 0 0 0-.444-.041c-.286 0-.567.037-.798.037-.095 0-.18-.006-.255-.024a.41.41 0 0 0-.094-.009c-.327 0-1.071.23-1.006.66.114-.096.194-.12.282-.12.083 0 .172.02.304.02h.02c.19-.003.523-.062.79-.062.135 0 .253.015.328.06.177-.007.337-.01.487-.01.637 0 1.085.053 1.875.057.591-.006 1.648-.03 2.23-.06.338.003.523.041.692.041h.03c.1-.003.199-.043.36-.043.092 0 .205.013.35.053-.187-.256-.656-.514-.997-.514a.443.443 0 0 0-.226.054 3.81 3.81 0 0 0-.381-.017c-.164 0-.336.007-.509.015l-.117-2.122c.365.152.642.387.96.765a.222.222 0 0 0 .385-.185c-.144-.779-.16-1.513-.151-2.294.405.265.804.534 1.182.82l3.27 3.554a.217.217 0 0 0 .197.067c.712-.12 1.425-.236 2.137-.355a.22.22 0 0 0 .172-.145.224.224 0 0 0-.044-.223c-.557-.623-1.132-1.223-1.689-1.834.952.586 2.157 1.316 2.31 1.316.017 0 .021-.009.01-.029-.071-.122-.675-.567-1.331-1.03.104.043.206.09.31.132l.013.009c.078.025.12.043.202.046a.214.214 0 0 0 .082-.013.238.238 0 0 0 .141-.113.24.24 0 0 0 .017-.18c-.012-.037-.028-.057-.04-.073-.046-.063-.077-.08-.122-.115a3.415 3.415 0 0 0-.153-.112c-.115-.078-.253-.167-.37-.246a3.744 3.744 0 0 1-.267-.193l-2.92-2.053c-.005-.004-.014 0-.02-.004-1-1.401-1.94-2.869-3.034-4.22-.559-.69-1.2-1.896-2.24-2.298-.05-.297-.163-.846-.565-1.237-.343-.332-.837-.485-1.392-.519a4.296 4.296 0 0 0-.264-.008zm15.117.85q.366 0 .966.2 1.028.342 2.129 1.43 1.101 1.09.88 2.02-.22.93-.856 1.395-.525.384-1.268.384-.156 0-.322-.017-.955-.098-1.64-1.505-.685-1.407-.636-2.509.049-1.1.342-1.297.143-.102.405-.102zm-.1-.85q-.505 0-.819.217-.66.465-.734 1.91-.073 1.443.832 3.132.906 1.688 2.203 1.847.248.03.482.03.993 0 1.745-.544.93-.673 1.162-1.909.233-1.235-.991-2.618-1.224-1.383-2.643-1.836-.72-.229-1.238-.229zm1.256 8.502v4.998h.837v-4.998zM37.946 2.92v12.27H32.59v-.592h2.709V7.326h1.666V2.92zm-1.557-.67v4.531h-1.666v7.334H31.95v1.635h6.571V2.25zm6.908.45c.805 0 1.813.415 2.301.903.427.426.483.992.499 1.518H40.52c.016-.526.072-1.092.499-1.518.488-.488 1.472-.902 2.278-.902zm0-.45c-.956 0-1.984.441-2.587 1.044-.618.618-.688 1.432-.688 2.04v.238h6.55v-.237c0-.61-.047-1.423-.665-2.04-.603-.604-1.655-1.045-2.61-1.045zm0 10.629c.805 0 1.813.414 2.301.902.427.426.483.992.499 1.518H40.52c.016-.526.072-1.092.499-1.518.488-.488 1.472-.902 2.278-.902zm0-.451c-.956 0-1.984.441-2.587 1.044-.618.618-.688 1.432-.688 2.04v.238h6.55v-.237c0-.61-.047-1.423-.665-2.04-.603-.604-1.655-1.045-2.61-1.045z"/><path d="M8.22.375c-9.625 0-9.625 17.25 0 17.25m0-17.25h38.351M8.22 17.625h38.351M54.259.375v17.25M46.571.375c9.625 0 9.625 17.25 0 17.25" fill="none" stroke="#000"/></svg>