<svg xmlns="http://www.w3.org/2000/svg" width="74.297" height="18"><path d="M6.286.322q.06 0 .113.039.214.116-.136.564-.37.369-.457.622-.088.253-.185.67-.097.419-.428 1.197l-.447.136H3.132q.233-.506.544-.914.759-.7 1.128-.934.37-.233.593-.398.224-.166.477-.632.233-.35.412-.35zM5.27 3.939l-.311.68q-.454-.045-.84-.045-.775 0-1.28.182-.097-.661-.292-.817zm-2.237 1.42q-.37.02-.389.35.02.389.39.389.369 0 .388-.39-.02-.33-.389-.35zm.837-.33q.836 0 .972.777.136.778-.895 1.07.35.66 0 .836-.123.062-.24.062-.216 0-.411-.208-.302-.32-.535-.914-.233-.593-.7-.593h.33q-.213-.33-.155-.506l.034.002q.166 0 .219-.177.37-.35 1.38-.35zm1.147.057q.292 0 .836 1.255.545 1.254 1.77 2.314t1.974 2.577q.749 1.517 2.927 3.326-3.812-1.809-4.784-2.237-.973-.428-3.15-2.003-1.246-.914-1.246-1.459 0-.427.098-.739V8.1q.992 0 .992-.991 1.342-.661.583-2.023zm-.545 5.971q.37 1.77 1.829 3.91-.139.109-.302.109-.385 0-.904-.616 0-.972-.7-3.403zm.642.622q1.148.914 2.587 1.731v1.848q-.506-.39-1.011-.467-1.381-2.256-1.576-3.112zm.214 3.812q.265.336.546.336.255 0 .524-.277l.097 1.711q-.185-.041-.354-.041-.308 0-.56.138-.34-.113-.597-.113-.096 0-.18.016l.524-1.77zm.603-3.676l5.815 2.937q1.128 1.264 2.159 2.392v.02l-1.459.233-2.898-3.131q-.836-.68-3.617-2.45zM6.202 0h-.037q-.233.01-.486.4-.058.174-.243.388-.185.214-.535.428-.35.214-.505.34-.156.127-.525.458-.312.252-.448.408-.31-.194-.525-.476-.214-.282-.233-.516-.02-.233.048-.37.069-.135.214-.165.04-.008.08-.008.103 0 .202.057.136.078.117.272-.039.175-.253.214-.058-.025-.095-.025-.05 0-.06.045-.04.252.194.272l.05.002q.2 0 .33-.138.145-.156.126-.525Q3.482.652 3.19.613 3.137.606 3.084.606q-.237 0-.468.144-.282.175-.311.544-.03.37.263.749.291.379.641.632-.272.35-.564.875H1.81q.506.545.603 1.536h-.04q-.346 0-.29.331-.545.156-.545 1.03.181-.105.34-.105.044 0 .088.009.233 0 .379.544.146.545.632 1.206v.02q-.117.233-.117.738 0 .506.895 1.459.895 3.073.875 4.493 0 .175.253.213l-.642 2.14q-.052-.004-.106-.004-.272 0-.604.082-.19.046-.388.046-.219 0-.448-.056-.253-.062-.497-.062-.177 0-.349.033-.272.051-.432.051-.08 0-.132-.012-.506.116-.564.758.337-.194.514-.194.089 0 .138.048.145.146.573.146h5.66q.37 0 .583-.156.071-.051.169-.051.194 0 .492.207.02-.622-.66-.797-.386.143-.696.143-.238 0-.433-.085l-.097-1.925q.532.736.93.736.17 0 .315-.134-.137-1.186-.137-2.178l.545.33q.467.215 2.052 2.024 1.52 1.734 1.814 1.734.013 0 .024-.004l1.847-.389q.292-.097.117-.291L13.01 15.51q1.362.875 2.042 1.167-.33-.37-1.108-.934l.389.136q.233-.039.194-.37-3.384-2.45-4.298-4.22-.914-1.77-2.149-2.878-1.235-1.108-1.838-2.49-.37-.874-.758-1.186L7.293.633 6.866.399 5.854 2.597l.098-.447q.116-.467.252-.7.137-.234.273-.331.291-.428.291-.661 0-.234-.175-.35Q6.413 0 6.201 0zm6.662 1.88c-.404 0-.674.234-.67.606.006.404.277.637.67.637s.627-.234.621-.637c-.005-.373-.239-.606-.621-.606zM12.91.536c.266 0 .531.055.798.165.511.211.856.578 1.084 1.076.231.507.215 1.02 0 1.53-.215.506-.583.838-1.084 1.05a1.98 1.98 0 0 1-.778.16c-.275 0-.55-.056-.823-.16-.509-.193-.846-.567-1.075-1.05a1.797 1.797 0 0 1-.16-.774c-.001-.535.233-1.009.59-1.394.176-.19.394-.335.645-.438.27-.11.536-.165.802-.165zM12.847 0c-.703 0-1.256.244-1.752.741-.507.509-.723 1.062-.733 1.776a2.32 2.32 0 0 0 .247 1.108c.133.652.14 1.742-.037 1.742-.308 0-.132-.819-.147-1.074-.025-.435-.282-.805-.587-1.099-.07-.068-.148-.144-.25-.154a2.8 2.8 0 0 0-.294-.02.975.975 0 0 0-.333.051c-.076.027-.079.134-.054.204.026.072.074.148.157.158l.063.003c.101 0 .201-.025.303-.026h.013c.042 0 .09.004.12.035-.068.128-.162.252-.178.402a.393.393 0 0 0 .015.176c.199.55.32 1.813 1.145 1.813.156 0 .23-.032.28-.079.366-.34.372-.916.35-1.393.484.455 1.03.646 1.705.655h.039c.691 0 1.242-.256 1.737-.733.135-.13.249-.262.344-.401.022.472.045.948.218 1.392.137.35.441.604.768.778a.139.139 0 0 0 .056.019c.04 0 .016-.062-.03-.107a1.986 1.986 0 0 1-.484-.734c-.176-.481-.158-1-.147-1.502.007-.307.02-.615.002-.922h-.002c.01-.094.015-.191.016-.292.008-.72-.242-1.268-.74-1.776-.507-.515-1.06-.733-1.777-.74L12.847 0zM24.05 3.768a.22.22 0 0 1 .056.007c.06.017.097.057.11.122.012.065.075.183.189.354a1.044 1.044 0 0 1-.072.003c-.195 0-.324-.062-.386-.186-.07-.138-.075-.226-.018-.262a.222.222 0 0 1 .121-.038zm-.512 1.045c-.22.024-.33.118-.33.28.033.123.111.184.235.184a.509.509 0 0 0 .107-.013c.196-.016.318-.093.367-.232-.13-.146-.257-.22-.379-.22zm1.751-.895a5.44 5.44 0 0 1 1.569.217c.542.163 1.11.245 1.702.245.163 0 .328-.007.494-.019a56.64 56.64 0 0 0 1.94-.17c.174-.02.325-.03.453-.03.257 0 .423.039.5.115.113.114.17.341.17.683 0 .22-.077.584-.232 1.092-.154.509-.2.88-.134 1.117-.513-.236-.814-.395-.903-.476-.683-.277-1.151-.688-1.403-1.233l-.208-.06c.293.732.598 1.163.915 1.293-.341.285-1.045.46-2.11.525-.53-.05-.97-.1-1.325-.153-.354-.053-.636-.425-.848-1.116.033-.578.26-1.087.683-1.526-.341.025-.626.407-.854 1.147-.203.285-.22.623-.049 1.013-.22-.114-.378-.345-.634-.488-.138-.077-.315-.115-.278-.232.06-.184.124-.281.144-.444.031-.25-.101-.47-.122-.47h-.002c-.034.081.015.398-.035.528s-.103.159-.207.325c-.277.244-.663.484-1.16.72 0-.132-.092-.198-.277-.198l-.064.003c-.082-.122-.118-.311-.11-.568.008-.256.016-.563.024-.921.098-.244.338-.476.72-.696.136.217.386.325.748.325.114 0 .239-.01.375-.032a1.995 1.995 0 0 1-.232-.476 7.2 7.2 0 0 1 .75-.04zm5.193 2.97c.095.49.093.734-.006.734a.09.09 0 0 1-.037-.009.318.318 0 0 1-.201-.311c0-.146.081-.285.244-.415zm.11.072c.211.196.319.368.323.519.004.136-.03.204-.098.204l-.024-.003c-.085-.016-.128-.085-.128-.207 0-.122-.025-.293-.073-.513zm-7.383-4.71c.325.545.427 1 .305 1.367 0 .105-.081.203-.244.293-.163.09-.324.215-.482.378a.774.774 0 0 1-.566.25c-.208 0-.418-.118-.63-.354a16.56 16.56 0 0 0-.53-.567c.231.921.604 1.382 1.116 1.382a.894.894 0 0 0 .079-.003c.211 0 .342.17.39.512-.08.293-.11.562-.085.806-.04.162.004.26.134.292.165.147.323.22.474.22.05 0 .1-.008.149-.024a.15.15 0 0 0 .052.008c.163 0 .516-.174 1.058-.52.505.276.757.569.757.878a9.396 9.396 0 0 1-1.172 2.611h.012a1.043 1.043 0 0 0-.305.61h.903a.687.687 0 0 1 .025-.268c.17 0 .207-.081.11-.244.04-.155.124-.409.25-.763.126-.354.437-.889.933-1.605.285.033.482.31.592.83.11.521.023 1-.262 1.44a1.043 1.043 0 0 0-.305.61h.903a.687.687 0 0 1 .024-.268c.171 0 .208-.081.11-.244l.061-1.757c.073-.39.2-.586.378-.586.097-.01.181-.014.253-.014.238 0 .343.051.315.154-.026.094.011.142.112.142a1.435 1.435 0 0 0 .675-.251c.056-.044.105-.065.146-.065.049 0 .088.03.116.089.053.11.145.266.275.47.13.203.07.484-.177.842a5.079 5.079 0 0 1-.8.915c-.162.097-.272.289-.329.573h1.013c-.057-.236-.008-.423.146-.56a.335.335 0 0 0 .145.04c.101 0 .155-.086.16-.26a2.86 2.86 0 0 1 .537-.928c.22-.244.265-.423.135-.537-.13-.114-.184-.321-.16-.622.207.267.492.401.855.401.167 0 .35-.028.55-.084.089.13.142.393.158.787.016.395-.09.767-.317 1.117-.277.195-.423.41-.44.646h.903a.601.601 0 0 1 .098-.488.383.383 0 0 0 .114.022c.128 0 .143-.121.045-.363.057-.53.183-1.152.378-1.867-.236-.586-.155-1.388.244-2.404.09.032.112.396.067 1.092-.045.695-.047 1.185-.006 1.47.04.285.055.5.043.647-.013.146.087.431.299.854.122-.984.138-1.832.048-2.544-.09-.712-.103-1.271-.042-1.678a1.02 1.02 0 0 0-.385-1c-.162-.277-.667-.416-1.513-.416-1.006.2-1.86.3-2.561.3-.501 0-.925-.052-1.27-.153-.83-.244-1.518-.366-2.063-.366-.154 0-.35.018-.586.055a.63.63 0 0 1-.096.007c-.198 0-.377-.098-.538-.294-.025-.44-.285-.777-.781-1.013zm7.542 9.904c.516.022.798.034.92.034h.055l-.066 2.692a3.95 3.95 0 0 1-1.025-.61l.116-2.116zm-7.512-.67c-.172.033-.4.138-.372.343v1.502a28.714 28.714 0 0 0-.775-.033c0 .188.155.443.637.443.005.426.083.947.16 1.213l.067.698c0 .078.133.1.277.1.172 0 .36-.033.36-.033l-.028-.698c2.737.022 7.956.16 8.217.16.133 0 .221-.144.221-.343l.067-3.009-1.646-.016-.133 2.343c-1.19.006-3.252.2-4.653.2-.444 0-.826-.017-1.086-.072-.056-.061-.571-.81-.898-.892a1.437 1.437 0 0 0-.194-.022c-.055-.455-.11-.909-.16-1.358.1-.127.326-.094.387-.266.061-.083.022-.221-.094-.227-.066-.028-.25-.033-.327-.033zm14.126-6.93c-.202.097-.45.367-.075.412.18-.007.593-.195.518-.367a.166.166 0 0 1-.118.05c-.107 0-.216-.095-.325-.095zm-1.478.067c-.248.06-.375.33-.06.39l.016.001c.182 0 .676-.22.27-.27-.068-.046-.136-.12-.226-.12zm1.973-1.883c.443.517.833 1.118.908 1.808.075.495.098.99.173 1.478-.353-.03-.248-.577-.18-.84.06-.518-.218-.998-.413-1.456-.135-.247-.262-.638-.608-.645-.382.067-.63.39-.878.668-.255-.255-.525-.533-.877-.638a.177.177 0 0 0-.061-.01c-.08 0-.172.035-.215.035-.036 0-.036-.026.043-.123.048-.168.147-.218.269-.218.179 0 .407.106.6.106a.42.42 0 0 0 .084-.008 2.801 2.801 0 0 0 1.156-.158zm-.12.57c.293.075.36.48.503.72.18.42.398.878.255 1.351-.112.225.03.51.015.675-.25.176-.47.547-.802.547a.474.474 0 0 1-.113-.014c-.33-.067-.495-.383-.75-.533-.185.178-.295.548-.599.548a.464.464 0 0 1-.137-.022c-.278-.06-.645-.03-.728-.368-.142-.345-.157-.728-.18-1.103a.243.243 0 0 0 .046.005c.152 0 .166-.177.18-.328.058-.22.215-.321.39-.321.118 0 .243.046.352.134.128.142.518.255.435.48-.037.135-.082.277-.127.42l.315.42c.03-.217.353-.397.165-.615-.03-.098-.143-.225-.128-.3.136-.24.316-.45.526-.63a.241.241 0 0 1 .172-.077c.2 0 .403.263.578.287.173-.188-.015-.263-.188-.36a.526.526 0 0 0-.365-.147.602.602 0 0 0-.49.266c-.143.086-.242.371-.367.371-.04 0-.081-.028-.128-.1-.23-.184-.504-.39-.804-.39a.642.642 0 0 0-.134.014c-.212.044-.403.474-.42.474-.008-.353.157-.669.255-1.014a.459.459 0 0 1 .447-.357c.13 0 .26.055.356.177.223.083.387.475.597.475a.2.2 0 0 0 .116-.04c.232-.247.42-.54.757-.645zm-1.065 5.207c.953.983 1.83 3.475 2.056 4.495-.368-.3-.87-.495-.983-.683-.12-.195-.45-2.093-1.073-3.812zm3.391-1.785c1.801 1.035 4.938 6.13 5.606 6.948-1.126-.713-2.236-1.433-3.444-2.019-1.696-.832-3.144-2.183-4.525-3.444 1.14-.382 1.958-1.028 2.363-1.485zm-1.868 6.468c.24.142.458.337.72.442-.157.39-.255.826-.577 1.133-.06.098-.147.129-.246.129-.17 0-.378-.092-.552-.092a.44.44 0 0 0-.035.001c.21-.525.525-.758.69-1.613zm.51-7.024c.046.094.104.125.165.125.081 0 .168-.053.24-.087.18.127.803.112.436.383-.233.315-1.476 1.174-2.34 1.326-.372.065.254.655.456.865 1.17 1.05 2.319 2.16 3.722 2.918.878.496 1.801.938 2.649 1.486.405.585.885 1.126 1.193 1.771-.308.09-.608.218-.923.293a2.168 2.168 0 0 1-.527.061c-.496 0-.994-.147-1.214-.384-.405-.428-.848-2.251-1.08-2.919-.034-.075-.08-.1-.131-.1-.102 0-.22.099-.277.099a.031.031 0 0 1-.028-.014.293.293 0 0 0-.29-.282c-.131 0-.253.096-.235.297-.045.473-.135.946-.36 1.373-.028.073-.085.101-.161.101-.213 0-.571-.22-.814-.28.097-.579-.69-3.535-3.002-6.011-.08-.088-.433-.459-.402-.459.004 0 .012.005.027.016.118.031.251.052.383.052.253 0 .502-.078.63-.314.02-.06.044-.082.072-.082.103 0 .259.3.423.3a.69.69 0 0 0 .385.115.79.79 0 0 0 .583-.266c.143-.128.278-.255.42-.383zm-.78-3.924c-.236.105-.649.21-1.02.21-.053 0-.107-.003-.158-.007a.603.603 0 0 1-.107.009c-.253 0-.525-.136-.769-.136a.466.466 0 0 0-.265.074c-.412.6-.788 1.268-.833 2.011-.082 1.426-.045 1.92 1.081 3.091.443 1.006 1.268 4.285 1.516 5.178.27.255-.338 1.65-.593 1.996-.139.191-.505.2-.898.2h-.129c-.353 0-.71.008-.932.145-.21.135-.285.638-.165.705.113-.172.338-.405.496-.427-.15.157.375.082.487.12.304.005.61.03.919.03.149 0 .298-.006.447-.023.068-.03.14-.075.171-.075.025 0 .025.027-.02.113.212.055.45.083.683.083.525 0 1.023-.14 1.132-.42a8.15 8.15 0 0 0 .585-1.299c.192.04.433.176.626.176a.284.284 0 0 0 .155-.04c.21-.144.427-.811.547-1.254.012-.046.074-.069.138-.069.06 0 .122.021.14.061.225.45.6 1.831.96 2.41.272.427.931.638 1.632.638.441 0 .899-.083 1.287-.249.488-.21.848-.165.743-.435-.165-.45-.45-.878-.75-1.26.435.27.87.547 1.305.817.036.131.127.183.219.183.177 0 .362-.193.18-.385-1.704-2.461-4.413-6.656-6.289-8.014a2.525 2.525 0 0 0-1.043-.563c-.127-.33-.09-.773-.165-1.148-.075-.743-.525-1.973-1.313-2.446zm8.289.459h.1q1.241 0 2.367 1.067l-.697.563q-.652-.622-1.704-.622t-1.704.622l-.696-.563q1.11-1.067 2.334-1.067zm.066 1.438q1.17.015 1.927 1.23h-3.868q.593-1.215 1.941-1.23zm0-1.897q-1.837.074-3.097 1.512l1.052.889q-.444.592-.548 1.111h5.172q-.104-.519-.549-1.097l.978-.889q-1.17-1.452-3.008-1.526zm9.507.23q.067 0 .127.03.103.052.147.177t0 .198q-.103.117-.206.125h-.03q-.092 0-.205-.037-.088.088-.205.22-.147.191-.397.602-.279.456-.411.647-.309-.177-.514-.177.925-1.145 1.197-1.439.271-.294.396-.33.052-.016.1-.016zm-1.988 2.24q.411.206.5.368.088.161.014.161-.073 0-.176.089-.074-.265-.338-.617zm-.103.427l.647 2.423q-.309 0-.647.235V5.147zm2.063-2.897q-.198 0-.418.194l-1.733 2.071q-.558-.088-.866-.617.205-.25.697-.705.492-.455.404-.602-.042-.088-.144-.088-.252 0-.87.544-.66.47-1.057.763-.205.191-.337.668-.133.478-.397 1-.264.52-.25.814.037.184.122.184.084 0 .216-.184.191-.323.456-.734.264-.411.66-.764.28-.19.53-.235.278.103.425.397v8.106q-.866.235-.896 1.131-.044.338.206 1.043.176.514.66.514-.322-1.219-.322-1.557.029-.675.587-.675.602 0 .631.675 0 .338-.308 1.557.485 0 .646-.514.25-.705.191-1.043.015-.896-.896-1.13V8.421q.456-.323 1.19-.426-.294-1.498-.58-2.056-.253-.494.233-.494.064 0 .141.009-.176-.69-.705-.881V4.5q.033-.003.066-.003.296 0 .64.238.22-.293.499-.778.293-.5.396-.631.103-.133.147-.147.084.03.159.03.187 0 .318-.185.184-.257.008-.499-.177-.242-.397-.272-.026-.003-.052-.003z"/><path d="M18.436.375v17.25m0-17.25h2.625m-2.625 17.25h2.625m0-17.25h35.236m-35.236 17.25h35.236m0-17.25h17.625m-17.625 17.25h17.625M58.06.375v17.25M61.584.375v17.25M63.347.375v17.25M65.11 2.1h8.812M65.11 5.55h8.812M65.11 2.1v3.45m1.762-1.725h7.05m-8.812 3.45h8.812m-8.812 3.45h8.812m-8.812-3.45v3.45M66.872 9h7.05m-8.812 3.45h8.812M65.11 15.9h8.812m-8.812-3.45v3.45m1.762-1.725h7.05" fill="none" stroke="#000"/></svg>