<svg xmlns="http://www.w3.org/2000/svg" width="69.503" height="18"><path d="M6.174.386c.221 0 .566.052.757.104.832.223-.005.968-.54.968a.513.513 0 0 1-.073-.005c-.353.074.06.199.502.199.272 0 .555-.047.681-.18.072-.077.131-.108.182-.108.185 0 .258.417.406.623.74.245 1.203.913 1.682 1.486 1.377 1.65 2.617 3.405 3.917 5.115-.357-.105-.743-.31-1.097-.48-1.62-.783-3.347-1.401-4.814-2.455-.732-.525-1.712-1.134-1.793-2.056-.061-.702 1.227-1.337 1.134-1.717-.011-.044-.043-.064-.09-.064-.274 0-1.077.688-1.288 1.09-.081.155-.14.217-.182.217-.146 0-.077-.757.014-.93.31-.589-.628-1.325-.1-1.664-.016.088.002.337.312.337.325 0 .305-.4.205-.453a.435.435 0 0 1 .185-.027zm.616 5.477c.254.9.626 1.766 1.065 2.59.217.405 1.13 1.049.485 1.377a.194.194 0 0 1-.052.007c-.257 0-.519-.495-.855-.517a12.843 12.843 0 0 0-.265-1.873c-.103-.505-.36-1.176-.378-1.584zm.705.597c.795.576 1.63 1.093 2.472 1.6.222.497.034 1.222.149 1.805-.538-.363-1.112-.378-1.457-1.066-.385-.766-1.019-1.494-1.164-2.34zm.226 3.6c.134.235.335.383.538.383.16 0 .32-.091.45-.304.186.205.23.926.23 1.325.002.411-.214.446-.465.446l-.155-.002a.93.93 0 0 0-.278.032.453.453 0 0 1-.138.02c-.197 0-.423-.095-.636-.095-.02 0-.04 0-.06.002.001-.52.36-1.225.514-1.808zm1.603-2.968c1.69.766 3.36 1.59 5.054 2.351.648.679 1.239 1.448 1.96 2.049.538.45-.155.358-.474.418-.244.046-.492.08-.738.116-.87-.87-1.745-1.738-2.58-2.641-.909-.982-2.145-1.538-3.222-2.293zm-.512 5.693c1.105 0 2.211.013 3.316.042.556.014 1.197-.023 1.695.164-.658.042-2.304.058-4.042.058a201.337 201.337 0 0 1-5.037-.05c-.51 0-.097-.173.188-.173a.55.55 0 0 1 .076.005c1.267-.03 2.535-.046 3.804-.046zm-4.862.743c.75.01 1.5.02 2.25.045.495.017.989.023 1.483.023 1.398 0 2.796-.05 4.192-.05.188 0 .375.001.562.003-1.161.634-2.421 1.17-3.766 1.214-.152.005-.3.008-.445.008-.76 0-1.443-.08-2.196-.351-.656-.236-1.506-.523-2.08-.892zm6.649 1.558a.144.144 0 0 0-.078.02c-.256.16.368 1.331.895 1.613.04.021.078.03.115.03.192 0 .33-.259.247-.445-.214-.48-.87-1.218-1.18-1.218zm-4.848.055c-.042 0-.105.026-.194.086-.432.29-1.443 1.067-.823 1.496a.22.22 0 0 0 .129.042c.224 0 .442-.354.556-.556.12-.21.574-1.068.332-1.068zm4.06.177c-.274 0 .026 1.476.502 1.79.031.022.07.031.109.031.106 0 .222-.069.242-.173.123-.637-.473-1.61-.846-1.647a.08.08 0 0 0-.008 0zm-3.278.017c-.05 0-.13.062-.244.216-.302.408-1.043 1.256-.436 1.571.04.021.078.03.114.03.254 0 .4-.478.49-.72.081-.222.268-1.097.076-1.097zm2.271.162c-.023 0-.043.012-.06.037-.245.368-.164 1.491.42 1.817a.196.196 0 0 0 .097.026c.172 0 .306-.25.276-.423-.07-.41-.517-1.457-.733-1.457zm-1.329-.011a.1.1 0 0 0-.058.023c-.391.291-1.017 1.466-.379 1.845.035.02.068.03.101.03.191 0 .35-.31.375-.504.04-.334.162-1.394-.039-1.394zm.655-.018a.08.08 0 0 0-.038.01c-.324.174-.62 1.573-.014 1.945a.175.175 0 0 0 .092.028c.164 0 .306-.252.306-.421-.002-.46-.123-1.562-.346-1.562zM6.352 0c-.205 0-.408.02-.598.054-.567.104-1.44.31-1.43.996a.711.711 0 0 1 .192-.028c.55 0 .663.789.553 1.27-.225.98.26 1.965.898 2.707.425 1.269.96 2.595.954 3.928-.003.556.408.592.256 1.158-.136.51-.373 1.566-.883 1.69a2.18 2.18 0 0 1-.182.007c-.323 0-.663-.056-.984-.056-.254 0-.497.036-.71.162-.444.264-.778.46-1.31.46l-.071-.001-.078-.002c-.895 0-1.953.472-2.118 1.411-.244 1.391-.044 2.827-.036 4.233.205.005.412.011.618.011.163 0 .325-.004.487-.016-.076-.844-.133-1.694-.079-2.539.039-.601-.113-1.44.465-1.781a.738.738 0 0 1 .383-.107c.506 0 1.005.499 1.472.712 1.306.596 2.697 1.036 4.147 1.036h.1c1.756-.025 3.375-.751 4.878-1.576a.616.616 0 0 1 .41-.148c.28 0 .562.17.622.463.262 1.292.154 2.632.067 3.94.157.012.315.015.473.015.156 0 .313-.003.47-.003.052 0 .105 0 .158.002.008-.911.089-1.823.047-2.733-.033-.721.107-1.55-.417-2.143-.68-.771-1.763-.76-2.704-.825a1.712 1.712 0 0 0-.117-.004c-.125 0-.257.01-.386.01a.973.973 0 0 1-.439-.08c-.294-.302-.66-.36-1.04-.36-.228 0-.462.021-.689.021a2.75 2.75 0 0 1-.22-.008c-.043-.588-.075-1.177-.107-1.766a.155.155 0 0 1 .111-.045c.294 0 .78.686 1.034.686.076 0 .13-.06.154-.217.094-.642-.155-1.343-.146-2.018h.016c.285 0 .766.368 1.053.617.898.779 1.67 1.717 2.513 2.566.334.38.681.803 1.163.803.13 0 .269-.031.42-.101.48-.223 1.5.065 1.609-.544-.462-.54-.994-1.018-1.47-1.547.58.274 1.144.678 1.747.941a.77.77 0 0 0 .24.078c.18 0-.489-.521-.668-.602-.665-.3.624-.188.098-.605-1.155-.915-2.466-1.648-3.699-2.473-.79-.998-1.506-2.067-2.3-3.068-.66-.774-1.221-1.636-1.941-2.356C8.895 1.783 8.245 1.66 8.2.937 7.858.252 7.09 0 6.352 0zm20.056 0c-.114 0-.229.014-.344.042-.231.057-.481.186-.751.386h-5.435V1.63h5.435c.27.2.52.328.75.385a1.442 1.442 0 0 0 .687 0c.226-.057.452-.185.679-.385h.209c.218.2.442.328.673.385a1.449 1.449 0 0 0 .692 0c.23-.057.477-.185.738-.385h5.487V.428H29.74c-.261-.2-.507-.329-.738-.386a1.449 1.449 0 0 0-.692 0 1.557 1.557 0 0 0-.673.386h-.21c-.226-.2-.452-.329-.678-.386A1.402 1.402 0 0 0 26.408 0zm2.459 6.03zm-7.126.486q-.17 0-.17.154 0 .222.392.29.428-.05.428-.376l-.086-.068zm.274.838q-.445 0-.445.273 0 .137.154.137h.564l.069-.068q0-.308-.342-.342zm6.046-.46q-.15 0-.303.007-2.222.094-4.598.094-.188 0-.24.12v.05q.052.12.24.12 2.547-.034 3.632-.094.362-.02.738-.02.752 0 1.561.08 1.83.393 2.744 1.3.914.905 1.547 2.743.632 1.837.803 2.094h.017q-1.008-4.034-2.615-5.308-1.496-1.186-3.526-1.186zm-1.226-.788q1.06 0 2.197.342 1.136.342 1.752.64.615.3 1.623 1.41 1.009 1.112 2.308 6.462h-.103q-.974-2.632-1.504-3.906-.53-1.273-1.521-2.333-.788-.842-1.835-.842-.27 0-.558.056-1.402.273-2.043.273-.64 0-1.393-.239 0-.154-2.137-.376-.598.017-.897.24-.299.222-.47.222-.547 0-2-.94v-.086q1.34-.787 2.023-.787h.028q.24 0 .479.206.24.205 1.008.205.513 0 1.077-.12 1.316-.427 1.966-.427zm-4.376-2.547l-.102.051.068.24q-.137.136-.103.341-.13-.07-.253-.07-.088 0-.174.036l-.188-.102-.085.085.17.171q.052.462.377.462-.154.222-.137.444l-.257.085.018.12.29-.068q.125.102.266.102.07 0 .144-.025.223-.077.223-.265.62.342 1.364.342h.071q-.427.427-.461.7-.076.005-.143.005-.423 0-.54-.184-.138-.214-.856-.214-.427.017-1.914.89-.359.085-.359.238v.308q0 .171.376.274 1.402.923 1.932.923.564 0 .76-.223.16-.18.664-.18.116 0 .25.01.172.29.616.7h-.07q-.761 0-1.383.36.017-.206-.222-.283-.08-.025-.152-.025-.144 0-.258.102l-.29-.085-.035.136.274.103q-.018.205.136.427-.325 0-.376.462l-.17.17.068.086.17-.136q.112.06.223.06.11 0 .222-.06-.034.205.12.341l-.069.24.086.068.154-.256q.031.005.06.005.16 0 .247-.16.14.14.28.14.1 0 .199-.07l.222.102.051-.103-.188-.085q.035-.274-.085-.325.205-.171.017-.376.314-.027.673-.027.537 0 1.173.061.274-.068.274-.41-.12-.53-.36-.992.992.376 1.53.376.539 0 1.325-.256-.188.479.017.65.992.41 1.641.837-.256.086-.154.342h-.016q-.125 0-.206.256H29.4l-.017.086.256.034q.088.176.288.176.071 0 .157-.022 0 .205.188.273l.034.291h.103l.05-.24q.206-.05.274-.256.12.205.393.205l.069.188.12-.034-.086-.222q.17-.427-.103-.581.223-.137.308-.325l.29.034.035-.136-.308-.052q-.068-.222-.316-.265-.05-.008-.092-.008-.17 0-.224.137-.41-.616-1.128-.958.598-.188.871-.342.223.052 1.171 1.035.949.982 2.197 4.777.495 1.556.923 1.556.376-.086.376-.342-.034-.188-.795-2.966-.76-2.778-1.641-4.025-.88-1.248-2.419-2.017-.068-.154-.41-.667.368.09.724.09.389 0 .763-.107-.051.205.163.325.106.06.211.06t.207-.06l.257.17.051-.119-.24-.154q.07-.205-.016-.478.05.013.095.013.237 0 .366-.372l.205-.12-.051-.103-.188.103q-.147-.122-.31-.122-.066 0-.134.02.085-.189-.035-.377l.137-.205-.085-.085-.205.205q-.064-.021-.119-.021-.123 0-.206.106-.137-.199-.319-.199-.068 0-.143.028l-.205-.153-.051.085.154.137q-.086.256.017.325-.24.136-.103.376-.786-.12-1.795-.462-.29 0-.359.342-.017.543.118 1.019-.963-.335-1.801-.335-.846 0-1.906.341.24-.444.359-.974 0-.359-.257-.41-.587.056-1.088.056-.417 0-.775-.039.274-.273.257-.803-.154.102-.274.102l-.205-.41q-.017.085-.29.376-.072-.142-.226-.142-.03 0-.065.005l-.137-.239z"/><path d="M26.62 12.549q.16 0 .33.072.382.162.382 2.57v2.304h-4.325q1.67-2.291 2.292-3.463.621-1.172.945-1.372.18-.111.376-.111zm-.183-.492h-.07q-.615.014-1.385 1.502-.77 1.49-3.05 4.441h5.905l-.013-3.314q-.065-2.214-.454-2.428-.366-.201-.933-.201zM39.48 0l-2.252 2.662h1.098l1.154-1.375 1.164 1.375 1.132-1.375 1.165 1.375 1.153-1.375 1.165 1.375 1.154-1.375 1.164 1.375 1.132-1.375 1.164 1.375 1.165-1.375 1.132 1.375 1.164-1.375 1.154 1.375h1.098L53.334 0 52.17 1.287 51.038 0l-1.165 1.287L48.71 0l-1.132 1.287L46.413 0l-1.154 1.287L44.094 0l-1.153 1.287L41.776 0l-1.132 1.287L39.48 0zm1.893 12.415v.423h-2.23v-.423zm-1.122.832q1.4 0 1.934.713.535.713.535 1.28-.013.885-.74 1.545-.725.66-1.729.66-1.016 0-1.743-.66-.726-.66-.726-1.531 0-.581.436-1.294.436-.713 2.033-.713zm-1.743-1.267v.99q-.475.277-.87.898-.397.62-.41 1.373 0 .884.733 1.789.732.904 2.29.97 1.545-.066 2.284-.97.74-.905.74-1.776-.014-.766-.41-1.393-.396-.627-.884-.904v-.977zm8.26-7.167q-.282 0-.282.332 0 .282.282.282.299-.017.299-.315 0-.3-.299-.3zm-1.095.216v.298l-.648.117q.3-.316.648-.415zm.033.398q.382.299.133.448-.382-.133-.565-.348l.432-.1zm1.162-.763q.78 0 1.245.597.464.598.498 1.843 1.211.248 1.61 1.095.064.548-.247.548h-.019q-.332-.017-.523-.183-.07-.06-.105-.06-.061 0-.02.185.067.29.731.705.664.415.108.689-.138.068-.294.068-.472 0-1.109-.624-.846-.83-.896-1.262-.05-.431.349-.796.237-.217.162-.217-.05 0-.245.1-.482.25-.507.73-.024.482.382 1.055.407.572 1.602 1.452.122.064.277.064.328 0 .802-.288.697-.423-.697-1.303.514-.133.53-.448.648.216 3.636 4.017.797.531.813.78-.016.232-.249.282-.05.01-.1.01-.189 0-.398-.143-.93.448-1.8.465l-.091.001q-.81 0-1.345-.283.547.481.381 1.012-.08.258-.122.258-.044 0-.044-.29 0-.565-1.444-1.08v.631q-.085.357-.135.357-.048 0-.064-.324-.1-.713-.473-1.535t-1.187-2.274q-.813-1.452-1.037-2.092-.224-.639-.208-1.186.017-.548-.224-.805-.24-.258-.14-.556.099-.3-.3-.565v-.282q.432-.348.897-.348zm3.153 9.56q.814.233.814.548l-.548 2.042q-.066.365-.448.365h-.664v-.033l.846-2.59v-.332zm-3.093-9.893h-.06q-.648 0-1.312.532-.381.132-.78.614.548.498.996.614.05.232.316.647.016 1.096.298 1.818.283.722 1.893 3.876.796 1.66.796 2.041 0 .581-.73 2.606 0 .116-.996.183-1.494.05-1.494.415 0 .216.2.216h4.415q.415-.332.464-.565.399.166.432.448.056.224.159.224.02 0 .04-.008.133-.05.133-.216-.116-.448-.581-.863l.531-2.24q1.61-.05 2.805-.515.222.05.406.05.369 0 .59-.2.332-.298-.133-.929-1.012-1.013-1.925-2.224-1.876-2.307-2.573-2.673-.232-.48-.556-.763-.323-.282-1.17-.697-.017-.98-.456-1.693-.43-.698-1.708-.698zM66.937.249a.47.47 0 0 1 .18.059c.18.081.127.208.05.286-.044.043-.086.073-.153.073a.558.558 0 0 1-.221-.064l-.596.956c-.043-.216-.083-.257-.342-.283l.827-.914c.134-.076.192-.113.255-.113zm-2.154 1.359a.98.98 0 0 1 .358.07l-.167.176-.326-.236a.909.909 0 0 1 .135-.01zm.629.245c.155.086.232.317.215.628l-.397-.426.182-.202zm-1.49.433a.208.208 0 0 0-.2.13.235.235 0 0 0 .23.143.832.832 0 0 0 .366-.117c-.162-.104-.294-.156-.395-.156zm.383-.595c.493.259.907.6 1.244 1.023a.845.845 0 0 1-.317.402.25.25 0 0 1-.133.05c-.07 0-.118-.055-.146-.167.172-.214.294-.201.27-.456-.017-.18-.123-.26-.322-.27a.38.38 0 0 0-.233.091c.043-.312-.16-.371-.609-.44a.499.499 0 0 1 .246-.233zm-3.86-.26V3.92l-.233-.272c-.242-.285-.363-.648-.363-1.088 0-.44.199-.817.596-1.127zm3.368.713c.112.017.483.037.61.13.026.18.061.334.184.334a.2.2 0 0 0 .061-.01c.074-.024.16-.04.246-.117.035 0 .07.021.104.065 0 .095-.112.237-.337.427v.013c.026.311.16.63.402.959a.8.8 0 0 1-.41.123.704.704 0 0 1-.277-.058.492.492 0 0 0 .013-.5c-.045-.082-.12-.124-.226-.124a.914.914 0 0 0-.37.105.34.34 0 0 1-.098.018c-.055 0-.092-.023-.11-.07.027-.112.01-.194-.05-.246.198-.026.297-.051.297-.077 0-.06-.104-.095-.31-.104.094-.12.042-.203-.156-.246.052-.181.194-.389.427-.622zm2.124 2.13c.14.057.27.124.39.202-.277.285-.446.818-.618 1.534a7.097 7.097 0 0 0-.484-.46l.712-1.276zm.363.85l.648 1.256-.971-.207c.103-.596.211-.946.323-1.05zm-6.14-.376c.078.095.173.177.285.246v1.917c-.397-.31-.596-.669-.596-1.075 0-.406.104-.769.311-1.088zm5.272-.622l.127.028-.65 1.16a.446.446 0 0 0-.204-.078.1.1 0 0 0-.03.004.497.497 0 0 0-.292.22.833.833 0 0 0-.103.376c-.011.103.051.19.187.265l-.2.357.33.219.248-.445c.334.087.61.18.757.237-.07.432-.087.73-.164.988l-1.274.382c.017-.602-.12-2.728-.935-3.2.303-.251.554-.37.882-.422.167.094.345.142.535.142.243 0 .505-.078.786-.233zm-4.3 3.77c.915.138 1.727.29 2.435.453-.596.363-1.2.834-1.814 1.412-.025-1.01-.233-1.632-.621-1.865zm4.3-.013c.268.449.083.989-.557 1.62-.466.232-.993.455-1.58.666-.587.212-1.006.512-1.257.9l-.53-.582c.854-.95 1.683-1.654 2.487-2.112a5.79 5.79 0 0 1 1.437-.492zM66.935 0c-.136 0-.276.069-.44.214L65.29 1.496a2.637 2.637 0 0 0-.636-.092c-.278 0-.485.072-.62.215-.225.238-.406.439-.545.603-.293.406-.406.62-.336.641.069.022.12.041.155.058.07.018.1.07.09.156-.034.103-.008.216.078.337l-.168.53c.026.096.086.143.181.143.052 0 .177-.138.376-.414.035-.078.138-.117.31-.117.087.052.092.177.014.376-.415.034-.808.207-1.179.518l-.92 1.334v.026c-.043 0-.483-.393-1.321-1.179V.745c-.838.458-1.257 1.05-1.257 1.775 0 .593.121 1.037.362 1.33-.15.108-.164.325-.038.652l.013.052c-.224.293-.337.716-.337 1.27 0 .725.42 1.303 1.257 1.735V5.292l.894 1.088c.105.124.215.186.332.186.152 0 .313-.105.484-.315.354-.424.604-.795.751-1.114.382.034.758 2.087.648 2.94a78.253 78.253 0 0 1-2.41-.427 2.488 2.488 0 0 0-.47-.053c-.225 0-.383.05-.475.15-.147.16-.173.4-.078.719l.726 2.02a.683.683 0 0 0-.143.726l-.997.428v.259h1.904l3.446-1.866-.091 1.555-.505.065v.246h.984l.04-.415.258-1.58c.026-.354-.017-.575-.13-.661a.227.227 0 0 0-.142-.048.526.526 0 0 0-.28.108c.403-.302.483-.884.241-1.744.003-.175.055-.495.156-.959l1.218.428a.93.93 0 0 0 .104.006c.3 0 .404-.179.31-.537-.458-1.287-.786-2.017-.984-2.19a13.022 13.022 0 0 0-.51-.236l1.002-1.797-.337-.182-1.029 1.834a4.211 4.211 0 0 0-.344-.11c-.216-.165-.195-.333.065-.506.259-.173.418-.395.479-.667.06-.272.045-.495-.045-.667-.091-.173-.167-.281-.227-.324l.13-.143c.138 0 .276.19.414.57l.725-1.217c.062.027.121.04.177.04.123 0 .23-.065.322-.196.134-.19.153-.384-.123-.583A.554.554 0 0 0 66.935 0zm-9.349 13.207V18h.801v-4.793zm5.509.006V18h.8v-4.787zm5.607 0V18h.801v-4.787z"/></svg>