<svg xmlns="http://www.w3.org/2000/svg" width="81.973" height="18"><path d="M16.433 2.933v4.845h-3.25V2.933zm-3.918-.683v6.196h4.602V2.25zM9.413 13.937q-.076 0-.147.023-.278.09-.245.27.028.152.248.152.04 0 .087-.005.303-.033.531-.245-.255-.195-.474-.195zm.141-.165q.59 0 1.82.703.618.32 1.355.32.355 0 .738-.075.965-.196 2.027-.343.361-.05.7-.05.657 0 1.23.189.866.286 1.438.368.572.081 1.814.147-.8.081-1.569.081-.768 0-1.815-.171-.523-.086-1.007-.086-.484 0-.93.086-.89.171-2.027.319-.284.036-.558.036-.823 0-1.559-.33-.714-.488-1.483-.488-.34 0-.69.095-.311-.016-.279-.343.18-.442.769-.458h.026zm.437-1.668q-.353 0-.66 1.08-.255-.953-.66-.953-.06 0-.124.02-.49.311.327 1.194-.654.376-.654.948t.964.638q.299-.078.583-.078.666 0 1.256.43.506.367 1.602.367.731 0 1.725-.163 1.22-.344 2.373-.344.437 0 .864.05 1.067.123 1.818.123.342 0 .617-.026 1.39-.032 1.39-.261-.376-.343-1.063-.458-1.455-.016-2.656-.507-.6-.245-1.473-.245-.873 0-2.017.245-.738.187-1.374.187-.872 0-1.552-.35-.703-.425-1.488-.703.654-.507.613-.842-.04-.335-.4-.351h-.01zm19.737-8.212q3.219.065 4.652.17.522.99.522 1.915t-.522 1.902q-1.433.118-4.652.17-3.218-.052-4.665-.17.417-.873.417-1.902 0-1.043-.417-1.916 1.447-.104 4.665-.17zm1.16 4.691v.6h-2.254v-.6q.567.013 1.13.013.564 0 1.124-.013zm.026 1.147q-.026 1.068-1.147 1.081-1.133-.013-1.185-1.081zm-2.32-7.48q-.286 0-.286.235v.95q-1.798 0-3.362.053-2.111.143-2.033.469.027.214.421.214.181 0 .44-.045.119-.018.223-.018.271 0 .44.123.457.82.457 1.746 0 .925-.456 1.733-.17.122-.441.122-.104 0-.224-.018-.25-.044-.429-.044-.404 0-.43.227-.08.312 2.032.456 1.564.052 2.984.104-.078.82-.104 1.068 0 .496.156.9t.964.742q.378.3.43.704v3.779h.782v-3.779q.052-.404.43-.704.808-.338.965-.736.156-.397.156-.906-.065-.768-.17-1.081 1.408-.04 2.972-.091 2.098-.144 2.032-.456-.027-.227-.43-.227-.179 0-.43.044l-.599.078q.417-.873.417-1.915 0-1.043-.417-1.903.26 0 .6.052.257.045.438.045.395 0 .421-.214.066-.326-2.032-.47-1.564-.051-3.375-.051v-.951q0-.235-.274-.235t-.274.235v.95h-1.72v-.95q0-.235-.273-.235zm25.675 4.62q.358 0 .358.375v2.88h-1.091l.358-3.034q.017-.221.375-.221zm.017-.46q-.87 0-.92.494-.358 3.22-.767 3.238l-7.909.29-.818-.034q-.92-.972-1.636-.972l-.528-.034q-1.449.273-1.739.273-.204 0-.204.272 0 .375.58.375.994-.158 1.526-.158.096 0 .178.005.29 0 .477.239-.332.411-1.488.411l-.182-.002q-1.313-.034-2.318-.341-.495 0-.495.58.052.528 3.699.545l1.619-.17 9.238-.052 2.59.034V7.245q-.017-.836-.903-.836zm6.611-3.572q.619 0 .875.558h-1.734q.256-.558.86-.558zm-.346 1.312v1.222h-1.81q-.302-1.222-.106-1.222zm2.624 0q.196 0-.106 1.222h-1.81V4.15zm-.241 1.87q-.332 1.63-.589 3.372-.256 1.742-.203 3.13.053 1.387.294 2.519h-3.062q.241-1.132.294-2.52.053-1.387-.203-3.13-.257-1.741-.589-3.37zm-2.037-3.77q-1.13 0-1.644 1.146h-2.277q-.287 0-.287.377t.287.377h.407q.347 0 .377.166.634 2.746.845 3.922.407 2.247.407 3.77 0 1.51-.256 2.376-.257.868-.257.988-.014.378.195.378h4.422q.21 0 .195-.378 0-.12-.257-.988-.256-.867-.256-2.375 0-1.524.407-3.771.211-1.176.845-3.922.03-.166.347-.166h.437q.287 0 .287-.377t-.287-.377h-2.277q-.513-1.146-1.66-1.146zm9.275.45c.805 0 1.813.415 2.301.903.427.426.483.992.499 1.518h-5.577c.016-.526.072-1.092.499-1.518.488-.488 1.472-.902 2.278-.902zm0-.45c-.956 0-1.984.441-2.587 1.044-.618.618-.688 1.432-.688 2.04v.238h6.55v-.237c0-.61-.047-1.423-.665-2.04-.603-.604-1.655-1.045-2.61-1.045zm-1.73 6.594q.402 0 1.061.22 1.129.376 2.339 1.572 1.21 1.196.967 2.218-.241 1.021-.94 1.532-.578.422-1.394.422-.171 0-.354-.019-1.048-.107-1.8-1.653-.754-1.546-.7-2.755.054-1.21.377-1.425.156-.112.444-.112zm-.11-.933q-.554 0-.899.238-.726.511-.806 2.097-.081 1.586.914 3.441.994 1.855 2.419 2.03.272.033.53.033 1.09 0 1.916-.598 1.022-.74 1.277-2.097.256-1.357-1.089-2.876-1.344-1.519-2.903-2.016-.79-.252-1.36-.252z"/><path d="M8.22.375c-9.625 0-9.625 17.25 0 17.25m0-17.25h65.503M8.22 17.625h65.503M81.41.375v17.25M73.723.375c9.625 0 9.625 17.25 0 17.25" fill="none" stroke="#000"/></svg>