<svg xmlns="http://www.w3.org/2000/svg" width="62.744" height="18"><path d="M9.777 3.093q1.51.22 1.579 1.382v8.382q-.706-.843-2.536-1.184l.957-8.58zM9.35 2.25L8.22 12.272q2.52.289 3.136 1.8v1.678h.752V4.475q0-1.883-2.757-2.225zM27.767 4.133V5.99H14.085V4.133zM14.135 2.25v1.406h-.527v2.812h14.636V3.656h-.427V2.25h-.477v1.406h-1.18V2.25h-.477v1.406h-1.18V2.25h-.477v1.406h-1.155V2.25h-.502v1.406h-1.155V2.25h-.477v1.406h-1.18V2.25h-.477v1.406H17.9V2.25h-.477v1.406H16.27V2.25h-.477v1.406h-1.18V2.25zM15.403 8.316l-1.795 2.123h.875l.92-1.097.928 1.097.902-1.097.929 1.097.92-1.097.928 1.097.92-1.097.929 1.097.902-1.097.928 1.097.929-1.097.902 1.097.928-1.097.92 1.097h.876l-1.796-2.123-.928 1.026-.902-1.026-.929 1.026-.928-1.026-.902 1.026-.929-1.026-.92 1.026-.928-1.026-.92 1.026-.929-1.026-.902 1.026-.928-1.026zM25.902 12.906q-.301.302-.301 1.104 0 .82.3 1.121h-9.935q.301-.301.301-1.12 0-.803-.301-1.105zm-11.86-.618q-.434 0-.418.284-.016.334.418.334h1.088q.401.302.401 1.104 0 .82-.401 1.121h-1.07q-.452 0-.452.284 0 .335.434.335h13.783q.419 0 .419-.335 0-.284-.435-.284h-1.07q-.402-.301-.402-1.12 0-.803.401-1.105h1.087q.419 0 .419-.334 0-.284-.419-.284zM33.797 2.25c-.09 0-.096.283-.224.701-.146.476-.254 1.472-.592 1.665a.298.298 0 01-.152.039c-.1 0-.202-.038-.313-.038a.409.409 0 00-.127.02c-.158.05-.242.297-.409.326-.69.12-1.637.075-2.165.123-.34.03.567.698 1.473.698h.039c.188-.005.387-.013.584-.013.33 0 .658.024.927.135.265.109.576.425.573.735l-.11 9.109h1.018l-.051-10.289c-.002-.276.795-.464.9-.702.181-.415.088-2.247-.205-2.493a.016.016 0 00-.01-.004c-.132 0-.379 1.92-.766 2.333-.04.043-.118.062-.185.062-.073 0-.133-.022-.122-.062.247-.838.346-2.061-.04-2.329a.077.077 0 00-.043-.016zM42.125 2.678q.377 0 .711.3.334.3.334.728 0 .377-.283.703-.282.325-.78.325-.445 0-.736-.334t-.291-.694q0-.394.291-.71.291-.318.754-.318zm-1.164 3.276q-.168 0-.224.168.037.185.255.185.184 0 .5-.134-.339-.22-.53-.22zm-.207-.21q.652.052 1.114.446.146-.145.255-.145.084 0 .148.085.145.197-.232.583-.377.385-.462 1.293-.069-.342-.146-.54-.068-.174-.39-.174-.043 0-.09.003l-.034.001q-.369 0-.385-.54l-.257-.137q.137-.274.274-.429.137-.154.205-.445zm.82-.648q.163 0 .363.04.788.163 1.147.635.36.47.403 1.336.043.865-.009 2.938h-.257l-.034-1.456q-.068-.685-.54-.703h-.012q-.46 0-.544 1.285h-.24q0-1.799.3-2.107.3-.308.42-.642t-.112-.54q-.139-.123-.311-.123-.115 0-.246.054-.377-.274-.96-.36.154-.357.633-.357zm1.085 3.243l.014.001q.206.043.154 2.647-.05 2.604-.565 4.112l.377.223h-4.711l.976-.411q-.497-2.176-1.113-3.204-.617-1.028-.274-1.26.084-.057.176-.057.277 0 .612.529l2.004 2.707h.497q.12-3.495.754-5.174v1.045h.84q.065-1.158.26-1.158zm-.534-6.089q-.668.017-1.08.463-.41.445-.41.993 0 .48.222.754-.062.25-.175.25l-.022-.002q-.128-.025-.145-.162-.017-.137 0-.48.051-.514-.309-.651-.103-.02-.184-.02-.135 0-.21.054-.12.069-.085.172.057.07.161.07l.044-.002q-.051.274.069.6.12.29.257.582.156.252.37.252.092 0 .195-.046-.188.085-.36.685.017.12-.282.548-.3.429-.06.506.24.077.222.59l-.53 1.354q-.149.148-.292.148-.039 0-.077-.01-.034-.01-.063-.01-.127 0-.168.18.231.193.44.193.331 0 .605-.484l.634-1.216q.03-.004.06-.004.334 0 .334.552-.754 1.388-.891 4.763l-2.056-2.758q-.36-.294-.684-.294-.186 0-.361.097-.48.265-.531.582-.052.317.54 1.413.59 1.097 1.019 2.793l-1.114.463.069.582h6.373l-.805-.874q.48-2.175.394-4.471h.616V6.773q-.068-.6-.29-1.054-.224-.454-.772-.694.377-.17.531-.428.223.428 1.405 1.148.069-.137-.171-.48-.309-.24-.617-.53-.274-.24-.36-.635.069-.205.035-.394 0-.617-.446-1.028-.445-.41-1.045-.428zM48.396 2.25l-2.152 2.152v.707l2.683-2.682.177-.177zm3 0l-5.152 5.152v.707l5.683-5.682.177-.177zm3 0l-8.152 8.152v.707l8.25-8.25V2.25zm.098 2.902l-8.25 8.25v.707l8.25-8.25v-.707zm0 3l-7.42 7.421-.178.177h.708l6.89-6.89v-.708zm0 3l-4.42 4.421-.178.177h.708l3.89-3.89v-.708zm0 3l-1.42 1.421-.178.177h.708l.89-.89v-.708z"/><path d="M8.22.375c-9.625 0-9.625 17.25 0 17.25M8.22.375h46.274M8.22 17.625h46.274M62.182.375v17.25M54.494.375c9.625 0 9.625 17.25 0 17.25" fill="none" stroke="#000"/></svg>