<svg xmlns="http://www.w3.org/2000/svg" width="41.124" height="18"><path d="M15.117 4.63c-.511.04-.794.295-.847.766.067.51.35.78.847.807.497-.027.76-.296.786-.807-.04-.47-.302-.726-.786-.766zm.06-1.694c.363 0 .7.067 1.009.201a2.659 2.659 0 011.371 1.361c.134.303.202.622.202.959 0 .35-.068.675-.202.978a2.567 2.567 0 01-2.38 1.523c-.363 0-.702-.065-1.018-.192a2.426 2.426 0 01-.817-.535 2.621 2.621 0 01-.544-.796 2.38 2.38 0 01-.202-.978c0-.337.067-.656.202-.958.134-.303.315-.572.544-.807.229-.235.5-.42.817-.555a2.574 2.574 0 011.018-.201zm-.04-.686c-.444 0-.86.084-1.25.252-.39.168-.726.397-1.009.686a3.36 3.36 0 00-.675 1.008 3.053 3.053 0 00-.253 1.24c0 .444.085.857.253 1.24.168.384.393.717.675.999a3.2 3.2 0 002.259.928c.444 0 .857-.084 1.24-.253a3.36 3.36 0 001.008-.675c.29-.282.518-.615.686-.998.168-.384.252-.797.252-1.24 0-.444-.084-.858-.252-1.24a3.268 3.268 0 00-1.694-1.695 3.053 3.053 0 00-1.24-.252zM21.603 13.543V15.3H8.67v-1.756zm-12.885-1.78v1.33H8.22v2.657h13.834v-2.658h-.404v-1.328h-.45v1.328h-1.116v-1.328h-.45v1.328h-1.116v-1.328h-.45v1.328h-1.092v-1.328H16.5v1.328H15.41v-1.328h-.451v1.328h-1.115v-1.328h-.451v1.328h-1.115v-1.328h-.451v1.328h-1.092v-1.328h-.45v1.328H9.168v-1.328zM28.012 4.254c.197.135.183.209.162.29-.026.104-.345.175-.49.175-.04 0-.068-.006-.07-.018 0-.094.155-.34.398-.447zm-1.638 2.15c-.202 0-.303.107-.303.323 0 .27.121.405.364.405h.02c.284 0 .52-.108.709-.324v-.121c0-.095-.79-.284-.79-.284zm2.621-1.636c.296.24-.243.918-.563 1.61l-.111.237c.558-.354.848-1.042.848-1.042.135.215-.305.799-.17.972.148.527.753 1.162-.607 2.456-.177.108-2.2 1.188-2.362 1.188-.121 0-.21-.094-.506-.364l.607-.486v-.141l-.02-.02h-.121c-.203 0-.46.128-.77.384a5.65 5.65 0 01-.552-.66c.251-.199.353-.336.337-.52.038-.229-.115-.265-.233-.265-.055 0-.102.008-.119.008v.162c-.04.08-.128.148-.263.202-.054 0-.081-.182-.081-.182 0-.095.216-.392.648-.891 1.188-1.458 2.105-2.2 2.888-2.2l.177.013c-.3.189-.161.507-.161.507.314-.277.824-.85 1.134-.968zm.824.984h.006c2.05 1.97 2.362 3.309 2.374 7.802l-3.474.055-.048-3.613c0-.243.053-.535.269-.657 1.456-1.125.718-2.832.623-3.022-.037-.432.132-.565.25-.565zM28.069 3.8c-.12 0-.39 0-.661.295-.242.263-.32.759-.788.928-.468.32-.778.652-1.074.958-1.188 1.296-1.586 1.747-1.6 2.005-.947.772.076 1.23.386 1.408 1.012 1.174.84 1.091 1.273 1.282.157.042.247.078.327.078.087 0 .161-.041.294-.16.149 0 1.741-.768 1.741-.768.176 0 .25.579.25 1.902-.016.91-.111 2.41-.006 2.41h.006l.04.06h4.597l.02-.02-.06-1.337c-.095-1.673.584-5.876-3.307-8.045.046-.271-.172-.568-.448-.568-.138 0-.29.075-.43.264-.025-.326-.166-.667-.56-.692z"/><path d="M8.22.375c-9.625 0-9.625 17.25 0 17.25M8.22.375h24.654M8.22 17.625h24.654M40.561.375v17.25M32.874.375c9.625 0 9.625 17.25 0 17.25" fill="none" stroke="#000"/></svg>