<svg xmlns="http://www.w3.org/2000/svg" width="66.247" height="18"><path d="M15.98 2.4q.131 0 .253.085.213.148.2.367-.08-.155-.204-.155-.112 0-.26.129-.137-.165-.256-.165-.104 0-.194.126.026-.232.264-.341.101-.046.198-.046zm-.298.4q.103 0 .275.206.19-.167.293-.167.063 0 .093.064.077.167-.078.309-.154-.052-.321-.064-.052-.005-.105-.005-.106 0-.217.017-.129-.154-.026-.308.034-.052.086-.052zm.113.496q.068 0 .136.006.283.026.54.142l-.283.038-.09.18-.386-.025-.064-.193-.27-.09q.212-.058.417-.058zm-.07.47l.335.025.012.206-.386-.026.039-.206zm-.867-.064q.055 0 .114.018.225.071.302.586-.425.734-.476 1.622-.169-.095-.415-.095-.054 0-.113.005.18-.991.49-1.532-.348-.257-.18-.457.123-.147.278-.147zm.146 2.31zm1.887-2.15q.179 0 .288.187.13.219-.231.437.193.592.206 1.584-.119-.031-.225-.031-.159 0-.29.07.09-.915-.193-1.713.154-.489.38-.528.033-.005.065-.005zm-1.243.315l.463.039q.412.682.335 1.918-.23-.061-.458-.095-.198-.053-.412-.053h-.012q-.318.002-.56.027.117-1.22.644-1.836zm-1.185 2.446q-.077 0-.077.09 0 .078.077.078.09 0 .103-.078-.013-.09-.103-.09zm0-.038q.142 0 .142.128 0 .103-.142.142-.064-.013-.154-.064.038-.206.154-.206zm.32-.136q-.084 0-.178.007.116.064.039.167-.065-.103-.18-.103-.207 0-.207.27.116.09.11.168-.007.077-.032.103.077.09.167.463.051 0 .064-.038-.013-.386.013-.528.129-.232.328-.238h.018q.188 0 .31.135.13.142.084.322-.045.18-.56.399v.026q.798-.206.734-.708-.057-.445-.71-.445zm.375-.135q.49 0 .56.618.071.618-1.01.824.18.077.296.283.116.206.129.425-.054.017-.103.017-.104 0-.187-.075-.122-.11-.315-.547-.266-.747-.656-.747H13.73q.024-.097.08-.097.031 0 .074.033.037-.059.124-.059.065 0 .16.033-.194-.193-.181-.373l.022.001q.084 0 .107-.091l.01.001q.063 0 .286-.117.244-.129.746-.129zm-4.994 1.03L9.108 9.635l-.412-.308 1.468-1.983zm4.532 1.365q.076 0 .166.064-.334.232-.309 1.171H14.4q-.026-.888.11-1.107.079-.128.187-.128zm1.183-2.292q.464.013 1.004.908.541.894.541 2.62h-.399q-.013-1.365-1.171-1.365v1.364h-.258V8.026q.734-.553.283-1.609zm-4.183 3.85q.424 0 .54.424h-.54q-.438 0-.438-.425zm3.57-1.37q.029 0 .06.005v1.326h.798V8.902q.025-.004.048-.004.428 0 .428 1.33-.154 3.514-.489 4.415l.283.644h-4.248l.888-.387q-.45-1.918-.99-2.825-.541-.908-.239-1.114.075-.05.154-.05.244 0 .535.475l1.776 2.394h.438l.103-3.552q0-1.332.455-1.332zm.718-6.647q-.175 0-.362.132-.412.29-.103.817l-.283.077-.013.116.334.116.052.18-.077.283-.142.168q-.038-.477-.405-.599-.103-.034-.194-.034-.236 0-.399.227-.225.316.136.599-.31.67-.515 1.79.155-.03.294-.03.11 0 .209.018-.099.036-.162.082-.277.2-.264.251-.027-.027-.064-.027-.032 0-.071.02-.084.046-.071.149-.36.128-.36.798.154-.083.234-.083.02 0 .036.005.257 0 .695 1.03-.09.078-.251.296-.16.22-.16.76v.837h.32q0 .708-.09 2.883l-1.686-2.304q-.24-.837-.669-.837h-.013V8.284q0-.438-.18-.554-.49-.283-.49-.63.014-.477.49-.477.373 0 .45.31.078.308.207.463.108.126.19.126.036 0 .067-.023.103-.09.032-.174-.07-.084-.174-.213 0-.746-.772-.76-.785 0-.785.735 0 .476.515.823.154.142.128.374V9.97h-.115l-1.198-3.244L8.22 9.558l.142.206.206-.27.141.116-.193.27.18.129.206-.258.129.09-.142.31.232.077 1.184-2.69.889 2.432h-.18q-.503 0-.052.322-.052.515.244.54-.115.451.406 1.423t.843 2.362l-.94.528.078.605h5.496l-.437-1.107q.373-1.686.386-4.403l.72-.012q-.012-2.266-.636-3.257-.242-.384-.53-.618.147-.059.315-.059.216 0 .466.098-.026-1.133-.22-1.854.4-.206.22-.56-.153-.3-.444-.3-.053 0-.11.01-.373.065-.49.528l-.102-.18-.026-.296.077-.168.348-.064.013-.116-.27-.116q.373-.489.019-.836-.193-.19-.404-.19zM20.815 3.093q1.511.22 1.58 1.382v8.382q-.707-.843-2.536-1.184l.956-8.58zm-.425-.843l-1.131 10.022q2.52.289 3.136 1.8v1.678h.751V4.475q0-1.883-2.756-2.225zM26.203 3.093q1.51.22 1.579 1.382v8.382q-.706-.843-2.536-1.184l.957-8.58zm-.425-.843l-1.132 10.022q2.521.289 3.136 1.8v1.678h.752V4.475q0-1.883-2.756-2.225zM34.72 2.7l-.047 5.269-2.777.047-.023-5.291L34.72 2.7zm.475-.45l-3.773.024.024 6.217 3.678-.072.07-6.169zM33.308 12.879c.806 0 1.814.414 2.302.902.427.426.483.992.498 1.518h-5.576c.016-.526.071-1.092.498-1.518.488-.488 1.473-.902 2.278-.902zm0-.451c-.955 0-1.984.441-2.586 1.044-.618.618-.688 1.432-.688 2.04v.238h6.549v-.237c0-.61-.047-1.423-.665-2.04-.602-.604-1.654-1.045-2.61-1.045zM39.964 2.772q.696 0 .696.917 0 .806-.696 1.596-.696-.79-.696-1.596 0-.917.696-.917zm0 3.525q.49 0 .49 1.059 0 .6-.49 1.107-.49-.506-.49-1.107 0-1.06.49-1.06zm0 3.193q.49 0 .49 1.06 0 .6-.49 1.106-.49-.506-.49-1.107 0-1.059.49-1.059zm0-7.24q-1.265 0-1.265 1.439-.015.9.42 1.414.434.514.387.688-.554.648-.554 1.565 0 .759.648 1.628-.648.648-.648 1.565 0 .759.648 1.613.08.205-.442.964t-1.075 2.624h.695q.348-1.233.617-1.763.269-.53.569-.861.316.332.577.861.26.53.609 1.763h.71q-.52-1.865-1.066-2.624-.546-.759-.45-.964.632-.854.632-1.613 0-.917-.601-1.565.6-.87.6-1.628 0-.917-.537-1.565-.047-.174.38-.688.426-.513.426-1.414 0-1.439-1.28-1.439zM55.655 2.869q-.3.301-.3 1.104 0 .82.3 1.12H45.72q.301-.3.301-1.12 0-.803-.3-1.104zm-11.86-.619q-.434 0-.417.284-.017.335.418.335h1.087q.402.301.402 1.104 0 .82-.402 1.12h-1.07q-.452 0-.452.285 0 .334.435.334h13.783q.418 0 .418-.334 0-.284-.435-.284h-1.07q-.402-.302-.402-1.121 0-.803.402-1.104h1.087q.418 0 .418-.335 0-.284-.418-.284zM45.156 13.628l-1.795 2.122h.875l.92-1.097.929 1.097.902-1.097.928 1.097.92-1.097.929 1.097.92-1.097.928 1.097.902-1.097.929 1.097.928-1.097.902 1.097.929-1.097.92 1.097h.875l-1.795-2.122-.929 1.025-.902-1.025-.928 1.025-.929-1.025-.902 1.025-.929-1.025-.92 1.025-.928-1.025-.92 1.025-.928-1.025-.902 1.025-.929-1.025z"/><path d="M8.22.375c-9.625 0-9.625 17.25 0 17.25M8.22.375h49.777M8.22 17.625h49.777M65.684.375v17.25M57.997.375c9.625 0 9.625 17.25 0 17.25" fill="none" stroke="#000"/></svg>