<svg xmlns="http://www.w3.org/2000/svg" width="183.534" height="18"><path d="M161.646 0l-.112.113V.82l.643-.643.177-.177zm3 0l-3.112 3.113v.707l3.643-3.643.177-.177zm3 0l-6.112 6.113v.707l6.643-6.643.177-.177zm3 0l-9.112 9.113v.707l9.643-9.643.177-.177zm3 0l-12.112 12.113v.707L174.177.177l.177-.177zm3 0l-15.112 15.113v.707L177.177.177l.177-.177zm3 0l-17.823 17.823-.177.177h.708L180.177.177l.177-.177zm3 0l-17.823 17.823-.177.177h.708L183.177.177l.177-.177zm.888 2.113l-15.71 15.71-.178.177h.708l15.18-15.18v-.707zm0 3l-12.71 12.71-.178.177h.708l12.18-12.18v-.707zm0 3l-9.71 9.71-.178.177h.708l9.18-9.18v-.707zm0 3l-6.71 6.71-.178.177h.708l6.18-6.18v-.707zm0 3l-3.71 3.71-.178.177h.708l3.18-3.18v-.707zm0 3l-.71.71-.178.177h.708l.18-.18v-.707zm2-17l-2 2v.707l2-2V.113zm0 3l-2 2v.707l2-2v-.707zm0 3l-2 2v.707l2-2v-.707zm0 3l-2 2v.707l2-2v-.707zm0 3l-2 2v.707l2-2v-.707zm0 3l-2 2v.707l2-2v-.707zM137.646 0l-.112.113V.82l.643-.643.177-.177zm3 0l-3.112 3.113v.707l3.643-3.643.177-.177zm3 0l-6.112 6.113v.707l6.643-6.643.177-.177zm3 0l-9.112 9.113v.707l9.643-9.643.177-.177zm3 0l-12.112 12.113v.707L150.177.177l.177-.177zm3 0l-15.112 15.113v.707L153.177.177l.177-.177zm3 0l-17.823 17.823-.177.177h.708L156.177.177l.177-.177zm3 0l-17.823 17.823-.177.177h.708L159.177.177l.177-.177zm.888 2.113l-15.71 15.71-.178.177h.708l15.18-15.18v-.707zm0 3l-12.71 12.71-.178.177h.708l12.18-12.18v-.707zm0 3l-9.71 9.71-.178.177h.708l9.18-9.18v-.707zm0 3l-6.71 6.71-.178.177h.708l6.18-6.18v-.707zm0 3l-3.71 3.71-.178.177h.708l3.18-3.18v-.707zm0 3l-.71.71-.178.177h.708l.18-.18v-.707zm2-17l-2 2v.707l2-2V.113zm0 3l-2 2v.707l2-2v-.707zm0 3l-2 2v.707l2-2v-.707zm0 3l-2 2v.707l2-2v-.707zm0 3l-2 2v.707l2-2v-.707zm0 3l-2 2v.707l2-2v-.707zM113.646 0l-.112.113V.82l.643-.643.177-.177zm3 0l-3.112 3.113v.707l3.643-3.643.177-.177zm3 0l-6.112 6.113v.707l6.643-6.643.177-.177zm3 0l-9.112 9.113v.707l9.643-9.643.177-.177zm3 0l-12.112 12.113v.707L126.177.177l.177-.177zm3 0l-15.112 15.113v.707L129.177.177l.177-.177zm3 0l-17.823 17.823-.177.177h.708L132.177.177l.177-.177zm3 0l-17.823 17.823-.177.177h.708L135.177.177l.177-.177zm.888 2.113l-15.71 15.71-.178.177h.708l15.18-15.18v-.707zm0 3l-12.71 12.71-.178.177h.708l12.18-12.18v-.707zm0 3l-9.71 9.71-.178.177h.708l9.18-9.18v-.707zm0 3l-6.71 6.71-.178.177h.708l6.18-6.18v-.707zm0 3l-3.71 3.71-.178.177h.708l3.18-3.18v-.707zm0 3l-.71.71-.178.177h.708l.18-.18v-.707z"/><path d="M137.534.113l-2 2v.707l2-2V.113zm0 3l-2 2v.707l2-2v-.707zm0 3l-2 2v.707l2-2v-.707zm0 3l-2 2v.707l2-2v-.707zm0 3l-2 2v.707l2-2v-.707zm0 3l-2 2v.707l2-2v-.707zM109.887 0c.335 0 .67.026.994.066.448.113.218.626-.18.626a.476.476 0 0 1-.081-.008c-.84.097-1.872.15-2.506.626-.841.916-.463 2.821-.561 3.725-.007.05-.01 3.653-.01 5.48a6.145 6.145 0 0 1 2.634-.586c.402 0 .802.04 1.188.117.441.231-.076.528-.422.528a.454.454 0 0 1-.115-.013c-1.226.133-2.62.461-3.243 1.602-.061.206-.023.277.07.277.207 0 .68-.342.947-.342.014 0 .028 0 .04.003a7.535 7.535 0 0 1 1.58-.169 6.8 6.8 0 0 1 1.149.095c.42.278-.096.534-.438.534a.532.532 0 0 1-.105-.01c-1.251.151-2.636.49-3.243 1.633-.007 1.27 0 2.11-.033 3.278.014.36-.22.538-.456.538-.236 0-.474-.176-.475-.526.009-1.15.09-2.161-.06-3.277-.304-1.253-2.477-1.445-3.827-1.754-.294-.347.285-.475.659-.475.055 0 .107.003.15.008.172-.013.347-.02.521-.02.882 0 1.771.175 2.557.58.032-.755-.711-1.19-1.244-1.493-.84-.361-1.765-.397-2.643-.59-.313-.273.18-.501.521-.501a.58.58 0 0 1 .125.012 7.01 7.01 0 0 1 .648-.031c.902 0 1.804.183 2.614.582-.016-2.851-.063-5.61.02-8.308.065-.834.545-1.6 1.354-1.849.58-.264 1.227-.358 1.87-.358z"/><path d="M104.646 0l-2.01 2.011v.707l2.54-2.541.178-.177zm3 0l-5.01 5.011v.707l5.54-5.541.178-.177zm3 0l-8.01 8.011v.707l8.54-8.541.178-.177zm.888 2.113l-8.899 8.898v.707l8.899-8.898v-.707zm0 3l-8.899 8.898v.707l8.899-8.898v-.707zm0 3l-8.899 8.898v.707l8.899-8.898v-.707zm0 3l-6.71 6.71-.178.177h.708l6.18-6.18v-.707zm0 3l-3.71 3.71-.178.177h.708l3.18-3.18v-.707zm0 3l-.71.71-.178.177h.708l.18-.18v-.707z"/><path d="M113.569.078l-2.035 2.035v.707l2.035-2.035V.078zm0 3l-2.035 2.035v.707l2.035-2.035v-.707zm0 3l-2.035 2.035v.707l2.035-2.035v-.707zm0 3l-2.035 2.035v.707l2.035-2.035v-.707zm0 3l-2.035 2.035v.707l2.035-2.035v-.707zm0 3l-2.035 2.035v.707l2.035-2.035v-.707zM85.892 2.99q-.557 0-1.087.606 4.369 5.2 5.46 5.81.815.457 1.435.457.21 0 .399-.053.74-.208 1.586-.234h.042q.828 0 1.817.988h.13q-.702-1.638-1.963-2.34-1.261-.702-7.397-5.148-.213-.085-.422-.085zM93.623.622q-.066 0-.133.01v6.683q2.054 1.196 2.834 3.354-1.196-8.268-1.677-9.204Q94.214.62 93.623.62zm5.355 10.468q.081 0 .154.138.13.247-.234.689-.208-.546-.052-.741.069-.086.132-.086zm-.036-.372q-.153 0-.33.237-.39.52.234 2.08.702-1.352.429-1.976-.149-.34-.333-.34zm-6.804 2.577v.39q.286-.026.442-.182-.052-.078-.208-.208zm-.598.884l-2.418.338-.494.884q.832-.234 1.833-.624 1-.39 1.079-.598zm5.33-.364l-.468.234-.156 1.118.416 1.274h.65l-.442-1.274v-1.352zm-1.118.39l-.442.13-.156.832.416 1.274h.65l-.442-1.274-.026-.962zm-1.534.156l-.156.806.416 1.274h.65l-.442-1.274v-.78l-.468-.026zm.994-3.234q-.415 0-.89.1-1.404.3-1.768 1.418h-1.092l-.416-.676q-5.512 1.274-6.215 4.602 1.509-.832 3.173-1.118l.728-1.456 2.886-.39-.078-.702h.988q1.092.9 2.228.9.243 0 .489-.042 1.39-.234 1.82-.95.429-.714-.455-1.3-.585-.386-1.398-.386zM93.366 0q.948 0 1.489.658.663.806 1.235 4.238L97 10.85q.442.468.676.52h.312q.026-.65.494-1.196.416-3.978-.364-6.968l.312-.598q1.118 3.38.546 7.592h.078q1.794-4.03.52-7.592l.312-.468q1.664 3.796-.364 8.242.572 1.248.117 2.054-.455.806-.56 1.508l-.181.13q-.702-1.04-.806-1.794h-.26q-.026.598-.338 1.248l-.182 1.638.442 1.274h2.262v.624H93.49v-.624h.546l-.416-1.274-.026-.962q-.468-.156-.702-.364-.338.312-.754.312.026.26-.104.442-1.04.806-3.718 1.404l-.91 1.768q0-.434-.27-.434-.085 0-.198.044l.728-1.3q-1.508.338-2.288.858-.417.442.052 1.066-1.04-.442-1.17-1.248.415-3.926 7.046-5.46l.468.78h.416q.338-1.092 2.678-1.508-.522-.388-1.285-.388-.414 0-.9.115-.491.116-.96.116-.844 0-1.613-.376-1.196-.585-6.085-6.461.901-1.136 1.906-1.136.329 0 .669.122l6.318 4.524V.034Q93.152 0 93.366 0z"/><path d="M74.525.375c9.625 0 9.625 17.25 0 17.25" fill="none" stroke="#000"/><path d="M54.316.929c-.636 0-.955.344-.955 1.033V6.35h18.221V1.985c0-.704-.325-1.056-.976-1.056-.494 0-1.112.553-1.853 1.66-.74 1.114-1.485 1.671-2.234 1.671-.733 0-1.4-.468-1.998-1.404-.599-.937-1.093-1.506-1.482-1.707a1.31 1.31 0 0 0-.595-.154c-.187 0-.37.048-.55.143-.367.193-.853.762-1.46 1.706-.598.944-1.265 1.416-1.998 1.416-.771 0-1.523-.557-2.257-1.671-.733-1.107-1.354-1.66-1.863-1.66zM54.338 0c.786 0 1.55.565 2.29 1.695.741 1.13 1.344 1.695 1.808 1.695.442 0 1.037-.565 1.785-1.695C60.969.565 61.711 0 62.444 0c.838 0 1.617.565 2.335 1.695.711 1.13 1.291 1.695 1.74 1.695.457 0 1.055-.565 1.796-1.695C69.056.565 69.82 0 70.605 0c1.28 0 1.92.662 1.92 1.985V7.28h-9.06c-1.108.003-1.005.005-1.028.005l-.959-.005h-9.06V1.962c0-1.308.64-1.962 1.92-1.962zM68.16 14.172c-1.075 0-2.419.552-3.07 1.202-.569.57-.643 1.324-.664 2.025h7.435c-.02-.701-.095-1.456-.664-2.025-.65-.65-1.964-1.202-3.038-1.202zm0-.601c1.274 0 2.645.588 3.448 1.392.824.824.917 1.909.917 2.72V18h-8.732v-.316c0-.812.062-1.897.886-2.721.804-.804 2.206-1.392 3.48-1.392zm-10.77-2.547l.02.01-3.625 6.946h-1.367l3.625-6.956zm3.037.01l1.366.01L58.17 18l-1.367-.01 3.625-6.955z"/><path d="M42.73.375v17.25M50.418.375c-9.625 0-9.625 17.25 0 17.25m0 0" fill="none" stroke="#000"/><path d="M34.761.597a2.12 2.12 0 0 0-.692.109c.031.223.169.569.953.773-.73-.053-1.206-.113-1.452-.307-.09.2-.137.427-.158.556a.297.297 0 0 1-.207.237c-.624.191-1.173 1.112-1.7 1.763-.95 1.173-1.771 2.48-2.688 3.733l1.27-.622c1.182-.622 2.395-1.11 3.407-1.877.589-.49 1.172-.996 1.39-1.641.076-.497-.296-1.074-.767-1.279a.297.297 0 1 1 .238-.545c.377.164.7.458.904.817a1.986 1.986 0 0 0-.075-.448.297.297 0 0 1-.012-.104c.01-.184.041-.313.082-.422.04-.109.085-.206.157-.459a.297.297 0 0 1 .105-.153 1.546 1.546 0 0 0-.527-.125C34.946.6 34.905.6 34.864.599a.258.258 0 1 1-.103-.002zm-1.193 5.432c-.606.466-1.253.873-1.888 1.28a13 13 0 0 1-.047 1.321c.207-.135.434-.236.697-.3.39-.636.82-1.22 1.082-1.842.054-.129.105-.29.156-.46zm.248 1c-.273.549-.62 1.04-.928 1.529.059.04.112.08.155.121l.027.027a1.72 1.72 0 0 1 .613-.454c-.01-.348.047-.768.133-1.222zm-2.88.047a25.922 25.922 0 0 0-.588.297c-.78.38-1.56.772-2.349 1.148-.556.67-1.157 1.293-1.735 1.92l1.044.175L29.87 7.83a.297.297 0 0 1 .04-.036 18.5 18.5 0 0 1 1.026-.718zm2.592 2.009c-.058.066-.112.14-.162.222a.298.298 0 0 1-.429.087c-.125-.09-.2-.177-.266-.244l-.077 1.413c.1-.006.201-.013.296-.013.167 0 .314.022.398.108.1-.078.28-.1.504-.1.058 0 .118.002.18.005l-.444-1.478zm5.418.999c-.451.062-.686.323-.703.783h1.394c0-.46-.23-.721-.69-.783zm-7.86-2.39a16.38 16.38 0 0 0-.798.56l-2.403 2.613h2.456c.171-.19.519-.365.776-.365.074 0 .14.014.192.046.082-.007.168-.01.256-.01.14 0 .286.007.434.016l.082-1.506c-.224.115-.407.282-.625.542a.297.297 0 0 1-.52-.246c.1-.544.142-1.093.15-1.65zm6.24 3.745l.266.465h1.248l.253-.465zm-4.516 0v2.51l1.727-2.51zM34.754 0a3.878 3.878 0 0 1 .272.01c.695.044 1.215.325 1.408.768a.298.298 0 0 1-.34.408l-.025-.006-.03.007-.108.029c-.055.168-.096.269-.12.332a.541.541 0 0 0-.042.2c.154.552.094 1.107.036 1.389-.095.466-.383.977-.76 1.46a.295.295 0 0 1-.015.108 21.24 21.24 0 0 0-.548 2.027c-.152.708-.233 1.387-.192 1.684a.297.297 0 0 1-.223.33l-.019.005.527 1.75c.086-.013.173-.018.26-.018.256 0 .509.041.712.041a.865.865 0 0 0 .183-.016.314.314 0 0 1 .068-.007c.212 0 .657.13.787.366h1.1c.062-.797.482-1.235 1.261-1.315.788.08 1.196.518 1.222 1.315v.572h-.53l-.545 1.01h-1.767l-.531-1.01h-1.568l-2.404 3.493V18h-.571v-6.561h-4.516v-.41l-.1.109a.297.297 0 0 1-.268.092l-1.74-.292a.298.298 0 0 1-.172-.492c.216-.242.436-.48.656-.716l-1.657 1.078a.296.296 0 0 1-.411-.087.297.297 0 0 1 .087-.411l1.344-.876a.292.292 0 0 1-.076-.09.315.315 0 0 1-.02-.237.305.305 0 0 1 .048-.093c.055-.076.084-.088.124-.119l.13-.094c.096-.065.207-.137.301-.2a4.156 4.156 0 0 0 .217-.156l2.378-1.672.008-.005c.806-1.13 1.568-2.316 2.457-3.414.433-.535.938-1.524 1.812-1.894.048-.262.157-.68.484-.997C33.69.119 34.2 0 34.754 0zM2.646 0L0 2.646v.708L3.177.177 3.354 0zm3 0L0 5.646v.708L6.177.177 6.354 0zm3 0L0 8.646v.708L9.177.177 9.354 0zm3 0L0 11.646v.708L12.177.177 12.354 0zm3 0L0 14.646v.708L15.177.177 15.354 0zm3 0L0 17.646V18h.354L18.177.177 18.354 0zm3 0L2.823 17.823 2.646 18h.708L21.177.177 21.354 0zM22 1.646L5.823 17.823 5.646 18h.708L22 2.354v-.708zm0 3L8.823 17.823 8.646 18h.708L22 5.354v-.708zm0 3L11.823 17.823l-.177.177h.708L22 8.354v-.708zm0 3l-7.177 7.177-.177.177h.708L22 11.354v-.708zm0 3l-4.177 4.177-.177.177h.708L22 14.354v-.708zm0 3l-1.177 1.177-.177.177h.708l.646-.646v-.708z"/></svg>