<svg xmlns="http://www.w3.org/2000/svg" width="27.546" height="18"><path d="M4.983.885q3.633.442 0 6.73-3.632-6.288 0-6.73zm0-.885q-5.03.35-.698 8.08H0v1.095h4.238V18h1.444V9.128h4.284V8.08H5.682Q10.012.326 4.983 0zM13.512.715c-.193 0-.666.228-.222.23.072 0 .232.022.35.022.142 0 .224-.03.029-.166-.047-.032-.09-.084-.15-.086h-.007zm.074-.153l.016.001c.343.079.613.367.968.466.3.084.791.195.689.633-.137.584-.53 1.15-.407 1.762.077.383.504.416.849.416l.163-.001c2.253-.018 4.042-.113 5.477-.113 2.353 0 3.756.256 4.694 1.525 1.556 2.105 1.024 4.21.637 6.869.108-1.569.628-4.04-.984-6.173-.681-.901-1.836-1.28-2.898-1.548-.488-.123-1.14-.166-1.859-.166-1.66 0-3.677.229-4.85.229-.28 0-.51-.013-.678-.045-.452-.087-.775-.644-.735-1.105.053-.613.536-1.182.354-1.8-.08-.275-.32-.337-.581-.337-.187 0-.385.031-.542.04-.17.008-.338.032-.501.032a.884.884 0 01-.627-.219c-.382-.337.662-.466.815-.466zm.052-.55a3.183 3.183 0 00-1.462.428c-.45.26-.089.767.215.99.28.206.595.398.947.398a.964.964 0 00.208-.022c.18-.04.498-.115.714-.115.128 0 .22.026.23.1.08.61-.57 1.35-.307 2.053.214.578.706 1.102 1.364 1.15.288.02.575.03.863.03 1.515 0 3.022-.246 4.537-.272h.144c2.903 0 4.364 1.515 4.697 2.457.322.912.554 1.868.473 2.839-.098 1.168-.27 2.347-.174 3.516.084 1.032.442 2.032.687 3.032.057.234.223.35.378.35.169 0 .326-.139.315-.418-.051-1.289-.348-2.39-.314-3.579.03-1.021.291-2.005.351-3.03.07-1.188.401-5.19-2.84-6.355-.933-.335-2.116-.426-3.37-.426-1.485 0-3.068.127-4.455.127-.518 0-1.009-.018-1.457-.066.179-.636.52-1.19.441-1.854-.063-.524-.636-.72-1.072-.84-.406-.11-.682-.494-1.113-.494z"/><path d="M18.008 9.08c.892 0 2.007.458 2.547.998.473.472.534 1.098.552 1.68h-6.171c.017-.582.079-1.208.551-1.68.54-.54 1.63-.998 2.521-.998zm0-.5c-1.057 0-2.195.49-2.862 1.156-.684.684-.762 1.585-.762 2.259v.262h7.248v-.262c0-.674-.051-1.575-.735-2.259-.667-.667-1.831-1.155-2.889-1.155zM23.479 16.368c.112 0 .167.405.167.517 0 .112-.055.517-.167.517h-10.73c-.13 0-.196-.405-.196-.517 0-.112.065-.517.196-.517zm-11.066-.587c-.298 0-.447.601-.447 1.104 0 .503.15 1.104.447 1.104h11.401c.28 0 .42-.6.42-1.104 0-.503-.14-1.104-.42-1.104z"/></svg>