<?xml version="1.0" standalone="no"?>
<!DOCTYPE svg PUBLIC "-//W3C//DTD SVG 20010904//EN"
 "http://www.w3.org/TR/2001/REC-SVG-20010904/DTD/svg10.dtd">
<svg version="1.0" xmlns="http://www.w3.org/2000/svg"
 width="1280.000000pt" height="1106.000000pt" viewBox="0 0 1280.000000 1106.000000"
 preserveAspectRatio="xMidYMid meet">
<metadata>
Created by potrace 1.15, written by Peter Selinger 2001-2017
</metadata>
<g transform="translate(0.000000,1106.000000) scale(0.100000,-0.100000)"
fill="#9e9e9e" stroke="none">
<path d="M5830 11049 c-1268 -63 -2682 -335 -4135 -798 -855 -272 -1225 -413
-1425 -543 -87 -57 -181 -152 -214 -216 -106 -210 -65 -432 190 -1026 52 -120
129 -283 173 -361 43 -79 88 -176 101 -216 44 -147 135 -312 217 -394 56 -57
248 -403 273 -493 49 -175 154 -368 255 -467 89 -88 176 -249 199 -370 35
-184 126 -396 227 -529 55 -73 73 -86 121 -86 34 0 35 -2 141 -188 88 -154
112 -206 133 -283 49 -185 135 -360 241 -491 37 -47 63 -70 85 -76 29 -7 44
-28 139 -193 82 -140 109 -196 114 -234 30 -207 147 -467 276 -608 37 -41 51
-50 89 -54 l45 -5 166 -287 c164 -282 167 -288 193 -400 44 -191 123 -363 232
-508 57 -76 94 -103 141 -103 27 0 41 -21 233 -342 310 -519 647 -1075 698
-1153 124 -187 253 -249 419 -200 29 9 233 105 455 215 222 110 406 200 409
200 6 0 125 -244 174 -355 43 -97 141 -345 160 -405 10 -30 20 -59 23 -64 6
-10 66 139 114 282 l31 92 51 -48 c28 -26 76 -66 106 -89 67 -50 224 -148 218
-136 -4 9 -237 481 -366 743 -48 96 -88 177 -90 181 -2 6 192 100 1753 851
1107 533 2231 1099 2830 1425 439 239 1028 581 1073 623 33 31 29 81 -9 125
-40 46 -80 66 -143 74 -48 6 -51 8 -62 46 -17 56 -17 239 0 329 53 276 193
579 463 999 l51 78 198 92 c110 50 200 92 202 93 2 1 -3 12 -10 24 -16 26
-173 146 -768 585 -2860 2111 -4819 3655 -5767 4542 l-141 133 -59 -1 c-32 -1
-132 -6 -223 -10z m-332 -168 c335 -84 581 -154 857 -245 l140 -46 180 -156
c925 -805 2451 -2002 4450 -3492 609 -454 610 -454 617 -496 8 -51 8 -894 -1
-994 l-6 -74 -525 -247 c-1055 -497 -2331 -1115 -3630 -1758 l-685 -340 -225
255 c-1929 2186 -3281 3865 -4541 5642 -303 426 -775 1119 -767 1124 2 1 111
37 243 79 1297 412 2349 645 3485 772 113 12 206 23 208 24 1 0 91 -21 200
-48z m-4268 -1741 c0 -5 -15 -10 -32 -10 -70 -1 -194 -30 -255 -60 -120 -59
-224 -179 -286 -330 -140 -340 -78 -834 142 -1124 40 -53 48 -68 35 -73 -37
-14 -144 140 -203 292 -67 171 -86 281 -86 490 1 216 18 301 97 465 43 89 62
117 127 180 87 87 184 140 296 164 82 17 165 20 165 6z m545 -740 c0 -11 -19
-17 -75 -23 -137 -15 -241 -62 -341 -154 -340 -315 -369 -1067 -59 -1523 21
-31 45 -62 54 -69 23 -19 21 -51 -4 -51 -50 0 -193 245 -250 428 -109 355 -85
741 63 1026 101 193 248 315 439 366 86 23 173 23 173 0z m595 -810 c0 -21 -9
-24 -93 -35 -133 -17 -274 -91 -383 -199 -84 -84 -119 -135 -178 -253 -84
-169 -124 -335 -133 -554 -12 -303 54 -572 192 -778 85 -126 82 -120 65 -131
-28 -18 -39 -10 -91 63 -93 132 -163 296 -201 472 -25 116 -34 359 -19 486 46
394 239 724 506 866 90 48 205 82 278 82 50 1 57 -1 57 -19z m650 -895 c22
-27 4 -42 -67 -54 -361 -63 -635 -377 -733 -841 -28 -132 -38 -380 -21 -501
35 -244 123 -463 250 -623 34 -43 39 -71 15 -80 -28 -11 -55 16 -131 129 -84
125 -146 279 -185 458 -19 87 -22 133 -22 307 0 174 3 220 22 307 101 468 362
796 707 887 115 30 147 32 165 11z m738 -1042 c4 -27 -10 -34 -122 -58 -160
-35 -370 -168 -487 -308 -156 -187 -256 -395 -314 -652 -25 -111 -31 -390 -11
-508 32 -190 97 -349 203 -500 60 -86 64 -112 18 -112 -25 0 -38 11 -83 70
-241 320 -298 811 -146 1262 93 280 281 536 496 679 129 86 315 156 403 151
33 -2 41 -6 43 -24z m8434 -225 c-219 -352 -358 -681 -397 -938 -28 -184 -12
-318 55 -455 21 -44 36 -83 33 -88 -3 -5 -46 -28 -96 -52 -51 -23 -447 -219
-882 -435 -434 -216 -884 -439 -1000 -495 -115 -56 -489 -241 -830 -410 -341
-169 -759 -376 -930 -460 -170 -84 -645 -317 -1053 -519 -409 -201 -745 -366
-747 -366 -2 0 -34 44 -71 97 -74 105 -282 323 -351 368 l-42 27 -238 -122
c-131 -68 -239 -124 -241 -125 -2 -2 30 -8 70 -15 131 -21 214 -77 321 -217
50 -67 141 -212 136 -217 -8 -8 -591 -287 -639 -306 -150 -59 -266 13 -375
235 -54 110 -67 164 -67 280 1 312 261 633 812 1002 393 263 1107 658 1895
1048 781 387 2053 1007 2775 1353 585 280 1900 900 1912 901 4 1 -19 -41 -50
-91z m-7608 -944 c36 -36 17 -56 -79 -79 -433 -108 -794 -530 -906 -1057 -30
-140 -36 -368 -14 -498 32 -194 101 -363 209 -513 31 -43 56 -86 56 -96 0 -26
-25 -44 -49 -36 -52 16 -195 257 -250 420 -48 144 -65 258 -64 445 0 254 47
448 169 695 141 288 356 513 609 637 81 41 128 58 235 87 51 14 67 13 84 -5z"/>
</g>
</svg>
