<svg xmlns="http://www.w3.org/2000/svg" width="1706.667" height="1401.333" version="1.0" viewBox="0 0 1280 1051"><path class="bubbla" fill="#9e9e9e" d="M685.586 1.1c129.6 6.4 254.4 43.3 354 104.7 123.2 76 204.5 182.4 230.9 302.2 9.8 44.4 11.6 92.1 5 131-16.8 99.7-85.3 207.9-191.6 302.8l-16.3 14.4.6 4.2c3.2 23 17.2 47.5 39 68.6 19.4 18.7 40.4 33.6 92.4 65.5 42.9 26.3 67.1 43.2 76.5 53.5l3 3.3-18-.7c-119.8-4.3-245.9-41-325-94.8-7.2-4.8-14.8-10.2-17.1-11.9l-4-3-19.8 4.6c-53.6 12.3-119.8 24.2-173.5 31-61.3 7.8-108.4 8.4-169.1 2.4-207.8-20.5-386.2-117.1-482.7-261.4-38.3-57.2-60.8-118.9-68.5-187.5-1.6-15.1-1.6-62.2 0-76.5 3.4-28.8 9.9-58.9 17.7-82.3 38.7-115.6 129-214.9 258-283.6 117.8-62.7 263.6-93.6 408.5-86.5z"/></svg>