<svg xmlns="http://www.w3.org/2000/svg" width="37.834" height="18"><path d="M35.01 0c.12 0 .239.005.357.016l.056-.001c1.34 0 2.495 1.293 2.397 2.622.072 1.044-.145 2.077-.202 3.116a.467.467 0 0 1-.435.25.739.739 0 0 1-.606-.327c-.316-.44-.176-1.01-.048-1.491.141-.857.193-1.812-.278-2.581-.303-.407-.803-.61-1.302-.61-.543 0-1.085.241-1.372.722-.46.674-.336 1.655.254 2.212.569.673 1.422 1.117 1.787 1.951.232.841.037 1.718.116 2.574.074 3.123.113 6.246.172 9.37-.16.135-.35.16-.547.16-.115 0-.232-.009-.347-.009-.093 0-.186.006-.274.026-.425-.218-.391-.764-.36-1.168.15-3.276.041-6.556.123-9.833-.009-.374.112-.803-.282-1.016-.786-.763-1.623-1.523-2.106-2.525-.491-1.455.609-3.197 2.132-3.382.252-.051.508-.076.765-.076zM23.289 5.45q-.228 0-.472.104-.546.232-.546 3.678v3.298h6.188q-2.39-3.28-3.28-4.956-.889-1.677-1.352-1.964-.256-.16-.538-.16zm.263-.703l.1.001q.88.019 1.982 2.15 1.102 2.13 4.363 6.355h-8.449l.019-4.743q.092-3.169.648-3.474.524-.289 1.337-.289zM1.845.903c-.619 0-.928.335-.928 1.004v4.267H18.63V1.93c0-.685-.316-1.027-.95-1.027-.48 0-1.08.538-1.8 1.614-.72 1.083-1.445 1.625-2.172 1.625-.713 0-1.36-.455-1.943-1.366-.582-.91-1.062-1.463-1.44-1.659-.197-.1-.39-.15-.58-.15-.181 0-.36.047-.534.139-.357.188-.83.741-1.419 1.66-.582.917-1.23 1.376-1.943 1.376-.75 0-1.48-.542-2.194-1.625C2.943 1.44 2.34.903 1.845.903zM1.866 0c.764 0 1.507.55 2.227 1.648.72 1.098 1.306 1.648 1.757 1.648.43 0 1.008-.55 1.736-1.648C8.313.549 9.034 0 9.746 0c.816 0 1.573.55 2.271 1.648.691 1.098 1.255 1.648 1.692 1.648.444 0 1.026-.55 1.746-1.648C16.175.549 16.918 0 17.682 0c1.244 0 1.866.643 1.866 1.93v5.146H10.74c-1.078.003-.978.006-1 .006-.017 0-.111-.002-.932-.006H0V1.907C0 .636.622 0 1.866 0zm13.316 14.172c-1.074 0-2.418.552-3.069 1.202-.569.57-.643 1.324-.664 2.025h7.435c-.021-.701-.095-1.456-.665-2.025-.65-.65-1.963-1.202-3.037-1.202zm0-.601c1.274 0 2.645.588 3.449 1.392.824.824.917 1.909.917 2.72V18h-8.732v-.316c0-.812.062-1.897.886-2.721.803-.804 2.206-1.392 3.48-1.392zM1.225 10.68V18H0v-7.32z"/></svg>