<svg xmlns="http://www.w3.org/2000/svg" width="22" height="928.914"><path d="M12.618.325q-.06 0-.114.04-.216.117.138.57.373.373.462.629.088.255.186.678.099.423.433 1.21l.452.137h1.632q-.236-.511-.55-.924-.767-.708-1.14-.944-.374-.236-.6-.403-.227-.167-.482-.639-.236-.354-.417-.354zm1.026 3.657l.315.688q.459-.046.85-.046.782 0 1.293.184.098-.669.295-.826zm2.261 1.435q.374.02.394.354-.02.393-.394.393-.373 0-.393-.393.02-.334.393-.354zm-.845-.334q-.845 0-.983.786-.138.787.904 1.082-.354.668 0 .845.125.063.244.063.218 0 .415-.21.305-.325.54-.924.237-.6.708-.6h-.334q.216-.334.157-.511l-.034.002q-.168 0-.221-.18-.374-.353-1.396-.353zm-1.16.059q-.295 0-.845 1.268-.551 1.268-1.79 2.34-1.238 1.071-1.995 2.605-.757 1.533-2.96 3.362 3.854-1.829 4.837-2.261.983-.433 3.185-2.025 1.259-.924 1.259-1.475 0-.432-.099-.747v-.02q-1.002 0-1.002-1.002-1.357-.669-.59-2.045zm.55 6.036q-.373 1.789-1.848 3.952.14.11.305.11.389 0 .914-.622 0-.983.708-3.44zm-.648.629q-1.16.924-2.615 1.75v1.868q.511-.394 1.022-.472 1.396-2.281 1.593-3.146zm-.217 3.853q-.267.34-.551.34-.258 0-.53-.28l-.098 1.73q.187-.042.357-.042.312 0 .567.14.343-.115.603-.115.097 0 .183.017l-.53-1.79zm-.61-3.715l-5.878 2.968q-1.14 1.278-2.182 2.419v.02l1.475.235 2.929-3.165q.845-.688 3.657-2.477zM12.705 0h.036q.236.01.491.404.06.177.246.393.187.216.54.433.355.216.512.344.157.127.53.462.315.255.453.413.315-.197.53-.482.217-.285.237-.521.02-.236-.05-.374-.068-.137-.216-.167-.04-.008-.08-.008-.105 0-.205.057-.137.079-.118.276.04.176.256.216.059-.025.096-.025.05 0 .061.044.04.256-.196.276l-.052.002q-.2 0-.332-.14-.147-.157-.127-.53.137-.414.432-.453.054-.007.107-.007.24 0 .473.145.285.177.315.55.03.374-.266.757-.295.384-.649.64.276.353.57.884h.846q-.511.55-.61 1.553l.04-.001q.35 0 .295.335.55.158.55 1.042-.183-.107-.343-.107-.046 0-.09.009-.235 0-.383.55-.147.55-.639 1.22v.02q.118.235.118.746t-.904 1.475q-.905 3.106-.885 4.541 0 .177-.255.217l.648 2.162q.053-.003.108-.003.274 0 .61.082.192.047.393.047.22 0 .452-.057.256-.063.503-.063.179 0 .353.034.275.052.437.052.08 0 .133-.013.511.118.57.767-.34-.197-.52-.197-.09 0-.139.05-.147.147-.58.147h-5.72q-.374 0-.59-.158-.073-.052-.171-.052-.197 0-.498.21-.02-.63.668-.806.39.144.703.144.241 0 .438-.085l.098-1.947q-.538.745-.94.745-.172 0-.318-.135.137-1.2.137-2.202l-.55.334q-.472.216-2.074 2.045-1.537 1.753-1.835 1.753-.013 0-.023-.004l-1.868-.393q-.295-.098-.118-.295l1.474-1.67q-1.376.884-2.064 1.179.334-.374 1.12-.944l-.392.138q-.236-.04-.197-.374 3.42-2.477 4.345-4.266.924-1.79 2.172-2.91 1.249-1.12 1.858-2.517.374-.884.767-1.199L11.6.64l.432-.236 1.023 2.221-.099-.452q-.118-.472-.255-.708-.138-.235-.276-.334Q12.13.7 12.13.463q0-.236.177-.354Q12.49 0 12.704 0zm2.633 23.34c.095 0 .101.3.238.744.155.506.27 1.563.628 1.768a.316.316 0 0 0 .162.042c.107 0 .215-.04.333-.04.043 0 .088.005.134.02.168.054.257.316.434.347.734.128 1.739.08 2.3.13.36.033-.602.741-1.565.741h-.04c-.2-.004-.411-.014-.62-.014-.352 0-.7.026-.986.144-.28.116-.612.451-.608.781l.117 9.674h-1.082l.055-10.927c.002-.294-.845-.493-.956-.746-.192-.441-.094-2.386.217-2.647a.017.017 0 0 1 .011-.005c.14 0 .402 2.04.814 2.478.042.045.125.066.197.066.076 0 .14-.024.128-.066-.261-.89-.367-2.19.044-2.473a.082.082 0 0 1 .045-.017zm-11.565 0c.74 0 1.39.544 1.39 1.244v13.093h-.905V24.584c0-.343-.302-.454-.491-.454-.199 0-.505.139-.505.56v8.605h-.905V24.69c0-.7.694-1.35 1.416-1.35zm12.69 23.03c-.782 0-1.761.403-2.235.876-.414.415-.468.964-.484 1.475h5.415c-.015-.51-.07-1.06-.484-1.475-.474-.473-1.43-.875-2.212-.875zm0-.437c.928 0 1.927.429 2.512 1.014.6.6.668 1.39.668 1.981v.23h-6.36v-.23c0-.59.046-1.38.646-1.981.585-.585 1.606-1.014 2.534-1.014zm-5.364-6.684q.087 0 .21.106.481.649.518 1.854-.148.945-.667 2.668.185 1.39.278 3.818.074.815-.445 1.056-1.538.408-3.892.408-2.372 0-3.891-.408-.538-.24-.464-1.056.093-2.428.278-3.818-.519-1.723-.667-2.668.037-1.205.519-1.854.122-.106.21-.106.125 0 .18.218-.13.37-.242.722-.148.445-.11.834.036.63.12 1.029.083.398.342.398l.028.001q.436 0 .436-1.168 0-.427-.111-1.038.095-.162.205-.162.104 0 .22.143.056.445.075.983.074.815-.39 2.298.167 2.094.167 4.188 1.26.204 3.095.26 1.816-.056 3.077-.26 0-2.094.166-4.188-.463-1.483-.389-2.298.019-.538.074-.983.117-.143.221-.143.11 0 .206.162-.112.611-.112 1.038 0 1.168.437 1.168h.027q.26 0 .343-.4.083-.398.12-1.028.037-.389-.111-.834-.111-.352-.241-.722.054-.218.18-.218zm7.926 11.481q.075 0 .178.09.408.55.44 1.571-.126.801-.566 2.262.158 1.178.236 3.235.063.691-.377.896-1.303.345-3.298.345-2.01 0-3.298-.345-.456-.205-.393-.896.079-2.057.236-3.235-.44-1.46-.566-2.262.032-1.02.44-1.57.103-.09.178-.09.106 0 .152.184-.11.314-.204.613-.126.377-.095.706.032.534.102.872.071.338.291.338h.023q.37 0 .37-.99 0-.361-.095-.88.081-.137.175-.137.088 0 .187.122.047.377.062.832.063.691-.33 1.948.142 1.775.142 3.55 1.068.172 2.623.22 1.539-.048 2.607-.22 0-1.775.141-3.55-.392-1.257-.33-1.948.016-.455.063-.832.1-.122.187-.122.094 0 .175.138-.095.518-.095.88 0 .99.37.99l.023-.001q.22 0 .29-.338.071-.338.103-.872.031-.33-.095-.706-.094-.299-.204-.613.046-.185.152-.185zm-9.26 0q.075 0 .178.09.408.55.44 1.571-.126.801-.566 2.262.157 1.178.236 3.235.063.691-.377.896-1.304.345-3.298.345-2.01 0-3.298-.345-.456-.205-.393-.896.078-2.057.236-3.235-.44-1.46-.566-2.262.032-1.02.44-1.57.103-.09.178-.09.106 0 .152.184-.11.314-.204.613-.126.377-.095.706.032.534.102.872.071.338.291.338h.023q.37 0 .37-.99 0-.361-.095-.88.081-.137.175-.137.088 0 .187.122.047.377.062.832.063.691-.33 1.948.142 1.775.142 3.55 1.068.172 2.623.22 1.539-.048 2.607-.22 0-1.775.141-3.55-.392-1.257-.33-1.948.016-.455.063-.832.1-.122.187-.122.094 0 .175.138-.095.518-.095.88 0 .99.37.99l.023-.001q.22 0 .29-.338.071-.338.103-.872.031-.33-.095-.706-.094-.299-.204-.613.046-.185.152-.185z"/><path d="M21.607 20.59H.393m21.214 0v2.75M.393 20.59v2.75m21.214 0v35.396M.393 23.34v35.396m21.214 0v18.857M.393 58.736v18.857m21.214-16.971H.393m21.214 3.771H.393m21.214 1.887H.393m19.093 1.885v9.428m-4.243-9.428v9.428m4.243-9.428h-4.243m2.121 1.885v7.543m-4.243-9.428v9.428m-4.242-9.428v9.428m4.242-9.428H8.88M11 70.05v7.543m-4.243-9.428v9.428m-4.243-9.428v9.428m4.243-9.428H2.514m2.122 1.885v7.543" fill="none" stroke="#000"/><path d="M20.709 79.986c.263 0 .525.02.78.052.35.089.17.49-.141.49a.374.374 0 0 1-.065-.005c-.658.076-1.468.118-1.965.49-.66.72-.363 2.213-.44 2.922-.005.038-.007 2.864-.007 4.296a4.818 4.818 0 0 1 2.997-.368c.345.182-.06.415-.332.415a.356.356 0 0 1-.09-.01c-.96.103-2.054.36-2.542 1.255-.048.162-.018.218.055.218.162 0 .533-.269.742-.269.011 0 .022.001.032.003a5.908 5.908 0 0 1 1.239-.133c.305 0 .608.025.9.075.33.218-.075.418-.343.418a.417.417 0 0 1-.082-.007c-.982.118-2.068.384-2.543 1.28-.006.996 0 1.654-.027 2.57.012.282-.171.422-.357.422-.184 0-.371-.138-.372-.412.007-.902.071-1.695-.047-2.57-.239-.982-1.943-1.133-3.001-1.375-.231-.272.223-.373.516-.373.044 0 .084.003.118.007a5.35 5.35 0 0 1 .409-.016c.692 0 1.389.138 2.005.455.025-.592-.558-.933-.975-1.17-.66-.284-1.385-.312-2.073-.464-.246-.213.14-.393.409-.393a.5.5 0 0 1 .098.01c.168-.016.338-.024.508-.024.707 0 1.414.144 2.05.456-.014-2.236-.05-4.4.014-6.514.052-.654.429-1.254 1.062-1.45.456-.207.963-.28 1.468-.28zM18.511 96.6c-.827 0-1.864.426-2.365.927-.439.439-.496 1.02-.512 1.56h5.73c-.016-.54-.073-1.121-.512-1.56-.501-.501-1.513-.927-2.34-.927zm0-.463c.982 0 2.039.454 2.658 1.073.635.635.707 1.471.707 2.097v.244h-6.73v-.244c0-.626.048-1.462.683-2.097.62-.62 1.7-1.073 2.682-1.073zM1.515 82.414q-.452 0-.882.49 3.545 4.221 4.432 4.717.661.37 1.164.37.17 0 .324-.043.601-.169 1.287-.19h.034q.672 0 1.475.802h.105q-.57-1.33-1.593-1.899-1.024-.57-6.004-4.178-.173-.07-.342-.07zM7.79 80.49q-.054 0-.108.009v5.423q1.667.971 2.3 2.723-.971-6.711-1.361-7.47-.352-.685-.831-.685zm4.346 8.496q.066 0 .125.112.105.2-.19.56-.169-.443-.042-.602.056-.07.107-.07zm-.029-.301q-.124 0-.268.192-.317.422.19 1.688.57-1.097.348-1.604-.12-.276-.27-.276zm-5.523 2.091v.317q.232-.021.359-.148-.042-.063-.169-.169zm-.485.718l-1.963.274-.4.717q.675-.19 1.487-.506.812-.317.876-.485zm4.326-.296l-.38.19-.127.908.338 1.034h.528l-.359-1.034v-1.098zm-.907.317l-.36.105-.126.676.338 1.034h.527l-.358-1.034-.021-.781zm-1.246.126l-.126.655.337 1.034h.528l-.359-1.034v-.634l-.38-.02zm.807-2.625q-.337 0-.722.082-1.14.243-1.435 1.15h-.887l-.337-.548Q1.224 90.734.654 93.435q1.224-.675 2.575-.907l.59-1.182 2.343-.317-.063-.57H6.9q.886.73 1.808.73.198 0 .397-.033 1.129-.19 1.477-.77.348-.58-.37-1.055-.474-.315-1.134-.315zm-1.498-9.03q.77 0 1.208.534.539.654 1.003 3.44l.738 4.832q.36.38.55.423h.252q.021-.528.401-.971.338-3.229-.295-5.656l.253-.485q.908 2.743.443 6.162h.064q1.456-3.271.422-6.162l.253-.38q1.35 3.081-.296 6.69.465 1.013.095 1.667-.369.654-.453 1.224l-.148.105q-.57-.844-.654-1.456h-.211q-.021.485-.275 1.013l-.147 1.33.358 1.034h1.836v.506H7.682v-.506h.443l-.338-1.034-.021-.781q-.38-.127-.57-.296-.274.254-.612.254.021.21-.084.358-.844.654-3.018 1.14l-.739 1.435q0-.352-.218-.352-.07 0-.161.035l.59-1.055q-1.224.275-1.857.697-.337.358.043.865-.845-.359-.95-1.013.338-3.187 5.719-4.432l.38.633h.337q.275-.886 2.174-1.224-.424-.314-1.043-.314-.336 0-.73.093-.4.094-.78.094-.685 0-1.309-.305-.97-.475-4.938-5.244.731-.922 1.546-.922.267 0 .543.099l5.128 3.671v-5.718q.19-.028.364-.028zM6.74 96.6c-.827 0-1.863.426-2.365.927-.438.439-.496 1.02-.512 1.56h5.73c-.016-.54-.073-1.121-.512-1.56-.501-.501-1.513-.927-2.34-.927zm0-.463c.983 0 2.04.454 2.658 1.073.635.635.707 1.471.707 2.097v.244h-6.73v-.244c0-.626.048-1.462.683-2.097.62-.62 1.7-1.073 2.683-1.073zm-5.985 6.137c.213 1.272 1.504 2.823 3.337 4.052 2.01 1.349 4.622 2.317 6.908 2.317 2.287 0 4.898-.968 6.908-2.317 1.833-1.229 3.124-2.78 3.338-4.052zm20.884-.723c.2 0 .361.162.361.361 0 1.784-1.573 3.595-3.69 5.015-2.115 1.419-4.822 2.439-7.31 2.439-2.487 0-5.195-1.02-7.31-2.44-2.117-1.419-3.69-3.23-3.69-5.014 0-.2.162-.361.361-.361zM1.353 112.418c-.2 0-.3.727-.3.927 0 .2.1.927.3.927h19.244c.234 0 .35-.726.35-.927 0-.2-.116-.927-.35-.927zm19.845-1.052c.535 0 .802 1.077.802 1.98 0 .901-.267 1.979-.802 1.979H.752c-.501 0-.752-1.078-.752-1.98 0-.902.25-1.98.752-1.98zm-19.845 7.011c-.2 0-.3.727-.3.927 0 .2.1.927.3.927h19.244c.234 0 .35-.726.35-.927 0-.2-.116-.927-.35-.927zm19.845-1.052c.535 0 .802 1.077.802 1.98 0 .901-.267 1.979-.802 1.979H.752c-.501 0-.752-1.078-.752-1.98 0-.902.25-1.98.752-1.98zm-10.177 16.309c.535.042.831.31.887.803-.07.535-.366.817-.887.845-.521-.028-.796-.31-.824-.845.042-.493.317-.76.824-.803zm-.063-1.775c-.38 0-.733.07-1.057.212a2.785 2.785 0 0 0-1.437 1.426c-.14.317-.21.651-.21 1.003 0 .366.07.708.21 1.025a2.689 2.689 0 0 0 2.493 1.595c.381 0 .737-.067 1.068-.2a2.57 2.57 0 0 0 .855-.56c.24-.24.43-.518.57-.835.142-.317.212-.659.212-1.025 0-.352-.07-.686-.211-1.003a2.884 2.884 0 0 0-.57-.845 2.594 2.594 0 0 0-.856-.581 2.696 2.696 0 0 0-1.067-.212zm.042-.718c.465 0 .901.088 1.31.264.408.176.76.416 1.056.718.296.303.532.655.708 1.057.176.401.264.834.264 1.3 0 .464-.088.897-.264 1.298-.176.402-.412.75-.708 1.046a3.353 3.353 0 0 1-2.366.972c-.465 0-.898-.088-1.3-.264a3.52 3.52 0 0 1-1.056-.708 3.296 3.296 0 0 1-.718-1.046 3.199 3.199 0 0 1-.264-1.299c0-.465.088-.898.264-1.3a3.424 3.424 0 0 1 1.775-1.774 3.199 3.199 0 0 1 1.299-.264zm-2.338 8.516q-.135 0-.221.163-.134.214.2.361.321.16.214.548l-.307 1.323q.32.04.561.32v-1.656q0-.842-.227-.976-.123-.083-.22-.083zm.754 3.001v.498l1.096-.115q-.026-.134-.414-.274-.282-.102-.682-.109zm-.48.03q-.481.1-.722.593l.868-.09V143q0-.094-.12-.28-.012-.017-.025-.032zm-1.43.553q.073 0 .213.24-.347-.12-.254-.213.017-.027.041-.027zm3.073.695q.04.08.033.127-.006.047-.073.074.08 0 .147-.04-.013-.08-.107-.16zm-.12-.026q-.12.013-.214.066.053.094.174.16-.054-.066-.047-.133.007-.067.087-.093zm.053-.054q.187 0 .254.28-.12.08-.294.08t-.294-.2h-.32v-.106l.32.026q.147-.08.334-.08zm3.22-.36q-.801 0 0 1.483.803-1.484 0-1.484zm-6.241-.34q-.051 0-.092.045-.147.174.253.361-.414.628-.427 1.497l.107.013q0-.882.347-1.456l.027.013q-.254.561-.267 1.857l.12.014q.08-1.296.147-1.604l.12-.44q-.202-.3-.335-.3zm2.837.416q-.131 0-.243.037-.268.087-.268.367H9.63q-.04-.254-.16-.254t-.04.254l.374.588v1.257l.04.013q.054-.094.127-.24.074-.148.1-.388h.401q.227 0 .227-.107 0-.2-.213-.227 0-.107.066-.107l.268-.014q-.08-.187.16-.24 0-.107-.214-.481v-.227l-.04.053q-.174-.08-.267-.093-.107 0-.321.093h-.24v-.093h.24q.187-.12.32-.12.148 0 .308.12 0-.107-.04-.12-.217-.07-.398-.07zm.291-.33l-1.203.128v.112h-.334v-.076l-.962.103q-.013.066-.133.44-.174.522-.147 3.676l1.683.013v-3.034q-.093-.133-.24-.374-.147-.24-.14-.514.005-.23.221-.23.042 0 .093.01.213 0 .267.267.013-.214.24-.315.104-.045.268-.045.196 0 .48.066-.013-.134-.093-.228zm3.131 4.309q-.537 0-.645.368h.508q.414-.04.414-.348-.15-.02-.277-.02zm-3.946-1.156v1.524H8.361q.013.828.153 1.99.14 1.163.355 1.972.213.808-.281 1.316h3.942q-.134-.147-.18-.494-.047-.348.3-1.176l1.003-3.034q-.009-.443-.238-.443-.145 0-.377.176l-1.363 2.018-.508.641q-.134.094-.238.094-.207 0-.296-.374-.482-1.096-.361-2.686.467-.495-.468-1.524zm-1.155-7.027q.18 0 .407.145.36.24.36 1.416v1.453q.37.02.629.078.387.086.634.374.247.287.247.795.054.214.014.4.227.402.227.549 0 .08-.2.08l.04.12q-.027.067-.08.08.04.054.026.12l-.093.04q.08.362-.308.362h-.28q-.027.253-.308.681.014.027.26.334.248.308.489.742.24.434-.107.848-.094 1.35.414 2.5l1.764-2.566q.196-.642.688-.642h.02v-1.87h-.949v-.321h.95q-.963-1.858.24-1.858 1.19 0 .24 1.858h.936v.32h-.922v1.871q.748 0 .147.949-1.417 4.25-1.377 4.53.04.294.395.508.354.214.18.401H8.013q-.267-.12 0-.374.709-.842.455-1.617-.254-.775-.441-3.755h-.495v-.882q0-.802.014-1.377-.107-.013-.241-.067l.027-.4-.24-.014q0-.989.427-1.563-.468-.188-.214-.482.099-.12.206-.12.168 0 .355.294.348-.658.776-.853-.18-.101-.428-.176l.374-1.59q.053-.187-.227-.36-.374-.268-.147-.642.167-.32.435-.32zm6.673 15.868q.095 0 .227.116.52.7.56 2-.16 1.019-.72 2.878.2 1.5.3 4.119.08.88-.48 1.14-1.66.44-4.199.44-2.56 0-4.199-.44-.58-.26-.5-1.14.1-2.62.3-4.119-.56-1.86-.72-2.879.04-1.3.56-2 .132-.115.227-.115.134 0 .193.236-.14.4-.26.78-.16.48-.12.9.04.679.13 1.109.09.43.37.43h.03q.47 0 .47-1.26 0-.46-.12-1.12.103-.175.222-.175.112 0 .238.155.06.48.08 1.06.08.88-.42 2.48.18 2.259.18 4.518 1.36.22 3.339.28 1.96-.06 3.319-.28 0-2.26.18-4.519-.5-1.6-.42-2.479.02-.58.08-1.06.126-.155.238-.155.119 0 .222.175-.12.66-.12 1.12 0 1.26.47 1.26h.03q.28 0 .37-.43.09-.43.13-1.11.04-.42-.12-.9-.12-.38-.26-.78.059-.235.193-.235z"/><path d="M21.607 131.141c0-10.083-21.214-10.083-21.214 0m21.214 0v34.395M.393 131.141v34.395m0 8.446h21.214m0-8.446c0 10.476-21.214 10.476-21.214 0" fill="none" stroke="#000"/><path d="M19.231 177.361v7.107l.912-4.009q.273-.972.82-1.154v-.091q-.547-.183-.79-1.033l-.091-.82zm1.55-.79V178q.212.729.91.88v.73q-.698.151-.91.941l-1.003 4.526h-1.245v-7.715q-8.535 7.229-15.338 7.654-1.944-.091-2.521-.911-.577-.82-.243-1.64.334-.82 1.139-1.048.215-.061.416-.061.547 0 .98.456.593.622.198 1.29-.267.453-.632.453-.174 0-.37-.103-.607-.32-.273-1.079-.058-.008-.11-.008-.483 0-.346.783.152.866 1.762.957 6.348-.942 13.85-6.773v-.76z"/><path d="M7.23 177.033c-.826 0-1.858.424-2.358.923-.437.437-.494 1.017-.51 1.555h5.71c-.016-.538-.073-1.118-.51-1.555-.5-.5-1.508-.923-2.333-.923zm0-.462c.978 0 2.03.452 2.648 1.07.633.632.704 1.466.704 2.09v.242H3.876v-.243c0-.623.048-1.457.68-2.09.618-.617 1.695-1.069 2.673-1.069zm10.937 18.201c-.942 0-2.122.485-2.694 1.056-.5.5-.564 1.162-.583 1.777h6.527c-.019-.615-.084-1.278-.583-1.777-.571-.571-1.724-1.056-2.667-1.056zm0-.527c1.119 0 2.322.516 3.028 1.222.723.723.805 1.675.805 2.388v.278h-7.665v-.278c0-.713.054-1.665.777-2.388.706-.706 1.937-1.222 3.055-1.222z"/><path d="M13.215 187.629h.003c.1.002.18.09.178.197-.002.106-.083.19-.182.19h-.003c-.1-.001-.18-.09-.179-.196l.182.003-.182-.005c.003-.105.084-.19.183-.19zm-.033-.032a.713.713 0 0 0-.416.26l-.082.161-.001.001c-.015.187.054.472.156.753a.578.578 0 0 1 .087-.273.625.625 0 0 1 .265-.216c.179-.085.341-.122.521-.238a.26.26 0 0 1 .115-.04l.092-.008a.26.26 0 0 1-.122-.157l.004.018s-.011-.019-.037-.04a.95.95 0 0 0-.18-.105 1.369 1.369 0 0 0-.402-.116zm-1.338.336c-.31.1-.517.26-.672.46-.208.272-.322.65-.395 1.09l.766-.072a2.603 2.603 0 0 1 .038-1.066.907.907 0 0 1 .263-.412zm.571 3.562a6.326 6.326 0 0 1-.467.039c-1.462.065-2.945.71-3.79 1.366-.928.72-2.014 1.293-3.09 1.741a13.033 13.033 0 0 0 1.419.07c.09.003.178.004.268.004 1.646 0 3.307-.52 4.592-1.544a3.305 3.305 0 0 0 1.068-1.676zm1.445-.622a.504.504 0 0 1-.242.286 2.82 2.82 0 0 1-.65.238c-.135.845-.654 1.667-1.296 2.182-1.388 1.106-3.16 1.658-4.916 1.658a8.377 8.377 0 0 1-.326-.005c-.782 0-1.562-.058-2.338-.209l.001-.006a22.4 22.4 0 0 1-1.49.472c.775-.052 1.58-.227 2.418-.252a8.61 8.61 0 0 1 .26-.004c.787 0 1.562.098 2.297.111l.098.001c2.084 0 3.811-1.194 5.482-2.806.387-.373.677-1.115.702-1.666zm-9.051 4.897c-.615.04-1.248.157-1.9.218-.185.13-.385.231-.549.333-.128.08-.217.158-.272.222.024.007.05.014.08.02a1.762 1.762 0 0 0 .552.004 8.556 8.556 0 0 0 1.275-.37 3.9 3.9 0 0 0 .814-.427zm8.369-8.694h.013c.201.003.41.07.614.164.101.048.198.102.284.171a.72.72 0 0 1 .14.141c.272.072.612.101.961.143.393.048.804.11 1.16.327.576.351 1.007 1.013 1.204 1.656a.26.26 0 0 1-.47.217c-.6-.94-1.004-1.212-1.448-1.312a4.74 4.74 0 0 0-1.014-.097 7.35 7.35 0 0 0-.686.033c-.23.136-.431.192-.521.235-.045.021-.054.032-.054.032s-.007.01-.004.07c.009.135.205.426.453.735.248.309.543.645.57 1.084.048.756-.282 1.682-.86 2.24-.536.516-1.086.998-1.659 1.418a94.214 94.214 0 0 0-.37 2.678c.213.975.742 1.84 1.01 2.798.08.178.273.253.461.253a.71.71 0 0 0 .176-.022c.272-.04.546-.08.82-.08a2.433 2.433 0 0 1 .276.014c.189 0 .824.253.729.608-.03.08-.59.115-1.187.115-.44 0-.901-.019-1.184-.054a.535.535 0 0 1-.59-.45c-.353-.977-.77-1.931-1.118-2.911-.003-.843.224-1.662.308-2.497-.41.255-.833.473-1.271.645-.2.401-1.106 1.681-1.44 2.18l-.18 2.546c.471-.017.934-.148 1.405-.148.06 0 .121.003.182.007.366 0 .483.717.206.717a.184.184 0 0 1-.034-.003c-.535.005-1.07.016-1.605.016-.175 0-.35-.001-.524-.004-.182-.028-.288-.244-.235-.412l.208-2.881c.184-.339.725-1.141 1.134-1.74a5.92 5.92 0 0 1-1.469.158c-.678-.012-1.354-.087-2.011-.106-.277.45-.836.714-1.376.923-.568.22-1.128.35-1.362.396a1.86 1.86 0 0 1-.352.032 2.21 2.21 0 0 1-.396-.036.907.907 0 0 1-.365-.135.445.445 0 0 1-.157-.178.412.412 0 0 1-.02-.277c.065-.224.216-.373.383-.492l-.032-.004a1.519 1.519 0 0 1-.256-.056.516.516 0 0 1-.125-.057.292.292 0 0 1-.144-.201.302.302 0 0 1 .073-.262.458.458 0 0 1 .11-.09 1.4 1.4 0 0 1 .229-.115 4.35 4.35 0 0 1 .496-.166c1.7-.457 3.935-1.282 5.574-2.554.945-.733 2.491-1.403 4.086-1.475.508-.023 1.098-.128 1.448-.314a.057.057 0 0 1-.015.007c-.008 0 .022-.03.033-.08.014-.066 0-.149 0-.149-.056-.128-.195-.281-.361-.45-.167-.17-.36-.357-.484-.611-.151-.308-.322-.687-.374-1.07a.485.485 0 0 0-.088.138c-.049.177-.044.864.033 1.066a.26.26 0 0 1-.22.351l-1.4.13a.262.262 0 0 1-.282-.29c.071-.605.186-1.198.545-1.666.356-.463.953-.754 1.839-.775.168-.126.356-.224.58-.224zm-10.444.379a2.35 2.35 0 0 0-1.837.88H4.57a2.35 2.35 0 0 0-1.837-.88zm-2.086 1.26c-.141.27-.232.57-.26.89H5.08a2.342 2.342 0 0 0-.26-.89zm-.262 1.27c.023.318.11.618.247.89h4.202a2.35 2.35 0 0 0 .247-.89zm.487 1.268a2.35 2.35 0 0 0 1.861.911 2.35 2.35 0 0 0 1.86-.91zm1.861-4.177a2.738 2.738 0 0 1 2.734 2.734 2.737 2.737 0 0 1-2.734 2.733A2.738 2.738 0 0 1 0 189.81a2.738 2.738 0 0 1 2.734-2.734zm16.568 15.669l2.698 3.19h-1.316l-1.382-1.648-1.396 1.648-1.356-1.648-1.396 1.648-1.382-1.648-1.396 1.648-1.383-1.648-1.395 1.648-1.356-1.648-1.396 1.648-1.396-1.648-1.356 1.648-1.396-1.648-1.382 1.648H0l2.698-3.19 1.396 1.542 1.356-1.542 1.396 1.542 1.396-1.542 1.356 1.542 1.395-1.542 1.383 1.542 1.396-1.542 1.382 1.542 1.396-1.542 1.356 1.542 1.396-1.542zM11 208.537c-1.074 0-2.418.551-3.069 1.202-.569.569-.643 1.324-.664 2.025h7.435c-.021-.701-.096-1.456-.665-2.025-.65-.65-1.963-1.202-3.037-1.202zm0-.602c1.274 0 2.645.59 3.449 1.393.824.824.917 1.909.917 2.72v.317H6.634v-.317c0-.811.062-1.896.886-2.72.803-.804 2.206-1.393 3.48-1.393zm9.218 7.395q-1.73.252-1.807 1.581v9.595q.808-.965 2.902-1.356l-1.095-9.82zm.487-.965L22 225.837q-2.885.33-3.59 2.06v1.92h-.86v-12.906q0-2.155 3.155-2.546zM.516 216.402v2.01h14.801v-2.01zm14.747-2.037v1.52h.57v3.042H0v-3.041h.462v-1.521h.516v1.52h1.276v-1.52h.516v1.52h1.277v-1.52h.516v1.52h1.249v-1.52h.543v1.52h1.25v-1.52h.515v1.52h1.277v-1.52h.516v1.52h1.276v-1.52h.516v1.52h1.25v-1.52h.516v1.52h1.276v-1.52zm-1.372 13.155l1.942 2.297h-.947l-.995-1.186-1.004 1.186-.976-1.186-1.005 1.186-.995-1.186-1.004 1.186-.995-1.186-1.005 1.186-.975-1.186-1.005 1.186-1.005-1.186-.975 1.186-1.005-1.186-.995 1.186H0l1.942-2.296 1.005 1.11.975-1.11 1.005 1.11 1.005-1.11.975 1.11 1.005-1.11.995 1.11 1.004-1.11.995 1.11 1.005-1.11.976 1.11 1.004-1.11zm6.654 4.297c.775 0 1.455.57 1.455 1.303v13.71h-.947v-13.71c0-.36-.316-.476-.514-.476-.209 0-.53.146-.53.586v9.01h-.947v-9.01c0-.733.727-1.413 1.483-1.413zm-11.801.757l-.109.001H8.58q-2.048 0-3.906 1.761l1.15.93q1.076-1.028 2.812-1.028 1.737 0 2.813 1.028l1.15-.93q-1.834-1.762-3.854-1.762zm-.109 2.374q-1.932.024-3.18 2.03h6.384q-.978-2.006-3.204-2.03zm0-3.131q3.033.122 5.112 2.495l-1.736 1.467q.733.979.905 1.835H4.379q.171-.856.905-1.81l-1.614-1.468q1.932-2.397 4.965-2.519zm-7.7 10.216q-.364 0-.364.381v2.926H1.68l-.363-3.082q-.018-.225-.381-.225zm-.017-.467q.883 0 .935.502.363 3.272.779 3.29l8.033.294.831-.035q.935-.987 1.662-.987l.537-.034q1.471.277 1.766.277.208 0 .208.277 0 .38-.59.38-1.01-.16-1.55-.16-.098 0-.18.005-.295 0-.485.242.337.418 1.511.418l.185-.002q1.334-.035 2.355-.347.502 0 .502.59-.052.536-3.757.553l-1.645-.173-9.383-.052-2.632.035v-4.225q.017-.848.918-.848zM11 249.43c-1.074 0-2.418.552-3.069 1.202-.569.57-.643 1.324-.664 2.025h7.435c-.021-.7-.096-1.455-.665-2.025-.65-.65-1.963-1.202-3.037-1.202zm0-.6c1.274 0 2.645.588 3.449 1.391.824.824.917 1.91.917 2.721v.316H6.634v-.316c0-.812.062-1.897.886-2.72.803-.804 2.206-1.393 3.48-1.393zm8.302 6.428l2.698 3.19h-1.316l-1.382-1.648-1.396 1.649-1.356-1.649-1.396 1.649-1.382-1.649-1.396 1.649-1.383-1.649-1.395 1.649-1.356-1.649-1.396 1.649L5.45 256.8l-1.356 1.649-1.396-1.649-1.382 1.649H0l2.698-3.19 1.396 1.541 1.356-1.542 1.396 1.542 1.396-1.542 1.356 1.542 1.395-1.542 1.383 1.542 1.396-1.542 1.382 1.542 1.396-1.542 1.356 1.542 1.396-1.542zm.709 8.247q.126 0 .244.038.464.15.41.45-.047.254-.415.254-.067 0-.145-.009-.504-.054-.886-.408.426-.325.792-.325zm-.236-.276q-.984 0-3.036 1.173-1.03.533-2.258.533-.593 0-1.232-.124-1.608-.327-3.38-.573-.602-.083-1.166-.083-1.097 0-2.051.315-1.445.477-2.4.614-.953.136-3.025.245 1.336.136 2.617.136t3.026-.286q.872-.143 1.68-.143.807 0 1.55.143 1.486.286 3.38.532.474.06.932.06 1.372 0 2.6-.551 1.19-.813 2.473-.813.567 0 1.152.159.518-.028.463-.573-.3-.736-1.28-.763h-.045zm-.729-2.78q.59 0 1.1 1.8.427-1.59 1.102-1.59.1 0 .207.035.818.518-.545 1.99 1.09.628 1.09 1.582 0 .954-1.608 1.063-.498-.13-.972-.13-1.111 0-2.095.716-.843.613-2.671.613-1.22 0-2.877-.272-2.036-.573-3.957-.573-.729 0-1.44.082-1.781.206-3.034.206-.569 0-1.029-.042Q0 265.874 0 265.493q.627-.573 1.772-.764 2.426-.027 4.43-.845 1.002-.409 2.457-.409 1.455 0 3.363.41 1.23.31 2.292.31 1.453 0 2.588-.584 1.172-.708 2.48-1.172-1.09-.845-1.021-1.404.068-.559.668-.586h.017zm-3.539 11.188c.274.131.608.496.102.556-.243-.01-.8-.263-.699-.496.052.05.106.068.16.068.143 0 .29-.128.437-.128zm1.995.09c.334.082.506.446.08.527l-.021.001c-.245 0-.912-.297-.363-.365.091-.061.182-.162.304-.162zm-2.663-2.54c-.597.698-1.124 1.508-1.225 2.44-.101.668-.131 1.336-.233 1.994.476-.04.334-.78.243-1.134-.08-.699.294-1.347.557-1.964.182-.334.354-.86.82-.87.516.09.85.526 1.185.9.344-.344.708-.719 1.184-.86a.239.239 0 0 1 .082-.013c.107 0 .232.047.29.047.049 0 .048-.035-.058-.166-.064-.227-.198-.294-.363-.294-.24 0-.55.143-.809.143a.568.568 0 0 1-.114-.01 4.461 4.461 0 0 1-.257.007 3.78 3.78 0 0 1-1.302-.22zm.162.769c-.395.101-.486.648-.678.972-.243.567-.537 1.184-.344 1.822.151.304-.04.689-.02.911.337.238.634.738 1.082.738.049 0 .1-.006.152-.019.446-.09.669-.516 1.013-.719.25.24.397.74.807.74.056 0 .118-.01.185-.03.375-.082.87-.041.982-.497.192-.466.213-.982.243-1.488a.328.328 0 0 1-.062.006c-.205 0-.223-.238-.242-.442-.078-.296-.29-.433-.526-.433a.77.77 0 0 0-.476.18c-.172.193-.698.345-.587.648.05.182.111.375.172.567l-.425.567c-.04-.293-.476-.536-.223-.83.04-.132.192-.304.172-.405a3.176 3.176 0 0 0-.709-.85.326.326 0 0 0-.232-.104c-.271 0-.544.356-.78.387-.233-.253.02-.354.253-.486a.71.71 0 0 1 .493-.198c.253 0 .505.132.661.36.193.116.327.5.495.5.054 0 .11-.038.174-.135.308-.248.68-.526 1.084-.526.06 0 .12.006.181.02.286.059.544.638.566.638h.001c.01-.477-.213-.902-.344-1.368a.62.62 0 0 0-.603-.482.603.603 0 0 0-.48.24c-.302.111-.523.64-.806.64a.27.27 0 0 1-.156-.053c-.314-.334-.567-.73-1.023-.871zm1.438 7.026c-1.286 1.326-2.47 4.688-2.774 6.065.496-.405 1.174-.669 1.326-.922.162-.263.607-2.824 1.448-5.143zm-4.576-2.41c-2.43 1.398-6.662 8.272-7.563 9.376 1.519-.962 3.017-1.934 4.647-2.724 2.288-1.124 4.242-2.946 6.105-4.647-1.54-.516-2.643-1.387-3.19-2.004zm2.52 8.728c-.323.192-.617.455-.971.597.212.526.344 1.114.78 1.529.081.131.198.173.33.173.231 0 .51-.125.745-.125l.048.002c-.283-.708-.709-1.022-.931-2.176zm-.688-9.477c-.061.127-.14.17-.222.17-.11 0-.227-.073-.325-.119-.243.172-1.083.152-.587.516.314.426 1.991 1.585 3.156 1.79.504.088-.341.883-.615 1.167-1.579 1.417-3.128 2.915-5.021 3.938-1.185.668-2.43 1.265-3.574 2.004-.547.79-1.195 1.52-1.61 2.39.415.121.82.293 1.245.395.225.056.468.083.711.083.67 0 1.341-.2 1.638-.519.547-.577 1.144-3.037 1.458-3.938.045-.101.108-.135.177-.135.137 0 .295.134.373.134.016 0 .029-.006.037-.02a.395.395 0 0 1 .391-.38c.178 0 .343.129.318.401.06.638.182 1.276.486 1.853.037.098.115.136.217.136.288 0 .77-.297 1.1-.38-.132-.779.93-4.768 4.049-8.109.109-.118.584-.618.542-.618a.11.11 0 0 0-.036.02 2.03 2.03 0 0 1-.517.071c-.342 0-.677-.105-.85-.424-.026-.08-.06-.11-.098-.11-.138 0-.348.403-.57.403a.93.93 0 0 1-.52.157c-.293 0-.585-.133-.786-.36-.192-.171-.375-.344-.567-.516zm1.053-5.295c.318.142.875.283 1.376.283.072 0 .144-.003.214-.01a.813.813 0 0 0 .144.013c.34 0 .708-.183 1.037-.183a.63.63 0 0 1 .357.1c.557.81 1.063 1.71 1.124 2.713.112 1.924.06 2.592-1.458 4.171-.597 1.357-1.71 5.781-2.045 6.986-.364.344.456 2.227.8 2.693.187.258.68.27 1.211.27h.174c.477 0 .96.01 1.257.196.284.182.385.86.223.951-.152-.232-.455-.546-.668-.577.202.213-.506.112-.658.162-.41.007-.824.042-1.24.042-.2 0-.401-.008-.603-.032-.09-.04-.188-.102-.231-.102-.033 0-.033.038.029.153a3.73 3.73 0 0 1-.924.112c-.708 0-1.379-.189-1.526-.567a10.9 10.9 0 0 1-.79-1.752c-.258.055-.583.237-.844.237a.384.384 0 0 1-.209-.055c-.283-.192-.577-1.093-.739-1.69-.015-.063-.1-.093-.185-.093-.082 0-.165.028-.19.082-.303.608-.81 2.47-1.295 3.25-.367.578-1.256.862-2.202.862a4.533 4.533 0 0 1-1.737-.335c-.658-.284-1.144-.223-1.002-.587.223-.608.607-1.185 1.012-1.701-.587.364-1.174.739-1.761 1.103-.049.177-.17.247-.295.247-.24 0-.488-.26-.242-.52 2.298-3.32 5.953-8.98 8.484-10.813a3.428 3.428 0 0 1 1.408-.76c.172-.445.121-1.042.222-1.548.102-1.002.709-2.663 1.772-3.3zm6.338 20.215c.186 0 .372.014.552.037.248.063.12.347-.1.347a.264.264 0 0 1-.045-.004c-.466.054-1.04.083-1.391.347-.467.509-.257 1.566-.311 2.068-.004.027-.006 2.027-.006 3.04a3.41 3.41 0 0 1 2.121-.26c.245.129-.042.294-.234.294a.252.252 0 0 1-.064-.008c-.68.074-1.454.256-1.8.889-.033.115-.012.154.04.154.114 0 .377-.19.525-.19l.022.001c.285-.06.582-.093.877-.093.216 0 .431.017.638.053.233.154-.053.296-.243.296a.295.295 0 0 1-.059-.005c-.694.083-1.463.272-1.8.906-.003.705 0 1.17-.018 1.819.008.2-.122.298-.253.298-.13 0-.263-.097-.263-.291.005-.64.05-1.2-.034-1.82-.169-.694-1.374-.801-2.123-.973-.164-.192.158-.263.365-.263.031 0 .06.001.083.004.096-.007.193-.01.29-.01a3.1 3.1 0 0 1 1.419.321c.017-.419-.395-.66-.69-.828-.467-.2-.98-.22-1.467-.328-.174-.151.1-.278.289-.278.025 0 .048.002.07.007a3.58 3.58 0 0 1 .359-.018c.5 0 1.001.102 1.45.323-.009-1.582-.034-3.113.011-4.61.036-.463.303-.887.752-1.026.322-.146.68-.199 1.038-.199zm-8.116.328c-.585 0-1.318.301-1.673.656-.31.31-.351.722-.362 1.104h4.055c-.011-.382-.052-.794-.362-1.104-.355-.355-1.071-.656-1.657-.656zm0-.328c.696 0 1.444.321 1.882.76.45.45.5 1.04.5 1.484v.172H10.59v-.172c0-.443.034-1.035.484-1.484.438-.439 1.203-.76 1.898-.76zM2.7 291.482q.133 0 .184.128-.033.139-.185.139-.14 0-.379-.117.238-.15.38-.15zm-2.248-2.485q-.055 0-.112.048-.224.17.213.479.138.947.66 1.767.458.543.532.969.277-.192.075-.4-.203-.207-.139-.346.064-.138.213-.16.043-.005.078-.005.087 0 .125.038.298-.256.564-.298-.032-.245-.352-.66-.66-.703-1.554-1.065-.148-.367-.303-.367zm2.335 2.301q-.3 0-.637.355-.116-.144-.204-.144-.042 0-.078.032-.112.101.292.442-.063.202-.372.564.34 0 .564.15 0-.203.34-.203.341 0 .341-.469h.213q-.127-.266-.229-.393-.1-.128-.111-.32-.059-.014-.119-.014zM1.49 292.43q-.767.01-.756 1.192H1q0-.99.49-1.192zm5.685-.585l.734 2.597.586-.223-1.32-2.374zm-1.64 2.405q-.223.075-.064.288l.352.042q.244-.095.106-.33zm-3.556-1.373q-.574 0-.49 1.853.086 1.852.459 3.502l-.267.192 3.822-.011-1.022-.309q.383-1.586.841-2.326.458-.74.208-.91-.063-.043-.13-.043-.203 0-.45.384l-1.523 1.948h-.383q-.064-2.534-.468-3.705-.256-.575-.597-.575zm-1.478-4.134q.085 0 .158.051.192.134.256.442.883.373 1.235.682.351.308.505.537.155.23.261.57.181-.085.054-.25-.128-.165-.128-.293.01-.064.085-.128.053-.038.11-.038.021 0 .044.006.08.021.144.053.064.032.043.086-.018.044-.091.044l-.032-.002-.023-.001q-.062 0 .04.06.116.069.106.346-.011.276-.203.33.032.042.022.117-.011.096.207.42.218.325.037.362-.18.038-.18.123.053.17-.043.298l.17.543h-.33l-.053-.447h-.138q-.298 0-.032.49.564 1.021.65 3.47l1.702-2.055q0-.564.618-.564l1.288-2.938.394.681 1.426 2.576q.128.277.043.32-.05.017-.098.017-.157 0-.296-.188.032.086.032.192 0 .106-.096.138-.021.01-.043.01-.054 0-.111-.058-.08-.08-.123-.165.043.299-.17.384-.007.003-.015.003-.07 0-.166-.259l-.82-2.927-.968 2.214q.585 0 .213.266.117.298-.203.607.203.213-.277 1.033-.479.82-.787 2.044l.915.255-.053.532H1.021l.5-.681q-.244-1.554-.297-3.29-.054-1.734.276-2.128-.298.021-.298 1.213h-.67q0-1.586.873-1.586-.086-.405-.261-.618-.176-.213-.394-.628-.218-.415-.357-1.373-.287-.128-.372-.346-.086-.218.18-.42.164-.132.3-.132zm18.283 22.518q.229.229 0 .422l.65-.246-.65-.176zm-3.51-.017l-.633.193.632.246q-.228-.193 0-.44zm3.072-.018l-.527.386.562.106q-.211-.193-.035-.492zm-2.634-.017q.176.316-.035.509l.562-.106-.527-.403zm-.073-.144q.184 0 .293.056.377.193.518.562-.316.174-.706.174-.63 0-1.454-.455.898-.337 1.349-.337zm2.772.001q.454 0 1.374.353-.823.45-1.45.45-.404 0-.727-.186.14-.369.518-.562.107-.055.285-.055zm2.801-.837q.103 0 .232.12.36.333-.588 1.913l-.176-.123.281-.685-.017-.561.228-.035q-.07.087-.079.386-.009.298-.307.842l.052.053q.123-.228.387-.816.263-.588.096-.817-.064-.087-.129-.087-.105 0-.213.228l-.053-.035q.102-.383.286-.383zm-8.364 0q.189 0 .301.383l-.052.035q-.109-.228-.217-.228-.067 0-.135.087-.175.229.088.817.264.588.404.816l.053-.053q-.299-.544-.308-.842-.008-.299-.079-.386l.211.035-.017.561.28.685-.158.123q-.965-1.58-.605-1.914.129-.12.234-.12zm8.252-.243q-.15 0-.2.213-.097.413-.07.685.019.196-.195.196-.083 0-.2-.03.456.51.035.931-.106.58.193.597h.01q.297 0 .78-1 .491-1.019.017-1.405-.229-.187-.37-.187zm-8.142 0q-.141 0-.37.187-.475.386.026 1.404.492 1.001.78 1.001h.01q.29-.018.184-.597-.404-.421.035-.93-.112.03-.192.03-.207 0-.194-.197.018-.272-.079-.685-.05-.213-.2-.213zm2.687.368q.109 0 .208.02.614.132.825.571.193.597.184 1.326-.009.728-.404.86t-.272.272q.068.078.163.078.076 0 .17-.052.081-.043.153-.043.116 0 .208.114.074.092.151.092t.156-.092q.098-.114.212-.114.07 0 .148.043.09.052.167.052.094 0 .166-.078.132-.14-.263-.272t-.404-.851q-.008-.72.167-1.335.176-.439.764-.57.093-.021.198-.021.562 0 1.478.591l.035.264q-.863-.537-1.5-.537-.424 0-.747.238-.368 1.37.053 2.002.72.175.491.579-.134.238-.372.238-.166 0-.382-.115-.185.228-.365.228t-.355-.228q-.223.115-.393.115-.245 0-.38-.238-.228-.404.51-.58.333-.631.035-2-.336-.25-.77-.25-.634 0-1.477.53l.052-.263q.825-.574 1.39-.574zm.93 3.8q-.197 0-.494.11.502.167 1.018.167.46 0 .93-.133-.34-.138-.554-.138-.14 0-.227.06-.11.074-.217.074t-.213-.075q-.092-.065-.243-.065zm1.455.285q-.5.184-1.032.184-.53 0-1.093-.184.58.386 1.124.412.03.002.061.002.509 0 .94-.414zm-.597-.51q.421.089.948.387-.474.58-.93.685-.19.043-.39.043-.285 0-.594-.087-.526-.15-.772-.659.562-.28.93-.35l.404.157.404-.175zm-1.738-4.318q-.773.737-1.861 1.405-.193.509-.088.667.105.158.21.93.545 1.229 1.01 2.019.465.79.966 1.115.218.141.454.141.306 0 .643-.238.404.277.706.277.157 0 .286-.075.377-.22 1-.965.624-.747 1.098-2.274.105-.772.202-.922.096-.149-.08-.675-1.544-.685-1.86-1.37-.656.273-1.307.273-.692 0-1.38-.308zm1.334 6.39q-.46.32-.82.32-.094 0-.18-.021l-.352 2.3h2.739l-.386-2.3q-.088.021-.181.021-.36 0-.82-.32zm0-7.76q2.791 0 3.546 2.494-.07-.755.369-.975.106-.053.215-.053.34 0 .706.519.483.684-.746 2.44-.224.483-.457.483h-.008q-.237-.01-.325-.237-.491 2.071-1.966 3.072l.492 2.949h-3.582l.422-2.95q-1.124-1.035-1.966-3.071-.088.228-.325.237h-.009q-.232 0-.456-.483-1.23-1.756-.738-2.44.373-.519.71-.519.108 0 .212.053.43.22.342.975.773-2.493 3.564-2.493zM.777 301.635v16.542h7.221v-.797H4.345v-9.804H2.1v-5.941zm2.099-.903v6.11h2.246v9.887H8.86v2.204H0v-18.2zm14.767 20.685c-.708 0-1.274.205-1.67.49-.007.054-.02.11-.009.163.05.253.2.488.404.644.323.212.713.272 1.08.364.092.01.02.032-.031.04a7.54 7.54 0 0 1-.993.102l-.053-.001a1.663 1.663 0 0 1-.782-.318 1.137 1.137 0 0 1-.21-.241 4.29 4.29 0 0 0-.266.937.3.3 0 0 1-.206.238c-1.163.356-2.083 1.951-2.942 3.014-1.768 2.183-3.27 4.625-5 6.907.958-.466 1.912-.936 2.871-1.404 1.963-1.032 4.007-1.856 5.727-3.157l.009-.009c.99-.825 2.005-1.696 2.389-2.853.152-.94-1.795-2.634-1.576-2.705a.212.212 0 0 1 .066-.009c.469 0 1.792 1.152 2.063 2.25.003-.015.011-.032.014-.046.075-.364.158-1.284-.068-2.023a.297.297 0 0 1-.012-.106c.016-.297.061-.474.126-.647.065-.174.142-.352.267-.782.031-.11.144-.335.212-.353-.19-.14-.383-.287-.66-.384a.444.444 0 0 1 .135.321c0 .235-.167.424-.372.424s-.373-.19-.373-.424v-.003a.42.42 0 0 1 .261-.398c-.054-.007-.097-.019-.157-.023a3.8 3.8 0 0 0-.244-.008zm-.685 7.933c-.066.066-.138.126-.206.192-.219.796-.421 1.676-.708 2.355-.493 1.17-1.242 2.188-1.88 3.223.157.083.292.179.393.275.084.078.139.13.204.197a2.668 2.668 0 0 1 1.212-.916c-.046-.74.11-1.75.346-2.848.183-.85.41-1.695.64-2.478zm-1.028.928c-1.174.966-2.48 1.776-3.756 2.596.018.93.018 1.817-.086 2.733a3.486 3.486 0 0 1 1.469-.752c.02 0 .037.013.058.013.662-1.087 1.413-2.105 1.876-3.203.16-.378.3-.87.439-1.387zm-.416 5.369c-.167.156-.32.336-.45.553a.306.306 0 0 1-.262.144.294.294 0 0 1-.173-.055c-.22-.16-.355-.331-.487-.456a1.361 1.361 0 0 0-.152-.12l-.152 2.782c.218-.014.445-.036.651-.036.27 0 .506.037.647.176.173-.137.508-.168.91-.168.104 0 .211.002.322.005l-.854-2.825zm-1.183-4.93c-1.384.804-2.845 1.445-4.226 2.17a.25.25 0 0 1-.005.004c-1.324.645-2.644 1.309-3.98 1.945-1.005 1.215-2.097 2.345-3.146 3.495l2.198.37c1.453-1.58 2.907-3.156 4.36-4.736a.295.295 0 0 1 .038-.037c1.532-1.162 3.221-2.128 4.761-3.212zm3.245-9.784c.138 0 .278.005.42.014 1.108.071 1.913.537 2.188 1.169.042.094.149.32.008.32a2.402 2.402 0 0 0-.349-.029c-.427 0-.388.176-.481.199-.092.288-.295.865-.31 1.091.25.88.157 1.802.066 2.246-.152.748-.644 1.619-1.289 2.433a.291.291 0 0 1 0 .169 36.072 36.072 0 0 0-.922 3.409c-.257 1.193-.402 2.327-.324 2.885a.3.3 0 0 1-.226.335c-.045.011-.086.032-.13.046l.949 3.146a2.91 2.91 0 0 1 .605-.056c.39 0 .773.05 1.088.05.128 0 .245-.008.347-.032a.558.558 0 0 1 .128-.012c.445 0 1.46.312 1.37.898-.154-.13-.264-.162-.384-.162-.113 0-.235.027-.413.027h-.028c-.26-.004-.713-.085-1.077-.085-.184 0-.345.02-.447.082-.241-.01-.46-.013-.663-.013-.868 0-1.479.071-2.554.076a91.523 91.523 0 0 1-3.04-.08c-.46.003-.712.055-.942.055h-.04c-.138-.005-.271-.058-.491-.058-.126 0-.28.017-.478.072.255-.35.895-.7 1.359-.7.117 0 .223.022.308.072a5.42 5.42 0 0 1 .52-.022c.223 0 .457.009.692.02l.16-2.891c-.497.207-.875.527-1.309 1.043a.302.302 0 0 1-.524-.253c.197-1.06.218-2.062.206-3.125-.551.361-1.095.728-1.61 1.117l-4.455 4.842a.296.296 0 0 1-.27.092c-.97-.163-1.94-.322-2.91-.485a.3.3 0 0 1-.235-.197.305.305 0 0 1 .06-.304c.758-.848 1.542-1.666 2.3-2.498-1.296.798-2.938 1.793-3.146 1.793-.024 0-.029-.013-.013-.04.096-.167.92-.772 1.813-1.404-.142.06-.281.123-.424.18-.005.004-.012.01-.017.012-.105.036-.163.06-.275.063a.292.292 0 0 1-.112-.017.324.324 0 0 1-.192-.155.326.326 0 0 1-.023-.243c.017-.052.04-.079.055-.1.063-.087.105-.111.166-.158.06-.047.13-.098.21-.152.156-.107.343-.228.503-.335a5.1 5.1 0 0 0 .336-.238.314.314 0 0 1 .028-.026c1.326-.932 2.652-1.863 3.977-2.796.008-.006.02 0 .029-.006 1.362-1.909 2.644-3.909 4.134-5.75.76-.94 1.633-2.583 3.05-3.13.07-.406.224-1.153.772-1.686.466-.453 1.14-.66 1.896-.707.118-.007.238-.011.36-.011zm-2.069 23.502c.274.131.608.496.102.557-.243-.01-.8-.264-.699-.497.052.05.106.068.16.068.143 0 .29-.128.437-.128zm1.995.09c.334.082.506.446.08.527l-.021.001c-.245 0-.912-.297-.363-.365.091-.061.182-.162.304-.162zm-2.663-2.54c-.597.698-1.124 1.508-1.225 2.44-.101.668-.131 1.336-.233 1.994.476-.04.334-.78.243-1.134-.08-.698.294-1.346.557-1.964.182-.334.354-.86.82-.87.516.09.85.526 1.185.9.344-.344.708-.718 1.184-.86a.239.239 0 0 1 .082-.013c.107 0 .232.047.29.047.049 0 .048-.035-.058-.166-.064-.227-.198-.294-.363-.294-.24 0-.55.143-.809.143a.568.568 0 0 1-.114-.01 4.461 4.461 0 0 1-.257.007 3.78 3.78 0 0 1-1.302-.22zm.162.77c-.395.1-.486.647-.678.971-.243.567-.537 1.185-.344 1.822.151.304-.04.689-.02.912.337.237.634.737 1.082.737.049 0 .1-.006.152-.019.446-.09.669-.516 1.013-.718.25.24.397.738.807.738a.619.619 0 0 0 .185-.03c.375-.08.87-.04.982-.496.192-.466.213-.982.243-1.488a.328.328 0 0 1-.062.006c-.205 0-.223-.238-.242-.441-.078-.297-.29-.434-.526-.434a.77.77 0 0 0-.476.18c-.172.193-.698.345-.587.648.05.183.111.375.172.567l-.425.567c-.04-.293-.476-.536-.223-.83.04-.132.192-.304.172-.405a3.176 3.176 0 0 0-.709-.85.326.326 0 0 0-.232-.104c-.271 0-.544.356-.78.387-.233-.253.02-.354.253-.486a.71.71 0 0 1 .493-.198c.253 0 .505.132.661.36.193.116.327.5.495.5.054 0 .11-.038.174-.135.308-.248.68-.525 1.084-.525.06 0 .12.006.181.018.286.06.544.64.566.64l.001-.002c.01-.476-.213-.9-.344-1.366a.62.62 0 0 0-.603-.483.603.603 0 0 0-.48.24c-.302.111-.523.64-.806.64a.27.27 0 0 1-.156-.053c-.314-.334-.567-.73-1.023-.87zm1.438 7.025c-1.286 1.327-2.47 4.688-2.774 6.065.496-.405 1.174-.669 1.326-.922.162-.263.607-2.824 1.448-5.143zm-4.576-2.41c-2.43 1.398-6.662 8.272-7.563 9.376 1.519-.962 3.017-1.934 4.647-2.724 2.288-1.124 4.242-2.946 6.105-4.647-1.54-.516-2.643-1.387-3.19-2.004zm2.52 8.728c-.323.192-.617.455-.971.597.212.527.344 1.114.78 1.529.081.131.198.173.33.173.231 0 .51-.124.745-.124l.048.001c-.283-.708-.709-1.022-.931-2.176zm-.688-9.476c-.061.126-.14.168-.222.168-.11 0-.227-.072-.325-.118-.243.172-1.083.152-.587.516.314.426 1.991 1.585 3.156 1.79.504.088-.341.883-.615 1.167-1.579 1.417-3.128 2.915-5.021 3.938-1.185.668-2.43 1.266-3.574 2.005-.547.79-1.195 1.518-1.61 2.389.415.121.82.294 1.245.395.225.057.468.083.711.083.67 0 1.341-.2 1.638-.519.547-.577 1.144-3.037 1.458-3.938.045-.101.108-.135.177-.135.137 0 .295.134.373.134.016 0 .029-.006.037-.02a.396.396 0 0 1 .391-.38c.178 0 .343.13.318.401.06.638.182 1.276.486 1.853.037.098.115.136.217.136.288 0 .77-.297 1.1-.38-.132-.779.93-4.768 4.049-8.109.109-.118.584-.618.542-.618-.004 0-.016.006-.036.021-.16.042-.34.07-.517.07-.342 0-.677-.105-.85-.424-.026-.08-.06-.11-.098-.11-.138 0-.348.403-.57.403a.93.93 0 0 1-.52.157c-.293 0-.585-.133-.786-.36-.192-.171-.375-.343-.567-.515zm1.053-5.295a3.77 3.77 0 0 0 1.376.282c.072 0 .144-.003.214-.01a.813.813 0 0 0 .144.013c.34 0 .708-.183 1.037-.183a.63.63 0 0 1 .357.1c.557.81 1.063 1.711 1.124 2.713.112 1.924.06 2.592-1.458 4.171-.597 1.357-1.71 5.781-2.045 6.986-.364.344.456 2.227.8 2.693.187.258.68.271 1.211.271h.174c.477 0 .96.01 1.257.195.284.182.385.86.223.952-.152-.233-.455-.547-.668-.577.202.212-.506.11-.658.161-.41.007-.824.042-1.24.042-.2 0-.401-.008-.603-.031-.09-.04-.188-.103-.231-.103-.033 0-.033.038.029.153a3.73 3.73 0 0 1-.924.112c-.708 0-1.379-.189-1.526-.567a10.9 10.9 0 0 1-.79-1.752c-.258.055-.583.237-.844.237a.384.384 0 0 1-.209-.055c-.283-.192-.577-1.093-.739-1.69-.015-.062-.1-.093-.185-.093-.082 0-.165.028-.19.083-.303.607-.81 2.47-1.295 3.25-.367.577-1.256.861-2.202.861a4.533 4.533 0 0 1-1.737-.335c-.658-.284-1.144-.223-1.002-.587.223-.608.607-1.185 1.012-1.701-.587.364-1.174.739-1.761 1.103-.049.177-.17.247-.295.247-.24 0-.488-.26-.242-.52 2.298-3.32 5.953-8.98 8.484-10.813a3.414 3.414 0 0 1 1.408-.759c.172-.445.121-1.043.222-1.549.102-1.002.709-2.663 1.772-3.3zm-1.655 20.656q-.07 0-.14.052-.13.104-.224.616-.096.51-.338.675-.243.174-.416.174-.19 0-.19.303h.987v.754h.658v-.754h.988q0-.303-.19-.303-.191 0-.425-.174-.243-.164-.338-.675-.087-.512-.234-.616-.07-.052-.138-.052zm-4.166 0q-.072 0-.14.052-.14.104-.235.616-.095.51-.33.675-.242.174-.424.174-.19 0-.19.303h.979v.754h.667v-.754h.98q0-.303-.174-.303-.182 0-.433-.174-.243-.164-.33-.675-.086-.512-.225-.616-.074-.052-.145-.052zm-4.177-.017q-.067 0-.132.052-.138.104-.225.615-.095.503-.347.676-.242.173-.415.173-.191 0-.191.321h.988v.754h.658v-.754h.988q0-.32-.19-.32-.191 0-.425-.174-.234-.173-.33-.676-.095-.511-.242-.615-.07-.052-.137-.052zm12.521.017q-.071 0-.14.052-.148.104-.235.616-.095.51-.338.675-.233.174-.424.174-.19 0-.19.32h.987v.754h.659v-.754h.987q0-.32-.173-.32-.19 0-.433-.174-.243-.164-.33-.675-.086-.512-.225-.616-.073-.052-.145-.052zm1.732 3.49zm-16.022.116zm10.112-.651q-1.36 0-1.36 1.3 0 1.135.588 3.778.598 2.642.598 4.228 0 .91-1.074 2.366h2.495q-1.057-1.456-1.057-2.366 0-1.586.59-4.228.597-2.643.597-3.778 0-1.3-1.377-1.3zm-4.168 0q-1.378 0-1.378 1.3 0 1.135.598 3.778.598 2.642.598 4.228 0 .91-1.066 2.366h2.504q-1.083-1.456-1.083-2.366 0-1.586.598-4.228.598-2.643.598-3.778 0-1.3-1.37-1.3zm-4.177 0q-1.36 0-1.36 1.282 0 1.153.598 3.796.589 2.642.589 4.228 0 .91-1.074 2.366h2.495q-1.057-1.456-1.057-2.366 0-1.586.598-4.228.589-2.643.589-3.796 0-1.282-1.378-1.282zm12.521.017q-1.378 0-1.378 1.283 0 1.16.598 3.795.59 2.643.59 4.228 0 .91-1.058 2.366h2.496q-1.075-1.456-1.075-2.366 0-1.585.598-4.228.59-2.634.59-3.795 0-1.283-1.361-1.283zm-4.176-3.414q.147 0 .294.07.286.13.425.84.13.71.606.71.45 0 .45.997h-1.074l-.026.399q1.196 0 1.196 1.967 0 .762-.606 3.448-.607 2.686-.607 4.272 0 .737 1.083 2.21.182 0 .182.286 0 .38-.468.38h-2.894q-.476 0-.476-.38 0-.286.19-.286 1.057-1.473 1.057-2.21 0-1.586-.589-4.272-.598-2.686-.598-3.448 0-1.967 1.17-1.967v-.399h-1.074q0-.996.45-.996.477 0 .598-.71.121-.711.416-.841.147-.07.295-.07zm-4.166 0q.145 0 .292.07.295.13.425.84.139.71.59.71.458 0 .458.997H9.61v.399q1.17 0 1.17 1.967 0 .762-.59 3.448-.597 2.686-.597 4.272 0 .737 1.057 2.21.19 0 .19.286 0 .38-.476.38H7.47q-.468 0-.468-.38 0-.286.19-.286 1.075-1.473 1.075-2.21 0-1.586-.606-4.272-.607-2.686-.607-3.448 0-1.967 1.196-1.967v-.399h-1.1q0-.996.476-.996.45 0 .59-.71.13-.711.424-.841.143-.07.288-.07zm-4.179 0q.148 0 .295.07.295.13.425.832.13.693.606.693.45 0 .45 1.022H5.45l-.017.399q1.187 0 1.187 1.95 0 .78-.607 3.465-.606 2.686-.606 4.255 0 .736 1.083 2.21.19 0 .19.303 0 .38-.476.38H3.31q-.468 0-.468-.38 0-.304.182-.304 1.066-1.473 1.066-2.21 0-1.568-.598-4.254-.598-2.686-.598-3.466 0-.31.03-.57l-.047.284q-2.08 0-2.097 3.614v7.287H0v-7.305q0-4.384 3.007-4.384l-.026.157q.231-1.032 1.083-1.032v-.399H2.989q0-1.022.45-1.022.478 0 .599-.693.121-.702.416-.832.147-.07.294-.07zm12.521.022q.147 0 .295.065.294.13.424.832t.59.702q.45 0 .45 1.022h-1.074v.39q.794 0 1.049.9l-.01-.068q3.007 0 3.007 4.393v7.304h-.78v-7.287q-.017-3.605-2.105-3.613.008.153.008.32 0 .78-.598 3.467-.589 2.686-.589 4.254 0 .737 1.057 2.21.19 0 .19.303 0 .365-.435.365l-.04-.001h-2.935q-.428 0-.428-.364 0-.303.182-.303 1.083-1.473 1.083-2.21 0-1.568-.606-4.254-.607-2.686-.607-3.466 0-1.95 1.196-1.95v-.39h-1.1q0-1.022.476-1.022.45 0 .58-.702.14-.702.425-.832.148-.065.295-.065zM11 379.723c-1.074 0-2.418.551-3.069 1.202-.569.57-.643 1.324-.664 2.025h7.435c-.021-.701-.096-1.456-.665-2.025-.65-.65-1.963-1.202-3.037-1.202zm0-.601c1.274 0 2.645.588 3.449 1.392.824.824.917 1.909.917 2.72v.317H6.634v-.317c0-.811.062-1.896.886-2.72.803-.804 2.206-1.392 3.48-1.392zm7.963 8.026q-1.105 1.146-1.607 2.61-.501 1.464.45 1.72.138.036.262.036.732 0 .977-1.296.287-1.514-.082-3.07zm-15.896-.44q-.139 0-.225.102-.317.379.942 2.016 1.259 1.638 2.692 3.235 1.433 1.597 2.927 1.904 1.495.307 6.305.839l1.863.491q.491-.757.369-1.515-.596-.262-1.023-.262-.672 0-.922.651-4.887-1.396-7.074-1.396-.121 0-.234.004-3.44-4.299-4.483-5.322-.762-.747-1.137-.747zm-.296-1.157h.02q.9.02 2.037 1.157 1.136 1.136 4.186 5.169 1.74.184 6.674 1.494.44-.789 1.094-.789.076 0 .155.011l.102-.43q-1.515-1.453-.184-3.674 1.26-2.105 2.19-2.105.052 0 .102.006.901.39.952 2.979.051 2.59-2.057 3.08l-.123.451q.696.184.83.921.132.737-.175 1.546-.245.645-1.037.645-.201 0-.437-.041l-.204.757-1.003-.286.225-.86-.553-.143q-4.77-.369-7.779-1.044-5.875-5.282-5.885-7.073-.01-1.771.87-1.771zm11.538 13.61q-.288 0-.398.287.141-.056.242-.056.214 0 .244.255.043.454.245.454h.01q.21-.011.298-.188 0-.133-.332-.442-.154-.31-.31-.31zm-.317.395q-.081 0-.081.114.04.445.341.445.027 0 .057-.003v-.044l-.089-.2q-.02-.31-.177-.31l-.022.001q-.015-.003-.029-.003zm1.97.251q.2 0 .37.117.21.144.121.497h-.088q-.022-.22-.133-.365-.11-.143-.364-.143-.255 0-.255-.067l.255-.033q.047-.006.093-.006zm.005.194q.265 0 .265.376v.133q-.022.004-.04.004-.075 0-.092-.07-.376-.09-.553-.31.155-.133.42-.133zm.398.575q.11.155.022.387t-1.105.32l-.155-.066q1.282-.088 1.15-.597l.088-.044zm-1.437-1.061q.287.199.221.508-.044.133-.265.221-.2.089-.155.465-.044.818.685 1.26.11-.265.431-.287.031-.003.06-.003.274 0 .394.19.093.148.22.148.052 0 .111-.026.036.01.068.01.2 0 .22-.364-.221-.022-.31-.088-.088-.066-.331-.155.107-.123.22-.123.05 0 .1.024.166.077.343.121.376-.066.287-.376.221-.243.155-.42-.486-.31-.807-.586-.32-.276-.719-.331-.397-.056-.928-.188zm-1.305-.2q-.574.045-1.216.653-.64.608-.751 1.25 1.194 1.746 3.382 2.785.089-.929-.31-1.857-.729-.663-.64-1.117.088-.453-.288-.608-.84-.154-.177-1.105zm-8.111 3.735l-.07.002q-.994.177-1.812.896-.818.718-1.172 1.78-.066.11.487.11 2.321-.973 2.94-1.968.274-.82-.373-.82zm5.9-1.103q-1.377 1.321-3.512 1.321-.366 0-.755-.039-.04-.013-.075-.013-.323 0-.323 1.074 2.19.973 3.45 1.062.373.026.757.026.912 0 1.885-.148.21-.032.39-.032 1.001 0 1.058.994.928-1.106.663-1.504-2.189-.972-3.538-2.741zm2.694-3.219l.103.002q1.006.033 1.073.409.398.155.74.254.343.1.641.365.299.265.664.475.365.21.43.365.111.243-.198.53 0 .244-.221.399-.044 0-.1.376-.055.375-.409.552-.442-.066-.575-.254-.112-.16-.289-.16-.031 0-.064.005-.221.033-.332.365.088.332.254 1.172.166.84 0 1.238t.586.895q.574.38 1.571.38.31 0 .662-.037.767-.213 1.234-.213.502 0 .657.246.298.476-.056.83h-.862q-1.984.07-3.361.07-3.317 0-3.106-.413.24-.47-.39-.47-.155 0-.362.028-.325.044-.713.044-.867 0-2.05-.221-1.714-.32-2.233-.597-.333-.177-.721-.177-.217 0-.451.055-.652.155-.785.553.288.53 1.003.53.327 0 .744-.11.695-.186 1.142-.186.405 0 .604.153.42.32.044.763H1.795q-.73-.664-.31-1.537.42-.873 1.415-1.658.995-.785 2.19-1.426-.313-.273-.603-.273-.369 0-.702.439-.35.46-.594.46-.172 0-.29-.228.787-1.41 1.643-1.41.057 0 .114.006.918.1 1.67 1.028.91.23 1.695.23 1.715 0 2.837-1.092.619-1.57 1.481-2.178.818-.577 1.765-.577zm-3.244 11.376c-.356 0-.571.06-.682.124-.324.207-.17.701-.118 1.01h1.6c.039-.316.213-.798-.117-1.01-.112-.063-.326-.124-.683-.124zm8.888 1.866v1.112h1.518v-1.112zm-7.885 0v1.112h7.52v-1.112zm-1.828 0v1.112H11.5v-1.112zm-7.342 0v1.112H9.67v-1.112zm-1.963 0v1.112H2.33v-1.112zm13.342-2.977l.517.518-1.73 1.727H22v2.576H0v-2.576h8.864l-1.731-1.727.517-.518 1.6 1.596c.097-.967.76-1.19 1.612-1.217.911.024 1.47.23 1.612 1.217l1.6-1.596zm-2.957 7.397v.56h2.952v-.56zm1.485 1.101q-1.852 0-2.56.944-.707.943-.707 1.694.018 1.17.979 2.044.96.874 2.288.874 1.345 0 2.306-.874.96-.873.96-2.026 0-.769-.576-1.712-.576-.944-2.69-.944zm2.306-1.677v1.31q.629.367 1.153 1.188t.541 1.817q0 1.17-.97 2.367-.969 1.197-3.03 1.284-2.044-.087-3.022-1.284-.978-1.196-.978-2.35.017-1.013.541-1.842.524-.83 1.17-1.197v-1.293zM22 425.767v8.55h-6.695v-1.006h5.69v-6.538H4.21v6.538h5.092v1.006H3.204v-8.55zm-20.783-9.953v7.272H0v-7.272zm0 11.231v7.272H0v-7.272zm17.079 10.027q.542 0 .542.41 0 .345-.542.345-.525 0-.525-.345 0-.41.525-.41zm-.41-.23q-1.248 0-1.872.804-.312.509-.607 1.56.016.246.41.328.394.082.772.082 1.74-.64 2.692-2.216-.066-.558-1.395-.558zm-2.971 2.462q-.312.23-1.322.837t-3.151 2.52Q8.3 444.572 7.2 444.908q-1.1.337-2.585.402-1.485.066-2.24.345 0 .23.476.361 4.12-.476 6.048-.886 1.929-.41 2.848-.698.919-.287 2.347-1.091 1.428-.805 2.281-1.56.854-.755 1.117-1.181.262-.427-.649-.452-.91-.024-1.477-.262-.566-.238-.451-.583zm-12.59 6.434l-.13.131q0 .132.163.18l.312-.016q-.345-.147-.345-.295zm-.213.197l-.131.164.246-.016q-.099-.082-.115-.148zm17.35-8.453q-1.117 1.592-2.61 2.232.19-.01.357-.01 1.204 0 1.218.52 0 .82-2.798 2.822-2.799 2.003-6.59 2.594-1.642.213-1.839.64-.033.312 1.56.394h2.642q.263-.575.969-1.05l-.148.41q2.626-1.51 4.604-3.34 1.978-1.83 1.994-3.177 0-.64.64-1.608 0-.148.887-.28v-.032l-.887-.115zm-12.87 8.65l-4.546.804q.476.197.665.706.189.509-.04 1.231l4.71-1.855q-.066-.016-.312-.14-.246-.122-.435-.336-.189-.213-.041-.41zm7.14-.312q-1.772 1.182-1.739 1.543.263.854 1.28 2.167.542 0 1.026-.115.26-.062.543-.062.242 0 .5.045-1.691-2.396-1.691-2.495 0-.64.098-1.083zm4.17-9.503q.87 0 1.305.238.435.238.468.632 1.296.18 1.296.262v.328q-.033.083-1.083.394-.558.739-.558 1.346 0 1.15-.837 2.265-.837 1.116-3.595 3.66-.246 0-.509 1.461l1.543 2.364q.197.131.526.148.541-.18 1.723-.18.375.114.665.114.206 0 .369-.057.319-.113.853-.113.126 0 .263.006.558.263.099.722l-8.207.017.262-.394q-.508-.838-1.313-2.298H8.218l-6.401 2.478-.066-.23q.69-.689.574-1.559-.246-.706-1.296-.936v-.23l2.626-.475v-.017l-2.462.164q0-.065.418-.837.419-.771 1.765-.771 2.2-.066 3.242-.213 1.042-.148 3.98-2.84 2.938-2.692 4.202-2.987.607-2.462 3.102-2.462zm-8.248 20.019q-2.538 0-6.608 1.385l9.996-.077q-.058-1.06-2.706-1.281-.326-.027-.682-.027zm7.779 2.174l-1.81.501v.732l1.81-.5v-.733zm-2.504.694l-1.522.404v.732l1.522-.404v-.732zm2.504.616l-1.81.52v1.58l1.81-.501v-1.599zm-2.504.713l-1.522.385v1.598l1.522-.404v-1.58zm2.504 1.463l-1.81.501v.732l1.81-.52v-.713zm-2.504.713l-1.522.385v.732l1.522-.404v-.713zm2.504.597l-1.81.5v4.585l1.81.019v-5.104zm-2.504.694l-1.522.404v4.006l1.522-.02V464zm-11.498-5.701v10.111h9.225v-10.111zm-1.175 10.67v.597h16.987l-.385-.597zm15.87-17.045v5.797l1.483-.443v.578l-1.483.462v.732l1.483-.463v.578l-1.483.462v1.6l1.541-.482v.597l-1.54.481v.713l1.54-.482v.597l-1.54.463v5.277h1.193l1.06 1.733H1.62v-1.733h1.06v-10.092h-.713q-.52-.077-.077-.52 1.618-1.522 6.635-2.138.795-.098 1.48-.098 3.635 0 4.154 2.756h-.752v.731l1.522-.404v-6.702h.693v6.51l1.81-.501v-6.01zM11 473.32q-3.875 0-8.217 1.873 4.342 1.82 8.217 1.82 3.849 0 8.217-1.82Q14.85 473.32 11 473.32zm0-1.196q4.785 0 11 3.043-6.215 3.016-11 3.016t-11-3.016q6.19-3.043 11-3.043zm8.302 8.059l2.698 3.19h-1.316l-1.382-1.648-1.396 1.649-1.356-1.649-1.396 1.649-1.382-1.649-1.396 1.649-1.383-1.649-1.395 1.649-1.356-1.649-1.396 1.649-1.396-1.649-1.356 1.649-1.396-1.649-1.382 1.649H0l2.698-3.19 1.396 1.541 1.356-1.542 1.396 1.542 1.396-1.542 1.356 1.542 1.395-1.542 1.383 1.542 1.396-1.542 1.382 1.542 1.396-1.542 1.356 1.542 1.396-1.542zm0 5.191l2.698 3.19h-1.316l-1.382-1.648-1.396 1.648-1.356-1.648-1.396 1.648-1.382-1.648-1.396 1.648-1.383-1.648-1.395 1.648-1.356-1.648-1.396 1.648-1.396-1.648-1.356 1.648-1.396-1.648-1.382 1.648H0l2.698-3.19 1.396 1.542 1.356-1.542 1.396 1.542 1.396-1.542 1.356 1.542 1.395-1.542 1.383 1.542 1.396-1.542 1.382 1.542 1.396-1.542 1.356 1.542 1.396-1.542zM11 491.165c-1.074 0-2.418.552-3.069 1.202-.569.57-.643 1.324-.664 2.025h7.435c-.021-.701-.096-1.456-.665-2.025-.65-.65-1.963-1.202-3.037-1.202zm0-.601c1.274 0 2.645.589 3.449 1.392.824.824.917 1.909.917 2.72v.317H6.634v-.316c0-.812.062-1.897.886-2.721.803-.803 2.206-1.392 3.48-1.392zm8.302 6.429l2.698 3.19h-1.316l-1.382-1.648-1.396 1.649-1.356-1.649-1.396 1.649-1.382-1.649-1.396 1.649-1.383-1.649-1.395 1.649-1.356-1.649-1.396 1.649-1.396-1.649-1.356 1.649-1.396-1.649-1.382 1.649H0l2.698-3.19 1.396 1.541 1.356-1.542 1.396 1.542 1.396-1.542 1.356 1.542 1.395-1.542 1.383 1.542 1.396-1.542 1.382 1.542 1.396-1.542 1.356 1.542 1.396-1.542zm-1.524 8.364c.682.053 1.058.394 1.13 1.021-.09.681-.466 1.04-1.13 1.076-.663-.036-1.012-.395-1.048-1.076.053-.627.403-.968 1.048-1.021zm-.08-2.26c-.484 0-.932.09-1.345.27a3.545 3.545 0 0 0-1.828 1.815 3.11 3.11 0 0 0-.27 1.277c0 .466.09.9.27 1.304a3.422 3.422 0 0 0 3.173 2.03c.484 0 .936-.085 1.358-.255.42-.17.784-.408 1.089-.713.304-.305.546-.659.726-1.062.179-.403.269-.838.269-1.304 0-.448-.09-.874-.27-1.277a3.67 3.67 0 0 0-.725-1.076 3.302 3.302 0 0 0-1.09-.74 3.431 3.431 0 0 0-1.357-.268zm.054-.913a4.17 4.17 0 0 1 1.667.336c.52.224.968.529 1.344.914.377.385.677.834.9 1.344a4.06 4.06 0 0 1 .337 1.654c0 .592-.112 1.143-.336 1.654a4.31 4.31 0 0 1-.9 1.33 4.267 4.267 0 0 1-3.012 1.238 4.071 4.071 0 0 1-1.654-.336 4.48 4.48 0 0 1-1.345-.901 4.195 4.195 0 0 1-.914-1.331 4.071 4.071 0 0 1-.336-1.654c0-.591.112-1.143.336-1.654a4.358 4.358 0 0 1 2.259-2.258 4.071 4.071 0 0 1 1.654-.336zm-13.386 4.641c-1.074 0-2.418.552-3.069 1.203-.569.569-.643 1.323-.664 2.025h7.435c-.021-.702-.096-1.456-.665-2.025-.65-.65-1.963-1.203-3.037-1.203zm0-.6c1.274 0 2.645.588 3.449 1.391.824.825.917 1.91.917 2.721v.317H0v-.317c0-.812.062-1.896.886-2.72.803-.804 2.206-1.393 3.48-1.393zm12.511 7.222v2.116q.467-.696 2.804-.696h1.728v-1.42zm-.026-.793q.952.176 2.83.176H22v2.654h-2.319q-1.226 0-1.755.256-.537.255-1.049.732l-.026 11.859h-1.023v-15.677zm-7.888.793v2.116q.468-.696 2.804-.696h1.728v-1.42zm-.026-.793q.952.176 2.83.176h2.32v2.654h-2.32q-1.225 0-1.755.256-.537.255-1.049.732l-.026 11.859H7.914v-15.677zm-7.887.793v2.116q.467-.696 2.803-.696h1.728v-1.42zm-.027-.793q.952.176 2.83.176h2.32v2.654h-2.32q-1.225 0-1.754.256-.538.255-1.05.732l-.026 11.859H0v-15.677zm-.34 19.394zm.004.24v.001zm18.668-.917v1.417c.21-.097.417-.187.613-.283a1.93 1.93 0 0 1 .563-.158c.16-.025.328-.041.478-.072a.556.556 0 0 0 .238-.086c.019-.016.033-.035.033-.11 0-.074-.014-.093-.033-.109a.556.556 0 0 0-.238-.086c-.15-.03-.317-.047-.478-.072a1.969 1.969 0 0 1-.563-.157c-.196-.097-.403-.187-.613-.284zm0 1.417zm-.72.101zm-13.054-1.623c-.14 0-.279.002-.418.005-.783.018-1.955.206-2.925.448a8.48 8.48 0 0 0-1.215.384c-.047.02-.09.04-.13.059a2.8 2.8 0 0 0 .115.045c.305.115.734.225 1.214.322.975.198 2.153.34 2.94.36.14.003.28.004.42.004 1.416 0 2.828-.161 4.24-.326 1.506-.175 3.013-.353 4.527-.353l.23.001c1.324.016 2.844.164 4.056.674v-1.619c-1.212.51-2.732.658-4.056.674l-.23.001c-1.514 0-3.02-.178-4.527-.353-1.412-.165-2.824-.326-4.24-.326zm13.331-.935l.174.1c.402.231.824.393 1.2.578.099.048.225.071.355.092.173.026.351.045.513.078.215.044.408.116.554.238a.827.827 0 0 1 .292.663c0 .287-.109.51-.292.662-.146.122-.34.194-.554.238-.162.033-.34.052-.513.078-.13.02-.256.044-.355.093-.376.184-.798.346-1.2.577l-.173.1-.177-.094c-1.166-.627-2.791-.782-4.166-.799l-.223-.001c-1.485 0-2.964.177-4.443.349-1.44.167-2.88.33-4.326.33-.144 0-.288-.002-.432-.005-.83-.02-2.05-.167-3.068-.373a9.207 9.207 0 0 1-1.323-.354 2.156 2.156 0 0 1-.46-.226.805.805 0 0 1-.186-.172.514.514 0 0 1-.109-.31.52.52 0 0 1 .105-.308.846.846 0 0 1 .179-.175c.113-.085.268-.168.456-.25.34-.145.806-.29 1.323-.419 1.022-.255 2.247-.45 3.083-.47.144-.003.288-.005.432-.005 1.445 0 2.886.163 4.326.33 1.479.172 2.958.35 4.443.35l.223-.002c1.375-.017 3-.172 4.166-.798l.176-.095zM11 536.43c-1.074 0-2.418.551-3.069 1.202-.569.569-.643 1.323-.664 2.024h7.435c-.021-.7-.096-1.455-.665-2.024-.65-.651-1.963-1.203-3.037-1.203zm0-.602c1.274 0 2.645.589 3.449 1.392.824.824.917 1.91.917 2.721v.317H6.634v-.317c0-.812.062-1.897.886-2.72.803-.804 2.206-1.393 3.48-1.393zm-9.45 6.998q-.441 0-.441.463v3.556h1.347l-.442-3.746q-.021-.273-.463-.273zm-.02-.568q1.073 0 1.136.61.442 3.977.947 3.998l9.765.358 1.01-.042q1.137-1.2 2.02-1.2l.653-.042q1.789.337 2.147.337.252 0 .252.337 0 .463-.715.463-1.23-.196-1.885-.196-.12 0-.22.006-.358 0-.59.295.411.508 1.838.508.11 0 .225-.003 1.62-.042 2.862-.42.61 0 .61.715-.062.652-4.566.673l-2-.21-11.406-.063-3.199.042v-5.135q.021-1.031 1.116-1.031zm9.47 9.593q-3.875 0-8.217 1.873 4.342 1.82 8.217 1.82 3.849 0 8.217-1.82Q14.85 551.85 11 551.85zm0-1.196q4.785 0 11 3.043-6.215 3.016-11 3.016t-11-3.016q6.19-3.043 11-3.043zM.755 559.437c.213 1.273 1.504 2.823 3.337 4.053 2.01 1.348 4.622 2.317 6.908 2.317 2.287 0 4.898-.969 6.908-2.317 1.833-1.23 3.124-2.78 3.338-4.053zm20.884-.723c.2 0 .361.162.361.362 0 1.784-1.573 3.595-3.69 5.014-2.115 1.42-4.822 2.44-7.31 2.44-2.487 0-5.195-1.02-7.31-2.44-2.117-1.42-3.69-3.23-3.69-5.014 0-.2.162-.362.361-.362zM11 569.13c-1.074 0-2.418.552-3.069 1.203-.569.569-.643 1.323-.664 2.024h7.435c-.021-.7-.096-1.455-.665-2.024-.65-.65-1.963-1.203-3.037-1.203zm0-.6c1.274 0 2.645.588 3.449 1.391.824.824.917 1.91.917 2.721v.317H6.634v-.317c0-.812.062-1.897.886-2.72.803-.804 2.206-1.393 3.48-1.393zm7.372 8.42q-1.2.127-1.2 1.17h2.41q0-1.043-1.21-1.17zm0-.553q1.905 0 1.905 2.276h-3.786q0-2.276 1.881-2.276zm0-.522q-2.276 0-2.276 3.154 0 2.568 2.276 5.382 2.284-2.814 2.284-5.382 0-3.154-2.284-3.154zm0-.916q3.178 0 3.178 4.07 0 2.98-2.435 6.03L22 588.536q-.182.467-.648.633l-2.968-3.52-2.983 3.52q-.45-.166-.648-.633l2.884-3.477q-2.434-3.05-2.434-6.03 0-4.055 3.17-4.07zm-6.799 0l1.619 1.913h-.79l-.829-.989-.836.989-.813-.989-.837.989-.83-.989-.836.989-.83-.989-.836.989-.813-.989-.837.989-.837-.989-.813.989-.837-.989-.829.989H0l1.618-1.913.837.924.813-.924.837.924.837-.924.813.924.837-.924.829.924.837-.924.829.924.837-.924.813.924.836-.924zm-1.79 7.246c-.838 0-1.888.43-2.395.938-.445.445-.503 1.034-.519 1.581h5.804c-.016-.547-.074-1.136-.519-1.58-.508-.508-1.532-.94-2.37-.94zm0-.47c.995 0 2.065.46 2.692 1.087.644.644.717 1.49.717 2.124v.247H6.375v-.247c0-.633.048-1.48.692-2.124.627-.627 1.722-1.086 2.716-1.086zm-7.207-2.801c.087 0 .174.008.261.016 1.257.134 2.15 1.406 1.952 2.64-.087.916-.656 1.43-1.28 1.936-1.857 1.138-1.336.719-3.209 1.667l-.3-.56c2.229-1.044 2.497-1.21 3.193-1.668.569-.459 1.02-.965.98-1.731.016-.53-.3-1.075-.656-1.336a1.706 1.706 0 0 0-1.004-.34c-.268 0-.521.063-.743.222-.56.276-.869 1.193-.458 1.77.19.276.53.466.87.466a.804.804 0 0 0 .473-.15c.285-.158.498-.711.206-1.02.134-.142.324-.316.466-.316.095 0 .166.071.214.237.316.76-.19 1.62-.949 1.826-.134.04-.268.063-.403.063-.87 0-1.675-.727-1.675-1.628-.08-1.05.758-2.015 1.81-2.078.079-.008.166-.016.252-.016zm8.997 8.322l1.619 1.913h-.79l-.829-.989-.836.989-.813-.989-.837.989-.83-.989-.836.989-.83-.989-.836.989-.813-.989-.837.989-.837-.989-.813.989-.837-.989-.829.989H0l1.618-1.913.837.924.813-.924.837.924.837-.924.813.924.837-.924.829.924.837-.924.829.924.837-.924.813.924.836-.924zm8.347 5.039q-2.019.294-2.11 1.846v11.201q.943-1.126 3.388-1.583l-1.278-11.464zm.568-1.126L22 604.56q-3.368.385-4.19 2.404v2.243h-1.005V594.14q0-2.516 3.683-2.972zm-6.481.545c-.034 0-.07.001-.106.004-.465.033-.974.21-1.528.531.554.344 1.063.529 1.528.557l.087.002c.406 0 .604-.186.594-.559.01-.356-.182-.535-.575-.535zm0 3.304c-.034 0-.07.001-.106.004-.465.033-.974.21-1.528.531.554.344 1.063.529 1.528.557l.087.002c.406 0 .604-.186.594-.559.01-.356-.182-.535-.575-.535zm.061-3.85l.09.002c.592.022.922.382.988 1.08-.087.741-.403 1.112-.947 1.112h-.024c-.56-.011-1.342-.21-2.35-.598H2.23c-.786.067-1.182.432-1.187 1.096-.006.664.39 1.068 1.187 1.212h9.597c.914-.4 1.662-.6 2.242-.6l.09.002c.592.022.922.382.988 1.08-.087.741-.403 1.112-.947 1.112h-.024c-.56-.011-1.342-.21-2.35-.598H2.76l-.103.001c-1.128 0-1.905-.354-2.33-1.063-.436-.731-.436-1.462 0-2.192.42-.699 1.18-1.048 2.28-1.048.051 0 .102 0 .153.002h9.066c.914-.4 1.662-.6 2.242-.6zm-.78 7.157l1.858 2.197h-.906l-.952-1.135-.96 1.135-.934-1.135-.961 1.135-.952-1.135-.96 1.135-.952-1.135-.961 1.135-.934-1.135-.96 1.135-.962-1.135-.933 1.135-.961-1.135-.952 1.135H0l1.858-2.197.96 1.062.934-1.062.961 1.062.961-1.062.934 1.062.96-1.062.952 1.062.961-1.062.952 1.062.961-1.062.933 1.062.961-1.062zm-5.693 6.488c.566.045.878.327.937.848-.074.565-.386.862-.937.892-.55-.03-.84-.327-.87-.892.045-.52.335-.803.87-.848zm-.067-1.874c-.401 0-.773.075-1.115.223a2.941 2.941 0 0 0-1.517 1.506 2.58 2.58 0 0 0-.223 1.06c0 .386.075.747.223 1.082a2.84 2.84 0 0 0 2.632 1.684c.402 0 .778-.07 1.127-.212.35-.141.65-.338.903-.591a2.9 2.9 0 0 0 .603-.881 2.65 2.65 0 0 0 .223-1.082 2.58 2.58 0 0 0-.223-1.06 3.045 3.045 0 0 0-.603-.892 2.74 2.74 0 0 0-.903-.614 2.847 2.847 0 0 0-1.127-.223zm.045-.758c.49 0 .952.093 1.383.279.431.186.803.438 1.116.758.312.32.56.692.747 1.116.186.423.279.88.279 1.371s-.093.948-.28 1.372a3.575 3.575 0 0 1-.746 1.105 3.54 3.54 0 0 1-2.499 1.026c-.49 0-.948-.093-1.372-.28a3.717 3.717 0 0 1-1.115-.746 3.48 3.48 0 0 1-.759-1.105 3.378 3.378 0 0 1-.278-1.372c0-.49.092-.948.278-1.371a3.615 3.615 0 0 1 1.874-1.874 3.378 3.378 0 0 1 1.372-.28zm13.244 17.922q.064.643 0 1.12h.308q.463 0 .463-.593 0-.527-.54-.527zm-4.232-4.065q-1.827.026-1.827 2.296t1.376 2.914q-.257-2.74 1.312-3.19-.038-1.312-.861-2.02zm.836 0q.501 1.26.514 2.65-.874 0-1.029 1.074-.154 1.074.013 2.31.167 1.234.437 2.289h2.316q.193-1.068.353-2.296.161-1.229.007-2.303-.154-1.074-1.03-1.074.014-1.39.515-2.65zm-.876-.553h4.104q.142 0 .129.264-.013.264-.129.276h-.295q-.824.72-.85 2.007 1.274.476 1.274 1.647h.309q.913 0 .913.926 0 1.067-.746 1.067h-.399q-.487 3.5-1.025 3.5h-2.71q-.537 0-.96-3.165-1.775-.888-1.955-3.01-.358-3.512 2.34-3.512zM9.77 613.59c.21.101.466.38.078.427-.186-.008-.613-.202-.536-.38.04.038.081.052.123.052.11 0 .222-.099.335-.099zm1.53.07c.255.062.387.342.061.404h-.017c-.187 0-.699-.227-.278-.28.07-.046.14-.124.233-.124zm-2.042-1.948c-.458.536-.861 1.157-.939 1.87-.078.513-.1 1.025-.179 1.53.365-.031.257-.598.187-.87-.062-.535.225-1.032.427-1.505.14-.257.271-.66.628-.668.396.07.652.404.908.69.264-.263.544-.55.908-.659a.183.183 0 0 1 .063-.01c.082 0 .178.036.222.036.038 0 .037-.026-.044-.127-.05-.174-.152-.225-.278-.225-.185 0-.421.11-.62.11a.435.435 0 0 1-.088-.009 3.42 3.42 0 0 1-.197.006c-.339 0-.68-.052-.998-.169zm.124.59c-.302.078-.372.497-.52.745-.186.435-.411.908-.264 1.397.117.233-.03.528-.015.699.259.181.486.565.83.565a.49.49 0 0 0 .117-.014c.341-.07.512-.396.776-.551.19.184.304.566.619.566a.48.48 0 0 0 .141-.023c.288-.062.668-.031.753-.38.148-.357.163-.753.187-1.141a.251.251 0 0 1-.048.005c-.157 0-.171-.183-.185-.339-.06-.227-.223-.333-.404-.333a.591.591 0 0 0-.365.139c-.132.147-.535.264-.45.497.04.14.086.287.132.434l-.326.435c-.03-.225-.365-.411-.17-.637.03-.1.147-.232.131-.31a2.434 2.434 0 0 0-.543-.652.25.25 0 0 0-.178-.08c-.208 0-.417.273-.598.297-.179-.194.016-.271.194-.372a.544.544 0 0 1 .378-.152c.194 0 .387.101.507.276.147.089.25.383.38.383.04 0 .084-.03.132-.104.237-.189.521-.402.832-.402.045 0 .092.004.138.014.22.046.417.49.434.49.009-.365-.162-.691-.263-1.048a.475.475 0 0 0-.462-.37.462.462 0 0 0-.369.183c-.23.086-.4.492-.617.492a.208.208 0 0 1-.12-.042c-.24-.256-.434-.558-.784-.667zm1.102 5.386c-.985 1.017-1.893 3.594-2.126 4.65.38-.311.9-.513 1.017-.707.124-.202.465-2.165 1.11-3.943zm-3.508-1.847c-1.862 1.071-5.107 6.341-5.797 7.187 1.164-.737 2.313-1.482 3.562-2.088 1.754-.861 3.252-2.258 4.68-3.562-1.18-.396-2.026-1.063-2.445-1.537zm1.933 6.69c-.248.148-.474.35-.745.458.163.404.264.854.597 1.172.063.101.153.133.255.133.176 0 .39-.095.57-.095l.037.001c-.217-.543-.543-.784-.714-1.669zm-.528-7.264c-.047.097-.107.13-.17.13-.084 0-.174-.056-.249-.091-.186.132-.83.116-.45.395.24.326 1.526 1.215 2.42 1.372.385.068-.263.677-.472.895-1.21 1.086-2.398 2.235-3.85 3.019-.908.512-1.862.97-2.74 1.537-.418.605-.915 1.164-1.233 1.831.318.093.628.225.954.303.172.043.359.064.545.064.513 0 1.028-.153 1.256-.398.419-.442.877-2.328 1.117-3.019.035-.078.083-.104.136-.104.105 0 .226.103.286.103a.033.033 0 0 0 .029-.014.304.304 0 0 1 .3-.293c.135 0 .262.1.243.308.046.489.14.978.372 1.42.029.076.089.105.167.105.22 0 .59-.228.842-.29-.1-.599.714-3.656 3.105-6.218.083-.09.448-.474.416-.474-.004 0-.013.005-.028.016-.122.032-.26.054-.397.054-.261 0-.518-.08-.65-.325-.021-.06-.046-.085-.076-.085-.106 0-.267.31-.437.31a.713.713 0 0 1-.399.12.816.816 0 0 1-.602-.275c-.148-.132-.287-.264-.435-.396zm.807-4.06c.244.109.671.217 1.055.217.056 0 .11-.002.164-.007.036.007.073.01.11.01.262 0 .543-.14.796-.14.096 0 .188.02.273.076.427.62.815 1.312.862 2.08.085 1.475.047 1.987-1.118 3.198-.458 1.04-1.311 4.431-1.567 5.355-.28.264.349 1.707.613 2.064.143.198.522.208.928.208h.133c.366 0 .736.007.964.15.218.139.295.659.171.729-.116-.179-.35-.42-.512-.443.155.163-.388.086-.505.125-.313.005-.631.031-.95.031a4.05 4.05 0 0 1-.462-.024c-.07-.03-.145-.078-.177-.078-.026 0-.026.029.022.117a2.86 2.86 0 0 1-.708.086c-.543 0-1.058-.145-1.17-.435a8.356 8.356 0 0 1-.606-1.343c-.198.042-.447.182-.647.182a.294.294 0 0 1-.16-.042c-.217-.148-.442-.838-.567-1.296-.012-.048-.076-.071-.142-.071-.062 0-.126.021-.145.063-.233.466-.62 1.894-.993 2.491-.281.443-.963.661-1.688.661-.456 0-.93-.086-1.331-.257-.505-.217-.877-.17-.769-.45.171-.466.466-.908.776-1.304-.45.28-.9.567-1.35.846-.037.135-.13.189-.226.189-.183 0-.374-.2-.185-.399 1.761-2.545 4.563-6.884 6.503-8.289a2.63 2.63 0 0 1 1.08-.582c.131-.341.092-.8.17-1.187.078-.769.543-2.041 1.358-2.53zm3.452 15.964c.164 0 .33.02.494.061.331.081.69.265 1.077.552H22v1.723h-7.789c-.387.287-.746.471-1.077.552a2.01 2.01 0 0 1-.983 0c-.324-.08-.649-.265-.973-.552h-.3c-.312.287-.633.471-.964.552a2.076 2.076 0 0 1-.992 0c-.331-.08-.684-.265-1.058-.552H0v-1.723h7.864c.374-.287.727-.47 1.058-.552a2.076 2.076 0 0 1 .992 0c.33.081.652.265.964.552h.3c.324-.287.649-.47.973-.552.163-.04.326-.06.49-.06zm6.662 4.949L22 635.31h-1.316l-1.382-1.648-1.396 1.649-1.356-1.649-1.396 1.649-1.382-1.649-1.396 1.649-1.383-1.649-1.395 1.649-1.356-1.649-1.396 1.649-1.396-1.649-1.356 1.649-1.396-1.649-1.382 1.649H0l2.698-3.19 1.396 1.541 1.356-1.542 1.396 1.542 1.396-1.542 1.356 1.542 1.395-1.542 1.383 1.542 1.396-1.542 1.382 1.542 1.396-1.542 1.356 1.542 1.396-1.542zm.935 5.19c.94 0 1.763.692 1.763 1.579v16.607h-1.148v-16.607c0-.435-.382-.576-.622-.576-.253 0-.64.176-.64.71v10.915h-1.148v-10.915c0-.889.88-1.712 1.795-1.712zm-7.513 3.104c.273.131.607.495.101.556-.242-.01-.798-.263-.697-.496.052.05.105.068.16.068.142 0 .29-.128.436-.128zm1.991.09c.334.081.506.445.081.526l-.022.001c-.244 0-.91-.296-.362-.365.091-.06.182-.161.303-.161zm-2.658-2.536c-.596.697-1.122 1.506-1.223 2.435-.101.668-.131 1.335-.232 1.992.475-.04.333-.779.242-1.132-.08-.698.293-1.345.556-1.961.182-.334.354-.86.819-.87.515.091.849.526 1.182.9.344-.344.708-.718 1.183-.86a.238.238 0 0 1 .082-.012c.107 0 .231.047.289.047.05 0 .048-.035-.058-.165-.064-.227-.197-.294-.362-.294-.24 0-.548.143-.808.143a.567.567 0 0 1-.113-.011 4.41 4.41 0 0 1-.257.007c-.442 0-.885-.067-1.3-.22zm.162.768c-.394.1-.485.647-.677.97-.243.566-.536 1.183-.344 1.82.152.303-.04.687-.02.91.337.236.633.736 1.08.736.05 0 .1-.006.153-.02.445-.09.667-.515 1.01-.717.25.24.397.738.806.738.057 0 .118-.01.185-.03.374-.081.87-.04.98-.496.193-.465.213-.98.243-1.485a.327.327 0 0 1-.061.006c-.205 0-.223-.238-.242-.441-.078-.296-.29-.433-.526-.433a.77.77 0 0 0-.475.18c-.171.192-.697.344-.586.647.05.182.111.374.172.566l-.425.566c-.04-.293-.475-.536-.222-.829.04-.131.192-.303.172-.404a3.17 3.17 0 0 0-.708-.849.325.325 0 0 0-.231-.103c-.271 0-.544.355-.78.386-.232-.253.02-.354.253-.485a.709.709 0 0 1 .492-.198.81.81 0 0 1 .66.36c.193.115.326.499.495.499.053 0 .11-.039.173-.136.308-.246.678-.524 1.083-.524.06 0 .12.006.18.02.286.058.543.637.565.637l.001-.001c.01-.475-.212-.9-.344-1.365a.618.618 0 0 0-.602-.481.602.602 0 0 0-.479.239c-.3.111-.521.64-.804.64a.27.27 0 0 1-.156-.054c-.314-.334-.566-.728-1.021-.87zm1.435 7.014c-1.284 1.325-2.466 4.68-2.77 6.055.496-.404 1.173-.667 1.325-.92.161-.263.606-2.82 1.445-5.135zm-4.569-2.405c-2.425 1.395-6.65 8.258-7.55 9.36 1.516-.96 3.012-1.931 4.64-2.72 2.284-1.121 4.235-2.94 6.094-4.639-1.536-.515-2.638-1.385-3.184-2.001zm2.517 8.713c-.323.192-.616.455-.97.596.212.526.344 1.112.778 1.526.082.132.198.173.331.173.23 0 .51-.124.743-.124.017 0 .032 0 .048.002-.283-.708-.707-1.021-.93-2.173zm-.687-9.461c-.061.127-.14.168-.222.168-.11 0-.226-.072-.324-.118-.242.172-1.081.152-.586.516.313.424 1.988 1.582 3.151 1.786.502.088-.341.882-.614 1.165-1.577 1.415-3.123 2.911-5.013 3.932-1.183.667-2.426 1.264-3.569 2.002-.545.788-1.192 1.516-1.607 2.385.415.121.82.293 1.244.394a2.9 2.9 0 0 0 .71.083c.667 0 1.338-.199 1.635-.517.545-.577 1.142-3.033 1.455-3.932.045-.102.108-.135.176-.135.137 0 .295.133.373.133.016 0 .029-.005.037-.019a.395.395 0 0 1 .39-.38c.178 0 .343.13.318.4.06.637.182 1.274.485 1.85.037.099.115.136.217.136.287 0 .77-.296 1.097-.378-.131-.779.93-4.761 4.043-8.097.109-.117.583-.617.542-.617-.005 0-.017.007-.036.021-.16.042-.34.07-.517.07-.34 0-.675-.105-.848-.424-.026-.079-.06-.11-.098-.11-.138 0-.347.403-.57.403a.929.929 0 0 1-.518.157c-.293 0-.584-.133-.785-.359-.192-.171-.374-.343-.566-.515zm1.051-5.286c.318.14.874.282 1.373.282.073 0 .145-.003.214-.01a.812.812 0 0 0 .144.013c.34 0 .707-.183 1.036-.183.125 0 .245.026.356.1.556.808 1.062 1.708 1.122 2.709.112 1.92.061 2.587-1.455 4.164-.596 1.354-1.708 5.771-2.042 6.974-.364.344.455 2.224.799 2.689.187.258.68.27 1.209.27h.173c.476 0 .958.01 1.256.195.283.182.384.859.222.95-.151-.233-.455-.546-.667-.576.202.212-.505.111-.657.162-.409.006-.822.04-1.237.04-.2 0-.402-.007-.603-.03-.09-.04-.188-.102-.23-.102-.034 0-.034.037.028.152a3.724 3.724 0 0 1-.922.112c-.707 0-1.377-.189-1.524-.567a10.882 10.882 0 0 1-.788-1.748c-.258.054-.583.236-.843.236a.383.383 0 0 1-.208-.054c-.283-.192-.577-1.092-.738-1.688-.016-.062-.1-.093-.185-.093-.082 0-.165.028-.19.083-.302.606-.808 2.466-1.293 3.244-.366.577-1.253.86-2.198.86a4.526 4.526 0 0 1-1.734-.334c-.657-.283-1.142-.223-1-.587.222-.606.606-1.182 1.01-1.698-.586.364-1.172.738-1.759 1.102-.048.176-.17.246-.294.246-.239 0-.487-.26-.241-.519 2.294-3.315 5.943-8.965 8.47-10.795.404-.354.88-.626 1.405-.758.172-.445.121-1.041.222-1.546.101-1.001.708-2.659 1.77-3.295zm4.994 21.079q-3.674.448 0 6.807 3.674-6.359 0-6.806zm0-.894q5.087.353.707 8.172H22v1.107h-4.286v8.926h-1.46v-8.973H11.92v-1.06h4.333q-4.38-7.843.707-8.172zm-16.276.311q-.09 0-.172.04-.138.07-.198.238-.059.168 0 .267.139.158.278.168l.04.002q.124 0 .277-.051.118.119.277.297.198.257.535.812.376.614.554.871.416-.237.693-.237-1.247-1.545-1.614-1.941-.366-.396-.535-.446-.07-.02-.135-.02zm2.68 3.02q-.554.278-.673.496-.119.218-.02.218.1 0 .238.118.099-.356.455-.831zm.139.575l-.871 3.268q.415 0 .871.317v-3.585zm-2.781-3.906q.266 0 .563.262l2.337 2.792q.752-.118 1.168-.831-.277-.337-.94-.951-.664-.614-.545-.812.057-.12.194-.12.34 0 1.172.734.892.634 1.426 1.03.278.257.456.9.178.645.535 1.348.356.703.336 1.099-.05.247-.163.247-.114 0-.292-.247-.258-.436-.614-.99-.357-.555-.891-1.03-.377-.258-.713-.317-.377.138-.575.535v10.932q1.169.317 1.208 1.525.06.455-.277 1.406-.237.693-.891.693.436-1.644.436-2.1-.04-.91-.793-.91-.812 0-.851.91 0 .456.416 2.1-.654 0-.872-.693-.336-.95-.257-1.406-.02-1.208 1.208-1.525v-6.259q-.614-.435-1.604-.574.396-2.02.782-2.773.341-.665-.315-.665-.086 0-.19.012.238-.931.95-1.188v-.1q-.043-.003-.087-.003-.4 0-.863.32-.297-.396-.673-1.05-.396-.673-.535-.85-.139-.18-.198-.199-.113.04-.214.04-.253 0-.43-.248-.247-.346-.01-.673.238-.327.535-.367.035-.004.07-.004zm12.398 20.78q-.575 0-.448.554l1.321 5.39h1.108l-1.32-5.368q-.107-.576-.661-.576zm-1.705 0q-.532 0-.426.554l1.279 5.39h1.108l-1.279-5.368q-.128-.576-.682-.576zm-1.832 0q-.596 0-.447.554l1.3 5.39h1.107l-1.278-5.368q-.15-.576-.682-.576zm-1.79 0q-.49 0-.426.554l1.3 5.39h1.108l-1.3-5.368q-.106-.576-.681-.576zm-1.79 0q-.51 0-.446.554l1.32 5.39h1.108l-1.3-5.368q-.17-.576-.681-.576zm.768 6.605q-.533 0-.533.447 0 .448.512.448h8.48q.532 0 .532-.448 0-.447-.533-.447zm9.97.895q1.79 2.79 2.302 5.539.041.917.552.917h.023q.533-.022.34-.938-.894-3.75-3.216-5.518zm-11.483 0q-2.322 1.768-3.217 5.518-.192.916.341.937h.024q.51 0 .551-.916.512-2.748 2.301-5.54zm4.41-8.075q2.45 0 4.112.213.66.085.81.938l1.236 5.22q.17.49.788.809 3.473 2.45 4.154 6.775-.105 1.353-1.134 1.353h-.016q-1.044-.01-1.236-1.332-1.022-3.941-1.875-5.198h-1.022v.682h-1.62v-.682h-5.71v.682H6.538v-.682H5.514q-.874 1.257-1.896 5.198-.192 1.321-1.236 1.332h-.016q-1.029 0-1.134-1.353.681-4.325 4.154-6.775h-.021q.618-.341.639-.554l-1.236-5.475q-.106-.831.703-.96 1.96-.19 4.197-.19zm7.966 23.442c-1.074 0-2.418.552-3.069 1.202-.57.57-.643 1.324-.664 2.025h7.435c-.021-.701-.096-1.456-.665-2.025-.65-.65-1.963-1.202-3.037-1.202zm0-.601c1.274 0 2.645.588 3.448 1.392.825.824.918 1.909.918 2.72v.317h-8.732v-.316c0-.812.062-1.897.886-2.721.803-.804 2.206-1.392 3.48-1.392zM3.24 695.718l.445 1.012q-.951.192-1.356 1.913l-1.54-.394v.961l1.5.426q-.011 1.417.272 2.662.294 1.246 1.327 1.61.516.177 1.037.177.522 0 1.048-.177 1.053-.364 1.337-1.61.293-1.245.263-2.662l1.498-.426v-.961l-1.528.394q-.405-1.72-1.367-1.913l.465-1.012zm4.11-.71q.365 0 .05.71l-.273.617q.81.516 1.013 1.428l1.72-.517v2.562l-1.619.465q0 1.458-.415 2.916-.425 1.458-2.885 1.782-2.46-.324-2.896-1.782-.425-1.458-.425-2.916L0 699.808v-2.562l1.741.517q.203-.912 1.013-1.428l-.274-.617q-.324-.71.051-.71zm5.743 12.405q-.07 0-.14.052-.13.104-.224.615-.096.511-.338.676-.243.173-.416.173-.19 0-.19.304h.987v.753h.658v-.753h.988q0-.304-.19-.304-.191 0-.425-.173-.243-.165-.338-.676-.087-.511-.234-.615-.07-.052-.138-.052zm-4.166 0q-.072 0-.14.052-.14.104-.235.615-.095.511-.33.676-.242.173-.424.173-.19 0-.19.304h.979v.753h.667v-.753h.98q0-.304-.174-.304-.182 0-.433-.173-.243-.165-.33-.676-.086-.511-.225-.615-.074-.052-.145-.052zm-4.177-.017q-.067 0-.132.052-.138.104-.225.615-.095.502-.347.676-.242.173-.415.173-.191 0-.191.32h.988v.754h.658v-.753h.988q0-.321-.19-.321-.191 0-.425-.173-.234-.174-.33-.676-.095-.511-.242-.615-.07-.052-.137-.052zm12.521.017q-.071 0-.14.052-.148.104-.235.615-.095.511-.338.676-.233.173-.424.173-.19 0-.19.32h.987v.755h.659v-.754h.987q0-.32-.173-.32-.19 0-.433-.174-.243-.165-.33-.676-.086-.511-.225-.615-.073-.052-.145-.052zm1.732 3.49zm-16.022.116zm10.112-.651q-1.36 0-1.36 1.3 0 1.135.588 3.777.598 2.643.598 4.229 0 .91-1.074 2.365h2.495q-1.057-1.455-1.057-2.365 0-1.586.59-4.229.597-2.642.597-3.778 0-1.3-1.377-1.3zm-4.168 0q-1.378 0-1.378 1.3 0 1.135.598 3.777.598 2.643.598 4.229 0 .91-1.066 2.365h2.504q-1.083-1.455-1.083-2.365 0-1.586.598-4.229.598-2.642.598-3.778 0-1.3-1.37-1.3zm-4.177 0q-1.36 0-1.36 1.282 0 1.153.598 3.795.589 2.643.589 4.229 0 .91-1.074 2.365h2.495q-1.057-1.455-1.057-2.365 0-1.586.598-4.229.589-2.642.589-3.795 0-1.282-1.378-1.282zm12.521.017q-1.378 0-1.378 1.282 0 1.161.598 3.796.59 2.642.59 4.228 0 .91-1.058 2.366h2.496q-1.075-1.456-1.075-2.366 0-1.586.598-4.228.59-2.635.59-3.796 0-1.282-1.361-1.282zm-4.176-3.414q.147 0 .294.07.286.13.425.84.13.71.606.71.45 0 .45.997h-1.074l-.026.398q1.196 0 1.196 1.967 0 .763-.606 3.449-.607 2.686-.607 4.272 0 .736 1.083 2.21.182 0 .182.285 0 .381-.468.381h-2.894q-.476 0-.476-.38 0-.287.19-.287 1.057-1.473 1.057-2.21 0-1.585-.589-4.271-.598-2.686-.598-3.449 0-1.967 1.17-1.967v-.398h-1.074q0-.997.45-.997.477 0 .598-.71t.416-.84q.147-.07.295-.07zm-4.166 0q.145 0 .292.07.295.13.425.84.139.71.59.71.458 0 .458.997H9.61v.398q1.17 0 1.17 1.967 0 .763-.59 3.449-.597 2.686-.597 4.272 0 .736 1.057 2.21.19 0 .19.285 0 .381-.476.381H7.47q-.468 0-.468-.38 0-.287.19-.287 1.075-1.473 1.075-2.21 0-1.585-.606-4.271-.607-2.686-.607-3.449 0-1.967 1.196-1.967v-.398h-1.1q0-.997.476-.997.45 0 .59-.71.13-.71.424-.84.143-.07.288-.07zm-4.179 0q.148 0 .295.07.295.13.425.831.13.693.606.693.45 0 .45 1.023H5.45l-.017.398q1.187 0 1.187 1.95 0 .78-.607 3.466-.606 2.686-.606 4.254 0 .737 1.083 2.21.19 0 .19.303 0 .381-.476.381H3.31q-.468 0-.468-.38 0-.304.182-.304 1.066-1.473 1.066-2.21 0-1.568-.598-4.254-.598-2.686-.598-3.466 0-.31.03-.57l-.047.284q-2.08 0-2.097 3.613v7.287H0v-7.304q0-4.384 3.007-4.384l-.026.157q.231-1.033 1.083-1.033v-.398H2.989q0-1.023.45-1.023.478 0 .599-.693.121-.702.416-.832.147-.069.294-.069zm12.521.022q.147 0 .295.065.294.13.424.832.13.701.59.701.45 0 .45 1.023h-1.074v.39q.794 0 1.049.899l-.01-.067q3.007 0 3.007 4.393v7.304h-.78v-7.287q-.017-3.606-2.105-3.613.008.153.008.32 0 .78-.598 3.466-.589 2.686-.589 4.255 0 .736 1.057 2.21.19 0 .19.303 0 .364-.435.364h-2.975q-.428 0-.428-.364 0-.304.182-.304 1.083-1.473 1.083-2.21 0-1.568-.606-4.254-.607-2.686-.607-3.466 0-1.95 1.196-1.95v-.39h-1.1q0-1.022.476-1.022.45 0 .58-.701.14-.702.425-.832.148-.065.295-.065zM11 725.152c-1.074 0-2.418.552-3.069 1.203-.569.569-.643 1.323-.664 2.024h7.435c-.021-.7-.096-1.455-.665-2.024-.65-.651-1.963-1.203-3.037-1.203zm0-.6c1.274 0 2.645.588 3.449 1.391.824.824.917 1.91.917 2.721v.317H6.634v-.317c0-.812.062-1.897.886-2.72.803-.804 2.206-1.393 3.48-1.393zm6.812 7.172q-3.052.372 0 5.656 3.053-5.284 0-5.656zm0-.743q4.227.293.587 6.79H22v.92h-3.562v7.416h-1.213v-7.456h-3.6v-.88h3.6q-3.64-6.517.587-6.79zm-8.054.533q.313 0 .313.367 0 .312-.313.312-.33-.018-.33-.349 0-.33.33-.33zm1.213.238v.331l.716.129q-.33-.35-.716-.46zm-.037.441q-.422.33-.147.496.423-.147.625-.386l-.478-.11zm-1.286-.845q-.863 0-1.377.662-.515.66-.551 2.039-1.341.275-1.782 1.212-.072.607.273.607l.02-.001q.368-.018.58-.202.076-.067.115-.067.069 0 .022.205-.073.321-.808.78-.735.46-.12.763.153.075.326.075.522 0 1.227-.69.936-.92.991-1.397.056-.477-.385-.881-.262-.24-.18-.24.056 0 .272.111.532.276.56.808.027.533-.423 1.167-.45.633-1.772 1.607-.135.07-.306.07-.364 0-.888-.318-.772-.468.771-1.442-.57-.147-.588-.496-.716.239-4.022 4.445-.882.588-.9.864.018.257.275.312.055.012.112.012.208 0 .44-.159 1.028.496 1.992.514l.1.001q.897 0 1.49-.313-.607.533-.423 1.12.089.286.135.286.048 0 .048-.322 0-.625 1.598-1.194v.698q.095.395.15.395.053 0 .07-.358.111-.79.524-1.7.414-.909 1.314-2.516.9-1.607 1.148-2.315.248-.707.23-1.313-.019-.606.247-.89.267-.285.157-.616-.11-.33.33-.625v-.312q-.477-.386-.992-.386zm-3.49 10.58q-.9.258-.9.607l.606 2.26q.074.403.496.403h.735v-.036l-.937-2.866v-.367zm3.424-10.947h.066q.717 0 1.451.588.423.147.864.68-.606.55-1.102.679-.056.257-.35.716-.018 1.213-.33 2.012-.312.799-2.094 4.289-.882 1.837-.882 2.26 0 .642.808 2.883 0 .129 1.103.202 1.653.055 1.653.46 0 .238-.22.238H5.661q-.459-.367-.514-.624-.441.183-.478.496-.062.247-.176.247-.02 0-.044-.009-.147-.055-.147-.238.128-.496.643-.955l-.588-2.48q-1.782-.055-3.104-.57-.245.055-.45.055-.408 0-.652-.22-.368-.33.146-1.029 1.121-1.12 2.131-2.461 2.076-2.553 2.847-2.957.258-.533.616-.845.358-.313 1.295-.772.018-1.084.505-1.874.476-.771 1.89-.771zm2.286 25.927c-.34 0-.76.06-1.258.182-1.053.256-1.963.619-2.731 1.088-.769.47-1.63 1.06-2.582 1.77.917.465 1.972.698 3.164.698.268 0 .544-.012.826-.036 1.536-.128 2.855-.58 3.958-1.354 1.102-.776 1.376-1.252.821-1.43-.555-.178-1.006-.409-1.355-.693-.183-.15-.464-.225-.843-.225zm-7.34 3.212l-.874.192c0 .227.206.412.619.554.234.016.48.024.734.024.424 0 .877-.022 1.357-.066-.925-.114-1.537-.349-1.835-.704zm-1.343.32l-.534.106c-.057.171.142.342.598.512l.618-.042c-.44-.2-.668-.391-.682-.576zm-.811.213l-.363.085c.085.242.341.363.768.363-.242-.156-.377-.306-.405-.448zm-.598.213c-.341.1-.569.264-.682.491l.96-.213c-.185-.086-.278-.178-.278-.278zm2.22 1.26c-1.068.127-1.871.426-2.412.895l2.646-.618c-.028-.157-.107-.25-.235-.278zm12.353-13.613c-.668 0-1.173.185-1.515.554-.341.37-.448 1.263-.32 2.678s.17 2.376.128 2.88c-.042.505-.174.879-.395 1.12-.22.242-.487.48-.8.715-.313.235-.156.445.47.63s.974.459 1.045.821c.071.363-.018.697-.266 1.003-.25.306-.843.718-1.782 1.238-.939.519-1.767.85-2.486.992-.718.142-2.92.213-6.603.213-1.138.214-1.892.498-2.262.854l2.432-.555a.953.953 0 0 1 .534.405c0 .37.803.583 2.41.64.243 0 .406-.334.491-1.002l.257.213c-.129.54-.164 1.017-.107 1.43a1.6 1.6 0 0 1 1.045-.96 155.3 155.3 0 0 0 2.134-.395c.626-.121 1.259-.38 1.899-.78.569-.44 1.483-.917 2.742-1.429s1.888-1.273 1.888-2.283-.338-1.845-1.014-2.507c-.675-.661-1.013-1.454-1.013-2.379 0-.455.057-.885.17-1.29.104-.367.41-.55.92-.55.055 0 .11.001.169.005l1.792.235a1.73 1.73 0 0 0-.256-.512c-.142-.441-.299-.697-.47-.768-.024.087-.12.13-.286.13-.024 0-.05 0-.076-.002-.285-.014-.448-.157-.49-.427.028-.27.191-.412.49-.427.256.015.398.157.427.427.227.213.405.462.533.747a.27.27 0 0 0 .121.03.28.28 0 0 0 .2-.094 4.834 4.834 0 0 0-.748-1.056c-.327-.363-.796-.544-1.408-.544zm-4.843 13.911l-.683.17.768 1.11-.085-1.28zm-1.323.235c-.57 0-1.05.06-1.44.181-.392.121-.633.58-.726 1.376-.09.783.028 1.174.356 1.174h2.066c.045-.004.091-.005.138-.005.349 0 .737.094 1.163.282-.113-.996-.633-1.998-1.557-3.008zm6.166-14.552c.967 0 1.764.54 2.39 1.622.213.355.846.711 1.899 1.067.725.213 1.038.512.939.896l-.022.256c-1.351-.128-2.482-.292-3.392-.491l-1.665-.299a.9.9 0 0 0-.024 0c-.496 0-.74.42-.733 1.26.007.853.366 1.617 1.078 2.293.71.675 1.073 1.653 1.088 2.934 0 1.038-.495 1.781-1.483 2.23-.989.447-1.945.927-2.87 1.44-.925.512-1.45.91-1.579 1.194.071 1.508.256 2.482.555 2.923.498 0 1.365-.07 2.603-.213.384.057.647.181.79.373.142.192.113.402-.086.63-.095-.137-.186-.206-.273-.206a.18.18 0 0 0-.09.025c-.113.064-.398.096-.853.096H12.53c-.103-.02-.2-.03-.292-.03a.927.927 0 0 0-.604.2.999.999 0 0 1-.512-.17 56.69 56.69 0 0 1-1.576.027c-.564 0-.946-.016-1.145-.049a74.829 74.829 0 0 0-.95-.15l-.725.236a.316.316 0 0 1-.024 0c-.163 0-.183-.142-.061-.427.626-.342.768-1.202.427-2.582-.12.003-.237.004-.35.004-1.124 0-1.861-.13-2.21-.388-1.423.256-2.582.505-3.478.747l-.15-.256c.37-.413.647-.676.832-.79l-.939.192a1.103 1.103 0 0 1-.315.086c-.117 0-.047-.114.209-.342.057-.156.47-.462 1.237-.917l-1.301.256c-.142-.91.846-1.558 2.966-1.942a7.22 7.22 0 0 0 3.008-1.493c1.18-1.039 2.966-1.8 5.355-2.283 1.266-.086 1.97-.473 2.113-1.163.142-.69.138-1.789-.01-3.297-.15-1.507.06-2.489.629-2.944.426-.37.988-.555 1.685-.555z"/><path d="M5.882 750.834c.585.047.909.34.97.879-.077.585-.4.893-.97.924-.57-.03-.87-.339-.902-.924.047-.54.347-.832.902-.879zm-.07-1.941c-.416 0-.8.077-1.155.231a3.047 3.047 0 0 0-1.572 1.56 2.673 2.673 0 0 0-.23 1.098c0 .4.076.774.23 1.12a2.941 2.941 0 0 0 2.727 1.745 3.09 3.09 0 0 0 1.167-.219 2.78 2.78 0 0 0 .936-.612 3.01 3.01 0 0 0 .624-.913c.155-.347.232-.72.232-1.121 0-.385-.077-.751-.232-1.098a3.154 3.154 0 0 0-.624-.924 2.838 2.838 0 0 0-.936-.636 2.95 2.95 0 0 0-1.167-.231zm.047-.786c.508 0 .986.096 1.432.29a3.57 3.57 0 0 1 1.156.785c.324.331.582.716.774 1.155a3.5 3.5 0 0 1 .29 1.422 3.5 3.5 0 0 1-.29 1.421c-.192.44-.45.82-.774 1.144a3.668 3.668 0 0 1-2.588 1.063 3.5 3.5 0 0 1-1.422-.289 3.851 3.851 0 0 1-1.155-.774 3.606 3.606 0 0 1-.786-1.144 3.5 3.5 0 0 1-.289-1.421 3.5 3.5 0 0 1 .289-1.422 3.746 3.746 0 0 1 1.941-1.94 3.5 3.5 0 0 1 1.422-.29zm12.384 28.815q-1.359.198-1.42 1.243v7.539q.635-.758 2.28-1.066l-.86-7.716zm.382-.758l1.018 9.014q-2.267.26-2.82 1.618v1.51h-.676v-10.14q0-1.694 2.478-2.002zm-15.862 1.601v1.579h11.63v-1.58zm11.587-1.6v1.194h.448v2.39H2.358v-2.39h.362v-1.195h.405v1.195h1.003v-1.195h.406v1.195h1.003v-1.195h.405v1.195h.982v-1.195h.426v1.195h.982v-1.195h.405v1.195H9.74v-1.195h.406v1.195h1.003v-1.195h.405v1.195h.982v-1.195h.405v1.195h1.003v-1.195zm-1.078 10.336l1.526 1.804h-.744l-.782-.932-.79.932-.766-.932-.79.932-.781-.932-.79.932-.781-.932-.79.932-.766-.932-.79.932-.789-.932-.767.932-.789-.932-.782.932h-.744l1.526-1.804.79.872.766-.872.79.872.789-.872.766.872.79-.872.781.872.79-.872.781.872.79-.872.767.872.789-.872zm5.648 3.825q-.072 0-.15.07-.214.307-.26.92.102.455.501.807.279-.204.279-.715 0-.51-.177-.947-.091-.135-.193-.135zm-2.036 2.002q-.324 0-.324.306.018.316.264.316h.014q-.028-.316.065-.622h-.02zm.716-2.006q-.019.213.12.64.065.353.047.725-.028.12-.149.237-.12.116-.316.367-.13.232-.13.548 0 .222.242 1.42.037.27.14.27h.835q.093 0 .14-.26.24-1.208.24-1.421 0-.325-.13-.557-.194-.251-.315-.367-.12-.116-.149-.228-.018-.38.047-.733.14-.437.12-.641zm1.597-.437q.446.65.446 1.43 0 .78-.334 1.394l-.446 1.634q-.13.492-.27.492H17.35q-.149 0-.27-.492-.24-.864-.287-1.068-.474-.214-.483-.64 0-.214.083-.363.084-.149.358-.195.274-.046.348-.13.26-.288.335-.632-.047-.612-.344-.993-.27 0-.27-.223 0-.214.26-.214zm-5.647 3.291c-.466 0-1.049.24-1.33.521-.248.247-.28.574-.289.878h3.223c-.01-.304-.041-.631-.288-.878-.282-.282-.851-.521-1.317-.521zm0-.26c.552 0 1.146.255 1.494.603.357.357.398.827.398 1.18v.136h-3.785v-.137c0-.352.027-.822.384-1.18.348-.347.956-.603 1.508-.603zm-8.972-2.79c-.131 0-.222.063-.272.188v.01a.424.424 0 0 1 .164-.043c.099 0 .157.064.174.192.018.21.073.315.166.315a.13.13 0 0 0 .012 0c.1-.01.169-.055.206-.136 0-.057-.075-.157-.225-.3-.069-.15-.144-.226-.225-.226zm-.225.288c-.038 0-.057.023-.057.069.023.209.104.313.244.313.015 0 .03-.001.047-.004v-.018l-.075-.15c-.006-.14-.043-.208-.113-.208a.12.12 0 0 0-.018.001.13.13 0 0 0-.028-.003zm1.328.164a.7.7 0 0 1 .328.07c.1.05.124.207.08.37h-.057a.455.455 0 0 0-.089-.268c-.053-.066-.192-.103-.556-.145.114-.018.21-.027.294-.027zm.042.144h.037c.125.003.182.092.17.267v.085a.125.125 0 0 1-.018.001c-.033 0-.053-.016-.058-.048-.175-.044-.37-.134-.459-.234.068-.057.21-.071.328-.071zm.286.417c.057.075.086.15.042.259-.04.1-.267.232-.68.232-.035 0-.07 0-.108-.002l-.246-.047c.816-.027.997-.14.94-.372l.052-.07zm-.99-.76c.131.094.181.213.15.357-.019.069-.078.122-.178.16-.088.043-.125.153-.113.328-.012.382.15.679.488.891a.33.33 0 0 1 .305-.21.596.596 0 0 1 .038-.002c.128 0 .221.044.281.133.05.073.106.11.168.11.02 0 .04-.004.062-.012a.216.216 0 0 0 .05.007c.099 0 .151-.087.157-.26-.107-.006-.18-.028-.221-.066a1.017 1.017 0 0 0-.285-.126.245.245 0 0 1 .175-.069c.039 0 .076.008.105.022a.881.881 0 0 0 .244.07c.17-.031.238-.119.207-.263.1-.112.131-.206.094-.281a5.472 5.472 0 0 1-.563-.423.943.943 0 0 0-.502-.234 6.604 6.604 0 0 1-.662-.132zm-.92-.15c-1.224.185-1.62 1.817-1.36 2.421.663.407 1.145 1.023 1.445 1.849.982.073 1.806.1 2.498.1 1.897 0 2.802-.2 3.254-.2.179 0 .287.03.357.119-.012-.19-.225-.409-.453-.409a.35.35 0 0 0-.06.005c-.317.07-.943.11-1.579.11-.475 0-.957-.022-1.32-.073-.847-.12-1.4-.303-1.656-.365a1.39 1.39 0 0 1-.225-.957c.175-.176.21-.373.103-.592-.29-.1-.52-.574-.542-.792-.026-.256.06-.362-.114-.437-.407-.069-.523-.328-.348-.779zm.491-.352c.456 0 .652.166.598.305.181.075.367.124.558.146a.885.885 0 0 1 .498.22c.14.125.297.238.469.338.172.1.273.185.305.254.056.106.01.231-.141.375a.34.34 0 0 1-.15.281c-.025 0-.05.088-.075.263a.508.508 0 0 1-.291.394c-.2-.031-.335-.09-.404-.178a.262.262 0 0 0-.258-.108c-.103.016-.18.102-.23.258.044.157.004.322-.122.497-.012.132.047.31.179.535 1.084.352 1.388.454 3.036.454l.546-.003c.256-.081.475-.115.662-.115.791 0 1 .612 1.02.865-.028.135-.187.177-.381.177a3.27 3.27 0 0 1-.623-.083c-.66.066-1.712.083-2.815.083-1.115 0-2.282-.017-3.153-.017 0-.576-.476-1.26-1.426-2.055-.154-1.115.13-2.834 2.148-2.886h.05zm12.598 15.431c-.604 0-1.36.31-1.726.676-.32.32-.362.744-.374 1.139h4.181c-.011-.395-.053-.819-.373-1.139-.366-.366-1.104-.676-1.708-.676zm0-.338c.716 0 1.487.331 1.939.783.463.463.516 1.073.516 1.53v.178h-4.91v-.178c0-.457.034-1.067.498-1.53.452-.452 1.24-.783 1.957-.783z"/><path d="M9.247 797.446c.032 0 .06.004.087.01.061.018.1.04.117.068.017.028.014.064-.009.109a.488.488 0 0 0-.213-.06.257.257 0 0 0-.071.01c-.078.022-.15.05-.218.083a.91.91 0 0 1-.318.067l-.016-.084a.62.62 0 0 0 .259-.083.856.856 0 0 1 .243-.1.58.58 0 0 1 .14-.02zm.078.254c.023.044.017.083-.016.117a.206.206 0 0 0 .117-.034.253.253 0 0 0-.1-.083zm-.15 0l-.151.066c.056.023.112.04.167.05-.044-.033-.05-.072-.016-.116zm.076-.068a.25.25 0 0 1 .175.068l.117.1-.034.05-.067-.033a.406.406 0 0 1-.215.063.552.552 0 0 1-.27-.08l-.284.05-.1.017v-.1h.2l.2-.034a.53.53 0 0 1 .278-.101zm-.758-.954c-.067 0-.138.005-.214.017-.43.067-.753.235-.97.502-.218.268-.3.932-.243 1.992h.585c.458-.457.553-.82.285-1.088-.234-.2-.335-.382-.301-.544.033-.162.117-.25.25-.268a.43.43 0 0 1 .054-.003c.11 0 .197.046.265.137.034.047.063.07.087.07.03 0 .051-.037.063-.111.023-.134.285-.24.787-.319-.12-.257-.335-.385-.648-.385zm.866.603c-.491.045-.781.165-.87.36-.046.099-.1.149-.162.149-.061 0-.13-.047-.207-.14-.05-.108-.097-.16-.143-.16-.025 0-.05.016-.074.05-.067.095.016.249.25.46.324.347.218.799-.317 1.357a.493.493 0 0 0 .313.138c.106 0 .208-.052.306-.155.045-.28.15-.446.318-.502a1.14 1.14 0 0 1 .36-.056c.065 0 .132.005.2.014.061.008.112.012.153.012.098 0 .14-.023.124-.07-.022-.068-.017-.123.017-.168.03-.04 0-.06-.09-.06a.766.766 0 0 0-.058.002c-.102 0-.147-.037-.137-.11h.184a.3.3 0 0 1 .15-.1c-.055-.078-.01-.145.135-.2l-.369-.453.05-.134-.133-.234zm-1.724 2.293c-.257.1-.385.307-.385.62.207.227.465.34.772.34.04 0 .081-.002.123-.006.363-.033.6-.128.712-.284l-.235-.67c-.14.145-.291.218-.456.218-.164 0-.342-.073-.531-.218zm5.088-1.623l1.44 4.034.736-.436-2.176-3.598zm-1.592 3.322c-.043 0-.092.003-.149.009-.212.022-.373.08-.485.175-.112.095-.206.17-.285.226h-.636l.017.318 1.356-.05c.167-.078.223-.217.167-.418.145-.067.212-.131.201-.193-.008-.045-.07-.067-.186-.067zm-1.521.996l.017.234.136.003c.234 0 .387-.026.458-.078a1.16 1.16 0 0 1 .343-.159zm1.305.184c-.278.078-.457.148-.535.21-.078.06-.318.103-.72.125l-.017.335 1.155.083c.145-.089.184-.234.117-.435.168-.067.249-.134.243-.2-.005-.068-.086-.107-.243-.118zm-4.218.988v1.941l.436 1.674c-.525.491-.737 1.097-.636 1.816.1.72.15 1.281.15 1.683h.854c.011-.246-.19-.419-.603-.52-.122-1.282.084-2.17.62-2.66.145-.168.228-.319.25-.453.023-.133-.055-.524-.234-1.171v-.017h4.52c0-.212-.073-.33-.218-.352H8.07c-.625 0-1.004-.53-1.138-1.59v-.351zm.553-2.88v2.545c-.045 1.295.312 1.881 1.071 1.904h3.465c.502.067.697.423.586.925-.023.625.036 1.2.175 1.724.14.524.31 1.11.511 1.757v.57c-.245.435-.179.686.2.753h2.06v-.017c-.603-.167-1.016-.368-1.239-.603-.424-.256-.636-.585-.636-.987-.022-1.004-.112-2.204-.268-3.599.056-.602-.14-.948-.586-1.038-.346-.145-.8-.27-1.364-.376a20.994 20.994 0 0 0-1.933-.26c.078-1.26-.028-2.338-.318-3.23-.223.134-.522.206-.896.217l-.058.001c-.344 0-.601-.095-.77-.285zm1.276-4.154c.546 0 .924.336 1.134 1.008l.017.184c.2.268.32.427.36.477.039.05-.02.109-.176.176l.017.084-.05.033c.078.056.066.1-.034.134.056.056.056.112 0 .167.067.1.061.196-.017.285l.084.251h-.452l.017-.15a2 2 0 0 0-.363-.042.652.652 0 0 0-.156.016c-.112.028-.184.12-.218.276.156.1.31.371.46.812.151.441.271.879.36 1.314h.603c.301-.301.647-.452 1.038-.452l1.138-3.147c.06-.24.144-.362.256-.362.14 0 .323.194.547.58l2.243 3.532c-.357.335-.814.608-1.372.82l-1.456-4.201-1.021 2.828c.156.302.122.503-.1.603.021.335-.107.513-.386.536v.067a.87.87 0 0 1 .075-.004c.209 0 .32.088.335.263.017.195-.042.332-.175.41.01.268-.095.452-.319.553l-1.272-.067v.117c.514.056 1.05.136 1.607.242.558.107 1.072.243 1.54.41.603.19.909.653.775 1.39.134.982.151 2.081.196 3.297-.011.413.186.731.465.954.28.29.709.53 1.29.72.379.078.535.33.468.599h-2.926c-.312-.023-.485-.186-.519-.331-.033-.145-.067-.312.011-.502s.118-.393.118-.611c0-.218-.129-.75-.385-1.599a4.756 4.756 0 0 1-.285-2.042h-3.98c.155.502.211.826.167.971-.045.168-.24.472-.586.912-.346.441-.458 1.069-.335 1.883.458.157.653.503.586 1.038h-.466l.047.268h-.734v-.285h-.392v-.82c-.268-1.64-.122-2.65.435-3.03l-.401-1.556v-2.382h.593v-2.522c-.023-.525.072-.87.284-1.038h-.401c-.123-1.35-.037-2.187.259-2.511.296-.324.745-.508 1.347-.552.036-.003.07-.004.105-.004zm-5.352 0v4.291h-.817v-4.291h.817m0 5.517v4.087h-.817v-4.087h.817m0 5.109v4.087h-.817v-4.087h.817z"/><path d="M21.607 776.164c0-10.083-21.214-10.083-21.214 0m21.214 0v34.563M.393 776.164v34.563m0 8.446h21.214m0-8.446c0 10.476-21.214 10.476-21.214 0" fill="none" stroke="#000"/><path d="M20.03 822.83q-1.913.278-2 1.749v10.612q.894-1.067 3.21-1.5l-1.21-10.862zm.538-1.067L22 834.45q-3.191.365-3.97 2.278v2.125h-.952v-14.275q0-2.384 3.49-2.816zM.502 823.745v1.955h14.404v-1.955zm14.35-1.982v1.48h.556v2.96H0v-2.96h.45v-1.48h.5v1.48h1.243v-1.48h.502v1.48h1.242v-1.48h.502v1.48h1.216v-1.48h.528v1.48H7.4v-1.48h.502v1.48h1.242v-1.48h.502v1.48h1.242v-1.48h.503v1.48h1.215v-1.48h.502v1.48h1.243v-1.48zm-1.334 6.11l1.89 2.234h-.922l-.968-1.154-.978 1.154-.95-1.154-.977 1.154-.968-1.154-.978 1.154-.968-1.154-.977 1.154-.95-1.154-.977 1.154-.978-1.154-.95 1.154-.977-1.154-.968 1.154H0l1.89-2.234.977 1.08.95-1.08.978 1.08.977-1.08.95 1.08.977-1.08.968 1.08.978-1.08.968 1.08.978-1.08.95 1.08.977-1.08zm-5.792 6.556c.57.045.884.33.944.853-.075.57-.39.869-.944.899-.554-.03-.846-.33-.876-.899.045-.524.337-.808.876-.853zm-.067-1.887c-.404 0-.779.075-1.123.224a2.961 2.961 0 0 0-1.527 1.516 2.6 2.6 0 0 0-.225 1.068c0 .389.075.752.224 1.089a2.859 2.859 0 0 0 2.65 1.696c.405 0 .783-.071 1.135-.214.352-.142.655-.34.91-.595a2.92 2.92 0 0 0 .606-.887c.15-.337.225-.7.225-1.09 0-.374-.075-.73-.225-1.066a3.066 3.066 0 0 0-.606-.899 2.758 2.758 0 0 0-.91-.618 2.866 2.866 0 0 0-1.134-.224zm.045-.764a3.497 3.497 0 0 1 2.516 1.045c.314.322.565.696.752 1.123a3.4 3.4 0 0 1 .28 1.381 3.4 3.4 0 0 1-.28 1.381 3.6 3.6 0 0 1-.752 1.112 3.564 3.564 0 0 1-2.516 1.034 3.4 3.4 0 0 1-1.382-.281 3.743 3.743 0 0 1-1.123-.753 3.505 3.505 0 0 1-.763-1.112 3.4 3.4 0 0 1-.281-1.38 3.4 3.4 0 0 1 .28-1.382 3.64 3.64 0 0 1 1.887-1.887 3.4 3.4 0 0 1 1.382-.28zm13.056 9.076c.253 0 .505.019.749.05.337.084.164.47-.135.47a.359.359 0 0 1-.062-.005c-.631.072-1.409.112-1.886.47-.633.69-.349 2.124-.422 2.804-.006.037-.008 2.75-.008 4.124a4.625 4.625 0 0 1 2.877-.353c.332.174-.058.398-.318.398a.342.342 0 0 1-.086-.01c-.923.1-1.972.347-2.44 1.206-.047.155-.018.208.052.208.156 0 .512-.257.713-.257.01 0 .02 0 .03.002a5.67 5.67 0 0 1 1.19-.127c.292 0 .583.023.863.072.317.209-.072.401-.33.401a.4.4 0 0 1-.078-.007c-.942.114-1.984.369-2.44 1.229-.006.956 0 1.588-.026 2.467.01.27-.165.405-.343.405-.177 0-.356-.133-.357-.396.006-.866.068-1.626-.046-2.467-.229-.942-1.864-1.087-2.88-1.32-.222-.26.215-.357.496-.357a.92.92 0 0 1 .113.006c.13-.01.26-.015.392-.015.664 0 1.333.132 1.925.436.024-.568-.536-.895-.937-1.123-.632-.272-1.328-.299-1.989-.445-.236-.204.135-.377.392-.377.034 0 .066.003.094.01.162-.016.325-.024.488-.024.68 0 1.358.138 1.967.438-.012-2.146-.047-4.222.015-6.252.05-.628.41-1.204 1.02-1.392.436-.198.923-.27 1.407-.27zm-10.442.444c-.794 0-1.789.408-2.27.89-.421.42-.476.979-.492 1.497h5.5c-.015-.518-.07-1.076-.491-1.497-.481-.482-1.452-.89-2.247-.89zm0-.444c.943 0 1.957.435 2.551 1.03.61.609.679 1.412.679 2.012v.234h-6.46v-.234c0-.6.046-1.403.656-2.013.594-.594 1.632-1.03 2.574-1.03zm3.505 8.109v5.438h-.544v-5.438zm-3.233 0v5.438h-.544v-5.438zm-3.233 0v5.438h-.544v-5.438zm-6.45-7.423v1.828q.404-.602 2.423-.602h1.493v-1.227zm-.023-.686q.823.152 2.446.152h2.004v2.293H3.33q-1.06 0-1.517.221-.464.221-.906.633L.884 854.4H0v-13.547zm20.144 16.544l-2.298 2.02q.485.748 1.288 1.51.761-1.8 1.01-3.53zm.612-.997q.444 0 .343.61-.429.207-.36.47.07.263-.055.872-.124.609-.997 2.893.266.902-.307.902l-.052-.002q-1.55 2.852-3.42 4.97h-.332l.083-.928q1.495-1.398 3.198-4.527-.498-1.052-1.398-1.84l-2.755 2.477q-.209.093-.35.093-.384 0-.273-.688l2.769-2.367q-.012-.63.524-.63.125 0 .278.034l2.492-2.173q.38-.166.612-.166zm-10.49 8.436c-.638 0-1.439.328-1.826.716-.339.338-.383.788-.395 1.205h4.425c-.012-.417-.056-.867-.395-1.205-.387-.388-1.169-.716-1.808-.716zm0-.358c.76 0 1.575.35 2.054.829.49.49.546 1.136.546 1.62v.188H8.552v-.189c0-.483.037-1.129.527-1.62.479-.477 1.313-.828 2.072-.828zm-5.024-7.409q-1.2.175-1.253 1.097v6.653q.56-.67 2.012-.94l-.759-6.81zm.338-.67l.897 7.956q-2 .229-2.488 1.428v1.332h-.597v-8.95q0-1.494 2.188-1.765zm-4.614.67q-1.2.175-1.253 1.097v6.653q.56-.67 2.012-.94l-.759-6.81zm.338-.67l.898 7.956q-2.001.229-2.49 1.428v1.332H0v-8.95q0-1.494 2.188-1.765zm16.076 25.597l-.388 4.363h.777l-.389-4.363zm-.03-9.952l-2.51 14.315h1.614l.777-6.276h.269l.777 6.276h1.673l-2.6-14.315zm.15-2.93L22 887.317h-7.472l3.587-18.2zm-13.345.895q-3.673.448 0 6.805 3.673-6.357 0-6.805zm0-.894q5.086.353.706 8.17h4.332v1.107H5.792v8.923h-1.46v-8.97H0v-1.06h4.332q-4.38-7.84.707-8.17zm12.739 33.264c.682.054 1.058.395 1.13 1.022-.09.682-.466 1.04-1.13 1.076-.663-.036-1.012-.394-1.048-1.076.053-.627.403-.968 1.048-1.021zm-.08-2.258c-.484 0-.932.09-1.345.269a3.545 3.545 0 0 0-1.828 1.815 3.11 3.11 0 0 0-.27 1.277c0 .466.09.9.27 1.304a3.422 3.422 0 0 0 3.173 2.03c.484 0 .936-.085 1.358-.255.42-.17.784-.408 1.089-.713.304-.304.546-.658.726-1.062.179-.403.269-.838.269-1.304 0-.448-.09-.874-.27-1.277a3.67 3.67 0 0 0-.725-1.076 3.302 3.302 0 0 0-1.09-.74 3.431 3.431 0 0 0-1.357-.268zm.054-.914a4.17 4.17 0 0 1 1.667.336c.52.224.968.529 1.344.914.377.385.677.834.9 1.345.225.51.337 1.062.337 1.653 0 .592-.112 1.143-.336 1.654a4.31 4.31 0 0 1-.9 1.33 4.267 4.267 0 0 1-3.012 1.238 4.071 4.071 0 0 1-1.654-.336 4.48 4.48 0 0 1-1.345-.901 4.195 4.195 0 0 1-.914-1.331 4.071 4.071 0 0 1-.336-1.654c0-.591.112-1.143.336-1.653a4.358 4.358 0 0 1 2.259-2.26 4.071 4.071 0 0 1 1.654-.335zM3.385 889.92c-.687 0-1.151.1-1.539.539-.532.53-.633 1.316-.583 2.031.01 1.645.3 3.276.781 4.845.377 1.293.828 2.562 1.24 3.843h.199c.018-.063 1.964-5.395 2.05-8.161.016-.806.132-1.717-.42-2.388-.34-.468-1.03-.71-1.728-.71zm-.425 11.857v.698a.3.3 0 0 1-.198.282 1.762 1.762 0 0 0-.499.31h2.439a1.762 1.762 0 0 0-.5-.31.3.3 0 0 1-.198-.282v-.698zm-1.677 2.527c-.061.124-.07.374-.055.55h4.464a2.1 2.1 0 0 0 .023-.55zm.475 1.856c.324.48.97.918 1.65.918.736 0 1.451-.426 1.797-.918zm1.595-16.844c1.3 0 2.792.75 2.792 2.291.075.94-.019 1.888-.117 2.824-.295 2.33-1.174 4.525-1.896 6.747h.017c.096 0 .455.01.455.3v.8c.41.202.696.51.974.737h.893a.3.3 0 0 1 .3.3v.808c0 .16-.187.293-.348.3-.072.135-.085.256-.103.381l.336-.01h.004c.164 0 .305.147.305.3v.776a.3.3 0 0 1-.3.3c-.208 0-.688.01-.771.01h-.012c-.374.86-1.381 1.498-2.473 1.498-1.062 0-1.983-.684-2.33-1.508h-.78c-.28 0-.3-.196-.299-.3v-.776c0-.13-.057-.29.601-.29a1.497 1.497 0 0 1 .017-.376c-.29-.018-.424-.145-.424-.305v-.808a.3.3 0 0 1 .3-.3h.893c.278-.227.564-.535.974-.737v-.8a.3.3 0 0 1 .293-.3c-.007-.037-1.876-5.183-1.97-7.887-.07-1.017-.17-2.162.51-3.015.425-.585.871-.96 2.16-.96zm14.361 21.119c.207 0 .717.245.24.247-.079 0-.25.024-.378.024-.152 0-.24-.033-.03-.178.05-.035.096-.091.161-.093h.007zm-.08-.165l-.017.001c-.368.085-.659.395-1.041.501-.322.09-.85.21-.74.68.147.63.57 1.238.438 1.896-.083.411-.543.447-.913.447l-.176-.001c-2.423-.02-4.346-.121-5.89-.121-2.53 0-4.038.274-5.047 1.639-1.673 2.264-1.1 4.528-.684 7.386-.117-1.687-.676-4.343 1.058-6.638.732-.969 1.974-1.376 3.116-1.664.524-.132 1.225-.179 1.998-.179 1.785 0 3.954.247 5.216.247.3 0 .549-.014.729-.049.486-.093.833-.692.79-1.188-.057-.66-.576-1.27-.381-1.936.087-.295.345-.362.625-.362.201 0 .414.034.583.043.184.009.363.035.54.035.231 0 .456-.045.673-.236.411-.362-.712-.5-.877-.5zm-.055-.592h.038a3.437 3.437 0 0 1 1.534.46c.483.28.095.825-.232 1.066-.301.22-.64.428-1.018.428-.073 0-.148-.008-.224-.025-.193-.042-.534-.123-.768-.123-.137 0-.237.028-.247.108-.086.655.613 1.45.331 2.208-.231.62-.76 1.184-1.467 1.235-.31.023-.619.032-.928.032-1.629 0-3.25-.263-4.879-.291l-.155-.002c-3.121 0-4.692 1.63-5.05 2.643-.346.981-.596 2.009-.508 3.053.105 1.256.29 2.524.187 3.781-.09 1.11-.476 2.185-.739 3.26-.061.251-.24.377-.406.377-.182 0-.35-.15-.339-.45.055-1.386.374-2.57.337-3.848-.031-1.099-.313-2.156-.378-3.258-.075-1.278-.43-5.581 3.055-6.834 1.003-.36 2.275-.458 3.624-.458 1.596 0 3.299.137 4.79.137.557 0 1.084-.02 1.566-.072-.192-.684-.56-1.28-.474-1.993.068-.564.684-.774 1.152-.902.438-.12.735-.532 1.198-.532zM12.8 922.235c-.795 0-1.79.408-2.271.89-.421.42-.476.979-.492 1.497h5.501c-.015-.518-.07-1.077-.491-1.498-.482-.481-1.453-.89-2.247-.89zm0-.445c.942 0 1.956.436 2.55 1.03.61.61.68 1.412.68 2.013v.234H9.57v-.234c0-.6.045-1.403.655-2.013.594-.594 1.632-1.03 2.575-1.03zm-5.768 5.386c-.12 0-.18.434-.18.554 0 .12.06.555.18.555h11.505c.14 0 .21-.435.21-.555 0-.12-.07-.554-.21-.554zm11.865-.63c.32 0 .48.645.48 1.184 0 .54-.16 1.184-.48 1.184H6.672c-.3 0-.449-.644-.449-1.184 0-.539.15-1.183.45-1.183z"/></svg>