<svg xmlns="http://www.w3.org/2000/svg" width="22" height="1007.118"><path d="M9.382.325q.06 0 .114.04.216.117-.138.57-.373.373-.462.629-.088.255-.186.678-.099.423-.433 1.21l-.452.137H6.193q.236-.511.55-.924.767-.708 1.14-.944.374-.236.6-.403.227-.167.482-.639.236-.354.417-.354zM8.356 3.982l-.315.688q-.459-.046-.85-.046-.782 0-1.293.184-.098-.669-.295-.826zM6.095 5.417q-.374.02-.394.354.02.393.394.393.373 0 .393-.393-.02-.334-.393-.354zm.845-.334q.845 0 .983.786.138.787-.904 1.082.354.668 0 .845-.125.063-.244.063-.218 0-.415-.21-.305-.325-.54-.924-.237-.6-.708-.6h.334q-.216-.334-.157-.511l.034.002q.168 0 .221-.18.374-.353 1.396-.353zm1.16.059q.295 0 .845 1.268.551 1.268 1.79 2.34 1.238 1.071 1.995 2.605.757 1.533 2.96 3.362-3.854-1.829-4.837-2.261-.983-.433-3.185-2.025-1.259-.924-1.259-1.475 0-.432.099-.747v-.02q1.002 0 1.002-1.002 1.357-.669.59-2.045zm-.55 6.036q.373 1.789 1.848 3.952-.14.11-.305.11-.389 0-.914-.622 0-.983-.708-3.44zm.648.629q1.16.924 2.615 1.75v1.868q-.511-.394-1.022-.472-1.396-2.281-1.593-3.146zm.217 3.853q.267.34.551.34.258 0 .53-.28l.098 1.73q-.187-.042-.357-.042-.312 0-.567.14-.343-.115-.603-.115-.097 0-.183.017l.53-1.79zm.61-3.715l5.878 2.968q1.14 1.278 2.182 2.419v.02l-1.475.235-2.929-3.165q-.845-.688-3.657-2.477zM9.295 0H9.26q-.236.01-.491.404-.06.177-.246.393-.187.216-.54.433-.355.216-.512.344-.157.127-.53.462-.315.255-.453.413-.315-.197-.53-.482-.217-.285-.237-.521-.02-.236.05-.374.068-.137.216-.167.04-.008.08-.008.105 0 .205.057.137.079.118.276-.04.176-.256.216-.059-.025-.096-.025-.05 0-.061.044-.04.256.196.276l.052.002q.2 0 .332-.14.147-.157.127-.53Q6.547.658 6.252.62 6.198.613 6.145.613q-.24 0-.473.145-.285.177-.315.55-.03.374.266.757.295.384.649.64-.276.353-.57.884h-.846q.511.55.61 1.553l-.04-.001q-.35 0-.295.335-.55.158-.55 1.042.183-.107.343-.107.046 0 .09.009.235 0 .383.55.147.55.639 1.22v.02q-.118.235-.118.746t.904 1.475q.905 3.106.885 4.541 0 .177.255.217l-.648 2.162q-.053-.003-.108-.003-.274 0-.61.082-.192.047-.393.047-.22 0-.452-.057-.256-.063-.503-.063-.179 0-.353.034-.275.052-.437.052-.08 0-.133-.013-.511.118-.57.767.34-.197.52-.197.09 0 .139.05.147.147.58.147h5.72q.374 0 .59-.158.073-.052.171-.052.197 0 .498.21.02-.63-.668-.806-.39.144-.703.144-.241 0-.438-.085l-.098-1.947q.538.745.94.745.172 0 .318-.135-.137-1.2-.137-2.202l.55.334q.472.216 2.074 2.045 1.537 1.753 1.835 1.753.013 0 .023-.004l1.868-.393q.295-.098.118-.295l-1.474-1.67q1.376.884 2.064 1.179-.334-.374-1.12-.944l.392.138q.236-.04.197-.374-3.42-2.477-4.345-4.266-.924-1.79-2.172-2.91-1.249-1.12-1.858-2.517-.374-.884-.767-1.199L10.4.64 9.968.404 8.945 2.625l.099-.452q.118-.472.255-.708.138-.235.276-.334Q9.87.7 9.87.463q0-.236-.177-.354Q9.51 0 9.296 0zM6.662 23.34c-.095 0-.101.3-.238.744-.155.506-.27 1.563-.628 1.768a.316.316 0 0 1-.162.042c-.107 0-.215-.04-.333-.04a.434.434 0 0 0-.134.02c-.168.054-.257.316-.434.347-.734.128-1.739.08-2.3.13-.36.033.602.741 1.565.741h.04c.2-.004.411-.014.62-.014.352 0 .7.026.986.144.28.116.612.451.608.781l-.117 9.674h1.082L7.162 26.75c-.002-.294.845-.493.956-.746.192-.441.094-2.386-.217-2.647a.017.017 0 0 0-.011-.005c-.14 0-.402 2.04-.814 2.478-.042.045-.125.066-.197.066-.076 0-.14-.024-.128-.066.261-.89.367-2.19-.044-2.473a.082.082 0 0 0-.045-.017zm11.565 0c-.74 0-1.39.544-1.39 1.244v13.093h.905V24.584c0-.343.302-.454.491-.454.199 0 .505.139.505.56v8.605h.905V24.69c0-.7-.694-1.35-1.416-1.35zM5.537 46.37c.782 0 1.761.403 2.235.876.414.415.468.964.484 1.475H2.84c.015-.51.07-1.06.484-1.475.474-.473 1.43-.875 2.212-.875zm0-.437c-.928 0-1.927.429-2.512 1.014-.6.6-.668 1.39-.668 1.981v.23h6.36v-.23c0-.59-.046-1.38-.646-1.981-.585-.585-1.606-1.014-2.534-1.014zm5.364-6.684q-.087 0-.21.106-.481.649-.518 1.854.148.945.667 2.668-.185 1.39-.278 3.818-.074.815.445 1.056 1.538.408 3.892.408 2.372 0 3.891-.408.538-.24.464-1.056-.093-2.428-.278-3.818.519-1.723.667-2.668-.037-1.205-.519-1.854-.122-.106-.21-.106-.125 0-.18.218.13.37.242.722.148.445.11.834-.036.63-.12 1.029-.083.398-.342.398l-.028.001q-.436 0-.436-1.168 0-.427.111-1.038-.095-.162-.205-.162-.104 0-.22.143-.056.445-.075.983-.074.815.39 2.298-.167 2.094-.167 4.188-1.26.204-3.095.26-1.816-.056-3.077-.26 0-2.094-.166-4.188.463-1.483.389-2.298-.019-.538-.074-.983-.117-.143-.221-.143-.11 0-.206.162.112.611.112 1.038 0 1.168-.437 1.168h-.027q-.26 0-.343-.4-.083-.398-.12-1.028-.037-.389.111-.834.111-.352.241-.722-.054-.218-.18-.218zM2.975 50.73q-.075 0-.178.09-.408.55-.44 1.571.126.801.566 2.262-.158 1.178-.236 3.235-.063.691.377.896 1.303.345 3.298.345 2.01 0 3.298-.345.456-.205.393-.896-.079-2.057-.236-3.235.44-1.46.566-2.262-.032-1.02-.44-1.57-.103-.09-.178-.09-.106 0-.152.184.11.314.204.613.126.377.095.706-.032.534-.102.872-.071.338-.291.338h-.023q-.37 0-.37-.99 0-.361.095-.88-.081-.137-.175-.137-.088 0-.187.122-.047.377-.062.832-.063.691.33 1.948-.142 1.775-.142 3.55-1.068.172-2.623.22-1.539-.048-2.607-.22 0-1.775-.141-3.55.392-1.257.33-1.948-.016-.455-.063-.832-.1-.122-.187-.122-.094 0-.175.138.095.518.095.88 0 .99-.37.99l-.023-.001q-.22 0-.29-.338-.071-.338-.103-.872-.031-.33.095-.706.094-.299.204-.613-.046-.185-.152-.185zm9.26 0q-.075 0-.178.09-.408.55-.44 1.571.126.801.566 2.262-.157 1.178-.236 3.235-.063.691.377.896 1.304.345 3.298.345 2.01 0 3.298-.345.456-.205.393-.896-.078-2.057-.236-3.235.44-1.46.566-2.262-.032-1.02-.44-1.57-.103-.09-.178-.09-.106 0-.152.184.11.314.204.613.126.377.095.706-.032.534-.102.872-.071.338-.291.338h-.023q-.37 0-.37-.99 0-.361.095-.88-.081-.137-.175-.137-.088 0-.187.122-.047.377-.062.832-.063.691.33 1.948-.142 1.775-.142 3.55-1.068.172-2.623.22-1.539-.048-2.607-.22 0-1.775-.141-3.55.392-1.257.33-1.948-.016-.455-.063-.832-.1-.122-.187-.122-.094 0-.175.138.095.518.095.88 0 .99-.37.99l-.023-.001q-.22 0-.29-.338-.071-.338-.103-.872-.031-.33.095-.706.094-.299.204-.613-.046-.185-.152-.185z"/><path d="M21.607 20.59H.393m21.214 0v2.75M.393 20.59v2.75m21.214 0v35.396M.393 23.34v35.396m21.214 0v18.857M.393 58.736v18.857m21.214-16.971H.393m21.214 3.771H.393m21.214 1.887H.393m19.093 1.885v9.428m-4.243-9.428v9.428m4.243-9.428h-4.243m2.121 1.885v7.543m-4.243-9.428v9.428m-4.242-9.428v9.428m4.242-9.428H8.88M11 70.05v7.543m-4.243-9.428v9.428m-4.243-9.428v9.428m4.243-9.428H2.514m2.122 1.885v7.543" fill="none" stroke="#000"/><path d="M1.291 79.986c-.263 0-.525.02-.78.052-.35.089-.17.49.141.49a.363.363 0 0 0 .065-.005c.658.076 1.468.118 1.965.49.66.72.363 2.213.44 2.922.005.038.007 2.864.007 4.296a4.818 4.818 0 0 0-2.997-.368c-.345.182.06.415.332.415a.356.356 0 0 0 .09-.01c.96.103 2.054.36 2.542 1.255.048.162.018.218-.055.218-.162 0-.533-.269-.742-.269a.166.166 0 0 0-.032.003 5.908 5.908 0 0 0-1.239-.133 5.35 5.35 0 0 0-.9.075c-.33.218.075.418.343.418.03 0 .057-.002.082-.007.982.118 2.068.384 2.543 1.28.006.996 0 1.654.027 2.57-.012.282.171.422.357.422.184 0 .371-.138.372-.412-.007-.902-.071-1.695.047-2.57.239-.982 1.943-1.133 3.001-1.375.231-.272-.223-.373-.516-.373a.958.958 0 0 0-.118.007 5.35 5.35 0 0 0-.409-.016c-.692 0-1.389.138-2.005.455-.025-.592.558-.933.975-1.17.66-.284 1.385-.312 2.073-.464.246-.213-.14-.393-.409-.393a.455.455 0 0 0-.098.01 5.306 5.306 0 0 0-.508-.024c-.707 0-1.414.144-2.05.456.014-2.236.05-4.4-.014-6.514-.052-.654-.429-1.254-1.062-1.45-.456-.207-.963-.28-1.468-.28zM3.489 96.6c.827 0 1.864.426 2.365.927.439.439.496 1.02.512 1.56H.636c.016-.54.073-1.121.512-1.56.501-.501 1.513-.927 2.34-.927zm0-.463c-.982 0-2.039.454-2.658 1.073-.635.635-.707 1.471-.707 2.097v.244h6.73v-.244c0-.626-.048-1.462-.683-2.097-.62-.62-1.7-1.073-2.682-1.073zm16.996-13.723q.452 0 .882.49-3.545 4.221-4.432 4.717-.661.37-1.164.37-.17 0-.324-.043-.601-.169-1.287-.19h-.034q-.672 0-1.475.802h-.105q.57-1.33 1.593-1.899 1.024-.57 6.004-4.178.173-.07.342-.07zM14.21 80.49q.054 0 .108.009v5.423q-1.667.971-2.3 2.723.971-6.711 1.361-7.47.352-.685.831-.685zm-4.346 8.496q-.066 0-.125.112-.105.2.19.56.169-.443.042-.602-.056-.07-.107-.07zm.029-.301q.124 0 .268.192.317.422-.19 1.688-.57-1.097-.348-1.604.12-.276.27-.276zm5.523 2.091v.317q-.232-.021-.359-.148.042-.063.169-.169zm.485.718l1.963.274.4.717q-.675-.19-1.487-.506-.812-.317-.876-.485zm-4.326-.296l.38.19.127.908-.338 1.034h-.528l.359-1.034v-1.098zm.907.317l.36.105.126.676-.338 1.034h-.527l.358-1.034.021-.781zm1.246.126l.126.655-.337 1.034h-.528l.359-1.034v-.634l.38-.02zm-.807-2.625q.337 0 .722.082 1.14.243 1.435 1.15h.887l.337-.548q4.474 1.034 5.044 3.735-1.224-.675-2.575-.907l-.59-1.182-2.343-.317.063-.57H15.1q-.886.73-1.808.73-.198 0-.397-.033-1.129-.19-1.477-.77-.348-.58.37-1.055.474-.315 1.134-.315zm1.498-9.03q-.77 0-1.208.534-.539.654-1.003 3.44l-.738 4.832q-.36.38-.55.423h-.252q-.021-.528-.401-.971-.338-3.229.295-5.656l-.253-.485q-.908 2.743-.443 6.162h-.064q-1.456-3.271-.422-6.162l-.253-.38q-1.35 3.081.296 6.69-.465 1.013-.095 1.667.369.654.453 1.224l.148.105q.57-.844.654-1.456h.211q.021.485.275 1.013l.147 1.33-.358 1.034H9.022v.506h5.296v-.506h-.443l.338-1.034.021-.781q.38-.127.57-.296.274.254.612.254-.021.21.084.358.844.654 3.018 1.14l.739 1.435q0-.352.218-.352.07 0 .161.035l-.59-1.055q1.224.275 1.857.697.337.358-.043.865.845-.359.95-1.013-.338-3.187-5.719-4.432l-.38.633h-.337q-.275-.886-2.174-1.224.424-.314 1.043-.314.336 0 .73.093.4.094.78.094.685 0 1.309-.305.97-.475 4.938-5.244-.731-.922-1.546-.922-.267 0-.543.099l-5.128 3.671v-5.718q-.19-.028-.364-.028zM15.26 96.6c.827 0 1.863.426 2.365.927.438.439.496 1.02.512 1.56h-5.73c.016-.54.073-1.121.512-1.56.501-.501 1.513-.927 2.34-.927zm0-.463c-.983 0-2.04.454-2.658 1.073-.635.635-.707 1.471-.707 2.097v.244h6.73v-.244c0-.626-.048-1.462-.683-2.097-.62-.62-1.7-1.073-2.683-1.073zm5.985 6.137c-.213 1.272-1.504 2.823-3.337 4.052-2.01 1.349-4.622 2.317-6.908 2.317-2.287 0-4.898-.968-6.908-2.317-1.833-1.229-3.124-2.78-3.338-4.052zM.361 101.55a.36.36 0 0 0-.361.361c0 1.784 1.573 3.595 3.69 5.015 2.115 1.419 4.822 2.439 7.31 2.439 2.487 0 5.195-1.02 7.31-2.44 2.117-1.419 3.69-3.23 3.69-5.014a.36.36 0 0 0-.361-.361zm20.286 10.868c.2 0 .3.727.3.927 0 .2-.1.927-.3.927H1.403c-.234 0-.35-.726-.35-.927 0-.2.116-.927.35-.927zM.802 111.366c-.535 0-.802 1.077-.802 1.98 0 .901.267 1.979.802 1.979h20.446c.501 0 .752-1.078.752-1.98 0-.902-.25-1.98-.752-1.98zm19.845 7.011c.2 0 .3.727.3.927 0 .2-.1.927-.3.927H1.403c-.234 0-.35-.726-.35-.927 0-.2.116-.927.35-.927zM.802 117.325c-.535 0-.802 1.077-.802 1.98 0 .901.267 1.979.802 1.979h20.446c.501 0 .752-1.078.752-1.98 0-.902-.25-1.98-.752-1.98zm10.177 16.309c-.535.042-.831.31-.887.803.07.535.366.817.887.845.521-.028.796-.31.824-.845-.042-.493-.317-.76-.824-.803zm.063-1.775c.38 0 .733.07 1.057.212a2.785 2.785 0 0 1 1.437 1.426c.14.317.21.651.21 1.003 0 .366-.07.708-.21 1.025a2.689 2.689 0 0 1-2.493 1.595 2.82 2.82 0 0 1-1.068-.2 2.542 2.542 0 0 1-.855-.56c-.24-.24-.43-.518-.57-.835a2.494 2.494 0 0 1-.212-1.025c0-.352.07-.686.211-1.003.141-.317.331-.599.57-.845.24-.247.525-.44.856-.581a2.695 2.695 0 0 1 1.067-.212zm-.042-.718c-.465 0-.901.088-1.31.264-.408.176-.76.416-1.056.718a3.52 3.52 0 0 0-.708 1.057 3.199 3.199 0 0 0-.264 1.3c0 .464.088.897.264 1.298.176.402.412.75.708 1.046a3.353 3.353 0 0 0 2.366.972c.465 0 .898-.088 1.3-.264a3.52 3.52 0 0 0 1.056-.708c.303-.296.542-.644.718-1.046.176-.401.264-.834.264-1.299 0-.465-.088-.898-.264-1.3a3.424 3.424 0 0 0-1.775-1.774 3.199 3.199 0 0 0-1.299-.264zm2.338 8.516q.135 0 .221.163.134.214-.2.361-.321.16-.214.548l.307 1.323q-.32.04-.561.32v-1.656q0-.842.227-.976.123-.083.22-.083zm-.754 3.001v.498l-1.096-.115q.026-.134.414-.274.282-.102.682-.109zm.48.03q.481.1.722.593l-.868-.09V143q0-.094.12-.28.012-.017.025-.032zm1.43.553q-.073 0-.213.24.347-.12.254-.213-.017-.027-.041-.027zm-3.073.695q-.04.08-.033.127.006.047.073.074-.08 0-.147-.04.013-.08.107-.16zm.12-.026q.12.013.214.066-.053.094-.174.16.054-.066.047-.133-.007-.067-.087-.093zm-.053-.054q-.187 0-.254.28.12.08.294.08t.294-.2h.32v-.106l-.32.026q-.147-.08-.334-.08zm-3.22-.36q.801 0 0 1.483-.803-1.484 0-1.484zm6.241-.34q.051 0 .092.045.147.174-.253.361.414.628.427 1.497l-.107.013q0-.882-.347-1.456l-.027.013q.254.561.267 1.857l-.12.014q-.08-1.296-.147-1.604l-.12-.44q.202-.3.335-.3zm-2.837.416q.131 0 .243.037.268.087.268.367h.187q.04-.254.16-.254t.04.254l-.374.588v1.257l-.04.013q-.054-.094-.127-.24-.074-.148-.1-.388h-.401q-.227 0-.227-.107 0-.2.213-.227 0-.107-.066-.107l-.268-.014q.08-.187-.16-.24 0-.107.214-.481v-.227l.04.053q.174-.08.267-.093.107 0 .321.093h.24v-.093h-.24q-.187-.12-.32-.12-.148 0-.308.12 0-.107.04-.12.217-.07.398-.07zm-.291-.33l1.203.128v.112h.334v-.076l.962.103q.013.066.133.44.174.522.147 3.676l-1.683.013v-3.034q.093-.133.24-.374.147-.24.14-.514-.005-.23-.221-.23-.042 0-.093.01-.213 0-.267.267-.013-.214-.24-.315-.104-.045-.268-.045-.196 0-.48.066.013-.134.093-.228zM8.25 147.55q.537 0 .645.368h-.508q-.414-.04-.414-.348.15-.02.277-.02zm3.946-1.156v1.524h1.443q-.013.828-.153 1.99-.14 1.163-.355 1.972-.213.808.281 1.316H9.47q.134-.147.18-.494.047-.348-.3-1.176l-1.003-3.034q.009-.443.238-.443.145 0 .377.176l1.363 2.018.508.641q.134.094.238.094.207 0 .296-.374.482-1.096.361-2.686-.467-.495.468-1.524zm1.155-7.027q-.18 0-.407.145-.36.24-.36 1.416v1.453q-.37.02-.629.078-.387.086-.634.374-.247.287-.247.795-.054.214-.014.4-.227.402-.227.549 0 .08.2.08l-.04.12q.027.067.08.08-.04.054-.026.12l.093.04q-.08.362.308.362h.28q.027.253.308.681-.014.027-.26.334-.248.308-.489.742-.24.434.107.848.094 1.35-.414 2.5l-1.764-2.566q-.196-.642-.688-.642h-.02v-1.87h.949v-.321h-.95q.963-1.858-.24-1.858-1.19 0-.24 1.858H7.09v.32h.922v1.871q-.748 0-.147.949 1.417 4.25 1.377 4.53-.04.294-.395.508-.354.214-.18.401h5.319q.267-.12 0-.374-.709-.842-.455-1.617.254-.775.441-3.755h.495v-.882q0-.802-.014-1.377.107-.013.241-.067l-.027-.4.24-.014q0-.989-.427-1.563.468-.188.214-.482-.099-.12-.206-.12-.168 0-.355.294-.348-.658-.776-.853.18-.101.428-.176l-.374-1.59q-.053-.187.227-.36.374-.268.147-.642-.167-.32-.435-.32zm-6.673 15.869q-.095 0-.227.116-.52.7-.56 2 .16 1.019.72 2.878-.2 1.5-.3 4.119-.08.88.48 1.14 1.66.44 4.199.44 2.56 0 4.199-.44.58-.26.5-1.14-.1-2.62-.3-4.119.56-1.86.72-2.879-.04-1.3-.56-2-.132-.115-.227-.115-.134 0-.193.236.14.4.26.78.16.48.12.9-.04.679-.13 1.109-.09.43-.37.43h-.03q-.47 0-.47-1.26 0-.46.12-1.12-.103-.175-.222-.175-.112 0-.238.155-.06.48-.08 1.06-.08.88.42 2.48-.18 2.259-.18 4.518-1.36.22-3.339.28-1.96-.06-3.319-.28 0-2.26-.18-4.519.5-1.6.42-2.479-.02-.58-.08-1.06-.126-.155-.238-.155-.119 0-.222.175.12.66.12 1.12 0 1.26-.47 1.26h-.03q-.28 0-.37-.43-.09-.43-.13-1.11-.04-.42.12-.9.12-.38.26-.78-.059-.235-.193-.235z"/><path d="M21.607 131.141c0-10.083-21.214-10.083-21.214 0m21.214 0v34.395M.393 131.141v34.395m0 8.446h21.214m0-8.446c0 10.476-21.214 10.476-21.214 0" fill="none" stroke="#000"/><path d="M1.97 177.638q1.913.28 2 1.75V190q-.894-1.067-3.21-1.5l1.21-10.862zm-.538-1.067L0 189.26q3.191.365 3.97 2.278v2.124h.952v-14.274q0-2.384-3.49-2.817zm20.066 1.982v1.956H7.094v-1.956zm-14.35-1.982v1.48h-.556v2.96H22v-2.96h-.45v-1.48h-.501v1.48h-1.243v-1.48h-.502v1.48h-1.242v-1.48h-.502v1.48h-1.216v-1.48h-.528v1.48H14.6v-1.48h-.502v1.48h-1.242v-1.48h-.502v1.48h-1.242v-1.48h-.503v1.48H9.394v-1.48h-.502v1.48H7.649v-1.48zm1.334 6.111l-1.89 2.234h.922l.968-1.154.978 1.154.95-1.154.977 1.154.968-1.154.978 1.154.968-1.154.977 1.154.95-1.154.977 1.154.978-1.154.95 1.154.977-1.154.968 1.154H22l-1.89-2.234-.977 1.08-.95-1.08-.978 1.08-.977-1.08-.95 1.08-.977-1.08-.968 1.08-.978-1.08-.968 1.08-.978-1.08-.95 1.08-.977-1.08zm1.637 6.555c-.57.045-.884.33-.944.854.075.569.39.868.944.898.554-.03.846-.329.876-.898-.045-.524-.337-.809-.876-.854zm.067-1.886c.404 0 .779.075 1.123.224a2.961 2.961 0 0 1 1.527 1.516c.15.337.225.693.225 1.067 0 .39-.075.753-.224 1.09a2.859 2.859 0 0 1-2.65 1.696c-.405 0-.783-.072-1.135-.214a2.702 2.702 0 0 1-.91-.595 2.92 2.92 0 0 1-.606-.887c-.15-.337-.225-.7-.225-1.09 0-.374.075-.73.225-1.067a3.09 3.09 0 0 1 .606-.898c.255-.262.558-.468.91-.618.352-.15.73-.224 1.134-.224zm-.045-.764a3.48 3.48 0 0 0-1.392.28 3.472 3.472 0 0 0-1.124.764 3.743 3.743 0 0 0-.752 1.124 3.4 3.4 0 0 0-.28 1.38c0 .495.093.956.28 1.382a3.6 3.6 0 0 0 .752 1.112 3.564 3.564 0 0 0 2.516 1.033 3.4 3.4 0 0 0 1.382-.28 3.743 3.743 0 0 0 1.123-.753c.322-.314.576-.685.763-1.112a3.4 3.4 0 0 0 .281-1.381 3.4 3.4 0 0 0-.28-1.381 3.64 3.64 0 0 0-1.887-1.887 3.4 3.4 0 0 0-1.382-.281zm10.836.961v6.114H22v-6.114zM.972 196.66l2.298 2.02q-.485.748-1.288 1.51-.761-1.8-1.01-3.53zm-.612-.998q-.444 0-.343.61.429.207.36.47-.07.263.055.872.124.61.997 2.894-.266.901.307.901l.052-.002q1.55 2.852 3.42 4.97h.332l-.083-.927q-1.495-1.398-3.198-4.527.498-1.052 1.398-1.841l2.755 2.478q.209.093.35.093.384 0 .273-.689l-2.769-2.367q.012-.629-.524-.629-.125 0-.278.034l-2.492-2.173q-.38-.167-.612-.167zm10.49 8.437c.638 0 1.439.328 1.826.715.339.339.383.788.395 1.205H8.646c.012-.417.056-.866.395-1.205.387-.387 1.169-.715 1.808-.715zm0-.358c-.76 0-1.575.35-2.054.828-.49.49-.546 1.137-.546 1.62v.188h5.198v-.188c0-.483-.037-1.13-.527-1.62-.479-.478-1.313-.828-2.072-.828zm5.024-7.41q1.2.175 1.253 1.097v6.653q-.56-.669-2.012-.94l.759-6.81zm-.338-.669l-.897 7.955q2 .23 2.488 1.428v1.332h.597v-8.949q0-1.494-2.188-1.766zm4.614.669q1.2.175 1.253 1.097v6.653q-.56-.669-2.012-.94l.759-6.81zm-.338-.669l-.898 7.955q2.001.23 2.49 1.428v1.332H22v-8.949q0-1.494-2.188-1.766zM6.499 210.14q-.116.218-.26.478l-.247 1.433q0 .753.246 1.404.26.565.651 1.013-2.62-.477-4.718-.709 1.317-.781 2.07-1.737.767-.955 2.258-1.881zm6.18-.115q.796.058 2.678 1.201 1.881 1.13 3.879 1.867-1.462.087-3.185.623-1.737.52-3.647.781.304-.361.608-1.027.29-.666.29-1.419 0-.767-.276-1.433-.144-.318-.347-.593zm-3.045-.667q.5 0 .96.204.493.202.87.55.375.333.607.81.188.478.217 1.028.03.55-.174 1.028-.217.477-.55.854-.347.39-.825.607-.477.203-1.027.218H9.64q-.497 0-.957-.189-.492-.202-.868-.535-.362-.333-.58-.81-.202-.478-.23-1.043 0-.535.202-1.013.188-.478.52-.854.348-.39.826-.579.478-.26 1.013-.275h.067zm-.08-.98q-.947 0-1.868.2-1.998.434-4.053 2.59-2.055 2.143-3.604 2.287L0 214.468q3.517.304 6.904.927 1.266.232 2.664.232 2.34 0 5.05-.652 4.314-1.042 5.471-1.26H22v-1.244h-1.968q-1.404-.478-3.764-1.896-2.344-1.418-4.472-1.925-1.138-.273-2.242-.273zm-6.856 9.249L0 220.817h1.316l1.382-1.648 1.396 1.649 1.356-1.649 1.396 1.649 1.382-1.649 1.396 1.649 1.383-1.649 1.395 1.649 1.356-1.649 1.396 1.649 1.396-1.649 1.356 1.649 1.396-1.649 1.382 1.649H22l-2.698-3.19-1.396 1.541-1.356-1.542-1.396 1.542-1.396-1.542-1.356 1.542-1.395-1.542-1.383 1.542-1.396-1.542-1.382 1.542-1.396-1.542-1.356 1.542-1.396-1.542zm-1.025 5.934q.844.262.864.864.16 1.286.04 2.693-.542 7.857-.563 9.384-.02 2.19.422 4.079H.91q.442-1.889.422-4.08-.04-1.526-.603-9.383-.08-1.407.08-2.693 0-.602.865-.864zm.08-.743q-1.406 0-1.648 1.366-.16 1.527-.08 2.934.563 7.857.603 9.384.02 2.19-.482 4.32-.06.462.402.462h2.27q.442-.02.382-.462-.502-2.13-.482-4.32-.02-1.527.542-9.384.14-1.407-.04-2.934-.06-1.366-1.467-1.366zm9.101.601c1.074 0 2.418.552 3.068 1.202.57.57.644 1.324.665 2.025H7.152c.02-.701.095-1.456.664-2.025.65-.65 1.964-1.202 3.038-1.202zm0-.601c-1.275 0-2.646.588-3.449 1.392-.824.824-.917 1.909-.917 2.72v.317h8.732v-.316c0-.812-.062-1.897-.886-2.721-.804-.804-2.206-1.392-3.48-1.392zm-.613 11.147v7.32h1.225v-7.32zm9.936-11.147c-.954 0-1.79.702-1.79 1.602v16.864h1.165V224.42c0-.442.388-.584.632-.584.256 0 .65.179.65.72v11.084H22v-11.084c0-.902-.893-1.738-1.823-1.738zM11 244.48q3.875 0 8.217 1.873-4.342 1.82-8.217 1.82-3.849 0-8.217-1.82Q7.15 244.48 11 244.48zm0-1.196q-4.785 0-11 3.043 6.215 3.016 11 3.016t11-3.016q-6.19-3.043-11-3.043zm-8.302 8.059L0 254.533h1.316l1.382-1.648 1.396 1.649 1.356-1.649 1.396 1.649 1.382-1.649 1.396 1.649 1.383-1.649 1.395 1.649 1.356-1.649 1.396 1.649 1.396-1.649 1.356 1.649 1.396-1.649 1.382 1.649H22l-2.698-3.19-1.396 1.541-1.356-1.542-1.396 1.542-1.396-1.542-1.356 1.542-1.395-1.542-1.383 1.542-1.396-1.542-1.382 1.542-1.396-1.542-1.356 1.542-1.396-1.542zm0 5.191L0 259.724h1.316l1.382-1.648 1.396 1.648 1.356-1.648 1.396 1.648 1.382-1.648 1.396 1.648 1.383-1.648 1.395 1.648 1.356-1.648 1.396 1.648 1.396-1.648 1.356 1.648 1.396-1.648 1.382 1.648H22l-2.698-3.19-1.396 1.542-1.356-1.542-1.396 1.542-1.396-1.542-1.356 1.542-1.395-1.542-1.383 1.542-1.396-1.542-1.382 1.542-1.396-1.542-1.356 1.542-1.396-1.542zM11 262.325c1.074 0 2.418.552 3.069 1.202.569.57.643 1.324.664 2.025H7.298c.021-.7.096-1.455.665-2.025.65-.65 1.963-1.202 3.037-1.202zm0-.6c-1.274 0-2.645.588-3.449 1.391-.824.824-.917 1.91-.917 2.721v.316h8.732v-.316c0-.812-.062-1.897-.886-2.72-.803-.804-2.206-1.393-3.48-1.393zm-9.011 9.485q-.126 0-.244.038-.464.15-.41.45.047.254.415.254.067 0 .145-.009.504-.054.886-.409-.426-.324-.792-.324zm.236-.276q.984 0 3.036 1.173 1.03.533 2.258.533.593 0 1.232-.124 1.608-.328 3.38-.573.602-.083 1.166-.083 1.097 0 2.051.315 1.445.477 2.4.613.953.137 3.025.246-1.336.136-2.617.136t-3.026-.286q-.872-.143-1.68-.143-.807 0-1.55.143-1.486.286-3.38.531-.474.062-.932.062-1.372 0-2.6-.552-1.19-.813-2.473-.813-.567 0-1.152.158-.518-.027-.463-.572.3-.736 1.28-.764h.045zm.729-2.78q-.59 0-1.1 1.799-.427-1.59-1.102-1.59-.1 0-.207.036-.818.518.545 1.99Q0 271.016 0 271.97q0 .955 1.608 1.064.498-.13.972-.13 1.111 0 2.095.716.843.613 2.671.613 1.22 0 2.877-.273 2.036-.573 3.957-.573.729 0 1.44.083 1.781.206 3.034.206.569 0 1.029-.043Q22 273.58 22 273.197q-.627-.572-1.772-.763-2.426-.027-4.43-.845-1.002-.41-2.457-.41-1.455 0-3.363.41-1.23.31-2.292.31-1.453 0-2.588-.583-1.172-.709-2.48-1.172 1.09-.845 1.021-1.404-.068-.559-.668-.586h-.017zm6.406 8.079c-.164 0-.33.02-.494.06-.331.082-.69.266-1.077.553H0v1.723h7.789c.387.287.746.471 1.077.552a2.01 2.01 0 0 0 .983 0c.324-.081.649-.265.973-.552h.3c.312.287.633.471.964.552a2.076 2.076 0 0 0 .992 0c.331-.081.684-.265 1.058-.552H22v-1.723h-7.864c-.374-.287-.727-.47-1.058-.552a2.076 2.076 0 0 0-.992 0c-.33.081-.652.265-.964.552h-.3c-.324-.287-.649-.47-.973-.552a2.01 2.01 0 0 0-.49-.06zm-7.74 4.949c-.863 0-1.62.635-1.62 1.45v15.266h1.055v-15.265c0-.4.351-.53.572-.53.232 0 .589.163.589.653v10.033h1.055v-10.033c0-.817-.809-1.574-1.65-1.574zm19.83 2.174v2.144H5.653v-2.144zm-15.738-2.174v1.623h-.609v3.246H22v-3.246h-.493v-1.623h-.55v1.623h-1.363v-1.623h-.55v1.623h-1.362v-1.623h-.551v1.623h-1.333v-1.623h-.58v1.623h-1.333v-1.623h-.55v1.623h-1.363v-1.623h-.55v1.623h-1.363v-1.623h-.55v1.623H8.174v-1.623h-.55v1.623H6.262v-1.623zm1.464 7.716l-2.073 2.45h1.01l1.063-1.266 1.072 1.266 1.041-1.266 1.072 1.266 1.062-1.266 1.072 1.266 1.062-1.266 1.072 1.266 1.041-1.266 1.072 1.266 1.072-1.266 1.041 1.266 1.072-1.266 1.062 1.266H22l-2.073-2.45-1.072 1.184-1.04-1.184-1.073 1.184-1.072-1.184-1.041 1.184-1.072-1.184-1.062 1.184-1.072-1.184-1.062 1.184-1.072-1.184-1.041 1.184-1.072-1.184zm6.481 6.151c.274 0 .44.046.525.095.248.159.13.538.09.775h-1.229c-.03-.242-.164-.612.09-.775.086-.049.25-.095.524-.095zm-6.825 1.433v.854H5.666v-.854zm6.055 0v.854H7.112v-.854zm1.405 0v.854h-1.124v-.854zm5.638 0v.854h-5.358v-.854zm1.508 0v.854H20.21v-.854zm-10.248-2.287l-.397.399 1.33 1.325h-7.02v1.98H22v-1.98h-6.808l1.33-1.325-.398-.399-1.229 1.226c-.074-.743-.583-.913-1.238-.935-.7.019-1.129.177-1.237.935l-1.23-1.226zm-7.974 8.723q-.229.228 0 .421l-.65-.246.65-.175zm3.51-.018l.633.193-.632.246q.228-.193 0-.439zm-3.072-.017l.527.386-.562.105q.211-.193.035-.491zm2.634-.018q-.176.316.035.51l-.562-.106.527-.404zm.073-.144q-.184 0-.293.056-.377.194-.518.562.316.175.706.175.63 0 1.454-.456-.898-.337-1.349-.337zm-2.772.002q-.454 0-1.374.353.823.449 1.45.449.404 0 .727-.186-.14-.368-.518-.562-.107-.054-.285-.054zm-2.801-.838q-.103 0-.232.12-.36.334.588 1.913l.176-.122-.281-.685.017-.562-.228-.035q.07.088.079.386.009.299.307.843l-.052.053q-.123-.229-.387-.817-.263-.588-.096-.816.064-.087.129-.087.105 0 .213.227l.053-.035q-.102-.383-.286-.383zm8.364 0q-.189 0-.301.383l.052.035q.109-.227.217-.227.067 0 .135.087.175.228-.088.816-.264.588-.404.817l-.053-.053q.299-.544.308-.843.008-.298.079-.386l-.211.035.017.562-.28.685.158.122q.965-1.58.605-1.913-.129-.12-.234-.12zM.9 301.643q.15 0 .2.213.097.412.07.684-.019.197.195.197.083 0 .2-.03-.456.51-.035.93.106.58-.193.597h-.01q-.297 0-.78-1-.491-1.018-.017-1.405.229-.186.37-.186zm8.142 0q.141 0 .37.186.475.387-.026 1.405-.492 1-.78 1h-.01q-.29-.017-.184-.596.404-.422-.035-.93.112.029.192.029.207 0 .194-.197-.018-.272.079-.684.05-.213.2-.213zm-2.687.367q-.109 0-.208.021-.614.132-.825.57-.193.598-.184 1.326.009.729.404.86.395.132.272.273-.068.077-.163.077-.076 0-.17-.051-.081-.044-.153-.044-.116 0-.208.114-.074.092-.151.092t-.156-.092q-.098-.114-.212-.114-.07 0-.148.044-.09.051-.167.051-.094 0-.166-.077-.132-.14.263-.273.395-.131.404-.851.008-.72-.167-1.334-.176-.439-.764-.57-.093-.021-.198-.021-.562 0-1.478.59l-.035.264q.863-.537 1.5-.537.424 0 .747.239.368 1.369-.053 2.001-.72.176-.491.58.134.237.372.237.166 0 .382-.115.185.228.365.228t.355-.228q.223.115.393.115.245 0 .38-.238.228-.403-.51-.579-.333-.632-.035-2.001.336-.25.77-.25.634 0 1.477.53l-.052-.263q-.825-.574-1.39-.574zm-.93 3.8q.197 0 .494.11-.502.167-1.018.167-.46 0-.93-.132.34-.138.554-.138.14 0 .227.059.11.075.217.075t.213-.075q.092-.065.243-.065zm-1.455.285q.5.185 1.032.185.53 0 1.093-.185-.58.387-1.124.413l-.061.001q-.509 0-.94-.414zm.597-.509q-.421.088-.948.386.474.58.93.685.19.044.39.044.285 0 .594-.088.526-.149.772-.658-.562-.281-.93-.351l-.404.158-.404-.176zm1.738-4.318q.773.737 1.861 1.404.193.51.088.667-.105.158-.21.93-.545 1.23-1.01 2.02-.465.79-.966 1.114-.218.142-.454.142-.306 0-.643-.238-.404.277-.706.277-.157 0-.286-.075-.377-.22-1-.966-.624-.746-1.098-2.273-.105-.773-.202-.922-.096-.15.08-.676 1.544-.685 1.86-1.37.656.273 1.307.273.692 0 1.38-.307zm-1.334 6.39q.46.32.82.32.094 0 .18-.022l.352 2.3H3.584l.386-2.3q.088.022.181.022.36 0 .82-.32zm0-7.76q-2.791 0-3.546 2.493.07-.755-.369-.974-.106-.053-.215-.053-.34 0-.706.518-.483.685.746 2.44.224.483.457.483h.008q.237-.009.325-.237.491 2.072 1.966 3.072l-.492 2.95h3.582l-.422-2.95q1.124-1.036 1.966-3.072.088.228.325.237h.009q.232 0 .456-.483 1.23-1.755.738-2.44-.373-.518-.71-.518-.108 0-.212.053-.43.22-.342.974-.773-2.493-3.564-2.493zm15.804 3.372v7.32H22v-7.32zm.508 12.15v2.792H.717v-2.792zm-20.49-2.83v2.113H0v4.226h22v-4.226h-.642v-2.114h-.716v2.114h-1.774v-2.114h-.717v2.114h-1.774v-2.114h-.717v2.114h-1.735v-2.114h-.755v2.114h-1.736v-2.114h-.717v2.114H8.943v-2.114h-.717v2.114H6.453v-2.114h-.717v2.114H4v-2.114h-.717v2.114H1.509v-2.114zm3.521 8.792v.44H1.992v-.44zm-1.168.866q1.456 0 2.012.742.557.742.557 1.332-.014.92-.77 1.607-.755.687-1.8.687-1.057 0-1.812-.687-.756-.686-.756-1.593 0-.604.453-1.346.454-.742 2.116-.742zm-1.813-1.319v1.03q-.495.289-.907.935-.412.645-.426 1.428 0 .92.762 1.862.763.94 2.384 1.01 1.607-.07 2.376-1.01.77-.941.77-1.848-.014-.797-.426-1.45-.412-.652-.92-.94v-1.017zm10.835.453v.44H9.846v-.44zm-1.168.866q1.456 0 2.013.742.556.742.556 1.332-.014.92-.77 1.607-.755.687-1.799.687-1.058 0-1.813-.687-.756-.686-.756-1.593 0-.604.453-1.346.454-.742 2.116-.742zm-1.813-1.319v1.03q-.495.289-.907.935-.412.645-.426 1.428 0 .92.763 1.862.762.94 2.383 1.01 1.607-.07 2.377-1.01.769-.941.769-1.848-.014-.797-.426-1.45-.412-.652-.92-.94v-1.017zm10.835.453v.44H17.7v-.44zm-1.168.866q1.456 0 2.013.742.556.742.556 1.332-.014.92-.77 1.607-.755.687-1.799.687-1.058 0-1.813-.687-.756-.686-.756-1.593 0-.604.454-1.346.453-.742 2.115-.742zm-1.813-1.319v1.03q-.495.289-.907.935-.412.645-.426 1.428 0 .92.763 1.862.762.94 2.383 1.01 1.607-.07 2.377-1.01.769-.941.769-1.848-.014-.797-.426-1.45-.412-.652-.92-.94v-1.017zm-4.159 8.865l-.063 7.024-3.701.063-.032-7.055 3.796-.032zm.633-.6l-5.03.03.031 8.29 4.904-.095.095-8.226zm-10.817 10.32L0 342.704h1.316l1.382-1.648 1.396 1.648 1.356-1.648 1.396 1.648 1.382-1.648 1.396 1.648 1.383-1.648 1.395 1.648 1.356-1.648 1.396 1.648 1.396-1.648 1.356 1.648 1.396-1.648 1.382 1.648H22l-2.698-3.19-1.396 1.542-1.356-1.542-1.396 1.542-1.396-1.542-1.356 1.542-1.395-1.542-1.383 1.542-1.396-1.542-1.382 1.542-1.396-1.542-1.356 1.542-1.396-1.542zm1.463 5.631c1.607 0 2.971 1.2 3.453 2.389l-1.464.215c-.367-.728-1.106-1.136-2.086-1.136H4.04c-.946.007-1.688.489-1.953 1.136l-1.441-.328c.624-1.335 2.069-2.268 3.497-2.276h.018zm-.025 2.645c.59 0 .89.37.89 1.082 0 .644-.3 1.334-.89 2.1-.591-.766-.891-1.456-.891-2.1 0-.712.3-1.082.89-1.082zm0 5.026c.486.714.643 1.895 0 3.086-.419-.926-.557-2.063 0-3.086zm0-8.112c-.9 0-1.723.272-2.482.796-.758.523-1.318 1.359-1.654 2.513l1.94.127c-.04.215-.063.45-.063.732 0 .872.483 1.858 1.463 2.958-.389.752-.683 1.41-.668 2.29-.032 1.332.32 1.775.764 3.023l-2.577 5.853h1.336l1.94-4.835 1.91 4.835h1.367l-2.577-5.853c.443-1.248.747-1.656.732-3.022.015-.882-.265-1.54-.668-2.29.993-1.101 1.495-2.087 1.495-2.96 0-.281-.042-.516-.095-.73l1.94-.128c-.335-1.154-.857-1.99-1.622-2.513-.765-.524-1.596-.796-2.481-.796zm8.969.707q.942 0 .942 1.243 0 1.092-.942 2.163-.943-1.071-.943-2.163 0-1.243.943-1.243zm0 4.777q.663 0 .663 1.435 0 .814-.663 1.5-.664-.686-.664-1.5 0-1.435.664-1.435zm0 4.326q.663 0 .663 1.435 0 .814-.663 1.5-.664-.686-.664-1.5 0-1.435.664-1.435zm0-9.81q-1.714 0-1.714 1.95-.021 1.22.568 1.917.589.696.524.931-.75.878-.75 2.12 0 1.029.879 2.207-.878.878-.878 2.12 0 1.029.878 2.185.107.279-.6 1.307t-1.456 3.555h.942q.471-1.67.835-2.388.365-.717.772-1.167.428.45.781 1.167.354.718.825 2.388h.964q-.707-2.527-1.446-3.555t-.61-1.307q.856-1.156.856-2.185 0-1.242-.814-2.12.814-1.178.814-2.206 0-1.243-.728-2.12-.064-.236.514-.932.578-.697.578-1.917 0-1.95-1.734-1.95zm8.286.609v1.328h-.924v-1.328zm0 1.632v5.8h-.924v-5.8zm0 6.104v1.217h-.924v-1.217zm-2.007-.047c.162 0 .34.046.474.069v1.33c-.141.017-.322.067-.486.067-.142 0-.272-.037-.354-.165-.052-.092-.103-.27-.103-.567 0-.297.05-.475.103-.568.082-.128.218-.166.366-.166zm2.007 1.567v6.252h-.924v-6.252zm0 6.556v1.262h-.924v-1.262zm-1.533-16.42v7.37l-1.436-1.44-.43.43 1.326 1.331c-.804.08-.989.63-1.012 1.34.02.757.192 1.222 1.012 1.34l-1.327 1.33.431.43 1.436-1.439v7.6H22v-18.293zM4.377 365.604c1.19 0 2.25.55 2.942 1.41H1.436a3.76 3.76 0 0 1 2.941-1.41zm3.34 2.017c.227.432.372.914.416 1.425H.621a3.75 3.75 0 0 1 .417-1.425zm.42 2.032a3.75 3.75 0 0 1-.395 1.425h-6.73a3.75 3.75 0 0 1-.394-1.425zm-.78 2.033a3.762 3.762 0 0 1-2.98 1.457c-1.212 0-2.29-.57-2.979-1.457zm-2.98-6.69A4.383 4.383 0 0 0 0 369.374a4.383 4.383 0 0 0 4.377 4.377 4.383 4.383 0 0 0 4.378-4.377 4.383 4.383 0 0 0-4.378-4.378zm13.257 4.927c1.074 0 2.418.551 3.069 1.202.569.569.643 1.324.664 2.025h-7.435c.021-.701.096-1.456.665-2.025.65-.65 1.963-1.202 3.037-1.202zm0-.601c-1.274 0-2.645.588-3.449 1.392-.824.824-.917 1.909-.917 2.72v.317H22v-.317c0-.811-.062-1.896-.886-2.72-.803-.804-2.206-1.392-3.48-1.392zm-15.645 9.485q-.126 0-.244.038-.464.15-.41.45.047.254.415.254.067 0 .145-.008.504-.055.886-.41-.426-.324-.792-.324zm.236-.276q.984 0 3.036 1.173 1.03.533 2.258.533.593 0 1.232-.124 1.608-.327 3.38-.572.602-.084 1.166-.084 1.097 0 2.051.315 1.445.477 2.4.614.953.136 3.025.245-1.336.136-2.617.136t-3.026-.286q-.872-.143-1.68-.143-.807 0-1.55.143-1.486.286-3.38.532-.474.061-.932.061-1.372 0-2.6-.552-1.19-.813-2.473-.813-.567 0-1.152.159-.518-.028-.463-.573.3-.736 1.28-.763h.045zm.729-2.78q-.59 0-1.1 1.8-.427-1.59-1.102-1.59-.1 0-.207.036-.818.518.545 1.99-1.09.627-1.09 1.58 0 .955 1.608 1.064.498-.13.972-.13 1.111 0 2.095.716.843.614 2.671.614 1.22 0 2.877-.273 2.036-.573 3.957-.573.729 0 1.44.082 1.781.206 3.034.206.569 0 1.029-.042 2.317-.055 2.317-.436-.627-.573-1.772-.764-2.426-.027-4.43-.845-1.002-.409-2.457-.409-1.455 0-3.363.41-1.23.31-2.292.31-1.453 0-2.588-.583-1.172-.71-2.48-1.173 1.09-.845 1.021-1.404-.068-.558-.668-.586h-.017zM11 385.027q3.875 0 8.217 1.872-4.342 1.82-8.217 1.82-3.849 0-8.217-1.82 4.368-1.872 8.217-1.872zm0-1.196q-4.785 0-11 3.042 6.215 3.017 11 3.017t11-3.017q-6.19-3.042-11-3.042zm-8.235 17.592l.287 3.229h-.575l.288-3.23zm.022-7.366l1.858 10.595H3.45l-.575-4.645h-.199l-.575 4.645H.863l1.924-10.595zm-.11-2.167L0 405.36h5.53l-2.655-13.47zm7.563 10.637c.794 0 1.789.408 2.27.89.421.42.476.979.492 1.498H7.5c.015-.519.07-1.077.491-1.498.482-.482 1.453-.89 2.248-.89zm0-.445c-.943 0-1.957.436-2.552 1.03-.61.61-.679 1.413-.679 2.013v.235h6.461v-.235c0-.6-.046-1.403-.655-2.013-.595-.594-1.633-1.03-2.575-1.03zm10.237-9.132q.033 0 .036.047.008.096-.051.199-.06.103-.118.147-.018.014-.027.014-.02 0 .012-.073.03-.072.011-.072-.008 0-.026.013-.02.015-.03.015-.02 0 0-.059.03-.088.089-.177.069-.054.104-.054zm-.945.275q.118.015.221.045-.118.088-.25.103-.034.008-.064.008-.076 0-.128-.052.051-.09.092-.09l.01.001q-.058.133.09.133.147-.074.029-.148zm.693.148q.074.044.037.081-.018.019-.035.019-.016 0-.031-.019-.03-.037.03-.081zm-.707-.233q-.05 0-.09.012-.147.044-.22.236.139.086.259.086.045 0 .087-.013.155-.044.303-.177l.206-.03-.015-.058-.206.03q-.193-.086-.324-.086zm.996-.311q-.037 0-.09.027-.11.06-.184.214-.074.155-.015.23-.088.043-.095.125-.008.08.08.096h.015q.085 0 .207-.155.133-.17.162-.303.03-.133-.014-.2-.024-.034-.066-.034zm-.173-.693q.068 0 .143.005.568.037.656.487.089.45-.287.87-.176.197-.218.197-.048 0 .077-.256.237-.48.096-.738-.075-.139-.26-.139-.158 0-.396.103-.635-.074-.436-.318.173-.211.625-.211zm.152.646q.035 0 .072.008.162.037.088.28-.073.244-.22.421-.149.177-.097.347.052.17.258.214.03.354.31.65.664.678.473 1.534-.192.856-.31 1.21-.207.31-1.063.369-.147-1.077-.369-1.587-.221-.509.052-.641.273-.133.952-.473.391-.503-.45-.503l-.094.001q-.073-.437-.304-.437-.045 0-.097.017-.108.035-.185.035-.164 0-.184-.16.177-.119.096-.163-.081-.044-.229-.044.074-.133-.103-.192l.192-.472q.08-.097.262-.097.151 0 .373.067.132-.059-.119-.132-.139-.041-.274-.041-.108 0-.212.026.088-.222.191-.229h.014q.117 0 .562.11.027.047.068.047.05 0 .124-.068.102-.097.223-.097zm.456 5.107q.118 0 .22.103.163.207.326 1.313.044.945 0 1.461-.029.156-.502.156h-.044q-.074-.002-.153-.002-.474 0-1.131.038.03-.974.221-1.741.192-.768.62-1.107.03-.015.221-.133.133-.088.222-.088zm-.486-6q-.301 0-.6.119-.464.184-.744.893-.06.25-.31.782-.027.172.054.172l.02-.002q.034-.008.062-.008.056 0 .085.03-.044.044-.03.103.012.047.043.047.008 0 .017-.003.014-.003.022-.003.024 0-.015.033-.052.044.007.125.06.081.089.207.026.112.141.112l.029-.002q.14-.014.346-.073l.06.295q-.68.162-1.388.989-.472-.783-1.357-1.727.014-.767-.546-1.18-.207-.222-.273-.244-.018-.006-.033-.006-.038 0-.049.043-.088 0-.088.074-.06 0-.06.088-.088 0-.095.03-.007.03.052.088.605.576.634.827.017.067-.014.067-.024 0-.074-.038-.207-.384-.31-.413-.04-.016-.064-.016-.068 0-.025.12.118.103.236.368.118.266.259.362.14.096.228.125.207.59 1.048 1.668l-.472.221q-.443-.738-1.254-1.623.009-.757-.561-1.166-.192-.221-.259-.244-.018-.006-.032-.006-.038 0-.049.043-.088 0-.088.074-.074 0-.074.074-.074 0-.081.037-.008.037.051.096.605.575.635.826.017.068-.02.068-.026 0-.083-.038-.192-.384-.31-.414-.04-.015-.063-.015-.065 0-.011.119.118.103.236.369.118.265.258.361.14.096.23.126.516 1.224 1.224 1.933.06.019.138.019.223 0 .585-.16.487-.213.73-.324.244-.11.54-.317.206.206.324.583.118.376.206 1.232-.457.059-.428.25-.03.193.192.222l-.221.576.472.014q-.147.414-.28.937-.133.524-.133 1.188-.06.783-.081 1.122-.022.34-.008.797.015.206-.073.575-.089.37-.207.812-.192.236-.819.362-.627.125-.804.273 0 .132.324.324.157.093.354.093.213 0 .473-.108.502-.206.723-.206.457 0 .25-.738.68-1.564.576-2.184.236-.605.28-.9l.665-.015q.074.516.28 1.033.177 1.402.236 1.933-.442.502-1.003.635-.546.147-.502.324.266.217.6.217.167 0 .352-.054.553-.163.863-.236.31-.074.207-.414-.03-.25-.03-.53.251-1.565-.015-2.008-.044-.472-.044-1.402-.015-1.062-.088-1.505.014-.354-.354-1.638.25-.974.354-1.756.103-.782-.59-1.314-.251-.22-.296-.634.37-.266.524-.642.155-.376.03-.782-.126-.406-.598-.51-.17-.036-.338-.036zM2.698 407.36L0 410.55h1.316l1.382-1.648 1.396 1.648 1.356-1.648 1.396 1.648 1.382-1.648 1.396 1.648 1.383-1.648 1.395 1.648 1.356-1.648 1.396 1.648 1.396-1.648 1.356 1.648 1.396-1.648 1.382 1.648H22l-2.698-3.19-1.396 1.542-1.356-1.542-1.396 1.542-1.396-1.542-1.356 1.542-1.395-1.542-1.383 1.542-1.396-1.542-1.382 1.542-1.396-1.542-1.356 1.542-1.396-1.542zm-1.407 5.19c-.263 0-.525.02-.78.052-.35.088-.17.49.141.49a.487.487 0 0 0 .065-.005c.658.075 1.468.117 1.965.49.66.719.363 2.212.44 2.921.005.038.007 2.864.007 4.297a4.818 4.818 0 0 0-2.997-.368c-.345.181.06.414.332.414a.356.356 0 0 0 .09-.01c.96.104 2.054.362 2.542 1.256.048.162.018.217-.055.217-.162 0-.533-.268-.742-.268-.011 0-.022 0-.032.002a5.908 5.908 0 0 0-1.239-.132c-.305 0-.608.024-.9.075-.33.217.075.418.343.418.03 0 .057-.002.082-.007.982.118 2.068.384 2.543 1.28.006.996 0 1.654.027 2.57-.012.282.171.422.357.422.184 0 .371-.138.372-.412-.007-.903-.071-1.695.047-2.57.239-.982 1.943-1.133 3.001-1.376.231-.271-.223-.372-.516-.372a.958.958 0 0 0-.118.007 5.35 5.35 0 0 0-.409-.016c-.692 0-1.389.137-2.005.454-.025-.591.558-.932.975-1.17.66-.283 1.385-.311 2.073-.463.246-.214-.14-.393-.409-.393a.455.455 0 0 0-.098.01 5.306 5.306 0 0 0-.508-.025c-.707 0-1.414.144-2.05.457.014-2.236.05-4.4-.014-6.514-.052-.654-.429-1.255-1.062-1.45-.456-.207-.963-.281-1.468-.281zm2.198 16.614c.827 0 1.864.425 2.365.927.439.438.496 1.02.512 1.56H.636c.016-.54.073-1.122.512-1.56.501-.502 1.513-.927 2.34-.927zm0-.463c-.982 0-2.039.453-2.658 1.073-.635.635-.707 1.47-.707 2.097v.243h6.73v-.243c0-.626-.048-1.462-.683-2.097-.62-.62-1.7-1.073-2.682-1.073zm16.996-13.724q.452 0 .882.491-3.545 4.22-4.432 4.717-.661.37-1.164.37-.17 0-.324-.043-.601-.169-1.287-.19h-.034q-.672 0-1.475.802h-.105q.57-1.33 1.593-1.9 1.024-.57 6.004-4.178.173-.069.342-.069zm-6.275-1.923q.054 0 .108.008v5.424q-1.667.97-2.3 2.722.971-6.71 1.361-7.47.352-.684.831-.684zm-4.346 8.496q-.066 0-.125.112-.105.2.19.56.169-.444.042-.602-.056-.07-.107-.07zm.029-.301q.124 0 .268.191.317.422-.19 1.689-.57-1.098-.348-1.604.12-.276.27-.276zm5.523 2.09v.317q-.232-.02-.359-.147.042-.064.169-.17zm.485.718l1.963.275.4.717q-.675-.19-1.487-.506-.812-.317-.876-.486zm-4.326-.295l.38.19.127.907-.338 1.034h-.528l.359-1.034v-1.097zm.907.316l.36.106.126.675-.338 1.034h-.527l.358-1.034.021-.78zm1.246.127l.126.654-.337 1.034h-.528l.359-1.034v-.633l.38-.021zm-.807-2.625q.337 0 .722.082 1.14.243 1.435 1.15h.887l.337-.549q4.474 1.034 5.044 3.736-1.224-.676-2.575-.908l-.59-1.182-2.343-.316.063-.57H15.1q-.886.73-1.808.73-.198 0-.397-.033-1.129-.19-1.477-.77-.348-.581.37-1.056.474-.314 1.134-.314zm1.498-9.03q-.77 0-1.208.534-.539.654-1.003 3.44l-.738 4.832q-.36.38-.55.422h-.252q-.021-.528-.401-.97-.338-3.23.295-5.656l-.253-.486q-.908 2.744-.443 6.162h-.064q-1.456-3.27-.422-6.162l-.253-.38q-1.35 3.082.296 6.69-.465 1.013-.095 1.667.369.654.453 1.224l.148.106q.57-.844.654-1.456h.211q.021.485.275 1.013l.147 1.33-.358 1.033H9.022v.507h5.296v-.507h-.443l.338-1.034.021-.78q.38-.127.57-.296.274.253.612.253-.021.211.084.359.844.654 3.018 1.14l.739 1.434q0-.352.218-.352.07 0 .161.036l-.59-1.055q1.224.274 1.857.696.337.359-.043.865.845-.358.95-1.013-.338-3.186-5.719-4.431l-.38.633h-.337q-.275-.886-2.174-1.224.424-.315 1.043-.315.336 0 .73.093.4.095.78.095.685 0 1.309-.306.97-.475 4.938-5.244-.731-.922-1.546-.922-.267 0-.543.1l-5.128 3.671v-5.719q-.19-.027-.364-.027zm.841 16.614c.827 0 1.863.425 2.365.927.438.438.496 1.02.512 1.56h-5.73c.016-.54.073-1.122.512-1.56.501-.502 1.513-.927 2.34-.927zm0-.463c-.983 0-2.04.453-2.658 1.073-.635.635-.707 1.47-.707 2.097v.243h6.73v-.243c0-.626-.048-1.462-.683-2.097-.62-.62-1.7-1.073-2.683-1.073zm5.985 6.136c-.213 1.273-1.504 2.824-3.337 4.053-2.01 1.348-4.622 2.317-6.908 2.317-2.287 0-4.898-.969-6.908-2.317-1.833-1.23-3.124-2.78-3.338-4.053zm-20.884-.723c-.2 0-.361.162-.361.362 0 1.784 1.573 3.595 3.69 5.014 2.115 1.42 4.822 2.44 7.31 2.44 2.487 0 5.195-1.02 7.31-2.44 2.117-1.419 3.69-3.23 3.69-5.014 0-.2-.162-.362-.361-.362zm20.286 10.868c.2 0 .3.726.3.927 0 .2-.1.927-.3.927H1.403c-.234 0-.35-.727-.35-.927 0-.2.116-.927.35-.927zM.802 443.929c-.535 0-.802 1.078-.802 1.98 0 .902.267 1.98.802 1.98h20.446c.501 0 .752-1.078.752-1.98 0-.902-.25-1.98-.752-1.98zm19.845 7.011c.2 0 .3.727.3.928 0 .2-.1.927-.3.927H1.403c-.234 0-.35-.727-.35-.927 0-.2.116-.927.35-.927zM.802 449.889c-.535 0-.802 1.078-.802 1.98 0 .902.267 1.98.802 1.98h20.446c.501 0 .752-1.078.752-1.98 0-.902-.25-1.98-.752-1.98zm10.177 16.309c-.535.042-.831.31-.887.802.07.536.366.817.887.845.521-.028.796-.31.824-.845-.042-.493-.317-.76-.824-.802zm.063-1.775c.38 0 .733.07 1.057.211a2.785 2.785 0 0 1 1.437 1.426c.14.317.21.652.21 1.004 0 .366-.07.708-.21 1.024a2.689 2.689 0 0 1-2.493 1.595 2.82 2.82 0 0 1-1.068-.2 2.542 2.542 0 0 1-.855-.56c-.24-.24-.43-.518-.57-.835a2.494 2.494 0 0 1-.212-1.024c0-.352.07-.687.211-1.004a2.9 2.9 0 0 1 .57-.845 2.678 2.678 0 0 1 1.923-.792zm-.042-.718c-.465 0-.901.088-1.31.264-.408.176-.76.415-1.056.718a3.52 3.52 0 0 0-.708 1.056 3.199 3.199 0 0 0-.264 1.3c0 .464.088.898.264 1.299.176.401.412.75.708 1.046a3.353 3.353 0 0 0 2.366.972c.465 0 .898-.088 1.3-.264a3.52 3.52 0 0 0 1.056-.708 3.3 3.3 0 0 0 .718-1.046 3.2 3.2 0 0 0 .264-1.3c0-.464-.088-.897-.264-1.299a3.424 3.424 0 0 0-1.775-1.774 3.199 3.199 0 0 0-1.299-.264zm8.106 9.575zm-.003.19zm-14.668-.721v1.112c-.165-.075-.328-.146-.481-.222-.13-.064-.283-.1-.443-.124-.126-.02-.257-.032-.375-.056a.436.436 0 0 1-.188-.068c-.014-.012-.025-.028-.025-.086 0-.058.01-.074.025-.086a.436.436 0 0 1 .188-.067c.118-.025.249-.038.375-.057.16-.025.313-.06.443-.124.153-.075.316-.147.481-.222zm0 1.112zm.566.08zm10.256-1.275c.11 0 .22.001.33.004.614.014 1.536.162 2.298.352.377.094.714.198.954.301.037.016.07.031.102.047a2.2 2.2 0 0 1-.09.036 6.69 6.69 0 0 1-.954.252c-.766.156-1.692.268-2.31.282-.11.003-.22.004-.33.004-1.113 0-2.222-.127-3.331-.256-1.184-.137-2.368-.277-3.557-.277h-.181c-1.04.013-2.235.13-3.187.53v-1.272c.952.4 2.147.517 3.187.53h.18c1.19 0 2.374-.14 3.558-.277 1.11-.13 2.218-.256 3.331-.256zm-10.474-.735l-.136.078c-.316.182-.648.31-.943.455a.994.994 0 0 1-.28.072c-.135.02-.275.035-.402.061a.98.98 0 0 0-.436.188.65.65 0 0 0-.229.52c0 .226.086.4.23.52a.98.98 0 0 0 .435.188c.127.026.267.04.403.061a.994.994 0 0 1 .28.073c.294.145.626.272.942.454l.136.078.139-.074c.916-.493 2.193-.615 3.273-.628h.175c1.167 0 2.33.138 3.49.273 1.133.132 2.264.26 3.4.26.113 0 .226-.001.34-.004.652-.015 1.61-.131 2.41-.293a7.234 7.234 0 0 0 1.04-.278c.149-.056.271-.115.361-.177a.632.632 0 0 0 .146-.136.404.404 0 0 0 .086-.244.41.41 0 0 0-.083-.241.665.665 0 0 0-.14-.138 1.78 1.78 0 0 0-.358-.196 7.216 7.216 0 0 0-1.04-.33c-.803-.2-1.765-.353-2.422-.369a14.434 14.434 0 0 0-.34-.004c-1.136 0-2.267.128-3.4.26-1.16.135-2.323.274-3.49.274l-.175-.001c-1.08-.013-2.357-.135-3.273-.628l-.139-.074zm3.839 4.319q-.263 0-.287.231l.255-.056q.159 0 .087.167-.183.175-.055.518-.233.502-.898.502l-.08-.001q.03.374-.16.564-.668.382-.668.7.525.247.175.605-.35.358-.35.485.23.072.318.247.398.97.803 1.376l-.031.326q.39 0 .43-.413-.733-.891-.709-1.902.032-1.01 1.28-1.988.359-.2.359-.772 0-.589-.47-.589zm4.772 0q-.469 0-.469.59 0 .572.342.77 1.265.98 1.297 1.99.024 1.01-.724 1.9.056.414.43.414l-.024-.326q.397-.406.803-1.376.095-.175.31-.247 0-.127-.342-.485t.175-.605q0-.318-.66-.7-.191-.19-.175-.564l-.08.001q-.65 0-.883-.502.12-.343-.055-.518-.072-.167.087-.167l.255.056q-.024-.23-.287-.23zm-2.39 4.36q.935 0 1.873.716.732.62.088 1.423h-3.93q-.644-.803.104-1.423.93-.716 1.865-.716zm-2.812 2.41q-1.106 1.289-1.106 1.965.088.39.342.39.334 0 .43-.303 0-1.002.43-1.678l-.096-.374zm5.632 0l-.096.374q.43.676.43 1.678.088.302.43.302.246 0 .342-.39 0-.675-1.106-1.964zm-3.484.143q.517 0 .517.549v4.144q-1.623 0-1.838-1.042-.214-1.042-.024-3.651zm2.657 0q.214 2.61-.008 3.651-.223 1.042-1.846 1.042v-4.144q0-.549.517-.549zm-2.108-4.43v.286q0 .199-.16.199-.246 0-.588-.287h-.175l.549 1.034-.175.056q-.287-.374-.573-.772-.045-.02-.079-.02-.087 0-.104.132l.43.747q-.303.247-.303.43-.477 0-.716.374-.692.485-.692 1.074 0 .445.287 1.018-.2 1.106-.2 2.784 0 1.106.383 1.774.39.668 2.227.668 1.838 0 2.22-.668.39-.668.39-1.774.015-1.678-.184-2.768.287-.589.287-1.034 0-.589-.7-1.074-.247-.374-.708-.374 0-.183-.327-.43l.43-.747q0-.132-.082-.132-.032 0-.077.02-.286.398-.573.772l-.175-.056.533-1.034h-.159q-.358.287-.612.287-.136 0-.136-.2v-.286zm-3.144 7.015h-.03q-.931 1.647-.931 2.594 0 .946.326 1.519.334.573.907.692-.772-1.034-.772-1.655 0-.612.144-1.002.127 1.09.572 1.535-.199-.875-.183-1.845.008-.979.326-1.456.016-.382-.359-.382zm6.526 0q-.375 0-.36.382.303.477.319 1.456.016.97-.175 1.845.445-.445.572-1.535.144.39.144 1.002 0 .62-.772 1.655.573-.12.89-.692.327-.573.327-1.52 0-.946-.915-2.593h-.03zm-7.593 6.376q-.095 0-.227.116-.52.7-.56 1.999.16 1.02.72 2.88-.2 1.499-.3 4.118-.08.88.48 1.14 1.66.44 4.199.44 2.56 0 4.199-.44.58-.26.5-1.14-.1-2.62-.3-4.119.56-1.86.72-2.879-.04-1.3-.56-2-.132-.115-.227-.115-.134 0-.193.236.14.4.26.78.16.48.12.9-.04.679-.13 1.109-.09.43-.37.43h-.03q-.47 0-.47-1.26 0-.46.12-1.12-.103-.175-.222-.175-.112 0-.238.155-.06.48-.08 1.06-.08.88.42 2.48-.18 2.259-.18 4.518-1.36.22-3.339.28-1.96-.06-3.319-.28 0-2.26-.18-4.519.5-1.6.42-2.479-.02-.58-.08-1.06-.126-.155-.238-.155-.119 0-.222.175.12.66.12 1.12 0 1.26-.47 1.26h-.03q-.28 0-.37-.43-.09-.43-.13-1.11-.04-.42.12-.9.12-.38.26-.78-.059-.235-.193-.235z"/><path d="M21.607 463.705c0-10.084-21.214-10.084-21.214 0m21.214 0v38.719M.393 463.705v38.719m0 8.446h21.214m0-8.446c0 10.476-21.214 10.476-21.214 0" fill="none" stroke="#000"/><path d="M2.698 513.46L0 516.65h1.316L2.698 515l1.396 1.649L5.45 515l1.396 1.649L8.228 515l1.396 1.649L11.007 515l1.395 1.649L13.758 515l1.396 1.649L16.55 515l1.356 1.649L19.302 515l1.382 1.649H22l-2.698-3.19L17.906 515l-1.356-1.542L15.154 515l-1.396-1.542L12.402 515l-1.395-1.542L9.624 515l-1.396-1.542L6.846 515l-1.396-1.542L4.094 515l-1.396-1.542zm-.739 6.25q1.9.277 1.987 1.739v10.547q-.889-1.06-3.191-1.49l1.204-10.796zm-.535-1.06L0 531.26q3.172.364 3.946 2.265v2.111h.945V521.45q0-2.37-3.467-2.8zm6.846.684q.776.24.795.794.148 1.183.037 2.477-.5 7.227-.518 8.632-.018 2.015.388 3.752H7.568q.406-1.737.388-3.752-.037-1.405-.555-8.632-.074-1.294.074-2.477 0-.554.795-.794zm.074-.684q-1.294 0-1.516 1.257-.148 1.404-.074 2.698.518 7.227.555 8.632.018 2.015-.444 3.974-.055.425.37.425h2.089q.406-.018.35-.425-.461-1.96-.443-3.974-.018-1.405.5-8.632.129-1.294-.038-2.698-.055-1.257-1.35-1.257zm10.406.693c.59 0 1.225.12 1.625.59.64.756.776 1.786.825 2.74a84.95 84.95 0 0 1 .1 5.211h-.427v-4.272c-1.118-.037-1.584-.862-1.684-1.503.135-.293.494-.539.614-.896.126-.377-.038-.938-.487-.938h-.023c-.202.01-.374.08-.554.08a.588.588 0 0 1-.317-.09c-.385-.235-.9-.277-1.344-.375.367-.535.928-.526 1.53-.545l.141-.002zm-1.99 1.046c.545.097 1.121.202 1.552.58.08.107.196.179.304.179.095 0 .184-.056.236-.192.073-.102.147-.143.213-.143.201 0 .335.382.176.597-.124.308-.498.49-.63.741.128.501.352.984.732 1.348.293.28.648.534 1.063.565-.013 1.796-.004 3.592-.043 5.387a33.536 33.536 0 0 1-.548 4.942c-.042.233.172.377.294.543h-7.295c.53-.2 1.062-.394 1.59-.6.284-.149.152-.496.075-.73-.536-1.893-1.291-3.717-2.151-5.484a.69.69 0 0 1 .559-.253c.122 0 .244.026.35.076.495.587.966 1.197 1.45 1.793.664.822 1.32 1.651 1.988 2.47a.317.317 0 0 0 .225.092c.202 0 .4-.188.372-.416.352-2.372.763-4.737 1.036-7.12a2.469 2.469 0 0 0-.679-2.042.29.29 0 0 0-.202-.076c-.23 0-.502.211-.694.211-.079 0-.144-.035-.188-.135-.241-.246.546-.114.183-.33a.391.391 0 0 1-.064.006c-.331 0-.083-.547-.455-.637.061-.172.17-.295.31-.295a.34.34 0 0 1 .207.083c.082.02.166.03.249.03.287 0 .572-.108.833-.22-.299-.299-.406-.362-.606-.362-.207 0-.502.064-.587.132a1.09 1.09 0 0 0 .144-.74zm1.955-1.74c-.053 0-.105.001-.157.003-.805.022-1.701.238-2.181.94-.212.307-.373.68-.301 1.06-.193.444-.612.787-.678 1.284-.063.403.546.32.397.71.009.293.333.582.226.769-.188.798-.409 1.641-.975 2.262-.096.167-.219.215-.353.215-.18 0-.381-.088-.565-.091-.376.22.105.574.394.574.012 0 .024 0 .035-.002a.806.806 0 0 0 .085.004c.587 0 1.032-.5 1.303-.978.348-.568.602-1.208.811-1.828.158-.062.316-.121.45-.121.154 0 .275.08.318.334.256.675.013 1.392-.057 2.079a818.495 818.495 0 0 1-.78 5.256c-.973-1.209-1.941-2.42-2.916-3.628-.224-.227-.534-.315-.847-.315a1.93 1.93 0 0 0-.6.1c-.393.162-.811.572-.671 1.035.86 1.777 1.63 3.604 2.165 5.507-.655.25-1.315.485-1.966.744-.263.154-.135.46-.08.69a.406.406 0 0 0 .466.378h8.618c.12-.072.416-.13.457-.16-.163-.134-.095-.37-.269-.502l-.518-.613c.34-1.884.528-3.796.546-5.71l.213.002c.36 0 .789-.044.706-.513.02-2.003.018-4.01-.133-6.008-.079-1.046-.376-2.173-1.21-2.88-.535-.465-1.244-.596-1.933-.596zM2.698 537.636L0 540.826h1.316l1.382-1.648 1.396 1.648 1.356-1.648 1.396 1.648 1.382-1.648 1.396 1.648 1.383-1.648 1.395 1.648 1.356-1.648 1.396 1.648 1.396-1.648 1.356 1.648 1.396-1.648 1.382 1.648H22l-2.698-3.19-1.396 1.542-1.356-1.542-1.396 1.542-1.396-1.542-1.356 1.542-1.395-1.542-1.383 1.542-1.396-1.542-1.382 1.542-1.396-1.542-1.356 1.542-1.396-1.542zm.329 14.67l-.043 4.835-2.548.044-.022-4.857 2.613-.022zm.436-.414L0 551.914l.022 5.706 3.376-.065.065-5.663z"/><path d="M5.776 543.919v2.374q-.525-.781-3.147-.781H.69v-1.593zm.03-.891q-1.07.198-3.177.198H.027v2.978H2.63q1.376 0 1.97.287.603.287 1.177.821l.03 13.308h1.147v-17.592zm11.842 1.232q-.056.055 0 .13-.074-.019-.13-.056.037-.037.13-.075zm.168.018l.187.112q-.112.019-.205.019.074-.056.018-.13zm-.113-.108q-.089 0-.167.052l-.13.112v.112l.056-.019q.14.075.294.075.154 0 .322-.075l.205.056v-.13h-.205q-.207-.183-.375-.183zm-.54.741zm.073.215l.03.002q.065.01.158.028.094.019.075.019l-.299.018q-.037-.018-.019-.046.014-.021.055-.021zm.263.105q-.037.018-.112.046-.075.028-.112.028-.056 0-.066-.01-.009-.008.028-.046l.262-.018zm.306-1.353q.826 0 .758.605h.187q0-.298.15-.298.224 0 .224.317 0 .299-.318.691-.018.785-.018 1.196-.094.029-.182.029-.193 0-.36-.142.019-.093 0-.364-.015-.218-.327-.218-.075 0-.168.013-.07.01-.13.01-.332 0-.253-.318.28-.168.196-.243-.084-.075-.308-.094 0-.075-.092-.15.018-.011.037-.011.04 0 .083.05.044.05.087.05.022 0 .044-.013.065-.038.047-.103-.02-.065-.038-.065t-.018.046q0 .047-.028.066-.007.004-.014.004-.027 0-.07-.051-.057-.065-.075-.065-.019 0-.038.028-.018.027-.018.063-.045-.036-.112-.073.205-.485.41-.69.103-.057.208-.057t.213.056q.215.112.457.15v-.094q-.149-.018-.373-.15-.13-.075-.268-.075-.098 0-.2.039l.113-.131q.103-.008.194-.008zm.93-.747q.4 0 .846.167.626.233.626 1.39 0 1.14-.093 2.84h-.972q-.13-1.961-.018-2.279.261-.355.27-.775.01-.42-.195-.513-.094-.043-.203-.043-.13 0-.283.061-.075-.336-.953-.373.131-.355.663-.449.153-.026.312-.026zm-.62 3.426q.246.245.524.245.082 0 .167-.021 0 .093.056.878-.821-.075-1.027-.337l.28-.765zm-.41 1.195q.392.224.84.261-.075.056-.14.3-.066.242-.308.522-.243.28-.729.953.019-1.009.336-2.036zm3.372 3.11h.027q.504.009.504.326v2.522h-.355v-1.326h-.355v4.351h-3.007v3.4h-3.268v-5.622h5.621q.043.007.08.007.275 0 .275-.362v-2.97q0-.327.478-.327zm-.179 6.21v.186h-2.484v2.877h-.187v-3.063zm0 .523v2.54h-2.13l.02-2.54zm-1.214-9.208v2.204q.093 3.53-1.214 3.567h-4.352q-.635.075-.728.672-.15 1.046-.504 1.905-.355.86-.691 1.98l.018.635q.449.785-.205.915h-2.39l-.02-.018q1.065-.3 1.616-.729.551-.43.72-2.008.167-1.578.522-3.259.019-.97.729-1.139.616-.243 1.578-.43.962-.186 2.587-.298v-1.662q.485-.075 2.334-2.335zm-.911-5.56q-.236 0-.452.05-.635.15-.803.477-.168.326-.262.663-.187.242-.41.635-.094.261.018.308l.243.102q-.15.057-.131.113.018.055.164.074-.017.01-.07.047-.094.065-.02.112.075.047.075.196-.018.224.15.28l-.243.673h.523l.13-.635.169-.02q.15.206-.019.543-.373.504-.728 1.942-.336 0-1.214.168-.268.051-.524.051-.582 0-1.101-.266-.37-.189-.72-.189-.36 0-.7.199.052.14.21.14.07 0 .164-.028.093-.03.201-.03.238 0 .546.142-.384.215-.661.215-.06 0-.114-.01-.308-.056-.588-.224-.025-.031-.052-.031-.054 0-.116.124-.094.187 0 .318.675.312 1.084.312.18 0 .307-.06.267-.125.78-.125.294 0 .667.041.77.092 1.243.092.296 0 .476-.036l-.038.616q-.467.019-1.195.234-.25.074-.503.074-.485 0-.982-.27-.387-.21-.752-.21-.348 0-.677.191.053.158.218.158.068 0 .156-.027.088-.028.189-.028.242 0 .558.158-.396.222-.678.222-.05 0-.097-.007-.308-.046-.607-.233-.019-.031-.043-.031-.047 0-.116.124-.103.187-.01.299.719.28 1.139.28.17 0 .29-.047.231-.087.644-.087.34 0 .804.06.523.056.934.056.41 0 .71-.057v1.308q-1.233.112-2.204.29-.971.177-1.775.476-.859.336-.896 1.475-.317 1.68-.486 3.119-.168 1.438-.644 1.896-.476.457-1.485.775-.56.15-.541.616h3.305q.56-.056.617-.327.056-.27-.084-.597-.14-.327-.15-.7-.009-.374.477-1.738.56-1.102.625-1.84.066-.737.364-.905h.056v6.107h7.303v-6.593H22v-2.857q0-.691-.896-.691-.897 0-.897.71 0 2.969-.224 2.969h-.49q.438-.526.583-1.83V547.9h.336q.15-1.737.15-3.165 0-1.43-.803-1.719-.53-.19-.986-.19zM2.698 562.62L0 565.81h1.316l1.382-1.648 1.396 1.648 1.356-1.648 1.396 1.648 1.382-1.648 1.396 1.648 1.383-1.648 1.395 1.648 1.356-1.648 1.396 1.648 1.396-1.648 1.356 1.648 1.396-1.648 1.382 1.648H22l-2.698-3.19-1.396 1.542-1.356-1.542-1.396 1.542-1.396-1.542-1.356 1.542-1.395-1.542-1.383 1.542-1.396-1.542-1.382 1.542-1.396-1.542-1.356 1.542-1.396-1.542zm1.679 5.798c1.19 0 2.25.55 2.942 1.41H1.436a3.76 3.76 0 0 1 2.941-1.41zm3.34 2.017c.227.432.372.914.416 1.425H.621a3.75 3.75 0 0 1 .417-1.425zm.42 2.032a3.75 3.75 0 0 1-.395 1.425h-6.73a3.75 3.75 0 0 1-.394-1.425zm-.78 2.033a3.762 3.762 0 0 1-2.98 1.458 3.76 3.76 0 0 1-2.979-1.458zm-2.98-6.69A4.383 4.383 0 0 0 0 572.188a4.383 4.383 0 0 0 4.377 4.377 4.383 4.383 0 0 0 4.378-4.377 4.383 4.383 0 0 0-4.378-4.378zm13.257 4.927c1.074 0 2.418.552 3.069 1.202.569.57.643 1.324.664 2.025h-7.435c.021-.701.096-1.456.665-2.025.65-.65 1.963-1.202 3.037-1.202zm0-.601c-1.274 0-2.645.588-3.449 1.392-.824.824-.917 1.909-.917 2.72v.317H22v-.316c0-.812-.062-1.897-.886-2.721-.803-.804-2.206-1.392-3.48-1.392zm-15.645 9.485q-.126 0-.244.039-.464.15-.41.45.047.253.415.253.067 0 .145-.008.504-.055.886-.41-.426-.324-.792-.324zm.236-.276q.984 0 3.036 1.173 1.03.534 2.258.534.593 0 1.232-.125 1.608-.327 3.38-.572.602-.084 1.166-.084 1.097 0 2.051.315 1.445.478 2.4.614.953.136 3.025.245-1.336.137-2.617.137t-3.026-.287q-.872-.143-1.68-.143-.807 0-1.55.143-1.486.287-3.38.532-.474.061-.932.061-1.372 0-2.6-.552-1.19-.813-2.473-.813-.567 0-1.152.159-.518-.027-.463-.573.3-.736 1.28-.763h.045zm.729-2.78q-.59 0-1.1 1.8-.427-1.59-1.102-1.59-.1 0-.207.036-.818.518.545 1.99-1.09.627-1.09 1.581t1.608 1.063q.498-.13.972-.13 1.111 0 2.095.716.843.614 2.671.614 1.22 0 2.877-.273 2.036-.573 3.957-.573.729 0 1.44.082 1.781.207 3.034.207.569 0 1.029-.043Q22 583.99 22 583.609q-.627-.573-1.772-.764-2.426-.027-4.43-.845-1.002-.409-2.457-.409-1.455 0-3.363.41-1.23.31-2.292.31-1.453 0-2.588-.583-1.172-.709-2.48-1.172 1.09-.846 1.021-1.404-.068-.56-.668-.587h-.017zm-1.459 8.08c-.796 0-1.495.586-1.495 1.338v14.083h.973v-14.083c0-.369.325-.488.528-.488.214 0 .543.15.543.602v9.256h.974v-9.256c0-.754-.746-1.452-1.523-1.452zm6.5 2.089l.077 1.351H5.86l.092-1.351zm.123 2.043l.077 1.597H5.752l.077-1.597zm.123 2.288l.077 1.26H5.645l.061-1.26zm.107 1.905q-.03 1.26-1.367 1.275-1.336-.015-1.398-1.275zm-2.703-8.325q-.891 7.296-.937 8.202 0 .584.184 1.06.185.476 1.122.875.445.354.522.83v4.454h.906v-4.454q.077-.476.507-.83.952-.399 1.137-.867.184-.469.184-1.068-.062-.906-.968-8.202h-.43l.077 1.444H5.983l.092-1.444zm7.695.517l1.07 2.226h-2.225l1.052-2.226zm1.087 2.76v10.488h-2.26v-10.488zm.639 11.006v.604h-3.554v-.604zm-2.122-14.283l-1.328 2.743v11.04h-.656v1.638h4.675v-1.638h-.673v-11.04l-1.31-2.743zm6.762.517l1.07 2.226H18.55l1.052-2.226zm1.086 2.76v10.488h-2.26v-10.488zm.639 11.006v.604h-3.554v-.604zm-2.122-14.283l-1.328 2.743v11.04h-.656v1.638H22v-1.638h-.673v-11.04l-1.31-2.743zM3.704 604.821q-.542 0-.542.41 0 .345.542.345.525 0 .525-.344 0-.41-.525-.41zm.41-.23q1.248 0 1.872.805.312.509.607 1.56-.016.245-.41.327-.394.083-.772.083-1.74-.64-2.692-2.216.066-.558 1.395-.558zm2.971 2.463q.312.23 1.322.837t3.151 2.52q2.142 1.911 3.242 2.248 1.1.336 2.585.402 1.485.066 2.24.345 0 .23-.476.36-4.12-.475-6.048-.885-1.929-.41-2.848-.698-.919-.287-2.347-1.092-1.428-.804-2.281-1.559-.854-.755-1.117-1.182-.262-.426.649-.451.91-.025 1.477-.263.566-.238.451-.582zm12.59 6.434l.13.131q0 .131-.163.18l-.312-.016q.345-.147.345-.295zm.213.197l.131.164-.246-.016q.099-.083.115-.148zm-17.35-8.453q1.117 1.592 2.61 2.232-.19-.01-.357-.01-1.204 0-1.218.519 0 .82 2.798 2.823 2.799 2.002 6.59 2.593 1.642.214 1.839.64.033.312-1.56.394h-2.642q-.263-.574-.969-1.05l.148.41q-2.626-1.51-4.604-3.34-1.978-1.83-1.994-3.176 0-.64-.64-1.608 0-.148-.887-.28v-.032l.887-.115zm12.87 8.65l4.546.804q-.476.197-.665.706-.189.509.04 1.23l-4.71-1.854q.066-.016.312-.14.246-.123.435-.336.189-.213.041-.41zm-7.14-.312q1.772 1.182 1.739 1.543-.263.853-1.28 2.166-.542 0-1.026-.115-.26-.061-.543-.061-.242 0-.5.045 1.691-2.396 1.691-2.495 0-.64-.098-1.083zm-4.17-9.504q-.87 0-1.305.238-.435.238-.468.632-1.296.18-1.296.263v.328q.033.082 1.083.394.558.739.558 1.346 0 1.149.837 2.265t3.595 3.66q.246 0 .509 1.461l-1.543 2.364q-.197.131-.526.147-.541-.18-1.723-.18-.375.115-.665.115-.206 0-.369-.058-.319-.113-.853-.113-.126 0-.263.007-.558.262-.099.722l8.207.016-.262-.394q.508-.837 1.313-2.298h2.954l6.401 2.479.066-.23q-.69-.69-.574-1.56.246-.705 1.296-.935v-.23l-2.626-.476v-.016l2.462.164q0-.065-.418-.837-.419-.771-1.765-.771-2.2-.066-3.242-.214-1.042-.147-3.98-2.84-2.938-2.691-4.202-2.987-.607-2.462-3.102-2.462zm-.394 16.362q-.542 0-.542.41 0 .345.542.345.525 0 .525-.344 0-.41-.525-.41zm.41-.23q1.248 0 1.872.805.312.509.607 1.56-.016.245-.41.327-.394.082-.772.082-1.74-.64-2.692-2.215.066-.558 1.395-.558zm2.971 2.463q.312.23 1.322.837t3.151 2.52q2.142 1.911 3.242 2.248 1.1.336 2.585.402 1.485.066 2.24.345 0 .23-.476.36-4.12-.475-6.048-.886-1.929-.41-2.848-.697-.919-.287-2.347-1.092-1.428-.804-2.281-1.559-.854-.755-1.117-1.182-.262-.426.649-.451.91-.025 1.477-.263.566-.238.451-.582zm12.59 6.434l.13.131q0 .131-.163.18l-.312-.016q.345-.148.345-.295zm.213.197l.131.164-.246-.017q.099-.082.115-.147zm-17.35-8.453q1.117 1.592 2.61 2.232-.19-.01-.357-.01-1.204 0-1.218.519 0 .82 2.798 2.823 2.799 2.002 6.59 2.593 1.642.214 1.839.64.033.312-1.56.394h-2.642q-.263-.574-.969-1.05l.148.41q-2.626-1.51-4.604-3.34-1.978-1.83-1.994-3.176 0-.64-.64-1.609 0-.147-.887-.279v-.032l.887-.115zm12.87 8.65l4.546.804q-.476.197-.665.706-.189.509.04 1.23l-4.71-1.854q.066-.016.312-.14.246-.123.435-.336.189-.213.041-.41zm-7.14-.312q1.772 1.182 1.739 1.543-.263.853-1.28 2.166-.542 0-1.026-.115-.26-.061-.543-.061-.242 0-.5.045 1.691-2.396 1.691-2.495 0-.64-.098-1.083zm-4.17-9.504q-.87 0-1.305.238-.435.238-.468.632-1.296.18-1.296.263v.328q.033.082 1.083.394.558.739.558 1.346 0 1.149.837 2.265t3.595 3.66q.246 0 .509 1.461l-1.543 2.364q-.197.131-.526.147-.541-.18-1.723-.18-.375.115-.665.115-.206 0-.369-.058-.319-.113-.853-.113-.126 0-.263.007-.558.262-.099.722l8.207.016-.262-.394q.508-.837 1.313-2.298h2.954l6.401 2.479.066-.23q-.69-.69-.574-1.56.246-.705 1.296-.935v-.23l-2.626-.476v-.016l2.462.164q0-.066-.418-.837-.419-.771-1.765-.771-2.2-.066-3.242-.214-1.042-.148-3.98-2.84-2.938-2.691-4.202-2.987-.607-2.462-3.102-2.462zm-2.014 16.736q2.023.294 2.115 1.85v11.223q-.946-1.128-3.396-1.585l1.281-11.488zm-.57-1.129L0 648.7q3.375.386 4.199 2.41v2.246h1.006v-15.097q0-2.521-3.69-2.979zm7.111 0l-1.87 2.21h.912l.958-1.141.968 1.142.94-1.142.966 1.142.958-1.142.967 1.142.958-1.142.968 1.142.94-1.142.966 1.142.967-1.142.94 1.142.967-1.142.958 1.142H22l-1.87-2.21-.967 1.068-.94-1.069-.967 1.069-.967-1.069-.94 1.069-.967-1.069-.958 1.069-.967-1.069-.958 1.069-.967-1.069-.94 1.069-.967-1.069zm-.573 4.338q.654.202.67.67.125.996.031 2.087-.42 6.09-.436 7.274-.016 1.698.327 3.162H7.46q.343-1.464.327-3.162-.03-1.184-.467-7.274-.062-1.09.062-2.088 0-.467.67-.67zm.063-.577q-1.09 0-1.278 1.06-.124 1.183-.062 2.274.436 6.09.467 7.274.016 1.698-.374 3.349-.046.358.312.358h1.76q.343-.016.296-.358-.39-1.651-.374-3.35-.015-1.183.42-7.273.11-1.09-.03-2.275-.047-1.059-1.137-1.059zm6.149.466c.833 0 1.875.428 2.38.932.44.441.498 1.026.514 1.57h-5.763c.016-.544.074-1.129.515-1.57.504-.504 1.522-.932 2.354-.932zm0-.466c-.987 0-2.05.456-2.673 1.08-.639.638-.711 1.48-.711 2.108v.246h6.769v-.246c0-.629-.048-1.47-.687-2.109-.623-.623-1.71-1.079-2.698-1.079zm-.474 8.641v5.674h.949v-5.674zm6.797-8.641c-.74 0-1.388.544-1.388 1.242v13.073h.903v-13.073c0-.342.301-.453.49-.453.199 0 .505.14.505.559v8.592H22v-8.592c0-.7-.692-1.348-1.413-1.348zM3.232 658.049c-.237.114-.526.43-.088.482.21-.008.693-.228.606-.43a.194.194 0 0 1-.139.06c-.124 0-.251-.112-.379-.112zm-1.728.079c-.29.07-.439.386-.07.456h.02c.211 0 .79-.256.313-.316-.079-.052-.158-.14-.263-.14zm2.307-2.202c.518.605.974 1.307 1.061 2.114.088.579.114 1.158.202 1.728-.412-.035-.29-.675-.21-.982.07-.606-.255-1.167-.483-1.702-.158-.29-.307-.746-.71-.754-.448.078-.737.456-1.027.78-.298-.298-.614-.623-1.026-.745a.207.207 0 0 0-.071-.011c-.093 0-.2.04-.25.04-.044 0-.043-.03.05-.143.055-.197.17-.255.314-.255.208 0 .475.124.7.124a.492.492 0 0 0 .1-.01 3.274 3.274 0 0 0 1.35-.184zm-.14.667c.342.087.42.561.587.842.21.491.465 1.026.299 1.579-.132.263.035.596.017.79-.292.205-.55.638-.938.638a.554.554 0 0 1-.132-.016c-.386-.079-.579-.447-.877-.623-.216.208-.344.64-.7.64a.542.542 0 0 1-.16-.026c-.324-.07-.754-.035-.85-.43-.167-.403-.185-.85-.211-1.289.02.004.037.005.053.005.178 0 .194-.206.21-.382.068-.257.252-.376.456-.376.138 0 .285.054.412.156.15.167.606.299.51.562-.045.158-.097.324-.15.491l.368.491c.035-.254.413-.465.193-.719-.035-.114-.166-.263-.149-.35.158-.282.369-.527.614-.738a.282.282 0 0 1 .201-.09c.236 0 .472.309.676.336.202-.22-.017-.307-.219-.421a.615.615 0 0 0-.427-.172.704.704 0 0 0-.573.312c-.167.1-.283.433-.429.433-.046 0-.095-.033-.15-.117-.267-.214-.589-.455-.94-.455a.75.75 0 0 0-.156.016c-.248.052-.472.554-.49.554H.715c-.01-.413.184-.782.298-1.185a.536.536 0 0 1 .522-.418c.152 0 .305.065.416.207.261.097.453.556.698.556a.235.235 0 0 0 .136-.047c.272-.29.49-.631.886-.754zm-1.246 6.087c1.114 1.15 2.14 4.062 2.404 5.255-.43-.351-1.018-.58-1.15-.798-.14-.228-.526-2.448-1.254-4.457zm3.965-2.087c2.105 1.21 5.772 7.166 6.553 8.123-1.316-.834-2.614-1.676-4.027-2.36-1.982-.974-3.675-2.553-5.29-4.026 1.334-.448 2.29-1.202 2.764-1.737zm-2.184 7.561c.28.167.535.395.842.518-.184.456-.298.965-.676 1.324-.07.114-.172.15-.287.15-.2 0-.442-.107-.645-.107l-.041.001c.245-.614.614-.886.807-1.886zm.596-8.21c.053.11.121.146.193.146.095 0 .196-.063.28-.103.211.15.94.132.51.448-.272.368-1.726 1.373-2.735 1.55-.436.077.296.766.533 1.011 1.368 1.228 2.71 2.527 4.35 3.413 1.027.579 2.106 1.096 3.097 1.736.474.685 1.035 1.316 1.395 2.07-.36.106-.71.255-1.079.343a2.54 2.54 0 0 1-.616.072c-.58 0-1.162-.173-1.419-.45-.474-.5-.991-2.631-1.263-3.412-.039-.088-.094-.117-.153-.117-.119 0-.256.116-.324.116-.014 0-.025-.005-.032-.016a.343.343 0 0 0-.339-.33c-.154 0-.297.112-.275.347-.053.553-.158 1.105-.421 1.605-.032.086-.1.118-.188.118-.25 0-.668-.257-.952-.328.114-.675-.807-4.132-3.51-7.026-.094-.103-.505-.536-.47-.536.005 0 .015.005.032.018.139.036.294.06.449.06.295 0 .586-.09.735-.367.023-.068.052-.095.085-.095.12 0 .302.35.494.35.14.092.296.135.45.135a.922.922 0 0 0 .682-.311c.167-.15.325-.298.491-.447zm-.912-4.588a3.26 3.26 0 0 1-1.192.245 2.23 2.23 0 0 1-.185-.008.705.705 0 0 1-.125.01c-.296 0-.613-.158-.9-.158a.545.545 0 0 0-.309.086c-.482.702-.92 1.483-.973 2.351-.097 1.667-.053 2.246 1.263 3.614.517 1.176 1.482 5.01 1.772 6.053.316.298-.395 1.93-.693 2.333-.162.224-.59.235-1.05.235h-.15c-.413 0-.832.009-1.09.169-.245.158-.333.745-.193.824.132-.201.395-.473.58-.5-.176.185.438.097.57.14.354.007.713.036 1.073.036.174 0 .349-.007.523-.027.079-.034.163-.088.2-.088.03 0 .03.033-.025.132.249.065.528.097.8.097.614 0 1.196-.163 1.323-.491a9.37 9.37 0 0 0 .684-1.518c.224.048.506.205.732.205a.332.332 0 0 0 .18-.047c.246-.167.5-.947.641-1.465.014-.054.087-.08.16-.08.071 0 .143.024.165.071.263.527.701 2.14 1.123 2.816.317.5 1.087.747 1.907.747.515 0 1.05-.098 1.505-.29.57-.246.991-.194.868-.51-.193-.526-.526-1.026-.877-1.473.509.316 1.018.64 1.526.956.042.153.148.213.256.213.207 0 .423-.225.21-.45-1.992-2.877-5.159-7.78-7.352-9.368a2.952 2.952 0 0 0-1.219-.658c-.15-.386-.105-.904-.193-1.342-.088-.869-.614-2.308-1.535-2.86zm9.293 2.364c-.507.04-.788.295-.841.762.066.508.347.775.841.802.495-.027.755-.294.782-.802-.04-.467-.3-.721-.782-.761zm.06-1.683c.361 0 .695.067 1.003.2a2.642 2.642 0 0 1 1.363 1.353c.133.301.2.618.2.952 0 .348-.067.672-.2.972a2.55 2.55 0 0 1-2.365 1.513c-.361 0-.699-.063-1.013-.19a2.41 2.41 0 0 1-.811-.531 2.605 2.605 0 0 1-.541-.792c-.134-.3-.2-.624-.2-.972 0-.334.066-.651.2-.952.133-.3.314-.567.54-.801a2.46 2.46 0 0 1 .812-.551c.314-.134.652-.2 1.013-.2zm-.04-.681c-.44 0-.855.083-1.242.25a3.097 3.097 0 0 0-1.002.682 3.34 3.34 0 0 0-.671 1.002c-.168.38-.251.791-.251 1.232 0 .441.083.852.25 1.233.168.38.391.711.672.992a3.18 3.18 0 0 0 2.244.922c.441 0 .852-.084 1.233-.25a3.34 3.34 0 0 0 1.002-.672 3.12 3.12 0 0 0 .681-.992c.167-.381.25-.792.25-1.233 0-.44-.083-.851-.25-1.232a3.248 3.248 0 0 0-1.683-1.684 3.034 3.034 0 0 0-1.233-.25zm6.84 0h.017zm.017.518q1.29 0 1.29 1.106h-2.598q0-1.106 1.29-1.106zm.281 1.624v.746h-.58v-.746zm.808 1.264q0 4.37-1.089 11.762h-.017q-1.089-7.391-1.089-11.762zm-1.098-3.406q-1.948.005-1.948 2.142h1.264v.746H18.4q0 4.441 1.089 12.341.061.553.553.553h.017q.5 0 .553-.553 1.097-7.9 1.097-12.341h-.974v-.746H22q0-2.137-1.949-2.142zM4.286 673.895c-.207 0-.717.245-.24.247.079 0 .25.024.378.024.152 0 .24-.033.03-.178-.05-.035-.096-.091-.161-.093h-.007zm.08-.165l.017.001c.368.085.659.395 1.041.502.322.09.85.209.74.68-.147.628-.57 1.237-.438 1.895.083.411.543.447.913.447l.176-.001c2.423-.02 4.346-.121 5.89-.121 2.53 0 4.038.274 5.047 1.64 1.673 2.263 1.1 4.527.684 7.385.117-1.686.676-4.343-1.058-6.637-.732-.97-1.974-1.377-3.116-1.665-.524-.132-1.225-.178-1.998-.178-1.785 0-3.954.246-5.216.246-.3 0-.549-.014-.729-.049-.486-.093-.833-.692-.79-1.188.057-.659.576-1.27.381-1.935-.087-.296-.345-.363-.625-.363-.201 0-.414.034-.583.043-.184.01-.363.035-.54.035-.231 0-.456-.045-.673-.236-.411-.362.712-.5.877-.5zm.055-.592h-.038a3.423 3.423 0 0 0-1.534.46c-.483.281-.095.826.232 1.066.301.221.64.428 1.018.428.073 0 .148-.008.224-.024.193-.043.534-.123.768-.123.137 0 .237.027.247.107.086.655-.613 1.45-.331 2.208.231.62.76 1.184 1.467 1.235.31.023.619.032.928.032 1.629 0 3.25-.263 4.879-.291l.155-.001c3.121 0 4.692 1.63 5.05 2.642.346.981.596 2.009.508 3.053-.105 1.256-.29 2.524-.187 3.781.09 1.11.476 2.185.739 3.26.061.252.24.377.406.377.182 0 .35-.15.339-.45-.055-1.386-.374-2.57-.337-3.848.031-1.099.313-2.156.378-3.258.075-1.278.43-5.581-3.055-6.834-1.003-.36-2.275-.458-3.624-.458-1.596 0-3.299.137-4.79.137-.557 0-1.084-.02-1.566-.072.192-.684.56-1.28.474-1.993-.068-.563-.684-.774-1.152-.902-.438-.12-.735-.532-1.198-.532zm4.625 15.23q.797 0 1.454.397 1.335.775 2.531.775 1.203 0 2.207-.104v2.067q-1.247-.222-1.8-.222h-.016q-.45 0-1.254.104-3.27.45-4.075.45-1.336 0-2.517-.044-2.022-.118-2.221-.214-.192-.089-.192-.51 0-.413.11-.723.111-.31.37-.443 6.318-.28 6.812-.325-.44-.635-1.364-.635-.3 0-.65.067-1.178.232-1.815.232-.135 0-.245-.01-.627-.06-.583-.598.352.047.728.047.788 0 1.678-.21.44-.101.842-.101zm.188-.6q-.32 0-.631.081-1.263.332-2.222.347-.236 0-.849-.118-.288.266-.288.627 0 .362.229.613-2.414.089-2.414.288-.435.554-.435 1.329 0 .767.406 1.048 1.225.39 4.923.39.59 0 1.203-.058 3.425-.51 4.082-.524h.065q.674 0 2.474.28v-3.262l-.015.015q-1.542.177-2.517.199l-.1.001q-.927 0-1.907-.518-1.038-.737-2.004-.737zm-4.836 17.091l-.064 7.024-3.701.063L.6 704.89l3.797-.032zm.632-.601l-5.03.031.032 8.29 4.904-.095.094-8.226zm5.226-9.243q-.376 0-.376.443 0 .375.376.375.398-.022.398-.42 0-.398-.398-.398zm-1.46.288v.398l-.861.155q.398-.42.862-.553zm.045.53q.508.398.177.597-.509-.177-.752-.464l.575-.133zm1.547-1.016q1.04 0 1.658.795.62.796.664 2.454 1.613.332 2.144 1.46.086.73-.329.73l-.025-.001q-.442-.022-.696-.243-.092-.08-.14-.08-.082 0-.026.245.089.387.973.94.884.553.144.917-.184.09-.392.09-.629 0-1.476-.83-1.128-1.106-1.194-1.68-.067-.575.464-1.061.315-.29.217-.29-.068 0-.328.135-.64.331-.674.972-.033.642.509 1.404.541.763 2.133 1.935.163.084.368.084.438 0 1.069-.383.928-.564-.929-1.735.686-.177.708-.597.862.287 4.841 5.35 1.061.707 1.083 1.039-.022.31-.331.376-.066.014-.135.014-.25 0-.528-.191-1.238.597-2.399.619h-.121q-1.08 0-1.791-.376.73.64.508 1.348-.107.343-.162.343-.059 0-.059-.387 0-.751-1.923-1.437v.84q-.113.476-.18.476-.064 0-.085-.432-.133-.95-.63-2.044-.498-1.095-1.581-3.029t-1.382-2.785q-.298-.852-.276-1.581.022-.73-.298-1.072-.321-.343-.188-.74.132-.399-.398-.752v-.376q.575-.464 1.193-.464zm4.2 12.733q1.084.31 1.084.73l-.73 2.719q-.088.486-.596.486h-.885v-.044l1.128-3.449v-.442zm-4.12-13.176h-.08q-.862 0-1.746.708-.508.177-1.039.818.73.663 1.326.818.067.31.42.862.023 1.459.398 2.42.376.962 2.52 5.162 1.062 2.211 1.062 2.72 0 .773-.973 3.47 0 .155-1.326.243-1.99.067-1.99.553 0 .288.265.288h5.88q.553-.443.62-.752.53.22.574.597.075.298.212.298.026 0 .054-.01.177-.067.177-.288-.155-.597-.774-1.15l.707-2.984q2.145-.067 3.736-.685.295.066.54.066.492 0 .787-.265.442-.398-.177-1.238-1.349-1.349-2.565-2.963-2.498-3.073-3.426-3.559-.31-.641-.74-1.017-.432-.376-1.56-.928-.021-1.305-.607-2.255-.573-.93-2.275-.93zm-8.69 21.167q1.726.252 1.805 1.58v9.576q-.807-.963-2.898-1.353l1.093-9.803zm-.486-.962L0 726.029q2.88.33 3.583 2.056v1.917h.858V717.12q0-2.151-3.149-2.541zm6.806 0l-1.943 2.297h.948l.995-1.187 1.006 1.187.976-1.187 1.006 1.187.995-1.187 1.006 1.187.995-1.187 1.006 1.187.976-1.187 1.005 1.187 1.006-1.187.976 1.187 1.005-1.187.996 1.187H22l-1.944-2.297-1.005 1.11-.976-1.11-1.006 1.11-1.005-1.11-.976 1.11-1.006-1.11-.995 1.11-1.006-1.11-.995 1.11-1.006-1.11-.976 1.11-1.006-1.11zm13.358 10.315c-.153.916-1.083 2.033-2.403 2.918-1.448.972-3.329 1.67-4.976 1.67-1.647 0-3.528-.698-4.975-1.67-1.32-.885-2.25-2.002-2.404-2.918zm-15.04-.52a.26.26 0 0 0-.261.26c0 1.284 1.133 2.589 2.657 3.61 1.524 1.023 3.474 1.758 5.265 1.758 1.792 0 3.742-.735 5.266-1.757 1.524-1.022 2.657-2.327 2.657-3.612a.26.26 0 0 0-.26-.26zm-1.293 8.421v2.116q-.467-.696-2.804-.696H.591v-1.42zm.026-.793q-.952.176-2.83.176H0v2.654h2.319q1.226 0 1.755.256.537.255 1.049.732l.026 11.859h1.023v-15.677zm7.888.793v2.116q-.468-.696-2.804-.696H8.505v-1.42zm.026-.793q-.952.176-2.83.176h-2.32v2.654h2.32q1.225 0 1.755.256.537.255 1.049.732l.026 11.859h1.023v-15.677zm7.887.793v2.116q-.467-.696-2.803-.696h-1.728v-1.42zm.027-.793q-.952.176-2.83.176h-2.32v2.654h2.32q1.225 0 1.754.256.538.255 1.05.732l.026 11.859H22v-15.677zM2.292 750.92q2.226.324 2.326 2.035v12.346q-1.04-1.241-3.735-1.744l1.41-12.637zm-.626-1.241L0 764.44q3.713.425 4.618 2.65v2.472h1.108v-16.607q0-2.773-4.06-3.276zm7.465 0l-1.799 2.127h.878l.921-1.1.931 1.1.904-1.1.93 1.1.922-1.1.93 1.1.923-1.1.93 1.1.904-1.1.93 1.1.931-1.1.904 1.1.93-1.1.923 1.1H22l-1.8-2.127-.93 1.028-.904-1.028-.93 1.028-.93-1.028-.905 1.028-.93-1.028-.922 1.028-.93-1.028-.922 1.028-.931-1.028-.904 1.028-.93-1.028zm5.535 4.217c.863 0 1.943.443 2.466.965.457.458.517 1.064.533 1.627h-5.973c.017-.563.077-1.17.534-1.627.523-.522 1.577-.965 2.44-.965zm0-.483c-1.023 0-2.125.473-2.77 1.118-.662.662-.737 1.534-.737 2.186v.254h7.015v-.254c0-.652-.05-1.524-.712-2.186-.645-.645-1.772-1.118-2.796-1.118zm-6.008 7.202q-.083 0-.162.026-.31.1-.273.3.03.17.276.17.045 0 .097-.006.336-.037.59-.273-.284-.217-.528-.217zm.158-.183q.656 0 2.024.782.687.355 1.505.355.396 0 .822-.083 1.072-.218 2.253-.381.402-.056.778-.056.731 0 1.367.21.963.318 1.6.409.636.09 2.017.164-.89.09-1.745.09-.854 0-2.017-.19-.582-.096-1.12-.096-.539 0-1.034.096-.99.19-2.254.354-.316.04-.62.04-.916 0-1.734-.367-.794-.542-1.649-.542-.378 0-.768.106-.345-.019-.309-.382.2-.49.854-.509h.03zm.486-1.854q-.393 0-.734 1.2-.284-1.06-.734-1.06-.067 0-.138.024-.545.345.363 1.327-.727.418-.727 1.054 0 .636 1.073.709.331-.087.647-.087.741 0 1.397.477.562.41 1.781.41.813 0 1.918-.182 1.357-.383 2.638-.383.486 0 .96.055 1.188.138 2.023.138.38 0 .686-.029 1.545-.036 1.545-.29-.418-.382-1.181-.51-1.618-.017-2.954-.563-.668-.272-1.638-.272-.97 0-2.242.272-.82.207-1.528.207-.97 0-1.726-.389-.781-.472-1.654-.781.727-.564.682-.936-.046-.373-.446-.39l-.011-.001zm-.866 6.188c.033 0 .067.002.102.004.45.032.944.204 1.48.515-.536.332-1.03.512-1.48.538l-.085.003c-.393 0-.584-.18-.574-.541-.01-.346.176-.519.557-.519zm0 3.2c.033 0 .067.001.102.004.45.032.944.204 1.48.514-.536.333-1.03.512-1.48.539l-.085.003c-.393 0-.584-.18-.574-.542-.01-.345.176-.518.557-.518zm-.06-3.728c-.03 0-.058 0-.087.002-.573.021-.892.37-.957 1.045.085.718.39 1.077.918 1.077h.023c.541-.01 1.3-.204 2.275-.579h9.293c.762.064 1.145.418 1.15 1.061.005.644-.378 1.035-1.15 1.174h-9.293c-.886-.387-1.61-.58-2.172-.58l-.087.001c-.573.022-.892.37-.957 1.045.085.719.39 1.078.918 1.078h.023c.541-.011 1.3-.204 2.275-.58h8.779l.1.002c1.093 0 1.845-.344 2.255-1.03.424-.708.424-1.415 0-2.123-.405-.676-1.14-1.015-2.207-1.015l-.148.002h-8.779c-.886-.386-1.61-.58-2.172-.58zm-7.085 7.324c-.263 0-.525.02-.78.052-.35.088-.17.49.141.49a.366.366 0 0 0 .065-.006c.658.076 1.468.118 1.965.491.66.719.363 2.212.44 2.921.005.038.007 2.864.007 4.297a4.818 4.818 0 0 0-2.997-.368c-.345.181.06.414.332.414a.356.356 0 0 0 .09-.01c.96.104 2.054.361 2.542 1.256.048.162.018.217-.055.217-.162 0-.533-.268-.742-.268-.011 0-.022 0-.032.002a5.908 5.908 0 0 0-1.239-.132c-.305 0-.608.024-.9.075-.33.217.075.418.343.418.03 0 .057-.002.082-.007.982.118 2.068.384 2.543 1.28.006.996 0 1.654.027 2.57-.012.282.171.422.357.422.184 0 .371-.138.372-.412-.007-.903-.071-1.695.047-2.57.239-.982 1.943-1.133 3.001-1.376.231-.271-.223-.372-.516-.372a.958.958 0 0 0-.118.007 5.35 5.35 0 0 0-.409-.016c-.692 0-1.389.137-2.005.454-.025-.591.558-.932.975-1.17.66-.283 1.385-.311 2.073-.463.246-.214-.14-.393-.409-.393a.455.455 0 0 0-.098.01 5.306 5.306 0 0 0-.508-.025c-.707 0-1.414.144-2.05.457.014-2.236.05-4.4-.014-6.514-.052-.654-.429-1.255-1.062-1.45-.456-.207-.963-.281-1.468-.281zm2.198 16.614c.827 0 1.864.425 2.365.927.439.438.496 1.02.512 1.56H.636c.016-.54.073-1.122.512-1.56.501-.502 1.513-.927 2.34-.927zm0-.463c-.982 0-2.039.453-2.658 1.073-.635.635-.707 1.47-.707 2.097v.243h6.73v-.243c0-.626-.048-1.462-.683-2.097-.62-.62-1.7-1.073-2.682-1.073zm16.996-13.723q.452 0 .882.49-3.545 4.22-4.432 4.717-.661.37-1.164.37-.17 0-.324-.043-.601-.169-1.287-.19h-.034q-.672 0-1.475.802h-.105q.57-1.33 1.593-1.9 1.024-.57 6.004-4.178.173-.069.342-.069zm-6.275-1.924q.054 0 .108.008v5.424q-1.667.97-2.3 2.722.971-6.71 1.361-7.47.352-.684.831-.684zm-4.346 8.496q-.066 0-.125.112-.105.2.19.56.169-.444.042-.602-.056-.07-.107-.07zm.029-.301q.124 0 .268.191.317.422-.19 1.689-.57-1.098-.348-1.604.12-.276.27-.276zm5.523 2.09v.317q-.232-.02-.359-.148.042-.063.169-.168zm.485.718l1.963.275.4.717q-.675-.19-1.487-.506-.812-.317-.876-.486zm-4.326-.295l.38.19.127.907-.338 1.034h-.528l.359-1.034v-1.097zm.907.316l.36.106.126.675-.338 1.034h-.527l.358-1.034.021-.78zm1.246.127l.126.654-.337 1.034h-.528l.359-1.034v-.633l.38-.021zm-.807-2.625q.337 0 .722.082 1.14.243 1.435 1.15h.887l.337-.549q4.474 1.034 5.044 3.736-1.224-.676-2.575-.908l-.59-1.182-2.343-.316.063-.57H15.1q-.886.73-1.808.73-.198 0-.397-.033-1.129-.19-1.477-.77-.348-.581.37-1.056.474-.314 1.134-.314zm1.498-9.03q-.77 0-1.208.534-.539.654-1.003 3.44l-.738 4.832q-.36.38-.55.422h-.252q-.021-.528-.401-.97-.338-3.23.295-5.656l-.253-.486q-.908 2.744-.443 6.162h-.064q-1.456-3.27-.422-6.162l-.253-.38q-1.35 3.081.296 6.69-.465 1.013-.095 1.667.369.654.453 1.224l.148.106q.57-.844.654-1.456h.211q.021.485.275 1.013l.147 1.33-.358 1.033H9.022v.507h5.296v-.507h-.443l.338-1.034.021-.78q.38-.127.57-.296.274.253.612.253-.021.211.084.359.844.654 3.018 1.14l.739 1.434q0-.352.218-.352.07 0 .161.036l-.59-1.055q1.224.274 1.857.696.337.359-.043.865.845-.358.95-1.013-.338-3.186-5.719-4.431l-.38.633h-.337q-.275-.887-2.174-1.224.424-.315 1.043-.315.336 0 .73.093.4.094.78.094.685 0 1.309-.305.97-.475 4.938-5.244-.731-.922-1.546-.922-.267 0-.543.1l-5.128 3.671v-5.719q-.19-.027-.364-.027zm.841 16.614c.827 0 1.863.425 2.365.927.438.438.496 1.02.512 1.56h-5.73c.016-.54.073-1.122.512-1.56.501-.502 1.513-.927 2.34-.927zm0-.463c-.983 0-2.04.453-2.658 1.073-.635.635-.707 1.47-.707 2.097v.243h6.73v-.243c0-.626-.048-1.462-.683-2.097-.62-.62-1.7-1.073-2.683-1.073zm-4.281 15.764c-.535.042-.831.31-.887.802.07.536.366.817.887.846.521-.029.796-.31.824-.846-.042-.493-.317-.76-.824-.802zm.063-1.775c.38 0 .733.07 1.057.211a2.785 2.785 0 0 1 1.437 1.426c.14.317.21.652.21 1.004 0 .366-.07.708-.21 1.024a2.689 2.689 0 0 1-2.493 1.595 2.82 2.82 0 0 1-1.068-.2 2.542 2.542 0 0 1-.855-.56c-.24-.24-.43-.518-.57-.835a2.494 2.494 0 0 1-.212-1.024c0-.352.07-.687.211-1.004a2.9 2.9 0 0 1 .57-.845 2.678 2.678 0 0 1 1.923-.792zm-.042-.718c-.465 0-.901.088-1.31.264-.408.176-.76.415-1.056.718a3.52 3.52 0 0 0-.708 1.056 3.199 3.199 0 0 0-.264 1.3c0 .464.088.898.264 1.299.176.401.412.75.708 1.046a3.353 3.353 0 0 0 2.366.972c.465 0 .898-.088 1.3-.264a3.52 3.52 0 0 0 1.056-.708 3.3 3.3 0 0 0 .718-1.046 3.2 3.2 0 0 0 .264-1.3c0-.464-.088-.897-.264-1.299a3.424 3.424 0 0 0-1.775-1.774 3.199 3.199 0 0 0-1.299-.264zm8.106 9.576zm-.003.189zm-14.668-.721v1.112c-.165-.075-.328-.146-.481-.222-.13-.064-.283-.1-.443-.124-.126-.02-.257-.032-.375-.056a.436.436 0 0 1-.188-.068c-.014-.012-.025-.028-.025-.086 0-.058.01-.074.025-.086a.436.436 0 0 1 .188-.067c.118-.025.249-.038.375-.057.16-.025.313-.06.443-.124.153-.075.316-.147.481-.222zm0 1.112zm.566.08zm10.256-1.275c.11 0 .22.001.33.004.614.014 1.536.162 2.298.352.377.094.714.198.954.301l.102.047a2.2 2.2 0 0 1-.09.036 6.69 6.69 0 0 1-.954.252c-.766.156-1.692.268-2.31.282-.11.003-.22.004-.33.004-1.113 0-2.222-.127-3.331-.256-1.184-.137-2.368-.277-3.557-.277h-.181c-1.04.013-2.235.13-3.187.53v-1.272c.952.4 2.147.517 3.187.53h.18c1.19 0 2.374-.14 3.558-.277 1.11-.13 2.218-.256 3.331-.256zm-10.474-.735l-.136.078c-.316.182-.648.31-.943.455a.994.994 0 0 1-.28.072c-.135.02-.275.035-.402.061a.98.98 0 0 0-.436.188.65.65 0 0 0-.229.52c0 .226.086.4.23.52a.98.98 0 0 0 .435.188c.127.026.267.04.403.061a.994.994 0 0 1 .28.073c.294.145.626.272.942.454l.136.078.139-.074c.916-.493 2.193-.614 3.273-.628h.175c1.167 0 2.33.138 3.49.273 1.133.132 2.264.26 3.4.26.113 0 .226-.001.34-.004.652-.015 1.61-.131 2.41-.293a7.234 7.234 0 0 0 1.04-.278c.149-.056.271-.115.361-.177a.632.632 0 0 0 .146-.136.404.404 0 0 0 .086-.244.41.41 0 0 0-.083-.241.665.665 0 0 0-.14-.138 1.78 1.78 0 0 0-.358-.196 7.216 7.216 0 0 0-1.04-.33c-.803-.2-1.765-.353-2.422-.369a14.434 14.434 0 0 0-.34-.004c-1.136 0-2.267.128-3.4.26-1.16.135-2.323.274-3.49.274l-.175-.001c-1.08-.013-2.357-.135-3.273-.628l-.139-.074zm3.839 4.32q-.263 0-.287.23l.255-.056q.159 0 .087.167-.183.175-.055.518-.233.502-.898.502l-.08-.001q.03.374-.16.564-.668.382-.668.7.525.247.175.605-.35.358-.35.485.23.072.318.247.398.97.803 1.376l-.031.326q.39 0 .43-.413-.733-.891-.709-1.902.032-1.01 1.28-1.988.359-.2.359-.772 0-.589-.47-.589zm4.772 0q-.469 0-.469.588 0 .573.342.772 1.265.978 1.297 1.988.024 1.01-.724 1.902.056.413.43.413l-.024-.326q.397-.406.803-1.376.095-.175.31-.247 0-.127-.342-.485t.175-.605q0-.318-.66-.7-.191-.19-.175-.564l-.08.001q-.65 0-.883-.502.12-.343-.055-.518-.072-.167.087-.167l.255.056q-.024-.23-.287-.23zm-2.39 4.359q.935 0 1.873.716.732.62.088 1.423h-3.93q-.644-.803.104-1.423.93-.716 1.865-.716zm-2.812 2.41q-1.106 1.289-1.106 1.965.088.39.342.39.334 0 .43-.303 0-1.002.43-1.678l-.096-.374zm5.632 0l-.096.374q.43.676.43 1.678.088.302.43.302.246 0 .342-.39 0-.675-1.106-1.964zm-3.484.143q.517 0 .517.549v4.144q-1.623 0-1.838-1.042-.214-1.042-.024-3.65zm2.657 0q.214 2.61-.008 3.651-.223 1.042-1.846 1.042v-4.144q0-.549.517-.549zm-2.108-4.43v.286q0 .199-.16.199-.246 0-.588-.287h-.175l.549 1.034-.175.056q-.287-.374-.573-.772-.045-.02-.079-.02-.087 0-.104.132l.43.747q-.303.247-.303.43-.477 0-.716.374-.692.485-.692 1.074 0 .445.287 1.018-.2 1.106-.2 2.784 0 1.106.383 1.774.39.668 2.227.668 1.838 0 2.22-.668.39-.668.39-1.774.015-1.678-.184-2.768.287-.589.287-1.034 0-.589-.7-1.074-.247-.374-.708-.374 0-.183-.327-.43l.43-.747q0-.132-.082-.132-.032 0-.077.02-.286.398-.573.772l-.175-.056.533-1.034h-.159q-.358.287-.612.287-.136 0-.136-.2v-.286zm-3.144 7.015h-.03q-.931 1.647-.931 2.594 0 .946.326 1.519.334.573.907.692-.772-1.034-.772-1.655 0-.612.144-1.002.127 1.09.572 1.535-.199-.875-.183-1.845.008-.979.326-1.456.016-.382-.359-.382zm6.526 0q-.375 0-.36.382.303.477.319 1.456.016.97-.175 1.845.445-.445.572-1.535.144.39.144 1.002 0 .62-.772 1.655.573-.12.89-.692.327-.573.327-1.52 0-.946-.915-2.593h-.03zm-7.593 6.376q-.095 0-.227.116-.52.7-.56 2 .16 1.019.72 2.878-.2 1.5-.3 4.119-.08.88.48 1.14 1.66.44 4.199.44 2.56 0 4.199-.44.58-.26.5-1.14-.1-2.62-.3-4.119.56-1.86.72-2.879-.04-1.3-.56-2-.132-.115-.227-.115-.134 0-.193.236.14.4.26.78.16.48.12.9-.04.679-.13 1.109-.09.43-.37.43h-.03q-.47 0-.47-1.26 0-.46.12-1.12-.103-.175-.222-.175-.112 0-.238.155-.06.48-.08 1.06-.08.88.42 2.48-.18 2.259-.18 4.518-1.36.22-3.339.28-1.96-.06-3.319-.28 0-2.26-.18-4.519.5-1.6.42-2.479-.02-.58-.08-1.06-.126-.155-.238-.155-.119 0-.222.175.12.66.12 1.12 0 1.26-.47 1.26h-.03q-.28 0-.37-.43-.09-.43-.13-1.11-.04-.42.12-.9.12-.38.26-.78-.059-.235-.193-.235z"/><path d="M21.607 800.984c0-10.084-21.214-10.084-21.214 0m21.214 0v38.719M.393 800.984v38.719m0 8.446h21.214m0-8.446c0 10.476-21.214 10.476-21.214 0" fill="none" stroke="#000"/><path d="M2.539 859.493l.264 2.965h-.528l.264-2.965zm.02-6.764l1.706 9.729H3.17l-.529-4.265h-.182l-.528 4.265H.792l1.767-9.73zm-.101-1.99L0 863.107h5.078l-2.438-12.37zm5.73 2.563h-.006c-.28.02-.25.047-.396.084l-.191.331a.854.854 0 0 0 .435.131c.102 0 .21-.021.331-.067a1.29 1.29 0 0 1 .44-.058c.101 0 .197.004.271.004.069 0 .12-.004.139-.018.061-.046-.86-.407-1.023-.407zm1.835-2.123c1.597 0 3.284 1.325 2.636 3.854-.149.576-.314.92-.572 1.031a.285.285 0 0 1-.15.043c-.46 0-1.067-.994-1.103-1.004-.114-.032.744-.697.612-1.312-.028-.131-.127-.602-.772-.602-.04 0-.082.001-.127.005-.273.024-.357.235-.446.235-.05 0-.103-.068-.194-.278-.208-.485-1.7-.672-1.854-.738-.094-.04-.15-.088-.038-.25.453-.661 1.22-.984 2.008-.984zm-2.187 1.651c.164 0 1.538.36 1.603.39.077.019.312.75.576.79.042.005.081.008.118.008.37 0 .47-.293.608-.293.01 0 .019 0 .028.003.586.166-.104.78-.59 1.237-.271.255 1.592 1.955 1.592 1.955l-1.938.043-.54-.763c-.045-.064-.2-.12-.43-.12-.202 0-.462.044-.752.165a.983.983 0 0 1-.37.088c-.464 0-.387-.59-.387-.59a3.215 3.215 0 0 1-.15-.19h.023c.268 0 .657-.089.724-.172.088-.043-.104-.215-.23-.215a.107.107 0 0 0-.034.005c-.15-.067-.335-.04-.486-.09.072-.271-.332-.542-.306-.6l.929-1.65a.042.042 0 0 1 .012 0zm2.116-2.092c-.643 0-1.39.147-1.939.687-.316.31-.36.63-.723 1.371-.262.536-1.057 1.598-1.005 1.76.133.416.483.134.447.791-.029.536.24.175.297.852.016.2-.141.763-.163.81.051.264.29.357.494.367a.1.1 0 0 0 .005 0c.231 0 .76-.766.874-.816a1.45 1.45 0 0 1 .435-.064c.059 0 .106.005.127.016.134.068.533.931.693.972l2.394-.024c.148-.002.243-.25.527-.682.559-.85.844-1.874.854-2.699.024-1.969-.923-2.668-1.963-3.135-.064-.029-.647-.206-1.354-.206zm-.545 7.952v4.418h.74v-4.417zm12.109-7.061l-.012 1.957c-.537.301-1.628.278-2.391 1.032.075.744.226 1.376.217 1.894.01.782-.147 1.635-.43 2.559-.32.867-.402 1.127-.5 1.963l.273 1.09c0 .34-.183.511-.549.511l-.059-.001a4.762 4.762 0 0 0-.96-.082c-.532 0-1.125.053-1.654.132a1.1 1.1 0 0 1-.032 0c-.3 0-.453-.126-.463-.262l.616-.07c1.09-.111 1.177-.622 2.014-1.199.188-.31.236-.593.34-1.319.169-1.875.244-3.032.226-4.257-.057-.15-.085-.7-.085-.86 0-.227.113-.514.339-.863.895-1.197 2.488-1.584 3.11-2.225zm.484-.89c-1.44.958-3.429 2.054-3.92 2.776-.291.283-.437.664-.437 1.145 0 .16.018.719.056.889-.047 3.553-.088 4.46-.439 5.222-.958.782-.798 1.126-1.745 1.171l-1.04.169c0 .593.307.969.92.997.68-.125 1.198-.213 1.551-.213.126 0 .23.01.315.035.32.095.946.142 1.285.142.358-.019.537-.335.537-.947-.047-.84-.294-.557-.169-1.675.566-1.527.868-2.892.868-3.938 0-.716-.127-1.282-.146-1.696.575-.594 1.704-.528 2.364-.905v-3.173zM1.62 865.108c-.863 0-1.62.635-1.62 1.45v15.266h1.055V866.56c0-.4.351-.53.572-.53.232 0 .589.163.589.653v10.033h1.055v-10.033c0-.817-.809-1.574-1.65-1.574zm19.83 2.174v2.144H5.653v-2.144zm-15.738-2.174v1.623h-.609v3.246H22v-3.246h-.493v-1.623h-.55v1.623h-1.363v-1.623h-.55v1.623h-1.362v-1.623h-.551v1.623h-1.333v-1.623h-.58v1.623h-1.333v-1.623h-.55v1.623h-1.363v-1.623h-.55v1.623h-1.363v-1.623h-.55v1.623H8.174v-1.623h-.55v1.623H6.262v-1.623zm7.84 13.209c.983 0 2.215.506 2.81 1.102.522.521.59 1.212.61 1.855H10.16c.019-.643.087-1.334.608-1.855.596-.596 1.799-1.102 2.783-1.102zm0-.55c-1.168 0-2.424.539-3.16 1.275-.754.755-.84 1.749-.84 2.492v.29h8v-.29c0-.743-.057-1.737-.812-2.492-.736-.736-2.021-1.275-3.188-1.275zm-10.743 6.668l1.262 2.626H1.445l1.242-2.626zm1.282 3.256v12.375H1.425v-12.375zm.753 12.986v.712H.651v-.712zm-2.503-16.853l-1.568 3.237v13.026H0v1.933h5.516v-1.933h-.794V887.06l-1.547-3.237zm8.709.611l1.263 2.626H9.687l1.242-2.626zm1.283 3.256v12.375H9.667v-12.375zm.753 12.986v.712H8.893v-.712zm-2.503-16.853l-1.567 3.237v13.026h-.774v1.933h5.516v-1.933h-.794V887.06l-1.547-3.237zm8.71.611l1.262 2.626h-2.626l1.242-2.626zm1.282 3.256v12.375H17.91v-12.375zm.753 12.986v.712h-4.192v-.712zm-2.503-16.853l-1.567 3.237v13.026h-.774v1.933H22v-1.933h-.794V887.06l-1.547-3.237zM2.099 905.157q2.038.297 2.13 1.863v11.304q-.953-1.137-3.42-1.597l1.29-11.57zm-.573-1.137L0 917.536q3.4.389 4.229 2.426v2.263h1.013V907.02q0-2.539-3.716-3zm8.73.642q-.376 0-.376.442 0 .376.376.376.398-.022.398-.42 0-.398-.398-.398zm-1.46.287v.398l-.861.155q.398-.42.862-.553zm.045.53q.508.399.177.598-.509-.177-.752-.465l.575-.132zm1.547-1.016q1.04 0 1.658.796.62.796.664 2.454 1.613.331 2.144 1.459.086.73-.329.73H14.5q-.442-.023-.696-.244-.092-.08-.14-.08-.082 0-.026.246.089.387.973.94.884.552.144.917-.184.09-.392.09-.629 0-1.476-.83-1.128-1.106-1.194-1.681-.067-.575.464-1.061.315-.29.217-.29-.068 0-.328.135-.64.332-.674.973-.033.64.509 1.404.541.762 2.133 1.934.163.085.368.085.438 0 1.069-.384.928-.563-.929-1.735.686-.177.708-.597.862.288 4.841 5.35 1.061.707 1.083 1.04-.022.309-.331.375-.066.014-.135.014-.25 0-.528-.191-1.238.597-2.399.619l-.121.001q-1.08 0-1.791-.377.73.641.508 1.349-.107.343-.162.343-.059 0-.059-.388 0-.751-1.923-1.436v.84q-.113.475-.18.475-.064 0-.085-.431-.133-.95-.63-2.045-.498-1.094-1.581-3.029-1.083-1.934-1.382-2.785-.298-.851-.276-1.58.022-.73-.298-1.073-.321-.343-.188-.74.132-.398-.398-.752v-.376q.574-.464 1.193-.464zm4.2 12.733q1.084.31 1.084.73l-.73 2.719q-.088.486-.596.486h-.885v-.044l1.128-3.449v-.442zm-4.12-13.176h-.08q-.862 0-1.746.708-.508.177-1.039.818.73.663 1.326.818.067.31.42.862.023 1.46.398 2.42.376.963 2.52 5.163 1.062 2.21 1.062 2.719 0 .774-.973 3.47 0 .155-1.326.244-1.99.066-1.99.552 0 .288.265.288h5.88q.553-.442.62-.752.53.221.574.597.075.298.212.298.026 0 .054-.01.177-.067.177-.288-.155-.597-.774-1.15l.707-2.984q2.145-.066 3.736-.685.295.066.54.066.492 0 .787-.265.442-.398-.177-1.238-1.349-1.349-2.565-2.962-2.498-3.073-3.426-3.56-.31-.64-.74-1.016-.432-.376-1.56-.929-.021-1.304-.607-2.255-.573-.929-2.275-.929zm-8.591 21.04q.948.293.97.97.18 1.442.045 3.021-.609 8.818-.631 10.532-.023 2.458.473 4.577H1.02q.497-2.12.474-4.577-.045-1.714-.677-10.532-.09-1.579.09-3.022 0-.676.97-.97zm.09-.835q-1.578 0-1.849 1.533-.18 1.714-.09 3.293.632 8.818.677 10.532.022 2.458-.542 4.848-.067.519.452.519h2.548q.496-.023.428-.519-.563-2.39-.54-4.848-.023-1.714.608-10.532.158-1.579-.045-3.293-.068-1.533-1.646-1.533zm10.343 3.15c.97 0 2.182.497 2.77 1.084.513.513.58 1.194.598 1.827H8.972c.018-.633.086-1.314.599-1.827.587-.587 1.77-1.084 2.74-1.084zm0-.543c-1.149 0-2.385.531-3.11 1.256-.743.743-.828 1.722-.828 2.454v.286h7.877v-.286c0-.732-.055-1.71-.799-2.454-.725-.725-1.99-1.256-3.14-1.256zm5.743-2.607v6.603h1.105v-6.603zm-11.283 9c.037 0 .075.002.115.005.505.036 1.059.228 1.66.577-.601.373-1.155.575-1.66.605a1.603 1.603 0 0 1-.095.003c-.442 0-.657-.203-.645-.608-.012-.388.197-.582.625-.582zm0 3.593c.037 0 .075.001.115.004.505.036 1.059.229 1.66.578-.601.373-1.155.575-1.66.605a1.604 1.604 0 0 1-.095.003c-.442 0-.657-.203-.645-.608-.012-.388.197-.582.625-.582zm-.067-4.186c-.033 0-.066 0-.098.002-.644.024-1.002.415-1.074 1.173.095.807.438 1.21 1.03 1.21h.026c.608-.012 1.46-.229 2.554-.65h10.435c.855.072 1.285.47 1.291 1.191.006.723-.424 1.162-1.29 1.318H9.14c-.994-.434-1.807-.651-2.438-.651l-.098.001c-.644.025-1.002.416-1.074 1.174.095.806.438 1.21 1.03 1.21h.026c.608-.013 1.46-.23 2.554-.65h9.97c1.227 0 2.071-.385 2.532-1.156.476-.794.476-1.589 0-2.383-.454-.76-1.28-1.14-2.479-1.14l-.165.003H9.14c-.994-.435-1.807-.652-2.438-.652zm7.062 8.678q2.901 0 6.152 1.401-3.251 1.363-6.152 1.363-2.88 0-6.151-1.363 3.27-1.402 6.151-1.402zm0-.896q-3.582 0-8.234 2.278 4.652 2.258 8.234 2.258T22 942.692q-4.633-2.278-8.235-2.278zM2.116 948.03l1.24.788q.248 2.436.051 3.925-.197 1.488-.233 2.459-.037.97.474 2.604-.015.117-.423.336-.192.103-.454.103-.297 0-.684-.132.773-1.43.67-3.108-.101-1.678-.393-3.772-.292-2.094-.248-3.203zm-.555 10.74q.672.116 1.139.233-.176.642-.818.817-.275.075-.528.075-.339 0-.639-.133.263-.613.846-.993zm-.087-11.82q-.132 1.21.314 4.078.445 2.868.445 3.86 0 2.626-1.007 3.166-.949.963-1.226 1.941.277.38.992.474.227.03.433.03.444 0 .793-.139.51-.204.773-.54.336-.452.19-1.021l.628-.336q.452-.219.277-.7-.715-1.927-.27-4.553.445-2.627.124-4.713l-2.466-1.547zm19.992 2.107v2.078H6.156v-2.078zM6.213 946.95v1.573h-.59v3.146H22v-3.146h-.478v-1.573h-.533v1.573h-1.32v-1.573h-.534v1.573h-1.32v-1.573h-.534v1.573h-1.292v-1.573h-.562v1.573h-1.292v-1.573H13.6v1.573h-1.32v-1.573h-.534v1.573h-1.32v-1.573h-.534v1.573H8.6v-1.573h-.534v1.573h-1.32v-1.573zm2.621 9.224v.327H7.106v-.327zm-.87.644q1.085 0 1.499.552.414.552.414.992-.01.685-.573 1.197-.562.511-1.34.511-.787 0-1.35-.511-.562-.512-.562-1.187 0-.45.338-1.002.337-.552 1.575-.552zm-1.35-.982v.767q-.367.215-.674.696-.307.48-.317 1.063 0 .685.568 1.386.567.7 1.774.751 1.196-.05 1.769-.751.573-.7.573-1.376-.01-.593-.317-1.078-.307-.486-.686-.7v-.758zm8.066.338v.327h-1.728v-.327zm-.869.644q1.084 0 1.499.552.414.552.414.992-.01.685-.573 1.197-.562.511-1.34.511-.787 0-1.35-.511-.562-.512-.562-1.187 0-.45.338-1.002.337-.552 1.574-.552zm-1.35-.982v.767q-.368.215-.674.696-.307.48-.317 1.063 0 .685.567 1.386.568.7 1.774.751 1.197-.05 1.77-.751.572-.7.572-1.376-.01-.593-.317-1.078-.307-.486-.685-.7v-.758zm8.066.338v.327H18.8v-.327zm-.869.644q1.084 0 1.498.552.415.552.415.992-.01.685-.573 1.197-.563.511-1.34.511-.787 0-1.35-.511-.562-.512-.562-1.187 0-.45.337-1.002.338-.552 1.575-.552zm-1.35-.982v.767q-.368.215-.675.696-.306.48-.317 1.063 0 .685.568 1.386.568.7 1.774.751 1.197-.05 1.77-.751.572-.7.572-1.376-.01-.593-.317-1.078-.307-.486-.685-.7v-.758zm-11.809 8.427q-.116.217-.26.478l-.247 1.433q0 .752.246 1.404.26.564.651 1.013-2.62-.478-4.718-.71 1.317-.781 2.07-1.736.767-.956 2.258-1.882zm6.18-.116q.796.058 2.678 1.202 1.881 1.129 3.879 1.867-1.462.087-3.185.622-1.737.521-3.647.782.304-.362.608-1.028.29-.666.29-1.418 0-.768-.276-1.433-.144-.319-.347-.594zm-3.045-.666q.5 0 .96.203.493.203.87.55.375.333.607.81.188.478.217 1.028.03.55-.174 1.028-.217.478-.55.854-.347.39-.825.608-.477.202-1.027.217H9.64q-.497 0-.957-.188-.492-.203-.868-.536-.362-.333-.58-.81-.202-.478-.23-1.042 0-.536.202-1.014.188-.477.52-.854.348-.39.826-.579.478-.26 1.013-.275h.067zm-.08-.982q-.947 0-1.868.2-1.998.435-4.053 2.592-2.055 2.142-3.604 2.287L0 968.59q3.517.304 6.904.926 1.266.233 2.664.233 2.34 0 5.05-.653 4.314-1.042 5.471-1.259H22v-1.245h-1.968q-1.404-.477-3.764-1.896-2.344-1.418-4.472-1.925-1.138-.273-2.242-.273zm-5.641 9.945q2.852.348 0 5.284-2.853-4.936 0-5.284zm0-.694q-3.95.274-.549 6.344H0v.86h3.327v6.928h1.134v-6.965h3.364v-.823H4.461q3.4-6.088-.548-6.344zm8.855 11.16c.834 0 1.878.428 2.383.933.442.442.5 1.028.516 1.573H9.894c.016-.545.074-1.13.516-1.573.505-.505 1.524-.933 2.358-.933zm0-.467c-.99 0-2.054.457-2.678 1.08-.64.64-.712 1.483-.712 2.114v.245h6.78v-.245c0-.63-.048-1.473-.687-2.113-.624-.624-1.713-1.081-2.703-1.081zm7.713-7.943q.208 0 .24.255l.352 3.182q.272 2.19.32 4.188 0 1.375-.232 2.183-.232.807-.728.807-.495 0-.68-.807-.183-.808-.167-2.183.032-1.998.304-4.188l.351-3.182q.032-.255.24-.255zm-2.414-2.75q-.671.335-.08.703 1.95 1.135 1.71 2.414l-.367 3.07q-.256 2.19-.368 4.188 0 1.95.368 2.854.368.903 1.151.903.784 0 1.151-.903.368-.903.368-2.854-.112-1.998-.368-4.188l-.335-2.942q-.512-2.622-3.23-3.245zM4.286 988.64c-.207 0-.717.244-.24.247.079 0 .25.023.378.023.152 0 .24-.033.03-.178-.05-.035-.096-.09-.161-.093h-.007zm.08-.165h.017c.368.086.659.395 1.041.502.322.09.85.21.74.68-.147.629-.57 1.237-.438 1.895.083.412.543.448.913.448l.176-.002c2.423-.019 4.346-.12 5.89-.12 2.53 0 4.038.274 5.047 1.638 1.673 2.264 1.1 4.528.684 7.386.117-1.686.676-4.343-1.058-6.637-.732-.97-1.974-1.377-3.116-1.665-.524-.132-1.225-.178-1.998-.178-1.785 0-3.954.246-5.216.246-.3 0-.549-.014-.729-.048-.486-.093-.833-.692-.79-1.189.057-.659.576-1.27.381-1.935-.087-.296-.345-.363-.625-.363-.201 0-.414.035-.583.043-.184.01-.363.036-.54.036a.954.954 0 0 1-.673-.236c-.411-.362.712-.501.877-.501zm.055-.593l-.038.001a3.423 3.423 0 0 0-1.534.46c-.483.28-.095.825.232 1.065.301.221.64.428 1.018.428.073 0 .148-.007.224-.024.193-.043.534-.123.768-.123.137 0 .237.028.247.107.086.656-.613 1.45-.331 2.208.231.621.76 1.185 1.467 1.236.31.022.619.032.928.032 1.629 0 3.25-.264 4.879-.292l.155-.001c3.121 0 4.692 1.63 5.05 2.643.346.98.596 2.008.508 3.052-.105 1.257-.29 2.525-.187 3.782.09 1.109.476 2.184.739 3.26.061.251.24.377.406.377.182 0 .35-.15.339-.45-.055-1.386-.374-2.57-.337-3.849.031-1.098.313-2.156.378-3.258.075-1.278.43-5.58-3.055-6.833-1.003-.36-2.275-.458-3.624-.458-1.596 0-3.299.136-4.79.136-.557 0-1.084-.019-1.566-.071.192-.684.56-1.28.474-1.994-.068-.563-.684-.774-1.152-.902-.438-.12-.735-.532-1.198-.532zM9.2 1000.44c.795 0 1.79.408 2.271.889.421.42.476.98.492 1.498H6.462c.015-.519.07-1.077.491-1.498.482-.481 1.453-.89 2.247-.89zm0-.445c-.942 0-1.956.435-2.55 1.03-.61.61-.68 1.412-.68 2.013v.234h6.46v-.234c0-.601-.045-1.404-.655-2.013-.594-.595-1.632-1.03-2.575-1.03zm5.768 5.385c.12 0 .18.435.18.555 0 .12-.06.554-.18.554H3.463c-.14 0-.21-.434-.21-.554 0-.12.07-.555.21-.555zm-11.865-.629c-.32 0-.48.644-.48 1.184 0 .54.16 1.183.48 1.183h12.225c.3 0 .449-.644.449-1.183 0-.54-.15-1.184-.45-1.184z"/></svg>