<?xml version="1.0" encoding="UTF-8" standalone="no"?>
<svg
   width="800"
   height="800"
   version="1.0"
   viewBox="0 0 600 600"
   id="svg10"
   sodipodi:docname="palm3.svg"
   inkscape:version="1.1.1 (3bf5ae0d25, 2021-09-20)"
   xmlns:inkscape="http://www.inkscape.org/namespaces/inkscape"
   xmlns:sodipodi="http://sodipodi.sourceforge.net/DTD/sodipodi-0.dtd"
   xmlns="http://www.w3.org/2000/svg"
   xmlns:svg="http://www.w3.org/2000/svg">
  <defs
     id="defs14" />
  <sodipodi:namedview
     id="namedview12"
     pagecolor="#ffffff"
     bordercolor="#666666"
     borderopacity="1.0"
     inkscape:pageshadow="2"
     inkscape:pageopacity="0.0"
     inkscape:pagecheckerboard="0"
     showgrid="false"
     inkscape:zoom="1.03"
     inkscape:cx="399.51456"
     inkscape:cy="400.48544"
     inkscape:window-width="1920"
     inkscape:window-height="1009"
     inkscape:window-x="-8"
     inkscape:window-y="-8"
     inkscape:window-maximized="1"
     inkscape:current-layer="svg10" />
  <g
     fill="#43ff45"
     style="fill:#e6e6e6;fill-opacity:1;stroke:none;stroke-opacity:1"
     id="g8">
    <path
       d="M2750 5899c-476-42-949-208-1348-473-174-115-294-213-446-364C-107 4009-202 2341 734 1170c102-128 307-333 436-437 1074-866 2583-870 3660-9 52 42 153 134 224 204 1154 1141 1154 2993 0 4134-152 151-272 249-446 364-543 361-1206 530-1858 473zm439-230c360-25 671-109 996-269 537-264 961-688 1225-1225 163-332 245-639 271-1016 52-752-238-1514-782-2058-335-336-764-583-1214-699-452-117-908-117-1360 0-352 91-712 273-1003 507-439 354-770 865-910 1406-137 527-112 1081 70 1590 56 155 183 409 275 550 270 410 632 731 1068 945 189 93 332 146 521 193 295 74 551 97 843 76z"
       style="fill:#e6e6e6;fill-opacity:1;stroke:none;stroke-opacity:1"
       transform="matrix(.1 0 0 -.1 0 600)"
       id="path2" />
    <path
       d="M3065 4968c-40-22-65-52-76-90-6-23-10-162-11-326l-1-287 34-7c19-4 45-5 57-2 33 7 125-21 147-46 10-11 24-20 31-20 18 0 28-20 16-32-6-6-64-11-137-12-91-1-128-5-134-15-4-7-11-68-15-136-5-96-3-142 10-202 20-99 40-123 96-115 50 6 49-15-2-32-18-6-42-23-53-38-20-27-20-29-3-125 20-114 36-152 86-205 29-30 44-38 71-38 39 1 54 11 92 61 64 84 87 240 47 307-13 20-38 41-66 53-43 19-52 46-12 36 16-5 17-3 7 9-19 23-3 28 57 17 54-10 56-9 65 14 12 33 11 359-1 405-6 21-12 169-13 335-2 276-4 302-23 346-30 70-70 116-121 138-49 21-117 24-148 7zM4029 4910c-61-32-116-122-140-228-20-89-29-242-18-288l11-44h48c58 0 110-17 110-36 0-14-35-13-92 3-10 2-18 0-18-5s26-17 58-26c56-16 112-49 101-60-3-4-35 7-72 24-36 16-84 32-106 36-38 6-44 4-80-32-32-32-41-52-56-114-18-81-32-272-21-313 5-20 16-27 58-37 30-8 61-23 75-38 45-49 24-55-61-17-31 14-68 25-83 25-33 0-22-13 15-18 28-3 110-50 150-86 18-16 31-56 18-56-3 0-36 16-75 36-48 24-80 34-103 32-30-3-34-7-51-58-28-84-33-188-13-264 20-74 45-101 101-114 88-19 130 17 181 158 37 104 41 160 15 210-26 49-26 50-3 50 33 0 59 44 91 155 18 61 44 148 58 194 13 47 27 108 30 136 5 44 2 55-20 81-14 17-29 42-32 57-4 14-13 31-21 38-26 22-15 32 30 27 24-3 49-2 56 2 16 10 78 254 88 352 11 100 3 141-35 180-54 58-128 73-194 38zM2196 4748c-41-40-45-48-51-108-7-75 15-219 39-253 9-12 22-31 30-42 10-13 19-75 28-184 13-168 22-197 57-187 59 16 81 17 81 2 0-8-8-17-19-21-23-7-56-43-48-51 4-4 18 1 33 10 39 26 42 10 6-27-38-39-38-40-12-167 23-112 73-215 100-204 8 4 50 16 93 27 62 16 81 17 90 7 9-9 8-15-8-24-33-19-125-120-131-144-8-28 5-60 64-155 56-90 86-115 146-123 42-6 48-4 81 29 32 32 35 40 35 93 0 63-41 235-65 271-8 12-15 29-15 36 0 8-15 18-32 23-37 11-52 44-19 44 11 0 22 4 25 9 5 7-27 135-81 330l-18 63-62-6c-70-7-90 6-52 35l24 18-39 3c-22 2-41 8-43 14-5 15 30 24 96 24h54l-7 43c-3 23-11 87-16 142-12 111-59 307-89 375-38 84-114 140-190 140-34 0-48-7-85-42zM4876 4299c-16-4-40-18-54-31-23-21-79-130-97-188-21-69-63-143-124-215-93-111-107-132-146-229-20-51-54-109-84-146-92-115-158-284-149-382 7-66 37-98 93-98 34 0 47 6 77 38 43 45 95 126 149 234l41 81-42 39c-62 57-41 71 37 25 33-19 33-19 77 3 58 28 112 88 146 164 49 109 58 178 34 256-7 24-7 24 13 8 24-22 49-23 57-3 4 10-9 22-41 37-55 27-72 55-27 44 79-18 109-18 126 0 21 25 68 187 68 239 0 88-74 148-154 124zM3290 3126c-3-2-57-19-120-36s-144-44-179-60c-35-17-65-30-67-30-9 0-3 37 7 47 17 17 3 43-24 43-50 0-224-72-282-115-17-14-44-48-59-75-73-134-5-306 153-386 39-20 45-20 83-7 157 54 581 33 778-39 33-12 101-23 170-28 65-5 169-23 238-40 68-16 141-30 162-30 35 0 70-19 70-39 0-4-6-16-14-27-12-16-29-19-119-22-98-4-211 10-221 26-2 4 37 4 87 0 199-15 195 25-8 82-22 6-92 15-155 20-66 6-166 23-235 40-195 50-268 60-430 59-151-1-245-14-252-36-2-6 26-28 64-49 37-21 82-48 98-60 17-12 62-39 100-59l70-37 165 4c90 2 154 1 142-2-33-7-32-22 2-38 32-16 190-21 251-9 33 7 38 6 27-5-9-9-47-14-115-16-81-3-120 1-187 18-100 27-150 35-150 25 0-4 44-50 98-102 53-53 72-75 42-49-123 102-183 137-261 150-115 20-391-16-466-60-24-14-43-21-43-17 0 26 146 78 243 87 82 7 130 23 124 39-2 6-37 29-79 51l-76 41-30-29c-27-25-34-27-64-18-40 12-234 27-335 25-59-1-81-6-118-27-70-41-95-115-60-176 8-15 14-53 15-94 0-67-1-69-46-119-69-77-78-100-77-192 3-136 60-264 236-524 81-119 130-160 228-189 216-65 441 55 503 267 20 67 20 173 1 226-18 49-19 78-3 73 18-6 50-193 44-263-6-72-29-146-62-194-13-19-21-37-19-40 7-6 205 31 205 39 0 4-9 15-20 25-32 29-26 49 13 41 49-10 158-67 197-104 46-43 62-47 215-47 178 0 262 31 357 133 76 81 120 185 163 387 15 72 45 211 67 310 66 295 67 305 67 440 1 160-11 244-43 316-31 71-151 226-201 261-52 36-169 93-220 107-53 14-147 13-215-3-70-16-100-9-237 53-100 46-181 70-193 57zm-222-458c14-15 22-31 19-35-4-3-25 13-46 36-41 44-44 44-55-1-7-30-71-98-93-98-25 0-13 29 23 57 41 32 64 71 64 107 0 57 12 60 38 10 13-27 36-61 50-76zm442 31c0-55-46-139-77-139-22 0-15 36 24 109 37 73 53 81 53 30zm356-6c8-28-10-108-28-130-12-15-34-17-42-4-3 5 5 33 19 63 14 29 25 63 25 76 0 31 18 28 26-5zm-1166-537c0-3-4-8-10-11-5-3-10-1-10 4 0 6 5 11 10 11 6 0 10-2 10-4zM1206 2568c-76-10-136-39-180-88-97-107-61-235 100-356 85-64 98-69 371-153 57-18 106-39 111-48 14-24 28-9 42 44 20 80 18 77 35 63 8-7 15-22 15-33 0-29 66-87 146-127 38-19 95-56 128-82 82-66 122-65 159 6 15 30 21 59 21 106 0 117-56 183-175 207-69 14-137 57-249 158-47 41-99 85-116 97-17 11-39 39-50 62-50 103-203 165-358 144z"
       style="fill:#e6e6e6;fill-opacity:1;stroke:none;stroke-opacity:1"
       transform="matrix(.1 0 0 -.1 0 600)"
       id="path4" />
    <path
       d="M2511 2483c-12-25-10-29 15-50 31-24 94-43 151-44 21 0 63-8 93-18 58-19 82-18 102 6 10 12 9 18-7 30-12 8-30 11-43 8-16-4-39 3-69 20-25 15-71 31-105 35-33 5-68 16-77 24-26 23-46 19-60-11z"
       style="fill:#e6e6e6;fill-opacity:1;stroke:none;stroke-opacity:1"
       transform="matrix(.1 0 0 -.1 0 600)"
       id="path6" />
  </g>
</svg>
