<svg xmlns="http://www.w3.org/2000/svg" xml:space="preserve" width="1160" height="1160"><path fill="#FFF" d="M0 0h1160v1160H0z"/><path d="M0 0h100v100H0z" style="fill:#000" transform="matrix(.4 0 0 .4 400 80)"/><path d="M0 0h100v100H0z" style="fill:#000" transform="matrix(.4 0 0 .4 480 80)"/><path d="M0 0h100v100H0z" style="fill:#000" transform="matrix(.4 0 0 .4 520 80)"/><path d="M0 0h100v100H0z" style="fill:#000" transform="matrix(.4 0 0 .4 560 80)"/><path d="M0 0h100v100H0z" style="fill:#000" transform="matrix(.4 0 0 .4 600 80)"/><path d="M0 0h100v100H0z" style="fill:#000" transform="matrix(.4 0 0 .4 640 80)"/><path d="M0 0h100v100H0z" style="fill:#000" transform="matrix(.4 0 0 .4 440 120)"/><path d="M0 0h100v100H0z" style="fill:#000" transform="matrix(.4 0 0 .4 480 120)"/><path d="M0 0h100v100H0z" style="fill:#000" transform="matrix(.4 0 0 .4 520 120)"/><path d="M0 0h100v100H0z" style="fill:#000" transform="matrix(.4 0 0 .4 560 120)"/><path d="M0 0h100v100H0z" style="fill:#000" transform="matrix(.4 0 0 .4 640 120)"/><path d="M0 0h100v100H0z" style="fill:#000" transform="matrix(.4 0 0 .4 720 120)"/><path d="M0 0h100v100H0z" style="fill:#000" transform="matrix(.4 0 0 .4 400 160)"/><path d="M0 0h100v100H0z" style="fill:#000" transform="matrix(.4 0 0 .4 520 160)"/><path d="M0 0h100v100H0z" style="fill:#000" transform="matrix(.4 0 0 .4 600 160)"/><path d="M0 0h100v100H0z" style="fill:#000" transform="matrix(.4 0 0 .4 720 160)"/><path d="M0 0h100v100H0z" style="fill:#000" transform="matrix(.4 0 0 .4 480 200)"/><path d="M0 0h100v100H0z" style="fill:#000" transform="matrix(.4 0 0 .4 600 200)"/><path d="M0 0h100v100H0z" style="fill:#000" transform="matrix(.4 0 0 .4 720 200)"/><path d="M0 0h100v100H0z" style="fill:#000" transform="matrix(.4 0 0 .4 480 240)"/><path d="M0 0h100v100H0z" style="fill:#000" transform="matrix(.4 0 0 .4 520 240)"/><path d="M0 0h100v100H0z" style="fill:#000" transform="matrix(.4 0 0 .4 560 240)"/><path d="M0 0h100v100H0z" style="fill:#000" transform="matrix(.4 0 0 .4 640 240)"/><path d="M0 0h100v100H0z" style="fill:#000" transform="matrix(.4 0 0 .4 400 280)"/><path d="M0 0h100v100H0z" style="fill:#000" transform="matrix(.4 0 0 .4 440 280)"/><path d="M0 0h100v100H0z" style="fill:#000" transform="matrix(.4 0 0 .4 600 280)"/><path d="M0 0h100v100H0z" style="fill:#000" transform="matrix(.4 0 0 .4 640 280)"/><path d="M0 0h100v100H0z" style="fill:#000" transform="matrix(.4 0 0 .4 400 320)"/><path d="M0 0h100v100H0z" style="fill:#000" transform="matrix(.4 0 0 .4 480 320)"/><path d="M0 0h100v100H0z" style="fill:#000" transform="matrix(.4 0 0 .4 560 320)"/><path d="M0 0h100v100H0z" style="fill:#000" transform="matrix(.4 0 0 .4 640 320)"/><path d="M0 0h100v100H0z" style="fill:#000" transform="matrix(.4 0 0 .4 720 320)"/><path d="M0 0h100v100H0z" style="fill:#000" transform="matrix(.4 0 0 .4 480 360)"/><path d="M0 0h100v100H0z" style="fill:#000" transform="matrix(.4 0 0 .4 520 360)"/><path d="M0 0h100v100H0z" style="fill:#000" transform="matrix(.4 0 0 .4 640 360)"/><path d="M0 0h100v100H0z" style="fill:#000" transform="matrix(.4 0 0 .4 680 360)"/><path d="M0 0h100v100H0z" style="fill:#000" transform="matrix(.4 0 0 .4 720 360)"/><path d="M0 0h100v100H0z" style="fill:#000" transform="matrix(.4 0 0 .4 80 400)"/><path d="M0 0h100v100H0z" style="fill:#000" transform="matrix(.4 0 0 .4 160 400)"/><path d="M0 0h100v100H0z" style="fill:#000" transform="matrix(.4 0 0 .4 320 400)"/><path d="M0 0h100v100H0z" style="fill:#000" transform="matrix(.4 0 0 .4 360 400)"/><path d="M0 0h100v100H0z" style="fill:#000" transform="matrix(.4 0 0 .4 440 400)"/><path d="M0 0h100v100H0z" style="fill:#000" transform="matrix(.4 0 0 .4 560 400)"/><path d="M0 0h100v100H0z" style="fill:#000" transform="matrix(.4 0 0 .4 600 400)"/><path d="M0 0h100v100H0z" style="fill:#000" transform="matrix(.4 0 0 .4 640 400)"/><path d="M0 0h100v100H0z" style="fill:#000" transform="matrix(.4 0 0 .4 720 400)"/><path d="M0 0h100v100H0z" style="fill:#000" transform="matrix(.4 0 0 .4 840 400)"/><path d="M0 0h100v100H0z" style="fill:#000" transform="matrix(.4 0 0 .4 960 400)"/><path d="M0 0h100v100H0z" style="fill:#000" transform="matrix(.4 0 0 .4 1040 400)"/><path d="M0 0h100v100H0z" style="fill:#000" transform="matrix(.4 0 0 .4 80 440)"/><path d="M0 0h100v100H0z" style="fill:#000" transform="matrix(.4 0 0 .4 120 440)"/><path d="M0 0h100v100H0z" style="fill:#000" transform="matrix(.4 0 0 .4 200 440)"/><path d="M0 0h100v100H0z" style="fill:#000" transform="matrix(.4 0 0 .4 280 440)"/><path d="M0 0h100v100H0z" style="fill:#000" transform="matrix(.4 0 0 .4 360 440)"/><path d="M0 0h100v100H0z" style="fill:#000" transform="matrix(.4 0 0 .4 440 440)"/><path d="M0 0h100v100H0z" style="fill:#000" transform="matrix(.4 0 0 .4 560 440)"/><path d="M0 0h100v100H0z" style="fill:#000" transform="matrix(.4 0 0 .4 600 440)"/><path d="M0 0h100v100H0z" style="fill:#000" transform="matrix(.4 0 0 .4 680 440)"/><path d="M0 0h100v100H0z" style="fill:#000" transform="matrix(.4 0 0 .4 800 440)"/><path d="M0 0h100v100H0z" style="fill:#000" transform="matrix(.4 0 0 .4 840 440)"/><path d="M0 0h100v100H0z" style="fill:#000" transform="matrix(.4 0 0 .4 920 440)"/><path d="M0 0h100v100H0z" style="fill:#000" transform="matrix(.4 0 0 .4 1000 440)"/><path d="M0 0h100v100H0z" style="fill:#000" transform="matrix(.4 0 0 .4 1040 440)"/><path d="M0 0h100v100H0z" style="fill:#000" transform="matrix(.4 0 0 .4 120 480)"/><path d="M0 0h100v100H0z" style="fill:#000" transform="matrix(.4 0 0 .4 280 480)"/><path d="M0 0h100v100H0z" style="fill:#000" transform="matrix(.4 0 0 .4 320 480)"/><path d="M0 0h100v100H0z" style="fill:#000" transform="matrix(.4 0 0 .4 480 480)"/><path d="M0 0h100v100H0z" style="fill:#000" transform="matrix(.4 0 0 .4 520 480)"/><path d="M0 0h100v100H0z" style="fill:#000" transform="matrix(.4 0 0 .4 680 480)"/><path d="M0 0h100v100H0z" style="fill:#000" transform="matrix(.4 0 0 .4 720 480)"/><path d="M0 0h100v100H0z" style="fill:#000" transform="matrix(.4 0 0 .4 760 480)"/><path d="M0 0h100v100H0z" style="fill:#000" transform="matrix(.4 0 0 .4 840 480)"/><path d="M0 0h100v100H0z" style="fill:#000" transform="matrix(.4 0 0 .4 880 480)"/><path d="M0 0h100v100H0z" style="fill:#000" transform="matrix(.4 0 0 .4 920 480)"/><path d="M0 0h100v100H0z" style="fill:#000" transform="matrix(.4 0 0 .4 960 480)"/><path d="M0 0h100v100H0z" style="fill:#000" transform="matrix(.4 0 0 .4 1040 480)"/><path d="M0 0h100v100H0z" style="fill:#000" transform="matrix(.4 0 0 .4 120 520)"/><path d="M0 0h100v100H0z" style="fill:#000" transform="matrix(.4 0 0 .4 200 520)"/><path d="M0 0h100v100H0z" style="fill:#000" transform="matrix(.4 0 0 .4 280 520)"/><path d="M0 0h100v100H0z" style="fill:#000" transform="matrix(.4 0 0 .4 360 520)"/><path d="M0 0h100v100H0z" style="fill:#000" transform="matrix(.4 0 0 .4 440 520)"/><path d="M0 0h100v100H0z" style="fill:#000" transform="matrix(.4 0 0 .4 480 520)"/><path d="M0 0h100v100H0z" style="fill:#000" transform="matrix(.4 0 0 .4 560 520)"/><path d="M0 0h100v100H0z" style="fill:#000" transform="matrix(.4 0 0 .4 600 520)"/><path d="M0 0h100v100H0z" style="fill:#000" transform="matrix(.4 0 0 .4 920 520)"/><path d="M0 0h100v100H0z" style="fill:#000" transform="matrix(.4 0 0 .4 80 560)"/><path d="M0 0h100v100H0z" style="fill:#000" transform="matrix(.4 0 0 .4 240 560)"/><path d="M0 0h100v100H0z" style="fill:#000" transform="matrix(.4 0 0 .4 320 560)"/><path d="M0 0h100v100H0z" style="fill:#000" transform="matrix(.4 0 0 .4 520 560)"/><path d="M0 0h100v100H0z" style="fill:#000" transform="matrix(.4 0 0 .4 560 560)"/><path d="M0 0h100v100H0z" style="fill:#000" transform="matrix(.4 0 0 .4 600 560)"/><path d="M0 0h100v100H0z" style="fill:#000" transform="matrix(.4 0 0 .4 720 560)"/><path d="M0 0h100v100H0z" style="fill:#000" transform="matrix(.4 0 0 .4 800 560)"/><path d="M0 0h100v100H0z" style="fill:#000" transform="matrix(.4 0 0 .4 1040 560)"/><path d="M0 0h100v100H0z" style="fill:#000" transform="matrix(.4 0 0 .4 120 600)"/><path d="M0 0h100v100H0z" style="fill:#000" transform="matrix(.4 0 0 .4 200 600)"/><path d="M0 0h100v100H0z" style="fill:#000" transform="matrix(.4 0 0 .4 240 600)"/><path d="M0 0h100v100H0z" style="fill:#000" transform="matrix(.4 0 0 .4 280 600)"/><path d="M0 0h100v100H0z" style="fill:#000" transform="matrix(.4 0 0 .4 440 600)"/><path d="M0 0h100v100H0z" style="fill:#000" transform="matrix(.4 0 0 .4 560 600)"/><path d="M0 0h100v100H0z" style="fill:#000" transform="matrix(.4 0 0 .4 680 600)"/><path d="M0 0h100v100H0z" style="fill:#000" transform="matrix(.4 0 0 .4 720 600)"/><path d="M0 0h100v100H0z" style="fill:#000" transform="matrix(.4 0 0 .4 800 600)"/><path d="M0 0h100v100H0z" style="fill:#000" transform="matrix(.4 0 0 .4 840 600)"/><path d="M0 0h100v100H0z" style="fill:#000" transform="matrix(.4 0 0 .4 1000 600)"/><path d="M0 0h100v100H0z" style="fill:#000" transform="matrix(.4 0 0 .4 1040 600)"/><path d="M0 0h100v100H0z" style="fill:#000" transform="matrix(.4 0 0 .4 80 640)"/><path d="M0 0h100v100H0z" style="fill:#000" transform="matrix(.4 0 0 .4 120 640)"/><path d="M0 0h100v100H0z" style="fill:#000" transform="matrix(.4 0 0 .4 160 640)"/><path d="M0 0h100v100H0z" style="fill:#000" transform="matrix(.4 0 0 .4 320 640)"/><path d="M0 0h100v100H0z" style="fill:#000" transform="matrix(.4 0 0 .4 360 640)"/><path d="M0 0h100v100H0z" style="fill:#000" transform="matrix(.4 0 0 .4 400 640)"/><path d="M0 0h100v100H0z" style="fill:#000" transform="matrix(.4 0 0 .4 440 640)"/><path d="M0 0h100v100H0z" style="fill:#000" transform="matrix(.4 0 0 .4 480 640)"/><path d="M0 0h100v100H0z" style="fill:#000" transform="matrix(.4 0 0 .4 560 640)"/><path d="M0 0h100v100H0z" style="fill:#000" transform="matrix(.4 0 0 .4 600 640)"/><path d="M0 0h100v100H0z" style="fill:#000" transform="matrix(.4 0 0 .4 640 640)"/><path d="M0 0h100v100H0z" style="fill:#000" transform="matrix(.4 0 0 .4 680 640)"/><path d="M0 0h100v100H0z" style="fill:#000" transform="matrix(.4 0 0 .4 760 640)"/><path d="M0 0h100v100H0z" style="fill:#000" transform="matrix(.4 0 0 .4 800 640)"/><path d="M0 0h100v100H0z" style="fill:#000" transform="matrix(.4 0 0 .4 920 640)"/><path d="M0 0h100v100H0z" style="fill:#000" transform="matrix(.4 0 0 .4 960 640)"/><path d="M0 0h100v100H0z" style="fill:#000" transform="matrix(.4 0 0 .4 1040 640)"/><path d="M0 0h100v100H0z" style="fill:#000" transform="matrix(.4 0 0 .4 200 680)"/><path d="M0 0h100v100H0z" style="fill:#000" transform="matrix(.4 0 0 .4 240 680)"/><path d="M0 0h100v100H0z" style="fill:#000" transform="matrix(.4 0 0 .4 280 680)"/><path d="M0 0h100v100H0z" style="fill:#000" transform="matrix(.4 0 0 .4 400 680)"/><path d="M0 0h100v100H0z" style="fill:#000" transform="matrix(.4 0 0 .4 440 680)"/><path d="M0 0h100v100H0z" style="fill:#000" transform="matrix(.4 0 0 .4 520 680)"/><path d="M0 0h100v100H0z" style="fill:#000" transform="matrix(.4 0 0 .4 560 680)"/><path d="M0 0h100v100H0z" style="fill:#000" transform="matrix(.4 0 0 .4 640 680)"/><path d="M0 0h100v100H0z" style="fill:#000" transform="matrix(.4 0 0 .4 680 680)"/><path d="M0 0h100v100H0z" style="fill:#000" transform="matrix(.4 0 0 .4 720 680)"/><path d="M0 0h100v100H0z" style="fill:#000" transform="matrix(.4 0 0 .4 760 680)"/><path d="M0 0h100v100H0z" style="fill:#000" transform="matrix(.4 0 0 .4 840 680)"/><path d="M0 0h100v100H0z" style="fill:#000" transform="matrix(.4 0 0 .4 880 680)"/><path d="M0 0h100v100H0z" style="fill:#000" transform="matrix(.4 0 0 .4 920 680)"/><path d="M0 0h100v100H0z" style="fill:#000" transform="matrix(.4 0 0 .4 80 720)"/><path d="M0 0h100v100H0z" style="fill:#000" transform="matrix(.4 0 0 .4 120 720)"/><path d="M0 0h100v100H0z" style="fill:#000" transform="matrix(.4 0 0 .4 160 720)"/><path d="M0 0h100v100H0z" style="fill:#000" transform="matrix(.4 0 0 .4 240 720)"/><path d="M0 0h100v100H0z" style="fill:#000" transform="matrix(.4 0 0 .4 320 720)"/><path d="M0 0h100v100H0z" style="fill:#000" transform="matrix(.4 0 0 .4 480 720)"/><path d="M0 0h100v100H0z" style="fill:#000" transform="matrix(.4 0 0 .4 600 720)"/><path d="M0 0h100v100H0z" style="fill:#000" transform="matrix(.4 0 0 .4 640 720)"/><path d="M0 0h100v100H0z" style="fill:#000" transform="matrix(.4 0 0 .4 720 720)"/><path d="M0 0h100v100H0z" style="fill:#000" transform="matrix(.4 0 0 .4 760 720)"/><path d="M0 0h100v100H0z" style="fill:#000" transform="matrix(.4 0 0 .4 800 720)"/><path d="M0 0h100v100H0z" style="fill:#000" transform="matrix(.4 0 0 .4 840 720)"/><path d="M0 0h100v100H0z" style="fill:#000" transform="matrix(.4 0 0 .4 880 720)"/><path d="M0 0h100v100H0z" style="fill:#000" transform="matrix(.4 0 0 .4 1000 720)"/><path d="M0 0h100v100H0z" style="fill:#000" transform="matrix(.4 0 0 .4 400 760)"/><path d="M0 0h100v100H0z" style="fill:#000" transform="matrix(.4 0 0 .4 440 760)"/><path d="M0 0h100v100H0z" style="fill:#000" transform="matrix(.4 0 0 .4 480 760)"/><path d="M0 0h100v100H0z" style="fill:#000" transform="matrix(.4 0 0 .4 600 760)"/><path d="M0 0h100v100H0z" style="fill:#000" transform="matrix(.4 0 0 .4 640 760)"/><path d="M0 0h100v100H0z" style="fill:#000" transform="matrix(.4 0 0 .4 720 760)"/><path d="M0 0h100v100H0z" style="fill:#000" transform="matrix(.4 0 0 .4 880 760)"/><path d="M0 0h100v100H0z" style="fill:#000" transform="matrix(.4 0 0 .4 1040 760)"/><path d="M0 0h100v100H0z" style="fill:#000" transform="matrix(.4 0 0 .4 400 800)"/><path d="M0 0h100v100H0z" style="fill:#000" transform="matrix(.4 0 0 .4 480 800)"/><path d="M0 0h100v100H0z" style="fill:#000" transform="matrix(.4 0 0 .4 520 800)"/><path d="M0 0h100v100H0z" style="fill:#000" transform="matrix(.4 0 0 .4 720 800)"/><path d="M0 0h100v100H0z" style="fill:#000" transform="matrix(.4 0 0 .4 800 800)"/><path d="M0 0h100v100H0z" style="fill:#000" transform="matrix(.4 0 0 .4 880 800)"/><path d="M0 0h100v100H0z" style="fill:#000" transform="matrix(.4 0 0 .4 1040 800)"/><path d="M0 0h100v100H0z" style="fill:#000" transform="matrix(.4 0 0 .4 600 840)"/><path d="M0 0h100v100H0z" style="fill:#000" transform="matrix(.4 0 0 .4 680 840)"/><path d="M0 0h100v100H0z" style="fill:#000" transform="matrix(.4 0 0 .4 720 840)"/><path d="M0 0h100v100H0z" style="fill:#000" transform="matrix(.4 0 0 .4 880 840)"/><path d="M0 0h100v100H0z" style="fill:#000" transform="matrix(.4 0 0 .4 1000 840)"/><path d="M0 0h100v100H0z" style="fill:#000" transform="matrix(.4 0 0 .4 1040 840)"/><path d="M0 0h100v100H0z" style="fill:#000" transform="matrix(.4 0 0 .4 440 880)"/><path d="M0 0h100v100H0z" style="fill:#000" transform="matrix(.4 0 0 .4 480 880)"/><path d="M0 0h100v100H0z" style="fill:#000" transform="matrix(.4 0 0 .4 520 880)"/><path d="M0 0h100v100H0z" style="fill:#000" transform="matrix(.4 0 0 .4 560 880)"/><path d="M0 0h100v100H0z" style="fill:#000" transform="matrix(.4 0 0 .4 600 880)"/><path d="M0 0h100v100H0z" style="fill:#000" transform="matrix(.4 0 0 .4 680 880)"/><path d="M0 0h100v100H0z" style="fill:#000" transform="matrix(.4 0 0 .4 720 880)"/><path d="M0 0h100v100H0z" style="fill:#000" transform="matrix(.4 0 0 .4 760 880)"/><path d="M0 0h100v100H0z" style="fill:#000" transform="matrix(.4 0 0 .4 800 880)"/><path d="M0 0h100v100H0z" style="fill:#000" transform="matrix(.4 0 0 .4 840 880)"/><path d="M0 0h100v100H0z" style="fill:#000" transform="matrix(.4 0 0 .4 880 880)"/><path d="M0 0h100v100H0z" style="fill:#000" transform="matrix(.4 0 0 .4 1000 880)"/><path d="M0 0h100v100H0z" style="fill:#000" transform="matrix(.4 0 0 .4 1040 880)"/><path d="M0 0h100v100H0z" style="fill:#000" transform="matrix(.4 0 0 .4 480 920)"/><path d="M0 0h100v100H0z" style="fill:#000" transform="matrix(.4 0 0 .4 560 920)"/><path d="M0 0h100v100H0z" style="fill:#000" transform="matrix(.4 0 0 .4 680 920)"/><path d="M0 0h100v100H0z" style="fill:#000" transform="matrix(.4 0 0 .4 760 920)"/><path d="M0 0h100v100H0z" style="fill:#000" transform="matrix(.4 0 0 .4 880 920)"/><path d="M0 0h100v100H0z" style="fill:#000" transform="matrix(.4 0 0 .4 960 920)"/><path d="M0 0h100v100H0z" style="fill:#000" transform="matrix(.4 0 0 .4 1000 920)"/><path d="M0 0h100v100H0z" style="fill:#000" transform="matrix(.4 0 0 .4 400 960)"/><path d="M0 0h100v100H0z" style="fill:#000" transform="matrix(.4 0 0 .4 480 960)"/><path d="M0 0h100v100H0z" style="fill:#000" transform="matrix(.4 0 0 .4 560 960)"/><path d="M0 0h100v100H0z" style="fill:#000" transform="matrix(.4 0 0 .4 600 960)"/><path d="M0 0h100v100H0z" style="fill:#000" transform="matrix(.4 0 0 .4 640 960)"/><path d="M0 0h100v100H0z" style="fill:#000" transform="matrix(.4 0 0 .4 680 960)"/><path d="M0 0h100v100H0z" style="fill:#000" transform="matrix(.4 0 0 .4 720 960)"/><path d="M0 0h100v100H0z" style="fill:#000" transform="matrix(.4 0 0 .4 840 960)"/><path d="M0 0h100v100H0z" style="fill:#000" transform="matrix(.4 0 0 .4 880 960)"/><path d="M0 0h100v100H0z" style="fill:#000" transform="matrix(.4 0 0 .4 920 960)"/><path d="M0 0h100v100H0z" style="fill:#000" transform="matrix(.4 0 0 .4 1000 960)"/><path d="M0 0h100v100H0z" style="fill:#000" transform="matrix(.4 0 0 .4 1040 960)"/><path d="M0 0h100v100H0z" style="fill:#000" transform="matrix(.4 0 0 .4 440 1000)"/><path d="M0 0h100v100H0z" style="fill:#000" transform="matrix(.4 0 0 .4 520 1000)"/><path d="M0 0h100v100H0z" style="fill:#000" transform="matrix(.4 0 0 .4 560 1000)"/><path d="M0 0h100v100H0z" style="fill:#000" transform="matrix(.4 0 0 .4 640 1000)"/><path d="M0 0h100v100H0z" style="fill:#000" transform="matrix(.4 0 0 .4 720 1000)"/><path d="M0 0h100v100H0z" style="fill:#000" transform="matrix(.4 0 0 .4 840 1000)"/><path d="M0 0h100v100H0z" style="fill:#000" transform="matrix(.4 0 0 .4 880 1000)"/><path d="M0 0h100v100H0z" style="fill:#000" transform="matrix(.4 0 0 .4 400 1040)"/><path d="M0 0h100v100H0z" style="fill:#000" transform="matrix(.4 0 0 .4 440 1040)"/><path d="M0 0h100v100H0z" style="fill:#000" transform="matrix(.4 0 0 .4 600 1040)"/><path d="M0 0h100v100H0z" style="fill:#000" transform="matrix(.4 0 0 .4 640 1040)"/><path d="M0 0h100v100H0z" style="fill:#000" transform="matrix(.4 0 0 .4 720 1040)"/><path d="M0 0h100v100H0z" style="fill:#000" transform="matrix(.4 0 0 .4 760 1040)"/><path d="M0 0h100v100H0z" style="fill:#000" transform="matrix(.4 0 0 .4 920 1040)"/><path d="M0 0h100v100H0z" style="fill:#000" transform="matrix(.4 0 0 .4 1040 1040)"/><g style="fill:#000"><path d="M15 15h70v70H15z" style="fill:none" transform="matrix(2.8 0 0 2.8 80 80)"/><path d="M318 80H80v280h280V80h-42zm0 238H122V122h196v196z"/></g><g style="fill:#000"><path d="M15 15h70v70H15z" style="fill:none" transform="matrix(2.8 0 0 2.8 800 80)"/><path d="M1038 80H800v280h280V80h-42zm0 238H842V122h196v196z"/></g><g style="fill:#000"><path d="M15 15h70v70H15z" style="fill:none" transform="matrix(2.8 0 0 2.8 80 800)"/><path d="M318 800H80v280h280V800h-42zm0 238H122V842h196v196z"/></g><path d="M0 0h100v100H0z" style="fill:#000" transform="matrix(1.2 0 0 1.2 160 160)"/><path d="M0 0h100v100H0z" style="fill:#000" transform="matrix(1.2 0 0 1.2 880 160)"/><path d="M0 0h100v100H0z" style="fill:#000" transform="matrix(1.2 0 0 1.2 160 880)"/></svg>