<svg xmlns="http://www.w3.org/2000/svg" width="322.857" height="18"><path d="M321.21 0c.335 0 .67.026.995.066.447.113.217.626-.18.626a.476.476 0 01-.082-.008c-.84.097-1.872.15-2.506.626-.84.916-.463 2.821-.561 3.725-.007.05-.01 3.653-.01 5.48a6.145 6.145 0 012.635-.586c.402 0 .801.04 1.188.117.44.231-.077.528-.423.528a.454.454 0 01-.115-.013c-1.226.133-2.62.461-3.243 1.602-.061.206-.023.277.071.277.206 0 .68-.342.946-.342.014 0 .028 0 .04.003a7.535 7.535 0 011.581-.169c.39 0 .776.031 1.148.095.42.278-.095.534-.438.534a.532.532 0 01-.105-.01c-1.251.151-2.636.49-3.243 1.633-.007 1.27 0 2.11-.033 3.278.014.36-.22.538-.456.538-.235 0-.473-.176-.475-.526.009-1.15.091-2.161-.06-3.277-.304-1.253-2.477-1.445-3.827-1.754-.294-.347.285-.475.659-.475.056 0 .107.003.15.008.173-.013.347-.02.521-.02.882 0 1.771.175 2.557.58.032-.755-.711-1.19-1.244-1.493-.84-.361-1.765-.397-2.643-.59-.313-.273.18-.501.521-.501a.58.58 0 01.125.012c.216-.02.432-.031.648-.031.903 0 1.805.183 2.615.582-.017-2.851-.063-5.61.019-8.308.065-.834.546-1.6 1.354-1.849.58-.264 1.227-.358 1.871-.358zM297.215 2.99q-.557 0-1.086.606 4.368 5.2 5.46 5.81.815.457 1.434.457.21 0 .399-.053.741-.208 1.586-.234h.042q.828 0 1.817.988h.13q-.702-1.638-1.963-2.34-1.261-.702-7.397-5.148-.213-.085-.422-.085zm7.731-2.369q-.065 0-.133.01v6.683q2.054 1.196 2.834 3.354-1.196-8.268-1.677-9.204-.433-.843-1.024-.843zm5.356 10.468q.08 0 .153.138.13.247-.234.689-.208-.546-.052-.741.069-.086.133-.086zm-.037-.372q-.153 0-.33.237-.39.52.234 2.08.702-1.352.43-1.976-.15-.34-.334-.34zm-6.804 2.577v.39q.286-.026.442-.182-.052-.078-.208-.208zm-.598.884l-2.418.338-.494.884q.832-.234 1.833-.624 1-.39 1.079-.598zm5.33-.364l-.468.234-.156 1.118.416 1.274h.65l-.442-1.274v-1.352zm-1.118.39l-.442.13-.156.832.416 1.274h.65l-.442-1.274-.026-.962zm-1.534.156l-.156.806.416 1.274h.65l-.442-1.274v-.78l-.468-.026zm.994-3.234q-.415 0-.89.1-1.404.3-1.768 1.418h-1.092l-.416-.676q-5.512 1.274-6.214 4.602 1.508-.832 3.172-1.118l.728-1.456 2.886-.39-.078-.702h.988q1.092.9 2.228.9.244 0 .489-.042 1.391-.234 1.82-.95.43-.714-.455-1.3-.585-.386-1.398-.386zM304.69 0q.947 0 1.488.658.663.806 1.235 4.238l.91 5.954q.442.468.676.52h.312q.026-.65.494-1.196.416-3.978-.364-6.968l.312-.598q1.118 3.38.546 7.592h.078q1.794-4.03.52-7.592l.312-.468q1.664 3.796-.364 8.242.572 1.248.117 2.054-.455.806-.559 1.508l-.182.13q-.702-1.04-.806-1.794h-.26q-.026.598-.338 1.248l-.182 1.638.442 1.274h2.262v.624h-6.526v-.624h.546l-.416-1.274-.026-.962q-.468-.156-.702-.364-.338.312-.754.312.026.26-.104.442-1.04.806-3.718 1.404l-.91 1.768q0-.434-.27-.434-.085 0-.198.044l.728-1.3q-1.508.338-2.288.858-.416.442.052 1.066-1.04-.442-1.17-1.248.416-3.926 7.046-5.46l.468.78h.416q.338-1.092 2.678-1.508-.522-.388-1.285-.388-.414 0-.899.115-.492.116-.961.116-.844 0-1.613-.376-1.196-.585-6.084-6.461.9-1.136 1.905-1.136.329 0 .669.122l6.318 4.524V.034q.235-.034.449-.034z"/><path d="M285.849.375h0M285.849 17.625h0M285.849.375c9.625 0 9.625 17.25 0 17.25" fill="none" stroke="#000"/><path d="M250.47 12.145V8.566h.485v1.782l1.78-1.782h.642l-1.5 1.454 1.562 2.125h-.625l-1.281-1.813-.578.578v1.235h-.485zM253.915 12.145V8.566h.468v3.579h-.468zM255.21 12.145V8.566h.484l1.891 2.813V8.566h.453v3.579h-.484l-1.89-2.813v2.813h-.454zM260.508 10.738v-.422h1.516v1.329q-.344.28-.719.421-.375.141-.765.141-.532 0-.961-.227-.43-.226-.649-.656-.218-.43-.218-.945 0-.531.218-.984.219-.454.633-.672.414-.22.945-.22.391 0 .704.126.312.125.492.351.18.227.258.586l-.422.11q-.078-.266-.196-.422-.117-.156-.343-.25-.227-.094-.493-.094-.328 0-.562.102-.234.101-.383.258-.148.156-.226.359-.141.328-.141.719 0 .468.164.797.164.328.484.484.32.156.664.156.313 0 .61-.125t.437-.25v-.672h-1.047zM262.663 9.832l-.11-.672v-.594h.5v.594l-.109.672h-.28zM263.508 10.988l.454-.031q.03.266.148.438.117.171.36.28.242.11.554.11.266 0 .477-.086.21-.086.312-.226.102-.141.102-.297 0-.172-.102-.297-.101-.125-.32-.219-.156-.047-.649-.164-.492-.117-.68-.226-.265-.141-.39-.336-.125-.196-.125-.446 0-.265.156-.5.157-.234.453-.36.297-.124.657-.124.39 0 .695.125.305.125.469.375.164.25.18.562l-.454.047q-.047-.343-.258-.515-.21-.172-.617-.172-.422 0-.625.156t-.203.375q0 .188.14.313.141.125.72.257.578.133.796.227.313.156.461.375.149.219.149.5 0 .297-.164.547-.164.25-.469.39-.305.141-.695.141-.485 0-.813-.14-.328-.141-.515-.43-.188-.29-.204-.649zM268.389 12.145V8.566h.484l1.89 2.813V8.566h.454v3.579h-.484l-1.891-2.813v2.813h-.453zM271.625 12.145L273 8.566h.5l1.468 3.579h-.547l-.406-1.079h-1.5l-.39 1.079h-.5zm1.03-1.47h1.204l-.375-1q-.172-.437-.25-.734-.063.344-.188.688l-.39 1.047zM275.335 12.145V8.566h.703l.86 2.532q.108.359.17.53.048-.187.188-.577l.86-2.485h.625v3.579h-.453v-3l-1.032 3h-.437l-1.031-3.047v3.047h-.453zM279.515 12.145V8.566h2.594v.422h-2.11v1.094h1.97v.422h-1.97v1.219h2.188v.422h-2.672z"/><path d="M239.034.375v17.25M246.722.375c-9.625 0-9.625 17.25 0 17.25M246.722.375h0M246.722 17.625h0" fill="none" stroke="#000"/><path d="M231.065.597a2.12 2.12 0 00-.692.109c.03.223.168.569.952.773-.73-.053-1.206-.113-1.452-.307-.089.2-.137.427-.158.556a.297.297 0 01-.206.237c-.625.191-1.174 1.112-1.701 1.763-.95 1.173-1.77 2.48-2.687 3.733.423-.207.845-.415 1.27-.622 1.181-.622 2.394-1.11 3.406-1.877.59-.49 1.172-.996 1.391-1.641.076-.497-.296-1.074-.767-1.279a.297.297 0 11.238-.545c.376.164.699.458.903.817a1.986 1.986 0 00-.074-.448.297.297 0 01-.013-.104c.01-.184.041-.313.082-.422.04-.109.085-.206.158-.459a.297.297 0 01.104-.153 1.546 1.546 0 00-.527-.125c-.043-.003-.083-.003-.125-.004a.258.258 0 11-.102-.002zm-1.194 5.432c-.605.466-1.253.873-1.888 1.28.005.438-.006.879-.047 1.321.207-.135.434-.236.697-.3.391-.636.82-1.22 1.083-1.842.054-.129.105-.29.155-.46zm.249 1c-.273.549-.622 1.04-.929 1.529.06.04.112.08.155.121l.027.027c.169-.194.375-.351.614-.454-.01-.348.047-.768.133-1.222zm-2.88.047a25.922 25.922 0 00-.588.297c-.78.38-1.56.772-2.35 1.148-.556.67-1.156 1.293-1.734 1.92l1.043.175 2.563-2.786a.297.297 0 01.04-.036c.333-.253.678-.489 1.025-.718zm2.591 2.009c-.058.066-.112.14-.162.222a.298.298 0 01-.429.087c-.125-.09-.2-.177-.265-.244l-.078 1.413c.1-.006.202-.013.297-.013.166 0 .313.022.397.108.1-.078.28-.1.505-.1.057 0 .118.002.18.005l-.445-1.478zm5.419.999c-.452.062-.686.323-.704.783h1.395c0-.46-.23-.721-.691-.783zm-7.861-2.39c-.274.182-.542.367-.798.56l-2.402 2.613h2.456c.17-.19.518-.365.776-.365.073 0 .139.014.191.046.082-.007.168-.01.257-.01.139 0 .285.007.433.016l.083-1.506c-.225.115-.407.282-.626.542a.297.297 0 01-.52-.246c.101-.544.142-1.093.15-1.65zm6.24 3.745l.266.465h1.248l.253-.465zm-4.516 0v2.51l1.727-2.51zM231.057 0a3.878 3.878 0 01.273.01c.694.044 1.215.325 1.407.768a.298.298 0 01-.34.408l-.025-.006-.03.007-.108.029c-.054.168-.096.269-.12.332a.541.541 0 00-.042.2c.155.552.094 1.107.037 1.389-.095.466-.384.977-.762 1.46a.295.295 0 01-.013.108c-.183.559-.396 1.318-.548 2.027-.153.708-.234 1.387-.193 1.684a.297.297 0 01-.223.33l-.018.005.527 1.75c.085-.013.172-.018.259-.018.256 0 .51.041.712.041a.865.865 0 00.184-.016.314.314 0 01.068-.007c.212 0 .656.13.787.366h1.099c.062-.797.482-1.235 1.262-1.315.788.08 1.195.518 1.222 1.315v.572h-.531l-.545 1.01h-1.767l-.531-1.01h-1.567l-2.404 3.493V18h-.572v-6.561h-4.516v-.41l-.1.109a.297.297 0 01-.267.092l-1.74-.292a.298.298 0 01-.173-.492c.217-.242.436-.48.656-.716l-1.656 1.078a.296.296 0 01-.412-.087.297.297 0 01.087-.411l1.345-.876a.292.292 0 01-.076-.09.315.315 0 01-.02-.237c.016-.05.034-.074.047-.093.056-.076.085-.088.124-.119.04-.03.083-.06.131-.094l.3-.2a4.156 4.156 0 00.217-.156l2.379-1.672.008-.005c.805-1.13 1.567-2.316 2.456-3.414.433-.535.938-1.524 1.813-1.894.048-.262.156-.68.483-.997.353-.344.864-.463 1.416-.463zM213.354 1.343q.088.166.198.364l.188 1.091q0 .573-.188 1.07-.198.43-.496.771 1.996-.364 3.594-.54-1.003-.595-1.576-1.323-.585-.727-1.72-1.433zm-4.707-.088q-.606.044-2.04.915-1.432.86-2.954 1.422 1.114.066 2.425.474 1.323.397 2.778.595-.231-.275-.463-.782-.22-.508-.22-1.08 0-.585.21-1.092.11-.243.264-.452zm2.32-.508q-.381 0-.733.155-.375.155-.661.42-.287.253-.463.616-.143.364-.165.783-.022.419.132.783.165.364.419.65.264.298.628.463.364.154.783.165l.054.001q.379 0 .728-.144.375-.154.662-.408.275-.253.44-.617.155-.364.177-.794 0-.408-.154-.771-.144-.364-.397-.65-.265-.298-.628-.442-.364-.198-.772-.21h-.05zm.06-.747q.72 0 1.423.153 1.521.33 3.087 1.973 1.565 1.631 2.744 1.742l.022.771q-2.678.232-5.258.706-.964.177-2.029.177-1.783 0-3.846-.497-3.285-.794-4.167-.96h-1.455v-.947h1.5q1.068-.364 2.865-1.444Q207.7.594 209.32.208 210.186 0 211.027 0zM216.248 15.57l2.055 2.43h-1.002l-1.053-1.255L215.185 18l-1.033-1.255L213.09 18l-1.052-1.255L210.973 18l-1.052-1.255L208.858 18l-1.033-1.255L206.762 18l-1.063-1.255L204.666 18l-1.063-1.255L202.55 18h-1.002l2.055-2.43 1.063 1.175 1.033-1.175 1.063 1.175 1.063-1.175 1.033 1.175 1.063-1.175 1.052 1.175 1.064-1.175 1.052 1.175 1.063-1.175 1.033 1.175 1.063-1.175zM197.481 8.13q-.998 0-2.264 1.421-.978 1.088-2.648 1.088-.614 0-1.321-.146-2.642-.547-4.434-.577-.255-.006-.5-.006-1.476 0-2.639.208-1.357.233-2.44.942-1.083.718-2.065.718.198.012.393.012 1.301 0 2.472-.528.876-.392 2.888-.392 1.057 0 2.427.109 2.467.194 4.058.194.975 0 1.622-.073 1.7-.192 2.53-1.377.685-.976 1.066-.976.082 0 .15.045.395.263 1.043.273h.03q.62 0 .729-.395.02-.465-1.002-.536-.047-.004-.095-.004zm-1.454-2.365q.79 0 1.235 1.792.098-.012.201-.012.172 0 .356.032.627-1.61 1.407-1.61.273 0 .314.192.04.183-.112.385-.719.567-.962 1.185.74.364.74.941-.071.87-.962.962-.25.026-.465.026-.546 0-.851-.168-.12-.065-.232-.065-.287 0-.528.43-.344.607-1.306 1.306-.874.644-3.614.644-.274 0-.567-.006-3.26-.02-5.123-.173-.5-.043-.956-.043-1.257 0-2.192.327-.912.325-3.28.325-.947 0-2.127-.052-.05 0-.09-.202 0-.608 1.295-.608 1.772-.06 2.308-.506.537-.455 1.792-1.043 1.266-.597 3.746-.597t5.052.597q.798.183 1.46.183 1.47 0 2.266-.901 1.154-1.306 1.751-1.418 0-.425-.435-.931-.435-.496-.405-.75.02-.242.284-.242zM171.226 3.071c.27.13.6.49.1.55-.24-.01-.79-.26-.69-.49.051.05.104.067.157.067.142 0 .287-.127.433-.127zm1.97.09c.33.08.501.44.08.52l-.021.002c-.242 0-.901-.294-.358-.361.09-.06.18-.16.3-.16zm-2.63-2.51c-.59.69-1.111 1.49-1.211 2.41-.1.66-.13 1.321-.23 1.971.47-.04.33-.77.24-1.12-.08-.69.29-1.33.55-1.941.18-.33.35-.85.81-.86.51.09.841.52 1.171.89.34-.34.7-.71 1.17-.85a.236.236 0 01.082-.013c.105 0 .229.046.285.046.05 0 .049-.034-.056-.164-.064-.224-.196-.29-.359-.29-.238 0-.543.141-.8.141a.561.561 0 01-.112-.01c-.084.004-.169.007-.254.007-.437 0-.876-.067-1.286-.218zm.16.76c-.39.1-.48.64-.67.96-.24.56-.531 1.17-.34 1.801.15.3-.04.68-.02.9.333.235.626.73 1.069.73a.631.631 0 00.15-.02c.44-.09.661-.51 1.001-.71.246.238.392.73.798.73.056 0 .116-.009.183-.03.37-.08.86-.04.97-.49.19-.46.21-.97.24-1.47a.324.324 0 01-.06.006c-.203 0-.222-.235-.24-.436-.078-.293-.287-.429-.52-.429a.762.762 0 00-.47.178c-.17.19-.69.34-.58.64.05.18.11.371.17.561l-.42.56c-.04-.29-.471-.53-.22-.82.04-.13.19-.3.17-.4-.18-.32-.421-.6-.701-.84a.322.322 0 00-.23-.103c-.268 0-.537.351-.77.382-.23-.25.02-.35.25-.48a.701.701 0 01.486-.196c.25 0 .5.13.654.356.19.114.322.494.49.494.052 0 .108-.037.17-.134.306-.244.672-.518 1.072-.518.06 0 .119.005.179.018.283.059.538.632.559.632l.001-.001c.01-.47-.21-.89-.34-1.351a.612.612 0 00-.596-.477.596.596 0 00-.474.237c-.298.11-.517.634-.797.634-.049 0-.1-.017-.154-.054-.31-.33-.56-.72-1.01-.86zm1.42 6.943c-1.27 1.31-2.44 4.632-2.741 5.993.49-.4 1.16-.66 1.31-.91.16-.26.6-2.792 1.431-5.083zm-4.522-2.381c-2.401 1.38-6.583 8.174-7.473 9.264 1.5-.95 2.981-1.91 4.592-2.691 2.26-1.11 4.192-2.911 6.033-4.592-1.521-.51-2.612-1.37-3.152-1.981zm2.491 8.624c-.32.19-.61.45-.96.59.21.52.34 1.1.77 1.51.081.13.196.172.328.172.228 0 .504-.123.735-.123.016 0 .032 0 .048.002-.28-.7-.7-1.01-.92-2.151zm-.68-9.365c-.06.126-.138.167-.22.167-.108 0-.224-.071-.32-.116-.24.17-1.07.15-.58.51.31.42 1.967 1.566 3.119 1.768.497.087-.338.873-.608 1.153-1.561 1.4-3.092 2.882-4.963 3.892-1.17.66-2.4 1.25-3.531 1.98-.54.781-1.18 1.502-1.591 2.362.41.12.81.29 1.23.39.222.056.462.082.703.082.66 0 1.325-.197 1.619-.512.54-.57 1.13-3.001 1.44-3.892.044-.1.107-.133.175-.133.135 0 .292.132.369.132.016 0 .028-.006.037-.019a.391.391 0 01.386-.376c.175 0 .339.127.314.396.06.63.18 1.26.48 1.831.037.097.114.134.215.134.284 0 .761-.293 1.086-.374-.13-.77.92-4.712 4.002-8.014.107-.116.577-.611.536-.611-.005 0-.017.006-.036.02a2.06 2.06 0 01-.511.07c-.338 0-.669-.104-.84-.42-.026-.077-.058-.108-.096-.108-.138 0-.345.399-.564.399a.92.92 0 01-.514.155c-.29 0-.578-.131-.777-.355-.19-.17-.37-.34-.56-.51zM170.475 0c.315.14.866.28 1.36.28.072 0 .143-.004.211-.01a.804.804 0 00.143.012c.337 0 .7-.18 1.025-.18.124 0 .243.026.353.098.55.8 1.05 1.69 1.11 2.681.11 1.901.06 2.562-1.44 4.122-.59 1.341-1.691 5.713-2.021 6.904-.36.34.45 2.2.79 2.66.185.256.673.268 1.197.268h.172c.471 0 .948.01 1.242.193.28.18.38.85.22.94-.15-.23-.45-.54-.66-.57.2.21-.5.11-.65.16-.405.007-.814.041-1.225.041-.198 0-.397-.008-.596-.03-.09-.04-.186-.102-.229-.102-.032 0-.032.038.029.151-.283.074-.601.111-.913.111-.7 0-1.363-.187-1.508-.56-.3-.551-.58-1.131-.78-1.732-.256.054-.577.234-.835.234a.38.38 0 01-.206-.054c-.28-.19-.57-1.08-.73-1.67-.016-.062-.099-.092-.183-.092-.081 0-.163.028-.188.082-.3.6-.8 2.44-1.28 3.211-.362.571-1.24.852-2.175.852a4.48 4.48 0 01-1.717-.332c-.65-.28-1.13-.22-.99-.58.22-.6.6-1.17 1-1.68-.58.36-1.16.73-1.74 1.09-.049.174-.169.243-.292.243-.237 0-.483-.256-.24-.513 2.272-3.282 5.884-8.875 8.385-10.685.4-.35.87-.62 1.39-.75.17-.44.12-1.031.22-1.531.1-.99.701-2.632 1.751-3.262zM151.224.597a2.12 2.12 0 00-.692.109c.031.223.169.569.953.773-.73-.053-1.206-.113-1.452-.307-.09.2-.137.427-.159.556a.297.297 0 01-.206.237c-.625.191-1.174 1.112-1.7 1.763-.95 1.173-1.771 2.48-2.688 3.733l1.27-.622c1.182-.622 2.395-1.11 3.407-1.877.588-.49 1.172-.996 1.39-1.641.076-.497-.296-1.074-.767-1.279a.297.297 0 11.238-.545c.377.164.7.458.904.817a1.986 1.986 0 00-.075-.448.297.297 0 01-.012-.104c.01-.184.04-.313.082-.422.04-.109.084-.206.157-.459a.297.297 0 01.105-.153 1.546 1.546 0 00-.528-.125c-.042-.003-.083-.003-.124-.004a.258.258 0 11-.103-.002zm-1.194 5.432c-.605.466-1.253.873-1.888 1.28.005.438-.006.879-.046 1.321.206-.135.434-.236.697-.3.39-.636.82-1.22 1.082-1.842.054-.129.105-.29.155-.46zm.25 1c-.274.549-.622 1.04-.93 1.529.06.04.113.08.155.121l.028.027c.168-.194.374-.351.613-.454-.01-.348.047-.768.133-1.222zm-2.881.047a25.922 25.922 0 00-.588.297c-.78.38-1.56.772-2.35 1.148-.556.67-1.156 1.293-1.734 1.92l1.044.175 2.562-2.786a.297.297 0 01.04-.036c.333-.253.678-.489 1.026-.718zm2.592 2.009c-.058.066-.112.14-.162.222a.298.298 0 01-.43.087c-.124-.09-.2-.177-.265-.244l-.077 1.413c.1-.006.201-.013.296-.013.167 0 .313.022.398.108.1-.078.28-.1.504-.1.058 0 .118.002.18.005l-.444-1.478zm5.418.999c-.451.062-.686.323-.704.783h1.395c0-.46-.23-.721-.69-.783zm-7.86-2.39c-.274.182-.542.367-.798.56l-2.403 2.613h2.456c.171-.19.519-.365.776-.365.073 0 .14.014.192.046.082-.007.167-.01.256-.01.14 0 .286.007.433.016l.083-1.506c-.224.115-.407.282-.625.542a.297.297 0 01-.52-.246c.1-.544.142-1.093.15-1.65zm6.24 3.745l.265.465h1.249l.252-.465zm-4.516 0v2.51l1.726-2.51zM151.217 0a3.878 3.878 0 01.272.01c.694.044 1.215.325 1.408.768a.298.298 0 01-.34.408l-.025-.006-.03.007-.109.029c-.054.168-.095.269-.12.332a.541.541 0 00-.042.2c.155.552.095 1.107.037 1.389-.095.466-.384.977-.761 1.46a.295.295 0 01-.014.108c-.183.559-.396 1.318-.548 2.027-.152.708-.233 1.387-.192 1.684a.297.297 0 01-.223.33l-.019.005.527 1.75c.086-.013.173-.018.26-.018.256 0 .509.041.712.041a.865.865 0 00.183-.016.314.314 0 01.068-.007c.212 0 .657.13.787.366h1.1c.061-.797.482-1.235 1.261-1.315.788.08 1.196.518 1.222 1.315v.572h-.531l-.545 1.01h-1.766l-.532-1.01h-1.567l-2.404 3.493V18h-.571v-6.561h-4.516v-.41l-.1.109a.297.297 0 01-.268.092l-1.74-.292a.298.298 0 01-.173-.492c.217-.242.437-.48.656-.716l-1.656 1.078a.296.296 0 01-.412-.087.297.297 0 01.087-.411l1.345-.876a.292.292 0 01-.076-.09.315.315 0 01-.02-.237c.017-.05.034-.074.048-.093.055-.076.084-.088.123-.119.04-.03.084-.06.132-.094.095-.065.205-.137.3-.2a4.156 4.156 0 00.217-.156l2.378-1.672.008-.005c.805-1.13 1.568-2.316 2.457-3.414.433-.535.938-1.524 1.812-1.894.048-.262.157-.68.484-.997.353-.344.863-.463 1.416-.463zM138.463 0v1.21h-6.565V0zm0 8.32v1.21h-6.545V8.32zm0 8.47V18h-6.545v-1.21zM128.464 7.458v1.656c.566 0 .848-.283.848-.848 0-.539-.282-.808-.848-.808zM126.37 0c.463 0 .855.116 1.176.35.613.443.92 1.09.92 1.938v4.584c.942 0 1.42.465 1.433 1.394 0 .942-.478 1.413-1.434 1.413V18h-.746V2.732c0-1.023-.199-1.68-.596-1.969-.206-.15-.476-.225-.838-.225-.337 0-.754.065-1.273.195a.65.65 0 01-.212.043c-.112 0-.189-.048-.232-.144-.014-.162.107-.276.363-.343.539-.193 1.018-.289 1.44-.289zM118.2.601c-1.074 0-2.418.552-3.068 1.202-.57.57-.644 1.324-.665 2.025h7.435c-.02-.7-.095-1.455-.664-2.025-.65-.65-1.964-1.202-3.038-1.202zm0-.601c1.275 0 2.646.589 3.449 1.392.824.824.918 1.91.918 2.72v.317h-8.733v-.316c0-.812.062-1.897.886-2.72C115.524.588 116.926 0 118.2 0zM119.387 9.627c5.439 1.9 2.904 9.54-2.195 8.228-5.054-1.302-4.045-9.318 2.195-8.228m-.243.698c-5.417-.787-5.639 5.768-1.708 6.812 3.846 1.022 6.482-5.13 1.708-6.812m-1.188 1.152c-1.083-.74.884-.487 0-.018v.018m1.985.433c-1.227-.397.343-.795 0-.073v.073m-2.993-.712v.732l-.73-.244.73-.488m3.571 2.066c-.903-.795.595-.885.109-.09l-.109.09m-2.839-.846l.244.731-.732-.487.488-.244m1.052.358l.072-.017c.668-.489 1.39 1.767-.072.017m-3.014-.397c.957.56-.162.703-.253.703l.253-.703m2.938 1.502l-.244.244-.488-.732.732.488m-1.674-.474l.468.019c-.558.866-.757.793-.468-.019m3.68 1.517c-.883-.74.434-.632.416-.488l-.415.488m-1.01-.903l-.221.305c-.718-.215-.34-.792.22-.305m-3.435.836l-.244.244-.488-.732.732.488m1.324.012c.758-.378.92-.27.47.344l-.47-.344m2.578.72l-.244.731-.488-.732h.732m-3.246-.465l.45.54c-.106.217-1.1.145-.45-.54m1.54.71l.243.731h-.732l.488-.732zM89.153 12.145V8.566h.484l1.89 2.813V8.566h.454v3.579h-.484l-1.891-2.813v2.813h-.453zM95.123 8.566h.469v2.063q0 .547-.117.86-.118.312-.438.515t-.836.203q-.5 0-.82-.172-.32-.172-.461-.5-.14-.328-.14-.906V8.566h.468v2.063q0 .469.094.687.093.22.304.344.211.125.508.125.531 0 .75-.242.219-.242.219-.914V8.566zM96.374 12.145V8.566h.704l.859 2.532q.11.359.172.53.047-.187.187-.577l.86-2.485h.625v3.579h-.453v-3l-1.032 3h-.437l-1.031-3.047v3.047h-.454zM100.524 12.145V8.566h1.344q.421 0 .664.11.242.11.382.336.141.226.141.476 0 .219-.125.422-.125.203-.375.328.328.094.5.328.172.235.172.547 0 .25-.102.461-.101.211-.257.328-.157.118-.391.18-.234.063-.578.063h-1.375zm.484-2.079h.766q.312 0 .453-.03.187-.063.273-.188.086-.125.086-.313 0-.172-.078-.312-.078-.141-.242-.188-.164-.047-.539-.047h-.719v1.078zm0 1.657h.89q.22 0 .313-.016.172-.031.282-.102.109-.07.18-.195.07-.125.07-.297 0-.203-.102-.351-.102-.149-.281-.211-.18-.063-.524-.063h-.828v1.235zM103.89 12.145V8.566h2.594v.422h-2.11v1.094h1.97v.422h-1.97v1.219h2.188v.422h-2.672zM107.225 12.145V8.566h1.594q.469 0 .719.094t.398.344q.148.25.148.531 0 .39-.242.649-.242.257-.758.336.188.093.282.171.203.188.39.485l.625.969h-.593l-.47-.75q-.218-.313-.35-.485-.134-.172-.235-.242-.102-.07-.211-.102-.094-.015-.266-.015h-.562v1.594h-.469zm.469-2h1.031q.313 0 .5-.07.188-.071.281-.212.094-.14.094-.328 0-.25-.187-.414-.188-.164-.579-.164h-1.14v1.188zM74.358.93q-1.734 0-3.485.607-3.519 1.219-6.343 4.339 3.394-2.505 6.627-3.337 1.617-.415 3.234-.415t3.234.415q3.234.832 6.628 3.337-2.96-3.098-6.411-4.327Q76.109.93 74.358.93zm.033-.93q3.986.091 6.935 2.118 2.95 2.027 3.701 3.484.683 1.14.08 1.435-.183.09-.366.09-.424 0-.853-.477-1.161-1.23-5.329-2.767-2.084-.769-4.168-.769-2.083 0-4.167.769-4.168 1.537-5.33 2.79-.455.471-.873.471-.187 0-.368-.095-.58-.308.103-1.447.751-1.457 3.7-3.484Q70.407.091 74.392 0zM81.444 14.138q.253 0 .409.17.155.168.155.38 0 .183-.155.36-.156.175-.395.175-.268 0-.416-.162-.148-.162-.148-.373 0-.226.176-.388t.374-.162zm0-.127q-.254 0-.473.197-.218.198-.218.48 0 .254.19.465.19.211.515.211.296 0 .486-.225.19-.226.19-.451 0-.268-.19-.472-.19-.205-.5-.205zm0-3.538q.268 0 .31.55v2.41q-.014.282.155.522.148.056.289.056.14 0 .275-.056l2.284-.747q.19-.044.323-.044.25 0 .297.156.085.254-.437.466l-2.298.733q-.268.084-.437.338 0 .31.183.536l1.41 1.945q.296.48.085.62-.057.042-.125.042-.185 0-.453-.31l-1.41-1.945q-.155-.24-.451-.338-.282.084-.451.338l-1.41 1.946q-.268.309-.446.309-.065 0-.118-.042-.212-.155.07-.634l1.424-1.945q.184-.226.17-.522-.17-.254-.452-.338l-2.283-.733q-.522-.212-.437-.452.056-.169.313-.169.128 0 .307.043l2.298.747q.134.049.271.049.138 0 .279-.05.183-.239.169-.52v-2.412q.042-.55.296-.55zM69.889 14.131q-.77 0-1.404.383-1.29.749-2.445.749-1.162 0-2.131-.1v1.996q1.205-.214 1.74-.214h.013q.435 0 1.212.1 3.158.435 3.935.435 1.29 0 2.43-.043 1.954-.114 2.146-.207.185-.085.185-.492 0-.399-.107-.698-.106-.3-.356-.428-6.102-.27-6.58-.314.426-.613 1.318-.613.29 0 .629.065 1.136.223 1.752.223.13 0 .237-.01.605-.057.563-.577-.34.046-.703.046-.762 0-1.621-.203-.424-.098-.813-.098zm-.182-.578q.309 0 .61.078 1.219.32 2.146.335.228 0 .82-.115.277.257.277.606 0 .35-.22.592 2.33.086 2.33.278.42.535.42 1.283 0 .741-.391 1.012-1.184.378-4.755.378-.57 0-1.162-.057-3.307-.492-3.941-.506h-.063q-.652 0-2.39.27v-3.15l.015.014q1.49.171 2.43.193l.097.001q.896 0 1.842-.5 1.002-.712 1.935-.712zM38.707 12.145V8.566h.484l1.891 2.813V8.566h.453v3.579h-.484l-1.89-2.813v2.813h-.454zM44.677 8.566h.469v2.063q0 .547-.117.86-.117.312-.438.515-.32.203-.836.203-.5 0-.82-.172-.32-.172-.46-.5-.142-.328-.142-.906V8.566h.47v2.063q0 .469.093.687.094.22.305.344.21.125.507.125.532 0 .75-.242.22-.242.22-.914V8.566zM45.929 12.145V8.566h.703l.86 2.532q.109.359.171.53.047-.187.188-.577l.859-2.485h.625v3.579h-.453v-3l-1.031 3h-.438l-1.031-3.047v3.047h-.453zM50.078 12.145V8.566h1.344q.422 0 .664.11.242.11.383.336.14.226.14.476 0 .219-.125.422-.125.203-.375.328.328.094.5.328.172.235.172.547 0 .25-.101.461-.102.211-.258.328-.156.118-.39.18-.235.063-.579.063h-1.375zm.484-2.079h.766q.313 0 .453-.03.188-.063.274-.188.086-.125.086-.313 0-.172-.079-.312-.078-.141-.242-.188-.164-.047-.539-.047h-.719v1.078zm0 1.657h.891q.219 0 .313-.016.171-.031.28-.102.11-.07.18-.195.07-.125.07-.297 0-.203-.1-.351-.102-.149-.282-.211-.18-.063-.523-.063h-.829v1.235zM53.444 12.145V8.566h2.594v.422h-2.11v1.094h1.97v.422h-1.97v1.219h2.188v.422h-2.672zM56.78 12.145V8.566h1.593q.469 0 .719.094t.398.344q.149.25.149.531 0 .39-.243.649-.242.257-.757.336.187.093.28.171.204.188.391.485l.625.969h-.593l-.469-.75q-.219-.313-.352-.485-.132-.172-.234-.242-.102-.07-.21-.102-.095-.015-.267-.015h-.562v1.594h-.469zm.468-2h1.031q.313 0 .5-.07.188-.071.281-.212.094-.14.094-.328 0-.25-.187-.414-.188-.164-.578-.164h-1.141v1.188zM30.721 7.938c.681.054 1.058.394 1.13 1.022-.09.68-.467 1.04-1.13 1.075-.663-.036-1.013-.394-1.048-1.075.053-.628.403-.968 1.048-1.022zm-.08-2.259c-.484 0-.933.09-1.345.27a3.545 3.545 0 00-1.828 1.815 3.11 3.11 0 00-.27 1.276c0 .466.09.901.27 1.304a3.422 3.422 0 003.173 2.03c.484 0 .936-.085 1.357-.255.422-.17.785-.408 1.09-.712.304-.305.546-.66.725-1.063.18-.403.27-.838.27-1.304 0-.448-.09-.874-.27-1.277a3.67 3.67 0 00-.726-1.075 3.302 3.302 0 00-1.089-.74 3.431 3.431 0 00-1.357-.269zm.053-.914c.592 0 1.148.112 1.667.336.52.224.968.529 1.345.914.376.386.677.834.9 1.345.225.51.337 1.062.337 1.653 0 .592-.112 1.143-.336 1.654a4.31 4.31 0 01-.901 1.331 4.267 4.267 0 01-3.012 1.237 4.071 4.071 0 01-1.653-.336 4.48 4.48 0 01-1.345-.9 4.195 4.195 0 01-.914-1.332 4.071 4.071 0 01-.336-1.654c0-.591.112-1.142.336-1.653A4.358 4.358 0 0129.04 5.1a4.071 4.071 0 011.653-.336zM1.764 12.145V8.566h.485l1.89 2.813V8.566h.453v3.579h-.484l-1.89-2.813v2.813h-.454zM7.734 8.566h.47v2.063q0 .547-.118.86-.117.312-.438.515-.32.203-.835.203-.5 0-.82-.172-.321-.172-.462-.5-.14-.328-.14-.906V8.566h.468v2.063q0 .469.094.687.094.22.305.344.21.125.508.125.53 0 .75-.242.218-.242.218-.914V8.566zM8.986 12.145V8.566h.703l.86 2.532q.109.359.171.53.047-.187.188-.577l.86-2.485h.624v3.579h-.453v-3l-1.031 3h-.438L9.44 9.098v3.047h-.453zM13.135 12.145V8.566h1.344q.422 0 .664.11.242.11.383.336.14.226.14.476 0 .219-.124.422-.125.203-.375.328.328.094.5.328.171.235.171.547 0 .25-.101.461-.102.211-.258.328-.156.118-.39.18-.235.063-.579.063h-1.375zm.485-2.079h.765q.313 0 .453-.03.188-.063.274-.188.086-.125.086-.313 0-.172-.078-.312-.078-.141-.243-.188-.164-.047-.539-.047h-.718v1.078zm0 1.657h.89q.219 0 .313-.016.172-.031.281-.102.11-.07.18-.195.07-.125.07-.297 0-.203-.102-.351-.101-.149-.28-.211-.18-.063-.524-.063h-.828v1.235zM16.501 12.145V8.566h2.594v.422h-2.11v1.094h1.97v.422h-1.97v1.219h2.188v.422h-2.672zM19.836 12.145V8.566h1.594q.469 0 .719.094t.398.344q.149.25.149.531 0 .39-.242.649-.243.257-.758.336.187.093.281.171.203.188.39.485l.626.969h-.594l-.469-.75q-.219-.313-.351-.485-.133-.172-.235-.242-.101-.07-.21-.102-.094-.015-.266-.015h-.563v1.594h-.469zm.47-2h1.03q.313 0 .5-.07.188-.071.282-.212.093-.14.093-.328 0-.25-.187-.414-.188-.164-.578-.164h-1.14v1.188z"/></svg>