<?xml version="1.0" encoding="UTF-8" standalone="no"?>
<svg
   version="1.0"
   width="1280.000000pt"
   height="1051.000000pt"
   viewBox="0 0 1280.000000 1051.000000"
   preserveAspectRatio="xMidYMid meet"
   id="svg27"
   sodipodi:docname="talk.svg"
   inkscape:version="1.1.1 (3bf5ae0d25, 2021-09-20)"
   xmlns:inkscape="http://www.inkscape.org/namespaces/inkscape"
   xmlns:sodipodi="http://sodipodi.sourceforge.net/DTD/sodipodi-0.dtd"
   xmlns="http://www.w3.org/2000/svg"
   xmlns:svg="http://www.w3.org/2000/svg">
  <defs
     id="defs31" />
  <sodipodi:namedview
     id="namedview29"
     pagecolor="#ffffff"
     bordercolor="#666666"
     borderopacity="1.0"
     inkscape:pageshadow="2"
     inkscape:pageopacity="0.0"
     inkscape:pagecheckerboard="0"
     inkscape:document-units="pt"
     showgrid="false"
     inkscape:zoom="0.20209058"
     inkscape:cx="-81.646557"
     inkscape:cy="957.49144"
     inkscape:window-width="1920"
     inkscape:window-height="1009"
     inkscape:window-x="-8"
     inkscape:window-y="-8"
     inkscape:window-maximized="1"
     inkscape:current-layer="svg27" />
  <metadata
     id="metadata21">
Created by potrace 1.15, written by Peter Selinger 2001-2017
</metadata>
  <g
     transform="matrix(-0.1,0,0,-0.1,1279.5861,1051)"
     fill="#9e9e9e"
     stroke="none"
     id="g25">
    <path
       d="M 5940,10499 C 4644,10435 3396,10066 2400,9452 1168,8692 355,7628 91,6430 -7,5986 -25,5509 41,5120 209,4123 894,3041 1957,2092 l 163,-144 -6,-42 C 2082,1676 1942,1431 1724,1220 1530,1033 1320,884 800,565 371,302 129,133 35,30 L 5,-3 185,4 c 1198,43 2459,410 3250,948 72,48 148,102 171,119 l 40,30 198,-46 c 536,-123 1198,-242 1735,-310 613,-78 1084,-84 1691,-24 2078,205 3862,1171 4827,2614 383,572 608,1189 685,1875 16,151 16,622 0,765 -34,288 -99,589 -177,823 -387,1156 -1290,2149 -2580,2836 -1178,627 -2636,936 -4085,865 z"
       id="path23" />
  </g>
</svg>
