<svg xmlns="http://www.w3.org/2000/svg" width="46.665" height="18"><path d="M1.642.441a1.2 1.2 0 01.085.003c.376.027.788.17 1.235.43-.447.278-.86.427-1.235.45a1.192 1.192 0 01-.07.002c-.329 0-.489-.15-.48-.452-.009-.288.146-.433.465-.433zm0 2.672a1.2 1.2 0 01.085.003c.376.027.788.17 1.235.43-.447.277-.86.427-1.235.45a1.193 1.193 0 01-.07.002c-.329 0-.489-.15-.48-.452-.009-.289.146-.433.465-.433zM1.592 0l-.073.001C1.04.02.774.311.72.874c.07.6.326.9.766.9h.02c.451-.01 1.085-.17 1.9-.484h7.76c.635.054.955.35.96.886.004.537-.316.864-.96.98h-7.76c-.74-.323-1.345-.484-1.814-.484l-.073.001c-.479.018-.745.309-.799.873.07.6.326.9.766.9h.02c.451-.01 1.085-.17 1.9-.484h7.414c.912 0 1.54-.286 1.883-.86.353-.59.353-1.18 0-1.771-.338-.566-.953-.848-1.844-.848-.04 0-.081 0-.123.002h-7.33C2.665.162 2.06 0 1.591 0zM3.794 6.218q-.252 0-.252.296 0 .252.252.252.267-.014.267-.281t-.267-.267zm-.978.192v.267l-.579.104q.267-.282.579-.37zm.03.356q.34.267.118.4-.341-.118-.504-.31l.385-.09zm1.037-.682q.698 0 1.113.534.415.534.445 1.646 1.082.223 1.438.98.058.489-.22.489h-.017q-.297-.015-.467-.164-.062-.054-.094-.054-.055 0-.017.166.059.26.652.63t.096.615q-.123.061-.262.061-.422 0-.99-.557-.757-.742-.802-1.128-.044-.385.312-.711.212-.194.145-.194-.045 0-.22.09-.43.222-.452.652-.022.43.342.942.363.512 1.43 1.298.11.057.248.057.293 0 .717-.258.622-.378-.623-1.164.46-.118.474-.4.579.193 3.248 3.589.712.474.727.697-.015.207-.223.252-.044.01-.09.01-.168 0-.355-.129-.83.4-1.609.416h-.08q-.725 0-1.202-.253.489.43.34.905-.071.23-.108.23-.04 0-.04-.26 0-.504-1.29-.964v.564q-.076.319-.12.319-.043 0-.058-.29-.089-.637-.423-1.371-.333-.734-1.06-2.032Q4.061 10 3.861 9.428q-.2-.57-.185-1.06.015-.49-.2-.72-.215-.229-.126-.496t-.267-.504v-.252q.385-.312.8-.312zm2.818 8.542q.727.208.727.49l-.49 1.824q-.059.326-.4.326h-.593v-.03l.756-2.313v-.297zM3.937 5.787h-.054q-.578 0-1.171.475-.341.119-.697.549.49.445.89.549.044.207.281.578.015.979.267 1.624.253.645 1.691 3.463.712 1.483.712 1.824 0 .519-.653 2.328 0 .104-.89.163-1.334.045-1.334.371 0 .193.178.193h3.945q.37-.297.415-.504.356.148.385.4.05.2.142.2.018 0 .036-.007.12-.045.12-.193-.105-.4-.52-.771l.475-2.002q1.438-.045 2.506-.46.198.045.362.045.33 0 .528-.178.296-.267-.119-.83-.905-.905-1.72-1.988-1.676-2.061-2.299-2.388-.208-.43-.497-.682-.289-.252-1.045-.623-.015-.875-.408-1.513-.384-.623-1.526-.623zM17.094 0l-2.126 2.513h1.037l1.089-1.298 1.1 1.298 1.067-1.298 1.1 1.298 1.089-1.298 1.1 1.298 1.088-1.298 1.1 1.298 1.068-1.298 1.1 1.298 1.099-1.298 1.068 1.298 1.1-1.298 1.089 1.298h1.036L30.173 0l-1.1 1.215L28.005 0l-1.1 1.215L25.807 0l-1.068 1.215L23.638 0 22.55 1.215 21.45 0l-1.088 1.215L19.26 0l-1.068 1.215L17.093 0zM16.067 4.174v6.087h1.017V4.174zm6.994.008v6.079h1.018V4.182zm7.121 0v6.079H31.2V4.182zM22.294 14.761q2.58 0 5.473 1.247-2.892 1.213-5.473 1.213-2.563 0-5.473-1.213 2.91-1.247 5.473-1.247zm0-.796q-3.187 0-7.326 2.026Q19.108 18 22.294 18q3.187 0 7.326-2.01-4.122-2.025-7.326-2.025zM31.281 11.922V18h1.017v-6.078zM36.374 1.124q2.014.293 2.105 1.842v11.177q-.941-1.124-3.38-1.58l1.275-11.44zM35.807 0l-1.509 13.363q3.361.385 4.181 2.4V18h1.003V2.966q0-2.51-3.675-2.966zM43.557 1.124q2.015.293 2.106 1.842v11.177q-.942-1.124-3.382-1.58l1.276-11.44zM42.99 0l-1.508 13.363q3.36.385 4.18 2.4V18h1.003V2.966q0-2.51-3.675-2.966z"/></svg>