<svg xmlns="http://www.w3.org/2000/svg" width="683.45" height="682.826" viewBox="0 0 128 128"><path d="M17.654 130.459c-4.698-1.5-10.324-7.375-11.808-12.332-1.74-5.813-1.74-94.884 0-100.697 1.568-5.236 7.169-10.842 12.4-12.41 5.808-1.742 94.797-1.742 100.605 0 5.231 1.568 10.832 7.174 12.4 12.41 1.705 5.698 1.728 57.443.025 59.146-1.545 1.547-6.046 1.547-7.59 0-.874-.873-1.2-8.498-1.2-28.043 0-29.144-.336-31.208-5.465-33.548-1.91-.87-15.071-1.194-48.57-1.194-49.841 0-50.173.035-52.647 5.47-1.895 4.162-1.683 93.658.23 97.361 2.504 4.846 4.491 5.144 34.382 5.144 20.23 0 28.045.324 28.92 1.2 1.545 1.546 1.545 6.051 0 7.598-1.593 1.595-56.648 1.501-61.682-.105zm102.666-3.537c-5.134-4.668-5.432-4.795-8.321-3.544-1.649.713-5.244 1.307-7.991 1.32-15.91.074-26.891-16.579-20.393-30.926 4.071-8.988 10.72-13.336 20.393-13.336 9.672 0 16.321 4.348 20.392 13.336 2.453 5.416 2.612 10.365.53 16.504l-1.553 4.577 4.55 5.064c4.951 5.513 5.523 7.654 2.721 10.192-2.838 2.57-4.592 2.03-10.328-3.187zm-8.208-15.438c7.058-6.474 4.983-17.187-3.99-20.605-5.269-2.007-11.072-.036-14.408 4.893-5.422 8.01.531 18.995 10.294 18.995 3.721 0 5.16-.582 8.104-3.283zm-80.866-9.542c-3.588-3.969-.497-8.17 6.012-8.17 6.308 0 9.443 4.764 5.491 8.343-2.52 2.284-9.374 2.18-11.503-.173zm24.972 0c-3.854-4.262-.5-8.17 7.01-8.17 7.294 0 10.77 4.468 6.49 8.343-2.61 2.366-11.306 2.254-13.5-.173zm-25.59-32.098c-1.584-2.962-1.249-4.801 1.185-6.508 6.477-4.54 16.467 1.592 11.193 6.87-2.391 2.394-11.04 2.14-12.379-.362zm24.97 0c-1.583-2.962-1.248-4.801 1.186-6.508 3.29-2.306 45.21-2.306 48.5 0 2.598 1.822 2.866 4.653.65 6.87-1.34 1.341-5.071 1.572-25.436 1.572-22.573 0-23.922-.105-24.9-1.934zM30.628 39.85c-1.584-2.962-1.249-4.801 1.185-6.508 6.477-4.54 16.467 1.592 11.193 6.87-2.391 2.394-11.04 2.14-12.379-.362zm24.97 0c-1.583-2.962-1.248-4.801 1.186-6.508 3.29-2.306 45.21-2.306 48.5 0 2.598 1.822 2.866 4.653.65 6.87-1.34 1.341-5.071 1.572-25.436 1.572-22.573 0-23.922-.105-24.9-1.934z" style="fill:#000;stroke-width:.999311" transform="translate(-4.541 -3.713)"/></svg>