<svg xmlns="http://www.w3.org/2000/svg" width="27.691" height="27.693"><path d="M3.97 27.446c-1.486-.452-2.628-1.406-3.387-2.831-.366-.687-.41-1.42-.47-7.774-.07-7.636-.012-8.129 1.152-9.655.316-.414 1.073-1.002 1.683-1.305 1.068-.533 1.255-.553 5.123-.553h4.015l-1.505 1.517-1.505 1.517h-1.91c-2.076 0-3.227.335-3.61 1.051-.154.286-.235 2.753-.235 7.14v6.703s-.1.72.143.975c.268.262 1 .167 1 .167h6.702c4.387 0 6.854-.08 7.14-.234.703-.376 1.051-1.537 1.051-3.503v-1.8l1.517-1.506 1.517-1.505v3.906c0 3.753-.022 3.95-.552 5.015-.304.61-.887 1.364-1.297 1.677-1.496 1.14-1.98 1.202-9.284 1.182-3.71-.01-6.99-.093-7.288-.184zm9.577-9.011c-.833-.362-3.337-2.7-3.93-3.669-.223-.364-.425-.905-.449-1.203-.134-1.665-.122-1.684 3.361-5.192l3.357-3.38-2.057-2.049C11.73.85 11.396.23 12.26.014c.268-.067 3.678-.093 7.578-.059 6.464.058 7.123.098 7.476.45.353.354.392 1.025.449 7.823.054 6.492.02 7.47-.273 7.714-.286.237-.65-.031-2.506-1.855l-2.17-2.133-3.191 3.178c-3.752 3.735-4.342 4.056-6.076 3.303z" style="fill:#000;stroke-width:.216704" transform="translate(-.093 .06)"/></svg>