<svg xmlns="http://www.w3.org/2000/svg" width="116.666" height="18"><path d="M5.882.911v2.43q-.537-.8-3.22-.8H.679V.911zM5.912 0Q4.82.202 2.662.202H0V3.25h2.663q1.407 0 2.014.293.618.294 1.205.84L5.912 18h1.175V0zM11.472 11.783c.534.205 1.117.861 1.287 1.402.17.54.15 1.171.03 1.792-.12.61-.36 1.191-.65 1.571-.201.26-.381.41-.552.46h-.16c-.17-.04-.39-.19-.61-.46-.29-.38-.531-.96-.651-1.571-.12-.621-.14-1.252.03-1.792.17-.541.808-1.243 1.276-1.395v-.007zM10.907 0v1.201H9.826v.771h1.08l-.15 9.09c-.77.4-1.25 1.081-1.481 1.812-.23.751-.24 1.562-.09 2.313.15.75.45 1.411.86 1.942.311.4.722.73 1.202.831v.03c.03.01.06.01.09.01.04 0 .08-.01.12-.01.05.01.1.01.14.01.04 0 .07 0 .11-.01v-.03c.481-.1.892-.43 1.202-.831.41-.53.71-1.191.86-1.942.151-.751.141-1.562-.09-2.313a2.97 2.97 0 00-1.48-1.782l-.151-9.12h1.021l.03-.77h-1.141V0h-1.051zM25.487 8.704c.337 0 .752.06 1.245.18 1.041.253 1.942.612 2.701 1.076.76.464 1.611 1.048 2.554 1.752-.908.459-1.95.689-3.13.689-.265 0-.537-.012-.816-.035-1.52-.127-2.824-.574-3.915-1.34-1.09-.767-1.36-1.238-.812-1.414.548-.176.995-.404 1.34-.686.181-.148.459-.222.833-.222zm7.26 3.176l.865.19c0 .225-.204.408-.612.549-.232.016-.475.024-.726.024-.42 0-.868-.022-1.342-.066.914-.113 1.519-.345 1.814-.697zm1.329.317l.527.105c.057.17-.14.338-.59.507l-.612-.042c.436-.197.66-.387.675-.57zm.802.211l.358.084c-.084.24-.337.36-.76.36.24-.156.374-.303.402-.444zm.59.211c.338.098.563.26.676.485l-.95-.21c.183-.085.275-.177.275-.275zm-2.194 1.245c1.055.127 1.85.422 2.384.886l-2.616-.612c.028-.154.105-.246.232-.274zM21.056.401c.661 0 1.16.183 1.498.549.338.365.443 1.248.317 2.648-.127 1.4-.17 2.35-.127 2.849.042.5.172.868.39 1.108.218.239.482.474.792.706.31.233.155.44-.464.623-.62.183-.964.454-1.034.812-.07.36.017.69.263.992.246.303.834.71 1.762 1.224.929.514 1.748.84 2.459.981.71.141 2.887.211 6.53.211 1.126.211 1.872.493 2.238.844l-2.406-.548a.943.943 0 00-.528.4c0 .366-.794.577-2.384.634-.24 0-.401-.33-.485-.992l-.254.211c.127.535.162 1.006.106 1.414a1.582 1.582 0 00-1.034-.95c-.788-.14-1.491-.27-2.11-.39-.62-.12-1.245-.376-1.878-.77-.563-.436-1.467-.908-2.712-1.414-1.245-.507-1.868-1.26-1.868-2.258 0-.999.335-1.825 1.003-2.48.668-.654 1.002-1.438 1.002-2.352 0-.45-.056-.876-.169-1.277-.102-.363-.405-.544-.91-.544a2.39 2.39 0 00-.166.006l-1.772.232a1.71 1.71 0 01.253-.507c.14-.436.295-.689.464-.76.025.087.12.13.284.13.023 0 .048 0 .075-.003.281-.014.443-.154.485-.422-.028-.267-.19-.408-.485-.422-.254.014-.394.155-.422.422-.225.211-.401.458-.528.739-.04.02-.08.03-.12.03-.068 0-.134-.03-.196-.093.168-.338.415-.686.738-1.045.324-.359.788-.538 1.393-.538zm4.79 13.758l.675.17-.76 1.097.085-1.267zm1.308.233c.563 0 1.038.06 1.425.179.387.12.626.573.717 1.361.09.774-.027 1.161-.351 1.161H26.9a1.842 1.842 0 00-.136-.005c-.345 0-.729.093-1.151.279.112-.985.626-1.977 1.54-2.975zM21.056 0c-.957 0-1.745.535-2.364 1.604-.21.351-.837.703-1.878 1.055-.717.21-1.027.506-.928.886l.021.253c1.336-.126 2.455-.288 3.355-.485l1.646-.295a.89.89 0 01.025 0c.49 0 .731.414.724 1.245-.007.844-.362 1.6-1.065 2.268-.704.668-1.062 1.635-1.077 2.902 0 1.027.49 1.762 1.467 2.205.978.443 1.924.918 2.838 1.424.915.507 1.435.9 1.562 1.182-.07 1.491-.253 2.455-.549 2.89-.492 0-1.35-.07-2.574-.21-.38.056-.64.18-.781.37-.14.189-.113.397.084.622.094-.136.185-.204.27-.204.03 0 .06.008.09.024.112.064.393.095.843.095h2.068c.102-.02.198-.03.289-.03.236 0 .435.067.597.199a.988.988 0 00.507-.169c.62.018 1.14.027 1.559.027.557 0 .934-.016 1.131-.048.345-.056.658-.105.94-.148l.717.232.024.001c.161 0 .181-.14.06-.423-.619-.337-.76-1.188-.422-2.553.12.003.234.004.346.004 1.112 0 1.841-.128 2.186-.384 1.407.253 2.554.5 3.44.739l.148-.253c-.366-.408-.64-.669-.823-.781l.928.19c.15.056.254.084.312.084.116 0 .047-.112-.206-.337-.056-.155-.464-.458-1.224-.908l1.287.253c.14-.9-.837-1.54-2.933-1.92a7.14 7.14 0 01-2.975-1.477c-1.168-1.027-2.934-1.78-5.297-2.258-1.252-.084-1.948-.468-2.09-1.15-.14-.682-.136-1.77.011-3.26.148-1.491-.06-2.462-.622-2.912C22.3.183 21.745 0 21.056 0z"/><path d="M31.408 2.697c-.579.046-.899.335-.96.869.076.579.396.884.96.914.564-.03.861-.335.892-.914-.046-.534-.343-.823-.892-.869zm.069-1.92c.411 0 .792.076 1.143.229a3.014 3.014 0 011.554 1.543c.152.342.229.704.229 1.085 0 .396-.077.766-.229 1.109a2.91 2.91 0 01-2.697 1.726 3.05 3.05 0 01-1.154-.218 2.75 2.75 0 01-.926-.605 2.97 2.97 0 01-.617-.903 2.698 2.698 0 01-.229-1.109c0-.38.076-.743.229-1.085a3.12 3.12 0 01.617-.915c.259-.266.567-.476.926-.628a2.917 2.917 0 011.154-.229zM31.43 0c-.503 0-.975.095-1.417.286-.442.19-.823.45-1.143.777-.32.327-.575.708-.766 1.143a3.46 3.46 0 00-.285 1.405c0 .503.095.972.285 1.406.19.434.446.812.766 1.132a3.627 3.627 0 002.56 1.051 3.46 3.46 0 001.406-.286c.434-.19.815-.445 1.143-.765.327-.32.586-.698.777-1.132a3.46 3.46 0 00.286-1.406 3.46 3.46 0 00-.286-1.405 3.704 3.704 0 00-1.92-1.92A3.46 3.46 0 0031.43 0zM47.88 3.093q1.512.22 1.58 1.382v8.382q-.706-.843-2.536-1.184l.957-8.58zm-.424-.843l-1.132 10.022q2.521.289 3.136 1.8v1.678h.752V4.475q0-1.883-2.756-2.225zM65.095 4.03v1.756H52.163V4.03zM52.21 2.25v1.329h-.498v2.657h13.834V3.58h-.404V2.25h-.45v1.329h-1.116V2.25h-.45v1.329H62.01V2.25h-.45v1.329h-1.092V2.25h-.475v1.329h-1.091V2.25h-.451v1.329h-1.115V2.25h-.451v1.329h-1.116V2.25h-.45v1.329h-1.092V2.25h-.45v1.329H52.66V2.25zM53.409 13.744l-1.697 2.006h.827l.87-1.036.877 1.036.853-1.036.878 1.036.869-1.036.878 1.036.869-1.036.878 1.036.852-1.036.878 1.036.878-1.036.852 1.036.878-1.036.87 1.036h.827l-1.697-2.006-.878.97-.852-.97-.878.97-.878-.97-.852.97-.878-.97-.87.97-.877-.97-.87.97-.877-.97-.853.97-.877-.97zM73.948 2.774q.949.562.949 1.686h-1.89q0-1.124.94-1.686zm.949 2.21q-.213.751-.95.751-.736 0-.926-.751zm5.452 1.313v.896H67.554v-.896zM73.948 2.25q-1.45.547-1.45 2.346 0 .684.296 1.14h-5.748v1.981H80.85V5.735h-5.725q.296-.455.296-1.139 0-1.8-1.473-2.346zM70.32 12.879c.806 0 1.814.414 2.302.902.427.426.482.992.498 1.518h-5.576c.016-.526.071-1.092.498-1.518.488-.488 1.473-.902 2.278-.902zm0-.451c-.955 0-1.984.441-2.586 1.044-.618.618-.688 1.432-.688 2.04v.238h6.549v-.237c0-.61-.047-1.423-.665-2.04-.602-.604-1.654-1.045-2.61-1.045zM80.375 9.96l-.047 5.268-2.776.047-.024-5.291 2.847-.024zm.475-.45l-3.773.023.024 6.217 3.678-.071.07-6.17z"/><path d="M46.324.375c-9.625 0-9.625 17.25 0 17.25M46.324.375H80.85M46.324 17.625H80.85M88.537.375v17.25M80.85.375c9.625 0 9.625 17.25 0 17.25" fill="none" stroke="#000"/><path d="M96.083.885q3.633.442 0 6.73-3.633-6.288 0-6.73zm0-.885q-5.03.35-.698 8.08H91.1v1.095h4.238V18h1.444V9.128h4.284V8.08h-4.284q4.33-7.754-.699-8.08zM106.36 2.582c.244 1.79.504 3.625.688 5.418.13 1.27.207 2.461.269 3.413.061.951.092 1.67.06 2.005-.068.7-.253 1.107-.45 1.318a.75.75 0 01-.568.24.72.72 0 01-.569-.24c-.2-.21-.411-.617-.479-1.318-.032-.334-.001-1.054.06-2.005.062-.952.17-2.144.3-3.413.183-1.794.443-3.628.688-5.418zM106.335 0a.287.287 0 00-.067.008.287.287 0 00-.09.06.287.287 0 00-.06.06.287.287 0 00-.06.12c-.003.025.005.063 0 .09a156.91 156.91 0 00-.957 7.603 96.489 96.489 0 00-.3 3.412c-.062.962-.1 1.7-.06 2.125.076.788.316 1.319.63 1.647.312.328.682.449.987.449.289 0 .683-.122.988-.45.305-.326.523-.858.599-1.646.04-.425.032-1.163-.03-2.125a96.489 96.489 0 00-.3-3.412 155.7 155.7 0 00-.988-7.604c-.004-.026.004-.064 0-.09a.287.287 0 00-.15-.21.287.287 0 00-.142-.037zm-2.701 14.496c.062.034.158.035.21.09.123.133.22.322.299.569.078.247.15.545.21.808s.11.505.239.718c.087.144.218.238.36.33.14.091.3.165.478.24.24.099.493.135.748.179h-2.544v-2.934zm5.807 0v2.934h-2.544c.255-.044.508-.08.748-.18.178-.074.368-.148.51-.24a.974.974 0 00.328-.329c.129-.213.18-.455.24-.718.06-.263.131-.561.21-.808.077-.247.175-.436.299-.57.051-.054.148-.055.21-.089zm-6.151-.692a.287.287 0 00-.045.004.287.287 0 00-.09.06.287.287 0 00-.09.18v3.681a.287.287 0 000 .06.287.287 0 00.27.21h6.406a.288.288 0 00.06 0 .287.287 0 00.209-.27v-3.652a.287.287 0 00-.03-.12.287.287 0 00-.06-.09.287.287 0 00-.18-.06c-.384 0-.711.158-.927.39-.216.231-.358.519-.45.808-.09.289-.122.556-.179.808-.057.252-.126.48-.18.569a1.001 1.001 0 01-.18.15c-.101.066-.237.116-.388.18-.302.125-.665.209-.898.209-.234 0-.596-.084-.898-.21-.151-.063-.287-.113-.39-.18a1.001 1.001 0 01-.18-.149c-.053-.089-.092-.317-.149-.569a9.742 9.742 0 00-.21-.808 2.108 2.108 0 00-.448-.808 1.261 1.261 0 00-.928-.39.287.287 0 00-.045-.003zM114.334 0q-2.323 0-2.323 2.232V18h1.071V2.232q0-1.16 1.252-1.16 1.261 0 1.261 1.16v10.492h1.071V2.232q0-2.232-2.332-2.232z"/></svg>