<svg xmlns="http://www.w3.org/2000/svg" width="56.034" height="18"><path d="M2.075 1.124q2.015.293 2.106 1.842v11.177Q3.24 13.019.8 12.563l1.275-11.44zM1.508 0L0 13.363q3.361.385 4.181 2.4V18h1.002V2.966Q5.183.456 1.508 0zM25.027 2.373v2.341H7.784V2.373zM7.847 0v1.772h-.664v3.543h18.445V1.772h-.538V0h-.6v1.772h-1.488V0h-.6v1.772h-1.488V0h-.6v1.772h-1.456V0h-.633v1.772H16.77V0h-.601v1.772h-1.487V0h-.602v1.772h-1.487V0h-.6v1.772h-1.456V0h-.601v1.772H8.449V0zM9.446 15.325L7.183 18h1.104l1.159-1.382L10.616 18l1.137-1.382L12.923 18l1.16-1.382L15.252 18l1.158-1.382L17.581 18l1.137-1.382L19.888 18l1.17-1.382L22.197 18l1.17-1.382L24.525 18h1.103l-2.262-2.675-1.17 1.293-1.137-1.293-1.17 1.293-1.17-1.293-1.137 1.293-1.17-1.293-1.16 1.293-1.17-1.293-1.159 1.293-1.17-1.293-1.137 1.293-1.17-1.293zM30.253 0h-2.625v18h3v-.75h-2.625v.375h.375V.375h-.375V.75h2.625V0h-.375z"/><path d="M29.597 2.25v13.781h.563V1.97h-.563v.281zM41.831.699q1.266.749 1.266 2.247h-2.521q0-1.498 1.255-2.247zm1.266 2.946q-.284 1.002-1.266 1.002t-1.235-1.002zm7.269 1.751v1.195h-17.06V5.396zM41.83 0q-1.934.729-1.934 3.128 0 .912.395 1.519h-7.664v2.642h18.406V4.647H43.4q.395-.607.395-1.519 0-2.4-1.964-3.128zM36.994 14.172c1.074 0 2.419.552 3.07 1.202.568.57.643 1.324.664 2.025h-7.435c.02-.701.095-1.456.664-2.025.65-.65 1.963-1.202 3.037-1.202zm0-.601c-1.274 0-2.645.588-3.448 1.392-.824.824-.918 1.909-.918 2.72V18h8.732v-.316c0-.812-.061-1.897-.885-2.721-.804-.804-2.206-1.392-3.48-1.392zM50.401 10.28l-.063 7.024-3.702.063-.031-7.055 3.796-.032zm.633-.6l-5.03.03.031 8.29 4.904-.095.095-8.226zM53.41.75h2.25V.375h-.376v17.25h.375v-.375h-2.625V18h3V0h-3v.75h.375z"/><path d="M53.503 2.25v13.781h.562V1.97h-.562v.281z"/></svg>