<svg width="46.034" height="18" xmlns="http://www.w3.org/2000/svg"><path d="M2.075 1.124q2.015.293 2.106 1.842v11.177Q3.24 13.019.8 12.563l1.275-11.44zM1.508 0L0 13.363q3.361.385 4.181 2.4V18h1.002V2.966Q5.183.456 1.508 0zM25.027 2.373v2.341H7.784V2.373zM7.847 0v1.772h-.664v3.543h18.445V1.772h-.538V0h-.6v1.772h-1.488V0h-.6v1.772h-1.488V0h-.6v1.772h-1.456V0h-.633v1.772H16.77V0h-.601v1.772h-1.487V0h-.602v1.772h-1.487V0h-.6v1.772h-1.456V0h-.601v1.772H8.449V0zM9.446 15.325L7.183 18h1.104l1.159-1.382L10.616 18l1.137-1.382L12.923 18l1.16-1.382L15.252 18l1.158-1.382L17.581 18l1.137-1.382L19.888 18l1.17-1.382L22.197 18l1.17-1.382L24.525 18h1.103l-2.262-2.675-1.17 1.293-1.137-1.293-1.17 1.293-1.17-1.293-1.137 1.293-1.17-1.293-1.16 1.293-1.17-1.293-1.159 1.293-1.17-1.293-1.137 1.293-1.17-1.293zM36.831.699q1.266.749 1.266 2.247h-2.521q0-1.498 1.255-2.247zm1.266 2.946q-.284 1.002-1.266 1.002t-1.235-1.002zm7.269 1.751v1.195h-17.06V5.396zM36.83 0q-1.934.729-1.934 3.128 0 .912.395 1.519h-7.664v2.642h18.406V4.647H38.4q.395-.607.395-1.519 0-2.4-1.964-3.128zM32.125 12.65c1.074 0 2.418.552 3.069 1.203.569.569.643 1.323.664 2.024h-7.435c.021-.7.096-1.455.665-2.024.65-.65 1.963-1.203 3.037-1.203zm0-.6c-1.274 0-2.645.588-3.449 1.391-.824.824-.917 1.91-.917 2.721v.317h8.732v-.317c0-.812-.062-1.897-.886-2.72-.803-.804-2.206-1.393-3.48-1.393zM45.401 10.26l-.063 5.775-3.702.052-.031-5.8zm.633-.494l-5.03.026.031 6.816 4.904-.078z"/><path d="M27.56 17.597l18.469.021" fill="none" stroke="#000" stroke-width=".71"/></svg>