<svg xmlns="http://www.w3.org/2000/svg" width="12.188" height="18"><path d="M10.571.753q.073 0 .152.06.304.197-.268.626-.608.964-.608 2.322-.178.179-.464.25H7.596q.447-.964 1.188-1.375.742-.411 1.42-1.394.16-.489.367-.489ZM7.007 5.798q-.054.09 0 .16-.09-.017-.16-.035.053-.09.16-.125Zm.179.018.232.125q-.125.018-.232.036.089-.054 0-.161Zm-.139-.112q-.11 0-.2.058l-.126.143v.125l.071-.036q.154.086.323.086.186 0 .392-.103l.25.035-.018-.107-.232-.018q-.263-.183-.46-.183Zm1.571-.036q.064 0 .06.076-.01.143-.117.277-.107.134-.196.188-.026.015-.037.015-.027 0 .037-.096.067-.1.028-.1-.013 0-.037.011-.025.011-.04.011-.047 0-.014-.1.045-.134.152-.224.108-.058.164-.058Zm.049-.158q-.046 0-.106.02-.16.054-.286.259-.125.205-.071.313-.125.071-.143.187-.018.116.098.161.019.007.04.007.112 0 .3-.195.223-.232.277-.42.053-.187 0-.276-.034-.056-.11-.056Zm-1.885.94h-.007q-.036.009-.018.063.018.053-.027.071-.009.004-.018.004-.037 0-.08-.058-.054-.071-.09-.071-.035.018-.053.036-.018.018 0 .071.02-.02.042-.02.038 0 .083.056.047.06.1.06.025 0 .052-.015.08-.045.062-.126-.016-.072-.046-.072Zm-.238.36q.022 0 .052.006.09.018.205.027.117.009.08.009l-.339.036q-.071-.018-.053-.054.012-.024.055-.024Zm.32.078q-.018.035-.098.08t-.152.063q-.036 0-.054-.01-.018-.008.018-.08l.286-.053Zm3.34-2.52Q9.74 5.87 8.723 7.067l.036-.446q.643-.858.348-1.26-.137-.186-.352-.186-.25 0-.604.249-.273-.29-1.01-.29-.081 0-.169.004-.071-.447-.125-.768ZM1.192 5.69q.117 0 .26.081.393.223.125 1.545-.93-.982-.724-1.375.131-.25.339-.25Zm5.915-.325q1.044 0 .83.576l.143.036q.258-.597.632-.597.04 0 .082.007.5.16-.285 1.108-.161.393-.063.866.098.474.277.706-.353.166-.614.166-.215 0-.369-.113.018 0 0-.42-.013-.318-.32-.318-.097 0-.225.033-.121.03-.21.03-.3 0-.245-.343.321-.196.214-.268-.107-.071-.375-.09.018-.142-.232-.231.196-.59.429-.822.125-.068.26-.068.116 0 .24.05.268.107.554.143l-.036-.107q-.16-.018-.429-.143-.156-.073-.312-.073-.112 0-.224.037l.09-.16q.098-.005.188-.005ZM2.79 10.46q.375.125.125.482l-.59.072q-.41-.143-.196-.554Zm6.145-1.93q.358.465.349 1.054-.01.59 0 2.636.009 2.045-.456 4.814l.322.429H2.719l1.733-.536q-.66-2.662-1.43-3.895-.767-1.232-.347-1.527.107-.075.224-.075.342 0 .767.638l2.59 3.287H6.9q-.036-5.002.696-6.789v.018q.263.14.567.14.358 0 .773-.194ZM7.86 0q-.251 0-.523.152-.509.286-.5 1.135.01.849.867 1.652-.447.483-.644 1.072h-.732q.179.697.241 1.01.063.312.027.527-.197.268-.447.768-.125.286.01.33.133.045.205.117-.107.053-.072.107.036.053.125.071l.01-.003q.011 0-.054.066-.08.08.026.125.108.045.072.223-.036.179.09.25l-.34.661h.571l.197-.607h.304q.053.518-.197.947-.822 1.733-.804 5.842l-2.68-3.43q0-.983-.875-.983l-.75-1.965q.679-.25 1.465-.25.018-.483-.268-.876-.68.411-1.305.608.554-1.751-.223-2.18-.276-.152-.51-.152-.423 0-.705.5-.437.778.974 1.957-.574.206-1.16.206-.125 0-.251-.01-.036.483.268.911.518-.446 1.34-.625l.464 1.876q-.983 0-.357.447-.25.34.286.964-.25.75.464 1.957.715 1.206 1.233 3.278l-1.537.429.09.875L10.24 18l-.733-1.286q.286-2.644.277-4.895-.009-2.251-.036-2.59-.027-.34-.437-.921-.411-.58-.483-.884.465.446.777.768.313.321.295 1.447h.625q0-1.286-.527-1.706-.527-.42-.848-.777.482-.68.714-1.09.25-.429 2.323-5.395h-.393q-1.161 2.608-1.465 2.84.036-1.161.429-1.643.536-.465.598-.787.063-.321-.313-.66-.317-.209-.55-.209-.148 0-.262.083-.295.215-.51.822-.553.822-1.09 1.117-.535.295-.625.384-.732-.679-.741-1.313-.009-.634.357-.813.163-.08.3-.08.17 0 .299.125.232.223.107.446-.063.112-.139.112-.075 0-.165-.112Q7.847.76 7.721.76q-.16.107-.062.384t.456.277q.607 0 .607-.527T8.284.117Q8.08 0 7.86 0Z" style="fill:#000;stroke:none"/></svg>