<svg xmlns="http://www.w3.org/2000/svg" width="11.371" height="18"><path d="M10.052.57q.056 0 .117.048.211.13-.21.455-.44.715-.44 1.722-.113.114-.324.178h-1.3q.325-.714.861-1.023.536-.309 1.023-1.023.12-.357.273-.357Zm-2.58 3.736q-.032.065 0 .13l-.097-.05q.016-.064.098-.08Zm.13.016.163.081q-.081.033-.162.033.065-.05 0-.114Zm-.084-.082q-.08 0-.143.05l-.114.097v.097l.065-.032q.107.06.225.06.133 0 .279-.076l.179.032v-.081L7.83 4.37q-.181-.131-.312-.131Zm1.123-.03q.046 0 .042.055-.008.106-.09.203-.08.097-.146.138-.019.012-.027.012-.019 0 .027-.069.05-.073.025-.073-.008 0-.025.008-.016.008-.026.008-.03 0-.006-.073.032-.097.097-.162.086-.047.129-.047Zm.03-.123q-.034 0-.077.016-.114.04-.212.194-.097.155-.048.236-.082.049-.098.138-.016.09.073.122.015.005.03.005.084 0 .214-.143.154-.17.195-.317.04-.146 0-.211-.025-.04-.078-.04Zm-1.364.697h-.005q-.024.009-.008.05.016.04-.016.056-.008.004-.016.004-.028 0-.066-.044l-.048-.057q-.033.016-.049.032-.016.017 0 .05.01-.012.024-.012.027 0 .065.044.038.043.073.043.017 0 .033-.01.049-.033.04-.098-.007-.058-.027-.058Zm-.127.269q.065.016.146.024.082.008.05.008l-.244.017q-.033 0-.025-.025.008-.024.073-.024Zm2.6-1.82q-.358 1.089-.992 1.917l-.048-.227q.455-.65.243-.942-.097-.135-.253-.135-.183 0-.445.183-.198-.228-.753-.228l-.076.001-.113-.569ZM7.374 5.118q-.032.032-.081.065-.049.032-.098.032-.024.008-.038.008-.014 0-.018-.008-.008-.016.008-.048l.227-.05Zm-6.14 2.221Zm5.588.02q.035.121.064.252-.718.38-1.672.902-.65.065-1.706.203t-1.543.187q-.123-.148-.342-.194v-.397q.228-.062.472-.221 1.661.442 2.317.442.14 0 .233-.02.747-.097 2.177-1.153Zm.188 1.114q.068.863-.026 2.022-1.072.081-1.908.235-.837.155-1.552.415-.747.292-.78 1.3-.276 1.445-.422 2.696-.127 1.087-.456 1.53-.094-.092-.243-.133V9.686l.017-.003q.39-.05.763-.374 1.003.063 1.671.063.891 0 1.188-.112.57-.177 1.748-.787Zm-5.144 8.198Zm-.437.11q.145 0 .214.113-.202.163-.487.304-.004-.034-.004-.059.017-.357.277-.357Zm9.13-7.285h.024q.43.008.446.268v2.193h-.308v-1.153h-.309v3.8H7.781v2.941H4.955v-4.84h4.89q.308 0 .308-.342v-2.6q0-.267.406-.267Zm-.147 5.401v.146h-2.16v2.502H8.09v-2.648Zm0 .455v2.193H8.577v-2.193Zm-9.5 2.228q.02.053.045.111h-.34L.6 17.675q.163-.046.312-.095Zm.783-.334q-.022.154-.096.445h-.332q-.033-.12-.057-.218.27-.107.485-.227ZM7.524 3.979q.781 0 .615.424l.113.033q.192-.444.465-.444.027 0 .055.005.358.114-.211.828-.146.18.008.666.154.488.463.853.309.366.358 2.884.08 3.119-1.073 3.151h-3.8v.002q-.538.07-.618.583-.13.91-.43 1.665-.301.756-.594 1.714v.552q.39.683-.178.796H1.9q.146-.373.13-.552 0-.059-.006-.112.463-.386.607-1.732.146-1.372.455-2.835.016-.844.65-.99.52-.212 1.364-.366.845-.154 2.29-.268.03-1.698-.014-2.554l.356-.191q1.137-.52.869-1.089-.115-.242-.299-.242-.247 0-.62.437-.198.101-.425.22-.113-.418.012-.593.138-.195.422-.325t.292-.56q.008-.388-.3-.388-.034 0-.073.005-.05.007-.093.007-.283 0-.24-.283.227-.146.154-.203-.073-.057-.268-.073.016-.097-.179-.179.163-.422.325-.6.081-.041.17-.041.09 0 .188.04.195.082.39.098V4.24q-.13-.017-.325-.114-.107-.053-.213-.053-.089 0-.177.037l.065-.13.116-.002ZM8.102 0q-.183 0-.386.114-.373.212-.373.845 0 .634.633 1.218-.325.358-.47.796h-.52q.13.52.178.756.049.235.016.382-.146.21-.325.568-.097.228 0 .26.098.033.147.081-.065.05-.041.09.024.04.073.04.033 0-.016.057t.024.09q.073.032.049.162-.024.13.057.179l-.244.503h.422l.13-.455h.228q.049.683-.423.683-.47 0-2.55 1.397-.65-.033-1.576-.073-.926-.041-1.413-.057-.04-.066-.098-.118v-4.04q0-.39-.26-.764.163-.293.407-.626.243-.333-.049-.544-.244.504-.593.804-.35.3-.487.617-.138.317-.61 1.178.075.025.143.025.335 0 .524-.593.227-.293.357-.382.025-.017.047-.017.092 0 .132.301V7.34q-.139-.026-.31-.026-.183 0-.405.03-.049.212.26.26l.032.536q.115.215.407.215h.016v.344q-.224.024-.504.107Q.715 9 1.023 9l.13.536q.035.055.082.092v6.91q-.39.114-.407.601-.014.08.01.2-.165.065-.35.125Q-.017 17.61 0 18h2.892q.47-.032.52-.276.048-.244-.074-.528-.122-.284-.13-.61-.008-.324.415-1.51.503-.959.56-1.6.057-.642.3-.772h.033v5.28h6.336v-5.75h.52v-2.47q0-.601-.78-.601t-.78.6q0 2.616-.195 2.616h-.398q.371-.464.495-1.592.017-4.093-.333-4.5-.349-.406-.446-.844.406.406.698.666.293.26.293 1.283h.568q0-1.186-.52-1.486-.52-.3-.844-.74.243-.357.406-.65.178-.34 1.69-4.012h-.293q-.845 1.933-1.056 2.112.016-.86.309-1.235.39-.34.43-.576.04-.236-.22-.496-.225-.157-.391-.157-.11 0-.193.068-.211.17-.374.593-.406.617-.796.845-.39.227-.455.276-.52-.504-.528-.967-.008-.463.26-.6.124-.064.224-.064.12 0 .207.088.162.162.073.333-.045.085-.1.085-.054 0-.12-.085-.118-.156-.196-.156l-.015.001q-.113.065-.048.276.065.212.325.212.454 0 .446-.398Q8.707.26 8.4.082 8.257 0 8.102 0Z" style="fill:#000;stroke:none"/></svg>