<svg xmlns="http://www.w3.org/2000/svg" width="10.809" height="18"><path d="M5.778 2.535q-.167 0-.293.073-.23.133-.23.254.332-.11.588-.11.192 0 .342.062.35.144.93.193l-.145-.121q-.531-.193-.893-.302-.163-.049-.3-.049Zm.226.52.41.169q-.217.097-.434.12.17-.12.024-.289Zm-.362 0q-.096.169.024.314-.169-.048-.29-.097.049-.12.266-.217Zm.1-.163q-.308 0-.438.235l-.217.145v.121l.193.024q.177.108.43.108.368 0 .898-.229l.507.073.024-.193-.555-.024q-.52-.26-.843-.26Zm1.522-1.838q.564 0 1.167.214.881.314 1.303 1.244.423.93-.12 1.98-.397.767-.782.767-.141 0-.28-.103-.52-.387-.52-.942.483-.435.604-.845.12-.41-.012-.749-.133-.338-.507-.398-.065-.01-.13-.01-.311 0-.63.24-.604-.339-1.594-.58.193-.628.99-.773.251-.045.511-.045Zm-1.84 1.204q.942.17 1.932.676l.193-.048q.204-.188.357-.188.083 0 .15.055.194.157.097.471-.097.314-.748.845.217 1.28 1.207 1.738-.302.688-.93.688-.277 0-.615-.132-.073-.894-.628-1.4.82-.435.893-1.57h-.12q-.121 1.014-.737 1.328-.616.314-1.002.362-.109.018-.187.018-.235 0-.2-.163.05-.217-.072-.362.127.007.225.007.542 0 .246-.224-.24-.183-.384-.183-.066 0-.11.038.096-.362-.387-.362.555-.894.82-1.594Zm4.009 4.008q.7 1.256.893 2.704l-.483.097q-.048-1.4-.41-2.8Zm-.531.048q.53 1.135.53 4.733 0 3.597-.7 5.987l.604.483H.862v-.048l2.293-.773q-.82-3.621-1.835-5.311Q.306 9.695.874 9.308q.142-.096.292-.096.45 0 .975.869l3.356 4.49h.435Q6.39 9.02 6.97 6.87q.406.164.75.164.724 0 1.182-.72ZM5.122 0q-.047 0-.096.013-.18.048-.326.133-.144.084-.096.193.04.089.2.089.036 0 .078-.005.032-.003.055-.003.138 0-.08.124-.253.145-.18.724.072.58.434.749-.193.797-.664 1.473-.455.652.205.652H4.7q-.169.24.049.29-.193.12-.049.216.145.097.097.46-.29 1.713-.773 2.377-.396.545-.735.545-.074 0-.146-.026-.177-.064-.292-.064-.144 0-.19.1-.085.182.253.363.118.063.283.063.308 0 .78-.22.723-.338 1.593-2.921l.41-.121q.507.386.628 1.207-.724 2.487-1.11 7.364L2.213 9.163q-.604-.526-1.064-.526-.257 0-.47.164-.591.459-.675.785-.085.326.893 2.137.978 1.81 1.678 4.635l-2.246.773.121.869h9.923l-1.062-1.183q.628-2.028.628-7.219l.869-.12q0-2.005-1.256-3.96 1.183-1.835.676-3.055Q9.722 1.244 8.793.894 7.976.586 7.103.586q-.12 0-.242.006Q5.86.641 5.304 1.655q-.217-.338.06-.604.278-.266.11-.628.047-.193-.11-.326Q5.25 0 5.121 0Z" style="fill:#000;stroke:none"/></svg>