<svg xmlns="http://www.w3.org/2000/svg" width="38.693" height="18"><path d="M1.647 0c-.335 0-.67.026-.995.066C.205.18.435.692.832.692A.476.476 0 0 0 .914.684c.84.097 1.872.15 2.506.626.841.916.463 2.821.561 3.725.007.05.01 3.653.01 5.48a6.145 6.145 0 0 0-2.635-.586 6.04 6.04 0 0 0-1.187.117c-.441.231.076.528.422.528.041 0 .08-.004.115-.013 1.226.133 2.62.461 3.243 1.602.061.206.023.277-.071.277-.206 0-.68-.342-.946-.342-.014 0-.028 0-.04.003a7.535 7.535 0 0 0-1.58-.169c-.39 0-.777.031-1.15.095-.42.278.097.534.439.534a.532.532 0 0 0 .105-.01c1.251.151 2.636.49 3.243 1.633.007 1.27 0 2.11.033 3.278-.014.36.22.538.456.538.235 0 .473-.176.475-.526-.009-1.15-.091-2.161.06-3.277.304-1.253 2.477-1.445 3.827-1.754.294-.347-.285-.475-.659-.475-.055 0-.107.003-.15.008a6.823 6.823 0 0 0-.521-.02c-.882 0-1.771.175-2.557.58-.032-.755.711-1.19 1.244-1.493.84-.361 1.765-.397 2.643-.59.313-.273-.18-.501-.521-.501a.58.58 0 0 0-.125.012 6.767 6.767 0 0 0-.648-.031c-.903 0-1.805.183-2.614.582.016-2.851.062-5.61-.02-8.308-.065-.834-.546-1.6-1.354-1.849C2.938.094 2.291 0 1.647 0ZM20.101.601c1.074 0 2.419.552 3.07 1.202.568.57.643 1.324.664 2.025H16.4c.02-.7.095-1.455.664-2.025.65-.65 1.963-1.202 3.037-1.202Zm0-.601c-1.274 0-2.645.589-3.448 1.392-.824.824-.918 1.91-.918 2.72v.317h8.733v-.316c0-.812-.062-1.897-.886-2.72C22.778.588 21.376 0 20.102 0ZM20.101 11.41q1.266.748 1.266 2.247h-2.52q0-1.499 1.254-2.248Zm1.266 2.945q-.283 1.003-1.266 1.003-.982 0-1.235-1.003Zm7.27 1.752V17.3h-17.06v-1.194ZM20.1 10.71q-1.933.729-1.933 3.128 0 .911.395 1.519h-7.664V18h18.405v-2.642h-7.633q.395-.608.395-1.519 0-2.4-1.965-3.128ZM34.999 12.739l.384 4.315h-.768l.384-4.315Zm.03-9.842 2.482 14.157h-1.596l-.768-6.207h-.266l-.769 6.207h-1.655l2.571-14.157ZM34.88 0l-3.577 18h7.39L35.146 0Z" style="fill:#000;stroke:none"/></svg>