<svg xmlns="http://www.w3.org/2000/svg" width="29.037" height="18"><path d="M9.36 0c-.164 0-.33.02-.494.06-.331.082-.69.266-1.077.553H0v1.723h7.789c.387.287.746.471 1.077.552a2.01 2.01 0 0 0 .983 0c.324-.081.649-.265.973-.552h.3c.312.287.633.471.964.552a2.076 2.076 0 0 0 .992 0c.331-.081.684-.265 1.058-.552H22V.613h-7.864c-.374-.287-.727-.471-1.058-.552a2.076 2.076 0 0 0-.992 0c-.33.081-.652.265-.964.552h-.3c-.324-.287-.649-.471-.973-.552A2.01 2.01 0 0 0 9.359 0ZM20.45 12.17q.441 0 .441.464v3.556h-1.347l.442-3.746q.021-.273.463-.273Zm.02-.568q-1.073 0-1.136.61-.442 3.978-.947 4l-9.765.357-1.01-.042q-1.137-1.2-2.02-1.2l-.653-.042q-1.789.337-2.147.337-.252 0-.252.337 0 .463.715.463 1.23-.196 1.885-.196.12 0 .22.006.358 0 .59.295-.411.508-1.838.508-.11 0-.225-.003-1.62-.042-2.862-.421-.61 0-.61.716.062.652 4.566.673l2-.21 11.406-.064 3.199.043v-5.135q-.021-1.032-1.116-1.032ZM26.508.696q.928 0 .928 1.222 0 1.075-.928 2.129-.927-1.054-.927-2.129 0-1.222.927-1.222Zm0 4.7q.654 0 .654 1.412 0 .8-.654 1.475-.653-.674-.653-1.475 0-1.412.653-1.412Zm0 4.257q.654 0 .654 1.413 0 .8-.654 1.475-.653-.674-.653-1.475 0-1.413.653-1.413Zm0-9.653q-1.686 0-1.686 1.918-.021 1.201.559 1.886.58.685.516.917-.738.864-.738 2.087 0 1.012.864 2.17-.864.865-.864 2.088 0 1.011.864 2.15.106.273-.59 1.285Q24.738 15.513 24 18h.927q.464-1.644.822-2.35.359-.706.76-1.149.42.443.769 1.149.347.706.811 2.35h.948q-.695-2.487-1.422-3.499t-.6-1.286q.842-1.138.842-2.15 0-1.222-.8-2.086.8-1.16.8-2.171 0-1.223-.716-2.087-.064-.232.505-.917.57-.685.57-1.886Q28.215 0 26.507 0Z" style="fill:#000;stroke:none"/></svg>