<svg xmlns="http://www.w3.org/2000/svg" width="11.003" height="18"><path d="M5.514.543c.419 0 .837.108 1.306.325.087.035.087.07 0 .104-.59.417-.933.863-1.228 1.54H5.41c-.26-.677-.594-1.123-1.201-1.54-.087-.035-.087-.07 0-.104.468-.217.887-.325 1.305-.325ZM2.882 3.329c.102 0 .208.004.32.012.086 0 .104.035.052.104-.417.59-.625.992-.625 1.808l-.156.078c-.52-.625-.845-.823-1.574-.997-.07 0-.078-.026-.026-.078.65-.665 1.177-.927 2.01-.927Zm5.293.021c.8 0 1.32.266 1.955.932.052.052.034.078-.052.078-.712.156-1.027.346-1.548.971l-.156-.052c0-.815-.209-1.227-.625-1.834-.052-.052-.035-.078.052-.078.132-.011.256-.017.374-.017Zm-1.327 9.223Zm-4.79-.942h.01c.075.02-.05.45-.123.777-.113.596-.065.876.03 1.293-.105.64-.382 1.318-.546 1.318l-.012-.001c-.173-.005-.168-.942-.093-1.455.218-.37.271-.603.394-1.212.091-.246.237-.72.34-.72Zm6.876.013c.046 0 .162.167.335.71.123.61.176.842.394 1.212.075.514.08 1.45-.093 1.455a.057.057 0 0 1-.012.001c-.164 0-.44-.677-.547-1.318.096-.417.144-.696.031-1.292-.087-.279-.172-.762-.127-.762a.01.01 0 0 1 .005.002.017.017 0 0 1 .014-.008ZM7.102 13.49l.343 3.89H3.558l.342-3.864c.281.534.56.802.836.802.253 0 .504-.224.752-.672.272.47.537.705.793.705.283 0 .557-.287.821-.861ZM5.514 0c-.66 0-1.319.195-1.978.586-.226.156-.226.303 0 .442a2.939 2.939 0 0 1 1.458 1.848c0 .174-.04.39.082.651.121 1.371.121 4.477 0 9.319-.112.36-.214.46-.317.46-.076 0-.152-.054-.234-.096.267-.313.395-.824.257-1.744-.348-1.891-.712-3.323-1.094-4.295-.382-.971-.612-1.518-.49-1.64-.052-.833.19-1.579.729-2.238.156-.226.104-.365-.157-.417a4.546 4.546 0 0 0-.772-.069c-1.16 0-2.126.5-2.898 1.501-.173.208-.121.338.156.39.833.122 1.527.547 2.083 1.276a.059.059 0 0 1 .023-.005c.129 0 .368.38.719 1.137.373.807.733 2.313 1.08 4.517.07.54.076.877.02 1.014-.366-.587-.93-1.467-1.026-1.623-.203-.282-.483-.797-.722-.828h-.001c-.435 0-.92 2.257-1.136 2.606-.505.663-.397 1.048-.39 1.402-.043.462.053 1.185.45 1.258l.044.003c.378 0 .621-.683.77-1.062.086-.232.374-.692-.024-1.45-.076-.299.214-1.083.29-1.302.018-.142.068-.196.131-.196.131 0 .317.234.39.39.06.108.274.455.492.807-.03.192-.062.416-.095.673L2.937 18H8.04l-.416-4.685a28.34 28.34 0 0 0-.093-.657c.221-.356.44-.71.5-.82.073-.156.259-.39.39-.39.063 0 .113.054.131.196.076.22.366 1.003.29 1.302-.398.758-.11 1.219-.024 1.45.149.38.392 1.063.77 1.063.014 0 .03-.001.044-.003.397-.074.493-.797.45-1.259.007-.354.115-.739-.39-1.402-.216-.348-.7-2.606-1.136-2.606h-.001c-.24.032-.519.546-.722.828-.092.15-.618.971-.984 1.556-.039-.165-.05-.482-.032-.95.364-2.187.733-3.684 1.106-4.49.358-.774.592-1.161.702-1.161.005 0 .01 0 .014.002.573-.712 1.276-1.128 2.108-1.25.278-.052.33-.19.157-.416-.763-.989-1.716-1.483-2.858-1.483-.26 0-.532.026-.813.077-.277.052-.33.191-.156.417.538.642.681 1.388.629 2.238.121.105-.013.643-.404 1.614-.39.972-.75 2.413-1.08 4.321-.07.903.074 1.475.23 1.718a.344.344 0 0 1-.178.063c-.163 0-.238-.206-.346-.427-.122-4.842-.13-7.948-.026-9.319.121-.26.082-.477.082-.65a3.137 3.137 0 0 1 1.51-1.849c.225-.139.225-.286 0-.442C6.833.196 6.173 0 5.514 0Z" style="fill:#000;stroke:none"/></svg>