<svg xmlns="http://www.w3.org/2000/svg" width="18.292" height="18"><path d="M9.26 14.915c.297 0 .476.05.568.103.27.172.14.583.097.84h-1.33c-.032-.263-.177-.663.098-.84.093-.052.27-.103.567-.103Zm-7.389 1.552v.924H.61v-.924Zm6.556 0v.924H2.175v-.924Zm1.52 0v.924H8.731v-.924Zm6.104 0v.924h-5.8v-.924Zm1.632 0v.924h-1.328v-.924ZM6.59 13.99l-.43.431 1.44 1.436H0V18h18.292v-2.142h-7.37l1.44-1.436-.431-.43-1.33 1.326c-.08-.804-.632-.989-1.34-1.012-.758.02-1.223.192-1.34 1.012L6.59 13.991Z" style="fill:#000;stroke:none"/></svg>