<svg xmlns="http://www.w3.org/2000/svg" width="73.122" height="18"><path d="M3.01.474c.693 0 1.247.2 1.634.479.006.053.02.107.009.16-.05.248-.195.477-.396.63-.316.207-.697.267-1.057.356-.09.01-.019.031.031.04.23.04.707.099.971.099l.052-.001c.278-.032.54-.148.766-.311.079-.067.147-.15.205-.236.147.346.227.713.26.917.018.11.096.2.202.233 1.139.349 2.038 1.91 2.88 2.949 1.729 2.137 3.199 4.526 4.892 6.76-.937-.456-1.87-.916-2.81-1.374-1.92-1.01-3.92-1.816-5.604-3.09l-.008-.008c-.97-.808-1.963-1.66-2.339-2.793-.148-.92 1.757-2.577 1.542-2.646a.207.207 0 0 0-.064-.01c-.458 0-1.753 1.128-2.019 2.202-.003-.014-.01-.03-.014-.045-.073-.356-.154-1.256.068-1.98a.29.29 0 0 0 .01-.103 1.968 1.968 0 0 0-.123-.634c-.063-.17-.139-.344-.26-.765-.031-.108-.142-.328-.208-.345.186-.138.375-.28.645-.375a.434.434 0 0 0-.132.314c0 .23.164.415.365.415.2 0 .364-.186.364-.415V.894a.411.411 0 0 0-.255-.39c.053-.007.096-.019.154-.022.081-.006.16-.008.238-.008Zm.67 7.763c.065.065.135.124.202.187.214.78.412 1.64.692 2.305.483 1.145 1.216 2.141 1.84 3.154a1.814 1.814 0 0 0-.385.27 6.831 6.831 0 0 0-.199.193 2.61 2.61 0 0 0-1.186-.897c.045-.723-.108-1.712-.34-2.787a34.903 34.903 0 0 0-.624-2.425Zm1.006.908c1.149.945 2.428 1.738 3.676 2.54-.018.91-.018 1.778.084 2.675a3.411 3.411 0 0 0-1.437-.736c-.02 0-.037.012-.057.012-.649-1.063-1.383-2.06-1.837-3.134-.156-.37-.293-.85-.429-1.357Zm.407 5.254a2.5 2.5 0 0 1 .44.541.3.3 0 0 0 .257.14c.06 0 .12-.017.17-.053.215-.156.347-.324.476-.446.047-.045.097-.08.148-.117l.149 2.722c-.213-.014-.435-.035-.637-.035-.264 0-.495.036-.633.172-.169-.134-.497-.164-.89-.164-.102 0-.207.002-.316.004l.836-2.764ZM6.25 9.574c1.354.787 2.784 1.414 4.135 2.125a.244.244 0 0 0 .006.003c1.295.631 2.586 1.28 3.894 1.904.984 1.189 2.052 2.295 3.078 3.42l-2.15.362-4.267-4.635a.288.288 0 0 0-.037-.036c-1.499-1.137-3.152-2.082-4.66-3.143ZM3.076 0c-.135 0-.273.005-.411.013C1.58.083.792.54.523 1.157c-.04.093-.146.314-.007.314a2.35 2.35 0 0 1 .341-.028c.418 0 .38.172.47.194.09.282.29.846.303 1.068-.244.86-.153 1.763-.064 2.198.15.732.63 1.584 1.261 2.38a.285.285 0 0 0 0 .166 35.3 35.3 0 0 1 .903 3.336c.251 1.168.393 2.277.317 2.823a.294.294 0 0 0 .221.328c.045.011.084.031.127.045l-.928 3.079a2.847 2.847 0 0 0-.593-.055c-.381 0-.756.05-1.064.05-.125 0-.24-.008-.34-.032a.546.546 0 0 0-.125-.012c-.436 0-1.428.306-1.34.879.15-.128.257-.159.375-.159.11 0 .23.027.405.027h.027c.254-.004.697-.083 1.053-.083.18 0 .338.02.438.08.236-.01.45-.013.649-.013.85 0 1.447.07 2.5.075a89.565 89.565 0 0 0 2.974-.079c.45.003.697.054.922.054h.04c.134-.004.265-.057.48-.057.123 0 .273.017.468.07-.25-.341-.877-.685-1.33-.685a.591.591 0 0 0-.302.071 5.081 5.081 0 0 0-.508-.022c-.22 0-.448.01-.678.02l-.157-2.83c.487.203.857.517 1.281 1.021a.295.295 0 0 0 .513-.246c-.192-1.039-.213-2.019-.202-3.06.54.354 1.072.713 1.576 1.094l4.36 4.738a.29.29 0 0 0 .263.09c.95-.159 1.9-.315 2.849-.474a.294.294 0 0 0 .23-.193.298.298 0 0 0-.06-.297c-.741-.83-1.508-1.631-2.25-2.445 1.269.78 2.875 1.755 3.08 1.755.022 0 .027-.013.012-.04-.094-.163-.9-.755-1.775-1.373.14.058.276.12.415.177l.017.01c.103.035.16.059.27.062a.286.286 0 0 0 .108-.016.317.317 0 0 0 .188-.152.32.32 0 0 0 .023-.238c-.017-.05-.038-.077-.054-.098-.061-.085-.103-.109-.162-.154a4.553 4.553 0 0 0-.205-.149c-.153-.105-.336-.223-.493-.328a4.992 4.992 0 0 1-.328-.233.307.307 0 0 0-.028-.025l-3.892-2.736c-.008-.006-.02-.001-.028-.006-1.333-1.869-2.588-3.825-4.046-5.627-.744-.92-1.598-2.528-2.985-3.064-.067-.396-.218-1.127-.755-1.649C4.827.26 4.168.056 3.427.011A5.728 5.728 0 0 0 3.076 0ZM25.85 4.787q-.407 0-.471.314v.019q.046.083.193.083.425-.185.425-.342v-.018q0-.037-.147-.056Zm1.477-.572q-.065.36-.637.776l.203.083.277-.102.139.092q1.062.508 2.816.536l2.752.028.037-.001q.47 0 .457.689-.014.715-.485 1.436-.295 0-.6-.227-.305-.226-.498-.53-.194-.305-.5-.795.093.97.555 1.524-.563 0-1.002.106-.22.053-.366.053-.147 0-.22-.053-.092-.066-.457-.066-.222 0-.545.025-.25.019-.456.019-.501 0-.75-.112-.23-.194-.29-.678-.06-.485.272-1.344-.683.49-.683 1.487v.332q-.342-.35-.536-.776-.379-.942-1.034-.942-.25 0-.96.314-.24-.101-.195-.323l.462-.618q.332-.564.48-.628.074-.139.72-.139.278.074.278.203 0 .176-.185.351.35-.074.508-.415 0-.084.443-.305Zm.398-1.965q-.045 0-.102.072-.702 1.117-1.275 1.551-.221.194-.6.203-.185 0-.563-.277-.564-.545-.785-.923-.25-.444-.324-.49-.037 0-.055.093 0 .526 1.071 1.948-.203.296-.378.674-.176.379-.416.578-.24.198.046.392 0 .24.397.388.324-.092.988-.286.398 0 .545.332.49.739.49 1.542.055 1.071-.739 2.05-.25.167-.25.462 0 .12.305.12.5 0 .5-.12l-.038-.25q0-.129.194-.193v-.019q0-.175.628-1.763.286 0 .453.277.212.701.212 1.163 0 .102-.13.434-.156.12-.193.434h.738l-.055-.23q-.037-.14.102-.24l-.065-.342q-.12-1.303-.12-1.533v-.019q.73-.175 1.122-.175.392 0 .605.143.084.057.237.057.23 0 .617-.131.42-.142.643-.142.12 0 .184.04.184.116.184.393 0 1.016-.517 1.727-.166.166-.25.461h.638q.166-.055.074-.277.018-.24.222-.304 0-.84.738-1.663.517.287.527.887 0 .23-.093.628l-.11.305q-.102.12-.185.452h.61q.11-.046.138-.101l-.092-.296q-.047-.13.129-.23-.093-.49.12-.74-.434-1.015-.434-1.597.23-.951.295-1.783.111.582.028 1.395-.083.813.277 1.68.07.147.128.147.04 0 .075-.072.093-.527.037-2.91-.074-.295-.157-.452-.295-.452-.508-.47h-2.983q-2.207 0-3.269-.629.176-.314.194-.43.019-.115 0-.281-.443.13-.665.342l-.184-.139q.194-.12.618-.776.425-.655.5-1.025-.032-.062-.074-.062ZM32.618 12.348a24.12 24.12 0 0 0 .925.032l-.065 2.547a3.655 3.655 0 0 1-.97-.575l.11-2.004Zm-7.08-.633h-.029c-.16.03-.375.128-.347.326v1.422c-.316-.017-.64-.032-.737-.036 0 .178.145.423.604.423.005.403.076.896.151 1.148l.002-.001.059.66c0 .073.125.093.262.093.164 0 .345-.029.345-.029l-.028-.663c2.588.02 7.527.151 7.771.151.127 0 .212-.135.212-.324l.065-2.845-1.558-.016-.126 2.219c-1.129.003-3.079.188-4.404.188-.421 0-.78-.018-1.028-.068-.05-.06-.537-.769-.846-.846a1.868 1.868 0 0 0-.188-.02l-.152-1.286c.097-.12.312-.087.37-.252.058-.078.018-.207-.088-.21a1.204 1.204 0 0 0-.31-.034ZM42.364 2.68q.387 0 .717.308.33.308.33.724 0 .387-.28.71-.28.322-.767.322-.459 0-.76-.337-.3-.337-.3-.695 0-.387.3-.71.301-.322.76-.322Zm-1.275 2.91q-.086 0-.1.1 0 .085.1.085.086 0 .1-.086-.014-.1-.1-.1Zm0-.044q.143 0 .143.143 0 .115-.143.158-.086-.014-.172-.086.043-.215.172-.215Zm.37-.154q-.106 0-.227.01.129.073.057.187-.071-.114-.2-.114-.244 0-.244.3.143.1.129.187-.014.086-.043.114.1.1.186.516.058 0 .072-.043-.014-.444.029-.587.129-.258.358-.265h.02q.215 0 .345.15.136.158.093.358-.043.201-.616.445v.028q.889-.229.81-.795-.069-.491-.769-.491Zm.39-.147q.558 0 .63.688.071.688-1.118.917.2.086.33.316.128.229.143.473-.06.018-.115.018-.117 0-.215-.083-.143-.122-.344-.609-.305-.832-.73-.832h-.158q.018-.108.082-.108.037 0 .09.037.032-.065.126-.065.07 0 .175.036-.201-.215-.201-.43l.025.002q.094 0 .133-.102.007.005.02.005.07 0 .302-.12.28-.143.824-.143Zm-5.265 1.178q.083 0 .184.048.322.15.222 1.24-.817-.732-.68-1.061.093-.227.274-.227Zm4.755 1.488q.087 0 .194.071-.373.258-.344 1.305h-.186q-.015-.99.129-1.233.084-.143.207-.143Zm1.326-2.551q.502.014 1.103 1.01.602.996.602 2.917h-.43q-.014-1.52-1.318-1.52v1.52h-.287V7.15q.817-.616.33-1.791Zm-.69 2.758q.035 0 .074.008v1.476h.888V8.126q.031-.006.06-.006.456 0 .456 1.482-.157 3.912-.544 4.916l.33.716h-4.744l.988-.43q-.487-2.135-1.089-3.146-.602-1.01-.272-1.24.082-.057.171-.057.266 0 .589.516l1.977 2.666h.502l.114-3.941q0-1.484.5-1.484Zm.389-5.868q-.674.014-1.082.466-.408.451-.408 1.01 0 .473.215.745.172.287.415.445l-.033-.001q-.23 0-.511.187-.316.215-.287.287-.041-.033-.087-.033-.034 0-.07.018-.087.043-.072.172-.416.143-.416.889.183-.092.266-.092.02 0 .035.006.287 0 .774 1.146-.1.086-.272.33-.172.243-.172.845v.932h.358q-.014.788-.1 3.21l-1.992-2.723q-.416-.341-.658-.341-.083 0-.145.04l-.76-1.519q.53-.258 1.161-.3-.028-.388-.272-.689-.516.387-1.003.588.315-1.448-.337-1.734-.198-.087-.362-.087-.38 0-.584.46-.294.659.925 1.49-.545.258-1.118.258.014.401.286.716.387-.4 1.018-.602l.501 1.749q-.157.057-.2.358-.043.301.537 1.376.58 1.075.939 2.637l-1.046.587.071.674h6.134l-.501-1.232q.43-1.892.444-4.902l.788-.014q0-2.537-.702-3.633-.629-.981-.959-.981-.038 0-.073.014.817-.43.86-1.29 0-.616-.452-1.032-.451-.416-1.053-.43ZM47.451 3.506l2.895 2.546q-.61.942-1.622 1.902-.959-2.268-1.273-4.448Zm-.77-1.256q-.56 0-.433.768.54.261.453.593-.087.331.07 1.098.157.768 1.256 3.646-.334 1.136.387 1.136.032 0 .066-.003 1.954 3.593 4.308 6.262h.419l-.105-1.169q-1.883-1.761-4.029-5.703.628-1.326 1.762-2.32l3.47 3.122q.263.118.441.118.485 0 .345-.868l-3.489-2.982q.014-.793-.66-.793-.157 0-.351.043l-3.14-2.739q-.479-.209-.77-.209Z" style="fill:#000;stroke:none"/><path d="M21.396.375v17.25M21.396.375h2.625M21.396 17.625h2.625M24.021.375h31.1M24.021 17.625h31.1M55.122.375h17.625M55.122 17.625h17.625M56.884.375v17.25M60.41.375v17.25M62.172.375v17.25M63.934 2.1h8.813M63.934 5.55h8.813M63.934 2.1v3.45M65.697 3.825h7.05M63.934 7.275h8.813M63.934 10.725h8.813M63.934 7.275v3.45M65.697 9h7.05M63.934 12.45h8.813M63.934 15.9h8.813M63.934 12.45v3.45M65.697 14.175h7.05" style="fill:none;stroke:#000;stroke-width:1"/></svg>