<svg xmlns="http://www.w3.org/2000/svg" width="39.581" height="18"><path d="M2.075 1.124q2.015.293 2.106 1.842v11.177Q3.24 13.019.8 12.563l1.275-11.44zM1.508 0L0 13.363q3.361.385 4.181 2.4V18h1.002V2.966Q5.183.456 1.508 0zM9.239 0L7.183 2.43h1.003l1.053-1.256 1.063 1.256 1.032-1.256 1.063 1.256 1.053-1.256 1.063 1.256 1.053-1.256L16.63 2.43l1.033-1.256 1.063 1.256 1.063-1.256L20.82 2.43l1.063-1.256 1.053 1.256h1.002L21.884 0 20.82 1.174 19.788 0l-1.063 1.174L17.662 0l-1.033 1.174L15.566 0l-1.053 1.174L13.45 0l-1.053 1.174L11.334 0l-1.032 1.174L9.239 0zM17.444 10.28l-.064 7.024-3.701.063-.032-7.055 3.797-.032zm.632-.6l-5.03.03.032 8.29 4.903-.095.095-8.226zM34.32 5.187a.053.053 0 01.016.003c-.062.1-.037.156.074.168.137-.037.162-.093.075-.168l.261.112a1.058 1.058 0 01-.336.056.297.297 0 01-.042.003.2.2 0 01-.163-.078c.043-.064.08-.096.114-.096zm.088-.092c-.012 0-.024 0-.035.002-.124.012-.224.093-.298.242a.513.513 0 00.382.15c.13-.013.27-.063.42-.15h.243v-.074h-.243c-.192-.113-.348-.17-.468-.17zm1.185.05c.023 0 .047.003.07.013.018.007.032.02.042.036a.442.442 0 01-.1.173.561.561 0 01-.178.14.093.093 0 01-.032.01c-.02 0-.009-.025.032-.075.044-.054.054-.08.029-.08a.096.096 0 00-.029.005.098.098 0 01-.03.006c-.027 0-.027-.027.003-.08.02-.038.043-.075.067-.11a.253.253 0 01.126-.039zm-.305.362c.062.038.074.072.037.103-.017.014-.032.021-.045.021-.016 0-.029-.01-.04-.03-.018-.038-.002-.069.048-.094zm3.45-4.115l-2.84 4.79c-.113-.087-.239-.164-.328-.278.02-.079.097-.125.147-.185.119-.128.269-.251.303-.432.025-.152-.051-.303-.157-.407a.348.348 0 00-.249-.096.436.436 0 00-.158.03c-.035.007-.07.038-.103.038-.213-.17-.549-.278-.816-.311h-.008c-.042 0-.016-.058-.023-.089.003-.423.052-.83.028-1.252l2.623.325 1.581-2.133zm-4.995 4.766a.196.196 0 00.014.058c.025.063.038.14.038.234 0 .093.059.149.177.167.05.008.107.012.168.012.081 0 .171-.007.27-.02.059.243.027.365-.094.365-.008 0-.017 0-.027-.002a.62.62 0 00-.08-.005c-.146 0-.359.043-.62.164l-2.173 1.59c.301-.703.564-1.301.777-1.79.339-.113.663-.281.99-.33.13-.02.068-.256.094-.402.033 0 .294-.026.466-.04zm.593-1.333c.361.037.7.195.987.412-.04.079-.046.138-.017.177-.075.037-.121.084-.14.14-.018.056.006.1.075.13.014.007.028.01.045.01a.203.203 0 00.09-.025c-.076.164-.148.332-.03.45l.24.247c.037.224.14.41.308.56.168.149.457.317.868.503-.647 1.095-.97 1.885-.97 2.37l.077.402c.069.369.162.903.184 1.203a.595.595 0 01-.075.354c-.115.189-.707.281-1.77.281H34c-.561.056-1.176.085-1.843.085-.5 0-1.03-.016-1.59-.048.136-.41.852-.69 2.146-.84 1.28 0 1.921-.38 1.921-1.138 0-.523-.28-1.363-.84-2.52.722-.199 1.02-.416.896-.652.05-.349-.037-.535-.26-.56a.89.89 0 01-.09.004c-.194 0-.307-.076-.34-.228.187-.075.255-.137.205-.187-.05-.05-.137-.08-.261-.093.087-.087.056-.168-.093-.243l.336-.522a.363.363 0 01.223-.066c.142 0 .322.053.542.159.124-.012.09-.065-.103-.159a1.15 1.15 0 00-.57-.12.924.924 0 01.057-.086zM35.032 0h-.016a.607.607 0 00-.505.298c-.141.253-.134.562-.05.832.117.41.405.743.71 1.03.326.302.657.603.98.907-.003.014-.013.019-.027.019-.017 0-.039-.008-.05-.01l-1.906-.236c.126 1.225.043 1.82-.653 2.723-.048.156-.032.234.046.234h.01a.502.502 0 01.036-.002c.068 0 .118.016.15.048-.041.031-.063.064-.066.1l-.461-.002c-.351.013-.742.17-1.13.471-.98.84-1.45 1.828-1.438 2.944 0 .151.086.218.245.218a.728.728 0 00.085-.006c.72-.314 2.196-.916 2.698-1.202.281.481.422 1.233.422 2.254l-.784.15c-1.89.186-2.985.484-3.284.895-.41.236-.715 1.064-.914 2.482-.299 1.493-.859 2.27-1.68 2.332l-1.38.523-.131.242c.1.087.193.131.28.131l2.538-.13c.174-.573.519-1.285 1.035-2.137.516-.852.719-1.608.607-2.267.236.846.454 1.94.653 3.284.037.323-.355.616-1.176.877-.373.025-.56.143-.56.354l1.922-.074c.423 0 .635-.168.635-.504-.137-.299-.153-.908-.047-1.829.106-.92-.01-1.667-.345-2.24l3.284-.13c1.07 0 1.605-.273 1.605-.82l-.094-1.83c0-.696.187-1.293.56-1.79l.392 1.66-.56 2.575a1.85 1.85 0 00-.233.495 2.501 2.501 0 00-.084.42c0 .1.028.233.084.4.056.168.09.327.103.476.025.038.05.063.074.075.005.003.01.004.015.004.017 0 .031-.02.041-.06.029.028.052.043.07.043.021 0 .035-.02.042-.062.029.029.052.043.07.043.021 0 .036-.02.042-.061.02.02.04.03.06.03.005 0 .01 0 .015-.002.025-.006.037-.04.037-.103a11.524 11.524 0 01-.14-.476c-.03-.118-.034-.295-.009-.532.012-.062.025-.093.037-.093.025 0 .05.019.075.056 0 .062-.006.15-.019.262a.475.475 0 00.028.26c.02.04.043.059.07.059a.089.089 0 00.051-.021c.038-.012.047-.068.029-.168-.02-.1-.007-.243.037-.43.043-.186-.003-.385-.14-.596.572-.759.865-1.717.877-2.874-.062-.82-.224-1.511-.485-2.071a2.662 2.662 0 00-1.306-.69.776.776 0 01-.136-.145L39.58.523a.436.436 0 00-.344-.252c-.012-.001-.026-.004-.039-.004-.015 0-.028.004-.034.024-.69.934-1.375 1.87-2.066 2.802-.041.05-.1.098-.167.098a.142.142 0 01-.032-.003c-.154-.036-.281-.138-.408-.227-.433-.328-.822-.706-1.21-1.084-.109-.11-.226-.212-.327-.33-.183-.251-.324-.558-.282-.876.017-.14.06-.304.2-.368a.462.462 0 01.312-.002c.123.043.175.216.089.317-.028.03-.064.082-.11.082l-.016-.002c-.05-.033-.049-.105-.083-.151-.02-.037-.059-.077-.101-.077a.07.07 0 00-.038.012c-.079.031-.096.13-.079.204.014.109.083.217.193.246.041.01.085.015.13.015a.35.35 0 00.274-.11.544.544 0 00.101-.5.509.509 0 00-.366-.317.535.535 0 00-.146-.02zm-8.303 17.976V18h.047c-.013-.01-.034-.013-.047-.024z"/></svg>