<svg xmlns="http://www.w3.org/2000/svg" width="13.667" height="18"><path d="M2.438 3.383q-.542 0-.628.418v.025q.061.11.258.11.567-.245.567-.455v-.024q0-.05-.197-.074zm1.97-.763q-.086.48-.85 1.034l.271.11.37-.135.184.123q1.416.677 3.755.714l3.67.037.049-.001q.627 0 .61.919-.02.954-.647 1.914-.394 0-.8-.302-.407-.301-.665-.708-.259-.406-.665-1.058.123 1.292.738 2.031-.75 0-1.335.142-.293.07-.488.07-.196 0-.294-.07-.123-.088-.61-.088-.295 0-.726.032-.332.025-.607.025-.668 0-1-.148-.308-.258-.388-.905-.08-.646.363-1.791-.91.652-.91 1.982v.443q-.456-.468-.715-1.034Q3.213 4.7 2.34 4.7q-.332 0-1.28.419-.32-.136-.259-.431l.616-.825q.443-.751.64-.837.099-.185.96-.185.37.099.37.271 0 .234-.246.468.467-.099.677-.554 0-.111.59-.406zM4.938 0q-.06 0-.136.096-.936 1.49-1.7 2.068-.295.259-.8.27-.246 0-.75-.369Q.8 1.34.504.835.172.242.074.181q-.05 0-.074.123 0 .702 1.428 2.598-.27.394-.505.898-.234.505-.554.77-.32.265.062.523 0 .32.53.517.43-.123 1.317-.381.53 0 .726.443.653.985.653 2.056.074 1.428-.985 2.733-.333.222-.333.616 0 .16.407.16.664 0 .664-.16l-.049-.332q0-.173.259-.259v-.025q0-.234.837-2.351.382 0 .603.37.283.935.283 1.55 0 .136-.172.58-.21.16-.258.578h.985l-.074-.308q-.05-.185.135-.32l-.086-.456q-.16-1.736-.16-2.043v-.025q.973-.234 1.496-.234t.806.19q.113.077.316.077.307 0 .823-.175.559-.189.858-.189.159 0 .244.054.246.154.246.523 0 1.354-.69 2.302-.22.222-.332.616h.85q.222-.074.098-.37.025-.32.296-.406 0-1.12.985-2.216.69.382.702 1.182 0 .308-.123.837l-.148.407q-.136.16-.246.603h.812q.148-.062.185-.135l-.123-.394q-.062-.173.172-.308-.123-.653.16-.985-.579-1.354-.579-2.13.308-1.268.394-2.376.148.775.037 1.859-.11 1.083.37 2.24.094.196.17.196.055 0 .1-.097.124-.702.05-3.878-.099-.394-.21-.604-.393-.603-.677-.628H8.78q-2.943 0-4.359-.837.234-.418.259-.572.024-.154 0-.376-.591.173-.887.456l-.246-.185q.258-.16.825-1.034.566-.874.665-1.367Q4.994 0 4.938 0zM11.463 13.464c.65.028 1.007.042 1.16.042h.07l-.084 3.397a4.983 4.983 0 01-1.292-.769l.146-2.67zm-9.476-.845c-.217.042-.504.174-.469.433v1.894a36.22 36.22 0 00-.978-.042c0 .238.196.56.804.56.007.537.104 1.194.202 1.53l.084.88c0 .098.168.126.35.126.216 0 .454-.042.454-.042l-.035-.88c3.452.027 10.036.202 10.364.202.168 0 .28-.182.28-.433l.084-3.795-2.076-.021-.168 2.956c-1.502.007-4.102.252-5.87.252-.56 0-1.042-.021-1.37-.091-.07-.077-.72-1.02-1.132-1.125a1.813 1.813 0 00-.245-.028c-.07-.573-.14-1.146-.203-1.712.126-.161.413-.12.49-.336.077-.105.028-.28-.12-.286-.083-.035-.314-.042-.412-.042z"/></svg>