<svg xmlns="http://www.w3.org/2000/svg" width="25.566" height="18"><path d="M4.983.885q3.633.442 0 6.73-3.632-6.288 0-6.73zm0-.885q-5.03.35-.698 8.08H0v1.095h4.238V18h1.444V9.128h4.284V8.08H5.682Q10.012.326 4.983 0zM15.26 2.582c.244 1.79.505 3.625.688 5.418.13 1.27.208 2.461.269 3.413.062.951.092 1.67.06 2.005-.068.7-.253 1.107-.45 1.318a.75.75 0 01-.568.24.72.72 0 01-.569-.24c-.2-.21-.411-.617-.479-1.318-.032-.334-.001-1.054.06-2.005.062-.952.17-2.144.3-3.413.183-1.794.443-3.628.688-5.418zM15.235 0a.287.287 0 00-.067.008.287.287 0 00-.09.06.287.287 0 00-.06.06.287.287 0 00-.06.12c-.003.025.005.063 0 .09a156.91 156.91 0 00-.957 7.603 96.489 96.489 0 00-.3 3.412c-.062.962-.1 1.7-.06 2.125.076.788.316 1.319.63 1.647.312.328.682.449.987.449.289 0 .683-.122.988-.45.305-.326.523-.858.599-1.646.04-.425.032-1.163-.03-2.125a96.489 96.489 0 00-.3-3.412A155.7 155.7 0 0015.53.337c-.004-.026.004-.064 0-.09a.287.287 0 00-.15-.21.287.287 0 00-.143-.037zm-2.7 14.496c.06.034.157.035.209.09.124.133.221.322.299.569.078.247.15.545.21.808s.11.505.239.718c.087.144.218.238.36.33.14.091.3.165.478.24.24.099.493.135.749.179h-2.545v-2.934zm5.806 0v2.934h-2.544c.255-.044.508-.08.748-.18.178-.074.368-.148.51-.24a.974.974 0 00.328-.329c.129-.213.18-.455.24-.718.06-.263.131-.561.21-.808.078-.247.175-.436.299-.57.051-.054.148-.055.21-.089zm-6.151-.692a.287.287 0 00-.045.004.287.287 0 00-.09.06.287.287 0 00-.09.18v3.681a.287.287 0 000 .06.287.287 0 00.27.21h6.406a.288.288 0 00.06 0 .287.287 0 00.21-.27v-3.652a.287.287 0 00-.03-.12.287.287 0 00-.06-.09.287.287 0 00-.18-.06c-.385 0-.712.158-.928.39-.216.231-.358.519-.45.808-.09.289-.122.556-.179.808-.057.252-.126.48-.18.569a1.001 1.001 0 01-.18.15c-.101.066-.237.116-.388.18-.302.125-.665.209-.898.209-.233 0-.596-.084-.898-.21-.151-.063-.287-.113-.39-.18a1.001 1.001 0 01-.179-.149c-.054-.089-.093-.317-.15-.569a9.742 9.742 0 00-.21-.808 2.108 2.108 0 00-.448-.808 1.261 1.261 0 00-.928-.39.287.287 0 00-.045-.003zM23.234 0Q20.91 0 20.91 2.232V18h1.071V2.232q0-1.16 1.252-1.16 1.261 0 1.261 1.16v10.492h1.071V2.232Q25.566 0 23.234 0z"/></svg>