<svg xmlns="http://www.w3.org/2000/svg" width="8.675" height="18"><path d="M2.363.73v15.438L.77 13.795V.731zM0 0v14.016L2.653 18c.06-.02.11-.02.16-.02.07 0 .12.01.16.01.02 0 .04 0 .05-.02V0zM6.983 11.716c.524.673.853 1.324.987 1.952a4.555 4.555 0 010 1.908c-.134.643-.508 1.167-1.122 1.571-.613-.404-.987-.928-1.122-1.57a4.555 4.555 0 010-1.909c.135-.628.464-1.279.988-1.952zM6.848 0c-.523 0-.785.284-.785.853L6.354 11.2c-.718.912-1.144 1.709-1.279 2.39-.134.68-.086 1.455.146 2.323.232.868.774 1.563 1.627 2.087.853-.524 1.392-1.22 1.616-2.087.225-.868.27-1.642.135-2.323s-.554-1.478-1.257-2.39L7.612.853C7.611.284 7.356 0 6.847 0z"/></svg>