<svg xmlns="http://www.w3.org/2000/svg" width="20.956" height="18"><path d="M9.62 8.704c.336 0 .751.06 1.244.18 1.041.253 1.942.612 2.701 1.076.76.464 1.611 1.048 2.554 1.752-.908.459-1.95.689-3.13.689-.265 0-.537-.012-.816-.035-1.52-.127-2.825-.574-3.915-1.34-1.09-.767-1.36-1.238-.812-1.414.548-.176.995-.404 1.34-.686.181-.148.459-.222.833-.222zm7.258 3.176l.865.19c0 .225-.204.408-.611.549-.233.016-.475.024-.727.024-.42 0-.867-.022-1.341-.066.914-.113 1.519-.345 1.814-.697zm1.33.317l.527.105c.057.17-.14.338-.59.507l-.613-.042c.437-.197.662-.387.676-.57zm.802.211l.358.084c-.084.24-.337.36-.76.36.24-.156.373-.303.402-.444zm.59.211c.338.098.563.26.676.485l-.95-.21c.183-.085.274-.177.274-.275zm-2.194 1.245c1.055.127 1.85.422 2.384.886l-2.616-.612c.028-.154.105-.246.232-.274zM5.188.401c.661 0 1.16.183 1.498.549.338.365.443 1.248.317 2.648-.127 1.4-.17 2.35-.127 2.849.042.5.172.868.39 1.108.218.239.482.474.792.706.31.233.154.44-.465.623s-.963.454-1.034.812c-.07.36.018.69.264.992.246.303.834.71 1.762 1.224.929.514 1.748.84 2.459.981.71.141 2.887.211 6.53.211 1.126.211 1.872.493 2.237.844l-2.405-.548a.943.943 0 00-.528.4c0 .366-.795.577-2.384.634-.24 0-.401-.33-.486-.992l-.253.211c.127.535.162 1.006.106 1.414a1.582 1.582 0 00-1.034-.95c-.788-.14-1.491-.27-2.11-.39-.62-.12-1.246-.376-1.879-.77-.562-.436-1.466-.908-2.711-1.414-1.245-.507-1.868-1.26-1.868-2.258 0-.999.334-1.825 1.003-2.48.668-.654 1.002-1.438 1.002-2.352 0-.45-.056-.876-.169-1.277-.102-.363-.405-.544-.91-.544a2.39 2.39 0 00-.166.006l-1.773.232a1.71 1.71 0 01.254-.507c.14-.436.295-.689.464-.76.024.087.12.13.284.13.023 0 .048 0 .075-.003.281-.014.443-.154.485-.422-.028-.267-.19-.408-.485-.422-.254.014-.394.155-.422.422-.226.211-.401.458-.528.739-.04.02-.08.03-.12.03-.068 0-.134-.03-.197-.093.17-.338.415-.686.74-1.045.323-.359.787-.538 1.392-.538zm4.79 13.758l.675.17-.76 1.097.085-1.267zm1.308.233c.563 0 1.038.06 1.425.179.387.12.626.573.717 1.361.09.774-.027 1.161-.352 1.161H11.033a1.842 1.842 0 00-.136-.005c-.345 0-.73.093-1.151.279.112-.985.626-1.977 1.54-2.975zM5.188 0C4.23 0 3.443.535 2.824 1.604c-.21.351-.837.703-1.878 1.055-.717.21-1.027.506-.928.886l.02.253c1.337-.126 2.456-.288 3.356-.485l1.646-.295a.89.89 0 01.025 0c.49 0 .731.414.724 1.245-.007.844-.362 1.6-1.065 2.268C4.02 7.2 3.66 8.166 3.647 9.433c0 1.027.49 1.762 1.467 2.205.978.443 1.924.918 2.838 1.424.915.507 1.435.9 1.562 1.182-.07 1.491-.254 2.455-.549 2.89-.492 0-1.35-.07-2.574-.21-.38.056-.64.18-.781.37-.14.189-.113.397.084.622.094-.136.184-.204.27-.204.03 0 .06.008.089.024.113.064.394.095.844.095h2.068c.102-.02.198-.03.289-.03.236 0 .435.067.597.199a.988.988 0 00.507-.169c.62.018 1.14.027 1.559.027.557 0 .934-.016 1.131-.048.345-.056.658-.105.94-.148l.717.232.024.001c.16 0 .181-.14.06-.423-.619-.337-.76-1.188-.422-2.553.12.003.234.004.345.004 1.113 0 1.842-.128 2.187-.384 1.407.253 2.554.5 3.44.739l.148-.253c-.366-.408-.64-.669-.823-.781l.928.19c.15.056.254.084.312.084.116 0 .047-.112-.206-.337-.057-.155-.464-.458-1.224-.908l1.287.253c.14-.9-.837-1.54-2.933-1.92a7.14 7.14 0 01-2.975-1.477c-1.168-1.027-2.934-1.78-5.297-2.258-1.252-.084-1.949-.468-2.09-1.15-.14-.682-.136-1.77.011-3.26.148-1.491-.06-2.462-.622-2.912C6.433.183 5.877 0 5.188 0z"/><path d="M15.54 2.697c-.579.046-.899.335-.96.869.076.579.396.884.96.914.564-.03.861-.335.892-.914-.046-.534-.343-.823-.892-.869zm.069-1.92c.411 0 .792.076 1.143.229a3.014 3.014 0 011.554 1.543c.152.342.228.704.228 1.085 0 .396-.076.766-.228 1.109a2.91 2.91 0 01-2.697 1.726 3.05 3.05 0 01-1.155-.218 2.75 2.75 0 01-.925-.605 2.97 2.97 0 01-.617-.903 2.698 2.698 0 01-.229-1.109c0-.38.076-.743.229-1.085a3.12 3.12 0 01.617-.915c.259-.266.567-.476.925-.628A2.917 2.917 0 0115.61.777zM15.563 0c-.503 0-.975.095-1.417.286-.442.19-.823.45-1.143.777-.32.327-.575.708-.766 1.143a3.46 3.46 0 00-.285 1.405c0 .503.095.972.285 1.406.19.434.446.812.766 1.132a3.627 3.627 0 002.56 1.051 3.46 3.46 0 001.406-.286c.434-.19.815-.445 1.143-.765.327-.32.586-.698.777-1.132a3.46 3.46 0 00.285-1.406 3.46 3.46 0 00-.285-1.405 3.704 3.704 0 00-1.92-1.92A3.46 3.46 0 0015.563 0z"/></svg>