<svg xmlns="http://www.w3.org/2000/svg" width="39.678" height="18"><path d="M1.647 0c-.335 0-.67.026-.995.066C.205.18.435.692.832.692A.476.476 0 0 0 .914.684c.84.097 1.872.15 2.506.626.841.916.463 2.821.561 3.725.007.05.01 3.653.01 5.48a6.145 6.145 0 0 0-2.635-.586 6.04 6.04 0 0 0-1.187.117c-.441.231.076.528.422.528.041 0 .08-.004.115-.013 1.226.133 2.62.461 3.243 1.602.061.206.023.277-.071.277-.206 0-.68-.342-.946-.342-.014 0-.028 0-.04.003a7.535 7.535 0 0 0-1.58-.169c-.39 0-.777.031-1.15.095-.42.278.097.534.439.534a.532.532 0 0 0 .105-.01c1.251.151 2.636.49 3.243 1.633.007 1.27 0 2.11.033 3.278-.014.36.22.538.456.538.235 0 .473-.176.475-.526-.009-1.15-.091-2.161.06-3.277.304-1.253 2.477-1.445 3.827-1.754.294-.347-.285-.475-.659-.475-.055 0-.107.003-.15.008a6.823 6.823 0 0 0-.521-.02c-.882 0-1.771.175-2.557.58-.032-.755.711-1.19 1.244-1.493.84-.361 1.765-.397 2.643-.59.313-.273-.18-.501-.521-.501a.58.58 0 0 0-.125.012 6.767 6.767 0 0 0-.648-.031c-.903 0-1.805.183-2.614.582.016-2.851.062-5.61-.02-8.308-.065-.834-.546-1.6-1.354-1.849C2.938.094 2.291 0 1.647 0ZM10.945 0c0 1.853-.294 4.725.59 6.34 1.621 2.966 6.553 2.63 7.828-.487.575-1.404.362-4.256.362-5.853h-.731l-.002 1.2-.918-.458-.918.459-.917-.46-.918.46-.918-.46-.917.46-.918-.46-.918.46L11.677 0h-.732m.705 2.118.918-.459.918.46.917-.46.918.46.918-.46.917.46.918-.46.918.46-.021 2.027c-.353 4.697-7.08 4.695-7.285 0l-.036-2.028ZM15.33 14.172c1.074 0 2.419.552 3.07 1.202.568.57.643 1.324.664 2.025h-7.435c.02-.701.095-1.456.664-2.025.65-.65 1.963-1.202 3.037-1.202Zm0-.601c-1.274 0-2.645.588-3.448 1.392-.824.824-.918 1.909-.918 2.72V18h8.732v-.316c0-.812-.061-1.897-.886-2.721-.803-.804-2.206-1.392-3.48-1.392ZM24.165.678q-.486 0-.486.369 0 .31.486.31.472 0 .472-.31 0-.369-.472-.369Zm.37-.206q1.12 0 1.68.722.28.458.546 1.401-.015.221-.369.295-.354.074-.693.074-1.563-.575-2.418-1.99.059-.502 1.253-.502Zm2.668 2.212q.28.206 1.187.752.907.545 2.831 2.263 1.925 1.718 2.912 2.02.988.303 2.323.362 1.334.059 2.013.31 0 .206-.428.324-3.701-.428-5.434-.797-1.732-.368-2.558-.626-.826-.258-2.109-.98-1.283-.723-2.05-1.402-.766-.678-1.002-1.061-.236-.384.582-.406.819-.022 1.328-.236.508-.214.405-.523Zm11.31 5.78.118.118q0 .118-.148.162l-.28-.015q.31-.132.31-.265Zm.192.177.118.147-.222-.014q.089-.074.104-.133ZM23.119 1.047q1.002 1.43 2.344 2.005-.17-.009-.321-.009-1.082 0-1.094.466 0 .738 2.514 2.537t5.92 2.33q1.475.191 1.651.575.03.28-1.4.353h-2.374q-.236-.516-.87-.943l.132.368q-2.359-1.356-4.136-3-1.777-1.644-1.791-2.854 0-.575-.575-1.445 0-.132-.797-.25v-.03l.797-.103Zm11.56 7.77 4.085.723q-.428.177-.598.634-.17.458.037 1.106l-4.232-1.666q.06-.015.28-.125.222-.11.391-.303.17-.191.037-.368Zm-6.414-.28q1.592 1.062 1.563 1.387-.236.767-1.15 1.946-.487 0-.922-.103-.234-.056-.488-.056-.217 0-.448.041 1.518-2.153 1.518-2.241 0-.575-.088-.973ZM24.519 0q-.781 0-1.172.214-.39.214-.42.568-1.165.162-1.165.235v.295q.03.074.973.354.502.664.502 1.21 0 1.032.752 2.034.752 1.003 3.229 3.289.221 0 .457 1.312l-1.386 2.123q-.177.118-.472.133-.487-.162-1.548-.162-.337.103-.598.103-.185 0-.331-.052-.287-.101-.766-.101-.113 0-.237.006-.501.235-.088.648l7.372.015-.236-.354q.458-.752 1.18-2.064h2.654l5.751 2.226.059-.206q-.62-.62-.516-1.4.221-.635 1.165-.841v-.207l-2.36-.427v-.015l2.212.147q0-.059-.376-.752-.376-.693-1.585-.693-1.976-.059-2.912-.191-.936-.133-3.576-2.551-2.64-2.419-3.775-2.684Q26.761 0 24.52 0ZM30.72 14.56c.965 0 2.172.497 2.757 1.08.511.512.578 1.19.597 1.82h-6.68c.02-.63.086-1.308.597-1.82.585-.583 1.764-1.08 2.729-1.08Zm0-.54c-1.145 0-2.376.53-3.098 1.251-.74.74-.824 1.715-.824 2.445V18h7.844v-.284c0-.73-.055-1.704-.796-2.445-.721-.721-1.981-1.25-3.126-1.25Z" style="fill:#000;stroke:none"/></svg>