<svg xmlns="http://www.w3.org/2000/svg" width="75.598" height="18"><path d="M11.386 8.203c-.51.04-.793.296-.847.767.067.51.35.78.847.806.498-.026.76-.295.787-.806-.04-.47-.303-.726-.787-.767zm.06-1.694c.364 0 .7.068 1.01.202a2.659 2.659 0 011.371 1.361c.134.303.201.622.201.958 0 .35-.067.676-.202.978a2.567 2.567 0 01-2.38 1.523c-.362 0-.702-.064-1.018-.192a2.426 2.426 0 01-.816-.534 2.621 2.621 0 01-.545-.797 2.38 2.38 0 01-.202-.978c0-.336.068-.655.202-.958.134-.302.316-.571.545-.806.228-.236.5-.42.816-.555a2.574 2.574 0 011.019-.202zm-.04-.685c-.443 0-.86.084-1.25.252-.39.168-.726.396-1.008.685a3.36 3.36 0 00-.676 1.009 3.053 3.053 0 00-.252 1.24c0 .444.084.857.252 1.24.168.384.393.716.676.999a3.2 3.2 0 002.258.927c.444 0 .857-.084 1.24-.252a3.36 3.36 0 001.009-.675c.289-.283.518-.615.686-.999.168-.383.252-.796.252-1.24 0-.444-.084-.857-.252-1.24a3.268 3.268 0 00-1.694-1.694 3.053 3.053 0 00-1.24-.252zM20.146 2.25c-.09 0-.095.283-.224.701-.146.476-.254 1.472-.591 1.665a.298.298 0 01-.153.039c-.1 0-.202-.038-.313-.038a.409.409 0 00-.127.02c-.158.05-.242.297-.408.326-.692.12-1.637.075-2.166.123-.34.03.567.698 1.473.698h.039c.188-.005.387-.013.584-.013.33 0 .658.024.928.135.264.109.575.425.572.735l-.11 9.109h1.019l-.052-10.289c-.002-.276.795-.464.9-.702.181-.415.088-2.247-.205-2.493a.016.016 0 00-.01-.004c-.132 0-.378 1.92-.766 2.333-.04.043-.118.062-.185.062-.073 0-.133-.022-.121-.062.246-.838.345-2.061-.041-2.329a.077.077 0 00-.043-.016zM29.007 2.523q.128 0 .21.155.126.201-.19.34-.303.152-.202.518l.29 1.249q-.302.038-.53.303V3.523q0-.795.215-.921.116-.08.207-.08zm-.712 2.834v.47l-1.035-.108q.026-.127.392-.26.266-.096.643-.102zm.453.029q.455.094.683.56l-.82-.086v-.18q0-.088.113-.264l.024-.03zm1.35.522q-.068 0-.2.227.328-.114.24-.202-.016-.025-.04-.025zm-2.9.656q-.038.076-.032.12.006.044.07.07-.076 0-.14-.039.013-.075.101-.151zm.113-.025q.114.012.202.063-.05.088-.164.151.05-.063.044-.126-.006-.063-.082-.088zm-.05-.05q-.177 0-.24.264.113.076.277.076.164 0 .278-.19h.303v-.1l-.303.025q-.139-.076-.316-.076zm-3.041-.341q.757 0 0 1.4-.758-1.4 0-1.4zm5.893-.32q.049 0 .088.042.138.164-.24.34.391.594.404 1.414l-.101.012q0-.832-.328-1.375l-.026.013q.24.53.253 1.754l-.114.012q-.076-1.224-.139-1.514l-.113-.416q.19-.282.316-.282zm-2.678.392q.123 0 .23.035.252.082.252.347h.176q.038-.24.152-.24.113 0 .038.24l-.354.555v1.186l-.038.013q-.05-.089-.12-.227-.069-.14-.094-.366h-.379q-.214 0-.214-.101 0-.19.202-.215 0-.1-.063-.1l-.253-.013q.076-.177-.151-.227 0-.101.202-.455v-.214l.038.05q.164-.075.252-.088.1 0 .303.088h.227V6.4h-.227q-.177-.114-.303-.114-.139 0-.29.114 0-.101.038-.114.205-.066.376-.066zm-.275-.312l1.135.121v.106h.316v-.072l.908.097q.013.063.126.417.164.492.14 3.47l-1.59.012V7.195q.088-.126.226-.353.14-.228.133-.486-.005-.217-.21-.217-.04 0-.087.009-.202 0-.252.252-.013-.202-.227-.297-.098-.043-.253-.043-.185 0-.454.062.013-.126.089-.214zm-2.957 4.069q.507 0 .61.347h-.48q-.391-.038-.391-.328.142-.02.261-.02zm3.726-1.091v1.438h1.363q-.013.782-.145 1.88-.133 1.098-.334 1.861-.202.764.265 1.243h-3.723q.126-.138.17-.467.045-.328-.283-1.11l-.947-2.864q.008-.418.225-.418.136 0 .356.165l1.287 1.906.48.605q.125.089.224.089.196 0 .28-.354.454-1.034.34-2.536-.441-.467.442-1.438zM29.02 2.25q-.17 0-.384.137-.34.227-.34 1.338v1.372q-.35.018-.594.073-.366.082-.6.353-.233.271-.233.75-.05.203-.012.38-.215.378-.215.517 0 .075.19.075l-.038.114q.025.063.075.076-.038.05-.025.113l.088.038q-.075.34.29.34h.266q.025.24.29.644-.013.025-.246.316-.234.29-.46.7-.228.41.1.801.088 1.275-.391 2.36l-1.666-2.423q-.185-.606-.65-.606h-.018V7.952h.896v-.303h-.896q.908-1.754-.227-1.754-1.124 0-.228 1.754h-.883v.303h.87v1.766q-.706 0-.138.896 1.337 4.013 1.3 4.278-.038.278-.373.48-.334.201-.17.378h5.022q.252-.114 0-.353-.669-.795-.429-1.527.24-.732.416-3.546h.467v-.833q0-.757-.012-1.3.1-.012.227-.062l-.025-.379.227-.013q0-.933-.404-1.476.442-.177.202-.454-.094-.113-.195-.113-.158 0-.335.277-.329-.622-.733-.806.17-.095.405-.166l-.353-1.501q-.051-.177.214-.341.353-.252.139-.606-.158-.301-.411-.301zM44.285 7.888q-.301.3-.301 1.104 0 .82.301 1.12h-9.936q.301-.3.301-1.12 0-.803-.3-1.104zm-11.86-.62q-.434 0-.418.285-.016.335.419.335h1.087q.401.3.401 1.104 0 .82-.401 1.12h-1.07q-.452 0-.452.285 0 .334.435.334h13.783q.418 0 .418-.334 0-.285-.435-.285h-1.07q-.402-.3-.402-1.12 0-.803.401-1.104h1.088q.418 0 .418-.335 0-.284-.418-.284zM49.683 3.093q1.511.22 1.58 1.382v8.382q-.706-.843-2.536-1.184l.956-8.58zm-.425-.843l-1.131 10.022q2.52.289 3.136 1.8v1.678h.751V4.475q0-1.883-2.756-2.225zM66.897 4.03v1.756H53.965V4.03zM54.013 2.25v1.329h-.499v2.657h13.834V3.58h-.403V2.25h-.451v1.329h-1.115V2.25h-.451v1.329h-1.115V2.25h-.451v1.329H62.27V2.25h-.474v1.329h-1.092V2.25h-.45v1.329h-1.116V2.25h-.45v1.329h-1.116V2.25h-.45v1.329H56.03V2.25h-.451v1.329h-1.116V2.25zM55.211 13.744l-1.697 2.006h.828l.87-1.036.877 1.036.852-1.036.878 1.036.87-1.036.877 1.036.87-1.036.877 1.036.853-1.036.877 1.036.878-1.036.853 1.036.877-1.036.87 1.036h.827l-1.697-2.006-.877.97-.853-.97-.878.97-.877-.97-.853.97-.878-.97-.869.97-.878-.97-.869.97-.878-.97-.852.97-.878-.97z"/><path d="M8.22.375c-9.625 0-9.625 17.25 0 17.25M8.22.375h59.128M8.22 17.625h59.128M75.036.375v17.25M67.348.375c9.625 0 9.625 17.25 0 17.25" fill="none" stroke="#000"/></svg>