<svg xmlns="http://www.w3.org/2000/svg" width="81.151" height="18"><path d="M11.386 8.203c-.51.04-.793.296-.847.767.067.51.35.78.847.806.498-.026.76-.295.787-.806-.04-.47-.303-.726-.787-.767zm.06-1.694c.364 0 .7.068 1.01.202a2.659 2.659 0 011.371 1.361c.134.303.201.622.201.958 0 .35-.067.676-.202.978a2.567 2.567 0 01-2.38 1.523c-.362 0-.702-.064-1.018-.192a2.426 2.426 0 01-.816-.534 2.621 2.621 0 01-.545-.797 2.38 2.38 0 01-.202-.978c0-.336.068-.655.202-.958.134-.302.316-.571.545-.806.228-.236.5-.42.816-.555a2.574 2.574 0 011.019-.202zm-.04-.685c-.443 0-.86.084-1.25.252-.39.168-.726.396-1.008.685a3.36 3.36 0 00-.676 1.009 3.053 3.053 0 00-.252 1.24c0 .444.084.857.252 1.24.168.384.393.716.676.999a3.2 3.2 0 002.258.927c.444 0 .857-.084 1.24-.252a3.36 3.36 0 001.009-.675c.289-.283.518-.615.686-.999.168-.383.252-.796.252-1.24 0-.444-.084-.857-.252-1.24a3.268 3.268 0 00-1.694-1.694 3.053 3.053 0 00-1.24-.252zM20.146 2.25c-.09 0-.095.283-.224.701-.146.476-.254 1.472-.591 1.665a.298.298 0 01-.153.039c-.1 0-.202-.038-.313-.038a.409.409 0 00-.127.02c-.158.05-.242.297-.408.326-.692.12-1.637.075-2.166.123-.34.03.567.698 1.473.698h.039c.188-.005.387-.013.584-.013.33 0 .658.024.928.135.264.109.575.425.572.735l-.11 9.109h1.019l-.052-10.289c-.002-.276.795-.464.9-.702.181-.415.088-2.247-.205-2.493a.016.016 0 00-.01-.004c-.132 0-.378 1.92-.766 2.333-.04.043-.118.062-.185.062-.073 0-.133-.022-.121-.062.246-.838.345-2.061-.041-2.329a.077.077 0 00-.043-.016zM28.543 2.94l.1.001h.051q1.868 0 3.561 1.606l-1.048.847q-.98-.936-2.564-.936-1.583 0-2.564.936l-1.048-.847q1.671-1.607 3.512-1.607zm.1 2.164q1.762.023 2.899 1.851h-5.82q.892-1.828 2.921-1.85zm0-2.854q-2.765.111-4.66 2.274l1.583 1.338q-.67.892-.825 1.673h7.782q-.156-.78-.825-1.65l1.472-1.338Q31.408 2.36 28.643 2.25zM23.11 11.352v4.398h.734v-4.398zm5.053.006v4.392h.735v-4.392zm5.145 0v4.392h.735v-4.392zM47.837 7.888q-.3.3-.3 1.104 0 .82.3 1.12h-9.935q.3-.3.3-1.12 0-.803-.3-1.104zm-11.859-.62q-.435 0-.418.285-.017.335.418.335h1.087q.402.3.402 1.104 0 .82-.402 1.12h-1.07q-.452 0-.452.285 0 .334.435.334h13.783q.418 0 .418-.334 0-.285-.435-.285h-1.07q-.402-.3-.402-1.12 0-.803.402-1.104h1.087q.418 0 .418-.335 0-.284-.418-.284zM53.236 3.093q1.51.22 1.58 1.382v8.382q-.707-.843-2.537-1.184l.957-8.58zm-.425-.843l-1.132 10.022q2.521.289 3.136 1.8v1.678h.752V4.475q0-1.883-2.756-2.225zM70.45 4.03v1.756H57.518V4.03zM57.565 2.25v1.329h-.498v2.657H70.9V3.58h-.404V2.25h-.45v1.329H68.93V2.25h-.45v1.329h-1.116V2.25h-.45v1.329h-1.092V2.25h-.475v1.329h-1.091V2.25h-.451v1.329H62.69V2.25h-.45v1.329h-1.116V2.25h-.45v1.329h-1.092V2.25h-.45v1.329h-1.116V2.25zM58.764 13.744l-1.697 2.006h.827l.87-1.036.877 1.036.853-1.036.878 1.036.869-1.036.878 1.036.869-1.036.877 1.036.853-1.036.878 1.036.877-1.036.853 1.036.878-1.036.869 1.036h.828l-1.697-2.006-.878.97-.853-.97-.877.97-.878-.97-.853.97-.877-.97-.87.97-.877-.97-.87.97-.877-.97-.853.97-.877-.97z"/><path d="M8.22.375c-9.625 0-9.625 17.25 0 17.25M8.22.375H70.9M8.22 17.625H70.9M78.588.375v17.25M70.9.375c9.626 0 9.626 17.25 0 17.25" fill="none" stroke="#000"/></svg>