<svg width="52.078" height="18" xmlns:xlink="http://www.w3.org/1999/xlink" xmlns="http://www.w3.org/2000/svg"><defs><pattern xlink:href="#a" id="b" patternTransform="matrix(-.35563 -.37528 -2.93429 2.78064 .271 -.044)"/><pattern patternUnits="userSpaceOnUse" width="4" height="1" patternTransform="scale(10)" id="a"><path d="M0-.5h1v2H0z"/></pattern></defs><path d="M5.869.356l24.687.64s23.529-4.867 20.772 8.817l-20.772-.24v8.579l-24.687-.64s-4.762-3.199-4.725-8.469c0-5.38 4.725-8.687 4.725-8.687z" opacity=".33" fill="url(#b)"/><path d="M11.386 8.203c-.51.04-.793.296-.847.767.067.51.35.78.847.806.498-.026.76-.295.787-.806-.04-.47-.303-.726-.787-.767zm.06-1.694c.364 0 .7.068 1.01.202a2.659 2.659 0 011.371 1.361c.134.303.201.622.201.958 0 .35-.067.676-.202.978a2.567 2.567 0 01-2.38 1.523c-.362 0-.702-.064-1.018-.192a2.426 2.426 0 01-.816-.534 2.621 2.621 0 01-.545-.797 2.38 2.38 0 01-.202-.978c0-.336.068-.655.202-.958.134-.302.316-.571.545-.806.228-.236.5-.42.816-.555a2.574 2.574 0 011.019-.202zm-.04-.685c-.443 0-.86.084-1.25.252-.39.168-.726.396-1.008.685a3.36 3.36 0 00-.676 1.009 3.053 3.053 0 00-.252 1.24c0 .444.084.857.252 1.24.168.384.393.716.676.999a3.2 3.2 0 002.258.927c.444 0 .857-.084 1.24-.252a3.36 3.36 0 001.009-.675c.289-.283.518-.615.686-.999.168-.383.252-.796.252-1.24 0-.444-.084-.857-.252-1.24a3.268 3.268 0 00-1.694-1.694 3.053 3.053 0 00-1.24-.252zM20.146 2.25c-.09 0-.095.283-.224.701-.146.476-.254 1.472-.591 1.665a.298.298 0 01-.153.039c-.1 0-.202-.038-.313-.038a.409.409 0 00-.127.02c-.158.05-.242.297-.408.326-.692.12-1.637.075-2.166.123-.34.03.567.698 1.473.698h.039c.188-.005.387-.013.584-.013.33 0 .658.024.928.135.264.109.575.425.572.735l-.11 9.109h1.019l-.052-10.289c-.002-.276.795-.464.9-.702.181-.415.088-2.247-.205-2.493a.016.016 0 00-.01-.004c-.132 0-.378 1.92-.766 2.333-.04.043-.118.062-.185.062-.073 0-.133-.022-.121-.062.246-.838.345-2.061-.041-2.329a.077.077 0 00-.043-.016zM28.27 2.523q.123 0 .204.155.126.201-.176.34-.316.152-.215.518l.303 1.249q-.316.038-.53.303V3.536q0-.795.214-.934.11-.08.2-.08zm-.704 2.834v.47l-1.035-.108q.025-.127.385-.26.265-.097.65-.102zm.441.028q.465.091.694.56l-.82-.085v-.18q0-.088.101-.264l.025-.031zm1.36.527q-.073 0-.199.223.316-.114.24-.202-.018-.02-.04-.02zm-2.937.008l1.136.116v.108q-.019 0-.038.004-.215 0-.253.252-.025-.202-.233-.297-.095-.043-.248-.043-.184 0-.452.062.012-.126.088-.202zm.139.631q.126 0 .214.05-.05.09-.164.152.05-.063.044-.126-.006-.063-.094-.076zm-.101.013q-.038.076-.032.12.007.044.07.082-.076 0-.152-.038.013-.088.114-.164zm.063-.063q-.19 0-.24.265.101.063.265.063.177 0 .278-.19h.315v-.1l-.315.025q-.126-.063-.303-.063zm2.84-.667q.055 0 .1.049.139.151-.24.328.391.593.404 1.413l-.1.012q0-.82-.342-1.375l-.025.025q.253.53.253 1.754h-.101q-.089-1.224-.152-1.514l-.113-.416q.186-.276.317-.276zm-2.666.386q.124 0 .23.035.252.082.252.347h.164q.038-.227.152-.227.113 0 .05.227l-.353.555v1.186l-.038.013q-.063-.089-.126-.221-.063-.133-.101-.36l-.379-.012q-.202 0-.202-.101 0-.19.19-.215 0-.1-.063-.1l-.253-.013q.076-.164-.151-.227 0-.101.214-.455v-.214l.038.063q.152-.088.252-.088.101 0 .29.075h.228V6.4h-.227q-.164-.114-.29-.114-.14 0-.29.114 0-.101.037-.114.205-.066.376-.066zm1.176-.151l.896.091q.025.063.139.43.164.479.126 3.457l-1.59.012V7.195q.088-.126.227-.353.14-.228.133-.48-.005-.186-.158-.214h.227v-.08zM27.2 8.886v1.45h1.35q-.013.77-.145 1.868-.133 1.098-.335 1.861-.201.764.278 1.243h-3.735q.139-.138.183-.467.044-.328-.297-1.097l-.946-2.865q-.063-.265.158-.41.073-.048.146-.048.146 0 .29.193l1.274 1.906.492.605q.126.089.223.089.193 0 .269-.354.454-1.034.34-2.523-.441-.48.455-1.451zm1.084-6.636q-.17 0-.378.137-.34.227-.34 1.338v1.371q-.36.019-.606.074-.366.082-.593.353-.227.271-.227.75-.063.203-.025.38-.202.378-.202.517 0 .075.176.075l-.025.114q.013.063.076.076-.05.05-.025.113l.088.038q-.088.34.29.34h.253q.025.24.29.657-.013.012-.24.309-.227.297-.454.7-.227.404.088.795.088 1.287-.391 2.36l-1.653-2.423h-.013q-.214-.283-.528-.283-.148 0-.317.062-.53.196-.391.663 1.312 3.874 1.274 4.139-.038.265-.372.466-.334.202-.17.379h5.009q.252-.114 0-.353-.656-.795-.423-1.527.234-.732.41-3.533h.467v-.833q.013-.77 0-1.312.089-.013.215-.063l-.013-.379.227-.013q0-.933-.404-1.476.442-.164.19-.454-.093-.107-.19-.107-.157 0-.328.27-.339-.624-.741-.807.168-.094.4-.164l-.353-1.501q-.037-.177.228-.341.353-.24.138-.606-.165-.301-.417-.301zM32.055 10.977v1.225h2.704v-1.225h-.53c-.154.272-.331.449-.53.53a.76.76 0 01-.59 0c-.195-.081-.37-.258-.524-.53zm1.64-4.458v2.03h-.613v2.483h.662V9.476h.768V7.347h.948c.17 1.324.63 2.308 1.38 2.952.75.643 1.677 1.016 2.78 1.12 1.104.102 1.828.248 2.174.435.346.188.518.377.518.569h1.346c-.205-.493-.481-.868-.827-1.126-.346-.257-.988-.42-1.925-.485-.938-.067-1.689-.19-2.251-.37a3.588 3.588 0 01-1.506-.96c-.442-.46-.78-1.447-1.016-2.963zM32.803 13.634l-1.542 1.823h.752l.79-.942.797.942.774-.942.798.942.79-.942.797.942.79-.942.797.942.774-.942.797.942.798-.942.774.942.797-.942.79.942h.752l-1.542-1.823-.797.881-.774-.88-.798.88-.797-.88-.774.88-.798-.88-.79.88-.797-.88-.79.88-.797-.88-.774.88-.797-.88zM40.941 4.447c-.408.032-.634.237-.677.613.053.409.28.624.677.646.398-.022.608-.237.63-.646-.033-.376-.242-.58-.63-.613zm.049-1.355c.29 0 .559.054.806.161a2.127 2.127 0 011.097 1.089c.108.242.162.498.162.767 0 .28-.054.54-.162.782a2.029 2.029 0 01-1.097 1.065 2.092 2.092 0 01-.806.153c-.29 0-.562-.05-.815-.153a1.94 1.94 0 01-.653-.428 2.097 2.097 0 01-.436-.637 1.905 1.905 0 01-.161-.782c0-.27.053-.525.16-.767.108-.242.254-.457.437-.645.182-.188.4-.336.653-.444.253-.107.524-.161.815-.161zm-.033-.549a2.5 2.5 0 00-1 .202c-.312.135-.58.317-.807.549-.225.23-.406.5-.54.806a2.443 2.443 0 00-.202.993c0 .354.068.685.202.992.134.306.315.572.54.798a2.56 2.56 0 001.807.742c.355 0 .686-.067.993-.201.306-.135.575-.315.806-.54.232-.227.414-.493.549-.8.134-.306.202-.637.202-.991 0-.355-.068-.686-.202-.993a2.615 2.615 0 00-1.355-1.355 2.443 2.443 0 00-.993-.202z"/><path d="M8.22.375c-9.625 0-9.625 17.25 0 17.25M8.22.375h35.608M8.22 17.625h35.608M51.515.375v17.25M43.828.375c9.625 0 9.625 17.25 0 17.25" fill="none" stroke="#000"/></svg>