<svg xmlns="http://www.w3.org/2000/svg" width="41.59" height="18"><path d="M11.386 8.203c-.51.04-.793.296-.847.767.067.51.35.78.847.806.498-.026.76-.295.787-.806-.04-.47-.303-.726-.787-.767zm.06-1.694c.364 0 .7.068 1.01.202a2.659 2.659 0 011.371 1.361c.134.303.201.622.201.958 0 .35-.067.676-.202.978a2.567 2.567 0 01-2.38 1.523c-.362 0-.702-.064-1.018-.192a2.426 2.426 0 01-.816-.534 2.621 2.621 0 01-.545-.797 2.38 2.38 0 01-.202-.978c0-.336.068-.655.202-.958.134-.302.316-.571.545-.806.228-.236.5-.42.816-.555a2.574 2.574 0 011.019-.202zm-.04-.685c-.443 0-.86.084-1.25.252-.39.168-.726.396-1.008.685a3.36 3.36 0 00-.676 1.009 3.053 3.053 0 00-.252 1.24c0 .444.084.857.252 1.24.168.384.393.716.676.999a3.2 3.2 0 002.258.927c.444 0 .857-.084 1.24-.252a3.36 3.36 0 001.009-.675c.289-.283.518-.615.686-.999.168-.383.252-.796.252-1.24 0-.444-.084-.857-.252-1.24a3.268 3.268 0 00-1.694-1.694 3.053 3.053 0 00-1.24-.252zM17.58 11.037c.392.505.639.993.74 1.464.1.472.1.949 0 1.431-.101.483-.382.875-.842 1.178-.46-.303-.74-.695-.841-1.178a3.416 3.416 0 010-1.43c.1-.472.347-.96.74-1.465zm-.102-8.787c-.393 0-.589.213-.589.64l.219 7.76c-.539.684-.859 1.282-.96 1.792-.1.51-.064 1.092.11 1.743.174.65.58 1.172 1.22 1.565.64-.393 1.044-.915 1.212-1.565.168-.651.202-1.232.101-1.743-.1-.51-.415-1.108-.943-1.792l.202-7.76c0-.427-.19-.64-.572-.64zM32.186 7.686q-1.86 2.529-5.354 2.597-3.47-.068-5.33-2.597zm-11.838-.6q1.906 3.812 6.484 3.827 4.602-.015 6.508-3.826z"/><path d="M8.22.375c-9.625 0-9.625 17.25 0 17.25M8.22.375h25.12M8.22 17.625h25.12M41.027.375v17.25M33.34.375c9.625 0 9.625 17.25 0 17.25" fill="none" stroke="#000"/></svg>