<svg xmlns="http://www.w3.org/2000/svg" width="51.48" height="18"><path d="M11.386 8.203c-.51.04-.793.296-.847.767.067.51.35.78.847.806.498-.026.76-.295.787-.806-.04-.47-.303-.726-.787-.767zm.06-1.694c.364 0 .7.068 1.01.202a2.659 2.659 0 011.371 1.361c.134.303.201.622.201.958 0 .35-.067.676-.202.978a2.567 2.567 0 01-2.38 1.523c-.362 0-.702-.064-1.018-.192a2.426 2.426 0 01-.816-.534 2.621 2.621 0 01-.545-.797 2.38 2.38 0 01-.202-.978c0-.336.068-.655.202-.958.134-.302.316-.571.545-.806.228-.236.5-.42.816-.555a2.574 2.574 0 011.019-.202zm-.04-.685c-.443 0-.86.084-1.25.252-.39.168-.726.396-1.008.685a3.36 3.36 0 00-.676 1.009 3.053 3.053 0 00-.252 1.24c0 .444.084.857.252 1.24.168.384.393.716.676.999a3.2 3.2 0 002.258.927c.444 0 .857-.084 1.24-.252a3.36 3.36 0 001.009-.675c.289-.283.518-.615.686-.999.168-.383.252-.796.252-1.24 0-.444-.084-.857-.252-1.24a3.268 3.268 0 00-1.694-1.694 3.053 3.053 0 00-1.24-.252zM22.508 6.554v.779l-5.473.022.834-.801zm-4.751-.284l-1.383 1.367h6.417V6.27zm4.868-3.6c.168.042.314.059.489.062a5.165 5.165 0 00-.284 2.016c.641.301 1.28.397 1.934.397.464 0 .934-.048 1.416-.106-.716 2.224-2.3 3.81-4.018 4.877-.792.491-2.336.922-3.607 1.13l-.07.01c.1-.019.2-.04.303-.064 1.004-.235 2.069-.573 2.696-.882 1.506-.744 2.778-2.44 3.073-3.843a.76.76 0 00-.17-.659c-.15-.175-.367-.299-.619-.388a3.43 3.43 0 00-1.124-.175c-.13 0-.26.006-.389.018.24-.818.399-1.587.37-2.392zm-.336-.42c.12 1.088-.148 2.154-.468 3.185a3.855 3.855 0 011.844.076c.218.077.389.182.488.298a.42.42 0 01.102.394c-.267 1.273-1.51 2.94-2.907 3.63-.582.287-1.644.628-2.63.859-.575.134-1.123.194-1.544.239-.273.051-.893-.022-.899.363.062.186.336.21.554.21.07 0 .133-.003.182-.003.409-.003.977-.05 1.594-.15 1.297-.213 2.846-.631 3.72-1.173 2.078-1.296 3.607-3.156 4.29-5.522a7.537 7.537 0 01-1.585.175 6.277 6.277 0 01-1.903-.29c-.028-.747.172-1.436.43-2.127a2.65 2.65 0 01-.276.015c-.342 0-.644-.07-.992-.179zM26.224 12.802q.223 0 .223.234v1.799h-.681l.224-1.894q.01-.139.234-.139zm.01-.287q-.542 0-.574.309-.224 2.01-.48 2.021l-4.937.181-.51-.02q-.575-.607-1.022-.607l-.33-.022q-.905.17-1.086.17-.127 0-.127.17 0 .235.361.235.622-.1.953-.1.06 0 .112.004.18 0 .298.15-.208.256-.93.256l-.113-.002q-.82-.02-1.448-.212-.308 0-.308.361.032.33 2.309.341l1.011-.106 5.768-.032 1.617.02v-2.596q-.01-.521-.564-.521zM29.785 11.037c.392.505.64.993.74 1.464.101.472.101.949 0 1.431-.1.483-.381.875-.841 1.178-.46-.303-.74-.695-.842-1.178a3.416 3.416 0 010-1.43c.101-.472.348-.96.74-1.465zm-.101-8.787c-.393 0-.59.213-.59.64l.22 7.76c-.54.684-.86 1.282-.96 1.792-.101.51-.065 1.092.11 1.743.173.65.58 1.172 1.22 1.565.64-.393 1.043-.915 1.212-1.565.168-.651.202-1.232.1-1.743-.1-.51-.415-1.108-.942-1.792l.202-7.76c0-.427-.19-.64-.572-.64zM34.52 2.726q-.278 0-.278.328 0 .278.279.278.295-.016.295-.311t-.295-.295zm-1.081.213v.295l-.64.115q.295-.312.64-.41zm.033.393q.377.295.13.443-.376-.131-.557-.344l.427-.099zm1.147-.754q.77 0 1.23.59.459.59.491 1.82 1.197.246 1.59 1.082.064.542-.243.542l-.019-.001q-.328-.016-.516-.18-.069-.06-.104-.06-.06 0-.02.183.066.287.722.696.656.41.107.68-.136.068-.29.068-.467 0-1.095-.616-.837-.82-.886-1.246-.049-.427.345-.787.233-.215.16-.215-.05 0-.242.1-.476.246-.5.721-.025.476.377 1.041.401.566 1.582 1.435.12.063.273.063.324 0 .792-.285.689-.418-.688-1.286.508-.132.524-.443.64.213 3.59 3.967.787.525.804.77-.017.23-.246.28-.05.01-.1.01-.186 0-.392-.142-.918.443-1.779.46h-.09q-.8 0-1.328-.28.541.476.377 1-.08.255-.12.255-.044 0-.044-.287 0-.558-1.426-1.066v.623q-.084.353-.133.353-.048 0-.064-.32-.098-.705-.467-1.517-.369-.811-1.172-2.245-.803-1.435-1.025-2.066-.22-.631-.204-1.172.016-.541-.222-.795-.237-.254-.14-.55.1-.295-.294-.557v-.278q.426-.345.885-.345zm3.115 9.443q.803.23.803.54l-.54 2.017q-.066.361-.443.361h-.656v-.033l.836-2.557v-.328zM34.678 2.25h-.059q-.64 0-1.295.525-.377.131-.77.607.54.491.983.606.05.23.312.64.016 1.081.295 1.795.278.713 1.869 3.827.786 1.64.786 2.017 0 .574-.72 2.574 0 .114-.985.18-1.475.05-1.475.41 0 .213.197.213h4.36q.41-.328.46-.558.393.164.426.443.055.221.157.221.019 0 .04-.008.13-.049.13-.213-.114-.443-.573-.852l.524-2.213q1.59-.05 2.77-.509.22.05.402.05.364 0 .583-.197.327-.295-.132-.918-1-1-1.901-2.197-1.853-2.279-2.541-2.64-.23-.475-.55-.753-.32-.28-1.155-.689-.017-.967-.451-1.672-.425-.689-1.687-.689z"/><path d="M8.22.375c-9.625 0-9.625 17.25 0 17.25M8.22.375h35.01M8.22 17.625h35.01M50.917.375v17.25M43.23.375c9.625 0 9.625 17.25 0 17.25" fill="none" stroke="#000"/></svg>