<svg xmlns="http://www.w3.org/2000/svg" width="51.859" height="18"><path d="M11.386 8.203c-.51.04-.793.296-.847.767.067.51.35.78.847.806.498-.026.76-.295.787-.806-.04-.47-.303-.726-.787-.767zm.06-1.694c.364 0 .7.068 1.01.202a2.659 2.659 0 011.371 1.361c.134.303.201.622.201.958 0 .35-.067.676-.202.978a2.567 2.567 0 01-2.38 1.523c-.362 0-.702-.064-1.018-.192a2.426 2.426 0 01-.816-.534 2.621 2.621 0 01-.545-.797 2.38 2.38 0 01-.202-.978c0-.336.068-.655.202-.958.134-.302.316-.571.545-.806.228-.236.5-.42.816-.555a2.574 2.574 0 011.019-.202zm-.04-.685c-.443 0-.86.084-1.25.252-.39.168-.726.396-1.008.685a3.36 3.36 0 00-.676 1.009 3.053 3.053 0 00-.252 1.24c0 .444.084.857.252 1.24.168.384.393.716.676.999a3.2 3.2 0 002.258.927c.444 0 .857-.084 1.24-.252a3.36 3.36 0 001.009-.675c.289-.283.518-.615.686-.999.168-.383.252-.796.252-1.24 0-.444-.084-.857-.252-1.24a3.268 3.268 0 00-1.694-1.694 3.053 3.053 0 00-1.24-.252zM19.423 4.1q-.153 0-.318.07.116.073.116.29.084.092.182.092.072 0 .151-.049.064-.117.275-.117.077 0 .174.016-.264-.303-.58-.303zm8.487 4.473q-.507.376-.608.81H18.28q-.102-.434-.609-.81zm-.753 1.347l.652 3.968h-3.62V11.31h-2.796v2.578h-3.62l.651-3.968zm-7.696-5.996q.17 0 .354.116.782.072 1.361.405 0 .348 3.374.348 3.49.087 3.824.304.782.26 1.057.536.854.796 1.289 2.592l.188 1.535q.246 1.231.398 1.955.152.725.587 2.187-.739-.68-1.984-5.17-.188-.912-.695-1.52-.84-.696-1.478-.768l-.064-.001q-.468 0-.413.204-.102.231-.29.231-.797-.275-.797-.912.015-.333.348-.377.096.012.182.012.447 0 .629-.316-.478-.101-.854-.101-.638.087-.797.81 0 .435-1.636.508-1.231 0-1.521.333-.87-.13-.87-.623.088-.623.653-.652l.492-.188v-.174q-.106-.106-.266-.106-.19 0-.458.15-.768.087-.883 1.014-1.216-.848-1.61-.848h-.02q-.024.002-.049.002-.363 0-.783-.298l-.16.217-.188-.304-.16.202-.188-.347-.144.318-.276-.478-.159.406-.232-.507-.202.42-.247-.521-.188.29q-.301-.738.128-.738.169 0 .451.115.47-.093 1.017-.093.398 0 .837.05.21-.218.443-.218zm.165-.391q-.333 0-.608.217-.565-.036-1.017-.036-.453 0-.793.036-.229-.058-.413-.058-.504 0-.673.435-.058.188 0 .55l.275.203-.217.13q0 .263.251.263l.053-.002q1.477.405 3.056.55 1.853.985 1.853 1.217 0 .217-.579.318-.824-.223-1.306-.223-.144 0-.258.02-.565.03-.29.754l.058-.174q.019-.123.136-.123.063 0 .154.036l.087.26q.094-.246.21-.246.116 0 .253.247.039-.242.254-.242.108 0 .26.06.187.075.648.075.663 0 1.894-.154h.005q.1 0 .212-.507 0-.232 2.448-.304.159 0 .666.217 0 .217-.565.319-.836-.223-1.32-.223-.145 0-.259.02-.564.029-.29.753l.059-.174q.019-.122.135-.122.063 0 .154.035l.087.261q.094-.246.21-.246.116 0 .254.246.038-.241.254-.241.108 0 .26.06.187.074.647.074.664 0 1.894-.154h.006q.099 0 .212-.506.956.217 1.404 1.404.55 2.042 1.318 4.099.768 1.738 1.318 1.738.304-.044.333-.333-.202-.667-.42-1.608-.651-2.925-.71-3.707-.173-1.116-.448-1.84-.55-1.506-1.868-2.158-1.058-.405-1.84-.405-5.054-.13-5.054-.174-1.448-.637-2.39-.637zm-2.882 4.475q-.26.217.073.565.724.376.927.81-.493 0-.493.29 0 .261.594.261l-.753 4.533h4.953v-2.505h1.492v2.505h4.895l-.667-4.547q.55 0 .565-.247 0-.29-.492-.29.188-.434.912-.81.348-.348.13-.565zM34.607 3.897q-.09 0-.216.11-.497.668-.535 1.909.153.973.687 2.748-.19 1.431-.286 3.931-.076.84.458 1.088 1.584.42 4.008.42 2.443 0 4.008-.42.553-.248.477-1.088-.095-2.5-.286-3.931.534-1.775.687-2.748-.038-1.241-.535-1.909-.125-.11-.215-.11-.13 0-.185.225.133.381.248.744.152.458.114.859-.038.649-.124 1.059-.086.41-.353.41l-.028.001q-.449 0-.449-1.203 0-.44.115-1.069-.099-.167-.212-.167-.107 0-.227.148-.058.458-.077 1.012-.076.84.401 2.366-.172 2.157-.172 4.313-1.298.21-3.187.267-1.87-.057-3.168-.267 0-2.156-.172-4.313.477-1.527.4-2.366-.018-.554-.075-1.012-.12-.148-.228-.148-.113 0-.211.167.114.63.114 1.069 0 1.203-.449 1.203h-.028q-.267 0-.353-.411-.086-.41-.124-1.06-.038-.4.114-.858.115-.363.248-.744-.056-.225-.184-.225z"/><path d="M8.22.375c-9.625 0-9.625 17.25 0 17.25M8.22.375h35.389M8.22 17.625h35.389M51.296.375v17.25M43.609.375c9.625 0 9.625 17.25 0 17.25" fill="none" stroke="#000"/></svg>