<svg xmlns="http://www.w3.org/2000/svg" width="37.253" height="18"><path d="M11.386 8.203c-.51.04-.793.296-.847.767.067.51.35.78.847.806.498-.026.76-.295.787-.806-.04-.47-.303-.726-.787-.767zm.06-1.694c.364 0 .7.068 1.01.202a2.659 2.659 0 011.371 1.361c.134.303.201.622.201.958 0 .35-.067.676-.202.978a2.567 2.567 0 01-2.38 1.523c-.362 0-.702-.064-1.018-.192a2.426 2.426 0 01-.816-.534 2.621 2.621 0 01-.545-.797 2.38 2.38 0 01-.202-.978c0-.336.068-.655.202-.958.134-.302.316-.571.545-.806.228-.236.5-.42.816-.555a2.574 2.574 0 011.019-.202zm-.04-.685c-.443 0-.86.084-1.25.252-.39.168-.726.396-1.008.685a3.36 3.36 0 00-.676 1.009 3.053 3.053 0 00-.252 1.24c0 .444.084.857.252 1.24.168.384.393.716.676.999a3.2 3.2 0 002.258.927c.444 0 .857-.084 1.24-.252a3.36 3.36 0 001.009-.675c.289-.283.518-.615.686-.999.168-.383.252-.796.252-1.24 0-.444-.084-.857-.252-1.24a3.268 3.268 0 00-1.694-1.694 3.053 3.053 0 00-1.24-.252zM17.579 3.218l3.638.203c.064.704.032 1.49-.096 2.36-1.358-.75-2.538-1.605-3.542-2.563zm3.948-.968c-.203 0-.412.131-.627.393l-3.932-.203c-.929.24-1.118.613-.569 1.117.107-.023.202-.035.286-.035.204 0 .337.07.397.211.086.198.317.457.694.776.376.32 1.396.978 3.06 1.977.197.493.415.74.652.74.112 0 .227-.054.347-.162 2.366 1.02 4.652 1.733 6.857 2.14l.311-.245-.76-.807c-1.619-.14-3.726-.77-6.323-1.888a6.717 6.717 0 01-.045-2.752l4.402.294c.654-.163.703-.502.146-1.015l-4.334-.181c-.181-.24-.369-.36-.562-.36zM17.676 13.878l-1.583 1.872h.772l.811-.967.82.967.795-.967.82.967.81-.967.82.967.81-.967.82.967.796-.967.819.967.819-.967.795.967.82-.967.81.967h.773l-1.584-1.872-.819.905-.795-.905-.82.905-.818-.905-.796.905-.82-.905-.81.905-.82-.905-.81.905-.82-.905-.796.905-.819-.905z"/><path d="M8.22.375c-9.625 0-9.625 17.25 0 17.25M8.22.375h20.783M8.22 17.625h20.783M36.69.375v17.25M29.003.375c9.625 0 9.625 17.25 0 17.25" fill="none" stroke="#000"/></svg>