<svg xmlns="http://www.w3.org/2000/svg" width="30.888" height="18"><path d="M11.405 2.685l-.046 5.087-2.68.046-.024-5.11 2.75-.023zm.458-.435l-3.643.023.023 6.003 3.551-.069.069-5.957zM11.405 10.16l-.046 5.086-2.68.046-.024-5.11 2.75-.022zm.458-.436l-3.643.023.023 6.003 3.551-.069.069-5.957zM14.92 3.093q1.51.22 1.579 1.382v8.382q-.706-.843-2.536-1.184l.957-8.58zm-.426-.843l-1.131 10.022q2.52.289 3.136 1.8v1.678h.751V4.475q0-1.883-2.756-2.225zM20.307 3.093q1.511.22 1.58 1.382v8.382q-.707-.843-2.537-1.184l.957-8.58zm-.425-.843L18.75 12.272q2.521.289 3.136 1.8v1.678h.752V4.475q0-1.883-2.756-2.225z"/><path d="M8.22.375c-9.625 0-9.625 17.25 0 17.25M8.22.375h14.418M8.22 17.625h14.418M30.326.375v17.25M22.638.375c9.625 0 9.625 17.25 0 17.25" fill="none" stroke="#000"/></svg>