<svg xmlns="http://www.w3.org/2000/svg" width="54.589" height="18"><path d="M11.386 8.203c-.51.04-.793.296-.847.767.067.51.35.78.847.806.498-.026.76-.295.787-.806-.04-.47-.303-.726-.787-.767zm.06-1.694c.364 0 .7.068 1.01.202a2.659 2.659 0 011.371 1.361c.134.303.201.622.201.958 0 .35-.067.676-.202.978a2.567 2.567 0 01-2.38 1.523c-.362 0-.702-.064-1.018-.192a2.426 2.426 0 01-.816-.534 2.621 2.621 0 01-.545-.797 2.38 2.38 0 01-.202-.978c0-.336.068-.655.202-.958.134-.302.316-.571.545-.806.228-.236.5-.42.816-.555a2.574 2.574 0 011.019-.202zm-.04-.685c-.443 0-.86.084-1.25.252-.39.168-.726.396-1.008.685a3.36 3.36 0 00-.676 1.009 3.053 3.053 0 00-.252 1.24c0 .444.084.857.252 1.24.168.384.393.716.676.999a3.2 3.2 0 002.258.927c.444 0 .857-.084 1.24-.252a3.36 3.36 0 001.009-.675c.289-.283.518-.615.686-.999.168-.383.252-.796.252-1.24 0-.444-.084-.857-.252-1.24a3.268 3.268 0 00-1.694-1.694 3.053 3.053 0 00-1.24-.252zM22.288 3.204a.301.301 0 00-.08.01c-.056.015-.092.035-.107.061-.016.026-.013.059.007.1a.447.447 0 01.196-.055c.023 0 .045.003.065.009.072.02.139.046.2.077.062.03.159.05.292.06l.015-.076a.568.568 0 01-.238-.077.785.785 0 00-.222-.092.531.531 0 00-.128-.017zm-.072.232c-.02.041-.016.077.015.108a.19.19 0 01-.107-.031.232.232 0 01.092-.077zm.138 0l.138.062a.876.876 0 01-.153.046c.04-.031.046-.067.015-.108zm-.07-.062c-.06 0-.114.02-.16.062l-.108.092.03.046.062-.03a.372.372 0 00.198.058c.079 0 .161-.025.248-.074l.26.046.093.016v-.092h-.184l-.185-.031a.486.486 0 00-.254-.093zm.695-.876c.062 0 .127.006.197.017.394.061.69.215.89.46.2.246.274.855.223 1.828h-.537c-.42-.42-.507-.752-.261-.998.215-.184.307-.35.276-.5-.03-.148-.107-.23-.23-.245a.394.394 0 00-.05-.003c-.1 0-.18.042-.242.126-.032.043-.058.064-.08.064-.028 0-.047-.034-.058-.103-.02-.122-.261-.22-.722-.291.11-.237.308-.355.594-.355zm-.794.554c.45.041.717.151.799.33.041.091.09.137.148.137.056 0 .119-.043.19-.129.045-.098.09-.147.13-.147.024 0 .047.016.07.047.06.087-.016.228-.231.423-.297.317-.2.732.292 1.244a.452.452 0 01-.288.127c-.097 0-.191-.048-.28-.143-.041-.256-.139-.41-.292-.46a1.04 1.04 0 00-.331-.052c-.06 0-.12.005-.184.013a1.077 1.077 0 01-.14.012c-.09 0-.128-.022-.113-.066.02-.061.015-.112-.016-.153-.027-.037 0-.055.082-.055a.703.703 0 01.054.002c.093 0 .135-.034.125-.1h-.168a.275.275 0 00-.139-.093c.052-.072.01-.133-.123-.184l.338-.415-.046-.123.123-.215zm1.582 2.104c.236.093.353.282.353.569a.92.92 0 01-.709.312c-.036 0-.074-.002-.112-.005-.333-.03-.55-.118-.653-.261l.215-.615c.128.133.267.2.418.2.151 0 .314-.067.488-.2zm-4.669-1.49l-1.32 3.702-.677-.4 1.997-3.301zm1.461 3.049c.04 0 .084.002.136.008.195.02.343.074.446.161.102.087.19.156.26.208h.584l-.015.291-1.244-.046c-.154-.071-.205-.2-.154-.384-.133-.061-.194-.12-.184-.176.008-.042.065-.062.171-.062zm1.396.914l-.016.215a3.508 3.508 0 01-.124.002c-.216 0-.356-.023-.42-.071a1.064 1.064 0 00-.316-.146zm-1.198.17c.256.07.42.135.491.191.072.056.292.095.66.115l.016.307-1.06.077c-.133-.082-.169-.215-.107-.4-.154-.06-.228-.122-.223-.183.005-.062.08-.098.223-.108zm3.87.905v1.782l-.4 1.536c.482.45.677 1.006.584 1.666-.092.66-.138 1.175-.138 1.544h-.783c-.01-.226.174-.384.553-.477.112-1.177-.077-1.991-.568-2.442-.134-.153-.21-.291-.23-.414-.021-.123.05-.481.214-1.075v-.016h-4.147c0-.194.067-.302.2-.322h3.456c.573 0 .921-.487 1.044-1.46v-.322zm-.507-2.641v2.334c.041 1.188-.286 1.726-.983 1.747h-3.179c-.46.061-.64.388-.537.849a5.39 5.39 0 01-.162 1.582 41.358 41.358 0 01-.468 1.612v.522c.225.4.164.63-.184.692h-1.89v-.016c.553-.153.932-.338 1.137-.553.39-.235.584-.537.584-.906.02-.921.102-2.022.245-3.302-.05-.553.128-.87.538-.952.317-.133.735-.248 1.252-.346a19.263 19.263 0 011.774-.238c-.072-1.157.025-2.145.291-2.964.205.123.48.19.822.2h.053c.317 0 .552-.087.707-.261zM22.95 2.25c-.502 0-.849.308-1.041.925l-.016.17-.33.437c-.036.046.018.1.161.161l-.015.077.046.03c-.072.052-.061.093.03.123-.05.052-.05.103 0 .154-.06.092-.055.18.016.261l-.077.23h.415l-.015-.138c.132-.025.243-.038.333-.038.056 0 .103.005.143.015.102.026.169.11.2.254-.144.092-.285.34-.423.745a9.843 9.843 0 00-.33 1.205h-.553c-.276-.276-.594-.414-.952-.414l-1.045-2.888c-.054-.221-.132-.332-.234-.332-.13 0-.297.177-.503.532l-2.058 3.24c.328.308.748.558 1.26.753l1.336-3.855.937 2.596c-.144.276-.113.46.092.552-.02.308.097.471.353.492v.061a.798.798 0 00-.069-.003c-.191 0-.294.08-.307.241-.016.18.038.305.161.377-.01.245.087.414.292.507l1.167-.062v.108c-.471.05-.962.125-1.474.222a9.444 9.444 0 00-1.413.377c-.553.174-.834.599-.711 1.274-.123.901-.14 1.91-.18 3.026.01.379-.171.67-.427.875-.256.267-.65.487-1.183.66-.348.073-.491.304-.43.55h2.685c.287-.02.445-.17.476-.303.03-.133.061-.287-.01-.461a1.458 1.458 0 01-.108-.56c0-.2.118-.69.353-1.467a4.364 4.364 0 00.262-1.874h3.652c-.143.46-.194.757-.153.89.04.154.22.433.537.838.317.404.42.98.307 1.727-.42.144-.599.461-.537.953h.427l-.043.245h.673v-.26h.36v-.753c.246-1.505.113-2.432-.4-2.78l.37-1.428V8.33h-.545V6.016c.02-.48-.066-.798-.261-.952h.369c.112-1.239.033-2.007-.238-2.304-.272-.296-.684-.465-1.237-.506a1.296 1.296 0 00-.096-.004zM28.346 2.25q-1.742 0-1.742 1.674V15.75h.803V3.924q0-.87.939-.87.946 0 .946.87v7.87h.803v-7.87q0-1.674-1.75-1.674zM33.337 2.25q-1.742 0-1.742 1.674V15.75h.803V3.924q0-.87.939-.87.946 0 .946.87v7.87h.803v-7.87q0-1.674-1.75-1.674zM37.337 3.897q-.09 0-.216.11-.497.668-.535 1.909.153.973.687 2.748-.19 1.431-.286 3.931-.076.84.458 1.088 1.584.42 4.008.42 2.443 0 4.008-.42.553-.248.477-1.088-.095-2.5-.286-3.931.534-1.775.687-2.748-.038-1.241-.535-1.909-.125-.11-.215-.11-.13 0-.185.225.133.381.248.744.152.458.114.859-.038.649-.124 1.059-.086.41-.353.41l-.028.001q-.449 0-.449-1.203 0-.44.115-1.069-.099-.167-.212-.167-.107 0-.227.148-.058.458-.077 1.012-.076.84.401 2.366-.172 2.157-.172 4.313-1.298.21-3.187.267-1.87-.057-3.168-.267 0-2.156-.172-4.313.477-1.527.4-2.366-.018-.554-.075-1.012-.12-.148-.228-.148-.113 0-.211.167.114.63.114 1.069 0 1.203-.449 1.203h-.028q-.267 0-.353-.411-.086-.41-.124-1.06-.038-.4.114-.858.115-.363.248-.744-.056-.225-.184-.225z"/><path d="M8.22.375c-9.625 0-9.625 17.25 0 17.25M8.22.375h38.119M8.22 17.625h38.119M54.026.375v17.25M46.339.375c9.625 0 9.625 17.25 0 17.25" fill="none" stroke="#000"/></svg>