<svg xmlns="http://www.w3.org/2000/svg" width="41.767" height="18"><path d="M12.274 2.25c-.09 0-.096.283-.225.701-.146.476-.253 1.472-.591 1.665a.298.298 0 01-.153.039c-.1 0-.202-.038-.313-.038a.409.409 0 00-.127.02c-.158.05-.241.297-.408.326-.691.12-1.637.075-2.166.123-.34.03.567.698 1.474.698h.038c.188-.005.387-.013.584-.013.331 0 .658.024.928.135.264.109.576.425.572.735l-.11 9.109h1.019l-.052-10.289c-.001-.276.796-.464.9-.702.182-.415.089-2.247-.204-2.493a.016.016 0 00-.01-.004c-.133 0-.38 1.92-.767 2.333-.04.043-.117.062-.185.062-.072 0-.133-.022-.121-.062.246-.838.345-2.061-.041-2.329a.077.077 0 00-.042-.016zM16.978 2.25q-1.742 0-1.742 1.674V15.75h.804V3.924q0-.87.938-.87.946 0 .946.87v7.87h.804v-7.87q0-1.674-1.75-1.674zM23.453 2.25q-.074 0-.179.091-.41.554-.442 1.582.126.806.569 2.277-.158 1.186-.237 3.258-.064.696.38.902 1.312.348 3.32.348 2.025 0 3.322-.348.459-.206.395-.902-.079-2.072-.237-3.258.443-1.47.57-2.277-.032-1.028-.443-1.582-.104-.091-.18-.091-.106 0-.152.186.11.316.205.617.127.38.095.712-.032.537-.103.877-.07.34-.292.34l-.024.001q-.372 0-.372-.997 0-.364.095-.886-.081-.138-.175-.138-.089 0-.189.123-.047.38-.063.838-.063.696.332 1.961-.142 1.787-.142 3.574-1.076.174-2.641.222-1.55-.048-2.626-.222 0-1.787-.142-3.574.395-1.265.332-1.961-.016-.459-.063-.838-.1-.123-.188-.123-.095 0-.176.138.095.522.095.886 0 .997-.372.997H23.7q-.221 0-.292-.34-.071-.34-.103-.878-.032-.333.095-.712.095-.3.206-.617-.047-.186-.154-.186zM21.441 13.34q.586 0 1.33.834.573.639 1.554.639.36 0 .776-.086 1.551-.321 2.603-.339.15-.003.294-.003.866 0 1.549.122.796.137 1.432.553.636.422 1.213.422-.116.007-.231.007-.764 0-1.451-.31-.515-.23-1.696-.23-.62 0-1.425.063-1.448.114-2.382.114-.573 0-.952-.043-.999-.113-1.486-.808-.402-.573-.626-.573-.048 0-.088.026-.232.155-.612.16h-.018q-.364 0-.428-.231-.012-.274.589-.315.027-.002.055-.002zm.854-1.39q-.464 0-.725 1.053-.058-.007-.118-.007-.101 0-.209.019-.368-.945-.826-.945-.16 0-.184.113-.024.107.065.226.422.332.565.695-.434.214-.434.553.041.511.564.565.148.015.273.015.32 0 .5-.099.07-.038.136-.038.169 0 .31.252.202.357.767.767.513.378 2.122.378.16 0 .333-.003 1.914-.012 3.007-.101.293-.026.562-.026.738 0 1.287.192.535.191 1.925.191.556 0 1.249-.03.03 0 .053-.12 0-.356-.76-.356-1.04-.036-1.356-.297-.315-.268-1.052-.613-.743-.35-2.199-.35t-2.966.35q-.468.107-.857.107-.863 0-1.33-.529-.678-.766-1.029-.832 0-.25.256-.547.255-.29.238-.44-.012-.142-.167-.142z"/><path d="M8.22.375c-9.625 0-9.625 17.25 0 17.25M8.22.375h25.297M8.22 17.625h25.297M41.205.375v17.25M33.517.375c9.625 0 9.625 17.25 0 17.25" fill="none" stroke="#000"/></svg>