<svg xmlns="http://www.w3.org/2000/svg" width="55.746" height="18"><path d="M11.386 8.203c-.51.04-.793.296-.847.767.067.51.35.78.847.806.498-.026.76-.295.787-.806-.04-.47-.303-.726-.787-.767zm.06-1.694c.364 0 .7.068 1.01.202a2.659 2.659 0 011.371 1.361c.134.303.201.622.201.958 0 .35-.067.676-.202.978a2.567 2.567 0 01-2.38 1.523c-.362 0-.702-.064-1.018-.192a2.426 2.426 0 01-.816-.534 2.621 2.621 0 01-.545-.797 2.38 2.38 0 01-.202-.978c0-.336.068-.655.202-.958.134-.302.316-.571.545-.806.228-.236.5-.42.816-.555a2.574 2.574 0 011.019-.202zm-.04-.685c-.443 0-.86.084-1.25.252-.39.168-.726.396-1.008.685a3.36 3.36 0 00-.676 1.009 3.053 3.053 0 00-.252 1.24c0 .444.084.857.252 1.24.168.384.393.716.676.999a3.2 3.2 0 002.258.927c.444 0 .857-.084 1.24-.252a3.36 3.36 0 001.009-.675c.289-.283.518-.615.686-.999.168-.383.252-.796.252-1.24 0-.444-.084-.857-.252-1.24a3.268 3.268 0 00-1.694-1.694 3.053 3.053 0 00-1.24-.252zM19.315 2.537v.305h-.772v-.305zm.988.88q-.144.161-.144.556h-2.46q.018-.395-.125-.556zm0 1.13q-.18.162-.144.557h-2.46q.018-.395-.125-.556zm0 1.132q-.144.126-.144.556h-2.46q.036-.395-.125-.556zm-.072 1.13q-.252.45-.234 1.204h-2.172q.036-.754-.233-1.203zm-.234 1.33v.125h-2.172v-.126zm0 .25v.126h-2.172V8.39zm0 .252v.126h-2.172V8.64zm0 .251v.126h-2.172v-.126zm0 .252v4.362q.162.808.575 1.777h-3.303q.323-.718.556-1.777V9.144zM18.274 2.25v.592h-2.01q-.342.288 0 .575h.825q.162.161.144.556h-.97q-.34.288 0 .575h.826q.162.161.144.556h-.97q-.34.288 0 .575h.826q.18.161.144.556h-.97q-.34.27 0 .575h.826q.323.377.287 2.28v4.416q-.125.987-.88 2.244h4.92q-.862-1.436-.952-2.244V9.09q-.09-1.885.305-2.28h.844q.36-.27 0-.575h-.97q-.017-.43.126-.556h.898q.305-.305-.054-.575h-.97q-.017-.395.126-.556h.844q.341-.287 0-.575h-.97q-.017-.395.126-.556h.844q.341-.287 0-.575h-2.01V2.25zM26.528 2.537v.305h-.772v-.305zm.988.88q-.144.161-.144.556h-2.46q.019-.395-.125-.556zm0 1.13q-.18.162-.144.557h-2.46q.019-.395-.125-.556zm0 1.132q-.144.126-.144.556h-2.46q.037-.395-.125-.556zm-.072 1.13q-.251.45-.233 1.204h-2.173q.036-.754-.233-1.203zm-.233 1.33v.125h-2.173v-.126zm0 .25v.126h-2.173V8.39zm0 .252v.126h-2.173V8.64zm0 .251v.126h-2.173v-.126zm0 .252v4.362q.161.808.574 1.777h-3.303q.323-.718.556-1.777V9.144zM25.487 2.25v.592h-2.01q-.342.288 0 .575h.825q.162.161.144.556h-.97q-.34.288 0 .575h.826q.162.161.144.556h-.97q-.34.288 0 .575h.826q.18.161.144.556h-.97q-.34.27 0 .575h.826q.323.377.288 2.28v4.416q-.126.987-.88 2.244h4.919q-.862-1.436-.952-2.244V9.09q-.09-1.885.306-2.28h.843q.36-.27 0-.575h-.97q-.017-.43.127-.556h.897q.305-.305-.054-.575h-.97q-.017-.395.127-.556h.843q.341-.287 0-.575h-.97q-.017-.395.127-.556h.843q.341-.287 0-.575h-2.01V2.25zM32.07 8.348q.748 0 1.698 1.065.733.817 1.986.817.46 0 .99-.11 1.982-.41 3.326-.433.19-.005.375-.005 1.107 0 1.979.156 1.017.175 1.83.707.812.539 1.549.539-.149.009-.295.009-.976 0-1.854-.396-.657-.294-2.166-.294-.793 0-1.82.08-1.85.147-3.044.147-.731 0-1.216-.055-1.276-.144-1.898-1.033-.513-.732-.8-.732-.06 0-.112.034-.296.197-.782.205h-.023q-.465 0-.546-.296-.015-.35.752-.403l.07-.002zm1.09-1.775q-.592 0-.926 1.344-.074-.008-.151-.008-.13 0-.267.024-.47-1.208-1.055-1.208-.205 0-.236.145-.03.136.084.288.54.425.721.889-.554.273-.554.706.053.653.721.721.188.02.349.02.41 0 .638-.126.09-.05.174-.05.216 0 .396.323.258.456.98.98.655.483 2.71.483.206 0 .425-.005 2.445-.015 3.843-.13.374-.032.717-.032.942 0 1.644.245.683.245 2.46.245.71 0 1.595-.04.038 0 .068-.151 0-.456-.972-.456-1.329-.046-1.731-.38-.402-.341-1.344-.782-.95-.448-2.81-.448t-3.788.448q-.599.137-1.095.137-1.103 0-1.7-.676-.865-.98-1.313-1.063 0-.319.326-.698.327-.372.304-.562-.015-.183-.213-.183z"/><path d="M8.22.375c-9.625 0-9.625 17.25 0 17.25M8.22.375h39.276M8.22 17.625h39.276M55.184.375v17.25M47.496.375c9.625 0 9.625 17.25 0 17.25" fill="none" stroke="#000"/></svg>