<svg xmlns="http://www.w3.org/2000/svg" width="40.714" height="18"><path d="M14.696 4.63c-.511.04-.793.295-.847.766.067.51.35.78.847.807.497-.027.76-.296.786-.807-.04-.47-.302-.726-.786-.766zm.06-1.694c.363 0 .7.067 1.009.201a2.659 2.659 0 011.371 1.361c.134.303.202.622.202.959 0 .35-.068.675-.202.978a2.567 2.567 0 01-2.38 1.523c-.363 0-.702-.065-1.018-.192a2.426 2.426 0 01-.817-.535 2.621 2.621 0 01-.544-.796 2.38 2.38 0 01-.202-.978c0-.337.067-.656.202-.958.134-.303.316-.572.544-.807.229-.235.5-.42.817-.555a2.574 2.574 0 011.018-.201zm-.04-.686c-.444 0-.86.084-1.25.252-.39.168-.726.397-1.009.686a3.36 3.36 0 00-.675 1.008 3.053 3.053 0 00-.252 1.24c0 .444.084.857.252 1.24.168.384.393.717.675.999a3.2 3.2 0 002.259.928c.444 0 .857-.084 1.24-.253a3.36 3.36 0 001.009-.675c.289-.282.517-.615.685-.998.168-.384.252-.797.252-1.24 0-.444-.084-.858-.252-1.24a3.268 3.268 0 00-1.694-1.695 3.053 3.053 0 00-1.24-.252zM20.058 12.523q-1.86 2.528-5.353 2.597-3.47-.069-5.33-2.597zm-11.838-.6q1.906 3.812 6.485 3.827 4.601-.015 6.507-3.827zM23.462 3.897q-.09 0-.216.11-.496.668-.534 1.909.153.973.687 2.748-.19 1.431-.286 3.931-.077.84.458 1.088 1.584.42 4.008.42 2.442 0 4.007-.42.554-.248.478-1.088-.096-2.5-.287-3.931.535-1.775.687-2.748-.038-1.241-.534-1.909-.126-.11-.216-.11-.129 0-.185.225.134.381.248.744.153.458.115.859-.038.649-.124 1.059-.086.41-.353.41l-.028.001q-.45 0-.45-1.203 0-.44.115-1.069-.098-.167-.212-.167-.107 0-.227.148-.057.458-.076 1.012-.077.84.4 2.366-.171 2.157-.171 4.313-1.298.21-3.187.267-1.87-.057-3.169-.267 0-2.156-.171-4.313.477-1.527.4-2.366-.019-.554-.076-1.012-.12-.148-.227-.148-.114 0-.212.167.115.63.115 1.069 0 1.203-.45 1.203h-.027q-.268 0-.354-.411-.085-.41-.124-1.06-.038-.4.115-.858.114-.363.248-.744-.056-.225-.185-.225z"/><path d="M8.22.375c-9.625 0-9.625 17.25 0 17.25M8.22.375h24.244M8.22 17.625h24.244M40.152.375v17.25M32.464.375c9.625 0 9.625 17.25 0 17.25" fill="none" stroke="#000"/></svg>