<svg width="53.467" height="18" xmlns:xlink="http://www.w3.org/1999/xlink" xmlns="http://www.w3.org/2000/svg"><defs><pattern xlink:href="#a" id="b" patternTransform="matrix(.45335 .49318 -5.86942 5.39533 -3.712 -.437)"/><pattern patternUnits="userSpaceOnUse" width="3" height="1" patternTransform="scale(10)" id="a"><path d="M0-.5h1v2H0z"/></pattern></defs><path d="M20.225.471l-6.1.116.066 17.45 26.885-.655.58-6.609 10.927-.044c.05-6.165-2.97-10.05-7.366-10.354L34.405.524l-.1 7.6-13.906-.088z" opacity=".401" fill="url(#b)"/><path d="M10.26 2.638c-.107 0-.368.126-.123.127.04 0 .128.012.194.012.078 0 .123-.017.015-.091-.026-.018-.05-.047-.083-.048h-.003zm.04-.084h.01c.188.044.337.203.533.257.165.046.436.108.38.35-.076.322-.292.634-.225.971.043.211.278.23.469.23l.09-.001c1.242-.01 2.229-.062 3.02-.062 1.298 0 2.071.14 2.589.84.858 1.161.564 2.323.35 3.788.06-.864.347-2.227-.542-3.404-.375-.497-1.012-.706-1.598-.853-.269-.068-.628-.092-1.025-.092-.915 0-2.028.126-2.675.126-.154 0-.281-.007-.374-.024-.249-.048-.427-.355-.405-.61.03-.338.296-.651.196-.992-.045-.152-.177-.186-.321-.186-.103 0-.212.017-.3.022-.093.004-.185.018-.275.018a.488.488 0 01-.346-.121c-.21-.186.365-.257.45-.257zm.03-.304h-.02c-.274.014-.55.098-.787.236-.248.144-.049.423.119.547.154.113.328.22.522.22a.531.531 0 00.115-.013c.099-.022.274-.063.393-.063.07 0 .122.014.127.055.044.336-.314.744-.17 1.132.119.318.39.608.753.634.159.011.317.016.476.016.835 0 1.666-.135 2.502-.15h.08c1.6 0 2.406.836 2.59 1.355.177.503.305 1.03.26 1.566-.054.644-.149 1.294-.096 1.94.047.568.244 1.12.38 1.671.03.129.122.193.207.193.094 0 .18-.077.174-.23-.028-.711-.191-1.319-.173-1.974.016-.564.16-1.106.194-1.671.039-.655.22-2.862-1.567-3.505-.514-.185-1.166-.235-1.858-.235-.819 0-1.692.07-2.456.07-.286 0-.557-.01-.804-.036.099-.351.287-.657.243-1.022-.035-.29-.35-.398-.59-.463-.225-.062-.377-.273-.615-.273zM9.221 13.761q.484 0 1.097.689.474.527 1.283.527.297 0 .64-.071 1.28-.265 2.148-.28.124-.003.243-.003.714 0 1.278.101.657.113 1.182.456.525.349 1 .349-.096.005-.19.005-.63 0-1.198-.256-.424-.19-1.399-.19-.512 0-1.176.053-1.195.094-1.966.094-.472 0-.785-.035-.824-.093-1.226-.667-.332-.473-.517-.473-.04 0-.072.022-.191.127-.505.132h-.015q-.3 0-.353-.191-.01-.226.486-.26.022-.002.045-.002zm.705-1.146q-.383 0-.598.868-.048-.005-.098-.005-.083 0-.172.015-.304-.78-.682-.78-.132 0-.152.093-.02.089.054.187.348.274.466.574-.358.176-.358.456.034.422.466.466.121.012.225.012.264 0 .412-.08.058-.033.113-.033.139 0 .255.209.167.294.633.632.424.313 1.751.313.133 0 .275-.004 1.579-.01 2.481-.083.242-.02.464-.02.609 0 1.062.157.441.158 1.588.158.46 0 1.031-.025.025 0 .044-.098 0-.295-.628-.295-.858-.029-1.118-.245-.26-.22-.868-.505-.613-.29-1.815-.29t-2.447.29q-.387.088-.707.088-.713 0-1.098-.436-.56-.633-.849-.687 0-.206.211-.451.211-.24.196-.363-.01-.118-.137-.118zM25.404 8.519c1.02 1.145 1.864 2.453 2.617 3.781.158.195-.02.374-.15.559-.496-1.575-1.637-2.79-2.467-4.34zm-.987-5.783c.086.396-.071.854-.372.989l.096.205c.376-.178.737-.713.79-1.193.514.03.654.417.735.865.096.307-.002 1.05.387 1.179 1.146.444 2.023.957 2.81 1.734 1.358 1.698 2.777 3.342 4.135 5.042.527.662 1.01 1.268 1.402 1.725-2.063-1.542-4.367-2.72-6.627-3.946-1.201-.652-2.348-1.186-2.348-2.623 0-.773 1.425-1.42 1.366-1.521-.005-.01-.022-.013-.048-.013-.292 0-1.789.555-1.789 1.725 0 .324.087.625.238.905h-.007c-1.641-.87-1.38-2.63-1.317-4.18-.682-.038-1.244-.41-1.892-.565.503-.065 1.004-.15 1.507-.201a.4.4 0 00-.238.15c-.008.166.179.239.36.239.179 0 .352-.07.335-.19a.457.457 0 00-.39-.206c.25-.036.584-.09.867-.12zm2.867 9.977c.147.357.224.736.307 1.11.239-.193.47-.392.667-.628-.128.694-.366 1.395-.945 1.395-.35 0-.512-.237-.287-.954.105-.338.19-.66.258-.923zm-.628-3.438c2.34 1.247 4.658 2.506 6.872 3.969.521.422.986.893 1.3 1.334-.208.324-.606.435-.973.46-1.873-.066-2.607-1.872-3.596-3.162l-.539-.654.093.838c.006.15.16.864-.07.864a.17.17 0 01-.067-.016l-.947-1.134c-.101.067-.196.143-.301.205-.47-.95-1.157-1.836-1.772-2.704zm-2.02-7.025c-.492 0-.996.088-1.474.133-.57.278-1.147.066-1.744.283-.432.194-.553.587-.732.98.255-.085.486-.12.704-.12.697 0 1.257.351 1.993.538-.001.37-.059.788-.086 1.21-.115 1.145.488 2.15 1.36 2.865.625 1.39 1.489 2.457 2.12 3.542-.075.488-.53 2.327-.753 2.988a8.341 8.341 0 01-1.365.115 7.003 7.003 0 01-.593-.024c-.354 0-.744.606-1.127.93l7.772.06c-.198-.7-1.58-1.072-2.07-1.072a.685.685 0 00-.075.003c.173-.495.389-.96.45-1.653.217.195.46.404.764.426.371-.028.522-.281.569-.612.84 1.39 1.781 2.526 3.506 2.693.596-.029 1.34-.29 1.5-.923.79-.044.21-.815-.083-1.116-2.151-2.33-3.927-4.988-6.053-7.334-.819-.808-1.743-1.354-2.888-1.807-.085-.21-.113-.507-.169-.835-.06-.357-.25-.942-.6-1.124a2.667 2.667 0 00-.926-.146zM38.92 3.243q-.238 0-.238.2t.208.2q.237 0 .237-.185.007-.215-.208-.215zm5.17-.711q-.007.237-.348.403-.168.083-.072.083.098 0 .472-.086-.222.17-.392.274-1.074.303-2.038 1.393.682-1.193 2.379-2.067zm.8.526q-.059.23-.4.314-.29.073.157.073l.177-.002q-.444.252-.552.26-.107.007-.007.055.1.048.455.048-.303.192-.507.204-.204.01-.085.059.118.048.437.048-.159.147-.387.147-.07 0-.147-.014l.341.178q-.163.06-.304.082-.377.014 0 .192-.079.05-.19.05-.057 0-.12-.013-.416.474-2.127 1.4l.155.112.378-.104q.297.496.845.926.593.082.6.615-.006.252-.308.252-.052 0-.114-.008-.025.004-.05.004-.212 0-.365-.292-.198-.338-.52-.338h-.006q-.326.004-.534.108l-.555-.208q-.786-.97-1.145-1.381-.36-.412-.522-1.067-.163-.656-.485-.834-.323-.177-.775-.51l.074-.127q.333-.13.58-.13.564 0 .672.686.156.985.334 1.345.178.359.707.41.028.003.056.003.516 0 1.29-.899.814-.948 1.81-1.26.997-.31 1.138-.384zm-.68-.808q-1.875.933-2.457 1.89-.581.955-.878 1.08-.146.063-.293.063-.151 0-.303-.066-.3-.13-.408-.852-.107-.722-.255-1.011-.148-.289-.56-.39-.112-.026-.229-.026-.311 0-.656.194-.348-.134-.644-.134-.215.104-.09.178.875.563 1.29.841.415.278.581.982.167.703.819 1.31.682.727.674 1.209-.06.296-.396.703-.337.408-.397.808-.007.215.082.319.126-.052.148-.163-.037-.23.011-.315.048-.086.108-.204.089.23.074.489.178-.133.163-.29l-.052-.429q.407-.4.585-.83.178.038.252.141-.052.334-.322.634t-.374.648q.022.467.11.489.127-.163.086-.267-.04-.104-.004-.189.037-.085.09-.174.103.104.103.482.133-.097.163-.252-.104-.334-.03-.511.393-.4.585-.956.17-.074.36-.111.034-.007.067-.007.153 0 .3.14.154.503.657.503.149 0 .328-.044.105.176.381.176.074 0 .16-.013.015-.385-.245-.518.072-.86-.613-.86h-.046q-.66-.6-.815-.903 1.067-.578 1.585-1.12.018.004.037.004.153 0 .423-.21l-.178-.09q.207-.03.467-.244l-.237-.037q.155-.015.4-.289l-.274-.015q.259-.074.407-.318l-.378-.008q.408-.118.467-.348l-.156-.022q.223-.126.193-.504l-.993.326q.215-.133.215-.37l-.156.014q.186-.177.067-.533zM38.322 10.618q-.216 0-.216.164 0 .138.216.138.21 0 .21-.138 0-.164-.21-.164zm.164-.092q.498 0 .747.321.124.204.242.623-.006.098-.163.131-.158.033-.308.033-.695-.256-1.075-.885.026-.223.557-.223zm1.186.983q.125.092.528.335.403.242 1.258 1.006.855.763 1.295.898.439.134 1.032.16.593.026.894.138 0 .092-.19.144-1.645-.19-2.415-.354-.77-.164-1.137-.278-.367-.115-.937-.436-.57-.321-.911-.623-.341-.301-.446-.472-.105-.17.259-.18.364-.01.59-.105.226-.095.18-.233zm5.027 2.57l.053.052q0 .053-.066.072l-.124-.006q.137-.06.137-.118zm.085.078l.053.066-.099-.007q.04-.032.046-.059zm-6.927-3.375q.445.636 1.042.891-.076-.004-.143-.004-.48 0-.487.207 0 .328 1.118 1.128 1.117.8 2.631 1.035.656.086.735.256.013.124-.623.157h-1.055q-.105-.23-.387-.42l.059.165q-1.049-.603-1.839-1.334-.79-.73-.796-1.268 0-.256-.255-.643 0-.059-.354-.111v-.013l.354-.046zm5.138 3.454l1.816.321q-.19.079-.266.282-.075.203.017.492l-1.882-.741q.027-.007.125-.056t.174-.134q.075-.085.016-.164zm-2.851-.125q.708.472.695.617-.105.34-.512.865-.216 0-.41-.046-.103-.025-.216-.025-.097 0-.2.018.676-.957.676-.996 0-.256-.04-.433zm-1.665-3.794q-.347 0-.52.095-.175.095-.188.252-.517.072-.517.105v.13q.013.034.432.158.223.295.223.538 0 .458.334.904t1.436 1.462q.098 0 .203.583l-.616.944q-.079.052-.21.059-.216-.072-.688-.072-.15.046-.266.046-.082 0-.147-.023-.127-.045-.34-.045l-.106.002q-.223.105-.04.288l3.278.007-.105-.157q.203-.335.524-.918h1.18l2.556.99.027-.092q-.276-.275-.23-.623.098-.281.518-.373v-.092l-1.049-.19v-.007l.983.066q0-.026-.167-.334t-.704-.308q-.879-.027-1.295-.086-.416-.059-1.59-1.133-1.172-1.075-1.677-1.193-.243-.983-1.239-.983z"/><path d="M8.22.375c-9.625 0-9.625 17.25 0 17.25M8.22.375h36.997M8.22 17.625h36.997M52.904.375v17.25M45.217.375c9.625 0 9.625 17.25 0 17.25" fill="none" stroke="#000"/></svg>