<svg xmlns="http://www.w3.org/2000/svg" width="32.438" height="18"><path d="M20.428 4.324q.015.21-.39.839-.404.629-.838.868-.133.035-.228.035-.237 0-.237-.214.015-.585.614-1.004.6-.42 1.079-.524zm-1.015 4.27q.126 0 .266.089.33.21 1.093 1.333-2.171-.45-1.677-1.258.146-.164.318-.164zm-5.56-4.046q.119.555-.735 1.828 2.037-1.109 2.861-1.146.258-.012.506-.012.545 0 1.045.057.726.082.726.397-.135.434.075.779.147.168.411.168.277 0 .682-.183.57-.405.9-.405 1.392.27 2.396 1.079-.644.629-1.184.974-.389.27-1.183.539-.779-.614-1.138-.614-.068-.01-.13-.01-.479 0-.664.609 0 .629-.195.629-.305.034-.63.034-1.67 0-3.864-.903.914 1.393 1.079 1.753-.81-.135-1.693-.929-1.153-1.153-2.187-1.153-1.033 0-2.052 1.153.09-.48.779-1.483 1.049-.839 2.696-1.857.764-1.304 1.498-1.304zm-1.734 6.843q-.19 0-.26.183-.044.284.24.374.052.02.098.02.129 0 .217-.155.12-.224-.165-.404-.07-.018-.13-.018zm-.654-.53q.238 0 .5.128.629.3.734.652.105.352.135.562-.054.024-.103.024-.074 0-.137-.054l-.105.045q-.105.39.09.689l-2.232-1.094q.47-.952 1.118-.952zm1.518 1.641q.195.39.959.93.345.254.42.448-1.633-.808-1.618-1.288l.24-.09zm7.758-8.787q-.094 0-.223.025-.899.254-1.43.621-.532.367-.727.382l-1.303-.09q-1.843 0-2.712.525.27-.84 0-1.349-.734 0-1.363.412t-.928 1.071Q10.092 6.376 9.239 7.23 8.22 8.099 8.22 9.432q0 1.528.637 2.254.636.726 5.58 2.599l.09-.18q.299-.554-.36-.944-.66-.524-.794-.868-.03-1.348-1.049-1.858-.586-.288-1.034-.288-.32 0-.568.146-.6.352-.81.771-.614-.09-.584-1.018.48-1.468 1.379-1.468.793 0 1.243.48.809.718 1.573 1.227.569.405 1.902.615.21-.345-.42-1.408 1.05.386 2.25.386.616 0 1.27-.102 2.682 1.124 3.176 1.124-.195-.93-.764-1.708.899-.33 2.157-1.528.584-.15 1.094-.584-.6-.45-1.154-.57-.898-.539-2.486-.988.51-.989.434-1.543.07-.264-.24-.264z"/><path d="M8.22.375c-9.625 0-9.625 17.25 0 17.25M8.22.375h15.968M8.22 17.625h15.968M31.875.375v17.25M24.188.375c9.625 0 9.625 17.25 0 17.25" fill="none" stroke="#000"/></svg>