<svg width="51.941" height="18" xmlns:xlink="http://www.w3.org/1999/xlink" xmlns="http://www.w3.org/2000/svg"><defs><pattern xlink:href="#a" id="b" patternTransform="matrix(.45335 .49318 -5.86942 5.39533 -3.73 -.146)"/><pattern patternUnits="userSpaceOnUse" width="3" height="1" patternTransform="scale(10)" id="a"><path d="M0-.5h1v2H0z"/></pattern></defs><path d="M9.962 2.25q-1.742 0-1.742 1.674V15.75h.803V3.924q0-.87.939-.87.946 0 .946.87v7.87h.803v-7.87q0-1.674-1.75-1.674zM14.984 11.088c.4.153.837.645.965 1.05.127.406.112.879.022 1.344-.09.458-.27.894-.488 1.18-.15.195-.285.307-.413.345h-.12c-.127-.03-.293-.143-.458-.346-.218-.285-.398-.72-.488-1.179-.09-.465-.105-.938.023-1.344.127-.405.606-.931.957-1.046v-.004zM14.56 2.25v.901h-.811v.578h.81l-.112 6.818c-.578.3-.938.81-1.111 1.359a3.576 3.576 0 00-.068 1.734 3.49 3.49 0 00.646 1.457c.233.3.54.548.901.623v.022a.208.208 0 00.068.008c.03 0 .06-.008.09-.008a.532.532 0 00.105.008c.03 0 .052 0 .082-.008v-.022c.36-.075.669-.323.901-.623a3.49 3.49 0 00.646-1.457 3.576 3.576 0 00-.067-1.734 2.228 2.228 0 00-1.112-1.337l-.112-6.84h.766l.022-.578h-.856V2.25h-.788zM24.898 7.897q2.33 0 4.943 1.126-2.613 1.095-4.943 1.095-2.316 0-4.944-1.095 2.628-1.126 4.944-1.126zm0-.72q-2.879 0-6.617 1.83 3.738 1.815 6.617 1.815 2.878 0 6.616-1.814-3.723-1.83-6.616-1.83zM34.982 2.726q-.28 0-.28.328 0 .278.28.278.295-.016.295-.311t-.295-.295zm-1.082.213v.295l-.64.115q.295-.312.64-.41zm.032.393q.377.295.131.443-.377-.131-.557-.344l.426-.099zm1.148-.754q.77 0 1.23.59.458.59.491 1.82 1.197.246 1.59 1.082.064.542-.244.542l-.018-.001q-.328-.016-.516-.18-.069-.06-.104-.06-.061 0-.02.183.066.287.722.696.656.41.107.68-.137.068-.29.068-.467 0-1.096-.616-.836-.82-.885-1.246-.05-.427.344-.787.234-.215.161-.215-.05 0-.243.1-.475.246-.5.721-.024.476.377 1.041.402.566 1.582 1.435.121.063.274.063.324 0 .792-.285.689-.418-.689-1.286.509-.132.525-.443.64.213 3.59 3.967.787.525.804.77-.017.23-.246.28-.05.01-.1.01-.186 0-.392-.142-.918.443-1.779.46h-.09q-.8 0-1.328-.28.541.476.377 1-.08.255-.12.255-.044 0-.044-.287 0-.558-1.426-1.066v.623q-.084.353-.134.353-.047 0-.063-.32-.098-.705-.467-1.517-.369-.811-1.172-2.245-.803-1.435-1.025-2.066-.221-.631-.205-1.172.017-.541-.22-.795-.239-.254-.14-.55.098-.295-.295-.557v-.278q.426-.345.885-.345zm3.115 9.443q.803.23.803.54l-.541 2.017q-.066.361-.443.361h-.655v-.033l.836-2.557v-.328zM35.139 2.25h-.06q-.638 0-1.294.525-.377.131-.77.607.54.491.983.606.05.23.311.64.017 1.081.295 1.795.28.713 1.87 3.827.786 1.64.786 2.017 0 .574-.721 2.574 0 .114-.984.18-1.475.05-1.475.41 0 .213.197.213h4.36q.41-.328.46-.558.393.164.426.443.055.221.156.221.02 0 .04-.008.131-.049.131-.213-.114-.443-.573-.852l.524-2.213q1.59-.05 2.77-.509.22.05.401.05.365 0 .583-.197.328-.295-.13-.918-1-1-1.902-2.197-1.853-2.279-2.541-2.64-.23-.475-.55-.753-.32-.28-1.155-.689-.017-.967-.451-1.672-.425-.689-1.687-.689z"/><path d="M8.22.375c-9.625 0-9.625 17.25 0 17.25M8.22.375h35.47M8.22 17.625h35.47M51.378.375v17.25M43.69.375c9.626 0 9.626 17.25 0 17.25" fill="none" stroke="#000"/><path d="M17.437.803l.136 16.872 14.813-.05L32.306.44z" opacity=".401" fill="url(#b)"/></svg>