<svg xmlns="http://www.w3.org/2000/svg" width="38.358" height="18"><path d="M9.777 3.093q1.51.22 1.579 1.382v8.382q-.706-.843-2.536-1.184l.957-8.58zM9.35 2.25L8.22 12.272q2.52.289 3.136 1.8v1.678h.752V4.475q0-1.883-2.757-2.225zM21.21 2.702q1.389 0 2.744.185 1.65.226 3.401.798-.07.098-2.06 1.263-1.476-1.108-3.021-1.292-.985-.116-1.807-.116-.475 0-.896.039-1.15.106-1.948.38l.43-1.001q.855-.212 2.548-.247.306-.01.61-.01zM16.085 6.02q.07 0 .12.049.049.056.049.12 0 .092-.05.141-.049.05-.12.05-.07 0-.12-.05-.056-.05-.056-.141 0-.064.057-.12.05-.05.12-.05zm0-.085q-.106 0-.177.077-.07.078-.07.177 0 .106.07.183.07.078.177.078.105 0 .183-.078.078-.077.078-.183 0-.099-.078-.177-.078-.077-.183-.077zm0-.035q.12 0 .204.084.092.085.092.205 0 .141-.092.226-.084.091-.204.091-.12 0-.22-.091-.09-.085-.09-.226 0-.12.09-.205.1-.084.22-.084zm0-.142q-.177 0-.304.134-.134.128-.134.297 0 .176.134.303.127.134.304.134.169 0 .303-.134.127-.127.127-.303 0-.17-.127-.297-.134-.134-.303-.134zm3.719 1.264q.882 0 1.785.367-.571.38-1.44.38-.635 0-1.714-.26v-.332q.677-.155 1.369-.155zm0-.325q-.826 0-1.73.226v.847q1.123.29 2.076.29 1.072 0 2.18-.622-.098-.085-.649-.416-.543-.325-1.877-.325zm9.054-1.82q.819.987.819 2.01 0 1.017-.593 1.85-.5-.396-.797-.572-.29-.17-.953-.36.402-.452.402-.953 0-.487-.642-1.058.953-.276 1.764-.918zm-8.292-.834q1.666.022 2.477.247.812.226 1.793.967.98.748 1.842.748.592.466.592.861 0 .403-.367.812-1.277.162-2.385.917-1.094.749-2.392.749-1.299 0-2.633-.466l-.226.36v.02q-.275 0-1.418-.21-.798-.227-1.002-.382.085 0 .275-.085.812-.345.812-1.468h-.254q0 .565-.318.946-.31.402-.917.402-1.885-.31-2.252-.748.452-.099.438-.19.014-.156-.092-.19-.099-.015-.445-.396.085-.07.191-.12.395.452.607.536.205.085.205.205 0 .097-.135.097-.031 0-.07-.005-.04-.007-.071-.007-.14 0-.14.127 0 .155.45.303.453.148 1.144.148 1.038 0 1.038-.917 0-.226-.071-.607l-.134.035q.063.29.063.516 0 .811-.896.811-.748 0-1.108-.12-.367-.12-.31-.19.072.01.13.01.23 0 .23-.18 0-.212-.262-.339-.254-.127-.571-.494.748-.487 1.39-1.108.635-.62 1.61-1.1.966-.473 3.182-.495zm5.561 4.207q1.278 1.369 1.49 1.962-2.118-.473-3.17-1.01 1.42-.952 1.68-.952zm-6.457 1.2q1.242.36 2.251.36.085.07.656.846-.727-.155-1.192-.346-.713-.24-1.715-.86zm1.229-7.201q-.153 0-.305.002-1.672.028-2.886.268l-.621 1.58q-.798.311-1.482.975-.685.67-1.461 1.277-.536.24-.536.515 0 .276.225.487-.106.226-.106.36 0 .367.727.699.748.31 1.835.445.403.31.939.5.762.226 2.096.452 1.073.628 2.124.988.664.205 1.892.43l-.904-1.418q.43 0 1.61-.395.917.466 2.201.833 1.278.346 1.85.346 0-.346-.191-.727-.19-.402-1.384-1.701 1.49 0 2.682 1.263.904-1.397.904-2.526 0-1.144-1.038-2.703-1.334 1.058-2.131 1.263-1.038 0-1.263-.254 2.216-1.39 2.441-1.61-.38-.33-1.418-.641-1.045-.297-2.738-.516-1.54-.192-3.062-.192zM15.631 13.357l-2.023 2.393h.987l1.036-1.236 1.047 1.236 1.017-1.236 1.047 1.236 1.037-1.236 1.047 1.236 1.036-1.236 1.047 1.236 1.017-1.236 1.047 1.236 1.047-1.236 1.017 1.236 1.047-1.236 1.037 1.236h.987l-2.024-2.393-1.047 1.157-1.017-1.157-1.047 1.157-1.047-1.157-1.017 1.157-1.047-1.157-1.036 1.157-1.047-1.157-1.037 1.157-1.047-1.157-1.017 1.157-1.047-1.157z"/><path d="M8.22.375c-9.625 0-9.625 17.25 0 17.25M8.22.375h21.888M8.22 17.625h21.888M37.795.375v17.25M30.108.375c9.625 0 9.625 17.25 0 17.25" fill="none" stroke="#000"/></svg>