<svg xmlns="http://www.w3.org/2000/svg" width="42.975" height="18"><path d="M14.087 4.42c-.466.037-.723.27-.772.698.061.466.319.711.772.736.454-.025.693-.27.717-.736-.036-.429-.275-.661-.717-.698zm.055-1.545c.331 0 .638.061.92.184a2.424 2.424 0 011.25 1.241c.123.276.184.567.184.874 0 .318-.061.616-.184.891a2.34 2.34 0 01-2.17 1.388c-.33 0-.64-.057-.928-.174a2.212 2.212 0 01-.745-.487 2.39 2.39 0 01-.496-.727 2.17 2.17 0 01-.184-.891c0-.307.061-.598.184-.874a2.51 2.51 0 01.496-.735c.209-.215.457-.383.745-.506s.597-.184.928-.184zm-.036-.625a2.85 2.85 0 00-1.14.23 2.842 2.842 0 00-.92.625c-.257.264-.463.57-.616.92-.153.349-.23.726-.23 1.13 0 .405.077.782.23 1.131.153.35.359.653.616.91a2.918 2.918 0 002.06.846c.404 0 .781-.076 1.13-.23.35-.153.656-.358.92-.616.263-.257.472-.56.625-.91.153-.35.23-.726.23-1.13 0-.405-.077-.782-.23-1.132a2.98 2.98 0 00-1.544-1.544 2.784 2.784 0 00-1.131-.23zM9.575 10.292l3.317.185c.059.642.03 1.36-.087 2.152-1.238-.684-2.315-1.463-3.23-2.337zm3.6-.882c-.185 0-.376.12-.572.358l-3.585-.185c-.847.22-1.02.559-.518 1.019.097-.022.184-.032.26-.032.186 0 .307.064.362.192.079.18.29.417.632.708.344.29 1.274.892 2.791 1.802.18.45.378.674.595.674.101 0 .206-.049.316-.147 2.157.93 4.241 1.58 6.252 1.951l.283-.223-.692-.736c-1.476-.128-3.398-.701-5.766-1.721a6.124 6.124 0 01-.04-2.51l4.013.269c.596-.15.64-.458.133-.926l-3.951-.165c-.166-.219-.337-.328-.514-.328zM28.108 2.97q2.33 0 4.943 1.126Q30.44 5.19 28.108 5.19q-2.315 0-4.943-1.095 2.628-1.126 4.943-1.126zm0-.72q-2.878 0-6.617 1.83 3.739 1.815 6.617 1.815t6.617-1.815q-3.723-1.83-6.617-1.83zM23.115 13.83l-1.624 1.92h.792l.832-.992.84.992.815-.992.84.992.831-.992.84.992.831-.992.84.992.815-.992.84.992.84-.992.815.992.84-.992.831.992h.792l-1.623-1.92-.84.928-.815-.927-.84.927-.84-.927-.815.927-.84-.927-.831.927-.84-.927-.832.927-.84-.927-.815.927-.84-.927z"/><path d="M8.22.375c-9.625 0-9.625 17.25 0 17.25M8.22.375h26.505M8.22 17.625h26.505M42.412.375v17.25M34.725.375c9.625 0 9.625 17.25 0 17.25" fill="none" stroke="#000"/></svg>