<svg xmlns="http://www.w3.org/2000/svg" width="51.863" height="18"><path d="M11.386 8.203c-.51.04-.793.296-.847.767.067.51.35.78.847.806.498-.026.76-.295.787-.806-.04-.47-.303-.726-.787-.767zm.06-1.694c.364 0 .7.068 1.01.202a2.659 2.659 0 011.371 1.361c.134.303.201.622.201.958 0 .35-.067.676-.202.978a2.567 2.567 0 01-2.38 1.523c-.362 0-.702-.064-1.018-.192a2.426 2.426 0 01-.816-.534 2.621 2.621 0 01-.545-.797 2.38 2.38 0 01-.202-.978c0-.336.068-.655.202-.958.134-.302.316-.571.545-.806.228-.236.5-.42.816-.555a2.574 2.574 0 011.019-.202zm-.04-.685c-.443 0-.86.084-1.25.252-.39.168-.726.396-1.008.685a3.36 3.36 0 00-.676 1.009 3.053 3.053 0 00-.252 1.24c0 .444.084.857.252 1.24.168.384.393.716.676.999a3.2 3.2 0 002.258.927c.444 0 .857-.084 1.24-.252a3.36 3.36 0 001.009-.675c.289-.283.518-.615.686-.999.168-.383.252-.796.252-1.24 0-.444-.084-.857-.252-1.24a3.268 3.268 0 00-1.694-1.694 3.053 3.053 0 00-1.24-.252zM17.835 2.25q-1.742 0-1.742 1.674V15.75h.803V3.924q0-.87.939-.87.946 0 .946.87v7.87h.803v-7.87q0-1.674-1.75-1.674zM27.892 2.768q.939.556.939 1.667h-1.87q0-1.111.931-1.667zm.939 2.185q-.21.743-.939.743-.728 0-.916-.743zm5.391 1.299v.886H21.57v-.886zm-6.33-4.002q-1.434.54-1.434 2.32 0 .676.293 1.126h-5.684v1.96h13.65v-1.96h-5.66q.292-.45.292-1.126 0-1.78-1.457-2.32zM24.305 12.91c.797 0 1.794.41 2.276.893.422.422.478.981.493 1.501H21.56c.016-.52.07-1.08.493-1.501.482-.483 1.456-.892 2.252-.892zm0-.445c-.945 0-1.961.437-2.557 1.032-.611.612-.68 1.416-.68 2.018v.235h6.475v-.235c0-.602-.045-1.406-.657-2.018-.596-.595-1.636-1.032-2.58-1.032zM34.248 10.025l-.047 5.209-2.745.047-.023-5.233 2.815-.023zm.47-.446l-3.731.024.023 6.147 3.637-.07.07-6.1zM41.183 5.796l-.334.759q.714.144 1.018 1.435l1.154-.296v.721l-1.124.32q.008 1.062-.205 1.996-.22.934-.995 1.208-.387.132-.778.132-.39 0-.786-.132-.79-.274-1.002-1.208-.22-.934-.197-1.997l-1.124-.319v-.721l1.146.296q.304-1.29 1.025-1.435l-.349-.76zm-3.082-.532q-.274 0-.038.532l.205.463q-.608.387-.76 1.07l-1.29-.387v1.921l1.214.35q0 1.093.312 2.186.319 1.094 2.164 1.337 1.845-.243 2.171-1.337.32-1.093.32-2.186l1.214-.35v-1.92l-1.306.387q-.152-.684-.76-1.071l.206-.463q.243-.532-.038-.532z"/><path d="M8.22.375c-9.625 0-9.625 17.25 0 17.25M8.22.375h35.393M8.22 17.625h35.393M51.3.375v17.25M43.613.375c9.625 0 9.625 17.25 0 17.25" fill="none" stroke="#000"/></svg>