<svg width="57.852" height="18" xmlns:xlink="http://www.w3.org/1999/xlink" xmlns="http://www.w3.org/2000/svg"><defs><pattern xlink:href="#a" id="b" patternTransform="matrix(.45335 .49318 -5.86942 5.39533 2.83 1.375)"/><pattern patternUnits="userSpaceOnUse" width="3" height="1" patternTransform="scale(10)" id="a"><path d="M0-.5h1v2H0z"/></pattern></defs><path d="M49.602 17.625C60.78 17.582 57.289.375 49.564.272 44.84.254 23.94.405 23.94.405l-.158 8.621-7.958.12.025 8.484s27.784.067 33.753-.005z" opacity=".401" fill="url(#b)"/><path d="M11.386 8.203c-.51.04-.793.296-.847.767.067.51.35.78.847.806.498-.026.76-.295.787-.806-.04-.47-.303-.726-.787-.767zm.06-1.694c.364 0 .7.068 1.01.202a2.659 2.659 0 011.371 1.361c.134.303.201.622.201.958 0 .35-.067.676-.202.978a2.567 2.567 0 01-2.38 1.523c-.362 0-.702-.064-1.018-.192a2.426 2.426 0 01-.816-.534 2.621 2.621 0 01-.545-.797 2.38 2.38 0 01-.202-.978c0-.336.068-.655.202-.958.134-.302.316-.571.545-.806.228-.236.5-.42.816-.555a2.574 2.574 0 011.019-.202zm-.04-.685c-.443 0-.86.084-1.25.252-.39.168-.726.396-1.008.685a3.36 3.36 0 00-.676 1.009 3.053 3.053 0 00-.252 1.24c0 .444.084.857.252 1.24.168.384.393.716.676.999a3.2 3.2 0 002.258.927c.444 0 .857-.084 1.24-.252a3.36 3.36 0 001.009-.675c.289-.283.518-.615.686-.999.168-.383.252-.796.252-1.24 0-.444-.084-.857-.252-1.24a3.268 3.268 0 00-1.694-1.694 3.053 3.053 0 00-1.24-.252zM19.423 4.1q-.153 0-.318.07.116.073.116.29.084.092.182.092.072 0 .151-.049.064-.117.275-.117.077 0 .174.016-.264-.303-.58-.303zm8.487 4.473q-.507.376-.608.81H18.28q-.102-.434-.609-.81zm-.753 1.347l.652 3.968h-3.62V11.31h-2.796v2.578h-3.62l.651-3.968zm-7.696-5.996q.17 0 .354.116.782.072 1.361.405 0 .348 3.374.348 3.49.087 3.824.304.782.26 1.057.536.854.796 1.289 2.592l.188 1.535q.246 1.231.398 1.955.152.725.587 2.187-.739-.68-1.984-5.17-.188-.912-.695-1.52-.84-.696-1.478-.768l-.064-.001q-.468 0-.413.204-.102.231-.29.231-.797-.275-.797-.912.015-.333.348-.377.096.012.182.012.447 0 .629-.316-.478-.101-.854-.101-.638.087-.797.81 0 .435-1.636.508-1.231 0-1.521.333-.87-.13-.87-.623.088-.623.653-.652l.492-.188v-.174q-.106-.106-.266-.106-.19 0-.458.15-.768.087-.883 1.014-1.216-.848-1.61-.848h-.02q-.024.002-.049.002-.363 0-.783-.298l-.16.217-.188-.304-.16.202-.188-.347-.144.318-.276-.478-.159.406-.232-.507-.202.42-.247-.521-.188.29q-.301-.738.128-.738.169 0 .451.115.47-.093 1.017-.093.398 0 .837.05.21-.218.443-.218zm.165-.391q-.333 0-.608.217-.565-.036-1.017-.036-.453 0-.793.036-.229-.058-.413-.058-.504 0-.673.435-.058.188 0 .55l.275.203-.217.13q0 .263.251.263l.053-.002q1.477.405 3.056.55 1.853.985 1.853 1.217 0 .217-.579.318-.824-.223-1.306-.223-.144 0-.258.02-.565.03-.29.754l.058-.174q.019-.123.136-.123.063 0 .154.036l.087.26q.094-.246.21-.246.116 0 .253.247.039-.242.254-.242.108 0 .26.06.187.075.648.075.663 0 1.894-.154h.005q.1 0 .212-.507 0-.232 2.448-.304.159 0 .666.217 0 .217-.565.319-.836-.223-1.32-.223-.145 0-.259.02-.564.029-.29.753l.059-.174q.019-.122.135-.122.063 0 .154.035l.087.261q.094-.246.21-.246.116 0 .254.246.038-.241.254-.241.108 0 .26.06.187.074.647.074.664 0 1.894-.154h.006q.099 0 .212-.506.956.217 1.404 1.404.55 2.042 1.318 4.099.768 1.738 1.318 1.738.304-.044.333-.333-.202-.667-.42-1.608-.651-2.925-.71-3.707-.173-1.116-.448-1.84-.55-1.506-1.868-2.158-1.058-.405-1.84-.405-5.054-.13-5.054-.174-1.448-.637-2.39-.637zm-2.882 4.475q-.26.217.073.565.724.376.927.81-.493 0-.493.29 0 .261.594.261l-.753 4.533h4.953v-2.505h1.492v2.505h4.895l-.667-4.547q.55 0 .565-.247 0-.29-.492-.29.188-.434.912-.81.348-.348.13-.565zM35.646 11.088c.4.153.837.645.964 1.05.128.406.113.879.023 1.344-.09.458-.27.894-.488 1.18-.15.195-.285.307-.413.345h-.12c-.128-.03-.293-.143-.458-.346-.218-.285-.398-.72-.488-1.179-.09-.465-.105-.938.022-1.344.128-.405.606-.931.958-1.046v-.004zM35.22 2.25v.901h-.81v.578h.81l-.112 6.818c-.578.3-.939.81-1.111 1.359a3.576 3.576 0 00-.068 1.734 3.49 3.49 0 00.646 1.457c.232.3.54.548.9.623v.022c.023.008.046.008.068.008.03 0 .06-.008.09-.008.038.008.075.008.105.008s.053 0 .083-.008v-.022c.36-.075.668-.323.901-.623a3.49 3.49 0 00.646-1.457 3.576 3.576 0 00-.068-1.734 2.228 2.228 0 00-1.111-1.337l-.113-6.84h.766l.023-.578h-.856V2.25h-.789zM40.893 2.726q-.279 0-.279.328 0 .278.279.278.295-.016.295-.311t-.295-.295zm-1.082.213v.295l-.64.115q.296-.312.64-.41zm.033.393q.377.295.13.443-.376-.131-.557-.344l.427-.099zm1.147-.754q.77 0 1.23.59.459.59.491 1.82 1.197.246 1.59 1.082.064.542-.243.542l-.019-.001q-.328-.016-.516-.18-.069-.06-.104-.06-.06 0-.019.183.066.287.721.696.656.41.107.68-.136.068-.29.068-.467 0-1.095-.616-.836-.82-.886-1.246-.049-.427.345-.787.234-.215.16-.215-.05 0-.242.1-.476.246-.5.721-.025.476.377 1.041.401.566 1.582 1.435.12.063.273.063.324 0 .792-.285.689-.418-.688-1.286.508-.132.524-.443.64.213 3.59 3.967.787.525.804.77-.017.23-.246.28-.05.01-.1.01-.186 0-.392-.142-.918.443-1.779.46h-.09q-.8 0-1.328-.28.541.476.377 1-.08.255-.12.255-.044 0-.044-.287 0-.558-1.426-1.066v.623q-.084.353-.133.353-.048 0-.063-.32-.099-.705-.468-1.517-.369-.811-1.172-2.245-.803-1.435-1.024-2.066-.222-.631-.205-1.172.016-.541-.222-.795-.237-.254-.139-.55.098-.295-.295-.557v-.278q.426-.345.885-.345zm3.115 9.443q.803.23.803.54l-.54 2.017q-.066.361-.443.361h-.656v-.033l.836-2.557v-.328zM41.05 2.25h-.059q-.64 0-1.295.525-.377.131-.77.607.54.491.983.606.05.23.312.64.016 1.081.295 1.795.278.713 1.869 3.827.786 1.64.786 2.017 0 .574-.72 2.574 0 .114-.984.18-1.476.05-1.476.41 0 .213.197.213h4.36q.41-.328.46-.558.393.164.426.443.055.221.157.221.019 0 .04-.008.13-.049.13-.213-.114-.443-.573-.852l.524-2.213q1.59-.05 2.771-.509.219.05.4.05.365 0 .584-.197.327-.295-.132-.918-1-1-1.901-2.197-1.853-2.279-2.541-2.64-.23-.475-.55-.753-.32-.28-1.155-.689-.017-.967-.45-1.672-.425-.689-1.688-.689z"/><path d="M8.22.375c-9.625 0-9.625 17.25 0 17.25M8.22.375h41.382M8.22 17.625h41.382M57.29.375v17.25M49.602.375c9.625 0 9.625 17.25 0 17.25" fill="none" stroke="#000"/></svg>