<svg xmlns="http://www.w3.org/2000/svg" width="52.973" height="18"><path d="M11.386 8.203c-.51.04-.793.296-.847.767.067.51.35.78.847.806.498-.026.76-.295.787-.806-.04-.47-.303-.726-.787-.767zm.06-1.694c.364 0 .7.068 1.01.202a2.659 2.659 0 011.371 1.361c.134.303.201.622.201.958 0 .35-.067.676-.202.978a2.567 2.567 0 01-2.38 1.523c-.362 0-.702-.064-1.018-.192a2.426 2.426 0 01-.816-.534 2.621 2.621 0 01-.545-.797 2.38 2.38 0 01-.202-.978c0-.336.068-.655.202-.958.134-.302.316-.571.545-.806.228-.236.5-.42.816-.555a2.574 2.574 0 011.019-.202zm-.04-.685c-.443 0-.86.084-1.25.252-.39.168-.726.396-1.008.685a3.36 3.36 0 00-.676 1.009 3.053 3.053 0 00-.252 1.24c0 .444.084.857.252 1.24.168.384.393.716.676.999a3.2 3.2 0 002.258.927c.444 0 .857-.084 1.24-.252a3.36 3.36 0 001.009-.675c.289-.283.518-.615.686-.999.168-.383.252-.796.252-1.24 0-.444-.084-.857-.252-1.24a3.268 3.268 0 00-1.694-1.694 3.053 3.053 0 00-1.24-.252zM21.817 2.25c-.1 0-.201.012-.302.037-.203.05-.422.162-.659.338h-4.763v1.054h4.763c.237.175.456.288.659.337a1.264 1.264 0 00.601 0 1.44 1.44 0 00.595-.337h.184c.19.175.387.288.59.337a1.27 1.27 0 00.606 0c.203-.05.418-.162.647-.337h4.81V2.625h-4.81a1.795 1.795 0 00-.647-.338 1.27 1.27 0 00-.607 0c-.202.05-.399.162-.59.338h-.183a1.44 1.44 0 00-.595-.338 1.23 1.23 0 00-.3-.037zM16.597 5.434l-.011.003-.493.108c.07.583.297 1.15.673 1.603.338.411.81.738 1.345.813.182.017.366.023.55.023.19 0 .379-.006.568-.014.695-.037 1.391-.224 1.979-.606a3.92 3.92 0 00.916-.835c.027-.025.06-.03.095-.03.032 0 .065.004.097.004.014 0 .027 0 .04-.003.916-.009 1.832-.026 2.748-.026.52 0 1.04.006 1.56.021a.101.101 0 01.02-.003c.048 0-.055.08-.07.106-.378.428-.747.863-1.138 1.28l.792.446c.43-.424.755-.963 1.282-1.28.496-.255 1.07-.225 1.61-.273l.388-.034V5.67c-2.294.007-4.588.006-6.882.044a9.365 9.365 0 01-.258.004c-1.077 0-2.145-.174-3.22-.226a8.4 8.4 0 00-.31-.006c-.23 0-.461.011-.689.04-.226.055-.32.293-.429.473a5.31 5.31 0 01-.169.277c.021.01.041.014.06.014.084 0 .156-.08.233-.11.184-.105.385-.211.6-.211.03 0 .059.002.088.006.854.015 1.7.137 2.55.217-.175.38-.568.589-.943.73a6.048 6.048 0 01-2.095.392c-.387-.029-.698-.313-.917-.612-.281-.375-.43-.825-.57-1.268zM19.115 10.125c.822 0 1.554.38 2.03.973h-4.06a2.597 2.597 0 012.03-.973zm2.306 1.392c.156.299.257.631.287.984h-5.186c.03-.353.13-.685.287-.984zm.29 1.404a2.59 2.59 0 01-.273.984h-4.646a2.59 2.59 0 01-.273-.984zm-.539 1.403a2.598 2.598 0 01-2.057 1.007 2.597 2.597 0 01-2.057-1.007zm-2.057-4.619a3.026 3.026 0 00-3.022 3.023 3.026 3.026 0 003.022 3.022 3.026 3.026 0 003.022-3.022 3.027 3.027 0 00-3.022-3.023zM26.533 13.107c.742 0 1.67.38 2.119.83.393.393.444.914.459 1.398h-5.134c.015-.484.066-1.005.459-1.398.45-.45 1.355-.83 2.097-.83zm0-.415c-.88 0-1.826.406-2.381.96-.57.57-.634 1.319-.634 1.88v.218h6.03v-.218c0-.561-.043-1.31-.612-1.88-.555-.554-1.523-.96-2.403-.96zM42.916 3.169c.706.03 1.093.045 1.26.045h.076l-.091 3.69a5.414 5.414 0 01-1.405-.835l.16-2.9zM32.619 2.25c-.235.046-.546.19-.508.47V4.78a39.352 39.352 0 00-1.063-.046c0 .258.212.607.873.607.007.585.114 1.299.22 1.663l.091.957c0 .106.182.137.38.137.235 0 .493-.046.493-.046l-.038-.957c3.751.03 10.904.22 11.261.22.182 0 .304-.197.304-.47l.09-4.123-2.254-.023-.183 3.212c-1.632.007-4.457.273-6.378.273-.607 0-1.131-.023-1.488-.098-.076-.084-.782-1.11-1.23-1.223a1.97 1.97 0 00-.266-.03c-.076-.623-.152-1.246-.22-1.86.137-.175.448-.13.531-.365.084-.114.03-.304-.129-.311-.09-.038-.341-.046-.448-.046zM32.725 13.767l-1.677 1.983h.818l.859-1.025.868 1.025.842-1.025.868 1.025.86-1.025.867 1.025.86-1.025.867 1.025.843-1.025.867 1.025.868-1.025.843 1.025.867-1.025.86 1.025h.818l-1.678-1.983-.867.958-.843-.958-.868.958-.867-.958-.843.958-.868-.958-.859.958-.868-.958-.859.958-.868-.958-.842.958-.868-.958z"/><path d="M8.22.375c-9.625 0-9.625 17.25 0 17.25M8.22.375h36.503M8.22 17.625h36.503M52.41.375v17.25M44.723.375c9.625 0 9.625 17.25 0 17.25" fill="none" stroke="#000"/></svg>