<svg xmlns="http://www.w3.org/2000/svg" width="44.156" height="18"><path d="M11.386 8.203c-.51.04-.793.296-.847.767.067.51.35.78.847.806.498-.026.76-.295.787-.806-.04-.47-.303-.726-.787-.767zm.06-1.694c.364 0 .7.068 1.01.202a2.659 2.659 0 011.371 1.361c.134.303.201.622.201.958 0 .35-.067.676-.202.978a2.567 2.567 0 01-2.38 1.523c-.362 0-.702-.064-1.018-.192a2.426 2.426 0 01-.816-.534 2.621 2.621 0 01-.545-.797 2.38 2.38 0 01-.202-.978c0-.336.068-.655.202-.958.134-.302.316-.571.545-.806.228-.236.5-.42.816-.555a2.574 2.574 0 011.019-.202zm-.04-.685c-.443 0-.86.084-1.25.252-.39.168-.726.396-1.008.685a3.36 3.36 0 00-.676 1.009 3.053 3.053 0 00-.252 1.24c0 .444.084.857.252 1.24.168.384.393.716.676.999a3.2 3.2 0 002.258.927c.444 0 .857-.084 1.24-.252a3.36 3.36 0 001.009-.675c.289-.283.518-.615.686-.999.168-.383.252-.796.252-1.24 0-.444-.084-.857-.252-1.24a3.268 3.268 0 00-1.694-1.694 3.053 3.053 0 00-1.24-.252zM17.835 2.25q-1.742 0-1.742 1.674V15.75h.803V3.924q0-.87.939-.87.946 0 .946.87v7.87h.803v-7.87q0-1.674-1.75-1.674zM22.857 11.088c.4.153.837.645.965 1.05.127.406.112.879.022 1.344-.09.458-.27.894-.488 1.18-.15.195-.285.307-.413.345h-.12c-.128-.03-.293-.143-.458-.346-.218-.285-.398-.72-.488-1.179-.09-.465-.105-.938.022-1.344.128-.405.606-.931.958-1.046v-.004zm-.425-8.838v.901h-.81v.578h.81l-.112 6.818c-.578.3-.939.81-1.111 1.359a3.576 3.576 0 00-.068 1.734 3.49 3.49 0 00.646 1.457c.232.3.54.548.9.623v.022c.023.008.046.008.068.008.03 0 .06-.008.09-.008a.532.532 0 00.106.008c.03 0 .052 0 .082-.008v-.022c.36-.075.668-.323.901-.623a3.49 3.49 0 00.646-1.457 3.576 3.576 0 00-.068-1.734 2.228 2.228 0 00-1.111-1.337l-.113-6.84h.766l.023-.578h-.856V2.25h-.789zM26.904 3.897q-.09 0-.216.11-.496.668-.535 1.909.153.973.688 2.748-.191 1.431-.287 3.931-.076.84.458 1.088 1.584.42 4.008.42 2.443 0 4.008-.42.554-.248.477-1.088-.095-2.5-.286-3.931.534-1.775.687-2.748-.038-1.241-.534-1.909-.126-.11-.216-.11-.13 0-.185.225.133.381.248.744.153.458.114.859-.038.649-.124 1.059-.086.41-.353.41l-.028.001q-.449 0-.449-1.203 0-.44.115-1.069-.099-.167-.212-.167-.107 0-.227.148-.058.458-.077 1.012-.076.84.401 2.366-.172 2.157-.172 4.313-1.297.21-3.187.267-1.87-.057-3.168-.267 0-2.156-.172-4.313.477-1.527.401-2.366-.019-.554-.076-1.012-.12-.148-.227-.148-.114 0-.212.167.114.63.114 1.069 0 1.203-.449 1.203h-.028q-.267 0-.353-.411-.086-.41-.124-1.06-.038-.4.115-.858.114-.363.248-.744-.056-.225-.185-.225z"/><path d="M8.22.375c-9.625 0-9.625 17.25 0 17.25M8.22.375h27.686M8.22 17.625h27.686M43.593.375v17.25M35.906.375c9.625 0 9.625 17.25 0 17.25" fill="none" stroke="#000"/></svg>