<svg xmlns="http://www.w3.org/2000/svg" width="57.199" height="18"><path d="M11.386 8.203c-.51.04-.793.296-.847.767.067.51.35.78.847.806.498-.026.76-.295.787-.806-.04-.47-.303-.726-.787-.767zm.06-1.694c.364 0 .7.068 1.01.202a2.659 2.659 0 011.371 1.361c.134.303.201.622.201.958 0 .35-.067.676-.202.978a2.567 2.567 0 01-2.38 1.523c-.362 0-.702-.064-1.018-.192a2.426 2.426 0 01-.816-.534 2.621 2.621 0 01-.545-.797 2.38 2.38 0 01-.202-.978c0-.336.068-.655.202-.958.134-.302.316-.571.545-.806.228-.236.5-.42.816-.555a2.574 2.574 0 011.019-.202zm-.04-.685c-.443 0-.86.084-1.25.252-.39.168-.726.396-1.008.685a3.36 3.36 0 00-.676 1.009 3.053 3.053 0 00-.252 1.24c0 .444.084.857.252 1.24.168.384.393.716.676.999a3.2 3.2 0 002.258.927c.444 0 .857-.084 1.24-.252a3.36 3.36 0 001.009-.675c.289-.283.518-.615.686-.999.168-.383.252-.796.252-1.24 0-.444-.084-.857-.252-1.24a3.268 3.268 0 00-1.694-1.694 3.053 3.053 0 00-1.24-.252zM18.571 2.595q-.082.871-.082 1.953 0 1.08.105 2.184-.24-.127-.75-.127-.519 0-.752.127.113-1.103.105-2.184-.007-1.082-.082-1.953zm-.728 4.475q.51.008 1.036.27l-.135.248q-.106-.018-.199-.018-.32 0-.477.221-.09-.398-.225-.488-.135.09-.233.488-.157-.221-.477-.221-.092 0-.198.018l-.136-.247q.541-.263 1.044-.27zm0 .721q.113.09.075.263-.037.173-.075.33-.045-.157-.082-.33-.038-.173.082-.263zm.684.001q.042 0 .09.007-.511 1.216-.774 1.216-.255 0-.788-1.216.048-.007.091-.007.274 0 .352.247.097.278.202.45.113.18.143.18.038 0 .135-.18.105-.172.195-.45.085-.247.354-.247zM16.672 2.25q.36 2.553-.008 4.603-.668.315-.555.533.082.164.189.164.039 0 .081-.022.653.736 1.074 1.735.165 1.644-.045 5.684 0 .803.42.803h.023q.42 0 .42-.803-.203-4.04-.045-5.684.413-.999 1.066-1.735.043.022.082.022.106 0 .189-.164.112-.218-.549-.533-.375-2.05 0-4.603zM27.506 2.65a2.48 2.48 0 011.94.93h-3.88a2.48 2.48 0 011.94-.93zm2.202 1.33c.15.285.246.603.275.94H25.03c.029-.337.125-.655.275-.94zm.277 1.34a2.473 2.473 0 01-.26.94h-4.437a2.473 2.473 0 01-.26-.94zm-.515 1.34a2.48 2.48 0 01-1.964.962c-.8 0-1.51-.377-1.964-.962zm-1.964-4.41a2.89 2.89 0 00-2.886 2.886 2.89 2.89 0 002.886 2.886 2.89 2.89 0 002.886-2.886 2.89 2.89 0 00-2.886-2.886zM32.605 11.562l1.039.043v3.01q-.225 0-1.157-.665l.118-2.388zm-9.919-1.34l-.846 4.553-.557-.193q.006-.008 1.403-4.36zm.09-.881q-.078 0-.176.121l-1.703 5.313 1.168.44.857-4.564.728 2.153-.793.033.022.16q.171.354.696.354-.278.514.59 1.617h.267l.29.782.385-.171-.225-.61 8.901.01q.118-.032.204-.16.064 0 .128-3.653h-1.874l-.15 2.645q-.235-.006-.507-.006-1.7 0-4.85.231-1.156-.021-1.156-.128-.664-.986-1.446-1.04l-1.2-3.352q-.064-.175-.157-.175zM48.129 2.888c.121 0 .182.44.182.562 0 .121-.061.562-.182.562H36.465c-.141 0-.212-.44-.212-.562 0-.122.07-.562.212-.562zM36.1 2.25c-.324 0-.486.653-.486 1.2 0 .546.162 1.2.486 1.2h12.392c.304 0 .456-.654.456-1.2 0-.547-.152-1.2-.456-1.2zM48.129 13.988c.121 0 .182.44.182.562 0 .122-.061.562-.182.562H36.465c-.141 0-.212-.44-.212-.562 0-.121.07-.562.212-.562zM36.1 13.351c-.324 0-.486.653-.486 1.2 0 .546.162 1.199.486 1.199h12.392c.304 0 .456-.653.456-1.2 0-.546-.152-1.2-.456-1.2z"/><path d="M8.22.375c-9.625 0-9.625 17.25 0 17.25M8.22.375h40.729M8.22 17.625h40.729M56.636.375v17.25M48.949.375c9.625 0 9.625 17.25 0 17.25" fill="none" stroke="#000"/></svg>