<svg xmlns="http://www.w3.org/2000/svg" width="48.727" height="18"><path d="M11.386 8.203c-.51.04-.793.296-.847.767.067.51.35.78.847.806.498-.026.76-.295.787-.806-.04-.47-.303-.726-.787-.767zm.06-1.694c.364 0 .7.068 1.01.202a2.659 2.659 0 011.371 1.361c.134.303.201.622.201.958 0 .35-.067.676-.202.978a2.567 2.567 0 01-2.38 1.523c-.362 0-.702-.064-1.018-.192a2.426 2.426 0 01-.816-.534 2.621 2.621 0 01-.545-.797 2.38 2.38 0 01-.202-.978c0-.336.068-.655.202-.958.134-.302.316-.571.545-.806.228-.236.5-.42.816-.555a2.574 2.574 0 011.019-.202zm-.04-.685c-.443 0-.86.084-1.25.252-.39.168-.726.396-1.008.685a3.36 3.36 0 00-.676 1.009 3.053 3.053 0 00-.252 1.24c0 .444.084.857.252 1.24.168.384.393.716.676.999a3.2 3.2 0 002.258.927c.444 0 .857-.084 1.24-.252a3.36 3.36 0 001.009-.675c.289-.283.518-.615.686-.999.168-.383.252-.796.252-1.24 0-.444-.084-.857-.252-1.24a3.268 3.268 0 00-1.694-1.694 3.053 3.053 0 00-1.24-.252zM17.835 2.25q-1.742 0-1.742 1.674V15.75h.803V3.924q0-.87.939-.87.946 0 .946.87v7.87h.803v-7.87q0-1.674-1.75-1.674zM23.138 2.79c.503.038.935.152 1.295.342-.474.56-.906 1.323-1.295 2.29-.398-.967-.834-1.73-1.308-2.29.37-.18.806-.294 1.308-.341zm0 3.67c.294 2.741.45 4.963.47 5.778-.02 1.385-.176 2.305-.47 2.76-.303-.455-.46-1.375-.469-2.76.01-.825.166-3.046.47-5.777zm0-4.21c-.967 0-1.673.294-2.12.882.674.56 1.215 1.427 1.623 2.603 0 .531-.107 1.975-.32 3.445-.214 1.47-.264 3.1-.15 4.893.245 1.118.537 1.677.878 1.677.03 0 .06-.004.09-.012.03.008.06.012.088.012.341 0 .634-.559.879-1.677.104-1.792.05-3.423-.164-4.893-.213-1.47-.32-2.914-.32-3.445.417-1.176.963-2.044 1.636-2.603-.455-.588-1.162-.882-2.12-.882zM33.703 2.943c.223 0 .357.038.426.077.202.13.106.437.073.63h-.997c-.024-.197-.133-.497.073-.63.07-.04.203-.077.425-.077zm-5.542 1.164V4.8h-.946v-.693zm4.917 0V4.8H28.39v-.693zm1.14 0V4.8h-.912v-.693zm4.578 0V4.8h-4.35v-.693zm1.224 0V4.8h-.996v-.693zM31.7 2.25l-.322.323 1.08 1.077h-5.7v1.607h13.719V3.65H34.95l1.079-1.077-.323-.323-.998.995c-.06-.603-.473-.741-1.005-.759-.568.016-.916.144-1.005.76L31.7 2.25zM28.44 13.76l-1.682 1.99h.82l.863-1.028.87 1.028.846-1.028.87 1.028.862-1.028.87 1.028.863-1.028.87 1.028.845-1.028.87 1.028.871-1.028.846 1.028.87-1.028.862 1.028h.82l-1.682-1.99-.87.962-.846-.961-.87.961-.87-.961-.846.961-.87-.961-.863.961-.87-.961-.862.961-.87-.961-.846.961-.87-.961z"/><path d="M8.22.375c-9.625 0-9.625 17.25 0 17.25M8.22.375h32.257M8.22 17.625h32.257M48.164.375v17.25M40.477.375c9.625 0 9.625 17.25 0 17.25" fill="none" stroke="#000"/></svg>