<svg xmlns="http://www.w3.org/2000/svg" width="38.206" height="18"><path d="M14.087 4.42c-.466.037-.723.27-.772.698.061.466.319.711.772.736.454-.025.693-.27.717-.736-.036-.429-.275-.661-.717-.698zm.055-1.545c.331 0 .638.061.92.184a2.424 2.424 0 011.25 1.241c.123.276.184.567.184.874 0 .318-.061.616-.184.891a2.34 2.34 0 01-2.17 1.388c-.33 0-.64-.057-.928-.174a2.212 2.212 0 01-.745-.487 2.39 2.39 0 01-.496-.727 2.17 2.17 0 01-.184-.891c0-.307.061-.598.184-.874a2.51 2.51 0 01.496-.735c.209-.215.457-.383.745-.506s.597-.184.928-.184zm-.036-.625a2.85 2.85 0 00-1.14.23 2.842 2.842 0 00-.92.625c-.257.264-.463.57-.616.92-.153.349-.23.726-.23 1.13 0 .405.077.782.23 1.131.153.35.359.653.616.91a2.918 2.918 0 002.06.846c.404 0 .781-.076 1.13-.23.35-.153.656-.358.92-.616.263-.257.472-.56.625-.91.153-.35.23-.726.23-1.13 0-.405-.077-.782-.23-1.132a2.98 2.98 0 00-1.544-1.544 2.784 2.784 0 00-1.131-.23zM9.575 10.292l3.317.185c.059.642.03 1.36-.087 2.152-1.238-.684-2.315-1.463-3.23-2.337zm3.6-.882c-.185 0-.376.12-.572.358l-3.585-.185c-.847.22-1.02.559-.518 1.019.097-.022.184-.032.26-.032.186 0 .307.064.362.192.079.18.29.417.632.708.344.29 1.274.892 2.791 1.802.18.45.378.674.595.674.101 0 .206-.049.316-.147 2.157.93 4.241 1.58 6.252 1.951l.283-.223-.692-.736c-1.476-.128-3.398-.701-5.766-1.721a6.124 6.124 0 01-.04-2.51l4.013.269c.596-.15.64-.458.133-.926l-3.951-.165c-.166-.219-.337-.328-.514-.328zM22.143 2.25q-.079 0-.188.095-.43.58-.464 1.657.133.845.597 2.385-.166 1.243-.249 3.413-.066.728.398.944 1.375.364 3.478.364 2.12 0 3.479-.364.48-.216.414-.944-.083-2.17-.248-3.413.463-1.54.596-2.385-.033-1.077-.464-1.657-.11-.095-.187-.095-.112 0-.16.195.115.331.215.646.132.397.099.745-.033.563-.108.92-.074.356-.306.356h-.025q-.39 0-.39-1.044 0-.38.1-.927-.085-.145-.184-.145-.093 0-.197.128-.05.398-.066.878-.066.729.348 2.054-.15 1.872-.15 3.744-1.126.182-2.766.231-1.623-.05-2.75-.231 0-1.872-.148-3.744.414-1.325.347-2.054-.016-.48-.066-.878-.104-.128-.197-.128-.099 0-.184.145.1.546.1.927 0 1.045-.39 1.045l-.025-.001q-.231 0-.306-.356-.075-.357-.108-.92-.033-.348.1-.745.1-.315.215-.646-.049-.195-.16-.195zM21.572 12.41v3.34h.558v-3.34zm3.838.005v3.335h.558v-3.335zm3.907 0v3.335h.559v-3.335z"/><path d="M8.22.375c-9.625 0-9.625 17.25 0 17.25M8.22.375h21.736M8.22 17.625h21.736M37.643.375v17.25M29.956.375c9.625 0 9.625 17.25 0 17.25" fill="none" stroke="#000"/></svg>