<svg xmlns="http://www.w3.org/2000/svg" width="59.611" height="18"><path d="M11.386 8.203c-.51.04-.793.296-.847.767.067.51.35.78.847.806.498-.026.76-.295.787-.806-.04-.47-.303-.726-.787-.767zm.06-1.694c.364 0 .7.068 1.01.202a2.659 2.659 0 011.371 1.361c.134.303.201.622.201.958 0 .35-.067.676-.202.978a2.567 2.567 0 01-2.38 1.523c-.362 0-.702-.064-1.018-.192a2.426 2.426 0 01-.816-.534 2.621 2.621 0 01-.545-.797 2.38 2.38 0 01-.202-.978c0-.336.068-.655.202-.958.134-.302.316-.571.545-.806.228-.236.5-.42.816-.555a2.574 2.574 0 011.019-.202zm-.04-.685c-.443 0-.86.084-1.25.252-.39.168-.726.396-1.008.685a3.36 3.36 0 00-.676 1.009 3.053 3.053 0 00-.252 1.24c0 .444.084.857.252 1.24.168.384.393.716.676.999a3.2 3.2 0 002.258.927c.444 0 .857-.084 1.24-.252a3.36 3.36 0 001.009-.675c.289-.283.518-.615.686-.999.168-.383.252-.796.252-1.24 0-.444-.084-.857-.252-1.24a3.268 3.268 0 00-1.694-1.694 3.053 3.053 0 00-1.24-.252zM18.571 2.595q-.082.871-.082 1.953 0 1.08.105 2.184-.24-.127-.75-.127-.519 0-.752.127.113-1.103.105-2.184-.007-1.082-.082-1.953zm-.728 4.475q.51.008 1.036.27l-.135.248q-.106-.018-.199-.018-.32 0-.477.221-.09-.398-.225-.488-.135.09-.233.488-.157-.221-.477-.221-.092 0-.198.018l-.136-.247q.541-.263 1.044-.27zm0 .721q.113.09.075.263-.037.173-.075.33-.045-.157-.082-.33-.038-.173.082-.263zm.684.001q.042 0 .09.007-.511 1.216-.774 1.216-.255 0-.788-1.216.048-.007.091-.007.274 0 .352.247.097.278.202.45.113.18.143.18.038 0 .135-.18.105-.172.195-.45.085-.247.354-.247zM16.672 2.25q.36 2.553-.008 4.603-.668.315-.555.533.082.164.189.164.039 0 .081-.022.653.736 1.074 1.735.165 1.644-.045 5.684 0 .803.42.803h.023q.42 0 .42-.803-.203-4.04-.045-5.684.413-.999 1.066-1.735.043.022.082.022.106 0 .189-.164.112-.218-.549-.533-.375-2.05 0-4.603zM22.804 2.25q-1.742 0-1.742 1.674V15.75h.803V3.924q0-.87.939-.87.946 0 .946.87v7.87h.803v-7.87q0-1.674-1.75-1.674zM27.778 2.25q-1.742 0-1.742 1.674V15.75h.804V3.924q0-.87.938-.87.946 0 .946.87v7.87h.804v-7.87q0-1.674-1.75-1.674zM35.065 2.25c-.09 0-.096.283-.225.701-.146.476-.253 1.472-.591 1.665a.298.298 0 01-.153.039c-.1 0-.202-.038-.313-.038a.409.409 0 00-.126.02c-.159.05-.242.297-.41.326-.69.12-1.636.075-2.165.123-.339.03.567.698 1.474.698h.038c.188-.005.387-.013.584-.013.331 0 .658.024.928.135.264.109.576.425.572.735l-.11 9.109h1.019l-.052-10.289c-.001-.276.796-.464.9-.702.182-.415.089-2.247-.204-2.493a.016.016 0 00-.01-.004c-.133 0-.379 1.92-.767 2.333-.04.043-.117.062-.185.062-.072 0-.133-.022-.121-.062.246-.838.345-2.061-.041-2.329a.077.077 0 00-.042-.016zM50.54 2.888c.122 0 .183.44.183.562 0 .121-.06.562-.182.562H38.878c-.142 0-.213-.44-.213-.562 0-.122.071-.562.213-.562zM38.514 2.25c-.324 0-.486.653-.486 1.2 0 .546.162 1.2.486 1.2h12.392c.304 0 .456-.654.456-1.2 0-.547-.152-1.2-.456-1.2zM50.54 13.988c.122 0 .183.44.183.562 0 .122-.06.562-.182.562H38.878c-.142 0-.213-.44-.213-.562 0-.121.071-.562.213-.562zm-12.027-.637c-.324 0-.486.653-.486 1.2 0 .546.162 1.199.486 1.199h12.392c.304 0 .456-.653.456-1.2 0-.546-.152-1.2-.456-1.2z"/><path d="M8.22.375c-9.625 0-9.625 17.25 0 17.25M8.22.375h43.141M8.22 17.625h43.141M59.048.375v17.25M51.361.375c9.625 0 9.625 17.25 0 17.25" fill="none" stroke="#000"/></svg>