<svg xmlns="http://www.w3.org/2000/svg" width="44.858" height="18"><path d="M11.386 8.203c-.51.04-.793.296-.847.767.067.51.35.78.847.806.498-.026.76-.295.787-.806-.04-.47-.303-.726-.787-.767zm.06-1.694c.364 0 .7.068 1.01.202a2.659 2.659 0 011.371 1.361c.134.303.201.622.201.958 0 .35-.067.676-.202.978a2.567 2.567 0 01-2.38 1.523c-.362 0-.702-.064-1.018-.192a2.426 2.426 0 01-.816-.534 2.621 2.621 0 01-.545-.797 2.38 2.38 0 01-.202-.978c0-.336.068-.655.202-.958.134-.302.316-.571.545-.806.228-.236.5-.42.816-.555a2.574 2.574 0 011.019-.202zm-.04-.685c-.443 0-.86.084-1.25.252-.39.168-.726.396-1.008.685a3.36 3.36 0 00-.676 1.009 3.053 3.053 0 00-.252 1.24c0 .444.084.857.252 1.24.168.384.393.716.676.999a3.2 3.2 0 002.258.927c.444 0 .857-.084 1.24-.252a3.36 3.36 0 001.009-.675c.289-.283.518-.615.686-.999.168-.383.252-.796.252-1.24 0-.444-.084-.857-.252-1.24a3.268 3.268 0 00-1.694-1.694 3.053 3.053 0 00-1.24-.252zM19.164 2.575c1.185 0 2.192.886 2.548 1.763l-1.08.159c-.271-.537-.816-.838-1.54-.838h-.018c-.698.004-1.246.36-1.44.838l-1.065-.242c.461-.985 1.527-1.674 2.581-1.68h.014zm-.02 1.952c.437 0 .658.274.658.799 0 .475-.221.985-.657 1.55-.436-.565-.657-1.075-.657-1.55 0-.525.221-.799.657-.799zm0 3.71c.36.527.476 1.398 0 2.277-.308-.683-.41-1.522 0-2.277zm0-5.987c-.663 0-1.27.2-1.83.587-.56.386-.974 1.003-1.221 1.855l1.432.094c-.03.158-.047.332-.047.54 0 .644.357 1.37 1.08 2.183-.287.555-.504 1.04-.493 1.69-.024.983.237 1.31.563 2.231l-1.901 4.32h.986l1.432-3.569 1.409 3.569h1.01l-1.903-4.32c.327-.921.551-1.222.54-2.23.011-.651-.195-1.136-.493-1.69.733-.813 1.104-1.54 1.104-2.184 0-.208-.03-.382-.07-.54l1.432-.094c-.248-.852-.633-1.469-1.198-1.855-.564-.386-1.177-.587-1.831-.587zM29.108 2.94l.1.001h.05q1.868 0 3.562 1.606l-1.048.847q-.981-.936-2.564-.936-1.584 0-2.565.936l-1.048-.847q1.672-1.607 3.513-1.607zm.1 2.164q1.761.023 2.898 1.851h-5.82q.892-1.828 2.922-1.85zm0-2.854q-2.765.111-4.66 2.274l1.582 1.338q-.669.892-.825 1.673h7.783q-.157-.78-.825-1.65l1.471-1.338Q31.973 2.36 29.208 2.25zM23.674 11.352v4.398h.735v-4.398zm5.054.006v4.392h.735v-4.392zm5.145 0v4.392h.735v-4.392z"/><path d="M8.22.375c-9.625 0-9.625 17.25 0 17.25M8.22.375h26.388M8.22 17.625h26.388M42.295.375v17.25M34.608.375c9.625 0 9.625 17.25 0 17.25" fill="none" stroke="#000"/></svg>