<svg xmlns="http://www.w3.org/2000/svg" width="49.244" height="18"><path d="M11.386 8.203c-.51.04-.793.296-.847.767.067.51.35.78.847.806.498-.026.76-.295.787-.806-.04-.47-.303-.726-.787-.767zm.06-1.694c.364 0 .7.068 1.01.202a2.659 2.659 0 011.371 1.361c.134.303.201.622.201.958 0 .35-.067.676-.202.978a2.567 2.567 0 01-2.38 1.523c-.362 0-.702-.064-1.018-.192a2.426 2.426 0 01-.816-.534 2.621 2.621 0 01-.545-.797 2.38 2.38 0 01-.202-.978c0-.336.068-.655.202-.958.134-.302.316-.571.545-.806.228-.236.5-.42.816-.555a2.574 2.574 0 011.019-.202zm-.04-.685c-.443 0-.86.084-1.25.252-.39.168-.726.396-1.008.685a3.36 3.36 0 00-.676 1.009 3.053 3.053 0 00-.252 1.24c0 .444.084.857.252 1.24.168.384.393.716.676.999a3.2 3.2 0 002.258.927c.444 0 .857-.084 1.24-.252a3.36 3.36 0 001.009-.675c.289-.283.518-.615.686-.999.168-.383.252-.796.252-1.24 0-.444-.084-.857-.252-1.24a3.268 3.268 0 00-1.694-1.694 3.053 3.053 0 00-1.24-.252zM16.945 6.006q.829.86 1.205 1.958.376 1.097-.338 1.29-.103.027-.196.027-.549 0-.733-.972-.215-1.136.062-2.303zm11.922-.33q.104 0 .168.077.238.284-.706 1.512T26.31 9.691q-1.074 1.198-2.195 1.428-1.121.23-4.729.63l-1.397.368q-.369-.568-.276-1.136.447-.197.766-.197.504 0 .692.488 3.665-1.047 5.305-1.047.091 0 .176.003 2.58-3.224 3.362-3.991.572-.56.853-.56zm.222-.867h-.015q-.676.015-1.528.867t-3.14 3.877q-1.305.138-5.005 1.12-.33-.59-.82-.59-.057 0-.116.007l-.077-.322q1.136-1.09.138-2.756-.945-1.579-1.643-1.579-.039 0-.076.005-.676.292-.714 2.234-.039 1.942 1.543 2.31l.092.338q-.522.139-.622.691-.1.553.13 1.16.184.483.779.483.15 0 .327-.03l.154.567.752-.214-.17-.645.415-.108q3.578-.276 5.835-.783 4.406-3.96 4.414-5.304.007-1.328-.653-1.328zM31.992 3.897q-.09 0-.216.11-.496.668-.534 1.909.152.973.687 2.748-.191 1.431-.287 3.931-.076.84.459 1.088 1.584.42 4.007.42 2.443 0 4.008-.42.554-.248.477-1.088-.095-2.5-.286-3.931.534-1.775.687-2.748-.038-1.241-.534-1.909-.126-.11-.216-.11-.129 0-.185.225.134.381.248.744.153.458.115.859-.039.649-.124 1.059-.086.41-.354.41l-.028.001q-.449 0-.449-1.203 0-.44.115-1.069-.098-.167-.212-.167-.107 0-.227.148-.057.458-.076 1.012-.077.84.4 2.366-.171 2.157-.171 4.313-1.298.21-3.188.267-1.87-.057-3.168-.267 0-2.156-.172-4.313.478-1.527.401-2.366-.019-.554-.076-1.012-.12-.148-.227-.148-.114 0-.212.167.114.63.114 1.069 0 1.203-.449 1.203h-.028q-.267 0-.353-.411-.086-.41-.124-1.06-.038-.4.115-.858.114-.363.248-.744-.056-.225-.185-.225z"/><path d="M8.22.375c-9.625 0-9.625 17.25 0 17.25M8.22.375h32.774M8.22 17.625h32.774M48.682.375v17.25M40.994.375c9.625 0 9.625 17.25 0 17.25" fill="none" stroke="#000"/></svg>