<svg xmlns="http://www.w3.org/2000/svg" width="52.321" height="18"><path d="M13.878 4.229c-.425.033-.66.246-.704.637.055.425.29.648.704.67.413-.022.631-.245.654-.67-.034-.391-.252-.604-.654-.637zm.05-1.409c.302 0 .581.056.839.168a2.21 2.21 0 011.14 1.132c.112.251.168.517.168.796 0 .29-.056.562-.168.814a2.108 2.108 0 01-1.14 1.106c-.258.107-.537.16-.839.16-.302 0-.584-.053-.847-.16a2.017 2.017 0 01-.679-.444 2.18 2.18 0 01-.453-.662 1.98 1.98 0 01-.167-.814c0-.28.056-.545.167-.796.112-.252.263-.475.453-.671.19-.196.417-.35.68-.461a2.14 2.14 0 01.846-.168zm-.033-.57c-.37 0-.716.07-1.04.21-.324.14-.604.33-.839.57-.234.24-.422.52-.561.838-.14.319-.21.663-.21 1.031 0 .37.07.713.21 1.032.14.318.327.595.561.83a2.661 2.661 0 001.879.771c.369 0 .712-.07 1.03-.21.32-.14.599-.326.84-.561.24-.235.43-.512.57-.83.14-.319.21-.663.21-1.032 0-.368-.07-.712-.21-1.03a2.718 2.718 0 00-1.41-1.41 2.539 2.539 0 00-1.03-.209zM8.929 9.775q.689.715 1.002 1.628.312.913-.281 1.072-.086.024-.163.024-.457 0-.61-.809-.178-.944.052-1.915zm9.913-.274q.087 0 .14.064.198.236-.587 1.257-.785 1.022-1.68 2.017-.893.996-1.825 1.188-.932.191-3.932.523l-1.161.306q-.307-.472-.23-.944.372-.164.637-.164.42 0 .576.406 3.047-.87 4.41-.87.077 0 .147.002 2.145-2.68 2.796-3.32.475-.465.709-.465zm.184-.722h-.012q-.562.013-1.27.722-.709.708-2.611 3.223-1.085.115-4.162.932-.274-.491-.682-.491-.047 0-.097.006l-.063-.268q.944-.906.114-2.291-.786-1.313-1.366-1.313-.032 0-.063.004-.562.243-.594 1.858-.032 1.614 1.283 1.92l.077.282q-.434.115-.517.574-.083.46.108.964.153.402.647.402.125 0 .272-.025l.128.472.625-.179-.14-.536.345-.09q2.974-.23 4.85-.65Q19.564 11 19.57 9.884q.007-1.105-.543-1.105zM24.053 2.25q-.164 0-.18.144l.16-.035q.099 0 .054.104-.114.11-.034.323-.146.314-.56.314l-.051-.001q.02.233-.1.352-.416.239-.416.437.327.154.109.377-.218.224-.218.303.144.045.198.154.248.606.501.859l-.02.203q.244 0 .269-.258-.457-.556-.442-1.186.02-.63.8-1.241.222-.124.222-.482 0-.367-.292-.367zm2.978 0q-.293 0-.293.367 0 .358.214.482.789.61.809 1.24.015.631-.452 1.187.035.258.268.258l-.015-.203q.248-.253.502-.859.06-.11.193-.154 0-.08-.213-.303-.214-.223.109-.377 0-.198-.412-.437-.12-.119-.11-.352l-.049.001q-.406 0-.551-.314.074-.213-.035-.323-.044-.104.055-.104l.159.035q-.015-.144-.179-.144zm-1.492 2.72q.584 0 1.17.447.456.387.054.889h-2.452q-.402-.502.064-.889.581-.447 1.164-.447zm-1.754 1.504q-.69.805-.69 1.227.054.243.213.243.208 0 .268-.189 0-.625.268-1.047l-.06-.234zm3.514 0l-.06.234q.269.422.269 1.047.054.189.268.189.154 0 .213-.243 0-.422-.69-1.227zm-2.174.09q.323 0 .323.342v2.587q-1.013 0-1.147-.65-.134-.651-.015-2.28zm1.658 0q.134 1.628-.005 2.278-.14.65-1.152.65V6.907q0-.342.323-.342zm-1.316-2.765v.178q0 .125-.099.125-.154 0-.367-.18h-.11l.343.646-.11.035q-.178-.233-.357-.482-.027-.012-.049-.012-.054 0-.065.082l.268.467q-.188.153-.188.268-.298 0-.447.233-.432.303-.432.67 0 .278.179.635-.124.69-.124 1.738 0 .69.238 1.107.243.417 1.39.417 1.147 0 1.385-.417.243-.417.243-1.107.01-1.048-.114-1.728.179-.367.179-.645 0-.367-.437-.67-.154-.233-.442-.233 0-.115-.204-.268l.268-.467q0-.082-.05-.082-.02 0-.049.012-.178.249-.357.482l-.11-.035.333-.645h-.1q-.222.179-.381.179-.085 0-.085-.125V3.8zm-1.961 4.378h-.02q-.58 1.028-.58 1.618 0 .591.203.949.209.357.566.431-.481-.645-.481-1.032 0-.382.09-.626.079.68.357.958-.125-.546-.115-1.151.005-.61.204-.909.01-.238-.224-.238zm4.072 0q-.234 0-.224.238.188.298.198.909.01.605-.109 1.151.278-.278.357-.958.09.244.09.626 0 .387-.482 1.032.358-.074.556-.431.204-.358.204-.949 0-.59-.571-1.618h-.02zM21.07 12.156v3.594h.6v-3.594zm4.13.005v3.589h.6v-3.589zm4.204 0v3.589h.6v-3.589zM32.299 10.977v1.225h2.703v-1.225h-.53c-.154.272-.33.449-.53.53a.76.76 0 01-.59 0c-.195-.081-.37-.258-.524-.53zm1.64-4.458v2.03h-.614v2.483h.662V9.476h.768V7.347h.949c.169 1.324.629 2.308 1.379 2.952.75.643 1.677 1.016 2.78 1.12 1.104.102 1.828.248 2.174.435.346.188.519.377.519.569h1.346c-.206-.493-.482-.868-.828-1.126-.346-.257-.987-.42-1.925-.485-.938-.067-1.688-.19-2.251-.37a3.588 3.588 0 01-1.506-.96c-.442-.46-.78-1.447-1.015-2.963zM33.046 13.634l-1.541 1.823h.751l.79-.942.797.942.775-.942.797.942.79-.942.797.942.79-.942.797.942.774-.942.798.942.797-.942.774.942.798-.942.79.942h.751l-1.541-1.823-.798.881-.774-.88-.797.88-.798-.88-.774.88-.797-.88-.79.88-.797-.88-.79.88-.797-.88-.775.88-.797-.88zM41.185 4.447c-.41.032-.635.237-.678.613.054.409.28.624.678.646.397-.022.607-.237.629-.646-.033-.376-.242-.58-.63-.613zm.048-1.355c.29 0 .56.054.807.161a2.127 2.127 0 011.097 1.089c.107.242.161.498.161.767 0 .28-.054.54-.161.782a2.029 2.029 0 01-1.097 1.065 2.092 2.092 0 01-.807.153c-.29 0-.562-.05-.815-.153a1.94 1.94 0 01-.653-.428 2.097 2.097 0 01-.436-.637 1.905 1.905 0 01-.161-.782c0-.27.054-.525.161-.767.108-.242.253-.457.436-.645s.4-.336.653-.444c.253-.107.525-.161.815-.161zm-.032-.549a2.5 2.5 0 00-1 .202c-.313.135-.581.317-.807.549-.226.23-.406.5-.54.806a2.443 2.443 0 00-.202.993c0 .354.067.685.201.992.135.306.315.572.54.798a2.56 2.56 0 001.808.742c.355 0 .685-.067.992-.201.306-.135.575-.315.807-.54.23-.227.414-.493.548-.8.135-.306.202-.637.202-.991 0-.355-.067-.686-.202-.993a2.615 2.615 0 00-1.355-1.355 2.443 2.443 0 00-.992-.202z"/><path d="M8.22.375c-9.625 0-9.625 17.25 0 17.25M8.22.375h35.851M8.22 17.625h35.851M51.759.375v17.25M44.071.375c9.625 0 9.625 17.25 0 17.25" fill="none" stroke="#000"/></svg>